<?xml version="1.0" encoding="UTF-8"?>
<svg width="690px" height="134px" viewBox="0 0 690 134" version="1.1" xmlns="http://www.w3.org/2000/svg" xmlns:xlink="http://www.w3.org/1999/xlink">
    <title>Viz 1-C-Tablet</title>
    <g id="SVG-2.0" stroke="none" stroke-width="1" fill="none" fill-rule="evenodd">
        <g id="Tablet-Copy-2" transform="translate(-60.000000, -890.000000)">
            <g id="Viz-1-C-Tablet" transform="translate(61.000000, 884.000000)">
                <path d="M23.62,70.144 C24.02,70.144 24.392,70.086 24.736,69.97 C25.08,69.854 25.378,69.662 25.63,69.394 C25.882,69.126 26.08,68.776 26.224,68.344 C26.368,67.912 26.44,67.38 26.44,66.748 L26.44,66.748 L26.44,62.128 L25.48,62.128 L25.48,66.772 C25.48,67.244 25.432,67.64 25.336,67.96 C25.24,68.28 25.108,68.536 24.94,68.728 C24.772,68.92 24.576,69.058 24.352,69.142 C24.128,69.226 23.884,69.268 23.62,69.268 C23.364,69.268 23.124,69.226 22.9,69.142 C22.676,69.058 22.482,68.92 22.318,68.728 C22.154,68.536 22.024,68.28 21.928,67.96 C21.832,67.64 21.784,67.244 21.784,66.772 L21.784,66.772 L21.784,62.128 L20.788,62.128 L20.788,66.748 C20.788,67.38 20.86,67.912 21.004,68.344 C21.148,68.776 21.346,69.126 21.598,69.394 C21.85,69.662 22.15,69.854 22.498,69.97 C22.846,70.086 23.22,70.144 23.62,70.144 Z M31.204,70 L31.204,62.968 L33.58,62.968 L33.58,62.128 L27.82,62.128 L27.82,62.968 L30.196,62.968 L30.196,70 L31.204,70 Z M35.992,70 L35.992,62.128 L34.996,62.128 L34.996,70 L35.992,70 Z M42.592,70 L42.592,69.148 L39.148,69.148 L39.148,62.128 L38.152,62.128 L38.152,70 L42.592,70 Z M44.98,70 L44.98,62.128 L43.984,62.128 L43.984,70 L44.98,70 Z M52.024,70 L52.024,69.148 L47.836,69.148 L51.988,62.716 L51.988,62.128 L46.972,62.128 L46.972,62.968 L50.74,62.968 L46.6,69.4 L46.6,70 L52.024,70 Z M58.264,70 L58.264,69.148 L54.604,69.148 L54.604,66.292 L57.592,66.292 L57.592,65.44 L54.604,65.44 L54.604,62.968 L58.144,62.968 L58.144,62.128 L53.608,62.128 L53.608,70 L58.264,70 Z M61.948,70 C62.54,70 63.064,69.91 63.52,69.73 C63.976,69.55 64.36,69.29 64.672,68.95 C64.984,68.61 65.22,68.194 65.38,67.702 C65.54,67.21 65.62,66.652 65.62,66.028 C65.62,64.772 65.304,63.808 64.672,63.136 C64.04,62.464 63.116,62.128 61.9,62.128 L61.9,62.128 L59.932,62.128 L59.932,70 L61.948,70 Z M61.828,69.184 L60.928,69.184 L60.928,62.944 L61.828,62.944 C62.748,62.944 63.438,63.208 63.898,63.736 C64.358,64.264 64.588,65.028 64.588,66.028 C64.588,67.028 64.358,67.804 63.898,68.356 C63.438,68.908 62.748,69.184 61.828,69.184 L61.828,69.184 Z M74.152,70 L74.152,69.148 L70.708,69.148 L70.708,62.128 L69.712,62.128 L69.712,70 L74.152,70 Z M80.2,70 L80.2,69.148 L76.54,69.148 L76.54,66.292 L79.528,66.292 L79.528,65.44 L76.54,65.44 L76.54,62.968 L80.08,62.968 L80.08,62.128 L75.544,62.128 L75.544,70 L80.2,70 Z M82.816,70 L82.816,65.884 C82.816,65.468 82.802,65.054 82.774,64.642 C82.746,64.23 82.716,63.824 82.684,63.424 L82.684,63.424 L82.732,63.424 L83.584,65.044 L86.44,70 L87.472,70 L87.472,62.128 L86.524,62.128 L86.524,66.196 C86.524,66.612 86.538,67.034 86.566,67.462 C86.594,67.89 86.62,68.304 86.644,68.704 L86.644,68.704 L86.596,68.704 L85.744,67.072 L82.9,62.128 L81.868,62.128 L81.868,70 L82.816,70 Z M91.648,70 C92.24,70 92.764,69.91 93.22,69.73 C93.676,69.55 94.06,69.29 94.372,68.95 C94.684,68.61 94.92,68.194 95.08,67.702 C95.24,67.21 95.32,66.652 95.32,66.028 C95.32,64.772 95.004,63.808 94.372,63.136 C93.74,62.464 92.816,62.128 91.6,62.128 L91.6,62.128 L89.632,62.128 L89.632,70 L91.648,70 Z M91.528,69.184 L90.628,69.184 L90.628,62.944 L91.528,62.944 C92.448,62.944 93.138,63.208 93.598,63.736 C94.058,64.264 94.288,65.028 94.288,66.028 C94.288,67.028 94.058,67.804 93.598,68.356 C93.138,68.908 92.448,69.184 91.528,69.184 L91.528,69.184 Z M98.008,70 L98.008,62.128 L97.012,62.128 L97.012,70 L98.008,70 Z M101.116,70 L101.116,65.884 C101.116,65.468 101.102,65.054 101.074,64.642 C101.046,64.23 101.016,63.824 100.984,63.424 L100.984,63.424 L101.032,63.424 L101.884,65.044 L104.74,70 L105.772,70 L105.772,62.128 L104.824,62.128 L104.824,66.196 C104.824,66.612 104.838,67.034 104.866,67.462 C104.894,67.89 104.92,68.304 104.944,68.704 L104.944,68.704 L104.896,68.704 L104.044,67.072 L101.2,62.128 L100.168,62.128 L100.168,70 L101.116,70 Z M111.028,70.144 C111.556,70.144 112.028,70.058 112.444,69.886 C112.86,69.714 113.196,69.496 113.452,69.232 L113.452,69.232 L113.452,65.92 L110.872,65.92 L110.872,66.748 L112.54,66.748 L112.54,68.8 C112.38,68.944 112.174,69.058 111.922,69.142 C111.67,69.226 111.404,69.268 111.124,69.268 C110.7,69.268 110.326,69.192 110.002,69.04 C109.678,68.888 109.406,68.672 109.186,68.392 C108.966,68.112 108.798,67.774 108.682,67.378 C108.566,66.982 108.508,66.536 108.508,66.04 C108.508,65.552 108.57,65.112 108.694,64.72 C108.818,64.328 108.992,63.994 109.216,63.718 C109.44,63.442 109.712,63.23 110.032,63.082 C110.352,62.934 110.712,62.86 111.112,62.86 C111.512,62.86 111.844,62.932 112.108,63.076 C112.372,63.22 112.604,63.396 112.804,63.604 L112.804,63.604 L113.356,62.956 C113.244,62.836 113.114,62.718 112.966,62.602 C112.818,62.486 112.65,62.382 112.462,62.29 C112.274,62.198 112.066,62.124 111.838,62.068 C111.61,62.012 111.36,61.984 111.088,61.984 C110.568,61.984 110.086,62.078 109.642,62.266 C109.198,62.454 108.816,62.724 108.496,63.076 C108.176,63.428 107.926,63.856 107.746,64.36 C107.566,64.864 107.476,65.432 107.476,66.064 C107.476,66.704 107.564,67.278 107.74,67.786 C107.916,68.294 108.16,68.722 108.472,69.07 C108.784,69.418 109.158,69.684 109.594,69.868 C110.03,70.052 110.508,70.144 111.028,70.144 Z M54.442,86.32 L54.442,85.072 C55.066,84.936 55.534,84.662 55.846,84.25 C56.158,83.838 56.314,83.344 56.314,82.768 C56.314,82.384 56.236,82.062 56.08,81.802 C55.924,81.542 55.728,81.32 55.492,81.136 C55.256,80.952 55.002,80.796 54.73,80.668 C54.458,80.54 54.204,80.416 53.968,80.296 C53.732,80.176 53.536,80.05 53.38,79.918 C53.224,79.786 53.146,79.624 53.146,79.432 C53.146,79.16 53.222,78.964 53.374,78.844 C53.526,78.724 53.746,78.664 54.034,78.664 C54.29,78.664 54.518,78.714 54.718,78.814 C54.918,78.914 55.126,79.064 55.342,79.264 L55.342,79.264 L56.23,78.256 C55.998,78.008 55.738,77.796 55.45,77.62 C55.162,77.444 54.826,77.328 54.442,77.272 L54.442,77.272 L54.442,76.06 L53.278,76.06 L53.278,77.296 C52.71,77.408 52.264,77.658 51.94,78.046 C51.616,78.434 51.454,78.924 51.454,79.516 C51.454,79.876 51.532,80.18 51.688,80.428 C51.844,80.676 52.04,80.892 52.276,81.076 C52.512,81.26 52.766,81.418 53.038,81.55 C53.31,81.682 53.564,81.814 53.8,81.946 C54.036,82.078 54.232,82.216 54.388,82.36 C54.544,82.504 54.622,82.68 54.622,82.888 C54.622,83.168 54.544,83.376 54.388,83.512 C54.232,83.648 53.986,83.716 53.65,83.716 C53.362,83.716 53.08,83.658 52.804,83.542 C52.528,83.426 52.238,83.252 51.934,83.02 L51.934,83.02 L51.166,84.208 C51.446,84.464 51.78,84.67 52.168,84.826 C52.556,84.982 52.926,85.08 53.278,85.12 L53.278,85.12 L53.278,86.32 L54.442,86.32 Z M60.19,85.144 C60.598,85.144 60.968,85.09 61.3,84.982 C61.632,84.874 61.916,84.726 62.152,84.538 C62.388,84.35 62.57,84.128 62.698,83.872 C62.826,83.616 62.89,83.336 62.89,83.032 C62.89,82.528 62.762,82.12 62.506,81.808 C62.25,81.496 61.938,81.24 61.57,81.04 L61.57,81.04 L61.57,80.992 C61.834,80.816 62.066,80.586 62.266,80.302 C62.466,80.018 62.566,79.692 62.566,79.324 C62.566,79.012 62.51,78.726 62.398,78.466 C62.286,78.206 62.13,77.986 61.93,77.806 C61.73,77.626 61.486,77.486 61.198,77.386 C60.91,77.286 60.594,77.236 60.25,77.236 C59.898,77.236 59.572,77.284 59.272,77.38 C58.972,77.476 58.714,77.616 58.498,77.8 C58.282,77.984 58.114,78.206 57.994,78.466 C57.874,78.726 57.814,79.016 57.814,79.336 C57.814,79.744 57.91,80.09 58.102,80.374 C58.294,80.658 58.538,80.912 58.834,81.136 L58.834,81.136 L58.834,81.184 C58.474,81.376 58.168,81.62 57.916,81.916 C57.664,82.212 57.538,82.592 57.538,83.056 C57.538,83.368 57.604,83.652 57.736,83.908 C57.868,84.164 58.052,84.384 58.288,84.568 C58.524,84.752 58.804,84.894 59.128,84.994 C59.452,85.094 59.806,85.144 60.19,85.144 Z M60.67,80.56 C60.278,80.408 59.962,80.244 59.722,80.068 C59.482,79.892 59.362,79.648 59.362,79.336 C59.362,79.04 59.446,78.82 59.614,78.676 C59.782,78.532 59.982,78.46 60.214,78.46 C60.502,78.46 60.728,78.55 60.892,78.73 C61.056,78.91 61.138,79.148 61.138,79.444 C61.138,79.828 60.982,80.2 60.67,80.56 Z M60.226,83.92 C59.906,83.92 59.63,83.826 59.398,83.638 C59.166,83.45 59.05,83.188 59.05,82.852 C59.05,82.62 59.106,82.4 59.218,82.192 C59.33,81.984 59.47,81.8 59.638,81.64 C59.878,81.744 60.096,81.84 60.292,81.928 C60.488,82.016 60.658,82.11 60.802,82.21 C60.946,82.31 61.056,82.42 61.132,82.54 C61.208,82.66 61.246,82.804 61.246,82.972 C61.246,83.292 61.15,83.53 60.958,83.686 C60.766,83.842 60.522,83.92 60.226,83.92 Z M66.286,85.144 C66.67,85.144 67.034,85.094 67.378,84.994 C67.722,84.894 68.022,84.75 68.278,84.562 C68.534,84.374 68.738,84.142 68.89,83.866 C69.042,83.59 69.118,83.276 69.118,82.924 C69.118,82.428 68.976,82.026 68.692,81.718 C68.408,81.41 68.046,81.192 67.606,81.064 L67.606,81.064 L67.606,81.016 C68.014,80.84 68.328,80.614 68.548,80.338 C68.768,80.062 68.878,79.724 68.878,79.324 C68.878,78.988 68.814,78.692 68.686,78.436 C68.558,78.18 68.38,77.962 68.152,77.782 C67.924,77.602 67.648,77.466 67.324,77.374 C67,77.282 66.642,77.236 66.25,77.236 C65.778,77.236 65.348,77.322 64.96,77.494 C64.572,77.666 64.202,77.904 63.85,78.208 L63.85,78.208 L64.738,79.288 C64.978,79.08 65.208,78.916 65.428,78.796 C65.648,78.676 65.894,78.616 66.166,78.616 C66.47,78.616 66.702,78.69 66.862,78.838 C67.022,78.986 67.102,79.192 67.102,79.456 C67.102,79.608 67.072,79.746 67.012,79.87 C66.952,79.994 66.852,80.102 66.712,80.194 C66.572,80.286 66.388,80.356 66.16,80.404 C65.932,80.452 65.646,80.476 65.302,80.476 L65.302,80.476 L65.302,81.724 C65.718,81.724 66.058,81.75 66.322,81.802 C66.586,81.854 66.794,81.926 66.946,82.018 C67.098,82.11 67.204,82.224 67.264,82.36 C67.324,82.496 67.354,82.648 67.354,82.816 C67.354,83.104 67.242,83.326 67.018,83.482 C66.794,83.638 66.494,83.716 66.118,83.716 C65.79,83.716 65.488,83.644 65.212,83.5 C64.936,83.356 64.682,83.172 64.45,82.948 L64.45,82.948 L63.634,84.064 C63.914,84.392 64.27,84.654 64.702,84.85 C65.134,85.046 65.662,85.144 66.286,85.144 Z M72.622,85.144 C73.006,85.144 73.37,85.094 73.714,84.994 C74.058,84.894 74.358,84.75 74.614,84.562 C74.87,84.374 75.074,84.142 75.226,83.866 C75.378,83.59 75.454,83.276 75.454,82.924 C75.454,82.428 75.312,82.026 75.028,81.718 C74.744,81.41 74.382,81.192 73.942,81.064 L73.942,81.064 L73.942,81.016 C74.35,80.84 74.664,80.614 74.884,80.338 C75.104,80.062 75.214,79.724 75.214,79.324 C75.214,78.988 75.15,78.692 75.022,78.436 C74.894,78.18 74.716,77.962 74.488,77.782 C74.26,77.602 73.984,77.466 73.66,77.374 C73.336,77.282 72.978,77.236 72.586,77.236 C72.114,77.236 71.684,77.322 71.296,77.494 C70.908,77.666 70.538,77.904 70.186,78.208 L70.186,78.208 L71.074,79.288 C71.314,79.08 71.544,78.916 71.764,78.796 C71.984,78.676 72.23,78.616 72.502,78.616 C72.806,78.616 73.038,78.69 73.198,78.838 C73.358,78.986 73.438,79.192 73.438,79.456 C73.438,79.608 73.408,79.746 73.348,79.87 C73.288,79.994 73.188,80.102 73.048,80.194 C72.908,80.286 72.724,80.356 72.496,80.404 C72.268,80.452 71.982,80.476 71.638,80.476 L71.638,80.476 L71.638,81.724 C72.054,81.724 72.394,81.75 72.658,81.802 C72.922,81.854 73.13,81.926 73.282,82.018 C73.434,82.11 73.54,82.224 73.6,82.36 C73.66,82.496 73.69,82.648 73.69,82.816 C73.69,83.104 73.578,83.326 73.354,83.482 C73.13,83.638 72.83,83.716 72.454,83.716 C72.126,83.716 71.824,83.644 71.548,83.5 C71.272,83.356 71.018,83.172 70.786,82.948 L70.786,82.948 L69.97,84.064 C70.25,84.392 70.606,84.654 71.038,84.85 C71.47,85.046 71.998,85.144 72.622,85.144 Z M79.87,85 C80.294,85 80.69,84.954 81.058,84.862 C81.426,84.77 81.748,84.63 82.024,84.442 C82.3,84.254 82.516,84.016 82.672,83.728 C82.828,83.44 82.906,83.096 82.906,82.696 C82.906,82.432 82.87,82.198 82.798,81.994 C82.726,81.79 82.626,81.612 82.498,81.46 C82.37,81.308 82.222,81.182 82.054,81.082 C81.886,80.982 81.702,80.908 81.502,80.86 L81.502,80.86 L81.502,80.812 C81.662,80.756 81.804,80.668 81.928,80.548 C82.052,80.428 82.158,80.292 82.246,80.14 C82.334,79.988 82.402,79.824 82.45,79.648 C82.498,79.472 82.522,79.296 82.522,79.12 C82.522,78.744 82.448,78.432 82.3,78.184 C82.152,77.936 81.948,77.736 81.688,77.584 C81.428,77.432 81.124,77.326 80.776,77.266 C80.428,77.206 80.05,77.176 79.642,77.176 L79.642,77.176 L76.966,77.176 L76.966,85 L79.87,85 Z M79.558,80.308 L78.73,80.308 L78.73,78.544 L79.57,78.544 C79.986,78.544 80.294,78.608 80.494,78.736 C80.694,78.864 80.794,79.08 80.794,79.384 C80.794,79.664 80.696,79.888 80.5,80.056 C80.304,80.224 79.99,80.308 79.558,80.308 L79.558,80.308 Z M79.726,83.632 L78.73,83.632 L78.73,81.616 L79.726,81.616 C80.214,81.616 80.578,81.69 80.818,81.838 C81.058,81.986 81.178,82.232 81.178,82.576 C81.178,83.28 80.694,83.632 79.726,83.632 L79.726,83.632 Z" id="UTILIZEDLENDING$833B" fill="#666666" fill-rule="nonzero"></path>
                <path d="M227.96,18 L227.96,8.624 L231.128,8.624 L231.128,7.504 L223.448,7.504 L223.448,8.624 L226.616,8.624 L226.616,18 L227.96,18 Z M234.856,18.192 C235.336,18.192 235.792,18.1013333 236.224,17.92 C236.656,17.7386667 237.037333,17.4746667 237.368,17.128 C237.698667,16.7813333 237.962667,16.3546667 238.16,15.848 C238.357333,15.3413333 238.456,14.768 238.456,14.128 C238.456,13.4773333 238.357333,12.8986667 238.16,12.392 C237.962667,11.8853333 237.698667,11.456 237.368,11.104 C237.037333,10.752 236.656,10.4853333 236.224,10.304 C235.792,10.1226667 235.336,10.032 234.856,10.032 C234.376,10.032 233.92,10.1226667 233.488,10.304 C233.056,10.4853333 232.674667,10.752 232.344,11.104 C232.013333,11.456 231.749333,11.8853333 231.552,12.392 C231.354667,12.8986667 231.256,13.4773333 231.256,14.128 C231.256,14.768 231.354667,15.3413333 231.552,15.848 C231.749333,16.3546667 232.013333,16.7813333 232.344,17.128 C232.674667,17.4746667 233.056,17.7386667 233.488,17.92 C233.92,18.1013333 234.376,18.192 234.856,18.192 Z M234.856,17.104 C234.525333,17.104 234.221333,17.032 233.944,16.888 C233.666667,16.744 233.429333,16.5413333 233.232,16.28 C233.034667,16.0186667 232.882667,15.7066667 232.776,15.344 C232.669333,14.9813333 232.616,14.576 232.616,14.128 C232.616,13.68 232.669333,13.272 232.776,12.904 C232.882667,12.536 233.034667,12.2186667 233.232,11.952 C233.429333,11.6853333 233.666667,11.48 233.944,11.336 C234.221333,11.192 234.525333,11.12 234.856,11.12 C235.186667,11.12 235.490667,11.192 235.768,11.336 C236.045333,11.48 236.282667,11.6853333 236.48,11.952 C236.677333,12.2186667 236.829333,12.536 236.936,12.904 C237.042667,13.272 237.096,13.68 237.096,14.128 C237.096,14.576 237.042667,14.9813333 236.936,15.344 C236.829333,15.7066667 236.677333,16.0186667 236.48,16.28 C236.282667,16.5413333 236.045333,16.744 235.768,16.888 C235.490667,17.032 235.186667,17.104 234.856,17.104 Z M242.68,18.192 C242.925333,18.192 243.173333,18.1626667 243.424,18.104 C243.674667,18.0453333 243.906667,17.9786667 244.12,17.904 L244.12,17.904 L243.864,16.912 C243.736,16.9653333 243.592,17.0133333 243.432,17.056 C243.272,17.0986667 243.122667,17.12 242.984,17.12 C242.536,17.12 242.224,16.9893333 242.048,16.728 C241.872,16.4666667 241.784,16.096 241.784,15.616 L241.784,15.616 L241.784,11.296 L243.88,11.296 L243.88,10.224 L241.784,10.224 L241.784,8.048 L240.68,8.048 L240.52,10.224 L239.304,10.304 L239.304,11.296 L240.456,11.296 L240.456,15.6 C240.456,15.984 240.493333,16.336 240.568,16.656 C240.642667,16.976 240.768,17.248 240.944,17.472 C241.12,17.696 241.349333,17.872 241.632,18 C241.914667,18.128 242.264,18.192 242.68,18.192 Z M247.096,18.192 C247.586667,18.192 248.045333,18.0826667 248.472,17.864 C248.898667,17.6453333 249.298667,17.3813333 249.672,17.072 L249.672,17.072 L249.72,17.072 L249.832,18 L250.92,18 L250.92,13.232 C250.92,12.2613333 250.706667,11.4853333 250.28,10.904 C249.853333,10.3226667 249.165333,10.032 248.216,10.032 C247.586667,10.032 247.010667,10.1413333 246.488,10.36 C245.965333,10.5786667 245.522667,10.8053333 245.16,11.04 L245.16,11.04 L245.672,11.952 C245.981333,11.7386667 246.333333,11.5466667 246.728,11.376 C247.122667,11.2053333 247.544,11.12 247.992,11.12 C248.312,11.12 248.576,11.176 248.784,11.288 C248.992,11.4 249.154667,11.5466667 249.272,11.728 C249.389333,11.9093333 249.472,12.1173333 249.52,12.352 C249.568,12.5866667 249.592,12.8266667 249.592,13.072 C247.928,13.2533333 246.717333,13.5706667 245.96,14.024 C245.202667,14.4773333 244.824,15.1306667 244.824,15.984 C244.824,16.688 245.04,17.232 245.472,17.616 C245.904,18 246.445333,18.192 247.096,18.192 Z M247.48,17.136 C247.096,17.136 246.770667,17.04 246.504,16.848 C246.237333,16.656 246.104,16.336 246.104,15.888 C246.104,15.6426667 246.165333,15.416 246.288,15.208 C246.410667,15 246.608,14.816 246.88,14.656 C247.152,14.496 247.509333,14.3573333 247.952,14.24 C248.394667,14.1226667 248.941333,14.0213333 249.592,13.936 L249.592,13.936 L249.592,16.096 C249.218667,16.4373333 248.866667,16.696 248.536,16.872 C248.205333,17.048 247.853333,17.136 247.48,17.136 Z M254.76,18.192 C254.941333,18.192 255.090667,18.1813333 255.208,18.16 C255.325333,18.1386667 255.426667,18.1066667 255.512,18.064 L255.512,18.064 L255.336,17.072 C255.261333,17.0933333 255.205333,17.104 255.168,17.104 L255.168,17.104 L255.048,17.104 C254.952,17.104 254.866667,17.0613333 254.792,16.976 C254.717333,16.8906667 254.68,16.7413333 254.68,16.528 L254.68,16.528 L254.68,6.608 L253.368,6.608 L253.368,16.432 C253.368,17.008 253.474667,17.4453333 253.688,17.744 C253.901333,18.0426667 254.258667,18.192 254.76,18.192 Z M266.984,18 L266.984,16.864 L262.104,16.864 L262.104,13.056 L266.088,13.056 L266.088,11.92 L262.104,11.92 L262.104,8.624 L266.824,8.624 L266.824,7.504 L260.776,7.504 L260.776,18 L266.984,18 Z M271.112,18.192 C271.570667,18.192 271.978667,18.1306667 272.336,18.008 C272.693333,17.8853333 272.992,17.7173333 273.232,17.504 C273.472,17.2906667 273.653333,17.0453333 273.776,16.768 C273.898667,16.4906667 273.96,16.192 273.96,15.872 C273.96,15.5093333 273.888,15.2 273.744,14.944 C273.6,14.688 273.416,14.472 273.192,14.296 C272.968,14.12 272.714667,13.9733333 272.432,13.856 C272.149333,13.7386667 271.869333,13.6266667 271.592,13.52 C271.368,13.4346667 271.152,13.352 270.944,13.272 C270.736,13.192 270.552,13.1013333 270.392,13 C270.232,12.8986667 270.104,12.7813333 270.008,12.648 C269.912,12.5146667 269.864,12.3573333 269.864,12.176 C269.864,11.8773333 269.978667,11.616 270.208,11.392 C270.437333,11.168 270.797333,11.056 271.288,11.056 C271.629333,11.056 271.944,11.12 272.232,11.248 C272.52,11.376 272.797333,11.5413333 273.064,11.744 L273.064,11.744 L273.688,10.912 C273.389333,10.6666667 273.034667,10.4586667 272.624,10.288 C272.213333,10.1173333 271.762667,10.032 271.272,10.032 C270.856,10.032 270.482667,10.088 270.152,10.2 C269.821333,10.312 269.541333,10.4666667 269.312,10.664 C269.082667,10.8613333 268.906667,11.096 268.784,11.368 C268.661333,11.64 268.6,11.9306667 268.6,12.24 C268.6,12.5706667 268.669333,12.8533333 268.808,13.088 C268.946667,13.3226667 269.125333,13.528 269.344,13.704 C269.562667,13.88 269.810667,14.0293333 270.088,14.152 C270.365333,14.2746667 270.642667,14.384 270.92,14.48 L270.92,14.48 L271.56,14.736 C271.773333,14.8213333 271.962667,14.92 272.128,15.032 C272.293333,15.144 272.429333,15.2746667 272.536,15.424 C272.642667,15.5733333 272.696,15.7493333 272.696,15.952 C272.696,16.2933333 272.568,16.5813333 272.312,16.816 C272.056,17.0506667 271.672,17.168 271.16,17.168 C270.690667,17.168 270.277333,17.0826667 269.92,16.912 C269.562667,16.7413333 269.213333,16.5173333 268.872,16.24 L268.872,16.24 L268.216,17.12 C268.589333,17.4293333 269.026667,17.6853333 269.528,17.888 C270.029333,18.0906667 270.557333,18.192 271.112,18.192 Z M277.912,18.192 C278.157333,18.192 278.405333,18.1626667 278.656,18.104 C278.906667,18.0453333 279.138667,17.9786667 279.352,17.904 L279.352,17.904 L279.096,16.912 C278.968,16.9653333 278.824,17.0133333 278.664,17.056 C278.504,17.0986667 278.354667,17.12 278.216,17.12 C277.768,17.12 277.456,16.9893333 277.28,16.728 C277.104,16.4666667 277.016,16.096 277.016,15.616 L277.016,15.616 L277.016,11.296 L279.112,11.296 L279.112,10.224 L277.016,10.224 L277.016,8.048 L275.912,8.048 L275.752,10.224 L274.536,10.304 L274.536,11.296 L275.688,11.296 L275.688,15.6 C275.688,15.984 275.725333,16.336 275.8,16.656 C275.874667,16.976 276,17.248 276.176,17.472 C276.352,17.696 276.581333,17.872 276.864,18 C277.146667,18.128 277.496,18.192 277.912,18.192 Z M281.544,8.624 C281.8,8.624 282.016,8.544 282.192,8.384 C282.368,8.224 282.456,8.02133333 282.456,7.776 C282.456,7.52 282.368,7.31466667 282.192,7.16 C282.016,7.00533333 281.8,6.928 281.544,6.928 C281.288,6.928 281.072,7.00533333 280.896,7.16 C280.72,7.31466667 280.632,7.52 280.632,7.776 C280.632,8.02133333 280.72,8.224 280.896,8.384 C281.072,8.544 281.288,8.624 281.544,8.624 Z M282.184,18 L282.184,10.224 L280.872,10.224 L280.872,18 L282.184,18 Z M286.12,18 L286.12,12.368 C286.834667,11.568 287.485333,11.168 288.072,11.168 C288.573333,11.168 288.941333,11.3306667 289.176,11.656 C289.410667,11.9813333 289.528,12.512 289.528,13.248 L289.528,13.248 L289.528,18 L290.84,18 L290.84,12.368 C291.554667,11.568 292.205333,11.168 292.792,11.168 C293.282667,11.168 293.645333,11.3306667 293.88,11.656 C294.114667,11.9813333 294.232,12.512 294.232,13.248 L294.232,13.248 L294.232,18 L295.544,18 L295.544,13.072 C295.544,12.0693333 295.349333,11.312 294.96,10.8 C294.570667,10.288 293.976,10.032 293.176,10.032 C292.696,10.032 292.250667,10.168 291.84,10.44 C291.429333,10.712 291.021333,11.072 290.616,11.52 C290.456,11.0506667 290.208,10.6853333 289.872,10.424 C289.536,10.1626667 289.069333,10.032 288.472,10.032 C288.002667,10.032 287.568,10.1573333 287.168,10.408 C286.768,10.6586667 286.397333,10.9706667 286.056,11.344 L286.056,11.344 L286.008,11.344 L285.896,10.224 L284.808,10.224 L284.808,18 L286.12,18 Z M299.864,18.192 C300.354667,18.192 300.813333,18.0826667 301.24,17.864 C301.666667,17.6453333 302.066667,17.3813333 302.44,17.072 L302.44,17.072 L302.488,17.072 L302.6,18 L303.688,18 L303.688,13.232 C303.688,12.2613333 303.474667,11.4853333 303.048,10.904 C302.621333,10.3226667 301.933333,10.032 300.984,10.032 C300.354667,10.032 299.778667,10.1413333 299.256,10.36 C298.733333,10.5786667 298.290667,10.8053333 297.928,11.04 L297.928,11.04 L298.44,11.952 C298.749333,11.7386667 299.101333,11.5466667 299.496,11.376 C299.890667,11.2053333 300.312,11.12 300.76,11.12 C301.08,11.12 301.344,11.176 301.552,11.288 C301.76,11.4 301.922667,11.5466667 302.04,11.728 C302.157333,11.9093333 302.24,12.1173333 302.288,12.352 C302.336,12.5866667 302.36,12.8266667 302.36,13.072 C300.696,13.2533333 299.485333,13.5706667 298.728,14.024 C297.970667,14.4773333 297.592,15.1306667 297.592,15.984 C297.592,16.688 297.808,17.232 298.24,17.616 C298.672,18 299.213333,18.192 299.864,18.192 Z M300.248,17.136 C299.864,17.136 299.538667,17.04 299.272,16.848 C299.005333,16.656 298.872,16.336 298.872,15.888 C298.872,15.6426667 298.933333,15.416 299.056,15.208 C299.178667,15 299.376,14.816 299.648,14.656 C299.92,14.496 300.277333,14.3573333 300.72,14.24 C301.162667,14.1226667 301.709333,14.0213333 302.36,13.936 L302.36,13.936 L302.36,16.096 C301.986667,16.4373333 301.634667,16.696 301.304,16.872 C300.973333,17.048 300.621333,17.136 300.248,17.136 Z M308.36,18.192 C308.605333,18.192 308.853333,18.1626667 309.104,18.104 C309.354667,18.0453333 309.586667,17.9786667 309.8,17.904 L309.8,17.904 L309.544,16.912 C309.416,16.9653333 309.272,17.0133333 309.112,17.056 C308.952,17.0986667 308.802667,17.12 308.664,17.12 C308.216,17.12 307.904,16.9893333 307.728,16.728 C307.552,16.4666667 307.464,16.096 307.464,15.616 L307.464,15.616 L307.464,11.296 L309.56,11.296 L309.56,10.224 L307.464,10.224 L307.464,8.048 L306.36,8.048 L306.2,10.224 L304.984,10.304 L304.984,11.296 L306.136,11.296 L306.136,15.6 C306.136,15.984 306.173333,16.336 306.248,16.656 C306.322667,16.976 306.448,17.248 306.624,17.472 C306.8,17.696 307.029333,17.872 307.312,18 C307.594667,18.128 307.944,18.192 308.36,18.192 Z M314.248,18.192 C314.781333,18.192 315.256,18.112 315.672,17.952 C316.088,17.792 316.466667,17.6053333 316.808,17.392 L316.808,17.392 L316.344,16.528 C316.056,16.7093333 315.754667,16.856 315.44,16.968 C315.125333,17.08 314.781333,17.136 314.408,17.136 C313.661333,17.136 313.056,16.8933333 312.592,16.408 C312.128,15.9226667 311.869333,15.264 311.816,14.432 L311.816,14.432 L317.064,14.432 C317.085333,14.336 317.098667,14.2213333 317.104,14.088 C317.109333,13.9546667 317.112,13.8186667 317.112,13.68 C317.112,13.1253333 317.042667,12.624 316.904,12.176 C316.765333,11.728 316.565333,11.344 316.304,11.024 C316.042667,10.704 315.717333,10.4586667 315.328,10.288 C314.938667,10.1173333 314.498667,10.032 314.008,10.032 C313.56,10.032 313.128,10.1253333 312.712,10.312 C312.296,10.4986667 311.925333,10.768 311.6,11.12 C311.274667,11.472 311.013333,11.9013333 310.816,12.408 C310.618667,12.9146667 310.52,13.488 310.52,14.128 C310.52,14.768 310.616,15.3386667 310.808,15.84 C311,16.3413333 311.264,16.7653333 311.6,17.112 C311.936,17.4586667 312.330667,17.7253333 312.784,17.912 C313.237333,18.0986667 313.725333,18.192 314.248,18.192 Z M315.96,13.488 L311.8,13.488 C311.842667,13.104 311.930667,12.7626667 312.064,12.464 C312.197333,12.1653333 312.365333,11.912 312.568,11.704 C312.770667,11.496 312.997333,11.3386667 313.248,11.232 C313.498667,11.1253333 313.762667,11.072 314.04,11.072 C314.648,11.072 315.12,11.2773333 315.456,11.688 C315.792,12.0986667 315.96,12.6986667 315.96,13.488 L315.96,13.488 Z M321.688,18.192 C322.146667,18.192 322.576,18.0826667 322.976,17.864 C323.376,17.6453333 323.730667,17.3866667 324.04,17.088 L324.04,17.088 L324.088,17.088 L324.2,18 L325.288,18 L325.288,6.608 L323.96,6.608 L323.96,9.6 L324.024,10.928 C323.682667,10.6506667 323.346667,10.432 323.016,10.272 C322.685333,10.112 322.296,10.032 321.848,10.032 C321.4,10.032 320.973333,10.128 320.568,10.32 C320.162667,10.512 319.805333,10.784 319.496,11.136 C319.186667,11.488 318.938667,11.9173333 318.752,12.424 C318.565333,12.9306667 318.472,13.4986667 318.472,14.128 C318.472,15.4293333 318.762667,16.432 319.344,17.136 C319.925333,17.84 320.706667,18.192 321.688,18.192 Z M321.976,17.088 C321.293333,17.088 320.765333,16.8266667 320.392,16.304 C320.018667,15.7813333 319.832,15.0506667 319.832,14.112 C319.832,13.664 319.890667,13.2586667 320.008,12.896 C320.125333,12.5333333 320.285333,12.2213333 320.488,11.96 C320.690667,11.6986667 320.928,11.496 321.2,11.352 C321.472,11.208 321.762667,11.136 322.072,11.136 C322.392,11.136 322.704,11.1973333 323.008,11.32 C323.312,11.4426667 323.629333,11.6533333 323.96,11.952 L323.96,11.952 L323.96,16.016 C323.64,16.3786667 323.32,16.648 323,16.824 C322.68,17 322.338667,17.088 321.976,17.088 Z M337.16,18 L337.16,16.864 L332.568,16.864 L332.568,7.504 L331.24,7.504 L331.24,18 L337.16,18 Z M341.848,18.192 C342.381333,18.192 342.856,18.112 343.272,17.952 C343.688,17.792 344.066667,17.6053333 344.408,17.392 L344.408,17.392 L343.944,16.528 C343.656,16.7093333 343.354667,16.856 343.04,16.968 C342.725333,17.08 342.381333,17.136 342.008,17.136 C341.261333,17.136 340.656,16.8933333 340.192,16.408 C339.728,15.9226667 339.469333,15.264 339.416,14.432 L339.416,14.432 L344.664,14.432 C344.685333,14.336 344.698667,14.2213333 344.704,14.088 C344.709333,13.9546667 344.712,13.8186667 344.712,13.68 C344.712,13.1253333 344.642667,12.624 344.504,12.176 C344.365333,11.728 344.165333,11.344 343.904,11.024 C343.642667,10.704 343.317333,10.4586667 342.928,10.288 C342.538667,10.1173333 342.098667,10.032 341.608,10.032 C341.16,10.032 340.728,10.1253333 340.312,10.312 C339.896,10.4986667 339.525333,10.768 339.2,11.12 C338.874667,11.472 338.613333,11.9013333 338.416,12.408 C338.218667,12.9146667 338.12,13.488 338.12,14.128 C338.12,14.768 338.216,15.3386667 338.408,15.84 C338.6,16.3413333 338.864,16.7653333 339.2,17.112 C339.536,17.4586667 339.930667,17.7253333 340.384,17.912 C340.837333,18.0986667 341.325333,18.192 341.848,18.192 Z M343.56,13.488 L339.4,13.488 C339.442667,13.104 339.530667,12.7626667 339.664,12.464 C339.797333,12.1653333 339.965333,11.912 340.168,11.704 C340.370667,11.496 340.597333,11.3386667 340.848,11.232 C341.098667,11.1253333 341.362667,11.072 341.64,11.072 C342.248,11.072 342.72,11.2773333 343.056,11.688 C343.392,12.0986667 343.56,12.6986667 343.56,13.488 L343.56,13.488 Z M347.944,18 L347.944,12.368 C348.338667,11.9733333 348.690667,11.6746667 349,11.472 C349.309333,11.2693333 349.666667,11.168 350.072,11.168 C350.584,11.168 350.957333,11.3306667 351.192,11.656 C351.426667,11.9813333 351.544,12.512 351.544,13.248 L351.544,13.248 L351.544,18 L352.856,18 L352.856,13.072 C352.856,12.0693333 352.666667,11.312 352.288,10.8 C351.909333,10.288 351.309333,10.032 350.488,10.032 C349.944,10.032 349.466667,10.1573333 349.056,10.408 C348.645333,10.6586667 348.253333,10.9706667 347.88,11.344 L347.88,11.344 L347.832,11.344 L347.72,10.224 L346.632,10.224 L346.632,18 L347.944,18 Z M358.04,18.192 C358.498667,18.192 358.928,18.0826667 359.328,17.864 C359.728,17.6453333 360.082667,17.3866667 360.392,17.088 L360.392,17.088 L360.44,17.088 L360.552,18 L361.64,18 L361.64,6.608 L360.312,6.608 L360.312,9.6 L360.376,10.928 C360.034667,10.6506667 359.698667,10.432 359.368,10.272 C359.037333,10.112 358.648,10.032 358.2,10.032 C357.752,10.032 357.325333,10.128 356.92,10.32 C356.514667,10.512 356.157333,10.784 355.848,11.136 C355.538667,11.488 355.290667,11.9173333 355.104,12.424 C354.917333,12.9306667 354.824,13.4986667 354.824,14.128 C354.824,15.4293333 355.114667,16.432 355.696,17.136 C356.277333,17.84 357.058667,18.192 358.04,18.192 Z M358.328,17.088 C357.645333,17.088 357.117333,16.8266667 356.744,16.304 C356.370667,15.7813333 356.184,15.0506667 356.184,14.112 C356.184,13.664 356.242667,13.2586667 356.36,12.896 C356.477333,12.5333333 356.637333,12.2213333 356.84,11.96 C357.042667,11.6986667 357.28,11.496 357.552,11.352 C357.824,11.208 358.114667,11.136 358.424,11.136 C358.744,11.136 359.056,11.1973333 359.36,11.32 C359.664,11.4426667 359.981333,11.6533333 360.312,11.952 L360.312,11.952 L360.312,16.016 C359.992,16.3786667 359.672,16.648 359.352,16.824 C359.032,17 358.690667,17.088 358.328,17.088 Z M364.936,8.624 C365.192,8.624 365.408,8.544 365.584,8.384 C365.76,8.224 365.848,8.02133333 365.848,7.776 C365.848,7.52 365.76,7.31466667 365.584,7.16 C365.408,7.00533333 365.192,6.928 364.936,6.928 C364.68,6.928 364.464,7.00533333 364.288,7.16 C364.112,7.31466667 364.024,7.52 364.024,7.776 C364.024,8.02133333 364.112,8.224 364.288,8.384 C364.464,8.544 364.68,8.624 364.936,8.624 Z M365.576,18 L365.576,10.224 L364.264,10.224 L364.264,18 L365.576,18 Z M369.512,18 L369.512,12.368 C369.906667,11.9733333 370.258667,11.6746667 370.568,11.472 C370.877333,11.2693333 371.234667,11.168 371.64,11.168 C372.152,11.168 372.525333,11.3306667 372.76,11.656 C372.994667,11.9813333 373.112,12.512 373.112,13.248 L373.112,13.248 L373.112,18 L374.424,18 L374.424,13.072 C374.424,12.0693333 374.234667,11.312 373.856,10.8 C373.477333,10.288 372.877333,10.032 372.056,10.032 C371.512,10.032 371.034667,10.1573333 370.624,10.408 C370.213333,10.6586667 369.821333,10.9706667 369.448,11.344 L369.448,11.344 L369.4,11.344 L369.288,10.224 L368.2,10.224 L368.2,18 L369.512,18 Z M379.576,21.584 C380.184,21.584 380.730667,21.512 381.216,21.368 C381.701333,21.224 382.114667,21.0293333 382.456,20.784 C382.797333,20.5386667 383.058667,20.2533333 383.24,19.928 C383.421333,19.6026667 383.512,19.2586667 383.512,18.896 C383.512,18.2453333 383.285333,17.7733333 382.832,17.48 C382.378667,17.1866667 381.698667,17.04 380.792,17.04 L380.792,17.04 L379.288,17.04 C378.754667,17.04 378.392,16.96 378.2,16.8 C378.008,16.64 377.912,16.4373333 377.912,16.192 C377.912,15.9786667 377.96,15.8 378.056,15.656 C378.152,15.512 378.269333,15.3813333 378.408,15.264 C378.589333,15.3493333 378.781333,15.416 378.984,15.464 C379.186667,15.512 379.384,15.536 379.576,15.536 C379.970667,15.536 380.341333,15.472 380.688,15.344 C381.034667,15.216 381.336,15.0373333 381.592,14.808 C381.848,14.5786667 382.050667,14.296 382.2,13.96 C382.349333,13.624 382.424,13.248 382.424,12.832 C382.424,12.5013333 382.362667,12.1973333 382.24,11.92 C382.117333,11.6426667 381.965333,11.4133333 381.784,11.232 L381.784,11.232 L383.384,11.232 L383.384,10.224 L380.68,10.224 C380.530667,10.1706667 380.362667,10.1253333 380.176,10.088 C379.989333,10.0506667 379.789333,10.032 379.576,10.032 C379.181333,10.032 378.805333,10.096 378.448,10.224 C378.090667,10.352 377.778667,10.536 377.512,10.776 C377.245333,11.016 377.034667,11.3066667 376.88,11.648 C376.725333,11.9893333 376.648,12.3733333 376.648,12.8 C376.648,13.2693333 376.752,13.6826667 376.96,14.04 C377.168,14.3973333 377.4,14.6826667 377.656,14.896 L377.656,14.896 L377.656,14.96 C377.453333,15.0986667 377.261333,15.2906667 377.08,15.536 C376.898667,15.7813333 376.808,16.0693333 376.808,16.4 C376.808,16.7093333 376.874667,16.968 377.008,17.176 C377.141333,17.384 377.304,17.5466667 377.496,17.664 L377.496,17.664 L377.496,17.728 C377.144,17.9733333 376.866667,18.2453333 376.664,18.544 C376.461333,18.8426667 376.36,19.1573333 376.36,19.488 C376.36,19.8293333 376.437333,20.128 376.592,20.384 C376.746667,20.64 376.965333,20.8586667 377.248,21.04 C377.530667,21.2213333 377.869333,21.3573333 378.264,21.448 C378.658667,21.5386667 379.096,21.584 379.576,21.584 Z M379.576,14.656 C379.352,14.656 379.141333,14.6133333 378.944,14.528 C378.746667,14.4426667 378.570667,14.32 378.416,14.16 C378.261333,14 378.141333,13.8053333 378.056,13.576 C377.970667,13.3466667 377.928,13.088 377.928,12.8 C377.928,12.224 378.088,11.7786667 378.408,11.464 C378.728,11.1493333 379.117333,10.992 379.576,10.992 C380.034667,10.992 380.424,11.1493333 380.744,11.464 C381.064,11.7786667 381.224,12.224 381.224,12.8 C381.224,13.088 381.181333,13.3466667 381.096,13.576 C381.010667,13.8053333 380.890667,14 380.736,14.16 C380.581333,14.32 380.405333,14.4426667 380.208,14.528 C380.010667,14.6133333 379.8,14.656 379.576,14.656 Z M379.768,20.672 C379.064,20.672 378.512,20.5493333 378.112,20.304 C377.712,20.0586667 377.512,19.728 377.512,19.312 C377.512,19.088 377.576,18.864 377.704,18.64 C377.832,18.416 378.034667,18.2026667 378.312,18 C378.482667,18.0533333 378.656,18.088 378.832,18.104 C379.008,18.12 379.170667,18.128 379.32,18.128 L379.32,18.128 L380.664,18.128 C381.176,18.128 381.565333,18.1973333 381.832,18.336 C382.098667,18.4746667 382.232,18.7253333 382.232,19.088 C382.232,19.2906667 382.173333,19.488 382.056,19.68 C381.938667,19.872 381.773333,20.04 381.56,20.184 C381.346667,20.328 381.088,20.4453333 380.784,20.536 C380.48,20.6266667 380.141333,20.672 379.768,20.672 Z M391.416,19.76 L391.416,18.144 C392.184,18.0373333 392.789333,17.7386667 393.232,17.248 C393.674667,16.7573333 393.896,16.128 393.896,15.36 C393.896,14.784 393.786667,14.312 393.568,13.944 C393.349333,13.576 393.074667,13.2666667 392.744,13.016 C392.413333,12.7653333 392.053333,12.552 391.664,12.376 C391.274667,12.2 390.914667,12.0186667 390.584,11.832 C390.253333,11.6453333 389.978667,11.4293333 389.76,11.184 C389.541333,10.9386667 389.432,10.624 389.432,10.24 C389.432,9.77066667 389.576,9.39733333 389.864,9.12 C390.152,8.84266667 390.541333,8.704 391.032,8.704 C391.469333,8.704 391.829333,8.784 392.112,8.944 C392.394667,9.104 392.685333,9.328 392.984,9.616 L392.984,9.616 L393.688,8.832 C393.4,8.52266667 393.077333,8.256 392.72,8.032 C392.362667,7.808 391.928,7.66933333 391.416,7.616 L391.416,7.616 L391.416,6.032 L390.456,6.032 L390.456,7.648 C389.752,7.75466667 389.189333,8.04533333 388.768,8.52 C388.346667,8.99466667 388.136,9.58933333 388.136,10.304 C388.136,10.8266667 388.245333,11.256 388.464,11.592 C388.682667,11.928 388.957333,12.2133333 389.288,12.448 C389.618667,12.6826667 389.978667,12.8906667 390.368,13.072 C390.757333,13.2533333 391.117333,13.448 391.448,13.656 C391.778667,13.864 392.053333,14.1093333 392.272,14.392 C392.490667,14.6746667 392.6,15.0293333 392.6,15.456 C392.6,15.9573333 392.453333,16.3573333 392.16,16.656 C391.866667,16.9546667 391.421333,17.104 390.824,17.104 C390.333333,17.104 389.882667,17 389.472,16.792 C389.061333,16.584 388.685333,16.3306667 388.344,16.032 L388.344,16.032 L387.736,16.944 C388.077333,17.2533333 388.488,17.5226667 388.968,17.752 C389.448,17.9813333 389.944,18.1226667 390.456,18.176 L390.456,18.176 L390.456,19.76 L391.416,19.76 Z M398.632,18.192 C399.101333,18.192 399.538667,18.1253333 399.944,17.992 C400.349333,17.8586667 400.704,17.6666667 401.008,17.416 C401.312,17.1653333 401.552,16.8586667 401.728,16.496 C401.904,16.1333333 401.992,15.728 401.992,15.28 C401.992,14.928 401.936,14.608 401.824,14.32 C401.712,14.032 401.554667,13.7786667 401.352,13.56 C401.149333,13.3413333 400.914667,13.16 400.648,13.016 C400.381333,12.872 400.093333,12.7626667 399.784,12.688 L399.784,12.688 L399.784,12.624 C400.338667,12.4106667 400.786667,12.1066667 401.128,11.712 C401.469333,11.3173333 401.64,10.8106667 401.64,10.192 C401.64,9.776 401.565333,9.408 401.416,9.088 C401.266667,8.768 401.056,8.49866667 400.784,8.28 C400.512,8.06133333 400.189333,7.89333333 399.816,7.776 C399.442667,7.65866667 399.032,7.6 398.584,7.6 C397.976,7.6 397.434667,7.72 396.96,7.96 C396.485333,8.2 396.050667,8.50666667 395.656,8.88 L395.656,8.88 L396.36,9.712 C396.669333,9.40266667 397.002667,9.152 397.36,8.96 C397.717333,8.768 398.109333,8.672 398.536,8.672 C399.08,8.672 399.509333,8.816 399.824,9.104 C400.138667,9.392 400.296,9.78666667 400.296,10.288 C400.296,10.5546667 400.248,10.8053333 400.152,11.04 C400.056,11.2746667 399.893333,11.4773333 399.664,11.648 C399.434667,11.8186667 399.136,11.952 398.768,12.048 C398.4,12.144 397.944,12.192 397.4,12.192 L397.4,12.192 L397.4,13.2 C398.008,13.2 398.52,13.248 398.936,13.344 C399.352,13.44 399.688,13.5786667 399.944,13.76 C400.2,13.9413333 400.384,14.1573333 400.496,14.408 C400.608,14.6586667 400.664,14.9333333 400.664,15.232 C400.664,15.808 400.466667,16.264 400.072,16.6 C399.677333,16.936 399.170667,17.104 398.552,17.104 C397.944,17.104 397.434667,16.9813333 397.024,16.736 C396.613333,16.4906667 396.253333,16.208 395.944,15.888 L395.944,15.888 L395.272,16.752 C395.442667,16.944 395.637333,17.1253333 395.856,17.296 C396.074667,17.4666667 396.322667,17.6186667 396.6,17.752 C396.877333,17.8853333 397.184,17.992 397.52,18.072 C397.856,18.152 398.226667,18.192 398.632,18.192 Z M404.808,18.192 C405.064,18.192 405.285333,18.0986667 405.472,17.912 C405.658667,17.7253333 405.752,17.488 405.752,17.2 C405.752,16.8906667 405.658667,16.6426667 405.472,16.456 C405.285333,16.2693333 405.064,16.176 404.808,16.176 C404.541333,16.176 404.314667,16.2693333 404.128,16.456 C403.941333,16.6426667 403.848,16.8906667 403.848,17.2 C403.848,17.488 403.941333,17.7253333 404.128,17.912 C404.314667,18.0986667 404.541333,18.192 404.808,18.192 Z M410.072,18.192 C410.584,18.192 411.072,18.088 411.536,17.88 C412,17.672 412.413333,17.3413333 412.776,16.888 C413.138667,16.4346667 413.426667,15.848 413.64,15.128 C413.853333,14.408 413.96,13.536 413.96,12.512 C413.96,11.6906667 413.872,10.9733333 413.696,10.36 C413.52,9.74666667 413.274667,9.23466667 412.96,8.824 C412.645333,8.41333333 412.272,8.10666667 411.84,7.904 C411.408,7.70133333 410.941333,7.6 410.44,7.6 C410.034667,7.6 409.648,7.68 409.28,7.84 C408.912,8 408.592,8.224 408.32,8.512 C408.048,8.8 407.832,9.144 407.672,9.544 C407.512,9.944 407.432,10.3893333 407.432,10.88 C407.432,11.936 407.693333,12.7253333 408.216,13.248 C408.738667,13.7706667 409.442667,14.032 410.328,14.032 C410.754667,14.032 411.181333,13.9146667 411.608,13.68 C412.034667,13.4453333 412.408,13.1253333 412.728,12.72 C412.717333,13.5413333 412.637333,14.2293333 412.488,14.784 C412.338667,15.3386667 412.141333,15.7893333 411.896,16.136 C411.650667,16.4826667 411.368,16.7306667 411.048,16.88 C410.728,17.0293333 410.386667,17.104 410.024,17.104 C409.704,17.104 409.397333,17.0293333 409.104,16.88 C408.810667,16.7306667 408.557333,16.5333333 408.344,16.288 L408.344,16.288 L407.608,17.12 C407.885333,17.4293333 408.229333,17.6853333 408.64,17.888 C409.050667,18.0906667 409.528,18.192 410.072,18.192 Z M410.552,13.04 C409.912,13.04 409.437333,12.848 409.128,12.464 C408.818667,12.08 408.664,11.552 408.664,10.88 C408.664,10.5493333 408.709333,10.2453333 408.8,9.968 C408.890667,9.69066667 409.016,9.45333333 409.176,9.256 C409.336,9.05866667 409.525333,8.90666667 409.744,8.8 C409.962667,8.69333333 410.194667,8.64 410.44,8.64 C411.090667,8.64 411.608,8.896 411.992,9.408 C412.376,9.92 412.610667,10.6773333 412.696,11.68 C412.365333,12.16 412.010667,12.5066667 411.632,12.72 C411.253333,12.9333333 410.893333,13.04 410.552,13.04 Z M421.976,18 L421.976,16.864 L419.016,16.864 C418.749333,16.864 418.466667,16.8746667 418.168,16.896 C417.869333,16.9173333 417.581333,16.9386667 417.304,16.96 C417.912,16.3306667 418.469333,15.736 418.976,15.176 C419.482667,14.616 419.92,14.0773333 420.288,13.56 C420.656,13.0426667 420.944,12.5413333 421.152,12.056 C421.36,11.5706667 421.464,11.088 421.464,10.608 C421.464,9.70133333 421.192,8.97333333 420.648,8.424 C420.104,7.87466667 419.357333,7.6 418.408,7.6 C417.736,7.6 417.16,7.74133333 416.68,8.024 C416.2,8.30666667 415.746667,8.68266667 415.32,9.152 L415.32,9.152 L416.072,9.904 C416.370667,9.56266667 416.701333,9.272 417.064,9.032 C417.426667,8.792 417.821333,8.672 418.248,8.672 C418.898667,8.672 419.384,8.85866667 419.704,9.232 C420.024,9.60533333 420.184,10.0853333 420.184,10.672 C420.184,11.088 420.077333,11.5173333 419.864,11.96 C419.650667,12.4026667 419.341333,12.888 418.936,13.416 C418.530667,13.944 418.029333,14.5173333 417.432,15.136 C416.834667,15.7546667 416.152,16.448 415.384,17.216 L415.384,17.216 L415.384,18 L421.976,18 Z M427.656,18 L427.656,8.624 L430.824,8.624 L430.824,7.504 L423.144,7.504 L423.144,8.624 L426.312,8.624 L426.312,18 L427.656,18 Z" id="TotalEstimatedLending$3.92T" fill="#555555" fill-rule="nonzero"></path>
                <path d="M0,97 L0,40 L688,40 L688,97" id="Path-21" stroke="#D8D8D8" stroke-dasharray="3,3"></path>
                <path d="M362.212,70 L362.968,67.6 L365.836,67.6 L366.58,70 L367.648,70 L364.984,62.128 L363.856,62.128 L361.192,70 L362.212,70 Z M365.584,66.796 L363.22,66.796 L363.592,65.596 C363.736,65.156 363.872,64.718 364,64.282 C364.128,63.846 364.252,63.4 364.372,62.944 L364.372,62.944 L364.42,62.944 C364.548,63.4 364.676,63.846 364.804,64.282 C364.932,64.718 365.068,65.156 365.212,65.596 L365.212,65.596 L365.584,66.796 Z M371.2,70 L373.696,62.128 L372.676,62.128 L371.416,66.376 C371.28,66.848 371.156,67.284 371.044,67.684 C370.932,68.084 370.804,68.516 370.66,68.98 L370.66,68.98 L370.612,68.98 C370.46,68.516 370.33,68.084 370.222,67.684 C370.114,67.284 369.988,66.848 369.844,66.376 L369.844,66.376 L368.584,62.128 L367.516,62.128 L370.036,70 L371.2,70 Z M374.584,70 L375.34,67.6 L378.208,67.6 L378.952,70 L380.02,70 L377.356,62.128 L376.228,62.128 L373.564,70 L374.584,70 Z M377.956,66.796 L375.592,66.796 L375.964,65.596 C376.108,65.156 376.244,64.718 376.372,64.282 C376.5,63.846 376.624,63.4 376.744,62.944 L376.744,62.944 L376.792,62.944 C376.92,63.4 377.048,63.846 377.176,64.282 C377.304,64.718 377.44,65.156 377.584,65.596 L377.584,65.596 L377.956,66.796 Z M382.132,70 L382.132,62.128 L381.136,62.128 L381.136,70 L382.132,70 Z M388.732,70 L388.732,69.148 L385.288,69.148 L385.288,62.128 L384.292,62.128 L384.292,70 L388.732,70 Z M390.136,70 L390.892,67.6 L393.76,67.6 L394.504,70 L395.572,70 L392.908,62.128 L391.78,62.128 L389.116,70 L390.136,70 Z M393.508,66.796 L391.144,66.796 L391.516,65.596 C391.66,65.156 391.796,64.718 391.924,64.282 C392.052,63.846 392.176,63.4 392.296,62.944 L392.296,62.944 L392.344,62.944 C392.472,63.4 392.6,63.846 392.728,64.282 C392.856,64.718 392.992,65.156 393.136,65.596 L393.136,65.596 L393.508,66.796 Z M399.196,70 C399.636,70 400.04,69.952 400.408,69.856 C400.776,69.76 401.092,69.616 401.356,69.424 C401.62,69.232 401.824,68.992 401.968,68.704 C402.112,68.416 402.184,68.08 402.184,67.696 C402.184,67.152 402.036,66.724 401.74,66.412 C401.444,66.1 401.056,65.9 400.576,65.812 L400.576,65.812 L400.576,65.764 C400.952,65.644 401.238,65.426 401.434,65.11 C401.63,64.794 401.728,64.44 401.728,64.048 C401.728,63.704 401.662,63.41 401.53,63.166 C401.398,62.922 401.214,62.724 400.978,62.572 C400.742,62.42 400.458,62.308 400.126,62.236 C399.794,62.164 399.428,62.128 399.028,62.128 L399.028,62.128 L396.688,62.128 L396.688,70 L399.196,70 Z M398.848,65.476 L397.684,65.476 L397.684,62.92 L398.896,62.92 C399.512,62.92 399.974,63.016 400.282,63.208 C400.59,63.4 400.744,63.724 400.744,64.18 C400.744,64.58 400.596,64.896 400.3,65.128 C400.004,65.36 399.52,65.476 398.848,65.476 L398.848,65.476 Z M399.052,69.208 L397.684,69.208 L397.684,66.244 L399.052,66.244 C399.748,66.244 400.28,66.358 400.648,66.586 C401.016,66.814 401.2,67.172 401.2,67.66 C401.2,68.188 401.012,68.578 400.636,68.83 C400.26,69.082 399.732,69.208 399.052,69.208 L399.052,69.208 Z M408.184,70 L408.184,69.148 L404.74,69.148 L404.74,62.128 L403.744,62.128 L403.744,70 L408.184,70 Z M414.232,70 L414.232,69.148 L410.572,69.148 L410.572,66.292 L413.56,66.292 L413.56,65.44 L410.572,65.44 L410.572,62.968 L414.112,62.968 L414.112,62.128 L409.576,62.128 L409.576,70 L414.232,70 Z M422.74,70 L422.74,69.148 L419.296,69.148 L419.296,62.128 L418.3,62.128 L418.3,70 L422.74,70 Z M428.788,70 L428.788,69.148 L425.128,69.148 L425.128,66.292 L428.116,66.292 L428.116,65.44 L425.128,65.44 L425.128,62.968 L428.668,62.968 L428.668,62.128 L424.132,62.128 L424.132,70 L428.788,70 Z M431.404,70 L431.404,65.884 C431.404,65.468 431.39,65.054 431.362,64.642 C431.334,64.23 431.304,63.824 431.272,63.424 L431.272,63.424 L431.32,63.424 L432.172,65.044 L435.028,70 L436.06,70 L436.06,62.128 L435.112,62.128 L435.112,66.196 C435.112,66.612 435.126,67.034 435.154,67.462 C435.182,67.89 435.208,68.304 435.232,68.704 L435.232,68.704 L435.184,68.704 L434.332,67.072 L431.488,62.128 L430.456,62.128 L430.456,70 L431.404,70 Z M440.236,70 C440.828,70 441.352,69.91 441.808,69.73 C442.264,69.55 442.648,69.29 442.96,68.95 C443.272,68.61 443.508,68.194 443.668,67.702 C443.828,67.21 443.908,66.652 443.908,66.028 C443.908,64.772 443.592,63.808 442.96,63.136 C442.328,62.464 441.404,62.128 440.188,62.128 L440.188,62.128 L438.22,62.128 L438.22,70 L440.236,70 Z M440.116,69.184 L439.216,69.184 L439.216,62.944 L440.116,62.944 C441.036,62.944 441.726,63.208 442.186,63.736 C442.646,64.264 442.876,65.028 442.876,66.028 C442.876,67.028 442.646,67.804 442.186,68.356 C441.726,68.908 441.036,69.184 440.116,69.184 L440.116,69.184 Z M446.596,70 L446.596,62.128 L445.6,62.128 L445.6,70 L446.596,70 Z M449.704,70 L449.704,65.884 C449.704,65.468 449.69,65.054 449.662,64.642 C449.634,64.23 449.604,63.824 449.572,63.424 L449.572,63.424 L449.62,63.424 L450.472,65.044 L453.328,70 L454.36,70 L454.36,62.128 L453.412,62.128 L453.412,66.196 C453.412,66.612 453.426,67.034 453.454,67.462 C453.482,67.89 453.508,68.304 453.532,68.704 L453.532,68.704 L453.484,68.704 L452.632,67.072 L449.788,62.128 L448.756,62.128 L448.756,70 L449.704,70 Z M459.616,70.144 C460.144,70.144 460.616,70.058 461.032,69.886 C461.448,69.714 461.784,69.496 462.04,69.232 L462.04,69.232 L462.04,65.92 L459.46,65.92 L459.46,66.748 L461.128,66.748 L461.128,68.8 C460.968,68.944 460.762,69.058 460.51,69.142 C460.258,69.226 459.992,69.268 459.712,69.268 C459.288,69.268 458.914,69.192 458.59,69.04 C458.266,68.888 457.994,68.672 457.774,68.392 C457.554,68.112 457.386,67.774 457.27,67.378 C457.154,66.982 457.096,66.536 457.096,66.04 C457.096,65.552 457.158,65.112 457.282,64.72 C457.406,64.328 457.58,63.994 457.804,63.718 C458.028,63.442 458.3,63.23 458.62,63.082 C458.94,62.934 459.3,62.86 459.7,62.86 C460.1,62.86 460.432,62.932 460.696,63.076 C460.96,63.22 461.192,63.396 461.392,63.604 L461.392,63.604 L461.944,62.956 C461.832,62.836 461.702,62.718 461.554,62.602 C461.406,62.486 461.238,62.382 461.05,62.29 C460.862,62.198 460.654,62.124 460.426,62.068 C460.198,62.012 459.948,61.984 459.676,61.984 C459.156,61.984 458.674,62.078 458.23,62.266 C457.786,62.454 457.404,62.724 457.084,63.076 C456.764,63.428 456.514,63.856 456.334,64.36 C456.154,64.864 456.064,65.432 456.064,66.064 C456.064,66.704 456.152,67.278 456.328,67.786 C456.504,68.294 456.748,68.722 457.06,69.07 C457.372,69.418 457.746,69.684 458.182,69.868 C458.618,70.052 459.096,70.144 459.616,70.144 Z M397.936,86.32 L397.936,85.072 C398.56,84.936 399.028,84.662 399.34,84.25 C399.652,83.838 399.808,83.344 399.808,82.768 C399.808,82.384 399.73,82.062 399.574,81.802 C399.418,81.542 399.222,81.32 398.986,81.136 C398.75,80.952 398.496,80.796 398.224,80.668 C397.952,80.54 397.698,80.416 397.462,80.296 C397.226,80.176 397.03,80.05 396.874,79.918 C396.718,79.786 396.64,79.624 396.64,79.432 C396.64,79.16 396.716,78.964 396.868,78.844 C397.02,78.724 397.24,78.664 397.528,78.664 C397.784,78.664 398.012,78.714 398.212,78.814 C398.412,78.914 398.62,79.064 398.836,79.264 L398.836,79.264 L399.724,78.256 C399.492,78.008 399.232,77.796 398.944,77.62 C398.656,77.444 398.32,77.328 397.936,77.272 L397.936,77.272 L397.936,76.06 L396.772,76.06 L396.772,77.296 C396.204,77.408 395.758,77.658 395.434,78.046 C395.11,78.434 394.948,78.924 394.948,79.516 C394.948,79.876 395.026,80.18 395.182,80.428 C395.338,80.676 395.534,80.892 395.77,81.076 C396.006,81.26 396.26,81.418 396.532,81.55 C396.804,81.682 397.058,81.814 397.294,81.946 C397.53,82.078 397.726,82.216 397.882,82.36 C398.038,82.504 398.116,82.68 398.116,82.888 C398.116,83.168 398.038,83.376 397.882,83.512 C397.726,83.648 397.48,83.716 397.144,83.716 C396.856,83.716 396.574,83.658 396.298,83.542 C396.022,83.426 395.732,83.252 395.428,83.02 L395.428,83.02 L394.66,84.208 C394.94,84.464 395.274,84.67 395.662,84.826 C396.05,84.982 396.42,85.08 396.772,85.12 L396.772,85.12 L396.772,86.32 L397.936,86.32 Z M403.444,85.144 C403.828,85.144 404.192,85.094 404.536,84.994 C404.88,84.894 405.18,84.75 405.436,84.562 C405.692,84.374 405.896,84.142 406.048,83.866 C406.2,83.59 406.276,83.276 406.276,82.924 C406.276,82.428 406.134,82.026 405.85,81.718 C405.566,81.41 405.204,81.192 404.764,81.064 L404.764,81.064 L404.764,81.016 C405.172,80.84 405.486,80.614 405.706,80.338 C405.926,80.062 406.036,79.724 406.036,79.324 C406.036,78.988 405.972,78.692 405.844,78.436 C405.716,78.18 405.538,77.962 405.31,77.782 C405.082,77.602 404.806,77.466 404.482,77.374 C404.158,77.282 403.8,77.236 403.408,77.236 C402.936,77.236 402.506,77.322 402.118,77.494 C401.73,77.666 401.36,77.904 401.008,78.208 L401.008,78.208 L401.896,79.288 C402.136,79.08 402.366,78.916 402.586,78.796 C402.806,78.676 403.052,78.616 403.324,78.616 C403.628,78.616 403.86,78.69 404.02,78.838 C404.18,78.986 404.26,79.192 404.26,79.456 C404.26,79.608 404.23,79.746 404.17,79.87 C404.11,79.994 404.01,80.102 403.87,80.194 C403.73,80.286 403.546,80.356 403.318,80.404 C403.09,80.452 402.804,80.476 402.46,80.476 L402.46,80.476 L402.46,81.724 C402.876,81.724 403.216,81.75 403.48,81.802 C403.744,81.854 403.952,81.926 404.104,82.018 C404.256,82.11 404.362,82.224 404.422,82.36 C404.482,82.496 404.512,82.648 404.512,82.816 C404.512,83.104 404.4,83.326 404.176,83.482 C403.952,83.638 403.652,83.716 403.276,83.716 C402.948,83.716 402.646,83.644 402.37,83.5 C402.094,83.356 401.84,83.172 401.608,82.948 L401.608,82.948 L400.792,84.064 C401.072,84.392 401.428,84.654 401.86,84.85 C402.292,85.046 402.82,85.144 403.444,85.144 Z M408.664,85.144 C408.968,85.144 409.222,85.038 409.426,84.826 C409.63,84.614 409.732,84.352 409.732,84.04 C409.732,83.72 409.63,83.454 409.426,83.242 C409.222,83.03 408.968,82.924 408.664,82.924 C408.36,82.924 408.106,83.03 407.902,83.242 C407.698,83.454 407.596,83.72 407.596,84.04 C407.596,84.352 407.698,84.614 407.902,84.826 C408.106,85.038 408.36,85.144 408.664,85.144 Z M413.632,85.144 C414.04,85.144 414.412,85.058 414.748,84.886 C415.084,84.714 415.37,84.46 415.606,84.124 C415.842,83.788 416.026,83.372 416.158,82.876 C416.29,82.38 416.356,81.808 416.356,81.16 C416.356,80.512 416.29,79.944 416.158,79.456 C416.026,78.968 415.842,78.558 415.606,78.226 C415.37,77.894 415.084,77.646 414.748,77.482 C414.412,77.318 414.04,77.236 413.632,77.236 C413.224,77.236 412.852,77.318 412.516,77.482 C412.18,77.646 411.894,77.894 411.658,78.226 C411.422,78.558 411.238,78.968 411.106,79.456 C410.974,79.944 410.908,80.512 410.908,81.16 C410.908,81.808 410.974,82.38 411.106,82.876 C411.238,83.372 411.422,83.788 411.658,84.124 C411.894,84.46 412.18,84.714 412.516,84.886 C412.852,85.058 413.224,85.144 413.632,85.144 Z M413.632,83.776 C413.488,83.776 413.352,83.738 413.224,83.662 C413.096,83.586 412.984,83.448 412.888,83.248 C412.792,83.048 412.716,82.78 412.66,82.444 C412.604,82.108 412.576,81.68 412.576,81.16 C412.576,80.64 412.604,80.214 412.66,79.882 C412.716,79.55 412.792,79.29 412.888,79.102 C412.984,78.914 413.096,78.784 413.224,78.712 C413.352,78.64 413.488,78.604 413.632,78.604 C413.784,78.604 413.924,78.64 414.052,78.712 C414.18,78.784 414.292,78.914 414.388,79.102 C414.484,79.29 414.558,79.55 414.61,79.882 C414.662,80.214 414.688,80.64 414.688,81.16 C414.688,81.68 414.662,82.108 414.61,82.444 C414.558,82.78 414.484,83.048 414.388,83.248 C414.292,83.448 414.18,83.586 414.052,83.662 C413.924,83.738 413.784,83.776 413.632,83.776 Z M419.956,85.144 C420.364,85.144 420.734,85.09 421.066,84.982 C421.398,84.874 421.682,84.726 421.918,84.538 C422.154,84.35 422.336,84.128 422.464,83.872 C422.592,83.616 422.656,83.336 422.656,83.032 C422.656,82.528 422.528,82.12 422.272,81.808 C422.016,81.496 421.704,81.24 421.336,81.04 L421.336,81.04 L421.336,80.992 C421.6,80.816 421.832,80.586 422.032,80.302 C422.232,80.018 422.332,79.692 422.332,79.324 C422.332,79.012 422.276,78.726 422.164,78.466 C422.052,78.206 421.896,77.986 421.696,77.806 C421.496,77.626 421.252,77.486 420.964,77.386 C420.676,77.286 420.36,77.236 420.016,77.236 C419.664,77.236 419.338,77.284 419.038,77.38 C418.738,77.476 418.48,77.616 418.264,77.8 C418.048,77.984 417.88,78.206 417.76,78.466 C417.64,78.726 417.58,79.016 417.58,79.336 C417.58,79.744 417.676,80.09 417.868,80.374 C418.06,80.658 418.304,80.912 418.6,81.136 L418.6,81.136 L418.6,81.184 C418.24,81.376 417.934,81.62 417.682,81.916 C417.43,82.212 417.304,82.592 417.304,83.056 C417.304,83.368 417.37,83.652 417.502,83.908 C417.634,84.164 417.818,84.384 418.054,84.568 C418.29,84.752 418.57,84.894 418.894,84.994 C419.218,85.094 419.572,85.144 419.956,85.144 Z M420.436,80.56 C420.044,80.408 419.728,80.244 419.488,80.068 C419.248,79.892 419.128,79.648 419.128,79.336 C419.128,79.04 419.212,78.82 419.38,78.676 C419.548,78.532 419.748,78.46 419.98,78.46 C420.268,78.46 420.494,78.55 420.658,78.73 C420.822,78.91 420.904,79.148 420.904,79.444 C420.904,79.828 420.748,80.2 420.436,80.56 Z M419.992,83.92 C419.672,83.92 419.396,83.826 419.164,83.638 C418.932,83.45 418.816,83.188 418.816,82.852 C418.816,82.62 418.872,82.4 418.984,82.192 C419.096,81.984 419.236,81.8 419.404,81.64 C419.644,81.744 419.862,81.84 420.058,81.928 C420.254,82.016 420.424,82.11 420.568,82.21 C420.712,82.31 420.822,82.42 420.898,82.54 C420.974,82.66 421.012,82.804 421.012,82.972 C421.012,83.292 420.916,83.53 420.724,83.686 C420.532,83.842 420.288,83.92 419.992,83.92 Z M427.36,85 L427.36,78.664 L429.508,78.664 L429.508,77.176 L423.436,77.176 L423.436,78.664 L425.584,78.664 L425.584,85 L427.36,85 Z" id="AVAILABLELENDING$3.08T" fill="#666666" fill-rule="nonzero"></path>
                <line x1="343.5" y1="39.5" x2="343.5" y2="27.5" id="Line-14" stroke="#D8D8D8" stroke-linecap="round" stroke-linejoin="round" stroke-dasharray="3,3"></line>
                <line x1="412.5" y1="100" x2="412.5" y2="92" id="Line-14-Copy-5" stroke="#979797" stroke-width="0.5" stroke-linecap="square"></line>
                <line x1="66.5" y1="100" x2="66.5" y2="92" id="Line-14-Copy" stroke="#979797" stroke-width="0.5" stroke-linecap="square"></line>
                <rect id="Rectangle-Copy-20" fill="#6F41A7" x="0" y="100" width="136" height="40"></rect>
                <rect id="Rectangle-Copy-15" fill="#DAD1E4" x="141" y="100" width="547" height="40"></rect>
            </g>
        </g>
    </g>
</svg>