<?xml version="1.0" encoding="UTF-8"?>
<svg width="661px" height="141px" viewBox="0 0 661 141" version="1.1" xmlns="http://www.w3.org/2000/svg" xmlns:xlink="http://www.w3.org/1999/xlink">
    <title>Viz 1-B-Tablet</title>
    <defs>
        <rect id="path-1" x="456" y="107" width="157.48926" height="40"></rect>
        <mask id="mask-2" maskContentUnits="userSpaceOnUse" maskUnits="objectBoundingBox" x="0" y="0" width="157.48926" height="40" fill="white">
            <use xlink:href="#path-1"></use>
        </mask>
    </defs>
    <g id="SVG-2.0" stroke="none" stroke-width="1" fill="none" fill-rule="evenodd">
        <g id="Tablet-Copy-2" transform="translate(-60.000000, -576.000000)">
            <g id="Viz-1-B-Tablet" transform="translate(61.000000, 570.000000)">
                <g id="Group-10" transform="translate(0.000000, 107.000000)" fill="#6F41A7">
                    <rect id="Rectangle" x="364.725537" y="0" width="86.7649165" height="40"></rect>
                    <rect id="Rectangle-Copy-13" x="7.64558473" y="0" width="355.079952" height="40"></rect>
                    <rect id="Rectangle-Copy-14" x="3.45823389" y="0" width="2.18735084" height="40"></rect>
                    <rect id="Rectangle-Copy-17" x="-9.12603326e-14" y="0" width="1.45823389" height="40"></rect>
                </g>
                <use id="Rectangle" stroke="#979797" mask="url(#mask-2)" stroke-width="2" fill="#E1E1E1" stroke-dasharray="4,3" xlink:href="#path-1"></use>
                <path d="M169.61,68 L169.61,63.884 C169.61,63.468 169.596,63.054 169.568,62.642 C169.54,62.23 169.51,61.824 169.478,61.424 L169.478,61.424 L169.526,61.424 L170.378,63.044 L173.234,68 L174.266,68 L174.266,60.128 L173.318,60.128 L173.318,64.196 C173.318,64.612 173.332,65.034 173.36,65.462 C173.388,65.89 173.414,66.304 173.438,66.704 L173.438,66.704 L173.39,66.704 L172.538,65.072 L169.694,60.128 L168.662,60.128 L168.662,68 L169.61,68 Z M181.082,68 L181.082,67.148 L177.422,67.148 L177.422,64.292 L180.41,64.292 L180.41,63.44 L177.422,63.44 L177.422,60.968 L180.962,60.968 L180.962,60.128 L176.426,60.128 L176.426,68 L181.082,68 Z M184.802,68 L185.966,63.26 C186.03,62.956 186.096,62.658 186.164,62.366 C186.232,62.074 186.298,61.776 186.362,61.472 L186.362,61.472 L186.41,61.472 C186.474,61.776 186.536,62.074 186.596,62.366 C186.656,62.658 186.722,62.956 186.794,63.26 L186.794,63.26 L187.982,68 L189.182,68 L190.814,60.128 L189.854,60.128 L189.026,64.412 C188.946,64.836 188.87,65.258 188.798,65.678 C188.726,66.098 188.654,66.524 188.582,66.956 L188.582,66.956 L188.534,66.956 C188.438,66.524 188.342,66.096 188.246,65.672 C188.15,65.248 188.054,64.828 187.958,64.412 L187.958,64.412 L186.866,60.128 L185.954,60.128 L184.862,64.412 C184.774,64.836 184.682,65.258 184.586,65.678 C184.49,66.098 184.398,66.524 184.31,66.956 L184.31,66.956 L184.262,66.956 C184.19,66.524 184.114,66.1 184.034,65.684 L183.917,65.054 L183.917,65.054 L183.806,64.412 L182.978,60.128 L181.946,60.128 L183.614,68 L184.802,68 Z M194.558,68 L195.314,65.6 L198.182,65.6 L198.926,68 L199.994,68 L197.33,60.128 L196.202,60.128 L193.538,68 L194.558,68 Z M197.93,64.796 L195.566,64.796 L195.938,63.596 C196.082,63.156 196.218,62.718 196.346,62.282 C196.474,61.846 196.598,61.4 196.718,60.944 L196.718,60.944 L196.766,60.944 C196.894,61.4 197.022,61.846 197.15,62.282 C197.278,62.718 197.414,63.156 197.558,63.596 L197.558,63.596 L197.93,64.796 Z M204.086,68.144 C204.614,68.144 205.086,68.058 205.502,67.886 C205.918,67.714 206.254,67.496 206.51,67.232 L206.51,67.232 L206.51,63.92 L203.93,63.92 L203.93,64.748 L205.598,64.748 L205.598,66.8 C205.438,66.944 205.232,67.058 204.98,67.142 C204.728,67.226 204.462,67.268 204.182,67.268 C203.758,67.268 203.384,67.192 203.06,67.04 C202.736,66.888 202.464,66.672 202.244,66.392 C202.024,66.112 201.856,65.774 201.74,65.378 C201.624,64.982 201.566,64.536 201.566,64.04 C201.566,63.552 201.628,63.112 201.752,62.72 C201.876,62.328 202.05,61.994 202.274,61.718 C202.498,61.442 202.77,61.23 203.09,61.082 C203.41,60.934 203.77,60.86 204.17,60.86 C204.57,60.86 204.902,60.932 205.166,61.076 C205.43,61.22 205.662,61.396 205.862,61.604 L205.862,61.604 L206.414,60.956 C206.302,60.836 206.172,60.718 206.024,60.602 C205.876,60.486 205.708,60.382 205.52,60.29 C205.332,60.198 205.124,60.124 204.896,60.068 C204.668,60.012 204.418,59.984 204.146,59.984 C203.626,59.984 203.144,60.078 202.7,60.266 C202.256,60.454 201.874,60.724 201.554,61.076 C201.234,61.428 200.984,61.856 200.804,62.36 C200.624,62.864 200.534,63.432 200.534,64.064 C200.534,64.704 200.622,65.278 200.798,65.786 C200.974,66.294 201.218,66.722 201.53,67.07 C201.842,67.418 202.216,67.684 202.652,67.868 C203.088,68.052 203.566,68.144 204.086,68.144 Z M213.05,68 L213.05,67.148 L209.39,67.148 L209.39,64.292 L212.378,64.292 L212.378,63.44 L209.39,63.44 L209.39,60.968 L212.93,60.968 L212.93,60.128 L208.394,60.128 L208.394,68 L213.05,68 Z M215.666,68 L215.666,63.884 C215.666,63.468 215.652,63.054 215.624,62.642 C215.596,62.23 215.566,61.824 215.534,61.424 L215.534,61.424 L215.582,61.424 L216.434,63.044 L219.29,68 L220.322,68 L220.322,60.128 L219.374,60.128 L219.374,64.196 C219.374,64.612 219.388,65.034 219.416,65.462 C219.444,65.89 219.47,66.304 219.494,66.704 L219.494,66.704 L219.446,66.704 L218.594,65.072 L215.75,60.128 L214.718,60.128 L214.718,68 L215.666,68 Z M225.458,68.144 C225.97,68.144 226.422,68.044 226.814,67.844 C227.206,67.644 227.558,67.364 227.87,67.004 L227.87,67.004 L227.318,66.38 C227.062,66.66 226.79,66.878 226.502,67.034 C226.214,67.19 225.878,67.268 225.494,67.268 C225.118,67.268 224.78,67.192 224.48,67.04 C224.18,66.888 223.926,66.672 223.718,66.392 C223.51,66.112 223.348,65.774 223.232,65.378 C223.116,64.982 223.058,64.536 223.058,64.04 C223.058,63.552 223.116,63.112 223.232,62.72 C223.348,62.328 223.514,61.994 223.73,61.718 C223.946,61.442 224.206,61.23 224.51,61.082 C224.814,60.934 225.154,60.86 225.53,60.86 C225.866,60.86 226.166,60.928 226.43,61.064 C226.694,61.2 226.93,61.38 227.138,61.604 L227.138,61.604 L227.678,60.956 C227.446,60.7 227.148,60.474 226.784,60.278 C226.42,60.082 225.998,59.984 225.518,59.984 C225.014,59.984 224.55,60.078 224.126,60.266 C223.702,60.454 223.334,60.724 223.022,61.076 C222.71,61.428 222.466,61.856 222.29,62.36 C222.114,62.864 222.026,63.432 222.026,64.064 C222.026,64.704 222.112,65.278 222.284,65.786 C222.456,66.294 222.696,66.722 223.004,67.07 C223.312,67.418 223.674,67.684 224.09,67.868 C224.506,68.052 224.962,68.144 225.458,68.144 Z M231.53,68 L231.53,64.952 L233.894,60.128 L232.85,60.128 L231.842,62.348 C231.722,62.636 231.594,62.92 231.458,63.2 C231.322,63.48 231.186,63.768 231.05,64.064 L231.05,64.064 L231.002,64.064 C230.866,63.768 230.738,63.48 230.618,63.2 C230.498,62.92 230.374,62.636 230.246,62.348 L230.246,62.348 L229.226,60.128 L228.158,60.128 L230.522,64.952 L230.522,68 L231.53,68 Z M238.358,68 L238.358,64.472 L241.358,64.472 L241.358,63.632 L238.358,63.632 L238.358,60.968 L241.898,60.968 L241.898,60.128 L237.362,60.128 L237.362,68 L238.358,68 Z M246.086,68.144 C246.486,68.144 246.858,68.086 247.202,67.97 C247.546,67.854 247.844,67.662 248.096,67.394 C248.348,67.126 248.546,66.776 248.69,66.344 C248.834,65.912 248.906,65.38 248.906,64.748 L248.906,64.748 L248.906,60.128 L247.946,60.128 L247.946,64.772 C247.946,65.244 247.898,65.64 247.802,65.96 C247.706,66.28 247.574,66.536 247.406,66.728 C247.238,66.92 247.042,67.058 246.818,67.142 C246.594,67.226 246.35,67.268 246.086,67.268 C245.83,67.268 245.59,67.226 245.366,67.142 C245.142,67.058 244.948,66.92 244.784,66.728 C244.62,66.536 244.49,66.28 244.394,65.96 C244.298,65.64 244.25,65.244 244.25,64.772 L244.25,64.772 L244.25,60.128 L243.254,60.128 L243.254,64.748 C243.254,65.38 243.326,65.912 243.47,66.344 C243.614,66.776 243.812,67.126 244.064,67.394 C244.316,67.662 244.616,67.854 244.964,67.97 C245.312,68.086 245.686,68.144 246.086,68.144 Z M251.978,68 L251.978,63.884 C251.978,63.468 251.964,63.054 251.936,62.642 C251.908,62.23 251.878,61.824 251.846,61.424 L251.846,61.424 L251.894,61.424 L252.746,63.044 L255.602,68 L256.634,68 L256.634,60.128 L255.686,60.128 L255.686,64.196 C255.686,64.612 255.7,65.034 255.728,65.462 C255.756,65.89 255.782,66.304 255.806,66.704 L255.806,66.704 L255.758,66.704 L254.906,65.072 L252.062,60.128 L251.03,60.128 L251.03,68 L251.978,68 Z M260.81,68 C261.402,68 261.926,67.91 262.382,67.73 C262.838,67.55 263.222,67.29 263.534,66.95 C263.846,66.61 264.082,66.194 264.242,65.702 C264.402,65.21 264.482,64.652 264.482,64.028 C264.482,62.772 264.166,61.808 263.534,61.136 C262.902,60.464 261.978,60.128 260.762,60.128 L260.762,60.128 L258.794,60.128 L258.794,68 L260.81,68 Z M260.69,67.184 L259.79,67.184 L259.79,60.944 L260.69,60.944 C261.61,60.944 262.3,61.208 262.76,61.736 C263.22,62.264 263.45,63.028 263.45,64.028 C263.45,65.028 263.22,65.804 262.76,66.356 C262.3,66.908 261.61,67.184 260.69,67.184 L260.69,67.184 Z M267.17,68 L267.17,60.128 L266.174,60.128 L266.174,68 L267.17,68 Z M270.278,68 L270.278,63.884 C270.278,63.468 270.264,63.054 270.236,62.642 C270.208,62.23 270.178,61.824 270.146,61.424 L270.146,61.424 L270.194,61.424 L271.046,63.044 L273.902,68 L274.934,68 L274.934,60.128 L273.986,60.128 L273.986,64.196 C273.986,64.612 274,65.034 274.028,65.462 C274.056,65.89 274.082,66.304 274.106,66.704 L274.106,66.704 L274.058,66.704 L273.206,65.072 L270.362,60.128 L269.33,60.128 L269.33,68 L270.278,68 Z M280.19,68.144 C280.718,68.144 281.19,68.058 281.606,67.886 C282.022,67.714 282.358,67.496 282.614,67.232 L282.614,67.232 L282.614,63.92 L280.034,63.92 L280.034,64.748 L281.702,64.748 L281.702,66.8 C281.542,66.944 281.336,67.058 281.084,67.142 C280.832,67.226 280.566,67.268 280.286,67.268 C279.862,67.268 279.488,67.192 279.164,67.04 C278.84,66.888 278.568,66.672 278.348,66.392 C278.128,66.112 277.96,65.774 277.844,65.378 C277.728,64.982 277.67,64.536 277.67,64.04 C277.67,63.552 277.732,63.112 277.856,62.72 C277.98,62.328 278.154,61.994 278.378,61.718 C278.602,61.442 278.874,61.23 279.194,61.082 C279.514,60.934 279.874,60.86 280.274,60.86 C280.674,60.86 281.006,60.932 281.27,61.076 C281.534,61.22 281.766,61.396 281.966,61.604 L281.966,61.604 L282.518,60.956 C282.406,60.836 282.276,60.718 282.128,60.602 C281.98,60.486 281.812,60.382 281.624,60.29 C281.436,60.198 281.228,60.124 281,60.068 C280.772,60.012 280.522,59.984 280.25,59.984 C279.73,59.984 279.248,60.078 278.804,60.266 C278.36,60.454 277.978,60.724 277.658,61.076 C277.338,61.428 277.088,61.856 276.908,62.36 C276.728,62.864 276.638,63.432 276.638,64.064 C276.638,64.704 276.726,65.278 276.902,65.786 C277.078,66.294 277.322,66.722 277.634,67.07 C277.946,67.418 278.32,67.684 278.756,67.868 C279.192,68.052 279.67,68.144 280.19,68.144 Z M211.436,84.32 L211.436,83.072 C212.06,82.936 212.528,82.662 212.84,82.25 C213.152,81.838 213.308,81.344 213.308,80.768 C213.308,80.384 213.23,80.062 213.074,79.802 C212.918,79.542 212.722,79.32 212.486,79.136 C212.25,78.952 211.996,78.796 211.724,78.668 C211.452,78.54 211.198,78.416 210.962,78.296 C210.726,78.176 210.53,78.05 210.374,77.918 C210.218,77.786 210.14,77.624 210.14,77.432 C210.14,77.16 210.216,76.964 210.368,76.844 C210.52,76.724 210.74,76.664 211.028,76.664 C211.284,76.664 211.512,76.714 211.712,76.814 C211.912,76.914 212.12,77.064 212.336,77.264 L212.336,77.264 L213.224,76.256 C212.992,76.008 212.732,75.796 212.444,75.62 C212.156,75.444 211.82,75.328 211.436,75.272 L211.436,75.272 L211.436,74.06 L210.272,74.06 L210.272,75.296 C209.704,75.408 209.258,75.658 208.934,76.046 C208.61,76.434 208.448,76.924 208.448,77.516 C208.448,77.876 208.526,78.18 208.682,78.428 C208.838,78.676 209.034,78.892 209.27,79.076 C209.506,79.26 209.76,79.418 210.032,79.55 C210.304,79.682 210.558,79.814 210.794,79.946 C211.03,80.078 211.226,80.216 211.382,80.36 C211.538,80.504 211.616,80.68 211.616,80.888 C211.616,81.168 211.538,81.376 211.382,81.512 C211.226,81.648 210.98,81.716 210.644,81.716 C210.356,81.716 210.074,81.658 209.798,81.542 C209.522,81.426 209.232,81.252 208.928,81.02 L208.928,81.02 L208.16,82.208 C208.44,82.464 208.774,82.67 209.162,82.826 C209.55,82.982 209.92,83.08 210.272,83.12 L210.272,83.12 L210.272,84.32 L211.436,84.32 Z M219.836,83 L219.836,81.512 L218.3,81.512 C218.116,81.512 217.906,81.522 217.67,81.542 C217.434,81.562 217.22,81.584 217.028,81.608 C217.34,81.288 217.642,80.962 217.934,80.63 C218.226,80.298 218.486,79.966 218.714,79.634 C218.942,79.302 219.124,78.97 219.26,78.638 C219.396,78.306 219.464,77.98 219.464,77.66 C219.464,77.292 219.404,76.96 219.284,76.664 C219.164,76.368 218.992,76.114 218.768,75.902 C218.544,75.69 218.278,75.526 217.97,75.41 C217.662,75.294 217.32,75.236 216.944,75.236 C216.4,75.236 215.932,75.338 215.54,75.542 C215.148,75.746 214.764,76.048 214.388,76.448 L214.388,76.448 L215.348,77.396 C215.54,77.188 215.744,77.006 215.96,76.85 C216.176,76.694 216.424,76.616 216.704,76.616 C217.04,76.616 217.304,76.714 217.496,76.91 C217.688,77.106 217.784,77.392 217.784,77.768 C217.784,78.04 217.702,78.326 217.538,78.626 C217.374,78.926 217.146,79.25 216.854,79.598 C216.562,79.946 216.214,80.318 215.81,80.714 C215.406,81.11 214.96,81.536 214.472,81.992 L214.472,81.992 L214.472,83 L219.836,83 Z M222.164,83.144 C222.468,83.144 222.722,83.038 222.926,82.826 C223.13,82.614 223.232,82.352 223.232,82.04 C223.232,81.72 223.13,81.454 222.926,81.242 C222.722,81.03 222.468,80.924 222.164,80.924 C221.86,80.924 221.606,81.03 221.402,81.242 C221.198,81.454 221.096,81.72 221.096,82.04 C221.096,82.352 221.198,82.614 221.402,82.826 C221.606,83.038 221.86,83.144 222.164,83.144 Z M226.928,83.144 C227.296,83.144 227.65,83.084 227.99,82.964 C228.33,82.844 228.628,82.67 228.884,82.442 C229.14,82.214 229.344,81.936 229.496,81.608 C229.648,81.28 229.724,80.904 229.724,80.48 C229.724,80.072 229.66,79.72 229.532,79.424 C229.404,79.128 229.228,78.884 229.004,78.692 C228.78,78.5 228.522,78.356 228.23,78.26 C227.938,78.164 227.628,78.116 227.3,78.116 C227.14,78.116 226.994,78.13 226.862,78.158 C226.73,78.186 226.592,78.232 226.448,78.296 L226.448,78.296 L226.58,76.868 L229.376,76.868 L229.376,75.38 L225.056,75.38 L224.84,79.232 L225.632,79.736 C225.744,79.664 225.846,79.604 225.938,79.556 C226.03,79.508 226.118,79.468 226.202,79.436 C226.286,79.404 226.372,79.382 226.46,79.37 C226.548,79.358 226.648,79.352 226.76,79.352 C227.12,79.352 227.41,79.452 227.63,79.652 C227.85,79.852 227.96,80.144 227.96,80.528 C227.96,80.92 227.844,81.216 227.612,81.416 C227.38,81.616 227.068,81.716 226.676,81.716 C226.348,81.716 226.05,81.642 225.782,81.494 C225.514,81.346 225.264,81.168 225.032,80.96 L225.032,80.96 L224.24,82.076 C224.544,82.38 224.912,82.634 225.344,82.838 C225.776,83.042 226.304,83.144 226.928,83.144 Z M233.048,83.144 C233.448,83.144 233.834,83.062 234.206,82.898 C234.578,82.734 234.906,82.484 235.19,82.148 C235.474,81.812 235.702,81.384 235.874,80.864 C236.046,80.344 236.132,79.728 236.132,79.016 C236.132,78.344 236.05,77.77 235.886,77.294 C235.722,76.818 235.506,76.428 235.238,76.124 C234.97,75.82 234.662,75.596 234.314,75.452 C233.966,75.308 233.608,75.236 233.24,75.236 C232.896,75.236 232.57,75.294 232.262,75.41 C231.954,75.526 231.686,75.696 231.458,75.92 C231.23,76.144 231.048,76.414 230.912,76.73 C230.776,77.046 230.708,77.4 230.708,77.792 C230.708,78.192 230.766,78.54 230.882,78.836 C230.998,79.132 231.156,79.376 231.356,79.568 C231.556,79.76 231.794,79.904 232.07,80 C232.346,80.096 232.648,80.144 232.976,80.144 C233.096,80.144 233.224,80.126 233.36,80.09 C233.496,80.054 233.632,80.002 233.768,79.934 C233.904,79.866 234.036,79.782 234.164,79.682 C234.292,79.582 234.404,79.468 234.5,79.34 C234.484,79.788 234.434,80.162 234.35,80.462 C234.266,80.762 234.154,81.006 234.014,81.194 C233.874,81.382 233.712,81.516 233.528,81.596 C233.344,81.676 233.144,81.716 232.928,81.716 C232.704,81.716 232.484,81.662 232.268,81.554 C232.052,81.446 231.88,81.32 231.752,81.176 L231.752,81.176 L230.816,82.232 C231.056,82.472 231.362,82.684 231.734,82.868 C232.106,83.052 232.544,83.144 233.048,83.144 Z M233.324,78.896 C233.036,78.896 232.796,78.814 232.604,78.65 C232.412,78.486 232.316,78.2 232.316,77.792 C232.316,77.36 232.412,77.046 232.604,76.85 C232.796,76.654 233.02,76.556 233.276,76.556 C233.548,76.556 233.794,76.67 234.014,76.898 C234.234,77.126 234.384,77.54 234.464,78.14 C234.312,78.412 234.134,78.606 233.93,78.722 C233.726,78.838 233.524,78.896 233.324,78.896 Z M240.86,83 L240.86,76.664 L243.008,76.664 L243.008,75.176 L236.936,75.176 L236.936,76.664 L239.084,76.664 L239.084,83 L240.86,83 Z" id="NEWAGENCYFUNDING$2.59T" fill="#666666" fill-rule="nonzero"></path>
                <path d="M145.96,18 L145.96,8.624 L149.128,8.624 L149.128,7.504 L141.448,7.504 L141.448,8.624 L144.616,8.624 L144.616,18 L145.96,18 Z M152.856,18.192 C153.336,18.192 153.792,18.1013333 154.224,17.92 C154.656,17.7386667 155.037333,17.4746667 155.368,17.128 C155.698667,16.7813333 155.962667,16.3546667 156.16,15.848 C156.357333,15.3413333 156.456,14.768 156.456,14.128 C156.456,13.4773333 156.357333,12.8986667 156.16,12.392 C155.962667,11.8853333 155.698667,11.456 155.368,11.104 C155.037333,10.752 154.656,10.4853333 154.224,10.304 C153.792,10.1226667 153.336,10.032 152.856,10.032 C152.376,10.032 151.92,10.1226667 151.488,10.304 C151.056,10.4853333 150.674667,10.752 150.344,11.104 C150.013333,11.456 149.749333,11.8853333 149.552,12.392 C149.354667,12.8986667 149.256,13.4773333 149.256,14.128 C149.256,14.768 149.354667,15.3413333 149.552,15.848 C149.749333,16.3546667 150.013333,16.7813333 150.344,17.128 C150.674667,17.4746667 151.056,17.7386667 151.488,17.92 C151.92,18.1013333 152.376,18.192 152.856,18.192 Z M152.856,17.104 C152.525333,17.104 152.221333,17.032 151.944,16.888 C151.666667,16.744 151.429333,16.5413333 151.232,16.28 C151.034667,16.0186667 150.882667,15.7066667 150.776,15.344 C150.669333,14.9813333 150.616,14.576 150.616,14.128 C150.616,13.68 150.669333,13.272 150.776,12.904 C150.882667,12.536 151.034667,12.2186667 151.232,11.952 C151.429333,11.6853333 151.666667,11.48 151.944,11.336 C152.221333,11.192 152.525333,11.12 152.856,11.12 C153.186667,11.12 153.490667,11.192 153.768,11.336 C154.045333,11.48 154.282667,11.6853333 154.48,11.952 C154.677333,12.2186667 154.829333,12.536 154.936,12.904 C155.042667,13.272 155.096,13.68 155.096,14.128 C155.096,14.576 155.042667,14.9813333 154.936,15.344 C154.829333,15.7066667 154.677333,16.0186667 154.48,16.28 C154.282667,16.5413333 154.045333,16.744 153.768,16.888 C153.490667,17.032 153.186667,17.104 152.856,17.104 Z M160.68,18.192 C160.925333,18.192 161.173333,18.1626667 161.424,18.104 C161.674667,18.0453333 161.906667,17.9786667 162.12,17.904 L162.12,17.904 L161.864,16.912 C161.736,16.9653333 161.592,17.0133333 161.432,17.056 C161.272,17.0986667 161.122667,17.12 160.984,17.12 C160.536,17.12 160.224,16.9893333 160.048,16.728 C159.872,16.4666667 159.784,16.096 159.784,15.616 L159.784,15.616 L159.784,11.296 L161.88,11.296 L161.88,10.224 L159.784,10.224 L159.784,8.048 L158.68,8.048 L158.52,10.224 L157.304,10.304 L157.304,11.296 L158.456,11.296 L158.456,15.6 C158.456,15.984 158.493333,16.336 158.568,16.656 C158.642667,16.976 158.768,17.248 158.944,17.472 C159.12,17.696 159.349333,17.872 159.632,18 C159.914667,18.128 160.264,18.192 160.68,18.192 Z M165.096,18.192 C165.586667,18.192 166.045333,18.0826667 166.472,17.864 C166.898667,17.6453333 167.298667,17.3813333 167.672,17.072 L167.672,17.072 L167.72,17.072 L167.832,18 L168.92,18 L168.92,13.232 C168.92,12.2613333 168.706667,11.4853333 168.28,10.904 C167.853333,10.3226667 167.165333,10.032 166.216,10.032 C165.586667,10.032 165.010667,10.1413333 164.488,10.36 C163.965333,10.5786667 163.522667,10.8053333 163.16,11.04 L163.16,11.04 L163.672,11.952 C163.981333,11.7386667 164.333333,11.5466667 164.728,11.376 C165.122667,11.2053333 165.544,11.12 165.992,11.12 C166.312,11.12 166.576,11.176 166.784,11.288 C166.992,11.4 167.154667,11.5466667 167.272,11.728 C167.389333,11.9093333 167.472,12.1173333 167.52,12.352 C167.568,12.5866667 167.592,12.8266667 167.592,13.072 C165.928,13.2533333 164.717333,13.5706667 163.96,14.024 C163.202667,14.4773333 162.824,15.1306667 162.824,15.984 C162.824,16.688 163.04,17.232 163.472,17.616 C163.904,18 164.445333,18.192 165.096,18.192 Z M165.48,17.136 C165.096,17.136 164.770667,17.04 164.504,16.848 C164.237333,16.656 164.104,16.336 164.104,15.888 C164.104,15.6426667 164.165333,15.416 164.288,15.208 C164.410667,15 164.608,14.816 164.88,14.656 C165.152,14.496 165.509333,14.3573333 165.952,14.24 C166.394667,14.1226667 166.941333,14.0213333 167.592,13.936 L167.592,13.936 L167.592,16.096 C167.218667,16.4373333 166.866667,16.696 166.536,16.872 C166.205333,17.048 165.853333,17.136 165.48,17.136 Z M172.76,18.192 C172.941333,18.192 173.090667,18.1813333 173.208,18.16 C173.325333,18.1386667 173.426667,18.1066667 173.512,18.064 L173.512,18.064 L173.336,17.072 C173.261333,17.0933333 173.205333,17.104 173.168,17.104 L173.168,17.104 L173.048,17.104 C172.952,17.104 172.866667,17.0613333 172.792,16.976 C172.717333,16.8906667 172.68,16.7413333 172.68,16.528 L172.68,16.528 L172.68,6.608 L171.368,6.608 L171.368,16.432 C171.368,17.008 171.474667,17.4453333 171.688,17.744 C171.901333,18.0426667 172.258667,18.192 172.76,18.192 Z M184.984,18 L184.984,16.864 L180.104,16.864 L180.104,13.056 L184.088,13.056 L184.088,11.92 L180.104,11.92 L180.104,8.624 L184.824,8.624 L184.824,7.504 L178.776,7.504 L178.776,18 L184.984,18 Z M189.112,18.192 C189.570667,18.192 189.978667,18.1306667 190.336,18.008 C190.693333,17.8853333 190.992,17.7173333 191.232,17.504 C191.472,17.2906667 191.653333,17.0453333 191.776,16.768 C191.898667,16.4906667 191.96,16.192 191.96,15.872 C191.96,15.5093333 191.888,15.2 191.744,14.944 C191.6,14.688 191.416,14.472 191.192,14.296 C190.968,14.12 190.714667,13.9733333 190.432,13.856 C190.149333,13.7386667 189.869333,13.6266667 189.592,13.52 C189.368,13.4346667 189.152,13.352 188.944,13.272 C188.736,13.192 188.552,13.1013333 188.392,13 C188.232,12.8986667 188.104,12.7813333 188.008,12.648 C187.912,12.5146667 187.864,12.3573333 187.864,12.176 C187.864,11.8773333 187.978667,11.616 188.208,11.392 C188.437333,11.168 188.797333,11.056 189.288,11.056 C189.629333,11.056 189.944,11.12 190.232,11.248 C190.52,11.376 190.797333,11.5413333 191.064,11.744 L191.064,11.744 L191.688,10.912 C191.389333,10.6666667 191.034667,10.4586667 190.624,10.288 C190.213333,10.1173333 189.762667,10.032 189.272,10.032 C188.856,10.032 188.482667,10.088 188.152,10.2 C187.821333,10.312 187.541333,10.4666667 187.312,10.664 C187.082667,10.8613333 186.906667,11.096 186.784,11.368 C186.661333,11.64 186.6,11.9306667 186.6,12.24 C186.6,12.5706667 186.669333,12.8533333 186.808,13.088 C186.946667,13.3226667 187.125333,13.528 187.344,13.704 C187.562667,13.88 187.810667,14.0293333 188.088,14.152 C188.365333,14.2746667 188.642667,14.384 188.92,14.48 L188.92,14.48 L189.56,14.736 C189.773333,14.8213333 189.962667,14.92 190.128,15.032 C190.293333,15.144 190.429333,15.2746667 190.536,15.424 C190.642667,15.5733333 190.696,15.7493333 190.696,15.952 C190.696,16.2933333 190.568,16.5813333 190.312,16.816 C190.056,17.0506667 189.672,17.168 189.16,17.168 C188.690667,17.168 188.277333,17.0826667 187.92,16.912 C187.562667,16.7413333 187.213333,16.5173333 186.872,16.24 L186.872,16.24 L186.216,17.12 C186.589333,17.4293333 187.026667,17.6853333 187.528,17.888 C188.029333,18.0906667 188.557333,18.192 189.112,18.192 Z M195.912,18.192 C196.157333,18.192 196.405333,18.1626667 196.656,18.104 C196.906667,18.0453333 197.138667,17.9786667 197.352,17.904 L197.352,17.904 L197.096,16.912 C196.968,16.9653333 196.824,17.0133333 196.664,17.056 C196.504,17.0986667 196.354667,17.12 196.216,17.12 C195.768,17.12 195.456,16.9893333 195.28,16.728 C195.104,16.4666667 195.016,16.096 195.016,15.616 L195.016,15.616 L195.016,11.296 L197.112,11.296 L197.112,10.224 L195.016,10.224 L195.016,8.048 L193.912,8.048 L193.752,10.224 L192.536,10.304 L192.536,11.296 L193.688,11.296 L193.688,15.6 C193.688,15.984 193.725333,16.336 193.8,16.656 C193.874667,16.976 194,17.248 194.176,17.472 C194.352,17.696 194.581333,17.872 194.864,18 C195.146667,18.128 195.496,18.192 195.912,18.192 Z M199.544,8.624 C199.8,8.624 200.016,8.544 200.192,8.384 C200.368,8.224 200.456,8.02133333 200.456,7.776 C200.456,7.52 200.368,7.31466667 200.192,7.16 C200.016,7.00533333 199.8,6.928 199.544,6.928 C199.288,6.928 199.072,7.00533333 198.896,7.16 C198.72,7.31466667 198.632,7.52 198.632,7.776 C198.632,8.02133333 198.72,8.224 198.896,8.384 C199.072,8.544 199.288,8.624 199.544,8.624 Z M200.184,18 L200.184,10.224 L198.872,10.224 L198.872,18 L200.184,18 Z M204.12,18 L204.12,12.368 C204.834667,11.568 205.485333,11.168 206.072,11.168 C206.573333,11.168 206.941333,11.3306667 207.176,11.656 C207.410667,11.9813333 207.528,12.512 207.528,13.248 L207.528,13.248 L207.528,18 L208.84,18 L208.84,12.368 C209.554667,11.568 210.205333,11.168 210.792,11.168 C211.282667,11.168 211.645333,11.3306667 211.88,11.656 C212.114667,11.9813333 212.232,12.512 212.232,13.248 L212.232,13.248 L212.232,18 L213.544,18 L213.544,13.072 C213.544,12.0693333 213.349333,11.312 212.96,10.8 C212.570667,10.288 211.976,10.032 211.176,10.032 C210.696,10.032 210.250667,10.168 209.84,10.44 C209.429333,10.712 209.021333,11.072 208.616,11.52 C208.456,11.0506667 208.208,10.6853333 207.872,10.424 C207.536,10.1626667 207.069333,10.032 206.472,10.032 C206.002667,10.032 205.568,10.1573333 205.168,10.408 C204.768,10.6586667 204.397333,10.9706667 204.056,11.344 L204.056,11.344 L204.008,11.344 L203.896,10.224 L202.808,10.224 L202.808,18 L204.12,18 Z M217.864,18.192 C218.354667,18.192 218.813333,18.0826667 219.24,17.864 C219.666667,17.6453333 220.066667,17.3813333 220.44,17.072 L220.44,17.072 L220.488,17.072 L220.6,18 L221.688,18 L221.688,13.232 C221.688,12.2613333 221.474667,11.4853333 221.048,10.904 C220.621333,10.3226667 219.933333,10.032 218.984,10.032 C218.354667,10.032 217.778667,10.1413333 217.256,10.36 C216.733333,10.5786667 216.290667,10.8053333 215.928,11.04 L215.928,11.04 L216.44,11.952 C216.749333,11.7386667 217.101333,11.5466667 217.496,11.376 C217.890667,11.2053333 218.312,11.12 218.76,11.12 C219.08,11.12 219.344,11.176 219.552,11.288 C219.76,11.4 219.922667,11.5466667 220.04,11.728 C220.157333,11.9093333 220.24,12.1173333 220.288,12.352 C220.336,12.5866667 220.36,12.8266667 220.36,13.072 C218.696,13.2533333 217.485333,13.5706667 216.728,14.024 C215.970667,14.4773333 215.592,15.1306667 215.592,15.984 C215.592,16.688 215.808,17.232 216.24,17.616 C216.672,18 217.213333,18.192 217.864,18.192 Z M218.248,17.136 C217.864,17.136 217.538667,17.04 217.272,16.848 C217.005333,16.656 216.872,16.336 216.872,15.888 C216.872,15.6426667 216.933333,15.416 217.056,15.208 C217.178667,15 217.376,14.816 217.648,14.656 C217.92,14.496 218.277333,14.3573333 218.72,14.24 C219.162667,14.1226667 219.709333,14.0213333 220.36,13.936 L220.36,13.936 L220.36,16.096 C219.986667,16.4373333 219.634667,16.696 219.304,16.872 C218.973333,17.048 218.621333,17.136 218.248,17.136 Z M226.36,18.192 C226.605333,18.192 226.853333,18.1626667 227.104,18.104 C227.354667,18.0453333 227.586667,17.9786667 227.8,17.904 L227.8,17.904 L227.544,16.912 C227.416,16.9653333 227.272,17.0133333 227.112,17.056 C226.952,17.0986667 226.802667,17.12 226.664,17.12 C226.216,17.12 225.904,16.9893333 225.728,16.728 C225.552,16.4666667 225.464,16.096 225.464,15.616 L225.464,15.616 L225.464,11.296 L227.56,11.296 L227.56,10.224 L225.464,10.224 L225.464,8.048 L224.36,8.048 L224.2,10.224 L222.984,10.304 L222.984,11.296 L224.136,11.296 L224.136,15.6 C224.136,15.984 224.173333,16.336 224.248,16.656 C224.322667,16.976 224.448,17.248 224.624,17.472 C224.8,17.696 225.029333,17.872 225.312,18 C225.594667,18.128 225.944,18.192 226.36,18.192 Z M232.248,18.192 C232.781333,18.192 233.256,18.112 233.672,17.952 C234.088,17.792 234.466667,17.6053333 234.808,17.392 L234.808,17.392 L234.344,16.528 C234.056,16.7093333 233.754667,16.856 233.44,16.968 C233.125333,17.08 232.781333,17.136 232.408,17.136 C231.661333,17.136 231.056,16.8933333 230.592,16.408 C230.128,15.9226667 229.869333,15.264 229.816,14.432 L229.816,14.432 L235.064,14.432 C235.085333,14.336 235.098667,14.2213333 235.104,14.088 C235.109333,13.9546667 235.112,13.8186667 235.112,13.68 C235.112,13.1253333 235.042667,12.624 234.904,12.176 C234.765333,11.728 234.565333,11.344 234.304,11.024 C234.042667,10.704 233.717333,10.4586667 233.328,10.288 C232.938667,10.1173333 232.498667,10.032 232.008,10.032 C231.56,10.032 231.128,10.1253333 230.712,10.312 C230.296,10.4986667 229.925333,10.768 229.6,11.12 C229.274667,11.472 229.013333,11.9013333 228.816,12.408 C228.618667,12.9146667 228.52,13.488 228.52,14.128 C228.52,14.768 228.616,15.3386667 228.808,15.84 C229,16.3413333 229.264,16.7653333 229.6,17.112 C229.936,17.4586667 230.330667,17.7253333 230.784,17.912 C231.237333,18.0986667 231.725333,18.192 232.248,18.192 Z M233.96,13.488 L229.8,13.488 C229.842667,13.104 229.930667,12.7626667 230.064,12.464 C230.197333,12.1653333 230.365333,11.912 230.568,11.704 C230.770667,11.496 230.997333,11.3386667 231.248,11.232 C231.498667,11.1253333 231.762667,11.072 232.04,11.072 C232.648,11.072 233.12,11.2773333 233.456,11.688 C233.792,12.0986667 233.96,12.6986667 233.96,13.488 L233.96,13.488 Z M239.688,18.192 C240.146667,18.192 240.576,18.0826667 240.976,17.864 C241.376,17.6453333 241.730667,17.3866667 242.04,17.088 L242.04,17.088 L242.088,17.088 L242.2,18 L243.288,18 L243.288,6.608 L241.96,6.608 L241.96,9.6 L242.024,10.928 C241.682667,10.6506667 241.346667,10.432 241.016,10.272 C240.685333,10.112 240.296,10.032 239.848,10.032 C239.4,10.032 238.973333,10.128 238.568,10.32 C238.162667,10.512 237.805333,10.784 237.496,11.136 C237.186667,11.488 236.938667,11.9173333 236.752,12.424 C236.565333,12.9306667 236.472,13.4986667 236.472,14.128 C236.472,15.4293333 236.762667,16.432 237.344,17.136 C237.925333,17.84 238.706667,18.192 239.688,18.192 Z M239.976,17.088 C239.293333,17.088 238.765333,16.8266667 238.392,16.304 C238.018667,15.7813333 237.832,15.0506667 237.832,14.112 C237.832,13.664 237.890667,13.2586667 238.008,12.896 C238.125333,12.5333333 238.285333,12.2213333 238.488,11.96 C238.690667,11.6986667 238.928,11.496 239.2,11.352 C239.472,11.208 239.762667,11.136 240.072,11.136 C240.392,11.136 240.704,11.1973333 241.008,11.32 C241.312,11.4426667 241.629333,11.6533333 241.96,11.952 L241.96,11.952 L241.96,16.016 C241.64,16.3786667 241.32,16.648 241,16.824 C240.68,17 240.338667,17.088 239.976,17.088 Z M252.712,18 L256.04,7.504 L254.68,7.504 L253,13.168 C252.818667,13.7973333 252.653333,14.3786667 252.504,14.912 C252.354667,15.4453333 252.184,16.0213333 251.992,16.64 L251.992,16.64 L251.928,16.64 C251.725333,16.0213333 251.552,15.4453333 251.408,14.912 C251.264,14.3786667 251.096,13.7973333 250.904,13.168 L250.904,13.168 L249.224,7.504 L247.8,7.504 L251.16,18 L252.712,18 Z M258.792,18.192 C259.282667,18.192 259.741333,18.0826667 260.168,17.864 C260.594667,17.6453333 260.994667,17.3813333 261.368,17.072 L261.368,17.072 L261.416,17.072 L261.528,18 L262.616,18 L262.616,13.232 C262.616,12.2613333 262.402667,11.4853333 261.976,10.904 C261.549333,10.3226667 260.861333,10.032 259.912,10.032 C259.282667,10.032 258.706667,10.1413333 258.184,10.36 C257.661333,10.5786667 257.218667,10.8053333 256.856,11.04 L256.856,11.04 L257.368,11.952 C257.677333,11.7386667 258.029333,11.5466667 258.424,11.376 C258.818667,11.2053333 259.24,11.12 259.688,11.12 C260.008,11.12 260.272,11.176 260.48,11.288 C260.688,11.4 260.850667,11.5466667 260.968,11.728 C261.085333,11.9093333 261.168,12.1173333 261.216,12.352 C261.264,12.5866667 261.288,12.8266667 261.288,13.072 C259.624,13.2533333 258.413333,13.5706667 257.656,14.024 C256.898667,14.4773333 256.52,15.1306667 256.52,15.984 C256.52,16.688 256.736,17.232 257.168,17.616 C257.6,18 258.141333,18.192 258.792,18.192 Z M259.176,17.136 C258.792,17.136 258.466667,17.04 258.2,16.848 C257.933333,16.656 257.8,16.336 257.8,15.888 C257.8,15.6426667 257.861333,15.416 257.984,15.208 C258.106667,15 258.304,14.816 258.576,14.656 C258.848,14.496 259.205333,14.3573333 259.648,14.24 C260.090667,14.1226667 260.637333,14.0213333 261.288,13.936 L261.288,13.936 L261.288,16.096 C260.914667,16.4373333 260.562667,16.696 260.232,16.872 C259.901333,17.048 259.549333,17.136 259.176,17.136 Z M266.456,18.192 C266.637333,18.192 266.786667,18.1813333 266.904,18.16 C267.021333,18.1386667 267.122667,18.1066667 267.208,18.064 L267.208,18.064 L267.032,17.072 C266.957333,17.0933333 266.901333,17.104 266.864,17.104 L266.864,17.104 L266.744,17.104 C266.648,17.104 266.562667,17.0613333 266.488,16.976 C266.413333,16.8906667 266.376,16.7413333 266.376,16.528 L266.376,16.528 L266.376,6.608 L265.064,6.608 L265.064,16.432 C265.064,17.008 265.170667,17.4453333 265.384,17.744 C265.597333,18.0426667 265.954667,18.192 266.456,18.192 Z M271.416,18.192 C271.96,18.192 272.432,18.064 272.832,17.808 C273.232,17.552 273.613333,17.2106667 273.976,16.784 L273.976,16.784 L274.024,16.784 L274.136,18 L275.224,18 L275.224,10.224 L273.912,10.224 L273.912,15.744 C273.538667,16.2026667 273.197333,16.536 272.888,16.744 C272.578667,16.952 272.221333,17.056 271.816,17.056 C271.304,17.056 270.933333,16.8933333 270.704,16.568 C270.474667,16.2426667 270.36,15.712 270.36,14.976 L270.36,14.976 L270.36,10.224 L269.032,10.224 L269.032,15.152 C269.032,16.1546667 269.221333,16.912 269.6,17.424 C269.978667,17.936 270.584,18.192 271.416,18.192 Z M281,18.192 C281.533333,18.192 282.008,18.112 282.424,17.952 C282.84,17.792 283.218667,17.6053333 283.56,17.392 L283.56,17.392 L283.096,16.528 C282.808,16.7093333 282.506667,16.856 282.192,16.968 C281.877333,17.08 281.533333,17.136 281.16,17.136 C280.413333,17.136 279.808,16.8933333 279.344,16.408 C278.88,15.9226667 278.621333,15.264 278.568,14.432 L278.568,14.432 L283.816,14.432 C283.837333,14.336 283.850667,14.2213333 283.856,14.088 C283.861333,13.9546667 283.864,13.8186667 283.864,13.68 C283.864,13.1253333 283.794667,12.624 283.656,12.176 C283.517333,11.728 283.317333,11.344 283.056,11.024 C282.794667,10.704 282.469333,10.4586667 282.08,10.288 C281.690667,10.1173333 281.250667,10.032 280.76,10.032 C280.312,10.032 279.88,10.1253333 279.464,10.312 C279.048,10.4986667 278.677333,10.768 278.352,11.12 C278.026667,11.472 277.765333,11.9013333 277.568,12.408 C277.370667,12.9146667 277.272,13.488 277.272,14.128 C277.272,14.768 277.368,15.3386667 277.56,15.84 C277.752,16.3413333 278.016,16.7653333 278.352,17.112 C278.688,17.4586667 279.082667,17.7253333 279.536,17.912 C279.989333,18.0986667 280.477333,18.192 281,18.192 Z M282.712,13.488 L278.552,13.488 C278.594667,13.104 278.682667,12.7626667 278.816,12.464 C278.949333,12.1653333 279.117333,11.912 279.32,11.704 C279.522667,11.496 279.749333,11.3386667 280,11.232 C280.250667,11.1253333 280.514667,11.072 280.792,11.072 C281.4,11.072 281.872,11.2773333 282.208,11.688 C282.544,12.0986667 282.712,12.6986667 282.712,13.488 L282.712,13.488 Z M292.008,18.192 C292.488,18.192 292.944,18.1013333 293.376,17.92 C293.808,17.7386667 294.189333,17.4746667 294.52,17.128 C294.850667,16.7813333 295.114667,16.3546667 295.312,15.848 C295.509333,15.3413333 295.608,14.768 295.608,14.128 C295.608,13.4773333 295.509333,12.8986667 295.312,12.392 C295.114667,11.8853333 294.850667,11.456 294.52,11.104 C294.189333,10.752 293.808,10.4853333 293.376,10.304 C292.944,10.1226667 292.488,10.032 292.008,10.032 C291.528,10.032 291.072,10.1226667 290.64,10.304 C290.208,10.4853333 289.826667,10.752 289.496,11.104 C289.165333,11.456 288.901333,11.8853333 288.704,12.392 C288.506667,12.8986667 288.408,13.4773333 288.408,14.128 C288.408,14.768 288.506667,15.3413333 288.704,15.848 C288.901333,16.3546667 289.165333,16.7813333 289.496,17.128 C289.826667,17.4746667 290.208,17.7386667 290.64,17.92 C291.072,18.1013333 291.528,18.192 292.008,18.192 Z M292.008,17.104 C291.677333,17.104 291.373333,17.032 291.096,16.888 C290.818667,16.744 290.581333,16.5413333 290.384,16.28 C290.186667,16.0186667 290.034667,15.7066667 289.928,15.344 C289.821333,14.9813333 289.768,14.576 289.768,14.128 C289.768,13.68 289.821333,13.272 289.928,12.904 C290.034667,12.536 290.186667,12.2186667 290.384,11.952 C290.581333,11.6853333 290.818667,11.48 291.096,11.336 C291.373333,11.192 291.677333,11.12 292.008,11.12 C292.338667,11.12 292.642667,11.192 292.92,11.336 C293.197333,11.48 293.434667,11.6853333 293.632,11.952 C293.829333,12.2186667 293.981333,12.536 294.088,12.904 C294.194667,13.272 294.248,13.68 294.248,14.128 C294.248,14.576 294.194667,14.9813333 294.088,15.344 C293.981333,15.7066667 293.829333,16.0186667 293.632,16.28 C293.434667,16.5413333 293.197333,16.744 292.92,16.888 C292.642667,17.032 292.338667,17.104 292.008,17.104 Z M299.192,18 L299.192,11.296 L300.84,11.296 L300.84,10.224 L299.192,10.224 L299.192,8.992 C299.192,7.98933333 299.554667,7.488 300.28,7.488 C300.578667,7.488 300.872,7.552 301.16,7.68 L301.16,7.68 L301.448,6.672 C301.266667,6.59733333 301.066667,6.536 300.848,6.488 C300.629333,6.44 300.397333,6.416 300.152,6.416 C299.373333,6.416 298.8,6.64533333 298.432,7.104 C298.064,7.56266667 297.88,8.192 297.88,8.992 L297.88,8.992 L297.88,10.224 L296.824,10.304 L296.824,11.296 L297.88,11.296 L297.88,18 L299.192,18 Z M311.576,18 L311.576,16.864 L306.984,16.864 L306.984,7.504 L305.656,7.504 L305.656,18 L311.576,18 Z M316.264,18.192 C316.797333,18.192 317.272,18.112 317.688,17.952 C318.104,17.792 318.482667,17.6053333 318.824,17.392 L318.824,17.392 L318.36,16.528 C318.072,16.7093333 317.770667,16.856 317.456,16.968 C317.141333,17.08 316.797333,17.136 316.424,17.136 C315.677333,17.136 315.072,16.8933333 314.608,16.408 C314.144,15.9226667 313.885333,15.264 313.832,14.432 L313.832,14.432 L319.08,14.432 C319.101333,14.336 319.114667,14.2213333 319.12,14.088 C319.125333,13.9546667 319.128,13.8186667 319.128,13.68 C319.128,13.1253333 319.058667,12.624 318.92,12.176 C318.781333,11.728 318.581333,11.344 318.32,11.024 C318.058667,10.704 317.733333,10.4586667 317.344,10.288 C316.954667,10.1173333 316.514667,10.032 316.024,10.032 C315.576,10.032 315.144,10.1253333 314.728,10.312 C314.312,10.4986667 313.941333,10.768 313.616,11.12 C313.290667,11.472 313.029333,11.9013333 312.832,12.408 C312.634667,12.9146667 312.536,13.488 312.536,14.128 C312.536,14.768 312.632,15.3386667 312.824,15.84 C313.016,16.3413333 313.28,16.7653333 313.616,17.112 C313.952,17.4586667 314.346667,17.7253333 314.8,17.912 C315.253333,18.0986667 315.741333,18.192 316.264,18.192 Z M317.976,13.488 L313.816,13.488 C313.858667,13.104 313.946667,12.7626667 314.08,12.464 C314.213333,12.1653333 314.381333,11.912 314.584,11.704 C314.786667,11.496 315.013333,11.3386667 315.264,11.232 C315.514667,11.1253333 315.778667,11.072 316.056,11.072 C316.664,11.072 317.136,11.2773333 317.472,11.688 C317.808,12.0986667 317.976,12.6986667 317.976,13.488 L317.976,13.488 Z M323.512,21.584 C324.12,21.584 324.666667,21.512 325.152,21.368 C325.637333,21.224 326.050667,21.0293333 326.392,20.784 C326.733333,20.5386667 326.994667,20.2533333 327.176,19.928 C327.357333,19.6026667 327.448,19.2586667 327.448,18.896 C327.448,18.2453333 327.221333,17.7733333 326.768,17.48 C326.314667,17.1866667 325.634667,17.04 324.728,17.04 L324.728,17.04 L323.224,17.04 C322.690667,17.04 322.328,16.96 322.136,16.8 C321.944,16.64 321.848,16.4373333 321.848,16.192 C321.848,15.9786667 321.896,15.8 321.992,15.656 C322.088,15.512 322.205333,15.3813333 322.344,15.264 C322.525333,15.3493333 322.717333,15.416 322.92,15.464 C323.122667,15.512 323.32,15.536 323.512,15.536 C323.906667,15.536 324.277333,15.472 324.624,15.344 C324.970667,15.216 325.272,15.0373333 325.528,14.808 C325.784,14.5786667 325.986667,14.296 326.136,13.96 C326.285333,13.624 326.36,13.248 326.36,12.832 C326.36,12.5013333 326.298667,12.1973333 326.176,11.92 C326.053333,11.6426667 325.901333,11.4133333 325.72,11.232 L325.72,11.232 L327.32,11.232 L327.32,10.224 L324.616,10.224 C324.466667,10.1706667 324.298667,10.1253333 324.112,10.088 C323.925333,10.0506667 323.725333,10.032 323.512,10.032 C323.117333,10.032 322.741333,10.096 322.384,10.224 C322.026667,10.352 321.714667,10.536 321.448,10.776 C321.181333,11.016 320.970667,11.3066667 320.816,11.648 C320.661333,11.9893333 320.584,12.3733333 320.584,12.8 C320.584,13.2693333 320.688,13.6826667 320.896,14.04 C321.104,14.3973333 321.336,14.6826667 321.592,14.896 L321.592,14.896 L321.592,14.96 C321.389333,15.0986667 321.197333,15.2906667 321.016,15.536 C320.834667,15.7813333 320.744,16.0693333 320.744,16.4 C320.744,16.7093333 320.810667,16.968 320.944,17.176 C321.077333,17.384 321.24,17.5466667 321.432,17.664 L321.432,17.664 L321.432,17.728 C321.08,17.9733333 320.802667,18.2453333 320.6,18.544 C320.397333,18.8426667 320.296,19.1573333 320.296,19.488 C320.296,19.8293333 320.373333,20.128 320.528,20.384 C320.682667,20.64 320.901333,20.8586667 321.184,21.04 C321.466667,21.2213333 321.805333,21.3573333 322.2,21.448 C322.594667,21.5386667 323.032,21.584 323.512,21.584 Z M323.512,14.656 C323.288,14.656 323.077333,14.6133333 322.88,14.528 C322.682667,14.4426667 322.506667,14.32 322.352,14.16 C322.197333,14 322.077333,13.8053333 321.992,13.576 C321.906667,13.3466667 321.864,13.088 321.864,12.8 C321.864,12.224 322.024,11.7786667 322.344,11.464 C322.664,11.1493333 323.053333,10.992 323.512,10.992 C323.970667,10.992 324.36,11.1493333 324.68,11.464 C325,11.7786667 325.16,12.224 325.16,12.8 C325.16,13.088 325.117333,13.3466667 325.032,13.576 C324.946667,13.8053333 324.826667,14 324.672,14.16 C324.517333,14.32 324.341333,14.4426667 324.144,14.528 C323.946667,14.6133333 323.736,14.656 323.512,14.656 Z M323.704,20.672 C323,20.672 322.448,20.5493333 322.048,20.304 C321.648,20.0586667 321.448,19.728 321.448,19.312 C321.448,19.088 321.512,18.864 321.64,18.64 C321.768,18.416 321.970667,18.2026667 322.248,18 C322.418667,18.0533333 322.592,18.088 322.768,18.104 C322.944,18.12 323.106667,18.128 323.256,18.128 L323.256,18.128 L324.6,18.128 C325.112,18.128 325.501333,18.1973333 325.768,18.336 C326.034667,18.4746667 326.168,18.7253333 326.168,19.088 C326.168,19.2906667 326.109333,19.488 325.992,19.68 C325.874667,19.872 325.709333,20.04 325.496,20.184 C325.282667,20.328 325.024,20.4453333 324.72,20.536 C324.416,20.6266667 324.077333,20.672 323.704,20.672 Z M329.624,8.624 C329.88,8.624 330.096,8.544 330.272,8.384 C330.448,8.224 330.536,8.02133333 330.536,7.776 C330.536,7.52 330.448,7.31466667 330.272,7.16 C330.096,7.00533333 329.88,6.928 329.624,6.928 C329.368,6.928 329.152,7.00533333 328.976,7.16 C328.8,7.31466667 328.712,7.52 328.712,7.776 C328.712,8.02133333 328.8,8.224 328.976,8.384 C329.152,8.544 329.368,8.624 329.624,8.624 Z M330.264,18 L330.264,10.224 L328.952,10.224 L328.952,18 L330.264,18 Z M334.92,18.192 C335.378667,18.192 335.786667,18.1306667 336.144,18.008 C336.501333,17.8853333 336.8,17.7173333 337.04,17.504 C337.28,17.2906667 337.461333,17.0453333 337.584,16.768 C337.706667,16.4906667 337.768,16.192 337.768,15.872 C337.768,15.5093333 337.696,15.2 337.552,14.944 C337.408,14.688 337.224,14.472 337,14.296 C336.776,14.12 336.522667,13.9733333 336.24,13.856 C335.957333,13.7386667 335.677333,13.6266667 335.4,13.52 C335.176,13.4346667 334.96,13.352 334.752,13.272 C334.544,13.192 334.36,13.1013333 334.2,13 C334.04,12.8986667 333.912,12.7813333 333.816,12.648 C333.72,12.5146667 333.672,12.3573333 333.672,12.176 C333.672,11.8773333 333.786667,11.616 334.016,11.392 C334.245333,11.168 334.605333,11.056 335.096,11.056 C335.437333,11.056 335.752,11.12 336.04,11.248 C336.328,11.376 336.605333,11.5413333 336.872,11.744 L336.872,11.744 L337.496,10.912 C337.197333,10.6666667 336.842667,10.4586667 336.432,10.288 C336.021333,10.1173333 335.570667,10.032 335.08,10.032 C334.664,10.032 334.290667,10.088 333.96,10.2 C333.629333,10.312 333.349333,10.4666667 333.12,10.664 C332.890667,10.8613333 332.714667,11.096 332.592,11.368 C332.469333,11.64 332.408,11.9306667 332.408,12.24 C332.408,12.5706667 332.477333,12.8533333 332.616,13.088 C332.754667,13.3226667 332.933333,13.528 333.152,13.704 C333.370667,13.88 333.618667,14.0293333 333.896,14.152 C334.173333,14.2746667 334.450667,14.384 334.728,14.48 C334.941333,14.5653333 335.154667,14.6506667 335.368,14.736 C335.581333,14.8213333 335.770667,14.92 335.936,15.032 C336.101333,15.144 336.237333,15.2746667 336.344,15.424 C336.450667,15.5733333 336.504,15.7493333 336.504,15.952 C336.504,16.2933333 336.376,16.5813333 336.12,16.816 C335.864,17.0506667 335.48,17.168 334.968,17.168 C334.498667,17.168 334.085333,17.0826667 333.728,16.912 C333.370667,16.7413333 333.021333,16.5173333 332.68,16.24 L332.68,16.24 L332.024,17.12 C332.397333,17.4293333 332.834667,17.6853333 333.336,17.888 C333.837333,18.0906667 334.365333,18.192 334.92,18.192 Z M340.984,18.192 C341.165333,18.192 341.314667,18.1813333 341.432,18.16 C341.549333,18.1386667 341.650667,18.1066667 341.736,18.064 L341.736,18.064 L341.56,17.072 C341.485333,17.0933333 341.429333,17.104 341.392,17.104 L341.392,17.104 L341.272,17.104 C341.176,17.104 341.090667,17.0613333 341.016,16.976 C340.941333,16.8906667 340.904,16.7413333 340.904,16.528 L340.904,16.528 L340.904,6.608 L339.592,6.608 L339.592,16.432 C339.592,17.008 339.698667,17.4453333 339.912,17.744 C340.125333,18.0426667 340.482667,18.192 340.984,18.192 Z M345.464,18.192 C345.954667,18.192 346.413333,18.0826667 346.84,17.864 C347.266667,17.6453333 347.666667,17.3813333 348.04,17.072 L348.04,17.072 L348.088,17.072 L348.2,18 L349.288,18 L349.288,13.232 C349.288,12.2613333 349.074667,11.4853333 348.648,10.904 C348.221333,10.3226667 347.533333,10.032 346.584,10.032 C345.954667,10.032 345.378667,10.1413333 344.856,10.36 C344.333333,10.5786667 343.890667,10.8053333 343.528,11.04 L343.528,11.04 L344.04,11.952 C344.349333,11.7386667 344.701333,11.5466667 345.096,11.376 C345.490667,11.2053333 345.912,11.12 346.36,11.12 C346.68,11.12 346.944,11.176 347.152,11.288 C347.36,11.4 347.522667,11.5466667 347.64,11.728 C347.757333,11.9093333 347.84,12.1173333 347.888,12.352 C347.936,12.5866667 347.96,12.8266667 347.96,13.072 C346.296,13.2533333 345.085333,13.5706667 344.328,14.024 C343.570667,14.4773333 343.192,15.1306667 343.192,15.984 C343.192,16.688 343.408,17.232 343.84,17.616 C344.272,18 344.813333,18.192 345.464,18.192 Z M345.848,17.136 C345.464,17.136 345.138667,17.04 344.872,16.848 C344.605333,16.656 344.472,16.336 344.472,15.888 C344.472,15.6426667 344.533333,15.416 344.656,15.208 C344.778667,15 344.976,14.816 345.248,14.656 C345.52,14.496 345.877333,14.3573333 346.32,14.24 C346.762667,14.1226667 347.309333,14.0213333 347.96,13.936 L347.96,13.936 L347.96,16.096 C347.586667,16.4373333 347.234667,16.696 346.904,16.872 C346.573333,17.048 346.221333,17.136 345.848,17.136 Z M353.96,18.192 C354.205333,18.192 354.453333,18.1626667 354.704,18.104 C354.954667,18.0453333 355.186667,17.9786667 355.4,17.904 L355.4,17.904 L355.144,16.912 C355.016,16.9653333 354.872,17.0133333 354.712,17.056 C354.552,17.0986667 354.402667,17.12 354.264,17.12 C353.816,17.12 353.504,16.9893333 353.328,16.728 C353.152,16.4666667 353.064,16.096 353.064,15.616 L353.064,15.616 L353.064,11.296 L355.16,11.296 L355.16,10.224 L353.064,10.224 L353.064,8.048 L351.96,8.048 L351.8,10.224 L350.584,10.304 L350.584,11.296 L351.736,11.296 L351.736,15.6 C351.736,15.984 351.773333,16.336 351.848,16.656 C351.922667,16.976 352.048,17.248 352.224,17.472 C352.4,17.696 352.629333,17.872 352.912,18 C353.194667,18.128 353.544,18.192 353.96,18.192 Z M357.592,8.624 C357.848,8.624 358.064,8.544 358.24,8.384 C358.416,8.224 358.504,8.02133333 358.504,7.776 C358.504,7.52 358.416,7.31466667 358.24,7.16 C358.064,7.00533333 357.848,6.928 357.592,6.928 C357.336,6.928 357.12,7.00533333 356.944,7.16 C356.768,7.31466667 356.68,7.52 356.68,7.776 C356.68,8.02133333 356.768,8.224 356.944,8.384 C357.12,8.544 357.336,8.624 357.592,8.624 Z M358.232,18 L358.232,10.224 L356.92,10.224 L356.92,18 L358.232,18 Z M363.88,18.192 C364.36,18.192 364.816,18.1013333 365.248,17.92 C365.68,17.7386667 366.061333,17.4746667 366.392,17.128 C366.722667,16.7813333 366.986667,16.3546667 367.184,15.848 C367.381333,15.3413333 367.48,14.768 367.48,14.128 C367.48,13.4773333 367.381333,12.8986667 367.184,12.392 C366.986667,11.8853333 366.722667,11.456 366.392,11.104 C366.061333,10.752 365.68,10.4853333 365.248,10.304 C364.816,10.1226667 364.36,10.032 363.88,10.032 C363.4,10.032 362.944,10.1226667 362.512,10.304 C362.08,10.4853333 361.698667,10.752 361.368,11.104 C361.037333,11.456 360.773333,11.8853333 360.576,12.392 C360.378667,12.8986667 360.28,13.4773333 360.28,14.128 C360.28,14.768 360.378667,15.3413333 360.576,15.848 C360.773333,16.3546667 361.037333,16.7813333 361.368,17.128 C361.698667,17.4746667 362.08,17.7386667 362.512,17.92 C362.944,18.1013333 363.4,18.192 363.88,18.192 Z M363.88,17.104 C363.549333,17.104 363.245333,17.032 362.968,16.888 C362.690667,16.744 362.453333,16.5413333 362.256,16.28 C362.058667,16.0186667 361.906667,15.7066667 361.8,15.344 C361.693333,14.9813333 361.64,14.576 361.64,14.128 C361.64,13.68 361.693333,13.272 361.8,12.904 C361.906667,12.536 362.058667,12.2186667 362.256,11.952 C362.453333,11.6853333 362.690667,11.48 362.968,11.336 C363.245333,11.192 363.549333,11.12 363.88,11.12 C364.210667,11.12 364.514667,11.192 364.792,11.336 C365.069333,11.48 365.306667,11.6853333 365.504,11.952 C365.701333,12.2186667 365.853333,12.536 365.96,12.904 C366.066667,13.272 366.12,13.68 366.12,14.128 C366.12,14.576 366.066667,14.9813333 365.96,15.344 C365.853333,15.7066667 365.701333,16.0186667 365.504,16.28 C365.306667,16.5413333 365.069333,16.744 364.792,16.888 C364.514667,17.032 364.210667,17.104 363.88,17.104 Z M370.84,18 L370.84,12.368 C371.234667,11.9733333 371.586667,11.6746667 371.896,11.472 C372.205333,11.2693333 372.562667,11.168 372.968,11.168 C373.48,11.168 373.853333,11.3306667 374.088,11.656 C374.322667,11.9813333 374.44,12.512 374.44,13.248 L374.44,13.248 L374.44,18 L375.752,18 L375.752,13.072 C375.752,12.0693333 375.562667,11.312 375.184,10.8 C374.805333,10.288 374.205333,10.032 373.384,10.032 C372.84,10.032 372.362667,10.1573333 371.952,10.408 C371.541333,10.6586667 371.149333,10.9706667 370.776,11.344 L370.776,11.344 L370.728,11.344 L370.616,10.224 L369.528,10.224 L369.528,18 L370.84,18 Z M384.68,19.76 L384.68,18.144 C385.448,18.0373333 386.053333,17.7386667 386.496,17.248 C386.938667,16.7573333 387.16,16.128 387.16,15.36 C387.16,14.784 387.050667,14.312 386.832,13.944 C386.613333,13.576 386.338667,13.2666667 386.008,13.016 C385.677333,12.7653333 385.317333,12.552 384.928,12.376 C384.538667,12.2 384.178667,12.0186667 383.848,11.832 C383.517333,11.6453333 383.242667,11.4293333 383.024,11.184 C382.805333,10.9386667 382.696,10.624 382.696,10.24 C382.696,9.77066667 382.84,9.39733333 383.128,9.12 C383.416,8.84266667 383.805333,8.704 384.296,8.704 C384.733333,8.704 385.093333,8.784 385.376,8.944 C385.658667,9.104 385.949333,9.328 386.248,9.616 L386.248,9.616 L386.952,8.832 C386.664,8.52266667 386.341333,8.256 385.984,8.032 C385.626667,7.808 385.192,7.66933333 384.68,7.616 L384.68,7.616 L384.68,6.032 L383.72,6.032 L383.72,7.648 C383.016,7.75466667 382.453333,8.04533333 382.032,8.52 C381.610667,8.99466667 381.4,9.58933333 381.4,10.304 C381.4,10.8266667 381.509333,11.256 381.728,11.592 C381.946667,11.928 382.221333,12.2133333 382.552,12.448 C382.882667,12.6826667 383.242667,12.8906667 383.632,13.072 C384.021333,13.2533333 384.381333,13.448 384.712,13.656 C385.042667,13.864 385.317333,14.1093333 385.536,14.392 C385.754667,14.6746667 385.864,15.0293333 385.864,15.456 C385.864,15.9573333 385.717333,16.3573333 385.424,16.656 C385.130667,16.9546667 384.685333,17.104 384.088,17.104 C383.597333,17.104 383.146667,17 382.736,16.792 C382.325333,16.584 381.949333,16.3306667 381.608,16.032 L381.608,16.032 L381,16.944 C381.341333,17.2533333 381.752,17.5226667 382.232,17.752 C382.712,17.9813333 383.208,18.1226667 383.72,18.176 L383.72,18.176 L383.72,19.76 L384.68,19.76 Z M391.896,18.192 C392.365333,18.192 392.802667,18.1253333 393.208,17.992 C393.613333,17.8586667 393.968,17.6666667 394.272,17.416 C394.576,17.1653333 394.816,16.8586667 394.992,16.496 C395.168,16.1333333 395.256,15.728 395.256,15.28 C395.256,14.928 395.2,14.608 395.088,14.32 C394.976,14.032 394.818667,13.7786667 394.616,13.56 C394.413333,13.3413333 394.178667,13.16 393.912,13.016 C393.645333,12.872 393.357333,12.7626667 393.048,12.688 L393.048,12.688 L393.048,12.624 C393.602667,12.4106667 394.050667,12.1066667 394.392,11.712 C394.733333,11.3173333 394.904,10.8106667 394.904,10.192 C394.904,9.776 394.829333,9.408 394.68,9.088 C394.530667,8.768 394.32,8.49866667 394.048,8.28 C393.776,8.06133333 393.453333,7.89333333 393.08,7.776 C392.706667,7.65866667 392.296,7.6 391.848,7.6 C391.24,7.6 390.698667,7.72 390.224,7.96 C389.749333,8.2 389.314667,8.50666667 388.92,8.88 L388.92,8.88 L389.624,9.712 C389.933333,9.40266667 390.266667,9.152 390.624,8.96 C390.981333,8.768 391.373333,8.672 391.8,8.672 C392.344,8.672 392.773333,8.816 393.088,9.104 C393.402667,9.392 393.56,9.78666667 393.56,10.288 C393.56,10.5546667 393.512,10.8053333 393.416,11.04 C393.32,11.2746667 393.157333,11.4773333 392.928,11.648 C392.698667,11.8186667 392.4,11.952 392.032,12.048 C391.664,12.144 391.208,12.192 390.664,12.192 L390.664,12.192 L390.664,13.2 C391.272,13.2 391.784,13.248 392.2,13.344 C392.616,13.44 392.952,13.5786667 393.208,13.76 C393.464,13.9413333 393.648,14.1573333 393.76,14.408 C393.872,14.6586667 393.928,14.9333333 393.928,15.232 C393.928,15.808 393.730667,16.264 393.336,16.6 C392.941333,16.936 392.434667,17.104 391.816,17.104 C391.208,17.104 390.698667,16.9813333 390.288,16.736 C389.877333,16.4906667 389.517333,16.208 389.208,15.888 L389.208,15.888 L388.536,16.752 C388.706667,16.944 388.901333,17.1253333 389.12,17.296 C389.338667,17.4666667 389.586667,17.6186667 389.864,17.752 C390.141333,17.8853333 390.448,17.992 390.784,18.072 C391.12,18.152 391.490667,18.192 391.896,18.192 Z M398.072,18.192 C398.328,18.192 398.549333,18.0986667 398.736,17.912 C398.922667,17.7253333 399.016,17.488 399.016,17.2 C399.016,16.8906667 398.922667,16.6426667 398.736,16.456 C398.549333,16.2693333 398.328,16.176 398.072,16.176 C397.805333,16.176 397.578667,16.2693333 397.392,16.456 C397.205333,16.6426667 397.112,16.8906667 397.112,17.2 C397.112,17.488 397.205333,17.7253333 397.392,17.912 C397.578667,18.0986667 397.805333,18.192 398.072,18.192 Z M406.168,18 L406.168,15.184 L407.56,15.184 L407.56,14.128 L406.168,14.128 L406.168,7.792 L404.696,7.792 L400.328,14.32 L400.328,15.184 L404.92,15.184 L404.92,18 L406.168,18 Z M404.92,14.128 L401.72,14.128 L404.104,10.64 C404.253333,10.3946667 404.397333,10.1546667 404.536,9.92 C404.674667,9.68533333 404.808,9.44533333 404.936,9.2 L404.936,9.2 L405,9.2 C404.978667,9.47733333 404.96,9.80533333 404.944,10.184 C404.928,10.5626667 404.92,10.8906667 404.92,11.168 L404.92,11.168 L404.92,14.128 Z M411.288,18.192 C411.8,18.192 412.288,18.088 412.752,17.88 C413.216,17.672 413.629333,17.3413333 413.992,16.888 C414.354667,16.4346667 414.642667,15.848 414.856,15.128 C415.069333,14.408 415.176,13.536 415.176,12.512 C415.176,11.6906667 415.088,10.9733333 414.912,10.36 C414.736,9.74666667 414.490667,9.23466667 414.176,8.824 C413.861333,8.41333333 413.488,8.10666667 413.056,7.904 C412.624,7.70133333 412.157333,7.6 411.656,7.6 C411.250667,7.6 410.864,7.68 410.496,7.84 C410.128,8 409.808,8.224 409.536,8.512 C409.264,8.8 409.048,9.144 408.888,9.544 C408.728,9.944 408.648,10.3893333 408.648,10.88 C408.648,11.936 408.909333,12.7253333 409.432,13.248 C409.954667,13.7706667 410.658667,14.032 411.544,14.032 C411.970667,14.032 412.397333,13.9146667 412.824,13.68 C413.250667,13.4453333 413.624,13.1253333 413.944,12.72 C413.933333,13.5413333 413.853333,14.2293333 413.704,14.784 C413.554667,15.3386667 413.357333,15.7893333 413.112,16.136 C412.866667,16.4826667 412.584,16.7306667 412.264,16.88 C411.944,17.0293333 411.602667,17.104 411.24,17.104 C410.92,17.104 410.613333,17.0293333 410.32,16.88 C410.026667,16.7306667 409.773333,16.5333333 409.56,16.288 L409.56,16.288 L408.824,17.12 C409.101333,17.4293333 409.445333,17.6853333 409.856,17.888 C410.266667,18.0906667 410.744,18.192 411.288,18.192 Z M411.768,13.04 C411.128,13.04 410.653333,12.848 410.344,12.464 C410.034667,12.08 409.88,11.552 409.88,10.88 C409.88,10.5493333 409.925333,10.2453333 410.016,9.968 C410.106667,9.69066667 410.232,9.45333333 410.392,9.256 C410.552,9.05866667 410.741333,8.90666667 410.96,8.8 C411.178667,8.69333333 411.410667,8.64 411.656,8.64 C412.306667,8.64 412.824,8.896 413.208,9.408 C413.592,9.92 413.826667,10.6773333 413.912,11.68 C413.581333,12.16 413.226667,12.5066667 412.848,12.72 C412.469333,12.9333333 412.109333,13.04 411.768,13.04 Z M420.92,18 L420.92,8.624 L424.088,8.624 L424.088,7.504 L416.408,7.504 L416.408,8.624 L419.576,8.624 L419.576,18 L420.92,18 Z" id="TotalEstimatedValueofLegislation$3.49T" fill="#555555" fill-rule="nonzero"></path>
                <path d="M1,105 L1,41 L613,41 L613,105" id="Path-21" stroke="#D8D8D8" stroke-dasharray="3,3"></path>
                <polyline id="Path-21-Copy" stroke="#979797" stroke-width="0.5" points="0 107 0 99 450 99 450 107"></polyline>
                <line x1="617" y1="126.56981" x2="623" y2="126.43019" id="Line-14-Copy-2" stroke="#979797" stroke-width="0.5" stroke-linecap="square"></line>
                <path d="M628.72,115 L628.72,107.968 L631.096,107.968 L631.096,107.128 L625.336,107.128 L625.336,107.968 L627.712,107.968 L627.712,115 L628.72,115 Z M632.008,115 L632.764,112.6 L635.632,112.6 L636.376,115 L637.444,115 L634.78,107.128 L633.652,107.128 L630.988,115 L632.008,115 Z M635.38,111.796 L633.016,111.796 L633.388,110.596 C633.532,110.156 633.668,109.718 633.796,109.282 C633.924,108.846 634.048,108.4 634.168,107.944 L634.168,107.944 L634.216,107.944 C634.344,108.4 634.472,108.846 634.6,109.282 C634.728,109.718 634.864,110.156 635.008,110.596 L635.008,110.596 L635.38,111.796 Z M638.764,115 L639.904,112.876 C640,112.684 640.1,112.486 640.204,112.282 C640.308,112.078 640.416,111.856 640.528,111.616 L640.528,111.616 L640.576,111.616 C640.704,111.856 640.822,112.078 640.93,112.282 C641.038,112.486 641.144,112.684 641.248,112.876 L641.248,112.876 L642.4,115 L643.504,115 L641.212,110.98 L643.36,107.128 L642.304,107.128 L641.26,109.144 C641.164,109.328 641.074,109.506 640.99,109.678 C640.906,109.85 640.808,110.052 640.696,110.284 L640.696,110.284 L640.648,110.284 C640.528,110.052 640.422,109.85 640.33,109.678 C640.238,109.506 640.14,109.328 640.036,109.144 L640.036,109.144 L638.968,107.128 L637.864,107.128 L640,110.932 L637.708,115 L638.764,115 Z M627.076,130 L627.076,126.676 L628.504,126.676 L630.4,130 L631.528,130 L629.524,126.568 C630.068,126.432 630.5,126.18 630.82,125.812 C631.14,125.444 631.3,124.952 631.3,124.336 C631.3,123.928 631.232,123.584 631.096,123.304 C630.96,123.024 630.77,122.796 630.526,122.62 C630.282,122.444 629.99,122.318 629.65,122.242 C629.31,122.166 628.94,122.128 628.54,122.128 L628.54,122.128 L626.08,122.128 L626.08,130 L627.076,130 Z M628.396,125.86 L627.076,125.86 L627.076,122.932 L628.396,122.932 C629.012,122.932 629.484,123.036 629.812,123.244 C630.14,123.452 630.304,123.816 630.304,124.336 C630.304,124.848 630.14,125.23 629.812,125.482 C629.484,125.734 629.012,125.86 628.396,125.86 L628.396,125.86 Z M637.564,130 L637.564,129.148 L633.904,129.148 L633.904,126.292 L636.892,126.292 L636.892,125.44 L633.904,125.44 L633.904,122.968 L637.444,122.968 L637.444,122.128 L632.908,122.128 L632.908,130 L637.564,130 Z M643.672,130 L643.672,129.148 L640.228,129.148 L640.228,122.128 L639.232,122.128 L639.232,130 L643.672,130 Z M646.06,130 L646.06,122.128 L645.064,122.128 L645.064,130 L646.06,130 Z M652.876,130 L652.876,129.148 L649.216,129.148 L649.216,126.292 L652.204,126.292 L652.204,125.44 L649.216,125.44 L649.216,122.968 L652.756,122.968 L652.756,122.128 L648.22,122.128 L648.22,130 L652.876,130 Z M655.54,130 L655.54,126.472 L658.54,126.472 L658.54,125.632 L655.54,125.632 L655.54,122.968 L659.08,122.968 L659.08,122.128 L654.544,122.128 L654.544,130 L655.54,130 Z M628.744,146.32 L628.744,145.072 C629.368,144.936 629.836,144.662 630.148,144.25 C630.46,143.838 630.616,143.344 630.616,142.768 C630.616,142.384 630.538,142.062 630.382,141.802 C630.226,141.542 630.03,141.32 629.794,141.136 C629.558,140.952 629.304,140.796 629.032,140.668 C628.76,140.54 628.506,140.416 628.27,140.296 C628.034,140.176 627.838,140.05 627.682,139.918 C627.526,139.786 627.448,139.624 627.448,139.432 C627.448,139.16 627.524,138.964 627.676,138.844 C627.828,138.724 628.048,138.664 628.336,138.664 C628.592,138.664 628.82,138.714 629.02,138.814 C629.22,138.914 629.428,139.064 629.644,139.264 L629.644,139.264 L630.532,138.256 C630.3,138.008 630.04,137.796 629.752,137.62 C629.464,137.444 629.128,137.328 628.744,137.272 L628.744,137.272 L628.744,136.06 L627.58,136.06 L627.58,137.296 C627.012,137.408 626.566,137.658 626.242,138.046 C625.918,138.434 625.756,138.924 625.756,139.516 C625.756,139.876 625.834,140.18 625.99,140.428 C626.146,140.676 626.342,140.892 626.578,141.076 C626.814,141.26 627.068,141.418 627.34,141.55 C627.612,141.682 627.866,141.814 628.102,141.946 C628.338,142.078 628.534,142.216 628.69,142.36 C628.846,142.504 628.924,142.68 628.924,142.888 C628.924,143.168 628.846,143.376 628.69,143.512 C628.534,143.648 628.288,143.716 627.952,143.716 C627.664,143.716 627.382,143.658 627.106,143.542 C626.83,143.426 626.54,143.252 626.236,143.02 L626.236,143.02 L625.468,144.208 C625.748,144.464 626.082,144.67 626.47,144.826 C626.858,144.982 627.228,145.08 627.58,145.12 L627.58,145.12 L627.58,146.32 L628.744,146.32 Z M634.084,145.144 C634.484,145.144 634.87,145.062 635.242,144.898 C635.614,144.734 635.942,144.484 636.226,144.148 C636.51,143.812 636.738,143.384 636.91,142.864 C637.082,142.344 637.168,141.728 637.168,141.016 C637.168,140.344 637.086,139.77 636.922,139.294 C636.758,138.818 636.542,138.428 636.274,138.124 C636.006,137.82 635.698,137.596 635.35,137.452 C635.002,137.308 634.644,137.236 634.276,137.236 C633.932,137.236 633.606,137.294 633.298,137.41 C632.99,137.526 632.722,137.696 632.494,137.92 C632.266,138.144 632.084,138.414 631.948,138.73 C631.812,139.046 631.744,139.4 631.744,139.792 C631.744,140.192 631.802,140.54 631.918,140.836 C632.034,141.132 632.192,141.376 632.392,141.568 C632.592,141.76 632.83,141.904 633.106,142 C633.382,142.096 633.684,142.144 634.012,142.144 C634.132,142.144 634.26,142.126 634.396,142.09 C634.532,142.054 634.668,142.002 634.804,141.934 C634.94,141.866 635.072,141.782 635.2,141.682 C635.328,141.582 635.44,141.468 635.536,141.34 C635.52,141.788 635.47,142.162 635.386,142.462 C635.302,142.762 635.19,143.006 635.05,143.194 C634.91,143.382 634.748,143.516 634.564,143.596 C634.38,143.676 634.18,143.716 633.964,143.716 C633.74,143.716 633.52,143.662 633.304,143.554 C633.088,143.446 632.916,143.32 632.788,143.176 L632.788,143.176 L631.852,144.232 C632.092,144.472 632.398,144.684 632.77,144.868 C633.142,145.052 633.58,145.144 634.084,145.144 Z M634.36,140.896 C634.072,140.896 633.832,140.814 633.64,140.65 C633.448,140.486 633.352,140.2 633.352,139.792 C633.352,139.36 633.448,139.046 633.64,138.85 C633.832,138.654 634.056,138.556 634.312,138.556 C634.584,138.556 634.83,138.67 635.05,138.898 C635.27,139.126 635.42,139.54 635.5,140.14 C635.348,140.412 635.17,140.606 634.966,140.722 C634.762,140.838 634.56,140.896 634.36,140.896 Z M640.84,145.144 C641.248,145.144 641.62,145.058 641.956,144.886 C642.292,144.714 642.578,144.46 642.814,144.124 C643.05,143.788 643.234,143.372 643.366,142.876 C643.498,142.38 643.564,141.808 643.564,141.16 C643.564,140.512 643.498,139.944 643.366,139.456 C643.234,138.968 643.05,138.558 642.814,138.226 C642.578,137.894 642.292,137.646 641.956,137.482 C641.62,137.318 641.248,137.236 640.84,137.236 C640.432,137.236 640.06,137.318 639.724,137.482 C639.388,137.646 639.102,137.894 638.866,138.226 C638.63,138.558 638.446,138.968 638.314,139.456 C638.182,139.944 638.116,140.512 638.116,141.16 C638.116,141.808 638.182,142.38 638.314,142.876 C638.446,143.372 638.63,143.788 638.866,144.124 C639.102,144.46 639.388,144.714 639.724,144.886 C640.06,145.058 640.432,145.144 640.84,145.144 Z M640.84,143.776 C640.696,143.776 640.56,143.738 640.432,143.662 C640.304,143.586 640.192,143.448 640.096,143.248 C640,143.048 639.924,142.78 639.868,142.444 C639.812,142.108 639.784,141.68 639.784,141.16 C639.784,140.64 639.812,140.214 639.868,139.882 C639.924,139.55 640,139.29 640.096,139.102 C640.192,138.914 640.304,138.784 640.432,138.712 C640.56,138.64 640.696,138.604 640.84,138.604 C640.992,138.604 641.132,138.64 641.26,138.712 C641.388,138.784 641.5,138.914 641.596,139.102 C641.692,139.29 641.766,139.55 641.818,139.882 C641.87,140.214 641.896,140.64 641.896,141.16 C641.896,141.68 641.87,142.108 641.818,142.444 C641.766,142.78 641.692,143.048 641.596,143.248 C641.5,143.448 641.388,143.586 641.26,143.662 C641.132,143.738 640.992,143.776 640.84,143.776 Z M649.816,145 L649.816,143.512 L648.28,143.512 C648.096,143.512 647.886,143.522 647.65,143.542 C647.414,143.562 647.2,143.584 647.008,143.608 C647.32,143.288 647.622,142.962 647.914,142.63 C648.206,142.298 648.466,141.966 648.694,141.634 C648.922,141.302 649.104,140.97 649.24,140.638 C649.376,140.306 649.444,139.98 649.444,139.66 C649.444,139.292 649.384,138.96 649.264,138.664 C649.144,138.368 648.972,138.114 648.748,137.902 C648.524,137.69 648.258,137.526 647.95,137.41 C647.642,137.294 647.3,137.236 646.924,137.236 C646.38,137.236 645.912,137.338 645.52,137.542 C645.128,137.746 644.744,138.048 644.368,138.448 L644.368,138.448 L645.328,139.396 C645.52,139.188 645.724,139.006 645.94,138.85 C646.156,138.694 646.404,138.616 646.684,138.616 C647.02,138.616 647.284,138.714 647.476,138.91 C647.668,139.106 647.764,139.392 647.764,139.768 C647.764,140.04 647.682,140.326 647.518,140.626 C647.354,140.926 647.126,141.25 646.834,141.598 C646.542,141.946 646.194,142.318 645.79,142.714 C645.386,143.11 644.94,143.536 644.452,143.992 L644.452,143.992 L644.452,145 L649.816,145 Z M654.172,145 C654.596,145 654.992,144.954 655.36,144.862 C655.728,144.77 656.05,144.63 656.326,144.442 C656.602,144.254 656.818,144.016 656.974,143.728 C657.13,143.44 657.208,143.096 657.208,142.696 C657.208,142.432 657.172,142.198 657.1,141.994 C657.028,141.79 656.928,141.612 656.8,141.46 C656.672,141.308 656.524,141.182 656.356,141.082 C656.188,140.982 656.004,140.908 655.804,140.86 L655.804,140.86 L655.804,140.812 C655.964,140.756 656.106,140.668 656.23,140.548 C656.354,140.428 656.46,140.292 656.548,140.14 C656.636,139.988 656.704,139.824 656.752,139.648 C656.8,139.472 656.824,139.296 656.824,139.12 C656.824,138.744 656.75,138.432 656.602,138.184 C656.454,137.936 656.25,137.736 655.99,137.584 C655.73,137.432 655.426,137.326 655.078,137.266 C654.73,137.206 654.352,137.176 653.944,137.176 L653.944,137.176 L651.268,137.176 L651.268,145 L654.172,145 Z M653.86,140.308 L653.032,140.308 L653.032,138.544 L653.872,138.544 C654.288,138.544 654.596,138.608 654.796,138.736 C654.996,138.864 655.096,139.08 655.096,139.384 C655.096,139.664 654.998,139.888 654.802,140.056 C654.606,140.224 654.292,140.308 653.86,140.308 L653.86,140.308 Z M654.028,143.632 L653.032,143.632 L653.032,141.616 L654.028,141.616 C654.516,141.616 654.88,141.69 655.12,141.838 C655.36,141.986 655.48,142.232 655.48,142.576 C655.48,143.28 654.996,143.632 654.028,143.632 L654.028,143.632 Z" id="TAXRELIEF$902B" fill="#666666" fill-rule="nonzero"></path>
                <line x1="307.5" y1="39.5" x2="307.5" y2="27.5" id="Line-14" stroke="#D8D8D8" stroke-linecap="round" stroke-linejoin="round" stroke-dasharray="3,3"></line>
                <line x1="225.5" y1="99" x2="225.5" y2="91" id="Line-14-Copy" stroke="#979797" stroke-width="0.5" stroke-linecap="square"></line>
            </g>
        </g>
    </g>
</svg>