<?xml version="1.0" encoding="UTF-8"?>
<svg width="352px" height="367px" viewBox="0 0 352 367" version="1.1" xmlns="http://www.w3.org/2000/svg" xmlns:xlink="http://www.w3.org/1999/xlink" role="img">
    <title>Viz2-Mobile-C-outline</title>
    <g id="Viz2-Mobile-C-outline" stroke="none" stroke-width="1" fill="none" fill-rule="evenodd">
        <g id="vIZ-2-C-Copy" transform="translate(28.000000, 10.000000)">
            <g id="Group-26">
                <g id="Group-3-Copy-3" transform="translate(77.000000, 35.000000)">
                    <g id="Group" transform="translate(119.643983, 80.622418) rotate(90.000000) translate(-119.643983, -80.622418) translate(84.143983, 51.622418)">
                        <g id="Group-5-Copy" transform="translate(35.550513, 29.325188) scale(-1, -1) rotate(90.000000) translate(-35.550513, -29.325188) translate(7.050513, -5.674812)" stroke="#6F41A7" stroke-linecap="round" stroke-linejoin="round" stroke-width="2.93607">
                            <path d="M1.23659011,30.7388431 C3.64432807,30.7535005 6.05247892,30.7316176 8.46021689,30.7466879 C10.6152693,30.7599002 10.9317456,31.0666737 10.9331907,33.2192488 C10.9410355,45.2552549 10.9583766,57.2916738 10.9278232,69.3274735" id="Stroke-1"></path>
                            <path d="M28.4807759,0.412286161 C30.1403665,1.18789034 31.1614307,2.69058473 32.3852214,3.93667119 C39.8493536,11.5374683 47.2616688,19.1892566 54.6931831,26.8220523 C55.5094564,27.660415 56.4578529,28.409801 56.5497198,29.7116269" id="Stroke-13"></path>
                            <path d="M27.6953657,0.658551326 C18.9015378,9.47426207 10.1826486,18.3649114 1.4406378,27.2322328 C0.741623756,27.941156 0.0966976304,28.6622594 -0.000949635141,29.7116062" id="Stroke-15"></path>
                            <path d="M56.3441031,30.7409075 C53.454735,30.7464815 50.5651604,30.7640291 47.6759987,30.7345078 C46.2348242,30.7198504 45.568428,31.3658087 45.6060005,32.8067768 C45.6439859,34.2531124 45.5459258,35.7048155 45.8182234,37.1393839" id="Stroke-23"></path>
                        </g>
                        <polyline id="Path-16-Copy" fill-opacity="0.299278846" fill="#6F41A7" transform="translate(39.820916, 30.192503) scale(-1, -1) translate(-39.820916, -30.192503) " points="9.35872312 17.9780161 51.9217968 17.9780161 51.9217968 11.5820856 70.2831093 29.9433982 51.4235875 48.80292 51.4235875 41.5472769 35.8924029 41.5472769"></polyline>
                    </g>
                    <g id="Group-2" transform="translate(29.926214, 36.050513) rotate(90.000000) translate(-29.926214, -36.050513) translate(-5.573786, 7.050513)">
                        <g id="Group-5-Copy" transform="translate(35.959355, 29.050513) rotate(90.000000) translate(-35.959355, -29.050513) translate(7.459355, -5.949487)" stroke="#6F41A7" stroke-linecap="round" stroke-linejoin="round">
                            <path d="M0.41082042,30.7388431 C2.81855839,30.7535005 5.22670924,30.7316176 7.6344472,30.7466879 C9.78949965,30.7599002 10.1059759,31.0666737 10.107421,33.2192488 C10.1152658,45.2552549 10.132607,57.2916738 10.1020535,69.3274735" id="Stroke-1" stroke-width="3.30307875"></path>
                            <path d="M28.4807759,0.412286161 C30.1403665,1.18789034 31.1614307,2.69058473 32.3852214,3.93667119 C39.8493536,11.5374683 47.2616688,19.1892566 54.6931831,26.8220523 C55.5094564,27.660415 56.4578529,28.409801 56.5497198,29.7116269" id="Stroke-13" stroke-width="3.30307875"></path>
                            <path d="M27.6953657,0.658551326 C18.9015378,9.47426207 10.1826486,18.3649114 1.4406378,27.2322328 C0.741623756,27.941156 0.0966976304,28.6622594 -0.000949635141,29.7116062" id="Stroke-15" stroke-width="3.30307875"></path>
                            <path d="M55.5183334,30.7409075 C52.6289653,30.7464815 49.7393907,30.7640291 46.850229,30.7345078 C45.4090545,30.7198504 44.7426583,31.3658087 44.7802309,32.8067768 C44.8182163,34.2531124 44.7201561,35.7048155 44.9924537,37.1393839" id="Stroke-23" stroke-width="2.93607"></path>
                        </g>
                        <polyline id="Path-16" fill-opacity="0.299278846" fill="#6F41A7" points="1.63188125 17.0659069 44.1949549 17.0659069 44.1949549 10.6699764 62.5562675 29.031289 43.6967456 47.8908108 43.6967456 40.6351677 28.165561 40.6351677"></polyline>
                    </g>
                    <g id="Group-7-Copy-2" transform="translate(63.293139, 36.864721)" stroke="#FFFFFF" stroke-linecap="round" stroke-linejoin="round">
                        <path d="M19.6071443,15.7501667 C20.051546,10.8905121 16.3069557,7.7875449 11.7598549,7.11426735 C7.85231277,6.53567806 4.41270677,7.58536896 1.86107843,10.8006409 C0.171416024,12.9296127 0.184353083,16.0844658 1.85805061,18.2258243 C3.74534723,20.6406501 6.22100475,21.8154451 9.28681235,21.9594043 C12.7945444,22.1241453 16.0655557,23.0245095 18.0695611,26.2194125 C19.7828956,28.9510586 19.2904616,31.6970181 17.3951825,33.8983824 C15.7451571,35.814581 13.5594823,36.7870624 11.0757047,37.0639705 C7.35864013,37.4783693 4.09808852,36.5652056 1.58375745,33.6313836 C0.602054916,32.486041 0.0566340377,31.1689383 0.069020583,29.6431912" id="Stroke-1" stroke-width="9.90923625"></path>
                        <path d="M9.83808243,0.0687453265 C10.0662566,2.28896476 9.95364207,4.51592798 9.97832471,6.74027626" id="Stroke-3" stroke-width="12.1112887"></path>
                        <path d="M9.97748291,37.4838744 C9.9459784,39.2266613 10.0750632,40.9735771 9.83808243,42.7109965" id="Stroke-5" stroke-width="12.1112887"></path>
                    </g>
                </g>
                <g id="Group-10-Copy-5" transform="translate(86.000000, 165.000000)">
                    <rect id="Rectangle" stroke="#6F41A7" stroke-width="2.93607" x="8.80821" y="1.468035" width="110.102625" height="57.253365" rx="4.404105"></rect>
                    <circle id="Oval" stroke="#6F41A7" stroke-width="2.93607" cx="63.8595225" cy="31.5627525" r="12.4782975"></circle>
                    <path d="M11.74428,45.5404441 C19.0538709,45.1151345 21.7299764,49.0160361 19.7725964,57.2431489" id="Path-15" stroke="#6F41A7" stroke-width="2.93607"></path>
                    <path d="M11.74428,2.96742913 C19.0538709,2.54211951 21.7299764,6.4430211 19.7725964,14.6701339" id="Path-15-Copy-2" stroke="#6F41A7" stroke-width="2.93607" transform="translate(16.068518, 8.803102) scale(1, -1) translate(-16.068518, -8.803102) "></path>
                    <path d="M107.166555,45.5404441 C114.476146,45.1151345 117.152251,49.0160361 115.194871,57.2431489" id="Path-15-Copy" stroke="#6F41A7" stroke-width="2.93607" transform="translate(111.490793, 51.376117) scale(-1, 1) translate(-111.490793, -51.376117) "></path>
                    <path d="M107.166555,2.96742913 C114.476146,2.54211951 117.152251,6.4430211 115.194871,14.6701339" id="Path-15-Copy-3" stroke="#6F41A7" stroke-width="2.93607" transform="translate(111.490793, 8.803102) scale(-1, -1) translate(-111.490793, -8.803102) "></path>
                    <line x1="8.80821" y1="80.741925" x2="117.4428" y2="80.741925" id="Line-11-Copy" stroke="#6F41A7" stroke-width="2.93607" stroke-linecap="round" stroke-linejoin="round"></line>
                    <line x1="9.5422275" y1="71.1996975" x2="118.176818" y2="71.1996975" id="Line-11" stroke="#6F41A7" stroke-width="2.93607" stroke-linecap="round" stroke-linejoin="round"></line>
                    <rect id="Rectangle" fill-opacity="0.261882649" fill="#6F41A7" x="0" y="17.61642" width="111.57066" height="68.997645"></rect>
                </g>
                <circle id="Oval-Copy-6" stroke="#6F41A7" stroke-width="1.95738" cx="148" cy="148" r="147.02131"></circle>
            </g>
        </g>
    </g>
</svg>