<?xml version="1.0" encoding="UTF-8"?>
<svg width="344px" height="146px" viewBox="0 0 344 146" version="1.1" xmlns="http://www.w3.org/2000/svg" xmlns:xlink="http://www.w3.org/1999/xlink">
    <title>Viz-1-B-Mobile</title>
    <defs>
        <rect id="path-1" x="220" y="77" width="75" height="40"></rect>
        <mask id="mask-2" maskContentUnits="userSpaceOnUse" maskUnits="objectBoundingBox" x="0" y="0" width="75" height="40" fill="white">
            <use xlink:href="#path-1"></use>
        </mask>
    </defs>
    <g id="SVG" stroke="none" stroke-width="1" fill="none" fill-rule="evenodd">
        <g id="Viz-1---Mobile-Outline" transform="translate(-15.000000, -427.000000)">
            <g id="Viz-1-B-Mobile" transform="translate(16.000000, 427.000000)">
                <g id="Group-2" transform="translate(0.000000, 28.000000)">
                    <path d="M53.61,39 L53.61,34.884 C53.61,34.468 53.596,34.054 53.568,33.642 C53.54,33.23 53.51,32.824 53.478,32.424 L53.478,32.424 L53.526,32.424 L54.378,34.044 L57.234,39 L58.266,39 L58.266,31.128 L57.318,31.128 L57.318,35.196 C57.318,35.612 57.332,36.034 57.36,36.462 C57.388,36.89 57.414,37.304 57.438,37.704 L57.438,37.704 L57.39,37.704 L56.538,36.072 L53.694,31.128 L52.662,31.128 L52.662,39 L53.61,39 Z M65.082,39 L65.082,38.148 L61.422,38.148 L61.422,35.292 L64.41,35.292 L64.41,34.44 L61.422,34.44 L61.422,31.968 L64.962,31.968 L64.962,31.128 L60.426,31.128 L60.426,39 L65.082,39 Z M68.802,39 L69.966,34.26 C70.03,33.956 70.096,33.658 70.164,33.366 C70.232,33.074 70.298,32.776 70.362,32.472 L70.362,32.472 L70.41,32.472 C70.474,32.776 70.536,33.074 70.596,33.366 C70.656,33.658 70.722,33.956 70.794,34.26 L70.794,34.26 L71.982,39 L73.182,39 L74.814,31.128 L73.854,31.128 L73.026,35.412 C72.946,35.836 72.87,36.258 72.798,36.678 C72.726,37.098 72.654,37.524 72.582,37.956 L72.582,37.956 L72.534,37.956 C72.438,37.524 72.342,37.096 72.246,36.672 C72.15,36.248 72.054,35.828 71.958,35.412 L71.958,35.412 L70.866,31.128 L69.954,31.128 L68.862,35.412 C68.774,35.836 68.682,36.258 68.586,36.678 C68.49,37.098 68.398,37.524 68.31,37.956 L68.31,37.956 L68.262,37.956 C68.19,37.524 68.114,37.1 68.034,36.684 L67.917,36.054 L67.917,36.054 L67.806,35.412 L66.978,31.128 L65.946,31.128 L67.614,39 L68.802,39 Z M78.558,39 L79.314,36.6 L82.182,36.6 L82.926,39 L83.994,39 L81.33,31.128 L80.202,31.128 L77.538,39 L78.558,39 Z M81.93,35.796 L79.566,35.796 L79.938,34.596 C80.082,34.156 80.218,33.718 80.346,33.282 C80.474,32.846 80.598,32.4 80.718,31.944 L80.718,31.944 L80.766,31.944 C80.894,32.4 81.022,32.846 81.15,33.282 C81.278,33.718 81.414,34.156 81.558,34.596 L81.558,34.596 L81.93,35.796 Z M88.086,39.144 C88.614,39.144 89.086,39.058 89.502,38.886 C89.918,38.714 90.254,38.496 90.51,38.232 L90.51,38.232 L90.51,34.92 L87.93,34.92 L87.93,35.748 L89.598,35.748 L89.598,37.8 C89.438,37.944 89.232,38.058 88.98,38.142 C88.728,38.226 88.462,38.268 88.182,38.268 C87.758,38.268 87.384,38.192 87.06,38.04 C86.736,37.888 86.464,37.672 86.244,37.392 C86.024,37.112 85.856,36.774 85.74,36.378 C85.624,35.982 85.566,35.536 85.566,35.04 C85.566,34.552 85.628,34.112 85.752,33.72 C85.876,33.328 86.05,32.994 86.274,32.718 C86.498,32.442 86.77,32.23 87.09,32.082 C87.41,31.934 87.77,31.86 88.17,31.86 C88.57,31.86 88.902,31.932 89.166,32.076 C89.43,32.22 89.662,32.396 89.862,32.604 L89.862,32.604 L90.414,31.956 C90.302,31.836 90.172,31.718 90.024,31.602 C89.876,31.486 89.708,31.382 89.52,31.29 C89.332,31.198 89.124,31.124 88.896,31.068 C88.668,31.012 88.418,30.984 88.146,30.984 C87.626,30.984 87.144,31.078 86.7,31.266 C86.256,31.454 85.874,31.724 85.554,32.076 C85.234,32.428 84.984,32.856 84.804,33.36 C84.624,33.864 84.534,34.432 84.534,35.064 C84.534,35.704 84.622,36.278 84.798,36.786 C84.974,37.294 85.218,37.722 85.53,38.07 C85.842,38.418 86.216,38.684 86.652,38.868 C87.088,39.052 87.566,39.144 88.086,39.144 Z M97.05,39 L97.05,38.148 L93.39,38.148 L93.39,35.292 L96.378,35.292 L96.378,34.44 L93.39,34.44 L93.39,31.968 L96.93,31.968 L96.93,31.128 L92.394,31.128 L92.394,39 L97.05,39 Z M99.666,39 L99.666,34.884 C99.666,34.468 99.652,34.054 99.624,33.642 C99.596,33.23 99.566,32.824 99.534,32.424 L99.534,32.424 L99.582,32.424 L100.434,34.044 L103.29,39 L104.322,39 L104.322,31.128 L103.374,31.128 L103.374,35.196 C103.374,35.612 103.388,36.034 103.416,36.462 C103.444,36.89 103.47,37.304 103.494,37.704 L103.494,37.704 L103.446,37.704 L102.594,36.072 L99.75,31.128 L98.718,31.128 L98.718,39 L99.666,39 Z M109.458,39.144 C109.97,39.144 110.422,39.044 110.814,38.844 C111.206,38.644 111.558,38.364 111.87,38.004 L111.87,38.004 L111.318,37.38 C111.062,37.66 110.79,37.878 110.502,38.034 C110.214,38.19 109.878,38.268 109.494,38.268 C109.118,38.268 108.78,38.192 108.48,38.04 C108.18,37.888 107.926,37.672 107.718,37.392 C107.51,37.112 107.348,36.774 107.232,36.378 C107.116,35.982 107.058,35.536 107.058,35.04 C107.058,34.552 107.116,34.112 107.232,33.72 C107.348,33.328 107.514,32.994 107.73,32.718 C107.946,32.442 108.206,32.23 108.51,32.082 C108.814,31.934 109.154,31.86 109.53,31.86 C109.866,31.86 110.166,31.928 110.43,32.064 C110.694,32.2 110.93,32.38 111.138,32.604 L111.138,32.604 L111.678,31.956 C111.446,31.7 111.148,31.474 110.784,31.278 C110.42,31.082 109.998,30.984 109.518,30.984 C109.014,30.984 108.55,31.078 108.126,31.266 C107.702,31.454 107.334,31.724 107.022,32.076 C106.71,32.428 106.466,32.856 106.29,33.36 C106.114,33.864 106.026,34.432 106.026,35.064 C106.026,35.704 106.112,36.278 106.284,36.786 C106.456,37.294 106.696,37.722 107.004,38.07 C107.312,38.418 107.674,38.684 108.09,38.868 C108.506,39.052 108.962,39.144 109.458,39.144 Z M115.53,39 L115.53,35.952 L117.894,31.128 L116.85,31.128 L115.842,33.348 C115.722,33.636 115.594,33.92 115.458,34.2 C115.322,34.48 115.186,34.768 115.05,35.064 L115.05,35.064 L115.002,35.064 C114.866,34.768 114.738,34.48 114.618,34.2 C114.498,33.92 114.374,33.636 114.246,33.348 L114.246,33.348 L113.226,31.128 L112.158,31.128 L114.522,35.952 L114.522,39 L115.53,39 Z M122.358,39 L122.358,35.472 L125.358,35.472 L125.358,34.632 L122.358,34.632 L122.358,31.968 L125.898,31.968 L125.898,31.128 L121.362,31.128 L121.362,39 L122.358,39 Z M130.086,39.144 C130.486,39.144 130.858,39.086 131.202,38.97 C131.546,38.854 131.844,38.662 132.096,38.394 C132.348,38.126 132.546,37.776 132.69,37.344 C132.834,36.912 132.906,36.38 132.906,35.748 L132.906,35.748 L132.906,31.128 L131.946,31.128 L131.946,35.772 C131.946,36.244 131.898,36.64 131.802,36.96 C131.706,37.28 131.574,37.536 131.406,37.728 C131.238,37.92 131.042,38.058 130.818,38.142 C130.594,38.226 130.35,38.268 130.086,38.268 C129.83,38.268 129.59,38.226 129.366,38.142 C129.142,38.058 128.948,37.92 128.784,37.728 C128.62,37.536 128.49,37.28 128.394,36.96 C128.298,36.64 128.25,36.244 128.25,35.772 L128.25,35.772 L128.25,31.128 L127.254,31.128 L127.254,35.748 C127.254,36.38 127.326,36.912 127.47,37.344 C127.614,37.776 127.812,38.126 128.064,38.394 C128.316,38.662 128.616,38.854 128.964,38.97 C129.312,39.086 129.686,39.144 130.086,39.144 Z M135.978,39 L135.978,34.884 C135.978,34.468 135.964,34.054 135.936,33.642 C135.908,33.23 135.878,32.824 135.846,32.424 L135.846,32.424 L135.894,32.424 L136.746,34.044 L139.602,39 L140.634,39 L140.634,31.128 L139.686,31.128 L139.686,35.196 C139.686,35.612 139.7,36.034 139.728,36.462 C139.756,36.89 139.782,37.304 139.806,37.704 L139.806,37.704 L139.758,37.704 L138.906,36.072 L136.062,31.128 L135.03,31.128 L135.03,39 L135.978,39 Z M144.81,39 C145.402,39 145.926,38.91 146.382,38.73 C146.838,38.55 147.222,38.29 147.534,37.95 C147.846,37.61 148.082,37.194 148.242,36.702 C148.402,36.21 148.482,35.652 148.482,35.028 C148.482,33.772 148.166,32.808 147.534,32.136 C146.902,31.464 145.978,31.128 144.762,31.128 L144.762,31.128 L142.794,31.128 L142.794,39 L144.81,39 Z M144.69,38.184 L143.79,38.184 L143.79,31.944 L144.69,31.944 C145.61,31.944 146.3,32.208 146.76,32.736 C147.22,33.264 147.45,34.028 147.45,35.028 C147.45,36.028 147.22,36.804 146.76,37.356 C146.3,37.908 145.61,38.184 144.69,38.184 L144.69,38.184 Z M151.17,39 L151.17,31.128 L150.174,31.128 L150.174,39 L151.17,39 Z M154.278,39 L154.278,34.884 C154.278,34.468 154.264,34.054 154.236,33.642 C154.208,33.23 154.178,32.824 154.146,32.424 L154.146,32.424 L154.194,32.424 L155.046,34.044 L157.902,39 L158.934,39 L158.934,31.128 L157.986,31.128 L157.986,35.196 C157.986,35.612 158,36.034 158.028,36.462 C158.056,36.89 158.082,37.304 158.106,37.704 L158.106,37.704 L158.058,37.704 L157.206,36.072 L154.362,31.128 L153.33,31.128 L153.33,39 L154.278,39 Z M164.19,39.144 C164.718,39.144 165.19,39.058 165.606,38.886 C166.022,38.714 166.358,38.496 166.614,38.232 L166.614,38.232 L166.614,34.92 L164.034,34.92 L164.034,35.748 L165.702,35.748 L165.702,37.8 C165.542,37.944 165.336,38.058 165.084,38.142 C164.832,38.226 164.566,38.268 164.286,38.268 C163.862,38.268 163.488,38.192 163.164,38.04 C162.84,37.888 162.568,37.672 162.348,37.392 C162.128,37.112 161.96,36.774 161.844,36.378 C161.728,35.982 161.67,35.536 161.67,35.04 C161.67,34.552 161.732,34.112 161.856,33.72 C161.98,33.328 162.154,32.994 162.378,32.718 C162.602,32.442 162.874,32.23 163.194,32.082 C163.514,31.934 163.874,31.86 164.274,31.86 C164.674,31.86 165.006,31.932 165.27,32.076 C165.534,32.22 165.766,32.396 165.966,32.604 L165.966,32.604 L166.518,31.956 C166.406,31.836 166.276,31.718 166.128,31.602 C165.98,31.486 165.812,31.382 165.624,31.29 C165.436,31.198 165.228,31.124 165,31.068 C164.772,31.012 164.522,30.984 164.25,30.984 C163.73,30.984 163.248,31.078 162.804,31.266 C162.36,31.454 161.978,31.724 161.658,32.076 C161.338,32.428 161.088,32.856 160.908,33.36 C160.728,33.864 160.638,34.432 160.638,35.064 C160.638,35.704 160.726,36.278 160.902,36.786 C161.078,37.294 161.322,37.722 161.634,38.07 C161.946,38.418 162.32,38.684 162.756,38.868 C163.192,39.052 163.67,39.144 164.19,39.144 Z M95.436,55.32 L95.436,54.072 C96.06,53.936 96.528,53.662 96.84,53.25 C97.152,52.838 97.308,52.344 97.308,51.768 C97.308,51.384 97.23,51.062 97.074,50.802 C96.918,50.542 96.722,50.32 96.486,50.136 C96.25,49.952 95.996,49.796 95.724,49.668 C95.452,49.54 95.198,49.416 94.962,49.296 C94.726,49.176 94.53,49.05 94.374,48.918 C94.218,48.786 94.14,48.624 94.14,48.432 C94.14,48.16 94.216,47.964 94.368,47.844 C94.52,47.724 94.74,47.664 95.028,47.664 C95.284,47.664 95.512,47.714 95.712,47.814 C95.912,47.914 96.12,48.064 96.336,48.264 L96.336,48.264 L97.224,47.256 C96.992,47.008 96.732,46.796 96.444,46.62 C96.156,46.444 95.82,46.328 95.436,46.272 L95.436,46.272 L95.436,45.06 L94.272,45.06 L94.272,46.296 C93.704,46.408 93.258,46.658 92.934,47.046 C92.61,47.434 92.448,47.924 92.448,48.516 C92.448,48.876 92.526,49.18 92.682,49.428 C92.838,49.676 93.034,49.892 93.27,50.076 C93.506,50.26 93.76,50.418 94.032,50.55 C94.304,50.682 94.558,50.814 94.794,50.946 C95.03,51.078 95.226,51.216 95.382,51.36 C95.538,51.504 95.616,51.68 95.616,51.888 C95.616,52.168 95.538,52.376 95.382,52.512 C95.226,52.648 94.98,52.716 94.644,52.716 C94.356,52.716 94.074,52.658 93.798,52.542 C93.522,52.426 93.232,52.252 92.928,52.02 L92.928,52.02 L92.16,53.208 C92.44,53.464 92.774,53.67 93.162,53.826 C93.55,53.982 93.92,54.08 94.272,54.12 L94.272,54.12 L94.272,55.32 L95.436,55.32 Z M103.836,54 L103.836,52.512 L102.3,52.512 C102.116,52.512 101.906,52.522 101.67,52.542 C101.434,52.562 101.22,52.584 101.028,52.608 C101.34,52.288 101.642,51.962 101.934,51.63 C102.226,51.298 102.486,50.966 102.714,50.634 C102.942,50.302 103.124,49.97 103.26,49.638 C103.396,49.306 103.464,48.98 103.464,48.66 C103.464,48.292 103.404,47.96 103.284,47.664 C103.164,47.368 102.992,47.114 102.768,46.902 C102.544,46.69 102.278,46.526 101.97,46.41 C101.662,46.294 101.32,46.236 100.944,46.236 C100.4,46.236 99.932,46.338 99.54,46.542 C99.148,46.746 98.764,47.048 98.388,47.448 L98.388,47.448 L99.348,48.396 C99.54,48.188 99.744,48.006 99.96,47.85 C100.176,47.694 100.424,47.616 100.704,47.616 C101.04,47.616 101.304,47.714 101.496,47.91 C101.688,48.106 101.784,48.392 101.784,48.768 C101.784,49.04 101.702,49.326 101.538,49.626 C101.374,49.926 101.146,50.25 100.854,50.598 C100.562,50.946 100.214,51.318 99.81,51.714 C99.406,52.11 98.96,52.536 98.472,52.992 L98.472,52.992 L98.472,54 L103.836,54 Z M106.164,54.144 C106.468,54.144 106.722,54.038 106.926,53.826 C107.13,53.614 107.232,53.352 107.232,53.04 C107.232,52.72 107.13,52.454 106.926,52.242 C106.722,52.03 106.468,51.924 106.164,51.924 C105.86,51.924 105.606,52.03 105.402,52.242 C105.198,52.454 105.096,52.72 105.096,53.04 C105.096,53.352 105.198,53.614 105.402,53.826 C105.606,54.038 105.86,54.144 106.164,54.144 Z M110.928,54.144 C111.296,54.144 111.65,54.084 111.99,53.964 C112.33,53.844 112.628,53.67 112.884,53.442 C113.14,53.214 113.344,52.936 113.496,52.608 C113.648,52.28 113.724,51.904 113.724,51.48 C113.724,51.072 113.66,50.72 113.532,50.424 C113.404,50.128 113.228,49.884 113.004,49.692 C112.78,49.5 112.522,49.356 112.23,49.26 C111.938,49.164 111.628,49.116 111.3,49.116 C111.14,49.116 110.994,49.13 110.862,49.158 C110.73,49.186 110.592,49.232 110.448,49.296 L110.448,49.296 L110.58,47.868 L113.376,47.868 L113.376,46.38 L109.056,46.38 L108.84,50.232 L109.632,50.736 C109.744,50.664 109.846,50.604 109.938,50.556 C110.03,50.508 110.118,50.468 110.202,50.436 C110.286,50.404 110.372,50.382 110.46,50.37 C110.548,50.358 110.648,50.352 110.76,50.352 C111.12,50.352 111.41,50.452 111.63,50.652 C111.85,50.852 111.96,51.144 111.96,51.528 C111.96,51.92 111.844,52.216 111.612,52.416 C111.38,52.616 111.068,52.716 110.676,52.716 C110.348,52.716 110.05,52.642 109.782,52.494 C109.514,52.346 109.264,52.168 109.032,51.96 L109.032,51.96 L108.24,53.076 C108.544,53.38 108.912,53.634 109.344,53.838 C109.776,54.042 110.304,54.144 110.928,54.144 Z M117.048,54.144 C117.448,54.144 117.834,54.062 118.206,53.898 C118.578,53.734 118.906,53.484 119.19,53.148 C119.474,52.812 119.702,52.384 119.874,51.864 C120.046,51.344 120.132,50.728 120.132,50.016 C120.132,49.344 120.05,48.77 119.886,48.294 C119.722,47.818 119.506,47.428 119.238,47.124 C118.97,46.82 118.662,46.596 118.314,46.452 C117.966,46.308 117.608,46.236 117.24,46.236 C116.896,46.236 116.57,46.294 116.262,46.41 C115.954,46.526 115.686,46.696 115.458,46.92 C115.23,47.144 115.048,47.414 114.912,47.73 C114.776,48.046 114.708,48.4 114.708,48.792 C114.708,49.192 114.766,49.54 114.882,49.836 C114.998,50.132 115.156,50.376 115.356,50.568 C115.556,50.76 115.794,50.904 116.07,51 C116.346,51.096 116.648,51.144 116.976,51.144 C117.096,51.144 117.224,51.126 117.36,51.09 C117.496,51.054 117.632,51.002 117.768,50.934 C117.904,50.866 118.036,50.782 118.164,50.682 C118.292,50.582 118.404,50.468 118.5,50.34 C118.484,50.788 118.434,51.162 118.35,51.462 C118.266,51.762 118.154,52.006 118.014,52.194 C117.874,52.382 117.712,52.516 117.528,52.596 C117.344,52.676 117.144,52.716 116.928,52.716 C116.704,52.716 116.484,52.662 116.268,52.554 C116.052,52.446 115.88,52.32 115.752,52.176 L115.752,52.176 L114.816,53.232 C115.056,53.472 115.362,53.684 115.734,53.868 C116.106,54.052 116.544,54.144 117.048,54.144 Z M117.324,49.896 C117.036,49.896 116.796,49.814 116.604,49.65 C116.412,49.486 116.316,49.2 116.316,48.792 C116.316,48.36 116.412,48.046 116.604,47.85 C116.796,47.654 117.02,47.556 117.276,47.556 C117.548,47.556 117.794,47.67 118.014,47.898 C118.234,48.126 118.384,48.54 118.464,49.14 C118.312,49.412 118.134,49.606 117.93,49.722 C117.726,49.838 117.524,49.896 117.324,49.896 Z M124.86,54 L124.86,47.664 L127.008,47.664 L127.008,46.176 L120.936,46.176 L120.936,47.664 L123.084,47.664 L123.084,54 L124.86,54 Z" id="NEWAGENCYFUNDING$2.59T" fill="#666666" fill-rule="nonzero"></path>
                    <path d="M0,77 L0,13 L295,13 L295,77" id="Path-21-Copy-2" stroke="#D8D8D8" stroke-dasharray="3,3"></path>
                    <polyline id="Path-21-Copy-3" stroke="#979797" stroke-width="0.5" points="0 77 0 69 219 69 219 77"></polyline>
                    <line x1="147.5" y1="12.5" x2="147.5" y2="0.5" id="Line-14-Copy-4" stroke="#D8D8D8" stroke-linecap="round" stroke-linejoin="round" stroke-dasharray="3,3"></line>
                    <line x1="109.25" y1="69" x2="109.25" y2="61" id="Line-14-Copy-6" stroke="#979797" stroke-width="0.5" stroke-linecap="square"></line>
                    <g id="Group-10-Copy-4" transform="translate(0.000000, 77.000000)" fill="#6F41A7">
                        <g id="Group-10-Copy-3" transform="translate(0.000000, 0.000000)">
                            <rect id="Rectangle" x="177" y="1.70530257e-13" width="42" height="40"></rect>
                            <rect id="Rectangle-Copy-13" x="4" y="1.70530257e-13" width="172" height="40"></rect>
                            <rect id="Rectangle-Copy-14" x="2" y="1.70530257e-13" width="1" height="40"></rect>
                            <rect id="Rectangle-Copy-17" x="0" y="1.70530257e-13" width="1" height="40"></rect>
                        </g>
                    </g>
                    <path d="M307.72,85 L307.72,77.968 L310.096,77.968 L310.096,77.128 L304.336,77.128 L304.336,77.968 L306.712,77.968 L306.712,85 L307.72,85 Z M311.008,85 L311.764,82.6 L314.632,82.6 L315.376,85 L316.444,85 L313.78,77.128 L312.652,77.128 L309.988,85 L311.008,85 Z M314.38,81.796 L312.016,81.796 L312.388,80.596 C312.532,80.156 312.668,79.718 312.796,79.282 C312.924,78.846 313.048,78.4 313.168,77.944 L313.168,77.944 L313.216,77.944 C313.344,78.4 313.472,78.846 313.6,79.282 C313.728,79.718 313.864,80.156 314.008,80.596 L314.008,80.596 L314.38,81.796 Z M317.764,85 L318.904,82.876 C319,82.684 319.1,82.486 319.204,82.282 C319.308,82.078 319.416,81.856 319.528,81.616 L319.528,81.616 L319.576,81.616 C319.704,81.856 319.822,82.078 319.93,82.282 C320.038,82.486 320.144,82.684 320.248,82.876 L320.248,82.876 L321.4,85 L322.504,85 L320.212,80.98 L322.36,77.128 L321.304,77.128 L320.26,79.144 C320.164,79.328 320.074,79.506 319.99,79.678 C319.906,79.85 319.808,80.052 319.696,80.284 L319.696,80.284 L319.648,80.284 C319.528,80.052 319.422,79.85 319.33,79.678 C319.238,79.506 319.14,79.328 319.036,79.144 L319.036,79.144 L317.968,77.128 L316.864,77.128 L319,80.932 L316.708,85 L317.764,85 Z M306.076,100 L306.076,96.676 L307.504,96.676 L309.4,100 L310.528,100 L308.524,96.568 C309.068,96.432 309.5,96.18 309.82,95.812 C310.14,95.444 310.3,94.952 310.3,94.336 C310.3,93.928 310.232,93.584 310.096,93.304 C309.96,93.024 309.77,92.796 309.526,92.62 C309.282,92.444 308.99,92.318 308.65,92.242 C308.31,92.166 307.94,92.128 307.54,92.128 L307.54,92.128 L305.08,92.128 L305.08,100 L306.076,100 Z M307.396,95.86 L306.076,95.86 L306.076,92.932 L307.396,92.932 C308.012,92.932 308.484,93.036 308.812,93.244 C309.14,93.452 309.304,93.816 309.304,94.336 C309.304,94.848 309.14,95.23 308.812,95.482 C308.484,95.734 308.012,95.86 307.396,95.86 L307.396,95.86 Z M316.564,100 L316.564,99.148 L312.904,99.148 L312.904,96.292 L315.892,96.292 L315.892,95.44 L312.904,95.44 L312.904,92.968 L316.444,92.968 L316.444,92.128 L311.908,92.128 L311.908,100 L316.564,100 Z M322.672,100 L322.672,99.148 L319.228,99.148 L319.228,92.128 L318.232,92.128 L318.232,100 L322.672,100 Z M325.06,100 L325.06,92.128 L324.064,92.128 L324.064,100 L325.06,100 Z M331.876,100 L331.876,99.148 L328.216,99.148 L328.216,96.292 L331.204,96.292 L331.204,95.44 L328.216,95.44 L328.216,92.968 L331.756,92.968 L331.756,92.128 L327.22,92.128 L327.22,100 L331.876,100 Z M334.54,100 L334.54,96.472 L337.54,96.472 L337.54,95.632 L334.54,95.632 L334.54,92.968 L338.08,92.968 L338.08,92.128 L333.544,92.128 L333.544,100 L334.54,100 Z M307.744,116.32 L307.744,115.072 C308.368,114.936 308.836,114.662 309.148,114.25 C309.46,113.838 309.616,113.344 309.616,112.768 C309.616,112.384 309.538,112.062 309.382,111.802 C309.226,111.542 309.03,111.32 308.794,111.136 C308.558,110.952 308.304,110.796 308.032,110.668 C307.76,110.54 307.506,110.416 307.27,110.296 C307.034,110.176 306.838,110.05 306.682,109.918 C306.526,109.786 306.448,109.624 306.448,109.432 C306.448,109.16 306.524,108.964 306.676,108.844 C306.828,108.724 307.048,108.664 307.336,108.664 C307.592,108.664 307.82,108.714 308.02,108.814 C308.22,108.914 308.428,109.064 308.644,109.264 L308.644,109.264 L309.532,108.256 C309.3,108.008 309.04,107.796 308.752,107.62 C308.464,107.444 308.128,107.328 307.744,107.272 L307.744,107.272 L307.744,106.06 L306.58,106.06 L306.58,107.296 C306.012,107.408 305.566,107.658 305.242,108.046 C304.918,108.434 304.756,108.924 304.756,109.516 C304.756,109.876 304.834,110.18 304.99,110.428 C305.146,110.676 305.342,110.892 305.578,111.076 C305.814,111.26 306.068,111.418 306.34,111.55 C306.612,111.682 306.866,111.814 307.102,111.946 C307.338,112.078 307.534,112.216 307.69,112.36 C307.846,112.504 307.924,112.68 307.924,112.888 C307.924,113.168 307.846,113.376 307.69,113.512 C307.534,113.648 307.288,113.716 306.952,113.716 C306.664,113.716 306.382,113.658 306.106,113.542 C305.83,113.426 305.54,113.252 305.236,113.02 L305.236,113.02 L304.468,114.208 C304.748,114.464 305.082,114.67 305.47,114.826 C305.858,114.982 306.228,115.08 306.58,115.12 L306.58,115.12 L306.58,116.32 L307.744,116.32 Z M313.084,115.144 C313.484,115.144 313.87,115.062 314.242,114.898 C314.614,114.734 314.942,114.484 315.226,114.148 C315.51,113.812 315.738,113.384 315.91,112.864 C316.082,112.344 316.168,111.728 316.168,111.016 C316.168,110.344 316.086,109.77 315.922,109.294 C315.758,108.818 315.542,108.428 315.274,108.124 C315.006,107.82 314.698,107.596 314.35,107.452 C314.002,107.308 313.644,107.236 313.276,107.236 C312.932,107.236 312.606,107.294 312.298,107.41 C311.99,107.526 311.722,107.696 311.494,107.92 C311.266,108.144 311.084,108.414 310.948,108.73 C310.812,109.046 310.744,109.4 310.744,109.792 C310.744,110.192 310.802,110.54 310.918,110.836 C311.034,111.132 311.192,111.376 311.392,111.568 C311.592,111.76 311.83,111.904 312.106,112 C312.382,112.096 312.684,112.144 313.012,112.144 C313.132,112.144 313.26,112.126 313.396,112.09 C313.532,112.054 313.668,112.002 313.804,111.934 C313.94,111.866 314.072,111.782 314.2,111.682 C314.328,111.582 314.44,111.468 314.536,111.34 C314.52,111.788 314.47,112.162 314.386,112.462 C314.302,112.762 314.19,113.006 314.05,113.194 C313.91,113.382 313.748,113.516 313.564,113.596 C313.38,113.676 313.18,113.716 312.964,113.716 C312.74,113.716 312.52,113.662 312.304,113.554 C312.088,113.446 311.916,113.32 311.788,113.176 L311.788,113.176 L310.852,114.232 C311.092,114.472 311.398,114.684 311.77,114.868 C312.142,115.052 312.58,115.144 313.084,115.144 Z M313.36,110.896 C313.072,110.896 312.832,110.814 312.64,110.65 C312.448,110.486 312.352,110.2 312.352,109.792 C312.352,109.36 312.448,109.046 312.64,108.85 C312.832,108.654 313.056,108.556 313.312,108.556 C313.584,108.556 313.83,108.67 314.05,108.898 C314.27,109.126 314.42,109.54 314.5,110.14 C314.348,110.412 314.17,110.606 313.966,110.722 C313.762,110.838 313.56,110.896 313.36,110.896 Z M319.84,115.144 C320.248,115.144 320.62,115.058 320.956,114.886 C321.292,114.714 321.578,114.46 321.814,114.124 C322.05,113.788 322.234,113.372 322.366,112.876 C322.498,112.38 322.564,111.808 322.564,111.16 C322.564,110.512 322.498,109.944 322.366,109.456 C322.234,108.968 322.05,108.558 321.814,108.226 C321.578,107.894 321.292,107.646 320.956,107.482 C320.62,107.318 320.248,107.236 319.84,107.236 C319.432,107.236 319.06,107.318 318.724,107.482 C318.388,107.646 318.102,107.894 317.866,108.226 C317.63,108.558 317.446,108.968 317.314,109.456 C317.182,109.944 317.116,110.512 317.116,111.16 C317.116,111.808 317.182,112.38 317.314,112.876 C317.446,113.372 317.63,113.788 317.866,114.124 C318.102,114.46 318.388,114.714 318.724,114.886 C319.06,115.058 319.432,115.144 319.84,115.144 Z M319.84,113.776 C319.696,113.776 319.56,113.738 319.432,113.662 C319.304,113.586 319.192,113.448 319.096,113.248 C319,113.048 318.924,112.78 318.868,112.444 C318.812,112.108 318.784,111.68 318.784,111.16 C318.784,110.64 318.812,110.214 318.868,109.882 C318.924,109.55 319,109.29 319.096,109.102 C319.192,108.914 319.304,108.784 319.432,108.712 C319.56,108.64 319.696,108.604 319.84,108.604 C319.992,108.604 320.132,108.64 320.26,108.712 C320.388,108.784 320.5,108.914 320.596,109.102 C320.692,109.29 320.766,109.55 320.818,109.882 C320.87,110.214 320.896,110.64 320.896,111.16 C320.896,111.68 320.87,112.108 320.818,112.444 C320.766,112.78 320.692,113.048 320.596,113.248 C320.5,113.448 320.388,113.586 320.26,113.662 C320.132,113.738 319.992,113.776 319.84,113.776 Z M328.816,115 L328.816,113.512 L327.28,113.512 C327.096,113.512 326.886,113.522 326.65,113.542 C326.414,113.562 326.2,113.584 326.008,113.608 C326.32,113.288 326.622,112.962 326.914,112.63 C327.206,112.298 327.466,111.966 327.694,111.634 C327.922,111.302 328.104,110.97 328.24,110.638 C328.376,110.306 328.444,109.98 328.444,109.66 C328.444,109.292 328.384,108.96 328.264,108.664 C328.144,108.368 327.972,108.114 327.748,107.902 C327.524,107.69 327.258,107.526 326.95,107.41 C326.642,107.294 326.3,107.236 325.924,107.236 C325.38,107.236 324.912,107.338 324.52,107.542 C324.128,107.746 323.744,108.048 323.368,108.448 L323.368,108.448 L324.328,109.396 C324.52,109.188 324.724,109.006 324.94,108.85 C325.156,108.694 325.404,108.616 325.684,108.616 C326.02,108.616 326.284,108.714 326.476,108.91 C326.668,109.106 326.764,109.392 326.764,109.768 C326.764,110.04 326.682,110.326 326.518,110.626 C326.354,110.926 326.126,111.25 325.834,111.598 C325.542,111.946 325.194,112.318 324.79,112.714 C324.386,113.11 323.94,113.536 323.452,113.992 L323.452,113.992 L323.452,115 L328.816,115 Z M333.172,115 C333.596,115 333.992,114.954 334.36,114.862 C334.728,114.77 335.05,114.63 335.326,114.442 C335.602,114.254 335.818,114.016 335.974,113.728 C336.13,113.44 336.208,113.096 336.208,112.696 C336.208,112.432 336.172,112.198 336.1,111.994 C336.028,111.79 335.928,111.612 335.8,111.46 C335.672,111.308 335.524,111.182 335.356,111.082 C335.188,110.982 335.004,110.908 334.804,110.86 L334.804,110.86 L334.804,110.812 C334.964,110.756 335.106,110.668 335.23,110.548 C335.354,110.428 335.46,110.292 335.548,110.14 C335.636,109.988 335.704,109.824 335.752,109.648 C335.8,109.472 335.824,109.296 335.824,109.12 C335.824,108.744 335.75,108.432 335.602,108.184 C335.454,107.936 335.25,107.736 334.99,107.584 C334.73,107.432 334.426,107.326 334.078,107.266 C333.73,107.206 333.352,107.176 332.944,107.176 L332.944,107.176 L330.268,107.176 L330.268,115 L333.172,115 Z M332.86,110.308 L332.032,110.308 L332.032,108.544 L332.872,108.544 C333.288,108.544 333.596,108.608 333.796,108.736 C333.996,108.864 334.096,109.08 334.096,109.384 C334.096,109.664 333.998,109.888 333.802,110.056 C333.606,110.224 333.292,110.308 332.86,110.308 L332.86,110.308 Z M333.028,113.632 L332.032,113.632 L332.032,111.616 L333.028,111.616 C333.516,111.616 333.88,111.69 334.12,111.838 C334.36,111.986 334.48,112.232 334.48,112.576 C334.48,113.28 333.996,113.632 333.028,113.632 L333.028,113.632 Z" id="TAXRELIEF$902B" fill="#666666" fill-rule="nonzero"></path>
                    <line x1="297.5" y1="96.5" x2="301.5" y2="96.5" id="Line-14-Copy-3" stroke="#979797" stroke-width="0.5" stroke-linecap="square"></line>
                    <use id="Rectangle-Copy-2" stroke="#979797" mask="url(#mask-2)" stroke-width="2" fill="#E1E1E1" stroke-dasharray="4,3" xlink:href="#path-1"></use>
                </g>
                <path d="M5.958,18 L5.958,7.992 L9.36,7.992 L9.36,6.228 L0.468,6.228 L0.468,7.992 L3.87,7.992 L3.87,18 L5.958,18 Z M13.482,18.216 C14.034,18.216 14.565,18.114 15.075,17.91 C15.585,17.706 16.032,17.406 16.416,17.01 C16.8,16.614 17.109,16.128 17.343,15.552 C17.577,14.976 17.694,14.322 17.694,13.59 C17.694,12.858 17.577,12.204 17.343,11.628 C17.109,11.052 16.8,10.566 16.416,10.17 C16.032,9.774 15.585,9.471 15.075,9.261 C14.565,9.051 14.034,8.946 13.482,8.946 C12.93,8.946 12.402,9.051 11.898,9.261 C11.394,9.471 10.947,9.774 10.557,10.17 C10.167,10.566 9.858,11.052 9.63,11.628 C9.402,12.204 9.288,12.858 9.288,13.59 C9.288,14.322 9.402,14.976 9.63,15.552 C9.858,16.128 10.167,16.614 10.557,17.01 C10.947,17.406 11.394,17.706 11.898,17.91 C12.402,18.114 12.93,18.216 13.482,18.216 Z M13.482,16.524 C12.834,16.524 12.327,16.257 11.961,15.723 C11.595,15.189 11.412,14.478 11.412,13.59 C11.412,12.69 11.595,11.973 11.961,11.439 C12.327,10.905 12.834,10.638 13.482,10.638 C14.13,10.638 14.64,10.905 15.012,11.439 C15.384,11.973 15.57,12.69 15.57,13.59 C15.57,14.478 15.384,15.189 15.012,15.723 C14.64,16.257 14.13,16.524 13.482,16.524 Z M22.464,18.216 C22.812,18.216 23.139,18.183 23.445,18.117 C23.751,18.051 24.024,17.976 24.264,17.892 L24.264,17.892 L23.904,16.362 C23.772,16.422 23.625,16.47 23.463,16.506 C23.301,16.542 23.142,16.56 22.986,16.56 C22.158,16.56 21.744,16.044 21.744,15.012 L21.744,15.012 L21.744,10.8 L23.994,10.8 L23.994,9.162 L21.744,9.162 L21.744,6.75 L20.016,6.75 L19.764,9.162 L18.396,9.252 L18.396,10.8 L19.656,10.8 L19.656,15.012 C19.656,15.492 19.707,15.927 19.809,16.317 C19.911,16.707 20.073,17.043 20.295,17.325 C20.517,17.607 20.805,17.826 21.159,17.982 C21.513,18.138 21.948,18.216 22.464,18.216 Z M27.612,18.216 C28.14,18.216 28.629,18.102 29.079,17.874 C29.529,17.646 29.952,17.364 30.348,17.028 L30.348,17.028 L30.42,17.028 L30.564,18 L32.274,18 L32.274,12.762 C32.274,11.526 32.001,10.581 31.455,9.927 C30.909,9.273 30.084,8.946 28.98,8.946 C28.272,8.946 27.612,9.06 27,9.288 C26.388,9.516 25.836,9.786 25.344,10.098 L25.344,10.098 L26.1,11.484 C26.496,11.244 26.901,11.04 27.315,10.872 C27.729,10.704 28.152,10.62 28.584,10.62 C28.884,10.62 29.136,10.665 29.34,10.755 C29.544,10.845 29.709,10.971 29.835,11.133 C29.961,11.295 30.051,11.481 30.105,11.691 C30.159,11.901 30.192,12.12 30.204,12.348 C29.292,12.444 28.509,12.582 27.855,12.762 C27.201,12.942 26.661,13.164 26.235,13.428 C25.809,13.692 25.497,14.007 25.299,14.373 C25.101,14.739 25.002,15.156 25.002,15.624 C25.002,16.404 25.242,17.031 25.722,17.505 C26.202,17.979 26.832,18.216 27.612,18.216 Z M28.278,16.596 C27.906,16.596 27.6,16.506 27.36,16.326 C27.12,16.146 27,15.858 27,15.462 C27,15.246 27.054,15.042 27.162,14.85 C27.27,14.658 27.45,14.487 27.702,14.337 C27.954,14.187 28.284,14.052 28.692,13.932 C29.1,13.812 29.604,13.716 30.204,13.644 L30.204,13.644 L30.204,15.624 C29.868,15.936 29.553,16.176 29.259,16.344 C28.965,16.512 28.638,16.596 28.278,16.596 Z M36.774,18.216 C37.23,18.216 37.596,18.156 37.872,18.036 L37.872,18.036 L37.602,16.488 C37.518,16.512 37.455,16.524 37.413,16.524 L37.413,16.524 L37.278,16.524 C37.17,16.524 37.068,16.473 36.972,16.371 C36.876,16.269 36.828,16.092 36.828,15.84 L36.828,15.84 L36.828,5.292 L34.758,5.292 L34.758,15.732 C34.758,16.5 34.908,17.106 35.208,17.55 C35.508,17.994 36.03,18.216 36.774,18.216 Z M50.688,18 L50.688,16.236 L45.504,16.236 L45.504,12.762 L49.734,12.762 L49.734,10.998 L45.504,10.998 L45.504,7.992 L50.508,7.992 L50.508,6.228 L43.416,6.228 L43.416,18 L50.688,18 Z M55.386,18.216 C55.938,18.216 56.43,18.144 56.862,18 C57.294,17.856 57.654,17.661 57.942,17.415 C58.23,17.169 58.449,16.881 58.599,16.551 C58.749,16.221 58.824,15.864 58.824,15.48 C58.824,15.072 58.749,14.721 58.599,14.427 C58.449,14.133 58.251,13.884 58.005,13.68 C57.759,13.476 57.486,13.305 57.186,13.167 C56.886,13.029 56.586,12.906 56.286,12.798 C56.046,12.714 55.815,12.63 55.593,12.546 C55.371,12.462 55.176,12.372 55.008,12.276 C54.84,12.18 54.705,12.069 54.603,11.943 C54.501,11.817 54.45,11.664 54.45,11.484 C54.45,11.208 54.555,10.977 54.765,10.791 C54.975,10.605 55.302,10.512 55.746,10.512 C56.094,10.512 56.427,10.581 56.745,10.719 C57.063,10.857 57.378,11.04 57.69,11.268 L57.69,11.268 L58.644,10.008 C58.284,9.732 57.858,9.486 57.366,9.27 C56.874,9.054 56.322,8.946 55.71,8.946 C54.714,8.946 53.928,9.192 53.352,9.684 C52.776,10.176 52.488,10.812 52.488,11.592 C52.488,11.964 52.563,12.285 52.713,12.555 C52.863,12.825 53.055,13.062 53.289,13.266 C53.523,13.47 53.79,13.644 54.09,13.788 C54.39,13.932 54.684,14.058 54.972,14.166 C55.2,14.262 55.428,14.355 55.656,14.445 C55.884,14.535 56.088,14.634 56.268,14.742 C56.448,14.85 56.592,14.973 56.7,15.111 C56.808,15.249 56.862,15.408 56.862,15.588 C56.862,15.9 56.748,16.155 56.52,16.353 C56.292,16.551 55.938,16.65 55.458,16.65 C55.002,16.65 54.579,16.563 54.189,16.389 C53.799,16.215 53.406,15.972 53.01,15.66 L53.01,15.66 L52.038,16.992 C52.47,17.34 52.983,17.631 53.577,17.865 C54.171,18.099 54.774,18.216 55.386,18.216 Z M63.432,18.216 C63.78,18.216 64.107,18.183 64.413,18.117 C64.719,18.051 64.992,17.976 65.232,17.892 L65.232,17.892 L64.872,16.362 C64.74,16.422 64.593,16.47 64.431,16.506 C64.269,16.542 64.11,16.56 63.954,16.56 C63.126,16.56 62.712,16.044 62.712,15.012 L62.712,15.012 L62.712,10.8 L64.962,10.8 L64.962,9.162 L62.712,9.162 L62.712,6.75 L60.984,6.75 L60.732,9.162 L59.364,9.252 L59.364,10.8 L60.624,10.8 L60.624,15.012 C60.624,15.492 60.675,15.927 60.777,16.317 C60.879,16.707 61.041,17.043 61.263,17.325 C61.485,17.607 61.773,17.826 62.127,17.982 C62.481,18.138 62.916,18.216 63.432,18.216 Z M67.86,7.614 C68.232,7.614 68.538,7.506 68.778,7.29 C69.018,7.074 69.138,6.792 69.138,6.444 C69.138,6.096 69.018,5.811 68.778,5.589 C68.538,5.367 68.232,5.256 67.86,5.256 C67.488,5.256 67.182,5.367 66.942,5.589 C66.702,5.811 66.582,6.096 66.582,6.444 C66.582,6.792 66.702,7.074 66.942,7.29 C67.182,7.506 67.488,7.614 67.86,7.614 Z M68.886,18 L68.886,9.162 L66.816,9.162 L66.816,18 L68.886,18 Z M73.602,18 L73.602,11.826 C74.286,11.094 74.904,10.728 75.456,10.728 C75.924,10.728 76.269,10.878 76.491,11.178 C76.713,11.478 76.824,11.994 76.824,12.726 L76.824,12.726 L76.824,18 L78.894,18 L78.894,11.826 C79.578,11.094 80.196,10.728 80.748,10.728 C81.204,10.728 81.543,10.878 81.765,11.178 C81.987,11.478 82.098,11.994 82.098,12.726 L82.098,12.726 L82.098,18 L84.186,18 L84.186,12.456 C84.186,11.328 83.964,10.461 83.52,9.855 C83.076,9.249 82.386,8.946 81.45,8.946 C80.886,8.946 80.376,9.096 79.92,9.396 C79.464,9.696 79.026,10.074 78.606,10.53 C78.402,10.026 78.105,9.636 77.715,9.36 C77.325,9.084 76.806,8.946 76.158,8.946 C75.606,8.946 75.111,9.084 74.673,9.36 C74.235,9.636 73.83,9.972 73.458,10.368 L73.458,10.368 L73.386,10.368 L73.242,9.162 L71.532,9.162 L71.532,18 L73.602,18 Z M88.848,18.216 C89.376,18.216 89.865,18.102 90.315,17.874 C90.765,17.646 91.188,17.364 91.584,17.028 L91.584,17.028 L91.656,17.028 L91.8,18 L93.51,18 L93.51,12.762 C93.51,11.526 93.237,10.581 92.691,9.927 C92.145,9.273 91.32,8.946 90.216,8.946 C89.508,8.946 88.848,9.06 88.236,9.288 C87.624,9.516 87.072,9.786 86.58,10.098 L86.58,10.098 L87.336,11.484 C87.732,11.244 88.137,11.04 88.551,10.872 C88.965,10.704 89.388,10.62 89.82,10.62 C90.12,10.62 90.372,10.665 90.576,10.755 C90.78,10.845 90.945,10.971 91.071,11.133 C91.197,11.295 91.287,11.481 91.341,11.691 C91.395,11.901 91.428,12.12 91.44,12.348 C90.528,12.444 89.745,12.582 89.091,12.762 C88.437,12.942 87.897,13.164 87.471,13.428 C87.045,13.692 86.733,14.007 86.535,14.373 C86.337,14.739 86.238,15.156 86.238,15.624 C86.238,16.404 86.478,17.031 86.958,17.505 C87.438,17.979 88.068,18.216 88.848,18.216 Z M89.514,16.596 C89.142,16.596 88.836,16.506 88.596,16.326 C88.356,16.146 88.236,15.858 88.236,15.462 C88.236,15.246 88.29,15.042 88.398,14.85 C88.506,14.658 88.686,14.487 88.938,14.337 C89.19,14.187 89.52,14.052 89.928,13.932 C90.336,13.812 90.84,13.716 91.44,13.644 L91.44,13.644 L91.44,15.624 C91.104,15.936 90.789,16.176 90.495,16.344 C90.201,16.512 89.874,16.596 89.514,16.596 Z M98.82,18.216 C99.168,18.216 99.495,18.183 99.801,18.117 C100.107,18.051 100.38,17.976 100.62,17.892 L100.62,17.892 L100.26,16.362 C100.128,16.422 99.981,16.47 99.819,16.506 C99.657,16.542 99.498,16.56 99.342,16.56 C98.514,16.56 98.1,16.044 98.1,15.012 L98.1,15.012 L98.1,10.8 L100.35,10.8 L100.35,9.162 L98.1,9.162 L98.1,6.75 L96.372,6.75 L96.12,9.162 L94.752,9.252 L94.752,10.8 L96.012,10.8 L96.012,15.012 C96.012,15.492 96.063,15.927 96.165,16.317 C96.267,16.707 96.429,17.043 96.651,17.325 C96.873,17.607 97.161,17.826 97.515,17.982 C97.869,18.138 98.304,18.216 98.82,18.216 Z M105.696,18.216 C106.26,18.216 106.8,18.126 107.316,17.946 C107.832,17.766 108.3,17.538 108.72,17.262 L108.72,17.262 L108.018,15.966 C107.694,16.17 107.367,16.329 107.037,16.443 C106.707,16.557 106.35,16.614 105.966,16.614 C105.246,16.614 104.655,16.401 104.193,15.975 C103.731,15.549 103.452,14.94 103.356,14.148 L103.356,14.148 L108.972,14.148 C108.996,14.04 109.017,13.896 109.035,13.716 C109.053,13.536 109.062,13.344 109.062,13.14 C109.062,12.528 108.984,11.964 108.828,11.448 C108.672,10.932 108.441,10.488 108.135,10.116 C107.829,9.744 107.448,9.456 106.992,9.252 C106.536,9.048 106.008,8.946 105.408,8.946 C104.892,8.946 104.388,9.054 103.896,9.27 C103.404,9.486 102.969,9.792 102.591,10.188 C102.213,10.584 101.91,11.07 101.682,11.646 C101.454,12.222 101.34,12.87 101.34,13.59 C101.34,14.322 101.451,14.973 101.673,15.543 C101.895,16.113 102.204,16.596 102.6,16.992 C102.996,17.388 103.458,17.691 103.986,17.901 C104.514,18.111 105.084,18.216 105.696,18.216 Z M107.262,12.744 L103.338,12.744 C103.434,12.024 103.68,11.478 104.076,11.106 C104.472,10.734 104.934,10.548 105.462,10.548 C106.074,10.548 106.527,10.743 106.821,11.133 C107.115,11.523 107.262,12.06 107.262,12.744 L107.262,12.744 Z M114.138,18.216 C114.618,18.216 115.074,18.102 115.506,17.874 C115.938,17.646 116.316,17.37 116.64,17.046 L116.64,17.046 L116.712,17.046 L116.856,18 L118.566,18 L118.566,5.292 L116.496,5.292 L116.496,8.496 L116.568,9.918 C116.22,9.618 115.872,9.381 115.524,9.207 C115.176,9.033 114.75,8.946 114.246,8.946 C113.766,8.946 113.301,9.054 112.851,9.27 C112.401,9.486 112.002,9.792 111.654,10.188 C111.306,10.584 111.027,11.07 110.817,11.646 C110.607,12.222 110.502,12.87 110.502,13.59 C110.502,15.054 110.829,16.191 111.483,17.001 C112.137,17.811 113.022,18.216 114.138,18.216 Z M114.642,16.506 C113.994,16.506 113.499,16.257 113.157,15.759 C112.815,15.261 112.644,14.532 112.644,13.572 C112.644,12.636 112.842,11.916 113.238,11.412 C113.634,10.908 114.12,10.656 114.696,10.656 C114.996,10.656 115.293,10.71 115.587,10.818 C115.881,10.926 116.184,11.118 116.496,11.394 L116.496,11.394 L116.496,15.516 C115.92,16.176 115.302,16.506 114.642,16.506 Z M129.546,18 L133.2,6.228 L131.058,6.228 L129.42,12.15 C129.24,12.822 129.075,13.458 128.925,14.058 C128.775,14.658 128.598,15.3 128.394,15.984 L128.394,15.984 L128.322,15.984 C128.118,15.3 127.941,14.658 127.791,14.058 C127.641,13.458 127.47,12.822 127.278,12.15 L127.278,12.15 L125.622,6.228 L123.408,6.228 L127.08,18 L129.546,18 Z M136.062,18.216 C136.59,18.216 137.079,18.102 137.529,17.874 C137.979,17.646 138.402,17.364 138.798,17.028 L138.798,17.028 L138.87,17.028 L139.014,18 L140.724,18 L140.724,12.762 C140.724,11.526 140.451,10.581 139.905,9.927 C139.359,9.273 138.534,8.946 137.43,8.946 C136.722,8.946 136.062,9.06 135.45,9.288 C134.838,9.516 134.286,9.786 133.794,10.098 L133.794,10.098 L134.55,11.484 C134.946,11.244 135.351,11.04 135.765,10.872 C136.179,10.704 136.602,10.62 137.034,10.62 C137.334,10.62 137.586,10.665 137.79,10.755 C137.994,10.845 138.159,10.971 138.285,11.133 C138.411,11.295 138.501,11.481 138.555,11.691 C138.609,11.901 138.642,12.12 138.654,12.348 C137.742,12.444 136.959,12.582 136.305,12.762 C135.651,12.942 135.111,13.164 134.685,13.428 C134.259,13.692 133.947,14.007 133.749,14.373 C133.551,14.739 133.452,15.156 133.452,15.624 C133.452,16.404 133.692,17.031 134.172,17.505 C134.652,17.979 135.282,18.216 136.062,18.216 Z M136.728,16.596 C136.356,16.596 136.05,16.506 135.81,16.326 C135.57,16.146 135.45,15.858 135.45,15.462 C135.45,15.246 135.504,15.042 135.612,14.85 C135.72,14.658 135.9,14.487 136.152,14.337 C136.404,14.187 136.734,14.052 137.142,13.932 C137.55,13.812 138.054,13.716 138.654,13.644 L138.654,13.644 L138.654,15.624 C138.318,15.936 138.003,16.176 137.709,16.344 C137.415,16.512 137.088,16.596 136.728,16.596 Z M145.224,18.216 C145.68,18.216 146.046,18.156 146.322,18.036 L146.322,18.036 L146.052,16.488 C145.968,16.512 145.905,16.524 145.863,16.524 L145.863,16.524 L145.728,16.524 C145.62,16.524 145.518,16.473 145.422,16.371 C145.326,16.269 145.278,16.092 145.278,15.84 L145.278,15.84 L145.278,5.292 L143.208,5.292 L143.208,15.732 C143.208,16.5 143.358,17.106 143.658,17.55 C143.958,17.994 144.48,18.216 145.224,18.216 Z M150.714,18.216 C151.326,18.216 151.857,18.078 152.307,17.802 C152.757,17.526 153.174,17.16 153.558,16.704 L153.558,16.704 L153.612,16.704 L153.774,18 L155.466,18 L155.466,9.162 L153.396,9.162 L153.396,15.21 C153.06,15.642 152.745,15.954 152.451,16.146 C152.157,16.338 151.818,16.434 151.434,16.434 C150.954,16.434 150.606,16.284 150.39,15.984 C150.174,15.684 150.066,15.168 150.066,14.436 L150.066,14.436 L150.066,9.162 L147.996,9.162 L147.996,14.706 C147.996,15.834 148.212,16.701 148.644,17.307 C149.076,17.913 149.766,18.216 150.714,18.216 Z M161.874,18.216 C162.438,18.216 162.978,18.126 163.494,17.946 C164.01,17.766 164.478,17.538 164.898,17.262 L164.898,17.262 L164.196,15.966 C163.872,16.17 163.545,16.329 163.215,16.443 C162.885,16.557 162.528,16.614 162.144,16.614 C161.424,16.614 160.833,16.401 160.371,15.975 C159.909,15.549 159.63,14.94 159.534,14.148 L159.534,14.148 L165.15,14.148 C165.174,14.04 165.195,13.896 165.213,13.716 C165.231,13.536 165.24,13.344 165.24,13.14 C165.24,12.528 165.162,11.964 165.006,11.448 C164.85,10.932 164.619,10.488 164.313,10.116 C164.007,9.744 163.626,9.456 163.17,9.252 C162.714,9.048 162.186,8.946 161.586,8.946 C161.07,8.946 160.566,9.054 160.074,9.27 C159.582,9.486 159.147,9.792 158.769,10.188 C158.391,10.584 158.088,11.07 157.86,11.646 C157.632,12.222 157.518,12.87 157.518,13.59 C157.518,14.322 157.629,14.973 157.851,15.543 C158.073,16.113 158.382,16.596 158.778,16.992 C159.174,17.388 159.636,17.691 160.164,17.901 C160.692,18.111 161.262,18.216 161.874,18.216 Z M163.44,12.744 L159.516,12.744 C159.612,12.024 159.858,11.478 160.254,11.106 C160.65,10.734 161.112,10.548 161.64,10.548 C162.252,10.548 162.705,10.743 162.999,11.133 C163.293,11.523 163.44,12.06 163.44,12.744 L163.44,12.744 Z M174.438,18.216 C174.99,18.216 175.521,18.114 176.031,17.91 C176.541,17.706 176.988,17.406 177.372,17.01 C177.756,16.614 178.065,16.128 178.299,15.552 C178.533,14.976 178.65,14.322 178.65,13.59 C178.65,12.858 178.533,12.204 178.299,11.628 C178.065,11.052 177.756,10.566 177.372,10.17 C176.988,9.774 176.541,9.471 176.031,9.261 C175.521,9.051 174.99,8.946 174.438,8.946 C173.886,8.946 173.358,9.051 172.854,9.261 C172.35,9.471 171.903,9.774 171.513,10.17 C171.123,10.566 170.814,11.052 170.586,11.628 C170.358,12.204 170.244,12.858 170.244,13.59 C170.244,14.322 170.358,14.976 170.586,15.552 C170.814,16.128 171.123,16.614 171.513,17.01 C171.903,17.406 172.35,17.706 172.854,17.91 C173.358,18.114 173.886,18.216 174.438,18.216 Z M174.438,16.524 C173.79,16.524 173.283,16.257 172.917,15.723 C172.551,15.189 172.368,14.478 172.368,13.59 C172.368,12.69 172.551,11.973 172.917,11.439 C173.283,10.905 173.79,10.638 174.438,10.638 C175.086,10.638 175.596,10.905 175.968,11.439 C176.34,11.973 176.526,12.69 176.526,13.59 C176.526,14.478 176.34,15.189 175.968,15.723 C175.596,16.257 175.086,16.524 174.438,16.524 Z M183.06,18 L183.06,10.8 L184.788,10.8 L184.788,9.162 L183.06,9.162 L183.06,8.208 C183.06,7.212 183.432,6.714 184.176,6.714 C184.5,6.714 184.824,6.786 185.148,6.93 L185.148,6.93 L185.544,5.382 C185.34,5.298 185.097,5.226 184.815,5.166 C184.533,5.106 184.236,5.076 183.924,5.076 C183.396,5.076 182.949,5.154 182.583,5.31 C182.217,5.466 181.914,5.685 181.674,5.967 C181.434,6.249 181.26,6.585 181.152,6.975 C181.044,7.365 180.99,7.788 180.99,8.244 L180.99,8.244 L180.99,9.162 L179.802,9.252 L179.802,10.8 L180.99,10.8 L180.99,18 L183.06,18 Z M197.1,18 L197.1,16.236 L192.204,16.236 L192.204,6.228 L190.116,6.228 L190.116,18 L197.1,18 Z M202.518,18.216 C203.082,18.216 203.622,18.126 204.138,17.946 C204.654,17.766 205.122,17.538 205.542,17.262 L205.542,17.262 L204.84,15.966 C204.516,16.17 204.189,16.329 203.859,16.443 C203.529,16.557 203.172,16.614 202.788,16.614 C202.068,16.614 201.477,16.401 201.015,15.975 C200.553,15.549 200.274,14.94 200.178,14.148 L200.178,14.148 L205.794,14.148 C205.818,14.04 205.839,13.896 205.857,13.716 C205.875,13.536 205.884,13.344 205.884,13.14 C205.884,12.528 205.806,11.964 205.65,11.448 C205.494,10.932 205.263,10.488 204.957,10.116 C204.651,9.744 204.27,9.456 203.814,9.252 C203.358,9.048 202.83,8.946 202.23,8.946 C201.714,8.946 201.21,9.054 200.718,9.27 C200.226,9.486 199.791,9.792 199.413,10.188 C199.035,10.584 198.732,11.07 198.504,11.646 C198.276,12.222 198.162,12.87 198.162,13.59 C198.162,14.322 198.273,14.973 198.495,15.543 C198.717,16.113 199.026,16.596 199.422,16.992 C199.818,17.388 200.28,17.691 200.808,17.901 C201.336,18.111 201.906,18.216 202.518,18.216 Z M204.084,12.744 L200.16,12.744 C200.256,12.024 200.502,11.478 200.898,11.106 C201.294,10.734 201.756,10.548 202.284,10.548 C202.896,10.548 203.349,10.743 203.643,11.133 C203.937,11.523 204.084,12.06 204.084,12.744 L204.084,12.744 Z M210.762,21.906 C211.482,21.906 212.133,21.825 212.715,21.663 C213.297,21.501 213.792,21.282 214.2,21.006 C214.608,20.73 214.923,20.4 215.145,20.016 C215.367,19.632 215.478,19.224 215.478,18.792 C215.478,18.024 215.205,17.469 214.659,17.127 C214.113,16.785 213.306,16.614 212.238,16.614 L212.238,16.614 L210.672,16.614 C210.132,16.614 209.757,16.542 209.547,16.398 C209.337,16.254 209.232,16.056 209.232,15.804 C209.232,15.6 209.271,15.438 209.349,15.318 C209.427,15.198 209.532,15.078 209.664,14.958 C209.868,15.042 210.072,15.102 210.276,15.138 C210.48,15.174 210.678,15.192 210.87,15.192 C211.338,15.192 211.776,15.126 212.184,14.994 C212.592,14.862 212.946,14.67 213.246,14.418 C213.546,14.166 213.783,13.854 213.957,13.482 C214.131,13.11 214.218,12.678 214.218,12.186 C214.218,11.874 214.17,11.589 214.074,11.331 C213.978,11.073 213.858,10.86 213.714,10.692 L213.714,10.692 L215.334,10.692 L215.334,9.162 L212.166,9.162 C211.986,9.102 211.785,9.051 211.563,9.009 C211.341,8.967 211.11,8.946 210.87,8.946 C210.402,8.946 209.958,9.015 209.538,9.153 C209.118,9.291 208.749,9.495 208.431,9.765 C208.113,10.035 207.858,10.368 207.666,10.764 C207.474,11.16 207.378,11.61 207.378,12.114 C207.378,12.642 207.495,13.107 207.729,13.509 C207.963,13.911 208.23,14.226 208.53,14.454 L208.53,14.454 L208.53,14.526 C208.278,14.706 208.053,14.937 207.855,15.219 C207.657,15.501 207.558,15.816 207.558,16.164 C207.558,16.524 207.633,16.824 207.783,17.064 C207.933,17.304 208.122,17.496 208.35,17.64 L208.35,17.64 L208.35,17.712 C207.942,17.964 207.63,18.249 207.414,18.567 C207.198,18.885 207.09,19.23 207.09,19.602 C207.09,19.986 207.183,20.322 207.369,20.61 C207.555,20.898 207.81,21.138 208.134,21.33 C208.458,21.522 208.845,21.666 209.295,21.762 C209.745,21.858 210.234,21.906 210.762,21.906 Z M210.87,13.896 C210.438,13.896 210.072,13.743 209.772,13.437 C209.472,13.131 209.322,12.69 209.322,12.114 C209.322,11.55 209.472,11.118 209.772,10.818 C210.072,10.518 210.438,10.368 210.87,10.368 C211.302,10.368 211.665,10.521 211.959,10.827 C212.253,11.133 212.4,11.562 212.4,12.114 C212.4,12.69 212.25,13.131 211.95,13.437 C211.65,13.743 211.29,13.896 210.87,13.896 Z M211.086,20.556 C210.378,20.556 209.823,20.445 209.421,20.223 C209.019,20.001 208.818,19.692 208.818,19.296 C208.818,18.864 209.046,18.474 209.502,18.126 C209.826,18.21 210.228,18.252 210.708,18.252 L210.708,18.252 L211.914,18.252 C212.418,18.252 212.805,18.312 213.075,18.432 C213.345,18.552 213.48,18.786 213.48,19.134 C213.48,19.518 213.261,19.851 212.823,20.133 C212.385,20.415 211.806,20.556 211.086,20.556 Z M218.088,7.614 C218.46,7.614 218.766,7.506 219.006,7.29 C219.246,7.074 219.366,6.792 219.366,6.444 C219.366,6.096 219.246,5.811 219.006,5.589 C218.766,5.367 218.46,5.256 218.088,5.256 C217.716,5.256 217.41,5.367 217.17,5.589 C216.93,5.811 216.81,6.096 216.81,6.444 C216.81,6.792 216.93,7.074 217.17,7.29 C217.41,7.506 217.716,7.614 218.088,7.614 Z M219.114,18 L219.114,9.162 L217.044,9.162 L217.044,18 L219.114,18 Z M224.226,18.216 C224.778,18.216 225.27,18.144 225.702,18 C226.134,17.856 226.494,17.661 226.782,17.415 C227.07,17.169 227.289,16.881 227.439,16.551 C227.589,16.221 227.664,15.864 227.664,15.48 C227.664,15.072 227.589,14.721 227.439,14.427 C227.289,14.133 227.091,13.884 226.845,13.68 C226.599,13.476 226.326,13.305 226.026,13.167 C225.726,13.029 225.426,12.906 225.126,12.798 C224.886,12.714 224.655,12.63 224.433,12.546 C224.211,12.462 224.016,12.372 223.848,12.276 C223.68,12.18 223.545,12.069 223.443,11.943 C223.341,11.817 223.29,11.664 223.29,11.484 C223.29,11.208 223.395,10.977 223.605,10.791 C223.815,10.605 224.142,10.512 224.586,10.512 C224.934,10.512 225.267,10.581 225.585,10.719 C225.903,10.857 226.218,11.04 226.53,11.268 L226.53,11.268 L227.484,10.008 C227.124,9.732 226.698,9.486 226.206,9.27 C225.714,9.054 225.162,8.946 224.55,8.946 C223.554,8.946 222.768,9.192 222.192,9.684 C221.616,10.176 221.328,10.812 221.328,11.592 C221.328,11.964 221.403,12.285 221.553,12.555 C221.703,12.825 221.895,13.062 222.129,13.266 C222.363,13.47 222.63,13.644 222.93,13.788 C223.23,13.932 223.524,14.058 223.812,14.166 C224.04,14.262 224.268,14.355 224.496,14.445 C224.724,14.535 224.928,14.634 225.108,14.742 C225.288,14.85 225.432,14.973 225.54,15.111 C225.648,15.249 225.702,15.408 225.702,15.588 C225.702,15.9 225.588,16.155 225.36,16.353 C225.132,16.551 224.778,16.65 224.298,16.65 C223.842,16.65 223.419,16.563 223.029,16.389 C222.639,16.215 222.246,15.972 221.85,15.66 L221.85,15.66 L220.878,16.992 C221.31,17.34 221.823,17.631 222.417,17.865 C223.011,18.099 223.614,18.216 224.226,18.216 Z M231.534,18.216 C231.99,18.216 232.356,18.156 232.632,18.036 L232.632,18.036 L232.362,16.488 C232.278,16.512 232.215,16.524 232.173,16.524 L232.173,16.524 L232.038,16.524 C231.93,16.524 231.828,16.473 231.732,16.371 C231.636,16.269 231.588,16.092 231.588,15.84 L231.588,15.84 L231.588,5.292 L229.518,5.292 L229.518,15.732 C229.518,16.5 229.668,17.106 229.968,17.55 C230.268,17.994 230.79,18.216 231.534,18.216 Z M236.538,18.216 C237.066,18.216 237.555,18.102 238.005,17.874 C238.455,17.646 238.878,17.364 239.274,17.028 L239.274,17.028 L239.346,17.028 L239.49,18 L241.2,18 L241.2,12.762 C241.2,11.526 240.927,10.581 240.381,9.927 C239.835,9.273 239.01,8.946 237.906,8.946 C237.198,8.946 236.538,9.06 235.926,9.288 C235.314,9.516 234.762,9.786 234.27,10.098 L234.27,10.098 L235.026,11.484 C235.422,11.244 235.827,11.04 236.241,10.872 C236.655,10.704 237.078,10.62 237.51,10.62 C237.81,10.62 238.062,10.665 238.266,10.755 C238.47,10.845 238.635,10.971 238.761,11.133 C238.887,11.295 238.977,11.481 239.031,11.691 C239.085,11.901 239.118,12.12 239.13,12.348 C238.218,12.444 237.435,12.582 236.781,12.762 C236.127,12.942 235.587,13.164 235.161,13.428 C234.735,13.692 234.423,14.007 234.225,14.373 C234.027,14.739 233.928,15.156 233.928,15.624 C233.928,16.404 234.168,17.031 234.648,17.505 C235.128,17.979 235.758,18.216 236.538,18.216 Z M237.204,16.596 C236.832,16.596 236.526,16.506 236.286,16.326 C236.046,16.146 235.926,15.858 235.926,15.462 C235.926,15.246 235.98,15.042 236.088,14.85 C236.196,14.658 236.376,14.487 236.628,14.337 C236.88,14.187 237.21,14.052 237.618,13.932 C238.026,13.812 238.53,13.716 239.13,13.644 L239.13,13.644 L239.13,15.624 C238.794,15.936 238.479,16.176 238.185,16.344 C237.891,16.512 237.564,16.596 237.204,16.596 Z M246.51,18.216 C246.858,18.216 247.185,18.183 247.491,18.117 C247.797,18.051 248.07,17.976 248.31,17.892 L248.31,17.892 L247.95,16.362 C247.818,16.422 247.671,16.47 247.509,16.506 C247.347,16.542 247.188,16.56 247.032,16.56 C246.204,16.56 245.79,16.044 245.79,15.012 L245.79,15.012 L245.79,10.8 L248.04,10.8 L248.04,9.162 L245.79,9.162 L245.79,6.75 L244.062,6.75 L243.81,9.162 L242.442,9.252 L242.442,10.8 L243.702,10.8 L243.702,15.012 C243.702,15.492 243.753,15.927 243.855,16.317 C243.957,16.707 244.119,17.043 244.341,17.325 C244.563,17.607 244.851,17.826 245.205,17.982 C245.559,18.138 245.994,18.216 246.51,18.216 Z M250.938,7.614 C251.31,7.614 251.616,7.506 251.856,7.29 C252.096,7.074 252.216,6.792 252.216,6.444 C252.216,6.096 252.096,5.811 251.856,5.589 C251.616,5.367 251.31,5.256 250.938,5.256 C250.566,5.256 250.26,5.367 250.02,5.589 C249.78,5.811 249.66,6.096 249.66,6.444 C249.66,6.792 249.78,7.074 250.02,7.29 C250.26,7.506 250.566,7.614 250.938,7.614 Z M251.964,18 L251.964,9.162 L249.894,9.162 L249.894,18 L251.964,18 Z M258.228,18.216 C258.78,18.216 259.311,18.114 259.821,17.91 C260.331,17.706 260.778,17.406 261.162,17.01 C261.546,16.614 261.855,16.128 262.089,15.552 C262.323,14.976 262.44,14.322 262.44,13.59 C262.44,12.858 262.323,12.204 262.089,11.628 C261.855,11.052 261.546,10.566 261.162,10.17 C260.778,9.774 260.331,9.471 259.821,9.261 C259.311,9.051 258.78,8.946 258.228,8.946 C257.676,8.946 257.148,9.051 256.644,9.261 C256.14,9.471 255.693,9.774 255.303,10.17 C254.913,10.566 254.604,11.052 254.376,11.628 C254.148,12.204 254.034,12.858 254.034,13.59 C254.034,14.322 254.148,14.976 254.376,15.552 C254.604,16.128 254.913,16.614 255.303,17.01 C255.693,17.406 256.14,17.706 256.644,17.91 C257.148,18.114 257.676,18.216 258.228,18.216 Z M258.228,16.524 C257.58,16.524 257.073,16.257 256.707,15.723 C256.341,15.189 256.158,14.478 256.158,13.59 C256.158,12.69 256.341,11.973 256.707,11.439 C257.073,10.905 257.58,10.638 258.228,10.638 C258.876,10.638 259.386,10.905 259.758,11.439 C260.13,11.973 260.316,12.69 260.316,13.59 C260.316,14.478 260.13,15.189 259.758,15.723 C259.386,16.257 258.876,16.524 258.228,16.524 Z M266.562,18 L266.562,11.826 C266.934,11.466 267.267,11.193 267.561,11.007 C267.855,10.821 268.194,10.728 268.578,10.728 C269.07,10.728 269.424,10.878 269.64,11.178 C269.856,11.478 269.964,11.994 269.964,12.726 L269.964,12.726 L269.964,18 L272.034,18 L272.034,12.456 C272.034,11.328 271.818,10.461 271.386,9.855 C270.954,9.249 270.264,8.946 269.316,8.946 C268.704,8.946 268.167,9.084 267.705,9.36 C267.243,9.636 266.814,9.966 266.418,10.35 L266.418,10.35 L266.346,10.35 L266.202,9.162 L264.492,9.162 L264.492,18 L266.562,18 Z M282.222,19.98 L282.222,18.126 C283.122,17.958 283.812,17.583 284.292,17.001 C284.772,16.419 285.012,15.696 285.012,14.832 C285.012,14.232 284.892,13.731 284.652,13.329 C284.412,12.927 284.109,12.588 283.743,12.312 C283.377,12.036 282.984,11.799 282.564,11.601 C282.144,11.403 281.751,11.205 281.385,11.007 C281.019,10.809 280.716,10.593 280.476,10.359 C280.236,10.125 280.116,9.828 280.116,9.468 C280.116,9 280.254,8.643 280.53,8.397 C280.806,8.151 281.19,8.028 281.682,8.028 C282.114,8.028 282.486,8.109 282.798,8.271 C283.11,8.433 283.434,8.67 283.77,8.982 L283.77,8.982 L284.832,7.776 C284.496,7.428 284.121,7.125 283.707,6.867 C283.293,6.609 282.798,6.444 282.222,6.372 L282.222,6.372 L282.222,4.572 L280.782,4.572 L280.782,6.408 C279.966,6.552 279.318,6.903 278.838,7.461 C278.358,8.019 278.118,8.718 278.118,9.558 C278.118,10.122 278.238,10.593 278.478,10.971 C278.718,11.349 279.021,11.673 279.387,11.943 C279.753,12.213 280.146,12.447 280.566,12.645 C280.986,12.843 281.379,13.05 281.745,13.266 C282.111,13.482 282.414,13.722 282.654,13.986 C282.894,14.25 283.014,14.58 283.014,14.976 C283.014,15.468 282.87,15.849 282.582,16.119 C282.294,16.389 281.856,16.524 281.268,16.524 C280.776,16.524 280.314,16.422 279.882,16.218 C279.45,16.014 279.024,15.744 278.604,15.408 L278.604,15.408 L277.668,16.812 C278.076,17.196 278.559,17.505 279.117,17.739 C279.675,17.973 280.23,18.12 280.782,18.18 L280.782,18.18 L280.782,19.98 L282.222,19.98 Z M290.412,18.216 C290.964,18.216 291.483,18.141 291.969,17.991 C292.455,17.841 292.881,17.625 293.247,17.343 C293.613,17.061 293.901,16.716 294.111,16.308 C294.321,15.9 294.426,15.432 294.426,14.904 C294.426,14.148 294.201,13.53 293.751,13.05 C293.301,12.57 292.734,12.24 292.05,12.06 L292.05,12.06 L292.05,11.988 C292.674,11.748 293.163,11.412 293.517,10.98 C293.871,10.548 294.048,10.008 294.048,9.36 C294.048,8.88 293.958,8.451 293.778,8.073 C293.598,7.695 293.346,7.377 293.022,7.119 C292.698,6.861 292.308,6.666 291.852,6.534 C291.396,6.402 290.892,6.336 290.34,6.336 C289.656,6.336 289.035,6.468 288.477,6.732 C287.919,6.996 287.394,7.344 286.902,7.776 L286.902,7.776 L287.964,9.054 C288.312,8.73 288.669,8.469 289.035,8.271 C289.401,8.073 289.812,7.974 290.268,7.974 C290.796,7.974 291.21,8.109 291.51,8.379 C291.81,8.649 291.96,9.024 291.96,9.504 C291.96,9.768 291.909,10.014 291.807,10.242 C291.705,10.47 291.537,10.665 291.303,10.827 C291.069,10.989 290.763,11.115 290.385,11.205 C290.007,11.295 289.536,11.34 288.972,11.34 L288.972,11.34 L288.972,12.852 C289.62,12.852 290.16,12.897 290.592,12.987 C291.024,13.077 291.369,13.206 291.627,13.374 C291.885,13.542 292.068,13.746 292.176,13.986 C292.284,14.226 292.338,14.496 292.338,14.796 C292.338,15.336 292.143,15.759 291.753,16.065 C291.363,16.371 290.856,16.524 290.232,16.524 C289.656,16.524 289.146,16.401 288.702,16.155 C288.258,15.909 287.862,15.612 287.514,15.264 L287.514,15.264 L286.524,16.596 C286.932,17.052 287.448,17.436 288.072,17.748 C288.696,18.06 289.476,18.216 290.412,18.216 Z M297.81,18.216 C298.194,18.216 298.512,18.084 298.764,17.82 C299.016,17.556 299.142,17.22 299.142,16.812 C299.142,16.404 299.016,16.068 298.764,15.804 C298.512,15.54 298.194,15.408 297.81,15.408 C297.426,15.408 297.105,15.54 296.847,15.804 C296.589,16.068 296.46,16.404 296.46,16.812 C296.46,17.22 296.589,17.556 296.847,17.82 C297.105,18.084 297.426,18.216 297.81,18.216 Z M304.614,18.216 C305.142,18.216 305.649,18.129 306.135,17.955 C306.621,17.781 307.05,17.526 307.422,17.19 C307.794,16.854 308.091,16.44 308.313,15.948 C308.535,15.456 308.646,14.898 308.646,14.274 C308.646,13.662 308.55,13.131 308.358,12.681 C308.166,12.231 307.908,11.859 307.584,11.565 C307.26,11.271 306.879,11.052 306.441,10.908 C306.003,10.764 305.538,10.692 305.046,10.692 C304.746,10.692 304.479,10.725 304.245,10.791 C304.011,10.857 303.774,10.95 303.534,11.07 L303.534,11.07 L303.768,8.298 L308.088,8.298 L308.088,6.552 L301.968,6.552 L301.626,12.204 L302.616,12.834 C302.964,12.606 303.264,12.441 303.516,12.339 C303.768,12.237 304.08,12.186 304.452,12.186 C305.088,12.186 305.598,12.372 305.982,12.744 C306.366,13.116 306.558,13.644 306.558,14.328 C306.558,15.024 306.351,15.564 305.937,15.948 C305.523,16.332 304.992,16.524 304.344,16.524 C303.768,16.524 303.264,16.401 302.832,16.155 C302.4,15.909 302.01,15.624 301.662,15.3 L301.662,15.3 L300.708,16.632 C301.128,17.052 301.653,17.421 302.283,17.739 C302.913,18.057 303.69,18.216 304.614,18.216 Z M315.468,18 L315.468,7.992 L318.87,7.992 L318.87,6.228 L309.978,6.228 L309.978,7.992 L313.38,7.992 L313.38,18 L315.468,18 Z" id="TotalEstimatedValueofLegislation$3.5T" fill="#666666" fill-rule="nonzero"></path>
            </g>
        </g>
    </g>
</svg>