<?xml version="1.0" encoding="UTF-8"?>
<svg width="669px" height="149px" viewBox="0 0 669 149" version="1.1" xmlns="http://www.w3.org/2000/svg" xmlns:xlink="http://www.w3.org/1999/xlink">
    <title>Viz 1-B-Tablet</title>
    <defs>
        <rect id="path-1" x="456" y="107" width="157.48926" height="40"></rect>
        <mask id="mask-2" maskContentUnits="userSpaceOnUse" maskUnits="objectBoundingBox" x="0" y="0" width="157.48926" height="40" fill="white">
            <use xlink:href="#path-1"></use>
        </mask>
    </defs>
    <g id="SVG-Outlines" stroke="none" stroke-width="1" fill="none" fill-rule="evenodd">
        <g id="Tablet-Copy" transform="translate(-60.000000, -570.000000)">
            <g id="Viz-1-B-Tablet" transform="translate(61.000000, 570.000000)">
                <g id="Group-10" transform="translate(0.000000, 107.000000)" fill="#6F41A7">
                    <rect id="Rectangle" x="364.725537" y="0" width="86.7649165" height="40"></rect>
                    <rect id="Rectangle-Copy-13" x="7.64558473" y="0" width="355.079952" height="40"></rect>
                    <rect id="Rectangle-Copy-14" x="3.45823389" y="0" width="2.18735084" height="40"></rect>
                    <rect id="Rectangle-Copy-17" x="-9.12603326e-14" y="0" width="1.45823389" height="40"></rect>
                </g>
                <use id="Rectangle" stroke="#979797" mask="url(#mask-2)" stroke-width="2" fill="#E1E1E1" stroke-dasharray="4,3" xlink:href="#path-1"></use>
                <path d="M169.61,68 L169.61,63.884 C169.61,63.468 169.596,63.054 169.568,62.642 C169.54,62.23 169.51,61.824 169.478,61.424 L169.478,61.424 L169.526,61.424 L170.378,63.044 L173.234,68 L174.266,68 L174.266,60.128 L173.318,60.128 L173.318,64.196 C173.318,64.612 173.332,65.034 173.36,65.462 C173.388,65.89 173.414,66.304 173.438,66.704 L173.438,66.704 L173.39,66.704 L172.538,65.072 L169.694,60.128 L168.662,60.128 L168.662,68 L169.61,68 Z M181.082,68 L181.082,67.148 L177.422,67.148 L177.422,64.292 L180.41,64.292 L180.41,63.44 L177.422,63.44 L177.422,60.968 L180.962,60.968 L180.962,60.128 L176.426,60.128 L176.426,68 L181.082,68 Z M184.802,68 L185.966,63.26 C186.03,62.956 186.096,62.658 186.164,62.366 C186.232,62.074 186.298,61.776 186.362,61.472 L186.362,61.472 L186.41,61.472 C186.474,61.776 186.536,62.074 186.596,62.366 C186.656,62.658 186.722,62.956 186.794,63.26 L186.794,63.26 L187.982,68 L189.182,68 L190.814,60.128 L189.854,60.128 L189.026,64.412 C188.946,64.836 188.87,65.258 188.798,65.678 C188.726,66.098 188.654,66.524 188.582,66.956 L188.582,66.956 L188.534,66.956 C188.438,66.524 188.342,66.096 188.246,65.672 C188.15,65.248 188.054,64.828 187.958,64.412 L187.958,64.412 L186.866,60.128 L185.954,60.128 L184.862,64.412 C184.774,64.836 184.682,65.258 184.586,65.678 C184.49,66.098 184.398,66.524 184.31,66.956 L184.31,66.956 L184.262,66.956 C184.19,66.524 184.114,66.1 184.034,65.684 L183.917,65.054 L183.917,65.054 L183.806,64.412 L182.978,60.128 L181.946,60.128 L183.614,68 L184.802,68 Z M194.558,68 L195.314,65.6 L198.182,65.6 L198.926,68 L199.994,68 L197.33,60.128 L196.202,60.128 L193.538,68 L194.558,68 Z M197.93,64.796 L195.566,64.796 L195.938,63.596 C196.082,63.156 196.218,62.718 196.346,62.282 C196.474,61.846 196.598,61.4 196.718,60.944 L196.718,60.944 L196.766,60.944 C196.894,61.4 197.022,61.846 197.15,62.282 C197.278,62.718 197.414,63.156 197.558,63.596 L197.558,63.596 L197.93,64.796 Z M204.086,68.144 C204.614,68.144 205.086,68.058 205.502,67.886 C205.918,67.714 206.254,67.496 206.51,67.232 L206.51,67.232 L206.51,63.92 L203.93,63.92 L203.93,64.748 L205.598,64.748 L205.598,66.8 C205.438,66.944 205.232,67.058 204.98,67.142 C204.728,67.226 204.462,67.268 204.182,67.268 C203.758,67.268 203.384,67.192 203.06,67.04 C202.736,66.888 202.464,66.672 202.244,66.392 C202.024,66.112 201.856,65.774 201.74,65.378 C201.624,64.982 201.566,64.536 201.566,64.04 C201.566,63.552 201.628,63.112 201.752,62.72 C201.876,62.328 202.05,61.994 202.274,61.718 C202.498,61.442 202.77,61.23 203.09,61.082 C203.41,60.934 203.77,60.86 204.17,60.86 C204.57,60.86 204.902,60.932 205.166,61.076 C205.43,61.22 205.662,61.396 205.862,61.604 L205.862,61.604 L206.414,60.956 C206.302,60.836 206.172,60.718 206.024,60.602 C205.876,60.486 205.708,60.382 205.52,60.29 C205.332,60.198 205.124,60.124 204.896,60.068 C204.668,60.012 204.418,59.984 204.146,59.984 C203.626,59.984 203.144,60.078 202.7,60.266 C202.256,60.454 201.874,60.724 201.554,61.076 C201.234,61.428 200.984,61.856 200.804,62.36 C200.624,62.864 200.534,63.432 200.534,64.064 C200.534,64.704 200.622,65.278 200.798,65.786 C200.974,66.294 201.218,66.722 201.53,67.07 C201.842,67.418 202.216,67.684 202.652,67.868 C203.088,68.052 203.566,68.144 204.086,68.144 Z M213.05,68 L213.05,67.148 L209.39,67.148 L209.39,64.292 L212.378,64.292 L212.378,63.44 L209.39,63.44 L209.39,60.968 L212.93,60.968 L212.93,60.128 L208.394,60.128 L208.394,68 L213.05,68 Z M215.666,68 L215.666,63.884 C215.666,63.468 215.652,63.054 215.624,62.642 C215.596,62.23 215.566,61.824 215.534,61.424 L215.534,61.424 L215.582,61.424 L216.434,63.044 L219.29,68 L220.322,68 L220.322,60.128 L219.374,60.128 L219.374,64.196 C219.374,64.612 219.388,65.034 219.416,65.462 C219.444,65.89 219.47,66.304 219.494,66.704 L219.494,66.704 L219.446,66.704 L218.594,65.072 L215.75,60.128 L214.718,60.128 L214.718,68 L215.666,68 Z M225.458,68.144 C225.97,68.144 226.422,68.044 226.814,67.844 C227.206,67.644 227.558,67.364 227.87,67.004 L227.87,67.004 L227.318,66.38 C227.062,66.66 226.79,66.878 226.502,67.034 C226.214,67.19 225.878,67.268 225.494,67.268 C225.118,67.268 224.78,67.192 224.48,67.04 C224.18,66.888 223.926,66.672 223.718,66.392 C223.51,66.112 223.348,65.774 223.232,65.378 C223.116,64.982 223.058,64.536 223.058,64.04 C223.058,63.552 223.116,63.112 223.232,62.72 C223.348,62.328 223.514,61.994 223.73,61.718 C223.946,61.442 224.206,61.23 224.51,61.082 C224.814,60.934 225.154,60.86 225.53,60.86 C225.866,60.86 226.166,60.928 226.43,61.064 C226.694,61.2 226.93,61.38 227.138,61.604 L227.138,61.604 L227.678,60.956 C227.446,60.7 227.148,60.474 226.784,60.278 C226.42,60.082 225.998,59.984 225.518,59.984 C225.014,59.984 224.55,60.078 224.126,60.266 C223.702,60.454 223.334,60.724 223.022,61.076 C222.71,61.428 222.466,61.856 222.29,62.36 C222.114,62.864 222.026,63.432 222.026,64.064 C222.026,64.704 222.112,65.278 222.284,65.786 C222.456,66.294 222.696,66.722 223.004,67.07 C223.312,67.418 223.674,67.684 224.09,67.868 C224.506,68.052 224.962,68.144 225.458,68.144 Z M231.53,68 L231.53,64.952 L233.894,60.128 L232.85,60.128 L231.842,62.348 C231.722,62.636 231.594,62.92 231.458,63.2 C231.322,63.48 231.186,63.768 231.05,64.064 L231.05,64.064 L231.002,64.064 C230.866,63.768 230.738,63.48 230.618,63.2 C230.498,62.92 230.374,62.636 230.246,62.348 L230.246,62.348 L229.226,60.128 L228.158,60.128 L230.522,64.952 L230.522,68 L231.53,68 Z M238.358,68 L238.358,64.472 L241.358,64.472 L241.358,63.632 L238.358,63.632 L238.358,60.968 L241.898,60.968 L241.898,60.128 L237.362,60.128 L237.362,68 L238.358,68 Z M246.086,68.144 C246.486,68.144 246.858,68.086 247.202,67.97 C247.546,67.854 247.844,67.662 248.096,67.394 C248.348,67.126 248.546,66.776 248.69,66.344 C248.834,65.912 248.906,65.38 248.906,64.748 L248.906,64.748 L248.906,60.128 L247.946,60.128 L247.946,64.772 C247.946,65.244 247.898,65.64 247.802,65.96 C247.706,66.28 247.574,66.536 247.406,66.728 C247.238,66.92 247.042,67.058 246.818,67.142 C246.594,67.226 246.35,67.268 246.086,67.268 C245.83,67.268 245.59,67.226 245.366,67.142 C245.142,67.058 244.948,66.92 244.784,66.728 C244.62,66.536 244.49,66.28 244.394,65.96 C244.298,65.64 244.25,65.244 244.25,64.772 L244.25,64.772 L244.25,60.128 L243.254,60.128 L243.254,64.748 C243.254,65.38 243.326,65.912 243.47,66.344 C243.614,66.776 243.812,67.126 244.064,67.394 C244.316,67.662 244.616,67.854 244.964,67.97 C245.312,68.086 245.686,68.144 246.086,68.144 Z M251.978,68 L251.978,63.884 C251.978,63.468 251.964,63.054 251.936,62.642 C251.908,62.23 251.878,61.824 251.846,61.424 L251.846,61.424 L251.894,61.424 L252.746,63.044 L255.602,68 L256.634,68 L256.634,60.128 L255.686,60.128 L255.686,64.196 C255.686,64.612 255.7,65.034 255.728,65.462 C255.756,65.89 255.782,66.304 255.806,66.704 L255.806,66.704 L255.758,66.704 L254.906,65.072 L252.062,60.128 L251.03,60.128 L251.03,68 L251.978,68 Z M260.81,68 C261.402,68 261.926,67.91 262.382,67.73 C262.838,67.55 263.222,67.29 263.534,66.95 C263.846,66.61 264.082,66.194 264.242,65.702 C264.402,65.21 264.482,64.652 264.482,64.028 C264.482,62.772 264.166,61.808 263.534,61.136 C262.902,60.464 261.978,60.128 260.762,60.128 L260.762,60.128 L258.794,60.128 L258.794,68 L260.81,68 Z M260.69,67.184 L259.79,67.184 L259.79,60.944 L260.69,60.944 C261.61,60.944 262.3,61.208 262.76,61.736 C263.22,62.264 263.45,63.028 263.45,64.028 C263.45,65.028 263.22,65.804 262.76,66.356 C262.3,66.908 261.61,67.184 260.69,67.184 L260.69,67.184 Z M267.17,68 L267.17,60.128 L266.174,60.128 L266.174,68 L267.17,68 Z M270.278,68 L270.278,63.884 C270.278,63.468 270.264,63.054 270.236,62.642 C270.208,62.23 270.178,61.824 270.146,61.424 L270.146,61.424 L270.194,61.424 L271.046,63.044 L273.902,68 L274.934,68 L274.934,60.128 L273.986,60.128 L273.986,64.196 C273.986,64.612 274,65.034 274.028,65.462 C274.056,65.89 274.082,66.304 274.106,66.704 L274.106,66.704 L274.058,66.704 L273.206,65.072 L270.362,60.128 L269.33,60.128 L269.33,68 L270.278,68 Z M280.19,68.144 C280.718,68.144 281.19,68.058 281.606,67.886 C282.022,67.714 282.358,67.496 282.614,67.232 L282.614,67.232 L282.614,63.92 L280.034,63.92 L280.034,64.748 L281.702,64.748 L281.702,66.8 C281.542,66.944 281.336,67.058 281.084,67.142 C280.832,67.226 280.566,67.268 280.286,67.268 C279.862,67.268 279.488,67.192 279.164,67.04 C278.84,66.888 278.568,66.672 278.348,66.392 C278.128,66.112 277.96,65.774 277.844,65.378 C277.728,64.982 277.67,64.536 277.67,64.04 C277.67,63.552 277.732,63.112 277.856,62.72 C277.98,62.328 278.154,61.994 278.378,61.718 C278.602,61.442 278.874,61.23 279.194,61.082 C279.514,60.934 279.874,60.86 280.274,60.86 C280.674,60.86 281.006,60.932 281.27,61.076 C281.534,61.22 281.766,61.396 281.966,61.604 L281.966,61.604 L282.518,60.956 C282.406,60.836 282.276,60.718 282.128,60.602 C281.98,60.486 281.812,60.382 281.624,60.29 C281.436,60.198 281.228,60.124 281,60.068 C280.772,60.012 280.522,59.984 280.25,59.984 C279.73,59.984 279.248,60.078 278.804,60.266 C278.36,60.454 277.978,60.724 277.658,61.076 C277.338,61.428 277.088,61.856 276.908,62.36 C276.728,62.864 276.638,63.432 276.638,64.064 C276.638,64.704 276.726,65.278 276.902,65.786 C277.078,66.294 277.322,66.722 277.634,67.07 C277.946,67.418 278.32,67.684 278.756,67.868 C279.192,68.052 279.67,68.144 280.19,68.144 Z M211.436,84.32 L211.436,83.072 C212.06,82.936 212.528,82.662 212.84,82.25 C213.152,81.838 213.308,81.344 213.308,80.768 C213.308,80.384 213.23,80.062 213.074,79.802 C212.918,79.542 212.722,79.32 212.486,79.136 C212.25,78.952 211.996,78.796 211.724,78.668 C211.452,78.54 211.198,78.416 210.962,78.296 C210.726,78.176 210.53,78.05 210.374,77.918 C210.218,77.786 210.14,77.624 210.14,77.432 C210.14,77.16 210.216,76.964 210.368,76.844 C210.52,76.724 210.74,76.664 211.028,76.664 C211.284,76.664 211.512,76.714 211.712,76.814 C211.912,76.914 212.12,77.064 212.336,77.264 L212.336,77.264 L213.224,76.256 C212.992,76.008 212.732,75.796 212.444,75.62 C212.156,75.444 211.82,75.328 211.436,75.272 L211.436,75.272 L211.436,74.06 L210.272,74.06 L210.272,75.296 C209.704,75.408 209.258,75.658 208.934,76.046 C208.61,76.434 208.448,76.924 208.448,77.516 C208.448,77.876 208.526,78.18 208.682,78.428 C208.838,78.676 209.034,78.892 209.27,79.076 C209.506,79.26 209.76,79.418 210.032,79.55 C210.304,79.682 210.558,79.814 210.794,79.946 C211.03,80.078 211.226,80.216 211.382,80.36 C211.538,80.504 211.616,80.68 211.616,80.888 C211.616,81.168 211.538,81.376 211.382,81.512 C211.226,81.648 210.98,81.716 210.644,81.716 C210.356,81.716 210.074,81.658 209.798,81.542 C209.522,81.426 209.232,81.252 208.928,81.02 L208.928,81.02 L208.16,82.208 C208.44,82.464 208.774,82.67 209.162,82.826 C209.55,82.982 209.92,83.08 210.272,83.12 L210.272,83.12 L210.272,84.32 L211.436,84.32 Z M219.836,83 L219.836,81.512 L218.3,81.512 C218.116,81.512 217.906,81.522 217.67,81.542 C217.434,81.562 217.22,81.584 217.028,81.608 C217.34,81.288 217.642,80.962 217.934,80.63 C218.226,80.298 218.486,79.966 218.714,79.634 C218.942,79.302 219.124,78.97 219.26,78.638 C219.396,78.306 219.464,77.98 219.464,77.66 C219.464,77.292 219.404,76.96 219.284,76.664 C219.164,76.368 218.992,76.114 218.768,75.902 C218.544,75.69 218.278,75.526 217.97,75.41 C217.662,75.294 217.32,75.236 216.944,75.236 C216.4,75.236 215.932,75.338 215.54,75.542 C215.148,75.746 214.764,76.048 214.388,76.448 L214.388,76.448 L215.348,77.396 C215.54,77.188 215.744,77.006 215.96,76.85 C216.176,76.694 216.424,76.616 216.704,76.616 C217.04,76.616 217.304,76.714 217.496,76.91 C217.688,77.106 217.784,77.392 217.784,77.768 C217.784,78.04 217.702,78.326 217.538,78.626 C217.374,78.926 217.146,79.25 216.854,79.598 C216.562,79.946 216.214,80.318 215.81,80.714 C215.406,81.11 214.96,81.536 214.472,81.992 L214.472,81.992 L214.472,83 L219.836,83 Z M222.164,83.144 C222.468,83.144 222.722,83.038 222.926,82.826 C223.13,82.614 223.232,82.352 223.232,82.04 C223.232,81.72 223.13,81.454 222.926,81.242 C222.722,81.03 222.468,80.924 222.164,80.924 C221.86,80.924 221.606,81.03 221.402,81.242 C221.198,81.454 221.096,81.72 221.096,82.04 C221.096,82.352 221.198,82.614 221.402,82.826 C221.606,83.038 221.86,83.144 222.164,83.144 Z M226.928,83.144 C227.296,83.144 227.65,83.084 227.99,82.964 C228.33,82.844 228.628,82.67 228.884,82.442 C229.14,82.214 229.344,81.936 229.496,81.608 C229.648,81.28 229.724,80.904 229.724,80.48 C229.724,80.072 229.66,79.72 229.532,79.424 C229.404,79.128 229.228,78.884 229.004,78.692 C228.78,78.5 228.522,78.356 228.23,78.26 C227.938,78.164 227.628,78.116 227.3,78.116 C227.14,78.116 226.994,78.13 226.862,78.158 C226.73,78.186 226.592,78.232 226.448,78.296 L226.448,78.296 L226.58,76.868 L229.376,76.868 L229.376,75.38 L225.056,75.38 L224.84,79.232 L225.632,79.736 C225.744,79.664 225.846,79.604 225.938,79.556 C226.03,79.508 226.118,79.468 226.202,79.436 C226.286,79.404 226.372,79.382 226.46,79.37 C226.548,79.358 226.648,79.352 226.76,79.352 C227.12,79.352 227.41,79.452 227.63,79.652 C227.85,79.852 227.96,80.144 227.96,80.528 C227.96,80.92 227.844,81.216 227.612,81.416 C227.38,81.616 227.068,81.716 226.676,81.716 C226.348,81.716 226.05,81.642 225.782,81.494 C225.514,81.346 225.264,81.168 225.032,80.96 L225.032,80.96 L224.24,82.076 C224.544,82.38 224.912,82.634 225.344,82.838 C225.776,83.042 226.304,83.144 226.928,83.144 Z M233.456,83.144 C233.864,83.144 234.234,83.09 234.566,82.982 C234.898,82.874 235.182,82.726 235.418,82.538 C235.654,82.35 235.836,82.128 235.964,81.872 C236.092,81.616 236.156,81.336 236.156,81.032 C236.156,80.528 236.028,80.12 235.772,79.808 C235.516,79.496 235.204,79.24 234.836,79.04 L234.836,79.04 L234.836,78.992 C235.1,78.816 235.332,78.586 235.532,78.302 C235.732,78.018 235.832,77.692 235.832,77.324 C235.832,77.012 235.776,76.726 235.664,76.466 C235.552,76.206 235.396,75.986 235.196,75.806 C234.996,75.626 234.752,75.486 234.464,75.386 C234.176,75.286 233.86,75.236 233.516,75.236 C233.164,75.236 232.838,75.284 232.538,75.38 C232.238,75.476 231.98,75.616 231.764,75.8 C231.548,75.984 231.38,76.206 231.26,76.466 C231.14,76.726 231.08,77.016 231.08,77.336 C231.08,77.744 231.176,78.09 231.368,78.374 C231.56,78.658 231.804,78.912 232.1,79.136 L232.1,79.136 L232.1,79.184 C231.74,79.376 231.434,79.62 231.182,79.916 C230.93,80.212 230.804,80.592 230.804,81.056 C230.804,81.368 230.87,81.652 231.002,81.908 C231.134,82.164 231.318,82.384 231.554,82.568 C231.79,82.752 232.07,82.894 232.394,82.994 C232.718,83.094 233.072,83.144 233.456,83.144 Z M233.936,78.56 C233.544,78.408 233.228,78.244 232.988,78.068 C232.748,77.892 232.628,77.648 232.628,77.336 C232.628,77.04 232.712,76.82 232.88,76.676 C233.048,76.532 233.248,76.46 233.48,76.46 C233.768,76.46 233.994,76.55 234.158,76.73 C234.322,76.91 234.404,77.148 234.404,77.444 C234.404,77.828 234.248,78.2 233.936,78.56 Z M233.492,81.92 C233.172,81.92 232.896,81.826 232.664,81.638 C232.432,81.45 232.316,81.188 232.316,80.852 C232.316,80.62 232.372,80.4 232.484,80.192 C232.596,79.984 232.736,79.8 232.904,79.64 C233.144,79.744 233.362,79.84 233.558,79.928 C233.754,80.016 233.924,80.11 234.068,80.21 C234.212,80.31 234.322,80.42 234.398,80.54 C234.474,80.66 234.512,80.804 234.512,80.972 C234.512,81.292 234.416,81.53 234.224,81.686 C234.032,81.842 233.788,81.92 233.492,81.92 Z M240.86,83 L240.86,76.664 L243.008,76.664 L243.008,75.176 L236.936,75.176 L236.936,76.664 L239.084,76.664 L239.084,83 L240.86,83 Z" id="NEWAGENCYFUNDING$2.58T" fill="#666666" fill-rule="nonzero"></path>
                <path d="M146.958,18 L146.958,7.992 L150.36,7.992 L150.36,6.228 L141.468,6.228 L141.468,7.992 L144.87,7.992 L144.87,18 L146.958,18 Z M154.482,18.216 C155.034,18.216 155.565,18.114 156.075,17.91 C156.585,17.706 157.032,17.406 157.416,17.01 C157.8,16.614 158.109,16.128 158.343,15.552 C158.577,14.976 158.694,14.322 158.694,13.59 C158.694,12.858 158.577,12.204 158.343,11.628 C158.109,11.052 157.8,10.566 157.416,10.17 C157.032,9.774 156.585,9.471 156.075,9.261 C155.565,9.051 155.034,8.946 154.482,8.946 C153.93,8.946 153.402,9.051 152.898,9.261 C152.394,9.471 151.947,9.774 151.557,10.17 C151.167,10.566 150.858,11.052 150.63,11.628 C150.402,12.204 150.288,12.858 150.288,13.59 C150.288,14.322 150.402,14.976 150.63,15.552 C150.858,16.128 151.167,16.614 151.557,17.01 C151.947,17.406 152.394,17.706 152.898,17.91 C153.402,18.114 153.93,18.216 154.482,18.216 Z M154.482,16.524 C153.834,16.524 153.327,16.257 152.961,15.723 C152.595,15.189 152.412,14.478 152.412,13.59 C152.412,12.69 152.595,11.973 152.961,11.439 C153.327,10.905 153.834,10.638 154.482,10.638 C155.13,10.638 155.64,10.905 156.012,11.439 C156.384,11.973 156.57,12.69 156.57,13.59 C156.57,14.478 156.384,15.189 156.012,15.723 C155.64,16.257 155.13,16.524 154.482,16.524 Z M163.464,18.216 C163.812,18.216 164.139,18.183 164.445,18.117 C164.751,18.051 165.024,17.976 165.264,17.892 L165.264,17.892 L164.904,16.362 C164.772,16.422 164.625,16.47 164.463,16.506 C164.301,16.542 164.142,16.56 163.986,16.56 C163.158,16.56 162.744,16.044 162.744,15.012 L162.744,15.012 L162.744,10.8 L164.994,10.8 L164.994,9.162 L162.744,9.162 L162.744,6.75 L161.016,6.75 L160.764,9.162 L159.396,9.252 L159.396,10.8 L160.656,10.8 L160.656,15.012 C160.656,15.492 160.707,15.927 160.809,16.317 C160.911,16.707 161.073,17.043 161.295,17.325 C161.517,17.607 161.805,17.826 162.159,17.982 C162.513,18.138 162.948,18.216 163.464,18.216 Z M168.612,18.216 C169.14,18.216 169.629,18.102 170.079,17.874 C170.529,17.646 170.952,17.364 171.348,17.028 L171.348,17.028 L171.42,17.028 L171.564,18 L173.274,18 L173.274,12.762 C173.274,11.526 173.001,10.581 172.455,9.927 C171.909,9.273 171.084,8.946 169.98,8.946 C169.272,8.946 168.612,9.06 168,9.288 C167.388,9.516 166.836,9.786 166.344,10.098 L166.344,10.098 L167.1,11.484 C167.496,11.244 167.901,11.04 168.315,10.872 C168.729,10.704 169.152,10.62 169.584,10.62 C169.884,10.62 170.136,10.665 170.34,10.755 C170.544,10.845 170.709,10.971 170.835,11.133 C170.961,11.295 171.051,11.481 171.105,11.691 C171.159,11.901 171.192,12.12 171.204,12.348 C170.292,12.444 169.509,12.582 168.855,12.762 C168.201,12.942 167.661,13.164 167.235,13.428 C166.809,13.692 166.497,14.007 166.299,14.373 C166.101,14.739 166.002,15.156 166.002,15.624 C166.002,16.404 166.242,17.031 166.722,17.505 C167.202,17.979 167.832,18.216 168.612,18.216 Z M169.278,16.596 C168.906,16.596 168.6,16.506 168.36,16.326 C168.12,16.146 168,15.858 168,15.462 C168,15.246 168.054,15.042 168.162,14.85 C168.27,14.658 168.45,14.487 168.702,14.337 C168.954,14.187 169.284,14.052 169.692,13.932 C170.1,13.812 170.604,13.716 171.204,13.644 L171.204,13.644 L171.204,15.624 C170.868,15.936 170.553,16.176 170.259,16.344 C169.965,16.512 169.638,16.596 169.278,16.596 Z M177.774,18.216 C178.23,18.216 178.596,18.156 178.872,18.036 L178.872,18.036 L178.602,16.488 C178.518,16.512 178.455,16.524 178.413,16.524 L178.413,16.524 L178.278,16.524 C178.17,16.524 178.068,16.473 177.972,16.371 C177.876,16.269 177.828,16.092 177.828,15.84 L177.828,15.84 L177.828,5.292 L175.758,5.292 L175.758,15.732 C175.758,16.5 175.908,17.106 176.208,17.55 C176.508,17.994 177.03,18.216 177.774,18.216 Z M191.688,18 L191.688,16.236 L186.504,16.236 L186.504,12.762 L190.734,12.762 L190.734,10.998 L186.504,10.998 L186.504,7.992 L191.508,7.992 L191.508,6.228 L184.416,6.228 L184.416,18 L191.688,18 Z M196.386,18.216 C196.938,18.216 197.43,18.144 197.862,18 C198.294,17.856 198.654,17.661 198.942,17.415 C199.23,17.169 199.449,16.881 199.599,16.551 C199.749,16.221 199.824,15.864 199.824,15.48 C199.824,15.072 199.749,14.721 199.599,14.427 C199.449,14.133 199.251,13.884 199.005,13.68 C198.759,13.476 198.486,13.305 198.186,13.167 C197.886,13.029 197.586,12.906 197.286,12.798 C197.046,12.714 196.815,12.63 196.593,12.546 C196.371,12.462 196.176,12.372 196.008,12.276 C195.84,12.18 195.705,12.069 195.603,11.943 C195.501,11.817 195.45,11.664 195.45,11.484 C195.45,11.208 195.555,10.977 195.765,10.791 C195.975,10.605 196.302,10.512 196.746,10.512 C197.094,10.512 197.427,10.581 197.745,10.719 C198.063,10.857 198.378,11.04 198.69,11.268 L198.69,11.268 L199.644,10.008 C199.284,9.732 198.858,9.486 198.366,9.27 C197.874,9.054 197.322,8.946 196.71,8.946 C195.714,8.946 194.928,9.192 194.352,9.684 C193.776,10.176 193.488,10.812 193.488,11.592 C193.488,11.964 193.563,12.285 193.713,12.555 C193.863,12.825 194.055,13.062 194.289,13.266 C194.523,13.47 194.79,13.644 195.09,13.788 C195.39,13.932 195.684,14.058 195.972,14.166 C196.2,14.262 196.428,14.355 196.656,14.445 C196.884,14.535 197.088,14.634 197.268,14.742 C197.448,14.85 197.592,14.973 197.7,15.111 C197.808,15.249 197.862,15.408 197.862,15.588 C197.862,15.9 197.748,16.155 197.52,16.353 C197.292,16.551 196.938,16.65 196.458,16.65 C196.002,16.65 195.579,16.563 195.189,16.389 C194.799,16.215 194.406,15.972 194.01,15.66 L194.01,15.66 L193.038,16.992 C193.47,17.34 193.983,17.631 194.577,17.865 C195.171,18.099 195.774,18.216 196.386,18.216 Z M204.432,18.216 C204.78,18.216 205.107,18.183 205.413,18.117 C205.719,18.051 205.992,17.976 206.232,17.892 L206.232,17.892 L205.872,16.362 C205.74,16.422 205.593,16.47 205.431,16.506 C205.269,16.542 205.11,16.56 204.954,16.56 C204.126,16.56 203.712,16.044 203.712,15.012 L203.712,15.012 L203.712,10.8 L205.962,10.8 L205.962,9.162 L203.712,9.162 L203.712,6.75 L201.984,6.75 L201.732,9.162 L200.364,9.252 L200.364,10.8 L201.624,10.8 L201.624,15.012 C201.624,15.492 201.675,15.927 201.777,16.317 C201.879,16.707 202.041,17.043 202.263,17.325 C202.485,17.607 202.773,17.826 203.127,17.982 C203.481,18.138 203.916,18.216 204.432,18.216 Z M208.86,7.614 C209.232,7.614 209.538,7.506 209.778,7.29 C210.018,7.074 210.138,6.792 210.138,6.444 C210.138,6.096 210.018,5.811 209.778,5.589 C209.538,5.367 209.232,5.256 208.86,5.256 C208.488,5.256 208.182,5.367 207.942,5.589 C207.702,5.811 207.582,6.096 207.582,6.444 C207.582,6.792 207.702,7.074 207.942,7.29 C208.182,7.506 208.488,7.614 208.86,7.614 Z M209.886,18 L209.886,9.162 L207.816,9.162 L207.816,18 L209.886,18 Z M214.602,18 L214.602,11.826 C215.286,11.094 215.904,10.728 216.456,10.728 C216.924,10.728 217.269,10.878 217.491,11.178 C217.713,11.478 217.824,11.994 217.824,12.726 L217.824,12.726 L217.824,18 L219.894,18 L219.894,11.826 C220.578,11.094 221.196,10.728 221.748,10.728 C222.204,10.728 222.543,10.878 222.765,11.178 C222.987,11.478 223.098,11.994 223.098,12.726 L223.098,12.726 L223.098,18 L225.186,18 L225.186,12.456 C225.186,11.328 224.964,10.461 224.52,9.855 C224.076,9.249 223.386,8.946 222.45,8.946 C221.886,8.946 221.376,9.096 220.92,9.396 C220.464,9.696 220.026,10.074 219.606,10.53 C219.402,10.026 219.105,9.636 218.715,9.36 C218.325,9.084 217.806,8.946 217.158,8.946 C216.606,8.946 216.111,9.084 215.673,9.36 C215.235,9.636 214.83,9.972 214.458,10.368 L214.458,10.368 L214.386,10.368 L214.242,9.162 L212.532,9.162 L212.532,18 L214.602,18 Z M229.848,18.216 C230.376,18.216 230.865,18.102 231.315,17.874 C231.765,17.646 232.188,17.364 232.584,17.028 L232.584,17.028 L232.656,17.028 L232.8,18 L234.51,18 L234.51,12.762 C234.51,11.526 234.237,10.581 233.691,9.927 C233.145,9.273 232.32,8.946 231.216,8.946 C230.508,8.946 229.848,9.06 229.236,9.288 C228.624,9.516 228.072,9.786 227.58,10.098 L227.58,10.098 L228.336,11.484 C228.732,11.244 229.137,11.04 229.551,10.872 C229.965,10.704 230.388,10.62 230.82,10.62 C231.12,10.62 231.372,10.665 231.576,10.755 C231.78,10.845 231.945,10.971 232.071,11.133 C232.197,11.295 232.287,11.481 232.341,11.691 C232.395,11.901 232.428,12.12 232.44,12.348 C231.528,12.444 230.745,12.582 230.091,12.762 C229.437,12.942 228.897,13.164 228.471,13.428 C228.045,13.692 227.733,14.007 227.535,14.373 C227.337,14.739 227.238,15.156 227.238,15.624 C227.238,16.404 227.478,17.031 227.958,17.505 C228.438,17.979 229.068,18.216 229.848,18.216 Z M230.514,16.596 C230.142,16.596 229.836,16.506 229.596,16.326 C229.356,16.146 229.236,15.858 229.236,15.462 C229.236,15.246 229.29,15.042 229.398,14.85 C229.506,14.658 229.686,14.487 229.938,14.337 C230.19,14.187 230.52,14.052 230.928,13.932 C231.336,13.812 231.84,13.716 232.44,13.644 L232.44,13.644 L232.44,15.624 C232.104,15.936 231.789,16.176 231.495,16.344 C231.201,16.512 230.874,16.596 230.514,16.596 Z M239.82,18.216 C240.168,18.216 240.495,18.183 240.801,18.117 C241.107,18.051 241.38,17.976 241.62,17.892 L241.62,17.892 L241.26,16.362 C241.128,16.422 240.981,16.47 240.819,16.506 C240.657,16.542 240.498,16.56 240.342,16.56 C239.514,16.56 239.1,16.044 239.1,15.012 L239.1,15.012 L239.1,10.8 L241.35,10.8 L241.35,9.162 L239.1,9.162 L239.1,6.75 L237.372,6.75 L237.12,9.162 L235.752,9.252 L235.752,10.8 L237.012,10.8 L237.012,15.012 C237.012,15.492 237.063,15.927 237.165,16.317 C237.267,16.707 237.429,17.043 237.651,17.325 C237.873,17.607 238.161,17.826 238.515,17.982 C238.869,18.138 239.304,18.216 239.82,18.216 Z M246.696,18.216 C247.26,18.216 247.8,18.126 248.316,17.946 C248.832,17.766 249.3,17.538 249.72,17.262 L249.72,17.262 L249.018,15.966 C248.694,16.17 248.367,16.329 248.037,16.443 C247.707,16.557 247.35,16.614 246.966,16.614 C246.246,16.614 245.655,16.401 245.193,15.975 C244.731,15.549 244.452,14.94 244.356,14.148 L244.356,14.148 L249.972,14.148 C249.996,14.04 250.017,13.896 250.035,13.716 C250.053,13.536 250.062,13.344 250.062,13.14 C250.062,12.528 249.984,11.964 249.828,11.448 C249.672,10.932 249.441,10.488 249.135,10.116 C248.829,9.744 248.448,9.456 247.992,9.252 C247.536,9.048 247.008,8.946 246.408,8.946 C245.892,8.946 245.388,9.054 244.896,9.27 C244.404,9.486 243.969,9.792 243.591,10.188 C243.213,10.584 242.91,11.07 242.682,11.646 C242.454,12.222 242.34,12.87 242.34,13.59 C242.34,14.322 242.451,14.973 242.673,15.543 C242.895,16.113 243.204,16.596 243.6,16.992 C243.996,17.388 244.458,17.691 244.986,17.901 C245.514,18.111 246.084,18.216 246.696,18.216 Z M248.262,12.744 L244.338,12.744 C244.434,12.024 244.68,11.478 245.076,11.106 C245.472,10.734 245.934,10.548 246.462,10.548 C247.074,10.548 247.527,10.743 247.821,11.133 C248.115,11.523 248.262,12.06 248.262,12.744 L248.262,12.744 Z M255.138,18.216 C255.618,18.216 256.074,18.102 256.506,17.874 C256.938,17.646 257.316,17.37 257.64,17.046 L257.64,17.046 L257.712,17.046 L257.856,18 L259.566,18 L259.566,5.292 L257.496,5.292 L257.496,8.496 L257.568,9.918 C257.22,9.618 256.872,9.381 256.524,9.207 C256.176,9.033 255.75,8.946 255.246,8.946 C254.766,8.946 254.301,9.054 253.851,9.27 C253.401,9.486 253.002,9.792 252.654,10.188 C252.306,10.584 252.027,11.07 251.817,11.646 C251.607,12.222 251.502,12.87 251.502,13.59 C251.502,15.054 251.829,16.191 252.483,17.001 C253.137,17.811 254.022,18.216 255.138,18.216 Z M255.642,16.506 C254.994,16.506 254.499,16.257 254.157,15.759 C253.815,15.261 253.644,14.532 253.644,13.572 C253.644,12.636 253.842,11.916 254.238,11.412 C254.634,10.908 255.12,10.656 255.696,10.656 C255.996,10.656 256.293,10.71 256.587,10.818 C256.881,10.926 257.184,11.118 257.496,11.394 L257.496,11.394 L257.496,15.516 C256.92,16.176 256.302,16.506 255.642,16.506 Z M270.546,18 L274.2,6.228 L272.058,6.228 L270.42,12.15 C270.24,12.822 270.075,13.458 269.925,14.058 C269.775,14.658 269.598,15.3 269.394,15.984 L269.394,15.984 L269.322,15.984 C269.118,15.3 268.941,14.658 268.791,14.058 C268.641,13.458 268.47,12.822 268.278,12.15 L268.278,12.15 L266.622,6.228 L264.408,6.228 L268.08,18 L270.546,18 Z M277.062,18.216 C277.59,18.216 278.079,18.102 278.529,17.874 C278.979,17.646 279.402,17.364 279.798,17.028 L279.798,17.028 L279.87,17.028 L280.014,18 L281.724,18 L281.724,12.762 C281.724,11.526 281.451,10.581 280.905,9.927 C280.359,9.273 279.534,8.946 278.43,8.946 C277.722,8.946 277.062,9.06 276.45,9.288 C275.838,9.516 275.286,9.786 274.794,10.098 L274.794,10.098 L275.55,11.484 C275.946,11.244 276.351,11.04 276.765,10.872 C277.179,10.704 277.602,10.62 278.034,10.62 C278.334,10.62 278.586,10.665 278.79,10.755 C278.994,10.845 279.159,10.971 279.285,11.133 C279.411,11.295 279.501,11.481 279.555,11.691 C279.609,11.901 279.642,12.12 279.654,12.348 C278.742,12.444 277.959,12.582 277.305,12.762 C276.651,12.942 276.111,13.164 275.685,13.428 C275.259,13.692 274.947,14.007 274.749,14.373 C274.551,14.739 274.452,15.156 274.452,15.624 C274.452,16.404 274.692,17.031 275.172,17.505 C275.652,17.979 276.282,18.216 277.062,18.216 Z M277.728,16.596 C277.356,16.596 277.05,16.506 276.81,16.326 C276.57,16.146 276.45,15.858 276.45,15.462 C276.45,15.246 276.504,15.042 276.612,14.85 C276.72,14.658 276.9,14.487 277.152,14.337 C277.404,14.187 277.734,14.052 278.142,13.932 C278.55,13.812 279.054,13.716 279.654,13.644 L279.654,13.644 L279.654,15.624 C279.318,15.936 279.003,16.176 278.709,16.344 C278.415,16.512 278.088,16.596 277.728,16.596 Z M286.224,18.216 C286.68,18.216 287.046,18.156 287.322,18.036 L287.322,18.036 L287.052,16.488 C286.968,16.512 286.905,16.524 286.863,16.524 L286.863,16.524 L286.728,16.524 C286.62,16.524 286.518,16.473 286.422,16.371 C286.326,16.269 286.278,16.092 286.278,15.84 L286.278,15.84 L286.278,5.292 L284.208,5.292 L284.208,15.732 C284.208,16.5 284.358,17.106 284.658,17.55 C284.958,17.994 285.48,18.216 286.224,18.216 Z M291.714,18.216 C292.326,18.216 292.857,18.078 293.307,17.802 C293.757,17.526 294.174,17.16 294.558,16.704 L294.558,16.704 L294.612,16.704 L294.774,18 L296.466,18 L296.466,9.162 L294.396,9.162 L294.396,15.21 C294.06,15.642 293.745,15.954 293.451,16.146 C293.157,16.338 292.818,16.434 292.434,16.434 C291.954,16.434 291.606,16.284 291.39,15.984 C291.174,15.684 291.066,15.168 291.066,14.436 L291.066,14.436 L291.066,9.162 L288.996,9.162 L288.996,14.706 C288.996,15.834 289.212,16.701 289.644,17.307 C290.076,17.913 290.766,18.216 291.714,18.216 Z M302.874,18.216 C303.438,18.216 303.978,18.126 304.494,17.946 C305.01,17.766 305.478,17.538 305.898,17.262 L305.898,17.262 L305.196,15.966 C304.872,16.17 304.545,16.329 304.215,16.443 C303.885,16.557 303.528,16.614 303.144,16.614 C302.424,16.614 301.833,16.401 301.371,15.975 C300.909,15.549 300.63,14.94 300.534,14.148 L300.534,14.148 L306.15,14.148 C306.174,14.04 306.195,13.896 306.213,13.716 C306.231,13.536 306.24,13.344 306.24,13.14 C306.24,12.528 306.162,11.964 306.006,11.448 C305.85,10.932 305.619,10.488 305.313,10.116 C305.007,9.744 304.626,9.456 304.17,9.252 C303.714,9.048 303.186,8.946 302.586,8.946 C302.07,8.946 301.566,9.054 301.074,9.27 C300.582,9.486 300.147,9.792 299.769,10.188 C299.391,10.584 299.088,11.07 298.86,11.646 C298.632,12.222 298.518,12.87 298.518,13.59 C298.518,14.322 298.629,14.973 298.851,15.543 C299.073,16.113 299.382,16.596 299.778,16.992 C300.174,17.388 300.636,17.691 301.164,17.901 C301.692,18.111 302.262,18.216 302.874,18.216 Z M304.44,12.744 L300.516,12.744 C300.612,12.024 300.858,11.478 301.254,11.106 C301.65,10.734 302.112,10.548 302.64,10.548 C303.252,10.548 303.705,10.743 303.999,11.133 C304.293,11.523 304.44,12.06 304.44,12.744 L304.44,12.744 Z M315.438,18.216 C315.99,18.216 316.521,18.114 317.031,17.91 C317.541,17.706 317.988,17.406 318.372,17.01 C318.756,16.614 319.065,16.128 319.299,15.552 C319.533,14.976 319.65,14.322 319.65,13.59 C319.65,12.858 319.533,12.204 319.299,11.628 C319.065,11.052 318.756,10.566 318.372,10.17 C317.988,9.774 317.541,9.471 317.031,9.261 C316.521,9.051 315.99,8.946 315.438,8.946 C314.886,8.946 314.358,9.051 313.854,9.261 C313.35,9.471 312.903,9.774 312.513,10.17 C312.123,10.566 311.814,11.052 311.586,11.628 C311.358,12.204 311.244,12.858 311.244,13.59 C311.244,14.322 311.358,14.976 311.586,15.552 C311.814,16.128 312.123,16.614 312.513,17.01 C312.903,17.406 313.35,17.706 313.854,17.91 C314.358,18.114 314.886,18.216 315.438,18.216 Z M315.438,16.524 C314.79,16.524 314.283,16.257 313.917,15.723 C313.551,15.189 313.368,14.478 313.368,13.59 C313.368,12.69 313.551,11.973 313.917,11.439 C314.283,10.905 314.79,10.638 315.438,10.638 C316.086,10.638 316.596,10.905 316.968,11.439 C317.34,11.973 317.526,12.69 317.526,13.59 C317.526,14.478 317.34,15.189 316.968,15.723 C316.596,16.257 316.086,16.524 315.438,16.524 Z M324.06,18 L324.06,10.8 L325.788,10.8 L325.788,9.162 L324.06,9.162 L324.06,8.208 C324.06,7.212 324.432,6.714 325.176,6.714 C325.5,6.714 325.824,6.786 326.148,6.93 L326.148,6.93 L326.544,5.382 C326.34,5.298 326.097,5.226 325.815,5.166 C325.533,5.106 325.236,5.076 324.924,5.076 C324.396,5.076 323.949,5.154 323.583,5.31 C323.217,5.466 322.914,5.685 322.674,5.967 C322.434,6.249 322.26,6.585 322.152,6.975 C322.044,7.365 321.99,7.788 321.99,8.244 L321.99,8.244 L321.99,9.162 L320.802,9.252 L320.802,10.8 L321.99,10.8 L321.99,18 L324.06,18 Z M338.1,18 L338.1,16.236 L333.204,16.236 L333.204,6.228 L331.116,6.228 L331.116,18 L338.1,18 Z M343.518,18.216 C344.082,18.216 344.622,18.126 345.138,17.946 C345.654,17.766 346.122,17.538 346.542,17.262 L346.542,17.262 L345.84,15.966 C345.516,16.17 345.189,16.329 344.859,16.443 C344.529,16.557 344.172,16.614 343.788,16.614 C343.068,16.614 342.477,16.401 342.015,15.975 C341.553,15.549 341.274,14.94 341.178,14.148 L341.178,14.148 L346.794,14.148 C346.818,14.04 346.839,13.896 346.857,13.716 C346.875,13.536 346.884,13.344 346.884,13.14 C346.884,12.528 346.806,11.964 346.65,11.448 C346.494,10.932 346.263,10.488 345.957,10.116 C345.651,9.744 345.27,9.456 344.814,9.252 C344.358,9.048 343.83,8.946 343.23,8.946 C342.714,8.946 342.21,9.054 341.718,9.27 C341.226,9.486 340.791,9.792 340.413,10.188 C340.035,10.584 339.732,11.07 339.504,11.646 C339.276,12.222 339.162,12.87 339.162,13.59 C339.162,14.322 339.273,14.973 339.495,15.543 C339.717,16.113 340.026,16.596 340.422,16.992 C340.818,17.388 341.28,17.691 341.808,17.901 C342.336,18.111 342.906,18.216 343.518,18.216 Z M345.084,12.744 L341.16,12.744 C341.256,12.024 341.502,11.478 341.898,11.106 C342.294,10.734 342.756,10.548 343.284,10.548 C343.896,10.548 344.349,10.743 344.643,11.133 C344.937,11.523 345.084,12.06 345.084,12.744 L345.084,12.744 Z M351.762,21.906 C352.482,21.906 353.133,21.825 353.715,21.663 C354.297,21.501 354.792,21.282 355.2,21.006 C355.608,20.73 355.923,20.4 356.145,20.016 C356.367,19.632 356.478,19.224 356.478,18.792 C356.478,18.024 356.205,17.469 355.659,17.127 C355.113,16.785 354.306,16.614 353.238,16.614 L353.238,16.614 L351.672,16.614 C351.132,16.614 350.757,16.542 350.547,16.398 C350.337,16.254 350.232,16.056 350.232,15.804 C350.232,15.6 350.271,15.438 350.349,15.318 C350.427,15.198 350.532,15.078 350.664,14.958 C350.868,15.042 351.072,15.102 351.276,15.138 C351.48,15.174 351.678,15.192 351.87,15.192 C352.338,15.192 352.776,15.126 353.184,14.994 C353.592,14.862 353.946,14.67 354.246,14.418 C354.546,14.166 354.783,13.854 354.957,13.482 C355.131,13.11 355.218,12.678 355.218,12.186 C355.218,11.874 355.17,11.589 355.074,11.331 C354.978,11.073 354.858,10.86 354.714,10.692 L354.714,10.692 L356.334,10.692 L356.334,9.162 L353.166,9.162 C352.986,9.102 352.785,9.051 352.563,9.009 C352.341,8.967 352.11,8.946 351.87,8.946 C351.402,8.946 350.958,9.015 350.538,9.153 C350.118,9.291 349.749,9.495 349.431,9.765 C349.113,10.035 348.858,10.368 348.666,10.764 C348.474,11.16 348.378,11.61 348.378,12.114 C348.378,12.642 348.495,13.107 348.729,13.509 C348.963,13.911 349.23,14.226 349.53,14.454 L349.53,14.454 L349.53,14.526 C349.278,14.706 349.053,14.937 348.855,15.219 C348.657,15.501 348.558,15.816 348.558,16.164 C348.558,16.524 348.633,16.824 348.783,17.064 C348.933,17.304 349.122,17.496 349.35,17.64 L349.35,17.64 L349.35,17.712 C348.942,17.964 348.63,18.249 348.414,18.567 C348.198,18.885 348.09,19.23 348.09,19.602 C348.09,19.986 348.183,20.322 348.369,20.61 C348.555,20.898 348.81,21.138 349.134,21.33 C349.458,21.522 349.845,21.666 350.295,21.762 C350.745,21.858 351.234,21.906 351.762,21.906 Z M351.87,13.896 C351.438,13.896 351.072,13.743 350.772,13.437 C350.472,13.131 350.322,12.69 350.322,12.114 C350.322,11.55 350.472,11.118 350.772,10.818 C351.072,10.518 351.438,10.368 351.87,10.368 C352.302,10.368 352.665,10.521 352.959,10.827 C353.253,11.133 353.4,11.562 353.4,12.114 C353.4,12.69 353.25,13.131 352.95,13.437 C352.65,13.743 352.29,13.896 351.87,13.896 Z M352.086,20.556 C351.378,20.556 350.823,20.445 350.421,20.223 C350.019,20.001 349.818,19.692 349.818,19.296 C349.818,18.864 350.046,18.474 350.502,18.126 C350.826,18.21 351.228,18.252 351.708,18.252 L351.708,18.252 L352.914,18.252 C353.418,18.252 353.805,18.312 354.075,18.432 C354.345,18.552 354.48,18.786 354.48,19.134 C354.48,19.518 354.261,19.851 353.823,20.133 C353.385,20.415 352.806,20.556 352.086,20.556 Z M359.088,7.614 C359.46,7.614 359.766,7.506 360.006,7.29 C360.246,7.074 360.366,6.792 360.366,6.444 C360.366,6.096 360.246,5.811 360.006,5.589 C359.766,5.367 359.46,5.256 359.088,5.256 C358.716,5.256 358.41,5.367 358.17,5.589 C357.93,5.811 357.81,6.096 357.81,6.444 C357.81,6.792 357.93,7.074 358.17,7.29 C358.41,7.506 358.716,7.614 359.088,7.614 Z M360.114,18 L360.114,9.162 L358.044,9.162 L358.044,18 L360.114,18 Z M365.226,18.216 C365.778,18.216 366.27,18.144 366.702,18 C367.134,17.856 367.494,17.661 367.782,17.415 C368.07,17.169 368.289,16.881 368.439,16.551 C368.589,16.221 368.664,15.864 368.664,15.48 C368.664,15.072 368.589,14.721 368.439,14.427 C368.289,14.133 368.091,13.884 367.845,13.68 C367.599,13.476 367.326,13.305 367.026,13.167 C366.726,13.029 366.426,12.906 366.126,12.798 C365.886,12.714 365.655,12.63 365.433,12.546 C365.211,12.462 365.016,12.372 364.848,12.276 C364.68,12.18 364.545,12.069 364.443,11.943 C364.341,11.817 364.29,11.664 364.29,11.484 C364.29,11.208 364.395,10.977 364.605,10.791 C364.815,10.605 365.142,10.512 365.586,10.512 C365.934,10.512 366.267,10.581 366.585,10.719 C366.903,10.857 367.218,11.04 367.53,11.268 L367.53,11.268 L368.484,10.008 C368.124,9.732 367.698,9.486 367.206,9.27 C366.714,9.054 366.162,8.946 365.55,8.946 C364.554,8.946 363.768,9.192 363.192,9.684 C362.616,10.176 362.328,10.812 362.328,11.592 C362.328,11.964 362.403,12.285 362.553,12.555 C362.703,12.825 362.895,13.062 363.129,13.266 C363.363,13.47 363.63,13.644 363.93,13.788 C364.23,13.932 364.524,14.058 364.812,14.166 C365.04,14.262 365.268,14.355 365.496,14.445 C365.724,14.535 365.928,14.634 366.108,14.742 C366.288,14.85 366.432,14.973 366.54,15.111 C366.648,15.249 366.702,15.408 366.702,15.588 C366.702,15.9 366.588,16.155 366.36,16.353 C366.132,16.551 365.778,16.65 365.298,16.65 C364.842,16.65 364.419,16.563 364.029,16.389 C363.639,16.215 363.246,15.972 362.85,15.66 L362.85,15.66 L361.878,16.992 C362.31,17.34 362.823,17.631 363.417,17.865 C364.011,18.099 364.614,18.216 365.226,18.216 Z M372.534,18.216 C372.99,18.216 373.356,18.156 373.632,18.036 L373.632,18.036 L373.362,16.488 C373.278,16.512 373.215,16.524 373.173,16.524 L373.173,16.524 L373.038,16.524 C372.93,16.524 372.828,16.473 372.732,16.371 C372.636,16.269 372.588,16.092 372.588,15.84 L372.588,15.84 L372.588,5.292 L370.518,5.292 L370.518,15.732 C370.518,16.5 370.668,17.106 370.968,17.55 C371.268,17.994 371.79,18.216 372.534,18.216 Z M377.538,18.216 C378.066,18.216 378.555,18.102 379.005,17.874 C379.455,17.646 379.878,17.364 380.274,17.028 L380.274,17.028 L380.346,17.028 L380.49,18 L382.2,18 L382.2,12.762 C382.2,11.526 381.927,10.581 381.381,9.927 C380.835,9.273 380.01,8.946 378.906,8.946 C378.198,8.946 377.538,9.06 376.926,9.288 C376.314,9.516 375.762,9.786 375.27,10.098 L375.27,10.098 L376.026,11.484 C376.422,11.244 376.827,11.04 377.241,10.872 C377.655,10.704 378.078,10.62 378.51,10.62 C378.81,10.62 379.062,10.665 379.266,10.755 C379.47,10.845 379.635,10.971 379.761,11.133 C379.887,11.295 379.977,11.481 380.031,11.691 C380.085,11.901 380.118,12.12 380.13,12.348 C379.218,12.444 378.435,12.582 377.781,12.762 C377.127,12.942 376.587,13.164 376.161,13.428 C375.735,13.692 375.423,14.007 375.225,14.373 C375.027,14.739 374.928,15.156 374.928,15.624 C374.928,16.404 375.168,17.031 375.648,17.505 C376.128,17.979 376.758,18.216 377.538,18.216 Z M378.204,16.596 C377.832,16.596 377.526,16.506 377.286,16.326 C377.046,16.146 376.926,15.858 376.926,15.462 C376.926,15.246 376.98,15.042 377.088,14.85 C377.196,14.658 377.376,14.487 377.628,14.337 C377.88,14.187 378.21,14.052 378.618,13.932 C379.026,13.812 379.53,13.716 380.13,13.644 L380.13,13.644 L380.13,15.624 C379.794,15.936 379.479,16.176 379.185,16.344 C378.891,16.512 378.564,16.596 378.204,16.596 Z M387.51,18.216 C387.858,18.216 388.185,18.183 388.491,18.117 C388.797,18.051 389.07,17.976 389.31,17.892 L389.31,17.892 L388.95,16.362 C388.818,16.422 388.671,16.47 388.509,16.506 C388.347,16.542 388.188,16.56 388.032,16.56 C387.204,16.56 386.79,16.044 386.79,15.012 L386.79,15.012 L386.79,10.8 L389.04,10.8 L389.04,9.162 L386.79,9.162 L386.79,6.75 L385.062,6.75 L384.81,9.162 L383.442,9.252 L383.442,10.8 L384.702,10.8 L384.702,15.012 C384.702,15.492 384.753,15.927 384.855,16.317 C384.957,16.707 385.119,17.043 385.341,17.325 C385.563,17.607 385.851,17.826 386.205,17.982 C386.559,18.138 386.994,18.216 387.51,18.216 Z M391.938,7.614 C392.31,7.614 392.616,7.506 392.856,7.29 C393.096,7.074 393.216,6.792 393.216,6.444 C393.216,6.096 393.096,5.811 392.856,5.589 C392.616,5.367 392.31,5.256 391.938,5.256 C391.566,5.256 391.26,5.367 391.02,5.589 C390.78,5.811 390.66,6.096 390.66,6.444 C390.66,6.792 390.78,7.074 391.02,7.29 C391.26,7.506 391.566,7.614 391.938,7.614 Z M392.964,18 L392.964,9.162 L390.894,9.162 L390.894,18 L392.964,18 Z M399.228,18.216 C399.78,18.216 400.311,18.114 400.821,17.91 C401.331,17.706 401.778,17.406 402.162,17.01 C402.546,16.614 402.855,16.128 403.089,15.552 C403.323,14.976 403.44,14.322 403.44,13.59 C403.44,12.858 403.323,12.204 403.089,11.628 C402.855,11.052 402.546,10.566 402.162,10.17 C401.778,9.774 401.331,9.471 400.821,9.261 C400.311,9.051 399.78,8.946 399.228,8.946 C398.676,8.946 398.148,9.051 397.644,9.261 C397.14,9.471 396.693,9.774 396.303,10.17 C395.913,10.566 395.604,11.052 395.376,11.628 C395.148,12.204 395.034,12.858 395.034,13.59 C395.034,14.322 395.148,14.976 395.376,15.552 C395.604,16.128 395.913,16.614 396.303,17.01 C396.693,17.406 397.14,17.706 397.644,17.91 C398.148,18.114 398.676,18.216 399.228,18.216 Z M399.228,16.524 C398.58,16.524 398.073,16.257 397.707,15.723 C397.341,15.189 397.158,14.478 397.158,13.59 C397.158,12.69 397.341,11.973 397.707,11.439 C398.073,10.905 398.58,10.638 399.228,10.638 C399.876,10.638 400.386,10.905 400.758,11.439 C401.13,11.973 401.316,12.69 401.316,13.59 C401.316,14.478 401.13,15.189 400.758,15.723 C400.386,16.257 399.876,16.524 399.228,16.524 Z M407.562,18 L407.562,11.826 C407.934,11.466 408.267,11.193 408.561,11.007 C408.855,10.821 409.194,10.728 409.578,10.728 C410.07,10.728 410.424,10.878 410.64,11.178 C410.856,11.478 410.964,11.994 410.964,12.726 L410.964,12.726 L410.964,18 L413.034,18 L413.034,12.456 C413.034,11.328 412.818,10.461 412.386,9.855 C411.954,9.249 411.264,8.946 410.316,8.946 C409.704,8.946 409.167,9.084 408.705,9.36 C408.243,9.636 407.814,9.966 407.418,10.35 L407.418,10.35 L407.346,10.35 L407.202,9.162 L405.492,9.162 L405.492,18 L407.562,18 Z M423.222,19.98 L423.222,18.126 C424.122,17.958 424.812,17.583 425.292,17.001 C425.772,16.419 426.012,15.696 426.012,14.832 C426.012,14.232 425.892,13.731 425.652,13.329 C425.412,12.927 425.109,12.588 424.743,12.312 C424.377,12.036 423.984,11.799 423.564,11.601 C423.144,11.403 422.751,11.205 422.385,11.007 C422.019,10.809 421.716,10.593 421.476,10.359 C421.236,10.125 421.116,9.828 421.116,9.468 C421.116,9 421.254,8.643 421.53,8.397 C421.806,8.151 422.19,8.028 422.682,8.028 C423.114,8.028 423.486,8.109 423.798,8.271 C424.11,8.433 424.434,8.67 424.77,8.982 L424.77,8.982 L425.832,7.776 C425.496,7.428 425.121,7.125 424.707,6.867 C424.293,6.609 423.798,6.444 423.222,6.372 L423.222,6.372 L423.222,4.572 L421.782,4.572 L421.782,6.408 C420.966,6.552 420.318,6.903 419.838,7.461 C419.358,8.019 419.118,8.718 419.118,9.558 C419.118,10.122 419.238,10.593 419.478,10.971 C419.718,11.349 420.021,11.673 420.387,11.943 C420.753,12.213 421.146,12.447 421.566,12.645 C421.986,12.843 422.379,13.05 422.745,13.266 C423.111,13.482 423.414,13.722 423.654,13.986 C423.894,14.25 424.014,14.58 424.014,14.976 C424.014,15.468 423.87,15.849 423.582,16.119 C423.294,16.389 422.856,16.524 422.268,16.524 C421.776,16.524 421.314,16.422 420.882,16.218 C420.45,16.014 420.024,15.744 419.604,15.408 L419.604,15.408 L418.668,16.812 C419.076,17.196 419.559,17.505 420.117,17.739 C420.675,17.973 421.23,18.12 421.782,18.18 L421.782,18.18 L421.782,19.98 L423.222,19.98 Z M431.412,18.216 C431.964,18.216 432.483,18.141 432.969,17.991 C433.455,17.841 433.881,17.625 434.247,17.343 C434.613,17.061 434.901,16.716 435.111,16.308 C435.321,15.9 435.426,15.432 435.426,14.904 C435.426,14.148 435.201,13.53 434.751,13.05 C434.301,12.57 433.734,12.24 433.05,12.06 L433.05,12.06 L433.05,11.988 C433.674,11.748 434.163,11.412 434.517,10.98 C434.871,10.548 435.048,10.008 435.048,9.36 C435.048,8.88 434.958,8.451 434.778,8.073 C434.598,7.695 434.346,7.377 434.022,7.119 C433.698,6.861 433.308,6.666 432.852,6.534 C432.396,6.402 431.892,6.336 431.34,6.336 C430.656,6.336 430.035,6.468 429.477,6.732 C428.919,6.996 428.394,7.344 427.902,7.776 L427.902,7.776 L428.964,9.054 C429.312,8.73 429.669,8.469 430.035,8.271 C430.401,8.073 430.812,7.974 431.268,7.974 C431.796,7.974 432.21,8.109 432.51,8.379 C432.81,8.649 432.96,9.024 432.96,9.504 C432.96,9.768 432.909,10.014 432.807,10.242 C432.705,10.47 432.537,10.665 432.303,10.827 C432.069,10.989 431.763,11.115 431.385,11.205 C431.007,11.295 430.536,11.34 429.972,11.34 L429.972,11.34 L429.972,12.852 C430.62,12.852 431.16,12.897 431.592,12.987 C432.024,13.077 432.369,13.206 432.627,13.374 C432.885,13.542 433.068,13.746 433.176,13.986 C433.284,14.226 433.338,14.496 433.338,14.796 C433.338,15.336 433.143,15.759 432.753,16.065 C432.363,16.371 431.856,16.524 431.232,16.524 C430.656,16.524 430.146,16.401 429.702,16.155 C429.258,15.909 428.862,15.612 428.514,15.264 L428.514,15.264 L427.524,16.596 C427.932,17.052 428.448,17.436 429.072,17.748 C429.696,18.06 430.476,18.216 431.412,18.216 Z M438.81,18.216 C439.194,18.216 439.512,18.084 439.764,17.82 C440.016,17.556 440.142,17.22 440.142,16.812 C440.142,16.404 440.016,16.068 439.764,15.804 C439.512,15.54 439.194,15.408 438.81,15.408 C438.426,15.408 438.105,15.54 437.847,15.804 C437.589,16.068 437.46,16.404 437.46,16.812 C437.46,17.22 437.589,17.556 437.847,17.82 C438.105,18.084 438.426,18.216 438.81,18.216 Z M448.602,18 L448.602,15.048 L450.042,15.048 L450.042,13.446 L448.602,13.446 L448.602,6.552 L446.136,6.552 L441.6,13.644 L441.6,15.048 L446.658,15.048 L446.658,18 L448.602,18 Z M446.658,13.446 L443.652,13.446 L445.74,10.26 C445.908,9.948 446.07,9.648 446.226,9.36 C446.382,9.072 446.532,8.778 446.676,8.478 L446.676,8.478 L446.748,8.478 C446.724,8.814 446.703,9.21 446.685,9.666 C446.667,10.122 446.658,10.518 446.658,10.854 L446.658,10.854 L446.658,13.446 Z M455.136,18.216 C455.712,18.216 456.24,18.138 456.72,17.982 C457.2,17.826 457.608,17.607 457.944,17.325 C458.28,17.043 458.541,16.713 458.727,16.335 C458.913,15.957 459.006,15.546 459.006,15.102 C459.006,14.718 458.952,14.376 458.844,14.076 C458.736,13.776 458.592,13.506 458.412,13.266 C458.232,13.026 458.022,12.813 457.782,12.627 C457.542,12.441 457.29,12.276 457.026,12.132 L457.026,12.132 L457.026,12.06 C457.206,11.928 457.389,11.769 457.575,11.583 C457.761,11.397 457.926,11.193 458.07,10.971 C458.214,10.749 458.331,10.509 458.421,10.251 C458.511,9.993 458.556,9.72 458.556,9.432 C458.556,8.964 458.478,8.541 458.322,8.163 C458.166,7.785 457.941,7.461 457.647,7.191 C457.353,6.921 456.999,6.711 456.585,6.561 C456.171,6.411 455.706,6.336 455.19,6.336 C454.698,6.336 454.239,6.408 453.813,6.552 C453.387,6.696 453.021,6.9 452.715,7.164 C452.409,7.428 452.169,7.746 451.995,8.118 C451.821,8.49 451.734,8.91 451.734,9.378 C451.734,9.99 451.887,10.512 452.193,10.944 C452.499,11.376 452.874,11.748 453.318,12.06 L453.318,12.06 L453.318,12.132 C453.042,12.276 452.781,12.444 452.535,12.636 C452.289,12.828 452.07,13.044 451.878,13.284 C451.686,13.524 451.533,13.791 451.419,14.085 C451.305,14.379 451.248,14.706 451.248,15.066 C451.248,15.534 451.347,15.96 451.545,16.344 C451.743,16.728 452.013,17.058 452.355,17.334 C452.697,17.61 453.105,17.826 453.579,17.982 C454.053,18.138 454.572,18.216 455.136,18.216 Z M455.892,11.538 C455.568,11.418 455.268,11.289 454.992,11.151 C454.716,11.013 454.473,10.863 454.263,10.701 C454.053,10.539 453.888,10.35 453.768,10.134 C453.648,9.918 453.588,9.666 453.588,9.378 C453.588,8.874 453.738,8.487 454.038,8.217 C454.338,7.947 454.71,7.812 455.154,7.812 C455.694,7.812 456.111,7.977 456.405,8.307 C456.699,8.637 456.846,9.054 456.846,9.558 C456.846,9.918 456.765,10.26 456.603,10.584 C456.441,10.908 456.204,11.226 455.892,11.538 Z M455.172,16.74 C454.584,16.74 454.086,16.569 453.678,16.227 C453.27,15.885 453.066,15.426 453.066,14.85 C453.066,14.406 453.183,14.004 453.417,13.644 C453.651,13.284 453.948,12.972 454.308,12.708 C454.692,12.864 455.052,13.014 455.388,13.158 C455.724,13.302 456.015,13.461 456.261,13.635 C456.507,13.809 456.702,14.007 456.846,14.229 C456.99,14.451 457.062,14.718 457.062,15.03 C457.062,15.57 456.885,15.99 456.531,16.29 C456.177,16.59 455.724,16.74 455.172,16.74 Z M465.702,18 L465.702,7.992 L469.104,7.992 L469.104,6.228 L460.212,6.228 L460.212,7.992 L463.614,7.992 L463.614,18 L465.702,18 Z" id="TotalEstimatedValueofLegislation$3.48T" fill="#666666" fill-rule="nonzero"></path>
                <path d="M1,105 L1,41 L613,41 L613,105" id="Path-21" stroke="#D8D8D8" stroke-dasharray="3,3"></path>
                <polyline id="Path-21-Copy" stroke="#979797" stroke-width="0.5" points="0 107 0 99 450 99 450 107"></polyline>
                <line x1="617" y1="126.56981" x2="623" y2="126.43019" id="Line-14-Copy-2" stroke="#979797" stroke-width="0.5" stroke-linecap="square"></line>
                <path d="M630.72,116 L630.72,108.968 L633.096,108.968 L633.096,108.128 L627.336,108.128 L627.336,108.968 L629.712,108.968 L629.712,116 L630.72,116 Z M634.008,116 L634.764,113.6 L637.632,113.6 L638.376,116 L639.444,116 L636.78,108.128 L635.652,108.128 L632.988,116 L634.008,116 Z M637.38,112.796 L635.016,112.796 L635.388,111.596 C635.532,111.156 635.668,110.718 635.796,110.282 C635.924,109.846 636.048,109.4 636.168,108.944 L636.168,108.944 L636.216,108.944 C636.344,109.4 636.472,109.846 636.6,110.282 C636.728,110.718 636.864,111.156 637.008,111.596 L637.008,111.596 L637.38,112.796 Z M640.764,116 L641.904,113.876 C642,113.684 642.1,113.486 642.204,113.282 C642.308,113.078 642.416,112.856 642.528,112.616 L642.528,112.616 L642.576,112.616 C642.704,112.856 642.822,113.078 642.93,113.282 C643.038,113.486 643.144,113.684 643.248,113.876 L643.248,113.876 L644.4,116 L645.504,116 L643.212,111.98 L645.36,108.128 L644.304,108.128 L643.26,110.144 C643.164,110.328 643.074,110.506 642.99,110.678 C642.906,110.85 642.808,111.052 642.696,111.284 L642.696,111.284 L642.648,111.284 C642.528,111.052 642.422,110.85 642.33,110.678 C642.238,110.506 642.14,110.328 642.036,110.144 L642.036,110.144 L640.968,108.128 L639.864,108.128 L642,111.932 L639.708,116 L640.764,116 Z M629.076,131 L629.076,127.676 L630.504,127.676 L632.4,131 L633.528,131 L631.524,127.568 C632.068,127.432 632.5,127.18 632.82,126.812 C633.14,126.444 633.3,125.952 633.3,125.336 C633.3,124.928 633.232,124.584 633.096,124.304 C632.96,124.024 632.77,123.796 632.526,123.62 C632.282,123.444 631.99,123.318 631.65,123.242 C631.31,123.166 630.94,123.128 630.54,123.128 L630.54,123.128 L628.08,123.128 L628.08,131 L629.076,131 Z M630.396,126.86 L629.076,126.86 L629.076,123.932 L630.396,123.932 C631.012,123.932 631.484,124.036 631.812,124.244 C632.14,124.452 632.304,124.816 632.304,125.336 C632.304,125.848 632.14,126.23 631.812,126.482 C631.484,126.734 631.012,126.86 630.396,126.86 L630.396,126.86 Z M639.564,131 L639.564,130.148 L635.904,130.148 L635.904,127.292 L638.892,127.292 L638.892,126.44 L635.904,126.44 L635.904,123.968 L639.444,123.968 L639.444,123.128 L634.908,123.128 L634.908,131 L639.564,131 Z M645.672,131 L645.672,130.148 L642.228,130.148 L642.228,123.128 L641.232,123.128 L641.232,131 L645.672,131 Z M648.06,131 L648.06,123.128 L647.064,123.128 L647.064,131 L648.06,131 Z M654.876,131 L654.876,130.148 L651.216,130.148 L651.216,127.292 L654.204,127.292 L654.204,126.44 L651.216,126.44 L651.216,123.968 L654.756,123.968 L654.756,123.128 L650.22,123.128 L650.22,131 L654.876,131 Z M657.54,131 L657.54,127.472 L660.54,127.472 L660.54,126.632 L657.54,126.632 L657.54,123.968 L661.08,123.968 L661.08,123.128 L656.544,123.128 L656.544,131 L657.54,131 Z M630.744,147.32 L630.744,146.072 C631.368,145.936 631.836,145.662 632.148,145.25 C632.46,144.838 632.616,144.344 632.616,143.768 C632.616,143.384 632.538,143.062 632.382,142.802 C632.226,142.542 632.03,142.32 631.794,142.136 C631.558,141.952 631.304,141.796 631.032,141.668 C630.76,141.54 630.506,141.416 630.27,141.296 C630.034,141.176 629.838,141.05 629.682,140.918 C629.526,140.786 629.448,140.624 629.448,140.432 C629.448,140.16 629.524,139.964 629.676,139.844 C629.828,139.724 630.048,139.664 630.336,139.664 C630.592,139.664 630.82,139.714 631.02,139.814 C631.22,139.914 631.428,140.064 631.644,140.264 L631.644,140.264 L632.532,139.256 C632.3,139.008 632.04,138.796 631.752,138.62 C631.464,138.444 631.128,138.328 630.744,138.272 L630.744,138.272 L630.744,137.06 L629.58,137.06 L629.58,138.296 C629.012,138.408 628.566,138.658 628.242,139.046 C627.918,139.434 627.756,139.924 627.756,140.516 C627.756,140.876 627.834,141.18 627.99,141.428 C628.146,141.676 628.342,141.892 628.578,142.076 C628.814,142.26 629.068,142.418 629.34,142.55 C629.612,142.682 629.866,142.814 630.102,142.946 C630.338,143.078 630.534,143.216 630.69,143.36 C630.846,143.504 630.924,143.68 630.924,143.888 C630.924,144.168 630.846,144.376 630.69,144.512 C630.534,144.648 630.288,144.716 629.952,144.716 C629.664,144.716 629.382,144.658 629.106,144.542 C628.83,144.426 628.54,144.252 628.236,144.02 L628.236,144.02 L627.468,145.208 C627.748,145.464 628.082,145.67 628.47,145.826 C628.858,145.982 629.228,146.08 629.58,146.12 L629.58,146.12 L629.58,147.32 L630.744,147.32 Z M636.084,146.144 C636.484,146.144 636.87,146.062 637.242,145.898 C637.614,145.734 637.942,145.484 638.226,145.148 C638.51,144.812 638.738,144.384 638.91,143.864 C639.082,143.344 639.168,142.728 639.168,142.016 C639.168,141.344 639.086,140.77 638.922,140.294 C638.758,139.818 638.542,139.428 638.274,139.124 C638.006,138.82 637.698,138.596 637.35,138.452 C637.002,138.308 636.644,138.236 636.276,138.236 C635.932,138.236 635.606,138.294 635.298,138.41 C634.99,138.526 634.722,138.696 634.494,138.92 C634.266,139.144 634.084,139.414 633.948,139.73 C633.812,140.046 633.744,140.4 633.744,140.792 C633.744,141.192 633.802,141.54 633.918,141.836 C634.034,142.132 634.192,142.376 634.392,142.568 C634.592,142.76 634.83,142.904 635.106,143 C635.382,143.096 635.684,143.144 636.012,143.144 C636.132,143.144 636.26,143.126 636.396,143.09 C636.532,143.054 636.668,143.002 636.804,142.934 C636.94,142.866 637.072,142.782 637.2,142.682 C637.328,142.582 637.44,142.468 637.536,142.34 C637.52,142.788 637.47,143.162 637.386,143.462 C637.302,143.762 637.19,144.006 637.05,144.194 C636.91,144.382 636.748,144.516 636.564,144.596 C636.38,144.676 636.18,144.716 635.964,144.716 C635.74,144.716 635.52,144.662 635.304,144.554 C635.088,144.446 634.916,144.32 634.788,144.176 L634.788,144.176 L633.852,145.232 C634.092,145.472 634.398,145.684 634.77,145.868 C635.142,146.052 635.58,146.144 636.084,146.144 Z M636.36,141.896 C636.072,141.896 635.832,141.814 635.64,141.65 C635.448,141.486 635.352,141.2 635.352,140.792 C635.352,140.36 635.448,140.046 635.64,139.85 C635.832,139.654 636.056,139.556 636.312,139.556 C636.584,139.556 636.83,139.67 637.05,139.898 C637.27,140.126 637.42,140.54 637.5,141.14 C637.348,141.412 637.17,141.606 636.966,141.722 C636.762,141.838 636.56,141.896 636.36,141.896 Z M642.84,146.144 C643.248,146.144 643.62,146.058 643.956,145.886 C644.292,145.714 644.578,145.46 644.814,145.124 C645.05,144.788 645.234,144.372 645.366,143.876 C645.498,143.38 645.564,142.808 645.564,142.16 C645.564,141.512 645.498,140.944 645.366,140.456 C645.234,139.968 645.05,139.558 644.814,139.226 C644.578,138.894 644.292,138.646 643.956,138.482 C643.62,138.318 643.248,138.236 642.84,138.236 C642.432,138.236 642.06,138.318 641.724,138.482 C641.388,138.646 641.102,138.894 640.866,139.226 C640.63,139.558 640.446,139.968 640.314,140.456 C640.182,140.944 640.116,141.512 640.116,142.16 C640.116,142.808 640.182,143.38 640.314,143.876 C640.446,144.372 640.63,144.788 640.866,145.124 C641.102,145.46 641.388,145.714 641.724,145.886 C642.06,146.058 642.432,146.144 642.84,146.144 Z M642.84,144.776 C642.696,144.776 642.56,144.738 642.432,144.662 C642.304,144.586 642.192,144.448 642.096,144.248 C642,144.048 641.924,143.78 641.868,143.444 C641.812,143.108 641.784,142.68 641.784,142.16 C641.784,141.64 641.812,141.214 641.868,140.882 C641.924,140.55 642,140.29 642.096,140.102 C642.192,139.914 642.304,139.784 642.432,139.712 C642.56,139.64 642.696,139.604 642.84,139.604 C642.992,139.604 643.132,139.64 643.26,139.712 C643.388,139.784 643.5,139.914 643.596,140.102 C643.692,140.29 643.766,140.55 643.818,140.882 C643.87,141.214 643.896,141.64 643.896,142.16 C643.896,142.68 643.87,143.108 643.818,143.444 C643.766,143.78 643.692,144.048 643.596,144.248 C643.5,144.448 643.388,144.586 643.26,144.662 C643.132,144.738 642.992,144.776 642.84,144.776 Z M651.816,146 L651.816,144.512 L650.28,144.512 C650.096,144.512 649.886,144.522 649.65,144.542 C649.414,144.562 649.2,144.584 649.008,144.608 C649.32,144.288 649.622,143.962 649.914,143.63 C650.206,143.298 650.466,142.966 650.694,142.634 C650.922,142.302 651.104,141.97 651.24,141.638 C651.376,141.306 651.444,140.98 651.444,140.66 C651.444,140.292 651.384,139.96 651.264,139.664 C651.144,139.368 650.972,139.114 650.748,138.902 C650.524,138.69 650.258,138.526 649.95,138.41 C649.642,138.294 649.3,138.236 648.924,138.236 C648.38,138.236 647.912,138.338 647.52,138.542 C647.128,138.746 646.744,139.048 646.368,139.448 L646.368,139.448 L647.328,140.396 C647.52,140.188 647.724,140.006 647.94,139.85 C648.156,139.694 648.404,139.616 648.684,139.616 C649.02,139.616 649.284,139.714 649.476,139.91 C649.668,140.106 649.764,140.392 649.764,140.768 C649.764,141.04 649.682,141.326 649.518,141.626 C649.354,141.926 649.126,142.25 648.834,142.598 C648.542,142.946 648.194,143.318 647.79,143.714 C647.386,144.11 646.94,144.536 646.452,144.992 L646.452,144.992 L646.452,146 L651.816,146 Z M656.172,146 C656.596,146 656.992,145.954 657.36,145.862 C657.728,145.77 658.05,145.63 658.326,145.442 C658.602,145.254 658.818,145.016 658.974,144.728 C659.13,144.44 659.208,144.096 659.208,143.696 C659.208,143.432 659.172,143.198 659.1,142.994 C659.028,142.79 658.928,142.612 658.8,142.46 C658.672,142.308 658.524,142.182 658.356,142.082 C658.188,141.982 658.004,141.908 657.804,141.86 L657.804,141.86 L657.804,141.812 C657.964,141.756 658.106,141.668 658.23,141.548 C658.354,141.428 658.46,141.292 658.548,141.14 C658.636,140.988 658.704,140.824 658.752,140.648 C658.8,140.472 658.824,140.296 658.824,140.12 C658.824,139.744 658.75,139.432 658.602,139.184 C658.454,138.936 658.25,138.736 657.99,138.584 C657.73,138.432 657.426,138.326 657.078,138.266 C656.73,138.206 656.352,138.176 655.944,138.176 L655.944,138.176 L653.268,138.176 L653.268,146 L656.172,146 Z M655.86,141.308 L655.032,141.308 L655.032,139.544 L655.872,139.544 C656.288,139.544 656.596,139.608 656.796,139.736 C656.996,139.864 657.096,140.08 657.096,140.384 C657.096,140.664 656.998,140.888 656.802,141.056 C656.606,141.224 656.292,141.308 655.86,141.308 L655.86,141.308 Z M656.028,144.632 L655.032,144.632 L655.032,142.616 L656.028,142.616 C656.516,142.616 656.88,142.69 657.12,142.838 C657.36,142.986 657.48,143.232 657.48,143.576 C657.48,144.28 656.996,144.632 656.028,144.632 L656.028,144.632 Z" id="TAXRELIEF$902B" fill="#666666" fill-rule="nonzero"></path>
                <line x1="307.5" y1="39.5" x2="307.5" y2="27.5" id="Line-14" stroke="#D8D8D8" stroke-linecap="round" stroke-linejoin="round" stroke-dasharray="3,3"></line>
                <line x1="225.5" y1="99" x2="225.5" y2="91" id="Line-14-Copy" stroke="#979797" stroke-width="0.5" stroke-linecap="square"></line>
            </g>
        </g>
    </g>
</svg>