<?xml version="1.0" encoding="UTF-8"?>
<svg width="945px" height="140px" viewBox="0 0 945 140" version="1.1" xmlns="http://www.w3.org/2000/svg" xmlns:xlink="http://www.w3.org/1999/xlink">
    <title>Viz 1-C-Desktop</title>
    <g id="SVG" stroke="none" stroke-width="1" fill="none" fill-rule="evenodd">
        <g id="Viz-1---Desktop-Outline" transform="translate(-99.000000, -661.000000)">
            <g id="Viz-1-C-Desktop" transform="translate(100.000000, 661.000000)">
                <path d="M55.62,68.144 C56.02,68.144 56.392,68.086 56.736,67.97 C57.08,67.854 57.378,67.662 57.63,67.394 C57.882,67.126 58.08,66.776 58.224,66.344 C58.368,65.912 58.44,65.38 58.44,64.748 L58.44,64.748 L58.44,60.128 L57.48,60.128 L57.48,64.772 C57.48,65.244 57.432,65.64 57.336,65.96 C57.24,66.28 57.108,66.536 56.94,66.728 C56.772,66.92 56.576,67.058 56.352,67.142 C56.128,67.226 55.884,67.268 55.62,67.268 C55.364,67.268 55.124,67.226 54.9,67.142 C54.676,67.058 54.482,66.92 54.318,66.728 C54.154,66.536 54.024,66.28 53.928,65.96 C53.832,65.64 53.784,65.244 53.784,64.772 L53.784,64.772 L53.784,60.128 L52.788,60.128 L52.788,64.748 C52.788,65.38 52.86,65.912 53.004,66.344 C53.148,66.776 53.346,67.126 53.598,67.394 C53.85,67.662 54.15,67.854 54.498,67.97 C54.846,68.086 55.22,68.144 55.62,68.144 Z M63.204,68 L63.204,60.968 L65.58,60.968 L65.58,60.128 L59.82,60.128 L59.82,60.968 L62.196,60.968 L62.196,68 L63.204,68 Z M67.992,68 L67.992,60.128 L66.996,60.128 L66.996,68 L67.992,68 Z M74.592,68 L74.592,67.148 L71.148,67.148 L71.148,60.128 L70.152,60.128 L70.152,68 L74.592,68 Z M76.98,68 L76.98,60.128 L75.984,60.128 L75.984,68 L76.98,68 Z M84.024,68 L84.024,67.148 L79.836,67.148 L83.988,60.716 L83.988,60.128 L78.972,60.128 L78.972,60.968 L82.74,60.968 L78.6,67.4 L78.6,68 L84.024,68 Z M90.264,68 L90.264,67.148 L86.604,67.148 L86.604,64.292 L89.592,64.292 L89.592,63.44 L86.604,63.44 L86.604,60.968 L90.144,60.968 L90.144,60.128 L85.608,60.128 L85.608,68 L90.264,68 Z M93.948,68 C94.54,68 95.064,67.91 95.52,67.73 C95.976,67.55 96.36,67.29 96.672,66.95 C96.984,66.61 97.22,66.194 97.38,65.702 C97.54,65.21 97.62,64.652 97.62,64.028 C97.62,62.772 97.304,61.808 96.672,61.136 C96.04,60.464 95.116,60.128 93.9,60.128 L93.9,60.128 L91.932,60.128 L91.932,68 L93.948,68 Z M93.828,67.184 L92.928,67.184 L92.928,60.944 L93.828,60.944 C94.748,60.944 95.438,61.208 95.898,61.736 C96.358,62.264 96.588,63.028 96.588,64.028 C96.588,65.028 96.358,65.804 95.898,66.356 C95.438,66.908 94.748,67.184 93.828,67.184 L93.828,67.184 Z M106.152,68 L106.152,67.148 L102.708,67.148 L102.708,60.128 L101.712,60.128 L101.712,68 L106.152,68 Z M112.2,68 L112.2,67.148 L108.54,67.148 L108.54,64.292 L111.528,64.292 L111.528,63.44 L108.54,63.44 L108.54,60.968 L112.08,60.968 L112.08,60.128 L107.544,60.128 L107.544,68 L112.2,68 Z M114.816,68 L114.816,63.884 C114.816,63.468 114.802,63.054 114.774,62.642 C114.746,62.23 114.716,61.824 114.684,61.424 L114.684,61.424 L114.732,61.424 L115.584,63.044 L118.44,68 L119.472,68 L119.472,60.128 L118.524,60.128 L118.524,64.196 C118.524,64.612 118.538,65.034 118.566,65.462 C118.594,65.89 118.62,66.304 118.644,66.704 L118.644,66.704 L118.596,66.704 L117.744,65.072 L114.9,60.128 L113.868,60.128 L113.868,68 L114.816,68 Z M123.648,68 C124.24,68 124.764,67.91 125.22,67.73 C125.676,67.55 126.06,67.29 126.372,66.95 C126.684,66.61 126.92,66.194 127.08,65.702 C127.24,65.21 127.32,64.652 127.32,64.028 C127.32,62.772 127.004,61.808 126.372,61.136 C125.74,60.464 124.816,60.128 123.6,60.128 L123.6,60.128 L121.632,60.128 L121.632,68 L123.648,68 Z M123.528,67.184 L122.628,67.184 L122.628,60.944 L123.528,60.944 C124.448,60.944 125.138,61.208 125.598,61.736 C126.058,62.264 126.288,63.028 126.288,64.028 C126.288,65.028 126.058,65.804 125.598,66.356 C125.138,66.908 124.448,67.184 123.528,67.184 L123.528,67.184 Z M130.008,68 L130.008,60.128 L129.012,60.128 L129.012,68 L130.008,68 Z M133.116,68 L133.116,63.884 C133.116,63.468 133.102,63.054 133.074,62.642 C133.046,62.23 133.016,61.824 132.984,61.424 L132.984,61.424 L133.032,61.424 L133.884,63.044 L136.74,68 L137.772,68 L137.772,60.128 L136.824,60.128 L136.824,64.196 C136.824,64.612 136.838,65.034 136.866,65.462 C136.894,65.89 136.92,66.304 136.944,66.704 L136.944,66.704 L136.896,66.704 L136.044,65.072 L133.2,60.128 L132.168,60.128 L132.168,68 L133.116,68 Z M143.028,68.144 C143.556,68.144 144.028,68.058 144.444,67.886 C144.86,67.714 145.196,67.496 145.452,67.232 L145.452,67.232 L145.452,63.92 L142.872,63.92 L142.872,64.748 L144.54,64.748 L144.54,66.8 C144.38,66.944 144.174,67.058 143.922,67.142 C143.67,67.226 143.404,67.268 143.124,67.268 C142.7,67.268 142.326,67.192 142.002,67.04 C141.678,66.888 141.406,66.672 141.186,66.392 C140.966,66.112 140.798,65.774 140.682,65.378 C140.566,64.982 140.508,64.536 140.508,64.04 C140.508,63.552 140.57,63.112 140.694,62.72 C140.818,62.328 140.992,61.994 141.216,61.718 C141.44,61.442 141.712,61.23 142.032,61.082 C142.352,60.934 142.712,60.86 143.112,60.86 C143.512,60.86 143.844,60.932 144.108,61.076 C144.372,61.22 144.604,61.396 144.804,61.604 L144.804,61.604 L145.356,60.956 C145.244,60.836 145.114,60.718 144.966,60.602 C144.818,60.486 144.65,60.382 144.462,60.29 C144.274,60.198 144.066,60.124 143.838,60.068 C143.61,60.012 143.36,59.984 143.088,59.984 C142.568,59.984 142.086,60.078 141.642,60.266 C141.198,60.454 140.816,60.724 140.496,61.076 C140.176,61.428 139.926,61.856 139.746,62.36 C139.566,62.864 139.476,63.432 139.476,64.064 C139.476,64.704 139.564,65.278 139.74,65.786 C139.916,66.294 140.16,66.722 140.472,67.07 C140.784,67.418 141.158,67.684 141.594,67.868 C142.03,68.052 142.508,68.144 143.028,68.144 Z M86.442,84.32 L86.442,83.072 C87.066,82.936 87.534,82.662 87.846,82.25 C88.158,81.838 88.314,81.344 88.314,80.768 C88.314,80.384 88.236,80.062 88.08,79.802 C87.924,79.542 87.728,79.32 87.492,79.136 C87.256,78.952 87.002,78.796 86.73,78.668 C86.458,78.54 86.204,78.416 85.968,78.296 C85.732,78.176 85.536,78.05 85.38,77.918 C85.224,77.786 85.146,77.624 85.146,77.432 C85.146,77.16 85.222,76.964 85.374,76.844 C85.526,76.724 85.746,76.664 86.034,76.664 C86.29,76.664 86.518,76.714 86.718,76.814 C86.918,76.914 87.126,77.064 87.342,77.264 L87.342,77.264 L88.23,76.256 C87.998,76.008 87.738,75.796 87.45,75.62 C87.162,75.444 86.826,75.328 86.442,75.272 L86.442,75.272 L86.442,74.06 L85.278,74.06 L85.278,75.296 C84.71,75.408 84.264,75.658 83.94,76.046 C83.616,76.434 83.454,76.924 83.454,77.516 C83.454,77.876 83.532,78.18 83.688,78.428 C83.844,78.676 84.04,78.892 84.276,79.076 C84.512,79.26 84.766,79.418 85.038,79.55 C85.31,79.682 85.564,79.814 85.8,79.946 C86.036,80.078 86.232,80.216 86.388,80.36 C86.544,80.504 86.622,80.68 86.622,80.888 C86.622,81.168 86.544,81.376 86.388,81.512 C86.232,81.648 85.986,81.716 85.65,81.716 C85.362,81.716 85.08,81.658 84.804,81.542 C84.528,81.426 84.238,81.252 83.934,81.02 L83.934,81.02 L83.166,82.208 C83.446,82.464 83.78,82.67 84.168,82.826 C84.556,82.982 84.926,83.08 85.278,83.12 L85.278,83.12 L85.278,84.32 L86.442,84.32 Z M92.19,83.144 C92.598,83.144 92.968,83.09 93.3,82.982 C93.632,82.874 93.916,82.726 94.152,82.538 C94.388,82.35 94.57,82.128 94.698,81.872 C94.826,81.616 94.89,81.336 94.89,81.032 C94.89,80.528 94.762,80.12 94.506,79.808 C94.25,79.496 93.938,79.24 93.57,79.04 L93.57,79.04 L93.57,78.992 C93.834,78.816 94.066,78.586 94.266,78.302 C94.466,78.018 94.566,77.692 94.566,77.324 C94.566,77.012 94.51,76.726 94.398,76.466 C94.286,76.206 94.13,75.986 93.93,75.806 C93.73,75.626 93.486,75.486 93.198,75.386 C92.91,75.286 92.594,75.236 92.25,75.236 C91.898,75.236 91.572,75.284 91.272,75.38 C90.972,75.476 90.714,75.616 90.498,75.8 C90.282,75.984 90.114,76.206 89.994,76.466 C89.874,76.726 89.814,77.016 89.814,77.336 C89.814,77.744 89.91,78.09 90.102,78.374 C90.294,78.658 90.538,78.912 90.834,79.136 L90.834,79.136 L90.834,79.184 C90.474,79.376 90.168,79.62 89.916,79.916 C89.664,80.212 89.538,80.592 89.538,81.056 C89.538,81.368 89.604,81.652 89.736,81.908 C89.868,82.164 90.052,82.384 90.288,82.568 C90.524,82.752 90.804,82.894 91.128,82.994 C91.452,83.094 91.806,83.144 92.19,83.144 Z M92.67,78.56 C92.278,78.408 91.962,78.244 91.722,78.068 C91.482,77.892 91.362,77.648 91.362,77.336 C91.362,77.04 91.446,76.82 91.614,76.676 C91.782,76.532 91.982,76.46 92.214,76.46 C92.502,76.46 92.728,76.55 92.892,76.73 C93.056,76.91 93.138,77.148 93.138,77.444 C93.138,77.828 92.982,78.2 92.67,78.56 Z M92.226,81.92 C91.906,81.92 91.63,81.826 91.398,81.638 C91.166,81.45 91.05,81.188 91.05,80.852 C91.05,80.62 91.106,80.4 91.218,80.192 C91.33,79.984 91.47,79.8 91.638,79.64 C91.878,79.744 92.096,79.84 92.292,79.928 C92.488,80.016 92.658,80.11 92.802,80.21 C92.946,80.31 93.056,80.42 93.132,80.54 C93.208,80.66 93.246,80.804 93.246,80.972 C93.246,81.292 93.15,81.53 92.958,81.686 C92.766,81.842 92.522,81.92 92.226,81.92 Z M98.538,83.144 C98.946,83.144 99.318,83.058 99.654,82.886 C99.99,82.714 100.276,82.46 100.512,82.124 C100.748,81.788 100.932,81.372 101.064,80.876 C101.196,80.38 101.262,79.808 101.262,79.16 C101.262,78.512 101.196,77.944 101.064,77.456 C100.932,76.968 100.748,76.558 100.512,76.226 C100.276,75.894 99.99,75.646 99.654,75.482 C99.318,75.318 98.946,75.236 98.538,75.236 C98.13,75.236 97.758,75.318 97.422,75.482 C97.086,75.646 96.8,75.894 96.564,76.226 C96.328,76.558 96.144,76.968 96.012,77.456 C95.88,77.944 95.814,78.512 95.814,79.16 C95.814,79.808 95.88,80.38 96.012,80.876 C96.144,81.372 96.328,81.788 96.564,82.124 C96.8,82.46 97.086,82.714 97.422,82.886 C97.758,83.058 98.13,83.144 98.538,83.144 Z M98.538,81.776 C98.394,81.776 98.258,81.738 98.13,81.662 C98.002,81.586 97.89,81.448 97.794,81.248 C97.698,81.048 97.622,80.78 97.566,80.444 C97.51,80.108 97.482,79.68 97.482,79.16 C97.482,78.64 97.51,78.214 97.566,77.882 C97.622,77.55 97.698,77.29 97.794,77.102 C97.89,76.914 98.002,76.784 98.13,76.712 C98.258,76.64 98.394,76.604 98.538,76.604 C98.69,76.604 98.83,76.64 98.958,76.712 C99.086,76.784 99.198,76.914 99.294,77.102 C99.39,77.29 99.464,77.55 99.516,77.882 C99.568,78.214 99.594,78.64 99.594,79.16 C99.594,79.68 99.568,80.108 99.516,80.444 C99.464,80.78 99.39,81.048 99.294,81.248 C99.198,81.448 99.086,81.586 98.958,81.662 C98.83,81.738 98.69,81.776 98.538,81.776 Z M104.454,83.144 C104.854,83.144 105.24,83.062 105.612,82.898 C105.984,82.734 106.312,82.484 106.596,82.148 C106.88,81.812 107.108,81.384 107.28,80.864 C107.452,80.344 107.538,79.728 107.538,79.016 C107.538,78.344 107.456,77.77 107.292,77.294 C107.128,76.818 106.912,76.428 106.644,76.124 C106.376,75.82 106.068,75.596 105.72,75.452 C105.372,75.308 105.014,75.236 104.646,75.236 C104.302,75.236 103.976,75.294 103.668,75.41 C103.36,75.526 103.092,75.696 102.864,75.92 C102.636,76.144 102.454,76.414 102.318,76.73 C102.182,77.046 102.114,77.4 102.114,77.792 C102.114,78.192 102.172,78.54 102.288,78.836 C102.404,79.132 102.562,79.376 102.762,79.568 C102.962,79.76 103.2,79.904 103.476,80 C103.752,80.096 104.054,80.144 104.382,80.144 C104.502,80.144 104.63,80.126 104.766,80.09 C104.902,80.054 105.038,80.002 105.174,79.934 C105.31,79.866 105.442,79.782 105.57,79.682 C105.698,79.582 105.81,79.468 105.906,79.34 C105.89,79.788 105.84,80.162 105.756,80.462 C105.672,80.762 105.56,81.006 105.42,81.194 C105.28,81.382 105.118,81.516 104.934,81.596 C104.75,81.676 104.55,81.716 104.334,81.716 C104.11,81.716 103.89,81.662 103.674,81.554 C103.458,81.446 103.286,81.32 103.158,81.176 L103.158,81.176 L102.222,82.232 C102.462,82.472 102.768,82.684 103.14,82.868 C103.512,83.052 103.95,83.144 104.454,83.144 Z M104.73,78.896 C104.442,78.896 104.202,78.814 104.01,78.65 C103.818,78.486 103.722,78.2 103.722,77.792 C103.722,77.36 103.818,77.046 104.01,76.85 C104.202,76.654 104.426,76.556 104.682,76.556 C104.954,76.556 105.2,76.67 105.42,76.898 C105.64,77.126 105.79,77.54 105.87,78.14 C105.718,78.412 105.54,78.606 105.336,78.722 C105.132,78.838 104.93,78.896 104.73,78.896 Z M111.87,83 C112.294,83 112.69,82.954 113.058,82.862 C113.426,82.77 113.748,82.63 114.024,82.442 C114.3,82.254 114.516,82.016 114.672,81.728 C114.828,81.44 114.906,81.096 114.906,80.696 C114.906,80.432 114.87,80.198 114.798,79.994 C114.726,79.79 114.626,79.612 114.498,79.46 C114.37,79.308 114.222,79.182 114.054,79.082 C113.886,78.982 113.702,78.908 113.502,78.86 L113.502,78.86 L113.502,78.812 C113.662,78.756 113.804,78.668 113.928,78.548 C114.052,78.428 114.158,78.292 114.246,78.14 C114.334,77.988 114.402,77.824 114.45,77.648 C114.498,77.472 114.522,77.296 114.522,77.12 C114.522,76.744 114.448,76.432 114.3,76.184 C114.152,75.936 113.948,75.736 113.688,75.584 C113.428,75.432 113.124,75.326 112.776,75.266 C112.428,75.206 112.05,75.176 111.642,75.176 L111.642,75.176 L108.966,75.176 L108.966,83 L111.87,83 Z M111.558,78.308 L110.73,78.308 L110.73,76.544 L111.57,76.544 C111.986,76.544 112.294,76.608 112.494,76.736 C112.694,76.864 112.794,77.08 112.794,77.384 C112.794,77.664 112.696,77.888 112.5,78.056 C112.304,78.224 111.99,78.308 111.558,78.308 L111.558,78.308 Z M111.726,81.632 L110.73,81.632 L110.73,79.616 L111.726,79.616 C112.214,79.616 112.578,79.69 112.818,79.838 C113.058,79.986 113.178,80.232 113.178,80.576 C113.178,81.28 112.694,81.632 111.726,81.632 L111.726,81.632 Z" id="UTILIZEDLENDING$809B" fill="#666666" fill-rule="nonzero"></path>
                <path d="M356.958,18 L356.958,7.992 L360.36,7.992 L360.36,6.228 L351.468,6.228 L351.468,7.992 L354.87,7.992 L354.87,18 L356.958,18 Z M364.482,18.216 C365.034,18.216 365.565,18.114 366.075,17.91 C366.585,17.706 367.032,17.406 367.416,17.01 C367.8,16.614 368.109,16.128 368.343,15.552 C368.577,14.976 368.694,14.322 368.694,13.59 C368.694,12.858 368.577,12.204 368.343,11.628 C368.109,11.052 367.8,10.566 367.416,10.17 C367.032,9.774 366.585,9.471 366.075,9.261 C365.565,9.051 365.034,8.946 364.482,8.946 C363.93,8.946 363.402,9.051 362.898,9.261 C362.394,9.471 361.947,9.774 361.557,10.17 C361.167,10.566 360.858,11.052 360.63,11.628 C360.402,12.204 360.288,12.858 360.288,13.59 C360.288,14.322 360.402,14.976 360.63,15.552 C360.858,16.128 361.167,16.614 361.557,17.01 C361.947,17.406 362.394,17.706 362.898,17.91 C363.402,18.114 363.93,18.216 364.482,18.216 Z M364.482,16.524 C363.834,16.524 363.327,16.257 362.961,15.723 C362.595,15.189 362.412,14.478 362.412,13.59 C362.412,12.69 362.595,11.973 362.961,11.439 C363.327,10.905 363.834,10.638 364.482,10.638 C365.13,10.638 365.64,10.905 366.012,11.439 C366.384,11.973 366.57,12.69 366.57,13.59 C366.57,14.478 366.384,15.189 366.012,15.723 C365.64,16.257 365.13,16.524 364.482,16.524 Z M373.464,18.216 C373.812,18.216 374.139,18.183 374.445,18.117 C374.751,18.051 375.024,17.976 375.264,17.892 L375.264,17.892 L374.904,16.362 C374.772,16.422 374.625,16.47 374.463,16.506 C374.301,16.542 374.142,16.56 373.986,16.56 C373.158,16.56 372.744,16.044 372.744,15.012 L372.744,15.012 L372.744,10.8 L374.994,10.8 L374.994,9.162 L372.744,9.162 L372.744,6.75 L371.016,6.75 L370.764,9.162 L369.396,9.252 L369.396,10.8 L370.656,10.8 L370.656,15.012 C370.656,15.492 370.707,15.927 370.809,16.317 C370.911,16.707 371.073,17.043 371.295,17.325 C371.517,17.607 371.805,17.826 372.159,17.982 C372.513,18.138 372.948,18.216 373.464,18.216 Z M378.612,18.216 C379.14,18.216 379.629,18.102 380.079,17.874 C380.529,17.646 380.952,17.364 381.348,17.028 L381.348,17.028 L381.42,17.028 L381.564,18 L383.274,18 L383.274,12.762 C383.274,11.526 383.001,10.581 382.455,9.927 C381.909,9.273 381.084,8.946 379.98,8.946 C379.272,8.946 378.612,9.06 378,9.288 C377.388,9.516 376.836,9.786 376.344,10.098 L376.344,10.098 L377.1,11.484 C377.496,11.244 377.901,11.04 378.315,10.872 C378.729,10.704 379.152,10.62 379.584,10.62 C379.884,10.62 380.136,10.665 380.34,10.755 C380.544,10.845 380.709,10.971 380.835,11.133 C380.961,11.295 381.051,11.481 381.105,11.691 C381.159,11.901 381.192,12.12 381.204,12.348 C380.292,12.444 379.509,12.582 378.855,12.762 C378.201,12.942 377.661,13.164 377.235,13.428 C376.809,13.692 376.497,14.007 376.299,14.373 C376.101,14.739 376.002,15.156 376.002,15.624 C376.002,16.404 376.242,17.031 376.722,17.505 C377.202,17.979 377.832,18.216 378.612,18.216 Z M379.278,16.596 C378.906,16.596 378.6,16.506 378.36,16.326 C378.12,16.146 378,15.858 378,15.462 C378,15.246 378.054,15.042 378.162,14.85 C378.27,14.658 378.45,14.487 378.702,14.337 C378.954,14.187 379.284,14.052 379.692,13.932 C380.1,13.812 380.604,13.716 381.204,13.644 L381.204,13.644 L381.204,15.624 C380.868,15.936 380.553,16.176 380.259,16.344 C379.965,16.512 379.638,16.596 379.278,16.596 Z M387.774,18.216 C388.23,18.216 388.596,18.156 388.872,18.036 L388.872,18.036 L388.602,16.488 C388.518,16.512 388.455,16.524 388.413,16.524 L388.413,16.524 L388.278,16.524 C388.17,16.524 388.068,16.473 387.972,16.371 C387.876,16.269 387.828,16.092 387.828,15.84 L387.828,15.84 L387.828,5.292 L385.758,5.292 L385.758,15.732 C385.758,16.5 385.908,17.106 386.208,17.55 C386.508,17.994 387.03,18.216 387.774,18.216 Z M401.688,18 L401.688,16.236 L396.504,16.236 L396.504,12.762 L400.734,12.762 L400.734,10.998 L396.504,10.998 L396.504,7.992 L401.508,7.992 L401.508,6.228 L394.416,6.228 L394.416,18 L401.688,18 Z M406.386,18.216 C406.938,18.216 407.43,18.144 407.862,18 C408.294,17.856 408.654,17.661 408.942,17.415 C409.23,17.169 409.449,16.881 409.599,16.551 C409.749,16.221 409.824,15.864 409.824,15.48 C409.824,15.072 409.749,14.721 409.599,14.427 C409.449,14.133 409.251,13.884 409.005,13.68 C408.759,13.476 408.486,13.305 408.186,13.167 C407.886,13.029 407.586,12.906 407.286,12.798 C407.046,12.714 406.815,12.63 406.593,12.546 C406.371,12.462 406.176,12.372 406.008,12.276 C405.84,12.18 405.705,12.069 405.603,11.943 C405.501,11.817 405.45,11.664 405.45,11.484 C405.45,11.208 405.555,10.977 405.765,10.791 C405.975,10.605 406.302,10.512 406.746,10.512 C407.094,10.512 407.427,10.581 407.745,10.719 C408.063,10.857 408.378,11.04 408.69,11.268 L408.69,11.268 L409.644,10.008 C409.284,9.732 408.858,9.486 408.366,9.27 C407.874,9.054 407.322,8.946 406.71,8.946 C405.714,8.946 404.928,9.192 404.352,9.684 C403.776,10.176 403.488,10.812 403.488,11.592 C403.488,11.964 403.563,12.285 403.713,12.555 C403.863,12.825 404.055,13.062 404.289,13.266 C404.523,13.47 404.79,13.644 405.09,13.788 C405.39,13.932 405.684,14.058 405.972,14.166 C406.2,14.262 406.428,14.355 406.656,14.445 C406.884,14.535 407.088,14.634 407.268,14.742 C407.448,14.85 407.592,14.973 407.7,15.111 C407.808,15.249 407.862,15.408 407.862,15.588 C407.862,15.9 407.748,16.155 407.52,16.353 C407.292,16.551 406.938,16.65 406.458,16.65 C406.002,16.65 405.579,16.563 405.189,16.389 C404.799,16.215 404.406,15.972 404.01,15.66 L404.01,15.66 L403.038,16.992 C403.47,17.34 403.983,17.631 404.577,17.865 C405.171,18.099 405.774,18.216 406.386,18.216 Z M414.432,18.216 C414.78,18.216 415.107,18.183 415.413,18.117 C415.719,18.051 415.992,17.976 416.232,17.892 L416.232,17.892 L415.872,16.362 C415.74,16.422 415.593,16.47 415.431,16.506 C415.269,16.542 415.11,16.56 414.954,16.56 C414.126,16.56 413.712,16.044 413.712,15.012 L413.712,15.012 L413.712,10.8 L415.962,10.8 L415.962,9.162 L413.712,9.162 L413.712,6.75 L411.984,6.75 L411.732,9.162 L410.364,9.252 L410.364,10.8 L411.624,10.8 L411.624,15.012 C411.624,15.492 411.675,15.927 411.777,16.317 C411.879,16.707 412.041,17.043 412.263,17.325 C412.485,17.607 412.773,17.826 413.127,17.982 C413.481,18.138 413.916,18.216 414.432,18.216 Z M418.86,7.614 C419.232,7.614 419.538,7.506 419.778,7.29 C420.018,7.074 420.138,6.792 420.138,6.444 C420.138,6.096 420.018,5.811 419.778,5.589 C419.538,5.367 419.232,5.256 418.86,5.256 C418.488,5.256 418.182,5.367 417.942,5.589 C417.702,5.811 417.582,6.096 417.582,6.444 C417.582,6.792 417.702,7.074 417.942,7.29 C418.182,7.506 418.488,7.614 418.86,7.614 Z M419.886,18 L419.886,9.162 L417.816,9.162 L417.816,18 L419.886,18 Z M424.602,18 L424.602,11.826 C425.286,11.094 425.904,10.728 426.456,10.728 C426.924,10.728 427.269,10.878 427.491,11.178 C427.713,11.478 427.824,11.994 427.824,12.726 L427.824,12.726 L427.824,18 L429.894,18 L429.894,11.826 C430.578,11.094 431.196,10.728 431.748,10.728 C432.204,10.728 432.543,10.878 432.765,11.178 C432.987,11.478 433.098,11.994 433.098,12.726 L433.098,12.726 L433.098,18 L435.186,18 L435.186,12.456 C435.186,11.328 434.964,10.461 434.52,9.855 C434.076,9.249 433.386,8.946 432.45,8.946 C431.886,8.946 431.376,9.096 430.92,9.396 C430.464,9.696 430.026,10.074 429.606,10.53 C429.402,10.026 429.105,9.636 428.715,9.36 C428.325,9.084 427.806,8.946 427.158,8.946 C426.606,8.946 426.111,9.084 425.673,9.36 C425.235,9.636 424.83,9.972 424.458,10.368 L424.458,10.368 L424.386,10.368 L424.242,9.162 L422.532,9.162 L422.532,18 L424.602,18 Z M439.848,18.216 C440.376,18.216 440.865,18.102 441.315,17.874 C441.765,17.646 442.188,17.364 442.584,17.028 L442.584,17.028 L442.656,17.028 L442.8,18 L444.51,18 L444.51,12.762 C444.51,11.526 444.237,10.581 443.691,9.927 C443.145,9.273 442.32,8.946 441.216,8.946 C440.508,8.946 439.848,9.06 439.236,9.288 C438.624,9.516 438.072,9.786 437.58,10.098 L437.58,10.098 L438.336,11.484 C438.732,11.244 439.137,11.04 439.551,10.872 C439.965,10.704 440.388,10.62 440.82,10.62 C441.12,10.62 441.372,10.665 441.576,10.755 C441.78,10.845 441.945,10.971 442.071,11.133 C442.197,11.295 442.287,11.481 442.341,11.691 C442.395,11.901 442.428,12.12 442.44,12.348 C441.528,12.444 440.745,12.582 440.091,12.762 C439.437,12.942 438.897,13.164 438.471,13.428 C438.045,13.692 437.733,14.007 437.535,14.373 C437.337,14.739 437.238,15.156 437.238,15.624 C437.238,16.404 437.478,17.031 437.958,17.505 C438.438,17.979 439.068,18.216 439.848,18.216 Z M440.514,16.596 C440.142,16.596 439.836,16.506 439.596,16.326 C439.356,16.146 439.236,15.858 439.236,15.462 C439.236,15.246 439.29,15.042 439.398,14.85 C439.506,14.658 439.686,14.487 439.938,14.337 C440.19,14.187 440.52,14.052 440.928,13.932 C441.336,13.812 441.84,13.716 442.44,13.644 L442.44,13.644 L442.44,15.624 C442.104,15.936 441.789,16.176 441.495,16.344 C441.201,16.512 440.874,16.596 440.514,16.596 Z M449.82,18.216 C450.168,18.216 450.495,18.183 450.801,18.117 C451.107,18.051 451.38,17.976 451.62,17.892 L451.62,17.892 L451.26,16.362 C451.128,16.422 450.981,16.47 450.819,16.506 C450.657,16.542 450.498,16.56 450.342,16.56 C449.514,16.56 449.1,16.044 449.1,15.012 L449.1,15.012 L449.1,10.8 L451.35,10.8 L451.35,9.162 L449.1,9.162 L449.1,6.75 L447.372,6.75 L447.12,9.162 L445.752,9.252 L445.752,10.8 L447.012,10.8 L447.012,15.012 C447.012,15.492 447.063,15.927 447.165,16.317 C447.267,16.707 447.429,17.043 447.651,17.325 C447.873,17.607 448.161,17.826 448.515,17.982 C448.869,18.138 449.304,18.216 449.82,18.216 Z M456.696,18.216 C457.26,18.216 457.8,18.126 458.316,17.946 C458.832,17.766 459.3,17.538 459.72,17.262 L459.72,17.262 L459.018,15.966 C458.694,16.17 458.367,16.329 458.037,16.443 C457.707,16.557 457.35,16.614 456.966,16.614 C456.246,16.614 455.655,16.401 455.193,15.975 C454.731,15.549 454.452,14.94 454.356,14.148 L454.356,14.148 L459.972,14.148 C459.996,14.04 460.017,13.896 460.035,13.716 C460.053,13.536 460.062,13.344 460.062,13.14 C460.062,12.528 459.984,11.964 459.828,11.448 C459.672,10.932 459.441,10.488 459.135,10.116 C458.829,9.744 458.448,9.456 457.992,9.252 C457.536,9.048 457.008,8.946 456.408,8.946 C455.892,8.946 455.388,9.054 454.896,9.27 C454.404,9.486 453.969,9.792 453.591,10.188 C453.213,10.584 452.91,11.07 452.682,11.646 C452.454,12.222 452.34,12.87 452.34,13.59 C452.34,14.322 452.451,14.973 452.673,15.543 C452.895,16.113 453.204,16.596 453.6,16.992 C453.996,17.388 454.458,17.691 454.986,17.901 C455.514,18.111 456.084,18.216 456.696,18.216 Z M458.262,12.744 L454.338,12.744 C454.434,12.024 454.68,11.478 455.076,11.106 C455.472,10.734 455.934,10.548 456.462,10.548 C457.074,10.548 457.527,10.743 457.821,11.133 C458.115,11.523 458.262,12.06 458.262,12.744 L458.262,12.744 Z M465.138,18.216 C465.618,18.216 466.074,18.102 466.506,17.874 C466.938,17.646 467.316,17.37 467.64,17.046 L467.64,17.046 L467.712,17.046 L467.856,18 L469.566,18 L469.566,5.292 L467.496,5.292 L467.496,8.496 L467.568,9.918 C467.22,9.618 466.872,9.381 466.524,9.207 C466.176,9.033 465.75,8.946 465.246,8.946 C464.766,8.946 464.301,9.054 463.851,9.27 C463.401,9.486 463.002,9.792 462.654,10.188 C462.306,10.584 462.027,11.07 461.817,11.646 C461.607,12.222 461.502,12.87 461.502,13.59 C461.502,15.054 461.829,16.191 462.483,17.001 C463.137,17.811 464.022,18.216 465.138,18.216 Z M465.642,16.506 C464.994,16.506 464.499,16.257 464.157,15.759 C463.815,15.261 463.644,14.532 463.644,13.572 C463.644,12.636 463.842,11.916 464.238,11.412 C464.634,10.908 465.12,10.656 465.696,10.656 C465.996,10.656 466.293,10.71 466.587,10.818 C466.881,10.926 467.184,11.118 467.496,11.394 L467.496,11.394 L467.496,15.516 C466.92,16.176 466.302,16.506 465.642,16.506 Z M482.958,18 L482.958,16.236 L478.062,16.236 L478.062,6.228 L475.974,6.228 L475.974,18 L482.958,18 Z M488.376,18.216 C488.94,18.216 489.48,18.126 489.996,17.946 C490.512,17.766 490.98,17.538 491.4,17.262 L491.4,17.262 L490.698,15.966 C490.374,16.17 490.047,16.329 489.717,16.443 C489.387,16.557 489.03,16.614 488.646,16.614 C487.926,16.614 487.335,16.401 486.873,15.975 C486.411,15.549 486.132,14.94 486.036,14.148 L486.036,14.148 L491.652,14.148 C491.676,14.04 491.697,13.896 491.715,13.716 C491.733,13.536 491.742,13.344 491.742,13.14 C491.742,12.528 491.664,11.964 491.508,11.448 C491.352,10.932 491.121,10.488 490.815,10.116 C490.509,9.744 490.128,9.456 489.672,9.252 C489.216,9.048 488.688,8.946 488.088,8.946 C487.572,8.946 487.068,9.054 486.576,9.27 C486.084,9.486 485.649,9.792 485.271,10.188 C484.893,10.584 484.59,11.07 484.362,11.646 C484.134,12.222 484.02,12.87 484.02,13.59 C484.02,14.322 484.131,14.973 484.353,15.543 C484.575,16.113 484.884,16.596 485.28,16.992 C485.676,17.388 486.138,17.691 486.666,17.901 C487.194,18.111 487.764,18.216 488.376,18.216 Z M489.942,12.744 L486.018,12.744 C486.114,12.024 486.36,11.478 486.756,11.106 C487.152,10.734 487.614,10.548 488.142,10.548 C488.754,10.548 489.207,10.743 489.501,11.133 C489.795,11.523 489.942,12.06 489.942,12.744 L489.942,12.744 Z M495.792,18 L495.792,11.826 C496.164,11.466 496.497,11.193 496.791,11.007 C497.085,10.821 497.424,10.728 497.808,10.728 C498.3,10.728 498.654,10.878 498.87,11.178 C499.086,11.478 499.194,11.994 499.194,12.726 L499.194,12.726 L499.194,18 L501.264,18 L501.264,12.456 C501.264,11.328 501.048,10.461 500.616,9.855 C500.184,9.249 499.494,8.946 498.546,8.946 C497.934,8.946 497.397,9.084 496.935,9.36 C496.473,9.636 496.044,9.966 495.648,10.35 L495.648,10.35 L495.576,10.35 L495.432,9.162 L493.722,9.162 L493.722,18 L495.792,18 Z M506.898,18.216 C507.378,18.216 507.834,18.102 508.266,17.874 C508.698,17.646 509.076,17.37 509.4,17.046 L509.4,17.046 L509.472,17.046 L509.616,18 L511.326,18 L511.326,5.292 L509.256,5.292 L509.256,8.496 L509.328,9.918 C508.98,9.618 508.632,9.381 508.284,9.207 C507.936,9.033 507.51,8.946 507.006,8.946 C506.526,8.946 506.061,9.054 505.611,9.27 C505.161,9.486 504.762,9.792 504.414,10.188 C504.066,10.584 503.787,11.07 503.577,11.646 C503.367,12.222 503.262,12.87 503.262,13.59 C503.262,15.054 503.589,16.191 504.243,17.001 C504.897,17.811 505.782,18.216 506.898,18.216 Z M507.402,16.506 C506.754,16.506 506.259,16.257 505.917,15.759 C505.575,15.261 505.404,14.532 505.404,13.572 C505.404,12.636 505.602,11.916 505.998,11.412 C506.394,10.908 506.88,10.656 507.456,10.656 C507.756,10.656 508.053,10.71 508.347,10.818 C508.641,10.926 508.944,11.118 509.256,11.394 L509.256,11.394 L509.256,15.516 C508.68,16.176 508.062,16.506 507.402,16.506 Z M514.998,7.614 C515.37,7.614 515.676,7.506 515.916,7.29 C516.156,7.074 516.276,6.792 516.276,6.444 C516.276,6.096 516.156,5.811 515.916,5.589 C515.676,5.367 515.37,5.256 514.998,5.256 C514.626,5.256 514.32,5.367 514.08,5.589 C513.84,5.811 513.72,6.096 513.72,6.444 C513.72,6.792 513.84,7.074 514.08,7.29 C514.32,7.506 514.626,7.614 514.998,7.614 Z M516.024,18 L516.024,9.162 L513.954,9.162 L513.954,18 L516.024,18 Z M520.74,18 L520.74,11.826 C521.112,11.466 521.445,11.193 521.739,11.007 C522.033,10.821 522.372,10.728 522.756,10.728 C523.248,10.728 523.602,10.878 523.818,11.178 C524.034,11.478 524.142,11.994 524.142,12.726 L524.142,12.726 L524.142,18 L526.212,18 L526.212,12.456 C526.212,11.328 525.996,10.461 525.564,9.855 C525.132,9.249 524.442,8.946 523.494,8.946 C522.882,8.946 522.345,9.084 521.883,9.36 C521.421,9.636 520.992,9.966 520.596,10.35 L520.596,10.35 L520.524,10.35 L520.38,9.162 L518.67,9.162 L518.67,18 L520.74,18 Z M531.828,21.906 C532.548,21.906 533.199,21.825 533.781,21.663 C534.363,21.501 534.858,21.282 535.266,21.006 C535.674,20.73 535.989,20.4 536.211,20.016 C536.433,19.632 536.544,19.224 536.544,18.792 C536.544,18.024 536.271,17.469 535.725,17.127 C535.179,16.785 534.372,16.614 533.304,16.614 L533.304,16.614 L531.738,16.614 C531.198,16.614 530.823,16.542 530.613,16.398 C530.403,16.254 530.298,16.056 530.298,15.804 C530.298,15.6 530.337,15.438 530.415,15.318 C530.493,15.198 530.598,15.078 530.73,14.958 C530.934,15.042 531.138,15.102 531.342,15.138 C531.546,15.174 531.744,15.192 531.936,15.192 C532.404,15.192 532.842,15.126 533.25,14.994 C533.658,14.862 534.012,14.67 534.312,14.418 C534.612,14.166 534.849,13.854 535.023,13.482 C535.197,13.11 535.284,12.678 535.284,12.186 C535.284,11.874 535.236,11.589 535.14,11.331 C535.044,11.073 534.924,10.86 534.78,10.692 L534.78,10.692 L536.4,10.692 L536.4,9.162 L533.232,9.162 C533.052,9.102 532.851,9.051 532.629,9.009 C532.407,8.967 532.176,8.946 531.936,8.946 C531.468,8.946 531.024,9.015 530.604,9.153 C530.184,9.291 529.815,9.495 529.497,9.765 C529.179,10.035 528.924,10.368 528.732,10.764 C528.54,11.16 528.444,11.61 528.444,12.114 C528.444,12.642 528.561,13.107 528.795,13.509 C529.029,13.911 529.296,14.226 529.596,14.454 L529.596,14.454 L529.596,14.526 C529.344,14.706 529.119,14.937 528.921,15.219 C528.723,15.501 528.624,15.816 528.624,16.164 C528.624,16.524 528.699,16.824 528.849,17.064 C528.999,17.304 529.188,17.496 529.416,17.64 L529.416,17.64 L529.416,17.712 C529.008,17.964 528.696,18.249 528.48,18.567 C528.264,18.885 528.156,19.23 528.156,19.602 C528.156,19.986 528.249,20.322 528.435,20.61 C528.621,20.898 528.876,21.138 529.2,21.33 C529.524,21.522 529.911,21.666 530.361,21.762 C530.811,21.858 531.3,21.906 531.828,21.906 Z M531.936,13.896 C531.504,13.896 531.138,13.743 530.838,13.437 C530.538,13.131 530.388,12.69 530.388,12.114 C530.388,11.55 530.538,11.118 530.838,10.818 C531.138,10.518 531.504,10.368 531.936,10.368 C532.368,10.368 532.731,10.521 533.025,10.827 C533.319,11.133 533.466,11.562 533.466,12.114 C533.466,12.69 533.316,13.131 533.016,13.437 C532.716,13.743 532.356,13.896 531.936,13.896 Z M532.152,20.556 C531.444,20.556 530.889,20.445 530.487,20.223 C530.085,20.001 529.884,19.692 529.884,19.296 C529.884,18.864 530.112,18.474 530.568,18.126 C530.892,18.21 531.294,18.252 531.774,18.252 L531.774,18.252 L532.98,18.252 C533.484,18.252 533.871,18.312 534.141,18.432 C534.411,18.552 534.546,18.786 534.546,19.134 C534.546,19.518 534.327,19.851 533.889,20.133 C533.451,20.415 532.872,20.556 532.152,20.556 Z M545.76,19.98 L545.76,18.126 C546.66,17.958 547.35,17.583 547.83,17.001 C548.31,16.419 548.55,15.696 548.55,14.832 C548.55,14.232 548.43,13.731 548.19,13.329 C547.95,12.927 547.647,12.588 547.281,12.312 C546.915,12.036 546.522,11.799 546.102,11.601 C545.682,11.403 545.289,11.205 544.923,11.007 C544.557,10.809 544.254,10.593 544.014,10.359 C543.774,10.125 543.654,9.828 543.654,9.468 C543.654,9 543.792,8.643 544.068,8.397 C544.344,8.151 544.728,8.028 545.22,8.028 C545.652,8.028 546.024,8.109 546.336,8.271 C546.648,8.433 546.972,8.67 547.308,8.982 L547.308,8.982 L548.37,7.776 C548.034,7.428 547.659,7.125 547.245,6.867 C546.831,6.609 546.336,6.444 545.76,6.372 L545.76,6.372 L545.76,4.572 L544.32,4.572 L544.32,6.408 C543.504,6.552 542.856,6.903 542.376,7.461 C541.896,8.019 541.656,8.718 541.656,9.558 C541.656,10.122 541.776,10.593 542.016,10.971 C542.256,11.349 542.559,11.673 542.925,11.943 C543.291,12.213 543.684,12.447 544.104,12.645 C544.524,12.843 544.917,13.05 545.283,13.266 C545.649,13.482 545.952,13.722 546.192,13.986 C546.432,14.25 546.552,14.58 546.552,14.976 C546.552,15.468 546.408,15.849 546.12,16.119 C545.832,16.389 545.394,16.524 544.806,16.524 C544.314,16.524 543.852,16.422 543.42,16.218 C542.988,16.014 542.562,15.744 542.142,15.408 L542.142,15.408 L541.206,16.812 C541.614,17.196 542.097,17.505 542.655,17.739 C543.213,17.973 543.768,18.12 544.32,18.18 L544.32,18.18 L544.32,19.98 L545.76,19.98 Z M553.95,18.216 C554.502,18.216 555.021,18.141 555.507,17.991 C555.993,17.841 556.419,17.625 556.785,17.343 C557.151,17.061 557.439,16.716 557.649,16.308 C557.859,15.9 557.964,15.432 557.964,14.904 C557.964,14.148 557.739,13.53 557.289,13.05 C556.839,12.57 556.272,12.24 555.588,12.06 L555.588,12.06 L555.588,11.988 C556.212,11.748 556.701,11.412 557.055,10.98 C557.409,10.548 557.586,10.008 557.586,9.36 C557.586,8.88 557.496,8.451 557.316,8.073 C557.136,7.695 556.884,7.377 556.56,7.119 C556.236,6.861 555.846,6.666 555.39,6.534 C554.934,6.402 554.43,6.336 553.878,6.336 C553.194,6.336 552.573,6.468 552.015,6.732 C551.457,6.996 550.932,7.344 550.44,7.776 L550.44,7.776 L551.502,9.054 C551.85,8.73 552.207,8.469 552.573,8.271 C552.939,8.073 553.35,7.974 553.806,7.974 C554.334,7.974 554.748,8.109 555.048,8.379 C555.348,8.649 555.498,9.024 555.498,9.504 C555.498,9.768 555.447,10.014 555.345,10.242 C555.243,10.47 555.075,10.665 554.841,10.827 C554.607,10.989 554.301,11.115 553.923,11.205 C553.545,11.295 553.074,11.34 552.51,11.34 L552.51,11.34 L552.51,12.852 C553.158,12.852 553.698,12.897 554.13,12.987 C554.562,13.077 554.907,13.206 555.165,13.374 C555.423,13.542 555.606,13.746 555.714,13.986 C555.822,14.226 555.876,14.496 555.876,14.796 C555.876,15.336 555.681,15.759 555.291,16.065 C554.901,16.371 554.394,16.524 553.77,16.524 C553.194,16.524 552.684,16.401 552.24,16.155 C551.796,15.909 551.4,15.612 551.052,15.264 L551.052,15.264 L550.062,16.596 C550.47,17.052 550.986,17.436 551.61,17.748 C552.234,18.06 553.014,18.216 553.95,18.216 Z M561.348,18.216 C561.732,18.216 562.05,18.084 562.302,17.82 C562.554,17.556 562.68,17.22 562.68,16.812 C562.68,16.404 562.554,16.068 562.302,15.804 C562.05,15.54 561.732,15.408 561.348,15.408 C560.964,15.408 560.643,15.54 560.385,15.804 C560.127,16.068 559.998,16.404 559.998,16.812 C559.998,17.22 560.127,17.556 560.385,17.82 C560.643,18.084 560.964,18.216 561.348,18.216 Z M567.72,18.216 C568.308,18.216 568.875,18.096 569.421,17.856 C569.967,17.616 570.447,17.241 570.861,16.731 C571.275,16.221 571.605,15.57 571.851,14.778 C572.097,13.986 572.22,13.032 572.22,11.916 C572.22,10.956 572.109,10.125 571.887,9.423 C571.665,8.721 571.365,8.142 570.987,7.686 C570.609,7.23 570.168,6.891 569.664,6.669 C569.16,6.447 568.632,6.336 568.08,6.336 C567.588,6.336 567.123,6.423 566.685,6.597 C566.247,6.771 565.866,7.02 565.542,7.344 C565.218,7.668 564.96,8.061 564.768,8.523 C564.576,8.985 564.48,9.504 564.48,10.08 C564.48,10.68 564.561,11.202 564.723,11.646 C564.885,12.09 565.113,12.459 565.407,12.753 C565.701,13.047 566.052,13.266 566.46,13.41 C566.868,13.554 567.318,13.626 567.81,13.626 C568.23,13.626 568.668,13.509 569.124,13.275 C569.58,13.041 569.976,12.714 570.312,12.294 C570.288,13.086 570.201,13.752 570.051,14.292 C569.901,14.832 569.706,15.267 569.466,15.597 C569.226,15.927 568.947,16.164 568.629,16.308 C568.311,16.452 567.972,16.524 567.612,16.524 C567.264,16.524 566.925,16.443 566.595,16.281 C566.265,16.119 565.992,15.912 565.776,15.66 L565.776,15.66 L564.66,16.92 C565.008,17.28 565.434,17.586 565.938,17.838 C566.442,18.09 567.036,18.216 567.72,18.216 Z M568.206,12.132 C567.63,12.132 567.183,11.961 566.865,11.619 C566.547,11.277 566.388,10.764 566.388,10.08 C566.388,9.384 566.556,8.85 566.892,8.478 C567.228,8.106 567.63,7.92 568.098,7.92 C568.65,7.92 569.121,8.148 569.511,8.604 C569.901,9.06 570.15,9.792 570.258,10.8 C569.958,11.268 569.625,11.607 569.259,11.817 C568.893,12.027 568.542,12.132 568.206,12.132 Z M581.472,18 L581.472,16.236 L578.664,16.236 C578.388,16.236 578.076,16.251 577.728,16.281 C577.38,16.311 577.056,16.338 576.756,16.362 C577.32,15.762 577.854,15.18 578.358,14.616 C578.862,14.052 579.303,13.503 579.681,12.969 C580.059,12.435 580.359,11.907 580.581,11.385 C580.803,10.863 580.914,10.35 580.914,9.846 C580.914,9.318 580.827,8.838 580.653,8.406 C580.479,7.974 580.236,7.605 579.924,7.299 C579.612,6.993 579.234,6.756 578.79,6.588 C578.346,6.42 577.848,6.336 577.296,6.336 C576.504,6.336 575.829,6.489 575.271,6.795 C574.713,7.101 574.17,7.536 573.642,8.1 L573.642,8.1 L574.794,9.252 C575.106,8.904 575.445,8.604 575.811,8.352 C576.177,8.1 576.582,7.974 577.026,7.974 C577.638,7.974 578.106,8.151 578.43,8.505 C578.754,8.859 578.916,9.342 578.916,9.954 C578.916,10.386 578.796,10.842 578.556,11.322 C578.316,11.802 577.971,12.318 577.521,12.87 C577.071,13.422 576.525,14.022 575.883,14.67 C575.241,15.318 574.524,16.026 573.732,16.794 L573.732,16.794 L573.732,18 L581.472,18 Z M588.24,18 L588.24,7.992 L591.642,7.992 L591.642,6.228 L582.75,6.228 L582.75,7.992 L586.152,7.992 L586.152,18 L588.24,18 Z" id="TotalEstimatedLending$3.92T" fill="#666666" fill-rule="nonzero"></path>
                <path d="M0,97 L0,40 L943,40 L943,97" id="Path-21" stroke="#D8D8D8" stroke-dasharray="3,3"></path>
                <path d="M523.212,68 L523.968,65.6 L526.836,65.6 L527.58,68 L528.648,68 L525.984,60.128 L524.856,60.128 L522.192,68 L523.212,68 Z M526.584,64.796 L524.22,64.796 L524.592,63.596 C524.736,63.156 524.872,62.718 525,62.282 C525.128,61.846 525.252,61.4 525.372,60.944 L525.372,60.944 L525.42,60.944 C525.548,61.4 525.676,61.846 525.804,62.282 C525.932,62.718 526.068,63.156 526.212,63.596 L526.212,63.596 L526.584,64.796 Z M532.2,68 L534.696,60.128 L533.676,60.128 L532.416,64.376 C532.28,64.848 532.156,65.284 532.044,65.684 C531.932,66.084 531.804,66.516 531.66,66.98 L531.66,66.98 L531.612,66.98 C531.46,66.516 531.33,66.084 531.222,65.684 C531.114,65.284 530.988,64.848 530.844,64.376 L530.844,64.376 L529.584,60.128 L528.516,60.128 L531.036,68 L532.2,68 Z M535.584,68 L536.34,65.6 L539.208,65.6 L539.952,68 L541.02,68 L538.356,60.128 L537.228,60.128 L534.564,68 L535.584,68 Z M538.956,64.796 L536.592,64.796 L536.964,63.596 C537.108,63.156 537.244,62.718 537.372,62.282 C537.5,61.846 537.624,61.4 537.744,60.944 L537.744,60.944 L537.792,60.944 C537.92,61.4 538.048,61.846 538.176,62.282 C538.304,62.718 538.44,63.156 538.584,63.596 L538.584,63.596 L538.956,64.796 Z M543.132,68 L543.132,60.128 L542.136,60.128 L542.136,68 L543.132,68 Z M549.732,68 L549.732,67.148 L546.288,67.148 L546.288,60.128 L545.292,60.128 L545.292,68 L549.732,68 Z M551.136,68 L551.892,65.6 L554.76,65.6 L555.504,68 L556.572,68 L553.908,60.128 L552.78,60.128 L550.116,68 L551.136,68 Z M554.508,64.796 L552.144,64.796 L552.516,63.596 C552.66,63.156 552.796,62.718 552.924,62.282 C553.052,61.846 553.176,61.4 553.296,60.944 L553.296,60.944 L553.344,60.944 C553.472,61.4 553.6,61.846 553.728,62.282 C553.856,62.718 553.992,63.156 554.136,63.596 L554.136,63.596 L554.508,64.796 Z M560.196,68 C560.636,68 561.04,67.952 561.408,67.856 C561.776,67.76 562.092,67.616 562.356,67.424 C562.62,67.232 562.824,66.992 562.968,66.704 C563.112,66.416 563.184,66.08 563.184,65.696 C563.184,65.152 563.036,64.724 562.74,64.412 C562.444,64.1 562.056,63.9 561.576,63.812 L561.576,63.812 L561.576,63.764 C561.952,63.644 562.238,63.426 562.434,63.11 C562.63,62.794 562.728,62.44 562.728,62.048 C562.728,61.704 562.662,61.41 562.53,61.166 C562.398,60.922 562.214,60.724 561.978,60.572 C561.742,60.42 561.458,60.308 561.126,60.236 C560.794,60.164 560.428,60.128 560.028,60.128 L560.028,60.128 L557.688,60.128 L557.688,68 L560.196,68 Z M559.848,63.476 L558.684,63.476 L558.684,60.92 L559.896,60.92 C560.512,60.92 560.974,61.016 561.282,61.208 C561.59,61.4 561.744,61.724 561.744,62.18 C561.744,62.58 561.596,62.896 561.3,63.128 C561.004,63.36 560.52,63.476 559.848,63.476 L559.848,63.476 Z M560.052,67.208 L558.684,67.208 L558.684,64.244 L560.052,64.244 C560.748,64.244 561.28,64.358 561.648,64.586 C562.016,64.814 562.2,65.172 562.2,65.66 C562.2,66.188 562.012,66.578 561.636,66.83 C561.26,67.082 560.732,67.208 560.052,67.208 L560.052,67.208 Z M569.184,68 L569.184,67.148 L565.74,67.148 L565.74,60.128 L564.744,60.128 L564.744,68 L569.184,68 Z M575.232,68 L575.232,67.148 L571.572,67.148 L571.572,64.292 L574.56,64.292 L574.56,63.44 L571.572,63.44 L571.572,60.968 L575.112,60.968 L575.112,60.128 L570.576,60.128 L570.576,68 L575.232,68 Z M583.74,68 L583.74,67.148 L580.296,67.148 L580.296,60.128 L579.3,60.128 L579.3,68 L583.74,68 Z M589.788,68 L589.788,67.148 L586.128,67.148 L586.128,64.292 L589.116,64.292 L589.116,63.44 L586.128,63.44 L586.128,60.968 L589.668,60.968 L589.668,60.128 L585.132,60.128 L585.132,68 L589.788,68 Z M592.404,68 L592.404,63.884 C592.404,63.468 592.39,63.054 592.362,62.642 C592.334,62.23 592.304,61.824 592.272,61.424 L592.272,61.424 L592.32,61.424 L593.172,63.044 L596.028,68 L597.06,68 L597.06,60.128 L596.112,60.128 L596.112,64.196 C596.112,64.612 596.126,65.034 596.154,65.462 C596.182,65.89 596.208,66.304 596.232,66.704 L596.232,66.704 L596.184,66.704 L595.332,65.072 L592.488,60.128 L591.456,60.128 L591.456,68 L592.404,68 Z M601.236,68 C601.828,68 602.352,67.91 602.808,67.73 C603.264,67.55 603.648,67.29 603.96,66.95 C604.272,66.61 604.508,66.194 604.668,65.702 C604.828,65.21 604.908,64.652 604.908,64.028 C604.908,62.772 604.592,61.808 603.96,61.136 C603.328,60.464 602.404,60.128 601.188,60.128 L601.188,60.128 L599.22,60.128 L599.22,68 L601.236,68 Z M601.116,67.184 L600.216,67.184 L600.216,60.944 L601.116,60.944 C602.036,60.944 602.726,61.208 603.186,61.736 C603.646,62.264 603.876,63.028 603.876,64.028 C603.876,65.028 603.646,65.804 603.186,66.356 C602.726,66.908 602.036,67.184 601.116,67.184 L601.116,67.184 Z M607.596,68 L607.596,60.128 L606.6,60.128 L606.6,68 L607.596,68 Z M610.704,68 L610.704,63.884 C610.704,63.468 610.69,63.054 610.662,62.642 C610.634,62.23 610.604,61.824 610.572,61.424 L610.572,61.424 L610.62,61.424 L611.472,63.044 L614.328,68 L615.36,68 L615.36,60.128 L614.412,60.128 L614.412,64.196 C614.412,64.612 614.426,65.034 614.454,65.462 C614.482,65.89 614.508,66.304 614.532,66.704 L614.532,66.704 L614.484,66.704 L613.632,65.072 L610.788,60.128 L609.756,60.128 L609.756,68 L610.704,68 Z M620.616,68.144 C621.144,68.144 621.616,68.058 622.032,67.886 C622.448,67.714 622.784,67.496 623.04,67.232 L623.04,67.232 L623.04,63.92 L620.46,63.92 L620.46,64.748 L622.128,64.748 L622.128,66.8 C621.968,66.944 621.762,67.058 621.51,67.142 C621.258,67.226 620.992,67.268 620.712,67.268 C620.288,67.268 619.914,67.192 619.59,67.04 C619.266,66.888 618.994,66.672 618.774,66.392 C618.554,66.112 618.386,65.774 618.27,65.378 C618.154,64.982 618.096,64.536 618.096,64.04 C618.096,63.552 618.158,63.112 618.282,62.72 C618.406,62.328 618.58,61.994 618.804,61.718 C619.028,61.442 619.3,61.23 619.62,61.082 C619.94,60.934 620.3,60.86 620.7,60.86 C621.1,60.86 621.432,60.932 621.696,61.076 C621.96,61.22 622.192,61.396 622.392,61.604 L622.392,61.604 L622.944,60.956 C622.832,60.836 622.702,60.718 622.554,60.602 C622.406,60.486 622.238,60.382 622.05,60.29 C621.862,60.198 621.654,60.124 621.426,60.068 C621.198,60.012 620.948,59.984 620.676,59.984 C620.156,59.984 619.674,60.078 619.23,60.266 C618.786,60.454 618.404,60.724 618.084,61.076 C617.764,61.428 617.514,61.856 617.334,62.36 C617.154,62.864 617.064,63.432 617.064,64.064 C617.064,64.704 617.152,65.278 617.328,65.786 C617.504,66.294 617.748,66.722 618.06,67.07 C618.372,67.418 618.746,67.684 619.182,67.868 C619.618,68.052 620.096,68.144 620.616,68.144 Z M558.936,84.32 L558.936,83.072 C559.56,82.936 560.028,82.662 560.34,82.25 C560.652,81.838 560.808,81.344 560.808,80.768 C560.808,80.384 560.73,80.062 560.574,79.802 C560.418,79.542 560.222,79.32 559.986,79.136 C559.75,78.952 559.496,78.796 559.224,78.668 C558.952,78.54 558.698,78.416 558.462,78.296 C558.226,78.176 558.03,78.05 557.874,77.918 C557.718,77.786 557.64,77.624 557.64,77.432 C557.64,77.16 557.716,76.964 557.868,76.844 C558.02,76.724 558.24,76.664 558.528,76.664 C558.784,76.664 559.012,76.714 559.212,76.814 C559.412,76.914 559.62,77.064 559.836,77.264 L559.836,77.264 L560.724,76.256 C560.492,76.008 560.232,75.796 559.944,75.62 C559.656,75.444 559.32,75.328 558.936,75.272 L558.936,75.272 L558.936,74.06 L557.772,74.06 L557.772,75.296 C557.204,75.408 556.758,75.658 556.434,76.046 C556.11,76.434 555.948,76.924 555.948,77.516 C555.948,77.876 556.026,78.18 556.182,78.428 C556.338,78.676 556.534,78.892 556.77,79.076 C557.006,79.26 557.26,79.418 557.532,79.55 C557.804,79.682 558.058,79.814 558.294,79.946 C558.53,80.078 558.726,80.216 558.882,80.36 C559.038,80.504 559.116,80.68 559.116,80.888 C559.116,81.168 559.038,81.376 558.882,81.512 C558.726,81.648 558.48,81.716 558.144,81.716 C557.856,81.716 557.574,81.658 557.298,81.542 C557.022,81.426 556.732,81.252 556.428,81.02 L556.428,81.02 L555.66,82.208 C555.94,82.464 556.274,82.67 556.662,82.826 C557.05,82.982 557.42,83.08 557.772,83.12 L557.772,83.12 L557.772,84.32 L558.936,84.32 Z M564.444,83.144 C564.828,83.144 565.192,83.094 565.536,82.994 C565.88,82.894 566.18,82.75 566.436,82.562 C566.692,82.374 566.896,82.142 567.048,81.866 C567.2,81.59 567.276,81.276 567.276,80.924 C567.276,80.428 567.134,80.026 566.85,79.718 C566.566,79.41 566.204,79.192 565.764,79.064 L565.764,79.064 L565.764,79.016 C566.172,78.84 566.486,78.614 566.706,78.338 C566.926,78.062 567.036,77.724 567.036,77.324 C567.036,76.988 566.972,76.692 566.844,76.436 C566.716,76.18 566.538,75.962 566.31,75.782 C566.082,75.602 565.806,75.466 565.482,75.374 C565.158,75.282 564.8,75.236 564.408,75.236 C563.936,75.236 563.506,75.322 563.118,75.494 C562.73,75.666 562.36,75.904 562.008,76.208 L562.008,76.208 L562.896,77.288 C563.136,77.08 563.366,76.916 563.586,76.796 C563.806,76.676 564.052,76.616 564.324,76.616 C564.628,76.616 564.86,76.69 565.02,76.838 C565.18,76.986 565.26,77.192 565.26,77.456 C565.26,77.608 565.23,77.746 565.17,77.87 C565.11,77.994 565.01,78.102 564.87,78.194 C564.73,78.286 564.546,78.356 564.318,78.404 C564.09,78.452 563.804,78.476 563.46,78.476 L563.46,78.476 L563.46,79.724 C563.876,79.724 564.216,79.75 564.48,79.802 C564.744,79.854 564.952,79.926 565.104,80.018 C565.256,80.11 565.362,80.224 565.422,80.36 C565.482,80.496 565.512,80.648 565.512,80.816 C565.512,81.104 565.4,81.326 565.176,81.482 C564.952,81.638 564.652,81.716 564.276,81.716 C563.948,81.716 563.646,81.644 563.37,81.5 C563.094,81.356 562.84,81.172 562.608,80.948 L562.608,80.948 L561.792,82.064 C562.072,82.392 562.428,82.654 562.86,82.85 C563.292,83.046 563.82,83.144 564.444,83.144 Z M569.664,83.144 C569.968,83.144 570.222,83.038 570.426,82.826 C570.63,82.614 570.732,82.352 570.732,82.04 C570.732,81.72 570.63,81.454 570.426,81.242 C570.222,81.03 569.968,80.924 569.664,80.924 C569.36,80.924 569.106,81.03 568.902,81.242 C568.698,81.454 568.596,81.72 568.596,82.04 C568.596,82.352 568.698,82.614 568.902,82.826 C569.106,83.038 569.36,83.144 569.664,83.144 Z M577.152,83 L577.152,81.572 L575.724,81.572 L575.724,75.38 L574.428,75.38 C574.156,75.54 573.876,75.676 573.588,75.788 C573.3,75.9 572.948,75.996 572.532,76.076 L572.532,76.076 L572.532,77.168 L573.96,77.168 L573.96,81.572 L572.304,81.572 L572.304,83 L577.152,83 Z M583.488,83 L583.488,81.572 L582.06,81.572 L582.06,75.38 L580.764,75.38 C580.492,75.54 580.212,75.676 579.924,75.788 C579.636,75.9 579.284,75.996 578.868,76.076 L578.868,76.076 L578.868,77.168 L580.296,77.168 L580.296,81.572 L578.64,81.572 L578.64,83 L583.488,83 Z M588.36,83 L588.36,76.664 L590.508,76.664 L590.508,75.176 L584.436,75.176 L584.436,76.664 L586.584,76.664 L586.584,83 L588.36,83 Z" id="AVAILABLELENDING$3.11T" fill="#666666" fill-rule="nonzero"></path>
                <line x1="471.5" y1="39.5" x2="471.5" y2="27.5" id="Line-14" stroke="#D8D8D8" stroke-linecap="round" stroke-linejoin="round" stroke-dasharray="3,3"></line>
                <line x1="572.5" y1="98" x2="572.5" y2="90" id="Line-14-Copy-5" stroke="#979797" stroke-width="0.5" stroke-linecap="square"></line>
                <line x1="98.5" y1="98" x2="98.5" y2="90" id="Line-14-Copy" stroke="#979797" stroke-width="0.5" stroke-linecap="square"></line>
                <g id="Group-4" transform="translate(0.000000, 100.000000)">
                    <rect id="Rectangle-Copy-20" fill="#6F41A7" x="0" y="0" width="197" height="40"></rect>
                    <rect id="Rectangle-Copy-15" fill="#DAD1E4" x="202" y="0" width="741" height="40"></rect>
                </g>
            </g>
        </g>
    </g>
</svg>