<?xml version="1.0" encoding="UTF-8"?>
<svg width="312px" height="139px" viewBox="0 0 312 139" version="1.1" xmlns="http://www.w3.org/2000/svg" xmlns:xlink="http://www.w3.org/1999/xlink">
    <title>Viz-1-B-Mobile</title>
    <defs>
        <rect id="path-1" x="198" y="0" width="68" height="40"></rect>
        <mask id="mask-2" maskContentUnits="userSpaceOnUse" maskUnits="objectBoundingBox" x="0" y="0" width="68" height="40" fill="white">
            <use xlink:href="#path-1"></use>
        </mask>
    </defs>
    <g id="SVG-2.0" stroke="none" stroke-width="1" fill="none" fill-rule="evenodd">
        <g id="360-outline" transform="translate(-15.000000, -350.000000)">
            <g id="Viz-1-B-Mobile" transform="translate(16.000000, 344.000000)">
                <path d="M42.61,67 L42.61,62.884 C42.61,62.468 42.596,62.054 42.568,61.642 C42.54,61.23 42.51,60.824 42.478,60.424 L42.478,60.424 L42.526,60.424 L43.378,62.044 L46.234,67 L47.266,67 L47.266,59.128 L46.318,59.128 L46.318,63.196 C46.318,63.612 46.332,64.034 46.36,64.462 C46.388,64.89 46.414,65.304 46.438,65.704 L46.438,65.704 L46.39,65.704 L45.538,64.072 L42.694,59.128 L41.662,59.128 L41.662,67 L42.61,67 Z M54.082,67 L54.082,66.148 L50.422,66.148 L50.422,63.292 L53.41,63.292 L53.41,62.44 L50.422,62.44 L50.422,59.968 L53.962,59.968 L53.962,59.128 L49.426,59.128 L49.426,67 L54.082,67 Z M57.802,67 L58.966,62.26 C59.03,61.956 59.096,61.658 59.164,61.366 C59.232,61.074 59.298,60.776 59.362,60.472 L59.362,60.472 L59.41,60.472 C59.474,60.776 59.536,61.074 59.596,61.366 C59.656,61.658 59.722,61.956 59.794,62.26 L59.794,62.26 L60.982,67 L62.182,67 L63.814,59.128 L62.854,59.128 L62.026,63.412 C61.946,63.836 61.87,64.258 61.798,64.678 C61.726,65.098 61.654,65.524 61.582,65.956 L61.582,65.956 L61.534,65.956 C61.438,65.524 61.342,65.096 61.246,64.672 C61.15,64.248 61.054,63.828 60.958,63.412 L60.958,63.412 L59.866,59.128 L58.954,59.128 L57.862,63.412 C57.774,63.836 57.682,64.258 57.586,64.678 C57.49,65.098 57.398,65.524 57.31,65.956 L57.31,65.956 L57.262,65.956 C57.19,65.524 57.114,65.1 57.034,64.684 L56.917,64.054 L56.917,64.054 L56.806,63.412 L55.978,59.128 L54.946,59.128 L56.614,67 L57.802,67 Z M67.558,67 L68.314,64.6 L71.182,64.6 L71.926,67 L72.994,67 L70.33,59.128 L69.202,59.128 L66.538,67 L67.558,67 Z M70.93,63.796 L68.566,63.796 L68.938,62.596 C69.082,62.156 69.218,61.718 69.346,61.282 C69.474,60.846 69.598,60.4 69.718,59.944 L69.718,59.944 L69.766,59.944 C69.894,60.4 70.022,60.846 70.15,61.282 C70.278,61.718 70.414,62.156 70.558,62.596 L70.558,62.596 L70.93,63.796 Z M77.086,67.144 C77.614,67.144 78.086,67.058 78.502,66.886 C78.918,66.714 79.254,66.496 79.51,66.232 L79.51,66.232 L79.51,62.92 L76.93,62.92 L76.93,63.748 L78.598,63.748 L78.598,65.8 C78.438,65.944 78.232,66.058 77.98,66.142 C77.728,66.226 77.462,66.268 77.182,66.268 C76.758,66.268 76.384,66.192 76.06,66.04 C75.736,65.888 75.464,65.672 75.244,65.392 C75.024,65.112 74.856,64.774 74.74,64.378 C74.624,63.982 74.566,63.536 74.566,63.04 C74.566,62.552 74.628,62.112 74.752,61.72 C74.876,61.328 75.05,60.994 75.274,60.718 C75.498,60.442 75.77,60.23 76.09,60.082 C76.41,59.934 76.77,59.86 77.17,59.86 C77.57,59.86 77.902,59.932 78.166,60.076 C78.43,60.22 78.662,60.396 78.862,60.604 L78.862,60.604 L79.414,59.956 C79.302,59.836 79.172,59.718 79.024,59.602 C78.876,59.486 78.708,59.382 78.52,59.29 C78.332,59.198 78.124,59.124 77.896,59.068 C77.668,59.012 77.418,58.984 77.146,58.984 C76.626,58.984 76.144,59.078 75.7,59.266 C75.256,59.454 74.874,59.724 74.554,60.076 C74.234,60.428 73.984,60.856 73.804,61.36 C73.624,61.864 73.534,62.432 73.534,63.064 C73.534,63.704 73.622,64.278 73.798,64.786 C73.974,65.294 74.218,65.722 74.53,66.07 C74.842,66.418 75.216,66.684 75.652,66.868 C76.088,67.052 76.566,67.144 77.086,67.144 Z M86.05,67 L86.05,66.148 L82.39,66.148 L82.39,63.292 L85.378,63.292 L85.378,62.44 L82.39,62.44 L82.39,59.968 L85.93,59.968 L85.93,59.128 L81.394,59.128 L81.394,67 L86.05,67 Z M88.666,67 L88.666,62.884 C88.666,62.468 88.652,62.054 88.624,61.642 C88.596,61.23 88.566,60.824 88.534,60.424 L88.534,60.424 L88.582,60.424 L89.434,62.044 L92.29,67 L93.322,67 L93.322,59.128 L92.374,59.128 L92.374,63.196 C92.374,63.612 92.388,64.034 92.416,64.462 C92.444,64.89 92.47,65.304 92.494,65.704 L92.494,65.704 L92.446,65.704 L91.594,64.072 L88.75,59.128 L87.718,59.128 L87.718,67 L88.666,67 Z M98.458,67.144 C98.97,67.144 99.422,67.044 99.814,66.844 C100.206,66.644 100.558,66.364 100.87,66.004 L100.87,66.004 L100.318,65.38 C100.062,65.66 99.79,65.878 99.502,66.034 C99.214,66.19 98.878,66.268 98.494,66.268 C98.118,66.268 97.78,66.192 97.48,66.04 C97.18,65.888 96.926,65.672 96.718,65.392 C96.51,65.112 96.348,64.774 96.232,64.378 C96.116,63.982 96.058,63.536 96.058,63.04 C96.058,62.552 96.116,62.112 96.232,61.72 C96.348,61.328 96.514,60.994 96.73,60.718 C96.946,60.442 97.206,60.23 97.51,60.082 C97.814,59.934 98.154,59.86 98.53,59.86 C98.866,59.86 99.166,59.928 99.43,60.064 C99.694,60.2 99.93,60.38 100.138,60.604 L100.138,60.604 L100.678,59.956 C100.446,59.7 100.148,59.474 99.784,59.278 C99.42,59.082 98.998,58.984 98.518,58.984 C98.014,58.984 97.55,59.078 97.126,59.266 C96.702,59.454 96.334,59.724 96.022,60.076 C95.71,60.428 95.466,60.856 95.29,61.36 C95.114,61.864 95.026,62.432 95.026,63.064 C95.026,63.704 95.112,64.278 95.284,64.786 C95.456,65.294 95.696,65.722 96.004,66.07 C96.312,66.418 96.674,66.684 97.09,66.868 C97.506,67.052 97.962,67.144 98.458,67.144 Z M104.53,67 L104.53,63.952 L106.894,59.128 L105.85,59.128 L104.842,61.348 C104.722,61.636 104.594,61.92 104.458,62.2 C104.322,62.48 104.186,62.768 104.05,63.064 L104.05,63.064 L104.002,63.064 C103.866,62.768 103.738,62.48 103.618,62.2 C103.498,61.92 103.374,61.636 103.246,61.348 L103.246,61.348 L102.226,59.128 L101.158,59.128 L103.522,63.952 L103.522,67 L104.53,67 Z M111.358,67 L111.358,63.472 L114.358,63.472 L114.358,62.632 L111.358,62.632 L111.358,59.968 L114.898,59.968 L114.898,59.128 L110.362,59.128 L110.362,67 L111.358,67 Z M119.086,67.144 C119.486,67.144 119.858,67.086 120.202,66.97 C120.546,66.854 120.844,66.662 121.096,66.394 C121.348,66.126 121.546,65.776 121.69,65.344 C121.834,64.912 121.906,64.38 121.906,63.748 L121.906,63.748 L121.906,59.128 L120.946,59.128 L120.946,63.772 C120.946,64.244 120.898,64.64 120.802,64.96 C120.706,65.28 120.574,65.536 120.406,65.728 C120.238,65.92 120.042,66.058 119.818,66.142 C119.594,66.226 119.35,66.268 119.086,66.268 C118.83,66.268 118.59,66.226 118.366,66.142 C118.142,66.058 117.948,65.92 117.784,65.728 C117.62,65.536 117.49,65.28 117.394,64.96 C117.298,64.64 117.25,64.244 117.25,63.772 L117.25,63.772 L117.25,59.128 L116.254,59.128 L116.254,63.748 C116.254,64.38 116.326,64.912 116.47,65.344 C116.614,65.776 116.812,66.126 117.064,66.394 C117.316,66.662 117.616,66.854 117.964,66.97 C118.312,67.086 118.686,67.144 119.086,67.144 Z M124.978,67 L124.978,62.884 C124.978,62.468 124.964,62.054 124.936,61.642 C124.908,61.23 124.878,60.824 124.846,60.424 L124.846,60.424 L124.894,60.424 L125.746,62.044 L128.602,67 L129.634,67 L129.634,59.128 L128.686,59.128 L128.686,63.196 C128.686,63.612 128.7,64.034 128.728,64.462 C128.756,64.89 128.782,65.304 128.806,65.704 L128.806,65.704 L128.758,65.704 L127.906,64.072 L125.062,59.128 L124.03,59.128 L124.03,67 L124.978,67 Z M133.81,67 C134.402,67 134.926,66.91 135.382,66.73 C135.838,66.55 136.222,66.29 136.534,65.95 C136.846,65.61 137.082,65.194 137.242,64.702 C137.402,64.21 137.482,63.652 137.482,63.028 C137.482,61.772 137.166,60.808 136.534,60.136 C135.902,59.464 134.978,59.128 133.762,59.128 L133.762,59.128 L131.794,59.128 L131.794,67 L133.81,67 Z M133.69,66.184 L132.79,66.184 L132.79,59.944 L133.69,59.944 C134.61,59.944 135.3,60.208 135.76,60.736 C136.22,61.264 136.45,62.028 136.45,63.028 C136.45,64.028 136.22,64.804 135.76,65.356 C135.3,65.908 134.61,66.184 133.69,66.184 L133.69,66.184 Z M140.17,67 L140.17,59.128 L139.174,59.128 L139.174,67 L140.17,67 Z M143.278,67 L143.278,62.884 C143.278,62.468 143.264,62.054 143.236,61.642 C143.208,61.23 143.178,60.824 143.146,60.424 L143.146,60.424 L143.194,60.424 L144.046,62.044 L146.902,67 L147.934,67 L147.934,59.128 L146.986,59.128 L146.986,63.196 C146.986,63.612 147,64.034 147.028,64.462 C147.056,64.89 147.082,65.304 147.106,65.704 L147.106,65.704 L147.058,65.704 L146.206,64.072 L143.362,59.128 L142.33,59.128 L142.33,67 L143.278,67 Z M153.19,67.144 C153.718,67.144 154.19,67.058 154.606,66.886 C155.022,66.714 155.358,66.496 155.614,66.232 L155.614,66.232 L155.614,62.92 L153.034,62.92 L153.034,63.748 L154.702,63.748 L154.702,65.8 C154.542,65.944 154.336,66.058 154.084,66.142 C153.832,66.226 153.566,66.268 153.286,66.268 C152.862,66.268 152.488,66.192 152.164,66.04 C151.84,65.888 151.568,65.672 151.348,65.392 C151.128,65.112 150.96,64.774 150.844,64.378 C150.728,63.982 150.67,63.536 150.67,63.04 C150.67,62.552 150.732,62.112 150.856,61.72 C150.98,61.328 151.154,60.994 151.378,60.718 C151.602,60.442 151.874,60.23 152.194,60.082 C152.514,59.934 152.874,59.86 153.274,59.86 C153.674,59.86 154.006,59.932 154.27,60.076 C154.534,60.22 154.766,60.396 154.966,60.604 L154.966,60.604 L155.518,59.956 C155.406,59.836 155.276,59.718 155.128,59.602 C154.98,59.486 154.812,59.382 154.624,59.29 C154.436,59.198 154.228,59.124 154,59.068 C153.772,59.012 153.522,58.984 153.25,58.984 C152.73,58.984 152.248,59.078 151.804,59.266 C151.36,59.454 150.978,59.724 150.658,60.076 C150.338,60.428 150.088,60.856 149.908,61.36 C149.728,61.864 149.638,62.432 149.638,63.064 C149.638,63.704 149.726,64.278 149.902,64.786 C150.078,65.294 150.322,65.722 150.634,66.07 C150.946,66.418 151.32,66.684 151.756,66.868 C152.192,67.052 152.67,67.144 153.19,67.144 Z M84.436,83.32 L84.436,82.072 C85.06,81.936 85.528,81.662 85.84,81.25 C86.152,80.838 86.308,80.344 86.308,79.768 C86.308,79.384 86.23,79.062 86.074,78.802 C85.918,78.542 85.722,78.32 85.486,78.136 C85.25,77.952 84.996,77.796 84.724,77.668 C84.452,77.54 84.198,77.416 83.962,77.296 C83.726,77.176 83.53,77.05 83.374,76.918 C83.218,76.786 83.14,76.624 83.14,76.432 C83.14,76.16 83.216,75.964 83.368,75.844 C83.52,75.724 83.74,75.664 84.028,75.664 C84.284,75.664 84.512,75.714 84.712,75.814 C84.912,75.914 85.12,76.064 85.336,76.264 L85.336,76.264 L86.224,75.256 C85.992,75.008 85.732,74.796 85.444,74.62 C85.156,74.444 84.82,74.328 84.436,74.272 L84.436,74.272 L84.436,73.06 L83.272,73.06 L83.272,74.296 C82.704,74.408 82.258,74.658 81.934,75.046 C81.61,75.434 81.448,75.924 81.448,76.516 C81.448,76.876 81.526,77.18 81.682,77.428 C81.838,77.676 82.034,77.892 82.27,78.076 C82.506,78.26 82.76,78.418 83.032,78.55 C83.304,78.682 83.558,78.814 83.794,78.946 C84.03,79.078 84.226,79.216 84.382,79.36 C84.538,79.504 84.616,79.68 84.616,79.888 C84.616,80.168 84.538,80.376 84.382,80.512 C84.226,80.648 83.98,80.716 83.644,80.716 C83.356,80.716 83.074,80.658 82.798,80.542 C82.522,80.426 82.232,80.252 81.928,80.02 L81.928,80.02 L81.16,81.208 C81.44,81.464 81.774,81.67 82.162,81.826 C82.55,81.982 82.92,82.08 83.272,82.12 L83.272,82.12 L83.272,83.32 L84.436,83.32 Z M92.836,82 L92.836,80.512 L91.3,80.512 C91.116,80.512 90.906,80.522 90.67,80.542 C90.434,80.562 90.22,80.584 90.028,80.608 C90.34,80.288 90.642,79.962 90.934,79.63 C91.226,79.298 91.486,78.966 91.714,78.634 C91.942,78.302 92.124,77.97 92.26,77.638 C92.396,77.306 92.464,76.98 92.464,76.66 C92.464,76.292 92.404,75.96 92.284,75.664 C92.164,75.368 91.992,75.114 91.768,74.902 C91.544,74.69 91.278,74.526 90.97,74.41 C90.662,74.294 90.32,74.236 89.944,74.236 C89.4,74.236 88.932,74.338 88.54,74.542 C88.148,74.746 87.764,75.048 87.388,75.448 L87.388,75.448 L88.348,76.396 C88.54,76.188 88.744,76.006 88.96,75.85 C89.176,75.694 89.424,75.616 89.704,75.616 C90.04,75.616 90.304,75.714 90.496,75.91 C90.688,76.106 90.784,76.392 90.784,76.768 C90.784,77.04 90.702,77.326 90.538,77.626 C90.374,77.926 90.146,78.25 89.854,78.598 C89.562,78.946 89.214,79.318 88.81,79.714 C88.406,80.11 87.96,80.536 87.472,80.992 L87.472,80.992 L87.472,82 L92.836,82 Z M95.164,82.144 C95.468,82.144 95.722,82.038 95.926,81.826 C96.13,81.614 96.232,81.352 96.232,81.04 C96.232,80.72 96.13,80.454 95.926,80.242 C95.722,80.03 95.468,79.924 95.164,79.924 C94.86,79.924 94.606,80.03 94.402,80.242 C94.198,80.454 94.096,80.72 94.096,81.04 C94.096,81.352 94.198,81.614 94.402,81.826 C94.606,82.038 94.86,82.144 95.164,82.144 Z M99.928,82.144 C100.296,82.144 100.65,82.084 100.99,81.964 C101.33,81.844 101.628,81.67 101.884,81.442 C102.14,81.214 102.344,80.936 102.496,80.608 C102.648,80.28 102.724,79.904 102.724,79.48 C102.724,79.072 102.66,78.72 102.532,78.424 C102.404,78.128 102.228,77.884 102.004,77.692 C101.78,77.5 101.522,77.356 101.23,77.26 C100.938,77.164 100.628,77.116 100.3,77.116 C100.14,77.116 99.994,77.13 99.862,77.158 C99.73,77.186 99.592,77.232 99.448,77.296 L99.448,77.296 L99.58,75.868 L102.376,75.868 L102.376,74.38 L98.056,74.38 L97.84,78.232 L98.632,78.736 C98.744,78.664 98.846,78.604 98.938,78.556 C99.03,78.508 99.118,78.468 99.202,78.436 C99.286,78.404 99.372,78.382 99.46,78.37 C99.548,78.358 99.648,78.352 99.76,78.352 C100.12,78.352 100.41,78.452 100.63,78.652 C100.85,78.852 100.96,79.144 100.96,79.528 C100.96,79.92 100.844,80.216 100.612,80.416 C100.38,80.616 100.068,80.716 99.676,80.716 C99.348,80.716 99.05,80.642 98.782,80.494 C98.514,80.346 98.264,80.168 98.032,79.96 L98.032,79.96 L97.24,81.076 C97.544,81.38 97.912,81.634 98.344,81.838 C98.776,82.042 99.304,82.144 99.928,82.144 Z M106.048,82.144 C106.448,82.144 106.834,82.062 107.206,81.898 C107.578,81.734 107.906,81.484 108.19,81.148 C108.474,80.812 108.702,80.384 108.874,79.864 C109.046,79.344 109.132,78.728 109.132,78.016 C109.132,77.344 109.05,76.77 108.886,76.294 C108.722,75.818 108.506,75.428 108.238,75.124 C107.97,74.82 107.662,74.596 107.314,74.452 C106.966,74.308 106.608,74.236 106.24,74.236 C105.896,74.236 105.57,74.294 105.262,74.41 C104.954,74.526 104.686,74.696 104.458,74.92 C104.23,75.144 104.048,75.414 103.912,75.73 C103.776,76.046 103.708,76.4 103.708,76.792 C103.708,77.192 103.766,77.54 103.882,77.836 C103.998,78.132 104.156,78.376 104.356,78.568 C104.556,78.76 104.794,78.904 105.07,79 C105.346,79.096 105.648,79.144 105.976,79.144 C106.096,79.144 106.224,79.126 106.36,79.09 C106.496,79.054 106.632,79.002 106.768,78.934 C106.904,78.866 107.036,78.782 107.164,78.682 C107.292,78.582 107.404,78.468 107.5,78.34 C107.484,78.788 107.434,79.162 107.35,79.462 C107.266,79.762 107.154,80.006 107.014,80.194 C106.874,80.382 106.712,80.516 106.528,80.596 C106.344,80.676 106.144,80.716 105.928,80.716 C105.704,80.716 105.484,80.662 105.268,80.554 C105.052,80.446 104.88,80.32 104.752,80.176 L104.752,80.176 L103.816,81.232 C104.056,81.472 104.362,81.684 104.734,81.868 C105.106,82.052 105.544,82.144 106.048,82.144 Z M106.324,77.896 C106.036,77.896 105.796,77.814 105.604,77.65 C105.412,77.486 105.316,77.2 105.316,76.792 C105.316,76.36 105.412,76.046 105.604,75.85 C105.796,75.654 106.02,75.556 106.276,75.556 C106.548,75.556 106.794,75.67 107.014,75.898 C107.234,76.126 107.384,76.54 107.464,77.14 C107.312,77.412 107.134,77.606 106.93,77.722 C106.726,77.838 106.524,77.896 106.324,77.896 Z M113.86,82 L113.86,75.664 L116.008,75.664 L116.008,74.176 L109.936,74.176 L109.936,75.664 L112.084,75.664 L112.084,82 L113.86,82 Z" id="NEWAGENCYFUNDING$2.59T" fill="#666666" fill-rule="nonzero"></path>
                <path d="M0,105 L0,41 L266,41 L266,105" id="Path-21-Copy-2" stroke="#D8D8D8" stroke-dasharray="3,3"></path>
                <polyline id="Path-21-Copy-3" stroke="#979797" stroke-width="0.5" points="0 105 0 97 197 97 197 105"></polyline>
                <line x1="133.5" y1="40.5" x2="133.5" y2="28.5" id="Line-14-Copy-4" stroke="#D8D8D8" stroke-linecap="round" stroke-linejoin="round" stroke-dasharray="3,3"></line>
                <line x1="98.25" y1="97" x2="98.25" y2="89" id="Line-14-Copy-6" stroke="#979797" stroke-width="0.5" stroke-linecap="square"></line>
                <g id="Group" transform="translate(0.000000, 105.000000)">
                    <g id="Group-10-Copy-3" fill="#6F41A7" transform="translate(0.000000, 0.000000)">
                        <rect id="Rectangle" x="159.219178" y="1.70530257e-13" width="37.7808219" height="40"></rect>
                        <rect id="Rectangle-Copy-13" x="3.59817352" y="1.70530257e-13" width="154.721461" height="40"></rect>
                        <rect id="Rectangle-Copy-14" x="1.79908676" y="1.70530257e-13" width="1" height="40"></rect>
                        <rect id="Rectangle-Copy-17" x="0" y="1.70530257e-13" width="1" height="40"></rect>
                    </g>
                    <use id="Rectangle-Copy-2" stroke="#979797" mask="url(#mask-2)" stroke-width="2" fill="#E1E1E1" stroke-dasharray="4,3" xlink:href="#path-1"></use>
                </g>
                <path d="M279.72,113 L279.72,105.968 L282.096,105.968 L282.096,105.128 L276.336,105.128 L276.336,105.968 L278.712,105.968 L278.712,113 L279.72,113 Z M283.008,113 L283.764,110.6 L286.632,110.6 L287.376,113 L288.444,113 L285.78,105.128 L284.652,105.128 L281.988,113 L283.008,113 Z M286.38,109.796 L284.016,109.796 L284.388,108.596 C284.532,108.156 284.668,107.718 284.796,107.282 C284.924,106.846 285.048,106.4 285.168,105.944 L285.168,105.944 L285.216,105.944 C285.344,106.4 285.472,106.846 285.6,107.282 C285.728,107.718 285.864,108.156 286.008,108.596 L286.008,108.596 L286.38,109.796 Z M289.764,113 L290.904,110.876 C291,110.684 291.1,110.486 291.204,110.282 C291.308,110.078 291.416,109.856 291.528,109.616 L291.528,109.616 L291.576,109.616 C291.704,109.856 291.822,110.078 291.93,110.282 C292.038,110.486 292.144,110.684 292.248,110.876 L292.248,110.876 L293.4,113 L294.504,113 L292.212,108.98 L294.36,105.128 L293.304,105.128 L292.26,107.144 C292.164,107.328 292.074,107.506 291.99,107.678 C291.906,107.85 291.808,108.052 291.696,108.284 L291.696,108.284 L291.648,108.284 C291.528,108.052 291.422,107.85 291.33,107.678 C291.238,107.506 291.14,107.328 291.036,107.144 L291.036,107.144 L289.968,105.128 L288.864,105.128 L291,108.932 L288.708,113 L289.764,113 Z M278.076,128 L278.076,124.676 L279.504,124.676 L281.4,128 L282.528,128 L280.524,124.568 C281.068,124.432 281.5,124.18 281.82,123.812 C282.14,123.444 282.3,122.952 282.3,122.336 C282.3,121.928 282.232,121.584 282.096,121.304 C281.96,121.024 281.77,120.796 281.526,120.62 C281.282,120.444 280.99,120.318 280.65,120.242 C280.31,120.166 279.94,120.128 279.54,120.128 L279.54,120.128 L277.08,120.128 L277.08,128 L278.076,128 Z M279.396,123.86 L278.076,123.86 L278.076,120.932 L279.396,120.932 C280.012,120.932 280.484,121.036 280.812,121.244 C281.14,121.452 281.304,121.816 281.304,122.336 C281.304,122.848 281.14,123.23 280.812,123.482 C280.484,123.734 280.012,123.86 279.396,123.86 L279.396,123.86 Z M288.564,128 L288.564,127.148 L284.904,127.148 L284.904,124.292 L287.892,124.292 L287.892,123.44 L284.904,123.44 L284.904,120.968 L288.444,120.968 L288.444,120.128 L283.908,120.128 L283.908,128 L288.564,128 Z M294.672,128 L294.672,127.148 L291.228,127.148 L291.228,120.128 L290.232,120.128 L290.232,128 L294.672,128 Z M297.06,128 L297.06,120.128 L296.064,120.128 L296.064,128 L297.06,128 Z M303.876,128 L303.876,127.148 L300.216,127.148 L300.216,124.292 L303.204,124.292 L303.204,123.44 L300.216,123.44 L300.216,120.968 L303.756,120.968 L303.756,120.128 L299.22,120.128 L299.22,128 L303.876,128 Z M306.54,128 L306.54,124.472 L309.54,124.472 L309.54,123.632 L306.54,123.632 L306.54,120.968 L310.08,120.968 L310.08,120.128 L305.544,120.128 L305.544,128 L306.54,128 Z M279.744,144.32 L279.744,143.072 C280.368,142.936 280.836,142.662 281.148,142.25 C281.46,141.838 281.616,141.344 281.616,140.768 C281.616,140.384 281.538,140.062 281.382,139.802 C281.226,139.542 281.03,139.32 280.794,139.136 C280.558,138.952 280.304,138.796 280.032,138.668 C279.76,138.54 279.506,138.416 279.27,138.296 C279.034,138.176 278.838,138.05 278.682,137.918 C278.526,137.786 278.448,137.624 278.448,137.432 C278.448,137.16 278.524,136.964 278.676,136.844 C278.828,136.724 279.048,136.664 279.336,136.664 C279.592,136.664 279.82,136.714 280.02,136.814 C280.22,136.914 280.428,137.064 280.644,137.264 L280.644,137.264 L281.532,136.256 C281.3,136.008 281.04,135.796 280.752,135.62 C280.464,135.444 280.128,135.328 279.744,135.272 L279.744,135.272 L279.744,134.06 L278.58,134.06 L278.58,135.296 C278.012,135.408 277.566,135.658 277.242,136.046 C276.918,136.434 276.756,136.924 276.756,137.516 C276.756,137.876 276.834,138.18 276.99,138.428 C277.146,138.676 277.342,138.892 277.578,139.076 C277.814,139.26 278.068,139.418 278.34,139.55 C278.612,139.682 278.866,139.814 279.102,139.946 C279.338,140.078 279.534,140.216 279.69,140.36 C279.846,140.504 279.924,140.68 279.924,140.888 C279.924,141.168 279.846,141.376 279.69,141.512 C279.534,141.648 279.288,141.716 278.952,141.716 C278.664,141.716 278.382,141.658 278.106,141.542 C277.83,141.426 277.54,141.252 277.236,141.02 L277.236,141.02 L276.468,142.208 C276.748,142.464 277.082,142.67 277.47,142.826 C277.858,142.982 278.228,143.08 278.58,143.12 L278.58,143.12 L278.58,144.32 L279.744,144.32 Z M285.084,143.144 C285.484,143.144 285.87,143.062 286.242,142.898 C286.614,142.734 286.942,142.484 287.226,142.148 C287.51,141.812 287.738,141.384 287.91,140.864 C288.082,140.344 288.168,139.728 288.168,139.016 C288.168,138.344 288.086,137.77 287.922,137.294 C287.758,136.818 287.542,136.428 287.274,136.124 C287.006,135.82 286.698,135.596 286.35,135.452 C286.002,135.308 285.644,135.236 285.276,135.236 C284.932,135.236 284.606,135.294 284.298,135.41 C283.99,135.526 283.722,135.696 283.494,135.92 C283.266,136.144 283.084,136.414 282.948,136.73 C282.812,137.046 282.744,137.4 282.744,137.792 C282.744,138.192 282.802,138.54 282.918,138.836 C283.034,139.132 283.192,139.376 283.392,139.568 C283.592,139.76 283.83,139.904 284.106,140 C284.382,140.096 284.684,140.144 285.012,140.144 C285.132,140.144 285.26,140.126 285.396,140.09 C285.532,140.054 285.668,140.002 285.804,139.934 C285.94,139.866 286.072,139.782 286.2,139.682 C286.328,139.582 286.44,139.468 286.536,139.34 C286.52,139.788 286.47,140.162 286.386,140.462 C286.302,140.762 286.19,141.006 286.05,141.194 C285.91,141.382 285.748,141.516 285.564,141.596 C285.38,141.676 285.18,141.716 284.964,141.716 C284.74,141.716 284.52,141.662 284.304,141.554 C284.088,141.446 283.916,141.32 283.788,141.176 L283.788,141.176 L282.852,142.232 C283.092,142.472 283.398,142.684 283.77,142.868 C284.142,143.052 284.58,143.144 285.084,143.144 Z M285.36,138.896 C285.072,138.896 284.832,138.814 284.64,138.65 C284.448,138.486 284.352,138.2 284.352,137.792 C284.352,137.36 284.448,137.046 284.64,136.85 C284.832,136.654 285.056,136.556 285.312,136.556 C285.584,136.556 285.83,136.67 286.05,136.898 C286.27,137.126 286.42,137.54 286.5,138.14 C286.348,138.412 286.17,138.606 285.966,138.722 C285.762,138.838 285.56,138.896 285.36,138.896 Z M291.84,143.144 C292.248,143.144 292.62,143.058 292.956,142.886 C293.292,142.714 293.578,142.46 293.814,142.124 C294.05,141.788 294.234,141.372 294.366,140.876 C294.498,140.38 294.564,139.808 294.564,139.16 C294.564,138.512 294.498,137.944 294.366,137.456 C294.234,136.968 294.05,136.558 293.814,136.226 C293.578,135.894 293.292,135.646 292.956,135.482 C292.62,135.318 292.248,135.236 291.84,135.236 C291.432,135.236 291.06,135.318 290.724,135.482 C290.388,135.646 290.102,135.894 289.866,136.226 C289.63,136.558 289.446,136.968 289.314,137.456 C289.182,137.944 289.116,138.512 289.116,139.16 C289.116,139.808 289.182,140.38 289.314,140.876 C289.446,141.372 289.63,141.788 289.866,142.124 C290.102,142.46 290.388,142.714 290.724,142.886 C291.06,143.058 291.432,143.144 291.84,143.144 Z M291.84,141.776 C291.696,141.776 291.56,141.738 291.432,141.662 C291.304,141.586 291.192,141.448 291.096,141.248 C291,141.048 290.924,140.78 290.868,140.444 C290.812,140.108 290.784,139.68 290.784,139.16 C290.784,138.64 290.812,138.214 290.868,137.882 C290.924,137.55 291,137.29 291.096,137.102 C291.192,136.914 291.304,136.784 291.432,136.712 C291.56,136.64 291.696,136.604 291.84,136.604 C291.992,136.604 292.132,136.64 292.26,136.712 C292.388,136.784 292.5,136.914 292.596,137.102 C292.692,137.29 292.766,137.55 292.818,137.882 C292.87,138.214 292.896,138.64 292.896,139.16 C292.896,139.68 292.87,140.108 292.818,140.444 C292.766,140.78 292.692,141.048 292.596,141.248 C292.5,141.448 292.388,141.586 292.26,141.662 C292.132,141.738 291.992,141.776 291.84,141.776 Z M300.816,143 L300.816,141.512 L299.28,141.512 C299.096,141.512 298.886,141.522 298.65,141.542 C298.414,141.562 298.2,141.584 298.008,141.608 C298.32,141.288 298.622,140.962 298.914,140.63 C299.206,140.298 299.466,139.966 299.694,139.634 C299.922,139.302 300.104,138.97 300.24,138.638 C300.376,138.306 300.444,137.98 300.444,137.66 C300.444,137.292 300.384,136.96 300.264,136.664 C300.144,136.368 299.972,136.114 299.748,135.902 C299.524,135.69 299.258,135.526 298.95,135.41 C298.642,135.294 298.3,135.236 297.924,135.236 C297.38,135.236 296.912,135.338 296.52,135.542 C296.128,135.746 295.744,136.048 295.368,136.448 L295.368,136.448 L296.328,137.396 C296.52,137.188 296.724,137.006 296.94,136.85 C297.156,136.694 297.404,136.616 297.684,136.616 C298.02,136.616 298.284,136.714 298.476,136.91 C298.668,137.106 298.764,137.392 298.764,137.768 C298.764,138.04 298.682,138.326 298.518,138.626 C298.354,138.926 298.126,139.25 297.834,139.598 C297.542,139.946 297.194,140.318 296.79,140.714 C296.386,141.11 295.94,141.536 295.452,141.992 L295.452,141.992 L295.452,143 L300.816,143 Z M305.172,143 C305.596,143 305.992,142.954 306.36,142.862 C306.728,142.77 307.05,142.63 307.326,142.442 C307.602,142.254 307.818,142.016 307.974,141.728 C308.13,141.44 308.208,141.096 308.208,140.696 C308.208,140.432 308.172,140.198 308.1,139.994 C308.028,139.79 307.928,139.612 307.8,139.46 C307.672,139.308 307.524,139.182 307.356,139.082 C307.188,138.982 307.004,138.908 306.804,138.86 L306.804,138.86 L306.804,138.812 C306.964,138.756 307.106,138.668 307.23,138.548 C307.354,138.428 307.46,138.292 307.548,138.14 C307.636,137.988 307.704,137.824 307.752,137.648 C307.8,137.472 307.824,137.296 307.824,137.12 C307.824,136.744 307.75,136.432 307.602,136.184 C307.454,135.936 307.25,135.736 306.99,135.584 C306.73,135.432 306.426,135.326 306.078,135.266 C305.73,135.206 305.352,135.176 304.944,135.176 L304.944,135.176 L302.268,135.176 L302.268,143 L305.172,143 Z M304.86,138.308 L304.032,138.308 L304.032,136.544 L304.872,136.544 C305.288,136.544 305.596,136.608 305.796,136.736 C305.996,136.864 306.096,137.08 306.096,137.384 C306.096,137.664 305.998,137.888 305.802,138.056 C305.606,138.224 305.292,138.308 304.86,138.308 L304.86,138.308 Z M305.028,141.632 L304.032,141.632 L304.032,139.616 L305.028,139.616 C305.516,139.616 305.88,139.69 306.12,139.838 C306.36,139.986 306.48,140.232 306.48,140.576 C306.48,141.28 305.996,141.632 305.028,141.632 L305.028,141.632 Z" id="TAXRELIEF$902B" fill="#666666" fill-rule="nonzero"></path>
                <line x1="269.5" y1="124.5" x2="273.5" y2="124.5" id="Line-14-Copy-3" stroke="#979797" stroke-width="0.5" stroke-linecap="square"></line>
                <path d="M4.96,18 L4.96,8.624 L8.128,8.624 L8.128,7.504 L0.448,7.504 L0.448,8.624 L3.616,8.624 L3.616,18 L4.96,18 Z M11.856,18.192 C12.336,18.192 12.792,18.1013333 13.224,17.92 C13.656,17.7386667 14.0373333,17.4746667 14.368,17.128 C14.6986667,16.7813333 14.9626667,16.3546667 15.16,15.848 C15.3573333,15.3413333 15.456,14.768 15.456,14.128 C15.456,13.4773333 15.3573333,12.8986667 15.16,12.392 C14.9626667,11.8853333 14.6986667,11.456 14.368,11.104 C14.0373333,10.752 13.656,10.4853333 13.224,10.304 C12.792,10.1226667 12.336,10.032 11.856,10.032 C11.376,10.032 10.92,10.1226667 10.488,10.304 C10.056,10.4853333 9.67466667,10.752 9.344,11.104 C9.01333333,11.456 8.74933333,11.8853333 8.552,12.392 C8.35466667,12.8986667 8.256,13.4773333 8.256,14.128 C8.256,14.768 8.35466667,15.3413333 8.552,15.848 C8.74933333,16.3546667 9.01333333,16.7813333 9.344,17.128 C9.67466667,17.4746667 10.056,17.7386667 10.488,17.92 C10.92,18.1013333 11.376,18.192 11.856,18.192 Z M11.856,17.104 C11.5253333,17.104 11.2213333,17.032 10.944,16.888 C10.6666667,16.744 10.4293333,16.5413333 10.232,16.28 C10.0346667,16.0186667 9.88266667,15.7066667 9.776,15.344 C9.66933333,14.9813333 9.616,14.576 9.616,14.128 C9.616,13.68 9.66933333,13.272 9.776,12.904 C9.88266667,12.536 10.0346667,12.2186667 10.232,11.952 C10.4293333,11.6853333 10.6666667,11.48 10.944,11.336 C11.2213333,11.192 11.5253333,11.12 11.856,11.12 C12.1866667,11.12 12.4906667,11.192 12.768,11.336 C13.0453333,11.48 13.2826667,11.6853333 13.48,11.952 C13.6773333,12.2186667 13.8293333,12.536 13.936,12.904 C14.0426667,13.272 14.096,13.68 14.096,14.128 C14.096,14.576 14.0426667,14.9813333 13.936,15.344 C13.8293333,15.7066667 13.6773333,16.0186667 13.48,16.28 C13.2826667,16.5413333 13.0453333,16.744 12.768,16.888 C12.4906667,17.032 12.1866667,17.104 11.856,17.104 Z M19.68,18.192 C19.9253333,18.192 20.1733333,18.1626667 20.424,18.104 C20.6746667,18.0453333 20.9066667,17.9786667 21.12,17.904 L21.12,17.904 L20.864,16.912 C20.736,16.9653333 20.592,17.0133333 20.432,17.056 C20.272,17.0986667 20.1226667,17.12 19.984,17.12 C19.536,17.12 19.224,16.9893333 19.048,16.728 C18.872,16.4666667 18.784,16.096 18.784,15.616 L18.784,15.616 L18.784,11.296 L20.88,11.296 L20.88,10.224 L18.784,10.224 L18.784,8.048 L17.68,8.048 L17.52,10.224 L16.304,10.304 L16.304,11.296 L17.456,11.296 L17.456,15.6 C17.456,15.984 17.4933333,16.336 17.568,16.656 C17.6426667,16.976 17.768,17.248 17.944,17.472 C18.12,17.696 18.3493333,17.872 18.632,18 C18.9146667,18.128 19.264,18.192 19.68,18.192 Z M24.096,18.192 C24.5866667,18.192 25.0453333,18.0826667 25.472,17.864 C25.8986667,17.6453333 26.2986667,17.3813333 26.672,17.072 L26.672,17.072 L26.72,17.072 L26.832,18 L27.92,18 L27.92,13.232 C27.92,12.2613333 27.7066667,11.4853333 27.28,10.904 C26.8533333,10.3226667 26.1653333,10.032 25.216,10.032 C24.5866667,10.032 24.0106667,10.1413333 23.488,10.36 C22.9653333,10.5786667 22.5226667,10.8053333 22.16,11.04 L22.16,11.04 L22.672,11.952 C22.9813333,11.7386667 23.3333333,11.5466667 23.728,11.376 C24.1226667,11.2053333 24.544,11.12 24.992,11.12 C25.312,11.12 25.576,11.176 25.784,11.288 C25.992,11.4 26.1546667,11.5466667 26.272,11.728 C26.3893333,11.9093333 26.472,12.1173333 26.52,12.352 C26.568,12.5866667 26.592,12.8266667 26.592,13.072 C24.928,13.2533333 23.7173333,13.5706667 22.96,14.024 C22.2026667,14.4773333 21.824,15.1306667 21.824,15.984 C21.824,16.688 22.04,17.232 22.472,17.616 C22.904,18 23.4453333,18.192 24.096,18.192 Z M24.48,17.136 C24.096,17.136 23.7706667,17.04 23.504,16.848 C23.2373333,16.656 23.104,16.336 23.104,15.888 C23.104,15.6426667 23.1653333,15.416 23.288,15.208 C23.4106667,15 23.608,14.816 23.88,14.656 C24.152,14.496 24.5093333,14.3573333 24.952,14.24 C25.3946667,14.1226667 25.9413333,14.0213333 26.592,13.936 L26.592,13.936 L26.592,16.096 C26.2186667,16.4373333 25.8666667,16.696 25.536,16.872 C25.2053333,17.048 24.8533333,17.136 24.48,17.136 Z M31.76,18.192 C31.9413333,18.192 32.0906667,18.1813333 32.208,18.16 C32.3253333,18.1386667 32.4266667,18.1066667 32.512,18.064 L32.512,18.064 L32.336,17.072 C32.2613333,17.0933333 32.2053333,17.104 32.168,17.104 L32.168,17.104 L32.048,17.104 C31.952,17.104 31.8666667,17.0613333 31.792,16.976 C31.7173333,16.8906667 31.68,16.7413333 31.68,16.528 L31.68,16.528 L31.68,6.608 L30.368,6.608 L30.368,16.432 C30.368,17.008 30.4746667,17.4453333 30.688,17.744 C30.9013333,18.0426667 31.2586667,18.192 31.76,18.192 Z M43.984,18 L43.984,16.864 L39.104,16.864 L39.104,13.056 L43.088,13.056 L43.088,11.92 L39.104,11.92 L39.104,8.624 L43.824,8.624 L43.824,7.504 L37.776,7.504 L37.776,18 L43.984,18 Z M48.112,18.192 C48.5706667,18.192 48.9786667,18.1306667 49.336,18.008 C49.6933333,17.8853333 49.992,17.7173333 50.232,17.504 C50.472,17.2906667 50.6533333,17.0453333 50.776,16.768 C50.8986667,16.4906667 50.96,16.192 50.96,15.872 C50.96,15.5093333 50.888,15.2 50.744,14.944 C50.6,14.688 50.416,14.472 50.192,14.296 C49.968,14.12 49.7146667,13.9733333 49.432,13.856 C49.1493333,13.7386667 48.8693333,13.6266667 48.592,13.52 C48.368,13.4346667 48.152,13.352 47.944,13.272 C47.736,13.192 47.552,13.1013333 47.392,13 C47.232,12.8986667 47.104,12.7813333 47.008,12.648 C46.912,12.5146667 46.864,12.3573333 46.864,12.176 C46.864,11.8773333 46.9786667,11.616 47.208,11.392 C47.4373333,11.168 47.7973333,11.056 48.288,11.056 C48.6293333,11.056 48.944,11.12 49.232,11.248 C49.52,11.376 49.7973333,11.5413333 50.064,11.744 L50.064,11.744 L50.688,10.912 C50.3893333,10.6666667 50.0346667,10.4586667 49.624,10.288 C49.2133333,10.1173333 48.7626667,10.032 48.272,10.032 C47.856,10.032 47.4826667,10.088 47.152,10.2 C46.8213333,10.312 46.5413333,10.4666667 46.312,10.664 C46.0826667,10.8613333 45.9066667,11.096 45.784,11.368 C45.6613333,11.64 45.6,11.9306667 45.6,12.24 C45.6,12.5706667 45.6693333,12.8533333 45.808,13.088 C45.9466667,13.3226667 46.1253333,13.528 46.344,13.704 C46.5626667,13.88 46.8106667,14.0293333 47.088,14.152 C47.3653333,14.2746667 47.6426667,14.384 47.92,14.48 L47.92,14.48 L48.56,14.736 C48.7733333,14.8213333 48.9626667,14.92 49.128,15.032 C49.2933333,15.144 49.4293333,15.2746667 49.536,15.424 C49.6426667,15.5733333 49.696,15.7493333 49.696,15.952 C49.696,16.2933333 49.568,16.5813333 49.312,16.816 C49.056,17.0506667 48.672,17.168 48.16,17.168 C47.6906667,17.168 47.2773333,17.0826667 46.92,16.912 C46.5626667,16.7413333 46.2133333,16.5173333 45.872,16.24 L45.872,16.24 L45.216,17.12 C45.5893333,17.4293333 46.0266667,17.6853333 46.528,17.888 C47.0293333,18.0906667 47.5573333,18.192 48.112,18.192 Z M54.912,18.192 C55.1573333,18.192 55.4053333,18.1626667 55.656,18.104 C55.9066667,18.0453333 56.1386667,17.9786667 56.352,17.904 L56.352,17.904 L56.096,16.912 C55.968,16.9653333 55.824,17.0133333 55.664,17.056 C55.504,17.0986667 55.3546667,17.12 55.216,17.12 C54.768,17.12 54.456,16.9893333 54.28,16.728 C54.104,16.4666667 54.016,16.096 54.016,15.616 L54.016,15.616 L54.016,11.296 L56.112,11.296 L56.112,10.224 L54.016,10.224 L54.016,8.048 L52.912,8.048 L52.752,10.224 L51.536,10.304 L51.536,11.296 L52.688,11.296 L52.688,15.6 C52.688,15.984 52.7253333,16.336 52.8,16.656 C52.8746667,16.976 53,17.248 53.176,17.472 C53.352,17.696 53.5813333,17.872 53.864,18 C54.1466667,18.128 54.496,18.192 54.912,18.192 Z M58.544,8.624 C58.8,8.624 59.016,8.544 59.192,8.384 C59.368,8.224 59.456,8.02133333 59.456,7.776 C59.456,7.52 59.368,7.31466667 59.192,7.16 C59.016,7.00533333 58.8,6.928 58.544,6.928 C58.288,6.928 58.072,7.00533333 57.896,7.16 C57.72,7.31466667 57.632,7.52 57.632,7.776 C57.632,8.02133333 57.72,8.224 57.896,8.384 C58.072,8.544 58.288,8.624 58.544,8.624 Z M59.184,18 L59.184,10.224 L57.872,10.224 L57.872,18 L59.184,18 Z M63.12,18 L63.12,12.368 C63.8346667,11.568 64.4853333,11.168 65.072,11.168 C65.5733333,11.168 65.9413333,11.3306667 66.176,11.656 C66.4106667,11.9813333 66.528,12.512 66.528,13.248 L66.528,13.248 L66.528,18 L67.84,18 L67.84,12.368 C68.5546667,11.568 69.2053333,11.168 69.792,11.168 C70.2826667,11.168 70.6453333,11.3306667 70.88,11.656 C71.1146667,11.9813333 71.232,12.512 71.232,13.248 L71.232,13.248 L71.232,18 L72.544,18 L72.544,13.072 C72.544,12.0693333 72.3493333,11.312 71.96,10.8 C71.5706667,10.288 70.976,10.032 70.176,10.032 C69.696,10.032 69.2506667,10.168 68.84,10.44 C68.4293333,10.712 68.0213333,11.072 67.616,11.52 C67.456,11.0506667 67.208,10.6853333 66.872,10.424 C66.536,10.1626667 66.0693333,10.032 65.472,10.032 C65.0026667,10.032 64.568,10.1573333 64.168,10.408 C63.768,10.6586667 63.3973333,10.9706667 63.056,11.344 L63.056,11.344 L63.008,11.344 L62.896,10.224 L61.808,10.224 L61.808,18 L63.12,18 Z M76.864,18.192 C77.3546667,18.192 77.8133333,18.0826667 78.24,17.864 C78.6666667,17.6453333 79.0666667,17.3813333 79.44,17.072 L79.44,17.072 L79.488,17.072 L79.6,18 L80.688,18 L80.688,13.232 C80.688,12.2613333 80.4746667,11.4853333 80.048,10.904 C79.6213333,10.3226667 78.9333333,10.032 77.984,10.032 C77.3546667,10.032 76.7786667,10.1413333 76.256,10.36 C75.7333333,10.5786667 75.2906667,10.8053333 74.928,11.04 L74.928,11.04 L75.44,11.952 C75.7493333,11.7386667 76.1013333,11.5466667 76.496,11.376 C76.8906667,11.2053333 77.312,11.12 77.76,11.12 C78.08,11.12 78.344,11.176 78.552,11.288 C78.76,11.4 78.9226667,11.5466667 79.04,11.728 C79.1573333,11.9093333 79.24,12.1173333 79.288,12.352 C79.336,12.5866667 79.36,12.8266667 79.36,13.072 C77.696,13.2533333 76.4853333,13.5706667 75.728,14.024 C74.9706667,14.4773333 74.592,15.1306667 74.592,15.984 C74.592,16.688 74.808,17.232 75.24,17.616 C75.672,18 76.2133333,18.192 76.864,18.192 Z M77.248,17.136 C76.864,17.136 76.5386667,17.04 76.272,16.848 C76.0053333,16.656 75.872,16.336 75.872,15.888 C75.872,15.6426667 75.9333333,15.416 76.056,15.208 C76.1786667,15 76.376,14.816 76.648,14.656 C76.92,14.496 77.2773333,14.3573333 77.72,14.24 C78.1626667,14.1226667 78.7093333,14.0213333 79.36,13.936 L79.36,13.936 L79.36,16.096 C78.9866667,16.4373333 78.6346667,16.696 78.304,16.872 C77.9733333,17.048 77.6213333,17.136 77.248,17.136 Z M85.36,18.192 C85.6053333,18.192 85.8533333,18.1626667 86.104,18.104 C86.3546667,18.0453333 86.5866667,17.9786667 86.8,17.904 L86.8,17.904 L86.544,16.912 C86.416,16.9653333 86.272,17.0133333 86.112,17.056 C85.952,17.0986667 85.8026667,17.12 85.664,17.12 C85.216,17.12 84.904,16.9893333 84.728,16.728 C84.552,16.4666667 84.464,16.096 84.464,15.616 L84.464,15.616 L84.464,11.296 L86.56,11.296 L86.56,10.224 L84.464,10.224 L84.464,8.048 L83.36,8.048 L83.2,10.224 L81.984,10.304 L81.984,11.296 L83.136,11.296 L83.136,15.6 C83.136,15.984 83.1733333,16.336 83.248,16.656 C83.3226667,16.976 83.448,17.248 83.624,17.472 C83.8,17.696 84.0293333,17.872 84.312,18 C84.5946667,18.128 84.944,18.192 85.36,18.192 Z M91.248,18.192 C91.7813333,18.192 92.256,18.112 92.672,17.952 C93.088,17.792 93.4666667,17.6053333 93.808,17.392 L93.808,17.392 L93.344,16.528 C93.056,16.7093333 92.7546667,16.856 92.44,16.968 C92.1253333,17.08 91.7813333,17.136 91.408,17.136 C90.6613333,17.136 90.056,16.8933333 89.592,16.408 C89.128,15.9226667 88.8693333,15.264 88.816,14.432 L88.816,14.432 L94.064,14.432 C94.0853333,14.336 94.0986667,14.2213333 94.104,14.088 C94.1093333,13.9546667 94.112,13.8186667 94.112,13.68 C94.112,13.1253333 94.0426667,12.624 93.904,12.176 C93.7653333,11.728 93.5653333,11.344 93.304,11.024 C93.0426667,10.704 92.7173333,10.4586667 92.328,10.288 C91.9386667,10.1173333 91.4986667,10.032 91.008,10.032 C90.56,10.032 90.128,10.1253333 89.712,10.312 C89.296,10.4986667 88.9253333,10.768 88.6,11.12 C88.2746667,11.472 88.0133333,11.9013333 87.816,12.408 C87.6186667,12.9146667 87.52,13.488 87.52,14.128 C87.52,14.768 87.616,15.3386667 87.808,15.84 C88,16.3413333 88.264,16.7653333 88.6,17.112 C88.936,17.4586667 89.3306667,17.7253333 89.784,17.912 C90.2373333,18.0986667 90.7253333,18.192 91.248,18.192 Z M92.96,13.488 L88.8,13.488 C88.8426667,13.104 88.9306667,12.7626667 89.064,12.464 C89.1973333,12.1653333 89.3653333,11.912 89.568,11.704 C89.7706667,11.496 89.9973333,11.3386667 90.248,11.232 C90.4986667,11.1253333 90.7626667,11.072 91.04,11.072 C91.648,11.072 92.12,11.2773333 92.456,11.688 C92.792,12.0986667 92.96,12.6986667 92.96,13.488 L92.96,13.488 Z M98.688,18.192 C99.1466667,18.192 99.576,18.0826667 99.976,17.864 C100.376,17.6453333 100.730667,17.3866667 101.04,17.088 L101.04,17.088 L101.088,17.088 L101.2,18 L102.288,18 L102.288,6.608 L100.96,6.608 L100.96,9.6 L101.024,10.928 C100.682667,10.6506667 100.346667,10.432 100.016,10.272 C99.6853333,10.112 99.296,10.032 98.848,10.032 C98.4,10.032 97.9733333,10.128 97.568,10.32 C97.1626667,10.512 96.8053333,10.784 96.496,11.136 C96.1866667,11.488 95.9386667,11.9173333 95.752,12.424 C95.5653333,12.9306667 95.472,13.4986667 95.472,14.128 C95.472,15.4293333 95.7626667,16.432 96.344,17.136 C96.9253333,17.84 97.7066667,18.192 98.688,18.192 Z M98.976,17.088 C98.2933333,17.088 97.7653333,16.8266667 97.392,16.304 C97.0186667,15.7813333 96.832,15.0506667 96.832,14.112 C96.832,13.664 96.8906667,13.2586667 97.008,12.896 C97.1253333,12.5333333 97.2853333,12.2213333 97.488,11.96 C97.6906667,11.6986667 97.928,11.496 98.2,11.352 C98.472,11.208 98.7626667,11.136 99.072,11.136 C99.392,11.136 99.704,11.1973333 100.008,11.32 C100.312,11.4426667 100.629333,11.6533333 100.96,11.952 L100.96,11.952 L100.96,16.016 C100.64,16.3786667 100.32,16.648 100,16.824 C99.68,17 99.3386667,17.088 98.976,17.088 Z M111.712,18 L115.04,7.504 L113.68,7.504 L112,13.168 C111.818667,13.7973333 111.653333,14.3786667 111.504,14.912 C111.354667,15.4453333 111.184,16.0213333 110.992,16.64 L110.992,16.64 L110.928,16.64 C110.725333,16.0213333 110.552,15.4453333 110.408,14.912 C110.264,14.3786667 110.096,13.7973333 109.904,13.168 L109.904,13.168 L108.224,7.504 L106.8,7.504 L110.16,18 L111.712,18 Z M117.792,18.192 C118.282667,18.192 118.741333,18.0826667 119.168,17.864 C119.594667,17.6453333 119.994667,17.3813333 120.368,17.072 L120.368,17.072 L120.416,17.072 L120.528,18 L121.616,18 L121.616,13.232 C121.616,12.2613333 121.402667,11.4853333 120.976,10.904 C120.549333,10.3226667 119.861333,10.032 118.912,10.032 C118.282667,10.032 117.706667,10.1413333 117.184,10.36 C116.661333,10.5786667 116.218667,10.8053333 115.856,11.04 L115.856,11.04 L116.368,11.952 C116.677333,11.7386667 117.029333,11.5466667 117.424,11.376 C117.818667,11.2053333 118.24,11.12 118.688,11.12 C119.008,11.12 119.272,11.176 119.48,11.288 C119.688,11.4 119.850667,11.5466667 119.968,11.728 C120.085333,11.9093333 120.168,12.1173333 120.216,12.352 C120.264,12.5866667 120.288,12.8266667 120.288,13.072 C118.624,13.2533333 117.413333,13.5706667 116.656,14.024 C115.898667,14.4773333 115.52,15.1306667 115.52,15.984 C115.52,16.688 115.736,17.232 116.168,17.616 C116.6,18 117.141333,18.192 117.792,18.192 Z M118.176,17.136 C117.792,17.136 117.466667,17.04 117.2,16.848 C116.933333,16.656 116.8,16.336 116.8,15.888 C116.8,15.6426667 116.861333,15.416 116.984,15.208 C117.106667,15 117.304,14.816 117.576,14.656 C117.848,14.496 118.205333,14.3573333 118.648,14.24 C119.090667,14.1226667 119.637333,14.0213333 120.288,13.936 L120.288,13.936 L120.288,16.096 C119.914667,16.4373333 119.562667,16.696 119.232,16.872 C118.901333,17.048 118.549333,17.136 118.176,17.136 Z M125.456,18.192 C125.637333,18.192 125.786667,18.1813333 125.904,18.16 C126.021333,18.1386667 126.122667,18.1066667 126.208,18.064 L126.208,18.064 L126.032,17.072 C125.957333,17.0933333 125.901333,17.104 125.864,17.104 L125.864,17.104 L125.744,17.104 C125.648,17.104 125.562667,17.0613333 125.488,16.976 C125.413333,16.8906667 125.376,16.7413333 125.376,16.528 L125.376,16.528 L125.376,6.608 L124.064,6.608 L124.064,16.432 C124.064,17.008 124.170667,17.4453333 124.384,17.744 C124.597333,18.0426667 124.954667,18.192 125.456,18.192 Z M130.416,18.192 C130.96,18.192 131.432,18.064 131.832,17.808 C132.232,17.552 132.613333,17.2106667 132.976,16.784 L132.976,16.784 L133.024,16.784 L133.136,18 L134.224,18 L134.224,10.224 L132.912,10.224 L132.912,15.744 C132.538667,16.2026667 132.197333,16.536 131.888,16.744 C131.578667,16.952 131.221333,17.056 130.816,17.056 C130.304,17.056 129.933333,16.8933333 129.704,16.568 C129.474667,16.2426667 129.36,15.712 129.36,14.976 L129.36,14.976 L129.36,10.224 L128.032,10.224 L128.032,15.152 C128.032,16.1546667 128.221333,16.912 128.6,17.424 C128.978667,17.936 129.584,18.192 130.416,18.192 Z M140,18.192 C140.533333,18.192 141.008,18.112 141.424,17.952 C141.84,17.792 142.218667,17.6053333 142.56,17.392 L142.56,17.392 L142.096,16.528 C141.808,16.7093333 141.506667,16.856 141.192,16.968 C140.877333,17.08 140.533333,17.136 140.16,17.136 C139.413333,17.136 138.808,16.8933333 138.344,16.408 C137.88,15.9226667 137.621333,15.264 137.568,14.432 L137.568,14.432 L142.816,14.432 C142.837333,14.336 142.850667,14.2213333 142.856,14.088 C142.861333,13.9546667 142.864,13.8186667 142.864,13.68 C142.864,13.1253333 142.794667,12.624 142.656,12.176 C142.517333,11.728 142.317333,11.344 142.056,11.024 C141.794667,10.704 141.469333,10.4586667 141.08,10.288 C140.690667,10.1173333 140.250667,10.032 139.76,10.032 C139.312,10.032 138.88,10.1253333 138.464,10.312 C138.048,10.4986667 137.677333,10.768 137.352,11.12 C137.026667,11.472 136.765333,11.9013333 136.568,12.408 C136.370667,12.9146667 136.272,13.488 136.272,14.128 C136.272,14.768 136.368,15.3386667 136.56,15.84 C136.752,16.3413333 137.016,16.7653333 137.352,17.112 C137.688,17.4586667 138.082667,17.7253333 138.536,17.912 C138.989333,18.0986667 139.477333,18.192 140,18.192 Z M141.712,13.488 L137.552,13.488 C137.594667,13.104 137.682667,12.7626667 137.816,12.464 C137.949333,12.1653333 138.117333,11.912 138.32,11.704 C138.522667,11.496 138.749333,11.3386667 139,11.232 C139.250667,11.1253333 139.514667,11.072 139.792,11.072 C140.4,11.072 140.872,11.2773333 141.208,11.688 C141.544,12.0986667 141.712,12.6986667 141.712,13.488 L141.712,13.488 Z M151.008,18.192 C151.488,18.192 151.944,18.1013333 152.376,17.92 C152.808,17.7386667 153.189333,17.4746667 153.52,17.128 C153.850667,16.7813333 154.114667,16.3546667 154.312,15.848 C154.509333,15.3413333 154.608,14.768 154.608,14.128 C154.608,13.4773333 154.509333,12.8986667 154.312,12.392 C154.114667,11.8853333 153.850667,11.456 153.52,11.104 C153.189333,10.752 152.808,10.4853333 152.376,10.304 C151.944,10.1226667 151.488,10.032 151.008,10.032 C150.528,10.032 150.072,10.1226667 149.64,10.304 C149.208,10.4853333 148.826667,10.752 148.496,11.104 C148.165333,11.456 147.901333,11.8853333 147.704,12.392 C147.506667,12.8986667 147.408,13.4773333 147.408,14.128 C147.408,14.768 147.506667,15.3413333 147.704,15.848 C147.901333,16.3546667 148.165333,16.7813333 148.496,17.128 C148.826667,17.4746667 149.208,17.7386667 149.64,17.92 C150.072,18.1013333 150.528,18.192 151.008,18.192 Z M151.008,17.104 C150.677333,17.104 150.373333,17.032 150.096,16.888 C149.818667,16.744 149.581333,16.5413333 149.384,16.28 C149.186667,16.0186667 149.034667,15.7066667 148.928,15.344 C148.821333,14.9813333 148.768,14.576 148.768,14.128 C148.768,13.68 148.821333,13.272 148.928,12.904 C149.034667,12.536 149.186667,12.2186667 149.384,11.952 C149.581333,11.6853333 149.818667,11.48 150.096,11.336 C150.373333,11.192 150.677333,11.12 151.008,11.12 C151.338667,11.12 151.642667,11.192 151.92,11.336 C152.197333,11.48 152.434667,11.6853333 152.632,11.952 C152.829333,12.2186667 152.981333,12.536 153.088,12.904 C153.194667,13.272 153.248,13.68 153.248,14.128 C153.248,14.576 153.194667,14.9813333 153.088,15.344 C152.981333,15.7066667 152.829333,16.0186667 152.632,16.28 C152.434667,16.5413333 152.197333,16.744 151.92,16.888 C151.642667,17.032 151.338667,17.104 151.008,17.104 Z M158.192,18 L158.192,11.296 L159.84,11.296 L159.84,10.224 L158.192,10.224 L158.192,8.992 C158.192,7.98933333 158.554667,7.488 159.28,7.488 C159.578667,7.488 159.872,7.552 160.16,7.68 L160.16,7.68 L160.448,6.672 C160.266667,6.59733333 160.066667,6.536 159.848,6.488 C159.629333,6.44 159.397333,6.416 159.152,6.416 C158.373333,6.416 157.8,6.64533333 157.432,7.104 C157.064,7.56266667 156.88,8.192 156.88,8.992 L156.88,8.992 L156.88,10.224 L155.824,10.304 L155.824,11.296 L156.88,11.296 L156.88,18 L158.192,18 Z M170.576,18 L170.576,16.864 L165.984,16.864 L165.984,7.504 L164.656,7.504 L164.656,18 L170.576,18 Z M175.264,18.192 C175.797333,18.192 176.272,18.112 176.688,17.952 C177.104,17.792 177.482667,17.6053333 177.824,17.392 L177.824,17.392 L177.36,16.528 C177.072,16.7093333 176.770667,16.856 176.456,16.968 C176.141333,17.08 175.797333,17.136 175.424,17.136 C174.677333,17.136 174.072,16.8933333 173.608,16.408 C173.144,15.9226667 172.885333,15.264 172.832,14.432 L172.832,14.432 L178.08,14.432 C178.101333,14.336 178.114667,14.2213333 178.12,14.088 C178.125333,13.9546667 178.128,13.8186667 178.128,13.68 C178.128,13.1253333 178.058667,12.624 177.92,12.176 C177.781333,11.728 177.581333,11.344 177.32,11.024 C177.058667,10.704 176.733333,10.4586667 176.344,10.288 C175.954667,10.1173333 175.514667,10.032 175.024,10.032 C174.576,10.032 174.144,10.1253333 173.728,10.312 C173.312,10.4986667 172.941333,10.768 172.616,11.12 C172.290667,11.472 172.029333,11.9013333 171.832,12.408 C171.634667,12.9146667 171.536,13.488 171.536,14.128 C171.536,14.768 171.632,15.3386667 171.824,15.84 C172.016,16.3413333 172.28,16.7653333 172.616,17.112 C172.952,17.4586667 173.346667,17.7253333 173.8,17.912 C174.253333,18.0986667 174.741333,18.192 175.264,18.192 Z M176.976,13.488 L172.816,13.488 C172.858667,13.104 172.946667,12.7626667 173.08,12.464 C173.213333,12.1653333 173.381333,11.912 173.584,11.704 C173.786667,11.496 174.013333,11.3386667 174.264,11.232 C174.514667,11.1253333 174.778667,11.072 175.056,11.072 C175.664,11.072 176.136,11.2773333 176.472,11.688 C176.808,12.0986667 176.976,12.6986667 176.976,13.488 L176.976,13.488 Z M182.512,21.584 C183.12,21.584 183.666667,21.512 184.152,21.368 C184.637333,21.224 185.050667,21.0293333 185.392,20.784 C185.733333,20.5386667 185.994667,20.2533333 186.176,19.928 C186.357333,19.6026667 186.448,19.2586667 186.448,18.896 C186.448,18.2453333 186.221333,17.7733333 185.768,17.48 C185.314667,17.1866667 184.634667,17.04 183.728,17.04 L183.728,17.04 L182.224,17.04 C181.690667,17.04 181.328,16.96 181.136,16.8 C180.944,16.64 180.848,16.4373333 180.848,16.192 C180.848,15.9786667 180.896,15.8 180.992,15.656 C181.088,15.512 181.205333,15.3813333 181.344,15.264 C181.525333,15.3493333 181.717333,15.416 181.92,15.464 C182.122667,15.512 182.32,15.536 182.512,15.536 C182.906667,15.536 183.277333,15.472 183.624,15.344 C183.970667,15.216 184.272,15.0373333 184.528,14.808 C184.784,14.5786667 184.986667,14.296 185.136,13.96 C185.285333,13.624 185.36,13.248 185.36,12.832 C185.36,12.5013333 185.298667,12.1973333 185.176,11.92 C185.053333,11.6426667 184.901333,11.4133333 184.72,11.232 L184.72,11.232 L186.32,11.232 L186.32,10.224 L183.616,10.224 C183.466667,10.1706667 183.298667,10.1253333 183.112,10.088 C182.925333,10.0506667 182.725333,10.032 182.512,10.032 C182.117333,10.032 181.741333,10.096 181.384,10.224 C181.026667,10.352 180.714667,10.536 180.448,10.776 C180.181333,11.016 179.970667,11.3066667 179.816,11.648 C179.661333,11.9893333 179.584,12.3733333 179.584,12.8 C179.584,13.2693333 179.688,13.6826667 179.896,14.04 C180.104,14.3973333 180.336,14.6826667 180.592,14.896 L180.592,14.896 L180.592,14.96 C180.389333,15.0986667 180.197333,15.2906667 180.016,15.536 C179.834667,15.7813333 179.744,16.0693333 179.744,16.4 C179.744,16.7093333 179.810667,16.968 179.944,17.176 C180.077333,17.384 180.24,17.5466667 180.432,17.664 L180.432,17.664 L180.432,17.728 C180.08,17.9733333 179.802667,18.2453333 179.6,18.544 C179.397333,18.8426667 179.296,19.1573333 179.296,19.488 C179.296,19.8293333 179.373333,20.128 179.528,20.384 C179.682667,20.64 179.901333,20.8586667 180.184,21.04 C180.466667,21.2213333 180.805333,21.3573333 181.2,21.448 C181.594667,21.5386667 182.032,21.584 182.512,21.584 Z M182.512,14.656 C182.288,14.656 182.077333,14.6133333 181.88,14.528 C181.682667,14.4426667 181.506667,14.32 181.352,14.16 C181.197333,14 181.077333,13.8053333 180.992,13.576 C180.906667,13.3466667 180.864,13.088 180.864,12.8 C180.864,12.224 181.024,11.7786667 181.344,11.464 C181.664,11.1493333 182.053333,10.992 182.512,10.992 C182.970667,10.992 183.36,11.1493333 183.68,11.464 C184,11.7786667 184.16,12.224 184.16,12.8 C184.16,13.088 184.117333,13.3466667 184.032,13.576 C183.946667,13.8053333 183.826667,14 183.672,14.16 C183.517333,14.32 183.341333,14.4426667 183.144,14.528 C182.946667,14.6133333 182.736,14.656 182.512,14.656 Z M182.704,20.672 C182,20.672 181.448,20.5493333 181.048,20.304 C180.648,20.0586667 180.448,19.728 180.448,19.312 C180.448,19.088 180.512,18.864 180.64,18.64 C180.768,18.416 180.970667,18.2026667 181.248,18 C181.418667,18.0533333 181.592,18.088 181.768,18.104 C181.944,18.12 182.106667,18.128 182.256,18.128 L182.256,18.128 L183.6,18.128 C184.112,18.128 184.501333,18.1973333 184.768,18.336 C185.034667,18.4746667 185.168,18.7253333 185.168,19.088 C185.168,19.2906667 185.109333,19.488 184.992,19.68 C184.874667,19.872 184.709333,20.04 184.496,20.184 C184.282667,20.328 184.024,20.4453333 183.72,20.536 C183.416,20.6266667 183.077333,20.672 182.704,20.672 Z M188.624,8.624 C188.88,8.624 189.096,8.544 189.272,8.384 C189.448,8.224 189.536,8.02133333 189.536,7.776 C189.536,7.52 189.448,7.31466667 189.272,7.16 C189.096,7.00533333 188.88,6.928 188.624,6.928 C188.368,6.928 188.152,7.00533333 187.976,7.16 C187.8,7.31466667 187.712,7.52 187.712,7.776 C187.712,8.02133333 187.8,8.224 187.976,8.384 C188.152,8.544 188.368,8.624 188.624,8.624 Z M189.264,18 L189.264,10.224 L187.952,10.224 L187.952,18 L189.264,18 Z M193.92,18.192 C194.378667,18.192 194.786667,18.1306667 195.144,18.008 C195.501333,17.8853333 195.8,17.7173333 196.04,17.504 C196.28,17.2906667 196.461333,17.0453333 196.584,16.768 C196.706667,16.4906667 196.768,16.192 196.768,15.872 C196.768,15.5093333 196.696,15.2 196.552,14.944 C196.408,14.688 196.224,14.472 196,14.296 C195.776,14.12 195.522667,13.9733333 195.24,13.856 C194.957333,13.7386667 194.677333,13.6266667 194.4,13.52 C194.176,13.4346667 193.96,13.352 193.752,13.272 C193.544,13.192 193.36,13.1013333 193.2,13 C193.04,12.8986667 192.912,12.7813333 192.816,12.648 C192.72,12.5146667 192.672,12.3573333 192.672,12.176 C192.672,11.8773333 192.786667,11.616 193.016,11.392 C193.245333,11.168 193.605333,11.056 194.096,11.056 C194.437333,11.056 194.752,11.12 195.04,11.248 C195.328,11.376 195.605333,11.5413333 195.872,11.744 L195.872,11.744 L196.496,10.912 C196.197333,10.6666667 195.842667,10.4586667 195.432,10.288 C195.021333,10.1173333 194.570667,10.032 194.08,10.032 C193.664,10.032 193.290667,10.088 192.96,10.2 C192.629333,10.312 192.349333,10.4666667 192.12,10.664 C191.890667,10.8613333 191.714667,11.096 191.592,11.368 C191.469333,11.64 191.408,11.9306667 191.408,12.24 C191.408,12.5706667 191.477333,12.8533333 191.616,13.088 C191.754667,13.3226667 191.933333,13.528 192.152,13.704 C192.370667,13.88 192.618667,14.0293333 192.896,14.152 C193.173333,14.2746667 193.450667,14.384 193.728,14.48 C193.941333,14.5653333 194.154667,14.6506667 194.368,14.736 C194.581333,14.8213333 194.770667,14.92 194.936,15.032 C195.101333,15.144 195.237333,15.2746667 195.344,15.424 C195.450667,15.5733333 195.504,15.7493333 195.504,15.952 C195.504,16.2933333 195.376,16.5813333 195.12,16.816 C194.864,17.0506667 194.48,17.168 193.968,17.168 C193.498667,17.168 193.085333,17.0826667 192.728,16.912 C192.370667,16.7413333 192.021333,16.5173333 191.68,16.24 L191.68,16.24 L191.024,17.12 C191.397333,17.4293333 191.834667,17.6853333 192.336,17.888 C192.837333,18.0906667 193.365333,18.192 193.92,18.192 Z M199.984,18.192 C200.165333,18.192 200.314667,18.1813333 200.432,18.16 C200.549333,18.1386667 200.650667,18.1066667 200.736,18.064 L200.736,18.064 L200.56,17.072 C200.485333,17.0933333 200.429333,17.104 200.392,17.104 L200.392,17.104 L200.272,17.104 C200.176,17.104 200.090667,17.0613333 200.016,16.976 C199.941333,16.8906667 199.904,16.7413333 199.904,16.528 L199.904,16.528 L199.904,6.608 L198.592,6.608 L198.592,16.432 C198.592,17.008 198.698667,17.4453333 198.912,17.744 C199.125333,18.0426667 199.482667,18.192 199.984,18.192 Z M204.464,18.192 C204.954667,18.192 205.413333,18.0826667 205.84,17.864 C206.266667,17.6453333 206.666667,17.3813333 207.04,17.072 L207.04,17.072 L207.088,17.072 L207.2,18 L208.288,18 L208.288,13.232 C208.288,12.2613333 208.074667,11.4853333 207.648,10.904 C207.221333,10.3226667 206.533333,10.032 205.584,10.032 C204.954667,10.032 204.378667,10.1413333 203.856,10.36 C203.333333,10.5786667 202.890667,10.8053333 202.528,11.04 L202.528,11.04 L203.04,11.952 C203.349333,11.7386667 203.701333,11.5466667 204.096,11.376 C204.490667,11.2053333 204.912,11.12 205.36,11.12 C205.68,11.12 205.944,11.176 206.152,11.288 C206.36,11.4 206.522667,11.5466667 206.64,11.728 C206.757333,11.9093333 206.84,12.1173333 206.888,12.352 C206.936,12.5866667 206.96,12.8266667 206.96,13.072 C205.296,13.2533333 204.085333,13.5706667 203.328,14.024 C202.570667,14.4773333 202.192,15.1306667 202.192,15.984 C202.192,16.688 202.408,17.232 202.84,17.616 C203.272,18 203.813333,18.192 204.464,18.192 Z M204.848,17.136 C204.464,17.136 204.138667,17.04 203.872,16.848 C203.605333,16.656 203.472,16.336 203.472,15.888 C203.472,15.6426667 203.533333,15.416 203.656,15.208 C203.778667,15 203.976,14.816 204.248,14.656 C204.52,14.496 204.877333,14.3573333 205.32,14.24 C205.762667,14.1226667 206.309333,14.0213333 206.96,13.936 L206.96,13.936 L206.96,16.096 C206.586667,16.4373333 206.234667,16.696 205.904,16.872 C205.573333,17.048 205.221333,17.136 204.848,17.136 Z M212.96,18.192 C213.205333,18.192 213.453333,18.1626667 213.704,18.104 C213.954667,18.0453333 214.186667,17.9786667 214.4,17.904 L214.4,17.904 L214.144,16.912 C214.016,16.9653333 213.872,17.0133333 213.712,17.056 C213.552,17.0986667 213.402667,17.12 213.264,17.12 C212.816,17.12 212.504,16.9893333 212.328,16.728 C212.152,16.4666667 212.064,16.096 212.064,15.616 L212.064,15.616 L212.064,11.296 L214.16,11.296 L214.16,10.224 L212.064,10.224 L212.064,8.048 L210.96,8.048 L210.8,10.224 L209.584,10.304 L209.584,11.296 L210.736,11.296 L210.736,15.6 C210.736,15.984 210.773333,16.336 210.848,16.656 C210.922667,16.976 211.048,17.248 211.224,17.472 C211.4,17.696 211.629333,17.872 211.912,18 C212.194667,18.128 212.544,18.192 212.96,18.192 Z M216.592,8.624 C216.848,8.624 217.064,8.544 217.24,8.384 C217.416,8.224 217.504,8.02133333 217.504,7.776 C217.504,7.52 217.416,7.31466667 217.24,7.16 C217.064,7.00533333 216.848,6.928 216.592,6.928 C216.336,6.928 216.12,7.00533333 215.944,7.16 C215.768,7.31466667 215.68,7.52 215.68,7.776 C215.68,8.02133333 215.768,8.224 215.944,8.384 C216.12,8.544 216.336,8.624 216.592,8.624 Z M217.232,18 L217.232,10.224 L215.92,10.224 L215.92,18 L217.232,18 Z M222.88,18.192 C223.36,18.192 223.816,18.1013333 224.248,17.92 C224.68,17.7386667 225.061333,17.4746667 225.392,17.128 C225.722667,16.7813333 225.986667,16.3546667 226.184,15.848 C226.381333,15.3413333 226.48,14.768 226.48,14.128 C226.48,13.4773333 226.381333,12.8986667 226.184,12.392 C225.986667,11.8853333 225.722667,11.456 225.392,11.104 C225.061333,10.752 224.68,10.4853333 224.248,10.304 C223.816,10.1226667 223.36,10.032 222.88,10.032 C222.4,10.032 221.944,10.1226667 221.512,10.304 C221.08,10.4853333 220.698667,10.752 220.368,11.104 C220.037333,11.456 219.773333,11.8853333 219.576,12.392 C219.378667,12.8986667 219.28,13.4773333 219.28,14.128 C219.28,14.768 219.378667,15.3413333 219.576,15.848 C219.773333,16.3546667 220.037333,16.7813333 220.368,17.128 C220.698667,17.4746667 221.08,17.7386667 221.512,17.92 C221.944,18.1013333 222.4,18.192 222.88,18.192 Z M222.88,17.104 C222.549333,17.104 222.245333,17.032 221.968,16.888 C221.690667,16.744 221.453333,16.5413333 221.256,16.28 C221.058667,16.0186667 220.906667,15.7066667 220.8,15.344 C220.693333,14.9813333 220.64,14.576 220.64,14.128 C220.64,13.68 220.693333,13.272 220.8,12.904 C220.906667,12.536 221.058667,12.2186667 221.256,11.952 C221.453333,11.6853333 221.690667,11.48 221.968,11.336 C222.245333,11.192 222.549333,11.12 222.88,11.12 C223.210667,11.12 223.514667,11.192 223.792,11.336 C224.069333,11.48 224.306667,11.6853333 224.504,11.952 C224.701333,12.2186667 224.853333,12.536 224.96,12.904 C225.066667,13.272 225.12,13.68 225.12,14.128 C225.12,14.576 225.066667,14.9813333 224.96,15.344 C224.853333,15.7066667 224.701333,16.0186667 224.504,16.28 C224.306667,16.5413333 224.069333,16.744 223.792,16.888 C223.514667,17.032 223.210667,17.104 222.88,17.104 Z M229.84,18 L229.84,12.368 C230.234667,11.9733333 230.586667,11.6746667 230.896,11.472 C231.205333,11.2693333 231.562667,11.168 231.968,11.168 C232.48,11.168 232.853333,11.3306667 233.088,11.656 C233.322667,11.9813333 233.44,12.512 233.44,13.248 L233.44,13.248 L233.44,18 L234.752,18 L234.752,13.072 C234.752,12.0693333 234.562667,11.312 234.184,10.8 C233.805333,10.288 233.205333,10.032 232.384,10.032 C231.84,10.032 231.362667,10.1573333 230.952,10.408 C230.541333,10.6586667 230.149333,10.9706667 229.776,11.344 L229.776,11.344 L229.728,11.344 L229.616,10.224 L228.528,10.224 L228.528,18 L229.84,18 Z M243.68,19.76 L243.68,18.144 C244.448,18.0373333 245.053333,17.7386667 245.496,17.248 C245.938667,16.7573333 246.16,16.128 246.16,15.36 C246.16,14.784 246.050667,14.312 245.832,13.944 C245.613333,13.576 245.338667,13.2666667 245.008,13.016 C244.677333,12.7653333 244.317333,12.552 243.928,12.376 C243.538667,12.2 243.178667,12.0186667 242.848,11.832 C242.517333,11.6453333 242.242667,11.4293333 242.024,11.184 C241.805333,10.9386667 241.696,10.624 241.696,10.24 C241.696,9.77066667 241.84,9.39733333 242.128,9.12 C242.416,8.84266667 242.805333,8.704 243.296,8.704 C243.733333,8.704 244.093333,8.784 244.376,8.944 C244.658667,9.104 244.949333,9.328 245.248,9.616 L245.248,9.616 L245.952,8.832 C245.664,8.52266667 245.341333,8.256 244.984,8.032 C244.626667,7.808 244.192,7.66933333 243.68,7.616 L243.68,7.616 L243.68,6.032 L242.72,6.032 L242.72,7.648 C242.016,7.75466667 241.453333,8.04533333 241.032,8.52 C240.610667,8.99466667 240.4,9.58933333 240.4,10.304 C240.4,10.8266667 240.509333,11.256 240.728,11.592 C240.946667,11.928 241.221333,12.2133333 241.552,12.448 C241.882667,12.6826667 242.242667,12.8906667 242.632,13.072 C243.021333,13.2533333 243.381333,13.448 243.712,13.656 C244.042667,13.864 244.317333,14.1093333 244.536,14.392 C244.754667,14.6746667 244.864,15.0293333 244.864,15.456 C244.864,15.9573333 244.717333,16.3573333 244.424,16.656 C244.130667,16.9546667 243.685333,17.104 243.088,17.104 C242.597333,17.104 242.146667,17 241.736,16.792 C241.325333,16.584 240.949333,16.3306667 240.608,16.032 L240.608,16.032 L240,16.944 C240.341333,17.2533333 240.752,17.5226667 241.232,17.752 C241.712,17.9813333 242.208,18.1226667 242.72,18.176 L242.72,18.176 L242.72,19.76 L243.68,19.76 Z M250.896,18.192 C251.365333,18.192 251.802667,18.1253333 252.208,17.992 C252.613333,17.8586667 252.968,17.6666667 253.272,17.416 C253.576,17.1653333 253.816,16.8586667 253.992,16.496 C254.168,16.1333333 254.256,15.728 254.256,15.28 C254.256,14.928 254.2,14.608 254.088,14.32 C253.976,14.032 253.818667,13.7786667 253.616,13.56 C253.413333,13.3413333 253.178667,13.16 252.912,13.016 C252.645333,12.872 252.357333,12.7626667 252.048,12.688 L252.048,12.688 L252.048,12.624 C252.602667,12.4106667 253.050667,12.1066667 253.392,11.712 C253.733333,11.3173333 253.904,10.8106667 253.904,10.192 C253.904,9.776 253.829333,9.408 253.68,9.088 C253.530667,8.768 253.32,8.49866667 253.048,8.28 C252.776,8.06133333 252.453333,7.89333333 252.08,7.776 C251.706667,7.65866667 251.296,7.6 250.848,7.6 C250.24,7.6 249.698667,7.72 249.224,7.96 C248.749333,8.2 248.314667,8.50666667 247.92,8.88 L247.92,8.88 L248.624,9.712 C248.933333,9.40266667 249.266667,9.152 249.624,8.96 C249.981333,8.768 250.373333,8.672 250.8,8.672 C251.344,8.672 251.773333,8.816 252.088,9.104 C252.402667,9.392 252.56,9.78666667 252.56,10.288 C252.56,10.5546667 252.512,10.8053333 252.416,11.04 C252.32,11.2746667 252.157333,11.4773333 251.928,11.648 C251.698667,11.8186667 251.4,11.952 251.032,12.048 C250.664,12.144 250.208,12.192 249.664,12.192 L249.664,12.192 L249.664,13.2 C250.272,13.2 250.784,13.248 251.2,13.344 C251.616,13.44 251.952,13.5786667 252.208,13.76 C252.464,13.9413333 252.648,14.1573333 252.76,14.408 C252.872,14.6586667 252.928,14.9333333 252.928,15.232 C252.928,15.808 252.730667,16.264 252.336,16.6 C251.941333,16.936 251.434667,17.104 250.816,17.104 C250.208,17.104 249.698667,16.9813333 249.288,16.736 C248.877333,16.4906667 248.517333,16.208 248.208,15.888 L248.208,15.888 L247.536,16.752 C247.706667,16.944 247.901333,17.1253333 248.12,17.296 C248.338667,17.4666667 248.586667,17.6186667 248.864,17.752 C249.141333,17.8853333 249.448,17.992 249.784,18.072 C250.12,18.152 250.490667,18.192 250.896,18.192 Z M257.072,18.192 C257.328,18.192 257.549333,18.0986667 257.736,17.912 C257.922667,17.7253333 258.016,17.488 258.016,17.2 C258.016,16.8906667 257.922667,16.6426667 257.736,16.456 C257.549333,16.2693333 257.328,16.176 257.072,16.176 C256.805333,16.176 256.578667,16.2693333 256.392,16.456 C256.205333,16.6426667 256.112,16.8906667 256.112,17.2 C256.112,17.488 256.205333,17.7253333 256.392,17.912 C256.578667,18.0986667 256.805333,18.192 257.072,18.192 Z M265.168,18 L265.168,15.184 L266.56,15.184 L266.56,14.128 L265.168,14.128 L265.168,7.792 L263.696,7.792 L259.328,14.32 L259.328,15.184 L263.92,15.184 L263.92,18 L265.168,18 Z M263.92,14.128 L260.72,14.128 L263.104,10.64 C263.253333,10.3946667 263.397333,10.1546667 263.536,9.92 C263.674667,9.68533333 263.808,9.44533333 263.936,9.2 L263.936,9.2 L264,9.2 C263.978667,9.47733333 263.96,9.80533333 263.944,10.184 C263.928,10.5626667 263.92,10.8906667 263.92,11.168 L263.92,11.168 L263.92,14.128 Z M270.288,18.192 C270.8,18.192 271.288,18.088 271.752,17.88 C272.216,17.672 272.629333,17.3413333 272.992,16.888 C273.354667,16.4346667 273.642667,15.848 273.856,15.128 C274.069333,14.408 274.176,13.536 274.176,12.512 C274.176,11.6906667 274.088,10.9733333 273.912,10.36 C273.736,9.74666667 273.490667,9.23466667 273.176,8.824 C272.861333,8.41333333 272.488,8.10666667 272.056,7.904 C271.624,7.70133333 271.157333,7.6 270.656,7.6 C270.250667,7.6 269.864,7.68 269.496,7.84 C269.128,8 268.808,8.224 268.536,8.512 C268.264,8.8 268.048,9.144 267.888,9.544 C267.728,9.944 267.648,10.3893333 267.648,10.88 C267.648,11.936 267.909333,12.7253333 268.432,13.248 C268.954667,13.7706667 269.658667,14.032 270.544,14.032 C270.970667,14.032 271.397333,13.9146667 271.824,13.68 C272.250667,13.4453333 272.624,13.1253333 272.944,12.72 C272.933333,13.5413333 272.853333,14.2293333 272.704,14.784 C272.554667,15.3386667 272.357333,15.7893333 272.112,16.136 C271.866667,16.4826667 271.584,16.7306667 271.264,16.88 C270.944,17.0293333 270.602667,17.104 270.24,17.104 C269.92,17.104 269.613333,17.0293333 269.32,16.88 C269.026667,16.7306667 268.773333,16.5333333 268.56,16.288 L268.56,16.288 L267.824,17.12 C268.101333,17.4293333 268.445333,17.6853333 268.856,17.888 C269.266667,18.0906667 269.744,18.192 270.288,18.192 Z M270.768,13.04 C270.128,13.04 269.653333,12.848 269.344,12.464 C269.034667,12.08 268.88,11.552 268.88,10.88 C268.88,10.5493333 268.925333,10.2453333 269.016,9.968 C269.106667,9.69066667 269.232,9.45333333 269.392,9.256 C269.552,9.05866667 269.741333,8.90666667 269.96,8.8 C270.178667,8.69333333 270.410667,8.64 270.656,8.64 C271.306667,8.64 271.824,8.896 272.208,9.408 C272.592,9.92 272.826667,10.6773333 272.912,11.68 C272.581333,12.16 272.226667,12.5066667 271.848,12.72 C271.469333,12.9333333 271.109333,13.04 270.768,13.04 Z M279.92,18 L279.92,8.624 L283.088,8.624 L283.088,7.504 L275.408,7.504 L275.408,8.624 L278.576,8.624 L278.576,18 L279.92,18 Z" id="TotalEstimatedValueofLegislation$3.49T" fill="#555555" fill-rule="nonzero"></path>
            </g>
        </g>
    </g>
</svg>