<?xml version="1.0" encoding="UTF-8"?>
<svg width="315px" height="175px" viewBox="0 0 315 175" version="1.1" xmlns="http://www.w3.org/2000/svg" xmlns:xlink="http://www.w3.org/1999/xlink" role="img">
    <desc>Viz 1 B mobile placeholder alt text</desc>
    <defs>
        <polygon id="path-1" points="147.5 -4 187.5 -4 187.5 45 147.5 45"></polygon>
        <mask id="mask-2" maskContentUnits="userSpaceOnUse" maskUnits="objectBoundingBox" x="0" y="0" width="40" height="49" fill="white">
            <use xlink:href="#path-1"></use>
        </mask>
    </defs>
    <g id="SVG-Outlines" stroke="none" stroke-width="1" fill="none" fill-rule="evenodd">
        <g id="Desktop-HD" transform="translate(-242.000000, -1653.000000)">
            <g id="Viz-1-B" transform="translate(242.000000, 1653.000000)">
                <path d="M45.878,79 L45.878,74.884 C45.878,74.468 45.864,74.054 45.836,73.642 C45.808,73.23 45.778,72.824 45.746,72.424 L45.746,72.424 L45.794,72.424 L46.646,74.044 L49.502,79 L50.534,79 L50.534,71.128 L49.586,71.128 L49.586,75.196 C49.586,75.612 49.6,76.034 49.628,76.462 C49.656,76.89 49.682,77.304 49.706,77.704 L49.706,77.704 L49.658,77.704 L48.806,76.072 L45.962,71.128 L44.93,71.128 L44.93,79 L45.878,79 Z M57.35,79 L57.35,78.148 L53.69,78.148 L53.69,75.292 L56.678,75.292 L56.678,74.44 L53.69,74.44 L53.69,71.968 L57.23,71.968 L57.23,71.128 L52.694,71.128 L52.694,79 L57.35,79 Z M61.07,79 L62.234,74.26 C62.298,73.956 62.364,73.658 62.432,73.366 C62.5,73.074 62.566,72.776 62.63,72.472 L62.63,72.472 L62.678,72.472 C62.742,72.776 62.804,73.074 62.864,73.366 C62.924,73.658 62.99,73.956 63.062,74.26 L63.062,74.26 L64.25,79 L65.45,79 L67.082,71.128 L66.122,71.128 L65.294,75.412 C65.214,75.836 65.138,76.258 65.066,76.678 C64.994,77.098 64.922,77.524 64.85,77.956 L64.85,77.956 L64.802,77.956 C64.706,77.524 64.61,77.096 64.514,76.672 C64.418,76.248 64.322,75.828 64.226,75.412 L64.226,75.412 L63.134,71.128 L62.222,71.128 L61.13,75.412 C61.042,75.836 60.95,76.258 60.854,76.678 C60.758,77.098 60.666,77.524 60.578,77.956 L60.578,77.956 L60.53,77.956 C60.458,77.524 60.382,77.1 60.302,76.684 L60.185,76.054 L60.185,76.054 L60.074,75.412 L59.246,71.128 L58.214,71.128 L59.882,79 L61.07,79 Z M70.826,79 L71.582,76.6 L74.45,76.6 L75.194,79 L76.262,79 L73.598,71.128 L72.47,71.128 L69.806,79 L70.826,79 Z M74.198,75.796 L71.834,75.796 L72.206,74.596 C72.35,74.156 72.486,73.718 72.614,73.282 C72.742,72.846 72.866,72.4 72.986,71.944 L72.986,71.944 L73.034,71.944 C73.162,72.4 73.29,72.846 73.418,73.282 C73.546,73.718 73.682,74.156 73.826,74.596 L73.826,74.596 L74.198,75.796 Z M80.354,79.144 C80.882,79.144 81.354,79.058 81.77,78.886 C82.186,78.714 82.522,78.496 82.778,78.232 L82.778,78.232 L82.778,74.92 L80.198,74.92 L80.198,75.748 L81.866,75.748 L81.866,77.8 C81.706,77.944 81.5,78.058 81.248,78.142 C80.996,78.226 80.73,78.268 80.45,78.268 C80.026,78.268 79.652,78.192 79.328,78.04 C79.004,77.888 78.732,77.672 78.512,77.392 C78.292,77.112 78.124,76.774 78.008,76.378 C77.892,75.982 77.834,75.536 77.834,75.04 C77.834,74.552 77.896,74.112 78.02,73.72 C78.144,73.328 78.318,72.994 78.542,72.718 C78.766,72.442 79.038,72.23 79.358,72.082 C79.678,71.934 80.038,71.86 80.438,71.86 C80.838,71.86 81.17,71.932 81.434,72.076 C81.698,72.22 81.93,72.396 82.13,72.604 L82.13,72.604 L82.682,71.956 C82.57,71.836 82.44,71.718 82.292,71.602 C82.144,71.486 81.976,71.382 81.788,71.29 C81.6,71.198 81.392,71.124 81.164,71.068 C80.936,71.012 80.686,70.984 80.414,70.984 C79.894,70.984 79.412,71.078 78.968,71.266 C78.524,71.454 78.142,71.724 77.822,72.076 C77.502,72.428 77.252,72.856 77.072,73.36 C76.892,73.864 76.802,74.432 76.802,75.064 C76.802,75.704 76.89,76.278 77.066,76.786 C77.242,77.294 77.486,77.722 77.798,78.07 C78.11,78.418 78.484,78.684 78.92,78.868 C79.356,79.052 79.834,79.144 80.354,79.144 Z M89.318,79 L89.318,78.148 L85.658,78.148 L85.658,75.292 L88.646,75.292 L88.646,74.44 L85.658,74.44 L85.658,71.968 L89.198,71.968 L89.198,71.128 L84.662,71.128 L84.662,79 L89.318,79 Z M91.934,79 L91.934,74.884 C91.934,74.468 91.92,74.054 91.892,73.642 C91.864,73.23 91.834,72.824 91.802,72.424 L91.802,72.424 L91.85,72.424 L92.702,74.044 L95.558,79 L96.59,79 L96.59,71.128 L95.642,71.128 L95.642,75.196 C95.642,75.612 95.656,76.034 95.684,76.462 C95.712,76.89 95.738,77.304 95.762,77.704 L95.762,77.704 L95.714,77.704 L94.862,76.072 L92.018,71.128 L90.986,71.128 L90.986,79 L91.934,79 Z M101.726,79.144 C102.238,79.144 102.69,79.044 103.082,78.844 C103.474,78.644 103.826,78.364 104.138,78.004 L104.138,78.004 L103.586,77.38 C103.33,77.66 103.058,77.878 102.77,78.034 C102.482,78.19 102.146,78.268 101.762,78.268 C101.386,78.268 101.048,78.192 100.748,78.04 C100.448,77.888 100.194,77.672 99.986,77.392 C99.778,77.112 99.616,76.774 99.5,76.378 C99.384,75.982 99.326,75.536 99.326,75.04 C99.326,74.552 99.384,74.112 99.5,73.72 C99.616,73.328 99.782,72.994 99.998,72.718 C100.214,72.442 100.474,72.23 100.778,72.082 C101.082,71.934 101.422,71.86 101.798,71.86 C102.134,71.86 102.434,71.928 102.698,72.064 C102.962,72.2 103.198,72.38 103.406,72.604 L103.406,72.604 L103.946,71.956 C103.714,71.7 103.416,71.474 103.052,71.278 C102.688,71.082 102.266,70.984 101.786,70.984 C101.282,70.984 100.818,71.078 100.394,71.266 C99.97,71.454 99.602,71.724 99.29,72.076 C98.978,72.428 98.734,72.856 98.558,73.36 C98.382,73.864 98.294,74.432 98.294,75.064 C98.294,75.704 98.38,76.278 98.552,76.786 C98.724,77.294 98.964,77.722 99.272,78.07 C99.58,78.418 99.942,78.684 100.358,78.868 C100.774,79.052 101.23,79.144 101.726,79.144 Z M107.798,79 L107.798,75.952 L110.162,71.128 L109.118,71.128 L108.11,73.348 C107.99,73.636 107.862,73.92 107.726,74.2 C107.59,74.48 107.454,74.768 107.318,75.064 L107.318,75.064 L107.27,75.064 C107.134,74.768 107.006,74.48 106.886,74.2 C106.766,73.92 106.642,73.636 106.514,73.348 L106.514,73.348 L105.494,71.128 L104.426,71.128 L106.79,75.952 L106.79,79 L107.798,79 Z M55.508,94 L55.508,90.472 L58.508,90.472 L58.508,89.632 L55.508,89.632 L55.508,86.968 L59.048,86.968 L59.048,86.128 L54.512,86.128 L54.512,94 L55.508,94 Z M63.236,94.144 C63.636,94.144 64.008,94.086 64.352,93.97 C64.696,93.854 64.994,93.662 65.246,93.394 C65.498,93.126 65.696,92.776 65.84,92.344 C65.984,91.912 66.056,91.38 66.056,90.748 L66.056,90.748 L66.056,86.128 L65.096,86.128 L65.096,90.772 C65.096,91.244 65.048,91.64 64.952,91.96 C64.856,92.28 64.724,92.536 64.556,92.728 C64.388,92.92 64.192,93.058 63.968,93.142 C63.744,93.226 63.5,93.268 63.236,93.268 C62.98,93.268 62.74,93.226 62.516,93.142 C62.292,93.058 62.098,92.92 61.934,92.728 C61.77,92.536 61.64,92.28 61.544,91.96 C61.448,91.64 61.4,91.244 61.4,90.772 L61.4,90.772 L61.4,86.128 L60.404,86.128 L60.404,90.748 C60.404,91.38 60.476,91.912 60.62,92.344 C60.764,92.776 60.962,93.126 61.214,93.394 C61.466,93.662 61.766,93.854 62.114,93.97 C62.462,94.086 62.836,94.144 63.236,94.144 Z M69.128,94 L69.128,89.884 C69.128,89.468 69.114,89.054 69.086,88.642 C69.058,88.23 69.028,87.824 68.996,87.424 L68.996,87.424 L69.044,87.424 L69.896,89.044 L72.752,94 L73.784,94 L73.784,86.128 L72.836,86.128 L72.836,90.196 C72.836,90.612 72.85,91.034 72.878,91.462 C72.906,91.89 72.932,92.304 72.956,92.704 L72.956,92.704 L72.908,92.704 L72.056,91.072 L69.212,86.128 L68.18,86.128 L68.18,94 L69.128,94 Z M77.96,94 C78.552,94 79.076,93.91 79.532,93.73 C79.988,93.55 80.372,93.29 80.684,92.95 C80.996,92.61 81.232,92.194 81.392,91.702 C81.552,91.21 81.632,90.652 81.632,90.028 C81.632,88.772 81.316,87.808 80.684,87.136 C80.052,86.464 79.128,86.128 77.912,86.128 L77.912,86.128 L75.944,86.128 L75.944,94 L77.96,94 Z M77.84,93.184 L76.94,93.184 L76.94,86.944 L77.84,86.944 C78.76,86.944 79.45,87.208 79.91,87.736 C80.37,88.264 80.6,89.028 80.6,90.028 C80.6,91.028 80.37,91.804 79.91,92.356 C79.45,92.908 78.76,93.184 77.84,93.184 L77.84,93.184 Z M84.32,94 L84.32,86.128 L83.324,86.128 L83.324,94 L84.32,94 Z M87.428,94 L87.428,89.884 C87.428,89.468 87.414,89.054 87.386,88.642 C87.358,88.23 87.328,87.824 87.296,87.424 L87.296,87.424 L87.344,87.424 L88.196,89.044 L91.052,94 L92.084,94 L92.084,86.128 L91.136,86.128 L91.136,90.196 C91.136,90.612 91.15,91.034 91.178,91.462 C91.206,91.89 91.232,92.304 91.256,92.704 L91.256,92.704 L91.208,92.704 L90.356,91.072 L87.512,86.128 L86.48,86.128 L86.48,94 L87.428,94 Z M97.34,94.144 C97.868,94.144 98.34,94.058 98.756,93.886 C99.172,93.714 99.508,93.496 99.764,93.232 L99.764,93.232 L99.764,89.92 L97.184,89.92 L97.184,90.748 L98.852,90.748 L98.852,92.8 C98.692,92.944 98.486,93.058 98.234,93.142 C97.982,93.226 97.716,93.268 97.436,93.268 C97.012,93.268 96.638,93.192 96.314,93.04 C95.99,92.888 95.718,92.672 95.498,92.392 C95.278,92.112 95.11,91.774 94.994,91.378 C94.878,90.982 94.82,90.536 94.82,90.04 C94.82,89.552 94.882,89.112 95.006,88.72 C95.13,88.328 95.304,87.994 95.528,87.718 C95.752,87.442 96.024,87.23 96.344,87.082 C96.664,86.934 97.024,86.86 97.424,86.86 C97.824,86.86 98.156,86.932 98.42,87.076 C98.684,87.22 98.916,87.396 99.116,87.604 L99.116,87.604 L99.668,86.956 C99.556,86.836 99.426,86.718 99.278,86.602 C99.13,86.486 98.962,86.382 98.774,86.29 C98.586,86.198 98.378,86.124 98.15,86.068 C97.922,86.012 97.672,85.984 97.4,85.984 C96.88,85.984 96.398,86.078 95.954,86.266 C95.51,86.454 95.128,86.724 94.808,87.076 C94.488,87.428 94.238,87.856 94.058,88.36 C93.878,88.864 93.788,89.432 93.788,90.064 C93.788,90.704 93.876,91.278 94.052,91.786 C94.228,92.294 94.472,92.722 94.784,93.07 C95.096,93.418 95.47,93.684 95.906,93.868 C96.342,94.052 96.82,94.144 97.34,94.144 Z M61.736,110.32 L61.736,109.072 C62.36,108.936 62.828,108.662 63.14,108.25 C63.452,107.838 63.608,107.344 63.608,106.768 C63.608,106.384 63.53,106.062 63.374,105.802 C63.218,105.542 63.022,105.32 62.786,105.136 C62.55,104.952 62.296,104.796 62.024,104.668 C61.752,104.54 61.498,104.416 61.262,104.296 C61.026,104.176 60.83,104.05 60.674,103.918 C60.518,103.786 60.44,103.624 60.44,103.432 C60.44,103.16 60.516,102.964 60.668,102.844 C60.82,102.724 61.04,102.664 61.328,102.664 C61.584,102.664 61.812,102.714 62.012,102.814 C62.212,102.914 62.42,103.064 62.636,103.264 L62.636,103.264 L63.524,102.256 C63.292,102.008 63.032,101.796 62.744,101.62 C62.456,101.444 62.12,101.328 61.736,101.272 L61.736,101.272 L61.736,100.06 L60.572,100.06 L60.572,101.296 C60.004,101.408 59.558,101.658 59.234,102.046 C58.91,102.434 58.748,102.924 58.748,103.516 C58.748,103.876 58.826,104.18 58.982,104.428 C59.138,104.676 59.334,104.892 59.57,105.076 C59.806,105.26 60.06,105.418 60.332,105.55 C60.604,105.682 60.858,105.814 61.094,105.946 C61.33,106.078 61.526,106.216 61.682,106.36 C61.838,106.504 61.916,106.68 61.916,106.888 C61.916,107.168 61.838,107.376 61.682,107.512 C61.526,107.648 61.28,107.716 60.944,107.716 C60.656,107.716 60.374,107.658 60.098,107.542 C59.822,107.426 59.532,107.252 59.228,107.02 L59.228,107.02 L58.46,108.208 C58.74,108.464 59.074,108.67 59.462,108.826 C59.85,108.982 60.22,109.08 60.572,109.12 L60.572,109.12 L60.572,110.32 L61.736,110.32 Z M70.136,109 L70.136,107.512 L68.6,107.512 C68.416,107.512 68.206,107.522 67.97,107.542 C67.734,107.562 67.52,107.584 67.328,107.608 C67.64,107.288 67.942,106.962 68.234,106.63 C68.526,106.298 68.786,105.966 69.014,105.634 C69.242,105.302 69.424,104.97 69.56,104.638 C69.696,104.306 69.764,103.98 69.764,103.66 C69.764,103.292 69.704,102.96 69.584,102.664 C69.464,102.368 69.292,102.114 69.068,101.902 C68.844,101.69 68.578,101.526 68.27,101.41 C67.962,101.294 67.62,101.236 67.244,101.236 C66.7,101.236 66.232,101.338 65.84,101.542 C65.448,101.746 65.064,102.048 64.688,102.448 L64.688,102.448 L65.648,103.396 C65.84,103.188 66.044,103.006 66.26,102.85 C66.476,102.694 66.724,102.616 67.004,102.616 C67.34,102.616 67.604,102.714 67.796,102.91 C67.988,103.106 68.084,103.392 68.084,103.768 C68.084,104.04 68.002,104.326 67.838,104.626 C67.674,104.926 67.446,105.25 67.154,105.598 C66.862,105.946 66.514,106.318 66.11,106.714 C65.706,107.11 65.26,107.536 64.772,107.992 L64.772,107.992 L64.772,109 L70.136,109 Z M72.464,109.144 C72.768,109.144 73.022,109.038 73.226,108.826 C73.43,108.614 73.532,108.352 73.532,108.04 C73.532,107.72 73.43,107.454 73.226,107.242 C73.022,107.03 72.768,106.924 72.464,106.924 C72.16,106.924 71.906,107.03 71.702,107.242 C71.498,107.454 71.396,107.72 71.396,108.04 C71.396,108.352 71.498,108.614 71.702,108.826 C71.906,109.038 72.16,109.144 72.464,109.144 Z M77.228,109.144 C77.596,109.144 77.95,109.084 78.29,108.964 C78.63,108.844 78.928,108.67 79.184,108.442 C79.44,108.214 79.644,107.936 79.796,107.608 C79.948,107.28 80.024,106.904 80.024,106.48 C80.024,106.072 79.96,105.72 79.832,105.424 C79.704,105.128 79.528,104.884 79.304,104.692 C79.08,104.5 78.822,104.356 78.53,104.26 C78.238,104.164 77.928,104.116 77.6,104.116 C77.44,104.116 77.294,104.13 77.162,104.158 C77.03,104.186 76.892,104.232 76.748,104.296 L76.748,104.296 L76.88,102.868 L79.676,102.868 L79.676,101.38 L75.356,101.38 L75.14,105.232 L75.932,105.736 C76.044,105.664 76.146,105.604 76.238,105.556 C76.33,105.508 76.418,105.468 76.502,105.436 C76.586,105.404 76.672,105.382 76.76,105.37 C76.848,105.358 76.948,105.352 77.06,105.352 C77.42,105.352 77.71,105.452 77.93,105.652 C78.15,105.852 78.26,106.144 78.26,106.528 C78.26,106.92 78.144,107.216 77.912,107.416 C77.68,107.616 77.368,107.716 76.976,107.716 C76.648,107.716 76.35,107.642 76.082,107.494 C75.814,107.346 75.564,107.168 75.332,106.96 L75.332,106.96 L74.54,108.076 C74.844,108.38 75.212,108.634 75.644,108.838 C76.076,109.042 76.604,109.144 77.228,109.144 Z M83.756,109.144 C84.164,109.144 84.534,109.09 84.866,108.982 C85.198,108.874 85.482,108.726 85.718,108.538 C85.954,108.35 86.136,108.128 86.264,107.872 C86.392,107.616 86.456,107.336 86.456,107.032 C86.456,106.528 86.328,106.12 86.072,105.808 C85.816,105.496 85.504,105.24 85.136,105.04 L85.136,105.04 L85.136,104.992 C85.4,104.816 85.632,104.586 85.832,104.302 C86.032,104.018 86.132,103.692 86.132,103.324 C86.132,103.012 86.076,102.726 85.964,102.466 C85.852,102.206 85.696,101.986 85.496,101.806 C85.296,101.626 85.052,101.486 84.764,101.386 C84.476,101.286 84.16,101.236 83.816,101.236 C83.464,101.236 83.138,101.284 82.838,101.38 C82.538,101.476 82.28,101.616 82.064,101.8 C81.848,101.984 81.68,102.206 81.56,102.466 C81.44,102.726 81.38,103.016 81.38,103.336 C81.38,103.744 81.476,104.09 81.668,104.374 C81.86,104.658 82.104,104.912 82.4,105.136 L82.4,105.136 L82.4,105.184 C82.04,105.376 81.734,105.62 81.482,105.916 C81.23,106.212 81.104,106.592 81.104,107.056 C81.104,107.368 81.17,107.652 81.302,107.908 C81.434,108.164 81.618,108.384 81.854,108.568 C82.09,108.752 82.37,108.894 82.694,108.994 C83.018,109.094 83.372,109.144 83.756,109.144 Z M84.236,104.56 C83.844,104.408 83.528,104.244 83.288,104.068 C83.048,103.892 82.928,103.648 82.928,103.336 C82.928,103.04 83.012,102.82 83.18,102.676 C83.348,102.532 83.548,102.46 83.78,102.46 C84.068,102.46 84.294,102.55 84.458,102.73 C84.622,102.91 84.704,103.148 84.704,103.444 C84.704,103.828 84.548,104.2 84.236,104.56 Z M83.792,107.92 C83.472,107.92 83.196,107.826 82.964,107.638 C82.732,107.45 82.616,107.188 82.616,106.852 C82.616,106.62 82.672,106.4 82.784,106.192 C82.896,105.984 83.036,105.8 83.204,105.64 C83.444,105.744 83.662,105.84 83.858,105.928 C84.054,106.016 84.224,106.11 84.368,106.21 C84.512,106.31 84.622,106.42 84.698,106.54 C84.774,106.66 84.812,106.804 84.812,106.972 C84.812,107.292 84.716,107.53 84.524,107.686 C84.332,107.842 84.088,107.92 83.792,107.92 Z M93.56,109 L93.56,102.664 L95.708,102.664 L95.708,101.176 L89.636,101.176 L89.636,102.664 L91.784,102.664 L91.784,109 L93.56,109 Z" id="NEWAGENCYFUNDING$2.58T" fill="#666666" fill-rule="nonzero"></path>
                <path d="M5,131 L5,52 L197,52 L197,131" id="Path-21" stroke="#D8D8D8" stroke-dasharray="3,3"></path>
                <line x1="203" y1="152.56981" x2="211" y2="152.43019" id="Line-14-Copy-3" stroke="#D8D8D8" stroke-width="0.5" stroke-linecap="square"></line>
                <path d="M217.72,152 L217.72,144.968 L220.096,144.968 L220.096,144.128 L214.336,144.128 L214.336,144.968 L216.712,144.968 L216.712,152 L217.72,152 Z M221.008,152 L221.764,149.6 L224.632,149.6 L225.376,152 L226.444,152 L223.78,144.128 L222.652,144.128 L219.988,152 L221.008,152 Z M224.38,148.796 L222.016,148.796 L222.388,147.596 C222.532,147.156 222.668,146.718 222.796,146.282 C222.924,145.846 223.048,145.4 223.168,144.944 L223.168,144.944 L223.216,144.944 C223.344,145.4 223.472,145.846 223.6,146.282 C223.728,146.718 223.864,147.156 224.008,147.596 L224.008,147.596 L224.38,148.796 Z M227.764,152 L228.904,149.876 C229,149.684 229.1,149.486 229.204,149.282 C229.308,149.078 229.416,148.856 229.528,148.616 L229.528,148.616 L229.576,148.616 C229.704,148.856 229.822,149.078 229.93,149.282 C230.038,149.486 230.144,149.684 230.248,149.876 L230.248,149.876 L231.4,152 L232.504,152 L230.212,147.98 L232.36,144.128 L231.304,144.128 L230.26,146.144 C230.164,146.328 230.074,146.506 229.99,146.678 C229.906,146.85 229.808,147.052 229.696,147.284 L229.696,147.284 L229.648,147.284 C229.528,147.052 229.422,146.85 229.33,146.678 C229.238,146.506 229.14,146.328 229.036,146.144 L229.036,146.144 L227.968,144.128 L226.864,144.128 L229,147.932 L226.708,152 L227.764,152 Z M237.16,152 L237.16,148.676 L238.588,148.676 L240.484,152 L241.612,152 L239.608,148.568 C240.152,148.432 240.584,148.18 240.904,147.812 C241.224,147.444 241.384,146.952 241.384,146.336 C241.384,145.928 241.316,145.584 241.18,145.304 C241.044,145.024 240.854,144.796 240.61,144.62 C240.366,144.444 240.074,144.318 239.734,144.242 C239.394,144.166 239.024,144.128 238.624,144.128 L238.624,144.128 L236.164,144.128 L236.164,152 L237.16,152 Z M238.48,147.86 L237.16,147.86 L237.16,144.932 L238.48,144.932 C239.096,144.932 239.568,145.036 239.896,145.244 C240.224,145.452 240.388,145.816 240.388,146.336 C240.388,146.848 240.224,147.23 239.896,147.482 C239.568,147.734 239.096,147.86 238.48,147.86 L238.48,147.86 Z M247.648,152 L247.648,151.148 L243.988,151.148 L243.988,148.292 L246.976,148.292 L246.976,147.44 L243.988,147.44 L243.988,144.968 L247.528,144.968 L247.528,144.128 L242.992,144.128 L242.992,152 L247.648,152 Z M253.756,152 L253.756,151.148 L250.312,151.148 L250.312,144.128 L249.316,144.128 L249.316,152 L253.756,152 Z M256.144,152 L256.144,144.128 L255.148,144.128 L255.148,152 L256.144,152 Z M262.96,152 L262.96,151.148 L259.3,151.148 L259.3,148.292 L262.288,148.292 L262.288,147.44 L259.3,147.44 L259.3,144.968 L262.84,144.968 L262.84,144.128 L258.304,144.128 L258.304,152 L262.96,152 Z M265.624,152 L265.624,148.472 L268.624,148.472 L268.624,147.632 L265.624,147.632 L265.624,144.968 L269.164,144.968 L269.164,144.128 L264.628,144.128 L264.628,152 L265.624,152 Z M217.744,168.32 L217.744,167.072 C218.368,166.936 218.836,166.662 219.148,166.25 C219.46,165.838 219.616,165.344 219.616,164.768 C219.616,164.384 219.538,164.062 219.382,163.802 C219.226,163.542 219.03,163.32 218.794,163.136 C218.558,162.952 218.304,162.796 218.032,162.668 C217.76,162.54 217.506,162.416 217.27,162.296 C217.034,162.176 216.838,162.05 216.682,161.918 C216.526,161.786 216.448,161.624 216.448,161.432 C216.448,161.16 216.524,160.964 216.676,160.844 C216.828,160.724 217.048,160.664 217.336,160.664 C217.592,160.664 217.82,160.714 218.02,160.814 C218.22,160.914 218.428,161.064 218.644,161.264 L218.644,161.264 L219.532,160.256 C219.3,160.008 219.04,159.796 218.752,159.62 C218.464,159.444 218.128,159.328 217.744,159.272 L217.744,159.272 L217.744,158.06 L216.58,158.06 L216.58,159.296 C216.012,159.408 215.566,159.658 215.242,160.046 C214.918,160.434 214.756,160.924 214.756,161.516 C214.756,161.876 214.834,162.18 214.99,162.428 C215.146,162.676 215.342,162.892 215.578,163.076 C215.814,163.26 216.068,163.418 216.34,163.55 C216.612,163.682 216.866,163.814 217.102,163.946 C217.338,164.078 217.534,164.216 217.69,164.36 C217.846,164.504 217.924,164.68 217.924,164.888 C217.924,165.168 217.846,165.376 217.69,165.512 C217.534,165.648 217.288,165.716 216.952,165.716 C216.664,165.716 216.382,165.658 216.106,165.542 C215.83,165.426 215.54,165.252 215.236,165.02 L215.236,165.02 L214.468,166.208 C214.748,166.464 215.082,166.67 215.47,166.826 C215.858,166.982 216.228,167.08 216.58,167.12 L216.58,167.12 L216.58,168.32 L217.744,168.32 Z M223.084,167.144 C223.484,167.144 223.87,167.062 224.242,166.898 C224.614,166.734 224.942,166.484 225.226,166.148 C225.51,165.812 225.738,165.384 225.91,164.864 C226.082,164.344 226.168,163.728 226.168,163.016 C226.168,162.344 226.086,161.77 225.922,161.294 C225.758,160.818 225.542,160.428 225.274,160.124 C225.006,159.82 224.698,159.596 224.35,159.452 C224.002,159.308 223.644,159.236 223.276,159.236 C222.932,159.236 222.606,159.294 222.298,159.41 C221.99,159.526 221.722,159.696 221.494,159.92 C221.266,160.144 221.084,160.414 220.948,160.73 C220.812,161.046 220.744,161.4 220.744,161.792 C220.744,162.192 220.802,162.54 220.918,162.836 C221.034,163.132 221.192,163.376 221.392,163.568 C221.592,163.76 221.83,163.904 222.106,164 C222.382,164.096 222.684,164.144 223.012,164.144 C223.132,164.144 223.26,164.126 223.396,164.09 C223.532,164.054 223.668,164.002 223.804,163.934 C223.94,163.866 224.072,163.782 224.2,163.682 C224.328,163.582 224.44,163.468 224.536,163.34 C224.52,163.788 224.47,164.162 224.386,164.462 C224.302,164.762 224.19,165.006 224.05,165.194 C223.91,165.382 223.748,165.516 223.564,165.596 C223.38,165.676 223.18,165.716 222.964,165.716 C222.74,165.716 222.52,165.662 222.304,165.554 C222.088,165.446 221.916,165.32 221.788,165.176 L221.788,165.176 L220.852,166.232 C221.092,166.472 221.398,166.684 221.77,166.868 C222.142,167.052 222.58,167.144 223.084,167.144 Z M223.36,162.896 C223.072,162.896 222.832,162.814 222.64,162.65 C222.448,162.486 222.352,162.2 222.352,161.792 C222.352,161.36 222.448,161.046 222.64,160.85 C222.832,160.654 223.056,160.556 223.312,160.556 C223.584,160.556 223.83,160.67 224.05,160.898 C224.27,161.126 224.42,161.54 224.5,162.14 C224.348,162.412 224.17,162.606 223.966,162.722 C223.762,162.838 223.56,162.896 223.36,162.896 Z M229.84,167.144 C230.248,167.144 230.62,167.058 230.956,166.886 C231.292,166.714 231.578,166.46 231.814,166.124 C232.05,165.788 232.234,165.372 232.366,164.876 C232.498,164.38 232.564,163.808 232.564,163.16 C232.564,162.512 232.498,161.944 232.366,161.456 C232.234,160.968 232.05,160.558 231.814,160.226 C231.578,159.894 231.292,159.646 230.956,159.482 C230.62,159.318 230.248,159.236 229.84,159.236 C229.432,159.236 229.06,159.318 228.724,159.482 C228.388,159.646 228.102,159.894 227.866,160.226 C227.63,160.558 227.446,160.968 227.314,161.456 C227.182,161.944 227.116,162.512 227.116,163.16 C227.116,163.808 227.182,164.38 227.314,164.876 C227.446,165.372 227.63,165.788 227.866,166.124 C228.102,166.46 228.388,166.714 228.724,166.886 C229.06,167.058 229.432,167.144 229.84,167.144 Z M229.84,165.776 C229.696,165.776 229.56,165.738 229.432,165.662 C229.304,165.586 229.192,165.448 229.096,165.248 C229,165.048 228.924,164.78 228.868,164.444 C228.812,164.108 228.784,163.68 228.784,163.16 C228.784,162.64 228.812,162.214 228.868,161.882 C228.924,161.55 229,161.29 229.096,161.102 C229.192,160.914 229.304,160.784 229.432,160.712 C229.56,160.64 229.696,160.604 229.84,160.604 C229.992,160.604 230.132,160.64 230.26,160.712 C230.388,160.784 230.5,160.914 230.596,161.102 C230.692,161.29 230.766,161.55 230.818,161.882 C230.87,162.214 230.896,162.64 230.896,163.16 C230.896,163.68 230.87,164.108 230.818,164.444 C230.766,164.78 230.692,165.048 230.596,165.248 C230.5,165.448 230.388,165.586 230.26,165.662 C230.132,165.738 229.992,165.776 229.84,165.776 Z M238.816,167 L238.816,165.512 L237.28,165.512 C237.096,165.512 236.886,165.522 236.65,165.542 C236.414,165.562 236.2,165.584 236.008,165.608 C236.32,165.288 236.622,164.962 236.914,164.63 C237.206,164.298 237.466,163.966 237.694,163.634 C237.922,163.302 238.104,162.97 238.24,162.638 C238.376,162.306 238.444,161.98 238.444,161.66 C238.444,161.292 238.384,160.96 238.264,160.664 C238.144,160.368 237.972,160.114 237.748,159.902 C237.524,159.69 237.258,159.526 236.95,159.41 C236.642,159.294 236.3,159.236 235.924,159.236 C235.38,159.236 234.912,159.338 234.52,159.542 C234.128,159.746 233.744,160.048 233.368,160.448 L233.368,160.448 L234.328,161.396 C234.52,161.188 234.724,161.006 234.94,160.85 C235.156,160.694 235.404,160.616 235.684,160.616 C236.02,160.616 236.284,160.714 236.476,160.91 C236.668,161.106 236.764,161.392 236.764,161.768 C236.764,162.04 236.682,162.326 236.518,162.626 C236.354,162.926 236.126,163.25 235.834,163.598 C235.542,163.946 235.194,164.318 234.79,164.714 C234.386,165.11 233.94,165.536 233.452,165.992 L233.452,165.992 L233.452,167 L238.816,167 Z M245.572,167 C245.996,167 246.392,166.954 246.76,166.862 C247.128,166.77 247.45,166.63 247.726,166.442 C248.002,166.254 248.218,166.016 248.374,165.728 C248.53,165.44 248.608,165.096 248.608,164.696 C248.608,164.432 248.572,164.198 248.5,163.994 C248.428,163.79 248.328,163.612 248.2,163.46 C248.072,163.308 247.924,163.182 247.756,163.082 C247.588,162.982 247.404,162.908 247.204,162.86 L247.204,162.86 L247.204,162.812 C247.364,162.756 247.506,162.668 247.63,162.548 C247.754,162.428 247.86,162.292 247.948,162.14 C248.036,161.988 248.104,161.824 248.152,161.648 C248.2,161.472 248.224,161.296 248.224,161.12 C248.224,160.744 248.15,160.432 248.002,160.184 C247.854,159.936 247.65,159.736 247.39,159.584 C247.13,159.432 246.826,159.326 246.478,159.266 C246.13,159.206 245.752,159.176 245.344,159.176 L245.344,159.176 L242.668,159.176 L242.668,167 L245.572,167 Z M245.26,162.308 L244.432,162.308 L244.432,160.544 L245.272,160.544 C245.688,160.544 245.996,160.608 246.196,160.736 C246.396,160.864 246.496,161.08 246.496,161.384 C246.496,161.664 246.398,161.888 246.202,162.056 C246.006,162.224 245.692,162.308 245.26,162.308 L245.26,162.308 Z M245.428,165.632 L244.432,165.632 L244.432,163.616 L245.428,163.616 C245.916,163.616 246.28,163.69 246.52,163.838 C246.76,163.986 246.88,164.232 246.88,164.576 C246.88,165.28 246.396,165.632 245.428,165.632 L245.428,165.632 Z" id="TAXRELIEF$902B" fill="#666666" fill-rule="nonzero"></path>
                <polyline id="Path-21-Copy" stroke="#979797" stroke-width="0.5" points="5 134 5 126 146 126 146 134"></polyline>
                <line x1="101.5" y1="52.5" x2="101.5" y2="40.5" id="Line-14" stroke="#D8D8D8" stroke-linecap="round" stroke-linejoin="round" stroke-dasharray="3,3"></line>
                <path d="M5.958,18 L5.958,7.992 L9.36,7.992 L9.36,6.228 L0.468,6.228 L0.468,7.992 L3.87,7.992 L3.87,18 L5.958,18 Z M13.482,18.216 C14.034,18.216 14.565,18.114 15.075,17.91 C15.585,17.706 16.032,17.406 16.416,17.01 C16.8,16.614 17.109,16.128 17.343,15.552 C17.577,14.976 17.694,14.322 17.694,13.59 C17.694,12.858 17.577,12.204 17.343,11.628 C17.109,11.052 16.8,10.566 16.416,10.17 C16.032,9.774 15.585,9.471 15.075,9.261 C14.565,9.051 14.034,8.946 13.482,8.946 C12.93,8.946 12.402,9.051 11.898,9.261 C11.394,9.471 10.947,9.774 10.557,10.17 C10.167,10.566 9.858,11.052 9.63,11.628 C9.402,12.204 9.288,12.858 9.288,13.59 C9.288,14.322 9.402,14.976 9.63,15.552 C9.858,16.128 10.167,16.614 10.557,17.01 C10.947,17.406 11.394,17.706 11.898,17.91 C12.402,18.114 12.93,18.216 13.482,18.216 Z M13.482,16.524 C12.834,16.524 12.327,16.257 11.961,15.723 C11.595,15.189 11.412,14.478 11.412,13.59 C11.412,12.69 11.595,11.973 11.961,11.439 C12.327,10.905 12.834,10.638 13.482,10.638 C14.13,10.638 14.64,10.905 15.012,11.439 C15.384,11.973 15.57,12.69 15.57,13.59 C15.57,14.478 15.384,15.189 15.012,15.723 C14.64,16.257 14.13,16.524 13.482,16.524 Z M22.464,18.216 C22.812,18.216 23.139,18.183 23.445,18.117 C23.751,18.051 24.024,17.976 24.264,17.892 L24.264,17.892 L23.904,16.362 C23.772,16.422 23.625,16.47 23.463,16.506 C23.301,16.542 23.142,16.56 22.986,16.56 C22.158,16.56 21.744,16.044 21.744,15.012 L21.744,15.012 L21.744,10.8 L23.994,10.8 L23.994,9.162 L21.744,9.162 L21.744,6.75 L20.016,6.75 L19.764,9.162 L18.396,9.252 L18.396,10.8 L19.656,10.8 L19.656,15.012 C19.656,15.492 19.707,15.927 19.809,16.317 C19.911,16.707 20.073,17.043 20.295,17.325 C20.517,17.607 20.805,17.826 21.159,17.982 C21.513,18.138 21.948,18.216 22.464,18.216 Z M27.612,18.216 C28.14,18.216 28.629,18.102 29.079,17.874 C29.529,17.646 29.952,17.364 30.348,17.028 L30.348,17.028 L30.42,17.028 L30.564,18 L32.274,18 L32.274,12.762 C32.274,11.526 32.001,10.581 31.455,9.927 C30.909,9.273 30.084,8.946 28.98,8.946 C28.272,8.946 27.612,9.06 27,9.288 C26.388,9.516 25.836,9.786 25.344,10.098 L25.344,10.098 L26.1,11.484 C26.496,11.244 26.901,11.04 27.315,10.872 C27.729,10.704 28.152,10.62 28.584,10.62 C28.884,10.62 29.136,10.665 29.34,10.755 C29.544,10.845 29.709,10.971 29.835,11.133 C29.961,11.295 30.051,11.481 30.105,11.691 C30.159,11.901 30.192,12.12 30.204,12.348 C29.292,12.444 28.509,12.582 27.855,12.762 C27.201,12.942 26.661,13.164 26.235,13.428 C25.809,13.692 25.497,14.007 25.299,14.373 C25.101,14.739 25.002,15.156 25.002,15.624 C25.002,16.404 25.242,17.031 25.722,17.505 C26.202,17.979 26.832,18.216 27.612,18.216 Z M28.278,16.596 C27.906,16.596 27.6,16.506 27.36,16.326 C27.12,16.146 27,15.858 27,15.462 C27,15.246 27.054,15.042 27.162,14.85 C27.27,14.658 27.45,14.487 27.702,14.337 C27.954,14.187 28.284,14.052 28.692,13.932 C29.1,13.812 29.604,13.716 30.204,13.644 L30.204,13.644 L30.204,15.624 C29.868,15.936 29.553,16.176 29.259,16.344 C28.965,16.512 28.638,16.596 28.278,16.596 Z M36.774,18.216 C37.23,18.216 37.596,18.156 37.872,18.036 L37.872,18.036 L37.602,16.488 C37.518,16.512 37.455,16.524 37.413,16.524 L37.413,16.524 L37.278,16.524 C37.17,16.524 37.068,16.473 36.972,16.371 C36.876,16.269 36.828,16.092 36.828,15.84 L36.828,15.84 L36.828,5.292 L34.758,5.292 L34.758,15.732 C34.758,16.5 34.908,17.106 35.208,17.55 C35.508,17.994 36.03,18.216 36.774,18.216 Z M50.688,18 L50.688,16.236 L45.504,16.236 L45.504,12.762 L49.734,12.762 L49.734,10.998 L45.504,10.998 L45.504,7.992 L50.508,7.992 L50.508,6.228 L43.416,6.228 L43.416,18 L50.688,18 Z M55.386,18.216 C55.938,18.216 56.43,18.144 56.862,18 C57.294,17.856 57.654,17.661 57.942,17.415 C58.23,17.169 58.449,16.881 58.599,16.551 C58.749,16.221 58.824,15.864 58.824,15.48 C58.824,15.072 58.749,14.721 58.599,14.427 C58.449,14.133 58.251,13.884 58.005,13.68 C57.759,13.476 57.486,13.305 57.186,13.167 C56.886,13.029 56.586,12.906 56.286,12.798 C56.046,12.714 55.815,12.63 55.593,12.546 C55.371,12.462 55.176,12.372 55.008,12.276 C54.84,12.18 54.705,12.069 54.603,11.943 C54.501,11.817 54.45,11.664 54.45,11.484 C54.45,11.208 54.555,10.977 54.765,10.791 C54.975,10.605 55.302,10.512 55.746,10.512 C56.094,10.512 56.427,10.581 56.745,10.719 C57.063,10.857 57.378,11.04 57.69,11.268 L57.69,11.268 L58.644,10.008 C58.284,9.732 57.858,9.486 57.366,9.27 C56.874,9.054 56.322,8.946 55.71,8.946 C54.714,8.946 53.928,9.192 53.352,9.684 C52.776,10.176 52.488,10.812 52.488,11.592 C52.488,11.964 52.563,12.285 52.713,12.555 C52.863,12.825 53.055,13.062 53.289,13.266 C53.523,13.47 53.79,13.644 54.09,13.788 C54.39,13.932 54.684,14.058 54.972,14.166 C55.2,14.262 55.428,14.355 55.656,14.445 C55.884,14.535 56.088,14.634 56.268,14.742 C56.448,14.85 56.592,14.973 56.7,15.111 C56.808,15.249 56.862,15.408 56.862,15.588 C56.862,15.9 56.748,16.155 56.52,16.353 C56.292,16.551 55.938,16.65 55.458,16.65 C55.002,16.65 54.579,16.563 54.189,16.389 C53.799,16.215 53.406,15.972 53.01,15.66 L53.01,15.66 L52.038,16.992 C52.47,17.34 52.983,17.631 53.577,17.865 C54.171,18.099 54.774,18.216 55.386,18.216 Z M63.432,18.216 C63.78,18.216 64.107,18.183 64.413,18.117 C64.719,18.051 64.992,17.976 65.232,17.892 L65.232,17.892 L64.872,16.362 C64.74,16.422 64.593,16.47 64.431,16.506 C64.269,16.542 64.11,16.56 63.954,16.56 C63.126,16.56 62.712,16.044 62.712,15.012 L62.712,15.012 L62.712,10.8 L64.962,10.8 L64.962,9.162 L62.712,9.162 L62.712,6.75 L60.984,6.75 L60.732,9.162 L59.364,9.252 L59.364,10.8 L60.624,10.8 L60.624,15.012 C60.624,15.492 60.675,15.927 60.777,16.317 C60.879,16.707 61.041,17.043 61.263,17.325 C61.485,17.607 61.773,17.826 62.127,17.982 C62.481,18.138 62.916,18.216 63.432,18.216 Z M67.86,7.614 C68.232,7.614 68.538,7.506 68.778,7.29 C69.018,7.074 69.138,6.792 69.138,6.444 C69.138,6.096 69.018,5.811 68.778,5.589 C68.538,5.367 68.232,5.256 67.86,5.256 C67.488,5.256 67.182,5.367 66.942,5.589 C66.702,5.811 66.582,6.096 66.582,6.444 C66.582,6.792 66.702,7.074 66.942,7.29 C67.182,7.506 67.488,7.614 67.86,7.614 Z M68.886,18 L68.886,9.162 L66.816,9.162 L66.816,18 L68.886,18 Z M73.602,18 L73.602,11.826 C74.286,11.094 74.904,10.728 75.456,10.728 C75.924,10.728 76.269,10.878 76.491,11.178 C76.713,11.478 76.824,11.994 76.824,12.726 L76.824,12.726 L76.824,18 L78.894,18 L78.894,11.826 C79.578,11.094 80.196,10.728 80.748,10.728 C81.204,10.728 81.543,10.878 81.765,11.178 C81.987,11.478 82.098,11.994 82.098,12.726 L82.098,12.726 L82.098,18 L84.186,18 L84.186,12.456 C84.186,11.328 83.964,10.461 83.52,9.855 C83.076,9.249 82.386,8.946 81.45,8.946 C80.886,8.946 80.376,9.096 79.92,9.396 C79.464,9.696 79.026,10.074 78.606,10.53 C78.402,10.026 78.105,9.636 77.715,9.36 C77.325,9.084 76.806,8.946 76.158,8.946 C75.606,8.946 75.111,9.084 74.673,9.36 C74.235,9.636 73.83,9.972 73.458,10.368 L73.458,10.368 L73.386,10.368 L73.242,9.162 L71.532,9.162 L71.532,18 L73.602,18 Z M88.848,18.216 C89.376,18.216 89.865,18.102 90.315,17.874 C90.765,17.646 91.188,17.364 91.584,17.028 L91.584,17.028 L91.656,17.028 L91.8,18 L93.51,18 L93.51,12.762 C93.51,11.526 93.237,10.581 92.691,9.927 C92.145,9.273 91.32,8.946 90.216,8.946 C89.508,8.946 88.848,9.06 88.236,9.288 C87.624,9.516 87.072,9.786 86.58,10.098 L86.58,10.098 L87.336,11.484 C87.732,11.244 88.137,11.04 88.551,10.872 C88.965,10.704 89.388,10.62 89.82,10.62 C90.12,10.62 90.372,10.665 90.576,10.755 C90.78,10.845 90.945,10.971 91.071,11.133 C91.197,11.295 91.287,11.481 91.341,11.691 C91.395,11.901 91.428,12.12 91.44,12.348 C90.528,12.444 89.745,12.582 89.091,12.762 C88.437,12.942 87.897,13.164 87.471,13.428 C87.045,13.692 86.733,14.007 86.535,14.373 C86.337,14.739 86.238,15.156 86.238,15.624 C86.238,16.404 86.478,17.031 86.958,17.505 C87.438,17.979 88.068,18.216 88.848,18.216 Z M89.514,16.596 C89.142,16.596 88.836,16.506 88.596,16.326 C88.356,16.146 88.236,15.858 88.236,15.462 C88.236,15.246 88.29,15.042 88.398,14.85 C88.506,14.658 88.686,14.487 88.938,14.337 C89.19,14.187 89.52,14.052 89.928,13.932 C90.336,13.812 90.84,13.716 91.44,13.644 L91.44,13.644 L91.44,15.624 C91.104,15.936 90.789,16.176 90.495,16.344 C90.201,16.512 89.874,16.596 89.514,16.596 Z M98.82,18.216 C99.168,18.216 99.495,18.183 99.801,18.117 C100.107,18.051 100.38,17.976 100.62,17.892 L100.62,17.892 L100.26,16.362 C100.128,16.422 99.981,16.47 99.819,16.506 C99.657,16.542 99.498,16.56 99.342,16.56 C98.514,16.56 98.1,16.044 98.1,15.012 L98.1,15.012 L98.1,10.8 L100.35,10.8 L100.35,9.162 L98.1,9.162 L98.1,6.75 L96.372,6.75 L96.12,9.162 L94.752,9.252 L94.752,10.8 L96.012,10.8 L96.012,15.012 C96.012,15.492 96.063,15.927 96.165,16.317 C96.267,16.707 96.429,17.043 96.651,17.325 C96.873,17.607 97.161,17.826 97.515,17.982 C97.869,18.138 98.304,18.216 98.82,18.216 Z M105.696,18.216 C106.26,18.216 106.8,18.126 107.316,17.946 C107.832,17.766 108.3,17.538 108.72,17.262 L108.72,17.262 L108.018,15.966 C107.694,16.17 107.367,16.329 107.037,16.443 C106.707,16.557 106.35,16.614 105.966,16.614 C105.246,16.614 104.655,16.401 104.193,15.975 C103.731,15.549 103.452,14.94 103.356,14.148 L103.356,14.148 L108.972,14.148 C108.996,14.04 109.017,13.896 109.035,13.716 C109.053,13.536 109.062,13.344 109.062,13.14 C109.062,12.528 108.984,11.964 108.828,11.448 C108.672,10.932 108.441,10.488 108.135,10.116 C107.829,9.744 107.448,9.456 106.992,9.252 C106.536,9.048 106.008,8.946 105.408,8.946 C104.892,8.946 104.388,9.054 103.896,9.27 C103.404,9.486 102.969,9.792 102.591,10.188 C102.213,10.584 101.91,11.07 101.682,11.646 C101.454,12.222 101.34,12.87 101.34,13.59 C101.34,14.322 101.451,14.973 101.673,15.543 C101.895,16.113 102.204,16.596 102.6,16.992 C102.996,17.388 103.458,17.691 103.986,17.901 C104.514,18.111 105.084,18.216 105.696,18.216 Z M107.262,12.744 L103.338,12.744 C103.434,12.024 103.68,11.478 104.076,11.106 C104.472,10.734 104.934,10.548 105.462,10.548 C106.074,10.548 106.527,10.743 106.821,11.133 C107.115,11.523 107.262,12.06 107.262,12.744 L107.262,12.744 Z M114.138,18.216 C114.618,18.216 115.074,18.102 115.506,17.874 C115.938,17.646 116.316,17.37 116.64,17.046 L116.64,17.046 L116.712,17.046 L116.856,18 L118.566,18 L118.566,5.292 L116.496,5.292 L116.496,8.496 L116.568,9.918 C116.22,9.618 115.872,9.381 115.524,9.207 C115.176,9.033 114.75,8.946 114.246,8.946 C113.766,8.946 113.301,9.054 112.851,9.27 C112.401,9.486 112.002,9.792 111.654,10.188 C111.306,10.584 111.027,11.07 110.817,11.646 C110.607,12.222 110.502,12.87 110.502,13.59 C110.502,15.054 110.829,16.191 111.483,17.001 C112.137,17.811 113.022,18.216 114.138,18.216 Z M114.642,16.506 C113.994,16.506 113.499,16.257 113.157,15.759 C112.815,15.261 112.644,14.532 112.644,13.572 C112.644,12.636 112.842,11.916 113.238,11.412 C113.634,10.908 114.12,10.656 114.696,10.656 C114.996,10.656 115.293,10.71 115.587,10.818 C115.881,10.926 116.184,11.118 116.496,11.394 L116.496,11.394 L116.496,15.516 C115.92,16.176 115.302,16.506 114.642,16.506 Z M129.546,18 L133.2,6.228 L131.058,6.228 L129.42,12.15 C129.24,12.822 129.075,13.458 128.925,14.058 C128.775,14.658 128.598,15.3 128.394,15.984 L128.394,15.984 L128.322,15.984 C128.118,15.3 127.941,14.658 127.791,14.058 C127.641,13.458 127.47,12.822 127.278,12.15 L127.278,12.15 L125.622,6.228 L123.408,6.228 L127.08,18 L129.546,18 Z M136.062,18.216 C136.59,18.216 137.079,18.102 137.529,17.874 C137.979,17.646 138.402,17.364 138.798,17.028 L138.798,17.028 L138.87,17.028 L139.014,18 L140.724,18 L140.724,12.762 C140.724,11.526 140.451,10.581 139.905,9.927 C139.359,9.273 138.534,8.946 137.43,8.946 C136.722,8.946 136.062,9.06 135.45,9.288 C134.838,9.516 134.286,9.786 133.794,10.098 L133.794,10.098 L134.55,11.484 C134.946,11.244 135.351,11.04 135.765,10.872 C136.179,10.704 136.602,10.62 137.034,10.62 C137.334,10.62 137.586,10.665 137.79,10.755 C137.994,10.845 138.159,10.971 138.285,11.133 C138.411,11.295 138.501,11.481 138.555,11.691 C138.609,11.901 138.642,12.12 138.654,12.348 C137.742,12.444 136.959,12.582 136.305,12.762 C135.651,12.942 135.111,13.164 134.685,13.428 C134.259,13.692 133.947,14.007 133.749,14.373 C133.551,14.739 133.452,15.156 133.452,15.624 C133.452,16.404 133.692,17.031 134.172,17.505 C134.652,17.979 135.282,18.216 136.062,18.216 Z M136.728,16.596 C136.356,16.596 136.05,16.506 135.81,16.326 C135.57,16.146 135.45,15.858 135.45,15.462 C135.45,15.246 135.504,15.042 135.612,14.85 C135.72,14.658 135.9,14.487 136.152,14.337 C136.404,14.187 136.734,14.052 137.142,13.932 C137.55,13.812 138.054,13.716 138.654,13.644 L138.654,13.644 L138.654,15.624 C138.318,15.936 138.003,16.176 137.709,16.344 C137.415,16.512 137.088,16.596 136.728,16.596 Z M145.224,18.216 C145.68,18.216 146.046,18.156 146.322,18.036 L146.322,18.036 L146.052,16.488 C145.968,16.512 145.905,16.524 145.863,16.524 L145.863,16.524 L145.728,16.524 C145.62,16.524 145.518,16.473 145.422,16.371 C145.326,16.269 145.278,16.092 145.278,15.84 L145.278,15.84 L145.278,5.292 L143.208,5.292 L143.208,15.732 C143.208,16.5 143.358,17.106 143.658,17.55 C143.958,17.994 144.48,18.216 145.224,18.216 Z M150.714,18.216 C151.326,18.216 151.857,18.078 152.307,17.802 C152.757,17.526 153.174,17.16 153.558,16.704 L153.558,16.704 L153.612,16.704 L153.774,18 L155.466,18 L155.466,9.162 L153.396,9.162 L153.396,15.21 C153.06,15.642 152.745,15.954 152.451,16.146 C152.157,16.338 151.818,16.434 151.434,16.434 C150.954,16.434 150.606,16.284 150.39,15.984 C150.174,15.684 150.066,15.168 150.066,14.436 L150.066,14.436 L150.066,9.162 L147.996,9.162 L147.996,14.706 C147.996,15.834 148.212,16.701 148.644,17.307 C149.076,17.913 149.766,18.216 150.714,18.216 Z M161.874,18.216 C162.438,18.216 162.978,18.126 163.494,17.946 C164.01,17.766 164.478,17.538 164.898,17.262 L164.898,17.262 L164.196,15.966 C163.872,16.17 163.545,16.329 163.215,16.443 C162.885,16.557 162.528,16.614 162.144,16.614 C161.424,16.614 160.833,16.401 160.371,15.975 C159.909,15.549 159.63,14.94 159.534,14.148 L159.534,14.148 L165.15,14.148 C165.174,14.04 165.195,13.896 165.213,13.716 C165.231,13.536 165.24,13.344 165.24,13.14 C165.24,12.528 165.162,11.964 165.006,11.448 C164.85,10.932 164.619,10.488 164.313,10.116 C164.007,9.744 163.626,9.456 163.17,9.252 C162.714,9.048 162.186,8.946 161.586,8.946 C161.07,8.946 160.566,9.054 160.074,9.27 C159.582,9.486 159.147,9.792 158.769,10.188 C158.391,10.584 158.088,11.07 157.86,11.646 C157.632,12.222 157.518,12.87 157.518,13.59 C157.518,14.322 157.629,14.973 157.851,15.543 C158.073,16.113 158.382,16.596 158.778,16.992 C159.174,17.388 159.636,17.691 160.164,17.901 C160.692,18.111 161.262,18.216 161.874,18.216 Z M163.44,12.744 L159.516,12.744 C159.612,12.024 159.858,11.478 160.254,11.106 C160.65,10.734 161.112,10.548 161.64,10.548 C162.252,10.548 162.705,10.743 162.999,11.133 C163.293,11.523 163.44,12.06 163.44,12.744 L163.44,12.744 Z M174.438,18.216 C174.99,18.216 175.521,18.114 176.031,17.91 C176.541,17.706 176.988,17.406 177.372,17.01 C177.756,16.614 178.065,16.128 178.299,15.552 C178.533,14.976 178.65,14.322 178.65,13.59 C178.65,12.858 178.533,12.204 178.299,11.628 C178.065,11.052 177.756,10.566 177.372,10.17 C176.988,9.774 176.541,9.471 176.031,9.261 C175.521,9.051 174.99,8.946 174.438,8.946 C173.886,8.946 173.358,9.051 172.854,9.261 C172.35,9.471 171.903,9.774 171.513,10.17 C171.123,10.566 170.814,11.052 170.586,11.628 C170.358,12.204 170.244,12.858 170.244,13.59 C170.244,14.322 170.358,14.976 170.586,15.552 C170.814,16.128 171.123,16.614 171.513,17.01 C171.903,17.406 172.35,17.706 172.854,17.91 C173.358,18.114 173.886,18.216 174.438,18.216 Z M174.438,16.524 C173.79,16.524 173.283,16.257 172.917,15.723 C172.551,15.189 172.368,14.478 172.368,13.59 C172.368,12.69 172.551,11.973 172.917,11.439 C173.283,10.905 173.79,10.638 174.438,10.638 C175.086,10.638 175.596,10.905 175.968,11.439 C176.34,11.973 176.526,12.69 176.526,13.59 C176.526,14.478 176.34,15.189 175.968,15.723 C175.596,16.257 175.086,16.524 174.438,16.524 Z M183.06,18 L183.06,10.8 L184.788,10.8 L184.788,9.162 L183.06,9.162 L183.06,8.208 C183.06,7.212 183.432,6.714 184.176,6.714 C184.5,6.714 184.824,6.786 185.148,6.93 L185.148,6.93 L185.544,5.382 C185.34,5.298 185.097,5.226 184.815,5.166 C184.533,5.106 184.236,5.076 183.924,5.076 C183.396,5.076 182.949,5.154 182.583,5.31 C182.217,5.466 181.914,5.685 181.674,5.967 C181.434,6.249 181.26,6.585 181.152,6.975 C181.044,7.365 180.99,7.788 180.99,8.244 L180.99,8.244 L180.99,9.162 L179.802,9.252 L179.802,10.8 L180.99,10.8 L180.99,18 L183.06,18 Z M190.71,18 L191.628,14.814 L195.588,14.814 L196.506,18 L198.702,18 L194.868,6.228 L192.42,6.228 L188.586,18 L190.71,18 Z M195.12,13.176 L192.114,13.176 L192.528,11.736 C192.72,11.112 192.9,10.473 193.068,9.819 C193.236,9.165 193.404,8.508 193.572,7.848 L193.572,7.848 L193.644,7.848 C193.812,8.496 193.983,9.15 194.157,9.81 C194.331,10.47 194.514,11.112 194.706,11.736 L194.706,11.736 L195.12,13.176 Z M202.05,21.492 L202.05,18.72 L201.996,17.244 C202.356,17.556 202.728,17.796 203.112,17.964 C203.496,18.132 203.88,18.216 204.264,18.216 C204.756,18.216 205.23,18.108 205.686,17.892 C206.142,17.676 206.544,17.367 206.892,16.965 C207.24,16.563 207.519,16.065 207.729,15.471 C207.939,14.877 208.044,14.202 208.044,13.446 C208.044,12.762 207.966,12.144 207.81,11.592 C207.654,11.04 207.426,10.566 207.126,10.17 C206.826,9.774 206.463,9.471 206.037,9.261 C205.611,9.051 205.122,8.946 204.57,8.946 C204.078,8.946 203.604,9.06 203.148,9.288 C202.692,9.516 202.278,9.786 201.906,10.098 L201.906,10.098 L201.834,10.098 L201.69,9.162 L199.98,9.162 L199.98,21.492 L202.05,21.492 Z M203.832,16.506 C203.568,16.506 203.286,16.452 202.986,16.344 C202.686,16.236 202.374,16.044 202.05,15.768 L202.05,15.768 L202.05,11.646 C202.722,10.986 203.37,10.656 203.994,10.656 C204.666,10.656 205.152,10.902 205.452,11.394 C205.752,11.886 205.902,12.576 205.902,13.464 C205.902,14.472 205.704,15.231 205.308,15.741 C204.912,16.251 204.42,16.506 203.832,16.506 Z M212.202,21.492 L212.202,18.72 L212.148,17.244 C212.508,17.556 212.88,17.796 213.264,17.964 C213.648,18.132 214.032,18.216 214.416,18.216 C214.908,18.216 215.382,18.108 215.838,17.892 C216.294,17.676 216.696,17.367 217.044,16.965 C217.392,16.563 217.671,16.065 217.881,15.471 C218.091,14.877 218.196,14.202 218.196,13.446 C218.196,12.762 218.118,12.144 217.962,11.592 C217.806,11.04 217.578,10.566 217.278,10.17 C216.978,9.774 216.615,9.471 216.189,9.261 C215.763,9.051 215.274,8.946 214.722,8.946 C214.23,8.946 213.756,9.06 213.3,9.288 C212.844,9.516 212.43,9.786 212.058,10.098 L212.058,10.098 L211.986,10.098 L211.842,9.162 L210.132,9.162 L210.132,21.492 L212.202,21.492 Z M213.984,16.506 C213.72,16.506 213.438,16.452 213.138,16.344 C212.838,16.236 212.526,16.044 212.202,15.768 L212.202,15.768 L212.202,11.646 C212.874,10.986 213.522,10.656 214.146,10.656 C214.818,10.656 215.304,10.902 215.604,11.394 C215.904,11.886 216.054,12.576 216.054,13.464 C216.054,14.472 215.856,15.231 215.46,15.741 C215.064,16.251 214.572,16.506 213.984,16.506 Z M222.354,18 L222.354,12.6 C222.63,11.928 222.96,11.457 223.344,11.187 C223.728,10.917 224.094,10.782 224.442,10.782 C224.634,10.782 224.796,10.794 224.928,10.818 C225.06,10.842 225.204,10.878 225.36,10.926 L225.36,10.926 L225.72,9.126 C225.468,9.006 225.132,8.946 224.712,8.946 C224.244,8.946 223.788,9.099 223.344,9.405 C222.9,9.711 222.522,10.152 222.21,10.728 L222.21,10.728 L222.138,10.728 L221.994,9.162 L220.284,9.162 L220.284,18 L222.354,18 Z M230.436,18.216 C230.988,18.216 231.519,18.114 232.029,17.91 C232.539,17.706 232.986,17.406 233.37,17.01 C233.754,16.614 234.063,16.128 234.297,15.552 C234.531,14.976 234.648,14.322 234.648,13.59 C234.648,12.858 234.531,12.204 234.297,11.628 C234.063,11.052 233.754,10.566 233.37,10.17 C232.986,9.774 232.539,9.471 232.029,9.261 C231.519,9.051 230.988,8.946 230.436,8.946 C229.884,8.946 229.356,9.051 228.852,9.261 C228.348,9.471 227.901,9.774 227.511,10.17 C227.121,10.566 226.812,11.052 226.584,11.628 C226.356,12.204 226.242,12.858 226.242,13.59 C226.242,14.322 226.356,14.976 226.584,15.552 C226.812,16.128 227.121,16.614 227.511,17.01 C227.901,17.406 228.348,17.706 228.852,17.91 C229.356,18.114 229.884,18.216 230.436,18.216 Z M230.436,16.524 C229.788,16.524 229.281,16.257 228.915,15.723 C228.549,15.189 228.366,14.478 228.366,13.59 C228.366,12.69 228.549,11.973 228.915,11.439 C229.281,10.905 229.788,10.638 230.436,10.638 C231.084,10.638 231.594,10.905 231.966,11.439 C232.338,11.973 232.524,12.69 232.524,13.59 C232.524,14.478 232.338,15.189 231.966,15.723 C231.594,16.257 231.084,16.524 230.436,16.524 Z M238.77,21.492 L238.77,18.72 L238.716,17.244 C239.076,17.556 239.448,17.796 239.832,17.964 C240.216,18.132 240.6,18.216 240.984,18.216 C241.476,18.216 241.95,18.108 242.406,17.892 C242.862,17.676 243.264,17.367 243.612,16.965 C243.96,16.563 244.239,16.065 244.449,15.471 C244.659,14.877 244.764,14.202 244.764,13.446 C244.764,12.762 244.686,12.144 244.53,11.592 C244.374,11.04 244.146,10.566 243.846,10.17 C243.546,9.774 243.183,9.471 242.757,9.261 C242.331,9.051 241.842,8.946 241.29,8.946 C240.798,8.946 240.324,9.06 239.868,9.288 C239.412,9.516 238.998,9.786 238.626,10.098 L238.626,10.098 L238.554,10.098 L238.41,9.162 L236.7,9.162 L236.7,21.492 L238.77,21.492 Z M240.552,16.506 C240.288,16.506 240.006,16.452 239.706,16.344 C239.406,16.236 239.094,16.044 238.77,15.768 L238.77,15.768 L238.77,11.646 C239.442,10.986 240.09,10.656 240.714,10.656 C241.386,10.656 241.872,10.902 242.172,11.394 C242.472,11.886 242.622,12.576 242.622,13.464 C242.622,14.472 242.424,15.231 242.028,15.741 C241.632,16.251 241.14,16.506 240.552,16.506 Z M248.922,18 L248.922,12.6 C249.198,11.928 249.528,11.457 249.912,11.187 C250.296,10.917 250.662,10.782 251.01,10.782 C251.202,10.782 251.364,10.794 251.496,10.818 C251.628,10.842 251.772,10.878 251.928,10.926 L251.928,10.926 L252.288,9.126 C252.036,9.006 251.7,8.946 251.28,8.946 C250.812,8.946 250.356,9.099 249.912,9.405 C249.468,9.711 249.09,10.152 248.778,10.728 L248.778,10.728 L248.706,10.728 L248.562,9.162 L246.852,9.162 L246.852,18 L248.922,18 Z M254.61,7.614 C254.982,7.614 255.288,7.506 255.528,7.29 C255.768,7.074 255.888,6.792 255.888,6.444 C255.888,6.096 255.768,5.811 255.528,5.589 C255.288,5.367 254.982,5.256 254.61,5.256 C254.238,5.256 253.932,5.367 253.692,5.589 C253.452,5.811 253.332,6.096 253.332,6.444 C253.332,6.792 253.452,7.074 253.692,7.29 C253.932,7.506 254.238,7.614 254.61,7.614 Z M255.636,18 L255.636,9.162 L253.566,9.162 L253.566,18 L255.636,18 Z M260.424,18.216 C260.952,18.216 261.441,18.102 261.891,17.874 C262.341,17.646 262.764,17.364 263.16,17.028 L263.16,17.028 L263.232,17.028 L263.376,18 L265.086,18 L265.086,12.762 C265.086,11.526 264.813,10.581 264.267,9.927 C263.721,9.273 262.896,8.946 261.792,8.946 C261.084,8.946 260.424,9.06 259.812,9.288 C259.2,9.516 258.648,9.786 258.156,10.098 L258.156,10.098 L258.912,11.484 C259.308,11.244 259.713,11.04 260.127,10.872 C260.541,10.704 260.964,10.62 261.396,10.62 C261.696,10.62 261.948,10.665 262.152,10.755 C262.356,10.845 262.521,10.971 262.647,11.133 C262.773,11.295 262.863,11.481 262.917,11.691 C262.971,11.901 263.004,12.12 263.016,12.348 C262.104,12.444 261.321,12.582 260.667,12.762 C260.013,12.942 259.473,13.164 259.047,13.428 C258.621,13.692 258.309,14.007 258.111,14.373 C257.913,14.739 257.814,15.156 257.814,15.624 C257.814,16.404 258.054,17.031 258.534,17.505 C259.014,17.979 259.644,18.216 260.424,18.216 Z M261.09,16.596 C260.718,16.596 260.412,16.506 260.172,16.326 C259.932,16.146 259.812,15.858 259.812,15.462 C259.812,15.246 259.866,15.042 259.974,14.85 C260.082,14.658 260.262,14.487 260.514,14.337 C260.766,14.187 261.096,14.052 261.504,13.932 C261.912,13.812 262.416,13.716 263.016,13.644 L263.016,13.644 L263.016,15.624 C262.68,15.936 262.365,16.176 262.071,16.344 C261.777,16.512 261.45,16.596 261.09,16.596 Z M270.396,18.216 C270.744,18.216 271.071,18.183 271.377,18.117 C271.683,18.051 271.956,17.976 272.196,17.892 L272.196,17.892 L271.836,16.362 C271.704,16.422 271.557,16.47 271.395,16.506 C271.233,16.542 271.074,16.56 270.918,16.56 C270.09,16.56 269.676,16.044 269.676,15.012 L269.676,15.012 L269.676,10.8 L271.926,10.8 L271.926,9.162 L269.676,9.162 L269.676,6.75 L267.948,6.75 L267.696,9.162 L266.328,9.252 L266.328,10.8 L267.588,10.8 L267.588,15.012 C267.588,15.492 267.639,15.927 267.741,16.317 C267.843,16.707 268.005,17.043 268.227,17.325 C268.449,17.607 268.737,17.826 269.091,17.982 C269.445,18.138 269.88,18.216 270.396,18.216 Z M274.824,7.614 C275.196,7.614 275.502,7.506 275.742,7.29 C275.982,7.074 276.102,6.792 276.102,6.444 C276.102,6.096 275.982,5.811 275.742,5.589 C275.502,5.367 275.196,5.256 274.824,5.256 C274.452,5.256 274.146,5.367 273.906,5.589 C273.666,5.811 273.546,6.096 273.546,6.444 C273.546,6.792 273.666,7.074 273.906,7.29 C274.146,7.506 274.452,7.614 274.824,7.614 Z M275.85,18 L275.85,9.162 L273.78,9.162 L273.78,18 L275.85,18 Z M282.114,18.216 C282.666,18.216 283.197,18.114 283.707,17.91 C284.217,17.706 284.664,17.406 285.048,17.01 C285.432,16.614 285.741,16.128 285.975,15.552 C286.209,14.976 286.326,14.322 286.326,13.59 C286.326,12.858 286.209,12.204 285.975,11.628 C285.741,11.052 285.432,10.566 285.048,10.17 C284.664,9.774 284.217,9.471 283.707,9.261 C283.197,9.051 282.666,8.946 282.114,8.946 C281.562,8.946 281.034,9.051 280.53,9.261 C280.026,9.471 279.579,9.774 279.189,10.17 C278.799,10.566 278.49,11.052 278.262,11.628 C278.034,12.204 277.92,12.858 277.92,13.59 C277.92,14.322 278.034,14.976 278.262,15.552 C278.49,16.128 278.799,16.614 279.189,17.01 C279.579,17.406 280.026,17.706 280.53,17.91 C281.034,18.114 281.562,18.216 282.114,18.216 Z M282.114,16.524 C281.466,16.524 280.959,16.257 280.593,15.723 C280.227,15.189 280.044,14.478 280.044,13.59 C280.044,12.69 280.227,11.973 280.593,11.439 C280.959,10.905 281.466,10.638 282.114,10.638 C282.762,10.638 283.272,10.905 283.644,11.439 C284.016,11.973 284.202,12.69 284.202,13.59 C284.202,14.478 284.016,15.189 283.644,15.723 C283.272,16.257 282.762,16.524 282.114,16.524 Z M290.448,18 L290.448,11.826 C290.82,11.466 291.153,11.193 291.447,11.007 C291.741,10.821 292.08,10.728 292.464,10.728 C292.956,10.728 293.31,10.878 293.526,11.178 C293.742,11.478 293.85,11.994 293.85,12.726 L293.85,12.726 L293.85,18 L295.92,18 L295.92,12.456 C295.92,11.328 295.704,10.461 295.272,9.855 C294.84,9.249 294.15,8.946 293.202,8.946 C292.59,8.946 292.053,9.084 291.591,9.36 C291.129,9.636 290.7,9.966 290.304,10.35 L290.304,10.35 L290.232,10.35 L290.088,9.162 L288.378,9.162 L288.378,18 L290.448,18 Z M300.924,18.216 C301.476,18.216 301.968,18.144 302.4,18 C302.832,17.856 303.192,17.661 303.48,17.415 C303.768,17.169 303.987,16.881 304.137,16.551 C304.287,16.221 304.362,15.864 304.362,15.48 C304.362,15.072 304.287,14.721 304.137,14.427 C303.987,14.133 303.789,13.884 303.543,13.68 C303.297,13.476 303.024,13.305 302.724,13.167 C302.424,13.029 302.124,12.906 301.824,12.798 C301.584,12.714 301.353,12.63 301.131,12.546 C300.909,12.462 300.714,12.372 300.546,12.276 C300.378,12.18 300.243,12.069 300.141,11.943 C300.039,11.817 299.988,11.664 299.988,11.484 C299.988,11.208 300.093,10.977 300.303,10.791 C300.513,10.605 300.84,10.512 301.284,10.512 C301.632,10.512 301.965,10.581 302.283,10.719 C302.601,10.857 302.916,11.04 303.228,11.268 L303.228,11.268 L304.182,10.008 C303.822,9.732 303.396,9.486 302.904,9.27 C302.412,9.054 301.86,8.946 301.248,8.946 C300.252,8.946 299.466,9.192 298.89,9.684 C298.314,10.176 298.026,10.812 298.026,11.592 C298.026,11.964 298.101,12.285 298.251,12.555 C298.401,12.825 298.593,13.062 298.827,13.266 C299.061,13.47 299.328,13.644 299.628,13.788 C299.928,13.932 300.222,14.058 300.51,14.166 C300.738,14.262 300.966,14.355 301.194,14.445 C301.422,14.535 301.626,14.634 301.806,14.742 C301.986,14.85 302.13,14.973 302.238,15.111 C302.346,15.249 302.4,15.408 302.4,15.588 C302.4,15.9 302.286,16.155 302.058,16.353 C301.83,16.551 301.476,16.65 300.996,16.65 C300.54,16.65 300.117,16.563 299.727,16.389 C299.337,16.215 298.944,15.972 298.548,15.66 L298.548,15.66 L297.576,16.992 C298.008,17.34 298.521,17.631 299.115,17.865 C299.709,18.099 300.312,18.216 300.924,18.216 Z M5.364,42.98 L5.364,41.126 C6.264,40.958 6.954,40.583 7.434,40.001 C7.914,39.419 8.154,38.696 8.154,37.832 C8.154,37.232 8.034,36.731 7.794,36.329 C7.554,35.927 7.251,35.588 6.885,35.312 C6.519,35.036 6.126,34.799 5.706,34.601 C5.286,34.403 4.893,34.205 4.527,34.007 C4.161,33.809 3.858,33.593 3.618,33.359 C3.378,33.125 3.258,32.828 3.258,32.468 C3.258,32 3.396,31.643 3.672,31.397 C3.948,31.151 4.332,31.028 4.824,31.028 C5.256,31.028 5.628,31.109 5.94,31.271 C6.252,31.433 6.576,31.67 6.912,31.982 L6.912,31.982 L7.974,30.776 C7.638,30.428 7.263,30.125 6.849,29.867 C6.435,29.609 5.94,29.444 5.364,29.372 L5.364,29.372 L5.364,27.572 L3.924,27.572 L3.924,29.408 C3.108,29.552 2.46,29.903 1.98,30.461 C1.5,31.019 1.26,31.718 1.26,32.558 C1.26,33.122 1.38,33.593 1.62,33.971 C1.86,34.349 2.163,34.673 2.529,34.943 C2.895,35.213 3.288,35.447 3.708,35.645 C4.128,35.843 4.521,36.05 4.887,36.266 C5.253,36.482 5.556,36.722 5.796,36.986 C6.036,37.25 6.156,37.58 6.156,37.976 C6.156,38.468 6.012,38.849 5.724,39.119 C5.436,39.389 4.998,39.524 4.41,39.524 C3.918,39.524 3.456,39.422 3.024,39.218 C2.592,39.014 2.166,38.744 1.746,38.408 L1.746,38.408 L0.81,39.812 C1.218,40.196 1.701,40.505 2.259,40.739 C2.817,40.973 3.372,41.12 3.924,41.18 L3.924,41.18 L3.924,42.98 L5.364,42.98 Z M13.554,41.216 C14.106,41.216 14.625,41.141 15.111,40.991 C15.597,40.841 16.023,40.625 16.389,40.343 C16.755,40.061 17.043,39.716 17.253,39.308 C17.463,38.9 17.568,38.432 17.568,37.904 C17.568,37.148 17.343,36.53 16.893,36.05 C16.443,35.57 15.876,35.24 15.192,35.06 L15.192,35.06 L15.192,34.988 C15.816,34.748 16.305,34.412 16.659,33.98 C17.013,33.548 17.19,33.008 17.19,32.36 C17.19,31.88 17.1,31.451 16.92,31.073 C16.74,30.695 16.488,30.377 16.164,30.119 C15.84,29.861 15.45,29.666 14.994,29.534 C14.538,29.402 14.034,29.336 13.482,29.336 C12.798,29.336 12.177,29.468 11.619,29.732 C11.061,29.996 10.536,30.344 10.044,30.776 L10.044,30.776 L11.106,32.054 C11.454,31.73 11.811,31.469 12.177,31.271 C12.543,31.073 12.954,30.974 13.41,30.974 C13.938,30.974 14.352,31.109 14.652,31.379 C14.952,31.649 15.102,32.024 15.102,32.504 C15.102,32.768 15.051,33.014 14.949,33.242 C14.847,33.47 14.679,33.665 14.445,33.827 C14.211,33.989 13.905,34.115 13.527,34.205 C13.149,34.295 12.678,34.34 12.114,34.34 L12.114,34.34 L12.114,35.852 C12.762,35.852 13.302,35.897 13.734,35.987 C14.166,36.077 14.511,36.206 14.769,36.374 C15.027,36.542 15.21,36.746 15.318,36.986 C15.426,37.226 15.48,37.496 15.48,37.796 C15.48,38.336 15.285,38.759 14.895,39.065 C14.505,39.371 13.998,39.524 13.374,39.524 C12.798,39.524 12.288,39.401 11.844,39.155 C11.4,38.909 11.004,38.612 10.656,38.264 L10.656,38.264 L9.666,39.596 C10.074,40.052 10.59,40.436 11.214,40.748 C11.838,41.06 12.618,41.216 13.554,41.216 Z M20.952,41.216 C21.336,41.216 21.654,41.084 21.906,40.82 C22.158,40.556 22.284,40.22 22.284,39.812 C22.284,39.404 22.158,39.068 21.906,38.804 C21.654,38.54 21.336,38.408 20.952,38.408 C20.568,38.408 20.247,38.54 19.989,38.804 C19.731,39.068 19.602,39.404 19.602,39.812 C19.602,40.22 19.731,40.556 19.989,40.82 C20.247,41.084 20.568,41.216 20.952,41.216 Z M30.744,41 L30.744,38.048 L32.184,38.048 L32.184,36.446 L30.744,36.446 L30.744,29.552 L28.278,29.552 L23.742,36.644 L23.742,38.048 L28.8,38.048 L28.8,41 L30.744,41 Z M28.8,36.446 L25.794,36.446 L27.882,33.26 C28.05,32.948 28.212,32.648 28.368,32.36 C28.524,32.072 28.674,31.778 28.818,31.478 L28.818,31.478 L28.89,31.478 C28.866,31.814 28.845,32.21 28.827,32.666 C28.809,33.122 28.8,33.518 28.8,33.854 L28.8,33.854 L28.8,36.446 Z M37.278,41.216 C37.854,41.216 38.382,41.138 38.862,40.982 C39.342,40.826 39.75,40.607 40.086,40.325 C40.422,40.043 40.683,39.713 40.869,39.335 C41.055,38.957 41.148,38.546 41.148,38.102 C41.148,37.718 41.094,37.376 40.986,37.076 C40.878,36.776 40.734,36.506 40.554,36.266 C40.374,36.026 40.164,35.813 39.924,35.627 C39.684,35.441 39.432,35.276 39.168,35.132 L39.168,35.132 L39.168,35.06 C39.348,34.928 39.531,34.769 39.717,34.583 C39.903,34.397 40.068,34.193 40.212,33.971 C40.356,33.749 40.473,33.509 40.563,33.251 C40.653,32.993 40.698,32.72 40.698,32.432 C40.698,31.964 40.62,31.541 40.464,31.163 C40.308,30.785 40.083,30.461 39.789,30.191 C39.495,29.921 39.141,29.711 38.727,29.561 C38.313,29.411 37.848,29.336 37.332,29.336 C36.84,29.336 36.381,29.408 35.955,29.552 C35.529,29.696 35.163,29.9 34.857,30.164 C34.551,30.428 34.311,30.746 34.137,31.118 C33.963,31.49 33.876,31.91 33.876,32.378 C33.876,32.99 34.029,33.512 34.335,33.944 C34.641,34.376 35.016,34.748 35.46,35.06 L35.46,35.06 L35.46,35.132 C35.184,35.276 34.923,35.444 34.677,35.636 C34.431,35.828 34.212,36.044 34.02,36.284 C33.828,36.524 33.675,36.791 33.561,37.085 C33.447,37.379 33.39,37.706 33.39,38.066 C33.39,38.534 33.489,38.96 33.687,39.344 C33.885,39.728 34.155,40.058 34.497,40.334 C34.839,40.61 35.247,40.826 35.721,40.982 C36.195,41.138 36.714,41.216 37.278,41.216 Z M38.034,34.538 C37.71,34.418 37.41,34.289 37.134,34.151 C36.858,34.013 36.615,33.863 36.405,33.701 C36.195,33.539 36.03,33.35 35.91,33.134 C35.79,32.918 35.73,32.666 35.73,32.378 C35.73,31.874 35.88,31.487 36.18,31.217 C36.48,30.947 36.852,30.812 37.296,30.812 C37.836,30.812 38.253,30.977 38.547,31.307 C38.841,31.637 38.988,32.054 38.988,32.558 C38.988,32.918 38.907,33.26 38.745,33.584 C38.583,33.908 38.346,34.226 38.034,34.538 Z M37.314,39.74 C36.726,39.74 36.228,39.569 35.82,39.227 C35.412,38.885 35.208,38.426 35.208,37.85 C35.208,37.406 35.325,37.004 35.559,36.644 C35.793,36.284 36.09,35.972 36.45,35.708 C36.834,35.864 37.194,36.014 37.53,36.158 C37.866,36.302 38.157,36.461 38.403,36.635 C38.649,36.809 38.844,37.007 38.988,37.229 C39.132,37.451 39.204,37.718 39.204,38.03 C39.204,38.57 39.027,38.99 38.673,39.29 C38.319,39.59 37.866,39.74 37.314,39.74 Z M51.444,41 L51.444,30.992 L54.846,30.992 L54.846,29.228 L45.954,29.228 L45.954,30.992 L49.356,30.992 L49.356,41 L51.444,41 Z" id="TotalEstimatedValueofAppropriations$3.48T" fill="#666666" fill-rule="nonzero"></path>
                <g id="Group-21" transform="translate(5.000000, 134.000000)">
                    <use id="Rectangle-Copy-22" stroke="#979797" mask="url(#mask-2)" stroke-width="2" fill="#D8D8D8" opacity="0.776204427" stroke-linecap="round" stroke-linejoin="round" stroke-dasharray="4,3" transform="translate(167.500000, 20.500000) rotate(90.000000) translate(-167.500000, -20.500000) " xlink:href="#path-1"></use>
                    <g id="Group-27-Copy" transform="translate(0.000000, 0.500000)" fill="#6F41A7">
                        <rect id="Rectangle" x="114" y="3.55271368e-15" width="27" height="40"></rect>
                        <rect id="Rectangle-Copy-13" x="3" y="3.55271368e-15" width="110" height="40"></rect>
                        <rect id="Rectangle-Copy-14" x="1" y="3.55271368e-15" width="1" height="40"></rect>
                        <rect id="Rectangle-Copy-17" x="0" y="3.55271368e-15" width="1" height="40"></rect>
                    </g>
                </g>
                <line x1="75.5" y1="126" x2="75.5" y2="118" id="Line-14-Copy" stroke="#979797" stroke-width="0.5" stroke-linecap="square"></line>
            </g>
        </g>
    </g>
</svg>