<?xml version="1.0" encoding="UTF-8"?>
<svg width="350px" height="143px" viewBox="0 0 350 143" version="1.1" xmlns="http://www.w3.org/2000/svg" xmlns:xlink="http://www.w3.org/1999/xlink" role="img">
  <desc>Viz 1 C mobile placeholder alt text</desc>
  <defs>
    <path id="a" d="M148 98h40v49h-40z"/>
    <path id="b" d="M251 45h40v154h-40z"/>
    <mask id="c" maskContentUnits="userSpaceOnUse" maskUnits="objectBoundingBox" x="0" y="0" width="40" height="49" fill="#fff">
      <use xlink:href="#a"/>
    </mask>
    <mask id="d" maskContentUnits="userSpaceOnUse" maskUnits="objectBoundingBox" x="0" y="0" width="40" height="154" fill="#fff">
      <use xlink:href="#b"/>
    </mask>
  </defs>
  <g transform="translate(1)" fill="none" fill-rule="evenodd">
    <path d="M39.378 51v-4.116c0-.416-.014-.83-.042-1.242a102.02 102.02 0 00-.09-1.218h.048l.852 1.62L43.002 51h1.032v-7.872h-.948v4.068c0 .416.014.838.042 1.266.028.428.054.842.078 1.242h-.048l-.852-1.632-2.844-4.944H38.43V51h.948zm11.472 0v-.852h-3.66v-2.856h2.988v-.852H47.19v-2.472h3.54v-.84h-4.536V51h4.656zm3.72 0l1.164-4.74c.064-.304.13-.602.198-.894.068-.292.134-.59.198-.894h.048l.186.894c.06.292.126.59.198.894L57.75 51h1.2l1.632-7.872h-.96l-.828 4.284c-.08.424-.156.846-.228 1.266l-.216 1.278h-.048a329.655 329.655 0 00-.576-2.544l-1.092-4.284h-.912l-1.092 4.284c-.088.424-.18.846-.276 1.266-.096.42-.188.846-.276 1.278h-.048a52.035 52.035 0 00-.228-1.272l-.117-.63-.111-.642-.828-4.284h-1.032L53.382 51h1.188zm9.756 0l.756-2.4h2.868l.744 2.4h1.068l-2.664-7.872H65.97L63.306 51h1.02zm3.372-3.204h-2.364l.372-1.2a44.773 44.773 0 00.78-2.652h.048c.128.456.256.902.384 1.338.128.436.264.874.408 1.314l.372 1.2zm6.156 3.348c.528 0 1-.086 1.416-.258.416-.172.752-.39 1.008-.654V46.92h-2.58v.828h1.668V49.8c-.16.144-.366.258-.618.342a2.507 2.507 0 01-.798.126c-.424 0-.798-.076-1.122-.228a2.226 2.226 0 01-.816-.648 2.975 2.975 0 01-.504-1.014 4.757 4.757 0 01-.174-1.338c0-.488.062-.928.186-1.32s.298-.726.522-1.002a2.26 2.26 0 01.816-.636c.32-.148.68-.222 1.08-.222s.732.072.996.216c.264.144.496.32.696.528l.552-.648a3.406 3.406 0 00-.39-.354 2.83 2.83 0 00-.504-.312 3.096 3.096 0 00-1.374-.306 3.67 3.67 0 00-1.446.282 3.233 3.233 0 00-1.146.81c-.32.352-.57.78-.75 1.284a5.044 5.044 0 00-.27 1.704c0 .64.088 1.214.264 1.722.176.508.42.936.732 1.284s.686.614 1.122.798c.436.184.914.276 1.434.276zM82.818 51v-.852h-3.66v-2.856h2.988v-.852h-2.988v-2.472h3.54v-.84h-4.536V51h4.656zm2.616 0v-4.116c0-.416-.014-.83-.042-1.242a102.02 102.02 0 00-.09-1.218h.048l.852 1.62L89.058 51h1.032v-7.872h-.948v4.068c0 .416.014.838.042 1.266.028.428.054.842.078 1.242h-.048l-.852-1.632-2.844-4.944h-1.032V51h.948zm9.792.144c.512 0 .964-.1 1.356-.3a3.5 3.5 0 001.056-.84l-.552-.624a3.14 3.14 0 01-.816.654 2.084 2.084 0 01-1.008.234c-.376 0-.714-.076-1.014-.228a2.152 2.152 0 01-.762-.648A3.186 3.186 0 0193 48.378a4.757 4.757 0 01-.174-1.338c0-.488.058-.928.174-1.32.116-.392.282-.726.498-1.002a2.21 2.21 0 01.78-.636 2.3 2.3 0 011.02-.222c.336 0 .636.068.9.204.264.136.5.316.708.54l.54-.648a3.307 3.307 0 00-.894-.678c-.364-.196-.786-.294-1.266-.294-.504 0-.968.094-1.392.282a3.186 3.186 0 00-1.104.81c-.312.352-.556.78-.732 1.284a5.148 5.148 0 00-.264 1.704c0 .64.086 1.214.258 1.722.172.508.412.936.72 1.284s.67.614 1.086.798c.416.184.872.276 1.368.276zm6.072-.144v-3.048l2.364-4.824h-1.044l-1.008 2.22c-.12.288-.248.572-.384.852s-.272.568-.408.864h-.048a36.676 36.676 0 01-.384-.864c-.12-.28-.244-.564-.372-.852l-1.02-2.22h-1.068l2.364 4.824V51h1.008zm-52.29 15v-3.528h3v-.84h-3v-2.664h3.54v-.84h-4.536V66h.996zm7.728.144c.4 0 .772-.058 1.116-.174.344-.116.642-.308.894-.576.252-.268.45-.618.594-1.05.144-.432.216-.964.216-1.596v-4.62h-.96v4.644c0 .472-.048.868-.144 1.188-.096.32-.228.576-.396.768-.168.192-.364.33-.588.414a2.069 2.069 0 01-.732.126c-.256 0-.496-.042-.72-.126a1.408 1.408 0 01-.582-.414c-.164-.192-.294-.448-.39-.768-.096-.32-.144-.716-.144-1.188v-4.644h-.996v4.62c0 .632.072 1.164.216 1.596.144.432.342.782.594 1.05.252.268.552.46.9.576.348.116.722.174 1.122.174zM62.628 66v-4.116c0-.416-.014-.83-.042-1.242a102.02 102.02 0 00-.09-1.218h.048l.852 1.62L66.252 66h1.032v-7.872h-.948v4.068c0 .416.014.838.042 1.266.028.428.054.842.078 1.242h-.048l-.852-1.632-2.844-4.944H61.68V66h.948zm8.832 0c.592 0 1.116-.09 1.572-.27.456-.18.84-.44 1.152-.78.312-.34.548-.756.708-1.248.16-.492.24-1.05.24-1.674 0-1.256-.316-2.22-.948-2.892-.632-.672-1.556-1.008-2.772-1.008h-1.968V66h2.016zm-.12-.816h-.9v-6.24h.9c.92 0 1.61.264 2.07.792.46.528.69 1.292.69 2.292 0 1-.23 1.776-.69 2.328-.46.552-1.15.828-2.07.828zm6.48.816v-7.872h-.996V66h.996zm3.108 0v-4.116c0-.416-.014-.83-.042-1.242a102.02 102.02 0 00-.09-1.218h.048l.852 1.62L84.552 66h1.032v-7.872h-.948v4.068c0 .416.014.838.042 1.266.028.428.054.842.078 1.242h-.048l-.852-1.632-2.844-4.944H79.98V66h.948zm9.912.144c.528 0 1-.086 1.416-.258.416-.172.752-.39 1.008-.654V61.92h-2.58v.828h1.668V64.8c-.16.144-.366.258-.618.342a2.507 2.507 0 01-.798.126c-.424 0-.798-.076-1.122-.228a2.226 2.226 0 01-.816-.648 2.975 2.975 0 01-.504-1.014 4.757 4.757 0 01-.174-1.338c0-.488.062-.928.186-1.32s.298-.726.522-1.002a2.26 2.26 0 01.816-.636c.32-.148.68-.222 1.08-.222s.732.072.996.216c.264.144.496.32.696.528l.552-.648a3.406 3.406 0 00-.39-.354 2.83 2.83 0 00-.504-.312 3.096 3.096 0 00-1.374-.306 3.67 3.67 0 00-1.446.282 3.233 3.233 0 00-1.146.81c-.32.352-.57.78-.75 1.284a5.044 5.044 0 00-.27 1.704c0 .64.088 1.214.264 1.722.176.508.42.936.732 1.284s.686.614 1.122.798c.436.184.914.276 1.434.276zM56.436 82.32v-1.248c.624-.136 1.092-.41 1.404-.822.312-.412.468-.906.468-1.482 0-.384-.078-.706-.234-.966a2.407 2.407 0 00-.588-.666 4.017 4.017 0 00-.762-.468 27.83 27.83 0 01-.762-.372 3.05 3.05 0 01-.588-.378.613.613 0 01-.234-.486c0-.272.076-.468.228-.588.152-.12.372-.18.66-.18.256 0 .484.05.684.15.2.1.408.25.624.45l.888-1.008a3.72 3.72 0 00-.78-.636 2.642 2.642 0 00-1.008-.348V72.06h-1.164v1.236c-.568.112-1.014.362-1.338.75-.324.388-.486.878-.486 1.47 0 .36.078.664.234.912.156.248.352.464.588.648s.49.342.762.474c.272.132.526.264.762.396s.432.27.588.414c.156.144.234.32.234.528 0 .28-.078.488-.234.624-.156.136-.402.204-.738.204-.288 0-.57-.058-.846-.174a4.034 4.034 0 01-.87-.522l-.768 1.188c.28.256.614.462 1.002.618.388.156.758.254 1.11.294v1.2h1.164zm8.4-1.32v-1.488H63.3c-.184 0-.394.01-.63.03-.236.02-.45.042-.642.066.312-.32.614-.646.906-.978.292-.332.552-.664.78-.996.228-.332.41-.664.546-.996a2.63 2.63 0 00.024-1.974 2.144 2.144 0 00-.516-.762 2.352 2.352 0 00-.798-.492 2.891 2.891 0 00-1.026-.174c-.544 0-1.012.102-1.404.306-.392.204-.776.506-1.152.906l.96.948c.192-.208.396-.39.612-.546.216-.156.464-.234.744-.234.336 0 .6.098.792.294.192.196.288.482.288.858 0 .272-.082.558-.246.858-.164.3-.392.624-.684.972-.292.348-.64.72-1.044 1.116-.404.396-.85.822-1.338 1.278V81h5.364zm2.328.144c.304 0 .558-.106.762-.318a1.09 1.09 0 00.306-.786c0-.32-.102-.586-.306-.798a1.014 1.014 0 00-.762-.318c-.304 0-.558.106-.762.318a1.105 1.105 0 00-.306.798c0 .312.102.574.306.786.204.212.458.318.762.318zm4.764 0c.368 0 .722-.06 1.062-.18.34-.12.638-.294.894-.522a2.52 2.52 0 00.612-.834c.152-.328.228-.704.228-1.128 0-.408-.064-.76-.192-1.056a1.983 1.983 0 00-.528-.732 2.26 2.26 0 00-.774-.432 2.959 2.959 0 00-.93-.144c-.16 0-.306.014-.438.042-.132.028-.27.074-.414.138l.132-1.428h2.796V73.38h-4.32l-.216 3.852.792.504a3.97 3.97 0 01.306-.18 2.49 2.49 0 01.264-.12c.084-.032.17-.054.258-.066a2.24 2.24 0 01.3-.018c.36 0 .65.1.87.3.22.2.33.492.33.876 0 .392-.116.688-.348.888-.232.2-.544.3-.936.3-.328 0-.626-.074-.894-.222a4.064 4.064 0 01-.75-.534l-.792 1.116c.304.304.672.558 1.104.762.432.204.96.306 1.584.306zm6.528 0c.408 0 .778-.054 1.11-.162.332-.108.616-.256.852-.444s.418-.41.546-.666c.128-.256.192-.536.192-.84 0-.504-.128-.912-.384-1.224a3.13 3.13 0 00-.936-.768v-.048c.264-.176.496-.406.696-.69.2-.284.3-.61.3-.978 0-.312-.056-.598-.168-.858a1.87 1.87 0 00-.468-.66c-.2-.18-.444-.32-.732-.42-.288-.1-.604-.15-.948-.15-.352 0-.678.048-.978.144-.3.096-.558.236-.774.42a1.922 1.922 0 00-.504.666c-.12.26-.18.55-.18.87 0 .408.096.754.288 1.038.192.284.436.538.732.762v.048c-.36.192-.666.436-.918.732s-.378.676-.378 1.14c0 .312.066.596.198.852s.316.476.552.66c.236.184.516.326.84.426.324.1.678.15 1.062.15zm.48-4.584a4.15 4.15 0 01-.948-.492.857.857 0 01-.36-.732c0-.296.084-.516.252-.66a.892.892 0 01.6-.216c.288 0 .514.09.678.27.164.18.246.418.246.714 0 .384-.156.756-.468 1.116zm-.444 3.36c-.32 0-.596-.094-.828-.282-.232-.188-.348-.45-.348-.786 0-.232.056-.452.168-.66.112-.208.252-.392.42-.552.24.104.458.2.654.288.196.088.366.182.51.282.144.1.254.21.33.33a.79.79 0 01.114.432c0 .32-.096.558-.288.714-.192.156-.436.234-.732.234zM85.86 81v-6.336h2.148v-1.488h-6.072v1.488h2.148V81h1.776zM54.148 16V7.104h3.024V5.536h-7.904v1.568h3.024V16h1.856zm6.688.192c.49 0 .963-.09 1.416-.272.453-.181.85-.448 1.192-.8.341-.352.616-.784.824-1.296.208-.512.312-1.093.312-1.744 0-.65-.104-1.232-.312-1.744a3.997 3.997 0 00-.824-1.296 3.499 3.499 0 00-1.192-.808 3.684 3.684 0 00-1.416-.28 3.625 3.625 0 00-2.6 1.088 3.827 3.827 0 00-.824 1.296c-.203.512-.304 1.093-.304 1.744 0 .65.101 1.232.304 1.744.203.512.477.944.824 1.296.347.352.744.619 1.192.8.448.181.917.272 1.408.272zm0-1.504a1.55 1.55 0 01-1.352-.712c-.325-.475-.488-1.107-.488-1.896 0-.8.163-1.437.488-1.912a1.55 1.55 0 011.352-.712c.576 0 1.03.237 1.36.712.33.475.496 1.112.496 1.912 0 .79-.165 1.421-.496 1.896-.33.475-.784.712-1.36.712zm7.984 1.504c.31 0 .6-.03.872-.088.272-.059.515-.125.728-.2l-.32-1.36a1.988 1.988 0 01-.392.128 1.95 1.95 0 01-.424.048c-.736 0-1.104-.459-1.104-1.376V9.6h2V8.144h-2V6h-1.536l-.224 2.144-1.216.08V9.6h1.12v3.744c0 .427.045.813.136 1.16.09.347.235.645.432.896.197.25.453.445.768.584.315.139.701.208 1.16.208zm4.576 0c.47 0 .904-.101 1.304-.304.4-.203.776-.453 1.128-.752h.064l.128.864h1.52v-4.656c0-1.099-.243-1.939-.728-2.52s-1.219-.872-2.2-.872c-.63 0-1.216.101-1.76.304a7.87 7.87 0 00-1.472.72l.672 1.232a7.586 7.586 0 011.08-.544c.368-.15.744-.224 1.128-.224.267 0 .49.04.672.12.181.08.328.192.44.336.112.144.192.31.24.496.048.187.077.381.088.584-.81.085-1.507.208-2.088.368-.581.16-1.061.357-1.44.592s-.656.515-.832.84a2.3 2.3 0 00-.264 1.112c0 .693.213 1.25.64 1.672.427.421.987.632 1.68.632zm.592-1.44c-.33 0-.603-.08-.816-.24-.213-.16-.32-.416-.32-.768 0-.192.048-.373.144-.544.096-.17.256-.323.48-.456.224-.133.517-.253.88-.36.363-.107.81-.192 1.344-.256v1.76c-.299.277-.579.49-.84.64-.261.15-.552.224-.872.224zm7.552 1.44c.405 0 .73-.053.976-.16l-.24-1.376a.678.678 0 01-.168.032h-.12c-.096 0-.187-.045-.272-.136-.085-.09-.128-.248-.128-.472V4.704h-1.84v9.28c0 .683.133 1.221.4 1.616s.73.592 1.392.592zM93.908 16v-1.568H89.3v-3.088h3.76V9.776H89.3V7.104h4.448V5.536h-6.304V16h6.464zm4.176.192c.49 0 .928-.064 1.312-.192s.704-.301.96-.52a2.199 2.199 0 00.784-1.72c0-.363-.067-.675-.2-.936a2.08 2.08 0 00-.528-.664 3.285 3.285 0 00-.728-.456 10.104 10.104 0 00-.8-.328c-.213-.075-.419-.15-.616-.224a3.665 3.665 0 01-.52-.24 1.26 1.26 0 01-.36-.296.628.628 0 01-.136-.408.79.79 0 01.28-.616c.187-.165.477-.248.872-.248.31 0 .605.061.888.184.283.123.563.285.84.488l.848-1.12a5.48 5.48 0 00-1.136-.656 3.625 3.625 0 00-1.472-.288c-.885 0-1.584.219-2.096.656-.512.437-.768 1.003-.768 1.696 0 .33.067.616.2.856s.304.45.512.632c.208.181.445.336.712.464.267.128.528.24.784.336.203.085.405.168.608.248.203.08.384.168.544.264.16.096.288.205.384.328a.669.669 0 01.144.424.86.86 0 01-.304.68c-.203.176-.517.264-.944.264-.405 0-.781-.077-1.128-.232a4.995 4.995 0 01-1.048-.648l-.864 1.184c.384.31.84.568 1.368.776a4.354 4.354 0 001.608.312zm7.152 0c.31 0 .6-.03.872-.088.272-.059.515-.125.728-.2l-.32-1.36a1.988 1.988 0 01-.392.128 1.95 1.95 0 01-.424.048c-.736 0-1.104-.459-1.104-1.376V9.6h2V8.144h-2V6h-1.536l-.224 2.144-1.216.08V9.6h1.12v3.744c0 .427.045.813.136 1.16.09.347.235.645.432.896.197.25.453.445.768.584.315.139.701.208 1.16.208zm3.936-9.424c.33 0 .603-.096.816-.288a.964.964 0 00.32-.752.989.989 0 00-.32-.76c-.213-.197-.485-.296-.816-.296-.33 0-.603.099-.816.296a.989.989 0 00-.32.76c0 .31.107.56.32.752.213.192.485.288.816.288zm.912 9.232V8.144h-1.84V16h1.84zm4.192 0v-5.488c.608-.65 1.157-.976 1.648-.976.416 0 .723.133.92.4.197.267.296.725.296 1.376V16h1.84v-5.488c.608-.65 1.157-.976 1.648-.976.405 0 .707.133.904.4.197.267.296.725.296 1.376V16h1.856v-4.928c0-1.003-.197-1.773-.592-2.312-.395-.539-1.008-.808-1.84-.808a2.42 2.42 0 00-1.36.4 6.32 6.32 0 00-1.168 1.008c-.181-.448-.445-.795-.792-1.04-.347-.245-.808-.368-1.384-.368-.49 0-.93.123-1.32.368s-.75.544-1.08.896h-.064l-.128-1.072h-1.52V16h1.84zm13.552.192c.47 0 .904-.101 1.304-.304.4-.203.776-.453 1.128-.752h.064l.128.864h1.52v-4.656c0-1.099-.243-1.939-.728-2.52s-1.219-.872-2.2-.872c-.63 0-1.216.101-1.76.304a7.87 7.87 0 00-1.472.72l.672 1.232a7.586 7.586 0 011.08-.544c.368-.15.744-.224 1.128-.224.267 0 .49.04.672.12.181.08.328.192.44.336.112.144.192.31.24.496.048.187.077.381.088.584-.81.085-1.507.208-2.088.368-.581.16-1.061.357-1.44.592s-.656.515-.832.84a2.3 2.3 0 00-.264 1.112c0 .693.213 1.25.64 1.672.427.421.987.632 1.68.632zm.592-1.44c-.33 0-.603-.08-.816-.24-.213-.16-.32-.416-.32-.768 0-.192.048-.373.144-.544.096-.17.256-.323.48-.456.224-.133.517-.253.88-.36.363-.107.81-.192 1.344-.256v1.76c-.299.277-.579.49-.84.64-.261.15-.552.224-.872.224zm8.272 1.44c.31 0 .6-.03.872-.088.272-.059.515-.125.728-.2l-.32-1.36a1.988 1.988 0 01-.392.128 1.95 1.95 0 01-.424.048c-.736 0-1.104-.459-1.104-1.376V9.6h2V8.144h-2V6h-1.536l-.224 2.144-1.216.08V9.6h1.12v3.744c0 .427.045.813.136 1.16.09.347.235.645.432.896.197.25.453.445.768.584.315.139.701.208 1.16.208zm6.112 0c.501 0 .981-.08 1.44-.24a5.65 5.65 0 001.248-.608l-.624-1.152a4.23 4.23 0 01-.872.424c-.293.101-.61.152-.952.152-.64 0-1.165-.19-1.576-.568-.41-.379-.659-.92-.744-1.624h4.992c.021-.096.04-.224.056-.384s.024-.33.024-.512c0-.544-.07-1.045-.208-1.504a3.378 3.378 0 00-.616-1.184 2.747 2.747 0 00-1.016-.768c-.405-.181-.875-.272-1.408-.272-.459 0-.907.096-1.344.288a3.58 3.58 0 00-1.16.816 3.964 3.964 0 00-.808 1.296c-.203.512-.304 1.088-.304 1.728 0 .65.099 1.23.296 1.736.197.507.472.936.824 1.288a3.61 3.61 0 001.232.808c.47.187.976.28 1.52.28zm1.392-4.864h-3.488c.085-.64.304-1.125.656-1.456.352-.33.763-.496 1.232-.496.544 0 .947.173 1.208.52.261.347.392.824.392 1.432zm6.112 4.864a2.57 2.57 0 001.216-.304c.384-.203.72-.448 1.008-.736h.064l.128.848h1.52V4.704h-1.84v2.848l.064 1.264a4.549 4.549 0 00-.928-.632c-.31-.155-.688-.232-1.136-.232-.427 0-.84.096-1.24.288-.4.192-.755.464-1.064.816a4.03 4.03 0 00-.744 1.296c-.187.512-.28 1.088-.28 1.728 0 1.301.29 2.312.872 3.032.581.72 1.368 1.08 2.36 1.08zm.448-1.52c-.576 0-1.016-.221-1.32-.664-.304-.443-.456-1.09-.456-1.944 0-.832.176-1.472.528-1.92.352-.448.784-.672 1.296-.672.267 0 .53.048.792.144.261.096.53.267.808.512v3.664c-.512.587-1.061.88-1.648.88zM161.796 16v-4.368h3.808v-1.568h-3.808v-2.96h4.464V5.536h-6.32V16h1.856zm7.072-9.232c.33 0 .603-.096.816-.288a.964.964 0 00.32-.752.989.989 0 00-.32-.76c-.213-.197-.485-.296-.816-.296-.33 0-.603.099-.816.296a.989.989 0 00-.32.76c0 .31.107.56.32.752.213.192.485.288.816.288zM169.78 16V8.144h-1.84V16h1.84zm4.544.192c.49 0 .928-.064 1.312-.192s.704-.301.96-.52a2.199 2.199 0 00.784-1.72c0-.363-.067-.675-.2-.936a2.08 2.08 0 00-.528-.664 3.285 3.285 0 00-.728-.456 10.104 10.104 0 00-.8-.328c-.213-.075-.419-.15-.616-.224a3.665 3.665 0 01-.52-.24 1.26 1.26 0 01-.36-.296.628.628 0 01-.136-.408.79.79 0 01.28-.616c.187-.165.477-.248.872-.248.31 0 .605.061.888.184.283.123.563.285.84.488l.848-1.12a5.48 5.48 0 00-1.136-.656 3.625 3.625 0 00-1.472-.288c-.885 0-1.584.219-2.096.656-.512.437-.768 1.003-.768 1.696 0 .33.067.616.2.856s.304.45.512.632c.208.181.445.336.712.464.267.128.528.24.784.336.203.085.405.168.608.248.203.08.384.168.544.264.16.096.288.205.384.328a.669.669 0 01.144.424.86.86 0 01-.304.68c-.203.176-.517.264-.944.264-.405 0-.781-.077-1.128-.232a4.995 4.995 0 01-1.048-.648l-.864 1.184c.384.31.84.568 1.368.776a4.354 4.354 0 001.608.312zm7.984 0c.448 0 .893-.08 1.336-.24.443-.16.85-.4 1.224-.72l-.752-1.216a3.918 3.918 0 01-.744.472c-.272.133-.563.2-.872.2a1.865 1.865 0 01-1.512-.712c-.39-.475-.584-1.107-.584-1.896 0-.8.197-1.437.592-1.912.395-.475.912-.712 1.552-.712.245 0 .472.05.68.152.208.101.419.243.632.424l.896-1.2a4.292 4.292 0 00-.984-.624c-.368-.17-.808-.256-1.32-.256a4.05 4.05 0 00-1.496.28 3.761 3.761 0 00-1.256.808c-.363.352-.65.784-.864 1.296-.213.512-.32 1.093-.32 1.744 0 .65.096 1.232.288 1.744a3.7 3.7 0 00.8 1.296c.341.352.744.619 1.208.8.464.181.963.272 1.496.272zm5.856 0c.47 0 .904-.101 1.304-.304.4-.203.776-.453 1.128-.752h.064l.128.864h1.52v-4.656c0-1.099-.243-1.939-.728-2.52s-1.219-.872-2.2-.872c-.63 0-1.216.101-1.76.304a7.87 7.87 0 00-1.472.72l.672 1.232a7.586 7.586 0 011.08-.544c.368-.15.744-.224 1.128-.224.267 0 .49.04.672.12.181.08.328.192.44.336.112.144.192.31.24.496.048.187.077.381.088.584-.81.085-1.507.208-2.088.368-.581.16-1.061.357-1.44.592s-.656.515-.832.84a2.3 2.3 0 00-.264 1.112c0 .693.213 1.25.64 1.672.427.421.987.632 1.68.632zm.592-1.44c-.33 0-.603-.08-.816-.24-.213-.16-.32-.416-.32-.768 0-.192.048-.373.144-.544.096-.17.256-.323.48-.456.224-.133.517-.253.88-.36.363-.107.81-.192 1.344-.256v1.76c-.299.277-.579.49-.84.64-.261.15-.552.224-.872.224zm7.552 1.44c.405 0 .73-.053.976-.16l-.24-1.376a.678.678 0 01-.168.032h-.12c-.096 0-.187-.045-.272-.136-.085-.09-.128-.248-.128-.472V4.704h-1.84v9.28c0 .683.133 1.221.4 1.616s.73.592 1.392.592zm7.76-.192V5.536h-1.856V16h1.856zm4.336 0v-5.488c.608-.65 1.157-.976 1.648-.976.416 0 .723.133.92.4.197.267.296.725.296 1.376V16h1.84v-5.488c.608-.65 1.157-.976 1.648-.976.405 0 .707.133.904.4.197.267.296.725.296 1.376V16h1.856v-4.928c0-1.003-.197-1.773-.592-2.312-.395-.539-1.008-.808-1.84-.808a2.42 2.42 0 00-1.36.4 6.32 6.32 0 00-1.168 1.008c-.181-.448-.445-.795-.792-1.04-.347-.245-.808-.368-1.384-.368-.49 0-.93.123-1.32.368s-.75.544-1.08.896h-.064l-.128-1.072h-1.52V16h1.84zm13.488 3.104V16.64l-.048-1.312c.32.277.65.49.992.64.341.15.683.224 1.024.224a2.92 2.92 0 001.264-.288 3.25 3.25 0 001.072-.824c.31-.357.557-.8.744-1.328.187-.528.28-1.128.28-1.8 0-.608-.07-1.157-.208-1.648a3.765 3.765 0 00-.608-1.264 2.704 2.704 0 00-.968-.808 2.912 2.912 0 00-1.304-.28c-.437 0-.859.101-1.264.304a5.623 5.623 0 00-1.104.72h-.064l-.128-.832h-1.52v10.96h1.84zm1.584-4.432c-.235 0-.485-.048-.752-.144-.267-.096-.544-.267-.832-.512v-3.664c.597-.587 1.173-.88 1.728-.88.597 0 1.03.219 1.296.656.267.437.4 1.05.4 1.84 0 .896-.176 1.57-.528 2.024-.352.453-.79.68-1.312.68zm7.312 1.52c.47 0 .904-.101 1.304-.304.4-.203.776-.453 1.128-.752h.064l.128.864h1.52v-4.656c0-1.099-.243-1.939-.728-2.52s-1.219-.872-2.2-.872c-.63 0-1.216.101-1.76.304a7.87 7.87 0 00-1.472.72l.672 1.232a7.586 7.586 0 011.08-.544c.368-.15.744-.224 1.128-.224.267 0 .49.04.672.12.181.08.328.192.44.336.112.144.192.31.24.496.048.187.077.381.088.584-.81.085-1.507.208-2.088.368-.581.16-1.061.357-1.44.592s-.656.515-.832.84a2.3 2.3 0 00-.264 1.112c0 .693.213 1.25.64 1.672.427.421.987.632 1.68.632zm.592-1.44c-.33 0-.603-.08-.816-.24-.213-.16-.32-.416-.32-.768 0-.192.048-.373.144-.544.096-.17.256-.323.48-.456.224-.133.517-.253.88-.36.363-.107.81-.192 1.344-.256v1.76c-.299.277-.579.49-.84.64-.261.15-.552.224-.872.224zm9.04 1.44c.448 0 .893-.08 1.336-.24.443-.16.85-.4 1.224-.72l-.752-1.216a3.918 3.918 0 01-.744.472c-.272.133-.563.2-.872.2a1.865 1.865 0 01-1.512-.712c-.39-.475-.584-1.107-.584-1.896 0-.8.197-1.437.592-1.912.395-.475.912-.712 1.552-.712.245 0 .472.05.68.152.208.101.419.243.632.424l.896-1.2a4.292 4.292 0 00-.984-.624c-.368-.17-.808-.256-1.32-.256a4.05 4.05 0 00-1.496.28 3.761 3.761 0 00-1.256.808c-.363.352-.65.784-.864 1.296-.213.512-.32 1.093-.32 1.744 0 .65.096 1.232.288 1.744a3.7 3.7 0 00.8 1.296c.341.352.744.619 1.208.8.464.181.963.272 1.496.272zm6.72 0c.31 0 .6-.03.872-.088.272-.059.515-.125.728-.2l-.32-1.36a1.988 1.988 0 01-.392.128 1.95 1.95 0 01-.424.048c-.736 0-1.104-.459-1.104-1.376V9.6h2V8.144h-2V6h-1.536l-.224 2.144-1.216.08V9.6h1.12v3.744c0 .427.045.813.136 1.16.09.347.235.645.432.896.197.25.453.445.768.584.315.139.701.208 1.16.208zm9.808 1.568v-1.648c.8-.15 1.413-.483 1.84-1 .427-.517.64-1.16.64-1.928 0-.533-.107-.979-.32-1.336a3.128 3.128 0 00-.808-.904 5.948 5.948 0 00-1.048-.632 21.242 21.242 0 01-1.048-.528 3.61 3.61 0 01-.808-.576 1.059 1.059 0 01-.32-.792c0-.416.123-.733.368-.952.245-.219.587-.328 1.024-.328.384 0 .715.072.992.216.277.144.565.355.864.632l.944-1.072a5.227 5.227 0 00-1-.808c-.368-.23-.808-.376-1.32-.44v-1.6h-1.28v1.632c-.725.128-1.301.44-1.728.936-.427.496-.64 1.117-.64 1.864 0 .501.107.92.32 1.256.213.336.483.624.808.864.325.24.675.448 1.048.624s.723.36 1.048.552c.325.192.595.405.808.64.213.235.32.528.32.88 0 .437-.128.776-.384 1.016s-.645.36-1.168.36a2.85 2.85 0 01-1.232-.272 5.767 5.767 0 01-1.136-.72l-.832 1.248c.363.341.792.616 1.288.824a5.3 5.3 0 001.48.392v1.6h1.28zm7.84-1.568c.437 0 .85-.08 1.24-.24.39-.16.728-.384 1.016-.672.288-.288.517-.637.688-1.048.17-.41.256-.872.256-1.384 0-.533-.072-.997-.216-1.392a2.654 2.654 0 00-.608-.984 2.454 2.454 0 00-.944-.584 3.655 3.655 0 00-1.208-.192c-.373 0-.76.107-1.16.32-.4.213-.75.507-1.048.88.021-.704.099-1.296.232-1.776s.307-.867.52-1.16c.213-.293.461-.504.744-.632s.584-.192.904-.192c.31 0 .61.072.904.216.293.144.53.328.712.552l.992-1.12a4.17 4.17 0 00-1.128-.816c-.443-.224-.973-.336-1.592-.336-.523 0-1.024.107-1.504.32-.48.213-.904.544-1.272.992-.368.448-.664 1.024-.888 1.728-.224.704-.336 1.552-.336 2.544 0 .853.099 1.595.296 2.224.197.63.464 1.147.8 1.552s.728.707 1.176.904c.448.197.923.296 1.424.296zm-.032-1.408c-.501 0-.92-.203-1.256-.608-.336-.405-.552-1.061-.648-1.968.288-.427.592-.728.912-.904.32-.176.624-.264.912-.264.512 0 .907.15 1.184.448.277.299.416.752.416 1.36 0 .63-.147 1.11-.44 1.44-.293.33-.653.496-1.08.496zm6.048 1.408c.341 0 .624-.117.848-.352.224-.235.336-.533.336-.896s-.112-.661-.336-.896a1.123 1.123 0 00-.848-.352c-.341 0-.627.117-.856.352-.23.235-.344.533-.344.896s.115.661.344.896c.23.235.515.352.856.352zm9.504-.192v-1.504h-2V5.824h-1.376c-.32.192-.664.355-1.032.488a8.532 8.532 0 01-1.32.344v1.152h1.872v6.688h-2.272V16h6.128zm5.296.192c.437 0 .85-.08 1.24-.24.39-.16.728-.384 1.016-.672.288-.288.517-.637.688-1.048.17-.41.256-.872.256-1.384 0-.533-.072-.997-.216-1.392a2.654 2.654 0 00-.608-.984 2.454 2.454 0 00-.944-.584 3.655 3.655 0 00-1.208-.192c-.373 0-.76.107-1.16.32-.4.213-.75.507-1.048.88.021-.704.099-1.296.232-1.776s.307-.867.52-1.16c.213-.293.461-.504.744-.632s.584-.192.904-.192c.31 0 .61.072.904.216.293.144.53.328.712.552l.992-1.12a4.17 4.17 0 00-1.128-.816c-.443-.224-.973-.336-1.592-.336-.523 0-1.024.107-1.504.32-.48.213-.904.544-1.272.992-.368.448-.664 1.024-.888 1.728-.224.704-.336 1.552-.336 2.544 0 .853.099 1.595.296 2.224.197.63.464 1.147.8 1.552s.728.707 1.176.904c.448.197.923.296 1.424.296zm-.032-1.408c-.501 0-.92-.203-1.256-.608-.336-.405-.552-1.061-.648-1.968.288-.427.592-.728.912-.904.32-.176.624-.264.912-.264.512 0 .907.15 1.184.448.277.299.416.752.416 1.36 0 .63-.147 1.11-.44 1.44-.293.33-.653.496-1.08.496zM294.708 16V7.104h3.024V5.536h-7.904v1.568h3.024V16h1.856z" fill="#666" fill-rule="nonzero"/>
    <path d="M0 98V34h348v64" stroke="#D8D8D8" stroke-dasharray="3,3"/>
    <path d="M143.482 70v-7.032h2.376v-.84h-5.76v.84h2.376V70h1.008zm3.288 0l.756-2.4h2.868l.744 2.4h1.068l-2.664-7.872h-1.128L145.75 70h1.02zm3.372-3.204h-2.364l.372-1.2a44.773 44.773 0 00.78-2.652h.048c.128.456.256.902.384 1.338.128.436.264.874.408 1.314l.372 1.2zM153.526 70l1.14-2.124.3-.594c.104-.204.212-.426.324-.666h.048l.354.666c.108.204.214.402.318.594L157.162 70h1.104l-2.292-4.02 2.148-3.852h-1.056l-1.044 2.016c-.096.184-.186.362-.27.534l-.294.606h-.048c-.12-.232-.226-.434-.318-.606s-.19-.35-.294-.534l-1.068-2.016h-1.104l2.136 3.804L152.47 70h1.056zm9.396 0v-3.324h1.428L166.246 70h1.128l-2.004-3.432c.544-.136.976-.388 1.296-.756.32-.368.48-.86.48-1.476 0-.408-.068-.752-.204-1.032a1.795 1.795 0 00-.57-.684 2.358 2.358 0 00-.876-.378 5.087 5.087 0 00-1.11-.114h-2.46V70h.996zm1.32-4.14h-1.32v-2.928h1.32c.616 0 1.088.104 1.416.312.328.208.492.572.492 1.092 0 .512-.164.894-.492 1.146-.328.252-.8.378-1.416.378zM173.41 70v-.852h-3.66v-2.856h2.988v-.852h-2.988v-2.472h3.54v-.84h-4.536V70h4.656zm6.108 0v-.852h-3.444v-7.02h-.996V70h4.44zm2.388 0v-7.872h-.996V70h.996zm6.816 0v-.852h-3.66v-2.856h2.988v-.852h-2.988v-2.472h3.54v-.84h-4.536V70h4.656zm2.664 0v-3.528h3v-.84h-3v-2.664h3.54v-.84h-4.536V70h.996zm-36.444 16.32v-1.248c.624-.136 1.092-.41 1.404-.822.312-.412.468-.906.468-1.482 0-.384-.078-.706-.234-.966a2.407 2.407 0 00-.588-.666 4.017 4.017 0 00-.762-.468 27.83 27.83 0 01-.762-.372 3.05 3.05 0 01-.588-.378.613.613 0 01-.234-.486c0-.272.076-.468.228-.588.152-.12.372-.18.66-.18.256 0 .484.05.684.15.2.1.408.25.624.45l.888-1.008a3.72 3.72 0 00-.78-.636 2.642 2.642 0 00-1.008-.348V76.06h-1.164v1.236c-.568.112-1.014.362-1.338.75-.324.388-.486.878-.486 1.47 0 .36.078.664.234.912.156.248.352.464.588.648s.49.342.762.474c.272.132.526.264.762.396s.432.27.588.414c.156.144.234.32.234.528 0 .28-.078.488-.234.624-.156.136-.402.204-.738.204-.288 0-.57-.058-.846-.174a4.034 4.034 0 01-.87-.522l-.768 1.188c.28.256.614.462 1.002.618.388.156.758.254 1.11.294v1.2h1.164zm5.34-1.176c.4 0 .786-.082 1.158-.246.372-.164.7-.414.984-.75.284-.336.512-.764.684-1.284.172-.52.258-1.136.258-1.848 0-.672-.082-1.246-.246-1.722-.164-.476-.38-.866-.648-1.17a2.498 2.498 0 00-.924-.672 2.784 2.784 0 00-1.074-.216c-.344 0-.67.058-.978.174a2.28 2.28 0 00-.804.51c-.228.224-.41.494-.546.81a2.66 2.66 0 00-.204 1.062c0 .4.058.748.174 1.044.116.296.274.54.474.732.2.192.438.336.714.432.276.096.578.144.906.144.12 0 .248-.018.384-.054.136-.036.272-.088.408-.156.136-.068.268-.152.396-.252s.24-.214.336-.342a4.885 4.885 0 01-.15 1.122c-.084.3-.196.544-.336.732a1.21 1.21 0 01-.486.402 1.488 1.488 0 01-1.26-.042 1.692 1.692 0 01-.516-.378l-.936 1.056c.24.24.546.452.918.636s.81.276 1.314.276zm.276-4.248a1.07 1.07 0 01-.72-.246c-.192-.164-.288-.45-.288-.858 0-.432.096-.746.288-.942a.912.912 0 01.672-.294c.272 0 .518.114.738.342.22.228.37.642.45 1.242-.152.272-.33.466-.534.582a1.219 1.219 0 01-.606.174zm6.48 4.248c.408 0 .78-.086 1.116-.258.336-.172.622-.426.858-.762s.42-.752.552-1.248c.132-.496.198-1.068.198-1.716 0-.648-.066-1.216-.198-1.704s-.316-.898-.552-1.23a2.269 2.269 0 00-.858-.744 2.51 2.51 0 00-1.116-.246c-.408 0-.78.082-1.116.246a2.269 2.269 0 00-.858.744c-.236.332-.42.742-.552 1.23-.132.488-.198 1.056-.198 1.704 0 .648.066 1.22.198 1.716s.316.912.552 1.248c.236.336.522.59.858.762.336.172.708.258 1.116.258zm0-1.368a.786.786 0 01-.408-.114c-.128-.076-.24-.214-.336-.414a3.059 3.059 0 01-.228-.804 8.053 8.053 0 01-.084-1.284c0-.52.028-.946.084-1.278.056-.332.132-.592.228-.78.096-.188.208-.318.336-.39a.842.842 0 01.828 0c.128.072.24.202.336.39.096.188.17.448.222.78.052.332.078.758.078 1.278s-.026.948-.078 1.284a2.931 2.931 0 01-.222.804c-.096.2-.208.338-.336.414a.808.808 0 01-.42.114zM176.014 85v-1.488h-1.536c-.184 0-.394.01-.63.03-.236.02-.45.042-.642.066.312-.32.614-.646.906-.978.292-.332.552-.664.78-.996.228-.332.41-.664.546-.996a2.63 2.63 0 00.024-1.974 2.144 2.144 0 00-.516-.762 2.352 2.352 0 00-.798-.492 2.891 2.891 0 00-1.026-.174c-.544 0-1.012.102-1.404.306-.392.204-.776.506-1.152.906l.96.948c.192-.208.396-.39.612-.546.216-.156.464-.234.744-.234.336 0 .6.098.792.294.192.196.288.482.288.858 0 .272-.082.558-.246.858-.164.3-.392.624-.684.972-.292.348-.64.72-1.044 1.116-.404.396-.85.822-1.338 1.278V85h5.364zm4.356 0c.424 0 .82-.046 1.188-.138.368-.092.69-.232.966-.42.276-.188.492-.426.648-.714.156-.288.234-.632.234-1.032 0-.264-.036-.498-.108-.702a1.696 1.696 0 00-.744-.912 1.972 1.972 0 00-.552-.222v-.048c.16-.056.302-.144.426-.264.124-.12.23-.256.318-.408a2.058 2.058 0 00.276-1.02c0-.376-.074-.688-.222-.936a1.693 1.693 0 00-.612-.6 2.702 2.702 0 00-.912-.318 6.685 6.685 0 00-1.134-.09h-2.676V85h2.904zm-.312-4.692h-.828v-1.764h.84c.416 0 .724.064.924.192.2.128.3.344.3.648a.84.84 0 01-.294.672c-.196.168-.51.252-.942.252zm.168 3.324h-.996v-2.016h.996c.488 0 .852.074 1.092.222.24.148.36.394.36.738 0 .704-.484 1.056-1.452 1.056zM245.106 56v-3.12h1.296c.432 0 .826-.05 1.182-.15.356-.1.662-.25.918-.45s.454-.452.594-.756c.14-.304.21-.664.21-1.08 0-.432-.072-.796-.216-1.092a1.838 1.838 0 00-.6-.714 2.55 2.55 0 00-.93-.39 5.626 5.626 0 00-1.206-.12h-2.244V56h.996zm1.176-3.936h-1.176v-3.132h1.128c.688 0 1.206.11 1.554.33.348.22.522.614.522 1.182 0 .56-.166.97-.498 1.23-.332.26-.842.39-1.53.39zm7.524 4.08c.496 0 .95-.096 1.362-.288a3.09 3.09 0 001.068-.822c.3-.356.532-.788.696-1.296a5.551 5.551 0 00.246-1.71c0-.624-.082-1.186-.246-1.686a3.677 3.677 0 00-.696-1.272 3.088 3.088 0 00-1.068-.804 3.242 3.242 0 00-1.362-.282c-.496 0-.95.092-1.362.276-.412.184-.766.45-1.062.798a3.733 3.733 0 00-.69 1.272 5.437 5.437 0 00-.246 1.698c0 .632.082 1.202.246 1.71.164.508.394.94.69 1.296.296.356.65.63 1.062.822.412.192.866.288 1.362.288zm0-.876a1.99 1.99 0 01-.954-.228 2.144 2.144 0 01-.732-.654 3.247 3.247 0 01-.474-1.02 4.917 4.917 0 01-.168-1.338c0-.488.056-.928.168-1.32.112-.392.27-.724.474-.996.204-.272.448-.482.732-.63.284-.148.602-.222.954-.222s.67.074.954.222c.284.148.528.358.732.63.204.272.362.604.474.996.112.392.168.832.168 1.32 0 .496-.056.942-.168 1.338-.112.396-.27.736-.474 1.02a2.144 2.144 0 01-.732.654 1.99 1.99 0 01-.954.228zm7.416.732v-7.032h2.376v-.84h-5.76v.84h2.376V56h1.008zm8.448 0v-.852h-3.66v-2.856h2.988v-.852h-2.988v-2.472h3.54v-.84h-4.536V56h4.656zm2.616 0v-4.116c0-.416-.014-.83-.042-1.242a102.02 102.02 0 00-.09-1.218h.048l.852 1.62L275.91 56h1.032v-7.872h-.948v4.068c0 .416.014.838.042 1.266.028.428.054.842.078 1.242h-.048l-.852-1.632-2.844-4.944h-1.032V56h.948zm9.456 0v-7.032h2.376v-.84h-5.76v.84h2.376V56h1.008zm4.788 0v-7.872h-.996V56h.996zm2.136 0l.756-2.4h2.868l.744 2.4h1.068l-2.664-7.872h-1.128L287.646 56h1.02zm3.372-3.204h-2.364l.372-1.2a44.773 44.773 0 00.78-2.652h.048c.128.456.256.902.384 1.338.128.436.264.874.408 1.314l.372 1.2zm7.62 3.204v-.852h-3.444v-7.02h-.996V56h4.44zM257.07 71.144c.512 0 .964-.1 1.356-.3a3.5 3.5 0 001.056-.84l-.552-.624a3.14 3.14 0 01-.816.654 2.084 2.084 0 01-1.008.234c-.376 0-.714-.076-1.014-.228a2.152 2.152 0 01-.762-.648 3.186 3.186 0 01-.486-1.014 4.757 4.757 0 01-.174-1.338c0-.488.058-.928.174-1.32.116-.392.282-.726.498-1.002a2.21 2.21 0 01.78-.636 2.3 2.3 0 011.02-.222c.336 0 .636.068.9.204.264.136.5.316.708.54l.54-.648a3.307 3.307 0 00-.894-.678c-.364-.196-.786-.294-1.266-.294-.504 0-.968.094-1.392.282a3.186 3.186 0 00-1.104.81c-.312.352-.556.78-.732 1.284a5.148 5.148 0 00-.264 1.704c0 .64.086 1.214.258 1.722.172.508.412.936.72 1.284s.67.614 1.086.798c.416.184.872.276 1.368.276zm4.872-.144v-3.324h1.428L265.266 71h1.128l-2.004-3.432c.544-.136.976-.388 1.296-.756.32-.368.48-.86.48-1.476 0-.408-.068-.752-.204-1.032a1.795 1.795 0 00-.57-.684 2.358 2.358 0 00-.876-.378 5.087 5.087 0 00-1.11-.114h-2.46V71h.996zm1.32-4.14h-1.32v-2.928h1.32c.616 0 1.088.104 1.416.312.328.208.492.572.492 1.092 0 .512-.164.894-.492 1.146-.328.252-.8.378-1.416.378zM272.43 71v-.852h-3.66v-2.856h2.988v-.852h-2.988v-2.472h3.54v-.84h-4.536V71h4.656zm3.684 0c.592 0 1.116-.09 1.572-.27.456-.18.84-.44 1.152-.78.312-.34.548-.756.708-1.248.16-.492.24-1.05.24-1.674 0-1.256-.316-2.22-.948-2.892-.632-.672-1.556-1.008-2.772-1.008h-1.968V71h2.016zm-.12-.816h-.9v-6.24h.9c.92 0 1.61.264 2.07.792.46.528.69 1.292.69 2.292 0 1-.23 1.776-.69 2.328-.46.552-1.15.828-2.07.828zm6.48.816v-7.872h-.996V71h.996zm4.8 0v-7.032h2.376v-.84h-5.76v.84h2.376V71h1.008zm-29.838 16.32v-1.248c.624-.136 1.092-.41 1.404-.822.312-.412.468-.906.468-1.482 0-.384-.078-.706-.234-.966a2.407 2.407 0 00-.588-.666 4.017 4.017 0 00-.762-.468 27.83 27.83 0 01-.762-.372 3.05 3.05 0 01-.588-.378.613.613 0 01-.234-.486c0-.272.076-.468.228-.588.152-.12.372-.18.66-.18.256 0 .484.05.684.15.2.1.408.25.624.45l.888-1.008a3.72 3.72 0 00-.78-.636 2.642 2.642 0 00-1.008-.348V77.06h-1.164v1.236c-.568.112-1.014.362-1.338.75-.324.388-.486.878-.486 1.47 0 .36.078.664.234.912.156.248.352.464.588.648s.49.342.762.474c.272.132.526.264.762.396s.432.27.588.414c.156.144.234.32.234.528 0 .28-.078.488-.234.624-.156.136-.402.204-.738.204-.288 0-.57-.058-.846-.174a4.034 4.034 0 01-.87-.522l-.768 1.188c.28.256.614.462 1.002.618.388.156.758.254 1.11.294v1.2h1.164zm5.556-1.176c.368 0 .722-.06 1.062-.18.34-.12.638-.294.894-.522a2.52 2.52 0 00.612-.834c.152-.328.228-.704.228-1.128 0-.408-.064-.76-.192-1.056a1.983 1.983 0 00-.528-.732 2.26 2.26 0 00-.774-.432 2.959 2.959 0 00-.93-.144c-.16 0-.306.014-.438.042-.132.028-.27.074-.414.138l.132-1.428h2.796V78.38h-4.32l-.216 3.852.792.504a3.97 3.97 0 01.306-.18 2.49 2.49 0 01.264-.12c.084-.032.17-.054.258-.066a2.24 2.24 0 01.3-.018c.36 0 .65.1.87.3.22.2.33.492.33.876 0 .392-.116.688-.348.888-.232.2-.544.3-.936.3-.328 0-.626-.074-.894-.222a4.064 4.064 0 01-.75-.534l-.792 1.116c.304.304.672.558 1.104.762.432.204.96.306 1.584.306zm5.172 0c.304 0 .558-.106.762-.318a1.09 1.09 0 00.306-.786c0-.32-.102-.586-.306-.798a1.014 1.014 0 00-.762-.318c-.304 0-.558.106-.762.318a1.105 1.105 0 00-.306.798c0 .312.102.574.306.786.204.212.458.318.762.318zm7.608-.144v-1.488h-1.536c-.184 0-.394.01-.63.03-.236.02-.45.042-.642.066.312-.32.614-.646.906-.978.292-.332.552-.664.78-.996.228-.332.41-.664.546-.996a2.63 2.63 0 00.024-1.974 2.144 2.144 0 00-.516-.762 2.352 2.352 0 00-.798-.492 2.891 2.891 0 00-1.026-.174c-.544 0-1.012.102-1.404.306-.392.204-.776.506-1.152.906l.96.948c.192-.208.396-.39.612-.546.216-.156.464-.234.744-.234.336 0 .6.098.792.294.192.196.288.482.288.858 0 .272-.082.558-.246.858-.164.3-.392.624-.684.972-.292.348-.64.72-1.044 1.116-.404.396-.85.822-1.338 1.278V86h5.364zm3.492.144c.368 0 .722-.06 1.062-.18.34-.12.638-.294.894-.522a2.52 2.52 0 00.612-.834c.152-.328.228-.704.228-1.128 0-.408-.064-.76-.192-1.056a1.983 1.983 0 00-.528-.732 2.26 2.26 0 00-.774-.432 2.959 2.959 0 00-.93-.144c-.16 0-.306.014-.438.042-.132.028-.27.074-.414.138l.132-1.428h2.796V78.38h-4.32l-.216 3.852.792.504a3.97 3.97 0 01.306-.18 2.49 2.49 0 01.264-.12c.084-.032.17-.054.258-.066a2.24 2.24 0 01.3-.018c.36 0 .65.1.87.3.22.2.33.492.33.876 0 .392-.116.688-.348.888-.232.2-.544.3-.936.3-.328 0-.626-.074-.894-.222a4.064 4.064 0 01-.75-.534l-.792 1.116c.304.304.672.558 1.104.762.432.204.96.306 1.584.306zM286.86 86v-6.336h2.148v-1.488h-6.072v1.488h2.148V86h1.776z" fill="#666" fill-rule="nonzero"/>
    <path stroke="#979797" stroke-width=".5" d="M0 102v-9h141v9"/>
    <use stroke="#979797" mask="url(#c)" stroke-width="2" fill="#D8D8D8" opacity=".776" stroke-linecap="round" stroke-linejoin="round" stroke-dasharray="4,3" transform="rotate(90 168 122.5)" xlink:href="#a"/>
    <use stroke="#4A1D7A" mask="url(#d)" stroke-width="2" fill-opacity=".203" fill="#4A1D7A" stroke-linecap="round" stroke-linejoin="round" stroke-dasharray="4,3" transform="rotate(90 271 122)" xlink:href="#b"/>
    <g fill="#6F41A7">
      <path d="M114 102h27v40h-27zM3 102h110v40H3zM1 102h1v40H1zM0 102h1v40H0z"/>
    </g>
    <path stroke="#D8D8D8" stroke-linecap="round" stroke-linejoin="round" stroke-dasharray="3,3" d="M173.5 32.5v-12"/>
    <path stroke="#979797" stroke-width=".5" stroke-linecap="square" d="M70.5 93v-8M167.5 100v-8M271.5 101v-8"/>
  </g>
</svg>