<?xml version="1.0" encoding="UTF-8"?>
<svg width="333px" height="131px" viewBox="0 0 333 131" version="1.1" xmlns="http://www.w3.org/2000/svg" xmlns:xlink="http://www.w3.org/1999/xlink">
    <title>Viz-1-C-Mobile</title>
    <g id="SVG-2.0" stroke="none" stroke-width="1" fill="none" fill-rule="evenodd">
        <g id="Mobile-Outline" transform="translate(-15.000000, -600.000000)">
            <g id="Viz-1-C-Mobile" transform="translate(16.000000, 600.000000)">
                <path d="M49.96,12 L49.96,2.624 L53.128,2.624 L53.128,1.504 L45.448,1.504 L45.448,2.624 L48.616,2.624 L48.616,12 L49.96,12 Z M56.856,12.192 C57.336,12.192 57.792,12.1013333 58.224,11.92 C58.656,11.7386667 59.0373333,11.4746667 59.368,11.128 C59.6986667,10.7813333 59.9626667,10.3546667 60.16,9.848 C60.3573333,9.34133333 60.456,8.768 60.456,8.128 C60.456,7.47733333 60.3573333,6.89866667 60.16,6.392 C59.9626667,5.88533333 59.6986667,5.456 59.368,5.104 C59.0373333,4.752 58.656,4.48533333 58.224,4.304 C57.792,4.12266667 57.336,4.032 56.856,4.032 C56.376,4.032 55.92,4.12266667 55.488,4.304 C55.056,4.48533333 54.6746667,4.752 54.344,5.104 C54.0133333,5.456 53.7493333,5.88533333 53.552,6.392 C53.3546667,6.89866667 53.256,7.47733333 53.256,8.128 C53.256,8.768 53.3546667,9.34133333 53.552,9.848 C53.7493333,10.3546667 54.0133333,10.7813333 54.344,11.128 C54.6746667,11.4746667 55.056,11.7386667 55.488,11.92 C55.92,12.1013333 56.376,12.192 56.856,12.192 Z M56.856,11.104 C56.5253333,11.104 56.2213333,11.032 55.944,10.888 C55.6666667,10.744 55.4293333,10.5413333 55.232,10.28 C55.0346667,10.0186667 54.8826667,9.70666667 54.776,9.344 C54.6693333,8.98133333 54.616,8.576 54.616,8.128 C54.616,7.68 54.6693333,7.272 54.776,6.904 C54.8826667,6.536 55.0346667,6.21866667 55.232,5.952 C55.4293333,5.68533333 55.6666667,5.48 55.944,5.336 C56.2213333,5.192 56.5253333,5.12 56.856,5.12 C57.1866667,5.12 57.4906667,5.192 57.768,5.336 C58.0453333,5.48 58.2826667,5.68533333 58.48,5.952 C58.6773333,6.21866667 58.8293333,6.536 58.936,6.904 C59.0426667,7.272 59.096,7.68 59.096,8.128 C59.096,8.576 59.0426667,8.98133333 58.936,9.344 C58.8293333,9.70666667 58.6773333,10.0186667 58.48,10.28 C58.2826667,10.5413333 58.0453333,10.744 57.768,10.888 C57.4906667,11.032 57.1866667,11.104 56.856,11.104 Z M64.68,12.192 C64.9253333,12.192 65.1733333,12.1626667 65.424,12.104 C65.6746667,12.0453333 65.9066667,11.9786667 66.12,11.904 L66.12,11.904 L65.864,10.912 C65.736,10.9653333 65.592,11.0133333 65.432,11.056 C65.272,11.0986667 65.1226667,11.12 64.984,11.12 C64.536,11.12 64.224,10.9893333 64.048,10.728 C63.872,10.4666667 63.784,10.096 63.784,9.616 L63.784,9.616 L63.784,5.296 L65.88,5.296 L65.88,4.224 L63.784,4.224 L63.784,2.048 L62.68,2.048 L62.52,4.224 L61.304,4.304 L61.304,5.296 L62.456,5.296 L62.456,9.6 C62.456,9.984 62.4933333,10.336 62.568,10.656 C62.6426667,10.976 62.768,11.248 62.944,11.472 C63.12,11.696 63.3493333,11.872 63.632,12 C63.9146667,12.128 64.264,12.192 64.68,12.192 Z M69.096,12.192 C69.5866667,12.192 70.0453333,12.0826667 70.472,11.864 C70.8986667,11.6453333 71.2986667,11.3813333 71.672,11.072 L71.672,11.072 L71.72,11.072 L71.832,12 L72.92,12 L72.92,7.232 C72.92,6.26133333 72.7066667,5.48533333 72.28,4.904 C71.8533333,4.32266667 71.1653333,4.032 70.216,4.032 C69.5866667,4.032 69.0106667,4.14133333 68.488,4.36 C67.9653333,4.57866667 67.5226667,4.80533333 67.16,5.04 L67.16,5.04 L67.672,5.952 C67.9813333,5.73866667 68.3333333,5.54666667 68.728,5.376 C69.1226667,5.20533333 69.544,5.12 69.992,5.12 C70.312,5.12 70.576,5.176 70.784,5.288 C70.992,5.4 71.1546667,5.54666667 71.272,5.728 C71.3893333,5.90933333 71.472,6.11733333 71.52,6.352 C71.568,6.58666667 71.592,6.82666667 71.592,7.072 C69.928,7.25333333 68.7173333,7.57066667 67.96,8.024 C67.2026667,8.47733333 66.824,9.13066667 66.824,9.984 C66.824,10.688 67.04,11.232 67.472,11.616 C67.904,12 68.4453333,12.192 69.096,12.192 Z M69.48,11.136 C69.096,11.136 68.7706667,11.04 68.504,10.848 C68.2373333,10.656 68.104,10.336 68.104,9.888 C68.104,9.64266667 68.1653333,9.416 68.288,9.208 C68.4106667,9 68.608,8.816 68.88,8.656 C69.152,8.496 69.5093333,8.35733333 69.952,8.24 C70.3946667,8.12266667 70.9413333,8.02133333 71.592,7.936 L71.592,7.936 L71.592,10.096 C71.2186667,10.4373333 70.8666667,10.696 70.536,10.872 C70.2053333,11.048 69.8533333,11.136 69.48,11.136 Z M76.76,12.192 C76.9413333,12.192 77.0906667,12.1813333 77.208,12.16 C77.3253333,12.1386667 77.4266667,12.1066667 77.512,12.064 L77.512,12.064 L77.336,11.072 C77.2613333,11.0933333 77.2053333,11.104 77.168,11.104 L77.168,11.104 L77.048,11.104 C76.952,11.104 76.8666667,11.0613333 76.792,10.976 C76.7173333,10.8906667 76.68,10.7413333 76.68,10.528 L76.68,10.528 L76.68,0.608 L75.368,0.608 L75.368,10.432 C75.368,11.008 75.4746667,11.4453333 75.688,11.744 C75.9013333,12.0426667 76.2586667,12.192 76.76,12.192 Z M88.984,12 L88.984,10.864 L84.104,10.864 L84.104,7.056 L88.088,7.056 L88.088,5.92 L84.104,5.92 L84.104,2.624 L88.824,2.624 L88.824,1.504 L82.776,1.504 L82.776,12 L88.984,12 Z M93.112,12.192 C93.5706667,12.192 93.9786667,12.1306667 94.336,12.008 C94.6933333,11.8853333 94.992,11.7173333 95.232,11.504 C95.472,11.2906667 95.6533333,11.0453333 95.776,10.768 C95.8986667,10.4906667 95.96,10.192 95.96,9.872 C95.96,9.50933333 95.888,9.2 95.744,8.944 C95.6,8.688 95.416,8.472 95.192,8.296 C94.968,8.12 94.7146667,7.97333333 94.432,7.856 C94.1493333,7.73866667 93.8693333,7.62666667 93.592,7.52 C93.368,7.43466667 93.152,7.352 92.944,7.272 C92.736,7.192 92.552,7.10133333 92.392,7 C92.232,6.89866667 92.104,6.78133333 92.008,6.648 C91.912,6.51466667 91.864,6.35733333 91.864,6.176 C91.864,5.87733333 91.9786667,5.616 92.208,5.392 C92.4373333,5.168 92.7973333,5.056 93.288,5.056 C93.6293333,5.056 93.944,5.12 94.232,5.248 C94.52,5.376 94.7973333,5.54133333 95.064,5.744 L95.064,5.744 L95.688,4.912 C95.3893333,4.66666667 95.0346667,4.45866667 94.624,4.288 C94.2133333,4.11733333 93.7626667,4.032 93.272,4.032 C92.856,4.032 92.4826667,4.088 92.152,4.2 C91.8213333,4.312 91.5413333,4.46666667 91.312,4.664 C91.0826667,4.86133333 90.9066667,5.096 90.784,5.368 C90.6613333,5.64 90.6,5.93066667 90.6,6.24 C90.6,6.57066667 90.6693333,6.85333333 90.808,7.088 C90.9466667,7.32266667 91.1253333,7.528 91.344,7.704 C91.5626667,7.88 91.8106667,8.02933333 92.088,8.152 C92.3653333,8.27466667 92.6426667,8.384 92.92,8.48 L92.92,8.48 L93.56,8.736 C93.7733333,8.82133333 93.9626667,8.92 94.128,9.032 C94.2933333,9.144 94.4293333,9.27466667 94.536,9.424 C94.6426667,9.57333333 94.696,9.74933333 94.696,9.952 C94.696,10.2933333 94.568,10.5813333 94.312,10.816 C94.056,11.0506667 93.672,11.168 93.16,11.168 C92.6906667,11.168 92.2773333,11.0826667 91.92,10.912 C91.5626667,10.7413333 91.2133333,10.5173333 90.872,10.24 L90.872,10.24 L90.216,11.12 C90.5893333,11.4293333 91.0266667,11.6853333 91.528,11.888 C92.0293333,12.0906667 92.5573333,12.192 93.112,12.192 Z M99.912,12.192 C100.157333,12.192 100.405333,12.1626667 100.656,12.104 C100.906667,12.0453333 101.138667,11.9786667 101.352,11.904 L101.352,11.904 L101.096,10.912 C100.968,10.9653333 100.824,11.0133333 100.664,11.056 C100.504,11.0986667 100.354667,11.12 100.216,11.12 C99.768,11.12 99.456,10.9893333 99.28,10.728 C99.104,10.4666667 99.016,10.096 99.016,9.616 L99.016,9.616 L99.016,5.296 L101.112,5.296 L101.112,4.224 L99.016,4.224 L99.016,2.048 L97.912,2.048 L97.752,4.224 L96.536,4.304 L96.536,5.296 L97.688,5.296 L97.688,9.6 C97.688,9.984 97.7253333,10.336 97.8,10.656 C97.8746667,10.976 98,11.248 98.176,11.472 C98.352,11.696 98.5813333,11.872 98.864,12 C99.1466667,12.128 99.496,12.192 99.912,12.192 Z M103.544,2.624 C103.8,2.624 104.016,2.544 104.192,2.384 C104.368,2.224 104.456,2.02133333 104.456,1.776 C104.456,1.52 104.368,1.31466667 104.192,1.16 C104.016,1.00533333 103.8,0.928 103.544,0.928 C103.288,0.928 103.072,1.00533333 102.896,1.16 C102.72,1.31466667 102.632,1.52 102.632,1.776 C102.632,2.02133333 102.72,2.224 102.896,2.384 C103.072,2.544 103.288,2.624 103.544,2.624 Z M104.184,12 L104.184,4.224 L102.872,4.224 L102.872,12 L104.184,12 Z M108.12,12 L108.12,6.368 C108.834667,5.568 109.485333,5.168 110.072,5.168 C110.573333,5.168 110.941333,5.33066667 111.176,5.656 C111.410667,5.98133333 111.528,6.512 111.528,7.248 L111.528,7.248 L111.528,12 L112.84,12 L112.84,6.368 C113.554667,5.568 114.205333,5.168 114.792,5.168 C115.282667,5.168 115.645333,5.33066667 115.88,5.656 C116.114667,5.98133333 116.232,6.512 116.232,7.248 L116.232,7.248 L116.232,12 L117.544,12 L117.544,7.072 C117.544,6.06933333 117.349333,5.312 116.96,4.8 C116.570667,4.288 115.976,4.032 115.176,4.032 C114.696,4.032 114.250667,4.168 113.84,4.44 C113.429333,4.712 113.021333,5.072 112.616,5.52 C112.456,5.05066667 112.208,4.68533333 111.872,4.424 C111.536,4.16266667 111.069333,4.032 110.472,4.032 C110.002667,4.032 109.568,4.15733333 109.168,4.408 C108.768,4.65866667 108.397333,4.97066667 108.056,5.344 L108.056,5.344 L108.008,5.344 L107.896,4.224 L106.808,4.224 L106.808,12 L108.12,12 Z M121.864,12.192 C122.354667,12.192 122.813333,12.0826667 123.24,11.864 C123.666667,11.6453333 124.066667,11.3813333 124.44,11.072 L124.44,11.072 L124.488,11.072 L124.6,12 L125.688,12 L125.688,7.232 C125.688,6.26133333 125.474667,5.48533333 125.048,4.904 C124.621333,4.32266667 123.933333,4.032 122.984,4.032 C122.354667,4.032 121.778667,4.14133333 121.256,4.36 C120.733333,4.57866667 120.290667,4.80533333 119.928,5.04 L119.928,5.04 L120.44,5.952 C120.749333,5.73866667 121.101333,5.54666667 121.496,5.376 C121.890667,5.20533333 122.312,5.12 122.76,5.12 C123.08,5.12 123.344,5.176 123.552,5.288 C123.76,5.4 123.922667,5.54666667 124.04,5.728 C124.157333,5.90933333 124.24,6.11733333 124.288,6.352 C124.336,6.58666667 124.36,6.82666667 124.36,7.072 C122.696,7.25333333 121.485333,7.57066667 120.728,8.024 C119.970667,8.47733333 119.592,9.13066667 119.592,9.984 C119.592,10.688 119.808,11.232 120.24,11.616 C120.672,12 121.213333,12.192 121.864,12.192 Z M122.248,11.136 C121.864,11.136 121.538667,11.04 121.272,10.848 C121.005333,10.656 120.872,10.336 120.872,9.888 C120.872,9.64266667 120.933333,9.416 121.056,9.208 C121.178667,9 121.376,8.816 121.648,8.656 C121.92,8.496 122.277333,8.35733333 122.72,8.24 C123.162667,8.12266667 123.709333,8.02133333 124.36,7.936 L124.36,7.936 L124.36,10.096 C123.986667,10.4373333 123.634667,10.696 123.304,10.872 C122.973333,11.048 122.621333,11.136 122.248,11.136 Z M130.36,12.192 C130.605333,12.192 130.853333,12.1626667 131.104,12.104 C131.354667,12.0453333 131.586667,11.9786667 131.8,11.904 L131.8,11.904 L131.544,10.912 C131.416,10.9653333 131.272,11.0133333 131.112,11.056 C130.952,11.0986667 130.802667,11.12 130.664,11.12 C130.216,11.12 129.904,10.9893333 129.728,10.728 C129.552,10.4666667 129.464,10.096 129.464,9.616 L129.464,9.616 L129.464,5.296 L131.56,5.296 L131.56,4.224 L129.464,4.224 L129.464,2.048 L128.36,2.048 L128.2,4.224 L126.984,4.304 L126.984,5.296 L128.136,5.296 L128.136,9.6 C128.136,9.984 128.173333,10.336 128.248,10.656 C128.322667,10.976 128.448,11.248 128.624,11.472 C128.8,11.696 129.029333,11.872 129.312,12 C129.594667,12.128 129.944,12.192 130.36,12.192 Z M136.248,12.192 C136.781333,12.192 137.256,12.112 137.672,11.952 C138.088,11.792 138.466667,11.6053333 138.808,11.392 L138.808,11.392 L138.344,10.528 C138.056,10.7093333 137.754667,10.856 137.44,10.968 C137.125333,11.08 136.781333,11.136 136.408,11.136 C135.661333,11.136 135.056,10.8933333 134.592,10.408 C134.128,9.92266667 133.869333,9.264 133.816,8.432 L133.816,8.432 L139.064,8.432 C139.085333,8.336 139.098667,8.22133333 139.104,8.088 C139.109333,7.95466667 139.112,7.81866667 139.112,7.68 C139.112,7.12533333 139.042667,6.624 138.904,6.176 C138.765333,5.728 138.565333,5.344 138.304,5.024 C138.042667,4.704 137.717333,4.45866667 137.328,4.288 C136.938667,4.11733333 136.498667,4.032 136.008,4.032 C135.56,4.032 135.128,4.12533333 134.712,4.312 C134.296,4.49866667 133.925333,4.768 133.6,5.12 C133.274667,5.472 133.013333,5.90133333 132.816,6.408 C132.618667,6.91466667 132.52,7.488 132.52,8.128 C132.52,8.768 132.616,9.33866667 132.808,9.84 C133,10.3413333 133.264,10.7653333 133.6,11.112 C133.936,11.4586667 134.330667,11.7253333 134.784,11.912 C135.237333,12.0986667 135.725333,12.192 136.248,12.192 Z M137.96,7.488 L133.8,7.488 C133.842667,7.104 133.930667,6.76266667 134.064,6.464 C134.197333,6.16533333 134.365333,5.912 134.568,5.704 C134.770667,5.496 134.997333,5.33866667 135.248,5.232 C135.498667,5.12533333 135.762667,5.072 136.04,5.072 C136.648,5.072 137.12,5.27733333 137.456,5.688 C137.792,6.09866667 137.96,6.69866667 137.96,7.488 L137.96,7.488 Z M143.688,12.192 C144.146667,12.192 144.576,12.0826667 144.976,11.864 C145.376,11.6453333 145.730667,11.3866667 146.04,11.088 L146.04,11.088 L146.088,11.088 L146.2,12 L147.288,12 L147.288,0.608 L145.96,0.608 L145.96,3.6 L146.024,4.928 C145.682667,4.65066667 145.346667,4.432 145.016,4.272 C144.685333,4.112 144.296,4.032 143.848,4.032 C143.4,4.032 142.973333,4.128 142.568,4.32 C142.162667,4.512 141.805333,4.784 141.496,5.136 C141.186667,5.488 140.938667,5.91733333 140.752,6.424 C140.565333,6.93066667 140.472,7.49866667 140.472,8.128 C140.472,9.42933333 140.762667,10.432 141.344,11.136 C141.925333,11.84 142.706667,12.192 143.688,12.192 Z M143.976,11.088 C143.293333,11.088 142.765333,10.8266667 142.392,10.304 C142.018667,9.78133333 141.832,9.05066667 141.832,8.112 C141.832,7.664 141.890667,7.25866667 142.008,6.896 C142.125333,6.53333333 142.285333,6.22133333 142.488,5.96 C142.690667,5.69866667 142.928,5.496 143.2,5.352 C143.472,5.208 143.762667,5.136 144.072,5.136 C144.392,5.136 144.704,5.19733333 145.008,5.32 C145.312,5.44266667 145.629333,5.65333333 145.96,5.952 L145.96,5.952 L145.96,10.016 C145.64,10.3786667 145.32,10.648 145,10.824 C144.68,11 144.338667,11.088 143.976,11.088 Z M159.16,12 L159.16,10.864 L154.568,10.864 L154.568,1.504 L153.24,1.504 L153.24,12 L159.16,12 Z M163.848,12.192 C164.381333,12.192 164.856,12.112 165.272,11.952 C165.688,11.792 166.066667,11.6053333 166.408,11.392 L166.408,11.392 L165.944,10.528 C165.656,10.7093333 165.354667,10.856 165.04,10.968 C164.725333,11.08 164.381333,11.136 164.008,11.136 C163.261333,11.136 162.656,10.8933333 162.192,10.408 C161.728,9.92266667 161.469333,9.264 161.416,8.432 L161.416,8.432 L166.664,8.432 C166.685333,8.336 166.698667,8.22133333 166.704,8.088 C166.709333,7.95466667 166.712,7.81866667 166.712,7.68 C166.712,7.12533333 166.642667,6.624 166.504,6.176 C166.365333,5.728 166.165333,5.344 165.904,5.024 C165.642667,4.704 165.317333,4.45866667 164.928,4.288 C164.538667,4.11733333 164.098667,4.032 163.608,4.032 C163.16,4.032 162.728,4.12533333 162.312,4.312 C161.896,4.49866667 161.525333,4.768 161.2,5.12 C160.874667,5.472 160.613333,5.90133333 160.416,6.408 C160.218667,6.91466667 160.12,7.488 160.12,8.128 C160.12,8.768 160.216,9.33866667 160.408,9.84 C160.6,10.3413333 160.864,10.7653333 161.2,11.112 C161.536,11.4586667 161.930667,11.7253333 162.384,11.912 C162.837333,12.0986667 163.325333,12.192 163.848,12.192 Z M165.56,7.488 L161.4,7.488 C161.442667,7.104 161.530667,6.76266667 161.664,6.464 C161.797333,6.16533333 161.965333,5.912 162.168,5.704 C162.370667,5.496 162.597333,5.33866667 162.848,5.232 C163.098667,5.12533333 163.362667,5.072 163.64,5.072 C164.248,5.072 164.72,5.27733333 165.056,5.688 C165.392,6.09866667 165.56,6.69866667 165.56,7.488 L165.56,7.488 Z M169.944,12 L169.944,6.368 C170.338667,5.97333333 170.690667,5.67466667 171,5.472 C171.309333,5.26933333 171.666667,5.168 172.072,5.168 C172.584,5.168 172.957333,5.33066667 173.192,5.656 C173.426667,5.98133333 173.544,6.512 173.544,7.248 L173.544,7.248 L173.544,12 L174.856,12 L174.856,7.072 C174.856,6.06933333 174.666667,5.312 174.288,4.8 C173.909333,4.288 173.309333,4.032 172.488,4.032 C171.944,4.032 171.466667,4.15733333 171.056,4.408 C170.645333,4.65866667 170.253333,4.97066667 169.88,5.344 L169.88,5.344 L169.832,5.344 L169.72,4.224 L168.632,4.224 L168.632,12 L169.944,12 Z M180.04,12.192 C180.498667,12.192 180.928,12.0826667 181.328,11.864 C181.728,11.6453333 182.082667,11.3866667 182.392,11.088 L182.392,11.088 L182.44,11.088 L182.552,12 L183.64,12 L183.64,0.608 L182.312,0.608 L182.312,3.6 L182.376,4.928 C182.034667,4.65066667 181.698667,4.432 181.368,4.272 C181.037333,4.112 180.648,4.032 180.2,4.032 C179.752,4.032 179.325333,4.128 178.92,4.32 C178.514667,4.512 178.157333,4.784 177.848,5.136 C177.538667,5.488 177.290667,5.91733333 177.104,6.424 C176.917333,6.93066667 176.824,7.49866667 176.824,8.128 C176.824,9.42933333 177.114667,10.432 177.696,11.136 C178.277333,11.84 179.058667,12.192 180.04,12.192 Z M180.328,11.088 C179.645333,11.088 179.117333,10.8266667 178.744,10.304 C178.370667,9.78133333 178.184,9.05066667 178.184,8.112 C178.184,7.664 178.242667,7.25866667 178.36,6.896 C178.477333,6.53333333 178.637333,6.22133333 178.84,5.96 C179.042667,5.69866667 179.28,5.496 179.552,5.352 C179.824,5.208 180.114667,5.136 180.424,5.136 C180.744,5.136 181.056,5.19733333 181.36,5.32 C181.664,5.44266667 181.981333,5.65333333 182.312,5.952 L182.312,5.952 L182.312,10.016 C181.992,10.3786667 181.672,10.648 181.352,10.824 C181.032,11 180.690667,11.088 180.328,11.088 Z M186.936,2.624 C187.192,2.624 187.408,2.544 187.584,2.384 C187.76,2.224 187.848,2.02133333 187.848,1.776 C187.848,1.52 187.76,1.31466667 187.584,1.16 C187.408,1.00533333 187.192,0.928 186.936,0.928 C186.68,0.928 186.464,1.00533333 186.288,1.16 C186.112,1.31466667 186.024,1.52 186.024,1.776 C186.024,2.02133333 186.112,2.224 186.288,2.384 C186.464,2.544 186.68,2.624 186.936,2.624 Z M187.576,12 L187.576,4.224 L186.264,4.224 L186.264,12 L187.576,12 Z M191.512,12 L191.512,6.368 C191.906667,5.97333333 192.258667,5.67466667 192.568,5.472 C192.877333,5.26933333 193.234667,5.168 193.64,5.168 C194.152,5.168 194.525333,5.33066667 194.76,5.656 C194.994667,5.98133333 195.112,6.512 195.112,7.248 L195.112,7.248 L195.112,12 L196.424,12 L196.424,7.072 C196.424,6.06933333 196.234667,5.312 195.856,4.8 C195.477333,4.288 194.877333,4.032 194.056,4.032 C193.512,4.032 193.034667,4.15733333 192.624,4.408 C192.213333,4.65866667 191.821333,4.97066667 191.448,5.344 L191.448,5.344 L191.4,5.344 L191.288,4.224 L190.2,4.224 L190.2,12 L191.512,12 Z M201.576,15.584 C202.184,15.584 202.730667,15.512 203.216,15.368 C203.701333,15.224 204.114667,15.0293333 204.456,14.784 C204.797333,14.5386667 205.058667,14.2533333 205.24,13.928 C205.421333,13.6026667 205.512,13.2586667 205.512,12.896 C205.512,12.2453333 205.285333,11.7733333 204.832,11.48 C204.378667,11.1866667 203.698667,11.04 202.792,11.04 L202.792,11.04 L201.288,11.04 C200.754667,11.04 200.392,10.96 200.2,10.8 C200.008,10.64 199.912,10.4373333 199.912,10.192 C199.912,9.97866667 199.96,9.8 200.056,9.656 C200.152,9.512 200.269333,9.38133333 200.408,9.264 C200.589333,9.34933333 200.781333,9.416 200.984,9.464 C201.186667,9.512 201.384,9.536 201.576,9.536 C201.970667,9.536 202.341333,9.472 202.688,9.344 C203.034667,9.216 203.336,9.03733333 203.592,8.808 C203.848,8.57866667 204.050667,8.296 204.2,7.96 C204.349333,7.624 204.424,7.248 204.424,6.832 C204.424,6.50133333 204.362667,6.19733333 204.24,5.92 C204.117333,5.64266667 203.965333,5.41333333 203.784,5.232 L203.784,5.232 L205.384,5.232 L205.384,4.224 L202.68,4.224 C202.530667,4.17066667 202.362667,4.12533333 202.176,4.088 C201.989333,4.05066667 201.789333,4.032 201.576,4.032 C201.181333,4.032 200.805333,4.096 200.448,4.224 C200.090667,4.352 199.778667,4.536 199.512,4.776 C199.245333,5.016 199.034667,5.30666667 198.88,5.648 C198.725333,5.98933333 198.648,6.37333333 198.648,6.8 C198.648,7.26933333 198.752,7.68266667 198.96,8.04 C199.168,8.39733333 199.4,8.68266667 199.656,8.896 L199.656,8.896 L199.656,8.96 C199.453333,9.09866667 199.261333,9.29066667 199.08,9.536 C198.898667,9.78133333 198.808,10.0693333 198.808,10.4 C198.808,10.7093333 198.874667,10.968 199.008,11.176 C199.141333,11.384 199.304,11.5466667 199.496,11.664 L199.496,11.664 L199.496,11.728 C199.144,11.9733333 198.866667,12.2453333 198.664,12.544 C198.461333,12.8426667 198.36,13.1573333 198.36,13.488 C198.36,13.8293333 198.437333,14.128 198.592,14.384 C198.746667,14.64 198.965333,14.8586667 199.248,15.04 C199.530667,15.2213333 199.869333,15.3573333 200.264,15.448 C200.658667,15.5386667 201.096,15.584 201.576,15.584 Z M201.576,8.656 C201.352,8.656 201.141333,8.61333333 200.944,8.528 C200.746667,8.44266667 200.570667,8.32 200.416,8.16 C200.261333,8 200.141333,7.80533333 200.056,7.576 C199.970667,7.34666667 199.928,7.088 199.928,6.8 C199.928,6.224 200.088,5.77866667 200.408,5.464 C200.728,5.14933333 201.117333,4.992 201.576,4.992 C202.034667,4.992 202.424,5.14933333 202.744,5.464 C203.064,5.77866667 203.224,6.224 203.224,6.8 C203.224,7.088 203.181333,7.34666667 203.096,7.576 C203.010667,7.80533333 202.890667,8 202.736,8.16 C202.581333,8.32 202.405333,8.44266667 202.208,8.528 C202.010667,8.61333333 201.8,8.656 201.576,8.656 Z M201.768,14.672 C201.064,14.672 200.512,14.5493333 200.112,14.304 C199.712,14.0586667 199.512,13.728 199.512,13.312 C199.512,13.088 199.576,12.864 199.704,12.64 C199.832,12.416 200.034667,12.2026667 200.312,12 C200.482667,12.0533333 200.656,12.088 200.832,12.104 C201.008,12.12 201.170667,12.128 201.32,12.128 L201.32,12.128 L202.664,12.128 C203.176,12.128 203.565333,12.1973333 203.832,12.336 C204.098667,12.4746667 204.232,12.7253333 204.232,13.088 C204.232,13.2906667 204.173333,13.488 204.056,13.68 C203.938667,13.872 203.773333,14.04 203.56,14.184 C203.346667,14.328 203.088,14.4453333 202.784,14.536 C202.48,14.6266667 202.141333,14.672 201.768,14.672 Z M213.416,13.76 L213.416,12.144 C214.184,12.0373333 214.789333,11.7386667 215.232,11.248 C215.674667,10.7573333 215.896,10.128 215.896,9.36 C215.896,8.784 215.786667,8.312 215.568,7.944 C215.349333,7.576 215.074667,7.26666667 214.744,7.016 C214.413333,6.76533333 214.053333,6.552 213.664,6.376 C213.274667,6.2 212.914667,6.01866667 212.584,5.832 C212.253333,5.64533333 211.978667,5.42933333 211.76,5.184 C211.541333,4.93866667 211.432,4.624 211.432,4.24 C211.432,3.77066667 211.576,3.39733333 211.864,3.12 C212.152,2.84266667 212.541333,2.704 213.032,2.704 C213.469333,2.704 213.829333,2.784 214.112,2.944 C214.394667,3.104 214.685333,3.328 214.984,3.616 L214.984,3.616 L215.688,2.832 C215.4,2.52266667 215.077333,2.256 214.72,2.032 C214.362667,1.808 213.928,1.66933333 213.416,1.616 L213.416,1.616 L213.416,0.032 L212.456,0.032 L212.456,1.648 C211.752,1.75466667 211.189333,2.04533333 210.768,2.52 C210.346667,2.99466667 210.136,3.58933333 210.136,4.304 C210.136,4.82666667 210.245333,5.256 210.464,5.592 C210.682667,5.928 210.957333,6.21333333 211.288,6.448 C211.618667,6.68266667 211.978667,6.89066667 212.368,7.072 C212.757333,7.25333333 213.117333,7.448 213.448,7.656 C213.778667,7.864 214.053333,8.10933333 214.272,8.392 C214.490667,8.67466667 214.6,9.02933333 214.6,9.456 C214.6,9.95733333 214.453333,10.3573333 214.16,10.656 C213.866667,10.9546667 213.421333,11.104 212.824,11.104 C212.333333,11.104 211.882667,11 211.472,10.792 C211.061333,10.584 210.685333,10.3306667 210.344,10.032 L210.344,10.032 L209.736,10.944 C210.077333,11.2533333 210.488,11.5226667 210.968,11.752 C211.448,11.9813333 211.944,12.1226667 212.456,12.176 L212.456,12.176 L212.456,13.76 L213.416,13.76 Z M220.632,12.192 C221.101333,12.192 221.538667,12.1253333 221.944,11.992 C222.349333,11.8586667 222.704,11.6666667 223.008,11.416 C223.312,11.1653333 223.552,10.8586667 223.728,10.496 C223.904,10.1333333 223.992,9.728 223.992,9.28 C223.992,8.928 223.936,8.608 223.824,8.32 C223.712,8.032 223.554667,7.77866667 223.352,7.56 C223.149333,7.34133333 222.914667,7.16 222.648,7.016 C222.381333,6.872 222.093333,6.76266667 221.784,6.688 L221.784,6.688 L221.784,6.624 C222.338667,6.41066667 222.786667,6.10666667 223.128,5.712 C223.469333,5.31733333 223.64,4.81066667 223.64,4.192 C223.64,3.776 223.565333,3.408 223.416,3.088 C223.266667,2.768 223.056,2.49866667 222.784,2.28 C222.512,2.06133333 222.189333,1.89333333 221.816,1.776 C221.442667,1.65866667 221.032,1.6 220.584,1.6 C219.976,1.6 219.434667,1.72 218.96,1.96 C218.485333,2.2 218.050667,2.50666667 217.656,2.88 L217.656,2.88 L218.36,3.712 C218.669333,3.40266667 219.002667,3.152 219.36,2.96 C219.717333,2.768 220.109333,2.672 220.536,2.672 C221.08,2.672 221.509333,2.816 221.824,3.104 C222.138667,3.392 222.296,3.78666667 222.296,4.288 C222.296,4.55466667 222.248,4.80533333 222.152,5.04 C222.056,5.27466667 221.893333,5.47733333 221.664,5.648 C221.434667,5.81866667 221.136,5.952 220.768,6.048 C220.4,6.144 219.944,6.192 219.4,6.192 L219.4,6.192 L219.4,7.2 C220.008,7.2 220.52,7.248 220.936,7.344 C221.352,7.44 221.688,7.57866667 221.944,7.76 C222.2,7.94133333 222.384,8.15733333 222.496,8.408 C222.608,8.65866667 222.664,8.93333333 222.664,9.232 C222.664,9.808 222.466667,10.264 222.072,10.6 C221.677333,10.936 221.170667,11.104 220.552,11.104 C219.944,11.104 219.434667,10.9813333 219.024,10.736 C218.613333,10.4906667 218.253333,10.208 217.944,9.888 L217.944,9.888 L217.272,10.752 C217.442667,10.944 217.637333,11.1253333 217.856,11.296 C218.074667,11.4666667 218.322667,11.6186667 218.6,11.752 C218.877333,11.8853333 219.184,11.992 219.52,12.072 C219.856,12.152 220.226667,12.192 220.632,12.192 Z M226.808,12.192 C227.064,12.192 227.285333,12.0986667 227.472,11.912 C227.658667,11.7253333 227.752,11.488 227.752,11.2 C227.752,10.8906667 227.658667,10.6426667 227.472,10.456 C227.285333,10.2693333 227.064,10.176 226.808,10.176 C226.541333,10.176 226.314667,10.2693333 226.128,10.456 C225.941333,10.6426667 225.848,10.8906667 225.848,11.2 C225.848,11.488 225.941333,11.7253333 226.128,11.912 C226.314667,12.0986667 226.541333,12.192 226.808,12.192 Z M232.072,12.192 C232.584,12.192 233.072,12.088 233.536,11.88 C234,11.672 234.413333,11.3413333 234.776,10.888 C235.138667,10.4346667 235.426667,9.848 235.64,9.128 C235.853333,8.408 235.96,7.536 235.96,6.512 C235.96,5.69066667 235.872,4.97333333 235.696,4.36 C235.52,3.74666667 235.274667,3.23466667 234.96,2.824 C234.645333,2.41333333 234.272,2.10666667 233.84,1.904 C233.408,1.70133333 232.941333,1.6 232.44,1.6 C232.034667,1.6 231.648,1.68 231.28,1.84 C230.912,2 230.592,2.224 230.32,2.512 C230.048,2.8 229.832,3.144 229.672,3.544 C229.512,3.944 229.432,4.38933333 229.432,4.88 C229.432,5.936 229.693333,6.72533333 230.216,7.248 C230.738667,7.77066667 231.442667,8.032 232.328,8.032 C232.754667,8.032 233.181333,7.91466667 233.608,7.68 C234.034667,7.44533333 234.408,7.12533333 234.728,6.72 C234.717333,7.54133333 234.637333,8.22933333 234.488,8.784 C234.338667,9.33866667 234.141333,9.78933333 233.896,10.136 C233.650667,10.4826667 233.368,10.7306667 233.048,10.88 C232.728,11.0293333 232.386667,11.104 232.024,11.104 C231.704,11.104 231.397333,11.0293333 231.104,10.88 C230.810667,10.7306667 230.557333,10.5333333 230.344,10.288 L230.344,10.288 L229.608,11.12 C229.885333,11.4293333 230.229333,11.6853333 230.64,11.888 C231.050667,12.0906667 231.528,12.192 232.072,12.192 Z M232.552,7.04 C231.912,7.04 231.437333,6.848 231.128,6.464 C230.818667,6.08 230.664,5.552 230.664,4.88 C230.664,4.54933333 230.709333,4.24533333 230.8,3.968 C230.890667,3.69066667 231.016,3.45333333 231.176,3.256 C231.336,3.05866667 231.525333,2.90666667 231.744,2.8 C231.962667,2.69333333 232.194667,2.64 232.44,2.64 C233.090667,2.64 233.608,2.896 233.992,3.408 C234.376,3.92 234.610667,4.67733333 234.696,5.68 C234.365333,6.16 234.010667,6.50666667 233.632,6.72 C233.253333,6.93333333 232.893333,7.04 232.552,7.04 Z M243.976,12 L243.976,10.864 L241.016,10.864 C240.749333,10.864 240.466667,10.8746667 240.168,10.896 C239.869333,10.9173333 239.581333,10.9386667 239.304,10.96 C239.912,10.3306667 240.469333,9.736 240.976,9.176 C241.482667,8.616 241.92,8.07733333 242.288,7.56 C242.656,7.04266667 242.944,6.54133333 243.152,6.056 C243.36,5.57066667 243.464,5.088 243.464,4.608 C243.464,3.70133333 243.192,2.97333333 242.648,2.424 C242.104,1.87466667 241.357333,1.6 240.408,1.6 C239.736,1.6 239.16,1.74133333 238.68,2.024 C238.2,2.30666667 237.746667,2.68266667 237.32,3.152 L237.32,3.152 L238.072,3.904 C238.370667,3.56266667 238.701333,3.272 239.064,3.032 C239.426667,2.792 239.821333,2.672 240.248,2.672 C240.898667,2.672 241.384,2.85866667 241.704,3.232 C242.024,3.60533333 242.184,4.08533333 242.184,4.672 C242.184,5.088 242.077333,5.51733333 241.864,5.96 C241.650667,6.40266667 241.341333,6.888 240.936,7.416 C240.530667,7.944 240.029333,8.51733333 239.432,9.136 C238.834667,9.75466667 238.152,10.448 237.384,11.216 L237.384,11.216 L237.384,12 L243.976,12 Z M249.656,12 L249.656,2.624 L252.824,2.624 L252.824,1.504 L245.144,1.504 L245.144,2.624 L248.312,2.624 L248.312,12 L249.656,12 Z" id="TotalEstimatedLending$3.92T" fill="#555555" fill-rule="nonzero"></path>
                <path d="M12.632,49.144 C13.032,49.144 13.404,49.086 13.748,48.97 C14.092,48.854 14.39,48.662 14.642,48.394 C14.894,48.126 15.092,47.776 15.236,47.344 C15.38,46.912 15.452,46.38 15.452,45.748 L15.452,45.748 L15.452,41.128 L14.492,41.128 L14.492,45.772 C14.492,46.244 14.444,46.64 14.348,46.96 C14.252,47.28 14.12,47.536 13.952,47.728 C13.784,47.92 13.588,48.058 13.364,48.142 C13.14,48.226 12.896,48.268 12.632,48.268 C12.376,48.268 12.136,48.226 11.912,48.142 C11.688,48.058 11.494,47.92 11.33,47.728 C11.166,47.536 11.036,47.28 10.94,46.96 C10.844,46.64 10.796,46.244 10.796,45.772 L10.796,45.772 L10.796,41.128 L9.8,41.128 L9.8,45.748 C9.8,46.38 9.872,46.912 10.016,47.344 C10.16,47.776 10.358,48.126 10.61,48.394 C10.862,48.662 11.162,48.854 11.51,48.97 C11.858,49.086 12.232,49.144 12.632,49.144 Z M20.216,49 L20.216,41.968 L22.592,41.968 L22.592,41.128 L16.832,41.128 L16.832,41.968 L19.208,41.968 L19.208,49 L20.216,49 Z M25.004,49 L25.004,41.128 L24.008,41.128 L24.008,49 L25.004,49 Z M31.604,49 L31.604,48.148 L28.16,48.148 L28.16,41.128 L27.164,41.128 L27.164,49 L31.604,49 Z M33.992,49 L33.992,41.128 L32.996,41.128 L32.996,49 L33.992,49 Z M41.036,49 L41.036,48.148 L36.848,48.148 L41,41.716 L41,41.128 L35.984,41.128 L35.984,41.968 L39.752,41.968 L35.612,48.4 L35.612,49 L41.036,49 Z M47.276,49 L47.276,48.148 L43.616,48.148 L43.616,45.292 L46.604,45.292 L46.604,44.44 L43.616,44.44 L43.616,41.968 L47.156,41.968 L47.156,41.128 L42.62,41.128 L42.62,49 L47.276,49 Z M50.96,49 C51.552,49 52.076,48.91 52.532,48.73 C52.988,48.55 53.372,48.29 53.684,47.95 C53.996,47.61 54.232,47.194 54.392,46.702 C54.552,46.21 54.632,45.652 54.632,45.028 C54.632,43.772 54.316,42.808 53.684,42.136 C53.052,41.464 52.128,41.128 50.912,41.128 L50.912,41.128 L48.944,41.128 L48.944,49 L50.96,49 Z M50.84,48.184 L49.94,48.184 L49.94,41.944 L50.84,41.944 C51.76,41.944 52.45,42.208 52.91,42.736 C53.37,43.264 53.6,44.028 53.6,45.028 C53.6,46.028 53.37,46.804 52.91,47.356 C52.45,47.908 51.76,48.184 50.84,48.184 L50.84,48.184 Z M14.708,64 L14.708,63.148 L11.264,63.148 L11.264,56.128 L10.268,56.128 L10.268,64 L14.708,64 Z M20.756,64 L20.756,63.148 L17.096,63.148 L17.096,60.292 L20.084,60.292 L20.084,59.44 L17.096,59.44 L17.096,56.968 L20.636,56.968 L20.636,56.128 L16.1,56.128 L16.1,64 L20.756,64 Z M23.372,64 L23.372,59.884 C23.372,59.468 23.358,59.054 23.33,58.642 C23.302,58.23 23.272,57.824 23.24,57.424 L23.24,57.424 L23.288,57.424 L24.14,59.044 L26.996,64 L28.028,64 L28.028,56.128 L27.08,56.128 L27.08,60.196 C27.08,60.612 27.094,61.034 27.122,61.462 C27.15,61.89 27.176,62.304 27.2,62.704 L27.2,62.704 L27.152,62.704 L26.3,61.072 L23.456,56.128 L22.424,56.128 L22.424,64 L23.372,64 Z M32.204,64 C32.796,64 33.32,63.91 33.776,63.73 C34.232,63.55 34.616,63.29 34.928,62.95 C35.24,62.61 35.476,62.194 35.636,61.702 C35.796,61.21 35.876,60.652 35.876,60.028 C35.876,58.772 35.56,57.808 34.928,57.136 C34.296,56.464 33.372,56.128 32.156,56.128 L32.156,56.128 L30.188,56.128 L30.188,64 L32.204,64 Z M32.084,63.184 L31.184,63.184 L31.184,56.944 L32.084,56.944 C33.004,56.944 33.694,57.208 34.154,57.736 C34.614,58.264 34.844,59.028 34.844,60.028 C34.844,61.028 34.614,61.804 34.154,62.356 C33.694,62.908 33.004,63.184 32.084,63.184 L32.084,63.184 Z M38.564,64 L38.564,56.128 L37.568,56.128 L37.568,64 L38.564,64 Z M41.672,64 L41.672,59.884 C41.672,59.468 41.658,59.054 41.63,58.642 C41.602,58.23 41.572,57.824 41.54,57.424 L41.54,57.424 L41.588,57.424 L42.44,59.044 L45.296,64 L46.328,64 L46.328,56.128 L45.38,56.128 L45.38,60.196 C45.38,60.612 45.394,61.034 45.422,61.462 C45.45,61.89 45.476,62.304 45.5,62.704 L45.5,62.704 L45.452,62.704 L44.6,61.072 L41.756,56.128 L40.724,56.128 L40.724,64 L41.672,64 Z M51.584,64.144 C52.112,64.144 52.584,64.058 53,63.886 C53.416,63.714 53.752,63.496 54.008,63.232 L54.008,63.232 L54.008,59.92 L51.428,59.92 L51.428,60.748 L53.096,60.748 L53.096,62.8 C52.936,62.944 52.73,63.058 52.478,63.142 C52.226,63.226 51.96,63.268 51.68,63.268 C51.256,63.268 50.882,63.192 50.558,63.04 C50.234,62.888 49.962,62.672 49.742,62.392 C49.522,62.112 49.354,61.774 49.238,61.378 C49.122,60.982 49.064,60.536 49.064,60.04 C49.064,59.552 49.126,59.112 49.25,58.72 C49.374,58.328 49.548,57.994 49.772,57.718 C49.996,57.442 50.268,57.23 50.588,57.082 C50.908,56.934 51.268,56.86 51.668,56.86 C52.068,56.86 52.4,56.932 52.664,57.076 C52.928,57.22 53.16,57.396 53.36,57.604 L53.36,57.604 L53.912,56.956 C53.8,56.836 53.67,56.718 53.522,56.602 C53.374,56.486 53.206,56.382 53.018,56.29 C52.83,56.198 52.622,56.124 52.394,56.068 C52.166,56.012 51.916,55.984 51.644,55.984 C51.124,55.984 50.642,56.078 50.198,56.266 C49.754,56.454 49.372,56.724 49.052,57.076 C48.732,57.428 48.482,57.856 48.302,58.36 C48.122,58.864 48.032,59.432 48.032,60.064 C48.032,60.704 48.12,61.278 48.296,61.786 C48.472,62.294 48.716,62.722 49.028,63.07 C49.34,63.418 49.714,63.684 50.15,63.868 C50.586,64.052 51.064,64.144 51.584,64.144 Z M19.442,80.32 L19.442,79.072 C20.066,78.936 20.534,78.662 20.846,78.25 C21.158,77.838 21.314,77.344 21.314,76.768 C21.314,76.384 21.236,76.062 21.08,75.802 C20.924,75.542 20.728,75.32 20.492,75.136 C20.256,74.952 20.002,74.796 19.73,74.668 C19.458,74.54 19.204,74.416 18.968,74.296 C18.732,74.176 18.536,74.05 18.38,73.918 C18.224,73.786 18.146,73.624 18.146,73.432 C18.146,73.16 18.222,72.964 18.374,72.844 C18.526,72.724 18.746,72.664 19.034,72.664 C19.29,72.664 19.518,72.714 19.718,72.814 C19.918,72.914 20.126,73.064 20.342,73.264 L20.342,73.264 L21.23,72.256 C20.998,72.008 20.738,71.796 20.45,71.62 C20.162,71.444 19.826,71.328 19.442,71.272 L19.442,71.272 L19.442,70.06 L18.278,70.06 L18.278,71.296 C17.71,71.408 17.264,71.658 16.94,72.046 C16.616,72.434 16.454,72.924 16.454,73.516 C16.454,73.876 16.532,74.18 16.688,74.428 C16.844,74.676 17.04,74.892 17.276,75.076 C17.512,75.26 17.766,75.418 18.038,75.55 C18.31,75.682 18.564,75.814 18.8,75.946 C19.036,76.078 19.232,76.216 19.388,76.36 C19.544,76.504 19.622,76.68 19.622,76.888 C19.622,77.168 19.544,77.376 19.388,77.512 C19.232,77.648 18.986,77.716 18.65,77.716 C18.362,77.716 18.08,77.658 17.804,77.542 C17.528,77.426 17.238,77.252 16.934,77.02 L16.934,77.02 L16.166,78.208 C16.446,78.464 16.78,78.67 17.168,78.826 C17.556,78.982 17.926,79.08 18.278,79.12 L18.278,79.12 L18.278,80.32 L19.442,80.32 Z M25.19,79.144 C25.598,79.144 25.968,79.09 26.3,78.982 C26.632,78.874 26.916,78.726 27.152,78.538 C27.388,78.35 27.57,78.128 27.698,77.872 C27.826,77.616 27.89,77.336 27.89,77.032 C27.89,76.528 27.762,76.12 27.506,75.808 C27.25,75.496 26.938,75.24 26.57,75.04 L26.57,75.04 L26.57,74.992 C26.834,74.816 27.066,74.586 27.266,74.302 C27.466,74.018 27.566,73.692 27.566,73.324 C27.566,73.012 27.51,72.726 27.398,72.466 C27.286,72.206 27.13,71.986 26.93,71.806 C26.73,71.626 26.486,71.486 26.198,71.386 C25.91,71.286 25.594,71.236 25.25,71.236 C24.898,71.236 24.572,71.284 24.272,71.38 C23.972,71.476 23.714,71.616 23.498,71.8 C23.282,71.984 23.114,72.206 22.994,72.466 C22.874,72.726 22.814,73.016 22.814,73.336 C22.814,73.744 22.91,74.09 23.102,74.374 C23.294,74.658 23.538,74.912 23.834,75.136 L23.834,75.136 L23.834,75.184 C23.474,75.376 23.168,75.62 22.916,75.916 C22.664,76.212 22.538,76.592 22.538,77.056 C22.538,77.368 22.604,77.652 22.736,77.908 C22.868,78.164 23.052,78.384 23.288,78.568 C23.524,78.752 23.804,78.894 24.128,78.994 C24.452,79.094 24.806,79.144 25.19,79.144 Z M25.67,74.56 C25.278,74.408 24.962,74.244 24.722,74.068 C24.482,73.892 24.362,73.648 24.362,73.336 C24.362,73.04 24.446,72.82 24.614,72.676 C24.782,72.532 24.982,72.46 25.214,72.46 C25.502,72.46 25.728,72.55 25.892,72.73 C26.056,72.91 26.138,73.148 26.138,73.444 C26.138,73.828 25.982,74.2 25.67,74.56 Z M25.226,77.92 C24.906,77.92 24.63,77.826 24.398,77.638 C24.166,77.45 24.05,77.188 24.05,76.852 C24.05,76.62 24.106,76.4 24.218,76.192 C24.33,75.984 24.47,75.8 24.638,75.64 C24.878,75.744 25.096,75.84 25.292,75.928 C25.488,76.016 25.658,76.11 25.802,76.21 C25.946,76.31 26.056,76.42 26.132,76.54 C26.208,76.66 26.246,76.804 26.246,76.972 C26.246,77.292 26.15,77.53 25.958,77.686 C25.766,77.842 25.522,77.92 25.226,77.92 Z M31.286,79.144 C31.67,79.144 32.034,79.094 32.378,78.994 C32.722,78.894 33.022,78.75 33.278,78.562 C33.534,78.374 33.738,78.142 33.89,77.866 C34.042,77.59 34.118,77.276 34.118,76.924 C34.118,76.428 33.976,76.026 33.692,75.718 C33.408,75.41 33.046,75.192 32.606,75.064 L32.606,75.064 L32.606,75.016 C33.014,74.84 33.328,74.614 33.548,74.338 C33.768,74.062 33.878,73.724 33.878,73.324 C33.878,72.988 33.814,72.692 33.686,72.436 C33.558,72.18 33.38,71.962 33.152,71.782 C32.924,71.602 32.648,71.466 32.324,71.374 C32,71.282 31.642,71.236 31.25,71.236 C30.778,71.236 30.348,71.322 29.96,71.494 C29.572,71.666 29.202,71.904 28.85,72.208 L28.85,72.208 L29.738,73.288 C29.978,73.08 30.208,72.916 30.428,72.796 C30.648,72.676 30.894,72.616 31.166,72.616 C31.47,72.616 31.702,72.69 31.862,72.838 C32.022,72.986 32.102,73.192 32.102,73.456 C32.102,73.608 32.072,73.746 32.012,73.87 C31.952,73.994 31.852,74.102 31.712,74.194 C31.572,74.286 31.388,74.356 31.16,74.404 C30.932,74.452 30.646,74.476 30.302,74.476 L30.302,74.476 L30.302,75.724 C30.718,75.724 31.058,75.75 31.322,75.802 C31.586,75.854 31.794,75.926 31.946,76.018 C32.098,76.11 32.204,76.224 32.264,76.36 C32.324,76.496 32.354,76.648 32.354,76.816 C32.354,77.104 32.242,77.326 32.018,77.482 C31.794,77.638 31.494,77.716 31.118,77.716 C30.79,77.716 30.488,77.644 30.212,77.5 C29.936,77.356 29.682,77.172 29.45,76.948 L29.45,76.948 L28.634,78.064 C28.914,78.392 29.27,78.654 29.702,78.85 C30.134,79.046 30.662,79.144 31.286,79.144 Z M37.622,79.144 C38.006,79.144 38.37,79.094 38.714,78.994 C39.058,78.894 39.358,78.75 39.614,78.562 C39.87,78.374 40.074,78.142 40.226,77.866 C40.378,77.59 40.454,77.276 40.454,76.924 C40.454,76.428 40.312,76.026 40.028,75.718 C39.744,75.41 39.382,75.192 38.942,75.064 L38.942,75.064 L38.942,75.016 C39.35,74.84 39.664,74.614 39.884,74.338 C40.104,74.062 40.214,73.724 40.214,73.324 C40.214,72.988 40.15,72.692 40.022,72.436 C39.894,72.18 39.716,71.962 39.488,71.782 C39.26,71.602 38.984,71.466 38.66,71.374 C38.336,71.282 37.978,71.236 37.586,71.236 C37.114,71.236 36.684,71.322 36.296,71.494 C35.908,71.666 35.538,71.904 35.186,72.208 L35.186,72.208 L36.074,73.288 C36.314,73.08 36.544,72.916 36.764,72.796 C36.984,72.676 37.23,72.616 37.502,72.616 C37.806,72.616 38.038,72.69 38.198,72.838 C38.358,72.986 38.438,73.192 38.438,73.456 C38.438,73.608 38.408,73.746 38.348,73.87 C38.288,73.994 38.188,74.102 38.048,74.194 C37.908,74.286 37.724,74.356 37.496,74.404 C37.268,74.452 36.982,74.476 36.638,74.476 L36.638,74.476 L36.638,75.724 C37.054,75.724 37.394,75.75 37.658,75.802 C37.922,75.854 38.13,75.926 38.282,76.018 C38.434,76.11 38.54,76.224 38.6,76.36 C38.66,76.496 38.69,76.648 38.69,76.816 C38.69,77.104 38.578,77.326 38.354,77.482 C38.13,77.638 37.83,77.716 37.454,77.716 C37.126,77.716 36.824,77.644 36.548,77.5 C36.272,77.356 36.018,77.172 35.786,76.948 L35.786,76.948 L34.97,78.064 C35.25,78.392 35.606,78.654 36.038,78.85 C36.47,79.046 36.998,79.144 37.622,79.144 Z M44.87,79 C45.294,79 45.69,78.954 46.058,78.862 C46.426,78.77 46.748,78.63 47.024,78.442 C47.3,78.254 47.516,78.016 47.672,77.728 C47.828,77.44 47.906,77.096 47.906,76.696 C47.906,76.432 47.87,76.198 47.798,75.994 C47.726,75.79 47.626,75.612 47.498,75.46 C47.37,75.308 47.222,75.182 47.054,75.082 C46.886,74.982 46.702,74.908 46.502,74.86 L46.502,74.86 L46.502,74.812 C46.662,74.756 46.804,74.668 46.928,74.548 C47.052,74.428 47.158,74.292 47.246,74.14 C47.334,73.988 47.402,73.824 47.45,73.648 C47.498,73.472 47.522,73.296 47.522,73.12 C47.522,72.744 47.448,72.432 47.3,72.184 C47.152,71.936 46.948,71.736 46.688,71.584 C46.428,71.432 46.124,71.326 45.776,71.266 C45.428,71.206 45.05,71.176 44.642,71.176 L44.642,71.176 L41.966,71.176 L41.966,79 L44.87,79 Z M44.558,74.308 L43.73,74.308 L43.73,72.544 L44.57,72.544 C44.986,72.544 45.294,72.608 45.494,72.736 C45.694,72.864 45.794,73.08 45.794,73.384 C45.794,73.664 45.696,73.888 45.5,74.056 C45.304,74.224 44.99,74.308 44.558,74.308 L44.558,74.308 Z M44.726,77.632 L43.73,77.632 L43.73,75.616 L44.726,75.616 C45.214,75.616 45.578,75.69 45.818,75.838 C46.058,75.986 46.178,76.232 46.178,76.576 C46.178,77.28 45.694,77.632 44.726,77.632 L44.726,77.632 Z" id="UTILIZEDLENDING$833B" fill="#666666" fill-rule="nonzero"></path>
                <path d="M0,91 L0,34 L331,34 L331,91" id="Path-21-Copy-4" stroke="#D8D8D8" stroke-dasharray="3,3"></path>
                <path d="M172.724,49 L173.48,46.6 L176.348,46.6 L177.092,49 L178.16,49 L175.496,41.128 L174.368,41.128 L171.704,49 L172.724,49 Z M176.096,45.796 L173.732,45.796 L174.104,44.596 C174.248,44.156 174.384,43.718 174.512,43.282 C174.64,42.846 174.764,42.4 174.884,41.944 L174.884,41.944 L174.932,41.944 C175.06,42.4 175.188,42.846 175.316,43.282 C175.444,43.718 175.58,44.156 175.724,44.596 L175.724,44.596 L176.096,45.796 Z M181.712,49 L184.208,41.128 L183.188,41.128 L181.928,45.376 C181.792,45.848 181.668,46.284 181.556,46.684 L181.469,46.99 C181.379,47.302 181.28,47.632 181.172,47.98 L181.172,47.98 L181.124,47.98 C180.972,47.516 180.842,47.084 180.734,46.684 L180.649625,46.37725 C180.561875,46.06375 180.464,45.73 180.356,45.376 L180.356,45.376 L179.096,41.128 L178.028,41.128 L180.548,49 L181.712,49 Z M185.096,49 L185.852,46.6 L188.72,46.6 L189.464,49 L190.532,49 L187.868,41.128 L186.74,41.128 L184.076,49 L185.096,49 Z M188.468,45.796 L186.104,45.796 L186.476,44.596 C186.62,44.156 186.756,43.718 186.884,43.282 C187.012,42.846 187.136,42.4 187.256,41.944 L187.256,41.944 L187.304,41.944 C187.432,42.4 187.56,42.846 187.688,43.282 C187.816,43.718 187.952,44.156 188.096,44.596 L188.096,44.596 L188.468,45.796 Z M192.644,49 L192.644,41.128 L191.648,41.128 L191.648,49 L192.644,49 Z M199.244,49 L199.244,48.148 L195.8,48.148 L195.8,41.128 L194.804,41.128 L194.804,49 L199.244,49 Z M200.648,49 L201.404,46.6 L204.272,46.6 L205.016,49 L206.084,49 L203.42,41.128 L202.292,41.128 L199.628,49 L200.648,49 Z M204.02,45.796 L201.656,45.796 L202.028,44.596 C202.172,44.156 202.308,43.718 202.436,43.282 C202.564,42.846 202.688,42.4 202.808,41.944 L202.808,41.944 L202.856,41.944 C202.984,42.4 203.112,42.846 203.24,43.282 C203.368,43.718 203.504,44.156 203.648,44.596 L203.648,44.596 L204.02,45.796 Z M209.708,49 C210.148,49 210.552,48.952 210.92,48.856 C211.288,48.76 211.604,48.616 211.868,48.424 C212.132,48.232 212.336,47.992 212.48,47.704 C212.624,47.416 212.696,47.08 212.696,46.696 C212.696,46.152 212.548,45.724 212.252,45.412 C211.956,45.1 211.568,44.9 211.088,44.812 L211.088,44.812 L211.088,44.764 C211.464,44.644 211.75,44.426 211.946,44.11 C212.142,43.794 212.24,43.44 212.24,43.048 C212.24,42.704 212.174,42.41 212.042,42.166 C211.91,41.922 211.726,41.724 211.49,41.572 C211.254,41.42 210.97,41.308 210.638,41.236 C210.306,41.164 209.94,41.128 209.54,41.128 L209.54,41.128 L207.2,41.128 L207.2,49 L209.708,49 Z M209.36,44.476 L208.196,44.476 L208.196,41.92 L209.408,41.92 C210.024,41.92 210.486,42.016 210.794,42.208 C211.102,42.4 211.256,42.724 211.256,43.18 C211.256,43.58 211.108,43.896 210.812,44.128 C210.516,44.36 210.032,44.476 209.36,44.476 L209.36,44.476 Z M209.564,48.208 L208.196,48.208 L208.196,45.244 L209.564,45.244 C210.26,45.244 210.792,45.358 211.16,45.586 C211.528,45.814 211.712,46.172 211.712,46.66 C211.712,47.188 211.524,47.578 211.148,47.83 C210.772,48.082 210.244,48.208 209.564,48.208 L209.564,48.208 Z M218.696,49 L218.696,48.148 L215.252,48.148 L215.252,41.128 L214.256,41.128 L214.256,49 L218.696,49 Z M224.744,49 L224.744,48.148 L221.084,48.148 L221.084,45.292 L224.072,45.292 L224.072,44.44 L221.084,44.44 L221.084,41.968 L224.624,41.968 L224.624,41.128 L220.088,41.128 L220.088,49 L224.744,49 Z M181.208,64 L181.208,63.148 L177.764,63.148 L177.764,56.128 L176.768,56.128 L176.768,64 L181.208,64 Z M187.256,64 L187.256,63.148 L183.596,63.148 L183.596,60.292 L186.584,60.292 L186.584,59.44 L183.596,59.44 L183.596,56.968 L187.136,56.968 L187.136,56.128 L182.6,56.128 L182.6,64 L187.256,64 Z M189.872,64 L189.872,59.884 C189.872,59.468 189.858,59.054 189.83,58.642 C189.802,58.23 189.772,57.824 189.74,57.424 L189.74,57.424 L189.788,57.424 L190.64,59.044 L193.496,64 L194.528,64 L194.528,56.128 L193.58,56.128 L193.58,60.196 C193.58,60.612 193.594,61.034 193.622,61.462 C193.65,61.89 193.676,62.304 193.7,62.704 L193.7,62.704 L193.652,62.704 L192.8,61.072 L189.956,56.128 L188.924,56.128 L188.924,64 L189.872,64 Z M198.704,64 C199.296,64 199.82,63.91 200.276,63.73 C200.732,63.55 201.116,63.29 201.428,62.95 C201.74,62.61 201.976,62.194 202.136,61.702 C202.296,61.21 202.376,60.652 202.376,60.028 C202.376,58.772 202.06,57.808 201.428,57.136 C200.796,56.464 199.872,56.128 198.656,56.128 L198.656,56.128 L196.688,56.128 L196.688,64 L198.704,64 Z M198.584,63.184 L197.684,63.184 L197.684,56.944 L198.584,56.944 C199.504,56.944 200.194,57.208 200.654,57.736 C201.114,58.264 201.344,59.028 201.344,60.028 C201.344,61.028 201.114,61.804 200.654,62.356 C200.194,62.908 199.504,63.184 198.584,63.184 L198.584,63.184 Z M205.064,64 L205.064,56.128 L204.068,56.128 L204.068,64 L205.064,64 Z M208.172,64 L208.172,59.884 C208.172,59.468 208.158,59.054 208.13,58.642 C208.102,58.23 208.072,57.824 208.04,57.424 L208.04,57.424 L208.088,57.424 L208.94,59.044 L211.796,64 L212.828,64 L212.828,56.128 L211.88,56.128 L211.88,60.196 C211.88,60.612 211.894,61.034 211.922,61.462 C211.95,61.89 211.976,62.304 212,62.704 L212,62.704 L211.952,62.704 L211.1,61.072 L208.256,56.128 L207.224,56.128 L207.224,64 L208.172,64 Z M218.084,64.144 C218.612,64.144 219.084,64.058 219.5,63.886 C219.916,63.714 220.252,63.496 220.508,63.232 L220.508,63.232 L220.508,59.92 L217.928,59.92 L217.928,60.748 L219.596,60.748 L219.596,62.8 C219.436,62.944 219.23,63.058 218.978,63.142 C218.726,63.226 218.46,63.268 218.18,63.268 C217.756,63.268 217.382,63.192 217.058,63.04 C216.734,62.888 216.462,62.672 216.242,62.392 C216.022,62.112 215.854,61.774 215.738,61.378 C215.622,60.982 215.564,60.536 215.564,60.04 C215.564,59.552 215.626,59.112 215.75,58.72 C215.874,58.328 216.048,57.994 216.272,57.718 C216.496,57.442 216.768,57.23 217.088,57.082 C217.408,56.934 217.768,56.86 218.168,56.86 C218.568,56.86 218.9,56.932 219.164,57.076 C219.428,57.22 219.66,57.396 219.86,57.604 L219.86,57.604 L220.412,56.956 C220.3,56.836 220.17,56.718 220.022,56.602 C219.874,56.486 219.706,56.382 219.518,56.29 C219.33,56.198 219.122,56.124 218.894,56.068 C218.666,56.012 218.416,55.984 218.144,55.984 C217.624,55.984 217.142,56.078 216.698,56.266 C216.254,56.454 215.872,56.724 215.552,57.076 C215.232,57.428 214.982,57.856 214.802,58.36 C214.622,58.864 214.532,59.432 214.532,60.064 C214.532,60.704 214.62,61.278 214.796,61.786 C214.972,62.294 215.216,62.722 215.528,63.07 C215.84,63.418 216.214,63.684 216.65,63.868 C217.086,64.052 217.564,64.144 218.084,64.144 Z M184.436,80.32 L184.436,79.072 C185.06,78.936 185.528,78.662 185.84,78.25 C186.152,77.838 186.308,77.344 186.308,76.768 C186.308,76.384 186.23,76.062 186.074,75.802 C185.918,75.542 185.722,75.32 185.486,75.136 C185.25,74.952 184.996,74.796 184.724,74.668 C184.452,74.54 184.198,74.416 183.962,74.296 C183.726,74.176 183.53,74.05 183.374,73.918 C183.218,73.786 183.14,73.624 183.14,73.432 C183.14,73.16 183.216,72.964 183.368,72.844 C183.52,72.724 183.74,72.664 184.028,72.664 C184.284,72.664 184.512,72.714 184.712,72.814 C184.912,72.914 185.12,73.064 185.336,73.264 L185.336,73.264 L186.224,72.256 C185.992,72.008 185.732,71.796 185.444,71.62 C185.156,71.444 184.82,71.328 184.436,71.272 L184.436,71.272 L184.436,70.06 L183.272,70.06 L183.272,71.296 C182.704,71.408 182.258,71.658 181.934,72.046 C181.61,72.434 181.448,72.924 181.448,73.516 C181.448,73.876 181.526,74.18 181.682,74.428 C181.838,74.676 182.034,74.892 182.27,75.076 C182.506,75.26 182.76,75.418 183.032,75.55 C183.304,75.682 183.558,75.814 183.794,75.946 C184.03,76.078 184.226,76.216 184.382,76.36 C184.538,76.504 184.616,76.68 184.616,76.888 C184.616,77.168 184.538,77.376 184.382,77.512 C184.226,77.648 183.98,77.716 183.644,77.716 C183.356,77.716 183.074,77.658 182.798,77.542 C182.522,77.426 182.232,77.252 181.928,77.02 L181.928,77.02 L181.16,78.208 C181.44,78.464 181.774,78.67 182.162,78.826 C182.55,78.982 182.92,79.08 183.272,79.12 L183.272,79.12 L183.272,80.32 L184.436,80.32 Z M189.944,79.144 C190.328,79.144 190.692,79.094 191.036,78.994 C191.38,78.894 191.68,78.75 191.936,78.562 C192.192,78.374 192.396,78.142 192.548,77.866 C192.7,77.59 192.776,77.276 192.776,76.924 C192.776,76.428 192.634,76.026 192.35,75.718 C192.066,75.41 191.704,75.192 191.264,75.064 L191.264,75.064 L191.264,75.016 C191.672,74.84 191.986,74.614 192.206,74.338 C192.426,74.062 192.536,73.724 192.536,73.324 C192.536,72.988 192.472,72.692 192.344,72.436 C192.216,72.18 192.038,71.962 191.81,71.782 C191.582,71.602 191.306,71.466 190.982,71.374 C190.658,71.282 190.3,71.236 189.908,71.236 C189.436,71.236 189.006,71.322 188.618,71.494 C188.23,71.666 187.86,71.904 187.508,72.208 L187.508,72.208 L188.396,73.288 C188.636,73.08 188.866,72.916 189.086,72.796 C189.306,72.676 189.552,72.616 189.824,72.616 C190.128,72.616 190.36,72.69 190.52,72.838 C190.68,72.986 190.76,73.192 190.76,73.456 C190.76,73.608 190.73,73.746 190.67,73.87 C190.61,73.994 190.51,74.102 190.37,74.194 C190.23,74.286 190.046,74.356 189.818,74.404 C189.59,74.452 189.304,74.476 188.96,74.476 L188.96,74.476 L188.96,75.724 C189.376,75.724 189.716,75.75 189.98,75.802 C190.244,75.854 190.452,75.926 190.604,76.018 C190.756,76.11 190.862,76.224 190.922,76.36 C190.982,76.496 191.012,76.648 191.012,76.816 C191.012,77.104 190.9,77.326 190.676,77.482 C190.452,77.638 190.152,77.716 189.776,77.716 C189.448,77.716 189.146,77.644 188.87,77.5 C188.594,77.356 188.34,77.172 188.108,76.948 L188.108,76.948 L187.292,78.064 C187.572,78.392 187.928,78.654 188.36,78.85 C188.792,79.046 189.32,79.144 189.944,79.144 Z M195.164,79.144 C195.468,79.144 195.722,79.038 195.926,78.826 C196.13,78.614 196.232,78.352 196.232,78.04 C196.232,77.72 196.13,77.454 195.926,77.242 C195.722,77.03 195.468,76.924 195.164,76.924 C194.86,76.924 194.606,77.03 194.402,77.242 C194.198,77.454 194.096,77.72 194.096,78.04 C194.096,78.352 194.198,78.614 194.402,78.826 C194.606,79.038 194.86,79.144 195.164,79.144 Z M200.132,79.144 C200.54,79.144 200.912,79.058 201.248,78.886 C201.584,78.714 201.87,78.46 202.106,78.124 C202.342,77.788 202.526,77.372 202.658,76.876 C202.79,76.38 202.856,75.808 202.856,75.16 C202.856,74.512 202.79,73.944 202.658,73.456 C202.526,72.968 202.342,72.558 202.106,72.226 C201.87,71.894 201.584,71.646 201.248,71.482 C200.912,71.318 200.54,71.236 200.132,71.236 C199.724,71.236 199.352,71.318 199.016,71.482 C198.68,71.646 198.394,71.894 198.158,72.226 C197.922,72.558 197.738,72.968 197.606,73.456 C197.474,73.944 197.408,74.512 197.408,75.16 C197.408,75.808 197.474,76.38 197.606,76.876 C197.738,77.372 197.922,77.788 198.158,78.124 C198.394,78.46 198.68,78.714 199.016,78.886 C199.352,79.058 199.724,79.144 200.132,79.144 Z M200.132,77.776 C199.988,77.776 199.852,77.738 199.724,77.662 C199.596,77.586 199.484,77.448 199.388,77.248 C199.292,77.048 199.216,76.78 199.16,76.444 C199.104,76.108 199.076,75.68 199.076,75.16 C199.076,74.64 199.104,74.214 199.16,73.882 C199.216,73.55 199.292,73.29 199.388,73.102 C199.484,72.914 199.596,72.784 199.724,72.712 C199.852,72.64 199.988,72.604 200.132,72.604 C200.284,72.604 200.424,72.64 200.552,72.712 C200.68,72.784 200.792,72.914 200.888,73.102 C200.984,73.29 201.058,73.55 201.11,73.882 C201.162,74.214 201.188,74.64 201.188,75.16 C201.188,75.68 201.162,76.108 201.11,76.444 C201.058,76.78 200.984,77.048 200.888,77.248 C200.792,77.448 200.68,77.586 200.552,77.662 C200.424,77.738 200.284,77.776 200.132,77.776 Z M206.456,79.144 C206.864,79.144 207.234,79.09 207.566,78.982 C207.898,78.874 208.182,78.726 208.418,78.538 C208.654,78.35 208.836,78.128 208.964,77.872 C209.092,77.616 209.156,77.336 209.156,77.032 C209.156,76.528 209.028,76.12 208.772,75.808 C208.516,75.496 208.204,75.24 207.836,75.04 L207.836,75.04 L207.836,74.992 C208.1,74.816 208.332,74.586 208.532,74.302 C208.732,74.018 208.832,73.692 208.832,73.324 C208.832,73.012 208.776,72.726 208.664,72.466 C208.552,72.206 208.396,71.986 208.196,71.806 C207.996,71.626 207.752,71.486 207.464,71.386 C207.176,71.286 206.86,71.236 206.516,71.236 C206.164,71.236 205.838,71.284 205.538,71.38 C205.238,71.476 204.98,71.616 204.764,71.8 C204.548,71.984 204.38,72.206 204.26,72.466 C204.14,72.726 204.08,73.016 204.08,73.336 C204.08,73.744 204.176,74.09 204.368,74.374 C204.56,74.658 204.804,74.912 205.1,75.136 L205.1,75.136 L205.1,75.184 C204.74,75.376 204.434,75.62 204.182,75.916 C203.93,76.212 203.804,76.592 203.804,77.056 C203.804,77.368 203.87,77.652 204.002,77.908 C204.134,78.164 204.318,78.384 204.554,78.568 C204.79,78.752 205.07,78.894 205.394,78.994 C205.718,79.094 206.072,79.144 206.456,79.144 Z M206.936,74.56 C206.544,74.408 206.228,74.244 205.988,74.068 C205.748,73.892 205.628,73.648 205.628,73.336 C205.628,73.04 205.712,72.82 205.88,72.676 C206.048,72.532 206.248,72.46 206.48,72.46 C206.768,72.46 206.994,72.55 207.158,72.73 C207.322,72.91 207.404,73.148 207.404,73.444 C207.404,73.828 207.248,74.2 206.936,74.56 Z M206.492,77.92 C206.172,77.92 205.896,77.826 205.664,77.638 C205.432,77.45 205.316,77.188 205.316,76.852 C205.316,76.62 205.372,76.4 205.484,76.192 C205.596,75.984 205.736,75.8 205.904,75.64 C206.144,75.744 206.362,75.84 206.558,75.928 C206.754,76.016 206.924,76.11 207.068,76.21 C207.212,76.31 207.322,76.42 207.398,76.54 C207.474,76.66 207.512,76.804 207.512,76.972 C207.512,77.292 207.416,77.53 207.224,77.686 C207.032,77.842 206.788,77.92 206.492,77.92 Z M213.86,79 L213.86,72.664 L216.008,72.664 L216.008,71.176 L209.936,71.176 L209.936,72.664 L212.084,72.664 L212.084,79 L213.86,79 Z" id="AVAILABLELENDING$3.08T" fill="#666666" fill-rule="nonzero"></path>
                <line x1="166" y1="33.5" x2="166" y2="21.5" id="Line-14-Copy-7" stroke="#D8D8D8" stroke-linecap="round" stroke-linejoin="round" stroke-dasharray="3,3"></line>
                <line x1="198.5" y1="91" x2="198.5" y2="83" id="Line-14-Copy-8" stroke="#979797" stroke-width="0.5" stroke-linecap="square"></line>
                <line x1="31.25" y1="91" x2="31.25" y2="83" id="Line-14-Copy-9" stroke="#979797" stroke-width="0.5" stroke-linecap="square"></line>
                <rect id="Rectangle-Copy-21" fill="#6F41A7" x="0" y="91" width="65" height="40"></rect>
                <rect id="Rectangle-Copy-16" fill="#DAD1E4" x="70" y="91" width="261" height="40"></rect>
            </g>
        </g>
    </g>
</svg>