<?xml version="1.0" encoding="UTF-8"?>
<svg width="945px" height="140px" viewBox="0 0 945 140" version="1.1" xmlns="http://www.w3.org/2000/svg" xmlns:xlink="http://www.w3.org/1999/xlink">
    <title>Viz 1-C-Desktop</title>
    <g id="SVG-Outlines" stroke="none" stroke-width="1" fill="none" fill-rule="evenodd">
        <g id="Desktop-HD-Copy-2" transform="translate(-196.000000, -964.000000)">
            <g id="Viz-1-C-Desktop" transform="translate(197.000000, 964.000000)">
                <path d="M48.62,68.144 C49.02,68.144 49.392,68.086 49.736,67.97 C50.08,67.854 50.378,67.662 50.63,67.394 C50.882,67.126 51.08,66.776 51.224,66.344 C51.368,65.912 51.44,65.38 51.44,64.748 L51.44,64.748 L51.44,60.128 L50.48,60.128 L50.48,64.772 C50.48,65.244 50.432,65.64 50.336,65.96 C50.24,66.28 50.108,66.536 49.94,66.728 C49.772,66.92 49.576,67.058 49.352,67.142 C49.128,67.226 48.884,67.268 48.62,67.268 C48.364,67.268 48.124,67.226 47.9,67.142 C47.676,67.058 47.482,66.92 47.318,66.728 C47.154,66.536 47.024,66.28 46.928,65.96 C46.832,65.64 46.784,65.244 46.784,64.772 L46.784,64.772 L46.784,60.128 L45.788,60.128 L45.788,64.748 C45.788,65.38 45.86,65.912 46.004,66.344 C46.148,66.776 46.346,67.126 46.598,67.394 C46.85,67.662 47.15,67.854 47.498,67.97 C47.846,68.086 48.22,68.144 48.62,68.144 Z M56.204,68 L56.204,60.968 L58.58,60.968 L58.58,60.128 L52.82,60.128 L52.82,60.968 L55.196,60.968 L55.196,68 L56.204,68 Z M60.992,68 L60.992,60.128 L59.996,60.128 L59.996,68 L60.992,68 Z M67.592,68 L67.592,67.148 L64.148,67.148 L64.148,60.128 L63.152,60.128 L63.152,68 L67.592,68 Z M69.98,68 L69.98,60.128 L68.984,60.128 L68.984,68 L69.98,68 Z M77.024,68 L77.024,67.148 L72.836,67.148 L76.988,60.716 L76.988,60.128 L71.972,60.128 L71.972,60.968 L75.74,60.968 L71.6,67.4 L71.6,68 L77.024,68 Z M83.264,68 L83.264,67.148 L79.604,67.148 L79.604,64.292 L82.592,64.292 L82.592,63.44 L79.604,63.44 L79.604,60.968 L83.144,60.968 L83.144,60.128 L78.608,60.128 L78.608,68 L83.264,68 Z M86.948,68 C87.54,68 88.064,67.91 88.52,67.73 C88.976,67.55 89.36,67.29 89.672,66.95 C89.984,66.61 90.22,66.194 90.38,65.702 C90.54,65.21 90.62,64.652 90.62,64.028 C90.62,62.772 90.304,61.808 89.672,61.136 C89.04,60.464 88.116,60.128 86.9,60.128 L86.9,60.128 L84.932,60.128 L84.932,68 L86.948,68 Z M86.828,67.184 L85.928,67.184 L85.928,60.944 L86.828,60.944 C87.748,60.944 88.438,61.208 88.898,61.736 C89.358,62.264 89.588,63.028 89.588,64.028 C89.588,65.028 89.358,65.804 88.898,66.356 C88.438,66.908 87.748,67.184 86.828,67.184 L86.828,67.184 Z M99.152,68 L99.152,67.148 L95.708,67.148 L95.708,60.128 L94.712,60.128 L94.712,68 L99.152,68 Z M105.2,68 L105.2,67.148 L101.54,67.148 L101.54,64.292 L104.528,64.292 L104.528,63.44 L101.54,63.44 L101.54,60.968 L105.08,60.968 L105.08,60.128 L100.544,60.128 L100.544,68 L105.2,68 Z M107.816,68 L107.816,63.884 C107.816,63.468 107.802,63.054 107.774,62.642 C107.746,62.23 107.716,61.824 107.684,61.424 L107.684,61.424 L107.732,61.424 L108.584,63.044 L111.44,68 L112.472,68 L112.472,60.128 L111.524,60.128 L111.524,64.196 C111.524,64.612 111.538,65.034 111.566,65.462 C111.594,65.89 111.62,66.304 111.644,66.704 L111.644,66.704 L111.596,66.704 L110.744,65.072 L107.9,60.128 L106.868,60.128 L106.868,68 L107.816,68 Z M116.648,68 C117.24,68 117.764,67.91 118.22,67.73 C118.676,67.55 119.06,67.29 119.372,66.95 C119.684,66.61 119.92,66.194 120.08,65.702 C120.24,65.21 120.32,64.652 120.32,64.028 C120.32,62.772 120.004,61.808 119.372,61.136 C118.74,60.464 117.816,60.128 116.6,60.128 L116.6,60.128 L114.632,60.128 L114.632,68 L116.648,68 Z M116.528,67.184 L115.628,67.184 L115.628,60.944 L116.528,60.944 C117.448,60.944 118.138,61.208 118.598,61.736 C119.058,62.264 119.288,63.028 119.288,64.028 C119.288,65.028 119.058,65.804 118.598,66.356 C118.138,66.908 117.448,67.184 116.528,67.184 L116.528,67.184 Z M123.008,68 L123.008,60.128 L122.012,60.128 L122.012,68 L123.008,68 Z M126.116,68 L126.116,63.884 C126.116,63.468 126.102,63.054 126.074,62.642 C126.046,62.23 126.016,61.824 125.984,61.424 L125.984,61.424 L126.032,61.424 L126.884,63.044 L129.74,68 L130.772,68 L130.772,60.128 L129.824,60.128 L129.824,64.196 C129.824,64.612 129.838,65.034 129.866,65.462 C129.894,65.89 129.92,66.304 129.944,66.704 L129.944,66.704 L129.896,66.704 L129.044,65.072 L126.2,60.128 L125.168,60.128 L125.168,68 L126.116,68 Z M136.028,68.144 C136.556,68.144 137.028,68.058 137.444,67.886 C137.86,67.714 138.196,67.496 138.452,67.232 L138.452,67.232 L138.452,63.92 L135.872,63.92 L135.872,64.748 L137.54,64.748 L137.54,66.8 C137.38,66.944 137.174,67.058 136.922,67.142 C136.67,67.226 136.404,67.268 136.124,67.268 C135.7,67.268 135.326,67.192 135.002,67.04 C134.678,66.888 134.406,66.672 134.186,66.392 C133.966,66.112 133.798,65.774 133.682,65.378 C133.566,64.982 133.508,64.536 133.508,64.04 C133.508,63.552 133.57,63.112 133.694,62.72 C133.818,62.328 133.992,61.994 134.216,61.718 C134.44,61.442 134.712,61.23 135.032,61.082 C135.352,60.934 135.712,60.86 136.112,60.86 C136.512,60.86 136.844,60.932 137.108,61.076 C137.372,61.22 137.604,61.396 137.804,61.604 L137.804,61.604 L138.356,60.956 C138.244,60.836 138.114,60.718 137.966,60.602 C137.818,60.486 137.65,60.382 137.462,60.29 C137.274,60.198 137.066,60.124 136.838,60.068 C136.61,60.012 136.36,59.984 136.088,59.984 C135.568,59.984 135.086,60.078 134.642,60.266 C134.198,60.454 133.816,60.724 133.496,61.076 C133.176,61.428 132.926,61.856 132.746,62.36 C132.566,62.864 132.476,63.432 132.476,64.064 C132.476,64.704 132.564,65.278 132.74,65.786 C132.916,66.294 133.16,66.722 133.472,67.07 C133.784,67.418 134.158,67.684 134.594,67.868 C135.03,68.052 135.508,68.144 136.028,68.144 Z M79.442,84.32 L79.442,83.072 C80.066,82.936 80.534,82.662 80.846,82.25 C81.158,81.838 81.314,81.344 81.314,80.768 C81.314,80.384 81.236,80.062 81.08,79.802 C80.924,79.542 80.728,79.32 80.492,79.136 C80.256,78.952 80.002,78.796 79.73,78.668 C79.458,78.54 79.204,78.416 78.968,78.296 C78.732,78.176 78.536,78.05 78.38,77.918 C78.224,77.786 78.146,77.624 78.146,77.432 C78.146,77.16 78.222,76.964 78.374,76.844 C78.526,76.724 78.746,76.664 79.034,76.664 C79.29,76.664 79.518,76.714 79.718,76.814 C79.918,76.914 80.126,77.064 80.342,77.264 L80.342,77.264 L81.23,76.256 C80.998,76.008 80.738,75.796 80.45,75.62 C80.162,75.444 79.826,75.328 79.442,75.272 L79.442,75.272 L79.442,74.06 L78.278,74.06 L78.278,75.296 C77.71,75.408 77.264,75.658 76.94,76.046 C76.616,76.434 76.454,76.924 76.454,77.516 C76.454,77.876 76.532,78.18 76.688,78.428 C76.844,78.676 77.04,78.892 77.276,79.076 C77.512,79.26 77.766,79.418 78.038,79.55 C78.31,79.682 78.564,79.814 78.8,79.946 C79.036,80.078 79.232,80.216 79.388,80.36 C79.544,80.504 79.622,80.68 79.622,80.888 C79.622,81.168 79.544,81.376 79.388,81.512 C79.232,81.648 78.986,81.716 78.65,81.716 C78.362,81.716 78.08,81.658 77.804,81.542 C77.528,81.426 77.238,81.252 76.934,81.02 L76.934,81.02 L76.166,82.208 C76.446,82.464 76.78,82.67 77.168,82.826 C77.556,82.982 77.926,83.08 78.278,83.12 L78.278,83.12 L78.278,84.32 L79.442,84.32 Z M85.718,83 C85.75,82.256 85.798,81.598 85.862,81.026 C85.926,80.454 86.032,79.918 86.18,79.418 C86.328,78.918 86.536,78.434 86.804,77.966 C87.072,77.498 87.426,76.996 87.866,76.46 L87.866,76.46 L87.866,75.38 L82.562,75.38 L82.562,76.868 L85.982,76.868 C85.622,77.364 85.32,77.844 85.076,78.308 C84.832,78.772 84.632,79.246 84.476,79.73 C84.32,80.214 84.2,80.722 84.116,81.254 C84.032,81.786 83.974,82.368 83.942,83 L83.942,83 L85.718,83 Z M91.742,83.144 C92.086,83.144 92.412,83.086 92.72,82.97 C93.028,82.854 93.296,82.684 93.524,82.46 C93.752,82.236 93.934,81.968 94.07,81.656 C94.206,81.344 94.274,80.988 94.274,80.588 C94.274,80.188 94.218,79.84 94.106,79.544 C93.994,79.248 93.836,79.004 93.632,78.812 C93.428,78.62 93.188,78.476 92.912,78.38 C92.636,78.284 92.334,78.236 92.006,78.236 C91.886,78.236 91.758,78.254 91.622,78.29 C91.486,78.326 91.35,78.378 91.214,78.446 C91.078,78.514 90.946,78.598 90.818,78.698 C90.69,78.798 90.578,78.912 90.482,79.04 C90.498,78.6 90.55,78.228 90.638,77.924 C90.726,77.62 90.84,77.374 90.98,77.186 C91.12,76.998 91.282,76.864 91.466,76.784 C91.65,76.704 91.846,76.664 92.054,76.664 C92.278,76.664 92.498,76.718 92.714,76.826 C92.93,76.934 93.106,77.06 93.242,77.204 L93.242,77.204 L94.166,76.148 C93.926,75.9 93.622,75.686 93.254,75.506 C92.886,75.326 92.45,75.236 91.946,75.236 C91.546,75.236 91.16,75.318 90.788,75.482 C90.416,75.646 90.088,75.896 89.804,76.232 C89.52,76.568 89.292,76.996 89.12,77.516 C88.948,78.036 88.862,78.652 88.862,79.364 C88.862,80.036 88.942,80.61 89.102,81.086 C89.262,81.562 89.476,81.952 89.744,82.256 C90.012,82.56 90.32,82.784 90.668,82.928 C91.016,83.072 91.374,83.144 91.742,83.144 Z M91.706,81.824 C91.57,81.824 91.44,81.798 91.316,81.746 C91.192,81.694 91.078,81.606 90.974,81.482 C90.87,81.358 90.778,81.196 90.698,80.996 C90.618,80.796 90.558,80.544 90.518,80.24 C90.678,79.968 90.86,79.774 91.064,79.658 C91.268,79.542 91.47,79.484 91.67,79.484 C91.958,79.484 92.196,79.566 92.384,79.73 C92.572,79.894 92.666,80.18 92.666,80.588 C92.666,81.02 92.572,81.334 92.384,81.53 C92.196,81.726 91.97,81.824 91.706,81.824 Z M97.67,83.144 C98.038,83.144 98.392,83.084 98.732,82.964 C99.072,82.844 99.37,82.67 99.626,82.442 C99.882,82.214 100.086,81.936 100.238,81.608 C100.39,81.28 100.466,80.904 100.466,80.48 C100.466,80.072 100.402,79.72 100.274,79.424 C100.146,79.128 99.97,78.884 99.746,78.692 C99.522,78.5 99.264,78.356 98.972,78.26 C98.68,78.164 98.37,78.116 98.042,78.116 C97.882,78.116 97.736,78.13 97.604,78.158 C97.472,78.186 97.334,78.232 97.19,78.296 L97.19,78.296 L97.322,76.868 L100.118,76.868 L100.118,75.38 L95.798,75.38 L95.582,79.232 L96.374,79.736 C96.486,79.664 96.588,79.604 96.68,79.556 C96.772,79.508 96.86,79.468 96.944,79.436 C97.028,79.404 97.114,79.382 97.202,79.37 C97.29,79.358 97.39,79.352 97.502,79.352 C97.862,79.352 98.152,79.452 98.372,79.652 C98.592,79.852 98.702,80.144 98.702,80.528 C98.702,80.92 98.586,81.216 98.354,81.416 C98.122,81.616 97.81,81.716 97.418,81.716 C97.09,81.716 96.792,81.642 96.524,81.494 C96.256,81.346 96.006,81.168 95.774,80.96 L95.774,80.96 L94.982,82.076 C95.286,82.38 95.654,82.634 96.086,82.838 C96.518,83.042 97.046,83.144 97.67,83.144 Z M104.87,83 C105.294,83 105.69,82.954 106.058,82.862 C106.426,82.77 106.748,82.63 107.024,82.442 C107.3,82.254 107.516,82.016 107.672,81.728 C107.828,81.44 107.906,81.096 107.906,80.696 C107.906,80.432 107.87,80.198 107.798,79.994 C107.726,79.79 107.626,79.612 107.498,79.46 C107.37,79.308 107.222,79.182 107.054,79.082 C106.886,78.982 106.702,78.908 106.502,78.86 L106.502,78.86 L106.502,78.812 C106.662,78.756 106.804,78.668 106.928,78.548 C107.052,78.428 107.158,78.292 107.246,78.14 C107.334,77.988 107.402,77.824 107.45,77.648 C107.498,77.472 107.522,77.296 107.522,77.12 C107.522,76.744 107.448,76.432 107.3,76.184 C107.152,75.936 106.948,75.736 106.688,75.584 C106.428,75.432 106.124,75.326 105.776,75.266 C105.428,75.206 105.05,75.176 104.642,75.176 L104.642,75.176 L101.966,75.176 L101.966,83 L104.87,83 Z M104.558,78.308 L103.73,78.308 L103.73,76.544 L104.57,76.544 C104.986,76.544 105.294,76.608 105.494,76.736 C105.694,76.864 105.794,77.08 105.794,77.384 C105.794,77.664 105.696,77.888 105.5,78.056 C105.304,78.224 104.99,78.308 104.558,78.308 L104.558,78.308 Z M104.726,81.632 L103.73,81.632 L103.73,79.616 L104.726,79.616 C105.214,79.616 105.578,79.69 105.818,79.838 C106.058,79.986 106.178,80.232 106.178,80.576 C106.178,81.28 105.694,81.632 104.726,81.632 L104.726,81.632 Z" id="UTILIZEDLENDING$765B" fill="#666666" fill-rule="nonzero"></path>
                <path d="M356.958,18 L356.958,7.992 L360.36,7.992 L360.36,6.228 L351.468,6.228 L351.468,7.992 L354.87,7.992 L354.87,18 L356.958,18 Z M364.482,18.216 C365.034,18.216 365.565,18.114 366.075,17.91 C366.585,17.706 367.032,17.406 367.416,17.01 C367.8,16.614 368.109,16.128 368.343,15.552 C368.577,14.976 368.694,14.322 368.694,13.59 C368.694,12.858 368.577,12.204 368.343,11.628 C368.109,11.052 367.8,10.566 367.416,10.17 C367.032,9.774 366.585,9.471 366.075,9.261 C365.565,9.051 365.034,8.946 364.482,8.946 C363.93,8.946 363.402,9.051 362.898,9.261 C362.394,9.471 361.947,9.774 361.557,10.17 C361.167,10.566 360.858,11.052 360.63,11.628 C360.402,12.204 360.288,12.858 360.288,13.59 C360.288,14.322 360.402,14.976 360.63,15.552 C360.858,16.128 361.167,16.614 361.557,17.01 C361.947,17.406 362.394,17.706 362.898,17.91 C363.402,18.114 363.93,18.216 364.482,18.216 Z M364.482,16.524 C363.834,16.524 363.327,16.257 362.961,15.723 C362.595,15.189 362.412,14.478 362.412,13.59 C362.412,12.69 362.595,11.973 362.961,11.439 C363.327,10.905 363.834,10.638 364.482,10.638 C365.13,10.638 365.64,10.905 366.012,11.439 C366.384,11.973 366.57,12.69 366.57,13.59 C366.57,14.478 366.384,15.189 366.012,15.723 C365.64,16.257 365.13,16.524 364.482,16.524 Z M373.464,18.216 C373.812,18.216 374.139,18.183 374.445,18.117 C374.751,18.051 375.024,17.976 375.264,17.892 L375.264,17.892 L374.904,16.362 C374.772,16.422 374.625,16.47 374.463,16.506 C374.301,16.542 374.142,16.56 373.986,16.56 C373.158,16.56 372.744,16.044 372.744,15.012 L372.744,15.012 L372.744,10.8 L374.994,10.8 L374.994,9.162 L372.744,9.162 L372.744,6.75 L371.016,6.75 L370.764,9.162 L369.396,9.252 L369.396,10.8 L370.656,10.8 L370.656,15.012 C370.656,15.492 370.707,15.927 370.809,16.317 C370.911,16.707 371.073,17.043 371.295,17.325 C371.517,17.607 371.805,17.826 372.159,17.982 C372.513,18.138 372.948,18.216 373.464,18.216 Z M378.612,18.216 C379.14,18.216 379.629,18.102 380.079,17.874 C380.529,17.646 380.952,17.364 381.348,17.028 L381.348,17.028 L381.42,17.028 L381.564,18 L383.274,18 L383.274,12.762 C383.274,11.526 383.001,10.581 382.455,9.927 C381.909,9.273 381.084,8.946 379.98,8.946 C379.272,8.946 378.612,9.06 378,9.288 C377.388,9.516 376.836,9.786 376.344,10.098 L376.344,10.098 L377.1,11.484 C377.496,11.244 377.901,11.04 378.315,10.872 C378.729,10.704 379.152,10.62 379.584,10.62 C379.884,10.62 380.136,10.665 380.34,10.755 C380.544,10.845 380.709,10.971 380.835,11.133 C380.961,11.295 381.051,11.481 381.105,11.691 C381.159,11.901 381.192,12.12 381.204,12.348 C380.292,12.444 379.509,12.582 378.855,12.762 C378.201,12.942 377.661,13.164 377.235,13.428 C376.809,13.692 376.497,14.007 376.299,14.373 C376.101,14.739 376.002,15.156 376.002,15.624 C376.002,16.404 376.242,17.031 376.722,17.505 C377.202,17.979 377.832,18.216 378.612,18.216 Z M379.278,16.596 C378.906,16.596 378.6,16.506 378.36,16.326 C378.12,16.146 378,15.858 378,15.462 C378,15.246 378.054,15.042 378.162,14.85 C378.27,14.658 378.45,14.487 378.702,14.337 C378.954,14.187 379.284,14.052 379.692,13.932 C380.1,13.812 380.604,13.716 381.204,13.644 L381.204,13.644 L381.204,15.624 C380.868,15.936 380.553,16.176 380.259,16.344 C379.965,16.512 379.638,16.596 379.278,16.596 Z M387.774,18.216 C388.23,18.216 388.596,18.156 388.872,18.036 L388.872,18.036 L388.602,16.488 C388.518,16.512 388.455,16.524 388.413,16.524 L388.413,16.524 L388.278,16.524 C388.17,16.524 388.068,16.473 387.972,16.371 C387.876,16.269 387.828,16.092 387.828,15.84 L387.828,15.84 L387.828,5.292 L385.758,5.292 L385.758,15.732 C385.758,16.5 385.908,17.106 386.208,17.55 C386.508,17.994 387.03,18.216 387.774,18.216 Z M401.688,18 L401.688,16.236 L396.504,16.236 L396.504,12.762 L400.734,12.762 L400.734,10.998 L396.504,10.998 L396.504,7.992 L401.508,7.992 L401.508,6.228 L394.416,6.228 L394.416,18 L401.688,18 Z M406.386,18.216 C406.938,18.216 407.43,18.144 407.862,18 C408.294,17.856 408.654,17.661 408.942,17.415 C409.23,17.169 409.449,16.881 409.599,16.551 C409.749,16.221 409.824,15.864 409.824,15.48 C409.824,15.072 409.749,14.721 409.599,14.427 C409.449,14.133 409.251,13.884 409.005,13.68 C408.759,13.476 408.486,13.305 408.186,13.167 C407.886,13.029 407.586,12.906 407.286,12.798 C407.046,12.714 406.815,12.63 406.593,12.546 C406.371,12.462 406.176,12.372 406.008,12.276 C405.84,12.18 405.705,12.069 405.603,11.943 C405.501,11.817 405.45,11.664 405.45,11.484 C405.45,11.208 405.555,10.977 405.765,10.791 C405.975,10.605 406.302,10.512 406.746,10.512 C407.094,10.512 407.427,10.581 407.745,10.719 C408.063,10.857 408.378,11.04 408.69,11.268 L408.69,11.268 L409.644,10.008 C409.284,9.732 408.858,9.486 408.366,9.27 C407.874,9.054 407.322,8.946 406.71,8.946 C405.714,8.946 404.928,9.192 404.352,9.684 C403.776,10.176 403.488,10.812 403.488,11.592 C403.488,11.964 403.563,12.285 403.713,12.555 C403.863,12.825 404.055,13.062 404.289,13.266 C404.523,13.47 404.79,13.644 405.09,13.788 C405.39,13.932 405.684,14.058 405.972,14.166 C406.2,14.262 406.428,14.355 406.656,14.445 C406.884,14.535 407.088,14.634 407.268,14.742 C407.448,14.85 407.592,14.973 407.7,15.111 C407.808,15.249 407.862,15.408 407.862,15.588 C407.862,15.9 407.748,16.155 407.52,16.353 C407.292,16.551 406.938,16.65 406.458,16.65 C406.002,16.65 405.579,16.563 405.189,16.389 C404.799,16.215 404.406,15.972 404.01,15.66 L404.01,15.66 L403.038,16.992 C403.47,17.34 403.983,17.631 404.577,17.865 C405.171,18.099 405.774,18.216 406.386,18.216 Z M414.432,18.216 C414.78,18.216 415.107,18.183 415.413,18.117 C415.719,18.051 415.992,17.976 416.232,17.892 L416.232,17.892 L415.872,16.362 C415.74,16.422 415.593,16.47 415.431,16.506 C415.269,16.542 415.11,16.56 414.954,16.56 C414.126,16.56 413.712,16.044 413.712,15.012 L413.712,15.012 L413.712,10.8 L415.962,10.8 L415.962,9.162 L413.712,9.162 L413.712,6.75 L411.984,6.75 L411.732,9.162 L410.364,9.252 L410.364,10.8 L411.624,10.8 L411.624,15.012 C411.624,15.492 411.675,15.927 411.777,16.317 C411.879,16.707 412.041,17.043 412.263,17.325 C412.485,17.607 412.773,17.826 413.127,17.982 C413.481,18.138 413.916,18.216 414.432,18.216 Z M418.86,7.614 C419.232,7.614 419.538,7.506 419.778,7.29 C420.018,7.074 420.138,6.792 420.138,6.444 C420.138,6.096 420.018,5.811 419.778,5.589 C419.538,5.367 419.232,5.256 418.86,5.256 C418.488,5.256 418.182,5.367 417.942,5.589 C417.702,5.811 417.582,6.096 417.582,6.444 C417.582,6.792 417.702,7.074 417.942,7.29 C418.182,7.506 418.488,7.614 418.86,7.614 Z M419.886,18 L419.886,9.162 L417.816,9.162 L417.816,18 L419.886,18 Z M424.602,18 L424.602,11.826 C425.286,11.094 425.904,10.728 426.456,10.728 C426.924,10.728 427.269,10.878 427.491,11.178 C427.713,11.478 427.824,11.994 427.824,12.726 L427.824,12.726 L427.824,18 L429.894,18 L429.894,11.826 C430.578,11.094 431.196,10.728 431.748,10.728 C432.204,10.728 432.543,10.878 432.765,11.178 C432.987,11.478 433.098,11.994 433.098,12.726 L433.098,12.726 L433.098,18 L435.186,18 L435.186,12.456 C435.186,11.328 434.964,10.461 434.52,9.855 C434.076,9.249 433.386,8.946 432.45,8.946 C431.886,8.946 431.376,9.096 430.92,9.396 C430.464,9.696 430.026,10.074 429.606,10.53 C429.402,10.026 429.105,9.636 428.715,9.36 C428.325,9.084 427.806,8.946 427.158,8.946 C426.606,8.946 426.111,9.084 425.673,9.36 C425.235,9.636 424.83,9.972 424.458,10.368 L424.458,10.368 L424.386,10.368 L424.242,9.162 L422.532,9.162 L422.532,18 L424.602,18 Z M439.848,18.216 C440.376,18.216 440.865,18.102 441.315,17.874 C441.765,17.646 442.188,17.364 442.584,17.028 L442.584,17.028 L442.656,17.028 L442.8,18 L444.51,18 L444.51,12.762 C444.51,11.526 444.237,10.581 443.691,9.927 C443.145,9.273 442.32,8.946 441.216,8.946 C440.508,8.946 439.848,9.06 439.236,9.288 C438.624,9.516 438.072,9.786 437.58,10.098 L437.58,10.098 L438.336,11.484 C438.732,11.244 439.137,11.04 439.551,10.872 C439.965,10.704 440.388,10.62 440.82,10.62 C441.12,10.62 441.372,10.665 441.576,10.755 C441.78,10.845 441.945,10.971 442.071,11.133 C442.197,11.295 442.287,11.481 442.341,11.691 C442.395,11.901 442.428,12.12 442.44,12.348 C441.528,12.444 440.745,12.582 440.091,12.762 C439.437,12.942 438.897,13.164 438.471,13.428 C438.045,13.692 437.733,14.007 437.535,14.373 C437.337,14.739 437.238,15.156 437.238,15.624 C437.238,16.404 437.478,17.031 437.958,17.505 C438.438,17.979 439.068,18.216 439.848,18.216 Z M440.514,16.596 C440.142,16.596 439.836,16.506 439.596,16.326 C439.356,16.146 439.236,15.858 439.236,15.462 C439.236,15.246 439.29,15.042 439.398,14.85 C439.506,14.658 439.686,14.487 439.938,14.337 C440.19,14.187 440.52,14.052 440.928,13.932 C441.336,13.812 441.84,13.716 442.44,13.644 L442.44,13.644 L442.44,15.624 C442.104,15.936 441.789,16.176 441.495,16.344 C441.201,16.512 440.874,16.596 440.514,16.596 Z M449.82,18.216 C450.168,18.216 450.495,18.183 450.801,18.117 C451.107,18.051 451.38,17.976 451.62,17.892 L451.62,17.892 L451.26,16.362 C451.128,16.422 450.981,16.47 450.819,16.506 C450.657,16.542 450.498,16.56 450.342,16.56 C449.514,16.56 449.1,16.044 449.1,15.012 L449.1,15.012 L449.1,10.8 L451.35,10.8 L451.35,9.162 L449.1,9.162 L449.1,6.75 L447.372,6.75 L447.12,9.162 L445.752,9.252 L445.752,10.8 L447.012,10.8 L447.012,15.012 C447.012,15.492 447.063,15.927 447.165,16.317 C447.267,16.707 447.429,17.043 447.651,17.325 C447.873,17.607 448.161,17.826 448.515,17.982 C448.869,18.138 449.304,18.216 449.82,18.216 Z M456.696,18.216 C457.26,18.216 457.8,18.126 458.316,17.946 C458.832,17.766 459.3,17.538 459.72,17.262 L459.72,17.262 L459.018,15.966 C458.694,16.17 458.367,16.329 458.037,16.443 C457.707,16.557 457.35,16.614 456.966,16.614 C456.246,16.614 455.655,16.401 455.193,15.975 C454.731,15.549 454.452,14.94 454.356,14.148 L454.356,14.148 L459.972,14.148 C459.996,14.04 460.017,13.896 460.035,13.716 C460.053,13.536 460.062,13.344 460.062,13.14 C460.062,12.528 459.984,11.964 459.828,11.448 C459.672,10.932 459.441,10.488 459.135,10.116 C458.829,9.744 458.448,9.456 457.992,9.252 C457.536,9.048 457.008,8.946 456.408,8.946 C455.892,8.946 455.388,9.054 454.896,9.27 C454.404,9.486 453.969,9.792 453.591,10.188 C453.213,10.584 452.91,11.07 452.682,11.646 C452.454,12.222 452.34,12.87 452.34,13.59 C452.34,14.322 452.451,14.973 452.673,15.543 C452.895,16.113 453.204,16.596 453.6,16.992 C453.996,17.388 454.458,17.691 454.986,17.901 C455.514,18.111 456.084,18.216 456.696,18.216 Z M458.262,12.744 L454.338,12.744 C454.434,12.024 454.68,11.478 455.076,11.106 C455.472,10.734 455.934,10.548 456.462,10.548 C457.074,10.548 457.527,10.743 457.821,11.133 C458.115,11.523 458.262,12.06 458.262,12.744 L458.262,12.744 Z M465.138,18.216 C465.618,18.216 466.074,18.102 466.506,17.874 C466.938,17.646 467.316,17.37 467.64,17.046 L467.64,17.046 L467.712,17.046 L467.856,18 L469.566,18 L469.566,5.292 L467.496,5.292 L467.496,8.496 L467.568,9.918 C467.22,9.618 466.872,9.381 466.524,9.207 C466.176,9.033 465.75,8.946 465.246,8.946 C464.766,8.946 464.301,9.054 463.851,9.27 C463.401,9.486 463.002,9.792 462.654,10.188 C462.306,10.584 462.027,11.07 461.817,11.646 C461.607,12.222 461.502,12.87 461.502,13.59 C461.502,15.054 461.829,16.191 462.483,17.001 C463.137,17.811 464.022,18.216 465.138,18.216 Z M465.642,16.506 C464.994,16.506 464.499,16.257 464.157,15.759 C463.815,15.261 463.644,14.532 463.644,13.572 C463.644,12.636 463.842,11.916 464.238,11.412 C464.634,10.908 465.12,10.656 465.696,10.656 C465.996,10.656 466.293,10.71 466.587,10.818 C466.881,10.926 467.184,11.118 467.496,11.394 L467.496,11.394 L467.496,15.516 C466.92,16.176 466.302,16.506 465.642,16.506 Z M482.958,18 L482.958,16.236 L478.062,16.236 L478.062,6.228 L475.974,6.228 L475.974,18 L482.958,18 Z M488.376,18.216 C488.94,18.216 489.48,18.126 489.996,17.946 C490.512,17.766 490.98,17.538 491.4,17.262 L491.4,17.262 L490.698,15.966 C490.374,16.17 490.047,16.329 489.717,16.443 C489.387,16.557 489.03,16.614 488.646,16.614 C487.926,16.614 487.335,16.401 486.873,15.975 C486.411,15.549 486.132,14.94 486.036,14.148 L486.036,14.148 L491.652,14.148 C491.676,14.04 491.697,13.896 491.715,13.716 C491.733,13.536 491.742,13.344 491.742,13.14 C491.742,12.528 491.664,11.964 491.508,11.448 C491.352,10.932 491.121,10.488 490.815,10.116 C490.509,9.744 490.128,9.456 489.672,9.252 C489.216,9.048 488.688,8.946 488.088,8.946 C487.572,8.946 487.068,9.054 486.576,9.27 C486.084,9.486 485.649,9.792 485.271,10.188 C484.893,10.584 484.59,11.07 484.362,11.646 C484.134,12.222 484.02,12.87 484.02,13.59 C484.02,14.322 484.131,14.973 484.353,15.543 C484.575,16.113 484.884,16.596 485.28,16.992 C485.676,17.388 486.138,17.691 486.666,17.901 C487.194,18.111 487.764,18.216 488.376,18.216 Z M489.942,12.744 L486.018,12.744 C486.114,12.024 486.36,11.478 486.756,11.106 C487.152,10.734 487.614,10.548 488.142,10.548 C488.754,10.548 489.207,10.743 489.501,11.133 C489.795,11.523 489.942,12.06 489.942,12.744 L489.942,12.744 Z M495.792,18 L495.792,11.826 C496.164,11.466 496.497,11.193 496.791,11.007 C497.085,10.821 497.424,10.728 497.808,10.728 C498.3,10.728 498.654,10.878 498.87,11.178 C499.086,11.478 499.194,11.994 499.194,12.726 L499.194,12.726 L499.194,18 L501.264,18 L501.264,12.456 C501.264,11.328 501.048,10.461 500.616,9.855 C500.184,9.249 499.494,8.946 498.546,8.946 C497.934,8.946 497.397,9.084 496.935,9.36 C496.473,9.636 496.044,9.966 495.648,10.35 L495.648,10.35 L495.576,10.35 L495.432,9.162 L493.722,9.162 L493.722,18 L495.792,18 Z M506.898,18.216 C507.378,18.216 507.834,18.102 508.266,17.874 C508.698,17.646 509.076,17.37 509.4,17.046 L509.4,17.046 L509.472,17.046 L509.616,18 L511.326,18 L511.326,5.292 L509.256,5.292 L509.256,8.496 L509.328,9.918 C508.98,9.618 508.632,9.381 508.284,9.207 C507.936,9.033 507.51,8.946 507.006,8.946 C506.526,8.946 506.061,9.054 505.611,9.27 C505.161,9.486 504.762,9.792 504.414,10.188 C504.066,10.584 503.787,11.07 503.577,11.646 C503.367,12.222 503.262,12.87 503.262,13.59 C503.262,15.054 503.589,16.191 504.243,17.001 C504.897,17.811 505.782,18.216 506.898,18.216 Z M507.402,16.506 C506.754,16.506 506.259,16.257 505.917,15.759 C505.575,15.261 505.404,14.532 505.404,13.572 C505.404,12.636 505.602,11.916 505.998,11.412 C506.394,10.908 506.88,10.656 507.456,10.656 C507.756,10.656 508.053,10.71 508.347,10.818 C508.641,10.926 508.944,11.118 509.256,11.394 L509.256,11.394 L509.256,15.516 C508.68,16.176 508.062,16.506 507.402,16.506 Z M514.998,7.614 C515.37,7.614 515.676,7.506 515.916,7.29 C516.156,7.074 516.276,6.792 516.276,6.444 C516.276,6.096 516.156,5.811 515.916,5.589 C515.676,5.367 515.37,5.256 514.998,5.256 C514.626,5.256 514.32,5.367 514.08,5.589 C513.84,5.811 513.72,6.096 513.72,6.444 C513.72,6.792 513.84,7.074 514.08,7.29 C514.32,7.506 514.626,7.614 514.998,7.614 Z M516.024,18 L516.024,9.162 L513.954,9.162 L513.954,18 L516.024,18 Z M520.74,18 L520.74,11.826 C521.112,11.466 521.445,11.193 521.739,11.007 C522.033,10.821 522.372,10.728 522.756,10.728 C523.248,10.728 523.602,10.878 523.818,11.178 C524.034,11.478 524.142,11.994 524.142,12.726 L524.142,12.726 L524.142,18 L526.212,18 L526.212,12.456 C526.212,11.328 525.996,10.461 525.564,9.855 C525.132,9.249 524.442,8.946 523.494,8.946 C522.882,8.946 522.345,9.084 521.883,9.36 C521.421,9.636 520.992,9.966 520.596,10.35 L520.596,10.35 L520.524,10.35 L520.38,9.162 L518.67,9.162 L518.67,18 L520.74,18 Z M531.828,21.906 C532.548,21.906 533.199,21.825 533.781,21.663 C534.363,21.501 534.858,21.282 535.266,21.006 C535.674,20.73 535.989,20.4 536.211,20.016 C536.433,19.632 536.544,19.224 536.544,18.792 C536.544,18.024 536.271,17.469 535.725,17.127 C535.179,16.785 534.372,16.614 533.304,16.614 L533.304,16.614 L531.738,16.614 C531.198,16.614 530.823,16.542 530.613,16.398 C530.403,16.254 530.298,16.056 530.298,15.804 C530.298,15.6 530.337,15.438 530.415,15.318 C530.493,15.198 530.598,15.078 530.73,14.958 C530.934,15.042 531.138,15.102 531.342,15.138 C531.546,15.174 531.744,15.192 531.936,15.192 C532.404,15.192 532.842,15.126 533.25,14.994 C533.658,14.862 534.012,14.67 534.312,14.418 C534.612,14.166 534.849,13.854 535.023,13.482 C535.197,13.11 535.284,12.678 535.284,12.186 C535.284,11.874 535.236,11.589 535.14,11.331 C535.044,11.073 534.924,10.86 534.78,10.692 L534.78,10.692 L536.4,10.692 L536.4,9.162 L533.232,9.162 C533.052,9.102 532.851,9.051 532.629,9.009 C532.407,8.967 532.176,8.946 531.936,8.946 C531.468,8.946 531.024,9.015 530.604,9.153 C530.184,9.291 529.815,9.495 529.497,9.765 C529.179,10.035 528.924,10.368 528.732,10.764 C528.54,11.16 528.444,11.61 528.444,12.114 C528.444,12.642 528.561,13.107 528.795,13.509 C529.029,13.911 529.296,14.226 529.596,14.454 L529.596,14.454 L529.596,14.526 C529.344,14.706 529.119,14.937 528.921,15.219 C528.723,15.501 528.624,15.816 528.624,16.164 C528.624,16.524 528.699,16.824 528.849,17.064 C528.999,17.304 529.188,17.496 529.416,17.64 L529.416,17.64 L529.416,17.712 C529.008,17.964 528.696,18.249 528.48,18.567 C528.264,18.885 528.156,19.23 528.156,19.602 C528.156,19.986 528.249,20.322 528.435,20.61 C528.621,20.898 528.876,21.138 529.2,21.33 C529.524,21.522 529.911,21.666 530.361,21.762 C530.811,21.858 531.3,21.906 531.828,21.906 Z M531.936,13.896 C531.504,13.896 531.138,13.743 530.838,13.437 C530.538,13.131 530.388,12.69 530.388,12.114 C530.388,11.55 530.538,11.118 530.838,10.818 C531.138,10.518 531.504,10.368 531.936,10.368 C532.368,10.368 532.731,10.521 533.025,10.827 C533.319,11.133 533.466,11.562 533.466,12.114 C533.466,12.69 533.316,13.131 533.016,13.437 C532.716,13.743 532.356,13.896 531.936,13.896 Z M532.152,20.556 C531.444,20.556 530.889,20.445 530.487,20.223 C530.085,20.001 529.884,19.692 529.884,19.296 C529.884,18.864 530.112,18.474 530.568,18.126 C530.892,18.21 531.294,18.252 531.774,18.252 L531.774,18.252 L532.98,18.252 C533.484,18.252 533.871,18.312 534.141,18.432 C534.411,18.552 534.546,18.786 534.546,19.134 C534.546,19.518 534.327,19.851 533.889,20.133 C533.451,20.415 532.872,20.556 532.152,20.556 Z M545.76,19.98 L545.76,18.126 C546.66,17.958 547.35,17.583 547.83,17.001 C548.31,16.419 548.55,15.696 548.55,14.832 C548.55,14.232 548.43,13.731 548.19,13.329 C547.95,12.927 547.647,12.588 547.281,12.312 C546.915,12.036 546.522,11.799 546.102,11.601 C545.682,11.403 545.289,11.205 544.923,11.007 C544.557,10.809 544.254,10.593 544.014,10.359 C543.774,10.125 543.654,9.828 543.654,9.468 C543.654,9 543.792,8.643 544.068,8.397 C544.344,8.151 544.728,8.028 545.22,8.028 C545.652,8.028 546.024,8.109 546.336,8.271 C546.648,8.433 546.972,8.67 547.308,8.982 L547.308,8.982 L548.37,7.776 C548.034,7.428 547.659,7.125 547.245,6.867 C546.831,6.609 546.336,6.444 545.76,6.372 L545.76,6.372 L545.76,4.572 L544.32,4.572 L544.32,6.408 C543.504,6.552 542.856,6.903 542.376,7.461 C541.896,8.019 541.656,8.718 541.656,9.558 C541.656,10.122 541.776,10.593 542.016,10.971 C542.256,11.349 542.559,11.673 542.925,11.943 C543.291,12.213 543.684,12.447 544.104,12.645 C544.524,12.843 544.917,13.05 545.283,13.266 C545.649,13.482 545.952,13.722 546.192,13.986 C546.432,14.25 546.552,14.58 546.552,14.976 C546.552,15.468 546.408,15.849 546.12,16.119 C545.832,16.389 545.394,16.524 544.806,16.524 C544.314,16.524 543.852,16.422 543.42,16.218 C542.988,16.014 542.562,15.744 542.142,15.408 L542.142,15.408 L541.206,16.812 C541.614,17.196 542.097,17.505 542.655,17.739 C543.213,17.973 543.768,18.12 544.32,18.18 L544.32,18.18 L544.32,19.98 L545.76,19.98 Z M553.95,18.216 C554.502,18.216 555.021,18.141 555.507,17.991 C555.993,17.841 556.419,17.625 556.785,17.343 C557.151,17.061 557.439,16.716 557.649,16.308 C557.859,15.9 557.964,15.432 557.964,14.904 C557.964,14.148 557.739,13.53 557.289,13.05 C556.839,12.57 556.272,12.24 555.588,12.06 L555.588,12.06 L555.588,11.988 C556.212,11.748 556.701,11.412 557.055,10.98 C557.409,10.548 557.586,10.008 557.586,9.36 C557.586,8.88 557.496,8.451 557.316,8.073 C557.136,7.695 556.884,7.377 556.56,7.119 C556.236,6.861 555.846,6.666 555.39,6.534 C554.934,6.402 554.43,6.336 553.878,6.336 C553.194,6.336 552.573,6.468 552.015,6.732 C551.457,6.996 550.932,7.344 550.44,7.776 L550.44,7.776 L551.502,9.054 C551.85,8.73 552.207,8.469 552.573,8.271 C552.939,8.073 553.35,7.974 553.806,7.974 C554.334,7.974 554.748,8.109 555.048,8.379 C555.348,8.649 555.498,9.024 555.498,9.504 C555.498,9.768 555.447,10.014 555.345,10.242 C555.243,10.47 555.075,10.665 554.841,10.827 C554.607,10.989 554.301,11.115 553.923,11.205 C553.545,11.295 553.074,11.34 552.51,11.34 L552.51,11.34 L552.51,12.852 C553.158,12.852 553.698,12.897 554.13,12.987 C554.562,13.077 554.907,13.206 555.165,13.374 C555.423,13.542 555.606,13.746 555.714,13.986 C555.822,14.226 555.876,14.496 555.876,14.796 C555.876,15.336 555.681,15.759 555.291,16.065 C554.901,16.371 554.394,16.524 553.77,16.524 C553.194,16.524 552.684,16.401 552.24,16.155 C551.796,15.909 551.4,15.612 551.052,15.264 L551.052,15.264 L550.062,16.596 C550.47,17.052 550.986,17.436 551.61,17.748 C552.234,18.06 553.014,18.216 553.95,18.216 Z M561.348,18.216 C561.732,18.216 562.05,18.084 562.302,17.82 C562.554,17.556 562.68,17.22 562.68,16.812 C562.68,16.404 562.554,16.068 562.302,15.804 C562.05,15.54 561.732,15.408 561.348,15.408 C560.964,15.408 560.643,15.54 560.385,15.804 C560.127,16.068 559.998,16.404 559.998,16.812 C559.998,17.22 560.127,17.556 560.385,17.82 C560.643,18.084 560.964,18.216 561.348,18.216 Z M567.72,18.216 C568.308,18.216 568.875,18.096 569.421,17.856 C569.967,17.616 570.447,17.241 570.861,16.731 C571.275,16.221 571.605,15.57 571.851,14.778 C572.097,13.986 572.22,13.032 572.22,11.916 C572.22,10.956 572.109,10.125 571.887,9.423 C571.665,8.721 571.365,8.142 570.987,7.686 C570.609,7.23 570.168,6.891 569.664,6.669 C569.16,6.447 568.632,6.336 568.08,6.336 C567.588,6.336 567.123,6.423 566.685,6.597 C566.247,6.771 565.866,7.02 565.542,7.344 C565.218,7.668 564.96,8.061 564.768,8.523 C564.576,8.985 564.48,9.504 564.48,10.08 C564.48,10.68 564.561,11.202 564.723,11.646 C564.885,12.09 565.113,12.459 565.407,12.753 C565.701,13.047 566.052,13.266 566.46,13.41 C566.868,13.554 567.318,13.626 567.81,13.626 C568.23,13.626 568.668,13.509 569.124,13.275 C569.58,13.041 569.976,12.714 570.312,12.294 C570.288,13.086 570.201,13.752 570.051,14.292 C569.901,14.832 569.706,15.267 569.466,15.597 C569.226,15.927 568.947,16.164 568.629,16.308 C568.311,16.452 567.972,16.524 567.612,16.524 C567.264,16.524 566.925,16.443 566.595,16.281 C566.265,16.119 565.992,15.912 565.776,15.66 L565.776,15.66 L564.66,16.92 C565.008,17.28 565.434,17.586 565.938,17.838 C566.442,18.09 567.036,18.216 567.72,18.216 Z M568.206,12.132 C567.63,12.132 567.183,11.961 566.865,11.619 C566.547,11.277 566.388,10.764 566.388,10.08 C566.388,9.384 566.556,8.85 566.892,8.478 C567.228,8.106 567.63,7.92 568.098,7.92 C568.65,7.92 569.121,8.148 569.511,8.604 C569.901,9.06 570.15,9.792 570.258,10.8 C569.958,11.268 569.625,11.607 569.259,11.817 C568.893,12.027 568.542,12.132 568.206,12.132 Z M581.472,18 L581.472,16.236 L578.664,16.236 C578.388,16.236 578.076,16.251 577.728,16.281 C577.38,16.311 577.056,16.338 576.756,16.362 C577.32,15.762 577.854,15.18 578.358,14.616 C578.862,14.052 579.303,13.503 579.681,12.969 C580.059,12.435 580.359,11.907 580.581,11.385 C580.803,10.863 580.914,10.35 580.914,9.846 C580.914,9.318 580.827,8.838 580.653,8.406 C580.479,7.974 580.236,7.605 579.924,7.299 C579.612,6.993 579.234,6.756 578.79,6.588 C578.346,6.42 577.848,6.336 577.296,6.336 C576.504,6.336 575.829,6.489 575.271,6.795 C574.713,7.101 574.17,7.536 573.642,8.1 L573.642,8.1 L574.794,9.252 C575.106,8.904 575.445,8.604 575.811,8.352 C576.177,8.1 576.582,7.974 577.026,7.974 C577.638,7.974 578.106,8.151 578.43,8.505 C578.754,8.859 578.916,9.342 578.916,9.954 C578.916,10.386 578.796,10.842 578.556,11.322 C578.316,11.802 577.971,12.318 577.521,12.87 C577.071,13.422 576.525,14.022 575.883,14.67 C575.241,15.318 574.524,16.026 573.732,16.794 L573.732,16.794 L573.732,18 L581.472,18 Z M588.24,18 L588.24,7.992 L591.642,7.992 L591.642,6.228 L582.75,6.228 L582.75,7.992 L586.152,7.992 L586.152,18 L588.24,18 Z" id="TotalEstimatedLending$3.92T" fill="#666666" fill-rule="nonzero"></path>
                <path d="M0,97 L0,40 L943,40 L943,97" id="Path-21" stroke="#D8D8D8" stroke-dasharray="3,3"></path>
                <path d="M516.212,68 L516.968,65.6 L519.836,65.6 L520.58,68 L521.648,68 L518.984,60.128 L517.856,60.128 L515.192,68 L516.212,68 Z M519.584,64.796 L517.22,64.796 L517.592,63.596 C517.736,63.156 517.872,62.718 518,62.282 C518.128,61.846 518.252,61.4 518.372,60.944 L518.372,60.944 L518.42,60.944 C518.548,61.4 518.676,61.846 518.804,62.282 C518.932,62.718 519.068,63.156 519.212,63.596 L519.212,63.596 L519.584,64.796 Z M525.2,68 L527.696,60.128 L526.676,60.128 L525.416,64.376 C525.28,64.848 525.156,65.284 525.044,65.684 C524.932,66.084 524.804,66.516 524.66,66.98 L524.66,66.98 L524.612,66.98 C524.46,66.516 524.33,66.084 524.222,65.684 C524.114,65.284 523.988,64.848 523.844,64.376 L523.844,64.376 L522.584,60.128 L521.516,60.128 L524.036,68 L525.2,68 Z M528.584,68 L529.34,65.6 L532.208,65.6 L532.952,68 L534.02,68 L531.356,60.128 L530.228,60.128 L527.564,68 L528.584,68 Z M531.956,64.796 L529.592,64.796 L529.964,63.596 C530.108,63.156 530.244,62.718 530.372,62.282 C530.5,61.846 530.624,61.4 530.744,60.944 L530.744,60.944 L530.792,60.944 C530.92,61.4 531.048,61.846 531.176,62.282 C531.304,62.718 531.44,63.156 531.584,63.596 L531.584,63.596 L531.956,64.796 Z M536.132,68 L536.132,60.128 L535.136,60.128 L535.136,68 L536.132,68 Z M542.732,68 L542.732,67.148 L539.288,67.148 L539.288,60.128 L538.292,60.128 L538.292,68 L542.732,68 Z M544.136,68 L544.892,65.6 L547.76,65.6 L548.504,68 L549.572,68 L546.908,60.128 L545.78,60.128 L543.116,68 L544.136,68 Z M547.508,64.796 L545.144,64.796 L545.516,63.596 C545.66,63.156 545.796,62.718 545.924,62.282 C546.052,61.846 546.176,61.4 546.296,60.944 L546.296,60.944 L546.344,60.944 C546.472,61.4 546.6,61.846 546.728,62.282 C546.856,62.718 546.992,63.156 547.136,63.596 L547.136,63.596 L547.508,64.796 Z M553.196,68 C553.636,68 554.04,67.952 554.408,67.856 C554.776,67.76 555.092,67.616 555.356,67.424 C555.62,67.232 555.824,66.992 555.968,66.704 C556.112,66.416 556.184,66.08 556.184,65.696 C556.184,65.152 556.036,64.724 555.74,64.412 C555.444,64.1 555.056,63.9 554.576,63.812 L554.576,63.812 L554.576,63.764 C554.952,63.644 555.238,63.426 555.434,63.11 C555.63,62.794 555.728,62.44 555.728,62.048 C555.728,61.704 555.662,61.41 555.53,61.166 C555.398,60.922 555.214,60.724 554.978,60.572 C554.742,60.42 554.458,60.308 554.126,60.236 C553.794,60.164 553.428,60.128 553.028,60.128 L553.028,60.128 L550.688,60.128 L550.688,68 L553.196,68 Z M552.848,63.476 L551.684,63.476 L551.684,60.92 L552.896,60.92 C553.512,60.92 553.974,61.016 554.282,61.208 C554.59,61.4 554.744,61.724 554.744,62.18 C554.744,62.58 554.596,62.896 554.3,63.128 C554.004,63.36 553.52,63.476 552.848,63.476 L552.848,63.476 Z M553.052,67.208 L551.684,67.208 L551.684,64.244 L553.052,64.244 C553.748,64.244 554.28,64.358 554.648,64.586 C555.016,64.814 555.2,65.172 555.2,65.66 C555.2,66.188 555.012,66.578 554.636,66.83 C554.26,67.082 553.732,67.208 553.052,67.208 L553.052,67.208 Z M562.184,68 L562.184,67.148 L558.74,67.148 L558.74,60.128 L557.744,60.128 L557.744,68 L562.184,68 Z M568.232,68 L568.232,67.148 L564.572,67.148 L564.572,64.292 L567.56,64.292 L567.56,63.44 L564.572,63.44 L564.572,60.968 L568.112,60.968 L568.112,60.128 L563.576,60.128 L563.576,68 L568.232,68 Z M576.74,68 L576.74,67.148 L573.296,67.148 L573.296,60.128 L572.3,60.128 L572.3,68 L576.74,68 Z M582.788,68 L582.788,67.148 L579.128,67.148 L579.128,64.292 L582.116,64.292 L582.116,63.44 L579.128,63.44 L579.128,60.968 L582.668,60.968 L582.668,60.128 L578.132,60.128 L578.132,68 L582.788,68 Z M585.404,68 L585.404,63.884 C585.404,63.468 585.39,63.054 585.362,62.642 C585.334,62.23 585.304,61.824 585.272,61.424 L585.272,61.424 L585.32,61.424 L586.172,63.044 L589.028,68 L590.06,68 L590.06,60.128 L589.112,60.128 L589.112,64.196 C589.112,64.612 589.126,65.034 589.154,65.462 C589.182,65.89 589.208,66.304 589.232,66.704 L589.232,66.704 L589.184,66.704 L588.332,65.072 L585.488,60.128 L584.456,60.128 L584.456,68 L585.404,68 Z M594.236,68 C594.828,68 595.352,67.91 595.808,67.73 C596.264,67.55 596.648,67.29 596.96,66.95 C597.272,66.61 597.508,66.194 597.668,65.702 C597.828,65.21 597.908,64.652 597.908,64.028 C597.908,62.772 597.592,61.808 596.96,61.136 C596.328,60.464 595.404,60.128 594.188,60.128 L594.188,60.128 L592.22,60.128 L592.22,68 L594.236,68 Z M594.116,67.184 L593.216,67.184 L593.216,60.944 L594.116,60.944 C595.036,60.944 595.726,61.208 596.186,61.736 C596.646,62.264 596.876,63.028 596.876,64.028 C596.876,65.028 596.646,65.804 596.186,66.356 C595.726,66.908 595.036,67.184 594.116,67.184 L594.116,67.184 Z M600.596,68 L600.596,60.128 L599.6,60.128 L599.6,68 L600.596,68 Z M603.704,68 L603.704,63.884 C603.704,63.468 603.69,63.054 603.662,62.642 C603.634,62.23 603.604,61.824 603.572,61.424 L603.572,61.424 L603.62,61.424 L604.472,63.044 L607.328,68 L608.36,68 L608.36,60.128 L607.412,60.128 L607.412,64.196 C607.412,64.612 607.426,65.034 607.454,65.462 C607.482,65.89 607.508,66.304 607.532,66.704 L607.532,66.704 L607.484,66.704 L606.632,65.072 L603.788,60.128 L602.756,60.128 L602.756,68 L603.704,68 Z M613.616,68.144 C614.144,68.144 614.616,68.058 615.032,67.886 C615.448,67.714 615.784,67.496 616.04,67.232 L616.04,67.232 L616.04,63.92 L613.46,63.92 L613.46,64.748 L615.128,64.748 L615.128,66.8 C614.968,66.944 614.762,67.058 614.51,67.142 C614.258,67.226 613.992,67.268 613.712,67.268 C613.288,67.268 612.914,67.192 612.59,67.04 C612.266,66.888 611.994,66.672 611.774,66.392 C611.554,66.112 611.386,65.774 611.27,65.378 C611.154,64.982 611.096,64.536 611.096,64.04 C611.096,63.552 611.158,63.112 611.282,62.72 C611.406,62.328 611.58,61.994 611.804,61.718 C612.028,61.442 612.3,61.23 612.62,61.082 C612.94,60.934 613.3,60.86 613.7,60.86 C614.1,60.86 614.432,60.932 614.696,61.076 C614.96,61.22 615.192,61.396 615.392,61.604 L615.392,61.604 L615.944,60.956 C615.832,60.836 615.702,60.718 615.554,60.602 C615.406,60.486 615.238,60.382 615.05,60.29 C614.862,60.198 614.654,60.124 614.426,60.068 C614.198,60.012 613.948,59.984 613.676,59.984 C613.156,59.984 612.674,60.078 612.23,60.266 C611.786,60.454 611.404,60.724 611.084,61.076 C610.764,61.428 610.514,61.856 610.334,62.36 C610.154,62.864 610.064,63.432 610.064,64.064 C610.064,64.704 610.152,65.278 610.328,65.786 C610.504,66.294 610.748,66.722 611.06,67.07 C611.372,67.418 611.746,67.684 612.182,67.868 C612.618,68.052 613.096,68.144 613.616,68.144 Z M551.936,84.32 L551.936,83.072 C552.56,82.936 553.028,82.662 553.34,82.25 C553.652,81.838 553.808,81.344 553.808,80.768 C553.808,80.384 553.73,80.062 553.574,79.802 C553.418,79.542 553.222,79.32 552.986,79.136 C552.75,78.952 552.496,78.796 552.224,78.668 C551.952,78.54 551.698,78.416 551.462,78.296 C551.226,78.176 551.03,78.05 550.874,77.918 C550.718,77.786 550.64,77.624 550.64,77.432 C550.64,77.16 550.716,76.964 550.868,76.844 C551.02,76.724 551.24,76.664 551.528,76.664 C551.784,76.664 552.012,76.714 552.212,76.814 C552.412,76.914 552.62,77.064 552.836,77.264 L552.836,77.264 L553.724,76.256 C553.492,76.008 553.232,75.796 552.944,75.62 C552.656,75.444 552.32,75.328 551.936,75.272 L551.936,75.272 L551.936,74.06 L550.772,74.06 L550.772,75.296 C550.204,75.408 549.758,75.658 549.434,76.046 C549.11,76.434 548.948,76.924 548.948,77.516 C548.948,77.876 549.026,78.18 549.182,78.428 C549.338,78.676 549.534,78.892 549.77,79.076 C550.006,79.26 550.26,79.418 550.532,79.55 C550.804,79.682 551.058,79.814 551.294,79.946 C551.53,80.078 551.726,80.216 551.882,80.36 C552.038,80.504 552.116,80.68 552.116,80.888 C552.116,81.168 552.038,81.376 551.882,81.512 C551.726,81.648 551.48,81.716 551.144,81.716 C550.856,81.716 550.574,81.658 550.298,81.542 C550.022,81.426 549.732,81.252 549.428,81.02 L549.428,81.02 L548.66,82.208 C548.94,82.464 549.274,82.67 549.662,82.826 C550.05,82.982 550.42,83.08 550.772,83.12 L550.772,83.12 L550.772,84.32 L551.936,84.32 Z M557.444,83.144 C557.828,83.144 558.192,83.094 558.536,82.994 C558.88,82.894 559.18,82.75 559.436,82.562 C559.692,82.374 559.896,82.142 560.048,81.866 C560.2,81.59 560.276,81.276 560.276,80.924 C560.276,80.428 560.134,80.026 559.85,79.718 C559.566,79.41 559.204,79.192 558.764,79.064 L558.764,79.064 L558.764,79.016 C559.172,78.84 559.486,78.614 559.706,78.338 C559.926,78.062 560.036,77.724 560.036,77.324 C560.036,76.988 559.972,76.692 559.844,76.436 C559.716,76.18 559.538,75.962 559.31,75.782 C559.082,75.602 558.806,75.466 558.482,75.374 C558.158,75.282 557.8,75.236 557.408,75.236 C556.936,75.236 556.506,75.322 556.118,75.494 C555.73,75.666 555.36,75.904 555.008,76.208 L555.008,76.208 L555.896,77.288 C556.136,77.08 556.366,76.916 556.586,76.796 C556.806,76.676 557.052,76.616 557.324,76.616 C557.628,76.616 557.86,76.69 558.02,76.838 C558.18,76.986 558.26,77.192 558.26,77.456 C558.26,77.608 558.23,77.746 558.17,77.87 C558.11,77.994 558.01,78.102 557.87,78.194 C557.73,78.286 557.546,78.356 557.318,78.404 C557.09,78.452 556.804,78.476 556.46,78.476 L556.46,78.476 L556.46,79.724 C556.876,79.724 557.216,79.75 557.48,79.802 C557.744,79.854 557.952,79.926 558.104,80.018 C558.256,80.11 558.362,80.224 558.422,80.36 C558.482,80.496 558.512,80.648 558.512,80.816 C558.512,81.104 558.4,81.326 558.176,81.482 C557.952,81.638 557.652,81.716 557.276,81.716 C556.948,81.716 556.646,81.644 556.37,81.5 C556.094,81.356 555.84,81.172 555.608,80.948 L555.608,80.948 L554.792,82.064 C555.072,82.392 555.428,82.654 555.86,82.85 C556.292,83.046 556.82,83.144 557.444,83.144 Z M562.664,83.144 C562.968,83.144 563.222,83.038 563.426,82.826 C563.63,82.614 563.732,82.352 563.732,82.04 C563.732,81.72 563.63,81.454 563.426,81.242 C563.222,81.03 562.968,80.924 562.664,80.924 C562.36,80.924 562.106,81.03 561.902,81.242 C561.698,81.454 561.596,81.72 561.596,82.04 C561.596,82.352 561.698,82.614 561.902,82.826 C562.106,83.038 562.36,83.144 562.664,83.144 Z M570.152,83 L570.152,81.572 L568.724,81.572 L568.724,75.38 L567.428,75.38 C567.156,75.54 566.876,75.676 566.588,75.788 C566.3,75.9 565.948,75.996 565.532,76.076 L565.532,76.076 L565.532,77.168 L566.96,77.168 L566.96,81.572 L565.304,81.572 L565.304,83 L570.152,83 Z M573.764,83.144 C574.132,83.144 574.486,83.084 574.826,82.964 C575.166,82.844 575.464,82.67 575.72,82.442 C575.976,82.214 576.18,81.936 576.332,81.608 C576.484,81.28 576.56,80.904 576.56,80.48 C576.56,80.072 576.496,79.72 576.368,79.424 C576.24,79.128 576.064,78.884 575.84,78.692 C575.616,78.5 575.358,78.356 575.066,78.26 C574.774,78.164 574.464,78.116 574.136,78.116 C573.976,78.116 573.83,78.13 573.698,78.158 C573.566,78.186 573.428,78.232 573.284,78.296 L573.284,78.296 L573.416,76.868 L576.212,76.868 L576.212,75.38 L571.892,75.38 L571.676,79.232 L572.468,79.736 C572.58,79.664 572.682,79.604 572.774,79.556 C572.866,79.508 572.954,79.468 573.038,79.436 C573.122,79.404 573.208,79.382 573.296,79.37 C573.384,79.358 573.484,79.352 573.596,79.352 C573.956,79.352 574.246,79.452 574.466,79.652 C574.686,79.852 574.796,80.144 574.796,80.528 C574.796,80.92 574.68,81.216 574.448,81.416 C574.216,81.616 573.904,81.716 573.512,81.716 C573.184,81.716 572.886,81.642 572.618,81.494 C572.35,81.346 572.1,81.168 571.868,80.96 L571.868,80.96 L571.076,82.076 C571.38,82.38 571.748,82.634 572.18,82.838 C572.612,83.042 573.14,83.144 573.764,83.144 Z M581.36,83 L581.36,76.664 L583.508,76.664 L583.508,75.176 L577.436,75.176 L577.436,76.664 L579.584,76.664 L579.584,83 L581.36,83 Z" id="AVAILABLELENDING$3.15T" fill="#666666" fill-rule="nonzero"></path>
                <line x1="471.5" y1="39.5" x2="471.5" y2="27.5" id="Line-14" stroke="#D8D8D8" stroke-linecap="round" stroke-linejoin="round" stroke-dasharray="3,3"></line>
                <line x1="565.5" y1="98" x2="565.5" y2="90" id="Line-14-Copy-5" stroke="#979797" stroke-width="0.5" stroke-linecap="square"></line>
                <line x1="92.5" y1="98" x2="92.5" y2="90" id="Line-14-Copy" stroke="#979797" stroke-width="0.5" stroke-linecap="square"></line>
                <g id="Group-4" transform="translate(0.000000, 100.000000)">
                    <rect id="Rectangle-Copy-20" fill="#6F41A7" x="0" y="0" width="183" height="40"></rect>
                    <rect id="Rectangle-Copy-15" fill="#DAD1E4" x="188" y="0" width="755" height="40"></rect>
                </g>
            </g>
        </g>
    </g>
</svg>