<?xml version="1.0" encoding="UTF-8"?>
<svg width="340px" height="139px" viewBox="0 0 340 139" version="1.1" xmlns="http://www.w3.org/2000/svg" xmlns:xlink="http://www.w3.org/1999/xlink">
    <title>Viz-1-B-Mobile</title>
    <defs>
        <rect id="path-1" x="220" y="77" width="75" height="40"></rect>
        <mask id="mask-2" maskContentUnits="userSpaceOnUse" maskUnits="objectBoundingBox" x="0" y="0" width="75" height="40" fill="white">
            <use xlink:href="#path-1"></use>
        </mask>
    </defs>
    <g id="SVG-2.0" stroke="none" stroke-width="1" fill="none" fill-rule="evenodd">
        <g id="Mobile-Outline" transform="translate(-15.000000, -350.000000)">
            <g id="Viz-1-B-Mobile" transform="translate(16.000000, 344.000000)">
                <g id="Group-2" transform="translate(0.000000, 28.000000)">
                    <path d="M53.61,39 L53.61,34.884 C53.61,34.468 53.596,34.054 53.568,33.642 C53.54,33.23 53.51,32.824 53.478,32.424 L53.478,32.424 L53.526,32.424 L54.378,34.044 L57.234,39 L58.266,39 L58.266,31.128 L57.318,31.128 L57.318,35.196 C57.318,35.612 57.332,36.034 57.36,36.462 C57.388,36.89 57.414,37.304 57.438,37.704 L57.438,37.704 L57.39,37.704 L56.538,36.072 L53.694,31.128 L52.662,31.128 L52.662,39 L53.61,39 Z M65.082,39 L65.082,38.148 L61.422,38.148 L61.422,35.292 L64.41,35.292 L64.41,34.44 L61.422,34.44 L61.422,31.968 L64.962,31.968 L64.962,31.128 L60.426,31.128 L60.426,39 L65.082,39 Z M68.802,39 L69.966,34.26 C70.03,33.956 70.096,33.658 70.164,33.366 C70.232,33.074 70.298,32.776 70.362,32.472 L70.362,32.472 L70.41,32.472 C70.474,32.776 70.536,33.074 70.596,33.366 C70.656,33.658 70.722,33.956 70.794,34.26 L70.794,34.26 L71.982,39 L73.182,39 L74.814,31.128 L73.854,31.128 L73.026,35.412 C72.946,35.836 72.87,36.258 72.798,36.678 C72.726,37.098 72.654,37.524 72.582,37.956 L72.582,37.956 L72.534,37.956 C72.438,37.524 72.342,37.096 72.246,36.672 C72.15,36.248 72.054,35.828 71.958,35.412 L71.958,35.412 L70.866,31.128 L69.954,31.128 L68.862,35.412 C68.774,35.836 68.682,36.258 68.586,36.678 C68.49,37.098 68.398,37.524 68.31,37.956 L68.31,37.956 L68.262,37.956 C68.19,37.524 68.114,37.1 68.034,36.684 L67.917,36.054 L67.917,36.054 L67.806,35.412 L66.978,31.128 L65.946,31.128 L67.614,39 L68.802,39 Z M78.558,39 L79.314,36.6 L82.182,36.6 L82.926,39 L83.994,39 L81.33,31.128 L80.202,31.128 L77.538,39 L78.558,39 Z M81.93,35.796 L79.566,35.796 L79.938,34.596 C80.082,34.156 80.218,33.718 80.346,33.282 C80.474,32.846 80.598,32.4 80.718,31.944 L80.718,31.944 L80.766,31.944 C80.894,32.4 81.022,32.846 81.15,33.282 C81.278,33.718 81.414,34.156 81.558,34.596 L81.558,34.596 L81.93,35.796 Z M88.086,39.144 C88.614,39.144 89.086,39.058 89.502,38.886 C89.918,38.714 90.254,38.496 90.51,38.232 L90.51,38.232 L90.51,34.92 L87.93,34.92 L87.93,35.748 L89.598,35.748 L89.598,37.8 C89.438,37.944 89.232,38.058 88.98,38.142 C88.728,38.226 88.462,38.268 88.182,38.268 C87.758,38.268 87.384,38.192 87.06,38.04 C86.736,37.888 86.464,37.672 86.244,37.392 C86.024,37.112 85.856,36.774 85.74,36.378 C85.624,35.982 85.566,35.536 85.566,35.04 C85.566,34.552 85.628,34.112 85.752,33.72 C85.876,33.328 86.05,32.994 86.274,32.718 C86.498,32.442 86.77,32.23 87.09,32.082 C87.41,31.934 87.77,31.86 88.17,31.86 C88.57,31.86 88.902,31.932 89.166,32.076 C89.43,32.22 89.662,32.396 89.862,32.604 L89.862,32.604 L90.414,31.956 C90.302,31.836 90.172,31.718 90.024,31.602 C89.876,31.486 89.708,31.382 89.52,31.29 C89.332,31.198 89.124,31.124 88.896,31.068 C88.668,31.012 88.418,30.984 88.146,30.984 C87.626,30.984 87.144,31.078 86.7,31.266 C86.256,31.454 85.874,31.724 85.554,32.076 C85.234,32.428 84.984,32.856 84.804,33.36 C84.624,33.864 84.534,34.432 84.534,35.064 C84.534,35.704 84.622,36.278 84.798,36.786 C84.974,37.294 85.218,37.722 85.53,38.07 C85.842,38.418 86.216,38.684 86.652,38.868 C87.088,39.052 87.566,39.144 88.086,39.144 Z M97.05,39 L97.05,38.148 L93.39,38.148 L93.39,35.292 L96.378,35.292 L96.378,34.44 L93.39,34.44 L93.39,31.968 L96.93,31.968 L96.93,31.128 L92.394,31.128 L92.394,39 L97.05,39 Z M99.666,39 L99.666,34.884 C99.666,34.468 99.652,34.054 99.624,33.642 C99.596,33.23 99.566,32.824 99.534,32.424 L99.534,32.424 L99.582,32.424 L100.434,34.044 L103.29,39 L104.322,39 L104.322,31.128 L103.374,31.128 L103.374,35.196 C103.374,35.612 103.388,36.034 103.416,36.462 C103.444,36.89 103.47,37.304 103.494,37.704 L103.494,37.704 L103.446,37.704 L102.594,36.072 L99.75,31.128 L98.718,31.128 L98.718,39 L99.666,39 Z M109.458,39.144 C109.97,39.144 110.422,39.044 110.814,38.844 C111.206,38.644 111.558,38.364 111.87,38.004 L111.87,38.004 L111.318,37.38 C111.062,37.66 110.79,37.878 110.502,38.034 C110.214,38.19 109.878,38.268 109.494,38.268 C109.118,38.268 108.78,38.192 108.48,38.04 C108.18,37.888 107.926,37.672 107.718,37.392 C107.51,37.112 107.348,36.774 107.232,36.378 C107.116,35.982 107.058,35.536 107.058,35.04 C107.058,34.552 107.116,34.112 107.232,33.72 C107.348,33.328 107.514,32.994 107.73,32.718 C107.946,32.442 108.206,32.23 108.51,32.082 C108.814,31.934 109.154,31.86 109.53,31.86 C109.866,31.86 110.166,31.928 110.43,32.064 C110.694,32.2 110.93,32.38 111.138,32.604 L111.138,32.604 L111.678,31.956 C111.446,31.7 111.148,31.474 110.784,31.278 C110.42,31.082 109.998,30.984 109.518,30.984 C109.014,30.984 108.55,31.078 108.126,31.266 C107.702,31.454 107.334,31.724 107.022,32.076 C106.71,32.428 106.466,32.856 106.29,33.36 C106.114,33.864 106.026,34.432 106.026,35.064 C106.026,35.704 106.112,36.278 106.284,36.786 C106.456,37.294 106.696,37.722 107.004,38.07 C107.312,38.418 107.674,38.684 108.09,38.868 C108.506,39.052 108.962,39.144 109.458,39.144 Z M115.53,39 L115.53,35.952 L117.894,31.128 L116.85,31.128 L115.842,33.348 C115.722,33.636 115.594,33.92 115.458,34.2 C115.322,34.48 115.186,34.768 115.05,35.064 L115.05,35.064 L115.002,35.064 C114.866,34.768 114.738,34.48 114.618,34.2 C114.498,33.92 114.374,33.636 114.246,33.348 L114.246,33.348 L113.226,31.128 L112.158,31.128 L114.522,35.952 L114.522,39 L115.53,39 Z M122.358,39 L122.358,35.472 L125.358,35.472 L125.358,34.632 L122.358,34.632 L122.358,31.968 L125.898,31.968 L125.898,31.128 L121.362,31.128 L121.362,39 L122.358,39 Z M130.086,39.144 C130.486,39.144 130.858,39.086 131.202,38.97 C131.546,38.854 131.844,38.662 132.096,38.394 C132.348,38.126 132.546,37.776 132.69,37.344 C132.834,36.912 132.906,36.38 132.906,35.748 L132.906,35.748 L132.906,31.128 L131.946,31.128 L131.946,35.772 C131.946,36.244 131.898,36.64 131.802,36.96 C131.706,37.28 131.574,37.536 131.406,37.728 C131.238,37.92 131.042,38.058 130.818,38.142 C130.594,38.226 130.35,38.268 130.086,38.268 C129.83,38.268 129.59,38.226 129.366,38.142 C129.142,38.058 128.948,37.92 128.784,37.728 C128.62,37.536 128.49,37.28 128.394,36.96 C128.298,36.64 128.25,36.244 128.25,35.772 L128.25,35.772 L128.25,31.128 L127.254,31.128 L127.254,35.748 C127.254,36.38 127.326,36.912 127.47,37.344 C127.614,37.776 127.812,38.126 128.064,38.394 C128.316,38.662 128.616,38.854 128.964,38.97 C129.312,39.086 129.686,39.144 130.086,39.144 Z M135.978,39 L135.978,34.884 C135.978,34.468 135.964,34.054 135.936,33.642 C135.908,33.23 135.878,32.824 135.846,32.424 L135.846,32.424 L135.894,32.424 L136.746,34.044 L139.602,39 L140.634,39 L140.634,31.128 L139.686,31.128 L139.686,35.196 C139.686,35.612 139.7,36.034 139.728,36.462 C139.756,36.89 139.782,37.304 139.806,37.704 L139.806,37.704 L139.758,37.704 L138.906,36.072 L136.062,31.128 L135.03,31.128 L135.03,39 L135.978,39 Z M144.81,39 C145.402,39 145.926,38.91 146.382,38.73 C146.838,38.55 147.222,38.29 147.534,37.95 C147.846,37.61 148.082,37.194 148.242,36.702 C148.402,36.21 148.482,35.652 148.482,35.028 C148.482,33.772 148.166,32.808 147.534,32.136 C146.902,31.464 145.978,31.128 144.762,31.128 L144.762,31.128 L142.794,31.128 L142.794,39 L144.81,39 Z M144.69,38.184 L143.79,38.184 L143.79,31.944 L144.69,31.944 C145.61,31.944 146.3,32.208 146.76,32.736 C147.22,33.264 147.45,34.028 147.45,35.028 C147.45,36.028 147.22,36.804 146.76,37.356 C146.3,37.908 145.61,38.184 144.69,38.184 L144.69,38.184 Z M151.17,39 L151.17,31.128 L150.174,31.128 L150.174,39 L151.17,39 Z M154.278,39 L154.278,34.884 C154.278,34.468 154.264,34.054 154.236,33.642 C154.208,33.23 154.178,32.824 154.146,32.424 L154.146,32.424 L154.194,32.424 L155.046,34.044 L157.902,39 L158.934,39 L158.934,31.128 L157.986,31.128 L157.986,35.196 C157.986,35.612 158,36.034 158.028,36.462 C158.056,36.89 158.082,37.304 158.106,37.704 L158.106,37.704 L158.058,37.704 L157.206,36.072 L154.362,31.128 L153.33,31.128 L153.33,39 L154.278,39 Z M164.19,39.144 C164.718,39.144 165.19,39.058 165.606,38.886 C166.022,38.714 166.358,38.496 166.614,38.232 L166.614,38.232 L166.614,34.92 L164.034,34.92 L164.034,35.748 L165.702,35.748 L165.702,37.8 C165.542,37.944 165.336,38.058 165.084,38.142 C164.832,38.226 164.566,38.268 164.286,38.268 C163.862,38.268 163.488,38.192 163.164,38.04 C162.84,37.888 162.568,37.672 162.348,37.392 C162.128,37.112 161.96,36.774 161.844,36.378 C161.728,35.982 161.67,35.536 161.67,35.04 C161.67,34.552 161.732,34.112 161.856,33.72 C161.98,33.328 162.154,32.994 162.378,32.718 C162.602,32.442 162.874,32.23 163.194,32.082 C163.514,31.934 163.874,31.86 164.274,31.86 C164.674,31.86 165.006,31.932 165.27,32.076 C165.534,32.22 165.766,32.396 165.966,32.604 L165.966,32.604 L166.518,31.956 C166.406,31.836 166.276,31.718 166.128,31.602 C165.98,31.486 165.812,31.382 165.624,31.29 C165.436,31.198 165.228,31.124 165,31.068 C164.772,31.012 164.522,30.984 164.25,30.984 C163.73,30.984 163.248,31.078 162.804,31.266 C162.36,31.454 161.978,31.724 161.658,32.076 C161.338,32.428 161.088,32.856 160.908,33.36 C160.728,33.864 160.638,34.432 160.638,35.064 C160.638,35.704 160.726,36.278 160.902,36.786 C161.078,37.294 161.322,37.722 161.634,38.07 C161.946,38.418 162.32,38.684 162.756,38.868 C163.192,39.052 163.67,39.144 164.19,39.144 Z M95.436,55.32 L95.436,54.072 C96.06,53.936 96.528,53.662 96.84,53.25 C97.152,52.838 97.308,52.344 97.308,51.768 C97.308,51.384 97.23,51.062 97.074,50.802 C96.918,50.542 96.722,50.32 96.486,50.136 C96.25,49.952 95.996,49.796 95.724,49.668 C95.452,49.54 95.198,49.416 94.962,49.296 C94.726,49.176 94.53,49.05 94.374,48.918 C94.218,48.786 94.14,48.624 94.14,48.432 C94.14,48.16 94.216,47.964 94.368,47.844 C94.52,47.724 94.74,47.664 95.028,47.664 C95.284,47.664 95.512,47.714 95.712,47.814 C95.912,47.914 96.12,48.064 96.336,48.264 L96.336,48.264 L97.224,47.256 C96.992,47.008 96.732,46.796 96.444,46.62 C96.156,46.444 95.82,46.328 95.436,46.272 L95.436,46.272 L95.436,45.06 L94.272,45.06 L94.272,46.296 C93.704,46.408 93.258,46.658 92.934,47.046 C92.61,47.434 92.448,47.924 92.448,48.516 C92.448,48.876 92.526,49.18 92.682,49.428 C92.838,49.676 93.034,49.892 93.27,50.076 C93.506,50.26 93.76,50.418 94.032,50.55 C94.304,50.682 94.558,50.814 94.794,50.946 C95.03,51.078 95.226,51.216 95.382,51.36 C95.538,51.504 95.616,51.68 95.616,51.888 C95.616,52.168 95.538,52.376 95.382,52.512 C95.226,52.648 94.98,52.716 94.644,52.716 C94.356,52.716 94.074,52.658 93.798,52.542 C93.522,52.426 93.232,52.252 92.928,52.02 L92.928,52.02 L92.16,53.208 C92.44,53.464 92.774,53.67 93.162,53.826 C93.55,53.982 93.92,54.08 94.272,54.12 L94.272,54.12 L94.272,55.32 L95.436,55.32 Z M103.836,54 L103.836,52.512 L102.3,52.512 C102.116,52.512 101.906,52.522 101.67,52.542 C101.434,52.562 101.22,52.584 101.028,52.608 C101.34,52.288 101.642,51.962 101.934,51.63 C102.226,51.298 102.486,50.966 102.714,50.634 C102.942,50.302 103.124,49.97 103.26,49.638 C103.396,49.306 103.464,48.98 103.464,48.66 C103.464,48.292 103.404,47.96 103.284,47.664 C103.164,47.368 102.992,47.114 102.768,46.902 C102.544,46.69 102.278,46.526 101.97,46.41 C101.662,46.294 101.32,46.236 100.944,46.236 C100.4,46.236 99.932,46.338 99.54,46.542 C99.148,46.746 98.764,47.048 98.388,47.448 L98.388,47.448 L99.348,48.396 C99.54,48.188 99.744,48.006 99.96,47.85 C100.176,47.694 100.424,47.616 100.704,47.616 C101.04,47.616 101.304,47.714 101.496,47.91 C101.688,48.106 101.784,48.392 101.784,48.768 C101.784,49.04 101.702,49.326 101.538,49.626 C101.374,49.926 101.146,50.25 100.854,50.598 C100.562,50.946 100.214,51.318 99.81,51.714 C99.406,52.11 98.96,52.536 98.472,52.992 L98.472,52.992 L98.472,54 L103.836,54 Z M106.164,54.144 C106.468,54.144 106.722,54.038 106.926,53.826 C107.13,53.614 107.232,53.352 107.232,53.04 C107.232,52.72 107.13,52.454 106.926,52.242 C106.722,52.03 106.468,51.924 106.164,51.924 C105.86,51.924 105.606,52.03 105.402,52.242 C105.198,52.454 105.096,52.72 105.096,53.04 C105.096,53.352 105.198,53.614 105.402,53.826 C105.606,54.038 105.86,54.144 106.164,54.144 Z M110.928,54.144 C111.296,54.144 111.65,54.084 111.99,53.964 C112.33,53.844 112.628,53.67 112.884,53.442 C113.14,53.214 113.344,52.936 113.496,52.608 C113.648,52.28 113.724,51.904 113.724,51.48 C113.724,51.072 113.66,50.72 113.532,50.424 C113.404,50.128 113.228,49.884 113.004,49.692 C112.78,49.5 112.522,49.356 112.23,49.26 C111.938,49.164 111.628,49.116 111.3,49.116 C111.14,49.116 110.994,49.13 110.862,49.158 C110.73,49.186 110.592,49.232 110.448,49.296 L110.448,49.296 L110.58,47.868 L113.376,47.868 L113.376,46.38 L109.056,46.38 L108.84,50.232 L109.632,50.736 C109.744,50.664 109.846,50.604 109.938,50.556 C110.03,50.508 110.118,50.468 110.202,50.436 C110.286,50.404 110.372,50.382 110.46,50.37 C110.548,50.358 110.648,50.352 110.76,50.352 C111.12,50.352 111.41,50.452 111.63,50.652 C111.85,50.852 111.96,51.144 111.96,51.528 C111.96,51.92 111.844,52.216 111.612,52.416 C111.38,52.616 111.068,52.716 110.676,52.716 C110.348,52.716 110.05,52.642 109.782,52.494 C109.514,52.346 109.264,52.168 109.032,51.96 L109.032,51.96 L108.24,53.076 C108.544,53.38 108.912,53.634 109.344,53.838 C109.776,54.042 110.304,54.144 110.928,54.144 Z M117.048,54.144 C117.448,54.144 117.834,54.062 118.206,53.898 C118.578,53.734 118.906,53.484 119.19,53.148 C119.474,52.812 119.702,52.384 119.874,51.864 C120.046,51.344 120.132,50.728 120.132,50.016 C120.132,49.344 120.05,48.77 119.886,48.294 C119.722,47.818 119.506,47.428 119.238,47.124 C118.97,46.82 118.662,46.596 118.314,46.452 C117.966,46.308 117.608,46.236 117.24,46.236 C116.896,46.236 116.57,46.294 116.262,46.41 C115.954,46.526 115.686,46.696 115.458,46.92 C115.23,47.144 115.048,47.414 114.912,47.73 C114.776,48.046 114.708,48.4 114.708,48.792 C114.708,49.192 114.766,49.54 114.882,49.836 C114.998,50.132 115.156,50.376 115.356,50.568 C115.556,50.76 115.794,50.904 116.07,51 C116.346,51.096 116.648,51.144 116.976,51.144 C117.096,51.144 117.224,51.126 117.36,51.09 C117.496,51.054 117.632,51.002 117.768,50.934 C117.904,50.866 118.036,50.782 118.164,50.682 C118.292,50.582 118.404,50.468 118.5,50.34 C118.484,50.788 118.434,51.162 118.35,51.462 C118.266,51.762 118.154,52.006 118.014,52.194 C117.874,52.382 117.712,52.516 117.528,52.596 C117.344,52.676 117.144,52.716 116.928,52.716 C116.704,52.716 116.484,52.662 116.268,52.554 C116.052,52.446 115.88,52.32 115.752,52.176 L115.752,52.176 L114.816,53.232 C115.056,53.472 115.362,53.684 115.734,53.868 C116.106,54.052 116.544,54.144 117.048,54.144 Z M117.324,49.896 C117.036,49.896 116.796,49.814 116.604,49.65 C116.412,49.486 116.316,49.2 116.316,48.792 C116.316,48.36 116.412,48.046 116.604,47.85 C116.796,47.654 117.02,47.556 117.276,47.556 C117.548,47.556 117.794,47.67 118.014,47.898 C118.234,48.126 118.384,48.54 118.464,49.14 C118.312,49.412 118.134,49.606 117.93,49.722 C117.726,49.838 117.524,49.896 117.324,49.896 Z M124.86,54 L124.86,47.664 L127.008,47.664 L127.008,46.176 L120.936,46.176 L120.936,47.664 L123.084,47.664 L123.084,54 L124.86,54 Z" id="NEWAGENCYFUNDING$2.59T" fill="#666666" fill-rule="nonzero"></path>
                    <path d="M0,77 L0,13 L295,13 L295,77" id="Path-21-Copy-2" stroke="#D8D8D8" stroke-dasharray="3,3"></path>
                    <polyline id="Path-21-Copy-3" stroke="#979797" stroke-width="0.5" points="0 77 0 69 219 69 219 77"></polyline>
                    <line x1="147.5" y1="12.5" x2="147.5" y2="0.5" id="Line-14-Copy-4" stroke="#D8D8D8" stroke-linecap="round" stroke-linejoin="round" stroke-dasharray="3,3"></line>
                    <line x1="109.25" y1="69" x2="109.25" y2="61" id="Line-14-Copy-6" stroke="#979797" stroke-width="0.5" stroke-linecap="square"></line>
                    <g id="Group-10-Copy-4" transform="translate(0.000000, 77.000000)" fill="#6F41A7">
                        <g id="Group-10-Copy-3" transform="translate(0.000000, 0.000000)">
                            <rect id="Rectangle" x="177" y="1.70530257e-13" width="42" height="40"></rect>
                            <rect id="Rectangle-Copy-13" x="4" y="1.70530257e-13" width="172" height="40"></rect>
                            <rect id="Rectangle-Copy-14" x="2" y="1.70530257e-13" width="1" height="40"></rect>
                            <rect id="Rectangle-Copy-17" x="0" y="1.70530257e-13" width="1" height="40"></rect>
                        </g>
                    </g>
                    <path d="M307.72,85 L307.72,77.968 L310.096,77.968 L310.096,77.128 L304.336,77.128 L304.336,77.968 L306.712,77.968 L306.712,85 L307.72,85 Z M311.008,85 L311.764,82.6 L314.632,82.6 L315.376,85 L316.444,85 L313.78,77.128 L312.652,77.128 L309.988,85 L311.008,85 Z M314.38,81.796 L312.016,81.796 L312.388,80.596 C312.532,80.156 312.668,79.718 312.796,79.282 C312.924,78.846 313.048,78.4 313.168,77.944 L313.168,77.944 L313.216,77.944 C313.344,78.4 313.472,78.846 313.6,79.282 C313.728,79.718 313.864,80.156 314.008,80.596 L314.008,80.596 L314.38,81.796 Z M317.764,85 L318.904,82.876 C319,82.684 319.1,82.486 319.204,82.282 C319.308,82.078 319.416,81.856 319.528,81.616 L319.528,81.616 L319.576,81.616 C319.704,81.856 319.822,82.078 319.93,82.282 C320.038,82.486 320.144,82.684 320.248,82.876 L320.248,82.876 L321.4,85 L322.504,85 L320.212,80.98 L322.36,77.128 L321.304,77.128 L320.26,79.144 C320.164,79.328 320.074,79.506 319.99,79.678 C319.906,79.85 319.808,80.052 319.696,80.284 L319.696,80.284 L319.648,80.284 C319.528,80.052 319.422,79.85 319.33,79.678 C319.238,79.506 319.14,79.328 319.036,79.144 L319.036,79.144 L317.968,77.128 L316.864,77.128 L319,80.932 L316.708,85 L317.764,85 Z M306.076,100 L306.076,96.676 L307.504,96.676 L309.4,100 L310.528,100 L308.524,96.568 C309.068,96.432 309.5,96.18 309.82,95.812 C310.14,95.444 310.3,94.952 310.3,94.336 C310.3,93.928 310.232,93.584 310.096,93.304 C309.96,93.024 309.77,92.796 309.526,92.62 C309.282,92.444 308.99,92.318 308.65,92.242 C308.31,92.166 307.94,92.128 307.54,92.128 L307.54,92.128 L305.08,92.128 L305.08,100 L306.076,100 Z M307.396,95.86 L306.076,95.86 L306.076,92.932 L307.396,92.932 C308.012,92.932 308.484,93.036 308.812,93.244 C309.14,93.452 309.304,93.816 309.304,94.336 C309.304,94.848 309.14,95.23 308.812,95.482 C308.484,95.734 308.012,95.86 307.396,95.86 L307.396,95.86 Z M316.564,100 L316.564,99.148 L312.904,99.148 L312.904,96.292 L315.892,96.292 L315.892,95.44 L312.904,95.44 L312.904,92.968 L316.444,92.968 L316.444,92.128 L311.908,92.128 L311.908,100 L316.564,100 Z M322.672,100 L322.672,99.148 L319.228,99.148 L319.228,92.128 L318.232,92.128 L318.232,100 L322.672,100 Z M325.06,100 L325.06,92.128 L324.064,92.128 L324.064,100 L325.06,100 Z M331.876,100 L331.876,99.148 L328.216,99.148 L328.216,96.292 L331.204,96.292 L331.204,95.44 L328.216,95.44 L328.216,92.968 L331.756,92.968 L331.756,92.128 L327.22,92.128 L327.22,100 L331.876,100 Z M334.54,100 L334.54,96.472 L337.54,96.472 L337.54,95.632 L334.54,95.632 L334.54,92.968 L338.08,92.968 L338.08,92.128 L333.544,92.128 L333.544,100 L334.54,100 Z M307.744,116.32 L307.744,115.072 C308.368,114.936 308.836,114.662 309.148,114.25 C309.46,113.838 309.616,113.344 309.616,112.768 C309.616,112.384 309.538,112.062 309.382,111.802 C309.226,111.542 309.03,111.32 308.794,111.136 C308.558,110.952 308.304,110.796 308.032,110.668 C307.76,110.54 307.506,110.416 307.27,110.296 C307.034,110.176 306.838,110.05 306.682,109.918 C306.526,109.786 306.448,109.624 306.448,109.432 C306.448,109.16 306.524,108.964 306.676,108.844 C306.828,108.724 307.048,108.664 307.336,108.664 C307.592,108.664 307.82,108.714 308.02,108.814 C308.22,108.914 308.428,109.064 308.644,109.264 L308.644,109.264 L309.532,108.256 C309.3,108.008 309.04,107.796 308.752,107.62 C308.464,107.444 308.128,107.328 307.744,107.272 L307.744,107.272 L307.744,106.06 L306.58,106.06 L306.58,107.296 C306.012,107.408 305.566,107.658 305.242,108.046 C304.918,108.434 304.756,108.924 304.756,109.516 C304.756,109.876 304.834,110.18 304.99,110.428 C305.146,110.676 305.342,110.892 305.578,111.076 C305.814,111.26 306.068,111.418 306.34,111.55 C306.612,111.682 306.866,111.814 307.102,111.946 C307.338,112.078 307.534,112.216 307.69,112.36 C307.846,112.504 307.924,112.68 307.924,112.888 C307.924,113.168 307.846,113.376 307.69,113.512 C307.534,113.648 307.288,113.716 306.952,113.716 C306.664,113.716 306.382,113.658 306.106,113.542 C305.83,113.426 305.54,113.252 305.236,113.02 L305.236,113.02 L304.468,114.208 C304.748,114.464 305.082,114.67 305.47,114.826 C305.858,114.982 306.228,115.08 306.58,115.12 L306.58,115.12 L306.58,116.32 L307.744,116.32 Z M313.084,115.144 C313.484,115.144 313.87,115.062 314.242,114.898 C314.614,114.734 314.942,114.484 315.226,114.148 C315.51,113.812 315.738,113.384 315.91,112.864 C316.082,112.344 316.168,111.728 316.168,111.016 C316.168,110.344 316.086,109.77 315.922,109.294 C315.758,108.818 315.542,108.428 315.274,108.124 C315.006,107.82 314.698,107.596 314.35,107.452 C314.002,107.308 313.644,107.236 313.276,107.236 C312.932,107.236 312.606,107.294 312.298,107.41 C311.99,107.526 311.722,107.696 311.494,107.92 C311.266,108.144 311.084,108.414 310.948,108.73 C310.812,109.046 310.744,109.4 310.744,109.792 C310.744,110.192 310.802,110.54 310.918,110.836 C311.034,111.132 311.192,111.376 311.392,111.568 C311.592,111.76 311.83,111.904 312.106,112 C312.382,112.096 312.684,112.144 313.012,112.144 C313.132,112.144 313.26,112.126 313.396,112.09 C313.532,112.054 313.668,112.002 313.804,111.934 C313.94,111.866 314.072,111.782 314.2,111.682 C314.328,111.582 314.44,111.468 314.536,111.34 C314.52,111.788 314.47,112.162 314.386,112.462 C314.302,112.762 314.19,113.006 314.05,113.194 C313.91,113.382 313.748,113.516 313.564,113.596 C313.38,113.676 313.18,113.716 312.964,113.716 C312.74,113.716 312.52,113.662 312.304,113.554 C312.088,113.446 311.916,113.32 311.788,113.176 L311.788,113.176 L310.852,114.232 C311.092,114.472 311.398,114.684 311.77,114.868 C312.142,115.052 312.58,115.144 313.084,115.144 Z M313.36,110.896 C313.072,110.896 312.832,110.814 312.64,110.65 C312.448,110.486 312.352,110.2 312.352,109.792 C312.352,109.36 312.448,109.046 312.64,108.85 C312.832,108.654 313.056,108.556 313.312,108.556 C313.584,108.556 313.83,108.67 314.05,108.898 C314.27,109.126 314.42,109.54 314.5,110.14 C314.348,110.412 314.17,110.606 313.966,110.722 C313.762,110.838 313.56,110.896 313.36,110.896 Z M319.84,115.144 C320.248,115.144 320.62,115.058 320.956,114.886 C321.292,114.714 321.578,114.46 321.814,114.124 C322.05,113.788 322.234,113.372 322.366,112.876 C322.498,112.38 322.564,111.808 322.564,111.16 C322.564,110.512 322.498,109.944 322.366,109.456 C322.234,108.968 322.05,108.558 321.814,108.226 C321.578,107.894 321.292,107.646 320.956,107.482 C320.62,107.318 320.248,107.236 319.84,107.236 C319.432,107.236 319.06,107.318 318.724,107.482 C318.388,107.646 318.102,107.894 317.866,108.226 C317.63,108.558 317.446,108.968 317.314,109.456 C317.182,109.944 317.116,110.512 317.116,111.16 C317.116,111.808 317.182,112.38 317.314,112.876 C317.446,113.372 317.63,113.788 317.866,114.124 C318.102,114.46 318.388,114.714 318.724,114.886 C319.06,115.058 319.432,115.144 319.84,115.144 Z M319.84,113.776 C319.696,113.776 319.56,113.738 319.432,113.662 C319.304,113.586 319.192,113.448 319.096,113.248 C319,113.048 318.924,112.78 318.868,112.444 C318.812,112.108 318.784,111.68 318.784,111.16 C318.784,110.64 318.812,110.214 318.868,109.882 C318.924,109.55 319,109.29 319.096,109.102 C319.192,108.914 319.304,108.784 319.432,108.712 C319.56,108.64 319.696,108.604 319.84,108.604 C319.992,108.604 320.132,108.64 320.26,108.712 C320.388,108.784 320.5,108.914 320.596,109.102 C320.692,109.29 320.766,109.55 320.818,109.882 C320.87,110.214 320.896,110.64 320.896,111.16 C320.896,111.68 320.87,112.108 320.818,112.444 C320.766,112.78 320.692,113.048 320.596,113.248 C320.5,113.448 320.388,113.586 320.26,113.662 C320.132,113.738 319.992,113.776 319.84,113.776 Z M328.816,115 L328.816,113.512 L327.28,113.512 C327.096,113.512 326.886,113.522 326.65,113.542 C326.414,113.562 326.2,113.584 326.008,113.608 C326.32,113.288 326.622,112.962 326.914,112.63 C327.206,112.298 327.466,111.966 327.694,111.634 C327.922,111.302 328.104,110.97 328.24,110.638 C328.376,110.306 328.444,109.98 328.444,109.66 C328.444,109.292 328.384,108.96 328.264,108.664 C328.144,108.368 327.972,108.114 327.748,107.902 C327.524,107.69 327.258,107.526 326.95,107.41 C326.642,107.294 326.3,107.236 325.924,107.236 C325.38,107.236 324.912,107.338 324.52,107.542 C324.128,107.746 323.744,108.048 323.368,108.448 L323.368,108.448 L324.328,109.396 C324.52,109.188 324.724,109.006 324.94,108.85 C325.156,108.694 325.404,108.616 325.684,108.616 C326.02,108.616 326.284,108.714 326.476,108.91 C326.668,109.106 326.764,109.392 326.764,109.768 C326.764,110.04 326.682,110.326 326.518,110.626 C326.354,110.926 326.126,111.25 325.834,111.598 C325.542,111.946 325.194,112.318 324.79,112.714 C324.386,113.11 323.94,113.536 323.452,113.992 L323.452,113.992 L323.452,115 L328.816,115 Z M333.172,115 C333.596,115 333.992,114.954 334.36,114.862 C334.728,114.77 335.05,114.63 335.326,114.442 C335.602,114.254 335.818,114.016 335.974,113.728 C336.13,113.44 336.208,113.096 336.208,112.696 C336.208,112.432 336.172,112.198 336.1,111.994 C336.028,111.79 335.928,111.612 335.8,111.46 C335.672,111.308 335.524,111.182 335.356,111.082 C335.188,110.982 335.004,110.908 334.804,110.86 L334.804,110.86 L334.804,110.812 C334.964,110.756 335.106,110.668 335.23,110.548 C335.354,110.428 335.46,110.292 335.548,110.14 C335.636,109.988 335.704,109.824 335.752,109.648 C335.8,109.472 335.824,109.296 335.824,109.12 C335.824,108.744 335.75,108.432 335.602,108.184 C335.454,107.936 335.25,107.736 334.99,107.584 C334.73,107.432 334.426,107.326 334.078,107.266 C333.73,107.206 333.352,107.176 332.944,107.176 L332.944,107.176 L330.268,107.176 L330.268,115 L333.172,115 Z M332.86,110.308 L332.032,110.308 L332.032,108.544 L332.872,108.544 C333.288,108.544 333.596,108.608 333.796,108.736 C333.996,108.864 334.096,109.08 334.096,109.384 C334.096,109.664 333.998,109.888 333.802,110.056 C333.606,110.224 333.292,110.308 332.86,110.308 L332.86,110.308 Z M333.028,113.632 L332.032,113.632 L332.032,111.616 L333.028,111.616 C333.516,111.616 333.88,111.69 334.12,111.838 C334.36,111.986 334.48,112.232 334.48,112.576 C334.48,113.28 333.996,113.632 333.028,113.632 L333.028,113.632 Z" id="TAXRELIEF$902B" fill="#666666" fill-rule="nonzero"></path>
                    <line x1="297.5" y1="96.5" x2="301.5" y2="96.5" id="Line-14-Copy-3" stroke="#979797" stroke-width="0.5" stroke-linecap="square"></line>
                    <use id="Rectangle-Copy-2" stroke="#979797" mask="url(#mask-2)" stroke-width="2" fill="#E1E1E1" stroke-dasharray="4,3" xlink:href="#path-1"></use>
                </g>
                <path d="M4.96,18 L4.96,8.624 L8.128,8.624 L8.128,7.504 L0.448,7.504 L0.448,8.624 L3.616,8.624 L3.616,18 L4.96,18 Z M11.856,18.192 C12.336,18.192 12.792,18.1013333 13.224,17.92 C13.656,17.7386667 14.0373333,17.4746667 14.368,17.128 C14.6986667,16.7813333 14.9626667,16.3546667 15.16,15.848 C15.3573333,15.3413333 15.456,14.768 15.456,14.128 C15.456,13.4773333 15.3573333,12.8986667 15.16,12.392 C14.9626667,11.8853333 14.6986667,11.456 14.368,11.104 C14.0373333,10.752 13.656,10.4853333 13.224,10.304 C12.792,10.1226667 12.336,10.032 11.856,10.032 C11.376,10.032 10.92,10.1226667 10.488,10.304 C10.056,10.4853333 9.67466667,10.752 9.344,11.104 C9.01333333,11.456 8.74933333,11.8853333 8.552,12.392 C8.35466667,12.8986667 8.256,13.4773333 8.256,14.128 C8.256,14.768 8.35466667,15.3413333 8.552,15.848 C8.74933333,16.3546667 9.01333333,16.7813333 9.344,17.128 C9.67466667,17.4746667 10.056,17.7386667 10.488,17.92 C10.92,18.1013333 11.376,18.192 11.856,18.192 Z M11.856,17.104 C11.5253333,17.104 11.2213333,17.032 10.944,16.888 C10.6666667,16.744 10.4293333,16.5413333 10.232,16.28 C10.0346667,16.0186667 9.88266667,15.7066667 9.776,15.344 C9.66933333,14.9813333 9.616,14.576 9.616,14.128 C9.616,13.68 9.66933333,13.272 9.776,12.904 C9.88266667,12.536 10.0346667,12.2186667 10.232,11.952 C10.4293333,11.6853333 10.6666667,11.48 10.944,11.336 C11.2213333,11.192 11.5253333,11.12 11.856,11.12 C12.1866667,11.12 12.4906667,11.192 12.768,11.336 C13.0453333,11.48 13.2826667,11.6853333 13.48,11.952 C13.6773333,12.2186667 13.8293333,12.536 13.936,12.904 C14.0426667,13.272 14.096,13.68 14.096,14.128 C14.096,14.576 14.0426667,14.9813333 13.936,15.344 C13.8293333,15.7066667 13.6773333,16.0186667 13.48,16.28 C13.2826667,16.5413333 13.0453333,16.744 12.768,16.888 C12.4906667,17.032 12.1866667,17.104 11.856,17.104 Z M19.68,18.192 C19.9253333,18.192 20.1733333,18.1626667 20.424,18.104 C20.6746667,18.0453333 20.9066667,17.9786667 21.12,17.904 L21.12,17.904 L20.864,16.912 C20.736,16.9653333 20.592,17.0133333 20.432,17.056 C20.272,17.0986667 20.1226667,17.12 19.984,17.12 C19.536,17.12 19.224,16.9893333 19.048,16.728 C18.872,16.4666667 18.784,16.096 18.784,15.616 L18.784,15.616 L18.784,11.296 L20.88,11.296 L20.88,10.224 L18.784,10.224 L18.784,8.048 L17.68,8.048 L17.52,10.224 L16.304,10.304 L16.304,11.296 L17.456,11.296 L17.456,15.6 C17.456,15.984 17.4933333,16.336 17.568,16.656 C17.6426667,16.976 17.768,17.248 17.944,17.472 C18.12,17.696 18.3493333,17.872 18.632,18 C18.9146667,18.128 19.264,18.192 19.68,18.192 Z M24.096,18.192 C24.5866667,18.192 25.0453333,18.0826667 25.472,17.864 C25.8986667,17.6453333 26.2986667,17.3813333 26.672,17.072 L26.672,17.072 L26.72,17.072 L26.832,18 L27.92,18 L27.92,13.232 C27.92,12.2613333 27.7066667,11.4853333 27.28,10.904 C26.8533333,10.3226667 26.1653333,10.032 25.216,10.032 C24.5866667,10.032 24.0106667,10.1413333 23.488,10.36 C22.9653333,10.5786667 22.5226667,10.8053333 22.16,11.04 L22.16,11.04 L22.672,11.952 C22.9813333,11.7386667 23.3333333,11.5466667 23.728,11.376 C24.1226667,11.2053333 24.544,11.12 24.992,11.12 C25.312,11.12 25.576,11.176 25.784,11.288 C25.992,11.4 26.1546667,11.5466667 26.272,11.728 C26.3893333,11.9093333 26.472,12.1173333 26.52,12.352 C26.568,12.5866667 26.592,12.8266667 26.592,13.072 C24.928,13.2533333 23.7173333,13.5706667 22.96,14.024 C22.2026667,14.4773333 21.824,15.1306667 21.824,15.984 C21.824,16.688 22.04,17.232 22.472,17.616 C22.904,18 23.4453333,18.192 24.096,18.192 Z M24.48,17.136 C24.096,17.136 23.7706667,17.04 23.504,16.848 C23.2373333,16.656 23.104,16.336 23.104,15.888 C23.104,15.6426667 23.1653333,15.416 23.288,15.208 C23.4106667,15 23.608,14.816 23.88,14.656 C24.152,14.496 24.5093333,14.3573333 24.952,14.24 C25.3946667,14.1226667 25.9413333,14.0213333 26.592,13.936 L26.592,13.936 L26.592,16.096 C26.2186667,16.4373333 25.8666667,16.696 25.536,16.872 C25.2053333,17.048 24.8533333,17.136 24.48,17.136 Z M31.76,18.192 C31.9413333,18.192 32.0906667,18.1813333 32.208,18.16 C32.3253333,18.1386667 32.4266667,18.1066667 32.512,18.064 L32.512,18.064 L32.336,17.072 C32.2613333,17.0933333 32.2053333,17.104 32.168,17.104 L32.168,17.104 L32.048,17.104 C31.952,17.104 31.8666667,17.0613333 31.792,16.976 C31.7173333,16.8906667 31.68,16.7413333 31.68,16.528 L31.68,16.528 L31.68,6.608 L30.368,6.608 L30.368,16.432 C30.368,17.008 30.4746667,17.4453333 30.688,17.744 C30.9013333,18.0426667 31.2586667,18.192 31.76,18.192 Z M43.984,18 L43.984,16.864 L39.104,16.864 L39.104,13.056 L43.088,13.056 L43.088,11.92 L39.104,11.92 L39.104,8.624 L43.824,8.624 L43.824,7.504 L37.776,7.504 L37.776,18 L43.984,18 Z M48.112,18.192 C48.5706667,18.192 48.9786667,18.1306667 49.336,18.008 C49.6933333,17.8853333 49.992,17.7173333 50.232,17.504 C50.472,17.2906667 50.6533333,17.0453333 50.776,16.768 C50.8986667,16.4906667 50.96,16.192 50.96,15.872 C50.96,15.5093333 50.888,15.2 50.744,14.944 C50.6,14.688 50.416,14.472 50.192,14.296 C49.968,14.12 49.7146667,13.9733333 49.432,13.856 C49.1493333,13.7386667 48.8693333,13.6266667 48.592,13.52 C48.368,13.4346667 48.152,13.352 47.944,13.272 C47.736,13.192 47.552,13.1013333 47.392,13 C47.232,12.8986667 47.104,12.7813333 47.008,12.648 C46.912,12.5146667 46.864,12.3573333 46.864,12.176 C46.864,11.8773333 46.9786667,11.616 47.208,11.392 C47.4373333,11.168 47.7973333,11.056 48.288,11.056 C48.6293333,11.056 48.944,11.12 49.232,11.248 C49.52,11.376 49.7973333,11.5413333 50.064,11.744 L50.064,11.744 L50.688,10.912 C50.3893333,10.6666667 50.0346667,10.4586667 49.624,10.288 C49.2133333,10.1173333 48.7626667,10.032 48.272,10.032 C47.856,10.032 47.4826667,10.088 47.152,10.2 C46.8213333,10.312 46.5413333,10.4666667 46.312,10.664 C46.0826667,10.8613333 45.9066667,11.096 45.784,11.368 C45.6613333,11.64 45.6,11.9306667 45.6,12.24 C45.6,12.5706667 45.6693333,12.8533333 45.808,13.088 C45.9466667,13.3226667 46.1253333,13.528 46.344,13.704 C46.5626667,13.88 46.8106667,14.0293333 47.088,14.152 C47.3653333,14.2746667 47.6426667,14.384 47.92,14.48 L47.92,14.48 L48.56,14.736 C48.7733333,14.8213333 48.9626667,14.92 49.128,15.032 C49.2933333,15.144 49.4293333,15.2746667 49.536,15.424 C49.6426667,15.5733333 49.696,15.7493333 49.696,15.952 C49.696,16.2933333 49.568,16.5813333 49.312,16.816 C49.056,17.0506667 48.672,17.168 48.16,17.168 C47.6906667,17.168 47.2773333,17.0826667 46.92,16.912 C46.5626667,16.7413333 46.2133333,16.5173333 45.872,16.24 L45.872,16.24 L45.216,17.12 C45.5893333,17.4293333 46.0266667,17.6853333 46.528,17.888 C47.0293333,18.0906667 47.5573333,18.192 48.112,18.192 Z M54.912,18.192 C55.1573333,18.192 55.4053333,18.1626667 55.656,18.104 C55.9066667,18.0453333 56.1386667,17.9786667 56.352,17.904 L56.352,17.904 L56.096,16.912 C55.968,16.9653333 55.824,17.0133333 55.664,17.056 C55.504,17.0986667 55.3546667,17.12 55.216,17.12 C54.768,17.12 54.456,16.9893333 54.28,16.728 C54.104,16.4666667 54.016,16.096 54.016,15.616 L54.016,15.616 L54.016,11.296 L56.112,11.296 L56.112,10.224 L54.016,10.224 L54.016,8.048 L52.912,8.048 L52.752,10.224 L51.536,10.304 L51.536,11.296 L52.688,11.296 L52.688,15.6 C52.688,15.984 52.7253333,16.336 52.8,16.656 C52.8746667,16.976 53,17.248 53.176,17.472 C53.352,17.696 53.5813333,17.872 53.864,18 C54.1466667,18.128 54.496,18.192 54.912,18.192 Z M58.544,8.624 C58.8,8.624 59.016,8.544 59.192,8.384 C59.368,8.224 59.456,8.02133333 59.456,7.776 C59.456,7.52 59.368,7.31466667 59.192,7.16 C59.016,7.00533333 58.8,6.928 58.544,6.928 C58.288,6.928 58.072,7.00533333 57.896,7.16 C57.72,7.31466667 57.632,7.52 57.632,7.776 C57.632,8.02133333 57.72,8.224 57.896,8.384 C58.072,8.544 58.288,8.624 58.544,8.624 Z M59.184,18 L59.184,10.224 L57.872,10.224 L57.872,18 L59.184,18 Z M63.12,18 L63.12,12.368 C63.8346667,11.568 64.4853333,11.168 65.072,11.168 C65.5733333,11.168 65.9413333,11.3306667 66.176,11.656 C66.4106667,11.9813333 66.528,12.512 66.528,13.248 L66.528,13.248 L66.528,18 L67.84,18 L67.84,12.368 C68.5546667,11.568 69.2053333,11.168 69.792,11.168 C70.2826667,11.168 70.6453333,11.3306667 70.88,11.656 C71.1146667,11.9813333 71.232,12.512 71.232,13.248 L71.232,13.248 L71.232,18 L72.544,18 L72.544,13.072 C72.544,12.0693333 72.3493333,11.312 71.96,10.8 C71.5706667,10.288 70.976,10.032 70.176,10.032 C69.696,10.032 69.2506667,10.168 68.84,10.44 C68.4293333,10.712 68.0213333,11.072 67.616,11.52 C67.456,11.0506667 67.208,10.6853333 66.872,10.424 C66.536,10.1626667 66.0693333,10.032 65.472,10.032 C65.0026667,10.032 64.568,10.1573333 64.168,10.408 C63.768,10.6586667 63.3973333,10.9706667 63.056,11.344 L63.056,11.344 L63.008,11.344 L62.896,10.224 L61.808,10.224 L61.808,18 L63.12,18 Z M76.864,18.192 C77.3546667,18.192 77.8133333,18.0826667 78.24,17.864 C78.6666667,17.6453333 79.0666667,17.3813333 79.44,17.072 L79.44,17.072 L79.488,17.072 L79.6,18 L80.688,18 L80.688,13.232 C80.688,12.2613333 80.4746667,11.4853333 80.048,10.904 C79.6213333,10.3226667 78.9333333,10.032 77.984,10.032 C77.3546667,10.032 76.7786667,10.1413333 76.256,10.36 C75.7333333,10.5786667 75.2906667,10.8053333 74.928,11.04 L74.928,11.04 L75.44,11.952 C75.7493333,11.7386667 76.1013333,11.5466667 76.496,11.376 C76.8906667,11.2053333 77.312,11.12 77.76,11.12 C78.08,11.12 78.344,11.176 78.552,11.288 C78.76,11.4 78.9226667,11.5466667 79.04,11.728 C79.1573333,11.9093333 79.24,12.1173333 79.288,12.352 C79.336,12.5866667 79.36,12.8266667 79.36,13.072 C77.696,13.2533333 76.4853333,13.5706667 75.728,14.024 C74.9706667,14.4773333 74.592,15.1306667 74.592,15.984 C74.592,16.688 74.808,17.232 75.24,17.616 C75.672,18 76.2133333,18.192 76.864,18.192 Z M77.248,17.136 C76.864,17.136 76.5386667,17.04 76.272,16.848 C76.0053333,16.656 75.872,16.336 75.872,15.888 C75.872,15.6426667 75.9333333,15.416 76.056,15.208 C76.1786667,15 76.376,14.816 76.648,14.656 C76.92,14.496 77.2773333,14.3573333 77.72,14.24 C78.1626667,14.1226667 78.7093333,14.0213333 79.36,13.936 L79.36,13.936 L79.36,16.096 C78.9866667,16.4373333 78.6346667,16.696 78.304,16.872 C77.9733333,17.048 77.6213333,17.136 77.248,17.136 Z M85.36,18.192 C85.6053333,18.192 85.8533333,18.1626667 86.104,18.104 C86.3546667,18.0453333 86.5866667,17.9786667 86.8,17.904 L86.8,17.904 L86.544,16.912 C86.416,16.9653333 86.272,17.0133333 86.112,17.056 C85.952,17.0986667 85.8026667,17.12 85.664,17.12 C85.216,17.12 84.904,16.9893333 84.728,16.728 C84.552,16.4666667 84.464,16.096 84.464,15.616 L84.464,15.616 L84.464,11.296 L86.56,11.296 L86.56,10.224 L84.464,10.224 L84.464,8.048 L83.36,8.048 L83.2,10.224 L81.984,10.304 L81.984,11.296 L83.136,11.296 L83.136,15.6 C83.136,15.984 83.1733333,16.336 83.248,16.656 C83.3226667,16.976 83.448,17.248 83.624,17.472 C83.8,17.696 84.0293333,17.872 84.312,18 C84.5946667,18.128 84.944,18.192 85.36,18.192 Z M91.248,18.192 C91.7813333,18.192 92.256,18.112 92.672,17.952 C93.088,17.792 93.4666667,17.6053333 93.808,17.392 L93.808,17.392 L93.344,16.528 C93.056,16.7093333 92.7546667,16.856 92.44,16.968 C92.1253333,17.08 91.7813333,17.136 91.408,17.136 C90.6613333,17.136 90.056,16.8933333 89.592,16.408 C89.128,15.9226667 88.8693333,15.264 88.816,14.432 L88.816,14.432 L94.064,14.432 C94.0853333,14.336 94.0986667,14.2213333 94.104,14.088 C94.1093333,13.9546667 94.112,13.8186667 94.112,13.68 C94.112,13.1253333 94.0426667,12.624 93.904,12.176 C93.7653333,11.728 93.5653333,11.344 93.304,11.024 C93.0426667,10.704 92.7173333,10.4586667 92.328,10.288 C91.9386667,10.1173333 91.4986667,10.032 91.008,10.032 C90.56,10.032 90.128,10.1253333 89.712,10.312 C89.296,10.4986667 88.9253333,10.768 88.6,11.12 C88.2746667,11.472 88.0133333,11.9013333 87.816,12.408 C87.6186667,12.9146667 87.52,13.488 87.52,14.128 C87.52,14.768 87.616,15.3386667 87.808,15.84 C88,16.3413333 88.264,16.7653333 88.6,17.112 C88.936,17.4586667 89.3306667,17.7253333 89.784,17.912 C90.2373333,18.0986667 90.7253333,18.192 91.248,18.192 Z M92.96,13.488 L88.8,13.488 C88.8426667,13.104 88.9306667,12.7626667 89.064,12.464 C89.1973333,12.1653333 89.3653333,11.912 89.568,11.704 C89.7706667,11.496 89.9973333,11.3386667 90.248,11.232 C90.4986667,11.1253333 90.7626667,11.072 91.04,11.072 C91.648,11.072 92.12,11.2773333 92.456,11.688 C92.792,12.0986667 92.96,12.6986667 92.96,13.488 L92.96,13.488 Z M98.688,18.192 C99.1466667,18.192 99.576,18.0826667 99.976,17.864 C100.376,17.6453333 100.730667,17.3866667 101.04,17.088 L101.04,17.088 L101.088,17.088 L101.2,18 L102.288,18 L102.288,6.608 L100.96,6.608 L100.96,9.6 L101.024,10.928 C100.682667,10.6506667 100.346667,10.432 100.016,10.272 C99.6853333,10.112 99.296,10.032 98.848,10.032 C98.4,10.032 97.9733333,10.128 97.568,10.32 C97.1626667,10.512 96.8053333,10.784 96.496,11.136 C96.1866667,11.488 95.9386667,11.9173333 95.752,12.424 C95.5653333,12.9306667 95.472,13.4986667 95.472,14.128 C95.472,15.4293333 95.7626667,16.432 96.344,17.136 C96.9253333,17.84 97.7066667,18.192 98.688,18.192 Z M98.976,17.088 C98.2933333,17.088 97.7653333,16.8266667 97.392,16.304 C97.0186667,15.7813333 96.832,15.0506667 96.832,14.112 C96.832,13.664 96.8906667,13.2586667 97.008,12.896 C97.1253333,12.5333333 97.2853333,12.2213333 97.488,11.96 C97.6906667,11.6986667 97.928,11.496 98.2,11.352 C98.472,11.208 98.7626667,11.136 99.072,11.136 C99.392,11.136 99.704,11.1973333 100.008,11.32 C100.312,11.4426667 100.629333,11.6533333 100.96,11.952 L100.96,11.952 L100.96,16.016 C100.64,16.3786667 100.32,16.648 100,16.824 C99.68,17 99.3386667,17.088 98.976,17.088 Z M111.712,18 L115.04,7.504 L113.68,7.504 L112,13.168 C111.818667,13.7973333 111.653333,14.3786667 111.504,14.912 C111.354667,15.4453333 111.184,16.0213333 110.992,16.64 L110.992,16.64 L110.928,16.64 C110.725333,16.0213333 110.552,15.4453333 110.408,14.912 C110.264,14.3786667 110.096,13.7973333 109.904,13.168 L109.904,13.168 L108.224,7.504 L106.8,7.504 L110.16,18 L111.712,18 Z M117.792,18.192 C118.282667,18.192 118.741333,18.0826667 119.168,17.864 C119.594667,17.6453333 119.994667,17.3813333 120.368,17.072 L120.368,17.072 L120.416,17.072 L120.528,18 L121.616,18 L121.616,13.232 C121.616,12.2613333 121.402667,11.4853333 120.976,10.904 C120.549333,10.3226667 119.861333,10.032 118.912,10.032 C118.282667,10.032 117.706667,10.1413333 117.184,10.36 C116.661333,10.5786667 116.218667,10.8053333 115.856,11.04 L115.856,11.04 L116.368,11.952 C116.677333,11.7386667 117.029333,11.5466667 117.424,11.376 C117.818667,11.2053333 118.24,11.12 118.688,11.12 C119.008,11.12 119.272,11.176 119.48,11.288 C119.688,11.4 119.850667,11.5466667 119.968,11.728 C120.085333,11.9093333 120.168,12.1173333 120.216,12.352 C120.264,12.5866667 120.288,12.8266667 120.288,13.072 C118.624,13.2533333 117.413333,13.5706667 116.656,14.024 C115.898667,14.4773333 115.52,15.1306667 115.52,15.984 C115.52,16.688 115.736,17.232 116.168,17.616 C116.6,18 117.141333,18.192 117.792,18.192 Z M118.176,17.136 C117.792,17.136 117.466667,17.04 117.2,16.848 C116.933333,16.656 116.8,16.336 116.8,15.888 C116.8,15.6426667 116.861333,15.416 116.984,15.208 C117.106667,15 117.304,14.816 117.576,14.656 C117.848,14.496 118.205333,14.3573333 118.648,14.24 C119.090667,14.1226667 119.637333,14.0213333 120.288,13.936 L120.288,13.936 L120.288,16.096 C119.914667,16.4373333 119.562667,16.696 119.232,16.872 C118.901333,17.048 118.549333,17.136 118.176,17.136 Z M125.456,18.192 C125.637333,18.192 125.786667,18.1813333 125.904,18.16 C126.021333,18.1386667 126.122667,18.1066667 126.208,18.064 L126.208,18.064 L126.032,17.072 C125.957333,17.0933333 125.901333,17.104 125.864,17.104 L125.864,17.104 L125.744,17.104 C125.648,17.104 125.562667,17.0613333 125.488,16.976 C125.413333,16.8906667 125.376,16.7413333 125.376,16.528 L125.376,16.528 L125.376,6.608 L124.064,6.608 L124.064,16.432 C124.064,17.008 124.170667,17.4453333 124.384,17.744 C124.597333,18.0426667 124.954667,18.192 125.456,18.192 Z M130.416,18.192 C130.96,18.192 131.432,18.064 131.832,17.808 C132.232,17.552 132.613333,17.2106667 132.976,16.784 L132.976,16.784 L133.024,16.784 L133.136,18 L134.224,18 L134.224,10.224 L132.912,10.224 L132.912,15.744 C132.538667,16.2026667 132.197333,16.536 131.888,16.744 C131.578667,16.952 131.221333,17.056 130.816,17.056 C130.304,17.056 129.933333,16.8933333 129.704,16.568 C129.474667,16.2426667 129.36,15.712 129.36,14.976 L129.36,14.976 L129.36,10.224 L128.032,10.224 L128.032,15.152 C128.032,16.1546667 128.221333,16.912 128.6,17.424 C128.978667,17.936 129.584,18.192 130.416,18.192 Z M140,18.192 C140.533333,18.192 141.008,18.112 141.424,17.952 C141.84,17.792 142.218667,17.6053333 142.56,17.392 L142.56,17.392 L142.096,16.528 C141.808,16.7093333 141.506667,16.856 141.192,16.968 C140.877333,17.08 140.533333,17.136 140.16,17.136 C139.413333,17.136 138.808,16.8933333 138.344,16.408 C137.88,15.9226667 137.621333,15.264 137.568,14.432 L137.568,14.432 L142.816,14.432 C142.837333,14.336 142.850667,14.2213333 142.856,14.088 C142.861333,13.9546667 142.864,13.8186667 142.864,13.68 C142.864,13.1253333 142.794667,12.624 142.656,12.176 C142.517333,11.728 142.317333,11.344 142.056,11.024 C141.794667,10.704 141.469333,10.4586667 141.08,10.288 C140.690667,10.1173333 140.250667,10.032 139.76,10.032 C139.312,10.032 138.88,10.1253333 138.464,10.312 C138.048,10.4986667 137.677333,10.768 137.352,11.12 C137.026667,11.472 136.765333,11.9013333 136.568,12.408 C136.370667,12.9146667 136.272,13.488 136.272,14.128 C136.272,14.768 136.368,15.3386667 136.56,15.84 C136.752,16.3413333 137.016,16.7653333 137.352,17.112 C137.688,17.4586667 138.082667,17.7253333 138.536,17.912 C138.989333,18.0986667 139.477333,18.192 140,18.192 Z M141.712,13.488 L137.552,13.488 C137.594667,13.104 137.682667,12.7626667 137.816,12.464 C137.949333,12.1653333 138.117333,11.912 138.32,11.704 C138.522667,11.496 138.749333,11.3386667 139,11.232 C139.250667,11.1253333 139.514667,11.072 139.792,11.072 C140.4,11.072 140.872,11.2773333 141.208,11.688 C141.544,12.0986667 141.712,12.6986667 141.712,13.488 L141.712,13.488 Z M151.008,18.192 C151.488,18.192 151.944,18.1013333 152.376,17.92 C152.808,17.7386667 153.189333,17.4746667 153.52,17.128 C153.850667,16.7813333 154.114667,16.3546667 154.312,15.848 C154.509333,15.3413333 154.608,14.768 154.608,14.128 C154.608,13.4773333 154.509333,12.8986667 154.312,12.392 C154.114667,11.8853333 153.850667,11.456 153.52,11.104 C153.189333,10.752 152.808,10.4853333 152.376,10.304 C151.944,10.1226667 151.488,10.032 151.008,10.032 C150.528,10.032 150.072,10.1226667 149.64,10.304 C149.208,10.4853333 148.826667,10.752 148.496,11.104 C148.165333,11.456 147.901333,11.8853333 147.704,12.392 C147.506667,12.8986667 147.408,13.4773333 147.408,14.128 C147.408,14.768 147.506667,15.3413333 147.704,15.848 C147.901333,16.3546667 148.165333,16.7813333 148.496,17.128 C148.826667,17.4746667 149.208,17.7386667 149.64,17.92 C150.072,18.1013333 150.528,18.192 151.008,18.192 Z M151.008,17.104 C150.677333,17.104 150.373333,17.032 150.096,16.888 C149.818667,16.744 149.581333,16.5413333 149.384,16.28 C149.186667,16.0186667 149.034667,15.7066667 148.928,15.344 C148.821333,14.9813333 148.768,14.576 148.768,14.128 C148.768,13.68 148.821333,13.272 148.928,12.904 C149.034667,12.536 149.186667,12.2186667 149.384,11.952 C149.581333,11.6853333 149.818667,11.48 150.096,11.336 C150.373333,11.192 150.677333,11.12 151.008,11.12 C151.338667,11.12 151.642667,11.192 151.92,11.336 C152.197333,11.48 152.434667,11.6853333 152.632,11.952 C152.829333,12.2186667 152.981333,12.536 153.088,12.904 C153.194667,13.272 153.248,13.68 153.248,14.128 C153.248,14.576 153.194667,14.9813333 153.088,15.344 C152.981333,15.7066667 152.829333,16.0186667 152.632,16.28 C152.434667,16.5413333 152.197333,16.744 151.92,16.888 C151.642667,17.032 151.338667,17.104 151.008,17.104 Z M158.192,18 L158.192,11.296 L159.84,11.296 L159.84,10.224 L158.192,10.224 L158.192,8.992 C158.192,7.98933333 158.554667,7.488 159.28,7.488 C159.578667,7.488 159.872,7.552 160.16,7.68 L160.16,7.68 L160.448,6.672 C160.266667,6.59733333 160.066667,6.536 159.848,6.488 C159.629333,6.44 159.397333,6.416 159.152,6.416 C158.373333,6.416 157.8,6.64533333 157.432,7.104 C157.064,7.56266667 156.88,8.192 156.88,8.992 L156.88,8.992 L156.88,10.224 L155.824,10.304 L155.824,11.296 L156.88,11.296 L156.88,18 L158.192,18 Z M170.576,18 L170.576,16.864 L165.984,16.864 L165.984,7.504 L164.656,7.504 L164.656,18 L170.576,18 Z M175.264,18.192 C175.797333,18.192 176.272,18.112 176.688,17.952 C177.104,17.792 177.482667,17.6053333 177.824,17.392 L177.824,17.392 L177.36,16.528 C177.072,16.7093333 176.770667,16.856 176.456,16.968 C176.141333,17.08 175.797333,17.136 175.424,17.136 C174.677333,17.136 174.072,16.8933333 173.608,16.408 C173.144,15.9226667 172.885333,15.264 172.832,14.432 L172.832,14.432 L178.08,14.432 C178.101333,14.336 178.114667,14.2213333 178.12,14.088 C178.125333,13.9546667 178.128,13.8186667 178.128,13.68 C178.128,13.1253333 178.058667,12.624 177.92,12.176 C177.781333,11.728 177.581333,11.344 177.32,11.024 C177.058667,10.704 176.733333,10.4586667 176.344,10.288 C175.954667,10.1173333 175.514667,10.032 175.024,10.032 C174.576,10.032 174.144,10.1253333 173.728,10.312 C173.312,10.4986667 172.941333,10.768 172.616,11.12 C172.290667,11.472 172.029333,11.9013333 171.832,12.408 C171.634667,12.9146667 171.536,13.488 171.536,14.128 C171.536,14.768 171.632,15.3386667 171.824,15.84 C172.016,16.3413333 172.28,16.7653333 172.616,17.112 C172.952,17.4586667 173.346667,17.7253333 173.8,17.912 C174.253333,18.0986667 174.741333,18.192 175.264,18.192 Z M176.976,13.488 L172.816,13.488 C172.858667,13.104 172.946667,12.7626667 173.08,12.464 C173.213333,12.1653333 173.381333,11.912 173.584,11.704 C173.786667,11.496 174.013333,11.3386667 174.264,11.232 C174.514667,11.1253333 174.778667,11.072 175.056,11.072 C175.664,11.072 176.136,11.2773333 176.472,11.688 C176.808,12.0986667 176.976,12.6986667 176.976,13.488 L176.976,13.488 Z M182.512,21.584 C183.12,21.584 183.666667,21.512 184.152,21.368 C184.637333,21.224 185.050667,21.0293333 185.392,20.784 C185.733333,20.5386667 185.994667,20.2533333 186.176,19.928 C186.357333,19.6026667 186.448,19.2586667 186.448,18.896 C186.448,18.2453333 186.221333,17.7733333 185.768,17.48 C185.314667,17.1866667 184.634667,17.04 183.728,17.04 L183.728,17.04 L182.224,17.04 C181.690667,17.04 181.328,16.96 181.136,16.8 C180.944,16.64 180.848,16.4373333 180.848,16.192 C180.848,15.9786667 180.896,15.8 180.992,15.656 C181.088,15.512 181.205333,15.3813333 181.344,15.264 C181.525333,15.3493333 181.717333,15.416 181.92,15.464 C182.122667,15.512 182.32,15.536 182.512,15.536 C182.906667,15.536 183.277333,15.472 183.624,15.344 C183.970667,15.216 184.272,15.0373333 184.528,14.808 C184.784,14.5786667 184.986667,14.296 185.136,13.96 C185.285333,13.624 185.36,13.248 185.36,12.832 C185.36,12.5013333 185.298667,12.1973333 185.176,11.92 C185.053333,11.6426667 184.901333,11.4133333 184.72,11.232 L184.72,11.232 L186.32,11.232 L186.32,10.224 L183.616,10.224 C183.466667,10.1706667 183.298667,10.1253333 183.112,10.088 C182.925333,10.0506667 182.725333,10.032 182.512,10.032 C182.117333,10.032 181.741333,10.096 181.384,10.224 C181.026667,10.352 180.714667,10.536 180.448,10.776 C180.181333,11.016 179.970667,11.3066667 179.816,11.648 C179.661333,11.9893333 179.584,12.3733333 179.584,12.8 C179.584,13.2693333 179.688,13.6826667 179.896,14.04 C180.104,14.3973333 180.336,14.6826667 180.592,14.896 L180.592,14.896 L180.592,14.96 C180.389333,15.0986667 180.197333,15.2906667 180.016,15.536 C179.834667,15.7813333 179.744,16.0693333 179.744,16.4 C179.744,16.7093333 179.810667,16.968 179.944,17.176 C180.077333,17.384 180.24,17.5466667 180.432,17.664 L180.432,17.664 L180.432,17.728 C180.08,17.9733333 179.802667,18.2453333 179.6,18.544 C179.397333,18.8426667 179.296,19.1573333 179.296,19.488 C179.296,19.8293333 179.373333,20.128 179.528,20.384 C179.682667,20.64 179.901333,20.8586667 180.184,21.04 C180.466667,21.2213333 180.805333,21.3573333 181.2,21.448 C181.594667,21.5386667 182.032,21.584 182.512,21.584 Z M182.512,14.656 C182.288,14.656 182.077333,14.6133333 181.88,14.528 C181.682667,14.4426667 181.506667,14.32 181.352,14.16 C181.197333,14 181.077333,13.8053333 180.992,13.576 C180.906667,13.3466667 180.864,13.088 180.864,12.8 C180.864,12.224 181.024,11.7786667 181.344,11.464 C181.664,11.1493333 182.053333,10.992 182.512,10.992 C182.970667,10.992 183.36,11.1493333 183.68,11.464 C184,11.7786667 184.16,12.224 184.16,12.8 C184.16,13.088 184.117333,13.3466667 184.032,13.576 C183.946667,13.8053333 183.826667,14 183.672,14.16 C183.517333,14.32 183.341333,14.4426667 183.144,14.528 C182.946667,14.6133333 182.736,14.656 182.512,14.656 Z M182.704,20.672 C182,20.672 181.448,20.5493333 181.048,20.304 C180.648,20.0586667 180.448,19.728 180.448,19.312 C180.448,19.088 180.512,18.864 180.64,18.64 C180.768,18.416 180.970667,18.2026667 181.248,18 C181.418667,18.0533333 181.592,18.088 181.768,18.104 C181.944,18.12 182.106667,18.128 182.256,18.128 L182.256,18.128 L183.6,18.128 C184.112,18.128 184.501333,18.1973333 184.768,18.336 C185.034667,18.4746667 185.168,18.7253333 185.168,19.088 C185.168,19.2906667 185.109333,19.488 184.992,19.68 C184.874667,19.872 184.709333,20.04 184.496,20.184 C184.282667,20.328 184.024,20.4453333 183.72,20.536 C183.416,20.6266667 183.077333,20.672 182.704,20.672 Z M188.624,8.624 C188.88,8.624 189.096,8.544 189.272,8.384 C189.448,8.224 189.536,8.02133333 189.536,7.776 C189.536,7.52 189.448,7.31466667 189.272,7.16 C189.096,7.00533333 188.88,6.928 188.624,6.928 C188.368,6.928 188.152,7.00533333 187.976,7.16 C187.8,7.31466667 187.712,7.52 187.712,7.776 C187.712,8.02133333 187.8,8.224 187.976,8.384 C188.152,8.544 188.368,8.624 188.624,8.624 Z M189.264,18 L189.264,10.224 L187.952,10.224 L187.952,18 L189.264,18 Z M193.92,18.192 C194.378667,18.192 194.786667,18.1306667 195.144,18.008 C195.501333,17.8853333 195.8,17.7173333 196.04,17.504 C196.28,17.2906667 196.461333,17.0453333 196.584,16.768 C196.706667,16.4906667 196.768,16.192 196.768,15.872 C196.768,15.5093333 196.696,15.2 196.552,14.944 C196.408,14.688 196.224,14.472 196,14.296 C195.776,14.12 195.522667,13.9733333 195.24,13.856 C194.957333,13.7386667 194.677333,13.6266667 194.4,13.52 C194.176,13.4346667 193.96,13.352 193.752,13.272 C193.544,13.192 193.36,13.1013333 193.2,13 C193.04,12.8986667 192.912,12.7813333 192.816,12.648 C192.72,12.5146667 192.672,12.3573333 192.672,12.176 C192.672,11.8773333 192.786667,11.616 193.016,11.392 C193.245333,11.168 193.605333,11.056 194.096,11.056 C194.437333,11.056 194.752,11.12 195.04,11.248 C195.328,11.376 195.605333,11.5413333 195.872,11.744 L195.872,11.744 L196.496,10.912 C196.197333,10.6666667 195.842667,10.4586667 195.432,10.288 C195.021333,10.1173333 194.570667,10.032 194.08,10.032 C193.664,10.032 193.290667,10.088 192.96,10.2 C192.629333,10.312 192.349333,10.4666667 192.12,10.664 C191.890667,10.8613333 191.714667,11.096 191.592,11.368 C191.469333,11.64 191.408,11.9306667 191.408,12.24 C191.408,12.5706667 191.477333,12.8533333 191.616,13.088 C191.754667,13.3226667 191.933333,13.528 192.152,13.704 C192.370667,13.88 192.618667,14.0293333 192.896,14.152 C193.173333,14.2746667 193.450667,14.384 193.728,14.48 C193.941333,14.5653333 194.154667,14.6506667 194.368,14.736 C194.581333,14.8213333 194.770667,14.92 194.936,15.032 C195.101333,15.144 195.237333,15.2746667 195.344,15.424 C195.450667,15.5733333 195.504,15.7493333 195.504,15.952 C195.504,16.2933333 195.376,16.5813333 195.12,16.816 C194.864,17.0506667 194.48,17.168 193.968,17.168 C193.498667,17.168 193.085333,17.0826667 192.728,16.912 C192.370667,16.7413333 192.021333,16.5173333 191.68,16.24 L191.68,16.24 L191.024,17.12 C191.397333,17.4293333 191.834667,17.6853333 192.336,17.888 C192.837333,18.0906667 193.365333,18.192 193.92,18.192 Z M199.984,18.192 C200.165333,18.192 200.314667,18.1813333 200.432,18.16 C200.549333,18.1386667 200.650667,18.1066667 200.736,18.064 L200.736,18.064 L200.56,17.072 C200.485333,17.0933333 200.429333,17.104 200.392,17.104 L200.392,17.104 L200.272,17.104 C200.176,17.104 200.090667,17.0613333 200.016,16.976 C199.941333,16.8906667 199.904,16.7413333 199.904,16.528 L199.904,16.528 L199.904,6.608 L198.592,6.608 L198.592,16.432 C198.592,17.008 198.698667,17.4453333 198.912,17.744 C199.125333,18.0426667 199.482667,18.192 199.984,18.192 Z M204.464,18.192 C204.954667,18.192 205.413333,18.0826667 205.84,17.864 C206.266667,17.6453333 206.666667,17.3813333 207.04,17.072 L207.04,17.072 L207.088,17.072 L207.2,18 L208.288,18 L208.288,13.232 C208.288,12.2613333 208.074667,11.4853333 207.648,10.904 C207.221333,10.3226667 206.533333,10.032 205.584,10.032 C204.954667,10.032 204.378667,10.1413333 203.856,10.36 C203.333333,10.5786667 202.890667,10.8053333 202.528,11.04 L202.528,11.04 L203.04,11.952 C203.349333,11.7386667 203.701333,11.5466667 204.096,11.376 C204.490667,11.2053333 204.912,11.12 205.36,11.12 C205.68,11.12 205.944,11.176 206.152,11.288 C206.36,11.4 206.522667,11.5466667 206.64,11.728 C206.757333,11.9093333 206.84,12.1173333 206.888,12.352 C206.936,12.5866667 206.96,12.8266667 206.96,13.072 C205.296,13.2533333 204.085333,13.5706667 203.328,14.024 C202.570667,14.4773333 202.192,15.1306667 202.192,15.984 C202.192,16.688 202.408,17.232 202.84,17.616 C203.272,18 203.813333,18.192 204.464,18.192 Z M204.848,17.136 C204.464,17.136 204.138667,17.04 203.872,16.848 C203.605333,16.656 203.472,16.336 203.472,15.888 C203.472,15.6426667 203.533333,15.416 203.656,15.208 C203.778667,15 203.976,14.816 204.248,14.656 C204.52,14.496 204.877333,14.3573333 205.32,14.24 C205.762667,14.1226667 206.309333,14.0213333 206.96,13.936 L206.96,13.936 L206.96,16.096 C206.586667,16.4373333 206.234667,16.696 205.904,16.872 C205.573333,17.048 205.221333,17.136 204.848,17.136 Z M212.96,18.192 C213.205333,18.192 213.453333,18.1626667 213.704,18.104 C213.954667,18.0453333 214.186667,17.9786667 214.4,17.904 L214.4,17.904 L214.144,16.912 C214.016,16.9653333 213.872,17.0133333 213.712,17.056 C213.552,17.0986667 213.402667,17.12 213.264,17.12 C212.816,17.12 212.504,16.9893333 212.328,16.728 C212.152,16.4666667 212.064,16.096 212.064,15.616 L212.064,15.616 L212.064,11.296 L214.16,11.296 L214.16,10.224 L212.064,10.224 L212.064,8.048 L210.96,8.048 L210.8,10.224 L209.584,10.304 L209.584,11.296 L210.736,11.296 L210.736,15.6 C210.736,15.984 210.773333,16.336 210.848,16.656 C210.922667,16.976 211.048,17.248 211.224,17.472 C211.4,17.696 211.629333,17.872 211.912,18 C212.194667,18.128 212.544,18.192 212.96,18.192 Z M216.592,8.624 C216.848,8.624 217.064,8.544 217.24,8.384 C217.416,8.224 217.504,8.02133333 217.504,7.776 C217.504,7.52 217.416,7.31466667 217.24,7.16 C217.064,7.00533333 216.848,6.928 216.592,6.928 C216.336,6.928 216.12,7.00533333 215.944,7.16 C215.768,7.31466667 215.68,7.52 215.68,7.776 C215.68,8.02133333 215.768,8.224 215.944,8.384 C216.12,8.544 216.336,8.624 216.592,8.624 Z M217.232,18 L217.232,10.224 L215.92,10.224 L215.92,18 L217.232,18 Z M222.88,18.192 C223.36,18.192 223.816,18.1013333 224.248,17.92 C224.68,17.7386667 225.061333,17.4746667 225.392,17.128 C225.722667,16.7813333 225.986667,16.3546667 226.184,15.848 C226.381333,15.3413333 226.48,14.768 226.48,14.128 C226.48,13.4773333 226.381333,12.8986667 226.184,12.392 C225.986667,11.8853333 225.722667,11.456 225.392,11.104 C225.061333,10.752 224.68,10.4853333 224.248,10.304 C223.816,10.1226667 223.36,10.032 222.88,10.032 C222.4,10.032 221.944,10.1226667 221.512,10.304 C221.08,10.4853333 220.698667,10.752 220.368,11.104 C220.037333,11.456 219.773333,11.8853333 219.576,12.392 C219.378667,12.8986667 219.28,13.4773333 219.28,14.128 C219.28,14.768 219.378667,15.3413333 219.576,15.848 C219.773333,16.3546667 220.037333,16.7813333 220.368,17.128 C220.698667,17.4746667 221.08,17.7386667 221.512,17.92 C221.944,18.1013333 222.4,18.192 222.88,18.192 Z M222.88,17.104 C222.549333,17.104 222.245333,17.032 221.968,16.888 C221.690667,16.744 221.453333,16.5413333 221.256,16.28 C221.058667,16.0186667 220.906667,15.7066667 220.8,15.344 C220.693333,14.9813333 220.64,14.576 220.64,14.128 C220.64,13.68 220.693333,13.272 220.8,12.904 C220.906667,12.536 221.058667,12.2186667 221.256,11.952 C221.453333,11.6853333 221.690667,11.48 221.968,11.336 C222.245333,11.192 222.549333,11.12 222.88,11.12 C223.210667,11.12 223.514667,11.192 223.792,11.336 C224.069333,11.48 224.306667,11.6853333 224.504,11.952 C224.701333,12.2186667 224.853333,12.536 224.96,12.904 C225.066667,13.272 225.12,13.68 225.12,14.128 C225.12,14.576 225.066667,14.9813333 224.96,15.344 C224.853333,15.7066667 224.701333,16.0186667 224.504,16.28 C224.306667,16.5413333 224.069333,16.744 223.792,16.888 C223.514667,17.032 223.210667,17.104 222.88,17.104 Z M229.84,18 L229.84,12.368 C230.234667,11.9733333 230.586667,11.6746667 230.896,11.472 C231.205333,11.2693333 231.562667,11.168 231.968,11.168 C232.48,11.168 232.853333,11.3306667 233.088,11.656 C233.322667,11.9813333 233.44,12.512 233.44,13.248 L233.44,13.248 L233.44,18 L234.752,18 L234.752,13.072 C234.752,12.0693333 234.562667,11.312 234.184,10.8 C233.805333,10.288 233.205333,10.032 232.384,10.032 C231.84,10.032 231.362667,10.1573333 230.952,10.408 C230.541333,10.6586667 230.149333,10.9706667 229.776,11.344 L229.776,11.344 L229.728,11.344 L229.616,10.224 L228.528,10.224 L228.528,18 L229.84,18 Z M243.68,19.76 L243.68,18.144 C244.448,18.0373333 245.053333,17.7386667 245.496,17.248 C245.938667,16.7573333 246.16,16.128 246.16,15.36 C246.16,14.784 246.050667,14.312 245.832,13.944 C245.613333,13.576 245.338667,13.2666667 245.008,13.016 C244.677333,12.7653333 244.317333,12.552 243.928,12.376 C243.538667,12.2 243.178667,12.0186667 242.848,11.832 C242.517333,11.6453333 242.242667,11.4293333 242.024,11.184 C241.805333,10.9386667 241.696,10.624 241.696,10.24 C241.696,9.77066667 241.84,9.39733333 242.128,9.12 C242.416,8.84266667 242.805333,8.704 243.296,8.704 C243.733333,8.704 244.093333,8.784 244.376,8.944 C244.658667,9.104 244.949333,9.328 245.248,9.616 L245.248,9.616 L245.952,8.832 C245.664,8.52266667 245.341333,8.256 244.984,8.032 C244.626667,7.808 244.192,7.66933333 243.68,7.616 L243.68,7.616 L243.68,6.032 L242.72,6.032 L242.72,7.648 C242.016,7.75466667 241.453333,8.04533333 241.032,8.52 C240.610667,8.99466667 240.4,9.58933333 240.4,10.304 C240.4,10.8266667 240.509333,11.256 240.728,11.592 C240.946667,11.928 241.221333,12.2133333 241.552,12.448 C241.882667,12.6826667 242.242667,12.8906667 242.632,13.072 C243.021333,13.2533333 243.381333,13.448 243.712,13.656 C244.042667,13.864 244.317333,14.1093333 244.536,14.392 C244.754667,14.6746667 244.864,15.0293333 244.864,15.456 C244.864,15.9573333 244.717333,16.3573333 244.424,16.656 C244.130667,16.9546667 243.685333,17.104 243.088,17.104 C242.597333,17.104 242.146667,17 241.736,16.792 C241.325333,16.584 240.949333,16.3306667 240.608,16.032 L240.608,16.032 L240,16.944 C240.341333,17.2533333 240.752,17.5226667 241.232,17.752 C241.712,17.9813333 242.208,18.1226667 242.72,18.176 L242.72,18.176 L242.72,19.76 L243.68,19.76 Z M250.896,18.192 C251.365333,18.192 251.802667,18.1253333 252.208,17.992 C252.613333,17.8586667 252.968,17.6666667 253.272,17.416 C253.576,17.1653333 253.816,16.8586667 253.992,16.496 C254.168,16.1333333 254.256,15.728 254.256,15.28 C254.256,14.928 254.2,14.608 254.088,14.32 C253.976,14.032 253.818667,13.7786667 253.616,13.56 C253.413333,13.3413333 253.178667,13.16 252.912,13.016 C252.645333,12.872 252.357333,12.7626667 252.048,12.688 L252.048,12.688 L252.048,12.624 C252.602667,12.4106667 253.050667,12.1066667 253.392,11.712 C253.733333,11.3173333 253.904,10.8106667 253.904,10.192 C253.904,9.776 253.829333,9.408 253.68,9.088 C253.530667,8.768 253.32,8.49866667 253.048,8.28 C252.776,8.06133333 252.453333,7.89333333 252.08,7.776 C251.706667,7.65866667 251.296,7.6 250.848,7.6 C250.24,7.6 249.698667,7.72 249.224,7.96 C248.749333,8.2 248.314667,8.50666667 247.92,8.88 L247.92,8.88 L248.624,9.712 C248.933333,9.40266667 249.266667,9.152 249.624,8.96 C249.981333,8.768 250.373333,8.672 250.8,8.672 C251.344,8.672 251.773333,8.816 252.088,9.104 C252.402667,9.392 252.56,9.78666667 252.56,10.288 C252.56,10.5546667 252.512,10.8053333 252.416,11.04 C252.32,11.2746667 252.157333,11.4773333 251.928,11.648 C251.698667,11.8186667 251.4,11.952 251.032,12.048 C250.664,12.144 250.208,12.192 249.664,12.192 L249.664,12.192 L249.664,13.2 C250.272,13.2 250.784,13.248 251.2,13.344 C251.616,13.44 251.952,13.5786667 252.208,13.76 C252.464,13.9413333 252.648,14.1573333 252.76,14.408 C252.872,14.6586667 252.928,14.9333333 252.928,15.232 C252.928,15.808 252.730667,16.264 252.336,16.6 C251.941333,16.936 251.434667,17.104 250.816,17.104 C250.208,17.104 249.698667,16.9813333 249.288,16.736 C248.877333,16.4906667 248.517333,16.208 248.208,15.888 L248.208,15.888 L247.536,16.752 C247.706667,16.944 247.901333,17.1253333 248.12,17.296 C248.338667,17.4666667 248.586667,17.6186667 248.864,17.752 C249.141333,17.8853333 249.448,17.992 249.784,18.072 C250.12,18.152 250.490667,18.192 250.896,18.192 Z M257.072,18.192 C257.328,18.192 257.549333,18.0986667 257.736,17.912 C257.922667,17.7253333 258.016,17.488 258.016,17.2 C258.016,16.8906667 257.922667,16.6426667 257.736,16.456 C257.549333,16.2693333 257.328,16.176 257.072,16.176 C256.805333,16.176 256.578667,16.2693333 256.392,16.456 C256.205333,16.6426667 256.112,16.8906667 256.112,17.2 C256.112,17.488 256.205333,17.7253333 256.392,17.912 C256.578667,18.0986667 256.805333,18.192 257.072,18.192 Z M265.168,18 L265.168,15.184 L266.56,15.184 L266.56,14.128 L265.168,14.128 L265.168,7.792 L263.696,7.792 L259.328,14.32 L259.328,15.184 L263.92,15.184 L263.92,18 L265.168,18 Z M263.92,14.128 L260.72,14.128 L263.104,10.64 C263.253333,10.3946667 263.397333,10.1546667 263.536,9.92 C263.674667,9.68533333 263.808,9.44533333 263.936,9.2 L263.936,9.2 L264,9.2 C263.978667,9.47733333 263.96,9.80533333 263.944,10.184 C263.928,10.5626667 263.92,10.8906667 263.92,11.168 L263.92,11.168 L263.92,14.128 Z M270.288,18.192 C270.8,18.192 271.288,18.088 271.752,17.88 C272.216,17.672 272.629333,17.3413333 272.992,16.888 C273.354667,16.4346667 273.642667,15.848 273.856,15.128 C274.069333,14.408 274.176,13.536 274.176,12.512 C274.176,11.6906667 274.088,10.9733333 273.912,10.36 C273.736,9.74666667 273.490667,9.23466667 273.176,8.824 C272.861333,8.41333333 272.488,8.10666667 272.056,7.904 C271.624,7.70133333 271.157333,7.6 270.656,7.6 C270.250667,7.6 269.864,7.68 269.496,7.84 C269.128,8 268.808,8.224 268.536,8.512 C268.264,8.8 268.048,9.144 267.888,9.544 C267.728,9.944 267.648,10.3893333 267.648,10.88 C267.648,11.936 267.909333,12.7253333 268.432,13.248 C268.954667,13.7706667 269.658667,14.032 270.544,14.032 C270.970667,14.032 271.397333,13.9146667 271.824,13.68 C272.250667,13.4453333 272.624,13.1253333 272.944,12.72 C272.933333,13.5413333 272.853333,14.2293333 272.704,14.784 C272.554667,15.3386667 272.357333,15.7893333 272.112,16.136 C271.866667,16.4826667 271.584,16.7306667 271.264,16.88 C270.944,17.0293333 270.602667,17.104 270.24,17.104 C269.92,17.104 269.613333,17.0293333 269.32,16.88 C269.026667,16.7306667 268.773333,16.5333333 268.56,16.288 L268.56,16.288 L267.824,17.12 C268.101333,17.4293333 268.445333,17.6853333 268.856,17.888 C269.266667,18.0906667 269.744,18.192 270.288,18.192 Z M270.768,13.04 C270.128,13.04 269.653333,12.848 269.344,12.464 C269.034667,12.08 268.88,11.552 268.88,10.88 C268.88,10.5493333 268.925333,10.2453333 269.016,9.968 C269.106667,9.69066667 269.232,9.45333333 269.392,9.256 C269.552,9.05866667 269.741333,8.90666667 269.96,8.8 C270.178667,8.69333333 270.410667,8.64 270.656,8.64 C271.306667,8.64 271.824,8.896 272.208,9.408 C272.592,9.92 272.826667,10.6773333 272.912,11.68 C272.581333,12.16 272.226667,12.5066667 271.848,12.72 C271.469333,12.9333333 271.109333,13.04 270.768,13.04 Z M279.92,18 L279.92,8.624 L283.088,8.624 L283.088,7.504 L275.408,7.504 L275.408,8.624 L278.576,8.624 L278.576,18 L279.92,18 Z" id="TotalEstimatedValueofLegislation$3.49T" fill="#555555" fill-rule="nonzero"></path>
            </g>
        </g>
    </g>
</svg>