<?xml version="1.0" encoding="UTF-8"?>
<svg width="333px" height="137px" viewBox="0 0 333 137" version="1.1" xmlns="http://www.w3.org/2000/svg" xmlns:xlink="http://www.w3.org/1999/xlink">
    <title>Viz-1-C-Mobile</title>
    <g id="SVG" stroke="none" stroke-width="1" fill="none" fill-rule="evenodd">
        <g id="Viz-1-C---Outlined" transform="translate(-73.000000, -546.000000)">
            <g id="Viz-1-C-Mobile" transform="translate(74.000000, 546.000000)">
                <path d="M50.958,18 L50.958,7.992 L54.36,7.992 L54.36,6.228 L45.468,6.228 L45.468,7.992 L48.87,7.992 L48.87,18 L50.958,18 Z M58.482,18.216 C59.034,18.216 59.565,18.114 60.075,17.91 C60.585,17.706 61.032,17.406 61.416,17.01 C61.8,16.614 62.109,16.128 62.343,15.552 C62.577,14.976 62.694,14.322 62.694,13.59 C62.694,12.858 62.577,12.204 62.343,11.628 C62.109,11.052 61.8,10.566 61.416,10.17 C61.032,9.774 60.585,9.471 60.075,9.261 C59.565,9.051 59.034,8.946 58.482,8.946 C57.93,8.946 57.402,9.051 56.898,9.261 C56.394,9.471 55.947,9.774 55.557,10.17 C55.167,10.566 54.858,11.052 54.63,11.628 C54.402,12.204 54.288,12.858 54.288,13.59 C54.288,14.322 54.402,14.976 54.63,15.552 C54.858,16.128 55.167,16.614 55.557,17.01 C55.947,17.406 56.394,17.706 56.898,17.91 C57.402,18.114 57.93,18.216 58.482,18.216 Z M58.482,16.524 C57.834,16.524 57.327,16.257 56.961,15.723 C56.595,15.189 56.412,14.478 56.412,13.59 C56.412,12.69 56.595,11.973 56.961,11.439 C57.327,10.905 57.834,10.638 58.482,10.638 C59.13,10.638 59.64,10.905 60.012,11.439 C60.384,11.973 60.57,12.69 60.57,13.59 C60.57,14.478 60.384,15.189 60.012,15.723 C59.64,16.257 59.13,16.524 58.482,16.524 Z M67.464,18.216 C67.812,18.216 68.139,18.183 68.445,18.117 C68.751,18.051 69.024,17.976 69.264,17.892 L69.264,17.892 L68.904,16.362 C68.772,16.422 68.625,16.47 68.463,16.506 C68.301,16.542 68.142,16.56 67.986,16.56 C67.158,16.56 66.744,16.044 66.744,15.012 L66.744,15.012 L66.744,10.8 L68.994,10.8 L68.994,9.162 L66.744,9.162 L66.744,6.75 L65.016,6.75 L64.764,9.162 L63.396,9.252 L63.396,10.8 L64.656,10.8 L64.656,15.012 C64.656,15.492 64.707,15.927 64.809,16.317 C64.911,16.707 65.073,17.043 65.295,17.325 C65.517,17.607 65.805,17.826 66.159,17.982 C66.513,18.138 66.948,18.216 67.464,18.216 Z M72.612,18.216 C73.14,18.216 73.629,18.102 74.079,17.874 C74.529,17.646 74.952,17.364 75.348,17.028 L75.348,17.028 L75.42,17.028 L75.564,18 L77.274,18 L77.274,12.762 C77.274,11.526 77.001,10.581 76.455,9.927 C75.909,9.273 75.084,8.946 73.98,8.946 C73.272,8.946 72.612,9.06 72,9.288 C71.388,9.516 70.836,9.786 70.344,10.098 L70.344,10.098 L71.1,11.484 C71.496,11.244 71.901,11.04 72.315,10.872 C72.729,10.704 73.152,10.62 73.584,10.62 C73.884,10.62 74.136,10.665 74.34,10.755 C74.544,10.845 74.709,10.971 74.835,11.133 C74.961,11.295 75.051,11.481 75.105,11.691 C75.159,11.901 75.192,12.12 75.204,12.348 C74.292,12.444 73.509,12.582 72.855,12.762 C72.201,12.942 71.661,13.164 71.235,13.428 C70.809,13.692 70.497,14.007 70.299,14.373 C70.101,14.739 70.002,15.156 70.002,15.624 C70.002,16.404 70.242,17.031 70.722,17.505 C71.202,17.979 71.832,18.216 72.612,18.216 Z M73.278,16.596 C72.906,16.596 72.6,16.506 72.36,16.326 C72.12,16.146 72,15.858 72,15.462 C72,15.246 72.054,15.042 72.162,14.85 C72.27,14.658 72.45,14.487 72.702,14.337 C72.954,14.187 73.284,14.052 73.692,13.932 C74.1,13.812 74.604,13.716 75.204,13.644 L75.204,13.644 L75.204,15.624 C74.868,15.936 74.553,16.176 74.259,16.344 C73.965,16.512 73.638,16.596 73.278,16.596 Z M81.774,18.216 C82.23,18.216 82.596,18.156 82.872,18.036 L82.872,18.036 L82.602,16.488 C82.518,16.512 82.455,16.524 82.413,16.524 L82.413,16.524 L82.278,16.524 C82.17,16.524 82.068,16.473 81.972,16.371 C81.876,16.269 81.828,16.092 81.828,15.84 L81.828,15.84 L81.828,5.292 L79.758,5.292 L79.758,15.732 C79.758,16.5 79.908,17.106 80.208,17.55 C80.508,17.994 81.03,18.216 81.774,18.216 Z M95.688,18 L95.688,16.236 L90.504,16.236 L90.504,12.762 L94.734,12.762 L94.734,10.998 L90.504,10.998 L90.504,7.992 L95.508,7.992 L95.508,6.228 L88.416,6.228 L88.416,18 L95.688,18 Z M100.386,18.216 C100.938,18.216 101.43,18.144 101.862,18 C102.294,17.856 102.654,17.661 102.942,17.415 C103.23,17.169 103.449,16.881 103.599,16.551 C103.749,16.221 103.824,15.864 103.824,15.48 C103.824,15.072 103.749,14.721 103.599,14.427 C103.449,14.133 103.251,13.884 103.005,13.68 C102.759,13.476 102.486,13.305 102.186,13.167 C101.886,13.029 101.586,12.906 101.286,12.798 C101.046,12.714 100.815,12.63 100.593,12.546 C100.371,12.462 100.176,12.372 100.008,12.276 C99.84,12.18 99.705,12.069 99.603,11.943 C99.501,11.817 99.45,11.664 99.45,11.484 C99.45,11.208 99.555,10.977 99.765,10.791 C99.975,10.605 100.302,10.512 100.746,10.512 C101.094,10.512 101.427,10.581 101.745,10.719 C102.063,10.857 102.378,11.04 102.69,11.268 L102.69,11.268 L103.644,10.008 C103.284,9.732 102.858,9.486 102.366,9.27 C101.874,9.054 101.322,8.946 100.71,8.946 C99.714,8.946 98.928,9.192 98.352,9.684 C97.776,10.176 97.488,10.812 97.488,11.592 C97.488,11.964 97.563,12.285 97.713,12.555 C97.863,12.825 98.055,13.062 98.289,13.266 C98.523,13.47 98.79,13.644 99.09,13.788 C99.39,13.932 99.684,14.058 99.972,14.166 C100.2,14.262 100.428,14.355 100.656,14.445 C100.884,14.535 101.088,14.634 101.268,14.742 C101.448,14.85 101.592,14.973 101.7,15.111 C101.808,15.249 101.862,15.408 101.862,15.588 C101.862,15.9 101.748,16.155 101.52,16.353 C101.292,16.551 100.938,16.65 100.458,16.65 C100.002,16.65 99.579,16.563 99.189,16.389 C98.799,16.215 98.406,15.972 98.01,15.66 L98.01,15.66 L97.038,16.992 C97.47,17.34 97.983,17.631 98.577,17.865 C99.171,18.099 99.774,18.216 100.386,18.216 Z M108.432,18.216 C108.78,18.216 109.107,18.183 109.413,18.117 C109.719,18.051 109.992,17.976 110.232,17.892 L110.232,17.892 L109.872,16.362 C109.74,16.422 109.593,16.47 109.431,16.506 C109.269,16.542 109.11,16.56 108.954,16.56 C108.126,16.56 107.712,16.044 107.712,15.012 L107.712,15.012 L107.712,10.8 L109.962,10.8 L109.962,9.162 L107.712,9.162 L107.712,6.75 L105.984,6.75 L105.732,9.162 L104.364,9.252 L104.364,10.8 L105.624,10.8 L105.624,15.012 C105.624,15.492 105.675,15.927 105.777,16.317 C105.879,16.707 106.041,17.043 106.263,17.325 C106.485,17.607 106.773,17.826 107.127,17.982 C107.481,18.138 107.916,18.216 108.432,18.216 Z M112.86,7.614 C113.232,7.614 113.538,7.506 113.778,7.29 C114.018,7.074 114.138,6.792 114.138,6.444 C114.138,6.096 114.018,5.811 113.778,5.589 C113.538,5.367 113.232,5.256 112.86,5.256 C112.488,5.256 112.182,5.367 111.942,5.589 C111.702,5.811 111.582,6.096 111.582,6.444 C111.582,6.792 111.702,7.074 111.942,7.29 C112.182,7.506 112.488,7.614 112.86,7.614 Z M113.886,18 L113.886,9.162 L111.816,9.162 L111.816,18 L113.886,18 Z M118.602,18 L118.602,11.826 C119.286,11.094 119.904,10.728 120.456,10.728 C120.924,10.728 121.269,10.878 121.491,11.178 C121.713,11.478 121.824,11.994 121.824,12.726 L121.824,12.726 L121.824,18 L123.894,18 L123.894,11.826 C124.578,11.094 125.196,10.728 125.748,10.728 C126.204,10.728 126.543,10.878 126.765,11.178 C126.987,11.478 127.098,11.994 127.098,12.726 L127.098,12.726 L127.098,18 L129.186,18 L129.186,12.456 C129.186,11.328 128.964,10.461 128.52,9.855 C128.076,9.249 127.386,8.946 126.45,8.946 C125.886,8.946 125.376,9.096 124.92,9.396 C124.464,9.696 124.026,10.074 123.606,10.53 C123.402,10.026 123.105,9.636 122.715,9.36 C122.325,9.084 121.806,8.946 121.158,8.946 C120.606,8.946 120.111,9.084 119.673,9.36 C119.235,9.636 118.83,9.972 118.458,10.368 L118.458,10.368 L118.386,10.368 L118.242,9.162 L116.532,9.162 L116.532,18 L118.602,18 Z M133.848,18.216 C134.376,18.216 134.865,18.102 135.315,17.874 C135.765,17.646 136.188,17.364 136.584,17.028 L136.584,17.028 L136.656,17.028 L136.8,18 L138.51,18 L138.51,12.762 C138.51,11.526 138.237,10.581 137.691,9.927 C137.145,9.273 136.32,8.946 135.216,8.946 C134.508,8.946 133.848,9.06 133.236,9.288 C132.624,9.516 132.072,9.786 131.58,10.098 L131.58,10.098 L132.336,11.484 C132.732,11.244 133.137,11.04 133.551,10.872 C133.965,10.704 134.388,10.62 134.82,10.62 C135.12,10.62 135.372,10.665 135.576,10.755 C135.78,10.845 135.945,10.971 136.071,11.133 C136.197,11.295 136.287,11.481 136.341,11.691 C136.395,11.901 136.428,12.12 136.44,12.348 C135.528,12.444 134.745,12.582 134.091,12.762 C133.437,12.942 132.897,13.164 132.471,13.428 C132.045,13.692 131.733,14.007 131.535,14.373 C131.337,14.739 131.238,15.156 131.238,15.624 C131.238,16.404 131.478,17.031 131.958,17.505 C132.438,17.979 133.068,18.216 133.848,18.216 Z M134.514,16.596 C134.142,16.596 133.836,16.506 133.596,16.326 C133.356,16.146 133.236,15.858 133.236,15.462 C133.236,15.246 133.29,15.042 133.398,14.85 C133.506,14.658 133.686,14.487 133.938,14.337 C134.19,14.187 134.52,14.052 134.928,13.932 C135.336,13.812 135.84,13.716 136.44,13.644 L136.44,13.644 L136.44,15.624 C136.104,15.936 135.789,16.176 135.495,16.344 C135.201,16.512 134.874,16.596 134.514,16.596 Z M143.82,18.216 C144.168,18.216 144.495,18.183 144.801,18.117 C145.107,18.051 145.38,17.976 145.62,17.892 L145.62,17.892 L145.26,16.362 C145.128,16.422 144.981,16.47 144.819,16.506 C144.657,16.542 144.498,16.56 144.342,16.56 C143.514,16.56 143.1,16.044 143.1,15.012 L143.1,15.012 L143.1,10.8 L145.35,10.8 L145.35,9.162 L143.1,9.162 L143.1,6.75 L141.372,6.75 L141.12,9.162 L139.752,9.252 L139.752,10.8 L141.012,10.8 L141.012,15.012 C141.012,15.492 141.063,15.927 141.165,16.317 C141.267,16.707 141.429,17.043 141.651,17.325 C141.873,17.607 142.161,17.826 142.515,17.982 C142.869,18.138 143.304,18.216 143.82,18.216 Z M150.696,18.216 C151.26,18.216 151.8,18.126 152.316,17.946 C152.832,17.766 153.3,17.538 153.72,17.262 L153.72,17.262 L153.018,15.966 C152.694,16.17 152.367,16.329 152.037,16.443 C151.707,16.557 151.35,16.614 150.966,16.614 C150.246,16.614 149.655,16.401 149.193,15.975 C148.731,15.549 148.452,14.94 148.356,14.148 L148.356,14.148 L153.972,14.148 C153.996,14.04 154.017,13.896 154.035,13.716 C154.053,13.536 154.062,13.344 154.062,13.14 C154.062,12.528 153.984,11.964 153.828,11.448 C153.672,10.932 153.441,10.488 153.135,10.116 C152.829,9.744 152.448,9.456 151.992,9.252 C151.536,9.048 151.008,8.946 150.408,8.946 C149.892,8.946 149.388,9.054 148.896,9.27 C148.404,9.486 147.969,9.792 147.591,10.188 C147.213,10.584 146.91,11.07 146.682,11.646 C146.454,12.222 146.34,12.87 146.34,13.59 C146.34,14.322 146.451,14.973 146.673,15.543 C146.895,16.113 147.204,16.596 147.6,16.992 C147.996,17.388 148.458,17.691 148.986,17.901 C149.514,18.111 150.084,18.216 150.696,18.216 Z M152.262,12.744 L148.338,12.744 C148.434,12.024 148.68,11.478 149.076,11.106 C149.472,10.734 149.934,10.548 150.462,10.548 C151.074,10.548 151.527,10.743 151.821,11.133 C152.115,11.523 152.262,12.06 152.262,12.744 L152.262,12.744 Z M159.138,18.216 C159.618,18.216 160.074,18.102 160.506,17.874 C160.938,17.646 161.316,17.37 161.64,17.046 L161.64,17.046 L161.712,17.046 L161.856,18 L163.566,18 L163.566,5.292 L161.496,5.292 L161.496,8.496 L161.568,9.918 C161.22,9.618 160.872,9.381 160.524,9.207 C160.176,9.033 159.75,8.946 159.246,8.946 C158.766,8.946 158.301,9.054 157.851,9.27 C157.401,9.486 157.002,9.792 156.654,10.188 C156.306,10.584 156.027,11.07 155.817,11.646 C155.607,12.222 155.502,12.87 155.502,13.59 C155.502,15.054 155.829,16.191 156.483,17.001 C157.137,17.811 158.022,18.216 159.138,18.216 Z M159.642,16.506 C158.994,16.506 158.499,16.257 158.157,15.759 C157.815,15.261 157.644,14.532 157.644,13.572 C157.644,12.636 157.842,11.916 158.238,11.412 C158.634,10.908 159.12,10.656 159.696,10.656 C159.996,10.656 160.293,10.71 160.587,10.818 C160.881,10.926 161.184,11.118 161.496,11.394 L161.496,11.394 L161.496,15.516 C160.92,16.176 160.302,16.506 159.642,16.506 Z M176.958,18 L176.958,16.236 L172.062,16.236 L172.062,6.228 L169.974,6.228 L169.974,18 L176.958,18 Z M182.376,18.216 C182.94,18.216 183.48,18.126 183.996,17.946 C184.512,17.766 184.98,17.538 185.4,17.262 L185.4,17.262 L184.698,15.966 C184.374,16.17 184.047,16.329 183.717,16.443 C183.387,16.557 183.03,16.614 182.646,16.614 C181.926,16.614 181.335,16.401 180.873,15.975 C180.411,15.549 180.132,14.94 180.036,14.148 L180.036,14.148 L185.652,14.148 C185.676,14.04 185.697,13.896 185.715,13.716 C185.733,13.536 185.742,13.344 185.742,13.14 C185.742,12.528 185.664,11.964 185.508,11.448 C185.352,10.932 185.121,10.488 184.815,10.116 C184.509,9.744 184.128,9.456 183.672,9.252 C183.216,9.048 182.688,8.946 182.088,8.946 C181.572,8.946 181.068,9.054 180.576,9.27 C180.084,9.486 179.649,9.792 179.271,10.188 C178.893,10.584 178.59,11.07 178.362,11.646 C178.134,12.222 178.02,12.87 178.02,13.59 C178.02,14.322 178.131,14.973 178.353,15.543 C178.575,16.113 178.884,16.596 179.28,16.992 C179.676,17.388 180.138,17.691 180.666,17.901 C181.194,18.111 181.764,18.216 182.376,18.216 Z M183.942,12.744 L180.018,12.744 C180.114,12.024 180.36,11.478 180.756,11.106 C181.152,10.734 181.614,10.548 182.142,10.548 C182.754,10.548 183.207,10.743 183.501,11.133 C183.795,11.523 183.942,12.06 183.942,12.744 L183.942,12.744 Z M189.792,18 L189.792,11.826 C190.164,11.466 190.497,11.193 190.791,11.007 C191.085,10.821 191.424,10.728 191.808,10.728 C192.3,10.728 192.654,10.878 192.87,11.178 C193.086,11.478 193.194,11.994 193.194,12.726 L193.194,12.726 L193.194,18 L195.264,18 L195.264,12.456 C195.264,11.328 195.048,10.461 194.616,9.855 C194.184,9.249 193.494,8.946 192.546,8.946 C191.934,8.946 191.397,9.084 190.935,9.36 C190.473,9.636 190.044,9.966 189.648,10.35 L189.648,10.35 L189.576,10.35 L189.432,9.162 L187.722,9.162 L187.722,18 L189.792,18 Z M200.898,18.216 C201.378,18.216 201.834,18.102 202.266,17.874 C202.698,17.646 203.076,17.37 203.4,17.046 L203.4,17.046 L203.472,17.046 L203.616,18 L205.326,18 L205.326,5.292 L203.256,5.292 L203.256,8.496 L203.328,9.918 C202.98,9.618 202.632,9.381 202.284,9.207 C201.936,9.033 201.51,8.946 201.006,8.946 C200.526,8.946 200.061,9.054 199.611,9.27 C199.161,9.486 198.762,9.792 198.414,10.188 C198.066,10.584 197.787,11.07 197.577,11.646 C197.367,12.222 197.262,12.87 197.262,13.59 C197.262,15.054 197.589,16.191 198.243,17.001 C198.897,17.811 199.782,18.216 200.898,18.216 Z M201.402,16.506 C200.754,16.506 200.259,16.257 199.917,15.759 C199.575,15.261 199.404,14.532 199.404,13.572 C199.404,12.636 199.602,11.916 199.998,11.412 C200.394,10.908 200.88,10.656 201.456,10.656 C201.756,10.656 202.053,10.71 202.347,10.818 C202.641,10.926 202.944,11.118 203.256,11.394 L203.256,11.394 L203.256,15.516 C202.68,16.176 202.062,16.506 201.402,16.506 Z M208.998,7.614 C209.37,7.614 209.676,7.506 209.916,7.29 C210.156,7.074 210.276,6.792 210.276,6.444 C210.276,6.096 210.156,5.811 209.916,5.589 C209.676,5.367 209.37,5.256 208.998,5.256 C208.626,5.256 208.32,5.367 208.08,5.589 C207.84,5.811 207.72,6.096 207.72,6.444 C207.72,6.792 207.84,7.074 208.08,7.29 C208.32,7.506 208.626,7.614 208.998,7.614 Z M210.024,18 L210.024,9.162 L207.954,9.162 L207.954,18 L210.024,18 Z M214.74,18 L214.74,11.826 C215.112,11.466 215.445,11.193 215.739,11.007 C216.033,10.821 216.372,10.728 216.756,10.728 C217.248,10.728 217.602,10.878 217.818,11.178 C218.034,11.478 218.142,11.994 218.142,12.726 L218.142,12.726 L218.142,18 L220.212,18 L220.212,12.456 C220.212,11.328 219.996,10.461 219.564,9.855 C219.132,9.249 218.442,8.946 217.494,8.946 C216.882,8.946 216.345,9.084 215.883,9.36 C215.421,9.636 214.992,9.966 214.596,10.35 L214.596,10.35 L214.524,10.35 L214.38,9.162 L212.67,9.162 L212.67,18 L214.74,18 Z M225.828,21.906 C226.548,21.906 227.199,21.825 227.781,21.663 C228.363,21.501 228.858,21.282 229.266,21.006 C229.674,20.73 229.989,20.4 230.211,20.016 C230.433,19.632 230.544,19.224 230.544,18.792 C230.544,18.024 230.271,17.469 229.725,17.127 C229.179,16.785 228.372,16.614 227.304,16.614 L227.304,16.614 L225.738,16.614 C225.198,16.614 224.823,16.542 224.613,16.398 C224.403,16.254 224.298,16.056 224.298,15.804 C224.298,15.6 224.337,15.438 224.415,15.318 C224.493,15.198 224.598,15.078 224.73,14.958 C224.934,15.042 225.138,15.102 225.342,15.138 C225.546,15.174 225.744,15.192 225.936,15.192 C226.404,15.192 226.842,15.126 227.25,14.994 C227.658,14.862 228.012,14.67 228.312,14.418 C228.612,14.166 228.849,13.854 229.023,13.482 C229.197,13.11 229.284,12.678 229.284,12.186 C229.284,11.874 229.236,11.589 229.14,11.331 C229.044,11.073 228.924,10.86 228.78,10.692 L228.78,10.692 L230.4,10.692 L230.4,9.162 L227.232,9.162 C227.052,9.102 226.851,9.051 226.629,9.009 C226.407,8.967 226.176,8.946 225.936,8.946 C225.468,8.946 225.024,9.015 224.604,9.153 C224.184,9.291 223.815,9.495 223.497,9.765 C223.179,10.035 222.924,10.368 222.732,10.764 C222.54,11.16 222.444,11.61 222.444,12.114 C222.444,12.642 222.561,13.107 222.795,13.509 C223.029,13.911 223.296,14.226 223.596,14.454 L223.596,14.454 L223.596,14.526 C223.344,14.706 223.119,14.937 222.921,15.219 C222.723,15.501 222.624,15.816 222.624,16.164 C222.624,16.524 222.699,16.824 222.849,17.064 C222.999,17.304 223.188,17.496 223.416,17.64 L223.416,17.64 L223.416,17.712 C223.008,17.964 222.696,18.249 222.48,18.567 C222.264,18.885 222.156,19.23 222.156,19.602 C222.156,19.986 222.249,20.322 222.435,20.61 C222.621,20.898 222.876,21.138 223.2,21.33 C223.524,21.522 223.911,21.666 224.361,21.762 C224.811,21.858 225.3,21.906 225.828,21.906 Z M225.936,13.896 C225.504,13.896 225.138,13.743 224.838,13.437 C224.538,13.131 224.388,12.69 224.388,12.114 C224.388,11.55 224.538,11.118 224.838,10.818 C225.138,10.518 225.504,10.368 225.936,10.368 C226.368,10.368 226.731,10.521 227.025,10.827 C227.319,11.133 227.466,11.562 227.466,12.114 C227.466,12.69 227.316,13.131 227.016,13.437 C226.716,13.743 226.356,13.896 225.936,13.896 Z M226.152,20.556 C225.444,20.556 224.889,20.445 224.487,20.223 C224.085,20.001 223.884,19.692 223.884,19.296 C223.884,18.864 224.112,18.474 224.568,18.126 C224.892,18.21 225.294,18.252 225.774,18.252 L225.774,18.252 L226.98,18.252 C227.484,18.252 227.871,18.312 228.141,18.432 C228.411,18.552 228.546,18.786 228.546,19.134 C228.546,19.518 228.327,19.851 227.889,20.133 C227.451,20.415 226.872,20.556 226.152,20.556 Z M239.76,19.98 L239.76,18.126 C240.66,17.958 241.35,17.583 241.83,17.001 C242.31,16.419 242.55,15.696 242.55,14.832 C242.55,14.232 242.43,13.731 242.19,13.329 C241.95,12.927 241.647,12.588 241.281,12.312 C240.915,12.036 240.522,11.799 240.102,11.601 C239.682,11.403 239.289,11.205 238.923,11.007 C238.557,10.809 238.254,10.593 238.014,10.359 C237.774,10.125 237.654,9.828 237.654,9.468 C237.654,9 237.792,8.643 238.068,8.397 C238.344,8.151 238.728,8.028 239.22,8.028 C239.652,8.028 240.024,8.109 240.336,8.271 C240.648,8.433 240.972,8.67 241.308,8.982 L241.308,8.982 L242.37,7.776 C242.034,7.428 241.659,7.125 241.245,6.867 C240.831,6.609 240.336,6.444 239.76,6.372 L239.76,6.372 L239.76,4.572 L238.32,4.572 L238.32,6.408 C237.504,6.552 236.856,6.903 236.376,7.461 C235.896,8.019 235.656,8.718 235.656,9.558 C235.656,10.122 235.776,10.593 236.016,10.971 C236.256,11.349 236.559,11.673 236.925,11.943 C237.291,12.213 237.684,12.447 238.104,12.645 C238.524,12.843 238.917,13.05 239.283,13.266 C239.649,13.482 239.952,13.722 240.192,13.986 C240.432,14.25 240.552,14.58 240.552,14.976 C240.552,15.468 240.408,15.849 240.12,16.119 C239.832,16.389 239.394,16.524 238.806,16.524 C238.314,16.524 237.852,16.422 237.42,16.218 C236.988,16.014 236.562,15.744 236.142,15.408 L236.142,15.408 L235.206,16.812 C235.614,17.196 236.097,17.505 236.655,17.739 C237.213,17.973 237.768,18.12 238.32,18.18 L238.32,18.18 L238.32,19.98 L239.76,19.98 Z M247.95,18.216 C248.502,18.216 249.021,18.141 249.507,17.991 C249.993,17.841 250.419,17.625 250.785,17.343 C251.151,17.061 251.439,16.716 251.649,16.308 C251.859,15.9 251.964,15.432 251.964,14.904 C251.964,14.148 251.739,13.53 251.289,13.05 C250.839,12.57 250.272,12.24 249.588,12.06 L249.588,12.06 L249.588,11.988 C250.212,11.748 250.701,11.412 251.055,10.98 C251.409,10.548 251.586,10.008 251.586,9.36 C251.586,8.88 251.496,8.451 251.316,8.073 C251.136,7.695 250.884,7.377 250.56,7.119 C250.236,6.861 249.846,6.666 249.39,6.534 C248.934,6.402 248.43,6.336 247.878,6.336 C247.194,6.336 246.573,6.468 246.015,6.732 C245.457,6.996 244.932,7.344 244.44,7.776 L244.44,7.776 L245.502,9.054 C245.85,8.73 246.207,8.469 246.573,8.271 C246.939,8.073 247.35,7.974 247.806,7.974 C248.334,7.974 248.748,8.109 249.048,8.379 C249.348,8.649 249.498,9.024 249.498,9.504 C249.498,9.768 249.447,10.014 249.345,10.242 C249.243,10.47 249.075,10.665 248.841,10.827 C248.607,10.989 248.301,11.115 247.923,11.205 C247.545,11.295 247.074,11.34 246.51,11.34 L246.51,11.34 L246.51,12.852 C247.158,12.852 247.698,12.897 248.13,12.987 C248.562,13.077 248.907,13.206 249.165,13.374 C249.423,13.542 249.606,13.746 249.714,13.986 C249.822,14.226 249.876,14.496 249.876,14.796 C249.876,15.336 249.681,15.759 249.291,16.065 C248.901,16.371 248.394,16.524 247.77,16.524 C247.194,16.524 246.684,16.401 246.24,16.155 C245.796,15.909 245.4,15.612 245.052,15.264 L245.052,15.264 L244.062,16.596 C244.47,17.052 244.986,17.436 245.61,17.748 C246.234,18.06 247.014,18.216 247.95,18.216 Z M255.348,18.216 C255.732,18.216 256.05,18.084 256.302,17.82 C256.554,17.556 256.68,17.22 256.68,16.812 C256.68,16.404 256.554,16.068 256.302,15.804 C256.05,15.54 255.732,15.408 255.348,15.408 C254.964,15.408 254.643,15.54 254.385,15.804 C254.127,16.068 253.998,16.404 253.998,16.812 C253.998,17.22 254.127,17.556 254.385,17.82 C254.643,18.084 254.964,18.216 255.348,18.216 Z M261.72,18.216 C262.308,18.216 262.875,18.096 263.421,17.856 C263.967,17.616 264.447,17.241 264.861,16.731 C265.275,16.221 265.605,15.57 265.851,14.778 C266.097,13.986 266.22,13.032 266.22,11.916 C266.22,10.956 266.109,10.125 265.887,9.423 C265.665,8.721 265.365,8.142 264.987,7.686 C264.609,7.23 264.168,6.891 263.664,6.669 C263.16,6.447 262.632,6.336 262.08,6.336 C261.588,6.336 261.123,6.423 260.685,6.597 C260.247,6.771 259.866,7.02 259.542,7.344 C259.218,7.668 258.96,8.061 258.768,8.523 C258.576,8.985 258.48,9.504 258.48,10.08 C258.48,10.68 258.561,11.202 258.723,11.646 C258.885,12.09 259.113,12.459 259.407,12.753 C259.701,13.047 260.052,13.266 260.46,13.41 C260.868,13.554 261.318,13.626 261.81,13.626 C262.23,13.626 262.668,13.509 263.124,13.275 C263.58,13.041 263.976,12.714 264.312,12.294 C264.288,13.086 264.201,13.752 264.051,14.292 C263.901,14.832 263.706,15.267 263.466,15.597 C263.226,15.927 262.947,16.164 262.629,16.308 C262.311,16.452 261.972,16.524 261.612,16.524 C261.264,16.524 260.925,16.443 260.595,16.281 C260.265,16.119 259.992,15.912 259.776,15.66 L259.776,15.66 L258.66,16.92 C259.008,17.28 259.434,17.586 259.938,17.838 C260.442,18.09 261.036,18.216 261.72,18.216 Z M262.206,12.132 C261.63,12.132 261.183,11.961 260.865,11.619 C260.547,11.277 260.388,10.764 260.388,10.08 C260.388,9.384 260.556,8.85 260.892,8.478 C261.228,8.106 261.63,7.92 262.098,7.92 C262.65,7.92 263.121,8.148 263.511,8.604 C263.901,9.06 264.15,9.792 264.258,10.8 C263.958,11.268 263.625,11.607 263.259,11.817 C262.893,12.027 262.542,12.132 262.206,12.132 Z M275.472,18 L275.472,16.236 L272.664,16.236 C272.388,16.236 272.076,16.251 271.728,16.281 C271.38,16.311 271.056,16.338 270.756,16.362 C271.32,15.762 271.854,15.18 272.358,14.616 C272.862,14.052 273.303,13.503 273.681,12.969 C274.059,12.435 274.359,11.907 274.581,11.385 C274.803,10.863 274.914,10.35 274.914,9.846 C274.914,9.318 274.827,8.838 274.653,8.406 C274.479,7.974 274.236,7.605 273.924,7.299 C273.612,6.993 273.234,6.756 272.79,6.588 C272.346,6.42 271.848,6.336 271.296,6.336 C270.504,6.336 269.829,6.489 269.271,6.795 C268.713,7.101 268.17,7.536 267.642,8.1 L267.642,8.1 L268.794,9.252 C269.106,8.904 269.445,8.604 269.811,8.352 C270.177,8.1 270.582,7.974 271.026,7.974 C271.638,7.974 272.106,8.151 272.43,8.505 C272.754,8.859 272.916,9.342 272.916,9.954 C272.916,10.386 272.796,10.842 272.556,11.322 C272.316,11.802 271.971,12.318 271.521,12.87 C271.071,13.422 270.525,14.022 269.883,14.67 C269.241,15.318 268.524,16.026 267.732,16.794 L267.732,16.794 L267.732,18 L275.472,18 Z M282.24,18 L282.24,7.992 L285.642,7.992 L285.642,6.228 L276.75,6.228 L276.75,7.992 L280.152,7.992 L280.152,18 L282.24,18 Z" id="TotalEstimatedLending$3.92T" fill="#666666" fill-rule="nonzero"></path>
                <path d="M12.632,55.144 C13.032,55.144 13.404,55.086 13.748,54.97 C14.092,54.854 14.39,54.662 14.642,54.394 C14.894,54.126 15.092,53.776 15.236,53.344 C15.38,52.912 15.452,52.38 15.452,51.748 L15.452,51.748 L15.452,47.128 L14.492,47.128 L14.492,51.772 C14.492,52.244 14.444,52.64 14.348,52.96 C14.252,53.28 14.12,53.536 13.952,53.728 C13.784,53.92 13.588,54.058 13.364,54.142 C13.14,54.226 12.896,54.268 12.632,54.268 C12.376,54.268 12.136,54.226 11.912,54.142 C11.688,54.058 11.494,53.92 11.33,53.728 C11.166,53.536 11.036,53.28 10.94,52.96 C10.844,52.64 10.796,52.244 10.796,51.772 L10.796,51.772 L10.796,47.128 L9.8,47.128 L9.8,51.748 C9.8,52.38 9.872,52.912 10.016,53.344 C10.16,53.776 10.358,54.126 10.61,54.394 C10.862,54.662 11.162,54.854 11.51,54.97 C11.858,55.086 12.232,55.144 12.632,55.144 Z M20.216,55 L20.216,47.968 L22.592,47.968 L22.592,47.128 L16.832,47.128 L16.832,47.968 L19.208,47.968 L19.208,55 L20.216,55 Z M25.004,55 L25.004,47.128 L24.008,47.128 L24.008,55 L25.004,55 Z M31.604,55 L31.604,54.148 L28.16,54.148 L28.16,47.128 L27.164,47.128 L27.164,55 L31.604,55 Z M33.992,55 L33.992,47.128 L32.996,47.128 L32.996,55 L33.992,55 Z M41.036,55 L41.036,54.148 L36.848,54.148 L41,47.716 L41,47.128 L35.984,47.128 L35.984,47.968 L39.752,47.968 L35.612,54.4 L35.612,55 L41.036,55 Z M47.276,55 L47.276,54.148 L43.616,54.148 L43.616,51.292 L46.604,51.292 L46.604,50.44 L43.616,50.44 L43.616,47.968 L47.156,47.968 L47.156,47.128 L42.62,47.128 L42.62,55 L47.276,55 Z M50.96,55 C51.552,55 52.076,54.91 52.532,54.73 C52.988,54.55 53.372,54.29 53.684,53.95 C53.996,53.61 54.232,53.194 54.392,52.702 C54.552,52.21 54.632,51.652 54.632,51.028 C54.632,49.772 54.316,48.808 53.684,48.136 C53.052,47.464 52.128,47.128 50.912,47.128 L50.912,47.128 L48.944,47.128 L48.944,55 L50.96,55 Z M50.84,54.184 L49.94,54.184 L49.94,47.944 L50.84,47.944 C51.76,47.944 52.45,48.208 52.91,48.736 C53.37,49.264 53.6,50.028 53.6,51.028 C53.6,52.028 53.37,52.804 52.91,53.356 C52.45,53.908 51.76,54.184 50.84,54.184 L50.84,54.184 Z M14.708,70 L14.708,69.148 L11.264,69.148 L11.264,62.128 L10.268,62.128 L10.268,70 L14.708,70 Z M20.756,70 L20.756,69.148 L17.096,69.148 L17.096,66.292 L20.084,66.292 L20.084,65.44 L17.096,65.44 L17.096,62.968 L20.636,62.968 L20.636,62.128 L16.1,62.128 L16.1,70 L20.756,70 Z M23.372,70 L23.372,65.884 C23.372,65.468 23.358,65.054 23.33,64.642 C23.302,64.23 23.272,63.824 23.24,63.424 L23.24,63.424 L23.288,63.424 L24.14,65.044 L26.996,70 L28.028,70 L28.028,62.128 L27.08,62.128 L27.08,66.196 C27.08,66.612 27.094,67.034 27.122,67.462 C27.15,67.89 27.176,68.304 27.2,68.704 L27.2,68.704 L27.152,68.704 L26.3,67.072 L23.456,62.128 L22.424,62.128 L22.424,70 L23.372,70 Z M32.204,70 C32.796,70 33.32,69.91 33.776,69.73 C34.232,69.55 34.616,69.29 34.928,68.95 C35.24,68.61 35.476,68.194 35.636,67.702 C35.796,67.21 35.876,66.652 35.876,66.028 C35.876,64.772 35.56,63.808 34.928,63.136 C34.296,62.464 33.372,62.128 32.156,62.128 L32.156,62.128 L30.188,62.128 L30.188,70 L32.204,70 Z M32.084,69.184 L31.184,69.184 L31.184,62.944 L32.084,62.944 C33.004,62.944 33.694,63.208 34.154,63.736 C34.614,64.264 34.844,65.028 34.844,66.028 C34.844,67.028 34.614,67.804 34.154,68.356 C33.694,68.908 33.004,69.184 32.084,69.184 L32.084,69.184 Z M38.564,70 L38.564,62.128 L37.568,62.128 L37.568,70 L38.564,70 Z M41.672,70 L41.672,65.884 C41.672,65.468 41.658,65.054 41.63,64.642 C41.602,64.23 41.572,63.824 41.54,63.424 L41.54,63.424 L41.588,63.424 L42.44,65.044 L45.296,70 L46.328,70 L46.328,62.128 L45.38,62.128 L45.38,66.196 C45.38,66.612 45.394,67.034 45.422,67.462 C45.45,67.89 45.476,68.304 45.5,68.704 L45.5,68.704 L45.452,68.704 L44.6,67.072 L41.756,62.128 L40.724,62.128 L40.724,70 L41.672,70 Z M51.584,70.144 C52.112,70.144 52.584,70.058 53,69.886 C53.416,69.714 53.752,69.496 54.008,69.232 L54.008,69.232 L54.008,65.92 L51.428,65.92 L51.428,66.748 L53.096,66.748 L53.096,68.8 C52.936,68.944 52.73,69.058 52.478,69.142 C52.226,69.226 51.96,69.268 51.68,69.268 C51.256,69.268 50.882,69.192 50.558,69.04 C50.234,68.888 49.962,68.672 49.742,68.392 C49.522,68.112 49.354,67.774 49.238,67.378 C49.122,66.982 49.064,66.536 49.064,66.04 C49.064,65.552 49.126,65.112 49.25,64.72 C49.374,64.328 49.548,63.994 49.772,63.718 C49.996,63.442 50.268,63.23 50.588,63.082 C50.908,62.934 51.268,62.86 51.668,62.86 C52.068,62.86 52.4,62.932 52.664,63.076 C52.928,63.22 53.16,63.396 53.36,63.604 L53.36,63.604 L53.912,62.956 C53.8,62.836 53.67,62.718 53.522,62.602 C53.374,62.486 53.206,62.382 53.018,62.29 C52.83,62.198 52.622,62.124 52.394,62.068 C52.166,62.012 51.916,61.984 51.644,61.984 C51.124,61.984 50.642,62.078 50.198,62.266 C49.754,62.454 49.372,62.724 49.052,63.076 C48.732,63.428 48.482,63.856 48.302,64.36 C48.122,64.864 48.032,65.432 48.032,66.064 C48.032,66.704 48.12,67.278 48.296,67.786 C48.472,68.294 48.716,68.722 49.028,69.07 C49.34,69.418 49.714,69.684 50.15,69.868 C50.586,70.052 51.064,70.144 51.584,70.144 Z M19.442,86.32 L19.442,85.072 C20.066,84.936 20.534,84.662 20.846,84.25 C21.158,83.838 21.314,83.344 21.314,82.768 C21.314,82.384 21.236,82.062 21.08,81.802 C20.924,81.542 20.728,81.32 20.492,81.136 C20.256,80.952 20.002,80.796 19.73,80.668 C19.458,80.54 19.204,80.416 18.968,80.296 C18.732,80.176 18.536,80.05 18.38,79.918 C18.224,79.786 18.146,79.624 18.146,79.432 C18.146,79.16 18.222,78.964 18.374,78.844 C18.526,78.724 18.746,78.664 19.034,78.664 C19.29,78.664 19.518,78.714 19.718,78.814 C19.918,78.914 20.126,79.064 20.342,79.264 L20.342,79.264 L21.23,78.256 C20.998,78.008 20.738,77.796 20.45,77.62 C20.162,77.444 19.826,77.328 19.442,77.272 L19.442,77.272 L19.442,76.06 L18.278,76.06 L18.278,77.296 C17.71,77.408 17.264,77.658 16.94,78.046 C16.616,78.434 16.454,78.924 16.454,79.516 C16.454,79.876 16.532,80.18 16.688,80.428 C16.844,80.676 17.04,80.892 17.276,81.076 C17.512,81.26 17.766,81.418 18.038,81.55 C18.31,81.682 18.564,81.814 18.8,81.946 C19.036,82.078 19.232,82.216 19.388,82.36 C19.544,82.504 19.622,82.68 19.622,82.888 C19.622,83.168 19.544,83.376 19.388,83.512 C19.232,83.648 18.986,83.716 18.65,83.716 C18.362,83.716 18.08,83.658 17.804,83.542 C17.528,83.426 17.238,83.252 16.934,83.02 L16.934,83.02 L16.166,84.208 C16.446,84.464 16.78,84.67 17.168,84.826 C17.556,84.982 17.926,85.08 18.278,85.12 L18.278,85.12 L18.278,86.32 L19.442,86.32 Z M25.718,85 C25.75,84.256 25.798,83.598 25.862,83.026 C25.926,82.454 26.032,81.918 26.18,81.418 C26.328,80.918 26.536,80.434 26.804,79.966 C27.072,79.498 27.426,78.996 27.866,78.46 L27.866,78.46 L27.866,77.38 L22.562,77.38 L22.562,78.868 L25.982,78.868 C25.622,79.364 25.32,79.844 25.076,80.308 C24.832,80.772 24.632,81.246 24.476,81.73 C24.32,82.214 24.2,82.722 24.116,83.254 C24.032,83.786 23.974,84.368 23.942,85 L23.942,85 L25.718,85 Z M32.054,85 C32.086,84.256 32.134,83.598 32.198,83.026 C32.262,82.454 32.368,81.918 32.516,81.418 C32.664,80.918 32.872,80.434 33.14,79.966 C33.408,79.498 33.762,78.996 34.202,78.46 L34.202,78.46 L34.202,77.38 L28.898,77.38 L28.898,78.868 L32.318,78.868 C31.958,79.364 31.656,79.844 31.412,80.308 C31.168,80.772 30.968,81.246 30.812,81.73 C30.656,82.214 30.536,82.722 30.452,83.254 C30.368,83.786 30.31,84.368 30.278,85 L30.278,85 L32.054,85 Z M37.454,85.144 C37.854,85.144 38.24,85.062 38.612,84.898 C38.984,84.734 39.312,84.484 39.596,84.148 C39.88,83.812 40.108,83.384 40.28,82.864 C40.452,82.344 40.538,81.728 40.538,81.016 C40.538,80.344 40.456,79.77 40.292,79.294 C40.128,78.818 39.912,78.428 39.644,78.124 C39.376,77.82 39.068,77.596 38.72,77.452 C38.372,77.308 38.014,77.236 37.646,77.236 C37.302,77.236 36.976,77.294 36.668,77.41 C36.36,77.526 36.092,77.696 35.864,77.92 C35.636,78.144 35.454,78.414 35.318,78.73 C35.182,79.046 35.114,79.4 35.114,79.792 C35.114,80.192 35.172,80.54 35.288,80.836 C35.404,81.132 35.562,81.376 35.762,81.568 C35.962,81.76 36.2,81.904 36.476,82 C36.752,82.096 37.054,82.144 37.382,82.144 C37.502,82.144 37.63,82.126 37.766,82.09 C37.902,82.054 38.038,82.002 38.174,81.934 C38.31,81.866 38.442,81.782 38.57,81.682 C38.698,81.582 38.81,81.468 38.906,81.34 C38.89,81.788 38.84,82.162 38.756,82.462 C38.672,82.762 38.56,83.006 38.42,83.194 C38.28,83.382 38.118,83.516 37.934,83.596 C37.75,83.676 37.55,83.716 37.334,83.716 C37.11,83.716 36.89,83.662 36.674,83.554 C36.458,83.446 36.286,83.32 36.158,83.176 L36.158,83.176 L35.222,84.232 C35.462,84.472 35.768,84.684 36.14,84.868 C36.512,85.052 36.95,85.144 37.454,85.144 Z M37.73,80.896 C37.442,80.896 37.202,80.814 37.01,80.65 C36.818,80.486 36.722,80.2 36.722,79.792 C36.722,79.36 36.818,79.046 37.01,78.85 C37.202,78.654 37.426,78.556 37.682,78.556 C37.954,78.556 38.2,78.67 38.42,78.898 C38.64,79.126 38.79,79.54 38.87,80.14 C38.718,80.412 38.54,80.606 38.336,80.722 C38.132,80.838 37.93,80.896 37.73,80.896 Z M44.87,85 C45.294,85 45.69,84.954 46.058,84.862 C46.426,84.77 46.748,84.63 47.024,84.442 C47.3,84.254 47.516,84.016 47.672,83.728 C47.828,83.44 47.906,83.096 47.906,82.696 C47.906,82.432 47.87,82.198 47.798,81.994 C47.726,81.79 47.626,81.612 47.498,81.46 C47.37,81.308 47.222,81.182 47.054,81.082 C46.886,80.982 46.702,80.908 46.502,80.86 L46.502,80.86 L46.502,80.812 C46.662,80.756 46.804,80.668 46.928,80.548 C47.052,80.428 47.158,80.292 47.246,80.14 C47.334,79.988 47.402,79.824 47.45,79.648 C47.498,79.472 47.522,79.296 47.522,79.12 C47.522,78.744 47.448,78.432 47.3,78.184 C47.152,77.936 46.948,77.736 46.688,77.584 C46.428,77.432 46.124,77.326 45.776,77.266 C45.428,77.206 45.05,77.176 44.642,77.176 L44.642,77.176 L41.966,77.176 L41.966,85 L44.87,85 Z M44.558,80.308 L43.73,80.308 L43.73,78.544 L44.57,78.544 C44.986,78.544 45.294,78.608 45.494,78.736 C45.694,78.864 45.794,79.08 45.794,79.384 C45.794,79.664 45.696,79.888 45.5,80.056 C45.304,80.224 44.99,80.308 44.558,80.308 L44.558,80.308 Z M44.726,83.632 L43.73,83.632 L43.73,81.616 L44.726,81.616 C45.214,81.616 45.578,81.69 45.818,81.838 C46.058,81.986 46.178,82.232 46.178,82.576 C46.178,83.28 45.694,83.632 44.726,83.632 L44.726,83.632 Z" id="UTILIZEDLENDING$779B" fill="#666666" fill-rule="nonzero"></path>
                <path d="M0,97 L0,40 L331,40 L331,97" id="Path-21-Copy-4" stroke="#D8D8D8" stroke-dasharray="3,3"></path>
                <path d="M172.724,55 L173.48,52.6 L176.348,52.6 L177.092,55 L178.16,55 L175.496,47.128 L174.368,47.128 L171.704,55 L172.724,55 Z M176.096,51.796 L173.732,51.796 L174.104,50.596 C174.248,50.156 174.384,49.718 174.512,49.282 C174.64,48.846 174.764,48.4 174.884,47.944 L174.884,47.944 L174.932,47.944 C175.06,48.4 175.188,48.846 175.316,49.282 C175.444,49.718 175.58,50.156 175.724,50.596 L175.724,50.596 L176.096,51.796 Z M181.712,55 L184.208,47.128 L183.188,47.128 L181.928,51.376 C181.792,51.848 181.668,52.284 181.556,52.684 L181.469,52.99 C181.379,53.302 181.28,53.632 181.172,53.98 L181.172,53.98 L181.124,53.98 C180.972,53.516 180.842,53.084 180.734,52.684 L180.649625,52.37725 C180.561875,52.06375 180.464,51.73 180.356,51.376 L180.356,51.376 L179.096,47.128 L178.028,47.128 L180.548,55 L181.712,55 Z M185.096,55 L185.852,52.6 L188.72,52.6 L189.464,55 L190.532,55 L187.868,47.128 L186.74,47.128 L184.076,55 L185.096,55 Z M188.468,51.796 L186.104,51.796 L186.476,50.596 C186.62,50.156 186.756,49.718 186.884,49.282 C187.012,48.846 187.136,48.4 187.256,47.944 L187.256,47.944 L187.304,47.944 C187.432,48.4 187.56,48.846 187.688,49.282 C187.816,49.718 187.952,50.156 188.096,50.596 L188.096,50.596 L188.468,51.796 Z M192.644,55 L192.644,47.128 L191.648,47.128 L191.648,55 L192.644,55 Z M199.244,55 L199.244,54.148 L195.8,54.148 L195.8,47.128 L194.804,47.128 L194.804,55 L199.244,55 Z M200.648,55 L201.404,52.6 L204.272,52.6 L205.016,55 L206.084,55 L203.42,47.128 L202.292,47.128 L199.628,55 L200.648,55 Z M204.02,51.796 L201.656,51.796 L202.028,50.596 C202.172,50.156 202.308,49.718 202.436,49.282 C202.564,48.846 202.688,48.4 202.808,47.944 L202.808,47.944 L202.856,47.944 C202.984,48.4 203.112,48.846 203.24,49.282 C203.368,49.718 203.504,50.156 203.648,50.596 L203.648,50.596 L204.02,51.796 Z M209.708,55 C210.148,55 210.552,54.952 210.92,54.856 C211.288,54.76 211.604,54.616 211.868,54.424 C212.132,54.232 212.336,53.992 212.48,53.704 C212.624,53.416 212.696,53.08 212.696,52.696 C212.696,52.152 212.548,51.724 212.252,51.412 C211.956,51.1 211.568,50.9 211.088,50.812 L211.088,50.812 L211.088,50.764 C211.464,50.644 211.75,50.426 211.946,50.11 C212.142,49.794 212.24,49.44 212.24,49.048 C212.24,48.704 212.174,48.41 212.042,48.166 C211.91,47.922 211.726,47.724 211.49,47.572 C211.254,47.42 210.97,47.308 210.638,47.236 C210.306,47.164 209.94,47.128 209.54,47.128 L209.54,47.128 L207.2,47.128 L207.2,55 L209.708,55 Z M209.36,50.476 L208.196,50.476 L208.196,47.92 L209.408,47.92 C210.024,47.92 210.486,48.016 210.794,48.208 C211.102,48.4 211.256,48.724 211.256,49.18 C211.256,49.58 211.108,49.896 210.812,50.128 C210.516,50.36 210.032,50.476 209.36,50.476 L209.36,50.476 Z M209.564,54.208 L208.196,54.208 L208.196,51.244 L209.564,51.244 C210.26,51.244 210.792,51.358 211.16,51.586 C211.528,51.814 211.712,52.172 211.712,52.66 C211.712,53.188 211.524,53.578 211.148,53.83 C210.772,54.082 210.244,54.208 209.564,54.208 L209.564,54.208 Z M218.696,55 L218.696,54.148 L215.252,54.148 L215.252,47.128 L214.256,47.128 L214.256,55 L218.696,55 Z M224.744,55 L224.744,54.148 L221.084,54.148 L221.084,51.292 L224.072,51.292 L224.072,50.44 L221.084,50.44 L221.084,47.968 L224.624,47.968 L224.624,47.128 L220.088,47.128 L220.088,55 L224.744,55 Z M181.208,70 L181.208,69.148 L177.764,69.148 L177.764,62.128 L176.768,62.128 L176.768,70 L181.208,70 Z M187.256,70 L187.256,69.148 L183.596,69.148 L183.596,66.292 L186.584,66.292 L186.584,65.44 L183.596,65.44 L183.596,62.968 L187.136,62.968 L187.136,62.128 L182.6,62.128 L182.6,70 L187.256,70 Z M189.872,70 L189.872,65.884 C189.872,65.468 189.858,65.054 189.83,64.642 C189.802,64.23 189.772,63.824 189.74,63.424 L189.74,63.424 L189.788,63.424 L190.64,65.044 L193.496,70 L194.528,70 L194.528,62.128 L193.58,62.128 L193.58,66.196 C193.58,66.612 193.594,67.034 193.622,67.462 C193.65,67.89 193.676,68.304 193.7,68.704 L193.7,68.704 L193.652,68.704 L192.8,67.072 L189.956,62.128 L188.924,62.128 L188.924,70 L189.872,70 Z M198.704,70 C199.296,70 199.82,69.91 200.276,69.73 C200.732,69.55 201.116,69.29 201.428,68.95 C201.74,68.61 201.976,68.194 202.136,67.702 C202.296,67.21 202.376,66.652 202.376,66.028 C202.376,64.772 202.06,63.808 201.428,63.136 C200.796,62.464 199.872,62.128 198.656,62.128 L198.656,62.128 L196.688,62.128 L196.688,70 L198.704,70 Z M198.584,69.184 L197.684,69.184 L197.684,62.944 L198.584,62.944 C199.504,62.944 200.194,63.208 200.654,63.736 C201.114,64.264 201.344,65.028 201.344,66.028 C201.344,67.028 201.114,67.804 200.654,68.356 C200.194,68.908 199.504,69.184 198.584,69.184 L198.584,69.184 Z M205.064,70 L205.064,62.128 L204.068,62.128 L204.068,70 L205.064,70 Z M208.172,70 L208.172,65.884 C208.172,65.468 208.158,65.054 208.13,64.642 C208.102,64.23 208.072,63.824 208.04,63.424 L208.04,63.424 L208.088,63.424 L208.94,65.044 L211.796,70 L212.828,70 L212.828,62.128 L211.88,62.128 L211.88,66.196 C211.88,66.612 211.894,67.034 211.922,67.462 C211.95,67.89 211.976,68.304 212,68.704 L212,68.704 L211.952,68.704 L211.1,67.072 L208.256,62.128 L207.224,62.128 L207.224,70 L208.172,70 Z M218.084,70.144 C218.612,70.144 219.084,70.058 219.5,69.886 C219.916,69.714 220.252,69.496 220.508,69.232 L220.508,69.232 L220.508,65.92 L217.928,65.92 L217.928,66.748 L219.596,66.748 L219.596,68.8 C219.436,68.944 219.23,69.058 218.978,69.142 C218.726,69.226 218.46,69.268 218.18,69.268 C217.756,69.268 217.382,69.192 217.058,69.04 C216.734,68.888 216.462,68.672 216.242,68.392 C216.022,68.112 215.854,67.774 215.738,67.378 C215.622,66.982 215.564,66.536 215.564,66.04 C215.564,65.552 215.626,65.112 215.75,64.72 C215.874,64.328 216.048,63.994 216.272,63.718 C216.496,63.442 216.768,63.23 217.088,63.082 C217.408,62.934 217.768,62.86 218.168,62.86 C218.568,62.86 218.9,62.932 219.164,63.076 C219.428,63.22 219.66,63.396 219.86,63.604 L219.86,63.604 L220.412,62.956 C220.3,62.836 220.17,62.718 220.022,62.602 C219.874,62.486 219.706,62.382 219.518,62.29 C219.33,62.198 219.122,62.124 218.894,62.068 C218.666,62.012 218.416,61.984 218.144,61.984 C217.624,61.984 217.142,62.078 216.698,62.266 C216.254,62.454 215.872,62.724 215.552,63.076 C215.232,63.428 214.982,63.856 214.802,64.36 C214.622,64.864 214.532,65.432 214.532,66.064 C214.532,66.704 214.62,67.278 214.796,67.786 C214.972,68.294 215.216,68.722 215.528,69.07 C215.84,69.418 216.214,69.684 216.65,69.868 C217.086,70.052 217.564,70.144 218.084,70.144 Z M184.436,86.32 L184.436,85.072 C185.06,84.936 185.528,84.662 185.84,84.25 C186.152,83.838 186.308,83.344 186.308,82.768 C186.308,82.384 186.23,82.062 186.074,81.802 C185.918,81.542 185.722,81.32 185.486,81.136 C185.25,80.952 184.996,80.796 184.724,80.668 C184.452,80.54 184.198,80.416 183.962,80.296 C183.726,80.176 183.53,80.05 183.374,79.918 C183.218,79.786 183.14,79.624 183.14,79.432 C183.14,79.16 183.216,78.964 183.368,78.844 C183.52,78.724 183.74,78.664 184.028,78.664 C184.284,78.664 184.512,78.714 184.712,78.814 C184.912,78.914 185.12,79.064 185.336,79.264 L185.336,79.264 L186.224,78.256 C185.992,78.008 185.732,77.796 185.444,77.62 C185.156,77.444 184.82,77.328 184.436,77.272 L184.436,77.272 L184.436,76.06 L183.272,76.06 L183.272,77.296 C182.704,77.408 182.258,77.658 181.934,78.046 C181.61,78.434 181.448,78.924 181.448,79.516 C181.448,79.876 181.526,80.18 181.682,80.428 C181.838,80.676 182.034,80.892 182.27,81.076 C182.506,81.26 182.76,81.418 183.032,81.55 C183.304,81.682 183.558,81.814 183.794,81.946 C184.03,82.078 184.226,82.216 184.382,82.36 C184.538,82.504 184.616,82.68 184.616,82.888 C184.616,83.168 184.538,83.376 184.382,83.512 C184.226,83.648 183.98,83.716 183.644,83.716 C183.356,83.716 183.074,83.658 182.798,83.542 C182.522,83.426 182.232,83.252 181.928,83.02 L181.928,83.02 L181.16,84.208 C181.44,84.464 181.774,84.67 182.162,84.826 C182.55,84.982 182.92,85.08 183.272,85.12 L183.272,85.12 L183.272,86.32 L184.436,86.32 Z M189.944,85.144 C190.328,85.144 190.692,85.094 191.036,84.994 C191.38,84.894 191.68,84.75 191.936,84.562 C192.192,84.374 192.396,84.142 192.548,83.866 C192.7,83.59 192.776,83.276 192.776,82.924 C192.776,82.428 192.634,82.026 192.35,81.718 C192.066,81.41 191.704,81.192 191.264,81.064 L191.264,81.064 L191.264,81.016 C191.672,80.84 191.986,80.614 192.206,80.338 C192.426,80.062 192.536,79.724 192.536,79.324 C192.536,78.988 192.472,78.692 192.344,78.436 C192.216,78.18 192.038,77.962 191.81,77.782 C191.582,77.602 191.306,77.466 190.982,77.374 C190.658,77.282 190.3,77.236 189.908,77.236 C189.436,77.236 189.006,77.322 188.618,77.494 C188.23,77.666 187.86,77.904 187.508,78.208 L187.508,78.208 L188.396,79.288 C188.636,79.08 188.866,78.916 189.086,78.796 C189.306,78.676 189.552,78.616 189.824,78.616 C190.128,78.616 190.36,78.69 190.52,78.838 C190.68,78.986 190.76,79.192 190.76,79.456 C190.76,79.608 190.73,79.746 190.67,79.87 C190.61,79.994 190.51,80.102 190.37,80.194 C190.23,80.286 190.046,80.356 189.818,80.404 C189.59,80.452 189.304,80.476 188.96,80.476 L188.96,80.476 L188.96,81.724 C189.376,81.724 189.716,81.75 189.98,81.802 C190.244,81.854 190.452,81.926 190.604,82.018 C190.756,82.11 190.862,82.224 190.922,82.36 C190.982,82.496 191.012,82.648 191.012,82.816 C191.012,83.104 190.9,83.326 190.676,83.482 C190.452,83.638 190.152,83.716 189.776,83.716 C189.448,83.716 189.146,83.644 188.87,83.5 C188.594,83.356 188.34,83.172 188.108,82.948 L188.108,82.948 L187.292,84.064 C187.572,84.392 187.928,84.654 188.36,84.85 C188.792,85.046 189.32,85.144 189.944,85.144 Z M195.164,85.144 C195.468,85.144 195.722,85.038 195.926,84.826 C196.13,84.614 196.232,84.352 196.232,84.04 C196.232,83.72 196.13,83.454 195.926,83.242 C195.722,83.03 195.468,82.924 195.164,82.924 C194.86,82.924 194.606,83.03 194.402,83.242 C194.198,83.454 194.096,83.72 194.096,84.04 C194.096,84.352 194.198,84.614 194.402,84.826 C194.606,85.038 194.86,85.144 195.164,85.144 Z M202.652,85 L202.652,83.572 L201.224,83.572 L201.224,77.38 L199.928,77.38 C199.656,77.54 199.376,77.676 199.088,77.788 C198.8,77.9 198.448,77.996 198.032,78.076 L198.032,78.076 L198.032,79.168 L199.46,79.168 L199.46,83.572 L197.804,83.572 L197.804,85 L202.652,85 Z M208.472,85 L208.472,83.176 L209.348,83.176 L209.348,81.832 L208.472,81.832 L208.472,77.38 L206.312,77.38 L203.528,81.964 L203.528,83.176 L206.828,83.176 L206.828,85 L208.472,85 Z M206.828,81.832 L205.22,81.832 L206.228,80.176 C206.34,79.96 206.448,79.744 206.552,79.528 C206.656,79.312 206.756,79.1 206.852,78.892 L206.852,78.892 L206.9,78.892 C206.884,79.132 206.868,79.414 206.852,79.738 C206.836,80.062 206.828,80.348 206.828,80.596 L206.828,80.596 L206.828,81.832 Z M213.86,85 L213.86,78.664 L216.008,78.664 L216.008,77.176 L209.936,77.176 L209.936,78.664 L212.084,78.664 L212.084,85 L213.86,85 Z" id="AVAILABLELENDING$3.14T" fill="#666666" fill-rule="nonzero"></path>
                <line x1="166" y1="39.5" x2="166" y2="27.5" id="Line-14-Copy-7" stroke="#D8D8D8" stroke-linecap="round" stroke-linejoin="round" stroke-dasharray="3,3"></line>
                <line x1="198.5" y1="97" x2="198.5" y2="89" id="Line-14-Copy-8" stroke="#979797" stroke-width="0.5" stroke-linecap="square"></line>
                <line x1="31.25" y1="97" x2="31.25" y2="89" id="Line-14-Copy-9" stroke="#979797" stroke-width="0.5" stroke-linecap="square"></line>
                <rect id="Rectangle-Copy-21" fill="#6F41A7" x="0" y="97" width="65" height="40"></rect>
                <rect id="Rectangle-Copy-16" fill="#DAD1E4" x="70" y="97" width="261" height="40"></rect>
            </g>
        </g>
    </g>
</svg>