<?xml version="1.0" encoding="UTF-8"?>
<svg width="944px" height="148px" viewBox="0 0 944 148" version="1.1" xmlns="http://www.w3.org/2000/svg" xmlns:xlink="http://www.w3.org/1999/xlink" role="img">
    <desc>Viz 1 C desktop placeholder alt text</desc>
    <defs>
        <polygon id="path-1" points="432.5 57.5 472.5 57.5 472.5 190.5 432.5 190.5"></polygon>
        <mask id="mask-2" maskContentUnits="userSpaceOnUse" maskUnits="objectBoundingBox" x="0" y="0" width="40" height="133" fill="white">
            <use xlink:href="#path-1"></use>
        </mask>
        <polygon id="path-3" points="713 -85 753 -85 753 333 713 333"></polygon>
        <mask id="mask-4" maskContentUnits="userSpaceOnUse" maskUnits="objectBoundingBox" x="0" y="0" width="40" height="418" fill="white">
            <use xlink:href="#path-3"></use>
        </mask>
    </defs>
    <g id="SVG-Outlines" stroke="none" stroke-width="1" fill="none" fill-rule="evenodd">
        <g id="Desktop-HD" transform="translate(-245.000000, -814.000000)">
            <g id="VIZ-3---C---Desktop" transform="translate(245.000000, 814.000000)">
                <g id="Group-4" transform="translate(1.000000, 0.000000)">
                    <polyline id="Path-21-Copy-2" stroke="#979797" stroke-width="0.5" points="0 104 0 95 380 95 380 104"></polyline>
                    <path d="M134.11,68 L134.11,63.884 C134.11,63.468 134.096,63.054 134.068,62.642 C134.04,62.23 134.01,61.824 133.978,61.424 L133.978,61.424 L134.026,61.424 L134.878,63.044 L137.734,68 L138.766,68 L138.766,60.128 L137.818,60.128 L137.818,64.196 C137.818,64.612 137.832,65.034 137.86,65.462 C137.888,65.89 137.914,66.304 137.938,66.704 L137.938,66.704 L137.89,66.704 L137.038,65.072 L134.194,60.128 L133.162,60.128 L133.162,68 L134.11,68 Z M145.582,68 L145.582,67.148 L141.922,67.148 L141.922,64.292 L144.91,64.292 L144.91,63.44 L141.922,63.44 L141.922,60.968 L145.462,60.968 L145.462,60.128 L140.926,60.128 L140.926,68 L145.582,68 Z M149.302,68 L150.466,63.26 C150.53,62.956 150.596,62.658 150.664,62.366 C150.732,62.074 150.798,61.776 150.862,61.472 L150.862,61.472 L150.91,61.472 C150.974,61.776 151.036,62.074 151.096,62.366 C151.156,62.658 151.222,62.956 151.294,63.26 L151.294,63.26 L152.482,68 L153.682,68 L155.314,60.128 L154.354,60.128 L153.526,64.412 C153.446,64.836 153.37,65.258 153.298,65.678 C153.226,66.098 153.154,66.524 153.082,66.956 L153.082,66.956 L153.034,66.956 C152.938,66.524 152.842,66.096 152.746,65.672 C152.65,65.248 152.554,64.828 152.458,64.412 L152.458,64.412 L151.366,60.128 L150.454,60.128 L149.362,64.412 C149.274,64.836 149.182,65.258 149.086,65.678 C148.99,66.098 148.898,66.524 148.81,66.956 L148.81,66.956 L148.762,66.956 C148.69,66.524 148.614,66.1 148.534,65.684 L148.417,65.054 L148.417,65.054 L148.306,64.412 L147.478,60.128 L146.446,60.128 L148.114,68 L149.302,68 Z M159.058,68 L159.814,65.6 L162.682,65.6 L163.426,68 L164.494,68 L161.83,60.128 L160.702,60.128 L158.038,68 L159.058,68 Z M162.43,64.796 L160.066,64.796 L160.438,63.596 C160.582,63.156 160.718,62.718 160.846,62.282 C160.974,61.846 161.098,61.4 161.218,60.944 L161.218,60.944 L161.266,60.944 C161.394,61.4 161.522,61.846 161.65,62.282 C161.778,62.718 161.914,63.156 162.058,63.596 L162.058,63.596 L162.43,64.796 Z M168.586,68.144 C169.114,68.144 169.586,68.058 170.002,67.886 C170.418,67.714 170.754,67.496 171.01,67.232 L171.01,67.232 L171.01,63.92 L168.43,63.92 L168.43,64.748 L170.098,64.748 L170.098,66.8 C169.938,66.944 169.732,67.058 169.48,67.142 C169.228,67.226 168.962,67.268 168.682,67.268 C168.258,67.268 167.884,67.192 167.56,67.04 C167.236,66.888 166.964,66.672 166.744,66.392 C166.524,66.112 166.356,65.774 166.24,65.378 C166.124,64.982 166.066,64.536 166.066,64.04 C166.066,63.552 166.128,63.112 166.252,62.72 C166.376,62.328 166.55,61.994 166.774,61.718 C166.998,61.442 167.27,61.23 167.59,61.082 C167.91,60.934 168.27,60.86 168.67,60.86 C169.07,60.86 169.402,60.932 169.666,61.076 C169.93,61.22 170.162,61.396 170.362,61.604 L170.362,61.604 L170.914,60.956 C170.802,60.836 170.672,60.718 170.524,60.602 C170.376,60.486 170.208,60.382 170.02,60.29 C169.832,60.198 169.624,60.124 169.396,60.068 C169.168,60.012 168.918,59.984 168.646,59.984 C168.126,59.984 167.644,60.078 167.2,60.266 C166.756,60.454 166.374,60.724 166.054,61.076 C165.734,61.428 165.484,61.856 165.304,62.36 C165.124,62.864 165.034,63.432 165.034,64.064 C165.034,64.704 165.122,65.278 165.298,65.786 C165.474,66.294 165.718,66.722 166.03,67.07 C166.342,67.418 166.716,67.684 167.152,67.868 C167.588,68.052 168.066,68.144 168.586,68.144 Z M177.55,68 L177.55,67.148 L173.89,67.148 L173.89,64.292 L176.878,64.292 L176.878,63.44 L173.89,63.44 L173.89,60.968 L177.43,60.968 L177.43,60.128 L172.894,60.128 L172.894,68 L177.55,68 Z M180.166,68 L180.166,63.884 C180.166,63.468 180.152,63.054 180.124,62.642 C180.096,62.23 180.066,61.824 180.034,61.424 L180.034,61.424 L180.082,61.424 L180.934,63.044 L183.79,68 L184.822,68 L184.822,60.128 L183.874,60.128 L183.874,64.196 C183.874,64.612 183.888,65.034 183.916,65.462 C183.944,65.89 183.97,66.304 183.994,66.704 L183.994,66.704 L183.946,66.704 L183.094,65.072 L180.25,60.128 L179.218,60.128 L179.218,68 L180.166,68 Z M189.958,68.144 C190.47,68.144 190.922,68.044 191.314,67.844 C191.706,67.644 192.058,67.364 192.37,67.004 L192.37,67.004 L191.818,66.38 C191.562,66.66 191.29,66.878 191.002,67.034 C190.714,67.19 190.378,67.268 189.994,67.268 C189.618,67.268 189.28,67.192 188.98,67.04 C188.68,66.888 188.426,66.672 188.218,66.392 C188.01,66.112 187.848,65.774 187.732,65.378 C187.616,64.982 187.558,64.536 187.558,64.04 C187.558,63.552 187.616,63.112 187.732,62.72 C187.848,62.328 188.014,61.994 188.23,61.718 C188.446,61.442 188.706,61.23 189.01,61.082 C189.314,60.934 189.654,60.86 190.03,60.86 C190.366,60.86 190.666,60.928 190.93,61.064 C191.194,61.2 191.43,61.38 191.638,61.604 L191.638,61.604 L192.178,60.956 C191.946,60.7 191.648,60.474 191.284,60.278 C190.92,60.082 190.498,59.984 190.018,59.984 C189.514,59.984 189.05,60.078 188.626,60.266 C188.202,60.454 187.834,60.724 187.522,61.076 C187.21,61.428 186.966,61.856 186.79,62.36 C186.614,62.864 186.526,63.432 186.526,64.064 C186.526,64.704 186.612,65.278 186.784,65.786 C186.956,66.294 187.196,66.722 187.504,67.07 C187.812,67.418 188.174,67.684 188.59,67.868 C189.006,68.052 189.462,68.144 189.958,68.144 Z M196.03,68 L196.03,64.952 L198.394,60.128 L197.35,60.128 L196.342,62.348 C196.222,62.636 196.094,62.92 195.958,63.2 C195.822,63.48 195.686,63.768 195.55,64.064 L195.55,64.064 L195.502,64.064 C195.366,63.768 195.238,63.48 195.118,63.2 C194.998,62.92 194.874,62.636 194.746,62.348 L194.746,62.348 L193.726,60.128 L192.658,60.128 L195.022,64.952 L195.022,68 L196.03,68 Z M202.858,68 L202.858,64.472 L205.858,64.472 L205.858,63.632 L202.858,63.632 L202.858,60.968 L206.398,60.968 L206.398,60.128 L201.862,60.128 L201.862,68 L202.858,68 Z M210.586,68.144 C210.986,68.144 211.358,68.086 211.702,67.97 C212.046,67.854 212.344,67.662 212.596,67.394 C212.848,67.126 213.046,66.776 213.19,66.344 C213.334,65.912 213.406,65.38 213.406,64.748 L213.406,64.748 L213.406,60.128 L212.446,60.128 L212.446,64.772 C212.446,65.244 212.398,65.64 212.302,65.96 C212.206,66.28 212.074,66.536 211.906,66.728 C211.738,66.92 211.542,67.058 211.318,67.142 C211.094,67.226 210.85,67.268 210.586,67.268 C210.33,67.268 210.09,67.226 209.866,67.142 C209.642,67.058 209.448,66.92 209.284,66.728 C209.12,66.536 208.99,66.28 208.894,65.96 C208.798,65.64 208.75,65.244 208.75,64.772 L208.75,64.772 L208.75,60.128 L207.754,60.128 L207.754,64.748 C207.754,65.38 207.826,65.912 207.97,66.344 C208.114,66.776 208.312,67.126 208.564,67.394 C208.816,67.662 209.116,67.854 209.464,67.97 C209.812,68.086 210.186,68.144 210.586,68.144 Z M216.478,68 L216.478,63.884 C216.478,63.468 216.464,63.054 216.436,62.642 C216.408,62.23 216.378,61.824 216.346,61.424 L216.346,61.424 L216.394,61.424 L217.246,63.044 L220.102,68 L221.134,68 L221.134,60.128 L220.186,60.128 L220.186,64.196 C220.186,64.612 220.2,65.034 220.228,65.462 C220.256,65.89 220.282,66.304 220.306,66.704 L220.306,66.704 L220.258,66.704 L219.406,65.072 L216.562,60.128 L215.53,60.128 L215.53,68 L216.478,68 Z M225.31,68 C225.902,68 226.426,67.91 226.882,67.73 C227.338,67.55 227.722,67.29 228.034,66.95 C228.346,66.61 228.582,66.194 228.742,65.702 C228.902,65.21 228.982,64.652 228.982,64.028 C228.982,62.772 228.666,61.808 228.034,61.136 C227.402,60.464 226.478,60.128 225.262,60.128 L225.262,60.128 L223.294,60.128 L223.294,68 L225.31,68 Z M225.19,67.184 L224.29,67.184 L224.29,60.944 L225.19,60.944 C226.11,60.944 226.8,61.208 227.26,61.736 C227.72,62.264 227.95,63.028 227.95,64.028 C227.95,65.028 227.72,65.804 227.26,66.356 C226.8,66.908 226.11,67.184 225.19,67.184 L225.19,67.184 Z M231.67,68 L231.67,60.128 L230.674,60.128 L230.674,68 L231.67,68 Z M234.778,68 L234.778,63.884 C234.778,63.468 234.764,63.054 234.736,62.642 C234.708,62.23 234.678,61.824 234.646,61.424 L234.646,61.424 L234.694,61.424 L235.546,63.044 L238.402,68 L239.434,68 L239.434,60.128 L238.486,60.128 L238.486,64.196 C238.486,64.612 238.5,65.034 238.528,65.462 C238.556,65.89 238.582,66.304 238.606,66.704 L238.606,66.704 L238.558,66.704 L237.706,65.072 L234.862,60.128 L233.83,60.128 L233.83,68 L234.778,68 Z M244.69,68.144 C245.218,68.144 245.69,68.058 246.106,67.886 C246.522,67.714 246.858,67.496 247.114,67.232 L247.114,67.232 L247.114,63.92 L244.534,63.92 L244.534,64.748 L246.202,64.748 L246.202,66.8 C246.042,66.944 245.836,67.058 245.584,67.142 C245.332,67.226 245.066,67.268 244.786,67.268 C244.362,67.268 243.988,67.192 243.664,67.04 C243.34,66.888 243.068,66.672 242.848,66.392 C242.628,66.112 242.46,65.774 242.344,65.378 C242.228,64.982 242.17,64.536 242.17,64.04 C242.17,63.552 242.232,63.112 242.356,62.72 C242.48,62.328 242.654,61.994 242.878,61.718 C243.102,61.442 243.374,61.23 243.694,61.082 C244.014,60.934 244.374,60.86 244.774,60.86 C245.174,60.86 245.506,60.932 245.77,61.076 C246.034,61.22 246.266,61.396 246.466,61.604 L246.466,61.604 L247.018,60.956 C246.906,60.836 246.776,60.718 246.628,60.602 C246.48,60.486 246.312,60.382 246.124,60.29 C245.936,60.198 245.728,60.124 245.5,60.068 C245.272,60.012 245.022,59.984 244.75,59.984 C244.23,59.984 243.748,60.078 243.304,60.266 C242.86,60.454 242.478,60.724 242.158,61.076 C241.838,61.428 241.588,61.856 241.408,62.36 C241.228,62.864 241.138,63.432 241.138,64.064 C241.138,64.704 241.226,65.278 241.402,65.786 C241.578,66.294 241.822,66.722 242.134,67.07 C242.446,67.418 242.82,67.684 243.256,67.868 C243.692,68.052 244.17,68.144 244.69,68.144 Z M175.936,84.32 L175.936,83.072 C176.56,82.936 177.028,82.662 177.34,82.25 C177.652,81.838 177.808,81.344 177.808,80.768 C177.808,80.384 177.73,80.062 177.574,79.802 C177.418,79.542 177.222,79.32 176.986,79.136 C176.75,78.952 176.496,78.796 176.224,78.668 C175.952,78.54 175.698,78.416 175.462,78.296 C175.226,78.176 175.03,78.05 174.874,77.918 C174.718,77.786 174.64,77.624 174.64,77.432 C174.64,77.16 174.716,76.964 174.868,76.844 C175.02,76.724 175.24,76.664 175.528,76.664 C175.784,76.664 176.012,76.714 176.212,76.814 C176.412,76.914 176.62,77.064 176.836,77.264 L176.836,77.264 L177.724,76.256 C177.492,76.008 177.232,75.796 176.944,75.62 C176.656,75.444 176.32,75.328 175.936,75.272 L175.936,75.272 L175.936,74.06 L174.772,74.06 L174.772,75.296 C174.204,75.408 173.758,75.658 173.434,76.046 C173.11,76.434 172.948,76.924 172.948,77.516 C172.948,77.876 173.026,78.18 173.182,78.428 C173.338,78.676 173.534,78.892 173.77,79.076 C174.006,79.26 174.26,79.418 174.532,79.55 C174.804,79.682 175.058,79.814 175.294,79.946 C175.53,80.078 175.726,80.216 175.882,80.36 C176.038,80.504 176.116,80.68 176.116,80.888 C176.116,81.168 176.038,81.376 175.882,81.512 C175.726,81.648 175.48,81.716 175.144,81.716 C174.856,81.716 174.574,81.658 174.298,81.542 C174.022,81.426 173.732,81.252 173.428,81.02 L173.428,81.02 L172.66,82.208 C172.94,82.464 173.274,82.67 173.662,82.826 C174.05,82.982 174.42,83.08 174.772,83.12 L174.772,83.12 L174.772,84.32 L175.936,84.32 Z M184.336,83 L184.336,81.512 L182.8,81.512 C182.616,81.512 182.406,81.522 182.17,81.542 C181.934,81.562 181.72,81.584 181.528,81.608 C181.84,81.288 182.142,80.962 182.434,80.63 C182.726,80.298 182.986,79.966 183.214,79.634 C183.442,79.302 183.624,78.97 183.76,78.638 C183.896,78.306 183.964,77.98 183.964,77.66 C183.964,77.292 183.904,76.96 183.784,76.664 C183.664,76.368 183.492,76.114 183.268,75.902 C183.044,75.69 182.778,75.526 182.47,75.41 C182.162,75.294 181.82,75.236 181.444,75.236 C180.9,75.236 180.432,75.338 180.04,75.542 C179.648,75.746 179.264,76.048 178.888,76.448 L178.888,76.448 L179.848,77.396 C180.04,77.188 180.244,77.006 180.46,76.85 C180.676,76.694 180.924,76.616 181.204,76.616 C181.54,76.616 181.804,76.714 181.996,76.91 C182.188,77.106 182.284,77.392 182.284,77.768 C182.284,78.04 182.202,78.326 182.038,78.626 C181.874,78.926 181.646,79.25 181.354,79.598 C181.062,79.946 180.714,80.318 180.31,80.714 C179.906,81.11 179.46,81.536 178.972,81.992 L178.972,81.992 L178.972,83 L184.336,83 Z M186.664,83.144 C186.968,83.144 187.222,83.038 187.426,82.826 C187.63,82.614 187.732,82.352 187.732,82.04 C187.732,81.72 187.63,81.454 187.426,81.242 C187.222,81.03 186.968,80.924 186.664,80.924 C186.36,80.924 186.106,81.03 185.902,81.242 C185.698,81.454 185.596,81.72 185.596,82.04 C185.596,82.352 185.698,82.614 185.902,82.826 C186.106,83.038 186.36,83.144 186.664,83.144 Z M191.428,83.144 C191.796,83.144 192.15,83.084 192.49,82.964 C192.83,82.844 193.128,82.67 193.384,82.442 C193.64,82.214 193.844,81.936 193.996,81.608 C194.148,81.28 194.224,80.904 194.224,80.48 C194.224,80.072 194.16,79.72 194.032,79.424 C193.904,79.128 193.728,78.884 193.504,78.692 C193.28,78.5 193.022,78.356 192.73,78.26 C192.438,78.164 192.128,78.116 191.8,78.116 C191.64,78.116 191.494,78.13 191.362,78.158 C191.23,78.186 191.092,78.232 190.948,78.296 L190.948,78.296 L191.08,76.868 L193.876,76.868 L193.876,75.38 L189.556,75.38 L189.34,79.232 L190.132,79.736 C190.244,79.664 190.346,79.604 190.438,79.556 C190.53,79.508 190.618,79.468 190.702,79.436 C190.786,79.404 190.872,79.382 190.96,79.37 C191.048,79.358 191.148,79.352 191.26,79.352 C191.62,79.352 191.91,79.452 192.13,79.652 C192.35,79.852 192.46,80.144 192.46,80.528 C192.46,80.92 192.344,81.216 192.112,81.416 C191.88,81.616 191.568,81.716 191.176,81.716 C190.848,81.716 190.55,81.642 190.282,81.494 C190.014,81.346 189.764,81.168 189.532,80.96 L189.532,80.96 L188.74,82.076 C189.044,82.38 189.412,82.634 189.844,82.838 C190.276,83.042 190.804,83.144 191.428,83.144 Z M197.956,83.144 C198.364,83.144 198.734,83.09 199.066,82.982 C199.398,82.874 199.682,82.726 199.918,82.538 C200.154,82.35 200.336,82.128 200.464,81.872 C200.592,81.616 200.656,81.336 200.656,81.032 C200.656,80.528 200.528,80.12 200.272,79.808 C200.016,79.496 199.704,79.24 199.336,79.04 L199.336,79.04 L199.336,78.992 C199.6,78.816 199.832,78.586 200.032,78.302 C200.232,78.018 200.332,77.692 200.332,77.324 C200.332,77.012 200.276,76.726 200.164,76.466 C200.052,76.206 199.896,75.986 199.696,75.806 C199.496,75.626 199.252,75.486 198.964,75.386 C198.676,75.286 198.36,75.236 198.016,75.236 C197.664,75.236 197.338,75.284 197.038,75.38 C196.738,75.476 196.48,75.616 196.264,75.8 C196.048,75.984 195.88,76.206 195.76,76.466 C195.64,76.726 195.58,77.016 195.58,77.336 C195.58,77.744 195.676,78.09 195.868,78.374 C196.06,78.658 196.304,78.912 196.6,79.136 L196.6,79.136 L196.6,79.184 C196.24,79.376 195.934,79.62 195.682,79.916 C195.43,80.212 195.304,80.592 195.304,81.056 C195.304,81.368 195.37,81.652 195.502,81.908 C195.634,82.164 195.818,82.384 196.054,82.568 C196.29,82.752 196.57,82.894 196.894,82.994 C197.218,83.094 197.572,83.144 197.956,83.144 Z M198.436,78.56 C198.044,78.408 197.728,78.244 197.488,78.068 C197.248,77.892 197.128,77.648 197.128,77.336 C197.128,77.04 197.212,76.82 197.38,76.676 C197.548,76.532 197.748,76.46 197.98,76.46 C198.268,76.46 198.494,76.55 198.658,76.73 C198.822,76.91 198.904,77.148 198.904,77.444 C198.904,77.828 198.748,78.2 198.436,78.56 Z M197.992,81.92 C197.672,81.92 197.396,81.826 197.164,81.638 C196.932,81.45 196.816,81.188 196.816,80.852 C196.816,80.62 196.872,80.4 196.984,80.192 C197.096,79.984 197.236,79.8 197.404,79.64 C197.644,79.744 197.862,79.84 198.058,79.928 C198.254,80.016 198.424,80.11 198.568,80.21 C198.712,80.31 198.822,80.42 198.898,80.54 C198.974,80.66 199.012,80.804 199.012,80.972 C199.012,81.292 198.916,81.53 198.724,81.686 C198.532,81.842 198.288,81.92 197.992,81.92 Z M205.36,83 L205.36,76.664 L207.508,76.664 L207.508,75.176 L201.436,75.176 L201.436,76.664 L203.584,76.664 L203.584,83 L205.36,83 Z" id="NEWAGENCYFUNDING$2.58T" fill="#666666" fill-rule="nonzero"></path>
                    <path d="M328.958,14 L328.958,3.992 L332.36,3.992 L332.36,2.228 L323.468,2.228 L323.468,3.992 L326.87,3.992 L326.87,14 L328.958,14 Z M336.482,14.216 C337.034,14.216 337.565,14.114 338.075,13.91 C338.585,13.706 339.032,13.406 339.416,13.01 C339.8,12.614 340.109,12.128 340.343,11.552 C340.577,10.976 340.694,10.322 340.694,9.59 C340.694,8.858 340.577,8.204 340.343,7.628 C340.109,7.052 339.8,6.566 339.416,6.17 C339.032,5.774 338.585,5.471 338.075,5.261 C337.565,5.051 337.034,4.946 336.482,4.946 C335.93,4.946 335.402,5.051 334.898,5.261 C334.394,5.471 333.947,5.774 333.557,6.17 C333.167,6.566 332.858,7.052 332.63,7.628 C332.402,8.204 332.288,8.858 332.288,9.59 C332.288,10.322 332.402,10.976 332.63,11.552 C332.858,12.128 333.167,12.614 333.557,13.01 C333.947,13.406 334.394,13.706 334.898,13.91 C335.402,14.114 335.93,14.216 336.482,14.216 Z M336.482,12.524 C335.834,12.524 335.327,12.257 334.961,11.723 C334.595,11.189 334.412,10.478 334.412,9.59 C334.412,8.69 334.595,7.973 334.961,7.439 C335.327,6.905 335.834,6.638 336.482,6.638 C337.13,6.638 337.64,6.905 338.012,7.439 C338.384,7.973 338.57,8.69 338.57,9.59 C338.57,10.478 338.384,11.189 338.012,11.723 C337.64,12.257 337.13,12.524 336.482,12.524 Z M345.464,14.216 C345.812,14.216 346.139,14.183 346.445,14.117 C346.751,14.051 347.024,13.976 347.264,13.892 L347.264,13.892 L346.904,12.362 C346.772,12.422 346.625,12.47 346.463,12.506 C346.301,12.542 346.142,12.56 345.986,12.56 C345.158,12.56 344.744,12.044 344.744,11.012 L344.744,11.012 L344.744,6.8 L346.994,6.8 L346.994,5.162 L344.744,5.162 L344.744,2.75 L343.016,2.75 L342.764,5.162 L341.396,5.252 L341.396,6.8 L342.656,6.8 L342.656,11.012 C342.656,11.492 342.707,11.927 342.809,12.317 C342.911,12.707 343.073,13.043 343.295,13.325 C343.517,13.607 343.805,13.826 344.159,13.982 C344.513,14.138 344.948,14.216 345.464,14.216 Z M350.612,14.216 C351.14,14.216 351.629,14.102 352.079,13.874 C352.529,13.646 352.952,13.364 353.348,13.028 L353.348,13.028 L353.42,13.028 L353.564,14 L355.274,14 L355.274,8.762 C355.274,7.526 355.001,6.581 354.455,5.927 C353.909,5.273 353.084,4.946 351.98,4.946 C351.272,4.946 350.612,5.06 350,5.288 C349.388,5.516 348.836,5.786 348.344,6.098 L348.344,6.098 L349.1,7.484 C349.496,7.244 349.901,7.04 350.315,6.872 C350.729,6.704 351.152,6.62 351.584,6.62 C351.884,6.62 352.136,6.665 352.34,6.755 C352.544,6.845 352.709,6.971 352.835,7.133 C352.961,7.295 353.051,7.481 353.105,7.691 C353.159,7.901 353.192,8.12 353.204,8.348 C352.292,8.444 351.509,8.582 350.855,8.762 C350.201,8.942 349.661,9.164 349.235,9.428 C348.809,9.692 348.497,10.007 348.299,10.373 C348.101,10.739 348.002,11.156 348.002,11.624 C348.002,12.404 348.242,13.031 348.722,13.505 C349.202,13.979 349.832,14.216 350.612,14.216 Z M351.278,12.596 C350.906,12.596 350.6,12.506 350.36,12.326 C350.12,12.146 350,11.858 350,11.462 C350,11.246 350.054,11.042 350.162,10.85 C350.27,10.658 350.45,10.487 350.702,10.337 C350.954,10.187 351.284,10.052 351.692,9.932 C352.1,9.812 352.604,9.716 353.204,9.644 L353.204,9.644 L353.204,11.624 C352.868,11.936 352.553,12.176 352.259,12.344 C351.965,12.512 351.638,12.596 351.278,12.596 Z M359.774,14.216 C360.23,14.216 360.596,14.156 360.872,14.036 L360.872,14.036 L360.602,12.488 C360.518,12.512 360.455,12.524 360.413,12.524 L360.413,12.524 L360.278,12.524 C360.17,12.524 360.068,12.473 359.972,12.371 C359.876,12.269 359.828,12.092 359.828,11.84 L359.828,11.84 L359.828,1.292 L357.758,1.292 L357.758,11.732 C357.758,12.5 357.908,13.106 358.208,13.55 C358.508,13.994 359.03,14.216 359.774,14.216 Z M373.688,14 L373.688,12.236 L368.504,12.236 L368.504,8.762 L372.734,8.762 L372.734,6.998 L368.504,6.998 L368.504,3.992 L373.508,3.992 L373.508,2.228 L366.416,2.228 L366.416,14 L373.688,14 Z M378.386,14.216 C378.938,14.216 379.43,14.144 379.862,14 C380.294,13.856 380.654,13.661 380.942,13.415 C381.23,13.169 381.449,12.881 381.599,12.551 C381.749,12.221 381.824,11.864 381.824,11.48 C381.824,11.072 381.749,10.721 381.599,10.427 C381.449,10.133 381.251,9.884 381.005,9.68 C380.759,9.476 380.486,9.305 380.186,9.167 C379.886,9.029 379.586,8.906 379.286,8.798 C379.046,8.714 378.815,8.63 378.593,8.546 C378.371,8.462 378.176,8.372 378.008,8.276 C377.84,8.18 377.705,8.069 377.603,7.943 C377.501,7.817 377.45,7.664 377.45,7.484 C377.45,7.208 377.555,6.977 377.765,6.791 C377.975,6.605 378.302,6.512 378.746,6.512 C379.094,6.512 379.427,6.581 379.745,6.719 C380.063,6.857 380.378,7.04 380.69,7.268 L380.69,7.268 L381.644,6.008 C381.284,5.732 380.858,5.486 380.366,5.27 C379.874,5.054 379.322,4.946 378.71,4.946 C377.714,4.946 376.928,5.192 376.352,5.684 C375.776,6.176 375.488,6.812 375.488,7.592 C375.488,7.964 375.563,8.285 375.713,8.555 C375.863,8.825 376.055,9.062 376.289,9.266 C376.523,9.47 376.79,9.644 377.09,9.788 C377.39,9.932 377.684,10.058 377.972,10.166 C378.2,10.262 378.428,10.355 378.656,10.445 C378.884,10.535 379.088,10.634 379.268,10.742 C379.448,10.85 379.592,10.973 379.7,11.111 C379.808,11.249 379.862,11.408 379.862,11.588 C379.862,11.9 379.748,12.155 379.52,12.353 C379.292,12.551 378.938,12.65 378.458,12.65 C378.002,12.65 377.579,12.563 377.189,12.389 C376.799,12.215 376.406,11.972 376.01,11.66 L376.01,11.66 L375.038,12.992 C375.47,13.34 375.983,13.631 376.577,13.865 C377.171,14.099 377.774,14.216 378.386,14.216 Z M386.432,14.216 C386.78,14.216 387.107,14.183 387.413,14.117 C387.719,14.051 387.992,13.976 388.232,13.892 L388.232,13.892 L387.872,12.362 C387.74,12.422 387.593,12.47 387.431,12.506 C387.269,12.542 387.11,12.56 386.954,12.56 C386.126,12.56 385.712,12.044 385.712,11.012 L385.712,11.012 L385.712,6.8 L387.962,6.8 L387.962,5.162 L385.712,5.162 L385.712,2.75 L383.984,2.75 L383.732,5.162 L382.364,5.252 L382.364,6.8 L383.624,6.8 L383.624,11.012 C383.624,11.492 383.675,11.927 383.777,12.317 C383.879,12.707 384.041,13.043 384.263,13.325 C384.485,13.607 384.773,13.826 385.127,13.982 C385.481,14.138 385.916,14.216 386.432,14.216 Z M390.86,3.614 C391.232,3.614 391.538,3.506 391.778,3.29 C392.018,3.074 392.138,2.792 392.138,2.444 C392.138,2.096 392.018,1.811 391.778,1.589 C391.538,1.367 391.232,1.256 390.86,1.256 C390.488,1.256 390.182,1.367 389.942,1.589 C389.702,1.811 389.582,2.096 389.582,2.444 C389.582,2.792 389.702,3.074 389.942,3.29 C390.182,3.506 390.488,3.614 390.86,3.614 Z M391.886,14 L391.886,5.162 L389.816,5.162 L389.816,14 L391.886,14 Z M396.602,14 L396.602,7.826 C397.286,7.094 397.904,6.728 398.456,6.728 C398.924,6.728 399.269,6.878 399.491,7.178 C399.713,7.478 399.824,7.994 399.824,8.726 L399.824,8.726 L399.824,14 L401.894,14 L401.894,7.826 C402.578,7.094 403.196,6.728 403.748,6.728 C404.204,6.728 404.543,6.878 404.765,7.178 C404.987,7.478 405.098,7.994 405.098,8.726 L405.098,8.726 L405.098,14 L407.186,14 L407.186,8.456 C407.186,7.328 406.964,6.461 406.52,5.855 C406.076,5.249 405.386,4.946 404.45,4.946 C403.886,4.946 403.376,5.096 402.92,5.396 C402.464,5.696 402.026,6.074 401.606,6.53 C401.402,6.026 401.105,5.636 400.715,5.36 C400.325,5.084 399.806,4.946 399.158,4.946 C398.606,4.946 398.111,5.084 397.673,5.36 C397.235,5.636 396.83,5.972 396.458,6.368 L396.458,6.368 L396.386,6.368 L396.242,5.162 L394.532,5.162 L394.532,14 L396.602,14 Z M411.848,14.216 C412.376,14.216 412.865,14.102 413.315,13.874 C413.765,13.646 414.188,13.364 414.584,13.028 L414.584,13.028 L414.656,13.028 L414.8,14 L416.51,14 L416.51,8.762 C416.51,7.526 416.237,6.581 415.691,5.927 C415.145,5.273 414.32,4.946 413.216,4.946 C412.508,4.946 411.848,5.06 411.236,5.288 C410.624,5.516 410.072,5.786 409.58,6.098 L409.58,6.098 L410.336,7.484 C410.732,7.244 411.137,7.04 411.551,6.872 C411.965,6.704 412.388,6.62 412.82,6.62 C413.12,6.62 413.372,6.665 413.576,6.755 C413.78,6.845 413.945,6.971 414.071,7.133 C414.197,7.295 414.287,7.481 414.341,7.691 C414.395,7.901 414.428,8.12 414.44,8.348 C413.528,8.444 412.745,8.582 412.091,8.762 C411.437,8.942 410.897,9.164 410.471,9.428 C410.045,9.692 409.733,10.007 409.535,10.373 C409.337,10.739 409.238,11.156 409.238,11.624 C409.238,12.404 409.478,13.031 409.958,13.505 C410.438,13.979 411.068,14.216 411.848,14.216 Z M412.514,12.596 C412.142,12.596 411.836,12.506 411.596,12.326 C411.356,12.146 411.236,11.858 411.236,11.462 C411.236,11.246 411.29,11.042 411.398,10.85 C411.506,10.658 411.686,10.487 411.938,10.337 C412.19,10.187 412.52,10.052 412.928,9.932 C413.336,9.812 413.84,9.716 414.44,9.644 L414.44,9.644 L414.44,11.624 C414.104,11.936 413.789,12.176 413.495,12.344 C413.201,12.512 412.874,12.596 412.514,12.596 Z M421.82,14.216 C422.168,14.216 422.495,14.183 422.801,14.117 C423.107,14.051 423.38,13.976 423.62,13.892 L423.62,13.892 L423.26,12.362 C423.128,12.422 422.981,12.47 422.819,12.506 C422.657,12.542 422.498,12.56 422.342,12.56 C421.514,12.56 421.1,12.044 421.1,11.012 L421.1,11.012 L421.1,6.8 L423.35,6.8 L423.35,5.162 L421.1,5.162 L421.1,2.75 L419.372,2.75 L419.12,5.162 L417.752,5.252 L417.752,6.8 L419.012,6.8 L419.012,11.012 C419.012,11.492 419.063,11.927 419.165,12.317 C419.267,12.707 419.429,13.043 419.651,13.325 C419.873,13.607 420.161,13.826 420.515,13.982 C420.869,14.138 421.304,14.216 421.82,14.216 Z M428.696,14.216 C429.26,14.216 429.8,14.126 430.316,13.946 C430.832,13.766 431.3,13.538 431.72,13.262 L431.72,13.262 L431.018,11.966 C430.694,12.17 430.367,12.329 430.037,12.443 C429.707,12.557 429.35,12.614 428.966,12.614 C428.246,12.614 427.655,12.401 427.193,11.975 C426.731,11.549 426.452,10.94 426.356,10.148 L426.356,10.148 L431.972,10.148 C431.996,10.04 432.017,9.896 432.035,9.716 C432.053,9.536 432.062,9.344 432.062,9.14 C432.062,8.528 431.984,7.964 431.828,7.448 C431.672,6.932 431.441,6.488 431.135,6.116 C430.829,5.744 430.448,5.456 429.992,5.252 C429.536,5.048 429.008,4.946 428.408,4.946 C427.892,4.946 427.388,5.054 426.896,5.27 C426.404,5.486 425.969,5.792 425.591,6.188 C425.213,6.584 424.91,7.07 424.682,7.646 C424.454,8.222 424.34,8.87 424.34,9.59 C424.34,10.322 424.451,10.973 424.673,11.543 C424.895,12.113 425.204,12.596 425.6,12.992 C425.996,13.388 426.458,13.691 426.986,13.901 C427.514,14.111 428.084,14.216 428.696,14.216 Z M430.262,8.744 L426.338,8.744 C426.434,8.024 426.68,7.478 427.076,7.106 C427.472,6.734 427.934,6.548 428.462,6.548 C429.074,6.548 429.527,6.743 429.821,7.133 C430.115,7.523 430.262,8.06 430.262,8.744 L430.262,8.744 Z M437.138,14.216 C437.618,14.216 438.074,14.102 438.506,13.874 C438.938,13.646 439.316,13.37 439.64,13.046 L439.64,13.046 L439.712,13.046 L439.856,14 L441.566,14 L441.566,1.292 L439.496,1.292 L439.496,4.496 L439.568,5.918 C439.22,5.618 438.872,5.381 438.524,5.207 C438.176,5.033 437.75,4.946 437.246,4.946 C436.766,4.946 436.301,5.054 435.851,5.27 C435.401,5.486 435.002,5.792 434.654,6.188 C434.306,6.584 434.027,7.07 433.817,7.646 C433.607,8.222 433.502,8.87 433.502,9.59 C433.502,11.054 433.829,12.191 434.483,13.001 C435.137,13.811 436.022,14.216 437.138,14.216 Z M437.642,12.506 C436.994,12.506 436.499,12.257 436.157,11.759 C435.815,11.261 435.644,10.532 435.644,9.572 C435.644,8.636 435.842,7.916 436.238,7.412 C436.634,6.908 437.12,6.656 437.696,6.656 C437.996,6.656 438.293,6.71 438.587,6.818 C438.881,6.926 439.184,7.118 439.496,7.394 L439.496,7.394 L439.496,11.516 C438.92,12.176 438.302,12.506 437.642,12.506 Z M450.062,14 L450.062,9.086 L454.346,9.086 L454.346,7.322 L450.062,7.322 L450.062,3.992 L455.084,3.992 L455.084,2.228 L447.974,2.228 L447.974,14 L450.062,14 Z M458.018,3.614 C458.39,3.614 458.696,3.506 458.936,3.29 C459.176,3.074 459.296,2.792 459.296,2.444 C459.296,2.096 459.176,1.811 458.936,1.589 C458.696,1.367 458.39,1.256 458.018,1.256 C457.646,1.256 457.34,1.367 457.1,1.589 C456.86,1.811 456.74,2.096 456.74,2.444 C456.74,2.792 456.86,3.074 457.1,3.29 C457.34,3.506 457.646,3.614 458.018,3.614 Z M459.044,14 L459.044,5.162 L456.974,5.162 L456.974,14 L459.044,14 Z M463.76,14 L463.76,7.826 C464.132,7.466 464.465,7.193 464.759,7.007 C465.053,6.821 465.392,6.728 465.776,6.728 C466.268,6.728 466.622,6.878 466.838,7.178 C467.054,7.478 467.162,7.994 467.162,8.726 L467.162,8.726 L467.162,14 L469.232,14 L469.232,8.456 C469.232,7.328 469.016,6.461 468.584,5.855 C468.152,5.249 467.462,4.946 466.514,4.946 C465.902,4.946 465.365,5.084 464.903,5.36 C464.441,5.636 464.012,5.966 463.616,6.35 L463.616,6.35 L463.544,6.35 L463.4,5.162 L461.69,5.162 L461.69,14 L463.76,14 Z M473.912,14.216 C474.44,14.216 474.929,14.102 475.379,13.874 C475.829,13.646 476.252,13.364 476.648,13.028 L476.648,13.028 L476.72,13.028 L476.864,14 L478.574,14 L478.574,8.762 C478.574,7.526 478.301,6.581 477.755,5.927 C477.209,5.273 476.384,4.946 475.28,4.946 C474.572,4.946 473.912,5.06 473.3,5.288 C472.688,5.516 472.136,5.786 471.644,6.098 L471.644,6.098 L472.4,7.484 C472.796,7.244 473.201,7.04 473.615,6.872 C474.029,6.704 474.452,6.62 474.884,6.62 C475.184,6.62 475.436,6.665 475.64,6.755 C475.844,6.845 476.009,6.971 476.135,7.133 C476.261,7.295 476.351,7.481 476.405,7.691 C476.459,7.901 476.492,8.12 476.504,8.348 C475.592,8.444 474.809,8.582 474.155,8.762 C473.501,8.942 472.961,9.164 472.535,9.428 C472.109,9.692 471.797,10.007 471.599,10.373 C471.401,10.739 471.302,11.156 471.302,11.624 C471.302,12.404 471.542,13.031 472.022,13.505 C472.502,13.979 473.132,14.216 473.912,14.216 Z M474.578,12.596 C474.206,12.596 473.9,12.506 473.66,12.326 C473.42,12.146 473.3,11.858 473.3,11.462 C473.3,11.246 473.354,11.042 473.462,10.85 C473.57,10.658 473.75,10.487 474.002,10.337 C474.254,10.187 474.584,10.052 474.992,9.932 C475.4,9.812 475.904,9.716 476.504,9.644 L476.504,9.644 L476.504,11.624 C476.168,11.936 475.853,12.176 475.559,12.344 C475.265,12.512 474.938,12.596 474.578,12.596 Z M483.128,14 L483.128,7.826 C483.5,7.466 483.833,7.193 484.127,7.007 C484.421,6.821 484.76,6.728 485.144,6.728 C485.636,6.728 485.99,6.878 486.206,7.178 C486.422,7.478 486.53,7.994 486.53,8.726 L486.53,8.726 L486.53,14 L488.6,14 L488.6,8.456 C488.6,7.328 488.384,6.461 487.952,5.855 C487.52,5.249 486.83,4.946 485.882,4.946 C485.27,4.946 484.733,5.084 484.271,5.36 C483.809,5.636 483.38,5.966 482.984,6.35 L482.984,6.35 L482.912,6.35 L482.768,5.162 L481.058,5.162 L481.058,14 L483.128,14 Z M494.828,14.216 C495.332,14.216 495.833,14.126 496.331,13.946 C496.829,13.766 497.288,13.496 497.708,13.136 L497.708,13.136 L496.862,11.768 C496.61,11.972 496.331,12.149 496.025,12.299 C495.719,12.449 495.392,12.524 495.044,12.524 C494.348,12.524 493.781,12.257 493.343,11.723 C492.905,11.189 492.686,10.478 492.686,9.59 C492.686,8.69 492.908,7.973 493.352,7.439 C493.796,6.905 494.378,6.638 495.098,6.638 C495.374,6.638 495.629,6.695 495.863,6.809 C496.097,6.923 496.334,7.082 496.574,7.286 L496.574,7.286 L497.582,5.936 C497.258,5.66 496.889,5.426 496.475,5.234 C496.061,5.042 495.566,4.946 494.99,4.946 C494.402,4.946 493.841,5.051 493.307,5.261 C492.773,5.471 492.302,5.774 491.894,6.17 C491.486,6.566 491.162,7.052 490.922,7.628 C490.682,8.204 490.562,8.858 490.562,9.59 C490.562,10.322 490.67,10.976 490.886,11.552 C491.102,12.128 491.402,12.614 491.786,13.01 C492.17,13.406 492.623,13.706 493.145,13.91 C493.667,14.114 494.228,14.216 494.828,14.216 Z M500.498,3.614 C500.87,3.614 501.176,3.506 501.416,3.29 C501.656,3.074 501.776,2.792 501.776,2.444 C501.776,2.096 501.656,1.811 501.416,1.589 C501.176,1.367 500.87,1.256 500.498,1.256 C500.126,1.256 499.82,1.367 499.58,1.589 C499.34,1.811 499.22,2.096 499.22,2.444 C499.22,2.792 499.34,3.074 499.58,3.29 C499.82,3.506 500.126,3.614 500.498,3.614 Z M501.524,14 L501.524,5.162 L499.454,5.162 L499.454,14 L501.524,14 Z M506.312,14.216 C506.84,14.216 507.329,14.102 507.779,13.874 C508.229,13.646 508.652,13.364 509.048,13.028 L509.048,13.028 L509.12,13.028 L509.264,14 L510.974,14 L510.974,8.762 C510.974,7.526 510.701,6.581 510.155,5.927 C509.609,5.273 508.784,4.946 507.68,4.946 C506.972,4.946 506.312,5.06 505.7,5.288 C505.088,5.516 504.536,5.786 504.044,6.098 L504.044,6.098 L504.8,7.484 C505.196,7.244 505.601,7.04 506.015,6.872 C506.429,6.704 506.852,6.62 507.284,6.62 C507.584,6.62 507.836,6.665 508.04,6.755 C508.244,6.845 508.409,6.971 508.535,7.133 C508.661,7.295 508.751,7.481 508.805,7.691 C508.859,7.901 508.892,8.12 508.904,8.348 C507.992,8.444 507.209,8.582 506.555,8.762 C505.901,8.942 505.361,9.164 504.935,9.428 C504.509,9.692 504.197,10.007 503.999,10.373 C503.801,10.739 503.702,11.156 503.702,11.624 C503.702,12.404 503.942,13.031 504.422,13.505 C504.902,13.979 505.532,14.216 506.312,14.216 Z M506.978,12.596 C506.606,12.596 506.3,12.506 506.06,12.326 C505.82,12.146 505.7,11.858 505.7,11.462 C505.7,11.246 505.754,11.042 505.862,10.85 C505.97,10.658 506.15,10.487 506.402,10.337 C506.654,10.187 506.984,10.052 507.392,9.932 C507.8,9.812 508.304,9.716 508.904,9.644 L508.904,9.644 L508.904,11.624 C508.568,11.936 508.253,12.176 507.959,12.344 C507.665,12.512 507.338,12.596 506.978,12.596 Z M515.474,14.216 C515.93,14.216 516.296,14.156 516.572,14.036 L516.572,14.036 L516.302,12.488 C516.218,12.512 516.155,12.524 516.113,12.524 L516.113,12.524 L515.978,12.524 C515.87,12.524 515.768,12.473 515.672,12.371 C515.576,12.269 515.528,12.092 515.528,11.84 L515.528,11.84 L515.528,1.292 L513.458,1.292 L513.458,11.732 C513.458,12.5 513.608,13.106 513.908,13.55 C514.208,13.994 514.73,14.216 515.474,14.216 Z M524.204,14 L524.204,9.392 L526.004,9.392 L528.542,14 L530.882,14 L528.074,9.086 C528.782,8.846 529.349,8.45 529.775,7.898 C530.201,7.346 530.414,6.62 530.414,5.72 C530.414,5.06 530.303,4.508 530.081,4.064 C529.859,3.62 529.556,3.263 529.172,2.993 C528.788,2.723 528.332,2.528 527.804,2.408 C527.276,2.288 526.706,2.228 526.094,2.228 L526.094,2.228 L522.116,2.228 L522.116,14 L524.204,14 Z M525.878,7.736 L524.204,7.736 L524.204,3.902 L525.878,3.902 C526.682,3.902 527.297,4.034 527.723,4.298 C528.149,4.562 528.362,5.036 528.362,5.72 C528.362,6.392 528.149,6.896 527.723,7.232 C527.297,7.568 526.682,7.736 525.878,7.736 L525.878,7.736 Z M536.192,14.216 C536.756,14.216 537.296,14.126 537.812,13.946 C538.328,13.766 538.796,13.538 539.216,13.262 L539.216,13.262 L538.514,11.966 C538.19,12.17 537.863,12.329 537.533,12.443 C537.203,12.557 536.846,12.614 536.462,12.614 C535.742,12.614 535.151,12.401 534.689,11.975 C534.227,11.549 533.948,10.94 533.852,10.148 L533.852,10.148 L539.468,10.148 C539.492,10.04 539.513,9.896 539.531,9.716 C539.549,9.536 539.558,9.344 539.558,9.14 C539.558,8.528 539.48,7.964 539.324,7.448 C539.168,6.932 538.937,6.488 538.631,6.116 C538.325,5.744 537.944,5.456 537.488,5.252 C537.032,5.048 536.504,4.946 535.904,4.946 C535.388,4.946 534.884,5.054 534.392,5.27 C533.9,5.486 533.465,5.792 533.087,6.188 C532.709,6.584 532.406,7.07 532.178,7.646 C531.95,8.222 531.836,8.87 531.836,9.59 C531.836,10.322 531.947,10.973 532.169,11.543 C532.391,12.113 532.7,12.596 533.096,12.992 C533.492,13.388 533.954,13.691 534.482,13.901 C535.01,14.111 535.58,14.216 536.192,14.216 Z M537.758,8.744 L533.834,8.744 C533.93,8.024 534.176,7.478 534.572,7.106 C534.968,6.734 535.43,6.548 535.958,6.548 C536.57,6.548 537.023,6.743 537.317,7.133 C537.611,7.523 537.758,8.06 537.758,8.744 L537.758,8.744 Z M543.554,14.216 C544.01,14.216 544.376,14.156 544.652,14.036 L544.652,14.036 L544.382,12.488 C544.298,12.512 544.235,12.524 544.193,12.524 L544.193,12.524 L544.058,12.524 C543.95,12.524 543.848,12.473 543.752,12.371 C543.656,12.269 543.608,12.092 543.608,11.84 L543.608,11.84 L543.608,1.292 L541.538,1.292 L541.538,11.732 C541.538,12.5 541.688,13.106 541.988,13.55 C542.288,13.994 542.81,14.216 543.554,14.216 Z M547.46,3.614 C547.832,3.614 548.138,3.506 548.378,3.29 C548.618,3.074 548.738,2.792 548.738,2.444 C548.738,2.096 548.618,1.811 548.378,1.589 C548.138,1.367 547.832,1.256 547.46,1.256 C547.088,1.256 546.782,1.367 546.542,1.589 C546.302,1.811 546.182,2.096 546.182,2.444 C546.182,2.792 546.302,3.074 546.542,3.29 C546.782,3.506 547.088,3.614 547.46,3.614 Z M548.486,14 L548.486,5.162 L546.416,5.162 L546.416,14 L548.486,14 Z M554.912,14.216 C555.476,14.216 556.016,14.126 556.532,13.946 C557.048,13.766 557.516,13.538 557.936,13.262 L557.936,13.262 L557.234,11.966 C556.91,12.17 556.583,12.329 556.253,12.443 C555.923,12.557 555.566,12.614 555.182,12.614 C554.462,12.614 553.871,12.401 553.409,11.975 C552.947,11.549 552.668,10.94 552.572,10.148 L552.572,10.148 L558.188,10.148 C558.212,10.04 558.233,9.896 558.251,9.716 C558.269,9.536 558.278,9.344 558.278,9.14 C558.278,8.528 558.2,7.964 558.044,7.448 C557.888,6.932 557.657,6.488 557.351,6.116 C557.045,5.744 556.664,5.456 556.208,5.252 C555.752,5.048 555.224,4.946 554.624,4.946 C554.108,4.946 553.604,5.054 553.112,5.27 C552.62,5.486 552.185,5.792 551.807,6.188 C551.429,6.584 551.126,7.07 550.898,7.646 C550.67,8.222 550.556,8.87 550.556,9.59 C550.556,10.322 550.667,10.973 550.889,11.543 C551.111,12.113 551.42,12.596 551.816,12.992 C552.212,13.388 552.674,13.691 553.202,13.901 C553.73,14.111 554.3,14.216 554.912,14.216 Z M556.478,8.744 L552.554,8.744 C552.65,8.024 552.896,7.478 553.292,7.106 C553.688,6.734 554.15,6.548 554.678,6.548 C555.29,6.548 555.743,6.743 556.037,7.133 C556.331,7.523 556.478,8.06 556.478,8.744 L556.478,8.744 Z M562.616,14 L562.616,6.8 L564.344,6.8 L564.344,5.162 L562.616,5.162 L562.616,4.208 C562.616,3.212 562.988,2.714 563.732,2.714 C564.056,2.714 564.38,2.786 564.704,2.93 L564.704,2.93 L565.1,1.382 C564.896,1.298 564.653,1.226 564.371,1.166 C564.089,1.106 563.792,1.076 563.48,1.076 C562.952,1.076 562.505,1.154 562.139,1.31 C561.773,1.466 561.47,1.685 561.23,1.967 C560.99,2.249 560.816,2.585 560.708,2.975 C560.6,3.365 560.546,3.788 560.546,4.244 L560.546,4.244 L560.546,5.162 L559.358,5.252 L559.358,6.8 L560.546,6.8 L560.546,14 L562.616,14 Z M573.542,15.98 L573.542,14.126 C574.442,13.958 575.132,13.583 575.612,13.001 C576.092,12.419 576.332,11.696 576.332,10.832 C576.332,10.232 576.212,9.731 575.972,9.329 C575.732,8.927 575.429,8.588 575.063,8.312 C574.697,8.036 574.304,7.799 573.884,7.601 C573.464,7.403 573.071,7.205 572.705,7.007 C572.339,6.809 572.036,6.593 571.796,6.359 C571.556,6.125 571.436,5.828 571.436,5.468 C571.436,5 571.574,4.643 571.85,4.397 C572.126,4.151 572.51,4.028 573.002,4.028 C573.434,4.028 573.806,4.109 574.118,4.271 C574.43,4.433 574.754,4.67 575.09,4.982 L575.09,4.982 L576.152,3.776 C575.816,3.428 575.441,3.125 575.027,2.867 C574.613,2.609 574.118,2.444 573.542,2.372 L573.542,2.372 L573.542,0.572 L572.102,0.572 L572.102,2.408 C571.286,2.552 570.638,2.903 570.158,3.461 C569.678,4.019 569.438,4.718 569.438,5.558 C569.438,6.122 569.558,6.593 569.798,6.971 C570.038,7.349 570.341,7.673 570.707,7.943 C571.073,8.213 571.466,8.447 571.886,8.645 C572.306,8.843 572.699,9.05 573.065,9.266 C573.431,9.482 573.734,9.722 573.974,9.986 C574.214,10.25 574.334,10.58 574.334,10.976 C574.334,11.468 574.19,11.849 573.902,12.119 C573.614,12.389 573.176,12.524 572.588,12.524 C572.096,12.524 571.634,12.422 571.202,12.218 C570.77,12.014 570.344,11.744 569.924,11.408 L569.924,11.408 L568.988,12.812 C569.396,13.196 569.879,13.505 570.437,13.739 C570.995,13.973 571.55,14.12 572.102,14.18 L572.102,14.18 L572.102,15.98 L573.542,15.98 Z M582.362,14.216 C582.854,14.216 583.319,14.126 583.757,13.946 C584.195,13.766 584.576,13.514 584.9,13.19 C585.224,12.866 585.482,12.473 585.674,12.011 C585.866,11.549 585.962,11.03 585.962,10.454 C585.962,9.854 585.881,9.332 585.719,8.888 C585.557,8.444 585.329,8.075 585.035,7.781 C584.741,7.487 584.387,7.268 583.973,7.124 C583.559,6.98 583.106,6.908 582.614,6.908 C582.194,6.908 581.759,7.028 581.309,7.268 C580.859,7.508 580.466,7.838 580.13,8.258 C580.154,7.466 580.241,6.8 580.391,6.26 C580.541,5.72 580.736,5.285 580.976,4.955 C581.216,4.625 581.495,4.388 581.813,4.244 C582.131,4.1 582.47,4.028 582.83,4.028 C583.178,4.028 583.517,4.109 583.847,4.271 C584.177,4.433 584.444,4.64 584.648,4.892 L584.648,4.892 L585.764,3.632 C585.416,3.272 584.993,2.966 584.495,2.714 C583.997,2.462 583.4,2.336 582.704,2.336 C582.116,2.336 581.552,2.456 581.012,2.696 C580.472,2.936 579.995,3.308 579.581,3.812 C579.167,4.316 578.834,4.964 578.582,5.756 C578.33,6.548 578.204,7.502 578.204,8.618 C578.204,9.578 578.315,10.412 578.537,11.12 C578.759,11.828 579.059,12.41 579.437,12.866 C579.815,13.322 580.256,13.661 580.76,13.883 C581.264,14.105 581.798,14.216 582.362,14.216 Z M582.326,12.632 C581.762,12.632 581.291,12.404 580.913,11.948 C580.535,11.492 580.292,10.754 580.184,9.734 C580.508,9.254 580.85,8.915 581.21,8.717 C581.57,8.519 581.912,8.42 582.236,8.42 C582.812,8.42 583.256,8.588 583.568,8.924 C583.88,9.26 584.036,9.77 584.036,10.454 C584.036,11.162 583.871,11.702 583.541,12.074 C583.211,12.446 582.806,12.632 582.326,12.632 Z M589.13,14.216 C589.514,14.216 589.832,14.084 590.084,13.82 C590.336,13.556 590.462,13.22 590.462,12.812 C590.462,12.404 590.336,12.068 590.084,11.804 C589.832,11.54 589.514,11.408 589.13,11.408 C588.746,11.408 588.425,11.54 588.167,11.804 C587.909,12.068 587.78,12.404 587.78,12.812 C587.78,13.22 587.909,13.556 588.167,13.82 C588.425,14.084 588.746,14.216 589.13,14.216 Z M599.822,14 L599.822,12.308 L597.572,12.308 L597.572,2.552 L596.024,2.552 C595.664,2.768 595.277,2.951 594.863,3.101 C594.449,3.251 593.954,3.38 593.378,3.488 L593.378,3.488 L593.378,4.784 L595.484,4.784 L595.484,12.308 L592.928,12.308 L592.928,14 L599.822,14 Z M605.78,14.216 C606.272,14.216 606.737,14.126 607.175,13.946 C607.613,13.766 607.994,13.514 608.318,13.19 C608.642,12.866 608.9,12.473 609.092,12.011 C609.284,11.549 609.38,11.03 609.38,10.454 C609.38,9.854 609.299,9.332 609.137,8.888 C608.975,8.444 608.747,8.075 608.453,7.781 C608.159,7.487 607.805,7.268 607.391,7.124 C606.977,6.98 606.524,6.908 606.032,6.908 C605.612,6.908 605.177,7.028 604.727,7.268 C604.277,7.508 603.884,7.838 603.548,8.258 C603.572,7.466 603.659,6.8 603.809,6.26 C603.959,5.72 604.154,5.285 604.394,4.955 C604.634,4.625 604.913,4.388 605.231,4.244 C605.549,4.1 605.888,4.028 606.248,4.028 C606.596,4.028 606.935,4.109 607.265,4.271 C607.595,4.433 607.862,4.64 608.066,4.892 L608.066,4.892 L609.182,3.632 C608.834,3.272 608.411,2.966 607.913,2.714 C607.415,2.462 606.818,2.336 606.122,2.336 C605.534,2.336 604.97,2.456 604.43,2.696 C603.89,2.936 603.413,3.308 602.999,3.812 C602.585,4.316 602.252,4.964 602,5.756 C601.748,6.548 601.622,7.502 601.622,8.618 C601.622,9.578 601.733,10.412 601.955,11.12 C602.177,11.828 602.477,12.41 602.855,12.866 C603.233,13.322 603.674,13.661 604.178,13.883 C604.682,14.105 605.216,14.216 605.78,14.216 Z M605.744,12.632 C605.18,12.632 604.709,12.404 604.331,11.948 C603.953,11.492 603.71,10.754 603.602,9.734 C603.926,9.254 604.268,8.915 604.628,8.717 C604.988,8.519 605.33,8.42 605.654,8.42 C606.23,8.42 606.674,8.588 606.986,8.924 C607.298,9.26 607.454,9.77 607.454,10.454 C607.454,11.162 607.289,11.702 606.959,12.074 C606.629,12.446 606.224,12.632 605.744,12.632 Z M616.022,14 L616.022,3.992 L619.424,3.992 L619.424,2.228 L610.532,2.228 L610.532,3.992 L613.934,3.992 L613.934,14 L616.022,14 Z" id="TotalEstimatedFinancialRelief$6.16T" fill="#666666" fill-rule="nonzero"></path>
                    <path d="M0,101 L0,37 L942,37 L942,101" id="Path-21" stroke="#D8D8D8" stroke-dasharray="3,3"></path>
                    <path d="M430.982,68 L430.982,60.968 L433.358,60.968 L433.358,60.128 L427.598,60.128 L427.598,60.968 L429.974,60.968 L429.974,68 L430.982,68 Z M434.27,68 L435.026,65.6 L437.894,65.6 L438.638,68 L439.706,68 L437.042,60.128 L435.914,60.128 L433.25,68 L434.27,68 Z M437.642,64.796 L435.278,64.796 L435.65,63.596 C435.794,63.156 435.93,62.718 436.058,62.282 C436.186,61.846 436.31,61.4 436.43,60.944 L436.43,60.944 L436.478,60.944 C436.606,61.4 436.734,61.846 436.862,62.282 C436.99,62.718 437.126,63.156 437.27,63.596 L437.27,63.596 L437.642,64.796 Z M441.026,68 L442.166,65.876 C442.262,65.684 442.362,65.486 442.466,65.282 C442.57,65.078 442.678,64.856 442.79,64.616 L442.79,64.616 L442.838,64.616 C442.966,64.856 443.084,65.078 443.192,65.282 C443.3,65.486 443.406,65.684 443.51,65.876 L443.51,65.876 L444.662,68 L445.766,68 L443.474,63.98 L445.622,60.128 L444.566,60.128 L443.522,62.144 C443.426,62.328 443.336,62.506 443.252,62.678 C443.168,62.85 443.07,63.052 442.958,63.284 L442.958,63.284 L442.91,63.284 C442.79,63.052 442.684,62.85 442.592,62.678 C442.5,62.506 442.402,62.328 442.298,62.144 L442.298,62.144 L441.23,60.128 L440.126,60.128 L442.262,63.932 L439.97,68 L441.026,68 Z M450.422,68 L450.422,64.676 L451.85,64.676 L453.746,68 L454.874,68 L452.87,64.568 C453.414,64.432 453.846,64.18 454.166,63.812 C454.486,63.444 454.646,62.952 454.646,62.336 C454.646,61.928 454.578,61.584 454.442,61.304 C454.306,61.024 454.116,60.796 453.872,60.62 C453.628,60.444 453.336,60.318 452.996,60.242 C452.656,60.166 452.286,60.128 451.886,60.128 L451.886,60.128 L449.426,60.128 L449.426,68 L450.422,68 Z M451.742,63.86 L450.422,63.86 L450.422,60.932 L451.742,60.932 C452.358,60.932 452.83,61.036 453.158,61.244 C453.486,61.452 453.65,61.816 453.65,62.336 C453.65,62.848 453.486,63.23 453.158,63.482 C452.83,63.734 452.358,63.86 451.742,63.86 L451.742,63.86 Z M460.91,68 L460.91,67.148 L457.25,67.148 L457.25,64.292 L460.238,64.292 L460.238,63.44 L457.25,63.44 L457.25,60.968 L460.79,60.968 L460.79,60.128 L456.254,60.128 L456.254,68 L460.91,68 Z M467.018,68 L467.018,67.148 L463.574,67.148 L463.574,60.128 L462.578,60.128 L462.578,68 L467.018,68 Z M469.406,68 L469.406,60.128 L468.41,60.128 L468.41,68 L469.406,68 Z M476.222,68 L476.222,67.148 L472.562,67.148 L472.562,64.292 L475.55,64.292 L475.55,63.44 L472.562,63.44 L472.562,60.968 L476.102,60.968 L476.102,60.128 L471.566,60.128 L471.566,68 L476.222,68 Z M478.886,68 L478.886,64.472 L481.886,64.472 L481.886,63.632 L478.886,63.632 L478.886,60.968 L482.426,60.968 L482.426,60.128 L477.89,60.128 L477.89,68 L478.886,68 Z M442.442,84.32 L442.442,83.072 C443.066,82.936 443.534,82.662 443.846,82.25 C444.158,81.838 444.314,81.344 444.314,80.768 C444.314,80.384 444.236,80.062 444.08,79.802 C443.924,79.542 443.728,79.32 443.492,79.136 C443.256,78.952 443.002,78.796 442.73,78.668 C442.458,78.54 442.204,78.416 441.968,78.296 C441.732,78.176 441.536,78.05 441.38,77.918 C441.224,77.786 441.146,77.624 441.146,77.432 C441.146,77.16 441.222,76.964 441.374,76.844 C441.526,76.724 441.746,76.664 442.034,76.664 C442.29,76.664 442.518,76.714 442.718,76.814 C442.918,76.914 443.126,77.064 443.342,77.264 L443.342,77.264 L444.23,76.256 C443.998,76.008 443.738,75.796 443.45,75.62 C443.162,75.444 442.826,75.328 442.442,75.272 L442.442,75.272 L442.442,74.06 L441.278,74.06 L441.278,75.296 C440.71,75.408 440.264,75.658 439.94,76.046 C439.616,76.434 439.454,76.924 439.454,77.516 C439.454,77.876 439.532,78.18 439.688,78.428 C439.844,78.676 440.04,78.892 440.276,79.076 C440.512,79.26 440.766,79.418 441.038,79.55 C441.31,79.682 441.564,79.814 441.8,79.946 C442.036,80.078 442.232,80.216 442.388,80.36 C442.544,80.504 442.622,80.68 442.622,80.888 C442.622,81.168 442.544,81.376 442.388,81.512 C442.232,81.648 441.986,81.716 441.65,81.716 C441.362,81.716 441.08,81.658 440.804,81.542 C440.528,81.426 440.238,81.252 439.934,81.02 L439.934,81.02 L439.166,82.208 C439.446,82.464 439.78,82.67 440.168,82.826 C440.556,82.982 440.926,83.08 441.278,83.12 L441.278,83.12 L441.278,84.32 L442.442,84.32 Z M447.782,83.144 C448.182,83.144 448.568,83.062 448.94,82.898 C449.312,82.734 449.64,82.484 449.924,82.148 C450.208,81.812 450.436,81.384 450.608,80.864 C450.78,80.344 450.866,79.728 450.866,79.016 C450.866,78.344 450.784,77.77 450.62,77.294 C450.456,76.818 450.24,76.428 449.972,76.124 C449.704,75.82 449.396,75.596 449.048,75.452 C448.7,75.308 448.342,75.236 447.974,75.236 C447.63,75.236 447.304,75.294 446.996,75.41 C446.688,75.526 446.42,75.696 446.192,75.92 C445.964,76.144 445.782,76.414 445.646,76.73 C445.51,77.046 445.442,77.4 445.442,77.792 C445.442,78.192 445.5,78.54 445.616,78.836 C445.732,79.132 445.89,79.376 446.09,79.568 C446.29,79.76 446.528,79.904 446.804,80 C447.08,80.096 447.382,80.144 447.71,80.144 C447.83,80.144 447.958,80.126 448.094,80.09 C448.23,80.054 448.366,80.002 448.502,79.934 C448.638,79.866 448.77,79.782 448.898,79.682 C449.026,79.582 449.138,79.468 449.234,79.34 C449.218,79.788 449.168,80.162 449.084,80.462 C449,80.762 448.888,81.006 448.748,81.194 C448.608,81.382 448.446,81.516 448.262,81.596 C448.078,81.676 447.878,81.716 447.662,81.716 C447.438,81.716 447.218,81.662 447.002,81.554 C446.786,81.446 446.614,81.32 446.486,81.176 L446.486,81.176 L445.55,82.232 C445.79,82.472 446.096,82.684 446.468,82.868 C446.84,83.052 447.278,83.144 447.782,83.144 Z M448.058,78.896 C447.77,78.896 447.53,78.814 447.338,78.65 C447.146,78.486 447.05,78.2 447.05,77.792 C447.05,77.36 447.146,77.046 447.338,76.85 C447.53,76.654 447.754,76.556 448.01,76.556 C448.282,76.556 448.528,76.67 448.748,76.898 C448.968,77.126 449.118,77.54 449.198,78.14 C449.046,78.412 448.868,78.606 448.664,78.722 C448.46,78.838 448.258,78.896 448.058,78.896 Z M454.538,83.144 C454.946,83.144 455.318,83.058 455.654,82.886 C455.99,82.714 456.276,82.46 456.512,82.124 C456.748,81.788 456.932,81.372 457.064,80.876 C457.196,80.38 457.262,79.808 457.262,79.16 C457.262,78.512 457.196,77.944 457.064,77.456 C456.932,76.968 456.748,76.558 456.512,76.226 C456.276,75.894 455.99,75.646 455.654,75.482 C455.318,75.318 454.946,75.236 454.538,75.236 C454.13,75.236 453.758,75.318 453.422,75.482 C453.086,75.646 452.8,75.894 452.564,76.226 C452.328,76.558 452.144,76.968 452.012,77.456 C451.88,77.944 451.814,78.512 451.814,79.16 C451.814,79.808 451.88,80.38 452.012,80.876 C452.144,81.372 452.328,81.788 452.564,82.124 C452.8,82.46 453.086,82.714 453.422,82.886 C453.758,83.058 454.13,83.144 454.538,83.144 Z M454.538,81.776 C454.394,81.776 454.258,81.738 454.13,81.662 C454.002,81.586 453.89,81.448 453.794,81.248 C453.698,81.048 453.622,80.78 453.566,80.444 C453.51,80.108 453.482,79.68 453.482,79.16 C453.482,78.64 453.51,78.214 453.566,77.882 C453.622,77.55 453.698,77.29 453.794,77.102 C453.89,76.914 454.002,76.784 454.13,76.712 C454.258,76.64 454.394,76.604 454.538,76.604 C454.69,76.604 454.83,76.64 454.958,76.712 C455.086,76.784 455.198,76.914 455.294,77.102 C455.39,77.29 455.464,77.55 455.516,77.882 C455.568,78.214 455.594,78.64 455.594,79.16 C455.594,79.68 455.568,80.108 455.516,80.444 C455.464,80.78 455.39,81.048 455.294,81.248 C455.198,81.448 455.086,81.586 454.958,81.662 C454.83,81.738 454.69,81.776 454.538,81.776 Z M463.514,83 L463.514,81.512 L461.978,81.512 C461.794,81.512 461.584,81.522 461.348,81.542 C461.112,81.562 460.898,81.584 460.706,81.608 C461.018,81.288 461.32,80.962 461.612,80.63 C461.904,80.298 462.164,79.966 462.392,79.634 C462.62,79.302 462.802,78.97 462.938,78.638 C463.074,78.306 463.142,77.98 463.142,77.66 C463.142,77.292 463.082,76.96 462.962,76.664 C462.842,76.368 462.67,76.114 462.446,75.902 C462.222,75.69 461.956,75.526 461.648,75.41 C461.34,75.294 460.998,75.236 460.622,75.236 C460.078,75.236 459.61,75.338 459.218,75.542 C458.826,75.746 458.442,76.048 458.066,76.448 L458.066,76.448 L459.026,77.396 C459.218,77.188 459.422,77.006 459.638,76.85 C459.854,76.694 460.102,76.616 460.382,76.616 C460.718,76.616 460.982,76.714 461.174,76.91 C461.366,77.106 461.462,77.392 461.462,77.768 C461.462,78.04 461.38,78.326 461.216,78.626 C461.052,78.926 460.824,79.25 460.532,79.598 C460.24,79.946 459.892,80.318 459.488,80.714 C459.084,81.11 458.638,81.536 458.15,81.992 L458.15,81.992 L458.15,83 L463.514,83 Z M467.87,83 C468.294,83 468.69,82.954 469.058,82.862 C469.426,82.77 469.748,82.63 470.024,82.442 C470.3,82.254 470.516,82.016 470.672,81.728 C470.828,81.44 470.906,81.096 470.906,80.696 C470.906,80.432 470.87,80.198 470.798,79.994 C470.726,79.79 470.626,79.612 470.498,79.46 C470.37,79.308 470.222,79.182 470.054,79.082 C469.886,78.982 469.702,78.908 469.502,78.86 L469.502,78.86 L469.502,78.812 C469.662,78.756 469.804,78.668 469.928,78.548 C470.052,78.428 470.158,78.292 470.246,78.14 C470.334,77.988 470.402,77.824 470.45,77.648 C470.498,77.472 470.522,77.296 470.522,77.12 C470.522,76.744 470.448,76.432 470.3,76.184 C470.152,75.936 469.948,75.736 469.688,75.584 C469.428,75.432 469.124,75.326 468.776,75.266 C468.428,75.206 468.05,75.176 467.642,75.176 L467.642,75.176 L464.966,75.176 L464.966,83 L467.87,83 Z M467.558,78.308 L466.73,78.308 L466.73,76.544 L467.57,76.544 C467.986,76.544 468.294,76.608 468.494,76.736 C468.694,76.864 468.794,77.08 468.794,77.384 C468.794,77.664 468.696,77.888 468.5,78.056 C468.304,78.224 467.99,78.308 467.558,78.308 L467.558,78.308 Z M467.726,81.632 L466.73,81.632 L466.73,79.616 L467.726,79.616 C468.214,79.616 468.578,79.69 468.818,79.838 C469.058,79.986 469.178,80.232 469.178,80.576 C469.178,81.28 468.694,81.632 467.726,81.632 L467.726,81.632 Z" id="TAXRELIEF$902B" fill="#666666" fill-rule="nonzero"></path>
                    <path d="M686.92,68 L686.92,64.88 L688.216,64.88 C688.648,64.88 689.042,64.83 689.398,64.73 C689.754,64.63 690.06,64.48 690.316,64.28 C690.572,64.08 690.77,63.828 690.91,63.524 C691.05,63.22 691.12,62.86 691.12,62.444 C691.12,62.012 691.048,61.648 690.904,61.352 C690.76,61.056 690.56,60.818 690.304,60.638 C690.048,60.458 689.738,60.328 689.374,60.248 C689.01,60.168 688.608,60.128 688.168,60.128 L688.168,60.128 L685.924,60.128 L685.924,68 L686.92,68 Z M688.096,64.064 L686.92,64.064 L686.92,60.932 L688.048,60.932 C688.736,60.932 689.254,61.042 689.602,61.262 C689.95,61.482 690.124,61.876 690.124,62.444 C690.124,63.004 689.958,63.414 689.626,63.674 C689.294,63.934 688.784,64.064 688.096,64.064 L688.096,64.064 Z M695.62,68.144 C696.116,68.144 696.57,68.048 696.982,67.856 C697.394,67.664 697.75,67.39 698.05,67.034 C698.35,66.678 698.582,66.246 698.746,65.738 C698.91,65.23 698.992,64.66 698.992,64.028 C698.992,63.404 698.91,62.842 698.746,62.342 C698.582,61.842 698.35,61.418 698.05,61.07 C697.75,60.722 697.394,60.454 696.982,60.266 C696.57,60.078 696.116,59.984 695.62,59.984 C695.124,59.984 694.67,60.076 694.258,60.26 C693.846,60.444 693.492,60.71 693.196,61.058 C692.9,61.406 692.67,61.83 692.506,62.33 C692.342,62.83 692.26,63.396 692.26,64.028 C692.26,64.66 692.342,65.23 692.506,65.738 C692.67,66.246 692.9,66.678 693.196,67.034 C693.492,67.39 693.846,67.664 694.258,67.856 C694.67,68.048 695.124,68.144 695.62,68.144 Z M695.62,67.268 C695.268,67.268 694.95,67.192 694.666,67.04 C694.382,66.888 694.138,66.67 693.934,66.386 C693.73,66.102 693.572,65.762 693.46,65.366 C693.348,64.97 693.292,64.524 693.292,64.028 C693.292,63.54 693.348,63.1 693.46,62.708 C693.572,62.316 693.73,61.984 693.934,61.712 C694.138,61.44 694.382,61.23 694.666,61.082 C694.95,60.934 695.268,60.86 695.62,60.86 C695.972,60.86 696.29,60.934 696.574,61.082 C696.858,61.23 697.102,61.44 697.306,61.712 C697.51,61.984 697.668,62.316 697.78,62.708 C697.892,63.1 697.948,63.54 697.948,64.028 C697.948,64.524 697.892,64.97 697.78,65.366 C697.668,65.762 697.51,66.102 697.306,66.386 C697.102,66.67 696.858,66.888 696.574,67.04 C696.29,67.192 695.972,67.268 695.62,67.268 Z M703.036,68 L703.036,60.968 L705.412,60.968 L705.412,60.128 L699.652,60.128 L699.652,60.968 L702.028,60.968 L702.028,68 L703.036,68 Z M711.484,68 L711.484,67.148 L707.824,67.148 L707.824,64.292 L710.812,64.292 L710.812,63.44 L707.824,63.44 L707.824,60.968 L711.364,60.968 L711.364,60.128 L706.828,60.128 L706.828,68 L711.484,68 Z M714.1,68 L714.1,63.884 C714.1,63.468 714.086,63.054 714.058,62.642 C714.03,62.23 714,61.824 713.968,61.424 L713.968,61.424 L714.016,61.424 L714.868,63.044 L717.724,68 L718.756,68 L718.756,60.128 L717.808,60.128 L717.808,64.196 C717.808,64.612 717.822,65.034 717.85,65.462 C717.878,65.89 717.904,66.304 717.928,66.704 L717.928,66.704 L717.88,66.704 L717.028,65.072 L714.184,60.128 L713.152,60.128 L713.152,68 L714.1,68 Z M723.556,68 L723.556,60.968 L725.932,60.968 L725.932,60.128 L720.172,60.128 L720.172,60.968 L722.548,60.968 L722.548,68 L723.556,68 Z M728.344,68 L728.344,60.128 L727.348,60.128 L727.348,68 L728.344,68 Z M730.48,68 L731.236,65.6 L734.104,65.6 L734.848,68 L735.916,68 L733.252,60.128 L732.124,60.128 L729.46,68 L730.48,68 Z M733.852,64.796 L731.488,64.796 L731.86,63.596 C732.004,63.156 732.14,62.718 732.268,62.282 C732.396,61.846 732.52,61.4 732.64,60.944 L732.64,60.944 L732.688,60.944 C732.816,61.4 732.944,61.846 733.072,62.282 C733.2,62.718 733.336,63.156 733.48,63.596 L733.48,63.596 L733.852,64.796 Z M741.472,68 L741.472,67.148 L738.028,67.148 L738.028,60.128 L737.032,60.128 L737.032,68 L741.472,68 Z M748.24,68.144 C748.752,68.144 749.204,68.044 749.596,67.844 C749.988,67.644 750.34,67.364 750.652,67.004 L750.652,67.004 L750.1,66.38 C749.844,66.66 749.572,66.878 749.284,67.034 C748.996,67.19 748.66,67.268 748.276,67.268 C747.9,67.268 747.562,67.192 747.262,67.04 C746.962,66.888 746.708,66.672 746.5,66.392 C746.292,66.112 746.13,65.774 746.014,65.378 C745.898,64.982 745.84,64.536 745.84,64.04 C745.84,63.552 745.898,63.112 746.014,62.72 C746.13,62.328 746.296,61.994 746.512,61.718 C746.728,61.442 746.988,61.23 747.292,61.082 C747.596,60.934 747.936,60.86 748.312,60.86 C748.648,60.86 748.948,60.928 749.212,61.064 C749.476,61.2 749.712,61.38 749.92,61.604 L749.92,61.604 L750.46,60.956 C750.228,60.7 749.93,60.474 749.566,60.278 C749.202,60.082 748.78,59.984 748.3,59.984 C747.796,59.984 747.332,60.078 746.908,60.266 C746.484,60.454 746.116,60.724 745.804,61.076 C745.492,61.428 745.248,61.856 745.072,62.36 C744.896,62.864 744.808,63.432 744.808,64.064 C744.808,64.704 744.894,65.278 745.066,65.786 C745.238,66.294 745.478,66.722 745.786,67.07 C746.094,67.418 746.456,67.684 746.872,67.868 C747.288,68.052 747.744,68.144 748.24,68.144 Z M753.112,68 L753.112,64.676 L754.54,64.676 L756.436,68 L757.564,68 L755.56,64.568 C756.104,64.432 756.536,64.18 756.856,63.812 C757.176,63.444 757.336,62.952 757.336,62.336 C757.336,61.928 757.268,61.584 757.132,61.304 C756.996,61.024 756.806,60.796 756.562,60.62 C756.318,60.444 756.026,60.318 755.686,60.242 C755.346,60.166 754.976,60.128 754.576,60.128 L754.576,60.128 L752.116,60.128 L752.116,68 L753.112,68 Z M754.432,63.86 L753.112,63.86 L753.112,60.932 L754.432,60.932 C755.048,60.932 755.52,61.036 755.848,61.244 C756.176,61.452 756.34,61.816 756.34,62.336 C756.34,62.848 756.176,63.23 755.848,63.482 C755.52,63.734 755.048,63.86 754.432,63.86 L754.432,63.86 Z M763.6,68 L763.6,67.148 L759.94,67.148 L759.94,64.292 L762.928,64.292 L762.928,63.44 L759.94,63.44 L759.94,60.968 L763.48,60.968 L763.48,60.128 L758.944,60.128 L758.944,68 L763.6,68 Z M767.284,68 C767.876,68 768.4,67.91 768.856,67.73 C769.312,67.55 769.696,67.29 770.008,66.95 C770.32,66.61 770.556,66.194 770.716,65.702 C770.876,65.21 770.956,64.652 770.956,64.028 C770.956,62.772 770.64,61.808 770.008,61.136 C769.376,60.464 768.452,60.128 767.236,60.128 L767.236,60.128 L765.268,60.128 L765.268,68 L767.284,68 Z M767.164,67.184 L766.264,67.184 L766.264,60.944 L767.164,60.944 C768.084,60.944 768.774,61.208 769.234,61.736 C769.694,62.264 769.924,63.028 769.924,64.028 C769.924,65.028 769.694,65.804 769.234,66.356 C768.774,66.908 768.084,67.184 767.164,67.184 L767.164,67.184 Z M773.644,68 L773.644,60.128 L772.648,60.128 L772.648,68 L773.644,68 Z M778.444,68 L778.444,60.968 L780.82,60.968 L780.82,60.128 L775.06,60.128 L775.06,60.968 L777.436,60.968 L777.436,68 L778.444,68 Z M718.936,84.32 L718.936,83.072 C719.56,82.936 720.028,82.662 720.34,82.25 C720.652,81.838 720.808,81.344 720.808,80.768 C720.808,80.384 720.73,80.062 720.574,79.802 C720.418,79.542 720.222,79.32 719.986,79.136 C719.75,78.952 719.496,78.796 719.224,78.668 C718.952,78.54 718.698,78.416 718.462,78.296 C718.226,78.176 718.03,78.05 717.874,77.918 C717.718,77.786 717.64,77.624 717.64,77.432 C717.64,77.16 717.716,76.964 717.868,76.844 C718.02,76.724 718.24,76.664 718.528,76.664 C718.784,76.664 719.012,76.714 719.212,76.814 C719.412,76.914 719.62,77.064 719.836,77.264 L719.836,77.264 L720.724,76.256 C720.492,76.008 720.232,75.796 719.944,75.62 C719.656,75.444 719.32,75.328 718.936,75.272 L718.936,75.272 L718.936,74.06 L717.772,74.06 L717.772,75.296 C717.204,75.408 716.758,75.658 716.434,76.046 C716.11,76.434 715.948,76.924 715.948,77.516 C715.948,77.876 716.026,78.18 716.182,78.428 C716.338,78.676 716.534,78.892 716.77,79.076 C717.006,79.26 717.26,79.418 717.532,79.55 C717.804,79.682 718.058,79.814 718.294,79.946 C718.53,80.078 718.726,80.216 718.882,80.36 C719.038,80.504 719.116,80.68 719.116,80.888 C719.116,81.168 719.038,81.376 718.882,81.512 C718.726,81.648 718.48,81.716 718.144,81.716 C717.856,81.716 717.574,81.658 717.298,81.542 C717.022,81.426 716.732,81.252 716.428,81.02 L716.428,81.02 L715.66,82.208 C715.94,82.464 716.274,82.67 716.662,82.826 C717.05,82.982 717.42,83.08 717.772,83.12 L717.772,83.12 L717.772,84.32 L718.936,84.32 Z M727.336,83 L727.336,81.512 L725.8,81.512 C725.616,81.512 725.406,81.522 725.17,81.542 C724.934,81.562 724.72,81.584 724.528,81.608 C724.84,81.288 725.142,80.962 725.434,80.63 C725.726,80.298 725.986,79.966 726.214,79.634 C726.442,79.302 726.624,78.97 726.76,78.638 C726.896,78.306 726.964,77.98 726.964,77.66 C726.964,77.292 726.904,76.96 726.784,76.664 C726.664,76.368 726.492,76.114 726.268,75.902 C726.044,75.69 725.778,75.526 725.47,75.41 C725.162,75.294 724.82,75.236 724.444,75.236 C723.9,75.236 723.432,75.338 723.04,75.542 C722.648,75.746 722.264,76.048 721.888,76.448 L721.888,76.448 L722.848,77.396 C723.04,77.188 723.244,77.006 723.46,76.85 C723.676,76.694 723.924,76.616 724.204,76.616 C724.54,76.616 724.804,76.714 724.996,76.91 C725.188,77.106 725.284,77.392 725.284,77.768 C725.284,78.04 725.202,78.326 725.038,78.626 C724.874,78.926 724.646,79.25 724.354,79.598 C724.062,79.946 723.714,80.318 723.31,80.714 C722.906,81.11 722.46,81.536 721.972,81.992 L721.972,81.992 L721.972,83 L727.336,83 Z M729.664,83.144 C729.968,83.144 730.222,83.038 730.426,82.826 C730.63,82.614 730.732,82.352 730.732,82.04 C730.732,81.72 730.63,81.454 730.426,81.242 C730.222,81.03 729.968,80.924 729.664,80.924 C729.36,80.924 729.106,81.03 728.902,81.242 C728.698,81.454 728.596,81.72 728.596,82.04 C728.596,82.352 728.698,82.614 728.902,82.826 C729.106,83.038 729.36,83.144 729.664,83.144 Z M734.836,83.144 C735.18,83.144 735.506,83.086 735.814,82.97 C736.122,82.854 736.39,82.684 736.618,82.46 C736.846,82.236 737.028,81.968 737.164,81.656 C737.3,81.344 737.368,80.988 737.368,80.588 C737.368,80.188 737.312,79.84 737.2,79.544 C737.088,79.248 736.93,79.004 736.726,78.812 C736.522,78.62 736.282,78.476 736.006,78.38 C735.73,78.284 735.428,78.236 735.1,78.236 C734.98,78.236 734.852,78.254 734.716,78.29 C734.58,78.326 734.444,78.378 734.308,78.446 C734.172,78.514 734.04,78.598 733.912,78.698 C733.784,78.798 733.672,78.912 733.576,79.04 C733.592,78.6 733.644,78.228 733.732,77.924 C733.82,77.62 733.934,77.374 734.074,77.186 C734.214,76.998 734.376,76.864 734.56,76.784 C734.744,76.704 734.94,76.664 735.148,76.664 C735.372,76.664 735.592,76.718 735.808,76.826 C736.024,76.934 736.2,77.06 736.336,77.204 L736.336,77.204 L737.26,76.148 C737.02,75.9 736.716,75.686 736.348,75.506 C735.98,75.326 735.544,75.236 735.04,75.236 C734.64,75.236 734.254,75.318 733.882,75.482 C733.51,75.646 733.182,75.896 732.898,76.232 C732.614,76.568 732.386,76.996 732.214,77.516 C732.042,78.036 731.956,78.652 731.956,79.364 C731.956,80.036 732.036,80.61 732.196,81.086 C732.356,81.562 732.57,81.952 732.838,82.256 C733.106,82.56 733.414,82.784 733.762,82.928 C734.11,83.072 734.468,83.144 734.836,83.144 Z M734.8,81.824 C734.664,81.824 734.534,81.798 734.41,81.746 C734.286,81.694 734.172,81.606 734.068,81.482 C733.964,81.358 733.872,81.196 733.792,80.996 C733.712,80.796 733.652,80.544 733.612,80.24 C733.772,79.968 733.954,79.774 734.158,79.658 C734.362,79.542 734.564,79.484 734.764,79.484 C735.052,79.484 735.29,79.566 735.478,79.73 C735.666,79.894 735.76,80.18 735.76,80.588 C735.76,81.02 735.666,81.334 735.478,81.53 C735.29,81.726 735.064,81.824 734.8,81.824 Z M740.956,83.144 C741.364,83.144 741.734,83.09 742.066,82.982 C742.398,82.874 742.682,82.726 742.918,82.538 C743.154,82.35 743.336,82.128 743.464,81.872 C743.592,81.616 743.656,81.336 743.656,81.032 C743.656,80.528 743.528,80.12 743.272,79.808 C743.016,79.496 742.704,79.24 742.336,79.04 L742.336,79.04 L742.336,78.992 C742.6,78.816 742.832,78.586 743.032,78.302 C743.232,78.018 743.332,77.692 743.332,77.324 C743.332,77.012 743.276,76.726 743.164,76.466 C743.052,76.206 742.896,75.986 742.696,75.806 C742.496,75.626 742.252,75.486 741.964,75.386 C741.676,75.286 741.36,75.236 741.016,75.236 C740.664,75.236 740.338,75.284 740.038,75.38 C739.738,75.476 739.48,75.616 739.264,75.8 C739.048,75.984 738.88,76.206 738.76,76.466 C738.64,76.726 738.58,77.016 738.58,77.336 C738.58,77.744 738.676,78.09 738.868,78.374 C739.06,78.658 739.304,78.912 739.6,79.136 L739.6,79.136 L739.6,79.184 C739.24,79.376 738.934,79.62 738.682,79.916 C738.43,80.212 738.304,80.592 738.304,81.056 C738.304,81.368 738.37,81.652 738.502,81.908 C738.634,82.164 738.818,82.384 739.054,82.568 C739.29,82.752 739.57,82.894 739.894,82.994 C740.218,83.094 740.572,83.144 740.956,83.144 Z M741.436,78.56 C741.044,78.408 740.728,78.244 740.488,78.068 C740.248,77.892 740.128,77.648 740.128,77.336 C740.128,77.04 740.212,76.82 740.38,76.676 C740.548,76.532 740.748,76.46 740.98,76.46 C741.268,76.46 741.494,76.55 741.658,76.73 C741.822,76.91 741.904,77.148 741.904,77.444 C741.904,77.828 741.748,78.2 741.436,78.56 Z M740.992,81.92 C740.672,81.92 740.396,81.826 740.164,81.638 C739.932,81.45 739.816,81.188 739.816,80.852 C739.816,80.62 739.872,80.4 739.984,80.192 C740.096,79.984 740.236,79.8 740.404,79.64 C740.644,79.744 740.862,79.84 741.058,79.928 C741.254,80.016 741.424,80.11 741.568,80.21 C741.712,80.31 741.822,80.42 741.898,80.54 C741.974,80.66 742.012,80.804 742.012,80.972 C742.012,81.292 741.916,81.53 741.724,81.686 C741.532,81.842 741.288,81.92 740.992,81.92 Z M748.36,83 L748.36,76.664 L750.508,76.664 L750.508,75.176 L744.436,75.176 L744.436,76.664 L746.584,76.664 L746.584,83 L748.36,83 Z" id="POTENTIALCREDIT$2.68T" fill="#666666" fill-rule="nonzero"></path>
                    <rect id="Rectangle" fill="#6F41A7" x="307" y="104" width="73" height="40"></rect>
                    <rect id="Rectangle-Copy-13" fill="#6F41A7" x="6" y="104" width="299" height="40"></rect>
                    <use id="Rectangle-Copy-19" stroke="#979797" mask="url(#mask-2)" stroke-width="2" fill="#D8D8D8" opacity="0.776204427" stroke-linecap="round" stroke-linejoin="round" stroke-dasharray="4,3" transform="translate(452.500000, 124.000000) rotate(90.000000) translate(-452.500000, -124.000000) " xlink:href="#path-1"></use>
                    <use id="Rectangle-Copy-16" stroke="#4A1D7A" mask="url(#mask-4)" stroke-width="2" fill-opacity="0.202524038" fill="#4A1D7A" stroke-linecap="round" stroke-linejoin="round" stroke-dasharray="4,3" transform="translate(733.000000, 124.000000) rotate(90.000000) translate(-733.000000, -124.000000) " xlink:href="#path-3"></use>
                    <line x1="471.5" y1="35.5" x2="471.5" y2="23.5" id="Line-14" stroke="#D8D8D8" stroke-linecap="round" stroke-linejoin="round" stroke-dasharray="3,3"></line>
                    <line x1="733.5" y1="100" x2="733.5" y2="92" id="Line-14-Copy-5" stroke="#979797" stroke-width="0.5" stroke-linecap="square"></line>
                    <line x1="190.5" y1="95" x2="190.5" y2="87" id="Line-14-Copy" stroke="#979797" stroke-width="0.5" stroke-linecap="square"></line>
                    <line x1="455.5" y1="103" x2="455.5" y2="95" id="Line-14-Copy-4" stroke="#979797" stroke-width="0.5" stroke-linecap="square"></line>
                </g>
                <rect id="Rectangle-Copy-14" fill="#6F41A7" x="3" y="104" width="2" height="40"></rect>
                <rect id="Rectangle-Copy-17" fill="#6F41A7" x="0" y="104" width="1" height="40"></rect>
            </g>
        </g>
    </g>
</svg>