<?xml version="1.0" encoding="UTF-8"?>
<svg width="945px" height="134px" viewBox="0 0 945 134" version="1.1" xmlns="http://www.w3.org/2000/svg" xmlns:xlink="http://www.w3.org/1999/xlink">
    <title>Viz 1-C-Desktop</title>
    <g id="SVG-2.0" stroke="none" stroke-width="1" fill="none" fill-rule="evenodd">
        <g id="Outline" transform="translate(-192.000000, -687.000000)">
            <g id="Viz-1-C-Desktop" transform="translate(193.000000, 681.000000)">
                <path d="M48.62,68.144 C49.02,68.144 49.392,68.086 49.736,67.97 C50.08,67.854 50.378,67.662 50.63,67.394 C50.882,67.126 51.08,66.776 51.224,66.344 C51.368,65.912 51.44,65.38 51.44,64.748 L51.44,64.748 L51.44,60.128 L50.48,60.128 L50.48,64.772 C50.48,65.244 50.432,65.64 50.336,65.96 C50.24,66.28 50.108,66.536 49.94,66.728 C49.772,66.92 49.576,67.058 49.352,67.142 C49.128,67.226 48.884,67.268 48.62,67.268 C48.364,67.268 48.124,67.226 47.9,67.142 C47.676,67.058 47.482,66.92 47.318,66.728 C47.154,66.536 47.024,66.28 46.928,65.96 C46.832,65.64 46.784,65.244 46.784,64.772 L46.784,64.772 L46.784,60.128 L45.788,60.128 L45.788,64.748 C45.788,65.38 45.86,65.912 46.004,66.344 C46.148,66.776 46.346,67.126 46.598,67.394 C46.85,67.662 47.15,67.854 47.498,67.97 C47.846,68.086 48.22,68.144 48.62,68.144 Z M56.204,68 L56.204,60.968 L58.58,60.968 L58.58,60.128 L52.82,60.128 L52.82,60.968 L55.196,60.968 L55.196,68 L56.204,68 Z M60.992,68 L60.992,60.128 L59.996,60.128 L59.996,68 L60.992,68 Z M67.592,68 L67.592,67.148 L64.148,67.148 L64.148,60.128 L63.152,60.128 L63.152,68 L67.592,68 Z M69.98,68 L69.98,60.128 L68.984,60.128 L68.984,68 L69.98,68 Z M77.024,68 L77.024,67.148 L72.836,67.148 L76.988,60.716 L76.988,60.128 L71.972,60.128 L71.972,60.968 L75.74,60.968 L71.6,67.4 L71.6,68 L77.024,68 Z M83.264,68 L83.264,67.148 L79.604,67.148 L79.604,64.292 L82.592,64.292 L82.592,63.44 L79.604,63.44 L79.604,60.968 L83.144,60.968 L83.144,60.128 L78.608,60.128 L78.608,68 L83.264,68 Z M86.948,68 C87.54,68 88.064,67.91 88.52,67.73 C88.976,67.55 89.36,67.29 89.672,66.95 C89.984,66.61 90.22,66.194 90.38,65.702 C90.54,65.21 90.62,64.652 90.62,64.028 C90.62,62.772 90.304,61.808 89.672,61.136 C89.04,60.464 88.116,60.128 86.9,60.128 L86.9,60.128 L84.932,60.128 L84.932,68 L86.948,68 Z M86.828,67.184 L85.928,67.184 L85.928,60.944 L86.828,60.944 C87.748,60.944 88.438,61.208 88.898,61.736 C89.358,62.264 89.588,63.028 89.588,64.028 C89.588,65.028 89.358,65.804 88.898,66.356 C88.438,66.908 87.748,67.184 86.828,67.184 L86.828,67.184 Z M99.152,68 L99.152,67.148 L95.708,67.148 L95.708,60.128 L94.712,60.128 L94.712,68 L99.152,68 Z M105.2,68 L105.2,67.148 L101.54,67.148 L101.54,64.292 L104.528,64.292 L104.528,63.44 L101.54,63.44 L101.54,60.968 L105.08,60.968 L105.08,60.128 L100.544,60.128 L100.544,68 L105.2,68 Z M107.816,68 L107.816,63.884 C107.816,63.468 107.802,63.054 107.774,62.642 C107.746,62.23 107.716,61.824 107.684,61.424 L107.684,61.424 L107.732,61.424 L108.584,63.044 L111.44,68 L112.472,68 L112.472,60.128 L111.524,60.128 L111.524,64.196 C111.524,64.612 111.538,65.034 111.566,65.462 C111.594,65.89 111.62,66.304 111.644,66.704 L111.644,66.704 L111.596,66.704 L110.744,65.072 L107.9,60.128 L106.868,60.128 L106.868,68 L107.816,68 Z M116.648,68 C117.24,68 117.764,67.91 118.22,67.73 C118.676,67.55 119.06,67.29 119.372,66.95 C119.684,66.61 119.92,66.194 120.08,65.702 C120.24,65.21 120.32,64.652 120.32,64.028 C120.32,62.772 120.004,61.808 119.372,61.136 C118.74,60.464 117.816,60.128 116.6,60.128 L116.6,60.128 L114.632,60.128 L114.632,68 L116.648,68 Z M116.528,67.184 L115.628,67.184 L115.628,60.944 L116.528,60.944 C117.448,60.944 118.138,61.208 118.598,61.736 C119.058,62.264 119.288,63.028 119.288,64.028 C119.288,65.028 119.058,65.804 118.598,66.356 C118.138,66.908 117.448,67.184 116.528,67.184 L116.528,67.184 Z M123.008,68 L123.008,60.128 L122.012,60.128 L122.012,68 L123.008,68 Z M126.116,68 L126.116,63.884 C126.116,63.468 126.102,63.054 126.074,62.642 C126.046,62.23 126.016,61.824 125.984,61.424 L125.984,61.424 L126.032,61.424 L126.884,63.044 L129.74,68 L130.772,68 L130.772,60.128 L129.824,60.128 L129.824,64.196 C129.824,64.612 129.838,65.034 129.866,65.462 C129.894,65.89 129.92,66.304 129.944,66.704 L129.944,66.704 L129.896,66.704 L129.044,65.072 L126.2,60.128 L125.168,60.128 L125.168,68 L126.116,68 Z M136.028,68.144 C136.556,68.144 137.028,68.058 137.444,67.886 C137.86,67.714 138.196,67.496 138.452,67.232 L138.452,67.232 L138.452,63.92 L135.872,63.92 L135.872,64.748 L137.54,64.748 L137.54,66.8 C137.38,66.944 137.174,67.058 136.922,67.142 C136.67,67.226 136.404,67.268 136.124,67.268 C135.7,67.268 135.326,67.192 135.002,67.04 C134.678,66.888 134.406,66.672 134.186,66.392 C133.966,66.112 133.798,65.774 133.682,65.378 C133.566,64.982 133.508,64.536 133.508,64.04 C133.508,63.552 133.57,63.112 133.694,62.72 C133.818,62.328 133.992,61.994 134.216,61.718 C134.44,61.442 134.712,61.23 135.032,61.082 C135.352,60.934 135.712,60.86 136.112,60.86 C136.512,60.86 136.844,60.932 137.108,61.076 C137.372,61.22 137.604,61.396 137.804,61.604 L137.804,61.604 L138.356,60.956 C138.244,60.836 138.114,60.718 137.966,60.602 C137.818,60.486 137.65,60.382 137.462,60.29 C137.274,60.198 137.066,60.124 136.838,60.068 C136.61,60.012 136.36,59.984 136.088,59.984 C135.568,59.984 135.086,60.078 134.642,60.266 C134.198,60.454 133.816,60.724 133.496,61.076 C133.176,61.428 132.926,61.856 132.746,62.36 C132.566,62.864 132.476,63.432 132.476,64.064 C132.476,64.704 132.564,65.278 132.74,65.786 C132.916,66.294 133.16,66.722 133.472,67.07 C133.784,67.418 134.158,67.684 134.594,67.868 C135.03,68.052 135.508,68.144 136.028,68.144 Z M79.442,84.32 L79.442,83.072 C80.066,82.936 80.534,82.662 80.846,82.25 C81.158,81.838 81.314,81.344 81.314,80.768 C81.314,80.384 81.236,80.062 81.08,79.802 C80.924,79.542 80.728,79.32 80.492,79.136 C80.256,78.952 80.002,78.796 79.73,78.668 C79.458,78.54 79.204,78.416 78.968,78.296 C78.732,78.176 78.536,78.05 78.38,77.918 C78.224,77.786 78.146,77.624 78.146,77.432 C78.146,77.16 78.222,76.964 78.374,76.844 C78.526,76.724 78.746,76.664 79.034,76.664 C79.29,76.664 79.518,76.714 79.718,76.814 C79.918,76.914 80.126,77.064 80.342,77.264 L80.342,77.264 L81.23,76.256 C80.998,76.008 80.738,75.796 80.45,75.62 C80.162,75.444 79.826,75.328 79.442,75.272 L79.442,75.272 L79.442,74.06 L78.278,74.06 L78.278,75.296 C77.71,75.408 77.264,75.658 76.94,76.046 C76.616,76.434 76.454,76.924 76.454,77.516 C76.454,77.876 76.532,78.18 76.688,78.428 C76.844,78.676 77.04,78.892 77.276,79.076 C77.512,79.26 77.766,79.418 78.038,79.55 C78.31,79.682 78.564,79.814 78.8,79.946 C79.036,80.078 79.232,80.216 79.388,80.36 C79.544,80.504 79.622,80.68 79.622,80.888 C79.622,81.168 79.544,81.376 79.388,81.512 C79.232,81.648 78.986,81.716 78.65,81.716 C78.362,81.716 78.08,81.658 77.804,81.542 C77.528,81.426 77.238,81.252 76.934,81.02 L76.934,81.02 L76.166,82.208 C76.446,82.464 76.78,82.67 77.168,82.826 C77.556,82.982 77.926,83.08 78.278,83.12 L78.278,83.12 L78.278,84.32 L79.442,84.32 Z M85.19,83.144 C85.598,83.144 85.968,83.09 86.3,82.982 C86.632,82.874 86.916,82.726 87.152,82.538 C87.388,82.35 87.57,82.128 87.698,81.872 C87.826,81.616 87.89,81.336 87.89,81.032 C87.89,80.528 87.762,80.12 87.506,79.808 C87.25,79.496 86.938,79.24 86.57,79.04 L86.57,79.04 L86.57,78.992 C86.834,78.816 87.066,78.586 87.266,78.302 C87.466,78.018 87.566,77.692 87.566,77.324 C87.566,77.012 87.51,76.726 87.398,76.466 C87.286,76.206 87.13,75.986 86.93,75.806 C86.73,75.626 86.486,75.486 86.198,75.386 C85.91,75.286 85.594,75.236 85.25,75.236 C84.898,75.236 84.572,75.284 84.272,75.38 C83.972,75.476 83.714,75.616 83.498,75.8 C83.282,75.984 83.114,76.206 82.994,76.466 C82.874,76.726 82.814,77.016 82.814,77.336 C82.814,77.744 82.91,78.09 83.102,78.374 C83.294,78.658 83.538,78.912 83.834,79.136 L83.834,79.136 L83.834,79.184 C83.474,79.376 83.168,79.62 82.916,79.916 C82.664,80.212 82.538,80.592 82.538,81.056 C82.538,81.368 82.604,81.652 82.736,81.908 C82.868,82.164 83.052,82.384 83.288,82.568 C83.524,82.752 83.804,82.894 84.128,82.994 C84.452,83.094 84.806,83.144 85.19,83.144 Z M85.67,78.56 C85.278,78.408 84.962,78.244 84.722,78.068 C84.482,77.892 84.362,77.648 84.362,77.336 C84.362,77.04 84.446,76.82 84.614,76.676 C84.782,76.532 84.982,76.46 85.214,76.46 C85.502,76.46 85.728,76.55 85.892,76.73 C86.056,76.91 86.138,77.148 86.138,77.444 C86.138,77.828 85.982,78.2 85.67,78.56 Z M85.226,81.92 C84.906,81.92 84.63,81.826 84.398,81.638 C84.166,81.45 84.05,81.188 84.05,80.852 C84.05,80.62 84.106,80.4 84.218,80.192 C84.33,79.984 84.47,79.8 84.638,79.64 C84.878,79.744 85.096,79.84 85.292,79.928 C85.488,80.016 85.658,80.11 85.802,80.21 C85.946,80.31 86.056,80.42 86.132,80.54 C86.208,80.66 86.246,80.804 86.246,80.972 C86.246,81.292 86.15,81.53 85.958,81.686 C85.766,81.842 85.522,81.92 85.226,81.92 Z M91.286,83.144 C91.67,83.144 92.034,83.094 92.378,82.994 C92.722,82.894 93.022,82.75 93.278,82.562 C93.534,82.374 93.738,82.142 93.89,81.866 C94.042,81.59 94.118,81.276 94.118,80.924 C94.118,80.428 93.976,80.026 93.692,79.718 C93.408,79.41 93.046,79.192 92.606,79.064 L92.606,79.064 L92.606,79.016 C93.014,78.84 93.328,78.614 93.548,78.338 C93.768,78.062 93.878,77.724 93.878,77.324 C93.878,76.988 93.814,76.692 93.686,76.436 C93.558,76.18 93.38,75.962 93.152,75.782 C92.924,75.602 92.648,75.466 92.324,75.374 C92,75.282 91.642,75.236 91.25,75.236 C90.778,75.236 90.348,75.322 89.96,75.494 C89.572,75.666 89.202,75.904 88.85,76.208 L88.85,76.208 L89.738,77.288 C89.978,77.08 90.208,76.916 90.428,76.796 C90.648,76.676 90.894,76.616 91.166,76.616 C91.47,76.616 91.702,76.69 91.862,76.838 C92.022,76.986 92.102,77.192 92.102,77.456 C92.102,77.608 92.072,77.746 92.012,77.87 C91.952,77.994 91.852,78.102 91.712,78.194 C91.572,78.286 91.388,78.356 91.16,78.404 C90.932,78.452 90.646,78.476 90.302,78.476 L90.302,78.476 L90.302,79.724 C90.718,79.724 91.058,79.75 91.322,79.802 C91.586,79.854 91.794,79.926 91.946,80.018 C92.098,80.11 92.204,80.224 92.264,80.36 C92.324,80.496 92.354,80.648 92.354,80.816 C92.354,81.104 92.242,81.326 92.018,81.482 C91.794,81.638 91.494,81.716 91.118,81.716 C90.79,81.716 90.488,81.644 90.212,81.5 C89.936,81.356 89.682,81.172 89.45,80.948 L89.45,80.948 L88.634,82.064 C88.914,82.392 89.27,82.654 89.702,82.85 C90.134,83.046 90.662,83.144 91.286,83.144 Z M100.514,83 L100.514,81.512 L98.978,81.512 C98.794,81.512 98.584,81.522 98.348,81.542 C98.112,81.562 97.898,81.584 97.706,81.608 C98.018,81.288 98.32,80.962 98.612,80.63 C98.904,80.298 99.164,79.966 99.392,79.634 C99.62,79.302 99.802,78.97 99.938,78.638 C100.074,78.306 100.142,77.98 100.142,77.66 C100.142,77.292 100.082,76.96 99.962,76.664 C99.842,76.368 99.67,76.114 99.446,75.902 C99.222,75.69 98.956,75.526 98.648,75.41 C98.34,75.294 97.998,75.236 97.622,75.236 C97.078,75.236 96.61,75.338 96.218,75.542 C95.826,75.746 95.442,76.048 95.066,76.448 L95.066,76.448 L96.026,77.396 C96.218,77.188 96.422,77.006 96.638,76.85 C96.854,76.694 97.102,76.616 97.382,76.616 C97.718,76.616 97.982,76.714 98.174,76.91 C98.366,77.106 98.462,77.392 98.462,77.768 C98.462,78.04 98.38,78.326 98.216,78.626 C98.052,78.926 97.824,79.25 97.532,79.598 C97.24,79.946 96.892,80.318 96.488,80.714 C96.084,81.11 95.638,81.536 95.15,81.992 L95.15,81.992 L95.15,83 L100.514,83 Z M104.87,83 C105.294,83 105.69,82.954 106.058,82.862 C106.426,82.77 106.748,82.63 107.024,82.442 C107.3,82.254 107.516,82.016 107.672,81.728 C107.828,81.44 107.906,81.096 107.906,80.696 C107.906,80.432 107.87,80.198 107.798,79.994 C107.726,79.79 107.626,79.612 107.498,79.46 C107.37,79.308 107.222,79.182 107.054,79.082 C106.886,78.982 106.702,78.908 106.502,78.86 L106.502,78.86 L106.502,78.812 C106.662,78.756 106.804,78.668 106.928,78.548 C107.052,78.428 107.158,78.292 107.246,78.14 C107.334,77.988 107.402,77.824 107.45,77.648 C107.498,77.472 107.522,77.296 107.522,77.12 C107.522,76.744 107.448,76.432 107.3,76.184 C107.152,75.936 106.948,75.736 106.688,75.584 C106.428,75.432 106.124,75.326 105.776,75.266 C105.428,75.206 105.05,75.176 104.642,75.176 L104.642,75.176 L101.966,75.176 L101.966,83 L104.87,83 Z M104.558,78.308 L103.73,78.308 L103.73,76.544 L104.57,76.544 C104.986,76.544 105.294,76.608 105.494,76.736 C105.694,76.864 105.794,77.08 105.794,77.384 C105.794,77.664 105.696,77.888 105.5,78.056 C105.304,78.224 104.99,78.308 104.558,78.308 L104.558,78.308 Z M104.726,81.632 L103.73,81.632 L103.73,79.616 L104.726,79.616 C105.214,79.616 105.578,79.69 105.818,79.838 C106.058,79.986 106.178,80.232 106.178,80.576 C106.178,81.28 105.694,81.632 104.726,81.632 L104.726,81.632 Z" id="UTILIZEDLENDING$832B" fill="#666666" fill-rule="nonzero"></path>
                <path d="M371.96,18 L371.96,8.624 L375.128,8.624 L375.128,7.504 L367.448,7.504 L367.448,8.624 L370.616,8.624 L370.616,18 L371.96,18 Z M378.856,18.192 C379.336,18.192 379.792,18.1013333 380.224,17.92 C380.656,17.7386667 381.037333,17.4746667 381.368,17.128 C381.698667,16.7813333 381.962667,16.3546667 382.16,15.848 C382.357333,15.3413333 382.456,14.768 382.456,14.128 C382.456,13.4773333 382.357333,12.8986667 382.16,12.392 C381.962667,11.8853333 381.698667,11.456 381.368,11.104 C381.037333,10.752 380.656,10.4853333 380.224,10.304 C379.792,10.1226667 379.336,10.032 378.856,10.032 C378.376,10.032 377.92,10.1226667 377.488,10.304 C377.056,10.4853333 376.674667,10.752 376.344,11.104 C376.013333,11.456 375.749333,11.8853333 375.552,12.392 C375.354667,12.8986667 375.256,13.4773333 375.256,14.128 C375.256,14.768 375.354667,15.3413333 375.552,15.848 C375.749333,16.3546667 376.013333,16.7813333 376.344,17.128 C376.674667,17.4746667 377.056,17.7386667 377.488,17.92 C377.92,18.1013333 378.376,18.192 378.856,18.192 Z M378.856,17.104 C378.525333,17.104 378.221333,17.032 377.944,16.888 C377.666667,16.744 377.429333,16.5413333 377.232,16.28 C377.034667,16.0186667 376.882667,15.7066667 376.776,15.344 C376.669333,14.9813333 376.616,14.576 376.616,14.128 C376.616,13.68 376.669333,13.272 376.776,12.904 C376.882667,12.536 377.034667,12.2186667 377.232,11.952 C377.429333,11.6853333 377.666667,11.48 377.944,11.336 C378.221333,11.192 378.525333,11.12 378.856,11.12 C379.186667,11.12 379.490667,11.192 379.768,11.336 C380.045333,11.48 380.282667,11.6853333 380.48,11.952 C380.677333,12.2186667 380.829333,12.536 380.936,12.904 C381.042667,13.272 381.096,13.68 381.096,14.128 C381.096,14.576 381.042667,14.9813333 380.936,15.344 C380.829333,15.7066667 380.677333,16.0186667 380.48,16.28 C380.282667,16.5413333 380.045333,16.744 379.768,16.888 C379.490667,17.032 379.186667,17.104 378.856,17.104 Z M386.68,18.192 C386.925333,18.192 387.173333,18.1626667 387.424,18.104 C387.674667,18.0453333 387.906667,17.9786667 388.12,17.904 L388.12,17.904 L387.864,16.912 C387.736,16.9653333 387.592,17.0133333 387.432,17.056 C387.272,17.0986667 387.122667,17.12 386.984,17.12 C386.536,17.12 386.224,16.9893333 386.048,16.728 C385.872,16.4666667 385.784,16.096 385.784,15.616 L385.784,15.616 L385.784,11.296 L387.88,11.296 L387.88,10.224 L385.784,10.224 L385.784,8.048 L384.68,8.048 L384.52,10.224 L383.304,10.304 L383.304,11.296 L384.456,11.296 L384.456,15.6 C384.456,15.984 384.493333,16.336 384.568,16.656 C384.642667,16.976 384.768,17.248 384.944,17.472 C385.12,17.696 385.349333,17.872 385.632,18 C385.914667,18.128 386.264,18.192 386.68,18.192 Z M391.096,18.192 C391.586667,18.192 392.045333,18.0826667 392.472,17.864 C392.898667,17.6453333 393.298667,17.3813333 393.672,17.072 L393.672,17.072 L393.72,17.072 L393.832,18 L394.92,18 L394.92,13.232 C394.92,12.2613333 394.706667,11.4853333 394.28,10.904 C393.853333,10.3226667 393.165333,10.032 392.216,10.032 C391.586667,10.032 391.010667,10.1413333 390.488,10.36 C389.965333,10.5786667 389.522667,10.8053333 389.16,11.04 L389.16,11.04 L389.672,11.952 C389.981333,11.7386667 390.333333,11.5466667 390.728,11.376 C391.122667,11.2053333 391.544,11.12 391.992,11.12 C392.312,11.12 392.576,11.176 392.784,11.288 C392.992,11.4 393.154667,11.5466667 393.272,11.728 C393.389333,11.9093333 393.472,12.1173333 393.52,12.352 C393.568,12.5866667 393.592,12.8266667 393.592,13.072 C391.928,13.2533333 390.717333,13.5706667 389.96,14.024 C389.202667,14.4773333 388.824,15.1306667 388.824,15.984 C388.824,16.688 389.04,17.232 389.472,17.616 C389.904,18 390.445333,18.192 391.096,18.192 Z M391.48,17.136 C391.096,17.136 390.770667,17.04 390.504,16.848 C390.237333,16.656 390.104,16.336 390.104,15.888 C390.104,15.6426667 390.165333,15.416 390.288,15.208 C390.410667,15 390.608,14.816 390.88,14.656 C391.152,14.496 391.509333,14.3573333 391.952,14.24 C392.394667,14.1226667 392.941333,14.0213333 393.592,13.936 L393.592,13.936 L393.592,16.096 C393.218667,16.4373333 392.866667,16.696 392.536,16.872 C392.205333,17.048 391.853333,17.136 391.48,17.136 Z M398.76,18.192 C398.941333,18.192 399.090667,18.1813333 399.208,18.16 C399.325333,18.1386667 399.426667,18.1066667 399.512,18.064 L399.512,18.064 L399.336,17.072 C399.261333,17.0933333 399.205333,17.104 399.168,17.104 L399.168,17.104 L399.048,17.104 C398.952,17.104 398.866667,17.0613333 398.792,16.976 C398.717333,16.8906667 398.68,16.7413333 398.68,16.528 L398.68,16.528 L398.68,6.608 L397.368,6.608 L397.368,16.432 C397.368,17.008 397.474667,17.4453333 397.688,17.744 C397.901333,18.0426667 398.258667,18.192 398.76,18.192 Z M410.984,18 L410.984,16.864 L406.104,16.864 L406.104,13.056 L410.088,13.056 L410.088,11.92 L406.104,11.92 L406.104,8.624 L410.824,8.624 L410.824,7.504 L404.776,7.504 L404.776,18 L410.984,18 Z M415.112,18.192 C415.570667,18.192 415.978667,18.1306667 416.336,18.008 C416.693333,17.8853333 416.992,17.7173333 417.232,17.504 C417.472,17.2906667 417.653333,17.0453333 417.776,16.768 C417.898667,16.4906667 417.96,16.192 417.96,15.872 C417.96,15.5093333 417.888,15.2 417.744,14.944 C417.6,14.688 417.416,14.472 417.192,14.296 C416.968,14.12 416.714667,13.9733333 416.432,13.856 C416.149333,13.7386667 415.869333,13.6266667 415.592,13.52 C415.368,13.4346667 415.152,13.352 414.944,13.272 C414.736,13.192 414.552,13.1013333 414.392,13 C414.232,12.8986667 414.104,12.7813333 414.008,12.648 C413.912,12.5146667 413.864,12.3573333 413.864,12.176 C413.864,11.8773333 413.978667,11.616 414.208,11.392 C414.437333,11.168 414.797333,11.056 415.288,11.056 C415.629333,11.056 415.944,11.12 416.232,11.248 C416.52,11.376 416.797333,11.5413333 417.064,11.744 L417.064,11.744 L417.688,10.912 C417.389333,10.6666667 417.034667,10.4586667 416.624,10.288 C416.213333,10.1173333 415.762667,10.032 415.272,10.032 C414.856,10.032 414.482667,10.088 414.152,10.2 C413.821333,10.312 413.541333,10.4666667 413.312,10.664 C413.082667,10.8613333 412.906667,11.096 412.784,11.368 C412.661333,11.64 412.6,11.9306667 412.6,12.24 C412.6,12.5706667 412.669333,12.8533333 412.808,13.088 C412.946667,13.3226667 413.125333,13.528 413.344,13.704 C413.562667,13.88 413.810667,14.0293333 414.088,14.152 C414.365333,14.2746667 414.642667,14.384 414.92,14.48 L414.92,14.48 L415.56,14.736 C415.773333,14.8213333 415.962667,14.92 416.128,15.032 C416.293333,15.144 416.429333,15.2746667 416.536,15.424 C416.642667,15.5733333 416.696,15.7493333 416.696,15.952 C416.696,16.2933333 416.568,16.5813333 416.312,16.816 C416.056,17.0506667 415.672,17.168 415.16,17.168 C414.690667,17.168 414.277333,17.0826667 413.92,16.912 C413.562667,16.7413333 413.213333,16.5173333 412.872,16.24 L412.872,16.24 L412.216,17.12 C412.589333,17.4293333 413.026667,17.6853333 413.528,17.888 C414.029333,18.0906667 414.557333,18.192 415.112,18.192 Z M421.912,18.192 C422.157333,18.192 422.405333,18.1626667 422.656,18.104 C422.906667,18.0453333 423.138667,17.9786667 423.352,17.904 L423.352,17.904 L423.096,16.912 C422.968,16.9653333 422.824,17.0133333 422.664,17.056 C422.504,17.0986667 422.354667,17.12 422.216,17.12 C421.768,17.12 421.456,16.9893333 421.28,16.728 C421.104,16.4666667 421.016,16.096 421.016,15.616 L421.016,15.616 L421.016,11.296 L423.112,11.296 L423.112,10.224 L421.016,10.224 L421.016,8.048 L419.912,8.048 L419.752,10.224 L418.536,10.304 L418.536,11.296 L419.688,11.296 L419.688,15.6 C419.688,15.984 419.725333,16.336 419.8,16.656 C419.874667,16.976 420,17.248 420.176,17.472 C420.352,17.696 420.581333,17.872 420.864,18 C421.146667,18.128 421.496,18.192 421.912,18.192 Z M425.544,8.624 C425.8,8.624 426.016,8.544 426.192,8.384 C426.368,8.224 426.456,8.02133333 426.456,7.776 C426.456,7.52 426.368,7.31466667 426.192,7.16 C426.016,7.00533333 425.8,6.928 425.544,6.928 C425.288,6.928 425.072,7.00533333 424.896,7.16 C424.72,7.31466667 424.632,7.52 424.632,7.776 C424.632,8.02133333 424.72,8.224 424.896,8.384 C425.072,8.544 425.288,8.624 425.544,8.624 Z M426.184,18 L426.184,10.224 L424.872,10.224 L424.872,18 L426.184,18 Z M430.12,18 L430.12,12.368 C430.834667,11.568 431.485333,11.168 432.072,11.168 C432.573333,11.168 432.941333,11.3306667 433.176,11.656 C433.410667,11.9813333 433.528,12.512 433.528,13.248 L433.528,13.248 L433.528,18 L434.84,18 L434.84,12.368 C435.554667,11.568 436.205333,11.168 436.792,11.168 C437.282667,11.168 437.645333,11.3306667 437.88,11.656 C438.114667,11.9813333 438.232,12.512 438.232,13.248 L438.232,13.248 L438.232,18 L439.544,18 L439.544,13.072 C439.544,12.0693333 439.349333,11.312 438.96,10.8 C438.570667,10.288 437.976,10.032 437.176,10.032 C436.696,10.032 436.250667,10.168 435.84,10.44 C435.429333,10.712 435.021333,11.072 434.616,11.52 C434.456,11.0506667 434.208,10.6853333 433.872,10.424 C433.536,10.1626667 433.069333,10.032 432.472,10.032 C432.002667,10.032 431.568,10.1573333 431.168,10.408 C430.768,10.6586667 430.397333,10.9706667 430.056,11.344 L430.056,11.344 L430.008,11.344 L429.896,10.224 L428.808,10.224 L428.808,18 L430.12,18 Z M443.864,18.192 C444.354667,18.192 444.813333,18.0826667 445.24,17.864 C445.666667,17.6453333 446.066667,17.3813333 446.44,17.072 L446.44,17.072 L446.488,17.072 L446.6,18 L447.688,18 L447.688,13.232 C447.688,12.2613333 447.474667,11.4853333 447.048,10.904 C446.621333,10.3226667 445.933333,10.032 444.984,10.032 C444.354667,10.032 443.778667,10.1413333 443.256,10.36 C442.733333,10.5786667 442.290667,10.8053333 441.928,11.04 L441.928,11.04 L442.44,11.952 C442.749333,11.7386667 443.101333,11.5466667 443.496,11.376 C443.890667,11.2053333 444.312,11.12 444.76,11.12 C445.08,11.12 445.344,11.176 445.552,11.288 C445.76,11.4 445.922667,11.5466667 446.04,11.728 C446.157333,11.9093333 446.24,12.1173333 446.288,12.352 C446.336,12.5866667 446.36,12.8266667 446.36,13.072 C444.696,13.2533333 443.485333,13.5706667 442.728,14.024 C441.970667,14.4773333 441.592,15.1306667 441.592,15.984 C441.592,16.688 441.808,17.232 442.24,17.616 C442.672,18 443.213333,18.192 443.864,18.192 Z M444.248,17.136 C443.864,17.136 443.538667,17.04 443.272,16.848 C443.005333,16.656 442.872,16.336 442.872,15.888 C442.872,15.6426667 442.933333,15.416 443.056,15.208 C443.178667,15 443.376,14.816 443.648,14.656 C443.92,14.496 444.277333,14.3573333 444.72,14.24 C445.162667,14.1226667 445.709333,14.0213333 446.36,13.936 L446.36,13.936 L446.36,16.096 C445.986667,16.4373333 445.634667,16.696 445.304,16.872 C444.973333,17.048 444.621333,17.136 444.248,17.136 Z M452.36,18.192 C452.605333,18.192 452.853333,18.1626667 453.104,18.104 C453.354667,18.0453333 453.586667,17.9786667 453.8,17.904 L453.8,17.904 L453.544,16.912 C453.416,16.9653333 453.272,17.0133333 453.112,17.056 C452.952,17.0986667 452.802667,17.12 452.664,17.12 C452.216,17.12 451.904,16.9893333 451.728,16.728 C451.552,16.4666667 451.464,16.096 451.464,15.616 L451.464,15.616 L451.464,11.296 L453.56,11.296 L453.56,10.224 L451.464,10.224 L451.464,8.048 L450.36,8.048 L450.2,10.224 L448.984,10.304 L448.984,11.296 L450.136,11.296 L450.136,15.6 C450.136,15.984 450.173333,16.336 450.248,16.656 C450.322667,16.976 450.448,17.248 450.624,17.472 C450.8,17.696 451.029333,17.872 451.312,18 C451.594667,18.128 451.944,18.192 452.36,18.192 Z M458.248,18.192 C458.781333,18.192 459.256,18.112 459.672,17.952 C460.088,17.792 460.466667,17.6053333 460.808,17.392 L460.808,17.392 L460.344,16.528 C460.056,16.7093333 459.754667,16.856 459.44,16.968 C459.125333,17.08 458.781333,17.136 458.408,17.136 C457.661333,17.136 457.056,16.8933333 456.592,16.408 C456.128,15.9226667 455.869333,15.264 455.816,14.432 L455.816,14.432 L461.064,14.432 C461.085333,14.336 461.098667,14.2213333 461.104,14.088 C461.109333,13.9546667 461.112,13.8186667 461.112,13.68 C461.112,13.1253333 461.042667,12.624 460.904,12.176 C460.765333,11.728 460.565333,11.344 460.304,11.024 C460.042667,10.704 459.717333,10.4586667 459.328,10.288 C458.938667,10.1173333 458.498667,10.032 458.008,10.032 C457.56,10.032 457.128,10.1253333 456.712,10.312 C456.296,10.4986667 455.925333,10.768 455.6,11.12 C455.274667,11.472 455.013333,11.9013333 454.816,12.408 C454.618667,12.9146667 454.52,13.488 454.52,14.128 C454.52,14.768 454.616,15.3386667 454.808,15.84 C455,16.3413333 455.264,16.7653333 455.6,17.112 C455.936,17.4586667 456.330667,17.7253333 456.784,17.912 C457.237333,18.0986667 457.725333,18.192 458.248,18.192 Z M459.96,13.488 L455.8,13.488 C455.842667,13.104 455.930667,12.7626667 456.064,12.464 C456.197333,12.1653333 456.365333,11.912 456.568,11.704 C456.770667,11.496 456.997333,11.3386667 457.248,11.232 C457.498667,11.1253333 457.762667,11.072 458.04,11.072 C458.648,11.072 459.12,11.2773333 459.456,11.688 C459.792,12.0986667 459.96,12.6986667 459.96,13.488 L459.96,13.488 Z M465.688,18.192 C466.146667,18.192 466.576,18.0826667 466.976,17.864 C467.376,17.6453333 467.730667,17.3866667 468.04,17.088 L468.04,17.088 L468.088,17.088 L468.2,18 L469.288,18 L469.288,6.608 L467.96,6.608 L467.96,9.6 L468.024,10.928 C467.682667,10.6506667 467.346667,10.432 467.016,10.272 C466.685333,10.112 466.296,10.032 465.848,10.032 C465.4,10.032 464.973333,10.128 464.568,10.32 C464.162667,10.512 463.805333,10.784 463.496,11.136 C463.186667,11.488 462.938667,11.9173333 462.752,12.424 C462.565333,12.9306667 462.472,13.4986667 462.472,14.128 C462.472,15.4293333 462.762667,16.432 463.344,17.136 C463.925333,17.84 464.706667,18.192 465.688,18.192 Z M465.976,17.088 C465.293333,17.088 464.765333,16.8266667 464.392,16.304 C464.018667,15.7813333 463.832,15.0506667 463.832,14.112 C463.832,13.664 463.890667,13.2586667 464.008,12.896 C464.125333,12.5333333 464.285333,12.2213333 464.488,11.96 C464.690667,11.6986667 464.928,11.496 465.2,11.352 C465.472,11.208 465.762667,11.136 466.072,11.136 C466.392,11.136 466.704,11.1973333 467.008,11.32 C467.312,11.4426667 467.629333,11.6533333 467.96,11.952 L467.96,11.952 L467.96,16.016 C467.64,16.3786667 467.32,16.648 467,16.824 C466.68,17 466.338667,17.088 465.976,17.088 Z M481.16,18 L481.16,16.864 L476.568,16.864 L476.568,7.504 L475.24,7.504 L475.24,18 L481.16,18 Z M485.848,18.192 C486.381333,18.192 486.856,18.112 487.272,17.952 C487.688,17.792 488.066667,17.6053333 488.408,17.392 L488.408,17.392 L487.944,16.528 C487.656,16.7093333 487.354667,16.856 487.04,16.968 C486.725333,17.08 486.381333,17.136 486.008,17.136 C485.261333,17.136 484.656,16.8933333 484.192,16.408 C483.728,15.9226667 483.469333,15.264 483.416,14.432 L483.416,14.432 L488.664,14.432 C488.685333,14.336 488.698667,14.2213333 488.704,14.088 C488.709333,13.9546667 488.712,13.8186667 488.712,13.68 C488.712,13.1253333 488.642667,12.624 488.504,12.176 C488.365333,11.728 488.165333,11.344 487.904,11.024 C487.642667,10.704 487.317333,10.4586667 486.928,10.288 C486.538667,10.1173333 486.098667,10.032 485.608,10.032 C485.16,10.032 484.728,10.1253333 484.312,10.312 C483.896,10.4986667 483.525333,10.768 483.2,11.12 C482.874667,11.472 482.613333,11.9013333 482.416,12.408 C482.218667,12.9146667 482.12,13.488 482.12,14.128 C482.12,14.768 482.216,15.3386667 482.408,15.84 C482.6,16.3413333 482.864,16.7653333 483.2,17.112 C483.536,17.4586667 483.930667,17.7253333 484.384,17.912 C484.837333,18.0986667 485.325333,18.192 485.848,18.192 Z M487.56,13.488 L483.4,13.488 C483.442667,13.104 483.530667,12.7626667 483.664,12.464 C483.797333,12.1653333 483.965333,11.912 484.168,11.704 C484.370667,11.496 484.597333,11.3386667 484.848,11.232 C485.098667,11.1253333 485.362667,11.072 485.64,11.072 C486.248,11.072 486.72,11.2773333 487.056,11.688 C487.392,12.0986667 487.56,12.6986667 487.56,13.488 L487.56,13.488 Z M491.944,18 L491.944,12.368 C492.338667,11.9733333 492.690667,11.6746667 493,11.472 C493.309333,11.2693333 493.666667,11.168 494.072,11.168 C494.584,11.168 494.957333,11.3306667 495.192,11.656 C495.426667,11.9813333 495.544,12.512 495.544,13.248 L495.544,13.248 L495.544,18 L496.856,18 L496.856,13.072 C496.856,12.0693333 496.666667,11.312 496.288,10.8 C495.909333,10.288 495.309333,10.032 494.488,10.032 C493.944,10.032 493.466667,10.1573333 493.056,10.408 C492.645333,10.6586667 492.253333,10.9706667 491.88,11.344 L491.88,11.344 L491.832,11.344 L491.72,10.224 L490.632,10.224 L490.632,18 L491.944,18 Z M502.04,18.192 C502.498667,18.192 502.928,18.0826667 503.328,17.864 C503.728,17.6453333 504.082667,17.3866667 504.392,17.088 L504.392,17.088 L504.44,17.088 L504.552,18 L505.64,18 L505.64,6.608 L504.312,6.608 L504.312,9.6 L504.376,10.928 C504.034667,10.6506667 503.698667,10.432 503.368,10.272 C503.037333,10.112 502.648,10.032 502.2,10.032 C501.752,10.032 501.325333,10.128 500.92,10.32 C500.514667,10.512 500.157333,10.784 499.848,11.136 C499.538667,11.488 499.290667,11.9173333 499.104,12.424 C498.917333,12.9306667 498.824,13.4986667 498.824,14.128 C498.824,15.4293333 499.114667,16.432 499.696,17.136 C500.277333,17.84 501.058667,18.192 502.04,18.192 Z M502.328,17.088 C501.645333,17.088 501.117333,16.8266667 500.744,16.304 C500.370667,15.7813333 500.184,15.0506667 500.184,14.112 C500.184,13.664 500.242667,13.2586667 500.36,12.896 C500.477333,12.5333333 500.637333,12.2213333 500.84,11.96 C501.042667,11.6986667 501.28,11.496 501.552,11.352 C501.824,11.208 502.114667,11.136 502.424,11.136 C502.744,11.136 503.056,11.1973333 503.36,11.32 C503.664,11.4426667 503.981333,11.6533333 504.312,11.952 L504.312,11.952 L504.312,16.016 C503.992,16.3786667 503.672,16.648 503.352,16.824 C503.032,17 502.690667,17.088 502.328,17.088 Z M508.936,8.624 C509.192,8.624 509.408,8.544 509.584,8.384 C509.76,8.224 509.848,8.02133333 509.848,7.776 C509.848,7.52 509.76,7.31466667 509.584,7.16 C509.408,7.00533333 509.192,6.928 508.936,6.928 C508.68,6.928 508.464,7.00533333 508.288,7.16 C508.112,7.31466667 508.024,7.52 508.024,7.776 C508.024,8.02133333 508.112,8.224 508.288,8.384 C508.464,8.544 508.68,8.624 508.936,8.624 Z M509.576,18 L509.576,10.224 L508.264,10.224 L508.264,18 L509.576,18 Z M513.512,18 L513.512,12.368 C513.906667,11.9733333 514.258667,11.6746667 514.568,11.472 C514.877333,11.2693333 515.234667,11.168 515.64,11.168 C516.152,11.168 516.525333,11.3306667 516.76,11.656 C516.994667,11.9813333 517.112,12.512 517.112,13.248 L517.112,13.248 L517.112,18 L518.424,18 L518.424,13.072 C518.424,12.0693333 518.234667,11.312 517.856,10.8 C517.477333,10.288 516.877333,10.032 516.056,10.032 C515.512,10.032 515.034667,10.1573333 514.624,10.408 C514.213333,10.6586667 513.821333,10.9706667 513.448,11.344 L513.448,11.344 L513.4,11.344 L513.288,10.224 L512.2,10.224 L512.2,18 L513.512,18 Z M523.576,21.584 C524.184,21.584 524.730667,21.512 525.216,21.368 C525.701333,21.224 526.114667,21.0293333 526.456,20.784 C526.797333,20.5386667 527.058667,20.2533333 527.24,19.928 C527.421333,19.6026667 527.512,19.2586667 527.512,18.896 C527.512,18.2453333 527.285333,17.7733333 526.832,17.48 C526.378667,17.1866667 525.698667,17.04 524.792,17.04 L524.792,17.04 L523.288,17.04 C522.754667,17.04 522.392,16.96 522.2,16.8 C522.008,16.64 521.912,16.4373333 521.912,16.192 C521.912,15.9786667 521.96,15.8 522.056,15.656 C522.152,15.512 522.269333,15.3813333 522.408,15.264 C522.589333,15.3493333 522.781333,15.416 522.984,15.464 C523.186667,15.512 523.384,15.536 523.576,15.536 C523.970667,15.536 524.341333,15.472 524.688,15.344 C525.034667,15.216 525.336,15.0373333 525.592,14.808 C525.848,14.5786667 526.050667,14.296 526.2,13.96 C526.349333,13.624 526.424,13.248 526.424,12.832 C526.424,12.5013333 526.362667,12.1973333 526.24,11.92 C526.117333,11.6426667 525.965333,11.4133333 525.784,11.232 L525.784,11.232 L527.384,11.232 L527.384,10.224 L524.68,10.224 C524.530667,10.1706667 524.362667,10.1253333 524.176,10.088 C523.989333,10.0506667 523.789333,10.032 523.576,10.032 C523.181333,10.032 522.805333,10.096 522.448,10.224 C522.090667,10.352 521.778667,10.536 521.512,10.776 C521.245333,11.016 521.034667,11.3066667 520.88,11.648 C520.725333,11.9893333 520.648,12.3733333 520.648,12.8 C520.648,13.2693333 520.752,13.6826667 520.96,14.04 C521.168,14.3973333 521.4,14.6826667 521.656,14.896 L521.656,14.896 L521.656,14.96 C521.453333,15.0986667 521.261333,15.2906667 521.08,15.536 C520.898667,15.7813333 520.808,16.0693333 520.808,16.4 C520.808,16.7093333 520.874667,16.968 521.008,17.176 C521.141333,17.384 521.304,17.5466667 521.496,17.664 L521.496,17.664 L521.496,17.728 C521.144,17.9733333 520.866667,18.2453333 520.664,18.544 C520.461333,18.8426667 520.36,19.1573333 520.36,19.488 C520.36,19.8293333 520.437333,20.128 520.592,20.384 C520.746667,20.64 520.965333,20.8586667 521.248,21.04 C521.530667,21.2213333 521.869333,21.3573333 522.264,21.448 C522.658667,21.5386667 523.096,21.584 523.576,21.584 Z M523.576,14.656 C523.352,14.656 523.141333,14.6133333 522.944,14.528 C522.746667,14.4426667 522.570667,14.32 522.416,14.16 C522.261333,14 522.141333,13.8053333 522.056,13.576 C521.970667,13.3466667 521.928,13.088 521.928,12.8 C521.928,12.224 522.088,11.7786667 522.408,11.464 C522.728,11.1493333 523.117333,10.992 523.576,10.992 C524.034667,10.992 524.424,11.1493333 524.744,11.464 C525.064,11.7786667 525.224,12.224 525.224,12.8 C525.224,13.088 525.181333,13.3466667 525.096,13.576 C525.010667,13.8053333 524.890667,14 524.736,14.16 C524.581333,14.32 524.405333,14.4426667 524.208,14.528 C524.010667,14.6133333 523.8,14.656 523.576,14.656 Z M523.768,20.672 C523.064,20.672 522.512,20.5493333 522.112,20.304 C521.712,20.0586667 521.512,19.728 521.512,19.312 C521.512,19.088 521.576,18.864 521.704,18.64 C521.832,18.416 522.034667,18.2026667 522.312,18 C522.482667,18.0533333 522.656,18.088 522.832,18.104 C523.008,18.12 523.170667,18.128 523.32,18.128 L523.32,18.128 L524.664,18.128 C525.176,18.128 525.565333,18.1973333 525.832,18.336 C526.098667,18.4746667 526.232,18.7253333 526.232,19.088 C526.232,19.2906667 526.173333,19.488 526.056,19.68 C525.938667,19.872 525.773333,20.04 525.56,20.184 C525.346667,20.328 525.088,20.4453333 524.784,20.536 C524.48,20.6266667 524.141333,20.672 523.768,20.672 Z M535.416,19.76 L535.416,18.144 C536.184,18.0373333 536.789333,17.7386667 537.232,17.248 C537.674667,16.7573333 537.896,16.128 537.896,15.36 C537.896,14.784 537.786667,14.312 537.568,13.944 C537.349333,13.576 537.074667,13.2666667 536.744,13.016 C536.413333,12.7653333 536.053333,12.552 535.664,12.376 C535.274667,12.2 534.914667,12.0186667 534.584,11.832 C534.253333,11.6453333 533.978667,11.4293333 533.76,11.184 C533.541333,10.9386667 533.432,10.624 533.432,10.24 C533.432,9.77066667 533.576,9.39733333 533.864,9.12 C534.152,8.84266667 534.541333,8.704 535.032,8.704 C535.469333,8.704 535.829333,8.784 536.112,8.944 C536.394667,9.104 536.685333,9.328 536.984,9.616 L536.984,9.616 L537.688,8.832 C537.4,8.52266667 537.077333,8.256 536.72,8.032 C536.362667,7.808 535.928,7.66933333 535.416,7.616 L535.416,7.616 L535.416,6.032 L534.456,6.032 L534.456,7.648 C533.752,7.75466667 533.189333,8.04533333 532.768,8.52 C532.346667,8.99466667 532.136,9.58933333 532.136,10.304 C532.136,10.8266667 532.245333,11.256 532.464,11.592 C532.682667,11.928 532.957333,12.2133333 533.288,12.448 C533.618667,12.6826667 533.978667,12.8906667 534.368,13.072 C534.757333,13.2533333 535.117333,13.448 535.448,13.656 C535.778667,13.864 536.053333,14.1093333 536.272,14.392 C536.490667,14.6746667 536.6,15.0293333 536.6,15.456 C536.6,15.9573333 536.453333,16.3573333 536.16,16.656 C535.866667,16.9546667 535.421333,17.104 534.824,17.104 C534.333333,17.104 533.882667,17 533.472,16.792 C533.061333,16.584 532.685333,16.3306667 532.344,16.032 L532.344,16.032 L531.736,16.944 C532.077333,17.2533333 532.488,17.5226667 532.968,17.752 C533.448,17.9813333 533.944,18.1226667 534.456,18.176 L534.456,18.176 L534.456,19.76 L535.416,19.76 Z M542.632,18.192 C543.101333,18.192 543.538667,18.1253333 543.944,17.992 C544.349333,17.8586667 544.704,17.6666667 545.008,17.416 C545.312,17.1653333 545.552,16.8586667 545.728,16.496 C545.904,16.1333333 545.992,15.728 545.992,15.28 C545.992,14.928 545.936,14.608 545.824,14.32 C545.712,14.032 545.554667,13.7786667 545.352,13.56 C545.149333,13.3413333 544.914667,13.16 544.648,13.016 C544.381333,12.872 544.093333,12.7626667 543.784,12.688 L543.784,12.688 L543.784,12.624 C544.338667,12.4106667 544.786667,12.1066667 545.128,11.712 C545.469333,11.3173333 545.64,10.8106667 545.64,10.192 C545.64,9.776 545.565333,9.408 545.416,9.088 C545.266667,8.768 545.056,8.49866667 544.784,8.28 C544.512,8.06133333 544.189333,7.89333333 543.816,7.776 C543.442667,7.65866667 543.032,7.6 542.584,7.6 C541.976,7.6 541.434667,7.72 540.96,7.96 C540.485333,8.2 540.050667,8.50666667 539.656,8.88 L539.656,8.88 L540.36,9.712 C540.669333,9.40266667 541.002667,9.152 541.36,8.96 C541.717333,8.768 542.109333,8.672 542.536,8.672 C543.08,8.672 543.509333,8.816 543.824,9.104 C544.138667,9.392 544.296,9.78666667 544.296,10.288 C544.296,10.5546667 544.248,10.8053333 544.152,11.04 C544.056,11.2746667 543.893333,11.4773333 543.664,11.648 C543.434667,11.8186667 543.136,11.952 542.768,12.048 C542.4,12.144 541.944,12.192 541.4,12.192 L541.4,12.192 L541.4,13.2 C542.008,13.2 542.52,13.248 542.936,13.344 C543.352,13.44 543.688,13.5786667 543.944,13.76 C544.2,13.9413333 544.384,14.1573333 544.496,14.408 C544.608,14.6586667 544.664,14.9333333 544.664,15.232 C544.664,15.808 544.466667,16.264 544.072,16.6 C543.677333,16.936 543.170667,17.104 542.552,17.104 C541.944,17.104 541.434667,16.9813333 541.024,16.736 C540.613333,16.4906667 540.253333,16.208 539.944,15.888 L539.944,15.888 L539.272,16.752 C539.442667,16.944 539.637333,17.1253333 539.856,17.296 C540.074667,17.4666667 540.322667,17.6186667 540.6,17.752 C540.877333,17.8853333 541.184,17.992 541.52,18.072 C541.856,18.152 542.226667,18.192 542.632,18.192 Z M548.808,18.192 C549.064,18.192 549.285333,18.0986667 549.472,17.912 C549.658667,17.7253333 549.752,17.488 549.752,17.2 C549.752,16.8906667 549.658667,16.6426667 549.472,16.456 C549.285333,16.2693333 549.064,16.176 548.808,16.176 C548.541333,16.176 548.314667,16.2693333 548.128,16.456 C547.941333,16.6426667 547.848,16.8906667 547.848,17.2 C547.848,17.488 547.941333,17.7253333 548.128,17.912 C548.314667,18.0986667 548.541333,18.192 548.808,18.192 Z M554.072,18.192 C554.584,18.192 555.072,18.088 555.536,17.88 C556,17.672 556.413333,17.3413333 556.776,16.888 C557.138667,16.4346667 557.426667,15.848 557.64,15.128 C557.853333,14.408 557.96,13.536 557.96,12.512 C557.96,11.6906667 557.872,10.9733333 557.696,10.36 C557.52,9.74666667 557.274667,9.23466667 556.96,8.824 C556.645333,8.41333333 556.272,8.10666667 555.84,7.904 C555.408,7.70133333 554.941333,7.6 554.44,7.6 C554.034667,7.6 553.648,7.68 553.28,7.84 C552.912,8 552.592,8.224 552.32,8.512 C552.048,8.8 551.832,9.144 551.672,9.544 C551.512,9.944 551.432,10.3893333 551.432,10.88 C551.432,11.936 551.693333,12.7253333 552.216,13.248 C552.738667,13.7706667 553.442667,14.032 554.328,14.032 C554.754667,14.032 555.181333,13.9146667 555.608,13.68 C556.034667,13.4453333 556.408,13.1253333 556.728,12.72 C556.717333,13.5413333 556.637333,14.2293333 556.488,14.784 C556.338667,15.3386667 556.141333,15.7893333 555.896,16.136 C555.650667,16.4826667 555.368,16.7306667 555.048,16.88 C554.728,17.0293333 554.386667,17.104 554.024,17.104 C553.704,17.104 553.397333,17.0293333 553.104,16.88 C552.810667,16.7306667 552.557333,16.5333333 552.344,16.288 L552.344,16.288 L551.608,17.12 C551.885333,17.4293333 552.229333,17.6853333 552.64,17.888 C553.050667,18.0906667 553.528,18.192 554.072,18.192 Z M554.552,13.04 C553.912,13.04 553.437333,12.848 553.128,12.464 C552.818667,12.08 552.664,11.552 552.664,10.88 C552.664,10.5493333 552.709333,10.2453333 552.8,9.968 C552.890667,9.69066667 553.016,9.45333333 553.176,9.256 C553.336,9.05866667 553.525333,8.90666667 553.744,8.8 C553.962667,8.69333333 554.194667,8.64 554.44,8.64 C555.090667,8.64 555.608,8.896 555.992,9.408 C556.376,9.92 556.610667,10.6773333 556.696,11.68 C556.365333,12.16 556.010667,12.5066667 555.632,12.72 C555.253333,12.9333333 554.893333,13.04 554.552,13.04 Z M565.976,18 L565.976,16.864 L563.016,16.864 C562.749333,16.864 562.466667,16.8746667 562.168,16.896 C561.869333,16.9173333 561.581333,16.9386667 561.304,16.96 C561.912,16.3306667 562.469333,15.736 562.976,15.176 C563.482667,14.616 563.92,14.0773333 564.288,13.56 C564.656,13.0426667 564.944,12.5413333 565.152,12.056 C565.36,11.5706667 565.464,11.088 565.464,10.608 C565.464,9.70133333 565.192,8.97333333 564.648,8.424 C564.104,7.87466667 563.357333,7.6 562.408,7.6 C561.736,7.6 561.16,7.74133333 560.68,8.024 C560.2,8.30666667 559.746667,8.68266667 559.32,9.152 L559.32,9.152 L560.072,9.904 C560.370667,9.56266667 560.701333,9.272 561.064,9.032 C561.426667,8.792 561.821333,8.672 562.248,8.672 C562.898667,8.672 563.384,8.85866667 563.704,9.232 C564.024,9.60533333 564.184,10.0853333 564.184,10.672 C564.184,11.088 564.077333,11.5173333 563.864,11.96 C563.650667,12.4026667 563.341333,12.888 562.936,13.416 C562.530667,13.944 562.029333,14.5173333 561.432,15.136 C560.834667,15.7546667 560.152,16.448 559.384,17.216 L559.384,17.216 L559.384,18 L565.976,18 Z M571.656,18 L571.656,8.624 L574.824,8.624 L574.824,7.504 L567.144,7.504 L567.144,8.624 L570.312,8.624 L570.312,18 L571.656,18 Z" id="TotalEstimatedLending$3.92T" fill="#555555" fill-rule="nonzero"></path>
                <path d="M0,97 L0,40 L943,40 L943,97" id="Path-21" stroke="#D8D8D8" stroke-dasharray="3,3"></path>
                <path d="M516.212,68 L516.968,65.6 L519.836,65.6 L520.58,68 L521.648,68 L518.984,60.128 L517.856,60.128 L515.192,68 L516.212,68 Z M519.584,64.796 L517.22,64.796 L517.592,63.596 C517.736,63.156 517.872,62.718 518,62.282 C518.128,61.846 518.252,61.4 518.372,60.944 L518.372,60.944 L518.42,60.944 C518.548,61.4 518.676,61.846 518.804,62.282 C518.932,62.718 519.068,63.156 519.212,63.596 L519.212,63.596 L519.584,64.796 Z M525.2,68 L527.696,60.128 L526.676,60.128 L525.416,64.376 C525.28,64.848 525.156,65.284 525.044,65.684 C524.932,66.084 524.804,66.516 524.66,66.98 L524.66,66.98 L524.612,66.98 C524.46,66.516 524.33,66.084 524.222,65.684 C524.114,65.284 523.988,64.848 523.844,64.376 L523.844,64.376 L522.584,60.128 L521.516,60.128 L524.036,68 L525.2,68 Z M528.584,68 L529.34,65.6 L532.208,65.6 L532.952,68 L534.02,68 L531.356,60.128 L530.228,60.128 L527.564,68 L528.584,68 Z M531.956,64.796 L529.592,64.796 L529.964,63.596 C530.108,63.156 530.244,62.718 530.372,62.282 C530.5,61.846 530.624,61.4 530.744,60.944 L530.744,60.944 L530.792,60.944 C530.92,61.4 531.048,61.846 531.176,62.282 C531.304,62.718 531.44,63.156 531.584,63.596 L531.584,63.596 L531.956,64.796 Z M536.132,68 L536.132,60.128 L535.136,60.128 L535.136,68 L536.132,68 Z M542.732,68 L542.732,67.148 L539.288,67.148 L539.288,60.128 L538.292,60.128 L538.292,68 L542.732,68 Z M544.136,68 L544.892,65.6 L547.76,65.6 L548.504,68 L549.572,68 L546.908,60.128 L545.78,60.128 L543.116,68 L544.136,68 Z M547.508,64.796 L545.144,64.796 L545.516,63.596 C545.66,63.156 545.796,62.718 545.924,62.282 C546.052,61.846 546.176,61.4 546.296,60.944 L546.296,60.944 L546.344,60.944 C546.472,61.4 546.6,61.846 546.728,62.282 C546.856,62.718 546.992,63.156 547.136,63.596 L547.136,63.596 L547.508,64.796 Z M553.196,68 C553.636,68 554.04,67.952 554.408,67.856 C554.776,67.76 555.092,67.616 555.356,67.424 C555.62,67.232 555.824,66.992 555.968,66.704 C556.112,66.416 556.184,66.08 556.184,65.696 C556.184,65.152 556.036,64.724 555.74,64.412 C555.444,64.1 555.056,63.9 554.576,63.812 L554.576,63.812 L554.576,63.764 C554.952,63.644 555.238,63.426 555.434,63.11 C555.63,62.794 555.728,62.44 555.728,62.048 C555.728,61.704 555.662,61.41 555.53,61.166 C555.398,60.922 555.214,60.724 554.978,60.572 C554.742,60.42 554.458,60.308 554.126,60.236 C553.794,60.164 553.428,60.128 553.028,60.128 L553.028,60.128 L550.688,60.128 L550.688,68 L553.196,68 Z M552.848,63.476 L551.684,63.476 L551.684,60.92 L552.896,60.92 C553.512,60.92 553.974,61.016 554.282,61.208 C554.59,61.4 554.744,61.724 554.744,62.18 C554.744,62.58 554.596,62.896 554.3,63.128 C554.004,63.36 553.52,63.476 552.848,63.476 L552.848,63.476 Z M553.052,67.208 L551.684,67.208 L551.684,64.244 L553.052,64.244 C553.748,64.244 554.28,64.358 554.648,64.586 C555.016,64.814 555.2,65.172 555.2,65.66 C555.2,66.188 555.012,66.578 554.636,66.83 C554.26,67.082 553.732,67.208 553.052,67.208 L553.052,67.208 Z M562.184,68 L562.184,67.148 L558.74,67.148 L558.74,60.128 L557.744,60.128 L557.744,68 L562.184,68 Z M568.232,68 L568.232,67.148 L564.572,67.148 L564.572,64.292 L567.56,64.292 L567.56,63.44 L564.572,63.44 L564.572,60.968 L568.112,60.968 L568.112,60.128 L563.576,60.128 L563.576,68 L568.232,68 Z M576.74,68 L576.74,67.148 L573.296,67.148 L573.296,60.128 L572.3,60.128 L572.3,68 L576.74,68 Z M582.788,68 L582.788,67.148 L579.128,67.148 L579.128,64.292 L582.116,64.292 L582.116,63.44 L579.128,63.44 L579.128,60.968 L582.668,60.968 L582.668,60.128 L578.132,60.128 L578.132,68 L582.788,68 Z M585.404,68 L585.404,63.884 C585.404,63.468 585.39,63.054 585.362,62.642 C585.334,62.23 585.304,61.824 585.272,61.424 L585.272,61.424 L585.32,61.424 L586.172,63.044 L589.028,68 L590.06,68 L590.06,60.128 L589.112,60.128 L589.112,64.196 C589.112,64.612 589.126,65.034 589.154,65.462 C589.182,65.89 589.208,66.304 589.232,66.704 L589.232,66.704 L589.184,66.704 L588.332,65.072 L585.488,60.128 L584.456,60.128 L584.456,68 L585.404,68 Z M594.236,68 C594.828,68 595.352,67.91 595.808,67.73 C596.264,67.55 596.648,67.29 596.96,66.95 C597.272,66.61 597.508,66.194 597.668,65.702 C597.828,65.21 597.908,64.652 597.908,64.028 C597.908,62.772 597.592,61.808 596.96,61.136 C596.328,60.464 595.404,60.128 594.188,60.128 L594.188,60.128 L592.22,60.128 L592.22,68 L594.236,68 Z M594.116,67.184 L593.216,67.184 L593.216,60.944 L594.116,60.944 C595.036,60.944 595.726,61.208 596.186,61.736 C596.646,62.264 596.876,63.028 596.876,64.028 C596.876,65.028 596.646,65.804 596.186,66.356 C595.726,66.908 595.036,67.184 594.116,67.184 L594.116,67.184 Z M600.596,68 L600.596,60.128 L599.6,60.128 L599.6,68 L600.596,68 Z M603.704,68 L603.704,63.884 C603.704,63.468 603.69,63.054 603.662,62.642 C603.634,62.23 603.604,61.824 603.572,61.424 L603.572,61.424 L603.62,61.424 L604.472,63.044 L607.328,68 L608.36,68 L608.36,60.128 L607.412,60.128 L607.412,64.196 C607.412,64.612 607.426,65.034 607.454,65.462 C607.482,65.89 607.508,66.304 607.532,66.704 L607.532,66.704 L607.484,66.704 L606.632,65.072 L603.788,60.128 L602.756,60.128 L602.756,68 L603.704,68 Z M613.616,68.144 C614.144,68.144 614.616,68.058 615.032,67.886 C615.448,67.714 615.784,67.496 616.04,67.232 L616.04,67.232 L616.04,63.92 L613.46,63.92 L613.46,64.748 L615.128,64.748 L615.128,66.8 C614.968,66.944 614.762,67.058 614.51,67.142 C614.258,67.226 613.992,67.268 613.712,67.268 C613.288,67.268 612.914,67.192 612.59,67.04 C612.266,66.888 611.994,66.672 611.774,66.392 C611.554,66.112 611.386,65.774 611.27,65.378 C611.154,64.982 611.096,64.536 611.096,64.04 C611.096,63.552 611.158,63.112 611.282,62.72 C611.406,62.328 611.58,61.994 611.804,61.718 C612.028,61.442 612.3,61.23 612.62,61.082 C612.94,60.934 613.3,60.86 613.7,60.86 C614.1,60.86 614.432,60.932 614.696,61.076 C614.96,61.22 615.192,61.396 615.392,61.604 L615.392,61.604 L615.944,60.956 C615.832,60.836 615.702,60.718 615.554,60.602 C615.406,60.486 615.238,60.382 615.05,60.29 C614.862,60.198 614.654,60.124 614.426,60.068 C614.198,60.012 613.948,59.984 613.676,59.984 C613.156,59.984 612.674,60.078 612.23,60.266 C611.786,60.454 611.404,60.724 611.084,61.076 C610.764,61.428 610.514,61.856 610.334,62.36 C610.154,62.864 610.064,63.432 610.064,64.064 C610.064,64.704 610.152,65.278 610.328,65.786 C610.504,66.294 610.748,66.722 611.06,67.07 C611.372,67.418 611.746,67.684 612.182,67.868 C612.618,68.052 613.096,68.144 613.616,68.144 Z M551.936,84.32 L551.936,83.072 C552.56,82.936 553.028,82.662 553.34,82.25 C553.652,81.838 553.808,81.344 553.808,80.768 C553.808,80.384 553.73,80.062 553.574,79.802 C553.418,79.542 553.222,79.32 552.986,79.136 C552.75,78.952 552.496,78.796 552.224,78.668 C551.952,78.54 551.698,78.416 551.462,78.296 C551.226,78.176 551.03,78.05 550.874,77.918 C550.718,77.786 550.64,77.624 550.64,77.432 C550.64,77.16 550.716,76.964 550.868,76.844 C551.02,76.724 551.24,76.664 551.528,76.664 C551.784,76.664 552.012,76.714 552.212,76.814 C552.412,76.914 552.62,77.064 552.836,77.264 L552.836,77.264 L553.724,76.256 C553.492,76.008 553.232,75.796 552.944,75.62 C552.656,75.444 552.32,75.328 551.936,75.272 L551.936,75.272 L551.936,74.06 L550.772,74.06 L550.772,75.296 C550.204,75.408 549.758,75.658 549.434,76.046 C549.11,76.434 548.948,76.924 548.948,77.516 C548.948,77.876 549.026,78.18 549.182,78.428 C549.338,78.676 549.534,78.892 549.77,79.076 C550.006,79.26 550.26,79.418 550.532,79.55 C550.804,79.682 551.058,79.814 551.294,79.946 C551.53,80.078 551.726,80.216 551.882,80.36 C552.038,80.504 552.116,80.68 552.116,80.888 C552.116,81.168 552.038,81.376 551.882,81.512 C551.726,81.648 551.48,81.716 551.144,81.716 C550.856,81.716 550.574,81.658 550.298,81.542 C550.022,81.426 549.732,81.252 549.428,81.02 L549.428,81.02 L548.66,82.208 C548.94,82.464 549.274,82.67 549.662,82.826 C550.05,82.982 550.42,83.08 550.772,83.12 L550.772,83.12 L550.772,84.32 L551.936,84.32 Z M557.444,83.144 C557.828,83.144 558.192,83.094 558.536,82.994 C558.88,82.894 559.18,82.75 559.436,82.562 C559.692,82.374 559.896,82.142 560.048,81.866 C560.2,81.59 560.276,81.276 560.276,80.924 C560.276,80.428 560.134,80.026 559.85,79.718 C559.566,79.41 559.204,79.192 558.764,79.064 L558.764,79.064 L558.764,79.016 C559.172,78.84 559.486,78.614 559.706,78.338 C559.926,78.062 560.036,77.724 560.036,77.324 C560.036,76.988 559.972,76.692 559.844,76.436 C559.716,76.18 559.538,75.962 559.31,75.782 C559.082,75.602 558.806,75.466 558.482,75.374 C558.158,75.282 557.8,75.236 557.408,75.236 C556.936,75.236 556.506,75.322 556.118,75.494 C555.73,75.666 555.36,75.904 555.008,76.208 L555.008,76.208 L555.896,77.288 C556.136,77.08 556.366,76.916 556.586,76.796 C556.806,76.676 557.052,76.616 557.324,76.616 C557.628,76.616 557.86,76.69 558.02,76.838 C558.18,76.986 558.26,77.192 558.26,77.456 C558.26,77.608 558.23,77.746 558.17,77.87 C558.11,77.994 558.01,78.102 557.87,78.194 C557.73,78.286 557.546,78.356 557.318,78.404 C557.09,78.452 556.804,78.476 556.46,78.476 L556.46,78.476 L556.46,79.724 C556.876,79.724 557.216,79.75 557.48,79.802 C557.744,79.854 557.952,79.926 558.104,80.018 C558.256,80.11 558.362,80.224 558.422,80.36 C558.482,80.496 558.512,80.648 558.512,80.816 C558.512,81.104 558.4,81.326 558.176,81.482 C557.952,81.638 557.652,81.716 557.276,81.716 C556.948,81.716 556.646,81.644 556.37,81.5 C556.094,81.356 555.84,81.172 555.608,80.948 L555.608,80.948 L554.792,82.064 C555.072,82.392 555.428,82.654 555.86,82.85 C556.292,83.046 556.82,83.144 557.444,83.144 Z M562.664,83.144 C562.968,83.144 563.222,83.038 563.426,82.826 C563.63,82.614 563.732,82.352 563.732,82.04 C563.732,81.72 563.63,81.454 563.426,81.242 C563.222,81.03 562.968,80.924 562.664,80.924 C562.36,80.924 562.106,81.03 561.902,81.242 C561.698,81.454 561.596,81.72 561.596,82.04 C561.596,82.352 561.698,82.614 561.902,82.826 C562.106,83.038 562.36,83.144 562.664,83.144 Z M567.632,83.144 C568.04,83.144 568.412,83.058 568.748,82.886 C569.084,82.714 569.37,82.46 569.606,82.124 C569.842,81.788 570.026,81.372 570.158,80.876 C570.29,80.38 570.356,79.808 570.356,79.16 C570.356,78.512 570.29,77.944 570.158,77.456 C570.026,76.968 569.842,76.558 569.606,76.226 C569.37,75.894 569.084,75.646 568.748,75.482 C568.412,75.318 568.04,75.236 567.632,75.236 C567.224,75.236 566.852,75.318 566.516,75.482 C566.18,75.646 565.894,75.894 565.658,76.226 C565.422,76.558 565.238,76.968 565.106,77.456 C564.974,77.944 564.908,78.512 564.908,79.16 C564.908,79.808 564.974,80.38 565.106,80.876 C565.238,81.372 565.422,81.788 565.658,82.124 C565.894,82.46 566.18,82.714 566.516,82.886 C566.852,83.058 567.224,83.144 567.632,83.144 Z M567.632,81.776 C567.488,81.776 567.352,81.738 567.224,81.662 C567.096,81.586 566.984,81.448 566.888,81.248 C566.792,81.048 566.716,80.78 566.66,80.444 C566.604,80.108 566.576,79.68 566.576,79.16 C566.576,78.64 566.604,78.214 566.66,77.882 C566.716,77.55 566.792,77.29 566.888,77.102 C566.984,76.914 567.096,76.784 567.224,76.712 C567.352,76.64 567.488,76.604 567.632,76.604 C567.784,76.604 567.924,76.64 568.052,76.712 C568.18,76.784 568.292,76.914 568.388,77.102 C568.484,77.29 568.558,77.55 568.61,77.882 C568.662,78.214 568.688,78.64 568.688,79.16 C568.688,79.68 568.662,80.108 568.61,80.444 C568.558,80.78 568.484,81.048 568.388,81.248 C568.292,81.448 568.18,81.586 568.052,81.662 C567.924,81.738 567.784,81.776 567.632,81.776 Z M573.956,83.144 C574.364,83.144 574.734,83.09 575.066,82.982 C575.398,82.874 575.682,82.726 575.918,82.538 C576.154,82.35 576.336,82.128 576.464,81.872 C576.592,81.616 576.656,81.336 576.656,81.032 C576.656,80.528 576.528,80.12 576.272,79.808 C576.016,79.496 575.704,79.24 575.336,79.04 L575.336,79.04 L575.336,78.992 C575.6,78.816 575.832,78.586 576.032,78.302 C576.232,78.018 576.332,77.692 576.332,77.324 C576.332,77.012 576.276,76.726 576.164,76.466 C576.052,76.206 575.896,75.986 575.696,75.806 C575.496,75.626 575.252,75.486 574.964,75.386 C574.676,75.286 574.36,75.236 574.016,75.236 C573.664,75.236 573.338,75.284 573.038,75.38 C572.738,75.476 572.48,75.616 572.264,75.8 C572.048,75.984 571.88,76.206 571.76,76.466 C571.64,76.726 571.58,77.016 571.58,77.336 C571.58,77.744 571.676,78.09 571.868,78.374 C572.06,78.658 572.304,78.912 572.6,79.136 L572.6,79.136 L572.6,79.184 C572.24,79.376 571.934,79.62 571.682,79.916 C571.43,80.212 571.304,80.592 571.304,81.056 C571.304,81.368 571.37,81.652 571.502,81.908 C571.634,82.164 571.818,82.384 572.054,82.568 C572.29,82.752 572.57,82.894 572.894,82.994 C573.218,83.094 573.572,83.144 573.956,83.144 Z M574.436,78.56 C574.044,78.408 573.728,78.244 573.488,78.068 C573.248,77.892 573.128,77.648 573.128,77.336 C573.128,77.04 573.212,76.82 573.38,76.676 C573.548,76.532 573.748,76.46 573.98,76.46 C574.268,76.46 574.494,76.55 574.658,76.73 C574.822,76.91 574.904,77.148 574.904,77.444 C574.904,77.828 574.748,78.2 574.436,78.56 Z M573.992,81.92 C573.672,81.92 573.396,81.826 573.164,81.638 C572.932,81.45 572.816,81.188 572.816,80.852 C572.816,80.62 572.872,80.4 572.984,80.192 C573.096,79.984 573.236,79.8 573.404,79.64 C573.644,79.744 573.862,79.84 574.058,79.928 C574.254,80.016 574.424,80.11 574.568,80.21 C574.712,80.31 574.822,80.42 574.898,80.54 C574.974,80.66 575.012,80.804 575.012,80.972 C575.012,81.292 574.916,81.53 574.724,81.686 C574.532,81.842 574.288,81.92 573.992,81.92 Z M581.36,83 L581.36,76.664 L583.508,76.664 L583.508,75.176 L577.436,75.176 L577.436,76.664 L579.584,76.664 L579.584,83 L581.36,83 Z" id="AVAILABLELENDING$3.08T" fill="#666666" fill-rule="nonzero"></path>
                <line x1="471.5" y1="39.5" x2="471.5" y2="27.5" id="Line-14" stroke="#D8D8D8" stroke-linecap="round" stroke-linejoin="round" stroke-dasharray="3,3"></line>
                <line x1="565.5" y1="98" x2="565.5" y2="90" id="Line-14-Copy-5" stroke="#979797" stroke-width="0.5" stroke-linecap="square"></line>
                <line x1="92.5" y1="98" x2="92.5" y2="90" id="Line-14-Copy" stroke="#979797" stroke-width="0.5" stroke-linecap="square"></line>
                <g id="Group-4" transform="translate(0.000000, 100.000000)">
                    <rect id="Rectangle-Copy-20" fill="#6F41A7" x="0" y="0" width="192" height="40"></rect>
                    <rect id="Rectangle-Copy-15" fill="#DAD1E4" x="195" y="0" width="749" height="40"></rect>
                </g>
            </g>
        </g>
    </g>
</svg>