<?xml version="1.0" encoding="UTF-8"?>
<svg width="432px" height="150px" viewBox="0 0 432 150" version="1.1" xmlns="http://www.w3.org/2000/svg" xmlns:xlink="http://www.w3.org/1999/xlink" role="img">
    <desc>Viz 1 B tablet placeholder alt text</desc>
    <defs>
        <polygon id="path-1" points="313 79 353 79 353 176 313 176"></polygon>
        <mask id="mask-2" maskContentUnits="userSpaceOnUse" maskUnits="objectBoundingBox" x="0" y="0" width="40" height="97" fill="white">
            <use xlink:href="#path-1"></use>
        </mask>
    </defs>
    <g id="SVG-Outlines" stroke="none" stroke-width="1" fill="none" fill-rule="evenodd">
        <g id="Tablet" transform="translate(-41.000000, -477.000000)">
            <g id="Viz-1---B-Tablet" transform="translate(41.000000, 477.000000)">
                <path d="M108.378,57 L108.378,52.884 C108.378,52.468 108.364,52.054 108.336,51.642 C108.308,51.23 108.278,50.824 108.246,50.424 L108.246,50.424 L108.294,50.424 L109.146,52.044 L112.002,57 L113.034,57 L113.034,49.128 L112.086,49.128 L112.086,53.196 C112.086,53.612 112.1,54.034 112.128,54.462 C112.156,54.89 112.182,55.304 112.206,55.704 L112.206,55.704 L112.158,55.704 L111.306,54.072 L108.462,49.128 L107.43,49.128 L107.43,57 L108.378,57 Z M119.85,57 L119.85,56.148 L116.19,56.148 L116.19,53.292 L119.178,53.292 L119.178,52.44 L116.19,52.44 L116.19,49.968 L119.73,49.968 L119.73,49.128 L115.194,49.128 L115.194,57 L119.85,57 Z M123.57,57 L124.734,52.26 C124.798,51.956 124.864,51.658 124.932,51.366 C125,51.074 125.066,50.776 125.13,50.472 L125.13,50.472 L125.178,50.472 C125.242,50.776 125.304,51.074 125.364,51.366 C125.424,51.658 125.49,51.956 125.562,52.26 L125.562,52.26 L126.75,57 L127.95,57 L129.582,49.128 L128.622,49.128 L127.794,53.412 C127.714,53.836 127.638,54.258 127.566,54.678 C127.494,55.098 127.422,55.524 127.35,55.956 L127.35,55.956 L127.302,55.956 C127.206,55.524 127.11,55.096 127.014,54.672 C126.918,54.248 126.822,53.828 126.726,53.412 L126.726,53.412 L125.634,49.128 L124.722,49.128 L123.63,53.412 C123.542,53.836 123.45,54.258 123.354,54.678 C123.258,55.098 123.166,55.524 123.078,55.956 L123.078,55.956 L123.03,55.956 C122.958,55.524 122.882,55.1 122.802,54.684 L122.685,54.054 L122.685,54.054 L122.574,53.412 L121.746,49.128 L120.714,49.128 L122.382,57 L123.57,57 Z M133.326,57 L134.082,54.6 L136.95,54.6 L137.694,57 L138.762,57 L136.098,49.128 L134.97,49.128 L132.306,57 L133.326,57 Z M136.698,53.796 L134.334,53.796 L134.706,52.596 C134.85,52.156 134.986,51.718 135.114,51.282 C135.242,50.846 135.366,50.4 135.486,49.944 L135.486,49.944 L135.534,49.944 C135.662,50.4 135.79,50.846 135.918,51.282 C136.046,51.718 136.182,52.156 136.326,52.596 L136.326,52.596 L136.698,53.796 Z M142.854,57.144 C143.382,57.144 143.854,57.058 144.27,56.886 C144.686,56.714 145.022,56.496 145.278,56.232 L145.278,56.232 L145.278,52.92 L142.698,52.92 L142.698,53.748 L144.366,53.748 L144.366,55.8 C144.206,55.944 144,56.058 143.748,56.142 C143.496,56.226 143.23,56.268 142.95,56.268 C142.526,56.268 142.152,56.192 141.828,56.04 C141.504,55.888 141.232,55.672 141.012,55.392 C140.792,55.112 140.624,54.774 140.508,54.378 C140.392,53.982 140.334,53.536 140.334,53.04 C140.334,52.552 140.396,52.112 140.52,51.72 C140.644,51.328 140.818,50.994 141.042,50.718 C141.266,50.442 141.538,50.23 141.858,50.082 C142.178,49.934 142.538,49.86 142.938,49.86 C143.338,49.86 143.67,49.932 143.934,50.076 C144.198,50.22 144.43,50.396 144.63,50.604 L144.63,50.604 L145.182,49.956 C145.07,49.836 144.94,49.718 144.792,49.602 C144.644,49.486 144.476,49.382 144.288,49.29 C144.1,49.198 143.892,49.124 143.664,49.068 C143.436,49.012 143.186,48.984 142.914,48.984 C142.394,48.984 141.912,49.078 141.468,49.266 C141.024,49.454 140.642,49.724 140.322,50.076 C140.002,50.428 139.752,50.856 139.572,51.36 C139.392,51.864 139.302,52.432 139.302,53.064 C139.302,53.704 139.39,54.278 139.566,54.786 C139.742,55.294 139.986,55.722 140.298,56.07 C140.61,56.418 140.984,56.684 141.42,56.868 C141.856,57.052 142.334,57.144 142.854,57.144 Z M151.818,57 L151.818,56.148 L148.158,56.148 L148.158,53.292 L151.146,53.292 L151.146,52.44 L148.158,52.44 L148.158,49.968 L151.698,49.968 L151.698,49.128 L147.162,49.128 L147.162,57 L151.818,57 Z M154.434,57 L154.434,52.884 C154.434,52.468 154.42,52.054 154.392,51.642 C154.364,51.23 154.334,50.824 154.302,50.424 L154.302,50.424 L154.35,50.424 L155.202,52.044 L158.058,57 L159.09,57 L159.09,49.128 L158.142,49.128 L158.142,53.196 C158.142,53.612 158.156,54.034 158.184,54.462 C158.212,54.89 158.238,55.304 158.262,55.704 L158.262,55.704 L158.214,55.704 L157.362,54.072 L154.518,49.128 L153.486,49.128 L153.486,57 L154.434,57 Z M164.226,57.144 C164.738,57.144 165.19,57.044 165.582,56.844 C165.974,56.644 166.326,56.364 166.638,56.004 L166.638,56.004 L166.086,55.38 C165.83,55.66 165.558,55.878 165.27,56.034 C164.982,56.19 164.646,56.268 164.262,56.268 C163.886,56.268 163.548,56.192 163.248,56.04 C162.948,55.888 162.694,55.672 162.486,55.392 C162.278,55.112 162.116,54.774 162,54.378 C161.884,53.982 161.826,53.536 161.826,53.04 C161.826,52.552 161.884,52.112 162,51.72 C162.116,51.328 162.282,50.994 162.498,50.718 C162.714,50.442 162.974,50.23 163.278,50.082 C163.582,49.934 163.922,49.86 164.298,49.86 C164.634,49.86 164.934,49.928 165.198,50.064 C165.462,50.2 165.698,50.38 165.906,50.604 L165.906,50.604 L166.446,49.956 C166.214,49.7 165.916,49.474 165.552,49.278 C165.188,49.082 164.766,48.984 164.286,48.984 C163.782,48.984 163.318,49.078 162.894,49.266 C162.47,49.454 162.102,49.724 161.79,50.076 C161.478,50.428 161.234,50.856 161.058,51.36 C160.882,51.864 160.794,52.432 160.794,53.064 C160.794,53.704 160.88,54.278 161.052,54.786 C161.224,55.294 161.464,55.722 161.772,56.07 C162.08,56.418 162.442,56.684 162.858,56.868 C163.274,57.052 163.73,57.144 164.226,57.144 Z M170.298,57 L170.298,53.952 L172.662,49.128 L171.618,49.128 L170.61,51.348 C170.49,51.636 170.362,51.92 170.226,52.2 C170.09,52.48 169.954,52.768 169.818,53.064 L169.818,53.064 L169.77,53.064 C169.634,52.768 169.506,52.48 169.386,52.2 C169.266,51.92 169.142,51.636 169.014,51.348 L169.014,51.348 L167.994,49.128 L166.926,49.128 L169.29,53.952 L169.29,57 L170.298,57 Z M118.008,72 L118.008,68.472 L121.008,68.472 L121.008,67.632 L118.008,67.632 L118.008,64.968 L121.548,64.968 L121.548,64.128 L117.012,64.128 L117.012,72 L118.008,72 Z M125.736,72.144 C126.136,72.144 126.508,72.086 126.852,71.97 C127.196,71.854 127.494,71.662 127.746,71.394 C127.998,71.126 128.196,70.776 128.34,70.344 C128.484,69.912 128.556,69.38 128.556,68.748 L128.556,68.748 L128.556,64.128 L127.596,64.128 L127.596,68.772 C127.596,69.244 127.548,69.64 127.452,69.96 C127.356,70.28 127.224,70.536 127.056,70.728 C126.888,70.92 126.692,71.058 126.468,71.142 C126.244,71.226 126,71.268 125.736,71.268 C125.48,71.268 125.24,71.226 125.016,71.142 C124.792,71.058 124.598,70.92 124.434,70.728 C124.27,70.536 124.14,70.28 124.044,69.96 C123.948,69.64 123.9,69.244 123.9,68.772 L123.9,68.772 L123.9,64.128 L122.904,64.128 L122.904,68.748 C122.904,69.38 122.976,69.912 123.12,70.344 C123.264,70.776 123.462,71.126 123.714,71.394 C123.966,71.662 124.266,71.854 124.614,71.97 C124.962,72.086 125.336,72.144 125.736,72.144 Z M131.628,72 L131.628,67.884 C131.628,67.468 131.614,67.054 131.586,66.642 C131.558,66.23 131.528,65.824 131.496,65.424 L131.496,65.424 L131.544,65.424 L132.396,67.044 L135.252,72 L136.284,72 L136.284,64.128 L135.336,64.128 L135.336,68.196 C135.336,68.612 135.35,69.034 135.378,69.462 C135.406,69.89 135.432,70.304 135.456,70.704 L135.456,70.704 L135.408,70.704 L134.556,69.072 L131.712,64.128 L130.68,64.128 L130.68,72 L131.628,72 Z M140.46,72 C141.052,72 141.576,71.91 142.032,71.73 C142.488,71.55 142.872,71.29 143.184,70.95 C143.496,70.61 143.732,70.194 143.892,69.702 C144.052,69.21 144.132,68.652 144.132,68.028 C144.132,66.772 143.816,65.808 143.184,65.136 C142.552,64.464 141.628,64.128 140.412,64.128 L140.412,64.128 L138.444,64.128 L138.444,72 L140.46,72 Z M140.34,71.184 L139.44,71.184 L139.44,64.944 L140.34,64.944 C141.26,64.944 141.95,65.208 142.41,65.736 C142.87,66.264 143.1,67.028 143.1,68.028 C143.1,69.028 142.87,69.804 142.41,70.356 C141.95,70.908 141.26,71.184 140.34,71.184 L140.34,71.184 Z M146.82,72 L146.82,64.128 L145.824,64.128 L145.824,72 L146.82,72 Z M149.928,72 L149.928,67.884 C149.928,67.468 149.914,67.054 149.886,66.642 C149.858,66.23 149.828,65.824 149.796,65.424 L149.796,65.424 L149.844,65.424 L150.696,67.044 L153.552,72 L154.584,72 L154.584,64.128 L153.636,64.128 L153.636,68.196 C153.636,68.612 153.65,69.034 153.678,69.462 C153.706,69.89 153.732,70.304 153.756,70.704 L153.756,70.704 L153.708,70.704 L152.856,69.072 L150.012,64.128 L148.98,64.128 L148.98,72 L149.928,72 Z M159.84,72.144 C160.368,72.144 160.84,72.058 161.256,71.886 C161.672,71.714 162.008,71.496 162.264,71.232 L162.264,71.232 L162.264,67.92 L159.684,67.92 L159.684,68.748 L161.352,68.748 L161.352,70.8 C161.192,70.944 160.986,71.058 160.734,71.142 C160.482,71.226 160.216,71.268 159.936,71.268 C159.512,71.268 159.138,71.192 158.814,71.04 C158.49,70.888 158.218,70.672 157.998,70.392 C157.778,70.112 157.61,69.774 157.494,69.378 C157.378,68.982 157.32,68.536 157.32,68.04 C157.32,67.552 157.382,67.112 157.506,66.72 C157.63,66.328 157.804,65.994 158.028,65.718 C158.252,65.442 158.524,65.23 158.844,65.082 C159.164,64.934 159.524,64.86 159.924,64.86 C160.324,64.86 160.656,64.932 160.92,65.076 C161.184,65.22 161.416,65.396 161.616,65.604 L161.616,65.604 L162.168,64.956 C162.056,64.836 161.926,64.718 161.778,64.602 C161.63,64.486 161.462,64.382 161.274,64.29 C161.086,64.198 160.878,64.124 160.65,64.068 C160.422,64.012 160.172,63.984 159.9,63.984 C159.38,63.984 158.898,64.078 158.454,64.266 C158.01,64.454 157.628,64.724 157.308,65.076 C156.988,65.428 156.738,65.856 156.558,66.36 C156.378,66.864 156.288,67.432 156.288,68.064 C156.288,68.704 156.376,69.278 156.552,69.786 C156.728,70.294 156.972,70.722 157.284,71.07 C157.596,71.418 157.97,71.684 158.406,71.868 C158.842,72.052 159.32,72.144 159.84,72.144 Z M124.236,88.32 L124.236,87.072 C124.86,86.936 125.328,86.662 125.64,86.25 C125.952,85.838 126.108,85.344 126.108,84.768 C126.108,84.384 126.03,84.062 125.874,83.802 C125.718,83.542 125.522,83.32 125.286,83.136 C125.05,82.952 124.796,82.796 124.524,82.668 C124.252,82.54 123.998,82.416 123.762,82.296 C123.526,82.176 123.33,82.05 123.174,81.918 C123.018,81.786 122.94,81.624 122.94,81.432 C122.94,81.16 123.016,80.964 123.168,80.844 C123.32,80.724 123.54,80.664 123.828,80.664 C124.084,80.664 124.312,80.714 124.512,80.814 C124.712,80.914 124.92,81.064 125.136,81.264 L125.136,81.264 L126.024,80.256 C125.792,80.008 125.532,79.796 125.244,79.62 C124.956,79.444 124.62,79.328 124.236,79.272 L124.236,79.272 L124.236,78.06 L123.072,78.06 L123.072,79.296 C122.504,79.408 122.058,79.658 121.734,80.046 C121.41,80.434 121.248,80.924 121.248,81.516 C121.248,81.876 121.326,82.18 121.482,82.428 C121.638,82.676 121.834,82.892 122.07,83.076 C122.306,83.26 122.56,83.418 122.832,83.55 C123.104,83.682 123.358,83.814 123.594,83.946 C123.83,84.078 124.026,84.216 124.182,84.36 C124.338,84.504 124.416,84.68 124.416,84.888 C124.416,85.168 124.338,85.376 124.182,85.512 C124.026,85.648 123.78,85.716 123.444,85.716 C123.156,85.716 122.874,85.658 122.598,85.542 C122.322,85.426 122.032,85.252 121.728,85.02 L121.728,85.02 L120.96,86.208 C121.24,86.464 121.574,86.67 121.962,86.826 C122.35,86.982 122.72,87.08 123.072,87.12 L123.072,87.12 L123.072,88.32 L124.236,88.32 Z M132.636,87 L132.636,85.512 L131.1,85.512 C130.916,85.512 130.706,85.522 130.47,85.542 C130.234,85.562 130.02,85.584 129.828,85.608 C130.14,85.288 130.442,84.962 130.734,84.63 C131.026,84.298 131.286,83.966 131.514,83.634 C131.742,83.302 131.924,82.97 132.06,82.638 C132.196,82.306 132.264,81.98 132.264,81.66 C132.264,81.292 132.204,80.96 132.084,80.664 C131.964,80.368 131.792,80.114 131.568,79.902 C131.344,79.69 131.078,79.526 130.77,79.41 C130.462,79.294 130.12,79.236 129.744,79.236 C129.2,79.236 128.732,79.338 128.34,79.542 C127.948,79.746 127.564,80.048 127.188,80.448 L127.188,80.448 L128.148,81.396 C128.34,81.188 128.544,81.006 128.76,80.85 C128.976,80.694 129.224,80.616 129.504,80.616 C129.84,80.616 130.104,80.714 130.296,80.91 C130.488,81.106 130.584,81.392 130.584,81.768 C130.584,82.04 130.502,82.326 130.338,82.626 C130.174,82.926 129.946,83.25 129.654,83.598 C129.362,83.946 129.014,84.318 128.61,84.714 C128.206,85.11 127.76,85.536 127.272,85.992 L127.272,85.992 L127.272,87 L132.636,87 Z M134.964,87.144 C135.268,87.144 135.522,87.038 135.726,86.826 C135.93,86.614 136.032,86.352 136.032,86.04 C136.032,85.72 135.93,85.454 135.726,85.242 C135.522,85.03 135.268,84.924 134.964,84.924 C134.66,84.924 134.406,85.03 134.202,85.242 C133.998,85.454 133.896,85.72 133.896,86.04 C133.896,86.352 133.998,86.614 134.202,86.826 C134.406,87.038 134.66,87.144 134.964,87.144 Z M139.728,87.144 C140.096,87.144 140.45,87.084 140.79,86.964 C141.13,86.844 141.428,86.67 141.684,86.442 C141.94,86.214 142.144,85.936 142.296,85.608 C142.448,85.28 142.524,84.904 142.524,84.48 C142.524,84.072 142.46,83.72 142.332,83.424 C142.204,83.128 142.028,82.884 141.804,82.692 C141.58,82.5 141.322,82.356 141.03,82.26 C140.738,82.164 140.428,82.116 140.1,82.116 C139.94,82.116 139.794,82.13 139.662,82.158 C139.53,82.186 139.392,82.232 139.248,82.296 L139.248,82.296 L139.38,80.868 L142.176,80.868 L142.176,79.38 L137.856,79.38 L137.64,83.232 L138.432,83.736 C138.544,83.664 138.646,83.604 138.738,83.556 C138.83,83.508 138.918,83.468 139.002,83.436 C139.086,83.404 139.172,83.382 139.26,83.37 C139.348,83.358 139.448,83.352 139.56,83.352 C139.92,83.352 140.21,83.452 140.43,83.652 C140.65,83.852 140.76,84.144 140.76,84.528 C140.76,84.92 140.644,85.216 140.412,85.416 C140.18,85.616 139.868,85.716 139.476,85.716 C139.148,85.716 138.85,85.642 138.582,85.494 C138.314,85.346 138.064,85.168 137.832,84.96 L137.832,84.96 L137.04,86.076 C137.344,86.38 137.712,86.634 138.144,86.838 C138.576,87.042 139.104,87.144 139.728,87.144 Z M146.256,87.144 C146.664,87.144 147.034,87.09 147.366,86.982 C147.698,86.874 147.982,86.726 148.218,86.538 C148.454,86.35 148.636,86.128 148.764,85.872 C148.892,85.616 148.956,85.336 148.956,85.032 C148.956,84.528 148.828,84.12 148.572,83.808 C148.316,83.496 148.004,83.24 147.636,83.04 L147.636,83.04 L147.636,82.992 C147.9,82.816 148.132,82.586 148.332,82.302 C148.532,82.018 148.632,81.692 148.632,81.324 C148.632,81.012 148.576,80.726 148.464,80.466 C148.352,80.206 148.196,79.986 147.996,79.806 C147.796,79.626 147.552,79.486 147.264,79.386 C146.976,79.286 146.66,79.236 146.316,79.236 C145.964,79.236 145.638,79.284 145.338,79.38 C145.038,79.476 144.78,79.616 144.564,79.8 C144.348,79.984 144.18,80.206 144.06,80.466 C143.94,80.726 143.88,81.016 143.88,81.336 C143.88,81.744 143.976,82.09 144.168,82.374 C144.36,82.658 144.604,82.912 144.9,83.136 L144.9,83.136 L144.9,83.184 C144.54,83.376 144.234,83.62 143.982,83.916 C143.73,84.212 143.604,84.592 143.604,85.056 C143.604,85.368 143.67,85.652 143.802,85.908 C143.934,86.164 144.118,86.384 144.354,86.568 C144.59,86.752 144.87,86.894 145.194,86.994 C145.518,87.094 145.872,87.144 146.256,87.144 Z M146.736,82.56 C146.344,82.408 146.028,82.244 145.788,82.068 C145.548,81.892 145.428,81.648 145.428,81.336 C145.428,81.04 145.512,80.82 145.68,80.676 C145.848,80.532 146.048,80.46 146.28,80.46 C146.568,80.46 146.794,80.55 146.958,80.73 C147.122,80.91 147.204,81.148 147.204,81.444 C147.204,81.828 147.048,82.2 146.736,82.56 Z M146.292,85.92 C145.972,85.92 145.696,85.826 145.464,85.638 C145.232,85.45 145.116,85.188 145.116,84.852 C145.116,84.62 145.172,84.4 145.284,84.192 C145.396,83.984 145.536,83.8 145.704,83.64 C145.944,83.744 146.162,83.84 146.358,83.928 C146.554,84.016 146.724,84.11 146.868,84.21 C147.012,84.31 147.122,84.42 147.198,84.54 C147.274,84.66 147.312,84.804 147.312,84.972 C147.312,85.292 147.216,85.53 147.024,85.686 C146.832,85.842 146.588,85.92 146.292,85.92 Z M156.06,87 L156.06,80.664 L158.208,80.664 L158.208,79.176 L152.136,79.176 L152.136,80.664 L154.284,80.664 L154.284,87 L156.06,87 Z" id="NEWAGENCYFUNDING$2.58T" fill="#666666" fill-rule="nonzero"></path>
                <path d="M13.958,18 L13.958,7.992 L17.36,7.992 L17.36,6.228 L8.468,6.228 L8.468,7.992 L11.87,7.992 L11.87,18 L13.958,18 Z M21.482,18.216 C22.034,18.216 22.565,18.114 23.075,17.91 C23.585,17.706 24.032,17.406 24.416,17.01 C24.8,16.614 25.109,16.128 25.343,15.552 C25.577,14.976 25.694,14.322 25.694,13.59 C25.694,12.858 25.577,12.204 25.343,11.628 C25.109,11.052 24.8,10.566 24.416,10.17 C24.032,9.774 23.585,9.471 23.075,9.261 C22.565,9.051 22.034,8.946 21.482,8.946 C20.93,8.946 20.402,9.051 19.898,9.261 C19.394,9.471 18.947,9.774 18.557,10.17 C18.167,10.566 17.858,11.052 17.63,11.628 C17.402,12.204 17.288,12.858 17.288,13.59 C17.288,14.322 17.402,14.976 17.63,15.552 C17.858,16.128 18.167,16.614 18.557,17.01 C18.947,17.406 19.394,17.706 19.898,17.91 C20.402,18.114 20.93,18.216 21.482,18.216 Z M21.482,16.524 C20.834,16.524 20.327,16.257 19.961,15.723 C19.595,15.189 19.412,14.478 19.412,13.59 C19.412,12.69 19.595,11.973 19.961,11.439 C20.327,10.905 20.834,10.638 21.482,10.638 C22.13,10.638 22.64,10.905 23.012,11.439 C23.384,11.973 23.57,12.69 23.57,13.59 C23.57,14.478 23.384,15.189 23.012,15.723 C22.64,16.257 22.13,16.524 21.482,16.524 Z M30.464,18.216 C30.812,18.216 31.139,18.183 31.445,18.117 C31.751,18.051 32.024,17.976 32.264,17.892 L32.264,17.892 L31.904,16.362 C31.772,16.422 31.625,16.47 31.463,16.506 C31.301,16.542 31.142,16.56 30.986,16.56 C30.158,16.56 29.744,16.044 29.744,15.012 L29.744,15.012 L29.744,10.8 L31.994,10.8 L31.994,9.162 L29.744,9.162 L29.744,6.75 L28.016,6.75 L27.764,9.162 L26.396,9.252 L26.396,10.8 L27.656,10.8 L27.656,15.012 C27.656,15.492 27.707,15.927 27.809,16.317 C27.911,16.707 28.073,17.043 28.295,17.325 C28.517,17.607 28.805,17.826 29.159,17.982 C29.513,18.138 29.948,18.216 30.464,18.216 Z M35.612,18.216 C36.14,18.216 36.629,18.102 37.079,17.874 C37.529,17.646 37.952,17.364 38.348,17.028 L38.348,17.028 L38.42,17.028 L38.564,18 L40.274,18 L40.274,12.762 C40.274,11.526 40.001,10.581 39.455,9.927 C38.909,9.273 38.084,8.946 36.98,8.946 C36.272,8.946 35.612,9.06 35,9.288 C34.388,9.516 33.836,9.786 33.344,10.098 L33.344,10.098 L34.1,11.484 C34.496,11.244 34.901,11.04 35.315,10.872 C35.729,10.704 36.152,10.62 36.584,10.62 C36.884,10.62 37.136,10.665 37.34,10.755 C37.544,10.845 37.709,10.971 37.835,11.133 C37.961,11.295 38.051,11.481 38.105,11.691 C38.159,11.901 38.192,12.12 38.204,12.348 C37.292,12.444 36.509,12.582 35.855,12.762 C35.201,12.942 34.661,13.164 34.235,13.428 C33.809,13.692 33.497,14.007 33.299,14.373 C33.101,14.739 33.002,15.156 33.002,15.624 C33.002,16.404 33.242,17.031 33.722,17.505 C34.202,17.979 34.832,18.216 35.612,18.216 Z M36.278,16.596 C35.906,16.596 35.6,16.506 35.36,16.326 C35.12,16.146 35,15.858 35,15.462 C35,15.246 35.054,15.042 35.162,14.85 C35.27,14.658 35.45,14.487 35.702,14.337 C35.954,14.187 36.284,14.052 36.692,13.932 C37.1,13.812 37.604,13.716 38.204,13.644 L38.204,13.644 L38.204,15.624 C37.868,15.936 37.553,16.176 37.259,16.344 C36.965,16.512 36.638,16.596 36.278,16.596 Z M44.774,18.216 C45.23,18.216 45.596,18.156 45.872,18.036 L45.872,18.036 L45.602,16.488 C45.518,16.512 45.455,16.524 45.413,16.524 L45.413,16.524 L45.278,16.524 C45.17,16.524 45.068,16.473 44.972,16.371 C44.876,16.269 44.828,16.092 44.828,15.84 L44.828,15.84 L44.828,5.292 L42.758,5.292 L42.758,15.732 C42.758,16.5 42.908,17.106 43.208,17.55 C43.508,17.994 44.03,18.216 44.774,18.216 Z M58.688,18 L58.688,16.236 L53.504,16.236 L53.504,12.762 L57.734,12.762 L57.734,10.998 L53.504,10.998 L53.504,7.992 L58.508,7.992 L58.508,6.228 L51.416,6.228 L51.416,18 L58.688,18 Z M63.386,18.216 C63.938,18.216 64.43,18.144 64.862,18 C65.294,17.856 65.654,17.661 65.942,17.415 C66.23,17.169 66.449,16.881 66.599,16.551 C66.749,16.221 66.824,15.864 66.824,15.48 C66.824,15.072 66.749,14.721 66.599,14.427 C66.449,14.133 66.251,13.884 66.005,13.68 C65.759,13.476 65.486,13.305 65.186,13.167 C64.886,13.029 64.586,12.906 64.286,12.798 C64.046,12.714 63.815,12.63 63.593,12.546 C63.371,12.462 63.176,12.372 63.008,12.276 C62.84,12.18 62.705,12.069 62.603,11.943 C62.501,11.817 62.45,11.664 62.45,11.484 C62.45,11.208 62.555,10.977 62.765,10.791 C62.975,10.605 63.302,10.512 63.746,10.512 C64.094,10.512 64.427,10.581 64.745,10.719 C65.063,10.857 65.378,11.04 65.69,11.268 L65.69,11.268 L66.644,10.008 C66.284,9.732 65.858,9.486 65.366,9.27 C64.874,9.054 64.322,8.946 63.71,8.946 C62.714,8.946 61.928,9.192 61.352,9.684 C60.776,10.176 60.488,10.812 60.488,11.592 C60.488,11.964 60.563,12.285 60.713,12.555 C60.863,12.825 61.055,13.062 61.289,13.266 C61.523,13.47 61.79,13.644 62.09,13.788 C62.39,13.932 62.684,14.058 62.972,14.166 C63.2,14.262 63.428,14.355 63.656,14.445 C63.884,14.535 64.088,14.634 64.268,14.742 C64.448,14.85 64.592,14.973 64.7,15.111 C64.808,15.249 64.862,15.408 64.862,15.588 C64.862,15.9 64.748,16.155 64.52,16.353 C64.292,16.551 63.938,16.65 63.458,16.65 C63.002,16.65 62.579,16.563 62.189,16.389 C61.799,16.215 61.406,15.972 61.01,15.66 L61.01,15.66 L60.038,16.992 C60.47,17.34 60.983,17.631 61.577,17.865 C62.171,18.099 62.774,18.216 63.386,18.216 Z M71.432,18.216 C71.78,18.216 72.107,18.183 72.413,18.117 C72.719,18.051 72.992,17.976 73.232,17.892 L73.232,17.892 L72.872,16.362 C72.74,16.422 72.593,16.47 72.431,16.506 C72.269,16.542 72.11,16.56 71.954,16.56 C71.126,16.56 70.712,16.044 70.712,15.012 L70.712,15.012 L70.712,10.8 L72.962,10.8 L72.962,9.162 L70.712,9.162 L70.712,6.75 L68.984,6.75 L68.732,9.162 L67.364,9.252 L67.364,10.8 L68.624,10.8 L68.624,15.012 C68.624,15.492 68.675,15.927 68.777,16.317 C68.879,16.707 69.041,17.043 69.263,17.325 C69.485,17.607 69.773,17.826 70.127,17.982 C70.481,18.138 70.916,18.216 71.432,18.216 Z M75.86,7.614 C76.232,7.614 76.538,7.506 76.778,7.29 C77.018,7.074 77.138,6.792 77.138,6.444 C77.138,6.096 77.018,5.811 76.778,5.589 C76.538,5.367 76.232,5.256 75.86,5.256 C75.488,5.256 75.182,5.367 74.942,5.589 C74.702,5.811 74.582,6.096 74.582,6.444 C74.582,6.792 74.702,7.074 74.942,7.29 C75.182,7.506 75.488,7.614 75.86,7.614 Z M76.886,18 L76.886,9.162 L74.816,9.162 L74.816,18 L76.886,18 Z M81.602,18 L81.602,11.826 C82.286,11.094 82.904,10.728 83.456,10.728 C83.924,10.728 84.269,10.878 84.491,11.178 C84.713,11.478 84.824,11.994 84.824,12.726 L84.824,12.726 L84.824,18 L86.894,18 L86.894,11.826 C87.578,11.094 88.196,10.728 88.748,10.728 C89.204,10.728 89.543,10.878 89.765,11.178 C89.987,11.478 90.098,11.994 90.098,12.726 L90.098,12.726 L90.098,18 L92.186,18 L92.186,12.456 C92.186,11.328 91.964,10.461 91.52,9.855 C91.076,9.249 90.386,8.946 89.45,8.946 C88.886,8.946 88.376,9.096 87.92,9.396 C87.464,9.696 87.026,10.074 86.606,10.53 C86.402,10.026 86.105,9.636 85.715,9.36 C85.325,9.084 84.806,8.946 84.158,8.946 C83.606,8.946 83.111,9.084 82.673,9.36 C82.235,9.636 81.83,9.972 81.458,10.368 L81.458,10.368 L81.386,10.368 L81.242,9.162 L79.532,9.162 L79.532,18 L81.602,18 Z M96.848,18.216 C97.376,18.216 97.865,18.102 98.315,17.874 C98.765,17.646 99.188,17.364 99.584,17.028 L99.584,17.028 L99.656,17.028 L99.8,18 L101.51,18 L101.51,12.762 C101.51,11.526 101.237,10.581 100.691,9.927 C100.145,9.273 99.32,8.946 98.216,8.946 C97.508,8.946 96.848,9.06 96.236,9.288 C95.624,9.516 95.072,9.786 94.58,10.098 L94.58,10.098 L95.336,11.484 C95.732,11.244 96.137,11.04 96.551,10.872 C96.965,10.704 97.388,10.62 97.82,10.62 C98.12,10.62 98.372,10.665 98.576,10.755 C98.78,10.845 98.945,10.971 99.071,11.133 C99.197,11.295 99.287,11.481 99.341,11.691 C99.395,11.901 99.428,12.12 99.44,12.348 C98.528,12.444 97.745,12.582 97.091,12.762 C96.437,12.942 95.897,13.164 95.471,13.428 C95.045,13.692 94.733,14.007 94.535,14.373 C94.337,14.739 94.238,15.156 94.238,15.624 C94.238,16.404 94.478,17.031 94.958,17.505 C95.438,17.979 96.068,18.216 96.848,18.216 Z M97.514,16.596 C97.142,16.596 96.836,16.506 96.596,16.326 C96.356,16.146 96.236,15.858 96.236,15.462 C96.236,15.246 96.29,15.042 96.398,14.85 C96.506,14.658 96.686,14.487 96.938,14.337 C97.19,14.187 97.52,14.052 97.928,13.932 C98.336,13.812 98.84,13.716 99.44,13.644 L99.44,13.644 L99.44,15.624 C99.104,15.936 98.789,16.176 98.495,16.344 C98.201,16.512 97.874,16.596 97.514,16.596 Z M106.82,18.216 C107.168,18.216 107.495,18.183 107.801,18.117 C108.107,18.051 108.38,17.976 108.62,17.892 L108.62,17.892 L108.26,16.362 C108.128,16.422 107.981,16.47 107.819,16.506 C107.657,16.542 107.498,16.56 107.342,16.56 C106.514,16.56 106.1,16.044 106.1,15.012 L106.1,15.012 L106.1,10.8 L108.35,10.8 L108.35,9.162 L106.1,9.162 L106.1,6.75 L104.372,6.75 L104.12,9.162 L102.752,9.252 L102.752,10.8 L104.012,10.8 L104.012,15.012 C104.012,15.492 104.063,15.927 104.165,16.317 C104.267,16.707 104.429,17.043 104.651,17.325 C104.873,17.607 105.161,17.826 105.515,17.982 C105.869,18.138 106.304,18.216 106.82,18.216 Z M113.696,18.216 C114.26,18.216 114.8,18.126 115.316,17.946 C115.832,17.766 116.3,17.538 116.72,17.262 L116.72,17.262 L116.018,15.966 C115.694,16.17 115.367,16.329 115.037,16.443 C114.707,16.557 114.35,16.614 113.966,16.614 C113.246,16.614 112.655,16.401 112.193,15.975 C111.731,15.549 111.452,14.94 111.356,14.148 L111.356,14.148 L116.972,14.148 C116.996,14.04 117.017,13.896 117.035,13.716 C117.053,13.536 117.062,13.344 117.062,13.14 C117.062,12.528 116.984,11.964 116.828,11.448 C116.672,10.932 116.441,10.488 116.135,10.116 C115.829,9.744 115.448,9.456 114.992,9.252 C114.536,9.048 114.008,8.946 113.408,8.946 C112.892,8.946 112.388,9.054 111.896,9.27 C111.404,9.486 110.969,9.792 110.591,10.188 C110.213,10.584 109.91,11.07 109.682,11.646 C109.454,12.222 109.34,12.87 109.34,13.59 C109.34,14.322 109.451,14.973 109.673,15.543 C109.895,16.113 110.204,16.596 110.6,16.992 C110.996,17.388 111.458,17.691 111.986,17.901 C112.514,18.111 113.084,18.216 113.696,18.216 Z M115.262,12.744 L111.338,12.744 C111.434,12.024 111.68,11.478 112.076,11.106 C112.472,10.734 112.934,10.548 113.462,10.548 C114.074,10.548 114.527,10.743 114.821,11.133 C115.115,11.523 115.262,12.06 115.262,12.744 L115.262,12.744 Z M122.138,18.216 C122.618,18.216 123.074,18.102 123.506,17.874 C123.938,17.646 124.316,17.37 124.64,17.046 L124.64,17.046 L124.712,17.046 L124.856,18 L126.566,18 L126.566,5.292 L124.496,5.292 L124.496,8.496 L124.568,9.918 C124.22,9.618 123.872,9.381 123.524,9.207 C123.176,9.033 122.75,8.946 122.246,8.946 C121.766,8.946 121.301,9.054 120.851,9.27 C120.401,9.486 120.002,9.792 119.654,10.188 C119.306,10.584 119.027,11.07 118.817,11.646 C118.607,12.222 118.502,12.87 118.502,13.59 C118.502,15.054 118.829,16.191 119.483,17.001 C120.137,17.811 121.022,18.216 122.138,18.216 Z M122.642,16.506 C121.994,16.506 121.499,16.257 121.157,15.759 C120.815,15.261 120.644,14.532 120.644,13.572 C120.644,12.636 120.842,11.916 121.238,11.412 C121.634,10.908 122.12,10.656 122.696,10.656 C122.996,10.656 123.293,10.71 123.587,10.818 C123.881,10.926 124.184,11.118 124.496,11.394 L124.496,11.394 L124.496,15.516 C123.92,16.176 123.302,16.506 122.642,16.506 Z M137.546,18 L141.2,6.228 L139.058,6.228 L137.42,12.15 C137.24,12.822 137.075,13.458 136.925,14.058 C136.775,14.658 136.598,15.3 136.394,15.984 L136.394,15.984 L136.322,15.984 C136.118,15.3 135.941,14.658 135.791,14.058 C135.641,13.458 135.47,12.822 135.278,12.15 L135.278,12.15 L133.622,6.228 L131.408,6.228 L135.08,18 L137.546,18 Z M144.062,18.216 C144.59,18.216 145.079,18.102 145.529,17.874 C145.979,17.646 146.402,17.364 146.798,17.028 L146.798,17.028 L146.87,17.028 L147.014,18 L148.724,18 L148.724,12.762 C148.724,11.526 148.451,10.581 147.905,9.927 C147.359,9.273 146.534,8.946 145.43,8.946 C144.722,8.946 144.062,9.06 143.45,9.288 C142.838,9.516 142.286,9.786 141.794,10.098 L141.794,10.098 L142.55,11.484 C142.946,11.244 143.351,11.04 143.765,10.872 C144.179,10.704 144.602,10.62 145.034,10.62 C145.334,10.62 145.586,10.665 145.79,10.755 C145.994,10.845 146.159,10.971 146.285,11.133 C146.411,11.295 146.501,11.481 146.555,11.691 C146.609,11.901 146.642,12.12 146.654,12.348 C145.742,12.444 144.959,12.582 144.305,12.762 C143.651,12.942 143.111,13.164 142.685,13.428 C142.259,13.692 141.947,14.007 141.749,14.373 C141.551,14.739 141.452,15.156 141.452,15.624 C141.452,16.404 141.692,17.031 142.172,17.505 C142.652,17.979 143.282,18.216 144.062,18.216 Z M144.728,16.596 C144.356,16.596 144.05,16.506 143.81,16.326 C143.57,16.146 143.45,15.858 143.45,15.462 C143.45,15.246 143.504,15.042 143.612,14.85 C143.72,14.658 143.9,14.487 144.152,14.337 C144.404,14.187 144.734,14.052 145.142,13.932 C145.55,13.812 146.054,13.716 146.654,13.644 L146.654,13.644 L146.654,15.624 C146.318,15.936 146.003,16.176 145.709,16.344 C145.415,16.512 145.088,16.596 144.728,16.596 Z M153.224,18.216 C153.68,18.216 154.046,18.156 154.322,18.036 L154.322,18.036 L154.052,16.488 C153.968,16.512 153.905,16.524 153.863,16.524 L153.863,16.524 L153.728,16.524 C153.62,16.524 153.518,16.473 153.422,16.371 C153.326,16.269 153.278,16.092 153.278,15.84 L153.278,15.84 L153.278,5.292 L151.208,5.292 L151.208,15.732 C151.208,16.5 151.358,17.106 151.658,17.55 C151.958,17.994 152.48,18.216 153.224,18.216 Z M158.714,18.216 C159.326,18.216 159.857,18.078 160.307,17.802 C160.757,17.526 161.174,17.16 161.558,16.704 L161.558,16.704 L161.612,16.704 L161.774,18 L163.466,18 L163.466,9.162 L161.396,9.162 L161.396,15.21 C161.06,15.642 160.745,15.954 160.451,16.146 C160.157,16.338 159.818,16.434 159.434,16.434 C158.954,16.434 158.606,16.284 158.39,15.984 C158.174,15.684 158.066,15.168 158.066,14.436 L158.066,14.436 L158.066,9.162 L155.996,9.162 L155.996,14.706 C155.996,15.834 156.212,16.701 156.644,17.307 C157.076,17.913 157.766,18.216 158.714,18.216 Z M169.874,18.216 C170.438,18.216 170.978,18.126 171.494,17.946 C172.01,17.766 172.478,17.538 172.898,17.262 L172.898,17.262 L172.196,15.966 C171.872,16.17 171.545,16.329 171.215,16.443 C170.885,16.557 170.528,16.614 170.144,16.614 C169.424,16.614 168.833,16.401 168.371,15.975 C167.909,15.549 167.63,14.94 167.534,14.148 L167.534,14.148 L173.15,14.148 C173.174,14.04 173.195,13.896 173.213,13.716 C173.231,13.536 173.24,13.344 173.24,13.14 C173.24,12.528 173.162,11.964 173.006,11.448 C172.85,10.932 172.619,10.488 172.313,10.116 C172.007,9.744 171.626,9.456 171.17,9.252 C170.714,9.048 170.186,8.946 169.586,8.946 C169.07,8.946 168.566,9.054 168.074,9.27 C167.582,9.486 167.147,9.792 166.769,10.188 C166.391,10.584 166.088,11.07 165.86,11.646 C165.632,12.222 165.518,12.87 165.518,13.59 C165.518,14.322 165.629,14.973 165.851,15.543 C166.073,16.113 166.382,16.596 166.778,16.992 C167.174,17.388 167.636,17.691 168.164,17.901 C168.692,18.111 169.262,18.216 169.874,18.216 Z M171.44,12.744 L167.516,12.744 C167.612,12.024 167.858,11.478 168.254,11.106 C168.65,10.734 169.112,10.548 169.64,10.548 C170.252,10.548 170.705,10.743 170.999,11.133 C171.293,11.523 171.44,12.06 171.44,12.744 L171.44,12.744 Z M182.438,18.216 C182.99,18.216 183.521,18.114 184.031,17.91 C184.541,17.706 184.988,17.406 185.372,17.01 C185.756,16.614 186.065,16.128 186.299,15.552 C186.533,14.976 186.65,14.322 186.65,13.59 C186.65,12.858 186.533,12.204 186.299,11.628 C186.065,11.052 185.756,10.566 185.372,10.17 C184.988,9.774 184.541,9.471 184.031,9.261 C183.521,9.051 182.99,8.946 182.438,8.946 C181.886,8.946 181.358,9.051 180.854,9.261 C180.35,9.471 179.903,9.774 179.513,10.17 C179.123,10.566 178.814,11.052 178.586,11.628 C178.358,12.204 178.244,12.858 178.244,13.59 C178.244,14.322 178.358,14.976 178.586,15.552 C178.814,16.128 179.123,16.614 179.513,17.01 C179.903,17.406 180.35,17.706 180.854,17.91 C181.358,18.114 181.886,18.216 182.438,18.216 Z M182.438,16.524 C181.79,16.524 181.283,16.257 180.917,15.723 C180.551,15.189 180.368,14.478 180.368,13.59 C180.368,12.69 180.551,11.973 180.917,11.439 C181.283,10.905 181.79,10.638 182.438,10.638 C183.086,10.638 183.596,10.905 183.968,11.439 C184.34,11.973 184.526,12.69 184.526,13.59 C184.526,14.478 184.34,15.189 183.968,15.723 C183.596,16.257 183.086,16.524 182.438,16.524 Z M191.06,18 L191.06,10.8 L192.788,10.8 L192.788,9.162 L191.06,9.162 L191.06,8.208 C191.06,7.212 191.432,6.714 192.176,6.714 C192.5,6.714 192.824,6.786 193.148,6.93 L193.148,6.93 L193.544,5.382 C193.34,5.298 193.097,5.226 192.815,5.166 C192.533,5.106 192.236,5.076 191.924,5.076 C191.396,5.076 190.949,5.154 190.583,5.31 C190.217,5.466 189.914,5.685 189.674,5.967 C189.434,6.249 189.26,6.585 189.152,6.975 C189.044,7.365 188.99,7.788 188.99,8.244 L188.99,8.244 L188.99,9.162 L187.802,9.252 L187.802,10.8 L188.99,10.8 L188.99,18 L191.06,18 Z M198.71,18 L199.628,14.814 L203.588,14.814 L204.506,18 L206.702,18 L202.868,6.228 L200.42,6.228 L196.586,18 L198.71,18 Z M203.12,13.176 L200.114,13.176 L200.528,11.736 C200.72,11.112 200.9,10.473 201.068,9.819 C201.236,9.165 201.404,8.508 201.572,7.848 L201.572,7.848 L201.644,7.848 C201.812,8.496 201.983,9.15 202.157,9.81 C202.331,10.47 202.514,11.112 202.706,11.736 L202.706,11.736 L203.12,13.176 Z M210.05,21.492 L210.05,18.72 L209.996,17.244 C210.356,17.556 210.728,17.796 211.112,17.964 C211.496,18.132 211.88,18.216 212.264,18.216 C212.756,18.216 213.23,18.108 213.686,17.892 C214.142,17.676 214.544,17.367 214.892,16.965 C215.24,16.563 215.519,16.065 215.729,15.471 C215.939,14.877 216.044,14.202 216.044,13.446 C216.044,12.762 215.966,12.144 215.81,11.592 C215.654,11.04 215.426,10.566 215.126,10.17 C214.826,9.774 214.463,9.471 214.037,9.261 C213.611,9.051 213.122,8.946 212.57,8.946 C212.078,8.946 211.604,9.06 211.148,9.288 C210.692,9.516 210.278,9.786 209.906,10.098 L209.906,10.098 L209.834,10.098 L209.69,9.162 L207.98,9.162 L207.98,21.492 L210.05,21.492 Z M211.832,16.506 C211.568,16.506 211.286,16.452 210.986,16.344 C210.686,16.236 210.374,16.044 210.05,15.768 L210.05,15.768 L210.05,11.646 C210.722,10.986 211.37,10.656 211.994,10.656 C212.666,10.656 213.152,10.902 213.452,11.394 C213.752,11.886 213.902,12.576 213.902,13.464 C213.902,14.472 213.704,15.231 213.308,15.741 C212.912,16.251 212.42,16.506 211.832,16.506 Z M220.202,21.492 L220.202,18.72 L220.148,17.244 C220.508,17.556 220.88,17.796 221.264,17.964 C221.648,18.132 222.032,18.216 222.416,18.216 C222.908,18.216 223.382,18.108 223.838,17.892 C224.294,17.676 224.696,17.367 225.044,16.965 C225.392,16.563 225.671,16.065 225.881,15.471 C226.091,14.877 226.196,14.202 226.196,13.446 C226.196,12.762 226.118,12.144 225.962,11.592 C225.806,11.04 225.578,10.566 225.278,10.17 C224.978,9.774 224.615,9.471 224.189,9.261 C223.763,9.051 223.274,8.946 222.722,8.946 C222.23,8.946 221.756,9.06 221.3,9.288 C220.844,9.516 220.43,9.786 220.058,10.098 L220.058,10.098 L219.986,10.098 L219.842,9.162 L218.132,9.162 L218.132,21.492 L220.202,21.492 Z M221.984,16.506 C221.72,16.506 221.438,16.452 221.138,16.344 C220.838,16.236 220.526,16.044 220.202,15.768 L220.202,15.768 L220.202,11.646 C220.874,10.986 221.522,10.656 222.146,10.656 C222.818,10.656 223.304,10.902 223.604,11.394 C223.904,11.886 224.054,12.576 224.054,13.464 C224.054,14.472 223.856,15.231 223.46,15.741 C223.064,16.251 222.572,16.506 221.984,16.506 Z M230.354,18 L230.354,12.6 C230.63,11.928 230.96,11.457 231.344,11.187 C231.728,10.917 232.094,10.782 232.442,10.782 C232.634,10.782 232.796,10.794 232.928,10.818 C233.06,10.842 233.204,10.878 233.36,10.926 L233.36,10.926 L233.72,9.126 C233.468,9.006 233.132,8.946 232.712,8.946 C232.244,8.946 231.788,9.099 231.344,9.405 C230.9,9.711 230.522,10.152 230.21,10.728 L230.21,10.728 L230.138,10.728 L229.994,9.162 L228.284,9.162 L228.284,18 L230.354,18 Z M238.436,18.216 C238.988,18.216 239.519,18.114 240.029,17.91 C240.539,17.706 240.986,17.406 241.37,17.01 C241.754,16.614 242.063,16.128 242.297,15.552 C242.531,14.976 242.648,14.322 242.648,13.59 C242.648,12.858 242.531,12.204 242.297,11.628 C242.063,11.052 241.754,10.566 241.37,10.17 C240.986,9.774 240.539,9.471 240.029,9.261 C239.519,9.051 238.988,8.946 238.436,8.946 C237.884,8.946 237.356,9.051 236.852,9.261 C236.348,9.471 235.901,9.774 235.511,10.17 C235.121,10.566 234.812,11.052 234.584,11.628 C234.356,12.204 234.242,12.858 234.242,13.59 C234.242,14.322 234.356,14.976 234.584,15.552 C234.812,16.128 235.121,16.614 235.511,17.01 C235.901,17.406 236.348,17.706 236.852,17.91 C237.356,18.114 237.884,18.216 238.436,18.216 Z M238.436,16.524 C237.788,16.524 237.281,16.257 236.915,15.723 C236.549,15.189 236.366,14.478 236.366,13.59 C236.366,12.69 236.549,11.973 236.915,11.439 C237.281,10.905 237.788,10.638 238.436,10.638 C239.084,10.638 239.594,10.905 239.966,11.439 C240.338,11.973 240.524,12.69 240.524,13.59 C240.524,14.478 240.338,15.189 239.966,15.723 C239.594,16.257 239.084,16.524 238.436,16.524 Z M246.77,21.492 L246.77,18.72 L246.716,17.244 C247.076,17.556 247.448,17.796 247.832,17.964 C248.216,18.132 248.6,18.216 248.984,18.216 C249.476,18.216 249.95,18.108 250.406,17.892 C250.862,17.676 251.264,17.367 251.612,16.965 C251.96,16.563 252.239,16.065 252.449,15.471 C252.659,14.877 252.764,14.202 252.764,13.446 C252.764,12.762 252.686,12.144 252.53,11.592 C252.374,11.04 252.146,10.566 251.846,10.17 C251.546,9.774 251.183,9.471 250.757,9.261 C250.331,9.051 249.842,8.946 249.29,8.946 C248.798,8.946 248.324,9.06 247.868,9.288 C247.412,9.516 246.998,9.786 246.626,10.098 L246.626,10.098 L246.554,10.098 L246.41,9.162 L244.7,9.162 L244.7,21.492 L246.77,21.492 Z M248.552,16.506 C248.288,16.506 248.006,16.452 247.706,16.344 C247.406,16.236 247.094,16.044 246.77,15.768 L246.77,15.768 L246.77,11.646 C247.442,10.986 248.09,10.656 248.714,10.656 C249.386,10.656 249.872,10.902 250.172,11.394 C250.472,11.886 250.622,12.576 250.622,13.464 C250.622,14.472 250.424,15.231 250.028,15.741 C249.632,16.251 249.14,16.506 248.552,16.506 Z M256.922,18 L256.922,12.6 C257.198,11.928 257.528,11.457 257.912,11.187 C258.296,10.917 258.662,10.782 259.01,10.782 C259.202,10.782 259.364,10.794 259.496,10.818 C259.628,10.842 259.772,10.878 259.928,10.926 L259.928,10.926 L260.288,9.126 C260.036,9.006 259.7,8.946 259.28,8.946 C258.812,8.946 258.356,9.099 257.912,9.405 C257.468,9.711 257.09,10.152 256.778,10.728 L256.778,10.728 L256.706,10.728 L256.562,9.162 L254.852,9.162 L254.852,18 L256.922,18 Z M262.61,7.614 C262.982,7.614 263.288,7.506 263.528,7.29 C263.768,7.074 263.888,6.792 263.888,6.444 C263.888,6.096 263.768,5.811 263.528,5.589 C263.288,5.367 262.982,5.256 262.61,5.256 C262.238,5.256 261.932,5.367 261.692,5.589 C261.452,5.811 261.332,6.096 261.332,6.444 C261.332,6.792 261.452,7.074 261.692,7.29 C261.932,7.506 262.238,7.614 262.61,7.614 Z M263.636,18 L263.636,9.162 L261.566,9.162 L261.566,18 L263.636,18 Z M268.424,18.216 C268.952,18.216 269.441,18.102 269.891,17.874 C270.341,17.646 270.764,17.364 271.16,17.028 L271.16,17.028 L271.232,17.028 L271.376,18 L273.086,18 L273.086,12.762 C273.086,11.526 272.813,10.581 272.267,9.927 C271.721,9.273 270.896,8.946 269.792,8.946 C269.084,8.946 268.424,9.06 267.812,9.288 C267.2,9.516 266.648,9.786 266.156,10.098 L266.156,10.098 L266.912,11.484 C267.308,11.244 267.713,11.04 268.127,10.872 C268.541,10.704 268.964,10.62 269.396,10.62 C269.696,10.62 269.948,10.665 270.152,10.755 C270.356,10.845 270.521,10.971 270.647,11.133 C270.773,11.295 270.863,11.481 270.917,11.691 C270.971,11.901 271.004,12.12 271.016,12.348 C270.104,12.444 269.321,12.582 268.667,12.762 C268.013,12.942 267.473,13.164 267.047,13.428 C266.621,13.692 266.309,14.007 266.111,14.373 C265.913,14.739 265.814,15.156 265.814,15.624 C265.814,16.404 266.054,17.031 266.534,17.505 C267.014,17.979 267.644,18.216 268.424,18.216 Z M269.09,16.596 C268.718,16.596 268.412,16.506 268.172,16.326 C267.932,16.146 267.812,15.858 267.812,15.462 C267.812,15.246 267.866,15.042 267.974,14.85 C268.082,14.658 268.262,14.487 268.514,14.337 C268.766,14.187 269.096,14.052 269.504,13.932 C269.912,13.812 270.416,13.716 271.016,13.644 L271.016,13.644 L271.016,15.624 C270.68,15.936 270.365,16.176 270.071,16.344 C269.777,16.512 269.45,16.596 269.09,16.596 Z M278.396,18.216 C278.744,18.216 279.071,18.183 279.377,18.117 C279.683,18.051 279.956,17.976 280.196,17.892 L280.196,17.892 L279.836,16.362 C279.704,16.422 279.557,16.47 279.395,16.506 C279.233,16.542 279.074,16.56 278.918,16.56 C278.09,16.56 277.676,16.044 277.676,15.012 L277.676,15.012 L277.676,10.8 L279.926,10.8 L279.926,9.162 L277.676,9.162 L277.676,6.75 L275.948,6.75 L275.696,9.162 L274.328,9.252 L274.328,10.8 L275.588,10.8 L275.588,15.012 C275.588,15.492 275.639,15.927 275.741,16.317 C275.843,16.707 276.005,17.043 276.227,17.325 C276.449,17.607 276.737,17.826 277.091,17.982 C277.445,18.138 277.88,18.216 278.396,18.216 Z M282.824,7.614 C283.196,7.614 283.502,7.506 283.742,7.29 C283.982,7.074 284.102,6.792 284.102,6.444 C284.102,6.096 283.982,5.811 283.742,5.589 C283.502,5.367 283.196,5.256 282.824,5.256 C282.452,5.256 282.146,5.367 281.906,5.589 C281.666,5.811 281.546,6.096 281.546,6.444 C281.546,6.792 281.666,7.074 281.906,7.29 C282.146,7.506 282.452,7.614 282.824,7.614 Z M283.85,18 L283.85,9.162 L281.78,9.162 L281.78,18 L283.85,18 Z M290.114,18.216 C290.666,18.216 291.197,18.114 291.707,17.91 C292.217,17.706 292.664,17.406 293.048,17.01 C293.432,16.614 293.741,16.128 293.975,15.552 C294.209,14.976 294.326,14.322 294.326,13.59 C294.326,12.858 294.209,12.204 293.975,11.628 C293.741,11.052 293.432,10.566 293.048,10.17 C292.664,9.774 292.217,9.471 291.707,9.261 C291.197,9.051 290.666,8.946 290.114,8.946 C289.562,8.946 289.034,9.051 288.53,9.261 C288.026,9.471 287.579,9.774 287.189,10.17 C286.799,10.566 286.49,11.052 286.262,11.628 C286.034,12.204 285.92,12.858 285.92,13.59 C285.92,14.322 286.034,14.976 286.262,15.552 C286.49,16.128 286.799,16.614 287.189,17.01 C287.579,17.406 288.026,17.706 288.53,17.91 C289.034,18.114 289.562,18.216 290.114,18.216 Z M290.114,16.524 C289.466,16.524 288.959,16.257 288.593,15.723 C288.227,15.189 288.044,14.478 288.044,13.59 C288.044,12.69 288.227,11.973 288.593,11.439 C288.959,10.905 289.466,10.638 290.114,10.638 C290.762,10.638 291.272,10.905 291.644,11.439 C292.016,11.973 292.202,12.69 292.202,13.59 C292.202,14.478 292.016,15.189 291.644,15.723 C291.272,16.257 290.762,16.524 290.114,16.524 Z M298.448,18 L298.448,11.826 C298.82,11.466 299.153,11.193 299.447,11.007 C299.741,10.821 300.08,10.728 300.464,10.728 C300.956,10.728 301.31,10.878 301.526,11.178 C301.742,11.478 301.85,11.994 301.85,12.726 L301.85,12.726 L301.85,18 L303.92,18 L303.92,12.456 C303.92,11.328 303.704,10.461 303.272,9.855 C302.84,9.249 302.15,8.946 301.202,8.946 C300.59,8.946 300.053,9.084 299.591,9.36 C299.129,9.636 298.7,9.966 298.304,10.35 L298.304,10.35 L298.232,10.35 L298.088,9.162 L296.378,9.162 L296.378,18 L298.448,18 Z M308.924,18.216 C309.476,18.216 309.968,18.144 310.4,18 C310.832,17.856 311.192,17.661 311.48,17.415 C311.768,17.169 311.987,16.881 312.137,16.551 C312.287,16.221 312.362,15.864 312.362,15.48 C312.362,15.072 312.287,14.721 312.137,14.427 C311.987,14.133 311.789,13.884 311.543,13.68 C311.297,13.476 311.024,13.305 310.724,13.167 C310.424,13.029 310.124,12.906 309.824,12.798 C309.584,12.714 309.353,12.63 309.131,12.546 C308.909,12.462 308.714,12.372 308.546,12.276 C308.378,12.18 308.243,12.069 308.141,11.943 C308.039,11.817 307.988,11.664 307.988,11.484 C307.988,11.208 308.093,10.977 308.303,10.791 C308.513,10.605 308.84,10.512 309.284,10.512 C309.632,10.512 309.965,10.581 310.283,10.719 C310.601,10.857 310.916,11.04 311.228,11.268 L311.228,11.268 L312.182,10.008 C311.822,9.732 311.396,9.486 310.904,9.27 C310.412,9.054 309.86,8.946 309.248,8.946 C308.252,8.946 307.466,9.192 306.89,9.684 C306.314,10.176 306.026,10.812 306.026,11.592 C306.026,11.964 306.101,12.285 306.251,12.555 C306.401,12.825 306.593,13.062 306.827,13.266 C307.061,13.47 307.328,13.644 307.628,13.788 C307.928,13.932 308.222,14.058 308.51,14.166 C308.738,14.262 308.966,14.355 309.194,14.445 C309.422,14.535 309.626,14.634 309.806,14.742 C309.986,14.85 310.13,14.973 310.238,15.111 C310.346,15.249 310.4,15.408 310.4,15.588 C310.4,15.9 310.286,16.155 310.058,16.353 C309.83,16.551 309.476,16.65 308.996,16.65 C308.54,16.65 308.117,16.563 307.727,16.389 C307.337,16.215 306.944,15.972 306.548,15.66 L306.548,15.66 L305.576,16.992 C306.008,17.34 306.521,17.631 307.115,17.865 C307.709,18.099 308.312,18.216 308.924,18.216 Z M325.466,19.98 L325.466,18.126 C326.366,17.958 327.056,17.583 327.536,17.001 C328.016,16.419 328.256,15.696 328.256,14.832 C328.256,14.232 328.136,13.731 327.896,13.329 C327.656,12.927 327.353,12.588 326.987,12.312 C326.621,12.036 326.228,11.799 325.808,11.601 C325.388,11.403 324.995,11.205 324.629,11.007 C324.263,10.809 323.96,10.593 323.72,10.359 C323.48,10.125 323.36,9.828 323.36,9.468 C323.36,9 323.498,8.643 323.774,8.397 C324.05,8.151 324.434,8.028 324.926,8.028 C325.358,8.028 325.73,8.109 326.042,8.271 C326.354,8.433 326.678,8.67 327.014,8.982 L327.014,8.982 L328.076,7.776 C327.74,7.428 327.365,7.125 326.951,6.867 C326.537,6.609 326.042,6.444 325.466,6.372 L325.466,6.372 L325.466,4.572 L324.026,4.572 L324.026,6.408 C323.21,6.552 322.562,6.903 322.082,7.461 C321.602,8.019 321.362,8.718 321.362,9.558 C321.362,10.122 321.482,10.593 321.722,10.971 C321.962,11.349 322.265,11.673 322.631,11.943 C322.997,12.213 323.39,12.447 323.81,12.645 C324.23,12.843 324.623,13.05 324.989,13.266 C325.355,13.482 325.658,13.722 325.898,13.986 C326.138,14.25 326.258,14.58 326.258,14.976 C326.258,15.468 326.114,15.849 325.826,16.119 C325.538,16.389 325.1,16.524 324.512,16.524 C324.02,16.524 323.558,16.422 323.126,16.218 C322.694,16.014 322.268,15.744 321.848,15.408 L321.848,15.408 L320.912,16.812 C321.32,17.196 321.803,17.505 322.361,17.739 C322.919,17.973 323.474,18.12 324.026,18.18 L324.026,18.18 L324.026,19.98 L325.466,19.98 Z M333.656,18.216 C334.208,18.216 334.727,18.141 335.213,17.991 C335.699,17.841 336.125,17.625 336.491,17.343 C336.857,17.061 337.145,16.716 337.355,16.308 C337.565,15.9 337.67,15.432 337.67,14.904 C337.67,14.148 337.445,13.53 336.995,13.05 C336.545,12.57 335.978,12.24 335.294,12.06 L335.294,12.06 L335.294,11.988 C335.918,11.748 336.407,11.412 336.761,10.98 C337.115,10.548 337.292,10.008 337.292,9.36 C337.292,8.88 337.202,8.451 337.022,8.073 C336.842,7.695 336.59,7.377 336.266,7.119 C335.942,6.861 335.552,6.666 335.096,6.534 C334.64,6.402 334.136,6.336 333.584,6.336 C332.9,6.336 332.279,6.468 331.721,6.732 C331.163,6.996 330.638,7.344 330.146,7.776 L330.146,7.776 L331.208,9.054 C331.556,8.73 331.913,8.469 332.279,8.271 C332.645,8.073 333.056,7.974 333.512,7.974 C334.04,7.974 334.454,8.109 334.754,8.379 C335.054,8.649 335.204,9.024 335.204,9.504 C335.204,9.768 335.153,10.014 335.051,10.242 C334.949,10.47 334.781,10.665 334.547,10.827 C334.313,10.989 334.007,11.115 333.629,11.205 C333.251,11.295 332.78,11.34 332.216,11.34 L332.216,11.34 L332.216,12.852 C332.864,12.852 333.404,12.897 333.836,12.987 C334.268,13.077 334.613,13.206 334.871,13.374 C335.129,13.542 335.312,13.746 335.42,13.986 C335.528,14.226 335.582,14.496 335.582,14.796 C335.582,15.336 335.387,15.759 334.997,16.065 C334.607,16.371 334.1,16.524 333.476,16.524 C332.9,16.524 332.39,16.401 331.946,16.155 C331.502,15.909 331.106,15.612 330.758,15.264 L330.758,15.264 L329.768,16.596 C330.176,17.052 330.692,17.436 331.316,17.748 C331.94,18.06 332.72,18.216 333.656,18.216 Z M341.054,18.216 C341.438,18.216 341.756,18.084 342.008,17.82 C342.26,17.556 342.386,17.22 342.386,16.812 C342.386,16.404 342.26,16.068 342.008,15.804 C341.756,15.54 341.438,15.408 341.054,15.408 C340.67,15.408 340.349,15.54 340.091,15.804 C339.833,16.068 339.704,16.404 339.704,16.812 C339.704,17.22 339.833,17.556 340.091,17.82 C340.349,18.084 340.67,18.216 341.054,18.216 Z M350.846,18 L350.846,15.048 L352.286,15.048 L352.286,13.446 L350.846,13.446 L350.846,6.552 L348.38,6.552 L343.844,13.644 L343.844,15.048 L348.902,15.048 L348.902,18 L350.846,18 Z M348.902,13.446 L345.896,13.446 L347.984,10.26 C348.152,9.948 348.314,9.648 348.47,9.36 C348.626,9.072 348.776,8.778 348.92,8.478 L348.92,8.478 L348.992,8.478 C348.968,8.814 348.947,9.21 348.929,9.666 C348.911,10.122 348.902,10.518 348.902,10.854 L348.902,10.854 L348.902,13.446 Z M357.38,18.216 C357.956,18.216 358.484,18.138 358.964,17.982 C359.444,17.826 359.852,17.607 360.188,17.325 C360.524,17.043 360.785,16.713 360.971,16.335 C361.157,15.957 361.25,15.546 361.25,15.102 C361.25,14.718 361.196,14.376 361.088,14.076 C360.98,13.776 360.836,13.506 360.656,13.266 C360.476,13.026 360.266,12.813 360.026,12.627 C359.786,12.441 359.534,12.276 359.27,12.132 L359.27,12.132 L359.27,12.06 C359.45,11.928 359.633,11.769 359.819,11.583 C360.005,11.397 360.17,11.193 360.314,10.971 C360.458,10.749 360.575,10.509 360.665,10.251 C360.755,9.993 360.8,9.72 360.8,9.432 C360.8,8.964 360.722,8.541 360.566,8.163 C360.41,7.785 360.185,7.461 359.891,7.191 C359.597,6.921 359.243,6.711 358.829,6.561 C358.415,6.411 357.95,6.336 357.434,6.336 C356.942,6.336 356.483,6.408 356.057,6.552 C355.631,6.696 355.265,6.9 354.959,7.164 C354.653,7.428 354.413,7.746 354.239,8.118 C354.065,8.49 353.978,8.91 353.978,9.378 C353.978,9.99 354.131,10.512 354.437,10.944 C354.743,11.376 355.118,11.748 355.562,12.06 L355.562,12.06 L355.562,12.132 C355.286,12.276 355.025,12.444 354.779,12.636 C354.533,12.828 354.314,13.044 354.122,13.284 C353.93,13.524 353.777,13.791 353.663,14.085 C353.549,14.379 353.492,14.706 353.492,15.066 C353.492,15.534 353.591,15.96 353.789,16.344 C353.987,16.728 354.257,17.058 354.599,17.334 C354.941,17.61 355.349,17.826 355.823,17.982 C356.297,18.138 356.816,18.216 357.38,18.216 Z M358.136,11.538 C357.812,11.418 357.512,11.289 357.236,11.151 C356.96,11.013 356.717,10.863 356.507,10.701 C356.297,10.539 356.132,10.35 356.012,10.134 C355.892,9.918 355.832,9.666 355.832,9.378 C355.832,8.874 355.982,8.487 356.282,8.217 C356.582,7.947 356.954,7.812 357.398,7.812 C357.938,7.812 358.355,7.977 358.649,8.307 C358.943,8.637 359.09,9.054 359.09,9.558 C359.09,9.918 359.009,10.26 358.847,10.584 C358.685,10.908 358.448,11.226 358.136,11.538 Z M357.416,16.74 C356.828,16.74 356.33,16.569 355.922,16.227 C355.514,15.885 355.31,15.426 355.31,14.85 C355.31,14.406 355.427,14.004 355.661,13.644 C355.895,13.284 356.192,12.972 356.552,12.708 C356.936,12.864 357.296,13.014 357.632,13.158 C357.968,13.302 358.259,13.461 358.505,13.635 C358.751,13.809 358.946,14.007 359.09,14.229 C359.234,14.451 359.306,14.718 359.306,15.03 C359.306,15.57 359.129,15.99 358.775,16.29 C358.421,16.59 357.968,16.74 357.416,16.74 Z M371.546,18 L371.546,7.992 L374.948,7.992 L374.948,6.228 L366.056,6.228 L366.056,7.992 L369.458,7.992 L369.458,18 L371.546,18 Z" id="TotalEstimatedValueofAppropriations$3.48T" fill="#666666" fill-rule="nonzero"></path>
                <path d="M1,104 L1,40 L382,40 L382,104" id="Path-21" stroke="#D8D8D8" stroke-dasharray="3,3"></path>
                <polyline id="Path-21-Copy" stroke="#979797" stroke-width="0.5" points="1 107 1 99 279 99 279 107"></polyline>
                <line x1="383" y1="127.56981" x2="389" y2="127.43019" id="Line-14-Copy-2" stroke="#979797" stroke-width="0.5" stroke-linecap="square"></line>
                <path d="M395.72,117 L395.72,109.968 L398.096,109.968 L398.096,109.128 L392.336,109.128 L392.336,109.968 L394.712,109.968 L394.712,117 L395.72,117 Z M399.008,117 L399.764,114.6 L402.632,114.6 L403.376,117 L404.444,117 L401.78,109.128 L400.652,109.128 L397.988,117 L399.008,117 Z M402.38,113.796 L400.016,113.796 L400.388,112.596 C400.532,112.156 400.668,111.718 400.796,111.282 C400.924,110.846 401.048,110.4 401.168,109.944 L401.168,109.944 L401.216,109.944 C401.344,110.4 401.472,110.846 401.6,111.282 C401.728,111.718 401.864,112.156 402.008,112.596 L402.008,112.596 L402.38,113.796 Z M405.764,117 L406.904,114.876 C407,114.684 407.1,114.486 407.204,114.282 C407.308,114.078 407.416,113.856 407.528,113.616 L407.528,113.616 L407.576,113.616 C407.704,113.856 407.822,114.078 407.93,114.282 C408.038,114.486 408.144,114.684 408.248,114.876 L408.248,114.876 L409.4,117 L410.504,117 L408.212,112.98 L410.36,109.128 L409.304,109.128 L408.26,111.144 C408.164,111.328 408.074,111.506 407.99,111.678 C407.906,111.85 407.808,112.052 407.696,112.284 L407.696,112.284 L407.648,112.284 C407.528,112.052 407.422,111.85 407.33,111.678 C407.238,111.506 407.14,111.328 407.036,111.144 L407.036,111.144 L405.968,109.128 L404.864,109.128 L407,112.932 L404.708,117 L405.764,117 Z M394.076,132 L394.076,128.676 L395.504,128.676 L397.4,132 L398.528,132 L396.524,128.568 C397.068,128.432 397.5,128.18 397.82,127.812 C398.14,127.444 398.3,126.952 398.3,126.336 C398.3,125.928 398.232,125.584 398.096,125.304 C397.96,125.024 397.77,124.796 397.526,124.62 C397.282,124.444 396.99,124.318 396.65,124.242 C396.31,124.166 395.94,124.128 395.54,124.128 L395.54,124.128 L393.08,124.128 L393.08,132 L394.076,132 Z M395.396,127.86 L394.076,127.86 L394.076,124.932 L395.396,124.932 C396.012,124.932 396.484,125.036 396.812,125.244 C397.14,125.452 397.304,125.816 397.304,126.336 C397.304,126.848 397.14,127.23 396.812,127.482 C396.484,127.734 396.012,127.86 395.396,127.86 L395.396,127.86 Z M404.564,132 L404.564,131.148 L400.904,131.148 L400.904,128.292 L403.892,128.292 L403.892,127.44 L400.904,127.44 L400.904,124.968 L404.444,124.968 L404.444,124.128 L399.908,124.128 L399.908,132 L404.564,132 Z M410.672,132 L410.672,131.148 L407.228,131.148 L407.228,124.128 L406.232,124.128 L406.232,132 L410.672,132 Z M413.06,132 L413.06,124.128 L412.064,124.128 L412.064,132 L413.06,132 Z M419.876,132 L419.876,131.148 L416.216,131.148 L416.216,128.292 L419.204,128.292 L419.204,127.44 L416.216,127.44 L416.216,124.968 L419.756,124.968 L419.756,124.128 L415.22,124.128 L415.22,132 L419.876,132 Z M422.54,132 L422.54,128.472 L425.54,128.472 L425.54,127.632 L422.54,127.632 L422.54,124.968 L426.08,124.968 L426.08,124.128 L421.544,124.128 L421.544,132 L422.54,132 Z M395.744,148.32 L395.744,147.072 C396.368,146.936 396.836,146.662 397.148,146.25 C397.46,145.838 397.616,145.344 397.616,144.768 C397.616,144.384 397.538,144.062 397.382,143.802 C397.226,143.542 397.03,143.32 396.794,143.136 C396.558,142.952 396.304,142.796 396.032,142.668 C395.76,142.54 395.506,142.416 395.27,142.296 C395.034,142.176 394.838,142.05 394.682,141.918 C394.526,141.786 394.448,141.624 394.448,141.432 C394.448,141.16 394.524,140.964 394.676,140.844 C394.828,140.724 395.048,140.664 395.336,140.664 C395.592,140.664 395.82,140.714 396.02,140.814 C396.22,140.914 396.428,141.064 396.644,141.264 L396.644,141.264 L397.532,140.256 C397.3,140.008 397.04,139.796 396.752,139.62 C396.464,139.444 396.128,139.328 395.744,139.272 L395.744,139.272 L395.744,138.06 L394.58,138.06 L394.58,139.296 C394.012,139.408 393.566,139.658 393.242,140.046 C392.918,140.434 392.756,140.924 392.756,141.516 C392.756,141.876 392.834,142.18 392.99,142.428 C393.146,142.676 393.342,142.892 393.578,143.076 C393.814,143.26 394.068,143.418 394.34,143.55 C394.612,143.682 394.866,143.814 395.102,143.946 C395.338,144.078 395.534,144.216 395.69,144.36 C395.846,144.504 395.924,144.68 395.924,144.888 C395.924,145.168 395.846,145.376 395.69,145.512 C395.534,145.648 395.288,145.716 394.952,145.716 C394.664,145.716 394.382,145.658 394.106,145.542 C393.83,145.426 393.54,145.252 393.236,145.02 L393.236,145.02 L392.468,146.208 C392.748,146.464 393.082,146.67 393.47,146.826 C393.858,146.982 394.228,147.08 394.58,147.12 L394.58,147.12 L394.58,148.32 L395.744,148.32 Z M401.084,147.144 C401.484,147.144 401.87,147.062 402.242,146.898 C402.614,146.734 402.942,146.484 403.226,146.148 C403.51,145.812 403.738,145.384 403.91,144.864 C404.082,144.344 404.168,143.728 404.168,143.016 C404.168,142.344 404.086,141.77 403.922,141.294 C403.758,140.818 403.542,140.428 403.274,140.124 C403.006,139.82 402.698,139.596 402.35,139.452 C402.002,139.308 401.644,139.236 401.276,139.236 C400.932,139.236 400.606,139.294 400.298,139.41 C399.99,139.526 399.722,139.696 399.494,139.92 C399.266,140.144 399.084,140.414 398.948,140.73 C398.812,141.046 398.744,141.4 398.744,141.792 C398.744,142.192 398.802,142.54 398.918,142.836 C399.034,143.132 399.192,143.376 399.392,143.568 C399.592,143.76 399.83,143.904 400.106,144 C400.382,144.096 400.684,144.144 401.012,144.144 C401.132,144.144 401.26,144.126 401.396,144.09 C401.532,144.054 401.668,144.002 401.804,143.934 C401.94,143.866 402.072,143.782 402.2,143.682 C402.328,143.582 402.44,143.468 402.536,143.34 C402.52,143.788 402.47,144.162 402.386,144.462 C402.302,144.762 402.19,145.006 402.05,145.194 C401.91,145.382 401.748,145.516 401.564,145.596 C401.38,145.676 401.18,145.716 400.964,145.716 C400.74,145.716 400.52,145.662 400.304,145.554 C400.088,145.446 399.916,145.32 399.788,145.176 L399.788,145.176 L398.852,146.232 C399.092,146.472 399.398,146.684 399.77,146.868 C400.142,147.052 400.58,147.144 401.084,147.144 Z M401.36,142.896 C401.072,142.896 400.832,142.814 400.64,142.65 C400.448,142.486 400.352,142.2 400.352,141.792 C400.352,141.36 400.448,141.046 400.64,140.85 C400.832,140.654 401.056,140.556 401.312,140.556 C401.584,140.556 401.83,140.67 402.05,140.898 C402.27,141.126 402.42,141.54 402.5,142.14 C402.348,142.412 402.17,142.606 401.966,142.722 C401.762,142.838 401.56,142.896 401.36,142.896 Z M407.84,147.144 C408.248,147.144 408.62,147.058 408.956,146.886 C409.292,146.714 409.578,146.46 409.814,146.124 C410.05,145.788 410.234,145.372 410.366,144.876 C410.498,144.38 410.564,143.808 410.564,143.16 C410.564,142.512 410.498,141.944 410.366,141.456 C410.234,140.968 410.05,140.558 409.814,140.226 C409.578,139.894 409.292,139.646 408.956,139.482 C408.62,139.318 408.248,139.236 407.84,139.236 C407.432,139.236 407.06,139.318 406.724,139.482 C406.388,139.646 406.102,139.894 405.866,140.226 C405.63,140.558 405.446,140.968 405.314,141.456 C405.182,141.944 405.116,142.512 405.116,143.16 C405.116,143.808 405.182,144.38 405.314,144.876 C405.446,145.372 405.63,145.788 405.866,146.124 C406.102,146.46 406.388,146.714 406.724,146.886 C407.06,147.058 407.432,147.144 407.84,147.144 Z M407.84,145.776 C407.696,145.776 407.56,145.738 407.432,145.662 C407.304,145.586 407.192,145.448 407.096,145.248 C407,145.048 406.924,144.78 406.868,144.444 C406.812,144.108 406.784,143.68 406.784,143.16 C406.784,142.64 406.812,142.214 406.868,141.882 C406.924,141.55 407,141.29 407.096,141.102 C407.192,140.914 407.304,140.784 407.432,140.712 C407.56,140.64 407.696,140.604 407.84,140.604 C407.992,140.604 408.132,140.64 408.26,140.712 C408.388,140.784 408.5,140.914 408.596,141.102 C408.692,141.29 408.766,141.55 408.818,141.882 C408.87,142.214 408.896,142.64 408.896,143.16 C408.896,143.68 408.87,144.108 408.818,144.444 C408.766,144.78 408.692,145.048 408.596,145.248 C408.5,145.448 408.388,145.586 408.26,145.662 C408.132,145.738 407.992,145.776 407.84,145.776 Z M416.816,147 L416.816,145.512 L415.28,145.512 C415.096,145.512 414.886,145.522 414.65,145.542 C414.414,145.562 414.2,145.584 414.008,145.608 C414.32,145.288 414.622,144.962 414.914,144.63 C415.206,144.298 415.466,143.966 415.694,143.634 C415.922,143.302 416.104,142.97 416.24,142.638 C416.376,142.306 416.444,141.98 416.444,141.66 C416.444,141.292 416.384,140.96 416.264,140.664 C416.144,140.368 415.972,140.114 415.748,139.902 C415.524,139.69 415.258,139.526 414.95,139.41 C414.642,139.294 414.3,139.236 413.924,139.236 C413.38,139.236 412.912,139.338 412.52,139.542 C412.128,139.746 411.744,140.048 411.368,140.448 L411.368,140.448 L412.328,141.396 C412.52,141.188 412.724,141.006 412.94,140.85 C413.156,140.694 413.404,140.616 413.684,140.616 C414.02,140.616 414.284,140.714 414.476,140.91 C414.668,141.106 414.764,141.392 414.764,141.768 C414.764,142.04 414.682,142.326 414.518,142.626 C414.354,142.926 414.126,143.25 413.834,143.598 C413.542,143.946 413.194,144.318 412.79,144.714 C412.386,145.11 411.94,145.536 411.452,145.992 L411.452,145.992 L411.452,147 L416.816,147 Z M423.572,147 C423.996,147 424.392,146.954 424.76,146.862 C425.128,146.77 425.45,146.63 425.726,146.442 C426.002,146.254 426.218,146.016 426.374,145.728 C426.53,145.44 426.608,145.096 426.608,144.696 C426.608,144.432 426.572,144.198 426.5,143.994 C426.428,143.79 426.328,143.612 426.2,143.46 C426.072,143.308 425.924,143.182 425.756,143.082 C425.588,142.982 425.404,142.908 425.204,142.86 L425.204,142.86 L425.204,142.812 C425.364,142.756 425.506,142.668 425.63,142.548 C425.754,142.428 425.86,142.292 425.948,142.14 C426.036,141.988 426.104,141.824 426.152,141.648 C426.2,141.472 426.224,141.296 426.224,141.12 C426.224,140.744 426.15,140.432 426.002,140.184 C425.854,139.936 425.65,139.736 425.39,139.584 C425.13,139.432 424.826,139.326 424.478,139.266 C424.13,139.206 423.752,139.176 423.344,139.176 L423.344,139.176 L420.668,139.176 L420.668,147 L423.572,147 Z M423.26,142.308 L422.432,142.308 L422.432,140.544 L423.272,140.544 C423.688,140.544 423.996,140.608 424.196,140.736 C424.396,140.864 424.496,141.08 424.496,141.384 C424.496,141.664 424.398,141.888 424.202,142.056 C424.006,142.224 423.692,142.308 423.26,142.308 L423.26,142.308 Z M423.428,145.632 L422.432,145.632 L422.432,143.616 L423.428,143.616 C423.916,143.616 424.28,143.69 424.52,143.838 C424.76,143.986 424.88,144.232 424.88,144.576 C424.88,145.28 424.396,145.632 423.428,145.632 L423.428,145.632 Z" id="TAXRELIEF$902B" fill="#666666" fill-rule="nonzero"></path>
                <g id="Purple-Bar" transform="translate(0.000000, 107.000000)" fill="#6F41A7">
                    <rect id="Rectangle" x="225.543307" y="0" width="53.4566929" height="40"></rect>
                    <rect id="Rectangle-Copy-13" x="5.12598425" y="0" width="218.952756" height="40"></rect>
                    <rect id="Rectangle-Copy-14" x="2.19685039" y="0" width="1.46456693" height="40"></rect>
                    <rect id="Rectangle-Copy-17" x="0" y="0" width="1" height="40"></rect>
                </g>
                <use id="Gray-Bar" stroke="#979797" mask="url(#mask-2)" stroke-width="2" fill="#D8D8D8" opacity="0.776204427" stroke-linecap="round" stroke-linejoin="round" stroke-dasharray="4,3" transform="translate(333.000000, 127.500000) rotate(90.000000) translate(-333.000000, -127.500000) " xlink:href="#path-1"></use>
                <line x1="192.5" y1="38.5" x2="192.5" y2="26.5" id="Line-14" stroke="#D8D8D8" stroke-linecap="round" stroke-linejoin="round" stroke-dasharray="3,3"></line>
                <line x1="139.5" y1="98" x2="139.5" y2="90" id="Line-14-Copy" stroke="#979797" stroke-width="0.5" stroke-linecap="square"></line>
            </g>
        </g>
    </g>
</svg>