<?xml version="1.0" encoding="UTF-8"?>
<svg width="299px" height="131px" viewBox="0 0 299 131" version="1.1" xmlns="http://www.w3.org/2000/svg" xmlns:xlink="http://www.w3.org/1999/xlink">
    <title>Viz-1-C-Mobile</title>
    <g id="SVG-2.0" stroke="none" stroke-width="1" fill="none" fill-rule="evenodd">
        <g id="360-outline" transform="translate(-15.000000, -583.000000)">
            <g id="Viz-1-C-Mobile" transform="translate(16.000000, 583.000000)">
                <path d="M49.512,11.968 L49.512,2.592 L52.68,2.592 L52.68,1.472 L45,1.472 L45,2.592 L48.168,2.592 L48.168,11.968 L49.512,11.968 Z M56.408,12.16 C56.888,12.16 57.344,12.0693333 57.776,11.888 C58.208,11.7066667 58.5893333,11.4426667 58.92,11.096 C59.2506667,10.7493333 59.5146667,10.3226667 59.712,9.816 C59.9093333,9.30933333 60.008,8.736 60.008,8.096 C60.008,7.44533333 59.9093333,6.86666667 59.712,6.36 C59.5146667,5.85333333 59.2506667,5.424 58.92,5.072 C58.5893333,4.72 58.208,4.45333333 57.776,4.272 C57.344,4.09066667 56.888,4 56.408,4 C55.928,4 55.472,4.09066667 55.04,4.272 C54.608,4.45333333 54.2266667,4.72 53.896,5.072 C53.5653333,5.424 53.3013333,5.85333333 53.104,6.36 C52.9066667,6.86666667 52.808,7.44533333 52.808,8.096 C52.808,8.736 52.9066667,9.30933333 53.104,9.816 C53.3013333,10.3226667 53.5653333,10.7493333 53.896,11.096 C54.2266667,11.4426667 54.608,11.7066667 55.04,11.888 C55.472,12.0693333 55.928,12.16 56.408,12.16 Z M56.408,11.072 C56.0773333,11.072 55.7733333,11 55.496,10.856 C55.2186667,10.712 54.9813333,10.5093333 54.784,10.248 C54.5866667,9.98666667 54.4346667,9.67466667 54.328,9.312 C54.2213333,8.94933333 54.168,8.544 54.168,8.096 C54.168,7.648 54.2213333,7.24 54.328,6.872 C54.4346667,6.504 54.5866667,6.18666667 54.784,5.92 C54.9813333,5.65333333 55.2186667,5.448 55.496,5.304 C55.7733333,5.16 56.0773333,5.088 56.408,5.088 C56.7386667,5.088 57.0426667,5.16 57.32,5.304 C57.5973333,5.448 57.8346667,5.65333333 58.032,5.92 C58.2293333,6.18666667 58.3813333,6.504 58.488,6.872 C58.5946667,7.24 58.648,7.648 58.648,8.096 C58.648,8.544 58.5946667,8.94933333 58.488,9.312 C58.3813333,9.67466667 58.2293333,9.98666667 58.032,10.248 C57.8346667,10.5093333 57.5973333,10.712 57.32,10.856 C57.0426667,11 56.7386667,11.072 56.408,11.072 Z M64.232,12.16 C64.4773333,12.16 64.7253333,12.1306667 64.976,12.072 C65.2266667,12.0133333 65.4586667,11.9466667 65.672,11.872 L65.672,11.872 L65.416,10.88 C65.288,10.9333333 65.144,10.9813333 64.984,11.024 C64.824,11.0666667 64.6746667,11.088 64.536,11.088 C64.088,11.088 63.776,10.9573333 63.6,10.696 C63.424,10.4346667 63.336,10.064 63.336,9.584 L63.336,9.584 L63.336,5.264 L65.432,5.264 L65.432,4.192 L63.336,4.192 L63.336,2.016 L62.232,2.016 L62.072,4.192 L60.856,4.272 L60.856,5.264 L62.008,5.264 L62.008,9.568 C62.008,9.952 62.0453333,10.304 62.12,10.624 C62.1946667,10.944 62.32,11.216 62.496,11.44 C62.672,11.664 62.9013333,11.84 63.184,11.968 C63.4666667,12.096 63.816,12.16 64.232,12.16 Z M68.648,12.16 C69.1386667,12.16 69.5973333,12.0506667 70.024,11.832 C70.4506667,11.6133333 70.8506667,11.3493333 71.224,11.04 L71.224,11.04 L71.272,11.04 L71.384,11.968 L72.472,11.968 L72.472,7.2 C72.472,6.22933333 72.2586667,5.45333333 71.832,4.872 C71.4053333,4.29066667 70.7173333,4 69.768,4 C69.1386667,4 68.5626667,4.10933333 68.04,4.328 C67.5173333,4.54666667 67.0746667,4.77333333 66.712,5.008 L66.712,5.008 L67.224,5.92 C67.5333333,5.70666667 67.8853333,5.51466667 68.28,5.344 C68.6746667,5.17333333 69.096,5.088 69.544,5.088 C69.864,5.088 70.128,5.144 70.336,5.256 C70.544,5.368 70.7066667,5.51466667 70.824,5.696 C70.9413333,5.87733333 71.024,6.08533333 71.072,6.32 C71.12,6.55466667 71.144,6.79466667 71.144,7.04 C69.48,7.22133333 68.2693333,7.53866667 67.512,7.992 C66.7546667,8.44533333 66.376,9.09866667 66.376,9.952 C66.376,10.656 66.592,11.2 67.024,11.584 C67.456,11.968 67.9973333,12.16 68.648,12.16 Z M69.032,11.104 C68.648,11.104 68.3226667,11.008 68.056,10.816 C67.7893333,10.624 67.656,10.304 67.656,9.856 C67.656,9.61066667 67.7173333,9.384 67.84,9.176 C67.9626667,8.968 68.16,8.784 68.432,8.624 C68.704,8.464 69.0613333,8.32533333 69.504,8.208 C69.9466667,8.09066667 70.4933333,7.98933333 71.144,7.904 L71.144,7.904 L71.144,10.064 C70.7706667,10.4053333 70.4186667,10.664 70.088,10.84 C69.7573333,11.016 69.4053333,11.104 69.032,11.104 Z M76.312,12.16 C76.4933333,12.16 76.6426667,12.1493333 76.76,12.128 C76.8773333,12.1066667 76.9786667,12.0746667 77.064,12.032 L77.064,12.032 L76.888,11.04 C76.8133333,11.0613333 76.7573333,11.072 76.72,11.072 L76.72,11.072 L76.6,11.072 C76.504,11.072 76.4186667,11.0293333 76.344,10.944 C76.2693333,10.8586667 76.232,10.7093333 76.232,10.496 L76.232,10.496 L76.232,0.576 L74.92,0.576 L74.92,10.4 C74.92,10.976 75.0266667,11.4133333 75.24,11.712 C75.4533333,12.0106667 75.8106667,12.16 76.312,12.16 Z M88.536,11.968 L88.536,10.832 L83.656,10.832 L83.656,7.024 L87.64,7.024 L87.64,5.888 L83.656,5.888 L83.656,2.592 L88.376,2.592 L88.376,1.472 L82.328,1.472 L82.328,11.968 L88.536,11.968 Z M92.664,12.16 C93.1226667,12.16 93.5306667,12.0986667 93.888,11.976 C94.2453333,11.8533333 94.544,11.6853333 94.784,11.472 C95.024,11.2586667 95.2053333,11.0133333 95.328,10.736 C95.4506667,10.4586667 95.512,10.16 95.512,9.84 C95.512,9.47733333 95.44,9.168 95.296,8.912 C95.152,8.656 94.968,8.44 94.744,8.264 C94.52,8.088 94.2666667,7.94133333 93.984,7.824 C93.7013333,7.70666667 93.4213333,7.59466667 93.144,7.488 C92.92,7.40266667 92.704,7.32 92.496,7.24 C92.288,7.16 92.104,7.06933333 91.944,6.968 C91.784,6.86666667 91.656,6.74933333 91.56,6.616 C91.464,6.48266667 91.416,6.32533333 91.416,6.144 C91.416,5.84533333 91.5306667,5.584 91.76,5.36 C91.9893333,5.136 92.3493333,5.024 92.84,5.024 C93.1813333,5.024 93.496,5.088 93.784,5.216 C94.072,5.344 94.3493333,5.50933333 94.616,5.712 L94.616,5.712 L95.24,4.88 C94.9413333,4.63466667 94.5866667,4.42666667 94.176,4.256 C93.7653333,4.08533333 93.3146667,4 92.824,4 C92.408,4 92.0346667,4.056 91.704,4.168 C91.3733333,4.28 91.0933333,4.43466667 90.864,4.632 C90.6346667,4.82933333 90.4586667,5.064 90.336,5.336 C90.2133333,5.608 90.152,5.89866667 90.152,6.208 C90.152,6.53866667 90.2213333,6.82133333 90.36,7.056 C90.4986667,7.29066667 90.6773333,7.496 90.896,7.672 C91.1146667,7.848 91.3626667,7.99733333 91.64,8.12 C91.9173333,8.24266667 92.1946667,8.352 92.472,8.448 L92.472,8.448 L93.112,8.704 C93.3253333,8.78933333 93.5146667,8.888 93.68,9 C93.8453333,9.112 93.9813333,9.24266667 94.088,9.392 C94.1946667,9.54133333 94.248,9.71733333 94.248,9.92 C94.248,10.2613333 94.12,10.5493333 93.864,10.784 C93.608,11.0186667 93.224,11.136 92.712,11.136 C92.2426667,11.136 91.8293333,11.0506667 91.472,10.88 C91.1146667,10.7093333 90.7653333,10.4853333 90.424,10.208 L90.424,10.208 L89.768,11.088 C90.1413333,11.3973333 90.5786667,11.6533333 91.08,11.856 C91.5813333,12.0586667 92.1093333,12.16 92.664,12.16 Z M99.464,12.16 C99.7093333,12.16 99.9573333,12.1306667 100.208,12.072 C100.458667,12.0133333 100.690667,11.9466667 100.904,11.872 L100.904,11.872 L100.648,10.88 C100.52,10.9333333 100.376,10.9813333 100.216,11.024 C100.056,11.0666667 99.9066667,11.088 99.768,11.088 C99.32,11.088 99.008,10.9573333 98.832,10.696 C98.656,10.4346667 98.568,10.064 98.568,9.584 L98.568,9.584 L98.568,5.264 L100.664,5.264 L100.664,4.192 L98.568,4.192 L98.568,2.016 L97.464,2.016 L97.304,4.192 L96.088,4.272 L96.088,5.264 L97.24,5.264 L97.24,9.568 C97.24,9.952 97.2773333,10.304 97.352,10.624 C97.4266667,10.944 97.552,11.216 97.728,11.44 C97.904,11.664 98.1333333,11.84 98.416,11.968 C98.6986667,12.096 99.048,12.16 99.464,12.16 Z M103.096,2.592 C103.352,2.592 103.568,2.512 103.744,2.352 C103.92,2.192 104.008,1.98933333 104.008,1.744 C104.008,1.488 103.92,1.28266667 103.744,1.128 C103.568,0.973333333 103.352,0.896 103.096,0.896 C102.84,0.896 102.624,0.973333333 102.448,1.128 C102.272,1.28266667 102.184,1.488 102.184,1.744 C102.184,1.98933333 102.272,2.192 102.448,2.352 C102.624,2.512 102.84,2.592 103.096,2.592 Z M103.736,11.968 L103.736,4.192 L102.424,4.192 L102.424,11.968 L103.736,11.968 Z M107.672,11.968 L107.672,6.336 C108.386667,5.536 109.037333,5.136 109.624,5.136 C110.125333,5.136 110.493333,5.29866667 110.728,5.624 C110.962667,5.94933333 111.08,6.48 111.08,7.216 L111.08,7.216 L111.08,11.968 L112.392,11.968 L112.392,6.336 C113.106667,5.536 113.757333,5.136 114.344,5.136 C114.834667,5.136 115.197333,5.29866667 115.432,5.624 C115.666667,5.94933333 115.784,6.48 115.784,7.216 L115.784,7.216 L115.784,11.968 L117.096,11.968 L117.096,7.04 C117.096,6.03733333 116.901333,5.28 116.512,4.768 C116.122667,4.256 115.528,4 114.728,4 C114.248,4 113.802667,4.136 113.392,4.408 C112.981333,4.68 112.573333,5.04 112.168,5.488 C112.008,5.01866667 111.76,4.65333333 111.424,4.392 C111.088,4.13066667 110.621333,4 110.024,4 C109.554667,4 109.12,4.12533333 108.72,4.376 C108.32,4.62666667 107.949333,4.93866667 107.608,5.312 L107.608,5.312 L107.56,5.312 L107.448,4.192 L106.36,4.192 L106.36,11.968 L107.672,11.968 Z M121.416,12.16 C121.906667,12.16 122.365333,12.0506667 122.792,11.832 C123.218667,11.6133333 123.618667,11.3493333 123.992,11.04 L123.992,11.04 L124.04,11.04 L124.152,11.968 L125.24,11.968 L125.24,7.2 C125.24,6.22933333 125.026667,5.45333333 124.6,4.872 C124.173333,4.29066667 123.485333,4 122.536,4 C121.906667,4 121.330667,4.10933333 120.808,4.328 C120.285333,4.54666667 119.842667,4.77333333 119.48,5.008 L119.48,5.008 L119.992,5.92 C120.301333,5.70666667 120.653333,5.51466667 121.048,5.344 C121.442667,5.17333333 121.864,5.088 122.312,5.088 C122.632,5.088 122.896,5.144 123.104,5.256 C123.312,5.368 123.474667,5.51466667 123.592,5.696 C123.709333,5.87733333 123.792,6.08533333 123.84,6.32 C123.888,6.55466667 123.912,6.79466667 123.912,7.04 C122.248,7.22133333 121.037333,7.53866667 120.28,7.992 C119.522667,8.44533333 119.144,9.09866667 119.144,9.952 C119.144,10.656 119.36,11.2 119.792,11.584 C120.224,11.968 120.765333,12.16 121.416,12.16 Z M121.8,11.104 C121.416,11.104 121.090667,11.008 120.824,10.816 C120.557333,10.624 120.424,10.304 120.424,9.856 C120.424,9.61066667 120.485333,9.384 120.608,9.176 C120.730667,8.968 120.928,8.784 121.2,8.624 C121.472,8.464 121.829333,8.32533333 122.272,8.208 C122.714667,8.09066667 123.261333,7.98933333 123.912,7.904 L123.912,7.904 L123.912,10.064 C123.538667,10.4053333 123.186667,10.664 122.856,10.84 C122.525333,11.016 122.173333,11.104 121.8,11.104 Z M129.912,12.16 C130.157333,12.16 130.405333,12.1306667 130.656,12.072 C130.906667,12.0133333 131.138667,11.9466667 131.352,11.872 L131.352,11.872 L131.096,10.88 C130.968,10.9333333 130.824,10.9813333 130.664,11.024 C130.504,11.0666667 130.354667,11.088 130.216,11.088 C129.768,11.088 129.456,10.9573333 129.28,10.696 C129.104,10.4346667 129.016,10.064 129.016,9.584 L129.016,9.584 L129.016,5.264 L131.112,5.264 L131.112,4.192 L129.016,4.192 L129.016,2.016 L127.912,2.016 L127.752,4.192 L126.536,4.272 L126.536,5.264 L127.688,5.264 L127.688,9.568 C127.688,9.952 127.725333,10.304 127.8,10.624 C127.874667,10.944 128,11.216 128.176,11.44 C128.352,11.664 128.581333,11.84 128.864,11.968 C129.146667,12.096 129.496,12.16 129.912,12.16 Z M135.8,12.16 C136.333333,12.16 136.808,12.08 137.224,11.92 C137.64,11.76 138.018667,11.5733333 138.36,11.36 L138.36,11.36 L137.896,10.496 C137.608,10.6773333 137.306667,10.824 136.992,10.936 C136.677333,11.048 136.333333,11.104 135.96,11.104 C135.213333,11.104 134.608,10.8613333 134.144,10.376 C133.68,9.89066667 133.421333,9.232 133.368,8.4 L133.368,8.4 L138.616,8.4 C138.637333,8.304 138.650667,8.18933333 138.656,8.056 C138.661333,7.92266667 138.664,7.78666667 138.664,7.648 C138.664,7.09333333 138.594667,6.592 138.456,6.144 C138.317333,5.696 138.117333,5.312 137.856,4.992 C137.594667,4.672 137.269333,4.42666667 136.88,4.256 C136.490667,4.08533333 136.050667,4 135.56,4 C135.112,4 134.68,4.09333333 134.264,4.28 C133.848,4.46666667 133.477333,4.736 133.152,5.088 C132.826667,5.44 132.565333,5.86933333 132.368,6.376 C132.170667,6.88266667 132.072,7.456 132.072,8.096 C132.072,8.736 132.168,9.30666667 132.36,9.808 C132.552,10.3093333 132.816,10.7333333 133.152,11.08 C133.488,11.4266667 133.882667,11.6933333 134.336,11.88 C134.789333,12.0666667 135.277333,12.16 135.8,12.16 Z M137.512,7.456 L133.352,7.456 C133.394667,7.072 133.482667,6.73066667 133.616,6.432 C133.749333,6.13333333 133.917333,5.88 134.12,5.672 C134.322667,5.464 134.549333,5.30666667 134.8,5.2 C135.050667,5.09333333 135.314667,5.04 135.592,5.04 C136.2,5.04 136.672,5.24533333 137.008,5.656 C137.344,6.06666667 137.512,6.66666667 137.512,7.456 L137.512,7.456 Z M143.24,12.16 C143.698667,12.16 144.128,12.0506667 144.528,11.832 C144.928,11.6133333 145.282667,11.3546667 145.592,11.056 L145.592,11.056 L145.64,11.056 L145.752,11.968 L146.84,11.968 L146.84,0.576 L145.512,0.576 L145.512,3.568 L145.576,4.896 C145.234667,4.61866667 144.898667,4.4 144.568,4.24 C144.237333,4.08 143.848,4 143.4,4 C142.952,4 142.525333,4.096 142.12,4.288 C141.714667,4.48 141.357333,4.752 141.048,5.104 C140.738667,5.456 140.490667,5.88533333 140.304,6.392 C140.117333,6.89866667 140.024,7.46666667 140.024,8.096 C140.024,9.39733333 140.314667,10.4 140.896,11.104 C141.477333,11.808 142.258667,12.16 143.24,12.16 Z M143.528,11.056 C142.845333,11.056 142.317333,10.7946667 141.944,10.272 C141.570667,9.74933333 141.384,9.01866667 141.384,8.08 C141.384,7.632 141.442667,7.22666667 141.56,6.864 C141.677333,6.50133333 141.837333,6.18933333 142.04,5.928 C142.242667,5.66666667 142.48,5.464 142.752,5.32 C143.024,5.176 143.314667,5.104 143.624,5.104 C143.944,5.104 144.256,5.16533333 144.56,5.288 C144.864,5.41066667 145.181333,5.62133333 145.512,5.92 L145.512,5.92 L145.512,9.984 C145.192,10.3466667 144.872,10.616 144.552,10.792 C144.232,10.968 143.890667,11.056 143.528,11.056 Z M158.712,11.968 L158.712,10.832 L154.12,10.832 L154.12,1.472 L152.792,1.472 L152.792,11.968 L158.712,11.968 Z M163.4,12.16 C163.933333,12.16 164.408,12.08 164.824,11.92 C165.24,11.76 165.618667,11.5733333 165.96,11.36 L165.96,11.36 L165.496,10.496 C165.208,10.6773333 164.906667,10.824 164.592,10.936 C164.277333,11.048 163.933333,11.104 163.56,11.104 C162.813333,11.104 162.208,10.8613333 161.744,10.376 C161.28,9.89066667 161.021333,9.232 160.968,8.4 L160.968,8.4 L166.216,8.4 C166.237333,8.304 166.250667,8.18933333 166.256,8.056 C166.261333,7.92266667 166.264,7.78666667 166.264,7.648 C166.264,7.09333333 166.194667,6.592 166.056,6.144 C165.917333,5.696 165.717333,5.312 165.456,4.992 C165.194667,4.672 164.869333,4.42666667 164.48,4.256 C164.090667,4.08533333 163.650667,4 163.16,4 C162.712,4 162.28,4.09333333 161.864,4.28 C161.448,4.46666667 161.077333,4.736 160.752,5.088 C160.426667,5.44 160.165333,5.86933333 159.968,6.376 C159.770667,6.88266667 159.672,7.456 159.672,8.096 C159.672,8.736 159.768,9.30666667 159.96,9.808 C160.152,10.3093333 160.416,10.7333333 160.752,11.08 C161.088,11.4266667 161.482667,11.6933333 161.936,11.88 C162.389333,12.0666667 162.877333,12.16 163.4,12.16 Z M165.112,7.456 L160.952,7.456 C160.994667,7.072 161.082667,6.73066667 161.216,6.432 C161.349333,6.13333333 161.517333,5.88 161.72,5.672 C161.922667,5.464 162.149333,5.30666667 162.4,5.2 C162.650667,5.09333333 162.914667,5.04 163.192,5.04 C163.8,5.04 164.272,5.24533333 164.608,5.656 C164.944,6.06666667 165.112,6.66666667 165.112,7.456 L165.112,7.456 Z M169.496,11.968 L169.496,6.336 C169.890667,5.94133333 170.242667,5.64266667 170.552,5.44 C170.861333,5.23733333 171.218667,5.136 171.624,5.136 C172.136,5.136 172.509333,5.29866667 172.744,5.624 C172.978667,5.94933333 173.096,6.48 173.096,7.216 L173.096,7.216 L173.096,11.968 L174.408,11.968 L174.408,7.04 C174.408,6.03733333 174.218667,5.28 173.84,4.768 C173.461333,4.256 172.861333,4 172.04,4 C171.496,4 171.018667,4.12533333 170.608,4.376 C170.197333,4.62666667 169.805333,4.93866667 169.432,5.312 L169.432,5.312 L169.384,5.312 L169.272,4.192 L168.184,4.192 L168.184,11.968 L169.496,11.968 Z M179.592,12.16 C180.050667,12.16 180.48,12.0506667 180.88,11.832 C181.28,11.6133333 181.634667,11.3546667 181.944,11.056 L181.944,11.056 L181.992,11.056 L182.104,11.968 L183.192,11.968 L183.192,0.576 L181.864,0.576 L181.864,3.568 L181.928,4.896 C181.586667,4.61866667 181.250667,4.4 180.92,4.24 C180.589333,4.08 180.2,4 179.752,4 C179.304,4 178.877333,4.096 178.472,4.288 C178.066667,4.48 177.709333,4.752 177.4,5.104 C177.090667,5.456 176.842667,5.88533333 176.656,6.392 C176.469333,6.89866667 176.376,7.46666667 176.376,8.096 C176.376,9.39733333 176.666667,10.4 177.248,11.104 C177.829333,11.808 178.610667,12.16 179.592,12.16 Z M179.88,11.056 C179.197333,11.056 178.669333,10.7946667 178.296,10.272 C177.922667,9.74933333 177.736,9.01866667 177.736,8.08 C177.736,7.632 177.794667,7.22666667 177.912,6.864 C178.029333,6.50133333 178.189333,6.18933333 178.392,5.928 C178.594667,5.66666667 178.832,5.464 179.104,5.32 C179.376,5.176 179.666667,5.104 179.976,5.104 C180.296,5.104 180.608,5.16533333 180.912,5.288 C181.216,5.41066667 181.533333,5.62133333 181.864,5.92 L181.864,5.92 L181.864,9.984 C181.544,10.3466667 181.224,10.616 180.904,10.792 C180.584,10.968 180.242667,11.056 179.88,11.056 Z M186.488,2.592 C186.744,2.592 186.96,2.512 187.136,2.352 C187.312,2.192 187.4,1.98933333 187.4,1.744 C187.4,1.488 187.312,1.28266667 187.136,1.128 C186.96,0.973333333 186.744,0.896 186.488,0.896 C186.232,0.896 186.016,0.973333333 185.84,1.128 C185.664,1.28266667 185.576,1.488 185.576,1.744 C185.576,1.98933333 185.664,2.192 185.84,2.352 C186.016,2.512 186.232,2.592 186.488,2.592 Z M187.128,11.968 L187.128,4.192 L185.816,4.192 L185.816,11.968 L187.128,11.968 Z M191.064,11.968 L191.064,6.336 C191.458667,5.94133333 191.810667,5.64266667 192.12,5.44 C192.429333,5.23733333 192.786667,5.136 193.192,5.136 C193.704,5.136 194.077333,5.29866667 194.312,5.624 C194.546667,5.94933333 194.664,6.48 194.664,7.216 L194.664,7.216 L194.664,11.968 L195.976,11.968 L195.976,7.04 C195.976,6.03733333 195.786667,5.28 195.408,4.768 C195.029333,4.256 194.429333,4 193.608,4 C193.064,4 192.586667,4.12533333 192.176,4.376 C191.765333,4.62666667 191.373333,4.93866667 191,5.312 L191,5.312 L190.952,5.312 L190.84,4.192 L189.752,4.192 L189.752,11.968 L191.064,11.968 Z M201.128,15.552 C201.736,15.552 202.282667,15.48 202.768,15.336 C203.253333,15.192 203.666667,14.9973333 204.008,14.752 C204.349333,14.5066667 204.610667,14.2213333 204.792,13.896 C204.973333,13.5706667 205.064,13.2266667 205.064,12.864 C205.064,12.2133333 204.837333,11.7413333 204.384,11.448 C203.930667,11.1546667 203.250667,11.008 202.344,11.008 L202.344,11.008 L200.84,11.008 C200.306667,11.008 199.944,10.928 199.752,10.768 C199.56,10.608 199.464,10.4053333 199.464,10.16 C199.464,9.94666667 199.512,9.768 199.608,9.624 C199.704,9.48 199.821333,9.34933333 199.96,9.232 C200.141333,9.31733333 200.333333,9.384 200.536,9.432 C200.738667,9.48 200.936,9.504 201.128,9.504 C201.522667,9.504 201.893333,9.44 202.24,9.312 C202.586667,9.184 202.888,9.00533333 203.144,8.776 C203.4,8.54666667 203.602667,8.264 203.752,7.928 C203.901333,7.592 203.976,7.216 203.976,6.8 C203.976,6.46933333 203.914667,6.16533333 203.792,5.888 C203.669333,5.61066667 203.517333,5.38133333 203.336,5.2 L203.336,5.2 L204.936,5.2 L204.936,4.192 L202.232,4.192 C202.082667,4.13866667 201.914667,4.09333333 201.728,4.056 C201.541333,4.01866667 201.341333,4 201.128,4 C200.733333,4 200.357333,4.064 200,4.192 C199.642667,4.32 199.330667,4.504 199.064,4.744 C198.797333,4.984 198.586667,5.27466667 198.432,5.616 C198.277333,5.95733333 198.2,6.34133333 198.2,6.768 C198.2,7.23733333 198.304,7.65066667 198.512,8.008 C198.72,8.36533333 198.952,8.65066667 199.208,8.864 L199.208,8.864 L199.208,8.928 C199.005333,9.06666667 198.813333,9.25866667 198.632,9.504 C198.450667,9.74933333 198.36,10.0373333 198.36,10.368 C198.36,10.6773333 198.426667,10.936 198.56,11.144 C198.693333,11.352 198.856,11.5146667 199.048,11.632 L199.048,11.632 L199.048,11.696 C198.696,11.9413333 198.418667,12.2133333 198.216,12.512 C198.013333,12.8106667 197.912,13.1253333 197.912,13.456 C197.912,13.7973333 197.989333,14.096 198.144,14.352 C198.298667,14.608 198.517333,14.8266667 198.8,15.008 C199.082667,15.1893333 199.421333,15.3253333 199.816,15.416 C200.210667,15.5066667 200.648,15.552 201.128,15.552 Z M201.128,8.624 C200.904,8.624 200.693333,8.58133333 200.496,8.496 C200.298667,8.41066667 200.122667,8.288 199.968,8.128 C199.813333,7.968 199.693333,7.77333333 199.608,7.544 C199.522667,7.31466667 199.48,7.056 199.48,6.768 C199.48,6.192 199.64,5.74666667 199.96,5.432 C200.28,5.11733333 200.669333,4.96 201.128,4.96 C201.586667,4.96 201.976,5.11733333 202.296,5.432 C202.616,5.74666667 202.776,6.192 202.776,6.768 C202.776,7.056 202.733333,7.31466667 202.648,7.544 C202.562667,7.77333333 202.442667,7.968 202.288,8.128 C202.133333,8.288 201.957333,8.41066667 201.76,8.496 C201.562667,8.58133333 201.352,8.624 201.128,8.624 Z M201.32,14.64 C200.616,14.64 200.064,14.5173333 199.664,14.272 C199.264,14.0266667 199.064,13.696 199.064,13.28 C199.064,13.056 199.128,12.832 199.256,12.608 C199.384,12.384 199.586667,12.1706667 199.864,11.968 C200.034667,12.0213333 200.208,12.056 200.384,12.072 C200.56,12.088 200.722667,12.096 200.872,12.096 L200.872,12.096 L202.216,12.096 C202.728,12.096 203.117333,12.1653333 203.384,12.304 C203.650667,12.4426667 203.784,12.6933333 203.784,13.056 C203.784,13.2586667 203.725333,13.456 203.608,13.648 C203.490667,13.84 203.325333,14.008 203.112,14.152 C202.898667,14.296 202.64,14.4133333 202.336,14.504 C202.032,14.5946667 201.693333,14.64 201.32,14.64 Z M212.968,13.728 L212.968,12.112 C213.736,12.0053333 214.341333,11.7066667 214.784,11.216 C215.226667,10.7253333 215.448,10.096 215.448,9.328 C215.448,8.752 215.338667,8.28 215.12,7.912 C214.901333,7.544 214.626667,7.23466667 214.296,6.984 C213.965333,6.73333333 213.605333,6.52 213.216,6.344 C212.826667,6.168 212.466667,5.98666667 212.136,5.8 C211.805333,5.61333333 211.530667,5.39733333 211.312,5.152 C211.093333,4.90666667 210.984,4.592 210.984,4.208 C210.984,3.73866667 211.128,3.36533333 211.416,3.088 C211.704,2.81066667 212.093333,2.672 212.584,2.672 C213.021333,2.672 213.381333,2.752 213.664,2.912 C213.946667,3.072 214.237333,3.296 214.536,3.584 L214.536,3.584 L215.24,2.8 C214.952,2.49066667 214.629333,2.224 214.272,2 C213.914667,1.776 213.48,1.63733333 212.968,1.584 L212.968,1.584 L212.968,0 L212.008,0 L212.008,1.616 C211.304,1.72266667 210.741333,2.01333333 210.32,2.488 C209.898667,2.96266667 209.688,3.55733333 209.688,4.272 C209.688,4.79466667 209.797333,5.224 210.016,5.56 C210.234667,5.896 210.509333,6.18133333 210.84,6.416 C211.170667,6.65066667 211.530667,6.85866667 211.92,7.04 C212.309333,7.22133333 212.669333,7.416 213,7.624 C213.330667,7.832 213.605333,8.07733333 213.824,8.36 C214.042667,8.64266667 214.152,8.99733333 214.152,9.424 C214.152,9.92533333 214.005333,10.3253333 213.712,10.624 C213.418667,10.9226667 212.973333,11.072 212.376,11.072 C211.885333,11.072 211.434667,10.968 211.024,10.76 C210.613333,10.552 210.237333,10.2986667 209.896,10 L209.896,10 L209.288,10.912 C209.629333,11.2213333 210.04,11.4906667 210.52,11.72 C211,11.9493333 211.496,12.0906667 212.008,12.144 L212.008,12.144 L212.008,13.728 L212.968,13.728 Z M220.184,12.16 C220.653333,12.16 221.090667,12.0933333 221.496,11.96 C221.901333,11.8266667 222.256,11.6346667 222.56,11.384 C222.864,11.1333333 223.104,10.8266667 223.28,10.464 C223.456,10.1013333 223.544,9.696 223.544,9.248 C223.544,8.896 223.488,8.576 223.376,8.288 C223.264,8 223.106667,7.74666667 222.904,7.528 C222.701333,7.30933333 222.466667,7.128 222.2,6.984 C221.933333,6.84 221.645333,6.73066667 221.336,6.656 L221.336,6.656 L221.336,6.592 C221.890667,6.37866667 222.338667,6.07466667 222.68,5.68 C223.021333,5.28533333 223.192,4.77866667 223.192,4.16 C223.192,3.744 223.117333,3.376 222.968,3.056 C222.818667,2.736 222.608,2.46666667 222.336,2.248 C222.064,2.02933333 221.741333,1.86133333 221.368,1.744 C220.994667,1.62666667 220.584,1.568 220.136,1.568 C219.528,1.568 218.986667,1.688 218.512,1.928 C218.037333,2.168 217.602667,2.47466667 217.208,2.848 L217.208,2.848 L217.912,3.68 C218.221333,3.37066667 218.554667,3.12 218.912,2.928 C219.269333,2.736 219.661333,2.64 220.088,2.64 C220.632,2.64 221.061333,2.784 221.376,3.072 C221.690667,3.36 221.848,3.75466667 221.848,4.256 C221.848,4.52266667 221.8,4.77333333 221.704,5.008 C221.608,5.24266667 221.445333,5.44533333 221.216,5.616 C220.986667,5.78666667 220.688,5.92 220.32,6.016 C219.952,6.112 219.496,6.16 218.952,6.16 L218.952,6.16 L218.952,7.168 C219.56,7.168 220.072,7.216 220.488,7.312 C220.904,7.408 221.24,7.54666667 221.496,7.728 C221.752,7.90933333 221.936,8.12533333 222.048,8.376 C222.16,8.62666667 222.216,8.90133333 222.216,9.2 C222.216,9.776 222.018667,10.232 221.624,10.568 C221.229333,10.904 220.722667,11.072 220.104,11.072 C219.496,11.072 218.986667,10.9493333 218.576,10.704 C218.165333,10.4586667 217.805333,10.176 217.496,9.856 L217.496,9.856 L216.824,10.72 C216.994667,10.912 217.189333,11.0933333 217.408,11.264 C217.626667,11.4346667 217.874667,11.5866667 218.152,11.72 C218.429333,11.8533333 218.736,11.96 219.072,12.04 C219.408,12.12 219.778667,12.16 220.184,12.16 Z M226.36,12.16 C226.616,12.16 226.837333,12.0666667 227.024,11.88 C227.210667,11.6933333 227.304,11.456 227.304,11.168 C227.304,10.8586667 227.210667,10.6106667 227.024,10.424 C226.837333,10.2373333 226.616,10.144 226.36,10.144 C226.093333,10.144 225.866667,10.2373333 225.68,10.424 C225.493333,10.6106667 225.4,10.8586667 225.4,11.168 C225.4,11.456 225.493333,11.6933333 225.68,11.88 C225.866667,12.0666667 226.093333,12.16 226.36,12.16 Z M231.624,12.16 C232.136,12.16 232.624,12.056 233.088,11.848 C233.552,11.64 233.965333,11.3093333 234.328,10.856 C234.690667,10.4026667 234.978667,9.816 235.192,9.096 C235.405333,8.376 235.512,7.504 235.512,6.48 C235.512,5.65866667 235.424,4.94133333 235.248,4.328 C235.072,3.71466667 234.826667,3.20266667 234.512,2.792 C234.197333,2.38133333 233.824,2.07466667 233.392,1.872 C232.96,1.66933333 232.493333,1.568 231.992,1.568 C231.586667,1.568 231.2,1.648 230.832,1.808 C230.464,1.968 230.144,2.192 229.872,2.48 C229.6,2.768 229.384,3.112 229.224,3.512 C229.064,3.912 228.984,4.35733333 228.984,4.848 C228.984,5.904 229.245333,6.69333333 229.768,7.216 C230.290667,7.73866667 230.994667,8 231.88,8 C232.306667,8 232.733333,7.88266667 233.16,7.648 C233.586667,7.41333333 233.96,7.09333333 234.28,6.688 C234.269333,7.50933333 234.189333,8.19733333 234.04,8.752 C233.890667,9.30666667 233.693333,9.75733333 233.448,10.104 C233.202667,10.4506667 232.92,10.6986667 232.6,10.848 C232.28,10.9973333 231.938667,11.072 231.576,11.072 C231.256,11.072 230.949333,10.9973333 230.656,10.848 C230.362667,10.6986667 230.109333,10.5013333 229.896,10.256 L229.896,10.256 L229.16,11.088 C229.437333,11.3973333 229.781333,11.6533333 230.192,11.856 C230.602667,12.0586667 231.08,12.16 231.624,12.16 Z M232.104,7.008 C231.464,7.008 230.989333,6.816 230.68,6.432 C230.370667,6.048 230.216,5.52 230.216,4.848 C230.216,4.51733333 230.261333,4.21333333 230.352,3.936 C230.442667,3.65866667 230.568,3.42133333 230.728,3.224 C230.888,3.02666667 231.077333,2.87466667 231.296,2.768 C231.514667,2.66133333 231.746667,2.608 231.992,2.608 C232.642667,2.608 233.16,2.864 233.544,3.376 C233.928,3.888 234.162667,4.64533333 234.248,5.648 C233.917333,6.128 233.562667,6.47466667 233.184,6.688 C232.805333,6.90133333 232.445333,7.008 232.104,7.008 Z M243.528,11.968 L243.528,10.832 L240.568,10.832 C240.301333,10.832 240.018667,10.8426667 239.72,10.864 C239.421333,10.8853333 239.133333,10.9066667 238.856,10.928 C239.464,10.2986667 240.021333,9.704 240.528,9.144 C241.034667,8.584 241.472,8.04533333 241.84,7.528 C242.208,7.01066667 242.496,6.50933333 242.704,6.024 C242.912,5.53866667 243.016,5.056 243.016,4.576 C243.016,3.66933333 242.744,2.94133333 242.2,2.392 C241.656,1.84266667 240.909333,1.568 239.96,1.568 C239.288,1.568 238.712,1.70933333 238.232,1.992 C237.752,2.27466667 237.298667,2.65066667 236.872,3.12 L236.872,3.12 L237.624,3.872 C237.922667,3.53066667 238.253333,3.24 238.616,3 C238.978667,2.76 239.373333,2.64 239.8,2.64 C240.450667,2.64 240.936,2.82666667 241.256,3.2 C241.576,3.57333333 241.736,4.05333333 241.736,4.64 C241.736,5.056 241.629333,5.48533333 241.416,5.928 C241.202667,6.37066667 240.893333,6.856 240.488,7.384 C240.082667,7.912 239.581333,8.48533333 238.984,9.104 C238.386667,9.72266667 237.704,10.416 236.936,11.184 L236.936,11.184 L236.936,11.968 L243.528,11.968 Z M249.208,11.968 L249.208,2.592 L252.376,2.592 L252.376,1.472 L244.696,1.472 L244.696,2.592 L247.864,2.592 L247.864,11.968 L249.208,11.968 Z" id="TotalEstimatedLending$3.92T" fill="#555555" fill-rule="nonzero"></path>
                <path d="M12.632,49.144 C13.032,49.144 13.404,49.086 13.748,48.97 C14.092,48.854 14.39,48.662 14.642,48.394 C14.894,48.126 15.092,47.776 15.236,47.344 C15.38,46.912 15.452,46.38 15.452,45.748 L15.452,45.748 L15.452,41.128 L14.492,41.128 L14.492,45.772 C14.492,46.244 14.444,46.64 14.348,46.96 C14.252,47.28 14.12,47.536 13.952,47.728 C13.784,47.92 13.588,48.058 13.364,48.142 C13.14,48.226 12.896,48.268 12.632,48.268 C12.376,48.268 12.136,48.226 11.912,48.142 C11.688,48.058 11.494,47.92 11.33,47.728 C11.166,47.536 11.036,47.28 10.94,46.96 C10.844,46.64 10.796,46.244 10.796,45.772 L10.796,45.772 L10.796,41.128 L9.8,41.128 L9.8,45.748 C9.8,46.38 9.872,46.912 10.016,47.344 C10.16,47.776 10.358,48.126 10.61,48.394 C10.862,48.662 11.162,48.854 11.51,48.97 C11.858,49.086 12.232,49.144 12.632,49.144 Z M20.216,49 L20.216,41.968 L22.592,41.968 L22.592,41.128 L16.832,41.128 L16.832,41.968 L19.208,41.968 L19.208,49 L20.216,49 Z M25.004,49 L25.004,41.128 L24.008,41.128 L24.008,49 L25.004,49 Z M31.604,49 L31.604,48.148 L28.16,48.148 L28.16,41.128 L27.164,41.128 L27.164,49 L31.604,49 Z M33.992,49 L33.992,41.128 L32.996,41.128 L32.996,49 L33.992,49 Z M41.036,49 L41.036,48.148 L36.848,48.148 L41,41.716 L41,41.128 L35.984,41.128 L35.984,41.968 L39.752,41.968 L35.612,48.4 L35.612,49 L41.036,49 Z M47.276,49 L47.276,48.148 L43.616,48.148 L43.616,45.292 L46.604,45.292 L46.604,44.44 L43.616,44.44 L43.616,41.968 L47.156,41.968 L47.156,41.128 L42.62,41.128 L42.62,49 L47.276,49 Z M50.96,49 C51.552,49 52.076,48.91 52.532,48.73 C52.988,48.55 53.372,48.29 53.684,47.95 C53.996,47.61 54.232,47.194 54.392,46.702 C54.552,46.21 54.632,45.652 54.632,45.028 C54.632,43.772 54.316,42.808 53.684,42.136 C53.052,41.464 52.128,41.128 50.912,41.128 L50.912,41.128 L48.944,41.128 L48.944,49 L50.96,49 Z M50.84,48.184 L49.94,48.184 L49.94,41.944 L50.84,41.944 C51.76,41.944 52.45,42.208 52.91,42.736 C53.37,43.264 53.6,44.028 53.6,45.028 C53.6,46.028 53.37,46.804 52.91,47.356 C52.45,47.908 51.76,48.184 50.84,48.184 L50.84,48.184 Z M14.708,64 L14.708,63.148 L11.264,63.148 L11.264,56.128 L10.268,56.128 L10.268,64 L14.708,64 Z M20.756,64 L20.756,63.148 L17.096,63.148 L17.096,60.292 L20.084,60.292 L20.084,59.44 L17.096,59.44 L17.096,56.968 L20.636,56.968 L20.636,56.128 L16.1,56.128 L16.1,64 L20.756,64 Z M23.372,64 L23.372,59.884 C23.372,59.468 23.358,59.054 23.33,58.642 C23.302,58.23 23.272,57.824 23.24,57.424 L23.24,57.424 L23.288,57.424 L24.14,59.044 L26.996,64 L28.028,64 L28.028,56.128 L27.08,56.128 L27.08,60.196 C27.08,60.612 27.094,61.034 27.122,61.462 C27.15,61.89 27.176,62.304 27.2,62.704 L27.2,62.704 L27.152,62.704 L26.3,61.072 L23.456,56.128 L22.424,56.128 L22.424,64 L23.372,64 Z M32.204,64 C32.796,64 33.32,63.91 33.776,63.73 C34.232,63.55 34.616,63.29 34.928,62.95 C35.24,62.61 35.476,62.194 35.636,61.702 C35.796,61.21 35.876,60.652 35.876,60.028 C35.876,58.772 35.56,57.808 34.928,57.136 C34.296,56.464 33.372,56.128 32.156,56.128 L32.156,56.128 L30.188,56.128 L30.188,64 L32.204,64 Z M32.084,63.184 L31.184,63.184 L31.184,56.944 L32.084,56.944 C33.004,56.944 33.694,57.208 34.154,57.736 C34.614,58.264 34.844,59.028 34.844,60.028 C34.844,61.028 34.614,61.804 34.154,62.356 C33.694,62.908 33.004,63.184 32.084,63.184 L32.084,63.184 Z M38.564,64 L38.564,56.128 L37.568,56.128 L37.568,64 L38.564,64 Z M41.672,64 L41.672,59.884 C41.672,59.468 41.658,59.054 41.63,58.642 C41.602,58.23 41.572,57.824 41.54,57.424 L41.54,57.424 L41.588,57.424 L42.44,59.044 L45.296,64 L46.328,64 L46.328,56.128 L45.38,56.128 L45.38,60.196 C45.38,60.612 45.394,61.034 45.422,61.462 C45.45,61.89 45.476,62.304 45.5,62.704 L45.5,62.704 L45.452,62.704 L44.6,61.072 L41.756,56.128 L40.724,56.128 L40.724,64 L41.672,64 Z M51.584,64.144 C52.112,64.144 52.584,64.058 53,63.886 C53.416,63.714 53.752,63.496 54.008,63.232 L54.008,63.232 L54.008,59.92 L51.428,59.92 L51.428,60.748 L53.096,60.748 L53.096,62.8 C52.936,62.944 52.73,63.058 52.478,63.142 C52.226,63.226 51.96,63.268 51.68,63.268 C51.256,63.268 50.882,63.192 50.558,63.04 C50.234,62.888 49.962,62.672 49.742,62.392 C49.522,62.112 49.354,61.774 49.238,61.378 C49.122,60.982 49.064,60.536 49.064,60.04 C49.064,59.552 49.126,59.112 49.25,58.72 C49.374,58.328 49.548,57.994 49.772,57.718 C49.996,57.442 50.268,57.23 50.588,57.082 C50.908,56.934 51.268,56.86 51.668,56.86 C52.068,56.86 52.4,56.932 52.664,57.076 C52.928,57.22 53.16,57.396 53.36,57.604 L53.36,57.604 L53.912,56.956 C53.8,56.836 53.67,56.718 53.522,56.602 C53.374,56.486 53.206,56.382 53.018,56.29 C52.83,56.198 52.622,56.124 52.394,56.068 C52.166,56.012 51.916,55.984 51.644,55.984 C51.124,55.984 50.642,56.078 50.198,56.266 C49.754,56.454 49.372,56.724 49.052,57.076 C48.732,57.428 48.482,57.856 48.302,58.36 C48.122,58.864 48.032,59.432 48.032,60.064 C48.032,60.704 48.12,61.278 48.296,61.786 C48.472,62.294 48.716,62.722 49.028,63.07 C49.34,63.418 49.714,63.684 50.15,63.868 C50.586,64.052 51.064,64.144 51.584,64.144 Z M19.442,80.32 L19.442,79.072 C20.066,78.936 20.534,78.662 20.846,78.25 C21.158,77.838 21.314,77.344 21.314,76.768 C21.314,76.384 21.236,76.062 21.08,75.802 C20.924,75.542 20.728,75.32 20.492,75.136 C20.256,74.952 20.002,74.796 19.73,74.668 C19.458,74.54 19.204,74.416 18.968,74.296 C18.732,74.176 18.536,74.05 18.38,73.918 C18.224,73.786 18.146,73.624 18.146,73.432 C18.146,73.16 18.222,72.964 18.374,72.844 C18.526,72.724 18.746,72.664 19.034,72.664 C19.29,72.664 19.518,72.714 19.718,72.814 C19.918,72.914 20.126,73.064 20.342,73.264 L20.342,73.264 L21.23,72.256 C20.998,72.008 20.738,71.796 20.45,71.62 C20.162,71.444 19.826,71.328 19.442,71.272 L19.442,71.272 L19.442,70.06 L18.278,70.06 L18.278,71.296 C17.71,71.408 17.264,71.658 16.94,72.046 C16.616,72.434 16.454,72.924 16.454,73.516 C16.454,73.876 16.532,74.18 16.688,74.428 C16.844,74.676 17.04,74.892 17.276,75.076 C17.512,75.26 17.766,75.418 18.038,75.55 C18.31,75.682 18.564,75.814 18.8,75.946 C19.036,76.078 19.232,76.216 19.388,76.36 C19.544,76.504 19.622,76.68 19.622,76.888 C19.622,77.168 19.544,77.376 19.388,77.512 C19.232,77.648 18.986,77.716 18.65,77.716 C18.362,77.716 18.08,77.658 17.804,77.542 C17.528,77.426 17.238,77.252 16.934,77.02 L16.934,77.02 L16.166,78.208 C16.446,78.464 16.78,78.67 17.168,78.826 C17.556,78.982 17.926,79.08 18.278,79.12 L18.278,79.12 L18.278,80.32 L19.442,80.32 Z M25.19,79.144 C25.598,79.144 25.968,79.09 26.3,78.982 C26.632,78.874 26.916,78.726 27.152,78.538 C27.388,78.35 27.57,78.128 27.698,77.872 C27.826,77.616 27.89,77.336 27.89,77.032 C27.89,76.528 27.762,76.12 27.506,75.808 C27.25,75.496 26.938,75.24 26.57,75.04 L26.57,75.04 L26.57,74.992 C26.834,74.816 27.066,74.586 27.266,74.302 C27.466,74.018 27.566,73.692 27.566,73.324 C27.566,73.012 27.51,72.726 27.398,72.466 C27.286,72.206 27.13,71.986 26.93,71.806 C26.73,71.626 26.486,71.486 26.198,71.386 C25.91,71.286 25.594,71.236 25.25,71.236 C24.898,71.236 24.572,71.284 24.272,71.38 C23.972,71.476 23.714,71.616 23.498,71.8 C23.282,71.984 23.114,72.206 22.994,72.466 C22.874,72.726 22.814,73.016 22.814,73.336 C22.814,73.744 22.91,74.09 23.102,74.374 C23.294,74.658 23.538,74.912 23.834,75.136 L23.834,75.136 L23.834,75.184 C23.474,75.376 23.168,75.62 22.916,75.916 C22.664,76.212 22.538,76.592 22.538,77.056 C22.538,77.368 22.604,77.652 22.736,77.908 C22.868,78.164 23.052,78.384 23.288,78.568 C23.524,78.752 23.804,78.894 24.128,78.994 C24.452,79.094 24.806,79.144 25.19,79.144 Z M25.67,74.56 C25.278,74.408 24.962,74.244 24.722,74.068 C24.482,73.892 24.362,73.648 24.362,73.336 C24.362,73.04 24.446,72.82 24.614,72.676 C24.782,72.532 24.982,72.46 25.214,72.46 C25.502,72.46 25.728,72.55 25.892,72.73 C26.056,72.91 26.138,73.148 26.138,73.444 C26.138,73.828 25.982,74.2 25.67,74.56 Z M25.226,77.92 C24.906,77.92 24.63,77.826 24.398,77.638 C24.166,77.45 24.05,77.188 24.05,76.852 C24.05,76.62 24.106,76.4 24.218,76.192 C24.33,75.984 24.47,75.8 24.638,75.64 C24.878,75.744 25.096,75.84 25.292,75.928 C25.488,76.016 25.658,76.11 25.802,76.21 C25.946,76.31 26.056,76.42 26.132,76.54 C26.208,76.66 26.246,76.804 26.246,76.972 C26.246,77.292 26.15,77.53 25.958,77.686 C25.766,77.842 25.522,77.92 25.226,77.92 Z M31.286,79.144 C31.67,79.144 32.034,79.094 32.378,78.994 C32.722,78.894 33.022,78.75 33.278,78.562 C33.534,78.374 33.738,78.142 33.89,77.866 C34.042,77.59 34.118,77.276 34.118,76.924 C34.118,76.428 33.976,76.026 33.692,75.718 C33.408,75.41 33.046,75.192 32.606,75.064 L32.606,75.064 L32.606,75.016 C33.014,74.84 33.328,74.614 33.548,74.338 C33.768,74.062 33.878,73.724 33.878,73.324 C33.878,72.988 33.814,72.692 33.686,72.436 C33.558,72.18 33.38,71.962 33.152,71.782 C32.924,71.602 32.648,71.466 32.324,71.374 C32,71.282 31.642,71.236 31.25,71.236 C30.778,71.236 30.348,71.322 29.96,71.494 C29.572,71.666 29.202,71.904 28.85,72.208 L28.85,72.208 L29.738,73.288 C29.978,73.08 30.208,72.916 30.428,72.796 C30.648,72.676 30.894,72.616 31.166,72.616 C31.47,72.616 31.702,72.69 31.862,72.838 C32.022,72.986 32.102,73.192 32.102,73.456 C32.102,73.608 32.072,73.746 32.012,73.87 C31.952,73.994 31.852,74.102 31.712,74.194 C31.572,74.286 31.388,74.356 31.16,74.404 C30.932,74.452 30.646,74.476 30.302,74.476 L30.302,74.476 L30.302,75.724 C30.718,75.724 31.058,75.75 31.322,75.802 C31.586,75.854 31.794,75.926 31.946,76.018 C32.098,76.11 32.204,76.224 32.264,76.36 C32.324,76.496 32.354,76.648 32.354,76.816 C32.354,77.104 32.242,77.326 32.018,77.482 C31.794,77.638 31.494,77.716 31.118,77.716 C30.79,77.716 30.488,77.644 30.212,77.5 C29.936,77.356 29.682,77.172 29.45,76.948 L29.45,76.948 L28.634,78.064 C28.914,78.392 29.27,78.654 29.702,78.85 C30.134,79.046 30.662,79.144 31.286,79.144 Z M40.514,79 L40.514,77.512 L38.978,77.512 C38.794,77.512 38.584,77.522 38.348,77.542 C38.112,77.562 37.898,77.584 37.706,77.608 C38.018,77.288 38.32,76.962 38.612,76.63 C38.904,76.298 39.164,75.966 39.392,75.634 C39.62,75.302 39.802,74.97 39.938,74.638 C40.074,74.306 40.142,73.98 40.142,73.66 C40.142,73.292 40.082,72.96 39.962,72.664 C39.842,72.368 39.67,72.114 39.446,71.902 C39.222,71.69 38.956,71.526 38.648,71.41 C38.34,71.294 37.998,71.236 37.622,71.236 C37.078,71.236 36.61,71.338 36.218,71.542 C35.826,71.746 35.442,72.048 35.066,72.448 L35.066,72.448 L36.026,73.396 C36.218,73.188 36.422,73.006 36.638,72.85 C36.854,72.694 37.102,72.616 37.382,72.616 C37.718,72.616 37.982,72.714 38.174,72.91 C38.366,73.106 38.462,73.392 38.462,73.768 C38.462,74.04 38.38,74.326 38.216,74.626 C38.052,74.926 37.824,75.25 37.532,75.598 C37.24,75.946 36.892,76.318 36.488,76.714 C36.084,77.11 35.638,77.536 35.15,77.992 L35.15,77.992 L35.15,79 L40.514,79 Z M44.87,79 C45.294,79 45.69,78.954 46.058,78.862 C46.426,78.77 46.748,78.63 47.024,78.442 C47.3,78.254 47.516,78.016 47.672,77.728 C47.828,77.44 47.906,77.096 47.906,76.696 C47.906,76.432 47.87,76.198 47.798,75.994 C47.726,75.79 47.626,75.612 47.498,75.46 C47.37,75.308 47.222,75.182 47.054,75.082 C46.886,74.982 46.702,74.908 46.502,74.86 L46.502,74.86 L46.502,74.812 C46.662,74.756 46.804,74.668 46.928,74.548 C47.052,74.428 47.158,74.292 47.246,74.14 C47.334,73.988 47.402,73.824 47.45,73.648 C47.498,73.472 47.522,73.296 47.522,73.12 C47.522,72.744 47.448,72.432 47.3,72.184 C47.152,71.936 46.948,71.736 46.688,71.584 C46.428,71.432 46.124,71.326 45.776,71.266 C45.428,71.206 45.05,71.176 44.642,71.176 L44.642,71.176 L41.966,71.176 L41.966,79 L44.87,79 Z M44.558,74.308 L43.73,74.308 L43.73,72.544 L44.57,72.544 C44.986,72.544 45.294,72.608 45.494,72.736 C45.694,72.864 45.794,73.08 45.794,73.384 C45.794,73.664 45.696,73.888 45.5,74.056 C45.304,74.224 44.99,74.308 44.558,74.308 L44.558,74.308 Z M44.726,77.632 L43.73,77.632 L43.73,75.616 L44.726,75.616 C45.214,75.616 45.578,75.69 45.818,75.838 C46.058,75.986 46.178,76.232 46.178,76.576 C46.178,77.28 45.694,77.632 44.726,77.632 L44.726,77.632 Z" id="UTILIZEDLENDING$832B" fill="#666666" fill-rule="nonzero"></path>
                <path d="M0,91 L0,34 L297,34 L297,91" id="Path-21-Copy-4" stroke="#D8D8D8" stroke-dasharray="3,3"></path>
                <path d="M149.724,49 L150.48,46.6 L153.348,46.6 L154.092,49 L155.16,49 L152.496,41.128 L151.368,41.128 L148.704,49 L149.724,49 Z M153.096,45.796 L150.732,45.796 L151.104,44.596 C151.248,44.156 151.384,43.718 151.512,43.282 C151.64,42.846 151.764,42.4 151.884,41.944 L151.884,41.944 L151.932,41.944 C152.06,42.4 152.188,42.846 152.316,43.282 C152.444,43.718 152.58,44.156 152.724,44.596 L152.724,44.596 L153.096,45.796 Z M158.712,49 L161.208,41.128 L160.188,41.128 L158.928,45.376 C158.792,45.848 158.668,46.284 158.556,46.684 L158.469,46.99 C158.379,47.302 158.28,47.632 158.172,47.98 L158.172,47.98 L158.124,47.98 C157.972,47.516 157.842,47.084 157.734,46.684 L157.649625,46.37725 C157.561875,46.06375 157.464,45.73 157.356,45.376 L157.356,45.376 L156.096,41.128 L155.028,41.128 L157.548,49 L158.712,49 Z M162.096,49 L162.852,46.6 L165.72,46.6 L166.464,49 L167.532,49 L164.868,41.128 L163.74,41.128 L161.076,49 L162.096,49 Z M165.468,45.796 L163.104,45.796 L163.476,44.596 C163.62,44.156 163.756,43.718 163.884,43.282 C164.012,42.846 164.136,42.4 164.256,41.944 L164.256,41.944 L164.304,41.944 C164.432,42.4 164.56,42.846 164.688,43.282 C164.816,43.718 164.952,44.156 165.096,44.596 L165.096,44.596 L165.468,45.796 Z M169.644,49 L169.644,41.128 L168.648,41.128 L168.648,49 L169.644,49 Z M176.244,49 L176.244,48.148 L172.8,48.148 L172.8,41.128 L171.804,41.128 L171.804,49 L176.244,49 Z M177.648,49 L178.404,46.6 L181.272,46.6 L182.016,49 L183.084,49 L180.42,41.128 L179.292,41.128 L176.628,49 L177.648,49 Z M181.02,45.796 L178.656,45.796 L179.028,44.596 C179.172,44.156 179.308,43.718 179.436,43.282 C179.564,42.846 179.688,42.4 179.808,41.944 L179.808,41.944 L179.856,41.944 C179.984,42.4 180.112,42.846 180.24,43.282 C180.368,43.718 180.504,44.156 180.648,44.596 L180.648,44.596 L181.02,45.796 Z M186.708,49 C187.148,49 187.552,48.952 187.92,48.856 C188.288,48.76 188.604,48.616 188.868,48.424 C189.132,48.232 189.336,47.992 189.48,47.704 C189.624,47.416 189.696,47.08 189.696,46.696 C189.696,46.152 189.548,45.724 189.252,45.412 C188.956,45.1 188.568,44.9 188.088,44.812 L188.088,44.812 L188.088,44.764 C188.464,44.644 188.75,44.426 188.946,44.11 C189.142,43.794 189.24,43.44 189.24,43.048 C189.24,42.704 189.174,42.41 189.042,42.166 C188.91,41.922 188.726,41.724 188.49,41.572 C188.254,41.42 187.97,41.308 187.638,41.236 C187.306,41.164 186.94,41.128 186.54,41.128 L186.54,41.128 L184.2,41.128 L184.2,49 L186.708,49 Z M186.36,44.476 L185.196,44.476 L185.196,41.92 L186.408,41.92 C187.024,41.92 187.486,42.016 187.794,42.208 C188.102,42.4 188.256,42.724 188.256,43.18 C188.256,43.58 188.108,43.896 187.812,44.128 C187.516,44.36 187.032,44.476 186.36,44.476 L186.36,44.476 Z M186.564,48.208 L185.196,48.208 L185.196,45.244 L186.564,45.244 C187.26,45.244 187.792,45.358 188.16,45.586 C188.528,45.814 188.712,46.172 188.712,46.66 C188.712,47.188 188.524,47.578 188.148,47.83 C187.772,48.082 187.244,48.208 186.564,48.208 L186.564,48.208 Z M195.696,49 L195.696,48.148 L192.252,48.148 L192.252,41.128 L191.256,41.128 L191.256,49 L195.696,49 Z M201.744,49 L201.744,48.148 L198.084,48.148 L198.084,45.292 L201.072,45.292 L201.072,44.44 L198.084,44.44 L198.084,41.968 L201.624,41.968 L201.624,41.128 L197.088,41.128 L197.088,49 L201.744,49 Z M158.208,64 L158.208,63.148 L154.764,63.148 L154.764,56.128 L153.768,56.128 L153.768,64 L158.208,64 Z M164.256,64 L164.256,63.148 L160.596,63.148 L160.596,60.292 L163.584,60.292 L163.584,59.44 L160.596,59.44 L160.596,56.968 L164.136,56.968 L164.136,56.128 L159.6,56.128 L159.6,64 L164.256,64 Z M166.872,64 L166.872,59.884 C166.872,59.468 166.858,59.054 166.83,58.642 C166.802,58.23 166.772,57.824 166.74,57.424 L166.74,57.424 L166.788,57.424 L167.64,59.044 L170.496,64 L171.528,64 L171.528,56.128 L170.58,56.128 L170.58,60.196 C170.58,60.612 170.594,61.034 170.622,61.462 C170.65,61.89 170.676,62.304 170.7,62.704 L170.7,62.704 L170.652,62.704 L169.8,61.072 L166.956,56.128 L165.924,56.128 L165.924,64 L166.872,64 Z M175.704,64 C176.296,64 176.82,63.91 177.276,63.73 C177.732,63.55 178.116,63.29 178.428,62.95 C178.74,62.61 178.976,62.194 179.136,61.702 C179.296,61.21 179.376,60.652 179.376,60.028 C179.376,58.772 179.06,57.808 178.428,57.136 C177.796,56.464 176.872,56.128 175.656,56.128 L175.656,56.128 L173.688,56.128 L173.688,64 L175.704,64 Z M175.584,63.184 L174.684,63.184 L174.684,56.944 L175.584,56.944 C176.504,56.944 177.194,57.208 177.654,57.736 C178.114,58.264 178.344,59.028 178.344,60.028 C178.344,61.028 178.114,61.804 177.654,62.356 C177.194,62.908 176.504,63.184 175.584,63.184 L175.584,63.184 Z M182.064,64 L182.064,56.128 L181.068,56.128 L181.068,64 L182.064,64 Z M185.172,64 L185.172,59.884 C185.172,59.468 185.158,59.054 185.13,58.642 C185.102,58.23 185.072,57.824 185.04,57.424 L185.04,57.424 L185.088,57.424 L185.94,59.044 L188.796,64 L189.828,64 L189.828,56.128 L188.88,56.128 L188.88,60.196 C188.88,60.612 188.894,61.034 188.922,61.462 C188.95,61.89 188.976,62.304 189,62.704 L189,62.704 L188.952,62.704 L188.1,61.072 L185.256,56.128 L184.224,56.128 L184.224,64 L185.172,64 Z M195.084,64.144 C195.612,64.144 196.084,64.058 196.5,63.886 C196.916,63.714 197.252,63.496 197.508,63.232 L197.508,63.232 L197.508,59.92 L194.928,59.92 L194.928,60.748 L196.596,60.748 L196.596,62.8 C196.436,62.944 196.23,63.058 195.978,63.142 C195.726,63.226 195.46,63.268 195.18,63.268 C194.756,63.268 194.382,63.192 194.058,63.04 C193.734,62.888 193.462,62.672 193.242,62.392 C193.022,62.112 192.854,61.774 192.738,61.378 C192.622,60.982 192.564,60.536 192.564,60.04 C192.564,59.552 192.626,59.112 192.75,58.72 C192.874,58.328 193.048,57.994 193.272,57.718 C193.496,57.442 193.768,57.23 194.088,57.082 C194.408,56.934 194.768,56.86 195.168,56.86 C195.568,56.86 195.9,56.932 196.164,57.076 C196.428,57.22 196.66,57.396 196.86,57.604 L196.86,57.604 L197.412,56.956 C197.3,56.836 197.17,56.718 197.022,56.602 C196.874,56.486 196.706,56.382 196.518,56.29 C196.33,56.198 196.122,56.124 195.894,56.068 C195.666,56.012 195.416,55.984 195.144,55.984 C194.624,55.984 194.142,56.078 193.698,56.266 C193.254,56.454 192.872,56.724 192.552,57.076 C192.232,57.428 191.982,57.856 191.802,58.36 C191.622,58.864 191.532,59.432 191.532,60.064 C191.532,60.704 191.62,61.278 191.796,61.786 C191.972,62.294 192.216,62.722 192.528,63.07 C192.84,63.418 193.214,63.684 193.65,63.868 C194.086,64.052 194.564,64.144 195.084,64.144 Z M161.436,80.32 L161.436,79.072 C162.06,78.936 162.528,78.662 162.84,78.25 C163.152,77.838 163.308,77.344 163.308,76.768 C163.308,76.384 163.23,76.062 163.074,75.802 C162.918,75.542 162.722,75.32 162.486,75.136 C162.25,74.952 161.996,74.796 161.724,74.668 C161.452,74.54 161.198,74.416 160.962,74.296 C160.726,74.176 160.53,74.05 160.374,73.918 C160.218,73.786 160.14,73.624 160.14,73.432 C160.14,73.16 160.216,72.964 160.368,72.844 C160.52,72.724 160.74,72.664 161.028,72.664 C161.284,72.664 161.512,72.714 161.712,72.814 C161.912,72.914 162.12,73.064 162.336,73.264 L162.336,73.264 L163.224,72.256 C162.992,72.008 162.732,71.796 162.444,71.62 C162.156,71.444 161.82,71.328 161.436,71.272 L161.436,71.272 L161.436,70.06 L160.272,70.06 L160.272,71.296 C159.704,71.408 159.258,71.658 158.934,72.046 C158.61,72.434 158.448,72.924 158.448,73.516 C158.448,73.876 158.526,74.18 158.682,74.428 C158.838,74.676 159.034,74.892 159.27,75.076 C159.506,75.26 159.76,75.418 160.032,75.55 C160.304,75.682 160.558,75.814 160.794,75.946 C161.03,76.078 161.226,76.216 161.382,76.36 C161.538,76.504 161.616,76.68 161.616,76.888 C161.616,77.168 161.538,77.376 161.382,77.512 C161.226,77.648 160.98,77.716 160.644,77.716 C160.356,77.716 160.074,77.658 159.798,77.542 C159.522,77.426 159.232,77.252 158.928,77.02 L158.928,77.02 L158.16,78.208 C158.44,78.464 158.774,78.67 159.162,78.826 C159.55,78.982 159.92,79.08 160.272,79.12 L160.272,79.12 L160.272,80.32 L161.436,80.32 Z M166.944,79.144 C167.328,79.144 167.692,79.094 168.036,78.994 C168.38,78.894 168.68,78.75 168.936,78.562 C169.192,78.374 169.396,78.142 169.548,77.866 C169.7,77.59 169.776,77.276 169.776,76.924 C169.776,76.428 169.634,76.026 169.35,75.718 C169.066,75.41 168.704,75.192 168.264,75.064 L168.264,75.064 L168.264,75.016 C168.672,74.84 168.986,74.614 169.206,74.338 C169.426,74.062 169.536,73.724 169.536,73.324 C169.536,72.988 169.472,72.692 169.344,72.436 C169.216,72.18 169.038,71.962 168.81,71.782 C168.582,71.602 168.306,71.466 167.982,71.374 C167.658,71.282 167.3,71.236 166.908,71.236 C166.436,71.236 166.006,71.322 165.618,71.494 C165.23,71.666 164.86,71.904 164.508,72.208 L164.508,72.208 L165.396,73.288 C165.636,73.08 165.866,72.916 166.086,72.796 C166.306,72.676 166.552,72.616 166.824,72.616 C167.128,72.616 167.36,72.69 167.52,72.838 C167.68,72.986 167.76,73.192 167.76,73.456 C167.76,73.608 167.73,73.746 167.67,73.87 C167.61,73.994 167.51,74.102 167.37,74.194 C167.23,74.286 167.046,74.356 166.818,74.404 C166.59,74.452 166.304,74.476 165.96,74.476 L165.96,74.476 L165.96,75.724 C166.376,75.724 166.716,75.75 166.98,75.802 C167.244,75.854 167.452,75.926 167.604,76.018 C167.756,76.11 167.862,76.224 167.922,76.36 C167.982,76.496 168.012,76.648 168.012,76.816 C168.012,77.104 167.9,77.326 167.676,77.482 C167.452,77.638 167.152,77.716 166.776,77.716 C166.448,77.716 166.146,77.644 165.87,77.5 C165.594,77.356 165.34,77.172 165.108,76.948 L165.108,76.948 L164.292,78.064 C164.572,78.392 164.928,78.654 165.36,78.85 C165.792,79.046 166.32,79.144 166.944,79.144 Z M172.164,79.144 C172.468,79.144 172.722,79.038 172.926,78.826 C173.13,78.614 173.232,78.352 173.232,78.04 C173.232,77.72 173.13,77.454 172.926,77.242 C172.722,77.03 172.468,76.924 172.164,76.924 C171.86,76.924 171.606,77.03 171.402,77.242 C171.198,77.454 171.096,77.72 171.096,78.04 C171.096,78.352 171.198,78.614 171.402,78.826 C171.606,79.038 171.86,79.144 172.164,79.144 Z M177.132,79.144 C177.54,79.144 177.912,79.058 178.248,78.886 C178.584,78.714 178.87,78.46 179.106,78.124 C179.342,77.788 179.526,77.372 179.658,76.876 C179.79,76.38 179.856,75.808 179.856,75.16 C179.856,74.512 179.79,73.944 179.658,73.456 C179.526,72.968 179.342,72.558 179.106,72.226 C178.87,71.894 178.584,71.646 178.248,71.482 C177.912,71.318 177.54,71.236 177.132,71.236 C176.724,71.236 176.352,71.318 176.016,71.482 C175.68,71.646 175.394,71.894 175.158,72.226 C174.922,72.558 174.738,72.968 174.606,73.456 C174.474,73.944 174.408,74.512 174.408,75.16 C174.408,75.808 174.474,76.38 174.606,76.876 C174.738,77.372 174.922,77.788 175.158,78.124 C175.394,78.46 175.68,78.714 176.016,78.886 C176.352,79.058 176.724,79.144 177.132,79.144 Z M177.132,77.776 C176.988,77.776 176.852,77.738 176.724,77.662 C176.596,77.586 176.484,77.448 176.388,77.248 C176.292,77.048 176.216,76.78 176.16,76.444 C176.104,76.108 176.076,75.68 176.076,75.16 C176.076,74.64 176.104,74.214 176.16,73.882 C176.216,73.55 176.292,73.29 176.388,73.102 C176.484,72.914 176.596,72.784 176.724,72.712 C176.852,72.64 176.988,72.604 177.132,72.604 C177.284,72.604 177.424,72.64 177.552,72.712 C177.68,72.784 177.792,72.914 177.888,73.102 C177.984,73.29 178.058,73.55 178.11,73.882 C178.162,74.214 178.188,74.64 178.188,75.16 C178.188,75.68 178.162,76.108 178.11,76.444 C178.058,76.78 177.984,77.048 177.888,77.248 C177.792,77.448 177.68,77.586 177.552,77.662 C177.424,77.738 177.284,77.776 177.132,77.776 Z M183.456,79.144 C183.864,79.144 184.234,79.09 184.566,78.982 C184.898,78.874 185.182,78.726 185.418,78.538 C185.654,78.35 185.836,78.128 185.964,77.872 C186.092,77.616 186.156,77.336 186.156,77.032 C186.156,76.528 186.028,76.12 185.772,75.808 C185.516,75.496 185.204,75.24 184.836,75.04 L184.836,75.04 L184.836,74.992 C185.1,74.816 185.332,74.586 185.532,74.302 C185.732,74.018 185.832,73.692 185.832,73.324 C185.832,73.012 185.776,72.726 185.664,72.466 C185.552,72.206 185.396,71.986 185.196,71.806 C184.996,71.626 184.752,71.486 184.464,71.386 C184.176,71.286 183.86,71.236 183.516,71.236 C183.164,71.236 182.838,71.284 182.538,71.38 C182.238,71.476 181.98,71.616 181.764,71.8 C181.548,71.984 181.38,72.206 181.26,72.466 C181.14,72.726 181.08,73.016 181.08,73.336 C181.08,73.744 181.176,74.09 181.368,74.374 C181.56,74.658 181.804,74.912 182.1,75.136 L182.1,75.136 L182.1,75.184 C181.74,75.376 181.434,75.62 181.182,75.916 C180.93,76.212 180.804,76.592 180.804,77.056 C180.804,77.368 180.87,77.652 181.002,77.908 C181.134,78.164 181.318,78.384 181.554,78.568 C181.79,78.752 182.07,78.894 182.394,78.994 C182.718,79.094 183.072,79.144 183.456,79.144 Z M183.936,74.56 C183.544,74.408 183.228,74.244 182.988,74.068 C182.748,73.892 182.628,73.648 182.628,73.336 C182.628,73.04 182.712,72.82 182.88,72.676 C183.048,72.532 183.248,72.46 183.48,72.46 C183.768,72.46 183.994,72.55 184.158,72.73 C184.322,72.91 184.404,73.148 184.404,73.444 C184.404,73.828 184.248,74.2 183.936,74.56 Z M183.492,77.92 C183.172,77.92 182.896,77.826 182.664,77.638 C182.432,77.45 182.316,77.188 182.316,76.852 C182.316,76.62 182.372,76.4 182.484,76.192 C182.596,75.984 182.736,75.8 182.904,75.64 C183.144,75.744 183.362,75.84 183.558,75.928 C183.754,76.016 183.924,76.11 184.068,76.21 C184.212,76.31 184.322,76.42 184.398,76.54 C184.474,76.66 184.512,76.804 184.512,76.972 C184.512,77.292 184.416,77.53 184.224,77.686 C184.032,77.842 183.788,77.92 183.492,77.92 Z M190.86,79 L190.86,72.664 L193.008,72.664 L193.008,71.176 L186.936,71.176 L186.936,72.664 L189.084,72.664 L189.084,79 L190.86,79 Z" id="AVAILABLELENDING$3.08T" fill="#666666" fill-rule="nonzero"></path>
                <line x1="149" y1="33.5" x2="149" y2="21.5" id="Line-14-Copy-7" stroke="#D8D8D8" stroke-linecap="round" stroke-linejoin="round" stroke-dasharray="3,3"></line>
                <line x1="175.5" y1="91" x2="175.5" y2="83" id="Line-14-Copy-8" stroke="#979797" stroke-width="0.5" stroke-linecap="square"></line>
                <line x1="31.25" y1="91" x2="31.25" y2="83" id="Line-14-Copy-9" stroke="#979797" stroke-width="0.5" stroke-linecap="square"></line>
                <g id="Group-2" transform="translate(0.000000, 91.000000)">
                    <rect id="Rectangle-Copy-21" fill="#6F41A7" x="0" y="0" width="59" height="40"></rect>
                    <rect id="Rectangle-Copy-16" fill="#DAD1E4" x="62" y="0" width="235" height="40"></rect>
                </g>
            </g>
        </g>
    </g>
</svg>