<?xml version="1.0" encoding="UTF-8"?>
<svg width="824px" height="141px" viewBox="0 0 824 141" version="1.1" xmlns="http://www.w3.org/2000/svg" xmlns:xlink="http://www.w3.org/1999/xlink">
    <title>Viz 1-B-Desktop</title>
    <defs>
        <rect id="path-1" x="555.424821" y="101" width="193.575179" height="40"></rect>
        <mask id="mask-2" maskContentUnits="userSpaceOnUse" maskUnits="objectBoundingBox" x="0" y="0" width="193.575179" height="40" fill="white">
            <use xlink:href="#path-1"></use>
        </mask>
    </defs>
    <g id="SVG-2.0" stroke="none" stroke-width="1" fill="none" fill-rule="evenodd">
        <g id="Outline" transform="translate(-192.000000, -427.000000)">
            <g id="Viz-1-B-Desktop" transform="translate(193.000000, 427.000000)">
                <g>
                    <path d="M220.11,64 L220.11,59.884 C220.11,59.468 220.096,59.054 220.068,58.642 C220.04,58.23 220.01,57.824 219.978,57.424 L219.978,57.424 L220.026,57.424 L220.878,59.044 L223.734,64 L224.766,64 L224.766,56.128 L223.818,56.128 L223.818,60.196 C223.818,60.612 223.832,61.034 223.86,61.462 C223.888,61.89 223.914,62.304 223.938,62.704 L223.938,62.704 L223.89,62.704 L223.038,61.072 L220.194,56.128 L219.162,56.128 L219.162,64 L220.11,64 Z M231.582,64 L231.582,63.148 L227.922,63.148 L227.922,60.292 L230.91,60.292 L230.91,59.44 L227.922,59.44 L227.922,56.968 L231.462,56.968 L231.462,56.128 L226.926,56.128 L226.926,64 L231.582,64 Z M235.302,64 L236.466,59.26 C236.53,58.956 236.596,58.658 236.664,58.366 C236.732,58.074 236.798,57.776 236.862,57.472 L236.862,57.472 L236.91,57.472 C236.974,57.776 237.036,58.074 237.096,58.366 C237.156,58.658 237.222,58.956 237.294,59.26 L237.294,59.26 L238.482,64 L239.682,64 L241.314,56.128 L240.354,56.128 L239.526,60.412 C239.446,60.836 239.37,61.258 239.298,61.678 C239.226,62.098 239.154,62.524 239.082,62.956 L239.082,62.956 L239.034,62.956 C238.938,62.524 238.842,62.096 238.746,61.672 C238.65,61.248 238.554,60.828 238.458,60.412 L238.458,60.412 L237.366,56.128 L236.454,56.128 L235.362,60.412 C235.274,60.836 235.182,61.258 235.086,61.678 C234.99,62.098 234.898,62.524 234.81,62.956 L234.81,62.956 L234.762,62.956 C234.69,62.524 234.614,62.1 234.534,61.684 L234.417,61.054 L234.417,61.054 L234.306,60.412 L233.478,56.128 L232.446,56.128 L234.114,64 L235.302,64 Z M245.058,64 L245.814,61.6 L248.682,61.6 L249.426,64 L250.494,64 L247.83,56.128 L246.702,56.128 L244.038,64 L245.058,64 Z M248.43,60.796 L246.066,60.796 L246.438,59.596 C246.582,59.156 246.718,58.718 246.846,58.282 C246.974,57.846 247.098,57.4 247.218,56.944 L247.218,56.944 L247.266,56.944 C247.394,57.4 247.522,57.846 247.65,58.282 C247.778,58.718 247.914,59.156 248.058,59.596 L248.058,59.596 L248.43,60.796 Z M254.586,64.144 C255.114,64.144 255.586,64.058 256.002,63.886 C256.418,63.714 256.754,63.496 257.01,63.232 L257.01,63.232 L257.01,59.92 L254.43,59.92 L254.43,60.748 L256.098,60.748 L256.098,62.8 C255.938,62.944 255.732,63.058 255.48,63.142 C255.228,63.226 254.962,63.268 254.682,63.268 C254.258,63.268 253.884,63.192 253.56,63.04 C253.236,62.888 252.964,62.672 252.744,62.392 C252.524,62.112 252.356,61.774 252.24,61.378 C252.124,60.982 252.066,60.536 252.066,60.04 C252.066,59.552 252.128,59.112 252.252,58.72 C252.376,58.328 252.55,57.994 252.774,57.718 C252.998,57.442 253.27,57.23 253.59,57.082 C253.91,56.934 254.27,56.86 254.67,56.86 C255.07,56.86 255.402,56.932 255.666,57.076 C255.93,57.22 256.162,57.396 256.362,57.604 L256.362,57.604 L256.914,56.956 C256.802,56.836 256.672,56.718 256.524,56.602 C256.376,56.486 256.208,56.382 256.02,56.29 C255.832,56.198 255.624,56.124 255.396,56.068 C255.168,56.012 254.918,55.984 254.646,55.984 C254.126,55.984 253.644,56.078 253.2,56.266 C252.756,56.454 252.374,56.724 252.054,57.076 C251.734,57.428 251.484,57.856 251.304,58.36 C251.124,58.864 251.034,59.432 251.034,60.064 C251.034,60.704 251.122,61.278 251.298,61.786 C251.474,62.294 251.718,62.722 252.03,63.07 C252.342,63.418 252.716,63.684 253.152,63.868 C253.588,64.052 254.066,64.144 254.586,64.144 Z M263.55,64 L263.55,63.148 L259.89,63.148 L259.89,60.292 L262.878,60.292 L262.878,59.44 L259.89,59.44 L259.89,56.968 L263.43,56.968 L263.43,56.128 L258.894,56.128 L258.894,64 L263.55,64 Z M266.166,64 L266.166,59.884 C266.166,59.468 266.152,59.054 266.124,58.642 C266.096,58.23 266.066,57.824 266.034,57.424 L266.034,57.424 L266.082,57.424 L266.934,59.044 L269.79,64 L270.822,64 L270.822,56.128 L269.874,56.128 L269.874,60.196 C269.874,60.612 269.888,61.034 269.916,61.462 C269.944,61.89 269.97,62.304 269.994,62.704 L269.994,62.704 L269.946,62.704 L269.094,61.072 L266.25,56.128 L265.218,56.128 L265.218,64 L266.166,64 Z M275.958,64.144 C276.47,64.144 276.922,64.044 277.314,63.844 C277.706,63.644 278.058,63.364 278.37,63.004 L278.37,63.004 L277.818,62.38 C277.562,62.66 277.29,62.878 277.002,63.034 C276.714,63.19 276.378,63.268 275.994,63.268 C275.618,63.268 275.28,63.192 274.98,63.04 C274.68,62.888 274.426,62.672 274.218,62.392 C274.01,62.112 273.848,61.774 273.732,61.378 C273.616,60.982 273.558,60.536 273.558,60.04 C273.558,59.552 273.616,59.112 273.732,58.72 C273.848,58.328 274.014,57.994 274.23,57.718 C274.446,57.442 274.706,57.23 275.01,57.082 C275.314,56.934 275.654,56.86 276.03,56.86 C276.366,56.86 276.666,56.928 276.93,57.064 C277.194,57.2 277.43,57.38 277.638,57.604 L277.638,57.604 L278.178,56.956 C277.946,56.7 277.648,56.474 277.284,56.278 C276.92,56.082 276.498,55.984 276.018,55.984 C275.514,55.984 275.05,56.078 274.626,56.266 C274.202,56.454 273.834,56.724 273.522,57.076 C273.21,57.428 272.966,57.856 272.79,58.36 C272.614,58.864 272.526,59.432 272.526,60.064 C272.526,60.704 272.612,61.278 272.784,61.786 C272.956,62.294 273.196,62.722 273.504,63.07 C273.812,63.418 274.174,63.684 274.59,63.868 C275.006,64.052 275.462,64.144 275.958,64.144 Z M282.03,64 L282.03,60.952 L284.394,56.128 L283.35,56.128 L282.342,58.348 C282.222,58.636 282.094,58.92 281.958,59.2 C281.822,59.48 281.686,59.768 281.55,60.064 L281.55,60.064 L281.502,60.064 C281.366,59.768 281.238,59.48 281.118,59.2 C280.998,58.92 280.874,58.636 280.746,58.348 L280.746,58.348 L279.726,56.128 L278.658,56.128 L281.022,60.952 L281.022,64 L282.03,64 Z M288.858,64 L288.858,60.472 L291.858,60.472 L291.858,59.632 L288.858,59.632 L288.858,56.968 L292.398,56.968 L292.398,56.128 L287.862,56.128 L287.862,64 L288.858,64 Z M296.586,64.144 C296.986,64.144 297.358,64.086 297.702,63.97 C298.046,63.854 298.344,63.662 298.596,63.394 C298.848,63.126 299.046,62.776 299.19,62.344 C299.334,61.912 299.406,61.38 299.406,60.748 L299.406,60.748 L299.406,56.128 L298.446,56.128 L298.446,60.772 C298.446,61.244 298.398,61.64 298.302,61.96 C298.206,62.28 298.074,62.536 297.906,62.728 C297.738,62.92 297.542,63.058 297.318,63.142 C297.094,63.226 296.85,63.268 296.586,63.268 C296.33,63.268 296.09,63.226 295.866,63.142 C295.642,63.058 295.448,62.92 295.284,62.728 C295.12,62.536 294.99,62.28 294.894,61.96 C294.798,61.64 294.75,61.244 294.75,60.772 L294.75,60.772 L294.75,56.128 L293.754,56.128 L293.754,60.748 C293.754,61.38 293.826,61.912 293.97,62.344 C294.114,62.776 294.312,63.126 294.564,63.394 C294.816,63.662 295.116,63.854 295.464,63.97 C295.812,64.086 296.186,64.144 296.586,64.144 Z M302.478,64 L302.478,59.884 C302.478,59.468 302.464,59.054 302.436,58.642 C302.408,58.23 302.378,57.824 302.346,57.424 L302.346,57.424 L302.394,57.424 L303.246,59.044 L306.102,64 L307.134,64 L307.134,56.128 L306.186,56.128 L306.186,60.196 C306.186,60.612 306.2,61.034 306.228,61.462 C306.256,61.89 306.282,62.304 306.306,62.704 L306.306,62.704 L306.258,62.704 L305.406,61.072 L302.562,56.128 L301.53,56.128 L301.53,64 L302.478,64 Z M311.31,64 C311.902,64 312.426,63.91 312.882,63.73 C313.338,63.55 313.722,63.29 314.034,62.95 C314.346,62.61 314.582,62.194 314.742,61.702 C314.902,61.21 314.982,60.652 314.982,60.028 C314.982,58.772 314.666,57.808 314.034,57.136 C313.402,56.464 312.478,56.128 311.262,56.128 L311.262,56.128 L309.294,56.128 L309.294,64 L311.31,64 Z M311.19,63.184 L310.29,63.184 L310.29,56.944 L311.19,56.944 C312.11,56.944 312.8,57.208 313.26,57.736 C313.72,58.264 313.95,59.028 313.95,60.028 C313.95,61.028 313.72,61.804 313.26,62.356 C312.8,62.908 312.11,63.184 311.19,63.184 L311.19,63.184 Z M317.67,64 L317.67,56.128 L316.674,56.128 L316.674,64 L317.67,64 Z M320.778,64 L320.778,59.884 C320.778,59.468 320.764,59.054 320.736,58.642 C320.708,58.23 320.678,57.824 320.646,57.424 L320.646,57.424 L320.694,57.424 L321.546,59.044 L324.402,64 L325.434,64 L325.434,56.128 L324.486,56.128 L324.486,60.196 C324.486,60.612 324.5,61.034 324.528,61.462 C324.556,61.89 324.582,62.304 324.606,62.704 L324.606,62.704 L324.558,62.704 L323.706,61.072 L320.862,56.128 L319.83,56.128 L319.83,64 L320.778,64 Z M330.69,64.144 C331.218,64.144 331.69,64.058 332.106,63.886 C332.522,63.714 332.858,63.496 333.114,63.232 L333.114,63.232 L333.114,59.92 L330.534,59.92 L330.534,60.748 L332.202,60.748 L332.202,62.8 C332.042,62.944 331.836,63.058 331.584,63.142 C331.332,63.226 331.066,63.268 330.786,63.268 C330.362,63.268 329.988,63.192 329.664,63.04 C329.34,62.888 329.068,62.672 328.848,62.392 C328.628,62.112 328.46,61.774 328.344,61.378 C328.228,60.982 328.17,60.536 328.17,60.04 C328.17,59.552 328.232,59.112 328.356,58.72 C328.48,58.328 328.654,57.994 328.878,57.718 C329.102,57.442 329.374,57.23 329.694,57.082 C330.014,56.934 330.374,56.86 330.774,56.86 C331.174,56.86 331.506,56.932 331.77,57.076 C332.034,57.22 332.266,57.396 332.466,57.604 L332.466,57.604 L333.018,56.956 C332.906,56.836 332.776,56.718 332.628,56.602 C332.48,56.486 332.312,56.382 332.124,56.29 C331.936,56.198 331.728,56.124 331.5,56.068 C331.272,56.012 331.022,55.984 330.75,55.984 C330.23,55.984 329.748,56.078 329.304,56.266 C328.86,56.454 328.478,56.724 328.158,57.076 C327.838,57.428 327.588,57.856 327.408,58.36 C327.228,58.864 327.138,59.432 327.138,60.064 C327.138,60.704 327.226,61.278 327.402,61.786 C327.578,62.294 327.822,62.722 328.134,63.07 C328.446,63.418 328.82,63.684 329.256,63.868 C329.692,64.052 330.17,64.144 330.69,64.144 Z M261.936,80.32 L261.936,79.072 C262.56,78.936 263.028,78.662 263.34,78.25 C263.652,77.838 263.808,77.344 263.808,76.768 C263.808,76.384 263.73,76.062 263.574,75.802 C263.418,75.542 263.222,75.32 262.986,75.136 C262.75,74.952 262.496,74.796 262.224,74.668 C261.952,74.54 261.698,74.416 261.462,74.296 C261.226,74.176 261.03,74.05 260.874,73.918 C260.718,73.786 260.64,73.624 260.64,73.432 C260.64,73.16 260.716,72.964 260.868,72.844 C261.02,72.724 261.24,72.664 261.528,72.664 C261.784,72.664 262.012,72.714 262.212,72.814 C262.412,72.914 262.62,73.064 262.836,73.264 L262.836,73.264 L263.724,72.256 C263.492,72.008 263.232,71.796 262.944,71.62 C262.656,71.444 262.32,71.328 261.936,71.272 L261.936,71.272 L261.936,70.06 L260.772,70.06 L260.772,71.296 C260.204,71.408 259.758,71.658 259.434,72.046 C259.11,72.434 258.948,72.924 258.948,73.516 C258.948,73.876 259.026,74.18 259.182,74.428 C259.338,74.676 259.534,74.892 259.77,75.076 C260.006,75.26 260.26,75.418 260.532,75.55 C260.804,75.682 261.058,75.814 261.294,75.946 C261.53,76.078 261.726,76.216 261.882,76.36 C262.038,76.504 262.116,76.68 262.116,76.888 C262.116,77.168 262.038,77.376 261.882,77.512 C261.726,77.648 261.48,77.716 261.144,77.716 C260.856,77.716 260.574,77.658 260.298,77.542 C260.022,77.426 259.732,77.252 259.428,77.02 L259.428,77.02 L258.66,78.208 C258.94,78.464 259.274,78.67 259.662,78.826 C260.05,78.982 260.42,79.08 260.772,79.12 L260.772,79.12 L260.772,80.32 L261.936,80.32 Z M270.336,79 L270.336,77.512 L268.8,77.512 C268.616,77.512 268.406,77.522 268.17,77.542 C267.934,77.562 267.72,77.584 267.528,77.608 C267.84,77.288 268.142,76.962 268.434,76.63 C268.726,76.298 268.986,75.966 269.214,75.634 C269.442,75.302 269.624,74.97 269.76,74.638 C269.896,74.306 269.964,73.98 269.964,73.66 C269.964,73.292 269.904,72.96 269.784,72.664 C269.664,72.368 269.492,72.114 269.268,71.902 C269.044,71.69 268.778,71.526 268.47,71.41 C268.162,71.294 267.82,71.236 267.444,71.236 C266.9,71.236 266.432,71.338 266.04,71.542 C265.648,71.746 265.264,72.048 264.888,72.448 L264.888,72.448 L265.848,73.396 C266.04,73.188 266.244,73.006 266.46,72.85 C266.676,72.694 266.924,72.616 267.204,72.616 C267.54,72.616 267.804,72.714 267.996,72.91 C268.188,73.106 268.284,73.392 268.284,73.768 C268.284,74.04 268.202,74.326 268.038,74.626 C267.874,74.926 267.646,75.25 267.354,75.598 C267.062,75.946 266.714,76.318 266.31,76.714 C265.906,77.11 265.46,77.536 264.972,77.992 L264.972,77.992 L264.972,79 L270.336,79 Z M272.664,79.144 C272.968,79.144 273.222,79.038 273.426,78.826 C273.63,78.614 273.732,78.352 273.732,78.04 C273.732,77.72 273.63,77.454 273.426,77.242 C273.222,77.03 272.968,76.924 272.664,76.924 C272.36,76.924 272.106,77.03 271.902,77.242 C271.698,77.454 271.596,77.72 271.596,78.04 C271.596,78.352 271.698,78.614 271.902,78.826 C272.106,79.038 272.36,79.144 272.664,79.144 Z M277.428,79.144 C277.796,79.144 278.15,79.084 278.49,78.964 C278.83,78.844 279.128,78.67 279.384,78.442 C279.64,78.214 279.844,77.936 279.996,77.608 C280.148,77.28 280.224,76.904 280.224,76.48 C280.224,76.072 280.16,75.72 280.032,75.424 C279.904,75.128 279.728,74.884 279.504,74.692 C279.28,74.5 279.022,74.356 278.73,74.26 C278.438,74.164 278.128,74.116 277.8,74.116 C277.64,74.116 277.494,74.13 277.362,74.158 C277.23,74.186 277.092,74.232 276.948,74.296 L276.948,74.296 L277.08,72.868 L279.876,72.868 L279.876,71.38 L275.556,71.38 L275.34,75.232 L276.132,75.736 C276.244,75.664 276.346,75.604 276.438,75.556 C276.53,75.508 276.618,75.468 276.702,75.436 C276.786,75.404 276.872,75.382 276.96,75.37 C277.048,75.358 277.148,75.352 277.26,75.352 C277.62,75.352 277.91,75.452 278.13,75.652 C278.35,75.852 278.46,76.144 278.46,76.528 C278.46,76.92 278.344,77.216 278.112,77.416 C277.88,77.616 277.568,77.716 277.176,77.716 C276.848,77.716 276.55,77.642 276.282,77.494 C276.014,77.346 275.764,77.168 275.532,76.96 L275.532,76.96 L274.74,78.076 C275.044,78.38 275.412,78.634 275.844,78.838 C276.276,79.042 276.804,79.144 277.428,79.144 Z M283.548,79.144 C283.948,79.144 284.334,79.062 284.706,78.898 C285.078,78.734 285.406,78.484 285.69,78.148 C285.974,77.812 286.202,77.384 286.374,76.864 C286.546,76.344 286.632,75.728 286.632,75.016 C286.632,74.344 286.55,73.77 286.386,73.294 C286.222,72.818 286.006,72.428 285.738,72.124 C285.47,71.82 285.162,71.596 284.814,71.452 C284.466,71.308 284.108,71.236 283.74,71.236 C283.396,71.236 283.07,71.294 282.762,71.41 C282.454,71.526 282.186,71.696 281.958,71.92 C281.73,72.144 281.548,72.414 281.412,72.73 C281.276,73.046 281.208,73.4 281.208,73.792 C281.208,74.192 281.266,74.54 281.382,74.836 C281.498,75.132 281.656,75.376 281.856,75.568 C282.056,75.76 282.294,75.904 282.57,76 C282.846,76.096 283.148,76.144 283.476,76.144 C283.596,76.144 283.724,76.126 283.86,76.09 C283.996,76.054 284.132,76.002 284.268,75.934 C284.404,75.866 284.536,75.782 284.664,75.682 C284.792,75.582 284.904,75.468 285,75.34 C284.984,75.788 284.934,76.162 284.85,76.462 C284.766,76.762 284.654,77.006 284.514,77.194 C284.374,77.382 284.212,77.516 284.028,77.596 C283.844,77.676 283.644,77.716 283.428,77.716 C283.204,77.716 282.984,77.662 282.768,77.554 C282.552,77.446 282.38,77.32 282.252,77.176 L282.252,77.176 L281.316,78.232 C281.556,78.472 281.862,78.684 282.234,78.868 C282.606,79.052 283.044,79.144 283.548,79.144 Z M283.824,74.896 C283.536,74.896 283.296,74.814 283.104,74.65 C282.912,74.486 282.816,74.2 282.816,73.792 C282.816,73.36 282.912,73.046 283.104,72.85 C283.296,72.654 283.52,72.556 283.776,72.556 C284.048,72.556 284.294,72.67 284.514,72.898 C284.734,73.126 284.884,73.54 284.964,74.14 C284.812,74.412 284.634,74.606 284.43,74.722 C284.226,74.838 284.024,74.896 283.824,74.896 Z M291.36,79 L291.36,72.664 L293.508,72.664 L293.508,71.176 L287.436,71.176 L287.436,72.664 L289.584,72.664 L289.584,79 L291.36,79 Z" id="NEWAGENCYFUNDING$2.59T" fill="#666666" fill-rule="nonzero"></path>
                    <path d="M236.96,12 L236.96,2.624 L240.128,2.624 L240.128,1.504 L232.448,1.504 L232.448,2.624 L235.616,2.624 L235.616,12 L236.96,12 Z M243.856,12.192 C244.336,12.192 244.792,12.1013333 245.224,11.92 C245.656,11.7386667 246.037333,11.4746667 246.368,11.128 C246.698667,10.7813333 246.962667,10.3546667 247.16,9.848 C247.357333,9.34133333 247.456,8.768 247.456,8.128 C247.456,7.47733333 247.357333,6.89866667 247.16,6.392 C246.962667,5.88533333 246.698667,5.456 246.368,5.104 C246.037333,4.752 245.656,4.48533333 245.224,4.304 C244.792,4.12266667 244.336,4.032 243.856,4.032 C243.376,4.032 242.92,4.12266667 242.488,4.304 C242.056,4.48533333 241.674667,4.752 241.344,5.104 C241.013333,5.456 240.749333,5.88533333 240.552,6.392 C240.354667,6.89866667 240.256,7.47733333 240.256,8.128 C240.256,8.768 240.354667,9.34133333 240.552,9.848 C240.749333,10.3546667 241.013333,10.7813333 241.344,11.128 C241.674667,11.4746667 242.056,11.7386667 242.488,11.92 C242.92,12.1013333 243.376,12.192 243.856,12.192 Z M243.856,11.104 C243.525333,11.104 243.221333,11.032 242.944,10.888 C242.666667,10.744 242.429333,10.5413333 242.232,10.28 C242.034667,10.0186667 241.882667,9.70666667 241.776,9.344 C241.669333,8.98133333 241.616,8.576 241.616,8.128 C241.616,7.68 241.669333,7.272 241.776,6.904 C241.882667,6.536 242.034667,6.21866667 242.232,5.952 C242.429333,5.68533333 242.666667,5.48 242.944,5.336 C243.221333,5.192 243.525333,5.12 243.856,5.12 C244.186667,5.12 244.490667,5.192 244.768,5.336 C245.045333,5.48 245.282667,5.68533333 245.48,5.952 C245.677333,6.21866667 245.829333,6.536 245.936,6.904 C246.042667,7.272 246.096,7.68 246.096,8.128 C246.096,8.576 246.042667,8.98133333 245.936,9.344 C245.829333,9.70666667 245.677333,10.0186667 245.48,10.28 C245.282667,10.5413333 245.045333,10.744 244.768,10.888 C244.490667,11.032 244.186667,11.104 243.856,11.104 Z M251.68,12.192 C251.925333,12.192 252.173333,12.1626667 252.424,12.104 C252.674667,12.0453333 252.906667,11.9786667 253.12,11.904 L253.12,11.904 L252.864,10.912 C252.736,10.9653333 252.592,11.0133333 252.432,11.056 C252.272,11.0986667 252.122667,11.12 251.984,11.12 C251.536,11.12 251.224,10.9893333 251.048,10.728 C250.872,10.4666667 250.784,10.096 250.784,9.616 L250.784,9.616 L250.784,5.296 L252.88,5.296 L252.88,4.224 L250.784,4.224 L250.784,2.048 L249.68,2.048 L249.52,4.224 L248.304,4.304 L248.304,5.296 L249.456,5.296 L249.456,9.6 C249.456,9.984 249.493333,10.336 249.568,10.656 C249.642667,10.976 249.768,11.248 249.944,11.472 C250.12,11.696 250.349333,11.872 250.632,12 C250.914667,12.128 251.264,12.192 251.68,12.192 Z M256.096,12.192 C256.586667,12.192 257.045333,12.0826667 257.472,11.864 C257.898667,11.6453333 258.298667,11.3813333 258.672,11.072 L258.672,11.072 L258.72,11.072 L258.832,12 L259.92,12 L259.92,7.232 C259.92,6.26133333 259.706667,5.48533333 259.28,4.904 C258.853333,4.32266667 258.165333,4.032 257.216,4.032 C256.586667,4.032 256.010667,4.14133333 255.488,4.36 C254.965333,4.57866667 254.522667,4.80533333 254.16,5.04 L254.16,5.04 L254.672,5.952 C254.981333,5.73866667 255.333333,5.54666667 255.728,5.376 C256.122667,5.20533333 256.544,5.12 256.992,5.12 C257.312,5.12 257.576,5.176 257.784,5.288 C257.992,5.4 258.154667,5.54666667 258.272,5.728 C258.389333,5.90933333 258.472,6.11733333 258.52,6.352 C258.568,6.58666667 258.592,6.82666667 258.592,7.072 C256.928,7.25333333 255.717333,7.57066667 254.96,8.024 C254.202667,8.47733333 253.824,9.13066667 253.824,9.984 C253.824,10.688 254.04,11.232 254.472,11.616 C254.904,12 255.445333,12.192 256.096,12.192 Z M256.48,11.136 C256.096,11.136 255.770667,11.04 255.504,10.848 C255.237333,10.656 255.104,10.336 255.104,9.888 C255.104,9.64266667 255.165333,9.416 255.288,9.208 C255.410667,9 255.608,8.816 255.88,8.656 C256.152,8.496 256.509333,8.35733333 256.952,8.24 C257.394667,8.12266667 257.941333,8.02133333 258.592,7.936 L258.592,7.936 L258.592,10.096 C258.218667,10.4373333 257.866667,10.696 257.536,10.872 C257.205333,11.048 256.853333,11.136 256.48,11.136 Z M263.76,12.192 C263.941333,12.192 264.090667,12.1813333 264.208,12.16 C264.325333,12.1386667 264.426667,12.1066667 264.512,12.064 L264.512,12.064 L264.336,11.072 C264.261333,11.0933333 264.205333,11.104 264.168,11.104 L264.168,11.104 L264.048,11.104 C263.952,11.104 263.866667,11.0613333 263.792,10.976 C263.717333,10.8906667 263.68,10.7413333 263.68,10.528 L263.68,10.528 L263.68,0.608 L262.368,0.608 L262.368,10.432 C262.368,11.008 262.474667,11.4453333 262.688,11.744 C262.901333,12.0426667 263.258667,12.192 263.76,12.192 Z M275.984,12 L275.984,10.864 L271.104,10.864 L271.104,7.056 L275.088,7.056 L275.088,5.92 L271.104,5.92 L271.104,2.624 L275.824,2.624 L275.824,1.504 L269.776,1.504 L269.776,12 L275.984,12 Z M280.112,12.192 C280.570667,12.192 280.978667,12.1306667 281.336,12.008 C281.693333,11.8853333 281.992,11.7173333 282.232,11.504 C282.472,11.2906667 282.653333,11.0453333 282.776,10.768 C282.898667,10.4906667 282.96,10.192 282.96,9.872 C282.96,9.50933333 282.888,9.2 282.744,8.944 C282.6,8.688 282.416,8.472 282.192,8.296 C281.968,8.12 281.714667,7.97333333 281.432,7.856 C281.149333,7.73866667 280.869333,7.62666667 280.592,7.52 C280.368,7.43466667 280.152,7.352 279.944,7.272 C279.736,7.192 279.552,7.10133333 279.392,7 C279.232,6.89866667 279.104,6.78133333 279.008,6.648 C278.912,6.51466667 278.864,6.35733333 278.864,6.176 C278.864,5.87733333 278.978667,5.616 279.208,5.392 C279.437333,5.168 279.797333,5.056 280.288,5.056 C280.629333,5.056 280.944,5.12 281.232,5.248 C281.52,5.376 281.797333,5.54133333 282.064,5.744 L282.064,5.744 L282.688,4.912 C282.389333,4.66666667 282.034667,4.45866667 281.624,4.288 C281.213333,4.11733333 280.762667,4.032 280.272,4.032 C279.856,4.032 279.482667,4.088 279.152,4.2 C278.821333,4.312 278.541333,4.46666667 278.312,4.664 C278.082667,4.86133333 277.906667,5.096 277.784,5.368 C277.661333,5.64 277.6,5.93066667 277.6,6.24 C277.6,6.57066667 277.669333,6.85333333 277.808,7.088 C277.946667,7.32266667 278.125333,7.528 278.344,7.704 C278.562667,7.88 278.810667,8.02933333 279.088,8.152 C279.365333,8.27466667 279.642667,8.384 279.92,8.48 L279.92,8.48 L280.56,8.736 C280.773333,8.82133333 280.962667,8.92 281.128,9.032 C281.293333,9.144 281.429333,9.27466667 281.536,9.424 C281.642667,9.57333333 281.696,9.74933333 281.696,9.952 C281.696,10.2933333 281.568,10.5813333 281.312,10.816 C281.056,11.0506667 280.672,11.168 280.16,11.168 C279.690667,11.168 279.277333,11.0826667 278.92,10.912 C278.562667,10.7413333 278.213333,10.5173333 277.872,10.24 L277.872,10.24 L277.216,11.12 C277.589333,11.4293333 278.026667,11.6853333 278.528,11.888 C279.029333,12.0906667 279.557333,12.192 280.112,12.192 Z M286.912,12.192 C287.157333,12.192 287.405333,12.1626667 287.656,12.104 C287.906667,12.0453333 288.138667,11.9786667 288.352,11.904 L288.352,11.904 L288.096,10.912 C287.968,10.9653333 287.824,11.0133333 287.664,11.056 C287.504,11.0986667 287.354667,11.12 287.216,11.12 C286.768,11.12 286.456,10.9893333 286.28,10.728 C286.104,10.4666667 286.016,10.096 286.016,9.616 L286.016,9.616 L286.016,5.296 L288.112,5.296 L288.112,4.224 L286.016,4.224 L286.016,2.048 L284.912,2.048 L284.752,4.224 L283.536,4.304 L283.536,5.296 L284.688,5.296 L284.688,9.6 C284.688,9.984 284.725333,10.336 284.8,10.656 C284.874667,10.976 285,11.248 285.176,11.472 C285.352,11.696 285.581333,11.872 285.864,12 C286.146667,12.128 286.496,12.192 286.912,12.192 Z M290.544,2.624 C290.8,2.624 291.016,2.544 291.192,2.384 C291.368,2.224 291.456,2.02133333 291.456,1.776 C291.456,1.52 291.368,1.31466667 291.192,1.16 C291.016,1.00533333 290.8,0.928 290.544,0.928 C290.288,0.928 290.072,1.00533333 289.896,1.16 C289.72,1.31466667 289.632,1.52 289.632,1.776 C289.632,2.02133333 289.72,2.224 289.896,2.384 C290.072,2.544 290.288,2.624 290.544,2.624 Z M291.184,12 L291.184,4.224 L289.872,4.224 L289.872,12 L291.184,12 Z M295.12,12 L295.12,6.368 C295.834667,5.568 296.485333,5.168 297.072,5.168 C297.573333,5.168 297.941333,5.33066667 298.176,5.656 C298.410667,5.98133333 298.528,6.512 298.528,7.248 L298.528,7.248 L298.528,12 L299.84,12 L299.84,6.368 C300.554667,5.568 301.205333,5.168 301.792,5.168 C302.282667,5.168 302.645333,5.33066667 302.88,5.656 C303.114667,5.98133333 303.232,6.512 303.232,7.248 L303.232,7.248 L303.232,12 L304.544,12 L304.544,7.072 C304.544,6.06933333 304.349333,5.312 303.96,4.8 C303.570667,4.288 302.976,4.032 302.176,4.032 C301.696,4.032 301.250667,4.168 300.84,4.44 C300.429333,4.712 300.021333,5.072 299.616,5.52 C299.456,5.05066667 299.208,4.68533333 298.872,4.424 C298.536,4.16266667 298.069333,4.032 297.472,4.032 C297.002667,4.032 296.568,4.15733333 296.168,4.408 C295.768,4.65866667 295.397333,4.97066667 295.056,5.344 L295.056,5.344 L295.008,5.344 L294.896,4.224 L293.808,4.224 L293.808,12 L295.12,12 Z M308.864,12.192 C309.354667,12.192 309.813333,12.0826667 310.24,11.864 C310.666667,11.6453333 311.066667,11.3813333 311.44,11.072 L311.44,11.072 L311.488,11.072 L311.6,12 L312.688,12 L312.688,7.232 C312.688,6.26133333 312.474667,5.48533333 312.048,4.904 C311.621333,4.32266667 310.933333,4.032 309.984,4.032 C309.354667,4.032 308.778667,4.14133333 308.256,4.36 C307.733333,4.57866667 307.290667,4.80533333 306.928,5.04 L306.928,5.04 L307.44,5.952 C307.749333,5.73866667 308.101333,5.54666667 308.496,5.376 C308.890667,5.20533333 309.312,5.12 309.76,5.12 C310.08,5.12 310.344,5.176 310.552,5.288 C310.76,5.4 310.922667,5.54666667 311.04,5.728 C311.157333,5.90933333 311.24,6.11733333 311.288,6.352 C311.336,6.58666667 311.36,6.82666667 311.36,7.072 C309.696,7.25333333 308.485333,7.57066667 307.728,8.024 C306.970667,8.47733333 306.592,9.13066667 306.592,9.984 C306.592,10.688 306.808,11.232 307.24,11.616 C307.672,12 308.213333,12.192 308.864,12.192 Z M309.248,11.136 C308.864,11.136 308.538667,11.04 308.272,10.848 C308.005333,10.656 307.872,10.336 307.872,9.888 C307.872,9.64266667 307.933333,9.416 308.056,9.208 C308.178667,9 308.376,8.816 308.648,8.656 C308.92,8.496 309.277333,8.35733333 309.72,8.24 C310.162667,8.12266667 310.709333,8.02133333 311.36,7.936 L311.36,7.936 L311.36,10.096 C310.986667,10.4373333 310.634667,10.696 310.304,10.872 C309.973333,11.048 309.621333,11.136 309.248,11.136 Z M317.36,12.192 C317.605333,12.192 317.853333,12.1626667 318.104,12.104 C318.354667,12.0453333 318.586667,11.9786667 318.8,11.904 L318.8,11.904 L318.544,10.912 C318.416,10.9653333 318.272,11.0133333 318.112,11.056 C317.952,11.0986667 317.802667,11.12 317.664,11.12 C317.216,11.12 316.904,10.9893333 316.728,10.728 C316.552,10.4666667 316.464,10.096 316.464,9.616 L316.464,9.616 L316.464,5.296 L318.56,5.296 L318.56,4.224 L316.464,4.224 L316.464,2.048 L315.36,2.048 L315.2,4.224 L313.984,4.304 L313.984,5.296 L315.136,5.296 L315.136,9.6 C315.136,9.984 315.173333,10.336 315.248,10.656 C315.322667,10.976 315.448,11.248 315.624,11.472 C315.8,11.696 316.029333,11.872 316.312,12 C316.594667,12.128 316.944,12.192 317.36,12.192 Z M323.248,12.192 C323.781333,12.192 324.256,12.112 324.672,11.952 C325.088,11.792 325.466667,11.6053333 325.808,11.392 L325.808,11.392 L325.344,10.528 C325.056,10.7093333 324.754667,10.856 324.44,10.968 C324.125333,11.08 323.781333,11.136 323.408,11.136 C322.661333,11.136 322.056,10.8933333 321.592,10.408 C321.128,9.92266667 320.869333,9.264 320.816,8.432 L320.816,8.432 L326.064,8.432 C326.085333,8.336 326.098667,8.22133333 326.104,8.088 C326.109333,7.95466667 326.112,7.81866667 326.112,7.68 C326.112,7.12533333 326.042667,6.624 325.904,6.176 C325.765333,5.728 325.565333,5.344 325.304,5.024 C325.042667,4.704 324.717333,4.45866667 324.328,4.288 C323.938667,4.11733333 323.498667,4.032 323.008,4.032 C322.56,4.032 322.128,4.12533333 321.712,4.312 C321.296,4.49866667 320.925333,4.768 320.6,5.12 C320.274667,5.472 320.013333,5.90133333 319.816,6.408 C319.618667,6.91466667 319.52,7.488 319.52,8.128 C319.52,8.768 319.616,9.33866667 319.808,9.84 C320,10.3413333 320.264,10.7653333 320.6,11.112 C320.936,11.4586667 321.330667,11.7253333 321.784,11.912 C322.237333,12.0986667 322.725333,12.192 323.248,12.192 Z M324.96,7.488 L320.8,7.488 C320.842667,7.104 320.930667,6.76266667 321.064,6.464 C321.197333,6.16533333 321.365333,5.912 321.568,5.704 C321.770667,5.496 321.997333,5.33866667 322.248,5.232 C322.498667,5.12533333 322.762667,5.072 323.04,5.072 C323.648,5.072 324.12,5.27733333 324.456,5.688 C324.792,6.09866667 324.96,6.69866667 324.96,7.488 L324.96,7.488 Z M330.688,12.192 C331.146667,12.192 331.576,12.0826667 331.976,11.864 C332.376,11.6453333 332.730667,11.3866667 333.04,11.088 L333.04,11.088 L333.088,11.088 L333.2,12 L334.288,12 L334.288,0.608 L332.96,0.608 L332.96,3.6 L333.024,4.928 C332.682667,4.65066667 332.346667,4.432 332.016,4.272 C331.685333,4.112 331.296,4.032 330.848,4.032 C330.4,4.032 329.973333,4.128 329.568,4.32 C329.162667,4.512 328.805333,4.784 328.496,5.136 C328.186667,5.488 327.938667,5.91733333 327.752,6.424 C327.565333,6.93066667 327.472,7.49866667 327.472,8.128 C327.472,9.42933333 327.762667,10.432 328.344,11.136 C328.925333,11.84 329.706667,12.192 330.688,12.192 Z M330.976,11.088 C330.293333,11.088 329.765333,10.8266667 329.392,10.304 C329.018667,9.78133333 328.832,9.05066667 328.832,8.112 C328.832,7.664 328.890667,7.25866667 329.008,6.896 C329.125333,6.53333333 329.285333,6.22133333 329.488,5.96 C329.690667,5.69866667 329.928,5.496 330.2,5.352 C330.472,5.208 330.762667,5.136 331.072,5.136 C331.392,5.136 331.704,5.19733333 332.008,5.32 C332.312,5.44266667 332.629333,5.65333333 332.96,5.952 L332.96,5.952 L332.96,10.016 C332.64,10.3786667 332.32,10.648 332,10.824 C331.68,11 331.338667,11.088 330.976,11.088 Z M343.712,12 L347.04,1.504 L345.68,1.504 L344,7.168 C343.818667,7.79733333 343.653333,8.37866667 343.504,8.912 C343.354667,9.44533333 343.184,10.0213333 342.992,10.64 L342.992,10.64 L342.928,10.64 C342.725333,10.0213333 342.552,9.44533333 342.408,8.912 C342.264,8.37866667 342.096,7.79733333 341.904,7.168 L341.904,7.168 L340.224,1.504 L338.8,1.504 L342.16,12 L343.712,12 Z M349.792,12.192 C350.282667,12.192 350.741333,12.0826667 351.168,11.864 C351.594667,11.6453333 351.994667,11.3813333 352.368,11.072 L352.368,11.072 L352.416,11.072 L352.528,12 L353.616,12 L353.616,7.232 C353.616,6.26133333 353.402667,5.48533333 352.976,4.904 C352.549333,4.32266667 351.861333,4.032 350.912,4.032 C350.282667,4.032 349.706667,4.14133333 349.184,4.36 C348.661333,4.57866667 348.218667,4.80533333 347.856,5.04 L347.856,5.04 L348.368,5.952 C348.677333,5.73866667 349.029333,5.54666667 349.424,5.376 C349.818667,5.20533333 350.24,5.12 350.688,5.12 C351.008,5.12 351.272,5.176 351.48,5.288 C351.688,5.4 351.850667,5.54666667 351.968,5.728 C352.085333,5.90933333 352.168,6.11733333 352.216,6.352 C352.264,6.58666667 352.288,6.82666667 352.288,7.072 C350.624,7.25333333 349.413333,7.57066667 348.656,8.024 C347.898667,8.47733333 347.52,9.13066667 347.52,9.984 C347.52,10.688 347.736,11.232 348.168,11.616 C348.6,12 349.141333,12.192 349.792,12.192 Z M350.176,11.136 C349.792,11.136 349.466667,11.04 349.2,10.848 C348.933333,10.656 348.8,10.336 348.8,9.888 C348.8,9.64266667 348.861333,9.416 348.984,9.208 C349.106667,9 349.304,8.816 349.576,8.656 C349.848,8.496 350.205333,8.35733333 350.648,8.24 C351.090667,8.12266667 351.637333,8.02133333 352.288,7.936 L352.288,7.936 L352.288,10.096 C351.914667,10.4373333 351.562667,10.696 351.232,10.872 C350.901333,11.048 350.549333,11.136 350.176,11.136 Z M357.456,12.192 C357.637333,12.192 357.786667,12.1813333 357.904,12.16 C358.021333,12.1386667 358.122667,12.1066667 358.208,12.064 L358.208,12.064 L358.032,11.072 C357.957333,11.0933333 357.901333,11.104 357.864,11.104 L357.864,11.104 L357.744,11.104 C357.648,11.104 357.562667,11.0613333 357.488,10.976 C357.413333,10.8906667 357.376,10.7413333 357.376,10.528 L357.376,10.528 L357.376,0.608 L356.064,0.608 L356.064,10.432 C356.064,11.008 356.170667,11.4453333 356.384,11.744 C356.597333,12.0426667 356.954667,12.192 357.456,12.192 Z M362.416,12.192 C362.96,12.192 363.432,12.064 363.832,11.808 C364.232,11.552 364.613333,11.2106667 364.976,10.784 L364.976,10.784 L365.024,10.784 L365.136,12 L366.224,12 L366.224,4.224 L364.912,4.224 L364.912,9.744 C364.538667,10.2026667 364.197333,10.536 363.888,10.744 C363.578667,10.952 363.221333,11.056 362.816,11.056 C362.304,11.056 361.933333,10.8933333 361.704,10.568 C361.474667,10.2426667 361.36,9.712 361.36,8.976 L361.36,8.976 L361.36,4.224 L360.032,4.224 L360.032,9.152 C360.032,10.1546667 360.221333,10.912 360.6,11.424 C360.978667,11.936 361.584,12.192 362.416,12.192 Z M372,12.192 C372.533333,12.192 373.008,12.112 373.424,11.952 C373.84,11.792 374.218667,11.6053333 374.56,11.392 L374.56,11.392 L374.096,10.528 C373.808,10.7093333 373.506667,10.856 373.192,10.968 C372.877333,11.08 372.533333,11.136 372.16,11.136 C371.413333,11.136 370.808,10.8933333 370.344,10.408 C369.88,9.92266667 369.621333,9.264 369.568,8.432 L369.568,8.432 L374.816,8.432 C374.837333,8.336 374.850667,8.22133333 374.856,8.088 C374.861333,7.95466667 374.864,7.81866667 374.864,7.68 C374.864,7.12533333 374.794667,6.624 374.656,6.176 C374.517333,5.728 374.317333,5.344 374.056,5.024 C373.794667,4.704 373.469333,4.45866667 373.08,4.288 C372.690667,4.11733333 372.250667,4.032 371.76,4.032 C371.312,4.032 370.88,4.12533333 370.464,4.312 C370.048,4.49866667 369.677333,4.768 369.352,5.12 C369.026667,5.472 368.765333,5.90133333 368.568,6.408 C368.370667,6.91466667 368.272,7.488 368.272,8.128 C368.272,8.768 368.368,9.33866667 368.56,9.84 C368.752,10.3413333 369.016,10.7653333 369.352,11.112 C369.688,11.4586667 370.082667,11.7253333 370.536,11.912 C370.989333,12.0986667 371.477333,12.192 372,12.192 Z M373.712,7.488 L369.552,7.488 C369.594667,7.104 369.682667,6.76266667 369.816,6.464 C369.949333,6.16533333 370.117333,5.912 370.32,5.704 C370.522667,5.496 370.749333,5.33866667 371,5.232 C371.250667,5.12533333 371.514667,5.072 371.792,5.072 C372.4,5.072 372.872,5.27733333 373.208,5.688 C373.544,6.09866667 373.712,6.69866667 373.712,7.488 L373.712,7.488 Z M383.008,12.192 C383.488,12.192 383.944,12.1013333 384.376,11.92 C384.808,11.7386667 385.189333,11.4746667 385.52,11.128 C385.850667,10.7813333 386.114667,10.3546667 386.312,9.848 C386.509333,9.34133333 386.608,8.768 386.608,8.128 C386.608,7.47733333 386.509333,6.89866667 386.312,6.392 C386.114667,5.88533333 385.850667,5.456 385.52,5.104 C385.189333,4.752 384.808,4.48533333 384.376,4.304 C383.944,4.12266667 383.488,4.032 383.008,4.032 C382.528,4.032 382.072,4.12266667 381.64,4.304 C381.208,4.48533333 380.826667,4.752 380.496,5.104 C380.165333,5.456 379.901333,5.88533333 379.704,6.392 C379.506667,6.89866667 379.408,7.47733333 379.408,8.128 C379.408,8.768 379.506667,9.34133333 379.704,9.848 C379.901333,10.3546667 380.165333,10.7813333 380.496,11.128 C380.826667,11.4746667 381.208,11.7386667 381.64,11.92 C382.072,12.1013333 382.528,12.192 383.008,12.192 Z M383.008,11.104 C382.677333,11.104 382.373333,11.032 382.096,10.888 C381.818667,10.744 381.581333,10.5413333 381.384,10.28 C381.186667,10.0186667 381.034667,9.70666667 380.928,9.344 C380.821333,8.98133333 380.768,8.576 380.768,8.128 C380.768,7.68 380.821333,7.272 380.928,6.904 C381.034667,6.536 381.186667,6.21866667 381.384,5.952 C381.581333,5.68533333 381.818667,5.48 382.096,5.336 C382.373333,5.192 382.677333,5.12 383.008,5.12 C383.338667,5.12 383.642667,5.192 383.92,5.336 C384.197333,5.48 384.434667,5.68533333 384.632,5.952 C384.829333,6.21866667 384.981333,6.536 385.088,6.904 C385.194667,7.272 385.248,7.68 385.248,8.128 C385.248,8.576 385.194667,8.98133333 385.088,9.344 C384.981333,9.70666667 384.829333,10.0186667 384.632,10.28 C384.434667,10.5413333 384.197333,10.744 383.92,10.888 C383.642667,11.032 383.338667,11.104 383.008,11.104 Z M390.192,12 L390.192,5.296 L391.84,5.296 L391.84,4.224 L390.192,4.224 L390.192,2.992 C390.192,1.98933333 390.554667,1.488 391.28,1.488 C391.578667,1.488 391.872,1.552 392.16,1.68 L392.16,1.68 L392.448,0.672 C392.266667,0.597333333 392.066667,0.536 391.848,0.488 C391.629333,0.44 391.397333,0.416 391.152,0.416 C390.373333,0.416 389.8,0.645333333 389.432,1.104 C389.064,1.56266667 388.88,2.192 388.88,2.992 L388.88,2.992 L388.88,4.224 L387.824,4.304 L387.824,5.296 L388.88,5.296 L388.88,12 L390.192,12 Z M402.576,12 L402.576,10.864 L397.984,10.864 L397.984,1.504 L396.656,1.504 L396.656,12 L402.576,12 Z M407.264,12.192 C407.797333,12.192 408.272,12.112 408.688,11.952 C409.104,11.792 409.482667,11.6053333 409.824,11.392 L409.824,11.392 L409.36,10.528 C409.072,10.7093333 408.770667,10.856 408.456,10.968 C408.141333,11.08 407.797333,11.136 407.424,11.136 C406.677333,11.136 406.072,10.8933333 405.608,10.408 C405.144,9.92266667 404.885333,9.264 404.832,8.432 L404.832,8.432 L410.08,8.432 C410.101333,8.336 410.114667,8.22133333 410.12,8.088 C410.125333,7.95466667 410.128,7.81866667 410.128,7.68 C410.128,7.12533333 410.058667,6.624 409.92,6.176 C409.781333,5.728 409.581333,5.344 409.32,5.024 C409.058667,4.704 408.733333,4.45866667 408.344,4.288 C407.954667,4.11733333 407.514667,4.032 407.024,4.032 C406.576,4.032 406.144,4.12533333 405.728,4.312 C405.312,4.49866667 404.941333,4.768 404.616,5.12 C404.290667,5.472 404.029333,5.90133333 403.832,6.408 C403.634667,6.91466667 403.536,7.488 403.536,8.128 C403.536,8.768 403.632,9.33866667 403.824,9.84 C404.016,10.3413333 404.28,10.7653333 404.616,11.112 C404.952,11.4586667 405.346667,11.7253333 405.8,11.912 C406.253333,12.0986667 406.741333,12.192 407.264,12.192 Z M408.976,7.488 L404.816,7.488 C404.858667,7.104 404.946667,6.76266667 405.08,6.464 C405.213333,6.16533333 405.381333,5.912 405.584,5.704 C405.786667,5.496 406.013333,5.33866667 406.264,5.232 C406.514667,5.12533333 406.778667,5.072 407.056,5.072 C407.664,5.072 408.136,5.27733333 408.472,5.688 C408.808,6.09866667 408.976,6.69866667 408.976,7.488 L408.976,7.488 Z M414.512,15.584 C415.12,15.584 415.666667,15.512 416.152,15.368 C416.637333,15.224 417.050667,15.0293333 417.392,14.784 C417.733333,14.5386667 417.994667,14.2533333 418.176,13.928 C418.357333,13.6026667 418.448,13.2586667 418.448,12.896 C418.448,12.2453333 418.221333,11.7733333 417.768,11.48 C417.314667,11.1866667 416.634667,11.04 415.728,11.04 L415.728,11.04 L414.224,11.04 C413.690667,11.04 413.328,10.96 413.136,10.8 C412.944,10.64 412.848,10.4373333 412.848,10.192 C412.848,9.97866667 412.896,9.8 412.992,9.656 C413.088,9.512 413.205333,9.38133333 413.344,9.264 C413.525333,9.34933333 413.717333,9.416 413.92,9.464 C414.122667,9.512 414.32,9.536 414.512,9.536 C414.906667,9.536 415.277333,9.472 415.624,9.344 C415.970667,9.216 416.272,9.03733333 416.528,8.808 C416.784,8.57866667 416.986667,8.296 417.136,7.96 C417.285333,7.624 417.36,7.248 417.36,6.832 C417.36,6.50133333 417.298667,6.19733333 417.176,5.92 C417.053333,5.64266667 416.901333,5.41333333 416.72,5.232 L416.72,5.232 L418.32,5.232 L418.32,4.224 L415.616,4.224 C415.466667,4.17066667 415.298667,4.12533333 415.112,4.088 C414.925333,4.05066667 414.725333,4.032 414.512,4.032 C414.117333,4.032 413.741333,4.096 413.384,4.224 C413.026667,4.352 412.714667,4.536 412.448,4.776 C412.181333,5.016 411.970667,5.30666667 411.816,5.648 C411.661333,5.98933333 411.584,6.37333333 411.584,6.8 C411.584,7.26933333 411.688,7.68266667 411.896,8.04 C412.104,8.39733333 412.336,8.68266667 412.592,8.896 L412.592,8.896 L412.592,8.96 C412.389333,9.09866667 412.197333,9.29066667 412.016,9.536 C411.834667,9.78133333 411.744,10.0693333 411.744,10.4 C411.744,10.7093333 411.810667,10.968 411.944,11.176 C412.077333,11.384 412.24,11.5466667 412.432,11.664 L412.432,11.664 L412.432,11.728 C412.08,11.9733333 411.802667,12.2453333 411.6,12.544 C411.397333,12.8426667 411.296,13.1573333 411.296,13.488 C411.296,13.8293333 411.373333,14.128 411.528,14.384 C411.682667,14.64 411.901333,14.8586667 412.184,15.04 C412.466667,15.2213333 412.805333,15.3573333 413.2,15.448 C413.594667,15.5386667 414.032,15.584 414.512,15.584 Z M414.512,8.656 C414.288,8.656 414.077333,8.61333333 413.88,8.528 C413.682667,8.44266667 413.506667,8.32 413.352,8.16 C413.197333,8 413.077333,7.80533333 412.992,7.576 C412.906667,7.34666667 412.864,7.088 412.864,6.8 C412.864,6.224 413.024,5.77866667 413.344,5.464 C413.664,5.14933333 414.053333,4.992 414.512,4.992 C414.970667,4.992 415.36,5.14933333 415.68,5.464 C416,5.77866667 416.16,6.224 416.16,6.8 C416.16,7.088 416.117333,7.34666667 416.032,7.576 C415.946667,7.80533333 415.826667,8 415.672,8.16 C415.517333,8.32 415.341333,8.44266667 415.144,8.528 C414.946667,8.61333333 414.736,8.656 414.512,8.656 Z M414.704,14.672 C414,14.672 413.448,14.5493333 413.048,14.304 C412.648,14.0586667 412.448,13.728 412.448,13.312 C412.448,13.088 412.512,12.864 412.64,12.64 C412.768,12.416 412.970667,12.2026667 413.248,12 C413.418667,12.0533333 413.592,12.088 413.768,12.104 C413.944,12.12 414.106667,12.128 414.256,12.128 L414.256,12.128 L415.6,12.128 C416.112,12.128 416.501333,12.1973333 416.768,12.336 C417.034667,12.4746667 417.168,12.7253333 417.168,13.088 C417.168,13.2906667 417.109333,13.488 416.992,13.68 C416.874667,13.872 416.709333,14.04 416.496,14.184 C416.282667,14.328 416.024,14.4453333 415.72,14.536 C415.416,14.6266667 415.077333,14.672 414.704,14.672 Z M420.624,2.624 C420.88,2.624 421.096,2.544 421.272,2.384 C421.448,2.224 421.536,2.02133333 421.536,1.776 C421.536,1.52 421.448,1.31466667 421.272,1.16 C421.096,1.00533333 420.88,0.928 420.624,0.928 C420.368,0.928 420.152,1.00533333 419.976,1.16 C419.8,1.31466667 419.712,1.52 419.712,1.776 C419.712,2.02133333 419.8,2.224 419.976,2.384 C420.152,2.544 420.368,2.624 420.624,2.624 Z M421.264,12 L421.264,4.224 L419.952,4.224 L419.952,12 L421.264,12 Z M425.92,12.192 C426.378667,12.192 426.786667,12.1306667 427.144,12.008 C427.501333,11.8853333 427.8,11.7173333 428.04,11.504 C428.28,11.2906667 428.461333,11.0453333 428.584,10.768 C428.706667,10.4906667 428.768,10.192 428.768,9.872 C428.768,9.50933333 428.696,9.2 428.552,8.944 C428.408,8.688 428.224,8.472 428,8.296 C427.776,8.12 427.522667,7.97333333 427.24,7.856 C426.957333,7.73866667 426.677333,7.62666667 426.4,7.52 C426.176,7.43466667 425.96,7.352 425.752,7.272 C425.544,7.192 425.36,7.10133333 425.2,7 C425.04,6.89866667 424.912,6.78133333 424.816,6.648 C424.72,6.51466667 424.672,6.35733333 424.672,6.176 C424.672,5.87733333 424.786667,5.616 425.016,5.392 C425.245333,5.168 425.605333,5.056 426.096,5.056 C426.437333,5.056 426.752,5.12 427.04,5.248 C427.328,5.376 427.605333,5.54133333 427.872,5.744 L427.872,5.744 L428.496,4.912 C428.197333,4.66666667 427.842667,4.45866667 427.432,4.288 C427.021333,4.11733333 426.570667,4.032 426.08,4.032 C425.664,4.032 425.290667,4.088 424.96,4.2 C424.629333,4.312 424.349333,4.46666667 424.12,4.664 C423.890667,4.86133333 423.714667,5.096 423.592,5.368 C423.469333,5.64 423.408,5.93066667 423.408,6.24 C423.408,6.57066667 423.477333,6.85333333 423.616,7.088 C423.754667,7.32266667 423.933333,7.528 424.152,7.704 C424.370667,7.88 424.618667,8.02933333 424.896,8.152 C425.173333,8.27466667 425.450667,8.384 425.728,8.48 C425.941333,8.56533333 426.154667,8.65066667 426.368,8.736 C426.581333,8.82133333 426.770667,8.92 426.936,9.032 C427.101333,9.144 427.237333,9.27466667 427.344,9.424 C427.450667,9.57333333 427.504,9.74933333 427.504,9.952 C427.504,10.2933333 427.376,10.5813333 427.12,10.816 C426.864,11.0506667 426.48,11.168 425.968,11.168 C425.498667,11.168 425.085333,11.0826667 424.728,10.912 C424.370667,10.7413333 424.021333,10.5173333 423.68,10.24 L423.68,10.24 L423.024,11.12 C423.397333,11.4293333 423.834667,11.6853333 424.336,11.888 C424.837333,12.0906667 425.365333,12.192 425.92,12.192 Z M431.984,12.192 C432.165333,12.192 432.314667,12.1813333 432.432,12.16 C432.549333,12.1386667 432.650667,12.1066667 432.736,12.064 L432.736,12.064 L432.56,11.072 C432.485333,11.0933333 432.429333,11.104 432.392,11.104 L432.392,11.104 L432.272,11.104 C432.176,11.104 432.090667,11.0613333 432.016,10.976 C431.941333,10.8906667 431.904,10.7413333 431.904,10.528 L431.904,10.528 L431.904,0.608 L430.592,0.608 L430.592,10.432 C430.592,11.008 430.698667,11.4453333 430.912,11.744 C431.125333,12.0426667 431.482667,12.192 431.984,12.192 Z M436.464,12.192 C436.954667,12.192 437.413333,12.0826667 437.84,11.864 C438.266667,11.6453333 438.666667,11.3813333 439.04,11.072 L439.04,11.072 L439.088,11.072 L439.2,12 L440.288,12 L440.288,7.232 C440.288,6.26133333 440.074667,5.48533333 439.648,4.904 C439.221333,4.32266667 438.533333,4.032 437.584,4.032 C436.954667,4.032 436.378667,4.14133333 435.856,4.36 C435.333333,4.57866667 434.890667,4.80533333 434.528,5.04 L434.528,5.04 L435.04,5.952 C435.349333,5.73866667 435.701333,5.54666667 436.096,5.376 C436.490667,5.20533333 436.912,5.12 437.36,5.12 C437.68,5.12 437.944,5.176 438.152,5.288 C438.36,5.4 438.522667,5.54666667 438.64,5.728 C438.757333,5.90933333 438.84,6.11733333 438.888,6.352 C438.936,6.58666667 438.96,6.82666667 438.96,7.072 C437.296,7.25333333 436.085333,7.57066667 435.328,8.024 C434.570667,8.47733333 434.192,9.13066667 434.192,9.984 C434.192,10.688 434.408,11.232 434.84,11.616 C435.272,12 435.813333,12.192 436.464,12.192 Z M436.848,11.136 C436.464,11.136 436.138667,11.04 435.872,10.848 C435.605333,10.656 435.472,10.336 435.472,9.888 C435.472,9.64266667 435.533333,9.416 435.656,9.208 C435.778667,9 435.976,8.816 436.248,8.656 C436.52,8.496 436.877333,8.35733333 437.32,8.24 C437.762667,8.12266667 438.309333,8.02133333 438.96,7.936 L438.96,7.936 L438.96,10.096 C438.586667,10.4373333 438.234667,10.696 437.904,10.872 C437.573333,11.048 437.221333,11.136 436.848,11.136 Z M444.96,12.192 C445.205333,12.192 445.453333,12.1626667 445.704,12.104 C445.954667,12.0453333 446.186667,11.9786667 446.4,11.904 L446.4,11.904 L446.144,10.912 C446.016,10.9653333 445.872,11.0133333 445.712,11.056 C445.552,11.0986667 445.402667,11.12 445.264,11.12 C444.816,11.12 444.504,10.9893333 444.328,10.728 C444.152,10.4666667 444.064,10.096 444.064,9.616 L444.064,9.616 L444.064,5.296 L446.16,5.296 L446.16,4.224 L444.064,4.224 L444.064,2.048 L442.96,2.048 L442.8,4.224 L441.584,4.304 L441.584,5.296 L442.736,5.296 L442.736,9.6 C442.736,9.984 442.773333,10.336 442.848,10.656 C442.922667,10.976 443.048,11.248 443.224,11.472 C443.4,11.696 443.629333,11.872 443.912,12 C444.194667,12.128 444.544,12.192 444.96,12.192 Z M448.592,2.624 C448.848,2.624 449.064,2.544 449.24,2.384 C449.416,2.224 449.504,2.02133333 449.504,1.776 C449.504,1.52 449.416,1.31466667 449.24,1.16 C449.064,1.00533333 448.848,0.928 448.592,0.928 C448.336,0.928 448.12,1.00533333 447.944,1.16 C447.768,1.31466667 447.68,1.52 447.68,1.776 C447.68,2.02133333 447.768,2.224 447.944,2.384 C448.12,2.544 448.336,2.624 448.592,2.624 Z M449.232,12 L449.232,4.224 L447.92,4.224 L447.92,12 L449.232,12 Z M454.88,12.192 C455.36,12.192 455.816,12.1013333 456.248,11.92 C456.68,11.7386667 457.061333,11.4746667 457.392,11.128 C457.722667,10.7813333 457.986667,10.3546667 458.184,9.848 C458.381333,9.34133333 458.48,8.768 458.48,8.128 C458.48,7.47733333 458.381333,6.89866667 458.184,6.392 C457.986667,5.88533333 457.722667,5.456 457.392,5.104 C457.061333,4.752 456.68,4.48533333 456.248,4.304 C455.816,4.12266667 455.36,4.032 454.88,4.032 C454.4,4.032 453.944,4.12266667 453.512,4.304 C453.08,4.48533333 452.698667,4.752 452.368,5.104 C452.037333,5.456 451.773333,5.88533333 451.576,6.392 C451.378667,6.89866667 451.28,7.47733333 451.28,8.128 C451.28,8.768 451.378667,9.34133333 451.576,9.848 C451.773333,10.3546667 452.037333,10.7813333 452.368,11.128 C452.698667,11.4746667 453.08,11.7386667 453.512,11.92 C453.944,12.1013333 454.4,12.192 454.88,12.192 Z M454.88,11.104 C454.549333,11.104 454.245333,11.032 453.968,10.888 C453.690667,10.744 453.453333,10.5413333 453.256,10.28 C453.058667,10.0186667 452.906667,9.70666667 452.8,9.344 C452.693333,8.98133333 452.64,8.576 452.64,8.128 C452.64,7.68 452.693333,7.272 452.8,6.904 C452.906667,6.536 453.058667,6.21866667 453.256,5.952 C453.453333,5.68533333 453.690667,5.48 453.968,5.336 C454.245333,5.192 454.549333,5.12 454.88,5.12 C455.210667,5.12 455.514667,5.192 455.792,5.336 C456.069333,5.48 456.306667,5.68533333 456.504,5.952 C456.701333,6.21866667 456.853333,6.536 456.96,6.904 C457.066667,7.272 457.12,7.68 457.12,8.128 C457.12,8.576 457.066667,8.98133333 456.96,9.344 C456.853333,9.70666667 456.701333,10.0186667 456.504,10.28 C456.306667,10.5413333 456.069333,10.744 455.792,10.888 C455.514667,11.032 455.210667,11.104 454.88,11.104 Z M461.84,12 L461.84,6.368 C462.234667,5.97333333 462.586667,5.67466667 462.896,5.472 C463.205333,5.26933333 463.562667,5.168 463.968,5.168 C464.48,5.168 464.853333,5.33066667 465.088,5.656 C465.322667,5.98133333 465.44,6.512 465.44,7.248 L465.44,7.248 L465.44,12 L466.752,12 L466.752,7.072 C466.752,6.06933333 466.562667,5.312 466.184,4.8 C465.805333,4.288 465.205333,4.032 464.384,4.032 C463.84,4.032 463.362667,4.15733333 462.952,4.408 C462.541333,4.65866667 462.149333,4.97066667 461.776,5.344 L461.776,5.344 L461.728,5.344 L461.616,4.224 L460.528,4.224 L460.528,12 L461.84,12 Z M475.68,13.76 L475.68,12.144 C476.448,12.0373333 477.053333,11.7386667 477.496,11.248 C477.938667,10.7573333 478.16,10.128 478.16,9.36 C478.16,8.784 478.050667,8.312 477.832,7.944 C477.613333,7.576 477.338667,7.26666667 477.008,7.016 C476.677333,6.76533333 476.317333,6.552 475.928,6.376 C475.538667,6.2 475.178667,6.01866667 474.848,5.832 C474.517333,5.64533333 474.242667,5.42933333 474.024,5.184 C473.805333,4.93866667 473.696,4.624 473.696,4.24 C473.696,3.77066667 473.84,3.39733333 474.128,3.12 C474.416,2.84266667 474.805333,2.704 475.296,2.704 C475.733333,2.704 476.093333,2.784 476.376,2.944 C476.658667,3.104 476.949333,3.328 477.248,3.616 L477.248,3.616 L477.952,2.832 C477.664,2.52266667 477.341333,2.256 476.984,2.032 C476.626667,1.808 476.192,1.66933333 475.68,1.616 L475.68,1.616 L475.68,0.032 L474.72,0.032 L474.72,1.648 C474.016,1.75466667 473.453333,2.04533333 473.032,2.52 C472.610667,2.99466667 472.4,3.58933333 472.4,4.304 C472.4,4.82666667 472.509333,5.256 472.728,5.592 C472.946667,5.928 473.221333,6.21333333 473.552,6.448 C473.882667,6.68266667 474.242667,6.89066667 474.632,7.072 C475.021333,7.25333333 475.381333,7.448 475.712,7.656 C476.042667,7.864 476.317333,8.10933333 476.536,8.392 C476.754667,8.67466667 476.864,9.02933333 476.864,9.456 C476.864,9.95733333 476.717333,10.3573333 476.424,10.656 C476.130667,10.9546667 475.685333,11.104 475.088,11.104 C474.597333,11.104 474.146667,11 473.736,10.792 C473.325333,10.584 472.949333,10.3306667 472.608,10.032 L472.608,10.032 L472,10.944 C472.341333,11.2533333 472.752,11.5226667 473.232,11.752 C473.712,11.9813333 474.208,12.1226667 474.72,12.176 L474.72,12.176 L474.72,13.76 L475.68,13.76 Z M482.896,12.192 C483.365333,12.192 483.802667,12.1253333 484.208,11.992 C484.613333,11.8586667 484.968,11.6666667 485.272,11.416 C485.576,11.1653333 485.816,10.8586667 485.992,10.496 C486.168,10.1333333 486.256,9.728 486.256,9.28 C486.256,8.928 486.2,8.608 486.088,8.32 C485.976,8.032 485.818667,7.77866667 485.616,7.56 C485.413333,7.34133333 485.178667,7.16 484.912,7.016 C484.645333,6.872 484.357333,6.76266667 484.048,6.688 L484.048,6.688 L484.048,6.624 C484.602667,6.41066667 485.050667,6.10666667 485.392,5.712 C485.733333,5.31733333 485.904,4.81066667 485.904,4.192 C485.904,3.776 485.829333,3.408 485.68,3.088 C485.530667,2.768 485.32,2.49866667 485.048,2.28 C484.776,2.06133333 484.453333,1.89333333 484.08,1.776 C483.706667,1.65866667 483.296,1.6 482.848,1.6 C482.24,1.6 481.698667,1.72 481.224,1.96 C480.749333,2.2 480.314667,2.50666667 479.92,2.88 L479.92,2.88 L480.624,3.712 C480.933333,3.40266667 481.266667,3.152 481.624,2.96 C481.981333,2.768 482.373333,2.672 482.8,2.672 C483.344,2.672 483.773333,2.816 484.088,3.104 C484.402667,3.392 484.56,3.78666667 484.56,4.288 C484.56,4.55466667 484.512,4.80533333 484.416,5.04 C484.32,5.27466667 484.157333,5.47733333 483.928,5.648 C483.698667,5.81866667 483.4,5.952 483.032,6.048 C482.664,6.144 482.208,6.192 481.664,6.192 L481.664,6.192 L481.664,7.2 C482.272,7.2 482.784,7.248 483.2,7.344 C483.616,7.44 483.952,7.57866667 484.208,7.76 C484.464,7.94133333 484.648,8.15733333 484.76,8.408 C484.872,8.65866667 484.928,8.93333333 484.928,9.232 C484.928,9.808 484.730667,10.264 484.336,10.6 C483.941333,10.936 483.434667,11.104 482.816,11.104 C482.208,11.104 481.698667,10.9813333 481.288,10.736 C480.877333,10.4906667 480.517333,10.208 480.208,9.888 L480.208,9.888 L479.536,10.752 C479.706667,10.944 479.901333,11.1253333 480.12,11.296 C480.338667,11.4666667 480.586667,11.6186667 480.864,11.752 C481.141333,11.8853333 481.448,11.992 481.784,12.072 C482.12,12.152 482.490667,12.192 482.896,12.192 Z M489.072,12.192 C489.328,12.192 489.549333,12.0986667 489.736,11.912 C489.922667,11.7253333 490.016,11.488 490.016,11.2 C490.016,10.8906667 489.922667,10.6426667 489.736,10.456 C489.549333,10.2693333 489.328,10.176 489.072,10.176 C488.805333,10.176 488.578667,10.2693333 488.392,10.456 C488.205333,10.6426667 488.112,10.8906667 488.112,11.2 C488.112,11.488 488.205333,11.7253333 488.392,11.912 C488.578667,12.0986667 488.805333,12.192 489.072,12.192 Z M497.168,12 L497.168,9.184 L498.56,9.184 L498.56,8.128 L497.168,8.128 L497.168,1.792 L495.696,1.792 L491.328,8.32 L491.328,9.184 L495.92,9.184 L495.92,12 L497.168,12 Z M495.92,8.128 L492.72,8.128 L495.104,4.64 C495.253333,4.39466667 495.397333,4.15466667 495.536,3.92 C495.674667,3.68533333 495.808,3.44533333 495.936,3.2 L495.936,3.2 L496,3.2 C495.978667,3.47733333 495.96,3.80533333 495.944,4.184 C495.928,4.56266667 495.92,4.89066667 495.92,5.168 L495.92,5.168 L495.92,8.128 Z M502.288,12.192 C502.8,12.192 503.288,12.088 503.752,11.88 C504.216,11.672 504.629333,11.3413333 504.992,10.888 C505.354667,10.4346667 505.642667,9.848 505.856,9.128 C506.069333,8.408 506.176,7.536 506.176,6.512 C506.176,5.69066667 506.088,4.97333333 505.912,4.36 C505.736,3.74666667 505.490667,3.23466667 505.176,2.824 C504.861333,2.41333333 504.488,2.10666667 504.056,1.904 C503.624,1.70133333 503.157333,1.6 502.656,1.6 C502.250667,1.6 501.864,1.68 501.496,1.84 C501.128,2 500.808,2.224 500.536,2.512 C500.264,2.8 500.048,3.144 499.888,3.544 C499.728,3.944 499.648,4.38933333 499.648,4.88 C499.648,5.936 499.909333,6.72533333 500.432,7.248 C500.954667,7.77066667 501.658667,8.032 502.544,8.032 C502.970667,8.032 503.397333,7.91466667 503.824,7.68 C504.250667,7.44533333 504.624,7.12533333 504.944,6.72 C504.933333,7.54133333 504.853333,8.22933333 504.704,8.784 C504.554667,9.33866667 504.357333,9.78933333 504.112,10.136 C503.866667,10.4826667 503.584,10.7306667 503.264,10.88 C502.944,11.0293333 502.602667,11.104 502.24,11.104 C501.92,11.104 501.613333,11.0293333 501.32,10.88 C501.026667,10.7306667 500.773333,10.5333333 500.56,10.288 L500.56,10.288 L499.824,11.12 C500.101333,11.4293333 500.445333,11.6853333 500.856,11.888 C501.266667,12.0906667 501.744,12.192 502.288,12.192 Z M502.768,7.04 C502.128,7.04 501.653333,6.848 501.344,6.464 C501.034667,6.08 500.88,5.552 500.88,4.88 C500.88,4.54933333 500.925333,4.24533333 501.016,3.968 C501.106667,3.69066667 501.232,3.45333333 501.392,3.256 C501.552,3.05866667 501.741333,2.90666667 501.96,2.8 C502.178667,2.69333333 502.410667,2.64 502.656,2.64 C503.306667,2.64 503.824,2.896 504.208,3.408 C504.592,3.92 504.826667,4.67733333 504.912,5.68 C504.581333,6.16 504.226667,6.50666667 503.848,6.72 C503.469333,6.93333333 503.109333,7.04 502.768,7.04 Z M511.92,12 L511.92,2.624 L515.088,2.624 L515.088,1.504 L507.408,1.504 L507.408,2.624 L510.576,2.624 L510.576,12 L511.92,12 Z" id="TotalEstimatedValueofLegislation$3.49T" fill="#555555" fill-rule="nonzero"></path>
                    <path d="M0,99 L0,35 L748,35 L748,99" id="Path-21" stroke="#D8D8D8" stroke-dasharray="3,3"></path>
                    <polyline id="Path-21-Copy" stroke="#979797" stroke-width="0.5" points="0 101 0 93 552 93 552 101"></polyline>
                    <line x1="756" y1="121.56981" x2="764" y2="121.43019" id="Line-14-Copy-2" stroke="#979797" stroke-width="0.5" stroke-linecap="square"></line>
                    <path d="M770.72,121 L770.72,113.968 L773.096,113.968 L773.096,113.128 L767.336,113.128 L767.336,113.968 L769.712,113.968 L769.712,121 L770.72,121 Z M774.008,121 L774.764,118.6 L777.632,118.6 L778.376,121 L779.444,121 L776.78,113.128 L775.652,113.128 L772.988,121 L774.008,121 Z M777.38,117.796 L775.016,117.796 L775.388,116.596 C775.532,116.156 775.668,115.718 775.796,115.282 C775.924,114.846 776.048,114.4 776.168,113.944 L776.168,113.944 L776.216,113.944 C776.344,114.4 776.472,114.846 776.6,115.282 C776.728,115.718 776.864,116.156 777.008,116.596 L777.008,116.596 L777.38,117.796 Z M780.764,121 L781.904,118.876 C782,118.684 782.1,118.486 782.204,118.282 C782.308,118.078 782.416,117.856 782.528,117.616 L782.528,117.616 L782.576,117.616 C782.704,117.856 782.822,118.078 782.93,118.282 C783.038,118.486 783.144,118.684 783.248,118.876 L783.248,118.876 L784.4,121 L785.504,121 L783.212,116.98 L785.36,113.128 L784.304,113.128 L783.26,115.144 C783.164,115.328 783.074,115.506 782.99,115.678 C782.906,115.85 782.808,116.052 782.696,116.284 L782.696,116.284 L782.648,116.284 C782.528,116.052 782.422,115.85 782.33,115.678 C782.238,115.506 782.14,115.328 782.036,115.144 L782.036,115.144 L780.968,113.128 L779.864,113.128 L782,116.932 L779.708,121 L780.764,121 Z M790.16,121 L790.16,117.676 L791.588,117.676 L793.484,121 L794.612,121 L792.608,117.568 C793.152,117.432 793.584,117.18 793.904,116.812 C794.224,116.444 794.384,115.952 794.384,115.336 C794.384,114.928 794.316,114.584 794.18,114.304 C794.044,114.024 793.854,113.796 793.61,113.62 C793.366,113.444 793.074,113.318 792.734,113.242 C792.394,113.166 792.024,113.128 791.624,113.128 L791.624,113.128 L789.164,113.128 L789.164,121 L790.16,121 Z M791.48,116.86 L790.16,116.86 L790.16,113.932 L791.48,113.932 C792.096,113.932 792.568,114.036 792.896,114.244 C793.224,114.452 793.388,114.816 793.388,115.336 C793.388,115.848 793.224,116.23 792.896,116.482 C792.568,116.734 792.096,116.86 791.48,116.86 L791.48,116.86 Z M800.648,121 L800.648,120.148 L796.988,120.148 L796.988,117.292 L799.976,117.292 L799.976,116.44 L796.988,116.44 L796.988,113.968 L800.528,113.968 L800.528,113.128 L795.992,113.128 L795.992,121 L800.648,121 Z M806.756,121 L806.756,120.148 L803.312,120.148 L803.312,113.128 L802.316,113.128 L802.316,121 L806.756,121 Z M809.144,121 L809.144,113.128 L808.148,113.128 L808.148,121 L809.144,121 Z M815.96,121 L815.96,120.148 L812.3,120.148 L812.3,117.292 L815.288,117.292 L815.288,116.44 L812.3,116.44 L812.3,113.968 L815.84,113.968 L815.84,113.128 L811.304,113.128 L811.304,121 L815.96,121 Z M818.624,121 L818.624,117.472 L821.624,117.472 L821.624,116.632 L818.624,116.632 L818.624,113.968 L822.164,113.968 L822.164,113.128 L817.628,113.128 L817.628,121 L818.624,121 Z M770.744,137.32 L770.744,136.072 C771.368,135.936 771.836,135.662 772.148,135.25 C772.46,134.838 772.616,134.344 772.616,133.768 C772.616,133.384 772.538,133.062 772.382,132.802 C772.226,132.542 772.03,132.32 771.794,132.136 C771.558,131.952 771.304,131.796 771.032,131.668 C770.76,131.54 770.506,131.416 770.27,131.296 C770.034,131.176 769.838,131.05 769.682,130.918 C769.526,130.786 769.448,130.624 769.448,130.432 C769.448,130.16 769.524,129.964 769.676,129.844 C769.828,129.724 770.048,129.664 770.336,129.664 C770.592,129.664 770.82,129.714 771.02,129.814 C771.22,129.914 771.428,130.064 771.644,130.264 L771.644,130.264 L772.532,129.256 C772.3,129.008 772.04,128.796 771.752,128.62 C771.464,128.444 771.128,128.328 770.744,128.272 L770.744,128.272 L770.744,127.06 L769.58,127.06 L769.58,128.296 C769.012,128.408 768.566,128.658 768.242,129.046 C767.918,129.434 767.756,129.924 767.756,130.516 C767.756,130.876 767.834,131.18 767.99,131.428 C768.146,131.676 768.342,131.892 768.578,132.076 C768.814,132.26 769.068,132.418 769.34,132.55 C769.612,132.682 769.866,132.814 770.102,132.946 C770.338,133.078 770.534,133.216 770.69,133.36 C770.846,133.504 770.924,133.68 770.924,133.888 C770.924,134.168 770.846,134.376 770.69,134.512 C770.534,134.648 770.288,134.716 769.952,134.716 C769.664,134.716 769.382,134.658 769.106,134.542 C768.83,134.426 768.54,134.252 768.236,134.02 L768.236,134.02 L767.468,135.208 C767.748,135.464 768.082,135.67 768.47,135.826 C768.858,135.982 769.228,136.08 769.58,136.12 L769.58,136.12 L769.58,137.32 L770.744,137.32 Z M776.084,136.144 C776.484,136.144 776.87,136.062 777.242,135.898 C777.614,135.734 777.942,135.484 778.226,135.148 C778.51,134.812 778.738,134.384 778.91,133.864 C779.082,133.344 779.168,132.728 779.168,132.016 C779.168,131.344 779.086,130.77 778.922,130.294 C778.758,129.818 778.542,129.428 778.274,129.124 C778.006,128.82 777.698,128.596 777.35,128.452 C777.002,128.308 776.644,128.236 776.276,128.236 C775.932,128.236 775.606,128.294 775.298,128.41 C774.99,128.526 774.722,128.696 774.494,128.92 C774.266,129.144 774.084,129.414 773.948,129.73 C773.812,130.046 773.744,130.4 773.744,130.792 C773.744,131.192 773.802,131.54 773.918,131.836 C774.034,132.132 774.192,132.376 774.392,132.568 C774.592,132.76 774.83,132.904 775.106,133 C775.382,133.096 775.684,133.144 776.012,133.144 C776.132,133.144 776.26,133.126 776.396,133.09 C776.532,133.054 776.668,133.002 776.804,132.934 C776.94,132.866 777.072,132.782 777.2,132.682 C777.328,132.582 777.44,132.468 777.536,132.34 C777.52,132.788 777.47,133.162 777.386,133.462 C777.302,133.762 777.19,134.006 777.05,134.194 C776.91,134.382 776.748,134.516 776.564,134.596 C776.38,134.676 776.18,134.716 775.964,134.716 C775.74,134.716 775.52,134.662 775.304,134.554 C775.088,134.446 774.916,134.32 774.788,134.176 L774.788,134.176 L773.852,135.232 C774.092,135.472 774.398,135.684 774.77,135.868 C775.142,136.052 775.58,136.144 776.084,136.144 Z M776.36,131.896 C776.072,131.896 775.832,131.814 775.64,131.65 C775.448,131.486 775.352,131.2 775.352,130.792 C775.352,130.36 775.448,130.046 775.64,129.85 C775.832,129.654 776.056,129.556 776.312,129.556 C776.584,129.556 776.83,129.67 777.05,129.898 C777.27,130.126 777.42,130.54 777.5,131.14 C777.348,131.412 777.17,131.606 776.966,131.722 C776.762,131.838 776.56,131.896 776.36,131.896 Z M782.84,136.144 C783.248,136.144 783.62,136.058 783.956,135.886 C784.292,135.714 784.578,135.46 784.814,135.124 C785.05,134.788 785.234,134.372 785.366,133.876 C785.498,133.38 785.564,132.808 785.564,132.16 C785.564,131.512 785.498,130.944 785.366,130.456 C785.234,129.968 785.05,129.558 784.814,129.226 C784.578,128.894 784.292,128.646 783.956,128.482 C783.62,128.318 783.248,128.236 782.84,128.236 C782.432,128.236 782.06,128.318 781.724,128.482 C781.388,128.646 781.102,128.894 780.866,129.226 C780.63,129.558 780.446,129.968 780.314,130.456 C780.182,130.944 780.116,131.512 780.116,132.16 C780.116,132.808 780.182,133.38 780.314,133.876 C780.446,134.372 780.63,134.788 780.866,135.124 C781.102,135.46 781.388,135.714 781.724,135.886 C782.06,136.058 782.432,136.144 782.84,136.144 Z M782.84,134.776 C782.696,134.776 782.56,134.738 782.432,134.662 C782.304,134.586 782.192,134.448 782.096,134.248 C782,134.048 781.924,133.78 781.868,133.444 C781.812,133.108 781.784,132.68 781.784,132.16 C781.784,131.64 781.812,131.214 781.868,130.882 C781.924,130.55 782,130.29 782.096,130.102 C782.192,129.914 782.304,129.784 782.432,129.712 C782.56,129.64 782.696,129.604 782.84,129.604 C782.992,129.604 783.132,129.64 783.26,129.712 C783.388,129.784 783.5,129.914 783.596,130.102 C783.692,130.29 783.766,130.55 783.818,130.882 C783.87,131.214 783.896,131.64 783.896,132.16 C783.896,132.68 783.87,133.108 783.818,133.444 C783.766,133.78 783.692,134.048 783.596,134.248 C783.5,134.448 783.388,134.586 783.26,134.662 C783.132,134.738 782.992,134.776 782.84,134.776 Z M791.816,136 L791.816,134.512 L790.28,134.512 C790.096,134.512 789.886,134.522 789.65,134.542 C789.414,134.562 789.2,134.584 789.008,134.608 C789.32,134.288 789.622,133.962 789.914,133.63 C790.206,133.298 790.466,132.966 790.694,132.634 C790.922,132.302 791.104,131.97 791.24,131.638 C791.376,131.306 791.444,130.98 791.444,130.66 C791.444,130.292 791.384,129.96 791.264,129.664 C791.144,129.368 790.972,129.114 790.748,128.902 C790.524,128.69 790.258,128.526 789.95,128.41 C789.642,128.294 789.3,128.236 788.924,128.236 C788.38,128.236 787.912,128.338 787.52,128.542 C787.128,128.746 786.744,129.048 786.368,129.448 L786.368,129.448 L787.328,130.396 C787.52,130.188 787.724,130.006 787.94,129.85 C788.156,129.694 788.404,129.616 788.684,129.616 C789.02,129.616 789.284,129.714 789.476,129.91 C789.668,130.106 789.764,130.392 789.764,130.768 C789.764,131.04 789.682,131.326 789.518,131.626 C789.354,131.926 789.126,132.25 788.834,132.598 C788.542,132.946 788.194,133.318 787.79,133.714 C787.386,134.11 786.94,134.536 786.452,134.992 L786.452,134.992 L786.452,136 L791.816,136 Z M796.172,136 C796.596,136 796.992,135.954 797.36,135.862 C797.728,135.77 798.05,135.63 798.326,135.442 C798.602,135.254 798.818,135.016 798.974,134.728 C799.13,134.44 799.208,134.096 799.208,133.696 C799.208,133.432 799.172,133.198 799.1,132.994 C799.028,132.79 798.928,132.612 798.8,132.46 C798.672,132.308 798.524,132.182 798.356,132.082 C798.188,131.982 798.004,131.908 797.804,131.86 L797.804,131.86 L797.804,131.812 C797.964,131.756 798.106,131.668 798.23,131.548 C798.354,131.428 798.46,131.292 798.548,131.14 C798.636,130.988 798.704,130.824 798.752,130.648 C798.8,130.472 798.824,130.296 798.824,130.12 C798.824,129.744 798.75,129.432 798.602,129.184 C798.454,128.936 798.25,128.736 797.99,128.584 C797.73,128.432 797.426,128.326 797.078,128.266 C796.73,128.206 796.352,128.176 795.944,128.176 L795.944,128.176 L793.268,128.176 L793.268,136 L796.172,136 Z M795.86,131.308 L795.032,131.308 L795.032,129.544 L795.872,129.544 C796.288,129.544 796.596,129.608 796.796,129.736 C796.996,129.864 797.096,130.08 797.096,130.384 C797.096,130.664 796.998,130.888 796.802,131.056 C796.606,131.224 796.292,131.308 795.86,131.308 L795.86,131.308 Z M796.028,134.632 L795.032,134.632 L795.032,132.616 L796.028,132.616 C796.516,132.616 796.88,132.69 797.12,132.838 C797.36,132.986 797.48,133.232 797.48,133.576 C797.48,134.28 796.996,134.632 796.028,134.632 L796.028,134.632 Z" id="TAXRELIEF$902B" fill="#666666" fill-rule="nonzero"></path>
                    <line x1="374.5" y1="33.5" x2="374.5" y2="21.5" id="Line-14" stroke="#D8D8D8" stroke-linecap="round" stroke-linejoin="round" stroke-dasharray="3,3"></line>
                    <line x1="276.5" y1="92" x2="276.5" y2="84" id="Line-14-Copy" stroke="#979797" stroke-width="0.5" stroke-linecap="square"></line>
                </g>
                <g id="Group" transform="translate(0.000000, 101.000000)" fill="#6F41A7">
                    <rect id="Rectangle" x="451" y="0" width="101" height="40"></rect>
                    <rect id="Rectangle-Copy-13" x="9" y="0" width="439" height="40"></rect>
                    <rect id="Rectangle-Copy-14" x="4" y="0" width="2.5" height="40"></rect>
                    <rect id="Rectangle-Copy-17" x="0" y="0" width="1" height="40"></rect>
                </g>
                <use id="Rectangle" stroke="#979797" mask="url(#mask-2)" stroke-width="2" fill="#E1E1E1" stroke-dasharray="4,3" xlink:href="#path-1"></use>
            </g>
        </g>
    </g>
</svg>