<?xml version="1.0" encoding="UTF-8"?>
<svg width="875px" height="134px" viewBox="0 0 875 134" version="1.1" xmlns="http://www.w3.org/2000/svg" xmlns:xlink="http://www.w3.org/1999/xlink">
    <title>Viz 1 - C Desktop</title>
    <g id="SVG-2.0" stroke="none" stroke-width="1" fill="none" fill-rule="evenodd">
        <g id="992-outline" transform="translate(-74.000000, -710.000000)">
            <g id="Viz-1---C-Desktop" transform="translate(75.000000, 704.000000)">
                <path d="M48.62,68.144 C49.02,68.144 49.392,68.086 49.736,67.97 C50.08,67.854 50.378,67.662 50.63,67.394 C50.882,67.126 51.08,66.776 51.224,66.344 C51.368,65.912 51.44,65.38 51.44,64.748 L51.44,64.748 L51.44,60.128 L50.48,60.128 L50.48,64.772 C50.48,65.244 50.432,65.64 50.336,65.96 C50.24,66.28 50.108,66.536 49.94,66.728 C49.772,66.92 49.576,67.058 49.352,67.142 C49.128,67.226 48.884,67.268 48.62,67.268 C48.364,67.268 48.124,67.226 47.9,67.142 C47.676,67.058 47.482,66.92 47.318,66.728 C47.154,66.536 47.024,66.28 46.928,65.96 C46.832,65.64 46.784,65.244 46.784,64.772 L46.784,64.772 L46.784,60.128 L45.788,60.128 L45.788,64.748 C45.788,65.38 45.86,65.912 46.004,66.344 C46.148,66.776 46.346,67.126 46.598,67.394 C46.85,67.662 47.15,67.854 47.498,67.97 C47.846,68.086 48.22,68.144 48.62,68.144 Z M56.204,68 L56.204,60.968 L58.58,60.968 L58.58,60.128 L52.82,60.128 L52.82,60.968 L55.196,60.968 L55.196,68 L56.204,68 Z M60.992,68 L60.992,60.128 L59.996,60.128 L59.996,68 L60.992,68 Z M67.592,68 L67.592,67.148 L64.148,67.148 L64.148,60.128 L63.152,60.128 L63.152,68 L67.592,68 Z M69.98,68 L69.98,60.128 L68.984,60.128 L68.984,68 L69.98,68 Z M77.024,68 L77.024,67.148 L72.836,67.148 L76.988,60.716 L76.988,60.128 L71.972,60.128 L71.972,60.968 L75.74,60.968 L71.6,67.4 L71.6,68 L77.024,68 Z M83.264,68 L83.264,67.148 L79.604,67.148 L79.604,64.292 L82.592,64.292 L82.592,63.44 L79.604,63.44 L79.604,60.968 L83.144,60.968 L83.144,60.128 L78.608,60.128 L78.608,68 L83.264,68 Z M86.948,68 C87.54,68 88.064,67.91 88.52,67.73 C88.976,67.55 89.36,67.29 89.672,66.95 C89.984,66.61 90.22,66.194 90.38,65.702 C90.54,65.21 90.62,64.652 90.62,64.028 C90.62,62.772 90.304,61.808 89.672,61.136 C89.04,60.464 88.116,60.128 86.9,60.128 L86.9,60.128 L84.932,60.128 L84.932,68 L86.948,68 Z M86.828,67.184 L85.928,67.184 L85.928,60.944 L86.828,60.944 C87.748,60.944 88.438,61.208 88.898,61.736 C89.358,62.264 89.588,63.028 89.588,64.028 C89.588,65.028 89.358,65.804 88.898,66.356 C88.438,66.908 87.748,67.184 86.828,67.184 L86.828,67.184 Z M99.152,68 L99.152,67.148 L95.708,67.148 L95.708,60.128 L94.712,60.128 L94.712,68 L99.152,68 Z M105.2,68 L105.2,67.148 L101.54,67.148 L101.54,64.292 L104.528,64.292 L104.528,63.44 L101.54,63.44 L101.54,60.968 L105.08,60.968 L105.08,60.128 L100.544,60.128 L100.544,68 L105.2,68 Z M107.816,68 L107.816,63.884 C107.816,63.468 107.802,63.054 107.774,62.642 C107.746,62.23 107.716,61.824 107.684,61.424 L107.684,61.424 L107.732,61.424 L108.584,63.044 L111.44,68 L112.472,68 L112.472,60.128 L111.524,60.128 L111.524,64.196 C111.524,64.612 111.538,65.034 111.566,65.462 C111.594,65.89 111.62,66.304 111.644,66.704 L111.644,66.704 L111.596,66.704 L110.744,65.072 L107.9,60.128 L106.868,60.128 L106.868,68 L107.816,68 Z M116.648,68 C117.24,68 117.764,67.91 118.22,67.73 C118.676,67.55 119.06,67.29 119.372,66.95 C119.684,66.61 119.92,66.194 120.08,65.702 C120.24,65.21 120.32,64.652 120.32,64.028 C120.32,62.772 120.004,61.808 119.372,61.136 C118.74,60.464 117.816,60.128 116.6,60.128 L116.6,60.128 L114.632,60.128 L114.632,68 L116.648,68 Z M116.528,67.184 L115.628,67.184 L115.628,60.944 L116.528,60.944 C117.448,60.944 118.138,61.208 118.598,61.736 C119.058,62.264 119.288,63.028 119.288,64.028 C119.288,65.028 119.058,65.804 118.598,66.356 C118.138,66.908 117.448,67.184 116.528,67.184 L116.528,67.184 Z M123.008,68 L123.008,60.128 L122.012,60.128 L122.012,68 L123.008,68 Z M126.116,68 L126.116,63.884 C126.116,63.468 126.102,63.054 126.074,62.642 C126.046,62.23 126.016,61.824 125.984,61.424 L125.984,61.424 L126.032,61.424 L126.884,63.044 L129.74,68 L130.772,68 L130.772,60.128 L129.824,60.128 L129.824,64.196 C129.824,64.612 129.838,65.034 129.866,65.462 C129.894,65.89 129.92,66.304 129.944,66.704 L129.944,66.704 L129.896,66.704 L129.044,65.072 L126.2,60.128 L125.168,60.128 L125.168,68 L126.116,68 Z M136.028,68.144 C136.556,68.144 137.028,68.058 137.444,67.886 C137.86,67.714 138.196,67.496 138.452,67.232 L138.452,67.232 L138.452,63.92 L135.872,63.92 L135.872,64.748 L137.54,64.748 L137.54,66.8 C137.38,66.944 137.174,67.058 136.922,67.142 C136.67,67.226 136.404,67.268 136.124,67.268 C135.7,67.268 135.326,67.192 135.002,67.04 C134.678,66.888 134.406,66.672 134.186,66.392 C133.966,66.112 133.798,65.774 133.682,65.378 C133.566,64.982 133.508,64.536 133.508,64.04 C133.508,63.552 133.57,63.112 133.694,62.72 C133.818,62.328 133.992,61.994 134.216,61.718 C134.44,61.442 134.712,61.23 135.032,61.082 C135.352,60.934 135.712,60.86 136.112,60.86 C136.512,60.86 136.844,60.932 137.108,61.076 C137.372,61.22 137.604,61.396 137.804,61.604 L137.804,61.604 L138.356,60.956 C138.244,60.836 138.114,60.718 137.966,60.602 C137.818,60.486 137.65,60.382 137.462,60.29 C137.274,60.198 137.066,60.124 136.838,60.068 C136.61,60.012 136.36,59.984 136.088,59.984 C135.568,59.984 135.086,60.078 134.642,60.266 C134.198,60.454 133.816,60.724 133.496,61.076 C133.176,61.428 132.926,61.856 132.746,62.36 C132.566,62.864 132.476,63.432 132.476,64.064 C132.476,64.704 132.564,65.278 132.74,65.786 C132.916,66.294 133.16,66.722 133.472,67.07 C133.784,67.418 134.158,67.684 134.594,67.868 C135.03,68.052 135.508,68.144 136.028,68.144 Z M79.442,84.32 L79.442,83.072 C80.066,82.936 80.534,82.662 80.846,82.25 C81.158,81.838 81.314,81.344 81.314,80.768 C81.314,80.384 81.236,80.062 81.08,79.802 C80.924,79.542 80.728,79.32 80.492,79.136 C80.256,78.952 80.002,78.796 79.73,78.668 C79.458,78.54 79.204,78.416 78.968,78.296 C78.732,78.176 78.536,78.05 78.38,77.918 C78.224,77.786 78.146,77.624 78.146,77.432 C78.146,77.16 78.222,76.964 78.374,76.844 C78.526,76.724 78.746,76.664 79.034,76.664 C79.29,76.664 79.518,76.714 79.718,76.814 C79.918,76.914 80.126,77.064 80.342,77.264 L80.342,77.264 L81.23,76.256 C80.998,76.008 80.738,75.796 80.45,75.62 C80.162,75.444 79.826,75.328 79.442,75.272 L79.442,75.272 L79.442,74.06 L78.278,74.06 L78.278,75.296 C77.71,75.408 77.264,75.658 76.94,76.046 C76.616,76.434 76.454,76.924 76.454,77.516 C76.454,77.876 76.532,78.18 76.688,78.428 C76.844,78.676 77.04,78.892 77.276,79.076 C77.512,79.26 77.766,79.418 78.038,79.55 C78.31,79.682 78.564,79.814 78.8,79.946 C79.036,80.078 79.232,80.216 79.388,80.36 C79.544,80.504 79.622,80.68 79.622,80.888 C79.622,81.168 79.544,81.376 79.388,81.512 C79.232,81.648 78.986,81.716 78.65,81.716 C78.362,81.716 78.08,81.658 77.804,81.542 C77.528,81.426 77.238,81.252 76.934,81.02 L76.934,81.02 L76.166,82.208 C76.446,82.464 76.78,82.67 77.168,82.826 C77.556,82.982 77.926,83.08 78.278,83.12 L78.278,83.12 L78.278,84.32 L79.442,84.32 Z M85.19,83.144 C85.598,83.144 85.968,83.09 86.3,82.982 C86.632,82.874 86.916,82.726 87.152,82.538 C87.388,82.35 87.57,82.128 87.698,81.872 C87.826,81.616 87.89,81.336 87.89,81.032 C87.89,80.528 87.762,80.12 87.506,79.808 C87.25,79.496 86.938,79.24 86.57,79.04 L86.57,79.04 L86.57,78.992 C86.834,78.816 87.066,78.586 87.266,78.302 C87.466,78.018 87.566,77.692 87.566,77.324 C87.566,77.012 87.51,76.726 87.398,76.466 C87.286,76.206 87.13,75.986 86.93,75.806 C86.73,75.626 86.486,75.486 86.198,75.386 C85.91,75.286 85.594,75.236 85.25,75.236 C84.898,75.236 84.572,75.284 84.272,75.38 C83.972,75.476 83.714,75.616 83.498,75.8 C83.282,75.984 83.114,76.206 82.994,76.466 C82.874,76.726 82.814,77.016 82.814,77.336 C82.814,77.744 82.91,78.09 83.102,78.374 C83.294,78.658 83.538,78.912 83.834,79.136 L83.834,79.136 L83.834,79.184 C83.474,79.376 83.168,79.62 82.916,79.916 C82.664,80.212 82.538,80.592 82.538,81.056 C82.538,81.368 82.604,81.652 82.736,81.908 C82.868,82.164 83.052,82.384 83.288,82.568 C83.524,82.752 83.804,82.894 84.128,82.994 C84.452,83.094 84.806,83.144 85.19,83.144 Z M85.67,78.56 C85.278,78.408 84.962,78.244 84.722,78.068 C84.482,77.892 84.362,77.648 84.362,77.336 C84.362,77.04 84.446,76.82 84.614,76.676 C84.782,76.532 84.982,76.46 85.214,76.46 C85.502,76.46 85.728,76.55 85.892,76.73 C86.056,76.91 86.138,77.148 86.138,77.444 C86.138,77.828 85.982,78.2 85.67,78.56 Z M85.226,81.92 C84.906,81.92 84.63,81.826 84.398,81.638 C84.166,81.45 84.05,81.188 84.05,80.852 C84.05,80.62 84.106,80.4 84.218,80.192 C84.33,79.984 84.47,79.8 84.638,79.64 C84.878,79.744 85.096,79.84 85.292,79.928 C85.488,80.016 85.658,80.11 85.802,80.21 C85.946,80.31 86.056,80.42 86.132,80.54 C86.208,80.66 86.246,80.804 86.246,80.972 C86.246,81.292 86.15,81.53 85.958,81.686 C85.766,81.842 85.522,81.92 85.226,81.92 Z M91.286,83.144 C91.67,83.144 92.034,83.094 92.378,82.994 C92.722,82.894 93.022,82.75 93.278,82.562 C93.534,82.374 93.738,82.142 93.89,81.866 C94.042,81.59 94.118,81.276 94.118,80.924 C94.118,80.428 93.976,80.026 93.692,79.718 C93.408,79.41 93.046,79.192 92.606,79.064 L92.606,79.064 L92.606,79.016 C93.014,78.84 93.328,78.614 93.548,78.338 C93.768,78.062 93.878,77.724 93.878,77.324 C93.878,76.988 93.814,76.692 93.686,76.436 C93.558,76.18 93.38,75.962 93.152,75.782 C92.924,75.602 92.648,75.466 92.324,75.374 C92,75.282 91.642,75.236 91.25,75.236 C90.778,75.236 90.348,75.322 89.96,75.494 C89.572,75.666 89.202,75.904 88.85,76.208 L88.85,76.208 L89.738,77.288 C89.978,77.08 90.208,76.916 90.428,76.796 C90.648,76.676 90.894,76.616 91.166,76.616 C91.47,76.616 91.702,76.69 91.862,76.838 C92.022,76.986 92.102,77.192 92.102,77.456 C92.102,77.608 92.072,77.746 92.012,77.87 C91.952,77.994 91.852,78.102 91.712,78.194 C91.572,78.286 91.388,78.356 91.16,78.404 C90.932,78.452 90.646,78.476 90.302,78.476 L90.302,78.476 L90.302,79.724 C90.718,79.724 91.058,79.75 91.322,79.802 C91.586,79.854 91.794,79.926 91.946,80.018 C92.098,80.11 92.204,80.224 92.264,80.36 C92.324,80.496 92.354,80.648 92.354,80.816 C92.354,81.104 92.242,81.326 92.018,81.482 C91.794,81.638 91.494,81.716 91.118,81.716 C90.79,81.716 90.488,81.644 90.212,81.5 C89.936,81.356 89.682,81.172 89.45,80.948 L89.45,80.948 L88.634,82.064 C88.914,82.392 89.27,82.654 89.702,82.85 C90.134,83.046 90.662,83.144 91.286,83.144 Z M100.514,83 L100.514,81.512 L98.978,81.512 C98.794,81.512 98.584,81.522 98.348,81.542 C98.112,81.562 97.898,81.584 97.706,81.608 C98.018,81.288 98.32,80.962 98.612,80.63 C98.904,80.298 99.164,79.966 99.392,79.634 C99.62,79.302 99.802,78.97 99.938,78.638 C100.074,78.306 100.142,77.98 100.142,77.66 C100.142,77.292 100.082,76.96 99.962,76.664 C99.842,76.368 99.67,76.114 99.446,75.902 C99.222,75.69 98.956,75.526 98.648,75.41 C98.34,75.294 97.998,75.236 97.622,75.236 C97.078,75.236 96.61,75.338 96.218,75.542 C95.826,75.746 95.442,76.048 95.066,76.448 L95.066,76.448 L96.026,77.396 C96.218,77.188 96.422,77.006 96.638,76.85 C96.854,76.694 97.102,76.616 97.382,76.616 C97.718,76.616 97.982,76.714 98.174,76.91 C98.366,77.106 98.462,77.392 98.462,77.768 C98.462,78.04 98.38,78.326 98.216,78.626 C98.052,78.926 97.824,79.25 97.532,79.598 C97.24,79.946 96.892,80.318 96.488,80.714 C96.084,81.11 95.638,81.536 95.15,81.992 L95.15,81.992 L95.15,83 L100.514,83 Z M104.87,83 C105.294,83 105.69,82.954 106.058,82.862 C106.426,82.77 106.748,82.63 107.024,82.442 C107.3,82.254 107.516,82.016 107.672,81.728 C107.828,81.44 107.906,81.096 107.906,80.696 C107.906,80.432 107.87,80.198 107.798,79.994 C107.726,79.79 107.626,79.612 107.498,79.46 C107.37,79.308 107.222,79.182 107.054,79.082 C106.886,78.982 106.702,78.908 106.502,78.86 L106.502,78.86 L106.502,78.812 C106.662,78.756 106.804,78.668 106.928,78.548 C107.052,78.428 107.158,78.292 107.246,78.14 C107.334,77.988 107.402,77.824 107.45,77.648 C107.498,77.472 107.522,77.296 107.522,77.12 C107.522,76.744 107.448,76.432 107.3,76.184 C107.152,75.936 106.948,75.736 106.688,75.584 C106.428,75.432 106.124,75.326 105.776,75.266 C105.428,75.206 105.05,75.176 104.642,75.176 L104.642,75.176 L101.966,75.176 L101.966,83 L104.87,83 Z M104.558,78.308 L103.73,78.308 L103.73,76.544 L104.57,76.544 C104.986,76.544 105.294,76.608 105.494,76.736 C105.694,76.864 105.794,77.08 105.794,77.384 C105.794,77.664 105.696,77.888 105.5,78.056 C105.304,78.224 104.99,78.308 104.558,78.308 L104.558,78.308 Z M104.726,81.632 L103.73,81.632 L103.73,79.616 L104.726,79.616 C105.214,79.616 105.578,79.69 105.818,79.838 C106.058,79.986 106.178,80.232 106.178,80.576 C106.178,81.28 105.694,81.632 104.726,81.632 L104.726,81.632 Z" id="UTILIZEDLENDING$832B" fill="#666666" fill-rule="nonzero"></path>
                <path d="M336.96,18 L336.96,8.624 L340.128,8.624 L340.128,7.504 L332.448,7.504 L332.448,8.624 L335.616,8.624 L335.616,18 L336.96,18 Z M343.856,18.192 C344.336,18.192 344.792,18.1013333 345.224,17.92 C345.656,17.7386667 346.037333,17.4746667 346.368,17.128 C346.698667,16.7813333 346.962667,16.3546667 347.16,15.848 C347.357333,15.3413333 347.456,14.768 347.456,14.128 C347.456,13.4773333 347.357333,12.8986667 347.16,12.392 C346.962667,11.8853333 346.698667,11.456 346.368,11.104 C346.037333,10.752 345.656,10.4853333 345.224,10.304 C344.792,10.1226667 344.336,10.032 343.856,10.032 C343.376,10.032 342.92,10.1226667 342.488,10.304 C342.056,10.4853333 341.674667,10.752 341.344,11.104 C341.013333,11.456 340.749333,11.8853333 340.552,12.392 C340.354667,12.8986667 340.256,13.4773333 340.256,14.128 C340.256,14.768 340.354667,15.3413333 340.552,15.848 C340.749333,16.3546667 341.013333,16.7813333 341.344,17.128 C341.674667,17.4746667 342.056,17.7386667 342.488,17.92 C342.92,18.1013333 343.376,18.192 343.856,18.192 Z M343.856,17.104 C343.525333,17.104 343.221333,17.032 342.944,16.888 C342.666667,16.744 342.429333,16.5413333 342.232,16.28 C342.034667,16.0186667 341.882667,15.7066667 341.776,15.344 C341.669333,14.9813333 341.616,14.576 341.616,14.128 C341.616,13.68 341.669333,13.272 341.776,12.904 C341.882667,12.536 342.034667,12.2186667 342.232,11.952 C342.429333,11.6853333 342.666667,11.48 342.944,11.336 C343.221333,11.192 343.525333,11.12 343.856,11.12 C344.186667,11.12 344.490667,11.192 344.768,11.336 C345.045333,11.48 345.282667,11.6853333 345.48,11.952 C345.677333,12.2186667 345.829333,12.536 345.936,12.904 C346.042667,13.272 346.096,13.68 346.096,14.128 C346.096,14.576 346.042667,14.9813333 345.936,15.344 C345.829333,15.7066667 345.677333,16.0186667 345.48,16.28 C345.282667,16.5413333 345.045333,16.744 344.768,16.888 C344.490667,17.032 344.186667,17.104 343.856,17.104 Z M351.68,18.192 C351.925333,18.192 352.173333,18.1626667 352.424,18.104 C352.674667,18.0453333 352.906667,17.9786667 353.12,17.904 L353.12,17.904 L352.864,16.912 C352.736,16.9653333 352.592,17.0133333 352.432,17.056 C352.272,17.0986667 352.122667,17.12 351.984,17.12 C351.536,17.12 351.224,16.9893333 351.048,16.728 C350.872,16.4666667 350.784,16.096 350.784,15.616 L350.784,15.616 L350.784,11.296 L352.88,11.296 L352.88,10.224 L350.784,10.224 L350.784,8.048 L349.68,8.048 L349.52,10.224 L348.304,10.304 L348.304,11.296 L349.456,11.296 L349.456,15.6 C349.456,15.984 349.493333,16.336 349.568,16.656 C349.642667,16.976 349.768,17.248 349.944,17.472 C350.12,17.696 350.349333,17.872 350.632,18 C350.914667,18.128 351.264,18.192 351.68,18.192 Z M356.096,18.192 C356.586667,18.192 357.045333,18.0826667 357.472,17.864 C357.898667,17.6453333 358.298667,17.3813333 358.672,17.072 L358.672,17.072 L358.72,17.072 L358.832,18 L359.92,18 L359.92,13.232 C359.92,12.2613333 359.706667,11.4853333 359.28,10.904 C358.853333,10.3226667 358.165333,10.032 357.216,10.032 C356.586667,10.032 356.010667,10.1413333 355.488,10.36 C354.965333,10.5786667 354.522667,10.8053333 354.16,11.04 L354.16,11.04 L354.672,11.952 C354.981333,11.7386667 355.333333,11.5466667 355.728,11.376 C356.122667,11.2053333 356.544,11.12 356.992,11.12 C357.312,11.12 357.576,11.176 357.784,11.288 C357.992,11.4 358.154667,11.5466667 358.272,11.728 C358.389333,11.9093333 358.472,12.1173333 358.52,12.352 C358.568,12.5866667 358.592,12.8266667 358.592,13.072 C356.928,13.2533333 355.717333,13.5706667 354.96,14.024 C354.202667,14.4773333 353.824,15.1306667 353.824,15.984 C353.824,16.688 354.04,17.232 354.472,17.616 C354.904,18 355.445333,18.192 356.096,18.192 Z M356.48,17.136 C356.096,17.136 355.770667,17.04 355.504,16.848 C355.237333,16.656 355.104,16.336 355.104,15.888 C355.104,15.6426667 355.165333,15.416 355.288,15.208 C355.410667,15 355.608,14.816 355.88,14.656 C356.152,14.496 356.509333,14.3573333 356.952,14.24 C357.394667,14.1226667 357.941333,14.0213333 358.592,13.936 L358.592,13.936 L358.592,16.096 C358.218667,16.4373333 357.866667,16.696 357.536,16.872 C357.205333,17.048 356.853333,17.136 356.48,17.136 Z M363.76,18.192 C363.941333,18.192 364.090667,18.1813333 364.208,18.16 C364.325333,18.1386667 364.426667,18.1066667 364.512,18.064 L364.512,18.064 L364.336,17.072 C364.261333,17.0933333 364.205333,17.104 364.168,17.104 L364.168,17.104 L364.048,17.104 C363.952,17.104 363.866667,17.0613333 363.792,16.976 C363.717333,16.8906667 363.68,16.7413333 363.68,16.528 L363.68,16.528 L363.68,6.608 L362.368,6.608 L362.368,16.432 C362.368,17.008 362.474667,17.4453333 362.688,17.744 C362.901333,18.0426667 363.258667,18.192 363.76,18.192 Z M375.984,18 L375.984,16.864 L371.104,16.864 L371.104,13.056 L375.088,13.056 L375.088,11.92 L371.104,11.92 L371.104,8.624 L375.824,8.624 L375.824,7.504 L369.776,7.504 L369.776,18 L375.984,18 Z M380.112,18.192 C380.570667,18.192 380.978667,18.1306667 381.336,18.008 C381.693333,17.8853333 381.992,17.7173333 382.232,17.504 C382.472,17.2906667 382.653333,17.0453333 382.776,16.768 C382.898667,16.4906667 382.96,16.192 382.96,15.872 C382.96,15.5093333 382.888,15.2 382.744,14.944 C382.6,14.688 382.416,14.472 382.192,14.296 C381.968,14.12 381.714667,13.9733333 381.432,13.856 C381.149333,13.7386667 380.869333,13.6266667 380.592,13.52 C380.368,13.4346667 380.152,13.352 379.944,13.272 C379.736,13.192 379.552,13.1013333 379.392,13 C379.232,12.8986667 379.104,12.7813333 379.008,12.648 C378.912,12.5146667 378.864,12.3573333 378.864,12.176 C378.864,11.8773333 378.978667,11.616 379.208,11.392 C379.437333,11.168 379.797333,11.056 380.288,11.056 C380.629333,11.056 380.944,11.12 381.232,11.248 C381.52,11.376 381.797333,11.5413333 382.064,11.744 L382.064,11.744 L382.688,10.912 C382.389333,10.6666667 382.034667,10.4586667 381.624,10.288 C381.213333,10.1173333 380.762667,10.032 380.272,10.032 C379.856,10.032 379.482667,10.088 379.152,10.2 C378.821333,10.312 378.541333,10.4666667 378.312,10.664 C378.082667,10.8613333 377.906667,11.096 377.784,11.368 C377.661333,11.64 377.6,11.9306667 377.6,12.24 C377.6,12.5706667 377.669333,12.8533333 377.808,13.088 C377.946667,13.3226667 378.125333,13.528 378.344,13.704 C378.562667,13.88 378.810667,14.0293333 379.088,14.152 C379.365333,14.2746667 379.642667,14.384 379.92,14.48 L379.92,14.48 L380.56,14.736 C380.773333,14.8213333 380.962667,14.92 381.128,15.032 C381.293333,15.144 381.429333,15.2746667 381.536,15.424 C381.642667,15.5733333 381.696,15.7493333 381.696,15.952 C381.696,16.2933333 381.568,16.5813333 381.312,16.816 C381.056,17.0506667 380.672,17.168 380.16,17.168 C379.690667,17.168 379.277333,17.0826667 378.92,16.912 C378.562667,16.7413333 378.213333,16.5173333 377.872,16.24 L377.872,16.24 L377.216,17.12 C377.589333,17.4293333 378.026667,17.6853333 378.528,17.888 C379.029333,18.0906667 379.557333,18.192 380.112,18.192 Z M386.912,18.192 C387.157333,18.192 387.405333,18.1626667 387.656,18.104 C387.906667,18.0453333 388.138667,17.9786667 388.352,17.904 L388.352,17.904 L388.096,16.912 C387.968,16.9653333 387.824,17.0133333 387.664,17.056 C387.504,17.0986667 387.354667,17.12 387.216,17.12 C386.768,17.12 386.456,16.9893333 386.28,16.728 C386.104,16.4666667 386.016,16.096 386.016,15.616 L386.016,15.616 L386.016,11.296 L388.112,11.296 L388.112,10.224 L386.016,10.224 L386.016,8.048 L384.912,8.048 L384.752,10.224 L383.536,10.304 L383.536,11.296 L384.688,11.296 L384.688,15.6 C384.688,15.984 384.725333,16.336 384.8,16.656 C384.874667,16.976 385,17.248 385.176,17.472 C385.352,17.696 385.581333,17.872 385.864,18 C386.146667,18.128 386.496,18.192 386.912,18.192 Z M390.544,8.624 C390.8,8.624 391.016,8.544 391.192,8.384 C391.368,8.224 391.456,8.02133333 391.456,7.776 C391.456,7.52 391.368,7.31466667 391.192,7.16 C391.016,7.00533333 390.8,6.928 390.544,6.928 C390.288,6.928 390.072,7.00533333 389.896,7.16 C389.72,7.31466667 389.632,7.52 389.632,7.776 C389.632,8.02133333 389.72,8.224 389.896,8.384 C390.072,8.544 390.288,8.624 390.544,8.624 Z M391.184,18 L391.184,10.224 L389.872,10.224 L389.872,18 L391.184,18 Z M395.12,18 L395.12,12.368 C395.834667,11.568 396.485333,11.168 397.072,11.168 C397.573333,11.168 397.941333,11.3306667 398.176,11.656 C398.410667,11.9813333 398.528,12.512 398.528,13.248 L398.528,13.248 L398.528,18 L399.84,18 L399.84,12.368 C400.554667,11.568 401.205333,11.168 401.792,11.168 C402.282667,11.168 402.645333,11.3306667 402.88,11.656 C403.114667,11.9813333 403.232,12.512 403.232,13.248 L403.232,13.248 L403.232,18 L404.544,18 L404.544,13.072 C404.544,12.0693333 404.349333,11.312 403.96,10.8 C403.570667,10.288 402.976,10.032 402.176,10.032 C401.696,10.032 401.250667,10.168 400.84,10.44 C400.429333,10.712 400.021333,11.072 399.616,11.52 C399.456,11.0506667 399.208,10.6853333 398.872,10.424 C398.536,10.1626667 398.069333,10.032 397.472,10.032 C397.002667,10.032 396.568,10.1573333 396.168,10.408 C395.768,10.6586667 395.397333,10.9706667 395.056,11.344 L395.056,11.344 L395.008,11.344 L394.896,10.224 L393.808,10.224 L393.808,18 L395.12,18 Z M408.864,18.192 C409.354667,18.192 409.813333,18.0826667 410.24,17.864 C410.666667,17.6453333 411.066667,17.3813333 411.44,17.072 L411.44,17.072 L411.488,17.072 L411.6,18 L412.688,18 L412.688,13.232 C412.688,12.2613333 412.474667,11.4853333 412.048,10.904 C411.621333,10.3226667 410.933333,10.032 409.984,10.032 C409.354667,10.032 408.778667,10.1413333 408.256,10.36 C407.733333,10.5786667 407.290667,10.8053333 406.928,11.04 L406.928,11.04 L407.44,11.952 C407.749333,11.7386667 408.101333,11.5466667 408.496,11.376 C408.890667,11.2053333 409.312,11.12 409.76,11.12 C410.08,11.12 410.344,11.176 410.552,11.288 C410.76,11.4 410.922667,11.5466667 411.04,11.728 C411.157333,11.9093333 411.24,12.1173333 411.288,12.352 C411.336,12.5866667 411.36,12.8266667 411.36,13.072 C409.696,13.2533333 408.485333,13.5706667 407.728,14.024 C406.970667,14.4773333 406.592,15.1306667 406.592,15.984 C406.592,16.688 406.808,17.232 407.24,17.616 C407.672,18 408.213333,18.192 408.864,18.192 Z M409.248,17.136 C408.864,17.136 408.538667,17.04 408.272,16.848 C408.005333,16.656 407.872,16.336 407.872,15.888 C407.872,15.6426667 407.933333,15.416 408.056,15.208 C408.178667,15 408.376,14.816 408.648,14.656 C408.92,14.496 409.277333,14.3573333 409.72,14.24 C410.162667,14.1226667 410.709333,14.0213333 411.36,13.936 L411.36,13.936 L411.36,16.096 C410.986667,16.4373333 410.634667,16.696 410.304,16.872 C409.973333,17.048 409.621333,17.136 409.248,17.136 Z M417.36,18.192 C417.605333,18.192 417.853333,18.1626667 418.104,18.104 C418.354667,18.0453333 418.586667,17.9786667 418.8,17.904 L418.8,17.904 L418.544,16.912 C418.416,16.9653333 418.272,17.0133333 418.112,17.056 C417.952,17.0986667 417.802667,17.12 417.664,17.12 C417.216,17.12 416.904,16.9893333 416.728,16.728 C416.552,16.4666667 416.464,16.096 416.464,15.616 L416.464,15.616 L416.464,11.296 L418.56,11.296 L418.56,10.224 L416.464,10.224 L416.464,8.048 L415.36,8.048 L415.2,10.224 L413.984,10.304 L413.984,11.296 L415.136,11.296 L415.136,15.6 C415.136,15.984 415.173333,16.336 415.248,16.656 C415.322667,16.976 415.448,17.248 415.624,17.472 C415.8,17.696 416.029333,17.872 416.312,18 C416.594667,18.128 416.944,18.192 417.36,18.192 Z M423.248,18.192 C423.781333,18.192 424.256,18.112 424.672,17.952 C425.088,17.792 425.466667,17.6053333 425.808,17.392 L425.808,17.392 L425.344,16.528 C425.056,16.7093333 424.754667,16.856 424.44,16.968 C424.125333,17.08 423.781333,17.136 423.408,17.136 C422.661333,17.136 422.056,16.8933333 421.592,16.408 C421.128,15.9226667 420.869333,15.264 420.816,14.432 L420.816,14.432 L426.064,14.432 C426.085333,14.336 426.098667,14.2213333 426.104,14.088 C426.109333,13.9546667 426.112,13.8186667 426.112,13.68 C426.112,13.1253333 426.042667,12.624 425.904,12.176 C425.765333,11.728 425.565333,11.344 425.304,11.024 C425.042667,10.704 424.717333,10.4586667 424.328,10.288 C423.938667,10.1173333 423.498667,10.032 423.008,10.032 C422.56,10.032 422.128,10.1253333 421.712,10.312 C421.296,10.4986667 420.925333,10.768 420.6,11.12 C420.274667,11.472 420.013333,11.9013333 419.816,12.408 C419.618667,12.9146667 419.52,13.488 419.52,14.128 C419.52,14.768 419.616,15.3386667 419.808,15.84 C420,16.3413333 420.264,16.7653333 420.6,17.112 C420.936,17.4586667 421.330667,17.7253333 421.784,17.912 C422.237333,18.0986667 422.725333,18.192 423.248,18.192 Z M424.96,13.488 L420.8,13.488 C420.842667,13.104 420.930667,12.7626667 421.064,12.464 C421.197333,12.1653333 421.365333,11.912 421.568,11.704 C421.770667,11.496 421.997333,11.3386667 422.248,11.232 C422.498667,11.1253333 422.762667,11.072 423.04,11.072 C423.648,11.072 424.12,11.2773333 424.456,11.688 C424.792,12.0986667 424.96,12.6986667 424.96,13.488 L424.96,13.488 Z M430.688,18.192 C431.146667,18.192 431.576,18.0826667 431.976,17.864 C432.376,17.6453333 432.730667,17.3866667 433.04,17.088 L433.04,17.088 L433.088,17.088 L433.2,18 L434.288,18 L434.288,6.608 L432.96,6.608 L432.96,9.6 L433.024,10.928 C432.682667,10.6506667 432.346667,10.432 432.016,10.272 C431.685333,10.112 431.296,10.032 430.848,10.032 C430.4,10.032 429.973333,10.128 429.568,10.32 C429.162667,10.512 428.805333,10.784 428.496,11.136 C428.186667,11.488 427.938667,11.9173333 427.752,12.424 C427.565333,12.9306667 427.472,13.4986667 427.472,14.128 C427.472,15.4293333 427.762667,16.432 428.344,17.136 C428.925333,17.84 429.706667,18.192 430.688,18.192 Z M430.976,17.088 C430.293333,17.088 429.765333,16.8266667 429.392,16.304 C429.018667,15.7813333 428.832,15.0506667 428.832,14.112 C428.832,13.664 428.890667,13.2586667 429.008,12.896 C429.125333,12.5333333 429.285333,12.2213333 429.488,11.96 C429.690667,11.6986667 429.928,11.496 430.2,11.352 C430.472,11.208 430.762667,11.136 431.072,11.136 C431.392,11.136 431.704,11.1973333 432.008,11.32 C432.312,11.4426667 432.629333,11.6533333 432.96,11.952 L432.96,11.952 L432.96,16.016 C432.64,16.3786667 432.32,16.648 432,16.824 C431.68,17 431.338667,17.088 430.976,17.088 Z M446.16,18 L446.16,16.864 L441.568,16.864 L441.568,7.504 L440.24,7.504 L440.24,18 L446.16,18 Z M450.848,18.192 C451.381333,18.192 451.856,18.112 452.272,17.952 C452.688,17.792 453.066667,17.6053333 453.408,17.392 L453.408,17.392 L452.944,16.528 C452.656,16.7093333 452.354667,16.856 452.04,16.968 C451.725333,17.08 451.381333,17.136 451.008,17.136 C450.261333,17.136 449.656,16.8933333 449.192,16.408 C448.728,15.9226667 448.469333,15.264 448.416,14.432 L448.416,14.432 L453.664,14.432 C453.685333,14.336 453.698667,14.2213333 453.704,14.088 C453.709333,13.9546667 453.712,13.8186667 453.712,13.68 C453.712,13.1253333 453.642667,12.624 453.504,12.176 C453.365333,11.728 453.165333,11.344 452.904,11.024 C452.642667,10.704 452.317333,10.4586667 451.928,10.288 C451.538667,10.1173333 451.098667,10.032 450.608,10.032 C450.16,10.032 449.728,10.1253333 449.312,10.312 C448.896,10.4986667 448.525333,10.768 448.2,11.12 C447.874667,11.472 447.613333,11.9013333 447.416,12.408 C447.218667,12.9146667 447.12,13.488 447.12,14.128 C447.12,14.768 447.216,15.3386667 447.408,15.84 C447.6,16.3413333 447.864,16.7653333 448.2,17.112 C448.536,17.4586667 448.930667,17.7253333 449.384,17.912 C449.837333,18.0986667 450.325333,18.192 450.848,18.192 Z M452.56,13.488 L448.4,13.488 C448.442667,13.104 448.530667,12.7626667 448.664,12.464 C448.797333,12.1653333 448.965333,11.912 449.168,11.704 C449.370667,11.496 449.597333,11.3386667 449.848,11.232 C450.098667,11.1253333 450.362667,11.072 450.64,11.072 C451.248,11.072 451.72,11.2773333 452.056,11.688 C452.392,12.0986667 452.56,12.6986667 452.56,13.488 L452.56,13.488 Z M456.944,18 L456.944,12.368 C457.338667,11.9733333 457.690667,11.6746667 458,11.472 C458.309333,11.2693333 458.666667,11.168 459.072,11.168 C459.584,11.168 459.957333,11.3306667 460.192,11.656 C460.426667,11.9813333 460.544,12.512 460.544,13.248 L460.544,13.248 L460.544,18 L461.856,18 L461.856,13.072 C461.856,12.0693333 461.666667,11.312 461.288,10.8 C460.909333,10.288 460.309333,10.032 459.488,10.032 C458.944,10.032 458.466667,10.1573333 458.056,10.408 C457.645333,10.6586667 457.253333,10.9706667 456.88,11.344 L456.88,11.344 L456.832,11.344 L456.72,10.224 L455.632,10.224 L455.632,18 L456.944,18 Z M467.04,18.192 C467.498667,18.192 467.928,18.0826667 468.328,17.864 C468.728,17.6453333 469.082667,17.3866667 469.392,17.088 L469.392,17.088 L469.44,17.088 L469.552,18 L470.64,18 L470.64,6.608 L469.312,6.608 L469.312,9.6 L469.376,10.928 C469.034667,10.6506667 468.698667,10.432 468.368,10.272 C468.037333,10.112 467.648,10.032 467.2,10.032 C466.752,10.032 466.325333,10.128 465.92,10.32 C465.514667,10.512 465.157333,10.784 464.848,11.136 C464.538667,11.488 464.290667,11.9173333 464.104,12.424 C463.917333,12.9306667 463.824,13.4986667 463.824,14.128 C463.824,15.4293333 464.114667,16.432 464.696,17.136 C465.277333,17.84 466.058667,18.192 467.04,18.192 Z M467.328,17.088 C466.645333,17.088 466.117333,16.8266667 465.744,16.304 C465.370667,15.7813333 465.184,15.0506667 465.184,14.112 C465.184,13.664 465.242667,13.2586667 465.36,12.896 C465.477333,12.5333333 465.637333,12.2213333 465.84,11.96 C466.042667,11.6986667 466.28,11.496 466.552,11.352 C466.824,11.208 467.114667,11.136 467.424,11.136 C467.744,11.136 468.056,11.1973333 468.36,11.32 C468.664,11.4426667 468.981333,11.6533333 469.312,11.952 L469.312,11.952 L469.312,16.016 C468.992,16.3786667 468.672,16.648 468.352,16.824 C468.032,17 467.690667,17.088 467.328,17.088 Z M473.936,8.624 C474.192,8.624 474.408,8.544 474.584,8.384 C474.76,8.224 474.848,8.02133333 474.848,7.776 C474.848,7.52 474.76,7.31466667 474.584,7.16 C474.408,7.00533333 474.192,6.928 473.936,6.928 C473.68,6.928 473.464,7.00533333 473.288,7.16 C473.112,7.31466667 473.024,7.52 473.024,7.776 C473.024,8.02133333 473.112,8.224 473.288,8.384 C473.464,8.544 473.68,8.624 473.936,8.624 Z M474.576,18 L474.576,10.224 L473.264,10.224 L473.264,18 L474.576,18 Z M478.512,18 L478.512,12.368 C478.906667,11.9733333 479.258667,11.6746667 479.568,11.472 C479.877333,11.2693333 480.234667,11.168 480.64,11.168 C481.152,11.168 481.525333,11.3306667 481.76,11.656 C481.994667,11.9813333 482.112,12.512 482.112,13.248 L482.112,13.248 L482.112,18 L483.424,18 L483.424,13.072 C483.424,12.0693333 483.234667,11.312 482.856,10.8 C482.477333,10.288 481.877333,10.032 481.056,10.032 C480.512,10.032 480.034667,10.1573333 479.624,10.408 C479.213333,10.6586667 478.821333,10.9706667 478.448,11.344 L478.448,11.344 L478.4,11.344 L478.288,10.224 L477.2,10.224 L477.2,18 L478.512,18 Z M488.576,21.584 C489.184,21.584 489.730667,21.512 490.216,21.368 C490.701333,21.224 491.114667,21.0293333 491.456,20.784 C491.797333,20.5386667 492.058667,20.2533333 492.24,19.928 C492.421333,19.6026667 492.512,19.2586667 492.512,18.896 C492.512,18.2453333 492.285333,17.7733333 491.832,17.48 C491.378667,17.1866667 490.698667,17.04 489.792,17.04 L489.792,17.04 L488.288,17.04 C487.754667,17.04 487.392,16.96 487.2,16.8 C487.008,16.64 486.912,16.4373333 486.912,16.192 C486.912,15.9786667 486.96,15.8 487.056,15.656 C487.152,15.512 487.269333,15.3813333 487.408,15.264 C487.589333,15.3493333 487.781333,15.416 487.984,15.464 C488.186667,15.512 488.384,15.536 488.576,15.536 C488.970667,15.536 489.341333,15.472 489.688,15.344 C490.034667,15.216 490.336,15.0373333 490.592,14.808 C490.848,14.5786667 491.050667,14.296 491.2,13.96 C491.349333,13.624 491.424,13.248 491.424,12.832 C491.424,12.5013333 491.362667,12.1973333 491.24,11.92 C491.117333,11.6426667 490.965333,11.4133333 490.784,11.232 L490.784,11.232 L492.384,11.232 L492.384,10.224 L489.68,10.224 C489.530667,10.1706667 489.362667,10.1253333 489.176,10.088 C488.989333,10.0506667 488.789333,10.032 488.576,10.032 C488.181333,10.032 487.805333,10.096 487.448,10.224 C487.090667,10.352 486.778667,10.536 486.512,10.776 C486.245333,11.016 486.034667,11.3066667 485.88,11.648 C485.725333,11.9893333 485.648,12.3733333 485.648,12.8 C485.648,13.2693333 485.752,13.6826667 485.96,14.04 C486.168,14.3973333 486.4,14.6826667 486.656,14.896 L486.656,14.896 L486.656,14.96 C486.453333,15.0986667 486.261333,15.2906667 486.08,15.536 C485.898667,15.7813333 485.808,16.0693333 485.808,16.4 C485.808,16.7093333 485.874667,16.968 486.008,17.176 C486.141333,17.384 486.304,17.5466667 486.496,17.664 L486.496,17.664 L486.496,17.728 C486.144,17.9733333 485.866667,18.2453333 485.664,18.544 C485.461333,18.8426667 485.36,19.1573333 485.36,19.488 C485.36,19.8293333 485.437333,20.128 485.592,20.384 C485.746667,20.64 485.965333,20.8586667 486.248,21.04 C486.530667,21.2213333 486.869333,21.3573333 487.264,21.448 C487.658667,21.5386667 488.096,21.584 488.576,21.584 Z M488.576,14.656 C488.352,14.656 488.141333,14.6133333 487.944,14.528 C487.746667,14.4426667 487.570667,14.32 487.416,14.16 C487.261333,14 487.141333,13.8053333 487.056,13.576 C486.970667,13.3466667 486.928,13.088 486.928,12.8 C486.928,12.224 487.088,11.7786667 487.408,11.464 C487.728,11.1493333 488.117333,10.992 488.576,10.992 C489.034667,10.992 489.424,11.1493333 489.744,11.464 C490.064,11.7786667 490.224,12.224 490.224,12.8 C490.224,13.088 490.181333,13.3466667 490.096,13.576 C490.010667,13.8053333 489.890667,14 489.736,14.16 C489.581333,14.32 489.405333,14.4426667 489.208,14.528 C489.010667,14.6133333 488.8,14.656 488.576,14.656 Z M488.768,20.672 C488.064,20.672 487.512,20.5493333 487.112,20.304 C486.712,20.0586667 486.512,19.728 486.512,19.312 C486.512,19.088 486.576,18.864 486.704,18.64 C486.832,18.416 487.034667,18.2026667 487.312,18 C487.482667,18.0533333 487.656,18.088 487.832,18.104 C488.008,18.12 488.170667,18.128 488.32,18.128 L488.32,18.128 L489.664,18.128 C490.176,18.128 490.565333,18.1973333 490.832,18.336 C491.098667,18.4746667 491.232,18.7253333 491.232,19.088 C491.232,19.2906667 491.173333,19.488 491.056,19.68 C490.938667,19.872 490.773333,20.04 490.56,20.184 C490.346667,20.328 490.088,20.4453333 489.784,20.536 C489.48,20.6266667 489.141333,20.672 488.768,20.672 Z M500.416,19.76 L500.416,18.144 C501.184,18.0373333 501.789333,17.7386667 502.232,17.248 C502.674667,16.7573333 502.896,16.128 502.896,15.36 C502.896,14.784 502.786667,14.312 502.568,13.944 C502.349333,13.576 502.074667,13.2666667 501.744,13.016 C501.413333,12.7653333 501.053333,12.552 500.664,12.376 C500.274667,12.2 499.914667,12.0186667 499.584,11.832 C499.253333,11.6453333 498.978667,11.4293333 498.76,11.184 C498.541333,10.9386667 498.432,10.624 498.432,10.24 C498.432,9.77066667 498.576,9.39733333 498.864,9.12 C499.152,8.84266667 499.541333,8.704 500.032,8.704 C500.469333,8.704 500.829333,8.784 501.112,8.944 C501.394667,9.104 501.685333,9.328 501.984,9.616 L501.984,9.616 L502.688,8.832 C502.4,8.52266667 502.077333,8.256 501.72,8.032 C501.362667,7.808 500.928,7.66933333 500.416,7.616 L500.416,7.616 L500.416,6.032 L499.456,6.032 L499.456,7.648 C498.752,7.75466667 498.189333,8.04533333 497.768,8.52 C497.346667,8.99466667 497.136,9.58933333 497.136,10.304 C497.136,10.8266667 497.245333,11.256 497.464,11.592 C497.682667,11.928 497.957333,12.2133333 498.288,12.448 C498.618667,12.6826667 498.978667,12.8906667 499.368,13.072 C499.757333,13.2533333 500.117333,13.448 500.448,13.656 C500.778667,13.864 501.053333,14.1093333 501.272,14.392 C501.490667,14.6746667 501.6,15.0293333 501.6,15.456 C501.6,15.9573333 501.453333,16.3573333 501.16,16.656 C500.866667,16.9546667 500.421333,17.104 499.824,17.104 C499.333333,17.104 498.882667,17 498.472,16.792 C498.061333,16.584 497.685333,16.3306667 497.344,16.032 L497.344,16.032 L496.736,16.944 C497.077333,17.2533333 497.488,17.5226667 497.968,17.752 C498.448,17.9813333 498.944,18.1226667 499.456,18.176 L499.456,18.176 L499.456,19.76 L500.416,19.76 Z M507.632,18.192 C508.101333,18.192 508.538667,18.1253333 508.944,17.992 C509.349333,17.8586667 509.704,17.6666667 510.008,17.416 C510.312,17.1653333 510.552,16.8586667 510.728,16.496 C510.904,16.1333333 510.992,15.728 510.992,15.28 C510.992,14.928 510.936,14.608 510.824,14.32 C510.712,14.032 510.554667,13.7786667 510.352,13.56 C510.149333,13.3413333 509.914667,13.16 509.648,13.016 C509.381333,12.872 509.093333,12.7626667 508.784,12.688 L508.784,12.688 L508.784,12.624 C509.338667,12.4106667 509.786667,12.1066667 510.128,11.712 C510.469333,11.3173333 510.64,10.8106667 510.64,10.192 C510.64,9.776 510.565333,9.408 510.416,9.088 C510.266667,8.768 510.056,8.49866667 509.784,8.28 C509.512,8.06133333 509.189333,7.89333333 508.816,7.776 C508.442667,7.65866667 508.032,7.6 507.584,7.6 C506.976,7.6 506.434667,7.72 505.96,7.96 C505.485333,8.2 505.050667,8.50666667 504.656,8.88 L504.656,8.88 L505.36,9.712 C505.669333,9.40266667 506.002667,9.152 506.36,8.96 C506.717333,8.768 507.109333,8.672 507.536,8.672 C508.08,8.672 508.509333,8.816 508.824,9.104 C509.138667,9.392 509.296,9.78666667 509.296,10.288 C509.296,10.5546667 509.248,10.8053333 509.152,11.04 C509.056,11.2746667 508.893333,11.4773333 508.664,11.648 C508.434667,11.8186667 508.136,11.952 507.768,12.048 C507.4,12.144 506.944,12.192 506.4,12.192 L506.4,12.192 L506.4,13.2 C507.008,13.2 507.52,13.248 507.936,13.344 C508.352,13.44 508.688,13.5786667 508.944,13.76 C509.2,13.9413333 509.384,14.1573333 509.496,14.408 C509.608,14.6586667 509.664,14.9333333 509.664,15.232 C509.664,15.808 509.466667,16.264 509.072,16.6 C508.677333,16.936 508.170667,17.104 507.552,17.104 C506.944,17.104 506.434667,16.9813333 506.024,16.736 C505.613333,16.4906667 505.253333,16.208 504.944,15.888 L504.944,15.888 L504.272,16.752 C504.442667,16.944 504.637333,17.1253333 504.856,17.296 C505.074667,17.4666667 505.322667,17.6186667 505.6,17.752 C505.877333,17.8853333 506.184,17.992 506.52,18.072 C506.856,18.152 507.226667,18.192 507.632,18.192 Z M513.808,18.192 C514.064,18.192 514.285333,18.0986667 514.472,17.912 C514.658667,17.7253333 514.752,17.488 514.752,17.2 C514.752,16.8906667 514.658667,16.6426667 514.472,16.456 C514.285333,16.2693333 514.064,16.176 513.808,16.176 C513.541333,16.176 513.314667,16.2693333 513.128,16.456 C512.941333,16.6426667 512.848,16.8906667 512.848,17.2 C512.848,17.488 512.941333,17.7253333 513.128,17.912 C513.314667,18.0986667 513.541333,18.192 513.808,18.192 Z M519.072,18.192 C519.584,18.192 520.072,18.088 520.536,17.88 C521,17.672 521.413333,17.3413333 521.776,16.888 C522.138667,16.4346667 522.426667,15.848 522.64,15.128 C522.853333,14.408 522.96,13.536 522.96,12.512 C522.96,11.6906667 522.872,10.9733333 522.696,10.36 C522.52,9.74666667 522.274667,9.23466667 521.96,8.824 C521.645333,8.41333333 521.272,8.10666667 520.84,7.904 C520.408,7.70133333 519.941333,7.6 519.44,7.6 C519.034667,7.6 518.648,7.68 518.28,7.84 C517.912,8 517.592,8.224 517.32,8.512 C517.048,8.8 516.832,9.144 516.672,9.544 C516.512,9.944 516.432,10.3893333 516.432,10.88 C516.432,11.936 516.693333,12.7253333 517.216,13.248 C517.738667,13.7706667 518.442667,14.032 519.328,14.032 C519.754667,14.032 520.181333,13.9146667 520.608,13.68 C521.034667,13.4453333 521.408,13.1253333 521.728,12.72 C521.717333,13.5413333 521.637333,14.2293333 521.488,14.784 C521.338667,15.3386667 521.141333,15.7893333 520.896,16.136 C520.650667,16.4826667 520.368,16.7306667 520.048,16.88 C519.728,17.0293333 519.386667,17.104 519.024,17.104 C518.704,17.104 518.397333,17.0293333 518.104,16.88 C517.810667,16.7306667 517.557333,16.5333333 517.344,16.288 L517.344,16.288 L516.608,17.12 C516.885333,17.4293333 517.229333,17.6853333 517.64,17.888 C518.050667,18.0906667 518.528,18.192 519.072,18.192 Z M519.552,13.04 C518.912,13.04 518.437333,12.848 518.128,12.464 C517.818667,12.08 517.664,11.552 517.664,10.88 C517.664,10.5493333 517.709333,10.2453333 517.8,9.968 C517.890667,9.69066667 518.016,9.45333333 518.176,9.256 C518.336,9.05866667 518.525333,8.90666667 518.744,8.8 C518.962667,8.69333333 519.194667,8.64 519.44,8.64 C520.090667,8.64 520.608,8.896 520.992,9.408 C521.376,9.92 521.610667,10.6773333 521.696,11.68 C521.365333,12.16 521.010667,12.5066667 520.632,12.72 C520.253333,12.9333333 519.893333,13.04 519.552,13.04 Z M530.976,18 L530.976,16.864 L528.016,16.864 C527.749333,16.864 527.466667,16.8746667 527.168,16.896 C526.869333,16.9173333 526.581333,16.9386667 526.304,16.96 C526.912,16.3306667 527.469333,15.736 527.976,15.176 C528.482667,14.616 528.92,14.0773333 529.288,13.56 C529.656,13.0426667 529.944,12.5413333 530.152,12.056 C530.36,11.5706667 530.464,11.088 530.464,10.608 C530.464,9.70133333 530.192,8.97333333 529.648,8.424 C529.104,7.87466667 528.357333,7.6 527.408,7.6 C526.736,7.6 526.16,7.74133333 525.68,8.024 C525.2,8.30666667 524.746667,8.68266667 524.32,9.152 L524.32,9.152 L525.072,9.904 C525.370667,9.56266667 525.701333,9.272 526.064,9.032 C526.426667,8.792 526.821333,8.672 527.248,8.672 C527.898667,8.672 528.384,8.85866667 528.704,9.232 C529.024,9.60533333 529.184,10.0853333 529.184,10.672 C529.184,11.088 529.077333,11.5173333 528.864,11.96 C528.650667,12.4026667 528.341333,12.888 527.936,13.416 C527.530667,13.944 527.029333,14.5173333 526.432,15.136 C525.834667,15.7546667 525.152,16.448 524.384,17.216 L524.384,17.216 L524.384,18 L530.976,18 Z M536.656,18 L536.656,8.624 L539.824,8.624 L539.824,7.504 L532.144,7.504 L532.144,8.624 L535.312,8.624 L535.312,18 L536.656,18 Z" id="TotalEstimatedLending$3.92T" fill="#555555" fill-rule="nonzero"></path>
                <path d="M0,97 L0,40 L873,40 L873,97" id="Path-21" stroke="#D8D8D8" stroke-dasharray="3,3"></path>
                <path d="M477.212,68 L477.968,65.6 L480.836,65.6 L481.58,68 L482.648,68 L479.984,60.128 L478.856,60.128 L476.192,68 L477.212,68 Z M480.584,64.796 L478.22,64.796 L478.592,63.596 C478.736,63.156 478.872,62.718 479,62.282 C479.128,61.846 479.252,61.4 479.372,60.944 L479.372,60.944 L479.42,60.944 C479.548,61.4 479.676,61.846 479.804,62.282 C479.932,62.718 480.068,63.156 480.212,63.596 L480.212,63.596 L480.584,64.796 Z M486.2,68 L488.696,60.128 L487.676,60.128 L486.416,64.376 C486.28,64.848 486.156,65.284 486.044,65.684 C485.932,66.084 485.804,66.516 485.66,66.98 L485.66,66.98 L485.612,66.98 C485.46,66.516 485.33,66.084 485.222,65.684 C485.114,65.284 484.988,64.848 484.844,64.376 L484.844,64.376 L483.584,60.128 L482.516,60.128 L485.036,68 L486.2,68 Z M489.584,68 L490.34,65.6 L493.208,65.6 L493.952,68 L495.02,68 L492.356,60.128 L491.228,60.128 L488.564,68 L489.584,68 Z M492.956,64.796 L490.592,64.796 L490.964,63.596 C491.108,63.156 491.244,62.718 491.372,62.282 C491.5,61.846 491.624,61.4 491.744,60.944 L491.744,60.944 L491.792,60.944 C491.92,61.4 492.048,61.846 492.176,62.282 C492.304,62.718 492.44,63.156 492.584,63.596 L492.584,63.596 L492.956,64.796 Z M497.132,68 L497.132,60.128 L496.136,60.128 L496.136,68 L497.132,68 Z M503.732,68 L503.732,67.148 L500.288,67.148 L500.288,60.128 L499.292,60.128 L499.292,68 L503.732,68 Z M505.136,68 L505.892,65.6 L508.76,65.6 L509.504,68 L510.572,68 L507.908,60.128 L506.78,60.128 L504.116,68 L505.136,68 Z M508.508,64.796 L506.144,64.796 L506.516,63.596 C506.66,63.156 506.796,62.718 506.924,62.282 C507.052,61.846 507.176,61.4 507.296,60.944 L507.296,60.944 L507.344,60.944 C507.472,61.4 507.6,61.846 507.728,62.282 C507.856,62.718 507.992,63.156 508.136,63.596 L508.136,63.596 L508.508,64.796 Z M514.196,68 C514.636,68 515.04,67.952 515.408,67.856 C515.776,67.76 516.092,67.616 516.356,67.424 C516.62,67.232 516.824,66.992 516.968,66.704 C517.112,66.416 517.184,66.08 517.184,65.696 C517.184,65.152 517.036,64.724 516.74,64.412 C516.444,64.1 516.056,63.9 515.576,63.812 L515.576,63.812 L515.576,63.764 C515.952,63.644 516.238,63.426 516.434,63.11 C516.63,62.794 516.728,62.44 516.728,62.048 C516.728,61.704 516.662,61.41 516.53,61.166 C516.398,60.922 516.214,60.724 515.978,60.572 C515.742,60.42 515.458,60.308 515.126,60.236 C514.794,60.164 514.428,60.128 514.028,60.128 L514.028,60.128 L511.688,60.128 L511.688,68 L514.196,68 Z M513.848,63.476 L512.684,63.476 L512.684,60.92 L513.896,60.92 C514.512,60.92 514.974,61.016 515.282,61.208 C515.59,61.4 515.744,61.724 515.744,62.18 C515.744,62.58 515.596,62.896 515.3,63.128 C515.004,63.36 514.52,63.476 513.848,63.476 L513.848,63.476 Z M514.052,67.208 L512.684,67.208 L512.684,64.244 L514.052,64.244 C514.748,64.244 515.28,64.358 515.648,64.586 C516.016,64.814 516.2,65.172 516.2,65.66 C516.2,66.188 516.012,66.578 515.636,66.83 C515.26,67.082 514.732,67.208 514.052,67.208 L514.052,67.208 Z M523.184,68 L523.184,67.148 L519.74,67.148 L519.74,60.128 L518.744,60.128 L518.744,68 L523.184,68 Z M529.232,68 L529.232,67.148 L525.572,67.148 L525.572,64.292 L528.56,64.292 L528.56,63.44 L525.572,63.44 L525.572,60.968 L529.112,60.968 L529.112,60.128 L524.576,60.128 L524.576,68 L529.232,68 Z M537.74,68 L537.74,67.148 L534.296,67.148 L534.296,60.128 L533.3,60.128 L533.3,68 L537.74,68 Z M543.788,68 L543.788,67.148 L540.128,67.148 L540.128,64.292 L543.116,64.292 L543.116,63.44 L540.128,63.44 L540.128,60.968 L543.668,60.968 L543.668,60.128 L539.132,60.128 L539.132,68 L543.788,68 Z M546.404,68 L546.404,63.884 C546.404,63.468 546.39,63.054 546.362,62.642 C546.334,62.23 546.304,61.824 546.272,61.424 L546.272,61.424 L546.32,61.424 L547.172,63.044 L550.028,68 L551.06,68 L551.06,60.128 L550.112,60.128 L550.112,64.196 C550.112,64.612 550.126,65.034 550.154,65.462 C550.182,65.89 550.208,66.304 550.232,66.704 L550.232,66.704 L550.184,66.704 L549.332,65.072 L546.488,60.128 L545.456,60.128 L545.456,68 L546.404,68 Z M555.236,68 C555.828,68 556.352,67.91 556.808,67.73 C557.264,67.55 557.648,67.29 557.96,66.95 C558.272,66.61 558.508,66.194 558.668,65.702 C558.828,65.21 558.908,64.652 558.908,64.028 C558.908,62.772 558.592,61.808 557.96,61.136 C557.328,60.464 556.404,60.128 555.188,60.128 L555.188,60.128 L553.22,60.128 L553.22,68 L555.236,68 Z M555.116,67.184 L554.216,67.184 L554.216,60.944 L555.116,60.944 C556.036,60.944 556.726,61.208 557.186,61.736 C557.646,62.264 557.876,63.028 557.876,64.028 C557.876,65.028 557.646,65.804 557.186,66.356 C556.726,66.908 556.036,67.184 555.116,67.184 L555.116,67.184 Z M561.596,68 L561.596,60.128 L560.6,60.128 L560.6,68 L561.596,68 Z M564.704,68 L564.704,63.884 C564.704,63.468 564.69,63.054 564.662,62.642 C564.634,62.23 564.604,61.824 564.572,61.424 L564.572,61.424 L564.62,61.424 L565.472,63.044 L568.328,68 L569.36,68 L569.36,60.128 L568.412,60.128 L568.412,64.196 C568.412,64.612 568.426,65.034 568.454,65.462 C568.482,65.89 568.508,66.304 568.532,66.704 L568.532,66.704 L568.484,66.704 L567.632,65.072 L564.788,60.128 L563.756,60.128 L563.756,68 L564.704,68 Z M574.616,68.144 C575.144,68.144 575.616,68.058 576.032,67.886 C576.448,67.714 576.784,67.496 577.04,67.232 L577.04,67.232 L577.04,63.92 L574.46,63.92 L574.46,64.748 L576.128,64.748 L576.128,66.8 C575.968,66.944 575.762,67.058 575.51,67.142 C575.258,67.226 574.992,67.268 574.712,67.268 C574.288,67.268 573.914,67.192 573.59,67.04 C573.266,66.888 572.994,66.672 572.774,66.392 C572.554,66.112 572.386,65.774 572.27,65.378 C572.154,64.982 572.096,64.536 572.096,64.04 C572.096,63.552 572.158,63.112 572.282,62.72 C572.406,62.328 572.58,61.994 572.804,61.718 C573.028,61.442 573.3,61.23 573.62,61.082 C573.94,60.934 574.3,60.86 574.7,60.86 C575.1,60.86 575.432,60.932 575.696,61.076 C575.96,61.22 576.192,61.396 576.392,61.604 L576.392,61.604 L576.944,60.956 C576.832,60.836 576.702,60.718 576.554,60.602 C576.406,60.486 576.238,60.382 576.05,60.29 C575.862,60.198 575.654,60.124 575.426,60.068 C575.198,60.012 574.948,59.984 574.676,59.984 C574.156,59.984 573.674,60.078 573.23,60.266 C572.786,60.454 572.404,60.724 572.084,61.076 C571.764,61.428 571.514,61.856 571.334,62.36 C571.154,62.864 571.064,63.432 571.064,64.064 C571.064,64.704 571.152,65.278 571.328,65.786 C571.504,66.294 571.748,66.722 572.06,67.07 C572.372,67.418 572.746,67.684 573.182,67.868 C573.618,68.052 574.096,68.144 574.616,68.144 Z M512.936,84.32 L512.936,83.072 C513.56,82.936 514.028,82.662 514.34,82.25 C514.652,81.838 514.808,81.344 514.808,80.768 C514.808,80.384 514.73,80.062 514.574,79.802 C514.418,79.542 514.222,79.32 513.986,79.136 C513.75,78.952 513.496,78.796 513.224,78.668 C512.952,78.54 512.698,78.416 512.462,78.296 C512.226,78.176 512.03,78.05 511.874,77.918 C511.718,77.786 511.64,77.624 511.64,77.432 C511.64,77.16 511.716,76.964 511.868,76.844 C512.02,76.724 512.24,76.664 512.528,76.664 C512.784,76.664 513.012,76.714 513.212,76.814 C513.412,76.914 513.62,77.064 513.836,77.264 L513.836,77.264 L514.724,76.256 C514.492,76.008 514.232,75.796 513.944,75.62 C513.656,75.444 513.32,75.328 512.936,75.272 L512.936,75.272 L512.936,74.06 L511.772,74.06 L511.772,75.296 C511.204,75.408 510.758,75.658 510.434,76.046 C510.11,76.434 509.948,76.924 509.948,77.516 C509.948,77.876 510.026,78.18 510.182,78.428 C510.338,78.676 510.534,78.892 510.77,79.076 C511.006,79.26 511.26,79.418 511.532,79.55 C511.804,79.682 512.058,79.814 512.294,79.946 C512.53,80.078 512.726,80.216 512.882,80.36 C513.038,80.504 513.116,80.68 513.116,80.888 C513.116,81.168 513.038,81.376 512.882,81.512 C512.726,81.648 512.48,81.716 512.144,81.716 C511.856,81.716 511.574,81.658 511.298,81.542 C511.022,81.426 510.732,81.252 510.428,81.02 L510.428,81.02 L509.66,82.208 C509.94,82.464 510.274,82.67 510.662,82.826 C511.05,82.982 511.42,83.08 511.772,83.12 L511.772,83.12 L511.772,84.32 L512.936,84.32 Z M518.444,83.144 C518.828,83.144 519.192,83.094 519.536,82.994 C519.88,82.894 520.18,82.75 520.436,82.562 C520.692,82.374 520.896,82.142 521.048,81.866 C521.2,81.59 521.276,81.276 521.276,80.924 C521.276,80.428 521.134,80.026 520.85,79.718 C520.566,79.41 520.204,79.192 519.764,79.064 L519.764,79.064 L519.764,79.016 C520.172,78.84 520.486,78.614 520.706,78.338 C520.926,78.062 521.036,77.724 521.036,77.324 C521.036,76.988 520.972,76.692 520.844,76.436 C520.716,76.18 520.538,75.962 520.31,75.782 C520.082,75.602 519.806,75.466 519.482,75.374 C519.158,75.282 518.8,75.236 518.408,75.236 C517.936,75.236 517.506,75.322 517.118,75.494 C516.73,75.666 516.36,75.904 516.008,76.208 L516.008,76.208 L516.896,77.288 C517.136,77.08 517.366,76.916 517.586,76.796 C517.806,76.676 518.052,76.616 518.324,76.616 C518.628,76.616 518.86,76.69 519.02,76.838 C519.18,76.986 519.26,77.192 519.26,77.456 C519.26,77.608 519.23,77.746 519.17,77.87 C519.11,77.994 519.01,78.102 518.87,78.194 C518.73,78.286 518.546,78.356 518.318,78.404 C518.09,78.452 517.804,78.476 517.46,78.476 L517.46,78.476 L517.46,79.724 C517.876,79.724 518.216,79.75 518.48,79.802 C518.744,79.854 518.952,79.926 519.104,80.018 C519.256,80.11 519.362,80.224 519.422,80.36 C519.482,80.496 519.512,80.648 519.512,80.816 C519.512,81.104 519.4,81.326 519.176,81.482 C518.952,81.638 518.652,81.716 518.276,81.716 C517.948,81.716 517.646,81.644 517.37,81.5 C517.094,81.356 516.84,81.172 516.608,80.948 L516.608,80.948 L515.792,82.064 C516.072,82.392 516.428,82.654 516.86,82.85 C517.292,83.046 517.82,83.144 518.444,83.144 Z M523.664,83.144 C523.968,83.144 524.222,83.038 524.426,82.826 C524.63,82.614 524.732,82.352 524.732,82.04 C524.732,81.72 524.63,81.454 524.426,81.242 C524.222,81.03 523.968,80.924 523.664,80.924 C523.36,80.924 523.106,81.03 522.902,81.242 C522.698,81.454 522.596,81.72 522.596,82.04 C522.596,82.352 522.698,82.614 522.902,82.826 C523.106,83.038 523.36,83.144 523.664,83.144 Z M528.632,83.144 C529.04,83.144 529.412,83.058 529.748,82.886 C530.084,82.714 530.37,82.46 530.606,82.124 C530.842,81.788 531.026,81.372 531.158,80.876 C531.29,80.38 531.356,79.808 531.356,79.16 C531.356,78.512 531.29,77.944 531.158,77.456 C531.026,76.968 530.842,76.558 530.606,76.226 C530.37,75.894 530.084,75.646 529.748,75.482 C529.412,75.318 529.04,75.236 528.632,75.236 C528.224,75.236 527.852,75.318 527.516,75.482 C527.18,75.646 526.894,75.894 526.658,76.226 C526.422,76.558 526.238,76.968 526.106,77.456 C525.974,77.944 525.908,78.512 525.908,79.16 C525.908,79.808 525.974,80.38 526.106,80.876 C526.238,81.372 526.422,81.788 526.658,82.124 C526.894,82.46 527.18,82.714 527.516,82.886 C527.852,83.058 528.224,83.144 528.632,83.144 Z M528.632,81.776 C528.488,81.776 528.352,81.738 528.224,81.662 C528.096,81.586 527.984,81.448 527.888,81.248 C527.792,81.048 527.716,80.78 527.66,80.444 C527.604,80.108 527.576,79.68 527.576,79.16 C527.576,78.64 527.604,78.214 527.66,77.882 C527.716,77.55 527.792,77.29 527.888,77.102 C527.984,76.914 528.096,76.784 528.224,76.712 C528.352,76.64 528.488,76.604 528.632,76.604 C528.784,76.604 528.924,76.64 529.052,76.712 C529.18,76.784 529.292,76.914 529.388,77.102 C529.484,77.29 529.558,77.55 529.61,77.882 C529.662,78.214 529.688,78.64 529.688,79.16 C529.688,79.68 529.662,80.108 529.61,80.444 C529.558,80.78 529.484,81.048 529.388,81.248 C529.292,81.448 529.18,81.586 529.052,81.662 C528.924,81.738 528.784,81.776 528.632,81.776 Z M534.956,83.144 C535.364,83.144 535.734,83.09 536.066,82.982 C536.398,82.874 536.682,82.726 536.918,82.538 C537.154,82.35 537.336,82.128 537.464,81.872 C537.592,81.616 537.656,81.336 537.656,81.032 C537.656,80.528 537.528,80.12 537.272,79.808 C537.016,79.496 536.704,79.24 536.336,79.04 L536.336,79.04 L536.336,78.992 C536.6,78.816 536.832,78.586 537.032,78.302 C537.232,78.018 537.332,77.692 537.332,77.324 C537.332,77.012 537.276,76.726 537.164,76.466 C537.052,76.206 536.896,75.986 536.696,75.806 C536.496,75.626 536.252,75.486 535.964,75.386 C535.676,75.286 535.36,75.236 535.016,75.236 C534.664,75.236 534.338,75.284 534.038,75.38 C533.738,75.476 533.48,75.616 533.264,75.8 C533.048,75.984 532.88,76.206 532.76,76.466 C532.64,76.726 532.58,77.016 532.58,77.336 C532.58,77.744 532.676,78.09 532.868,78.374 C533.06,78.658 533.304,78.912 533.6,79.136 L533.6,79.136 L533.6,79.184 C533.24,79.376 532.934,79.62 532.682,79.916 C532.43,80.212 532.304,80.592 532.304,81.056 C532.304,81.368 532.37,81.652 532.502,81.908 C532.634,82.164 532.818,82.384 533.054,82.568 C533.29,82.752 533.57,82.894 533.894,82.994 C534.218,83.094 534.572,83.144 534.956,83.144 Z M535.436,78.56 C535.044,78.408 534.728,78.244 534.488,78.068 C534.248,77.892 534.128,77.648 534.128,77.336 C534.128,77.04 534.212,76.82 534.38,76.676 C534.548,76.532 534.748,76.46 534.98,76.46 C535.268,76.46 535.494,76.55 535.658,76.73 C535.822,76.91 535.904,77.148 535.904,77.444 C535.904,77.828 535.748,78.2 535.436,78.56 Z M534.992,81.92 C534.672,81.92 534.396,81.826 534.164,81.638 C533.932,81.45 533.816,81.188 533.816,80.852 C533.816,80.62 533.872,80.4 533.984,80.192 C534.096,79.984 534.236,79.8 534.404,79.64 C534.644,79.744 534.862,79.84 535.058,79.928 C535.254,80.016 535.424,80.11 535.568,80.21 C535.712,80.31 535.822,80.42 535.898,80.54 C535.974,80.66 536.012,80.804 536.012,80.972 C536.012,81.292 535.916,81.53 535.724,81.686 C535.532,81.842 535.288,81.92 534.992,81.92 Z M542.36,83 L542.36,76.664 L544.508,76.664 L544.508,75.176 L538.436,75.176 L538.436,76.664 L540.584,76.664 L540.584,83 L542.36,83 Z" id="AVAILABLELENDING$3.08T" fill="#666666" fill-rule="nonzero"></path>
                <line x1="436.5" y1="39.5" x2="436.5" y2="27.5" id="Line-14" stroke="#D8D8D8" stroke-linecap="round" stroke-linejoin="round" stroke-dasharray="3,3"></line>
                <line x1="526.5" y1="98" x2="526.5" y2="90" id="Line-14-Copy-5" stroke="#979797" stroke-width="0.5" stroke-linecap="square"></line>
                <line x1="92.5" y1="98" x2="92.5" y2="90" id="Line-14-Copy" stroke="#979797" stroke-width="0.5" stroke-linecap="square"></line>
                <g id="Group-4" transform="translate(0.000000, 100.000000)">
                    <rect id="Rectangle-Copy-20" fill="#6F41A7" x="0" y="0" width="178" height="40"></rect>
                    <rect id="Rectangle-Copy-15" fill="#DAD1E4" x="180" y="0" width="693" height="40"></rect>
                </g>
            </g>
        </g>
    </g>
</svg>