<?xml version="1.0" encoding="UTF-8"?>
<svg width="20px" height="18px" viewBox="0 0 20 18" version="1.1" xmlns="http://www.w3.org/2000/svg" xmlns:xlink="http://www.w3.org/1999/xlink">
    <title>fa-regular:list-alt</title>
    <g id="Viz-3" stroke="none" stroke-width="1" fill="none" fill-rule="evenodd">
        <g id="Viz-3---Loans---Dropdown" transform="translate(-443.000000, -669.000000)" fill-rule="nonzero">
            <g id="TOTAL" transform="translate(240.000000, 654.000000)">
                <g id="tabs" transform="translate(10.000000, 0.000000)">
                    <g id="Group-2" transform="translate(193.000000, 8.000000)">
                        <g id="fa-regular:list-alt" transform="translate(0.000000, 6.000000)">
                            <g id="Icon" fill="#555555">
                                <path d="M18.125,1.25 L1.875,1.25 C0.839453125,1.25 0,2.08945313 0,3.125 L0,16.875 C0,17.9105469 0.839453125,18.75 1.875,18.75 L18.125,18.75 C19.1605469,18.75 20,17.9105469 20,16.875 L20,3.125 C20,2.08945312 19.1605469,1.25 18.125,1.25 Z M17.890625,16.875 L2.109375,16.875 C1.97993326,16.875 1.875,16.7700667 1.875,16.640625 L1.875,3.359375 C1.875,3.22993326 1.97993326,3.125 2.109375,3.125 L17.890625,3.125 C18.0200667,3.125 18.125,3.22993326 18.125,3.359375 L18.125,16.640625 C18.125,16.7700667 18.0200667,16.875 17.890625,16.875 Z M16.25,13.28125 L16.25,14.21875 C16.25,14.4776172 16.0401172,14.6875 15.78125,14.6875 L7.96875,14.6875 C7.70988281,14.6875 7.5,14.4776172 7.5,14.21875 L7.5,13.28125 C7.5,13.0223828 7.70988281,12.8125 7.96875,12.8125 L15.78125,12.8125 C16.0401172,12.8125 16.25,13.0223828 16.25,13.28125 Z M16.25,9.53125 L16.25,10.46875 C16.25,10.7276172 16.0401172,10.9375 15.78125,10.9375 L7.96875,10.9375 C7.70988281,10.9375 7.5,10.7276172 7.5,10.46875 L7.5,9.53125 C7.5,9.27238281 7.70988281,9.0625 7.96875,9.0625 L15.78125,9.0625 C16.0401172,9.0625 16.25,9.27238281 16.25,9.53125 Z M16.25,5.78125 L16.25,6.71875 C16.25,6.97761719 16.0401172,7.1875 15.78125,7.1875 L7.96875,7.1875 C7.70988281,7.1875 7.5,6.97761719 7.5,6.71875 L7.5,5.78125 C7.5,5.52238281 7.70988281,5.3125 7.96875,5.3125 L15.78125,5.3125 C16.0401172,5.3125 16.25,5.52238281 16.25,5.78125 Z M6.40625,6.25 C6.40625,7.02664063 5.77664063,7.65625 5,7.65625 C4.22335937,7.65625 3.59375,7.02664063 3.59375,6.25 C3.59375,5.47335937 4.22335937,4.84375 5,4.84375 C5.77664063,4.84375 6.40625,5.47335937 6.40625,6.25 Z M6.40625,10 C6.40625,10.7766406 5.77664063,11.40625 5,11.40625 C4.22335937,11.40625 3.59375,10.7766406 3.59375,10 C3.59375,9.22335937 4.22335937,8.59375 5,8.59375 C5.77664063,8.59375 6.40625,9.22335937 6.40625,10 Z M6.40625,13.75 C6.40625,14.5266406 5.77664063,15.15625 5,15.15625 C4.22335937,15.15625 3.59375,14.5266406 3.59375,13.75 C3.59375,12.9733594 4.22335937,12.34375 5,12.34375 C5.77664063,12.34375 6.40625,12.9733594 6.40625,13.75 Z" id="Icon-Shape"></path>
                            </g>
                            <rect id="ViewBox" x="0" y="0" width="20" height="20"></rect>
                        </g>
                    </g>
                </g>
            </g>
        </g>
    </g>
</svg>