<?xml version="1.0" encoding="UTF-8"?>
<svg width="20px" height="19px" viewBox="0 0 20 19" version="1.1" xmlns="http://www.w3.org/2000/svg" xmlns:xlink="http://www.w3.org/1999/xlink">
    <title>openmoji-classical-building</title>
    <g id="Viz-3" stroke="none" stroke-width="1" fill="none" fill-rule="evenodd">
        <g id="Viz-3---Loans---Loan-Spending-Accounts" transform="translate(-443.000000, -668.000000)">
            <g id="LOAN-SPENDING-ACCOUNTS" transform="translate(240.000000, 662.000000)">
                <g id="tabs" transform="translate(10.000000, 0.000000)">
                    <g id="Group-2" transform="translate(193.000000, 0.000000)">
                        <g id="openmoji-classical-building" transform="translate(0.000000, 6.000000)">
                            <g id="Icon">
                                <polygon id="Icon-Path" fill="#FFFFFF" fill-rule="nonzero" points="0.769230769 16.9871795 19.2307692 16.9871795 19.2307692 18.525641 0.769230769 18.525641"></polygon>
                                <g id="Icon-Group" stroke-linecap="round" stroke-linejoin="round" transform="translate(0.384615, 0.000000)" fill="#555555">
                                    <polygon id="Icon-Path" points="0.448717949 16.6666667 18.7820513 16.6666667 18.7820513 18.3333333 0.448717949 18.3333333"></polygon>
                                    <path d="M9.61538462,0 L17.1153846,4.16666667 L17.9487179,4.16666667 L17.9487179,5.83333333 L1.28205128,5.83333333 L1.28205128,4.16666667 L2.11538462,4.16666667 L9.61538462,0 Z" id="Combined-Shape"></path>
                                    <polygon id="Icon-Path" points="2.11538462 15 17.1153846 15 17.1153846 16.6666667 2.11538462 16.6666667"></polygon>
                                    <polygon id="Icon-Path" points="2.94871795 6.66666667 4.61538462 6.66666667 4.61538462 14.1666667 2.94871795 14.1666667"></polygon>
                                    <polygon id="Icon-Path" points="6.28205128 6.66666667 7.94871795 6.66666667 7.94871795 14.1666667 6.28205128 14.1666667"></polygon>
                                    <polygon id="Icon-Path" points="14.6153846 6.66666667 16.2820513 6.66666667 16.2820513 14.1666667 14.6153846 14.1666667"></polygon>
                                    <polygon id="Icon-Path" points="11.2820513 6.66666667 12.9487179 6.66666667 12.9487179 14.1666667 11.2820513 14.1666667"></polygon>
                                </g>
                            </g>
                        </g>
                    </g>
                </g>
            </g>
        </g>
    </g>
</svg>