<?xml version="1.0" encoding="UTF-8"?>
<svg width="100%" height="28px" viewBox="0 0 741 28" version="1.1" xmlns="http://www.w3.org/2000/svg" xmlns:xlink="http://www.w3.org/1999/xlink">
    <title>Percent Scale Modal</title>
    <g id="SVG-Outlines" stroke="none" stroke-width="1" fill="none" fill-rule="evenodd">
        <g id="Desktop-HD" transform="translate(-421.000000, -2380.000000)">
            <g id="Percent-Scale-Modal" transform="translate(421.000000, 2380.000000)">
                <rect id="line_divider-copy" fill="#EEEEEE" x="3.5" y="27" width="718" height="1"></rect>
                <path d="M4.644,16.192 C5.188,16.192 5.684,16.0773333 6.132,15.848 C6.58,15.6186667 6.96133333,15.28 7.276,14.832 C7.59066667,14.384 7.836,13.8293333 8.012,13.168 C8.188,12.5066667 8.276,11.744 8.276,10.88 C8.276,10.016 8.188,9.25866667 8.012,8.608 C7.836,7.95733333 7.59066667,7.41066667 7.276,6.968 C6.96133333,6.52533333 6.58,6.19466667 6.132,5.976 C5.684,5.75733333 5.188,5.648 4.644,5.648 C4.1,5.648 3.604,5.75733333 3.156,5.976 C2.708,6.19466667 2.32666667,6.52533333 2.012,6.968 C1.69733333,7.41066667 1.452,7.95733333 1.276,8.608 C1.1,9.25866667 1.012,10.016 1.012,10.88 C1.012,11.744 1.1,12.5066667 1.276,13.168 C1.452,13.8293333 1.69733333,14.384 2.012,14.832 C2.32666667,15.28 2.708,15.6186667 3.156,15.848 C3.604,16.0773333 4.1,16.192 4.644,16.192 Z M4.644,14.368 C4.452,14.368 4.27066667,14.3173333 4.1,14.216 C3.92933333,14.1146667 3.78,13.9306667 3.652,13.664 C3.524,13.3973333 3.42266667,13.04 3.348,12.592 C3.27333333,12.144 3.236,11.5733333 3.236,10.88 C3.236,10.1866667 3.27333333,9.61866667 3.348,9.176 C3.42266667,8.73333333 3.524,8.38666667 3.652,8.136 C3.78,7.88533333 3.92933333,7.712 4.1,7.616 C4.27066667,7.52 4.452,7.472 4.644,7.472 C4.84666667,7.472 5.03333333,7.52 5.204,7.616 C5.37466667,7.712 5.524,7.88533333 5.652,8.136 C5.78,8.38666667 5.87866667,8.73333333 5.948,9.176 C6.01733333,9.61866667 6.052,10.1866667 6.052,10.88 C6.052,11.5733333 6.01733333,12.144 5.948,12.592 C5.87866667,13.04 5.78,13.3973333 5.652,13.664 C5.524,13.9306667 5.37466667,14.1146667 5.204,14.216 C5.03333333,14.3173333 4.84666667,14.368 4.644,14.368 Z M11.876,12 C12.2493333,12 12.596,11.9253333 12.916,11.776 C13.236,11.6266667 13.5106667,11.408 13.74,11.12 C13.9693333,10.832 14.1506667,10.4826667 14.284,10.072 C14.4173333,9.66133333 14.484,9.19466667 14.484,8.672 C14.484,8.14933333 14.4173333,7.68533333 14.284,7.28 C14.1506667,6.87466667 13.9693333,6.53066667 13.74,6.248 C13.5106667,5.96533333 13.236,5.74933333 12.916,5.6 C12.596,5.45066667 12.2493333,5.376 11.876,5.376 C11.5026667,5.376 11.156,5.45066667 10.836,5.6 C10.516,5.74933333 10.2413333,5.96533333 10.012,6.248 C9.78266667,6.53066667 9.604,6.87466667 9.476,7.28 C9.348,7.68533333 9.284,8.14933333 9.284,8.672 C9.284,9.19466667 9.348,9.66133333 9.476,10.072 C9.604,10.4826667 9.78266667,10.832 10.012,11.12 C10.2413333,11.408 10.516,11.6266667 10.836,11.776 C11.156,11.9253333 11.5026667,12 11.876,12 Z M13.588,16.192 L19.22,5.376 L17.86,5.376 L12.228,16.192 L13.588,16.192 Z M11.876,10.688 C11.6093333,10.688 11.3826667,10.5386667 11.196,10.24 C11.0093333,9.94133333 10.916,9.41866667 10.916,8.672 C10.916,7.92533333 11.0093333,7.408 11.196,7.12 C11.3826667,6.832 11.6093333,6.688 11.876,6.688 C12.1426667,6.688 12.3693333,6.832 12.556,7.12 C12.7426667,7.408 12.836,7.92533333 12.836,8.672 C12.836,9.41866667 12.7426667,9.94133333 12.556,10.24 C12.3693333,10.5386667 12.1426667,10.688 11.876,10.688 Z M19.572,16.192 C19.9453333,16.192 20.292,16.1173333 20.612,15.968 C20.932,15.8186667 21.2066667,15.6 21.436,15.312 C21.6653333,15.024 21.8466667,14.6746667 21.98,14.264 C22.1133333,13.8533333 22.18,13.3866667 22.18,12.864 C22.18,12.3413333 22.1133333,11.8773333 21.98,11.472 C21.8466667,11.0666667 21.6653333,10.7226667 21.436,10.44 C21.2066667,10.1573333 20.932,9.94133333 20.612,9.792 C20.292,9.64266667 19.9453333,9.568 19.572,9.568 C19.1986667,9.568 18.852,9.64266667 18.532,9.792 C18.212,9.94133333 17.9373333,10.1573333 17.708,10.44 C17.4786667,10.7226667 17.3,11.0666667 17.172,11.472 C17.044,11.8773333 16.98,12.3413333 16.98,12.864 C16.98,13.3866667 17.044,13.8533333 17.172,14.264 C17.3,14.6746667 17.4786667,15.024 17.708,15.312 C17.9373333,15.6 18.212,15.8186667 18.532,15.968 C18.852,16.1173333 19.1986667,16.192 19.572,16.192 Z M19.572,14.88 C19.3053333,14.88 19.0786667,14.7306667 18.892,14.432 C18.7053333,14.1333333 18.612,13.6106667 18.612,12.864 C18.612,12.1173333 18.7053333,11.6 18.892,11.312 C19.0786667,11.024 19.3053333,10.88 19.572,10.88 C19.8386667,10.88 20.0653333,11.024 20.252,11.312 C20.4386667,11.6 20.532,12.1173333 20.532,12.864 C20.532,13.6106667 20.4386667,14.1333333 20.252,14.432 C20.0653333,14.7306667 19.8386667,14.88 19.572,14.88 Z" id="0%" fill="#555555" fill-rule="nonzero"></path>
                <path d="M349.648,16.192 C350.138667,16.192 350.610667,16.112 351.064,15.952 C351.517333,15.792 351.914667,15.56 352.256,15.256 C352.597333,14.952 352.869333,14.5813333 353.072,14.144 C353.274667,13.7066667 353.376,13.2053333 353.376,12.64 C353.376,12.096 353.290667,11.6266667 353.12,11.232 C352.949333,10.8373333 352.714667,10.512 352.416,10.256 C352.117333,10 351.773333,9.808 351.384,9.68 C350.994667,9.552 350.581333,9.488 350.144,9.488 C349.930667,9.488 349.736,9.50666667 349.56,9.544 C349.384,9.58133333 349.2,9.64266667 349.008,9.728 L349.008,9.728 L349.184,7.824 L352.912,7.824 L352.912,5.84 L347.152,5.84 L346.864,10.976 L347.92,11.648 C348.069333,11.552 348.205333,11.472 348.328,11.408 C348.450667,11.344 348.568,11.2906667 348.68,11.248 C348.792,11.2053333 348.906667,11.176 349.024,11.16 C349.141333,11.144 349.274667,11.136 349.424,11.136 C349.904,11.136 350.290667,11.2693333 350.584,11.536 C350.877333,11.8026667 351.024,12.192 351.024,12.704 C351.024,13.2266667 350.869333,13.6213333 350.56,13.888 C350.250667,14.1546667 349.834667,14.288 349.312,14.288 C348.874667,14.288 348.477333,14.1893333 348.12,13.992 C347.762667,13.7946667 347.429333,13.5573333 347.12,13.28 L347.12,13.28 L346.064,14.768 C346.469333,15.1733333 346.96,15.512 347.536,15.784 C348.112,16.056 348.816,16.192 349.648,16.192 Z M358.368,16.192 C358.912,16.192 359.408,16.0773333 359.856,15.848 C360.304,15.6186667 360.685333,15.28 361,14.832 C361.314667,14.384 361.56,13.8293333 361.736,13.168 C361.912,12.5066667 362,11.744 362,10.88 C362,10.016 361.912,9.25866667 361.736,8.608 C361.56,7.95733333 361.314667,7.41066667 361,6.968 C360.685333,6.52533333 360.304,6.19466667 359.856,5.976 C359.408,5.75733333 358.912,5.648 358.368,5.648 C357.824,5.648 357.328,5.75733333 356.88,5.976 C356.432,6.19466667 356.050667,6.52533333 355.736,6.968 C355.421333,7.41066667 355.176,7.95733333 355,8.608 C354.824,9.25866667 354.736,10.016 354.736,10.88 C354.736,11.744 354.824,12.5066667 355,13.168 C355.176,13.8293333 355.421333,14.384 355.736,14.832 C356.050667,15.28 356.432,15.6186667 356.88,15.848 C357.328,16.0773333 357.824,16.192 358.368,16.192 Z M358.368,14.368 C358.176,14.368 357.994667,14.3173333 357.824,14.216 C357.653333,14.1146667 357.504,13.9306667 357.376,13.664 C357.248,13.3973333 357.146667,13.04 357.072,12.592 C356.997333,12.144 356.96,11.5733333 356.96,10.88 C356.96,10.1866667 356.997333,9.61866667 357.072,9.176 C357.146667,8.73333333 357.248,8.38666667 357.376,8.136 C357.504,7.88533333 357.653333,7.712 357.824,7.616 C357.994667,7.52 358.176,7.472 358.368,7.472 C358.570667,7.472 358.757333,7.52 358.928,7.616 C359.098667,7.712 359.248,7.88533333 359.376,8.136 C359.504,8.38666667 359.602667,8.73333333 359.672,9.176 C359.741333,9.61866667 359.776,10.1866667 359.776,10.88 C359.776,11.5733333 359.741333,12.144 359.672,12.592 C359.602667,13.04 359.504,13.3973333 359.376,13.664 C359.248,13.9306667 359.098667,14.1146667 358.928,14.216 C358.757333,14.3173333 358.570667,14.368 358.368,14.368 Z M365.6,12 C365.973333,12 366.32,11.9253333 366.64,11.776 C366.96,11.6266667 367.234667,11.408 367.464,11.12 C367.693333,10.832 367.874667,10.4826667 368.008,10.072 C368.141333,9.66133333 368.208,9.19466667 368.208,8.672 C368.208,8.14933333 368.141333,7.68533333 368.008,7.28 C367.874667,6.87466667 367.693333,6.53066667 367.464,6.248 C367.234667,5.96533333 366.96,5.74933333 366.64,5.6 C366.32,5.45066667 365.973333,5.376 365.6,5.376 C365.226667,5.376 364.88,5.45066667 364.56,5.6 C364.24,5.74933333 363.965333,5.96533333 363.736,6.248 C363.506667,6.53066667 363.328,6.87466667 363.2,7.28 C363.072,7.68533333 363.008,8.14933333 363.008,8.672 C363.008,9.19466667 363.072,9.66133333 363.2,10.072 C363.328,10.4826667 363.506667,10.832 363.736,11.12 C363.965333,11.408 364.24,11.6266667 364.56,11.776 C364.88,11.9253333 365.226667,12 365.6,12 Z M367.312,16.192 L372.944,5.376 L371.584,5.376 L365.952,16.192 L367.312,16.192 Z M365.6,10.688 C365.333333,10.688 365.106667,10.5386667 364.92,10.24 C364.733333,9.94133333 364.64,9.41866667 364.64,8.672 C364.64,7.92533333 364.733333,7.408 364.92,7.12 C365.106667,6.832 365.333333,6.688 365.6,6.688 C365.866667,6.688 366.093333,6.832 366.28,7.12 C366.466667,7.408 366.56,7.92533333 366.56,8.672 C366.56,9.41866667 366.466667,9.94133333 366.28,10.24 C366.093333,10.5386667 365.866667,10.688 365.6,10.688 Z M373.296,16.192 C373.669333,16.192 374.016,16.1173333 374.336,15.968 C374.656,15.8186667 374.930667,15.6 375.16,15.312 C375.389333,15.024 375.570667,14.6746667 375.704,14.264 C375.837333,13.8533333 375.904,13.3866667 375.904,12.864 C375.904,12.3413333 375.837333,11.8773333 375.704,11.472 C375.570667,11.0666667 375.389333,10.7226667 375.16,10.44 C374.930667,10.1573333 374.656,9.94133333 374.336,9.792 C374.016,9.64266667 373.669333,9.568 373.296,9.568 C372.922667,9.568 372.576,9.64266667 372.256,9.792 C371.936,9.94133333 371.661333,10.1573333 371.432,10.44 C371.202667,10.7226667 371.024,11.0666667 370.896,11.472 C370.768,11.8773333 370.704,12.3413333 370.704,12.864 C370.704,13.3866667 370.768,13.8533333 370.896,14.264 C371.024,14.6746667 371.202667,15.024 371.432,15.312 C371.661333,15.6 371.936,15.8186667 372.256,15.968 C372.576,16.1173333 372.922667,16.192 373.296,16.192 Z M373.296,14.88 C373.029333,14.88 372.802667,14.7306667 372.616,14.432 C372.429333,14.1333333 372.336,13.6106667 372.336,12.864 C372.336,12.1173333 372.429333,11.6 372.616,11.312 C372.802667,11.024 373.029333,10.88 373.296,10.88 C373.562667,10.88 373.789333,11.024 373.976,11.312 C374.162667,11.6 374.256,12.1173333 374.256,12.864 C374.256,13.6106667 374.162667,14.1333333 373.976,14.432 C373.789333,14.7306667 373.562667,14.88 373.296,14.88 Z" id="50%" fill="#555555" fill-rule="nonzero"></path>
                <path d="M709.056,16 L709.056,14.096 L707.152,14.096 L707.152,5.84 L705.424,5.84 C705.061333,6.05333333 704.688,6.23466667 704.304,6.384 C703.92,6.53333333 703.450667,6.66133333 702.896,6.768 L702.896,6.768 L702.896,8.224 L704.8,8.224 L704.8,14.096 L702.592,14.096 L702.592,16 L709.056,16 Z M714.144,16.192 C714.688,16.192 715.184,16.0773333 715.632,15.848 C716.08,15.6186667 716.461333,15.28 716.776,14.832 C717.090667,14.384 717.336,13.8293333 717.512,13.168 C717.688,12.5066667 717.776,11.744 717.776,10.88 C717.776,10.016 717.688,9.25866667 717.512,8.608 C717.336,7.95733333 717.090667,7.41066667 716.776,6.968 C716.461333,6.52533333 716.08,6.19466667 715.632,5.976 C715.184,5.75733333 714.688,5.648 714.144,5.648 C713.6,5.648 713.104,5.75733333 712.656,5.976 C712.208,6.19466667 711.826667,6.52533333 711.512,6.968 C711.197333,7.41066667 710.952,7.95733333 710.776,8.608 C710.6,9.25866667 710.512,10.016 710.512,10.88 C710.512,11.744 710.6,12.5066667 710.776,13.168 C710.952,13.8293333 711.197333,14.384 711.512,14.832 C711.826667,15.28 712.208,15.6186667 712.656,15.848 C713.104,16.0773333 713.6,16.192 714.144,16.192 Z M714.144,14.368 C713.952,14.368 713.770667,14.3173333 713.6,14.216 C713.429333,14.1146667 713.28,13.9306667 713.152,13.664 C713.024,13.3973333 712.922667,13.04 712.848,12.592 C712.773333,12.144 712.736,11.5733333 712.736,10.88 C712.736,10.1866667 712.773333,9.61866667 712.848,9.176 C712.922667,8.73333333 713.024,8.38666667 713.152,8.136 C713.28,7.88533333 713.429333,7.712 713.6,7.616 C713.770667,7.52 713.952,7.472 714.144,7.472 C714.346667,7.472 714.533333,7.52 714.704,7.616 C714.874667,7.712 715.024,7.88533333 715.152,8.136 C715.28,8.38666667 715.378667,8.73333333 715.448,9.176 C715.517333,9.61866667 715.552,10.1866667 715.552,10.88 C715.552,11.5733333 715.517333,12.144 715.448,12.592 C715.378667,13.04 715.28,13.3973333 715.152,13.664 C715.024,13.9306667 714.874667,14.1146667 714.704,14.216 C714.533333,14.3173333 714.346667,14.368 714.144,14.368 Z M722.592,16.192 C723.136,16.192 723.632,16.0773333 724.08,15.848 C724.528,15.6186667 724.909333,15.28 725.224,14.832 C725.538667,14.384 725.784,13.8293333 725.96,13.168 C726.136,12.5066667 726.224,11.744 726.224,10.88 C726.224,10.016 726.136,9.25866667 725.96,8.608 C725.784,7.95733333 725.538667,7.41066667 725.224,6.968 C724.909333,6.52533333 724.528,6.19466667 724.08,5.976 C723.632,5.75733333 723.136,5.648 722.592,5.648 C722.048,5.648 721.552,5.75733333 721.104,5.976 C720.656,6.19466667 720.274667,6.52533333 719.96,6.968 C719.645333,7.41066667 719.4,7.95733333 719.224,8.608 C719.048,9.25866667 718.96,10.016 718.96,10.88 C718.96,11.744 719.048,12.5066667 719.224,13.168 C719.4,13.8293333 719.645333,14.384 719.96,14.832 C720.274667,15.28 720.656,15.6186667 721.104,15.848 C721.552,16.0773333 722.048,16.192 722.592,16.192 Z M722.592,14.368 C722.4,14.368 722.218667,14.3173333 722.048,14.216 C721.877333,14.1146667 721.728,13.9306667 721.6,13.664 C721.472,13.3973333 721.370667,13.04 721.296,12.592 C721.221333,12.144 721.184,11.5733333 721.184,10.88 C721.184,10.1866667 721.221333,9.61866667 721.296,9.176 C721.370667,8.73333333 721.472,8.38666667 721.6,8.136 C721.728,7.88533333 721.877333,7.712 722.048,7.616 C722.218667,7.52 722.4,7.472 722.592,7.472 C722.794667,7.472 722.981333,7.52 723.152,7.616 C723.322667,7.712 723.472,7.88533333 723.6,8.136 C723.728,8.38666667 723.826667,8.73333333 723.896,9.176 C723.965333,9.61866667 724,10.1866667 724,10.88 C724,11.5733333 723.965333,12.144 723.896,12.592 C723.826667,13.04 723.728,13.3973333 723.6,13.664 C723.472,13.9306667 723.322667,14.1146667 723.152,14.216 C722.981333,14.3173333 722.794667,14.368 722.592,14.368 Z M729.824,12 C730.197333,12 730.544,11.9253333 730.864,11.776 C731.184,11.6266667 731.458667,11.408 731.688,11.12 C731.917333,10.832 732.098667,10.4826667 732.232,10.072 C732.365333,9.66133333 732.432,9.19466667 732.432,8.672 C732.432,8.14933333 732.365333,7.68533333 732.232,7.28 C732.098667,6.87466667 731.917333,6.53066667 731.688,6.248 C731.458667,5.96533333 731.184,5.74933333 730.864,5.6 C730.544,5.45066667 730.197333,5.376 729.824,5.376 C729.450667,5.376 729.104,5.45066667 728.784,5.6 C728.464,5.74933333 728.189333,5.96533333 727.96,6.248 C727.730667,6.53066667 727.552,6.87466667 727.424,7.28 C727.296,7.68533333 727.232,8.14933333 727.232,8.672 C727.232,9.19466667 727.296,9.66133333 727.424,10.072 C727.552,10.4826667 727.730667,10.832 727.96,11.12 C728.189333,11.408 728.464,11.6266667 728.784,11.776 C729.104,11.9253333 729.450667,12 729.824,12 Z M731.536,16.192 L737.168,5.376 L735.808,5.376 L730.176,16.192 L731.536,16.192 Z M729.824,10.688 C729.557333,10.688 729.330667,10.5386667 729.144,10.24 C728.957333,9.94133333 728.864,9.41866667 728.864,8.672 C728.864,7.92533333 728.957333,7.408 729.144,7.12 C729.330667,6.832 729.557333,6.688 729.824,6.688 C730.090667,6.688 730.317333,6.832 730.504,7.12 C730.690667,7.408 730.784,7.92533333 730.784,8.672 C730.784,9.41866667 730.690667,9.94133333 730.504,10.24 C730.317333,10.5386667 730.090667,10.688 729.824,10.688 Z M737.52,16.192 C737.893333,16.192 738.24,16.1173333 738.56,15.968 C738.88,15.8186667 739.154667,15.6 739.384,15.312 C739.613333,15.024 739.794667,14.6746667 739.928,14.264 C740.061333,13.8533333 740.128,13.3866667 740.128,12.864 C740.128,12.3413333 740.061333,11.8773333 739.928,11.472 C739.794667,11.0666667 739.613333,10.7226667 739.384,10.44 C739.154667,10.1573333 738.88,9.94133333 738.56,9.792 C738.24,9.64266667 737.893333,9.568 737.52,9.568 C737.146667,9.568 736.8,9.64266667 736.48,9.792 C736.16,9.94133333 735.885333,10.1573333 735.656,10.44 C735.426667,10.7226667 735.248,11.0666667 735.12,11.472 C734.992,11.8773333 734.928,12.3413333 734.928,12.864 C734.928,13.3866667 734.992,13.8533333 735.12,14.264 C735.248,14.6746667 735.426667,15.024 735.656,15.312 C735.885333,15.6 736.16,15.8186667 736.48,15.968 C736.8,16.1173333 737.146667,16.192 737.52,16.192 Z M737.52,14.88 C737.253333,14.88 737.026667,14.7306667 736.84,14.432 C736.653333,14.1333333 736.56,13.6106667 736.56,12.864 C736.56,12.1173333 736.653333,11.6 736.84,11.312 C737.026667,11.024 737.253333,10.88 737.52,10.88 C737.786667,10.88 738.013333,11.024 738.2,11.312 C738.386667,11.6 738.48,12.1173333 738.48,12.864 C738.48,13.6106667 738.386667,14.1333333 738.2,14.432 C738.013333,14.7306667 737.786667,14.88 737.52,14.88 Z" id="100%" fill="#555555" fill-rule="nonzero"></path>
                <rect id="Rectangle-Copy-33" fill="#DDDDDD" opacity="0.6" x="355.5" y="20" width="1" height="8"></rect>
                <rect id="Rectangle-Copy-35" fill="#DDDDDD" opacity="0.6" x="3.5" y="20" width="1" height="8"></rect>
                <rect id="Rectangle-Copy-34" fill="#DDDDDD" opacity="0.6" x="720.5" y="20" width="1" height="8"></rect>
            </g>
        </g>
    </g>
</svg>
