<?xml version="1.0" encoding="UTF-8"?>
<svg width="914px" height="147px" viewBox="0 0 914 147" version="1.1" xmlns="http://www.w3.org/2000/svg" xmlns:xlink="http://www.w3.org/1999/xlink">
    <title>Viz 1-B-Desktop</title>
    <defs>
        <rect id="path-1" x="622" y="0" width="216" height="40"></rect>
        <mask id="mask-2" maskContentUnits="userSpaceOnUse" maskUnits="objectBoundingBox" x="0" y="0" width="216" height="40" fill="white">
            <use xlink:href="#path-1"></use>
        </mask>
    </defs>
    <g id="SVG" stroke="none" stroke-width="1" fill="none" fill-rule="evenodd">
        <g id="Viz-1---Desktop-Outline" transform="translate(-99.000000, -414.000000)">
            <g id="Viz-1-B-Desktop" transform="translate(100.000000, 414.000000)">
                <g id="Group-11" transform="translate(0.000000, 107.000000)">
                    <g id="Group-10" fill="#6F41A7">
                        <rect id="Rectangle" x="498" y="0" width="119" height="40"></rect>
                        <rect id="Rectangle-Copy-13" x="9" y="0" width="487" height="40"></rect>
                        <rect id="Rectangle-Copy-14" x="4" y="0" width="3" height="40"></rect>
                        <rect id="Rectangle-Copy-17" x="0" y="0" width="2" height="40"></rect>
                    </g>
                    <use id="Rectangle" stroke="#979797" mask="url(#mask-2)" stroke-width="2" fill="#E1E1E1" stroke-dasharray="4,3" xlink:href="#path-1"></use>
                </g>
                <path d="M253.11,71 L253.11,66.884 C253.11,66.468 253.096,66.054 253.068,65.642 C253.04,65.23 253.01,64.824 252.978,64.424 L252.978,64.424 L253.026,64.424 L253.878,66.044 L256.734,71 L257.766,71 L257.766,63.128 L256.818,63.128 L256.818,67.196 C256.818,67.612 256.832,68.034 256.86,68.462 C256.888,68.89 256.914,69.304 256.938,69.704 L256.938,69.704 L256.89,69.704 L256.038,68.072 L253.194,63.128 L252.162,63.128 L252.162,71 L253.11,71 Z M264.582,71 L264.582,70.148 L260.922,70.148 L260.922,67.292 L263.91,67.292 L263.91,66.44 L260.922,66.44 L260.922,63.968 L264.462,63.968 L264.462,63.128 L259.926,63.128 L259.926,71 L264.582,71 Z M268.302,71 L269.466,66.26 C269.53,65.956 269.596,65.658 269.664,65.366 C269.732,65.074 269.798,64.776 269.862,64.472 L269.862,64.472 L269.91,64.472 C269.974,64.776 270.036,65.074 270.096,65.366 C270.156,65.658 270.222,65.956 270.294,66.26 L270.294,66.26 L271.482,71 L272.682,71 L274.314,63.128 L273.354,63.128 L272.526,67.412 C272.446,67.836 272.37,68.258 272.298,68.678 C272.226,69.098 272.154,69.524 272.082,69.956 L272.082,69.956 L272.034,69.956 C271.938,69.524 271.842,69.096 271.746,68.672 C271.65,68.248 271.554,67.828 271.458,67.412 L271.458,67.412 L270.366,63.128 L269.454,63.128 L268.362,67.412 C268.274,67.836 268.182,68.258 268.086,68.678 C267.99,69.098 267.898,69.524 267.81,69.956 L267.81,69.956 L267.762,69.956 C267.69,69.524 267.614,69.1 267.534,68.684 L267.417,68.054 L267.417,68.054 L267.306,67.412 L266.478,63.128 L265.446,63.128 L267.114,71 L268.302,71 Z M278.058,71 L278.814,68.6 L281.682,68.6 L282.426,71 L283.494,71 L280.83,63.128 L279.702,63.128 L277.038,71 L278.058,71 Z M281.43,67.796 L279.066,67.796 L279.438,66.596 C279.582,66.156 279.718,65.718 279.846,65.282 C279.974,64.846 280.098,64.4 280.218,63.944 L280.218,63.944 L280.266,63.944 C280.394,64.4 280.522,64.846 280.65,65.282 C280.778,65.718 280.914,66.156 281.058,66.596 L281.058,66.596 L281.43,67.796 Z M287.586,71.144 C288.114,71.144 288.586,71.058 289.002,70.886 C289.418,70.714 289.754,70.496 290.01,70.232 L290.01,70.232 L290.01,66.92 L287.43,66.92 L287.43,67.748 L289.098,67.748 L289.098,69.8 C288.938,69.944 288.732,70.058 288.48,70.142 C288.228,70.226 287.962,70.268 287.682,70.268 C287.258,70.268 286.884,70.192 286.56,70.04 C286.236,69.888 285.964,69.672 285.744,69.392 C285.524,69.112 285.356,68.774 285.24,68.378 C285.124,67.982 285.066,67.536 285.066,67.04 C285.066,66.552 285.128,66.112 285.252,65.72 C285.376,65.328 285.55,64.994 285.774,64.718 C285.998,64.442 286.27,64.23 286.59,64.082 C286.91,63.934 287.27,63.86 287.67,63.86 C288.07,63.86 288.402,63.932 288.666,64.076 C288.93,64.22 289.162,64.396 289.362,64.604 L289.362,64.604 L289.914,63.956 C289.802,63.836 289.672,63.718 289.524,63.602 C289.376,63.486 289.208,63.382 289.02,63.29 C288.832,63.198 288.624,63.124 288.396,63.068 C288.168,63.012 287.918,62.984 287.646,62.984 C287.126,62.984 286.644,63.078 286.2,63.266 C285.756,63.454 285.374,63.724 285.054,64.076 C284.734,64.428 284.484,64.856 284.304,65.36 C284.124,65.864 284.034,66.432 284.034,67.064 C284.034,67.704 284.122,68.278 284.298,68.786 C284.474,69.294 284.718,69.722 285.03,70.07 C285.342,70.418 285.716,70.684 286.152,70.868 C286.588,71.052 287.066,71.144 287.586,71.144 Z M296.55,71 L296.55,70.148 L292.89,70.148 L292.89,67.292 L295.878,67.292 L295.878,66.44 L292.89,66.44 L292.89,63.968 L296.43,63.968 L296.43,63.128 L291.894,63.128 L291.894,71 L296.55,71 Z M299.166,71 L299.166,66.884 C299.166,66.468 299.152,66.054 299.124,65.642 C299.096,65.23 299.066,64.824 299.034,64.424 L299.034,64.424 L299.082,64.424 L299.934,66.044 L302.79,71 L303.822,71 L303.822,63.128 L302.874,63.128 L302.874,67.196 C302.874,67.612 302.888,68.034 302.916,68.462 C302.944,68.89 302.97,69.304 302.994,69.704 L302.994,69.704 L302.946,69.704 L302.094,68.072 L299.25,63.128 L298.218,63.128 L298.218,71 L299.166,71 Z M308.958,71.144 C309.47,71.144 309.922,71.044 310.314,70.844 C310.706,70.644 311.058,70.364 311.37,70.004 L311.37,70.004 L310.818,69.38 C310.562,69.66 310.29,69.878 310.002,70.034 C309.714,70.19 309.378,70.268 308.994,70.268 C308.618,70.268 308.28,70.192 307.98,70.04 C307.68,69.888 307.426,69.672 307.218,69.392 C307.01,69.112 306.848,68.774 306.732,68.378 C306.616,67.982 306.558,67.536 306.558,67.04 C306.558,66.552 306.616,66.112 306.732,65.72 C306.848,65.328 307.014,64.994 307.23,64.718 C307.446,64.442 307.706,64.23 308.01,64.082 C308.314,63.934 308.654,63.86 309.03,63.86 C309.366,63.86 309.666,63.928 309.93,64.064 C310.194,64.2 310.43,64.38 310.638,64.604 L310.638,64.604 L311.178,63.956 C310.946,63.7 310.648,63.474 310.284,63.278 C309.92,63.082 309.498,62.984 309.018,62.984 C308.514,62.984 308.05,63.078 307.626,63.266 C307.202,63.454 306.834,63.724 306.522,64.076 C306.21,64.428 305.966,64.856 305.79,65.36 C305.614,65.864 305.526,66.432 305.526,67.064 C305.526,67.704 305.612,68.278 305.784,68.786 C305.956,69.294 306.196,69.722 306.504,70.07 C306.812,70.418 307.174,70.684 307.59,70.868 C308.006,71.052 308.462,71.144 308.958,71.144 Z M315.03,71 L315.03,67.952 L317.394,63.128 L316.35,63.128 L315.342,65.348 C315.222,65.636 315.094,65.92 314.958,66.2 C314.822,66.48 314.686,66.768 314.55,67.064 L314.55,67.064 L314.502,67.064 C314.366,66.768 314.238,66.48 314.118,66.2 C313.998,65.92 313.874,65.636 313.746,65.348 L313.746,65.348 L312.726,63.128 L311.658,63.128 L314.022,67.952 L314.022,71 L315.03,71 Z M321.858,71 L321.858,67.472 L324.858,67.472 L324.858,66.632 L321.858,66.632 L321.858,63.968 L325.398,63.968 L325.398,63.128 L320.862,63.128 L320.862,71 L321.858,71 Z M329.586,71.144 C329.986,71.144 330.358,71.086 330.702,70.97 C331.046,70.854 331.344,70.662 331.596,70.394 C331.848,70.126 332.046,69.776 332.19,69.344 C332.334,68.912 332.406,68.38 332.406,67.748 L332.406,67.748 L332.406,63.128 L331.446,63.128 L331.446,67.772 C331.446,68.244 331.398,68.64 331.302,68.96 C331.206,69.28 331.074,69.536 330.906,69.728 C330.738,69.92 330.542,70.058 330.318,70.142 C330.094,70.226 329.85,70.268 329.586,70.268 C329.33,70.268 329.09,70.226 328.866,70.142 C328.642,70.058 328.448,69.92 328.284,69.728 C328.12,69.536 327.99,69.28 327.894,68.96 C327.798,68.64 327.75,68.244 327.75,67.772 L327.75,67.772 L327.75,63.128 L326.754,63.128 L326.754,67.748 C326.754,68.38 326.826,68.912 326.97,69.344 C327.114,69.776 327.312,70.126 327.564,70.394 C327.816,70.662 328.116,70.854 328.464,70.97 C328.812,71.086 329.186,71.144 329.586,71.144 Z M335.478,71 L335.478,66.884 C335.478,66.468 335.464,66.054 335.436,65.642 C335.408,65.23 335.378,64.824 335.346,64.424 L335.346,64.424 L335.394,64.424 L336.246,66.044 L339.102,71 L340.134,71 L340.134,63.128 L339.186,63.128 L339.186,67.196 C339.186,67.612 339.2,68.034 339.228,68.462 C339.256,68.89 339.282,69.304 339.306,69.704 L339.306,69.704 L339.258,69.704 L338.406,68.072 L335.562,63.128 L334.53,63.128 L334.53,71 L335.478,71 Z M344.31,71 C344.902,71 345.426,70.91 345.882,70.73 C346.338,70.55 346.722,70.29 347.034,69.95 C347.346,69.61 347.582,69.194 347.742,68.702 C347.902,68.21 347.982,67.652 347.982,67.028 C347.982,65.772 347.666,64.808 347.034,64.136 C346.402,63.464 345.478,63.128 344.262,63.128 L344.262,63.128 L342.294,63.128 L342.294,71 L344.31,71 Z M344.19,70.184 L343.29,70.184 L343.29,63.944 L344.19,63.944 C345.11,63.944 345.8,64.208 346.26,64.736 C346.72,65.264 346.95,66.028 346.95,67.028 C346.95,68.028 346.72,68.804 346.26,69.356 C345.8,69.908 345.11,70.184 344.19,70.184 L344.19,70.184 Z M350.67,71 L350.67,63.128 L349.674,63.128 L349.674,71 L350.67,71 Z M353.778,71 L353.778,66.884 C353.778,66.468 353.764,66.054 353.736,65.642 C353.708,65.23 353.678,64.824 353.646,64.424 L353.646,64.424 L353.694,64.424 L354.546,66.044 L357.402,71 L358.434,71 L358.434,63.128 L357.486,63.128 L357.486,67.196 C357.486,67.612 357.5,68.034 357.528,68.462 C357.556,68.89 357.582,69.304 357.606,69.704 L357.606,69.704 L357.558,69.704 L356.706,68.072 L353.862,63.128 L352.83,63.128 L352.83,71 L353.778,71 Z M363.69,71.144 C364.218,71.144 364.69,71.058 365.106,70.886 C365.522,70.714 365.858,70.496 366.114,70.232 L366.114,70.232 L366.114,66.92 L363.534,66.92 L363.534,67.748 L365.202,67.748 L365.202,69.8 C365.042,69.944 364.836,70.058 364.584,70.142 C364.332,70.226 364.066,70.268 363.786,70.268 C363.362,70.268 362.988,70.192 362.664,70.04 C362.34,69.888 362.068,69.672 361.848,69.392 C361.628,69.112 361.46,68.774 361.344,68.378 C361.228,67.982 361.17,67.536 361.17,67.04 C361.17,66.552 361.232,66.112 361.356,65.72 C361.48,65.328 361.654,64.994 361.878,64.718 C362.102,64.442 362.374,64.23 362.694,64.082 C363.014,63.934 363.374,63.86 363.774,63.86 C364.174,63.86 364.506,63.932 364.77,64.076 C365.034,64.22 365.266,64.396 365.466,64.604 L365.466,64.604 L366.018,63.956 C365.906,63.836 365.776,63.718 365.628,63.602 C365.48,63.486 365.312,63.382 365.124,63.29 C364.936,63.198 364.728,63.124 364.5,63.068 C364.272,63.012 364.022,62.984 363.75,62.984 C363.23,62.984 362.748,63.078 362.304,63.266 C361.86,63.454 361.478,63.724 361.158,64.076 C360.838,64.428 360.588,64.856 360.408,65.36 C360.228,65.864 360.138,66.432 360.138,67.064 C360.138,67.704 360.226,68.278 360.402,68.786 C360.578,69.294 360.822,69.722 361.134,70.07 C361.446,70.418 361.82,70.684 362.256,70.868 C362.692,71.052 363.17,71.144 363.69,71.144 Z M294.936,87.32 L294.936,86.072 C295.56,85.936 296.028,85.662 296.34,85.25 C296.652,84.838 296.808,84.344 296.808,83.768 C296.808,83.384 296.73,83.062 296.574,82.802 C296.418,82.542 296.222,82.32 295.986,82.136 C295.75,81.952 295.496,81.796 295.224,81.668 C294.952,81.54 294.698,81.416 294.462,81.296 C294.226,81.176 294.03,81.05 293.874,80.918 C293.718,80.786 293.64,80.624 293.64,80.432 C293.64,80.16 293.716,79.964 293.868,79.844 C294.02,79.724 294.24,79.664 294.528,79.664 C294.784,79.664 295.012,79.714 295.212,79.814 C295.412,79.914 295.62,80.064 295.836,80.264 L295.836,80.264 L296.724,79.256 C296.492,79.008 296.232,78.796 295.944,78.62 C295.656,78.444 295.32,78.328 294.936,78.272 L294.936,78.272 L294.936,77.06 L293.772,77.06 L293.772,78.296 C293.204,78.408 292.758,78.658 292.434,79.046 C292.11,79.434 291.948,79.924 291.948,80.516 C291.948,80.876 292.026,81.18 292.182,81.428 C292.338,81.676 292.534,81.892 292.77,82.076 C293.006,82.26 293.26,82.418 293.532,82.55 C293.804,82.682 294.058,82.814 294.294,82.946 C294.53,83.078 294.726,83.216 294.882,83.36 C295.038,83.504 295.116,83.68 295.116,83.888 C295.116,84.168 295.038,84.376 294.882,84.512 C294.726,84.648 294.48,84.716 294.144,84.716 C293.856,84.716 293.574,84.658 293.298,84.542 C293.022,84.426 292.732,84.252 292.428,84.02 L292.428,84.02 L291.66,85.208 C291.94,85.464 292.274,85.67 292.662,85.826 C293.05,85.982 293.42,86.08 293.772,86.12 L293.772,86.12 L293.772,87.32 L294.936,87.32 Z M303.336,86 L303.336,84.512 L301.8,84.512 C301.616,84.512 301.406,84.522 301.17,84.542 C300.934,84.562 300.72,84.584 300.528,84.608 C300.84,84.288 301.142,83.962 301.434,83.63 C301.726,83.298 301.986,82.966 302.214,82.634 C302.442,82.302 302.624,81.97 302.76,81.638 C302.896,81.306 302.964,80.98 302.964,80.66 C302.964,80.292 302.904,79.96 302.784,79.664 C302.664,79.368 302.492,79.114 302.268,78.902 C302.044,78.69 301.778,78.526 301.47,78.41 C301.162,78.294 300.82,78.236 300.444,78.236 C299.9,78.236 299.432,78.338 299.04,78.542 C298.648,78.746 298.264,79.048 297.888,79.448 L297.888,79.448 L298.848,80.396 C299.04,80.188 299.244,80.006 299.46,79.85 C299.676,79.694 299.924,79.616 300.204,79.616 C300.54,79.616 300.804,79.714 300.996,79.91 C301.188,80.106 301.284,80.392 301.284,80.768 C301.284,81.04 301.202,81.326 301.038,81.626 C300.874,81.926 300.646,82.25 300.354,82.598 C300.062,82.946 299.714,83.318 299.31,83.714 C298.906,84.11 298.46,84.536 297.972,84.992 L297.972,84.992 L297.972,86 L303.336,86 Z M305.664,86.144 C305.968,86.144 306.222,86.038 306.426,85.826 C306.63,85.614 306.732,85.352 306.732,85.04 C306.732,84.72 306.63,84.454 306.426,84.242 C306.222,84.03 305.968,83.924 305.664,83.924 C305.36,83.924 305.106,84.03 304.902,84.242 C304.698,84.454 304.596,84.72 304.596,85.04 C304.596,85.352 304.698,85.614 304.902,85.826 C305.106,86.038 305.36,86.144 305.664,86.144 Z M310.428,86.144 C310.796,86.144 311.15,86.084 311.49,85.964 C311.83,85.844 312.128,85.67 312.384,85.442 C312.64,85.214 312.844,84.936 312.996,84.608 C313.148,84.28 313.224,83.904 313.224,83.48 C313.224,83.072 313.16,82.72 313.032,82.424 C312.904,82.128 312.728,81.884 312.504,81.692 C312.28,81.5 312.022,81.356 311.73,81.26 C311.438,81.164 311.128,81.116 310.8,81.116 C310.64,81.116 310.494,81.13 310.362,81.158 C310.23,81.186 310.092,81.232 309.948,81.296 L309.948,81.296 L310.08,79.868 L312.876,79.868 L312.876,78.38 L308.556,78.38 L308.34,82.232 L309.132,82.736 C309.244,82.664 309.346,82.604 309.438,82.556 C309.53,82.508 309.618,82.468 309.702,82.436 C309.786,82.404 309.872,82.382 309.96,82.37 C310.048,82.358 310.148,82.352 310.26,82.352 C310.62,82.352 310.91,82.452 311.13,82.652 C311.35,82.852 311.46,83.144 311.46,83.528 C311.46,83.92 311.344,84.216 311.112,84.416 C310.88,84.616 310.568,84.716 310.176,84.716 C309.848,84.716 309.55,84.642 309.282,84.494 C309.014,84.346 308.764,84.168 308.532,83.96 L308.532,83.96 L307.74,85.076 C308.044,85.38 308.412,85.634 308.844,85.838 C309.276,86.042 309.804,86.144 310.428,86.144 Z M316.548,86.144 C316.948,86.144 317.334,86.062 317.706,85.898 C318.078,85.734 318.406,85.484 318.69,85.148 C318.974,84.812 319.202,84.384 319.374,83.864 C319.546,83.344 319.632,82.728 319.632,82.016 C319.632,81.344 319.55,80.77 319.386,80.294 C319.222,79.818 319.006,79.428 318.738,79.124 C318.47,78.82 318.162,78.596 317.814,78.452 C317.466,78.308 317.108,78.236 316.74,78.236 C316.396,78.236 316.07,78.294 315.762,78.41 C315.454,78.526 315.186,78.696 314.958,78.92 C314.73,79.144 314.548,79.414 314.412,79.73 C314.276,80.046 314.208,80.4 314.208,80.792 C314.208,81.192 314.266,81.54 314.382,81.836 C314.498,82.132 314.656,82.376 314.856,82.568 C315.056,82.76 315.294,82.904 315.57,83 C315.846,83.096 316.148,83.144 316.476,83.144 C316.596,83.144 316.724,83.126 316.86,83.09 C316.996,83.054 317.132,83.002 317.268,82.934 C317.404,82.866 317.536,82.782 317.664,82.682 C317.792,82.582 317.904,82.468 318,82.34 C317.984,82.788 317.934,83.162 317.85,83.462 C317.766,83.762 317.654,84.006 317.514,84.194 C317.374,84.382 317.212,84.516 317.028,84.596 C316.844,84.676 316.644,84.716 316.428,84.716 C316.204,84.716 315.984,84.662 315.768,84.554 C315.552,84.446 315.38,84.32 315.252,84.176 L315.252,84.176 L314.316,85.232 C314.556,85.472 314.862,85.684 315.234,85.868 C315.606,86.052 316.044,86.144 316.548,86.144 Z M316.824,81.896 C316.536,81.896 316.296,81.814 316.104,81.65 C315.912,81.486 315.816,81.2 315.816,80.792 C315.816,80.36 315.912,80.046 316.104,79.85 C316.296,79.654 316.52,79.556 316.776,79.556 C317.048,79.556 317.294,79.67 317.514,79.898 C317.734,80.126 317.884,80.54 317.964,81.14 C317.812,81.412 317.634,81.606 317.43,81.722 C317.226,81.838 317.024,81.896 316.824,81.896 Z M324.36,86 L324.36,79.664 L326.508,79.664 L326.508,78.176 L320.436,78.176 L320.436,79.664 L322.584,79.664 L322.584,86 L324.36,86 Z" id="NEWAGENCYFUNDING$2.59T" fill="#666666" fill-rule="nonzero"></path>
                <path d="M258.958,18 L258.958,7.992 L262.36,7.992 L262.36,6.228 L253.468,6.228 L253.468,7.992 L256.87,7.992 L256.87,18 L258.958,18 Z M266.482,18.216 C267.034,18.216 267.565,18.114 268.075,17.91 C268.585,17.706 269.032,17.406 269.416,17.01 C269.8,16.614 270.109,16.128 270.343,15.552 C270.577,14.976 270.694,14.322 270.694,13.59 C270.694,12.858 270.577,12.204 270.343,11.628 C270.109,11.052 269.8,10.566 269.416,10.17 C269.032,9.774 268.585,9.471 268.075,9.261 C267.565,9.051 267.034,8.946 266.482,8.946 C265.93,8.946 265.402,9.051 264.898,9.261 C264.394,9.471 263.947,9.774 263.557,10.17 C263.167,10.566 262.858,11.052 262.63,11.628 C262.402,12.204 262.288,12.858 262.288,13.59 C262.288,14.322 262.402,14.976 262.63,15.552 C262.858,16.128 263.167,16.614 263.557,17.01 C263.947,17.406 264.394,17.706 264.898,17.91 C265.402,18.114 265.93,18.216 266.482,18.216 Z M266.482,16.524 C265.834,16.524 265.327,16.257 264.961,15.723 C264.595,15.189 264.412,14.478 264.412,13.59 C264.412,12.69 264.595,11.973 264.961,11.439 C265.327,10.905 265.834,10.638 266.482,10.638 C267.13,10.638 267.64,10.905 268.012,11.439 C268.384,11.973 268.57,12.69 268.57,13.59 C268.57,14.478 268.384,15.189 268.012,15.723 C267.64,16.257 267.13,16.524 266.482,16.524 Z M275.464,18.216 C275.812,18.216 276.139,18.183 276.445,18.117 C276.751,18.051 277.024,17.976 277.264,17.892 L277.264,17.892 L276.904,16.362 C276.772,16.422 276.625,16.47 276.463,16.506 C276.301,16.542 276.142,16.56 275.986,16.56 C275.158,16.56 274.744,16.044 274.744,15.012 L274.744,15.012 L274.744,10.8 L276.994,10.8 L276.994,9.162 L274.744,9.162 L274.744,6.75 L273.016,6.75 L272.764,9.162 L271.396,9.252 L271.396,10.8 L272.656,10.8 L272.656,15.012 C272.656,15.492 272.707,15.927 272.809,16.317 C272.911,16.707 273.073,17.043 273.295,17.325 C273.517,17.607 273.805,17.826 274.159,17.982 C274.513,18.138 274.948,18.216 275.464,18.216 Z M280.612,18.216 C281.14,18.216 281.629,18.102 282.079,17.874 C282.529,17.646 282.952,17.364 283.348,17.028 L283.348,17.028 L283.42,17.028 L283.564,18 L285.274,18 L285.274,12.762 C285.274,11.526 285.001,10.581 284.455,9.927 C283.909,9.273 283.084,8.946 281.98,8.946 C281.272,8.946 280.612,9.06 280,9.288 C279.388,9.516 278.836,9.786 278.344,10.098 L278.344,10.098 L279.1,11.484 C279.496,11.244 279.901,11.04 280.315,10.872 C280.729,10.704 281.152,10.62 281.584,10.62 C281.884,10.62 282.136,10.665 282.34,10.755 C282.544,10.845 282.709,10.971 282.835,11.133 C282.961,11.295 283.051,11.481 283.105,11.691 C283.159,11.901 283.192,12.12 283.204,12.348 C282.292,12.444 281.509,12.582 280.855,12.762 C280.201,12.942 279.661,13.164 279.235,13.428 C278.809,13.692 278.497,14.007 278.299,14.373 C278.101,14.739 278.002,15.156 278.002,15.624 C278.002,16.404 278.242,17.031 278.722,17.505 C279.202,17.979 279.832,18.216 280.612,18.216 Z M281.278,16.596 C280.906,16.596 280.6,16.506 280.36,16.326 C280.12,16.146 280,15.858 280,15.462 C280,15.246 280.054,15.042 280.162,14.85 C280.27,14.658 280.45,14.487 280.702,14.337 C280.954,14.187 281.284,14.052 281.692,13.932 C282.1,13.812 282.604,13.716 283.204,13.644 L283.204,13.644 L283.204,15.624 C282.868,15.936 282.553,16.176 282.259,16.344 C281.965,16.512 281.638,16.596 281.278,16.596 Z M289.774,18.216 C290.23,18.216 290.596,18.156 290.872,18.036 L290.872,18.036 L290.602,16.488 C290.518,16.512 290.455,16.524 290.413,16.524 L290.413,16.524 L290.278,16.524 C290.17,16.524 290.068,16.473 289.972,16.371 C289.876,16.269 289.828,16.092 289.828,15.84 L289.828,15.84 L289.828,5.292 L287.758,5.292 L287.758,15.732 C287.758,16.5 287.908,17.106 288.208,17.55 C288.508,17.994 289.03,18.216 289.774,18.216 Z M303.688,18 L303.688,16.236 L298.504,16.236 L298.504,12.762 L302.734,12.762 L302.734,10.998 L298.504,10.998 L298.504,7.992 L303.508,7.992 L303.508,6.228 L296.416,6.228 L296.416,18 L303.688,18 Z M308.386,18.216 C308.938,18.216 309.43,18.144 309.862,18 C310.294,17.856 310.654,17.661 310.942,17.415 C311.23,17.169 311.449,16.881 311.599,16.551 C311.749,16.221 311.824,15.864 311.824,15.48 C311.824,15.072 311.749,14.721 311.599,14.427 C311.449,14.133 311.251,13.884 311.005,13.68 C310.759,13.476 310.486,13.305 310.186,13.167 C309.886,13.029 309.586,12.906 309.286,12.798 C309.046,12.714 308.815,12.63 308.593,12.546 C308.371,12.462 308.176,12.372 308.008,12.276 C307.84,12.18 307.705,12.069 307.603,11.943 C307.501,11.817 307.45,11.664 307.45,11.484 C307.45,11.208 307.555,10.977 307.765,10.791 C307.975,10.605 308.302,10.512 308.746,10.512 C309.094,10.512 309.427,10.581 309.745,10.719 C310.063,10.857 310.378,11.04 310.69,11.268 L310.69,11.268 L311.644,10.008 C311.284,9.732 310.858,9.486 310.366,9.27 C309.874,9.054 309.322,8.946 308.71,8.946 C307.714,8.946 306.928,9.192 306.352,9.684 C305.776,10.176 305.488,10.812 305.488,11.592 C305.488,11.964 305.563,12.285 305.713,12.555 C305.863,12.825 306.055,13.062 306.289,13.266 C306.523,13.47 306.79,13.644 307.09,13.788 C307.39,13.932 307.684,14.058 307.972,14.166 C308.2,14.262 308.428,14.355 308.656,14.445 C308.884,14.535 309.088,14.634 309.268,14.742 C309.448,14.85 309.592,14.973 309.7,15.111 C309.808,15.249 309.862,15.408 309.862,15.588 C309.862,15.9 309.748,16.155 309.52,16.353 C309.292,16.551 308.938,16.65 308.458,16.65 C308.002,16.65 307.579,16.563 307.189,16.389 C306.799,16.215 306.406,15.972 306.01,15.66 L306.01,15.66 L305.038,16.992 C305.47,17.34 305.983,17.631 306.577,17.865 C307.171,18.099 307.774,18.216 308.386,18.216 Z M316.432,18.216 C316.78,18.216 317.107,18.183 317.413,18.117 C317.719,18.051 317.992,17.976 318.232,17.892 L318.232,17.892 L317.872,16.362 C317.74,16.422 317.593,16.47 317.431,16.506 C317.269,16.542 317.11,16.56 316.954,16.56 C316.126,16.56 315.712,16.044 315.712,15.012 L315.712,15.012 L315.712,10.8 L317.962,10.8 L317.962,9.162 L315.712,9.162 L315.712,6.75 L313.984,6.75 L313.732,9.162 L312.364,9.252 L312.364,10.8 L313.624,10.8 L313.624,15.012 C313.624,15.492 313.675,15.927 313.777,16.317 C313.879,16.707 314.041,17.043 314.263,17.325 C314.485,17.607 314.773,17.826 315.127,17.982 C315.481,18.138 315.916,18.216 316.432,18.216 Z M320.86,7.614 C321.232,7.614 321.538,7.506 321.778,7.29 C322.018,7.074 322.138,6.792 322.138,6.444 C322.138,6.096 322.018,5.811 321.778,5.589 C321.538,5.367 321.232,5.256 320.86,5.256 C320.488,5.256 320.182,5.367 319.942,5.589 C319.702,5.811 319.582,6.096 319.582,6.444 C319.582,6.792 319.702,7.074 319.942,7.29 C320.182,7.506 320.488,7.614 320.86,7.614 Z M321.886,18 L321.886,9.162 L319.816,9.162 L319.816,18 L321.886,18 Z M326.602,18 L326.602,11.826 C327.286,11.094 327.904,10.728 328.456,10.728 C328.924,10.728 329.269,10.878 329.491,11.178 C329.713,11.478 329.824,11.994 329.824,12.726 L329.824,12.726 L329.824,18 L331.894,18 L331.894,11.826 C332.578,11.094 333.196,10.728 333.748,10.728 C334.204,10.728 334.543,10.878 334.765,11.178 C334.987,11.478 335.098,11.994 335.098,12.726 L335.098,12.726 L335.098,18 L337.186,18 L337.186,12.456 C337.186,11.328 336.964,10.461 336.52,9.855 C336.076,9.249 335.386,8.946 334.45,8.946 C333.886,8.946 333.376,9.096 332.92,9.396 C332.464,9.696 332.026,10.074 331.606,10.53 C331.402,10.026 331.105,9.636 330.715,9.36 C330.325,9.084 329.806,8.946 329.158,8.946 C328.606,8.946 328.111,9.084 327.673,9.36 C327.235,9.636 326.83,9.972 326.458,10.368 L326.458,10.368 L326.386,10.368 L326.242,9.162 L324.532,9.162 L324.532,18 L326.602,18 Z M341.848,18.216 C342.376,18.216 342.865,18.102 343.315,17.874 C343.765,17.646 344.188,17.364 344.584,17.028 L344.584,17.028 L344.656,17.028 L344.8,18 L346.51,18 L346.51,12.762 C346.51,11.526 346.237,10.581 345.691,9.927 C345.145,9.273 344.32,8.946 343.216,8.946 C342.508,8.946 341.848,9.06 341.236,9.288 C340.624,9.516 340.072,9.786 339.58,10.098 L339.58,10.098 L340.336,11.484 C340.732,11.244 341.137,11.04 341.551,10.872 C341.965,10.704 342.388,10.62 342.82,10.62 C343.12,10.62 343.372,10.665 343.576,10.755 C343.78,10.845 343.945,10.971 344.071,11.133 C344.197,11.295 344.287,11.481 344.341,11.691 C344.395,11.901 344.428,12.12 344.44,12.348 C343.528,12.444 342.745,12.582 342.091,12.762 C341.437,12.942 340.897,13.164 340.471,13.428 C340.045,13.692 339.733,14.007 339.535,14.373 C339.337,14.739 339.238,15.156 339.238,15.624 C339.238,16.404 339.478,17.031 339.958,17.505 C340.438,17.979 341.068,18.216 341.848,18.216 Z M342.514,16.596 C342.142,16.596 341.836,16.506 341.596,16.326 C341.356,16.146 341.236,15.858 341.236,15.462 C341.236,15.246 341.29,15.042 341.398,14.85 C341.506,14.658 341.686,14.487 341.938,14.337 C342.19,14.187 342.52,14.052 342.928,13.932 C343.336,13.812 343.84,13.716 344.44,13.644 L344.44,13.644 L344.44,15.624 C344.104,15.936 343.789,16.176 343.495,16.344 C343.201,16.512 342.874,16.596 342.514,16.596 Z M351.82,18.216 C352.168,18.216 352.495,18.183 352.801,18.117 C353.107,18.051 353.38,17.976 353.62,17.892 L353.62,17.892 L353.26,16.362 C353.128,16.422 352.981,16.47 352.819,16.506 C352.657,16.542 352.498,16.56 352.342,16.56 C351.514,16.56 351.1,16.044 351.1,15.012 L351.1,15.012 L351.1,10.8 L353.35,10.8 L353.35,9.162 L351.1,9.162 L351.1,6.75 L349.372,6.75 L349.12,9.162 L347.752,9.252 L347.752,10.8 L349.012,10.8 L349.012,15.012 C349.012,15.492 349.063,15.927 349.165,16.317 C349.267,16.707 349.429,17.043 349.651,17.325 C349.873,17.607 350.161,17.826 350.515,17.982 C350.869,18.138 351.304,18.216 351.82,18.216 Z M358.696,18.216 C359.26,18.216 359.8,18.126 360.316,17.946 C360.832,17.766 361.3,17.538 361.72,17.262 L361.72,17.262 L361.018,15.966 C360.694,16.17 360.367,16.329 360.037,16.443 C359.707,16.557 359.35,16.614 358.966,16.614 C358.246,16.614 357.655,16.401 357.193,15.975 C356.731,15.549 356.452,14.94 356.356,14.148 L356.356,14.148 L361.972,14.148 C361.996,14.04 362.017,13.896 362.035,13.716 C362.053,13.536 362.062,13.344 362.062,13.14 C362.062,12.528 361.984,11.964 361.828,11.448 C361.672,10.932 361.441,10.488 361.135,10.116 C360.829,9.744 360.448,9.456 359.992,9.252 C359.536,9.048 359.008,8.946 358.408,8.946 C357.892,8.946 357.388,9.054 356.896,9.27 C356.404,9.486 355.969,9.792 355.591,10.188 C355.213,10.584 354.91,11.07 354.682,11.646 C354.454,12.222 354.34,12.87 354.34,13.59 C354.34,14.322 354.451,14.973 354.673,15.543 C354.895,16.113 355.204,16.596 355.6,16.992 C355.996,17.388 356.458,17.691 356.986,17.901 C357.514,18.111 358.084,18.216 358.696,18.216 Z M360.262,12.744 L356.338,12.744 C356.434,12.024 356.68,11.478 357.076,11.106 C357.472,10.734 357.934,10.548 358.462,10.548 C359.074,10.548 359.527,10.743 359.821,11.133 C360.115,11.523 360.262,12.06 360.262,12.744 L360.262,12.744 Z M367.138,18.216 C367.618,18.216 368.074,18.102 368.506,17.874 C368.938,17.646 369.316,17.37 369.64,17.046 L369.64,17.046 L369.712,17.046 L369.856,18 L371.566,18 L371.566,5.292 L369.496,5.292 L369.496,8.496 L369.568,9.918 C369.22,9.618 368.872,9.381 368.524,9.207 C368.176,9.033 367.75,8.946 367.246,8.946 C366.766,8.946 366.301,9.054 365.851,9.27 C365.401,9.486 365.002,9.792 364.654,10.188 C364.306,10.584 364.027,11.07 363.817,11.646 C363.607,12.222 363.502,12.87 363.502,13.59 C363.502,15.054 363.829,16.191 364.483,17.001 C365.137,17.811 366.022,18.216 367.138,18.216 Z M367.642,16.506 C366.994,16.506 366.499,16.257 366.157,15.759 C365.815,15.261 365.644,14.532 365.644,13.572 C365.644,12.636 365.842,11.916 366.238,11.412 C366.634,10.908 367.12,10.656 367.696,10.656 C367.996,10.656 368.293,10.71 368.587,10.818 C368.881,10.926 369.184,11.118 369.496,11.394 L369.496,11.394 L369.496,15.516 C368.92,16.176 368.302,16.506 367.642,16.506 Z M382.546,18 L386.2,6.228 L384.058,6.228 L382.42,12.15 C382.24,12.822 382.075,13.458 381.925,14.058 C381.775,14.658 381.598,15.3 381.394,15.984 L381.394,15.984 L381.322,15.984 C381.118,15.3 380.941,14.658 380.791,14.058 C380.641,13.458 380.47,12.822 380.278,12.15 L380.278,12.15 L378.622,6.228 L376.408,6.228 L380.08,18 L382.546,18 Z M389.062,18.216 C389.59,18.216 390.079,18.102 390.529,17.874 C390.979,17.646 391.402,17.364 391.798,17.028 L391.798,17.028 L391.87,17.028 L392.014,18 L393.724,18 L393.724,12.762 C393.724,11.526 393.451,10.581 392.905,9.927 C392.359,9.273 391.534,8.946 390.43,8.946 C389.722,8.946 389.062,9.06 388.45,9.288 C387.838,9.516 387.286,9.786 386.794,10.098 L386.794,10.098 L387.55,11.484 C387.946,11.244 388.351,11.04 388.765,10.872 C389.179,10.704 389.602,10.62 390.034,10.62 C390.334,10.62 390.586,10.665 390.79,10.755 C390.994,10.845 391.159,10.971 391.285,11.133 C391.411,11.295 391.501,11.481 391.555,11.691 C391.609,11.901 391.642,12.12 391.654,12.348 C390.742,12.444 389.959,12.582 389.305,12.762 C388.651,12.942 388.111,13.164 387.685,13.428 C387.259,13.692 386.947,14.007 386.749,14.373 C386.551,14.739 386.452,15.156 386.452,15.624 C386.452,16.404 386.692,17.031 387.172,17.505 C387.652,17.979 388.282,18.216 389.062,18.216 Z M389.728,16.596 C389.356,16.596 389.05,16.506 388.81,16.326 C388.57,16.146 388.45,15.858 388.45,15.462 C388.45,15.246 388.504,15.042 388.612,14.85 C388.72,14.658 388.9,14.487 389.152,14.337 C389.404,14.187 389.734,14.052 390.142,13.932 C390.55,13.812 391.054,13.716 391.654,13.644 L391.654,13.644 L391.654,15.624 C391.318,15.936 391.003,16.176 390.709,16.344 C390.415,16.512 390.088,16.596 389.728,16.596 Z M398.224,18.216 C398.68,18.216 399.046,18.156 399.322,18.036 L399.322,18.036 L399.052,16.488 C398.968,16.512 398.905,16.524 398.863,16.524 L398.863,16.524 L398.728,16.524 C398.62,16.524 398.518,16.473 398.422,16.371 C398.326,16.269 398.278,16.092 398.278,15.84 L398.278,15.84 L398.278,5.292 L396.208,5.292 L396.208,15.732 C396.208,16.5 396.358,17.106 396.658,17.55 C396.958,17.994 397.48,18.216 398.224,18.216 Z M403.714,18.216 C404.326,18.216 404.857,18.078 405.307,17.802 C405.757,17.526 406.174,17.16 406.558,16.704 L406.558,16.704 L406.612,16.704 L406.774,18 L408.466,18 L408.466,9.162 L406.396,9.162 L406.396,15.21 C406.06,15.642 405.745,15.954 405.451,16.146 C405.157,16.338 404.818,16.434 404.434,16.434 C403.954,16.434 403.606,16.284 403.39,15.984 C403.174,15.684 403.066,15.168 403.066,14.436 L403.066,14.436 L403.066,9.162 L400.996,9.162 L400.996,14.706 C400.996,15.834 401.212,16.701 401.644,17.307 C402.076,17.913 402.766,18.216 403.714,18.216 Z M414.874,18.216 C415.438,18.216 415.978,18.126 416.494,17.946 C417.01,17.766 417.478,17.538 417.898,17.262 L417.898,17.262 L417.196,15.966 C416.872,16.17 416.545,16.329 416.215,16.443 C415.885,16.557 415.528,16.614 415.144,16.614 C414.424,16.614 413.833,16.401 413.371,15.975 C412.909,15.549 412.63,14.94 412.534,14.148 L412.534,14.148 L418.15,14.148 C418.174,14.04 418.195,13.896 418.213,13.716 C418.231,13.536 418.24,13.344 418.24,13.14 C418.24,12.528 418.162,11.964 418.006,11.448 C417.85,10.932 417.619,10.488 417.313,10.116 C417.007,9.744 416.626,9.456 416.17,9.252 C415.714,9.048 415.186,8.946 414.586,8.946 C414.07,8.946 413.566,9.054 413.074,9.27 C412.582,9.486 412.147,9.792 411.769,10.188 C411.391,10.584 411.088,11.07 410.86,11.646 C410.632,12.222 410.518,12.87 410.518,13.59 C410.518,14.322 410.629,14.973 410.851,15.543 C411.073,16.113 411.382,16.596 411.778,16.992 C412.174,17.388 412.636,17.691 413.164,17.901 C413.692,18.111 414.262,18.216 414.874,18.216 Z M416.44,12.744 L412.516,12.744 C412.612,12.024 412.858,11.478 413.254,11.106 C413.65,10.734 414.112,10.548 414.64,10.548 C415.252,10.548 415.705,10.743 415.999,11.133 C416.293,11.523 416.44,12.06 416.44,12.744 L416.44,12.744 Z M427.438,18.216 C427.99,18.216 428.521,18.114 429.031,17.91 C429.541,17.706 429.988,17.406 430.372,17.01 C430.756,16.614 431.065,16.128 431.299,15.552 C431.533,14.976 431.65,14.322 431.65,13.59 C431.65,12.858 431.533,12.204 431.299,11.628 C431.065,11.052 430.756,10.566 430.372,10.17 C429.988,9.774 429.541,9.471 429.031,9.261 C428.521,9.051 427.99,8.946 427.438,8.946 C426.886,8.946 426.358,9.051 425.854,9.261 C425.35,9.471 424.903,9.774 424.513,10.17 C424.123,10.566 423.814,11.052 423.586,11.628 C423.358,12.204 423.244,12.858 423.244,13.59 C423.244,14.322 423.358,14.976 423.586,15.552 C423.814,16.128 424.123,16.614 424.513,17.01 C424.903,17.406 425.35,17.706 425.854,17.91 C426.358,18.114 426.886,18.216 427.438,18.216 Z M427.438,16.524 C426.79,16.524 426.283,16.257 425.917,15.723 C425.551,15.189 425.368,14.478 425.368,13.59 C425.368,12.69 425.551,11.973 425.917,11.439 C426.283,10.905 426.79,10.638 427.438,10.638 C428.086,10.638 428.596,10.905 428.968,11.439 C429.34,11.973 429.526,12.69 429.526,13.59 C429.526,14.478 429.34,15.189 428.968,15.723 C428.596,16.257 428.086,16.524 427.438,16.524 Z M436.06,18 L436.06,10.8 L437.788,10.8 L437.788,9.162 L436.06,9.162 L436.06,8.208 C436.06,7.212 436.432,6.714 437.176,6.714 C437.5,6.714 437.824,6.786 438.148,6.93 L438.148,6.93 L438.544,5.382 C438.34,5.298 438.097,5.226 437.815,5.166 C437.533,5.106 437.236,5.076 436.924,5.076 C436.396,5.076 435.949,5.154 435.583,5.31 C435.217,5.466 434.914,5.685 434.674,5.967 C434.434,6.249 434.26,6.585 434.152,6.975 C434.044,7.365 433.99,7.788 433.99,8.244 L433.99,8.244 L433.99,9.162 L432.802,9.252 L432.802,10.8 L433.99,10.8 L433.99,18 L436.06,18 Z M450.1,18 L450.1,16.236 L445.204,16.236 L445.204,6.228 L443.116,6.228 L443.116,18 L450.1,18 Z M455.518,18.216 C456.082,18.216 456.622,18.126 457.138,17.946 C457.654,17.766 458.122,17.538 458.542,17.262 L458.542,17.262 L457.84,15.966 C457.516,16.17 457.189,16.329 456.859,16.443 C456.529,16.557 456.172,16.614 455.788,16.614 C455.068,16.614 454.477,16.401 454.015,15.975 C453.553,15.549 453.274,14.94 453.178,14.148 L453.178,14.148 L458.794,14.148 C458.818,14.04 458.839,13.896 458.857,13.716 C458.875,13.536 458.884,13.344 458.884,13.14 C458.884,12.528 458.806,11.964 458.65,11.448 C458.494,10.932 458.263,10.488 457.957,10.116 C457.651,9.744 457.27,9.456 456.814,9.252 C456.358,9.048 455.83,8.946 455.23,8.946 C454.714,8.946 454.21,9.054 453.718,9.27 C453.226,9.486 452.791,9.792 452.413,10.188 C452.035,10.584 451.732,11.07 451.504,11.646 C451.276,12.222 451.162,12.87 451.162,13.59 C451.162,14.322 451.273,14.973 451.495,15.543 C451.717,16.113 452.026,16.596 452.422,16.992 C452.818,17.388 453.28,17.691 453.808,17.901 C454.336,18.111 454.906,18.216 455.518,18.216 Z M457.084,12.744 L453.16,12.744 C453.256,12.024 453.502,11.478 453.898,11.106 C454.294,10.734 454.756,10.548 455.284,10.548 C455.896,10.548 456.349,10.743 456.643,11.133 C456.937,11.523 457.084,12.06 457.084,12.744 L457.084,12.744 Z M463.762,21.906 C464.482,21.906 465.133,21.825 465.715,21.663 C466.297,21.501 466.792,21.282 467.2,21.006 C467.608,20.73 467.923,20.4 468.145,20.016 C468.367,19.632 468.478,19.224 468.478,18.792 C468.478,18.024 468.205,17.469 467.659,17.127 C467.113,16.785 466.306,16.614 465.238,16.614 L465.238,16.614 L463.672,16.614 C463.132,16.614 462.757,16.542 462.547,16.398 C462.337,16.254 462.232,16.056 462.232,15.804 C462.232,15.6 462.271,15.438 462.349,15.318 C462.427,15.198 462.532,15.078 462.664,14.958 C462.868,15.042 463.072,15.102 463.276,15.138 C463.48,15.174 463.678,15.192 463.87,15.192 C464.338,15.192 464.776,15.126 465.184,14.994 C465.592,14.862 465.946,14.67 466.246,14.418 C466.546,14.166 466.783,13.854 466.957,13.482 C467.131,13.11 467.218,12.678 467.218,12.186 C467.218,11.874 467.17,11.589 467.074,11.331 C466.978,11.073 466.858,10.86 466.714,10.692 L466.714,10.692 L468.334,10.692 L468.334,9.162 L465.166,9.162 C464.986,9.102 464.785,9.051 464.563,9.009 C464.341,8.967 464.11,8.946 463.87,8.946 C463.402,8.946 462.958,9.015 462.538,9.153 C462.118,9.291 461.749,9.495 461.431,9.765 C461.113,10.035 460.858,10.368 460.666,10.764 C460.474,11.16 460.378,11.61 460.378,12.114 C460.378,12.642 460.495,13.107 460.729,13.509 C460.963,13.911 461.23,14.226 461.53,14.454 L461.53,14.454 L461.53,14.526 C461.278,14.706 461.053,14.937 460.855,15.219 C460.657,15.501 460.558,15.816 460.558,16.164 C460.558,16.524 460.633,16.824 460.783,17.064 C460.933,17.304 461.122,17.496 461.35,17.64 L461.35,17.64 L461.35,17.712 C460.942,17.964 460.63,18.249 460.414,18.567 C460.198,18.885 460.09,19.23 460.09,19.602 C460.09,19.986 460.183,20.322 460.369,20.61 C460.555,20.898 460.81,21.138 461.134,21.33 C461.458,21.522 461.845,21.666 462.295,21.762 C462.745,21.858 463.234,21.906 463.762,21.906 Z M463.87,13.896 C463.438,13.896 463.072,13.743 462.772,13.437 C462.472,13.131 462.322,12.69 462.322,12.114 C462.322,11.55 462.472,11.118 462.772,10.818 C463.072,10.518 463.438,10.368 463.87,10.368 C464.302,10.368 464.665,10.521 464.959,10.827 C465.253,11.133 465.4,11.562 465.4,12.114 C465.4,12.69 465.25,13.131 464.95,13.437 C464.65,13.743 464.29,13.896 463.87,13.896 Z M464.086,20.556 C463.378,20.556 462.823,20.445 462.421,20.223 C462.019,20.001 461.818,19.692 461.818,19.296 C461.818,18.864 462.046,18.474 462.502,18.126 C462.826,18.21 463.228,18.252 463.708,18.252 L463.708,18.252 L464.914,18.252 C465.418,18.252 465.805,18.312 466.075,18.432 C466.345,18.552 466.48,18.786 466.48,19.134 C466.48,19.518 466.261,19.851 465.823,20.133 C465.385,20.415 464.806,20.556 464.086,20.556 Z M471.088,7.614 C471.46,7.614 471.766,7.506 472.006,7.29 C472.246,7.074 472.366,6.792 472.366,6.444 C472.366,6.096 472.246,5.811 472.006,5.589 C471.766,5.367 471.46,5.256 471.088,5.256 C470.716,5.256 470.41,5.367 470.17,5.589 C469.93,5.811 469.81,6.096 469.81,6.444 C469.81,6.792 469.93,7.074 470.17,7.29 C470.41,7.506 470.716,7.614 471.088,7.614 Z M472.114,18 L472.114,9.162 L470.044,9.162 L470.044,18 L472.114,18 Z M477.226,18.216 C477.778,18.216 478.27,18.144 478.702,18 C479.134,17.856 479.494,17.661 479.782,17.415 C480.07,17.169 480.289,16.881 480.439,16.551 C480.589,16.221 480.664,15.864 480.664,15.48 C480.664,15.072 480.589,14.721 480.439,14.427 C480.289,14.133 480.091,13.884 479.845,13.68 C479.599,13.476 479.326,13.305 479.026,13.167 C478.726,13.029 478.426,12.906 478.126,12.798 C477.886,12.714 477.655,12.63 477.433,12.546 C477.211,12.462 477.016,12.372 476.848,12.276 C476.68,12.18 476.545,12.069 476.443,11.943 C476.341,11.817 476.29,11.664 476.29,11.484 C476.29,11.208 476.395,10.977 476.605,10.791 C476.815,10.605 477.142,10.512 477.586,10.512 C477.934,10.512 478.267,10.581 478.585,10.719 C478.903,10.857 479.218,11.04 479.53,11.268 L479.53,11.268 L480.484,10.008 C480.124,9.732 479.698,9.486 479.206,9.27 C478.714,9.054 478.162,8.946 477.55,8.946 C476.554,8.946 475.768,9.192 475.192,9.684 C474.616,10.176 474.328,10.812 474.328,11.592 C474.328,11.964 474.403,12.285 474.553,12.555 C474.703,12.825 474.895,13.062 475.129,13.266 C475.363,13.47 475.63,13.644 475.93,13.788 C476.23,13.932 476.524,14.058 476.812,14.166 C477.04,14.262 477.268,14.355 477.496,14.445 C477.724,14.535 477.928,14.634 478.108,14.742 C478.288,14.85 478.432,14.973 478.54,15.111 C478.648,15.249 478.702,15.408 478.702,15.588 C478.702,15.9 478.588,16.155 478.36,16.353 C478.132,16.551 477.778,16.65 477.298,16.65 C476.842,16.65 476.419,16.563 476.029,16.389 C475.639,16.215 475.246,15.972 474.85,15.66 L474.85,15.66 L473.878,16.992 C474.31,17.34 474.823,17.631 475.417,17.865 C476.011,18.099 476.614,18.216 477.226,18.216 Z M484.534,18.216 C484.99,18.216 485.356,18.156 485.632,18.036 L485.632,18.036 L485.362,16.488 C485.278,16.512 485.215,16.524 485.173,16.524 L485.173,16.524 L485.038,16.524 C484.93,16.524 484.828,16.473 484.732,16.371 C484.636,16.269 484.588,16.092 484.588,15.84 L484.588,15.84 L484.588,5.292 L482.518,5.292 L482.518,15.732 C482.518,16.5 482.668,17.106 482.968,17.55 C483.268,17.994 483.79,18.216 484.534,18.216 Z M489.538,18.216 C490.066,18.216 490.555,18.102 491.005,17.874 C491.455,17.646 491.878,17.364 492.274,17.028 L492.274,17.028 L492.346,17.028 L492.49,18 L494.2,18 L494.2,12.762 C494.2,11.526 493.927,10.581 493.381,9.927 C492.835,9.273 492.01,8.946 490.906,8.946 C490.198,8.946 489.538,9.06 488.926,9.288 C488.314,9.516 487.762,9.786 487.27,10.098 L487.27,10.098 L488.026,11.484 C488.422,11.244 488.827,11.04 489.241,10.872 C489.655,10.704 490.078,10.62 490.51,10.62 C490.81,10.62 491.062,10.665 491.266,10.755 C491.47,10.845 491.635,10.971 491.761,11.133 C491.887,11.295 491.977,11.481 492.031,11.691 C492.085,11.901 492.118,12.12 492.13,12.348 C491.218,12.444 490.435,12.582 489.781,12.762 C489.127,12.942 488.587,13.164 488.161,13.428 C487.735,13.692 487.423,14.007 487.225,14.373 C487.027,14.739 486.928,15.156 486.928,15.624 C486.928,16.404 487.168,17.031 487.648,17.505 C488.128,17.979 488.758,18.216 489.538,18.216 Z M490.204,16.596 C489.832,16.596 489.526,16.506 489.286,16.326 C489.046,16.146 488.926,15.858 488.926,15.462 C488.926,15.246 488.98,15.042 489.088,14.85 C489.196,14.658 489.376,14.487 489.628,14.337 C489.88,14.187 490.21,14.052 490.618,13.932 C491.026,13.812 491.53,13.716 492.13,13.644 L492.13,13.644 L492.13,15.624 C491.794,15.936 491.479,16.176 491.185,16.344 C490.891,16.512 490.564,16.596 490.204,16.596 Z M499.51,18.216 C499.858,18.216 500.185,18.183 500.491,18.117 C500.797,18.051 501.07,17.976 501.31,17.892 L501.31,17.892 L500.95,16.362 C500.818,16.422 500.671,16.47 500.509,16.506 C500.347,16.542 500.188,16.56 500.032,16.56 C499.204,16.56 498.79,16.044 498.79,15.012 L498.79,15.012 L498.79,10.8 L501.04,10.8 L501.04,9.162 L498.79,9.162 L498.79,6.75 L497.062,6.75 L496.81,9.162 L495.442,9.252 L495.442,10.8 L496.702,10.8 L496.702,15.012 C496.702,15.492 496.753,15.927 496.855,16.317 C496.957,16.707 497.119,17.043 497.341,17.325 C497.563,17.607 497.851,17.826 498.205,17.982 C498.559,18.138 498.994,18.216 499.51,18.216 Z M503.938,7.614 C504.31,7.614 504.616,7.506 504.856,7.29 C505.096,7.074 505.216,6.792 505.216,6.444 C505.216,6.096 505.096,5.811 504.856,5.589 C504.616,5.367 504.31,5.256 503.938,5.256 C503.566,5.256 503.26,5.367 503.02,5.589 C502.78,5.811 502.66,6.096 502.66,6.444 C502.66,6.792 502.78,7.074 503.02,7.29 C503.26,7.506 503.566,7.614 503.938,7.614 Z M504.964,18 L504.964,9.162 L502.894,9.162 L502.894,18 L504.964,18 Z M511.228,18.216 C511.78,18.216 512.311,18.114 512.821,17.91 C513.331,17.706 513.778,17.406 514.162,17.01 C514.546,16.614 514.855,16.128 515.089,15.552 C515.323,14.976 515.44,14.322 515.44,13.59 C515.44,12.858 515.323,12.204 515.089,11.628 C514.855,11.052 514.546,10.566 514.162,10.17 C513.778,9.774 513.331,9.471 512.821,9.261 C512.311,9.051 511.78,8.946 511.228,8.946 C510.676,8.946 510.148,9.051 509.644,9.261 C509.14,9.471 508.693,9.774 508.303,10.17 C507.913,10.566 507.604,11.052 507.376,11.628 C507.148,12.204 507.034,12.858 507.034,13.59 C507.034,14.322 507.148,14.976 507.376,15.552 C507.604,16.128 507.913,16.614 508.303,17.01 C508.693,17.406 509.14,17.706 509.644,17.91 C510.148,18.114 510.676,18.216 511.228,18.216 Z M511.228,16.524 C510.58,16.524 510.073,16.257 509.707,15.723 C509.341,15.189 509.158,14.478 509.158,13.59 C509.158,12.69 509.341,11.973 509.707,11.439 C510.073,10.905 510.58,10.638 511.228,10.638 C511.876,10.638 512.386,10.905 512.758,11.439 C513.13,11.973 513.316,12.69 513.316,13.59 C513.316,14.478 513.13,15.189 512.758,15.723 C512.386,16.257 511.876,16.524 511.228,16.524 Z M519.562,18 L519.562,11.826 C519.934,11.466 520.267,11.193 520.561,11.007 C520.855,10.821 521.194,10.728 521.578,10.728 C522.07,10.728 522.424,10.878 522.64,11.178 C522.856,11.478 522.964,11.994 522.964,12.726 L522.964,12.726 L522.964,18 L525.034,18 L525.034,12.456 C525.034,11.328 524.818,10.461 524.386,9.855 C523.954,9.249 523.264,8.946 522.316,8.946 C521.704,8.946 521.167,9.084 520.705,9.36 C520.243,9.636 519.814,9.966 519.418,10.35 L519.418,10.35 L519.346,10.35 L519.202,9.162 L517.492,9.162 L517.492,18 L519.562,18 Z M535.222,19.98 L535.222,18.126 C536.122,17.958 536.812,17.583 537.292,17.001 C537.772,16.419 538.012,15.696 538.012,14.832 C538.012,14.232 537.892,13.731 537.652,13.329 C537.412,12.927 537.109,12.588 536.743,12.312 C536.377,12.036 535.984,11.799 535.564,11.601 C535.144,11.403 534.751,11.205 534.385,11.007 C534.019,10.809 533.716,10.593 533.476,10.359 C533.236,10.125 533.116,9.828 533.116,9.468 C533.116,9 533.254,8.643 533.53,8.397 C533.806,8.151 534.19,8.028 534.682,8.028 C535.114,8.028 535.486,8.109 535.798,8.271 C536.11,8.433 536.434,8.67 536.77,8.982 L536.77,8.982 L537.832,7.776 C537.496,7.428 537.121,7.125 536.707,6.867 C536.293,6.609 535.798,6.444 535.222,6.372 L535.222,6.372 L535.222,4.572 L533.782,4.572 L533.782,6.408 C532.966,6.552 532.318,6.903 531.838,7.461 C531.358,8.019 531.118,8.718 531.118,9.558 C531.118,10.122 531.238,10.593 531.478,10.971 C531.718,11.349 532.021,11.673 532.387,11.943 C532.753,12.213 533.146,12.447 533.566,12.645 C533.986,12.843 534.379,13.05 534.745,13.266 C535.111,13.482 535.414,13.722 535.654,13.986 C535.894,14.25 536.014,14.58 536.014,14.976 C536.014,15.468 535.87,15.849 535.582,16.119 C535.294,16.389 534.856,16.524 534.268,16.524 C533.776,16.524 533.314,16.422 532.882,16.218 C532.45,16.014 532.024,15.744 531.604,15.408 L531.604,15.408 L530.668,16.812 C531.076,17.196 531.559,17.505 532.117,17.739 C532.675,17.973 533.23,18.12 533.782,18.18 L533.782,18.18 L533.782,19.98 L535.222,19.98 Z M543.412,18.216 C543.964,18.216 544.483,18.141 544.969,17.991 C545.455,17.841 545.881,17.625 546.247,17.343 C546.613,17.061 546.901,16.716 547.111,16.308 C547.321,15.9 547.426,15.432 547.426,14.904 C547.426,14.148 547.201,13.53 546.751,13.05 C546.301,12.57 545.734,12.24 545.05,12.06 L545.05,12.06 L545.05,11.988 C545.674,11.748 546.163,11.412 546.517,10.98 C546.871,10.548 547.048,10.008 547.048,9.36 C547.048,8.88 546.958,8.451 546.778,8.073 C546.598,7.695 546.346,7.377 546.022,7.119 C545.698,6.861 545.308,6.666 544.852,6.534 C544.396,6.402 543.892,6.336 543.34,6.336 C542.656,6.336 542.035,6.468 541.477,6.732 C540.919,6.996 540.394,7.344 539.902,7.776 L539.902,7.776 L540.964,9.054 C541.312,8.73 541.669,8.469 542.035,8.271 C542.401,8.073 542.812,7.974 543.268,7.974 C543.796,7.974 544.21,8.109 544.51,8.379 C544.81,8.649 544.96,9.024 544.96,9.504 C544.96,9.768 544.909,10.014 544.807,10.242 C544.705,10.47 544.537,10.665 544.303,10.827 C544.069,10.989 543.763,11.115 543.385,11.205 C543.007,11.295 542.536,11.34 541.972,11.34 L541.972,11.34 L541.972,12.852 C542.62,12.852 543.16,12.897 543.592,12.987 C544.024,13.077 544.369,13.206 544.627,13.374 C544.885,13.542 545.068,13.746 545.176,13.986 C545.284,14.226 545.338,14.496 545.338,14.796 C545.338,15.336 545.143,15.759 544.753,16.065 C544.363,16.371 543.856,16.524 543.232,16.524 C542.656,16.524 542.146,16.401 541.702,16.155 C541.258,15.909 540.862,15.612 540.514,15.264 L540.514,15.264 L539.524,16.596 C539.932,17.052 540.448,17.436 541.072,17.748 C541.696,18.06 542.476,18.216 543.412,18.216 Z M550.81,18.216 C551.194,18.216 551.512,18.084 551.764,17.82 C552.016,17.556 552.142,17.22 552.142,16.812 C552.142,16.404 552.016,16.068 551.764,15.804 C551.512,15.54 551.194,15.408 550.81,15.408 C550.426,15.408 550.105,15.54 549.847,15.804 C549.589,16.068 549.46,16.404 549.46,16.812 C549.46,17.22 549.589,17.556 549.847,17.82 C550.105,18.084 550.426,18.216 550.81,18.216 Z M557.614,18.216 C558.142,18.216 558.649,18.129 559.135,17.955 C559.621,17.781 560.05,17.526 560.422,17.19 C560.794,16.854 561.091,16.44 561.313,15.948 C561.535,15.456 561.646,14.898 561.646,14.274 C561.646,13.662 561.55,13.131 561.358,12.681 C561.166,12.231 560.908,11.859 560.584,11.565 C560.26,11.271 559.879,11.052 559.441,10.908 C559.003,10.764 558.538,10.692 558.046,10.692 C557.746,10.692 557.479,10.725 557.245,10.791 C557.011,10.857 556.774,10.95 556.534,11.07 L556.534,11.07 L556.768,8.298 L561.088,8.298 L561.088,6.552 L554.968,6.552 L554.626,12.204 L555.616,12.834 C555.964,12.606 556.264,12.441 556.516,12.339 C556.768,12.237 557.08,12.186 557.452,12.186 C558.088,12.186 558.598,12.372 558.982,12.744 C559.366,13.116 559.558,13.644 559.558,14.328 C559.558,15.024 559.351,15.564 558.937,15.948 C558.523,16.332 557.992,16.524 557.344,16.524 C556.768,16.524 556.264,16.401 555.832,16.155 C555.4,15.909 555.01,15.624 554.662,15.3 L554.662,15.3 L553.708,16.632 C554.128,17.052 554.653,17.421 555.283,17.739 C555.913,18.057 556.69,18.216 557.614,18.216 Z M568.468,18 L568.468,7.992 L571.87,7.992 L571.87,6.228 L562.978,6.228 L562.978,7.992 L566.38,7.992 L566.38,18 L568.468,18 Z" id="TotalEstimatedValueofLegislation$3.5T" fill="#666666" fill-rule="nonzero"></path>
                <path d="M0,105 L0,41 L839,41 L839,105" id="Path-21" stroke="#D8D8D8" stroke-dasharray="3,3"></path>
                <polyline id="Path-21-Copy" stroke="#979797" stroke-width="0.5" points="0 107 0 99 617 99 617 107"></polyline>
                <line x1="846" y1="126.56981" x2="854" y2="126.43019" id="Line-14-Copy-2" stroke="#979797" stroke-width="0.5" stroke-linecap="square"></line>
                <path d="M860.72,126 L860.72,118.968 L863.096,118.968 L863.096,118.128 L857.336,118.128 L857.336,118.968 L859.712,118.968 L859.712,126 L860.72,126 Z M864.008,126 L864.764,123.6 L867.632,123.6 L868.376,126 L869.444,126 L866.78,118.128 L865.652,118.128 L862.988,126 L864.008,126 Z M867.38,122.796 L865.016,122.796 L865.388,121.596 C865.532,121.156 865.668,120.718 865.796,120.282 C865.924,119.846 866.048,119.4 866.168,118.944 L866.168,118.944 L866.216,118.944 C866.344,119.4 866.472,119.846 866.6,120.282 C866.728,120.718 866.864,121.156 867.008,121.596 L867.008,121.596 L867.38,122.796 Z M870.764,126 L871.904,123.876 C872,123.684 872.1,123.486 872.204,123.282 C872.308,123.078 872.416,122.856 872.528,122.616 L872.528,122.616 L872.576,122.616 C872.704,122.856 872.822,123.078 872.93,123.282 C873.038,123.486 873.144,123.684 873.248,123.876 L873.248,123.876 L874.4,126 L875.504,126 L873.212,121.98 L875.36,118.128 L874.304,118.128 L873.26,120.144 C873.164,120.328 873.074,120.506 872.99,120.678 C872.906,120.85 872.808,121.052 872.696,121.284 L872.696,121.284 L872.648,121.284 C872.528,121.052 872.422,120.85 872.33,120.678 C872.238,120.506 872.14,120.328 872.036,120.144 L872.036,120.144 L870.968,118.128 L869.864,118.128 L872,121.932 L869.708,126 L870.764,126 Z M880.16,126 L880.16,122.676 L881.588,122.676 L883.484,126 L884.612,126 L882.608,122.568 C883.152,122.432 883.584,122.18 883.904,121.812 C884.224,121.444 884.384,120.952 884.384,120.336 C884.384,119.928 884.316,119.584 884.18,119.304 C884.044,119.024 883.854,118.796 883.61,118.62 C883.366,118.444 883.074,118.318 882.734,118.242 C882.394,118.166 882.024,118.128 881.624,118.128 L881.624,118.128 L879.164,118.128 L879.164,126 L880.16,126 Z M881.48,121.86 L880.16,121.86 L880.16,118.932 L881.48,118.932 C882.096,118.932 882.568,119.036 882.896,119.244 C883.224,119.452 883.388,119.816 883.388,120.336 C883.388,120.848 883.224,121.23 882.896,121.482 C882.568,121.734 882.096,121.86 881.48,121.86 L881.48,121.86 Z M890.648,126 L890.648,125.148 L886.988,125.148 L886.988,122.292 L889.976,122.292 L889.976,121.44 L886.988,121.44 L886.988,118.968 L890.528,118.968 L890.528,118.128 L885.992,118.128 L885.992,126 L890.648,126 Z M896.756,126 L896.756,125.148 L893.312,125.148 L893.312,118.128 L892.316,118.128 L892.316,126 L896.756,126 Z M899.144,126 L899.144,118.128 L898.148,118.128 L898.148,126 L899.144,126 Z M905.96,126 L905.96,125.148 L902.3,125.148 L902.3,122.292 L905.288,122.292 L905.288,121.44 L902.3,121.44 L902.3,118.968 L905.84,118.968 L905.84,118.128 L901.304,118.128 L901.304,126 L905.96,126 Z M908.624,126 L908.624,122.472 L911.624,122.472 L911.624,121.632 L908.624,121.632 L908.624,118.968 L912.164,118.968 L912.164,118.128 L907.628,118.128 L907.628,126 L908.624,126 Z M860.744,142.32 L860.744,141.072 C861.368,140.936 861.836,140.662 862.148,140.25 C862.46,139.838 862.616,139.344 862.616,138.768 C862.616,138.384 862.538,138.062 862.382,137.802 C862.226,137.542 862.03,137.32 861.794,137.136 C861.558,136.952 861.304,136.796 861.032,136.668 C860.76,136.54 860.506,136.416 860.27,136.296 C860.034,136.176 859.838,136.05 859.682,135.918 C859.526,135.786 859.448,135.624 859.448,135.432 C859.448,135.16 859.524,134.964 859.676,134.844 C859.828,134.724 860.048,134.664 860.336,134.664 C860.592,134.664 860.82,134.714 861.02,134.814 C861.22,134.914 861.428,135.064 861.644,135.264 L861.644,135.264 L862.532,134.256 C862.3,134.008 862.04,133.796 861.752,133.62 C861.464,133.444 861.128,133.328 860.744,133.272 L860.744,133.272 L860.744,132.06 L859.58,132.06 L859.58,133.296 C859.012,133.408 858.566,133.658 858.242,134.046 C857.918,134.434 857.756,134.924 857.756,135.516 C857.756,135.876 857.834,136.18 857.99,136.428 C858.146,136.676 858.342,136.892 858.578,137.076 C858.814,137.26 859.068,137.418 859.34,137.55 C859.612,137.682 859.866,137.814 860.102,137.946 C860.338,138.078 860.534,138.216 860.69,138.36 C860.846,138.504 860.924,138.68 860.924,138.888 C860.924,139.168 860.846,139.376 860.69,139.512 C860.534,139.648 860.288,139.716 859.952,139.716 C859.664,139.716 859.382,139.658 859.106,139.542 C858.83,139.426 858.54,139.252 858.236,139.02 L858.236,139.02 L857.468,140.208 C857.748,140.464 858.082,140.67 858.47,140.826 C858.858,140.982 859.228,141.08 859.58,141.12 L859.58,141.12 L859.58,142.32 L860.744,142.32 Z M866.084,141.144 C866.484,141.144 866.87,141.062 867.242,140.898 C867.614,140.734 867.942,140.484 868.226,140.148 C868.51,139.812 868.738,139.384 868.91,138.864 C869.082,138.344 869.168,137.728 869.168,137.016 C869.168,136.344 869.086,135.77 868.922,135.294 C868.758,134.818 868.542,134.428 868.274,134.124 C868.006,133.82 867.698,133.596 867.35,133.452 C867.002,133.308 866.644,133.236 866.276,133.236 C865.932,133.236 865.606,133.294 865.298,133.41 C864.99,133.526 864.722,133.696 864.494,133.92 C864.266,134.144 864.084,134.414 863.948,134.73 C863.812,135.046 863.744,135.4 863.744,135.792 C863.744,136.192 863.802,136.54 863.918,136.836 C864.034,137.132 864.192,137.376 864.392,137.568 C864.592,137.76 864.83,137.904 865.106,138 C865.382,138.096 865.684,138.144 866.012,138.144 C866.132,138.144 866.26,138.126 866.396,138.09 C866.532,138.054 866.668,138.002 866.804,137.934 C866.94,137.866 867.072,137.782 867.2,137.682 C867.328,137.582 867.44,137.468 867.536,137.34 C867.52,137.788 867.47,138.162 867.386,138.462 C867.302,138.762 867.19,139.006 867.05,139.194 C866.91,139.382 866.748,139.516 866.564,139.596 C866.38,139.676 866.18,139.716 865.964,139.716 C865.74,139.716 865.52,139.662 865.304,139.554 C865.088,139.446 864.916,139.32 864.788,139.176 L864.788,139.176 L863.852,140.232 C864.092,140.472 864.398,140.684 864.77,140.868 C865.142,141.052 865.58,141.144 866.084,141.144 Z M866.36,136.896 C866.072,136.896 865.832,136.814 865.64,136.65 C865.448,136.486 865.352,136.2 865.352,135.792 C865.352,135.36 865.448,135.046 865.64,134.85 C865.832,134.654 866.056,134.556 866.312,134.556 C866.584,134.556 866.83,134.67 867.05,134.898 C867.27,135.126 867.42,135.54 867.5,136.14 C867.348,136.412 867.17,136.606 866.966,136.722 C866.762,136.838 866.56,136.896 866.36,136.896 Z M872.84,141.144 C873.248,141.144 873.62,141.058 873.956,140.886 C874.292,140.714 874.578,140.46 874.814,140.124 C875.05,139.788 875.234,139.372 875.366,138.876 C875.498,138.38 875.564,137.808 875.564,137.16 C875.564,136.512 875.498,135.944 875.366,135.456 C875.234,134.968 875.05,134.558 874.814,134.226 C874.578,133.894 874.292,133.646 873.956,133.482 C873.62,133.318 873.248,133.236 872.84,133.236 C872.432,133.236 872.06,133.318 871.724,133.482 C871.388,133.646 871.102,133.894 870.866,134.226 C870.63,134.558 870.446,134.968 870.314,135.456 C870.182,135.944 870.116,136.512 870.116,137.16 C870.116,137.808 870.182,138.38 870.314,138.876 C870.446,139.372 870.63,139.788 870.866,140.124 C871.102,140.46 871.388,140.714 871.724,140.886 C872.06,141.058 872.432,141.144 872.84,141.144 Z M872.84,139.776 C872.696,139.776 872.56,139.738 872.432,139.662 C872.304,139.586 872.192,139.448 872.096,139.248 C872,139.048 871.924,138.78 871.868,138.444 C871.812,138.108 871.784,137.68 871.784,137.16 C871.784,136.64 871.812,136.214 871.868,135.882 C871.924,135.55 872,135.29 872.096,135.102 C872.192,134.914 872.304,134.784 872.432,134.712 C872.56,134.64 872.696,134.604 872.84,134.604 C872.992,134.604 873.132,134.64 873.26,134.712 C873.388,134.784 873.5,134.914 873.596,135.102 C873.692,135.29 873.766,135.55 873.818,135.882 C873.87,136.214 873.896,136.64 873.896,137.16 C873.896,137.68 873.87,138.108 873.818,138.444 C873.766,138.78 873.692,139.048 873.596,139.248 C873.5,139.448 873.388,139.586 873.26,139.662 C873.132,139.738 872.992,139.776 872.84,139.776 Z M881.816,141 L881.816,139.512 L880.28,139.512 C880.096,139.512 879.886,139.522 879.65,139.542 C879.414,139.562 879.2,139.584 879.008,139.608 C879.32,139.288 879.622,138.962 879.914,138.63 C880.206,138.298 880.466,137.966 880.694,137.634 C880.922,137.302 881.104,136.97 881.24,136.638 C881.376,136.306 881.444,135.98 881.444,135.66 C881.444,135.292 881.384,134.96 881.264,134.664 C881.144,134.368 880.972,134.114 880.748,133.902 C880.524,133.69 880.258,133.526 879.95,133.41 C879.642,133.294 879.3,133.236 878.924,133.236 C878.38,133.236 877.912,133.338 877.52,133.542 C877.128,133.746 876.744,134.048 876.368,134.448 L876.368,134.448 L877.328,135.396 C877.52,135.188 877.724,135.006 877.94,134.85 C878.156,134.694 878.404,134.616 878.684,134.616 C879.02,134.616 879.284,134.714 879.476,134.91 C879.668,135.106 879.764,135.392 879.764,135.768 C879.764,136.04 879.682,136.326 879.518,136.626 C879.354,136.926 879.126,137.25 878.834,137.598 C878.542,137.946 878.194,138.318 877.79,138.714 C877.386,139.11 876.94,139.536 876.452,139.992 L876.452,139.992 L876.452,141 L881.816,141 Z M886.172,141 C886.596,141 886.992,140.954 887.36,140.862 C887.728,140.77 888.05,140.63 888.326,140.442 C888.602,140.254 888.818,140.016 888.974,139.728 C889.13,139.44 889.208,139.096 889.208,138.696 C889.208,138.432 889.172,138.198 889.1,137.994 C889.028,137.79 888.928,137.612 888.8,137.46 C888.672,137.308 888.524,137.182 888.356,137.082 C888.188,136.982 888.004,136.908 887.804,136.86 L887.804,136.86 L887.804,136.812 C887.964,136.756 888.106,136.668 888.23,136.548 C888.354,136.428 888.46,136.292 888.548,136.14 C888.636,135.988 888.704,135.824 888.752,135.648 C888.8,135.472 888.824,135.296 888.824,135.12 C888.824,134.744 888.75,134.432 888.602,134.184 C888.454,133.936 888.25,133.736 887.99,133.584 C887.73,133.432 887.426,133.326 887.078,133.266 C886.73,133.206 886.352,133.176 885.944,133.176 L885.944,133.176 L883.268,133.176 L883.268,141 L886.172,141 Z M885.86,136.308 L885.032,136.308 L885.032,134.544 L885.872,134.544 C886.288,134.544 886.596,134.608 886.796,134.736 C886.996,134.864 887.096,135.08 887.096,135.384 C887.096,135.664 886.998,135.888 886.802,136.056 C886.606,136.224 886.292,136.308 885.86,136.308 L885.86,136.308 Z M886.028,139.632 L885.032,139.632 L885.032,137.616 L886.028,137.616 C886.516,137.616 886.88,137.69 887.12,137.838 C887.36,137.986 887.48,138.232 887.48,138.576 C887.48,139.28 886.996,139.632 886.028,139.632 L886.028,139.632 Z" id="TAXRELIEF$902B" fill="#666666" fill-rule="nonzero"></path>
                <line x1="419.5" y1="39.5" x2="419.5" y2="27.5" id="Line-14" stroke="#D8D8D8" stroke-linecap="round" stroke-linejoin="round" stroke-dasharray="3,3"></line>
                <line x1="308.5" y1="98" x2="308.5" y2="90" id="Line-14-Copy" stroke="#979797" stroke-width="0.5" stroke-linecap="square"></line>
            </g>
        </g>
    </g>
</svg>