<?xml version="1.0" encoding="UTF-8"?>
<svg class='lawTotal' aria-labelledby='phase3total-desc' width="324px" height="85px" viewBox="0 0 324 85" version="1.1" xmlns="http://www.w3.org/2000/svg" xmlns:xlink="http://www.w3.org/1999/xlink" role="img">
    <desc id="phase3total-desc">Horizontal stacked bar chart of total budgetary resources from the Phase 3 legislation ($2.07T) that have been obligated and outlayed ($972B) to date.</desc>
    <g id="Viz-3-(v2)" stroke="none" stroke-width="1" fill="none" fill-rule="evenodd">
        <g id="Viz-3---SVG-Export-Mobile" transform="translate(-37.000000, -991.000000)">
            <g id="Group-3" transform="translate(15.000000, 128.000000)">
                <g id="graph" transform="translate(0.000000, 148.000000)">
                    <g id="phase-3" transform="translate(22.000000, 607.000000)">
                        <g id="bar-1" transform="translate(0.000000, 80.000000)">
                            <g id="04.-phase-3-total" transform="translate(0.000000, 28.000000)">
                                <text id="Outlays-$972B" font-family="SourceSansPro-SemiBold, Source Sans Pro" font-size="12" font-weight="500" fill="#666666">
                                    <tspan x="0" y="67">Outlays</tspan>
                                    <tspan x="39.648" y="67" font-family="SourceSansPro-Regular, Source Sans Pro" font-weight="normal"></tspan>
                                    <tspan x="0" y="82" font-family="SourceSansPro-Regular, Source Sans Pro" font-weight="normal">$972B</tspan>
                                </text>
                                <text id="Obligations-$1.09T" font-family="SourceSansPro-SemiBold, Source Sans Pro" font-size="12" font-weight="500" fill="#666666">
                                    <tspan x="120" y="67">Obligations</tspan>
                                    <tspan x="179.22" y="67" font-family="SourceSansPro-Regular, Source Sans Pro" font-weight="normal"></tspan>
                                    <tspan x="120" y="82" font-family="SourceSansPro-Regular, Source Sans Pro" font-weight="normal">$1.09T</tspan>
                                </text>
                                <text id="Unobligated-$986B" font-family="SourceSansPro-SemiBold, Source Sans Pro" font-size="12" font-weight="500" fill="#666666">
                                    <tspan x="260" y="67">Unobligated</tspan>
                                    <tspan x="260" y="82" font-family="SourceSansPro-Regular, Source Sans Pro" font-weight="normal">$986B</tspan>
                                </text>
                                <line x1="4.5" y1="40" x2="4.5" y2="55" id="Line" stroke="#C6C6C6"></line>
                                <path d="M148,40 L148,47.75 C148,48.8545695 147.104569,49.75 146,49.75 L110,49.75 C108.895431,49.75 108,50.6454305 108,51.75 L108,55 L108,55" id="Line-Copy-9" stroke="#C6C6C6" stroke-linecap="round" transform="translate(128.000000, 47.500000) scale(1, -1) translate(-128.000000, -47.500000) "></path>
                                <path d="M288,40 L288,47.75 C288,48.8545695 287.104569,49.75 286,49.75 L170,49.75 C168.895431,49.75 168,50.6454305 168,51.75 L168,55 L168,55" id="Line-Copy-10" stroke="#C6C6C6" stroke-linecap="round" transform="translate(228.000000, 47.500000) scale(1, -1) translate(-228.000000, -47.500000) "></path>
                                <rect id="unobligated" fill="#F3E9FF" x="113" y="0" width="102" height="40"></rect>
                                <rect id="obligated" fill="#6F41A7" x="101" y="0" width="12" height="40"></rect>
                                <rect id="outlays" fill="#331E4D" x="0" y="0" width="101" height="40"></rect>
                                <text id="$2.07T" font-family="SourceSansPro-Bold, Source Sans Pro" font-size="16" font-weight="bold" fill="#555555">
                                    <tspan x="225" y="26">$2.07T</tspan>
                                </text>
                            </g>
                        </g>
                    </g>
                </g>
            </g>
        </g>
    </g>
</svg>