<?xml version="1.0" encoding="UTF-8"?>
<svg width="432px" height="150px" viewBox="0 0 432 150" version="1.1" xmlns="http://www.w3.org/2000/svg" xmlns:xlink="http://www.w3.org/1999/xlink" role="img">
  <desc>Viz 1 B tablet placeholder alt text</desc>
  <defs>
    <path id="a" d="M313 79h40v97h-40z"/>
    <mask id="b" maskContentUnits="userSpaceOnUse" maskUnits="objectBoundingBox" x="0" y="0" width="40" height="97" fill="#fff">
      <use xlink:href="#a"/>
    </mask>
  </defs>
  <g fill="none" fill-rule="evenodd">
    <path d="M108.378 57v-4.116c0-.416-.014-.83-.042-1.242a102.02 102.02 0 00-.09-1.218h.048l.852 1.62L112.002 57h1.032v-7.872h-.948v4.068c0 .416.014.838.042 1.266.028.428.054.842.078 1.242h-.048l-.852-1.632-2.844-4.944h-1.032V57h.948zm11.472 0v-.852h-3.66v-2.856h2.988v-.852h-2.988v-2.472h3.54v-.84h-4.536V57h4.656zm3.72 0l1.164-4.74c.064-.304.13-.602.198-.894.068-.292.134-.59.198-.894h.048l.186.894c.06.292.126.59.198.894L126.75 57h1.2l1.632-7.872h-.96l-.828 4.284c-.08.424-.156.846-.228 1.266l-.216 1.278h-.048a329.655 329.655 0 00-.576-2.544l-1.092-4.284h-.912l-1.092 4.284c-.088.424-.18.846-.276 1.266-.096.42-.188.846-.276 1.278h-.048a52.035 52.035 0 00-.228-1.272l-.117-.63-.111-.642-.828-4.284h-1.032L122.382 57h1.188zm9.756 0l.756-2.4h2.868l.744 2.4h1.068l-2.664-7.872h-1.128L132.306 57h1.02zm3.372-3.204h-2.364l.372-1.2a44.773 44.773 0 00.78-2.652h.048c.128.456.256.902.384 1.338.128.436.264.874.408 1.314l.372 1.2zm6.156 3.348c.528 0 1-.086 1.416-.258.416-.172.752-.39 1.008-.654V52.92h-2.58v.828h1.668V55.8c-.16.144-.366.258-.618.342a2.507 2.507 0 01-.798.126c-.424 0-.798-.076-1.122-.228a2.226 2.226 0 01-.816-.648 2.975 2.975 0 01-.504-1.014 4.757 4.757 0 01-.174-1.338c0-.488.062-.928.186-1.32s.298-.726.522-1.002a2.26 2.26 0 01.816-.636c.32-.148.68-.222 1.08-.222s.732.072.996.216c.264.144.496.32.696.528l.552-.648a3.406 3.406 0 00-.39-.354 2.83 2.83 0 00-.504-.312 3.096 3.096 0 00-1.374-.306 3.67 3.67 0 00-1.446.282 3.233 3.233 0 00-1.146.81c-.32.352-.57.78-.75 1.284a5.044 5.044 0 00-.27 1.704c0 .64.088 1.214.264 1.722.176.508.42.936.732 1.284s.686.614 1.122.798c.436.184.914.276 1.434.276zm8.964-.144v-.852h-3.66v-2.856h2.988v-.852h-2.988v-2.472h3.54v-.84h-4.536V57h4.656zm2.616 0v-4.116c0-.416-.014-.83-.042-1.242a102.02 102.02 0 00-.09-1.218h.048l.852 1.62L158.058 57h1.032v-7.872h-.948v4.068c0 .416.014.838.042 1.266.028.428.054.842.078 1.242h-.048l-.852-1.632-2.844-4.944h-1.032V57h.948zm9.792.144c.512 0 .964-.1 1.356-.3a3.5 3.5 0 001.056-.84l-.552-.624a3.14 3.14 0 01-.816.654 2.084 2.084 0 01-1.008.234c-.376 0-.714-.076-1.014-.228a2.152 2.152 0 01-.762-.648 3.186 3.186 0 01-.486-1.014 4.757 4.757 0 01-.174-1.338c0-.488.058-.928.174-1.32.116-.392.282-.726.498-1.002a2.21 2.21 0 01.78-.636 2.3 2.3 0 011.02-.222c.336 0 .636.068.9.204.264.136.5.316.708.54l.54-.648a3.307 3.307 0 00-.894-.678c-.364-.196-.786-.294-1.266-.294-.504 0-.968.094-1.392.282a3.186 3.186 0 00-1.104.81c-.312.352-.556.78-.732 1.284a5.148 5.148 0 00-.264 1.704c0 .64.086 1.214.258 1.722.172.508.412.936.72 1.284s.67.614 1.086.798c.416.184.872.276 1.368.276zm6.072-.144v-3.048l2.364-4.824h-1.044l-1.008 2.22c-.12.288-.248.572-.384.852s-.272.568-.408.864h-.048a36.676 36.676 0 01-.384-.864c-.12-.28-.244-.564-.372-.852l-1.02-2.22h-1.068l2.364 4.824V57h1.008zm-52.29 15v-3.528h3v-.84h-3v-2.664h3.54v-.84h-4.536V72h.996zm7.728.144c.4 0 .772-.058 1.116-.174.344-.116.642-.308.894-.576.252-.268.45-.618.594-1.05.144-.432.216-.964.216-1.596v-4.62h-.96v4.644c0 .472-.048.868-.144 1.188-.096.32-.228.576-.396.768-.168.192-.364.33-.588.414a2.069 2.069 0 01-.732.126c-.256 0-.496-.042-.72-.126a1.408 1.408 0 01-.582-.414c-.164-.192-.294-.448-.39-.768-.096-.32-.144-.716-.144-1.188v-4.644h-.996v4.62c0 .632.072 1.164.216 1.596.144.432.342.782.594 1.05.252.268.552.46.9.576.348.116.722.174 1.122.174zm5.892-.144v-4.116c0-.416-.014-.83-.042-1.242a102.02 102.02 0 00-.09-1.218h.048l.852 1.62L135.252 72h1.032v-7.872h-.948v4.068c0 .416.014.838.042 1.266.028.428.054.842.078 1.242h-.048l-.852-1.632-2.844-4.944h-1.032V72h.948zm8.832 0c.592 0 1.116-.09 1.572-.27.456-.18.84-.44 1.152-.78.312-.34.548-.756.708-1.248.16-.492.24-1.05.24-1.674 0-1.256-.316-2.22-.948-2.892-.632-.672-1.556-1.008-2.772-1.008h-1.968V72h2.016zm-.12-.816h-.9v-6.24h.9c.92 0 1.61.264 2.07.792.46.528.69 1.292.69 2.292 0 1-.23 1.776-.69 2.328-.46.552-1.15.828-2.07.828zm6.48.816v-7.872h-.996V72h.996zm3.108 0v-4.116c0-.416-.014-.83-.042-1.242a102.02 102.02 0 00-.09-1.218h.048l.852 1.62L153.552 72h1.032v-7.872h-.948v4.068c0 .416.014.838.042 1.266.028.428.054.842.078 1.242h-.048l-.852-1.632-2.844-4.944h-1.032V72h.948zm9.912.144c.528 0 1-.086 1.416-.258.416-.172.752-.39 1.008-.654V67.92h-2.58v.828h1.668V70.8c-.16.144-.366.258-.618.342a2.507 2.507 0 01-.798.126c-.424 0-.798-.076-1.122-.228a2.226 2.226 0 01-.816-.648 2.975 2.975 0 01-.504-1.014 4.757 4.757 0 01-.174-1.338c0-.488.062-.928.186-1.32s.298-.726.522-1.002a2.26 2.26 0 01.816-.636c.32-.148.68-.222 1.08-.222s.732.072.996.216c.264.144.496.32.696.528l.552-.648a3.406 3.406 0 00-.39-.354 2.83 2.83 0 00-.504-.312 3.096 3.096 0 00-1.374-.306 3.67 3.67 0 00-1.446.282 3.233 3.233 0 00-1.146.81c-.32.352-.57.78-.75 1.284a5.044 5.044 0 00-.27 1.704c0 .64.088 1.214.264 1.722.176.508.42.936.732 1.284s.686.614 1.122.798c.436.184.914.276 1.434.276zM125.436 88.32v-1.248c.624-.136 1.092-.41 1.404-.822.312-.412.468-.906.468-1.482 0-.384-.078-.706-.234-.966a2.407 2.407 0 00-.588-.666 4.017 4.017 0 00-.762-.468 27.83 27.83 0 01-.762-.372 3.05 3.05 0 01-.588-.378.613.613 0 01-.234-.486c0-.272.076-.468.228-.588.152-.12.372-.18.66-.18.256 0 .484.05.684.15.2.1.408.25.624.45l.888-1.008a3.72 3.72 0 00-.78-.636 2.642 2.642 0 00-1.008-.348V78.06h-1.164v1.236c-.568.112-1.014.362-1.338.75-.324.388-.486.878-.486 1.47 0 .36.078.664.234.912.156.248.352.464.588.648s.49.342.762.474c.272.132.526.264.762.396s.432.27.588.414c.156.144.234.32.234.528 0 .28-.078.488-.234.624-.156.136-.402.204-.738.204-.288 0-.57-.058-.846-.174a4.034 4.034 0 01-.87-.522l-.768 1.188c.28.256.614.462 1.002.618.388.156.758.254 1.11.294v1.2h1.164zm8.4-1.32v-1.488H132.3c-.184 0-.394.01-.63.03-.236.02-.45.042-.642.066.312-.32.614-.646.906-.978.292-.332.552-.664.78-.996.228-.332.41-.664.546-.996a2.63 2.63 0 00.024-1.974 2.144 2.144 0 00-.516-.762 2.352 2.352 0 00-.798-.492 2.891 2.891 0 00-1.026-.174c-.544 0-1.012.102-1.404.306-.392.204-.776.506-1.152.906l.96.948c.192-.208.396-.39.612-.546.216-.156.464-.234.744-.234.336 0 .6.098.792.294.192.196.288.482.288.858 0 .272-.082.558-.246.858-.164.3-.392.624-.684.972-.292.348-.64.72-1.044 1.116-.404.396-.85.822-1.338 1.278V87h5.364zm2.328.144c.304 0 .558-.106.762-.318a1.09 1.09 0 00.306-.786c0-.32-.102-.586-.306-.798a1.014 1.014 0 00-.762-.318c-.304 0-.558.106-.762.318a1.105 1.105 0 00-.306.798c0 .312.102.574.306.786.204.212.458.318.762.318zm4.764 0c.368 0 .722-.06 1.062-.18.34-.12.638-.294.894-.522a2.52 2.52 0 00.612-.834c.152-.328.228-.704.228-1.128 0-.408-.064-.76-.192-1.056a1.983 1.983 0 00-.528-.732 2.26 2.26 0 00-.774-.432 2.959 2.959 0 00-.93-.144c-.16 0-.306.014-.438.042-.132.028-.27.074-.414.138l.132-1.428h2.796V79.38h-4.32l-.216 3.852.792.504a3.97 3.97 0 01.306-.18 2.49 2.49 0 01.264-.12c.084-.032.17-.054.258-.066a2.24 2.24 0 01.3-.018c.36 0 .65.1.87.3.22.2.33.492.33.876 0 .392-.116.688-.348.888-.232.2-.544.3-.936.3-.328 0-.626-.074-.894-.222a4.064 4.064 0 01-.75-.534l-.792 1.116c.304.304.672.558 1.104.762.432.204.96.306 1.584.306zm6.528 0c.408 0 .778-.054 1.11-.162.332-.108.616-.256.852-.444s.418-.41.546-.666c.128-.256.192-.536.192-.84 0-.504-.128-.912-.384-1.224a3.13 3.13 0 00-.936-.768v-.048c.264-.176.496-.406.696-.69.2-.284.3-.61.3-.978 0-.312-.056-.598-.168-.858a1.87 1.87 0 00-.468-.66c-.2-.18-.444-.32-.732-.42-.288-.1-.604-.15-.948-.15-.352 0-.678.048-.978.144-.3.096-.558.236-.774.42a1.922 1.922 0 00-.504.666c-.12.26-.18.55-.18.87 0 .408.096.754.288 1.038.192.284.436.538.732.762v.048c-.36.192-.666.436-.918.732s-.378.676-.378 1.14c0 .312.066.596.198.852s.316.476.552.66c.236.184.516.326.84.426.324.1.678.15 1.062.15zm.48-4.584a4.15 4.15 0 01-.948-.492.857.857 0 01-.36-.732c0-.296.084-.516.252-.66a.892.892 0 01.6-.216c.288 0 .514.09.678.27.164.18.246.418.246.714 0 .384-.156.756-.468 1.116zm-.444 3.36c-.32 0-.596-.094-.828-.282-.232-.188-.348-.45-.348-.786 0-.232.056-.452.168-.66.112-.208.252-.392.42-.552.24.104.458.2.654.288.196.088.366.182.51.282.144.1.254.21.33.33a.79.79 0 01.114.432c0 .32-.096.558-.288.714-.192.156-.436.234-.732.234zM154.86 87v-6.336h2.148v-1.488h-6.072v1.488h2.148V87h1.776zM15.958 18V7.992h3.402V6.228h-8.892v1.764h3.402V18h2.088zm7.524.216a4.25 4.25 0 001.593-.306 3.83 3.83 0 001.341-.9c.384-.396.693-.882.927-1.458.234-.576.351-1.23.351-1.962s-.117-1.386-.351-1.962a4.496 4.496 0 00-.927-1.458 3.936 3.936 0 00-1.341-.909 4.144 4.144 0 00-1.593-.315 4.078 4.078 0 00-2.925 1.224c-.39.396-.699.882-.927 1.458-.228.576-.342 1.23-.342 1.962s.114 1.386.342 1.962c.228.576.537 1.062.927 1.458.39.396.837.696 1.341.9a4.182 4.182 0 001.584.306zm0-1.692c-.648 0-1.155-.267-1.521-.801-.366-.534-.549-1.245-.549-2.133 0-.9.183-1.617.549-2.151.366-.534.873-.801 1.521-.801.648 0 1.158.267 1.53.801.372.534.558 1.251.558 2.151 0 .888-.186 1.599-.558 2.133-.372.534-.882.801-1.53.801zm8.982 1.692c.348 0 .675-.033.981-.099a6.89 6.89 0 00.819-.225l-.36-1.53c-.132.06-.279.108-.441.144a2.195 2.195 0 01-.477.054c-.828 0-1.242-.516-1.242-1.548V10.8h2.25V9.162h-2.25V6.75h-1.728l-.252 2.412-1.368.09V10.8h1.26v4.212c0 .48.051.915.153 1.305.102.39.264.726.486 1.008.222.282.51.501.864.657.354.156.789.234 1.305.234zm5.148 0a3.2 3.2 0 001.467-.342c.45-.228.873-.51 1.269-.846h.072l.144.972h1.71v-5.238c0-1.236-.273-2.181-.819-2.835-.546-.654-1.371-.981-2.475-.981-.708 0-1.368.114-1.98.342a8.854 8.854 0 00-1.656.81l.756 1.386c.396-.24.801-.444 1.215-.612a3.347 3.347 0 011.269-.252c.3 0 .552.045.756.135.204.09.369.216.495.378s.216.348.27.558c.054.21.087.429.099.657-.912.096-1.695.234-2.349.414-.654.18-1.194.402-1.62.666-.426.264-.738.579-.936.945a2.587 2.587 0 00-.297 1.251c0 .78.24 1.407.72 1.881s1.11.711 1.89.711zm.666-1.62c-.372 0-.678-.09-.918-.27-.24-.18-.36-.468-.36-.864 0-.216.054-.42.162-.612.108-.192.288-.363.54-.513a4.37 4.37 0 01.99-.405c.408-.12.912-.216 1.512-.288v1.98a5.267 5.267 0 01-.945.72 1.942 1.942 0 01-.981.252zm8.496 1.62c.456 0 .822-.06 1.098-.18l-.27-1.548a.763.763 0 01-.189.036h-.135c-.108 0-.21-.051-.306-.153-.096-.102-.144-.279-.144-.531V5.292h-2.07v10.44c0 .768.15 1.374.45 1.818.3.444.822.666 1.566.666zM60.688 18v-1.764h-5.184v-3.474h4.23v-1.764h-4.23V7.992h5.004V6.228h-7.092V18h7.272zm4.698.216c.552 0 1.044-.072 1.476-.216a3.2 3.2 0 001.08-.585 2.474 2.474 0 00.882-1.935c0-.408-.075-.759-.225-1.053a2.34 2.34 0 00-.594-.747 3.695 3.695 0 00-.819-.513c-.3-.138-.6-.261-.9-.369-.24-.084-.471-.168-.693-.252a4.123 4.123 0 01-.585-.27 1.417 1.417 0 01-.405-.333.706.706 0 01-.153-.459c0-.276.105-.507.315-.693.21-.186.537-.279.981-.279.348 0 .681.069.999.207.318.138.633.321.945.549l.954-1.26a6.165 6.165 0 00-1.278-.738 4.078 4.078 0 00-1.656-.324c-.996 0-1.782.246-2.358.738-.576.492-.864 1.128-.864 1.908 0 .372.075.693.225.963.15.27.342.507.576.711.234.204.501.378.801.522.3.144.594.27.882.378.228.096.456.189.684.279.228.09.432.189.612.297.18.108.324.231.432.369a.752.752 0 01.162.477.967.967 0 01-.342.765c-.228.198-.582.297-1.062.297-.456 0-.879-.087-1.269-.261a5.62 5.62 0 01-1.179-.729l-.972 1.332c.432.348.945.639 1.539.873a4.898 4.898 0 001.809.351zm8.046 0c.348 0 .675-.033.981-.099a6.89 6.89 0 00.819-.225l-.36-1.53c-.132.06-.279.108-.441.144a2.195 2.195 0 01-.477.054c-.828 0-1.242-.516-1.242-1.548V10.8h2.25V9.162h-2.25V6.75h-1.728l-.252 2.412-1.368.09V10.8h1.26v4.212c0 .48.051.915.153 1.305.102.39.264.726.486 1.008.222.282.51.501.864.657.354.156.789.234 1.305.234zM77.86 7.614c.372 0 .678-.108.918-.324.24-.216.36-.498.36-.846s-.12-.633-.36-.855c-.24-.222-.546-.333-.918-.333s-.678.111-.918.333c-.24.222-.36.507-.36.855s.12.63.36.846c.24.216.546.324.918.324zM78.886 18V9.162h-2.07V18h2.07zm4.716 0v-6.174c.684-.732 1.302-1.098 1.854-1.098.468 0 .813.15 1.035.45.222.3.333.816.333 1.548V18h2.07v-6.174c.684-.732 1.302-1.098 1.854-1.098.456 0 .795.15 1.017.45.222.3.333.816.333 1.548V18h2.088v-5.544c0-1.128-.222-1.995-.666-2.601-.444-.606-1.134-.909-2.07-.909-.564 0-1.074.15-1.53.45a7.11 7.11 0 00-1.314 1.134c-.204-.504-.501-.894-.891-1.17-.39-.276-.909-.414-1.557-.414-.552 0-1.047.138-1.485.414a6.201 6.201 0 00-1.215 1.008h-.072l-.144-1.206h-1.71V18h2.07zm15.246.216a3.2 3.2 0 001.467-.342c.45-.228.873-.51 1.269-.846h.072l.144.972h1.71v-5.238c0-1.236-.273-2.181-.819-2.835-.546-.654-1.371-.981-2.475-.981-.708 0-1.368.114-1.98.342a8.854 8.854 0 00-1.656.81l.756 1.386c.396-.24.801-.444 1.215-.612a3.347 3.347 0 011.269-.252c.3 0 .552.045.756.135.204.09.369.216.495.378s.216.348.27.558c.054.21.087.429.099.657-.912.096-1.695.234-2.349.414-.654.18-1.194.402-1.62.666-.426.264-.738.579-.936.945a2.587 2.587 0 00-.297 1.251c0 .78.24 1.407.72 1.881s1.11.711 1.89.711zm.666-1.62c-.372 0-.678-.09-.918-.27-.24-.18-.36-.468-.36-.864 0-.216.054-.42.162-.612.108-.192.288-.363.54-.513a4.37 4.37 0 01.99-.405c.408-.12.912-.216 1.512-.288v1.98a5.267 5.267 0 01-.945.72 1.942 1.942 0 01-.981.252zm9.306 1.62c.348 0 .675-.033.981-.099a6.89 6.89 0 00.819-.225l-.36-1.53c-.132.06-.279.108-.441.144a2.195 2.195 0 01-.477.054c-.828 0-1.242-.516-1.242-1.548V10.8h2.25V9.162h-2.25V6.75h-1.728l-.252 2.412-1.368.09V10.8h1.26v4.212c0 .48.051.915.153 1.305.102.39.264.726.486 1.008.222.282.51.501.864.657.354.156.789.234 1.305.234zm6.876 0c.564 0 1.104-.09 1.62-.27.516-.18.984-.408 1.404-.684l-.702-1.296a4.76 4.76 0 01-.981.477c-.33.114-.687.171-1.071.171-.72 0-1.311-.213-1.773-.639-.462-.426-.741-1.035-.837-1.827h5.616c.024-.108.045-.252.063-.432a5.8 5.8 0 00.027-.576c0-.612-.078-1.176-.234-1.692a3.8 3.8 0 00-.693-1.332 3.09 3.09 0 00-1.143-.864c-.456-.204-.984-.306-1.584-.306-.516 0-1.02.108-1.512.324a4.027 4.027 0 00-1.305.918 4.46 4.46 0 00-.909 1.458c-.228.576-.342 1.224-.342 1.944 0 .732.111 1.383.333 1.953.222.57.531 1.053.927 1.449a4.06 4.06 0 001.386.909c.528.21 1.098.315 1.71.315zm1.566-5.472h-3.924c.096-.72.342-1.266.738-1.638a1.96 1.96 0 011.386-.558c.612 0 1.065.195 1.359.585.294.39.441.927.441 1.611zm6.876 5.472c.48 0 .936-.114 1.368-.342.432-.228.81-.504 1.134-.828h.072l.144.954h1.71V5.292h-2.07v3.204l.072 1.422a5.117 5.117 0 00-1.044-.711c-.348-.174-.774-.261-1.278-.261-.48 0-.945.108-1.395.324a3.74 3.74 0 00-1.197.918 4.534 4.534 0 00-.837 1.458c-.21.576-.315 1.224-.315 1.944 0 1.464.327 2.601.981 3.411.654.81 1.539 1.215 2.655 1.215zm.504-1.71c-.648 0-1.143-.249-1.485-.747-.342-.498-.513-1.227-.513-2.187 0-.936.198-1.656.594-2.16.396-.504.882-.756 1.458-.756.3 0 .597.054.891.162.294.108.597.3.909.576v4.122c-.576.66-1.194.99-1.854.99zM139.546 18L143.2 6.228h-2.142l-1.638 5.922c-.18.672-.345 1.308-.495 1.908-.15.6-.327 1.242-.531 1.926h-.072a44.698 44.698 0 01-.531-1.926 59.46 59.46 0 00-.513-1.908l-1.656-5.922h-2.214L137.08 18h2.466zm6.516.216a3.2 3.2 0 001.467-.342c.45-.228.873-.51 1.269-.846h.072l.144.972h1.71v-5.238c0-1.236-.273-2.181-.819-2.835-.546-.654-1.371-.981-2.475-.981-.708 0-1.368.114-1.98.342a8.854 8.854 0 00-1.656.81l.756 1.386c.396-.24.801-.444 1.215-.612a3.347 3.347 0 011.269-.252c.3 0 .552.045.756.135.204.09.369.216.495.378s.216.348.27.558c.054.21.087.429.099.657-.912.096-1.695.234-2.349.414-.654.18-1.194.402-1.62.666-.426.264-.738.579-.936.945a2.587 2.587 0 00-.297 1.251c0 .78.24 1.407.72 1.881s1.11.711 1.89.711zm.666-1.62c-.372 0-.678-.09-.918-.27-.24-.18-.36-.468-.36-.864 0-.216.054-.42.162-.612.108-.192.288-.363.54-.513a4.37 4.37 0 01.99-.405c.408-.12.912-.216 1.512-.288v1.98a5.267 5.267 0 01-.945.72 1.942 1.942 0 01-.981.252zm8.496 1.62c.456 0 .822-.06 1.098-.18l-.27-1.548a.763.763 0 01-.189.036h-.135c-.108 0-.21-.051-.306-.153-.096-.102-.144-.279-.144-.531V5.292h-2.07v10.44c0 .768.15 1.374.45 1.818.3.444.822.666 1.566.666zm5.49 0c.612 0 1.143-.138 1.593-.414.45-.276.867-.642 1.251-1.098h.054l.162 1.296h1.692V9.162h-2.07v6.048c-.336.432-.651.744-.945.936a1.818 1.818 0 01-1.017.288c-.48 0-.828-.15-1.044-.45-.216-.3-.324-.816-.324-1.548V9.162h-2.07v5.544c0 1.128.216 1.995.648 2.601.432.606 1.122.909 2.07.909zm11.16 0c.564 0 1.104-.09 1.62-.27.516-.18.984-.408 1.404-.684l-.702-1.296a4.76 4.76 0 01-.981.477c-.33.114-.687.171-1.071.171-.72 0-1.311-.213-1.773-.639-.462-.426-.741-1.035-.837-1.827h5.616c.024-.108.045-.252.063-.432a5.8 5.8 0 00.027-.576c0-.612-.078-1.176-.234-1.692a3.8 3.8 0 00-.693-1.332 3.09 3.09 0 00-1.143-.864c-.456-.204-.984-.306-1.584-.306-.516 0-1.02.108-1.512.324a4.027 4.027 0 00-1.305.918 4.46 4.46 0 00-.909 1.458c-.228.576-.342 1.224-.342 1.944 0 .732.111 1.383.333 1.953.222.57.531 1.053.927 1.449a4.06 4.06 0 001.386.909c.528.21 1.098.315 1.71.315zm1.566-5.472h-3.924c.096-.72.342-1.266.738-1.638a1.96 1.96 0 011.386-.558c.612 0 1.065.195 1.359.585.294.39.441.927.441 1.611zm10.998 5.472a4.25 4.25 0 001.593-.306 3.83 3.83 0 001.341-.9c.384-.396.693-.882.927-1.458.234-.576.351-1.23.351-1.962s-.117-1.386-.351-1.962a4.496 4.496 0 00-.927-1.458 3.936 3.936 0 00-1.341-.909 4.144 4.144 0 00-1.593-.315 4.078 4.078 0 00-2.925 1.224c-.39.396-.699.882-.927 1.458-.228.576-.342 1.23-.342 1.962s.114 1.386.342 1.962c.228.576.537 1.062.927 1.458.39.396.837.696 1.341.9a4.182 4.182 0 001.584.306zm0-1.692c-.648 0-1.155-.267-1.521-.801-.366-.534-.549-1.245-.549-2.133 0-.9.183-1.617.549-2.151.366-.534.873-.801 1.521-.801.648 0 1.158.267 1.53.801.372.534.558 1.251.558 2.151 0 .888-.186 1.599-.558 2.133-.372.534-.882.801-1.53.801zM193.06 18v-7.2h1.728V9.162h-1.728v-.954c0-.996.372-1.494 1.116-1.494.324 0 .648.072.972.216l.396-1.548a4.255 4.255 0 00-.729-.216 4.273 4.273 0 00-.891-.09c-.528 0-.975.078-1.341.234a2.416 2.416 0 00-.909.657c-.24.282-.414.618-.522 1.008-.108.39-.162.813-.162 1.269v.918l-1.188.09V10.8h1.188V18h2.07zm7.65 0l.918-3.186h3.96l.918 3.186h2.196l-3.834-11.772h-2.448L198.586 18h2.124zm4.41-4.824h-3.006l.414-1.44c.192-.624.372-1.263.54-1.917l.504-1.971h.072c.168.648.339 1.302.513 1.962.174.66.357 1.302.549 1.926l.414 1.44zm6.93 8.316V18.72l-.054-1.476c.36.312.732.552 1.116.72.384.168.768.252 1.152.252.492 0 .966-.108 1.422-.324a3.655 3.655 0 001.206-.927c.348-.402.627-.9.837-1.494.21-.594.315-1.269.315-2.025 0-.684-.078-1.302-.234-1.854a4.236 4.236 0 00-.684-1.422 3.042 3.042 0 00-1.089-.909c-.426-.21-.915-.315-1.467-.315-.492 0-.966.114-1.422.342-.456.228-.87.498-1.242.81h-.072l-.144-.936h-1.71v12.33h2.07zm1.782-4.986c-.264 0-.546-.054-.846-.162-.3-.108-.612-.3-.936-.576v-4.122c.672-.66 1.32-.99 1.944-.99.672 0 1.158.246 1.458.738.3.492.45 1.182.45 2.07 0 1.008-.198 1.767-.594 2.277-.396.51-.888.765-1.476.765zm8.37 4.986V18.72l-.054-1.476c.36.312.732.552 1.116.72.384.168.768.252 1.152.252.492 0 .966-.108 1.422-.324a3.655 3.655 0 001.206-.927c.348-.402.627-.9.837-1.494.21-.594.315-1.269.315-2.025 0-.684-.078-1.302-.234-1.854a4.236 4.236 0 00-.684-1.422 3.042 3.042 0 00-1.089-.909c-.426-.21-.915-.315-1.467-.315-.492 0-.966.114-1.422.342-.456.228-.87.498-1.242.81h-.072l-.144-.936h-1.71v12.33h2.07zm1.782-4.986c-.264 0-.546-.054-.846-.162-.3-.108-.612-.3-.936-.576v-4.122c.672-.66 1.32-.99 1.944-.99.672 0 1.158.246 1.458.738.3.492.45 1.182.45 2.07 0 1.008-.198 1.767-.594 2.277-.396.51-.888.765-1.476.765zm8.37 1.494v-5.4c.276-.672.606-1.143.99-1.413s.75-.405 1.098-.405c.192 0 .354.012.486.036.132.024.276.06.432.108l.36-1.8c-.252-.12-.588-.18-1.008-.18-.468 0-.924.153-1.368.459-.444.306-.822.747-1.134 1.323h-.072l-.144-1.566h-1.71V18h2.07zm8.082.216a4.25 4.25 0 001.593-.306 3.83 3.83 0 001.341-.9c.384-.396.693-.882.927-1.458.234-.576.351-1.23.351-1.962s-.117-1.386-.351-1.962a4.496 4.496 0 00-.927-1.458 3.936 3.936 0 00-1.341-.909 4.144 4.144 0 00-1.593-.315 4.078 4.078 0 00-2.925 1.224c-.39.396-.699.882-.927 1.458-.228.576-.342 1.23-.342 1.962s.114 1.386.342 1.962c.228.576.537 1.062.927 1.458.39.396.837.696 1.341.9a4.182 4.182 0 001.584.306zm0-1.692c-.648 0-1.155-.267-1.521-.801-.366-.534-.549-1.245-.549-2.133 0-.9.183-1.617.549-2.151.366-.534.873-.801 1.521-.801.648 0 1.158.267 1.53.801.372.534.558 1.251.558 2.151 0 .888-.186 1.599-.558 2.133-.372.534-.882.801-1.53.801zm8.334 4.968V18.72l-.054-1.476c.36.312.732.552 1.116.72.384.168.768.252 1.152.252.492 0 .966-.108 1.422-.324a3.655 3.655 0 001.206-.927c.348-.402.627-.9.837-1.494.21-.594.315-1.269.315-2.025 0-.684-.078-1.302-.234-1.854a4.236 4.236 0 00-.684-1.422 3.042 3.042 0 00-1.089-.909c-.426-.21-.915-.315-1.467-.315-.492 0-.966.114-1.422.342-.456.228-.87.498-1.242.81h-.072l-.144-.936h-1.71v12.33h2.07zm1.782-4.986c-.264 0-.546-.054-.846-.162-.3-.108-.612-.3-.936-.576v-4.122c.672-.66 1.32-.99 1.944-.99.672 0 1.158.246 1.458.738.3.492.45 1.182.45 2.07 0 1.008-.198 1.767-.594 2.277-.396.51-.888.765-1.476.765zm8.37 1.494v-5.4c.276-.672.606-1.143.99-1.413s.75-.405 1.098-.405c.192 0 .354.012.486.036.132.024.276.06.432.108l.36-1.8c-.252-.12-.588-.18-1.008-.18-.468 0-.924.153-1.368.459-.444.306-.822.747-1.134 1.323h-.072l-.144-1.566h-1.71V18h2.07zm5.688-10.386c.372 0 .678-.108.918-.324.24-.216.36-.498.36-.846s-.12-.633-.36-.855c-.24-.222-.546-.333-.918-.333s-.678.111-.918.333c-.24.222-.36.507-.36.855s.12.63.36.846c.24.216.546.324.918.324zM265.636 18V9.162h-2.07V18h2.07zm4.788.216a3.2 3.2 0 001.467-.342c.45-.228.873-.51 1.269-.846h.072l.144.972h1.71v-5.238c0-1.236-.273-2.181-.819-2.835-.546-.654-1.371-.981-2.475-.981-.708 0-1.368.114-1.98.342a8.854 8.854 0 00-1.656.81l.756 1.386c.396-.24.801-.444 1.215-.612a3.347 3.347 0 011.269-.252c.3 0 .552.045.756.135.204.09.369.216.495.378s.216.348.27.558c.054.21.087.429.099.657-.912.096-1.695.234-2.349.414-.654.18-1.194.402-1.62.666-.426.264-.738.579-.936.945a2.587 2.587 0 00-.297 1.251c0 .78.24 1.407.72 1.881s1.11.711 1.89.711zm.666-1.62c-.372 0-.678-.09-.918-.27-.24-.18-.36-.468-.36-.864 0-.216.054-.42.162-.612.108-.192.288-.363.54-.513a4.37 4.37 0 01.99-.405c.408-.12.912-.216 1.512-.288v1.98a5.267 5.267 0 01-.945.72 1.942 1.942 0 01-.981.252zm9.306 1.62c.348 0 .675-.033.981-.099a6.89 6.89 0 00.819-.225l-.36-1.53c-.132.06-.279.108-.441.144a2.195 2.195 0 01-.477.054c-.828 0-1.242-.516-1.242-1.548V10.8h2.25V9.162h-2.25V6.75h-1.728l-.252 2.412-1.368.09V10.8h1.26v4.212c0 .48.051.915.153 1.305.102.39.264.726.486 1.008.222.282.51.501.864.657.354.156.789.234 1.305.234zm4.428-10.602c.372 0 .678-.108.918-.324.24-.216.36-.498.36-.846s-.12-.633-.36-.855c-.24-.222-.546-.333-.918-.333s-.678.111-.918.333c-.24.222-.36.507-.36.855s.12.63.36.846c.24.216.546.324.918.324zM285.85 18V9.162h-2.07V18h2.07zm6.264.216a4.25 4.25 0 001.593-.306 3.83 3.83 0 001.341-.9c.384-.396.693-.882.927-1.458.234-.576.351-1.23.351-1.962s-.117-1.386-.351-1.962a4.496 4.496 0 00-.927-1.458 3.936 3.936 0 00-1.341-.909 4.144 4.144 0 00-1.593-.315 4.078 4.078 0 00-2.925 1.224c-.39.396-.699.882-.927 1.458-.228.576-.342 1.23-.342 1.962s.114 1.386.342 1.962c.228.576.537 1.062.927 1.458.39.396.837.696 1.341.9a4.182 4.182 0 001.584.306zm0-1.692c-.648 0-1.155-.267-1.521-.801-.366-.534-.549-1.245-.549-2.133 0-.9.183-1.617.549-2.151.366-.534.873-.801 1.521-.801.648 0 1.158.267 1.53.801.372.534.558 1.251.558 2.151 0 .888-.186 1.599-.558 2.133-.372.534-.882.801-1.53.801zM300.448 18v-6.174c.372-.36.705-.633.999-.819a1.861 1.861 0 011.017-.279c.492 0 .846.15 1.062.45.216.3.324.816.324 1.548V18h2.07v-5.544c0-1.128-.216-1.995-.648-2.601-.432-.606-1.122-.909-2.07-.909-.612 0-1.149.138-1.611.414a7.007 7.007 0 00-1.287.99h-.072l-.144-1.188h-1.71V18h2.07zm10.476.216c.552 0 1.044-.072 1.476-.216a3.2 3.2 0 001.08-.585 2.474 2.474 0 00.882-1.935c0-.408-.075-.759-.225-1.053a2.34 2.34 0 00-.594-.747 3.695 3.695 0 00-.819-.513c-.3-.138-.6-.261-.9-.369-.24-.084-.471-.168-.693-.252a4.123 4.123 0 01-.585-.27 1.417 1.417 0 01-.405-.333.706.706 0 01-.153-.459c0-.276.105-.507.315-.693.21-.186.537-.279.981-.279.348 0 .681.069.999.207.318.138.633.321.945.549l.954-1.26a6.165 6.165 0 00-1.278-.738 4.078 4.078 0 00-1.656-.324c-.996 0-1.782.246-2.358.738-.576.492-.864 1.128-.864 1.908 0 .372.075.693.225.963.15.27.342.507.576.711.234.204.501.378.801.522.3.144.594.27.882.378.228.096.456.189.684.279.228.09.432.189.612.297.18.108.324.231.432.369a.752.752 0 01.162.477.967.967 0 01-.342.765c-.228.198-.582.297-1.062.297-.456 0-.879-.087-1.269-.261a5.62 5.62 0 01-1.179-.729l-.972 1.332c.432.348.945.639 1.539.873a4.898 4.898 0 001.809.351zm16.542 1.764v-1.854c.9-.168 1.59-.543 2.07-1.125.48-.582.72-1.305.72-2.169 0-.6-.12-1.101-.36-1.503a3.52 3.52 0 00-.909-1.017 6.691 6.691 0 00-1.179-.711c-.42-.198-.813-.396-1.179-.594a4.062 4.062 0 01-.909-.648 1.191 1.191 0 01-.36-.891c0-.468.138-.825.414-1.071.276-.246.66-.369 1.152-.369.432 0 .804.081 1.116.243.312.162.636.399.972.711l1.062-1.206a5.88 5.88 0 00-1.125-.909c-.414-.258-.909-.423-1.485-.495v-1.8h-1.44v1.836c-.816.144-1.464.495-1.944 1.053-.48.558-.72 1.257-.72 2.097 0 .564.12 1.035.36 1.413.24.378.543.702.909.972s.759.504 1.179.702c.42.198.813.405 1.179.621.366.216.669.456.909.72.24.264.36.594.36.99 0 .492-.144.873-.432 1.143-.288.27-.726.405-1.314.405-.492 0-.954-.102-1.386-.306a6.488 6.488 0 01-1.278-.81l-.936 1.404c.408.384.891.693 1.449.927a5.962 5.962 0 001.665.441v1.8h1.44zm8.19-1.764c.552 0 1.071-.075 1.557-.225.486-.15.912-.366 1.278-.648a3.06 3.06 0 00.864-1.035c.21-.408.315-.876.315-1.404 0-.756-.225-1.374-.675-1.854-.45-.48-1.017-.81-1.701-.99v-.072c.624-.24 1.113-.576 1.467-1.008.354-.432.531-.972.531-1.62 0-.48-.09-.909-.27-1.287a2.67 2.67 0 00-.756-.954 3.35 3.35 0 00-1.17-.585 5.426 5.426 0 00-1.512-.198c-.684 0-1.305.132-1.863.396a6.775 6.775 0 00-1.575 1.044l1.062 1.278a5.238 5.238 0 011.071-.783 2.55 2.55 0 011.233-.297c.528 0 .942.135 1.242.405.3.27.45.645.45 1.125 0 .264-.051.51-.153.738-.102.228-.27.423-.504.585-.234.162-.54.288-.918.378-.378.09-.849.135-1.413.135v1.512c.648 0 1.188.045 1.62.135.432.09.777.219 1.035.387.258.168.441.372.549.612.108.24.162.51.162.81 0 .54-.195.963-.585 1.269-.39.306-.897.459-1.521.459-.576 0-1.086-.123-1.53-.369a5.306 5.306 0 01-1.188-.891l-.99 1.332c.408.456.924.84 1.548 1.152.624.312 1.404.468 2.34.468zm7.398 0c.384 0 .702-.132.954-.396s.378-.6.378-1.008c0-.408-.126-.744-.378-1.008a1.263 1.263 0 00-.954-.396c-.384 0-.705.132-.963.396s-.387.6-.387 1.008c0 .408.129.744.387 1.008s.579.396.963.396zm9.792-.216v-2.952h1.44v-1.602h-1.44V6.552h-2.466l-4.536 7.092v1.404h5.058V18h1.944zm-1.944-4.554h-3.006l2.088-3.186.486-.9c.156-.288.306-.582.45-.882h.072a37.997 37.997 0 00-.09 2.376v2.592zm8.478 4.77c.576 0 1.104-.078 1.584-.234a3.62 3.62 0 001.224-.657 3.03 3.03 0 00.783-.99c.186-.378.279-.789.279-1.233 0-.384-.054-.726-.162-1.026-.108-.3-.252-.57-.432-.81-.18-.24-.39-.453-.63-.639a5.646 5.646 0 00-.756-.495v-.072c.18-.132.363-.291.549-.477.186-.186.351-.39.495-.612.144-.222.261-.462.351-.72.09-.258.135-.531.135-.819 0-.468-.078-.891-.234-1.269a2.7 2.7 0 00-.675-.972 3.12 3.12 0 00-1.062-.63 4.074 4.074 0 00-1.395-.225c-.492 0-.951.072-1.377.216a3.255 3.255 0 00-1.098.612 2.826 2.826 0 00-.72.954 2.94 2.94 0 00-.261 1.26c0 .612.153 1.134.459 1.566.306.432.681.804 1.125 1.116v.072a5.117 5.117 0 00-.783.504 3.95 3.95 0 00-.657.648c-.192.24-.345.507-.459.801a2.693 2.693 0 00-.171.981c0 .468.099.894.297 1.278.198.384.468.714.81.99s.75.492 1.224.648c.474.156.993.234 1.557.234zm.756-6.678a9.012 9.012 0 01-.9-.387 4.445 4.445 0 01-.729-.45 1.847 1.847 0 01-.495-.567 1.532 1.532 0 01-.18-.756c0-.504.15-.891.45-1.161.3-.27.672-.405 1.116-.405.54 0 .957.165 1.251.495.294.33.441.747.441 1.251 0 .36-.081.702-.243 1.026a3.717 3.717 0 01-.711.954zm-.72 5.202c-.588 0-1.086-.171-1.494-.513-.408-.342-.612-.801-.612-1.377 0-.444.117-.846.351-1.206.234-.36.531-.672.891-.936.384.156.744.306 1.08.45.336.144.627.303.873.477s.441.372.585.594c.144.222.216.489.216.801 0 .54-.177.96-.531 1.26-.354.3-.807.45-1.359.45zm10.53 1.26V7.992h3.402V6.228h-8.892v1.764h3.402V18h2.088z" fill="#666" fill-rule="nonzero"/>
    <path d="M1 104V40h381v64" stroke="#D8D8D8" stroke-dasharray="3,3"/>
    <path stroke="#979797" stroke-width=".5" d="M1 107v-8h278v8"/>
    <path stroke="#979797" stroke-width=".5" stroke-linecap="square" d="M383 127.57l6-.14"/>
    <path d="M395.72 117v-7.032h2.376v-.84h-5.76v.84h2.376V117h1.008zm3.288 0l.756-2.4h2.868l.744 2.4h1.068l-2.664-7.872h-1.128L397.988 117h1.02zm3.372-3.204h-2.364l.372-1.2a44.773 44.773 0 00.78-2.652h.048c.128.456.256.902.384 1.338.128.436.264.874.408 1.314l.372 1.2zm3.384 3.204l1.14-2.124.3-.594c.104-.204.212-.426.324-.666h.048l.354.666c.108.204.214.402.318.594L409.4 117h1.104l-2.292-4.02 2.148-3.852h-1.056l-1.044 2.016c-.096.184-.186.362-.27.534l-.294.606h-.048c-.12-.232-.226-.434-.318-.606s-.19-.35-.294-.534l-1.068-2.016h-1.104l2.136 3.804-2.292 4.068h1.056zm-11.688 15v-3.324h1.428L397.4 132h1.128l-2.004-3.432c.544-.136.976-.388 1.296-.756.32-.368.48-.86.48-1.476 0-.408-.068-.752-.204-1.032a1.795 1.795 0 00-.57-.684 2.358 2.358 0 00-.876-.378 5.087 5.087 0 00-1.11-.114h-2.46V132h.996zm1.32-4.14h-1.32v-2.928h1.32c.616 0 1.088.104 1.416.312.328.208.492.572.492 1.092 0 .512-.164.894-.492 1.146-.328.252-.8.378-1.416.378zm9.168 4.14v-.852h-3.66v-2.856h2.988v-.852h-2.988v-2.472h3.54v-.84h-4.536V132h4.656zm6.108 0v-.852h-3.444v-7.02h-.996V132h4.44zm2.388 0v-7.872h-.996V132h.996zm6.816 0v-.852h-3.66v-2.856h2.988v-.852h-2.988v-2.472h3.54v-.84h-4.536V132h4.656zm2.664 0v-3.528h3v-.84h-3v-2.664h3.54v-.84h-4.536V132h.996zm-26.796 16.32v-1.248c.624-.136 1.092-.41 1.404-.822.312-.412.468-.906.468-1.482 0-.384-.078-.706-.234-.966a2.407 2.407 0 00-.588-.666 4.017 4.017 0 00-.762-.468 27.83 27.83 0 01-.762-.372 3.05 3.05 0 01-.588-.378.613.613 0 01-.234-.486c0-.272.076-.468.228-.588.152-.12.372-.18.66-.18.256 0 .484.05.684.15.2.1.408.25.624.45l.888-1.008a3.72 3.72 0 00-.78-.636 2.642 2.642 0 00-1.008-.348v-1.212h-1.164v1.236c-.568.112-1.014.362-1.338.75-.324.388-.486.878-.486 1.47 0 .36.078.664.234.912.156.248.352.464.588.648s.49.342.762.474c.272.132.526.264.762.396s.432.27.588.414c.156.144.234.32.234.528 0 .28-.078.488-.234.624-.156.136-.402.204-.738.204-.288 0-.57-.058-.846-.174a4.034 4.034 0 01-.87-.522l-.768 1.188c.28.256.614.462 1.002.618.388.156.758.254 1.11.294v1.2h1.164zm5.34-1.176c.4 0 .786-.082 1.158-.246.372-.164.7-.414.984-.75.284-.336.512-.764.684-1.284.172-.52.258-1.136.258-1.848 0-.672-.082-1.246-.246-1.722-.164-.476-.38-.866-.648-1.17a2.498 2.498 0 00-.924-.672 2.784 2.784 0 00-1.074-.216c-.344 0-.67.058-.978.174a2.28 2.28 0 00-.804.51c-.228.224-.41.494-.546.81a2.66 2.66 0 00-.204 1.062c0 .4.058.748.174 1.044.116.296.274.54.474.732.2.192.438.336.714.432.276.096.578.144.906.144.12 0 .248-.018.384-.054.136-.036.272-.088.408-.156.136-.068.268-.152.396-.252s.24-.214.336-.342a4.885 4.885 0 01-.15 1.122c-.084.3-.196.544-.336.732a1.21 1.21 0 01-.486.402 1.488 1.488 0 01-1.26-.042 1.692 1.692 0 01-.516-.378l-.936 1.056c.24.24.546.452.918.636s.81.276 1.314.276zm.276-4.248a1.07 1.07 0 01-.72-.246c-.192-.164-.288-.45-.288-.858 0-.432.096-.746.288-.942a.912.912 0 01.672-.294c.272 0 .518.114.738.342.22.228.37.642.45 1.242-.152.272-.33.466-.534.582a1.219 1.219 0 01-.606.174zm6.48 4.248c.408 0 .78-.086 1.116-.258.336-.172.622-.426.858-.762s.42-.752.552-1.248c.132-.496.198-1.068.198-1.716 0-.648-.066-1.216-.198-1.704s-.316-.898-.552-1.23a2.269 2.269 0 00-.858-.744 2.51 2.51 0 00-1.116-.246c-.408 0-.78.082-1.116.246a2.269 2.269 0 00-.858.744c-.236.332-.42.742-.552 1.23-.132.488-.198 1.056-.198 1.704 0 .648.066 1.22.198 1.716s.316.912.552 1.248c.236.336.522.59.858.762.336.172.708.258 1.116.258zm0-1.368a.786.786 0 01-.408-.114c-.128-.076-.24-.214-.336-.414a3.059 3.059 0 01-.228-.804 8.053 8.053 0 01-.084-1.284c0-.52.028-.946.084-1.278.056-.332.132-.592.228-.78.096-.188.208-.318.336-.39a.842.842 0 01.828 0c.128.072.24.202.336.39.096.188.17.448.222.78.052.332.078.758.078 1.278s-.026.948-.078 1.284a2.931 2.931 0 01-.222.804c-.096.2-.208.338-.336.414a.808.808 0 01-.42.114zm8.976 1.224v-1.488h-1.536c-.184 0-.394.01-.63.03-.236.02-.45.042-.642.066.312-.32.614-.646.906-.978.292-.332.552-.664.78-.996.228-.332.41-.664.546-.996a2.63 2.63 0 00.024-1.974 2.144 2.144 0 00-.516-.762 2.352 2.352 0 00-.798-.492 2.891 2.891 0 00-1.026-.174c-.544 0-1.012.102-1.404.306-.392.204-.776.506-1.152.906l.96.948c.192-.208.396-.39.612-.546.216-.156.464-.234.744-.234.336 0 .6.098.792.294.192.196.288.482.288.858 0 .272-.082.558-.246.858-.164.3-.392.624-.684.972-.292.348-.64.72-1.044 1.116-.404.396-.85.822-1.338 1.278V147h5.364zm4.356 0c.424 0 .82-.046 1.188-.138.368-.092.69-.232.966-.42.276-.188.492-.426.648-.714.156-.288.234-.632.234-1.032 0-.264-.036-.498-.108-.702a1.696 1.696 0 00-.744-.912 1.972 1.972 0 00-.552-.222v-.048c.16-.056.302-.144.426-.264.124-.12.23-.256.318-.408a2.058 2.058 0 00.276-1.02c0-.376-.074-.688-.222-.936a1.693 1.693 0 00-.612-.6 2.702 2.702 0 00-.912-.318 6.685 6.685 0 00-1.134-.09h-2.676V147h2.904zm-.312-4.692h-.828v-1.764h.84c.416 0 .724.064.924.192.2.128.3.344.3.648a.84.84 0 01-.294.672c-.196.168-.51.252-.942.252zm.168 3.324h-.996v-2.016h.996c.488 0 .852.074 1.092.222.24.148.36.394.36.738 0 .704-.484 1.056-1.452 1.056z" fill="#666" fill-rule="nonzero"/>
    <g fill="#6F41A7">
      <path d="M225.543 107H279v40h-53.457zM5.126 107h218.953v40H5.126zM2.197 107h1.465v40H2.197zM0 107h1v40H0z"/>
    </g>
    <use stroke="#979797" mask="url(#b)" stroke-width="2" fill="#D8D8D8" opacity=".776" stroke-linecap="round" stroke-linejoin="round" stroke-dasharray="4,3" transform="rotate(90 333 127.5)" xlink:href="#a"/>
    <path stroke="#D8D8D8" stroke-linecap="round" stroke-linejoin="round" stroke-dasharray="3,3" d="M191.5 38.5v-12"/>
    <path stroke="#979797" stroke-width=".5" stroke-linecap="square" d="M139.5 98v-8"/>
  </g>
</svg>