<?xml version="1.0" encoding="UTF-8"?>
<svg width="266px" height="135px" viewBox="0 0 266 135" version="1.1" xmlns="http://www.w3.org/2000/svg" xmlns:xlink="http://www.w3.org/1999/xlink" role="img">
    <desc>Viz 1 C mobile placeholder alt text</desc>
    <defs>
        <polygon id="path-1" points="88 96 128 96 128 134 88 134"></polygon>
        <mask id="mask-2" maskContentUnits="userSpaceOnUse" maskUnits="objectBoundingBox" x="0" y="0" width="40" height="38" fill="white">
            <use xlink:href="#path-1"></use>
        </mask>
        <polygon id="path-3" points="176.5 47.5 216.5 47.5 216.5 182.5 176.5 182.5"></polygon>
        <mask id="mask-4" maskContentUnits="userSpaceOnUse" maskUnits="objectBoundingBox" x="0" y="0" width="40" height="135" fill="white">
            <use xlink:href="#path-3"></use>
        </mask>
    </defs>
    <g id="SVG-Outlines" stroke="none" stroke-width="1" fill="none" fill-rule="evenodd">
        <g id="Desktop-HD-Copy" transform="translate(0.000000, -667.000000)">
            <g id="V3" transform="translate(1.000000, 667.000000)">
                <use id="Rectangle-Copy-23" stroke="#979797" mask="url(#mask-2)" stroke-width="2" fill="#D8D8D8" opacity="0.776204427" stroke-linecap="round" stroke-linejoin="round" stroke-dasharray="4,3" transform="translate(108.000000, 115.000000) rotate(90.000000) translate(-108.000000, -115.000000) " xlink:href="#path-1"></use>
                <path d="M11.948,44.016 L11.948,39.9 C11.948,39.484 11.934,39.07 11.906,38.658 C11.878,38.246 11.848,37.84 11.816,37.44 L11.816,37.44 L11.864,37.44 L12.716,39.06 L15.572,44.016 L16.604,44.016 L16.604,36.144 L15.656,36.144 L15.656,40.212 C15.656,40.628 15.67,41.05 15.698,41.478 C15.726,41.906 15.752,42.32 15.776,42.72 L15.776,42.72 L15.728,42.72 L14.876,41.088 L12.032,36.144 L11,36.144 L11,44.016 L11.948,44.016 Z M23.42,44.016 L23.42,43.164 L19.76,43.164 L19.76,40.308 L22.748,40.308 L22.748,39.456 L19.76,39.456 L19.76,36.984 L23.3,36.984 L23.3,36.144 L18.764,36.144 L18.764,44.016 L23.42,44.016 Z M27.14,44.016 L28.304,39.276 C28.368,38.972 28.434,38.674 28.502,38.382 C28.57,38.09 28.636,37.792 28.7,37.488 L28.7,37.488 L28.748,37.488 C28.812,37.792 28.874,38.09 28.934,38.382 C28.994,38.674 29.06,38.972 29.132,39.276 L29.132,39.276 L30.32,44.016 L31.52,44.016 L33.152,36.144 L32.192,36.144 L31.364,40.428 C31.284,40.852 31.208,41.274 31.136,41.694 C31.064,42.114 30.992,42.54 30.92,42.972 L30.92,42.972 L30.872,42.972 C30.776,42.54 30.68,42.112 30.584,41.688 C30.488,41.264 30.392,40.844 30.296,40.428 L30.296,40.428 L29.204,36.144 L28.292,36.144 L27.2,40.428 C27.112,40.852 27.02,41.274 26.924,41.694 C26.828,42.114 26.736,42.54 26.648,42.972 L26.648,42.972 L26.6,42.972 C26.528,42.54 26.452,42.116 26.372,41.7 L26.255,41.07 L26.255,41.07 L26.144,40.428 L25.316,36.144 L24.284,36.144 L25.952,44.016 L27.14,44.016 Z M36.896,44.016 L37.652,41.616 L40.52,41.616 L41.264,44.016 L42.332,44.016 L39.668,36.144 L38.54,36.144 L35.876,44.016 L36.896,44.016 Z M40.268,40.812 L37.904,40.812 L38.276,39.612 C38.42,39.172 38.556,38.734 38.684,38.298 C38.812,37.862 38.936,37.416 39.056,36.96 L39.056,36.96 L39.104,36.96 C39.232,37.416 39.36,37.862 39.488,38.298 C39.616,38.734 39.752,39.172 39.896,39.612 L39.896,39.612 L40.268,40.812 Z M46.424,44.16 C46.952,44.16 47.424,44.074 47.84,43.902 C48.256,43.73 48.592,43.512 48.848,43.248 L48.848,43.248 L48.848,39.936 L46.268,39.936 L46.268,40.764 L47.936,40.764 L47.936,42.816 C47.776,42.96 47.57,43.074 47.318,43.158 C47.066,43.242 46.8,43.284 46.52,43.284 C46.096,43.284 45.722,43.208 45.398,43.056 C45.074,42.904 44.802,42.688 44.582,42.408 C44.362,42.128 44.194,41.79 44.078,41.394 C43.962,40.998 43.904,40.552 43.904,40.056 C43.904,39.568 43.966,39.128 44.09,38.736 C44.214,38.344 44.388,38.01 44.612,37.734 C44.836,37.458 45.108,37.246 45.428,37.098 C45.748,36.95 46.108,36.876 46.508,36.876 C46.908,36.876 47.24,36.948 47.504,37.092 C47.768,37.236 48,37.412 48.2,37.62 L48.2,37.62 L48.752,36.972 C48.64,36.852 48.51,36.734 48.362,36.618 C48.214,36.502 48.046,36.398 47.858,36.306 C47.67,36.214 47.462,36.14 47.234,36.084 C47.006,36.028 46.756,36 46.484,36 C45.964,36 45.482,36.094 45.038,36.282 C44.594,36.47 44.212,36.74 43.892,37.092 C43.572,37.444 43.322,37.872 43.142,38.376 C42.962,38.88 42.872,39.448 42.872,40.08 C42.872,40.72 42.96,41.294 43.136,41.802 C43.312,42.31 43.556,42.738 43.868,43.086 C44.18,43.434 44.554,43.7 44.99,43.884 C45.426,44.068 45.904,44.16 46.424,44.16 Z M55.388,44.016 L55.388,43.164 L51.728,43.164 L51.728,40.308 L54.716,40.308 L54.716,39.456 L51.728,39.456 L51.728,36.984 L55.268,36.984 L55.268,36.144 L50.732,36.144 L50.732,44.016 L55.388,44.016 Z M58.004,44.016 L58.004,39.9 C58.004,39.484 57.99,39.07 57.962,38.658 C57.934,38.246 57.904,37.84 57.872,37.44 L57.872,37.44 L57.92,37.44 L58.772,39.06 L61.628,44.016 L62.66,44.016 L62.66,36.144 L61.712,36.144 L61.712,40.212 C61.712,40.628 61.726,41.05 61.754,41.478 C61.782,41.906 61.808,42.32 61.832,42.72 L61.832,42.72 L61.784,42.72 L60.932,41.088 L58.088,36.144 L57.056,36.144 L57.056,44.016 L58.004,44.016 Z M67.796,44.16 C68.308,44.16 68.76,44.06 69.152,43.86 C69.544,43.66 69.896,43.38 70.208,43.02 L70.208,43.02 L69.656,42.396 C69.4,42.676 69.128,42.894 68.84,43.05 C68.552,43.206 68.216,43.284 67.832,43.284 C67.456,43.284 67.118,43.208 66.818,43.056 C66.518,42.904 66.264,42.688 66.056,42.408 C65.848,42.128 65.686,41.79 65.57,41.394 C65.454,40.998 65.396,40.552 65.396,40.056 C65.396,39.568 65.454,39.128 65.57,38.736 C65.686,38.344 65.852,38.01 66.068,37.734 C66.284,37.458 66.544,37.246 66.848,37.098 C67.152,36.95 67.492,36.876 67.868,36.876 C68.204,36.876 68.504,36.944 68.768,37.08 C69.032,37.216 69.268,37.396 69.476,37.62 L69.476,37.62 L70.016,36.972 C69.784,36.716 69.486,36.49 69.122,36.294 C68.758,36.098 68.336,36 67.856,36 C67.352,36 66.888,36.094 66.464,36.282 C66.04,36.47 65.672,36.74 65.36,37.092 C65.048,37.444 64.804,37.872 64.628,38.376 C64.452,38.88 64.364,39.448 64.364,40.08 C64.364,40.72 64.45,41.294 64.622,41.802 C64.794,42.31 65.034,42.738 65.342,43.086 C65.65,43.434 66.012,43.7 66.428,43.884 C66.844,44.068 67.3,44.16 67.796,44.16 Z M73.868,44.016 L73.868,40.968 L76.232,36.144 L75.188,36.144 L74.18,38.364 C74.06,38.652 73.932,38.936 73.796,39.216 C73.66,39.496 73.524,39.784 73.388,40.08 L73.388,40.08 L73.34,40.08 C73.204,39.784 73.076,39.496 72.956,39.216 C72.836,38.936 72.712,38.652 72.584,38.364 L72.584,38.364 L71.564,36.144 L70.496,36.144 L72.86,40.968 L72.86,44.016 L73.868,44.016 Z M21.578,59.016 L21.578,55.488 L24.578,55.488 L24.578,54.648 L21.578,54.648 L21.578,51.984 L25.118,51.984 L25.118,51.144 L20.582,51.144 L20.582,59.016 L21.578,59.016 Z M29.306,59.16 C29.706,59.16 30.078,59.102 30.422,58.986 C30.766,58.87 31.064,58.678 31.316,58.41 C31.568,58.142 31.766,57.792 31.91,57.36 C32.054,56.928 32.126,56.396 32.126,55.764 L32.126,55.764 L32.126,51.144 L31.166,51.144 L31.166,55.788 C31.166,56.26 31.118,56.656 31.022,56.976 C30.926,57.296 30.794,57.552 30.626,57.744 C30.458,57.936 30.262,58.074 30.038,58.158 C29.814,58.242 29.57,58.284 29.306,58.284 C29.05,58.284 28.81,58.242 28.586,58.158 C28.362,58.074 28.168,57.936 28.004,57.744 C27.84,57.552 27.71,57.296 27.614,56.976 C27.518,56.656 27.47,56.26 27.47,55.788 L27.47,55.788 L27.47,51.144 L26.474,51.144 L26.474,55.764 C26.474,56.396 26.546,56.928 26.69,57.36 C26.834,57.792 27.032,58.142 27.284,58.41 C27.536,58.678 27.836,58.87 28.184,58.986 C28.532,59.102 28.906,59.16 29.306,59.16 Z M35.198,59.016 L35.198,54.9 C35.198,54.484 35.184,54.07 35.156,53.658 C35.128,53.246 35.098,52.84 35.066,52.44 L35.066,52.44 L35.114,52.44 L35.966,54.06 L38.822,59.016 L39.854,59.016 L39.854,51.144 L38.906,51.144 L38.906,55.212 C38.906,55.628 38.92,56.05 38.948,56.478 C38.976,56.906 39.002,57.32 39.026,57.72 L39.026,57.72 L38.978,57.72 L38.126,56.088 L35.282,51.144 L34.25,51.144 L34.25,59.016 L35.198,59.016 Z M44.03,59.016 C44.622,59.016 45.146,58.926 45.602,58.746 C46.058,58.566 46.442,58.306 46.754,57.966 C47.066,57.626 47.302,57.21 47.462,56.718 C47.622,56.226 47.702,55.668 47.702,55.044 C47.702,53.788 47.386,52.824 46.754,52.152 C46.122,51.48 45.198,51.144 43.982,51.144 L43.982,51.144 L42.014,51.144 L42.014,59.016 L44.03,59.016 Z M43.91,58.2 L43.01,58.2 L43.01,51.96 L43.91,51.96 C44.83,51.96 45.52,52.224 45.98,52.752 C46.44,53.28 46.67,54.044 46.67,55.044 C46.67,56.044 46.44,56.82 45.98,57.372 C45.52,57.924 44.83,58.2 43.91,58.2 L43.91,58.2 Z M50.39,59.016 L50.39,51.144 L49.394,51.144 L49.394,59.016 L50.39,59.016 Z M53.498,59.016 L53.498,54.9 C53.498,54.484 53.484,54.07 53.456,53.658 C53.428,53.246 53.398,52.84 53.366,52.44 L53.366,52.44 L53.414,52.44 L54.266,54.06 L57.122,59.016 L58.154,59.016 L58.154,51.144 L57.206,51.144 L57.206,55.212 C57.206,55.628 57.22,56.05 57.248,56.478 C57.276,56.906 57.302,57.32 57.326,57.72 L57.326,57.72 L57.278,57.72 L56.426,56.088 L53.582,51.144 L52.55,51.144 L52.55,59.016 L53.498,59.016 Z M63.41,59.16 C63.938,59.16 64.41,59.074 64.826,58.902 C65.242,58.73 65.578,58.512 65.834,58.248 L65.834,58.248 L65.834,54.936 L63.254,54.936 L63.254,55.764 L64.922,55.764 L64.922,57.816 C64.762,57.96 64.556,58.074 64.304,58.158 C64.052,58.242 63.786,58.284 63.506,58.284 C63.082,58.284 62.708,58.208 62.384,58.056 C62.06,57.904 61.788,57.688 61.568,57.408 C61.348,57.128 61.18,56.79 61.064,56.394 C60.948,55.998 60.89,55.552 60.89,55.056 C60.89,54.568 60.952,54.128 61.076,53.736 C61.2,53.344 61.374,53.01 61.598,52.734 C61.822,52.458 62.094,52.246 62.414,52.098 C62.734,51.95 63.094,51.876 63.494,51.876 C63.894,51.876 64.226,51.948 64.49,52.092 C64.754,52.236 64.986,52.412 65.186,52.62 L65.186,52.62 L65.738,51.972 C65.626,51.852 65.496,51.734 65.348,51.618 C65.2,51.502 65.032,51.398 64.844,51.306 C64.656,51.214 64.448,51.14 64.22,51.084 C63.992,51.028 63.742,51 63.47,51 C62.95,51 62.468,51.094 62.024,51.282 C61.58,51.47 61.198,51.74 60.878,52.092 C60.558,52.444 60.308,52.872 60.128,53.376 C59.948,53.88 59.858,54.448 59.858,55.08 C59.858,55.72 59.946,56.294 60.122,56.802 C60.298,57.31 60.542,57.738 60.854,58.086 C61.166,58.434 61.54,58.7 61.976,58.884 C62.412,59.068 62.89,59.16 63.41,59.16 Z M29.006,75.336 L29.006,74.088 C29.63,73.952 30.098,73.678 30.41,73.266 C30.722,72.854 30.878,72.36 30.878,71.784 C30.878,71.4 30.8,71.078 30.644,70.818 C30.488,70.558 30.292,70.336 30.056,70.152 C29.82,69.968 29.566,69.812 29.294,69.684 C29.022,69.556 28.768,69.432 28.532,69.312 C28.296,69.192 28.1,69.066 27.944,68.934 C27.788,68.802 27.71,68.64 27.71,68.448 C27.71,68.176 27.786,67.98 27.938,67.86 C28.09,67.74 28.31,67.68 28.598,67.68 C28.854,67.68 29.082,67.73 29.282,67.83 C29.482,67.93 29.69,68.08 29.906,68.28 L29.906,68.28 L30.794,67.272 C30.562,67.024 30.302,66.812 30.014,66.636 C29.726,66.46 29.39,66.344 29.006,66.288 L29.006,66.288 L29.006,65.076 L27.842,65.076 L27.842,66.312 C27.274,66.424 26.828,66.674 26.504,67.062 C26.18,67.45 26.018,67.94 26.018,68.532 C26.018,68.892 26.096,69.196 26.252,69.444 C26.408,69.692 26.604,69.908 26.84,70.092 C27.076,70.276 27.33,70.434 27.602,70.566 C27.874,70.698 28.128,70.83 28.364,70.962 C28.6,71.094 28.796,71.232 28.952,71.376 C29.108,71.52 29.186,71.696 29.186,71.904 C29.186,72.184 29.108,72.392 28.952,72.528 C28.796,72.664 28.55,72.732 28.214,72.732 C27.926,72.732 27.644,72.674 27.368,72.558 C27.092,72.442 26.802,72.268 26.498,72.036 L26.498,72.036 L25.73,73.224 C26.01,73.48 26.344,73.686 26.732,73.842 C27.12,73.998 27.49,74.096 27.842,74.136 L27.842,74.136 L27.842,75.336 L29.006,75.336 Z M37.406,74.016 L37.406,72.528 L35.87,72.528 C35.686,72.528 35.476,72.538 35.24,72.558 C35.004,72.578 34.79,72.6 34.598,72.624 C34.91,72.304 35.212,71.978 35.504,71.646 C35.796,71.314 36.056,70.982 36.284,70.65 C36.512,70.318 36.694,69.986 36.83,69.654 C36.966,69.322 37.034,68.996 37.034,68.676 C37.034,68.308 36.974,67.976 36.854,67.68 C36.734,67.384 36.562,67.13 36.338,66.918 C36.114,66.706 35.848,66.542 35.54,66.426 C35.232,66.31 34.89,66.252 34.514,66.252 C33.97,66.252 33.502,66.354 33.11,66.558 C32.718,66.762 32.334,67.064 31.958,67.464 L31.958,67.464 L32.918,68.412 C33.11,68.204 33.314,68.022 33.53,67.866 C33.746,67.71 33.994,67.632 34.274,67.632 C34.61,67.632 34.874,67.73 35.066,67.926 C35.258,68.122 35.354,68.408 35.354,68.784 C35.354,69.056 35.272,69.342 35.108,69.642 C34.944,69.942 34.716,70.266 34.424,70.614 C34.132,70.962 33.784,71.334 33.38,71.73 C32.976,72.126 32.53,72.552 32.042,73.008 L32.042,73.008 L32.042,74.016 L37.406,74.016 Z M39.734,74.16 C40.038,74.16 40.292,74.054 40.496,73.842 C40.7,73.63 40.802,73.368 40.802,73.056 C40.802,72.736 40.7,72.47 40.496,72.258 C40.292,72.046 40.038,71.94 39.734,71.94 C39.43,71.94 39.176,72.046 38.972,72.258 C38.768,72.47 38.666,72.736 38.666,73.056 C38.666,73.368 38.768,73.63 38.972,73.842 C39.176,74.054 39.43,74.16 39.734,74.16 Z M44.498,74.16 C44.866,74.16 45.22,74.1 45.56,73.98 C45.9,73.86 46.198,73.686 46.454,73.458 C46.71,73.23 46.914,72.952 47.066,72.624 C47.218,72.296 47.294,71.92 47.294,71.496 C47.294,71.088 47.23,70.736 47.102,70.44 C46.974,70.144 46.798,69.9 46.574,69.708 C46.35,69.516 46.092,69.372 45.8,69.276 C45.508,69.18 45.198,69.132 44.87,69.132 C44.71,69.132 44.564,69.146 44.432,69.174 C44.3,69.202 44.162,69.248 44.018,69.312 L44.018,69.312 L44.15,67.884 L46.946,67.884 L46.946,66.396 L42.626,66.396 L42.41,70.248 L43.202,70.752 C43.314,70.68 43.416,70.62 43.508,70.572 C43.6,70.524 43.688,70.484 43.772,70.452 C43.856,70.42 43.942,70.398 44.03,70.386 C44.118,70.374 44.218,70.368 44.33,70.368 C44.69,70.368 44.98,70.468 45.2,70.668 C45.42,70.868 45.53,71.16 45.53,71.544 C45.53,71.936 45.414,72.232 45.182,72.432 C44.95,72.632 44.638,72.732 44.246,72.732 C43.918,72.732 43.62,72.658 43.352,72.51 C43.084,72.362 42.834,72.184 42.602,71.976 L42.602,71.976 L41.81,73.092 C42.114,73.396 42.482,73.65 42.914,73.854 C43.346,74.058 43.874,74.16 44.498,74.16 Z M51.026,74.16 C51.434,74.16 51.804,74.106 52.136,73.998 C52.468,73.89 52.752,73.742 52.988,73.554 C53.224,73.366 53.406,73.144 53.534,72.888 C53.662,72.632 53.726,72.352 53.726,72.048 C53.726,71.544 53.598,71.136 53.342,70.824 C53.086,70.512 52.774,70.256 52.406,70.056 L52.406,70.056 L52.406,70.008 C52.67,69.832 52.902,69.602 53.102,69.318 C53.302,69.034 53.402,68.708 53.402,68.34 C53.402,68.028 53.346,67.742 53.234,67.482 C53.122,67.222 52.966,67.002 52.766,66.822 C52.566,66.642 52.322,66.502 52.034,66.402 C51.746,66.302 51.43,66.252 51.086,66.252 C50.734,66.252 50.408,66.3 50.108,66.396 C49.808,66.492 49.55,66.632 49.334,66.816 C49.118,67 48.95,67.222 48.83,67.482 C48.71,67.742 48.65,68.032 48.65,68.352 C48.65,68.76 48.746,69.106 48.938,69.39 C49.13,69.674 49.374,69.928 49.67,70.152 L49.67,70.152 L49.67,70.2 C49.31,70.392 49.004,70.636 48.752,70.932 C48.5,71.228 48.374,71.608 48.374,72.072 C48.374,72.384 48.44,72.668 48.572,72.924 C48.704,73.18 48.888,73.4 49.124,73.584 C49.36,73.768 49.64,73.91 49.964,74.01 C50.288,74.11 50.642,74.16 51.026,74.16 Z M51.506,69.576 C51.114,69.424 50.798,69.26 50.558,69.084 C50.318,68.908 50.198,68.664 50.198,68.352 C50.198,68.056 50.282,67.836 50.45,67.692 C50.618,67.548 50.818,67.476 51.05,67.476 C51.338,67.476 51.564,67.566 51.728,67.746 C51.892,67.926 51.974,68.164 51.974,68.46 C51.974,68.844 51.818,69.216 51.506,69.576 Z M51.062,72.936 C50.742,72.936 50.466,72.842 50.234,72.654 C50.002,72.466 49.886,72.204 49.886,71.868 C49.886,71.636 49.942,71.416 50.054,71.208 C50.166,71 50.306,70.816 50.474,70.656 C50.714,70.76 50.932,70.856 51.128,70.944 C51.324,71.032 51.494,71.126 51.638,71.226 C51.782,71.326 51.892,71.436 51.968,71.556 C52.044,71.676 52.082,71.82 52.082,71.988 C52.082,72.308 51.986,72.546 51.794,72.702 C51.602,72.858 51.358,72.936 51.062,72.936 Z M58.43,74.016 L58.43,67.68 L60.578,67.68 L60.578,66.192 L54.506,66.192 L54.506,67.68 L56.654,67.68 L56.654,74.016 L58.43,74.016 Z" id="NEWAGENCYFUNDING$2.58T" fill="#666666" fill-rule="nonzero"></path>
                <path d="M12.88,11.936 L12.88,3.04 L15.904,3.04 L15.904,1.472 L8,1.472 L8,3.04 L11.024,3.04 L11.024,11.936 L12.88,11.936 Z M19.568,12.128 C20.0586667,12.128 20.5306667,12.0373333 20.984,11.856 C21.4373333,11.6746667 21.8346667,11.408 22.176,11.056 C22.5173333,10.704 22.792,10.272 23,9.76 C23.208,9.248 23.312,8.66666667 23.312,8.016 C23.312,7.36533333 23.208,6.784 23,6.272 C22.792,5.76 22.5173333,5.328 22.176,4.976 C21.8346667,4.624 21.4373333,4.35466667 20.984,4.168 C20.5306667,3.98133333 20.0586667,3.888 19.568,3.888 C19.0773333,3.888 18.608,3.98133333 18.16,4.168 C17.712,4.35466667 17.3146667,4.624 16.968,4.976 C16.6213333,5.328 16.3466667,5.76 16.144,6.272 C15.9413333,6.784 15.84,7.36533333 15.84,8.016 C15.84,8.66666667 15.9413333,9.248 16.144,9.76 C16.3466667,10.272 16.6213333,10.704 16.968,11.056 C17.3146667,11.408 17.712,11.6746667 18.16,11.856 C18.608,12.0373333 19.0773333,12.128 19.568,12.128 Z M19.568,10.624 C18.992,10.624 18.5413333,10.3866667 18.216,9.912 C17.8906667,9.43733333 17.728,8.80533333 17.728,8.016 C17.728,7.216 17.8906667,6.57866667 18.216,6.104 C18.5413333,5.62933333 18.992,5.392 19.568,5.392 C20.144,5.392 20.5973333,5.62933333 20.928,6.104 C21.2586667,6.57866667 21.424,7.216 21.424,8.016 C21.424,8.80533333 21.2586667,9.43733333 20.928,9.912 C20.5973333,10.3866667 20.144,10.624 19.568,10.624 Z M27.552,12.128 C27.8613333,12.128 28.152,12.0986667 28.424,12.04 C28.696,11.9813333 28.9386667,11.9146667 29.152,11.84 L29.152,11.84 L28.832,10.48 C28.7146667,10.5333333 28.584,10.576 28.44,10.608 C28.296,10.64 28.1546667,10.656 28.016,10.656 C27.28,10.656 26.912,10.1973333 26.912,9.28 L26.912,9.28 L26.912,5.536 L28.912,5.536 L28.912,4.08 L26.912,4.08 L26.912,1.936 L25.376,1.936 L25.152,4.08 L23.936,4.16 L23.936,5.536 L25.056,5.536 L25.056,9.28 C25.056,9.70666667 25.1013333,10.0933333 25.192,10.44 C25.2826667,10.7866667 25.4266667,11.0853333 25.624,11.336 C25.8213333,11.5866667 26.0773333,11.7813333 26.392,11.92 C26.7066667,12.0586667 27.0933333,12.128 27.552,12.128 Z M32.128,12.128 C32.5973333,12.128 33.032,12.0266667 33.432,11.824 C33.832,11.6213333 34.208,11.3706667 34.56,11.072 L34.56,11.072 L34.624,11.072 L34.752,11.936 L36.272,11.936 L36.272,7.28 C36.272,6.18133333 36.0293333,5.34133333 35.544,4.76 C35.0586667,4.17866667 34.3253333,3.888 33.344,3.888 C32.7146667,3.888 32.128,3.98933333 31.584,4.192 C31.04,4.39466667 30.5493333,4.63466667 30.112,4.912 L30.112,4.912 L30.784,6.144 C31.136,5.93066667 31.496,5.74933333 31.864,5.6 C32.232,5.45066667 32.608,5.376 32.992,5.376 C33.2586667,5.376 33.4826667,5.416 33.664,5.496 C33.8453333,5.576 33.992,5.688 34.104,5.832 C34.216,5.976 34.296,6.14133333 34.344,6.328 C34.392,6.51466667 34.4213333,6.70933333 34.432,6.912 C33.6213333,6.99733333 32.9253333,7.12 32.344,7.28 C31.7626667,7.44 31.2826667,7.63733333 30.904,7.872 C30.5253333,8.10666667 30.248,8.38666667 30.072,8.712 C29.896,9.03733333 29.808,9.408 29.808,9.824 C29.808,10.5173333 30.0213333,11.0746667 30.448,11.496 C30.8746667,11.9173333 31.4346667,12.128 32.128,12.128 Z M32.72,10.688 C32.3893333,10.688 32.1173333,10.608 31.904,10.448 C31.6906667,10.288 31.584,10.032 31.584,9.68 C31.584,9.488 31.632,9.30666667 31.728,9.136 C31.824,8.96533333 31.984,8.81333333 32.208,8.68 C32.432,8.54666667 32.7253333,8.42666667 33.088,8.32 C33.4506667,8.21333333 33.8986667,8.128 34.432,8.064 L34.432,8.064 L34.432,9.824 C34.1333333,10.1013333 33.8533333,10.3146667 33.592,10.464 C33.3306667,10.6133333 33.04,10.688 32.72,10.688 Z M40.272,12.128 C40.6773333,12.128 41.0026667,12.0746667 41.248,11.968 L41.248,11.968 L41.008,10.592 C40.9333333,10.6133333 40.8773333,10.624 40.84,10.624 L40.84,10.624 L40.72,10.624 C40.624,10.624 40.5333333,10.5786667 40.448,10.488 C40.3626667,10.3973333 40.32,10.24 40.32,10.016 L40.32,10.016 L40.32,0.64 L38.48,0.64 L38.48,9.92 C38.48,10.6026667 38.6133333,11.1413333 38.88,11.536 C39.1466667,11.9306667 39.6106667,12.128 40.272,12.128 Z M52.64,11.936 L52.64,10.368 L48.032,10.368 L48.032,7.28 L51.792,7.28 L51.792,5.712 L48.032,5.712 L48.032,3.04 L52.48,3.04 L52.48,1.472 L46.176,1.472 L46.176,11.936 L52.64,11.936 Z M56.816,12.128 C57.3066667,12.128 57.744,12.064 58.128,11.936 C58.512,11.808 58.832,11.6346667 59.088,11.416 C59.344,11.1973333 59.5386667,10.9413333 59.672,10.648 C59.8053333,10.3546667 59.872,10.0373333 59.872,9.696 C59.872,9.33333333 59.8053333,9.02133333 59.672,8.76 C59.5386667,8.49866667 59.3626667,8.27733333 59.144,8.096 C58.9253333,7.91466667 58.6826667,7.76266667 58.416,7.64 C58.1493333,7.51733333 57.8826667,7.408 57.616,7.312 C57.4026667,7.23733333 57.1973333,7.16266667 57,7.088 C56.8026667,7.01333333 56.6293333,6.93333333 56.48,6.848 C56.3306667,6.76266667 56.2106667,6.664 56.12,6.552 C56.0293333,6.44 55.984,6.304 55.984,6.144 C55.984,5.89866667 56.0773333,5.69333333 56.264,5.528 C56.4506667,5.36266667 56.7413333,5.28 57.136,5.28 C57.4453333,5.28 57.7413333,5.34133333 58.024,5.464 C58.3066667,5.58666667 58.5866667,5.74933333 58.864,5.952 L58.864,5.952 L59.712,4.832 C59.392,4.58666667 59.0133333,4.368 58.576,4.176 C58.1386667,3.984 57.648,3.888 57.104,3.888 C56.2186667,3.888 55.52,4.10666667 55.008,4.544 C54.496,4.98133333 54.24,5.54666667 54.24,6.24 C54.24,6.57066667 54.3066667,6.856 54.44,7.096 C54.5733333,7.336 54.744,7.54666667 54.952,7.728 C55.16,7.90933333 55.3973333,8.064 55.664,8.192 C55.9306667,8.32 56.192,8.432 56.448,8.528 C56.6506667,8.61333333 56.8533333,8.696 57.056,8.776 C57.2586667,8.856 57.44,8.944 57.6,9.04 C57.76,9.136 57.888,9.24533333 57.984,9.368 C58.08,9.49066667 58.128,9.632 58.128,9.792 C58.128,10.0693333 58.0266667,10.296 57.824,10.472 C57.6213333,10.648 57.3066667,10.736 56.88,10.736 C56.4746667,10.736 56.0986667,10.6586667 55.752,10.504 C55.4053333,10.3493333 55.056,10.1333333 54.704,9.856 L54.704,9.856 L53.84,11.04 C54.224,11.3493333 54.68,11.608 55.208,11.816 C55.736,12.024 56.272,12.128 56.816,12.128 Z M63.968,12.128 C64.2773333,12.128 64.568,12.0986667 64.84,12.04 C65.112,11.9813333 65.3546667,11.9146667 65.568,11.84 L65.568,11.84 L65.248,10.48 C65.1306667,10.5333333 65,10.576 64.856,10.608 C64.712,10.64 64.5706667,10.656 64.432,10.656 C63.696,10.656 63.328,10.1973333 63.328,9.28 L63.328,9.28 L63.328,5.536 L65.328,5.536 L65.328,4.08 L63.328,4.08 L63.328,1.936 L61.792,1.936 L61.568,4.08 L60.352,4.16 L60.352,5.536 L61.472,5.536 L61.472,9.28 C61.472,9.70666667 61.5173333,10.0933333 61.608,10.44 C61.6986667,10.7866667 61.8426667,11.0853333 62.04,11.336 C62.2373333,11.5866667 62.4933333,11.7813333 62.808,11.92 C63.1226667,12.0586667 63.5093333,12.128 63.968,12.128 Z M67.904,2.704 C68.2346667,2.704 68.5066667,2.608 68.72,2.416 C68.9333333,2.224 69.04,1.97333333 69.04,1.664 C69.04,1.35466667 68.9333333,1.10133333 68.72,0.904 C68.5066667,0.706666667 68.2346667,0.608 67.904,0.608 C67.5733333,0.608 67.3013333,0.706666667 67.088,0.904 C66.8746667,1.10133333 66.768,1.35466667 66.768,1.664 C66.768,1.97333333 66.8746667,2.224 67.088,2.416 C67.3013333,2.608 67.5733333,2.704 67.904,2.704 Z M68.816,11.936 L68.816,4.08 L66.976,4.08 L66.976,11.936 L68.816,11.936 Z M73.008,11.936 L73.008,6.448 C73.616,5.79733333 74.1653333,5.472 74.656,5.472 C75.072,5.472 75.3786667,5.60533333 75.576,5.872 C75.7733333,6.13866667 75.872,6.59733333 75.872,7.248 L75.872,7.248 L75.872,11.936 L77.712,11.936 L77.712,6.448 C78.32,5.79733333 78.8693333,5.472 79.36,5.472 C79.7653333,5.472 80.0666667,5.60533333 80.264,5.872 C80.4613333,6.13866667 80.56,6.59733333 80.56,7.248 L80.56,7.248 L80.56,11.936 L82.416,11.936 L82.416,7.008 C82.416,6.00533333 82.2186667,5.23466667 81.824,4.696 C81.4293333,4.15733333 80.816,3.888 79.984,3.888 C79.4826667,3.888 79.0293333,4.02133333 78.624,4.288 C78.2186667,4.55466667 77.8293333,4.89066667 77.456,5.296 C77.2746667,4.848 77.0106667,4.50133333 76.664,4.256 C76.3173333,4.01066667 75.856,3.888 75.28,3.888 C74.7893333,3.888 74.3493333,4.01066667 73.96,4.256 C73.5706667,4.50133333 73.2106667,4.8 72.88,5.152 L72.88,5.152 L72.816,5.152 L72.688,4.08 L71.168,4.08 L71.168,11.936 L73.008,11.936 Z M86.56,12.128 C87.0293333,12.128 87.464,12.0266667 87.864,11.824 C88.264,11.6213333 88.64,11.3706667 88.992,11.072 L88.992,11.072 L89.056,11.072 L89.184,11.936 L90.704,11.936 L90.704,7.28 C90.704,6.18133333 90.4613333,5.34133333 89.976,4.76 C89.4906667,4.17866667 88.7573333,3.888 87.776,3.888 C87.1466667,3.888 86.56,3.98933333 86.016,4.192 C85.472,4.39466667 84.9813333,4.63466667 84.544,4.912 L84.544,4.912 L85.216,6.144 C85.568,5.93066667 85.928,5.74933333 86.296,5.6 C86.664,5.45066667 87.04,5.376 87.424,5.376 C87.6906667,5.376 87.9146667,5.416 88.096,5.496 C88.2773333,5.576 88.424,5.688 88.536,5.832 C88.648,5.976 88.728,6.14133333 88.776,6.328 C88.824,6.51466667 88.8533333,6.70933333 88.864,6.912 C88.0533333,6.99733333 87.3573333,7.12 86.776,7.28 C86.1946667,7.44 85.7146667,7.63733333 85.336,7.872 C84.9573333,8.10666667 84.68,8.38666667 84.504,8.712 C84.328,9.03733333 84.24,9.408 84.24,9.824 C84.24,10.5173333 84.4533333,11.0746667 84.88,11.496 C85.3066667,11.9173333 85.8666667,12.128 86.56,12.128 Z M87.152,10.688 C86.8213333,10.688 86.5493333,10.608 86.336,10.448 C86.1226667,10.288 86.016,10.032 86.016,9.68 C86.016,9.488 86.064,9.30666667 86.16,9.136 C86.256,8.96533333 86.416,8.81333333 86.64,8.68 C86.864,8.54666667 87.1573333,8.42666667 87.52,8.32 C87.8826667,8.21333333 88.3306667,8.128 88.864,8.064 L88.864,8.064 L88.864,9.824 C88.5653333,10.1013333 88.2853333,10.3146667 88.024,10.464 C87.7626667,10.6133333 87.472,10.688 87.152,10.688 Z M95.424,12.128 C95.7333333,12.128 96.024,12.0986667 96.296,12.04 C96.568,11.9813333 96.8106667,11.9146667 97.024,11.84 L97.024,11.84 L96.704,10.48 C96.5866667,10.5333333 96.456,10.576 96.312,10.608 C96.168,10.64 96.0266667,10.656 95.888,10.656 C95.152,10.656 94.784,10.1973333 94.784,9.28 L94.784,9.28 L94.784,5.536 L96.784,5.536 L96.784,4.08 L94.784,4.08 L94.784,1.936 L93.248,1.936 L93.024,4.08 L91.808,4.16 L91.808,5.536 L92.928,5.536 L92.928,9.28 C92.928,9.70666667 92.9733333,10.0933333 93.064,10.44 C93.1546667,10.7866667 93.2986667,11.0853333 93.496,11.336 C93.6933333,11.5866667 93.9493333,11.7813333 94.264,11.92 C94.5786667,12.0586667 94.9653333,12.128 95.424,12.128 Z M101.536,12.128 C102.037333,12.128 102.517333,12.048 102.976,11.888 C103.434667,11.728 103.850667,11.5253333 104.224,11.28 L104.224,11.28 L103.6,10.128 C103.312,10.3093333 103.021333,10.4506667 102.728,10.552 C102.434667,10.6533333 102.117333,10.704 101.776,10.704 C101.136,10.704 100.610667,10.5146667 100.2,10.136 C99.7893333,9.75733333 99.5413333,9.216 99.456,8.512 L99.456,8.512 L104.448,8.512 C104.469333,8.416 104.488,8.288 104.504,8.128 C104.52,7.968 104.528,7.79733333 104.528,7.616 C104.528,7.072 104.458667,6.57066667 104.32,6.112 C104.181333,5.65333333 103.976,5.25866667 103.704,4.928 C103.432,4.59733333 103.093333,4.34133333 102.688,4.16 C102.282667,3.97866667 101.813333,3.888 101.28,3.888 C100.821333,3.888 100.373333,3.984 99.936,4.176 C99.4986667,4.368 99.112,4.64 98.776,4.992 C98.44,5.344 98.1706667,5.776 97.968,6.288 C97.7653333,6.8 97.664,7.376 97.664,8.016 C97.664,8.66666667 97.7626667,9.24533333 97.96,9.752 C98.1573333,10.2586667 98.432,10.688 98.784,11.04 C99.136,11.392 99.5466667,11.6613333 100.016,11.848 C100.485333,12.0346667 100.992,12.128 101.536,12.128 Z M102.928,7.264 L99.44,7.264 C99.5253333,6.624 99.744,6.13866667 100.096,5.808 C100.448,5.47733333 100.858667,5.312 101.328,5.312 C101.872,5.312 102.274667,5.48533333 102.536,5.832 C102.797333,6.17866667 102.928,6.656 102.928,7.264 L102.928,7.264 Z M109.04,12.128 C109.466667,12.128 109.872,12.0266667 110.256,11.824 C110.64,11.6213333 110.976,11.376 111.264,11.088 L111.264,11.088 L111.328,11.088 L111.456,11.936 L112.976,11.936 L112.976,0.64 L111.136,0.64 L111.136,3.488 L111.2,4.752 C110.890667,4.48533333 110.581333,4.27466667 110.272,4.12 C109.962667,3.96533333 109.584,3.888 109.136,3.888 C108.709333,3.888 108.296,3.984 107.896,4.176 C107.496,4.368 107.141333,4.64 106.832,4.992 C106.522667,5.344 106.274667,5.776 106.088,6.288 C105.901333,6.8 105.808,7.376 105.808,8.016 C105.808,9.31733333 106.098667,10.328 106.68,11.048 C107.261333,11.768 108.048,12.128 109.04,12.128 Z M109.488,10.608 C108.912,10.608 108.472,10.3866667 108.168,9.944 C107.864,9.50133333 107.712,8.85333333 107.712,8 C107.712,7.168 107.888,6.528 108.24,6.08 C108.592,5.632 109.024,5.408 109.536,5.408 C109.802667,5.408 110.066667,5.456 110.328,5.552 C110.589333,5.648 110.858667,5.81866667 111.136,6.064 L111.136,6.064 L111.136,9.728 C110.624,10.3146667 110.074667,10.608 109.488,10.608 Z M120.528,11.936 L120.528,7.568 L124.336,7.568 L124.336,6 L120.528,6 L120.528,3.04 L124.992,3.04 L124.992,1.472 L118.672,1.472 L118.672,11.936 L120.528,11.936 Z M127.6,2.704 C127.930667,2.704 128.202667,2.608 128.416,2.416 C128.629333,2.224 128.736,1.97333333 128.736,1.664 C128.736,1.35466667 128.629333,1.10133333 128.416,0.904 C128.202667,0.706666667 127.930667,0.608 127.6,0.608 C127.269333,0.608 126.997333,0.706666667 126.784,0.904 C126.570667,1.10133333 126.464,1.35466667 126.464,1.664 C126.464,1.97333333 126.570667,2.224 126.784,2.416 C126.997333,2.608 127.269333,2.704 127.6,2.704 Z M128.512,11.936 L128.512,4.08 L126.672,4.08 L126.672,11.936 L128.512,11.936 Z M133.056,12.128 C133.546667,12.128 133.984,12.064 134.368,11.936 C134.752,11.808 135.072,11.6346667 135.328,11.416 C135.584,11.1973333 135.778667,10.9413333 135.912,10.648 C136.045333,10.3546667 136.112,10.0373333 136.112,9.696 C136.112,9.33333333 136.045333,9.02133333 135.912,8.76 C135.778667,8.49866667 135.602667,8.27733333 135.384,8.096 C135.165333,7.91466667 134.922667,7.76266667 134.656,7.64 C134.389333,7.51733333 134.122667,7.408 133.856,7.312 C133.642667,7.23733333 133.437333,7.16266667 133.24,7.088 C133.042667,7.01333333 132.869333,6.93333333 132.72,6.848 C132.570667,6.76266667 132.450667,6.664 132.36,6.552 C132.269333,6.44 132.224,6.304 132.224,6.144 C132.224,5.89866667 132.317333,5.69333333 132.504,5.528 C132.690667,5.36266667 132.981333,5.28 133.376,5.28 C133.685333,5.28 133.981333,5.34133333 134.264,5.464 C134.546667,5.58666667 134.826667,5.74933333 135.104,5.952 L135.104,5.952 L135.952,4.832 C135.632,4.58666667 135.253333,4.368 134.816,4.176 C134.378667,3.984 133.888,3.888 133.344,3.888 C132.458667,3.888 131.76,4.10666667 131.248,4.544 C130.736,4.98133333 130.48,5.54666667 130.48,6.24 C130.48,6.57066667 130.546667,6.856 130.68,7.096 C130.813333,7.336 130.984,7.54666667 131.192,7.728 C131.4,7.90933333 131.637333,8.064 131.904,8.192 C132.170667,8.32 132.432,8.432 132.688,8.528 C132.890667,8.61333333 133.093333,8.696 133.296,8.776 C133.498667,8.856 133.68,8.944 133.84,9.04 C134,9.136 134.128,9.24533333 134.224,9.368 C134.32,9.49066667 134.368,9.632 134.368,9.792 C134.368,10.0693333 134.266667,10.296 134.064,10.472 C133.861333,10.648 133.546667,10.736 133.12,10.736 C132.714667,10.736 132.338667,10.6586667 131.992,10.504 C131.645333,10.3493333 131.296,10.1333333 130.944,9.856 L130.944,9.856 L130.08,11.04 C130.464,11.3493333 130.92,11.608 131.448,11.816 C131.976,12.024 132.512,12.128 133.056,12.128 Z M141.04,12.128 C141.488,12.128 141.933333,12.048 142.376,11.888 C142.818667,11.728 143.226667,11.488 143.6,11.168 L143.6,11.168 L142.848,9.952 C142.624,10.1333333 142.376,10.2906667 142.104,10.424 C141.832,10.5573333 141.541333,10.624 141.232,10.624 C140.613333,10.624 140.109333,10.3866667 139.72,9.912 C139.330667,9.43733333 139.136,8.80533333 139.136,8.016 C139.136,7.216 139.333333,6.57866667 139.728,6.104 C140.122667,5.62933333 140.64,5.392 141.28,5.392 C141.525333,5.392 141.752,5.44266667 141.96,5.544 C142.168,5.64533333 142.378667,5.78666667 142.592,5.968 L142.592,5.968 L143.488,4.768 C143.2,4.52266667 142.872,4.31466667 142.504,4.144 C142.136,3.97333333 141.696,3.888 141.184,3.888 C140.661333,3.888 140.162667,3.98133333 139.688,4.168 C139.213333,4.35466667 138.794667,4.624 138.432,4.976 C138.069333,5.328 137.781333,5.76 137.568,6.272 C137.354667,6.784 137.248,7.36533333 137.248,8.016 C137.248,8.66666667 137.344,9.248 137.536,9.76 C137.728,10.272 137.994667,10.704 138.336,11.056 C138.677333,11.408 139.08,11.6746667 139.544,11.856 C140.008,12.0373333 140.506667,12.128 141.04,12.128 Z M146.896,12.128 C147.365333,12.128 147.8,12.0266667 148.2,11.824 C148.6,11.6213333 148.976,11.3706667 149.328,11.072 L149.328,11.072 L149.392,11.072 L149.52,11.936 L151.04,11.936 L151.04,7.28 C151.04,6.18133333 150.797333,5.34133333 150.312,4.76 C149.826667,4.17866667 149.093333,3.888 148.112,3.888 C147.482667,3.888 146.896,3.98933333 146.352,4.192 C145.808,4.39466667 145.317333,4.63466667 144.88,4.912 L144.88,4.912 L145.552,6.144 C145.904,5.93066667 146.264,5.74933333 146.632,5.6 C147,5.45066667 147.376,5.376 147.76,5.376 C148.026667,5.376 148.250667,5.416 148.432,5.496 C148.613333,5.576 148.76,5.688 148.872,5.832 C148.984,5.976 149.064,6.14133333 149.112,6.328 C149.16,6.51466667 149.189333,6.70933333 149.2,6.912 C148.389333,6.99733333 147.693333,7.12 147.112,7.28 C146.530667,7.44 146.050667,7.63733333 145.672,7.872 C145.293333,8.10666667 145.016,8.38666667 144.84,8.712 C144.664,9.03733333 144.576,9.408 144.576,9.824 C144.576,10.5173333 144.789333,11.0746667 145.216,11.496 C145.642667,11.9173333 146.202667,12.128 146.896,12.128 Z M147.488,10.688 C147.157333,10.688 146.885333,10.608 146.672,10.448 C146.458667,10.288 146.352,10.032 146.352,9.68 C146.352,9.488 146.4,9.30666667 146.496,9.136 C146.592,8.96533333 146.752,8.81333333 146.976,8.68 C147.2,8.54666667 147.493333,8.42666667 147.856,8.32 C148.218667,8.21333333 148.666667,8.128 149.2,8.064 L149.2,8.064 L149.2,9.824 C148.901333,10.1013333 148.621333,10.3146667 148.36,10.464 C148.098667,10.6133333 147.808,10.688 147.488,10.688 Z M155.04,12.128 C155.445333,12.128 155.770667,12.0746667 156.016,11.968 L156.016,11.968 L155.776,10.592 C155.701333,10.6133333 155.645333,10.624 155.608,10.624 L155.608,10.624 L155.488,10.624 C155.392,10.624 155.301333,10.5786667 155.216,10.488 C155.130667,10.3973333 155.088,10.24 155.088,10.016 L155.088,10.016 L155.088,0.64 L153.248,0.64 L153.248,9.92 C153.248,10.6026667 153.381333,11.1413333 153.648,11.536 C153.914667,11.9306667 154.378667,12.128 155.04,12.128 Z M162.8,11.936 L162.8,1.472 L160.944,1.472 L160.944,11.936 L162.8,11.936 Z M167.136,11.936 L167.136,6.448 C167.744,5.79733333 168.293333,5.472 168.784,5.472 C169.2,5.472 169.506667,5.60533333 169.704,5.872 C169.901333,6.13866667 170,6.59733333 170,7.248 L170,7.248 L170,11.936 L171.84,11.936 L171.84,6.448 C172.448,5.79733333 172.997333,5.472 173.488,5.472 C173.893333,5.472 174.194667,5.60533333 174.392,5.872 C174.589333,6.13866667 174.688,6.59733333 174.688,7.248 L174.688,7.248 L174.688,11.936 L176.544,11.936 L176.544,7.008 C176.544,6.00533333 176.346667,5.23466667 175.952,4.696 C175.557333,4.15733333 174.944,3.888 174.112,3.888 C173.610667,3.888 173.157333,4.02133333 172.752,4.288 C172.346667,4.55466667 171.957333,4.89066667 171.584,5.296 C171.402667,4.848 171.138667,4.50133333 170.792,4.256 C170.445333,4.01066667 169.984,3.888 169.408,3.888 C168.917333,3.888 168.477333,4.01066667 168.088,4.256 C167.698667,4.50133333 167.338667,4.8 167.008,5.152 L167.008,5.152 L166.944,5.152 L166.816,4.08 L165.296,4.08 L165.296,11.936 L167.136,11.936 Z M180.624,15.04 L180.624,12.576 L180.576,11.264 C180.896,11.5413333 181.226667,11.7546667 181.568,11.904 C181.909333,12.0533333 182.250667,12.128 182.592,12.128 C183.029333,12.128 183.450667,12.032 183.856,11.84 C184.261333,11.648 184.618667,11.3733333 184.928,11.016 C185.237333,10.6586667 185.485333,10.216 185.672,9.688 C185.858667,9.16 185.952,8.56 185.952,7.888 C185.952,7.28 185.882667,6.73066667 185.744,6.24 C185.605333,5.74933333 185.402667,5.328 185.136,4.976 C184.869333,4.624 184.546667,4.35466667 184.168,4.168 C183.789333,3.98133333 183.354667,3.888 182.864,3.888 C182.426667,3.888 182.005333,3.98933333 181.6,4.192 C181.194667,4.39466667 180.826667,4.63466667 180.496,4.912 L180.496,4.912 L180.432,4.912 L180.304,4.08 L178.784,4.08 L178.784,15.04 L180.624,15.04 Z M182.208,10.608 C181.973333,10.608 181.722667,10.56 181.456,10.464 C181.189333,10.368 180.912,10.1973333 180.624,9.952 L180.624,9.952 L180.624,6.288 C181.221333,5.70133333 181.797333,5.408 182.352,5.408 C182.949333,5.408 183.381333,5.62666667 183.648,6.064 C183.914667,6.50133333 184.048,7.11466667 184.048,7.904 C184.048,8.8 183.872,9.47466667 183.52,9.928 C183.168,10.3813333 182.730667,10.608 182.208,10.608 Z M189.52,12.128 C189.989333,12.128 190.424,12.0266667 190.824,11.824 C191.224,11.6213333 191.6,11.3706667 191.952,11.072 L191.952,11.072 L192.016,11.072 L192.144,11.936 L193.664,11.936 L193.664,7.28 C193.664,6.18133333 193.421333,5.34133333 192.936,4.76 C192.450667,4.17866667 191.717333,3.888 190.736,3.888 C190.106667,3.888 189.52,3.98933333 188.976,4.192 C188.432,4.39466667 187.941333,4.63466667 187.504,4.912 L187.504,4.912 L188.176,6.144 C188.528,5.93066667 188.888,5.74933333 189.256,5.6 C189.624,5.45066667 190,5.376 190.384,5.376 C190.650667,5.376 190.874667,5.416 191.056,5.496 C191.237333,5.576 191.384,5.688 191.496,5.832 C191.608,5.976 191.688,6.14133333 191.736,6.328 C191.784,6.51466667 191.813333,6.70933333 191.824,6.912 C191.013333,6.99733333 190.317333,7.12 189.736,7.28 C189.154667,7.44 188.674667,7.63733333 188.296,7.872 C187.917333,8.10666667 187.64,8.38666667 187.464,8.712 C187.288,9.03733333 187.2,9.408 187.2,9.824 C187.2,10.5173333 187.413333,11.0746667 187.84,11.496 C188.266667,11.9173333 188.826667,12.128 189.52,12.128 Z M190.112,10.688 C189.781333,10.688 189.509333,10.608 189.296,10.448 C189.082667,10.288 188.976,10.032 188.976,9.68 C188.976,9.488 189.024,9.30666667 189.12,9.136 C189.216,8.96533333 189.376,8.81333333 189.6,8.68 C189.824,8.54666667 190.117333,8.42666667 190.48,8.32 C190.842667,8.21333333 191.290667,8.128 191.824,8.064 L191.824,8.064 L191.824,9.824 C191.525333,10.1013333 191.245333,10.3146667 190.984,10.464 C190.722667,10.6133333 190.432,10.688 190.112,10.688 Z M199.152,12.128 C199.6,12.128 200.045333,12.048 200.488,11.888 C200.930667,11.728 201.338667,11.488 201.712,11.168 L201.712,11.168 L200.96,9.952 C200.736,10.1333333 200.488,10.2906667 200.216,10.424 C199.944,10.5573333 199.653333,10.624 199.344,10.624 C198.725333,10.624 198.221333,10.3866667 197.832,9.912 C197.442667,9.43733333 197.248,8.80533333 197.248,8.016 C197.248,7.216 197.445333,6.57866667 197.84,6.104 C198.234667,5.62933333 198.752,5.392 199.392,5.392 C199.637333,5.392 199.864,5.44266667 200.072,5.544 C200.28,5.64533333 200.490667,5.78666667 200.704,5.968 L200.704,5.968 L201.6,4.768 C201.312,4.52266667 200.984,4.31466667 200.616,4.144 C200.248,3.97333333 199.808,3.888 199.296,3.888 C198.773333,3.888 198.274667,3.98133333 197.8,4.168 C197.325333,4.35466667 196.906667,4.624 196.544,4.976 C196.181333,5.328 195.893333,5.76 195.68,6.272 C195.466667,6.784 195.36,7.36533333 195.36,8.016 C195.36,8.66666667 195.456,9.248 195.648,9.76 C195.84,10.272 196.106667,10.704 196.448,11.056 C196.789333,11.408 197.192,11.6746667 197.656,11.856 C198.12,12.0373333 198.618667,12.128 199.152,12.128 Z M205.872,12.128 C206.181333,12.128 206.472,12.0986667 206.744,12.04 C207.016,11.9813333 207.258667,11.9146667 207.472,11.84 L207.472,11.84 L207.152,10.48 C207.034667,10.5333333 206.904,10.576 206.76,10.608 C206.616,10.64 206.474667,10.656 206.336,10.656 C205.6,10.656 205.232,10.1973333 205.232,9.28 L205.232,9.28 L205.232,5.536 L207.232,5.536 L207.232,4.08 L205.232,4.08 L205.232,1.936 L203.696,1.936 L203.472,4.08 L202.256,4.16 L202.256,5.536 L203.376,5.536 L203.376,9.28 C203.376,9.70666667 203.421333,10.0933333 203.512,10.44 C203.602667,10.7866667 203.746667,11.0853333 203.944,11.336 C204.141333,11.5866667 204.397333,11.7813333 204.712,11.92 C205.026667,12.0586667 205.413333,12.128 205.872,12.128 Z M215.68,13.696 L215.68,12.048 C216.48,11.8986667 217.093333,11.5653333 217.52,11.048 C217.946667,10.5306667 218.16,9.888 218.16,9.12 C218.16,8.58666667 218.053333,8.14133333 217.84,7.784 C217.626667,7.42666667 217.357333,7.12533333 217.032,6.88 C216.706667,6.63466667 216.357333,6.424 215.984,6.248 C215.610667,6.072 215.261333,5.896 214.936,5.72 C214.610667,5.544 214.341333,5.352 214.128,5.144 C213.914667,4.936 213.808,4.672 213.808,4.352 C213.808,3.936 213.930667,3.61866667 214.176,3.4 C214.421333,3.18133333 214.762667,3.072 215.2,3.072 C215.584,3.072 215.914667,3.144 216.192,3.288 C216.469333,3.432 216.757333,3.64266667 217.056,3.92 L217.056,3.92 L218,2.848 C217.701333,2.53866667 217.368,2.26933333 217,2.04 C216.632,1.81066667 216.192,1.664 215.68,1.6 L215.68,1.6 L215.68,-1.77635684e-14 L214.4,-1.77635684e-14 L214.4,1.632 C213.674667,1.76 213.098667,2.072 212.672,2.568 C212.245333,3.064 212.032,3.68533333 212.032,4.432 C212.032,4.93333333 212.138667,5.352 212.352,5.688 C212.565333,6.024 212.834667,6.312 213.16,6.552 C213.485333,6.792 213.834667,7 214.208,7.176 C214.581333,7.352 214.930667,7.536 215.256,7.728 C215.581333,7.92 215.850667,8.13333333 216.064,8.368 C216.277333,8.60266667 216.384,8.896 216.384,9.248 C216.384,9.68533333 216.256,10.024 216,10.264 C215.744,10.504 215.354667,10.624 214.832,10.624 C214.394667,10.624 213.984,10.5333333 213.6,10.352 C213.216,10.1706667 212.837333,9.93066667 212.464,9.632 L212.464,9.632 L211.632,10.88 C211.994667,11.2213333 212.424,11.496 212.92,11.704 C213.416,11.912 213.909333,12.0426667 214.4,12.096 L214.4,12.096 L214.4,13.696 L215.68,13.696 Z M223.52,12.128 C223.957333,12.128 224.370667,12.048 224.76,11.888 C225.149333,11.728 225.488,11.504 225.776,11.216 C226.064,10.928 226.293333,10.5786667 226.464,10.168 C226.634667,9.75733333 226.72,9.296 226.72,8.784 C226.72,8.25066667 226.648,7.78666667 226.504,7.392 C226.36,6.99733333 226.157333,6.66933333 225.896,6.408 C225.634667,6.14666667 225.32,5.952 224.952,5.824 C224.584,5.696 224.181333,5.632 223.744,5.632 C223.370667,5.632 222.984,5.73866667 222.584,5.952 C222.184,6.16533333 221.834667,6.45866667 221.536,6.832 C221.557333,6.128 221.634667,5.536 221.768,5.056 C221.901333,4.576 222.074667,4.18933333 222.288,3.896 C222.501333,3.60266667 222.749333,3.392 223.032,3.264 C223.314667,3.136 223.616,3.072 223.936,3.072 C224.245333,3.072 224.546667,3.144 224.84,3.288 C225.133333,3.432 225.370667,3.616 225.552,3.84 L225.552,3.84 L226.544,2.72 C226.234667,2.4 225.858667,2.128 225.416,1.904 C224.973333,1.68 224.442667,1.568 223.824,1.568 C223.301333,1.568 222.8,1.67466667 222.32,1.888 C221.84,2.10133333 221.416,2.432 221.048,2.88 C220.68,3.328 220.384,3.904 220.16,4.608 C219.936,5.312 219.824,6.16 219.824,7.152 C219.824,8.00533333 219.922667,8.74666667 220.12,9.376 C220.317333,10.0053333 220.584,10.5226667 220.92,10.928 C221.256,11.3333333 221.648,11.6346667 222.096,11.832 C222.544,12.0293333 223.018667,12.128 223.52,12.128 Z M223.488,10.72 C222.986667,10.72 222.568,10.5173333 222.232,10.112 C221.896,9.70666667 221.68,9.05066667 221.584,8.144 C221.872,7.71733333 222.176,7.416 222.496,7.24 C222.816,7.064 223.12,6.976 223.408,6.976 C223.92,6.976 224.314667,7.12533333 224.592,7.424 C224.869333,7.72266667 225.008,8.176 225.008,8.784 C225.008,9.41333333 224.861333,9.89333333 224.568,10.224 C224.274667,10.5546667 223.914667,10.72 223.488,10.72 Z M229.536,12.128 C229.877333,12.128 230.16,12.0106667 230.384,11.776 C230.608,11.5413333 230.72,11.2426667 230.72,10.88 C230.72,10.5173333 230.608,10.2186667 230.384,9.984 C230.16,9.74933333 229.877333,9.632 229.536,9.632 C229.194667,9.632 228.909333,9.74933333 228.68,9.984 C228.450667,10.2186667 228.336,10.5173333 228.336,10.88 C228.336,11.2426667 228.450667,11.5413333 228.68,11.776 C228.909333,12.0106667 229.194667,12.128 229.536,12.128 Z M239.04,11.936 L239.04,10.432 L237.04,10.432 L237.04,1.76 L235.664,1.76 C235.344,1.952 235,2.11466667 234.632,2.248 C234.264,2.38133333 233.824,2.496 233.312,2.592 L233.312,2.592 L233.312,3.744 L235.184,3.744 L235.184,10.432 L232.912,10.432 L232.912,11.936 L239.04,11.936 Z M244.336,12.128 C244.773333,12.128 245.186667,12.048 245.576,11.888 C245.965333,11.728 246.304,11.504 246.592,11.216 C246.88,10.928 247.109333,10.5786667 247.28,10.168 C247.450667,9.75733333 247.536,9.296 247.536,8.784 C247.536,8.25066667 247.464,7.78666667 247.32,7.392 C247.176,6.99733333 246.973333,6.66933333 246.712,6.408 C246.450667,6.14666667 246.136,5.952 245.768,5.824 C245.4,5.696 244.997333,5.632 244.56,5.632 C244.186667,5.632 243.8,5.73866667 243.4,5.952 C243,6.16533333 242.650667,6.45866667 242.352,6.832 C242.373333,6.128 242.450667,5.536 242.584,5.056 C242.717333,4.576 242.890667,4.18933333 243.104,3.896 C243.317333,3.60266667 243.565333,3.392 243.848,3.264 C244.130667,3.136 244.432,3.072 244.752,3.072 C245.061333,3.072 245.362667,3.144 245.656,3.288 C245.949333,3.432 246.186667,3.616 246.368,3.84 L246.368,3.84 L247.36,2.72 C247.050667,2.4 246.674667,2.128 246.232,1.904 C245.789333,1.68 245.258667,1.568 244.64,1.568 C244.117333,1.568 243.616,1.67466667 243.136,1.888 C242.656,2.10133333 242.232,2.432 241.864,2.88 C241.496,3.328 241.2,3.904 240.976,4.608 C240.752,5.312 240.64,6.16 240.64,7.152 C240.64,8.00533333 240.738667,8.74666667 240.936,9.376 C241.133333,10.0053333 241.4,10.5226667 241.736,10.928 C242.072,11.3333333 242.464,11.6346667 242.912,11.832 C243.36,12.0293333 243.834667,12.128 244.336,12.128 Z M244.304,10.72 C243.802667,10.72 243.384,10.5173333 243.048,10.112 C242.712,9.70666667 242.496,9.05066667 242.4,8.144 C242.688,7.71733333 242.992,7.416 243.312,7.24 C243.632,7.064 243.936,6.976 244.224,6.976 C244.736,6.976 245.130667,7.12533333 245.408,7.424 C245.685333,7.72266667 245.824,8.176 245.824,8.784 C245.824,9.41333333 245.677333,9.89333333 245.384,10.224 C245.090667,10.5546667 244.730667,10.72 244.304,10.72 Z M253.44,11.936 L253.44,3.04 L256.464,3.04 L256.464,1.472 L248.56,1.472 L248.56,3.04 L251.584,3.04 L251.584,11.936 L253.44,11.936 Z" id="TotalEstimatedFiscalImpact$6.16T" fill="#666666" fill-rule="nonzero"></path>
                <path d="M0,94 L0,30 L264,30 L264,94" id="Path-21" stroke="#D8D8D8" stroke-dasharray="3,3"></path>
                <path d="M84.384,65.872 L84.384,58.84 L86.76,58.84 L86.76,58 L81,58 L81,58.84 L83.376,58.84 L83.376,65.872 L84.384,65.872 Z M87.672,65.872 L88.428,63.472 L91.296,63.472 L92.04,65.872 L93.108,65.872 L90.444,58 L89.316,58 L86.652,65.872 L87.672,65.872 Z M91.044,62.668 L88.68,62.668 L89.052,61.468 C89.196,61.028 89.332,60.59 89.46,60.154 C89.588,59.718 89.712,59.272 89.832,58.816 L89.832,58.816 L89.88,58.816 C90.008,59.272 90.136,59.718 90.264,60.154 C90.392,60.59 90.528,61.028 90.672,61.468 L90.672,61.468 L91.044,62.668 Z M94.428,65.872 L95.568,63.748 C95.664,63.556 95.764,63.358 95.868,63.154 C95.972,62.95 96.08,62.728 96.192,62.488 L96.192,62.488 L96.24,62.488 C96.368,62.728 96.486,62.95 96.594,63.154 C96.702,63.358 96.808,63.556 96.912,63.748 L96.912,63.748 L98.064,65.872 L99.168,65.872 L96.876,61.852 L99.024,58 L97.968,58 L96.924,60.016 C96.828,60.2 96.738,60.378 96.654,60.55 C96.57,60.722 96.472,60.924 96.36,61.156 L96.36,61.156 L96.312,61.156 C96.192,60.924 96.086,60.722 95.994,60.55 C95.902,60.378 95.804,60.2 95.7,60.016 L95.7,60.016 L94.632,58 L93.528,58 L95.664,61.804 L93.372,65.872 L94.428,65.872 Z M103.824,65.872 L103.824,62.548 L105.252,62.548 L107.148,65.872 L108.276,65.872 L106.272,62.44 C106.816,62.304 107.248,62.052 107.568,61.684 C107.888,61.316 108.048,60.824 108.048,60.208 C108.048,59.8 107.98,59.456 107.844,59.176 C107.708,58.896 107.518,58.668 107.274,58.492 C107.03,58.316 106.738,58.19 106.398,58.114 C106.058,58.038 105.688,58 105.288,58 L105.288,58 L102.828,58 L102.828,65.872 L103.824,65.872 Z M105.144,61.732 L103.824,61.732 L103.824,58.804 L105.144,58.804 C105.76,58.804 106.232,58.908 106.56,59.116 C106.888,59.324 107.052,59.688 107.052,60.208 C107.052,60.72 106.888,61.102 106.56,61.354 C106.232,61.606 105.76,61.732 105.144,61.732 L105.144,61.732 Z M114.312,65.872 L114.312,65.02 L110.652,65.02 L110.652,62.164 L113.64,62.164 L113.64,61.312 L110.652,61.312 L110.652,58.84 L114.192,58.84 L114.192,58 L109.656,58 L109.656,65.872 L114.312,65.872 Z M120.42,65.872 L120.42,65.02 L116.976,65.02 L116.976,58 L115.98,58 L115.98,65.872 L120.42,65.872 Z M122.808,65.872 L122.808,58 L121.812,58 L121.812,65.872 L122.808,65.872 Z M129.624,65.872 L129.624,65.02 L125.964,65.02 L125.964,62.164 L128.952,62.164 L128.952,61.312 L125.964,61.312 L125.964,58.84 L129.504,58.84 L129.504,58 L124.968,58 L124.968,65.872 L129.624,65.872 Z M132.288,65.872 L132.288,62.344 L135.288,62.344 L135.288,61.504 L132.288,61.504 L132.288,58.84 L135.828,58.84 L135.828,58 L131.292,58 L131.292,65.872 L132.288,65.872 Z M95.844,82.192 L95.844,80.944 C96.468,80.808 96.936,80.534 97.248,80.122 C97.56,79.71 97.716,79.216 97.716,78.64 C97.716,78.256 97.638,77.934 97.482,77.674 C97.326,77.414 97.13,77.192 96.894,77.008 C96.658,76.824 96.404,76.668 96.132,76.54 C95.86,76.412 95.606,76.288 95.37,76.168 C95.134,76.048 94.938,75.922 94.782,75.79 C94.626,75.658 94.548,75.496 94.548,75.304 C94.548,75.032 94.624,74.836 94.776,74.716 C94.928,74.596 95.148,74.536 95.436,74.536 C95.692,74.536 95.92,74.586 96.12,74.686 C96.32,74.786 96.528,74.936 96.744,75.136 L96.744,75.136 L97.632,74.128 C97.4,73.88 97.14,73.668 96.852,73.492 C96.564,73.316 96.228,73.2 95.844,73.144 L95.844,73.144 L95.844,71.932 L94.68,71.932 L94.68,73.168 C94.112,73.28 93.666,73.53 93.342,73.918 C93.018,74.306 92.856,74.796 92.856,75.388 C92.856,75.748 92.934,76.052 93.09,76.3 C93.246,76.548 93.442,76.764 93.678,76.948 C93.914,77.132 94.168,77.29 94.44,77.422 C94.712,77.554 94.966,77.686 95.202,77.818 C95.438,77.95 95.634,78.088 95.79,78.232 C95.946,78.376 96.024,78.552 96.024,78.76 C96.024,79.04 95.946,79.248 95.79,79.384 C95.634,79.52 95.388,79.588 95.052,79.588 C94.764,79.588 94.482,79.53 94.206,79.414 C93.93,79.298 93.64,79.124 93.336,78.892 L93.336,78.892 L92.568,80.08 C92.848,80.336 93.182,80.542 93.57,80.698 C93.958,80.854 94.328,80.952 94.68,80.992 L94.68,80.992 L94.68,82.192 L95.844,82.192 Z M101.184,81.016 C101.584,81.016 101.97,80.934 102.342,80.77 C102.714,80.606 103.042,80.356 103.326,80.02 C103.61,79.684 103.838,79.256 104.01,78.736 C104.182,78.216 104.268,77.6 104.268,76.888 C104.268,76.216 104.186,75.642 104.022,75.166 C103.858,74.69 103.642,74.3 103.374,73.996 C103.106,73.692 102.798,73.468 102.45,73.324 C102.102,73.18 101.744,73.108 101.376,73.108 C101.032,73.108 100.706,73.166 100.398,73.282 C100.09,73.398 99.822,73.568 99.594,73.792 C99.366,74.016 99.184,74.286 99.048,74.602 C98.912,74.918 98.844,75.272 98.844,75.664 C98.844,76.064 98.902,76.412 99.018,76.708 C99.134,77.004 99.292,77.248 99.492,77.44 C99.692,77.632 99.93,77.776 100.206,77.872 C100.482,77.968 100.784,78.016 101.112,78.016 C101.232,78.016 101.36,77.998 101.496,77.962 C101.632,77.926 101.768,77.874 101.904,77.806 C102.04,77.738 102.172,77.654 102.3,77.554 C102.428,77.454 102.54,77.34 102.636,77.212 C102.62,77.66 102.57,78.034 102.486,78.334 C102.402,78.634 102.29,78.878 102.15,79.066 C102.01,79.254 101.848,79.388 101.664,79.468 C101.48,79.548 101.28,79.588 101.064,79.588 C100.84,79.588 100.62,79.534 100.404,79.426 C100.188,79.318 100.016,79.192 99.888,79.048 L99.888,79.048 L98.952,80.104 C99.192,80.344 99.498,80.556 99.87,80.74 C100.242,80.924 100.68,81.016 101.184,81.016 Z M101.46,76.768 C101.172,76.768 100.932,76.686 100.74,76.522 C100.548,76.358 100.452,76.072 100.452,75.664 C100.452,75.232 100.548,74.918 100.74,74.722 C100.932,74.526 101.156,74.428 101.412,74.428 C101.684,74.428 101.93,74.542 102.15,74.77 C102.37,74.998 102.52,75.412 102.6,76.012 C102.448,76.284 102.27,76.478 102.066,76.594 C101.862,76.71 101.66,76.768 101.46,76.768 Z M107.94,81.016 C108.348,81.016 108.72,80.93 109.056,80.758 C109.392,80.586 109.678,80.332 109.914,79.996 C110.15,79.66 110.334,79.244 110.466,78.748 C110.598,78.252 110.664,77.68 110.664,77.032 C110.664,76.384 110.598,75.816 110.466,75.328 C110.334,74.84 110.15,74.43 109.914,74.098 C109.678,73.766 109.392,73.518 109.056,73.354 C108.72,73.19 108.348,73.108 107.94,73.108 C107.532,73.108 107.16,73.19 106.824,73.354 C106.488,73.518 106.202,73.766 105.966,74.098 C105.73,74.43 105.546,74.84 105.414,75.328 C105.282,75.816 105.216,76.384 105.216,77.032 C105.216,77.68 105.282,78.252 105.414,78.748 C105.546,79.244 105.73,79.66 105.966,79.996 C106.202,80.332 106.488,80.586 106.824,80.758 C107.16,80.93 107.532,81.016 107.94,81.016 Z M107.94,79.648 C107.796,79.648 107.66,79.61 107.532,79.534 C107.404,79.458 107.292,79.32 107.196,79.12 C107.1,78.92 107.024,78.652 106.968,78.316 C106.912,77.98 106.884,77.552 106.884,77.032 C106.884,76.512 106.912,76.086 106.968,75.754 C107.024,75.422 107.1,75.162 107.196,74.974 C107.292,74.786 107.404,74.656 107.532,74.584 C107.66,74.512 107.796,74.476 107.94,74.476 C108.092,74.476 108.232,74.512 108.36,74.584 C108.488,74.656 108.6,74.786 108.696,74.974 C108.792,75.162 108.866,75.422 108.918,75.754 C108.97,76.086 108.996,76.512 108.996,77.032 C108.996,77.552 108.97,77.98 108.918,78.316 C108.866,78.652 108.792,78.92 108.696,79.12 C108.6,79.32 108.488,79.458 108.36,79.534 C108.232,79.61 108.092,79.648 107.94,79.648 Z M116.916,80.872 L116.916,79.384 L115.38,79.384 C115.196,79.384 114.986,79.394 114.75,79.414 C114.514,79.434 114.3,79.456 114.108,79.48 C114.42,79.16 114.722,78.834 115.014,78.502 C115.306,78.17 115.566,77.838 115.794,77.506 C116.022,77.174 116.204,76.842 116.34,76.51 C116.476,76.178 116.544,75.852 116.544,75.532 C116.544,75.164 116.484,74.832 116.364,74.536 C116.244,74.24 116.072,73.986 115.848,73.774 C115.624,73.562 115.358,73.398 115.05,73.282 C114.742,73.166 114.4,73.108 114.024,73.108 C113.48,73.108 113.012,73.21 112.62,73.414 C112.228,73.618 111.844,73.92 111.468,74.32 L111.468,74.32 L112.428,75.268 C112.62,75.06 112.824,74.878 113.04,74.722 C113.256,74.566 113.504,74.488 113.784,74.488 C114.12,74.488 114.384,74.586 114.576,74.782 C114.768,74.978 114.864,75.264 114.864,75.64 C114.864,75.912 114.782,76.198 114.618,76.498 C114.454,76.798 114.226,77.122 113.934,77.47 C113.642,77.818 113.294,78.19 112.89,78.586 C112.486,78.982 112.04,79.408 111.552,79.864 L111.552,79.864 L111.552,80.872 L116.916,80.872 Z M121.272,80.872 C121.696,80.872 122.092,80.826 122.46,80.734 C122.828,80.642 123.15,80.502 123.426,80.314 C123.702,80.126 123.918,79.888 124.074,79.6 C124.23,79.312 124.308,78.968 124.308,78.568 C124.308,78.304 124.272,78.07 124.2,77.866 C124.128,77.662 124.028,77.484 123.9,77.332 C123.772,77.18 123.624,77.054 123.456,76.954 C123.288,76.854 123.104,76.78 122.904,76.732 L122.904,76.732 L122.904,76.684 C123.064,76.628 123.206,76.54 123.33,76.42 C123.454,76.3 123.56,76.164 123.648,76.012 C123.736,75.86 123.804,75.696 123.852,75.52 C123.9,75.344 123.924,75.168 123.924,74.992 C123.924,74.616 123.85,74.304 123.702,74.056 C123.554,73.808 123.35,73.608 123.09,73.456 C122.83,73.304 122.526,73.198 122.178,73.138 C121.83,73.078 121.452,73.048 121.044,73.048 L121.044,73.048 L118.368,73.048 L118.368,80.872 L121.272,80.872 Z M120.96,76.18 L120.132,76.18 L120.132,74.416 L120.972,74.416 C121.388,74.416 121.696,74.48 121.896,74.608 C122.096,74.736 122.196,74.952 122.196,75.256 C122.196,75.536 122.098,75.76 121.902,75.928 C121.706,76.096 121.392,76.18 120.96,76.18 L120.96,76.18 Z M121.128,79.504 L120.132,79.504 L120.132,77.488 L121.128,77.488 C121.616,77.488 121.98,77.562 122.22,77.71 C122.46,77.858 122.58,78.104 122.58,78.448 C122.58,79.152 122.096,79.504 121.128,79.504 L121.128,79.504 Z" id="TAXRELIEF$902B" fill="#666666" fill-rule="nonzero"></path>
                <path d="M181.996,50.016 L181.996,46.896 L183.292,46.896 C183.724,46.896 184.118,46.846 184.474,46.746 C184.83,46.646 185.136,46.496 185.392,46.296 C185.648,46.096 185.846,45.844 185.986,45.54 C186.126,45.236 186.196,44.876 186.196,44.46 C186.196,44.028 186.124,43.664 185.98,43.368 C185.836,43.072 185.636,42.834 185.38,42.654 C185.124,42.474 184.814,42.344 184.45,42.264 C184.086,42.184 183.684,42.144 183.244,42.144 L183.244,42.144 L181,42.144 L181,50.016 L181.996,50.016 Z M183.172,46.08 L181.996,46.08 L181.996,42.948 L183.124,42.948 C183.812,42.948 184.33,43.058 184.678,43.278 C185.026,43.498 185.2,43.892 185.2,44.46 C185.2,45.02 185.034,45.43 184.702,45.69 C184.37,45.95 183.86,46.08 183.172,46.08 L183.172,46.08 Z M190.696,50.16 C191.192,50.16 191.646,50.064 192.058,49.872 C192.47,49.68 192.826,49.406 193.126,49.05 C193.426,48.694 193.658,48.262 193.822,47.754 C193.986,47.246 194.068,46.676 194.068,46.044 C194.068,45.42 193.986,44.858 193.822,44.358 C193.658,43.858 193.426,43.434 193.126,43.086 C192.826,42.738 192.47,42.47 192.058,42.282 C191.646,42.094 191.192,42 190.696,42 C190.2,42 189.746,42.092 189.334,42.276 C188.922,42.46 188.568,42.726 188.272,43.074 C187.976,43.422 187.746,43.846 187.582,44.346 C187.418,44.846 187.336,45.412 187.336,46.044 C187.336,46.676 187.418,47.246 187.582,47.754 C187.746,48.262 187.976,48.694 188.272,49.05 C188.568,49.406 188.922,49.68 189.334,49.872 C189.746,50.064 190.2,50.16 190.696,50.16 Z M190.696,49.284 C190.344,49.284 190.026,49.208 189.742,49.056 C189.458,48.904 189.214,48.686 189.01,48.402 C188.806,48.118 188.648,47.778 188.536,47.382 C188.424,46.986 188.368,46.54 188.368,46.044 C188.368,45.556 188.424,45.116 188.536,44.724 C188.648,44.332 188.806,44 189.01,43.728 C189.214,43.456 189.458,43.246 189.742,43.098 C190.026,42.95 190.344,42.876 190.696,42.876 C191.048,42.876 191.366,42.95 191.65,43.098 C191.934,43.246 192.178,43.456 192.382,43.728 C192.586,44 192.744,44.332 192.856,44.724 C192.968,45.116 193.024,45.556 193.024,46.044 C193.024,46.54 192.968,46.986 192.856,47.382 C192.744,47.778 192.586,48.118 192.382,48.402 C192.178,48.686 191.934,48.904 191.65,49.056 C191.366,49.208 191.048,49.284 190.696,49.284 Z M198.112,50.016 L198.112,42.984 L200.488,42.984 L200.488,42.144 L194.728,42.144 L194.728,42.984 L197.104,42.984 L197.104,50.016 L198.112,50.016 Z M206.56,50.016 L206.56,49.164 L202.9,49.164 L202.9,46.308 L205.888,46.308 L205.888,45.456 L202.9,45.456 L202.9,42.984 L206.44,42.984 L206.44,42.144 L201.904,42.144 L201.904,50.016 L206.56,50.016 Z M209.176,50.016 L209.176,45.9 C209.176,45.484 209.162,45.07 209.134,44.658 C209.106,44.246 209.076,43.84 209.044,43.44 L209.044,43.44 L209.092,43.44 L209.944,45.06 L212.8,50.016 L213.832,50.016 L213.832,42.144 L212.884,42.144 L212.884,46.212 C212.884,46.628 212.898,47.05 212.926,47.478 C212.954,47.906 212.98,48.32 213.004,48.72 L213.004,48.72 L212.956,48.72 L212.104,47.088 L209.26,42.144 L208.228,42.144 L208.228,50.016 L209.176,50.016 Z M218.632,50.016 L218.632,42.984 L221.008,42.984 L221.008,42.144 L215.248,42.144 L215.248,42.984 L217.624,42.984 L217.624,50.016 L218.632,50.016 Z M223.42,50.016 L223.42,42.144 L222.424,42.144 L222.424,50.016 L223.42,50.016 Z M225.556,50.016 L226.312,47.616 L229.18,47.616 L229.924,50.016 L230.992,50.016 L228.328,42.144 L227.2,42.144 L224.536,50.016 L225.556,50.016 Z M228.928,46.812 L226.564,46.812 L226.936,45.612 C227.08,45.172 227.216,44.734 227.344,44.298 C227.472,43.862 227.596,43.416 227.716,42.96 L227.716,42.96 L227.764,42.96 C227.892,43.416 228.02,43.862 228.148,44.298 C228.276,44.734 228.412,45.172 228.556,45.612 L228.556,45.612 L228.928,46.812 Z M236.548,50.016 L236.548,49.164 L233.104,49.164 L233.104,42.144 L232.108,42.144 L232.108,50.016 L236.548,50.016 Z M193.96,65.16 C194.472,65.16 194.924,65.06 195.316,64.86 C195.708,64.66 196.06,64.38 196.372,64.02 L196.372,64.02 L195.82,63.396 C195.564,63.676 195.292,63.894 195.004,64.05 C194.716,64.206 194.38,64.284 193.996,64.284 C193.62,64.284 193.282,64.208 192.982,64.056 C192.682,63.904 192.428,63.688 192.22,63.408 C192.012,63.128 191.85,62.79 191.734,62.394 C191.618,61.998 191.56,61.552 191.56,61.056 C191.56,60.568 191.618,60.128 191.734,59.736 C191.85,59.344 192.016,59.01 192.232,58.734 C192.448,58.458 192.708,58.246 193.012,58.098 C193.316,57.95 193.656,57.876 194.032,57.876 C194.368,57.876 194.668,57.944 194.932,58.08 C195.196,58.216 195.432,58.396 195.64,58.62 L195.64,58.62 L196.18,57.972 C195.948,57.716 195.65,57.49 195.286,57.294 C194.922,57.098 194.5,57 194.02,57 C193.516,57 193.052,57.094 192.628,57.282 C192.204,57.47 191.836,57.74 191.524,58.092 C191.212,58.444 190.968,58.872 190.792,59.376 C190.616,59.88 190.528,60.448 190.528,61.08 C190.528,61.72 190.614,62.294 190.786,62.802 C190.958,63.31 191.198,63.738 191.506,64.086 C191.814,64.434 192.176,64.7 192.592,64.884 C193.008,65.068 193.464,65.16 193.96,65.16 Z M198.832,65.016 L198.832,61.692 L200.26,61.692 L202.156,65.016 L203.284,65.016 L201.28,61.584 C201.824,61.448 202.256,61.196 202.576,60.828 C202.896,60.46 203.056,59.968 203.056,59.352 C203.056,58.944 202.988,58.6 202.852,58.32 C202.716,58.04 202.526,57.812 202.282,57.636 C202.038,57.46 201.746,57.334 201.406,57.258 C201.066,57.182 200.696,57.144 200.296,57.144 L200.296,57.144 L197.836,57.144 L197.836,65.016 L198.832,65.016 Z M200.152,60.876 L198.832,60.876 L198.832,57.948 L200.152,57.948 C200.768,57.948 201.24,58.052 201.568,58.26 C201.896,58.468 202.06,58.832 202.06,59.352 C202.06,59.864 201.896,60.246 201.568,60.498 C201.24,60.75 200.768,60.876 200.152,60.876 L200.152,60.876 Z M209.32,65.016 L209.32,64.164 L205.66,64.164 L205.66,61.308 L208.648,61.308 L208.648,60.456 L205.66,60.456 L205.66,57.984 L209.2,57.984 L209.2,57.144 L204.664,57.144 L204.664,65.016 L209.32,65.016 Z M213.004,65.016 C213.596,65.016 214.12,64.926 214.576,64.746 C215.032,64.566 215.416,64.306 215.728,63.966 C216.04,63.626 216.276,63.21 216.436,62.718 C216.596,62.226 216.676,61.668 216.676,61.044 C216.676,59.788 216.36,58.824 215.728,58.152 C215.096,57.48 214.172,57.144 212.956,57.144 L212.956,57.144 L210.988,57.144 L210.988,65.016 L213.004,65.016 Z M212.884,64.2 L211.984,64.2 L211.984,57.96 L212.884,57.96 C213.804,57.96 214.494,58.224 214.954,58.752 C215.414,59.28 215.644,60.044 215.644,61.044 C215.644,62.044 215.414,62.82 214.954,63.372 C214.494,63.924 213.804,64.2 212.884,64.2 L212.884,64.2 Z M219.364,65.016 L219.364,57.144 L218.368,57.144 L218.368,65.016 L219.364,65.016 Z M224.164,65.016 L224.164,57.984 L226.54,57.984 L226.54,57.144 L220.78,57.144 L220.78,57.984 L223.156,57.984 L223.156,65.016 L224.164,65.016 Z M194.326,81.336 L194.326,80.088 C194.95,79.952 195.418,79.678 195.73,79.266 C196.042,78.854 196.198,78.36 196.198,77.784 C196.198,77.4 196.12,77.078 195.964,76.818 C195.808,76.558 195.612,76.336 195.376,76.152 C195.14,75.968 194.886,75.812 194.614,75.684 C194.342,75.556 194.088,75.432 193.852,75.312 C193.616,75.192 193.42,75.066 193.264,74.934 C193.108,74.802 193.03,74.64 193.03,74.448 C193.03,74.176 193.106,73.98 193.258,73.86 C193.41,73.74 193.63,73.68 193.918,73.68 C194.174,73.68 194.402,73.73 194.602,73.83 C194.802,73.93 195.01,74.08 195.226,74.28 L195.226,74.28 L196.114,73.272 C195.882,73.024 195.622,72.812 195.334,72.636 C195.046,72.46 194.71,72.344 194.326,72.288 L194.326,72.288 L194.326,71.076 L193.162,71.076 L193.162,72.312 C192.594,72.424 192.148,72.674 191.824,73.062 C191.5,73.45 191.338,73.94 191.338,74.532 C191.338,74.892 191.416,75.196 191.572,75.444 C191.728,75.692 191.924,75.908 192.16,76.092 C192.396,76.276 192.65,76.434 192.922,76.566 C193.194,76.698 193.448,76.83 193.684,76.962 C193.92,77.094 194.116,77.232 194.272,77.376 C194.428,77.52 194.506,77.696 194.506,77.904 C194.506,78.184 194.428,78.392 194.272,78.528 C194.116,78.664 193.87,78.732 193.534,78.732 C193.246,78.732 192.964,78.674 192.688,78.558 C192.412,78.442 192.122,78.268 191.818,78.036 L191.818,78.036 L191.05,79.224 C191.33,79.48 191.664,79.686 192.052,79.842 C192.44,79.998 192.81,80.096 193.162,80.136 L193.162,80.136 L193.162,81.336 L194.326,81.336 Z M199.882,80.16 C200.25,80.16 200.604,80.1 200.944,79.98 C201.284,79.86 201.582,79.686 201.838,79.458 C202.094,79.23 202.298,78.952 202.45,78.624 C202.602,78.296 202.678,77.92 202.678,77.496 C202.678,77.088 202.614,76.736 202.486,76.44 C202.358,76.144 202.182,75.9 201.958,75.708 C201.734,75.516 201.476,75.372 201.184,75.276 C200.892,75.18 200.582,75.132 200.254,75.132 C200.094,75.132 199.948,75.146 199.816,75.174 C199.684,75.202 199.546,75.248 199.402,75.312 L199.402,75.312 L199.534,73.884 L202.33,73.884 L202.33,72.396 L198.01,72.396 L197.794,76.248 L198.586,76.752 C198.698,76.68 198.8,76.62 198.892,76.572 C198.984,76.524 199.072,76.484 199.156,76.452 C199.24,76.42 199.326,76.398 199.414,76.386 C199.502,76.374 199.602,76.368 199.714,76.368 C200.074,76.368 200.364,76.468 200.584,76.668 C200.804,76.868 200.914,77.16 200.914,77.544 C200.914,77.936 200.798,78.232 200.566,78.432 C200.334,78.632 200.022,78.732 199.63,78.732 C199.302,78.732 199.004,78.658 198.736,78.51 C198.468,78.362 198.218,78.184 197.986,77.976 L197.986,77.976 L197.194,79.092 C197.498,79.396 197.866,79.65 198.298,79.854 C198.73,80.058 199.258,80.16 199.882,80.16 Z M205.054,80.16 C205.358,80.16 205.612,80.054 205.816,79.842 C206.02,79.63 206.122,79.368 206.122,79.056 C206.122,78.736 206.02,78.47 205.816,78.258 C205.612,78.046 205.358,77.94 205.054,77.94 C204.75,77.94 204.496,78.046 204.292,78.258 C204.088,78.47 203.986,78.736 203.986,79.056 C203.986,79.368 204.088,79.63 204.292,79.842 C204.496,80.054 204.75,80.16 205.054,80.16 Z M212.662,80.016 L212.662,78.528 L211.126,78.528 C210.942,78.528 210.732,78.538 210.496,78.558 C210.26,78.578 210.046,78.6 209.854,78.624 C210.166,78.304 210.468,77.978 210.76,77.646 C211.052,77.314 211.312,76.982 211.54,76.65 C211.768,76.318 211.95,75.986 212.086,75.654 C212.222,75.322 212.29,74.996 212.29,74.676 C212.29,74.308 212.23,73.976 212.11,73.68 C211.99,73.384 211.818,73.13 211.594,72.918 C211.37,72.706 211.104,72.542 210.796,72.426 C210.488,72.31 210.146,72.252 209.77,72.252 C209.226,72.252 208.758,72.354 208.366,72.558 C207.974,72.762 207.59,73.064 207.214,73.464 L207.214,73.464 L208.174,74.412 C208.366,74.204 208.57,74.022 208.786,73.866 C209.002,73.71 209.25,73.632 209.53,73.632 C209.866,73.632 210.13,73.73 210.322,73.926 C210.514,74.122 210.61,74.408 210.61,74.784 C210.61,75.056 210.528,75.342 210.364,75.642 C210.2,75.942 209.972,76.266 209.68,76.614 C209.388,76.962 209.04,77.334 208.636,77.73 C208.232,78.126 207.786,78.552 207.298,79.008 L207.298,79.008 L207.298,80.016 L212.662,80.016 Z M216.154,80.16 C216.522,80.16 216.876,80.1 217.216,79.98 C217.556,79.86 217.854,79.686 218.11,79.458 C218.366,79.23 218.57,78.952 218.722,78.624 C218.874,78.296 218.95,77.92 218.95,77.496 C218.95,77.088 218.886,76.736 218.758,76.44 C218.63,76.144 218.454,75.9 218.23,75.708 C218.006,75.516 217.748,75.372 217.456,75.276 C217.164,75.18 216.854,75.132 216.526,75.132 C216.366,75.132 216.22,75.146 216.088,75.174 C215.956,75.202 215.818,75.248 215.674,75.312 L215.674,75.312 L215.806,73.884 L218.602,73.884 L218.602,72.396 L214.282,72.396 L214.066,76.248 L214.858,76.752 C214.97,76.68 215.072,76.62 215.164,76.572 C215.256,76.524 215.344,76.484 215.428,76.452 C215.512,76.42 215.598,76.398 215.686,76.386 C215.774,76.374 215.874,76.368 215.986,76.368 C216.346,76.368 216.636,76.468 216.856,76.668 C217.076,76.868 217.186,77.16 217.186,77.544 C217.186,77.936 217.07,78.232 216.838,78.432 C216.606,78.632 216.294,78.732 215.902,78.732 C215.574,78.732 215.276,78.658 215.008,78.51 C214.74,78.362 214.49,78.184 214.258,77.976 L214.258,77.976 L213.466,79.092 C213.77,79.396 214.138,79.65 214.57,79.854 C215.002,80.058 215.53,80.16 216.154,80.16 Z M223.75,80.016 L223.75,73.68 L225.898,73.68 L225.898,72.192 L219.826,72.192 L219.826,73.68 L221.974,73.68 L221.974,80.016 L223.75,80.016 Z" id="POTENTIALCREDIT$5.25T" fill="#666666" fill-rule="nonzero"></path>
                <polyline id="Path-21-Copy-2" stroke="#979797" stroke-width="0.5" points="0 96 0 86 87 86 87 96"></polyline>
                <use id="Rectangle-Copy-16" stroke="#4A1D7A" mask="url(#mask-4)" stroke-width="2" fill-opacity="0.202524038" fill="#4A1D7A" stroke-linecap="round" stroke-linejoin="round" stroke-dasharray="4,3" transform="translate(196.500000, 115.000000) rotate(90.000000) translate(-196.500000, -115.000000) " xlink:href="#path-3"></use>
                <line x1="132.5" y1="28.5" x2="132.5" y2="16.5" id="Line-14" stroke="#D8D8D8" stroke-linecap="round" stroke-linejoin="round" stroke-dasharray="3,3"></line>
                <line x1="43.5" y1="86" x2="43.5" y2="78" id="Line-14-Copy-2" stroke="#979797" stroke-width="0.5" stroke-linecap="square"></line>
                <line x1="108.5" y1="96" x2="108.5" y2="88" id="Line-14-Copy-4" stroke="#979797" stroke-width="0.5" stroke-linecap="square"></line>
                <line x1="209.5" y1="95" x2="209.5" y2="87" id="Line-14-Copy-5" stroke="#979797" stroke-width="0.5" stroke-linecap="square"></line>
                <rect id="Rectangle" fill="#6F41A7" x="72" y="95" width="15" height="40"></rect>
                <rect id="Rectangle-Copy-13" fill="#6F41A7" x="4" y="95" width="67" height="40"></rect>
                <rect id="Rectangle-Copy-14" fill="#6F41A7" x="2" y="95" width="1" height="40"></rect>
                <rect id="Rectangle-Copy-17" fill="#6F41A7" x="0" y="95" width="1" height="40"></rect>
            </g>
        </g>
    </g>
</svg>