<?xml version="1.0" encoding="UTF-8"?>
<svg width="74px" height="96px" viewBox="0 0 74 96" version="1.1" xmlns="http://www.w3.org/2000/svg" xmlns:xlink="http://www.w3.org/1999/xlink" role="img">
    <desc>government placeholder alt text</desc>
    <g id="Viz-3-(v2)" stroke="none" stroke-width="1" fill="none" fill-rule="evenodd">
        <g id="Viz-3---Modal---Law-Summaries" transform="translate(-67.000000, -466.000000)">
            <g id="Modal---Phase-1" transform="translate(40.000000, 120.000000)">
                <g id="biz/govt" transform="translate(27.000000, 340.000000)">
                    <g id="icon_govt" transform="translate(0.000000, 6.000000)">
                        <rect id="Rectangle" fill="#6F41A7" opacity="0.2" x="1" y="91" width="72" height="4"></rect>
                        <rect id="Rectangle" fill="#6F41A7" opacity="0.2" x="17" y="53" width="41" height="3"></rect>
                        <polygon id="Rectangle" fill="#6F41A7" opacity="0.2" points="30 67 30 83 23 83"></polygon>
                        <polygon id="Rectangle-Copy-6" fill="#6F41A7" opacity="0.2" points="22 67 22 83 15 83"></polygon>
                        <polygon id="Rectangle-Copy" fill="#6F41A7" opacity="0.2" points="45 67 45 83 38 83"></polygon>
                        <polygon id="Rectangle-Copy-3" fill="#6F41A7" opacity="0.2" points="53 67 53 83 46 83"></polygon>
                        <polygon id="Rectangle-Copy-5" fill="#6F41A7" opacity="0.2" points="60 67 60 83 54 83"></polygon>
                        <polygon id="Rectangle-Copy-8" fill="#6F41A7" opacity="0.2" points="15 57 15 83 4 83"></polygon>
                        <polygon id="Rectangle-Copy-9" fill="#6F41A7" opacity="0.2" points="71 57 71 83 60 83"></polygon>
                        <polygon id="Rectangle-Copy-2" fill="#6F41A7" opacity="0.2" points="37 67 37 83 31 83"></polygon>
                        <polygon id="Path-3" fill="#6F41A7" opacity="0.2" points="38.2466814 19.9196273 38.2466814 42.7476275 20.0865267 44.8457031 20.0865267 37.5683897 22.4776067 36.0461922 22.4776067 32.2632901 23.8448072 30.9312912 26.2250977 25.195964 30.9482422 21.3276367 35.8012695 19.9196272"></polygon>
                        <polygon id="Path-4" fill="#6F41A7" opacity="0.2" points="38.2466814 2.16308594 38.2466814 18.9832973 42.7311653 20.6230469 42.7311653 18.0469673 41.5 18.0469673 40.71713 10.530803 39.9496507 8.55371094"></polygon>
                        <polyline id="Stroke-1" stroke="#4A2B78" stroke-linecap="round" stroke-linejoin="round" points="60 82 60 56 16 56 16 82"></polyline>
                        <polyline id="Stroke-2" stroke="#4A2B78" stroke-linecap="round" stroke-linejoin="round" points="4 82 4 58 16 58"></polyline>
                        <polyline id="Stroke-3" stroke="#4A2B78" stroke-linecap="round" stroke-linejoin="round" points="60 58 72 58 72 82"></polyline>
                        <polyline id="Stroke-4" stroke="#4A2B78" stroke-width="1.3225" stroke-linecap="round" stroke-linejoin="round" points="0.6609855 94.5194717 0.6609855 83.1168767 72.8033605 83.1168767 72.8033605 95.1093067"></polyline>
                        <polyline id="Stroke-6" stroke="#4A2B78" stroke-linecap="square" stroke-linejoin="bevel" points="32.5029503 19.2028322 32.5029503 18.0469672 42.7311653 18.0469672 42.7311653 19.9196272"></polyline>
                        <path d="M34.260685,16.794163 L34.260685,10.530803 C34.260685,10.530803 38.2109925,8.6039205 40.71713,10.530803 L40.71713,16.794163" id="Stroke-7" stroke="#4A2B78" stroke-linecap="square" stroke-linejoin="bevel"></path>
                        <path d="M36.7662935,8.31416075 C36.7186835,5.97862575 36.5917235,3.83485325 36.545436,1.50064075 C36.5414685,1.33797325 36.5388235,1.17001575 36.603626,1.02057325 C36.754391,0.66482075 37.2661985,0.55902075 37.590211,0.76797575 C37.915546,0.97825325 38.045151,1.41467825 37.9671235,1.79423575 C37.941996,1.92516325 37.8957085,2.06534825 37.9512535,2.18834075 C38.031926,2.36555575 38.269976,2.38803825 38.447191,2.47532325 C38.928581,2.71205075 38.9008085,3.39049325 38.851876,3.92610575 C38.7130135,5.44433575 38.9933835,6.99827325 39.653311,8.37235075 C39.8186235,8.71752325 40.013031,9.08914575 39.9297135,9.46209075" id="Stroke-9" stroke="#4A2B78" stroke-linecap="square" stroke-linejoin="bevel"></path>
                        <line x1="17.9675" y1="60.0509535" x2="57.9675" y2="60.0509535" id="Stroke-11" stroke="#4A2B78" stroke-linecap="square" stroke-linejoin="bevel"></line>
                        <line x1="17.9675" y1="64.0509535" x2="57.9675" y2="64.0509535" id="Stroke-13" stroke="#4A2B78" stroke-linecap="square" stroke-linejoin="bevel"></line>
                        <line x1="60.9675" y1="61.0509535" x2="68.9675" y2="61.0509535" id="Stroke-15" stroke="#4A2B78" stroke-linecap="square" stroke-linejoin="bevel"></line>
                        <line x1="6.9675" y1="61.0509535" x2="14.9675" y2="61.0509535" id="Stroke-17" stroke="#4A2B78" stroke-linecap="square" stroke-linejoin="bevel"></line>
                        <line x1="22.5" y1="67" x2="22.5" y2="77" id="Stroke-19" stroke="#4A2B78" stroke-width="1.3225" stroke-linecap="square" stroke-linejoin="bevel"></line>
                        <line x1="30.0397048" y1="67" x2="30.0397048" y2="77" id="Stroke-21" stroke="#4A2B78" stroke-width="1.3225" stroke-linecap="square" stroke-linejoin="bevel"></line>
                        <line x1="37.5808643" y1="67" x2="37.5808643" y2="77" id="Stroke-23" stroke="#4A2B78" stroke-width="1.3225" stroke-linecap="square" stroke-linejoin="bevel"></line>
                        <line x1="45.1207013" y1="67" x2="45.1207013" y2="77" id="Stroke-25" stroke="#4A2B78" stroke-width="1.3225" stroke-linecap="square" stroke-linejoin="bevel"></line>
                        <line x1="52.6617285" y1="67" x2="52.6617285" y2="77" id="Stroke-27" stroke="#4A2B78" stroke-width="1.3225" stroke-linecap="square" stroke-linejoin="bevel"></line>
                        <path d="M23.8448073,30.4750287 C26.3416873,22.2794962 34.3798423,17.4206312 42.4457698,20.2904562 C47.0070723,21.9118412 50.1361073,26.5194312 51.7905548,30.9312912" id="Stroke-29" stroke="#4A2B78" stroke-linecap="square" stroke-linejoin="bevel"></path>
                        <path d="M22,36.0715097 L22,33.3722872 C22.0013225,31.9426647 29.122985,31.3038972 30.2352075,31.1187472 C37.539375,29.9099822 46.326065,30.2683797 53.3181225,32.8908972 L53.3181225,35.3004922" id="Stroke-31" stroke="#4A2B78" stroke-linecap="square" stroke-linejoin="bevel"></path>
                        <path d="M20.0865268,44.8317497 L20.0865268,38.5683897 C20.0865268,38.1676722 22.1985593,37.1943122 22.4776068,37.0461922 C24.6875043,35.8665222 27.1156143,35.0320247 29.5741418,34.5585697 C38.0857518,32.9199922 47.7095843,33.5468572 55.4514993,37.7008297 L55.4514993,45.2179197" id="Stroke-33" stroke="#4A2B78" stroke-linecap="square" stroke-linejoin="bevel"></path>
                        <path d="M17.4854338,54.9141675 L17.4854338,46.337755 C17.4867563,45.084025 24.7155413,44.08686 25.5950038,43.920225 C36.3985063,41.8690275 48.0127013,42.28297 58.1020538,46.9765225 L58.1020538,55.4921" id="Stroke-35" stroke="#4A2B78" stroke-linecap="square" stroke-linejoin="bevel"></path>
                    </g>
                </g>
            </g>
        </g>
    </g>
</svg>