<?xml version="1.0" encoding="UTF-8"?>
<svg width="79px" height="78px" viewBox="0 0 79 78" version="1.1" xmlns="http://www.w3.org/2000/svg" xmlns:xlink="http://www.w3.org/1999/xlink" role="img">
    <desc>individuals placeholder alt text</desc>
    <g id="Viz-3-(v2)" stroke="none" stroke-width="1" fill="none" fill-rule="evenodd">
        <g id="Viz-3---Modal---Law-Summaries" transform="translate(-669.000000, -444.000000)">
            <g id="Modal---Phase-2" transform="translate(644.000000, 120.000000)">
                <g id="individuals" transform="translate(26.000000, 319.000000)">
                    <g id="icon_individuals" transform="translate(0.000000, 6.000000)">
                        <path d="M73.4581431,66.811 C73.1354642,66.531 72.6347032,66.177 72,65.967 L74,65.189 L73.4581431,66.811 Z M58.2917256,67.9807074 C58.1591231,67.9807074 58.0123762,67.9614148 58,68 C58,68 58.0035361,67.9646302 58.0335926,67.9163987 L60.0703678,65.2395498 L60.2206506,65 L63,66.4855305 L58.2917256,67.9807074 Z M56.9695341,65.4633964 C56.9641577,65.498257 56.9623656,65.5348606 56.9623656,65.5679781 L54.8620072,68.6147908 C54.7724014,68.7437749 54.7204301,68.874502 54.6935484,69 C54.6433692,68.9738546 54.5913978,68.9564243 54.5394265,68.9442231 C54.4677419,68.6653386 54.2526882,68.4335159 54,68.2661853 C54.0734767,67.8949203 54.0519713,67.4574203 54.0215054,67.2203685 L54.3261649,64.9910359 C54.4820789,64.7417829 54.4784946,64.3949203 54.4390681,64.1142928 C54.578853,63.875498 54.6039427,63.5443227 54.5913978,63.2933267 L54.5949821,63.2532371 C54.8243728,63.1033367 54.9731183,62.7582171 55.0394265,62.2004482 L55.0412186,62 C56.062724,62.8505976 57.4354839,63.5199203 57.483871,63.5390936 L57.5430108,63.5774402 C57.5734767,63.7273406 57.6415771,63.8336653 57.7043011,63.9068725 C57.7956989,64.0114542 57.9086022,64.0776892 58,64.1125498 L57.5394265,64.7609562 L57.4301075,64.8864542 C57.1577061,65.0468127 57.0017921,65.2402888 56.9695341,65.4633964 L56.9695341,65.4633964 Z M56.995,69.4273271 C56.993,69.4313271 56.651,69.5333271 56.429,69.3713271 C56.447,69.3293271 56.479,69.2713271 56.533,69.1953271 L56.981,68.5373271 C57.013,68.6153271 57.057,68.6933271 57.117,68.7653271 C57.125,68.7853271 57.245,69.0433271 57.571,69.2073271 L56.995,69.4273271 Z M55.52,57.8102564 C55.934,58.7846154 56.42,59.4940171 56.87,60 C55.962,59.3094017 55.342,58.0820513 55.214,57.8153846 L55.13,57 L55.52,57.8102564 Z M76.4247206,62.9451018 L59.6809082,55.3702657 C59.2902192,55.1853783 58.845578,55.2667288 58.8288342,55.2741243 L57.4037497,55.351777 C57.2195678,55.3628702 56.6577198,55.3943011 56.5405132,55.8620661 C56.4549337,56.1948634 56.6837658,56.464799 56.908877,56.640442 L57.1135236,58.0289463 C56.7265555,57.1414868 56.2056369,55.8805549 55.863319,55.043015 C55.9656423,54.9930954 56.056803,54.9172916 56.0995928,54.8396389 C56.2595892,54.5567612 56.1163366,54.2424527 56.0307571,54.105636 L55.8800628,53.826456 C55.3665859,53.0480802 54.7489252,51.2824056 54.7340418,51.276859 C54.7340418,51.101216 54.923805,50.369062 55.094964,49.8088532 C55.5135593,48.6514582 56.0177341,45.8485654 56.0326175,45.7542729 C56.4679566,43.9331321 56.3451687,42.3005765 56.3414478,42.2820878 C56.3823771,40.9268633 55.727508,39.7306419 55.7163455,39.7306419 L55.4354215,38.8413336 C55.3814693,38.512234 55.1024057,38.0906908 54.8865966,37.8041153 C54.9052008,37.6414145 55.0019428,37.340048 55.1061266,37.1163343 C55.2419375,36.8611897 55.3405399,36.7262219 55.3851901,36.6707557 L55.898667,36.5561255 C56.4567941,36.5302413 56.70237,36.2880388 56.8102746,36.0902093 C56.9684106,35.7980872 56.8958541,35.4985697 56.8232975,35.3229267 C56.8437622,35.2951935 56.860506,35.2656116 56.8698081,35.2378785 C56.9107374,35.1361904 56.9181791,35.0326535 56.9107374,34.9439075 C56.9200396,34.9328143 56.9312021,34.921721 56.9405042,34.9106278 C57.0446879,34.7719623 57.0725943,34.614808 57.0725943,34.4890846 C57.2623575,34.3984897 57.3646808,34.2635219 57.4167727,34.1433451 C57.6065359,33.7181042 57.2977056,33.2928632 57.1991031,33.1689886 L57.018642,32.9508215 C57.0279441,32.9304839 57.0391067,32.9119952 57.0484088,32.8916576 C57.1749176,32.5939889 57.0539901,32.2704359 57.0112003,32.1853878 C57.6939758,32.107735 57.8911807,31.7971242 57.9488538,31.5567706 C58.0028061,31.2073335 57.8056012,30.9022693 56.7172534,30.569472 C56.26331,29.2826558 55.6568119,28.5948748 55.630766,28.5671416 C54.6391602,27.4319331 52.2317721,28.3323347 51.9489877,28.4469648 C50.1778644,29.2031542 50.1722832,31.0612725 50.4048361,31.8766258 L50.4383238,32.1114328 C50.2485605,32.6494551 50.4736718,33.0673006 50.6894809,33.2817699 L50.6857601,33.2928632 C50.6132036,33.6829756 50.9257547,34.1285542 51.2345851,34.4595026 C51.2866769,34.6406922 51.3517917,34.8181841 51.4503942,34.9568496 C51.0987741,34.936512 50.8066876,35.0714798 50.6727371,35.1435859 L49.5471808,35.4689877 C47.852335,35.6612706 47.3853686,36.4045179 47.2588598,36.7447106 L46.5407363,37.560064 C45.2365794,38.4345813 44.0682334,39.9451113 44.0663729,39.9580534 L43.3910392,40.6033103 C42.7677973,41.135786 42.9724439,41.9141619 43.201276,42.3190653 C43.552896,44.1124729 44.1928817,45.0886783 44.5054329,45.4750929 C44.5054329,45.767215 44.6617085,46.0279062 44.7491484,46.1554785 L45.1863479,47.2315231 C45.2291377,47.8083717 45.4691323,48.5294325 45.5547118,48.7771816 C45.5565722,49.2560399 45.7407542,49.592535 45.9454008,49.8033066 L45.6440121,51.0938205 C45.5695952,51.3600583 45.6068037,51.6170518 45.7519167,51.8370678 C45.928657,52.1014568 46.2263247,52.2530644 46.4719006,52.332566 C46.6318971,54.076054 47.3351372,54.7971148 47.6458279,55.0337707 L48.142561,56.0044294 L48.5369708,57.3707472 L48.5369708,59.6060357 C48.5555751,60.0349744 48.0476794,60.2882701 48.0495399,60.2882701 C45.731452,61.3754079 45.002166,62.1722726 44.7863569,62.6270955 L44.3640407,62.8452626 C43.7817281,62.9987192 43.4133642,63.425809 43.2384844,63.7419664 L42.1836242,64.320664 C42.0496737,64.3391527 41.9213045,64.3964678 41.8245625,64.451934 C40.7808649,64.4131076 40.2673879,64.6035417 40.0125099,64.7791847 C39.5027538,64.8494419 39.2553175,65.1156797 39.13439,65.3393934 C38.7027717,66.1436536 39.437639,67.4175276 39.5660082,67.6209038 C39.6850754,67.8705017 39.9101866,67.9906785 40.1594834,68.0202605 L40.2971547,68.7320769 C40.1725063,69.1628645 40.3827342,69.8414012 40.9185362,70.7436517 C41.3017835,71.4850501 41.7203788,71.882558 42.2003681,71.9639084 C42.5501277,72.0193746 42.8533767,71.8770113 42.9854668,71.7512879 L43.3798766,71.4110951 C43.9249807,70.8305487 43.5287105,69.7175267 43.4189455,69.4660799 L43.3315056,69.068572 C43.3780162,68.994617 43.4208059,68.9058711 43.4598748,68.8004853 C43.5566169,68.6821573 43.6031275,68.5379452 43.6254525,68.4196173 C43.7296363,68.3234758 43.7947511,68.2014501 43.8300991,68.0757267 C43.8728889,68.0479936 43.9119578,68.0184116 43.9473058,67.9795853 C43.9863747,67.9407589 44.0180019,67.8945371 44.0440478,67.852013 L44.9258886,67.7299873 C45.4449468,67.6726722 45.6812206,67.4138299 45.7891252,67.2030583 C45.9435403,66.9016918 45.9007506,66.5651968 45.8226128,66.3082033 C46.0830721,66.1769333 46.4719006,65.8959045 47.0635153,65.3209047 L50.3750693,63.3999248 C50.3750693,63.3999248 50.3769298,63.3999248 50.3787902,63.3980759 L50.2932107,64.3169662 C50.0346118,66.3969493 50.4308821,67.6560324 50.6448308,68.1533794 L50.5908785,68.2587652 C50.4587884,68.49727 50.0569369,69.2220285 50.4308821,69.7748418 C50.540647,69.9375427 50.6894809,70.0392307 50.8401752,70.1020925 C50.8178502,70.2980731 50.8271523,70.5347289 50.8662212,70.8083623 L50.8866858,71.3131048 C50.518322,71.8936512 50.518322,72.6664805 50.5443679,73.0307086 C50.3992549,73.3098886 50.4141382,73.6741167 50.443905,73.860853 C50.4253008,74.4266084 51.0634261,74.7409169 52.3099099,74.7963831 C52.5201378,74.8093252 52.7005988,74.7520102 52.8364098,74.6410777 L53.5080227,74.8943734 C55.0800806,75.6265275 57.567467,75.1513669 57.6995571,75.1273315 C58.1851276,75.0016081 58.3804721,74.7372192 58.4586099,74.533843 C58.5739561,74.2343255 58.4827954,73.9495989 58.4102389,73.7924446 C58.358147,73.3893901 58.1665234,73.1471877 58.0083874,73.0122199 C57.6214193,72.6775737 57.1265466,72.7090046 57.1804989,72.7182489 C56.7712057,72.6553872 56.3135415,72.3614163 56.0661051,72.1765289 C56.0177341,72.0119791 55.9265734,71.8751625 55.8205292,71.7679278 C55.7721582,71.6422044 55.6809975,71.5312719 55.5544886,71.4499215 C55.5098385,71.3907575 55.4558862,71.3408379 55.3982131,71.3001627 L55.3535629,71.2151145 C55.3089127,71.0690535 55.2158916,70.9544233 55.1024057,70.8749217 L54.998222,70.6475102 C55.0279888,70.5014492 55.1619393,70.2037805 55.3256565,69.9282983 C55.3424004,69.8931697 55.3554233,69.8580411 55.3665859,69.8247614 C55.9749444,70.3960634 56.7395785,70.3202596 57.0837568,70.1871406 L64.6724247,67.2603734 L64.7077727,67.2492801 L64.9682321,67.3934923 C65.1375306,67.5081225 65.3924086,67.6523346 65.6175199,67.6393925 L65.9784421,67.8741995 C63.8463966,71.1393107 66.0919279,73.9181681 66.0937883,73.9181681 C67.3160866,75.7115757 69.3699943,76 70.5662467,76 C71.094607,76 71.4555291,75.9445338 71.5039001,75.9371383 C73.5522265,75.5618169 74.5326698,74.1566728 74.9103358,73.4319142 C75.2638162,73.5280557 75.5652049,73.5077181 75.8126412,73.3653548 C76.1214715,73.1934095 76.2535616,72.8735543 76.2517012,72.7533775 C76.4247206,72.2209019 75.9112437,71.6717863 75.477765,71.3223492 C75.5335777,69.4364979 74.5549948,68.072029 74.1308183,67.5709842 C74.3354649,66.9682513 74.92894,65.7424479 75.3493957,64.9270946 L75.6675282,64.8346509 L76.0898443,64.9104547 C76.4433248,65.0343293 76.6665756,64.9049081 76.7688989,64.8161621 C77.0163353,64.6090883 77.010754,64.2929308 76.9921498,64.1468698 L76.9921498,63.5940565 C76.9921498,63.2168863 76.6609944,62.9968703 76.4247206,62.9451018 L76.4247206,62.9451018 Z" id="Fill-1" stroke="#6F41A7" stroke-width="1.3" transform="translate(58.000000, 52.000000) scale(-1, 1) translate(-58.000000, -52.000000) "></path>
                        <path d="M70.4581431,66.811 C70.1354642,66.531 69.6347032,66.177 69,65.967 L71,65.189 L70.4581431,66.811 Z M55.2917256,67.9807074 C55.1591231,67.9807074 55.0123762,67.9614148 55,68 C55,68 55.0035361,67.9646302 55.0335926,67.9163987 L57.0703678,65.2395498 L57.2206506,65 L60,66.4855305 L55.2917256,67.9807074 Z M53.9695341,65.4633964 C53.9641577,65.498257 53.9623656,65.5348606 53.9623656,65.5679781 L51.8620072,68.6147908 C51.7724014,68.7437749 51.7204301,68.874502 51.6935484,69 C51.6433692,68.9738546 51.5913978,68.9564243 51.5394265,68.9442231 C51.4677419,68.6653386 51.2526882,68.4335159 51,68.2661853 C51.0734767,67.8949203 51.0519713,67.4574203 51.0215054,67.2203685 L51.3261649,64.9910359 C51.4820789,64.7417829 51.4784946,64.3949203 51.4390681,64.1142928 C51.578853,63.875498 51.6039427,63.5443227 51.5913978,63.2933267 L51.5949821,63.2532371 C51.8243728,63.1033367 51.9731183,62.7582171 52.0394265,62.2004482 L52.0412186,62 C53.062724,62.8505976 54.4354839,63.5199203 54.483871,63.5390936 L54.5430108,63.5774402 C54.5734767,63.7273406 54.6415771,63.8336653 54.7043011,63.9068725 C54.7956989,64.0114542 54.9086022,64.0776892 55,64.1125498 L54.5394265,64.7609562 L54.4301075,64.8864542 C54.1577061,65.0468127 54.0017921,65.2402888 53.9695341,65.4633964 L53.9695341,65.4633964 Z M53.995,69.4273271 C53.993,69.4313271 53.651,69.5333271 53.429,69.3713271 C53.447,69.3293271 53.479,69.2713271 53.533,69.1953271 L53.981,68.5373271 C54.013,68.6153271 54.057,68.6933271 54.117,68.7653271 C54.125,68.7853271 54.245,69.0433271 54.571,69.2073271 L53.995,69.4273271 Z M52.52,57.8102564 C52.934,58.7846154 53.42,59.4940171 53.87,60 C52.962,59.3094017 52.342,58.0820513 52.214,57.8153846 L52.13,57 L52.52,57.8102564 Z M73.4247206,62.9451018 L56.6809082,55.3702657 C56.2902192,55.1853783 55.845578,55.2667288 55.8288342,55.2741243 L54.4037497,55.351777 C54.2195678,55.3628702 53.6577198,55.3943011 53.5405132,55.8620661 C53.4549337,56.1948634 53.6837658,56.464799 53.908877,56.640442 L54.1135236,58.0289463 C53.7265555,57.1414868 53.2056369,55.8805549 52.863319,55.043015 C52.9656423,54.9930954 53.056803,54.9172916 53.0995928,54.8396389 C53.2595892,54.5567612 53.1163366,54.2424527 53.0307571,54.105636 L52.8800628,53.826456 C52.3665859,53.0480802 51.7489252,51.2824056 51.7340418,51.276859 C51.7340418,51.101216 51.923805,50.369062 52.094964,49.8088532 C52.5135593,48.6514582 53.0177341,45.8485654 53.0326175,45.7542729 C53.4679566,43.9331321 53.3451687,42.3005765 53.3414478,42.2820878 C53.3823771,40.9268633 52.727508,39.7306419 52.7163455,39.7306419 L52.4354215,38.8413336 C52.3814693,38.512234 52.1024057,38.0906908 51.8865966,37.8041153 C51.9052008,37.6414145 52.0019428,37.340048 52.1061266,37.1163343 C52.2419375,36.8611897 52.3405399,36.7262219 52.3851901,36.6707557 L52.898667,36.5561255 C53.4567941,36.5302413 53.70237,36.2880388 53.8102746,36.0902093 C53.9684106,35.7980872 53.8958541,35.4985697 53.8232975,35.3229267 C53.8437622,35.2951935 53.860506,35.2656116 53.8698081,35.2378785 C53.9107374,35.1361904 53.9181791,35.0326535 53.9107374,34.9439075 C53.9200396,34.9328143 53.9312021,34.921721 53.9405042,34.9106278 C54.0446879,34.7719623 54.0725943,34.614808 54.0725943,34.4890846 C54.2623575,34.3984897 54.3646808,34.2635219 54.4167727,34.1433451 C54.6065359,33.7181042 54.2977056,33.2928632 54.1991031,33.1689886 L54.018642,32.9508215 C54.0279441,32.9304839 54.0391067,32.9119952 54.0484088,32.8916576 C54.1749176,32.5939889 54.0539901,32.2704359 54.0112003,32.1853878 C54.6939758,32.107735 54.8911807,31.7971242 54.9488538,31.5567706 C55.0028061,31.2073335 54.8056012,30.9022693 53.7172534,30.569472 C53.26331,29.2826558 52.6568119,28.5948748 52.630766,28.5671416 C51.6391602,27.4319331 49.2317721,28.3323347 48.9489877,28.4469648 C47.1778644,29.2031542 47.1722832,31.0612725 47.4048361,31.8766258 L47.4383238,32.1114328 C47.2485605,32.6494551 47.4736718,33.0673006 47.6894809,33.2817699 L47.6857601,33.2928632 C47.6132036,33.6829756 47.9257547,34.1285542 48.2345851,34.4595026 C48.2866769,34.6406922 48.3517917,34.8181841 48.4503942,34.9568496 C48.0987741,34.936512 47.8066876,35.0714798 47.6727371,35.1435859 L46.5471808,35.4689877 C44.852335,35.6612706 44.3853686,36.4045179 44.2588598,36.7447106 L43.5407363,37.560064 C42.2365794,38.4345813 41.0682334,39.9451113 41.0663729,39.9580534 L40.3910392,40.6033103 C39.7677973,41.135786 39.9724439,41.9141619 40.201276,42.3190653 C40.552896,44.1124729 41.1928817,45.0886783 41.5054329,45.4750929 C41.5054329,45.767215 41.6617085,46.0279062 41.7491484,46.1554785 L42.1863479,47.2315231 C42.2291377,47.8083717 42.4691323,48.5294325 42.5547118,48.7771816 C42.5565722,49.2560399 42.7407542,49.592535 42.9454008,49.8033066 L42.6440121,51.0938205 C42.5695952,51.3600583 42.6068037,51.6170518 42.7519167,51.8370678 C42.928657,52.1014568 43.2263247,52.2530644 43.4719006,52.332566 C43.6318971,54.076054 44.3351372,54.7971148 44.6458279,55.0337707 L45.142561,56.0044294 L45.5369708,57.3707472 L45.5369708,59.6060357 C45.5555751,60.0349744 45.0476794,60.2882701 45.0495399,60.2882701 C42.731452,61.3754079 42.002166,62.1722726 41.7863569,62.6270955 L41.3640407,62.8452626 C40.7817281,62.9987192 40.4133642,63.425809 40.2384844,63.7419664 L39.1836242,64.320664 C39.0496737,64.3391527 38.9213045,64.3964678 38.8245625,64.451934 C37.7808649,64.4131076 37.2673879,64.6035417 37.0125099,64.7791847 C36.5027538,64.8494419 36.2553175,65.1156797 36.13439,65.3393934 C35.7027717,66.1436536 36.437639,67.4175276 36.5660082,67.6209038 C36.6850754,67.8705017 36.9101866,67.9906785 37.1594834,68.0202605 L37.2971547,68.7320769 C37.1725063,69.1628645 37.3827342,69.8414012 37.9185362,70.7436517 C38.3017835,71.4850501 38.7203788,71.882558 39.2003681,71.9639084 C39.5501277,72.0193746 39.8533767,71.8770113 39.9854668,71.7512879 L40.3798766,71.4110951 C40.9249807,70.8305487 40.5287105,69.7175267 40.4189455,69.4660799 L40.3315056,69.068572 C40.3780162,68.994617 40.4208059,68.9058711 40.4598748,68.8004853 C40.5566169,68.6821573 40.6031275,68.5379452 40.6254525,68.4196173 C40.7296363,68.3234758 40.7947511,68.2014501 40.8300991,68.0757267 C40.8728889,68.0479936 40.9119578,68.0184116 40.9473058,67.9795853 C40.9863747,67.9407589 41.0180019,67.8945371 41.0440478,67.852013 L41.9258886,67.7299873 C42.4449468,67.6726722 42.6812206,67.4138299 42.7891252,67.2030583 C42.9435403,66.9016918 42.9007506,66.5651968 42.8226128,66.3082033 C43.0830721,66.1769333 43.4719006,65.8959045 44.0635153,65.3209047 L47.3750693,63.3999248 C47.3750693,63.3999248 47.3769298,63.3999248 47.3787902,63.3980759 L47.2932107,64.3169662 C47.0346118,66.3969493 47.4308821,67.6560324 47.6448308,68.1533794 L47.5908785,68.2587652 C47.4587884,68.49727 47.0569369,69.2220285 47.4308821,69.7748418 C47.540647,69.9375427 47.6894809,70.0392307 47.8401752,70.1020925 C47.8178502,70.2980731 47.8271523,70.5347289 47.8662212,70.8083623 L47.8866858,71.3131048 C47.518322,71.8936512 47.518322,72.6664805 47.5443679,73.0307086 C47.3992549,73.3098886 47.4141382,73.6741167 47.443905,73.860853 C47.4253008,74.4266084 48.0634261,74.7409169 49.3099099,74.7963831 C49.5201378,74.8093252 49.7005988,74.7520102 49.8364098,74.6410777 L50.5080227,74.8943734 C52.0800806,75.6265275 54.567467,75.1513669 54.6995571,75.1273315 C55.1851276,75.0016081 55.3804721,74.7372192 55.4586099,74.533843 C55.5739561,74.2343255 55.4827954,73.9495989 55.4102389,73.7924446 C55.358147,73.3893901 55.1665234,73.1471877 55.0083874,73.0122199 C54.6214193,72.6775737 54.1265466,72.7090046 54.1804989,72.7182489 C53.7712057,72.6553872 53.3135415,72.3614163 53.0661051,72.1765289 C53.0177341,72.0119791 52.9265734,71.8751625 52.8205292,71.7679278 C52.7721582,71.6422044 52.6809975,71.5312719 52.5544886,71.4499215 C52.5098385,71.3907575 52.4558862,71.3408379 52.3982131,71.3001627 L52.3535629,71.2151145 C52.3089127,71.0690535 52.2158916,70.9544233 52.1024057,70.8749217 L51.998222,70.6475102 C52.0279888,70.5014492 52.1619393,70.2037805 52.3256565,69.9282983 C52.3424004,69.8931697 52.3554233,69.8580411 52.3665859,69.8247614 C52.9749444,70.3960634 53.7395785,70.3202596 54.0837568,70.1871406 L61.6724247,67.2603734 L61.7077727,67.2492801 L61.9682321,67.3934923 C62.1375306,67.5081225 62.3924086,67.6523346 62.6175199,67.6393925 L62.9784421,67.8741995 C60.8463966,71.1393107 63.0919279,73.9181681 63.0937883,73.9181681 C64.3160866,75.7115757 66.3699943,76 67.5662467,76 C68.094607,76 68.4555291,75.9445338 68.5039001,75.9371383 C70.5522265,75.5618169 71.5326698,74.1566728 71.9103358,73.4319142 C72.2638162,73.5280557 72.5652049,73.5077181 72.8126412,73.3653548 C73.1214715,73.1934095 73.2535616,72.8735543 73.2517012,72.7533775 C73.4247206,72.2209019 72.9112437,71.6717863 72.477765,71.3223492 C72.5335777,69.4364979 71.5549948,68.072029 71.1308183,67.5709842 C71.3354649,66.9682513 71.92894,65.7424479 72.3493957,64.9270946 L72.6675282,64.8346509 L73.0898443,64.9104547 C73.4433248,65.0343293 73.6665756,64.9049081 73.7688989,64.8161621 C74.0163353,64.6090883 74.010754,64.2929308 73.9921498,64.1468698 L73.9921498,63.5940565 C73.9921498,63.2168863 73.6609944,62.9968703 73.4247206,62.9451018 L73.4247206,62.9451018 Z" id="Fill-1" fill-opacity="0.305315778" fill="#4A2B79" transform="translate(55.000000, 52.000000) scale(-1, 1) translate(-55.000000, -52.000000) "></path>
                        <path d="M29.0604334,28.4310793 C29.499404,27.0695614 28.5089628,26.2727757 27.8648452,26.0140257 L25.6280805,24.5149186 C25.3898452,24.1945614 24.9023452,23.9029543 24.5582275,23.7263472 C23.8413158,22.9275079 22.8508746,22.5619722 22.5641099,22.4675079 C21.0839628,21.6152757 18.5030805,22.011615 18.4104334,22.02599 L17.0824922,22.1923293 C17.0251393,21.99724 16.9435216,21.8309007 16.8729334,21.70974 C17.0008746,21.2230436 17.0008746,20.7794722 16.9898452,20.5823293 C17.1927863,19.8943829 16.9611687,19.4836686 16.9435216,19.46724 C16.6457275,18.8224186 15.5163158,18.8080436 14.5104334,18.9374186 L13.9854334,18.360365 C13.2729334,17.6334007 11.8060216,18.2001864 11.3780805,18.3870614 C9.86484517,19.0380436 9.41925693,19.7917043 9.30234517,20.0607222 C8.60969811,21.1162579 8.96925693,21.9910793 9.18102164,22.3484007 C8.10455105,23.60724 7.96999223,24.84349 7.96337458,24.9523293 C7.97440399,25.720365 8.36484517,26.1269722 8.69131576,26.3343829 C9.45013929,26.812865 10.6104334,26.6773293 11.3891099,26.5048293 L10.9766099,27.1311686 C10.3611687,28.0860793 10.7251393,29.8952757 10.7560216,30.0246507 L10.9457275,33.1830436 C10.8817569,34.719115 11.2788158,36.1935793 11.2854334,36.2059007 L11.724404,38.916615 C11.4839628,39.462865 11.6317569,40.3212579 11.7420511,40.7730436 C11.7817569,41.1775972 11.9670511,41.389115 12.1280805,41.4959007 L12.211904,42.884115 L12.0508746,43.5330436 L11.7376393,44.1326864 C11.4133746,44.8350079 11.5214628,45.4900972 11.5788158,45.7324186 C11.5699922,45.9500972 11.5699922,46.1636686 11.5986687,46.3464364 L2.32734517,56.7662579 C2.15087458,56.8114364 1.97440399,56.9202757 1.82219811,57.0886686 L1.12955105,57.9696507 C1.05896282,57.8525972 0.961903992,57.7868829 0.904551051,57.7560793 C0.730286345,57.661615 0.441315757,57.6636686 0.267051051,57.76224 C0.114845169,57.84849 0.0155804631,58.0004543 0.00234516894,58.1667936 C-0.0130960075,58.3475079 0.0508745807,58.8999186 0.101609875,59.3270614 C0.0420510513,59.4338472 0.00675693365,59.5550079 -8.8817842e-15,59.6802757 C0.00675693365,59.904115 0.0596981101,60.0684007 0.130286345,60.1875079 C0.163374581,60.4811686 0.278080463,60.6639364 0.36852164,60.7645614 L1.31263929,62.1014364 C1.51999223,62.4690257 1.78028635,62.6127757 1.8486687,62.6435793 L2.57440399,62.9885793 C2.73322752,63.0768829 2.87660987,63.1076864 2.99572752,63.1076864 C3.09719811,63.1076864 3.1854334,63.0850972 3.25381576,63.0563472 C3.3861687,63.0029543 3.52955105,62.8612579 3.58249223,62.7339364 C3.66190399,62.5388472 3.63763929,62.2657222 3.33763929,62.0562579 C3.31999223,62.0295614 3.30013929,62.0069722 3.27808046,61.9802757 C3.23396282,61.8570614 3.13690399,61.7461686 2.99352164,61.6250079 C2.99572752,61.6126864 2.9979334,61.600365 3.00013929,61.5880436 C3.02219811,61.3539364 2.91190399,61.197865 2.72219811,61.0746507 C2.70455105,61.0479543 2.68249223,61.0212579 2.6604334,60.996615 C2.65602164,60.9144722 2.63175693,60.8425972 2.5854334,60.7768829 C2.59425693,60.7173293 2.59205105,60.6557222 2.57881576,60.6023293 C2.56337458,60.5304543 2.52146282,60.4544722 2.46631576,60.3887579 C2.45969811,60.3476864 2.45087458,60.3107222 2.4354334,60.277865 C2.41337458,60.2244722 2.37587458,60.1731329 2.33175693,60.1279543 C2.33396282,60.1259007 2.33396282,60.1238472 2.3361687,60.11974 C2.41999223,59.9985793 2.44646282,59.8301864 2.40675693,59.6905436 C2.43322752,59.616615 2.44205105,59.5406329 2.4354334,59.4687579 C2.42881576,59.4256329 2.41778635,59.3804543 2.40013929,59.3393829 L3.29352164,58.36599 C3.53396282,58.1955436 3.6486687,58.0189364 3.69058046,57.8587579 L12.8626393,47.512865 C13.3324922,47.5642043 13.6942569,47.3177757 13.9060216,47.024115 L13.6721981,48.2706329 C13.3236687,48.9606329 13.4273452,49.88474 13.4383746,49.9032222 L13.0655805,55.6737579 L12.8560216,56.7375079 C12.7214628,57.2981329 12.7391099,57.7150079 12.8008746,58.0045614 C12.6354334,58.0743829 12.5163158,58.1893829 12.4413158,58.30849 L12.0817569,58.6555436 C10.974404,59.3414364 10.7096981,60.1402757 10.7008746,60.1813472 C10.5133746,60.6249186 10.6324922,60.95349 10.7670511,61.1526864 C11.1398452,61.70099 12.0045511,61.7851864 12.2339628,61.7975079 C14.1707275,61.72974 14.9383746,60.7173293 14.9604334,60.6865257 C15.024404,60.6105436 15.3266099,60.3969722 15.5405805,60.2717043 L16.4648452,59.8712579 C16.8288158,59.7090257 17.0096981,59.4050972 17.0648452,59.08474 C17.1442569,59.0539364 17.2170511,59.012865 17.2832275,58.9615257 C17.6185216,58.6986686 17.6516099,58.265365 17.6449922,58.2592043 C17.7486687,57.7437579 17.6935216,56.6656329 17.686904,56.5711686 L17.686904,56.3699186 C17.9471981,55.7600079 18.1148452,54.2999186 18.1832275,53.5955436 C18.3530805,53.119115 18.4038158,52.1826864 18.4104334,51.9465257 L18.9861687,47.8619722 C19.0192569,47.4389364 19.2861687,46.3176864 19.4030805,45.8515257 C19.5530805,45.5475972 19.7008746,45.0321507 19.7074922,44.9890257 L20.6317569,42.9169722 C20.8016099,42.4035793 21.1920511,41.6930436 21.4192569,41.2967043 C21.5670511,41.31724 21.699404,41.3357222 21.8163158,41.3500972 C21.8891099,42.1345614 22.2023452,42.9662579 22.2199922,42.9826864 L22.4736687,45.1615257 L22.6214628,47.3650079 C22.5001393,48.1535793 22.6699922,49.2275972 22.6766099,49.2275972 C22.6479334,50.3098293 22.749404,50.8437579 22.7582275,50.8437579 L22.7582275,50.8417043 L22.7758746,51.9875972 C22.6126393,54.355365 22.974404,55.7990257 22.9810216,55.7969722 C23.0052863,56.0762579 22.8111687,56.2651864 22.8199922,56.2651864 L22.8221981,56.2651864 C22.4317569,56.511615 22.3038158,56.8155436 22.2641099,57.029115 C22.1979334,57.3946507 22.3435216,57.70474 22.4427863,57.8649186 L22.5376393,58.2489364 C22.5927863,58.4563472 22.6766099,58.6165257 22.7891099,58.7315257 L22.7891099,58.7890257 L22.7780805,59.0005436 C22.6832275,59.6535793 22.7008746,60.0232222 22.7339628,60.2183114 C22.6721981,60.7193829 22.8685216,61.0459007 23.0560216,61.2348293 C23.6229334,61.8098293 24.6905805,61.7338472 24.774404,61.7256329 C25.5574922,61.6968829 26.1332275,61.4750972 26.4905805,61.0643829 C26.8280805,60.6700972 26.8479334,60.23474 26.8346981,60.0273293 C26.8854334,59.7418829 26.8391099,59.4133114 26.8148452,59.2777757 L26.7310216,58.9861686 C26.8435216,58.9964364 26.9317569,58.9759007 27.0266099,58.9389364 C27.3949922,58.79724 27.4854334,58.4193829 27.4854334,58.3783114 L27.5273452,58.2489364 C27.6707275,57.9532222 27.6464628,57.575365 27.6376393,57.5158114 L27.5692569,47.2602757 L27.6663158,46.63599 C27.7280805,46.1246507 27.6861687,44.7035793 27.6729334,44.3400972 C27.8913158,43.41599 27.9332275,40.8161686 27.9398452,40.2719722 C28.0699922,39.7852757 27.9442569,39.0480436 27.9067569,38.8652757 L27.8295511,38.0808114 C27.8295511,36.8425079 27.4104334,35.5610793 27.2891099,35.2201864 L27.2891099,35.0805436 C27.2891099,34.70474 27.1126393,34.1831329 27.0332275,33.9654543 C27.0067569,33.4623293 26.8413158,33.12349 26.6692569,32.9058114 L27.7854334,31.39849 C28.3413158,30.93849 28.7846981,29.5420614 29.0604334,28.4310793" id="Fill-4" stroke="#6F41A7" stroke-width="1.3" transform="translate(14.584557, 40.553843) scale(-1, 1) translate(-14.584557, -40.553843) "></path>
                        <path d="M32.0604334,28.4310793 C32.499404,27.0695614 31.5089628,26.2727757 30.8648452,26.0140257 L28.6280805,24.5149186 C28.3898452,24.1945614 27.9023452,23.9029543 27.5582275,23.7263472 C26.8413158,22.9275079 25.8508746,22.5619722 25.5641099,22.4675079 C24.0839628,21.6152757 21.5030805,22.011615 21.4104334,22.02599 L20.0824922,22.1923293 C20.0251393,21.99724 19.9435216,21.8309007 19.8729334,21.70974 C20.0008746,21.2230436 20.0008746,20.7794722 19.9898452,20.5823293 C20.1927863,19.8943829 19.9611687,19.4836686 19.9435216,19.46724 C19.6457275,18.8224186 18.5163158,18.8080436 17.5104334,18.9374186 L16.9854334,18.360365 C16.2729334,17.6334007 14.8060216,18.2001864 14.3780805,18.3870614 C12.8648452,19.0380436 12.4192569,19.7917043 12.3023452,20.0607222 C11.6096981,21.1162579 11.9692569,21.9910793 12.1810216,22.3484007 C11.1045511,23.60724 10.9699922,24.84349 10.9633746,24.9523293 C10.974404,25.720365 11.3648452,26.1269722 11.6913158,26.3343829 C12.4501393,26.812865 13.6104334,26.6773293 14.3891099,26.5048293 L13.9766099,27.1311686 C13.3611687,28.0860793 13.7251393,29.8952757 13.7560216,30.0246507 L13.9457275,33.1830436 C13.8817569,34.719115 14.2788158,36.1935793 14.2854334,36.2059007 L14.724404,38.916615 C14.4839628,39.462865 14.6317569,40.3212579 14.7420511,40.7730436 C14.7817569,41.1775972 14.9670511,41.389115 15.1280805,41.4959007 L15.211904,42.884115 L15.0508746,43.5330436 L14.7376393,44.1326864 C14.4133746,44.8350079 14.5214628,45.4900972 14.5788158,45.7324186 C14.5699922,45.9500972 14.5699922,46.1636686 14.5986687,46.3464364 L5.32734517,56.7662579 C5.15087458,56.8114364 4.97440399,56.9202757 4.82219811,57.0886686 L4.12955105,57.9696507 C4.05896282,57.8525972 3.96190399,57.7868829 3.90455105,57.7560793 C3.73028635,57.661615 3.44131576,57.6636686 3.26705105,57.76224 C3.11484517,57.84849 3.01558046,58.0004543 3.00234517,58.1667936 C2.98690399,58.3475079 3.05087458,58.8999186 3.10160987,59.3270614 C3.04205105,59.4338472 3.00675693,59.5550079 3,59.6802757 C3.00675693,59.904115 3.05969811,60.0684007 3.13028635,60.1875079 C3.16337458,60.4811686 3.27808046,60.6639364 3.36852164,60.7645614 L4.31263929,62.1014364 C4.51999223,62.4690257 4.78028635,62.6127757 4.8486687,62.6435793 L5.57440399,62.9885793 C5.73322752,63.0768829 5.87660987,63.1076864 5.99572752,63.1076864 C6.09719811,63.1076864 6.1854334,63.0850972 6.25381576,63.0563472 C6.3861687,63.0029543 6.52955105,62.8612579 6.58249223,62.7339364 C6.66190399,62.5388472 6.63763929,62.2657222 6.33763929,62.0562579 C6.31999223,62.0295614 6.30013929,62.0069722 6.27808046,61.9802757 C6.23396282,61.8570614 6.13690399,61.7461686 5.99352164,61.6250079 C5.99572752,61.6126864 5.9979334,61.600365 6.00013929,61.5880436 C6.02219811,61.3539364 5.91190399,61.197865 5.72219811,61.0746507 C5.70455105,61.0479543 5.68249223,61.0212579 5.6604334,60.996615 C5.65602164,60.9144722 5.63175693,60.8425972 5.5854334,60.7768829 C5.59425693,60.7173293 5.59205105,60.6557222 5.57881576,60.6023293 C5.56337458,60.5304543 5.52146282,60.4544722 5.46631576,60.3887579 C5.45969811,60.3476864 5.45087458,60.3107222 5.4354334,60.277865 C5.41337458,60.2244722 5.37587458,60.1731329 5.33175693,60.1279543 C5.33396282,60.1259007 5.33396282,60.1238472 5.3361687,60.11974 C5.41999223,59.9985793 5.44646282,59.8301864 5.40675693,59.6905436 C5.43322752,59.616615 5.44205105,59.5406329 5.4354334,59.4687579 C5.42881576,59.4256329 5.41778635,59.3804543 5.40013929,59.3393829 L6.29352164,58.36599 C6.53396282,58.1955436 6.6486687,58.0189364 6.69058046,57.8587579 L15.8626393,47.512865 C16.3324922,47.5642043 16.6942569,47.3177757 16.9060216,47.024115 L16.6721981,48.2706329 C16.3236687,48.9606329 16.4273452,49.88474 16.4383746,49.9032222 L16.0655805,55.6737579 L15.8560216,56.7375079 C15.7214628,57.2981329 15.7391099,57.7150079 15.8008746,58.0045614 C15.6354334,58.0743829 15.5163158,58.1893829 15.4413158,58.30849 L15.0817569,58.6555436 C13.974404,59.3414364 13.7096981,60.1402757 13.7008746,60.1813472 C13.5133746,60.6249186 13.6324922,60.95349 13.7670511,61.1526864 C14.1398452,61.70099 15.0045511,61.7851864 15.2339628,61.7975079 C17.1707275,61.72974 17.9383746,60.7173293 17.9604334,60.6865257 C18.024404,60.6105436 18.3266099,60.3969722 18.5405805,60.2717043 L19.4648452,59.8712579 C19.8288158,59.7090257 20.0096981,59.4050972 20.0648452,59.08474 C20.1442569,59.0539364 20.2170511,59.012865 20.2832275,58.9615257 C20.6185216,58.6986686 20.6516099,58.265365 20.6449922,58.2592043 C20.7486687,57.7437579 20.6935216,56.6656329 20.686904,56.5711686 L20.686904,56.3699186 C20.9471981,55.7600079 21.1148452,54.2999186 21.1832275,53.5955436 C21.3530805,53.119115 21.4038158,52.1826864 21.4104334,51.9465257 L21.9861687,47.8619722 C22.0192569,47.4389364 22.2861687,46.3176864 22.4030805,45.8515257 C22.5530805,45.5475972 22.7008746,45.0321507 22.7074922,44.9890257 L23.6317569,42.9169722 C23.8016099,42.4035793 24.1920511,41.6930436 24.4192569,41.2967043 C24.5670511,41.31724 24.699404,41.3357222 24.8163158,41.3500972 C24.8891099,42.1345614 25.2023452,42.9662579 25.2199922,42.9826864 L25.4736687,45.1615257 L25.6214628,47.3650079 C25.5001393,48.1535793 25.6699922,49.2275972 25.6766099,49.2275972 C25.6479334,50.3098293 25.749404,50.8437579 25.7582275,50.8437579 L25.7582275,50.8417043 L25.7758746,51.9875972 C25.6126393,54.355365 25.974404,55.7990257 25.9810216,55.7969722 C26.0052863,56.0762579 25.8111687,56.2651864 25.8199922,56.2651864 L25.8221981,56.2651864 C25.4317569,56.511615 25.3038158,56.8155436 25.2641099,57.029115 C25.1979334,57.3946507 25.3435216,57.70474 25.4427863,57.8649186 L25.5376393,58.2489364 C25.5927863,58.4563472 25.6766099,58.6165257 25.7891099,58.7315257 L25.7891099,58.7890257 L25.7780805,59.0005436 C25.6832275,59.6535793 25.7008746,60.0232222 25.7339628,60.2183114 C25.6721981,60.7193829 25.8685216,61.0459007 26.0560216,61.2348293 C26.6229334,61.8098293 27.6905805,61.7338472 27.774404,61.7256329 C28.5574922,61.6968829 29.1332275,61.4750972 29.4905805,61.0643829 C29.8280805,60.6700972 29.8479334,60.23474 29.8346981,60.0273293 C29.8854334,59.7418829 29.8391099,59.4133114 29.8148452,59.2777757 L29.7310216,58.9861686 C29.8435216,58.9964364 29.9317569,58.9759007 30.0266099,58.9389364 C30.3949922,58.79724 30.4854334,58.4193829 30.4854334,58.3783114 L30.5273452,58.2489364 C30.6707275,57.9532222 30.6464628,57.575365 30.6376393,57.5158114 L30.5692569,47.2602757 L30.6663158,46.63599 C30.7280805,46.1246507 30.6861687,44.7035793 30.6729334,44.3400972 C30.8913158,43.41599 30.9332275,40.8161686 30.9398452,40.2719722 C31.0699922,39.7852757 30.9442569,39.0480436 30.9067569,38.8652757 L30.8295511,38.0808114 C30.8295511,36.8425079 30.4104334,35.5610793 30.2891099,35.2201864 L30.2891099,35.0805436 C30.2891099,34.70474 30.1126393,34.1831329 30.0332275,33.9654543 C30.0067569,33.4623293 29.8413158,33.12349 29.6692569,32.9058114 L30.7854334,31.39849 C31.3413158,30.93849 31.7846981,29.5420614 32.0604334,28.4310793" id="Fill-4" fill-opacity="0.305315778" fill="#4A2B79" transform="translate(17.584557, 40.553843) scale(-1, 1) translate(-17.584557, -40.553843) "></path>
                        <path d="M36.251,22 L35.741,18.9591474 C35.837,18.6571936 35.941,18.3357016 36.053,18 C36.135,18.5772647 36.203,19.1314387 36.259,19.651865 C36.241,20.4547069 36.241,21.2557726 36.251,22 M52.5976152,17.5739489 C52.5958705,17.5739489 52.5278293,17.5426571 52.5260847,17.5426571 C52.1876232,17.3966288 51.7933331,17.5530877 51.6450381,17.8920821 L51.5333807,18.1476317 C51.5159343,18.1441549 51.5002325,18.1424164 51.4862753,18.140678 C51.0431351,18.1111246 50.7919059,18.6013627 50.7064183,18.7647754 C50.6191859,18.9386187 50.5616126,19.1159388 50.5197411,19.2845668 C50.4778696,19.2863052 50.435998,19.2880437 50.3906372,19.2897821 C50.3574889,19.1559228 50.2597887,19.0411862 50.1219617,18.9890332 L46.3360786,17.5722105 C46.2889731,16.8194691 46.2610587,16.0667277 46.2313998,15.3105094 C46.1685925,13.6989822 46.1040406,12.0318251 45.8685133,10.3020844 C45.7149844,9.18427215 45.0886562,8.48716059 44.2529705,8.48716059 C44.2337794,8.48716059 44.2128436,8.48716059 44.1919079,8.48889902 C43.9459127,8.42805388 43.4870707,8.33070164 43.0491644,8.24030313 C43.8464679,7.86827851 44.6315588,6.77828114 44.7519394,4.96335728 C44.7676413,4.74779161 44.7065786,4.55830243 44.6577285,4.40532035 C44.6333035,4.3288293 44.6088784,4.25059983 44.6053891,4.20887744 C44.6036445,4.15846289 44.6420267,4.01417296 44.6664518,3.92029759 C44.7275144,3.68560916 44.7903217,3.44222857 44.7397269,3.22318603 C44.7187912,3.12931066 44.6891322,3.03021999 44.6577285,2.92939089 L44.645516,2.88940693 C44.6838982,2.69122559 44.7275144,2.30181664 44.6088784,1.93153045 C44.8339378,1.62208941 44.9333827,1.29700248 44.9037237,0.961484943 C44.8915112,0.838056213 44.8287039,0.72505808 44.729259,0.652043902 C44.6298142,0.579029724 44.502455,0.551214799 44.3820744,0.573814426 C43.8447232,0.679858827 43.6563014,0.577291291 43.3405204,0.405186443 C43.0543983,0.248727489 42.6984904,0.0540230144 42.0843748,0.0140390597 C39.8739076,-0.154588923 38.3455972,1.2083424 38.1973022,3.43005954 C38.1571753,4.01243453 38.5008707,5.41361138 39.1586025,6.06726211 C39.1969847,6.46188636 39.1760489,6.89649457 39.0940505,7.3484871 L38.9823932,7.85610948 L38.790482,8.01083 L38.3525757,8.17424268 C37.8762872,8.30984044 36.3165732,8.76878671 36.2223623,8.80877066 C36.0321958,8.92003036 35.290721,9.37897662 35.2924656,9.38071506 C34.9574935,9.54934304 34.7341787,10.4515897 34.6731161,10.8340449 C34.0834255,12.2526061 33.7100712,14.144021 33.5408404,15.1540504 C33.2111022,17.1132642 33.0052339,18.3631974 33.0052339,18.3631974 C32.9982554,18.4101351 32.9982554,18.4553343 33.0052339,18.502272 L34.2038061,25.9323339 C34.2264866,26.0714085 34.3137189,26.1844066 34.4306102,26.2452518 C34.1235524,27.2709271 34.1322756,27.5942756 34.1340203,27.7107506 C34.1479775,28.2374958 34.5265658,29.1884185 34.6033302,29.3726924 C34.6172874,29.4091995 34.6364785,29.4422297 34.6591589,29.4717831 C34.7149876,29.5482741 35.5384608,30.2853696 36.0374297,30.3166614 C36.1874693,30.3514301 36.3828697,30.2523394 36.4718467,30.1619409 C36.8103082,29.8194696 36.8242653,29.1188812 36.7352884,28.4374156 C36.9341781,28.4582767 37.1365571,28.3557092 37.2447252,28.1749122 C37.3633611,27.9749924 37.3476593,27.7333503 37.2569377,27.635998 L36.8103082,26.7111518 C36.8783494,26.7580895 36.9620924,26.7876428 37.052814,26.7893812 L37.314511,26.7928581 L37.3528932,27.0327618 C37.9111802,29.6143346 38.7922267,33.8752334 38.8009499,34.2507349 C38.7782695,34.3359181 38.2478969,36.3577155 38.1449628,38.0057498 C38.1100699,38.5672636 38.099602,39.1339927 38.1170485,39.7841665 C37.8815212,40.3213423 37.6686743,40.8046266 37.4610613,41.2062046 C37.2796181,41.1523131 37.0440908,41.1018986 36.7806492,41.1331904 C36.4421877,41.1592669 36.1141942,41.2461885 35.8333061,41.3817863 C35.5070572,41.5382452 35.3256139,41.894624 35.3901658,42.2475258 L35.6082467,43.433137 C35.6187145,43.4887668 35.6501182,43.5565657 35.6797772,43.6052418 C35.6815218,43.6087187 35.7233933,43.6730407 35.7356059,43.7860389 C35.7600309,44.0207273 35.7966685,44.3371221 35.8420293,44.6761165 L35.8943687,45.0464027 C35.9432188,45.3645359 36.0007921,45.6930997 36.0635994,45.9834179 C36.0932584,46.1155388 36.1264067,46.2424444 36.1578103,46.3589194 C36.534654,47.6836052 37.2656609,47.9530623 37.3476593,47.9791388 C37.3912755,47.9930463 37.4366363,48 37.4802524,48 C37.4994436,48 37.5186347,47.9982616 37.5360811,47.9965231 C38.1275163,47.9200321 38.2653434,47.7583578 38.3159382,47.6992511 C38.6072941,47.3619952 38.4904028,46.847419 38.33164,46.2998127 C38.2880238,46.1555228 38.2583648,45.8095747 38.2531309,45.6253008 C38.2339398,44.935143 38.3839794,44.1580635 38.4223616,43.9703127 C38.4799349,43.9094676 38.5392529,43.8451456 38.6055495,43.7738698 C38.7276748,44.3284299 38.8498,44.8064989 38.9475002,45.1889541 L38.9579681,45.2306765 C38.9440109,45.244584 38.9317984,45.2584915 38.9178412,45.2741373 C38.8131624,45.413212 38.5654226,45.7417758 38.5078493,46.2476597 C38.474701,46.5571008 38.4921475,46.8578496 38.5566994,47.1446911 C38.647421,47.5375769 38.9946057,47.8157261 39.402853,47.819203 L40.5560644,47.8278952 C40.5961913,47.8261567 40.6834236,47.8122493 40.7375076,47.7913881 C40.7409969,47.7896496 40.8125274,47.7583578 40.9259295,47.7705269 C41.1632014,47.7913881 41.4789824,47.8157261 41.8244225,47.8348489 L42.1977768,47.8539716 C42.5240257,47.8661407 42.8572532,47.871356 43.1503539,47.8644022 C43.2916702,47.8609254 43.4225187,47.8522332 43.5411547,47.8418026 C44.9194255,47.7235892 45.3206942,47.0595078 45.3625658,46.9830168 C45.3922247,46.9291254 45.4096712,46.8682802 45.4149052,46.8056967 C45.4532874,46.2094142 45.3189496,46.0425247 45.2700995,45.9816795 C44.9892114,45.6339929 44.4379031,45.6565926 43.8935733,45.7052687 C43.747023,45.7243914 43.4033276,45.6826691 43.2149058,45.6531157 C42.4821542,45.5331638 41.68834,45.2080769 41.5836612,45.1628776 C41.6831061,43.9807433 41.8575707,41.9798072 42.063439,39.9858247 C47.0025335,34.3672099 47.3026128,32.9729868 47.2136358,32.4392879 C47.2206144,32.3923502 47.2188697,32.3401972 47.2101465,32.2932595 C47.1700196,32.0846476 47.0827873,31.7317457 46.8786636,30.8990364 C46.6291792,29.8872685 46.2017408,28.1575279 45.4654999,25.0822402 C45.4375856,24.9692421 45.366055,24.7727992 45.2613763,24.5276802 L45.2404405,24.3225451 C45.1183152,23.1421492 44.9717649,21.7148959 44.8880219,20.313719 L49.2827866,21.6749119 C49.394444,21.7096806 49.51308,21.69925 49.6160141,21.6453586 C49.7206929,21.5914671 49.7974574,21.4975918 49.8306057,21.3845936 L49.834095,21.3706862 C49.9422631,21.3776399 50.0556651,21.3845936 50.1777903,21.3915474 C50.1760457,21.4802074 50.1917475,21.5688675 50.2266405,21.6523123 C50.292937,21.8174634 50.4202962,21.9495843 50.6471003,22.0451981 C50.8110971,22.1199507 50.9960296,22.1216891 51.1600264,22.0573671 C51.3292571,21.9913067 51.4618502,21.8661395 51.5351254,21.69925 L51.655506,21.4176239 C52.1440071,21.3463481 52.5225954,21.0334302 52.7354423,20.5188541 C52.9605017,19.9764631 52.9744588,19.2324138 52.8034835,18.7786828 L52.9447998,18.4535959 C53.0913502,18.1180784 52.9360766,17.7234541 52.5976152,17.5739489" id="Fill-1" stroke="#6F41A7" stroke-width="1.3"></path>
                        <path d="M33.251,22 L32.741,18.9591474 C32.837,18.6571936 32.941,18.3357016 33.053,18 C33.135,18.5772647 33.203,19.1314387 33.259,19.651865 C33.241,20.4547069 33.241,21.2557726 33.251,22 M49.5976152,17.5739489 C49.5958705,17.5739489 49.5278293,17.5426571 49.5260847,17.5426571 C49.1876232,17.3966288 48.7933331,17.5530877 48.6450381,17.8920821 L48.5333807,18.1476317 C48.5159343,18.1441549 48.5002325,18.1424164 48.4862753,18.140678 C48.0431351,18.1111246 47.7919059,18.6013627 47.7064183,18.7647754 C47.6191859,18.9386187 47.5616126,19.1159388 47.5197411,19.2845668 C47.4778696,19.2863052 47.435998,19.2880437 47.3906372,19.2897821 C47.3574889,19.1559228 47.2597887,19.0411862 47.1219617,18.9890332 L43.3360786,17.5722105 C43.2889731,16.8194691 43.2610587,16.0667277 43.2313998,15.3105094 C43.1685925,13.6989822 43.1040406,12.0318251 42.8685133,10.3020844 C42.7149844,9.18427215 42.0886562,8.48716059 41.2529705,8.48716059 C41.2337794,8.48716059 41.2128436,8.48716059 41.1919079,8.48889902 C40.9459127,8.42805388 40.4870707,8.33070164 40.0491644,8.24030313 C40.8464679,7.86827851 41.6315588,6.77828114 41.7519394,4.96335728 C41.7676413,4.74779161 41.7065786,4.55830243 41.6577285,4.40532035 C41.6333035,4.3288293 41.6088784,4.25059983 41.6053891,4.20887744 C41.6036445,4.15846289 41.6420267,4.01417296 41.6664518,3.92029759 C41.7275144,3.68560916 41.7903217,3.44222857 41.7397269,3.22318603 C41.7187912,3.12931066 41.6891322,3.03021999 41.6577285,2.92939089 L41.645516,2.88940693 C41.6838982,2.69122559 41.7275144,2.30181664 41.6088784,1.93153045 C41.8339378,1.62208941 41.9333827,1.29700248 41.9037237,0.961484943 C41.8915112,0.838056213 41.8287039,0.72505808 41.729259,0.652043902 C41.6298142,0.579029724 41.502455,0.551214799 41.3820744,0.573814426 C40.8447232,0.679858827 40.6563014,0.577291291 40.3405204,0.405186443 C40.0543983,0.248727489 39.6984904,0.0540230144 39.0843748,0.0140390597 C36.8739076,-0.154588923 35.3455972,1.2083424 35.1973022,3.43005954 C35.1571753,4.01243453 35.5008707,5.41361138 36.1586025,6.06726211 C36.1969847,6.46188636 36.1760489,6.89649457 36.0940505,7.3484871 L35.9823932,7.85610948 L35.790482,8.01083 L35.3525757,8.17424268 C34.8762872,8.30984044 33.3165732,8.76878671 33.2223623,8.80877066 C33.0321958,8.92003036 32.290721,9.37897662 32.2924656,9.38071506 C31.9574935,9.54934304 31.7341787,10.4515897 31.6731161,10.8340449 C31.0834255,12.2526061 30.7100712,14.144021 30.5408404,15.1540504 C30.2111022,17.1132642 30.0052339,18.3631974 30.0052339,18.3631974 C29.9982554,18.4101351 29.9982554,18.4553343 30.0052339,18.502272 L31.2038061,25.9323339 C31.2264866,26.0714085 31.3137189,26.1844066 31.4306102,26.2452518 C31.1235524,27.2709271 31.1322756,27.5942756 31.1340203,27.7107506 C31.1479775,28.2374958 31.5265658,29.1884185 31.6033302,29.3726924 C31.6172874,29.4091995 31.6364785,29.4422297 31.6591589,29.4717831 C31.7149876,29.5482741 32.5384608,30.2853696 33.0374297,30.3166614 C33.1874693,30.3514301 33.3828697,30.2523394 33.4718467,30.1619409 C33.8103082,29.8194696 33.8242653,29.1188812 33.7352884,28.4374156 C33.9341781,28.4582767 34.1365571,28.3557092 34.2447252,28.1749122 C34.3633611,27.9749924 34.3476593,27.7333503 34.2569377,27.635998 L33.8103082,26.7111518 C33.8783494,26.7580895 33.9620924,26.7876428 34.052814,26.7893812 L34.314511,26.7928581 L34.3528932,27.0327618 C34.9111802,29.6143346 35.7922267,33.8752334 35.8009499,34.2507349 C35.7782695,34.3359181 35.2478969,36.3577155 35.1449628,38.0057498 C35.1100699,38.5672636 35.099602,39.1339927 35.1170485,39.7841665 C34.8815212,40.3213423 34.6686743,40.8046266 34.4610613,41.2062046 C34.2796181,41.1523131 34.0440908,41.1018986 33.7806492,41.1331904 C33.4421877,41.1592669 33.1141942,41.2461885 32.8333061,41.3817863 C32.5070572,41.5382452 32.3256139,41.894624 32.3901658,42.2475258 L32.6082467,43.433137 C32.6187145,43.4887668 32.6501182,43.5565657 32.6797772,43.6052418 C32.6815218,43.6087187 32.7233933,43.6730407 32.7356059,43.7860389 C32.7600309,44.0207273 32.7966685,44.3371221 32.8420293,44.6761165 L32.8943687,45.0464027 C32.9432188,45.3645359 33.0007921,45.6930997 33.0635994,45.9834179 C33.0932584,46.1155388 33.1264067,46.2424444 33.1578103,46.3589194 C33.534654,47.6836052 34.2656609,47.9530623 34.3476593,47.9791388 C34.3912755,47.9930463 34.4366363,48 34.4802524,48 C34.4994436,48 34.5186347,47.9982616 34.5360811,47.9965231 C35.1275163,47.9200321 35.2653434,47.7583578 35.3159382,47.6992511 C35.6072941,47.3619952 35.4904028,46.847419 35.33164,46.2998127 C35.2880238,46.1555228 35.2583648,45.8095747 35.2531309,45.6253008 C35.2339398,44.935143 35.3839794,44.1580635 35.4223616,43.9703127 C35.4799349,43.9094676 35.5392529,43.8451456 35.6055495,43.7738698 C35.7276748,44.3284299 35.8498,44.8064989 35.9475002,45.1889541 L35.9579681,45.2306765 C35.9440109,45.244584 35.9317984,45.2584915 35.9178412,45.2741373 C35.8131624,45.413212 35.5654226,45.7417758 35.5078493,46.2476597 C35.474701,46.5571008 35.4921475,46.8578496 35.5566994,47.1446911 C35.647421,47.5375769 35.9946057,47.8157261 36.402853,47.819203 L37.5560644,47.8278952 C37.5961913,47.8261567 37.6834236,47.8122493 37.7375076,47.7913881 C37.7409969,47.7896496 37.8125274,47.7583578 37.9259295,47.7705269 C38.1632014,47.7913881 38.4789824,47.8157261 38.8244225,47.8348489 L39.1977768,47.8539716 C39.5240257,47.8661407 39.8572532,47.871356 40.1503539,47.8644022 C40.2916702,47.8609254 40.4225187,47.8522332 40.5411547,47.8418026 C41.9194255,47.7235892 42.3206942,47.0595078 42.3625658,46.9830168 C42.3922247,46.9291254 42.4096712,46.8682802 42.4149052,46.8056967 C42.4532874,46.2094142 42.3189496,46.0425247 42.2700995,45.9816795 C41.9892114,45.6339929 41.4379031,45.6565926 40.8935733,45.7052687 C40.747023,45.7243914 40.4033276,45.6826691 40.2149058,45.6531157 C39.4821542,45.5331638 38.68834,45.2080769 38.5836612,45.1628776 C38.6831061,43.9807433 38.8575707,41.9798072 39.063439,39.9858247 C44.0025335,34.3672099 44.3026128,32.9729868 44.2136358,32.4392879 C44.2206144,32.3923502 44.2188697,32.3401972 44.2101465,32.2932595 C44.1700196,32.0846476 44.0827873,31.7317457 43.8786636,30.8990364 C43.6291792,29.8872685 43.2017408,28.1575279 42.4654999,25.0822402 C42.4375856,24.9692421 42.366055,24.7727992 42.2613763,24.5276802 L42.2404405,24.3225451 C42.1183152,23.1421492 41.9717649,21.7148959 41.8880219,20.313719 L46.2827866,21.6749119 C46.394444,21.7096806 46.51308,21.69925 46.6160141,21.6453586 C46.7206929,21.5914671 46.7974574,21.4975918 46.8306057,21.3845936 L46.834095,21.3706862 C46.9422631,21.3776399 47.0556651,21.3845936 47.1777903,21.3915474 C47.1760457,21.4802074 47.1917475,21.5688675 47.2266405,21.6523123 C47.292937,21.8174634 47.4202962,21.9495843 47.6471003,22.0451981 C47.8110971,22.1199507 47.9960296,22.1216891 48.1600264,22.0573671 C48.3292571,21.9913067 48.4618502,21.8661395 48.5351254,21.69925 L48.655506,21.4176239 C49.1440071,21.3463481 49.5225954,21.0334302 49.7354423,20.5188541 C49.9605017,19.9764631 49.9744588,19.2324138 49.8034835,18.7786828 L49.9447998,18.4535959 C50.0913502,18.1180784 49.9360766,17.7234541 49.5976152,17.5739489" id="Fill-1" fill-opacity="0.305315778" fill="#4A2B79"></path>
                    </g>
                </g>
            </g>
        </g>
    </g>
</svg>