<?xml version="1.0" encoding="UTF-8"?>
<svg width="153px" height="32px" viewBox="0 0 153 32" version="1.1" xmlns="http://www.w3.org/2000/svg" xmlns:xlink="http://www.w3.org/1999/xlink">
    <title>coming-soon-flag</title>
    <g id="coming-soon-flag" stroke="none" stroke-width="1" fill="none" fill-rule="evenodd">
        <g id="new-data-flag">
            <polygon id="Rectangle" fill="#67E7C4" points="0 0 153 0 153 26 0 26"></polygon>
            <polygon id="Triangle" fill="#34B491" points="8 26 8 32 0 26"></polygon>
            <path d="M7.716,18 L7.716,13.996 C7.716,13.4826667 7.69033333,12.96 7.639,12.428 C7.58766667,11.896 7.54333333,11.3873333 7.506,10.902 L7.506,10.902 L7.562,10.902 L8.5,12.848 L11.356,18 L13.022,18 L13.022,8.844 L11.468,8.844 L11.468,12.82 C11.468,13.3333333 11.4936667,13.863 11.545,14.409 C11.5963333,14.955 11.6406667,15.466 11.678,15.942 L11.678,15.942 L11.622,15.942 L10.684,13.996 L7.828,8.844 L6.162,8.844 L6.162,18 L7.716,18 Z M18.146,18.168 C18.5846667,18.168 19.0046667,18.098 19.406,17.958 C19.8073333,17.818 20.1713333,17.6406667 20.498,17.426 L20.498,17.426 L19.952,16.418 C19.7,16.5766667 19.4456667,16.7003333 19.189,16.789 C18.9323333,16.8776667 18.6546667,16.922 18.356,16.922 C17.796,16.922 17.3363333,16.7563333 16.977,16.425 C16.6176667,16.0936667 16.4006667,15.62 16.326,15.004 L16.326,15.004 L20.694,15.004 C20.7126667,14.92 20.729,14.808 20.743,14.668 C20.757,14.528 20.764,14.3786667 20.764,14.22 C20.764,13.744 20.7033333,13.3053333 20.582,12.904 C20.4606667,12.5026667 20.281,12.1573333 20.043,11.868 C19.805,11.5786667 19.5086667,11.3546667 19.154,11.196 C18.7993333,11.0373333 18.3886667,10.958 17.922,10.958 C17.5206667,10.958 17.1286667,11.042 16.746,11.21 C16.3633333,11.378 16.025,11.616 15.731,11.924 C15.437,12.232 15.2013333,12.61 15.024,13.058 C14.8466667,13.506 14.758,14.01 14.758,14.57 C14.758,15.1393333 14.8443333,15.6456667 15.017,16.089 C15.1896667,16.5323333 15.43,16.908 15.738,17.216 C16.046,17.524 16.4053333,17.7596667 16.816,17.923 C17.2266667,18.0863333 17.67,18.168 18.146,18.168 Z M19.364,13.912 L16.312,13.912 C16.3866667,13.352 16.578,12.9273333 16.886,12.638 C17.194,12.3486667 17.5533333,12.204 17.964,12.204 C18.44,12.204 18.7923333,12.3556667 19.021,12.659 C19.2496667,12.9623333 19.364,13.38 19.364,13.912 L19.364,13.912 Z M25.286,18 L26.07,14.808 C26.1446667,14.4813333 26.2146667,14.1546667 26.28,13.828 C26.3453333,13.5013333 26.4106667,13.156 26.476,12.792 L26.476,12.792 L26.532,12.792 C26.6066667,13.156 26.6766667,13.499 26.742,13.821 C26.8073333,14.143 26.8773333,14.4673333 26.952,14.794 L26.952,14.794 L27.75,18 L29.668,18 L31.418,11.126 L29.906,11.126 L29.08,14.696 C29.0146667,15.0226667 28.954,15.3493333 28.898,15.676 C28.842,16.0026667 28.7813333,16.334 28.716,16.67 L28.716,16.67 L28.66,16.67 C28.5853333,16.334 28.5106667,16.0026667 28.436,15.676 C28.3613333,15.3493333 28.282,15.0226667 28.198,14.696 L28.198,14.696 L27.288,11.126 L25.818,11.126 L24.922,14.696 C24.838,15.0226667 24.761,15.3493333 24.691,15.676 C24.621,16.0026667 24.5533333,16.334 24.488,16.67 L24.488,16.67 L24.432,16.67 C24.3666667,16.334 24.3083333,16.0026667 24.257,15.676 C24.2056667,15.3493333 24.1426667,15.0226667 24.068,14.696 L24.068,14.696 L23.242,11.126 L21.618,11.126 L23.438,18 L25.286,18 Z M37.984,18.168 C38.3573333,18.168 38.712,18.0793333 39.048,17.902 C39.384,17.7246667 39.678,17.51 39.93,17.258 L39.93,17.258 L39.986,17.258 L40.098,18 L41.428,18 L41.428,8.116 L39.818,8.116 L39.818,10.608 L39.874,11.714 C39.6033333,11.4806667 39.3326667,11.2963333 39.062,11.161 C38.7913333,11.0256667 38.46,10.958 38.068,10.958 C37.6946667,10.958 37.333,11.042 36.983,11.21 C36.633,11.378 36.3226667,11.616 36.052,11.924 C35.7813333,12.232 35.5643333,12.61 35.401,13.058 C35.2376667,13.506 35.156,14.01 35.156,14.57 C35.156,15.7086667 35.4103333,16.593 35.919,17.223 C36.4276667,17.853 37.116,18.168 37.984,18.168 Z M38.376,16.838 C37.872,16.838 37.487,16.6443333 37.221,16.257 C36.955,15.8696667 36.822,15.3026667 36.822,14.556 C36.822,13.828 36.976,13.268 37.284,12.876 C37.592,12.484 37.97,12.288 38.418,12.288 C38.6513333,12.288 38.8823333,12.33 39.111,12.414 C39.3396667,12.498 39.5753333,12.6473333 39.818,12.862 L39.818,12.862 L39.818,16.068 C39.37,16.5813333 38.8893333,16.838 38.376,16.838 Z M45.138,18.168 C45.5486667,18.168 45.929,18.0793333 46.279,17.902 C46.629,17.7246667 46.958,17.5053333 47.266,17.244 L47.266,17.244 L47.322,17.244 L47.434,18 L48.764,18 L48.764,13.926 C48.764,12.9646667 48.5516667,12.2296667 48.127,11.721 C47.7023333,11.2123333 47.0606667,10.958 46.202,10.958 C45.6513333,10.958 45.138,11.0466667 44.662,11.224 C44.186,11.4013333 43.7566667,11.6113333 43.374,11.854 L43.374,11.854 L43.962,12.932 C44.27,12.7453333 44.585,12.5866667 44.907,12.456 C45.229,12.3253333 45.558,12.26 45.894,12.26 C46.1273333,12.26 46.3233333,12.295 46.482,12.365 C46.6406667,12.435 46.769,12.533 46.867,12.659 C46.965,12.785 47.035,12.9296667 47.077,13.093 C47.119,13.2563333 47.1446667,13.4266667 47.154,13.604 C46.4446667,13.6786667 45.8356667,13.786 45.327,13.926 C44.8183333,14.066 44.3983333,14.2386667 44.067,14.444 C43.7356667,14.6493333 43.493,14.8943333 43.339,15.179 C43.185,15.4636667 43.108,15.788 43.108,16.152 C43.108,16.7586667 43.2946667,17.2463333 43.668,17.615 C44.0413333,17.9836667 44.5313333,18.168 45.138,18.168 Z M45.656,16.908 C45.3666667,16.908 45.1286667,16.838 44.942,16.698 C44.7553333,16.558 44.662,16.334 44.662,16.026 C44.662,15.858 44.704,15.6993333 44.788,15.55 C44.872,15.4006667 45.012,15.2676667 45.208,15.151 C45.404,15.0343333 45.6606667,14.9293333 45.978,14.836 C46.2953333,14.7426667 46.6873333,14.668 47.154,14.612 L47.154,14.612 L47.154,16.152 C46.8926667,16.3946667 46.6476667,16.5813333 46.419,16.712 C46.1903333,16.8426667 45.936,16.908 45.656,16.908 Z M52.894,18.168 C53.1646667,18.168 53.419,18.1423333 53.657,18.091 C53.895,18.0396667 54.1073333,17.9813333 54.294,17.916 L54.294,17.916 L54.014,16.726 C53.9113333,16.7726667 53.797,16.81 53.671,16.838 C53.545,16.866 53.4213333,16.88 53.3,16.88 C52.656,16.88 52.334,16.4786667 52.334,15.676 L52.334,15.676 L52.334,12.4 L54.084,12.4 L54.084,11.126 L52.334,11.126 L52.334,9.25 L50.99,9.25 L50.794,11.126 L49.73,11.196 L49.73,12.4 L50.71,12.4 L50.71,15.676 C50.71,16.0493333 50.7496667,16.3876667 50.829,16.691 C50.9083333,16.9943333 51.0343333,17.2556667 51.207,17.475 C51.3796667,17.6943333 51.6036667,17.8646667 51.879,17.986 C52.1543333,18.1073333 52.4926667,18.168 52.894,18.168 Z M56.898,18.168 C57.3086667,18.168 57.689,18.0793333 58.039,17.902 C58.389,17.7246667 58.718,17.5053333 59.026,17.244 L59.026,17.244 L59.082,17.244 L59.194,18 L60.524,18 L60.524,13.926 C60.524,12.9646667 60.3116667,12.2296667 59.887,11.721 C59.4623333,11.2123333 58.8206667,10.958 57.962,10.958 C57.4113333,10.958 56.898,11.0466667 56.422,11.224 C55.946,11.4013333 55.5166667,11.6113333 55.134,11.854 L55.134,11.854 L55.722,12.932 C56.03,12.7453333 56.345,12.5866667 56.667,12.456 C56.989,12.3253333 57.318,12.26 57.654,12.26 C57.8873333,12.26 58.0833333,12.295 58.242,12.365 C58.4006667,12.435 58.529,12.533 58.627,12.659 C58.725,12.785 58.795,12.9296667 58.837,13.093 C58.879,13.2563333 58.9046667,13.4266667 58.914,13.604 C58.2046667,13.6786667 57.5956667,13.786 57.087,13.926 C56.5783333,14.066 56.1583333,14.2386667 55.827,14.444 C55.4956667,14.6493333 55.253,14.8943333 55.099,15.179 C54.945,15.4636667 54.868,15.788 54.868,16.152 C54.868,16.7586667 55.0546667,17.2463333 55.428,17.615 C55.8013333,17.9836667 56.2913333,18.168 56.898,18.168 Z M57.416,16.908 C57.1266667,16.908 56.8886667,16.838 56.702,16.698 C56.5153333,16.558 56.422,16.334 56.422,16.026 C56.422,15.858 56.464,15.6993333 56.548,15.55 C56.632,15.4006667 56.772,15.2676667 56.968,15.151 C57.164,15.0343333 57.4206667,14.9293333 57.738,14.836 C58.0553333,14.7426667 58.4473333,14.668 58.914,14.612 L58.914,14.612 L58.914,16.152 C58.6526667,16.3946667 58.4076667,16.5813333 58.179,16.712 C57.9503333,16.8426667 57.696,16.908 57.416,16.908 Z M68.126,18.168 C68.518,18.168 68.9076667,18.098 69.295,17.958 C69.6823333,17.818 70.0393333,17.608 70.366,17.328 L70.366,17.328 L69.708,16.264 C69.512,16.4226667 69.295,16.5603333 69.057,16.677 C68.819,16.7936667 68.5646667,16.852 68.294,16.852 C67.7526667,16.852 67.3116667,16.6443333 66.971,16.229 C66.6303333,15.8136667 66.46,15.2606667 66.46,14.57 C66.46,13.87 66.6326667,13.3123333 66.978,12.897 C67.3233333,12.4816667 67.776,12.274 68.336,12.274 C68.5506667,12.274 68.749,12.3183333 68.931,12.407 C69.113,12.4956667 69.2973333,12.6193333 69.484,12.778 L69.484,12.778 L70.268,11.728 C70.016,11.5133333 69.729,11.3313333 69.407,11.182 C69.085,11.0326667 68.7,10.958 68.252,10.958 C67.7946667,10.958 67.3583333,11.0396667 66.943,11.203 C66.5276667,11.3663333 66.1613333,11.602 65.844,11.91 C65.5266667,12.218 65.2746667,12.596 65.088,13.044 C64.9013333,13.492 64.808,14.0006667 64.808,14.57 C64.808,15.1393333 64.892,15.648 65.06,16.096 C65.228,16.544 65.4613333,16.922 65.76,17.23 C66.0586667,17.538 66.411,17.7713333 66.817,17.93 C67.223,18.0886667 67.6593333,18.168 68.126,18.168 Z M74.202,18.168 C74.6313333,18.168 75.0443333,18.0886667 75.441,17.93 C75.8376667,17.7713333 76.1853333,17.538 76.484,17.23 C76.7826667,16.922 77.023,16.544 77.205,16.096 C77.387,15.648 77.478,15.1393333 77.478,14.57 C77.478,14.0006667 77.387,13.492 77.205,13.044 C77.023,12.596 76.7826667,12.218 76.484,11.91 C76.1853333,11.602 75.8376667,11.3663333 75.441,11.203 C75.0443333,11.0396667 74.6313333,10.958 74.202,10.958 C73.7726667,10.958 73.362,11.0396667 72.97,11.203 C72.578,11.3663333 72.2303333,11.602 71.927,11.91 C71.6236667,12.218 71.3833333,12.596 71.206,13.044 C71.0286667,13.492 70.94,14.0006667 70.94,14.57 C70.94,15.1393333 71.0286667,15.648 71.206,16.096 C71.3833333,16.544 71.6236667,16.922 71.927,17.23 C72.2303333,17.538 72.578,17.7713333 72.97,17.93 C73.362,18.0886667 73.7726667,18.168 74.202,18.168 Z M74.202,16.852 C73.698,16.852 73.3036667,16.6443333 73.019,16.229 C72.7343333,15.8136667 72.592,15.2606667 72.592,14.57 C72.592,13.87 72.7343333,13.3123333 73.019,12.897 C73.3036667,12.4816667 73.698,12.274 74.202,12.274 C74.706,12.274 75.1026667,12.4816667 75.392,12.897 C75.6813333,13.3123333 75.826,13.87 75.826,14.57 C75.826,15.2606667 75.6813333,15.8136667 75.392,16.229 C75.1026667,16.6443333 74.706,16.852 74.202,16.852 Z M80.684,18 L80.684,13.198 C81.216,12.6286667 81.6966667,12.344 82.126,12.344 C82.49,12.344 82.7583333,12.4606667 82.931,12.694 C83.1036667,12.9273333 83.19,13.3286667 83.19,13.898 L83.19,13.898 L83.19,18 L84.8,18 L84.8,13.198 C85.332,12.6286667 85.8126667,12.344 86.242,12.344 C86.5966667,12.344 86.8603333,12.4606667 87.033,12.694 C87.2056667,12.9273333 87.292,13.3286667 87.292,13.898 L87.292,13.898 L87.292,18 L88.916,18 L88.916,13.688 C88.916,12.8106667 88.7433333,12.1363333 88.398,11.665 C88.0526667,11.1936667 87.516,10.958 86.788,10.958 C86.3493333,10.958 85.9526667,11.0746667 85.598,11.308 C85.2433333,11.5413333 84.9026667,11.8353333 84.576,12.19 C84.4173333,11.798 84.1863333,11.4946667 83.883,11.28 C83.5796667,11.0653333 83.176,10.958 82.672,10.958 C82.2426667,10.958 81.8576667,11.0653333 81.517,11.28 C81.1763333,11.4946667 80.8613333,11.756 80.572,12.064 L80.572,12.064 L80.516,12.064 L80.404,11.126 L79.074,11.126 L79.074,18 L80.684,18 Z M91.688,9.922 C91.9773333,9.922 92.2153333,9.838 92.402,9.67 C92.5886667,9.502 92.682,9.28266667 92.682,9.012 C92.682,8.74133333 92.5886667,8.51966667 92.402,8.347 C92.2153333,8.17433333 91.9773333,8.088 91.688,8.088 C91.3986667,8.088 91.1606667,8.17433333 90.974,8.347 C90.7873333,8.51966667 90.694,8.74133333 90.694,9.012 C90.694,9.28266667 90.7873333,9.502 90.974,9.67 C91.1606667,9.838 91.3986667,9.922 91.688,9.922 Z M92.486,18 L92.486,11.126 L90.876,11.126 L90.876,18 L92.486,18 Z M96.154,18 L96.154,13.198 C96.4433333,12.918 96.7023333,12.7056667 96.931,12.561 C97.1596667,12.4163333 97.4233333,12.344 97.722,12.344 C98.1046667,12.344 98.38,12.4606667 98.548,12.694 C98.716,12.9273333 98.8,13.3286667 98.8,13.898 L98.8,13.898 L98.8,18 L100.41,18 L100.41,13.688 C100.41,12.8106667 100.242,12.1363333 99.906,11.665 C99.57,11.1936667 99.0333333,10.958 98.296,10.958 C97.82,10.958 97.4023333,11.0653333 97.043,11.28 C96.6836667,11.4946667 96.35,11.7513333 96.042,12.05 L96.042,12.05 L95.986,12.05 L95.874,11.126 L94.544,11.126 L94.544,18 L96.154,18 Z M104.778,21.038 C105.338,21.038 105.844333,20.975 106.297,20.849 C106.749667,20.723 107.134667,20.5526667 107.452,20.338 C107.769333,20.1233333 108.014333,19.8666667 108.187,19.568 C108.359667,19.2693333 108.446,18.952 108.446,18.616 C108.446,18.0186667 108.233667,17.587 107.809,17.321 C107.384333,17.055 106.756667,16.922 105.926,16.922 L105.926,16.922 L104.708,16.922 C104.288,16.922 103.996333,16.866 103.833,16.754 C103.669667,16.642 103.588,16.488 103.588,16.292 C103.588,16.1333333 103.618333,16.0073333 103.679,15.914 C103.739667,15.8206667 103.821333,15.7273333 103.924,15.634 C104.082667,15.6993333 104.241333,15.746 104.4,15.774 C104.558667,15.802 104.712667,15.816 104.862,15.816 C105.226,15.816 105.566667,15.7646667 105.884,15.662 C106.201333,15.5593333 106.476667,15.41 106.71,15.214 C106.943333,15.018 107.127667,14.7753333 107.263,14.486 C107.398333,14.1966667 107.466,13.8606667 107.466,13.478 C107.466,13.2353333 107.428667,13.0136667 107.354,12.813 C107.279333,12.6123333 107.186,12.4466667 107.074,12.316 L107.074,12.316 L108.334,12.316 L108.334,11.126 L105.87,11.126 C105.73,11.0793333 105.573667,11.0396667 105.401,11.007 C105.228333,10.9743333 105.048667,10.958 104.862,10.958 C104.498,10.958 104.152667,11.0116667 103.826,11.119 C103.499333,11.2263333 103.212333,11.385 102.965,11.595 C102.717667,11.805 102.519333,12.064 102.37,12.372 C102.220667,12.68 102.146,13.03 102.146,13.422 C102.146,13.8326667 102.237,14.1943333 102.419,14.507 C102.601,14.8196667 102.808667,15.0646667 103.042,15.242 L103.042,15.242 L103.042,15.298 C102.846,15.438 102.671,15.6176667 102.517,15.837 C102.363,16.0563333 102.286,16.3013333 102.286,16.572 C102.286,16.852 102.344333,17.0853333 102.461,17.272 C102.577667,17.4586667 102.724667,17.608 102.902,17.72 L102.902,17.72 L102.902,17.776 C102.584667,17.972 102.342,18.1936667 102.174,18.441 C102.006,18.6883333 101.922,18.9566667 101.922,19.246 C101.922,19.5446667 101.994333,19.806 102.139,20.03 C102.283667,20.254 102.482,20.4406667 102.734,20.59 C102.986,20.7393333 103.287,20.8513333 103.637,20.926 C103.987,21.0006667 104.367333,21.038 104.778,21.038 Z M104.862,14.808 C104.526,14.808 104.241333,14.689 104.008,14.451 C103.774667,14.213 103.658,13.87 103.658,13.422 C103.658,12.9833333 103.774667,12.6473333 104.008,12.414 C104.241333,12.1806667 104.526,12.064 104.862,12.064 C105.198,12.064 105.480333,12.183 105.709,12.421 C105.937667,12.659 106.052,12.9926667 106.052,13.422 C106.052,13.87 105.935333,14.213 105.702,14.451 C105.468667,14.689 105.188667,14.808 104.862,14.808 Z M105.03,19.988 C104.479333,19.988 104.047667,19.9016667 103.735,19.729 C103.422333,19.5563333 103.266,19.316 103.266,19.008 C103.266,18.672 103.443333,18.3686667 103.798,18.098 C104.05,18.1633333 104.362667,18.196 104.736,18.196 L104.736,18.196 L105.674,18.196 C106.066,18.196 106.367,18.2426667 106.577,18.336 C106.787,18.4293333 106.892,18.6113333 106.892,18.882 C106.892,19.1806667 106.721667,19.4396667 106.381,19.659 C106.040333,19.8783333 105.59,19.988 105.03,19.988 Z M114.382,18.168 C114.811333,18.168 115.194,18.112 115.53,18 C115.866,17.888 116.146,17.7363333 116.37,17.545 C116.594,17.3536667 116.764333,17.1296667 116.881,16.873 C116.997667,16.6163333 117.056,16.3386667 117.056,16.04 C117.056,15.7226667 116.997667,15.4496667 116.881,15.221 C116.764333,14.9923333 116.610333,14.7986667 116.419,14.64 C116.227667,14.4813333 116.015333,14.3483333 115.782,14.241 C115.548667,14.1336667 115.315333,14.038 115.082,13.954 C114.895333,13.8886667 114.715667,13.8233333 114.543,13.758 C114.370333,13.6926667 114.218667,13.6226667 114.088,13.548 C113.957333,13.4733333 113.852333,13.387 113.773,13.289 C113.693667,13.191 113.654,13.072 113.654,12.932 C113.654,12.7173333 113.735667,12.5376667 113.899,12.393 C114.062333,12.2483333 114.316667,12.176 114.662,12.176 C114.932667,12.176 115.191667,12.2296667 115.439,12.337 C115.686333,12.4443333 115.931333,12.5866667 116.174,12.764 L116.174,12.764 L116.916,11.784 C116.636,11.5693333 116.304667,11.378 115.922,11.21 C115.539333,11.042 115.11,10.958 114.634,10.958 C113.859333,10.958 113.248,11.1493333 112.8,11.532 C112.352,11.9146667 112.128,12.4093333 112.128,13.016 C112.128,13.3053333 112.186333,13.555 112.303,13.765 C112.419667,13.975 112.569,14.1593333 112.751,14.318 C112.933,14.4766667 113.140667,14.612 113.374,14.724 C113.607333,14.836 113.836,14.934 114.06,15.018 C114.237333,15.0926667 114.414667,15.165 114.592,15.235 C114.769333,15.305 114.928,15.382 115.068,15.466 C115.208,15.55 115.32,15.6456667 115.404,15.753 C115.488,15.8603333 115.53,15.984 115.53,16.124 C115.53,16.3666667 115.441333,16.565 115.264,16.719 C115.086667,16.873 114.811333,16.95 114.438,16.95 C114.083333,16.95 113.754333,16.8823333 113.451,16.747 C113.147667,16.6116667 112.842,16.4226667 112.534,16.18 L112.534,16.18 L111.778,17.216 C112.114,17.4866667 112.513,17.713 112.975,17.895 C113.437,18.077 113.906,18.168 114.382,18.168 Z M121.312,18.168 C121.741333,18.168 122.154333,18.0886667 122.551,17.93 C122.947667,17.7713333 123.295333,17.538 123.594,17.23 C123.892667,16.922 124.133,16.544 124.315,16.096 C124.497,15.648 124.588,15.1393333 124.588,14.57 C124.588,14.0006667 124.497,13.492 124.315,13.044 C124.133,12.596 123.892667,12.218 123.594,11.91 C123.295333,11.602 122.947667,11.3663333 122.551,11.203 C122.154333,11.0396667 121.741333,10.958 121.312,10.958 C120.882667,10.958 120.472,11.0396667 120.08,11.203 C119.688,11.3663333 119.340333,11.602 119.037,11.91 C118.733667,12.218 118.493333,12.596 118.316,13.044 C118.138667,13.492 118.05,14.0006667 118.05,14.57 C118.05,15.1393333 118.138667,15.648 118.316,16.096 C118.493333,16.544 118.733667,16.922 119.037,17.23 C119.340333,17.538 119.688,17.7713333 120.08,17.93 C120.472,18.0886667 120.882667,18.168 121.312,18.168 Z M121.312,16.852 C120.808,16.852 120.413667,16.6443333 120.129,16.229 C119.844333,15.8136667 119.702,15.2606667 119.702,14.57 C119.702,13.87 119.844333,13.3123333 120.129,12.897 C120.413667,12.4816667 120.808,12.274 121.312,12.274 C121.816,12.274 122.212667,12.4816667 122.502,12.897 C122.791333,13.3123333 122.936,13.87 122.936,14.57 C122.936,15.2606667 122.791333,15.8136667 122.502,16.229 C122.212667,16.6443333 121.816,16.852 121.312,16.852 Z M128.998,18.168 C129.427333,18.168 129.840333,18.0886667 130.237,17.93 C130.633667,17.7713333 130.981333,17.538 131.28,17.23 C131.578667,16.922 131.819,16.544 132.001,16.096 C132.183,15.648 132.274,15.1393333 132.274,14.57 C132.274,14.0006667 132.183,13.492 132.001,13.044 C131.819,12.596 131.578667,12.218 131.28,11.91 C130.981333,11.602 130.633667,11.3663333 130.237,11.203 C129.840333,11.0396667 129.427333,10.958 128.998,10.958 C128.568667,10.958 128.158,11.0396667 127.766,11.203 C127.374,11.3663333 127.026333,11.602 126.723,11.91 C126.419667,12.218 126.179333,12.596 126.002,13.044 C125.824667,13.492 125.736,14.0006667 125.736,14.57 C125.736,15.1393333 125.824667,15.648 126.002,16.096 C126.179333,16.544 126.419667,16.922 126.723,17.23 C127.026333,17.538 127.374,17.7713333 127.766,17.93 C128.158,18.0886667 128.568667,18.168 128.998,18.168 Z M128.998,16.852 C128.494,16.852 128.099667,16.6443333 127.815,16.229 C127.530333,15.8136667 127.388,15.2606667 127.388,14.57 C127.388,13.87 127.530333,13.3123333 127.815,12.897 C128.099667,12.4816667 128.494,12.274 128.998,12.274 C129.502,12.274 129.898667,12.4816667 130.188,12.897 C130.477333,13.3123333 130.622,13.87 130.622,14.57 C130.622,15.2606667 130.477333,15.8136667 130.188,16.229 C129.898667,16.6443333 129.502,16.852 128.998,16.852 Z M135.48,18 L135.48,13.198 C135.769333,12.918 136.028333,12.7056667 136.257,12.561 C136.485667,12.4163333 136.749333,12.344 137.048,12.344 C137.430667,12.344 137.706,12.4606667 137.874,12.694 C138.042,12.9273333 138.126,13.3286667 138.126,13.898 L138.126,13.898 L138.126,18 L139.736,18 L139.736,13.688 C139.736,12.8106667 139.568,12.1363333 139.232,11.665 C138.896,11.1936667 138.359333,10.958 137.622,10.958 C137.146,10.958 136.728333,11.0653333 136.369,11.28 C136.009667,11.4946667 135.676,11.7513333 135.368,12.05 L135.368,12.05 L135.312,12.05 L135.2,11.126 L133.87,11.126 L133.87,18 L135.48,18 Z M143.432,14.99 L143.656,10.216 L143.712,8.62 L142.088,8.62 L142.13,10.216 L142.354,14.99 L143.432,14.99 Z M142.9,18.168 C143.198667,18.168 143.446,18.0653333 143.642,17.86 C143.838,17.6546667 143.936,17.3933333 143.936,17.076 C143.936,16.7586667 143.838,16.4973333 143.642,16.292 C143.446,16.0866667 143.198667,15.984 142.9,15.984 C142.601333,15.984 142.351667,16.0866667 142.151,16.292 C141.950333,16.4973333 141.85,16.7586667 141.85,17.076 C141.85,17.3933333 141.950333,17.6546667 142.151,17.86 C142.351667,18.0653333 142.601333,18.168 142.9,18.168 Z" id="Newdatacomingsoon!" fill="#000000" fill-rule="nonzero"></path>
        </g>
    </g>
</svg>