<?xml version="1.0" encoding="UTF-8"?>
<svg width="266px" height="92px" viewBox="0 0 266 92" version="1.1" xmlns="http://www.w3.org/2000/svg" xmlns:xlink="http://www.w3.org/1999/xlink">
    <title>anecdote-debt-1</title>
    <g id="02.-Anecdote-Cards" stroke="none" stroke-width="1" fill="none" fill-rule="evenodd">
        <g id="Anecdote-Cards-(Desktop/Tablet)---SVG" transform="translate(-153.000000, -2269.000000)">
            <g id="anecdote-debt-1" transform="translate(153.000000, 2269.000000)">
                <g id="Group-7">
                    <g id="Group-25" transform="translate(15.000000, 0.000000)">
                        <polygon id="Fill-1" fill="#4A0072" points="40.6640769 2.8315 17.7848462 19.6893846 19.7825385 22.6388077 42.6604231 5.78092308 65.541 22.6388077 67.5373462 19.6893846 44.6567692 2.8315 42.6604231 1.34803846"></polygon>
                        <polygon id="Fill-2" fill="#4A0072" points="62.1706346 36.4959808 23.1510192 36.4959808 23.1510192 22.1204038 42.6608269 7.74482692 62.1706346 22.1204038"></polygon>
                        <polygon id="Fill-3" fill="#4A0072" points="2.91307692 68.8603462 19.0669231 68.8603462 19.0669231 33.8603462 2.91307692 33.8603462"></polygon>
                        <polygon id="Fill-4" fill="#4A0072" points="66.1809615 68.8603462 82.3348077 68.8603462 82.3348077 33.8603462 66.1809615 33.8603462"></polygon>
                        <polygon id="Fill-5" fill="#4A0072" points="23.1040385 68.8603462 62.1438462 68.8603462 62.1438462 26.0580385 23.1040385 26.0580385"></polygon>
                        <polygon id="Fill-6" fill="#FFFFFF" points="6.92461538 47.4511154 15.0513462 47.4511154 15.0513462 39.3243846 6.92461538 39.3243846"></polygon>
                        <polygon id="Fill-7" fill="#FFFFFF" points="6.92461538 59.4870769 15.0513462 59.4870769 15.0513462 51.3603462 6.92461538 51.3603462"></polygon>
                        <polygon id="Fill-8" fill="#FFFFFF" points="26.8934615 34.5415 35.0201923 34.5415 35.0201923 26.4147692 26.8934615 26.4147692"></polygon>
                        <polygon id="Fill-9" fill="#FFFFFF" points="26.8934615 46.5774615 35.0201923 46.5774615 35.0201923 38.4507308 26.8934615 38.4507308"></polygon>
                        <polygon id="Fill-10" fill="#FFFFFF" points="38.5592308 34.5415 46.6859615 34.5415 46.6859615 26.4147692 38.5592308 26.4147692"></polygon>
                        <polygon id="Fill-11" fill="#FFFFFF" points="38.5592308 46.5774615 46.6859615 46.5774615 46.6859615 38.4507308 38.5592308 38.4507308"></polygon>
                        <polygon id="Fill-12" fill="#FFFFFF" points="50.2263462 34.5415 58.3530769 34.5415 58.3530769 26.4147692 50.2263462 26.4147692"></polygon>
                        <polygon id="Fill-13" fill="#FFFFFF" points="50.2263462 46.5774615 58.3530769 46.5774615 58.3530769 38.4507308 50.2263462 38.4507308"></polygon>
                        <polygon id="Fill-14" fill="#FFFFFF" points="70.6676923 47.4511154 78.7944231 47.4511154 78.7944231 39.3243846 70.6676923 39.3243846"></polygon>
                        <polygon id="Fill-15" fill="#FFFFFF" points="70.6676923 59.4870769 78.7944231 59.4870769 78.7944231 51.3603462 70.6676923 51.3603462"></polygon>
                        <polygon id="Fill-16" fill="#FFFFFF" points="38.5982692 68.8603462 46.7236538 68.8603462 46.7236538 54.5938077 38.5982692 54.5938077"></polygon>
                        <polygon id="Fill-17" fill="#0A2F5A" points="9.65596154 11.0227115 5.43711538 2.31578846 9.61557692 11.0415577 2.03807692 5.02694231 9.59 11.0765577 0.150769231 8.94425 9.57923077 11.1182885 0.150769231 13.2936731 9.59 11.1613654 2.03807692 17.2096346 9.61557692 11.1950192 5.43711538 19.9221346 9.65596154 11.2138654 9.6775 20.8900192 9.69769231 11.2138654 13.9151923 19.9221346 9.73673077 11.1950192 17.3169231 17.2096346 9.765 11.1613654 19.2028846 13.2936731 9.77442308 11.1182885 19.2028846 8.94425 9.765 11.0765577 17.3169231 5.02694231 9.73673077 11.0415577 13.9151923 2.31578846 9.69769231 11.0227115 9.6775 1.34790385"></polygon>
                        <g id="Group-24" transform="translate(0.000000, 0.206500)">
                            <polygon id="Stroke-18" stroke="#4A0072" stroke-linecap="round" points="9.57923077 10.9117885 0.150769231 8.73775 9.58865385 10.8700577 2.03807692 4.82044231 9.61557692 10.8350577 5.43711538 2.10794231 9.65596154 10.8162115 9.6775 1.14140385 9.69903846 10.8162115 13.9165385 2.10794231 9.73807692 10.8350577 17.3169231 4.82044231 9.765 10.8700577 19.2028846 8.73775 9.77442308 10.9117885 19.2028846 13.0858269 9.765 10.9548654 17.3169231 17.0031346 9.73807692 10.9885192 13.9165385 19.7156346 9.69903846 11.0073654 9.6775 20.6821731 9.65596154 11.0073654 5.43711538 19.7156346 9.61557692 10.9885192 2.03807692 17.0031346 9.58865385 10.9548654 0.150769231 13.0858269"></polygon>
                            <path d="M15.89525,10.9117885 C15.89525,14.3458269 13.1114038,17.1310192 9.67736538,17.1310192 C6.24332692,17.1310192 3.45813462,14.3458269 3.45813462,10.9117885 C3.45813462,7.47775 6.24332692,4.69390385 9.67736538,4.69390385 C13.1114038,4.69390385 15.89525,7.47775 15.89525,10.9117885" id="Fill-20" fill="#4A0072"></path>
                            <path d="M15.89525,10.9117885 C15.89525,14.3458269 13.1114038,17.1310192 9.67736538,17.1310192 C6.24332692,17.1310192 3.45813462,14.3458269 3.45813462,10.9117885 C3.45813462,7.47775 6.24332692,4.69390385 9.67736538,4.69390385 C13.1114038,4.69390385 15.89525,7.47775 15.89525,10.9117885 Z" id="Stroke-22" stroke="#FFFFFF"></path>
                        </g>
                    </g>
                    <rect id="Rectangle" fill="#4A0072" fill-rule="nonzero" x="0" y="51" width="114" height="41"></rect>
                    <path d="M22.622,86 L22.622,81.38 L27.564,81.38 L27.564,86 L28.208,86 L28.208,76.774 L27.564,76.774 L27.564,80.82 L22.622,80.82 L22.622,76.774 L21.978,76.774 L21.978,86 L22.622,86 Z M33.304,86.168 C33.7053333,86.168 34.0903333,86.0886667 34.459,85.93 C34.8276667,85.7713333 35.1496667,85.5426667 35.425,85.244 C35.7003333,84.9453333 35.9196667,84.579 36.083,84.145 C36.2463333,83.711 36.328,83.214 36.328,82.654 C36.328,82.094 36.2463333,81.5923333 36.083,81.149 C35.9196667,80.7056667 35.7003333,80.3346667 35.425,80.036 C35.1496667,79.7373333 34.8276667,79.5086667 34.459,79.35 C34.0903333,79.1913333 33.7053333,79.112 33.304,79.112 C32.9026667,79.112 32.52,79.1913333 32.156,79.35 C31.792,79.5086667 31.4723333,79.7373333 31.197,80.036 C30.9216667,80.3346667 30.7023333,80.7056667 30.539,81.149 C30.3756667,81.5923333 30.294,82.094 30.294,82.654 C30.294,83.214 30.3756667,83.711 30.539,84.145 C30.7023333,84.579 30.9216667,84.9453333 31.197,85.244 C31.4723333,85.5426667 31.792,85.7713333 32.156,85.93 C32.52,86.0886667 32.9026667,86.168 33.304,86.168 Z M33.304,85.622 C32.968,85.622 32.6553333,85.5496667 32.366,85.405 C32.0766667,85.2603333 31.827,85.0573333 31.617,84.796 C31.407,84.5346667 31.2413333,84.222 31.12,83.858 C30.9986667,83.494 30.938,83.0926667 30.938,82.654 C30.938,82.206 30.9986667,81.8 31.12,81.436 C31.2413333,81.072 31.407,80.757 31.617,80.491 C31.827,80.225 32.0766667,80.0196667 32.366,79.875 C32.6553333,79.7303333 32.968,79.658 33.304,79.658 C33.64,79.658 33.955,79.7303333 34.249,79.875 C34.543,80.0196667 34.795,80.225 35.005,80.491 C35.215,80.757 35.3806667,81.072 35.502,81.436 C35.6233333,81.8 35.684,82.206 35.684,82.654 C35.684,83.0926667 35.6233333,83.494 35.502,83.858 C35.3806667,84.222 35.215,84.5346667 35.005,84.796 C34.795,85.0573333 34.543,85.2603333 34.249,85.405 C33.955,85.5496667 33.64,85.622 33.304,85.622 Z M40.276,86.168 C40.7426667,86.168 41.158,86.0513333 41.522,85.818 C41.886,85.5846667 42.2313333,85.272 42.558,84.88 L42.558,84.88 L42.586,84.88 L42.656,86 L43.174,86 L43.174,79.28 L42.558,79.28 L42.558,84.236 C42.166,84.712 41.8066667,85.0596667 41.48,85.279 C41.1533333,85.4983333 40.7893333,85.608 40.388,85.608 C39.8466667,85.608 39.457,85.4376667 39.219,85.097 C38.981,84.7563333 38.862,84.2266667 38.862,83.508 L38.862,83.508 L38.862,79.28 L38.246,79.28 L38.246,83.592 C38.246,84.4693333 38.4093333,85.118 38.736,85.538 C39.0626667,85.958 39.576,86.168 40.276,86.168 Z M47.374,86.168 C47.738,86.168 48.06,86.1166667 48.34,86.014 C48.62,85.9113333 48.858,85.7736667 49.054,85.601 C49.25,85.4283333 49.397,85.2276667 49.495,84.999 C49.593,84.7703333 49.642,84.53 49.642,84.278 C49.642,83.9513333 49.5766667,83.6783333 49.446,83.459 C49.3153333,83.2396667 49.145,83.0553333 48.935,82.906 C48.725,82.7566667 48.4893333,82.6306667 48.228,82.528 L48.228,82.528 L47.444,82.22 C47.248,82.1453333 47.0543333,82.0683333 46.863,81.989 C46.6716667,81.9096667 46.5013333,81.8186667 46.352,81.716 C46.2026667,81.6133333 46.0836667,81.4943333 45.995,81.359 C45.9063333,81.2236667 45.862,81.058 45.862,80.862 C45.862,80.7126667 45.8923333,80.5633333 45.953,80.414 C46.0136667,80.2646667 46.107,80.134 46.233,80.022 C46.359,79.91 46.5153333,79.819 46.702,79.749 C46.8886667,79.679 47.1126667,79.644 47.374,79.644 C47.7193333,79.644 48.018,79.7023333 48.27,79.819 C48.522,79.9356667 48.76,80.078 48.984,80.246 L48.984,80.246 L49.32,79.812 C49.0773333,79.6066667 48.7856667,79.4386667 48.445,79.308 C48.1043333,79.1773333 47.7566667,79.112 47.402,79.112 C47.0473333,79.112 46.737,79.1586667 46.471,79.252 C46.205,79.3453333 45.9786667,79.4736667 45.792,79.637 C45.6053333,79.8003333 45.4653333,79.9916667 45.372,80.211 C45.2786667,80.4303333 45.232,80.6613333 45.232,80.904 C45.232,81.1933333 45.295,81.4383333 45.421,81.639 C45.547,81.8396667 45.7126667,82.0123333 45.918,82.157 C46.1233333,82.3016667 46.3543333,82.4253333 46.611,82.528 C46.8676667,82.6306667 47.122,82.7286667 47.374,82.822 C47.57,82.8966667 47.7636667,82.976 47.955,83.06 C48.1463333,83.144 48.3213333,83.242 48.48,83.354 C48.6386667,83.466 48.767,83.6013333 48.865,83.76 C48.963,83.9186667 49.012,84.1006667 49.012,84.306 C49.012,84.6606667 48.879,84.971 48.613,85.237 C48.347,85.503 47.948,85.636 47.416,85.636 C46.9306667,85.636 46.5246667,85.5543333 46.198,85.391 C45.8713333,85.2276667 45.5633333,85.0246667 45.274,84.782 L45.274,84.782 L44.91,85.244 C45.2086667,85.496 45.568,85.713 45.988,85.895 C46.408,86.077 46.87,86.168 47.374,86.168 Z M53.968,86.168 C54.4626667,86.168 54.871,86.098 55.193,85.958 C55.515,85.818 55.8113333,85.6686667 56.082,85.51 L56.082,85.51 L55.83,85.034 C55.578,85.2206667 55.305,85.3676667 55.011,85.475 C54.717,85.5823333 54.388,85.636 54.024,85.636 C53.6413333,85.636 53.296,85.5636667 52.988,85.419 C52.68,85.2743333 52.4163333,85.0736667 52.197,84.817 C51.9776667,84.5603333 51.8073333,84.2523333 51.686,83.893 C51.5646667,83.5336667 51.4993333,83.144 51.49,82.724 L51.49,82.724 L56.334,82.724 C56.3526667,82.64 56.362,82.556 56.362,82.472 L56.362,82.472 L56.362,82.22 C56.362,81.2306667 56.1333333,80.4653333 55.676,79.924 C55.2186667,79.3826667 54.5886667,79.112 53.786,79.112 C53.4126667,79.112 53.051,79.1936667 52.701,79.357 C52.351,79.5203333 52.0383333,79.7536667 51.763,80.057 C51.4876667,80.3603333 51.2683333,80.7313333 51.105,81.17 C50.9416667,81.6086667 50.86,82.1033333 50.86,82.654 C50.86,83.2046667 50.9416667,83.697 51.105,84.131 C51.2683333,84.565 51.49,84.9336667 51.77,85.237 C52.05,85.5403333 52.379,85.7713333 52.757,85.93 C53.135,86.0886667 53.5386667,86.168 53.968,86.168 Z M55.774,82.22 L51.49,82.22 C51.5273333,81.8186667 51.6136667,81.4593333 51.749,81.142 C51.8843333,80.8246667 52.057,80.554 52.267,80.33 C52.477,80.106 52.7126667,79.9356667 52.974,79.819 C53.2353333,79.7023333 53.5106667,79.644 53.8,79.644 C54.4066667,79.644 54.8873333,79.8563333 55.242,80.281 C55.5966667,80.7056667 55.774,81.352 55.774,82.22 L55.774,82.22 Z M58.798,86 L58.798,80.932 C59.2086667,80.512 59.5773333,80.197 59.904,79.987 C60.2306667,79.777 60.5946667,79.672 60.996,79.672 C61.5466667,79.672 61.941,79.8423333 62.179,80.183 C62.417,80.5236667 62.536,81.0533333 62.536,81.772 L62.536,81.772 L62.536,86 L63.152,86 L63.152,81.688 C63.152,80.8106667 62.9886667,80.162 62.662,79.742 C62.3353333,79.322 61.822,79.112 61.122,79.112 C60.6553333,79.112 60.24,79.2263333 59.876,79.455 C59.512,79.6836667 59.1526667,79.9753333 58.798,80.33 L58.798,80.33 L58.798,75.934 L58.182,75.934 L58.182,86 L58.798,86 Z M68.024,86.168 C68.4253333,86.168 68.8103333,86.0886667 69.179,85.93 C69.5476667,85.7713333 69.8696667,85.5426667 70.145,85.244 C70.4203333,84.9453333 70.6396667,84.579 70.803,84.145 C70.9663333,83.711 71.048,83.214 71.048,82.654 C71.048,82.094 70.9663333,81.5923333 70.803,81.149 C70.6396667,80.7056667 70.4203333,80.3346667 70.145,80.036 C69.8696667,79.7373333 69.5476667,79.5086667 69.179,79.35 C68.8103333,79.1913333 68.4253333,79.112 68.024,79.112 C67.6226667,79.112 67.24,79.1913333 66.876,79.35 C66.512,79.5086667 66.1923333,79.7373333 65.917,80.036 C65.6416667,80.3346667 65.4223333,80.7056667 65.259,81.149 C65.0956667,81.5923333 65.014,82.094 65.014,82.654 C65.014,83.214 65.0956667,83.711 65.259,84.145 C65.4223333,84.579 65.6416667,84.9453333 65.917,85.244 C66.1923333,85.5426667 66.512,85.7713333 66.876,85.93 C67.24,86.0886667 67.6226667,86.168 68.024,86.168 Z M68.024,85.622 C67.688,85.622 67.3753333,85.5496667 67.086,85.405 C66.7966667,85.2603333 66.547,85.0573333 66.337,84.796 C66.127,84.5346667 65.9613333,84.222 65.84,83.858 C65.7186667,83.494 65.658,83.0926667 65.658,82.654 C65.658,82.206 65.7186667,81.8 65.84,81.436 C65.9613333,81.072 66.127,80.757 66.337,80.491 C66.547,80.225 66.7966667,80.0196667 67.086,79.875 C67.3753333,79.7303333 67.688,79.658 68.024,79.658 C68.36,79.658 68.675,79.7303333 68.969,79.875 C69.263,80.0196667 69.515,80.225 69.725,80.491 C69.935,80.757 70.1006667,81.072 70.222,81.436 C70.3433333,81.8 70.404,82.206 70.404,82.654 C70.404,83.0926667 70.3433333,83.494 70.222,83.858 C70.1006667,84.222 69.935,84.5346667 69.725,84.796 C69.515,85.0573333 69.263,85.2603333 68.969,85.405 C68.675,85.5496667 68.36,85.622 68.024,85.622 Z M73.89,86.168 C73.9926667,86.168 74.0766667,86.161 74.142,86.147 C74.2073333,86.133 74.2726667,86.1166667 74.338,86.098 L74.338,86.098 L74.226,85.594 C74.1513333,85.6126667 74.0976667,85.622 74.065,85.622 L74.065,85.622 L73.974,85.622 C73.89,85.622 73.82,85.587 73.764,85.517 C73.708,85.447 73.68,85.3373333 73.68,85.188 L73.68,85.188 L73.68,75.934 L73.064,75.934 L73.064,85.104 C73.064,85.8133333 73.3393333,86.168 73.89,86.168 Z M78.608,86.168 C79.056,86.168 79.4643333,86.063 79.833,85.853 C80.2016667,85.643 80.5213333,85.4026667 80.792,85.132 L80.792,85.132 L80.834,85.132 L80.89,86 L81.422,86 L81.422,75.934 L80.806,75.934 L80.806,78.706 L80.834,79.938 C80.498,79.6766667 80.1783333,79.4736667 79.875,79.329 C79.5716667,79.1843333 79.2146667,79.112 78.804,79.112 C78.4026667,79.112 78.0223333,79.1936667 77.663,79.357 C77.3036667,79.5203333 76.9863333,79.756 76.711,80.064 C76.4356667,80.372 76.2186667,80.7453333 76.06,81.184 C75.9013333,81.6226667 75.822,82.1126667 75.822,82.654 C75.822,83.7926667 76.074,84.663 76.578,85.265 C77.082,85.867 77.7586667,86.168 78.608,86.168 Z M78.692,85.622 C78.3373333,85.622 78.0223333,85.5496667 77.747,85.405 C77.4716667,85.2603333 77.2406667,85.0596667 77.054,84.803 C76.8673333,84.5463333 76.725,84.236 76.627,83.872 C76.529,83.508 76.48,83.102 76.48,82.654 C76.48,82.234 76.5406667,81.8396667 76.662,81.471 C76.7833333,81.1023333 76.949,80.785 77.159,80.519 C77.369,80.253 77.6186667,80.043 77.908,79.889 C78.1973333,79.735 78.51,79.658 78.846,79.658 C79.1726667,79.658 79.4923333,79.7233333 79.805,79.854 C80.1176667,79.9846667 80.4513333,80.2086667 80.806,80.526 L80.806,80.526 L80.806,84.516 C80.4513333,84.8706667 80.1036667,85.1436667 79.763,85.335 C79.4223333,85.5263333 79.0653333,85.622 78.692,85.622 Z M85.622,86.168 C85.986,86.168 86.308,86.1166667 86.588,86.014 C86.868,85.9113333 87.106,85.7736667 87.302,85.601 C87.498,85.4283333 87.645,85.2276667 87.743,84.999 C87.841,84.7703333 87.89,84.53 87.89,84.278 C87.89,83.9513333 87.8246667,83.6783333 87.694,83.459 C87.5633333,83.2396667 87.393,83.0553333 87.183,82.906 C86.973,82.7566667 86.7373333,82.6306667 86.476,82.528 L86.476,82.528 L85.692,82.22 C85.496,82.1453333 85.3023333,82.0683333 85.111,81.989 C84.9196667,81.9096667 84.7493333,81.8186667 84.6,81.716 C84.4506667,81.6133333 84.3316667,81.4943333 84.243,81.359 C84.1543333,81.2236667 84.11,81.058 84.11,80.862 C84.11,80.7126667 84.1403333,80.5633333 84.201,80.414 C84.2616667,80.2646667 84.355,80.134 84.481,80.022 C84.607,79.91 84.7633333,79.819 84.95,79.749 C85.1366667,79.679 85.3606667,79.644 85.622,79.644 C85.9673333,79.644 86.266,79.7023333 86.518,79.819 C86.77,79.9356667 87.008,80.078 87.232,80.246 L87.232,80.246 L87.568,79.812 C87.3253333,79.6066667 87.0336667,79.4386667 86.693,79.308 C86.3523333,79.1773333 86.0046667,79.112 85.65,79.112 C85.2953333,79.112 84.985,79.1586667 84.719,79.252 C84.453,79.3453333 84.2266667,79.4736667 84.04,79.637 C83.8533333,79.8003333 83.7133333,79.9916667 83.62,80.211 C83.5266667,80.4303333 83.48,80.6613333 83.48,80.904 C83.48,81.1933333 83.543,81.4383333 83.669,81.639 C83.795,81.8396667 83.9606667,82.0123333 84.166,82.157 C84.3713333,82.3016667 84.6023333,82.4253333 84.859,82.528 C85.1156667,82.6306667 85.37,82.7286667 85.622,82.822 C85.818,82.8966667 86.0116667,82.976 86.203,83.06 C86.3943333,83.144 86.5693333,83.242 86.728,83.354 C86.8866667,83.466 87.015,83.6013333 87.113,83.76 C87.211,83.9186667 87.26,84.1006667 87.26,84.306 C87.26,84.6606667 87.127,84.971 86.861,85.237 C86.595,85.503 86.196,85.636 85.664,85.636 C85.1786667,85.636 84.7726667,85.5543333 84.446,85.391 C84.1193333,85.2276667 83.8113333,85.0246667 83.522,84.782 L83.522,84.782 L83.158,85.244 C83.4566667,85.496 83.816,85.713 84.236,85.895 C84.656,86.077 85.118,86.168 85.622,86.168 Z" id="Households" fill="#FFFFFF" fill-rule="nonzero"></path>
                    <path d="M18.723,71 L18.723,69.308 L16.473,69.308 L16.473,59.552 L14.925,59.552 C14.565,59.768 14.178,59.951 13.764,60.101 C13.35,60.251 12.855,60.38 12.279,60.488 L12.279,60.488 L12.279,61.784 L14.385,61.784 L14.385,69.308 L11.829,69.308 L11.829,71 L18.723,71 Z M28.155,71 L28.155,69.236 L25.347,69.236 C25.071,69.236 24.759,69.251 24.411,69.281 C24.063,69.311 23.739,69.338 23.439,69.362 C24.003,68.762 24.537,68.18 25.041,67.616 C25.545,67.052 25.986,66.503 26.364,65.969 C26.742,65.435 27.042,64.907 27.264,64.385 C27.486,63.863 27.597,63.35 27.597,62.846 C27.597,62.318 27.51,61.838 27.336,61.406 C27.162,60.974 26.919,60.605 26.607,60.299 C26.295,59.993 25.917,59.756 25.473,59.588 C25.029,59.42 24.531,59.336 23.979,59.336 C23.187,59.336 22.512,59.489 21.954,59.795 C21.396,60.101 20.853,60.536 20.325,61.1 L20.325,61.1 L21.477,62.252 C21.789,61.904 22.128,61.604 22.494,61.352 C22.86,61.1 23.265,60.974 23.709,60.974 C24.321,60.974 24.789,61.151 25.113,61.505 C25.437,61.859 25.599,62.342 25.599,62.954 C25.599,63.386 25.479,63.842 25.239,64.322 C24.999,64.802 24.654,65.318 24.204,65.87 C23.754,66.422 23.208,67.022 22.566,67.67 C21.924,68.318 21.207,69.026 20.415,69.794 L20.415,69.794 L20.415,71 L28.155,71 Z M32.871,71.216 C33.459,71.216 34.026,71.096 34.572,70.856 C35.118,70.616 35.598,70.241 36.012,69.731 C36.426,69.221 36.756,68.57 37.002,67.778 C37.248,66.986 37.371,66.032 37.371,64.916 C37.371,63.956 37.26,63.125 37.038,62.423 C36.816,61.721 36.516,61.142 36.138,60.686 C35.76,60.23 35.319,59.891 34.815,59.669 C34.311,59.447 33.783,59.336 33.231,59.336 C32.739,59.336 32.274,59.423 31.836,59.597 C31.398,59.771 31.017,60.02 30.693,60.344 C30.369,60.668 30.111,61.061 29.919,61.523 C29.727,61.985 29.631,62.504 29.631,63.08 C29.631,63.68 29.712,64.202 29.874,64.646 C30.036,65.09 30.264,65.459 30.558,65.753 C30.852,66.047 31.203,66.266 31.611,66.41 C32.019,66.554 32.469,66.626 32.961,66.626 C33.381,66.626 33.819,66.509 34.275,66.275 C34.731,66.041 35.127,65.714 35.463,65.294 C35.439,66.086 35.352,66.752 35.202,67.292 C35.052,67.832 34.857,68.267 34.617,68.597 C34.377,68.927 34.098,69.164 33.78,69.308 C33.462,69.452 33.123,69.524 32.763,69.524 C32.415,69.524 32.076,69.443 31.746,69.281 C31.416,69.119 31.143,68.912 30.927,68.66 L30.927,68.66 L29.811,69.92 C30.159,70.28 30.585,70.586 31.089,70.838 C31.593,71.09 32.187,71.216 32.871,71.216 Z M33.357,65.132 C32.781,65.132 32.334,64.961 32.016,64.619 C31.698,64.277 31.539,63.764 31.539,63.08 C31.539,62.384 31.707,61.85 32.043,61.478 C32.379,61.106 32.781,60.92 33.249,60.92 C33.801,60.92 34.272,61.148 34.662,61.604 C35.052,62.06 35.301,62.792 35.409,63.8 C35.109,64.268 34.776,64.607 34.41,64.817 C34.044,65.027 33.693,65.132 33.357,65.132 Z M39.495,74.276 C40.395,73.964 41.088,73.484 41.574,72.836 C42.06,72.188 42.303,71.42 42.303,70.532 C42.303,69.86 42.168,69.338 41.898,68.966 C41.628,68.594 41.247,68.408 40.755,68.408 C40.371,68.408 40.044,68.525 39.774,68.759 C39.504,68.993 39.369,69.302 39.369,69.686 C39.369,70.094 39.504,70.409 39.774,70.631 C40.044,70.853 40.353,70.964 40.701,70.964 L40.701,70.964 L40.863,70.964 C40.875,71.42 40.722,71.84 40.404,72.224 C40.086,72.608 39.633,72.914 39.045,73.142 L39.045,73.142 L39.495,74.276 Z M47.757,71.216 C48.957,71.216 49.905,70.703 50.601,69.677 C51.297,68.651 51.645,67.166 51.645,65.222 C51.645,63.29 51.297,61.826 50.601,60.83 C49.905,59.834 48.957,59.336 47.757,59.336 C46.557,59.336 45.609,59.831 44.913,60.821 C44.217,61.811 43.869,63.278 43.869,65.222 C43.869,67.166 44.217,68.651 44.913,69.677 C45.609,70.703 46.557,71.216 47.757,71.216 Z M47.757,69.596 C47.481,69.596 47.226,69.521 46.992,69.371 C46.758,69.221 46.557,68.972 46.389,68.624 C46.221,68.276 46.089,67.826 45.993,67.274 C45.897,66.722 45.849,66.038 45.849,65.222 C45.849,64.418 45.897,63.743 45.993,63.197 C46.089,62.651 46.221,62.21 46.389,61.874 C46.557,61.538 46.758,61.301 46.992,61.163 C47.226,61.025 47.481,60.956 47.757,60.956 C48.033,60.956 48.288,61.025 48.522,61.163 C48.756,61.301 48.957,61.538 49.125,61.874 C49.293,62.21 49.425,62.651 49.521,63.197 C49.617,63.743 49.665,64.418 49.665,65.222 C49.665,66.038 49.617,66.722 49.521,67.274 C49.425,67.826 49.293,68.276 49.125,68.624 C48.957,68.972 48.756,69.221 48.522,69.371 C48.288,69.521 48.033,69.596 47.757,69.596 Z M56.991,71.216 C58.191,71.216 59.139,70.703 59.835,69.677 C60.531,68.651 60.879,67.166 60.879,65.222 C60.879,63.29 60.531,61.826 59.835,60.83 C59.139,59.834 58.191,59.336 56.991,59.336 C55.791,59.336 54.843,59.831 54.147,60.821 C53.451,61.811 53.103,63.278 53.103,65.222 C53.103,67.166 53.451,68.651 54.147,69.677 C54.843,70.703 55.791,71.216 56.991,71.216 Z M56.991,69.596 C56.715,69.596 56.46,69.521 56.226,69.371 C55.992,69.221 55.791,68.972 55.623,68.624 C55.455,68.276 55.323,67.826 55.227,67.274 C55.131,66.722 55.083,66.038 55.083,65.222 C55.083,64.418 55.131,63.743 55.227,63.197 C55.323,62.651 55.455,62.21 55.623,61.874 C55.791,61.538 55.992,61.301 56.226,61.163 C56.46,61.025 56.715,60.956 56.991,60.956 C57.267,60.956 57.522,61.025 57.756,61.163 C57.99,61.301 58.191,61.538 58.359,61.874 C58.527,62.21 58.659,62.651 58.755,63.197 C58.851,63.743 58.899,64.418 58.899,65.222 C58.899,66.038 58.851,66.722 58.755,67.274 C58.659,67.826 58.527,68.276 58.359,68.624 C58.191,68.972 57.99,69.221 57.756,69.371 C57.522,69.521 57.267,69.596 56.991,69.596 Z M66.225,71.216 C67.425,71.216 68.373,70.703 69.069,69.677 C69.765,68.651 70.113,67.166 70.113,65.222 C70.113,63.29 69.765,61.826 69.069,60.83 C68.373,59.834 67.425,59.336 66.225,59.336 C65.025,59.336 64.077,59.831 63.381,60.821 C62.685,61.811 62.337,63.278 62.337,65.222 C62.337,67.166 62.685,68.651 63.381,69.677 C64.077,70.703 65.025,71.216 66.225,71.216 Z M66.225,69.596 C65.949,69.596 65.694,69.521 65.46,69.371 C65.226,69.221 65.025,68.972 64.857,68.624 C64.689,68.276 64.557,67.826 64.461,67.274 C64.365,66.722 64.317,66.038 64.317,65.222 C64.317,64.418 64.365,63.743 64.461,63.197 C64.557,62.651 64.689,62.21 64.857,61.874 C65.025,61.538 65.226,61.301 65.46,61.163 C65.694,61.025 65.949,60.956 66.225,60.956 C66.501,60.956 66.756,61.025 66.99,61.163 C67.224,61.301 67.425,61.538 67.593,61.874 C67.761,62.21 67.893,62.651 67.989,63.197 C68.085,63.743 68.133,64.418 68.133,65.222 C68.133,66.038 68.085,66.722 67.989,67.274 C67.893,67.826 67.761,68.276 67.593,68.624 C67.425,68.972 67.224,69.221 66.99,69.371 C66.756,69.521 66.501,69.596 66.225,69.596 Z M72.147,74.276 C73.047,73.964 73.74,73.484 74.226,72.836 C74.712,72.188 74.955,71.42 74.955,70.532 C74.955,69.86 74.82,69.338 74.55,68.966 C74.28,68.594 73.899,68.408 73.407,68.408 C73.023,68.408 72.696,68.525 72.426,68.759 C72.156,68.993 72.021,69.302 72.021,69.686 C72.021,70.094 72.156,70.409 72.426,70.631 C72.696,70.853 73.005,70.964 73.353,70.964 L73.353,70.964 L73.515,70.964 C73.527,71.42 73.374,71.84 73.056,72.224 C72.738,72.608 72.285,72.914 71.697,73.142 L71.697,73.142 L72.147,74.276 Z M80.409,71.216 C81.609,71.216 82.557,70.703 83.253,69.677 C83.949,68.651 84.297,67.166 84.297,65.222 C84.297,63.29 83.949,61.826 83.253,60.83 C82.557,59.834 81.609,59.336 80.409,59.336 C79.209,59.336 78.261,59.831 77.565,60.821 C76.869,61.811 76.521,63.278 76.521,65.222 C76.521,67.166 76.869,68.651 77.565,69.677 C78.261,70.703 79.209,71.216 80.409,71.216 Z M80.409,69.596 C80.133,69.596 79.878,69.521 79.644,69.371 C79.41,69.221 79.209,68.972 79.041,68.624 C78.873,68.276 78.741,67.826 78.645,67.274 C78.549,66.722 78.501,66.038 78.501,65.222 C78.501,64.418 78.549,63.743 78.645,63.197 C78.741,62.651 78.873,62.21 79.041,61.874 C79.209,61.538 79.41,61.301 79.644,61.163 C79.878,61.025 80.133,60.956 80.409,60.956 C80.685,60.956 80.94,61.025 81.174,61.163 C81.408,61.301 81.609,61.538 81.777,61.874 C81.945,62.21 82.077,62.651 82.173,63.197 C82.269,63.743 82.317,64.418 82.317,65.222 C82.317,66.038 82.269,66.722 82.173,67.274 C82.077,67.826 81.945,68.276 81.777,68.624 C81.609,68.972 81.408,69.221 81.174,69.371 C80.94,69.521 80.685,69.596 80.409,69.596 Z M89.643,71.216 C90.843,71.216 91.791,70.703 92.487,69.677 C93.183,68.651 93.531,67.166 93.531,65.222 C93.531,63.29 93.183,61.826 92.487,60.83 C91.791,59.834 90.843,59.336 89.643,59.336 C88.443,59.336 87.495,59.831 86.799,60.821 C86.103,61.811 85.755,63.278 85.755,65.222 C85.755,67.166 86.103,68.651 86.799,69.677 C87.495,70.703 88.443,71.216 89.643,71.216 Z M89.643,69.596 C89.367,69.596 89.112,69.521 88.878,69.371 C88.644,69.221 88.443,68.972 88.275,68.624 C88.107,68.276 87.975,67.826 87.879,67.274 C87.783,66.722 87.735,66.038 87.735,65.222 C87.735,64.418 87.783,63.743 87.879,63.197 C87.975,62.651 88.107,62.21 88.275,61.874 C88.443,61.538 88.644,61.301 88.878,61.163 C89.112,61.025 89.367,60.956 89.643,60.956 C89.919,60.956 90.174,61.025 90.408,61.163 C90.642,61.301 90.843,61.538 91.011,61.874 C91.179,62.21 91.311,62.651 91.407,63.197 C91.503,63.743 91.551,64.418 91.551,65.222 C91.551,66.038 91.503,66.722 91.407,67.274 C91.311,67.826 91.179,68.276 91.011,68.624 C90.843,68.972 90.642,69.221 90.408,69.371 C90.174,69.521 89.919,69.596 89.643,69.596 Z M98.877,71.216 C100.077,71.216 101.025,70.703 101.721,69.677 C102.417,68.651 102.765,67.166 102.765,65.222 C102.765,63.29 102.417,61.826 101.721,60.83 C101.025,59.834 100.077,59.336 98.877,59.336 C97.677,59.336 96.729,59.831 96.033,60.821 C95.337,61.811 94.989,63.278 94.989,65.222 C94.989,67.166 95.337,68.651 96.033,69.677 C96.729,70.703 97.677,71.216 98.877,71.216 Z M98.877,69.596 C98.601,69.596 98.346,69.521 98.112,69.371 C97.878,69.221 97.677,68.972 97.509,68.624 C97.341,68.276 97.209,67.826 97.113,67.274 C97.017,66.722 96.969,66.038 96.969,65.222 C96.969,64.418 97.017,63.743 97.113,63.197 C97.209,62.651 97.341,62.21 97.509,61.874 C97.677,61.538 97.878,61.301 98.112,61.163 C98.346,61.025 98.601,60.956 98.877,60.956 C99.153,60.956 99.408,61.025 99.642,61.163 C99.876,61.301 100.077,61.538 100.245,61.874 C100.413,62.21 100.545,62.651 100.641,63.197 C100.737,63.743 100.785,64.418 100.785,65.222 C100.785,66.038 100.737,66.722 100.641,67.274 C100.545,67.826 100.413,68.276 100.245,68.624 C100.077,68.972 99.876,69.221 99.642,69.371 C99.408,69.521 99.153,69.596 98.877,69.596 Z" id="129,000,000" fill="#FFFFFF" fill-rule="nonzero"></path>
                </g>
                <path d="M132.008,27 L132.008,22.216 C132.008,21.9706667 132,21.704 131.984,21.416 C131.968,21.128 131.946667,20.8373333 131.92,20.544 C131.893333,20.2506667 131.866667,19.9626667 131.84,19.68 C131.813333,19.3973333 131.789333,19.1333333 131.768,18.888 L131.768,18.888 L131.832,18.888 L132.664,21.32 L134.392,26.024 L135.496,26.024 L137.208,21.32 L138.056,18.888 L138.12,18.888 C138.098667,19.1333333 138.072,19.3973333 138.04,19.68 C138.008,19.9626667 137.981333,20.2506667 137.96,20.544 C137.938667,20.8373333 137.92,21.128 137.904,21.416 C137.888,21.704 137.88,21.9706667 137.88,22.216 L137.88,22.216 L137.88,27 L139.592,27 L139.592,16.536 L137.48,16.536 L135.672,21.656 C135.554667,21.9866667 135.445333,22.3253333 135.344,22.672 C135.242667,23.0186667 135.133333,23.3626667 135.016,23.704 L135.016,23.704 L134.952,23.704 C134.834667,23.3626667 134.722667,23.0186667 134.616,22.672 C134.509333,22.3253333 134.397333,21.9866667 134.28,21.656 L134.28,21.656 L132.424,16.536 L130.328,16.536 L130.328,27 L132.008,27 Z M145.448,27.192 C145.949333,27.192 146.429333,27.112 146.888,26.952 C147.346667,26.792 147.762667,26.5893333 148.136,26.344 L148.136,26.344 L147.512,25.192 C147.224,25.3733333 146.933333,25.5146667 146.64,25.616 C146.346667,25.7173333 146.029333,25.768 145.688,25.768 C145.048,25.768 144.522667,25.5786667 144.112,25.2 C143.701333,24.8213333 143.453333,24.28 143.368,23.576 L143.368,23.576 L148.36,23.576 C148.381333,23.48 148.4,23.352 148.416,23.192 C148.432,23.032 148.44,22.8613333 148.44,22.68 C148.44,22.136 148.370667,21.6346667 148.232,21.176 C148.093333,20.7173333 147.888,20.3226667 147.616,19.992 C147.344,19.6613333 147.005333,19.4053333 146.6,19.224 C146.194667,19.0426667 145.725333,18.952 145.192,18.952 C144.733333,18.952 144.285333,19.048 143.848,19.24 C143.410667,19.432 143.024,19.704 142.688,20.056 C142.352,20.408 142.082667,20.84 141.88,21.352 C141.677333,21.864 141.576,22.44 141.576,23.08 C141.576,23.7306667 141.674667,24.3093333 141.872,24.816 C142.069333,25.3226667 142.344,25.752 142.696,26.104 C143.048,26.456 143.458667,26.7253333 143.928,26.912 C144.397333,27.0986667 144.904,27.192 145.448,27.192 Z M146.84,22.328 L143.352,22.328 C143.437333,21.688 143.656,21.2026667 144.008,20.872 C144.36,20.5413333 144.770667,20.376 145.24,20.376 C145.784,20.376 146.186667,20.5493333 146.448,20.896 C146.709333,21.2426667 146.84,21.72 146.84,22.328 L146.84,22.328 Z M152.952,27.192 C153.378667,27.192 153.784,27.0906667 154.168,26.888 C154.552,26.6853333 154.888,26.44 155.176,26.152 L155.176,26.152 L155.24,26.152 L155.368,27 L156.888,27 L156.888,15.704 L155.048,15.704 L155.048,18.552 L155.112,19.816 C154.802667,19.5493333 154.493333,19.3386667 154.184,19.184 C153.874667,19.0293333 153.496,18.952 153.048,18.952 C152.621333,18.952 152.208,19.048 151.808,19.24 C151.408,19.432 151.053333,19.704 150.744,20.056 C150.434667,20.408 150.186667,20.84 150,21.352 C149.813333,21.864 149.72,22.44 149.72,23.08 C149.72,24.3813333 150.010667,25.392 150.592,26.112 C151.173333,26.832 151.96,27.192 152.952,27.192 Z M153.4,25.672 C152.824,25.672 152.384,25.4506667 152.08,25.008 C151.776,24.5653333 151.624,23.9173333 151.624,23.064 C151.624,22.232 151.8,21.592 152.152,21.144 C152.504,20.696 152.936,20.472 153.448,20.472 C153.714667,20.472 153.978667,20.52 154.24,20.616 C154.501333,20.712 154.770667,20.8826667 155.048,21.128 L155.048,21.128 L155.048,24.792 C154.536,25.3786667 153.986667,25.672 153.4,25.672 Z M160.152,17.768 C160.482667,17.768 160.754667,17.672 160.968,17.48 C161.181333,17.288 161.288,17.0373333 161.288,16.728 C161.288,16.4186667 161.181333,16.1653333 160.968,15.968 C160.754667,15.7706667 160.482667,15.672 160.152,15.672 C159.821333,15.672 159.549333,15.7706667 159.336,15.968 C159.122667,16.1653333 159.016,16.4186667 159.016,16.728 C159.016,17.0373333 159.122667,17.288 159.336,17.48 C159.549333,17.672 159.821333,17.768 160.152,17.768 Z M161.064,27 L161.064,19.144 L159.224,19.144 L159.224,27 L161.064,27 Z M165.32,27.192 C165.789333,27.192 166.224,27.0906667 166.624,26.888 C167.024,26.6853333 167.4,26.4346667 167.752,26.136 L167.752,26.136 L167.816,26.136 L167.944,27 L169.464,27 L169.464,22.344 C169.464,21.2453333 169.221333,20.4053333 168.736,19.824 C168.250667,19.2426667 167.517333,18.952 166.536,18.952 C165.906667,18.952 165.32,19.0533333 164.776,19.256 C164.232,19.4586667 163.741333,19.6986667 163.304,19.976 L163.304,19.976 L163.976,21.208 C164.328,20.9946667 164.688,20.8133333 165.056,20.664 C165.424,20.5146667 165.8,20.44 166.184,20.44 C166.450667,20.44 166.674667,20.48 166.856,20.56 C167.037333,20.64 167.184,20.752 167.296,20.896 C167.408,21.04 167.488,21.2053333 167.536,21.392 C167.584,21.5786667 167.613333,21.7733333 167.624,21.976 C166.813333,22.0613333 166.117333,22.184 165.536,22.344 C164.954667,22.504 164.474667,22.7013333 164.096,22.936 C163.717333,23.1706667 163.44,23.4506667 163.264,23.776 C163.088,24.1013333 163,24.472 163,24.888 C163,25.5813333 163.213333,26.1386667 163.64,26.56 C164.066667,26.9813333 164.626667,27.192 165.32,27.192 Z M165.912,25.752 C165.581333,25.752 165.309333,25.672 165.096,25.512 C164.882667,25.352 164.776,25.096 164.776,24.744 C164.776,24.552 164.824,24.3706667 164.92,24.2 C165.016,24.0293333 165.176,23.8773333 165.4,23.744 C165.624,23.6106667 165.917333,23.4906667 166.28,23.384 C166.642667,23.2773333 167.090667,23.192 167.624,23.128 L167.624,23.128 L167.624,24.888 C167.325333,25.1653333 167.045333,25.3786667 166.784,25.528 C166.522667,25.6773333 166.232,25.752 165.912,25.752 Z M173.512,27 L173.512,21.512 C173.842667,21.192 174.138667,20.9493333 174.4,20.784 C174.661333,20.6186667 174.962667,20.536 175.304,20.536 C175.741333,20.536 176.056,20.6693333 176.248,20.936 C176.44,21.2026667 176.536,21.6613333 176.536,22.312 L176.536,22.312 L176.536,27 L178.376,27 L178.376,22.072 C178.376,21.0693333 178.184,20.2986667 177.8,19.76 C177.416,19.2213333 176.802667,18.952 175.96,18.952 C175.416,18.952 174.938667,19.0746667 174.528,19.32 C174.117333,19.5653333 173.736,19.8586667 173.384,20.2 L173.384,20.2 L173.32,20.2 L173.192,19.144 L171.672,19.144 L171.672,27 L173.512,27 Z M185.848,27 L185.848,22.36 L190.088,22.36 L190.088,27 L191.944,27 L191.944,16.536 L190.088,16.536 L190.088,20.744 L185.848,20.744 L185.848,16.536 L183.992,16.536 L183.992,27 L185.848,27 Z M197.656,27.192 C198.146667,27.192 198.618667,27.1013333 199.072,26.92 C199.525333,26.7386667 199.922667,26.472 200.264,26.12 C200.605333,25.768 200.88,25.336 201.088,24.824 C201.296,24.312 201.4,23.7306667 201.4,23.08 C201.4,22.4293333 201.296,21.848 201.088,21.336 C200.88,20.824 200.605333,20.392 200.264,20.04 C199.922667,19.688 199.525333,19.4186667 199.072,19.232 C198.618667,19.0453333 198.146667,18.952 197.656,18.952 C197.165333,18.952 196.696,19.0453333 196.248,19.232 C195.8,19.4186667 195.402667,19.688 195.056,20.04 C194.709333,20.392 194.434667,20.824 194.232,21.336 C194.029333,21.848 193.928,22.4293333 193.928,23.08 C193.928,23.7306667 194.029333,24.312 194.232,24.824 C194.434667,25.336 194.709333,25.768 195.056,26.12 C195.402667,26.472 195.8,26.7386667 196.248,26.92 C196.696,27.1013333 197.165333,27.192 197.656,27.192 Z M197.656,25.688 C197.08,25.688 196.629333,25.4506667 196.304,24.976 C195.978667,24.5013333 195.816,23.8693333 195.816,23.08 C195.816,22.28 195.978667,21.6426667 196.304,21.168 C196.629333,20.6933333 197.08,20.456 197.656,20.456 C198.232,20.456 198.685333,20.6933333 199.016,21.168 C199.346667,21.6426667 199.512,22.28 199.512,23.08 C199.512,23.8693333 199.346667,24.5013333 199.016,24.976 C198.685333,25.4506667 198.232,25.688 197.656,25.688 Z M205.064,27 L205.064,21.512 C205.672,20.8613333 206.221333,20.536 206.712,20.536 C207.128,20.536 207.434667,20.6693333 207.632,20.936 C207.829333,21.2026667 207.928,21.6613333 207.928,22.312 L207.928,22.312 L207.928,27 L209.768,27 L209.768,21.512 C210.376,20.8613333 210.925333,20.536 211.416,20.536 C211.821333,20.536 212.122667,20.6693333 212.32,20.936 C212.517333,21.2026667 212.616,21.6613333 212.616,22.312 L212.616,22.312 L212.616,27 L214.472,27 L214.472,22.072 C214.472,21.0693333 214.274667,20.2986667 213.88,19.76 C213.485333,19.2213333 212.872,18.952 212.04,18.952 C211.538667,18.952 211.085333,19.0853333 210.68,19.352 C210.274667,19.6186667 209.885333,19.9546667 209.512,20.36 C209.330667,19.912 209.066667,19.5653333 208.72,19.32 C208.373333,19.0746667 207.912,18.952 207.336,18.952 C206.845333,18.952 206.405333,19.0746667 206.016,19.32 C205.626667,19.5653333 205.266667,19.864 204.936,20.216 L204.936,20.216 L204.872,20.216 L204.744,19.144 L203.224,19.144 L203.224,27 L205.064,27 Z M220.072,27.192 C220.573333,27.192 221.053333,27.112 221.512,26.952 C221.970667,26.792 222.386667,26.5893333 222.76,26.344 L222.76,26.344 L222.136,25.192 C221.848,25.3733333 221.557333,25.5146667 221.264,25.616 C220.970667,25.7173333 220.653333,25.768 220.312,25.768 C219.672,25.768 219.146667,25.5786667 218.736,25.2 C218.325333,24.8213333 218.077333,24.28 217.992,23.576 L217.992,23.576 L222.984,23.576 C223.005333,23.48 223.024,23.352 223.04,23.192 C223.056,23.032 223.064,22.8613333 223.064,22.68 C223.064,22.136 222.994667,21.6346667 222.856,21.176 C222.717333,20.7173333 222.512,20.3226667 222.24,19.992 C221.968,19.6613333 221.629333,19.4053333 221.224,19.224 C220.818667,19.0426667 220.349333,18.952 219.816,18.952 C219.357333,18.952 218.909333,19.048 218.472,19.24 C218.034667,19.432 217.648,19.704 217.312,20.056 C216.976,20.408 216.706667,20.84 216.504,21.352 C216.301333,21.864 216.2,22.44 216.2,23.08 C216.2,23.7306667 216.298667,24.3093333 216.496,24.816 C216.693333,25.3226667 216.968,25.752 217.32,26.104 C217.672,26.456 218.082667,26.7253333 218.552,26.912 C219.021333,27.0986667 219.528,27.192 220.072,27.192 Z M221.464,22.328 L217.976,22.328 C218.061333,21.688 218.28,21.2026667 218.632,20.872 C218.984,20.5413333 219.394667,20.376 219.864,20.376 C220.408,20.376 220.810667,20.5493333 221.072,20.896 C221.333333,21.2426667 221.464,21.72 221.464,22.328 L221.464,22.328 Z M230.04,27 L230.04,23.16 L231.544,23.16 C232.109333,23.16 232.634667,23.0933333 233.12,22.96 C233.605333,22.8266667 234.026667,22.6186667 234.384,22.336 C234.741333,22.0533333 235.021333,21.6986667 235.224,21.272 C235.426667,20.8453333 235.528,20.344 235.528,19.768 C235.528,19.16 235.426667,18.6506667 235.224,18.24 C235.021333,17.8293333 234.738667,17.496 234.376,17.24 C234.013333,16.984 233.584,16.8026667 233.088,16.696 C232.592,16.5893333 232.056,16.536 231.48,16.536 L231.48,16.536 L228.184,16.536 L228.184,27 L230.04,27 Z M231.4,21.672 L230.04,21.672 L230.04,18.024 L231.336,18.024 C232.114667,18.024 232.704,18.1493333 233.104,18.4 C233.504,18.6506667 233.704,19.1066667 233.704,19.768 C233.704,21.0373333 232.936,21.672 231.4,21.672 L231.4,21.672 Z M239.176,27 L239.176,22.2 C239.421333,21.6026667 239.714667,21.184 240.056,20.944 C240.397333,20.704 240.722667,20.584 241.032,20.584 C241.202667,20.584 241.346667,20.5946667 241.464,20.616 C241.581333,20.6373333 241.709333,20.6693333 241.848,20.712 L241.848,20.712 L242.168,19.112 C241.944,19.0053333 241.645333,18.952 241.272,18.952 C240.856,18.952 240.450667,19.088 240.056,19.36 C239.661333,19.632 239.325333,20.024 239.048,20.536 L239.048,20.536 L238.984,20.536 L238.856,19.144 L237.336,19.144 L237.336,27 L239.176,27 Z M244.232,17.768 C244.562667,17.768 244.834667,17.672 245.048,17.48 C245.261333,17.288 245.368,17.0373333 245.368,16.728 C245.368,16.4186667 245.261333,16.1653333 245.048,15.968 C244.834667,15.7706667 244.562667,15.672 244.232,15.672 C243.901333,15.672 243.629333,15.7706667 243.416,15.968 C243.202667,16.1653333 243.096,16.4186667 243.096,16.728 C243.096,17.0373333 243.202667,17.288 243.416,17.48 C243.629333,17.672 243.901333,17.768 244.232,17.768 Z M245.144,27 L245.144,19.144 L243.304,19.144 L243.304,27 L245.144,27 Z M250.776,27.192 C251.224,27.192 251.669333,27.112 252.112,26.952 C252.554667,26.792 252.962667,26.552 253.336,26.232 L253.336,26.232 L252.584,25.016 C252.36,25.1973333 252.112,25.3546667 251.84,25.488 C251.568,25.6213333 251.277333,25.688 250.968,25.688 C250.349333,25.688 249.845333,25.4506667 249.456,24.976 C249.066667,24.5013333 248.872,23.8693333 248.872,23.08 C248.872,22.28 249.069333,21.6426667 249.464,21.168 C249.858667,20.6933333 250.376,20.456 251.016,20.456 C251.261333,20.456 251.488,20.5066667 251.696,20.608 C251.904,20.7093333 252.114667,20.8506667 252.328,21.032 L252.328,21.032 L253.224,19.832 C252.936,19.5866667 252.608,19.3786667 252.24,19.208 C251.872,19.0373333 251.432,18.952 250.92,18.952 C250.397333,18.952 249.898667,19.0453333 249.424,19.232 C248.949333,19.4186667 248.530667,19.688 248.168,20.04 C247.805333,20.392 247.517333,20.824 247.304,21.336 C247.090667,21.848 246.984,22.4293333 246.984,23.08 C246.984,23.7306667 247.08,24.312 247.272,24.824 C247.464,25.336 247.730667,25.768 248.072,26.12 C248.413333,26.472 248.816,26.7386667 249.28,26.92 C249.744,27.1013333 250.242667,27.192 250.776,27.192 Z M257.864,27.192 C258.365333,27.192 258.845333,27.112 259.304,26.952 C259.762667,26.792 260.178667,26.5893333 260.552,26.344 L260.552,26.344 L259.928,25.192 C259.64,25.3733333 259.349333,25.5146667 259.056,25.616 C258.762667,25.7173333 258.445333,25.768 258.104,25.768 C257.464,25.768 256.938667,25.5786667 256.528,25.2 C256.117333,24.8213333 255.869333,24.28 255.784,23.576 L255.784,23.576 L260.776,23.576 C260.797333,23.48 260.816,23.352 260.832,23.192 C260.848,23.032 260.856,22.8613333 260.856,22.68 C260.856,22.136 260.786667,21.6346667 260.648,21.176 C260.509333,20.7173333 260.304,20.3226667 260.032,19.992 C259.76,19.6613333 259.421333,19.4053333 259.016,19.224 C258.610667,19.0426667 258.141333,18.952 257.608,18.952 C257.149333,18.952 256.701333,19.048 256.264,19.24 C255.826667,19.432 255.44,19.704 255.104,20.056 C254.768,20.408 254.498667,20.84 254.296,21.352 C254.093333,21.864 253.992,22.44 253.992,23.08 C253.992,23.7306667 254.090667,24.3093333 254.288,24.816 C254.485333,25.3226667 254.76,25.752 255.112,26.104 C255.464,26.456 255.874667,26.7253333 256.344,26.912 C256.813333,27.0986667 257.32,27.192 257.864,27.192 Z M259.256,22.328 L255.768,22.328 C255.853333,21.688 256.072,21.2026667 256.424,20.872 C256.776,20.5413333 257.186667,20.376 257.656,20.376 C258.2,20.376 258.602667,20.5493333 258.864,20.896 C259.125333,21.2426667 259.256,21.72 259.256,22.328 L259.256,22.328 Z M131.096,35.768 C131.426667,35.768 131.698667,35.672 131.912,35.48 C132.125333,35.288 132.232,35.0373333 132.232,34.728 C132.232,34.4186667 132.125333,34.1653333 131.912,33.968 C131.698667,33.7706667 131.426667,33.672 131.096,33.672 C130.765333,33.672 130.493333,33.7706667 130.28,33.968 C130.066667,34.1653333 129.96,34.4186667 129.96,34.728 C129.96,35.0373333 130.066667,35.288 130.28,35.48 C130.493333,35.672 130.765333,35.768 131.096,35.768 Z M132.008,45 L132.008,37.144 L130.168,37.144 L130.168,45 L132.008,45 Z M136.2,45 L136.2,39.512 C136.530667,39.192 136.826667,38.9493333 137.088,38.784 C137.349333,38.6186667 137.650667,38.536 137.992,38.536 C138.429333,38.536 138.744,38.6693333 138.936,38.936 C139.128,39.2026667 139.224,39.6613333 139.224,40.312 L139.224,40.312 L139.224,45 L141.064,45 L141.064,40.072 C141.064,39.0693333 140.872,38.2986667 140.488,37.76 C140.104,37.2213333 139.490667,36.952 138.648,36.952 C138.104,36.952 137.626667,37.0746667 137.216,37.32 C136.805333,37.5653333 136.424,37.8586667 136.072,38.2 L136.072,38.2 L136.008,38.2 L135.88,37.144 L134.36,37.144 L134.36,45 L136.2,45 Z M147.208,45 L148.024,42.168 L151.544,42.168 L152.36,45 L154.312,45 L150.904,34.536 L148.728,34.536 L145.32,45 L147.208,45 Z M151.128,40.712 L148.456,40.712 L148.824,39.432 C148.994667,38.8773333 149.154667,38.3093333 149.304,37.728 C149.453333,37.1466667 149.602667,36.5626667 149.752,35.976 L149.752,35.976 L149.816,35.976 C149.965333,36.552 150.117333,37.1333333 150.272,37.72 C150.426667,38.3066667 150.589333,38.8773333 150.76,39.432 L150.76,39.432 L151.128,40.712 Z M157.288,45 L157.288,40.2 C157.533333,39.6026667 157.826667,39.184 158.168,38.944 C158.509333,38.704 158.834667,38.584 159.144,38.584 C159.314667,38.584 159.458667,38.5946667 159.576,38.616 C159.693333,38.6373333 159.821333,38.6693333 159.96,38.712 L159.96,38.712 L160.28,37.112 C160.056,37.0053333 159.757333,36.952 159.384,36.952 C158.968,36.952 158.562667,37.088 158.168,37.36 C157.773333,37.632 157.437333,38.024 157.16,38.536 L157.16,38.536 L157.096,38.536 L156.968,37.144 L155.448,37.144 L155.448,45 L157.288,45 Z M162.344,35.768 C162.674667,35.768 162.946667,35.672 163.16,35.48 C163.373333,35.288 163.48,35.0373333 163.48,34.728 C163.48,34.4186667 163.373333,34.1653333 163.16,33.968 C162.946667,33.7706667 162.674667,33.672 162.344,33.672 C162.013333,33.672 161.741333,33.7706667 161.528,33.968 C161.314667,34.1653333 161.208,34.4186667 161.208,34.728 C161.208,35.0373333 161.314667,35.288 161.528,35.48 C161.741333,35.672 162.013333,35.768 162.344,35.768 Z M163.256,45 L163.256,37.144 L161.416,37.144 L161.416,45 L163.256,45 Z M171.128,45 L171.128,43.528 L167.304,43.528 L171,38.12 L171,37.144 L165.4,37.144 L165.4,38.6 L168.696,38.6 L164.984,44.008 L164.984,45 L171.128,45 Z M175.752,45.192 C176.242667,45.192 176.714667,45.1013333 177.168,44.92 C177.621333,44.7386667 178.018667,44.472 178.36,44.12 C178.701333,43.768 178.976,43.336 179.184,42.824 C179.392,42.312 179.496,41.7306667 179.496,41.08 C179.496,40.4293333 179.392,39.848 179.184,39.336 C178.976,38.824 178.701333,38.392 178.36,38.04 C178.018667,37.688 177.621333,37.4186667 177.168,37.232 C176.714667,37.0453333 176.242667,36.952 175.752,36.952 C175.261333,36.952 174.792,37.0453333 174.344,37.232 C173.896,37.4186667 173.498667,37.688 173.152,38.04 C172.805333,38.392 172.530667,38.824 172.328,39.336 C172.125333,39.848 172.024,40.4293333 172.024,41.08 C172.024,41.7306667 172.125333,42.312 172.328,42.824 C172.530667,43.336 172.805333,43.768 173.152,44.12 C173.498667,44.472 173.896,44.7386667 174.344,44.92 C174.792,45.1013333 175.261333,45.192 175.752,45.192 Z M175.752,43.688 C175.176,43.688 174.725333,43.4506667 174.4,42.976 C174.074667,42.5013333 173.912,41.8693333 173.912,41.08 C173.912,40.28 174.074667,39.6426667 174.4,39.168 C174.725333,38.6933333 175.176,38.456 175.752,38.456 C176.328,38.456 176.781333,38.6933333 177.112,39.168 C177.442667,39.6426667 177.608,40.28 177.608,41.08 C177.608,41.8693333 177.442667,42.5013333 177.112,42.976 C176.781333,43.4506667 176.328,43.688 175.752,43.688 Z M183.16,45 L183.16,39.512 C183.490667,39.192 183.786667,38.9493333 184.048,38.784 C184.309333,38.6186667 184.610667,38.536 184.952,38.536 C185.389333,38.536 185.704,38.6693333 185.896,38.936 C186.088,39.2026667 186.184,39.6613333 186.184,40.312 L186.184,40.312 L186.184,45 L188.024,45 L188.024,40.072 C188.024,39.0693333 187.832,38.2986667 187.448,37.76 C187.064,37.2213333 186.450667,36.952 185.608,36.952 C185.064,36.952 184.586667,37.0746667 184.176,37.32 C183.765333,37.5653333 183.384,37.8586667 183.032,38.2 L183.032,38.2 L182.968,38.2 L182.84,37.144 L181.32,37.144 L181.32,45 L183.16,45 Z M192.184,45.192 C192.653333,45.192 193.088,45.0906667 193.488,44.888 C193.888,44.6853333 194.264,44.4346667 194.616,44.136 L194.616,44.136 L194.68,44.136 L194.808,45 L196.328,45 L196.328,40.344 C196.328,39.2453333 196.085333,38.4053333 195.6,37.824 C195.114667,37.2426667 194.381333,36.952 193.4,36.952 C192.770667,36.952 192.184,37.0533333 191.64,37.256 C191.096,37.4586667 190.605333,37.6986667 190.168,37.976 L190.168,37.976 L190.84,39.208 C191.192,38.9946667 191.552,38.8133333 191.92,38.664 C192.288,38.5146667 192.664,38.44 193.048,38.44 C193.314667,38.44 193.538667,38.48 193.72,38.56 C193.901333,38.64 194.048,38.752 194.16,38.896 C194.272,39.04 194.352,39.2053333 194.4,39.392 C194.448,39.5786667 194.477333,39.7733333 194.488,39.976 C193.677333,40.0613333 192.981333,40.184 192.4,40.344 C191.818667,40.504 191.338667,40.7013333 190.96,40.936 C190.581333,41.1706667 190.304,41.4506667 190.128,41.776 C189.952,42.1013333 189.864,42.472 189.864,42.888 C189.864,43.5813333 190.077333,44.1386667 190.504,44.56 C190.930667,44.9813333 191.490667,45.192 192.184,45.192 Z M192.776,43.752 C192.445333,43.752 192.173333,43.672 191.96,43.512 C191.746667,43.352 191.64,43.096 191.64,42.744 C191.64,42.552 191.688,42.3706667 191.784,42.2 C191.88,42.0293333 192.04,41.8773333 192.264,41.744 C192.488,41.6106667 192.781333,41.4906667 193.144,41.384 C193.506667,41.2773333 193.954667,41.192 194.488,41.128 L194.488,41.128 L194.488,42.888 C194.189333,43.1653333 193.909333,43.3786667 193.648,43.528 C193.386667,43.6773333 193.096,43.752 192.776,43.752 Z" id="MedianHomePriceinArizona" fill="#555555" fill-rule="nonzero"></path>
                <path d="M138.536,86.52 L138.536,83.224 C140.136,82.9253333 141.362667,82.2586667 142.216,81.224 C143.069333,80.1893333 143.496,78.904 143.496,77.368 C143.496,76.3013333 143.282667,75.4106667 142.856,74.696 C142.429333,73.9813333 141.890667,73.3786667 141.24,72.888 C140.589333,72.3973333 139.890667,71.976 139.144,71.624 C138.397333,71.272 137.698667,70.92 137.048,70.568 C136.397333,70.216 135.858667,69.832 135.432,69.416 C135.005333,69 134.792,68.472 134.792,67.832 C134.792,67 135.037333,66.3653333 135.528,65.928 C136.018667,65.4906667 136.701333,65.272 137.576,65.272 C138.344,65.272 139.005333,65.416 139.56,65.704 C140.114667,65.992 140.690667,66.4133333 141.288,66.968 L141.288,66.968 L143.176,64.824 C142.578667,64.2053333 141.912,63.6666667 141.176,63.208 C140.44,62.7493333 139.56,62.456 138.536,62.328 L138.536,62.328 L138.536,59.128 L135.976,59.128 L135.976,62.392 C134.525333,62.648 133.373333,63.272 132.52,64.264 C131.666667,65.256 131.24,66.4986667 131.24,67.992 C131.24,68.9946667 131.453333,69.832 131.88,70.504 C132.306667,71.176 132.845333,71.752 133.496,72.232 C134.146667,72.712 134.845333,73.128 135.592,73.48 C136.338667,73.832 137.037333,74.2 137.688,74.584 C138.338667,74.968 138.877333,75.3946667 139.304,75.864 C139.730667,76.3333333 139.944,76.92 139.944,77.624 C139.944,78.4986667 139.688,79.176 139.176,79.656 C138.664,80.136 137.885333,80.376 136.84,80.376 C135.965333,80.376 135.144,80.1946667 134.376,79.832 C133.608,79.4693333 132.850667,78.9893333 132.104,78.392 L132.104,78.392 L130.44,80.888 C131.165333,81.5706667 132.024,82.12 133.016,82.536 C134.008,82.952 134.994667,83.2133333 135.976,83.32 L135.976,83.32 L135.976,86.52 L138.536,86.52 Z M160.392,83 L160.392,79.864 L155.4,79.864 C154.909333,79.864 154.354667,79.8906667 153.736,79.944 C153.117333,79.9973333 152.541333,80.0453333 152.008,80.088 C153.010667,79.0213333 153.96,77.9866667 154.856,76.984 C155.752,75.9813333 156.536,75.0053333 157.208,74.056 C157.88,73.1066667 158.413333,72.168 158.808,71.24 C159.202667,70.312 159.4,69.4 159.4,68.504 C159.4,67.5653333 159.245333,66.712 158.936,65.944 C158.626667,65.176 158.194667,64.52 157.64,63.976 C157.085333,63.432 156.413333,63.0106667 155.624,62.712 C154.834667,62.4133333 153.949333,62.264 152.968,62.264 C151.56,62.264 150.36,62.536 149.368,63.08 C148.376,63.624 147.410667,64.3973333 146.472,65.4 L146.472,65.4 L148.52,67.448 C149.074667,66.8293333 149.677333,66.296 150.328,65.848 C150.978667,65.4 151.698667,65.176 152.488,65.176 C153.576,65.176 154.408,65.4906667 154.984,66.12 C155.56,66.7493333 155.848,67.608 155.848,68.696 C155.848,69.464 155.634667,70.2746667 155.208,71.128 C154.781333,71.9813333 154.168,72.8986667 153.368,73.88 C152.568,74.8613333 151.597333,75.928 150.456,77.08 C149.314667,78.232 148.04,79.4906667 146.632,80.856 L146.632,80.856 L146.632,83 L160.392,83 Z M170.024,83.384 C172.157333,83.384 173.842667,82.472 175.08,80.648 C176.317333,78.824 176.936,76.184 176.936,72.728 C176.936,69.2933333 176.317333,66.6906667 175.08,64.92 C173.842667,63.1493333 172.157333,62.264 170.024,62.264 C167.890667,62.264 166.205333,63.144 164.968,64.904 C163.730667,66.664 163.112,69.272 163.112,72.728 C163.112,76.184 163.730667,78.824 164.968,80.648 C166.205333,82.472 167.890667,83.384 170.024,83.384 Z M170.024,80.504 C169.533333,80.504 169.08,80.3706667 168.664,80.104 C168.248,79.8373333 167.890667,79.3946667 167.592,78.776 C167.293333,78.1573333 167.058667,77.3573333 166.888,76.376 C166.717333,75.3946667 166.632,74.1786667 166.632,72.728 C166.632,71.2986667 166.717333,70.0986667 166.888,69.128 C167.058667,68.1573333 167.293333,67.3733333 167.592,66.776 C167.890667,66.1786667 168.248,65.7573333 168.664,65.512 C169.08,65.2666667 169.533333,65.144 170.024,65.144 C170.514667,65.144 170.968,65.2666667 171.384,65.512 C171.8,65.7573333 172.157333,66.1786667 172.456,66.776 C172.754667,67.3733333 172.989333,68.1573333 173.16,69.128 C173.330667,70.0986667 173.416,71.2986667 173.416,72.728 C173.416,74.1786667 173.330667,75.3946667 173.16,76.376 C172.989333,77.3573333 172.754667,78.1573333 172.456,78.776 C172.157333,79.3946667 171.8,79.8373333 171.384,80.104 C170.968,80.3706667 170.514667,80.504 170.024,80.504 Z M186.472,83.384 C187.496,83.384 188.434667,83.2453333 189.288,82.968 C190.141333,82.6906667 190.866667,82.3013333 191.464,81.8 C192.061333,81.2986667 192.525333,80.712 192.856,80.04 C193.186667,79.368 193.352,78.6373333 193.352,77.848 C193.352,77.1653333 193.256,76.5573333 193.064,76.024 C192.872,75.4906667 192.616,75.0106667 192.296,74.584 C191.976,74.1573333 191.602667,73.7786667 191.176,73.448 C190.749333,73.1173333 190.301333,72.824 189.832,72.568 L189.832,72.568 L189.832,72.44 C190.152,72.2053333 190.477333,71.9226667 190.808,71.592 C191.138667,71.2613333 191.432,70.8986667 191.688,70.504 C191.944,70.1093333 192.152,69.6826667 192.312,69.224 C192.472,68.7653333 192.552,68.28 192.552,67.768 C192.552,66.936 192.413333,66.184 192.136,65.512 C191.858667,64.84 191.458667,64.264 190.936,63.784 C190.413333,63.304 189.784,62.9306667 189.048,62.664 C188.312,62.3973333 187.485333,62.264 186.568,62.264 C185.693333,62.264 184.877333,62.392 184.12,62.648 C183.362667,62.904 182.712,63.2666667 182.168,63.736 C181.624,64.2053333 181.197333,64.7706667 180.888,65.432 C180.578667,66.0933333 180.424,66.84 180.424,67.672 C180.424,68.76 180.696,69.688 181.24,70.456 C181.784,71.224 182.450667,71.8853333 183.24,72.44 L183.24,72.44 L183.24,72.568 C182.749333,72.824 182.285333,73.1226667 181.848,73.464 C181.410667,73.8053333 181.021333,74.1893333 180.68,74.616 C180.338667,75.0426667 180.066667,75.5173333 179.864,76.04 C179.661333,76.5626667 179.56,77.144 179.56,77.784 C179.56,78.616 179.736,79.3733333 180.088,80.056 C180.44,80.7386667 180.92,81.3253333 181.528,81.816 C182.136,82.3066667 182.861333,82.6906667 183.704,82.968 C184.546667,83.2453333 185.469333,83.384 186.472,83.384 Z M187.816,71.512 C187.24,71.2986667 186.706667,71.0693333 186.216,70.824 C185.725333,70.5786667 185.293333,70.312 184.92,70.024 C184.546667,69.736 184.253333,69.4 184.04,69.016 C183.826667,68.632 183.72,68.184 183.72,67.672 C183.72,66.776 183.986667,66.088 184.52,65.608 C185.053333,65.128 185.714667,64.888 186.504,64.888 C187.464,64.888 188.205333,65.1813333 188.728,65.768 C189.250667,66.3546667 189.512,67.096 189.512,67.992 C189.512,68.632 189.368,69.24 189.08,69.816 C188.792,70.392 188.370667,70.9573333 187.816,71.512 Z M186.536,80.76 C185.490667,80.76 184.605333,80.456 183.88,79.848 C183.154667,79.24 182.792,78.424 182.792,77.4 C182.792,76.6106667 183,75.896 183.416,75.256 C183.832,74.616 184.36,74.0613333 185,73.592 C185.682667,73.8693333 186.322667,74.136 186.92,74.392 C187.517333,74.648 188.034667,74.9306667 188.472,75.24 C188.909333,75.5493333 189.256,75.9013333 189.512,76.296 C189.768,76.6906667 189.896,77.1653333 189.896,77.72 C189.896,78.68 189.581333,79.4266667 188.952,79.96 C188.322667,80.4933333 187.517333,80.76 186.536,80.76 Z M196.968,88.824 C198.568,88.2693333 199.8,87.416 200.664,86.264 C201.528,85.112 201.96,83.7466667 201.96,82.168 C201.96,80.9733333 201.72,80.0453333 201.24,79.384 C200.76,78.7226667 200.082667,78.392 199.208,78.392 C198.525333,78.392 197.944,78.6 197.464,79.016 C196.984,79.432 196.744,79.9813333 196.744,80.664 C196.744,81.3893333 196.984,81.9493333 197.464,82.344 C197.944,82.7386667 198.493333,82.936 199.112,82.936 L199.112,82.936 L199.4,82.936 C199.421333,83.7466667 199.149333,84.4933333 198.584,85.176 C198.018667,85.8586667 197.213333,86.4026667 196.168,86.808 L196.168,86.808 L196.968,88.824 Z M210.408,83.384 C211.453333,83.384 212.461333,83.1706667 213.432,82.744 C214.402667,82.3173333 215.256,81.6506667 215.992,80.744 C216.728,79.8373333 217.314667,78.68 217.752,77.272 C218.189333,75.864 218.408,74.168 218.408,72.184 C218.408,70.4773333 218.210667,69 217.816,67.752 C217.421333,66.504 216.888,65.4746667 216.216,64.664 C215.544,63.8533333 214.76,63.2506667 213.864,62.856 C212.968,62.4613333 212.029333,62.264 211.048,62.264 C210.173333,62.264 209.346667,62.4186667 208.568,62.728 C207.789333,63.0373333 207.112,63.48 206.536,64.056 C205.96,64.632 205.501333,65.3306667 205.16,66.152 C204.818667,66.9733333 204.648,67.896 204.648,68.92 C204.648,69.9866667 204.792,70.9146667 205.08,71.704 C205.368,72.4933333 205.773333,73.1493333 206.296,73.672 C206.818667,74.1946667 207.442667,74.584 208.168,74.84 C208.893333,75.096 209.693333,75.224 210.568,75.224 C211.314667,75.224 212.093333,75.016 212.904,74.6 C213.714667,74.184 214.418667,73.6026667 215.016,72.856 C214.973333,74.264 214.818667,75.448 214.552,76.408 C214.285333,77.368 213.938667,78.1413333 213.512,78.728 C213.085333,79.3146667 212.589333,79.736 212.024,79.992 C211.458667,80.248 210.856,80.376 210.216,80.376 C209.597333,80.376 208.994667,80.232 208.408,79.944 C207.821333,79.656 207.336,79.288 206.952,78.84 L206.952,78.84 L204.968,81.08 C205.586667,81.72 206.344,82.264 207.24,82.712 C208.136,83.16 209.192,83.384 210.408,83.384 Z M211.272,72.568 C210.248,72.568 209.453333,72.264 208.888,71.656 C208.322667,71.048 208.04,70.136 208.04,68.92 C208.04,67.6826667 208.338667,66.7333333 208.936,66.072 C209.533333,65.4106667 210.248,65.08 211.08,65.08 C212.061333,65.08 212.898667,65.4853333 213.592,66.296 C214.285333,67.1066667 214.728,68.408 214.92,70.2 C214.386667,71.032 213.794667,71.6346667 213.144,72.008 C212.493333,72.3813333 211.869333,72.568 211.272,72.568 Z M228.072,83.384 C230.205333,83.384 231.890667,82.472 233.128,80.648 C234.365333,78.824 234.984,76.184 234.984,72.728 C234.984,69.2933333 234.365333,66.6906667 233.128,64.92 C231.890667,63.1493333 230.205333,62.264 228.072,62.264 C225.938667,62.264 224.253333,63.144 223.016,64.904 C221.778667,66.664 221.16,69.272 221.16,72.728 C221.16,76.184 221.778667,78.824 223.016,80.648 C224.253333,82.472 225.938667,83.384 228.072,83.384 Z M228.072,80.504 C227.581333,80.504 227.128,80.3706667 226.712,80.104 C226.296,79.8373333 225.938667,79.3946667 225.64,78.776 C225.341333,78.1573333 225.106667,77.3573333 224.936,76.376 C224.765333,75.3946667 224.68,74.1786667 224.68,72.728 C224.68,71.2986667 224.765333,70.0986667 224.936,69.128 C225.106667,68.1573333 225.341333,67.3733333 225.64,66.776 C225.938667,66.1786667 226.296,65.7573333 226.712,65.512 C227.128,65.2666667 227.581333,65.144 228.072,65.144 C228.562667,65.144 229.016,65.2666667 229.432,65.512 C229.848,65.7573333 230.205333,66.1786667 230.504,66.776 C230.802667,67.3733333 231.037333,68.1573333 231.208,69.128 C231.378667,70.0986667 231.464,71.2986667 231.464,72.728 C231.464,74.1786667 231.378667,75.3946667 231.208,76.376 C231.037333,77.3573333 230.802667,78.1573333 230.504,78.776 C230.205333,79.3946667 229.848,79.8373333 229.432,80.104 C229.016,80.3706667 228.562667,80.504 228.072,80.504 Z M244.488,83.384 C246.621333,83.384 248.306667,82.472 249.544,80.648 C250.781333,78.824 251.4,76.184 251.4,72.728 C251.4,69.2933333 250.781333,66.6906667 249.544,64.92 C248.306667,63.1493333 246.621333,62.264 244.488,62.264 C242.354667,62.264 240.669333,63.144 239.432,64.904 C238.194667,66.664 237.576,69.272 237.576,72.728 C237.576,76.184 238.194667,78.824 239.432,80.648 C240.669333,82.472 242.354667,83.384 244.488,83.384 Z M244.488,80.504 C243.997333,80.504 243.544,80.3706667 243.128,80.104 C242.712,79.8373333 242.354667,79.3946667 242.056,78.776 C241.757333,78.1573333 241.522667,77.3573333 241.352,76.376 C241.181333,75.3946667 241.096,74.1786667 241.096,72.728 C241.096,71.2986667 241.181333,70.0986667 241.352,69.128 C241.522667,68.1573333 241.757333,67.3733333 242.056,66.776 C242.354667,66.1786667 242.712,65.7573333 243.128,65.512 C243.544,65.2666667 243.997333,65.144 244.488,65.144 C244.978667,65.144 245.432,65.2666667 245.848,65.512 C246.264,65.7573333 246.621333,66.1786667 246.92,66.776 C247.218667,67.3733333 247.453333,68.1573333 247.624,69.128 C247.794667,70.0986667 247.88,71.2986667 247.88,72.728 C247.88,74.1786667 247.794667,75.3946667 247.624,76.376 C247.453333,77.3573333 247.218667,78.1573333 246.92,78.776 C246.621333,79.3946667 246.264,79.8373333 245.848,80.104 C245.432,80.3706667 244.978667,80.504 244.488,80.504 Z" id="$208,900" fill="#4A0072" fill-rule="nonzero"></path>
            </g>
        </g>
    </g>
</svg>