<?xml version="1.0" encoding="UTF-8"?>
<svg width="270px" height="94px" viewBox="0 0 270 94" version="1.1" xmlns="http://www.w3.org/2000/svg" xmlns:xlink="http://www.w3.org/1999/xlink">
    <title>anecdote-debt-2</title>
    <g id="02.-Anecdote-Cards" stroke="none" stroke-width="1" fill="none" fill-rule="evenodd">
        <g id="Anecdote-Cards-(Desktop/Tablet)---SVG" transform="translate(-648.000000, -2268.000000)">
            <g id="anecdote-debt-2" transform="translate(648.000000, 2269.000000)">
                <path d="M165.184,71 L165.184,67.16 L166.688,67.16 C167.253333,67.16 167.778667,67.0933333 168.264,66.96 C168.749333,66.8266667 169.170667,66.6186667 169.528,66.336 C169.885333,66.0533333 170.165333,65.6986667 170.368,65.272 C170.570667,64.8453333 170.672,64.344 170.672,63.768 C170.672,63.16 170.570667,62.6506667 170.368,62.24 C170.165333,61.8293333 169.882667,61.496 169.52,61.24 C169.157333,60.984 168.728,60.8026667 168.232,60.696 C167.736,60.5893333 167.2,60.536 166.624,60.536 L166.624,60.536 L163.328,60.536 L163.328,71 L165.184,71 Z M166.544,65.672 L165.184,65.672 L165.184,62.024 L166.48,62.024 C167.258667,62.024 167.848,62.1493333 168.248,62.4 C168.648,62.6506667 168.848,63.1066667 168.848,63.768 C168.848,65.0373333 168.08,65.672 166.544,65.672 L166.544,65.672 Z M175.488,71.192 C175.989333,71.192 176.469333,71.112 176.928,70.952 C177.386667,70.792 177.802667,70.5893333 178.176,70.344 L178.176,70.344 L177.552,69.192 C177.264,69.3733333 176.973333,69.5146667 176.68,69.616 C176.386667,69.7173333 176.069333,69.768 175.728,69.768 C175.088,69.768 174.562667,69.5786667 174.152,69.2 C173.741333,68.8213333 173.493333,68.28 173.408,67.576 L173.408,67.576 L178.4,67.576 C178.421333,67.48 178.44,67.352 178.456,67.192 C178.472,67.032 178.48,66.8613333 178.48,66.68 C178.48,66.136 178.410667,65.6346667 178.272,65.176 C178.133333,64.7173333 177.928,64.3226667 177.656,63.992 C177.384,63.6613333 177.045333,63.4053333 176.64,63.224 C176.234667,63.0426667 175.765333,62.952 175.232,62.952 C174.773333,62.952 174.325333,63.048 173.888,63.24 C173.450667,63.432 173.064,63.704 172.728,64.056 C172.392,64.408 172.122667,64.84 171.92,65.352 C171.717333,65.864 171.616,66.44 171.616,67.08 C171.616,67.7306667 171.714667,68.3093333 171.912,68.816 C172.109333,69.3226667 172.384,69.752 172.736,70.104 C173.088,70.456 173.498667,70.7253333 173.968,70.912 C174.437333,71.0986667 174.944,71.192 175.488,71.192 Z M176.88,66.328 L173.392,66.328 C173.477333,65.688 173.696,65.2026667 174.048,64.872 C174.4,64.5413333 174.810667,64.376 175.28,64.376 C175.824,64.376 176.226667,64.5493333 176.488,64.896 C176.749333,65.2426667 176.88,65.72 176.88,66.328 L176.88,66.328 Z M182.08,71 L182.08,66.2 C182.325333,65.6026667 182.618667,65.184 182.96,64.944 C183.301333,64.704 183.626667,64.584 183.936,64.584 C184.106667,64.584 184.250667,64.5946667 184.368,64.616 C184.485333,64.6373333 184.613333,64.6693333 184.752,64.712 L184.752,64.712 L185.072,63.112 C184.848,63.0053333 184.549333,62.952 184.176,62.952 C183.76,62.952 183.354667,63.088 182.96,63.36 C182.565333,63.632 182.229333,64.024 181.952,64.536 L181.952,64.536 L181.888,64.536 L181.76,63.144 L180.24,63.144 L180.24,71 L182.08,71 Z M191.424,71 L191.424,60.536 L189.568,60.536 L189.568,71 L191.424,71 Z M195.76,71 L195.76,65.512 C196.090667,65.192 196.386667,64.9493333 196.648,64.784 C196.909333,64.6186667 197.210667,64.536 197.552,64.536 C197.989333,64.536 198.304,64.6693333 198.496,64.936 C198.688,65.2026667 198.784,65.6613333 198.784,66.312 L198.784,66.312 L198.784,71 L200.624,71 L200.624,66.072 C200.624,65.0693333 200.432,64.2986667 200.048,63.76 C199.664,63.2213333 199.050667,62.952 198.208,62.952 C197.664,62.952 197.186667,63.0746667 196.776,63.32 C196.365333,63.5653333 195.984,63.8586667 195.632,64.2 L195.632,64.2 L195.568,64.2 L195.44,63.144 L193.92,63.144 L193.92,71 L195.76,71 Z M205.632,71.192 C206.058667,71.192 206.464,71.0906667 206.848,70.888 C207.232,70.6853333 207.568,70.44 207.856,70.152 L207.856,70.152 L207.92,70.152 L208.048,71 L209.568,71 L209.568,59.704 L207.728,59.704 L207.728,62.552 L207.792,63.816 C207.482667,63.5493333 207.173333,63.3386667 206.864,63.184 C206.554667,63.0293333 206.176,62.952 205.728,62.952 C205.301333,62.952 204.888,63.048 204.488,63.24 C204.088,63.432 203.733333,63.704 203.424,64.056 C203.114667,64.408 202.866667,64.84 202.68,65.352 C202.493333,65.864 202.4,66.44 202.4,67.08 C202.4,68.3813333 202.690667,69.392 203.272,70.112 C203.853333,70.832 204.64,71.192 205.632,71.192 Z M206.08,69.672 C205.504,69.672 205.064,69.4506667 204.76,69.008 C204.456,68.5653333 204.304,67.9173333 204.304,67.064 C204.304,66.232 204.48,65.592 204.832,65.144 C205.184,64.696 205.616,64.472 206.128,64.472 C206.394667,64.472 206.658667,64.52 206.92,64.616 C207.181333,64.712 207.450667,64.8826667 207.728,65.128 L207.728,65.128 L207.728,68.792 C207.216,69.3786667 206.666667,69.672 206.08,69.672 Z M212.832,61.768 C213.162667,61.768 213.434667,61.672 213.648,61.48 C213.861333,61.288 213.968,61.0373333 213.968,60.728 C213.968,60.4186667 213.861333,60.1653333 213.648,59.968 C213.434667,59.7706667 213.162667,59.672 212.832,59.672 C212.501333,59.672 212.229333,59.7706667 212.016,59.968 C211.802667,60.1653333 211.696,60.4186667 211.696,60.728 C211.696,61.0373333 211.802667,61.288 212.016,61.48 C212.229333,61.672 212.501333,61.768 212.832,61.768 Z M213.744,71 L213.744,63.144 L211.904,63.144 L211.904,71 L213.744,71 Z M219.984,71 L222.656,63.144 L220.88,63.144 L219.632,67.224 C219.514667,67.608 219.402667,67.9973333 219.296,68.392 C219.189333,68.7866667 219.077333,69.1866667 218.96,69.592 L218.96,69.592 L218.896,69.592 C218.789333,69.1866667 218.68,68.7866667 218.568,68.392 C218.456,67.9973333 218.346667,67.608 218.24,67.224 L218.24,67.224 L216.992,63.144 L215.12,63.144 L217.856,71 L219.984,71 Z M224.944,61.768 C225.274667,61.768 225.546667,61.672 225.76,61.48 C225.973333,61.288 226.08,61.0373333 226.08,60.728 C226.08,60.4186667 225.973333,60.1653333 225.76,59.968 C225.546667,59.7706667 225.274667,59.672 224.944,59.672 C224.613333,59.672 224.341333,59.7706667 224.128,59.968 C223.914667,60.1653333 223.808,60.4186667 223.808,60.728 C223.808,61.0373333 223.914667,61.288 224.128,61.48 C224.341333,61.672 224.613333,61.768 224.944,61.768 Z M225.856,71 L225.856,63.144 L224.016,63.144 L224.016,71 L225.856,71 Z M230.96,71.192 C231.386667,71.192 231.792,71.0906667 232.176,70.888 C232.56,70.6853333 232.896,70.44 233.184,70.152 L233.184,70.152 L233.248,70.152 L233.376,71 L234.896,71 L234.896,59.704 L233.056,59.704 L233.056,62.552 L233.12,63.816 C232.810667,63.5493333 232.501333,63.3386667 232.192,63.184 C231.882667,63.0293333 231.504,62.952 231.056,62.952 C230.629333,62.952 230.216,63.048 229.816,63.24 C229.416,63.432 229.061333,63.704 228.752,64.056 C228.442667,64.408 228.194667,64.84 228.008,65.352 C227.821333,65.864 227.728,66.44 227.728,67.08 C227.728,68.3813333 228.018667,69.392 228.6,70.112 C229.181333,70.832 229.968,71.192 230.96,71.192 Z M231.408,69.672 C230.832,69.672 230.392,69.4506667 230.088,69.008 C229.784,68.5653333 229.632,67.9173333 229.632,67.064 C229.632,66.232 229.808,65.592 230.16,65.144 C230.512,64.696 230.944,64.472 231.456,64.472 C231.722667,64.472 231.986667,64.52 232.248,64.616 C232.509333,64.712 232.778667,64.8826667 233.056,65.128 L233.056,65.128 L233.056,68.792 C232.544,69.3786667 231.994667,69.672 231.408,69.672 Z M239.568,71.192 C240.112,71.192 240.584,71.0693333 240.984,70.824 C241.384,70.5786667 241.754667,70.2533333 242.096,69.848 L242.096,69.848 L242.144,69.848 L242.288,71 L243.792,71 L243.792,63.144 L241.952,63.144 L241.952,68.52 C241.653333,68.904 241.373333,69.1813333 241.112,69.352 C240.850667,69.5226667 240.549333,69.608 240.208,69.608 C239.781333,69.608 239.472,69.4746667 239.28,69.208 C239.088,68.9413333 238.992,68.4826667 238.992,67.832 L238.992,67.832 L238.992,63.144 L237.152,63.144 L237.152,68.072 C237.152,69.0746667 237.344,69.8453333 237.728,70.384 C238.112,70.9226667 238.725333,71.192 239.568,71.192 Z M248.032,71.192 C248.501333,71.192 248.936,71.0906667 249.336,70.888 C249.736,70.6853333 250.112,70.4346667 250.464,70.136 L250.464,70.136 L250.528,70.136 L250.656,71 L252.176,71 L252.176,66.344 C252.176,65.2453333 251.933333,64.4053333 251.448,63.824 C250.962667,63.2426667 250.229333,62.952 249.248,62.952 C248.618667,62.952 248.032,63.0533333 247.488,63.256 C246.944,63.4586667 246.453333,63.6986667 246.016,63.976 L246.016,63.976 L246.688,65.208 C247.04,64.9946667 247.4,64.8133333 247.768,64.664 C248.136,64.5146667 248.512,64.44 248.896,64.44 C249.162667,64.44 249.386667,64.48 249.568,64.56 C249.749333,64.64 249.896,64.752 250.008,64.896 C250.12,65.04 250.2,65.2053333 250.248,65.392 C250.296,65.5786667 250.325333,65.7733333 250.336,65.976 C249.525333,66.0613333 248.829333,66.184 248.248,66.344 C247.666667,66.504 247.186667,66.7013333 246.808,66.936 C246.429333,67.1706667 246.152,67.4506667 245.976,67.776 C245.8,68.1013333 245.712,68.472 245.712,68.888 C245.712,69.5813333 245.925333,70.1386667 246.352,70.56 C246.778667,70.9813333 247.338667,71.192 248.032,71.192 Z M248.624,69.752 C248.293333,69.752 248.021333,69.672 247.808,69.512 C247.594667,69.352 247.488,69.096 247.488,68.744 C247.488,68.552 247.536,68.3706667 247.632,68.2 C247.728,68.0293333 247.888,67.8773333 248.112,67.744 C248.336,67.6106667 248.629333,67.4906667 248.992,67.384 C249.354667,67.2773333 249.802667,67.192 250.336,67.128 L250.336,67.128 L250.336,68.888 C250.037333,69.1653333 249.757333,69.3786667 249.496,69.528 C249.234667,69.6773333 248.944,69.752 248.624,69.752 Z M256.176,71.192 C256.581333,71.192 256.906667,71.1386667 257.152,71.032 L257.152,71.032 L256.912,69.656 C256.837333,69.6773333 256.781333,69.688 256.744,69.688 L256.744,69.688 L256.624,69.688 C256.528,69.688 256.437333,69.6426667 256.352,69.552 C256.266667,69.4613333 256.224,69.304 256.224,69.08 L256.224,69.08 L256.224,59.704 L254.384,59.704 L254.384,68.984 C254.384,69.6666667 254.517333,70.2053333 254.784,70.6 C255.050667,70.9946667 255.514667,71.192 256.176,71.192 Z" id="PerIndividual" fill="#555555" fill-rule="nonzero"></path>
                <path d="M171.536,49.52 L171.536,46.224 C173.136,45.9253333 174.362667,45.2586667 175.216,44.224 C176.069333,43.1893333 176.496,41.904 176.496,40.368 C176.496,39.3013333 176.282667,38.4106667 175.856,37.696 C175.429333,36.9813333 174.890667,36.3786667 174.24,35.888 C173.589333,35.3973333 172.890667,34.976 172.144,34.624 C171.397333,34.272 170.698667,33.92 170.048,33.568 C169.397333,33.216 168.858667,32.832 168.432,32.416 C168.005333,32 167.792,31.472 167.792,30.832 C167.792,30 168.037333,29.3653333 168.528,28.928 C169.018667,28.4906667 169.701333,28.272 170.576,28.272 C171.344,28.272 172.005333,28.416 172.56,28.704 C173.114667,28.992 173.690667,29.4133333 174.288,29.968 L174.288,29.968 L176.176,27.824 C175.578667,27.2053333 174.912,26.6666667 174.176,26.208 C173.44,25.7493333 172.56,25.456 171.536,25.328 L171.536,25.328 L171.536,22.128 L168.976,22.128 L168.976,25.392 C167.525333,25.648 166.373333,26.272 165.52,27.264 C164.666667,28.256 164.24,29.4986667 164.24,30.992 C164.24,31.9946667 164.453333,32.832 164.88,33.504 C165.306667,34.176 165.845333,34.752 166.496,35.232 C167.146667,35.712 167.845333,36.128 168.592,36.48 C169.338667,36.832 170.037333,37.2 170.688,37.584 C171.338667,37.968 171.877333,38.3946667 172.304,38.864 C172.730667,39.3333333 172.944,39.92 172.944,40.624 C172.944,41.4986667 172.688,42.176 172.176,42.656 C171.664,43.136 170.885333,43.376 169.84,43.376 C168.965333,43.376 168.144,43.1946667 167.376,42.832 C166.608,42.4693333 165.850667,41.9893333 165.104,41.392 L165.104,41.392 L163.44,43.888 C164.165333,44.5706667 165.024,45.12 166.016,45.536 C167.008,45.952 167.994667,46.2133333 168.976,46.32 L168.976,46.32 L168.976,49.52 L171.536,49.52 Z M186.64,46.384 C187.664,46.384 188.602667,46.2453333 189.456,45.968 C190.309333,45.6906667 191.034667,45.3013333 191.632,44.8 C192.229333,44.2986667 192.693333,43.712 193.024,43.04 C193.354667,42.368 193.52,41.6373333 193.52,40.848 C193.52,40.1653333 193.424,39.5573333 193.232,39.024 C193.04,38.4906667 192.784,38.0106667 192.464,37.584 C192.144,37.1573333 191.770667,36.7786667 191.344,36.448 C190.917333,36.1173333 190.469333,35.824 190,35.568 L190,35.568 L190,35.44 C190.32,35.2053333 190.645333,34.9226667 190.976,34.592 C191.306667,34.2613333 191.6,33.8986667 191.856,33.504 C192.112,33.1093333 192.32,32.6826667 192.48,32.224 C192.64,31.7653333 192.72,31.28 192.72,30.768 C192.72,29.936 192.581333,29.184 192.304,28.512 C192.026667,27.84 191.626667,27.264 191.104,26.784 C190.581333,26.304 189.952,25.9306667 189.216,25.664 C188.48,25.3973333 187.653333,25.264 186.736,25.264 C185.861333,25.264 185.045333,25.392 184.288,25.648 C183.530667,25.904 182.88,26.2666667 182.336,26.736 C181.792,27.2053333 181.365333,27.7706667 181.056,28.432 C180.746667,29.0933333 180.592,29.84 180.592,30.672 C180.592,31.76 180.864,32.688 181.408,33.456 C181.952,34.224 182.618667,34.8853333 183.408,35.44 L183.408,35.44 L183.408,35.568 C182.917333,35.824 182.453333,36.1226667 182.016,36.464 C181.578667,36.8053333 181.189333,37.1893333 180.848,37.616 C180.506667,38.0426667 180.234667,38.5173333 180.032,39.04 C179.829333,39.5626667 179.728,40.144 179.728,40.784 C179.728,41.616 179.904,42.3733333 180.256,43.056 C180.608,43.7386667 181.088,44.3253333 181.696,44.816 C182.304,45.3066667 183.029333,45.6906667 183.872,45.968 C184.714667,46.2453333 185.637333,46.384 186.64,46.384 Z M187.984,34.512 C187.408,34.2986667 186.874667,34.0693333 186.384,33.824 C185.893333,33.5786667 185.461333,33.312 185.088,33.024 C184.714667,32.736 184.421333,32.4 184.208,32.016 C183.994667,31.632 183.888,31.184 183.888,30.672 C183.888,29.776 184.154667,29.088 184.688,28.608 C185.221333,28.128 185.882667,27.888 186.672,27.888 C187.632,27.888 188.373333,28.1813333 188.896,28.768 C189.418667,29.3546667 189.68,30.096 189.68,30.992 C189.68,31.632 189.536,32.24 189.248,32.816 C188.96,33.392 188.538667,33.9573333 187.984,34.512 Z M186.704,43.76 C185.658667,43.76 184.773333,43.456 184.048,42.848 C183.322667,42.24 182.96,41.424 182.96,40.4 C182.96,39.6106667 183.168,38.896 183.584,38.256 C184,37.616 184.528,37.0613333 185.168,36.592 C185.850667,36.8693333 186.490667,37.136 187.088,37.392 C187.685333,37.648 188.202667,37.9306667 188.64,38.24 C189.077333,38.5493333 189.424,38.9013333 189.68,39.296 C189.936,39.6906667 190.064,40.1653333 190.064,40.72 C190.064,41.68 189.749333,42.4266667 189.12,42.96 C188.490667,43.4933333 187.685333,43.76 186.704,43.76 Z M209.808,46 L209.808,42.864 L204.816,42.864 C204.325333,42.864 203.770667,42.8906667 203.152,42.944 C202.533333,42.9973333 201.957333,43.0453333 201.424,43.088 C202.426667,42.0213333 203.376,40.9866667 204.272,39.984 C205.168,38.9813333 205.952,38.0053333 206.624,37.056 C207.296,36.1066667 207.829333,35.168 208.224,34.24 C208.618667,33.312 208.816,32.4 208.816,31.504 C208.816,30.5653333 208.661333,29.712 208.352,28.944 C208.042667,28.176 207.610667,27.52 207.056,26.976 C206.501333,26.432 205.829333,26.0106667 205.04,25.712 C204.250667,25.4133333 203.365333,25.264 202.384,25.264 C200.976,25.264 199.776,25.536 198.784,26.08 C197.792,26.624 196.826667,27.3973333 195.888,28.4 L195.888,28.4 L197.936,30.448 C198.490667,29.8293333 199.093333,29.296 199.744,28.848 C200.394667,28.4 201.114667,28.176 201.904,28.176 C202.992,28.176 203.824,28.4906667 204.4,29.12 C204.976,29.7493333 205.264,30.608 205.264,31.696 C205.264,32.464 205.050667,33.2746667 204.624,34.128 C204.197333,34.9813333 203.584,35.8986667 202.784,36.88 C201.984,37.8613333 201.013333,38.928 199.872,40.08 C198.730667,41.232 197.456,42.4906667 196.048,43.856 L196.048,43.856 L196.048,46 L209.808,46 Z M213.552,51.824 C215.152,51.2693333 216.384,50.416 217.248,49.264 C218.112,48.112 218.544,46.7466667 218.544,45.168 C218.544,43.9733333 218.304,43.0453333 217.824,42.384 C217.344,41.7226667 216.666667,41.392 215.792,41.392 C215.109333,41.392 214.528,41.6 214.048,42.016 C213.568,42.432 213.328,42.9813333 213.328,43.664 C213.328,44.3893333 213.568,44.9493333 214.048,45.344 C214.528,45.7386667 215.077333,45.936 215.696,45.936 L215.696,45.936 L215.984,45.936 C216.005333,46.7466667 215.733333,47.4933333 215.168,48.176 C214.602667,48.8586667 213.797333,49.4026667 212.752,49.808 L212.752,49.808 L213.552,51.824 Z M228.24,46.384 C230.373333,46.384 232.058667,45.472 233.296,43.648 C234.533333,41.824 235.152,39.184 235.152,35.728 C235.152,32.2933333 234.533333,29.6906667 233.296,27.92 C232.058667,26.1493333 230.373333,25.264 228.24,25.264 C226.106667,25.264 224.421333,26.144 223.184,27.904 C221.946667,29.664 221.328,32.272 221.328,35.728 C221.328,39.184 221.946667,41.824 223.184,43.648 C224.421333,45.472 226.106667,46.384 228.24,46.384 Z M228.24,43.504 C227.749333,43.504 227.296,43.3706667 226.88,43.104 C226.464,42.8373333 226.106667,42.3946667 225.808,41.776 C225.509333,41.1573333 225.274667,40.3573333 225.104,39.376 C224.933333,38.3946667 224.848,37.1786667 224.848,35.728 C224.848,34.2986667 224.933333,33.0986667 225.104,32.128 C225.274667,31.1573333 225.509333,30.3733333 225.808,29.776 C226.106667,29.1786667 226.464,28.7573333 226.88,28.512 C227.296,28.2666667 227.749333,28.144 228.24,28.144 C228.730667,28.144 229.184,28.2666667 229.6,28.512 C230.016,28.7573333 230.373333,29.1786667 230.672,29.776 C230.970667,30.3733333 231.205333,31.1573333 231.376,32.128 C231.546667,33.0986667 231.632,34.2986667 231.632,35.728 C231.632,37.1786667 231.546667,38.3946667 231.376,39.376 C231.205333,40.3573333 230.970667,41.1573333 230.672,41.776 C230.373333,42.3946667 230.016,42.8373333 229.6,43.104 C229.184,43.3706667 228.730667,43.504 228.24,43.504 Z M244.656,46.384 C246.789333,46.384 248.474667,45.472 249.712,43.648 C250.949333,41.824 251.568,39.184 251.568,35.728 C251.568,32.2933333 250.949333,29.6906667 249.712,27.92 C248.474667,26.1493333 246.789333,25.264 244.656,25.264 C242.522667,25.264 240.837333,26.144 239.6,27.904 C238.362667,29.664 237.744,32.272 237.744,35.728 C237.744,39.184 238.362667,41.824 239.6,43.648 C240.837333,45.472 242.522667,46.384 244.656,46.384 Z M244.656,43.504 C244.165333,43.504 243.712,43.3706667 243.296,43.104 C242.88,42.8373333 242.522667,42.3946667 242.224,41.776 C241.925333,41.1573333 241.690667,40.3573333 241.52,39.376 C241.349333,38.3946667 241.264,37.1786667 241.264,35.728 C241.264,34.2986667 241.349333,33.0986667 241.52,32.128 C241.690667,31.1573333 241.925333,30.3733333 242.224,29.776 C242.522667,29.1786667 242.88,28.7573333 243.296,28.512 C243.712,28.2666667 244.165333,28.144 244.656,28.144 C245.146667,28.144 245.6,28.2666667 246.016,28.512 C246.432,28.7573333 246.789333,29.1786667 247.088,29.776 C247.386667,30.3733333 247.621333,31.1573333 247.792,32.128 C247.962667,33.0986667 248.048,34.2986667 248.048,35.728 C248.048,37.1786667 247.962667,38.3946667 247.792,39.376 C247.621333,40.3573333 247.386667,41.1573333 247.088,41.776 C246.789333,42.3946667 246.432,42.8373333 246.016,43.104 C245.6,43.3706667 245.146667,43.504 244.656,43.504 Z M261.072,46.384 C263.205333,46.384 264.890667,45.472 266.128,43.648 C267.365333,41.824 267.984,39.184 267.984,35.728 C267.984,32.2933333 267.365333,29.6906667 266.128,27.92 C264.890667,26.1493333 263.205333,25.264 261.072,25.264 C258.938667,25.264 257.253333,26.144 256.016,27.904 C254.778667,29.664 254.16,32.272 254.16,35.728 C254.16,39.184 254.778667,41.824 256.016,43.648 C257.253333,45.472 258.938667,46.384 261.072,46.384 Z M261.072,43.504 C260.581333,43.504 260.128,43.3706667 259.712,43.104 C259.296,42.8373333 258.938667,42.3946667 258.64,41.776 C258.341333,41.1573333 258.106667,40.3573333 257.936,39.376 C257.765333,38.3946667 257.68,37.1786667 257.68,35.728 C257.68,34.2986667 257.765333,33.0986667 257.936,32.128 C258.106667,31.1573333 258.341333,30.3733333 258.64,29.776 C258.938667,29.1786667 259.296,28.7573333 259.712,28.512 C260.128,28.2666667 260.581333,28.144 261.072,28.144 C261.562667,28.144 262.016,28.2666667 262.432,28.512 C262.848,28.7573333 263.205333,29.1786667 263.504,29.776 C263.802667,30.3733333 264.037333,31.1573333 264.208,32.128 C264.378667,33.0986667 264.464,34.2986667 264.464,35.728 C264.464,37.1786667 264.378667,38.3946667 264.208,39.376 C264.037333,40.3573333 263.802667,41.1573333 263.504,41.776 C263.205333,42.3946667 262.848,42.8373333 262.432,43.104 C262.016,43.3706667 261.562667,43.504 261.072,43.504 Z" id="$82,000" fill="#4A0072" fill-rule="nonzero"></path>
                <g id="Icon/Close" transform="translate(129.000000, 37.000000)" fill="#4A0072">
                    <path d="M10.5847185,8.99808182 L15.4175482,4.17649135 C15.8582597,3.7357798 15.8582597,3.02124521 15.4175482,2.58053366 C14.9768366,2.13982211 14.262302,2.13982211 13.8215905,2.58053366 L9,7.41336327 L4.17840952,2.58053366 C3.73769798,2.13982212 3.02316339,2.13982213 2.58245185,2.58053367 C2.14174031,3.02124521 2.1417403,3.7357798 2.58245184,4.17649135 L7.41528145,8.99808182 L2.58245184,13.8196723 C2.36968072,14.0307058 2.25,14.3179735 2.25,14.6176511 C2.25,14.9173288 2.36968072,15.2045965 2.58245184,15.41563 C2.79348532,15.6284011 3.08075306,15.7480818 3.38043068,15.7480818 C3.6801083,15.7480818 3.96737604,15.6284011 4.17840952,15.41563 L9,10.5828004 L13.8215905,15.41563 C14.032624,15.6284011 14.3198917,15.7480818 14.6195693,15.7480818 C14.9192469,15.7480818 15.2065147,15.6284011 15.4175482,15.41563 C15.6303193,15.2045965 15.75,14.9173288 15.75,14.6176511 C15.75,14.3179735 15.6303193,14.0307058 15.4175482,13.8196723 L10.5847185,8.99808182 Z" id="Icon-Path"></path>
                </g>
                <g id="Group-3">
                    <g id="Group-21" transform="translate(12.000000, 0.000000)">
                        <path d="M14.999285,0 C20.5219505,0 24.999285,4.47733448 24.999285,10 C24.999285,15.5226655 20.5219505,20 14.999285,20 C9.47661948,20 4.999285,15.5226655 4.999285,10 C4.999285,4.47733448 9.47661948,0 14.999285,0 M22.4996425,22.4996425 L20.7250107,22.4996425 C17.1757472,24.1312741 12.975833,24.2013442 9.27498927,22.4996425 L7.4989275,22.4996425 C3.35764336,22.4996425 0,25.8587159 0,30 L0,51.2498212 C0,53.3218933 1.67882168,54.999285 3.74946375,54.999285 L6.24910625,54.999285 L6.24910625,76.2505363 C6.24910625,78.3226083 7.92792793,80 10,80 L20,80 C22.0706421,80 23.7494637,78.3226083 23.7494637,76.2505363 L23.7494637,54.999285 L26.2491062,54.999285 C28.3211783,54.999285 30,53.3218933 30,51.2498212 L30,30 C30,25.8587159 26.6423566,22.4996425 22.4996425,22.4996425" id="Fill-1" fill="#4A0072"></path>
                        <path d="M14.999285,0 C20.5219505,0 24.999285,4.47733448 24.999285,10 C24.999285,15.5226655 20.5219505,20 14.999285,20 C9.47661948,20 4.999285,15.5226655 4.999285,10 C4.999285,4.47733448 9.47661948,0 14.999285,0 Z M22.4996425,22.4996425 L20.7250107,22.4996425 C17.1757472,24.1312741 12.975833,24.2013442 9.27498927,22.4996425 L7.4989275,22.4996425 C3.35764336,22.4996425 0,25.8587159 0,30 L0,51.2498212 C0,53.3218933 1.67882168,54.999285 3.74946375,54.999285 L6.24910625,54.999285 L6.24910625,76.2505363 C6.24910625,78.3226083 7.92792793,80 10,80 L20,80 C22.0706421,80 23.7494637,78.3226083 23.7494637,76.2505363 L23.7494637,54.999285 L26.2491062,54.999285 C28.3211783,54.999285 30,53.3218933 30,51.2498212 L30,30 C30,25.8587159 26.6423566,22.4996425 22.4996425,22.4996425 Z" id="Stroke-3" stroke="#FFFFFF"></path>
                        <path d="M74.999285,0 C80.5219505,0 84.999285,4.47733448 84.999285,10 C84.999285,15.5226655 80.5219505,20 74.999285,20 C69.4766195,20 64.999285,15.5226655 64.999285,10 C64.999285,4.47733448 69.4766195,0 74.999285,0 M82.4996425,22.4996425 L80.7250107,22.4996425 C77.1757472,24.1312741 72.975833,24.2013442 69.2749893,22.4996425 L67.4989275,22.4996425 C63.3576434,22.4996425 60,25.8587159 60,30 L60,51.2498212 C60,53.3218933 61.6788217,54.999285 63.7494637,54.999285 L66.2491062,54.999285 L66.2491062,76.2505363 C66.2491062,78.3226083 67.9279279,80 69.99857,80 L80,80 C82.0706421,80 83.7494637,78.3226083 83.7494637,76.2505363 L83.7494637,54.999285 L86.2491062,54.999285 C88.3197483,54.999285 90,53.3218933 90,51.2498212 L90,30 C90,25.8587159 86.6423566,22.4996425 82.4996425,22.4996425" id="Fill-5" fill="#4A0072"></path>
                        <path d="M74.999285,0 C80.5219505,0 84.999285,4.47733448 84.999285,10 C84.999285,15.5226655 80.5219505,20 74.999285,20 C69.4766195,20 64.999285,15.5226655 64.999285,10 C64.999285,4.47733448 69.4766195,0 74.999285,0 Z M82.4996425,22.4996425 L80.7250107,22.4996425 C77.1757472,24.1312741 72.975833,24.2013442 69.2749893,22.4996425 L67.4989275,22.4996425 C63.3576434,22.4996425 60,25.8587159 60,30 L60,51.2498212 C60,53.3218933 61.6788217,54.999285 63.7494637,54.999285 L66.2491062,54.999285 L66.2491062,76.2505363 C66.2491062,78.3226083 67.9279279,80 69.99857,80 L80,80 C82.0706421,80 83.7494637,78.3226083 83.7494637,76.2505363 L83.7494637,54.999285 L86.2491062,54.999285 C88.3197483,54.999285 90,53.3218933 90,51.2498212 L90,30 C90,25.8587159 86.6423566,22.4996425 82.4996425,22.4996425 Z" id="Stroke-7" stroke="#FFFFFF"></path>
                        <path d="M29,3 C34.8911236,3 39.6666667,7.81309398 39.6666667,13.7505406 C39.6666667,19.6865456 34.8911236,24.5010811 29,24.5010811 C23.1088764,24.5010811 18.3333333,19.6865456 18.3333333,13.7505406 C18.3333333,7.81309398 23.1088764,3 29,3 M36.9992849,27.1879955 L35.1070886,27.1879955 C31.3212658,28.9422738 26.8417806,29.0172307 22.8929114,27.1879955 L21.0007151,27.1879955 C16.58273,27.1879955 13,30.7974556 13,35.2501802 L13,58.093277 C13,60.32036 14.7906499,62.1250901 17.0003576,62.1250901 L19.6677393,62.1250901 L19.6677393,84.9681869 C19.6677393,87.1952699 21.4583892,89 23.6666667,89 L34.3333333,89 C36.5416108,89 38.3322607,87.1952699 38.3322607,84.9681869 L38.3322607,62.1250901 L40.9996424,62.1250901 C43.2093501,62.1250901 45,60.32036 45,58.093277 L45,35.2501802 C45,30.7974556 41.41727,27.1879955 36.9992849,27.1879955" id="Fill-9" fill="#4A0072"></path>
                        <path d="M29,3 C34.8911236,3 39.6666667,7.81309398 39.6666667,13.7505406 C39.6666667,19.6865456 34.8911236,24.5010811 29,24.5010811 C23.1088764,24.5010811 18.3333333,19.6865456 18.3333333,13.7505406 C18.3333333,7.81309398 23.1088764,3 29,3 Z M36.9992849,27.1879955 L35.1070886,27.1879955 C31.3212658,28.9422738 26.8417806,29.0172307 22.8929114,27.1879955 L21.0007151,27.1879955 C16.58273,27.1879955 13,30.7974556 13,35.2501802 L13,58.093277 C13,60.32036 14.7906499,62.1250901 17.0003576,62.1250901 L19.6677393,62.1250901 L19.6677393,84.9681869 C19.6677393,87.1952699 21.4583892,89 23.6666667,89 L34.3333333,89 C36.5416108,89 38.3322607,87.1952699 38.3322607,84.9681869 L38.3322607,62.1250901 L40.9996424,62.1250901 C43.2093501,62.1250901 45,60.32036 45,58.093277 L45,35.2501802 C45,30.7974556 41.41727,27.1879955 36.9992849,27.1879955 Z" id="Stroke-11" stroke="#FFFFFF"></path>
                        <path d="M61,3 C66.8911236,3 71.6666667,7.81309398 71.6666667,13.7505406 C71.6666667,19.6865456 66.8911236,24.5010811 61,24.5010811 C55.1088764,24.5010811 50.3333333,19.6865456 50.3333333,13.7505406 C50.3333333,7.81309398 55.1088764,3 61,3 M68.9992849,27.1879955 L67.1070886,27.1879955 C63.3212658,28.9422738 58.8417806,29.0172307 54.8929114,27.1879955 L53.0007151,27.1879955 C48.5812997,27.1879955 45,30.7974556 45,35.2501802 L45,58.093277 C45,60.32036 46.7906499,62.1250901 49.0003576,62.1250901 L51.6677393,62.1250901 L51.6677393,84.9681869 C51.6677393,87.1952699 53.4583892,89 55.6666667,89 L66.3333333,89 C68.5416108,89 70.3322607,87.1952699 70.3322607,84.9681869 L70.3322607,62.1250901 L72.9996424,62.1250901 C75.2079199,62.1250901 77,60.32036 77,58.093277 L77,35.2501802 C77,30.7974556 73.41727,27.1879955 68.9992849,27.1879955" id="Fill-13" fill="#4A0072"></path>
                        <path d="M61,3 C66.8911236,3 71.6666667,7.81309398 71.6666667,13.7505406 C71.6666667,19.6865456 66.8911236,24.5010811 61,24.5010811 C55.1088764,24.5010811 50.3333333,19.6865456 50.3333333,13.7505406 C50.3333333,7.81309398 55.1088764,3 61,3 Z M68.9992849,27.1879955 L67.1070886,27.1879955 C63.3212658,28.9422738 58.8417806,29.0172307 54.8929114,27.1879955 L53.0007151,27.1879955 C48.5812997,27.1879955 45,30.7974556 45,35.2501802 L45,58.093277 C45,60.32036 46.7906499,62.1250901 49.0003576,62.1250901 L51.6677393,62.1250901 L51.6677393,84.9681869 C51.6677393,87.1952699 53.4583892,89 55.6666667,89 L66.3333333,89 C68.5416108,89 70.3322607,87.1952699 70.3322607,84.9681869 L70.3322607,62.1250901 L72.9996424,62.1250901 C75.2079199,62.1250901 77,60.32036 77,58.093277 L77,35.2501802 C77,30.7974556 73.41727,27.1879955 68.9992849,27.1879955 Z" id="Stroke-15" stroke="#FFFFFF"></path>
                        <path d="M45,6 C50.8911236,6 55.6666667,10.813094 55.6666667,16.7505406 C55.6666667,22.6865456 50.8911236,27.5010811 45,27.5010811 C39.1088764,27.5010811 34.3333333,22.6865456 34.3333333,16.7505406 C34.3333333,10.813094 39.1088764,6 45,6 M52.9992849,30.1879955 L51.1070886,30.1879955 C47.3212658,31.9422738 42.8417806,32.0172307 38.8929114,30.1879955 L37.0007151,30.1879955 C32.58273,30.1879955 29,33.7974556 29,38.2501802 L29,61.093277 C29,63.32036 30.7906499,65.1250901 33.0003576,65.1250901 L35.6677393,65.1250901 L35.6677393,87.9681869 C35.6677393,90.1952699 37.4583892,92 39.6666667,92 L50.3333333,92 C52.5416108,92 54.3322607,90.1952699 54.3322607,87.9681869 L54.3322607,65.1250901 L56.9996424,65.1250901 C59.2079199,65.1250901 61,63.32036 61,61.093277 L61,38.2501802 C61,33.7974556 57.41727,30.1879955 52.9992849,30.1879955" id="Fill-17" fill="#4A0072"></path>
                        <path d="M45,6 C50.8911236,6 55.6666667,10.813094 55.6666667,16.7505406 C55.6666667,22.6865456 50.8911236,27.5010811 45,27.5010811 C39.1088764,27.5010811 34.3333333,22.6865456 34.3333333,16.7505406 C34.3333333,10.813094 39.1088764,6 45,6 Z M52.9992849,30.1879955 L51.1070886,30.1879955 C47.3212658,31.9422738 42.8417806,32.0172307 38.8929114,30.1879955 L37.0007151,30.1879955 C32.58273,30.1879955 29,33.7974556 29,38.2501802 L29,61.093277 C29,63.32036 30.7906499,65.1250901 33.0003576,65.1250901 L35.6677393,65.1250901 L35.6677393,87.9681869 C35.6677393,90.1952699 37.4583892,92 39.6666667,92 L50.3333333,92 C52.5416108,92 54.3322607,90.1952699 54.3322607,87.9681869 L54.3322607,65.1250901 L56.9996424,65.1250901 C59.2079199,65.1250901 61,63.32036 61,61.093277 L61,38.2501802 C61,33.7974556 57.41727,30.1879955 52.9992849,30.1879955 Z" id="Stroke-19" stroke="#FFFFFF"></path>
                    </g>
                    <rect id="Rectangle" fill="#4A0072" fill-rule="nonzero" x="0" y="35" width="114" height="47"></rect>
                    <path d="M15.91,54.168 C16.3766667,54.168 16.8106667,54.1003333 17.212,53.965 C17.6133333,53.8296667 17.961,53.6056667 18.255,53.293 C18.549,52.9803333 18.78,52.572 18.948,52.068 C19.116,51.564 19.2,50.9433333 19.2,50.206 L19.2,50.206 L19.2,44.816 L18.08,44.816 L18.08,50.234 C18.08,50.7846667 18.024,51.2466667 17.912,51.62 C17.8,51.9933333 17.646,52.292 17.45,52.516 C17.254,52.74 17.0253333,52.901 16.764,52.999 C16.5026667,53.097 16.218,53.146 15.91,53.146 C15.6113333,53.146 15.3313333,53.097 15.07,52.999 C14.8086667,52.901 14.5823333,52.74 14.391,52.516 C14.1996667,52.292 14.048,51.9933333 13.936,51.62 C13.824,51.2466667 13.768,50.7846667 13.768,50.234 L13.768,50.234 L13.768,44.816 L12.606,44.816 L12.606,50.206 C12.606,50.9433333 12.69,51.564 12.858,52.068 C13.026,52.572 13.257,52.9803333 13.551,53.293 C13.845,53.6056667 14.195,53.8296667 14.601,53.965 C15.007,54.1003333 15.4433333,54.168 15.91,54.168 Z M22.168,54.168 C22.392,54.168 22.5856667,54.0863333 22.749,53.923 C22.9123333,53.7596667 22.994,53.552 22.994,53.3 C22.994,53.0293333 22.9123333,52.8123333 22.749,52.649 C22.5856667,52.4856667 22.392,52.404 22.168,52.404 C21.9346667,52.404 21.7363333,52.4856667 21.573,52.649 C21.4096667,52.8123333 21.328,53.0293333 21.328,53.3 C21.328,53.552 21.4096667,53.7596667 21.573,53.923 C21.7363333,54.0863333 21.9346667,54.168 22.168,54.168 Z M27.712,54.168 C28.1973333,54.168 28.6313333,54.1003333 29.014,53.965 C29.3966667,53.8296667 29.7233333,53.643 29.994,53.405 C30.2646667,53.167 30.4723333,52.8893333 30.617,52.572 C30.7616667,52.2546667 30.834,51.914 30.834,51.55 C30.834,51.214 30.785,50.9176667 30.687,50.661 C30.589,50.4043333 30.456,50.1803333 30.288,49.989 C30.12,49.7976667 29.9193333,49.6296667 29.686,49.485 C29.4526667,49.3403333 29.2053333,49.212 28.944,49.1 L28.944,49.1 L27.642,48.54 C27.4553333,48.4653333 27.2733333,48.3836667 27.096,48.295 C26.9186667,48.2063333 26.7553333,48.1036667 26.606,47.987 C26.4566667,47.8703333 26.3376667,47.735 26.249,47.581 C26.1603333,47.427 26.116,47.238 26.116,47.014 C26.116,46.594 26.2723333,46.265 26.585,46.027 C26.8976667,45.789 27.3106667,45.67 27.824,45.67 C28.2533333,45.67 28.6383333,45.747 28.979,45.901 C29.3196667,46.055 29.63,46.2673333 29.91,46.538 L29.91,46.538 L30.54,45.782 C30.2133333,45.446 29.8166667,45.173 29.35,44.963 C28.8833333,44.753 28.3746667,44.648 27.824,44.648 C27.404,44.648 27.019,44.7086667 26.669,44.83 C26.319,44.9513333 26.0156667,45.1216667 25.759,45.341 C25.5023333,45.5603333 25.3016667,45.8193333 25.157,46.118 C25.0123333,46.4166667 24.94,46.7386667 24.94,47.084 C24.94,47.42 24.996,47.7163333 25.108,47.973 C25.22,48.2296667 25.3646667,48.4513333 25.542,48.638 C25.7193333,48.8246667 25.92,48.9833333 26.144,49.114 C26.368,49.2446667 26.5873333,49.3566667 26.802,49.45 L26.802,49.45 L28.118,50.024 C28.3326667,50.1266667 28.5333333,50.2246667 28.72,50.318 C28.9066667,50.4113333 29.0676667,50.5163333 29.203,50.633 C29.3383333,50.7496667 29.4456667,50.8896667 29.525,51.053 C29.6043333,51.2163333 29.644,51.4146667 29.644,51.648 C29.644,52.096 29.476,52.4576667 29.14,52.733 C28.804,53.0083333 28.3326667,53.146 27.726,53.146 C27.25,53.146 26.7903333,53.041 26.347,52.831 C25.9036667,52.621 25.5186667,52.3433333 25.192,51.998 L25.192,51.998 L24.492,52.81 C24.8933333,53.23 25.3693333,53.5613333 25.92,53.804 C26.4706667,54.0466667 27.068,54.168 27.712,54.168 Z M33.13,54.168 C33.354,54.168 33.5476667,54.0863333 33.711,53.923 C33.8743333,53.7596667 33.956,53.552 33.956,53.3 C33.956,53.0293333 33.8743333,52.8123333 33.711,52.649 C33.5476667,52.4856667 33.354,52.404 33.13,52.404 C32.8966667,52.404 32.6983333,52.4856667 32.535,52.649 C32.3716667,52.8123333 32.29,53.0293333 32.29,53.3 C32.29,53.552 32.3716667,53.7596667 32.535,53.923 C32.6983333,54.0863333 32.8966667,54.168 33.13,54.168 Z M40.088,54 L40.088,50.36 L41.6,50.36 C42.104,50.36 42.5636667,50.3016667 42.979,50.185 C43.3943333,50.0683333 43.7513333,49.8933333 44.05,49.66 C44.3486667,49.4266667 44.5796667,49.1326667 44.743,48.778 C44.9063333,48.4233333 44.988,48.0033333 44.988,47.518 C44.988,47.014 44.904,46.5893333 44.736,46.244 C44.568,45.8986667 44.3346667,45.621 44.036,45.411 C43.7373333,45.201 43.3756667,45.0493333 42.951,44.956 C42.5263333,44.8626667 42.0573333,44.816 41.544,44.816 L41.544,44.816 L38.926,44.816 L38.926,54 L40.088,54 Z M41.46,49.408 L40.088,49.408 L40.088,45.754 L41.404,45.754 C42.2066667,45.754 42.811,45.8823333 43.217,46.139 C43.623,46.3956667 43.826,46.8553333 43.826,47.518 C43.826,48.1713333 43.6323333,48.6496667 43.245,48.953 C42.8576667,49.2563333 42.2626667,49.408 41.46,49.408 L41.46,49.408 Z M49.384,54.168 C49.804,54.168 50.203,54.0886667 50.581,53.93 C50.959,53.7713333 51.2926667,53.5403333 51.582,53.237 C51.8713333,52.9336667 52.1023333,52.5603333 52.275,52.117 C52.4476667,51.6736667 52.534,51.172 52.534,50.612 C52.534,50.0426667 52.4476667,49.5363333 52.275,49.093 C52.1023333,48.6496667 51.8713333,48.274 51.582,47.966 C51.2926667,47.658 50.959,47.4246667 50.581,47.266 C50.203,47.1073333 49.804,47.028 49.384,47.028 C48.964,47.028 48.565,47.1073333 48.187,47.266 C47.809,47.4246667 47.4753333,47.658 47.186,47.966 C46.8966667,48.274 46.6656667,48.6496667 46.493,49.093 C46.3203333,49.5363333 46.234,50.0426667 46.234,50.612 C46.234,51.172 46.3203333,51.6736667 46.493,52.117 C46.6656667,52.5603333 46.8966667,52.9336667 47.186,53.237 C47.4753333,53.5403333 47.809,53.7713333 48.187,53.93 C48.565,54.0886667 48.964,54.168 49.384,54.168 Z M49.384,53.216 C49.0946667,53.216 48.8286667,53.153 48.586,53.027 C48.3433333,52.901 48.1356667,52.7236667 47.963,52.495 C47.7903333,52.2663333 47.6573333,51.9933333 47.564,51.676 C47.4706667,51.3586667 47.424,51.004 47.424,50.612 C47.424,50.22 47.4706667,49.863 47.564,49.541 C47.6573333,49.219 47.7903333,48.9413333 47.963,48.708 C48.1356667,48.4746667 48.3433333,48.295 48.586,48.169 C48.8286667,48.043 49.0946667,47.98 49.384,47.98 C49.6733333,47.98 49.9393333,48.043 50.182,48.169 C50.4246667,48.295 50.6323333,48.4746667 50.805,48.708 C50.9776667,48.9413333 51.1106667,49.219 51.204,49.541 C51.2973333,49.863 51.344,50.22 51.344,50.612 C51.344,51.004 51.2973333,51.3586667 51.204,51.676 C51.1106667,51.9933333 50.9776667,52.2663333 50.805,52.495 C50.6323333,52.7236667 50.4246667,52.901 50.182,53.027 C49.9393333,53.153 49.6733333,53.216 49.384,53.216 Z M55.474,56.87 L55.474,54.574 L55.446,53.384 C55.7633333,53.6266667 56.0783333,53.818 56.391,53.958 C56.7036667,54.098 57.0186667,54.168 57.336,54.168 C57.728,54.168 58.1013333,54.0863333 58.456,53.923 C58.8106667,53.7596667 59.1233333,53.5193333 59.394,53.202 C59.6646667,52.8846667 59.8793333,52.4996667 60.038,52.047 C60.1966667,51.5943333 60.276,51.0786667 60.276,50.5 C60.276,49.968 60.2176667,49.4896667 60.101,49.065 C59.9843333,48.6403333 59.814,48.2763333 59.59,47.973 C59.366,47.6696667 59.086,47.4363333 58.75,47.273 C58.414,47.1096667 58.0266667,47.028 57.588,47.028 C57.1866667,47.028 56.8016667,47.1213333 56.433,47.308 C56.0643333,47.4946667 55.726,47.7186667 55.418,47.98 L55.418,47.98 L55.376,47.98 L55.278,47.196 L54.326,47.196 L54.326,56.87 L55.474,56.87 Z M57.14,53.202 C56.916,53.202 56.6593333,53.1483333 56.37,53.041 C56.0806667,52.9336667 55.782,52.7493333 55.474,52.488 L55.474,52.488 L55.474,48.918 C55.81,48.6193333 56.125,48.3906667 56.419,48.232 C56.713,48.0733333 57.0046667,47.994 57.294,47.994 C57.6113333,47.994 57.8843333,48.0546667 58.113,48.176 C58.3416667,48.2973333 58.5283333,48.4676667 58.673,48.687 C58.8176667,48.9063333 58.9226667,49.17 58.988,49.478 C59.0533333,49.786 59.086,50.1266667 59.086,50.5 C59.086,50.92 59.037,51.298 58.939,51.634 C58.841,51.97 58.7056667,52.2523333 58.533,52.481 C58.3603333,52.7096667 58.155,52.887 57.917,53.013 C57.679,53.139 57.42,53.202 57.14,53.202 Z M64.084,54.168 C64.56,54.168 64.973,54.056 65.323,53.832 C65.673,53.608 66.0066667,53.3093333 66.324,52.936 L66.324,52.936 L66.366,52.936 L66.464,54 L67.416,54 L67.416,47.196 L66.268,47.196 L66.268,52.026 C65.9413333,52.4273333 65.6426667,52.719 65.372,52.901 C65.1013333,53.083 64.7886667,53.174 64.434,53.174 C63.986,53.174 63.6616667,53.0316667 63.461,52.747 C63.2603333,52.4623333 63.16,51.998 63.16,51.354 L63.16,51.354 L63.16,47.196 L61.998,47.196 L61.998,51.508 C61.998,52.3853333 62.1636667,53.048 62.495,53.496 C62.8263333,53.944 63.356,54.168 64.084,54.168 Z M70.93,54.168 C71.0886667,54.168 71.2193333,54.1586667 71.322,54.14 C71.4246667,54.1213333 71.5133333,54.0933333 71.588,54.056 L71.588,54.056 L71.434,53.188 C71.3686667,53.2066667 71.3196667,53.216 71.287,53.216 L71.287,53.216 L71.182,53.216 C71.098,53.216 71.0233333,53.1786667 70.958,53.104 C70.8926667,53.0293333 70.86,52.8986667 70.86,52.712 L70.86,52.712 L70.86,44.032 L69.712,44.032 L69.712,52.628 C69.712,53.132 69.8053333,53.5146667 69.992,53.776 C70.1786667,54.0373333 70.4913333,54.168 70.93,54.168 Z M74.85,54.168 C75.2793333,54.168 75.6806667,54.0723333 76.054,53.881 C76.4273333,53.6896667 76.7773333,53.4586667 77.104,53.188 L77.104,53.188 L77.146,53.188 L77.244,54 L78.196,54 L78.196,49.828 C78.196,48.9786667 78.0093333,48.2996667 77.636,47.791 C77.2626667,47.2823333 76.6606667,47.028 75.83,47.028 C75.2793333,47.028 74.7753333,47.1236667 74.318,47.315 C73.8606667,47.5063333 73.4733333,47.7046667 73.156,47.91 L73.156,47.91 L73.604,48.708 C73.8746667,48.5213333 74.1826667,48.3533333 74.528,48.204 C74.8733333,48.0546667 75.242,47.98 75.634,47.98 C75.914,47.98 76.145,48.029 76.327,48.127 C76.509,48.225 76.6513333,48.3533333 76.754,48.512 C76.8566667,48.6706667 76.929,48.8526667 76.971,49.058 C77.013,49.2633333 77.034,49.4733333 77.034,49.688 C75.578,49.8466667 74.5186667,50.1243333 73.856,50.521 C73.1933333,50.9176667 72.862,51.4893333 72.862,52.236 C72.862,52.852 73.051,53.328 73.429,53.664 C73.807,54 74.2806667,54.168 74.85,54.168 Z M75.186,53.244 C74.85,53.244 74.5653333,53.16 74.332,52.992 C74.0986667,52.824 73.982,52.544 73.982,52.152 C73.982,51.9373333 74.0356667,51.739 74.143,51.557 C74.2503333,51.375 74.423,51.214 74.661,51.074 C74.899,50.934 75.2116667,50.8126667 75.599,50.71 C75.9863333,50.6073333 76.4646667,50.5186667 77.034,50.444 L77.034,50.444 L77.034,52.334 C76.7073333,52.6326667 76.3993333,52.859 76.11,53.013 C75.8206667,53.167 75.5126667,53.244 75.186,53.244 Z M82.48,54.168 C82.6946667,54.168 82.9116667,54.1423333 83.131,54.091 C83.3503333,54.0396667 83.5533333,53.9813333 83.74,53.916 L83.74,53.916 L83.516,53.048 C83.404,53.0946667 83.278,53.1366667 83.138,53.174 C82.998,53.2113333 82.8673333,53.23 82.746,53.23 C82.354,53.23 82.081,53.1156667 81.927,52.887 C81.773,52.6583333 81.696,52.334 81.696,51.914 L81.696,51.914 L81.696,48.134 L83.53,48.134 L83.53,47.196 L81.696,47.196 L81.696,45.292 L80.73,45.292 L80.59,47.196 L79.526,47.266 L79.526,48.134 L80.534,48.134 L80.534,51.9 C80.534,52.236 80.5666667,52.544 80.632,52.824 C80.6973333,53.104 80.807,53.342 80.961,53.538 C81.115,53.734 81.3156667,53.888 81.563,54 C81.8103333,54.112 82.116,54.168 82.48,54.168 Z M85.658,45.796 C85.882,45.796 86.071,45.726 86.225,45.586 C86.379,45.446 86.456,45.2686667 86.456,45.054 C86.456,44.83 86.379,44.6503333 86.225,44.515 C86.071,44.3796667 85.882,44.312 85.658,44.312 C85.434,44.312 85.245,44.3796667 85.091,44.515 C84.937,44.6503333 84.86,44.83 84.86,45.054 C84.86,45.2686667 84.937,45.446 85.091,45.586 C85.245,45.726 85.434,45.796 85.658,45.796 Z M86.218,54 L86.218,47.196 L85.07,47.196 L85.07,54 L86.218,54 Z M91.16,54.168 C91.58,54.168 91.979,54.0886667 92.357,53.93 C92.735,53.7713333 93.0686667,53.5403333 93.358,53.237 C93.6473333,52.9336667 93.8783333,52.5603333 94.051,52.117 C94.2236667,51.6736667 94.31,51.172 94.31,50.612 C94.31,50.0426667 94.2236667,49.5363333 94.051,49.093 C93.8783333,48.6496667 93.6473333,48.274 93.358,47.966 C93.0686667,47.658 92.735,47.4246667 92.357,47.266 C91.979,47.1073333 91.58,47.028 91.16,47.028 C90.74,47.028 90.341,47.1073333 89.963,47.266 C89.585,47.4246667 89.2513333,47.658 88.962,47.966 C88.6726667,48.274 88.4416667,48.6496667 88.269,49.093 C88.0963333,49.5363333 88.01,50.0426667 88.01,50.612 C88.01,51.172 88.0963333,51.6736667 88.269,52.117 C88.4416667,52.5603333 88.6726667,52.9336667 88.962,53.237 C89.2513333,53.5403333 89.585,53.7713333 89.963,53.93 C90.341,54.0886667 90.74,54.168 91.16,54.168 Z M91.16,53.216 C90.8706667,53.216 90.6046667,53.153 90.362,53.027 C90.1193333,52.901 89.9116667,52.7236667 89.739,52.495 C89.5663333,52.2663333 89.4333333,51.9933333 89.34,51.676 C89.2466667,51.3586667 89.2,51.004 89.2,50.612 C89.2,50.22 89.2466667,49.863 89.34,49.541 C89.4333333,49.219 89.5663333,48.9413333 89.739,48.708 C89.9116667,48.4746667 90.1193333,48.295 90.362,48.169 C90.6046667,48.043 90.8706667,47.98 91.16,47.98 C91.4493333,47.98 91.7153333,48.043 91.958,48.169 C92.2006667,48.295 92.4083333,48.4746667 92.581,48.708 C92.7536667,48.9413333 92.8866667,49.219 92.98,49.541 C93.0733333,49.863 93.12,50.22 93.12,50.612 C93.12,51.004 93.0733333,51.3586667 92.98,51.676 C92.8866667,51.9933333 92.7536667,52.2663333 92.581,52.495 C92.4083333,52.7236667 92.2006667,52.901 91.958,53.027 C91.7153333,53.153 91.4493333,53.216 91.16,53.216 Z M97.25,54 L97.25,49.072 C97.5953333,48.7266667 97.9033333,48.4653333 98.174,48.288 C98.4446667,48.1106667 98.7573333,48.022 99.112,48.022 C99.56,48.022 99.8866667,48.1643333 100.092,48.449 C100.297333,48.7336667 100.4,49.198 100.4,49.842 L100.4,49.842 L100.4,54 L101.548,54 L101.548,49.688 C101.548,48.8106667 101.382333,48.148 101.051,47.7 C100.719667,47.252 100.194667,47.028 99.476,47.028 C99,47.028 98.5823333,47.1376667 98.223,47.357 C97.8636667,47.5763333 97.5206667,47.8493333 97.194,48.176 L97.194,48.176 L97.152,48.176 L97.054,47.196 L96.102,47.196 L96.102,54 L97.25,54 Z" id="U.S.Population" fill="#FFFFFF" fill-rule="nonzero"></path>
                    <path d="M14.817,72.216 C15.369,72.216 15.888,72.141 16.374,71.991 C16.86,71.841 17.286,71.625 17.652,71.343 C18.018,71.061 18.306,70.716 18.516,70.308 C18.726,69.9 18.831,69.432 18.831,68.904 C18.831,68.148 18.606,67.53 18.156,67.05 C17.706,66.57 17.139,66.24 16.455,66.06 L16.455,66.06 L16.455,65.988 C17.079,65.748 17.568,65.412 17.922,64.98 C18.276,64.548 18.453,64.008 18.453,63.36 C18.453,62.88 18.363,62.451 18.183,62.073 C18.003,61.695 17.751,61.377 17.427,61.119 C17.103,60.861 16.713,60.666 16.257,60.534 C15.801,60.402 15.297,60.336 14.745,60.336 C14.061,60.336 13.44,60.468 12.882,60.732 C12.324,60.996 11.799,61.344 11.307,61.776 L11.307,61.776 L12.369,63.054 C12.717,62.73 13.074,62.469 13.44,62.271 C13.806,62.073 14.217,61.974 14.673,61.974 C15.201,61.974 15.615,62.109 15.915,62.379 C16.215,62.649 16.365,63.024 16.365,63.504 C16.365,63.768 16.314,64.014 16.212,64.242 C16.11,64.47 15.942,64.665 15.708,64.827 C15.474,64.989 15.168,65.115 14.79,65.205 C14.412,65.295 13.941,65.34 13.377,65.34 L13.377,65.34 L13.377,66.852 C14.025,66.852 14.565,66.897 14.997,66.987 C15.429,67.077 15.774,67.206 16.032,67.374 C16.29,67.542 16.473,67.746 16.581,67.986 C16.689,68.226 16.743,68.496 16.743,68.796 C16.743,69.336 16.548,69.759 16.158,70.065 C15.768,70.371 15.261,70.524 14.637,70.524 C14.061,70.524 13.551,70.401 13.107,70.155 C12.663,69.909 12.267,69.612 11.919,69.264 L11.919,69.264 L10.929,70.596 C11.337,71.052 11.853,71.436 12.477,71.748 C13.101,72.06 13.881,72.216 14.817,72.216 Z M24.051,72.216 C24.603,72.216 25.122,72.141 25.608,71.991 C26.094,71.841 26.52,71.625 26.886,71.343 C27.252,71.061 27.54,70.716 27.75,70.308 C27.96,69.9 28.065,69.432 28.065,68.904 C28.065,68.148 27.84,67.53 27.39,67.05 C26.94,66.57 26.373,66.24 25.689,66.06 L25.689,66.06 L25.689,65.988 C26.313,65.748 26.802,65.412 27.156,64.98 C27.51,64.548 27.687,64.008 27.687,63.36 C27.687,62.88 27.597,62.451 27.417,62.073 C27.237,61.695 26.985,61.377 26.661,61.119 C26.337,60.861 25.947,60.666 25.491,60.534 C25.035,60.402 24.531,60.336 23.979,60.336 C23.295,60.336 22.674,60.468 22.116,60.732 C21.558,60.996 21.033,61.344 20.541,61.776 L20.541,61.776 L21.603,63.054 C21.951,62.73 22.308,62.469 22.674,62.271 C23.04,62.073 23.451,61.974 23.907,61.974 C24.435,61.974 24.849,62.109 25.149,62.379 C25.449,62.649 25.599,63.024 25.599,63.504 C25.599,63.768 25.548,64.014 25.446,64.242 C25.344,64.47 25.176,64.665 24.942,64.827 C24.708,64.989 24.402,65.115 24.024,65.205 C23.646,65.295 23.175,65.34 22.611,65.34 L22.611,65.34 L22.611,66.852 C23.259,66.852 23.799,66.897 24.231,66.987 C24.663,67.077 25.008,67.206 25.266,67.374 C25.524,67.542 25.707,67.746 25.815,67.986 C25.923,68.226 25.977,68.496 25.977,68.796 C25.977,69.336 25.782,69.759 25.392,70.065 C25.002,70.371 24.495,70.524 23.871,70.524 C23.295,70.524 22.785,70.401 22.341,70.155 C21.897,69.909 21.501,69.612 21.153,69.264 L21.153,69.264 L20.163,70.596 C20.571,71.052 21.087,71.436 21.711,71.748 C22.335,72.06 23.115,72.216 24.051,72.216 Z M33.573,72.216 C34.773,72.216 35.721,71.703 36.417,70.677 C37.113,69.651 37.461,68.166 37.461,66.222 C37.461,64.29 37.113,62.826 36.417,61.83 C35.721,60.834 34.773,60.336 33.573,60.336 C32.373,60.336 31.425,60.831 30.729,61.821 C30.033,62.811 29.685,64.278 29.685,66.222 C29.685,68.166 30.033,69.651 30.729,70.677 C31.425,71.703 32.373,72.216 33.573,72.216 Z M33.573,70.596 C33.297,70.596 33.042,70.521 32.808,70.371 C32.574,70.221 32.373,69.972 32.205,69.624 C32.037,69.276 31.905,68.826 31.809,68.274 C31.713,67.722 31.665,67.038 31.665,66.222 C31.665,65.418 31.713,64.743 31.809,64.197 C31.905,63.651 32.037,63.21 32.205,62.874 C32.373,62.538 32.574,62.301 32.808,62.163 C33.042,62.025 33.297,61.956 33.573,61.956 C33.849,61.956 34.104,62.025 34.338,62.163 C34.572,62.301 34.773,62.538 34.941,62.874 C35.109,63.21 35.241,63.651 35.337,64.197 C35.433,64.743 35.481,65.418 35.481,66.222 C35.481,67.038 35.433,67.722 35.337,68.274 C35.241,68.826 35.109,69.276 34.941,69.624 C34.773,69.972 34.572,70.221 34.338,70.371 C34.104,70.521 33.849,70.596 33.573,70.596 Z M39.495,75.276 C40.395,74.964 41.088,74.484 41.574,73.836 C42.06,73.188 42.303,72.42 42.303,71.532 C42.303,70.86 42.168,70.338 41.898,69.966 C41.628,69.594 41.247,69.408 40.755,69.408 C40.371,69.408 40.044,69.525 39.774,69.759 C39.504,69.993 39.369,70.302 39.369,70.686 C39.369,71.094 39.504,71.409 39.774,71.631 C40.044,71.853 40.353,71.964 40.701,71.964 L40.701,71.964 L40.863,71.964 C40.875,72.42 40.722,72.84 40.404,73.224 C40.086,73.608 39.633,73.914 39.045,74.142 L39.045,74.142 L39.495,75.276 Z M47.469,72.216 C48.021,72.216 48.54,72.141 49.026,71.991 C49.512,71.841 49.938,71.625 50.304,71.343 C50.67,71.061 50.958,70.716 51.168,70.308 C51.378,69.9 51.483,69.432 51.483,68.904 C51.483,68.148 51.258,67.53 50.808,67.05 C50.358,66.57 49.791,66.24 49.107,66.06 L49.107,66.06 L49.107,65.988 C49.731,65.748 50.22,65.412 50.574,64.98 C50.928,64.548 51.105,64.008 51.105,63.36 C51.105,62.88 51.015,62.451 50.835,62.073 C50.655,61.695 50.403,61.377 50.079,61.119 C49.755,60.861 49.365,60.666 48.909,60.534 C48.453,60.402 47.949,60.336 47.397,60.336 C46.713,60.336 46.092,60.468 45.534,60.732 C44.976,60.996 44.451,61.344 43.959,61.776 L43.959,61.776 L45.021,63.054 C45.369,62.73 45.726,62.469 46.092,62.271 C46.458,62.073 46.869,61.974 47.325,61.974 C47.853,61.974 48.267,62.109 48.567,62.379 C48.867,62.649 49.017,63.024 49.017,63.504 C49.017,63.768 48.966,64.014 48.864,64.242 C48.762,64.47 48.594,64.665 48.36,64.827 C48.126,64.989 47.82,65.115 47.442,65.205 C47.064,65.295 46.593,65.34 46.029,65.34 L46.029,65.34 L46.029,66.852 C46.677,66.852 47.217,66.897 47.649,66.987 C48.081,67.077 48.426,67.206 48.684,67.374 C48.942,67.542 49.125,67.746 49.233,67.986 C49.341,68.226 49.395,68.496 49.395,68.796 C49.395,69.336 49.2,69.759 48.81,70.065 C48.42,70.371 47.913,70.524 47.289,70.524 C46.713,70.524 46.203,70.401 45.759,70.155 C45.315,69.909 44.919,69.612 44.571,69.264 L44.571,69.264 L43.581,70.596 C43.989,71.052 44.505,71.436 45.129,71.748 C45.753,72.06 46.533,72.216 47.469,72.216 Z M56.991,72.216 C58.191,72.216 59.139,71.703 59.835,70.677 C60.531,69.651 60.879,68.166 60.879,66.222 C60.879,64.29 60.531,62.826 59.835,61.83 C59.139,60.834 58.191,60.336 56.991,60.336 C55.791,60.336 54.843,60.831 54.147,61.821 C53.451,62.811 53.103,64.278 53.103,66.222 C53.103,68.166 53.451,69.651 54.147,70.677 C54.843,71.703 55.791,72.216 56.991,72.216 Z M56.991,70.596 C56.715,70.596 56.46,70.521 56.226,70.371 C55.992,70.221 55.791,69.972 55.623,69.624 C55.455,69.276 55.323,68.826 55.227,68.274 C55.131,67.722 55.083,67.038 55.083,66.222 C55.083,65.418 55.131,64.743 55.227,64.197 C55.323,63.651 55.455,63.21 55.623,62.874 C55.791,62.538 55.992,62.301 56.226,62.163 C56.46,62.025 56.715,61.956 56.991,61.956 C57.267,61.956 57.522,62.025 57.756,62.163 C57.99,62.301 58.191,62.538 58.359,62.874 C58.527,63.21 58.659,63.651 58.755,64.197 C58.851,64.743 58.899,65.418 58.899,66.222 C58.899,67.038 58.851,67.722 58.755,68.274 C58.659,68.826 58.527,69.276 58.359,69.624 C58.191,69.972 57.99,70.221 57.756,70.371 C57.522,70.521 57.267,70.596 56.991,70.596 Z M66.225,72.216 C67.425,72.216 68.373,71.703 69.069,70.677 C69.765,69.651 70.113,68.166 70.113,66.222 C70.113,64.29 69.765,62.826 69.069,61.83 C68.373,60.834 67.425,60.336 66.225,60.336 C65.025,60.336 64.077,60.831 63.381,61.821 C62.685,62.811 62.337,64.278 62.337,66.222 C62.337,68.166 62.685,69.651 63.381,70.677 C64.077,71.703 65.025,72.216 66.225,72.216 Z M66.225,70.596 C65.949,70.596 65.694,70.521 65.46,70.371 C65.226,70.221 65.025,69.972 64.857,69.624 C64.689,69.276 64.557,68.826 64.461,68.274 C64.365,67.722 64.317,67.038 64.317,66.222 C64.317,65.418 64.365,64.743 64.461,64.197 C64.557,63.651 64.689,63.21 64.857,62.874 C65.025,62.538 65.226,62.301 65.46,62.163 C65.694,62.025 65.949,61.956 66.225,61.956 C66.501,61.956 66.756,62.025 66.99,62.163 C67.224,62.301 67.425,62.538 67.593,62.874 C67.761,63.21 67.893,63.651 67.989,64.197 C68.085,64.743 68.133,65.418 68.133,66.222 C68.133,67.038 68.085,67.722 67.989,68.274 C67.893,68.826 67.761,69.276 67.593,69.624 C67.425,69.972 67.224,70.221 66.99,70.371 C66.756,70.521 66.501,70.596 66.225,70.596 Z M72.147,75.276 C73.047,74.964 73.74,74.484 74.226,73.836 C74.712,73.188 74.955,72.42 74.955,71.532 C74.955,70.86 74.82,70.338 74.55,69.966 C74.28,69.594 73.899,69.408 73.407,69.408 C73.023,69.408 72.696,69.525 72.426,69.759 C72.156,69.993 72.021,70.302 72.021,70.686 C72.021,71.094 72.156,71.409 72.426,71.631 C72.696,71.853 73.005,71.964 73.353,71.964 L73.353,71.964 L73.515,71.964 C73.527,72.42 73.374,72.84 73.056,73.224 C72.738,73.608 72.285,73.914 71.697,74.142 L71.697,74.142 L72.147,75.276 Z M80.409,72.216 C81.609,72.216 82.557,71.703 83.253,70.677 C83.949,69.651 84.297,68.166 84.297,66.222 C84.297,64.29 83.949,62.826 83.253,61.83 C82.557,60.834 81.609,60.336 80.409,60.336 C79.209,60.336 78.261,60.831 77.565,61.821 C76.869,62.811 76.521,64.278 76.521,66.222 C76.521,68.166 76.869,69.651 77.565,70.677 C78.261,71.703 79.209,72.216 80.409,72.216 Z M80.409,70.596 C80.133,70.596 79.878,70.521 79.644,70.371 C79.41,70.221 79.209,69.972 79.041,69.624 C78.873,69.276 78.741,68.826 78.645,68.274 C78.549,67.722 78.501,67.038 78.501,66.222 C78.501,65.418 78.549,64.743 78.645,64.197 C78.741,63.651 78.873,63.21 79.041,62.874 C79.209,62.538 79.41,62.301 79.644,62.163 C79.878,62.025 80.133,61.956 80.409,61.956 C80.685,61.956 80.94,62.025 81.174,62.163 C81.408,62.301 81.609,62.538 81.777,62.874 C81.945,63.21 82.077,63.651 82.173,64.197 C82.269,64.743 82.317,65.418 82.317,66.222 C82.317,67.038 82.269,67.722 82.173,68.274 C82.077,68.826 81.945,69.276 81.777,69.624 C81.609,69.972 81.408,70.221 81.174,70.371 C80.94,70.521 80.685,70.596 80.409,70.596 Z M89.643,72.216 C90.843,72.216 91.791,71.703 92.487,70.677 C93.183,69.651 93.531,68.166 93.531,66.222 C93.531,64.29 93.183,62.826 92.487,61.83 C91.791,60.834 90.843,60.336 89.643,60.336 C88.443,60.336 87.495,60.831 86.799,61.821 C86.103,62.811 85.755,64.278 85.755,66.222 C85.755,68.166 86.103,69.651 86.799,70.677 C87.495,71.703 88.443,72.216 89.643,72.216 Z M89.643,70.596 C89.367,70.596 89.112,70.521 88.878,70.371 C88.644,70.221 88.443,69.972 88.275,69.624 C88.107,69.276 87.975,68.826 87.879,68.274 C87.783,67.722 87.735,67.038 87.735,66.222 C87.735,65.418 87.783,64.743 87.879,64.197 C87.975,63.651 88.107,63.21 88.275,62.874 C88.443,62.538 88.644,62.301 88.878,62.163 C89.112,62.025 89.367,61.956 89.643,61.956 C89.919,61.956 90.174,62.025 90.408,62.163 C90.642,62.301 90.843,62.538 91.011,62.874 C91.179,63.21 91.311,63.651 91.407,64.197 C91.503,64.743 91.551,65.418 91.551,66.222 C91.551,67.038 91.503,67.722 91.407,68.274 C91.311,68.826 91.179,69.276 91.011,69.624 C90.843,69.972 90.642,70.221 90.408,70.371 C90.174,70.521 89.919,70.596 89.643,70.596 Z M98.877,72.216 C100.077,72.216 101.025,71.703 101.721,70.677 C102.417,69.651 102.765,68.166 102.765,66.222 C102.765,64.29 102.417,62.826 101.721,61.83 C101.025,60.834 100.077,60.336 98.877,60.336 C97.677,60.336 96.729,60.831 96.033,61.821 C95.337,62.811 94.989,64.278 94.989,66.222 C94.989,68.166 95.337,69.651 96.033,70.677 C96.729,71.703 97.677,72.216 98.877,72.216 Z M98.877,70.596 C98.601,70.596 98.346,70.521 98.112,70.371 C97.878,70.221 97.677,69.972 97.509,69.624 C97.341,69.276 97.209,68.826 97.113,68.274 C97.017,67.722 96.969,67.038 96.969,66.222 C96.969,65.418 97.017,64.743 97.113,64.197 C97.209,63.651 97.341,63.21 97.509,62.874 C97.677,62.538 97.878,62.301 98.112,62.163 C98.346,62.025 98.601,61.956 98.877,61.956 C99.153,61.956 99.408,62.025 99.642,62.163 C99.876,62.301 100.077,62.538 100.245,62.874 C100.413,63.21 100.545,63.651 100.641,64.197 C100.737,64.743 100.785,65.418 100.785,66.222 C100.785,67.038 100.737,67.722 100.641,68.274 C100.545,68.826 100.413,69.276 100.245,69.624 C100.077,69.972 99.876,70.221 99.642,70.371 C99.408,70.521 99.153,70.596 98.877,70.596 Z" id="330,300,000" fill="#FFFFFF" fill-rule="nonzero"></path>
                </g>
            </g>
        </g>
    </g>
</svg>