<?xml version="1.0" encoding="UTF-8"?>
<svg width="554px" height="370px" viewBox="0 0 554 370" version="1.1" xmlns="http://www.w3.org/2000/svg" xmlns:xlink="http://www.w3.org/1999/xlink">
    <title>AFG - Deficit Overview</title>
    <defs>
        <path d="M209,0 L253,0 C254.656854,-3.04359188e-16 256,1.34314575 256,3 L256,163 L256,163 L206,163 L206,3 C206,1.34314575 207.343146,3.04359188e-16 209,0 Z" id="path-1"></path>
        <filter x="-91.0%" y="-27.3%" width="282.0%" height="155.8%" filterUnits="objectBoundingBox" id="filter-2">
            <feOffset dx="0" dy="1" in="SourceAlpha" result="shadowOffsetOuter1"></feOffset>
            <feGaussianBlur stdDeviation="15" in="shadowOffsetOuter1" result="shadowBlurOuter1"></feGaussianBlur>
            <feColorMatrix values="0 0 0 0 0.262745098   0 0 0 0 0.262745098   0 0 0 0 0.262745098  0 0 0 0.1 0" type="matrix" in="shadowBlurOuter1"></feColorMatrix>
        </filter>
    </defs>
    <g id="AFG---Deficit-Overview" stroke="none" stroke-width="1" fill="none" fill-rule="evenodd">
        <g id="overview/viz/deficit" transform="translate(0.000000, 29.000000)">
            <rect id="Rectangle" fill="#112E51" fill-rule="nonzero" opacity="0.5" x="206" y="163" width="50" height="177"></rect>
            <path d="M299,0 L343,0 C344.656854,-3.04359188e-16 346,1.34314575 346,3 L346,340 L346,340 L296,340 L296,3 C296,1.34314575 297.343146,3.04359188e-16 299,0 Z" id="Rectangle-Copy" fill="#00796B" fill-rule="nonzero" opacity="0.5"></path>
            <rect id="Rectangle" fill="#DDDDDD" x="0" y="340" width="554" height="1" rx="0.5"></rect>
            <g id="Rectangle" fill-rule="nonzero">
                <use fill="black" fill-opacity="1" filter="url(#filter-2)" xlink:href="#path-1"></use>
                <use fill="#B3532D" xlink:href="#path-1"></use>
            </g>
            <g id="Group-3" transform="translate(356.000000, 156.000000)" fill="#006C6D" fill-opacity="0.5" fill-rule="nonzero">
                <g id="Group-2" transform="translate(9.500000, 6.500000) rotate(-180.000000) translate(-9.500000, -6.500000) translate(0.000000, -0.000000)">
                    <path d="M11.5013637,0.442205744 L18.1344827,6.40426987 L11.5111177,12.5720637 L10.4888823,11.474323 L15.024,7.24920574 L0.25,7.25 L0.25,5.75 L15.163,5.74920574 L10.4986363,1.55779426 L11.5013637,0.442205744 Z" id="Combined-Shape"></path>
                </g>
            </g>
            <g id="Group-2" transform="translate(176.000000, 189.000000)" fill="#0A2F5A" fill-opacity="0.5" fill-rule="nonzero">
                <path d="M11.5013637,0.442205744 L18.1344827,6.40426987 L11.5111177,12.5720637 L10.4888823,11.474323 L15.024,7.24920574 L0.25,7.25 L0.25,5.75 L15.163,5.74920574 L10.4986363,1.55779426 L11.5013637,0.442205744 Z" id="Combined-Shape"></path>
            </g>
            <g id="Group-7" transform="translate(399.000000, 140.000000)" fill="#555555" fill-rule="nonzero" opacity="0.5">
                <path d="M4.968,18.216 C5.664,18.216 6.288,18.117 6.84,17.919 C7.392,17.721 7.857,17.457 8.235,17.127 C8.613,16.797 8.901,16.413 9.099,15.975 C9.297,15.537 9.396,15.072 9.396,14.58 C9.396,13.752 9.189,13.086 8.775,12.582 C8.361,12.078 7.794,11.682 7.074,11.394 L7.074,11.394 L5.562,10.782 C5.31,10.674 5.076,10.575 4.86,10.485 C4.644,10.395 4.455,10.299 4.293,10.197 C4.131,10.095 4.005,9.981 3.915,9.855 C3.825,9.729 3.78,9.576 3.78,9.396 C3.78,9.06 3.915,8.799 4.185,8.613 C4.455,8.427 4.818,8.334 5.274,8.334 C5.742,8.334 6.168,8.415 6.552,8.577 C6.936,8.739 7.32,8.97 7.704,9.27 L7.704,9.27 L9.054,7.596 C8.55,7.092 7.965,6.708 7.299,6.444 C6.633,6.18 5.958,6.048 5.274,6.048 C4.662,6.048 4.101,6.138 3.591,6.318 C3.081,6.498 2.64,6.747 2.268,7.065 C1.896,7.383 1.608,7.755 1.404,8.181 C1.2,8.607 1.098,9.06 1.098,9.54 C1.098,9.972 1.164,10.359 1.296,10.701 C1.428,11.043 1.605,11.343 1.827,11.601 C2.049,11.859 2.301,12.084 2.583,12.276 C2.865,12.468 3.156,12.624 3.456,12.744 L3.456,12.744 L4.986,13.392 L4.986,13.392 L5.462,13.596 L5.462,13.596 L5.679,13.689 C5.889,13.779 6.069,13.875 6.219,13.977 C6.369,14.079 6.483,14.196 6.561,14.328 C6.639,14.46 6.678,14.616 6.678,14.796 C6.678,15.144 6.543,15.42 6.273,15.624 C6.003,15.828 5.592,15.93 5.04,15.93 C4.548,15.93 4.047,15.816 3.537,15.588 C3.027,15.36 2.562,15.066 2.142,14.706 L2.142,14.706 L0.63,16.524 C1.23,17.088 1.911,17.511 2.673,17.793 C3.435,18.075 4.2,18.216 4.968,18.216 Z M15.54,18 L15.54,14.022 L16.998,14.022 C17.622,14.022 18.21,13.944 18.762,13.788 C19.314,13.632 19.8,13.392 20.22,13.068 C20.64,12.744 20.973,12.33 21.219,11.826 C21.465,11.322 21.588,10.728 21.588,10.044 C21.588,9.336 21.465,8.739 21.219,8.253 C20.973,7.767 20.64,7.377 20.22,7.083 C19.8,6.789 19.308,6.579 18.744,6.453 C18.18,6.327 17.574,6.264 16.926,6.264 L16.926,6.264 L12.894,6.264 L12.894,18 L15.54,18 Z M16.836,11.916 L15.54,11.916 L15.54,8.37 L16.764,8.37 C17.484,8.37 18.036,8.496 18.42,8.748 C18.804,9 18.996,9.432 18.996,10.044 C18.996,11.292 18.276,11.916 16.836,11.916 L16.836,11.916 Z M32.646,18 L32.646,15.768 L27.768,15.768 L27.768,13.068 L31.764,13.068 L31.764,10.854 L27.768,10.854 L27.768,8.496 L32.466,8.496 L32.466,6.264 L25.122,6.264 L25.122,18 L32.646,18 Z M39.006,18 L39.006,13.842 C39.006,13.146 38.967,12.426 38.889,11.682 C38.811,10.938 38.742,10.242 38.682,9.594 L38.682,9.594 L38.754,9.594 L39.906,12.15 L42.966,18 L45.684,18 L45.684,6.264 L43.164,6.264 L43.164,10.404 C43.164,11.1 43.203,11.832 43.281,12.6 C43.359,13.368 43.428,14.064 43.488,14.688 L43.488,14.688 L43.416,14.688 L42.264,12.096 L39.204,6.264 L36.486,6.264 L36.486,18 L39.006,18 Z M53.412,18 C54.276,18 55.059,17.88 55.761,17.64 C56.463,17.4 57.066,17.037 57.57,16.551 C58.074,16.065 58.464,15.45 58.74,14.706 C59.016,13.962 59.154,13.086 59.154,12.078 C59.154,11.07 59.016,10.2 58.74,9.468 C58.464,8.736 58.068,8.133 57.552,7.659 C57.036,7.185 56.418,6.834 55.698,6.606 C54.978,6.378 54.168,6.264 53.268,6.264 L53.268,6.264 L49.956,6.264 L49.956,18 L53.412,18 Z M53.106,15.858 L52.602,15.858 L52.602,8.406 L53.106,8.406 C53.61,8.406 54.066,8.466 54.474,8.586 C54.882,8.706 55.23,8.907 55.518,9.189 C55.806,9.471 56.031,9.849 56.193,10.323 C56.355,10.797 56.436,11.382 56.436,12.078 C56.436,12.786 56.355,13.38 56.193,13.86 C56.031,14.34 55.806,14.727 55.518,15.021 C55.23,15.315 54.882,15.528 54.474,15.66 C54.066,15.792 53.61,15.858 53.106,15.858 L53.106,15.858 Z M65.532,18 L65.532,6.264 L62.886,6.264 L62.886,18 L65.532,18 Z M72.324,18 L72.324,13.842 C72.324,13.146 72.285,12.426 72.207,11.682 C72.129,10.938 72.06,10.242 72,9.594 L72,9.594 L72.072,9.594 L73.224,12.15 L76.284,18 L79.002,18 L79.002,6.264 L76.482,6.264 L76.482,10.404 C76.482,11.1 76.521,11.832 76.599,12.6 C76.677,13.368 76.746,14.064 76.806,14.688 L76.806,14.688 L76.734,14.688 L75.582,12.096 L72.522,6.264 L69.804,6.264 L69.804,18 L72.324,18 Z M88.458,18.216 C89.286,18.216 90.036,18.078 90.708,17.802 C91.38,17.526 91.92,17.19 92.328,16.794 L92.328,16.794 L92.328,11.394 L88.044,11.394 L88.044,13.554 L89.988,13.554 L89.988,15.57 C89.844,15.69 89.658,15.78 89.43,15.84 C89.202,15.9 88.968,15.93 88.728,15.93 C87.624,15.93 86.799,15.597 86.253,14.931 C85.707,14.265 85.434,13.326 85.434,12.114 C85.434,11.526 85.509,10.998 85.659,10.53 C85.809,10.062 86.022,9.666 86.298,9.342 C86.574,9.018 86.901,8.769 87.279,8.595 C87.657,8.421 88.074,8.334 88.53,8.334 C89.034,8.334 89.454,8.424 89.79,8.604 C90.126,8.784 90.444,9.006 90.744,9.27 L90.744,9.27 L92.13,7.578 C91.746,7.182 91.248,6.828 90.636,6.516 C90.024,6.204 89.292,6.048 88.44,6.048 C87.66,6.048 86.922,6.186 86.226,6.462 C85.53,6.738 84.921,7.14 84.399,7.668 C83.877,8.196 83.466,8.841 83.166,9.603 C82.866,10.365 82.716,11.232 82.716,12.204 C82.716,13.188 82.863,14.055 83.157,14.805 C83.451,15.555 83.856,16.182 84.372,16.686 C84.888,17.19 85.497,17.571 86.199,17.829 C86.901,18.087 87.654,18.216 88.458,18.216 Z" id="SPENDING"></path>
                <path d="M4.512,40.76 L4.512,39.144 C5.28,39.0373333 5.88533333,38.7386667 6.328,38.248 C6.77066667,37.7573333 6.992,37.128 6.992,36.36 C6.992,35.784 6.88266667,35.312 6.664,34.944 C6.44533333,34.576 6.17066667,34.2666667 5.84,34.016 C5.50933333,33.7653333 5.14933333,33.552 4.76,33.376 C4.37066667,33.2 4.01066667,33.0186667 3.68,32.832 C3.34933333,32.6453333 3.07466667,32.4293333 2.856,32.184 C2.63733333,31.9386667 2.528,31.624 2.528,31.24 C2.528,30.7706667 2.672,30.3973333 2.96,30.12 C3.248,29.8426667 3.63733333,29.704 4.128,29.704 C4.56533333,29.704 4.92533333,29.784 5.208,29.944 C5.49066667,30.104 5.78133333,30.328 6.08,30.616 L6.08,30.616 L6.784,29.832 C6.496,29.5226667 6.17333333,29.256 5.816,29.032 C5.45866667,28.808 5.024,28.6693333 4.512,28.616 L4.512,28.616 L4.512,27.032 L3.552,27.032 L3.552,28.648 C2.848,28.7546667 2.28533333,29.0453333 1.864,29.52 C1.44266667,29.9946667 1.232,30.5893333 1.232,31.304 C1.232,31.8266667 1.34133333,32.256 1.56,32.592 C1.77866667,32.928 2.05333333,33.2133333 2.384,33.448 C2.71466667,33.6826667 3.07466667,33.8906667 3.464,34.072 C3.85333333,34.2533333 4.21333333,34.448 4.544,34.656 C4.87466667,34.864 5.14933333,35.1093333 5.368,35.392 C5.58666667,35.6746667 5.696,36.0293333 5.696,36.456 C5.696,36.9573333 5.54933333,37.3573333 5.256,37.656 C4.96266667,37.9546667 4.51733333,38.104 3.92,38.104 C3.42933333,38.104 2.97866667,38 2.568,37.792 C2.15733333,37.584 1.78133333,37.3306667 1.44,37.032 L1.44,37.032 L0.832,37.944 C1.17333333,38.2533333 1.584,38.5226667 2.064,38.752 C2.544,38.9813333 3.04,39.1226667 3.552,39.176 L3.552,39.176 L3.552,40.76 L4.512,40.76 Z M12.24,39.192 C12.656,39.192 13.0453333,39.112 13.408,38.952 C13.7706667,38.792 14.0906667,38.568 14.368,38.28 C14.6453333,37.992 14.864,37.648 15.024,37.248 C15.184,36.848 15.264,36.4026667 15.264,35.912 C15.264,34.856 15,34.0666667 14.472,33.544 C13.944,33.0213333 13.2373333,32.76 12.352,32.76 C11.936,32.76 11.5146667,32.8746667 11.088,33.104 C10.6613333,33.3333333 10.288,33.6453333 9.968,34.04 C9.97866667,33.2293333 10.0586667,32.5493333 10.208,32 C10.3573333,31.4506667 10.5546667,31.0053333 10.8,30.664 C11.0453333,30.3226667 11.328,30.0773333 11.648,29.928 C11.968,29.7786667 12.304,29.704 12.656,29.704 C12.976,29.704 13.2826667,29.776 13.576,29.92 C13.8693333,30.064 14.1226667,30.2586667 14.336,30.504 L14.336,30.504 L15.072,29.688 C14.784,29.3786667 14.44,29.12 14.04,28.912 C13.64,28.704 13.1626667,28.6 12.608,28.6 C12.096,28.6 11.608,28.704 11.144,28.912 C10.68,29.12 10.2666667,29.4506667 9.904,29.904 C9.54133333,30.3573333 9.25333333,30.944 9.04,31.664 C8.82666667,32.384 8.72,33.256 8.72,34.28 C8.72,35.1013333 8.81066667,35.8186667 8.992,36.432 C9.17333333,37.0453333 9.42133333,37.5573333 9.736,37.968 C10.0506667,38.3786667 10.4213333,38.6853333 10.848,38.888 C11.2746667,39.0906667 11.7386667,39.192 12.24,39.192 Z M12.24,38.152 C11.5893333,38.152 11.0746667,37.8933333 10.696,37.376 C10.3173333,36.8586667 10.0853333,36.0986667 10,35.096 C10.32,34.616 10.672,34.272 11.056,34.064 C11.44,33.856 11.7973333,33.752 12.128,33.752 C12.768,33.752 13.2426667,33.944 13.552,34.328 C13.8613333,34.712 14.016,35.24 14.016,35.912 C14.016,36.2533333 13.9706667,36.56 13.88,36.832 C13.7893333,37.104 13.664,37.3386667 13.504,37.536 C13.344,37.7333333 13.1573333,37.8853333 12.944,37.992 C12.7306667,38.0986667 12.496,38.152 12.24,38.152 Z M17.904,39.192 C18.16,39.192 18.3813333,39.0986667 18.568,38.912 C18.7546667,38.7253333 18.848,38.488 18.848,38.2 C18.848,37.8906667 18.7546667,37.6426667 18.568,37.456 C18.3813333,37.2693333 18.16,37.176 17.904,37.176 C17.6373333,37.176 17.4106667,37.2693333 17.224,37.456 C17.0373333,37.6426667 16.944,37.8906667 16.944,38.2 C16.944,38.488 17.0373333,38.7253333 17.224,38.912 C17.4106667,39.0986667 17.6373333,39.192 17.904,39.192 Z M23.632,39.192 C24.08,39.192 24.5093333,39.1146667 24.92,38.96 C25.3306667,38.8053333 25.696,38.5813333 26.016,38.288 C26.336,37.9946667 26.592,37.6346667 26.784,37.208 C26.976,36.7813333 27.072,36.2906667 27.072,35.736 C27.072,35.1813333 26.9893333,34.704 26.824,34.304 C26.6586667,33.904 26.432,33.5733333 26.144,33.312 C25.856,33.0506667 25.52,32.856 25.136,32.728 C24.752,32.6 24.3413333,32.536 23.904,32.536 C23.5946667,32.536 23.3173333,32.5733333 23.072,32.648 C22.8266667,32.7226667 22.5813333,32.824 22.336,32.952 L22.336,32.952 L22.608,29.928 L26.56,29.928 L26.56,28.792 L21.456,28.792 L21.12,33.704 L21.824,34.152 C22.1333333,33.9493333 22.4133333,33.7946667 22.664,33.688 C22.9146667,33.5813333 23.216,33.528 23.568,33.528 C24.2293333,33.528 24.7573333,33.7253333 25.152,34.12 C25.5466667,34.5146667 25.744,35.064 25.744,35.768 C25.744,36.12 25.6853333,36.44 25.568,36.728 C25.4506667,37.016 25.2906667,37.2613333 25.088,37.464 C24.8853333,37.6666667 24.648,37.824 24.376,37.936 C24.104,38.048 23.8133333,38.104 23.504,38.104 C22.9066667,38.104 22.4026667,37.9866667 21.992,37.752 C21.5813333,37.5173333 21.2266667,37.2453333 20.928,36.936 L20.928,36.936 L20.288,37.8 C20.4586667,37.9813333 20.6533333,38.1546667 20.872,38.32 C21.0906667,38.4853333 21.336,38.632 21.608,38.76 C21.88,38.888 22.184,38.992 22.52,39.072 C22.856,39.152 23.2266667,39.192 23.632,39.192 Z M31.584,39.192 C32.032,39.192 32.4613333,39.1146667 32.872,38.96 C33.2826667,38.8053333 33.648,38.5813333 33.968,38.288 C34.288,37.9946667 34.544,37.6346667 34.736,37.208 C34.928,36.7813333 35.024,36.2906667 35.024,35.736 C35.024,35.1813333 34.9413333,34.704 34.776,34.304 C34.6106667,33.904 34.384,33.5733333 34.096,33.312 C33.808,33.0506667 33.472,32.856 33.088,32.728 C32.704,32.6 32.2933333,32.536 31.856,32.536 C31.5466667,32.536 31.2693333,32.5733333 31.024,32.648 C30.7786667,32.7226667 30.5333333,32.824 30.288,32.952 L30.288,32.952 L30.56,29.928 L34.512,29.928 L34.512,28.792 L29.408,28.792 L29.072,33.704 L29.776,34.152 C30.0853333,33.9493333 30.3653333,33.7946667 30.616,33.688 C30.8666667,33.5813333 31.168,33.528 31.52,33.528 C32.1813333,33.528 32.7093333,33.7253333 33.104,34.12 C33.4986667,34.5146667 33.696,35.064 33.696,35.768 C33.696,36.12 33.6373333,36.44 33.52,36.728 C33.4026667,37.016 33.2426667,37.2613333 33.04,37.464 C32.8373333,37.6666667 32.6,37.824 32.328,37.936 C32.056,38.048 31.7653333,38.104 31.456,38.104 C30.8586667,38.104 30.3546667,37.9866667 29.944,37.752 C29.5333333,37.5173333 29.1786667,37.2453333 28.88,36.936 L28.88,36.936 L28.24,37.8 C28.4106667,37.9813333 28.6053333,38.1546667 28.824,38.32 C29.0426667,38.4853333 29.288,38.632 29.56,38.76 C29.832,38.888 30.136,38.992 30.472,39.072 C30.808,39.152 31.1786667,39.192 31.584,39.192 Z M42.752,39.192 C42.9973333,39.192 43.2453333,39.1626667 43.496,39.104 C43.7466667,39.0453333 43.9786667,38.9786667 44.192,38.904 L44.192,38.904 L43.936,37.912 C43.808,37.9653333 43.664,38.0133333 43.504,38.056 C43.344,38.0986667 43.1946667,38.12 43.056,38.12 C42.608,38.12 42.296,37.9893333 42.12,37.728 C41.944,37.4666667 41.856,37.096 41.856,36.616 L41.856,36.616 L41.856,32.296 L43.952,32.296 L43.952,31.224 L41.856,31.224 L41.856,29.048 L40.752,29.048 L40.592,31.224 L39.376,31.304 L39.376,32.296 L40.528,32.296 L40.528,36.6 C40.528,36.984 40.5653333,37.336 40.64,37.656 C40.7146667,37.976 40.84,38.248 41.016,38.472 C41.192,38.696 41.4213333,38.872 41.704,39 C41.9866667,39.128 42.336,39.192 42.752,39.192 Z M47.024,39 L47.024,34.008 C47.2906667,33.3466667 47.6026667,32.8826667 47.96,32.616 C48.3173333,32.3493333 48.6613333,32.216 48.992,32.216 C49.152,32.216 49.2853333,32.2266667 49.392,32.248 C49.4986667,32.2693333 49.616,32.3013333 49.744,32.344 L49.744,32.344 L50,31.192 C49.7546667,31.0853333 49.4773333,31.032 49.168,31.032 C48.72,31.032 48.3066667,31.176 47.928,31.464 C47.5493333,31.752 47.2266667,32.1413333 46.96,32.632 L46.96,32.632 L46.912,32.632 L46.8,31.224 L45.712,31.224 L45.712,39 L47.024,39 Z M51.936,29.624 C52.192,29.624 52.408,29.544 52.584,29.384 C52.76,29.224 52.848,29.0213333 52.848,28.776 C52.848,28.52 52.76,28.3146667 52.584,28.16 C52.408,28.0053333 52.192,27.928 51.936,27.928 C51.68,27.928 51.464,28.0053333 51.288,28.16 C51.112,28.3146667 51.024,28.52 51.024,28.776 C51.024,29.0213333 51.112,29.224 51.288,29.384 C51.464,29.544 51.68,29.624 51.936,29.624 Z M52.576,39 L52.576,31.224 L51.264,31.224 L51.264,39 L52.576,39 Z M56.592,39.192 C56.7733333,39.192 56.9226667,39.1813333 57.04,39.16 C57.1573333,39.1386667 57.2586667,39.1066667 57.344,39.064 L57.344,39.064 L57.168,38.072 C57.0933333,38.0933333 57.0373333,38.104 57,38.104 L57,38.104 L56.88,38.104 C56.784,38.104 56.6986667,38.0613333 56.624,37.976 C56.5493333,37.8906667 56.512,37.7413333 56.512,37.528 L56.512,37.528 L56.512,27.608 L55.2,27.608 L55.2,37.432 C55.2,38.008 55.3066667,38.4453333 55.52,38.744 C55.7333333,39.0426667 56.0906667,39.192 56.592,39.192 Z M60.672,39.192 C60.8533333,39.192 61.0026667,39.1813333 61.12,39.16 C61.2373333,39.1386667 61.3386667,39.1066667 61.424,39.064 L61.424,39.064 L61.248,38.072 C61.1733333,38.0933333 61.1173333,38.104 61.08,38.104 L61.08,38.104 L60.96,38.104 C60.864,38.104 60.7786667,38.0613333 60.704,37.976 C60.6293333,37.8906667 60.592,37.7413333 60.592,37.528 L60.592,37.528 L60.592,27.608 L59.28,27.608 L59.28,37.432 C59.28,38.008 59.3866667,38.4453333 59.6,38.744 C59.8133333,39.0426667 60.1706667,39.192 60.672,39.192 Z M64.032,29.624 C64.288,29.624 64.504,29.544 64.68,29.384 C64.856,29.224 64.944,29.0213333 64.944,28.776 C64.944,28.52 64.856,28.3146667 64.68,28.16 C64.504,28.0053333 64.288,27.928 64.032,27.928 C63.776,27.928 63.56,28.0053333 63.384,28.16 C63.208,28.3146667 63.12,28.52 63.12,28.776 C63.12,29.0213333 63.208,29.224 63.384,29.384 C63.56,29.544 63.776,29.624 64.032,29.624 Z M64.672,39 L64.672,31.224 L63.36,31.224 L63.36,39 L64.672,39 Z M70.32,39.192 C70.8,39.192 71.256,39.1013333 71.688,38.92 C72.12,38.7386667 72.5013333,38.4746667 72.832,38.128 C73.1626667,37.7813333 73.4266667,37.3546667 73.624,36.848 C73.8213333,36.3413333 73.92,35.768 73.92,35.128 C73.92,34.4773333 73.8213333,33.8986667 73.624,33.392 C73.4266667,32.8853333 73.1626667,32.456 72.832,32.104 C72.5013333,31.752 72.12,31.4853333 71.688,31.304 C71.256,31.1226667 70.8,31.032 70.32,31.032 C69.84,31.032 69.384,31.1226667 68.952,31.304 C68.52,31.4853333 68.1386667,31.752 67.808,32.104 C67.4773333,32.456 67.2133333,32.8853333 67.016,33.392 C66.8186667,33.8986667 66.72,34.4773333 66.72,35.128 C66.72,35.768 66.8186667,36.3413333 67.016,36.848 C67.2133333,37.3546667 67.4773333,37.7813333 67.808,38.128 C68.1386667,38.4746667 68.52,38.7386667 68.952,38.92 C69.384,39.1013333 69.84,39.192 70.32,39.192 Z M70.32,38.104 C69.9893333,38.104 69.6853333,38.032 69.408,37.888 C69.1306667,37.744 68.8933333,37.5413333 68.696,37.28 C68.4986667,37.0186667 68.3466667,36.7066667 68.24,36.344 C68.1333333,35.9813333 68.08,35.576 68.08,35.128 C68.08,34.68 68.1333333,34.272 68.24,33.904 C68.3466667,33.536 68.4986667,33.2186667 68.696,32.952 C68.8933333,32.6853333 69.1306667,32.48 69.408,32.336 C69.6853333,32.192 69.9893333,32.12 70.32,32.12 C70.6506667,32.12 70.9546667,32.192 71.232,32.336 C71.5093333,32.48 71.7466667,32.6853333 71.944,32.952 C72.1413333,33.2186667 72.2933333,33.536 72.4,33.904 C72.5066667,34.272 72.56,34.68 72.56,35.128 C72.56,35.576 72.5066667,35.9813333 72.4,36.344 C72.2933333,36.7066667 72.1413333,37.0186667 71.944,37.28 C71.7466667,37.5413333 71.5093333,37.744 71.232,37.888 C70.9546667,38.032 70.6506667,38.104 70.32,38.104 Z M77.28,39 L77.28,33.368 C77.6746667,32.9733333 78.0266667,32.6746667 78.336,32.472 C78.6453333,32.2693333 79.0026667,32.168 79.408,32.168 C79.92,32.168 80.2933333,32.3306667 80.528,32.656 C80.7626667,32.9813333 80.88,33.512 80.88,34.248 L80.88,34.248 L80.88,39 L82.192,39 L82.192,34.072 C82.192,33.0693333 82.0026667,32.312 81.624,31.8 C81.2453333,31.288 80.6453333,31.032 79.824,31.032 C79.28,31.032 78.8026667,31.1573333 78.392,31.408 C77.9813333,31.6586667 77.5893333,31.9706667 77.216,32.344 L77.216,32.344 L77.168,32.344 L77.056,31.224 L75.968,31.224 L75.968,39 L77.28,39 Z" id="$6.55trillion"></path>
            </g>
            <g id="Group-6" transform="translate(61.000000, 0.000000)" fill-rule="nonzero">
                <path d="M6.187,23 C7.291,23 8.2915,22.8466667 9.1885,22.54 C10.0855,22.2333333 10.856,21.7695 11.5,21.1485 C12.144,20.5275 12.6423333,19.7416667 12.995,18.791 C13.3476667,17.8403333 13.524,16.721 13.524,15.433 C13.524,14.145 13.3476667,13.0333333 12.995,12.098 C12.6423333,11.1626667 12.1363333,10.3921667 11.477,9.7865 C10.8176667,9.18083333 10.028,8.73233333 9.108,8.441 C8.188,8.14966667 7.153,8.004 6.003,8.004 L6.003,8.004 L1.771,8.004 L1.771,23 L6.187,23 Z M5.796,20.263 L5.152,20.263 L5.152,10.741 L5.796,10.741 C6.44,10.741 7.02266667,10.8176667 7.544,10.971 C8.06533333,11.1243333 8.51,11.3811667 8.878,11.7415 C9.246,12.1018333 9.5335,12.5848333 9.7405,13.1905 C9.9475,13.7961667 10.051,14.5436667 10.051,15.433 C10.051,16.3376667 9.9475,17.0966667 9.7405,17.71 C9.5335,18.3233333 9.246,18.8178333 8.878,19.1935 C8.51,19.5691667 8.06533333,19.8413333 7.544,20.01 C7.02266667,20.1786667 6.44,20.263 5.796,20.263 L5.796,20.263 Z M27.49,23 L27.49,20.148 L21.257,20.148 L21.257,16.698 L26.363,16.698 L26.363,13.869 L21.257,13.869 L21.257,10.856 L27.26,10.856 L27.26,8.004 L17.876,8.004 L17.876,23 L27.49,23 Z M35.361,23 L35.361,17.181 L40.559,17.181 L40.559,14.329 L35.361,14.329 L35.361,10.856 L41.433,10.856 L41.433,8.004 L31.98,8.004 L31.98,23 L35.361,23 Z M48.913,23 L48.913,8.004 L45.532,8.004 L45.532,23 L48.913,23 Z M60.211,23.276 C62.189,23.276 63.8066667,22.54 65.064,21.068 L65.064,21.068 L63.27,18.952 C62.902,19.3506667 62.4765,19.6841667 61.9935,19.9525 C61.5105,20.2208333 60.9623333,20.355 60.349,20.355 C59.245,20.355 58.3633333,19.9295 57.704,19.0785 C57.0446667,18.2275 56.715,17.0276667 56.715,15.479 C56.715,14.7276667 56.8108333,14.053 57.0025,13.455 C57.1941667,12.857 57.4548333,12.351 57.7845,11.937 C58.1141667,11.523 58.5051667,11.2048333 58.9575,10.9825 C59.4098333,10.7601667 59.889,10.649 60.395,10.649 C60.9316667,10.649 61.4108333,10.7601667 61.8325,10.9825 C62.2541667,11.2048333 62.6566667,11.4923333 63.04,11.845 L63.04,11.845 L64.834,9.683 C64.328,9.16166667 63.6916667,8.7055 62.925,8.3145 C62.1583333,7.9235 61.292,7.728 60.326,7.728 C59.3753333,7.728 58.4706667,7.90433333 57.612,8.257 C56.7533333,8.60966667 56.002,9.12333333 55.358,9.798 C54.714,10.4726667 54.2003333,11.2968333 53.817,12.2705 C53.4336667,13.2441667 53.242,14.352 53.242,15.594 C53.242,16.8513333 53.426,17.9591667 53.794,18.9175 C54.162,19.8758333 54.6641667,20.677 55.3005,21.321 C55.9368333,21.965 56.6766667,22.4518333 57.52,22.7815 C58.3633333,23.1111667 59.2603333,23.276 60.211,23.276 Z M72.222,23 L72.222,8.004 L68.841,8.004 L68.841,23 L72.222,23 Z M83.589,23 L83.589,10.856 L87.706,10.856 L87.706,8.004 L76.068,8.004 L76.068,10.856 L80.185,10.856 L80.185,23 L83.589,23 Z" id="DEFICIT" fill="#555555"></path>
                <path d="M4.512,46.76 L4.512,45.144 C5.28,45.0373333 5.88533333,44.7386667 6.328,44.248 C6.77066667,43.7573333 6.992,43.128 6.992,42.36 C6.992,41.784 6.88266667,41.312 6.664,40.944 C6.44533333,40.576 6.17066667,40.2666667 5.84,40.016 C5.50933333,39.7653333 5.14933333,39.552 4.76,39.376 C4.37066667,39.2 4.01066667,39.0186667 3.68,38.832 C3.34933333,38.6453333 3.07466667,38.4293333 2.856,38.184 C2.63733333,37.9386667 2.528,37.624 2.528,37.24 C2.528,36.7706667 2.672,36.3973333 2.96,36.12 C3.248,35.8426667 3.63733333,35.704 4.128,35.704 C4.56533333,35.704 4.92533333,35.784 5.208,35.944 C5.49066667,36.104 5.78133333,36.328 6.08,36.616 L6.08,36.616 L6.784,35.832 C6.496,35.5226667 6.17333333,35.256 5.816,35.032 C5.45866667,34.808 5.024,34.6693333 4.512,34.616 L4.512,34.616 L4.512,33.032 L3.552,33.032 L3.552,34.648 C2.848,34.7546667 2.28533333,35.0453333 1.864,35.52 C1.44266667,35.9946667 1.232,36.5893333 1.232,37.304 C1.232,37.8266667 1.34133333,38.256 1.56,38.592 C1.77866667,38.928 2.05333333,39.2133333 2.384,39.448 C2.71466667,39.6826667 3.07466667,39.8906667 3.464,40.072 C3.85333333,40.2533333 4.21333333,40.448 4.544,40.656 C4.87466667,40.864 5.14933333,41.1093333 5.368,41.392 C5.58666667,41.6746667 5.696,42.0293333 5.696,42.456 C5.696,42.9573333 5.54933333,43.3573333 5.256,43.656 C4.96266667,43.9546667 4.51733333,44.104 3.92,44.104 C3.42933333,44.104 2.97866667,44 2.568,43.792 C2.15733333,43.584 1.78133333,43.3306667 1.44,43.032 L1.44,43.032 L0.832,43.944 C1.17333333,44.2533333 1.584,44.5226667 2.064,44.752 C2.544,44.9813333 3.04,45.1226667 3.552,45.176 L3.552,45.176 L3.552,46.76 L4.512,46.76 Z M11.728,45.192 C12.1973333,45.192 12.6346667,45.1253333 13.04,44.992 C13.4453333,44.8586667 13.8,44.6666667 14.104,44.416 C14.408,44.1653333 14.648,43.8586667 14.824,43.496 C15,43.1333333 15.088,42.728 15.088,42.28 C15.088,41.928 15.032,41.608 14.92,41.32 C14.808,41.032 14.6506667,40.7786667 14.448,40.56 C14.2453333,40.3413333 14.0106667,40.16 13.744,40.016 C13.4773333,39.872 13.1893333,39.7626667 12.88,39.688 L12.88,39.688 L12.88,39.624 C13.4346667,39.4106667 13.8826667,39.1066667 14.224,38.712 C14.5653333,38.3173333 14.736,37.8106667 14.736,37.192 C14.736,36.776 14.6613333,36.408 14.512,36.088 C14.3626667,35.768 14.152,35.4986667 13.88,35.28 C13.608,35.0613333 13.2853333,34.8933333 12.912,34.776 C12.5386667,34.6586667 12.128,34.6 11.68,34.6 C11.072,34.6 10.5306667,34.72 10.056,34.96 C9.58133333,35.2 9.14666667,35.5066667 8.752,35.88 L8.752,35.88 L9.456,36.712 C9.76533333,36.4026667 10.0986667,36.152 10.456,35.96 C10.8133333,35.768 11.2053333,35.672 11.632,35.672 C12.176,35.672 12.6053333,35.816 12.92,36.104 C13.2346667,36.392 13.392,36.7866667 13.392,37.288 C13.392,37.5546667 13.344,37.8053333 13.248,38.04 C13.152,38.2746667 12.9893333,38.4773333 12.76,38.648 C12.5306667,38.8186667 12.232,38.952 11.864,39.048 C11.496,39.144 11.04,39.192 10.496,39.192 L10.496,39.192 L10.496,40.2 C11.104,40.2 11.616,40.248 12.032,40.344 C12.448,40.44 12.784,40.5786667 13.04,40.76 C13.296,40.9413333 13.48,41.1573333 13.592,41.408 C13.704,41.6586667 13.76,41.9333333 13.76,42.232 C13.76,42.808 13.5626667,43.264 13.168,43.6 C12.7733333,43.936 12.2666667,44.104 11.648,44.104 C11.04,44.104 10.5306667,43.9813333 10.12,43.736 C9.70933333,43.4906667 9.34933333,43.208 9.04,42.888 L9.04,42.888 L8.368,43.752 C8.53866667,43.944 8.73333333,44.1253333 8.952,44.296 C9.17066667,44.4666667 9.41866667,44.6186667 9.696,44.752 C9.97333333,44.8853333 10.28,44.992 10.616,45.072 C10.952,45.152 11.3226667,45.192 11.728,45.192 Z M17.904,45.192 C18.16,45.192 18.3813333,45.0986667 18.568,44.912 C18.7546667,44.7253333 18.848,44.488 18.848,44.2 C18.848,43.8906667 18.7546667,43.6426667 18.568,43.456 C18.3813333,43.2693333 18.16,43.176 17.904,43.176 C17.6373333,43.176 17.4106667,43.2693333 17.224,43.456 C17.0373333,43.6426667 16.944,43.8906667 16.944,44.2 C16.944,44.488 17.0373333,44.7253333 17.224,44.912 C17.4106667,45.0986667 17.6373333,45.192 17.904,45.192 Z M26.912,45 L26.912,43.912 L24.8,43.912 L24.8,34.792 L23.792,34.792 C23.5146667,34.9626667 23.2026667,35.1093333 22.856,35.232 C22.5093333,35.3546667 22.1013333,35.4586667 21.632,35.544 L21.632,35.544 L21.632,36.392 L23.488,36.392 L23.488,43.912 L21.152,43.912 L21.152,45 L26.912,45 Z M31.616,45.192 C32.0853333,45.192 32.5226667,45.1253333 32.928,44.992 C33.3333333,44.8586667 33.688,44.6666667 33.992,44.416 C34.296,44.1653333 34.536,43.8586667 34.712,43.496 C34.888,43.1333333 34.976,42.728 34.976,42.28 C34.976,41.928 34.92,41.608 34.808,41.32 C34.696,41.032 34.5386667,40.7786667 34.336,40.56 C34.1333333,40.3413333 33.8986667,40.16 33.632,40.016 C33.3653333,39.872 33.0773333,39.7626667 32.768,39.688 L32.768,39.688 L32.768,39.624 C33.3226667,39.4106667 33.7706667,39.1066667 34.112,38.712 C34.4533333,38.3173333 34.624,37.8106667 34.624,37.192 C34.624,36.776 34.5493333,36.408 34.4,36.088 C34.2506667,35.768 34.04,35.4986667 33.768,35.28 C33.496,35.0613333 33.1733333,34.8933333 32.8,34.776 C32.4266667,34.6586667 32.016,34.6 31.568,34.6 C30.96,34.6 30.4186667,34.72 29.944,34.96 C29.4693333,35.2 29.0346667,35.5066667 28.64,35.88 L28.64,35.88 L29.344,36.712 C29.6533333,36.4026667 29.9866667,36.152 30.344,35.96 C30.7013333,35.768 31.0933333,35.672 31.52,35.672 C32.064,35.672 32.4933333,35.816 32.808,36.104 C33.1226667,36.392 33.28,36.7866667 33.28,37.288 C33.28,37.5546667 33.232,37.8053333 33.136,38.04 C33.04,38.2746667 32.8773333,38.4773333 32.648,38.648 C32.4186667,38.8186667 32.12,38.952 31.752,39.048 C31.384,39.144 30.928,39.192 30.384,39.192 L30.384,39.192 L30.384,40.2 C30.992,40.2 31.504,40.248 31.92,40.344 C32.336,40.44 32.672,40.5786667 32.928,40.76 C33.184,40.9413333 33.368,41.1573333 33.48,41.408 C33.592,41.6586667 33.648,41.9333333 33.648,42.232 C33.648,42.808 33.4506667,43.264 33.056,43.6 C32.6613333,43.936 32.1546667,44.104 31.536,44.104 C30.928,44.104 30.4186667,43.9813333 30.008,43.736 C29.5973333,43.4906667 29.2373333,43.208 28.928,42.888 L28.928,42.888 L28.256,43.752 C28.4266667,43.944 28.6213333,44.1253333 28.84,44.296 C29.0586667,44.4666667 29.3066667,44.6186667 29.584,44.752 C29.8613333,44.8853333 30.168,44.992 30.504,45.072 C30.84,45.152 31.2106667,45.192 31.616,45.192 Z M42.752,45.192 C42.9973333,45.192 43.2453333,45.1626667 43.496,45.104 C43.7466667,45.0453333 43.9786667,44.9786667 44.192,44.904 L44.192,44.904 L43.936,43.912 C43.808,43.9653333 43.664,44.0133333 43.504,44.056 C43.344,44.0986667 43.1946667,44.12 43.056,44.12 C42.608,44.12 42.296,43.9893333 42.12,43.728 C41.944,43.4666667 41.856,43.096 41.856,42.616 L41.856,42.616 L41.856,38.296 L43.952,38.296 L43.952,37.224 L41.856,37.224 L41.856,35.048 L40.752,35.048 L40.592,37.224 L39.376,37.304 L39.376,38.296 L40.528,38.296 L40.528,42.6 C40.528,42.984 40.5653333,43.336 40.64,43.656 C40.7146667,43.976 40.84,44.248 41.016,44.472 C41.192,44.696 41.4213333,44.872 41.704,45 C41.9866667,45.128 42.336,45.192 42.752,45.192 Z M47.024,45 L47.024,40.008 C47.2906667,39.3466667 47.6026667,38.8826667 47.96,38.616 C48.3173333,38.3493333 48.6613333,38.216 48.992,38.216 C49.152,38.216 49.2853333,38.2266667 49.392,38.248 C49.4986667,38.2693333 49.616,38.3013333 49.744,38.344 L49.744,38.344 L50,37.192 C49.7546667,37.0853333 49.4773333,37.032 49.168,37.032 C48.72,37.032 48.3066667,37.176 47.928,37.464 C47.5493333,37.752 47.2266667,38.1413333 46.96,38.632 L46.96,38.632 L46.912,38.632 L46.8,37.224 L45.712,37.224 L45.712,45 L47.024,45 Z M51.936,35.624 C52.192,35.624 52.408,35.544 52.584,35.384 C52.76,35.224 52.848,35.0213333 52.848,34.776 C52.848,34.52 52.76,34.3146667 52.584,34.16 C52.408,34.0053333 52.192,33.928 51.936,33.928 C51.68,33.928 51.464,34.0053333 51.288,34.16 C51.112,34.3146667 51.024,34.52 51.024,34.776 C51.024,35.0213333 51.112,35.224 51.288,35.384 C51.464,35.544 51.68,35.624 51.936,35.624 Z M52.576,45 L52.576,37.224 L51.264,37.224 L51.264,45 L52.576,45 Z M56.592,45.192 C56.7733333,45.192 56.9226667,45.1813333 57.04,45.16 C57.1573333,45.1386667 57.2586667,45.1066667 57.344,45.064 L57.344,45.064 L57.168,44.072 C57.0933333,44.0933333 57.0373333,44.104 57,44.104 L57,44.104 L56.88,44.104 C56.784,44.104 56.6986667,44.0613333 56.624,43.976 C56.5493333,43.8906667 56.512,43.7413333 56.512,43.528 L56.512,43.528 L56.512,33.608 L55.2,33.608 L55.2,43.432 C55.2,44.008 55.3066667,44.4453333 55.52,44.744 C55.7333333,45.0426667 56.0906667,45.192 56.592,45.192 Z M60.672,45.192 C60.8533333,45.192 61.0026667,45.1813333 61.12,45.16 C61.2373333,45.1386667 61.3386667,45.1066667 61.424,45.064 L61.424,45.064 L61.248,44.072 C61.1733333,44.0933333 61.1173333,44.104 61.08,44.104 L61.08,44.104 L60.96,44.104 C60.864,44.104 60.7786667,44.0613333 60.704,43.976 C60.6293333,43.8906667 60.592,43.7413333 60.592,43.528 L60.592,43.528 L60.592,33.608 L59.28,33.608 L59.28,43.432 C59.28,44.008 59.3866667,44.4453333 59.6,44.744 C59.8133333,45.0426667 60.1706667,45.192 60.672,45.192 Z M64.032,35.624 C64.288,35.624 64.504,35.544 64.68,35.384 C64.856,35.224 64.944,35.0213333 64.944,34.776 C64.944,34.52 64.856,34.3146667 64.68,34.16 C64.504,34.0053333 64.288,33.928 64.032,33.928 C63.776,33.928 63.56,34.0053333 63.384,34.16 C63.208,34.3146667 63.12,34.52 63.12,34.776 C63.12,35.0213333 63.208,35.224 63.384,35.384 C63.56,35.544 63.776,35.624 64.032,35.624 Z M64.672,45 L64.672,37.224 L63.36,37.224 L63.36,45 L64.672,45 Z M70.32,45.192 C70.8,45.192 71.256,45.1013333 71.688,44.92 C72.12,44.7386667 72.5013333,44.4746667 72.832,44.128 C73.1626667,43.7813333 73.4266667,43.3546667 73.624,42.848 C73.8213333,42.3413333 73.92,41.768 73.92,41.128 C73.92,40.4773333 73.8213333,39.8986667 73.624,39.392 C73.4266667,38.8853333 73.1626667,38.456 72.832,38.104 C72.5013333,37.752 72.12,37.4853333 71.688,37.304 C71.256,37.1226667 70.8,37.032 70.32,37.032 C69.84,37.032 69.384,37.1226667 68.952,37.304 C68.52,37.4853333 68.1386667,37.752 67.808,38.104 C67.4773333,38.456 67.2133333,38.8853333 67.016,39.392 C66.8186667,39.8986667 66.72,40.4773333 66.72,41.128 C66.72,41.768 66.8186667,42.3413333 67.016,42.848 C67.2133333,43.3546667 67.4773333,43.7813333 67.808,44.128 C68.1386667,44.4746667 68.52,44.7386667 68.952,44.92 C69.384,45.1013333 69.84,45.192 70.32,45.192 Z M70.32,44.104 C69.9893333,44.104 69.6853333,44.032 69.408,43.888 C69.1306667,43.744 68.8933333,43.5413333 68.696,43.28 C68.4986667,43.0186667 68.3466667,42.7066667 68.24,42.344 C68.1333333,41.9813333 68.08,41.576 68.08,41.128 C68.08,40.68 68.1333333,40.272 68.24,39.904 C68.3466667,39.536 68.4986667,39.2186667 68.696,38.952 C68.8933333,38.6853333 69.1306667,38.48 69.408,38.336 C69.6853333,38.192 69.9893333,38.12 70.32,38.12 C70.6506667,38.12 70.9546667,38.192 71.232,38.336 C71.5093333,38.48 71.7466667,38.6853333 71.944,38.952 C72.1413333,39.2186667 72.2933333,39.536 72.4,39.904 C72.5066667,40.272 72.56,40.68 72.56,41.128 C72.56,41.576 72.5066667,41.9813333 72.4,42.344 C72.2933333,42.7066667 72.1413333,43.0186667 71.944,43.28 C71.7466667,43.5413333 71.5093333,43.744 71.232,43.888 C70.9546667,44.032 70.6506667,44.104 70.32,44.104 Z M77.28,45 L77.28,39.368 C77.6746667,38.9733333 78.0266667,38.6746667 78.336,38.472 C78.6453333,38.2693333 79.0026667,38.168 79.408,38.168 C79.92,38.168 80.2933333,38.3306667 80.528,38.656 C80.7626667,38.9813333 80.88,39.512 80.88,40.248 L80.88,40.248 L80.88,45 L82.192,45 L82.192,40.072 C82.192,39.0693333 82.0026667,38.312 81.624,37.8 C81.2453333,37.288 80.6453333,37.032 79.824,37.032 C79.28,37.032 78.8026667,37.1573333 78.392,37.408 C77.9813333,37.6586667 77.5893333,37.9706667 77.216,38.344 L77.216,38.344 L77.168,38.344 L77.056,37.224 L75.968,37.224 L75.968,45 L77.28,45 Z" id="$3.13trillion" fill="#666666"></path>
            </g>
            <g id="Group-5" transform="translate(68.000000, 173.000000)" fill="#555555" fill-rule="nonzero" opacity="0.5">
                <path d="M4.032,18 L4.032,13.77 L5.49,13.77 L7.74,18 L10.71,18 L8.046,13.302 C8.682,13.026 9.189,12.609 9.567,12.051 C9.945,11.493 10.134,10.782 10.134,9.918 C10.134,9.222 10.014,8.64 9.774,8.172 C9.534,7.704 9.21,7.329 8.802,7.047 C8.394,6.765 7.917,6.564 7.371,6.444 C6.825,6.324 6.24,6.264 5.616,6.264 L5.616,6.264 L1.386,6.264 L1.386,18 L4.032,18 Z M5.4,11.664 L4.032,11.664 L4.032,8.37 L5.4,8.37 C6.096,8.37 6.627,8.484 6.993,8.712 C7.359,8.94 7.542,9.342 7.542,9.918 C7.542,10.494 7.359,10.929 6.993,11.223 C6.627,11.517 6.096,11.664 5.4,11.664 L5.4,11.664 Z M21.444,18 L21.444,15.768 L16.566,15.768 L16.566,13.068 L20.562,13.068 L20.562,10.854 L16.566,10.854 L16.566,8.496 L21.264,8.496 L21.264,6.264 L13.92,6.264 L13.92,18 L21.444,18 Z M30.504,18 L34.032,6.264 L31.332,6.264 L29.946,11.736 C29.778,12.384 29.622,13.011 29.478,13.617 C29.334,14.223 29.178,14.85 29.01,15.498 L29.01,15.498 L28.938,15.498 C28.758,14.85 28.599,14.223 28.461,13.617 C28.323,13.011 28.164,12.384 27.984,11.736 L27.984,11.736 L26.58,6.264 L23.772,6.264 L27.318,18 L30.504,18 Z M44.316,18 L44.316,15.768 L39.438,15.768 L39.438,13.068 L43.434,13.068 L43.434,10.854 L39.438,10.854 L39.438,8.496 L44.136,8.496 L44.136,6.264 L36.792,6.264 L36.792,18 L44.316,18 Z M50.676,18 L50.676,13.842 C50.676,13.146 50.637,12.426 50.559,11.682 C50.481,10.938 50.412,10.242 50.352,9.594 L50.352,9.594 L50.424,9.594 L51.576,12.15 L54.636,18 L57.354,18 L57.354,6.264 L54.834,6.264 L54.834,10.404 C54.834,11.1 54.873,11.832 54.951,12.6 C55.029,13.368 55.098,14.064 55.158,14.688 L55.158,14.688 L55.086,14.688 L53.934,12.096 L50.874,6.264 L48.156,6.264 L48.156,18 L50.676,18 Z M66.252,18.216 C67.764,18.216 68.913,17.766 69.699,16.866 C70.485,15.966 70.878,14.532 70.878,12.564 L70.878,12.564 L70.878,6.264 L68.322,6.264 L68.322,12.834 C68.322,13.986 68.142,14.79 67.782,15.246 C67.422,15.702 66.912,15.93 66.252,15.93 C65.592,15.93 65.088,15.702 64.74,15.246 C64.392,14.79 64.218,13.986 64.218,12.834 L64.218,12.834 L64.218,6.264 L61.554,6.264 L61.554,12.564 C61.554,14.532 61.956,15.966 62.76,16.866 C63.564,17.766 64.728,18.216 66.252,18.216 Z M82.62,18 L82.62,15.768 L77.742,15.768 L77.742,13.068 L81.738,13.068 L81.738,10.854 L77.742,10.854 L77.742,8.496 L82.44,8.496 L82.44,6.264 L75.096,6.264 L75.096,18 L82.62,18 Z" id="REVENUE"></path>
                <path d="M4.512,40.76 L4.512,39.144 C5.28,39.0373333 5.88533333,38.7386667 6.328,38.248 C6.77066667,37.7573333 6.992,37.128 6.992,36.36 C6.992,35.784 6.88266667,35.312 6.664,34.944 C6.44533333,34.576 6.17066667,34.2666667 5.84,34.016 C5.50933333,33.7653333 5.14933333,33.552 4.76,33.376 C4.37066667,33.2 4.01066667,33.0186667 3.68,32.832 C3.34933333,32.6453333 3.07466667,32.4293333 2.856,32.184 C2.63733333,31.9386667 2.528,31.624 2.528,31.24 C2.528,30.7706667 2.672,30.3973333 2.96,30.12 C3.248,29.8426667 3.63733333,29.704 4.128,29.704 C4.56533333,29.704 4.92533333,29.784 5.208,29.944 C5.49066667,30.104 5.78133333,30.328 6.08,30.616 L6.08,30.616 L6.784,29.832 C6.496,29.5226667 6.17333333,29.256 5.816,29.032 C5.45866667,28.808 5.024,28.6693333 4.512,28.616 L4.512,28.616 L4.512,27.032 L3.552,27.032 L3.552,28.648 C2.848,28.7546667 2.28533333,29.0453333 1.864,29.52 C1.44266667,29.9946667 1.232,30.5893333 1.232,31.304 C1.232,31.8266667 1.34133333,32.256 1.56,32.592 C1.77866667,32.928 2.05333333,33.2133333 2.384,33.448 C2.71466667,33.6826667 3.07466667,33.8906667 3.464,34.072 C3.85333333,34.2533333 4.21333333,34.448 4.544,34.656 C4.87466667,34.864 5.14933333,35.1093333 5.368,35.392 C5.58666667,35.6746667 5.696,36.0293333 5.696,36.456 C5.696,36.9573333 5.54933333,37.3573333 5.256,37.656 C4.96266667,37.9546667 4.51733333,38.104 3.92,38.104 C3.42933333,38.104 2.97866667,38 2.568,37.792 C2.15733333,37.584 1.78133333,37.3306667 1.44,37.032 L1.44,37.032 L0.832,37.944 C1.17333333,38.2533333 1.584,38.5226667 2.064,38.752 C2.544,38.9813333 3.04,39.1226667 3.552,39.176 L3.552,39.176 L3.552,40.76 L4.512,40.76 Z M11.728,39.192 C12.1973333,39.192 12.6346667,39.1253333 13.04,38.992 C13.4453333,38.8586667 13.8,38.6666667 14.104,38.416 C14.408,38.1653333 14.648,37.8586667 14.824,37.496 C15,37.1333333 15.088,36.728 15.088,36.28 C15.088,35.928 15.032,35.608 14.92,35.32 C14.808,35.032 14.6506667,34.7786667 14.448,34.56 C14.2453333,34.3413333 14.0106667,34.16 13.744,34.016 C13.4773333,33.872 13.1893333,33.7626667 12.88,33.688 L12.88,33.688 L12.88,33.624 C13.4346667,33.4106667 13.8826667,33.1066667 14.224,32.712 C14.5653333,32.3173333 14.736,31.8106667 14.736,31.192 C14.736,30.776 14.6613333,30.408 14.512,30.088 C14.3626667,29.768 14.152,29.4986667 13.88,29.28 C13.608,29.0613333 13.2853333,28.8933333 12.912,28.776 C12.5386667,28.6586667 12.128,28.6 11.68,28.6 C11.072,28.6 10.5306667,28.72 10.056,28.96 C9.58133333,29.2 9.14666667,29.5066667 8.752,29.88 L8.752,29.88 L9.456,30.712 C9.76533333,30.4026667 10.0986667,30.152 10.456,29.96 C10.8133333,29.768 11.2053333,29.672 11.632,29.672 C12.176,29.672 12.6053333,29.816 12.92,30.104 C13.2346667,30.392 13.392,30.7866667 13.392,31.288 C13.392,31.5546667 13.344,31.8053333 13.248,32.04 C13.152,32.2746667 12.9893333,32.4773333 12.76,32.648 C12.5306667,32.8186667 12.232,32.952 11.864,33.048 C11.496,33.144 11.04,33.192 10.496,33.192 L10.496,33.192 L10.496,34.2 C11.104,34.2 11.616,34.248 12.032,34.344 C12.448,34.44 12.784,34.5786667 13.04,34.76 C13.296,34.9413333 13.48,35.1573333 13.592,35.408 C13.704,35.6586667 13.76,35.9333333 13.76,36.232 C13.76,36.808 13.5626667,37.264 13.168,37.6 C12.7733333,37.936 12.2666667,38.104 11.648,38.104 C11.04,38.104 10.5306667,37.9813333 10.12,37.736 C9.70933333,37.4906667 9.34933333,37.208 9.04,36.888 L9.04,36.888 L8.368,37.752 C8.53866667,37.944 8.73333333,38.1253333 8.952,38.296 C9.17066667,38.4666667 9.41866667,38.6186667 9.696,38.752 C9.97333333,38.8853333 10.28,38.992 10.616,39.072 C10.952,39.152 11.3226667,39.192 11.728,39.192 Z M17.904,39.192 C18.16,39.192 18.3813333,39.0986667 18.568,38.912 C18.7546667,38.7253333 18.848,38.488 18.848,38.2 C18.848,37.8906667 18.7546667,37.6426667 18.568,37.456 C18.3813333,37.2693333 18.16,37.176 17.904,37.176 C17.6373333,37.176 17.4106667,37.2693333 17.224,37.456 C17.0373333,37.6426667 16.944,37.8906667 16.944,38.2 C16.944,38.488 17.0373333,38.7253333 17.224,38.912 C17.4106667,39.0986667 17.6373333,39.192 17.904,39.192 Z M26,39 L26,36.184 L27.392,36.184 L27.392,35.128 L26,35.128 L26,28.792 L24.528,28.792 L20.16,35.32 L20.16,36.184 L24.752,36.184 L24.752,39 L26,39 Z M24.752,35.128 L21.552,35.128 L23.936,31.64 C24.0853333,31.3946667 24.2293333,31.1546667 24.368,30.92 C24.5066667,30.6853333 24.64,30.4453333 24.768,30.2 L24.768,30.2 L24.832,30.2 C24.8106667,30.4773333 24.792,30.8053333 24.776,31.184 C24.76,31.5626667 24.752,31.8906667 24.752,32.168 L24.752,32.168 L24.752,35.128 Z M35.072,39 L35.072,37.864 L32.112,37.864 C31.8453333,37.864 31.5626667,37.8746667 31.264,37.896 C30.9653333,37.9173333 30.6773333,37.9386667 30.4,37.96 C31.008,37.3306667 31.5653333,36.736 32.072,36.176 C32.5786667,35.616 33.016,35.0773333 33.384,34.56 C33.752,34.0426667 34.04,33.5413333 34.248,33.056 C34.456,32.5706667 34.56,32.088 34.56,31.608 C34.56,30.7013333 34.288,29.9733333 33.744,29.424 C33.2,28.8746667 32.4533333,28.6 31.504,28.6 C30.832,28.6 30.256,28.7413333 29.776,29.024 C29.296,29.3066667 28.8426667,29.6826667 28.416,30.152 L28.416,30.152 L29.168,30.904 C29.4666667,30.5626667 29.7973333,30.272 30.16,30.032 C30.5226667,29.792 30.9173333,29.672 31.344,29.672 C31.9946667,29.672 32.48,29.8586667 32.8,30.232 C33.12,30.6053333 33.28,31.0853333 33.28,31.672 C33.28,32.088 33.1733333,32.5173333 32.96,32.96 C32.7466667,33.4026667 32.4373333,33.888 32.032,34.416 C31.6266667,34.944 31.1253333,35.5173333 30.528,36.136 C29.9306667,36.7546667 29.248,37.448 28.48,38.216 L28.48,38.216 L28.48,39 L35.072,39 Z M42.752,39.192 C42.9973333,39.192 43.2453333,39.1626667 43.496,39.104 C43.7466667,39.0453333 43.9786667,38.9786667 44.192,38.904 L44.192,38.904 L43.936,37.912 C43.808,37.9653333 43.664,38.0133333 43.504,38.056 C43.344,38.0986667 43.1946667,38.12 43.056,38.12 C42.608,38.12 42.296,37.9893333 42.12,37.728 C41.944,37.4666667 41.856,37.096 41.856,36.616 L41.856,36.616 L41.856,32.296 L43.952,32.296 L43.952,31.224 L41.856,31.224 L41.856,29.048 L40.752,29.048 L40.592,31.224 L39.376,31.304 L39.376,32.296 L40.528,32.296 L40.528,36.6 C40.528,36.984 40.5653333,37.336 40.64,37.656 C40.7146667,37.976 40.84,38.248 41.016,38.472 C41.192,38.696 41.4213333,38.872 41.704,39 C41.9866667,39.128 42.336,39.192 42.752,39.192 Z M47.024,39 L47.024,34.008 C47.2906667,33.3466667 47.6026667,32.8826667 47.96,32.616 C48.3173333,32.3493333 48.6613333,32.216 48.992,32.216 C49.152,32.216 49.2853333,32.2266667 49.392,32.248 C49.4986667,32.2693333 49.616,32.3013333 49.744,32.344 L49.744,32.344 L50,31.192 C49.7546667,31.0853333 49.4773333,31.032 49.168,31.032 C48.72,31.032 48.3066667,31.176 47.928,31.464 C47.5493333,31.752 47.2266667,32.1413333 46.96,32.632 L46.96,32.632 L46.912,32.632 L46.8,31.224 L45.712,31.224 L45.712,39 L47.024,39 Z M51.936,29.624 C52.192,29.624 52.408,29.544 52.584,29.384 C52.76,29.224 52.848,29.0213333 52.848,28.776 C52.848,28.52 52.76,28.3146667 52.584,28.16 C52.408,28.0053333 52.192,27.928 51.936,27.928 C51.68,27.928 51.464,28.0053333 51.288,28.16 C51.112,28.3146667 51.024,28.52 51.024,28.776 C51.024,29.0213333 51.112,29.224 51.288,29.384 C51.464,29.544 51.68,29.624 51.936,29.624 Z M52.576,39 L52.576,31.224 L51.264,31.224 L51.264,39 L52.576,39 Z M56.592,39.192 C56.7733333,39.192 56.9226667,39.1813333 57.04,39.16 C57.1573333,39.1386667 57.2586667,39.1066667 57.344,39.064 L57.344,39.064 L57.168,38.072 C57.0933333,38.0933333 57.0373333,38.104 57,38.104 L57,38.104 L56.88,38.104 C56.784,38.104 56.6986667,38.0613333 56.624,37.976 C56.5493333,37.8906667 56.512,37.7413333 56.512,37.528 L56.512,37.528 L56.512,27.608 L55.2,27.608 L55.2,37.432 C55.2,38.008 55.3066667,38.4453333 55.52,38.744 C55.7333333,39.0426667 56.0906667,39.192 56.592,39.192 Z M60.672,39.192 C60.8533333,39.192 61.0026667,39.1813333 61.12,39.16 C61.2373333,39.1386667 61.3386667,39.1066667 61.424,39.064 L61.424,39.064 L61.248,38.072 C61.1733333,38.0933333 61.1173333,38.104 61.08,38.104 L61.08,38.104 L60.96,38.104 C60.864,38.104 60.7786667,38.0613333 60.704,37.976 C60.6293333,37.8906667 60.592,37.7413333 60.592,37.528 L60.592,37.528 L60.592,27.608 L59.28,27.608 L59.28,37.432 C59.28,38.008 59.3866667,38.4453333 59.6,38.744 C59.8133333,39.0426667 60.1706667,39.192 60.672,39.192 Z M64.032,29.624 C64.288,29.624 64.504,29.544 64.68,29.384 C64.856,29.224 64.944,29.0213333 64.944,28.776 C64.944,28.52 64.856,28.3146667 64.68,28.16 C64.504,28.0053333 64.288,27.928 64.032,27.928 C63.776,27.928 63.56,28.0053333 63.384,28.16 C63.208,28.3146667 63.12,28.52 63.12,28.776 C63.12,29.0213333 63.208,29.224 63.384,29.384 C63.56,29.544 63.776,29.624 64.032,29.624 Z M64.672,39 L64.672,31.224 L63.36,31.224 L63.36,39 L64.672,39 Z M70.32,39.192 C70.8,39.192 71.256,39.1013333 71.688,38.92 C72.12,38.7386667 72.5013333,38.4746667 72.832,38.128 C73.1626667,37.7813333 73.4266667,37.3546667 73.624,36.848 C73.8213333,36.3413333 73.92,35.768 73.92,35.128 C73.92,34.4773333 73.8213333,33.8986667 73.624,33.392 C73.4266667,32.8853333 73.1626667,32.456 72.832,32.104 C72.5013333,31.752 72.12,31.4853333 71.688,31.304 C71.256,31.1226667 70.8,31.032 70.32,31.032 C69.84,31.032 69.384,31.1226667 68.952,31.304 C68.52,31.4853333 68.1386667,31.752 67.808,32.104 C67.4773333,32.456 67.2133333,32.8853333 67.016,33.392 C66.8186667,33.8986667 66.72,34.4773333 66.72,35.128 C66.72,35.768 66.8186667,36.3413333 67.016,36.848 C67.2133333,37.3546667 67.4773333,37.7813333 67.808,38.128 C68.1386667,38.4746667 68.52,38.7386667 68.952,38.92 C69.384,39.1013333 69.84,39.192 70.32,39.192 Z M70.32,38.104 C69.9893333,38.104 69.6853333,38.032 69.408,37.888 C69.1306667,37.744 68.8933333,37.5413333 68.696,37.28 C68.4986667,37.0186667 68.3466667,36.7066667 68.24,36.344 C68.1333333,35.9813333 68.08,35.576 68.08,35.128 C68.08,34.68 68.1333333,34.272 68.24,33.904 C68.3466667,33.536 68.4986667,33.2186667 68.696,32.952 C68.8933333,32.6853333 69.1306667,32.48 69.408,32.336 C69.6853333,32.192 69.9893333,32.12 70.32,32.12 C70.6506667,32.12 70.9546667,32.192 71.232,32.336 C71.5093333,32.48 71.7466667,32.6853333 71.944,32.952 C72.1413333,33.2186667 72.2933333,33.536 72.4,33.904 C72.5066667,34.272 72.56,34.68 72.56,35.128 C72.56,35.576 72.5066667,35.9813333 72.4,36.344 C72.2933333,36.7066667 72.1413333,37.0186667 71.944,37.28 C71.7466667,37.5413333 71.5093333,37.744 71.232,37.888 C70.9546667,38.032 70.6506667,38.104 70.32,38.104 Z M77.28,39 L77.28,33.368 C77.6746667,32.9733333 78.0266667,32.6746667 78.336,32.472 C78.6453333,32.2693333 79.0026667,32.168 79.408,32.168 C79.92,32.168 80.2933333,32.3306667 80.528,32.656 C80.7626667,32.9813333 80.88,33.512 80.88,34.248 L80.88,34.248 L80.88,39 L82.192,39 L82.192,34.072 C82.192,33.0693333 82.0026667,32.312 81.624,31.8 C81.2453333,31.288 80.6453333,31.032 79.824,31.032 C79.28,31.032 78.8026667,31.1573333 78.392,31.408 C77.9813333,31.6586667 77.5893333,31.9706667 77.216,32.344 L77.216,32.344 L77.168,32.344 L77.056,31.224 L75.968,31.224 L75.968,39 L77.28,39 Z" id="$3.42trillion"></path>
            </g>
        </g>
        <path d="M188.251364,49 L194.884483,54.9620641 L188.261118,61.129858 L187.238882,60.0321173 L191.774,55.807 L177,55.8077943 L177,54.3077943 L191.913,54.307 L187.248636,50.1155885 L188.251364,49 Z" id="Combined-Shape" fill="#AB4A16" fill-rule="nonzero"></path>
    </g>
</svg>