<?xml version="1.0" encoding="UTF-8"?>
<svg width="292px" height="83px" viewBox="0 0 292 83" version="1.1" xmlns="http://www.w3.org/2000/svg" xmlns:xlink="http://www.w3.org/1999/xlink">
    <title>anecdote-deficit-3</title>
    <g id="02.-Anecdote-Cards" stroke="none" stroke-width="1" fill="none" fill-rule="evenodd">
        <g id="Anecdote-Cards-(Desktop/Tablet)---SVG" transform="translate(-1134.000000, -1612.000000)">
            <g id="anecdote-deficit-3" transform="translate(1134.000000, 1612.000000)">
                <path d="M9.572,49.52 L9.572,46.224 C11.172,45.9253333 12.3986667,45.2586667 13.252,44.224 C14.1053333,43.1893333 14.532,41.904 14.532,40.368 C14.532,39.3013333 14.3186667,38.4106667 13.892,37.696 C13.4653333,36.9813333 12.9266667,36.3786667 12.276,35.888 C11.6253333,35.3973333 10.9266667,34.976 10.18,34.624 C9.43333333,34.272 8.73466667,33.92 8.084,33.568 C7.43333333,33.216 6.89466667,32.832 6.468,32.416 C6.04133333,32 5.828,31.472 5.828,30.832 C5.828,30 6.07333333,29.3653333 6.564,28.928 C7.05466667,28.4906667 7.73733333,28.272 8.612,28.272 C9.38,28.272 10.0413333,28.416 10.596,28.704 C11.1506667,28.992 11.7266667,29.4133333 12.324,29.968 L12.324,29.968 L14.212,27.824 C13.6146667,27.2053333 12.948,26.6666667 12.212,26.208 C11.476,25.7493333 10.596,25.456 9.572,25.328 L9.572,25.328 L9.572,22.128 L7.012,22.128 L7.012,25.392 C5.56133333,25.648 4.40933333,26.272 3.556,27.264 C2.70266667,28.256 2.276,29.4986667 2.276,30.992 C2.276,31.9946667 2.48933333,32.832 2.916,33.504 C3.34266667,34.176 3.88133333,34.752 4.532,35.232 C5.18266667,35.712 5.88133333,36.128 6.628,36.48 C7.37466667,36.832 8.07333333,37.2 8.724,37.584 C9.37466667,37.968 9.91333333,38.3946667 10.34,38.864 C10.7666667,39.3333333 10.98,39.92 10.98,40.624 C10.98,41.4986667 10.724,42.176 10.212,42.656 C9.7,43.136 8.92133333,43.376 7.876,43.376 C7.00133333,43.376 6.18,43.1946667 5.412,42.832 C4.644,42.4693333 3.88666667,41.9893333 3.14,41.392 L3.14,41.392 L1.476,43.888 C2.20133333,44.5706667 3.06,45.12 4.052,45.536 C5.044,45.952 6.03066667,46.2133333 7.012,46.32 L7.012,46.32 L7.012,49.52 L9.572,49.52 Z M24.164,46.384 C25.1026667,46.384 26.004,46.2293333 26.868,45.92 C27.732,45.6106667 28.4946667,45.1573333 29.156,44.56 C29.8173333,43.9626667 30.3453333,43.2266667 30.74,42.352 C31.1346667,41.4773333 31.332,40.4853333 31.332,39.376 C31.332,38.288 31.1613333,37.344 30.82,36.544 C30.4786667,35.744 30.02,35.0826667 29.444,34.56 C28.868,34.0373333 28.1906667,33.648 27.412,33.392 C26.6333333,33.136 25.8066667,33.008 24.932,33.008 C24.3986667,33.008 23.924,33.0666667 23.508,33.184 C23.092,33.3013333 22.6706667,33.4666667 22.244,33.68 L22.244,33.68 L22.66,28.752 L30.34,28.752 L30.34,25.648 L19.46,25.648 L18.852,35.696 L20.612,36.816 C21.2306667,36.4106667 21.764,36.1173333 22.212,35.936 C22.66,35.7546667 23.2146667,35.664 23.876,35.664 C25.0066667,35.664 25.9133333,35.9946667 26.596,36.656 C27.2786667,37.3173333 27.62,38.256 27.62,39.472 C27.62,40.7093333 27.252,41.6693333 26.516,42.352 C25.78,43.0346667 24.836,43.376 23.684,43.376 C22.66,43.376 21.764,43.1573333 20.996,42.72 C20.228,42.2826667 19.5346667,41.776 18.916,41.2 L18.916,41.2 L17.22,43.568 C17.9666667,44.3146667 18.9,44.9706667 20.02,45.536 C21.14,46.1013333 22.5213333,46.384 24.164,46.384 Z M35.172,51.824 C36.772,51.2693333 38.004,50.416 38.868,49.264 C39.732,48.112 40.164,46.7466667 40.164,45.168 C40.164,43.9733333 39.924,43.0453333 39.444,42.384 C38.964,41.7226667 38.2866667,41.392 37.412,41.392 C36.7293333,41.392 36.148,41.6 35.668,42.016 C35.188,42.432 34.948,42.9813333 34.948,43.664 C34.948,44.3893333 35.188,44.9493333 35.668,45.344 C36.148,45.7386667 36.6973333,45.936 37.316,45.936 L37.316,45.936 L37.604,45.936 C37.6253333,46.7466667 37.3533333,47.4933333 36.788,48.176 C36.2226667,48.8586667 35.4173333,49.4026667 34.372,49.808 L34.372,49.808 L35.172,51.824 Z M48.612,46.384 C49.6573333,46.384 50.6653333,46.1706667 51.636,45.744 C52.6066667,45.3173333 53.46,44.6506667 54.196,43.744 C54.932,42.8373333 55.5186667,41.68 55.956,40.272 C56.3933333,38.864 56.612,37.168 56.612,35.184 C56.612,33.4773333 56.4146667,32 56.02,30.752 C55.6253333,29.504 55.092,28.4746667 54.42,27.664 C53.748,26.8533333 52.964,26.2506667 52.068,25.856 C51.172,25.4613333 50.2333333,25.264 49.252,25.264 C48.3773333,25.264 47.5506667,25.4186667 46.772,25.728 C45.9933333,26.0373333 45.316,26.48 44.74,27.056 C44.164,27.632 43.7053333,28.3306667 43.364,29.152 C43.0226667,29.9733333 42.852,30.896 42.852,31.92 C42.852,32.9866667 42.996,33.9146667 43.284,34.704 C43.572,35.4933333 43.9773333,36.1493333 44.5,36.672 C45.0226667,37.1946667 45.6466667,37.584 46.372,37.84 C47.0973333,38.096 47.8973333,38.224 48.772,38.224 C49.5186667,38.224 50.2973333,38.016 51.108,37.6 C51.9186667,37.184 52.6226667,36.6026667 53.22,35.856 C53.1773333,37.264 53.0226667,38.448 52.756,39.408 C52.4893333,40.368 52.1426667,41.1413333 51.716,41.728 C51.2893333,42.3146667 50.7933333,42.736 50.228,42.992 C49.6626667,43.248 49.06,43.376 48.42,43.376 C47.8013333,43.376 47.1986667,43.232 46.612,42.944 C46.0253333,42.656 45.54,42.288 45.156,41.84 L45.156,41.84 L43.172,44.08 C43.7906667,44.72 44.548,45.264 45.444,45.712 C46.34,46.16 47.396,46.384 48.612,46.384 Z M49.476,35.568 C48.452,35.568 47.6573333,35.264 47.092,34.656 C46.5266667,34.048 46.244,33.136 46.244,31.92 C46.244,30.6826667 46.5426667,29.7333333 47.14,29.072 C47.7373333,28.4106667 48.452,28.08 49.284,28.08 C50.2653333,28.08 51.1026667,28.4853333 51.796,29.296 C52.4893333,30.1066667 52.932,31.408 53.124,33.2 C52.5906667,34.032 51.9986667,34.6346667 51.348,35.008 C50.6973333,35.3813333 50.0733333,35.568 49.476,35.568 Z M66.276,46.384 C68.4093333,46.384 70.0946667,45.472 71.332,43.648 C72.5693333,41.824 73.188,39.184 73.188,35.728 C73.188,32.2933333 72.5693333,29.6906667 71.332,27.92 C70.0946667,26.1493333 68.4093333,25.264 66.276,25.264 C64.1426667,25.264 62.4573333,26.144 61.22,27.904 C59.9826667,29.664 59.364,32.272 59.364,35.728 C59.364,39.184 59.9826667,41.824 61.22,43.648 C62.4573333,45.472 64.1426667,46.384 66.276,46.384 Z M66.276,43.504 C65.7853333,43.504 65.332,43.3706667 64.916,43.104 C64.5,42.8373333 64.1426667,42.3946667 63.844,41.776 C63.5453333,41.1573333 63.3106667,40.3573333 63.14,39.376 C62.9693333,38.3946667 62.884,37.1786667 62.884,35.728 C62.884,34.2986667 62.9693333,33.0986667 63.14,32.128 C63.3106667,31.1573333 63.5453333,30.3733333 63.844,29.776 C64.1426667,29.1786667 64.5,28.7573333 64.916,28.512 C65.332,28.2666667 65.7853333,28.144 66.276,28.144 C66.7666667,28.144 67.22,28.2666667 67.636,28.512 C68.052,28.7573333 68.4093333,29.1786667 68.708,29.776 C69.0066667,30.3733333 69.2413333,31.1573333 69.412,32.128 C69.5826667,33.0986667 69.668,34.2986667 69.668,35.728 C69.668,37.1786667 69.5826667,38.3946667 69.412,39.376 C69.2413333,40.3573333 69.0066667,41.1573333 68.708,41.776 C68.4093333,42.3946667 68.052,42.8373333 67.636,43.104 C67.22,43.3706667 66.7666667,43.504 66.276,43.504 Z M82.692,46.384 C84.8253333,46.384 86.5106667,45.472 87.748,43.648 C88.9853333,41.824 89.604,39.184 89.604,35.728 C89.604,32.2933333 88.9853333,29.6906667 87.748,27.92 C86.5106667,26.1493333 84.8253333,25.264 82.692,25.264 C80.5586667,25.264 78.8733333,26.144 77.636,27.904 C76.3986667,29.664 75.78,32.272 75.78,35.728 C75.78,39.184 76.3986667,41.824 77.636,43.648 C78.8733333,45.472 80.5586667,46.384 82.692,46.384 Z M82.692,43.504 C82.2013333,43.504 81.748,43.3706667 81.332,43.104 C80.916,42.8373333 80.5586667,42.3946667 80.26,41.776 C79.9613333,41.1573333 79.7266667,40.3573333 79.556,39.376 C79.3853333,38.3946667 79.3,37.1786667 79.3,35.728 C79.3,34.2986667 79.3853333,33.0986667 79.556,32.128 C79.7266667,31.1573333 79.9613333,30.3733333 80.26,29.776 C80.5586667,29.1786667 80.916,28.7573333 81.332,28.512 C81.748,28.2666667 82.2013333,28.144 82.692,28.144 C83.1826667,28.144 83.636,28.2666667 84.052,28.512 C84.468,28.7573333 84.8253333,29.1786667 85.124,29.776 C85.4226667,30.3733333 85.6573333,31.1573333 85.828,32.128 C85.9986667,33.0986667 86.084,34.2986667 86.084,35.728 C86.084,37.1786667 85.9986667,38.3946667 85.828,39.376 C85.6573333,40.3573333 85.4226667,41.1573333 85.124,41.776 C84.8253333,42.3946667 84.468,42.8373333 84.052,43.104 C83.636,43.3706667 83.1826667,43.504 82.692,43.504 Z M93.22,51.824 C94.82,51.2693333 96.052,50.416 96.916,49.264 C97.78,48.112 98.212,46.7466667 98.212,45.168 C98.212,43.9733333 97.972,43.0453333 97.492,42.384 C97.012,41.7226667 96.3346667,41.392 95.46,41.392 C94.7773333,41.392 94.196,41.6 93.716,42.016 C93.236,42.432 92.996,42.9813333 92.996,43.664 C92.996,44.3893333 93.236,44.9493333 93.716,45.344 C94.196,45.7386667 94.7453333,45.936 95.364,45.936 L95.364,45.936 L95.652,45.936 C95.6733333,46.7466667 95.4013333,47.4933333 94.836,48.176 C94.2706667,48.8586667 93.4653333,49.4026667 92.42,49.808 L92.42,49.808 L93.22,51.824 Z M107.908,46.384 C110.041333,46.384 111.726667,45.472 112.964,43.648 C114.201333,41.824 114.82,39.184 114.82,35.728 C114.82,32.2933333 114.201333,29.6906667 112.964,27.92 C111.726667,26.1493333 110.041333,25.264 107.908,25.264 C105.774667,25.264 104.089333,26.144 102.852,27.904 C101.614667,29.664 100.996,32.272 100.996,35.728 C100.996,39.184 101.614667,41.824 102.852,43.648 C104.089333,45.472 105.774667,46.384 107.908,46.384 Z M107.908,43.504 C107.417333,43.504 106.964,43.3706667 106.548,43.104 C106.132,42.8373333 105.774667,42.3946667 105.476,41.776 C105.177333,41.1573333 104.942667,40.3573333 104.772,39.376 C104.601333,38.3946667 104.516,37.1786667 104.516,35.728 C104.516,34.2986667 104.601333,33.0986667 104.772,32.128 C104.942667,31.1573333 105.177333,30.3733333 105.476,29.776 C105.774667,29.1786667 106.132,28.7573333 106.548,28.512 C106.964,28.2666667 107.417333,28.144 107.908,28.144 C108.398667,28.144 108.852,28.2666667 109.268,28.512 C109.684,28.7573333 110.041333,29.1786667 110.34,29.776 C110.638667,30.3733333 110.873333,31.1573333 111.044,32.128 C111.214667,33.0986667 111.3,34.2986667 111.3,35.728 C111.3,37.1786667 111.214667,38.3946667 111.044,39.376 C110.873333,40.3573333 110.638667,41.1573333 110.34,41.776 C110.041333,42.3946667 109.684,42.8373333 109.268,43.104 C108.852,43.3706667 108.398667,43.504 107.908,43.504 Z M124.324,46.384 C126.457333,46.384 128.142667,45.472 129.38,43.648 C130.617333,41.824 131.236,39.184 131.236,35.728 C131.236,32.2933333 130.617333,29.6906667 129.38,27.92 C128.142667,26.1493333 126.457333,25.264 124.324,25.264 C122.190667,25.264 120.505333,26.144 119.268,27.904 C118.030667,29.664 117.412,32.272 117.412,35.728 C117.412,39.184 118.030667,41.824 119.268,43.648 C120.505333,45.472 122.190667,46.384 124.324,46.384 Z M124.324,43.504 C123.833333,43.504 123.38,43.3706667 122.964,43.104 C122.548,42.8373333 122.190667,42.3946667 121.892,41.776 C121.593333,41.1573333 121.358667,40.3573333 121.188,39.376 C121.017333,38.3946667 120.932,37.1786667 120.932,35.728 C120.932,34.2986667 121.017333,33.0986667 121.188,32.128 C121.358667,31.1573333 121.593333,30.3733333 121.892,29.776 C122.190667,29.1786667 122.548,28.7573333 122.964,28.512 C123.38,28.2666667 123.833333,28.144 124.324,28.144 C124.814667,28.144 125.268,28.2666667 125.684,28.512 C126.1,28.7573333 126.457333,29.1786667 126.756,29.776 C127.054667,30.3733333 127.289333,31.1573333 127.46,32.128 C127.630667,33.0986667 127.716,34.2986667 127.716,35.728 C127.716,37.1786667 127.630667,38.3946667 127.46,39.376 C127.289333,40.3573333 127.054667,41.1573333 126.756,41.776 C126.457333,42.3946667 126.1,42.8373333 125.684,43.104 C125.268,43.3706667 124.814667,43.504 124.324,43.504 Z M140.74,46.384 C142.873333,46.384 144.558667,45.472 145.796,43.648 C147.033333,41.824 147.652,39.184 147.652,35.728 C147.652,32.2933333 147.033333,29.6906667 145.796,27.92 C144.558667,26.1493333 142.873333,25.264 140.74,25.264 C138.606667,25.264 136.921333,26.144 135.684,27.904 C134.446667,29.664 133.828,32.272 133.828,35.728 C133.828,39.184 134.446667,41.824 135.684,43.648 C136.921333,45.472 138.606667,46.384 140.74,46.384 Z M140.74,43.504 C140.249333,43.504 139.796,43.3706667 139.38,43.104 C138.964,42.8373333 138.606667,42.3946667 138.308,41.776 C138.009333,41.1573333 137.774667,40.3573333 137.604,39.376 C137.433333,38.3946667 137.348,37.1786667 137.348,35.728 C137.348,34.2986667 137.433333,33.0986667 137.604,32.128 C137.774667,31.1573333 138.009333,30.3733333 138.308,29.776 C138.606667,29.1786667 138.964,28.7573333 139.38,28.512 C139.796,28.2666667 140.249333,28.144 140.74,28.144 C141.230667,28.144 141.684,28.2666667 142.1,28.512 C142.516,28.7573333 142.873333,29.1786667 143.172,29.776 C143.470667,30.3733333 143.705333,31.1573333 143.876,32.128 C144.046667,33.0986667 144.132,34.2986667 144.132,35.728 C144.132,37.1786667 144.046667,38.3946667 143.876,39.376 C143.705333,40.3573333 143.470667,41.1573333 143.172,41.776 C142.873333,42.3946667 142.516,42.8373333 142.1,43.104 C141.684,43.3706667 141.230667,43.504 140.74,43.504 Z" id="$5,900,000" fill="#B3532D" fill-rule="nonzero"></path>
                <g id="Group-10" transform="translate(187.000000, 0.000000)">
                    <g id="Group-32" transform="translate(23.000000, 0.000000)">
                        <path d="M27.9922136,62.5894092 C12.7555566,62.5894092 0.405967401,50.6604354 0.405967401,35.9454923 C0.405967401,21.2305491 12.7555566,9.30157536 27.9922136,9.30157536" id="Stroke-3" stroke="#B3532D" stroke-width="3" stroke-linejoin="round"></path>
                        <path d="M44.84192,56.5492 C42.66592,58.0152 40.2317867,59.1652 37.61632,59.9292" id="Stroke-7" stroke="#B3532D" stroke-width="3" stroke-linejoin="round"></path>
                        <path d="M53.916,46.6041 C52.896,48.912 51.6048889,51.05085 50.0915556,52.9692" id="Stroke-11" stroke="#B3532D" stroke-width="3" stroke-linejoin="round"></path>
                        <path d="M57.029875,36.0383333 C56.939875,37.6764286 56.719375,39.2811905 56.377375,40.8335714" id="Stroke-15" stroke="#B3532D" stroke-width="3" stroke-linejoin="round"></path>
                        <path d="M57.324875,35.64995 C57.324875,36.1742 57.309125,36.69395 57.279875,37.21145" id="Stroke-19" stroke="#B3532D" stroke-width="3" stroke-linejoin="round"></path>
                        <path d="M55.87315,28.179 C56.2489,29.253 56.5414,30.359 56.7439,31.493" id="Stroke-23" stroke="#B3532D" stroke-width="3" stroke-linejoin="round"></path>
                        <path d="M52.878175,21.55128 C53.397925,22.41768 53.872675,23.31288 54.304675,24.23928" id="Stroke-27" stroke="#B3532D" stroke-width="3" stroke-linejoin="round"></path>
                        <polygon id="Fill-29" fill="#B3532D" points="39.7763784 6.18605 32.8666752 11.06105 25.9545654 15.9382167 24.7199162 8.11221667 23.4828604 0.286216667 31.6296194 3.23721667"></polygon>
                    </g>
                    <path d="M45.276,40 L45.276,38.496 L43.276,38.496 L43.276,29.824 L41.9,29.824 C41.58,30.016 41.236,30.1786667 40.868,30.312 C40.5,30.4453333 40.06,30.56 39.548,30.656 L39.548,30.656 L39.548,31.808 L41.42,31.808 L41.42,38.496 L39.148,38.496 L39.148,40 L45.276,40 Z M50.54,40 L50.54,35.776 C51.076,35.176 51.564,34.876 52.004,34.876 C52.38,34.876 52.656,34.998 52.832,35.242 C53.008,35.486 53.096,35.884 53.096,36.436 L53.096,36.436 L53.096,40 L54.08,40 L54.08,35.776 C54.616,35.176 55.104,34.876 55.544,34.876 C55.912,34.876 56.184,34.998 56.36,35.242 C56.536,35.486 56.624,35.884 56.624,36.436 L56.624,36.436 L56.624,40 L57.608,40 L57.608,36.304 C57.608,35.552 57.462,34.984 57.17,34.6 C56.878,34.216 56.432,34.024 55.832,34.024 C55.472,34.024 55.138,34.126 54.83,34.33 C54.522,34.534 54.216,34.804 53.912,35.14 C53.792,34.788 53.606,34.514 53.354,34.318 C53.102,34.122 52.752,34.024 52.304,34.024 C51.952,34.024 51.626,34.118 51.326,34.306 C51.026,34.494 50.748,34.728 50.492,35.008 L50.492,35.008 L50.456,35.008 L50.372,34.168 L49.556,34.168 L49.556,40 L50.54,40 Z M60.008,32.968 C60.2,32.968 60.362,32.908 60.494,32.788 C60.626,32.668 60.692,32.516 60.692,32.332 C60.692,32.14 60.626,31.986 60.494,31.87 C60.362,31.754 60.2,31.696 60.008,31.696 C59.816,31.696 59.654,31.754 59.522,31.87 C59.39,31.986 59.324,32.14 59.324,32.332 C59.324,32.516 59.39,32.668 59.522,32.788 C59.654,32.908 59.816,32.968 60.008,32.968 Z M60.488,40 L60.488,34.168 L59.504,34.168 L59.504,40 L60.488,40 Z M63.44,40 L63.44,35.776 C63.736,35.48 64,35.256 64.232,35.104 C64.464,34.952 64.732,34.876 65.036,34.876 C65.42,34.876 65.7,34.998 65.876,35.242 C66.052,35.486 66.14,35.884 66.14,36.436 L66.14,36.436 L66.14,40 L67.124,40 L67.124,36.304 C67.124,35.552 66.982,34.984 66.698,34.6 C66.414,34.216 65.964,34.024 65.348,34.024 C64.94,34.024 64.582,34.118 64.274,34.306 C63.966,34.494 63.672,34.728 63.392,35.008 L63.392,35.008 L63.356,35.008 L63.272,34.168 L62.456,34.168 L62.456,40 L63.44,40 Z" id="1min" fill="#666666" fill-rule="nonzero"></path>
                    <rect id="Rectangle" fill="#B3532D" fill-rule="nonzero" x="0" y="55" width="105" height="28"></rect>
                    <path d="M20.8725,75 L20.8725,71.4 L22.2825,71.4 C22.8125,71.4 23.305,71.3375 23.76,71.2125 C24.215,71.0875 24.61,70.8925 24.945,70.6275 C25.28,70.3625 25.5425,70.03 25.7325,69.63 C25.9225,69.23 26.0175,68.76 26.0175,68.22 C26.0175,67.65 25.9225,67.1725 25.7325,66.7875 C25.5425,66.4025 25.2775,66.09 24.9375,65.85 C24.5975,65.61 24.195,65.44 23.73,65.34 C23.265,65.24 22.7625,65.19 22.2225,65.19 L22.2225,65.19 L19.1325,65.19 L19.1325,75 L20.8725,75 Z M22.1475,70.005 L20.8725,70.005 L20.8725,66.585 L22.0875,66.585 C22.8175,66.585 23.37,66.7025 23.745,66.9375 C24.12,67.1725 24.3075,67.6 24.3075,68.22 C24.3075,69.41 23.5875,70.005 22.1475,70.005 L22.1475,70.005 Z M30.5325,75.18 C31.0025,75.18 31.4525,75.105 31.8825,74.955 C32.3125,74.805 32.7025,74.615 33.0525,74.385 L33.0525,74.385 L32.4675,73.305 C32.1975,73.475 31.925,73.6075 31.65,73.7025 C31.375,73.7975 31.0775,73.845 30.7575,73.845 C30.1575,73.845 29.665,73.6675 29.28,73.3125 C28.895,72.9575 28.6625,72.45 28.5825,71.79 L28.5825,71.79 L33.2625,71.79 C33.2825,71.7 33.3,71.58 33.315,71.43 C33.33,71.28 33.3375,71.12 33.3375,70.95 C33.3375,70.44 33.2725,69.97 33.1425,69.54 C33.0125,69.11 32.82,68.74 32.565,68.43 C32.31,68.12 31.9925,67.88 31.6125,67.71 C31.2325,67.54 30.7925,67.455 30.2925,67.455 C29.8625,67.455 29.4425,67.545 29.0325,67.725 C28.6225,67.905 28.26,68.16 27.945,68.49 C27.63,68.82 27.3775,69.225 27.1875,69.705 C26.9975,70.185 26.9025,70.725 26.9025,71.325 C26.9025,71.935 26.995,72.4775 27.18,72.9525 C27.365,73.4275 27.6225,73.83 27.9525,74.16 C28.2825,74.49 28.6675,74.7425 29.1075,74.9175 C29.5475,75.0925 30.0225,75.18 30.5325,75.18 Z M31.8375,70.62 L28.5675,70.62 C28.6475,70.02 28.8525,69.565 29.1825,69.255 C29.5125,68.945 29.8975,68.79 30.3375,68.79 C30.8475,68.79 31.225,68.9525 31.47,69.2775 C31.715,69.6025 31.8375,70.05 31.8375,70.62 L31.8375,70.62 Z M36.7125,75 L36.7125,70.5 C36.9425,69.94 37.2175,69.5475 37.5375,69.3225 C37.8575,69.0975 38.1625,68.985 38.4525,68.985 C38.6125,68.985 38.7475,68.995 38.8575,69.015 C38.9675,69.035 39.0875,69.065 39.2175,69.105 L39.2175,69.105 L39.5175,67.605 C39.3075,67.505 39.0275,67.455 38.6775,67.455 C38.2875,67.455 37.9075,67.5825 37.5375,67.8375 C37.1675,68.0925 36.8525,68.46 36.5925,68.94 L36.5925,68.94 L36.5325,68.94 L36.4125,67.635 L34.9875,67.635 L34.9875,75 L36.7125,75 Z M45.3075,75 L45.3075,70.515 C45.3075,70.285 45.3,70.035 45.285,69.765 C45.27,69.495 45.25,69.2225 45.225,68.9475 C45.2,68.6725 45.175,68.4025 45.15,68.1375 C45.125,67.8725 45.1025,67.625 45.0825,67.395 L45.0825,67.395 L45.1425,67.395 L45.9225,69.675 L47.5425,74.085 L48.5775,74.085 L50.1825,69.675 L50.9775,67.395 L51.0375,67.395 C51.0175,67.625 50.9925,67.8725 50.9625,68.1375 C50.9325,68.4025 50.9075,68.6725 50.8875,68.9475 C50.8675,69.2225 50.85,69.495 50.835,69.765 C50.82,70.035 50.8125,70.285 50.8125,70.515 L50.8125,70.515 L50.8125,75 L52.4175,75 L52.4175,65.19 L50.4375,65.19 L48.7425,69.99 C48.6325,70.3 48.53,70.6175 48.435,70.9425 C48.34,71.2675 48.2375,71.59 48.1275,71.91 L48.1275,71.91 L48.0675,71.91 C47.9575,71.59 47.8525,71.2675 47.7525,70.9425 C47.6525,70.6175 47.5475,70.3 47.4375,69.99 L47.4375,69.99 L45.6975,65.19 L43.7325,65.19 L43.7325,75 L45.3075,75 Z M55.6275,66.345 C55.9375,66.345 56.1925,66.255 56.3925,66.075 C56.5925,65.895 56.6925,65.66 56.6925,65.37 C56.6925,65.08 56.5925,64.8425 56.3925,64.6575 C56.1925,64.4725 55.9375,64.38 55.6275,64.38 C55.3175,64.38 55.0625,64.4725 54.8625,64.6575 C54.6625,64.8425 54.5625,65.08 54.5625,65.37 C54.5625,65.66 54.6625,65.895 54.8625,66.075 C55.0625,66.255 55.3175,66.345 55.6275,66.345 Z M56.4825,75 L56.4825,67.635 L54.7575,67.635 L54.7575,75 L56.4825,75 Z M60.4125,75 L60.4125,69.855 C60.7225,69.555 61,69.3275 61.245,69.1725 C61.49,69.0175 61.7725,68.94 62.0925,68.94 C62.5025,68.94 62.7975,69.065 62.9775,69.315 C63.1575,69.565 63.2475,69.995 63.2475,70.605 L63.2475,70.605 L63.2475,75 L64.9725,75 L64.9725,70.38 C64.9725,69.44 64.7925,68.7175 64.4325,68.2125 C64.0725,67.7075 63.4975,67.455 62.7075,67.455 C62.1975,67.455 61.75,67.57 61.365,67.8 C60.98,68.03 60.6225,68.305 60.2925,68.625 L60.2925,68.625 L60.2325,68.625 L60.1125,67.635 L58.6875,67.635 L58.6875,75 L60.4125,75 Z M69.2775,75.18 C69.7875,75.18 70.23,75.065 70.605,74.835 C70.98,74.605 71.3275,74.3 71.6475,73.92 L71.6475,73.92 L71.6925,73.92 L71.8275,75 L73.2375,75 L73.2375,67.635 L71.5125,67.635 L71.5125,72.675 C71.2325,73.035 70.97,73.295 70.725,73.455 C70.48,73.615 70.1975,73.695 69.8775,73.695 C69.4775,73.695 69.1875,73.57 69.0075,73.32 C68.8275,73.07 68.7375,72.64 68.7375,72.03 L68.7375,72.03 L68.7375,67.635 L67.0125,67.635 L67.0125,72.255 C67.0125,73.195 67.1925,73.9175 67.5525,74.4225 C67.9125,74.9275 68.4875,75.18 69.2775,75.18 Z M78.0225,75.18 C78.3125,75.18 78.585,75.1525 78.84,75.0975 C79.095,75.0425 79.3225,74.98 79.5225,74.91 L79.5225,74.91 L79.2225,73.635 C79.1125,73.685 78.99,73.725 78.855,73.755 C78.72,73.785 78.5875,73.8 78.4575,73.8 C77.7675,73.8 77.4225,73.37 77.4225,72.51 L77.4225,72.51 L77.4225,69 L79.2975,69 L79.2975,67.635 L77.4225,67.635 L77.4225,65.625 L75.9825,65.625 L75.7725,67.635 L74.6325,67.71 L74.6325,69 L75.6825,69 L75.6825,72.51 C75.6825,72.91 75.725,73.2725 75.81,73.5975 C75.895,73.9225 76.03,74.2025 76.215,74.4375 C76.4,74.6725 76.64,74.855 76.935,74.985 C77.23,75.115 77.5925,75.18 78.0225,75.18 Z M83.7525,75.18 C84.2225,75.18 84.6725,75.105 85.1025,74.955 C85.5325,74.805 85.9225,74.615 86.2725,74.385 L86.2725,74.385 L85.6875,73.305 C85.4175,73.475 85.145,73.6075 84.87,73.7025 C84.595,73.7975 84.2975,73.845 83.9775,73.845 C83.3775,73.845 82.885,73.6675 82.5,73.3125 C82.115,72.9575 81.8825,72.45 81.8025,71.79 L81.8025,71.79 L86.4825,71.79 C86.5025,71.7 86.52,71.58 86.535,71.43 C86.55,71.28 86.5575,71.12 86.5575,70.95 C86.5575,70.44 86.4925,69.97 86.3625,69.54 C86.2325,69.11 86.04,68.74 85.785,68.43 C85.53,68.12 85.2125,67.88 84.8325,67.71 C84.4525,67.54 84.0125,67.455 83.5125,67.455 C83.0825,67.455 82.6625,67.545 82.2525,67.725 C81.8425,67.905 81.48,68.16 81.165,68.49 C80.85,68.82 80.5975,69.225 80.4075,69.705 C80.2175,70.185 80.1225,70.725 80.1225,71.325 C80.1225,71.935 80.215,72.4775 80.4,72.9525 C80.585,73.4275 80.8425,73.83 81.1725,74.16 C81.5025,74.49 81.8875,74.7425 82.3275,74.9175 C82.7675,75.0925 83.2425,75.18 83.7525,75.18 Z M85.0575,70.62 L81.7875,70.62 C81.8675,70.02 82.0725,69.565 82.4025,69.255 C82.7325,68.945 83.1175,68.79 83.5575,68.79 C84.0675,68.79 84.445,68.9525 84.69,69.2775 C84.935,69.6025 85.0575,70.05 85.0575,70.62 L85.0575,70.62 Z" id="PerMinute" fill="#FFFFFF" fill-rule="nonzero"></path>
                </g>
                <g id="Icon/Close" transform="translate(159.000000, 28.000000)" fill="#B3532D">
                    <path d="M10.5847185,8.99808182 L15.4175482,4.17649135 C15.8582597,3.7357798 15.8582597,3.02124521 15.4175482,2.58053366 C14.9768366,2.13982211 14.262302,2.13982211 13.8215905,2.58053366 L9,7.41336327 L4.17840952,2.58053366 C3.73769798,2.13982212 3.02316339,2.13982213 2.58245185,2.58053367 C2.14174031,3.02124521 2.1417403,3.7357798 2.58245184,4.17649135 L7.41528145,8.99808182 L2.58245184,13.8196723 C2.36968072,14.0307058 2.25,14.3179735 2.25,14.6176511 C2.25,14.9173288 2.36968072,15.2045965 2.58245184,15.41563 C2.79348532,15.6284011 3.08075306,15.7480818 3.38043068,15.7480818 C3.6801083,15.7480818 3.96737604,15.6284011 4.17840952,15.41563 L9,10.5828004 L13.8215905,15.41563 C14.032624,15.6284011 14.3198917,15.7480818 14.6195693,15.7480818 C14.9192469,15.7480818 15.2065147,15.6284011 15.4175482,15.41563 C15.6303193,15.2045965 15.75,14.9173288 15.75,14.6176511 C15.75,14.3179735 15.6303193,14.0307058 15.4175482,13.8196723 L10.5847185,8.99808182 Z" id="Icon-Path"></path>
                </g>
            </g>
        </g>
    </g>
</svg>