<?xml version="1.0" encoding="UTF-8"?>
<svg width="287px" height="85px" viewBox="0 0 287 85" version="1.1" xmlns="http://www.w3.org/2000/svg" xmlns:xlink="http://www.w3.org/1999/xlink">
    <title>anecdote-deficit-2</title>
    <defs>
        <polygon id="path-1" points="0 0.171214286 46.0422667 0.171214286 46.0422667 22.0289 0 22.0289"></polygon>
        <polygon id="path-3" points="0 47 87.352 47 87.352 0.8648 0 0.8648"></polygon>
    </defs>
    <g id="02.-Anecdote-Cards" stroke="none" stroke-width="1" fill="none" fill-rule="evenodd">
        <g id="Anecdote-Cards-(Desktop/Tablet)---SVG" transform="translate(-640.000000, -1612.000000)">
            <g id="anecdote-deficit-2" transform="translate(640.000000, 1612.000000)">
                <g id="Group-26">
                    <g id="Group-51" transform="translate(13.000000, 0.000000)">
                        <polygon id="Fill-1" fill="#B3532D" points="67.5 18.5630573 51.1640093 30 49 26.9630573 65.6912958 15.277707 67.5 14 69.3113857 15.2789809 86 26.9630573 83.8359907 30"></polygon>
                        <path d="M66.6967301,13.5739581 L65.2787197,14.5871302 L49.0409516,26.0999784 L48,26.8371842 L48.7244916,27.8684949 L50.142502,29.8831786 L50.9275923,31 L52.0560754,30.2006046 L67.5006733,19.2513496 L82.9439246,30.2006046 L84.0724077,31 L84.857498,29.8831786 L86.2755084,27.8684949 L87,26.8397754 L87,26.8371842 L85.9590484,26.0999784 L69.7158938,14.584539 L68.3019233,13.5739581 L67.5006733,13 L66.6967301,13.5739581 Z M49.8395083,27.1416541 L66.0826629,15.6275103 L67.5006733,14.6143382 L68.9173371,15.6275103 L85.1604917,27.1416541 L83.7424813,29.1576333 L67.5006733,17.6421939 L51.2575187,29.1576333 L49.8395083,27.1416541 Z" id="Fill-2" fill="#FFFFFF"></path>
                        <polygon id="Fill-3" fill="#B3532D" points="52 29.449238 52 46 82 46 82 29.449238 67.0006954 19"></polygon>
                        <path d="M67.2111559,18.5851688 L53.5409596,28.7325576 L53,29.1356144 L53,29.8105001 L53,45.660941 L53,47 L54.3291392,47 L81.6708608,47 L83,47 L83,45.660941 L83,29.8105001 L83,29.1356144 L82.4590404,28.7325576 L68.7888441,18.5851688 L68.0006646,18 L67.2111559,18.5851688 Z M55,30.1482359 L68.5006563,20 L82,30.1482359 L82,46 L55,46 L55,30.1482359 Z" id="Fill-4" fill="#FFFFFF"></path>
                        <polygon id="Fill-5" fill="#FFFFFF" points="65 46 72 46 72 38 65 38"></polygon>
                        <g id="Group-50">
                            <path d="M70.8164,33.30326 L65.0830667,33.30326 L65.0830667,28.6838314 C65.0830667,27.0885171 66.3657333,25.7966886 67.9497333,25.7966886 C69.5324,25.7966886 70.8164,27.0885171 70.8164,28.6838314 L70.8164,33.30326 Z" id="Fill-6" fill="#FFFFFF"></path>
                            <path d="M70.8164,33.30326 L65.0830667,33.30326 L65.0830667,28.6838314 C65.0830667,27.0885171 66.3657333,25.7966886 67.9497333,25.7966886 C69.5324,25.7966886 70.8164,27.0885171 70.8164,28.6838314 L70.8164,33.30326 Z" id="Stroke-8" stroke="#B3532D" stroke-width="0.75" stroke-linejoin="round"></path>
                            <g id="Group-13" transform="translate(65.023256, 28.200000)">
                                <line x1="0.0594108527" y1="1.34943714" x2="5.79274419" y2="1.34943714" id="Fill-10" fill="#FFFFFF"></line>
                                <line x1="0.0594108527" y1="1.34943714" x2="5.79274419" y2="1.34943714" id="Stroke-12" stroke="#B3532D" stroke-width="0.75" stroke-linejoin="round"></line>
                            </g>
                            <g id="Group-17" transform="translate(64.000000, 32.228571)">
                                <line x1="0.0110666667" y1="1.07468857" x2="8.07773333" y2="1.07468857" id="Fill-14" fill="#FFFFFF"></line>
                                <line x1="0.0110666667" y1="1.07468857" x2="8.07773333" y2="1.07468857" id="Stroke-16" stroke="#B3532D" stroke-width="0.75" stroke-linecap="round" stroke-linejoin="round"></line>
                            </g>
                            <polygon id="Fill-18" fill="#B3532D" points="0.911466667 24.1425571 20.9234667 9.29055714 23.0208 7.72075714 25.1194667 9.2919 45.1314667 24.1425571 42.6808 27.7870714 23.0208 13.1982714 3.35946667 27.7870714"></polygon>
                            <g id="Group-22" transform="translate(0.000000, 6.714286)">
                                <mask id="mask-2" fill="white">
                                    <use xlink:href="#path-1"></use>
                                </mask>
                                <g id="Clip-21"></g>
                                <path d="M23.0209333,0.171214286 L22.2249333,0.7661 L20.5236,2.03912857 L1.0316,16.5057286 L-0.0004,17.2698143 L0.718266667,18.3387286 L2.4196,20.8713571 L3.19693333,22.0289 L4.31426667,21.1990143 L23.0209333,7.3179 L41.7262667,21.1990143 L42.8449333,22.0289 L43.6222667,20.8713571 L45.3236,18.3387286 L46.0422667,17.2698143 L45.0102667,16.5057286 L25.5129333,2.03644286 L23.8156,0.7661 L23.0209333,0.171214286 Z M23.0209333,1.84441429 L24.7222667,3.11744286 L44.2196,17.5867286 L42.5182667,20.1180143 L23.0209333,5.65007143 L3.5236,20.1180143 L1.82226667,17.5867286 L21.3196,3.11744286 L23.0209333,1.84441429 Z" id="Fill-20" fill="#FFFFFF" mask="url(#mask-2)"></path>
                            </g>
                            <polygon id="Fill-23" fill="#B3532D" points="5.72786667 46.3285714 5.72786667 26.0474 23.0212 13.2137143 40.3132 26.0474 40.3132 46.3285714"></polygon>
                            <path d="M23.0209333,12.3808743 L22.2302667,12.9677029 L5.6036,25.3058743 L5.06093333,25.7087314 L5.06093333,26.3868743 L5.06093333,45.6568743 L5.06093333,46.9997314 L6.39426667,46.9997314 L39.6462667,46.9997314 L40.9796,46.9997314 L40.9796,45.6568743 L40.9796,26.3868743 L40.9796,25.7087314 L40.4382667,25.3058743 L23.8116,12.9677029 L23.0209333,12.3808743 Z M23.0209333,14.0487029 L39.6462667,26.3868743 L39.6462667,45.6568743 L6.39426667,45.6568743 L6.39426667,26.3868743 L23.0209333,14.0487029 Z" id="Fill-25" fill="#FFFFFF"></path>
                            <mask id="mask-4" fill="white">
                                <use xlink:href="#path-3"></use>
                            </mask>
                            <g id="Clip-28"></g>
                            <polygon id="Fill-27" fill="#FFFFFF" mask="url(#mask-4)" points="18.416 45.6571429 27.1786667 45.6571429 27.1786667 35.8314571 18.416 35.8314571"></polygon>
                            <path d="M26.3809333,31.0674029 L19.4302667,31.0674029 L19.4302667,25.4676886 C19.4302667,23.5339743 20.9862667,21.96686 22.9062667,21.96686 C24.8249333,21.96686 26.3809333,23.5339743 26.3809333,25.4676886 L26.3809333,31.0674029 Z" id="Fill-29" fill="#FFFFFF" mask="url(#mask-4)"></path>
                            <path d="M26.3809333,31.0674029 L19.4302667,31.0674029 L19.4302667,25.4676886 C19.4302667,23.5339743 20.9862667,21.96686 22.9062667,21.96686 C24.8249333,21.96686 26.3809333,23.5339743 26.3809333,25.4676886 L26.3809333,31.0674029 Z" id="Stroke-30" stroke="#B3532D" stroke-width="0.75" stroke-linejoin="round" mask="url(#mask-4)"></path>
                            <g id="Group-33" mask="url(#mask-4)">
                                <g transform="translate(18.666667, 25.514286)">
                                    <line x1="0.763066667" y1="1.00324857" x2="7.71373333" y2="1.00324857" id="Fill-31" stroke="none" fill="#FFFFFF" fill-rule="evenodd"></line>
                                    <line x1="0.763066667" y1="1.00324857" x2="7.71373333" y2="1.00324857" id="Stroke-32" stroke="#B3532D" stroke-width="0.75" fill="none" stroke-linejoin="round"></line>
                                </g>
                            </g>
                            <g id="Group-36" mask="url(#mask-4)">
                                <g transform="translate(17.333333, 29.542857)">
                                    <line x1="0.7976" y1="1.52454571" x2="10.5776" y2="1.52454571" id="Fill-34" stroke="none" fill="#FFFFFF" fill-rule="evenodd"></line>
                                    <line x1="0.7976" y1="1.52454571" x2="10.5776" y2="1.52454571" id="Stroke-35" stroke="#B3532D" stroke-width="0.75" fill="none" stroke-linecap="round" stroke-linejoin="round"></line>
                                </g>
                            </g>
                            <polygon id="Fill-37" fill="#B3532D" mask="url(#mask-4)" points="18.8432 20.6766429 42.0205333 3.47732857 44.3925333 1.70072857 46.7685333 3.47867143 69.9432 20.6766429 67.2178667 24.7334143 44.3925333 7.79461429 21.5672 24.7334143"></polygon>
                            <path d="M44.3926667,0.864934286 L43.598,1.45982 L41.6193333,2.93964857 L18.9633333,19.7535629 L17.9313333,20.5189914 L18.65,21.5865629 L20.6273333,24.5301057 L21.4046667,25.6876486 L22.522,24.8591057 L44.3926667,8.62799143 L66.2633333,24.8591057 L67.3806667,25.6876486 L68.158,24.5301057 L70.1366667,21.5865629 L70.854,20.5189914 L69.822,19.7535629 L47.162,2.93562 L45.1873333,1.45982 L44.3926667,0.864934286 Z M44.3926667,2.53813429 L46.37,4.01796286 L69.0313333,20.8345629 L67.054,23.7767629 L44.3926667,6.96016286 L21.7313333,23.7767629 L19.754,20.8345629 L42.4153333,4.01796286 L44.3926667,2.53813429 Z" id="Fill-38" fill="#FFFFFF" mask="url(#mask-4)"></path>
                            <polygon id="Fill-39" fill="#B3532D" mask="url(#mask-4)" points="24.4017333 46.3285714 24.4017333 22.9198857 44.3924 8.08534286 64.3830667 22.9198857 64.3830667 46.3285714"></polygon>
                            <path d="M44.3926667,7.25062286 L43.602,7.83745143 L24.278,22.1778229 L23.7353333,22.58068 L23.7353333,23.2588229 L23.7353333,45.65768 L23.7353333,47.0005371 L25.0686667,47.0005371 L63.7166667,47.0005371 L65.05,47.0005371 L65.05,45.65768 L65.05,23.2588229 L65.05,22.58068 L64.5073333,22.1778229 L45.1833333,7.83745143 L44.3926667,7.25062286 Z M44.3926667,8.91845143 L63.7166667,23.2588229 L63.7166667,45.65768 L25.0686667,45.65768 L25.0686667,23.2588229 L44.3926667,8.91845143 Z" id="Fill-40" fill="#FFFFFF" mask="url(#mask-4)"></path>
                            <polygon id="Fill-41" fill="#FFFFFF" mask="url(#mask-4)" points="39.04 45.6571429 49.2253333 45.6571429 49.2253333 34.2361429 39.04 34.2361429"></polygon>
                            <path d="M48.2982667,28.6996771 L40.2196,28.6996771 L40.2196,22.1908486 C40.2196,19.9429057 42.0276,18.1219914 44.2596,18.1219914 C46.4902667,18.1219914 48.2982667,19.9429057 48.2982667,22.1908486 L48.2982667,28.6996771 Z" id="Fill-42" fill="#FFFFFF" mask="url(#mask-4)"></path>
                            <path d="M48.2982667,28.6996771 L40.2196,28.6996771 L40.2196,22.1908486 C40.2196,19.9429057 42.0276,18.1219914 44.2596,18.1219914 C46.4902667,18.1219914 48.2982667,19.9429057 48.2982667,22.1908486 L48.2982667,28.6996771 Z" id="Stroke-43" stroke="#B3532D" stroke-width="0.75" stroke-linejoin="round" mask="url(#mask-4)"></path>
                            <g id="Group-46" mask="url(#mask-4)">
                                <g transform="translate(40.000000, 22.660714)">
                                    <line x1="0.219466667" y1="0.75012" x2="8.29813333" y2="0.75012" id="Fill-44" stroke="none" fill="#FFFFFF" fill-rule="evenodd"></line>
                                    <line x1="0.219466667" y1="0.75012" x2="8.29813333" y2="0.75012" id="Stroke-45" stroke="#B3532D" stroke-width="0.75" fill="none" stroke-linejoin="round"></line>
                                </g>
                            </g>
                            <g id="Group-49" mask="url(#mask-4)">
                                <g transform="translate(38.666667, 28.032143)">
                                    <line x1="0.0424" y1="0.667534286" x2="11.4090667" y2="0.667534286" id="Fill-47" stroke="none" fill="#FFFFFF" fill-rule="evenodd"></line>
                                    <line x1="0.0424" y1="0.667534286" x2="11.4090667" y2="0.667534286" id="Stroke-48" stroke="#B3532D" stroke-width="0.75" fill="none" stroke-linecap="round" stroke-linejoin="round"></line>
                                </g>
                            </g>
                        </g>
                    </g>
                    <g id="Group-25" transform="translate(0.000000, 44.000000)" fill-rule="nonzero">
                        <rect id="Rectangle" fill="#B3532D" x="0" y="0" width="114" height="41"></rect>
                        <path d="M25.122,35 L25.122,30.38 L30.064,30.38 L30.064,35 L30.708,35 L30.708,25.774 L30.064,25.774 L30.064,29.82 L25.122,29.82 L25.122,25.774 L24.478,25.774 L24.478,35 L25.122,35 Z M35.804,35.168 C36.2053333,35.168 36.5903333,35.0886667 36.959,34.93 C37.3276667,34.7713333 37.6496667,34.5426667 37.925,34.244 C38.2003333,33.9453333 38.4196667,33.579 38.583,33.145 C38.7463333,32.711 38.828,32.214 38.828,31.654 C38.828,31.094 38.7463333,30.5923333 38.583,30.149 C38.4196667,29.7056667 38.2003333,29.3346667 37.925,29.036 C37.6496667,28.7373333 37.3276667,28.5086667 36.959,28.35 C36.5903333,28.1913333 36.2053333,28.112 35.804,28.112 C35.4026667,28.112 35.02,28.1913333 34.656,28.35 C34.292,28.5086667 33.9723333,28.7373333 33.697,29.036 C33.4216667,29.3346667 33.2023333,29.7056667 33.039,30.149 C32.8756667,30.5923333 32.794,31.094 32.794,31.654 C32.794,32.214 32.8756667,32.711 33.039,33.145 C33.2023333,33.579 33.4216667,33.9453333 33.697,34.244 C33.9723333,34.5426667 34.292,34.7713333 34.656,34.93 C35.02,35.0886667 35.4026667,35.168 35.804,35.168 Z M35.804,34.622 C35.468,34.622 35.1553333,34.5496667 34.866,34.405 C34.5766667,34.2603333 34.327,34.0573333 34.117,33.796 C33.907,33.5346667 33.7413333,33.222 33.62,32.858 C33.4986667,32.494 33.438,32.0926667 33.438,31.654 C33.438,31.206 33.4986667,30.8 33.62,30.436 C33.7413333,30.072 33.907,29.757 34.117,29.491 C34.327,29.225 34.5766667,29.0196667 34.866,28.875 C35.1553333,28.7303333 35.468,28.658 35.804,28.658 C36.14,28.658 36.455,28.7303333 36.749,28.875 C37.043,29.0196667 37.295,29.225 37.505,29.491 C37.715,29.757 37.8806667,30.072 38.002,30.436 C38.1233333,30.8 38.184,31.206 38.184,31.654 C38.184,32.0926667 38.1233333,32.494 38.002,32.858 C37.8806667,33.222 37.715,33.5346667 37.505,33.796 C37.295,34.0573333 37.043,34.2603333 36.749,34.405 C36.455,34.5496667 36.14,34.622 35.804,34.622 Z M42.776,35.168 C43.2426667,35.168 43.658,35.0513333 44.022,34.818 C44.386,34.5846667 44.7313333,34.272 45.058,33.88 L45.058,33.88 L45.086,33.88 L45.156,35 L45.674,35 L45.674,28.28 L45.058,28.28 L45.058,33.236 C44.666,33.712 44.3066667,34.0596667 43.98,34.279 C43.6533333,34.4983333 43.2893333,34.608 42.888,34.608 C42.3466667,34.608 41.957,34.4376667 41.719,34.097 C41.481,33.7563333 41.362,33.2266667 41.362,32.508 L41.362,32.508 L41.362,28.28 L40.746,28.28 L40.746,32.592 C40.746,33.4693333 40.9093333,34.118 41.236,34.538 C41.5626667,34.958 42.076,35.168 42.776,35.168 Z M49.874,35.168 C50.238,35.168 50.56,35.1166667 50.84,35.014 C51.12,34.9113333 51.358,34.7736667 51.554,34.601 C51.75,34.4283333 51.897,34.2276667 51.995,33.999 C52.093,33.7703333 52.142,33.53 52.142,33.278 C52.142,32.9513333 52.0766667,32.6783333 51.946,32.459 C51.8153333,32.2396667 51.645,32.0553333 51.435,31.906 C51.225,31.7566667 50.9893333,31.6306667 50.728,31.528 L50.728,31.528 L49.944,31.22 C49.748,31.1453333 49.5543333,31.0683333 49.363,30.989 C49.1716667,30.9096667 49.0013333,30.8186667 48.852,30.716 C48.7026667,30.6133333 48.5836667,30.4943333 48.495,30.359 C48.4063333,30.2236667 48.362,30.058 48.362,29.862 C48.362,29.7126667 48.3923333,29.5633333 48.453,29.414 C48.5136667,29.2646667 48.607,29.134 48.733,29.022 C48.859,28.91 49.0153333,28.819 49.202,28.749 C49.3886667,28.679 49.6126667,28.644 49.874,28.644 C50.2193333,28.644 50.518,28.7023333 50.77,28.819 C51.022,28.9356667 51.26,29.078 51.484,29.246 L51.484,29.246 L51.82,28.812 C51.5773333,28.6066667 51.2856667,28.4386667 50.945,28.308 C50.6043333,28.1773333 50.2566667,28.112 49.902,28.112 C49.5473333,28.112 49.237,28.1586667 48.971,28.252 C48.705,28.3453333 48.4786667,28.4736667 48.292,28.637 C48.1053333,28.8003333 47.9653333,28.9916667 47.872,29.211 C47.7786667,29.4303333 47.732,29.6613333 47.732,29.904 C47.732,30.1933333 47.795,30.4383333 47.921,30.639 C48.047,30.8396667 48.2126667,31.0123333 48.418,31.157 C48.6233333,31.3016667 48.8543333,31.4253333 49.111,31.528 C49.3676667,31.6306667 49.622,31.7286667 49.874,31.822 C50.07,31.8966667 50.2636667,31.976 50.455,32.06 C50.6463333,32.144 50.8213333,32.242 50.98,32.354 C51.1386667,32.466 51.267,32.6013333 51.365,32.76 C51.463,32.9186667 51.512,33.1006667 51.512,33.306 C51.512,33.6606667 51.379,33.971 51.113,34.237 C50.847,34.503 50.448,34.636 49.916,34.636 C49.4306667,34.636 49.0246667,34.5543333 48.698,34.391 C48.3713333,34.2276667 48.0633333,34.0246667 47.774,33.782 L47.774,33.782 L47.41,34.244 C47.7086667,34.496 48.068,34.713 48.488,34.895 C48.908,35.077 49.37,35.168 49.874,35.168 Z M56.468,35.168 C56.9626667,35.168 57.371,35.098 57.693,34.958 C58.015,34.818 58.3113333,34.6686667 58.582,34.51 L58.582,34.51 L58.33,34.034 C58.078,34.2206667 57.805,34.3676667 57.511,34.475 C57.217,34.5823333 56.888,34.636 56.524,34.636 C56.1413333,34.636 55.796,34.5636667 55.488,34.419 C55.18,34.2743333 54.9163333,34.0736667 54.697,33.817 C54.4776667,33.5603333 54.3073333,33.2523333 54.186,32.893 C54.0646667,32.5336667 53.9993333,32.144 53.99,31.724 L53.99,31.724 L58.834,31.724 C58.8526667,31.64 58.862,31.556 58.862,31.472 L58.862,31.472 L58.862,31.22 C58.862,30.2306667 58.6333333,29.4653333 58.176,28.924 C57.7186667,28.3826667 57.0886667,28.112 56.286,28.112 C55.9126667,28.112 55.551,28.1936667 55.201,28.357 C54.851,28.5203333 54.5383333,28.7536667 54.263,29.057 C53.9876667,29.3603333 53.7683333,29.7313333 53.605,30.17 C53.4416667,30.6086667 53.36,31.1033333 53.36,31.654 C53.36,32.2046667 53.4416667,32.697 53.605,33.131 C53.7683333,33.565 53.99,33.9336667 54.27,34.237 C54.55,34.5403333 54.879,34.7713333 55.257,34.93 C55.635,35.0886667 56.0386667,35.168 56.468,35.168 Z M58.274,31.22 L53.99,31.22 C54.0273333,30.8186667 54.1136667,30.4593333 54.249,30.142 C54.3843333,29.8246667 54.557,29.554 54.767,29.33 C54.977,29.106 55.2126667,28.9356667 55.474,28.819 C55.7353333,28.7023333 56.0106667,28.644 56.3,28.644 C56.9066667,28.644 57.3873333,28.8563333 57.742,29.281 C58.0966667,29.7056667 58.274,30.352 58.274,31.22 L58.274,31.22 Z M61.298,35 L61.298,29.932 C61.7086667,29.512 62.0773333,29.197 62.404,28.987 C62.7306667,28.777 63.0946667,28.672 63.496,28.672 C64.0466667,28.672 64.441,28.8423333 64.679,29.183 C64.917,29.5236667 65.036,30.0533333 65.036,30.772 L65.036,30.772 L65.036,35 L65.652,35 L65.652,30.688 C65.652,29.8106667 65.4886667,29.162 65.162,28.742 C64.8353333,28.322 64.322,28.112 63.622,28.112 C63.1553333,28.112 62.74,28.2263333 62.376,28.455 C62.012,28.6836667 61.6526667,28.9753333 61.298,29.33 L61.298,29.33 L61.298,24.934 L60.682,24.934 L60.682,35 L61.298,35 Z M70.524,35.168 C70.9253333,35.168 71.3103333,35.0886667 71.679,34.93 C72.0476667,34.7713333 72.3696667,34.5426667 72.645,34.244 C72.9203333,33.9453333 73.1396667,33.579 73.303,33.145 C73.4663333,32.711 73.548,32.214 73.548,31.654 C73.548,31.094 73.4663333,30.5923333 73.303,30.149 C73.1396667,29.7056667 72.9203333,29.3346667 72.645,29.036 C72.3696667,28.7373333 72.0476667,28.5086667 71.679,28.35 C71.3103333,28.1913333 70.9253333,28.112 70.524,28.112 C70.1226667,28.112 69.74,28.1913333 69.376,28.35 C69.012,28.5086667 68.6923333,28.7373333 68.417,29.036 C68.1416667,29.3346667 67.9223333,29.7056667 67.759,30.149 C67.5956667,30.5923333 67.514,31.094 67.514,31.654 C67.514,32.214 67.5956667,32.711 67.759,33.145 C67.9223333,33.579 68.1416667,33.9453333 68.417,34.244 C68.6923333,34.5426667 69.012,34.7713333 69.376,34.93 C69.74,35.0886667 70.1226667,35.168 70.524,35.168 Z M70.524,34.622 C70.188,34.622 69.8753333,34.5496667 69.586,34.405 C69.2966667,34.2603333 69.047,34.0573333 68.837,33.796 C68.627,33.5346667 68.4613333,33.222 68.34,32.858 C68.2186667,32.494 68.158,32.0926667 68.158,31.654 C68.158,31.206 68.2186667,30.8 68.34,30.436 C68.4613333,30.072 68.627,29.757 68.837,29.491 C69.047,29.225 69.2966667,29.0196667 69.586,28.875 C69.8753333,28.7303333 70.188,28.658 70.524,28.658 C70.86,28.658 71.175,28.7303333 71.469,28.875 C71.763,29.0196667 72.015,29.225 72.225,29.491 C72.435,29.757 72.6006667,30.072 72.722,30.436 C72.8433333,30.8 72.904,31.206 72.904,31.654 C72.904,32.0926667 72.8433333,32.494 72.722,32.858 C72.6006667,33.222 72.435,33.5346667 72.225,33.796 C72.015,34.0573333 71.763,34.2603333 71.469,34.405 C71.175,34.5496667 70.86,34.622 70.524,34.622 Z M76.39,35.168 C76.4926667,35.168 76.5766667,35.161 76.642,35.147 C76.7073333,35.133 76.7726667,35.1166667 76.838,35.098 L76.838,35.098 L76.726,34.594 C76.6513333,34.6126667 76.5976667,34.622 76.565,34.622 L76.565,34.622 L76.474,34.622 C76.39,34.622 76.32,34.587 76.264,34.517 C76.208,34.447 76.18,34.3373333 76.18,34.188 L76.18,34.188 L76.18,24.934 L75.564,24.934 L75.564,34.104 C75.564,34.8133333 75.8393333,35.168 76.39,35.168 Z M81.108,35.168 C81.556,35.168 81.9643333,35.063 82.333,34.853 C82.7016667,34.643 83.0213333,34.4026667 83.292,34.132 L83.292,34.132 L83.334,34.132 L83.39,35 L83.922,35 L83.922,24.934 L83.306,24.934 L83.306,27.706 L83.334,28.938 C82.998,28.6766667 82.6783333,28.4736667 82.375,28.329 C82.0716667,28.1843333 81.7146667,28.112 81.304,28.112 C80.9026667,28.112 80.5223333,28.1936667 80.163,28.357 C79.8036667,28.5203333 79.4863333,28.756 79.211,29.064 C78.9356667,29.372 78.7186667,29.7453333 78.56,30.184 C78.4013333,30.6226667 78.322,31.1126667 78.322,31.654 C78.322,32.7926667 78.574,33.663 79.078,34.265 C79.582,34.867 80.2586667,35.168 81.108,35.168 Z M81.192,34.622 C80.8373333,34.622 80.5223333,34.5496667 80.247,34.405 C79.9716667,34.2603333 79.7406667,34.0596667 79.554,33.803 C79.3673333,33.5463333 79.225,33.236 79.127,32.872 C79.029,32.508 78.98,32.102 78.98,31.654 C78.98,31.234 79.0406667,30.8396667 79.162,30.471 C79.2833333,30.1023333 79.449,29.785 79.659,29.519 C79.869,29.253 80.1186667,29.043 80.408,28.889 C80.6973333,28.735 81.01,28.658 81.346,28.658 C81.6726667,28.658 81.9923333,28.7233333 82.305,28.854 C82.6176667,28.9846667 82.9513333,29.2086667 83.306,29.526 L83.306,29.526 L83.306,33.516 C82.9513333,33.8706667 82.6036667,34.1436667 82.263,34.335 C81.9223333,34.5263333 81.5653333,34.622 81.192,34.622 Z M88.122,35.168 C88.486,35.168 88.808,35.1166667 89.088,35.014 C89.368,34.9113333 89.606,34.7736667 89.802,34.601 C89.998,34.4283333 90.145,34.2276667 90.243,33.999 C90.341,33.7703333 90.39,33.53 90.39,33.278 C90.39,32.9513333 90.3246667,32.6783333 90.194,32.459 C90.0633333,32.2396667 89.893,32.0553333 89.683,31.906 C89.473,31.7566667 89.2373333,31.6306667 88.976,31.528 L88.976,31.528 L88.192,31.22 C87.996,31.1453333 87.8023333,31.0683333 87.611,30.989 C87.4196667,30.9096667 87.2493333,30.8186667 87.1,30.716 C86.9506667,30.6133333 86.8316667,30.4943333 86.743,30.359 C86.6543333,30.2236667 86.61,30.058 86.61,29.862 C86.61,29.7126667 86.6403333,29.5633333 86.701,29.414 C86.7616667,29.2646667 86.855,29.134 86.981,29.022 C87.107,28.91 87.2633333,28.819 87.45,28.749 C87.6366667,28.679 87.8606667,28.644 88.122,28.644 C88.4673333,28.644 88.766,28.7023333 89.018,28.819 C89.27,28.9356667 89.508,29.078 89.732,29.246 L89.732,29.246 L90.068,28.812 C89.8253333,28.6066667 89.5336667,28.4386667 89.193,28.308 C88.8523333,28.1773333 88.5046667,28.112 88.15,28.112 C87.7953333,28.112 87.485,28.1586667 87.219,28.252 C86.953,28.3453333 86.7266667,28.4736667 86.54,28.637 C86.3533333,28.8003333 86.2133333,28.9916667 86.12,29.211 C86.0266667,29.4303333 85.98,29.6613333 85.98,29.904 C85.98,30.1933333 86.043,30.4383333 86.169,30.639 C86.295,30.8396667 86.4606667,31.0123333 86.666,31.157 C86.8713333,31.3016667 87.1023333,31.4253333 87.359,31.528 C87.6156667,31.6306667 87.87,31.7286667 88.122,31.822 C88.318,31.8966667 88.5116667,31.976 88.703,32.06 C88.8943333,32.144 89.0693333,32.242 89.228,32.354 C89.3866667,32.466 89.515,32.6013333 89.613,32.76 C89.711,32.9186667 89.76,33.1006667 89.76,33.306 C89.76,33.6606667 89.627,33.971 89.361,34.237 C89.095,34.503 88.696,34.636 88.164,34.636 C87.6786667,34.636 87.2726667,34.5543333 86.946,34.391 C86.6193333,34.2276667 86.3113333,34.0246667 86.022,33.782 L86.022,33.782 L85.658,34.244 C85.9566667,34.496 86.316,34.713 86.736,34.895 C87.156,35.077 87.618,35.168 88.122,35.168 Z" id="Households" fill="#FFFFFF"></path>
                        <path d="M18.723,20 L18.723,18.308 L16.473,18.308 L16.473,8.552 L14.925,8.552 C14.565,8.768 14.178,8.951 13.764,9.101 C13.35,9.251 12.855,9.38 12.279,9.488 L12.279,9.488 L12.279,10.784 L14.385,10.784 L14.385,18.308 L11.829,18.308 L11.829,20 L18.723,20 Z M28.155,20 L28.155,18.236 L25.347,18.236 C25.071,18.236 24.759,18.251 24.411,18.281 C24.063,18.311 23.739,18.338 23.439,18.362 C24.003,17.762 24.537,17.18 25.041,16.616 C25.545,16.052 25.986,15.503 26.364,14.969 C26.742,14.435 27.042,13.907 27.264,13.385 C27.486,12.863 27.597,12.35 27.597,11.846 C27.597,11.318 27.51,10.838 27.336,10.406 C27.162,9.974 26.919,9.605 26.607,9.299 C26.295,8.993 25.917,8.756 25.473,8.588 C25.029,8.42 24.531,8.336 23.979,8.336 C23.187,8.336 22.512,8.489 21.954,8.795 C21.396,9.101 20.853,9.536 20.325,10.1 L20.325,10.1 L21.477,11.252 C21.789,10.904 22.128,10.604 22.494,10.352 C22.86,10.1 23.265,9.974 23.709,9.974 C24.321,9.974 24.789,10.151 25.113,10.505 C25.437,10.859 25.599,11.342 25.599,11.954 C25.599,12.386 25.479,12.842 25.239,13.322 C24.999,13.802 24.654,14.318 24.204,14.87 C23.754,15.422 23.208,16.022 22.566,16.67 C21.924,17.318 21.207,18.026 20.415,18.794 L20.415,18.794 L20.415,20 L28.155,20 Z M32.871,20.216 C33.459,20.216 34.026,20.096 34.572,19.856 C35.118,19.616 35.598,19.241 36.012,18.731 C36.426,18.221 36.756,17.57 37.002,16.778 C37.248,15.986 37.371,15.032 37.371,13.916 C37.371,12.956 37.26,12.125 37.038,11.423 C36.816,10.721 36.516,10.142 36.138,9.686 C35.76,9.23 35.319,8.891 34.815,8.669 C34.311,8.447 33.783,8.336 33.231,8.336 C32.739,8.336 32.274,8.423 31.836,8.597 C31.398,8.771 31.017,9.02 30.693,9.344 C30.369,9.668 30.111,10.061 29.919,10.523 C29.727,10.985 29.631,11.504 29.631,12.08 C29.631,12.68 29.712,13.202 29.874,13.646 C30.036,14.09 30.264,14.459 30.558,14.753 C30.852,15.047 31.203,15.266 31.611,15.41 C32.019,15.554 32.469,15.626 32.961,15.626 C33.381,15.626 33.819,15.509 34.275,15.275 C34.731,15.041 35.127,14.714 35.463,14.294 C35.439,15.086 35.352,15.752 35.202,16.292 C35.052,16.832 34.857,17.267 34.617,17.597 C34.377,17.927 34.098,18.164 33.78,18.308 C33.462,18.452 33.123,18.524 32.763,18.524 C32.415,18.524 32.076,18.443 31.746,18.281 C31.416,18.119 31.143,17.912 30.927,17.66 L30.927,17.66 L29.811,18.92 C30.159,19.28 30.585,19.586 31.089,19.838 C31.593,20.09 32.187,20.216 32.871,20.216 Z M33.357,14.132 C32.781,14.132 32.334,13.961 32.016,13.619 C31.698,13.277 31.539,12.764 31.539,12.08 C31.539,11.384 31.707,10.85 32.043,10.478 C32.379,10.106 32.781,9.92 33.249,9.92 C33.801,9.92 34.272,10.148 34.662,10.604 C35.052,11.06 35.301,11.792 35.409,12.8 C35.109,13.268 34.776,13.607 34.41,13.817 C34.044,14.027 33.693,14.132 33.357,14.132 Z M39.495,23.276 C40.395,22.964 41.088,22.484 41.574,21.836 C42.06,21.188 42.303,20.42 42.303,19.532 C42.303,18.86 42.168,18.338 41.898,17.966 C41.628,17.594 41.247,17.408 40.755,17.408 C40.371,17.408 40.044,17.525 39.774,17.759 C39.504,17.993 39.369,18.302 39.369,18.686 C39.369,19.094 39.504,19.409 39.774,19.631 C40.044,19.853 40.353,19.964 40.701,19.964 L40.701,19.964 L40.863,19.964 C40.875,20.42 40.722,20.84 40.404,21.224 C40.086,21.608 39.633,21.914 39.045,22.142 L39.045,22.142 L39.495,23.276 Z M47.757,20.216 C48.957,20.216 49.905,19.703 50.601,18.677 C51.297,17.651 51.645,16.166 51.645,14.222 C51.645,12.29 51.297,10.826 50.601,9.83 C49.905,8.834 48.957,8.336 47.757,8.336 C46.557,8.336 45.609,8.831 44.913,9.821 C44.217,10.811 43.869,12.278 43.869,14.222 C43.869,16.166 44.217,17.651 44.913,18.677 C45.609,19.703 46.557,20.216 47.757,20.216 Z M47.757,18.596 C47.481,18.596 47.226,18.521 46.992,18.371 C46.758,18.221 46.557,17.972 46.389,17.624 C46.221,17.276 46.089,16.826 45.993,16.274 C45.897,15.722 45.849,15.038 45.849,14.222 C45.849,13.418 45.897,12.743 45.993,12.197 C46.089,11.651 46.221,11.21 46.389,10.874 C46.557,10.538 46.758,10.301 46.992,10.163 C47.226,10.025 47.481,9.956 47.757,9.956 C48.033,9.956 48.288,10.025 48.522,10.163 C48.756,10.301 48.957,10.538 49.125,10.874 C49.293,11.21 49.425,11.651 49.521,12.197 C49.617,12.743 49.665,13.418 49.665,14.222 C49.665,15.038 49.617,15.722 49.521,16.274 C49.425,16.826 49.293,17.276 49.125,17.624 C48.957,17.972 48.756,18.221 48.522,18.371 C48.288,18.521 48.033,18.596 47.757,18.596 Z M56.991,20.216 C58.191,20.216 59.139,19.703 59.835,18.677 C60.531,17.651 60.879,16.166 60.879,14.222 C60.879,12.29 60.531,10.826 59.835,9.83 C59.139,8.834 58.191,8.336 56.991,8.336 C55.791,8.336 54.843,8.831 54.147,9.821 C53.451,10.811 53.103,12.278 53.103,14.222 C53.103,16.166 53.451,17.651 54.147,18.677 C54.843,19.703 55.791,20.216 56.991,20.216 Z M56.991,18.596 C56.715,18.596 56.46,18.521 56.226,18.371 C55.992,18.221 55.791,17.972 55.623,17.624 C55.455,17.276 55.323,16.826 55.227,16.274 C55.131,15.722 55.083,15.038 55.083,14.222 C55.083,13.418 55.131,12.743 55.227,12.197 C55.323,11.651 55.455,11.21 55.623,10.874 C55.791,10.538 55.992,10.301 56.226,10.163 C56.46,10.025 56.715,9.956 56.991,9.956 C57.267,9.956 57.522,10.025 57.756,10.163 C57.99,10.301 58.191,10.538 58.359,10.874 C58.527,11.21 58.659,11.651 58.755,12.197 C58.851,12.743 58.899,13.418 58.899,14.222 C58.899,15.038 58.851,15.722 58.755,16.274 C58.659,16.826 58.527,17.276 58.359,17.624 C58.191,17.972 57.99,18.221 57.756,18.371 C57.522,18.521 57.267,18.596 56.991,18.596 Z M66.225,20.216 C67.425,20.216 68.373,19.703 69.069,18.677 C69.765,17.651 70.113,16.166 70.113,14.222 C70.113,12.29 69.765,10.826 69.069,9.83 C68.373,8.834 67.425,8.336 66.225,8.336 C65.025,8.336 64.077,8.831 63.381,9.821 C62.685,10.811 62.337,12.278 62.337,14.222 C62.337,16.166 62.685,17.651 63.381,18.677 C64.077,19.703 65.025,20.216 66.225,20.216 Z M66.225,18.596 C65.949,18.596 65.694,18.521 65.46,18.371 C65.226,18.221 65.025,17.972 64.857,17.624 C64.689,17.276 64.557,16.826 64.461,16.274 C64.365,15.722 64.317,15.038 64.317,14.222 C64.317,13.418 64.365,12.743 64.461,12.197 C64.557,11.651 64.689,11.21 64.857,10.874 C65.025,10.538 65.226,10.301 65.46,10.163 C65.694,10.025 65.949,9.956 66.225,9.956 C66.501,9.956 66.756,10.025 66.99,10.163 C67.224,10.301 67.425,10.538 67.593,10.874 C67.761,11.21 67.893,11.651 67.989,12.197 C68.085,12.743 68.133,13.418 68.133,14.222 C68.133,15.038 68.085,15.722 67.989,16.274 C67.893,16.826 67.761,17.276 67.593,17.624 C67.425,17.972 67.224,18.221 66.99,18.371 C66.756,18.521 66.501,18.596 66.225,18.596 Z M72.147,23.276 C73.047,22.964 73.74,22.484 74.226,21.836 C74.712,21.188 74.955,20.42 74.955,19.532 C74.955,18.86 74.82,18.338 74.55,17.966 C74.28,17.594 73.899,17.408 73.407,17.408 C73.023,17.408 72.696,17.525 72.426,17.759 C72.156,17.993 72.021,18.302 72.021,18.686 C72.021,19.094 72.156,19.409 72.426,19.631 C72.696,19.853 73.005,19.964 73.353,19.964 L73.353,19.964 L73.515,19.964 C73.527,20.42 73.374,20.84 73.056,21.224 C72.738,21.608 72.285,21.914 71.697,22.142 L71.697,22.142 L72.147,23.276 Z M80.409,20.216 C81.609,20.216 82.557,19.703 83.253,18.677 C83.949,17.651 84.297,16.166 84.297,14.222 C84.297,12.29 83.949,10.826 83.253,9.83 C82.557,8.834 81.609,8.336 80.409,8.336 C79.209,8.336 78.261,8.831 77.565,9.821 C76.869,10.811 76.521,12.278 76.521,14.222 C76.521,16.166 76.869,17.651 77.565,18.677 C78.261,19.703 79.209,20.216 80.409,20.216 Z M80.409,18.596 C80.133,18.596 79.878,18.521 79.644,18.371 C79.41,18.221 79.209,17.972 79.041,17.624 C78.873,17.276 78.741,16.826 78.645,16.274 C78.549,15.722 78.501,15.038 78.501,14.222 C78.501,13.418 78.549,12.743 78.645,12.197 C78.741,11.651 78.873,11.21 79.041,10.874 C79.209,10.538 79.41,10.301 79.644,10.163 C79.878,10.025 80.133,9.956 80.409,9.956 C80.685,9.956 80.94,10.025 81.174,10.163 C81.408,10.301 81.609,10.538 81.777,10.874 C81.945,11.21 82.077,11.651 82.173,12.197 C82.269,12.743 82.317,13.418 82.317,14.222 C82.317,15.038 82.269,15.722 82.173,16.274 C82.077,16.826 81.945,17.276 81.777,17.624 C81.609,17.972 81.408,18.221 81.174,18.371 C80.94,18.521 80.685,18.596 80.409,18.596 Z M89.643,20.216 C90.843,20.216 91.791,19.703 92.487,18.677 C93.183,17.651 93.531,16.166 93.531,14.222 C93.531,12.29 93.183,10.826 92.487,9.83 C91.791,8.834 90.843,8.336 89.643,8.336 C88.443,8.336 87.495,8.831 86.799,9.821 C86.103,10.811 85.755,12.278 85.755,14.222 C85.755,16.166 86.103,17.651 86.799,18.677 C87.495,19.703 88.443,20.216 89.643,20.216 Z M89.643,18.596 C89.367,18.596 89.112,18.521 88.878,18.371 C88.644,18.221 88.443,17.972 88.275,17.624 C88.107,17.276 87.975,16.826 87.879,16.274 C87.783,15.722 87.735,15.038 87.735,14.222 C87.735,13.418 87.783,12.743 87.879,12.197 C87.975,11.651 88.107,11.21 88.275,10.874 C88.443,10.538 88.644,10.301 88.878,10.163 C89.112,10.025 89.367,9.956 89.643,9.956 C89.919,9.956 90.174,10.025 90.408,10.163 C90.642,10.301 90.843,10.538 91.011,10.874 C91.179,11.21 91.311,11.651 91.407,12.197 C91.503,12.743 91.551,13.418 91.551,14.222 C91.551,15.038 91.503,15.722 91.407,16.274 C91.311,16.826 91.179,17.276 91.011,17.624 C90.843,17.972 90.642,18.221 90.408,18.371 C90.174,18.521 89.919,18.596 89.643,18.596 Z M98.877,20.216 C100.077,20.216 101.025,19.703 101.721,18.677 C102.417,17.651 102.765,16.166 102.765,14.222 C102.765,12.29 102.417,10.826 101.721,9.83 C101.025,8.834 100.077,8.336 98.877,8.336 C97.677,8.336 96.729,8.831 96.033,9.821 C95.337,10.811 94.989,12.278 94.989,14.222 C94.989,16.166 95.337,17.651 96.033,18.677 C96.729,19.703 97.677,20.216 98.877,20.216 Z M98.877,18.596 C98.601,18.596 98.346,18.521 98.112,18.371 C97.878,18.221 97.677,17.972 97.509,17.624 C97.341,17.276 97.209,16.826 97.113,16.274 C97.017,15.722 96.969,15.038 96.969,14.222 C96.969,13.418 97.017,12.743 97.113,12.197 C97.209,11.651 97.341,11.21 97.509,10.874 C97.677,10.538 97.878,10.301 98.112,10.163 C98.346,10.025 98.601,9.956 98.877,9.956 C99.153,9.956 99.408,10.025 99.642,10.163 C99.876,10.301 100.077,10.538 100.245,10.874 C100.413,11.21 100.545,11.651 100.641,12.197 C100.737,12.743 100.785,13.418 100.785,14.222 C100.785,15.038 100.737,15.722 100.641,16.274 C100.545,16.826 100.413,17.276 100.245,17.624 C100.077,17.972 99.876,18.221 99.642,18.371 C99.408,18.521 99.153,18.596 98.877,18.596 Z" id="129,000,000" fill="#FFFFFF"></path>
                    </g>
                </g>
                <path d="M164.786,82 L164.786,78.64 L166.102,78.64 C166.596667,78.64 167.056333,78.5816667 167.481,78.465 C167.905667,78.3483333 168.274333,78.1663333 168.587,77.919 C168.899667,77.6716667 169.144667,77.3613333 169.322,76.988 C169.499333,76.6146667 169.588,76.176 169.588,75.672 C169.588,75.14 169.499333,74.6943333 169.322,74.335 C169.144667,73.9756667 168.897333,73.684 168.58,73.46 C168.262667,73.236 167.887,73.0773333 167.453,72.984 C167.019,72.8906667 166.55,72.844 166.046,72.844 L166.046,72.844 L163.162,72.844 L163.162,82 L164.786,82 Z M165.976,77.338 L164.786,77.338 L164.786,74.146 L165.92,74.146 C166.601333,74.146 167.117,74.2556667 167.467,74.475 C167.817,74.6943333 167.992,75.0933333 167.992,75.672 C167.992,76.7826667 167.32,77.338 165.976,77.338 L165.976,77.338 Z M173.802,82.168 C174.240667,82.168 174.660667,82.098 175.062,81.958 C175.463333,81.818 175.827333,81.6406667 176.154,81.426 L176.154,81.426 L175.608,80.418 C175.356,80.5766667 175.101667,80.7003333 174.845,80.789 C174.588333,80.8776667 174.310667,80.922 174.012,80.922 C173.452,80.922 172.992333,80.7563333 172.633,80.425 C172.273667,80.0936667 172.056667,79.62 171.982,79.004 L171.982,79.004 L176.35,79.004 C176.368667,78.92 176.385,78.808 176.399,78.668 C176.413,78.528 176.42,78.3786667 176.42,78.22 C176.42,77.744 176.359333,77.3053333 176.238,76.904 C176.116667,76.5026667 175.937,76.1573333 175.699,75.868 C175.461,75.5786667 175.164667,75.3546667 174.81,75.196 C174.455333,75.0373333 174.044667,74.958 173.578,74.958 C173.176667,74.958 172.784667,75.042 172.402,75.21 C172.019333,75.378 171.681,75.616 171.387,75.924 C171.093,76.232 170.857333,76.61 170.68,77.058 C170.502667,77.506 170.414,78.01 170.414,78.57 C170.414,79.1393333 170.500333,79.6456667 170.673,80.089 C170.845667,80.5323333 171.086,80.908 171.394,81.216 C171.702,81.524 172.061333,81.7596667 172.472,81.923 C172.882667,82.0863333 173.326,82.168 173.802,82.168 Z M175.02,77.912 L171.968,77.912 C172.042667,77.352 172.234,76.9273333 172.542,76.638 C172.85,76.3486667 173.209333,76.204 173.62,76.204 C174.096,76.204 174.448333,76.3556667 174.677,76.659 C174.905667,76.9623333 175.02,77.38 175.02,77.912 L175.02,77.912 Z M179.57,82 L179.57,77.8 C179.784667,77.2773333 180.041333,76.911 180.34,76.701 C180.638667,76.491 180.923333,76.386 181.194,76.386 C181.343333,76.386 181.469333,76.3953333 181.572,76.414 C181.674667,76.4326667 181.786667,76.4606667 181.908,76.498 L181.908,76.498 L182.188,75.098 C181.992,75.0046667 181.730667,74.958 181.404,74.958 C181.04,74.958 180.685333,75.077 180.34,75.315 C179.994667,75.553 179.700667,75.896 179.458,76.344 L179.458,76.344 L179.402,76.344 L179.29,75.126 L177.96,75.126 L177.96,82 L179.57,82 Z M187.746,82 L187.746,77.94 L191.456,77.94 L191.456,82 L193.08,82 L193.08,72.844 L191.456,72.844 L191.456,76.526 L187.746,76.526 L187.746,72.844 L186.122,72.844 L186.122,82 L187.746,82 Z M198.078,82.168 C198.507333,82.168 198.920333,82.0886667 199.317,81.93 C199.713667,81.7713333 200.061333,81.538 200.36,81.23 C200.658667,80.922 200.899,80.544 201.081,80.096 C201.263,79.648 201.354,79.1393333 201.354,78.57 C201.354,78.0006667 201.263,77.492 201.081,77.044 C200.899,76.596 200.658667,76.218 200.36,75.91 C200.061333,75.602 199.713667,75.3663333 199.317,75.203 C198.920333,75.0396667 198.507333,74.958 198.078,74.958 C197.648667,74.958 197.238,75.0396667 196.846,75.203 C196.454,75.3663333 196.106333,75.602 195.803,75.91 C195.499667,76.218 195.259333,76.596 195.082,77.044 C194.904667,77.492 194.816,78.0006667 194.816,78.57 C194.816,79.1393333 194.904667,79.648 195.082,80.096 C195.259333,80.544 195.499667,80.922 195.803,81.23 C196.106333,81.538 196.454,81.7713333 196.846,81.93 C197.238,82.0886667 197.648667,82.168 198.078,82.168 Z M198.078,80.852 C197.574,80.852 197.179667,80.6443333 196.895,80.229 C196.610333,79.8136667 196.468,79.2606667 196.468,78.57 C196.468,77.87 196.610333,77.3123333 196.895,76.897 C197.179667,76.4816667 197.574,76.274 198.078,76.274 C198.582,76.274 198.978667,76.4816667 199.268,76.897 C199.557333,77.3123333 199.702,77.87 199.702,78.57 C199.702,79.2606667 199.557333,79.8136667 199.268,80.229 C198.978667,80.6443333 198.582,80.852 198.078,80.852 Z M204.994,82.168 C205.47,82.168 205.883,82.0606667 206.233,81.846 C206.583,81.6313333 206.907333,81.3466667 207.206,80.992 L207.206,80.992 L207.248,80.992 L207.374,82 L208.69,82 L208.69,75.126 L207.08,75.126 L207.08,79.83 C206.818667,80.166 206.573667,80.4086667 206.345,80.558 C206.116333,80.7073333 205.852667,80.782 205.554,80.782 C205.180667,80.782 204.91,80.6653333 204.742,80.432 C204.574,80.1986667 204.49,79.7973333 204.49,79.228 L204.49,79.228 L204.49,75.126 L202.88,75.126 L202.88,79.438 C202.88,80.3153333 203.048,80.9896667 203.384,81.461 C203.72,81.9323333 204.256667,82.168 204.994,82.168 Z M212.652,82.168 C213.081333,82.168 213.464,82.112 213.8,82 C214.136,81.888 214.416,81.7363333 214.64,81.545 C214.864,81.3536667 215.034333,81.1296667 215.151,80.873 C215.267667,80.6163333 215.326,80.3386667 215.326,80.04 C215.326,79.7226667 215.267667,79.4496667 215.151,79.221 C215.034333,78.9923333 214.880333,78.7986667 214.689,78.64 C214.497667,78.4813333 214.285333,78.3483333 214.052,78.241 C213.818667,78.1336667 213.585333,78.038 213.352,77.954 C213.165333,77.8886667 212.985667,77.8233333 212.813,77.758 C212.640333,77.6926667 212.488667,77.6226667 212.358,77.548 C212.227333,77.4733333 212.122333,77.387 212.043,77.289 C211.963667,77.191 211.924,77.072 211.924,76.932 C211.924,76.7173333 212.005667,76.5376667 212.169,76.393 C212.332333,76.2483333 212.586667,76.176 212.932,76.176 C213.202667,76.176 213.461667,76.2296667 213.709,76.337 C213.956333,76.4443333 214.201333,76.5866667 214.444,76.764 L214.444,76.764 L215.186,75.784 C214.906,75.5693333 214.574667,75.378 214.192,75.21 C213.809333,75.042 213.38,74.958 212.904,74.958 C212.129333,74.958 211.518,75.1493333 211.07,75.532 C210.622,75.9146667 210.398,76.4093333 210.398,77.016 C210.398,77.3053333 210.456333,77.555 210.573,77.765 C210.689667,77.975 210.839,78.1593333 211.021,78.318 C211.203,78.4766667 211.410667,78.612 211.644,78.724 C211.877333,78.836 212.106,78.934 212.33,79.018 C212.507333,79.0926667 212.684667,79.165 212.862,79.235 C213.039333,79.305 213.198,79.382 213.338,79.466 C213.478,79.55 213.59,79.6456667 213.674,79.753 C213.758,79.8603333 213.8,79.984 213.8,80.124 C213.8,80.3666667 213.711333,80.565 213.534,80.719 C213.356667,80.873 213.081333,80.95 212.708,80.95 C212.353333,80.95 212.024333,80.8823333 211.721,80.747 C211.417667,80.6116667 211.112,80.4226667 210.804,80.18 L210.804,80.18 L210.048,81.216 C210.384,81.4866667 210.783,81.713 211.245,81.895 C211.707,82.077 212.176,82.168 212.652,82.168 Z M219.708,82.168 C220.146667,82.168 220.566667,82.098 220.968,81.958 C221.369333,81.818 221.733333,81.6406667 222.06,81.426 L222.06,81.426 L221.514,80.418 C221.262,80.5766667 221.007667,80.7003333 220.751,80.789 C220.494333,80.8776667 220.216667,80.922 219.918,80.922 C219.358,80.922 218.898333,80.7563333 218.539,80.425 C218.179667,80.0936667 217.962667,79.62 217.888,79.004 L217.888,79.004 L222.256,79.004 C222.274667,78.92 222.291,78.808 222.305,78.668 C222.319,78.528 222.326,78.3786667 222.326,78.22 C222.326,77.744 222.265333,77.3053333 222.144,76.904 C222.022667,76.5026667 221.843,76.1573333 221.605,75.868 C221.367,75.5786667 221.070667,75.3546667 220.716,75.196 C220.361333,75.0373333 219.950667,74.958 219.484,74.958 C219.082667,74.958 218.690667,75.042 218.308,75.21 C217.925333,75.378 217.587,75.616 217.293,75.924 C216.999,76.232 216.763333,76.61 216.586,77.058 C216.408667,77.506 216.32,78.01 216.32,78.57 C216.32,79.1393333 216.406333,79.6456667 216.579,80.089 C216.751667,80.5323333 216.992,80.908 217.3,81.216 C217.608,81.524 217.967333,81.7596667 218.378,81.923 C218.788667,82.0863333 219.232,82.168 219.708,82.168 Z M220.926,77.912 L217.874,77.912 C217.948667,77.352 218.14,76.9273333 218.448,76.638 C218.756,76.3486667 219.115333,76.204 219.526,76.204 C220.002,76.204 220.354333,76.3556667 220.583,76.659 C220.811667,76.9623333 220.926,77.38 220.926,77.912 L220.926,77.912 Z M225.476,82 L225.476,77.198 C225.765333,76.918 226.024333,76.7056667 226.253,76.561 C226.481667,76.4163333 226.745333,76.344 227.044,76.344 C227.426667,76.344 227.702,76.4606667 227.87,76.694 C228.038,76.9273333 228.122,77.3286667 228.122,77.898 L228.122,77.898 L228.122,82 L229.732,82 L229.732,77.688 C229.732,76.8106667 229.564,76.1363333 229.228,75.665 C228.892,75.1936667 228.355333,74.958 227.618,74.958 C227.142,74.958 226.729,75.063 226.379,75.273 C226.029,75.483 225.709333,75.7233333 225.42,75.994 L225.42,75.994 L225.476,74.664 L225.476,72.116 L223.866,72.116 L223.866,82 L225.476,82 Z M234.492,82.168 C234.921333,82.168 235.334333,82.0886667 235.731,81.93 C236.127667,81.7713333 236.475333,81.538 236.774,81.23 C237.072667,80.922 237.313,80.544 237.495,80.096 C237.677,79.648 237.768,79.1393333 237.768,78.57 C237.768,78.0006667 237.677,77.492 237.495,77.044 C237.313,76.596 237.072667,76.218 236.774,75.91 C236.475333,75.602 236.127667,75.3663333 235.731,75.203 C235.334333,75.0396667 234.921333,74.958 234.492,74.958 C234.062667,74.958 233.652,75.0396667 233.26,75.203 C232.868,75.3663333 232.520333,75.602 232.217,75.91 C231.913667,76.218 231.673333,76.596 231.496,77.044 C231.318667,77.492 231.23,78.0006667 231.23,78.57 C231.23,79.1393333 231.318667,79.648 231.496,80.096 C231.673333,80.544 231.913667,80.922 232.217,81.23 C232.520333,81.538 232.868,81.7713333 233.26,81.93 C233.652,82.0886667 234.062667,82.168 234.492,82.168 Z M234.492,80.852 C233.988,80.852 233.593667,80.6443333 233.309,80.229 C233.024333,79.8136667 232.882,79.2606667 232.882,78.57 C232.882,77.87 233.024333,77.3123333 233.309,76.897 C233.593667,76.4816667 233.988,76.274 234.492,76.274 C234.996,76.274 235.392667,76.4816667 235.682,76.897 C235.971333,77.3123333 236.116,77.87 236.116,78.57 C236.116,79.2606667 235.971333,79.8136667 235.682,80.229 C235.392667,80.6443333 234.996,80.852 234.492,80.852 Z M240.932,82.168 C241.286667,82.168 241.571333,82.1213333 241.786,82.028 L241.786,82.028 L241.576,80.824 C241.510667,80.8426667 241.461667,80.852 241.429,80.852 L241.429,80.852 L241.324,80.852 C241.24,80.852 241.160667,80.8123333 241.086,80.733 C241.011333,80.6536667 240.974,80.516 240.974,80.32 L240.974,80.32 L240.974,72.116 L239.364,72.116 L239.364,80.236 C239.364,80.8333333 239.480667,81.3046667 239.714,81.65 C239.947333,81.9953333 240.353333,82.168 240.932,82.168 Z M245.566,82.168 C245.939333,82.168 246.294,82.0793333 246.63,81.902 C246.966,81.7246667 247.26,81.51 247.512,81.258 L247.512,81.258 L247.568,81.258 L247.68,82 L249.01,82 L249.01,72.116 L247.4,72.116 L247.4,74.608 L247.456,75.714 C247.185333,75.4806667 246.914667,75.2963333 246.644,75.161 C246.373333,75.0256667 246.042,74.958 245.65,74.958 C245.276667,74.958 244.915,75.042 244.565,75.21 C244.215,75.378 243.904667,75.616 243.634,75.924 C243.363333,76.232 243.146333,76.61 242.983,77.058 C242.819667,77.506 242.738,78.01 242.738,78.57 C242.738,79.7086667 242.992333,80.593 243.501,81.223 C244.009667,81.853 244.698,82.168 245.566,82.168 Z M245.958,80.838 C245.454,80.838 245.069,80.6443333 244.803,80.257 C244.537,79.8696667 244.404,79.3026667 244.404,78.556 C244.404,77.828 244.558,77.268 244.866,76.876 C245.174,76.484 245.552,76.288 246,76.288 C246.233333,76.288 246.464333,76.33 246.693,76.414 C246.921667,76.498 247.157333,76.6473333 247.4,76.862 L247.4,76.862 L247.4,80.068 C246.952,80.5813333 246.471333,80.838 245.958,80.838 Z" id="PerHousehold" fill="#555555" fill-rule="nonzero"></path>
                <path d="M165.696,64 C166.377333,64 166.986333,63.902 167.523,63.706 C168.059667,63.51 168.517,63.2183333 168.895,62.831 C169.273,62.4436667 169.562333,61.9606667 169.763,61.382 C169.963667,60.8033333 170.064,60.136 170.064,59.38 C170.064,57.868 169.672,56.734 168.888,55.978 C168.104,55.222 167.012,54.844 165.612,54.844 L165.612,54.844 L163.162,54.844 L163.162,64 L165.696,64 Z M165.5,62.684 L164.786,62.684 L164.786,56.16 L165.5,56.16 C166.424,56.16 167.138,56.4166667 167.642,56.93 C168.146,57.4433333 168.398,58.26 168.398,59.38 C168.398,60.5093333 168.148333,61.3423333 167.649,61.879 C167.149667,62.4156667 166.433333,62.684 165.5,62.684 L165.5,62.684 Z M174.712,64.168 C175.150667,64.168 175.570667,64.098 175.972,63.958 C176.373333,63.818 176.737333,63.6406667 177.064,63.426 L177.064,63.426 L176.518,62.418 C176.266,62.5766667 176.011667,62.7003333 175.755,62.789 C175.498333,62.8776667 175.220667,62.922 174.922,62.922 C174.362,62.922 173.902333,62.7563333 173.543,62.425 C173.183667,62.0936667 172.966667,61.62 172.892,61.004 L172.892,61.004 L177.26,61.004 C177.278667,60.92 177.295,60.808 177.309,60.668 C177.323,60.528 177.33,60.3786667 177.33,60.22 C177.33,59.744 177.269333,59.3053333 177.148,58.904 C177.026667,58.5026667 176.847,58.1573333 176.609,57.868 C176.371,57.5786667 176.074667,57.3546667 175.72,57.196 C175.365333,57.0373333 174.954667,56.958 174.488,56.958 C174.086667,56.958 173.694667,57.042 173.312,57.21 C172.929333,57.378 172.591,57.616 172.297,57.924 C172.003,58.232 171.767333,58.61 171.59,59.058 C171.412667,59.506 171.324,60.01 171.324,60.57 C171.324,61.1393333 171.410333,61.6456667 171.583,62.089 C171.755667,62.5323333 171.996,62.908 172.304,63.216 C172.612,63.524 172.971333,63.7596667 173.382,63.923 C173.792667,64.0863333 174.236,64.168 174.712,64.168 Z M175.93,59.912 L172.878,59.912 C172.952667,59.352 173.144,58.9273333 173.452,58.638 C173.76,58.3486667 174.119333,58.204 174.53,58.204 C175.006,58.204 175.358333,58.3556667 175.587,58.659 C175.815667,58.9623333 175.93,59.38 175.93,59.912 L175.93,59.912 Z M180.704,64 L180.704,58.4 L182.048,58.4 L182.048,57.126 L180.704,57.126 L180.704,56.384 C180.704,55.6093333 180.993333,55.222 181.572,55.222 C181.824,55.222 182.076,55.278 182.328,55.39 L182.328,55.39 L182.636,54.186 C182.477333,54.1206667 182.288333,54.0646667 182.069,54.018 C181.849667,53.9713333 181.618667,53.948 181.376,53.948 C180.965333,53.948 180.617667,54.0086667 180.333,54.13 C180.048333,54.2513333 179.812667,54.4216667 179.626,54.641 C179.439333,54.8603333 179.304,55.1216667 179.22,55.425 C179.136,55.7283333 179.094,56.0573333 179.094,56.412 L179.094,56.412 L179.094,57.126 L178.17,57.196 L178.17,58.4 L179.094,58.4 L179.094,64 L180.704,64 Z M184.064,55.922 C184.353333,55.922 184.591333,55.838 184.778,55.67 C184.964667,55.502 185.058,55.2826667 185.058,55.012 C185.058,54.7413333 184.964667,54.5196667 184.778,54.347 C184.591333,54.1743333 184.353333,54.088 184.064,54.088 C183.774667,54.088 183.536667,54.1743333 183.35,54.347 C183.163333,54.5196667 183.07,54.7413333 183.07,55.012 C183.07,55.2826667 183.163333,55.502 183.35,55.67 C183.536667,55.838 183.774667,55.922 184.064,55.922 Z M184.862,64 L184.862,57.126 L183.252,57.126 L183.252,64 L184.862,64 Z M189.79,64.168 C190.182,64.168 190.571667,64.098 190.959,63.958 C191.346333,63.818 191.703333,63.608 192.03,63.328 L192.03,63.328 L191.372,62.264 C191.176,62.4226667 190.959,62.5603333 190.721,62.677 C190.483,62.7936667 190.228667,62.852 189.958,62.852 C189.416667,62.852 188.975667,62.6443333 188.635,62.229 C188.294333,61.8136667 188.124,61.2606667 188.124,60.57 C188.124,59.87 188.296667,59.3123333 188.642,58.897 C188.987333,58.4816667 189.44,58.274 190,58.274 C190.214667,58.274 190.413,58.3183333 190.595,58.407 C190.777,58.4956667 190.961333,58.6193333 191.148,58.778 L191.148,58.778 L191.932,57.728 C191.68,57.5133333 191.393,57.3313333 191.071,57.182 C190.749,57.0326667 190.364,56.958 189.916,56.958 C189.458667,56.958 189.022333,57.0396667 188.607,57.203 C188.191667,57.3663333 187.825333,57.602 187.508,57.91 C187.190667,58.218 186.938667,58.596 186.752,59.044 C186.565333,59.492 186.472,60.0006667 186.472,60.57 C186.472,61.1393333 186.556,61.648 186.724,62.096 C186.892,62.544 187.125333,62.922 187.424,63.23 C187.722667,63.538 188.075,63.7713333 188.481,63.93 C188.887,64.0886667 189.323333,64.168 189.79,64.168 Z M194.2,55.922 C194.489333,55.922 194.727333,55.838 194.914,55.67 C195.100667,55.502 195.194,55.2826667 195.194,55.012 C195.194,54.7413333 195.100667,54.5196667 194.914,54.347 C194.727333,54.1743333 194.489333,54.088 194.2,54.088 C193.910667,54.088 193.672667,54.1743333 193.486,54.347 C193.299333,54.5196667 193.206,54.7413333 193.206,55.012 C193.206,55.2826667 193.299333,55.502 193.486,55.67 C193.672667,55.838 193.910667,55.922 194.2,55.922 Z M194.998,64 L194.998,57.126 L193.388,57.126 L193.388,64 L194.998,64 Z M199.478,64.168 C199.748667,64.168 200.003,64.1423333 200.241,64.091 C200.479,64.0396667 200.691333,63.9813333 200.878,63.916 L200.878,63.916 L200.598,62.726 C200.495333,62.7726667 200.381,62.81 200.255,62.838 C200.129,62.866 200.005333,62.88 199.884,62.88 C199.24,62.88 198.918,62.4786667 198.918,61.676 L198.918,61.676 L198.918,58.4 L200.668,58.4 L200.668,57.126 L198.918,57.126 L198.918,55.25 L197.574,55.25 L197.378,57.126 L196.314,57.196 L196.314,58.4 L197.294,58.4 L197.294,61.676 C197.294,62.0493333 197.333667,62.3876667 197.413,62.691 C197.492333,62.9943333 197.618333,63.2556667 197.791,63.475 C197.963667,63.6943333 198.187667,63.8646667 198.463,63.986 C198.738333,64.1073333 199.076667,64.168 199.478,64.168 Z M207.724,64.168 C208.237333,64.168 208.697,64.0956667 209.103,63.951 C209.509,63.8063333 209.854333,63.6103333 210.139,63.363 C210.423667,63.1156667 210.640667,62.8286667 210.79,62.502 C210.939333,62.1753333 211.014,61.8253333 211.014,61.452 C211.014,61.116 210.967333,60.8196667 210.874,60.563 C210.780667,60.3063333 210.652333,60.08 210.489,59.884 C210.325667,59.688 210.132,59.5153333 209.908,59.366 C209.684,59.2166667 209.436667,59.086 209.166,58.974 L209.166,58.974 L207.92,58.456 C207.733333,58.3813333 207.551333,58.3043333 207.374,58.225 C207.196667,58.1456667 207.040333,58.057 206.905,57.959 C206.769667,57.861 206.662333,57.749 206.583,57.623 C206.503667,57.497 206.464,57.3453333 206.464,57.168 C206.464,56.832 206.594667,56.5683333 206.856,56.377 C207.117333,56.1856667 207.467333,56.09 207.906,56.09 C208.298,56.09 208.652667,56.16 208.97,56.3 C209.287333,56.44 209.595333,56.6313333 209.894,56.874 L209.894,56.874 L210.72,55.838 C210.365333,55.4833333 209.940667,55.201 209.446,54.991 C208.951333,54.781 208.438,54.676 207.906,54.676 C207.458,54.676 207.045,54.7413333 206.667,54.872 C206.289,55.0026667 205.964667,55.1846667 205.694,55.418 C205.423333,55.6513333 205.211,55.9243333 205.057,56.237 C204.903,56.5496667 204.826,56.888 204.826,57.252 C204.826,57.588 204.879667,57.8866667 204.987,58.148 C205.094333,58.4093333 205.236667,58.638 205.414,58.834 C205.591333,59.03 205.789667,59.198 206.009,59.338 C206.228333,59.478 206.45,59.5946667 206.674,59.688 L206.674,59.688 L207.934,60.234 C208.139333,60.318 208.328333,60.402 208.501,60.486 C208.673667,60.57 208.823,60.661 208.949,60.759 C209.075,60.857 209.173,60.9713333 209.243,61.102 C209.313,61.2326667 209.348,61.3913333 209.348,61.578 C209.348,61.9326667 209.212667,62.2173333 208.942,62.432 C208.671333,62.6466667 208.274667,62.754 207.752,62.754 C207.332,62.754 206.912,62.6583333 206.492,62.467 C206.072,62.2756667 205.698667,62.026 205.372,61.718 L205.372,61.718 L204.42,62.824 C204.858667,63.2533333 205.365,63.5846667 205.939,63.818 C206.513,64.0513333 207.108,64.168 207.724,64.168 Z M214.15,66.716 L214.15,64.56 L214.108,63.412 C214.388,63.6546667 214.677333,63.8413333 214.976,63.972 C215.274667,64.1026667 215.573333,64.168 215.872,64.168 C216.254667,64.168 216.623333,64.084 216.978,63.916 C217.332667,63.748 217.645333,63.5076667 217.916,63.195 C218.186667,62.8823333 218.403667,62.495 218.567,62.033 C218.730333,61.571 218.812,61.046 218.812,60.458 C218.812,59.926 218.751333,59.4453333 218.63,59.016 C218.508667,58.5866667 218.331333,58.218 218.098,57.91 C217.864667,57.602 217.582333,57.3663333 217.251,57.203 C216.919667,57.0396667 216.539333,56.958 216.11,56.958 C215.727333,56.958 215.358667,57.0466667 215.004,57.224 C214.649333,57.4013333 214.327333,57.6113333 214.038,57.854 L214.038,57.854 L213.982,57.854 L213.87,57.126 L212.54,57.126 L212.54,66.716 L214.15,66.716 Z M215.536,62.838 C215.330667,62.838 215.111333,62.796 214.878,62.712 C214.644667,62.628 214.402,62.4786667 214.15,62.264 L214.15,62.264 L214.15,59.058 C214.672667,58.5446667 215.176667,58.288 215.662,58.288 C216.184667,58.288 216.562667,58.4793333 216.796,58.862 C217.029333,59.2446667 217.146,59.7813333 217.146,60.472 C217.146,61.256 216.992,61.8463333 216.684,62.243 C216.376,62.6396667 215.993333,62.838 215.536,62.838 Z M223.376,64.168 C223.814667,64.168 224.234667,64.098 224.636,63.958 C225.037333,63.818 225.401333,63.6406667 225.728,63.426 L225.728,63.426 L225.182,62.418 C224.93,62.5766667 224.675667,62.7003333 224.419,62.789 C224.162333,62.8776667 223.884667,62.922 223.586,62.922 C223.026,62.922 222.566333,62.7563333 222.207,62.425 C221.847667,62.0936667 221.630667,61.62 221.556,61.004 L221.556,61.004 L225.924,61.004 C225.942667,60.92 225.959,60.808 225.973,60.668 C225.987,60.528 225.994,60.3786667 225.994,60.22 C225.994,59.744 225.933333,59.3053333 225.812,58.904 C225.690667,58.5026667 225.511,58.1573333 225.273,57.868 C225.035,57.5786667 224.738667,57.3546667 224.384,57.196 C224.029333,57.0373333 223.618667,56.958 223.152,56.958 C222.750667,56.958 222.358667,57.042 221.976,57.21 C221.593333,57.378 221.255,57.616 220.961,57.924 C220.667,58.232 220.431333,58.61 220.254,59.058 C220.076667,59.506 219.988,60.01 219.988,60.57 C219.988,61.1393333 220.074333,61.6456667 220.247,62.089 C220.419667,62.5323333 220.66,62.908 220.968,63.216 C221.276,63.524 221.635333,63.7596667 222.046,63.923 C222.456667,64.0863333 222.9,64.168 223.376,64.168 Z M224.594,59.912 L221.542,59.912 C221.616667,59.352 221.808,58.9273333 222.116,58.638 C222.424,58.3486667 222.783333,58.204 223.194,58.204 C223.67,58.204 224.022333,58.3556667 224.251,58.659 C224.479667,58.9623333 224.594,59.38 224.594,59.912 L224.594,59.912 Z M229.144,64 L229.144,59.198 C229.433333,58.918 229.692333,58.7056667 229.921,58.561 C230.149667,58.4163333 230.413333,58.344 230.712,58.344 C231.094667,58.344 231.37,58.4606667 231.538,58.694 C231.706,58.9273333 231.79,59.3286667 231.79,59.898 L231.79,59.898 L231.79,64 L233.4,64 L233.4,59.688 C233.4,58.8106667 233.232,58.1363333 232.896,57.665 C232.56,57.1936667 232.023333,56.958 231.286,56.958 C230.81,56.958 230.392333,57.0653333 230.033,57.28 C229.673667,57.4946667 229.34,57.7513333 229.032,58.05 L229.032,58.05 L228.976,58.05 L228.864,57.126 L227.534,57.126 L227.534,64 L229.144,64 Z M237.782,64.168 C238.155333,64.168 238.51,64.0793333 238.846,63.902 C239.182,63.7246667 239.476,63.51 239.728,63.258 L239.728,63.258 L239.784,63.258 L239.896,64 L241.226,64 L241.226,54.116 L239.616,54.116 L239.616,56.608 L239.672,57.714 C239.401333,57.4806667 239.130667,57.2963333 238.86,57.161 C238.589333,57.0256667 238.258,56.958 237.866,56.958 C237.492667,56.958 237.131,57.042 236.781,57.21 C236.431,57.378 236.120667,57.616 235.85,57.924 C235.579333,58.232 235.362333,58.61 235.199,59.058 C235.035667,59.506 234.954,60.01 234.954,60.57 C234.954,61.7086667 235.208333,62.593 235.717,63.223 C236.225667,63.853 236.914,64.168 237.782,64.168 Z M238.174,62.838 C237.67,62.838 237.285,62.6443333 237.019,62.257 C236.753,61.8696667 236.62,61.3026667 236.62,60.556 C236.62,59.828 236.774,59.268 237.082,58.876 C237.39,58.484 237.768,58.288 238.216,58.288 C238.449333,58.288 238.680333,58.33 238.909,58.414 C239.137667,58.498 239.373333,58.6473333 239.616,58.862 L239.616,58.862 L239.616,62.068 C239.168,62.5813333 238.687333,62.838 238.174,62.838 Z M244.082,55.922 C244.371333,55.922 244.609333,55.838 244.796,55.67 C244.982667,55.502 245.076,55.2826667 245.076,55.012 C245.076,54.7413333 244.982667,54.5196667 244.796,54.347 C244.609333,54.1743333 244.371333,54.088 244.082,54.088 C243.792667,54.088 243.554667,54.1743333 243.368,54.347 C243.181333,54.5196667 243.088,54.7413333 243.088,55.012 C243.088,55.2826667 243.181333,55.502 243.368,55.67 C243.554667,55.838 243.792667,55.922 244.082,55.922 Z M244.88,64 L244.88,57.126 L243.27,57.126 L243.27,64 L244.88,64 Z M248.548,64 L248.548,59.198 C248.837333,58.918 249.096333,58.7056667 249.325,58.561 C249.553667,58.4163333 249.817333,58.344 250.116,58.344 C250.498667,58.344 250.774,58.4606667 250.942,58.694 C251.11,58.9273333 251.194,59.3286667 251.194,59.898 L251.194,59.898 L251.194,64 L252.804,64 L252.804,59.688 C252.804,58.8106667 252.636,58.1363333 252.3,57.665 C251.964,57.1936667 251.427333,56.958 250.69,56.958 C250.214,56.958 249.796333,57.0653333 249.437,57.28 C249.077667,57.4946667 248.744,57.7513333 248.436,58.05 L248.436,58.05 L248.38,58.05 L248.268,57.126 L246.938,57.126 L246.938,64 L248.548,64 Z M257.172,67.038 C257.732,67.038 258.238333,66.975 258.691,66.849 C259.143667,66.723 259.528667,66.5526667 259.846,66.338 C260.163333,66.1233333 260.408333,65.8666667 260.581,65.568 C260.753667,65.2693333 260.84,64.952 260.84,64.616 C260.84,64.0186667 260.627667,63.587 260.203,63.321 C259.778333,63.055 259.150667,62.922 258.32,62.922 L258.32,62.922 L257.102,62.922 C256.682,62.922 256.390333,62.866 256.227,62.754 C256.063667,62.642 255.982,62.488 255.982,62.292 C255.982,62.1333333 256.012333,62.0073333 256.073,61.914 C256.133667,61.8206667 256.215333,61.7273333 256.318,61.634 C256.476667,61.6993333 256.635333,61.746 256.794,61.774 C256.952667,61.802 257.106667,61.816 257.256,61.816 C257.62,61.816 257.960667,61.7646667 258.278,61.662 C258.595333,61.5593333 258.870667,61.41 259.104,61.214 C259.337333,61.018 259.521667,60.7753333 259.657,60.486 C259.792333,60.1966667 259.86,59.8606667 259.86,59.478 C259.86,59.2353333 259.822667,59.0136667 259.748,58.813 C259.673333,58.6123333 259.58,58.4466667 259.468,58.316 L259.468,58.316 L260.728,58.316 L260.728,57.126 L258.264,57.126 C258.124,57.0793333 257.967667,57.0396667 257.795,57.007 C257.622333,56.9743333 257.442667,56.958 257.256,56.958 C256.892,56.958 256.546667,57.0116667 256.22,57.119 C255.893333,57.2263333 255.606333,57.385 255.359,57.595 C255.111667,57.805 254.913333,58.064 254.764,58.372 C254.614667,58.68 254.54,59.03 254.54,59.422 C254.54,59.8326667 254.631,60.1943333 254.813,60.507 C254.995,60.8196667 255.202667,61.0646667 255.436,61.242 L255.436,61.242 L255.436,61.298 C255.24,61.438 255.065,61.6176667 254.911,61.837 C254.757,62.0563333 254.68,62.3013333 254.68,62.572 C254.68,62.852 254.738333,63.0853333 254.855,63.272 C254.971667,63.4586667 255.118667,63.608 255.296,63.72 L255.296,63.72 L255.296,63.776 C254.978667,63.972 254.736,64.1936667 254.568,64.441 C254.4,64.6883333 254.316,64.9566667 254.316,65.246 C254.316,65.5446667 254.388333,65.806 254.533,66.03 C254.677667,66.254 254.876,66.4406667 255.128,66.59 C255.38,66.7393333 255.681,66.8513333 256.031,66.926 C256.381,67.0006667 256.761333,67.038 257.172,67.038 Z M257.256,60.808 C256.92,60.808 256.635333,60.689 256.402,60.451 C256.168667,60.213 256.052,59.87 256.052,59.422 C256.052,58.9833333 256.168667,58.6473333 256.402,58.414 C256.635333,58.1806667 256.92,58.064 257.256,58.064 C257.592,58.064 257.874333,58.183 258.103,58.421 C258.331667,58.659 258.446,58.9926667 258.446,59.422 C258.446,59.87 258.329333,60.213 258.096,60.451 C257.862667,60.689 257.582667,60.808 257.256,60.808 Z M257.424,65.988 C256.873333,65.988 256.441667,65.9016667 256.129,65.729 C255.816333,65.5563333 255.66,65.316 255.66,65.008 C255.66,64.672 255.837333,64.3686667 256.192,64.098 C256.444,64.1633333 256.756667,64.196 257.13,64.196 L257.13,64.196 L258.068,64.196 C258.46,64.196 258.761,64.2426667 258.971,64.336 C259.181,64.4293333 259.286,64.6113333 259.286,64.882 C259.286,65.1806667 259.115667,65.4396667 258.775,65.659 C258.434333,65.8783333 257.984,65.988 257.424,65.988 Z" id="DeficitSpending" fill="#555555" fill-rule="nonzero"></path>
                <path d="M277.836,40.168 C278.265333,40.168 278.678333,40.0886667 279.075,39.93 C279.471667,39.7713333 279.819333,39.538 280.118,39.23 C280.416667,38.922 280.657,38.544 280.839,38.096 C281.021,37.648 281.112,37.1393333 281.112,36.57 C281.112,36.0006667 281.021,35.492 280.839,35.044 C280.657,34.596 280.416667,34.218 280.118,33.91 C279.819333,33.602 279.471667,33.3663333 279.075,33.203 C278.678333,33.0396667 278.265333,32.958 277.836,32.958 C277.406667,32.958 276.996,33.0396667 276.604,33.203 C276.212,33.3663333 275.864333,33.602 275.561,33.91 C275.257667,34.218 275.017333,34.596 274.84,35.044 C274.662667,35.492 274.574,36.0006667 274.574,36.57 C274.574,37.1393333 274.662667,37.648 274.84,38.096 C275.017333,38.544 275.257667,38.922 275.561,39.23 C275.864333,39.538 276.212,39.7713333 276.604,39.93 C276.996,40.0886667 277.406667,40.168 277.836,40.168 Z M277.836,38.852 C277.332,38.852 276.937667,38.6443333 276.653,38.229 C276.368333,37.8136667 276.226,37.2606667 276.226,36.57 C276.226,35.87 276.368333,35.3123333 276.653,34.897 C276.937667,34.4816667 277.332,34.274 277.836,34.274 C278.34,34.274 278.736667,34.4816667 279.026,34.897 C279.315333,35.3123333 279.46,35.87 279.46,36.57 C279.46,37.2606667 279.315333,37.8136667 279.026,38.229 C278.736667,38.6443333 278.34,38.852 277.836,38.852 Z M284.542,40 L284.542,34.4 L285.886,34.4 L285.886,33.126 L284.542,33.126 L284.542,32.384 C284.542,31.6093333 284.831333,31.222 285.41,31.222 C285.662,31.222 285.914,31.278 286.166,31.39 L286.166,31.39 L286.474,30.186 C286.315333,30.1206667 286.126333,30.0646667 285.907,30.018 C285.687667,29.9713333 285.456667,29.948 285.214,29.948 C284.803333,29.948 284.455667,30.0086667 284.171,30.13 C283.886333,30.2513333 283.650667,30.4216667 283.464,30.641 C283.277333,30.8603333 283.142,31.1216667 283.058,31.425 C282.974,31.7283333 282.932,32.0573333 282.932,32.412 L282.932,32.412 L282.932,33.126 L282.008,33.196 L282.008,34.4 L282.932,34.4 L282.932,40 L284.542,40 Z" id="of" fill="#555555" fill-rule="nonzero"></path>
                <path d="M171.536,43.52 L171.536,40.224 C173.136,39.9253333 174.362667,39.2586667 175.216,38.224 C176.069333,37.1893333 176.496,35.904 176.496,34.368 C176.496,33.3013333 176.282667,32.4106667 175.856,31.696 C175.429333,30.9813333 174.890667,30.3786667 174.24,29.888 C173.589333,29.3973333 172.890667,28.976 172.144,28.624 C171.397333,28.272 170.698667,27.92 170.048,27.568 C169.397333,27.216 168.858667,26.832 168.432,26.416 C168.005333,26 167.792,25.472 167.792,24.832 C167.792,24 168.037333,23.3653333 168.528,22.928 C169.018667,22.4906667 169.701333,22.272 170.576,22.272 C171.344,22.272 172.005333,22.416 172.56,22.704 C173.114667,22.992 173.690667,23.4133333 174.288,23.968 L174.288,23.968 L176.176,21.824 C175.578667,21.2053333 174.912,20.6666667 174.176,20.208 C173.44,19.7493333 172.56,19.456 171.536,19.328 L171.536,19.328 L171.536,16.128 L168.976,16.128 L168.976,19.392 C167.525333,19.648 166.373333,20.272 165.52,21.264 C164.666667,22.256 164.24,23.4986667 164.24,24.992 C164.24,25.9946667 164.453333,26.832 164.88,27.504 C165.306667,28.176 165.845333,28.752 166.496,29.232 C167.146667,29.712 167.845333,30.128 168.592,30.48 C169.338667,30.832 170.037333,31.2 170.688,31.584 C171.338667,31.968 171.877333,32.3946667 172.304,32.864 C172.730667,33.3333333 172.944,33.92 172.944,34.624 C172.944,35.4986667 172.688,36.176 172.176,36.656 C171.664,37.136 170.885333,37.376 169.84,37.376 C168.965333,37.376 168.144,37.1946667 167.376,36.832 C166.608,36.4693333 165.850667,35.9893333 165.104,35.392 L165.104,35.392 L163.44,37.888 C164.165333,38.5706667 165.024,39.12 166.016,39.536 C167.008,39.952 167.994667,40.2133333 168.976,40.32 L168.976,40.32 L168.976,43.52 L171.536,43.52 Z M193.392,40 L193.392,36.864 L188.4,36.864 C187.909333,36.864 187.354667,36.8906667 186.736,36.944 C186.117333,36.9973333 185.541333,37.0453333 185.008,37.088 C186.010667,36.0213333 186.96,34.9866667 187.856,33.984 C188.752,32.9813333 189.536,32.0053333 190.208,31.056 C190.88,30.1066667 191.413333,29.168 191.808,28.24 C192.202667,27.312 192.4,26.4 192.4,25.504 C192.4,24.5653333 192.245333,23.712 191.936,22.944 C191.626667,22.176 191.194667,21.52 190.64,20.976 C190.085333,20.432 189.413333,20.0106667 188.624,19.712 C187.834667,19.4133333 186.949333,19.264 185.968,19.264 C184.56,19.264 183.36,19.536 182.368,20.08 C181.376,20.624 180.410667,21.3973333 179.472,22.4 L179.472,22.4 L181.52,24.448 C182.074667,23.8293333 182.677333,23.296 183.328,22.848 C183.978667,22.4 184.698667,22.176 185.488,22.176 C186.576,22.176 187.408,22.4906667 187.984,23.12 C188.56,23.7493333 188.848,24.608 188.848,25.696 C188.848,26.464 188.634667,27.2746667 188.208,28.128 C187.781333,28.9813333 187.168,29.8986667 186.368,30.88 C185.568,31.8613333 184.597333,32.928 183.456,34.08 C182.314667,35.232 181.04,36.4906667 179.632,37.856 L179.632,37.856 L179.632,40 L193.392,40 Z M207.856,40 L207.856,34.752 L210.416,34.752 L210.416,31.904 L207.856,31.904 L207.856,19.648 L203.472,19.648 L195.408,32.256 L195.408,34.752 L204.4,34.752 L204.4,40 L207.856,40 Z M204.4,31.904 L199.056,31.904 L202.768,26.24 C203.066667,25.6853333 203.354667,25.152 203.632,24.64 C203.909333,24.128 204.176,23.6053333 204.432,23.072 L204.432,23.072 L204.56,23.072 C204.517333,23.6693333 204.48,24.3733333 204.448,25.184 C204.416,25.9946667 204.4,26.6986667 204.4,27.296 L204.4,27.296 L204.4,31.904 Z M213.552,45.824 C215.152,45.2693333 216.384,44.416 217.248,43.264 C218.112,42.112 218.544,40.7466667 218.544,39.168 C218.544,37.9733333 218.304,37.0453333 217.824,36.384 C217.344,35.7226667 216.666667,35.392 215.792,35.392 C215.109333,35.392 214.528,35.6 214.048,36.016 C213.568,36.432 213.328,36.9813333 213.328,37.664 C213.328,38.3893333 213.568,38.9493333 214.048,39.344 C214.528,39.7386667 215.077333,39.936 215.696,39.936 L215.696,39.936 L215.984,39.936 C216.005333,40.7466667 215.733333,41.4933333 215.168,42.176 C214.602667,42.8586667 213.797333,43.4026667 212.752,43.808 L212.752,43.808 L213.552,45.824 Z M227.728,40.384 C228.709333,40.384 229.632,40.2506667 230.496,39.984 C231.36,39.7173333 232.117333,39.3333333 232.768,38.832 C233.418667,38.3306667 233.930667,37.7173333 234.304,36.992 C234.677333,36.2666667 234.864,35.4346667 234.864,34.496 C234.864,33.152 234.464,32.0533333 233.664,31.2 C232.864,30.3466667 231.856,29.76 230.64,29.44 L230.64,29.44 L230.64,29.312 C231.749333,28.8853333 232.618667,28.288 233.248,27.52 C233.877333,26.752 234.192,25.792 234.192,24.64 C234.192,23.7866667 234.032,23.024 233.712,22.352 C233.392,21.68 232.944,21.1146667 232.368,20.656 C231.792,20.1973333 231.098667,19.8506667 230.288,19.616 C229.477333,19.3813333 228.581333,19.264 227.6,19.264 C226.384,19.264 225.28,19.4986667 224.288,19.968 C223.296,20.4373333 222.362667,21.056 221.488,21.824 L221.488,21.824 L223.376,24.096 C223.994667,23.52 224.629333,23.056 225.28,22.704 C225.930667,22.352 226.661333,22.176 227.472,22.176 C228.410667,22.176 229.146667,22.416 229.68,22.896 C230.213333,23.376 230.48,24.0426667 230.48,24.896 C230.48,25.3653333 230.389333,25.8026667 230.208,26.208 C230.026667,26.6133333 229.728,26.96 229.312,27.248 C228.896,27.536 228.352,27.76 227.68,27.92 C227.008,28.08 226.170667,28.16 225.168,28.16 L225.168,28.16 L225.168,30.848 C226.32,30.848 227.28,30.928 228.048,31.088 C228.816,31.248 229.429333,31.4773333 229.888,31.776 C230.346667,32.0746667 230.672,32.4373333 230.864,32.864 C231.056,33.2906667 231.152,33.7706667 231.152,34.304 C231.152,35.264 230.805333,36.016 230.112,36.56 C229.418667,37.104 228.517333,37.376 227.408,37.376 C226.384,37.376 225.477333,37.1573333 224.688,36.72 C223.898667,36.2826667 223.194667,35.7546667 222.576,35.136 L222.576,35.136 L220.816,37.504 C221.541333,38.3146667 222.458667,38.9973333 223.568,39.552 C224.677333,40.1066667 226.064,40.384 227.728,40.384 Z M244.656,40.384 C246.789333,40.384 248.474667,39.472 249.712,37.648 C250.949333,35.824 251.568,33.184 251.568,29.728 C251.568,26.2933333 250.949333,23.6906667 249.712,21.92 C248.474667,20.1493333 246.789333,19.264 244.656,19.264 C242.522667,19.264 240.837333,20.144 239.6,21.904 C238.362667,23.664 237.744,26.272 237.744,29.728 C237.744,33.184 238.362667,35.824 239.6,37.648 C240.837333,39.472 242.522667,40.384 244.656,40.384 Z M244.656,37.504 C244.165333,37.504 243.712,37.3706667 243.296,37.104 C242.88,36.8373333 242.522667,36.3946667 242.224,35.776 C241.925333,35.1573333 241.690667,34.3573333 241.52,33.376 C241.349333,32.3946667 241.264,31.1786667 241.264,29.728 C241.264,28.2986667 241.349333,27.0986667 241.52,26.128 C241.690667,25.1573333 241.925333,24.3733333 242.224,23.776 C242.522667,23.1786667 242.88,22.7573333 243.296,22.512 C243.712,22.2666667 244.165333,22.144 244.656,22.144 C245.146667,22.144 245.6,22.2666667 246.016,22.512 C246.432,22.7573333 246.789333,23.1786667 247.088,23.776 C247.386667,24.3733333 247.621333,25.1573333 247.792,26.128 C247.962667,27.0986667 248.048,28.2986667 248.048,29.728 C248.048,31.1786667 247.962667,32.3946667 247.792,33.376 C247.621333,34.3573333 247.386667,35.1573333 247.088,35.776 C246.789333,36.3946667 246.432,36.8373333 246.016,37.104 C245.6,37.3706667 245.146667,37.504 244.656,37.504 Z M261.072,40.384 C263.205333,40.384 264.890667,39.472 266.128,37.648 C267.365333,35.824 267.984,33.184 267.984,29.728 C267.984,26.2933333 267.365333,23.6906667 266.128,21.92 C264.890667,20.1493333 263.205333,19.264 261.072,19.264 C258.938667,19.264 257.253333,20.144 256.016,21.904 C254.778667,23.664 254.16,26.272 254.16,29.728 C254.16,33.184 254.778667,35.824 256.016,37.648 C257.253333,39.472 258.938667,40.384 261.072,40.384 Z M261.072,37.504 C260.581333,37.504 260.128,37.3706667 259.712,37.104 C259.296,36.8373333 258.938667,36.3946667 258.64,35.776 C258.341333,35.1573333 258.106667,34.3573333 257.936,33.376 C257.765333,32.3946667 257.68,31.1786667 257.68,29.728 C257.68,28.2986667 257.765333,27.0986667 257.936,26.128 C258.106667,25.1573333 258.341333,24.3733333 258.64,23.776 C258.938667,23.1786667 259.296,22.7573333 259.712,22.512 C260.128,22.2666667 260.581333,22.144 261.072,22.144 C261.562667,22.144 262.016,22.2666667 262.432,22.512 C262.848,22.7573333 263.205333,23.1786667 263.504,23.776 C263.802667,24.3733333 264.037333,25.1573333 264.208,26.128 C264.378667,27.0986667 264.464,28.2986667 264.464,29.728 C264.464,31.1786667 264.378667,32.3946667 264.208,33.376 C264.037333,34.3573333 263.802667,35.1573333 263.504,35.776 C263.205333,36.3946667 262.848,36.8373333 262.432,37.104 C262.016,37.3706667 261.562667,37.504 261.072,37.504 Z" id="$24,300" fill="#B3532D" fill-rule="nonzero"></path>
                <g id="Icon/Close" transform="translate(129.000000, 34.000000)" fill="#B3532D">
                    <path d="M10.5847185,8.99808182 L15.4175482,4.17649135 C15.8582597,3.7357798 15.8582597,3.02124521 15.4175482,2.58053366 C14.9768366,2.13982211 14.262302,2.13982211 13.8215905,2.58053366 L9,7.41336327 L4.17840952,2.58053366 C3.73769798,2.13982212 3.02316339,2.13982213 2.58245185,2.58053367 C2.14174031,3.02124521 2.1417403,3.7357798 2.58245184,4.17649135 L7.41528145,8.99808182 L2.58245184,13.8196723 C2.36968072,14.0307058 2.25,14.3179735 2.25,14.6176511 C2.25,14.9173288 2.36968072,15.2045965 2.58245184,15.41563 C2.79348532,15.6284011 3.08075306,15.7480818 3.38043068,15.7480818 C3.6801083,15.7480818 3.96737604,15.6284011 4.17840952,15.41563 L9,10.5828004 L13.8215905,15.41563 C14.032624,15.6284011 14.3198917,15.7480818 14.6195693,15.7480818 C14.9192469,15.7480818 15.2065147,15.6284011 15.4175482,15.41563 C15.6303193,15.2045965 15.75,14.9173288 15.75,14.6176511 C15.75,14.3179735 15.6303193,14.0307058 15.4175482,13.8196723 L10.5847185,8.99808182 Z" id="Icon-Path"></path>
                </g>
            </g>
        </g>
    </g>
</svg>