<?xml version="1.0" encoding="UTF-8"?>
<svg width="259px" height="71px" viewBox="0 0 259 71" version="1.1" xmlns="http://www.w3.org/2000/svg" xmlns:xlink="http://www.w3.org/1999/xlink">
    <title>anecdote-deficit-1</title>
    <g id="02.-Anecdote-Cards" stroke="none" stroke-width="1" fill="none" fill-rule="evenodd">
        <g id="Anecdote-Cards-(Desktop/Tablet)---SVG" transform="translate(-156.000000, -1634.000000)" fill-rule="nonzero">
            <g id="anecdote-deficit-1" transform="translate(156.000000, 1634.000000)">
                <path d="M78.8184028,2 L7.18159722,2 C3.21006944,2 0,5.21540179 0,9.17857143 L0,61.8214286 C0,65.7845982 3.21006944,69 7.18159722,69 L78.8184028,69 C82.7899306,69 86,65.7845982 86,61.8214286 L86,9.17857143 C86,5.21540179 82.7899306,2 78.8184028,2 Z M7.90037516,9 L78.0996248,9 C78.5948312,9 79,9.39375 79,9.875 L79,16 L7,16 L7,9.875 C7,9.39375 7.40516882,9 7.90037516,9 Z M78.0996248,62 L7.90037516,62 C7.40516882,62 7,61.6011364 7,61.1136364 L7,36 L79,36 L79,61.1136364 C79,61.6011364 78.5948312,62 78.0996248,62 Z M29,46.875 L29,53.125 C29,54.15625 28.2125,55 27.25,55 L16.75,55 C15.7875,55 15,54.15625 15,53.125 L15,46.875 C15,45.84375 15.7875,45 16.75,45 L27.25,45 C28.2125,45 29,45.84375 29,46.875 Z M57,46.875 L57,53.125 C57,54.15625 56.19,55 55.2,55 L34.8,55 C33.81,55 33,54.15625 33,53.125 L33,46.875 C33,45.84375 33.81,45 34.8,45 L55.2,45 C56.19,45 57,45.84375 57,46.875 Z" id="Shape" fill="#B3532D"></path>
                <path d="M103.786,10 L103.786,0.844 L102.162,0.844 L102.162,10 L103.786,10 Z M107.58,10 L107.58,5.198 C107.869333,4.918 108.128333,4.70566667 108.357,4.561 C108.585667,4.41633333 108.849333,4.344 109.148,4.344 C109.530667,4.344 109.806,4.46066667 109.974,4.694 C110.142,4.92733333 110.226,5.32866667 110.226,5.898 L110.226,5.898 L110.226,10 L111.836,10 L111.836,5.688 C111.836,4.81066667 111.668,4.13633333 111.332,3.665 C110.996,3.19366667 110.459333,2.958 109.722,2.958 C109.246,2.958 108.828333,3.06533333 108.469,3.28 C108.109667,3.49466667 107.776,3.75133333 107.468,4.05 L107.468,4.05 L107.412,4.05 L107.3,3.126 L105.97,3.126 L105.97,10 L107.58,10 Z M122.14,10 L122.14,8.628 L119.956,8.628 C119.741333,8.628 119.498667,8.63966667 119.228,8.663 C118.957333,8.68633333 118.705333,8.70733333 118.472,8.726 C118.910667,8.25933333 119.326,7.80666667 119.718,7.368 C120.11,6.92933333 120.453,6.50233333 120.747,6.087 C121.041,5.67166667 121.274333,5.261 121.447,4.855 C121.619667,4.449 121.706,4.05 121.706,3.658 C121.706,3.24733333 121.638333,2.874 121.503,2.538 C121.367667,2.202 121.178667,1.915 120.936,1.677 C120.693333,1.439 120.399333,1.25466667 120.054,1.124 C119.708667,0.993333333 119.321333,0.928 118.892,0.928 C118.276,0.928 117.751,1.047 117.317,1.285 C116.883,1.523 116.460667,1.86133333 116.05,2.3 L116.05,2.3 L116.946,3.196 C117.188667,2.92533333 117.452333,2.692 117.737,2.496 C118.021667,2.3 118.336667,2.202 118.682,2.202 C119.158,2.202 119.522,2.33966667 119.774,2.615 C120.026,2.89033333 120.152,3.266 120.152,3.742 C120.152,4.078 120.058667,4.43266667 119.872,4.806 C119.685333,5.17933333 119.417,5.58066667 119.067,6.01 C118.717,6.43933333 118.292333,6.906 117.793,7.41 C117.293667,7.914 116.736,8.46466667 116.12,9.062 L116.12,9.062 L116.12,10 L122.14,10 Z M126.354,10.168 C127.287333,10.168 128.024667,9.769 128.566,8.971 C129.107333,8.173 129.378,7.018 129.378,5.506 C129.378,4.00333333 129.107333,2.86466667 128.566,2.09 C128.024667,1.31533333 127.287333,0.928 126.354,0.928 C125.420667,0.928 124.683333,1.313 124.142,2.083 C123.600667,2.853 123.33,3.994 123.33,5.506 C123.33,7.018 123.600667,8.173 124.142,8.971 C124.683333,9.769 125.420667,10.168 126.354,10.168 Z M126.354,8.908 C126.139333,8.908 125.941,8.84966667 125.759,8.733 C125.577,8.61633333 125.420667,8.42266667 125.29,8.152 C125.159333,7.88133333 125.056667,7.53133333 124.982,7.102 C124.907333,6.67266667 124.87,6.14066667 124.87,5.506 C124.87,4.88066667 124.907333,4.35566667 124.982,3.931 C125.056667,3.50633333 125.159333,3.16333333 125.29,2.902 C125.420667,2.64066667 125.577,2.45633333 125.759,2.349 C125.941,2.24166667 126.139333,2.188 126.354,2.188 C126.568667,2.188 126.767,2.24166667 126.949,2.349 C127.131,2.45633333 127.287333,2.64066667 127.418,2.902 C127.548667,3.16333333 127.651333,3.50633333 127.726,3.931 C127.800667,4.35566667 127.838,4.88066667 127.838,5.506 C127.838,6.14066667 127.800667,6.67266667 127.726,7.102 C127.651333,7.53133333 127.548667,7.88133333 127.418,8.152 C127.287333,8.42266667 127.131,8.61633333 126.949,8.733 C126.767,8.84966667 126.568667,8.908 126.354,8.908 Z M136.504,10 L136.504,8.628 L134.32,8.628 C134.105333,8.628 133.862667,8.63966667 133.592,8.663 C133.321333,8.68633333 133.069333,8.70733333 132.836,8.726 C133.274667,8.25933333 133.69,7.80666667 134.082,7.368 C134.474,6.92933333 134.817,6.50233333 135.111,6.087 C135.405,5.67166667 135.638333,5.261 135.811,4.855 C135.983667,4.449 136.07,4.05 136.07,3.658 C136.07,3.24733333 136.002333,2.874 135.867,2.538 C135.731667,2.202 135.542667,1.915 135.3,1.677 C135.057333,1.439 134.763333,1.25466667 134.418,1.124 C134.072667,0.993333333 133.685333,0.928 133.256,0.928 C132.64,0.928 132.115,1.047 131.681,1.285 C131.247,1.523 130.824667,1.86133333 130.414,2.3 L130.414,2.3 L131.31,3.196 C131.552667,2.92533333 131.816333,2.692 132.101,2.496 C132.385667,2.3 132.700667,2.202 133.046,2.202 C133.522,2.202 133.886,2.33966667 134.138,2.615 C134.39,2.89033333 134.516,3.266 134.516,3.742 C134.516,4.078 134.422667,4.43266667 134.236,4.806 C134.049333,5.17933333 133.781,5.58066667 133.431,6.01 C133.081,6.43933333 132.656333,6.906 132.157,7.41 C131.657667,7.914 131.1,8.46466667 130.484,9.062 L130.484,9.062 L130.484,10 L136.504,10 Z M140.718,10.168 C141.651333,10.168 142.388667,9.769 142.93,8.971 C143.471333,8.173 143.742,7.018 143.742,5.506 C143.742,4.00333333 143.471333,2.86466667 142.93,2.09 C142.388667,1.31533333 141.651333,0.928 140.718,0.928 C139.784667,0.928 139.047333,1.313 138.506,2.083 C137.964667,2.853 137.694,3.994 137.694,5.506 C137.694,7.018 137.964667,8.173 138.506,8.971 C139.047333,9.769 139.784667,10.168 140.718,10.168 Z M140.718,8.908 C140.503333,8.908 140.305,8.84966667 140.123,8.733 C139.941,8.61633333 139.784667,8.42266667 139.654,8.152 C139.523333,7.88133333 139.420667,7.53133333 139.346,7.102 C139.271333,6.67266667 139.234,6.14066667 139.234,5.506 C139.234,4.88066667 139.271333,4.35566667 139.346,3.931 C139.420667,3.50633333 139.523333,3.16333333 139.654,2.902 C139.784667,2.64066667 139.941,2.45633333 140.123,2.349 C140.305,2.24166667 140.503333,2.188 140.718,2.188 C140.932667,2.188 141.131,2.24166667 141.313,2.349 C141.495,2.45633333 141.651333,2.64066667 141.782,2.902 C141.912667,3.16333333 142.015333,3.50633333 142.09,3.931 C142.164667,4.35566667 142.202,4.88066667 142.202,5.506 C142.202,6.14066667 142.164667,6.67266667 142.09,7.102 C142.015333,7.53133333 141.912667,7.88133333 141.782,8.152 C141.651333,8.42266667 141.495,8.61633333 141.313,8.733 C141.131,8.84966667 140.932667,8.908 140.718,8.908 Z M145.324,12.548 C146.024,12.3053333 146.563,11.932 146.941,11.428 C147.319,10.924 147.508,10.3266667 147.508,9.636 C147.508,9.11333333 147.403,8.70733333 147.193,8.418 C146.983,8.12866667 146.686667,7.984 146.304,7.984 C146.005333,7.984 145.751,8.075 145.541,8.257 C145.331,8.439 145.226,8.67933333 145.226,8.978 C145.226,9.29533333 145.331,9.54033333 145.541,9.713 C145.751,9.88566667 145.991333,9.972 146.262,9.972 L146.262,9.972 L146.388,9.972 C146.397333,10.3266667 146.278333,10.6533333 146.031,10.952 C145.783667,11.2506667 145.431333,11.4886667 144.974,11.666 L144.974,11.666 L145.324,12.548 Z M152.59,10 L153.304,7.522 L156.384,7.522 L157.098,10 L158.806,10 L155.824,0.844 L153.92,0.844 L150.938,10 L152.59,10 Z M156.02,6.248 L153.682,6.248 L154.004,5.128 C154.153333,4.64266667 154.293333,4.14566667 154.424,3.637 C154.554667,3.12833333 154.685333,2.61733333 154.816,2.104 L154.816,2.104 L154.872,2.104 C155.002667,2.608 155.135667,3.11666667 155.271,3.63 C155.406333,4.14333333 155.548667,4.64266667 155.698,5.128 L155.698,5.128 L156.02,6.248 Z M161.41,10 L161.41,5.198 C161.942,4.62866667 162.422667,4.344 162.852,4.344 C163.216,4.344 163.484333,4.46066667 163.657,4.694 C163.829667,4.92733333 163.916,5.32866667 163.916,5.898 L163.916,5.898 L163.916,10 L165.526,10 L165.526,5.198 C166.058,4.62866667 166.538667,4.344 166.968,4.344 C167.322667,4.344 167.586333,4.46066667 167.759,4.694 C167.931667,4.92733333 168.018,5.32866667 168.018,5.898 L168.018,5.898 L168.018,10 L169.642,10 L169.642,5.688 C169.642,4.81066667 169.469333,4.13633333 169.124,3.665 C168.778667,3.19366667 168.242,2.958 167.514,2.958 C167.075333,2.958 166.678667,3.07466667 166.324,3.308 C165.969333,3.54133333 165.628667,3.83533333 165.302,4.19 C165.143333,3.798 164.912333,3.49466667 164.609,3.28 C164.305667,3.06533333 163.902,2.958 163.398,2.958 C162.968667,2.958 162.583667,3.06533333 162.243,3.28 C161.902333,3.49466667 161.587333,3.756 161.298,4.064 L161.298,4.064 L161.242,4.064 L161.13,3.126 L159.8,3.126 L159.8,10 L161.41,10 Z M174.542,10.168 C174.980667,10.168 175.400667,10.098 175.802,9.958 C176.203333,9.818 176.567333,9.64066667 176.894,9.426 L176.894,9.426 L176.348,8.418 C176.096,8.57666667 175.841667,8.70033333 175.585,8.789 C175.328333,8.87766667 175.050667,8.922 174.752,8.922 C174.192,8.922 173.732333,8.75633333 173.373,8.425 C173.013667,8.09366667 172.796667,7.62 172.722,7.004 L172.722,7.004 L177.09,7.004 C177.108667,6.92 177.125,6.808 177.139,6.668 C177.153,6.528 177.16,6.37866667 177.16,6.22 C177.16,5.744 177.099333,5.30533333 176.978,4.904 C176.856667,4.50266667 176.677,4.15733333 176.439,3.868 C176.201,3.57866667 175.904667,3.35466667 175.55,3.196 C175.195333,3.03733333 174.784667,2.958 174.318,2.958 C173.916667,2.958 173.524667,3.042 173.142,3.21 C172.759333,3.378 172.421,3.616 172.127,3.924 C171.833,4.232 171.597333,4.61 171.42,5.058 C171.242667,5.506 171.154,6.01 171.154,6.57 C171.154,7.13933333 171.240333,7.64566667 171.413,8.089 C171.585667,8.53233333 171.826,8.908 172.134,9.216 C172.442,9.524 172.801333,9.75966667 173.212,9.923 C173.622667,10.0863333 174.066,10.168 174.542,10.168 Z M175.76,5.912 L172.708,5.912 C172.782667,5.352 172.974,4.92733333 173.282,4.638 C173.59,4.34866667 173.949333,4.204 174.36,4.204 C174.836,4.204 175.188333,4.35566667 175.417,4.659 C175.645667,4.96233333 175.76,5.38 175.76,5.912 L175.76,5.912 Z M180.31,10 L180.31,5.8 C180.524667,5.27733333 180.781333,4.911 181.08,4.701 C181.378667,4.491 181.663333,4.386 181.934,4.386 C182.083333,4.386 182.209333,4.39533333 182.312,4.414 C182.414667,4.43266667 182.526667,4.46066667 182.648,4.498 L182.648,4.498 L182.928,3.098 C182.732,3.00466667 182.470667,2.958 182.144,2.958 C181.78,2.958 181.425333,3.077 181.08,3.315 C180.734667,3.553 180.440667,3.896 180.198,4.344 L180.198,4.344 L180.142,4.344 L180.03,3.126 L178.7,3.126 L178.7,10 L180.31,10 Z M184.734,1.922 C185.023333,1.922 185.261333,1.838 185.448,1.67 C185.634667,1.502 185.728,1.28266667 185.728,1.012 C185.728,0.741333333 185.634667,0.519666667 185.448,0.347 C185.261333,0.174333333 185.023333,0.088 184.734,0.088 C184.444667,0.088 184.206667,0.174333333 184.02,0.347 C183.833333,0.519666667 183.74,0.741333333 183.74,1.012 C183.74,1.28266667 183.833333,1.502 184.02,1.67 C184.206667,1.838 184.444667,1.922 184.734,1.922 Z M185.532,10 L185.532,3.126 L183.922,3.126 L183.922,10 L185.532,10 Z M190.46,10.168 C190.852,10.168 191.241667,10.098 191.629,9.958 C192.016333,9.818 192.373333,9.608 192.7,9.328 L192.7,9.328 L192.042,8.264 C191.846,8.42266667 191.629,8.56033333 191.391,8.677 C191.153,8.79366667 190.898667,8.852 190.628,8.852 C190.086667,8.852 189.645667,8.64433333 189.305,8.229 C188.964333,7.81366667 188.794,7.26066667 188.794,6.57 C188.794,5.87 188.966667,5.31233333 189.312,4.897 C189.657333,4.48166667 190.11,4.274 190.67,4.274 C190.884667,4.274 191.083,4.31833333 191.265,4.407 C191.447,4.49566667 191.631333,4.61933333 191.818,4.778 L191.818,4.778 L192.602,3.728 C192.35,3.51333333 192.063,3.33133333 191.741,3.182 C191.419,3.03266667 191.034,2.958 190.586,2.958 C190.128667,2.958 189.692333,3.03966667 189.277,3.203 C188.861667,3.36633333 188.495333,3.602 188.178,3.91 C187.860667,4.218 187.608667,4.596 187.422,5.044 C187.235333,5.492 187.142,6.00066667 187.142,6.57 C187.142,7.13933333 187.226,7.648 187.394,8.096 C187.562,8.544 187.795333,8.922 188.094,9.23 C188.392667,9.538 188.745,9.77133333 189.151,9.93 C189.557,10.0886667 189.993333,10.168 190.46,10.168 Z M195.584,10.168 C195.994667,10.168 196.375,10.0793333 196.725,9.902 C197.075,9.72466667 197.404,9.50533333 197.712,9.244 L197.712,9.244 L197.768,9.244 L197.88,10 L199.21,10 L199.21,5.926 C199.21,4.96466667 198.997667,4.22966667 198.573,3.721 C198.148333,3.21233333 197.506667,2.958 196.648,2.958 C196.097333,2.958 195.584,3.04666667 195.108,3.224 C194.632,3.40133333 194.202667,3.61133333 193.82,3.854 L193.82,3.854 L194.408,4.932 C194.716,4.74533333 195.031,4.58666667 195.353,4.456 C195.675,4.32533333 196.004,4.26 196.34,4.26 C196.573333,4.26 196.769333,4.295 196.928,4.365 C197.086667,4.435 197.215,4.533 197.313,4.659 C197.411,4.785 197.481,4.92966667 197.523,5.093 C197.565,5.25633333 197.590667,5.42666667 197.6,5.604 C196.890667,5.67866667 196.281667,5.786 195.773,5.926 C195.264333,6.066 194.844333,6.23866667 194.513,6.444 C194.181667,6.64933333 193.939,6.89433333 193.785,7.179 C193.631,7.46366667 193.554,7.788 193.554,8.152 C193.554,8.75866667 193.740667,9.24633333 194.114,9.615 C194.487333,9.98366667 194.977333,10.168 195.584,10.168 Z M196.102,8.908 C195.812667,8.908 195.574667,8.838 195.388,8.698 C195.201333,8.558 195.108,8.334 195.108,8.026 C195.108,7.858 195.15,7.69933333 195.234,7.55 C195.318,7.40066667 195.458,7.26766667 195.654,7.151 C195.85,7.03433333 196.106667,6.92933333 196.424,6.836 C196.741333,6.74266667 197.133333,6.668 197.6,6.612 L197.6,6.612 L197.6,8.152 C197.338667,8.39466667 197.093667,8.58133333 196.865,8.712 C196.636333,8.84266667 196.382,8.908 196.102,8.908 Z M202.752,10 L202.752,5.198 C203.041333,4.918 203.300333,4.70566667 203.529,4.561 C203.757667,4.41633333 204.021333,4.344 204.32,4.344 C204.702667,4.344 204.978,4.46066667 205.146,4.694 C205.314,4.92733333 205.398,5.32866667 205.398,5.898 L205.398,5.898 L205.398,10 L207.008,10 L207.008,5.688 C207.008,4.81066667 206.84,4.13633333 206.504,3.665 C206.168,3.19366667 205.631333,2.958 204.894,2.958 C204.418,2.958 204.000333,3.06533333 203.641,3.28 C203.281667,3.49466667 202.948,3.75133333 202.64,4.05 L202.64,4.05 L202.584,4.05 L202.472,3.126 L201.142,3.126 L201.142,10 L202.752,10 Z M210.9,10.168 C211.329333,10.168 211.712,10.112 212.048,10 C212.384,9.888 212.664,9.73633333 212.888,9.545 C213.112,9.35366667 213.282333,9.12966667 213.399,8.873 C213.515667,8.61633333 213.574,8.33866667 213.574,8.04 C213.574,7.72266667 213.515667,7.44966667 213.399,7.221 C213.282333,6.99233333 213.128333,6.79866667 212.937,6.64 C212.745667,6.48133333 212.533333,6.34833333 212.3,6.241 C212.066667,6.13366667 211.833333,6.038 211.6,5.954 C211.413333,5.88866667 211.233667,5.82333333 211.061,5.758 C210.888333,5.69266667 210.736667,5.62266667 210.606,5.548 C210.475333,5.47333333 210.370333,5.387 210.291,5.289 C210.211667,5.191 210.172,5.072 210.172,4.932 C210.172,4.71733333 210.253667,4.53766667 210.417,4.393 C210.580333,4.24833333 210.834667,4.176 211.18,4.176 C211.450667,4.176 211.709667,4.22966667 211.957,4.337 C212.204333,4.44433333 212.449333,4.58666667 212.692,4.764 L212.692,4.764 L213.434,3.784 C213.154,3.56933333 212.822667,3.378 212.44,3.21 C212.057333,3.042 211.628,2.958 211.152,2.958 C210.377333,2.958 209.766,3.14933333 209.318,3.532 C208.87,3.91466667 208.646,4.40933333 208.646,5.016 C208.646,5.30533333 208.704333,5.555 208.821,5.765 C208.937667,5.975 209.087,6.15933333 209.269,6.318 C209.451,6.47666667 209.658667,6.612 209.892,6.724 C210.125333,6.836 210.354,6.934 210.578,7.018 C210.755333,7.09266667 210.932667,7.165 211.11,7.235 C211.287333,7.305 211.446,7.382 211.586,7.466 C211.726,7.55 211.838,7.64566667 211.922,7.753 C212.006,7.86033333 212.048,7.984 212.048,8.124 C212.048,8.36666667 211.959333,8.565 211.782,8.719 C211.604667,8.873 211.329333,8.95 210.956,8.95 C210.601333,8.95 210.272333,8.88233333 209.969,8.747 C209.665667,8.61166667 209.36,8.42266667 209.052,8.18 L209.052,8.18 L208.296,9.216 C208.632,9.48666667 209.031,9.713 209.493,9.895 C209.955,10.077 210.424,10.168 210.9,10.168 Z M219.58,10 L219.58,5.94 L223.29,5.94 L223.29,10 L224.914,10 L224.914,0.844 L223.29,0.844 L223.29,4.526 L219.58,4.526 L219.58,0.844 L217.956,0.844 L217.956,10 L219.58,10 Z M230.038,10.168 C230.476667,10.168 230.896667,10.098 231.298,9.958 C231.699333,9.818 232.063333,9.64066667 232.39,9.426 L232.39,9.426 L231.844,8.418 C231.592,8.57666667 231.337667,8.70033333 231.081,8.789 C230.824333,8.87766667 230.546667,8.922 230.248,8.922 C229.688,8.922 229.228333,8.75633333 228.869,8.425 C228.509667,8.09366667 228.292667,7.62 228.218,7.004 L228.218,7.004 L232.586,7.004 C232.604667,6.92 232.621,6.808 232.635,6.668 C232.649,6.528 232.656,6.37866667 232.656,6.22 C232.656,5.744 232.595333,5.30533333 232.474,4.904 C232.352667,4.50266667 232.173,4.15733333 231.935,3.868 C231.697,3.57866667 231.400667,3.35466667 231.046,3.196 C230.691333,3.03733333 230.280667,2.958 229.814,2.958 C229.412667,2.958 229.020667,3.042 228.638,3.21 C228.255333,3.378 227.917,3.616 227.623,3.924 C227.329,4.232 227.093333,4.61 226.916,5.058 C226.738667,5.506 226.65,6.01 226.65,6.57 C226.65,7.13933333 226.736333,7.64566667 226.909,8.089 C227.081667,8.53233333 227.322,8.908 227.63,9.216 C227.938,9.524 228.297333,9.75966667 228.708,9.923 C229.118667,10.0863333 229.562,10.168 230.038,10.168 Z M231.256,5.912 L228.204,5.912 C228.278667,5.352 228.47,4.92733333 228.778,4.638 C229.086,4.34866667 229.445333,4.204 229.856,4.204 C230.332,4.204 230.684333,4.35566667 230.913,4.659 C231.141667,4.96233333 231.256,5.38 231.256,5.912 L231.256,5.912 Z M235.764,10.168 C236.118667,10.168 236.403333,10.1213333 236.618,10.028 L236.618,10.028 L236.408,8.824 C236.342667,8.84266667 236.293667,8.852 236.261,8.852 L236.261,8.852 L236.156,8.852 C236.072,8.852 235.992667,8.81233333 235.918,8.733 C235.843333,8.65366667 235.806,8.516 235.806,8.32 L235.806,8.32 L235.806,0.116 L234.196,0.116 L234.196,8.236 C234.196,8.83333333 234.312667,9.30466667 234.546,9.65 C234.779333,9.99533333 235.185333,10.168 235.764,10.168 Z M240.398,10.168 C240.771333,10.168 241.126,10.0793333 241.462,9.902 C241.798,9.72466667 242.092,9.51 242.344,9.258 L242.344,9.258 L242.4,9.258 L242.512,10 L243.842,10 L243.842,0.116 L242.232,0.116 L242.232,2.608 L242.288,3.714 C242.017333,3.48066667 241.746667,3.29633333 241.476,3.161 C241.205333,3.02566667 240.874,2.958 240.482,2.958 C240.108667,2.958 239.747,3.042 239.397,3.21 C239.047,3.378 238.736667,3.616 238.466,3.924 C238.195333,4.232 237.978333,4.61 237.815,5.058 C237.651667,5.506 237.57,6.01 237.57,6.57 C237.57,7.70866667 237.824333,8.593 238.333,9.223 C238.841667,9.853 239.53,10.168 240.398,10.168 Z M240.79,8.838 C240.286,8.838 239.901,8.64433333 239.635,8.257 C239.369,7.86966667 239.236,7.30266667 239.236,6.556 C239.236,5.828 239.39,5.268 239.698,4.876 C240.006,4.484 240.384,4.288 240.832,4.288 C241.065333,4.288 241.296333,4.33 241.525,4.414 C241.753667,4.498 241.989333,4.64733333 242.232,4.862 L242.232,4.862 L242.232,8.068 C241.784,8.58133333 241.303333,8.838 240.79,8.838 Z" id="In2020,AmericansHeld" fill="#555555"></path>
                <path d="M102.834,61.922 C103.123333,61.922 103.361333,61.838 103.548,61.67 C103.734667,61.502 103.828,61.2826667 103.828,61.012 C103.828,60.7413333 103.734667,60.5196667 103.548,60.347 C103.361333,60.1743333 103.123333,60.088 102.834,60.088 C102.544667,60.088 102.306667,60.1743333 102.12,60.347 C101.933333,60.5196667 101.84,60.7413333 101.84,61.012 C101.84,61.2826667 101.933333,61.502 102.12,61.67 C102.306667,61.838 102.544667,61.922 102.834,61.922 Z M103.632,70 L103.632,63.126 L102.022,63.126 L102.022,70 L103.632,70 Z M107.3,70 L107.3,65.198 C107.589333,64.918 107.848333,64.7056667 108.077,64.561 C108.305667,64.4163333 108.569333,64.344 108.868,64.344 C109.250667,64.344 109.526,64.4606667 109.694,64.694 C109.862,64.9273333 109.946,65.3286667 109.946,65.898 L109.946,65.898 L109.946,70 L111.556,70 L111.556,65.688 C111.556,64.8106667 111.388,64.1363333 111.052,63.665 C110.716,63.1936667 110.179333,62.958 109.442,62.958 C108.966,62.958 108.548333,63.0653333 108.189,63.28 C107.829667,63.4946667 107.496,63.7513333 107.188,64.05 L107.188,64.05 L107.132,64.05 L107.02,63.126 L105.69,63.126 L105.69,70 L107.3,70 Z M120.124,70.168 C120.712,70.168 121.246333,70.0536667 121.727,69.825 C122.207667,69.5963333 122.634667,69.2673333 123.008,68.838 L123.008,68.838 L122.14,67.816 C121.878667,68.096 121.589333,68.3223333 121.272,68.495 C120.954667,68.6676667 120.590667,68.754 120.18,68.754 C119.405333,68.754 118.791667,68.4576667 118.339,67.865 C117.886333,67.2723333 117.66,66.4533333 117.66,65.408 C117.66,64.8946667 117.723,64.4326667 117.849,64.022 C117.975,63.6113333 118.152333,63.2636667 118.381,62.979 C118.609667,62.6943333 118.880333,62.475 119.193,62.321 C119.505667,62.167 119.848667,62.09 120.222,62.09 C120.576667,62.09 120.894,62.1623333 121.174,62.307 C121.454,62.4516667 121.715333,62.6453333 121.958,62.888 L121.958,62.888 L122.826,61.838 C122.536667,61.53 122.168,61.2593333 121.72,61.026 C121.272,60.7926667 120.758667,60.676 120.18,60.676 C119.601333,60.676 119.057667,60.7833333 118.549,60.998 C118.040333,61.2126667 117.597,61.5253333 117.219,61.936 C116.841,62.3466667 116.542333,62.8483333 116.323,63.441 C116.103667,64.0336667 115.994,64.7033333 115.994,65.45 C115.994,66.206 116.101333,66.878 116.316,67.466 C116.530667,68.054 116.822333,68.5486667 117.191,68.95 C117.559667,69.3513333 117.996,69.6546667 118.5,69.86 C119.004,70.0653333 119.545333,70.168 120.124,70.168 Z M126.004,70 L126.004,65.8 C126.218667,65.2773333 126.475333,64.911 126.774,64.701 C127.072667,64.491 127.357333,64.386 127.628,64.386 C127.777333,64.386 127.903333,64.3953333 128.006,64.414 C128.108667,64.4326667 128.220667,64.4606667 128.342,64.498 L128.342,64.498 L128.622,63.098 C128.426,63.0046667 128.164667,62.958 127.838,62.958 C127.474,62.958 127.119333,63.077 126.774,63.315 C126.428667,63.553 126.134667,63.896 125.892,64.344 L125.892,64.344 L125.836,64.344 L125.724,63.126 L124.394,63.126 L124.394,70 L126.004,70 Z M132.416,70.168 C132.854667,70.168 133.274667,70.098 133.676,69.958 C134.077333,69.818 134.441333,69.6406667 134.768,69.426 L134.768,69.426 L134.222,68.418 C133.97,68.5766667 133.715667,68.7003333 133.459,68.789 C133.202333,68.8776667 132.924667,68.922 132.626,68.922 C132.066,68.922 131.606333,68.7563333 131.247,68.425 C130.887667,68.0936667 130.670667,67.62 130.596,67.004 L130.596,67.004 L134.964,67.004 C134.982667,66.92 134.999,66.808 135.013,66.668 C135.027,66.528 135.034,66.3786667 135.034,66.22 C135.034,65.744 134.973333,65.3053333 134.852,64.904 C134.730667,64.5026667 134.551,64.1573333 134.313,63.868 C134.075,63.5786667 133.778667,63.3546667 133.424,63.196 C133.069333,63.0373333 132.658667,62.958 132.192,62.958 C131.790667,62.958 131.398667,63.042 131.016,63.21 C130.633333,63.378 130.295,63.616 130.001,63.924 C129.707,64.232 129.471333,64.61 129.294,65.058 C129.116667,65.506 129.028,66.01 129.028,66.57 C129.028,67.1393333 129.114333,67.6456667 129.287,68.089 C129.459667,68.5323333 129.7,68.908 130.008,69.216 C130.316,69.524 130.675333,69.7596667 131.086,69.923 C131.496667,70.0863333 131.94,70.168 132.416,70.168 Z M133.634,65.912 L130.582,65.912 C130.656667,65.352 130.848,64.9273333 131.156,64.638 C131.464,64.3486667 131.823333,64.204 132.234,64.204 C132.71,64.204 133.062333,64.3556667 133.291,64.659 C133.519667,64.9623333 133.634,65.38 133.634,65.912 L133.634,65.912 Z M138.982,70.168 C139.355333,70.168 139.71,70.0793333 140.046,69.902 C140.382,69.7246667 140.676,69.51 140.928,69.258 L140.928,69.258 L140.984,69.258 L141.096,70 L142.426,70 L142.426,60.116 L140.816,60.116 L140.816,62.608 L140.872,63.714 C140.601333,63.4806667 140.330667,63.2963333 140.06,63.161 C139.789333,63.0256667 139.458,62.958 139.066,62.958 C138.692667,62.958 138.331,63.042 137.981,63.21 C137.631,63.378 137.320667,63.616 137.05,63.924 C136.779333,64.232 136.562333,64.61 136.399,65.058 C136.235667,65.506 136.154,66.01 136.154,66.57 C136.154,67.7086667 136.408333,68.593 136.917,69.223 C137.425667,69.853 138.114,70.168 138.982,70.168 Z M139.374,68.838 C138.87,68.838 138.485,68.6443333 138.219,68.257 C137.953,67.8696667 137.82,67.3026667 137.82,66.556 C137.82,65.828 137.974,65.268 138.282,64.876 C138.59,64.484 138.968,64.288 139.416,64.288 C139.649333,64.288 139.880333,64.33 140.109,64.414 C140.337667,64.498 140.573333,64.6473333 140.816,64.862 L140.816,64.862 L140.816,68.068 C140.368,68.5813333 139.887333,68.838 139.374,68.838 Z M145.282,61.922 C145.571333,61.922 145.809333,61.838 145.996,61.67 C146.182667,61.502 146.276,61.2826667 146.276,61.012 C146.276,60.7413333 146.182667,60.5196667 145.996,60.347 C145.809333,60.1743333 145.571333,60.088 145.282,60.088 C144.992667,60.088 144.754667,60.1743333 144.568,60.347 C144.381333,60.5196667 144.288,60.7413333 144.288,61.012 C144.288,61.2826667 144.381333,61.502 144.568,61.67 C144.754667,61.838 144.992667,61.922 145.282,61.922 Z M146.08,70 L146.08,63.126 L144.47,63.126 L144.47,70 L146.08,70 Z M150.56,70.168 C150.830667,70.168 151.085,70.1423333 151.323,70.091 C151.561,70.0396667 151.773333,69.9813333 151.96,69.916 L151.96,69.916 L151.68,68.726 C151.577333,68.7726667 151.463,68.81 151.337,68.838 C151.211,68.866 151.087333,68.88 150.966,68.88 C150.322,68.88 150,68.4786667 150,67.676 L150,67.676 L150,64.4 L151.75,64.4 L151.75,63.126 L150,63.126 L150,61.25 L148.656,61.25 L148.46,63.126 L147.396,63.196 L147.396,64.4 L148.376,64.4 L148.376,67.676 C148.376,68.0493333 148.415667,68.3876667 148.495,68.691 C148.574333,68.9943333 148.700333,69.2556667 148.873,69.475 C149.045667,69.6943333 149.269667,69.8646667 149.545,69.986 C149.820333,70.1073333 150.158667,70.168 150.56,70.168 Z M159.786,70.168 C160.374,70.168 160.908333,70.0536667 161.389,69.825 C161.869667,69.5963333 162.296667,69.2673333 162.67,68.838 L162.67,68.838 L161.802,67.816 C161.540667,68.096 161.251333,68.3223333 160.934,68.495 C160.616667,68.6676667 160.252667,68.754 159.842,68.754 C159.067333,68.754 158.453667,68.4576667 158.001,67.865 C157.548333,67.2723333 157.322,66.4533333 157.322,65.408 C157.322,64.8946667 157.385,64.4326667 157.511,64.022 C157.637,63.6113333 157.814333,63.2636667 158.043,62.979 C158.271667,62.6943333 158.542333,62.475 158.855,62.321 C159.167667,62.167 159.510667,62.09 159.884,62.09 C160.238667,62.09 160.556,62.1623333 160.836,62.307 C161.116,62.4516667 161.377333,62.6453333 161.62,62.888 L161.62,62.888 L162.488,61.838 C162.198667,61.53 161.83,61.2593333 161.382,61.026 C160.934,60.7926667 160.420667,60.676 159.842,60.676 C159.263333,60.676 158.719667,60.7833333 158.211,60.998 C157.702333,61.2126667 157.259,61.5253333 156.881,61.936 C156.503,62.3466667 156.204333,62.8483333 155.985,63.441 C155.765667,64.0336667 155.656,64.7033333 155.656,65.45 C155.656,66.206 155.763333,66.878 155.978,67.466 C156.192667,68.054 156.484333,68.5486667 156.853,68.95 C157.221667,69.3513333 157.658,69.6546667 158.162,69.86 C158.666,70.0653333 159.207333,70.168 159.786,70.168 Z M165.722,70.168 C166.132667,70.168 166.513,70.0793333 166.863,69.902 C167.213,69.7246667 167.542,69.5053333 167.85,69.244 L167.85,69.244 L167.906,69.244 L168.018,70 L169.348,70 L169.348,65.926 C169.348,64.9646667 169.135667,64.2296667 168.711,63.721 C168.286333,63.2123333 167.644667,62.958 166.786,62.958 C166.235333,62.958 165.722,63.0466667 165.246,63.224 C164.77,63.4013333 164.340667,63.6113333 163.958,63.854 L163.958,63.854 L164.546,64.932 C164.854,64.7453333 165.169,64.5866667 165.491,64.456 C165.813,64.3253333 166.142,64.26 166.478,64.26 C166.711333,64.26 166.907333,64.295 167.066,64.365 C167.224667,64.435 167.353,64.533 167.451,64.659 C167.549,64.785 167.619,64.9296667 167.661,65.093 C167.703,65.2563333 167.728667,65.4266667 167.738,65.604 C167.028667,65.6786667 166.419667,65.786 165.911,65.926 C165.402333,66.066 164.982333,66.2386667 164.651,66.444 C164.319667,66.6493333 164.077,66.8943333 163.923,67.179 C163.769,67.4636667 163.692,67.788 163.692,68.152 C163.692,68.7586667 163.878667,69.2463333 164.252,69.615 C164.625333,69.9836667 165.115333,70.168 165.722,70.168 Z M166.24,68.908 C165.950667,68.908 165.712667,68.838 165.526,68.698 C165.339333,68.558 165.246,68.334 165.246,68.026 C165.246,67.858 165.288,67.6993333 165.372,67.55 C165.456,67.4006667 165.596,67.2676667 165.792,67.151 C165.988,67.0343333 166.244667,66.9293333 166.562,66.836 C166.879333,66.7426667 167.271333,66.668 167.738,66.612 L167.738,66.612 L167.738,68.152 C167.476667,68.3946667 167.231667,68.5813333 167.003,68.712 C166.774333,68.8426667 166.52,68.908 166.24,68.908 Z M172.89,70 L172.89,65.8 C173.104667,65.2773333 173.361333,64.911 173.66,64.701 C173.958667,64.491 174.243333,64.386 174.514,64.386 C174.663333,64.386 174.789333,64.3953333 174.892,64.414 C174.994667,64.4326667 175.106667,64.4606667 175.228,64.498 L175.228,64.498 L175.508,63.098 C175.312,63.0046667 175.050667,62.958 174.724,62.958 C174.36,62.958 174.005333,63.077 173.66,63.315 C173.314667,63.553 173.020667,63.896 172.778,64.344 L172.778,64.344 L172.722,64.344 L172.61,63.126 L171.28,63.126 L171.28,70 L172.89,70 Z M178.77,70.168 C179.143333,70.168 179.498,70.0793333 179.834,69.902 C180.17,69.7246667 180.464,69.51 180.716,69.258 L180.716,69.258 L180.772,69.258 L180.884,70 L182.214,70 L182.214,60.116 L180.604,60.116 L180.604,62.608 L180.66,63.714 C180.389333,63.4806667 180.118667,63.2963333 179.848,63.161 C179.577333,63.0256667 179.246,62.958 178.854,62.958 C178.480667,62.958 178.119,63.042 177.769,63.21 C177.419,63.378 177.108667,63.616 176.838,63.924 C176.567333,64.232 176.350333,64.61 176.187,65.058 C176.023667,65.506 175.942,66.01 175.942,66.57 C175.942,67.7086667 176.196333,68.593 176.705,69.223 C177.213667,69.853 177.902,70.168 178.77,70.168 Z M179.162,68.838 C178.658,68.838 178.273,68.6443333 178.007,68.257 C177.741,67.8696667 177.608,67.3026667 177.608,66.556 C177.608,65.828 177.762,65.268 178.07,64.876 C178.378,64.484 178.756,64.288 179.204,64.288 C179.437333,64.288 179.668333,64.33 179.897,64.414 C180.125667,64.498 180.361333,64.6473333 180.604,64.862 L180.604,64.862 L180.604,68.068 C180.156,68.5813333 179.675333,68.838 179.162,68.838 Z M189.732,70 C190.413333,70 191.022333,69.902 191.559,69.706 C192.095667,69.51 192.553,69.2183333 192.931,68.831 C193.309,68.4436667 193.598333,67.9606667 193.799,67.382 C193.999667,66.8033333 194.1,66.136 194.1,65.38 C194.1,63.868 193.708,62.734 192.924,61.978 C192.14,61.222 191.048,60.844 189.648,60.844 L189.648,60.844 L187.198,60.844 L187.198,70 L189.732,70 Z M189.536,68.684 L188.822,68.684 L188.822,62.16 L189.536,62.16 C190.46,62.16 191.174,62.4166667 191.678,62.93 C192.182,63.4433333 192.434,64.26 192.434,65.38 C192.434,66.5093333 192.184333,67.3423333 191.685,67.879 C191.185667,68.4156667 190.469333,68.684 189.536,68.684 L189.536,68.684 Z M198.748,70.168 C199.186667,70.168 199.606667,70.098 200.008,69.958 C200.409333,69.818 200.773333,69.6406667 201.1,69.426 L201.1,69.426 L200.554,68.418 C200.302,68.5766667 200.047667,68.7003333 199.791,68.789 C199.534333,68.8776667 199.256667,68.922 198.958,68.922 C198.398,68.922 197.938333,68.7563333 197.579,68.425 C197.219667,68.0936667 197.002667,67.62 196.928,67.004 L196.928,67.004 L201.296,67.004 C201.314667,66.92 201.331,66.808 201.345,66.668 C201.359,66.528 201.366,66.3786667 201.366,66.22 C201.366,65.744 201.305333,65.3053333 201.184,64.904 C201.062667,64.5026667 200.883,64.1573333 200.645,63.868 C200.407,63.5786667 200.110667,63.3546667 199.756,63.196 C199.401333,63.0373333 198.990667,62.958 198.524,62.958 C198.122667,62.958 197.730667,63.042 197.348,63.21 C196.965333,63.378 196.627,63.616 196.333,63.924 C196.039,64.232 195.803333,64.61 195.626,65.058 C195.448667,65.506 195.36,66.01 195.36,66.57 C195.36,67.1393333 195.446333,67.6456667 195.619,68.089 C195.791667,68.5323333 196.032,68.908 196.34,69.216 C196.648,69.524 197.007333,69.7596667 197.418,69.923 C197.828667,70.0863333 198.272,70.168 198.748,70.168 Z M199.966,65.912 L196.914,65.912 C196.988667,65.352 197.18,64.9273333 197.488,64.638 C197.796,64.3486667 198.155333,64.204 198.566,64.204 C199.042,64.204 199.394333,64.3556667 199.623,64.659 C199.851667,64.9623333 199.966,65.38 199.966,65.912 L199.966,65.912 Z M206.238,70.168 C206.620667,70.168 206.989333,70.084 207.344,69.916 C207.698667,69.748 208.011333,69.5053333 208.282,69.188 C208.552667,68.8706667 208.769667,68.481 208.933,68.019 C209.096333,67.557 209.178,67.032 209.178,66.444 C209.178,65.912 209.117333,65.4313333 208.996,65.002 C208.874667,64.5726667 208.697333,64.2063333 208.464,63.903 C208.230667,63.5996667 207.946,63.3663333 207.61,63.203 C207.274,63.0396667 206.891333,62.958 206.462,62.958 C206.107333,62.958 205.759667,63.0373333 205.419,63.196 C205.078333,63.3546667 204.763333,63.56 204.474,63.812 L204.474,63.812 L204.516,62.664 L204.516,60.116 L202.906,60.116 L202.906,70 L204.18,70 L204.32,69.272 L204.362,69.272 C204.651333,69.5613333 204.957,69.783 205.279,69.937 C205.601,70.091 205.920667,70.168 206.238,70.168 Z M205.902,68.838 C205.696667,68.838 205.475,68.796 205.237,68.712 C204.999,68.628 204.758667,68.4786667 204.516,68.264 L204.516,68.264 L204.516,65.058 C205.038667,64.5446667 205.542667,64.288 206.028,64.288 C206.550667,64.288 206.928667,64.4793333 207.162,64.862 C207.395333,65.2446667 207.512,65.7813333 207.512,66.472 C207.512,67.256 207.358,67.8463333 207.05,68.243 C206.742,68.6396667 206.359333,68.838 205.902,68.838 Z M212.902,70.168 C213.172667,70.168 213.427,70.1423333 213.665,70.091 C213.903,70.0396667 214.115333,69.9813333 214.302,69.916 L214.302,69.916 L214.022,68.726 C213.919333,68.7726667 213.805,68.81 213.679,68.838 C213.553,68.866 213.429333,68.88 213.308,68.88 C212.664,68.88 212.342,68.4786667 212.342,67.676 L212.342,67.676 L212.342,64.4 L214.092,64.4 L214.092,63.126 L212.342,63.126 L212.342,61.25 L210.998,61.25 L210.802,63.126 L209.738,63.196 L209.738,64.4 L210.718,64.4 L210.718,67.676 C210.718,68.0493333 210.757667,68.3876667 210.837,68.691 C210.916333,68.9943333 211.042333,69.2556667 211.215,69.475 C211.387667,69.6943333 211.611667,69.8646667 211.887,69.986 C212.162333,70.1073333 212.500667,70.168 212.902,70.168 Z" id="inCreditCardDebt" fill="#555555"></path>
                <path d="M110.536,49.52 L110.536,46.224 C112.136,45.9253333 113.362667,45.2586667 114.216,44.224 C115.069333,43.1893333 115.496,41.904 115.496,40.368 C115.496,39.3013333 115.282667,38.4106667 114.856,37.696 C114.429333,36.9813333 113.890667,36.3786667 113.24,35.888 C112.589333,35.3973333 111.890667,34.976 111.144,34.624 C110.397333,34.272 109.698667,33.92 109.048,33.568 C108.397333,33.216 107.858667,32.832 107.432,32.416 C107.005333,32 106.792,31.472 106.792,30.832 C106.792,30 107.037333,29.3653333 107.528,28.928 C108.018667,28.4906667 108.701333,28.272 109.576,28.272 C110.344,28.272 111.005333,28.416 111.56,28.704 C112.114667,28.992 112.690667,29.4133333 113.288,29.968 L113.288,29.968 L115.176,27.824 C114.578667,27.2053333 113.912,26.6666667 113.176,26.208 C112.44,25.7493333 111.56,25.456 110.536,25.328 L110.536,25.328 L110.536,22.128 L107.976,22.128 L107.976,25.392 C106.525333,25.648 105.373333,26.272 104.52,27.264 C103.666667,28.256 103.24,29.4986667 103.24,30.992 C103.24,31.9946667 103.453333,32.832 103.88,33.504 C104.306667,34.176 104.845333,34.752 105.496,35.232 C106.146667,35.712 106.845333,36.128 107.592,36.48 C108.338667,36.832 109.037333,37.2 109.688,37.584 C110.338667,37.968 110.877333,38.3946667 111.304,38.864 C111.730667,39.3333333 111.944,39.92 111.944,40.624 C111.944,41.4986667 111.688,42.176 111.176,42.656 C110.664,43.136 109.885333,43.376 108.84,43.376 C107.965333,43.376 107.144,43.1946667 106.376,42.832 C105.608,42.4693333 104.850667,41.9893333 104.104,41.392 L104.104,41.392 L102.44,43.888 C103.165333,44.5706667 104.024,45.12 105.016,45.536 C106.008,45.952 106.994667,46.2133333 107.976,46.32 L107.976,46.32 L107.976,49.52 L110.536,49.52 Z M125.64,46.384 C126.664,46.384 127.602667,46.2453333 128.456,45.968 C129.309333,45.6906667 130.034667,45.3013333 130.632,44.8 C131.229333,44.2986667 131.693333,43.712 132.024,43.04 C132.354667,42.368 132.52,41.6373333 132.52,40.848 C132.52,40.1653333 132.424,39.5573333 132.232,39.024 C132.04,38.4906667 131.784,38.0106667 131.464,37.584 C131.144,37.1573333 130.770667,36.7786667 130.344,36.448 C129.917333,36.1173333 129.469333,35.824 129,35.568 L129,35.568 L129,35.44 C129.32,35.2053333 129.645333,34.9226667 129.976,34.592 C130.306667,34.2613333 130.6,33.8986667 130.856,33.504 C131.112,33.1093333 131.32,32.6826667 131.48,32.224 C131.64,31.7653333 131.72,31.28 131.72,30.768 C131.72,29.936 131.581333,29.184 131.304,28.512 C131.026667,27.84 130.626667,27.264 130.104,26.784 C129.581333,26.304 128.952,25.9306667 128.216,25.664 C127.48,25.3973333 126.653333,25.264 125.736,25.264 C124.861333,25.264 124.045333,25.392 123.288,25.648 C122.530667,25.904 121.88,26.2666667 121.336,26.736 C120.792,27.2053333 120.365333,27.7706667 120.056,28.432 C119.746667,29.0933333 119.592,29.84 119.592,30.672 C119.592,31.76 119.864,32.688 120.408,33.456 C120.952,34.224 121.618667,34.8853333 122.408,35.44 L122.408,35.44 L122.408,35.568 C121.917333,35.824 121.453333,36.1226667 121.016,36.464 C120.578667,36.8053333 120.189333,37.1893333 119.848,37.616 C119.506667,38.0426667 119.234667,38.5173333 119.032,39.04 C118.829333,39.5626667 118.728,40.144 118.728,40.784 C118.728,41.616 118.904,42.3733333 119.256,43.056 C119.608,43.7386667 120.088,44.3253333 120.696,44.816 C121.304,45.3066667 122.029333,45.6906667 122.872,45.968 C123.714667,46.2453333 124.637333,46.384 125.64,46.384 Z M126.984,34.512 C126.408,34.2986667 125.874667,34.0693333 125.384,33.824 C124.893333,33.5786667 124.461333,33.312 124.088,33.024 C123.714667,32.736 123.421333,32.4 123.208,32.016 C122.994667,31.632 122.888,31.184 122.888,30.672 C122.888,29.776 123.154667,29.088 123.688,28.608 C124.221333,28.128 124.882667,27.888 125.672,27.888 C126.632,27.888 127.373333,28.1813333 127.896,28.768 C128.418667,29.3546667 128.68,30.096 128.68,30.992 C128.68,31.632 128.536,32.24 128.248,32.816 C127.96,33.392 127.538667,33.9573333 126.984,34.512 Z M125.704,43.76 C124.658667,43.76 123.773333,43.456 123.048,42.848 C122.322667,42.24 121.96,41.424 121.96,40.4 C121.96,39.6106667 122.168,38.896 122.584,38.256 C123,37.616 123.528,37.0613333 124.168,36.592 C124.850667,36.8693333 125.490667,37.136 126.088,37.392 C126.685333,37.648 127.202667,37.9306667 127.64,38.24 C128.077333,38.5493333 128.424,38.9013333 128.68,39.296 C128.936,39.6906667 129.064,40.1653333 129.064,40.72 C129.064,41.68 128.749333,42.4266667 128.12,42.96 C127.490667,43.4933333 126.685333,43.76 125.704,43.76 Z M148.808,46 L148.808,42.864 L143.816,42.864 C143.325333,42.864 142.770667,42.8906667 142.152,42.944 C141.533333,42.9973333 140.957333,43.0453333 140.424,43.088 C141.426667,42.0213333 142.376,40.9866667 143.272,39.984 C144.168,38.9813333 144.952,38.0053333 145.624,37.056 C146.296,36.1066667 146.829333,35.168 147.224,34.24 C147.618667,33.312 147.816,32.4 147.816,31.504 C147.816,30.5653333 147.661333,29.712 147.352,28.944 C147.042667,28.176 146.610667,27.52 146.056,26.976 C145.501333,26.432 144.829333,26.0106667 144.04,25.712 C143.250667,25.4133333 142.365333,25.264 141.384,25.264 C139.976,25.264 138.776,25.536 137.784,26.08 C136.792,26.624 135.826667,27.3973333 134.888,28.4 L134.888,28.4 L136.936,30.448 C137.490667,29.8293333 138.093333,29.296 138.744,28.848 C139.394667,28.4 140.114667,28.176 140.904,28.176 C141.992,28.176 142.824,28.4906667 143.4,29.12 C143.976,29.7493333 144.264,30.608 144.264,31.696 C144.264,32.464 144.050667,33.2746667 143.624,34.128 C143.197333,34.9813333 142.584,35.8986667 141.784,36.88 C140.984,37.8613333 140.013333,38.928 138.872,40.08 C137.730667,41.232 136.456,42.4906667 135.048,43.856 L135.048,43.856 L135.048,46 L148.808,46 Z M158.44,46.384 C160.573333,46.384 162.258667,45.472 163.496,43.648 C164.733333,41.824 165.352,39.184 165.352,35.728 C165.352,32.2933333 164.733333,29.6906667 163.496,27.92 C162.258667,26.1493333 160.573333,25.264 158.44,25.264 C156.306667,25.264 154.621333,26.144 153.384,27.904 C152.146667,29.664 151.528,32.272 151.528,35.728 C151.528,39.184 152.146667,41.824 153.384,43.648 C154.621333,45.472 156.306667,46.384 158.44,46.384 Z M158.44,43.504 C157.949333,43.504 157.496,43.3706667 157.08,43.104 C156.664,42.8373333 156.306667,42.3946667 156.008,41.776 C155.709333,41.1573333 155.474667,40.3573333 155.304,39.376 C155.133333,38.3946667 155.048,37.1786667 155.048,35.728 C155.048,34.2986667 155.133333,33.0986667 155.304,32.128 C155.474667,31.1573333 155.709333,30.3733333 156.008,29.776 C156.306667,29.1786667 156.664,28.7573333 157.08,28.512 C157.496,28.2666667 157.949333,28.144 158.44,28.144 C158.930667,28.144 159.384,28.2666667 159.8,28.512 C160.216,28.7573333 160.573333,29.1786667 160.872,29.776 C161.170667,30.3733333 161.405333,31.1573333 161.576,32.128 C161.746667,33.0986667 161.832,34.2986667 161.832,35.728 C161.832,37.1786667 161.746667,38.3946667 161.576,39.376 C161.405333,40.3573333 161.170667,41.1573333 160.872,41.776 C160.573333,42.3946667 160.216,42.8373333 159.8,43.104 C159.384,43.3706667 158.930667,43.504 158.44,43.504 Z M183.016,46.384 C183.890667,46.384 184.733333,46.192 185.544,45.808 C186.354667,45.424 187.069333,44.8693333 187.688,44.144 C188.306667,43.4186667 188.802667,42.528 189.176,41.472 C189.549333,40.416 189.736,39.216 189.736,37.872 C189.736,36.656 189.597333,35.5573333 189.32,34.576 C189.042667,33.5946667 188.637333,32.7573333 188.104,32.064 C187.570667,31.3706667 186.92,30.8373333 186.152,30.464 C185.384,30.0906667 184.509333,29.904 183.528,29.904 C182.717333,29.904 181.922667,30.0853333 181.144,30.448 C180.365333,30.8106667 179.645333,31.28 178.984,31.856 L178.984,31.856 L179.08,29.232 L179.08,23.408 L175.4,23.408 L175.4,46 L178.312,46 L178.632,44.336 L178.728,44.336 C179.389333,44.9973333 180.088,45.504 180.824,45.856 C181.56,46.208 182.290667,46.384 183.016,46.384 Z M182.248,43.344 C181.778667,43.344 181.272,43.248 180.728,43.056 C180.184,42.864 179.634667,42.5226667 179.08,42.032 L179.08,42.032 L179.08,34.704 C180.274667,33.5306667 181.426667,32.944 182.536,32.944 C183.730667,32.944 184.594667,33.3813333 185.128,34.256 C185.661333,35.1306667 185.928,36.3573333 185.928,37.936 C185.928,39.728 185.576,41.0773333 184.872,41.984 C184.168,42.8906667 183.293333,43.344 182.248,43.344 Z M195.272,27.536 C195.933333,27.536 196.477333,27.344 196.904,26.96 C197.330667,26.576 197.544,26.0746667 197.544,25.456 C197.544,24.8373333 197.330667,24.3306667 196.904,23.936 C196.477333,23.5413333 195.933333,23.344 195.272,23.344 C194.610667,23.344 194.066667,23.5413333 193.64,23.936 C193.213333,24.3306667 193,24.8373333 193,25.456 C193,26.0746667 193.213333,26.576 193.64,26.96 C194.066667,27.344 194.610667,27.536 195.272,27.536 Z M197.096,46 L197.096,30.288 L193.416,30.288 L193.416,46 L197.096,46 Z M205.384,46.384 C206.194667,46.384 206.845333,46.2773333 207.336,46.064 L207.336,46.064 L206.856,43.312 C206.706667,43.3546667 206.594667,43.376 206.52,43.376 L206.52,43.376 L206.28,43.376 C206.088,43.376 205.906667,43.2853333 205.736,43.104 C205.565333,42.9226667 205.48,42.608 205.48,42.16 L205.48,42.16 L205.48,23.408 L201.8,23.408 L201.8,41.968 C201.8,43.3333333 202.066667,44.4106667 202.6,45.2 C203.133333,45.9893333 204.061333,46.384 205.384,46.384 Z M214.056,46.384 C214.866667,46.384 215.517333,46.2773333 216.008,46.064 L216.008,46.064 L215.528,43.312 C215.378667,43.3546667 215.266667,43.376 215.192,43.376 L215.192,43.376 L214.952,43.376 C214.76,43.376 214.578667,43.2853333 214.408,43.104 C214.237333,42.9226667 214.152,42.608 214.152,42.16 L214.152,42.16 L214.152,23.408 L210.472,23.408 L210.472,41.968 C210.472,43.3333333 210.738667,44.4106667 211.272,45.2 C211.805333,45.9893333 212.733333,46.384 214.056,46.384 Z M221,27.536 C221.661333,27.536 222.205333,27.344 222.632,26.96 C223.058667,26.576 223.272,26.0746667 223.272,25.456 C223.272,24.8373333 223.058667,24.3306667 222.632,23.936 C222.205333,23.5413333 221.661333,23.344 221,23.344 C220.338667,23.344 219.794667,23.5413333 219.368,23.936 C218.941333,24.3306667 218.728,24.8373333 218.728,25.456 C218.728,26.0746667 218.941333,26.576 219.368,26.96 C219.794667,27.344 220.338667,27.536 221,27.536 Z M222.824,46 L222.824,30.288 L219.144,30.288 L219.144,46 L222.824,46 Z M233.96,46.384 C234.941333,46.384 235.885333,46.2026667 236.792,45.84 C237.698667,45.4773333 238.493333,44.944 239.176,44.24 C239.858667,43.536 240.408,42.672 240.824,41.648 C241.24,40.624 241.448,39.4613333 241.448,38.16 C241.448,36.8586667 241.24,35.696 240.824,34.672 C240.408,33.648 239.858667,32.784 239.176,32.08 C238.493333,31.376 237.698667,30.8373333 236.792,30.464 C235.885333,30.0906667 234.941333,29.904 233.96,29.904 C232.978667,29.904 232.04,30.0906667 231.144,30.464 C230.248,30.8373333 229.453333,31.376 228.76,32.08 C228.066667,32.784 227.517333,33.648 227.112,34.672 C226.706667,35.696 226.504,36.8586667 226.504,38.16 C226.504,39.4613333 226.706667,40.624 227.112,41.648 C227.517333,42.672 228.066667,43.536 228.76,44.24 C229.453333,44.944 230.248,45.4773333 231.144,45.84 C232.04,46.2026667 232.978667,46.384 233.96,46.384 Z M233.96,43.376 C232.808,43.376 231.906667,42.9013333 231.256,41.952 C230.605333,41.0026667 230.28,39.7386667 230.28,38.16 C230.28,36.56 230.605333,35.2853333 231.256,34.336 C231.906667,33.3866667 232.808,32.912 233.96,32.912 C235.112,32.912 236.018667,33.3866667 236.68,34.336 C237.341333,35.2853333 237.672,36.56 237.672,38.16 C237.672,39.7386667 237.341333,41.0026667 236.68,41.952 C236.018667,42.9013333 235.112,43.376 233.96,43.376 Z M248.776,46 L248.776,35.024 C249.437333,34.384 250.029333,33.8986667 250.552,33.568 C251.074667,33.2373333 251.677333,33.072 252.36,33.072 C253.234667,33.072 253.864,33.3386667 254.248,33.872 C254.632,34.4053333 254.824,35.3226667 254.824,36.624 L254.824,36.624 L254.824,46 L258.504,46 L258.504,36.144 C258.504,34.1386667 258.12,32.5973333 257.352,31.52 C256.584,30.4426667 255.357333,29.904 253.672,29.904 C252.584,29.904 251.629333,30.1493333 250.808,30.64 C249.986667,31.1306667 249.224,31.7173333 248.52,32.4 L248.52,32.4 L248.392,32.4 L248.136,30.288 L245.096,30.288 L245.096,46 L248.776,46 Z" id="$820billion" fill="#B3532D"></path>
            </g>
        </g>
    </g>
</svg>