<?xml version="1.0" encoding="UTF-8"?>
<svg width="267px" height="83px" viewBox="0 0 267 83" version="1.1" xmlns="http://www.w3.org/2000/svg" xmlns:xlink="http://www.w3.org/1999/xlink">
    <title>anecdote-revenue-1</title>
    <defs>
        <polygon id="path-1" points="0.482860369 0.288166667 16.7763784 0.288166667 16.7763784 15.9382167 0.482860369 15.9382167"></polygon>
    </defs>
    <g id="02.-Anecdote-Cards" stroke="none" stroke-width="1" fill="none" fill-rule="evenodd">
        <g id="Anecdote-Cards-(Desktop/Tablet)---SVG" transform="translate(-153.000000, -298.000000)">
            <g id="anecdote-revenue-1" transform="translate(153.000000, 298.000000)">
                <g id="Group-29" transform="translate(162.000000, 0.000000)">
                    <g id="Group-32" transform="translate(23.000000, 0.000000)">
                        <g id="Group-4" transform="translate(0.000000, 9.000000)">
                            <path d="M27.9922136,53.5894092 C12.7555566,53.5894092 0.405967401,41.6604354 0.405967401,26.9454923 C0.405967401,12.2305491 12.7555566,0.301575363 27.9922136,0.301575363" id="Fill-1"></path>
                            <path d="M27.9922136,53.5894092 C12.7555566,53.5894092 0.405967401,41.6604354 0.405967401,26.9454923 C0.405967401,12.2305491 12.7555566,0.301575363 27.9922136,0.301575363" id="Stroke-3" stroke="#0A2F5A" stroke-width="3" stroke-linejoin="round"></path>
                        </g>
                        <g id="Group-8" transform="translate(37.000000, 56.000000)">
                            <path d="M7.84192,0.5492 C5.66592,2.0152 3.23178667,3.1652 0.61632,3.9292" id="Fill-5"></path>
                            <path d="M7.84192,0.5492 C5.66592,2.0152 3.23178667,3.1652 0.61632,3.9292" id="Stroke-7" stroke="#0A2F5A" stroke-width="3" stroke-linejoin="round"></path>
                        </g>
                        <g id="Group-12" transform="translate(50.000000, 46.000000)">
                            <path d="M3.916,0.6041 C2.896,2.912 1.60488889,5.05085 0.0915555556,6.9692" id="Fill-9"></path>
                            <path d="M3.916,0.6041 C2.896,2.912 1.60488889,5.05085 0.0915555556,6.9692" id="Stroke-11" stroke="#0A2F5A" stroke-width="3" stroke-linejoin="round"></path>
                        </g>
                        <g id="Group-16" transform="translate(55.000000, 36.000000)">
                            <path d="M2.029875,0.0383333333 C1.939875,1.67642857 1.719375,3.28119048 1.377375,4.83357143" id="Fill-13"></path>
                            <path d="M2.029875,0.0383333333 C1.939875,1.67642857 1.719375,3.28119048 1.377375,4.83357143" id="Stroke-15" stroke="#0A2F5A" stroke-width="3" stroke-linejoin="round"></path>
                        </g>
                        <g id="Group-20" transform="translate(56.000000, 35.000000)">
                            <path d="M1.324875,0.64995 C1.324875,1.1742 1.309125,1.69395 1.279875,2.21145" id="Fill-17"></path>
                            <path d="M1.324875,0.64995 C1.324875,1.1742 1.309125,1.69395 1.279875,2.21145" id="Stroke-19" stroke="#0A2F5A" stroke-width="3" stroke-linejoin="round"></path>
                        </g>
                        <g id="Group-24" transform="translate(55.000000, 28.000000)">
                            <path d="M0.87315,0.179 C1.2489,1.253 1.5414,2.359 1.7439,3.493" id="Fill-21"></path>
                            <path d="M0.87315,0.179 C1.2489,1.253 1.5414,2.359 1.7439,3.493" id="Stroke-23" stroke="#0A2F5A" stroke-width="3" stroke-linejoin="round"></path>
                        </g>
                        <g id="Group-28" transform="translate(52.000000, 21.000000)">
                            <path d="M0.878175,0.55128 C1.397925,1.41768 1.872675,2.31288 2.304675,3.23928" id="Fill-25"></path>
                            <path d="M0.878175,0.55128 C1.397925,1.41768 1.872675,2.31288 2.304675,3.23928" id="Stroke-27" stroke="#0A2F5A" stroke-width="3" stroke-linejoin="round"></path>
                        </g>
                        <g id="Group-31" transform="translate(23.000000, 0.000000)">
                            <mask id="mask-2" fill="white">
                                <use xlink:href="#path-1"></use>
                            </mask>
                            <g id="Clip-30"></g>
                            <polygon id="Fill-29" fill="#0A2F5A" mask="url(#mask-2)" points="16.7763784 6.18605 9.86667524 11.06105 2.95456539 15.9382167 1.71991624 8.11221667 0.482860369 0.286216667 8.62961937 3.23721667"></polygon>
                        </g>
                    </g>
                    <path d="M46.782,40 L46.782,38.496 L44.782,38.496 L44.782,29.824 L43.406,29.824 C43.086,30.016 42.742,30.1786667 42.374,30.312 C42.006,30.4453333 41.566,30.56 41.054,30.656 L41.054,30.656 L41.054,31.808 L42.926,31.808 L42.926,38.496 L40.654,38.496 L40.654,40 L46.782,40 Z M52.586,40.144 C52.93,40.144 53.236,40.098 53.504,40.006 C53.772,39.914 53.996,39.788 54.176,39.628 C54.356,39.468 54.492,39.284 54.584,39.076 C54.676,38.868 54.722,38.644 54.722,38.404 C54.722,38.132 54.668,37.9 54.56,37.708 C54.452,37.516 54.314,37.354 54.146,37.222 C53.978,37.09 53.788,36.98 53.576,36.892 C53.364,36.804 53.154,36.72 52.946,36.64 C52.778,36.576 52.616,36.514 52.46,36.454 C52.304,36.394 52.166,36.326 52.046,36.25 C51.926,36.174 51.83,36.086 51.758,35.986 C51.686,35.886 51.65,35.768 51.65,35.632 C51.65,35.408 51.736,35.212 51.908,35.044 C52.08,34.876 52.35,34.792 52.718,34.792 C52.974,34.792 53.21,34.84 53.426,34.936 C53.642,35.032 53.85,35.156 54.05,35.308 L54.05,35.308 L54.518,34.684 C54.294,34.5 54.028,34.344 53.72,34.216 C53.412,34.088 53.074,34.024 52.706,34.024 C52.394,34.024 52.114,34.066 51.866,34.15 C51.618,34.234 51.408,34.35 51.236,34.498 C51.064,34.646 50.932,34.822 50.84,35.026 C50.748,35.23 50.702,35.448 50.702,35.68 C50.702,35.928 50.754,36.14 50.858,36.316 C50.962,36.492 51.096,36.646 51.26,36.778 C51.424,36.91 51.61,37.022 51.818,37.114 C52.026,37.206 52.234,37.288 52.442,37.36 C52.602,37.424 52.762,37.488 52.922,37.552 C53.082,37.616 53.224,37.69 53.348,37.774 C53.472,37.858 53.574,37.956 53.654,38.068 C53.734,38.18 53.774,38.312 53.774,38.464 C53.774,38.72 53.678,38.936 53.486,39.112 C53.294,39.288 53.006,39.376 52.622,39.376 C52.27,39.376 51.96,39.312 51.692,39.184 C51.424,39.056 51.162,38.888 50.906,38.68 L50.906,38.68 L50.414,39.34 C50.694,39.572 51.022,39.764 51.398,39.916 C51.774,40.068 52.17,40.144 52.586,40.144 Z M58.454,40.144 C58.854,40.144 59.21,40.084 59.522,39.964 C59.834,39.844 60.118,39.704 60.374,39.544 L60.374,39.544 L60.026,38.896 C59.81,39.032 59.584,39.142 59.348,39.226 C59.112,39.31 58.854,39.352 58.574,39.352 C58.014,39.352 57.56,39.17 57.212,38.806 C56.864,38.442 56.67,37.948 56.63,37.324 L56.63,37.324 L60.566,37.324 C60.582,37.252 60.592,37.166 60.596,37.066 C60.6,36.966 60.602,36.864 60.602,36.76 C60.602,36.344 60.55,35.968 60.446,35.632 C60.342,35.296 60.192,35.008 59.996,34.768 C59.8,34.528 59.556,34.344 59.264,34.216 C58.972,34.088 58.642,34.024 58.274,34.024 C57.938,34.024 57.614,34.094 57.302,34.234 C56.99,34.374 56.712,34.576 56.468,34.84 C56.224,35.104 56.028,35.426 55.88,35.806 C55.732,36.186 55.658,36.616 55.658,37.096 C55.658,37.576 55.73,38.004 55.874,38.38 C56.018,38.756 56.216,39.074 56.468,39.334 C56.72,39.594 57.016,39.794 57.356,39.934 C57.696,40.074 58.062,40.144 58.454,40.144 Z M59.738,36.616 L56.618,36.616 C56.65,36.328 56.716,36.072 56.816,35.848 C56.916,35.624 57.042,35.434 57.194,35.278 C57.346,35.122 57.516,35.004 57.704,34.924 C57.892,34.844 58.09,34.804 58.298,34.804 C58.754,34.804 59.108,34.958 59.36,35.266 C59.612,35.574 59.738,36.024 59.738,36.616 L59.738,36.616 Z M64.346,40.144 C64.698,40.144 65.034,40.078 65.354,39.946 C65.674,39.814 65.966,39.632 66.23,39.4 L66.23,39.4 L65.798,38.74 C65.614,38.9 65.408,39.038 65.18,39.154 C64.952,39.27 64.702,39.328 64.43,39.328 C64.166,39.328 63.922,39.274 63.698,39.166 C63.474,39.058 63.284,38.906 63.128,38.71 C62.972,38.514 62.85,38.28 62.762,38.008 C62.674,37.736 62.63,37.432 62.63,37.096 C62.63,36.76 62.676,36.454 62.768,36.178 C62.86,35.902 62.986,35.664 63.146,35.464 C63.306,35.264 63.498,35.11 63.722,35.002 C63.946,34.894 64.19,34.84 64.454,34.84 C64.686,34.84 64.896,34.888 65.084,34.984 C65.272,35.08 65.45,35.204 65.618,35.356 L65.618,35.356 L66.122,34.708 C65.914,34.524 65.674,34.364 65.402,34.228 C65.13,34.092 64.802,34.024 64.418,34.024 C64.042,34.024 63.684,34.092 63.344,34.228 C63.004,34.364 62.706,34.564 62.45,34.828 C62.194,35.092 61.99,35.414 61.838,35.794 C61.686,36.174 61.61,36.608 61.61,37.096 C61.61,37.576 61.68,38.006 61.82,38.386 C61.96,38.766 62.152,39.086 62.396,39.346 C62.64,39.606 62.93,39.804 63.266,39.94 C63.602,40.076 63.962,40.144 64.346,40.144 Z" id="1sec" fill="#555555" fill-rule="nonzero"></path>
                    <rect id="Rectangle" fill="#112E51" fill-rule="nonzero" x="0" y="55" width="105" height="28"></rect>
                    <path d="M19.4625,75 L19.4625,71.4 L20.8725,71.4 C21.4025,71.4 21.895,71.3375 22.35,71.2125 C22.805,71.0875 23.2,70.8925 23.535,70.6275 C23.87,70.3625 24.1325,70.03 24.3225,69.63 C24.5125,69.23 24.6075,68.76 24.6075,68.22 C24.6075,67.65 24.5125,67.1725 24.3225,66.7875 C24.1325,66.4025 23.8675,66.09 23.5275,65.85 C23.1875,65.61 22.785,65.44 22.32,65.34 C21.855,65.24 21.3525,65.19 20.8125,65.19 L20.8125,65.19 L17.7225,65.19 L17.7225,75 L19.4625,75 Z M20.7375,70.005 L19.4625,70.005 L19.4625,66.585 L20.6775,66.585 C21.4075,66.585 21.96,66.7025 22.335,66.9375 C22.71,67.1725 22.8975,67.6 22.8975,68.22 C22.8975,69.41 22.1775,70.005 20.7375,70.005 L20.7375,70.005 Z M29.1225,75.18 C29.5925,75.18 30.0425,75.105 30.4725,74.955 C30.9025,74.805 31.2925,74.615 31.6425,74.385 L31.6425,74.385 L31.0575,73.305 C30.7875,73.475 30.515,73.6075 30.24,73.7025 C29.965,73.7975 29.6675,73.845 29.3475,73.845 C28.7475,73.845 28.255,73.6675 27.87,73.3125 C27.485,72.9575 27.2525,72.45 27.1725,71.79 L27.1725,71.79 L31.8525,71.79 C31.8725,71.7 31.89,71.58 31.905,71.43 C31.92,71.28 31.9275,71.12 31.9275,70.95 C31.9275,70.44 31.8625,69.97 31.7325,69.54 C31.6025,69.11 31.41,68.74 31.155,68.43 C30.9,68.12 30.5825,67.88 30.2025,67.71 C29.8225,67.54 29.3825,67.455 28.8825,67.455 C28.4525,67.455 28.0325,67.545 27.6225,67.725 C27.2125,67.905 26.85,68.16 26.535,68.49 C26.22,68.82 25.9675,69.225 25.7775,69.705 C25.5875,70.185 25.4925,70.725 25.4925,71.325 C25.4925,71.935 25.585,72.4775 25.77,72.9525 C25.955,73.4275 26.2125,73.83 26.5425,74.16 C26.8725,74.49 27.2575,74.7425 27.6975,74.9175 C28.1375,75.0925 28.6125,75.18 29.1225,75.18 Z M30.4275,70.62 L27.1575,70.62 C27.2375,70.02 27.4425,69.565 27.7725,69.255 C28.1025,68.945 28.4875,68.79 28.9275,68.79 C29.4375,68.79 29.815,68.9525 30.06,69.2775 C30.305,69.6025 30.4275,70.05 30.4275,70.62 L30.4275,70.62 Z M35.3025,75 L35.3025,70.5 C35.5325,69.94 35.8075,69.5475 36.1275,69.3225 C36.4475,69.0975 36.7525,68.985 37.0425,68.985 C37.2025,68.985 37.3375,68.995 37.4475,69.015 C37.5575,69.035 37.6775,69.065 37.8075,69.105 L37.8075,69.105 L38.1075,67.605 C37.8975,67.505 37.6175,67.455 37.2675,67.455 C36.8775,67.455 36.4975,67.5825 36.1275,67.8375 C35.7575,68.0925 35.4425,68.46 35.1825,68.94 L35.1825,68.94 L35.1225,68.94 L35.0025,67.635 L33.5775,67.635 L33.5775,75 L35.3025,75 Z M45.1875,75.18 C45.7375,75.18 46.23,75.1025 46.665,74.9475 C47.1,74.7925 47.47,74.5825 47.775,74.3175 C48.08,74.0525 48.3125,73.745 48.4725,73.395 C48.6325,73.045 48.7125,72.67 48.7125,72.27 C48.7125,71.91 48.6625,71.5925 48.5625,71.3175 C48.4625,71.0425 48.325,70.8 48.15,70.59 C47.975,70.38 47.7675,70.195 47.5275,70.035 C47.2875,69.875 47.0225,69.735 46.7325,69.615 L46.7325,69.615 L45.3975,69.06 C45.1975,68.98 45.0025,68.8975 44.8125,68.8125 C44.6225,68.7275 44.455,68.6325 44.31,68.5275 C44.165,68.4225 44.05,68.3025 43.965,68.1675 C43.88,68.0325 43.8375,67.87 43.8375,67.68 C43.8375,67.32 43.9775,67.0375 44.2575,66.8325 C44.5375,66.6275 44.9125,66.525 45.3825,66.525 C45.8025,66.525 46.1825,66.6 46.5225,66.75 C46.8625,66.9 47.1925,67.105 47.5125,67.365 L47.5125,67.365 L48.3975,66.255 C48.0175,65.875 47.5625,65.5725 47.0325,65.3475 C46.5025,65.1225 45.9525,65.01 45.3825,65.01 C44.9025,65.01 44.46,65.08 44.055,65.22 C43.65,65.36 43.3025,65.555 43.0125,65.805 C42.7225,66.055 42.495,66.3475 42.33,66.6825 C42.165,67.0175 42.0825,67.38 42.0825,67.77 C42.0825,68.13 42.14,68.45 42.255,68.73 C42.37,69.01 42.5225,69.255 42.7125,69.465 C42.9025,69.675 43.115,69.855 43.35,70.005 C43.585,70.155 43.8225,70.28 44.0625,70.38 L44.0625,70.38 L45.4125,70.965 C45.6325,71.055 45.835,71.145 46.02,71.235 C46.205,71.325 46.365,71.4225 46.5,71.5275 C46.635,71.6325 46.74,71.755 46.815,71.895 C46.89,72.035 46.9275,72.205 46.9275,72.405 C46.9275,72.785 46.7825,73.09 46.4925,73.32 C46.2025,73.55 45.7775,73.665 45.2175,73.665 C44.7675,73.665 44.3175,73.5625 43.8675,73.3575 C43.4175,73.1525 43.0175,72.885 42.6675,72.555 L42.6675,72.555 L41.6475,73.74 C42.1175,74.2 42.66,74.555 43.275,74.805 C43.89,75.055 44.5275,75.18 45.1875,75.18 Z M53.4975,75.18 C53.9675,75.18 54.4175,75.105 54.8475,74.955 C55.2775,74.805 55.6675,74.615 56.0175,74.385 L56.0175,74.385 L55.4325,73.305 C55.1625,73.475 54.89,73.6075 54.615,73.7025 C54.34,73.7975 54.0425,73.845 53.7225,73.845 C53.1225,73.845 52.63,73.6675 52.245,73.3125 C51.86,72.9575 51.6275,72.45 51.5475,71.79 L51.5475,71.79 L56.2275,71.79 C56.2475,71.7 56.265,71.58 56.28,71.43 C56.295,71.28 56.3025,71.12 56.3025,70.95 C56.3025,70.44 56.2375,69.97 56.1075,69.54 C55.9775,69.11 55.785,68.74 55.53,68.43 C55.275,68.12 54.9575,67.88 54.5775,67.71 C54.1975,67.54 53.7575,67.455 53.2575,67.455 C52.8275,67.455 52.4075,67.545 51.9975,67.725 C51.5875,67.905 51.225,68.16 50.91,68.49 C50.595,68.82 50.3425,69.225 50.1525,69.705 C49.9625,70.185 49.8675,70.725 49.8675,71.325 C49.8675,71.935 49.96,72.4775 50.145,72.9525 C50.33,73.4275 50.5875,73.83 50.9175,74.16 C51.2475,74.49 51.6325,74.7425 52.0725,74.9175 C52.5125,75.0925 52.9875,75.18 53.4975,75.18 Z M54.8025,70.62 L51.5325,70.62 C51.6125,70.02 51.8175,69.565 52.1475,69.255 C52.4775,68.945 52.8625,68.79 53.3025,68.79 C53.8125,68.79 54.19,68.9525 54.435,69.2775 C54.68,69.6025 54.8025,70.05 54.8025,70.62 L54.8025,70.62 Z M61.0275,75.18 C61.4475,75.18 61.865,75.105 62.28,74.955 C62.695,74.805 63.0775,74.58 63.4275,74.28 L63.4275,74.28 L62.7225,73.14 C62.5125,73.31 62.28,73.4575 62.025,73.5825 C61.77,73.7075 61.4975,73.77 61.2075,73.77 C60.6275,73.77 60.155,73.5475 59.79,73.1025 C59.425,72.6575 59.2425,72.065 59.2425,71.325 C59.2425,70.575 59.4275,69.9775 59.7975,69.5325 C60.1675,69.0875 60.6525,68.865 61.2525,68.865 C61.4825,68.865 61.695,68.9125 61.89,69.0075 C62.085,69.1025 62.2825,69.235 62.4825,69.405 L62.4825,69.405 L63.3225,68.28 C63.0525,68.05 62.745,67.855 62.4,67.695 C62.055,67.535 61.6425,67.455 61.1625,67.455 C60.6725,67.455 60.205,67.5425 59.76,67.7175 C59.315,67.8925 58.9225,68.145 58.5825,68.475 C58.2425,68.805 57.9725,69.21 57.7725,69.69 C57.5725,70.17 57.4725,70.715 57.4725,71.325 C57.4725,71.935 57.5625,72.48 57.7425,72.96 C57.9225,73.44 58.1725,73.845 58.4925,74.175 C58.8125,74.505 59.19,74.755 59.625,74.925 C60.06,75.095 60.5275,75.18 61.0275,75.18 Z M67.5375,75.18 C67.9975,75.18 68.44,75.095 68.865,74.925 C69.29,74.755 69.6625,74.505 69.9825,74.175 C70.3025,73.845 70.56,73.44 70.755,72.96 C70.95,72.48 71.0475,71.935 71.0475,71.325 C71.0475,70.715 70.95,70.17 70.755,69.69 C70.56,69.21 70.3025,68.805 69.9825,68.475 C69.6625,68.145 69.29,67.8925 68.865,67.7175 C68.44,67.5425 67.9975,67.455 67.5375,67.455 C67.0775,67.455 66.6375,67.5425 66.2175,67.7175 C65.7975,67.8925 65.425,68.145 65.1,68.475 C64.775,68.805 64.5175,69.21 64.3275,69.69 C64.1375,70.17 64.0425,70.715 64.0425,71.325 C64.0425,71.935 64.1375,72.48 64.3275,72.96 C64.5175,73.44 64.775,73.845 65.1,74.175 C65.425,74.505 65.7975,74.755 66.2175,74.925 C66.6375,75.095 67.0775,75.18 67.5375,75.18 Z M67.5375,73.77 C66.9975,73.77 66.575,73.5475 66.27,73.1025 C65.965,72.6575 65.8125,72.065 65.8125,71.325 C65.8125,70.575 65.965,69.9775 66.27,69.5325 C66.575,69.0875 66.9975,68.865 67.5375,68.865 C68.0775,68.865 68.5025,69.0875 68.8125,69.5325 C69.1225,69.9775 69.2775,70.575 69.2775,71.325 C69.2775,72.065 69.1225,72.6575 68.8125,73.1025 C68.5025,73.5475 68.0775,73.77 67.5375,73.77 Z M74.4825,75 L74.4825,69.855 C74.7925,69.555 75.07,69.3275 75.315,69.1725 C75.56,69.0175 75.8425,68.94 76.1625,68.94 C76.5725,68.94 76.8675,69.065 77.0475,69.315 C77.2275,69.565 77.3175,69.995 77.3175,70.605 L77.3175,70.605 L77.3175,75 L79.0425,75 L79.0425,70.38 C79.0425,69.44 78.8625,68.7175 78.5025,68.2125 C78.1425,67.7075 77.5675,67.455 76.7775,67.455 C76.2675,67.455 75.82,67.57 75.435,67.8 C75.05,68.03 74.6925,68.305 74.3625,68.625 L74.3625,68.625 L74.3025,68.625 L74.1825,67.635 L72.7575,67.635 L72.7575,75 L74.4825,75 Z M83.7375,75.18 C84.1375,75.18 84.5175,75.085 84.8775,74.895 C85.2375,74.705 85.5525,74.475 85.8225,74.205 L85.8225,74.205 L85.8825,74.205 L86.0025,75 L87.4275,75 L87.4275,64.41 L85.7025,64.41 L85.7025,67.08 L85.7625,68.265 C85.4725,68.015 85.1825,67.8175 84.8925,67.6725 C84.6025,67.5275 84.2475,67.455 83.8275,67.455 C83.4275,67.455 83.04,67.545 82.665,67.725 C82.29,67.905 81.9575,68.16 81.6675,68.49 C81.3775,68.82 81.145,69.225 80.97,69.705 C80.795,70.185 80.7075,70.725 80.7075,71.325 C80.7075,72.545 80.98,73.4925 81.525,74.1675 C82.07,74.8425 82.8075,75.18 83.7375,75.18 Z M84.1575,73.755 C83.6175,73.755 83.205,73.5475 82.92,73.1325 C82.635,72.7175 82.4925,72.11 82.4925,71.31 C82.4925,70.53 82.6575,69.93 82.9875,69.51 C83.3175,69.09 83.7225,68.88 84.2025,68.88 C84.4525,68.88 84.7,68.925 84.945,69.015 C85.19,69.105 85.4425,69.265 85.7025,69.495 L85.7025,69.495 L85.7025,72.93 C85.2225,73.48 84.7075,73.755 84.1575,73.755 Z" id="PerSecond" fill="#FFFFFF" fill-rule="nonzero"></path>
                </g>
                <path d="M9.68,49.52 L9.68,46.224 C11.28,45.9253333 12.5066667,45.2586667 13.36,44.224 C14.2133333,43.1893333 14.64,41.904 14.64,40.368 C14.64,39.3013333 14.4266667,38.4106667 14,37.696 C13.5733333,36.9813333 13.0346667,36.3786667 12.384,35.888 C11.7333333,35.3973333 11.0346667,34.976 10.288,34.624 C9.54133333,34.272 8.84266667,33.92 8.192,33.568 C7.54133333,33.216 7.00266667,32.832 6.576,32.416 C6.14933333,32 5.936,31.472 5.936,30.832 C5.936,30 6.18133333,29.3653333 6.672,28.928 C7.16266667,28.4906667 7.84533333,28.272 8.72,28.272 C9.488,28.272 10.1493333,28.416 10.704,28.704 C11.2586667,28.992 11.8346667,29.4133333 12.432,29.968 L12.432,29.968 L14.32,27.824 C13.7226667,27.2053333 13.056,26.6666667 12.32,26.208 C11.584,25.7493333 10.704,25.456 9.68,25.328 L9.68,25.328 L9.68,22.128 L7.12,22.128 L7.12,25.392 C5.66933333,25.648 4.51733333,26.272 3.664,27.264 C2.81066667,28.256 2.384,29.4986667 2.384,30.992 C2.384,31.9946667 2.59733333,32.832 3.024,33.504 C3.45066667,34.176 3.98933333,34.752 4.64,35.232 C5.29066667,35.712 5.98933333,36.128 6.736,36.48 C7.48266667,36.832 8.18133333,37.2 8.832,37.584 C9.48266667,37.968 10.0213333,38.3946667 10.448,38.864 C10.8746667,39.3333333 11.088,39.92 11.088,40.624 C11.088,41.4986667 10.832,42.176 10.32,42.656 C9.808,43.136 9.02933333,43.376 7.984,43.376 C7.10933333,43.376 6.288,43.1946667 5.52,42.832 C4.752,42.4693333 3.99466667,41.9893333 3.248,41.392 L3.248,41.392 L1.584,43.888 C2.30933333,44.5706667 3.168,45.12 4.16,45.536 C5.152,45.952 6.13866667,46.2133333 7.12,46.32 L7.12,46.32 L7.12,49.52 L9.68,49.52 Z M31.184,46 L31.184,42.992 L27.184,42.992 L27.184,25.648 L24.432,25.648 C23.792,26.032 23.104,26.3573333 22.368,26.624 C21.632,26.8906667 20.752,27.12 19.728,27.312 L19.728,27.312 L19.728,29.616 L23.472,29.616 L23.472,42.992 L18.928,42.992 L18.928,46 L31.184,46 Z M41.168,46.384 C43.3013333,46.384 44.9866667,45.472 46.224,43.648 C47.4613333,41.824 48.08,39.184 48.08,35.728 C48.08,32.2933333 47.4613333,29.6906667 46.224,27.92 C44.9866667,26.1493333 43.3013333,25.264 41.168,25.264 C39.0346667,25.264 37.3493333,26.144 36.112,27.904 C34.8746667,29.664 34.256,32.272 34.256,35.728 C34.256,39.184 34.8746667,41.824 36.112,43.648 C37.3493333,45.472 39.0346667,46.384 41.168,46.384 Z M41.168,43.504 C40.6773333,43.504 40.224,43.3706667 39.808,43.104 C39.392,42.8373333 39.0346667,42.3946667 38.736,41.776 C38.4373333,41.1573333 38.2026667,40.3573333 38.032,39.376 C37.8613333,38.3946667 37.776,37.1786667 37.776,35.728 C37.776,34.2986667 37.8613333,33.0986667 38.032,32.128 C38.2026667,31.1573333 38.4373333,30.3733333 38.736,29.776 C39.0346667,29.1786667 39.392,28.7573333 39.808,28.512 C40.224,28.2666667 40.6773333,28.144 41.168,28.144 C41.6586667,28.144 42.112,28.2666667 42.528,28.512 C42.944,28.7573333 43.3013333,29.1786667 43.6,29.776 C43.8986667,30.3733333 44.1333333,31.1573333 44.304,32.128 C44.4746667,33.0986667 44.56,34.2986667 44.56,35.728 C44.56,37.1786667 44.4746667,38.3946667 44.304,39.376 C44.1333333,40.3573333 43.8986667,41.1573333 43.6,41.776 C43.3013333,42.3946667 42.944,42.8373333 42.528,43.104 C42.112,43.3706667 41.6586667,43.504 41.168,43.504 Z M57.616,46.384 C58.64,46.384 59.5786667,46.2453333 60.432,45.968 C61.2853333,45.6906667 62.0106667,45.3013333 62.608,44.8 C63.2053333,44.2986667 63.6693333,43.712 64,43.04 C64.3306667,42.368 64.496,41.6373333 64.496,40.848 C64.496,40.1653333 64.4,39.5573333 64.208,39.024 C64.016,38.4906667 63.76,38.0106667 63.44,37.584 C63.12,37.1573333 62.7466667,36.7786667 62.32,36.448 C61.8933333,36.1173333 61.4453333,35.824 60.976,35.568 L60.976,35.568 L60.976,35.44 C61.296,35.2053333 61.6213333,34.9226667 61.952,34.592 C62.2826667,34.2613333 62.576,33.8986667 62.832,33.504 C63.088,33.1093333 63.296,32.6826667 63.456,32.224 C63.616,31.7653333 63.696,31.28 63.696,30.768 C63.696,29.936 63.5573333,29.184 63.28,28.512 C63.0026667,27.84 62.6026667,27.264 62.08,26.784 C61.5573333,26.304 60.928,25.9306667 60.192,25.664 C59.456,25.3973333 58.6293333,25.264 57.712,25.264 C56.8373333,25.264 56.0213333,25.392 55.264,25.648 C54.5066667,25.904 53.856,26.2666667 53.312,26.736 C52.768,27.2053333 52.3413333,27.7706667 52.032,28.432 C51.7226667,29.0933333 51.568,29.84 51.568,30.672 C51.568,31.76 51.84,32.688 52.384,33.456 C52.928,34.224 53.5946667,34.8853333 54.384,35.44 L54.384,35.44 L54.384,35.568 C53.8933333,35.824 53.4293333,36.1226667 52.992,36.464 C52.5546667,36.8053333 52.1653333,37.1893333 51.824,37.616 C51.4826667,38.0426667 51.2106667,38.5173333 51.008,39.04 C50.8053333,39.5626667 50.704,40.144 50.704,40.784 C50.704,41.616 50.88,42.3733333 51.232,43.056 C51.584,43.7386667 52.064,44.3253333 52.672,44.816 C53.28,45.3066667 54.0053333,45.6906667 54.848,45.968 C55.6906667,46.2453333 56.6133333,46.384 57.616,46.384 Z M58.96,34.512 C58.384,34.2986667 57.8506667,34.0693333 57.36,33.824 C56.8693333,33.5786667 56.4373333,33.312 56.064,33.024 C55.6906667,32.736 55.3973333,32.4 55.184,32.016 C54.9706667,31.632 54.864,31.184 54.864,30.672 C54.864,29.776 55.1306667,29.088 55.664,28.608 C56.1973333,28.128 56.8586667,27.888 57.648,27.888 C58.608,27.888 59.3493333,28.1813333 59.872,28.768 C60.3946667,29.3546667 60.656,30.096 60.656,30.992 C60.656,31.632 60.512,32.24 60.224,32.816 C59.936,33.392 59.5146667,33.9573333 58.96,34.512 Z M57.68,43.76 C56.6346667,43.76 55.7493333,43.456 55.024,42.848 C54.2986667,42.24 53.936,41.424 53.936,40.4 C53.936,39.6106667 54.144,38.896 54.56,38.256 C54.976,37.616 55.504,37.0613333 56.144,36.592 C56.8266667,36.8693333 57.4666667,37.136 58.064,37.392 C58.6613333,37.648 59.1786667,37.9306667 59.616,38.24 C60.0533333,38.5493333 60.4,38.9013333 60.656,39.296 C60.912,39.6906667 61.04,40.1653333 61.04,40.72 C61.04,41.68 60.7253333,42.4266667 60.096,42.96 C59.4666667,43.4933333 58.6613333,43.76 57.68,43.76 Z M68.112,51.824 C69.712,51.2693333 70.944,50.416 71.808,49.264 C72.672,48.112 73.104,46.7466667 73.104,45.168 C73.104,43.9733333 72.864,43.0453333 72.384,42.384 C71.904,41.7226667 71.2266667,41.392 70.352,41.392 C69.6693333,41.392 69.088,41.6 68.608,42.016 C68.128,42.432 67.888,42.9813333 67.888,43.664 C67.888,44.3893333 68.128,44.9493333 68.608,45.344 C69.088,45.7386667 69.6373333,45.936 70.256,45.936 L70.256,45.936 L70.544,45.936 C70.5653333,46.7466667 70.2933333,47.4933333 69.728,48.176 C69.1626667,48.8586667 68.3573333,49.4026667 67.312,49.808 L67.312,49.808 L68.112,51.824 Z M82.8,46.384 C84.9333333,46.384 86.6186667,45.472 87.856,43.648 C89.0933333,41.824 89.712,39.184 89.712,35.728 C89.712,32.2933333 89.0933333,29.6906667 87.856,27.92 C86.6186667,26.1493333 84.9333333,25.264 82.8,25.264 C80.6666667,25.264 78.9813333,26.144 77.744,27.904 C76.5066667,29.664 75.888,32.272 75.888,35.728 C75.888,39.184 76.5066667,41.824 77.744,43.648 C78.9813333,45.472 80.6666667,46.384 82.8,46.384 Z M82.8,43.504 C82.3093333,43.504 81.856,43.3706667 81.44,43.104 C81.024,42.8373333 80.6666667,42.3946667 80.368,41.776 C80.0693333,41.1573333 79.8346667,40.3573333 79.664,39.376 C79.4933333,38.3946667 79.408,37.1786667 79.408,35.728 C79.408,34.2986667 79.4933333,33.0986667 79.664,32.128 C79.8346667,31.1573333 80.0693333,30.3733333 80.368,29.776 C80.6666667,29.1786667 81.024,28.7573333 81.44,28.512 C81.856,28.2666667 82.3093333,28.144 82.8,28.144 C83.2906667,28.144 83.744,28.2666667 84.16,28.512 C84.576,28.7573333 84.9333333,29.1786667 85.232,29.776 C85.5306667,30.3733333 85.7653333,31.1573333 85.936,32.128 C86.1066667,33.0986667 86.192,34.2986667 86.192,35.728 C86.192,37.1786667 86.1066667,38.3946667 85.936,39.376 C85.7653333,40.3573333 85.5306667,41.1573333 85.232,41.776 C84.9333333,42.3946667 84.576,42.8373333 84.16,43.104 C83.744,43.3706667 83.2906667,43.504 82.8,43.504 Z M99.216,46.384 C101.349333,46.384 103.034667,45.472 104.272,43.648 C105.509333,41.824 106.128,39.184 106.128,35.728 C106.128,32.2933333 105.509333,29.6906667 104.272,27.92 C103.034667,26.1493333 101.349333,25.264 99.216,25.264 C97.0826667,25.264 95.3973333,26.144 94.16,27.904 C92.9226667,29.664 92.304,32.272 92.304,35.728 C92.304,39.184 92.9226667,41.824 94.16,43.648 C95.3973333,45.472 97.0826667,46.384 99.216,46.384 Z M99.216,43.504 C98.7253333,43.504 98.272,43.3706667 97.856,43.104 C97.44,42.8373333 97.0826667,42.3946667 96.784,41.776 C96.4853333,41.1573333 96.2506667,40.3573333 96.08,39.376 C95.9093333,38.3946667 95.824,37.1786667 95.824,35.728 C95.824,34.2986667 95.9093333,33.0986667 96.08,32.128 C96.2506667,31.1573333 96.4853333,30.3733333 96.784,29.776 C97.0826667,29.1786667 97.44,28.7573333 97.856,28.512 C98.272,28.2666667 98.7253333,28.144 99.216,28.144 C99.7066667,28.144 100.16,28.2666667 100.576,28.512 C100.992,28.7573333 101.349333,29.1786667 101.648,29.776 C101.946667,30.3733333 102.181333,31.1573333 102.352,32.128 C102.522667,33.0986667 102.608,34.2986667 102.608,35.728 C102.608,37.1786667 102.522667,38.3946667 102.352,39.376 C102.181333,40.3573333 101.946667,41.1573333 101.648,41.776 C101.349333,42.3946667 100.992,42.8373333 100.576,43.104 C100.16,43.3706667 99.7066667,43.504 99.216,43.504 Z M115.632,46.384 C117.765333,46.384 119.450667,45.472 120.688,43.648 C121.925333,41.824 122.544,39.184 122.544,35.728 C122.544,32.2933333 121.925333,29.6906667 120.688,27.92 C119.450667,26.1493333 117.765333,25.264 115.632,25.264 C113.498667,25.264 111.813333,26.144 110.576,27.904 C109.338667,29.664 108.72,32.272 108.72,35.728 C108.72,39.184 109.338667,41.824 110.576,43.648 C111.813333,45.472 113.498667,46.384 115.632,46.384 Z M115.632,43.504 C115.141333,43.504 114.688,43.3706667 114.272,43.104 C113.856,42.8373333 113.498667,42.3946667 113.2,41.776 C112.901333,41.1573333 112.666667,40.3573333 112.496,39.376 C112.325333,38.3946667 112.24,37.1786667 112.24,35.728 C112.24,34.2986667 112.325333,33.0986667 112.496,32.128 C112.666667,31.1573333 112.901333,30.3733333 113.2,29.776 C113.498667,29.1786667 113.856,28.7573333 114.272,28.512 C114.688,28.2666667 115.141333,28.144 115.632,28.144 C116.122667,28.144 116.576,28.2666667 116.992,28.512 C117.408,28.7573333 117.765333,29.1786667 118.064,29.776 C118.362667,30.3733333 118.597333,31.1573333 118.768,32.128 C118.938667,33.0986667 119.024,34.2986667 119.024,35.728 C119.024,37.1786667 118.938667,38.3946667 118.768,39.376 C118.597333,40.3573333 118.362667,41.1573333 118.064,41.776 C117.765333,42.3946667 117.408,42.8373333 116.992,43.104 C116.576,43.3706667 116.122667,43.504 115.632,43.504 Z" id="$108,000" fill="#112E51" fill-rule="nonzero"></path>
                <g id="Group" transform="translate(134.000000, 28.000000)" fill="#112E51">
                    <g id="Icon/Close" transform="translate(9.000000, 9.000000) rotate(-360.000000) translate(-9.000000, -9.000000) ">
                        <path d="M10.5847185,8.99808182 L15.4175482,4.17649135 C15.8582597,3.7357798 15.8582597,3.02124521 15.4175482,2.58053366 C14.9768366,2.13982211 14.262302,2.13982211 13.8215905,2.58053366 L9,7.41336327 L4.17840952,2.58053366 C3.73769798,2.13982212 3.02316339,2.13982213 2.58245185,2.58053367 C2.14174031,3.02124521 2.1417403,3.7357798 2.58245184,4.17649135 L7.41528145,8.99808182 L2.58245184,13.8196723 C2.36968072,14.0307058 2.25,14.3179735 2.25,14.6176511 C2.25,14.9173288 2.36968072,15.2045965 2.58245184,15.41563 C2.79348532,15.6284011 3.08075306,15.7480818 3.38043068,15.7480818 C3.6801083,15.7480818 3.96737604,15.6284011 4.17840952,15.41563 L9,10.5828004 L13.8215905,15.41563 C14.032624,15.6284011 14.3198917,15.7480818 14.6195693,15.7480818 C14.9192469,15.7480818 15.2065147,15.6284011 15.4175482,15.41563 C15.6303193,15.2045965 15.75,14.9173288 15.75,14.6176511 C15.75,14.3179735 15.6303193,14.0307058 15.4175482,13.8196723 L10.5847185,8.99808182 Z" id="Icon-Path"></path>
                    </g>
                </g>
            </g>
        </g>
    </g>
</svg>