<?xml version="1.0" encoding="UTF-8"?>
<svg width="611px" height="339px" viewBox="0 0 611 339" version="1.1" xmlns="http://www.w3.org/2000/svg" xmlns:xlink="http://www.w3.org/1999/xlink">
    <title>Viz/Overview/revenue</title>
    <g id="Viz/Overview/revenue" stroke="none" stroke-width="1" fill="none" fill-rule="evenodd">
        <g id="overview/viz/revenue">
            <g id="Group-9">
                <g id="graph-lines" transform="translate(51.000000, 7.000000)">
                    <polygon id="Rectangle-16" fill="#FAFAFA" fill-rule="nonzero" points="0 253 560 253 560 294 0 294"></polygon>
                    <polygon id="Rectangle-16" fill="#FAFAFA" fill-rule="nonzero" points="0 173 560 173 560 214 0 214"></polygon>
                    <polygon id="Rectangle-16" fill="#FAFAFA" fill-rule="nonzero" points="0 93 560 93 560 134 0 134"></polygon>
                    <polygon id="Rectangle-16" fill="#FAFAFA" fill-rule="nonzero" points="0 13 560 13 560 54 0 54"></polygon>
                    <rect id="Rectangle-Copy-7" fill="#EAEAEA" x="0" y="13" width="560" height="1"></rect>
                    <rect id="Rectangle-Copy-8" fill="#EAEAEA" x="0" y="53" width="560" height="1"></rect>
                    <rect id="Rectangle-Copy-9" fill="#EAEAEA" x="0" y="93" width="560" height="1"></rect>
                    <rect id="Rectangle-Copy-10" fill="#EAEAEA" x="0" y="133" width="560" height="1"></rect>
                    <rect id="Rectangle-Copy-11" fill="#EAEAEA" x="0" y="173" width="560" height="1"></rect>
                    <rect id="Rectangle-Copy-12" fill="#EAEAEA" x="0" y="213" width="560" height="1"></rect>
                    <rect id="Rectangle-Copy-13" fill="#EAEAEA" x="0" y="253" width="560" height="1"></rect>
                    <rect id="Rectangle" fill="#7D7D7D" x="0" y="294" width="560" height="1" rx="0.5"></rect>
                    <rect id="Rectangle" fill="#7D7D7D" x="0" y="0" width="1" height="295" rx="0.5"></rect>
                </g>
                <g id="y" fill="#666666" fill-rule="nonzero">
                    <path d="M5.09,26.65 L5.09,25.135 C5.81,25.035 6.3775,24.755 6.7925,24.295 C7.2075,23.835 7.415,23.245 7.415,22.525 C7.415,21.985 7.3125,21.5425 7.1075,21.1975 C6.9025,20.8525 6.645,20.5625 6.335,20.3275 C6.025,20.0925 5.6875,19.8925 5.3225,19.7275 C4.9575,19.5625 4.62,19.3925 4.31,19.2175 C4,19.0425 3.7425,18.84 3.5375,18.61 C3.3325,18.38 3.23,18.085 3.23,17.725 C3.23,17.285 3.365,16.935 3.635,16.675 C3.905,16.415 4.27,16.285 4.73,16.285 C5.14,16.285 5.4775,16.36 5.7425,16.51 C6.0075,16.66 6.28,16.87 6.56,17.14 L6.56,17.14 L7.22,16.405 C6.95,16.115 6.6475,15.865 6.3125,15.655 C5.9775,15.445 5.57,15.315 5.09,15.265 L5.09,15.265 L5.09,13.78 L4.19,13.78 L4.19,15.295 C3.53,15.395 3.0025,15.6675 2.6075,16.1125 C2.2125,16.5575 2.015,17.115 2.015,17.785 C2.015,18.275 2.1175,18.6775 2.3225,18.9925 C2.5275,19.3075 2.785,19.575 3.095,19.795 C3.405,20.015 3.7425,20.21 4.1075,20.38 C4.4725,20.55 4.81,20.7325 5.12,20.9275 C5.43,21.1225 5.6875,21.3525 5.8925,21.6175 C6.0975,21.8825 6.2,22.215 6.2,22.615 C6.2,23.085 6.0625,23.46 5.7875,23.74 C5.5125,24.02 5.095,24.16 4.535,24.16 C4.075,24.16 3.6525,24.0625 3.2675,23.8675 C2.8825,23.6725 2.53,23.435 2.21,23.155 L2.21,23.155 L1.64,24.01 C1.96,24.3 2.345,24.5525 2.795,24.7675 C3.245,24.9825 3.71,25.115 4.19,25.165 L4.19,25.165 L4.19,26.65 L5.09,26.65 Z M15.245,25 C15.285,24.07 15.3525,23.2225 15.4475,22.4575 C15.5425,21.6925 15.695,20.9675 15.905,20.2825 C16.115,19.5975 16.3975,18.925 16.7525,18.265 C17.1075,17.605 17.57,16.915 18.14,16.195 L18.14,16.195 L18.14,15.43 L11.975,15.43 L11.975,16.495 L16.745,16.495 C16.275,17.155 15.8725,17.8 15.5375,18.43 C15.2025,19.06 14.9275,19.7125 14.7125,20.3875 C14.4975,21.0625 14.33,21.775 14.21,22.525 C14.09,23.275 14.01,24.1 13.97,25 L13.97,25 L15.245,25 Z M20.645,25.18 C20.885,25.18 21.0925,25.0925 21.2675,24.9175 C21.4425,24.7425 21.53,24.52 21.53,24.25 C21.53,23.96 21.4425,23.7275 21.2675,23.5525 C21.0925,23.3775 20.885,23.29 20.645,23.29 C20.395,23.29 20.1825,23.3775 20.0075,23.5525 C19.8325,23.7275 19.745,23.96 19.745,24.25 C19.745,24.52 19.8325,24.7425 20.0075,24.9175 C20.1825,25.0925 20.395,25.18 20.645,25.18 Z M26.24,25.18 C27.2,25.18 27.95,24.75 28.49,23.89 C29.03,23.03 29.3,21.795 29.3,20.185 C29.3,18.575 29.03,17.35 28.49,16.51 C27.95,15.67 27.2,15.25 26.24,15.25 C25.27,15.25 24.515,15.67 23.975,16.51 C23.435,17.35 23.165,18.575 23.165,20.185 C23.165,21.795 23.435,23.03 23.975,23.89 C24.515,24.75 25.27,25.18 26.24,25.18 Z M26.24,24.19 C25.68,24.19 25.2275,23.8725 24.8825,23.2375 C24.5375,22.6025 24.365,21.585 24.365,20.185 C24.365,19.485 24.41,18.885 24.5,18.385 C24.59,17.885 24.7175,17.4775 24.8825,17.1625 C25.0475,16.8475 25.245,16.615 25.475,16.465 C25.705,16.315 25.96,16.24 26.24,16.24 C26.52,16.24 26.7725,16.315 26.9975,16.465 C27.2225,16.615 27.4175,16.8475 27.5825,17.1625 C27.7475,17.4775 27.875,17.885 27.965,18.385 C28.055,18.885 28.1,19.485 28.1,20.185 C28.1,20.885 28.055,21.4875 27.965,21.9925 C27.875,22.4975 27.7475,22.9125 27.5825,23.2375 C27.4175,23.5625 27.2225,23.8025 26.9975,23.9575 C26.7725,24.1125 26.52,24.19 26.24,24.19 Z M37.61,25 L37.61,16.21 L40.58,16.21 L40.58,15.16 L33.38,15.16 L33.38,16.21 L36.35,16.21 L36.35,25 L37.61,25 Z M5.09,66.65 L5.09,65.135 C5.81,65.035 6.3775,64.755 6.7925,64.295 C7.2075,63.835 7.415,63.245 7.415,62.525 C7.415,61.985 7.3125,61.5425 7.1075,61.1975 C6.9025,60.8525 6.645,60.5625 6.335,60.3275 C6.025,60.0925 5.6875,59.8925 5.3225,59.7275 C4.9575,59.5625 4.62,59.3925 4.31,59.2175 C4,59.0425 3.7425,58.84 3.5375,58.61 C3.3325,58.38 3.23,58.085 3.23,57.725 C3.23,57.285 3.365,56.935 3.635,56.675 C3.905,56.415 4.27,56.285 4.73,56.285 C5.14,56.285 5.4775,56.36 5.7425,56.51 C6.0075,56.66 6.28,56.87 6.56,57.14 L6.56,57.14 L7.22,56.405 C6.95,56.115 6.6475,55.865 6.3125,55.655 C5.9775,55.445 5.57,55.315 5.09,55.265 L5.09,55.265 L5.09,53.78 L4.19,53.78 L4.19,55.295 C3.53,55.395 3.0025,55.6675 2.6075,56.1125 C2.2125,56.5575 2.015,57.115 2.015,57.785 C2.015,58.275 2.1175,58.6775 2.3225,58.9925 C2.5275,59.3075 2.785,59.575 3.095,59.795 C3.405,60.015 3.7425,60.21 4.1075,60.38 C4.4725,60.55 4.81,60.7325 5.12,60.9275 C5.43,61.1225 5.6875,61.3525 5.8925,61.6175 C6.0975,61.8825 6.2,62.215 6.2,62.615 C6.2,63.085 6.0625,63.46 5.7875,63.74 C5.5125,64.02 5.095,64.16 4.535,64.16 C4.075,64.16 3.6525,64.0625 3.2675,63.8675 C2.8825,63.6725 2.53,63.435 2.21,63.155 L2.21,63.155 L1.64,64.01 C1.96,64.3 2.345,64.5525 2.795,64.7675 C3.245,64.9825 3.71,65.115 4.19,65.165 L4.19,65.165 L4.19,66.65 L5.09,66.65 Z M15.335,65.18 C15.725,65.18 16.09,65.105 16.43,64.955 C16.77,64.805 17.07,64.595 17.33,64.325 C17.59,64.055 17.795,63.7325 17.945,63.3575 C18.095,62.9825 18.17,62.565 18.17,62.105 C18.17,61.115 17.9225,60.375 17.4275,59.885 C16.9325,59.395 16.27,59.15 15.44,59.15 C15.05,59.15 14.655,59.2575 14.255,59.4725 C13.855,59.6875 13.505,59.98 13.205,60.35 C13.215,59.59 13.29,58.9525 13.43,58.4375 C13.57,57.9225 13.755,57.505 13.985,57.185 C14.215,56.865 14.48,56.635 14.78,56.495 C15.08,56.355 15.395,56.285 15.725,56.285 C16.025,56.285 16.3125,56.3525 16.5875,56.4875 C16.8625,56.6225 17.1,56.805 17.3,57.035 L17.3,57.035 L17.99,56.27 C17.72,55.98 17.3975,55.7375 17.0225,55.5425 C16.6475,55.3475 16.2,55.25 15.68,55.25 C15.2,55.25 14.7425,55.3475 14.3075,55.5425 C13.8725,55.7375 13.485,56.0475 13.145,56.4725 C12.805,56.8975 12.535,57.4475 12.335,58.1225 C12.135,58.7975 12.035,59.615 12.035,60.575 C12.035,61.345 12.12,62.0175 12.29,62.5925 C12.46,63.1675 12.6925,63.6475 12.9875,64.0325 C13.2825,64.4175 13.63,64.705 14.03,64.895 C14.43,65.085 14.865,65.18 15.335,65.18 Z M15.335,64.205 C14.725,64.205 14.2425,63.9625 13.8875,63.4775 C13.5325,62.9925 13.315,62.28 13.235,61.34 C13.535,60.89 13.865,60.5675 14.225,60.3725 C14.585,60.1775 14.92,60.08 15.23,60.08 C15.83,60.08 16.275,60.26 16.565,60.62 C16.855,60.98 17,61.475 17,62.105 C17,62.425 16.9575,62.7125 16.8725,62.9675 C16.7875,63.2225 16.67,63.4425 16.52,63.6275 C16.37,63.8125 16.195,63.955 15.995,64.055 C15.795,64.155 15.575,64.205 15.335,64.205 Z M20.645,65.18 C20.885,65.18 21.0925,65.0925 21.2675,64.9175 C21.4425,64.7425 21.53,64.52 21.53,64.25 C21.53,63.96 21.4425,63.7275 21.2675,63.5525 C21.0925,63.3775 20.885,63.29 20.645,63.29 C20.395,63.29 20.1825,63.3775 20.0075,63.5525 C19.8325,63.7275 19.745,63.96 19.745,64.25 C19.745,64.52 19.8325,64.7425 20.0075,64.9175 C20.1825,65.0925 20.395,65.18 20.645,65.18 Z M26.24,65.18 C27.2,65.18 27.95,64.75 28.49,63.89 C29.03,63.03 29.3,61.795 29.3,60.185 C29.3,58.575 29.03,57.35 28.49,56.51 C27.95,55.67 27.2,55.25 26.24,55.25 C25.27,55.25 24.515,55.67 23.975,56.51 C23.435,57.35 23.165,58.575 23.165,60.185 C23.165,61.795 23.435,63.03 23.975,63.89 C24.515,64.75 25.27,65.18 26.24,65.18 Z M26.24,64.19 C25.68,64.19 25.2275,63.8725 24.8825,63.2375 C24.5375,62.6025 24.365,61.585 24.365,60.185 C24.365,59.485 24.41,58.885 24.5,58.385 C24.59,57.885 24.7175,57.4775 24.8825,57.1625 C25.0475,56.8475 25.245,56.615 25.475,56.465 C25.705,56.315 25.96,56.24 26.24,56.24 C26.52,56.24 26.7725,56.315 26.9975,56.465 C27.2225,56.615 27.4175,56.8475 27.5825,57.1625 C27.7475,57.4775 27.875,57.885 27.965,58.385 C28.055,58.885 28.1,59.485 28.1,60.185 C28.1,60.885 28.055,61.4875 27.965,61.9925 C27.875,62.4975 27.7475,62.9125 27.5825,63.2375 C27.4175,63.5625 27.2225,63.8025 26.9975,63.9575 C26.7725,64.1125 26.52,64.19 26.24,64.19 Z M37.61,65 L37.61,56.21 L40.58,56.21 L40.58,55.16 L33.38,55.16 L33.38,56.21 L36.35,56.21 L36.35,65 L37.61,65 Z M5.09,106.65 L5.09,105.135 C5.81,105.035 6.3775,104.755 6.7925,104.295 C7.2075,103.835 7.415,103.245 7.415,102.525 C7.415,101.985 7.3125,101.5425 7.1075,101.1975 C6.9025,100.8525 6.645,100.5625 6.335,100.3275 C6.025,100.0925 5.6875,99.8925 5.3225,99.7275 C4.9575,99.5625 4.62,99.3925 4.31,99.2175 C4,99.0425 3.7425,98.84 3.5375,98.61 C3.3325,98.38 3.23,98.085 3.23,97.725 C3.23,97.285 3.365,96.935 3.635,96.675 C3.905,96.415 4.27,96.285 4.73,96.285 C5.14,96.285 5.4775,96.36 5.7425,96.51 C6.0075,96.66 6.28,96.87 6.56,97.14 L6.56,97.14 L7.22,96.405 C6.95,96.115 6.6475,95.865 6.3125,95.655 C5.9775,95.445 5.57,95.315 5.09,95.265 L5.09,95.265 L5.09,93.78 L4.19,93.78 L4.19,95.295 C3.53,95.395 3.0025,95.6675 2.6075,96.1125 C2.2125,96.5575 2.015,97.115 2.015,97.785 C2.015,98.275 2.1175,98.6775 2.3225,98.9925 C2.5275,99.3075 2.785,99.575 3.095,99.795 C3.405,100.015 3.7425,100.21 4.1075,100.38 C4.4725,100.55 4.81,100.7325 5.12,100.9275 C5.43,101.1225 5.6875,101.3525 5.8925,101.6175 C6.0975,101.8825 6.2,102.215 6.2,102.615 C6.2,103.085 6.0625,103.46 5.7875,103.74 C5.5125,104.02 5.095,104.16 4.535,104.16 C4.075,104.16 3.6525,104.0625 3.2675,103.8675 C2.8825,103.6725 2.53,103.435 2.21,103.155 L2.21,103.155 L1.64,104.01 C1.96,104.3 2.345,104.5525 2.795,104.7675 C3.245,104.9825 3.71,105.115 4.19,105.165 L4.19,105.165 L4.19,106.65 L5.09,106.65 Z M14.825,105.18 C15.245,105.18 15.6475,105.1075 16.0325,104.9625 C16.4175,104.8175 16.76,104.6075 17.06,104.3325 C17.36,104.0575 17.6,103.72 17.78,103.32 C17.96,102.92 18.05,102.46 18.05,101.94 C18.05,101.42 17.9725,100.9725 17.8175,100.5975 C17.6625,100.2225 17.45,99.9125 17.18,99.6675 C16.91,99.4225 16.595,99.24 16.235,99.12 C15.875,99 15.49,98.94 15.08,98.94 C14.79,98.94 14.53,98.975 14.3,99.045 C14.07,99.115 13.84,99.21 13.61,99.33 L13.61,99.33 L13.865,96.495 L17.57,96.495 L17.57,95.43 L12.785,95.43 L12.47,100.035 L13.13,100.455 C13.42,100.265 13.6825,100.12 13.9175,100.02 C14.1525,99.92 14.435,99.87 14.765,99.87 C15.385,99.87 15.88,100.055 16.25,100.425 C16.62,100.795 16.805,101.31 16.805,101.97 C16.805,102.3 16.75,102.6 16.64,102.87 C16.53,103.14 16.38,103.37 16.19,103.56 C16,103.75 15.7775,103.8975 15.5225,104.0025 C15.2675,104.1075 14.995,104.16 14.705,104.16 C14.145,104.16 13.6725,104.05 13.2875,103.83 C12.9025,103.61 12.57,103.355 12.29,103.065 L12.29,103.065 L11.69,103.875 C11.85,104.045 12.0325,104.2075 12.2375,104.3625 C12.4425,104.5175 12.6725,104.655 12.9275,104.775 C13.1825,104.895 13.4675,104.9925 13.7825,105.0675 C14.0975,105.1425 14.445,105.18 14.825,105.18 Z M20.645,105.18 C20.885,105.18 21.0925,105.0925 21.2675,104.9175 C21.4425,104.7425 21.53,104.52 21.53,104.25 C21.53,103.96 21.4425,103.7275 21.2675,103.5525 C21.0925,103.3775 20.885,103.29 20.645,103.29 C20.395,103.29 20.1825,103.3775 20.0075,103.5525 C19.8325,103.7275 19.745,103.96 19.745,104.25 C19.745,104.52 19.8325,104.7425 20.0075,104.9175 C20.1825,105.0925 20.395,105.18 20.645,105.18 Z M26.24,105.18 C27.2,105.18 27.95,104.75 28.49,103.89 C29.03,103.03 29.3,101.795 29.3,100.185 C29.3,98.575 29.03,97.35 28.49,96.51 C27.95,95.67 27.2,95.25 26.24,95.25 C25.27,95.25 24.515,95.67 23.975,96.51 C23.435,97.35 23.165,98.575 23.165,100.185 C23.165,101.795 23.435,103.03 23.975,103.89 C24.515,104.75 25.27,105.18 26.24,105.18 Z M26.24,104.19 C25.68,104.19 25.2275,103.8725 24.8825,103.2375 C24.5375,102.6025 24.365,101.585 24.365,100.185 C24.365,99.485 24.41,98.885 24.5,98.385 C24.59,97.885 24.7175,97.4775 24.8825,97.1625 C25.0475,96.8475 25.245,96.615 25.475,96.465 C25.705,96.315 25.96,96.24 26.24,96.24 C26.52,96.24 26.7725,96.315 26.9975,96.465 C27.2225,96.615 27.4175,96.8475 27.5825,97.1625 C27.7475,97.4775 27.875,97.885 27.965,98.385 C28.055,98.885 28.1,99.485 28.1,100.185 C28.1,100.885 28.055,101.4875 27.965,101.9925 C27.875,102.4975 27.7475,102.9125 27.5825,103.2375 C27.4175,103.5625 27.2225,103.8025 26.9975,103.9575 C26.7725,104.1125 26.52,104.19 26.24,104.19 Z M37.61,105 L37.61,96.21 L40.58,96.21 L40.58,95.16 L33.38,95.16 L33.38,96.21 L36.35,96.21 L36.35,105 L37.61,105 Z M5.09,146.65 L5.09,145.135 C5.81,145.035 6.3775,144.755 6.7925,144.295 C7.2075,143.835 7.415,143.245 7.415,142.525 C7.415,141.985 7.3125,141.5425 7.1075,141.1975 C6.9025,140.8525 6.645,140.5625 6.335,140.3275 C6.025,140.0925 5.6875,139.8925 5.3225,139.7275 C4.9575,139.5625 4.62,139.3925 4.31,139.2175 C4,139.0425 3.7425,138.84 3.5375,138.61 C3.3325,138.38 3.23,138.085 3.23,137.725 C3.23,137.285 3.365,136.935 3.635,136.675 C3.905,136.415 4.27,136.285 4.73,136.285 C5.14,136.285 5.4775,136.36 5.7425,136.51 C6.0075,136.66 6.28,136.87 6.56,137.14 L6.56,137.14 L7.22,136.405 C6.95,136.115 6.6475,135.865 6.3125,135.655 C5.9775,135.445 5.57,135.315 5.09,135.265 L5.09,135.265 L5.09,133.78 L4.19,133.78 L4.19,135.295 C3.53,135.395 3.0025,135.6675 2.6075,136.1125 C2.2125,136.5575 2.015,137.115 2.015,137.785 C2.015,138.275 2.1175,138.6775 2.3225,138.9925 C2.5275,139.3075 2.785,139.575 3.095,139.795 C3.405,140.015 3.7425,140.21 4.1075,140.38 C4.4725,140.55 4.81,140.7325 5.12,140.9275 C5.43,141.1225 5.6875,141.3525 5.8925,141.6175 C6.0975,141.8825 6.2,142.215 6.2,142.615 C6.2,143.085 6.0625,143.46 5.7875,143.74 C5.5125,144.02 5.095,144.16 4.535,144.16 C4.075,144.16 3.6525,144.0625 3.2675,143.8675 C2.8825,143.6725 2.53,143.435 2.21,143.155 L2.21,143.155 L1.64,144.01 C1.96,144.3 2.345,144.5525 2.795,144.7675 C3.245,144.9825 3.71,145.115 4.19,145.165 L4.19,145.165 L4.19,146.65 L5.09,146.65 Z M17.045,145 L17.045,142.36 L18.35,142.36 L18.35,141.37 L17.045,141.37 L17.045,135.43 L15.665,135.43 L11.57,141.55 L11.57,142.36 L15.875,142.36 L15.875,145 L17.045,145 Z M15.875,141.37 L12.875,141.37 L15.11,138.1 C15.25,137.87 15.385,137.645 15.515,137.425 C15.645,137.205 15.77,136.98 15.89,136.75 L15.89,136.75 L15.95,136.75 C15.93,137.01 15.9125,137.3175 15.8975,137.6725 C15.8825,138.0275 15.875,138.335 15.875,138.595 L15.875,138.595 L15.875,141.37 Z M20.645,145.18 C20.885,145.18 21.0925,145.0925 21.2675,144.9175 C21.4425,144.7425 21.53,144.52 21.53,144.25 C21.53,143.96 21.4425,143.7275 21.2675,143.5525 C21.0925,143.3775 20.885,143.29 20.645,143.29 C20.395,143.29 20.1825,143.3775 20.0075,143.5525 C19.8325,143.7275 19.745,143.96 19.745,144.25 C19.745,144.52 19.8325,144.7425 20.0075,144.9175 C20.1825,145.0925 20.395,145.18 20.645,145.18 Z M26.24,145.18 C27.2,145.18 27.95,144.75 28.49,143.89 C29.03,143.03 29.3,141.795 29.3,140.185 C29.3,138.575 29.03,137.35 28.49,136.51 C27.95,135.67 27.2,135.25 26.24,135.25 C25.27,135.25 24.515,135.67 23.975,136.51 C23.435,137.35 23.165,138.575 23.165,140.185 C23.165,141.795 23.435,143.03 23.975,143.89 C24.515,144.75 25.27,145.18 26.24,145.18 Z M26.24,144.19 C25.68,144.19 25.2275,143.8725 24.8825,143.2375 C24.5375,142.6025 24.365,141.585 24.365,140.185 C24.365,139.485 24.41,138.885 24.5,138.385 C24.59,137.885 24.7175,137.4775 24.8825,137.1625 C25.0475,136.8475 25.245,136.615 25.475,136.465 C25.705,136.315 25.96,136.24 26.24,136.24 C26.52,136.24 26.7725,136.315 26.9975,136.465 C27.2225,136.615 27.4175,136.8475 27.5825,137.1625 C27.7475,137.4775 27.875,137.885 27.965,138.385 C28.055,138.885 28.1,139.485 28.1,140.185 C28.1,140.885 28.055,141.4875 27.965,141.9925 C27.875,142.4975 27.7475,142.9125 27.5825,143.2375 C27.4175,143.5625 27.2225,143.8025 26.9975,143.9575 C26.7725,144.1125 26.52,144.19 26.24,144.19 Z M37.61,145 L37.61,136.21 L40.58,136.21 L40.58,135.16 L33.38,135.16 L33.38,136.21 L36.35,136.21 L36.35,145 L37.61,145 Z M5.09,186.65 L5.09,185.135 C5.81,185.035 6.3775,184.755 6.7925,184.295 C7.2075,183.835 7.415,183.245 7.415,182.525 C7.415,181.985 7.3125,181.5425 7.1075,181.1975 C6.9025,180.8525 6.645,180.5625 6.335,180.3275 C6.025,180.0925 5.6875,179.8925 5.3225,179.7275 C4.9575,179.5625 4.62,179.3925 4.31,179.2175 C4,179.0425 3.7425,178.84 3.5375,178.61 C3.3325,178.38 3.23,178.085 3.23,177.725 C3.23,177.285 3.365,176.935 3.635,176.675 C3.905,176.415 4.27,176.285 4.73,176.285 C5.14,176.285 5.4775,176.36 5.7425,176.51 C6.0075,176.66 6.28,176.87 6.56,177.14 L6.56,177.14 L7.22,176.405 C6.95,176.115 6.6475,175.865 6.3125,175.655 C5.9775,175.445 5.57,175.315 5.09,175.265 L5.09,175.265 L5.09,173.78 L4.19,173.78 L4.19,175.295 C3.53,175.395 3.0025,175.6675 2.6075,176.1125 C2.2125,176.5575 2.015,177.115 2.015,177.785 C2.015,178.275 2.1175,178.6775 2.3225,178.9925 C2.5275,179.3075 2.785,179.575 3.095,179.795 C3.405,180.015 3.7425,180.21 4.1075,180.38 C4.4725,180.55 4.81,180.7325 5.12,180.9275 C5.43,181.1225 5.6875,181.3525 5.8925,181.6175 C6.0975,181.8825 6.2,182.215 6.2,182.615 C6.2,183.085 6.0625,183.46 5.7875,183.74 C5.5125,184.02 5.095,184.16 4.535,184.16 C4.075,184.16 3.6525,184.0625 3.2675,183.8675 C2.8825,183.6725 2.53,183.435 2.21,183.155 L2.21,183.155 L1.64,184.01 C1.96,184.3 2.345,184.5525 2.795,184.7675 C3.245,184.9825 3.71,185.115 4.19,185.165 L4.19,185.165 L4.19,186.65 L5.09,186.65 Z M14.855,185.18 C15.295,185.18 15.705,185.1175 16.085,184.9925 C16.465,184.8675 16.7975,184.6875 17.0825,184.4525 C17.3675,184.2175 17.5925,183.93 17.7575,183.59 C17.9225,183.25 18.005,182.87 18.005,182.45 C18.005,182.12 17.9525,181.82 17.8475,181.55 C17.7425,181.28 17.595,181.0425 17.405,180.8375 C17.215,180.6325 16.995,180.4625 16.745,180.3275 C16.495,180.1925 16.225,180.09 15.935,180.02 L15.935,180.02 L15.935,179.96 C16.455,179.76 16.875,179.475 17.195,179.105 C17.515,178.735 17.675,178.26 17.675,177.68 C17.675,177.29 17.605,176.945 17.465,176.645 C17.325,176.345 17.1275,176.0925 16.8725,175.8875 C16.6175,175.6825 16.315,175.525 15.965,175.415 C15.615,175.305 15.23,175.25 14.81,175.25 C14.24,175.25 13.7325,175.3625 13.2875,175.5875 C12.8425,175.8125 12.435,176.1 12.065,176.45 L12.065,176.45 L12.725,177.23 C13.015,176.94 13.3275,176.705 13.6625,176.525 C13.9975,176.345 14.365,176.255 14.765,176.255 C15.275,176.255 15.6775,176.39 15.9725,176.66 C16.2675,176.93 16.415,177.3 16.415,177.77 C16.415,178.02 16.37,178.255 16.28,178.475 C16.19,178.695 16.0375,178.885 15.8225,179.045 C15.6075,179.205 15.3275,179.33 14.9825,179.42 C14.6375,179.51 14.21,179.555 13.7,179.555 L13.7,179.555 L13.7,180.5 C14.27,180.5 14.75,180.545 15.14,180.635 C15.53,180.725 15.845,180.855 16.085,181.025 C16.325,181.195 16.4975,181.3975 16.6025,181.6325 C16.7075,181.8675 16.76,182.125 16.76,182.405 C16.76,182.945 16.575,183.3725 16.205,183.6875 C15.835,184.0025 15.36,184.16 14.78,184.16 C14.21,184.16 13.7325,184.045 13.3475,183.815 C12.9625,183.585 12.625,183.32 12.335,183.02 L12.335,183.02 L11.705,183.83 C11.865,184.01 12.0475,184.18 12.2525,184.34 C12.4575,184.5 12.69,184.6425 12.95,184.7675 C13.21,184.8925 13.4975,184.9925 13.8125,185.0675 C14.1275,185.1425 14.475,185.18 14.855,185.18 Z M20.645,185.18 C20.885,185.18 21.0925,185.0925 21.2675,184.9175 C21.4425,184.7425 21.53,184.52 21.53,184.25 C21.53,183.96 21.4425,183.7275 21.2675,183.5525 C21.0925,183.3775 20.885,183.29 20.645,183.29 C20.395,183.29 20.1825,183.3775 20.0075,183.5525 C19.8325,183.7275 19.745,183.96 19.745,184.25 C19.745,184.52 19.8325,184.7425 20.0075,184.9175 C20.1825,185.0925 20.395,185.18 20.645,185.18 Z M26.24,185.18 C27.2,185.18 27.95,184.75 28.49,183.89 C29.03,183.03 29.3,181.795 29.3,180.185 C29.3,178.575 29.03,177.35 28.49,176.51 C27.95,175.67 27.2,175.25 26.24,175.25 C25.27,175.25 24.515,175.67 23.975,176.51 C23.435,177.35 23.165,178.575 23.165,180.185 C23.165,181.795 23.435,183.03 23.975,183.89 C24.515,184.75 25.27,185.18 26.24,185.18 Z M26.24,184.19 C25.68,184.19 25.2275,183.8725 24.8825,183.2375 C24.5375,182.6025 24.365,181.585 24.365,180.185 C24.365,179.485 24.41,178.885 24.5,178.385 C24.59,177.885 24.7175,177.4775 24.8825,177.1625 C25.0475,176.8475 25.245,176.615 25.475,176.465 C25.705,176.315 25.96,176.24 26.24,176.24 C26.52,176.24 26.7725,176.315 26.9975,176.465 C27.2225,176.615 27.4175,176.8475 27.5825,177.1625 C27.7475,177.4775 27.875,177.885 27.965,178.385 C28.055,178.885 28.1,179.485 28.1,180.185 C28.1,180.885 28.055,181.4875 27.965,181.9925 C27.875,182.4975 27.7475,182.9125 27.5825,183.2375 C27.4175,183.5625 27.2225,183.8025 26.9975,183.9575 C26.7725,184.1125 26.52,184.19 26.24,184.19 Z M37.61,185 L37.61,176.21 L40.58,176.21 L40.58,175.16 L33.38,175.16 L33.38,176.21 L36.35,176.21 L36.35,185 L37.61,185 Z M5.09,226.65 L5.09,225.135 C5.81,225.035 6.3775,224.755 6.7925,224.295 C7.2075,223.835 7.415,223.245 7.415,222.525 C7.415,221.985 7.3125,221.5425 7.1075,221.1975 C6.9025,220.8525 6.645,220.5625 6.335,220.3275 C6.025,220.0925 5.6875,219.8925 5.3225,219.7275 C4.9575,219.5625 4.62,219.3925 4.31,219.2175 C4,219.0425 3.7425,218.84 3.5375,218.61 C3.3325,218.38 3.23,218.085 3.23,217.725 C3.23,217.285 3.365,216.935 3.635,216.675 C3.905,216.415 4.27,216.285 4.73,216.285 C5.14,216.285 5.4775,216.36 5.7425,216.51 C6.0075,216.66 6.28,216.87 6.56,217.14 L6.56,217.14 L7.22,216.405 C6.95,216.115 6.6475,215.865 6.3125,215.655 C5.9775,215.445 5.57,215.315 5.09,215.265 L5.09,215.265 L5.09,213.78 L4.19,213.78 L4.19,215.295 C3.53,215.395 3.0025,215.6675 2.6075,216.1125 C2.2125,216.5575 2.015,217.115 2.015,217.785 C2.015,218.275 2.1175,218.6775 2.3225,218.9925 C2.5275,219.3075 2.785,219.575 3.095,219.795 C3.405,220.015 3.7425,220.21 4.1075,220.38 C4.4725,220.55 4.81,220.7325 5.12,220.9275 C5.43,221.1225 5.6875,221.3525 5.8925,221.6175 C6.0975,221.8825 6.2,222.215 6.2,222.615 C6.2,223.085 6.0625,223.46 5.7875,223.74 C5.5125,224.02 5.095,224.16 4.535,224.16 C4.075,224.16 3.6525,224.0625 3.2675,223.8675 C2.8825,223.6725 2.53,223.435 2.21,223.155 L2.21,223.155 L1.64,224.01 C1.96,224.3 2.345,224.5525 2.795,224.7675 C3.245,224.9825 3.71,225.115 4.19,225.165 L4.19,225.165 L4.19,226.65 L5.09,226.65 Z M18.095,225 L18.095,223.935 L15.32,223.935 C15.07,223.935 14.805,223.945 14.525,223.965 C14.245,223.985 13.975,224.005 13.715,224.025 C14.285,223.435 14.8075,222.8775 15.2825,222.3525 C15.7575,221.8275 16.1675,221.3225 16.5125,220.8375 C16.8575,220.3525 17.1275,219.8825 17.3225,219.4275 C17.5175,218.9725 17.615,218.52 17.615,218.07 C17.615,217.22 17.36,216.5375 16.85,216.0225 C16.34,215.5075 15.64,215.25 14.75,215.25 C14.12,215.25 13.58,215.3825 13.13,215.6475 C12.68,215.9125 12.255,216.265 11.855,216.705 L11.855,216.705 L12.56,217.41 C12.84,217.09 13.15,216.8175 13.49,216.5925 C13.83,216.3675 14.2,216.255 14.6,216.255 C15.21,216.255 15.665,216.43 15.965,216.78 C16.265,217.13 16.415,217.58 16.415,218.13 C16.415,218.52 16.315,218.9225 16.115,219.3375 C15.915,219.7525 15.625,220.2075 15.245,220.7025 C14.865,221.1975 14.395,221.735 13.835,222.315 C13.275,222.895 12.635,223.545 11.915,224.265 L11.915,224.265 L11.915,225 L18.095,225 Z M20.645,225.18 C20.885,225.18 21.0925,225.0925 21.2675,224.9175 C21.4425,224.7425 21.53,224.52 21.53,224.25 C21.53,223.96 21.4425,223.7275 21.2675,223.5525 C21.0925,223.3775 20.885,223.29 20.645,223.29 C20.395,223.29 20.1825,223.3775 20.0075,223.5525 C19.8325,223.7275 19.745,223.96 19.745,224.25 C19.745,224.52 19.8325,224.7425 20.0075,224.9175 C20.1825,225.0925 20.395,225.18 20.645,225.18 Z M26.24,225.18 C27.2,225.18 27.95,224.75 28.49,223.89 C29.03,223.03 29.3,221.795 29.3,220.185 C29.3,218.575 29.03,217.35 28.49,216.51 C27.95,215.67 27.2,215.25 26.24,215.25 C25.27,215.25 24.515,215.67 23.975,216.51 C23.435,217.35 23.165,218.575 23.165,220.185 C23.165,221.795 23.435,223.03 23.975,223.89 C24.515,224.75 25.27,225.18 26.24,225.18 Z M26.24,224.19 C25.68,224.19 25.2275,223.8725 24.8825,223.2375 C24.5375,222.6025 24.365,221.585 24.365,220.185 C24.365,219.485 24.41,218.885 24.5,218.385 C24.59,217.885 24.7175,217.4775 24.8825,217.1625 C25.0475,216.8475 25.245,216.615 25.475,216.465 C25.705,216.315 25.96,216.24 26.24,216.24 C26.52,216.24 26.7725,216.315 26.9975,216.465 C27.2225,216.615 27.4175,216.8475 27.5825,217.1625 C27.7475,217.4775 27.875,217.885 27.965,218.385 C28.055,218.885 28.1,219.485 28.1,220.185 C28.1,220.885 28.055,221.4875 27.965,221.9925 C27.875,222.4975 27.7475,222.9125 27.5825,223.2375 C27.4175,223.5625 27.2225,223.8025 26.9975,223.9575 C26.7725,224.1125 26.52,224.19 26.24,224.19 Z M37.61,225 L37.61,216.21 L40.58,216.21 L40.58,215.16 L33.38,215.16 L33.38,216.21 L36.35,216.21 L36.35,225 L37.61,225 Z M5.09,266.65 L5.09,265.135 C5.81,265.035 6.3775,264.755 6.7925,264.295 C7.2075,263.835 7.415,263.245 7.415,262.525 C7.415,261.985 7.3125,261.5425 7.1075,261.1975 C6.9025,260.8525 6.645,260.5625 6.335,260.3275 C6.025,260.0925 5.6875,259.8925 5.3225,259.7275 C4.9575,259.5625 4.62,259.3925 4.31,259.2175 C4,259.0425 3.7425,258.84 3.5375,258.61 C3.3325,258.38 3.23,258.085 3.23,257.725 C3.23,257.285 3.365,256.935 3.635,256.675 C3.905,256.415 4.27,256.285 4.73,256.285 C5.14,256.285 5.4775,256.36 5.7425,256.51 C6.0075,256.66 6.28,256.87 6.56,257.14 L6.56,257.14 L7.22,256.405 C6.95,256.115 6.6475,255.865 6.3125,255.655 C5.9775,255.445 5.57,255.315 5.09,255.265 L5.09,255.265 L5.09,253.78 L4.19,253.78 L4.19,255.295 C3.53,255.395 3.0025,255.6675 2.6075,256.1125 C2.2125,256.5575 2.015,257.115 2.015,257.785 C2.015,258.275 2.1175,258.6775 2.3225,258.9925 C2.5275,259.3075 2.785,259.575 3.095,259.795 C3.405,260.015 3.7425,260.21 4.1075,260.38 C4.4725,260.55 4.81,260.7325 5.12,260.9275 C5.43,261.1225 5.6875,261.3525 5.8925,261.6175 C6.0975,261.8825 6.2,262.215 6.2,262.615 C6.2,263.085 6.0625,263.46 5.7875,263.74 C5.5125,264.02 5.095,264.16 4.535,264.16 C4.075,264.16 3.6525,264.0625 3.2675,263.8675 C2.8825,263.6725 2.53,263.435 2.21,263.155 L2.21,263.155 L1.64,264.01 C1.96,264.3 2.345,264.5525 2.795,264.7675 C3.245,264.9825 3.71,265.115 4.19,265.165 L4.19,265.165 L4.19,266.65 L5.09,266.65 Z M17.9,265 L17.9,263.98 L15.92,263.98 L15.92,255.43 L14.975,255.43 C14.715,255.59 14.4225,255.7275 14.0975,255.8425 C13.7725,255.9575 13.39,256.055 12.95,256.135 L12.95,256.135 L12.95,256.93 L14.69,256.93 L14.69,263.98 L12.5,263.98 L12.5,265 L17.9,265 Z M20.645,265.18 C20.885,265.18 21.0925,265.0925 21.2675,264.9175 C21.4425,264.7425 21.53,264.52 21.53,264.25 C21.53,263.96 21.4425,263.7275 21.2675,263.5525 C21.0925,263.3775 20.885,263.29 20.645,263.29 C20.395,263.29 20.1825,263.3775 20.0075,263.5525 C19.8325,263.7275 19.745,263.96 19.745,264.25 C19.745,264.52 19.8325,264.7425 20.0075,264.9175 C20.1825,265.0925 20.395,265.18 20.645,265.18 Z M26.24,265.18 C27.2,265.18 27.95,264.75 28.49,263.89 C29.03,263.03 29.3,261.795 29.3,260.185 C29.3,258.575 29.03,257.35 28.49,256.51 C27.95,255.67 27.2,255.25 26.24,255.25 C25.27,255.25 24.515,255.67 23.975,256.51 C23.435,257.35 23.165,258.575 23.165,260.185 C23.165,261.795 23.435,263.03 23.975,263.89 C24.515,264.75 25.27,265.18 26.24,265.18 Z M26.24,264.19 C25.68,264.19 25.2275,263.8725 24.8825,263.2375 C24.5375,262.6025 24.365,261.585 24.365,260.185 C24.365,259.485 24.41,258.885 24.5,258.385 C24.59,257.885 24.7175,257.4775 24.8825,257.1625 C25.0475,256.8475 25.245,256.615 25.475,256.465 C25.705,256.315 25.96,256.24 26.24,256.24 C26.52,256.24 26.7725,256.315 26.9975,256.465 C27.2225,256.615 27.4175,256.8475 27.5825,257.1625 C27.7475,257.4775 27.875,257.885 27.965,258.385 C28.055,258.885 28.1,259.485 28.1,260.185 C28.1,260.885 28.055,261.4875 27.965,261.9925 C27.875,262.4975 27.7475,262.9125 27.5825,263.2375 C27.4175,263.5625 27.2225,263.8025 26.9975,263.9575 C26.7725,264.1125 26.52,264.19 26.24,264.19 Z M37.61,265 L37.61,256.21 L40.58,256.21 L40.58,255.16 L33.38,255.16 L33.38,256.21 L36.35,256.21 L36.35,265 L37.61,265 Z M27.32,306.65 L27.32,305.135 C28.04,305.035 28.6075,304.755 29.0225,304.295 C29.4375,303.835 29.645,303.245 29.645,302.525 C29.645,301.985 29.5425,301.5425 29.3375,301.1975 C29.1325,300.8525 28.875,300.5625 28.565,300.3275 C28.255,300.0925 27.9175,299.8925 27.5525,299.7275 C27.1875,299.5625 26.85,299.3925 26.54,299.2175 C26.23,299.0425 25.9725,298.84 25.7675,298.61 C25.5625,298.38 25.46,298.085 25.46,297.725 C25.46,297.285 25.595,296.935 25.865,296.675 C26.135,296.415 26.5,296.285 26.96,296.285 C27.37,296.285 27.7075,296.36 27.9725,296.51 C28.2375,296.66 28.51,296.87 28.79,297.14 L28.79,297.14 L29.45,296.405 C29.18,296.115 28.8775,295.865 28.5425,295.655 C28.2075,295.445 27.8,295.315 27.32,295.265 L27.32,295.265 L27.32,293.78 L26.42,293.78 L26.42,295.295 C25.76,295.395 25.2325,295.6675 24.8375,296.1125 C24.4425,296.5575 24.245,297.115 24.245,297.785 C24.245,298.275 24.3475,298.6775 24.5525,298.9925 C24.7575,299.3075 25.015,299.575 25.325,299.795 C25.635,300.015 25.9725,300.21 26.3375,300.38 C26.7025,300.55 27.04,300.7325 27.35,300.9275 C27.66,301.1225 27.9175,301.3525 28.1225,301.6175 C28.3275,301.8825 28.43,302.215 28.43,302.615 C28.43,303.085 28.2925,303.46 28.0175,303.74 C27.7425,304.02 27.325,304.16 26.765,304.16 C26.305,304.16 25.8825,304.0625 25.4975,303.8675 C25.1125,303.6725 24.76,303.435 24.44,303.155 L24.44,303.155 L23.87,304.01 C24.19,304.3 24.575,304.5525 25.025,304.7675 C25.475,304.9825 25.94,305.115 26.42,305.165 L26.42,305.165 L26.42,306.65 L27.32,306.65 Z M37.28,305.18 C38.24,305.18 38.99,304.75 39.53,303.89 C40.07,303.03 40.34,301.795 40.34,300.185 C40.34,298.575 40.07,297.35 39.53,296.51 C38.99,295.67 38.24,295.25 37.28,295.25 C36.31,295.25 35.555,295.67 35.015,296.51 C34.475,297.35 34.205,298.575 34.205,300.185 C34.205,301.795 34.475,303.03 35.015,303.89 C35.555,304.75 36.31,305.18 37.28,305.18 Z M37.28,304.19 C36.72,304.19 36.2675,303.8725 35.9225,303.2375 C35.5775,302.6025 35.405,301.585 35.405,300.185 C35.405,299.485 35.45,298.885 35.54,298.385 C35.63,297.885 35.7575,297.4775 35.9225,297.1625 C36.0875,296.8475 36.285,296.615 36.515,296.465 C36.745,296.315 37,296.24 37.28,296.24 C37.56,296.24 37.8125,296.315 38.0375,296.465 C38.2625,296.615 38.4575,296.8475 38.6225,297.1625 C38.7875,297.4775 38.915,297.885 39.005,298.385 C39.095,298.885 39.14,299.485 39.14,300.185 C39.14,300.885 39.095,301.4875 39.005,301.9925 C38.915,302.4975 38.7875,302.9125 38.6225,303.2375 C38.4575,303.5625 38.2625,303.8025 38.0375,303.9575 C37.8125,304.1125 37.56,304.19 37.28,304.19 Z" id="$7.0T$6.0T$5.0T$4.0T$3.0T$2.0T$1.0T$0"></path>
                </g>
                <g id="x" transform="translate(104.000000, 301.000000)" fill="#666666" fill-rule="nonzero">
                    <path d="M422.04,30 L422.04,27.06 L417.36,27.06 C416.9,27.06 416.38,27.085 415.8,27.135 C415.22,27.185 414.68,27.23 414.18,27.27 C415.12,26.27 416.01,25.3 416.85,24.36 C417.69,23.42 418.425,22.505 419.055,21.615 C419.685,20.725 420.185,19.845 420.555,18.975 C420.925,18.105 421.11,17.25 421.11,16.41 C421.11,15.53 420.965,14.73 420.675,14.01 C420.385,13.29 419.98,12.675 419.46,12.165 C418.94,11.655 418.31,11.26 417.57,10.98 C416.83,10.7 416,10.56 415.08,10.56 C413.76,10.56 412.635,10.815 411.705,11.325 C410.775,11.835 409.87,12.56 408.99,13.5 L408.99,13.5 L410.91,15.42 C411.43,14.84 411.995,14.34 412.605,13.92 C413.215,13.5 413.89,13.29 414.63,13.29 C415.65,13.29 416.43,13.585 416.97,14.175 C417.51,14.765 417.78,15.57 417.78,16.59 C417.78,17.31 417.58,18.07 417.18,18.87 C416.78,19.67 416.205,20.53 415.455,21.45 C414.705,22.37 413.795,23.37 412.725,24.45 C411.655,25.53 410.46,26.71 409.14,27.99 L409.14,27.99 L409.14,30 L422.04,30 Z M431.07,30.36 C433.07,30.36 434.65,29.505 435.81,27.795 C436.97,26.085 437.55,23.61 437.55,20.37 C437.55,17.15 436.97,14.71 435.81,13.05 C434.65,11.39 433.07,10.56 431.07,10.56 C429.07,10.56 427.49,11.385 426.33,13.035 C425.17,14.685 424.59,17.13 424.59,20.37 C424.59,23.61 425.17,26.085 426.33,27.795 C427.49,29.505 429.07,30.36 431.07,30.36 Z M431.07,27.66 C430.61,27.66 430.185,27.535 429.795,27.285 C429.405,27.035 429.07,26.62 428.79,26.04 C428.51,25.46 428.29,24.71 428.13,23.79 C427.97,22.87 427.89,21.73 427.89,20.37 C427.89,19.03 427.97,17.905 428.13,16.995 C428.29,16.085 428.51,15.35 428.79,14.79 C429.07,14.23 429.405,13.835 429.795,13.605 C430.185,13.375 430.61,13.26 431.07,13.26 C431.53,13.26 431.955,13.375 432.345,13.605 C432.735,13.835 433.07,14.23 433.35,14.79 C433.63,15.35 433.85,16.085 434.01,16.995 C434.17,17.905 434.25,19.03 434.25,20.37 C434.25,21.73 434.17,22.87 434.01,23.79 C433.85,24.71 433.63,25.46 433.35,26.04 C433.07,26.62 432.735,27.035 432.345,27.285 C431.955,27.535 431.53,27.66 431.07,27.66 Z M452.82,30 L452.82,27.06 L448.14,27.06 C447.68,27.06 447.16,27.085 446.58,27.135 C446,27.185 445.46,27.23 444.96,27.27 C445.9,26.27 446.79,25.3 447.63,24.36 C448.47,23.42 449.205,22.505 449.835,21.615 C450.465,20.725 450.965,19.845 451.335,18.975 C451.705,18.105 451.89,17.25 451.89,16.41 C451.89,15.53 451.745,14.73 451.455,14.01 C451.165,13.29 450.76,12.675 450.24,12.165 C449.72,11.655 449.09,11.26 448.35,10.98 C447.61,10.7 446.78,10.56 445.86,10.56 C444.54,10.56 443.415,10.815 442.485,11.325 C441.555,11.835 440.65,12.56 439.77,13.5 L439.77,13.5 L441.69,15.42 C442.21,14.84 442.775,14.34 443.385,13.92 C443.995,13.5 444.67,13.29 445.41,13.29 C446.43,13.29 447.21,13.585 447.75,14.175 C448.29,14.765 448.56,15.57 448.56,16.59 C448.56,17.31 448.36,18.07 447.96,18.87 C447.56,19.67 446.985,20.53 446.235,21.45 C445.485,22.37 444.575,23.37 443.505,24.45 C442.435,25.53 441.24,26.71 439.92,27.99 L439.92,27.99 L439.92,30 L452.82,30 Z M461.85,30.36 C463.85,30.36 465.43,29.505 466.59,27.795 C467.75,26.085 468.33,23.61 468.33,20.37 C468.33,17.15 467.75,14.71 466.59,13.05 C465.43,11.39 463.85,10.56 461.85,10.56 C459.85,10.56 458.27,11.385 457.11,13.035 C455.95,14.685 455.37,17.13 455.37,20.37 C455.37,23.61 455.95,26.085 457.11,27.795 C458.27,29.505 459.85,30.36 461.85,30.36 Z M461.85,27.66 C461.39,27.66 460.965,27.535 460.575,27.285 C460.185,27.035 459.85,26.62 459.57,26.04 C459.29,25.46 459.07,24.71 458.91,23.79 C458.75,22.87 458.67,21.73 458.67,20.37 C458.67,19.03 458.75,17.905 458.91,16.995 C459.07,16.085 459.29,15.35 459.57,14.79 C459.85,14.23 460.185,13.835 460.575,13.605 C460.965,13.375 461.39,13.26 461.85,13.26 C462.31,13.26 462.735,13.375 463.125,13.605 C463.515,13.835 463.85,14.23 464.13,14.79 C464.41,15.35 464.63,16.085 464.79,16.995 C464.95,17.905 465.03,19.03 465.03,20.37 C465.03,21.73 464.95,22.87 464.79,23.79 C464.63,24.71 464.41,25.46 464.13,26.04 C463.85,26.62 463.515,27.035 463.125,27.285 C462.735,27.535 462.31,27.66 461.85,27.66 Z" id="2020"></path>
                    <path d="M218.78,26 L218.78,24.935 L216.005,24.935 C215.755,24.935 215.49,24.945 215.21,24.965 C214.93,24.985 214.66,25.005 214.4,25.025 C214.97,24.435 215.4925,23.8775 215.9675,23.3525 C216.4425,22.8275 216.8525,22.3225 217.1975,21.8375 C217.5425,21.3525 217.8125,20.8825 218.0075,20.4275 C218.2025,19.9725 218.3,19.52 218.3,19.07 C218.3,18.22 218.045,17.5375 217.535,17.0225 C217.025,16.5075 216.325,16.25 215.435,16.25 C214.805,16.25 214.265,16.3825 213.815,16.6475 C213.365,16.9125 212.94,17.265 212.54,17.705 L212.54,17.705 L213.245,18.41 C213.525,18.09 213.835,17.8175 214.175,17.5925 C214.515,17.3675 214.885,17.255 215.285,17.255 C215.895,17.255 216.35,17.43 216.65,17.78 C216.95,18.13 217.1,18.58 217.1,19.13 C217.1,19.52 217,19.9225 216.8,20.3375 C216.6,20.7525 216.31,21.2075 215.93,21.7025 C215.55,22.1975 215.08,22.735 214.52,23.315 C213.96,23.895 213.32,24.545 212.6,25.265 L212.6,25.265 L212.6,26 L218.78,26 Z M223.19,26.18 C224.15,26.18 224.9,25.75 225.44,24.89 C225.98,24.03 226.25,22.795 226.25,21.185 C226.25,19.575 225.98,18.35 225.44,17.51 C224.9,16.67 224.15,16.25 223.19,16.25 C222.22,16.25 221.465,16.67 220.925,17.51 C220.385,18.35 220.115,19.575 220.115,21.185 C220.115,22.795 220.385,24.03 220.925,24.89 C221.465,25.75 222.22,26.18 223.19,26.18 Z M223.19,25.19 C222.63,25.19 222.1775,24.8725 221.8325,24.2375 C221.4875,23.6025 221.315,22.585 221.315,21.185 C221.315,20.485 221.36,19.885 221.45,19.385 C221.54,18.885 221.6675,18.4775 221.8325,18.1625 C221.9975,17.8475 222.195,17.615 222.425,17.465 C222.655,17.315 222.91,17.24 223.19,17.24 C223.47,17.24 223.7225,17.315 223.9475,17.465 C224.1725,17.615 224.3675,17.8475 224.5325,18.1625 C224.6975,18.4775 224.825,18.885 224.915,19.385 C225.005,19.885 225.05,20.485 225.05,21.185 C225.05,21.885 225.005,22.4875 224.915,22.9925 C224.825,23.4975 224.6975,23.9125 224.5325,24.2375 C224.3675,24.5625 224.1725,24.8025 223.9475,24.9575 C223.7225,25.1125 223.47,25.19 223.19,25.19 Z M233.495,26 L233.495,24.98 L231.515,24.98 L231.515,16.43 L230.57,16.43 C230.31,16.59 230.0175,16.7275 229.6925,16.8425 C229.3675,16.9575 228.985,17.055 228.545,17.135 L228.545,17.135 L228.545,17.93 L230.285,17.93 L230.285,24.98 L228.095,24.98 L228.095,26 L233.495,26 Z M238.115,26.18 C238.575,26.18 238.995,26.115 239.375,25.985 C239.755,25.855 240.08,25.675 240.35,25.445 C240.62,25.215 240.83,24.945 240.98,24.635 C241.13,24.325 241.205,23.99 241.205,23.63 C241.205,23.31 241.1575,23.025 241.0625,22.775 C240.9675,22.525 240.8425,22.3025 240.6875,22.1075 C240.5325,21.9125 240.355,21.7375 240.155,21.5825 C239.955,21.4275 239.75,21.29 239.54,21.17 L239.54,21.17 L239.54,21.11 C239.69,21 239.8425,20.865 239.9975,20.705 C240.1525,20.545 240.2925,20.365 240.4175,20.165 C240.5425,19.965 240.6475,19.75 240.7325,19.52 C240.8175,19.29 240.86,19.05 240.86,18.8 C240.86,18.43 240.7975,18.0875 240.6725,17.7725 C240.5475,17.4575 240.3675,17.1875 240.1325,16.9625 C239.8975,16.7375 239.615,16.5625 239.285,16.4375 C238.955,16.3125 238.58,16.25 238.16,16.25 C237.77,16.25 237.41,16.31 237.08,16.43 C236.75,16.55 236.465,16.7175 236.225,16.9325 C235.985,17.1475 235.795,17.405 235.655,17.705 C235.515,18.005 235.445,18.34 235.445,18.71 C235.445,19.22 235.58,19.6525 235.85,20.0075 C236.12,20.3625 236.43,20.665 236.78,20.915 L236.78,20.915 L236.78,20.975 C236.55,21.095 236.3275,21.2375 236.1125,21.4025 C235.8975,21.5675 235.7075,21.7575 235.5425,21.9725 C235.3775,22.1875 235.2425,22.4275 235.1375,22.6925 C235.0325,22.9575 234.98,23.245 234.98,23.555 C234.98,23.935 235.06,24.285 235.22,24.605 C235.38,24.925 235.5975,25.2025 235.8725,25.4375 C236.1475,25.6725 236.4775,25.855 236.8625,25.985 C237.2475,26.115 237.665,26.18 238.115,26.18 Z M238.79,20.78 C238.5,20.67 238.2225,20.5525 237.9575,20.4275 C237.6925,20.3025 237.4575,20.16 237.2525,20 C237.0475,19.84 236.885,19.6575 236.765,19.4525 C236.645,19.2475 236.585,19 236.585,18.71 C236.585,18.24 236.73,17.865 237.02,17.585 C237.31,17.305 237.68,17.165 238.13,17.165 C238.66,17.165 239.07,17.3275 239.36,17.6525 C239.65,17.9775 239.795,18.38 239.795,18.86 C239.795,19.21 239.7075,19.545 239.5325,19.865 C239.3575,20.185 239.11,20.49 238.79,20.78 Z M238.145,25.265 C237.855,25.265 237.585,25.22 237.335,25.13 C237.085,25.04 236.8675,24.9125 236.6825,24.7475 C236.4975,24.5825 236.3525,24.39 236.2475,24.17 C236.1425,23.95 236.09,23.705 236.09,23.435 C236.09,22.995 236.2175,22.6025 236.4725,22.2575 C236.7275,21.9125 237.045,21.61 237.425,21.35 C237.765,21.49 238.0925,21.6275 238.4075,21.7625 C238.7225,21.8975 239,22.0475 239.24,22.2125 C239.48,22.3775 239.67,22.57 239.81,22.79 C239.95,23.01 240.02,23.275 240.02,23.585 C240.02,24.085 239.8475,24.49 239.5025,24.8 C239.1575,25.11 238.705,25.265 238.145,25.265 Z" id="2018"></path>
                    <path d="M324.78,26 L324.78,24.935 L322.005,24.935 C321.755,24.935 321.49,24.945 321.21,24.965 C320.93,24.985 320.66,25.005 320.4,25.025 C320.97,24.435 321.4925,23.8775 321.9675,23.3525 C322.4425,22.8275 322.8525,22.3225 323.1975,21.8375 C323.5425,21.3525 323.8125,20.8825 324.0075,20.4275 C324.2025,19.9725 324.3,19.52 324.3,19.07 C324.3,18.22 324.045,17.5375 323.535,17.0225 C323.025,16.5075 322.325,16.25 321.435,16.25 C320.805,16.25 320.265,16.3825 319.815,16.6475 C319.365,16.9125 318.94,17.265 318.54,17.705 L318.54,17.705 L319.245,18.41 C319.525,18.09 319.835,17.8175 320.175,17.5925 C320.515,17.3675 320.885,17.255 321.285,17.255 C321.895,17.255 322.35,17.43 322.65,17.78 C322.95,18.13 323.1,18.58 323.1,19.13 C323.1,19.52 323,19.9225 322.8,20.3375 C322.6,20.7525 322.31,21.2075 321.93,21.7025 C321.55,22.1975 321.08,22.735 320.52,23.315 C319.96,23.895 319.32,24.545 318.6,25.265 L318.6,25.265 L318.6,26 L324.78,26 Z M329.19,26.18 C330.15,26.18 330.9,25.75 331.44,24.89 C331.98,24.03 332.25,22.795 332.25,21.185 C332.25,19.575 331.98,18.35 331.44,17.51 C330.9,16.67 330.15,16.25 329.19,16.25 C328.22,16.25 327.465,16.67 326.925,17.51 C326.385,18.35 326.115,19.575 326.115,21.185 C326.115,22.795 326.385,24.03 326.925,24.89 C327.465,25.75 328.22,26.18 329.19,26.18 Z M329.19,25.19 C328.63,25.19 328.1775,24.8725 327.8325,24.2375 C327.4875,23.6025 327.315,22.585 327.315,21.185 C327.315,20.485 327.36,19.885 327.45,19.385 C327.54,18.885 327.6675,18.4775 327.8325,18.1625 C327.9975,17.8475 328.195,17.615 328.425,17.465 C328.655,17.315 328.91,17.24 329.19,17.24 C329.47,17.24 329.7225,17.315 329.9475,17.465 C330.1725,17.615 330.3675,17.8475 330.5325,18.1625 C330.6975,18.4775 330.825,18.885 330.915,19.385 C331.005,19.885 331.05,20.485 331.05,21.185 C331.05,21.885 331.005,22.4875 330.915,22.9925 C330.825,23.4975 330.6975,23.9125 330.5325,24.2375 C330.3675,24.5625 330.1725,24.8025 329.9475,24.9575 C329.7225,25.1125 329.47,25.19 329.19,25.19 Z M339.495,26 L339.495,24.98 L337.515,24.98 L337.515,16.43 L336.57,16.43 C336.31,16.59 336.0175,16.7275 335.6925,16.8425 C335.3675,16.9575 334.985,17.055 334.545,17.135 L334.545,17.135 L334.545,17.93 L336.285,17.93 L336.285,24.98 L334.095,24.98 L334.095,26 L339.495,26 Z M343.44,26.18 C343.92,26.18 344.3775,26.0825 344.8125,25.8875 C345.2475,25.6925 345.635,25.3825 345.975,24.9575 C346.315,24.5325 346.585,23.9825 346.785,23.3075 C346.985,22.6325 347.085,21.815 347.085,20.855 C347.085,20.085 347.0025,19.4125 346.8375,18.8375 C346.6725,18.2625 346.4425,17.7825 346.1475,17.3975 C345.8525,17.0125 345.5025,16.725 345.0975,16.535 C344.6925,16.345 344.255,16.25 343.785,16.25 C343.405,16.25 343.0425,16.325 342.6975,16.475 C342.3525,16.625 342.0525,16.835 341.7975,17.105 C341.5425,17.375 341.34,17.6975 341.19,18.0725 C341.04,18.4475 340.965,18.865 340.965,19.325 C340.965,20.315 341.21,21.055 341.7,21.545 C342.19,22.035 342.85,22.28 343.68,22.28 C344.08,22.28 344.48,22.17 344.88,21.95 C345.28,21.73 345.63,21.43 345.93,21.05 C345.92,21.82 345.845,22.465 345.705,22.985 C345.565,23.505 345.38,23.9275 345.15,24.2525 C344.92,24.5775 344.655,24.81 344.355,24.95 C344.055,25.09 343.735,25.16 343.395,25.16 C343.095,25.16 342.8075,25.09 342.5325,24.95 C342.2575,24.81 342.02,24.625 341.82,24.395 L341.82,24.395 L341.13,25.175 C341.39,25.465 341.7125,25.705 342.0975,25.895 C342.4825,26.085 342.93,26.18 343.44,26.18 Z M343.89,21.35 C343.29,21.35 342.845,21.17 342.555,20.81 C342.265,20.45 342.12,19.955 342.12,19.325 C342.12,19.015 342.1625,18.73 342.2475,18.47 C342.3325,18.21 342.45,17.9875 342.6,17.8025 C342.75,17.6175 342.9275,17.475 343.1325,17.375 C343.3375,17.275 343.555,17.225 343.785,17.225 C344.395,17.225 344.88,17.465 345.24,17.945 C345.6,18.425 345.82,19.135 345.9,20.075 C345.59,20.525 345.2575,20.85 344.9025,21.05 C344.5475,21.25 344.21,21.35 343.89,21.35 Z" id="2019"></path>
                    <path d="M112.78,26 L112.78,24.935 L110.005,24.935 C109.755,24.935 109.49,24.945 109.21,24.965 C108.93,24.985 108.66,25.005 108.4,25.025 C108.97,24.435 109.4925,23.8775 109.9675,23.3525 C110.4425,22.8275 110.8525,22.3225 111.1975,21.8375 C111.5425,21.3525 111.8125,20.8825 112.0075,20.4275 C112.2025,19.9725 112.3,19.52 112.3,19.07 C112.3,18.22 112.045,17.5375 111.535,17.0225 C111.025,16.5075 110.325,16.25 109.435,16.25 C108.805,16.25 108.265,16.3825 107.815,16.6475 C107.365,16.9125 106.94,17.265 106.54,17.705 L106.54,17.705 L107.245,18.41 C107.525,18.09 107.835,17.8175 108.175,17.5925 C108.515,17.3675 108.885,17.255 109.285,17.255 C109.895,17.255 110.35,17.43 110.65,17.78 C110.95,18.13 111.1,18.58 111.1,19.13 C111.1,19.52 111,19.9225 110.8,20.3375 C110.6,20.7525 110.31,21.2075 109.93,21.7025 C109.55,22.1975 109.08,22.735 108.52,23.315 C107.96,23.895 107.32,24.545 106.6,25.265 L106.6,25.265 L106.6,26 L112.78,26 Z M117.19,26.18 C118.15,26.18 118.9,25.75 119.44,24.89 C119.98,24.03 120.25,22.795 120.25,21.185 C120.25,19.575 119.98,18.35 119.44,17.51 C118.9,16.67 118.15,16.25 117.19,16.25 C116.22,16.25 115.465,16.67 114.925,17.51 C114.385,18.35 114.115,19.575 114.115,21.185 C114.115,22.795 114.385,24.03 114.925,24.89 C115.465,25.75 116.22,26.18 117.19,26.18 Z M117.19,25.19 C116.63,25.19 116.1775,24.8725 115.8325,24.2375 C115.4875,23.6025 115.315,22.585 115.315,21.185 C115.315,20.485 115.36,19.885 115.45,19.385 C115.54,18.885 115.6675,18.4775 115.8325,18.1625 C115.9975,17.8475 116.195,17.615 116.425,17.465 C116.655,17.315 116.91,17.24 117.19,17.24 C117.47,17.24 117.7225,17.315 117.9475,17.465 C118.1725,17.615 118.3675,17.8475 118.5325,18.1625 C118.6975,18.4775 118.825,18.885 118.915,19.385 C119.005,19.885 119.05,20.485 119.05,21.185 C119.05,21.885 119.005,22.4875 118.915,22.9925 C118.825,23.4975 118.6975,23.9125 118.5325,24.2375 C118.3675,24.5625 118.1725,24.8025 117.9475,24.9575 C117.7225,25.1125 117.47,25.19 117.19,25.19 Z M127.495,26 L127.495,24.98 L125.515,24.98 L125.515,16.43 L124.57,16.43 C124.31,16.59 124.0175,16.7275 123.6925,16.8425 C123.3675,16.9575 122.985,17.055 122.545,17.135 L122.545,17.135 L122.545,17.93 L124.285,17.93 L124.285,24.98 L122.095,24.98 L122.095,26 L127.495,26 Z M132.295,26 C132.335,25.07 132.4025,24.2225 132.4975,23.4575 C132.5925,22.6925 132.745,21.9675 132.955,21.2825 C133.165,20.5975 133.4475,19.925 133.8025,19.265 C134.1575,18.605 134.62,17.915 135.19,17.195 L135.19,17.195 L135.19,16.43 L129.025,16.43 L129.025,17.495 L133.795,17.495 C133.325,18.155 132.9225,18.8 132.5875,19.43 C132.2525,20.06 131.9775,20.7125 131.7625,21.3875 C131.5475,22.0625 131.38,22.775 131.26,23.525 C131.14,24.275 131.06,25.1 131.02,26 L131.02,26 L132.295,26 Z" id="2017"></path>
                    <path d="M6.78,26 L6.78,24.935 L4.005,24.935 C3.755,24.935 3.49,24.945 3.21,24.965 C2.93,24.985 2.66,25.005 2.4,25.025 C2.97,24.435 3.4925,23.8775 3.9675,23.3525 C4.4425,22.8275 4.8525,22.3225 5.1975,21.8375 C5.5425,21.3525 5.8125,20.8825 6.0075,20.4275 C6.2025,19.9725 6.3,19.52 6.3,19.07 C6.3,18.22 6.045,17.5375 5.535,17.0225 C5.025,16.5075 4.325,16.25 3.435,16.25 C2.805,16.25 2.265,16.3825 1.815,16.6475 C1.365,16.9125 0.94,17.265 0.54,17.705 L0.54,17.705 L1.245,18.41 C1.525,18.09 1.835,17.8175 2.175,17.5925 C2.515,17.3675 2.885,17.255 3.285,17.255 C3.895,17.255 4.35,17.43 4.65,17.78 C4.95,18.13 5.1,18.58 5.1,19.13 C5.1,19.52 5,19.9225 4.8,20.3375 C4.6,20.7525 4.31,21.2075 3.93,21.7025 C3.55,22.1975 3.08,22.735 2.52,23.315 C1.96,23.895 1.32,24.545 0.6,25.265 L0.6,25.265 L0.6,26 L6.78,26 Z M11.19,26.18 C12.15,26.18 12.9,25.75 13.44,24.89 C13.98,24.03 14.25,22.795 14.25,21.185 C14.25,19.575 13.98,18.35 13.44,17.51 C12.9,16.67 12.15,16.25 11.19,16.25 C10.22,16.25 9.465,16.67 8.925,17.51 C8.385,18.35 8.115,19.575 8.115,21.185 C8.115,22.795 8.385,24.03 8.925,24.89 C9.465,25.75 10.22,26.18 11.19,26.18 Z M11.19,25.19 C10.63,25.19 10.1775,24.8725 9.8325,24.2375 C9.4875,23.6025 9.315,22.585 9.315,21.185 C9.315,20.485 9.36,19.885 9.45,19.385 C9.54,18.885 9.6675,18.4775 9.8325,18.1625 C9.9975,17.8475 10.195,17.615 10.425,17.465 C10.655,17.315 10.91,17.24 11.19,17.24 C11.47,17.24 11.7225,17.315 11.9475,17.465 C12.1725,17.615 12.3675,17.8475 12.5325,18.1625 C12.6975,18.4775 12.825,18.885 12.915,19.385 C13.005,19.885 13.05,20.485 13.05,21.185 C13.05,21.885 13.005,22.4875 12.915,22.9925 C12.825,23.4975 12.6975,23.9125 12.5325,24.2375 C12.3675,24.5625 12.1725,24.8025 11.9475,24.9575 C11.7225,25.1125 11.47,25.19 11.19,25.19 Z M21.495,26 L21.495,24.98 L19.515,24.98 L19.515,16.43 L18.57,16.43 C18.31,16.59 18.0175,16.7275 17.6925,16.8425 C17.3675,16.9575 16.985,17.055 16.545,17.135 L16.545,17.135 L16.545,17.93 L18.285,17.93 L18.285,24.98 L16.095,24.98 L16.095,26 L21.495,26 Z M26.385,26.18 C26.775,26.18 27.14,26.105 27.48,25.955 C27.82,25.805 28.12,25.595 28.38,25.325 C28.64,25.055 28.845,24.7325 28.995,24.3575 C29.145,23.9825 29.22,23.565 29.22,23.105 C29.22,22.115 28.9725,21.375 28.4775,20.885 C27.9825,20.395 27.32,20.15 26.49,20.15 C26.1,20.15 25.705,20.2575 25.305,20.4725 C24.905,20.6875 24.555,20.98 24.255,21.35 C24.265,20.59 24.34,19.9525 24.48,19.4375 C24.62,18.9225 24.805,18.505 25.035,18.185 C25.265,17.865 25.53,17.635 25.83,17.495 C26.13,17.355 26.445,17.285 26.775,17.285 C27.075,17.285 27.3625,17.3525 27.6375,17.4875 C27.9125,17.6225 28.15,17.805 28.35,18.035 L28.35,18.035 L29.04,17.27 C28.77,16.98 28.4475,16.7375 28.0725,16.5425 C27.6975,16.3475 27.25,16.25 26.73,16.25 C26.25,16.25 25.7925,16.3475 25.3575,16.5425 C24.9225,16.7375 24.535,17.0475 24.195,17.4725 C23.855,17.8975 23.585,18.4475 23.385,19.1225 C23.185,19.7975 23.085,20.615 23.085,21.575 C23.085,22.345 23.17,23.0175 23.34,23.5925 C23.51,24.1675 23.7425,24.6475 24.0375,25.0325 C24.3325,25.4175 24.68,25.705 25.08,25.895 C25.48,26.085 25.915,26.18 26.385,26.18 Z M26.385,25.205 C25.775,25.205 25.2925,24.9625 24.9375,24.4775 C24.5825,23.9925 24.365,23.28 24.285,22.34 C24.585,21.89 24.915,21.5675 25.275,21.3725 C25.635,21.1775 25.97,21.08 26.28,21.08 C26.88,21.08 27.325,21.26 27.615,21.62 C27.905,21.98 28.05,22.475 28.05,23.105 C28.05,23.425 28.0075,23.7125 27.9225,23.9675 C27.8375,24.2225 27.72,24.4425 27.57,24.6275 C27.42,24.8125 27.245,24.955 27.045,25.055 C26.845,25.155 26.625,25.205 26.385,25.205 Z" id="2016"></path>
                </g>
            </g>
            <g id="data" transform="translate(94.000000, 160.000000)" fill="#0A2F5A" fill-rule="nonzero">
                <path d="M427,2 L471,2 C472.656854,2 474,3.34314575 474,5 L474,141 L474,141 L424,141 L424,5 C424,3.34314575 425.343146,2 427,2 Z" id="Rectangle-2-Copy"></path>
                <path d="M3,12 L47,12 C48.6568542,12 50,13.3431458 50,15 L50,141 L50,141 L0,141 L0,15 C-2.02906125e-16,13.3431458 1.34314575,12 3,12 Z" id="Rectangle-2"></path>
                <path d="M109,8 L153,8 C154.656854,8 156,9.34314575 156,11 L156,141 L156,141 L106,141 L106,11 C106,9.34314575 107.343146,8 109,8 Z" id="Rectangle-2"></path>
                <path d="M215,6 L259,6 C260.656854,6 262,7.34314575 262,9 L262,141 L262,141 L212,141 L212,9 C212,7.34314575 213.343146,6 215,6 Z" id="Rectangle-2"></path>
                <path d="M321,0 L365,0 C366.656854,-3.04359188e-16 368,1.34314575 368,3 L368,141 L368,141 L318,141 L318,3 C318,1.34314575 319.343146,3.04359188e-16 321,0 Z" id="Rectangle-2-Copy"></path>
            </g>
        </g>
    </g>
</svg>