<?xml version="1.0" encoding="UTF-8"?>
<svg width="270px" height="98px" viewBox="0 0 270 98" version="1.1" xmlns="http://www.w3.org/2000/svg" xmlns:xlink="http://www.w3.org/1999/xlink">
    <title>anecdote-revenue-3</title>
    <g id="02.-Anecdote-Cards" stroke="none" stroke-width="1" fill="none" fill-rule="evenodd">
        <g id="Anecdote-Cards-(Desktop/Tablet)---SVG" transform="translate(-1145.000000, -295.000000)">
            <g id="anecdote-revenue-3" transform="translate(1145.000000, 295.000000)">
                <g id="Group-2" transform="translate(129.000000, 0.000000)" fill-rule="nonzero">
                    <path d="M5.296,15 L5.296,6.104 L8.32,6.104 L8.32,4.536 L0.416,4.536 L0.416,6.104 L3.44,6.104 L3.44,15 L5.296,15 Z M11.744,15 L11.744,9.512 C12.0746667,9.192 12.3706667,8.94933333 12.632,8.784 C12.8933333,8.61866667 13.1946667,8.536 13.536,8.536 C13.9733333,8.536 14.288,8.66933333 14.48,8.936 C14.672,9.20266667 14.768,9.66133333 14.768,10.312 L14.768,10.312 L14.768,15 L16.608,15 L16.608,10.072 C16.608,9.06933333 16.416,8.29866667 16.032,7.76 C15.648,7.22133333 15.0346667,6.952 14.192,6.952 C13.648,6.952 13.176,7.072 12.776,7.312 C12.376,7.552 12.0106667,7.82666667 11.68,8.136 L11.68,8.136 L11.744,6.616 L11.744,3.704 L9.904,3.704 L9.904,15 L11.744,15 Z M20.672,15 L20.672,10.2 C20.9173333,9.60266667 21.2106667,9.184 21.552,8.944 C21.8933333,8.704 22.2186667,8.584 22.528,8.584 C22.6986667,8.584 22.8426667,8.59466667 22.96,8.616 C23.0773333,8.63733333 23.2053333,8.66933333 23.344,8.712 L23.344,8.712 L23.664,7.112 C23.44,7.00533333 23.1413333,6.952 22.768,6.952 C22.352,6.952 21.9466667,7.088 21.552,7.36 C21.1573333,7.632 20.8213333,8.024 20.544,8.536 L20.544,8.536 L20.48,8.536 L20.352,7.144 L18.832,7.144 L18.832,15 L20.672,15 Z M28,15.192 C28.5013333,15.192 28.9813333,15.112 29.44,14.952 C29.8986667,14.792 30.3146667,14.5893333 30.688,14.344 L30.688,14.344 L30.064,13.192 C29.776,13.3733333 29.4853333,13.5146667 29.192,13.616 C28.8986667,13.7173333 28.5813333,13.768 28.24,13.768 C27.6,13.768 27.0746667,13.5786667 26.664,13.2 C26.2533333,12.8213333 26.0053333,12.28 25.92,11.576 L25.92,11.576 L30.912,11.576 C30.9333333,11.48 30.952,11.352 30.968,11.192 C30.984,11.032 30.992,10.8613333 30.992,10.68 C30.992,10.136 30.9226667,9.63466667 30.784,9.176 C30.6453333,8.71733333 30.44,8.32266667 30.168,7.992 C29.896,7.66133333 29.5573333,7.40533333 29.152,7.224 C28.7466667,7.04266667 28.2773333,6.952 27.744,6.952 C27.2853333,6.952 26.8373333,7.048 26.4,7.24 C25.9626667,7.432 25.576,7.704 25.24,8.056 C24.904,8.408 24.6346667,8.84 24.432,9.352 C24.2293333,9.864 24.128,10.44 24.128,11.08 C24.128,11.7306667 24.2266667,12.3093333 24.424,12.816 C24.6213333,13.3226667 24.896,13.752 25.248,14.104 C25.6,14.456 26.0106667,14.7253333 26.48,14.912 C26.9493333,15.0986667 27.456,15.192 28,15.192 Z M29.392,10.328 L25.904,10.328 C25.9893333,9.688 26.208,9.20266667 26.56,8.872 C26.912,8.54133333 27.3226667,8.376 27.792,8.376 C28.336,8.376 28.7386667,8.54933333 29,8.896 C29.2613333,9.24266667 29.392,9.72 29.392,10.328 L29.392,10.328 Z M36.112,15.192 C36.6133333,15.192 37.0933333,15.112 37.552,14.952 C38.0106667,14.792 38.4266667,14.5893333 38.8,14.344 L38.8,14.344 L38.176,13.192 C37.888,13.3733333 37.5973333,13.5146667 37.304,13.616 C37.0106667,13.7173333 36.6933333,13.768 36.352,13.768 C35.712,13.768 35.1866667,13.5786667 34.776,13.2 C34.3653333,12.8213333 34.1173333,12.28 34.032,11.576 L34.032,11.576 L39.024,11.576 C39.0453333,11.48 39.064,11.352 39.08,11.192 C39.096,11.032 39.104,10.8613333 39.104,10.68 C39.104,10.136 39.0346667,9.63466667 38.896,9.176 C38.7573333,8.71733333 38.552,8.32266667 38.28,7.992 C38.008,7.66133333 37.6693333,7.40533333 37.264,7.224 C36.8586667,7.04266667 36.3893333,6.952 35.856,6.952 C35.3973333,6.952 34.9493333,7.048 34.512,7.24 C34.0746667,7.432 33.688,7.704 33.352,8.056 C33.016,8.408 32.7466667,8.84 32.544,9.352 C32.3413333,9.864 32.24,10.44 32.24,11.08 C32.24,11.7306667 32.3386667,12.3093333 32.536,12.816 C32.7333333,13.3226667 33.008,13.752 33.36,14.104 C33.712,14.456 34.1226667,14.7253333 34.592,14.912 C35.0613333,15.0986667 35.568,15.192 36.112,15.192 Z M37.504,10.328 L34.016,10.328 C34.1013333,9.688 34.32,9.20266667 34.672,8.872 C35.024,8.54133333 35.4346667,8.376 35.904,8.376 C36.448,8.376 36.8506667,8.54933333 37.112,8.896 C37.3733333,9.24266667 37.504,9.72 37.504,10.328 L37.504,10.328 Z M44.336,11.64 L44.336,10.296 L40.528,10.296 L40.528,11.64 L44.336,11.64 Z M49.952,15 C50.528,15 51.0613333,14.9386667 51.552,14.816 C52.0426667,14.6933333 52.4666667,14.504 52.824,14.248 C53.1813333,13.992 53.4613333,13.672 53.664,13.288 C53.8666667,12.904 53.968,12.4506667 53.968,11.928 C53.968,11.224 53.7786667,10.6666667 53.4,10.256 C53.0213333,9.84533333 52.544,9.576 51.968,9.448 L51.968,9.448 L51.968,9.384 C52.4266667,9.224 52.784,8.93066667 53.04,8.504 C53.296,8.07733333 53.424,7.61333333 53.424,7.112 C53.424,6.632 53.3306667,6.22666667 53.144,5.896 C52.9573333,5.56533333 52.696,5.30133333 52.36,5.104 C52.024,4.90666667 51.6293333,4.76266667 51.176,4.672 C50.7226667,4.58133333 50.224,4.536 49.68,4.536 L49.68,4.536 L46.336,4.536 L46.336,15 L49.952,15 Z M49.52,8.856 L48.192,8.856 L48.192,5.976 L49.552,5.976 C50.2346667,5.976 50.7466667,6.08266667 51.088,6.296 C51.4293333,6.50933333 51.6,6.872 51.6,7.384 C51.6,7.832 51.4373333,8.18933333 51.112,8.456 C50.7866667,8.72266667 50.256,8.856 49.52,8.856 L49.52,8.856 Z M49.76,13.56 L48.192,13.56 L48.192,10.248 L49.76,10.248 C50.5493333,10.248 51.1466667,10.3733333 51.552,10.624 C51.9573333,10.8746667 52.16,11.2773333 52.16,11.832 C52.16,12.4186667 51.952,12.8533333 51.536,13.136 C51.12,13.4186667 50.528,13.56 49.76,13.56 L49.76,13.56 Z M59.088,15.192 C59.5893333,15.192 60.0693333,15.112 60.528,14.952 C60.9866667,14.792 61.4026667,14.5893333 61.776,14.344 L61.776,14.344 L61.152,13.192 C60.864,13.3733333 60.5733333,13.5146667 60.28,13.616 C59.9866667,13.7173333 59.6693333,13.768 59.328,13.768 C58.688,13.768 58.1626667,13.5786667 57.752,13.2 C57.3413333,12.8213333 57.0933333,12.28 57.008,11.576 L57.008,11.576 L62,11.576 C62.0213333,11.48 62.04,11.352 62.056,11.192 C62.072,11.032 62.08,10.8613333 62.08,10.68 C62.08,10.136 62.0106667,9.63466667 61.872,9.176 C61.7333333,8.71733333 61.528,8.32266667 61.256,7.992 C60.984,7.66133333 60.6453333,7.40533333 60.24,7.224 C59.8346667,7.04266667 59.3653333,6.952 58.832,6.952 C58.3733333,6.952 57.9253333,7.048 57.488,7.24 C57.0506667,7.432 56.664,7.704 56.328,8.056 C55.992,8.408 55.7226667,8.84 55.52,9.352 C55.3173333,9.864 55.216,10.44 55.216,11.08 C55.216,11.7306667 55.3146667,12.3093333 55.512,12.816 C55.7093333,13.3226667 55.984,13.752 56.336,14.104 C56.688,14.456 57.0986667,14.7253333 57.568,14.912 C58.0373333,15.0986667 58.544,15.192 59.088,15.192 Z M60.48,10.328 L56.992,10.328 C57.0773333,9.688 57.296,9.20266667 57.648,8.872 C58,8.54133333 58.4106667,8.376 58.88,8.376 C59.424,8.376 59.8266667,8.54933333 60.088,8.896 C60.3493333,9.24266667 60.48,9.72 60.48,10.328 L60.48,10.328 Z M66.592,15.192 C67.0186667,15.192 67.424,15.0906667 67.808,14.888 C68.192,14.6853333 68.528,14.44 68.816,14.152 L68.816,14.152 L68.88,14.152 L69.008,15 L70.528,15 L70.528,3.704 L68.688,3.704 L68.688,6.552 L68.752,7.816 C68.4426667,7.54933333 68.1333333,7.33866667 67.824,7.184 C67.5146667,7.02933333 67.136,6.952 66.688,6.952 C66.2613333,6.952 65.848,7.048 65.448,7.24 C65.048,7.432 64.6933333,7.704 64.384,8.056 C64.0746667,8.408 63.8266667,8.84 63.64,9.352 C63.4533333,9.864 63.36,10.44 63.36,11.08 C63.36,12.3813333 63.6506667,13.392 64.232,14.112 C64.8133333,14.832 65.6,15.192 66.592,15.192 Z M67.04,13.672 C66.464,13.672 66.024,13.4506667 65.72,13.008 C65.416,12.5653333 65.264,11.9173333 65.264,11.064 C65.264,10.232 65.44,9.592 65.792,9.144 C66.144,8.696 66.576,8.472 67.088,8.472 C67.3546667,8.472 67.6186667,8.52 67.88,8.616 C68.1413333,8.712 68.4106667,8.88266667 68.688,9.128 L68.688,9.128 L68.688,12.792 C68.176,13.3786667 67.6266667,13.672 67.04,13.672 Z M74.704,15 L74.704,10.2 C74.9493333,9.60266667 75.2426667,9.184 75.584,8.944 C75.9253333,8.704 76.2506667,8.584 76.56,8.584 C76.7306667,8.584 76.8746667,8.59466667 76.992,8.616 C77.1093333,8.63733333 77.2373333,8.66933333 77.376,8.712 L77.376,8.712 L77.696,7.112 C77.472,7.00533333 77.1733333,6.952 76.8,6.952 C76.384,6.952 75.9786667,7.088 75.584,7.36 C75.1893333,7.632 74.8533333,8.024 74.576,8.536 L74.576,8.536 L74.512,8.536 L74.384,7.144 L72.864,7.144 L72.864,15 L74.704,15 Z M81.888,15.192 C82.3786667,15.192 82.8506667,15.1013333 83.304,14.92 C83.7573333,14.7386667 84.1546667,14.472 84.496,14.12 C84.8373333,13.768 85.112,13.336 85.32,12.824 C85.528,12.312 85.632,11.7306667 85.632,11.08 C85.632,10.4293333 85.528,9.848 85.32,9.336 C85.112,8.824 84.8373333,8.392 84.496,8.04 C84.1546667,7.688 83.7573333,7.41866667 83.304,7.232 C82.8506667,7.04533333 82.3786667,6.952 81.888,6.952 C81.3973333,6.952 80.928,7.04533333 80.48,7.232 C80.032,7.41866667 79.6346667,7.688 79.288,8.04 C78.9413333,8.392 78.6666667,8.824 78.464,9.336 C78.2613333,9.848 78.16,10.4293333 78.16,11.08 C78.16,11.7306667 78.2613333,12.312 78.464,12.824 C78.6666667,13.336 78.9413333,13.768 79.288,14.12 C79.6346667,14.472 80.032,14.7386667 80.48,14.92 C80.928,15.1013333 81.3973333,15.192 81.888,15.192 Z M81.888,13.688 C81.312,13.688 80.8613333,13.4506667 80.536,12.976 C80.2106667,12.5013333 80.048,11.8693333 80.048,11.08 C80.048,10.28 80.2106667,9.64266667 80.536,9.168 C80.8613333,8.69333333 81.312,8.456 81.888,8.456 C82.464,8.456 82.9173333,8.69333333 83.248,9.168 C83.5786667,9.64266667 83.744,10.28 83.744,11.08 C83.744,11.8693333 83.5786667,12.5013333 83.248,12.976 C82.9173333,13.4506667 82.464,13.688 81.888,13.688 Z M90.672,15.192 C91.1626667,15.192 91.6346667,15.1013333 92.088,14.92 C92.5413333,14.7386667 92.9386667,14.472 93.28,14.12 C93.6213333,13.768 93.896,13.336 94.104,12.824 C94.312,12.312 94.416,11.7306667 94.416,11.08 C94.416,10.4293333 94.312,9.848 94.104,9.336 C93.896,8.824 93.6213333,8.392 93.28,8.04 C92.9386667,7.688 92.5413333,7.41866667 92.088,7.232 C91.6346667,7.04533333 91.1626667,6.952 90.672,6.952 C90.1813333,6.952 89.712,7.04533333 89.264,7.232 C88.816,7.41866667 88.4186667,7.688 88.072,8.04 C87.7253333,8.392 87.4506667,8.824 87.248,9.336 C87.0453333,9.848 86.944,10.4293333 86.944,11.08 C86.944,11.7306667 87.0453333,12.312 87.248,12.824 C87.4506667,13.336 87.7253333,13.768 88.072,14.12 C88.4186667,14.472 88.816,14.7386667 89.264,14.92 C89.712,15.1013333 90.1813333,15.192 90.672,15.192 Z M90.672,13.688 C90.096,13.688 89.6453333,13.4506667 89.32,12.976 C88.9946667,12.5013333 88.832,11.8693333 88.832,11.08 C88.832,10.28 88.9946667,9.64266667 89.32,9.168 C89.6453333,8.69333333 90.096,8.456 90.672,8.456 C91.248,8.456 91.7013333,8.69333333 92.032,9.168 C92.3626667,9.64266667 92.528,10.28 92.528,11.08 C92.528,11.8693333 92.3626667,12.5013333 92.032,12.976 C91.7013333,13.4506667 91.248,13.688 90.672,13.688 Z M98.08,15 L98.08,9.512 C98.688,8.86133333 99.2373333,8.536 99.728,8.536 C100.144,8.536 100.450667,8.66933333 100.648,8.936 C100.845333,9.20266667 100.944,9.66133333 100.944,10.312 L100.944,10.312 L100.944,15 L102.784,15 L102.784,9.512 C103.392,8.86133333 103.941333,8.536 104.432,8.536 C104.837333,8.536 105.138667,8.66933333 105.336,8.936 C105.533333,9.20266667 105.632,9.66133333 105.632,10.312 L105.632,10.312 L105.632,15 L107.488,15 L107.488,10.072 C107.488,9.06933333 107.290667,8.29866667 106.896,7.76 C106.501333,7.22133333 105.888,6.952 105.056,6.952 C104.554667,6.952 104.101333,7.08533333 103.696,7.352 C103.290667,7.61866667 102.901333,7.95466667 102.528,8.36 C102.346667,7.912 102.082667,7.56533333 101.736,7.32 C101.389333,7.07466667 100.928,6.952 100.352,6.952 C99.8613333,6.952 99.4213333,7.07466667 99.032,7.32 C98.6426667,7.56533333 98.2826667,7.864 97.952,8.216 L97.952,8.216 L97.888,8.216 L97.76,7.144 L96.24,7.144 L96.24,15 L98.08,15 Z M1.856,33 L2.672,30.168 L6.192,30.168 L7.008,33 L8.96,33 L5.552,22.536 L3.376,22.536 L-0.032,33 L1.856,33 Z M5.776,28.712 L3.104,28.712 L3.472,27.432 C3.64266667,26.8773333 3.80266667,26.3093333 3.952,25.728 C4.10133333,25.1466667 4.25066667,24.5626667 4.4,23.976 L4.4,23.976 L4.464,23.976 C4.61333333,24.552 4.76533333,25.1333333 4.92,25.72 C5.07466667,26.3066667 5.23733333,26.8773333 5.408,27.432 L5.408,27.432 L5.776,28.712 Z M11.936,36.104 L11.936,33.64 L11.888,32.328 C12.208,32.6053333 12.5386667,32.8186667 12.88,32.968 C13.2213333,33.1173333 13.5626667,33.192 13.904,33.192 C14.3413333,33.192 14.7626667,33.096 15.168,32.904 C15.5733333,32.712 15.9306667,32.4373333 16.24,32.08 C16.5493333,31.7226667 16.7973333,31.28 16.984,30.752 C17.1706667,30.224 17.264,29.624 17.264,28.952 C17.264,28.344 17.1946667,27.7946667 17.056,27.304 C16.9173333,26.8133333 16.7146667,26.392 16.448,26.04 C16.1813333,25.688 15.8586667,25.4186667 15.48,25.232 C15.1013333,25.0453333 14.6666667,24.952 14.176,24.952 C13.7386667,24.952 13.3173333,25.0533333 12.912,25.256 C12.5066667,25.4586667 12.1386667,25.6986667 11.808,25.976 L11.808,25.976 L11.744,25.976 L11.616,25.144 L10.096,25.144 L10.096,36.104 L11.936,36.104 Z M13.52,31.672 C13.2853333,31.672 13.0346667,31.624 12.768,31.528 C12.5013333,31.432 12.224,31.2613333 11.936,31.016 L11.936,31.016 L11.936,27.352 C12.5333333,26.7653333 13.1093333,26.472 13.664,26.472 C14.2613333,26.472 14.6933333,26.6906667 14.96,27.128 C15.2266667,27.5653333 15.36,28.1786667 15.36,28.968 C15.36,29.864 15.184,30.5386667 14.832,30.992 C14.48,31.4453333 14.0426667,31.672 13.52,31.672 Z M20.832,33.192 C21.3013333,33.192 21.736,33.0906667 22.136,32.888 C22.536,32.6853333 22.912,32.4346667 23.264,32.136 L23.264,32.136 L23.328,32.136 L23.456,33 L24.976,33 L24.976,28.344 C24.976,27.2453333 24.7333333,26.4053333 24.248,25.824 C23.7626667,25.2426667 23.0293333,24.952 22.048,24.952 C21.4186667,24.952 20.832,25.0533333 20.288,25.256 C19.744,25.4586667 19.2533333,25.6986667 18.816,25.976 L18.816,25.976 L19.488,27.208 C19.84,26.9946667 20.2,26.8133333 20.568,26.664 C20.936,26.5146667 21.312,26.44 21.696,26.44 C21.9626667,26.44 22.1866667,26.48 22.368,26.56 C22.5493333,26.64 22.696,26.752 22.808,26.896 C22.92,27.04 23,27.2053333 23.048,27.392 C23.096,27.5786667 23.1253333,27.7733333 23.136,27.976 C22.3253333,28.0613333 21.6293333,28.184 21.048,28.344 C20.4666667,28.504 19.9866667,28.7013333 19.608,28.936 C19.2293333,29.1706667 18.952,29.4506667 18.776,29.776 C18.6,30.1013333 18.512,30.472 18.512,30.888 C18.512,31.5813333 18.7253333,32.1386667 19.152,32.56 C19.5786667,32.9813333 20.1386667,33.192 20.832,33.192 Z M21.424,31.752 C21.0933333,31.752 20.8213333,31.672 20.608,31.512 C20.3946667,31.352 20.288,31.096 20.288,30.744 C20.288,30.552 20.336,30.3706667 20.432,30.2 C20.528,30.0293333 20.688,29.8773333 20.912,29.744 C21.136,29.6106667 21.4293333,29.4906667 21.792,29.384 C22.1546667,29.2773333 22.6026667,29.192 23.136,29.128 L23.136,29.128 L23.136,30.888 C22.8373333,31.1653333 22.5573333,31.3786667 22.296,31.528 C22.0346667,31.6773333 21.744,31.752 21.424,31.752 Z M29.024,33 L29.024,28.2 C29.2693333,27.6026667 29.5626667,27.184 29.904,26.944 C30.2453333,26.704 30.5706667,26.584 30.88,26.584 C31.0506667,26.584 31.1946667,26.5946667 31.312,26.616 C31.4293333,26.6373333 31.5573333,26.6693333 31.696,26.712 L31.696,26.712 L32.016,25.112 C31.792,25.0053333 31.4933333,24.952 31.12,24.952 C30.704,24.952 30.2986667,25.088 29.904,25.36 C29.5093333,25.632 29.1733333,26.024 28.896,26.536 L28.896,26.536 L28.832,26.536 L28.704,25.144 L27.184,25.144 L27.184,33 L29.024,33 Z M35.92,33.192 C36.2293333,33.192 36.52,33.1626667 36.792,33.104 C37.064,33.0453333 37.3066667,32.9786667 37.52,32.904 L37.52,32.904 L37.2,31.544 C37.0826667,31.5973333 36.952,31.64 36.808,31.672 C36.664,31.704 36.5226667,31.72 36.384,31.72 C35.648,31.72 35.28,31.2613333 35.28,30.344 L35.28,30.344 L35.28,26.6 L37.28,26.6 L37.28,25.144 L35.28,25.144 L35.28,23 L33.744,23 L33.52,25.144 L32.304,25.224 L32.304,26.6 L33.424,26.6 L33.424,30.344 C33.424,30.7706667 33.4693333,31.1573333 33.56,31.504 C33.6506667,31.8506667 33.7946667,32.1493333 33.992,32.4 C34.1893333,32.6506667 34.4453333,32.8453333 34.76,32.984 C35.0746667,33.1226667 35.4613333,33.192 35.92,33.192 Z M40.768,33 L40.768,27.512 C41.376,26.8613333 41.9253333,26.536 42.416,26.536 C42.832,26.536 43.1386667,26.6693333 43.336,26.936 C43.5333333,27.2026667 43.632,27.6613333 43.632,28.312 L43.632,28.312 L43.632,33 L45.472,33 L45.472,27.512 C46.08,26.8613333 46.6293333,26.536 47.12,26.536 C47.5253333,26.536 47.8266667,26.6693333 48.024,26.936 C48.2213333,27.2026667 48.32,27.6613333 48.32,28.312 L48.32,28.312 L48.32,33 L50.176,33 L50.176,28.072 C50.176,27.0693333 49.9786667,26.2986667 49.584,25.76 C49.1893333,25.2213333 48.576,24.952 47.744,24.952 C47.2426667,24.952 46.7893333,25.0853333 46.384,25.352 C45.9786667,25.6186667 45.5893333,25.9546667 45.216,26.36 C45.0346667,25.912 44.7706667,25.5653333 44.424,25.32 C44.0773333,25.0746667 43.616,24.952 43.04,24.952 C42.5493333,24.952 42.1093333,25.0746667 41.72,25.32 C41.3306667,25.5653333 40.9706667,25.864 40.64,26.216 L40.64,26.216 L40.576,26.216 L40.448,25.144 L38.928,25.144 L38.928,33 L40.768,33 Z M55.776,33.192 C56.2773333,33.192 56.7573333,33.112 57.216,32.952 C57.6746667,32.792 58.0906667,32.5893333 58.464,32.344 L58.464,32.344 L57.84,31.192 C57.552,31.3733333 57.2613333,31.5146667 56.968,31.616 C56.6746667,31.7173333 56.3573333,31.768 56.016,31.768 C55.376,31.768 54.8506667,31.5786667 54.44,31.2 C54.0293333,30.8213333 53.7813333,30.28 53.696,29.576 L53.696,29.576 L58.688,29.576 C58.7093333,29.48 58.728,29.352 58.744,29.192 C58.76,29.032 58.768,28.8613333 58.768,28.68 C58.768,28.136 58.6986667,27.6346667 58.56,27.176 C58.4213333,26.7173333 58.216,26.3226667 57.944,25.992 C57.672,25.6613333 57.3333333,25.4053333 56.928,25.224 C56.5226667,25.0426667 56.0533333,24.952 55.52,24.952 C55.0613333,24.952 54.6133333,25.048 54.176,25.24 C53.7386667,25.432 53.352,25.704 53.016,26.056 C52.68,26.408 52.4106667,26.84 52.208,27.352 C52.0053333,27.864 51.904,28.44 51.904,29.08 C51.904,29.7306667 52.0026667,30.3093333 52.2,30.816 C52.3973333,31.3226667 52.672,31.752 53.024,32.104 C53.376,32.456 53.7866667,32.7253333 54.256,32.912 C54.7253333,33.0986667 55.232,33.192 55.776,33.192 Z M57.168,28.328 L53.68,28.328 C53.7653333,27.688 53.984,27.2026667 54.336,26.872 C54.688,26.5413333 55.0986667,26.376 55.568,26.376 C56.112,26.376 56.5146667,26.5493333 56.776,26.896 C57.0373333,27.2426667 57.168,27.72 57.168,28.328 L57.168,28.328 Z M62.368,33 L62.368,27.512 C62.6986667,27.192 62.9946667,26.9493333 63.256,26.784 C63.5173333,26.6186667 63.8186667,26.536 64.16,26.536 C64.5973333,26.536 64.912,26.6693333 65.104,26.936 C65.296,27.2026667 65.392,27.6613333 65.392,28.312 L65.392,28.312 L65.392,33 L67.232,33 L67.232,28.072 C67.232,27.0693333 67.04,26.2986667 66.656,25.76 C66.272,25.2213333 65.6586667,24.952 64.816,24.952 C64.272,24.952 63.7946667,25.0746667 63.384,25.32 C62.9733333,25.5653333 62.592,25.8586667 62.24,26.2 L62.24,26.2 L62.176,26.2 L62.048,25.144 L60.528,25.144 L60.528,33 L62.368,33 Z M72.256,33.192 C72.5653333,33.192 72.856,33.1626667 73.128,33.104 C73.4,33.0453333 73.6426667,32.9786667 73.856,32.904 L73.856,32.904 L73.536,31.544 C73.4186667,31.5973333 73.288,31.64 73.144,31.672 C73,31.704 72.8586667,31.72 72.72,31.72 C71.984,31.72 71.616,31.2613333 71.616,30.344 L71.616,30.344 L71.616,26.6 L73.616,26.6 L73.616,25.144 L71.616,25.144 L71.616,23 L70.08,23 L69.856,25.144 L68.64,25.224 L68.64,26.6 L69.76,26.6 L69.76,30.344 C69.76,30.7706667 69.8053333,31.1573333 69.896,31.504 C69.9866667,31.8506667 70.1306667,32.1493333 70.328,32.4 C70.5253333,32.6506667 70.7813333,32.8453333 71.096,32.984 C71.4106667,33.1226667 71.7973333,33.192 72.256,33.192 Z" id="Three-BedroomApartment" fill="#555555"></path>
                    <path d="M4.624,95 L5.888,89.496 C5.97333333,89.0906667 6.056,88.688 6.136,88.288 C6.216,87.888 6.29333333,87.4853333 6.368,87.08 L6.368,87.08 L6.432,87.08 C6.496,87.4853333 6.568,87.888 6.648,88.288 C6.728,88.688 6.81066667,89.0906667 6.896,89.496 L6.896,89.496 L8.192,95 L10.496,95 L12.496,84.536 L10.72,84.536 L9.808,89.816 C9.72266667,90.3706667 9.64,90.9253333 9.56,91.48 C9.48,92.0346667 9.39733333,92.5946667 9.312,93.16 L9.312,93.16 L9.248,93.16 C9.13066667,92.5946667 9.01333333,92.032 8.896,91.472 C8.77866667,90.912 8.66133333,90.36 8.544,89.816 L8.544,89.816 L7.264,84.536 L5.648,84.536 L4.368,89.816 C4.25066667,90.3706667 4.136,90.928 4.024,91.488 L3.854,92.326 L3.854,92.326 L3.68,93.16 L3.616,93.16 L3.616,93.16 L3.36,91.496 C3.27466667,90.9413333 3.18933333,90.3813333 3.104,89.816 L3.104,89.816 L2.192,84.536 L0.288,84.536 L2.368,95 L4.624,95 Z M17.328,95.192 C17.8293333,95.192 18.3093333,95.112 18.768,94.952 C19.2266667,94.792 19.6426667,94.5893333 20.016,94.344 L20.016,94.344 L19.392,93.192 C19.104,93.3733333 18.8133333,93.5146667 18.52,93.616 C18.2266667,93.7173333 17.9093333,93.768 17.568,93.768 C16.928,93.768 16.4026667,93.5786667 15.992,93.2 C15.5813333,92.8213333 15.3333333,92.28 15.248,91.576 L15.248,91.576 L20.24,91.576 C20.2613333,91.48 20.28,91.352 20.296,91.192 C20.312,91.032 20.32,90.8613333 20.32,90.68 C20.32,90.136 20.2506667,89.6346667 20.112,89.176 C19.9733333,88.7173333 19.768,88.3226667 19.496,87.992 C19.224,87.6613333 18.8853333,87.4053333 18.48,87.224 C18.0746667,87.0426667 17.6053333,86.952 17.072,86.952 C16.6133333,86.952 16.1653333,87.048 15.728,87.24 C15.2906667,87.432 14.904,87.704 14.568,88.056 C14.232,88.408 13.9626667,88.84 13.76,89.352 C13.5573333,89.864 13.456,90.44 13.456,91.08 C13.456,91.7306667 13.5546667,92.3093333 13.752,92.816 C13.9493333,93.3226667 14.224,93.752 14.576,94.104 C14.928,94.456 15.3386667,94.7253333 15.808,94.912 C16.2773333,95.0986667 16.784,95.192 17.328,95.192 Z M18.72,90.328 L15.232,90.328 C15.3173333,89.688 15.536,89.2026667 15.888,88.872 C16.24,88.5413333 16.6506667,88.376 17.12,88.376 C17.664,88.376 18.0666667,88.5493333 18.328,88.896 C18.5893333,89.2426667 18.72,89.72 18.72,90.328 L18.72,90.328 Z M24.272,95.192 C24.7626667,95.192 25.2,95.128 25.584,95 C25.968,94.872 26.288,94.6986667 26.544,94.48 C26.8,94.2613333 26.9946667,94.0053333 27.128,93.712 C27.2613333,93.4186667 27.328,93.1013333 27.328,92.76 C27.328,92.3973333 27.2613333,92.0853333 27.128,91.824 C26.9946667,91.5626667 26.8186667,91.3413333 26.6,91.16 C26.3813333,90.9786667 26.1386667,90.8266667 25.872,90.704 C25.6053333,90.5813333 25.3386667,90.472 25.072,90.376 C24.8586667,90.3013333 24.6533333,90.2266667 24.456,90.152 C24.2586667,90.0773333 24.0853333,89.9973333 23.936,89.912 C23.7866667,89.8266667 23.6666667,89.728 23.576,89.616 C23.4853333,89.504 23.44,89.368 23.44,89.208 C23.44,88.9626667 23.5333333,88.7573333 23.72,88.592 C23.9066667,88.4266667 24.1973333,88.344 24.592,88.344 C24.9013333,88.344 25.1973333,88.4053333 25.48,88.528 C25.7626667,88.6506667 26.0426667,88.8133333 26.32,89.016 L26.32,89.016 L27.168,87.896 C26.848,87.6506667 26.4693333,87.432 26.032,87.24 C25.5946667,87.048 25.104,86.952 24.56,86.952 C23.6746667,86.952 22.976,87.1706667 22.464,87.608 C21.952,88.0453333 21.696,88.6106667 21.696,89.304 C21.696,89.6346667 21.7626667,89.92 21.896,90.16 C22.0293333,90.4 22.2,90.6106667 22.408,90.792 C22.616,90.9733333 22.8533333,91.128 23.12,91.256 C23.3866667,91.384 23.648,91.496 23.904,91.592 C24.1066667,91.6773333 24.3093333,91.76 24.512,91.84 C24.7146667,91.92 24.896,92.008 25.056,92.104 C25.216,92.2 25.344,92.3093333 25.44,92.432 C25.536,92.5546667 25.584,92.696 25.584,92.856 C25.584,93.1333333 25.4826667,93.36 25.28,93.536 C25.0773333,93.712 24.7626667,93.8 24.336,93.8 C23.9306667,93.8 23.5546667,93.7226667 23.208,93.568 C22.8613333,93.4133333 22.512,93.1973333 22.16,92.92 L22.16,92.92 L21.296,94.104 C21.68,94.4133333 22.136,94.672 22.664,94.88 C23.192,95.088 23.728,95.192 24.272,95.192 Z M31.424,95.192 C31.7333333,95.192 32.024,95.1626667 32.296,95.104 C32.568,95.0453333 32.8106667,94.9786667 33.024,94.904 L33.024,94.904 L32.704,93.544 C32.5866667,93.5973333 32.456,93.64 32.312,93.672 C32.168,93.704 32.0266667,93.72 31.888,93.72 C31.152,93.72 30.784,93.2613333 30.784,92.344 L30.784,92.344 L30.784,88.6 L32.784,88.6 L32.784,87.144 L30.784,87.144 L30.784,85 L29.248,85 L29.024,87.144 L27.808,87.224 L27.808,88.6 L28.928,88.6 L28.928,92.344 C28.928,92.7706667 28.9733333,93.1573333 29.064,93.504 C29.1546667,93.8506667 29.2986667,94.1493333 29.496,94.4 C29.6933333,94.6506667 29.9493333,94.8453333 30.264,94.984 C30.5786667,95.1226667 30.9653333,95.192 31.424,95.192 Z M39.648,95 L39.648,91.16 L41.152,91.16 C41.7173333,91.16 42.2426667,91.0933333 42.728,90.96 C43.2133333,90.8266667 43.6346667,90.6186667 43.992,90.336 C44.3493333,90.0533333 44.6293333,89.6986667 44.832,89.272 C45.0346667,88.8453333 45.136,88.344 45.136,87.768 C45.136,87.16 45.0346667,86.6506667 44.832,86.24 C44.6293333,85.8293333 44.3466667,85.496 43.984,85.24 C43.6213333,84.984 43.192,84.8026667 42.696,84.696 C42.2,84.5893333 41.664,84.536 41.088,84.536 L41.088,84.536 L37.792,84.536 L37.792,95 L39.648,95 Z M41.008,89.672 L39.648,89.672 L39.648,86.024 L40.944,86.024 C41.7226667,86.024 42.312,86.1493333 42.712,86.4 C43.112,86.6506667 43.312,87.1066667 43.312,87.768 C43.312,89.0373333 42.544,89.672 41.008,89.672 L41.008,89.672 Z M48.24,95.192 C48.7093333,95.192 49.144,95.0906667 49.544,94.888 C49.944,94.6853333 50.32,94.4346667 50.672,94.136 L50.672,94.136 L50.736,94.136 L50.864,95 L52.384,95 L52.384,90.344 C52.384,89.2453333 52.1413333,88.4053333 51.656,87.824 C51.1706667,87.2426667 50.4373333,86.952 49.456,86.952 C48.8266667,86.952 48.24,87.0533333 47.696,87.256 C47.152,87.4586667 46.6613333,87.6986667 46.224,87.976 L46.224,87.976 L46.896,89.208 C47.248,88.9946667 47.608,88.8133333 47.976,88.664 C48.344,88.5146667 48.72,88.44 49.104,88.44 C49.3706667,88.44 49.5946667,88.48 49.776,88.56 C49.9573333,88.64 50.104,88.752 50.216,88.896 C50.328,89.04 50.408,89.2053333 50.456,89.392 C50.504,89.5786667 50.5333333,89.7733333 50.544,89.976 C49.7333333,90.0613333 49.0373333,90.184 48.456,90.344 C47.8746667,90.504 47.3946667,90.7013333 47.016,90.936 C46.6373333,91.1706667 46.36,91.4506667 46.184,91.776 C46.008,92.1013333 45.92,92.472 45.92,92.888 C45.92,93.5813333 46.1333333,94.1386667 46.56,94.56 C46.9866667,94.9813333 47.5466667,95.192 48.24,95.192 Z M48.832,93.752 C48.5013333,93.752 48.2293333,93.672 48.016,93.512 C47.8026667,93.352 47.696,93.096 47.696,92.744 C47.696,92.552 47.744,92.3706667 47.84,92.2 C47.936,92.0293333 48.096,91.8773333 48.32,91.744 C48.544,91.6106667 48.8373333,91.4906667 49.2,91.384 C49.5626667,91.2773333 50.0106667,91.192 50.544,91.128 L50.544,91.128 L50.544,92.888 C50.2453333,93.1653333 49.9653333,93.3786667 49.704,93.528 C49.4426667,93.6773333 49.152,93.752 48.832,93.752 Z M56.384,95.192 C56.7893333,95.192 57.1146667,95.1386667 57.36,95.032 L57.36,95.032 L57.12,93.656 C57.0453333,93.6773333 56.9893333,93.688 56.952,93.688 L56.952,93.688 L56.832,93.688 C56.736,93.688 56.6453333,93.6426667 56.56,93.552 C56.4746667,93.4613333 56.432,93.304 56.432,93.08 L56.432,93.08 L56.432,83.704 L54.592,83.704 L54.592,92.984 C54.592,93.6666667 54.7253333,94.2053333 54.992,94.6 C55.2586667,94.9946667 55.7226667,95.192 56.384,95.192 Z M60.768,95 L60.768,89.512 C61.376,88.8613333 61.9253333,88.536 62.416,88.536 C62.832,88.536 63.1386667,88.6693333 63.336,88.936 C63.5333333,89.2026667 63.632,89.6613333 63.632,90.312 L63.632,90.312 L63.632,95 L65.472,95 L65.472,89.512 C66.08,88.8613333 66.6293333,88.536 67.12,88.536 C67.5253333,88.536 67.8266667,88.6693333 68.024,88.936 C68.2213333,89.2026667 68.32,89.6613333 68.32,90.312 L68.32,90.312 L68.32,95 L70.176,95 L70.176,90.072 C70.176,89.0693333 69.9786667,88.2986667 69.584,87.76 C69.1893333,87.2213333 68.576,86.952 67.744,86.952 C67.2426667,86.952 66.7893333,87.0853333 66.384,87.352 C65.9786667,87.6186667 65.5893333,87.9546667 65.216,88.36 C65.0346667,87.912 64.7706667,87.5653333 64.424,87.32 C64.0773333,87.0746667 63.616,86.952 63.04,86.952 C62.5493333,86.952 62.1093333,87.0746667 61.72,87.32 C61.3306667,87.5653333 60.9706667,87.864 60.64,88.216 L60.64,88.216 L60.576,88.216 L60.448,87.144 L58.928,87.144 L58.928,95 L60.768,95 Z M79.392,95 C79.968,95 80.5013333,94.9386667 80.992,94.816 C81.4826667,94.6933333 81.9066667,94.504 82.264,94.248 C82.6213333,93.992 82.9013333,93.672 83.104,93.288 C83.3066667,92.904 83.408,92.4506667 83.408,91.928 C83.408,91.224 83.2186667,90.6666667 82.84,90.256 C82.4613333,89.8453333 81.984,89.576 81.408,89.448 L81.408,89.448 L81.408,89.384 C81.8666667,89.224 82.224,88.9306667 82.48,88.504 C82.736,88.0773333 82.864,87.6133333 82.864,87.112 C82.864,86.632 82.7706667,86.2266667 82.584,85.896 C82.3973333,85.5653333 82.136,85.3013333 81.8,85.104 C81.464,84.9066667 81.0693333,84.7626667 80.616,84.672 C80.1626667,84.5813333 79.664,84.536 79.12,84.536 L79.12,84.536 L75.776,84.536 L75.776,95 L79.392,95 Z M78.96,88.856 L77.632,88.856 L77.632,85.976 L78.992,85.976 C79.6746667,85.976 80.1866667,86.0826667 80.528,86.296 C80.8693333,86.5093333 81.04,86.872 81.04,87.384 C81.04,87.832 80.8773333,88.1893333 80.552,88.456 C80.2266667,88.7226667 79.696,88.856 78.96,88.856 L78.96,88.856 Z M79.2,93.56 L77.632,93.56 L77.632,90.248 L79.2,90.248 C79.9893333,90.248 80.5866667,90.3733333 80.992,90.624 C81.3973333,90.8746667 81.6,91.2773333 81.6,91.832 C81.6,92.4186667 81.392,92.8533333 80.976,93.136 C80.56,93.4186667 79.968,93.56 79.2,93.56 L79.2,93.56 Z M88.528,95.192 C89.0293333,95.192 89.5093333,95.112 89.968,94.952 C90.4266667,94.792 90.8426667,94.5893333 91.216,94.344 L91.216,94.344 L90.592,93.192 C90.304,93.3733333 90.0133333,93.5146667 89.72,93.616 C89.4266667,93.7173333 89.1093333,93.768 88.768,93.768 C88.128,93.768 87.6026667,93.5786667 87.192,93.2 C86.7813333,92.8213333 86.5333333,92.28 86.448,91.576 L86.448,91.576 L91.44,91.576 C91.4613333,91.48 91.48,91.352 91.496,91.192 C91.512,91.032 91.52,90.8613333 91.52,90.68 C91.52,90.136 91.4506667,89.6346667 91.312,89.176 C91.1733333,88.7173333 90.968,88.3226667 90.696,87.992 C90.424,87.6613333 90.0853333,87.4053333 89.68,87.224 C89.2746667,87.0426667 88.8053333,86.952 88.272,86.952 C87.8133333,86.952 87.3653333,87.048 86.928,87.24 C86.4906667,87.432 86.104,87.704 85.768,88.056 C85.432,88.408 85.1626667,88.84 84.96,89.352 C84.7573333,89.864 84.656,90.44 84.656,91.08 C84.656,91.7306667 84.7546667,92.3093333 84.952,92.816 C85.1493333,93.3226667 85.424,93.752 85.776,94.104 C86.128,94.456 86.5386667,94.7253333 87.008,94.912 C87.4773333,95.0986667 87.984,95.192 88.528,95.192 Z M89.92,90.328 L86.432,90.328 C86.5173333,89.688 86.736,89.2026667 87.088,88.872 C87.44,88.5413333 87.8506667,88.376 88.32,88.376 C88.864,88.376 89.2666667,88.5493333 89.528,88.896 C89.7893333,89.2426667 89.92,89.72 89.92,90.328 L89.92,90.328 Z M94.992,95.192 C95.4613333,95.192 95.896,95.0906667 96.296,94.888 C96.696,94.6853333 97.072,94.4346667 97.424,94.136 L97.424,94.136 L97.488,94.136 L97.616,95 L99.136,95 L99.136,90.344 C99.136,89.2453333 98.8933333,88.4053333 98.408,87.824 C97.9226667,87.2426667 97.1893333,86.952 96.208,86.952 C95.5786667,86.952 94.992,87.0533333 94.448,87.256 C93.904,87.4586667 93.4133333,87.6986667 92.976,87.976 L92.976,87.976 L93.648,89.208 C94,88.9946667 94.36,88.8133333 94.728,88.664 C95.096,88.5146667 95.472,88.44 95.856,88.44 C96.1226667,88.44 96.3466667,88.48 96.528,88.56 C96.7093333,88.64 96.856,88.752 96.968,88.896 C97.08,89.04 97.16,89.2053333 97.208,89.392 C97.256,89.5786667 97.2853333,89.7733333 97.296,89.976 C96.4853333,90.0613333 95.7893333,90.184 95.208,90.344 C94.6266667,90.504 94.1466667,90.7013333 93.768,90.936 C93.3893333,91.1706667 93.112,91.4506667 92.936,91.776 C92.76,92.1013333 92.672,92.472 92.672,92.888 C92.672,93.5813333 92.8853333,94.1386667 93.312,94.56 C93.7386667,94.9813333 94.2986667,95.192 94.992,95.192 Z M95.584,93.752 C95.2533333,93.752 94.9813333,93.672 94.768,93.512 C94.5546667,93.352 94.448,93.096 94.448,92.744 C94.448,92.552 94.496,92.3706667 94.592,92.2 C94.688,92.0293333 94.848,91.8773333 95.072,91.744 C95.296,91.6106667 95.5893333,91.4906667 95.952,91.384 C96.3146667,91.2773333 96.7626667,91.192 97.296,91.128 L97.296,91.128 L97.296,92.888 C96.9973333,93.1653333 96.7173333,93.3786667 96.456,93.528 C96.1946667,93.6773333 95.904,93.752 95.584,93.752 Z M104.624,95.192 C105.072,95.192 105.517333,95.112 105.96,94.952 C106.402667,94.792 106.810667,94.552 107.184,94.232 L107.184,94.232 L106.432,93.016 C106.208,93.1973333 105.96,93.3546667 105.688,93.488 C105.416,93.6213333 105.125333,93.688 104.816,93.688 C104.197333,93.688 103.693333,93.4506667 103.304,92.976 C102.914667,92.5013333 102.72,91.8693333 102.72,91.08 C102.72,90.28 102.917333,89.6426667 103.312,89.168 C103.706667,88.6933333 104.224,88.456 104.864,88.456 C105.109333,88.456 105.336,88.5066667 105.544,88.608 C105.752,88.7093333 105.962667,88.8506667 106.176,89.032 L106.176,89.032 L107.072,87.832 C106.784,87.5866667 106.456,87.3786667 106.088,87.208 C105.72,87.0373333 105.28,86.952 104.768,86.952 C104.245333,86.952 103.746667,87.0453333 103.272,87.232 C102.797333,87.4186667 102.378667,87.688 102.016,88.04 C101.653333,88.392 101.365333,88.824 101.152,89.336 C100.938667,89.848 100.832,90.4293333 100.832,91.08 C100.832,91.7306667 100.928,92.312 101.12,92.824 C101.312,93.336 101.578667,93.768 101.92,94.12 C102.261333,94.472 102.664,94.7386667 103.128,94.92 C103.592,95.1013333 104.090667,95.192 104.624,95.192 Z M110.576,95 L110.576,89.512 C110.906667,89.192 111.202667,88.9493333 111.464,88.784 C111.725333,88.6186667 112.026667,88.536 112.368,88.536 C112.805333,88.536 113.12,88.6693333 113.312,88.936 C113.504,89.2026667 113.6,89.6613333 113.6,90.312 L113.6,90.312 L113.6,95 L115.44,95 L115.44,90.072 C115.44,89.0693333 115.248,88.2986667 114.864,87.76 C114.48,87.2213333 113.866667,86.952 113.024,86.952 C112.48,86.952 112.008,87.072 111.608,87.312 C111.208,87.552 110.842667,87.8266667 110.512,88.136 L110.512,88.136 L110.576,86.616 L110.576,83.704 L108.736,83.704 L108.736,95 L110.576,95 Z M117.648,97.912 C118.448,97.6346667 119.064,97.208 119.496,96.632 C119.928,96.056 120.144,95.3733333 120.144,94.584 C120.144,93.9866667 120.024,93.5226667 119.784,93.192 C119.544,92.8613333 119.205333,92.696 118.768,92.696 C118.426667,92.696 118.136,92.8 117.896,93.008 C117.656,93.216 117.536,93.4906667 117.536,93.832 C117.536,94.1946667 117.656,94.4746667 117.896,94.672 C118.136,94.8693333 118.410667,94.968 118.72,94.968 L118.72,94.968 L118.864,94.968 C118.874667,95.3733333 118.738667,95.7466667 118.456,96.088 C118.173333,96.4293333 117.770667,96.7013333 117.248,96.904 L117.248,96.904 L117.648,97.912 Z M127.28,95 L127.28,90.632 L131.088,90.632 L131.088,89.064 L127.28,89.064 L127.28,86.104 L131.744,86.104 L131.744,84.536 L125.424,84.536 L125.424,95 L127.28,95 Z M139.792,95 L139.792,93.432 L135.44,93.432 L135.44,84.536 L133.584,84.536 L133.584,95 L139.792,95 Z" id="WestPalmBeach,FL" fill="#555555"></path>
                    <path d="M9.536,72.52 L9.536,69.224 C11.136,68.9253333 12.3626667,68.2586667 13.216,67.224 C14.0693333,66.1893333 14.496,64.904 14.496,63.368 C14.496,62.3013333 14.2826667,61.4106667 13.856,60.696 C13.4293333,59.9813333 12.8906667,59.3786667 12.24,58.888 C11.5893333,58.3973333 10.8906667,57.976 10.144,57.624 C9.39733333,57.272 8.69866667,56.92 8.048,56.568 C7.39733333,56.216 6.85866667,55.832 6.432,55.416 C6.00533333,55 5.792,54.472 5.792,53.832 C5.792,53 6.03733333,52.3653333 6.528,51.928 C7.01866667,51.4906667 7.70133333,51.272 8.576,51.272 C9.344,51.272 10.0053333,51.416 10.56,51.704 C11.1146667,51.992 11.6906667,52.4133333 12.288,52.968 L12.288,52.968 L14.176,50.824 C13.5786667,50.2053333 12.912,49.6666667 12.176,49.208 C11.44,48.7493333 10.56,48.456 9.536,48.328 L9.536,48.328 L9.536,45.128 L6.976,45.128 L6.976,48.392 C5.52533333,48.648 4.37333333,49.272 3.52,50.264 C2.66666667,51.256 2.24,52.4986667 2.24,53.992 C2.24,54.9946667 2.45333333,55.832 2.88,56.504 C3.30666667,57.176 3.84533333,57.752 4.496,58.232 C5.14666667,58.712 5.84533333,59.128 6.592,59.48 C7.33866667,59.832 8.03733333,60.2 8.688,60.584 C9.33866667,60.968 9.87733333,61.3946667 10.304,61.864 C10.7306667,62.3333333 10.944,62.92 10.944,63.624 C10.944,64.4986667 10.688,65.176 10.176,65.656 C9.664,66.136 8.88533333,66.376 7.84,66.376 C6.96533333,66.376 6.144,66.1946667 5.376,65.832 C4.608,65.4693333 3.85066667,64.9893333 3.104,64.392 L3.104,64.392 L1.44,66.888 C2.16533333,67.5706667 3.024,68.12 4.016,68.536 C5.008,68.952 5.99466667,69.2133333 6.976,69.32 L6.976,69.32 L6.976,72.52 L9.536,72.52 Z M31.392,69 L31.392,65.864 L26.4,65.864 C25.9093333,65.864 25.3546667,65.8906667 24.736,65.944 C24.1173333,65.9973333 23.5413333,66.0453333 23.008,66.088 C24.0106667,65.0213333 24.96,63.9866667 25.856,62.984 C26.752,61.9813333 27.536,61.0053333 28.208,60.056 C28.88,59.1066667 29.4133333,58.168 29.808,57.24 C30.2026667,56.312 30.4,55.4 30.4,54.504 C30.4,53.5653333 30.2453333,52.712 29.936,51.944 C29.6266667,51.176 29.1946667,50.52 28.64,49.976 C28.0853333,49.432 27.4133333,49.0106667 26.624,48.712 C25.8346667,48.4133333 24.9493333,48.264 23.968,48.264 C22.56,48.264 21.36,48.536 20.368,49.08 C19.376,49.624 18.4106667,50.3973333 17.472,51.4 L17.472,51.4 L19.52,53.448 C20.0746667,52.8293333 20.6773333,52.296 21.328,51.848 C21.9786667,51.4 22.6986667,51.176 23.488,51.176 C24.576,51.176 25.408,51.4906667 25.984,52.12 C26.56,52.7493333 26.848,53.608 26.848,54.696 C26.848,55.464 26.6346667,56.2746667 26.208,57.128 C25.7813333,57.9813333 25.168,58.8986667 24.368,59.88 C23.568,60.8613333 22.5973333,61.928 21.456,63.08 C20.3146667,64.232 19.04,65.4906667 17.632,66.856 L17.632,66.856 L17.632,69 L31.392,69 Z M35.136,74.824 C36.736,74.2693333 37.968,73.416 38.832,72.264 C39.696,71.112 40.128,69.7466667 40.128,68.168 C40.128,66.9733333 39.888,66.0453333 39.408,65.384 C38.928,64.7226667 38.2506667,64.392 37.376,64.392 C36.6933333,64.392 36.112,64.6 35.632,65.016 C35.152,65.432 34.912,65.9813333 34.912,66.664 C34.912,67.3893333 35.152,67.9493333 35.632,68.344 C36.112,68.7386667 36.6613333,68.936 37.28,68.936 L37.28,68.936 L37.568,68.936 C37.5893333,69.7466667 37.3173333,70.4933333 36.752,71.176 C36.1866667,71.8586667 35.3813333,72.4026667 34.336,72.808 L34.336,72.808 L35.136,74.824 Z M56.608,69 L56.608,65.864 L51.616,65.864 C51.1253333,65.864 50.5706667,65.8906667 49.952,65.944 C49.3333333,65.9973333 48.7573333,66.0453333 48.224,66.088 C49.2266667,65.0213333 50.176,63.9866667 51.072,62.984 C51.968,61.9813333 52.752,61.0053333 53.424,60.056 C54.096,59.1066667 54.6293333,58.168 55.024,57.24 C55.4186667,56.312 55.616,55.4 55.616,54.504 C55.616,53.5653333 55.4613333,52.712 55.152,51.944 C54.8426667,51.176 54.4106667,50.52 53.856,49.976 C53.3013333,49.432 52.6293333,49.0106667 51.84,48.712 C51.0506667,48.4133333 50.1653333,48.264 49.184,48.264 C47.776,48.264 46.576,48.536 45.584,49.08 C44.592,49.624 43.6266667,50.3973333 42.688,51.4 L42.688,51.4 L44.736,53.448 C45.2906667,52.8293333 45.8933333,52.296 46.544,51.848 C47.1946667,51.4 47.9146667,51.176 48.704,51.176 C49.792,51.176 50.624,51.4906667 51.2,52.12 C51.776,52.7493333 52.064,53.608 52.064,54.696 C52.064,55.464 51.8506667,56.2746667 51.424,57.128 C50.9973333,57.9813333 50.384,58.8986667 49.584,59.88 C48.784,60.8613333 47.8133333,61.928 46.672,63.08 C45.5306667,64.232 44.256,65.4906667 42.848,66.856 L42.848,66.856 L42.848,69 L56.608,69 Z M66.24,69.384 C68.3733333,69.384 70.0586667,68.472 71.296,66.648 C72.5333333,64.824 73.152,62.184 73.152,58.728 C73.152,55.2933333 72.5333333,52.6906667 71.296,50.92 C70.0586667,49.1493333 68.3733333,48.264 66.24,48.264 C64.1066667,48.264 62.4213333,49.144 61.184,50.904 C59.9466667,52.664 59.328,55.272 59.328,58.728 C59.328,62.184 59.9466667,64.824 61.184,66.648 C62.4213333,68.472 64.1066667,69.384 66.24,69.384 Z M66.24,66.504 C65.7493333,66.504 65.296,66.3706667 64.88,66.104 C64.464,65.8373333 64.1066667,65.3946667 63.808,64.776 C63.5093333,64.1573333 63.2746667,63.3573333 63.104,62.376 C62.9333333,61.3946667 62.848,60.1786667 62.848,58.728 C62.848,57.2986667 62.9333333,56.0986667 63.104,55.128 C63.2746667,54.1573333 63.5093333,53.3733333 63.808,52.776 C64.1066667,52.1786667 64.464,51.7573333 64.88,51.512 C65.296,51.2666667 65.7493333,51.144 66.24,51.144 C66.7306667,51.144 67.184,51.2666667 67.6,51.512 C68.016,51.7573333 68.3733333,52.1786667 68.672,52.776 C68.9706667,53.3733333 69.2053333,54.1573333 69.376,55.128 C69.5466667,56.0986667 69.632,57.2986667 69.632,58.728 C69.632,60.1786667 69.5466667,61.3946667 69.376,62.376 C69.2053333,63.3573333 68.9706667,64.1573333 68.672,64.776 C68.3733333,65.3946667 68.016,65.8373333 67.6,66.104 C67.184,66.3706667 66.7306667,66.504 66.24,66.504 Z M82.656,69.384 C84.7893333,69.384 86.4746667,68.472 87.712,66.648 C88.9493333,64.824 89.568,62.184 89.568,58.728 C89.568,55.2933333 88.9493333,52.6906667 87.712,50.92 C86.4746667,49.1493333 84.7893333,48.264 82.656,48.264 C80.5226667,48.264 78.8373333,49.144 77.6,50.904 C76.3626667,52.664 75.744,55.272 75.744,58.728 C75.744,62.184 76.3626667,64.824 77.6,66.648 C78.8373333,68.472 80.5226667,69.384 82.656,69.384 Z M82.656,66.504 C82.1653333,66.504 81.712,66.3706667 81.296,66.104 C80.88,65.8373333 80.5226667,65.3946667 80.224,64.776 C79.9253333,64.1573333 79.6906667,63.3573333 79.52,62.376 C79.3493333,61.3946667 79.264,60.1786667 79.264,58.728 C79.264,57.2986667 79.3493333,56.0986667 79.52,55.128 C79.6906667,54.1573333 79.9253333,53.3733333 80.224,52.776 C80.5226667,52.1786667 80.88,51.7573333 81.296,51.512 C81.712,51.2666667 82.1653333,51.144 82.656,51.144 C83.1466667,51.144 83.6,51.2666667 84.016,51.512 C84.432,51.7573333 84.7893333,52.1786667 85.088,52.776 C85.3866667,53.3733333 85.6213333,54.1573333 85.792,55.128 C85.9626667,56.0986667 86.048,57.2986667 86.048,58.728 C86.048,60.1786667 85.9626667,61.3946667 85.792,62.376 C85.6213333,63.3573333 85.3866667,64.1573333 85.088,64.776 C84.7893333,65.3946667 84.432,65.8373333 84.016,66.104 C83.6,66.3706667 83.1466667,66.504 82.656,66.504 Z" id="$2,200" fill="#0A2F5A"></path>
                </g>
                <g id="Group-5" transform="translate(0.000000, 1.000000)" fill="#0A2F5A">
                    <polygon id="Fill-1" points="57.9990259 0 55.1119348 2.09015616 22 25.842448 24.8890392 30 57.9990259 6.24770816 91.1090127 30 94 25.842448 60.8900133 2.09015616"></polygon>
                    <path d="M0,97 L24,97 L24,46 L0,46 L0,97 Z M5.96350304,65.8036923 L18.0344971,65.8036923 L18.0344971,53.9638462 L5.96350304,53.9638462 L5.96350304,65.8036923 Z M5.96350304,83.3398462 L18.0344971,83.3398462 L18.0344971,71.5 L5.96350304,71.5 L5.96350304,83.3398462 Z" id="Fill-2"></path>
                    <path d="M90,97 L114,97 L114,46 L90,46 L90,97 Z M96.6654445,65.8036923 L108.736439,65.8036923 L108.736439,53.9638462 L96.6654445,53.9638462 L96.6654445,65.8036923 Z M96.6654445,83.3398462 L108.736439,83.3398462 L108.736439,71.5 L96.6654445,71.5 L96.6654445,83.3398462 Z" id="Fill-3"></path>
                    <path d="M29.0656099,28.6993833 L29.0656099,34.3689868 L29,34.3689868 L29,96 L51.2089593,96 L51.2089593,75.4576211 L62.8566506,75.4576211 L62.8566506,96 L84.9614059,96 L84.9614059,49.3987665 L85,49.3987665 L85,28.6993833 L57.032805,8 L29.0656099,28.6993833 Z M67.8777395,46.5843172 L79.5273604,46.5843172 L79.5273604,34.8845815 L67.8777395,34.8845815 L67.8777395,46.5843172 Z M51.1549276,46.5843172 L62.8026189,46.5843172 L62.8026189,34.8845815 L51.1549276,34.8845815 L51.1549276,46.5843172 Z M34.4321158,46.5843172 L46.079807,46.5843172 L46.079807,34.8845815 L34.4321158,34.8845815 L34.4321158,46.5843172 Z M67.8777395,63.9129515 L79.5273604,63.9129515 L79.5273604,52.2132159 L67.8777395,52.2132159 L67.8777395,63.9129515 Z M51.1549276,63.9129515 L62.8026189,63.9129515 L62.8026189,52.2132159 L51.1549276,52.2132159 L51.1549276,63.9129515 Z M34.4321158,63.9129515 L46.079807,63.9129515 L46.079807,52.2132159 L34.4321158,52.2132159 L34.4321158,63.9129515 Z" id="Fill-4"></path>
                </g>
            </g>
        </g>
    </g>
</svg>