<?xml version="1.0" encoding="UTF-8"?>
<svg width="237px" height="94px" viewBox="0 0 237 94" version="1.1" xmlns="http://www.w3.org/2000/svg" xmlns:xlink="http://www.w3.org/1999/xlink">
    <title>anecdote-revenue-2</title>
    <g id="02.-Anecdote-Cards" stroke="none" stroke-width="1" fill="none" fill-rule="evenodd">
        <g id="Anecdote-Cards-(Desktop/Tablet)---SVG" transform="translate(-665.000000, -297.000000)">
            <g id="anecdote-revenue-2" transform="translate(665.000000, 298.000000)">
                <path d="M132.368,80 L132.368,76.16 L133.872,76.16 C134.437333,76.16 134.962667,76.0933333 135.448,75.96 C135.933333,75.8266667 136.354667,75.6186667 136.712,75.336 C137.069333,75.0533333 137.349333,74.6986667 137.552,74.272 C137.754667,73.8453333 137.856,73.344 137.856,72.768 C137.856,72.16 137.754667,71.6506667 137.552,71.24 C137.349333,70.8293333 137.066667,70.496 136.704,70.24 C136.341333,69.984 135.912,69.8026667 135.416,69.696 C134.92,69.5893333 134.384,69.536 133.808,69.536 L133.808,69.536 L130.512,69.536 L130.512,80 L132.368,80 Z M133.728,74.672 L132.368,74.672 L132.368,71.024 L133.664,71.024 C134.442667,71.024 135.032,71.1493333 135.432,71.4 C135.832,71.6506667 136.032,72.1066667 136.032,72.768 C136.032,74.0373333 135.264,74.672 133.728,74.672 L133.728,74.672 Z M142.672,80.192 C143.173333,80.192 143.653333,80.112 144.112,79.952 C144.570667,79.792 144.986667,79.5893333 145.36,79.344 L145.36,79.344 L144.736,78.192 C144.448,78.3733333 144.157333,78.5146667 143.864,78.616 C143.570667,78.7173333 143.253333,78.768 142.912,78.768 C142.272,78.768 141.746667,78.5786667 141.336,78.2 C140.925333,77.8213333 140.677333,77.28 140.592,76.576 L140.592,76.576 L145.584,76.576 C145.605333,76.48 145.624,76.352 145.64,76.192 C145.656,76.032 145.664,75.8613333 145.664,75.68 C145.664,75.136 145.594667,74.6346667 145.456,74.176 C145.317333,73.7173333 145.112,73.3226667 144.84,72.992 C144.568,72.6613333 144.229333,72.4053333 143.824,72.224 C143.418667,72.0426667 142.949333,71.952 142.416,71.952 C141.957333,71.952 141.509333,72.048 141.072,72.24 C140.634667,72.432 140.248,72.704 139.912,73.056 C139.576,73.408 139.306667,73.84 139.104,74.352 C138.901333,74.864 138.8,75.44 138.8,76.08 C138.8,76.7306667 138.898667,77.3093333 139.096,77.816 C139.293333,78.3226667 139.568,78.752 139.92,79.104 C140.272,79.456 140.682667,79.7253333 141.152,79.912 C141.621333,80.0986667 142.128,80.192 142.672,80.192 Z M144.064,75.328 L140.576,75.328 C140.661333,74.688 140.88,74.2026667 141.232,73.872 C141.584,73.5413333 141.994667,73.376 142.464,73.376 C143.008,73.376 143.410667,73.5493333 143.672,73.896 C143.933333,74.2426667 144.064,74.72 144.064,75.328 L144.064,75.328 Z M149.264,80 L149.264,75.2 C149.509333,74.6026667 149.802667,74.184 150.144,73.944 C150.485333,73.704 150.810667,73.584 151.12,73.584 C151.290667,73.584 151.434667,73.5946667 151.552,73.616 C151.669333,73.6373333 151.797333,73.6693333 151.936,73.712 L151.936,73.712 L152.256,72.112 C152.032,72.0053333 151.733333,71.952 151.36,71.952 C150.944,71.952 150.538667,72.088 150.144,72.36 C149.749333,72.632 149.413333,73.024 149.136,73.536 L149.136,73.536 L149.072,73.536 L148.944,72.144 L147.424,72.144 L147.424,80 L149.264,80 Z M160.352,80 L160.352,76.112 L163.504,69.536 L161.568,69.536 L160.432,72.208 C160.282667,72.6026667 160.128,72.984 159.968,73.352 C159.808,73.72 159.642667,74.1066667 159.472,74.512 L159.472,74.512 L159.408,74.512 C159.237333,74.1066667 159.077333,73.72 158.928,73.352 C158.778667,72.984 158.629333,72.6026667 158.48,72.208 L158.48,72.208 L157.344,69.536 L155.36,69.536 L158.496,76.112 L158.496,80 L160.352,80 Z M167.2,80.192 C167.701333,80.192 168.181333,80.112 168.64,79.952 C169.098667,79.792 169.514667,79.5893333 169.888,79.344 L169.888,79.344 L169.264,78.192 C168.976,78.3733333 168.685333,78.5146667 168.392,78.616 C168.098667,78.7173333 167.781333,78.768 167.44,78.768 C166.8,78.768 166.274667,78.5786667 165.864,78.2 C165.453333,77.8213333 165.205333,77.28 165.12,76.576 L165.12,76.576 L170.112,76.576 C170.133333,76.48 170.152,76.352 170.168,76.192 C170.184,76.032 170.192,75.8613333 170.192,75.68 C170.192,75.136 170.122667,74.6346667 169.984,74.176 C169.845333,73.7173333 169.64,73.3226667 169.368,72.992 C169.096,72.6613333 168.757333,72.4053333 168.352,72.224 C167.946667,72.0426667 167.477333,71.952 166.944,71.952 C166.485333,71.952 166.037333,72.048 165.6,72.24 C165.162667,72.432 164.776,72.704 164.44,73.056 C164.104,73.408 163.834667,73.84 163.632,74.352 C163.429333,74.864 163.328,75.44 163.328,76.08 C163.328,76.7306667 163.426667,77.3093333 163.624,77.816 C163.821333,78.3226667 164.096,78.752 164.448,79.104 C164.8,79.456 165.210667,79.7253333 165.68,79.912 C166.149333,80.0986667 166.656,80.192 167.2,80.192 Z M168.592,75.328 L165.104,75.328 C165.189333,74.688 165.408,74.2026667 165.76,73.872 C166.112,73.5413333 166.522667,73.376 166.992,73.376 C167.536,73.376 167.938667,73.5493333 168.2,73.896 C168.461333,74.2426667 168.592,74.72 168.592,75.328 L168.592,75.328 Z M173.664,80.192 C174.133333,80.192 174.568,80.0906667 174.968,79.888 C175.368,79.6853333 175.744,79.4346667 176.096,79.136 L176.096,79.136 L176.16,79.136 L176.288,80 L177.808,80 L177.808,75.344 C177.808,74.2453333 177.565333,73.4053333 177.08,72.824 C176.594667,72.2426667 175.861333,71.952 174.88,71.952 C174.250667,71.952 173.664,72.0533333 173.12,72.256 C172.576,72.4586667 172.085333,72.6986667 171.648,72.976 L171.648,72.976 L172.32,74.208 C172.672,73.9946667 173.032,73.8133333 173.4,73.664 C173.768,73.5146667 174.144,73.44 174.528,73.44 C174.794667,73.44 175.018667,73.48 175.2,73.56 C175.381333,73.64 175.528,73.752 175.64,73.896 C175.752,74.04 175.832,74.2053333 175.88,74.392 C175.928,74.5786667 175.957333,74.7733333 175.968,74.976 C175.157333,75.0613333 174.461333,75.184 173.88,75.344 C173.298667,75.504 172.818667,75.7013333 172.44,75.936 C172.061333,76.1706667 171.784,76.4506667 171.608,76.776 C171.432,77.1013333 171.344,77.472 171.344,77.888 C171.344,78.5813333 171.557333,79.1386667 171.984,79.56 C172.410667,79.9813333 172.970667,80.192 173.664,80.192 Z M174.256,78.752 C173.925333,78.752 173.653333,78.672 173.44,78.512 C173.226667,78.352 173.12,78.096 173.12,77.744 C173.12,77.552 173.168,77.3706667 173.264,77.2 C173.36,77.0293333 173.52,76.8773333 173.744,76.744 C173.968,76.6106667 174.261333,76.4906667 174.624,76.384 C174.986667,76.2773333 175.434667,76.192 175.968,76.128 L175.968,76.128 L175.968,77.888 C175.669333,78.1653333 175.389333,78.3786667 175.128,78.528 C174.866667,78.6773333 174.576,78.752 174.256,78.752 Z M181.856,80 L181.856,75.2 C182.101333,74.6026667 182.394667,74.184 182.736,73.944 C183.077333,73.704 183.402667,73.584 183.712,73.584 C183.882667,73.584 184.026667,73.5946667 184.144,73.616 C184.261333,73.6373333 184.389333,73.6693333 184.528,73.712 L184.528,73.712 L184.848,72.112 C184.624,72.0053333 184.325333,71.952 183.952,71.952 C183.536,71.952 183.130667,72.088 182.736,72.36 C182.341333,72.632 182.005333,73.024 181.728,73.536 L181.728,73.536 L181.664,73.536 L181.536,72.144 L180.016,72.144 L180.016,80 L181.856,80 Z" id="PerYear" fill="#555555" fill-rule="nonzero"></path>
                <path d="M137.16,20 L137.16,18.432 L132.552,18.432 L132.552,15.344 L136.312,15.344 L136.312,13.776 L132.552,13.776 L132.552,11.104 L137,11.104 L137,9.536 L130.696,9.536 L130.696,20 L137.16,20 Z M141.048,20.192 C141.517333,20.192 141.952,20.0906667 142.352,19.888 C142.752,19.6853333 143.128,19.4346667 143.48,19.136 L143.48,19.136 L143.544,19.136 L143.672,20 L145.192,20 L145.192,15.344 C145.192,14.2453333 144.949333,13.4053333 144.464,12.824 C143.978667,12.2426667 143.245333,11.952 142.264,11.952 C141.634667,11.952 141.048,12.0533333 140.504,12.256 C139.96,12.4586667 139.469333,12.6986667 139.032,12.976 L139.032,12.976 L139.704,14.208 C140.056,13.9946667 140.416,13.8133333 140.784,13.664 C141.152,13.5146667 141.528,13.44 141.912,13.44 C142.178667,13.44 142.402667,13.48 142.584,13.56 C142.765333,13.64 142.912,13.752 143.024,13.896 C143.136,14.04 143.216,14.2053333 143.264,14.392 C143.312,14.5786667 143.341333,14.7733333 143.352,14.976 C142.541333,15.0613333 141.845333,15.184 141.264,15.344 C140.682667,15.504 140.202667,15.7013333 139.824,15.936 C139.445333,16.1706667 139.168,16.4506667 138.992,16.776 C138.816,17.1013333 138.728,17.472 138.728,17.888 C138.728,18.5813333 138.941333,19.1386667 139.368,19.56 C139.794667,19.9813333 140.354667,20.192 141.048,20.192 Z M141.64,18.752 C141.309333,18.752 141.037333,18.672 140.824,18.512 C140.610667,18.352 140.504,18.096 140.504,17.744 C140.504,17.552 140.552,17.3706667 140.648,17.2 C140.744,17.0293333 140.904,16.8773333 141.128,16.744 C141.352,16.6106667 141.645333,16.4906667 142.008,16.384 C142.370667,16.2773333 142.818667,16.192 143.352,16.128 L143.352,16.128 L143.352,17.888 C143.053333,18.1653333 142.773333,18.3786667 142.512,18.528 C142.250667,18.6773333 141.96,18.752 141.64,18.752 Z M149.24,20 L149.24,15.2 C149.485333,14.6026667 149.778667,14.184 150.12,13.944 C150.461333,13.704 150.786667,13.584 151.096,13.584 C151.266667,13.584 151.410667,13.5946667 151.528,13.616 C151.645333,13.6373333 151.773333,13.6693333 151.912,13.712 L151.912,13.712 L152.232,12.112 C152.008,12.0053333 151.709333,11.952 151.336,11.952 C150.92,11.952 150.514667,12.088 150.12,12.36 C149.725333,12.632 149.389333,13.024 149.112,13.536 L149.112,13.536 L149.048,13.536 L148.92,12.144 L147.4,12.144 L147.4,20 L149.24,20 Z M155.208,20 L155.208,14.512 C155.538667,14.192 155.834667,13.9493333 156.096,13.784 C156.357333,13.6186667 156.658667,13.536 157,13.536 C157.437333,13.536 157.752,13.6693333 157.944,13.936 C158.136,14.2026667 158.232,14.6613333 158.232,15.312 L158.232,15.312 L158.232,20 L160.072,20 L160.072,15.072 C160.072,14.0693333 159.88,13.2986667 159.496,12.76 C159.112,12.2213333 158.498667,11.952 157.656,11.952 C157.112,11.952 156.634667,12.0746667 156.224,12.32 C155.813333,12.5653333 155.432,12.8586667 155.08,13.2 L155.08,13.2 L155.016,13.2 L154.888,12.144 L153.368,12.144 L153.368,20 L155.208,20 Z M163.256,10.768 C163.586667,10.768 163.858667,10.672 164.072,10.48 C164.285333,10.288 164.392,10.0373333 164.392,9.728 C164.392,9.41866667 164.285333,9.16533333 164.072,8.968 C163.858667,8.77066667 163.586667,8.672 163.256,8.672 C162.925333,8.672 162.653333,8.77066667 162.44,8.968 C162.226667,9.16533333 162.12,9.41866667 162.12,9.728 C162.12,10.0373333 162.226667,10.288 162.44,10.48 C162.653333,10.672 162.925333,10.768 163.256,10.768 Z M164.168,20 L164.168,12.144 L162.328,12.144 L162.328,20 L164.168,20 Z M168.36,20 L168.36,14.512 C168.690667,14.192 168.986667,13.9493333 169.248,13.784 C169.509333,13.6186667 169.810667,13.536 170.152,13.536 C170.589333,13.536 170.904,13.6693333 171.096,13.936 C171.288,14.2026667 171.384,14.6613333 171.384,15.312 L171.384,15.312 L171.384,20 L173.224,20 L173.224,15.072 C173.224,14.0693333 173.032,13.2986667 172.648,12.76 C172.264,12.2213333 171.650667,11.952 170.808,11.952 C170.264,11.952 169.786667,12.0746667 169.376,12.32 C168.965333,12.5653333 168.584,12.8586667 168.232,13.2 L168.232,13.2 L168.168,13.2 L168.04,12.144 L166.52,12.144 L166.52,20 L168.36,20 Z M178.216,23.472 C178.856,23.472 179.434667,23.4 179.952,23.256 C180.469333,23.112 180.909333,22.9173333 181.272,22.672 C181.634667,22.4266667 181.914667,22.1333333 182.112,21.792 C182.309333,21.4506667 182.408,21.088 182.408,20.704 C182.408,20.0213333 182.165333,19.528 181.68,19.224 C181.194667,18.92 180.477333,18.768 179.528,18.768 L179.528,18.768 L178.136,18.768 C177.656,18.768 177.322667,18.704 177.136,18.576 C176.949333,18.448 176.856,18.272 176.856,18.048 C176.856,17.8666667 176.890667,17.7226667 176.96,17.616 C177.029333,17.5093333 177.122667,17.4026667 177.24,17.296 C177.421333,17.3706667 177.602667,17.424 177.784,17.456 C177.965333,17.488 178.141333,17.504 178.312,17.504 C178.728,17.504 179.117333,17.4453333 179.48,17.328 C179.842667,17.2106667 180.157333,17.04 180.424,16.816 C180.690667,16.592 180.901333,16.3146667 181.056,15.984 C181.210667,15.6533333 181.288,15.2693333 181.288,14.832 C181.288,14.5546667 181.245333,14.3013333 181.16,14.072 C181.074667,13.8426667 180.968,13.6533333 180.84,13.504 L180.84,13.504 L182.28,13.504 L182.28,12.144 L179.464,12.144 C179.304,12.0906667 179.125333,12.0453333 178.928,12.008 C178.730667,11.9706667 178.525333,11.952 178.312,11.952 C177.896,11.952 177.501333,12.0133333 177.128,12.136 C176.754667,12.2586667 176.426667,12.44 176.144,12.68 C175.861333,12.92 175.634667,13.216 175.464,13.568 C175.293333,13.92 175.208,14.32 175.208,14.768 C175.208,15.2373333 175.312,15.6506667 175.52,16.008 C175.728,16.3653333 175.965333,16.6453333 176.232,16.848 L176.232,16.848 L176.232,16.912 C176.008,17.072 175.808,17.2773333 175.632,17.528 C175.456,17.7786667 175.368,18.0586667 175.368,18.368 C175.368,18.688 175.434667,18.9546667 175.568,19.168 C175.701333,19.3813333 175.869333,19.552 176.072,19.68 L176.072,19.68 L176.072,19.744 C175.709333,19.968 175.432,20.2213333 175.24,20.504 C175.048,20.7866667 174.952,21.0933333 174.952,21.424 C174.952,21.7653333 175.034667,22.064 175.2,22.32 C175.365333,22.576 175.592,22.7893333 175.88,22.96 C176.168,23.1306667 176.512,23.2586667 176.912,23.344 C177.312,23.4293333 177.746667,23.472 178.216,23.472 Z M178.312,16.352 C177.928,16.352 177.602667,16.216 177.336,15.944 C177.069333,15.672 176.936,15.28 176.936,14.768 C176.936,14.2666667 177.069333,13.8826667 177.336,13.616 C177.602667,13.3493333 177.928,13.216 178.312,13.216 C178.696,13.216 179.018667,13.352 179.28,13.624 C179.541333,13.896 179.672,14.2773333 179.672,14.768 C179.672,15.28 179.538667,15.672 179.272,15.944 C179.005333,16.216 178.685333,16.352 178.312,16.352 Z M178.504,22.272 C177.874667,22.272 177.381333,22.1733333 177.024,21.976 C176.666667,21.7786667 176.488,21.504 176.488,21.152 C176.488,20.768 176.690667,20.4213333 177.096,20.112 C177.384,20.1866667 177.741333,20.224 178.168,20.224 L178.168,20.224 L179.24,20.224 C179.688,20.224 180.032,20.2773333 180.272,20.384 C180.512,20.4906667 180.632,20.6986667 180.632,21.008 C180.632,21.3493333 180.437333,21.6453333 180.048,21.896 C179.658667,22.1466667 179.144,22.272 178.504,22.272 Z" id="Earning" fill="#555555" fill-rule="nonzero"></path>
                <path d="M138.536,58.52 L138.536,55.224 C140.136,54.9253333 141.362667,54.2586667 142.216,53.224 C143.069333,52.1893333 143.496,50.904 143.496,49.368 C143.496,48.3013333 143.282667,47.4106667 142.856,46.696 C142.429333,45.9813333 141.890667,45.3786667 141.24,44.888 C140.589333,44.3973333 139.890667,43.976 139.144,43.624 C138.397333,43.272 137.698667,42.92 137.048,42.568 C136.397333,42.216 135.858667,41.832 135.432,41.416 C135.005333,41 134.792,40.472 134.792,39.832 C134.792,39 135.037333,38.3653333 135.528,37.928 C136.018667,37.4906667 136.701333,37.272 137.576,37.272 C138.344,37.272 139.005333,37.416 139.56,37.704 C140.114667,37.992 140.690667,38.4133333 141.288,38.968 L141.288,38.968 L143.176,36.824 C142.578667,36.2053333 141.912,35.6666667 141.176,35.208 C140.44,34.7493333 139.56,34.456 138.536,34.328 L138.536,34.328 L138.536,31.128 L135.976,31.128 L135.976,34.392 C134.525333,34.648 133.373333,35.272 132.52,36.264 C131.666667,37.256 131.24,38.4986667 131.24,39.992 C131.24,40.9946667 131.453333,41.832 131.88,42.504 C132.306667,43.176 132.845333,43.752 133.496,44.232 C134.146667,44.712 134.845333,45.128 135.592,45.48 C136.338667,45.832 137.037333,46.2 137.688,46.584 C138.338667,46.968 138.877333,47.3946667 139.304,47.864 C139.730667,48.3333333 139.944,48.92 139.944,49.624 C139.944,50.4986667 139.688,51.176 139.176,51.656 C138.664,52.136 137.885333,52.376 136.84,52.376 C135.965333,52.376 135.144,52.1946667 134.376,51.832 C133.608,51.4693333 132.850667,50.9893333 132.104,50.392 L132.104,50.392 L130.44,52.888 C131.165333,53.5706667 132.024,54.12 133.016,54.536 C134.008,54.952 134.994667,55.2133333 135.976,55.32 L135.976,55.32 L135.976,58.52 L138.536,58.52 Z M153.128,55.384 C154.066667,55.384 154.968,55.2293333 155.832,54.92 C156.696,54.6106667 157.458667,54.1573333 158.12,53.56 C158.781333,52.9626667 159.309333,52.2266667 159.704,51.352 C160.098667,50.4773333 160.296,49.4853333 160.296,48.376 C160.296,47.288 160.125333,46.344 159.784,45.544 C159.442667,44.744 158.984,44.0826667 158.408,43.56 C157.832,43.0373333 157.154667,42.648 156.376,42.392 C155.597333,42.136 154.770667,42.008 153.896,42.008 C153.362667,42.008 152.888,42.0666667 152.472,42.184 C152.056,42.3013333 151.634667,42.4666667 151.208,42.68 L151.208,42.68 L151.624,37.752 L159.304,37.752 L159.304,34.648 L148.424,34.648 L147.816,44.696 L149.576,45.816 C150.194667,45.4106667 150.728,45.1173333 151.176,44.936 C151.624,44.7546667 152.178667,44.664 152.84,44.664 C153.970667,44.664 154.877333,44.9946667 155.56,45.656 C156.242667,46.3173333 156.584,47.256 156.584,48.472 C156.584,49.7093333 156.216,50.6693333 155.48,51.352 C154.744,52.0346667 153.8,52.376 152.648,52.376 C151.624,52.376 150.728,52.1573333 149.96,51.72 C149.192,51.2826667 148.498667,50.776 147.88,50.2 L147.88,50.2 L146.184,52.568 C146.930667,53.3146667 147.864,53.9706667 148.984,54.536 C150.104,55.1013333 151.485333,55.384 153.128,55.384 Z M176.808,55 L176.808,51.864 L171.816,51.864 C171.325333,51.864 170.770667,51.8906667 170.152,51.944 C169.533333,51.9973333 168.957333,52.0453333 168.424,52.088 C169.426667,51.0213333 170.376,49.9866667 171.272,48.984 C172.168,47.9813333 172.952,47.0053333 173.624,46.056 C174.296,45.1066667 174.829333,44.168 175.224,43.24 C175.618667,42.312 175.816,41.4 175.816,40.504 C175.816,39.5653333 175.661333,38.712 175.352,37.944 C175.042667,37.176 174.610667,36.52 174.056,35.976 C173.501333,35.432 172.829333,35.0106667 172.04,34.712 C171.250667,34.4133333 170.365333,34.264 169.384,34.264 C167.976,34.264 166.776,34.536 165.784,35.08 C164.792,35.624 163.826667,36.3973333 162.888,37.4 L162.888,37.4 L164.936,39.448 C165.490667,38.8293333 166.093333,38.296 166.744,37.848 C167.394667,37.4 168.114667,37.176 168.904,37.176 C169.992,37.176 170.824,37.4906667 171.4,38.12 C171.976,38.7493333 172.264,39.608 172.264,40.696 C172.264,41.464 172.050667,42.2746667 171.624,43.128 C171.197333,43.9813333 170.584,44.8986667 169.784,45.88 C168.984,46.8613333 168.013333,47.928 166.872,49.08 C165.730667,50.232 164.456,51.4906667 163.048,52.856 L163.048,52.856 L163.048,55 L176.808,55 Z M180.552,60.824 C182.152,60.2693333 183.384,59.416 184.248,58.264 C185.112,57.112 185.544,55.7466667 185.544,54.168 C185.544,52.9733333 185.304,52.0453333 184.824,51.384 C184.344,50.7226667 183.666667,50.392 182.792,50.392 C182.109333,50.392 181.528,50.6 181.048,51.016 C180.568,51.432 180.328,51.9813333 180.328,52.664 C180.328,53.3893333 180.568,53.9493333 181.048,54.344 C181.528,54.7386667 182.077333,54.936 182.696,54.936 L182.696,54.936 L182.984,54.936 C183.005333,55.7466667 182.733333,56.4933333 182.168,57.176 C181.602667,57.8586667 180.797333,58.4026667 179.752,58.808 L179.752,58.808 L180.552,60.824 Z M194.76,55.384 C195.698667,55.384 196.6,55.2293333 197.464,54.92 C198.328,54.6106667 199.090667,54.1573333 199.752,53.56 C200.413333,52.9626667 200.941333,52.2266667 201.336,51.352 C201.730667,50.4773333 201.928,49.4853333 201.928,48.376 C201.928,47.288 201.757333,46.344 201.416,45.544 C201.074667,44.744 200.616,44.0826667 200.04,43.56 C199.464,43.0373333 198.786667,42.648 198.008,42.392 C197.229333,42.136 196.402667,42.008 195.528,42.008 C194.994667,42.008 194.52,42.0666667 194.104,42.184 C193.688,42.3013333 193.266667,42.4666667 192.84,42.68 L192.84,42.68 L193.256,37.752 L200.936,37.752 L200.936,34.648 L190.056,34.648 L189.448,44.696 L191.208,45.816 C191.826667,45.4106667 192.36,45.1173333 192.808,44.936 C193.256,44.7546667 193.810667,44.664 194.472,44.664 C195.602667,44.664 196.509333,44.9946667 197.192,45.656 C197.874667,46.3173333 198.216,47.256 198.216,48.472 C198.216,49.7093333 197.848,50.6693333 197.112,51.352 C196.376,52.0346667 195.432,52.376 194.28,52.376 C193.256,52.376 192.36,52.1573333 191.592,51.72 C190.824,51.2826667 190.130667,50.776 189.512,50.2 L189.512,50.2 L187.816,52.568 C188.562667,53.3146667 189.496,53.9706667 190.616,54.536 C191.736,55.1013333 193.117333,55.384 194.76,55.384 Z M211.688,55.384 C212.712,55.384 213.650667,55.2453333 214.504,54.968 C215.357333,54.6906667 216.082667,54.3013333 216.68,53.8 C217.277333,53.2986667 217.741333,52.712 218.072,52.04 C218.402667,51.368 218.568,50.6373333 218.568,49.848 C218.568,49.1653333 218.472,48.5573333 218.28,48.024 C218.088,47.4906667 217.832,47.0106667 217.512,46.584 C217.192,46.1573333 216.818667,45.7786667 216.392,45.448 C215.965333,45.1173333 215.517333,44.824 215.048,44.568 L215.048,44.568 L215.048,44.44 C215.368,44.2053333 215.693333,43.9226667 216.024,43.592 C216.354667,43.2613333 216.648,42.8986667 216.904,42.504 C217.16,42.1093333 217.368,41.6826667 217.528,41.224 C217.688,40.7653333 217.768,40.28 217.768,39.768 C217.768,38.936 217.629333,38.184 217.352,37.512 C217.074667,36.84 216.674667,36.264 216.152,35.784 C215.629333,35.304 215,34.9306667 214.264,34.664 C213.528,34.3973333 212.701333,34.264 211.784,34.264 C210.909333,34.264 210.093333,34.392 209.336,34.648 C208.578667,34.904 207.928,35.2666667 207.384,35.736 C206.84,36.2053333 206.413333,36.7706667 206.104,37.432 C205.794667,38.0933333 205.64,38.84 205.64,39.672 C205.64,40.76 205.912,41.688 206.456,42.456 C207,43.224 207.666667,43.8853333 208.456,44.44 L208.456,44.44 L208.456,44.568 C207.965333,44.824 207.501333,45.1226667 207.064,45.464 C206.626667,45.8053333 206.237333,46.1893333 205.896,46.616 C205.554667,47.0426667 205.282667,47.5173333 205.08,48.04 C204.877333,48.5626667 204.776,49.144 204.776,49.784 C204.776,50.616 204.952,51.3733333 205.304,52.056 C205.656,52.7386667 206.136,53.3253333 206.744,53.816 C207.352,54.3066667 208.077333,54.6906667 208.92,54.968 C209.762667,55.2453333 210.685333,55.384 211.688,55.384 Z M213.032,43.512 C212.456,43.2986667 211.922667,43.0693333 211.432,42.824 C210.941333,42.5786667 210.509333,42.312 210.136,42.024 C209.762667,41.736 209.469333,41.4 209.256,41.016 C209.042667,40.632 208.936,40.184 208.936,39.672 C208.936,38.776 209.202667,38.088 209.736,37.608 C210.269333,37.128 210.930667,36.888 211.72,36.888 C212.68,36.888 213.421333,37.1813333 213.944,37.768 C214.466667,38.3546667 214.728,39.096 214.728,39.992 C214.728,40.632 214.584,41.24 214.296,41.816 C214.008,42.392 213.586667,42.9573333 213.032,43.512 Z M211.752,52.76 C210.706667,52.76 209.821333,52.456 209.096,51.848 C208.370667,51.24 208.008,50.424 208.008,49.4 C208.008,48.6106667 208.216,47.896 208.632,47.256 C209.048,46.616 209.576,46.0613333 210.216,45.592 C210.898667,45.8693333 211.538667,46.136 212.136,46.392 C212.733333,46.648 213.250667,46.9306667 213.688,47.24 C214.125333,47.5493333 214.472,47.9013333 214.728,48.296 C214.984,48.6906667 215.112,49.1653333 215.112,49.72 C215.112,50.68 214.797333,51.4266667 214.168,51.96 C213.538667,52.4933333 212.733333,52.76 211.752,52.76 Z M228.072,55.384 C230.205333,55.384 231.890667,54.472 233.128,52.648 C234.365333,50.824 234.984,48.184 234.984,44.728 C234.984,41.2933333 234.365333,38.6906667 233.128,36.92 C231.890667,35.1493333 230.205333,34.264 228.072,34.264 C225.938667,34.264 224.253333,35.144 223.016,36.904 C221.778667,38.664 221.16,41.272 221.16,44.728 C221.16,48.184 221.778667,50.824 223.016,52.648 C224.253333,54.472 225.938667,55.384 228.072,55.384 Z M228.072,52.504 C227.581333,52.504 227.128,52.3706667 226.712,52.104 C226.296,51.8373333 225.938667,51.3946667 225.64,50.776 C225.341333,50.1573333 225.106667,49.3573333 224.936,48.376 C224.765333,47.3946667 224.68,46.1786667 224.68,44.728 C224.68,43.2986667 224.765333,42.0986667 224.936,41.128 C225.106667,40.1573333 225.341333,39.3733333 225.64,38.776 C225.938667,38.1786667 226.296,37.7573333 226.712,37.512 C227.128,37.2666667 227.581333,37.144 228.072,37.144 C228.562667,37.144 229.016,37.2666667 229.432,37.512 C229.848,37.7573333 230.205333,38.1786667 230.504,38.776 C230.802667,39.3733333 231.037333,40.1573333 231.208,41.128 C231.378667,42.0986667 231.464,43.2986667 231.464,44.728 C231.464,46.1786667 231.378667,47.3946667 231.208,48.376 C231.037333,49.3573333 230.802667,50.1573333 230.504,50.776 C230.205333,51.3946667 229.848,51.8373333 229.432,52.104 C229.016,52.3706667 228.562667,52.504 228.072,52.504 Z" id="$52,580" fill="#112E51" fill-rule="nonzero"></path>
                <g id="Group-3">
                    <g id="Group-21" transform="translate(8.000000, 0.000000)">
                        <path d="M14.999285,0 C20.5219505,0 24.999285,4.47733448 24.999285,10 C24.999285,15.5226655 20.5219505,20 14.999285,20 C9.47661948,20 4.999285,15.5226655 4.999285,10 C4.999285,4.47733448 9.47661948,0 14.999285,0 M22.4996425,22.4996425 L20.7250107,22.4996425 C17.1757472,24.1312741 12.975833,24.2013442 9.27498927,22.4996425 L7.4989275,22.4996425 C3.35764336,22.4996425 0,25.8587159 0,30 L0,51.2498212 C0,53.3218933 1.67882168,54.999285 3.74946375,54.999285 L6.24910625,54.999285 L6.24910625,76.2505363 C6.24910625,78.3226083 7.92792793,80 10,80 L20,80 C22.0706421,80 23.7494637,78.3226083 23.7494637,76.2505363 L23.7494637,54.999285 L26.2491062,54.999285 C28.3211783,54.999285 30,53.3218933 30,51.2498212 L30,30 C30,25.8587159 26.6423566,22.4996425 22.4996425,22.4996425" id="Fill-1" fill="#0A2F5A"></path>
                        <path d="M14.999285,0 C20.5219505,0 24.999285,4.47733448 24.999285,10 C24.999285,15.5226655 20.5219505,20 14.999285,20 C9.47661948,20 4.999285,15.5226655 4.999285,10 C4.999285,4.47733448 9.47661948,0 14.999285,0 Z M22.4996425,22.4996425 L20.7250107,22.4996425 C17.1757472,24.1312741 12.975833,24.2013442 9.27498927,22.4996425 L7.4989275,22.4996425 C3.35764336,22.4996425 0,25.8587159 0,30 L0,51.2498212 C0,53.3218933 1.67882168,54.999285 3.74946375,54.999285 L6.24910625,54.999285 L6.24910625,76.2505363 C6.24910625,78.3226083 7.92792793,80 10,80 L20,80 C22.0706421,80 23.7494637,78.3226083 23.7494637,76.2505363 L23.7494637,54.999285 L26.2491062,54.999285 C28.3211783,54.999285 30,53.3218933 30,51.2498212 L30,30 C30,25.8587159 26.6423566,22.4996425 22.4996425,22.4996425 Z" id="Stroke-3" stroke="#FFFFFF"></path>
                        <path d="M74.999285,0 C80.5219505,0 84.999285,4.47733448 84.999285,10 C84.999285,15.5226655 80.5219505,20 74.999285,20 C69.4766195,20 64.999285,15.5226655 64.999285,10 C64.999285,4.47733448 69.4766195,0 74.999285,0 M82.4996425,22.4996425 L80.7250107,22.4996425 C77.1757472,24.1312741 72.975833,24.2013442 69.2749893,22.4996425 L67.4989275,22.4996425 C63.3576434,22.4996425 60,25.8587159 60,30 L60,51.2498212 C60,53.3218933 61.6788217,54.999285 63.7494637,54.999285 L66.2491062,54.999285 L66.2491062,76.2505363 C66.2491062,78.3226083 67.9279279,80 69.99857,80 L80,80 C82.0706421,80 83.7494637,78.3226083 83.7494637,76.2505363 L83.7494637,54.999285 L86.2491062,54.999285 C88.3197483,54.999285 90,53.3218933 90,51.2498212 L90,30 C90,25.8587159 86.6423566,22.4996425 82.4996425,22.4996425" id="Fill-5" fill="#0A2F5A"></path>
                        <path d="M74.999285,0 C80.5219505,0 84.999285,4.47733448 84.999285,10 C84.999285,15.5226655 80.5219505,20 74.999285,20 C69.4766195,20 64.999285,15.5226655 64.999285,10 C64.999285,4.47733448 69.4766195,0 74.999285,0 Z M82.4996425,22.4996425 L80.7250107,22.4996425 C77.1757472,24.1312741 72.975833,24.2013442 69.2749893,22.4996425 L67.4989275,22.4996425 C63.3576434,22.4996425 60,25.8587159 60,30 L60,51.2498212 C60,53.3218933 61.6788217,54.999285 63.7494637,54.999285 L66.2491062,54.999285 L66.2491062,76.2505363 C66.2491062,78.3226083 67.9279279,80 69.99857,80 L80,80 C82.0706421,80 83.7494637,78.3226083 83.7494637,76.2505363 L83.7494637,54.999285 L86.2491062,54.999285 C88.3197483,54.999285 90,53.3218933 90,51.2498212 L90,30 C90,25.8587159 86.6423566,22.4996425 82.4996425,22.4996425 Z" id="Stroke-7" stroke="#FFFFFF"></path>
                        <path d="M29,3 C34.8911236,3 39.6666667,7.81309398 39.6666667,13.7505406 C39.6666667,19.6865456 34.8911236,24.5010811 29,24.5010811 C23.1088764,24.5010811 18.3333333,19.6865456 18.3333333,13.7505406 C18.3333333,7.81309398 23.1088764,3 29,3 M36.9992849,27.1879955 L35.1070886,27.1879955 C31.3212658,28.9422738 26.8417806,29.0172307 22.8929114,27.1879955 L21.0007151,27.1879955 C16.58273,27.1879955 13,30.7974556 13,35.2501802 L13,58.093277 C13,60.32036 14.7906499,62.1250901 17.0003576,62.1250901 L19.6677393,62.1250901 L19.6677393,84.9681869 C19.6677393,87.1952699 21.4583892,89 23.6666667,89 L34.3333333,89 C36.5416108,89 38.3322607,87.1952699 38.3322607,84.9681869 L38.3322607,62.1250901 L40.9996424,62.1250901 C43.2093501,62.1250901 45,60.32036 45,58.093277 L45,35.2501802 C45,30.7974556 41.41727,27.1879955 36.9992849,27.1879955" id="Fill-9" fill="#0A2F5A"></path>
                        <path d="M29,3 C34.8911236,3 39.6666667,7.81309398 39.6666667,13.7505406 C39.6666667,19.6865456 34.8911236,24.5010811 29,24.5010811 C23.1088764,24.5010811 18.3333333,19.6865456 18.3333333,13.7505406 C18.3333333,7.81309398 23.1088764,3 29,3 Z M36.9992849,27.1879955 L35.1070886,27.1879955 C31.3212658,28.9422738 26.8417806,29.0172307 22.8929114,27.1879955 L21.0007151,27.1879955 C16.58273,27.1879955 13,30.7974556 13,35.2501802 L13,58.093277 C13,60.32036 14.7906499,62.1250901 17.0003576,62.1250901 L19.6677393,62.1250901 L19.6677393,84.9681869 C19.6677393,87.1952699 21.4583892,89 23.6666667,89 L34.3333333,89 C36.5416108,89 38.3322607,87.1952699 38.3322607,84.9681869 L38.3322607,62.1250901 L40.9996424,62.1250901 C43.2093501,62.1250901 45,60.32036 45,58.093277 L45,35.2501802 C45,30.7974556 41.41727,27.1879955 36.9992849,27.1879955 Z" id="Stroke-11" stroke="#FFFFFF"></path>
                        <path d="M61,3 C66.8911236,3 71.6666667,7.81309398 71.6666667,13.7505406 C71.6666667,19.6865456 66.8911236,24.5010811 61,24.5010811 C55.1088764,24.5010811 50.3333333,19.6865456 50.3333333,13.7505406 C50.3333333,7.81309398 55.1088764,3 61,3 M68.9992849,27.1879955 L67.1070886,27.1879955 C63.3212658,28.9422738 58.8417806,29.0172307 54.8929114,27.1879955 L53.0007151,27.1879955 C48.5812997,27.1879955 45,30.7974556 45,35.2501802 L45,58.093277 C45,60.32036 46.7906499,62.1250901 49.0003576,62.1250901 L51.6677393,62.1250901 L51.6677393,84.9681869 C51.6677393,87.1952699 53.4583892,89 55.6666667,89 L66.3333333,89 C68.5416108,89 70.3322607,87.1952699 70.3322607,84.9681869 L70.3322607,62.1250901 L72.9996424,62.1250901 C75.2079199,62.1250901 77,60.32036 77,58.093277 L77,35.2501802 C77,30.7974556 73.41727,27.1879955 68.9992849,27.1879955" id="Fill-13" fill="#0A2F5A"></path>
                        <path d="M61,3 C66.8911236,3 71.6666667,7.81309398 71.6666667,13.7505406 C71.6666667,19.6865456 66.8911236,24.5010811 61,24.5010811 C55.1088764,24.5010811 50.3333333,19.6865456 50.3333333,13.7505406 C50.3333333,7.81309398 55.1088764,3 61,3 Z M68.9992849,27.1879955 L67.1070886,27.1879955 C63.3212658,28.9422738 58.8417806,29.0172307 54.8929114,27.1879955 L53.0007151,27.1879955 C48.5812997,27.1879955 45,30.7974556 45,35.2501802 L45,58.093277 C45,60.32036 46.7906499,62.1250901 49.0003576,62.1250901 L51.6677393,62.1250901 L51.6677393,84.9681869 C51.6677393,87.1952699 53.4583892,89 55.6666667,89 L66.3333333,89 C68.5416108,89 70.3322607,87.1952699 70.3322607,84.9681869 L70.3322607,62.1250901 L72.9996424,62.1250901 C75.2079199,62.1250901 77,60.32036 77,58.093277 L77,35.2501802 C77,30.7974556 73.41727,27.1879955 68.9992849,27.1879955 Z" id="Stroke-15" stroke="#FFFFFF"></path>
                        <path d="M45,6 C50.8911236,6 55.6666667,10.813094 55.6666667,16.7505406 C55.6666667,22.6865456 50.8911236,27.5010811 45,27.5010811 C39.1088764,27.5010811 34.3333333,22.6865456 34.3333333,16.7505406 C34.3333333,10.813094 39.1088764,6 45,6 M52.9992849,30.1879955 L51.1070886,30.1879955 C47.3212658,31.9422738 42.8417806,32.0172307 38.8929114,30.1879955 L37.0007151,30.1879955 C32.58273,30.1879955 29,33.7974556 29,38.2501802 L29,61.093277 C29,63.32036 30.7906499,65.1250901 33.0003576,65.1250901 L35.6677393,65.1250901 L35.6677393,87.9681869 C35.6677393,90.1952699 37.4583892,92 39.6666667,92 L50.3333333,92 C52.5416108,92 54.3322607,90.1952699 54.3322607,87.9681869 L54.3322607,65.1250901 L56.9996424,65.1250901 C59.2079199,65.1250901 61,63.32036 61,61.093277 L61,38.2501802 C61,33.7974556 57.41727,30.1879955 52.9992849,30.1879955" id="Fill-17" fill="#0A2F5A"></path>
                        <path d="M45,6 C50.8911236,6 55.6666667,10.813094 55.6666667,16.7505406 C55.6666667,22.6865456 50.8911236,27.5010811 45,27.5010811 C39.1088764,27.5010811 34.3333333,22.6865456 34.3333333,16.7505406 C34.3333333,10.813094 39.1088764,6 45,6 Z M52.9992849,30.1879955 L51.1070886,30.1879955 C47.3212658,31.9422738 42.8417806,32.0172307 38.8929114,30.1879955 L37.0007151,30.1879955 C32.58273,30.1879955 29,33.7974556 29,38.2501802 L29,61.093277 C29,63.32036 30.7906499,65.1250901 33.0003576,65.1250901 L35.6677393,65.1250901 L35.6677393,87.9681869 C35.6677393,90.1952699 37.4583892,92 39.6666667,92 L50.3333333,92 C52.5416108,92 54.3322607,90.1952699 54.3322607,87.9681869 L54.3322607,65.1250901 L56.9996424,65.1250901 C59.2079199,65.1250901 61,63.32036 61,61.093277 L61,38.2501802 C61,33.7974556 57.41727,30.1879955 52.9992849,30.1879955 Z" id="Stroke-19" stroke="#FFFFFF"></path>
                    </g>
                    <rect id="Rectangle" fill="#0A2F5A" fill-rule="nonzero" x="0" y="35" width="104" height="47"></rect>
                    <path d="M22.715,73 L22.715,63.816 L21.553,63.816 L21.553,73 L22.715,73 Z M26.271,73 L26.271,68.072 C26.6163333,67.7266667 26.9243333,67.4653333 27.195,67.288 C27.4656667,67.1106667 27.7783333,67.022 28.133,67.022 C28.581,67.022 28.9076667,67.1643333 29.113,67.449 C29.3183333,67.7336667 29.421,68.198 29.421,68.842 L29.421,68.842 L29.421,73 L30.569,73 L30.569,68.688 C30.569,67.8106667 30.4033333,67.148 30.072,66.7 C29.7406667,66.252 29.2156667,66.028 28.497,66.028 C28.021,66.028 27.6033333,66.1376667 27.244,66.357 C26.8846667,66.5763333 26.5416667,66.8493333 26.215,67.176 L26.215,67.176 L26.173,67.176 L26.075,66.196 L25.123,66.196 L25.123,73 L26.271,73 Z M35.105,73.168 C35.5063333,73.168 35.882,73.0723333 36.232,72.881 C36.582,72.6896667 36.8923333,72.4633333 37.163,72.202 L37.163,72.202 L37.205,72.202 L37.303,73 L38.255,73 L38.255,63.032 L37.093,63.032 L37.093,65.65 L37.149,66.812 C36.8503333,66.5693333 36.5563333,66.378 36.267,66.238 C35.9776667,66.098 35.637,66.028 35.245,66.028 C34.853,66.028 34.4796667,66.112 34.125,66.28 C33.7703333,66.448 33.4576667,66.686 33.187,66.994 C32.9163333,67.302 32.6993333,67.6776667 32.536,68.121 C32.3726667,68.5643333 32.291,69.0613333 32.291,69.612 C32.291,70.7506667 32.5453333,71.628 33.054,72.244 C33.5626667,72.86 34.2463333,73.168 35.105,73.168 Z M35.357,72.202 C34.7596667,72.202 34.2976667,71.9733333 33.971,71.516 C33.6443333,71.0586667 33.481,70.4193333 33.481,69.598 C33.481,69.206 33.5323333,68.8513333 33.635,68.534 C33.7376667,68.2166667 33.8776667,67.9436667 34.055,67.715 C34.2323333,67.4863333 34.44,67.309 34.678,67.183 C34.916,67.057 35.1703333,66.994 35.441,66.994 C35.721,66.994 35.994,67.0476667 36.26,67.155 C36.526,67.2623333 36.8036667,67.4466667 37.093,67.708 L37.093,67.708 L37.093,71.264 C36.813,71.5813333 36.533,71.817 36.253,71.971 C35.973,72.125 35.6743333,72.202 35.357,72.202 Z M41.139,64.796 C41.363,64.796 41.552,64.726 41.706,64.586 C41.86,64.446 41.937,64.2686667 41.937,64.054 C41.937,63.83 41.86,63.6503333 41.706,63.515 C41.552,63.3796667 41.363,63.312 41.139,63.312 C40.915,63.312 40.726,63.3796667 40.572,63.515 C40.418,63.6503333 40.341,63.83 40.341,64.054 C40.341,64.2686667 40.418,64.446 40.572,64.586 C40.726,64.726 40.915,64.796 41.139,64.796 Z M41.699,73 L41.699,66.196 L40.551,66.196 L40.551,73 L41.699,73 Z M46.809,73 L49.217,66.196 L48.083,66.196 L46.795,70.06 C46.6923333,70.396 46.5896667,70.732 46.487,71.068 C46.3843333,71.404 46.2816667,71.7353333 46.179,72.062 L46.179,72.062 L46.123,72.062 C46.0203333,71.7353333 45.9153333,71.404 45.808,71.068 C45.7006667,70.732 45.5956667,70.396 45.493,70.06 L45.493,70.06 L44.205,66.196 L43.015,66.196 L45.465,73 L46.809,73 Z M51.121,64.796 C51.345,64.796 51.534,64.726 51.688,64.586 C51.842,64.446 51.919,64.2686667 51.919,64.054 C51.919,63.83 51.842,63.6503333 51.688,63.515 C51.534,63.3796667 51.345,63.312 51.121,63.312 C50.897,63.312 50.708,63.3796667 50.554,63.515 C50.4,63.6503333 50.323,63.83 50.323,64.054 C50.323,64.2686667 50.4,64.446 50.554,64.586 C50.708,64.726 50.897,64.796 51.121,64.796 Z M51.681,73 L51.681,66.196 L50.533,66.196 L50.533,73 L51.681,73 Z M56.301,73.168 C56.7023333,73.168 57.078,73.0723333 57.428,72.881 C57.778,72.6896667 58.0883333,72.4633333 58.359,72.202 L58.359,72.202 L58.401,72.202 L58.499,73 L59.451,73 L59.451,63.032 L58.289,63.032 L58.289,65.65 L58.345,66.812 C58.0463333,66.5693333 57.7523333,66.378 57.463,66.238 C57.1736667,66.098 56.833,66.028 56.441,66.028 C56.049,66.028 55.6756667,66.112 55.321,66.28 C54.9663333,66.448 54.6536667,66.686 54.383,66.994 C54.1123333,67.302 53.8953333,67.6776667 53.732,68.121 C53.5686667,68.5643333 53.487,69.0613333 53.487,69.612 C53.487,70.7506667 53.7413333,71.628 54.25,72.244 C54.7586667,72.86 55.4423333,73.168 56.301,73.168 Z M56.553,72.202 C55.9556667,72.202 55.4936667,71.9733333 55.167,71.516 C54.8403333,71.0586667 54.677,70.4193333 54.677,69.598 C54.677,69.206 54.7283333,68.8513333 54.831,68.534 C54.9336667,68.2166667 55.0736667,67.9436667 55.251,67.715 C55.4283333,67.4863333 55.636,67.309 55.874,67.183 C56.112,67.057 56.3663333,66.994 56.637,66.994 C56.917,66.994 57.19,67.0476667 57.456,67.155 C57.722,67.2623333 57.9996667,67.4466667 58.289,67.708 L58.289,67.708 L58.289,71.264 C58.009,71.5813333 57.729,71.817 57.449,71.971 C57.169,72.125 56.8703333,72.202 56.553,72.202 Z M63.735,73.168 C64.211,73.168 64.624,73.056 64.974,72.832 C65.324,72.608 65.6576667,72.3093333 65.975,71.936 L65.975,71.936 L66.017,71.936 L66.115,73 L67.067,73 L67.067,66.196 L65.919,66.196 L65.919,71.026 C65.5923333,71.4273333 65.2936667,71.719 65.023,71.901 C64.7523333,72.083 64.4396667,72.174 64.085,72.174 C63.637,72.174 63.3126667,72.0316667 63.112,71.747 C62.9113333,71.4623333 62.811,70.998 62.811,70.354 L62.811,70.354 L62.811,66.196 L61.649,66.196 L61.649,70.508 C61.649,71.3853333 61.8146667,72.048 62.146,72.496 C62.4773333,72.944 63.007,73.168 63.735,73.168 Z M70.931,73.168 C71.3603333,73.168 71.7616667,73.0723333 72.135,72.881 C72.5083333,72.6896667 72.8583333,72.4586667 73.185,72.188 L73.185,72.188 L73.227,72.188 L73.325,73 L74.277,73 L74.277,68.828 C74.277,67.9786667 74.0903333,67.2996667 73.717,66.791 C73.3436667,66.2823333 72.7416667,66.028 71.911,66.028 C71.3603333,66.028 70.8563333,66.1236667 70.399,66.315 C69.9416667,66.5063333 69.5543333,66.7046667 69.237,66.91 L69.237,66.91 L69.685,67.708 C69.9556667,67.5213333 70.2636667,67.3533333 70.609,67.204 C70.9543333,67.0546667 71.323,66.98 71.715,66.98 C71.995,66.98 72.226,67.029 72.408,67.127 C72.59,67.225 72.7323333,67.3533333 72.835,67.512 C72.9376667,67.6706667 73.01,67.8526667 73.052,68.058 C73.094,68.2633333 73.115,68.4733333 73.115,68.688 C71.659,68.8466667 70.5996667,69.1243333 69.937,69.521 C69.2743333,69.9176667 68.943,70.4893333 68.943,71.236 C68.943,71.852 69.132,72.328 69.51,72.664 C69.888,73 70.3616667,73.168 70.931,73.168 Z M71.267,72.244 C70.931,72.244 70.6463333,72.16 70.413,71.992 C70.1796667,71.824 70.063,71.544 70.063,71.152 C70.063,70.9373333 70.1166667,70.739 70.224,70.557 C70.3313333,70.375 70.504,70.214 70.742,70.074 C70.98,69.934 71.2926667,69.8126667 71.68,69.71 C72.0673333,69.6073333 72.5456667,69.5186667 73.115,69.444 L73.115,69.444 L73.115,71.334 C72.7883333,71.6326667 72.4803333,71.859 72.191,72.013 C71.9016667,72.167 71.5936667,72.244 71.267,72.244 Z M77.637,73.168 C77.7956667,73.168 77.9263333,73.1586667 78.029,73.14 C78.1316667,73.1213333 78.2203333,73.0933333 78.295,73.056 L78.295,73.056 L78.141,72.188 C78.0756667,72.2066667 78.0266667,72.216 77.994,72.216 L77.994,72.216 L77.889,72.216 C77.805,72.216 77.7303333,72.1786667 77.665,72.104 C77.5996667,72.0293333 77.567,71.8986667 77.567,71.712 L77.567,71.712 L77.567,63.032 L76.419,63.032 L76.419,71.628 C76.419,72.132 76.5123333,72.5146667 76.699,72.776 C76.8856667,73.0373333 77.1983333,73.168 77.637,73.168 Z M81.767,73.168 C82.1683333,73.168 82.5253333,73.1143333 82.838,73.007 C83.1506667,72.8996667 83.412,72.7526667 83.622,72.566 C83.832,72.3793333 83.9906667,72.1646667 84.098,71.922 C84.2053333,71.6793333 84.259,71.418 84.259,71.138 C84.259,70.8206667 84.196,70.55 84.07,70.326 C83.944,70.102 83.783,69.913 83.587,69.759 C83.391,69.605 83.1693333,69.4766667 82.922,69.374 C82.6746667,69.2713333 82.4296667,69.1733333 82.187,69.08 C81.991,69.0053333 81.802,68.933 81.62,68.863 C81.438,68.793 81.277,68.7136667 81.137,68.625 C80.997,68.5363333 80.885,68.4336667 80.801,68.317 C80.717,68.2003333 80.675,68.0626667 80.675,67.904 C80.675,67.6426667 80.7753333,67.414 80.976,67.218 C81.1766667,67.022 81.4916667,66.924 81.921,66.924 C82.2196667,66.924 82.495,66.98 82.747,67.092 C82.999,67.204 83.2416667,67.3486667 83.475,67.526 L83.475,67.526 L84.021,66.798 C83.7596667,66.5833333 83.4493333,66.4013333 83.09,66.252 C82.7306667,66.1026667 82.3363333,66.028 81.907,66.028 C81.543,66.028 81.2163333,66.077 80.927,66.175 C80.6376667,66.273 80.3926667,66.4083333 80.192,66.581 C79.9913333,66.7536667 79.8373333,66.959 79.73,67.197 C79.6226667,67.435 79.569,67.6893333 79.569,67.96 C79.569,68.2493333 79.6296667,68.4966667 79.751,68.702 C79.8723333,68.9073333 80.0286667,69.087 80.22,69.241 C80.4113333,69.395 80.6283333,69.5256667 80.871,69.633 C81.1136667,69.7403333 81.3563333,69.836 81.599,69.92 L81.599,69.92 L82.159,70.144 C82.3456667,70.2186667 82.5113333,70.305 82.656,70.403 C82.8006667,70.501 82.9196667,70.6153333 83.013,70.746 C83.1063333,70.8766667 83.153,71.0306667 83.153,71.208 C83.153,71.5066667 83.041,71.7586667 82.817,71.964 C82.593,72.1693333 82.257,72.272 81.809,72.272 C81.3983333,72.272 81.0366667,72.1973333 80.724,72.048 C80.4113333,71.8986667 80.1056667,71.7026667 79.807,71.46 L79.807,71.46 L79.233,72.23 C79.5596667,72.5006667 79.9423333,72.7246667 80.381,72.902 C80.8196667,73.0793333 81.2816667,73.168 81.767,73.168 Z" id="Individuals" fill="#FFFFFF" fill-rule="nonzero"></path>
                    <path d="M15.064,58.216 C15.556,58.216 16.021,58.126 16.459,57.946 C16.897,57.766 17.278,57.514 17.602,57.19 C17.926,56.866 18.184,56.473 18.376,56.011 C18.568,55.549 18.664,55.03 18.664,54.454 C18.664,53.854 18.583,53.332 18.421,52.888 C18.259,52.444 18.031,52.075 17.737,51.781 C17.443,51.487 17.089,51.268 16.675,51.124 C16.261,50.98 15.808,50.908 15.316,50.908 C14.896,50.908 14.461,51.028 14.011,51.268 C13.561,51.508 13.168,51.838 12.832,52.258 C12.856,51.466 12.943,50.8 13.093,50.26 C13.243,49.72 13.438,49.285 13.678,48.955 C13.918,48.625 14.197,48.388 14.515,48.244 C14.833,48.1 15.172,48.028 15.532,48.028 C15.88,48.028 16.219,48.109 16.549,48.271 C16.879,48.433 17.146,48.64 17.35,48.892 L17.35,48.892 L18.466,47.632 C18.118,47.272 17.695,46.966 17.197,46.714 C16.699,46.462 16.102,46.336 15.406,46.336 C14.818,46.336 14.254,46.456 13.714,46.696 C13.174,46.936 12.697,47.308 12.283,47.812 C11.869,48.316 11.536,48.964 11.284,49.756 C11.032,50.548 10.906,51.502 10.906,52.618 C10.906,53.578 11.017,54.412 11.239,55.12 C11.461,55.828 11.761,56.41 12.139,56.866 C12.517,57.322 12.958,57.661 13.462,57.883 C13.966,58.105 14.5,58.216 15.064,58.216 Z M15.028,56.632 C14.464,56.632 13.993,56.404 13.615,55.948 C13.237,55.492 12.994,54.754 12.886,53.734 C13.21,53.254 13.552,52.915 13.912,52.717 C14.272,52.519 14.614,52.42 14.938,52.42 C15.514,52.42 15.958,52.588 16.27,52.924 C16.582,53.26 16.738,53.77 16.738,54.454 C16.738,55.162 16.573,55.702 16.243,56.074 C15.913,56.446 15.508,56.632 15.028,56.632 Z M23.686,58.216 C24.214,58.216 24.721,58.129 25.207,57.955 C25.693,57.781 26.122,57.526 26.494,57.19 C26.866,56.854 27.163,56.44 27.385,55.948 C27.607,55.456 27.718,54.898 27.718,54.274 C27.718,53.662 27.622,53.131 27.43,52.681 C27.238,52.231 26.98,51.859 26.656,51.565 C26.332,51.271 25.951,51.052 25.513,50.908 C25.075,50.764 24.61,50.692 24.118,50.692 C23.818,50.692 23.551,50.725 23.317,50.791 C23.083,50.857 22.846,50.95 22.606,51.07 L22.606,51.07 L22.84,48.298 L27.16,48.298 L27.16,46.552 L21.04,46.552 L20.698,52.204 L21.688,52.834 C22.036,52.606 22.336,52.441 22.588,52.339 C22.84,52.237 23.152,52.186 23.524,52.186 C24.16,52.186 24.67,52.372 25.054,52.744 C25.438,53.116 25.63,53.644 25.63,54.328 C25.63,55.024 25.423,55.564 25.009,55.948 C24.595,56.332 24.064,56.524 23.416,56.524 C22.84,56.524 22.336,56.401 21.904,56.155 C21.472,55.909 21.082,55.624 20.734,55.3 L20.734,55.3 L19.78,56.632 C20.2,57.052 20.725,57.421 21.355,57.739 C21.985,58.057 22.762,58.216 23.686,58.216 Z M29.878,61.276 C30.778,60.964 31.471,60.484 31.957,59.836 C32.443,59.188 32.686,58.42 32.686,57.532 C32.686,56.86 32.551,56.338 32.281,55.966 C32.011,55.594 31.63,55.408 31.138,55.408 C30.754,55.408 30.427,55.525 30.157,55.759 C29.887,55.993 29.752,56.302 29.752,56.686 C29.752,57.094 29.887,57.409 30.157,57.631 C30.427,57.853 30.736,57.964 31.084,57.964 L31.084,57.964 L31.246,57.964 C31.258,58.42 31.105,58.84 30.787,59.224 C30.469,59.608 30.016,59.914 29.428,60.142 L29.428,60.142 L29.878,61.276 Z M38.14,58.216 C39.34,58.216 40.288,57.703 40.984,56.677 C41.68,55.651 42.028,54.166 42.028,52.222 C42.028,50.29 41.68,48.826 40.984,47.83 C40.288,46.834 39.34,46.336 38.14,46.336 C36.94,46.336 35.992,46.831 35.296,47.821 C34.6,48.811 34.252,50.278 34.252,52.222 C34.252,54.166 34.6,55.651 35.296,56.677 C35.992,57.703 36.94,58.216 38.14,58.216 Z M38.14,56.596 C37.864,56.596 37.609,56.521 37.375,56.371 C37.141,56.221 36.94,55.972 36.772,55.624 C36.604,55.276 36.472,54.826 36.376,54.274 C36.28,53.722 36.232,53.038 36.232,52.222 C36.232,51.418 36.28,50.743 36.376,50.197 C36.472,49.651 36.604,49.21 36.772,48.874 C36.94,48.538 37.141,48.301 37.375,48.163 C37.609,48.025 37.864,47.956 38.14,47.956 C38.416,47.956 38.671,48.025 38.905,48.163 C39.139,48.301 39.34,48.538 39.508,48.874 C39.676,49.21 39.808,49.651 39.904,50.197 C40,50.743 40.048,51.418 40.048,52.222 C40.048,53.038 40,53.722 39.904,54.274 C39.808,54.826 39.676,55.276 39.508,55.624 C39.34,55.972 39.139,56.221 38.905,56.371 C38.671,56.521 38.416,56.596 38.14,56.596 Z M47.374,58.216 C48.574,58.216 49.522,57.703 50.218,56.677 C50.914,55.651 51.262,54.166 51.262,52.222 C51.262,50.29 50.914,48.826 50.218,47.83 C49.522,46.834 48.574,46.336 47.374,46.336 C46.174,46.336 45.226,46.831 44.53,47.821 C43.834,48.811 43.486,50.278 43.486,52.222 C43.486,54.166 43.834,55.651 44.53,56.677 C45.226,57.703 46.174,58.216 47.374,58.216 Z M47.374,56.596 C47.098,56.596 46.843,56.521 46.609,56.371 C46.375,56.221 46.174,55.972 46.006,55.624 C45.838,55.276 45.706,54.826 45.61,54.274 C45.514,53.722 45.466,53.038 45.466,52.222 C45.466,51.418 45.514,50.743 45.61,50.197 C45.706,49.651 45.838,49.21 46.006,48.874 C46.174,48.538 46.375,48.301 46.609,48.163 C46.843,48.025 47.098,47.956 47.374,47.956 C47.65,47.956 47.905,48.025 48.139,48.163 C48.373,48.301 48.574,48.538 48.742,48.874 C48.91,49.21 49.042,49.651 49.138,50.197 C49.234,50.743 49.282,51.418 49.282,52.222 C49.282,53.038 49.234,53.722 49.138,54.274 C49.042,54.826 48.91,55.276 48.742,55.624 C48.574,55.972 48.373,56.221 48.139,56.371 C47.905,56.521 47.65,56.596 47.374,56.596 Z M56.608,58.216 C57.808,58.216 58.756,57.703 59.452,56.677 C60.148,55.651 60.496,54.166 60.496,52.222 C60.496,50.29 60.148,48.826 59.452,47.83 C58.756,46.834 57.808,46.336 56.608,46.336 C55.408,46.336 54.46,46.831 53.764,47.821 C53.068,48.811 52.72,50.278 52.72,52.222 C52.72,54.166 53.068,55.651 53.764,56.677 C54.46,57.703 55.408,58.216 56.608,58.216 Z M56.608,56.596 C56.332,56.596 56.077,56.521 55.843,56.371 C55.609,56.221 55.408,55.972 55.24,55.624 C55.072,55.276 54.94,54.826 54.844,54.274 C54.748,53.722 54.7,53.038 54.7,52.222 C54.7,51.418 54.748,50.743 54.844,50.197 C54.94,49.651 55.072,49.21 55.24,48.874 C55.408,48.538 55.609,48.301 55.843,48.163 C56.077,48.025 56.332,47.956 56.608,47.956 C56.884,47.956 57.139,48.025 57.373,48.163 C57.607,48.301 57.808,48.538 57.976,48.874 C58.144,49.21 58.276,49.651 58.372,50.197 C58.468,50.743 58.516,51.418 58.516,52.222 C58.516,53.038 58.468,53.722 58.372,54.274 C58.276,54.826 58.144,55.276 57.976,55.624 C57.808,55.972 57.607,56.221 57.373,56.371 C57.139,56.521 56.884,56.596 56.608,56.596 Z M62.53,61.276 C63.43,60.964 64.123,60.484 64.609,59.836 C65.095,59.188 65.338,58.42 65.338,57.532 C65.338,56.86 65.203,56.338 64.933,55.966 C64.663,55.594 64.282,55.408 63.79,55.408 C63.406,55.408 63.079,55.525 62.809,55.759 C62.539,55.993 62.404,56.302 62.404,56.686 C62.404,57.094 62.539,57.409 62.809,57.631 C63.079,57.853 63.388,57.964 63.736,57.964 L63.736,57.964 L63.898,57.964 C63.91,58.42 63.757,58.84 63.439,59.224 C63.121,59.608 62.668,59.914 62.08,60.142 L62.08,60.142 L62.53,61.276 Z M70.792,58.216 C71.992,58.216 72.94,57.703 73.636,56.677 C74.332,55.651 74.68,54.166 74.68,52.222 C74.68,50.29 74.332,48.826 73.636,47.83 C72.94,46.834 71.992,46.336 70.792,46.336 C69.592,46.336 68.644,46.831 67.948,47.821 C67.252,48.811 66.904,50.278 66.904,52.222 C66.904,54.166 67.252,55.651 67.948,56.677 C68.644,57.703 69.592,58.216 70.792,58.216 Z M70.792,56.596 C70.516,56.596 70.261,56.521 70.027,56.371 C69.793,56.221 69.592,55.972 69.424,55.624 C69.256,55.276 69.124,54.826 69.028,54.274 C68.932,53.722 68.884,53.038 68.884,52.222 C68.884,51.418 68.932,50.743 69.028,50.197 C69.124,49.651 69.256,49.21 69.424,48.874 C69.592,48.538 69.793,48.301 70.027,48.163 C70.261,48.025 70.516,47.956 70.792,47.956 C71.068,47.956 71.323,48.025 71.557,48.163 C71.791,48.301 71.992,48.538 72.16,48.874 C72.328,49.21 72.46,49.651 72.556,50.197 C72.652,50.743 72.7,51.418 72.7,52.222 C72.7,53.038 72.652,53.722 72.556,54.274 C72.46,54.826 72.328,55.276 72.16,55.624 C71.992,55.972 71.791,56.221 71.557,56.371 C71.323,56.521 71.068,56.596 70.792,56.596 Z M80.026,58.216 C81.226,58.216 82.174,57.703 82.87,56.677 C83.566,55.651 83.914,54.166 83.914,52.222 C83.914,50.29 83.566,48.826 82.87,47.83 C82.174,46.834 81.226,46.336 80.026,46.336 C78.826,46.336 77.878,46.831 77.182,47.821 C76.486,48.811 76.138,50.278 76.138,52.222 C76.138,54.166 76.486,55.651 77.182,56.677 C77.878,57.703 78.826,58.216 80.026,58.216 Z M80.026,56.596 C79.75,56.596 79.495,56.521 79.261,56.371 C79.027,56.221 78.826,55.972 78.658,55.624 C78.49,55.276 78.358,54.826 78.262,54.274 C78.166,53.722 78.118,53.038 78.118,52.222 C78.118,51.418 78.166,50.743 78.262,50.197 C78.358,49.651 78.49,49.21 78.658,48.874 C78.826,48.538 79.027,48.301 79.261,48.163 C79.495,48.025 79.75,47.956 80.026,47.956 C80.302,47.956 80.557,48.025 80.791,48.163 C81.025,48.301 81.226,48.538 81.394,48.874 C81.562,49.21 81.694,49.651 81.79,50.197 C81.886,50.743 81.934,51.418 81.934,52.222 C81.934,53.038 81.886,53.722 81.79,54.274 C81.694,54.826 81.562,55.276 81.394,55.624 C81.226,55.972 81.025,56.221 80.791,56.371 C80.557,56.521 80.302,56.596 80.026,56.596 Z M89.26,58.216 C90.46,58.216 91.408,57.703 92.104,56.677 C92.8,55.651 93.148,54.166 93.148,52.222 C93.148,50.29 92.8,48.826 92.104,47.83 C91.408,46.834 90.46,46.336 89.26,46.336 C88.06,46.336 87.112,46.831 86.416,47.821 C85.72,48.811 85.372,50.278 85.372,52.222 C85.372,54.166 85.72,55.651 86.416,56.677 C87.112,57.703 88.06,58.216 89.26,58.216 Z M89.26,56.596 C88.984,56.596 88.729,56.521 88.495,56.371 C88.261,56.221 88.06,55.972 87.892,55.624 C87.724,55.276 87.592,54.826 87.496,54.274 C87.4,53.722 87.352,53.038 87.352,52.222 C87.352,51.418 87.4,50.743 87.496,50.197 C87.592,49.651 87.724,49.21 87.892,48.874 C88.06,48.538 88.261,48.301 88.495,48.163 C88.729,48.025 88.984,47.956 89.26,47.956 C89.536,47.956 89.791,48.025 90.025,48.163 C90.259,48.301 90.46,48.538 90.628,48.874 C90.796,49.21 90.928,49.651 91.024,50.197 C91.12,50.743 91.168,51.418 91.168,52.222 C91.168,53.038 91.12,53.722 91.024,54.274 C90.928,54.826 90.796,55.276 90.628,55.624 C90.46,55.972 90.259,56.221 90.025,56.371 C89.791,56.521 89.536,56.596 89.26,56.596 Z" id="65,000,000" fill="#FFFFFF" fill-rule="nonzero"></path>
                </g>
            </g>
        </g>
    </g>
</svg>