<?xml version="1.0" encoding="UTF-8"?>
<svg width="611px" height="339px" viewBox="0 0 611 339" version="1.1" xmlns="http://www.w3.org/2000/svg" xmlns:xlink="http://www.w3.org/1999/xlink">
    <title>AFG - Revenue Overview</title>
    <g id="AFG---Revenue-Overview" stroke="none" stroke-width="1" fill="none" fill-rule="evenodd" transform="translate(0.000000, 0.000000)">
        <g id="overview/viz/revenue">
            <g id="Group-9">
                <g id="graph-lines" transform="translate(51.000000, 7.000000)">
                    <polygon id="Rectangle-16" fill="#FAFAFA" fill-rule="nonzero" points="0 253 560 253 560 294 0 294"></polygon>
                    <polygon id="Rectangle-16" fill="#FAFAFA" fill-rule="nonzero" points="0 173 560 173 560 214 0 214"></polygon>
                    <polygon id="Rectangle-16" fill="#FAFAFA" fill-rule="nonzero" points="0 93 560 93 560 134 0 134"></polygon>
                    <polygon id="Rectangle-16" fill="#FAFAFA" fill-rule="nonzero" points="0 13 560 13 560 54 0 54"></polygon>
                    <rect id="Rectangle-Copy-7" fill="#EAEAEA" x="0" y="13" width="560" height="1"></rect>
                    <rect id="Rectangle-Copy-8" fill="#EAEAEA" x="0" y="53" width="560" height="1"></rect>
                    <rect id="Rectangle-Copy-9" fill="#EAEAEA" x="0" y="93" width="560" height="1"></rect>
                    <rect id="Rectangle-Copy-10" fill="#EAEAEA" x="0" y="133" width="560" height="1"></rect>
                    <rect id="Rectangle-Copy-11" fill="#EAEAEA" x="0" y="173" width="560" height="1"></rect>
                    <rect id="Rectangle-Copy-12" fill="#EAEAEA" x="0" y="213" width="560" height="1"></rect>
                    <rect id="Rectangle-Copy-13" fill="#EAEAEA" x="0" y="253" width="560" height="1"></rect>
                    <rect id="Rectangle" fill="#7D7D7D" x="0" y="294" width="560" height="1" rx="0.5"></rect>
                    <rect id="Rectangle" fill="#7D7D7D" x="0" y="0" width="1" height="295" rx="0.5"></rect>
                </g>
                <g id="y" fill="#666666" font-family="SourceSansPro-Regular, Source Sans Pro" font-size="15" font-weight="normal" line-spacing="40">
                    <text id="$-7.0-T-$-6.0-T-$-5.">
                        <tspan x="0.86" y="15">$ 7.0 T</tspan>
                        <tspan x="0.86" y="55">$ 6.0 T</tspan>
                        <tspan x="0.86" y="95">$ 5.0 T</tspan>
                        <tspan x="0.86" y="135">$ 4.0 T</tspan>
                        <tspan x="0.86" y="175">$ 3.0 T</tspan>
                        <tspan x="0.86" y="215">$ 2.0 T</tspan>
                        <tspan x="0.86" y="255">$ 1.0 T</tspan>
                        <tspan x="23.09" y="295">$ 0</tspan>
                    </text>
                </g>
                <g id="x" transform="translate(104.000000, 301.000000)" fill="#666666">
                    <text id="2020" font-family="SourceSansPro-SemiBold, Source Sans Pro" font-size="30" font-weight="500">
                        <tspan x="408" y="30">2020</tspan>
                    </text>
                    <text id="2018" font-family="SourceSansPro-Regular, Source Sans Pro" font-size="15" font-weight="normal">
                        <tspan x="212" y="26">2018</tspan>
                    </text>
                    <text id="2019" font-family="SourceSansPro-Regular, Source Sans Pro" font-size="15" font-weight="normal">
                        <tspan x="318" y="26">2019</tspan>
                    </text>
                    <text id="2017" font-family="SourceSansPro-Regular, Source Sans Pro" font-size="15" font-weight="normal">
                        <tspan x="106" y="26">2017</tspan>
                    </text>
                    <text id="2016" font-family="SourceSansPro-Regular, Source Sans Pro" font-size="15" font-weight="normal">
                        <tspan x="0" y="26">2016</tspan>
                    </text>
                </g>
            </g>
            <g id="data" transform="translate(94.000000, 160.000000)" fill="#0A2F5A" fill-rule="nonzero">
                <path d="M427,2 L471,2 C472.656854,2 474,3.34314575 474,5 L474,141 L474,141 L424,141 L424,5 C424,3.34314575 425.343146,2 427,2 Z" id="Rectangle-2-Copy"></path>
                <path d="M3,12 L47,12 C48.6568542,12 50,13.3431458 50,15 L50,141 L50,141 L0,141 L0,15 C-2.02906125e-16,13.3431458 1.34314575,12 3,12 Z" id="Rectangle-2"></path>
                <path d="M109,8 L153,8 C154.656854,8 156,9.34314575 156,11 L156,141 L156,141 L106,141 L106,11 C106,9.34314575 107.343146,8 109,8 Z" id="Rectangle-2"></path>
                <path d="M215,6 L259,6 C260.656854,6 262,7.34314575 262,9 L262,141 L262,141 L212,141 L212,9 C212,7.34314575 213.343146,6 215,6 Z" id="Rectangle-2"></path>
                <path d="M321,0 L365,0 C366.656854,-3.04359188e-16 368,1.34314575 368,3 L368,141 L368,141 L318,141 L318,3 C318,1.34314575 319.343146,3.04359188e-16 321,0 Z" id="Rectangle-2-Copy"></path>
            </g>
        </g>
    </g>
</svg>