<?xml version="1.0" encoding="UTF-8"?>
<svg width="293px" height="84px" viewBox="0 0 293 84" version="1.1" xmlns="http://www.w3.org/2000/svg" xmlns:xlink="http://www.w3.org/1999/xlink">
    <title>anecdote-revenue-4</title>
    <g id="02.-Anecdote-Cards" stroke="none" stroke-width="1" fill="none" fill-rule="evenodd">
        <g id="Anecdote-Cards-(Desktop/Tablet)---SVG" transform="translate(-1630.000000, -297.000000)">
            <g id="anecdote-revenue-4" transform="translate(1631.000000, 298.000000)">
                <g id="Group-18">
                    <polygon id="Fill-1" fill="#0A2F5A" points="0 7.8962963 0 82 47 82 47 7.8962963 35.7832069 0"></polygon>
                    <polygon id="Stroke-2" stroke="#FFFFFF" points="47 82 0 82 0 7.8962963 35.7848276 0 47 7.8962963"></polygon>
                    <polygon id="Fill-4" fill="#0A2F5A" points="23 34.238401 23 82 49 82 49 23"></polygon>
                    <polygon id="Stroke-5" stroke="#FFFFFF" points="49 82 23 82 23 34.2380952 49 23"></polygon>
                    <polygon id="Fill-7" fill="#0A2F5A" points="48 82 118 82 118 34.2397007 48 23"></polygon>
                    <polygon id="Stroke-8" stroke="#FFFFFF" points="48 82 118 82 118 34.2380952 48 23"></polygon>
                    <polygon id="Fill-10" fill="#FFFFFF" points="7 24 17 24 17 14 7 14"></polygon>
                    <polygon id="Fill-11" fill="#FFFFFF" points="7 39 17 39 17 29 7 29"></polygon>
                    <polygon id="Fill-12" fill="#FFFFFF" points="7 53 17 53 17 43 7 43"></polygon>
                    <polygon id="Fill-13" fill="#FFFFFF" points="7 66 17 66 17 56 7 56"></polygon>
                    <polygon id="Fill-14" fill="#FFFFFF" points="54 34.3090621 114 44 114 40.6830101 54 31"></polygon>
                    <polygon id="Fill-15" fill="#FFFFFF" points="54 44.3090621 114 54 114 50.6830101 54 41"></polygon>
                    <polygon id="Fill-16" fill="#FFFFFF" points="54 53.3090621 114 63 114 59.6830101 54 50"></polygon>
                    <polygon id="Fill-17" fill="#FFFFFF" points="54 62.3086585 114 72 114 68.6818293 54 59"></polygon>
                </g>
                <path d="M140.944,49 L140.944,35.656 L145.48,35.656 L145.48,33.304 L133.624,33.304 L133.624,35.656 L138.16,35.656 L138.16,49 L140.944,49 Z M150.976,49.288 C151.712,49.288 152.42,49.152 153.1,48.88 C153.78,48.608 154.376,48.208 154.888,47.68 C155.4,47.152 155.812,46.504 156.124,45.736 C156.436,44.968 156.592,44.096 156.592,43.12 C156.592,42.144 156.436,41.272 156.124,40.504 C155.812,39.736 155.4,39.088 154.888,38.56 C154.376,38.032 153.78,37.628 153.1,37.348 C152.42,37.068 151.712,36.928 150.976,36.928 C150.24,36.928 149.536,37.068 148.864,37.348 C148.192,37.628 147.596,38.032 147.076,38.56 C146.556,39.088 146.144,39.736 145.84,40.504 C145.536,41.272 145.384,42.144 145.384,43.12 C145.384,44.096 145.536,44.968 145.84,45.736 C146.144,46.504 146.556,47.152 147.076,47.68 C147.596,48.208 148.192,48.608 148.864,48.88 C149.536,49.152 150.24,49.288 150.976,49.288 Z M150.976,47.032 C150.112,47.032 149.436,46.676 148.948,45.964 C148.46,45.252 148.216,44.304 148.216,43.12 C148.216,41.92 148.46,40.964 148.948,40.252 C149.436,39.54 150.112,39.184 150.976,39.184 C151.84,39.184 152.52,39.54 153.016,40.252 C153.512,40.964 153.76,41.92 153.76,43.12 C153.76,44.304 153.512,45.252 153.016,45.964 C152.52,46.676 151.84,47.032 150.976,47.032 Z M162.088,53.656 L162.088,49.96 L162.016,47.992 C162.496,48.408 162.992,48.728 163.504,48.952 C164.016,49.176 164.528,49.288 165.04,49.288 C165.696,49.288 166.328,49.144 166.936,48.856 C167.544,48.568 168.08,48.156 168.544,47.62 C169.008,47.084 169.38,46.42 169.66,45.628 C169.94,44.836 170.08,43.936 170.08,42.928 C170.08,42.016 169.976,41.192 169.768,40.456 C169.56,39.72 169.256,39.088 168.856,38.56 C168.456,38.032 167.972,37.628 167.404,37.348 C166.836,37.068 166.184,36.928 165.448,36.928 C164.792,36.928 164.16,37.08 163.552,37.384 C162.944,37.688 162.392,38.048 161.896,38.464 L161.896,38.464 L161.8,38.464 L161.608,37.216 L159.328,37.216 L159.328,53.656 L162.088,53.656 Z M164.464,47.008 C164.112,47.008 163.736,46.936 163.336,46.792 C162.936,46.648 162.52,46.392 162.088,46.024 L162.088,46.024 L162.088,40.528 C162.984,39.648 163.848,39.208 164.68,39.208 C165.576,39.208 166.224,39.536 166.624,40.192 C167.024,40.848 167.224,41.768 167.224,42.952 C167.224,44.296 166.96,45.308 166.432,45.988 C165.904,46.668 165.248,47.008 164.464,47.008 Z M186.88,49 L186.88,46.744 L183.88,46.744 L183.88,33.736 L181.816,33.736 C181.336,34.024 180.82,34.268 180.268,34.468 C179.716,34.668 179.056,34.84 178.288,34.984 L178.288,34.984 L178.288,36.712 L181.096,36.712 L181.096,46.744 L177.688,46.744 L177.688,49 L186.88,49 Z M194.824,49.288 C195.48,49.288 196.1,49.168 196.684,48.928 C197.268,48.688 197.776,48.352 198.208,47.92 C198.64,47.488 198.984,46.964 199.24,46.348 C199.496,45.732 199.624,45.04 199.624,44.272 C199.624,43.472 199.516,42.776 199.3,42.184 C199.084,41.592 198.78,41.1 198.388,40.708 C197.996,40.316 197.524,40.024 196.972,39.832 C196.42,39.64 195.816,39.544 195.16,39.544 C194.6,39.544 194.02,39.704 193.42,40.024 C192.82,40.344 192.296,40.784 191.848,41.344 C191.88,40.288 191.996,39.4 192.196,38.68 C192.396,37.96 192.656,37.38 192.976,36.94 C193.296,36.5 193.668,36.184 194.092,35.992 C194.516,35.8 194.968,35.704 195.448,35.704 C195.912,35.704 196.364,35.812 196.804,36.028 C197.244,36.244 197.6,36.52 197.872,36.856 L197.872,36.856 L199.36,35.176 C198.896,34.696 198.332,34.288 197.668,33.952 C197.004,33.616 196.208,33.448 195.28,33.448 C194.496,33.448 193.744,33.608 193.024,33.928 C192.304,34.248 191.668,34.744 191.116,35.416 C190.564,36.088 190.12,36.952 189.784,38.008 C189.448,39.064 189.28,40.336 189.28,41.824 C189.28,43.104 189.428,44.216 189.724,45.16 C190.02,46.104 190.42,46.88 190.924,47.488 C191.428,48.096 192.016,48.548 192.688,48.844 C193.36,49.14 194.072,49.288 194.824,49.288 Z M194.776,47.176 C194.024,47.176 193.396,46.872 192.892,46.264 C192.388,45.656 192.064,44.672 191.92,43.312 C192.352,42.672 192.808,42.22 193.288,41.956 C193.768,41.692 194.224,41.56 194.656,41.56 C195.424,41.56 196.016,41.784 196.432,42.232 C196.848,42.68 197.056,43.36 197.056,44.272 C197.056,45.216 196.836,45.936 196.396,46.432 C195.956,46.928 195.416,47.176 194.776,47.176 Z M210.112,49 L210.112,42.448 L215.824,42.448 L215.824,40.096 L210.112,40.096 L210.112,35.656 L216.808,35.656 L216.808,33.304 L207.328,33.304 L207.328,49 L210.112,49 Z M223.768,49.288 C224.504,49.288 225.212,49.152 225.892,48.88 C226.572,48.608 227.168,48.208 227.68,47.68 C228.192,47.152 228.604,46.504 228.916,45.736 C229.228,44.968 229.384,44.096 229.384,43.12 C229.384,42.144 229.228,41.272 228.916,40.504 C228.604,39.736 228.192,39.088 227.68,38.56 C227.168,38.032 226.572,37.628 225.892,37.348 C225.212,37.068 224.504,36.928 223.768,36.928 C223.032,36.928 222.328,37.068 221.656,37.348 C220.984,37.628 220.388,38.032 219.868,38.56 C219.348,39.088 218.936,39.736 218.632,40.504 C218.328,41.272 218.176,42.144 218.176,43.12 C218.176,44.096 218.328,44.968 218.632,45.736 C218.936,46.504 219.348,47.152 219.868,47.68 C220.388,48.208 220.984,48.608 221.656,48.88 C222.328,49.152 223.032,49.288 223.768,49.288 Z M223.768,47.032 C222.904,47.032 222.228,46.676 221.74,45.964 C221.252,45.252 221.008,44.304 221.008,43.12 C221.008,41.92 221.252,40.964 221.74,40.252 C222.228,39.54 222.904,39.184 223.768,39.184 C224.632,39.184 225.312,39.54 225.808,40.252 C226.304,40.964 226.552,41.92 226.552,43.12 C226.552,44.304 226.304,45.252 225.808,45.964 C225.312,46.676 224.632,47.032 223.768,47.032 Z M234.88,49 L234.88,41.8 C235.248,40.904 235.688,40.276 236.2,39.916 C236.712,39.556 237.2,39.376 237.664,39.376 C237.92,39.376 238.136,39.392 238.312,39.424 C238.488,39.456 238.68,39.504 238.888,39.568 L238.888,39.568 L239.368,37.168 C239.032,37.008 238.584,36.928 238.024,36.928 C237.4,36.928 236.792,37.132 236.2,37.54 C235.608,37.948 235.104,38.536 234.688,39.304 L234.688,39.304 L234.592,39.304 L234.4,37.216 L232.12,37.216 L232.12,49 L234.88,49 Z M245.224,49.288 C245.688,49.288 246.124,49.244 246.532,49.156 C246.94,49.068 247.304,48.968 247.624,48.856 L247.624,48.856 L247.144,46.816 C246.968,46.896 246.772,46.96 246.556,47.008 C246.34,47.056 246.128,47.08 245.92,47.08 C244.816,47.08 244.264,46.392 244.264,45.016 L244.264,45.016 L244.264,39.4 L247.264,39.4 L247.264,37.216 L244.264,37.216 L244.264,34 L241.96,34 L241.624,37.216 L239.8,37.336 L239.8,39.4 L241.48,39.4 L241.48,45.016 C241.48,45.656 241.548,46.236 241.684,46.756 C241.82,47.276 242.036,47.724 242.332,48.1 C242.628,48.476 243.012,48.768 243.484,48.976 C243.956,49.184 244.536,49.288 245.224,49.288 Z M253.24,49.288 C254.056,49.288 254.764,49.104 255.364,48.736 C255.964,48.368 256.52,47.88 257.032,47.272 L257.032,47.272 L257.104,47.272 L257.32,49 L259.576,49 L259.576,37.216 L256.816,37.216 L256.816,45.28 C256.368,45.856 255.948,46.272 255.556,46.528 C255.164,46.784 254.712,46.912 254.2,46.912 C253.56,46.912 253.096,46.712 252.808,46.312 C252.52,45.912 252.376,45.224 252.376,44.248 L252.376,44.248 L252.376,37.216 L249.616,37.216 L249.616,44.608 C249.616,46.112 249.904,47.268 250.48,48.076 C251.056,48.884 251.976,49.288 253.24,49.288 Z M265.84,49 L265.84,40.768 C266.336,40.288 266.78,39.924 267.172,39.676 C267.564,39.428 268.016,39.304 268.528,39.304 C269.184,39.304 269.656,39.504 269.944,39.904 C270.232,40.304 270.376,40.992 270.376,41.968 L270.376,41.968 L270.376,49 L273.136,49 L273.136,41.608 C273.136,40.104 272.848,38.948 272.272,38.14 C271.696,37.332 270.776,36.928 269.512,36.928 C268.696,36.928 267.98,37.112 267.364,37.48 C266.748,37.848 266.176,38.288 265.648,38.8 L265.648,38.8 L265.552,38.8 L265.36,37.216 L263.08,37.216 L263.08,49 L265.84,49 Z M281.56,49.288 C282.312,49.288 283.032,49.168 283.72,48.928 C284.408,48.688 285.032,48.384 285.592,48.016 L285.592,48.016 L284.656,46.288 C284.224,46.56 283.788,46.772 283.348,46.924 C282.908,47.076 282.432,47.152 281.92,47.152 C280.96,47.152 280.172,46.868 279.556,46.3 C278.94,45.732 278.568,44.92 278.44,43.864 L278.44,43.864 L285.928,43.864 C285.96,43.72 285.988,43.528 286.012,43.288 C286.036,43.048 286.048,42.792 286.048,42.52 C286.048,41.704 285.944,40.952 285.736,40.264 C285.528,39.576 285.22,38.984 284.812,38.488 C284.404,37.992 283.896,37.608 283.288,37.336 C282.68,37.064 281.976,36.928 281.176,36.928 C280.488,36.928 279.816,37.072 279.16,37.36 C278.504,37.648 277.924,38.056 277.42,38.584 C276.916,39.112 276.512,39.76 276.208,40.528 C275.904,41.296 275.752,42.16 275.752,43.12 C275.752,44.096 275.9,44.964 276.196,45.724 C276.492,46.484 276.904,47.128 277.432,47.656 C277.96,48.184 278.576,48.588 279.28,48.868 C279.984,49.148 280.744,49.288 281.56,49.288 Z M283.648,41.992 L278.416,41.992 C278.544,41.032 278.872,40.304 279.4,39.808 C279.928,39.312 280.544,39.064 281.248,39.064 C282.064,39.064 282.668,39.324 283.06,39.844 C283.452,40.364 283.648,41.08 283.648,41.992 L283.648,41.992 Z M138.784,77.288 C139.488,77.288 140.164,77.172 140.812,76.94 C141.46,76.708 142.032,76.368 142.528,75.92 C143.024,75.472 143.42,74.92 143.716,74.264 C144.012,73.608 144.16,72.864 144.16,72.032 C144.16,71.216 144.032,70.508 143.776,69.908 C143.52,69.308 143.176,68.812 142.744,68.42 C142.312,68.028 141.804,67.736 141.22,67.544 C140.636,67.352 140.016,67.256 139.36,67.256 C138.96,67.256 138.604,67.3 138.292,67.388 C137.98,67.476 137.664,67.6 137.344,67.76 L137.344,67.76 L137.656,64.064 L143.416,64.064 L143.416,61.736 L135.256,61.736 L134.8,69.272 L136.12,70.112 C136.584,69.808 136.984,69.588 137.32,69.452 C137.656,69.316 138.072,69.248 138.568,69.248 C139.416,69.248 140.096,69.496 140.608,69.992 C141.12,70.488 141.376,71.192 141.376,72.104 C141.376,73.032 141.1,73.752 140.548,74.264 C139.996,74.776 139.288,75.032 138.424,75.032 C137.656,75.032 136.984,74.868 136.408,74.54 C135.832,74.212 135.312,73.832 134.848,73.4 L134.848,73.4 L133.576,75.176 C134.136,75.736 134.836,76.228 135.676,76.652 C136.516,77.076 137.552,77.288 138.784,77.288 Z M151.456,77.288 C153.056,77.288 154.32,76.604 155.248,75.236 C156.176,73.868 156.64,71.888 156.64,69.296 C156.64,66.72 156.176,64.768 155.248,63.44 C154.32,62.112 153.056,61.448 151.456,61.448 C149.856,61.448 148.592,62.108 147.664,63.428 C146.736,64.748 146.272,66.704 146.272,69.296 C146.272,71.888 146.736,73.868 147.664,75.236 C148.592,76.604 149.856,77.288 151.456,77.288 Z M151.456,75.128 C151.088,75.128 150.748,75.028 150.436,74.828 C150.124,74.628 149.856,74.296 149.632,73.832 C149.408,73.368 149.232,72.768 149.104,72.032 C148.976,71.296 148.912,70.384 148.912,69.296 C148.912,68.224 148.976,67.324 149.104,66.596 C149.232,65.868 149.408,65.28 149.632,64.832 C149.856,64.384 150.124,64.068 150.436,63.884 C150.748,63.7 151.088,63.608 151.456,63.608 C151.824,63.608 152.164,63.7 152.476,63.884 C152.788,64.068 153.056,64.384 153.28,64.832 C153.504,65.28 153.68,65.868 153.808,66.596 C153.936,67.324 154,68.224 154,69.296 C154,70.384 153.936,71.296 153.808,72.032 C153.68,72.768 153.504,73.368 153.28,73.832 C153.056,74.296 152.788,74.628 152.476,74.828 C152.164,75.028 151.824,75.128 151.456,75.128 Z M163.768,77.288 C165.368,77.288 166.632,76.604 167.56,75.236 C168.488,73.868 168.952,71.888 168.952,69.296 C168.952,66.72 168.488,64.768 167.56,63.44 C166.632,62.112 165.368,61.448 163.768,61.448 C162.168,61.448 160.904,62.108 159.976,63.428 C159.048,64.748 158.584,66.704 158.584,69.296 C158.584,71.888 159.048,73.868 159.976,75.236 C160.904,76.604 162.168,77.288 163.768,77.288 Z M163.768,75.128 C163.4,75.128 163.06,75.028 162.748,74.828 C162.436,74.628 162.168,74.296 161.944,73.832 C161.72,73.368 161.544,72.768 161.416,72.032 C161.288,71.296 161.224,70.384 161.224,69.296 C161.224,68.224 161.288,67.324 161.416,66.596 C161.544,65.868 161.72,65.28 161.944,64.832 C162.168,64.384 162.436,64.068 162.748,63.884 C163.06,63.7 163.4,63.608 163.768,63.608 C164.136,63.608 164.476,63.7 164.788,63.884 C165.1,64.068 165.368,64.384 165.592,64.832 C165.816,65.28 165.992,65.868 166.12,66.596 C166.248,67.324 166.312,68.224 166.312,69.296 C166.312,70.384 166.248,71.296 166.12,72.032 C165.992,72.768 165.816,73.368 165.592,73.832 C165.368,74.296 165.1,74.628 164.788,74.828 C164.476,75.028 164.136,75.128 163.768,75.128 Z M182.992,77.288 C184,77.288 184.916,77.092 185.74,76.7 C186.564,76.308 187.296,75.744 187.936,75.008 L187.936,75.008 L186.448,73.256 C186,73.736 185.504,74.124 184.96,74.42 C184.416,74.716 183.792,74.864 183.088,74.864 C181.76,74.864 180.708,74.356 179.932,73.34 C179.156,72.324 178.768,70.92 178.768,69.128 C178.768,68.248 178.876,67.456 179.092,66.752 C179.308,66.048 179.612,65.452 180.004,64.964 C180.396,64.476 180.86,64.1 181.396,63.836 C181.932,63.572 182.52,63.44 183.16,63.44 C183.768,63.44 184.312,63.564 184.792,63.812 C185.272,64.06 185.72,64.392 186.136,64.808 L186.136,64.808 L187.624,63.008 C187.128,62.48 186.496,62.016 185.728,61.616 C184.96,61.216 184.08,61.016 183.088,61.016 C182.096,61.016 181.164,61.2 180.292,61.568 C179.42,61.936 178.66,62.472 178.012,63.176 C177.364,63.88 176.852,64.74 176.476,65.756 C176.1,66.772 175.912,67.92 175.912,69.2 C175.912,70.496 176.096,71.648 176.464,72.656 C176.832,73.664 177.332,74.512 177.964,75.2 C178.596,75.888 179.344,76.408 180.208,76.76 C181.072,77.112 182,77.288 182.992,77.288 Z M195.136,77.288 C195.872,77.288 196.58,77.152 197.26,76.88 C197.94,76.608 198.536,76.208 199.048,75.68 C199.56,75.152 199.972,74.504 200.284,73.736 C200.596,72.968 200.752,72.096 200.752,71.12 C200.752,70.144 200.596,69.272 200.284,68.504 C199.972,67.736 199.56,67.088 199.048,66.56 C198.536,66.032 197.94,65.628 197.26,65.348 C196.58,65.068 195.872,64.928 195.136,64.928 C194.4,64.928 193.696,65.068 193.024,65.348 C192.352,65.628 191.756,66.032 191.236,66.56 C190.716,67.088 190.304,67.736 190,68.504 C189.696,69.272 189.544,70.144 189.544,71.12 C189.544,72.096 189.696,72.968 190,73.736 C190.304,74.504 190.716,75.152 191.236,75.68 C191.756,76.208 192.352,76.608 193.024,76.88 C193.696,77.152 194.4,77.288 195.136,77.288 Z M195.136,75.032 C194.272,75.032 193.596,74.676 193.108,73.964 C192.62,73.252 192.376,72.304 192.376,71.12 C192.376,69.92 192.62,68.964 193.108,68.252 C193.596,67.54 194.272,67.184 195.136,67.184 C196,67.184 196.68,67.54 197.176,68.252 C197.672,68.964 197.92,69.92 197.92,71.12 C197.92,72.304 197.672,73.252 197.176,73.964 C196.68,74.676 196,75.032 195.136,75.032 Z M206.248,77 L206.248,68.768 C207.16,67.792 207.984,67.304 208.72,67.304 C209.344,67.304 209.804,67.504 210.1,67.904 C210.396,68.304 210.544,68.992 210.544,69.968 L210.544,69.968 L210.544,77 L213.304,77 L213.304,68.768 C214.216,67.792 215.04,67.304 215.776,67.304 C216.384,67.304 216.836,67.504 217.132,67.904 C217.428,68.304 217.576,68.992 217.576,69.968 L217.576,69.968 L217.576,77 L220.36,77 L220.36,69.608 C220.36,68.104 220.064,66.948 219.472,66.14 C218.88,65.332 217.96,64.928 216.712,64.928 C215.96,64.928 215.28,65.128 214.672,65.528 C214.064,65.928 213.48,66.432 212.92,67.04 C212.648,66.368 212.252,65.848 211.732,65.48 C211.212,65.112 210.52,64.928 209.656,64.928 C208.92,64.928 208.26,65.112 207.676,65.48 C207.092,65.848 206.552,66.296 206.056,66.824 L206.056,66.824 L205.96,66.824 L205.768,65.216 L203.488,65.216 L203.488,77 L206.248,77 Z M226.48,81.656 L226.48,77.96 L226.408,75.992 C226.888,76.408 227.384,76.728 227.896,76.952 C228.408,77.176 228.92,77.288 229.432,77.288 C230.088,77.288 230.72,77.144 231.328,76.856 C231.936,76.568 232.472,76.156 232.936,75.62 C233.4,75.084 233.772,74.42 234.052,73.628 C234.332,72.836 234.472,71.936 234.472,70.928 C234.472,70.016 234.368,69.192 234.16,68.456 C233.952,67.72 233.648,67.088 233.248,66.56 C232.848,66.032 232.364,65.628 231.796,65.348 C231.228,65.068 230.576,64.928 229.84,64.928 C229.184,64.928 228.552,65.08 227.944,65.384 C227.336,65.688 226.784,66.048 226.288,66.464 L226.288,66.464 L226.192,66.464 L226,65.216 L223.72,65.216 L223.72,81.656 L226.48,81.656 Z M228.856,75.008 C228.504,75.008 228.128,74.936 227.728,74.792 C227.328,74.648 226.912,74.392 226.48,74.024 L226.48,74.024 L226.48,68.528 C227.376,67.648 228.24,67.208 229.072,67.208 C229.968,67.208 230.616,67.536 231.016,68.192 C231.416,68.848 231.616,69.768 231.616,70.952 C231.616,72.296 231.352,73.308 230.824,73.988 C230.296,74.668 229.64,75.008 228.856,75.008 Z M239.824,77.288 C240.528,77.288 241.18,77.136 241.78,76.832 C242.38,76.528 242.944,76.152 243.472,75.704 L243.472,75.704 L243.568,75.704 L243.76,77 L246.04,77 L246.04,70.016 C246.04,68.368 245.676,67.108 244.948,66.236 C244.22,65.364 243.12,64.928 241.648,64.928 C240.704,64.928 239.824,65.08 239.008,65.384 C238.192,65.688 237.456,66.048 236.8,66.464 L236.8,66.464 L237.808,68.312 C238.336,67.992 238.876,67.72 239.428,67.496 C239.98,67.272 240.544,67.16 241.12,67.16 C241.52,67.16 241.856,67.22 242.128,67.34 C242.4,67.46 242.62,67.628 242.788,67.844 C242.956,68.06 243.076,68.308 243.148,68.588 C243.22,68.868 243.264,69.16 243.28,69.464 C242.064,69.592 241.02,69.776 240.148,70.016 C239.276,70.256 238.556,70.552 237.988,70.904 C237.42,71.256 237.004,71.676 236.74,72.164 C236.476,72.652 236.344,73.208 236.344,73.832 C236.344,74.872 236.664,75.708 237.304,76.34 C237.944,76.972 238.784,77.288 239.824,77.288 Z M240.712,75.128 C240.216,75.128 239.808,75.008 239.488,74.768 C239.168,74.528 239.008,74.144 239.008,73.616 C239.008,73.328 239.08,73.056 239.224,72.8 C239.368,72.544 239.608,72.316 239.944,72.116 C240.28,71.916 240.72,71.736 241.264,71.576 C241.808,71.416 242.48,71.288 243.28,71.192 L243.28,71.192 L243.28,73.832 C242.832,74.248 242.412,74.568 242.02,74.792 C241.628,75.016 241.192,75.128 240.712,75.128 Z M252.112,77 L252.112,68.768 C252.608,68.288 253.052,67.924 253.444,67.676 C253.836,67.428 254.288,67.304 254.8,67.304 C255.456,67.304 255.928,67.504 256.216,67.904 C256.504,68.304 256.648,68.992 256.648,69.968 L256.648,69.968 L256.648,77 L259.408,77 L259.408,69.608 C259.408,68.104 259.12,66.948 258.544,66.14 C257.968,65.332 257.048,64.928 255.784,64.928 C254.968,64.928 254.252,65.112 253.636,65.48 C253.02,65.848 252.448,66.288 251.92,66.8 L251.92,66.8 L251.824,66.8 L251.632,65.216 L249.352,65.216 L249.352,77 L252.112,77 Z M264.184,63.152 C264.68,63.152 265.088,63.008 265.408,62.72 C265.728,62.432 265.888,62.056 265.888,61.592 C265.888,61.128 265.728,60.748 265.408,60.452 C265.088,60.156 264.68,60.008 264.184,60.008 C263.688,60.008 263.28,60.156 262.96,60.452 C262.64,60.748 262.48,61.128 262.48,61.592 C262.48,62.056 262.64,62.432 262.96,62.72 C263.28,63.008 263.688,63.152 264.184,63.152 Z M265.552,77 L265.552,65.216 L262.792,65.216 L262.792,77 L265.552,77 Z M274.12,77.288 C274.872,77.288 275.592,77.168 276.28,76.928 C276.968,76.688 277.592,76.384 278.152,76.016 L278.152,76.016 L277.216,74.288 C276.784,74.56 276.348,74.772 275.908,74.924 C275.468,75.076 274.992,75.152 274.48,75.152 C273.52,75.152 272.732,74.868 272.116,74.3 C271.5,73.732 271.128,72.92 271,71.864 L271,71.864 L278.488,71.864 C278.52,71.72 278.548,71.528 278.572,71.288 C278.596,71.048 278.608,70.792 278.608,70.52 C278.608,69.704 278.504,68.952 278.296,68.264 C278.088,67.576 277.78,66.984 277.372,66.488 C276.964,65.992 276.456,65.608 275.848,65.336 C275.24,65.064 274.536,64.928 273.736,64.928 C273.048,64.928 272.376,65.072 271.72,65.36 C271.064,65.648 270.484,66.056 269.98,66.584 C269.476,67.112 269.072,67.76 268.768,68.528 C268.464,69.296 268.312,70.16 268.312,71.12 C268.312,72.096 268.46,72.964 268.756,73.724 C269.052,74.484 269.464,75.128 269.992,75.656 C270.52,76.184 271.136,76.588 271.84,76.868 C272.544,77.148 273.304,77.288 274.12,77.288 Z M276.208,69.992 L270.976,69.992 C271.104,69.032 271.432,68.304 271.96,67.808 C272.488,67.312 273.104,67.064 273.808,67.064 C274.624,67.064 275.228,67.324 275.62,67.844 C276.012,68.364 276.208,69.08 276.208,69.992 L276.208,69.992 Z M284.536,77.288 C285.272,77.288 285.928,77.192 286.504,77 C287.08,76.808 287.56,76.548 287.944,76.22 C288.328,75.892 288.62,75.508 288.82,75.068 C289.02,74.628 289.12,74.152 289.12,73.64 C289.12,73.096 289.02,72.628 288.82,72.236 C288.62,71.844 288.356,71.512 288.028,71.24 C287.7,70.968 287.336,70.74 286.936,70.556 C286.536,70.372 286.136,70.208 285.736,70.064 C285.416,69.952 285.108,69.84 284.812,69.728 C284.516,69.616 284.256,69.496 284.032,69.368 C283.808,69.24 283.628,69.092 283.492,68.924 C283.356,68.756 283.288,68.552 283.288,68.312 C283.288,67.944 283.428,67.636 283.708,67.388 C283.988,67.14 284.424,67.016 285.016,67.016 C285.48,67.016 285.924,67.108 286.348,67.292 C286.772,67.476 287.192,67.72 287.608,68.024 L287.608,68.024 L288.88,66.344 C288.4,65.976 287.832,65.648 287.176,65.36 C286.52,65.072 285.784,64.928 284.968,64.928 C283.64,64.928 282.592,65.256 281.824,65.912 C281.056,66.568 280.672,67.416 280.672,68.456 C280.672,68.952 280.772,69.38 280.972,69.74 C281.172,70.1 281.428,70.416 281.74,70.688 C282.052,70.96 282.408,71.192 282.808,71.384 C283.208,71.576 283.6,71.744 283.984,71.888 C284.288,72.016 284.592,72.14 284.896,72.26 C285.2,72.38 285.472,72.512 285.712,72.656 C285.952,72.8 286.144,72.964 286.288,73.148 C286.432,73.332 286.504,73.544 286.504,73.784 C286.504,74.2 286.352,74.54 286.048,74.804 C285.744,75.068 285.272,75.2 284.632,75.2 C284.024,75.2 283.46,75.084 282.94,74.852 C282.42,74.62 281.896,74.296 281.368,73.88 L281.368,73.88 L280.072,75.656 C280.648,76.12 281.332,76.508 282.124,76.82 C282.916,77.132 283.72,77.288 284.536,77.288 Z" id="Top16Fortune500Companies" fill="#555555" fill-rule="nonzero"></path>
                <path d="M135.288,20 L135.288,15.152 L137.528,15.152 L140.392,20 L141.24,20 L138.328,15.104 C139.16,14.9973333 139.818667,14.704 140.304,14.224 C140.789333,13.744 141.032,13.0826667 141.032,12.24 C141.032,11.7386667 140.949333,11.312 140.784,10.96 C140.618667,10.608 140.386667,10.32 140.088,10.096 C139.789333,9.872 139.426667,9.70933333 139,9.608 C138.573333,9.50666667 138.098667,9.456 137.576,9.456 L137.576,9.456 L134.552,9.456 L134.552,20 L135.288,20 Z M137.384,14.544 L135.288,14.544 L135.288,10.08 L137.384,10.08 C138.312,10.08 139.026667,10.2426667 139.528,10.568 C140.029333,10.8933333 140.28,11.4506667 140.28,12.24 C140.28,13.0186667 140.032,13.5973333 139.536,13.976 C139.04,14.3546667 138.322667,14.544 137.384,14.544 L137.384,14.544 Z M145.928,20.192 C146.493333,20.192 146.96,20.112 147.328,19.952 C147.696,19.792 148.034667,19.6213333 148.344,19.44 L148.344,19.44 L148.056,18.896 C147.768,19.1093333 147.456,19.2773333 147.12,19.4 C146.784,19.5226667 146.408,19.584 145.992,19.584 C145.554667,19.584 145.16,19.5013333 144.808,19.336 C144.456,19.1706667 144.154667,18.9413333 143.904,18.648 C143.653333,18.3546667 143.458667,18.0026667 143.32,17.592 C143.181333,17.1813333 143.106667,16.736 143.096,16.256 L143.096,16.256 L148.632,16.256 C148.653333,16.16 148.664,16.064 148.664,15.968 L148.664,15.968 L148.664,15.68 C148.664,14.5493333 148.402667,13.6746667 147.88,13.056 C147.357333,12.4373333 146.637333,12.128 145.72,12.128 C145.293333,12.128 144.88,12.2213333 144.48,12.408 C144.08,12.5946667 143.722667,12.8613333 143.408,13.208 C143.093333,13.5546667 142.842667,13.9786667 142.656,14.48 C142.469333,14.9813333 142.376,15.5466667 142.376,16.176 C142.376,16.8053333 142.469333,17.368 142.656,17.864 C142.842667,18.36 143.096,18.7813333 143.416,19.128 C143.736,19.4746667 144.112,19.7386667 144.544,19.92 C144.976,20.1013333 145.437333,20.192 145.928,20.192 Z M147.992,15.68 L143.096,15.68 C143.138667,15.2213333 143.237333,14.8106667 143.392,14.448 C143.546667,14.0853333 143.744,13.776 143.984,13.52 C144.224,13.264 144.493333,13.0693333 144.792,12.936 C145.090667,12.8026667 145.405333,12.736 145.736,12.736 C146.429333,12.736 146.978667,12.9786667 147.384,13.464 C147.789333,13.9493333 147.992,14.688 147.992,15.68 L147.992,15.68 Z M153.368,20 L156.216,12.32 L155.496,12.32 L153.768,17.136 C153.64,17.5093333 153.509333,17.8826667 153.376,18.256 C153.242667,18.6293333 153.112,18.992 152.984,19.344 L152.984,19.344 L152.92,19.344 C152.802667,18.992 152.674667,18.6293333 152.536,18.256 C152.397333,17.8826667 152.269333,17.5093333 152.152,17.136 L152.152,17.136 L150.424,12.32 L149.656,12.32 L152.536,20 L153.368,20 Z M160.792,20.192 C161.357333,20.192 161.824,20.112 162.192,19.952 C162.56,19.792 162.898667,19.6213333 163.208,19.44 L163.208,19.44 L162.92,18.896 C162.632,19.1093333 162.32,19.2773333 161.984,19.4 C161.648,19.5226667 161.272,19.584 160.856,19.584 C160.418667,19.584 160.024,19.5013333 159.672,19.336 C159.32,19.1706667 159.018667,18.9413333 158.768,18.648 C158.517333,18.3546667 158.322667,18.0026667 158.184,17.592 C158.045333,17.1813333 157.970667,16.736 157.96,16.256 L157.96,16.256 L163.496,16.256 C163.517333,16.16 163.528,16.064 163.528,15.968 L163.528,15.968 L163.528,15.68 C163.528,14.5493333 163.266667,13.6746667 162.744,13.056 C162.221333,12.4373333 161.501333,12.128 160.584,12.128 C160.157333,12.128 159.744,12.2213333 159.344,12.408 C158.944,12.5946667 158.586667,12.8613333 158.272,13.208 C157.957333,13.5546667 157.706667,13.9786667 157.52,14.48 C157.333333,14.9813333 157.24,15.5466667 157.24,16.176 C157.24,16.8053333 157.333333,17.368 157.52,17.864 C157.706667,18.36 157.96,18.7813333 158.28,19.128 C158.6,19.4746667 158.976,19.7386667 159.408,19.92 C159.84,20.1013333 160.301333,20.192 160.792,20.192 Z M162.856,15.68 L157.96,15.68 C158.002667,15.2213333 158.101333,14.8106667 158.256,14.448 C158.410667,14.0853333 158.608,13.776 158.848,13.52 C159.088,13.264 159.357333,13.0693333 159.656,12.936 C159.954667,12.8026667 160.269333,12.736 160.6,12.736 C161.293333,12.736 161.842667,12.9786667 162.248,13.464 C162.653333,13.9493333 162.856,14.688 162.856,15.68 L162.856,15.68 Z M166.312,20 L166.312,14.208 C166.781333,13.728 167.202667,13.368 167.576,13.128 C167.949333,12.888 168.365333,12.768 168.824,12.768 C169.453333,12.768 169.904,12.9626667 170.176,13.352 C170.448,13.7413333 170.584,14.3466667 170.584,15.168 L170.584,15.168 L170.584,20 L171.288,20 L171.288,15.072 C171.288,14.0693333 171.101333,13.328 170.728,12.848 C170.354667,12.368 169.768,12.128 168.968,12.128 C168.434667,12.128 167.96,12.2586667 167.544,12.52 C167.128,12.7813333 166.722667,13.1093333 166.328,13.504 L166.328,13.504 L166.28,13.504 L166.216,12.32 L165.608,12.32 L165.608,20 L166.312,20 Z M176.328,20.192 C176.861333,20.192 177.336,20.0586667 177.752,19.792 C178.168,19.5253333 178.562667,19.168 178.936,18.72 L178.936,18.72 L178.968,18.72 L179.048,20 L179.64,20 L179.64,12.32 L178.936,12.32 L178.936,17.984 C178.488,18.528 178.077333,18.9253333 177.704,19.176 C177.330667,19.4266667 176.914667,19.552 176.456,19.552 C175.837333,19.552 175.392,19.3573333 175.12,18.968 C174.848,18.5786667 174.712,17.9733333 174.712,17.152 L174.712,17.152 L174.712,12.32 L174.008,12.32 L174.008,17.248 C174.008,18.2506667 174.194667,18.992 174.568,19.472 C174.941333,19.952 175.528,20.192 176.328,20.192 Z M185.496,20.192 C186.061333,20.192 186.528,20.112 186.896,19.952 C187.264,19.792 187.602667,19.6213333 187.912,19.44 L187.912,19.44 L187.624,18.896 C187.336,19.1093333 187.024,19.2773333 186.688,19.4 C186.352,19.5226667 185.976,19.584 185.56,19.584 C185.122667,19.584 184.728,19.5013333 184.376,19.336 C184.024,19.1706667 183.722667,18.9413333 183.472,18.648 C183.221333,18.3546667 183.026667,18.0026667 182.888,17.592 C182.749333,17.1813333 182.674667,16.736 182.664,16.256 L182.664,16.256 L188.2,16.256 C188.221333,16.16 188.232,16.064 188.232,15.968 L188.232,15.968 L188.232,15.68 C188.232,14.5493333 187.970667,13.6746667 187.448,13.056 C186.925333,12.4373333 186.205333,12.128 185.288,12.128 C184.861333,12.128 184.448,12.2213333 184.048,12.408 C183.648,12.5946667 183.290667,12.8613333 182.976,13.208 C182.661333,13.5546667 182.410667,13.9786667 182.224,14.48 C182.037333,14.9813333 181.944,15.5466667 181.944,16.176 C181.944,16.8053333 182.037333,17.368 182.224,17.864 C182.410667,18.36 182.664,18.7813333 182.984,19.128 C183.304,19.4746667 183.68,19.7386667 184.112,19.92 C184.544,20.1013333 185.005333,20.192 185.496,20.192 Z M187.56,15.68 L182.664,15.68 C182.706667,15.2213333 182.805333,14.8106667 182.96,14.448 C183.114667,14.0853333 183.312,13.776 183.552,13.52 C183.792,13.264 184.061333,13.0693333 184.36,12.936 C184.658667,12.8026667 184.973333,12.736 185.304,12.736 C185.997333,12.736 186.546667,12.9786667 186.952,13.464 C187.357333,13.9493333 187.56,14.688 187.56,15.68 L187.56,15.68 Z M196.312,20.192 C196.770667,20.192 197.210667,20.1013333 197.632,19.92 C198.053333,19.7386667 198.421333,19.4773333 198.736,19.136 C199.050667,18.7946667 199.301333,18.376 199.488,17.88 C199.674667,17.384 199.768,16.816 199.768,16.176 C199.768,15.536 199.674667,14.9626667 199.488,14.456 C199.301333,13.9493333 199.050667,13.5253333 198.736,13.184 C198.421333,12.8426667 198.053333,12.5813333 197.632,12.4 C197.210667,12.2186667 196.770667,12.128 196.312,12.128 C195.853333,12.128 195.416,12.2186667 195,12.4 C194.584,12.5813333 194.218667,12.8426667 193.904,13.184 C193.589333,13.5253333 193.338667,13.9493333 193.152,14.456 C192.965333,14.9626667 192.872,15.536 192.872,16.176 C192.872,16.816 192.965333,17.384 193.152,17.88 C193.338667,18.376 193.589333,18.7946667 193.904,19.136 C194.218667,19.4773333 194.584,19.7386667 195,19.92 C195.416,20.1013333 195.853333,20.192 196.312,20.192 Z M196.312,19.568 C195.928,19.568 195.570667,19.4853333 195.24,19.32 C194.909333,19.1546667 194.624,18.9226667 194.384,18.624 C194.144,18.3253333 193.954667,17.968 193.816,17.552 C193.677333,17.136 193.608,16.6773333 193.608,16.176 C193.608,15.664 193.677333,15.2 193.816,14.784 C193.954667,14.368 194.144,14.008 194.384,13.704 C194.624,13.4 194.909333,13.1653333 195.24,13 C195.570667,12.8346667 195.928,12.752 196.312,12.752 C196.696,12.752 197.056,12.8346667 197.392,13 C197.728,13.1653333 198.016,13.4 198.256,13.704 C198.496,14.008 198.685333,14.368 198.824,14.784 C198.962667,15.2 199.032,15.664 199.032,16.176 C199.032,16.6773333 198.962667,17.136 198.824,17.552 C198.685333,17.968 198.496,18.3253333 198.256,18.624 C198.016,18.9226667 197.728,19.1546667 197.392,19.32 C197.056,19.4853333 196.696,19.568 196.312,19.568 Z M202.888,20 L202.888,12.928 L204.664,12.928 L204.664,12.32 L202.888,12.32 L202.888,10.656 C202.888,10.0906667 202.986667,9.65866667 203.184,9.36 C203.381333,9.06133333 203.682667,8.912 204.088,8.912 C204.237333,8.912 204.389333,8.928 204.544,8.96 C204.698667,8.992 204.856,9.05066667 205.016,9.136 L205.016,9.136 L205.208,8.56 C204.834667,8.38933333 204.461333,8.304 204.088,8.304 C203.48,8.304 203.010667,8.496 202.68,8.88 C202.349333,9.264 202.184,9.84 202.184,10.608 L202.184,10.608 L202.184,12.32 L201.128,12.384 L201.128,12.928 L202.184,12.928 L202.184,20 L202.888,20 Z" id="Revenueof" fill="#555555" fill-rule="nonzero"></path>
            </g>
        </g>
    </g>
</svg>