<?xml version="1.0" encoding="UTF-8"?>
<svg width="611px" height="339px" viewBox="0 0 611 339" version="1.1" xmlns="http://www.w3.org/2000/svg" xmlns:xlink="http://www.w3.org/1999/xlink">
    <title>overview-spending-viz</title>
    <g id="01.-Overview" stroke="none" stroke-width="1" fill="none" fill-rule="evenodd">
        <g id="AFG---Spending-Overview" transform="translate(-128.000000, -129.000000)">
            <g id="overview-spending-viz" transform="translate(128.000000, 129.000000)">
                <path d="M526.04,331 L526.04,328.06 L521.36,328.06 C520.9,328.06 520.38,328.085 519.8,328.135 C519.22,328.185 518.68,328.23 518.18,328.27 C519.12,327.27 520.01,326.3 520.85,325.36 C521.69,324.42 522.425,323.505 523.055,322.615 C523.685,321.725 524.185,320.845 524.555,319.975 C524.925,319.105 525.11,318.25 525.11,317.41 C525.11,316.53 524.965,315.73 524.675,315.01 C524.385,314.29 523.98,313.675 523.46,313.165 C522.94,312.655 522.31,312.26 521.57,311.98 C520.83,311.7 520,311.56 519.08,311.56 C517.76,311.56 516.635,311.815 515.705,312.325 C514.775,312.835 513.87,313.56 512.99,314.5 L512.99,314.5 L514.91,316.42 C515.43,315.84 515.995,315.34 516.605,314.92 C517.215,314.5 517.89,314.29 518.63,314.29 C519.65,314.29 520.43,314.585 520.97,315.175 C521.51,315.765 521.78,316.57 521.78,317.59 C521.78,318.31 521.58,319.07 521.18,319.87 C520.78,320.67 520.205,321.53 519.455,322.45 C518.705,323.37 517.795,324.37 516.725,325.45 C515.655,326.53 514.46,327.71 513.14,328.99 L513.14,328.99 L513.14,331 L526.04,331 Z M535.07,331.36 C537.07,331.36 538.65,330.505 539.81,328.795 C540.97,327.085 541.55,324.61 541.55,321.37 C541.55,318.15 540.97,315.71 539.81,314.05 C538.65,312.39 537.07,311.56 535.07,311.56 C533.07,311.56 531.49,312.385 530.33,314.035 C529.17,315.685 528.59,318.13 528.59,321.37 C528.59,324.61 529.17,327.085 530.33,328.795 C531.49,330.505 533.07,331.36 535.07,331.36 Z M535.07,328.66 C534.61,328.66 534.185,328.535 533.795,328.285 C533.405,328.035 533.07,327.62 532.79,327.04 C532.51,326.46 532.29,325.71 532.13,324.79 C531.97,323.87 531.89,322.73 531.89,321.37 C531.89,320.03 531.97,318.905 532.13,317.995 C532.29,317.085 532.51,316.35 532.79,315.79 C533.07,315.23 533.405,314.835 533.795,314.605 C534.185,314.375 534.61,314.26 535.07,314.26 C535.53,314.26 535.955,314.375 536.345,314.605 C536.735,314.835 537.07,315.23 537.35,315.79 C537.63,316.35 537.85,317.085 538.01,317.995 C538.17,318.905 538.25,320.03 538.25,321.37 C538.25,322.73 538.17,323.87 538.01,324.79 C537.85,325.71 537.63,326.46 537.35,327.04 C537.07,327.62 536.735,328.035 536.345,328.285 C535.955,328.535 535.53,328.66 535.07,328.66 Z M556.82,331 L556.82,328.06 L552.14,328.06 C551.68,328.06 551.16,328.085 550.58,328.135 C550,328.185 549.46,328.23 548.96,328.27 C549.9,327.27 550.79,326.3 551.63,325.36 C552.47,324.42 553.205,323.505 553.835,322.615 C554.465,321.725 554.965,320.845 555.335,319.975 C555.705,319.105 555.89,318.25 555.89,317.41 C555.89,316.53 555.745,315.73 555.455,315.01 C555.165,314.29 554.76,313.675 554.24,313.165 C553.72,312.655 553.09,312.26 552.35,311.98 C551.61,311.7 550.78,311.56 549.86,311.56 C548.54,311.56 547.415,311.815 546.485,312.325 C545.555,312.835 544.65,313.56 543.77,314.5 L543.77,314.5 L545.69,316.42 C546.21,315.84 546.775,315.34 547.385,314.92 C547.995,314.5 548.67,314.29 549.41,314.29 C550.43,314.29 551.21,314.585 551.75,315.175 C552.29,315.765 552.56,316.57 552.56,317.59 C552.56,318.31 552.36,319.07 551.96,319.87 C551.56,320.67 550.985,321.53 550.235,322.45 C549.485,323.37 548.575,324.37 547.505,325.45 C546.435,326.53 545.24,327.71 543.92,328.99 L543.92,328.99 L543.92,331 L556.82,331 Z M565.85,331.36 C567.85,331.36 569.43,330.505 570.59,328.795 C571.75,327.085 572.33,324.61 572.33,321.37 C572.33,318.15 571.75,315.71 570.59,314.05 C569.43,312.39 567.85,311.56 565.85,311.56 C563.85,311.56 562.27,312.385 561.11,314.035 C559.95,315.685 559.37,318.13 559.37,321.37 C559.37,324.61 559.95,327.085 561.11,328.795 C562.27,330.505 563.85,331.36 565.85,331.36 Z M565.85,328.66 C565.39,328.66 564.965,328.535 564.575,328.285 C564.185,328.035 563.85,327.62 563.57,327.04 C563.29,326.46 563.07,325.71 562.91,324.79 C562.75,323.87 562.67,322.73 562.67,321.37 C562.67,320.03 562.75,318.905 562.91,317.995 C563.07,317.085 563.29,316.35 563.57,315.79 C563.85,315.23 564.185,314.835 564.575,314.605 C564.965,314.375 565.39,314.26 565.85,314.26 C566.31,314.26 566.735,314.375 567.125,314.605 C567.515,314.835 567.85,315.23 568.13,315.79 C568.41,316.35 568.63,317.085 568.79,317.995 C568.95,318.905 569.03,320.03 569.03,321.37 C569.03,322.73 568.95,323.87 568.79,324.79 C568.63,325.71 568.41,326.46 568.13,327.04 C567.85,327.62 567.515,328.035 567.125,328.285 C566.735,328.535 566.31,328.66 565.85,328.66 Z" id="2020" fill="#666666" fill-rule="nonzero"></path>
                <path d="M322.78,327 L322.78,325.935 L320.005,325.935 C319.755,325.935 319.49,325.945 319.21,325.965 C318.93,325.985 318.66,326.005 318.4,326.025 C318.97,325.435 319.4925,324.8775 319.9675,324.3525 C320.4425,323.8275 320.8525,323.3225 321.1975,322.8375 C321.5425,322.3525 321.8125,321.8825 322.0075,321.4275 C322.2025,320.9725 322.3,320.52 322.3,320.07 C322.3,319.22 322.045,318.5375 321.535,318.0225 C321.025,317.5075 320.325,317.25 319.435,317.25 C318.805,317.25 318.265,317.3825 317.815,317.6475 C317.365,317.9125 316.94,318.265 316.54,318.705 L316.54,318.705 L317.245,319.41 C317.525,319.09 317.835,318.8175 318.175,318.5925 C318.515,318.3675 318.885,318.255 319.285,318.255 C319.895,318.255 320.35,318.43 320.65,318.78 C320.95,319.13 321.1,319.58 321.1,320.13 C321.1,320.52 321,320.9225 320.8,321.3375 C320.6,321.7525 320.31,322.2075 319.93,322.7025 C319.55,323.1975 319.08,323.735 318.52,324.315 C317.96,324.895 317.32,325.545 316.6,326.265 L316.6,326.265 L316.6,327 L322.78,327 Z M327.19,327.18 C328.15,327.18 328.9,326.75 329.44,325.89 C329.98,325.03 330.25,323.795 330.25,322.185 C330.25,320.575 329.98,319.35 329.44,318.51 C328.9,317.67 328.15,317.25 327.19,317.25 C326.22,317.25 325.465,317.67 324.925,318.51 C324.385,319.35 324.115,320.575 324.115,322.185 C324.115,323.795 324.385,325.03 324.925,325.89 C325.465,326.75 326.22,327.18 327.19,327.18 Z M327.19,326.19 C326.63,326.19 326.1775,325.8725 325.8325,325.2375 C325.4875,324.6025 325.315,323.585 325.315,322.185 C325.315,321.485 325.36,320.885 325.45,320.385 C325.54,319.885 325.6675,319.4775 325.8325,319.1625 C325.9975,318.8475 326.195,318.615 326.425,318.465 C326.655,318.315 326.91,318.24 327.19,318.24 C327.47,318.24 327.7225,318.315 327.9475,318.465 C328.1725,318.615 328.3675,318.8475 328.5325,319.1625 C328.6975,319.4775 328.825,319.885 328.915,320.385 C329.005,320.885 329.05,321.485 329.05,322.185 C329.05,322.885 329.005,323.4875 328.915,323.9925 C328.825,324.4975 328.6975,324.9125 328.5325,325.2375 C328.3675,325.5625 328.1725,325.8025 327.9475,325.9575 C327.7225,326.1125 327.47,326.19 327.19,326.19 Z M337.495,327 L337.495,325.98 L335.515,325.98 L335.515,317.43 L334.57,317.43 C334.31,317.59 334.0175,317.7275 333.6925,317.8425 C333.3675,317.9575 332.985,318.055 332.545,318.135 L332.545,318.135 L332.545,318.93 L334.285,318.93 L334.285,325.98 L332.095,325.98 L332.095,327 L337.495,327 Z M342.115,327.18 C342.575,327.18 342.995,327.115 343.375,326.985 C343.755,326.855 344.08,326.675 344.35,326.445 C344.62,326.215 344.83,325.945 344.98,325.635 C345.13,325.325 345.205,324.99 345.205,324.63 C345.205,324.31 345.1575,324.025 345.0625,323.775 C344.9675,323.525 344.8425,323.3025 344.6875,323.1075 C344.5325,322.9125 344.355,322.7375 344.155,322.5825 C343.955,322.4275 343.75,322.29 343.54,322.17 L343.54,322.17 L343.54,322.11 C343.69,322 343.8425,321.865 343.9975,321.705 C344.1525,321.545 344.2925,321.365 344.4175,321.165 C344.5425,320.965 344.6475,320.75 344.7325,320.52 C344.8175,320.29 344.86,320.05 344.86,319.8 C344.86,319.43 344.7975,319.0875 344.6725,318.7725 C344.5475,318.4575 344.3675,318.1875 344.1325,317.9625 C343.8975,317.7375 343.615,317.5625 343.285,317.4375 C342.955,317.3125 342.58,317.25 342.16,317.25 C341.77,317.25 341.41,317.31 341.08,317.43 C340.75,317.55 340.465,317.7175 340.225,317.9325 C339.985,318.1475 339.795,318.405 339.655,318.705 C339.515,319.005 339.445,319.34 339.445,319.71 C339.445,320.22 339.58,320.6525 339.85,321.0075 C340.12,321.3625 340.43,321.665 340.78,321.915 L340.78,321.915 L340.78,321.975 C340.55,322.095 340.3275,322.2375 340.1125,322.4025 C339.8975,322.5675 339.7075,322.7575 339.5425,322.9725 C339.3775,323.1875 339.2425,323.4275 339.1375,323.6925 C339.0325,323.9575 338.98,324.245 338.98,324.555 C338.98,324.935 339.06,325.285 339.22,325.605 C339.38,325.925 339.5975,326.2025 339.8725,326.4375 C340.1475,326.6725 340.4775,326.855 340.8625,326.985 C341.2475,327.115 341.665,327.18 342.115,327.18 Z M342.79,321.78 C342.5,321.67 342.2225,321.5525 341.9575,321.4275 C341.6925,321.3025 341.4575,321.16 341.2525,321 C341.0475,320.84 340.885,320.6575 340.765,320.4525 C340.645,320.2475 340.585,320 340.585,319.71 C340.585,319.24 340.73,318.865 341.02,318.585 C341.31,318.305 341.68,318.165 342.13,318.165 C342.66,318.165 343.07,318.3275 343.36,318.6525 C343.65,318.9775 343.795,319.38 343.795,319.86 C343.795,320.21 343.7075,320.545 343.5325,320.865 C343.3575,321.185 343.11,321.49 342.79,321.78 Z M342.145,326.265 C341.855,326.265 341.585,326.22 341.335,326.13 C341.085,326.04 340.8675,325.9125 340.6825,325.7475 C340.4975,325.5825 340.3525,325.39 340.2475,325.17 C340.1425,324.95 340.09,324.705 340.09,324.435 C340.09,323.995 340.2175,323.6025 340.4725,323.2575 C340.7275,322.9125 341.045,322.61 341.425,322.35 C341.765,322.49 342.0925,322.6275 342.4075,322.7625 C342.7225,322.8975 343,323.0475 343.24,323.2125 C343.48,323.3775 343.67,323.57 343.81,323.79 C343.95,324.01 344.02,324.275 344.02,324.585 C344.02,325.085 343.8475,325.49 343.5025,325.8 C343.1575,326.11 342.705,326.265 342.145,326.265 Z" id="2018" fill="#666666" fill-rule="nonzero"></path>
                <path d="M428.78,327 L428.78,325.935 L426.005,325.935 C425.755,325.935 425.49,325.945 425.21,325.965 C424.93,325.985 424.66,326.005 424.4,326.025 C424.97,325.435 425.4925,324.8775 425.9675,324.3525 C426.4425,323.8275 426.8525,323.3225 427.1975,322.8375 C427.5425,322.3525 427.8125,321.8825 428.0075,321.4275 C428.2025,320.9725 428.3,320.52 428.3,320.07 C428.3,319.22 428.045,318.5375 427.535,318.0225 C427.025,317.5075 426.325,317.25 425.435,317.25 C424.805,317.25 424.265,317.3825 423.815,317.6475 C423.365,317.9125 422.94,318.265 422.54,318.705 L422.54,318.705 L423.245,319.41 C423.525,319.09 423.835,318.8175 424.175,318.5925 C424.515,318.3675 424.885,318.255 425.285,318.255 C425.895,318.255 426.35,318.43 426.65,318.78 C426.95,319.13 427.1,319.58 427.1,320.13 C427.1,320.52 427,320.9225 426.8,321.3375 C426.6,321.7525 426.31,322.2075 425.93,322.7025 C425.55,323.1975 425.08,323.735 424.52,324.315 C423.96,324.895 423.32,325.545 422.6,326.265 L422.6,326.265 L422.6,327 L428.78,327 Z M433.19,327.18 C434.15,327.18 434.9,326.75 435.44,325.89 C435.98,325.03 436.25,323.795 436.25,322.185 C436.25,320.575 435.98,319.35 435.44,318.51 C434.9,317.67 434.15,317.25 433.19,317.25 C432.22,317.25 431.465,317.67 430.925,318.51 C430.385,319.35 430.115,320.575 430.115,322.185 C430.115,323.795 430.385,325.03 430.925,325.89 C431.465,326.75 432.22,327.18 433.19,327.18 Z M433.19,326.19 C432.63,326.19 432.1775,325.8725 431.8325,325.2375 C431.4875,324.6025 431.315,323.585 431.315,322.185 C431.315,321.485 431.36,320.885 431.45,320.385 C431.54,319.885 431.6675,319.4775 431.8325,319.1625 C431.9975,318.8475 432.195,318.615 432.425,318.465 C432.655,318.315 432.91,318.24 433.19,318.24 C433.47,318.24 433.7225,318.315 433.9475,318.465 C434.1725,318.615 434.3675,318.8475 434.5325,319.1625 C434.6975,319.4775 434.825,319.885 434.915,320.385 C435.005,320.885 435.05,321.485 435.05,322.185 C435.05,322.885 435.005,323.4875 434.915,323.9925 C434.825,324.4975 434.6975,324.9125 434.5325,325.2375 C434.3675,325.5625 434.1725,325.8025 433.9475,325.9575 C433.7225,326.1125 433.47,326.19 433.19,326.19 Z M443.495,327 L443.495,325.98 L441.515,325.98 L441.515,317.43 L440.57,317.43 C440.31,317.59 440.0175,317.7275 439.6925,317.8425 C439.3675,317.9575 438.985,318.055 438.545,318.135 L438.545,318.135 L438.545,318.93 L440.285,318.93 L440.285,325.98 L438.095,325.98 L438.095,327 L443.495,327 Z M447.44,327.18 C447.92,327.18 448.3775,327.0825 448.8125,326.8875 C449.2475,326.6925 449.635,326.3825 449.975,325.9575 C450.315,325.5325 450.585,324.9825 450.785,324.3075 C450.985,323.6325 451.085,322.815 451.085,321.855 C451.085,321.085 451.0025,320.4125 450.8375,319.8375 C450.6725,319.2625 450.4425,318.7825 450.1475,318.3975 C449.8525,318.0125 449.5025,317.725 449.0975,317.535 C448.6925,317.345 448.255,317.25 447.785,317.25 C447.405,317.25 447.0425,317.325 446.6975,317.475 C446.3525,317.625 446.0525,317.835 445.7975,318.105 C445.5425,318.375 445.34,318.6975 445.19,319.0725 C445.04,319.4475 444.965,319.865 444.965,320.325 C444.965,321.315 445.21,322.055 445.7,322.545 C446.19,323.035 446.85,323.28 447.68,323.28 C448.08,323.28 448.48,323.17 448.88,322.95 C449.28,322.73 449.63,322.43 449.93,322.05 C449.92,322.82 449.845,323.465 449.705,323.985 C449.565,324.505 449.38,324.9275 449.15,325.2525 C448.92,325.5775 448.655,325.81 448.355,325.95 C448.055,326.09 447.735,326.16 447.395,326.16 C447.095,326.16 446.8075,326.09 446.5325,325.95 C446.2575,325.81 446.02,325.625 445.82,325.395 L445.82,325.395 L445.13,326.175 C445.39,326.465 445.7125,326.705 446.0975,326.895 C446.4825,327.085 446.93,327.18 447.44,327.18 Z M447.89,322.35 C447.29,322.35 446.845,322.17 446.555,321.81 C446.265,321.45 446.12,320.955 446.12,320.325 C446.12,320.015 446.1625,319.73 446.2475,319.47 C446.3325,319.21 446.45,318.9875 446.6,318.8025 C446.75,318.6175 446.9275,318.475 447.1325,318.375 C447.3375,318.275 447.555,318.225 447.785,318.225 C448.395,318.225 448.88,318.465 449.24,318.945 C449.6,319.425 449.82,320.135 449.9,321.075 C449.59,321.525 449.2575,321.85 448.9025,322.05 C448.5475,322.25 448.21,322.35 447.89,322.35 Z" id="2019" fill="#666666" fill-rule="nonzero"></path>
                <path d="M216.78,327 L216.78,325.935 L214.005,325.935 C213.755,325.935 213.49,325.945 213.21,325.965 C212.93,325.985 212.66,326.005 212.4,326.025 C212.97,325.435 213.4925,324.8775 213.9675,324.3525 C214.4425,323.8275 214.8525,323.3225 215.1975,322.8375 C215.5425,322.3525 215.8125,321.8825 216.0075,321.4275 C216.2025,320.9725 216.3,320.52 216.3,320.07 C216.3,319.22 216.045,318.5375 215.535,318.0225 C215.025,317.5075 214.325,317.25 213.435,317.25 C212.805,317.25 212.265,317.3825 211.815,317.6475 C211.365,317.9125 210.94,318.265 210.54,318.705 L210.54,318.705 L211.245,319.41 C211.525,319.09 211.835,318.8175 212.175,318.5925 C212.515,318.3675 212.885,318.255 213.285,318.255 C213.895,318.255 214.35,318.43 214.65,318.78 C214.95,319.13 215.1,319.58 215.1,320.13 C215.1,320.52 215,320.9225 214.8,321.3375 C214.6,321.7525 214.31,322.2075 213.93,322.7025 C213.55,323.1975 213.08,323.735 212.52,324.315 C211.96,324.895 211.32,325.545 210.6,326.265 L210.6,326.265 L210.6,327 L216.78,327 Z M221.19,327.18 C222.15,327.18 222.9,326.75 223.44,325.89 C223.98,325.03 224.25,323.795 224.25,322.185 C224.25,320.575 223.98,319.35 223.44,318.51 C222.9,317.67 222.15,317.25 221.19,317.25 C220.22,317.25 219.465,317.67 218.925,318.51 C218.385,319.35 218.115,320.575 218.115,322.185 C218.115,323.795 218.385,325.03 218.925,325.89 C219.465,326.75 220.22,327.18 221.19,327.18 Z M221.19,326.19 C220.63,326.19 220.1775,325.8725 219.8325,325.2375 C219.4875,324.6025 219.315,323.585 219.315,322.185 C219.315,321.485 219.36,320.885 219.45,320.385 C219.54,319.885 219.6675,319.4775 219.8325,319.1625 C219.9975,318.8475 220.195,318.615 220.425,318.465 C220.655,318.315 220.91,318.24 221.19,318.24 C221.47,318.24 221.7225,318.315 221.9475,318.465 C222.1725,318.615 222.3675,318.8475 222.5325,319.1625 C222.6975,319.4775 222.825,319.885 222.915,320.385 C223.005,320.885 223.05,321.485 223.05,322.185 C223.05,322.885 223.005,323.4875 222.915,323.9925 C222.825,324.4975 222.6975,324.9125 222.5325,325.2375 C222.3675,325.5625 222.1725,325.8025 221.9475,325.9575 C221.7225,326.1125 221.47,326.19 221.19,326.19 Z M231.495,327 L231.495,325.98 L229.515,325.98 L229.515,317.43 L228.57,317.43 C228.31,317.59 228.0175,317.7275 227.6925,317.8425 C227.3675,317.9575 226.985,318.055 226.545,318.135 L226.545,318.135 L226.545,318.93 L228.285,318.93 L228.285,325.98 L226.095,325.98 L226.095,327 L231.495,327 Z M236.295,327 C236.335,326.07 236.4025,325.2225 236.4975,324.4575 C236.5925,323.6925 236.745,322.9675 236.955,322.2825 C237.165,321.5975 237.4475,320.925 237.8025,320.265 C238.1575,319.605 238.62,318.915 239.19,318.195 L239.19,318.195 L239.19,317.43 L233.025,317.43 L233.025,318.495 L237.795,318.495 C237.325,319.155 236.9225,319.8 236.5875,320.43 C236.2525,321.06 235.9775,321.7125 235.7625,322.3875 C235.5475,323.0625 235.38,323.775 235.26,324.525 C235.14,325.275 235.06,326.1 235.02,327 L235.02,327 L236.295,327 Z" id="2017" fill="#666666" fill-rule="nonzero"></path>
                <path d="M110.78,327 L110.78,325.935 L108.005,325.935 C107.755,325.935 107.49,325.945 107.21,325.965 C106.93,325.985 106.66,326.005 106.4,326.025 C106.97,325.435 107.4925,324.8775 107.9675,324.3525 C108.4425,323.8275 108.8525,323.3225 109.1975,322.8375 C109.5425,322.3525 109.8125,321.8825 110.0075,321.4275 C110.2025,320.9725 110.3,320.52 110.3,320.07 C110.3,319.22 110.045,318.5375 109.535,318.0225 C109.025,317.5075 108.325,317.25 107.435,317.25 C106.805,317.25 106.265,317.3825 105.815,317.6475 C105.365,317.9125 104.94,318.265 104.54,318.705 L104.54,318.705 L105.245,319.41 C105.525,319.09 105.835,318.8175 106.175,318.5925 C106.515,318.3675 106.885,318.255 107.285,318.255 C107.895,318.255 108.35,318.43 108.65,318.78 C108.95,319.13 109.1,319.58 109.1,320.13 C109.1,320.52 109,320.9225 108.8,321.3375 C108.6,321.7525 108.31,322.2075 107.93,322.7025 C107.55,323.1975 107.08,323.735 106.52,324.315 C105.96,324.895 105.32,325.545 104.6,326.265 L104.6,326.265 L104.6,327 L110.78,327 Z M115.19,327.18 C116.15,327.18 116.9,326.75 117.44,325.89 C117.98,325.03 118.25,323.795 118.25,322.185 C118.25,320.575 117.98,319.35 117.44,318.51 C116.9,317.67 116.15,317.25 115.19,317.25 C114.22,317.25 113.465,317.67 112.925,318.51 C112.385,319.35 112.115,320.575 112.115,322.185 C112.115,323.795 112.385,325.03 112.925,325.89 C113.465,326.75 114.22,327.18 115.19,327.18 Z M115.19,326.19 C114.63,326.19 114.1775,325.8725 113.8325,325.2375 C113.4875,324.6025 113.315,323.585 113.315,322.185 C113.315,321.485 113.36,320.885 113.45,320.385 C113.54,319.885 113.6675,319.4775 113.8325,319.1625 C113.9975,318.8475 114.195,318.615 114.425,318.465 C114.655,318.315 114.91,318.24 115.19,318.24 C115.47,318.24 115.7225,318.315 115.9475,318.465 C116.1725,318.615 116.3675,318.8475 116.5325,319.1625 C116.6975,319.4775 116.825,319.885 116.915,320.385 C117.005,320.885 117.05,321.485 117.05,322.185 C117.05,322.885 117.005,323.4875 116.915,323.9925 C116.825,324.4975 116.6975,324.9125 116.5325,325.2375 C116.3675,325.5625 116.1725,325.8025 115.9475,325.9575 C115.7225,326.1125 115.47,326.19 115.19,326.19 Z M125.495,327 L125.495,325.98 L123.515,325.98 L123.515,317.43 L122.57,317.43 C122.31,317.59 122.0175,317.7275 121.6925,317.8425 C121.3675,317.9575 120.985,318.055 120.545,318.135 L120.545,318.135 L120.545,318.93 L122.285,318.93 L122.285,325.98 L120.095,325.98 L120.095,327 L125.495,327 Z M130.385,327.18 C130.775,327.18 131.14,327.105 131.48,326.955 C131.82,326.805 132.12,326.595 132.38,326.325 C132.64,326.055 132.845,325.7325 132.995,325.3575 C133.145,324.9825 133.22,324.565 133.22,324.105 C133.22,323.115 132.9725,322.375 132.4775,321.885 C131.9825,321.395 131.32,321.15 130.49,321.15 C130.1,321.15 129.705,321.2575 129.305,321.4725 C128.905,321.6875 128.555,321.98 128.255,322.35 C128.265,321.59 128.34,320.9525 128.48,320.4375 C128.62,319.9225 128.805,319.505 129.035,319.185 C129.265,318.865 129.53,318.635 129.83,318.495 C130.13,318.355 130.445,318.285 130.775,318.285 C131.075,318.285 131.3625,318.3525 131.6375,318.4875 C131.9125,318.6225 132.15,318.805 132.35,319.035 L132.35,319.035 L133.04,318.27 C132.77,317.98 132.4475,317.7375 132.0725,317.5425 C131.6975,317.3475 131.25,317.25 130.73,317.25 C130.25,317.25 129.7925,317.3475 129.3575,317.5425 C128.9225,317.7375 128.535,318.0475 128.195,318.4725 C127.855,318.8975 127.585,319.4475 127.385,320.1225 C127.185,320.7975 127.085,321.615 127.085,322.575 C127.085,323.345 127.17,324.0175 127.34,324.5925 C127.51,325.1675 127.7425,325.6475 128.0375,326.0325 C128.3325,326.4175 128.68,326.705 129.08,326.895 C129.48,327.085 129.915,327.18 130.385,327.18 Z M130.385,326.205 C129.775,326.205 129.2925,325.9625 128.9375,325.4775 C128.5825,324.9925 128.365,324.28 128.285,323.34 C128.585,322.89 128.915,322.5675 129.275,322.3725 C129.635,322.1775 129.97,322.08 130.28,322.08 C130.88,322.08 131.325,322.26 131.615,322.62 C131.905,322.98 132.05,323.475 132.05,324.105 C132.05,324.425 132.0075,324.7125 131.9225,324.9675 C131.8375,325.2225 131.72,325.4425 131.57,325.6275 C131.42,325.8125 131.245,325.955 131.045,326.055 C130.845,326.155 130.625,326.205 130.385,326.205 Z" id="2016" fill="#666666" fill-rule="nonzero"></path>
                <g id="graph-lines" transform="translate(51.000000, 7.000000)">
                    <polygon id="Rectangle-16" fill="#FAFAFA" fill-rule="nonzero" points="0 253 560 253 560 294 0 294"></polygon>
                    <polygon id="Rectangle-16" fill="#FAFAFA" fill-rule="nonzero" points="0 173 560 173 560 214 0 214"></polygon>
                    <polygon id="Rectangle-16" fill="#FAFAFA" fill-rule="nonzero" points="0 93 560 93 560 134 0 134"></polygon>
                    <polygon id="Rectangle-16" fill="#FAFAFA" fill-rule="nonzero" points="0 13 560 13 560 54 0 54"></polygon>
                    <rect id="Rectangle-Copy-7" fill="#EAEAEA" x="0" y="13" width="560" height="1"></rect>
                    <rect id="Rectangle-Copy-8" fill="#EAEAEA" x="0" y="53" width="560" height="1"></rect>
                    <rect id="Rectangle-Copy-9" fill="#EAEAEA" x="0" y="93" width="560" height="1"></rect>
                    <rect id="Rectangle-Copy-10" fill="#EAEAEA" x="0" y="133" width="560" height="1"></rect>
                    <rect id="Rectangle-Copy-11" fill="#EAEAEA" x="0" y="173" width="560" height="1"></rect>
                    <rect id="Rectangle-Copy-12" fill="#EAEAEA" x="0" y="213" width="560" height="1"></rect>
                    <rect id="Rectangle-Copy-13" fill="#EAEAEA" x="0" y="253" width="560" height="1"></rect>
                    <rect id="Rectangle" fill="#7D7D7D" x="0" y="294" width="560" height="1" rx="0.5"></rect>
                    <rect id="Rectangle" fill="#7D7D7D" x="0" y="0" width="1" height="295" rx="0.5"></rect>
                </g>
                <path d="M203,143 L247,143 C248.656854,143 250,144.343146 250,146 L250,301 L250,301 L200,301 L200,146 C200,144.343146 201.343146,143 203,143 Z" id="Rectangle-2" fill="#00766C" fill-rule="nonzero"></path>
                <path d="M309,136 L353,136 C354.656854,136 356,137.343146 356,139 L356,301 L356,301 L306,301 L306,139 C306,137.343146 307.343146,136 309,136 Z" id="Rectangle-2" fill="#00766C" fill-rule="nonzero"></path>
                <path d="M415,119 L459,119 C460.656854,119 462,120.343146 462,122 L462,301 L462,301 L412,301 L412,122 C412,120.343146 413.343146,119 415,119 Z" id="Rectangle-2" fill="#00766C" fill-rule="nonzero"></path>
                <path d="M521,37 L565,37 C566.656854,37 568,38.3431458 568,40 L568,301 L568,301 L518,301 L518,40 C518,38.3431458 519.343146,37 521,37 Z" id="Rectangle-2-Copy" fill="#00766C" fill-rule="nonzero"></path>
                <path d="M97,147 L141,147 C142.656854,147 144,148.343146 144,150 L144,301 L144,301 L94,301 L94,150 C94,148.343146 95.3431458,147 97,147 Z" id="Rectangle-2" fill="#00766C" fill-rule="nonzero"></path>
                <path d="M5.09,26.65 L5.09,25.135 C5.81,25.035 6.3775,24.755 6.7925,24.295 C7.2075,23.835 7.415,23.245 7.415,22.525 C7.415,21.985 7.3125,21.5425 7.1075,21.1975 C6.9025,20.8525 6.645,20.5625 6.335,20.3275 C6.025,20.0925 5.6875,19.8925 5.3225,19.7275 C4.9575,19.5625 4.62,19.3925 4.31,19.2175 C4,19.0425 3.7425,18.84 3.5375,18.61 C3.3325,18.38 3.23,18.085 3.23,17.725 C3.23,17.285 3.365,16.935 3.635,16.675 C3.905,16.415 4.27,16.285 4.73,16.285 C5.14,16.285 5.4775,16.36 5.7425,16.51 C6.0075,16.66 6.28,16.87 6.56,17.14 L6.56,17.14 L7.22,16.405 C6.95,16.115 6.6475,15.865 6.3125,15.655 C5.9775,15.445 5.57,15.315 5.09,15.265 L5.09,15.265 L5.09,13.78 L4.19,13.78 L4.19,15.295 C3.53,15.395 3.0025,15.6675 2.6075,16.1125 C2.2125,16.5575 2.015,17.115 2.015,17.785 C2.015,18.275 2.1175,18.6775 2.3225,18.9925 C2.5275,19.3075 2.785,19.575 3.095,19.795 C3.405,20.015 3.7425,20.21 4.1075,20.38 C4.4725,20.55 4.81,20.7325 5.12,20.9275 C5.43,21.1225 5.6875,21.3525 5.8925,21.6175 C6.0975,21.8825 6.2,22.215 6.2,22.615 C6.2,23.085 6.0625,23.46 5.7875,23.74 C5.5125,24.02 5.095,24.16 4.535,24.16 C4.075,24.16 3.6525,24.0625 3.2675,23.8675 C2.8825,23.6725 2.53,23.435 2.21,23.155 L2.21,23.155 L1.64,24.01 C1.96,24.3 2.345,24.5525 2.795,24.7675 C3.245,24.9825 3.71,25.115 4.19,25.165 L4.19,25.165 L4.19,26.65 L5.09,26.65 Z M15.245,25 C15.285,24.07 15.3525,23.2225 15.4475,22.4575 C15.5425,21.6925 15.695,20.9675 15.905,20.2825 C16.115,19.5975 16.3975,18.925 16.7525,18.265 C17.1075,17.605 17.57,16.915 18.14,16.195 L18.14,16.195 L18.14,15.43 L11.975,15.43 L11.975,16.495 L16.745,16.495 C16.275,17.155 15.8725,17.8 15.5375,18.43 C15.2025,19.06 14.9275,19.7125 14.7125,20.3875 C14.4975,21.0625 14.33,21.775 14.21,22.525 C14.09,23.275 14.01,24.1 13.97,25 L13.97,25 L15.245,25 Z M20.645,25.18 C20.885,25.18 21.0925,25.0925 21.2675,24.9175 C21.4425,24.7425 21.53,24.52 21.53,24.25 C21.53,23.96 21.4425,23.7275 21.2675,23.5525 C21.0925,23.3775 20.885,23.29 20.645,23.29 C20.395,23.29 20.1825,23.3775 20.0075,23.5525 C19.8325,23.7275 19.745,23.96 19.745,24.25 C19.745,24.52 19.8325,24.7425 20.0075,24.9175 C20.1825,25.0925 20.395,25.18 20.645,25.18 Z M26.24,25.18 C27.2,25.18 27.95,24.75 28.49,23.89 C29.03,23.03 29.3,21.795 29.3,20.185 C29.3,18.575 29.03,17.35 28.49,16.51 C27.95,15.67 27.2,15.25 26.24,15.25 C25.27,15.25 24.515,15.67 23.975,16.51 C23.435,17.35 23.165,18.575 23.165,20.185 C23.165,21.795 23.435,23.03 23.975,23.89 C24.515,24.75 25.27,25.18 26.24,25.18 Z M26.24,24.19 C25.68,24.19 25.2275,23.8725 24.8825,23.2375 C24.5375,22.6025 24.365,21.585 24.365,20.185 C24.365,19.485 24.41,18.885 24.5,18.385 C24.59,17.885 24.7175,17.4775 24.8825,17.1625 C25.0475,16.8475 25.245,16.615 25.475,16.465 C25.705,16.315 25.96,16.24 26.24,16.24 C26.52,16.24 26.7725,16.315 26.9975,16.465 C27.2225,16.615 27.4175,16.8475 27.5825,17.1625 C27.7475,17.4775 27.875,17.885 27.965,18.385 C28.055,18.885 28.1,19.485 28.1,20.185 C28.1,20.885 28.055,21.4875 27.965,21.9925 C27.875,22.4975 27.7475,22.9125 27.5825,23.2375 C27.4175,23.5625 27.2225,23.8025 26.9975,23.9575 C26.7725,24.1125 26.52,24.19 26.24,24.19 Z M37.61,25 L37.61,16.21 L40.58,16.21 L40.58,15.16 L33.38,15.16 L33.38,16.21 L36.35,16.21 L36.35,25 L37.61,25 Z M5.09,66.65 L5.09,65.135 C5.81,65.035 6.3775,64.755 6.7925,64.295 C7.2075,63.835 7.415,63.245 7.415,62.525 C7.415,61.985 7.3125,61.5425 7.1075,61.1975 C6.9025,60.8525 6.645,60.5625 6.335,60.3275 C6.025,60.0925 5.6875,59.8925 5.3225,59.7275 C4.9575,59.5625 4.62,59.3925 4.31,59.2175 C4,59.0425 3.7425,58.84 3.5375,58.61 C3.3325,58.38 3.23,58.085 3.23,57.725 C3.23,57.285 3.365,56.935 3.635,56.675 C3.905,56.415 4.27,56.285 4.73,56.285 C5.14,56.285 5.4775,56.36 5.7425,56.51 C6.0075,56.66 6.28,56.87 6.56,57.14 L6.56,57.14 L7.22,56.405 C6.95,56.115 6.6475,55.865 6.3125,55.655 C5.9775,55.445 5.57,55.315 5.09,55.265 L5.09,55.265 L5.09,53.78 L4.19,53.78 L4.19,55.295 C3.53,55.395 3.0025,55.6675 2.6075,56.1125 C2.2125,56.5575 2.015,57.115 2.015,57.785 C2.015,58.275 2.1175,58.6775 2.3225,58.9925 C2.5275,59.3075 2.785,59.575 3.095,59.795 C3.405,60.015 3.7425,60.21 4.1075,60.38 C4.4725,60.55 4.81,60.7325 5.12,60.9275 C5.43,61.1225 5.6875,61.3525 5.8925,61.6175 C6.0975,61.8825 6.2,62.215 6.2,62.615 C6.2,63.085 6.0625,63.46 5.7875,63.74 C5.5125,64.02 5.095,64.16 4.535,64.16 C4.075,64.16 3.6525,64.0625 3.2675,63.8675 C2.8825,63.6725 2.53,63.435 2.21,63.155 L2.21,63.155 L1.64,64.01 C1.96,64.3 2.345,64.5525 2.795,64.7675 C3.245,64.9825 3.71,65.115 4.19,65.165 L4.19,65.165 L4.19,66.65 L5.09,66.65 Z M15.335,65.18 C15.725,65.18 16.09,65.105 16.43,64.955 C16.77,64.805 17.07,64.595 17.33,64.325 C17.59,64.055 17.795,63.7325 17.945,63.3575 C18.095,62.9825 18.17,62.565 18.17,62.105 C18.17,61.115 17.9225,60.375 17.4275,59.885 C16.9325,59.395 16.27,59.15 15.44,59.15 C15.05,59.15 14.655,59.2575 14.255,59.4725 C13.855,59.6875 13.505,59.98 13.205,60.35 C13.215,59.59 13.29,58.9525 13.43,58.4375 C13.57,57.9225 13.755,57.505 13.985,57.185 C14.215,56.865 14.48,56.635 14.78,56.495 C15.08,56.355 15.395,56.285 15.725,56.285 C16.025,56.285 16.3125,56.3525 16.5875,56.4875 C16.8625,56.6225 17.1,56.805 17.3,57.035 L17.3,57.035 L17.99,56.27 C17.72,55.98 17.3975,55.7375 17.0225,55.5425 C16.6475,55.3475 16.2,55.25 15.68,55.25 C15.2,55.25 14.7425,55.3475 14.3075,55.5425 C13.8725,55.7375 13.485,56.0475 13.145,56.4725 C12.805,56.8975 12.535,57.4475 12.335,58.1225 C12.135,58.7975 12.035,59.615 12.035,60.575 C12.035,61.345 12.12,62.0175 12.29,62.5925 C12.46,63.1675 12.6925,63.6475 12.9875,64.0325 C13.2825,64.4175 13.63,64.705 14.03,64.895 C14.43,65.085 14.865,65.18 15.335,65.18 Z M15.335,64.205 C14.725,64.205 14.2425,63.9625 13.8875,63.4775 C13.5325,62.9925 13.315,62.28 13.235,61.34 C13.535,60.89 13.865,60.5675 14.225,60.3725 C14.585,60.1775 14.92,60.08 15.23,60.08 C15.83,60.08 16.275,60.26 16.565,60.62 C16.855,60.98 17,61.475 17,62.105 C17,62.425 16.9575,62.7125 16.8725,62.9675 C16.7875,63.2225 16.67,63.4425 16.52,63.6275 C16.37,63.8125 16.195,63.955 15.995,64.055 C15.795,64.155 15.575,64.205 15.335,64.205 Z M20.645,65.18 C20.885,65.18 21.0925,65.0925 21.2675,64.9175 C21.4425,64.7425 21.53,64.52 21.53,64.25 C21.53,63.96 21.4425,63.7275 21.2675,63.5525 C21.0925,63.3775 20.885,63.29 20.645,63.29 C20.395,63.29 20.1825,63.3775 20.0075,63.5525 C19.8325,63.7275 19.745,63.96 19.745,64.25 C19.745,64.52 19.8325,64.7425 20.0075,64.9175 C20.1825,65.0925 20.395,65.18 20.645,65.18 Z M26.24,65.18 C27.2,65.18 27.95,64.75 28.49,63.89 C29.03,63.03 29.3,61.795 29.3,60.185 C29.3,58.575 29.03,57.35 28.49,56.51 C27.95,55.67 27.2,55.25 26.24,55.25 C25.27,55.25 24.515,55.67 23.975,56.51 C23.435,57.35 23.165,58.575 23.165,60.185 C23.165,61.795 23.435,63.03 23.975,63.89 C24.515,64.75 25.27,65.18 26.24,65.18 Z M26.24,64.19 C25.68,64.19 25.2275,63.8725 24.8825,63.2375 C24.5375,62.6025 24.365,61.585 24.365,60.185 C24.365,59.485 24.41,58.885 24.5,58.385 C24.59,57.885 24.7175,57.4775 24.8825,57.1625 C25.0475,56.8475 25.245,56.615 25.475,56.465 C25.705,56.315 25.96,56.24 26.24,56.24 C26.52,56.24 26.7725,56.315 26.9975,56.465 C27.2225,56.615 27.4175,56.8475 27.5825,57.1625 C27.7475,57.4775 27.875,57.885 27.965,58.385 C28.055,58.885 28.1,59.485 28.1,60.185 C28.1,60.885 28.055,61.4875 27.965,61.9925 C27.875,62.4975 27.7475,62.9125 27.5825,63.2375 C27.4175,63.5625 27.2225,63.8025 26.9975,63.9575 C26.7725,64.1125 26.52,64.19 26.24,64.19 Z M37.61,65 L37.61,56.21 L40.58,56.21 L40.58,55.16 L33.38,55.16 L33.38,56.21 L36.35,56.21 L36.35,65 L37.61,65 Z M5.09,106.65 L5.09,105.135 C5.81,105.035 6.3775,104.755 6.7925,104.295 C7.2075,103.835 7.415,103.245 7.415,102.525 C7.415,101.985 7.3125,101.5425 7.1075,101.1975 C6.9025,100.8525 6.645,100.5625 6.335,100.3275 C6.025,100.0925 5.6875,99.8925 5.3225,99.7275 C4.9575,99.5625 4.62,99.3925 4.31,99.2175 C4,99.0425 3.7425,98.84 3.5375,98.61 C3.3325,98.38 3.23,98.085 3.23,97.725 C3.23,97.285 3.365,96.935 3.635,96.675 C3.905,96.415 4.27,96.285 4.73,96.285 C5.14,96.285 5.4775,96.36 5.7425,96.51 C6.0075,96.66 6.28,96.87 6.56,97.14 L6.56,97.14 L7.22,96.405 C6.95,96.115 6.6475,95.865 6.3125,95.655 C5.9775,95.445 5.57,95.315 5.09,95.265 L5.09,95.265 L5.09,93.78 L4.19,93.78 L4.19,95.295 C3.53,95.395 3.0025,95.6675 2.6075,96.1125 C2.2125,96.5575 2.015,97.115 2.015,97.785 C2.015,98.275 2.1175,98.6775 2.3225,98.9925 C2.5275,99.3075 2.785,99.575 3.095,99.795 C3.405,100.015 3.7425,100.21 4.1075,100.38 C4.4725,100.55 4.81,100.7325 5.12,100.9275 C5.43,101.1225 5.6875,101.3525 5.8925,101.6175 C6.0975,101.8825 6.2,102.215 6.2,102.615 C6.2,103.085 6.0625,103.46 5.7875,103.74 C5.5125,104.02 5.095,104.16 4.535,104.16 C4.075,104.16 3.6525,104.0625 3.2675,103.8675 C2.8825,103.6725 2.53,103.435 2.21,103.155 L2.21,103.155 L1.64,104.01 C1.96,104.3 2.345,104.5525 2.795,104.7675 C3.245,104.9825 3.71,105.115 4.19,105.165 L4.19,105.165 L4.19,106.65 L5.09,106.65 Z M14.825,105.18 C15.245,105.18 15.6475,105.1075 16.0325,104.9625 C16.4175,104.8175 16.76,104.6075 17.06,104.3325 C17.36,104.0575 17.6,103.72 17.78,103.32 C17.96,102.92 18.05,102.46 18.05,101.94 C18.05,101.42 17.9725,100.9725 17.8175,100.5975 C17.6625,100.2225 17.45,99.9125 17.18,99.6675 C16.91,99.4225 16.595,99.24 16.235,99.12 C15.875,99 15.49,98.94 15.08,98.94 C14.79,98.94 14.53,98.975 14.3,99.045 C14.07,99.115 13.84,99.21 13.61,99.33 L13.61,99.33 L13.865,96.495 L17.57,96.495 L17.57,95.43 L12.785,95.43 L12.47,100.035 L13.13,100.455 C13.42,100.265 13.6825,100.12 13.9175,100.02 C14.1525,99.92 14.435,99.87 14.765,99.87 C15.385,99.87 15.88,100.055 16.25,100.425 C16.62,100.795 16.805,101.31 16.805,101.97 C16.805,102.3 16.75,102.6 16.64,102.87 C16.53,103.14 16.38,103.37 16.19,103.56 C16,103.75 15.7775,103.8975 15.5225,104.0025 C15.2675,104.1075 14.995,104.16 14.705,104.16 C14.145,104.16 13.6725,104.05 13.2875,103.83 C12.9025,103.61 12.57,103.355 12.29,103.065 L12.29,103.065 L11.69,103.875 C11.85,104.045 12.0325,104.2075 12.2375,104.3625 C12.4425,104.5175 12.6725,104.655 12.9275,104.775 C13.1825,104.895 13.4675,104.9925 13.7825,105.0675 C14.0975,105.1425 14.445,105.18 14.825,105.18 Z M20.645,105.18 C20.885,105.18 21.0925,105.0925 21.2675,104.9175 C21.4425,104.7425 21.53,104.52 21.53,104.25 C21.53,103.96 21.4425,103.7275 21.2675,103.5525 C21.0925,103.3775 20.885,103.29 20.645,103.29 C20.395,103.29 20.1825,103.3775 20.0075,103.5525 C19.8325,103.7275 19.745,103.96 19.745,104.25 C19.745,104.52 19.8325,104.7425 20.0075,104.9175 C20.1825,105.0925 20.395,105.18 20.645,105.18 Z M26.24,105.18 C27.2,105.18 27.95,104.75 28.49,103.89 C29.03,103.03 29.3,101.795 29.3,100.185 C29.3,98.575 29.03,97.35 28.49,96.51 C27.95,95.67 27.2,95.25 26.24,95.25 C25.27,95.25 24.515,95.67 23.975,96.51 C23.435,97.35 23.165,98.575 23.165,100.185 C23.165,101.795 23.435,103.03 23.975,103.89 C24.515,104.75 25.27,105.18 26.24,105.18 Z M26.24,104.19 C25.68,104.19 25.2275,103.8725 24.8825,103.2375 C24.5375,102.6025 24.365,101.585 24.365,100.185 C24.365,99.485 24.41,98.885 24.5,98.385 C24.59,97.885 24.7175,97.4775 24.8825,97.1625 C25.0475,96.8475 25.245,96.615 25.475,96.465 C25.705,96.315 25.96,96.24 26.24,96.24 C26.52,96.24 26.7725,96.315 26.9975,96.465 C27.2225,96.615 27.4175,96.8475 27.5825,97.1625 C27.7475,97.4775 27.875,97.885 27.965,98.385 C28.055,98.885 28.1,99.485 28.1,100.185 C28.1,100.885 28.055,101.4875 27.965,101.9925 C27.875,102.4975 27.7475,102.9125 27.5825,103.2375 C27.4175,103.5625 27.2225,103.8025 26.9975,103.9575 C26.7725,104.1125 26.52,104.19 26.24,104.19 Z M37.61,105 L37.61,96.21 L40.58,96.21 L40.58,95.16 L33.38,95.16 L33.38,96.21 L36.35,96.21 L36.35,105 L37.61,105 Z M5.09,146.65 L5.09,145.135 C5.81,145.035 6.3775,144.755 6.7925,144.295 C7.2075,143.835 7.415,143.245 7.415,142.525 C7.415,141.985 7.3125,141.5425 7.1075,141.1975 C6.9025,140.8525 6.645,140.5625 6.335,140.3275 C6.025,140.0925 5.6875,139.8925 5.3225,139.7275 C4.9575,139.5625 4.62,139.3925 4.31,139.2175 C4,139.0425 3.7425,138.84 3.5375,138.61 C3.3325,138.38 3.23,138.085 3.23,137.725 C3.23,137.285 3.365,136.935 3.635,136.675 C3.905,136.415 4.27,136.285 4.73,136.285 C5.14,136.285 5.4775,136.36 5.7425,136.51 C6.0075,136.66 6.28,136.87 6.56,137.14 L6.56,137.14 L7.22,136.405 C6.95,136.115 6.6475,135.865 6.3125,135.655 C5.9775,135.445 5.57,135.315 5.09,135.265 L5.09,135.265 L5.09,133.78 L4.19,133.78 L4.19,135.295 C3.53,135.395 3.0025,135.6675 2.6075,136.1125 C2.2125,136.5575 2.015,137.115 2.015,137.785 C2.015,138.275 2.1175,138.6775 2.3225,138.9925 C2.5275,139.3075 2.785,139.575 3.095,139.795 C3.405,140.015 3.7425,140.21 4.1075,140.38 C4.4725,140.55 4.81,140.7325 5.12,140.9275 C5.43,141.1225 5.6875,141.3525 5.8925,141.6175 C6.0975,141.8825 6.2,142.215 6.2,142.615 C6.2,143.085 6.0625,143.46 5.7875,143.74 C5.5125,144.02 5.095,144.16 4.535,144.16 C4.075,144.16 3.6525,144.0625 3.2675,143.8675 C2.8825,143.6725 2.53,143.435 2.21,143.155 L2.21,143.155 L1.64,144.01 C1.96,144.3 2.345,144.5525 2.795,144.7675 C3.245,144.9825 3.71,145.115 4.19,145.165 L4.19,145.165 L4.19,146.65 L5.09,146.65 Z M17.045,145 L17.045,142.36 L18.35,142.36 L18.35,141.37 L17.045,141.37 L17.045,135.43 L15.665,135.43 L11.57,141.55 L11.57,142.36 L15.875,142.36 L15.875,145 L17.045,145 Z M15.875,141.37 L12.875,141.37 L15.11,138.1 C15.25,137.87 15.385,137.645 15.515,137.425 C15.645,137.205 15.77,136.98 15.89,136.75 L15.89,136.75 L15.95,136.75 C15.93,137.01 15.9125,137.3175 15.8975,137.6725 C15.8825,138.0275 15.875,138.335 15.875,138.595 L15.875,138.595 L15.875,141.37 Z M20.645,145.18 C20.885,145.18 21.0925,145.0925 21.2675,144.9175 C21.4425,144.7425 21.53,144.52 21.53,144.25 C21.53,143.96 21.4425,143.7275 21.2675,143.5525 C21.0925,143.3775 20.885,143.29 20.645,143.29 C20.395,143.29 20.1825,143.3775 20.0075,143.5525 C19.8325,143.7275 19.745,143.96 19.745,144.25 C19.745,144.52 19.8325,144.7425 20.0075,144.9175 C20.1825,145.0925 20.395,145.18 20.645,145.18 Z M26.24,145.18 C27.2,145.18 27.95,144.75 28.49,143.89 C29.03,143.03 29.3,141.795 29.3,140.185 C29.3,138.575 29.03,137.35 28.49,136.51 C27.95,135.67 27.2,135.25 26.24,135.25 C25.27,135.25 24.515,135.67 23.975,136.51 C23.435,137.35 23.165,138.575 23.165,140.185 C23.165,141.795 23.435,143.03 23.975,143.89 C24.515,144.75 25.27,145.18 26.24,145.18 Z M26.24,144.19 C25.68,144.19 25.2275,143.8725 24.8825,143.2375 C24.5375,142.6025 24.365,141.585 24.365,140.185 C24.365,139.485 24.41,138.885 24.5,138.385 C24.59,137.885 24.7175,137.4775 24.8825,137.1625 C25.0475,136.8475 25.245,136.615 25.475,136.465 C25.705,136.315 25.96,136.24 26.24,136.24 C26.52,136.24 26.7725,136.315 26.9975,136.465 C27.2225,136.615 27.4175,136.8475 27.5825,137.1625 C27.7475,137.4775 27.875,137.885 27.965,138.385 C28.055,138.885 28.1,139.485 28.1,140.185 C28.1,140.885 28.055,141.4875 27.965,141.9925 C27.875,142.4975 27.7475,142.9125 27.5825,143.2375 C27.4175,143.5625 27.2225,143.8025 26.9975,143.9575 C26.7725,144.1125 26.52,144.19 26.24,144.19 Z M37.61,145 L37.61,136.21 L40.58,136.21 L40.58,135.16 L33.38,135.16 L33.38,136.21 L36.35,136.21 L36.35,145 L37.61,145 Z M5.09,186.65 L5.09,185.135 C5.81,185.035 6.3775,184.755 6.7925,184.295 C7.2075,183.835 7.415,183.245 7.415,182.525 C7.415,181.985 7.3125,181.5425 7.1075,181.1975 C6.9025,180.8525 6.645,180.5625 6.335,180.3275 C6.025,180.0925 5.6875,179.8925 5.3225,179.7275 C4.9575,179.5625 4.62,179.3925 4.31,179.2175 C4,179.0425 3.7425,178.84 3.5375,178.61 C3.3325,178.38 3.23,178.085 3.23,177.725 C3.23,177.285 3.365,176.935 3.635,176.675 C3.905,176.415 4.27,176.285 4.73,176.285 C5.14,176.285 5.4775,176.36 5.7425,176.51 C6.0075,176.66 6.28,176.87 6.56,177.14 L6.56,177.14 L7.22,176.405 C6.95,176.115 6.6475,175.865 6.3125,175.655 C5.9775,175.445 5.57,175.315 5.09,175.265 L5.09,175.265 L5.09,173.78 L4.19,173.78 L4.19,175.295 C3.53,175.395 3.0025,175.6675 2.6075,176.1125 C2.2125,176.5575 2.015,177.115 2.015,177.785 C2.015,178.275 2.1175,178.6775 2.3225,178.9925 C2.5275,179.3075 2.785,179.575 3.095,179.795 C3.405,180.015 3.7425,180.21 4.1075,180.38 C4.4725,180.55 4.81,180.7325 5.12,180.9275 C5.43,181.1225 5.6875,181.3525 5.8925,181.6175 C6.0975,181.8825 6.2,182.215 6.2,182.615 C6.2,183.085 6.0625,183.46 5.7875,183.74 C5.5125,184.02 5.095,184.16 4.535,184.16 C4.075,184.16 3.6525,184.0625 3.2675,183.8675 C2.8825,183.6725 2.53,183.435 2.21,183.155 L2.21,183.155 L1.64,184.01 C1.96,184.3 2.345,184.5525 2.795,184.7675 C3.245,184.9825 3.71,185.115 4.19,185.165 L4.19,185.165 L4.19,186.65 L5.09,186.65 Z M14.855,185.18 C15.295,185.18 15.705,185.1175 16.085,184.9925 C16.465,184.8675 16.7975,184.6875 17.0825,184.4525 C17.3675,184.2175 17.5925,183.93 17.7575,183.59 C17.9225,183.25 18.005,182.87 18.005,182.45 C18.005,182.12 17.9525,181.82 17.8475,181.55 C17.7425,181.28 17.595,181.0425 17.405,180.8375 C17.215,180.6325 16.995,180.4625 16.745,180.3275 C16.495,180.1925 16.225,180.09 15.935,180.02 L15.935,180.02 L15.935,179.96 C16.455,179.76 16.875,179.475 17.195,179.105 C17.515,178.735 17.675,178.26 17.675,177.68 C17.675,177.29 17.605,176.945 17.465,176.645 C17.325,176.345 17.1275,176.0925 16.8725,175.8875 C16.6175,175.6825 16.315,175.525 15.965,175.415 C15.615,175.305 15.23,175.25 14.81,175.25 C14.24,175.25 13.7325,175.3625 13.2875,175.5875 C12.8425,175.8125 12.435,176.1 12.065,176.45 L12.065,176.45 L12.725,177.23 C13.015,176.94 13.3275,176.705 13.6625,176.525 C13.9975,176.345 14.365,176.255 14.765,176.255 C15.275,176.255 15.6775,176.39 15.9725,176.66 C16.2675,176.93 16.415,177.3 16.415,177.77 C16.415,178.02 16.37,178.255 16.28,178.475 C16.19,178.695 16.0375,178.885 15.8225,179.045 C15.6075,179.205 15.3275,179.33 14.9825,179.42 C14.6375,179.51 14.21,179.555 13.7,179.555 L13.7,179.555 L13.7,180.5 C14.27,180.5 14.75,180.545 15.14,180.635 C15.53,180.725 15.845,180.855 16.085,181.025 C16.325,181.195 16.4975,181.3975 16.6025,181.6325 C16.7075,181.8675 16.76,182.125 16.76,182.405 C16.76,182.945 16.575,183.3725 16.205,183.6875 C15.835,184.0025 15.36,184.16 14.78,184.16 C14.21,184.16 13.7325,184.045 13.3475,183.815 C12.9625,183.585 12.625,183.32 12.335,183.02 L12.335,183.02 L11.705,183.83 C11.865,184.01 12.0475,184.18 12.2525,184.34 C12.4575,184.5 12.69,184.6425 12.95,184.7675 C13.21,184.8925 13.4975,184.9925 13.8125,185.0675 C14.1275,185.1425 14.475,185.18 14.855,185.18 Z M20.645,185.18 C20.885,185.18 21.0925,185.0925 21.2675,184.9175 C21.4425,184.7425 21.53,184.52 21.53,184.25 C21.53,183.96 21.4425,183.7275 21.2675,183.5525 C21.0925,183.3775 20.885,183.29 20.645,183.29 C20.395,183.29 20.1825,183.3775 20.0075,183.5525 C19.8325,183.7275 19.745,183.96 19.745,184.25 C19.745,184.52 19.8325,184.7425 20.0075,184.9175 C20.1825,185.0925 20.395,185.18 20.645,185.18 Z M26.24,185.18 C27.2,185.18 27.95,184.75 28.49,183.89 C29.03,183.03 29.3,181.795 29.3,180.185 C29.3,178.575 29.03,177.35 28.49,176.51 C27.95,175.67 27.2,175.25 26.24,175.25 C25.27,175.25 24.515,175.67 23.975,176.51 C23.435,177.35 23.165,178.575 23.165,180.185 C23.165,181.795 23.435,183.03 23.975,183.89 C24.515,184.75 25.27,185.18 26.24,185.18 Z M26.24,184.19 C25.68,184.19 25.2275,183.8725 24.8825,183.2375 C24.5375,182.6025 24.365,181.585 24.365,180.185 C24.365,179.485 24.41,178.885 24.5,178.385 C24.59,177.885 24.7175,177.4775 24.8825,177.1625 C25.0475,176.8475 25.245,176.615 25.475,176.465 C25.705,176.315 25.96,176.24 26.24,176.24 C26.52,176.24 26.7725,176.315 26.9975,176.465 C27.2225,176.615 27.4175,176.8475 27.5825,177.1625 C27.7475,177.4775 27.875,177.885 27.965,178.385 C28.055,178.885 28.1,179.485 28.1,180.185 C28.1,180.885 28.055,181.4875 27.965,181.9925 C27.875,182.4975 27.7475,182.9125 27.5825,183.2375 C27.4175,183.5625 27.2225,183.8025 26.9975,183.9575 C26.7725,184.1125 26.52,184.19 26.24,184.19 Z M37.61,185 L37.61,176.21 L40.58,176.21 L40.58,175.16 L33.38,175.16 L33.38,176.21 L36.35,176.21 L36.35,185 L37.61,185 Z M5.09,226.65 L5.09,225.135 C5.81,225.035 6.3775,224.755 6.7925,224.295 C7.2075,223.835 7.415,223.245 7.415,222.525 C7.415,221.985 7.3125,221.5425 7.1075,221.1975 C6.9025,220.8525 6.645,220.5625 6.335,220.3275 C6.025,220.0925 5.6875,219.8925 5.3225,219.7275 C4.9575,219.5625 4.62,219.3925 4.31,219.2175 C4,219.0425 3.7425,218.84 3.5375,218.61 C3.3325,218.38 3.23,218.085 3.23,217.725 C3.23,217.285 3.365,216.935 3.635,216.675 C3.905,216.415 4.27,216.285 4.73,216.285 C5.14,216.285 5.4775,216.36 5.7425,216.51 C6.0075,216.66 6.28,216.87 6.56,217.14 L6.56,217.14 L7.22,216.405 C6.95,216.115 6.6475,215.865 6.3125,215.655 C5.9775,215.445 5.57,215.315 5.09,215.265 L5.09,215.265 L5.09,213.78 L4.19,213.78 L4.19,215.295 C3.53,215.395 3.0025,215.6675 2.6075,216.1125 C2.2125,216.5575 2.015,217.115 2.015,217.785 C2.015,218.275 2.1175,218.6775 2.3225,218.9925 C2.5275,219.3075 2.785,219.575 3.095,219.795 C3.405,220.015 3.7425,220.21 4.1075,220.38 C4.4725,220.55 4.81,220.7325 5.12,220.9275 C5.43,221.1225 5.6875,221.3525 5.8925,221.6175 C6.0975,221.8825 6.2,222.215 6.2,222.615 C6.2,223.085 6.0625,223.46 5.7875,223.74 C5.5125,224.02 5.095,224.16 4.535,224.16 C4.075,224.16 3.6525,224.0625 3.2675,223.8675 C2.8825,223.6725 2.53,223.435 2.21,223.155 L2.21,223.155 L1.64,224.01 C1.96,224.3 2.345,224.5525 2.795,224.7675 C3.245,224.9825 3.71,225.115 4.19,225.165 L4.19,225.165 L4.19,226.65 L5.09,226.65 Z M18.095,225 L18.095,223.935 L15.32,223.935 C15.07,223.935 14.805,223.945 14.525,223.965 C14.245,223.985 13.975,224.005 13.715,224.025 C14.285,223.435 14.8075,222.8775 15.2825,222.3525 C15.7575,221.8275 16.1675,221.3225 16.5125,220.8375 C16.8575,220.3525 17.1275,219.8825 17.3225,219.4275 C17.5175,218.9725 17.615,218.52 17.615,218.07 C17.615,217.22 17.36,216.5375 16.85,216.0225 C16.34,215.5075 15.64,215.25 14.75,215.25 C14.12,215.25 13.58,215.3825 13.13,215.6475 C12.68,215.9125 12.255,216.265 11.855,216.705 L11.855,216.705 L12.56,217.41 C12.84,217.09 13.15,216.8175 13.49,216.5925 C13.83,216.3675 14.2,216.255 14.6,216.255 C15.21,216.255 15.665,216.43 15.965,216.78 C16.265,217.13 16.415,217.58 16.415,218.13 C16.415,218.52 16.315,218.9225 16.115,219.3375 C15.915,219.7525 15.625,220.2075 15.245,220.7025 C14.865,221.1975 14.395,221.735 13.835,222.315 C13.275,222.895 12.635,223.545 11.915,224.265 L11.915,224.265 L11.915,225 L18.095,225 Z M20.645,225.18 C20.885,225.18 21.0925,225.0925 21.2675,224.9175 C21.4425,224.7425 21.53,224.52 21.53,224.25 C21.53,223.96 21.4425,223.7275 21.2675,223.5525 C21.0925,223.3775 20.885,223.29 20.645,223.29 C20.395,223.29 20.1825,223.3775 20.0075,223.5525 C19.8325,223.7275 19.745,223.96 19.745,224.25 C19.745,224.52 19.8325,224.7425 20.0075,224.9175 C20.1825,225.0925 20.395,225.18 20.645,225.18 Z M26.24,225.18 C27.2,225.18 27.95,224.75 28.49,223.89 C29.03,223.03 29.3,221.795 29.3,220.185 C29.3,218.575 29.03,217.35 28.49,216.51 C27.95,215.67 27.2,215.25 26.24,215.25 C25.27,215.25 24.515,215.67 23.975,216.51 C23.435,217.35 23.165,218.575 23.165,220.185 C23.165,221.795 23.435,223.03 23.975,223.89 C24.515,224.75 25.27,225.18 26.24,225.18 Z M26.24,224.19 C25.68,224.19 25.2275,223.8725 24.8825,223.2375 C24.5375,222.6025 24.365,221.585 24.365,220.185 C24.365,219.485 24.41,218.885 24.5,218.385 C24.59,217.885 24.7175,217.4775 24.8825,217.1625 C25.0475,216.8475 25.245,216.615 25.475,216.465 C25.705,216.315 25.96,216.24 26.24,216.24 C26.52,216.24 26.7725,216.315 26.9975,216.465 C27.2225,216.615 27.4175,216.8475 27.5825,217.1625 C27.7475,217.4775 27.875,217.885 27.965,218.385 C28.055,218.885 28.1,219.485 28.1,220.185 C28.1,220.885 28.055,221.4875 27.965,221.9925 C27.875,222.4975 27.7475,222.9125 27.5825,223.2375 C27.4175,223.5625 27.2225,223.8025 26.9975,223.9575 C26.7725,224.1125 26.52,224.19 26.24,224.19 Z M37.61,225 L37.61,216.21 L40.58,216.21 L40.58,215.16 L33.38,215.16 L33.38,216.21 L36.35,216.21 L36.35,225 L37.61,225 Z M5.09,266.65 L5.09,265.135 C5.81,265.035 6.3775,264.755 6.7925,264.295 C7.2075,263.835 7.415,263.245 7.415,262.525 C7.415,261.985 7.3125,261.5425 7.1075,261.1975 C6.9025,260.8525 6.645,260.5625 6.335,260.3275 C6.025,260.0925 5.6875,259.8925 5.3225,259.7275 C4.9575,259.5625 4.62,259.3925 4.31,259.2175 C4,259.0425 3.7425,258.84 3.5375,258.61 C3.3325,258.38 3.23,258.085 3.23,257.725 C3.23,257.285 3.365,256.935 3.635,256.675 C3.905,256.415 4.27,256.285 4.73,256.285 C5.14,256.285 5.4775,256.36 5.7425,256.51 C6.0075,256.66 6.28,256.87 6.56,257.14 L6.56,257.14 L7.22,256.405 C6.95,256.115 6.6475,255.865 6.3125,255.655 C5.9775,255.445 5.57,255.315 5.09,255.265 L5.09,255.265 L5.09,253.78 L4.19,253.78 L4.19,255.295 C3.53,255.395 3.0025,255.6675 2.6075,256.1125 C2.2125,256.5575 2.015,257.115 2.015,257.785 C2.015,258.275 2.1175,258.6775 2.3225,258.9925 C2.5275,259.3075 2.785,259.575 3.095,259.795 C3.405,260.015 3.7425,260.21 4.1075,260.38 C4.4725,260.55 4.81,260.7325 5.12,260.9275 C5.43,261.1225 5.6875,261.3525 5.8925,261.6175 C6.0975,261.8825 6.2,262.215 6.2,262.615 C6.2,263.085 6.0625,263.46 5.7875,263.74 C5.5125,264.02 5.095,264.16 4.535,264.16 C4.075,264.16 3.6525,264.0625 3.2675,263.8675 C2.8825,263.6725 2.53,263.435 2.21,263.155 L2.21,263.155 L1.64,264.01 C1.96,264.3 2.345,264.5525 2.795,264.7675 C3.245,264.9825 3.71,265.115 4.19,265.165 L4.19,265.165 L4.19,266.65 L5.09,266.65 Z M17.9,265 L17.9,263.98 L15.92,263.98 L15.92,255.43 L14.975,255.43 C14.715,255.59 14.4225,255.7275 14.0975,255.8425 C13.7725,255.9575 13.39,256.055 12.95,256.135 L12.95,256.135 L12.95,256.93 L14.69,256.93 L14.69,263.98 L12.5,263.98 L12.5,265 L17.9,265 Z M20.645,265.18 C20.885,265.18 21.0925,265.0925 21.2675,264.9175 C21.4425,264.7425 21.53,264.52 21.53,264.25 C21.53,263.96 21.4425,263.7275 21.2675,263.5525 C21.0925,263.3775 20.885,263.29 20.645,263.29 C20.395,263.29 20.1825,263.3775 20.0075,263.5525 C19.8325,263.7275 19.745,263.96 19.745,264.25 C19.745,264.52 19.8325,264.7425 20.0075,264.9175 C20.1825,265.0925 20.395,265.18 20.645,265.18 Z M26.24,265.18 C27.2,265.18 27.95,264.75 28.49,263.89 C29.03,263.03 29.3,261.795 29.3,260.185 C29.3,258.575 29.03,257.35 28.49,256.51 C27.95,255.67 27.2,255.25 26.24,255.25 C25.27,255.25 24.515,255.67 23.975,256.51 C23.435,257.35 23.165,258.575 23.165,260.185 C23.165,261.795 23.435,263.03 23.975,263.89 C24.515,264.75 25.27,265.18 26.24,265.18 Z M26.24,264.19 C25.68,264.19 25.2275,263.8725 24.8825,263.2375 C24.5375,262.6025 24.365,261.585 24.365,260.185 C24.365,259.485 24.41,258.885 24.5,258.385 C24.59,257.885 24.7175,257.4775 24.8825,257.1625 C25.0475,256.8475 25.245,256.615 25.475,256.465 C25.705,256.315 25.96,256.24 26.24,256.24 C26.52,256.24 26.7725,256.315 26.9975,256.465 C27.2225,256.615 27.4175,256.8475 27.5825,257.1625 C27.7475,257.4775 27.875,257.885 27.965,258.385 C28.055,258.885 28.1,259.485 28.1,260.185 C28.1,260.885 28.055,261.4875 27.965,261.9925 C27.875,262.4975 27.7475,262.9125 27.5825,263.2375 C27.4175,263.5625 27.2225,263.8025 26.9975,263.9575 C26.7725,264.1125 26.52,264.19 26.24,264.19 Z M37.61,265 L37.61,256.21 L40.58,256.21 L40.58,255.16 L33.38,255.16 L33.38,256.21 L36.35,256.21 L36.35,265 L37.61,265 Z M27.32,306.65 L27.32,305.135 C28.04,305.035 28.6075,304.755 29.0225,304.295 C29.4375,303.835 29.645,303.245 29.645,302.525 C29.645,301.985 29.5425,301.5425 29.3375,301.1975 C29.1325,300.8525 28.875,300.5625 28.565,300.3275 C28.255,300.0925 27.9175,299.8925 27.5525,299.7275 C27.1875,299.5625 26.85,299.3925 26.54,299.2175 C26.23,299.0425 25.9725,298.84 25.7675,298.61 C25.5625,298.38 25.46,298.085 25.46,297.725 C25.46,297.285 25.595,296.935 25.865,296.675 C26.135,296.415 26.5,296.285 26.96,296.285 C27.37,296.285 27.7075,296.36 27.9725,296.51 C28.2375,296.66 28.51,296.87 28.79,297.14 L28.79,297.14 L29.45,296.405 C29.18,296.115 28.8775,295.865 28.5425,295.655 C28.2075,295.445 27.8,295.315 27.32,295.265 L27.32,295.265 L27.32,293.78 L26.42,293.78 L26.42,295.295 C25.76,295.395 25.2325,295.6675 24.8375,296.1125 C24.4425,296.5575 24.245,297.115 24.245,297.785 C24.245,298.275 24.3475,298.6775 24.5525,298.9925 C24.7575,299.3075 25.015,299.575 25.325,299.795 C25.635,300.015 25.9725,300.21 26.3375,300.38 C26.7025,300.55 27.04,300.7325 27.35,300.9275 C27.66,301.1225 27.9175,301.3525 28.1225,301.6175 C28.3275,301.8825 28.43,302.215 28.43,302.615 C28.43,303.085 28.2925,303.46 28.0175,303.74 C27.7425,304.02 27.325,304.16 26.765,304.16 C26.305,304.16 25.8825,304.0625 25.4975,303.8675 C25.1125,303.6725 24.76,303.435 24.44,303.155 L24.44,303.155 L23.87,304.01 C24.19,304.3 24.575,304.5525 25.025,304.7675 C25.475,304.9825 25.94,305.115 26.42,305.165 L26.42,305.165 L26.42,306.65 L27.32,306.65 Z M37.28,305.18 C38.24,305.18 38.99,304.75 39.53,303.89 C40.07,303.03 40.34,301.795 40.34,300.185 C40.34,298.575 40.07,297.35 39.53,296.51 C38.99,295.67 38.24,295.25 37.28,295.25 C36.31,295.25 35.555,295.67 35.015,296.51 C34.475,297.35 34.205,298.575 34.205,300.185 C34.205,301.795 34.475,303.03 35.015,303.89 C35.555,304.75 36.31,305.18 37.28,305.18 Z M37.28,304.19 C36.72,304.19 36.2675,303.8725 35.9225,303.2375 C35.5775,302.6025 35.405,301.585 35.405,300.185 C35.405,299.485 35.45,298.885 35.54,298.385 C35.63,297.885 35.7575,297.4775 35.9225,297.1625 C36.0875,296.8475 36.285,296.615 36.515,296.465 C36.745,296.315 37,296.24 37.28,296.24 C37.56,296.24 37.8125,296.315 38.0375,296.465 C38.2625,296.615 38.4575,296.8475 38.6225,297.1625 C38.7875,297.4775 38.915,297.885 39.005,298.385 C39.095,298.885 39.14,299.485 39.14,300.185 C39.14,300.885 39.095,301.4875 39.005,301.9925 C38.915,302.4975 38.7875,302.9125 38.6225,303.2375 C38.4575,303.5625 38.2625,303.8025 38.0375,303.9575 C37.8125,304.1125 37.56,304.19 37.28,304.19 Z" id="$7.0T$6.0T$5.0T$4.0T$3.0T$2.0T$1.0T$0" fill="#666666" fill-rule="nonzero"></path>
            </g>
        </g>
    </g>
</svg>