<?xml version="1.0" encoding="UTF-8"?>
<svg width="291px" height="92px" viewBox="0 0 291 92" version="1.1" xmlns="http://www.w3.org/2000/svg" xmlns:xlink="http://www.w3.org/1999/xlink">
    <title>anecdote-spending-4</title>
    <defs>
        <polygon id="path-1" points="0.000157264957 0.744882759 75.2905983 0.744882759 75.2905983 91.9517793 0.000157264957 91.9517793"></polygon>
        <polygon id="path-3" points="1.16273846 0.389407692 2.93196923 0.389407692 2.93196923 1.76923077 1.16273846 1.76923077"></polygon>
        <polygon id="path-5" points="0.0836846154 0.389407692 1.85291538 0.389407692 1.85291538 1.76923077 0.0836846154 1.76923077"></polygon>
    </defs>
    <g id="02.-Anecdote-Cards" stroke="none" stroke-width="1" fill="none" fill-rule="evenodd">
        <g id="Anecdote-Cards-(Desktop/Tablet)---SVG" transform="translate(-1639.000000, -999.000000)">
            <g id="anecdote-spending-4" transform="translate(1639.000000, 999.000000)">
                <path d="M129.912,17 L129.912,11.4 L131.256,11.4 L131.256,10.126 L129.912,10.126 L129.912,9.384 C129.912,8.60933333 130.201333,8.222 130.78,8.222 C131.032,8.222 131.284,8.278 131.536,8.39 L131.536,8.39 L131.844,7.186 C131.685333,7.12066667 131.496333,7.06466667 131.277,7.018 C131.057667,6.97133333 130.826667,6.948 130.584,6.948 C130.173333,6.948 129.825667,7.00866667 129.541,7.13 C129.256333,7.25133333 129.020667,7.42166667 128.834,7.641 C128.647333,7.86033333 128.512,8.12166667 128.428,8.425 C128.344,8.72833333 128.302,9.05733333 128.302,9.412 L128.302,9.412 L128.302,10.126 L127.378,10.196 L127.378,11.4 L128.302,11.4 L128.302,17 L129.912,17 Z M134.07,17 L134.07,12.8 C134.284667,12.2773333 134.541333,11.911 134.84,11.701 C135.138667,11.491 135.423333,11.386 135.694,11.386 C135.843333,11.386 135.969333,11.3953333 136.072,11.414 C136.174667,11.4326667 136.286667,11.4606667 136.408,11.498 L136.408,11.498 L136.688,10.098 C136.492,10.0046667 136.230667,9.958 135.904,9.958 C135.54,9.958 135.185333,10.077 134.84,10.315 C134.494667,10.553 134.200667,10.896 133.958,11.344 L133.958,11.344 L133.902,11.344 L133.79,10.126 L132.46,10.126 L132.46,17 L134.07,17 Z M140.356,17.168 C140.785333,17.168 141.198333,17.0886667 141.595,16.93 C141.991667,16.7713333 142.339333,16.538 142.638,16.23 C142.936667,15.922 143.177,15.544 143.359,15.096 C143.541,14.648 143.632,14.1393333 143.632,13.57 C143.632,13.0006667 143.541,12.492 143.359,12.044 C143.177,11.596 142.936667,11.218 142.638,10.91 C142.339333,10.602 141.991667,10.3663333 141.595,10.203 C141.198333,10.0396667 140.785333,9.958 140.356,9.958 C139.926667,9.958 139.516,10.0396667 139.124,10.203 C138.732,10.3663333 138.384333,10.602 138.081,10.91 C137.777667,11.218 137.537333,11.596 137.36,12.044 C137.182667,12.492 137.094,13.0006667 137.094,13.57 C137.094,14.1393333 137.182667,14.648 137.36,15.096 C137.537333,15.544 137.777667,15.922 138.081,16.23 C138.384333,16.538 138.732,16.7713333 139.124,16.93 C139.516,17.0886667 139.926667,17.168 140.356,17.168 Z M140.356,15.852 C139.852,15.852 139.457667,15.6443333 139.173,15.229 C138.888333,14.8136667 138.746,14.2606667 138.746,13.57 C138.746,12.87 138.888333,12.3123333 139.173,11.897 C139.457667,11.4816667 139.852,11.274 140.356,11.274 C140.86,11.274 141.256667,11.4816667 141.546,11.897 C141.835333,12.3123333 141.98,12.87 141.98,13.57 C141.98,14.2606667 141.835333,14.8136667 141.546,15.229 C141.256667,15.6443333 140.86,15.852 140.356,15.852 Z M146.838,17 L146.838,12.198 C147.37,11.6286667 147.850667,11.344 148.28,11.344 C148.644,11.344 148.912333,11.4606667 149.085,11.694 C149.257667,11.9273333 149.344,12.3286667 149.344,12.898 L149.344,12.898 L149.344,17 L150.954,17 L150.954,12.198 C151.486,11.6286667 151.966667,11.344 152.396,11.344 C152.750667,11.344 153.014333,11.4606667 153.187,11.694 C153.359667,11.9273333 153.446,12.3286667 153.446,12.898 L153.446,12.898 L153.446,17 L155.07,17 L155.07,12.688 C155.07,11.8106667 154.897333,11.1363333 154.552,10.665 C154.206667,10.1936667 153.67,9.958 152.942,9.958 C152.503333,9.958 152.106667,10.0746667 151.752,10.308 C151.397333,10.5413333 151.056667,10.8353333 150.73,11.19 C150.571333,10.798 150.340333,10.4946667 150.037,10.28 C149.733667,10.0653333 149.33,9.958 148.826,9.958 C148.396667,9.958 148.011667,10.0653333 147.671,10.28 C147.330333,10.4946667 147.015333,10.756 146.726,11.064 L146.726,11.064 L146.67,11.064 L146.558,10.126 L145.228,10.126 L145.228,17 L146.838,17 Z M162.854,17 L163.96,12.184 C164.034667,11.8293333 164.107,11.477 164.177,11.127 C164.247,10.777 164.314667,10.4246667 164.38,10.07 L164.38,10.07 L164.436,10.07 C164.492,10.4246667 164.555,10.777 164.625,11.127 C164.695,11.477 164.767333,11.8293333 164.842,12.184 L164.842,12.184 L165.976,17 L167.992,17 L169.742,7.844 L168.188,7.844 L167.39,12.464 C167.315333,12.9493333 167.243,13.4346667 167.173,13.92 C167.103,14.4053333 167.030667,14.8953333 166.956,15.39 L166.956,15.39 L166.9,15.39 C166.797333,14.8953333 166.694667,14.403 166.592,13.913 C166.489333,13.423 166.386667,12.94 166.284,12.464 L166.284,12.464 L165.164,7.844 L163.75,7.844 L162.63,12.464 C162.527333,12.9493333 162.427,13.437 162.329,13.927 C162.231,14.417 162.130667,14.9046667 162.028,15.39 L162.028,15.39 L161.972,15.39 L161.972,15.39 L161.748,13.934 C161.673333,13.4486667 161.598667,12.9586667 161.524,12.464 L161.524,12.464 L160.726,7.844 L159.06,7.844 L160.88,17 L162.854,17 Z M172.5,17.168 C172.910667,17.168 173.291,17.0793333 173.641,16.902 C173.991,16.7246667 174.32,16.5053333 174.628,16.244 L174.628,16.244 L174.684,16.244 L174.796,17 L176.126,17 L176.126,12.926 C176.126,11.9646667 175.913667,11.2296667 175.489,10.721 C175.064333,10.2123333 174.422667,9.958 173.564,9.958 C173.013333,9.958 172.5,10.0466667 172.024,10.224 C171.548,10.4013333 171.118667,10.6113333 170.736,10.854 L170.736,10.854 L171.324,11.932 C171.632,11.7453333 171.947,11.5866667 172.269,11.456 C172.591,11.3253333 172.92,11.26 173.256,11.26 C173.489333,11.26 173.685333,11.295 173.844,11.365 C174.002667,11.435 174.131,11.533 174.229,11.659 C174.327,11.785 174.397,11.9296667 174.439,12.093 C174.481,12.2563333 174.506667,12.4266667 174.516,12.604 C173.806667,12.6786667 173.197667,12.786 172.689,12.926 C172.180333,13.066 171.760333,13.2386667 171.429,13.444 C171.097667,13.6493333 170.855,13.8943333 170.701,14.179 C170.547,14.4636667 170.47,14.788 170.47,15.152 C170.47,15.7586667 170.656667,16.2463333 171.03,16.615 C171.403333,16.9836667 171.893333,17.168 172.5,17.168 Z M173.018,15.908 C172.728667,15.908 172.490667,15.838 172.304,15.698 C172.117333,15.558 172.024,15.334 172.024,15.026 C172.024,14.858 172.066,14.6993333 172.15,14.55 C172.234,14.4006667 172.374,14.2676667 172.57,14.151 C172.766,14.0343333 173.022667,13.9293333 173.34,13.836 C173.657333,13.7426667 174.049333,13.668 174.516,13.612 L174.516,13.612 L174.516,15.152 C174.254667,15.3946667 174.009667,15.5813333 173.781,15.712 C173.552333,15.8426667 173.298,15.908 173.018,15.908 Z M179.976,17.168 C180.405333,17.168 180.788,17.112 181.124,17 C181.46,16.888 181.74,16.7363333 181.964,16.545 C182.188,16.3536667 182.358333,16.1296667 182.475,15.873 C182.591667,15.6163333 182.65,15.3386667 182.65,15.04 C182.65,14.7226667 182.591667,14.4496667 182.475,14.221 C182.358333,13.9923333 182.204333,13.7986667 182.013,13.64 C181.821667,13.4813333 181.609333,13.3483333 181.376,13.241 C181.142667,13.1336667 180.909333,13.038 180.676,12.954 C180.489333,12.8886667 180.309667,12.8233333 180.137,12.758 C179.964333,12.6926667 179.812667,12.6226667 179.682,12.548 C179.551333,12.4733333 179.446333,12.387 179.367,12.289 C179.287667,12.191 179.248,12.072 179.248,11.932 C179.248,11.7173333 179.329667,11.5376667 179.493,11.393 C179.656333,11.2483333 179.910667,11.176 180.256,11.176 C180.526667,11.176 180.785667,11.2296667 181.033,11.337 C181.280333,11.4443333 181.525333,11.5866667 181.768,11.764 L181.768,11.764 L182.51,10.784 C182.23,10.5693333 181.898667,10.378 181.516,10.21 C181.133333,10.042 180.704,9.958 180.228,9.958 C179.453333,9.958 178.842,10.1493333 178.394,10.532 C177.946,10.9146667 177.722,11.4093333 177.722,12.016 C177.722,12.3053333 177.780333,12.555 177.897,12.765 C178.013667,12.975 178.163,13.1593333 178.345,13.318 C178.527,13.4766667 178.734667,13.612 178.968,13.724 C179.201333,13.836 179.43,13.934 179.654,14.018 C179.831333,14.0926667 180.008667,14.165 180.186,14.235 C180.363333,14.305 180.522,14.382 180.662,14.466 C180.802,14.55 180.914,14.6456667 180.998,14.753 C181.082,14.8603333 181.124,14.984 181.124,15.124 C181.124,15.3666667 181.035333,15.565 180.858,15.719 C180.680667,15.873 180.405333,15.95 180.032,15.95 C179.677333,15.95 179.348333,15.8823333 179.045,15.747 C178.741667,15.6116667 178.436,15.4226667 178.128,15.18 L178.128,15.18 L177.372,16.216 C177.708,16.4866667 178.107,16.713 178.569,16.895 C179.031,17.077 179.5,17.168 179.976,17.168 Z M185.702,17 L185.702,12.198 C185.991333,11.918 186.250333,11.7056667 186.479,11.561 C186.707667,11.4163333 186.971333,11.344 187.27,11.344 C187.652667,11.344 187.928,11.4606667 188.096,11.694 C188.264,11.9273333 188.348,12.3286667 188.348,12.898 L188.348,12.898 L188.348,17 L189.958,17 L189.958,12.688 C189.958,11.8106667 189.79,11.1363333 189.454,10.665 C189.118,10.1936667 188.581333,9.958 187.844,9.958 C187.368,9.958 186.955,10.063 186.605,10.273 C186.255,10.483 185.935333,10.7233333 185.646,10.994 L185.646,10.994 L185.702,9.664 L185.702,7.116 L184.092,7.116 L184.092,17 L185.702,17 Z M192.716,8.922 C193.005333,8.922 193.243333,8.838 193.43,8.67 C193.616667,8.502 193.71,8.28266667 193.71,8.012 C193.71,7.74133333 193.616667,7.51966667 193.43,7.347 C193.243333,7.17433333 193.005333,7.088 192.716,7.088 C192.426667,7.088 192.188667,7.17433333 192.002,7.347 C191.815333,7.51966667 191.722,7.74133333 191.722,8.012 C191.722,8.28266667 191.815333,8.502 192.002,8.67 C192.188667,8.838 192.426667,8.922 192.716,8.922 Z M193.514,17 L193.514,10.126 L191.904,10.126 L191.904,17 L193.514,17 Z M197.182,17 L197.182,12.198 C197.471333,11.918 197.730333,11.7056667 197.959,11.561 C198.187667,11.4163333 198.451333,11.344 198.75,11.344 C199.132667,11.344 199.408,11.4606667 199.576,11.694 C199.744,11.9273333 199.828,12.3286667 199.828,12.898 L199.828,12.898 L199.828,17 L201.438,17 L201.438,12.688 C201.438,11.8106667 201.27,11.1363333 200.934,10.665 C200.598,10.1936667 200.061333,9.958 199.324,9.958 C198.848,9.958 198.430333,10.0653333 198.071,10.28 C197.711667,10.4946667 197.378,10.7513333 197.07,11.05 L197.07,11.05 L197.014,11.05 L196.902,10.126 L195.572,10.126 L195.572,17 L197.182,17 Z M205.806,20.038 C206.366,20.038 206.872333,19.975 207.325,19.849 C207.777667,19.723 208.162667,19.5526667 208.48,19.338 C208.797333,19.1233333 209.042333,18.8666667 209.215,18.568 C209.387667,18.2693333 209.474,17.952 209.474,17.616 C209.474,17.0186667 209.261667,16.587 208.837,16.321 C208.412333,16.055 207.784667,15.922 206.954,15.922 L206.954,15.922 L205.736,15.922 C205.316,15.922 205.024333,15.866 204.861,15.754 C204.697667,15.642 204.616,15.488 204.616,15.292 C204.616,15.1333333 204.646333,15.0073333 204.707,14.914 C204.767667,14.8206667 204.849333,14.7273333 204.952,14.634 C205.110667,14.6993333 205.269333,14.746 205.428,14.774 C205.586667,14.802 205.740667,14.816 205.89,14.816 C206.254,14.816 206.594667,14.7646667 206.912,14.662 C207.229333,14.5593333 207.504667,14.41 207.738,14.214 C207.971333,14.018 208.155667,13.7753333 208.291,13.486 C208.426333,13.1966667 208.494,12.8606667 208.494,12.478 C208.494,12.2353333 208.456667,12.0136667 208.382,11.813 C208.307333,11.6123333 208.214,11.4466667 208.102,11.316 L208.102,11.316 L209.362,11.316 L209.362,10.126 L206.898,10.126 C206.758,10.0793333 206.601667,10.0396667 206.429,10.007 C206.256333,9.97433333 206.076667,9.958 205.89,9.958 C205.526,9.958 205.180667,10.0116667 204.854,10.119 C204.527333,10.2263333 204.240333,10.385 203.993,10.595 C203.745667,10.805 203.547333,11.064 203.398,11.372 C203.248667,11.68 203.174,12.03 203.174,12.422 C203.174,12.8326667 203.265,13.1943333 203.447,13.507 C203.629,13.8196667 203.836667,14.0646667 204.07,14.242 L204.07,14.242 L204.07,14.298 C203.874,14.438 203.699,14.6176667 203.545,14.837 C203.391,15.0563333 203.314,15.3013333 203.314,15.572 C203.314,15.852 203.372333,16.0853333 203.489,16.272 C203.605667,16.4586667 203.752667,16.608 203.93,16.72 L203.93,16.72 L203.93,16.776 C203.612667,16.972 203.37,17.1936667 203.202,17.441 C203.034,17.6883333 202.95,17.9566667 202.95,18.246 C202.95,18.5446667 203.022333,18.806 203.167,19.03 C203.311667,19.254 203.51,19.4406667 203.762,19.59 C204.014,19.7393333 204.315,19.8513333 204.665,19.926 C205.015,20.0006667 205.395333,20.038 205.806,20.038 Z M205.89,13.808 C205.554,13.808 205.269333,13.689 205.036,13.451 C204.802667,13.213 204.686,12.87 204.686,12.422 C204.686,11.9833333 204.802667,11.6473333 205.036,11.414 C205.269333,11.1806667 205.554,11.064 205.89,11.064 C206.226,11.064 206.508333,11.183 206.737,11.421 C206.965667,11.659 207.08,11.9926667 207.08,12.422 C207.08,12.87 206.963333,13.213 206.73,13.451 C206.496667,13.689 206.216667,13.808 205.89,13.808 Z M206.058,18.988 C205.507333,18.988 205.075667,18.9016667 204.763,18.729 C204.450333,18.5563333 204.294,18.316 204.294,18.008 C204.294,17.672 204.471333,17.3686667 204.826,17.098 C205.078,17.1633333 205.390667,17.196 205.764,17.196 L205.764,17.196 L206.702,17.196 C207.094,17.196 207.395,17.2426667 207.605,17.336 C207.815,17.4293333 207.92,17.6113333 207.92,17.882 C207.92,18.1806667 207.749667,18.4396667 207.409,18.659 C207.068333,18.8783333 206.618,18.988 206.058,18.988 Z M213.114,17.168 C213.384667,17.168 213.639,17.1423333 213.877,17.091 C214.115,17.0396667 214.327333,16.9813333 214.514,16.916 L214.514,16.916 L214.234,15.726 C214.131333,15.7726667 214.017,15.81 213.891,15.838 C213.765,15.866 213.641333,15.88 213.52,15.88 C212.876,15.88 212.554,15.4786667 212.554,14.676 L212.554,14.676 L212.554,11.4 L214.304,11.4 L214.304,10.126 L212.554,10.126 L212.554,8.25 L211.21,8.25 L211.014,10.126 L209.95,10.196 L209.95,11.4 L210.93,11.4 L210.93,14.676 C210.93,15.0493333 210.969667,15.3876667 211.049,15.691 C211.128333,15.9943333 211.254333,16.2556667 211.427,16.475 C211.599667,16.6943333 211.823667,16.8646667 212.099,16.986 C212.374333,17.1073333 212.712667,17.168 213.114,17.168 Z M218.336,17.168 C218.765333,17.168 219.178333,17.0886667 219.575,16.93 C219.971667,16.7713333 220.319333,16.538 220.618,16.23 C220.916667,15.922 221.157,15.544 221.339,15.096 C221.521,14.648 221.612,14.1393333 221.612,13.57 C221.612,13.0006667 221.521,12.492 221.339,12.044 C221.157,11.596 220.916667,11.218 220.618,10.91 C220.319333,10.602 219.971667,10.3663333 219.575,10.203 C219.178333,10.0396667 218.765333,9.958 218.336,9.958 C217.906667,9.958 217.496,10.0396667 217.104,10.203 C216.712,10.3663333 216.364333,10.602 216.061,10.91 C215.757667,11.218 215.517333,11.596 215.34,12.044 C215.162667,12.492 215.074,13.0006667 215.074,13.57 C215.074,14.1393333 215.162667,14.648 215.34,15.096 C215.517333,15.544 215.757667,15.922 216.061,16.23 C216.364333,16.538 216.712,16.7713333 217.104,16.93 C217.496,17.0886667 217.906667,17.168 218.336,17.168 Z M218.336,15.852 C217.832,15.852 217.437667,15.6443333 217.153,15.229 C216.868333,14.8136667 216.726,14.2606667 216.726,13.57 C216.726,12.87 216.868333,12.3123333 217.153,11.897 C217.437667,11.4816667 217.832,11.274 218.336,11.274 C218.84,11.274 219.236667,11.4816667 219.526,11.897 C219.815333,12.3123333 219.96,12.87 219.96,13.57 C219.96,14.2606667 219.815333,14.8136667 219.526,15.229 C219.236667,15.6443333 218.84,15.852 218.336,15.852 Z M224.818,17 L224.818,12.198 C225.107333,11.918 225.366333,11.7056667 225.595,11.561 C225.823667,11.4163333 226.087333,11.344 226.386,11.344 C226.768667,11.344 227.044,11.4606667 227.212,11.694 C227.38,11.9273333 227.464,12.3286667 227.464,12.898 L227.464,12.898 L227.464,17 L229.074,17 L229.074,12.688 C229.074,11.8106667 228.906,11.1363333 228.57,10.665 C228.234,10.1936667 227.697333,9.958 226.96,9.958 C226.484,9.958 226.066333,10.0653333 225.707,10.28 C225.347667,10.4946667 225.014,10.7513333 224.706,11.05 L224.706,11.05 L224.65,11.05 L224.538,10.126 L223.208,10.126 L223.208,17 L224.818,17 Z M236.522,17 C237.203333,17 237.812333,16.902 238.349,16.706 C238.885667,16.51 239.343,16.2183333 239.721,15.831 C240.099,15.4436667 240.388333,14.9606667 240.589,14.382 C240.789667,13.8033333 240.89,13.136 240.89,12.38 C240.89,10.868 240.498,9.734 239.714,8.978 C238.93,8.222 237.838,7.844 236.438,7.844 L236.438,7.844 L233.988,7.844 L233.988,17 L236.522,17 Z M236.326,15.684 L235.612,15.684 L235.612,9.16 L236.326,9.16 C237.25,9.16 237.964,9.41666667 238.468,9.93 C238.972,10.4433333 239.224,11.26 239.224,12.38 C239.224,13.5093333 238.974333,14.3423333 238.475,14.879 C237.975667,15.4156667 237.259333,15.684 236.326,15.684 L236.326,15.684 Z M243.508,17.168 C243.806667,17.168 244.054,17.0653333 244.25,16.86 C244.446,16.6546667 244.544,16.3933333 244.544,16.076 C244.544,15.7586667 244.446,15.4973333 244.25,15.292 C244.054,15.0866667 243.806667,14.984 243.508,14.984 C243.209333,14.984 242.959667,15.0866667 242.759,15.292 C242.558333,15.4973333 242.458,15.7586667 242.458,16.076 C242.458,16.3933333 242.558333,16.6546667 242.759,16.86 C242.959667,17.0653333 243.209333,17.168 243.508,17.168 Z M250.242,17.168 C250.83,17.168 251.364333,17.0536667 251.845,16.825 C252.325667,16.5963333 252.752667,16.2673333 253.126,15.838 L253.126,15.838 L252.258,14.816 C251.996667,15.096 251.707333,15.3223333 251.39,15.495 C251.072667,15.6676667 250.708667,15.754 250.298,15.754 C249.523333,15.754 248.909667,15.4576667 248.457,14.865 C248.004333,14.2723333 247.778,13.4533333 247.778,12.408 C247.778,11.8946667 247.841,11.4326667 247.967,11.022 C248.093,10.6113333 248.270333,10.2636667 248.499,9.979 C248.727667,9.69433333 248.998333,9.475 249.311,9.321 C249.623667,9.167 249.966667,9.09 250.34,9.09 C250.694667,9.09 251.012,9.16233333 251.292,9.307 C251.572,9.45166667 251.833333,9.64533333 252.076,9.888 L252.076,9.888 L252.944,8.838 C252.654667,8.53 252.286,8.25933333 251.838,8.026 C251.39,7.79266667 250.876667,7.676 250.298,7.676 C249.719333,7.676 249.175667,7.78333333 248.667,7.998 C248.158333,8.21266667 247.715,8.52533333 247.337,8.936 C246.959,9.34666667 246.660333,9.84833333 246.441,10.441 C246.221667,11.0336667 246.112,11.7033333 246.112,12.45 C246.112,13.206 246.219333,13.878 246.434,14.466 C246.648667,15.054 246.940333,15.5486667 247.309,15.95 C247.677667,16.3513333 248.114,16.6546667 248.618,16.86 C249.122,17.0653333 249.663333,17.168 250.242,17.168 Z M255.422,17.168 C255.720667,17.168 255.968,17.0653333 256.164,16.86 C256.36,16.6546667 256.458,16.3933333 256.458,16.076 C256.458,15.7586667 256.36,15.4973333 256.164,15.292 C255.968,15.0866667 255.720667,14.984 255.422,14.984 C255.123333,14.984 254.873667,15.0866667 254.673,15.292 C254.472333,15.4973333 254.372,15.7586667 254.372,16.076 C254.372,16.3933333 254.472333,16.6546667 254.673,16.86 C254.873667,17.0653333 255.123333,17.168 255.422,17.168 Z M130.444,33.168 C130.714667,33.168 130.969,33.1423333 131.207,33.091 C131.445,33.0396667 131.657333,32.9813333 131.844,32.916 L131.844,32.916 L131.564,31.726 C131.461333,31.7726667 131.347,31.81 131.221,31.838 C131.095,31.866 130.971333,31.88 130.85,31.88 C130.206,31.88 129.884,31.4786667 129.884,30.676 L129.884,30.676 L129.884,27.4 L131.634,27.4 L131.634,26.126 L129.884,26.126 L129.884,24.25 L128.54,24.25 L128.344,26.126 L127.28,26.196 L127.28,27.4 L128.26,27.4 L128.26,30.676 C128.26,31.0493333 128.299667,31.3876667 128.379,31.691 C128.458333,31.9943333 128.584333,32.2556667 128.757,32.475 C128.929667,32.6943333 129.153667,32.8646667 129.429,32.986 C129.704333,33.1073333 130.042667,33.168 130.444,33.168 Z M135.666,33.168 C136.095333,33.168 136.508333,33.0886667 136.905,32.93 C137.301667,32.7713333 137.649333,32.538 137.948,32.23 C138.246667,31.922 138.487,31.544 138.669,31.096 C138.851,30.648 138.942,30.1393333 138.942,29.57 C138.942,29.0006667 138.851,28.492 138.669,28.044 C138.487,27.596 138.246667,27.218 137.948,26.91 C137.649333,26.602 137.301667,26.3663333 136.905,26.203 C136.508333,26.0396667 136.095333,25.958 135.666,25.958 C135.236667,25.958 134.826,26.0396667 134.434,26.203 C134.042,26.3663333 133.694333,26.602 133.391,26.91 C133.087667,27.218 132.847333,27.596 132.67,28.044 C132.492667,28.492 132.404,29.0006667 132.404,29.57 C132.404,30.1393333 132.492667,30.648 132.67,31.096 C132.847333,31.544 133.087667,31.922 133.391,32.23 C133.694333,32.538 134.042,32.7713333 134.434,32.93 C134.826,33.0886667 135.236667,33.168 135.666,33.168 Z M135.666,31.852 C135.162,31.852 134.767667,31.6443333 134.483,31.229 C134.198333,30.8136667 134.056,30.2606667 134.056,29.57 C134.056,28.87 134.198333,28.3123333 134.483,27.897 C134.767667,27.4816667 135.162,27.274 135.666,27.274 C136.17,27.274 136.566667,27.4816667 136.856,27.897 C137.145333,28.3123333 137.29,28.87 137.29,29.57 C137.29,30.2606667 137.145333,30.8136667 136.856,31.229 C136.566667,31.6443333 136.17,31.852 135.666,31.852 Z M146.152,33.168 C146.665333,33.168 147.125,33.0956667 147.531,32.951 C147.937,32.8063333 148.282333,32.6103333 148.567,32.363 C148.851667,32.1156667 149.068667,31.8286667 149.218,31.502 C149.367333,31.1753333 149.442,30.8253333 149.442,30.452 C149.442,30.116 149.395333,29.8196667 149.302,29.563 C149.208667,29.3063333 149.080333,29.08 148.917,28.884 C148.753667,28.688 148.56,28.5153333 148.336,28.366 C148.112,28.2166667 147.864667,28.086 147.594,27.974 L147.594,27.974 L146.348,27.456 C146.161333,27.3813333 145.979333,27.3043333 145.802,27.225 C145.624667,27.1456667 145.468333,27.057 145.333,26.959 C145.197667,26.861 145.090333,26.749 145.011,26.623 C144.931667,26.497 144.892,26.3453333 144.892,26.168 C144.892,25.832 145.022667,25.5683333 145.284,25.377 C145.545333,25.1856667 145.895333,25.09 146.334,25.09 C146.726,25.09 147.080667,25.16 147.398,25.3 C147.715333,25.44 148.023333,25.6313333 148.322,25.874 L148.322,25.874 L149.148,24.838 C148.793333,24.4833333 148.368667,24.201 147.874,23.991 C147.379333,23.781 146.866,23.676 146.334,23.676 C145.886,23.676 145.473,23.7413333 145.095,23.872 C144.717,24.0026667 144.392667,24.1846667 144.122,24.418 C143.851333,24.6513333 143.639,24.9243333 143.485,25.237 C143.331,25.5496667 143.254,25.888 143.254,26.252 C143.254,26.588 143.307667,26.8866667 143.415,27.148 C143.522333,27.4093333 143.664667,27.638 143.842,27.834 C144.019333,28.03 144.217667,28.198 144.437,28.338 C144.656333,28.478 144.878,28.5946667 145.102,28.688 L145.102,28.688 L146.362,29.234 C146.567333,29.318 146.756333,29.402 146.929,29.486 C147.101667,29.57 147.251,29.661 147.377,29.759 C147.503,29.857 147.601,29.9713333 147.671,30.102 C147.741,30.2326667 147.776,30.3913333 147.776,30.578 C147.776,30.9326667 147.640667,31.2173333 147.37,31.432 C147.099333,31.6466667 146.702667,31.754 146.18,31.754 C145.76,31.754 145.34,31.6583333 144.92,31.467 C144.5,31.2756667 144.126667,31.026 143.8,30.718 L143.8,30.718 L142.848,31.824 C143.286667,32.2533333 143.793,32.5846667 144.367,32.818 C144.941,33.0513333 145.536,33.168 146.152,33.168 Z M152.634,33.168 C153.044667,33.168 153.425,33.0793333 153.775,32.902 C154.125,32.7246667 154.454,32.5053333 154.762,32.244 L154.762,32.244 L154.818,32.244 L154.93,33 L156.26,33 L156.26,28.926 C156.26,27.9646667 156.047667,27.2296667 155.623,26.721 C155.198333,26.2123333 154.556667,25.958 153.698,25.958 C153.147333,25.958 152.634,26.0466667 152.158,26.224 C151.682,26.4013333 151.252667,26.6113333 150.87,26.854 L150.87,26.854 L151.458,27.932 C151.766,27.7453333 152.081,27.5866667 152.403,27.456 C152.725,27.3253333 153.054,27.26 153.39,27.26 C153.623333,27.26 153.819333,27.295 153.978,27.365 C154.136667,27.435 154.265,27.533 154.363,27.659 C154.461,27.785 154.531,27.9296667 154.573,28.093 C154.615,28.2563333 154.640667,28.4266667 154.65,28.604 C153.940667,28.6786667 153.331667,28.786 152.823,28.926 C152.314333,29.066 151.894333,29.2386667 151.563,29.444 C151.231667,29.6493333 150.989,29.8943333 150.835,30.179 C150.681,30.4636667 150.604,30.788 150.604,31.152 C150.604,31.7586667 150.790667,32.2463333 151.164,32.615 C151.537333,32.9836667 152.027333,33.168 152.634,33.168 Z M153.152,31.908 C152.862667,31.908 152.624667,31.838 152.438,31.698 C152.251333,31.558 152.158,31.334 152.158,31.026 C152.158,30.858 152.2,30.6993333 152.284,30.55 C152.368,30.4006667 152.508,30.2676667 152.704,30.151 C152.9,30.0343333 153.156667,29.9293333 153.474,29.836 C153.791333,29.7426667 154.183333,29.668 154.65,29.612 L154.65,29.612 L154.65,31.152 C154.388667,31.3946667 154.143667,31.5813333 153.915,31.712 C153.686333,31.8426667 153.432,31.908 153.152,31.908 Z M159.802,33 L159.802,28.198 C160.091333,27.918 160.350333,27.7056667 160.579,27.561 C160.807667,27.4163333 161.071333,27.344 161.37,27.344 C161.752667,27.344 162.028,27.4606667 162.196,27.694 C162.364,27.9273333 162.448,28.3286667 162.448,28.898 L162.448,28.898 L162.448,33 L164.058,33 L164.058,28.688 C164.058,27.8106667 163.89,27.1363333 163.554,26.665 C163.218,26.1936667 162.681333,25.958 161.944,25.958 C161.468,25.958 161.050333,26.0653333 160.691,26.28 C160.331667,26.4946667 159.998,26.7513333 159.69,27.05 L159.69,27.05 L159.634,27.05 L159.522,26.126 L158.192,26.126 L158.192,33 L159.802,33 Z M170.596,33 L170.596,29.178 L173.928,29.178 L173.928,27.806 L170.596,27.806 L170.596,25.216 L174.502,25.216 L174.502,23.844 L168.972,23.844 L168.972,33 L170.596,33 Z M177.302,33 L177.302,28.8 C177.516667,28.2773333 177.773333,27.911 178.072,27.701 C178.370667,27.491 178.655333,27.386 178.926,27.386 C179.075333,27.386 179.201333,27.3953333 179.304,27.414 C179.406667,27.4326667 179.518667,27.4606667 179.64,27.498 L179.64,27.498 L179.92,26.098 C179.724,26.0046667 179.462667,25.958 179.136,25.958 C178.772,25.958 178.417333,26.077 178.072,26.315 C177.726667,26.553 177.432667,26.896 177.19,27.344 L177.19,27.344 L177.134,27.344 L177.022,26.126 L175.692,26.126 L175.692,33 L177.302,33 Z M182.216,33.168 C182.626667,33.168 183.007,33.0793333 183.357,32.902 C183.707,32.7246667 184.036,32.5053333 184.344,32.244 L184.344,32.244 L184.4,32.244 L184.512,33 L185.842,33 L185.842,28.926 C185.842,27.9646667 185.629667,27.2296667 185.205,26.721 C184.780333,26.2123333 184.138667,25.958 183.28,25.958 C182.729333,25.958 182.216,26.0466667 181.74,26.224 C181.264,26.4013333 180.834667,26.6113333 180.452,26.854 L180.452,26.854 L181.04,27.932 C181.348,27.7453333 181.663,27.5866667 181.985,27.456 C182.307,27.3253333 182.636,27.26 182.972,27.26 C183.205333,27.26 183.401333,27.295 183.56,27.365 C183.718667,27.435 183.847,27.533 183.945,27.659 C184.043,27.785 184.113,27.9296667 184.155,28.093 C184.197,28.2563333 184.222667,28.4266667 184.232,28.604 C183.522667,28.6786667 182.913667,28.786 182.405,28.926 C181.896333,29.066 181.476333,29.2386667 181.145,29.444 C180.813667,29.6493333 180.571,29.8943333 180.417,30.179 C180.263,30.4636667 180.186,30.788 180.186,31.152 C180.186,31.7586667 180.372667,32.2463333 180.746,32.615 C181.119333,32.9836667 181.609333,33.168 182.216,33.168 Z M182.734,31.908 C182.444667,31.908 182.206667,31.838 182.02,31.698 C181.833333,31.558 181.74,31.334 181.74,31.026 C181.74,30.858 181.782,30.6993333 181.866,30.55 C181.95,30.4006667 182.09,30.2676667 182.286,30.151 C182.482,30.0343333 182.738667,29.9293333 183.056,29.836 C183.373333,29.7426667 183.765333,29.668 184.232,29.612 L184.232,29.612 L184.232,31.152 C183.970667,31.3946667 183.725667,31.5813333 183.497,31.712 C183.268333,31.8426667 183.014,31.908 182.734,31.908 Z M189.384,33 L189.384,28.198 C189.673333,27.918 189.932333,27.7056667 190.161,27.561 C190.389667,27.4163333 190.653333,27.344 190.952,27.344 C191.334667,27.344 191.61,27.4606667 191.778,27.694 C191.946,27.9273333 192.03,28.3286667 192.03,28.898 L192.03,28.898 L192.03,33 L193.64,33 L193.64,28.688 C193.64,27.8106667 193.472,27.1363333 193.136,26.665 C192.8,26.1936667 192.263333,25.958 191.526,25.958 C191.05,25.958 190.632333,26.0653333 190.273,26.28 C189.913667,26.4946667 189.58,26.7513333 189.272,27.05 L189.272,27.05 L189.216,27.05 L189.104,26.126 L187.774,26.126 L187.774,33 L189.384,33 Z M198.484,33.168 C198.876,33.168 199.265667,33.098 199.653,32.958 C200.040333,32.818 200.397333,32.608 200.724,32.328 L200.724,32.328 L200.066,31.264 C199.87,31.4226667 199.653,31.5603333 199.415,31.677 C199.177,31.7936667 198.922667,31.852 198.652,31.852 C198.110667,31.852 197.669667,31.6443333 197.329,31.229 C196.988333,30.8136667 196.818,30.2606667 196.818,29.57 C196.818,28.87 196.990667,28.3123333 197.336,27.897 C197.681333,27.4816667 198.134,27.274 198.694,27.274 C198.908667,27.274 199.107,27.3183333 199.289,27.407 C199.471,27.4956667 199.655333,27.6193333 199.842,27.778 L199.842,27.778 L200.626,26.728 C200.374,26.5133333 200.087,26.3313333 199.765,26.182 C199.443,26.0326667 199.058,25.958 198.61,25.958 C198.152667,25.958 197.716333,26.0396667 197.301,26.203 C196.885667,26.3663333 196.519333,26.602 196.202,26.91 C195.884667,27.218 195.632667,27.596 195.446,28.044 C195.259333,28.492 195.166,29.0006667 195.166,29.57 C195.166,30.1393333 195.25,30.648 195.418,31.096 C195.586,31.544 195.819333,31.922 196.118,32.23 C196.416667,32.538 196.769,32.7713333 197.175,32.93 C197.581,33.0886667 198.017333,33.168 198.484,33.168 Z M202.894,24.922 C203.183333,24.922 203.421333,24.838 203.608,24.67 C203.794667,24.502 203.888,24.2826667 203.888,24.012 C203.888,23.7413333 203.794667,23.5196667 203.608,23.347 C203.421333,23.1743333 203.183333,23.088 202.894,23.088 C202.604667,23.088 202.366667,23.1743333 202.18,23.347 C201.993333,23.5196667 201.9,23.7413333 201.9,24.012 C201.9,24.2826667 201.993333,24.502 202.18,24.67 C202.366667,24.838 202.604667,24.922 202.894,24.922 Z M203.692,33 L203.692,26.126 L202.082,26.126 L202.082,33 L203.692,33 Z M207.668,33.168 C208.097333,33.168 208.48,33.112 208.816,33 C209.152,32.888 209.432,32.7363333 209.656,32.545 C209.88,32.3536667 210.050333,32.1296667 210.167,31.873 C210.283667,31.6163333 210.342,31.3386667 210.342,31.04 C210.342,30.7226667 210.283667,30.4496667 210.167,30.221 C210.050333,29.9923333 209.896333,29.7986667 209.705,29.64 C209.513667,29.4813333 209.301333,29.3483333 209.068,29.241 C208.834667,29.1336667 208.601333,29.038 208.368,28.954 C208.181333,28.8886667 208.001667,28.8233333 207.829,28.758 C207.656333,28.6926667 207.504667,28.6226667 207.374,28.548 C207.243333,28.4733333 207.138333,28.387 207.059,28.289 C206.979667,28.191 206.94,28.072 206.94,27.932 C206.94,27.7173333 207.021667,27.5376667 207.185,27.393 C207.348333,27.2483333 207.602667,27.176 207.948,27.176 C208.218667,27.176 208.477667,27.2296667 208.725,27.337 C208.972333,27.4443333 209.217333,27.5866667 209.46,27.764 L209.46,27.764 L210.202,26.784 C209.922,26.5693333 209.590667,26.378 209.208,26.21 C208.825333,26.042 208.396,25.958 207.92,25.958 C207.145333,25.958 206.534,26.1493333 206.086,26.532 C205.638,26.9146667 205.414,27.4093333 205.414,28.016 C205.414,28.3053333 205.472333,28.555 205.589,28.765 C205.705667,28.975 205.855,29.1593333 206.037,29.318 C206.219,29.4766667 206.426667,29.612 206.66,29.724 C206.893333,29.836 207.122,29.934 207.346,30.018 C207.523333,30.0926667 207.700667,30.165 207.878,30.235 C208.055333,30.305 208.214,30.382 208.354,30.466 C208.494,30.55 208.606,30.6456667 208.69,30.753 C208.774,30.8603333 208.816,30.984 208.816,31.124 C208.816,31.3666667 208.727333,31.565 208.55,31.719 C208.372667,31.873 208.097333,31.95 207.724,31.95 C207.369333,31.95 207.040333,31.8823333 206.737,31.747 C206.433667,31.6116667 206.128,31.4226667 205.82,31.18 L205.82,31.18 L205.064,32.216 C205.4,32.4866667 205.799,32.713 206.261,32.895 C206.723,33.077 207.192,33.168 207.668,33.168 Z M214.654,33.168 C215.046,33.168 215.435667,33.098 215.823,32.958 C216.210333,32.818 216.567333,32.608 216.894,32.328 L216.894,32.328 L216.236,31.264 C216.04,31.4226667 215.823,31.5603333 215.585,31.677 C215.347,31.7936667 215.092667,31.852 214.822,31.852 C214.280667,31.852 213.839667,31.6443333 213.499,31.229 C213.158333,30.8136667 212.988,30.2606667 212.988,29.57 C212.988,28.87 213.160667,28.3123333 213.506,27.897 C213.851333,27.4816667 214.304,27.274 214.864,27.274 C215.078667,27.274 215.277,27.3183333 215.459,27.407 C215.641,27.4956667 215.825333,27.6193333 216.012,27.778 L216.012,27.778 L216.796,26.728 C216.544,26.5133333 216.257,26.3313333 215.935,26.182 C215.613,26.0326667 215.228,25.958 214.78,25.958 C214.322667,25.958 213.886333,26.0396667 213.471,26.203 C213.055667,26.3663333 212.689333,26.602 212.372,26.91 C212.054667,27.218 211.802667,27.596 211.616,28.044 C211.429333,28.492 211.336,29.0006667 211.336,29.57 C211.336,30.1393333 211.42,30.648 211.588,31.096 C211.756,31.544 211.989333,31.922 212.288,32.23 C212.586667,32.538 212.939,32.7713333 213.345,32.93 C213.751,33.0886667 214.187333,33.168 214.654,33.168 Z M220.73,33.168 C221.159333,33.168 221.572333,33.0886667 221.969,32.93 C222.365667,32.7713333 222.713333,32.538 223.012,32.23 C223.310667,31.922 223.551,31.544 223.733,31.096 C223.915,30.648 224.006,30.1393333 224.006,29.57 C224.006,29.0006667 223.915,28.492 223.733,28.044 C223.551,27.596 223.310667,27.218 223.012,26.91 C222.713333,26.602 222.365667,26.3663333 221.969,26.203 C221.572333,26.0396667 221.159333,25.958 220.73,25.958 C220.300667,25.958 219.89,26.0396667 219.498,26.203 C219.106,26.3663333 218.758333,26.602 218.455,26.91 C218.151667,27.218 217.911333,27.596 217.734,28.044 C217.556667,28.492 217.468,29.0006667 217.468,29.57 C217.468,30.1393333 217.556667,30.648 217.734,31.096 C217.911333,31.544 218.151667,31.922 218.455,32.23 C218.758333,32.538 219.106,32.7713333 219.498,32.93 C219.89,33.0886667 220.300667,33.168 220.73,33.168 Z M220.73,31.852 C220.226,31.852 219.831667,31.6443333 219.547,31.229 C219.262333,30.8136667 219.12,30.2606667 219.12,29.57 C219.12,28.87 219.262333,28.3123333 219.547,27.897 C219.831667,27.4816667 220.226,27.274 220.73,27.274 C221.234,27.274 221.630667,27.4816667 221.92,27.897 C222.209333,28.3123333 222.354,28.87 222.354,29.57 C222.354,30.2606667 222.209333,30.8136667 221.92,31.229 C221.630667,31.6443333 221.234,31.852 220.73,31.852 Z" id="fromWashingtonD.C.toSanFrancisco" fill="#555555" fill-rule="nonzero"></path>
                <path d="M133.398,85 L133.398,83.684 L131.648,83.684 L131.648,76.096 L130.444,76.096 C130.164,76.264 129.863,76.4063333 129.541,76.523 C129.219,76.6396667 128.834,76.74 128.386,76.824 L128.386,76.824 L128.386,77.832 L130.024,77.832 L130.024,83.684 L128.036,83.684 L128.036,85 L133.398,85 Z M135.19,87.548 C135.89,87.3053333 136.429,86.932 136.807,86.428 C137.185,85.924 137.374,85.3266667 137.374,84.636 C137.374,84.1133333 137.269,83.7073333 137.059,83.418 C136.849,83.1286667 136.552667,82.984 136.17,82.984 C135.871333,82.984 135.617,83.075 135.407,83.257 C135.197,83.439 135.092,83.6793333 135.092,83.978 C135.092,84.2953333 135.197,84.5403333 135.407,84.713 C135.617,84.8856667 135.857333,84.972 136.128,84.972 L136.128,84.972 L136.254,84.972 C136.263333,85.3266667 136.144333,85.6533333 135.897,85.952 C135.649667,86.2506667 135.297333,86.4886667 134.84,86.666 L134.84,86.666 L135.19,87.548 Z M141.616,85.168 C142.549333,85.168 143.286667,84.769 143.828,83.971 C144.369333,83.173 144.64,82.018 144.64,80.506 C144.64,79.0033333 144.369333,77.8646667 143.828,77.09 C143.286667,76.3153333 142.549333,75.928 141.616,75.928 C140.682667,75.928 139.945333,76.313 139.404,77.083 C138.862667,77.853 138.592,78.994 138.592,80.506 C138.592,82.018 138.862667,83.173 139.404,83.971 C139.945333,84.769 140.682667,85.168 141.616,85.168 Z M141.616,83.908 C141.401333,83.908 141.203,83.8496667 141.021,83.733 C140.839,83.6163333 140.682667,83.4226667 140.552,83.152 C140.421333,82.8813333 140.318667,82.5313333 140.244,82.102 C140.169333,81.6726667 140.132,81.1406667 140.132,80.506 C140.132,79.8806667 140.169333,79.3556667 140.244,78.931 C140.318667,78.5063333 140.421333,78.1633333 140.552,77.902 C140.682667,77.6406667 140.839,77.4563333 141.021,77.349 C141.203,77.2416667 141.401333,77.188 141.616,77.188 C141.830667,77.188 142.029,77.2416667 142.211,77.349 C142.393,77.4563333 142.549333,77.6406667 142.68,77.902 C142.810667,78.1633333 142.913333,78.5063333 142.988,78.931 C143.062667,79.3556667 143.1,79.8806667 143.1,80.506 C143.1,81.1406667 143.062667,81.6726667 142.988,82.102 C142.913333,82.5313333 142.810667,82.8813333 142.68,83.152 C142.549333,83.4226667 142.393,83.6163333 142.211,83.733 C142.029,83.8496667 141.830667,83.908 141.616,83.908 Z M148.252,85.168 C148.709333,85.168 149.150333,85.0746667 149.575,84.888 C149.999667,84.7013333 150.373,84.4096667 150.695,84.013 C151.017,83.6163333 151.273667,83.11 151.465,82.494 C151.656333,81.878 151.752,81.136 151.752,80.268 C151.752,79.5213333 151.665667,78.875 151.493,78.329 C151.320333,77.783 151.087,77.3326667 150.793,76.978 C150.499,76.6233333 150.156,76.3596667 149.764,76.187 C149.372,76.0143333 148.961333,75.928 148.532,75.928 C148.149333,75.928 147.787667,75.9956667 147.447,76.131 C147.106333,76.2663333 146.81,76.46 146.558,76.712 C146.306,76.964 146.105333,77.2696667 145.956,77.629 C145.806667,77.9883333 145.732,78.392 145.732,78.84 C145.732,79.3066667 145.795,79.7126667 145.921,80.058 C146.047,80.4033333 146.224333,80.6903333 146.453,80.919 C146.681667,81.1476667 146.954667,81.318 147.272,81.43 C147.589333,81.542 147.939333,81.598 148.322,81.598 C148.648667,81.598 148.989333,81.507 149.344,81.325 C149.698667,81.143 150.006667,80.8886667 150.268,80.562 C150.249333,81.178 150.181667,81.696 150.065,82.116 C149.948333,82.536 149.796667,82.8743333 149.61,83.131 C149.423333,83.3876667 149.206333,83.572 148.959,83.684 C148.711667,83.796 148.448,83.852 148.168,83.852 C147.897333,83.852 147.633667,83.789 147.377,83.663 C147.120333,83.537 146.908,83.376 146.74,83.18 L146.74,83.18 L145.872,84.16 C146.142667,84.44 146.474,84.678 146.866,84.874 C147.258,85.07 147.72,85.168 148.252,85.168 Z M148.63,80.436 C148.182,80.436 147.834333,80.303 147.587,80.037 C147.339667,79.771 147.216,79.372 147.216,78.84 C147.216,78.2986667 147.346667,77.8833333 147.608,77.594 C147.869333,77.3046667 148.182,77.16 148.546,77.16 C148.975333,77.16 149.341667,77.3373333 149.645,77.692 C149.948333,78.0466667 150.142,78.616 150.226,79.4 C149.992667,79.764 149.733667,80.0276667 149.449,80.191 C149.164333,80.3543333 148.891333,80.436 148.63,80.436 Z M158.948,85 L158.948,83.628 L156.764,83.628 C156.549333,83.628 156.306667,83.6396667 156.036,83.663 C155.765333,83.6863333 155.513333,83.7073333 155.28,83.726 C155.718667,83.2593333 156.134,82.8066667 156.526,82.368 C156.918,81.9293333 157.261,81.5023333 157.555,81.087 C157.849,80.6716667 158.082333,80.261 158.255,79.855 C158.427667,79.449 158.514,79.05 158.514,78.658 C158.514,78.2473333 158.446333,77.874 158.311,77.538 C158.175667,77.202 157.986667,76.915 157.744,76.677 C157.501333,76.439 157.207333,76.2546667 156.862,76.124 C156.516667,75.9933333 156.129333,75.928 155.7,75.928 C155.084,75.928 154.559,76.047 154.125,76.285 C153.691,76.523 153.268667,76.8613333 152.858,77.3 L152.858,77.3 L153.754,78.196 C153.996667,77.9253333 154.260333,77.692 154.545,77.496 C154.829667,77.3 155.144667,77.202 155.49,77.202 C155.966,77.202 156.33,77.3396667 156.582,77.615 C156.834,77.8903333 156.96,78.266 156.96,78.742 C156.96,79.078 156.866667,79.4326667 156.68,79.806 C156.493333,80.1793333 156.225,80.5806667 155.875,81.01 C155.525,81.4393333 155.100333,81.906 154.601,82.41 C154.101667,82.914 153.544,83.4646667 152.928,84.062 L152.928,84.062 L152.928,85 L158.948,85 Z M160.586,87.548 C161.286,87.3053333 161.825,86.932 162.203,86.428 C162.581,85.924 162.77,85.3266667 162.77,84.636 C162.77,84.1133333 162.665,83.7073333 162.455,83.418 C162.245,83.1286667 161.948667,82.984 161.566,82.984 C161.267333,82.984 161.013,83.075 160.803,83.257 C160.593,83.439 160.488,83.6793333 160.488,83.978 C160.488,84.2953333 160.593,84.5403333 160.803,84.713 C161.013,84.8856667 161.253333,84.972 161.524,84.972 L161.524,84.972 L161.65,84.972 C161.659333,85.3266667 161.540333,85.6533333 161.293,85.952 C161.045667,86.2506667 160.693333,86.4886667 160.236,86.666 L160.236,86.666 L160.586,87.548 Z M167.012,85.168 C167.945333,85.168 168.682667,84.769 169.224,83.971 C169.765333,83.173 170.036,82.018 170.036,80.506 C170.036,79.0033333 169.765333,77.8646667 169.224,77.09 C168.682667,76.3153333 167.945333,75.928 167.012,75.928 C166.078667,75.928 165.341333,76.313 164.8,77.083 C164.258667,77.853 163.988,78.994 163.988,80.506 C163.988,82.018 164.258667,83.173 164.8,83.971 C165.341333,84.769 166.078667,85.168 167.012,85.168 Z M167.012,83.908 C166.797333,83.908 166.599,83.8496667 166.417,83.733 C166.235,83.6163333 166.078667,83.4226667 165.948,83.152 C165.817333,82.8813333 165.714667,82.5313333 165.64,82.102 C165.565333,81.6726667 165.528,81.1406667 165.528,80.506 C165.528,79.8806667 165.565333,79.3556667 165.64,78.931 C165.714667,78.5063333 165.817333,78.1633333 165.948,77.902 C166.078667,77.6406667 166.235,77.4563333 166.417,77.349 C166.599,77.2416667 166.797333,77.188 167.012,77.188 C167.226667,77.188 167.425,77.2416667 167.607,77.349 C167.789,77.4563333 167.945333,77.6406667 168.076,77.902 C168.206667,78.1633333 168.309333,78.5063333 168.384,78.931 C168.458667,79.3556667 168.496,79.8806667 168.496,80.506 C168.496,81.1406667 168.458667,81.6726667 168.384,82.102 C168.309333,82.5313333 168.206667,82.8813333 168.076,83.152 C167.945333,83.4226667 167.789,83.6163333 167.607,83.733 C167.425,83.8496667 167.226667,83.908 167.012,83.908 Z M174.194,85.168 C175.127333,85.168 175.864667,84.769 176.406,83.971 C176.947333,83.173 177.218,82.018 177.218,80.506 C177.218,79.0033333 176.947333,77.8646667 176.406,77.09 C175.864667,76.3153333 175.127333,75.928 174.194,75.928 C173.260667,75.928 172.523333,76.313 171.982,77.083 C171.440667,77.853 171.17,78.994 171.17,80.506 C171.17,82.018 171.440667,83.173 171.982,83.971 C172.523333,84.769 173.260667,85.168 174.194,85.168 Z M174.194,83.908 C173.979333,83.908 173.781,83.8496667 173.599,83.733 C173.417,83.6163333 173.260667,83.4226667 173.13,83.152 C172.999333,82.8813333 172.896667,82.5313333 172.822,82.102 C172.747333,81.6726667 172.71,81.1406667 172.71,80.506 C172.71,79.8806667 172.747333,79.3556667 172.822,78.931 C172.896667,78.5063333 172.999333,78.1633333 173.13,77.902 C173.260667,77.6406667 173.417,77.4563333 173.599,77.349 C173.781,77.2416667 173.979333,77.188 174.194,77.188 C174.408667,77.188 174.607,77.2416667 174.789,77.349 C174.971,77.4563333 175.127333,77.6406667 175.258,77.902 C175.388667,78.1633333 175.491333,78.5063333 175.566,78.931 C175.640667,79.3556667 175.678,79.8806667 175.678,80.506 C175.678,81.1406667 175.640667,81.6726667 175.566,82.102 C175.491333,82.5313333 175.388667,82.8813333 175.258,83.152 C175.127333,83.4226667 174.971,83.6163333 174.789,83.733 C174.607,83.8496667 174.408667,83.908 174.194,83.908 Z M181.376,85.168 C182.309333,85.168 183.046667,84.769 183.588,83.971 C184.129333,83.173 184.4,82.018 184.4,80.506 C184.4,79.0033333 184.129333,77.8646667 183.588,77.09 C183.046667,76.3153333 182.309333,75.928 181.376,75.928 C180.442667,75.928 179.705333,76.313 179.164,77.083 C178.622667,77.853 178.352,78.994 178.352,80.506 C178.352,82.018 178.622667,83.173 179.164,83.971 C179.705333,84.769 180.442667,85.168 181.376,85.168 Z M181.376,83.908 C181.161333,83.908 180.963,83.8496667 180.781,83.733 C180.599,83.6163333 180.442667,83.4226667 180.312,83.152 C180.181333,82.8813333 180.078667,82.5313333 180.004,82.102 C179.929333,81.6726667 179.892,81.1406667 179.892,80.506 C179.892,79.8806667 179.929333,79.3556667 180.004,78.931 C180.078667,78.5063333 180.181333,78.1633333 180.312,77.902 C180.442667,77.6406667 180.599,77.4563333 180.781,77.349 C180.963,77.2416667 181.161333,77.188 181.376,77.188 C181.590667,77.188 181.789,77.2416667 181.971,77.349 C182.153,77.4563333 182.309333,77.6406667 182.44,77.902 C182.570667,78.1633333 182.673333,78.5063333 182.748,78.931 C182.822667,79.3556667 182.86,79.8806667 182.86,80.506 C182.86,81.1406667 182.822667,81.6726667 182.748,82.102 C182.673333,82.5313333 182.570667,82.8813333 182.44,83.152 C182.309333,83.4226667 182.153,83.6163333 181.971,83.733 C181.789,83.8496667 181.590667,83.908 181.376,83.908 Z M190.406,85 L190.406,80.198 C190.938,79.6286667 191.418667,79.344 191.848,79.344 C192.212,79.344 192.480333,79.4606667 192.653,79.694 C192.825667,79.9273333 192.912,80.3286667 192.912,80.898 L192.912,80.898 L192.912,85 L194.522,85 L194.522,80.198 C195.054,79.6286667 195.534667,79.344 195.964,79.344 C196.318667,79.344 196.582333,79.4606667 196.755,79.694 C196.927667,79.9273333 197.014,80.3286667 197.014,80.898 L197.014,80.898 L197.014,85 L198.638,85 L198.638,80.688 C198.638,79.8106667 198.465333,79.1363333 198.12,78.665 C197.774667,78.1936667 197.238,77.958 196.51,77.958 C196.071333,77.958 195.674667,78.0746667 195.32,78.308 C194.965333,78.5413333 194.624667,78.8353333 194.298,79.19 C194.139333,78.798 193.908333,78.4946667 193.605,78.28 C193.301667,78.0653333 192.898,77.958 192.394,77.958 C191.964667,77.958 191.579667,78.0653333 191.239,78.28 C190.898333,78.4946667 190.583333,78.756 190.294,79.064 L190.294,79.064 L190.238,79.064 L190.126,78.126 L188.796,78.126 L188.796,85 L190.406,85 Z M201.41,76.922 C201.699333,76.922 201.937333,76.838 202.124,76.67 C202.310667,76.502 202.404,76.2826667 202.404,76.012 C202.404,75.7413333 202.310667,75.5196667 202.124,75.347 C201.937333,75.1743333 201.699333,75.088 201.41,75.088 C201.120667,75.088 200.882667,75.1743333 200.696,75.347 C200.509333,75.5196667 200.416,75.7413333 200.416,76.012 C200.416,76.2826667 200.509333,76.502 200.696,76.67 C200.882667,76.838 201.120667,76.922 201.41,76.922 Z M202.208,85 L202.208,78.126 L200.598,78.126 L200.598,85 L202.208,85 Z M205.834,85.168 C206.188667,85.168 206.473333,85.1213333 206.688,85.028 L206.688,85.028 L206.478,83.824 C206.412667,83.8426667 206.363667,83.852 206.331,83.852 L206.331,83.852 L206.226,83.852 C206.142,83.852 206.062667,83.8123333 205.988,83.733 C205.913333,83.6536667 205.876,83.516 205.876,83.32 L205.876,83.32 L205.876,75.116 L204.266,75.116 L204.266,83.236 C204.266,83.8333333 204.382667,84.3046667 204.616,84.65 C204.849333,84.9953333 205.255333,85.168 205.834,85.168 Z M211,85.168 C211.438667,85.168 211.858667,85.098 212.26,84.958 C212.661333,84.818 213.025333,84.6406667 213.352,84.426 L213.352,84.426 L212.806,83.418 C212.554,83.5766667 212.299667,83.7003333 212.043,83.789 C211.786333,83.8776667 211.508667,83.922 211.21,83.922 C210.65,83.922 210.190333,83.7563333 209.831,83.425 C209.471667,83.0936667 209.254667,82.62 209.18,82.004 L209.18,82.004 L213.548,82.004 C213.566667,81.92 213.583,81.808 213.597,81.668 C213.611,81.528 213.618,81.3786667 213.618,81.22 C213.618,80.744 213.557333,80.3053333 213.436,79.904 C213.314667,79.5026667 213.135,79.1573333 212.897,78.868 C212.659,78.5786667 212.362667,78.3546667 212.008,78.196 C211.653333,78.0373333 211.242667,77.958 210.776,77.958 C210.374667,77.958 209.982667,78.042 209.6,78.21 C209.217333,78.378 208.879,78.616 208.585,78.924 C208.291,79.232 208.055333,79.61 207.878,80.058 C207.700667,80.506 207.612,81.01 207.612,81.57 C207.612,82.1393333 207.698333,82.6456667 207.871,83.089 C208.043667,83.5323333 208.284,83.908 208.592,84.216 C208.9,84.524 209.259333,84.7596667 209.67,84.923 C210.080667,85.0863333 210.524,85.168 211,85.168 Z M212.218,80.912 L209.166,80.912 C209.240667,80.352 209.432,79.9273333 209.74,79.638 C210.048,79.3486667 210.407333,79.204 210.818,79.204 C211.294,79.204 211.646333,79.3556667 211.875,79.659 C212.103667,79.9623333 212.218,80.38 212.218,80.912 L212.218,80.912 Z M217.076,85.168 C217.505333,85.168 217.888,85.112 218.224,85 C218.56,84.888 218.84,84.7363333 219.064,84.545 C219.288,84.3536667 219.458333,84.1296667 219.575,83.873 C219.691667,83.6163333 219.75,83.3386667 219.75,83.04 C219.75,82.7226667 219.691667,82.4496667 219.575,82.221 C219.458333,81.9923333 219.304333,81.7986667 219.113,81.64 C218.921667,81.4813333 218.709333,81.3483333 218.476,81.241 C218.242667,81.1336667 218.009333,81.038 217.776,80.954 C217.589333,80.8886667 217.409667,80.8233333 217.237,80.758 C217.064333,80.6926667 216.912667,80.6226667 216.782,80.548 C216.651333,80.4733333 216.546333,80.387 216.467,80.289 C216.387667,80.191 216.348,80.072 216.348,79.932 C216.348,79.7173333 216.429667,79.5376667 216.593,79.393 C216.756333,79.2483333 217.010667,79.176 217.356,79.176 C217.626667,79.176 217.885667,79.2296667 218.133,79.337 C218.380333,79.4443333 218.625333,79.5866667 218.868,79.764 L218.868,79.764 L219.61,78.784 C219.33,78.5693333 218.998667,78.378 218.616,78.21 C218.233333,78.042 217.804,77.958 217.328,77.958 C216.553333,77.958 215.942,78.1493333 215.494,78.532 C215.046,78.9146667 214.822,79.4093333 214.822,80.016 C214.822,80.3053333 214.880333,80.555 214.997,80.765 C215.113667,80.975 215.263,81.1593333 215.445,81.318 C215.627,81.4766667 215.834667,81.612 216.068,81.724 C216.301333,81.836 216.53,81.934 216.754,82.018 C216.931333,82.0926667 217.108667,82.165 217.286,82.235 C217.463333,82.305 217.622,82.382 217.762,82.466 C217.902,82.55 218.014,82.6456667 218.098,82.753 C218.182,82.8603333 218.224,82.984 218.224,83.124 C218.224,83.3666667 218.135333,83.565 217.958,83.719 C217.780667,83.873 217.505333,83.95 217.132,83.95 C216.777333,83.95 216.448333,83.8823333 216.145,83.747 C215.841667,83.6116667 215.536,83.4226667 215.228,83.18 L215.228,83.18 L214.472,84.216 C214.808,84.4866667 215.207,84.713 215.669,84.895 C216.131,85.077 216.6,85.168 217.076,85.168 Z M226.806,85.168 C227.235333,85.168 227.648333,85.0886667 228.045,84.93 C228.441667,84.7713333 228.789333,84.538 229.088,84.23 C229.386667,83.922 229.627,83.544 229.809,83.096 C229.991,82.648 230.082,82.1393333 230.082,81.57 C230.082,81.0006667 229.991,80.492 229.809,80.044 C229.627,79.596 229.386667,79.218 229.088,78.91 C228.789333,78.602 228.441667,78.3663333 228.045,78.203 C227.648333,78.0396667 227.235333,77.958 226.806,77.958 C226.376667,77.958 225.966,78.0396667 225.574,78.203 C225.182,78.3663333 224.834333,78.602 224.531,78.91 C224.227667,79.218 223.987333,79.596 223.81,80.044 C223.632667,80.492 223.544,81.0006667 223.544,81.57 C223.544,82.1393333 223.632667,82.648 223.81,83.096 C223.987333,83.544 224.227667,83.922 224.531,84.23 C224.834333,84.538 225.182,84.7713333 225.574,84.93 C225.966,85.0886667 226.376667,85.168 226.806,85.168 Z M226.806,83.852 C226.302,83.852 225.907667,83.6443333 225.623,83.229 C225.338333,82.8136667 225.196,82.2606667 225.196,81.57 C225.196,80.87 225.338333,80.3123333 225.623,79.897 C225.907667,79.4816667 226.302,79.274 226.806,79.274 C227.31,79.274 227.706667,79.4816667 227.996,79.897 C228.285333,80.3123333 228.43,80.87 228.43,81.57 C228.43,82.2606667 228.285333,82.8136667 227.996,83.229 C227.706667,83.6443333 227.31,83.852 226.806,83.852 Z M233.512,85 L233.512,79.4 L234.856,79.4 L234.856,78.126 L233.512,78.126 L233.512,77.384 C233.512,76.6093333 233.801333,76.222 234.38,76.222 C234.632,76.222 234.884,76.278 235.136,76.39 L235.136,76.39 L235.444,75.186 C235.285333,75.1206667 235.096333,75.0646667 234.877,75.018 C234.657667,74.9713333 234.426667,74.948 234.184,74.948 C233.773333,74.948 233.425667,75.0086667 233.141,75.13 C232.856333,75.2513333 232.620667,75.4216667 232.434,75.641 C232.247333,75.8603333 232.112,76.1216667 232.028,76.425 C231.944,76.7283333 231.902,77.0573333 231.902,77.412 L231.902,77.412 L231.902,78.126 L230.978,78.196 L230.978,79.4 L231.902,79.4 L231.902,85 L233.512,85 Z M240.47,85 L240.47,80.8 C240.684667,80.2773333 240.941333,79.911 241.24,79.701 C241.538667,79.491 241.823333,79.386 242.094,79.386 C242.243333,79.386 242.369333,79.3953333 242.472,79.414 C242.574667,79.4326667 242.686667,79.4606667 242.808,79.498 L242.808,79.498 L243.088,78.098 C242.892,78.0046667 242.630667,77.958 242.304,77.958 C241.94,77.958 241.585333,78.077 241.24,78.315 C240.894667,78.553 240.600667,78.896 240.358,79.344 L240.358,79.344 L240.302,79.344 L240.19,78.126 L238.86,78.126 L238.86,85 L240.47,85 Z M246.756,85.168 C247.185333,85.168 247.598333,85.0886667 247.995,84.93 C248.391667,84.7713333 248.739333,84.538 249.038,84.23 C249.336667,83.922 249.577,83.544 249.759,83.096 C249.941,82.648 250.032,82.1393333 250.032,81.57 C250.032,81.0006667 249.941,80.492 249.759,80.044 C249.577,79.596 249.336667,79.218 249.038,78.91 C248.739333,78.602 248.391667,78.3663333 247.995,78.203 C247.598333,78.0396667 247.185333,77.958 246.756,77.958 C246.326667,77.958 245.916,78.0396667 245.524,78.203 C245.132,78.3663333 244.784333,78.602 244.481,78.91 C244.177667,79.218 243.937333,79.596 243.76,80.044 C243.582667,80.492 243.494,81.0006667 243.494,81.57 C243.494,82.1393333 243.582667,82.648 243.76,83.096 C243.937333,83.544 244.177667,83.922 244.481,84.23 C244.784333,84.538 245.132,84.7713333 245.524,84.93 C245.916,85.0886667 246.326667,85.168 246.756,85.168 Z M246.756,83.852 C246.252,83.852 245.857667,83.6443333 245.573,83.229 C245.288333,82.8136667 245.146,82.2606667 245.146,81.57 C245.146,80.87 245.288333,80.3123333 245.573,79.897 C245.857667,79.4816667 246.252,79.274 246.756,79.274 C247.26,79.274 247.656667,79.4816667 247.946,79.897 C248.235333,80.3123333 248.38,80.87 248.38,81.57 C248.38,82.2606667 248.235333,82.8136667 247.946,83.229 C247.656667,83.6443333 247.26,83.852 246.756,83.852 Z M253.126,85.168 C253.536667,85.168 253.917,85.0793333 254.267,84.902 C254.617,84.7246667 254.946,84.5053333 255.254,84.244 L255.254,84.244 L255.31,84.244 L255.422,85 L256.752,85 L256.752,80.926 C256.752,79.9646667 256.539667,79.2296667 256.115,78.721 C255.690333,78.2123333 255.048667,77.958 254.19,77.958 C253.639333,77.958 253.126,78.0466667 252.65,78.224 C252.174,78.4013333 251.744667,78.6113333 251.362,78.854 L251.362,78.854 L251.95,79.932 C252.258,79.7453333 252.573,79.5866667 252.895,79.456 C253.217,79.3253333 253.546,79.26 253.882,79.26 C254.115333,79.26 254.311333,79.295 254.47,79.365 C254.628667,79.435 254.757,79.533 254.855,79.659 C254.953,79.785 255.023,79.9296667 255.065,80.093 C255.107,80.2563333 255.132667,80.4266667 255.142,80.604 C254.432667,80.6786667 253.823667,80.786 253.315,80.926 C252.806333,81.066 252.386333,81.2386667 252.055,81.444 C251.723667,81.6493333 251.481,81.8943333 251.327,82.179 C251.173,82.4636667 251.096,82.788 251.096,83.152 C251.096,83.7586667 251.282667,84.2463333 251.656,84.615 C252.029333,84.9836667 252.519333,85.168 253.126,85.168 Z M253.644,83.908 C253.354667,83.908 253.116667,83.838 252.93,83.698 C252.743333,83.558 252.65,83.334 252.65,83.026 C252.65,82.858 252.692,82.6993333 252.776,82.55 C252.86,82.4006667 253,82.2676667 253.196,82.151 C253.392,82.0343333 253.648667,81.9293333 253.966,81.836 C254.283333,81.7426667 254.675333,81.668 255.142,81.612 L255.142,81.612 L255.142,83.152 C254.880667,83.3946667 254.635667,83.5813333 254.407,83.712 C254.178333,83.8426667 253.924,83.908 253.644,83.908 Z M261.092,85.168 C261.465333,85.168 261.82,85.0793333 262.156,84.902 C262.492,84.7246667 262.786,84.51 263.038,84.258 L263.038,84.258 L263.094,84.258 L263.206,85 L264.536,85 L264.536,75.116 L262.926,75.116 L262.926,77.608 L262.982,78.714 C262.711333,78.4806667 262.440667,78.2963333 262.17,78.161 C261.899333,78.0256667 261.568,77.958 261.176,77.958 C260.802667,77.958 260.441,78.042 260.091,78.21 C259.741,78.378 259.430667,78.616 259.16,78.924 C258.889333,79.232 258.672333,79.61 258.509,80.058 C258.345667,80.506 258.264,81.01 258.264,81.57 C258.264,82.7086667 258.518333,83.593 259.027,84.223 C259.535667,84.853 260.224,85.168 261.092,85.168 Z M261.484,83.838 C260.98,83.838 260.595,83.6443333 260.329,83.257 C260.063,82.8696667 259.93,82.3026667 259.93,81.556 C259.93,80.828 260.084,80.268 260.392,79.876 C260.7,79.484 261.078,79.288 261.526,79.288 C261.759333,79.288 261.990333,79.33 262.219,79.414 C262.447667,79.498 262.683333,79.6473333 262.926,79.862 L262.926,79.862 L262.926,83.068 C262.478,83.5813333 261.997333,83.838 261.484,83.838 Z M269.562,85 L270.346,81.808 C270.420667,81.4813333 270.490667,81.1546667 270.556,80.828 C270.621333,80.5013333 270.686667,80.156 270.752,79.792 L270.752,79.792 L270.808,79.792 C270.882667,80.156 270.952667,80.499 271.018,80.821 C271.083333,81.143 271.153333,81.4673333 271.228,81.794 L271.228,81.794 L272.026,85 L273.944,85 L275.694,78.126 L274.182,78.126 L273.356,81.696 C273.290667,82.0226667 273.23,82.3493333 273.174,82.676 C273.118,83.0026667 273.057333,83.334 272.992,83.67 L272.992,83.67 L272.936,83.67 C272.861333,83.334 272.786667,83.0026667 272.712,82.676 C272.637333,82.3493333 272.558,82.0226667 272.474,81.696 L272.474,81.696 L271.564,78.126 L270.094,78.126 L269.198,81.696 C269.114,82.0226667 269.037,82.3493333 268.967,82.676 C268.897,83.0026667 268.829333,83.334 268.764,83.67 L268.764,83.67 L268.708,83.67 C268.642667,83.334 268.584333,83.0026667 268.533,82.676 C268.481667,82.3493333 268.418667,82.0226667 268.344,81.696 L268.344,81.696 L267.518,78.126 L265.894,78.126 L267.714,85 L269.562,85 Z M278.578,85.168 C278.988667,85.168 279.369,85.0793333 279.719,84.902 C280.069,84.7246667 280.398,84.5053333 280.706,84.244 L280.706,84.244 L280.762,84.244 L280.874,85 L282.204,85 L282.204,80.926 C282.204,79.9646667 281.991667,79.2296667 281.567,78.721 C281.142333,78.2123333 280.500667,77.958 279.642,77.958 C279.091333,77.958 278.578,78.0466667 278.102,78.224 C277.626,78.4013333 277.196667,78.6113333 276.814,78.854 L276.814,78.854 L277.402,79.932 C277.71,79.7453333 278.025,79.5866667 278.347,79.456 C278.669,79.3253333 278.998,79.26 279.334,79.26 C279.567333,79.26 279.763333,79.295 279.922,79.365 C280.080667,79.435 280.209,79.533 280.307,79.659 C280.405,79.785 280.475,79.9296667 280.517,80.093 C280.559,80.2563333 280.584667,80.4266667 280.594,80.604 C279.884667,80.6786667 279.275667,80.786 278.767,80.926 C278.258333,81.066 277.838333,81.2386667 277.507,81.444 C277.175667,81.6493333 276.933,81.8943333 276.779,82.179 C276.625,82.4636667 276.548,82.788 276.548,83.152 C276.548,83.7586667 276.734667,84.2463333 277.108,84.615 C277.481333,84.9836667 277.971333,85.168 278.578,85.168 Z M279.096,83.908 C278.806667,83.908 278.568667,83.838 278.382,83.698 C278.195333,83.558 278.102,83.334 278.102,83.026 C278.102,82.858 278.144,82.6993333 278.228,82.55 C278.312,82.4006667 278.452,82.2676667 278.648,82.151 C278.844,82.0343333 279.100667,81.9293333 279.418,81.836 C279.735333,81.7426667 280.127333,81.668 280.594,81.612 L280.594,81.612 L280.594,83.152 C280.332667,83.3946667 280.087667,83.5813333 279.859,83.712 C279.630333,83.8426667 279.376,83.908 279.096,83.908 Z M284.598,87.828 C284.971333,87.828 285.300333,87.7696667 285.585,87.653 C285.869667,87.5363333 286.121667,87.3683333 286.341,87.149 C286.560333,86.9296667 286.754,86.666 286.922,86.358 C287.09,86.05 287.244,85.7 287.384,85.308 L287.384,85.308 L289.876,78.126 L288.322,78.126 L287.286,81.5 C287.202,81.808 287.115667,82.1276667 287.027,82.459 C286.938333,82.7903333 286.852,83.1146667 286.768,83.432 L286.768,83.432 L286.712,83.432 C286.609333,83.1053333 286.509,82.7763333 286.411,82.445 C286.313,82.1136667 286.212667,81.7986667 286.11,81.5 L286.11,81.5 L284.92,78.126 L283.282,78.126 L285.984,84.916 L285.858,85.35 C285.746,85.6953333 285.580333,85.9776667 285.361,86.197 C285.141667,86.4163333 284.85,86.526 284.486,86.526 C284.402,86.526 284.315667,86.5143333 284.227,86.491 C284.138333,86.4676667 284.061333,86.4466667 283.996,86.428 L283.996,86.428 L283.702,87.688 C283.832667,87.7346667 283.968,87.7696667 284.108,87.793 C284.248,87.8163333 284.411333,87.828 284.598,87.828 Z" id="1,092,000milesofroadway" fill="#555555" fill-rule="nonzero"></path>
                <path d="M138.425,63 L138.425,60.65 L135.3,60.65 L135.3,47.1 L133.15,47.1 C132.65,47.4 132.1125,47.6541667 131.5375,47.8625 C130.9625,48.0708333 130.275,48.25 129.475,48.4 L129.475,48.4 L129.475,50.2 L132.4,50.2 L132.4,60.65 L128.85,60.65 L128.85,63 L138.425,63 Z M145.25,63.3 C146.066667,63.3 146.854167,63.1333333 147.6125,62.8 C148.370833,62.4666667 149.0375,61.9458333 149.6125,61.2375 C150.1875,60.5291667 150.645833,59.625 150.9875,58.525 C151.329167,57.425 151.5,56.1 151.5,54.55 C151.5,53.2166667 151.345833,52.0625 151.0375,51.0875 C150.729167,50.1125 150.3125,49.3083333 149.7875,48.675 C149.2625,48.0416667 148.65,47.5708333 147.95,47.2625 C147.25,46.9541667 146.516667,46.8 145.75,46.8 C145.066667,46.8 144.420833,46.9208333 143.8125,47.1625 C143.204167,47.4041667 142.675,47.75 142.225,48.2 C141.775,48.65 141.416667,49.1958333 141.15,49.8375 C140.883333,50.4791667 140.75,51.2 140.75,52 C140.75,52.8333333 140.8625,53.5583333 141.0875,54.175 C141.3125,54.7916667 141.629167,55.3041667 142.0375,55.7125 C142.445833,56.1208333 142.933333,56.425 143.5,56.625 C144.066667,56.825 144.691667,56.925 145.375,56.925 C145.958333,56.925 146.566667,56.7625 147.2,56.4375 C147.833333,56.1125 148.383333,55.6583333 148.85,55.075 C148.816667,56.175 148.695833,57.1 148.4875,57.85 C148.279167,58.6 148.008333,59.2041667 147.675,59.6625 C147.341667,60.1208333 146.954167,60.45 146.5125,60.65 C146.070833,60.85 145.6,60.95 145.1,60.95 C144.616667,60.95 144.145833,60.8375 143.6875,60.6125 C143.229167,60.3875 142.85,60.1 142.55,59.75 L142.55,59.75 L141,61.5 C141.483333,62 142.075,62.425 142.775,62.775 C143.475,63.125 144.3,63.3 145.25,63.3 Z M145.925,54.85 C145.125,54.85 144.504167,54.6125 144.0625,54.1375 C143.620833,53.6625 143.4,52.95 143.4,52 C143.4,51.0333333 143.633333,50.2916667 144.1,49.775 C144.566667,49.2583333 145.125,49 145.775,49 C146.541667,49 147.195833,49.3166667 147.7375,49.95 C148.279167,50.5833333 148.625,51.6 148.775,53 C148.358333,53.65 147.895833,54.1208333 147.3875,54.4125 C146.879167,54.7041667 146.391667,54.85 145.925,54.85 Z M162.825,63 L162.825,58.9 L164.825,58.9 L164.825,56.675 L162.825,56.675 L162.825,47.1 L159.4,47.1 L153.1,56.95 L153.1,58.9 L160.125,58.9 L160.125,63 L162.825,63 Z M160.125,56.675 L155.95,56.675 L158.85,52.25 C159.083333,51.8166667 159.308333,51.4 159.525,51 C159.741667,50.6 159.95,50.1916667 160.15,49.775 L160.15,49.775 L160.25,49.775 C160.216667,50.2416667 160.1875,50.7916667 160.1625,51.425 C160.1375,52.0583333 160.125,52.6083333 160.125,53.075 L160.125,53.075 L160.125,56.675 Z M176.625,63.3 C177.108333,63.3 177.5625,63.2541667 177.9875,63.1625 C178.4125,63.0708333 178.791667,62.9666667 179.125,62.85 L179.125,62.85 L178.625,60.725 C178.441667,60.8083333 178.2375,60.875 178.0125,60.925 C177.7875,60.975 177.566667,61 177.35,61 C176.2,61 175.625,60.2833333 175.625,58.85 L175.625,58.85 L175.625,53 L178.75,53 L178.75,50.725 L175.625,50.725 L175.625,47.375 L173.225,47.375 L172.875,50.725 L170.975,50.85 L170.975,53 L172.725,53 L172.725,58.85 C172.725,59.5166667 172.795833,60.1208333 172.9375,60.6625 C173.079167,61.2041667 173.304167,61.6708333 173.6125,62.0625 C173.920833,62.4541667 174.320833,62.7583333 174.8125,62.975 C175.304167,63.1916667 175.908333,63.3 176.625,63.3 Z M182.775,48.575 C183.291667,48.575 183.716667,48.425 184.05,48.125 C184.383333,47.825 184.55,47.4333333 184.55,46.95 C184.55,46.4666667 184.383333,46.0708333 184.05,45.7625 C183.716667,45.4541667 183.291667,45.3 182.775,45.3 C182.258333,45.3 181.833333,45.4541667 181.5,45.7625 C181.166667,46.0708333 181,46.4666667 181,46.95 C181,47.4333333 181.166667,47.825 181.5,48.125 C181.833333,48.425 182.258333,48.575 182.775,48.575 Z M184.2,63 L184.2,50.725 L181.325,50.725 L181.325,63 L184.2,63 Z M190.75,63 L190.75,54.425 C191.7,53.4083333 192.558333,52.9 193.325,52.9 C193.975,52.9 194.454167,53.1083333 194.7625,53.525 C195.070833,53.9416667 195.225,54.6583333 195.225,55.675 L195.225,55.675 L195.225,63 L198.1,63 L198.1,54.425 C199.05,53.4083333 199.908333,52.9 200.675,52.9 C201.308333,52.9 201.779167,53.1083333 202.0875,53.525 C202.395833,53.9416667 202.55,54.6583333 202.55,55.675 L202.55,55.675 L202.55,63 L205.45,63 L205.45,55.3 C205.45,53.7333333 205.141667,52.5291667 204.525,51.6875 C203.908333,50.8458333 202.95,50.425 201.65,50.425 C200.866667,50.425 200.158333,50.6333333 199.525,51.05 C198.891667,51.4666667 198.283333,51.9916667 197.7,52.625 C197.416667,51.925 197.004167,51.3833333 196.4625,51 C195.920833,50.6166667 195.2,50.425 194.3,50.425 C193.533333,50.425 192.845833,50.6166667 192.2375,51 C191.629167,51.3833333 191.066667,51.85 190.55,52.4 L190.55,52.4 L190.45,52.4 L190.25,50.725 L187.875,50.725 L187.875,63 L190.75,63 Z M214.2,63.3 C214.983333,63.3 215.733333,63.175 216.45,62.925 C217.166667,62.675 217.816667,62.3583333 218.4,61.975 L218.4,61.975 L217.425,60.175 C216.975,60.4583333 216.520833,60.6791667 216.0625,60.8375 C215.604167,60.9958333 215.108333,61.075 214.575,61.075 C213.575,61.075 212.754167,60.7791667 212.1125,60.1875 C211.470833,59.5958333 211.083333,58.75 210.95,57.65 L210.95,57.65 L218.75,57.65 C218.783333,57.5 218.8125,57.3 218.8375,57.05 C218.8625,56.8 218.875,56.5333333 218.875,56.25 C218.875,55.4 218.766667,54.6166667 218.55,53.9 C218.333333,53.1833333 218.0125,52.5666667 217.5875,52.05 C217.1625,51.5333333 216.633333,51.1333333 216,50.85 C215.366667,50.5666667 214.633333,50.425 213.8,50.425 C213.083333,50.425 212.383333,50.575 211.7,50.875 C211.016667,51.175 210.4125,51.6 209.8875,52.15 C209.3625,52.7 208.941667,53.375 208.625,54.175 C208.308333,54.975 208.15,55.875 208.15,56.875 C208.15,57.8916667 208.304167,58.7958333 208.6125,59.5875 C208.920833,60.3791667 209.35,61.05 209.9,61.6 C210.45,62.15 211.091667,62.5708333 211.825,62.8625 C212.558333,63.1541667 213.35,63.3 214.2,63.3 Z M216.375,55.7 L210.925,55.7 C211.058333,54.7 211.4,53.9416667 211.95,53.425 C212.5,52.9083333 213.141667,52.65 213.875,52.65 C214.725,52.65 215.354167,52.9208333 215.7625,53.4625 C216.170833,54.0041667 216.375,54.75 216.375,55.7 L216.375,55.7 Z M225.05,63.3 C225.816667,63.3 226.5,63.2 227.1,63 C227.7,62.8 228.2,62.5291667 228.6,62.1875 C229,61.8458333 229.304167,61.4458333 229.5125,60.9875 C229.720833,60.5291667 229.825,60.0333333 229.825,59.5 C229.825,58.9333333 229.720833,58.4458333 229.5125,58.0375 C229.304167,57.6291667 229.029167,57.2833333 228.6875,57 C228.345833,56.7166667 227.966667,56.4791667 227.55,56.2875 C227.133333,56.0958333 226.716667,55.925 226.3,55.775 C225.966667,55.6583333 225.645833,55.5416667 225.3375,55.425 C225.029167,55.3083333 224.758333,55.1833333 224.525,55.05 C224.291667,54.9166667 224.104167,54.7625 223.9625,54.5875 C223.820833,54.4125 223.75,54.2 223.75,53.95 C223.75,53.5666667 223.895833,53.2458333 224.1875,52.9875 C224.479167,52.7291667 224.933333,52.6 225.55,52.6 C226.033333,52.6 226.495833,52.6958333 226.9375,52.8875 C227.379167,53.0791667 227.816667,53.3333333 228.25,53.65 L228.25,53.65 L229.575,51.9 C229.075,51.5166667 228.483333,51.175 227.8,50.875 C227.116667,50.575 226.35,50.425 225.5,50.425 C224.116667,50.425 223.025,50.7666667 222.225,51.45 C221.425,52.1333333 221.025,53.0166667 221.025,54.1 C221.025,54.6166667 221.129167,55.0625 221.3375,55.4375 C221.545833,55.8125 221.8125,56.1416667 222.1375,56.425 C222.4625,56.7083333 222.833333,56.95 223.25,57.15 C223.666667,57.35 224.075,57.525 224.475,57.675 C224.791667,57.8083333 225.108333,57.9375 225.425,58.0625 C225.741667,58.1875 226.025,58.325 226.275,58.475 C226.525,58.625 226.725,58.7958333 226.875,58.9875 C227.025,59.1791667 227.1,59.4 227.1,59.65 C227.1,60.0833333 226.941667,60.4375 226.625,60.7125 C226.308333,60.9875 225.816667,61.125 225.15,61.125 C224.516667,61.125 223.929167,61.0041667 223.3875,60.7625 C222.845833,60.5208333 222.3,60.1833333 221.75,59.75 L221.75,59.75 L220.4,61.6 C221,62.0833333 221.7125,62.4875 222.5375,62.8125 C223.3625,63.1375 224.2,63.3 225.05,63.3 Z" id="194times" fill="#00766C" fill-rule="nonzero"></path>
                <g id="Group-14">
                    <g id="Group-22" transform="translate(18.000000, 0.000000)">
                        <g id="Group-3">
                            <mask id="mask-2" fill="white">
                                <use xlink:href="#path-1"></use>
                            </mask>
                            <g id="Clip-2"></g>
                            <path d="M73.718106,91.9517793 L1.57280684,91.9517793 C0.704704274,91.9517793 0.000157264957,91.2411586 0.000157264957,90.3655724 L6.29075556,2.33108966 C6.29075556,1.45550345 6.99530256,0.744882759 7.86340513,0.744882759 L67.4275077,0.744882759 C68.2956103,0.744882759 69.0001573,1.45550345 69.0001573,2.33108966 L75.2907556,90.3655724 C75.2907556,91.2411586 74.5862085,91.9517793 73.718106,91.9517793" id="Fill-1" fill="#00766C" mask="url(#mask-2)"></path>
                        </g>
                        <line x1="37.1538462" y1="0" x2="37.1538462" y2="90.8205128" id="Stroke-4" stroke="#FFFFFF" stroke-width="2"></line>
                        <g id="Group-8" transform="translate(15.333333, 89.641026)">
                            <mask id="mask-4" fill="white">
                                <use xlink:href="#path-3"></use>
                            </mask>
                            <g id="Clip-7"></g>
                            <line x1="2.02081538" y1="1.71544615" x2="2.07389231" y2="0.8326" id="Stroke-6" stroke="#FFFFFF" mask="url(#mask-4)"></line>
                        </g>
                        <line x1="17.6923077" y1="89.6410256" x2="22.4102564" y2="2.35897436" id="Stroke-9" stroke="#FFFFFF" stroke-dasharray="0.993,0.993"></line>
                        <line x1="51.8974359" y1="2.35897436" x2="56.6153846" y2="89.6410256" id="Stroke-17" stroke="#FFFFFF" stroke-dasharray="0.993,0.993"></line>
                        <g id="Group-21" transform="translate(56.615385, 89.641026)">
                            <mask id="mask-6" fill="white">
                                <use xlink:href="#path-5"></use>
                            </mask>
                            <g id="Clip-20"></g>
                            <line x1="0.941761538" y1="0.8326" x2="0.994838462" y2="1.71544615" id="Stroke-19" stroke="#FFFFFF" mask="url(#mask-6)"></line>
                        </g>
                    </g>
                    <g id="Group-13" transform="translate(0.000000, 24.000000)" fill-rule="nonzero">
                        <rect id="Rectangle-Copy-2" fill="#00766C" x="0" y="0" width="112" height="23"></rect>
                        <path d="M8.345,17 L8.345,12.905 L11.915,12.905 L11.915,11.435 L8.345,11.435 L8.345,8.66 L12.53,8.66 L12.53,7.19 L6.605,7.19 L6.605,17 L8.345,17 Z M16.88,17.18 C17.34,17.18 17.7825,17.095 18.2075,16.925 C18.6325,16.755 19.005,16.505 19.325,16.175 C19.645,15.845 19.9025,15.44 20.0975,14.96 C20.2925,14.48 20.39,13.935 20.39,13.325 C20.39,12.715 20.2925,12.17 20.0975,11.69 C19.9025,11.21 19.645,10.805 19.325,10.475 C19.005,10.145 18.6325,9.8925 18.2075,9.7175 C17.7825,9.5425 17.34,9.455 16.88,9.455 C16.42,9.455 15.98,9.5425 15.56,9.7175 C15.14,9.8925 14.7675,10.145 14.4425,10.475 C14.1175,10.805 13.86,11.21 13.67,11.69 C13.48,12.17 13.385,12.715 13.385,13.325 C13.385,13.935 13.48,14.48 13.67,14.96 C13.86,15.44 14.1175,15.845 14.4425,16.175 C14.7675,16.505 15.14,16.755 15.56,16.925 C15.98,17.095 16.42,17.18 16.88,17.18 Z M16.88,15.77 C16.34,15.77 15.9175,15.5475 15.6125,15.1025 C15.3075,14.6575 15.155,14.065 15.155,13.325 C15.155,12.575 15.3075,11.9775 15.6125,11.5325 C15.9175,11.0875 16.34,10.865 16.88,10.865 C17.42,10.865 17.845,11.0875 18.155,11.5325 C18.465,11.9775 18.62,12.575 18.62,13.325 C18.62,14.065 18.465,14.6575 18.155,15.1025 C17.845,15.5475 17.42,15.77 16.88,15.77 Z M24.29,17.18 C24.8,17.18 25.2425,17.065 25.6175,16.835 C25.9925,16.605 26.34,16.3 26.66,15.92 L26.66,15.92 L26.705,15.92 L26.84,17 L28.25,17 L28.25,9.635 L26.525,9.635 L26.525,14.675 C26.245,15.035 25.9825,15.295 25.7375,15.455 C25.4925,15.615 25.21,15.695 24.89,15.695 C24.49,15.695 24.2,15.57 24.02,15.32 C23.84,15.07 23.75,14.64 23.75,14.03 L23.75,14.03 L23.75,9.635 L22.025,9.635 L22.025,14.255 C22.025,15.195 22.205,15.9175 22.565,16.4225 C22.925,16.9275 23.5,17.18 24.29,17.18 Z M32.165,17 L32.165,12.5 C32.395,11.94 32.67,11.5475 32.99,11.3225 C33.31,11.0975 33.615,10.985 33.905,10.985 C34.065,10.985 34.2,10.995 34.31,11.015 C34.42,11.035 34.54,11.065 34.67,11.105 L34.67,11.105 L34.97,9.605 C34.76,9.505 34.48,9.455 34.13,9.455 C33.74,9.455 33.36,9.5825 32.99,9.8375 C32.62,10.0925 32.305,10.46 32.045,10.94 L32.045,10.94 L31.985,10.94 L31.865,9.635 L30.44,9.635 L30.44,17 L32.165,17 Z M38.75,13.85 L38.75,12.59 L35.18,12.59 L35.18,13.85 L38.75,13.85 Z M46.445,17 L46.445,15.53 L42.365,15.53 L42.365,7.19 L40.625,7.19 L40.625,17 L46.445,17 Z M49.79,17.18 C50.23,17.18 50.6375,17.085 51.0125,16.895 C51.3875,16.705 51.74,16.47 52.07,16.19 L52.07,16.19 L52.13,16.19 L52.25,17 L53.675,17 L53.675,12.635 C53.675,11.605 53.4475,10.8175 52.9925,10.2725 C52.5375,9.7275 51.85,9.455 50.93,9.455 C50.34,9.455 49.79,9.55 49.28,9.74 C48.77,9.93 48.31,10.155 47.9,10.415 L47.9,10.415 L48.53,11.57 C48.86,11.37 49.1975,11.2 49.5425,11.06 C49.8875,10.92 50.24,10.85 50.6,10.85 C50.85,10.85 51.06,10.8875 51.23,10.9625 C51.4,11.0375 51.5375,11.1425 51.6425,11.2775 C51.7475,11.4125 51.8225,11.5675 51.8675,11.7425 C51.9125,11.9175 51.94,12.1 51.95,12.29 C51.19,12.37 50.5375,12.485 49.9925,12.635 C49.4475,12.785 48.9975,12.97 48.6425,13.19 C48.2875,13.41 48.0275,13.6725 47.8625,13.9775 C47.6975,14.2825 47.615,14.63 47.615,15.02 C47.615,15.67 47.815,16.1925 48.215,16.5875 C48.615,16.9825 49.14,17.18 49.79,17.18 Z M50.345,15.83 C50.035,15.83 49.78,15.755 49.58,15.605 C49.38,15.455 49.28,15.215 49.28,14.885 C49.28,14.705 49.325,14.535 49.415,14.375 C49.505,14.215 49.655,14.0725 49.865,13.9475 C50.075,13.8225 50.35,13.71 50.69,13.61 C51.03,13.51 51.45,13.43 51.95,13.37 L51.95,13.37 L51.95,15.02 C51.67,15.28 51.4075,15.48 51.1625,15.62 C50.9175,15.76 50.645,15.83 50.345,15.83 Z M57.47,17 L57.47,11.855 C57.78,11.555 58.0575,11.3275 58.3025,11.1725 C58.5475,11.0175 58.83,10.94 59.15,10.94 C59.56,10.94 59.855,11.065 60.035,11.315 C60.215,11.565 60.305,11.995 60.305,12.605 L60.305,12.605 L60.305,17 L62.03,17 L62.03,12.38 C62.03,11.44 61.85,10.7175 61.49,10.2125 C61.13,9.7075 60.555,9.455 59.765,9.455 C59.255,9.455 58.8075,9.57 58.4225,9.8 C58.0375,10.03 57.68,10.305 57.35,10.625 L57.35,10.625 L57.29,10.625 L57.17,9.635 L55.745,9.635 L55.745,17 L57.47,17 Z M67.295,17.18 C67.765,17.18 68.215,17.105 68.645,16.955 C69.075,16.805 69.465,16.615 69.815,16.385 L69.815,16.385 L69.23,15.305 C68.96,15.475 68.6875,15.6075 68.4125,15.7025 C68.1375,15.7975 67.84,15.845 67.52,15.845 C66.92,15.845 66.4275,15.6675 66.0425,15.3125 C65.6575,14.9575 65.425,14.45 65.345,13.79 L65.345,13.79 L70.025,13.79 C70.045,13.7 70.0625,13.58 70.0775,13.43 C70.0925,13.28 70.1,13.12 70.1,12.95 C70.1,12.44 70.035,11.97 69.905,11.54 C69.775,11.11 69.5825,10.74 69.3275,10.43 C69.0725,10.12 68.755,9.88 68.375,9.71 C67.995,9.54 67.555,9.455 67.055,9.455 C66.625,9.455 66.205,9.545 65.795,9.725 C65.385,9.905 65.0225,10.16 64.7075,10.49 C64.3925,10.82 64.14,11.225 63.95,11.705 C63.76,12.185 63.665,12.725 63.665,13.325 C63.665,13.935 63.7575,14.4775 63.9425,14.9525 C64.1275,15.4275 64.385,15.83 64.715,16.16 C65.045,16.49 65.43,16.7425 65.87,16.9175 C66.31,17.0925 66.785,17.18 67.295,17.18 Z M68.6,12.62 L65.33,12.62 C65.41,12.02 65.615,11.565 65.945,11.255 C66.275,10.945 66.66,10.79 67.1,10.79 C67.61,10.79 67.9875,10.9525 68.2325,11.2775 C68.4775,11.6025 68.6,12.05 68.6,12.62 L68.6,12.62 Z M76.64,17 L76.64,13.16 L78.14,13.16 L80.255,17 L82.205,17 L79.865,12.905 C80.455,12.705 80.9275,12.375 81.2825,11.915 C81.6375,11.455 81.815,10.85 81.815,10.1 C81.815,9.55 81.7225,9.09 81.5375,8.72 C81.3525,8.35 81.1,8.0525 80.78,7.8275 C80.46,7.6025 80.08,7.44 79.64,7.34 C79.2,7.24 78.725,7.19 78.215,7.19 L78.215,7.19 L74.9,7.19 L74.9,17 L76.64,17 Z M78.035,11.78 L76.64,11.78 L76.64,8.585 L78.035,8.585 C78.705,8.585 79.2175,8.695 79.5725,8.915 C79.9275,9.135 80.105,9.53 80.105,10.1 C80.105,10.66 79.9275,11.08 79.5725,11.36 C79.2175,11.64 78.705,11.78 78.035,11.78 L78.035,11.78 Z M86.495,17.18 C86.955,17.18 87.3975,17.095 87.8225,16.925 C88.2475,16.755 88.62,16.505 88.94,16.175 C89.26,15.845 89.5175,15.44 89.7125,14.96 C89.9075,14.48 90.005,13.935 90.005,13.325 C90.005,12.715 89.9075,12.17 89.7125,11.69 C89.5175,11.21 89.26,10.805 88.94,10.475 C88.62,10.145 88.2475,9.8925 87.8225,9.7175 C87.3975,9.5425 86.955,9.455 86.495,9.455 C86.035,9.455 85.595,9.5425 85.175,9.7175 C84.755,9.8925 84.3825,10.145 84.0575,10.475 C83.7325,10.805 83.475,11.21 83.285,11.69 C83.095,12.17 83,12.715 83,13.325 C83,13.935 83.095,14.48 83.285,14.96 C83.475,15.44 83.7325,15.845 84.0575,16.175 C84.3825,16.505 84.755,16.755 85.175,16.925 C85.595,17.095 86.035,17.18 86.495,17.18 Z M86.495,15.77 C85.955,15.77 85.5325,15.5475 85.2275,15.1025 C84.9225,14.6575 84.77,14.065 84.77,13.325 C84.77,12.575 84.9225,11.9775 85.2275,11.5325 C85.5325,11.0875 85.955,10.865 86.495,10.865 C87.035,10.865 87.46,11.0875 87.77,11.5325 C88.08,11.9775 88.235,12.575 88.235,13.325 C88.235,14.065 88.08,14.6575 87.77,15.1025 C87.46,15.5475 87.035,15.77 86.495,15.77 Z M93.32,17.18 C93.76,17.18 94.1675,17.085 94.5425,16.895 C94.9175,16.705 95.27,16.47 95.6,16.19 L95.6,16.19 L95.66,16.19 L95.78,17 L97.205,17 L97.205,12.635 C97.205,11.605 96.9775,10.8175 96.5225,10.2725 C96.0675,9.7275 95.38,9.455 94.46,9.455 C93.87,9.455 93.32,9.55 92.81,9.74 C92.3,9.93 91.84,10.155 91.43,10.415 L91.43,10.415 L92.06,11.57 C92.39,11.37 92.7275,11.2 93.0725,11.06 C93.4175,10.92 93.77,10.85 94.13,10.85 C94.38,10.85 94.59,10.8875 94.76,10.9625 C94.93,11.0375 95.0675,11.1425 95.1725,11.2775 C95.2775,11.4125 95.3525,11.5675 95.3975,11.7425 C95.4425,11.9175 95.47,12.1 95.48,12.29 C94.72,12.37 94.0675,12.485 93.5225,12.635 C92.9775,12.785 92.5275,12.97 92.1725,13.19 C91.8175,13.41 91.5575,13.6725 91.3925,13.9775 C91.2275,14.2825 91.145,14.63 91.145,15.02 C91.145,15.67 91.345,16.1925 91.745,16.5875 C92.145,16.9825 92.67,17.18 93.32,17.18 Z M93.875,15.83 C93.565,15.83 93.31,15.755 93.11,15.605 C92.91,15.455 92.81,15.215 92.81,14.885 C92.81,14.705 92.855,14.535 92.945,14.375 C93.035,14.215 93.185,14.0725 93.395,13.9475 C93.605,13.8225 93.88,13.71 94.22,13.61 C94.56,13.51 94.98,13.43 95.48,13.37 L95.48,13.37 L95.48,15.02 C95.2,15.28 94.9375,15.48 94.6925,15.62 C94.4475,15.76 94.175,15.83 93.875,15.83 Z M101.855,17.18 C102.255,17.18 102.635,17.085 102.995,16.895 C103.355,16.705 103.67,16.475 103.94,16.205 L103.94,16.205 L104,16.205 L104.12,17 L105.545,17 L105.545,6.41 L103.82,6.41 L103.82,9.08 L103.88,10.265 C103.59,10.015 103.3,9.8175 103.01,9.6725 C102.72,9.5275 102.365,9.455 101.945,9.455 C101.545,9.455 101.1575,9.545 100.7825,9.725 C100.4075,9.905 100.075,10.16 99.785,10.49 C99.495,10.82 99.2625,11.225 99.0875,11.705 C98.9125,12.185 98.825,12.725 98.825,13.325 C98.825,14.545 99.0975,15.4925 99.6425,16.1675 C100.1875,16.8425 100.925,17.18 101.855,17.18 Z M102.275,15.755 C101.735,15.755 101.3225,15.5475 101.0375,15.1325 C100.7525,14.7175 100.61,14.11 100.61,13.31 C100.61,12.53 100.775,11.93 101.105,11.51 C101.435,11.09 101.84,10.88 102.32,10.88 C102.57,10.88 102.8175,10.925 103.0625,11.015 C103.3075,11.105 103.56,11.265 103.82,11.495 L103.82,11.495 L103.82,14.93 C103.34,15.48 102.825,15.755 102.275,15.755 Z" id="Four-LaneRoad" fill="#FFFFFF"></path>
                    </g>
                </g>
            </g>
        </g>
    </g>
</svg>