<?xml version="1.0" encoding="UTF-8"?>
<svg width="247px" height="93px" viewBox="0 0 247 93" version="1.1" xmlns="http://www.w3.org/2000/svg" xmlns:xlink="http://www.w3.org/1999/xlink">
    <title>anecdote-spending-3</title>
    <g id="02.-Anecdote-Cards" stroke="none" stroke-width="1" fill="none" fill-rule="evenodd">
        <g id="Anecdote-Cards-(Desktop/Tablet)---SVG" transform="translate(-1136.000000, -955.000000)">
            <g id="anecdote-spending-3" transform="translate(1136.000000, 955.000000)">
                <g id="Group-31">
                    <polygon id="Fill-1" fill="#00766C" points="55.9991071 0 53.3508212 2.02048429 23 24.9810331 25.6482859 29 55.9991071 6.03761775 86.3499283 29 89 24.9810331 58.6491788 2.02048429"></polygon>
                    <polygon id="Fill-2" fill="#00766C" points="82 46 30 46 30 27 56 8 82 27"></polygon>
                    <polygon id="Fill-3" fill="#00766C" points="87 91 109 91 109 44 87 44"></polygon>
                    <polygon id="Fill-4" fill="#00766C" points="30 91 82 91 82 34 30 34"></polygon>
                    <polygon id="Fill-5" fill="#FFFFFF" points="35 44 45 44 45 34 35 34"></polygon>
                    <polygon id="Fill-6" fill="#FFFFFF" points="35 60 45 60 45 50 35 50"></polygon>
                    <polygon id="Fill-7" fill="#FFFFFF" points="51 44 61 44 61 34 51 34"></polygon>
                    <polygon id="Fill-8" fill="#FFFFFF" points="51 60 61 60 61 50 51 50"></polygon>
                    <polygon id="Fill-9" fill="#FFFFFF" points="66 44 76 44 76 34 66 34"></polygon>
                    <polygon id="Fill-10" fill="#FFFFFF" points="66 60 76 60 76 50 66 50"></polygon>
                    <polygon id="Fill-11" fill="#FFFFFF" points="94 61 104 61 104 51 94 51"></polygon>
                    <polygon id="Fill-12" fill="#FFFFFF" points="94 78 104 78 104 68 94 68"></polygon>
                    <g id="Group-27" transform="translate(2.000000, 43.000000)">
                        <polygon id="Fill-3" fill="#00766C" points="1.92870556e-12 46.9552687 21.6193772 46.9552687 21.6193772 4.14803327e-14 1.92870556e-12 4.14803327e-14"></polygon>
                        <polygon id="Fill-11" fill="#FFFFFF" points="6.00298039 18.2319873 16.8793287 18.2319873 16.8793287 7.33072178 6.00298039 7.33072178"></polygon>
                        <polygon id="Fill-12" fill="#FFFFFF" points="6.00298039 34.3798029 16.8793287 34.3798029 16.8793287 23.4767313 6.00298039 23.4767313"></polygon>
                    </g>
                    <polygon id="Fill-13" fill="#FFFFFF" points="51 90 61 90 61 71 51 71"></polygon>
                    <g id="Group-30" transform="translate(0.000000, 19.000000)">
                        <path d="M20.3635544,72.0954444 L27.9226279,72.0954444 C27.9226279,72.0954444 32.4844809,43.3218571 31.7374368,35.4845454 C30.9903926,27.6472338 22.4238044,7.96442153 22.4238044,7.96442153 L19.4880838,8.14710523 C19.4880838,8.14710523 27.9208191,27.819065 26.5443044,39.0785307 C25.1659809,50.3361877 20.3635544,72.0954444 20.3635544,72.0954444" id="Fill-14" fill="#00766C"></path>
                        <path d="M20.3635544,72.0954444 L27.9226279,72.0954444 C27.9226279,72.0954444 32.4844809,43.3218571 31.7374368,35.4845454 C30.9903926,27.6472338 22.4238044,7.96442153 22.4238044,7.96442153 L19.4880838,8.14710523 C19.4880838,8.14710523 27.9208191,27.819065 26.5443044,39.0785307 C25.1659809,50.3361877 20.3635544,72.0954444 20.3635544,72.0954444 Z" id="Stroke-16" stroke="#FFFFFF"></path>
                        <path d="M21.8578235,10.10164 C21.4562647,9.80862253 20.8665882,9.88097251 20.5482353,10.2644274 C20.5482353,10.2644274 16.7515147,14.8315199 15.6734559,15.8697422 C14.5953971,16.9097731 11.7302206,21.5492156 11.7302206,21.5492156 C11.46975,21.972463 11.07,21.957993 10.8420882,21.5166581 C10.8420882,21.5166581 9.64826471,19.206885 11.1513971,16.3201208 C12.6527206,13.4333566 17.9218235,9.94427875 17.9218235,9.94427875 C18.3378529,9.66934882 18.3324265,9.66392257 17.9145882,9.9316175 C17.9145882,9.9316175 11.6958529,13.8982052 9.91054412,14.4751963 C8.12704412,15.0521874 1.45791176,17.8901154 1.45791176,17.8901154 C1.00027941,18.0854603 0.783220588,17.8684104 0.973147059,17.4107967 C0.973147059,17.4107967 3.61945588,11.0512334 6.28023529,9.01458149 C9.93405882,6.22006349 18.6887647,7.04485327 18.6887647,7.04485327 C19.1843824,7.09007201 19.2169412,6.96526829 18.7611176,6.7644971 C18.7611176,6.7644971 15.9357353,5.52369493 12.9294706,5.77872861 C9.92320588,6.03195354 8.28079412,4.48547271 8.28079412,4.48547271 C7.91902941,4.14361905 8.02755882,3.81804413 8.52136765,3.76378165 C8.52136765,3.76378165 14.6568971,3.07283933 15.5848235,3.23200929 C17.9905588,3.64440418 19.9748382,6.23815099 19.9748382,6.23815099 C20.2769118,6.63426713 20.4378971,6.5601084 20.3329853,6.07174603 C20.3329853,6.07174603 19.4792206,2.12686334 24.2092941,0.605704994 C26.9532794,-0.278773519 27.5465735,0.233102594 27.5465735,0.233102594 C27.9228088,0.558677507 27.8685441,1.01448238 27.429,1.24419357 L25.8933088,2.04366086 C25.4537647,2.27337205 24.8279118,2.77077816 24.5059412,3.15061556 L22.1472353,5.92342857 C21.8252647,6.30326597 21.8596324,6.33763221 22.2268235,5.99939605 C22.2268235,5.99939605 28.2465882,0.450152536 31.7104853,1.85555091 C35.1743824,3.26094928 40.0328824,5.84022609 40.0328824,5.84022609 C40.4724265,6.07355478 40.4253971,6.28517847 39.9279706,6.31050097 L33.2552206,6.65416338 C32.7596029,6.67948587 31.9474412,6.73736585 31.4518235,6.78439334 L23.7353824,7.50065815 C23.2397647,7.54587689 23.2289118,7.67972435 23.7136765,7.79548432 C23.7136765,7.79548432 29.9360294,9.29132017 31.6598382,9.89725126 C33.3836471,10.5013736 35.4438971,14.0826976 35.4438971,14.0826976 C35.6917059,14.51318 35.4927353,14.8043887 35.0025441,14.7284212 C35.0025441,14.7284212 28.7060294,13.7643577 27.2372647,13.3591978 C25.7666912,12.9522292 21.8578235,10.10164 21.8578235,10.10164 Z" id="Stroke-18" stroke="#FFFFFF"></path>
                        <path d="M21.8277971,10.1105028 C21.4262382,9.8174854 20.8365618,9.88983539 20.5182088,10.2732903 C20.5182088,10.2732903 16.7214882,14.8421916 15.6434294,15.8804138 C14.5653706,16.918636 11.7020029,21.5598873 11.7020029,21.5598873 C11.4397235,21.9813259 11.0399735,21.9668559 10.8120618,21.525521 C10.8120618,21.525521 9.61823824,19.2157479 11.1213706,16.3289837 C12.6226941,13.4440282 17.8936059,9.95495037 17.8936059,9.95495037 C18.3078265,9.68002044 18.3042088,9.67278544 17.8845618,9.94048037 C17.8845618,9.94048037 11.6658265,13.9070681 9.88232647,14.4840592 C8.09701765,15.062859 1.42969412,17.900787 1.42969412,17.900787 C0.970252941,18.0961319 0.753194118,17.879082 0.944929412,17.4196596 C0.944929412,17.4196596 3.58942941,11.0600963 6.25020882,9.02525312 C9.90403235,6.22892636 18.6605471,7.05371614 18.6605471,7.05371614 C19.1543559,7.09893488 19.1887235,6.97413117 18.7329,6.77516872 C18.7329,6.77516872 15.9057088,5.5325578 12.8994441,5.78759148 C9.89498824,6.04262516 8.25257647,4.49433558 8.25257647,4.49433558 C7.88900294,4.15248192 7.99753235,3.82871576 8.49134118,3.77264452 C8.49134118,3.77264452 14.6286794,3.08170221 15.5547971,3.24087216 C17.9605324,3.6550758 19.9448118,6.24882261 19.9448118,6.24882261 C20.2468853,6.64313 20.4078706,6.56897127 20.3029588,6.08241765 C20.3029588,6.08241765 19.4491941,2.13753496 24.1810765,0.614567867 C26.9250618,-0.268101897 27.5165471,0.241965467 27.5165471,0.241965467 C27.8927824,0.569349129 27.8403265,1.02334526 27.3989735,1.25305645 L25.8632824,2.05252373 C25.4237382,2.28223492 24.7996941,2.78144979 24.4759147,3.15947844 L22.1172088,5.93410019 C21.7952382,6.31212884 21.8314147,6.34649508 22.1967971,6.01006767 C22.1967971,6.01006767 28.2183706,0.459015408 31.6804588,1.86441378 C35.1443559,3.26981216 40.0028559,5.84908897 40.0028559,5.84908897 C40.4424,6.08241765 40.3953706,6.29404135 39.8979441,6.31936384 L33.2270029,6.66302625 C32.7295765,6.68834874 31.9174147,6.74803748 31.4217971,6.79325621 L23.7053559,7.50952102 C23.2097382,7.55473976 23.2006941,7.68858722 23.68365,7.80434719 C23.68365,7.80434719 29.9078118,9.30018304 31.6298118,9.90611413 C33.3536206,10.5120452 35.4138706,14.0915605 35.4138706,14.0915605 C35.6616794,14.5220429 35.4645176,14.8132516 34.9725176,14.7390928 C34.9725176,14.7390928 28.6760029,13.7750293 27.2072382,13.3680607 C25.7366647,12.9629008 21.8277971,10.1105028 21.8277971,10.1105028" id="Fill-20" fill="#00766C"></path>
                        <path d="M102.327499,72.0954444 L109.886572,72.0954444 C109.886572,72.0954444 114.448425,43.3218571 113.701381,35.4845454 C112.954337,27.6472338 104.389557,7.96442153 104.389557,7.96442153 L101.452028,8.14710523 C101.452028,8.14710523 109.884763,27.819065 108.508249,39.0785307 C107.131734,50.3361877 102.327499,72.0954444 102.327499,72.0954444" id="Fill-22" fill="#00766C"></path>
                        <path d="M102.327499,72.0954444 L109.886572,72.0954444 C109.886572,72.0954444 114.448425,43.3218571 113.701381,35.4845454 C112.954337,27.6472338 104.389557,7.96442153 104.389557,7.96442153 L101.452028,8.14710523 C101.452028,8.14710523 109.884763,27.819065 108.508249,39.0785307 C107.131734,50.3361877 102.327499,72.0954444 102.327499,72.0954444 Z" id="Stroke-24" stroke="#FFFFFF"></path>
                        <path d="M103.822853,10.10164 C103.421294,9.80862253 102.831618,9.88097251 102.513265,10.2644274 C102.513265,10.2644274 98.7165441,14.8315199 97.6384853,15.8697422 C96.5604265,16.9097731 93.69525,21.5492156 93.69525,21.5492156 C93.4347794,21.972463 93.0350294,21.957993 92.8071176,21.5166581 C92.8071176,21.5166581 91.6132941,19.206885 93.1164265,16.3201208 C94.61775,13.4333566 99.8868529,9.94427875 99.8868529,9.94427875 C100.302882,9.66934882 100.297456,9.66392257 99.8778088,9.9316175 C99.8778088,9.9316175 93.6608824,13.8982052 91.8755735,14.4751963 C90.0902647,15.0521874 83.4229412,17.8901154 83.4229412,17.8901154 C82.9653088,18.0854603 82.74825,17.8684104 82.9381765,17.4107967 C82.9381765,17.4107967 85.5844853,11.0512334 88.2452647,9.01458149 C91.8990882,6.22006349 100.653794,7.04485327 100.653794,7.04485327 C101.149412,7.09007201 101.181971,6.96526829 100.726147,6.7644971 C100.726147,6.7644971 97.9007647,5.52369493 94.8945,5.77872861 C91.8882353,6.03195354 90.2458235,4.48547271 90.2458235,4.48547271 C89.8840588,4.14361905 89.9925882,3.81804413 90.4863971,3.76378165 C90.4863971,3.76378165 96.6219265,3.07283933 97.5498529,3.23200929 C99.9555882,3.64440418 101.939868,6.23815099 101.939868,6.23815099 C102.241941,6.63426713 102.402926,6.5601084 102.298015,6.07174603 C102.298015,6.07174603 101.44425,2.12686334 106.174324,0.605704994 C108.918309,-0.278773519 109.511603,0.233102594 109.511603,0.233102594 C109.887838,0.558677507 109.833574,1.01448238 109.394029,1.24419357 L107.858338,2.04366086 C107.416985,2.27337205 106.792941,2.77077816 106.470971,3.15061556 L104.112265,5.92342857 C103.790294,6.30326597 103.824662,6.33763221 104.191853,5.99939605 C104.191853,5.99939605 110.211618,0.450152536 113.675515,1.85555091 C117.139412,3.26094928 121.996103,5.84022609 121.996103,5.84022609 C122.437456,6.07355478 122.390426,6.28517847 121.893,6.31050097 L115.22025,6.65416338 C114.724632,6.67948587 113.912471,6.73736585 113.416853,6.78439334 L105.700412,7.50065815 C105.204794,7.54587689 105.193941,7.67972435 105.678706,7.79548432 C105.678706,7.79548432 111.901059,9.29132017 113.624868,9.89725126 C115.346868,10.5013736 117.408926,14.0826976 117.408926,14.0826976 C117.656735,14.51318 117.457765,14.8043887 116.965765,14.7284212 C116.965765,14.7284212 110.671059,13.7643577 109.200485,13.3591978 C107.731721,12.9522292 103.822853,10.10164 103.822853,10.10164 Z" id="Stroke-26" stroke="#FFFFFF"></path>
                        <path d="M103.792826,10.1105028 C103.391268,9.8174854 102.801591,9.88983539 102.483238,10.2732903 C102.483238,10.2732903 98.6865176,14.8421916 97.6084588,15.8804138 C96.5304,16.918636 93.6670324,21.5598873 93.6670324,21.5598873 C93.4047529,21.9813259 93.0050029,21.9668559 92.7770912,21.525521 C92.7770912,21.525521 91.5832676,19.2157479 93.0864,16.3289837 C94.5877235,13.4440282 99.8568265,9.95495037 99.8568265,9.95495037 C100.272856,9.68002044 100.269238,9.67278544 99.8495912,9.94048037 C99.8495912,9.94048037 93.6308559,13.9070681 91.8473559,14.4840592 C90.0620471,15.062859 83.3929147,17.900787 83.3929147,17.900787 C82.9352824,18.0961319 82.7182235,17.879082 82.9099588,17.4196596 C82.9099588,17.4196596 85.5544588,11.0600963 88.2152382,9.02525312 C91.8690618,6.22892636 100.625576,7.05371614 100.625576,7.05371614 C101.119385,7.09893488 101.151944,6.97413117 100.697929,6.77516872 C100.697929,6.77516872 97.8707382,5.5325578 94.8644735,5.78759148 C91.8600176,6.04262516 90.2157971,4.49433558 90.2157971,4.49433558 C89.8540324,4.15248192 89.9625618,3.82871576 90.4563706,3.77264452 C90.4563706,3.77264452 96.5937088,3.08170221 97.5198265,3.24087216 C99.9255618,3.6550758 101.909841,6.24882261 101.909841,6.24882261 C102.211915,6.64313 102.3729,6.56897127 102.267988,6.08241765 C102.267988,6.08241765 101.414224,2.13753496 106.146106,0.614567867 C108.890091,-0.268101897 109.481576,0.241965467 109.481576,0.241965467 C109.857812,0.569349129 109.803547,1.02334526 109.364003,1.25305645 L107.828312,2.05252373 C107.388768,2.28223492 106.764724,2.78144979 106.440944,3.15947844 L104.082238,5.93410019 C103.760268,6.31212884 103.796444,6.34649508 104.161826,6.01006767 C104.161826,6.01006767 110.1834,0.459015408 113.645488,1.86441378 C117.109385,3.26981216 121.967885,5.84908897 121.967885,5.84908897 C122.407429,6.08241765 122.3604,6.29404135 121.862974,6.31936384 L115.190224,6.66302625 C114.694606,6.68834874 113.882444,6.74803748 113.386826,6.79325621 L105.670385,7.50952102 C105.174768,7.55473976 105.165724,7.68858722 105.648679,7.80434719 C105.648679,7.80434719 111.872841,9.30018304 113.594841,9.90611413 C115.31865,10.5120452 117.3789,14.0915605 117.3789,14.0915605 C117.626709,14.5220429 117.429547,14.8132516 116.937547,14.7390928 C116.937547,14.7390928 110.641032,13.7750293 109.172268,13.3680607 C107.701694,12.9629008 103.792826,10.1105028 103.792826,10.1105028" id="Fill-28" fill="#00766C"></path>
                    </g>
                </g>
                <g id="Group-9" transform="translate(138.000000, 0.000000)" fill-rule="nonzero">
                    <path d="M5.296,14 L5.296,5.104 L8.32,5.104 L8.32,3.536 L0.416,3.536 L0.416,5.104 L3.44,5.104 L3.44,14 L5.296,14 Z M11.744,14 L11.744,8.512 C12.0746667,8.192 12.3706667,7.94933333 12.632,7.784 C12.8933333,7.61866667 13.1946667,7.536 13.536,7.536 C13.9733333,7.536 14.288,7.66933333 14.48,7.936 C14.672,8.20266667 14.768,8.66133333 14.768,9.312 L14.768,9.312 L14.768,14 L16.608,14 L16.608,9.072 C16.608,8.06933333 16.416,7.29866667 16.032,6.76 C15.648,6.22133333 15.0346667,5.952 14.192,5.952 C13.648,5.952 13.176,6.072 12.776,6.312 C12.376,6.552 12.0106667,6.82666667 11.68,7.136 L11.68,7.136 L11.744,5.616 L11.744,2.704 L9.904,2.704 L9.904,14 L11.744,14 Z M20.672,14 L20.672,9.2 C20.9173333,8.60266667 21.2106667,8.184 21.552,7.944 C21.8933333,7.704 22.2186667,7.584 22.528,7.584 C22.6986667,7.584 22.8426667,7.59466667 22.96,7.616 C23.0773333,7.63733333 23.2053333,7.66933333 23.344,7.712 L23.344,7.712 L23.664,6.112 C23.44,6.00533333 23.1413333,5.952 22.768,5.952 C22.352,5.952 21.9466667,6.088 21.552,6.36 C21.1573333,6.632 20.8213333,7.024 20.544,7.536 L20.544,7.536 L20.48,7.536 L20.352,6.144 L18.832,6.144 L18.832,14 L20.672,14 Z M28,14.192 C28.5013333,14.192 28.9813333,14.112 29.44,13.952 C29.8986667,13.792 30.3146667,13.5893333 30.688,13.344 L30.688,13.344 L30.064,12.192 C29.776,12.3733333 29.4853333,12.5146667 29.192,12.616 C28.8986667,12.7173333 28.5813333,12.768 28.24,12.768 C27.6,12.768 27.0746667,12.5786667 26.664,12.2 C26.2533333,11.8213333 26.0053333,11.28 25.92,10.576 L25.92,10.576 L30.912,10.576 C30.9333333,10.48 30.952,10.352 30.968,10.192 C30.984,10.032 30.992,9.86133333 30.992,9.68 C30.992,9.136 30.9226667,8.63466667 30.784,8.176 C30.6453333,7.71733333 30.44,7.32266667 30.168,6.992 C29.896,6.66133333 29.5573333,6.40533333 29.152,6.224 C28.7466667,6.04266667 28.2773333,5.952 27.744,5.952 C27.2853333,5.952 26.8373333,6.048 26.4,6.24 C25.9626667,6.432 25.576,6.704 25.24,7.056 C24.904,7.408 24.6346667,7.84 24.432,8.352 C24.2293333,8.864 24.128,9.44 24.128,10.08 C24.128,10.7306667 24.2266667,11.3093333 24.424,11.816 C24.6213333,12.3226667 24.896,12.752 25.248,13.104 C25.6,13.456 26.0106667,13.7253333 26.48,13.912 C26.9493333,14.0986667 27.456,14.192 28,14.192 Z M29.392,9.328 L25.904,9.328 C25.9893333,8.688 26.208,8.20266667 26.56,7.872 C26.912,7.54133333 27.3226667,7.376 27.792,7.376 C28.336,7.376 28.7386667,7.54933333 29,7.896 C29.2613333,8.24266667 29.392,8.72 29.392,9.328 L29.392,9.328 Z M36.112,14.192 C36.6133333,14.192 37.0933333,14.112 37.552,13.952 C38.0106667,13.792 38.4266667,13.5893333 38.8,13.344 L38.8,13.344 L38.176,12.192 C37.888,12.3733333 37.5973333,12.5146667 37.304,12.616 C37.0106667,12.7173333 36.6933333,12.768 36.352,12.768 C35.712,12.768 35.1866667,12.5786667 34.776,12.2 C34.3653333,11.8213333 34.1173333,11.28 34.032,10.576 L34.032,10.576 L39.024,10.576 C39.0453333,10.48 39.064,10.352 39.08,10.192 C39.096,10.032 39.104,9.86133333 39.104,9.68 C39.104,9.136 39.0346667,8.63466667 38.896,8.176 C38.7573333,7.71733333 38.552,7.32266667 38.28,6.992 C38.008,6.66133333 37.6693333,6.40533333 37.264,6.224 C36.8586667,6.04266667 36.3893333,5.952 35.856,5.952 C35.3973333,5.952 34.9493333,6.048 34.512,6.24 C34.0746667,6.432 33.688,6.704 33.352,7.056 C33.016,7.408 32.7466667,7.84 32.544,8.352 C32.3413333,8.864 32.24,9.44 32.24,10.08 C32.24,10.7306667 32.3386667,11.3093333 32.536,11.816 C32.7333333,12.3226667 33.008,12.752 33.36,13.104 C33.712,13.456 34.1226667,13.7253333 34.592,13.912 C35.0613333,14.0986667 35.568,14.192 36.112,14.192 Z M37.504,9.328 L34.016,9.328 C34.1013333,8.688 34.32,8.20266667 34.672,7.872 C35.024,7.54133333 35.4346667,7.376 35.904,7.376 C36.448,7.376 36.8506667,7.54933333 37.112,7.896 C37.3733333,8.24266667 37.504,8.72 37.504,9.328 L37.504,9.328 Z M44.336,10.64 L44.336,9.296 L40.528,9.296 L40.528,10.64 L44.336,10.64 Z M49.952,14 C50.528,14 51.0613333,13.9386667 51.552,13.816 C52.0426667,13.6933333 52.4666667,13.504 52.824,13.248 C53.1813333,12.992 53.4613333,12.672 53.664,12.288 C53.8666667,11.904 53.968,11.4506667 53.968,10.928 C53.968,10.224 53.7786667,9.66666667 53.4,9.256 C53.0213333,8.84533333 52.544,8.576 51.968,8.448 L51.968,8.448 L51.968,8.384 C52.4266667,8.224 52.784,7.93066667 53.04,7.504 C53.296,7.07733333 53.424,6.61333333 53.424,6.112 C53.424,5.632 53.3306667,5.22666667 53.144,4.896 C52.9573333,4.56533333 52.696,4.30133333 52.36,4.104 C52.024,3.90666667 51.6293333,3.76266667 51.176,3.672 C50.7226667,3.58133333 50.224,3.536 49.68,3.536 L49.68,3.536 L46.336,3.536 L46.336,14 L49.952,14 Z M49.52,7.856 L48.192,7.856 L48.192,4.976 L49.552,4.976 C50.2346667,4.976 50.7466667,5.08266667 51.088,5.296 C51.4293333,5.50933333 51.6,5.872 51.6,6.384 C51.6,6.832 51.4373333,7.18933333 51.112,7.456 C50.7866667,7.72266667 50.256,7.856 49.52,7.856 L49.52,7.856 Z M49.76,12.56 L48.192,12.56 L48.192,9.248 L49.76,9.248 C50.5493333,9.248 51.1466667,9.37333333 51.552,9.624 C51.9573333,9.87466667 52.16,10.2773333 52.16,10.832 C52.16,11.4186667 51.952,11.8533333 51.536,12.136 C51.12,12.4186667 50.528,12.56 49.76,12.56 L49.76,12.56 Z M59.088,14.192 C59.5893333,14.192 60.0693333,14.112 60.528,13.952 C60.9866667,13.792 61.4026667,13.5893333 61.776,13.344 L61.776,13.344 L61.152,12.192 C60.864,12.3733333 60.5733333,12.5146667 60.28,12.616 C59.9866667,12.7173333 59.6693333,12.768 59.328,12.768 C58.688,12.768 58.1626667,12.5786667 57.752,12.2 C57.3413333,11.8213333 57.0933333,11.28 57.008,10.576 L57.008,10.576 L62,10.576 C62.0213333,10.48 62.04,10.352 62.056,10.192 C62.072,10.032 62.08,9.86133333 62.08,9.68 C62.08,9.136 62.0106667,8.63466667 61.872,8.176 C61.7333333,7.71733333 61.528,7.32266667 61.256,6.992 C60.984,6.66133333 60.6453333,6.40533333 60.24,6.224 C59.8346667,6.04266667 59.3653333,5.952 58.832,5.952 C58.3733333,5.952 57.9253333,6.048 57.488,6.24 C57.0506667,6.432 56.664,6.704 56.328,7.056 C55.992,7.408 55.7226667,7.84 55.52,8.352 C55.3173333,8.864 55.216,9.44 55.216,10.08 C55.216,10.7306667 55.3146667,11.3093333 55.512,11.816 C55.7093333,12.3226667 55.984,12.752 56.336,13.104 C56.688,13.456 57.0986667,13.7253333 57.568,13.912 C58.0373333,14.0986667 58.544,14.192 59.088,14.192 Z M60.48,9.328 L56.992,9.328 C57.0773333,8.688 57.296,8.20266667 57.648,7.872 C58,7.54133333 58.4106667,7.376 58.88,7.376 C59.424,7.376 59.8266667,7.54933333 60.088,7.896 C60.3493333,8.24266667 60.48,8.72 60.48,9.328 L60.48,9.328 Z M66.592,14.192 C67.0186667,14.192 67.424,14.0906667 67.808,13.888 C68.192,13.6853333 68.528,13.44 68.816,13.152 L68.816,13.152 L68.88,13.152 L69.008,14 L70.528,14 L70.528,2.704 L68.688,2.704 L68.688,5.552 L68.752,6.816 C68.4426667,6.54933333 68.1333333,6.33866667 67.824,6.184 C67.5146667,6.02933333 67.136,5.952 66.688,5.952 C66.2613333,5.952 65.848,6.048 65.448,6.24 C65.048,6.432 64.6933333,6.704 64.384,7.056 C64.0746667,7.408 63.8266667,7.84 63.64,8.352 C63.4533333,8.864 63.36,9.44 63.36,10.08 C63.36,11.3813333 63.6506667,12.392 64.232,13.112 C64.8133333,13.832 65.6,14.192 66.592,14.192 Z M67.04,12.672 C66.464,12.672 66.024,12.4506667 65.72,12.008 C65.416,11.5653333 65.264,10.9173333 65.264,10.064 C65.264,9.232 65.44,8.592 65.792,8.144 C66.144,7.696 66.576,7.472 67.088,7.472 C67.3546667,7.472 67.6186667,7.52 67.88,7.616 C68.1413333,7.712 68.4106667,7.88266667 68.688,8.128 L68.688,8.128 L68.688,11.792 C68.176,12.3786667 67.6266667,12.672 67.04,12.672 Z M74.704,14 L74.704,9.2 C74.9493333,8.60266667 75.2426667,8.184 75.584,7.944 C75.9253333,7.704 76.2506667,7.584 76.56,7.584 C76.7306667,7.584 76.8746667,7.59466667 76.992,7.616 C77.1093333,7.63733333 77.2373333,7.66933333 77.376,7.712 L77.376,7.712 L77.696,6.112 C77.472,6.00533333 77.1733333,5.952 76.8,5.952 C76.384,5.952 75.9786667,6.088 75.584,6.36 C75.1893333,6.632 74.8533333,7.024 74.576,7.536 L74.576,7.536 L74.512,7.536 L74.384,6.144 L72.864,6.144 L72.864,14 L74.704,14 Z M81.888,14.192 C82.3786667,14.192 82.8506667,14.1013333 83.304,13.92 C83.7573333,13.7386667 84.1546667,13.472 84.496,13.12 C84.8373333,12.768 85.112,12.336 85.32,11.824 C85.528,11.312 85.632,10.7306667 85.632,10.08 C85.632,9.42933333 85.528,8.848 85.32,8.336 C85.112,7.824 84.8373333,7.392 84.496,7.04 C84.1546667,6.688 83.7573333,6.41866667 83.304,6.232 C82.8506667,6.04533333 82.3786667,5.952 81.888,5.952 C81.3973333,5.952 80.928,6.04533333 80.48,6.232 C80.032,6.41866667 79.6346667,6.688 79.288,7.04 C78.9413333,7.392 78.6666667,7.824 78.464,8.336 C78.2613333,8.848 78.16,9.42933333 78.16,10.08 C78.16,10.7306667 78.2613333,11.312 78.464,11.824 C78.6666667,12.336 78.9413333,12.768 79.288,13.12 C79.6346667,13.472 80.032,13.7386667 80.48,13.92 C80.928,14.1013333 81.3973333,14.192 81.888,14.192 Z M81.888,12.688 C81.312,12.688 80.8613333,12.4506667 80.536,11.976 C80.2106667,11.5013333 80.048,10.8693333 80.048,10.08 C80.048,9.28 80.2106667,8.64266667 80.536,8.168 C80.8613333,7.69333333 81.312,7.456 81.888,7.456 C82.464,7.456 82.9173333,7.69333333 83.248,8.168 C83.5786667,8.64266667 83.744,9.28 83.744,10.08 C83.744,10.8693333 83.5786667,11.5013333 83.248,11.976 C82.9173333,12.4506667 82.464,12.688 81.888,12.688 Z M90.672,14.192 C91.1626667,14.192 91.6346667,14.1013333 92.088,13.92 C92.5413333,13.7386667 92.9386667,13.472 93.28,13.12 C93.6213333,12.768 93.896,12.336 94.104,11.824 C94.312,11.312 94.416,10.7306667 94.416,10.08 C94.416,9.42933333 94.312,8.848 94.104,8.336 C93.896,7.824 93.6213333,7.392 93.28,7.04 C92.9386667,6.688 92.5413333,6.41866667 92.088,6.232 C91.6346667,6.04533333 91.1626667,5.952 90.672,5.952 C90.1813333,5.952 89.712,6.04533333 89.264,6.232 C88.816,6.41866667 88.4186667,6.688 88.072,7.04 C87.7253333,7.392 87.4506667,7.824 87.248,8.336 C87.0453333,8.848 86.944,9.42933333 86.944,10.08 C86.944,10.7306667 87.0453333,11.312 87.248,11.824 C87.4506667,12.336 87.7253333,12.768 88.072,13.12 C88.4186667,13.472 88.816,13.7386667 89.264,13.92 C89.712,14.1013333 90.1813333,14.192 90.672,14.192 Z M90.672,12.688 C90.096,12.688 89.6453333,12.4506667 89.32,11.976 C88.9946667,11.5013333 88.832,10.8693333 88.832,10.08 C88.832,9.28 88.9946667,8.64266667 89.32,8.168 C89.6453333,7.69333333 90.096,7.456 90.672,7.456 C91.248,7.456 91.7013333,7.69333333 92.032,8.168 C92.3626667,8.64266667 92.528,9.28 92.528,10.08 C92.528,10.8693333 92.3626667,11.5013333 92.032,11.976 C91.7013333,12.4506667 91.248,12.688 90.672,12.688 Z M98.08,14 L98.08,8.512 C98.688,7.86133333 99.2373333,7.536 99.728,7.536 C100.144,7.536 100.450667,7.66933333 100.648,7.936 C100.845333,8.20266667 100.944,8.66133333 100.944,9.312 L100.944,9.312 L100.944,14 L102.784,14 L102.784,8.512 C103.392,7.86133333 103.941333,7.536 104.432,7.536 C104.837333,7.536 105.138667,7.66933333 105.336,7.936 C105.533333,8.20266667 105.632,8.66133333 105.632,9.312 L105.632,9.312 L105.632,14 L107.488,14 L107.488,9.072 C107.488,8.06933333 107.290667,7.29866667 106.896,6.76 C106.501333,6.22133333 105.888,5.952 105.056,5.952 C104.554667,5.952 104.101333,6.08533333 103.696,6.352 C103.290667,6.61866667 102.901333,6.95466667 102.528,7.36 C102.346667,6.912 102.082667,6.56533333 101.736,6.32 C101.389333,6.07466667 100.928,5.952 100.352,5.952 C99.8613333,5.952 99.4213333,6.07466667 99.032,6.32 C98.6426667,6.56533333 98.2826667,6.864 97.952,7.216 L97.952,7.216 L97.888,7.216 L97.76,6.144 L96.24,6.144 L96.24,14 L98.08,14 Z M1.856,30 L2.672,27.168 L6.192,27.168 L7.008,30 L8.96,30 L5.552,19.536 L3.376,19.536 L-0.032,30 L1.856,30 Z M5.776,25.712 L3.104,25.712 L3.472,24.432 C3.64266667,23.8773333 3.80266667,23.3093333 3.952,22.728 C4.10133333,22.1466667 4.25066667,21.5626667 4.4,20.976 L4.4,20.976 L4.464,20.976 C4.61333333,21.552 4.76533333,22.1333333 4.92,22.72 C5.07466667,23.3066667 5.23733333,23.8773333 5.408,24.432 L5.408,24.432 L5.776,25.712 Z M11.936,33.104 L11.936,30.64 L11.888,29.328 C12.208,29.6053333 12.5386667,29.8186667 12.88,29.968 C13.2213333,30.1173333 13.5626667,30.192 13.904,30.192 C14.3413333,30.192 14.7626667,30.096 15.168,29.904 C15.5733333,29.712 15.9306667,29.4373333 16.24,29.08 C16.5493333,28.7226667 16.7973333,28.28 16.984,27.752 C17.1706667,27.224 17.264,26.624 17.264,25.952 C17.264,25.344 17.1946667,24.7946667 17.056,24.304 C16.9173333,23.8133333 16.7146667,23.392 16.448,23.04 C16.1813333,22.688 15.8586667,22.4186667 15.48,22.232 C15.1013333,22.0453333 14.6666667,21.952 14.176,21.952 C13.7386667,21.952 13.3173333,22.0533333 12.912,22.256 C12.5066667,22.4586667 12.1386667,22.6986667 11.808,22.976 L11.808,22.976 L11.744,22.976 L11.616,22.144 L10.096,22.144 L10.096,33.104 L11.936,33.104 Z M13.52,28.672 C13.2853333,28.672 13.0346667,28.624 12.768,28.528 C12.5013333,28.432 12.224,28.2613333 11.936,28.016 L11.936,28.016 L11.936,24.352 C12.5333333,23.7653333 13.1093333,23.472 13.664,23.472 C14.2613333,23.472 14.6933333,23.6906667 14.96,24.128 C15.2266667,24.5653333 15.36,25.1786667 15.36,25.968 C15.36,26.864 15.184,27.5386667 14.832,27.992 C14.48,28.4453333 14.0426667,28.672 13.52,28.672 Z M20.832,30.192 C21.3013333,30.192 21.736,30.0906667 22.136,29.888 C22.536,29.6853333 22.912,29.4346667 23.264,29.136 L23.264,29.136 L23.328,29.136 L23.456,30 L24.976,30 L24.976,25.344 C24.976,24.2453333 24.7333333,23.4053333 24.248,22.824 C23.7626667,22.2426667 23.0293333,21.952 22.048,21.952 C21.4186667,21.952 20.832,22.0533333 20.288,22.256 C19.744,22.4586667 19.2533333,22.6986667 18.816,22.976 L18.816,22.976 L19.488,24.208 C19.84,23.9946667 20.2,23.8133333 20.568,23.664 C20.936,23.5146667 21.312,23.44 21.696,23.44 C21.9626667,23.44 22.1866667,23.48 22.368,23.56 C22.5493333,23.64 22.696,23.752 22.808,23.896 C22.92,24.04 23,24.2053333 23.048,24.392 C23.096,24.5786667 23.1253333,24.7733333 23.136,24.976 C22.3253333,25.0613333 21.6293333,25.184 21.048,25.344 C20.4666667,25.504 19.9866667,25.7013333 19.608,25.936 C19.2293333,26.1706667 18.952,26.4506667 18.776,26.776 C18.6,27.1013333 18.512,27.472 18.512,27.888 C18.512,28.5813333 18.7253333,29.1386667 19.152,29.56 C19.5786667,29.9813333 20.1386667,30.192 20.832,30.192 Z M21.424,28.752 C21.0933333,28.752 20.8213333,28.672 20.608,28.512 C20.3946667,28.352 20.288,28.096 20.288,27.744 C20.288,27.552 20.336,27.3706667 20.432,27.2 C20.528,27.0293333 20.688,26.8773333 20.912,26.744 C21.136,26.6106667 21.4293333,26.4906667 21.792,26.384 C22.1546667,26.2773333 22.6026667,26.192 23.136,26.128 L23.136,26.128 L23.136,27.888 C22.8373333,28.1653333 22.5573333,28.3786667 22.296,28.528 C22.0346667,28.6773333 21.744,28.752 21.424,28.752 Z M29.024,30 L29.024,25.2 C29.2693333,24.6026667 29.5626667,24.184 29.904,23.944 C30.2453333,23.704 30.5706667,23.584 30.88,23.584 C31.0506667,23.584 31.1946667,23.5946667 31.312,23.616 C31.4293333,23.6373333 31.5573333,23.6693333 31.696,23.712 L31.696,23.712 L32.016,22.112 C31.792,22.0053333 31.4933333,21.952 31.12,21.952 C30.704,21.952 30.2986667,22.088 29.904,22.36 C29.5093333,22.632 29.1733333,23.024 28.896,23.536 L28.896,23.536 L28.832,23.536 L28.704,22.144 L27.184,22.144 L27.184,30 L29.024,30 Z M35.92,30.192 C36.2293333,30.192 36.52,30.1626667 36.792,30.104 C37.064,30.0453333 37.3066667,29.9786667 37.52,29.904 L37.52,29.904 L37.2,28.544 C37.0826667,28.5973333 36.952,28.64 36.808,28.672 C36.664,28.704 36.5226667,28.72 36.384,28.72 C35.648,28.72 35.28,28.2613333 35.28,27.344 L35.28,27.344 L35.28,23.6 L37.28,23.6 L37.28,22.144 L35.28,22.144 L35.28,20 L33.744,20 L33.52,22.144 L32.304,22.224 L32.304,23.6 L33.424,23.6 L33.424,27.344 C33.424,27.7706667 33.4693333,28.1573333 33.56,28.504 C33.6506667,28.8506667 33.7946667,29.1493333 33.992,29.4 C34.1893333,29.6506667 34.4453333,29.8453333 34.76,29.984 C35.0746667,30.1226667 35.4613333,30.192 35.92,30.192 Z M40.768,30 L40.768,24.512 C41.376,23.8613333 41.9253333,23.536 42.416,23.536 C42.832,23.536 43.1386667,23.6693333 43.336,23.936 C43.5333333,24.2026667 43.632,24.6613333 43.632,25.312 L43.632,25.312 L43.632,30 L45.472,30 L45.472,24.512 C46.08,23.8613333 46.6293333,23.536 47.12,23.536 C47.5253333,23.536 47.8266667,23.6693333 48.024,23.936 C48.2213333,24.2026667 48.32,24.6613333 48.32,25.312 L48.32,25.312 L48.32,30 L50.176,30 L50.176,25.072 C50.176,24.0693333 49.9786667,23.2986667 49.584,22.76 C49.1893333,22.2213333 48.576,21.952 47.744,21.952 C47.2426667,21.952 46.7893333,22.0853333 46.384,22.352 C45.9786667,22.6186667 45.5893333,22.9546667 45.216,23.36 C45.0346667,22.912 44.7706667,22.5653333 44.424,22.32 C44.0773333,22.0746667 43.616,21.952 43.04,21.952 C42.5493333,21.952 42.1093333,22.0746667 41.72,22.32 C41.3306667,22.5653333 40.9706667,22.864 40.64,23.216 L40.64,23.216 L40.576,23.216 L40.448,22.144 L38.928,22.144 L38.928,30 L40.768,30 Z M55.776,30.192 C56.2773333,30.192 56.7573333,30.112 57.216,29.952 C57.6746667,29.792 58.0906667,29.5893333 58.464,29.344 L58.464,29.344 L57.84,28.192 C57.552,28.3733333 57.2613333,28.5146667 56.968,28.616 C56.6746667,28.7173333 56.3573333,28.768 56.016,28.768 C55.376,28.768 54.8506667,28.5786667 54.44,28.2 C54.0293333,27.8213333 53.7813333,27.28 53.696,26.576 L53.696,26.576 L58.688,26.576 C58.7093333,26.48 58.728,26.352 58.744,26.192 C58.76,26.032 58.768,25.8613333 58.768,25.68 C58.768,25.136 58.6986667,24.6346667 58.56,24.176 C58.4213333,23.7173333 58.216,23.3226667 57.944,22.992 C57.672,22.6613333 57.3333333,22.4053333 56.928,22.224 C56.5226667,22.0426667 56.0533333,21.952 55.52,21.952 C55.0613333,21.952 54.6133333,22.048 54.176,22.24 C53.7386667,22.432 53.352,22.704 53.016,23.056 C52.68,23.408 52.4106667,23.84 52.208,24.352 C52.0053333,24.864 51.904,25.44 51.904,26.08 C51.904,26.7306667 52.0026667,27.3093333 52.2,27.816 C52.3973333,28.3226667 52.672,28.752 53.024,29.104 C53.376,29.456 53.7866667,29.7253333 54.256,29.912 C54.7253333,30.0986667 55.232,30.192 55.776,30.192 Z M57.168,25.328 L53.68,25.328 C53.7653333,24.688 53.984,24.2026667 54.336,23.872 C54.688,23.5413333 55.0986667,23.376 55.568,23.376 C56.112,23.376 56.5146667,23.5493333 56.776,23.896 C57.0373333,24.2426667 57.168,24.72 57.168,25.328 L57.168,25.328 Z M62.368,30 L62.368,24.512 C62.6986667,24.192 62.9946667,23.9493333 63.256,23.784 C63.5173333,23.6186667 63.8186667,23.536 64.16,23.536 C64.5973333,23.536 64.912,23.6693333 65.104,23.936 C65.296,24.2026667 65.392,24.6613333 65.392,25.312 L65.392,25.312 L65.392,30 L67.232,30 L67.232,25.072 C67.232,24.0693333 67.04,23.2986667 66.656,22.76 C66.272,22.2213333 65.6586667,21.952 64.816,21.952 C64.272,21.952 63.7946667,22.0746667 63.384,22.32 C62.9733333,22.5653333 62.592,22.8586667 62.24,23.2 L62.24,23.2 L62.176,23.2 L62.048,22.144 L60.528,22.144 L60.528,30 L62.368,30 Z M72.256,30.192 C72.5653333,30.192 72.856,30.1626667 73.128,30.104 C73.4,30.0453333 73.6426667,29.9786667 73.856,29.904 L73.856,29.904 L73.536,28.544 C73.4186667,28.5973333 73.288,28.64 73.144,28.672 C73,28.704 72.8586667,28.72 72.72,28.72 C71.984,28.72 71.616,28.2613333 71.616,27.344 L71.616,27.344 L71.616,23.6 L73.616,23.6 L73.616,22.144 L71.616,22.144 L71.616,20 L70.08,20 L69.856,22.144 L68.64,22.224 L68.64,23.6 L69.76,23.6 L69.76,27.344 C69.76,27.7706667 69.8053333,28.1573333 69.896,28.504 C69.9866667,28.8506667 70.1306667,29.1493333 70.328,29.4 C70.5253333,29.6506667 70.7813333,29.8453333 71.096,29.984 C71.4106667,30.1226667 71.7973333,30.192 72.256,30.192 Z" id="Three-BedroomApartment" fill="#555555"></path>
                    <path d="M4.384,90.192 C4.97066667,90.192 5.496,90.1093333 5.96,89.944 C6.424,89.7786667 6.81866667,89.5546667 7.144,89.272 C7.46933333,88.9893333 7.71733333,88.6613333 7.888,88.288 C8.05866667,87.9146667 8.144,87.5146667 8.144,87.088 C8.144,86.704 8.09066667,86.3653333 7.984,86.072 C7.87733333,85.7786667 7.73066667,85.52 7.544,85.296 C7.35733333,85.072 7.136,84.8746667 6.88,84.704 C6.624,84.5333333 6.34133333,84.384 6.032,84.256 L6.032,84.256 L4.608,83.664 C4.39466667,83.5786667 4.18666667,83.4906667 3.984,83.4 C3.78133333,83.3093333 3.60266667,83.208 3.448,83.096 C3.29333333,82.984 3.17066667,82.856 3.08,82.712 C2.98933333,82.568 2.944,82.3946667 2.944,82.192 C2.944,81.808 3.09333333,81.5066667 3.392,81.288 C3.69066667,81.0693333 4.09066667,80.96 4.592,80.96 C5.04,80.96 5.44533333,81.04 5.808,81.2 C6.17066667,81.36 6.52266667,81.5786667 6.864,81.856 L6.864,81.856 L7.808,80.672 C7.40266667,80.2666667 6.91733333,79.944 6.352,79.704 C5.78666667,79.464 5.2,79.344 4.592,79.344 C4.08,79.344 3.608,79.4186667 3.176,79.568 C2.744,79.7173333 2.37333333,79.9253333 2.064,80.192 C1.75466667,80.4586667 1.512,80.7706667 1.336,81.128 C1.16,81.4853333 1.072,81.872 1.072,82.288 C1.072,82.672 1.13333333,83.0133333 1.256,83.312 C1.37866667,83.6106667 1.54133333,83.872 1.744,84.096 C1.94666667,84.32 2.17333333,84.512 2.424,84.672 C2.67466667,84.832 2.928,84.9653333 3.184,85.072 L3.184,85.072 L4.624,85.696 C4.85866667,85.792 5.07466667,85.888 5.272,85.984 C5.46933333,86.08 5.64,86.184 5.784,86.296 C5.928,86.408 6.04,86.5386667 6.12,86.688 C6.2,86.8373333 6.24,87.0186667 6.24,87.232 C6.24,87.6373333 6.08533333,87.9626667 5.776,88.208 C5.46666667,88.4533333 5.01333333,88.576 4.416,88.576 C3.936,88.576 3.456,88.4666667 2.976,88.248 C2.496,88.0293333 2.06933333,87.744 1.696,87.392 L1.696,87.392 L0.608,88.656 C1.10933333,89.1466667 1.688,89.5253333 2.344,89.792 C3,90.0586667 3.68,90.192 4.384,90.192 Z M11.792,90.192 C12.2613333,90.192 12.696,90.0906667 13.096,89.888 C13.496,89.6853333 13.872,89.4346667 14.224,89.136 L14.224,89.136 L14.288,89.136 L14.416,90 L15.936,90 L15.936,85.344 C15.936,84.2453333 15.6933333,83.4053333 15.208,82.824 C14.7226667,82.2426667 13.9893333,81.952 13.008,81.952 C12.3786667,81.952 11.792,82.0533333 11.248,82.256 C10.704,82.4586667 10.2133333,82.6986667 9.776,82.976 L9.776,82.976 L10.448,84.208 C10.8,83.9946667 11.16,83.8133333 11.528,83.664 C11.896,83.5146667 12.272,83.44 12.656,83.44 C12.9226667,83.44 13.1466667,83.48 13.328,83.56 C13.5093333,83.64 13.656,83.752 13.768,83.896 C13.88,84.04 13.96,84.2053333 14.008,84.392 C14.056,84.5786667 14.0853333,84.7733333 14.096,84.976 C13.2853333,85.0613333 12.5893333,85.184 12.008,85.344 C11.4266667,85.504 10.9466667,85.7013333 10.568,85.936 C10.1893333,86.1706667 9.912,86.4506667 9.736,86.776 C9.56,87.1013333 9.472,87.472 9.472,87.888 C9.472,88.5813333 9.68533333,89.1386667 10.112,89.56 C10.5386667,89.9813333 11.0986667,90.192 11.792,90.192 Z M12.384,88.752 C12.0533333,88.752 11.7813333,88.672 11.568,88.512 C11.3546667,88.352 11.248,88.096 11.248,87.744 C11.248,87.552 11.296,87.3706667 11.392,87.2 C11.488,87.0293333 11.648,86.8773333 11.872,86.744 C12.096,86.6106667 12.3893333,86.4906667 12.752,86.384 C13.1146667,86.2773333 13.5626667,86.192 14.096,86.128 L14.096,86.128 L14.096,87.888 C13.7973333,88.1653333 13.5173333,88.3786667 13.256,88.528 C12.9946667,88.6773333 12.704,88.752 12.384,88.752 Z M19.984,90 L19.984,84.512 C20.3146667,84.192 20.6106667,83.9493333 20.872,83.784 C21.1333333,83.6186667 21.4346667,83.536 21.776,83.536 C22.2133333,83.536 22.528,83.6693333 22.72,83.936 C22.912,84.2026667 23.008,84.6613333 23.008,85.312 L23.008,85.312 L23.008,90 L24.848,90 L24.848,85.072 C24.848,84.0693333 24.656,83.2986667 24.272,82.76 C23.888,82.2213333 23.2746667,81.952 22.432,81.952 C21.888,81.952 21.4106667,82.0746667 21,82.32 C20.5893333,82.5653333 20.208,82.8586667 19.856,83.2 L19.856,83.2 L19.792,83.2 L19.664,82.144 L18.144,82.144 L18.144,90 L19.984,90 Z M32.64,90.192 C33.184,90.192 33.6533333,90.1013333 34.048,89.92 C34.4426667,89.7386667 34.768,89.4906667 35.024,89.176 C35.28,88.8613333 35.4666667,88.4933333 35.584,88.072 C35.7013333,87.6506667 35.76,87.2 35.76,86.72 L35.76,86.72 L35.76,79.536 L33.904,79.536 L33.904,86.56 C33.904,87.3066667 33.7813333,87.8293333 33.536,88.128 C33.2906667,88.4266667 32.9226667,88.576 32.432,88.576 C32.112,88.576 31.8133333,88.488 31.536,88.312 C31.2586667,88.136 31.0133333,87.856 30.8,87.472 L30.8,87.472 L29.52,88.416 C29.8506667,89.0026667 30.2693333,89.4453333 30.776,89.744 C31.2826667,90.0426667 31.904,90.192 32.64,90.192 Z M41.424,90.192 C41.9146667,90.192 42.3866667,90.1013333 42.84,89.92 C43.2933333,89.7386667 43.6906667,89.472 44.032,89.12 C44.3733333,88.768 44.648,88.336 44.856,87.824 C45.064,87.312 45.168,86.7306667 45.168,86.08 C45.168,85.4293333 45.064,84.848 44.856,84.336 C44.648,83.824 44.3733333,83.392 44.032,83.04 C43.6906667,82.688 43.2933333,82.4186667 42.84,82.232 C42.3866667,82.0453333 41.9146667,81.952 41.424,81.952 C40.9333333,81.952 40.464,82.0453333 40.016,82.232 C39.568,82.4186667 39.1706667,82.688 38.824,83.04 C38.4773333,83.392 38.2026667,83.824 38,84.336 C37.7973333,84.848 37.696,85.4293333 37.696,86.08 C37.696,86.7306667 37.7973333,87.312 38,87.824 C38.2026667,88.336 38.4773333,88.768 38.824,89.12 C39.1706667,89.472 39.568,89.7386667 40.016,89.92 C40.464,90.1013333 40.9333333,90.192 41.424,90.192 Z M41.424,88.688 C40.848,88.688 40.3973333,88.4506667 40.072,87.976 C39.7466667,87.5013333 39.584,86.8693333 39.584,86.08 C39.584,85.28 39.7466667,84.6426667 40.072,84.168 C40.3973333,83.6933333 40.848,83.456 41.424,83.456 C42,83.456 42.4533333,83.6933333 42.784,84.168 C43.1146667,84.6426667 43.28,85.28 43.28,86.08 C43.28,86.8693333 43.1146667,87.5013333 42.784,87.976 C42.4533333,88.4506667 42,88.688 41.424,88.688 Z M49.12,90.192 C49.6106667,90.192 50.048,90.128 50.432,90 C50.816,89.872 51.136,89.6986667 51.392,89.48 C51.648,89.2613333 51.8426667,89.0053333 51.976,88.712 C52.1093333,88.4186667 52.176,88.1013333 52.176,87.76 C52.176,87.3973333 52.1093333,87.0853333 51.976,86.824 C51.8426667,86.5626667 51.6666667,86.3413333 51.448,86.16 C51.2293333,85.9786667 50.9866667,85.8266667 50.72,85.704 C50.4533333,85.5813333 50.1866667,85.472 49.92,85.376 C49.7066667,85.3013333 49.5013333,85.2266667 49.304,85.152 C49.1066667,85.0773333 48.9333333,84.9973333 48.784,84.912 C48.6346667,84.8266667 48.5146667,84.728 48.424,84.616 C48.3333333,84.504 48.288,84.368 48.288,84.208 C48.288,83.9626667 48.3813333,83.7573333 48.568,83.592 C48.7546667,83.4266667 49.0453333,83.344 49.44,83.344 C49.7493333,83.344 50.0453333,83.4053333 50.328,83.528 C50.6106667,83.6506667 50.8906667,83.8133333 51.168,84.016 L51.168,84.016 L52.016,82.896 C51.696,82.6506667 51.3173333,82.432 50.88,82.24 C50.4426667,82.048 49.952,81.952 49.408,81.952 C48.5226667,81.952 47.824,82.1706667 47.312,82.608 C46.8,83.0453333 46.544,83.6106667 46.544,84.304 C46.544,84.6346667 46.6106667,84.92 46.744,85.16 C46.8773333,85.4 47.048,85.6106667 47.256,85.792 C47.464,85.9733333 47.7013333,86.128 47.968,86.256 C48.2346667,86.384 48.496,86.496 48.752,86.592 C48.9546667,86.6773333 49.1573333,86.76 49.36,86.84 C49.5626667,86.92 49.744,87.008 49.904,87.104 C50.064,87.2 50.192,87.3093333 50.288,87.432 C50.384,87.5546667 50.432,87.696 50.432,87.856 C50.432,88.1333333 50.3306667,88.36 50.128,88.536 C49.9253333,88.712 49.6106667,88.8 49.184,88.8 C48.7786667,88.8 48.4026667,88.7226667 48.056,88.568 C47.7093333,88.4133333 47.36,88.1973333 47.008,87.92 L47.008,87.92 L46.144,89.104 C46.528,89.4133333 46.984,89.672 47.512,89.88 C48.04,90.088 48.576,90.192 49.12,90.192 Z M57.184,90.192 C57.6853333,90.192 58.1653333,90.112 58.624,89.952 C59.0826667,89.792 59.4986667,89.5893333 59.872,89.344 L59.872,89.344 L59.248,88.192 C58.96,88.3733333 58.6693333,88.5146667 58.376,88.616 C58.0826667,88.7173333 57.7653333,88.768 57.424,88.768 C56.784,88.768 56.2586667,88.5786667 55.848,88.2 C55.4373333,87.8213333 55.1893333,87.28 55.104,86.576 L55.104,86.576 L60.096,86.576 C60.1173333,86.48 60.136,86.352 60.152,86.192 C60.168,86.032 60.176,85.8613333 60.176,85.68 C60.176,85.136 60.1066667,84.6346667 59.968,84.176 C59.8293333,83.7173333 59.624,83.3226667 59.352,82.992 C59.08,82.6613333 58.7413333,82.4053333 58.336,82.224 C57.9306667,82.0426667 57.4613333,81.952 56.928,81.952 C56.4693333,81.952 56.0213333,82.048 55.584,82.24 C55.1466667,82.432 54.76,82.704 54.424,83.056 C54.088,83.408 53.8186667,83.84 53.616,84.352 C53.4133333,84.864 53.312,85.44 53.312,86.08 C53.312,86.7306667 53.4106667,87.3093333 53.608,87.816 C53.8053333,88.3226667 54.08,88.752 54.432,89.104 C54.784,89.456 55.1946667,89.7253333 55.664,89.912 C56.1333333,90.0986667 56.64,90.192 57.184,90.192 Z M58.576,85.328 L55.088,85.328 C55.1733333,84.688 55.392,84.2026667 55.744,83.872 C56.096,83.5413333 56.5066667,83.376 56.976,83.376 C57.52,83.376 57.9226667,83.5493333 58.184,83.896 C58.4453333,84.2426667 58.576,84.72 58.576,85.328 L58.576,85.328 Z M61.92,92.912 C62.72,92.6346667 63.336,92.208 63.768,91.632 C64.2,91.056 64.416,90.3733333 64.416,89.584 C64.416,88.9866667 64.296,88.5226667 64.056,88.192 C63.816,87.8613333 63.4773333,87.696 63.04,87.696 C62.6986667,87.696 62.408,87.8 62.168,88.008 C61.928,88.216 61.808,88.4906667 61.808,88.832 C61.808,89.1946667 61.928,89.4746667 62.168,89.672 C62.408,89.8693333 62.6826667,89.968 62.992,89.968 L62.992,89.968 L63.136,89.968 C63.1466667,90.3733333 63.0106667,90.7466667 62.728,91.088 C62.4453333,91.4293333 62.0426667,91.7013333 61.52,91.904 L61.52,91.904 L61.92,92.912 Z M73.872,90.192 C74.544,90.192 75.1546667,90.0613333 75.704,89.8 C76.2533333,89.5386667 76.7413333,89.1626667 77.168,88.672 L77.168,88.672 L76.176,87.504 C75.8773333,87.824 75.5466667,88.0826667 75.184,88.28 C74.8213333,88.4773333 74.4053333,88.576 73.936,88.576 C73.0506667,88.576 72.3493333,88.2373333 71.832,87.56 C71.3146667,86.8826667 71.056,85.9466667 71.056,84.752 C71.056,84.1653333 71.128,83.6373333 71.272,83.168 C71.416,82.6986667 71.6186667,82.3013333 71.88,81.976 C72.1413333,81.6506667 72.4506667,81.4 72.808,81.224 C73.1653333,81.048 73.5573333,80.96 73.984,80.96 C74.3893333,80.96 74.752,81.0426667 75.072,81.208 C75.392,81.3733333 75.6906667,81.5946667 75.968,81.872 L75.968,81.872 L76.96,80.672 C76.6293333,80.32 76.208,80.0106667 75.696,79.744 C75.184,79.4773333 74.5973333,79.344 73.936,79.344 C73.2746667,79.344 72.6533333,79.4666667 72.072,79.712 C71.4906667,79.9573333 70.984,80.3146667 70.552,80.784 C70.12,81.2533333 69.7786667,81.8266667 69.528,82.504 C69.2773333,83.1813333 69.152,83.9466667 69.152,84.8 C69.152,85.664 69.2746667,86.432 69.52,87.104 C69.7653333,87.776 70.0986667,88.3413333 70.52,88.8 C70.9413333,89.2586667 71.44,89.6053333 72.016,89.84 C72.592,90.0746667 73.2106667,90.192 73.872,90.192 Z M79.44,90 L80.256,87.168 L83.776,87.168 L84.592,90 L86.544,90 L83.136,79.536 L80.96,79.536 L77.552,90 L79.44,90 Z M83.36,85.712 L80.688,85.712 L81.056,84.432 C81.2266667,83.8773333 81.3866667,83.3093333 81.536,82.728 C81.6853333,82.1466667 81.8346667,81.5626667 81.984,80.976 L81.984,80.976 L82.048,80.976 C82.1973333,81.552 82.3493333,82.1333333 82.504,82.72 C82.6586667,83.3066667 82.8213333,83.8773333 82.992,84.432 L82.992,84.432 L83.36,85.712 Z" id="SanJose,CA" fill="#555555"></path>
                    <path d="M9.536,68.52 L9.536,65.224 C11.136,64.9253333 12.3626667,64.2586667 13.216,63.224 C14.0693333,62.1893333 14.496,60.904 14.496,59.368 C14.496,58.3013333 14.2826667,57.4106667 13.856,56.696 C13.4293333,55.9813333 12.8906667,55.3786667 12.24,54.888 C11.5893333,54.3973333 10.8906667,53.976 10.144,53.624 C9.39733333,53.272 8.69866667,52.92 8.048,52.568 C7.39733333,52.216 6.85866667,51.832 6.432,51.416 C6.00533333,51 5.792,50.472 5.792,49.832 C5.792,49 6.03733333,48.3653333 6.528,47.928 C7.01866667,47.4906667 7.70133333,47.272 8.576,47.272 C9.344,47.272 10.0053333,47.416 10.56,47.704 C11.1146667,47.992 11.6906667,48.4133333 12.288,48.968 L12.288,48.968 L14.176,46.824 C13.5786667,46.2053333 12.912,45.6666667 12.176,45.208 C11.44,44.7493333 10.56,44.456 9.536,44.328 L9.536,44.328 L9.536,41.128 L6.976,41.128 L6.976,44.392 C5.52533333,44.648 4.37333333,45.272 3.52,46.264 C2.66666667,47.256 2.24,48.4986667 2.24,49.992 C2.24,50.9946667 2.45333333,51.832 2.88,52.504 C3.30666667,53.176 3.84533333,53.752 4.496,54.232 C5.14666667,54.712 5.84533333,55.128 6.592,55.48 C7.33866667,55.832 8.03733333,56.2 8.688,56.584 C9.33866667,56.968 9.87733333,57.3946667 10.304,57.864 C10.7306667,58.3333333 10.944,58.92 10.944,59.624 C10.944,60.4986667 10.688,61.176 10.176,61.656 C9.664,62.136 8.88533333,62.376 7.84,62.376 C6.96533333,62.376 6.144,62.1946667 5.376,61.832 C4.608,61.4693333 3.85066667,60.9893333 3.104,60.392 L3.104,60.392 L1.44,62.888 C2.16533333,63.5706667 3.024,64.12 4.016,64.536 C5.008,64.952 5.99466667,65.2133333 6.976,65.32 L6.976,65.32 L6.976,68.52 L9.536,68.52 Z M29.44,65 L29.44,59.752 L32,59.752 L32,56.904 L29.44,56.904 L29.44,44.648 L25.056,44.648 L16.992,57.256 L16.992,59.752 L25.984,59.752 L25.984,65 L29.44,65 Z M25.984,56.904 L20.64,56.904 L24.352,51.24 C24.6506667,50.6853333 24.9386667,50.152 25.216,49.64 C25.4933333,49.128 25.76,48.6053333 26.016,48.072 L26.016,48.072 L26.144,48.072 C26.1013333,48.6693333 26.064,49.3733333 26.032,50.184 C26,50.9946667 25.984,51.6986667 25.984,52.296 L25.984,52.296 L25.984,56.904 Z M35.136,70.824 C36.736,70.2693333 37.968,69.416 38.832,68.264 C39.696,67.112 40.128,65.7466667 40.128,64.168 C40.128,62.9733333 39.888,62.0453333 39.408,61.384 C38.928,60.7226667 38.2506667,60.392 37.376,60.392 C36.6933333,60.392 36.112,60.6 35.632,61.016 C35.152,61.432 34.912,61.9813333 34.912,62.664 C34.912,63.3893333 35.152,63.9493333 35.632,64.344 C36.112,64.7386667 36.6613333,64.936 37.28,64.936 L37.28,64.936 L37.568,64.936 C37.5893333,65.7466667 37.3173333,66.4933333 36.752,67.176 C36.1866667,67.8586667 35.3813333,68.4026667 34.336,68.808 L34.336,68.808 L35.136,70.824 Z M56.608,65 L56.608,61.864 L51.616,61.864 C51.1253333,61.864 50.5706667,61.8906667 49.952,61.944 C49.3333333,61.9973333 48.7573333,62.0453333 48.224,62.088 C49.2266667,61.0213333 50.176,59.9866667 51.072,58.984 C51.968,57.9813333 52.752,57.0053333 53.424,56.056 C54.096,55.1066667 54.6293333,54.168 55.024,53.24 C55.4186667,52.312 55.616,51.4 55.616,50.504 C55.616,49.5653333 55.4613333,48.712 55.152,47.944 C54.8426667,47.176 54.4106667,46.52 53.856,45.976 C53.3013333,45.432 52.6293333,45.0106667 51.84,44.712 C51.0506667,44.4133333 50.1653333,44.264 49.184,44.264 C47.776,44.264 46.576,44.536 45.584,45.08 C44.592,45.624 43.6266667,46.3973333 42.688,47.4 L42.688,47.4 L44.736,49.448 C45.2906667,48.8293333 45.8933333,48.296 46.544,47.848 C47.1946667,47.4 47.9146667,47.176 48.704,47.176 C49.792,47.176 50.624,47.4906667 51.2,48.12 C51.776,48.7493333 52.064,49.608 52.064,50.696 C52.064,51.464 51.8506667,52.2746667 51.424,53.128 C50.9973333,53.9813333 50.384,54.8986667 49.584,55.88 C48.784,56.8613333 47.8133333,57.928 46.672,59.08 C45.5306667,60.232 44.256,61.4906667 42.848,62.856 L42.848,62.856 L42.848,65 L56.608,65 Z M66.24,65.384 C68.3733333,65.384 70.0586667,64.472 71.296,62.648 C72.5333333,60.824 73.152,58.184 73.152,54.728 C73.152,51.2933333 72.5333333,48.6906667 71.296,46.92 C70.0586667,45.1493333 68.3733333,44.264 66.24,44.264 C64.1066667,44.264 62.4213333,45.144 61.184,46.904 C59.9466667,48.664 59.328,51.272 59.328,54.728 C59.328,58.184 59.9466667,60.824 61.184,62.648 C62.4213333,64.472 64.1066667,65.384 66.24,65.384 Z M66.24,62.504 C65.7493333,62.504 65.296,62.3706667 64.88,62.104 C64.464,61.8373333 64.1066667,61.3946667 63.808,60.776 C63.5093333,60.1573333 63.2746667,59.3573333 63.104,58.376 C62.9333333,57.3946667 62.848,56.1786667 62.848,54.728 C62.848,53.2986667 62.9333333,52.0986667 63.104,51.128 C63.2746667,50.1573333 63.5093333,49.3733333 63.808,48.776 C64.1066667,48.1786667 64.464,47.7573333 64.88,47.512 C65.296,47.2666667 65.7493333,47.144 66.24,47.144 C66.7306667,47.144 67.184,47.2666667 67.6,47.512 C68.016,47.7573333 68.3733333,48.1786667 68.672,48.776 C68.9706667,49.3733333 69.2053333,50.1573333 69.376,51.128 C69.5466667,52.0986667 69.632,53.2986667 69.632,54.728 C69.632,56.1786667 69.5466667,57.3946667 69.376,58.376 C69.2053333,59.3573333 68.9706667,60.1573333 68.672,60.776 C68.3733333,61.3946667 68.016,61.8373333 67.6,62.104 C67.184,62.3706667 66.7306667,62.504 66.24,62.504 Z M82.656,65.384 C84.7893333,65.384 86.4746667,64.472 87.712,62.648 C88.9493333,60.824 89.568,58.184 89.568,54.728 C89.568,51.2933333 88.9493333,48.6906667 87.712,46.92 C86.4746667,45.1493333 84.7893333,44.264 82.656,44.264 C80.5226667,44.264 78.8373333,45.144 77.6,46.904 C76.3626667,48.664 75.744,51.272 75.744,54.728 C75.744,58.184 76.3626667,60.824 77.6,62.648 C78.8373333,64.472 80.5226667,65.384 82.656,65.384 Z M82.656,62.504 C82.1653333,62.504 81.712,62.3706667 81.296,62.104 C80.88,61.8373333 80.5226667,61.3946667 80.224,60.776 C79.9253333,60.1573333 79.6906667,59.3573333 79.52,58.376 C79.3493333,57.3946667 79.264,56.1786667 79.264,54.728 C79.264,53.2986667 79.3493333,52.0986667 79.52,51.128 C79.6906667,50.1573333 79.9253333,49.3733333 80.224,48.776 C80.5226667,48.1786667 80.88,47.7573333 81.296,47.512 C81.712,47.2666667 82.1653333,47.144 82.656,47.144 C83.1466667,47.144 83.6,47.2666667 84.016,47.512 C84.432,47.7573333 84.7893333,48.1786667 85.088,48.776 C85.3866667,49.3733333 85.6213333,50.1573333 85.792,51.128 C85.9626667,52.0986667 86.048,53.2986667 86.048,54.728 C86.048,56.1786667 85.9626667,57.3946667 85.792,58.376 C85.6213333,59.3573333 85.3866667,60.1573333 85.088,60.776 C84.7893333,61.3946667 84.432,61.8373333 84.016,62.104 C83.6,62.3706667 83.1466667,62.504 82.656,62.504 Z" id="$4,200" fill="#00796B"></path>
                </g>
            </g>
        </g>
    </g>
</svg>