<?xml version="1.0" encoding="UTF-8"?>
<svg width="350px" height="143px" viewBox="0 0 350 143" version="1.1" xmlns="http://www.w3.org/2000/svg" xmlns:xlink="http://www.w3.org/1999/xlink" role="img">
    <desc>Viz 1 C mobile placeholder alt text</desc>
    <defs>
        <polygon id="path-1" points="148 98 188 98 188 147 148 147"></polygon>
        <mask id="mask-2" maskContentUnits="userSpaceOnUse" maskUnits="objectBoundingBox" x="0" y="0" width="40" height="49" fill="white">
            <use xlink:href="#path-1"></use>
        </mask>
        <polygon id="path-3" points="251 45 291 45 291 199 251 199"></polygon>
        <mask id="mask-4" maskContentUnits="userSpaceOnUse" maskUnits="objectBoundingBox" x="0" y="0" width="40" height="154" fill="white">
            <use xlink:href="#path-3"></use>
        </mask>
    </defs>
    <g id="SVG-Outlines" stroke="none" stroke-width="1" fill="none" fill-rule="evenodd">
        <g id="Desktop-HD" transform="translate(-240.000000, -2009.000000)">
            <g id="Viz-1-C" transform="translate(241.000000, 2009.000000)">
                <path d="M23.378,51 L23.378,46.884 C23.378,46.468 23.364,46.054 23.336,45.642 C23.308,45.23 23.278,44.824 23.246,44.424 L23.246,44.424 L23.294,44.424 L24.146,46.044 L27.002,51 L28.034,51 L28.034,43.128 L27.086,43.128 L27.086,47.196 C27.086,47.612 27.1,48.034 27.128,48.462 C27.156,48.89 27.182,49.304 27.206,49.704 L27.206,49.704 L27.158,49.704 L26.306,48.072 L23.462,43.128 L22.43,43.128 L22.43,51 L23.378,51 Z M34.85,51 L34.85,50.148 L31.19,50.148 L31.19,47.292 L34.178,47.292 L34.178,46.44 L31.19,46.44 L31.19,43.968 L34.73,43.968 L34.73,43.128 L30.194,43.128 L30.194,51 L34.85,51 Z M38.57,51 L39.734,46.26 C39.798,45.956 39.864,45.658 39.932,45.366 C40,45.074 40.066,44.776 40.13,44.472 L40.13,44.472 L40.178,44.472 C40.242,44.776 40.304,45.074 40.364,45.366 C40.424,45.658 40.49,45.956 40.562,46.26 L40.562,46.26 L41.75,51 L42.95,51 L44.582,43.128 L43.622,43.128 L42.794,47.412 C42.714,47.836 42.638,48.258 42.566,48.678 C42.494,49.098 42.422,49.524 42.35,49.956 L42.35,49.956 L42.302,49.956 C42.206,49.524 42.11,49.096 42.014,48.672 C41.918,48.248 41.822,47.828 41.726,47.412 L41.726,47.412 L40.634,43.128 L39.722,43.128 L38.63,47.412 C38.542,47.836 38.45,48.258 38.354,48.678 C38.258,49.098 38.166,49.524 38.078,49.956 L38.078,49.956 L38.03,49.956 C37.958,49.524 37.882,49.1 37.802,48.684 L37.685,48.054 L37.685,48.054 L37.574,47.412 L36.746,43.128 L35.714,43.128 L37.382,51 L38.57,51 Z M48.326,51 L49.082,48.6 L51.95,48.6 L52.694,51 L53.762,51 L51.098,43.128 L49.97,43.128 L47.306,51 L48.326,51 Z M51.698,47.796 L49.334,47.796 L49.706,46.596 C49.85,46.156 49.986,45.718 50.114,45.282 C50.242,44.846 50.366,44.4 50.486,43.944 L50.486,43.944 L50.534,43.944 C50.662,44.4 50.79,44.846 50.918,45.282 C51.046,45.718 51.182,46.156 51.326,46.596 L51.326,46.596 L51.698,47.796 Z M57.854,51.144 C58.382,51.144 58.854,51.058 59.27,50.886 C59.686,50.714 60.022,50.496 60.278,50.232 L60.278,50.232 L60.278,46.92 L57.698,46.92 L57.698,47.748 L59.366,47.748 L59.366,49.8 C59.206,49.944 59,50.058 58.748,50.142 C58.496,50.226 58.23,50.268 57.95,50.268 C57.526,50.268 57.152,50.192 56.828,50.04 C56.504,49.888 56.232,49.672 56.012,49.392 C55.792,49.112 55.624,48.774 55.508,48.378 C55.392,47.982 55.334,47.536 55.334,47.04 C55.334,46.552 55.396,46.112 55.52,45.72 C55.644,45.328 55.818,44.994 56.042,44.718 C56.266,44.442 56.538,44.23 56.858,44.082 C57.178,43.934 57.538,43.86 57.938,43.86 C58.338,43.86 58.67,43.932 58.934,44.076 C59.198,44.22 59.43,44.396 59.63,44.604 L59.63,44.604 L60.182,43.956 C60.07,43.836 59.94,43.718 59.792,43.602 C59.644,43.486 59.476,43.382 59.288,43.29 C59.1,43.198 58.892,43.124 58.664,43.068 C58.436,43.012 58.186,42.984 57.914,42.984 C57.394,42.984 56.912,43.078 56.468,43.266 C56.024,43.454 55.642,43.724 55.322,44.076 C55.002,44.428 54.752,44.856 54.572,45.36 C54.392,45.864 54.302,46.432 54.302,47.064 C54.302,47.704 54.39,48.278 54.566,48.786 C54.742,49.294 54.986,49.722 55.298,50.07 C55.61,50.418 55.984,50.684 56.42,50.868 C56.856,51.052 57.334,51.144 57.854,51.144 Z M66.818,51 L66.818,50.148 L63.158,50.148 L63.158,47.292 L66.146,47.292 L66.146,46.44 L63.158,46.44 L63.158,43.968 L66.698,43.968 L66.698,43.128 L62.162,43.128 L62.162,51 L66.818,51 Z M69.434,51 L69.434,46.884 C69.434,46.468 69.42,46.054 69.392,45.642 C69.364,45.23 69.334,44.824 69.302,44.424 L69.302,44.424 L69.35,44.424 L70.202,46.044 L73.058,51 L74.09,51 L74.09,43.128 L73.142,43.128 L73.142,47.196 C73.142,47.612 73.156,48.034 73.184,48.462 C73.212,48.89 73.238,49.304 73.262,49.704 L73.262,49.704 L73.214,49.704 L72.362,48.072 L69.518,43.128 L68.486,43.128 L68.486,51 L69.434,51 Z M79.226,51.144 C79.738,51.144 80.19,51.044 80.582,50.844 C80.974,50.644 81.326,50.364 81.638,50.004 L81.638,50.004 L81.086,49.38 C80.83,49.66 80.558,49.878 80.27,50.034 C79.982,50.19 79.646,50.268 79.262,50.268 C78.886,50.268 78.548,50.192 78.248,50.04 C77.948,49.888 77.694,49.672 77.486,49.392 C77.278,49.112 77.116,48.774 77,48.378 C76.884,47.982 76.826,47.536 76.826,47.04 C76.826,46.552 76.884,46.112 77,45.72 C77.116,45.328 77.282,44.994 77.498,44.718 C77.714,44.442 77.974,44.23 78.278,44.082 C78.582,43.934 78.922,43.86 79.298,43.86 C79.634,43.86 79.934,43.928 80.198,44.064 C80.462,44.2 80.698,44.38 80.906,44.604 L80.906,44.604 L81.446,43.956 C81.214,43.7 80.916,43.474 80.552,43.278 C80.188,43.082 79.766,42.984 79.286,42.984 C78.782,42.984 78.318,43.078 77.894,43.266 C77.47,43.454 77.102,43.724 76.79,44.076 C76.478,44.428 76.234,44.856 76.058,45.36 C75.882,45.864 75.794,46.432 75.794,47.064 C75.794,47.704 75.88,48.278 76.052,48.786 C76.224,49.294 76.464,49.722 76.772,50.07 C77.08,50.418 77.442,50.684 77.858,50.868 C78.274,51.052 78.73,51.144 79.226,51.144 Z M85.298,51 L85.298,47.952 L87.662,43.128 L86.618,43.128 L85.61,45.348 C85.49,45.636 85.362,45.92 85.226,46.2 C85.09,46.48 84.954,46.768 84.818,47.064 L84.818,47.064 L84.77,47.064 C84.634,46.768 84.506,46.48 84.386,46.2 C84.266,45.92 84.142,45.636 84.014,45.348 L84.014,45.348 L82.994,43.128 L81.926,43.128 L84.29,47.952 L84.29,51 L85.298,51 Z M33.008,66 L33.008,62.472 L36.008,62.472 L36.008,61.632 L33.008,61.632 L33.008,58.968 L36.548,58.968 L36.548,58.128 L32.012,58.128 L32.012,66 L33.008,66 Z M40.736,66.144 C41.136,66.144 41.508,66.086 41.852,65.97 C42.196,65.854 42.494,65.662 42.746,65.394 C42.998,65.126 43.196,64.776 43.34,64.344 C43.484,63.912 43.556,63.38 43.556,62.748 L43.556,62.748 L43.556,58.128 L42.596,58.128 L42.596,62.772 C42.596,63.244 42.548,63.64 42.452,63.96 C42.356,64.28 42.224,64.536 42.056,64.728 C41.888,64.92 41.692,65.058 41.468,65.142 C41.244,65.226 41,65.268 40.736,65.268 C40.48,65.268 40.24,65.226 40.016,65.142 C39.792,65.058 39.598,64.92 39.434,64.728 C39.27,64.536 39.14,64.28 39.044,63.96 C38.948,63.64 38.9,63.244 38.9,62.772 L38.9,62.772 L38.9,58.128 L37.904,58.128 L37.904,62.748 C37.904,63.38 37.976,63.912 38.12,64.344 C38.264,64.776 38.462,65.126 38.714,65.394 C38.966,65.662 39.266,65.854 39.614,65.97 C39.962,66.086 40.336,66.144 40.736,66.144 Z M46.628,66 L46.628,61.884 C46.628,61.468 46.614,61.054 46.586,60.642 C46.558,60.23 46.528,59.824 46.496,59.424 L46.496,59.424 L46.544,59.424 L47.396,61.044 L50.252,66 L51.284,66 L51.284,58.128 L50.336,58.128 L50.336,62.196 C50.336,62.612 50.35,63.034 50.378,63.462 C50.406,63.89 50.432,64.304 50.456,64.704 L50.456,64.704 L50.408,64.704 L49.556,63.072 L46.712,58.128 L45.68,58.128 L45.68,66 L46.628,66 Z M55.46,66 C56.052,66 56.576,65.91 57.032,65.73 C57.488,65.55 57.872,65.29 58.184,64.95 C58.496,64.61 58.732,64.194 58.892,63.702 C59.052,63.21 59.132,62.652 59.132,62.028 C59.132,60.772 58.816,59.808 58.184,59.136 C57.552,58.464 56.628,58.128 55.412,58.128 L55.412,58.128 L53.444,58.128 L53.444,66 L55.46,66 Z M55.34,65.184 L54.44,65.184 L54.44,58.944 L55.34,58.944 C56.26,58.944 56.95,59.208 57.41,59.736 C57.87,60.264 58.1,61.028 58.1,62.028 C58.1,63.028 57.87,63.804 57.41,64.356 C56.95,64.908 56.26,65.184 55.34,65.184 L55.34,65.184 Z M61.82,66 L61.82,58.128 L60.824,58.128 L60.824,66 L61.82,66 Z M64.928,66 L64.928,61.884 C64.928,61.468 64.914,61.054 64.886,60.642 C64.858,60.23 64.828,59.824 64.796,59.424 L64.796,59.424 L64.844,59.424 L65.696,61.044 L68.552,66 L69.584,66 L69.584,58.128 L68.636,58.128 L68.636,62.196 C68.636,62.612 68.65,63.034 68.678,63.462 C68.706,63.89 68.732,64.304 68.756,64.704 L68.756,64.704 L68.708,64.704 L67.856,63.072 L65.012,58.128 L63.98,58.128 L63.98,66 L64.928,66 Z M74.84,66.144 C75.368,66.144 75.84,66.058 76.256,65.886 C76.672,65.714 77.008,65.496 77.264,65.232 L77.264,65.232 L77.264,61.92 L74.684,61.92 L74.684,62.748 L76.352,62.748 L76.352,64.8 C76.192,64.944 75.986,65.058 75.734,65.142 C75.482,65.226 75.216,65.268 74.936,65.268 C74.512,65.268 74.138,65.192 73.814,65.04 C73.49,64.888 73.218,64.672 72.998,64.392 C72.778,64.112 72.61,63.774 72.494,63.378 C72.378,62.982 72.32,62.536 72.32,62.04 C72.32,61.552 72.382,61.112 72.506,60.72 C72.63,60.328 72.804,59.994 73.028,59.718 C73.252,59.442 73.524,59.23 73.844,59.082 C74.164,58.934 74.524,58.86 74.924,58.86 C75.324,58.86 75.656,58.932 75.92,59.076 C76.184,59.22 76.416,59.396 76.616,59.604 L76.616,59.604 L77.168,58.956 C77.056,58.836 76.926,58.718 76.778,58.602 C76.63,58.486 76.462,58.382 76.274,58.29 C76.086,58.198 75.878,58.124 75.65,58.068 C75.422,58.012 75.172,57.984 74.9,57.984 C74.38,57.984 73.898,58.078 73.454,58.266 C73.01,58.454 72.628,58.724 72.308,59.076 C71.988,59.428 71.738,59.856 71.558,60.36 C71.378,60.864 71.288,61.432 71.288,62.064 C71.288,62.704 71.376,63.278 71.552,63.786 C71.728,64.294 71.972,64.722 72.284,65.07 C72.596,65.418 72.97,65.684 73.406,65.868 C73.842,66.052 74.32,66.144 74.84,66.144 Z M39.236,82.32 L39.236,81.072 C39.86,80.936 40.328,80.662 40.64,80.25 C40.952,79.838 41.108,79.344 41.108,78.768 C41.108,78.384 41.03,78.062 40.874,77.802 C40.718,77.542 40.522,77.32 40.286,77.136 C40.05,76.952 39.796,76.796 39.524,76.668 C39.252,76.54 38.998,76.416 38.762,76.296 C38.526,76.176 38.33,76.05 38.174,75.918 C38.018,75.786 37.94,75.624 37.94,75.432 C37.94,75.16 38.016,74.964 38.168,74.844 C38.32,74.724 38.54,74.664 38.828,74.664 C39.084,74.664 39.312,74.714 39.512,74.814 C39.712,74.914 39.92,75.064 40.136,75.264 L40.136,75.264 L41.024,74.256 C40.792,74.008 40.532,73.796 40.244,73.62 C39.956,73.444 39.62,73.328 39.236,73.272 L39.236,73.272 L39.236,72.06 L38.072,72.06 L38.072,73.296 C37.504,73.408 37.058,73.658 36.734,74.046 C36.41,74.434 36.248,74.924 36.248,75.516 C36.248,75.876 36.326,76.18 36.482,76.428 C36.638,76.676 36.834,76.892 37.07,77.076 C37.306,77.26 37.56,77.418 37.832,77.55 C38.104,77.682 38.358,77.814 38.594,77.946 C38.83,78.078 39.026,78.216 39.182,78.36 C39.338,78.504 39.416,78.68 39.416,78.888 C39.416,79.168 39.338,79.376 39.182,79.512 C39.026,79.648 38.78,79.716 38.444,79.716 C38.156,79.716 37.874,79.658 37.598,79.542 C37.322,79.426 37.032,79.252 36.728,79.02 L36.728,79.02 L35.96,80.208 C36.24,80.464 36.574,80.67 36.962,80.826 C37.35,80.982 37.72,81.08 38.072,81.12 L38.072,81.12 L38.072,82.32 L39.236,82.32 Z M47.636,81 L47.636,79.512 L46.1,79.512 C45.916,79.512 45.706,79.522 45.47,79.542 C45.234,79.562 45.02,79.584 44.828,79.608 C45.14,79.288 45.442,78.962 45.734,78.63 C46.026,78.298 46.286,77.966 46.514,77.634 C46.742,77.302 46.924,76.97 47.06,76.638 C47.196,76.306 47.264,75.98 47.264,75.66 C47.264,75.292 47.204,74.96 47.084,74.664 C46.964,74.368 46.792,74.114 46.568,73.902 C46.344,73.69 46.078,73.526 45.77,73.41 C45.462,73.294 45.12,73.236 44.744,73.236 C44.2,73.236 43.732,73.338 43.34,73.542 C42.948,73.746 42.564,74.048 42.188,74.448 L42.188,74.448 L43.148,75.396 C43.34,75.188 43.544,75.006 43.76,74.85 C43.976,74.694 44.224,74.616 44.504,74.616 C44.84,74.616 45.104,74.714 45.296,74.91 C45.488,75.106 45.584,75.392 45.584,75.768 C45.584,76.04 45.502,76.326 45.338,76.626 C45.174,76.926 44.946,77.25 44.654,77.598 C44.362,77.946 44.014,78.318 43.61,78.714 C43.206,79.11 42.76,79.536 42.272,79.992 L42.272,79.992 L42.272,81 L47.636,81 Z M49.964,81.144 C50.268,81.144 50.522,81.038 50.726,80.826 C50.93,80.614 51.032,80.352 51.032,80.04 C51.032,79.72 50.93,79.454 50.726,79.242 C50.522,79.03 50.268,78.924 49.964,78.924 C49.66,78.924 49.406,79.03 49.202,79.242 C48.998,79.454 48.896,79.72 48.896,80.04 C48.896,80.352 48.998,80.614 49.202,80.826 C49.406,81.038 49.66,81.144 49.964,81.144 Z M54.728,81.144 C55.096,81.144 55.45,81.084 55.79,80.964 C56.13,80.844 56.428,80.67 56.684,80.442 C56.94,80.214 57.144,79.936 57.296,79.608 C57.448,79.28 57.524,78.904 57.524,78.48 C57.524,78.072 57.46,77.72 57.332,77.424 C57.204,77.128 57.028,76.884 56.804,76.692 C56.58,76.5 56.322,76.356 56.03,76.26 C55.738,76.164 55.428,76.116 55.1,76.116 C54.94,76.116 54.794,76.13 54.662,76.158 C54.53,76.186 54.392,76.232 54.248,76.296 L54.248,76.296 L54.38,74.868 L57.176,74.868 L57.176,73.38 L52.856,73.38 L52.64,77.232 L53.432,77.736 C53.544,77.664 53.646,77.604 53.738,77.556 C53.83,77.508 53.918,77.468 54.002,77.436 C54.086,77.404 54.172,77.382 54.26,77.37 C54.348,77.358 54.448,77.352 54.56,77.352 C54.92,77.352 55.21,77.452 55.43,77.652 C55.65,77.852 55.76,78.144 55.76,78.528 C55.76,78.92 55.644,79.216 55.412,79.416 C55.18,79.616 54.868,79.716 54.476,79.716 C54.148,79.716 53.85,79.642 53.582,79.494 C53.314,79.346 53.064,79.168 52.832,78.96 L52.832,78.96 L52.04,80.076 C52.344,80.38 52.712,80.634 53.144,80.838 C53.576,81.042 54.104,81.144 54.728,81.144 Z M61.256,81.144 C61.664,81.144 62.034,81.09 62.366,80.982 C62.698,80.874 62.982,80.726 63.218,80.538 C63.454,80.35 63.636,80.128 63.764,79.872 C63.892,79.616 63.956,79.336 63.956,79.032 C63.956,78.528 63.828,78.12 63.572,77.808 C63.316,77.496 63.004,77.24 62.636,77.04 L62.636,77.04 L62.636,76.992 C62.9,76.816 63.132,76.586 63.332,76.302 C63.532,76.018 63.632,75.692 63.632,75.324 C63.632,75.012 63.576,74.726 63.464,74.466 C63.352,74.206 63.196,73.986 62.996,73.806 C62.796,73.626 62.552,73.486 62.264,73.386 C61.976,73.286 61.66,73.236 61.316,73.236 C60.964,73.236 60.638,73.284 60.338,73.38 C60.038,73.476 59.78,73.616 59.564,73.8 C59.348,73.984 59.18,74.206 59.06,74.466 C58.94,74.726 58.88,75.016 58.88,75.336 C58.88,75.744 58.976,76.09 59.168,76.374 C59.36,76.658 59.604,76.912 59.9,77.136 L59.9,77.136 L59.9,77.184 C59.54,77.376 59.234,77.62 58.982,77.916 C58.73,78.212 58.604,78.592 58.604,79.056 C58.604,79.368 58.67,79.652 58.802,79.908 C58.934,80.164 59.118,80.384 59.354,80.568 C59.59,80.752 59.87,80.894 60.194,80.994 C60.518,81.094 60.872,81.144 61.256,81.144 Z M61.736,76.56 C61.344,76.408 61.028,76.244 60.788,76.068 C60.548,75.892 60.428,75.648 60.428,75.336 C60.428,75.04 60.512,74.82 60.68,74.676 C60.848,74.532 61.048,74.46 61.28,74.46 C61.568,74.46 61.794,74.55 61.958,74.73 C62.122,74.91 62.204,75.148 62.204,75.444 C62.204,75.828 62.048,76.2 61.736,76.56 Z M61.292,79.92 C60.972,79.92 60.696,79.826 60.464,79.638 C60.232,79.45 60.116,79.188 60.116,78.852 C60.116,78.62 60.172,78.4 60.284,78.192 C60.396,77.984 60.536,77.8 60.704,77.64 C60.944,77.744 61.162,77.84 61.358,77.928 C61.554,78.016 61.724,78.11 61.868,78.21 C62.012,78.31 62.122,78.42 62.198,78.54 C62.274,78.66 62.312,78.804 62.312,78.972 C62.312,79.292 62.216,79.53 62.024,79.686 C61.832,79.842 61.588,79.92 61.292,79.92 Z M71.06,81 L71.06,74.664 L73.208,74.664 L73.208,73.176 L67.136,73.176 L67.136,74.664 L69.284,74.664 L69.284,81 L71.06,81 Z" id="NEWAGENCYFUNDING$2.58T" fill="#666666" fill-rule="nonzero"></path>
                <path d="M52.548,16 L52.548,7.104 L55.572,7.104 L55.572,5.536 L47.668,5.536 L47.668,7.104 L50.692,7.104 L50.692,16 L52.548,16 Z M59.236,16.192 C59.7266667,16.192 60.1986667,16.1013333 60.652,15.92 C61.1053333,15.7386667 61.5026667,15.472 61.844,15.12 C62.1853333,14.768 62.46,14.336 62.668,13.824 C62.876,13.312 62.98,12.7306667 62.98,12.08 C62.98,11.4293333 62.876,10.848 62.668,10.336 C62.46,9.824 62.1853333,9.392 61.844,9.04 C61.5026667,8.688 61.1053333,8.41866667 60.652,8.232 C60.1986667,8.04533333 59.7266667,7.952 59.236,7.952 C58.7453333,7.952 58.276,8.04533333 57.828,8.232 C57.38,8.41866667 56.9826667,8.688 56.636,9.04 C56.2893333,9.392 56.0146667,9.824 55.812,10.336 C55.6093333,10.848 55.508,11.4293333 55.508,12.08 C55.508,12.7306667 55.6093333,13.312 55.812,13.824 C56.0146667,14.336 56.2893333,14.768 56.636,15.12 C56.9826667,15.472 57.38,15.7386667 57.828,15.92 C58.276,16.1013333 58.7453333,16.192 59.236,16.192 Z M59.236,14.688 C58.66,14.688 58.2093333,14.4506667 57.884,13.976 C57.5586667,13.5013333 57.396,12.8693333 57.396,12.08 C57.396,11.28 57.5586667,10.6426667 57.884,10.168 C58.2093333,9.69333333 58.66,9.456 59.236,9.456 C59.812,9.456 60.2653333,9.69333333 60.596,10.168 C60.9266667,10.6426667 61.092,11.28 61.092,12.08 C61.092,12.8693333 60.9266667,13.5013333 60.596,13.976 C60.2653333,14.4506667 59.812,14.688 59.236,14.688 Z M67.22,16.192 C67.5293333,16.192 67.82,16.1626667 68.092,16.104 C68.364,16.0453333 68.6066667,15.9786667 68.82,15.904 L68.82,15.904 L68.5,14.544 C68.3826667,14.5973333 68.252,14.64 68.108,14.672 C67.964,14.704 67.8226667,14.72 67.684,14.72 C66.948,14.72 66.58,14.2613333 66.58,13.344 L66.58,13.344 L66.58,9.6 L68.58,9.6 L68.58,8.144 L66.58,8.144 L66.58,6 L65.044,6 L64.82,8.144 L63.604,8.224 L63.604,9.6 L64.724,9.6 L64.724,13.344 C64.724,13.7706667 64.7693333,14.1573333 64.86,14.504 C64.9506667,14.8506667 65.0946667,15.1493333 65.292,15.4 C65.4893333,15.6506667 65.7453333,15.8453333 66.06,15.984 C66.3746667,16.1226667 66.7613333,16.192 67.22,16.192 Z M71.796,16.192 C72.2653333,16.192 72.7,16.0906667 73.1,15.888 C73.5,15.6853333 73.876,15.4346667 74.228,15.136 L74.228,15.136 L74.292,15.136 L74.42,16 L75.94,16 L75.94,11.344 C75.94,10.2453333 75.6973333,9.40533333 75.212,8.824 C74.7266667,8.24266667 73.9933333,7.952 73.012,7.952 C72.3826667,7.952 71.796,8.05333333 71.252,8.256 C70.708,8.45866667 70.2173333,8.69866667 69.78,8.976 L69.78,8.976 L70.452,10.208 C70.804,9.99466667 71.164,9.81333333 71.532,9.664 C71.9,9.51466667 72.276,9.44 72.66,9.44 C72.9266667,9.44 73.1506667,9.48 73.332,9.56 C73.5133333,9.64 73.66,9.752 73.772,9.896 C73.884,10.04 73.964,10.2053333 74.012,10.392 C74.06,10.5786667 74.0893333,10.7733333 74.1,10.976 C73.2893333,11.0613333 72.5933333,11.184 72.012,11.344 C71.4306667,11.504 70.9506667,11.7013333 70.572,11.936 C70.1933333,12.1706667 69.916,12.4506667 69.74,12.776 C69.564,13.1013333 69.476,13.472 69.476,13.888 C69.476,14.5813333 69.6893333,15.1386667 70.116,15.56 C70.5426667,15.9813333 71.1026667,16.192 71.796,16.192 Z M72.388,14.752 C72.0573333,14.752 71.7853333,14.672 71.572,14.512 C71.3586667,14.352 71.252,14.096 71.252,13.744 C71.252,13.552 71.3,13.3706667 71.396,13.2 C71.492,13.0293333 71.652,12.8773333 71.876,12.744 C72.1,12.6106667 72.3933333,12.4906667 72.756,12.384 C73.1186667,12.2773333 73.5666667,12.192 74.1,12.128 L74.1,12.128 L74.1,13.888 C73.8013333,14.1653333 73.5213333,14.3786667 73.26,14.528 C72.9986667,14.6773333 72.708,14.752 72.388,14.752 Z M79.94,16.192 C80.3453333,16.192 80.6706667,16.1386667 80.916,16.032 L80.916,16.032 L80.676,14.656 C80.6013333,14.6773333 80.5453333,14.688 80.508,14.688 L80.508,14.688 L80.388,14.688 C80.292,14.688 80.2013333,14.6426667 80.116,14.552 C80.0306667,14.4613333 79.988,14.304 79.988,14.08 L79.988,14.08 L79.988,4.704 L78.148,4.704 L78.148,13.984 C78.148,14.6666667 78.2813333,15.2053333 78.548,15.6 C78.8146667,15.9946667 79.2786667,16.192 79.94,16.192 Z M92.308,16 L92.308,14.432 L87.7,14.432 L87.7,11.344 L91.46,11.344 L91.46,9.776 L87.7,9.776 L87.7,7.104 L92.148,7.104 L92.148,5.536 L85.844,5.536 L85.844,16 L92.308,16 Z M96.484,16.192 C96.9746667,16.192 97.412,16.128 97.796,16 C98.18,15.872 98.5,15.6986667 98.756,15.48 C99.012,15.2613333 99.2066667,15.0053333 99.34,14.712 C99.4733333,14.4186667 99.54,14.1013333 99.54,13.76 C99.54,13.3973333 99.4733333,13.0853333 99.34,12.824 C99.2066667,12.5626667 99.0306667,12.3413333 98.812,12.16 C98.5933333,11.9786667 98.3506667,11.8266667 98.084,11.704 C97.8173333,11.5813333 97.5506667,11.472 97.284,11.376 C97.0706667,11.3013333 96.8653333,11.2266667 96.668,11.152 C96.4706667,11.0773333 96.2973333,10.9973333 96.148,10.912 C95.9986667,10.8266667 95.8786667,10.728 95.788,10.616 C95.6973333,10.504 95.652,10.368 95.652,10.208 C95.652,9.96266667 95.7453333,9.75733333 95.932,9.592 C96.1186667,9.42666667 96.4093333,9.344 96.804,9.344 C97.1133333,9.344 97.4093333,9.40533333 97.692,9.528 C97.9746667,9.65066667 98.2546667,9.81333333 98.532,10.016 L98.532,10.016 L99.38,8.896 C99.06,8.65066667 98.6813333,8.432 98.244,8.24 C97.8066667,8.048 97.316,7.952 96.772,7.952 C95.8866667,7.952 95.188,8.17066667 94.676,8.608 C94.164,9.04533333 93.908,9.61066667 93.908,10.304 C93.908,10.6346667 93.9746667,10.92 94.108,11.16 C94.2413333,11.4 94.412,11.6106667 94.62,11.792 C94.828,11.9733333 95.0653333,12.128 95.332,12.256 C95.5986667,12.384 95.86,12.496 96.116,12.592 C96.3186667,12.6773333 96.5213333,12.76 96.724,12.84 C96.9266667,12.92 97.108,13.008 97.268,13.104 C97.428,13.2 97.556,13.3093333 97.652,13.432 C97.748,13.5546667 97.796,13.696 97.796,13.856 C97.796,14.1333333 97.6946667,14.36 97.492,14.536 C97.2893333,14.712 96.9746667,14.8 96.548,14.8 C96.1426667,14.8 95.7666667,14.7226667 95.42,14.568 C95.0733333,14.4133333 94.724,14.1973333 94.372,13.92 L94.372,13.92 L93.508,15.104 C93.892,15.4133333 94.348,15.672 94.876,15.88 C95.404,16.088 95.94,16.192 96.484,16.192 Z M103.636,16.192 C103.945333,16.192 104.236,16.1626667 104.508,16.104 C104.78,16.0453333 105.022667,15.9786667 105.236,15.904 L105.236,15.904 L104.916,14.544 C104.798667,14.5973333 104.668,14.64 104.524,14.672 C104.38,14.704 104.238667,14.72 104.1,14.72 C103.364,14.72 102.996,14.2613333 102.996,13.344 L102.996,13.344 L102.996,9.6 L104.996,9.6 L104.996,8.144 L102.996,8.144 L102.996,6 L101.46,6 L101.236,8.144 L100.02,8.224 L100.02,9.6 L101.14,9.6 L101.14,13.344 C101.14,13.7706667 101.185333,14.1573333 101.276,14.504 C101.366667,14.8506667 101.510667,15.1493333 101.708,15.4 C101.905333,15.6506667 102.161333,15.8453333 102.476,15.984 C102.790667,16.1226667 103.177333,16.192 103.636,16.192 Z M107.572,6.768 C107.902667,6.768 108.174667,6.672 108.388,6.48 C108.601333,6.288 108.708,6.03733333 108.708,5.728 C108.708,5.41866667 108.601333,5.16533333 108.388,4.968 C108.174667,4.77066667 107.902667,4.672 107.572,4.672 C107.241333,4.672 106.969333,4.77066667 106.756,4.968 C106.542667,5.16533333 106.436,5.41866667 106.436,5.728 C106.436,6.03733333 106.542667,6.288 106.756,6.48 C106.969333,6.672 107.241333,6.768 107.572,6.768 Z M108.484,16 L108.484,8.144 L106.644,8.144 L106.644,16 L108.484,16 Z M112.676,16 L112.676,10.512 C113.284,9.86133333 113.833333,9.536 114.324,9.536 C114.74,9.536 115.046667,9.66933333 115.244,9.936 C115.441333,10.2026667 115.54,10.6613333 115.54,11.312 L115.54,11.312 L115.54,16 L117.38,16 L117.38,10.512 C117.988,9.86133333 118.537333,9.536 119.028,9.536 C119.433333,9.536 119.734667,9.66933333 119.932,9.936 C120.129333,10.2026667 120.228,10.6613333 120.228,11.312 L120.228,11.312 L120.228,16 L122.084,16 L122.084,11.072 C122.084,10.0693333 121.886667,9.29866667 121.492,8.76 C121.097333,8.22133333 120.484,7.952 119.652,7.952 C119.150667,7.952 118.697333,8.08533333 118.292,8.352 C117.886667,8.61866667 117.497333,8.95466667 117.124,9.36 C116.942667,8.912 116.678667,8.56533333 116.332,8.32 C115.985333,8.07466667 115.524,7.952 114.948,7.952 C114.457333,7.952 114.017333,8.07466667 113.628,8.32 C113.238667,8.56533333 112.878667,8.864 112.548,9.216 L112.548,9.216 L112.484,9.216 L112.356,8.144 L110.836,8.144 L110.836,16 L112.676,16 Z M126.228,16.192 C126.697333,16.192 127.132,16.0906667 127.532,15.888 C127.932,15.6853333 128.308,15.4346667 128.66,15.136 L128.66,15.136 L128.724,15.136 L128.852,16 L130.372,16 L130.372,11.344 C130.372,10.2453333 130.129333,9.40533333 129.644,8.824 C129.158667,8.24266667 128.425333,7.952 127.444,7.952 C126.814667,7.952 126.228,8.05333333 125.684,8.256 C125.14,8.45866667 124.649333,8.69866667 124.212,8.976 L124.212,8.976 L124.884,10.208 C125.236,9.99466667 125.596,9.81333333 125.964,9.664 C126.332,9.51466667 126.708,9.44 127.092,9.44 C127.358667,9.44 127.582667,9.48 127.764,9.56 C127.945333,9.64 128.092,9.752 128.204,9.896 C128.316,10.04 128.396,10.2053333 128.444,10.392 C128.492,10.5786667 128.521333,10.7733333 128.532,10.976 C127.721333,11.0613333 127.025333,11.184 126.444,11.344 C125.862667,11.504 125.382667,11.7013333 125.004,11.936 C124.625333,12.1706667 124.348,12.4506667 124.172,12.776 C123.996,13.1013333 123.908,13.472 123.908,13.888 C123.908,14.5813333 124.121333,15.1386667 124.548,15.56 C124.974667,15.9813333 125.534667,16.192 126.228,16.192 Z M126.82,14.752 C126.489333,14.752 126.217333,14.672 126.004,14.512 C125.790667,14.352 125.684,14.096 125.684,13.744 C125.684,13.552 125.732,13.3706667 125.828,13.2 C125.924,13.0293333 126.084,12.8773333 126.308,12.744 C126.532,12.6106667 126.825333,12.4906667 127.188,12.384 C127.550667,12.2773333 127.998667,12.192 128.532,12.128 L128.532,12.128 L128.532,13.888 C128.233333,14.1653333 127.953333,14.3786667 127.692,14.528 C127.430667,14.6773333 127.14,14.752 126.82,14.752 Z M135.092,16.192 C135.401333,16.192 135.692,16.1626667 135.964,16.104 C136.236,16.0453333 136.478667,15.9786667 136.692,15.904 L136.692,15.904 L136.372,14.544 C136.254667,14.5973333 136.124,14.64 135.98,14.672 C135.836,14.704 135.694667,14.72 135.556,14.72 C134.82,14.72 134.452,14.2613333 134.452,13.344 L134.452,13.344 L134.452,9.6 L136.452,9.6 L136.452,8.144 L134.452,8.144 L134.452,6 L132.916,6 L132.692,8.144 L131.476,8.224 L131.476,9.6 L132.596,9.6 L132.596,13.344 C132.596,13.7706667 132.641333,14.1573333 132.732,14.504 C132.822667,14.8506667 132.966667,15.1493333 133.164,15.4 C133.361333,15.6506667 133.617333,15.8453333 133.932,15.984 C134.246667,16.1226667 134.633333,16.192 135.092,16.192 Z M141.204,16.192 C141.705333,16.192 142.185333,16.112 142.644,15.952 C143.102667,15.792 143.518667,15.5893333 143.892,15.344 L143.892,15.344 L143.268,14.192 C142.98,14.3733333 142.689333,14.5146667 142.396,14.616 C142.102667,14.7173333 141.785333,14.768 141.444,14.768 C140.804,14.768 140.278667,14.5786667 139.868,14.2 C139.457333,13.8213333 139.209333,13.28 139.124,12.576 L139.124,12.576 L144.116,12.576 C144.137333,12.48 144.156,12.352 144.172,12.192 C144.188,12.032 144.196,11.8613333 144.196,11.68 C144.196,11.136 144.126667,10.6346667 143.988,10.176 C143.849333,9.71733333 143.644,9.32266667 143.372,8.992 C143.1,8.66133333 142.761333,8.40533333 142.356,8.224 C141.950667,8.04266667 141.481333,7.952 140.948,7.952 C140.489333,7.952 140.041333,8.048 139.604,8.24 C139.166667,8.432 138.78,8.704 138.444,9.056 C138.108,9.408 137.838667,9.84 137.636,10.352 C137.433333,10.864 137.332,11.44 137.332,12.08 C137.332,12.7306667 137.430667,13.3093333 137.628,13.816 C137.825333,14.3226667 138.1,14.752 138.452,15.104 C138.804,15.456 139.214667,15.7253333 139.684,15.912 C140.153333,16.0986667 140.66,16.192 141.204,16.192 Z M142.596,11.328 L139.108,11.328 C139.193333,10.688 139.412,10.2026667 139.764,9.872 C140.116,9.54133333 140.526667,9.376 140.996,9.376 C141.54,9.376 141.942667,9.54933333 142.204,9.896 C142.465333,10.2426667 142.596,10.72 142.596,11.328 L142.596,11.328 Z M148.708,16.192 C149.134667,16.192 149.54,16.0906667 149.924,15.888 C150.308,15.6853333 150.644,15.44 150.932,15.152 L150.932,15.152 L150.996,15.152 L151.124,16 L152.644,16 L152.644,4.704 L150.804,4.704 L150.804,7.552 L150.868,8.816 C150.558667,8.54933333 150.249333,8.33866667 149.94,8.184 C149.630667,8.02933333 149.252,7.952 148.804,7.952 C148.377333,7.952 147.964,8.048 147.564,8.24 C147.164,8.432 146.809333,8.704 146.5,9.056 C146.190667,9.408 145.942667,9.84 145.756,10.352 C145.569333,10.864 145.476,11.44 145.476,12.08 C145.476,13.3813333 145.766667,14.392 146.348,15.112 C146.929333,15.832 147.716,16.192 148.708,16.192 Z M149.156,14.672 C148.58,14.672 148.14,14.4506667 147.836,14.008 C147.532,13.5653333 147.38,12.9173333 147.38,12.064 C147.38,11.232 147.556,10.592 147.908,10.144 C148.26,9.696 148.692,9.472 149.204,9.472 C149.470667,9.472 149.734667,9.52 149.996,9.616 C150.257333,9.712 150.526667,9.88266667 150.804,10.128 L150.804,10.128 L150.804,13.792 C150.292,14.3786667 149.742667,14.672 149.156,14.672 Z M160.196,16 L160.196,11.632 L164.004,11.632 L164.004,10.064 L160.196,10.064 L160.196,7.104 L164.66,7.104 L164.66,5.536 L158.34,5.536 L158.34,16 L160.196,16 Z M167.268,6.768 C167.598667,6.768 167.870667,6.672 168.084,6.48 C168.297333,6.288 168.404,6.03733333 168.404,5.728 C168.404,5.41866667 168.297333,5.16533333 168.084,4.968 C167.870667,4.77066667 167.598667,4.672 167.268,4.672 C166.937333,4.672 166.665333,4.77066667 166.452,4.968 C166.238667,5.16533333 166.132,5.41866667 166.132,5.728 C166.132,6.03733333 166.238667,6.288 166.452,6.48 C166.665333,6.672 166.937333,6.768 167.268,6.768 Z M168.18,16 L168.18,8.144 L166.34,8.144 L166.34,16 L168.18,16 Z M172.724,16.192 C173.214667,16.192 173.652,16.128 174.036,16 C174.42,15.872 174.74,15.6986667 174.996,15.48 C175.252,15.2613333 175.446667,15.0053333 175.58,14.712 C175.713333,14.4186667 175.78,14.1013333 175.78,13.76 C175.78,13.3973333 175.713333,13.0853333 175.58,12.824 C175.446667,12.5626667 175.270667,12.3413333 175.052,12.16 C174.833333,11.9786667 174.590667,11.8266667 174.324,11.704 C174.057333,11.5813333 173.790667,11.472 173.524,11.376 C173.310667,11.3013333 173.105333,11.2266667 172.908,11.152 C172.710667,11.0773333 172.537333,10.9973333 172.388,10.912 C172.238667,10.8266667 172.118667,10.728 172.028,10.616 C171.937333,10.504 171.892,10.368 171.892,10.208 C171.892,9.96266667 171.985333,9.75733333 172.172,9.592 C172.358667,9.42666667 172.649333,9.344 173.044,9.344 C173.353333,9.344 173.649333,9.40533333 173.932,9.528 C174.214667,9.65066667 174.494667,9.81333333 174.772,10.016 L174.772,10.016 L175.62,8.896 C175.3,8.65066667 174.921333,8.432 174.484,8.24 C174.046667,8.048 173.556,7.952 173.012,7.952 C172.126667,7.952 171.428,8.17066667 170.916,8.608 C170.404,9.04533333 170.148,9.61066667 170.148,10.304 C170.148,10.6346667 170.214667,10.92 170.348,11.16 C170.481333,11.4 170.652,11.6106667 170.86,11.792 C171.068,11.9733333 171.305333,12.128 171.572,12.256 C171.838667,12.384 172.1,12.496 172.356,12.592 C172.558667,12.6773333 172.761333,12.76 172.964,12.84 C173.166667,12.92 173.348,13.008 173.508,13.104 C173.668,13.2 173.796,13.3093333 173.892,13.432 C173.988,13.5546667 174.036,13.696 174.036,13.856 C174.036,14.1333333 173.934667,14.36 173.732,14.536 C173.529333,14.712 173.214667,14.8 172.788,14.8 C172.382667,14.8 172.006667,14.7226667 171.66,14.568 C171.313333,14.4133333 170.964,14.1973333 170.612,13.92 L170.612,13.92 L169.748,15.104 C170.132,15.4133333 170.588,15.672 171.116,15.88 C171.644,16.088 172.18,16.192 172.724,16.192 Z M180.708,16.192 C181.156,16.192 181.601333,16.112 182.044,15.952 C182.486667,15.792 182.894667,15.552 183.268,15.232 L183.268,15.232 L182.516,14.016 C182.292,14.1973333 182.044,14.3546667 181.772,14.488 C181.5,14.6213333 181.209333,14.688 180.9,14.688 C180.281333,14.688 179.777333,14.4506667 179.388,13.976 C178.998667,13.5013333 178.804,12.8693333 178.804,12.08 C178.804,11.28 179.001333,10.6426667 179.396,10.168 C179.790667,9.69333333 180.308,9.456 180.948,9.456 C181.193333,9.456 181.42,9.50666667 181.628,9.608 C181.836,9.70933333 182.046667,9.85066667 182.26,10.032 L182.26,10.032 L183.156,8.832 C182.868,8.58666667 182.54,8.37866667 182.172,8.208 C181.804,8.03733333 181.364,7.952 180.852,7.952 C180.329333,7.952 179.830667,8.04533333 179.356,8.232 C178.881333,8.41866667 178.462667,8.688 178.1,9.04 C177.737333,9.392 177.449333,9.824 177.236,10.336 C177.022667,10.848 176.916,11.4293333 176.916,12.08 C176.916,12.7306667 177.012,13.312 177.204,13.824 C177.396,14.336 177.662667,14.768 178.004,15.12 C178.345333,15.472 178.748,15.7386667 179.212,15.92 C179.676,16.1013333 180.174667,16.192 180.708,16.192 Z M186.564,16.192 C187.033333,16.192 187.468,16.0906667 187.868,15.888 C188.268,15.6853333 188.644,15.4346667 188.996,15.136 L188.996,15.136 L189.06,15.136 L189.188,16 L190.708,16 L190.708,11.344 C190.708,10.2453333 190.465333,9.40533333 189.98,8.824 C189.494667,8.24266667 188.761333,7.952 187.78,7.952 C187.150667,7.952 186.564,8.05333333 186.02,8.256 C185.476,8.45866667 184.985333,8.69866667 184.548,8.976 L184.548,8.976 L185.22,10.208 C185.572,9.99466667 185.932,9.81333333 186.3,9.664 C186.668,9.51466667 187.044,9.44 187.428,9.44 C187.694667,9.44 187.918667,9.48 188.1,9.56 C188.281333,9.64 188.428,9.752 188.54,9.896 C188.652,10.04 188.732,10.2053333 188.78,10.392 C188.828,10.5786667 188.857333,10.7733333 188.868,10.976 C188.057333,11.0613333 187.361333,11.184 186.78,11.344 C186.198667,11.504 185.718667,11.7013333 185.34,11.936 C184.961333,12.1706667 184.684,12.4506667 184.508,12.776 C184.332,13.1013333 184.244,13.472 184.244,13.888 C184.244,14.5813333 184.457333,15.1386667 184.884,15.56 C185.310667,15.9813333 185.870667,16.192 186.564,16.192 Z M187.156,14.752 C186.825333,14.752 186.553333,14.672 186.34,14.512 C186.126667,14.352 186.02,14.096 186.02,13.744 C186.02,13.552 186.068,13.3706667 186.164,13.2 C186.26,13.0293333 186.42,12.8773333 186.644,12.744 C186.868,12.6106667 187.161333,12.4906667 187.524,12.384 C187.886667,12.2773333 188.334667,12.192 188.868,12.128 L188.868,12.128 L188.868,13.888 C188.569333,14.1653333 188.289333,14.3786667 188.028,14.528 C187.766667,14.6773333 187.476,14.752 187.156,14.752 Z M194.708,16.192 C195.113333,16.192 195.438667,16.1386667 195.684,16.032 L195.684,16.032 L195.444,14.656 C195.369333,14.6773333 195.313333,14.688 195.276,14.688 L195.276,14.688 L195.156,14.688 C195.06,14.688 194.969333,14.6426667 194.884,14.552 C194.798667,14.4613333 194.756,14.304 194.756,14.08 L194.756,14.08 L194.756,4.704 L192.916,4.704 L192.916,13.984 C192.916,14.6666667 193.049333,15.2053333 193.316,15.6 C193.582667,15.9946667 194.046667,16.192 194.708,16.192 Z M202.468,16 L202.468,5.536 L200.612,5.536 L200.612,16 L202.468,16 Z M206.804,16 L206.804,10.512 C207.412,9.86133333 207.961333,9.536 208.452,9.536 C208.868,9.536 209.174667,9.66933333 209.372,9.936 C209.569333,10.2026667 209.668,10.6613333 209.668,11.312 L209.668,11.312 L209.668,16 L211.508,16 L211.508,10.512 C212.116,9.86133333 212.665333,9.536 213.156,9.536 C213.561333,9.536 213.862667,9.66933333 214.06,9.936 C214.257333,10.2026667 214.356,10.6613333 214.356,11.312 L214.356,11.312 L214.356,16 L216.212,16 L216.212,11.072 C216.212,10.0693333 216.014667,9.29866667 215.62,8.76 C215.225333,8.22133333 214.612,7.952 213.78,7.952 C213.278667,7.952 212.825333,8.08533333 212.42,8.352 C212.014667,8.61866667 211.625333,8.95466667 211.252,9.36 C211.070667,8.912 210.806667,8.56533333 210.46,8.32 C210.113333,8.07466667 209.652,7.952 209.076,7.952 C208.585333,7.952 208.145333,8.07466667 207.756,8.32 C207.366667,8.56533333 207.006667,8.864 206.676,9.216 L206.676,9.216 L206.612,9.216 L206.484,8.144 L204.964,8.144 L204.964,16 L206.804,16 Z M220.292,19.104 L220.292,16.64 L220.244,15.328 C220.564,15.6053333 220.894667,15.8186667 221.236,15.968 C221.577333,16.1173333 221.918667,16.192 222.26,16.192 C222.697333,16.192 223.118667,16.096 223.524,15.904 C223.929333,15.712 224.286667,15.4373333 224.596,15.08 C224.905333,14.7226667 225.153333,14.28 225.34,13.752 C225.526667,13.224 225.62,12.624 225.62,11.952 C225.62,11.344 225.550667,10.7946667 225.412,10.304 C225.273333,9.81333333 225.070667,9.392 224.804,9.04 C224.537333,8.688 224.214667,8.41866667 223.836,8.232 C223.457333,8.04533333 223.022667,7.952 222.532,7.952 C222.094667,7.952 221.673333,8.05333333 221.268,8.256 C220.862667,8.45866667 220.494667,8.69866667 220.164,8.976 L220.164,8.976 L220.1,8.976 L219.972,8.144 L218.452,8.144 L218.452,19.104 L220.292,19.104 Z M221.876,14.672 C221.641333,14.672 221.390667,14.624 221.124,14.528 C220.857333,14.432 220.58,14.2613333 220.292,14.016 L220.292,14.016 L220.292,10.352 C220.889333,9.76533333 221.465333,9.472 222.02,9.472 C222.617333,9.472 223.049333,9.69066667 223.316,10.128 C223.582667,10.5653333 223.716,11.1786667 223.716,11.968 C223.716,12.864 223.54,13.5386667 223.188,13.992 C222.836,14.4453333 222.398667,14.672 221.876,14.672 Z M229.188,16.192 C229.657333,16.192 230.092,16.0906667 230.492,15.888 C230.892,15.6853333 231.268,15.4346667 231.62,15.136 L231.62,15.136 L231.684,15.136 L231.812,16 L233.332,16 L233.332,11.344 C233.332,10.2453333 233.089333,9.40533333 232.604,8.824 C232.118667,8.24266667 231.385333,7.952 230.404,7.952 C229.774667,7.952 229.188,8.05333333 228.644,8.256 C228.1,8.45866667 227.609333,8.69866667 227.172,8.976 L227.172,8.976 L227.844,10.208 C228.196,9.99466667 228.556,9.81333333 228.924,9.664 C229.292,9.51466667 229.668,9.44 230.052,9.44 C230.318667,9.44 230.542667,9.48 230.724,9.56 C230.905333,9.64 231.052,9.752 231.164,9.896 C231.276,10.04 231.356,10.2053333 231.404,10.392 C231.452,10.5786667 231.481333,10.7733333 231.492,10.976 C230.681333,11.0613333 229.985333,11.184 229.404,11.344 C228.822667,11.504 228.342667,11.7013333 227.964,11.936 C227.585333,12.1706667 227.308,12.4506667 227.132,12.776 C226.956,13.1013333 226.868,13.472 226.868,13.888 C226.868,14.5813333 227.081333,15.1386667 227.508,15.56 C227.934667,15.9813333 228.494667,16.192 229.188,16.192 Z M229.78,14.752 C229.449333,14.752 229.177333,14.672 228.964,14.512 C228.750667,14.352 228.644,14.096 228.644,13.744 C228.644,13.552 228.692,13.3706667 228.788,13.2 C228.884,13.0293333 229.044,12.8773333 229.268,12.744 C229.492,12.6106667 229.785333,12.4906667 230.148,12.384 C230.510667,12.2773333 230.958667,12.192 231.492,12.128 L231.492,12.128 L231.492,13.888 C231.193333,14.1653333 230.913333,14.3786667 230.652,14.528 C230.390667,14.6773333 230.1,14.752 229.78,14.752 Z M238.82,16.192 C239.268,16.192 239.713333,16.112 240.156,15.952 C240.598667,15.792 241.006667,15.552 241.38,15.232 L241.38,15.232 L240.628,14.016 C240.404,14.1973333 240.156,14.3546667 239.884,14.488 C239.612,14.6213333 239.321333,14.688 239.012,14.688 C238.393333,14.688 237.889333,14.4506667 237.5,13.976 C237.110667,13.5013333 236.916,12.8693333 236.916,12.08 C236.916,11.28 237.113333,10.6426667 237.508,10.168 C237.902667,9.69333333 238.42,9.456 239.06,9.456 C239.305333,9.456 239.532,9.50666667 239.74,9.608 C239.948,9.70933333 240.158667,9.85066667 240.372,10.032 L240.372,10.032 L241.268,8.832 C240.98,8.58666667 240.652,8.37866667 240.284,8.208 C239.916,8.03733333 239.476,7.952 238.964,7.952 C238.441333,7.952 237.942667,8.04533333 237.468,8.232 C236.993333,8.41866667 236.574667,8.688 236.212,9.04 C235.849333,9.392 235.561333,9.824 235.348,10.336 C235.134667,10.848 235.028,11.4293333 235.028,12.08 C235.028,12.7306667 235.124,13.312 235.316,13.824 C235.508,14.336 235.774667,14.768 236.116,15.12 C236.457333,15.472 236.86,15.7386667 237.324,15.92 C237.788,16.1013333 238.286667,16.192 238.82,16.192 Z M245.54,16.192 C245.849333,16.192 246.14,16.1626667 246.412,16.104 C246.684,16.0453333 246.926667,15.9786667 247.14,15.904 L247.14,15.904 L246.82,14.544 C246.702667,14.5973333 246.572,14.64 246.428,14.672 C246.284,14.704 246.142667,14.72 246.004,14.72 C245.268,14.72 244.9,14.2613333 244.9,13.344 L244.9,13.344 L244.9,9.6 L246.9,9.6 L246.9,8.144 L244.9,8.144 L244.9,6 L243.364,6 L243.14,8.144 L241.924,8.224 L241.924,9.6 L243.044,9.6 L243.044,13.344 C243.044,13.7706667 243.089333,14.1573333 243.18,14.504 C243.270667,14.8506667 243.414667,15.1493333 243.612,15.4 C243.809333,15.6506667 244.065333,15.8453333 244.38,15.984 C244.694667,16.1226667 245.081333,16.192 245.54,16.192 Z M255.348,17.76 L255.348,16.112 C256.148,15.9626667 256.761333,15.6293333 257.188,15.112 C257.614667,14.5946667 257.828,13.952 257.828,13.184 C257.828,12.6506667 257.721333,12.2053333 257.508,11.848 C257.294667,11.4906667 257.025333,11.1893333 256.7,10.944 C256.374667,10.6986667 256.025333,10.488 255.652,10.312 C255.278667,10.136 254.929333,9.96 254.604,9.784 C254.278667,9.608 254.009333,9.416 253.796,9.208 C253.582667,9 253.476,8.736 253.476,8.416 C253.476,8 253.598667,7.68266667 253.844,7.464 C254.089333,7.24533333 254.430667,7.136 254.868,7.136 C255.252,7.136 255.582667,7.208 255.86,7.352 C256.137333,7.496 256.425333,7.70666667 256.724,7.984 L256.724,7.984 L257.668,6.912 C257.369333,6.60266667 257.036,6.33333333 256.668,6.104 C256.3,5.87466667 255.86,5.728 255.348,5.664 L255.348,5.664 L255.348,4.064 L254.068,4.064 L254.068,5.696 C253.342667,5.824 252.766667,6.136 252.34,6.632 C251.913333,7.128 251.7,7.74933333 251.7,8.496 C251.7,8.99733333 251.806667,9.416 252.02,9.752 C252.233333,10.088 252.502667,10.376 252.828,10.616 C253.153333,10.856 253.502667,11.064 253.876,11.24 C254.249333,11.416 254.598667,11.6 254.924,11.792 C255.249333,11.984 255.518667,12.1973333 255.732,12.432 C255.945333,12.6666667 256.052,12.96 256.052,13.312 C256.052,13.7493333 255.924,14.088 255.668,14.328 C255.412,14.568 255.022667,14.688 254.5,14.688 C254.062667,14.688 253.652,14.5973333 253.268,14.416 C252.884,14.2346667 252.505333,13.9946667 252.132,13.696 L252.132,13.696 L251.3,14.944 C251.662667,15.2853333 252.092,15.56 252.588,15.768 C253.084,15.976 253.577333,16.1066667 254.068,16.16 L254.068,16.16 L254.068,17.76 L255.348,17.76 Z M263.188,16.192 C263.625333,16.192 264.038667,16.112 264.428,15.952 C264.817333,15.792 265.156,15.568 265.444,15.28 C265.732,14.992 265.961333,14.6426667 266.132,14.232 C266.302667,13.8213333 266.388,13.36 266.388,12.848 C266.388,12.3146667 266.316,11.8506667 266.172,11.456 C266.028,11.0613333 265.825333,10.7333333 265.564,10.472 C265.302667,10.2106667 264.988,10.016 264.62,9.888 C264.252,9.76 263.849333,9.696 263.412,9.696 C263.038667,9.696 262.652,9.80266667 262.252,10.016 C261.852,10.2293333 261.502667,10.5226667 261.204,10.896 C261.225333,10.192 261.302667,9.6 261.436,9.12 C261.569333,8.64 261.742667,8.25333333 261.956,7.96 C262.169333,7.66666667 262.417333,7.456 262.7,7.328 C262.982667,7.2 263.284,7.136 263.604,7.136 C263.913333,7.136 264.214667,7.208 264.508,7.352 C264.801333,7.496 265.038667,7.68 265.22,7.904 L265.22,7.904 L266.212,6.784 C265.902667,6.464 265.526667,6.192 265.084,5.968 C264.641333,5.744 264.110667,5.632 263.492,5.632 C262.969333,5.632 262.468,5.73866667 261.988,5.952 C261.508,6.16533333 261.084,6.496 260.716,6.944 C260.348,7.392 260.052,7.968 259.828,8.672 C259.604,9.376 259.492,10.224 259.492,11.216 C259.492,12.0693333 259.590667,12.8106667 259.788,13.44 C259.985333,14.0693333 260.252,14.5866667 260.588,14.992 C260.924,15.3973333 261.316,15.6986667 261.764,15.896 C262.212,16.0933333 262.686667,16.192 263.188,16.192 Z M263.156,14.784 C262.654667,14.784 262.236,14.5813333 261.9,14.176 C261.564,13.7706667 261.348,13.1146667 261.252,12.208 C261.54,11.7813333 261.844,11.48 262.164,11.304 C262.484,11.128 262.788,11.04 263.076,11.04 C263.588,11.04 263.982667,11.1893333 264.26,11.488 C264.537333,11.7866667 264.676,12.24 264.676,12.848 C264.676,13.4773333 264.529333,13.9573333 264.236,14.288 C263.942667,14.6186667 263.582667,14.784 263.156,14.784 Z M269.204,16.192 C269.545333,16.192 269.828,16.0746667 270.052,15.84 C270.276,15.6053333 270.388,15.3066667 270.388,14.944 C270.388,14.5813333 270.276,14.2826667 270.052,14.048 C269.828,13.8133333 269.545333,13.696 269.204,13.696 C268.862667,13.696 268.577333,13.8133333 268.348,14.048 C268.118667,14.2826667 268.004,14.5813333 268.004,14.944 C268.004,15.3066667 268.118667,15.6053333 268.348,15.84 C268.577333,16.0746667 268.862667,16.192 269.204,16.192 Z M278.708,16 L278.708,14.496 L276.708,14.496 L276.708,5.824 L275.332,5.824 C275.012,6.016 274.668,6.17866667 274.3,6.312 C273.932,6.44533333 273.492,6.56 272.98,6.656 L272.98,6.656 L272.98,7.808 L274.852,7.808 L274.852,14.496 L272.58,14.496 L272.58,16 L278.708,16 Z M284.004,16.192 C284.441333,16.192 284.854667,16.112 285.244,15.952 C285.633333,15.792 285.972,15.568 286.26,15.28 C286.548,14.992 286.777333,14.6426667 286.948,14.232 C287.118667,13.8213333 287.204,13.36 287.204,12.848 C287.204,12.3146667 287.132,11.8506667 286.988,11.456 C286.844,11.0613333 286.641333,10.7333333 286.38,10.472 C286.118667,10.2106667 285.804,10.016 285.436,9.888 C285.068,9.76 284.665333,9.696 284.228,9.696 C283.854667,9.696 283.468,9.80266667 283.068,10.016 C282.668,10.2293333 282.318667,10.5226667 282.02,10.896 C282.041333,10.192 282.118667,9.6 282.252,9.12 C282.385333,8.64 282.558667,8.25333333 282.772,7.96 C282.985333,7.66666667 283.233333,7.456 283.516,7.328 C283.798667,7.2 284.1,7.136 284.42,7.136 C284.729333,7.136 285.030667,7.208 285.324,7.352 C285.617333,7.496 285.854667,7.68 286.036,7.904 L286.036,7.904 L287.028,6.784 C286.718667,6.464 286.342667,6.192 285.9,5.968 C285.457333,5.744 284.926667,5.632 284.308,5.632 C283.785333,5.632 283.284,5.73866667 282.804,5.952 C282.324,6.16533333 281.9,6.496 281.532,6.944 C281.164,7.392 280.868,7.968 280.644,8.672 C280.42,9.376 280.308,10.224 280.308,11.216 C280.308,12.0693333 280.406667,12.8106667 280.604,13.44 C280.801333,14.0693333 281.068,14.5866667 281.404,14.992 C281.74,15.3973333 282.132,15.6986667 282.58,15.896 C283.028,16.0933333 283.502667,16.192 284.004,16.192 Z M283.972,14.784 C283.470667,14.784 283.052,14.5813333 282.716,14.176 C282.38,13.7706667 282.164,13.1146667 282.068,12.208 C282.356,11.7813333 282.66,11.48 282.98,11.304 C283.3,11.128 283.604,11.04 283.892,11.04 C284.404,11.04 284.798667,11.1893333 285.076,11.488 C285.353333,11.7866667 285.492,12.24 285.492,12.848 C285.492,13.4773333 285.345333,13.9573333 285.052,14.288 C284.758667,14.6186667 284.398667,14.784 283.972,14.784 Z M296.308,16 L296.308,7.104 L299.332,7.104 L299.332,5.536 L291.428,5.536 L291.428,7.104 L294.452,7.104 L294.452,16 L296.308,16 Z" id="TotalEstimatedFiscalImpact$6.16T" fill="#666666" fill-rule="nonzero"></path>
                <path d="M0,98 L0,34 L348,34 L348,98" id="Path-21" stroke="#D8D8D8" stroke-dasharray="3,3"></path>
                <path d="M143.482,70 L143.482,62.968 L145.858,62.968 L145.858,62.128 L140.098,62.128 L140.098,62.968 L142.474,62.968 L142.474,70 L143.482,70 Z M146.77,70 L147.526,67.6 L150.394,67.6 L151.138,70 L152.206,70 L149.542,62.128 L148.414,62.128 L145.75,70 L146.77,70 Z M150.142,66.796 L147.778,66.796 L148.15,65.596 C148.294,65.156 148.43,64.718 148.558,64.282 C148.686,63.846 148.81,63.4 148.93,62.944 L148.93,62.944 L148.978,62.944 C149.106,63.4 149.234,63.846 149.362,64.282 C149.49,64.718 149.626,65.156 149.77,65.596 L149.77,65.596 L150.142,66.796 Z M153.526,70 L154.666,67.876 C154.762,67.684 154.862,67.486 154.966,67.282 C155.07,67.078 155.178,66.856 155.29,66.616 L155.29,66.616 L155.338,66.616 C155.466,66.856 155.584,67.078 155.692,67.282 C155.8,67.486 155.906,67.684 156.01,67.876 L156.01,67.876 L157.162,70 L158.266,70 L155.974,65.98 L158.122,62.128 L157.066,62.128 L156.022,64.144 C155.926,64.328 155.836,64.506 155.752,64.678 C155.668,64.85 155.57,65.052 155.458,65.284 L155.458,65.284 L155.41,65.284 C155.29,65.052 155.184,64.85 155.092,64.678 C155,64.506 154.902,64.328 154.798,64.144 L154.798,64.144 L153.73,62.128 L152.626,62.128 L154.762,65.932 L152.47,70 L153.526,70 Z M162.922,70 L162.922,66.676 L164.35,66.676 L166.246,70 L167.374,70 L165.37,66.568 C165.914,66.432 166.346,66.18 166.666,65.812 C166.986,65.444 167.146,64.952 167.146,64.336 C167.146,63.928 167.078,63.584 166.942,63.304 C166.806,63.024 166.616,62.796 166.372,62.62 C166.128,62.444 165.836,62.318 165.496,62.242 C165.156,62.166 164.786,62.128 164.386,62.128 L164.386,62.128 L161.926,62.128 L161.926,70 L162.922,70 Z M164.242,65.86 L162.922,65.86 L162.922,62.932 L164.242,62.932 C164.858,62.932 165.33,63.036 165.658,63.244 C165.986,63.452 166.15,63.816 166.15,64.336 C166.15,64.848 165.986,65.23 165.658,65.482 C165.33,65.734 164.858,65.86 164.242,65.86 L164.242,65.86 Z M173.41,70 L173.41,69.148 L169.75,69.148 L169.75,66.292 L172.738,66.292 L172.738,65.44 L169.75,65.44 L169.75,62.968 L173.29,62.968 L173.29,62.128 L168.754,62.128 L168.754,70 L173.41,70 Z M179.518,70 L179.518,69.148 L176.074,69.148 L176.074,62.128 L175.078,62.128 L175.078,70 L179.518,70 Z M181.906,70 L181.906,62.128 L180.91,62.128 L180.91,70 L181.906,70 Z M188.722,70 L188.722,69.148 L185.062,69.148 L185.062,66.292 L188.05,66.292 L188.05,65.44 L185.062,65.44 L185.062,62.968 L188.602,62.968 L188.602,62.128 L184.066,62.128 L184.066,70 L188.722,70 Z M191.386,70 L191.386,66.472 L194.386,66.472 L194.386,65.632 L191.386,65.632 L191.386,62.968 L194.926,62.968 L194.926,62.128 L190.39,62.128 L190.39,70 L191.386,70 Z M153.742,86.32 L153.742,85.072 C154.366,84.936 154.834,84.662 155.146,84.25 C155.458,83.838 155.614,83.344 155.614,82.768 C155.614,82.384 155.536,82.062 155.38,81.802 C155.224,81.542 155.028,81.32 154.792,81.136 C154.556,80.952 154.302,80.796 154.03,80.668 C153.758,80.54 153.504,80.416 153.268,80.296 C153.032,80.176 152.836,80.05 152.68,79.918 C152.524,79.786 152.446,79.624 152.446,79.432 C152.446,79.16 152.522,78.964 152.674,78.844 C152.826,78.724 153.046,78.664 153.334,78.664 C153.59,78.664 153.818,78.714 154.018,78.814 C154.218,78.914 154.426,79.064 154.642,79.264 L154.642,79.264 L155.53,78.256 C155.298,78.008 155.038,77.796 154.75,77.62 C154.462,77.444 154.126,77.328 153.742,77.272 L153.742,77.272 L153.742,76.06 L152.578,76.06 L152.578,77.296 C152.01,77.408 151.564,77.658 151.24,78.046 C150.916,78.434 150.754,78.924 150.754,79.516 C150.754,79.876 150.832,80.18 150.988,80.428 C151.144,80.676 151.34,80.892 151.576,81.076 C151.812,81.26 152.066,81.418 152.338,81.55 C152.61,81.682 152.864,81.814 153.1,81.946 C153.336,82.078 153.532,82.216 153.688,82.36 C153.844,82.504 153.922,82.68 153.922,82.888 C153.922,83.168 153.844,83.376 153.688,83.512 C153.532,83.648 153.286,83.716 152.95,83.716 C152.662,83.716 152.38,83.658 152.104,83.542 C151.828,83.426 151.538,83.252 151.234,83.02 L151.234,83.02 L150.466,84.208 C150.746,84.464 151.08,84.67 151.468,84.826 C151.856,84.982 152.226,85.08 152.578,85.12 L152.578,85.12 L152.578,86.32 L153.742,86.32 Z M159.082,85.144 C159.482,85.144 159.868,85.062 160.24,84.898 C160.612,84.734 160.94,84.484 161.224,84.148 C161.508,83.812 161.736,83.384 161.908,82.864 C162.08,82.344 162.166,81.728 162.166,81.016 C162.166,80.344 162.084,79.77 161.92,79.294 C161.756,78.818 161.54,78.428 161.272,78.124 C161.004,77.82 160.696,77.596 160.348,77.452 C160,77.308 159.642,77.236 159.274,77.236 C158.93,77.236 158.604,77.294 158.296,77.41 C157.988,77.526 157.72,77.696 157.492,77.92 C157.264,78.144 157.082,78.414 156.946,78.73 C156.81,79.046 156.742,79.4 156.742,79.792 C156.742,80.192 156.8,80.54 156.916,80.836 C157.032,81.132 157.19,81.376 157.39,81.568 C157.59,81.76 157.828,81.904 158.104,82 C158.38,82.096 158.682,82.144 159.01,82.144 C159.13,82.144 159.258,82.126 159.394,82.09 C159.53,82.054 159.666,82.002 159.802,81.934 C159.938,81.866 160.07,81.782 160.198,81.682 C160.326,81.582 160.438,81.468 160.534,81.34 C160.518,81.788 160.468,82.162 160.384,82.462 C160.3,82.762 160.188,83.006 160.048,83.194 C159.908,83.382 159.746,83.516 159.562,83.596 C159.378,83.676 159.178,83.716 158.962,83.716 C158.738,83.716 158.518,83.662 158.302,83.554 C158.086,83.446 157.914,83.32 157.786,83.176 L157.786,83.176 L156.85,84.232 C157.09,84.472 157.396,84.684 157.768,84.868 C158.14,85.052 158.578,85.144 159.082,85.144 Z M159.358,80.896 C159.07,80.896 158.83,80.814 158.638,80.65 C158.446,80.486 158.35,80.2 158.35,79.792 C158.35,79.36 158.446,79.046 158.638,78.85 C158.83,78.654 159.054,78.556 159.31,78.556 C159.582,78.556 159.828,78.67 160.048,78.898 C160.268,79.126 160.418,79.54 160.498,80.14 C160.346,80.412 160.168,80.606 159.964,80.722 C159.76,80.838 159.558,80.896 159.358,80.896 Z M165.838,85.144 C166.246,85.144 166.618,85.058 166.954,84.886 C167.29,84.714 167.576,84.46 167.812,84.124 C168.048,83.788 168.232,83.372 168.364,82.876 C168.496,82.38 168.562,81.808 168.562,81.16 C168.562,80.512 168.496,79.944 168.364,79.456 C168.232,78.968 168.048,78.558 167.812,78.226 C167.576,77.894 167.29,77.646 166.954,77.482 C166.618,77.318 166.246,77.236 165.838,77.236 C165.43,77.236 165.058,77.318 164.722,77.482 C164.386,77.646 164.1,77.894 163.864,78.226 C163.628,78.558 163.444,78.968 163.312,79.456 C163.18,79.944 163.114,80.512 163.114,81.16 C163.114,81.808 163.18,82.38 163.312,82.876 C163.444,83.372 163.628,83.788 163.864,84.124 C164.1,84.46 164.386,84.714 164.722,84.886 C165.058,85.058 165.43,85.144 165.838,85.144 Z M165.838,83.776 C165.694,83.776 165.558,83.738 165.43,83.662 C165.302,83.586 165.19,83.448 165.094,83.248 C164.998,83.048 164.922,82.78 164.866,82.444 C164.81,82.108 164.782,81.68 164.782,81.16 C164.782,80.64 164.81,80.214 164.866,79.882 C164.922,79.55 164.998,79.29 165.094,79.102 C165.19,78.914 165.302,78.784 165.43,78.712 C165.558,78.64 165.694,78.604 165.838,78.604 C165.99,78.604 166.13,78.64 166.258,78.712 C166.386,78.784 166.498,78.914 166.594,79.102 C166.69,79.29 166.764,79.55 166.816,79.882 C166.868,80.214 166.894,80.64 166.894,81.16 C166.894,81.68 166.868,82.108 166.816,82.444 C166.764,82.78 166.69,83.048 166.594,83.248 C166.498,83.448 166.386,83.586 166.258,83.662 C166.13,83.738 165.99,83.776 165.838,83.776 Z M174.814,85 L174.814,83.512 L173.278,83.512 C173.094,83.512 172.884,83.522 172.648,83.542 C172.412,83.562 172.198,83.584 172.006,83.608 C172.318,83.288 172.62,82.962 172.912,82.63 C173.204,82.298 173.464,81.966 173.692,81.634 C173.92,81.302 174.102,80.97 174.238,80.638 C174.374,80.306 174.442,79.98 174.442,79.66 C174.442,79.292 174.382,78.96 174.262,78.664 C174.142,78.368 173.97,78.114 173.746,77.902 C173.522,77.69 173.256,77.526 172.948,77.41 C172.64,77.294 172.298,77.236 171.922,77.236 C171.378,77.236 170.91,77.338 170.518,77.542 C170.126,77.746 169.742,78.048 169.366,78.448 L169.366,78.448 L170.326,79.396 C170.518,79.188 170.722,79.006 170.938,78.85 C171.154,78.694 171.402,78.616 171.682,78.616 C172.018,78.616 172.282,78.714 172.474,78.91 C172.666,79.106 172.762,79.392 172.762,79.768 C172.762,80.04 172.68,80.326 172.516,80.626 C172.352,80.926 172.124,81.25 171.832,81.598 C171.54,81.946 171.192,82.318 170.788,82.714 C170.384,83.11 169.938,83.536 169.45,83.992 L169.45,83.992 L169.45,85 L174.814,85 Z M181.57,85 C181.994,85 182.39,84.954 182.758,84.862 C183.126,84.77 183.448,84.63 183.724,84.442 C184,84.254 184.216,84.016 184.372,83.728 C184.528,83.44 184.606,83.096 184.606,82.696 C184.606,82.432 184.57,82.198 184.498,81.994 C184.426,81.79 184.326,81.612 184.198,81.46 C184.07,81.308 183.922,81.182 183.754,81.082 C183.586,80.982 183.402,80.908 183.202,80.86 L183.202,80.86 L183.202,80.812 C183.362,80.756 183.504,80.668 183.628,80.548 C183.752,80.428 183.858,80.292 183.946,80.14 C184.034,79.988 184.102,79.824 184.15,79.648 C184.198,79.472 184.222,79.296 184.222,79.12 C184.222,78.744 184.148,78.432 184,78.184 C183.852,77.936 183.648,77.736 183.388,77.584 C183.128,77.432 182.824,77.326 182.476,77.266 C182.128,77.206 181.75,77.176 181.342,77.176 L181.342,77.176 L178.666,77.176 L178.666,85 L181.57,85 Z M181.258,80.308 L180.43,80.308 L180.43,78.544 L181.27,78.544 C181.686,78.544 181.994,78.608 182.194,78.736 C182.394,78.864 182.494,79.08 182.494,79.384 C182.494,79.664 182.396,79.888 182.2,80.056 C182.004,80.224 181.69,80.308 181.258,80.308 L181.258,80.308 Z M181.426,83.632 L180.43,83.632 L180.43,81.616 L181.426,81.616 C181.914,81.616 182.278,81.69 182.518,81.838 C182.758,81.986 182.878,82.232 182.878,82.576 C182.878,83.28 182.394,83.632 181.426,83.632 L181.426,83.632 Z" id="TAXRELIEF$902B" fill="#666666" fill-rule="nonzero"></path>
                <path d="M245.106,56 L245.106,52.88 L246.402,52.88 C246.834,52.88 247.228,52.83 247.584,52.73 C247.94,52.63 248.246,52.48 248.502,52.28 C248.758,52.08 248.956,51.828 249.096,51.524 C249.236,51.22 249.306,50.86 249.306,50.444 C249.306,50.012 249.234,49.648 249.09,49.352 C248.946,49.056 248.746,48.818 248.49,48.638 C248.234,48.458 247.924,48.328 247.56,48.248 C247.196,48.168 246.794,48.128 246.354,48.128 L246.354,48.128 L244.11,48.128 L244.11,56 L245.106,56 Z M246.282,52.064 L245.106,52.064 L245.106,48.932 L246.234,48.932 C246.922,48.932 247.44,49.042 247.788,49.262 C248.136,49.482 248.31,49.876 248.31,50.444 C248.31,51.004 248.144,51.414 247.812,51.674 C247.48,51.934 246.97,52.064 246.282,52.064 L246.282,52.064 Z M253.806,56.144 C254.302,56.144 254.756,56.048 255.168,55.856 C255.58,55.664 255.936,55.39 256.236,55.034 C256.536,54.678 256.768,54.246 256.932,53.738 C257.096,53.23 257.178,52.66 257.178,52.028 C257.178,51.404 257.096,50.842 256.932,50.342 C256.768,49.842 256.536,49.418 256.236,49.07 C255.936,48.722 255.58,48.454 255.168,48.266 C254.756,48.078 254.302,47.984 253.806,47.984 C253.31,47.984 252.856,48.076 252.444,48.26 C252.032,48.444 251.678,48.71 251.382,49.058 C251.086,49.406 250.856,49.83 250.692,50.33 C250.528,50.83 250.446,51.396 250.446,52.028 C250.446,52.66 250.528,53.23 250.692,53.738 C250.856,54.246 251.086,54.678 251.382,55.034 C251.678,55.39 252.032,55.664 252.444,55.856 C252.856,56.048 253.31,56.144 253.806,56.144 Z M253.806,55.268 C253.454,55.268 253.136,55.192 252.852,55.04 C252.568,54.888 252.324,54.67 252.12,54.386 C251.916,54.102 251.758,53.762 251.646,53.366 C251.534,52.97 251.478,52.524 251.478,52.028 C251.478,51.54 251.534,51.1 251.646,50.708 C251.758,50.316 251.916,49.984 252.12,49.712 C252.324,49.44 252.568,49.23 252.852,49.082 C253.136,48.934 253.454,48.86 253.806,48.86 C254.158,48.86 254.476,48.934 254.76,49.082 C255.044,49.23 255.288,49.44 255.492,49.712 C255.696,49.984 255.854,50.316 255.966,50.708 C256.078,51.1 256.134,51.54 256.134,52.028 C256.134,52.524 256.078,52.97 255.966,53.366 C255.854,53.762 255.696,54.102 255.492,54.386 C255.288,54.67 255.044,54.888 254.76,55.04 C254.476,55.192 254.158,55.268 253.806,55.268 Z M261.222,56 L261.222,48.968 L263.598,48.968 L263.598,48.128 L257.838,48.128 L257.838,48.968 L260.214,48.968 L260.214,56 L261.222,56 Z M269.67,56 L269.67,55.148 L266.01,55.148 L266.01,52.292 L268.998,52.292 L268.998,51.44 L266.01,51.44 L266.01,48.968 L269.55,48.968 L269.55,48.128 L265.014,48.128 L265.014,56 L269.67,56 Z M272.286,56 L272.286,51.884 C272.286,51.468 272.272,51.054 272.244,50.642 C272.216,50.23 272.186,49.824 272.154,49.424 L272.154,49.424 L272.202,49.424 L273.054,51.044 L275.91,56 L276.942,56 L276.942,48.128 L275.994,48.128 L275.994,52.196 C275.994,52.612 276.008,53.034 276.036,53.462 C276.064,53.89 276.09,54.304 276.114,54.704 L276.114,54.704 L276.066,54.704 L275.214,53.072 L272.37,48.128 L271.338,48.128 L271.338,56 L272.286,56 Z M281.742,56 L281.742,48.968 L284.118,48.968 L284.118,48.128 L278.358,48.128 L278.358,48.968 L280.734,48.968 L280.734,56 L281.742,56 Z M286.53,56 L286.53,48.128 L285.534,48.128 L285.534,56 L286.53,56 Z M288.666,56 L289.422,53.6 L292.29,53.6 L293.034,56 L294.102,56 L291.438,48.128 L290.31,48.128 L287.646,56 L288.666,56 Z M292.038,52.796 L289.674,52.796 L290.046,51.596 C290.19,51.156 290.326,50.718 290.454,50.282 C290.582,49.846 290.706,49.4 290.826,48.944 L290.826,48.944 L290.874,48.944 C291.002,49.4 291.13,49.846 291.258,50.282 C291.386,50.718 291.522,51.156 291.666,51.596 L291.666,51.596 L292.038,52.796 Z M299.658,56 L299.658,55.148 L296.214,55.148 L296.214,48.128 L295.218,48.128 L295.218,56 L299.658,56 Z M257.07,71.144 C257.582,71.144 258.034,71.044 258.426,70.844 C258.818,70.644 259.17,70.364 259.482,70.004 L259.482,70.004 L258.93,69.38 C258.674,69.66 258.402,69.878 258.114,70.034 C257.826,70.19 257.49,70.268 257.106,70.268 C256.73,70.268 256.392,70.192 256.092,70.04 C255.792,69.888 255.538,69.672 255.33,69.392 C255.122,69.112 254.96,68.774 254.844,68.378 C254.728,67.982 254.67,67.536 254.67,67.04 C254.67,66.552 254.728,66.112 254.844,65.72 C254.96,65.328 255.126,64.994 255.342,64.718 C255.558,64.442 255.818,64.23 256.122,64.082 C256.426,63.934 256.766,63.86 257.142,63.86 C257.478,63.86 257.778,63.928 258.042,64.064 C258.306,64.2 258.542,64.38 258.75,64.604 L258.75,64.604 L259.29,63.956 C259.058,63.7 258.76,63.474 258.396,63.278 C258.032,63.082 257.61,62.984 257.13,62.984 C256.626,62.984 256.162,63.078 255.738,63.266 C255.314,63.454 254.946,63.724 254.634,64.076 C254.322,64.428 254.078,64.856 253.902,65.36 C253.726,65.864 253.638,66.432 253.638,67.064 C253.638,67.704 253.724,68.278 253.896,68.786 C254.068,69.294 254.308,69.722 254.616,70.07 C254.924,70.418 255.286,70.684 255.702,70.868 C256.118,71.052 256.574,71.144 257.07,71.144 Z M261.942,71 L261.942,67.676 L263.37,67.676 L265.266,71 L266.394,71 L264.39,67.568 C264.934,67.432 265.366,67.18 265.686,66.812 C266.006,66.444 266.166,65.952 266.166,65.336 C266.166,64.928 266.098,64.584 265.962,64.304 C265.826,64.024 265.636,63.796 265.392,63.62 C265.148,63.444 264.856,63.318 264.516,63.242 C264.176,63.166 263.806,63.128 263.406,63.128 L263.406,63.128 L260.946,63.128 L260.946,71 L261.942,71 Z M263.262,66.86 L261.942,66.86 L261.942,63.932 L263.262,63.932 C263.878,63.932 264.35,64.036 264.678,64.244 C265.006,64.452 265.17,64.816 265.17,65.336 C265.17,65.848 265.006,66.23 264.678,66.482 C264.35,66.734 263.878,66.86 263.262,66.86 L263.262,66.86 Z M272.43,71 L272.43,70.148 L268.77,70.148 L268.77,67.292 L271.758,67.292 L271.758,66.44 L268.77,66.44 L268.77,63.968 L272.31,63.968 L272.31,63.128 L267.774,63.128 L267.774,71 L272.43,71 Z M276.114,71 C276.706,71 277.23,70.91 277.686,70.73 C278.142,70.55 278.526,70.29 278.838,69.95 C279.15,69.61 279.386,69.194 279.546,68.702 C279.706,68.21 279.786,67.652 279.786,67.028 C279.786,65.772 279.47,64.808 278.838,64.136 C278.206,63.464 277.282,63.128 276.066,63.128 L276.066,63.128 L274.098,63.128 L274.098,71 L276.114,71 Z M275.994,70.184 L275.094,70.184 L275.094,63.944 L275.994,63.944 C276.914,63.944 277.604,64.208 278.064,64.736 C278.524,65.264 278.754,66.028 278.754,67.028 C278.754,68.028 278.524,68.804 278.064,69.356 C277.604,69.908 276.914,70.184 275.994,70.184 L275.994,70.184 Z M282.474,71 L282.474,63.128 L281.478,63.128 L281.478,71 L282.474,71 Z M287.274,71 L287.274,63.968 L289.65,63.968 L289.65,63.128 L283.89,63.128 L283.89,63.968 L286.266,63.968 L286.266,71 L287.274,71 Z M256.236,87.32 L256.236,86.072 C256.86,85.936 257.328,85.662 257.64,85.25 C257.952,84.838 258.108,84.344 258.108,83.768 C258.108,83.384 258.03,83.062 257.874,82.802 C257.718,82.542 257.522,82.32 257.286,82.136 C257.05,81.952 256.796,81.796 256.524,81.668 C256.252,81.54 255.998,81.416 255.762,81.296 C255.526,81.176 255.33,81.05 255.174,80.918 C255.018,80.786 254.94,80.624 254.94,80.432 C254.94,80.16 255.016,79.964 255.168,79.844 C255.32,79.724 255.54,79.664 255.828,79.664 C256.084,79.664 256.312,79.714 256.512,79.814 C256.712,79.914 256.92,80.064 257.136,80.264 L257.136,80.264 L258.024,79.256 C257.792,79.008 257.532,78.796 257.244,78.62 C256.956,78.444 256.62,78.328 256.236,78.272 L256.236,78.272 L256.236,77.06 L255.072,77.06 L255.072,78.296 C254.504,78.408 254.058,78.658 253.734,79.046 C253.41,79.434 253.248,79.924 253.248,80.516 C253.248,80.876 253.326,81.18 253.482,81.428 C253.638,81.676 253.834,81.892 254.07,82.076 C254.306,82.26 254.56,82.418 254.832,82.55 C255.104,82.682 255.358,82.814 255.594,82.946 C255.83,83.078 256.026,83.216 256.182,83.36 C256.338,83.504 256.416,83.68 256.416,83.888 C256.416,84.168 256.338,84.376 256.182,84.512 C256.026,84.648 255.78,84.716 255.444,84.716 C255.156,84.716 254.874,84.658 254.598,84.542 C254.322,84.426 254.032,84.252 253.728,84.02 L253.728,84.02 L252.96,85.208 C253.24,85.464 253.574,85.67 253.962,85.826 C254.35,85.982 254.72,86.08 255.072,86.12 L255.072,86.12 L255.072,87.32 L256.236,87.32 Z M261.792,86.144 C262.16,86.144 262.514,86.084 262.854,85.964 C263.194,85.844 263.492,85.67 263.748,85.442 C264.004,85.214 264.208,84.936 264.36,84.608 C264.512,84.28 264.588,83.904 264.588,83.48 C264.588,83.072 264.524,82.72 264.396,82.424 C264.268,82.128 264.092,81.884 263.868,81.692 C263.644,81.5 263.386,81.356 263.094,81.26 C262.802,81.164 262.492,81.116 262.164,81.116 C262.004,81.116 261.858,81.13 261.726,81.158 C261.594,81.186 261.456,81.232 261.312,81.296 L261.312,81.296 L261.444,79.868 L264.24,79.868 L264.24,78.38 L259.92,78.38 L259.704,82.232 L260.496,82.736 C260.608,82.664 260.71,82.604 260.802,82.556 C260.894,82.508 260.982,82.468 261.066,82.436 C261.15,82.404 261.236,82.382 261.324,82.37 C261.412,82.358 261.512,82.352 261.624,82.352 C261.984,82.352 262.274,82.452 262.494,82.652 C262.714,82.852 262.824,83.144 262.824,83.528 C262.824,83.92 262.708,84.216 262.476,84.416 C262.244,84.616 261.932,84.716 261.54,84.716 C261.212,84.716 260.914,84.642 260.646,84.494 C260.378,84.346 260.128,84.168 259.896,83.96 L259.896,83.96 L259.104,85.076 C259.408,85.38 259.776,85.634 260.208,85.838 C260.64,86.042 261.168,86.144 261.792,86.144 Z M266.964,86.144 C267.268,86.144 267.522,86.038 267.726,85.826 C267.93,85.614 268.032,85.352 268.032,85.04 C268.032,84.72 267.93,84.454 267.726,84.242 C267.522,84.03 267.268,83.924 266.964,83.924 C266.66,83.924 266.406,84.03 266.202,84.242 C265.998,84.454 265.896,84.72 265.896,85.04 C265.896,85.352 265.998,85.614 266.202,85.826 C266.406,86.038 266.66,86.144 266.964,86.144 Z M274.572,86 L274.572,84.512 L273.036,84.512 C272.852,84.512 272.642,84.522 272.406,84.542 C272.17,84.562 271.956,84.584 271.764,84.608 C272.076,84.288 272.378,83.962 272.67,83.63 C272.962,83.298 273.222,82.966 273.45,82.634 C273.678,82.302 273.86,81.97 273.996,81.638 C274.132,81.306 274.2,80.98 274.2,80.66 C274.2,80.292 274.14,79.96 274.02,79.664 C273.9,79.368 273.728,79.114 273.504,78.902 C273.28,78.69 273.014,78.526 272.706,78.41 C272.398,78.294 272.056,78.236 271.68,78.236 C271.136,78.236 270.668,78.338 270.276,78.542 C269.884,78.746 269.5,79.048 269.124,79.448 L269.124,79.448 L270.084,80.396 C270.276,80.188 270.48,80.006 270.696,79.85 C270.912,79.694 271.16,79.616 271.44,79.616 C271.776,79.616 272.04,79.714 272.232,79.91 C272.424,80.106 272.52,80.392 272.52,80.768 C272.52,81.04 272.438,81.326 272.274,81.626 C272.11,81.926 271.882,82.25 271.59,82.598 C271.298,82.946 270.95,83.318 270.546,83.714 C270.142,84.11 269.696,84.536 269.208,84.992 L269.208,84.992 L269.208,86 L274.572,86 Z M278.064,86.144 C278.432,86.144 278.786,86.084 279.126,85.964 C279.466,85.844 279.764,85.67 280.02,85.442 C280.276,85.214 280.48,84.936 280.632,84.608 C280.784,84.28 280.86,83.904 280.86,83.48 C280.86,83.072 280.796,82.72 280.668,82.424 C280.54,82.128 280.364,81.884 280.14,81.692 C279.916,81.5 279.658,81.356 279.366,81.26 C279.074,81.164 278.764,81.116 278.436,81.116 C278.276,81.116 278.13,81.13 277.998,81.158 C277.866,81.186 277.728,81.232 277.584,81.296 L277.584,81.296 L277.716,79.868 L280.512,79.868 L280.512,78.38 L276.192,78.38 L275.976,82.232 L276.768,82.736 C276.88,82.664 276.982,82.604 277.074,82.556 C277.166,82.508 277.254,82.468 277.338,82.436 C277.422,82.404 277.508,82.382 277.596,82.37 C277.684,82.358 277.784,82.352 277.896,82.352 C278.256,82.352 278.546,82.452 278.766,82.652 C278.986,82.852 279.096,83.144 279.096,83.528 C279.096,83.92 278.98,84.216 278.748,84.416 C278.516,84.616 278.204,84.716 277.812,84.716 C277.484,84.716 277.186,84.642 276.918,84.494 C276.65,84.346 276.4,84.168 276.168,83.96 L276.168,83.96 L275.376,85.076 C275.68,85.38 276.048,85.634 276.48,85.838 C276.912,86.042 277.44,86.144 278.064,86.144 Z M288.06,86 L288.06,79.664 L290.208,79.664 L290.208,78.176 L284.136,78.176 L284.136,79.664 L286.284,79.664 L286.284,86 L288.06,86 Z" id="POTENTIALCREDIT$5.25T" fill="#666666" fill-rule="nonzero"></path>
                <polyline id="Path-21-Copy-2" stroke="#979797" stroke-width="0.5" points="0 102 0 93 141 93 141 102"></polyline>
                <use id="Rectangle-Copy-19" stroke="#979797" mask="url(#mask-2)" stroke-width="2" fill="#D8D8D8" opacity="0.776204427" stroke-linecap="round" stroke-linejoin="round" stroke-dasharray="4,3" transform="translate(168.000000, 122.500000) rotate(90.000000) translate(-168.000000, -122.500000) " xlink:href="#path-1"></use>
                <use id="Rectangle-Copy-16" stroke="#4A1D7A" mask="url(#mask-4)" stroke-width="2" fill-opacity="0.202524038" fill="#4A1D7A" stroke-linecap="round" stroke-linejoin="round" stroke-dasharray="4,3" transform="translate(271.000000, 122.000000) rotate(90.000000) translate(-271.000000, -122.000000) " xlink:href="#path-3"></use>
                <g id="Group-27" transform="translate(0.000000, 102.000000)" fill="#6F41A7">
                    <rect id="Rectangle" x="114" y="3.55271368e-15" width="27" height="40"></rect>
                    <rect id="Rectangle-Copy-13" x="3" y="3.55271368e-15" width="110" height="40"></rect>
                    <rect id="Rectangle-Copy-14" x="1" y="3.55271368e-15" width="1" height="40"></rect>
                    <rect id="Rectangle-Copy-17" x="0" y="3.55271368e-15" width="1" height="40"></rect>
                </g>
                <line x1="173.5" y1="32.5" x2="173.5" y2="20.5" id="Line-14" stroke="#D8D8D8" stroke-linecap="round" stroke-linejoin="round" stroke-dasharray="3,3"></line>
                <line x1="54.5" y1="93" x2="54.5" y2="85" id="Line-14-Copy-2" stroke="#979797" stroke-width="0.5" stroke-linecap="square"></line>
                <line x1="167.5" y1="100" x2="167.5" y2="92" id="Line-14-Copy-4" stroke="#979797" stroke-width="0.5" stroke-linecap="square"></line>
                <line x1="271.5" y1="101" x2="271.5" y2="93" id="Line-14-Copy-5" stroke="#979797" stroke-width="0.5" stroke-linecap="square"></line>
            </g>
        </g>
    </g>
</svg>