<?xml version="1.0" encoding="UTF-8"?>
<svg width="944px" height="148px" viewBox="0 0 944 148" version="1.1" xmlns="http://www.w3.org/2000/svg" xmlns:xlink="http://www.w3.org/1999/xlink" role="img">
    <desc>Viz 1 C desktop placeholder alt text</desc>
    <defs>
        <polygon id="path-1" points="432.5 61.5 472.5 61.5 472.5 194.5 432.5 194.5"></polygon>
        <mask id="mask-2" maskContentUnits="userSpaceOnUse" maskUnits="objectBoundingBox" x="0" y="0" width="40" height="133" fill="white">
            <use xlink:href="#path-1"></use>
        </mask>
        <polygon id="path-3" points="713 -81 753 -81 753 337 713 337"></polygon>
        <mask id="mask-4" maskContentUnits="userSpaceOnUse" maskUnits="objectBoundingBox" x="0" y="0" width="40" height="418" fill="white">
            <use xlink:href="#path-3"></use>
        </mask>
    </defs>
    <g id="SVG-Outlines" stroke="none" stroke-width="1" fill="none" fill-rule="evenodd">
        <g id="Desktop-HD" transform="translate(-239.000000, -772.000000)">
            <g id="VIZ-3---C" transform="translate(239.000000, 772.000000)">
                <g id="Group-4" transform="translate(1.000000, 0.000000)">
                    <polyline id="Path-21-Copy-2" stroke="#979797" stroke-width="0.5" points="0 108 0 99 380 99 380 108"></polyline>
                    <path d="M134.11,72 L134.11,67.884 C134.11,67.468 134.096,67.054 134.068,66.642 C134.04,66.23 134.01,65.824 133.978,65.424 L133.978,65.424 L134.026,65.424 L134.878,67.044 L137.734,72 L138.766,72 L138.766,64.128 L137.818,64.128 L137.818,68.196 C137.818,68.612 137.832,69.034 137.86,69.462 C137.888,69.89 137.914,70.304 137.938,70.704 L137.938,70.704 L137.89,70.704 L137.038,69.072 L134.194,64.128 L133.162,64.128 L133.162,72 L134.11,72 Z M145.582,72 L145.582,71.148 L141.922,71.148 L141.922,68.292 L144.91,68.292 L144.91,67.44 L141.922,67.44 L141.922,64.968 L145.462,64.968 L145.462,64.128 L140.926,64.128 L140.926,72 L145.582,72 Z M149.302,72 L150.466,67.26 C150.53,66.956 150.596,66.658 150.664,66.366 C150.732,66.074 150.798,65.776 150.862,65.472 L150.862,65.472 L150.91,65.472 C150.974,65.776 151.036,66.074 151.096,66.366 C151.156,66.658 151.222,66.956 151.294,67.26 L151.294,67.26 L152.482,72 L153.682,72 L155.314,64.128 L154.354,64.128 L153.526,68.412 C153.446,68.836 153.37,69.258 153.298,69.678 C153.226,70.098 153.154,70.524 153.082,70.956 L153.082,70.956 L153.034,70.956 C152.938,70.524 152.842,70.096 152.746,69.672 C152.65,69.248 152.554,68.828 152.458,68.412 L152.458,68.412 L151.366,64.128 L150.454,64.128 L149.362,68.412 C149.274,68.836 149.182,69.258 149.086,69.678 C148.99,70.098 148.898,70.524 148.81,70.956 L148.81,70.956 L148.762,70.956 C148.69,70.524 148.614,70.1 148.534,69.684 L148.417,69.054 L148.417,69.054 L148.306,68.412 L147.478,64.128 L146.446,64.128 L148.114,72 L149.302,72 Z M159.058,72 L159.814,69.6 L162.682,69.6 L163.426,72 L164.494,72 L161.83,64.128 L160.702,64.128 L158.038,72 L159.058,72 Z M162.43,68.796 L160.066,68.796 L160.438,67.596 C160.582,67.156 160.718,66.718 160.846,66.282 C160.974,65.846 161.098,65.4 161.218,64.944 L161.218,64.944 L161.266,64.944 C161.394,65.4 161.522,65.846 161.65,66.282 C161.778,66.718 161.914,67.156 162.058,67.596 L162.058,67.596 L162.43,68.796 Z M168.586,72.144 C169.114,72.144 169.586,72.058 170.002,71.886 C170.418,71.714 170.754,71.496 171.01,71.232 L171.01,71.232 L171.01,67.92 L168.43,67.92 L168.43,68.748 L170.098,68.748 L170.098,70.8 C169.938,70.944 169.732,71.058 169.48,71.142 C169.228,71.226 168.962,71.268 168.682,71.268 C168.258,71.268 167.884,71.192 167.56,71.04 C167.236,70.888 166.964,70.672 166.744,70.392 C166.524,70.112 166.356,69.774 166.24,69.378 C166.124,68.982 166.066,68.536 166.066,68.04 C166.066,67.552 166.128,67.112 166.252,66.72 C166.376,66.328 166.55,65.994 166.774,65.718 C166.998,65.442 167.27,65.23 167.59,65.082 C167.91,64.934 168.27,64.86 168.67,64.86 C169.07,64.86 169.402,64.932 169.666,65.076 C169.93,65.22 170.162,65.396 170.362,65.604 L170.362,65.604 L170.914,64.956 C170.802,64.836 170.672,64.718 170.524,64.602 C170.376,64.486 170.208,64.382 170.02,64.29 C169.832,64.198 169.624,64.124 169.396,64.068 C169.168,64.012 168.918,63.984 168.646,63.984 C168.126,63.984 167.644,64.078 167.2,64.266 C166.756,64.454 166.374,64.724 166.054,65.076 C165.734,65.428 165.484,65.856 165.304,66.36 C165.124,66.864 165.034,67.432 165.034,68.064 C165.034,68.704 165.122,69.278 165.298,69.786 C165.474,70.294 165.718,70.722 166.03,71.07 C166.342,71.418 166.716,71.684 167.152,71.868 C167.588,72.052 168.066,72.144 168.586,72.144 Z M177.55,72 L177.55,71.148 L173.89,71.148 L173.89,68.292 L176.878,68.292 L176.878,67.44 L173.89,67.44 L173.89,64.968 L177.43,64.968 L177.43,64.128 L172.894,64.128 L172.894,72 L177.55,72 Z M180.166,72 L180.166,67.884 C180.166,67.468 180.152,67.054 180.124,66.642 C180.096,66.23 180.066,65.824 180.034,65.424 L180.034,65.424 L180.082,65.424 L180.934,67.044 L183.79,72 L184.822,72 L184.822,64.128 L183.874,64.128 L183.874,68.196 C183.874,68.612 183.888,69.034 183.916,69.462 C183.944,69.89 183.97,70.304 183.994,70.704 L183.994,70.704 L183.946,70.704 L183.094,69.072 L180.25,64.128 L179.218,64.128 L179.218,72 L180.166,72 Z M189.958,72.144 C190.47,72.144 190.922,72.044 191.314,71.844 C191.706,71.644 192.058,71.364 192.37,71.004 L192.37,71.004 L191.818,70.38 C191.562,70.66 191.29,70.878 191.002,71.034 C190.714,71.19 190.378,71.268 189.994,71.268 C189.618,71.268 189.28,71.192 188.98,71.04 C188.68,70.888 188.426,70.672 188.218,70.392 C188.01,70.112 187.848,69.774 187.732,69.378 C187.616,68.982 187.558,68.536 187.558,68.04 C187.558,67.552 187.616,67.112 187.732,66.72 C187.848,66.328 188.014,65.994 188.23,65.718 C188.446,65.442 188.706,65.23 189.01,65.082 C189.314,64.934 189.654,64.86 190.03,64.86 C190.366,64.86 190.666,64.928 190.93,65.064 C191.194,65.2 191.43,65.38 191.638,65.604 L191.638,65.604 L192.178,64.956 C191.946,64.7 191.648,64.474 191.284,64.278 C190.92,64.082 190.498,63.984 190.018,63.984 C189.514,63.984 189.05,64.078 188.626,64.266 C188.202,64.454 187.834,64.724 187.522,65.076 C187.21,65.428 186.966,65.856 186.79,66.36 C186.614,66.864 186.526,67.432 186.526,68.064 C186.526,68.704 186.612,69.278 186.784,69.786 C186.956,70.294 187.196,70.722 187.504,71.07 C187.812,71.418 188.174,71.684 188.59,71.868 C189.006,72.052 189.462,72.144 189.958,72.144 Z M196.03,72 L196.03,68.952 L198.394,64.128 L197.35,64.128 L196.342,66.348 C196.222,66.636 196.094,66.92 195.958,67.2 C195.822,67.48 195.686,67.768 195.55,68.064 L195.55,68.064 L195.502,68.064 C195.366,67.768 195.238,67.48 195.118,67.2 C194.998,66.92 194.874,66.636 194.746,66.348 L194.746,66.348 L193.726,64.128 L192.658,64.128 L195.022,68.952 L195.022,72 L196.03,72 Z M202.858,72 L202.858,68.472 L205.858,68.472 L205.858,67.632 L202.858,67.632 L202.858,64.968 L206.398,64.968 L206.398,64.128 L201.862,64.128 L201.862,72 L202.858,72 Z M210.586,72.144 C210.986,72.144 211.358,72.086 211.702,71.97 C212.046,71.854 212.344,71.662 212.596,71.394 C212.848,71.126 213.046,70.776 213.19,70.344 C213.334,69.912 213.406,69.38 213.406,68.748 L213.406,68.748 L213.406,64.128 L212.446,64.128 L212.446,68.772 C212.446,69.244 212.398,69.64 212.302,69.96 C212.206,70.28 212.074,70.536 211.906,70.728 C211.738,70.92 211.542,71.058 211.318,71.142 C211.094,71.226 210.85,71.268 210.586,71.268 C210.33,71.268 210.09,71.226 209.866,71.142 C209.642,71.058 209.448,70.92 209.284,70.728 C209.12,70.536 208.99,70.28 208.894,69.96 C208.798,69.64 208.75,69.244 208.75,68.772 L208.75,68.772 L208.75,64.128 L207.754,64.128 L207.754,68.748 C207.754,69.38 207.826,69.912 207.97,70.344 C208.114,70.776 208.312,71.126 208.564,71.394 C208.816,71.662 209.116,71.854 209.464,71.97 C209.812,72.086 210.186,72.144 210.586,72.144 Z M216.478,72 L216.478,67.884 C216.478,67.468 216.464,67.054 216.436,66.642 C216.408,66.23 216.378,65.824 216.346,65.424 L216.346,65.424 L216.394,65.424 L217.246,67.044 L220.102,72 L221.134,72 L221.134,64.128 L220.186,64.128 L220.186,68.196 C220.186,68.612 220.2,69.034 220.228,69.462 C220.256,69.89 220.282,70.304 220.306,70.704 L220.306,70.704 L220.258,70.704 L219.406,69.072 L216.562,64.128 L215.53,64.128 L215.53,72 L216.478,72 Z M225.31,72 C225.902,72 226.426,71.91 226.882,71.73 C227.338,71.55 227.722,71.29 228.034,70.95 C228.346,70.61 228.582,70.194 228.742,69.702 C228.902,69.21 228.982,68.652 228.982,68.028 C228.982,66.772 228.666,65.808 228.034,65.136 C227.402,64.464 226.478,64.128 225.262,64.128 L225.262,64.128 L223.294,64.128 L223.294,72 L225.31,72 Z M225.19,71.184 L224.29,71.184 L224.29,64.944 L225.19,64.944 C226.11,64.944 226.8,65.208 227.26,65.736 C227.72,66.264 227.95,67.028 227.95,68.028 C227.95,69.028 227.72,69.804 227.26,70.356 C226.8,70.908 226.11,71.184 225.19,71.184 L225.19,71.184 Z M231.67,72 L231.67,64.128 L230.674,64.128 L230.674,72 L231.67,72 Z M234.778,72 L234.778,67.884 C234.778,67.468 234.764,67.054 234.736,66.642 C234.708,66.23 234.678,65.824 234.646,65.424 L234.646,65.424 L234.694,65.424 L235.546,67.044 L238.402,72 L239.434,72 L239.434,64.128 L238.486,64.128 L238.486,68.196 C238.486,68.612 238.5,69.034 238.528,69.462 C238.556,69.89 238.582,70.304 238.606,70.704 L238.606,70.704 L238.558,70.704 L237.706,69.072 L234.862,64.128 L233.83,64.128 L233.83,72 L234.778,72 Z M244.69,72.144 C245.218,72.144 245.69,72.058 246.106,71.886 C246.522,71.714 246.858,71.496 247.114,71.232 L247.114,71.232 L247.114,67.92 L244.534,67.92 L244.534,68.748 L246.202,68.748 L246.202,70.8 C246.042,70.944 245.836,71.058 245.584,71.142 C245.332,71.226 245.066,71.268 244.786,71.268 C244.362,71.268 243.988,71.192 243.664,71.04 C243.34,70.888 243.068,70.672 242.848,70.392 C242.628,70.112 242.46,69.774 242.344,69.378 C242.228,68.982 242.17,68.536 242.17,68.04 C242.17,67.552 242.232,67.112 242.356,66.72 C242.48,66.328 242.654,65.994 242.878,65.718 C243.102,65.442 243.374,65.23 243.694,65.082 C244.014,64.934 244.374,64.86 244.774,64.86 C245.174,64.86 245.506,64.932 245.77,65.076 C246.034,65.22 246.266,65.396 246.466,65.604 L246.466,65.604 L247.018,64.956 C246.906,64.836 246.776,64.718 246.628,64.602 C246.48,64.486 246.312,64.382 246.124,64.29 C245.936,64.198 245.728,64.124 245.5,64.068 C245.272,64.012 245.022,63.984 244.75,63.984 C244.23,63.984 243.748,64.078 243.304,64.266 C242.86,64.454 242.478,64.724 242.158,65.076 C241.838,65.428 241.588,65.856 241.408,66.36 C241.228,66.864 241.138,67.432 241.138,68.064 C241.138,68.704 241.226,69.278 241.402,69.786 C241.578,70.294 241.822,70.722 242.134,71.07 C242.446,71.418 242.82,71.684 243.256,71.868 C243.692,72.052 244.17,72.144 244.69,72.144 Z M174.736,88.32 L174.736,87.072 C175.36,86.936 175.828,86.662 176.14,86.25 C176.452,85.838 176.608,85.344 176.608,84.768 C176.608,84.384 176.53,84.062 176.374,83.802 C176.218,83.542 176.022,83.32 175.786,83.136 C175.55,82.952 175.296,82.796 175.024,82.668 C174.752,82.54 174.498,82.416 174.262,82.296 C174.026,82.176 173.83,82.05 173.674,81.918 C173.518,81.786 173.44,81.624 173.44,81.432 C173.44,81.16 173.516,80.964 173.668,80.844 C173.82,80.724 174.04,80.664 174.328,80.664 C174.584,80.664 174.812,80.714 175.012,80.814 C175.212,80.914 175.42,81.064 175.636,81.264 L175.636,81.264 L176.524,80.256 C176.292,80.008 176.032,79.796 175.744,79.62 C175.456,79.444 175.12,79.328 174.736,79.272 L174.736,79.272 L174.736,78.06 L173.572,78.06 L173.572,79.296 C173.004,79.408 172.558,79.658 172.234,80.046 C171.91,80.434 171.748,80.924 171.748,81.516 C171.748,81.876 171.826,82.18 171.982,82.428 C172.138,82.676 172.334,82.892 172.57,83.076 C172.806,83.26 173.06,83.418 173.332,83.55 C173.604,83.682 173.858,83.814 174.094,83.946 C174.33,84.078 174.526,84.216 174.682,84.36 C174.838,84.504 174.916,84.68 174.916,84.888 C174.916,85.168 174.838,85.376 174.682,85.512 C174.526,85.648 174.28,85.716 173.944,85.716 C173.656,85.716 173.374,85.658 173.098,85.542 C172.822,85.426 172.532,85.252 172.228,85.02 L172.228,85.02 L171.46,86.208 C171.74,86.464 172.074,86.67 172.462,86.826 C172.85,86.982 173.22,87.08 173.572,87.12 L173.572,87.12 L173.572,88.32 L174.736,88.32 Z M183.136,87 L183.136,85.512 L181.6,85.512 C181.416,85.512 181.206,85.522 180.97,85.542 C180.734,85.562 180.52,85.584 180.328,85.608 C180.64,85.288 180.942,84.962 181.234,84.63 C181.526,84.298 181.786,83.966 182.014,83.634 C182.242,83.302 182.424,82.97 182.56,82.638 C182.696,82.306 182.764,81.98 182.764,81.66 C182.764,81.292 182.704,80.96 182.584,80.664 C182.464,80.368 182.292,80.114 182.068,79.902 C181.844,79.69 181.578,79.526 181.27,79.41 C180.962,79.294 180.62,79.236 180.244,79.236 C179.7,79.236 179.232,79.338 178.84,79.542 C178.448,79.746 178.064,80.048 177.688,80.448 L177.688,80.448 L178.648,81.396 C178.84,81.188 179.044,81.006 179.26,80.85 C179.476,80.694 179.724,80.616 180.004,80.616 C180.34,80.616 180.604,80.714 180.796,80.91 C180.988,81.106 181.084,81.392 181.084,81.768 C181.084,82.04 181.002,82.326 180.838,82.626 C180.674,82.926 180.446,83.25 180.154,83.598 C179.862,83.946 179.514,84.318 179.11,84.714 C178.706,85.11 178.26,85.536 177.772,85.992 L177.772,85.992 L177.772,87 L183.136,87 Z M185.464,87.144 C185.768,87.144 186.022,87.038 186.226,86.826 C186.43,86.614 186.532,86.352 186.532,86.04 C186.532,85.72 186.43,85.454 186.226,85.242 C186.022,85.03 185.768,84.924 185.464,84.924 C185.16,84.924 184.906,85.03 184.702,85.242 C184.498,85.454 184.396,85.72 184.396,86.04 C184.396,86.352 184.498,86.614 184.702,86.826 C184.906,87.038 185.16,87.144 185.464,87.144 Z M190.228,87.144 C190.596,87.144 190.95,87.084 191.29,86.964 C191.63,86.844 191.928,86.67 192.184,86.442 C192.44,86.214 192.644,85.936 192.796,85.608 C192.948,85.28 193.024,84.904 193.024,84.48 C193.024,84.072 192.96,83.72 192.832,83.424 C192.704,83.128 192.528,82.884 192.304,82.692 C192.08,82.5 191.822,82.356 191.53,82.26 C191.238,82.164 190.928,82.116 190.6,82.116 C190.44,82.116 190.294,82.13 190.162,82.158 C190.03,82.186 189.892,82.232 189.748,82.296 L189.748,82.296 L189.88,80.868 L192.676,80.868 L192.676,79.38 L188.356,79.38 L188.14,83.232 L188.932,83.736 C189.044,83.664 189.146,83.604 189.238,83.556 C189.33,83.508 189.418,83.468 189.502,83.436 C189.586,83.404 189.672,83.382 189.76,83.37 C189.848,83.358 189.948,83.352 190.06,83.352 C190.42,83.352 190.71,83.452 190.93,83.652 C191.15,83.852 191.26,84.144 191.26,84.528 C191.26,84.92 191.144,85.216 190.912,85.416 C190.68,85.616 190.368,85.716 189.976,85.716 C189.648,85.716 189.35,85.642 189.082,85.494 C188.814,85.346 188.564,85.168 188.332,84.96 L188.332,84.96 L187.54,86.076 C187.844,86.38 188.212,86.634 188.644,86.838 C189.076,87.042 189.604,87.144 190.228,87.144 Z M196.756,87.144 C197.164,87.144 197.534,87.09 197.866,86.982 C198.198,86.874 198.482,86.726 198.718,86.538 C198.954,86.35 199.136,86.128 199.264,85.872 C199.392,85.616 199.456,85.336 199.456,85.032 C199.456,84.528 199.328,84.12 199.072,83.808 C198.816,83.496 198.504,83.24 198.136,83.04 L198.136,83.04 L198.136,82.992 C198.4,82.816 198.632,82.586 198.832,82.302 C199.032,82.018 199.132,81.692 199.132,81.324 C199.132,81.012 199.076,80.726 198.964,80.466 C198.852,80.206 198.696,79.986 198.496,79.806 C198.296,79.626 198.052,79.486 197.764,79.386 C197.476,79.286 197.16,79.236 196.816,79.236 C196.464,79.236 196.138,79.284 195.838,79.38 C195.538,79.476 195.28,79.616 195.064,79.8 C194.848,79.984 194.68,80.206 194.56,80.466 C194.44,80.726 194.38,81.016 194.38,81.336 C194.38,81.744 194.476,82.09 194.668,82.374 C194.86,82.658 195.104,82.912 195.4,83.136 L195.4,83.136 L195.4,83.184 C195.04,83.376 194.734,83.62 194.482,83.916 C194.23,84.212 194.104,84.592 194.104,85.056 C194.104,85.368 194.17,85.652 194.302,85.908 C194.434,86.164 194.618,86.384 194.854,86.568 C195.09,86.752 195.37,86.894 195.694,86.994 C196.018,87.094 196.372,87.144 196.756,87.144 Z M197.236,82.56 C196.844,82.408 196.528,82.244 196.288,82.068 C196.048,81.892 195.928,81.648 195.928,81.336 C195.928,81.04 196.012,80.82 196.18,80.676 C196.348,80.532 196.548,80.46 196.78,80.46 C197.068,80.46 197.294,80.55 197.458,80.73 C197.622,80.91 197.704,81.148 197.704,81.444 C197.704,81.828 197.548,82.2 197.236,82.56 Z M196.792,85.92 C196.472,85.92 196.196,85.826 195.964,85.638 C195.732,85.45 195.616,85.188 195.616,84.852 C195.616,84.62 195.672,84.4 195.784,84.192 C195.896,83.984 196.036,83.8 196.204,83.64 C196.444,83.744 196.662,83.84 196.858,83.928 C197.054,84.016 197.224,84.11 197.368,84.21 C197.512,84.31 197.622,84.42 197.698,84.54 C197.774,84.66 197.812,84.804 197.812,84.972 C197.812,85.292 197.716,85.53 197.524,85.686 C197.332,85.842 197.088,85.92 196.792,85.92 Z M206.56,87 L206.56,80.664 L208.708,80.664 L208.708,79.176 L202.636,79.176 L202.636,80.664 L204.784,80.664 L204.784,87 L206.56,87 Z" id="NEWAGENCYFUNDING$2.58T" fill="#666666" fill-rule="nonzero"></path>
                    <path d="M321.958,18 L321.958,7.992 L325.36,7.992 L325.36,6.228 L316.468,6.228 L316.468,7.992 L319.87,7.992 L319.87,18 L321.958,18 Z M329.482,18.216 C330.034,18.216 330.565,18.114 331.075,17.91 C331.585,17.706 332.032,17.406 332.416,17.01 C332.8,16.614 333.109,16.128 333.343,15.552 C333.577,14.976 333.694,14.322 333.694,13.59 C333.694,12.858 333.577,12.204 333.343,11.628 C333.109,11.052 332.8,10.566 332.416,10.17 C332.032,9.774 331.585,9.471 331.075,9.261 C330.565,9.051 330.034,8.946 329.482,8.946 C328.93,8.946 328.402,9.051 327.898,9.261 C327.394,9.471 326.947,9.774 326.557,10.17 C326.167,10.566 325.858,11.052 325.63,11.628 C325.402,12.204 325.288,12.858 325.288,13.59 C325.288,14.322 325.402,14.976 325.63,15.552 C325.858,16.128 326.167,16.614 326.557,17.01 C326.947,17.406 327.394,17.706 327.898,17.91 C328.402,18.114 328.93,18.216 329.482,18.216 Z M329.482,16.524 C328.834,16.524 328.327,16.257 327.961,15.723 C327.595,15.189 327.412,14.478 327.412,13.59 C327.412,12.69 327.595,11.973 327.961,11.439 C328.327,10.905 328.834,10.638 329.482,10.638 C330.13,10.638 330.64,10.905 331.012,11.439 C331.384,11.973 331.57,12.69 331.57,13.59 C331.57,14.478 331.384,15.189 331.012,15.723 C330.64,16.257 330.13,16.524 329.482,16.524 Z M338.464,18.216 C338.812,18.216 339.139,18.183 339.445,18.117 C339.751,18.051 340.024,17.976 340.264,17.892 L340.264,17.892 L339.904,16.362 C339.772,16.422 339.625,16.47 339.463,16.506 C339.301,16.542 339.142,16.56 338.986,16.56 C338.158,16.56 337.744,16.044 337.744,15.012 L337.744,15.012 L337.744,10.8 L339.994,10.8 L339.994,9.162 L337.744,9.162 L337.744,6.75 L336.016,6.75 L335.764,9.162 L334.396,9.252 L334.396,10.8 L335.656,10.8 L335.656,15.012 C335.656,15.492 335.707,15.927 335.809,16.317 C335.911,16.707 336.073,17.043 336.295,17.325 C336.517,17.607 336.805,17.826 337.159,17.982 C337.513,18.138 337.948,18.216 338.464,18.216 Z M343.612,18.216 C344.14,18.216 344.629,18.102 345.079,17.874 C345.529,17.646 345.952,17.364 346.348,17.028 L346.348,17.028 L346.42,17.028 L346.564,18 L348.274,18 L348.274,12.762 C348.274,11.526 348.001,10.581 347.455,9.927 C346.909,9.273 346.084,8.946 344.98,8.946 C344.272,8.946 343.612,9.06 343,9.288 C342.388,9.516 341.836,9.786 341.344,10.098 L341.344,10.098 L342.1,11.484 C342.496,11.244 342.901,11.04 343.315,10.872 C343.729,10.704 344.152,10.62 344.584,10.62 C344.884,10.62 345.136,10.665 345.34,10.755 C345.544,10.845 345.709,10.971 345.835,11.133 C345.961,11.295 346.051,11.481 346.105,11.691 C346.159,11.901 346.192,12.12 346.204,12.348 C345.292,12.444 344.509,12.582 343.855,12.762 C343.201,12.942 342.661,13.164 342.235,13.428 C341.809,13.692 341.497,14.007 341.299,14.373 C341.101,14.739 341.002,15.156 341.002,15.624 C341.002,16.404 341.242,17.031 341.722,17.505 C342.202,17.979 342.832,18.216 343.612,18.216 Z M344.278,16.596 C343.906,16.596 343.6,16.506 343.36,16.326 C343.12,16.146 343,15.858 343,15.462 C343,15.246 343.054,15.042 343.162,14.85 C343.27,14.658 343.45,14.487 343.702,14.337 C343.954,14.187 344.284,14.052 344.692,13.932 C345.1,13.812 345.604,13.716 346.204,13.644 L346.204,13.644 L346.204,15.624 C345.868,15.936 345.553,16.176 345.259,16.344 C344.965,16.512 344.638,16.596 344.278,16.596 Z M352.774,18.216 C353.23,18.216 353.596,18.156 353.872,18.036 L353.872,18.036 L353.602,16.488 C353.518,16.512 353.455,16.524 353.413,16.524 L353.413,16.524 L353.278,16.524 C353.17,16.524 353.068,16.473 352.972,16.371 C352.876,16.269 352.828,16.092 352.828,15.84 L352.828,15.84 L352.828,5.292 L350.758,5.292 L350.758,15.732 C350.758,16.5 350.908,17.106 351.208,17.55 C351.508,17.994 352.03,18.216 352.774,18.216 Z M366.688,18 L366.688,16.236 L361.504,16.236 L361.504,12.762 L365.734,12.762 L365.734,10.998 L361.504,10.998 L361.504,7.992 L366.508,7.992 L366.508,6.228 L359.416,6.228 L359.416,18 L366.688,18 Z M371.386,18.216 C371.938,18.216 372.43,18.144 372.862,18 C373.294,17.856 373.654,17.661 373.942,17.415 C374.23,17.169 374.449,16.881 374.599,16.551 C374.749,16.221 374.824,15.864 374.824,15.48 C374.824,15.072 374.749,14.721 374.599,14.427 C374.449,14.133 374.251,13.884 374.005,13.68 C373.759,13.476 373.486,13.305 373.186,13.167 C372.886,13.029 372.586,12.906 372.286,12.798 C372.046,12.714 371.815,12.63 371.593,12.546 C371.371,12.462 371.176,12.372 371.008,12.276 C370.84,12.18 370.705,12.069 370.603,11.943 C370.501,11.817 370.45,11.664 370.45,11.484 C370.45,11.208 370.555,10.977 370.765,10.791 C370.975,10.605 371.302,10.512 371.746,10.512 C372.094,10.512 372.427,10.581 372.745,10.719 C373.063,10.857 373.378,11.04 373.69,11.268 L373.69,11.268 L374.644,10.008 C374.284,9.732 373.858,9.486 373.366,9.27 C372.874,9.054 372.322,8.946 371.71,8.946 C370.714,8.946 369.928,9.192 369.352,9.684 C368.776,10.176 368.488,10.812 368.488,11.592 C368.488,11.964 368.563,12.285 368.713,12.555 C368.863,12.825 369.055,13.062 369.289,13.266 C369.523,13.47 369.79,13.644 370.09,13.788 C370.39,13.932 370.684,14.058 370.972,14.166 C371.2,14.262 371.428,14.355 371.656,14.445 C371.884,14.535 372.088,14.634 372.268,14.742 C372.448,14.85 372.592,14.973 372.7,15.111 C372.808,15.249 372.862,15.408 372.862,15.588 C372.862,15.9 372.748,16.155 372.52,16.353 C372.292,16.551 371.938,16.65 371.458,16.65 C371.002,16.65 370.579,16.563 370.189,16.389 C369.799,16.215 369.406,15.972 369.01,15.66 L369.01,15.66 L368.038,16.992 C368.47,17.34 368.983,17.631 369.577,17.865 C370.171,18.099 370.774,18.216 371.386,18.216 Z M379.432,18.216 C379.78,18.216 380.107,18.183 380.413,18.117 C380.719,18.051 380.992,17.976 381.232,17.892 L381.232,17.892 L380.872,16.362 C380.74,16.422 380.593,16.47 380.431,16.506 C380.269,16.542 380.11,16.56 379.954,16.56 C379.126,16.56 378.712,16.044 378.712,15.012 L378.712,15.012 L378.712,10.8 L380.962,10.8 L380.962,9.162 L378.712,9.162 L378.712,6.75 L376.984,6.75 L376.732,9.162 L375.364,9.252 L375.364,10.8 L376.624,10.8 L376.624,15.012 C376.624,15.492 376.675,15.927 376.777,16.317 C376.879,16.707 377.041,17.043 377.263,17.325 C377.485,17.607 377.773,17.826 378.127,17.982 C378.481,18.138 378.916,18.216 379.432,18.216 Z M383.86,7.614 C384.232,7.614 384.538,7.506 384.778,7.29 C385.018,7.074 385.138,6.792 385.138,6.444 C385.138,6.096 385.018,5.811 384.778,5.589 C384.538,5.367 384.232,5.256 383.86,5.256 C383.488,5.256 383.182,5.367 382.942,5.589 C382.702,5.811 382.582,6.096 382.582,6.444 C382.582,6.792 382.702,7.074 382.942,7.29 C383.182,7.506 383.488,7.614 383.86,7.614 Z M384.886,18 L384.886,9.162 L382.816,9.162 L382.816,18 L384.886,18 Z M389.602,18 L389.602,11.826 C390.286,11.094 390.904,10.728 391.456,10.728 C391.924,10.728 392.269,10.878 392.491,11.178 C392.713,11.478 392.824,11.994 392.824,12.726 L392.824,12.726 L392.824,18 L394.894,18 L394.894,11.826 C395.578,11.094 396.196,10.728 396.748,10.728 C397.204,10.728 397.543,10.878 397.765,11.178 C397.987,11.478 398.098,11.994 398.098,12.726 L398.098,12.726 L398.098,18 L400.186,18 L400.186,12.456 C400.186,11.328 399.964,10.461 399.52,9.855 C399.076,9.249 398.386,8.946 397.45,8.946 C396.886,8.946 396.376,9.096 395.92,9.396 C395.464,9.696 395.026,10.074 394.606,10.53 C394.402,10.026 394.105,9.636 393.715,9.36 C393.325,9.084 392.806,8.946 392.158,8.946 C391.606,8.946 391.111,9.084 390.673,9.36 C390.235,9.636 389.83,9.972 389.458,10.368 L389.458,10.368 L389.386,10.368 L389.242,9.162 L387.532,9.162 L387.532,18 L389.602,18 Z M404.848,18.216 C405.376,18.216 405.865,18.102 406.315,17.874 C406.765,17.646 407.188,17.364 407.584,17.028 L407.584,17.028 L407.656,17.028 L407.8,18 L409.51,18 L409.51,12.762 C409.51,11.526 409.237,10.581 408.691,9.927 C408.145,9.273 407.32,8.946 406.216,8.946 C405.508,8.946 404.848,9.06 404.236,9.288 C403.624,9.516 403.072,9.786 402.58,10.098 L402.58,10.098 L403.336,11.484 C403.732,11.244 404.137,11.04 404.551,10.872 C404.965,10.704 405.388,10.62 405.82,10.62 C406.12,10.62 406.372,10.665 406.576,10.755 C406.78,10.845 406.945,10.971 407.071,11.133 C407.197,11.295 407.287,11.481 407.341,11.691 C407.395,11.901 407.428,12.12 407.44,12.348 C406.528,12.444 405.745,12.582 405.091,12.762 C404.437,12.942 403.897,13.164 403.471,13.428 C403.045,13.692 402.733,14.007 402.535,14.373 C402.337,14.739 402.238,15.156 402.238,15.624 C402.238,16.404 402.478,17.031 402.958,17.505 C403.438,17.979 404.068,18.216 404.848,18.216 Z M405.514,16.596 C405.142,16.596 404.836,16.506 404.596,16.326 C404.356,16.146 404.236,15.858 404.236,15.462 C404.236,15.246 404.29,15.042 404.398,14.85 C404.506,14.658 404.686,14.487 404.938,14.337 C405.19,14.187 405.52,14.052 405.928,13.932 C406.336,13.812 406.84,13.716 407.44,13.644 L407.44,13.644 L407.44,15.624 C407.104,15.936 406.789,16.176 406.495,16.344 C406.201,16.512 405.874,16.596 405.514,16.596 Z M414.82,18.216 C415.168,18.216 415.495,18.183 415.801,18.117 C416.107,18.051 416.38,17.976 416.62,17.892 L416.62,17.892 L416.26,16.362 C416.128,16.422 415.981,16.47 415.819,16.506 C415.657,16.542 415.498,16.56 415.342,16.56 C414.514,16.56 414.1,16.044 414.1,15.012 L414.1,15.012 L414.1,10.8 L416.35,10.8 L416.35,9.162 L414.1,9.162 L414.1,6.75 L412.372,6.75 L412.12,9.162 L410.752,9.252 L410.752,10.8 L412.012,10.8 L412.012,15.012 C412.012,15.492 412.063,15.927 412.165,16.317 C412.267,16.707 412.429,17.043 412.651,17.325 C412.873,17.607 413.161,17.826 413.515,17.982 C413.869,18.138 414.304,18.216 414.82,18.216 Z M421.696,18.216 C422.26,18.216 422.8,18.126 423.316,17.946 C423.832,17.766 424.3,17.538 424.72,17.262 L424.72,17.262 L424.018,15.966 C423.694,16.17 423.367,16.329 423.037,16.443 C422.707,16.557 422.35,16.614 421.966,16.614 C421.246,16.614 420.655,16.401 420.193,15.975 C419.731,15.549 419.452,14.94 419.356,14.148 L419.356,14.148 L424.972,14.148 C424.996,14.04 425.017,13.896 425.035,13.716 C425.053,13.536 425.062,13.344 425.062,13.14 C425.062,12.528 424.984,11.964 424.828,11.448 C424.672,10.932 424.441,10.488 424.135,10.116 C423.829,9.744 423.448,9.456 422.992,9.252 C422.536,9.048 422.008,8.946 421.408,8.946 C420.892,8.946 420.388,9.054 419.896,9.27 C419.404,9.486 418.969,9.792 418.591,10.188 C418.213,10.584 417.91,11.07 417.682,11.646 C417.454,12.222 417.34,12.87 417.34,13.59 C417.34,14.322 417.451,14.973 417.673,15.543 C417.895,16.113 418.204,16.596 418.6,16.992 C418.996,17.388 419.458,17.691 419.986,17.901 C420.514,18.111 421.084,18.216 421.696,18.216 Z M423.262,12.744 L419.338,12.744 C419.434,12.024 419.68,11.478 420.076,11.106 C420.472,10.734 420.934,10.548 421.462,10.548 C422.074,10.548 422.527,10.743 422.821,11.133 C423.115,11.523 423.262,12.06 423.262,12.744 L423.262,12.744 Z M430.138,18.216 C430.618,18.216 431.074,18.102 431.506,17.874 C431.938,17.646 432.316,17.37 432.64,17.046 L432.64,17.046 L432.712,17.046 L432.856,18 L434.566,18 L434.566,5.292 L432.496,5.292 L432.496,8.496 L432.568,9.918 C432.22,9.618 431.872,9.381 431.524,9.207 C431.176,9.033 430.75,8.946 430.246,8.946 C429.766,8.946 429.301,9.054 428.851,9.27 C428.401,9.486 428.002,9.792 427.654,10.188 C427.306,10.584 427.027,11.07 426.817,11.646 C426.607,12.222 426.502,12.87 426.502,13.59 C426.502,15.054 426.829,16.191 427.483,17.001 C428.137,17.811 429.022,18.216 430.138,18.216 Z M430.642,16.506 C429.994,16.506 429.499,16.257 429.157,15.759 C428.815,15.261 428.644,14.532 428.644,13.572 C428.644,12.636 428.842,11.916 429.238,11.412 C429.634,10.908 430.12,10.656 430.696,10.656 C430.996,10.656 431.293,10.71 431.587,10.818 C431.881,10.926 432.184,11.118 432.496,11.394 L432.496,11.394 L432.496,15.516 C431.92,16.176 431.302,16.506 430.642,16.506 Z M443.062,18 L443.062,13.086 L447.346,13.086 L447.346,11.322 L443.062,11.322 L443.062,7.992 L448.084,7.992 L448.084,6.228 L440.974,6.228 L440.974,18 L443.062,18 Z M451.018,7.614 C451.39,7.614 451.696,7.506 451.936,7.29 C452.176,7.074 452.296,6.792 452.296,6.444 C452.296,6.096 452.176,5.811 451.936,5.589 C451.696,5.367 451.39,5.256 451.018,5.256 C450.646,5.256 450.34,5.367 450.1,5.589 C449.86,5.811 449.74,6.096 449.74,6.444 C449.74,6.792 449.86,7.074 450.1,7.29 C450.34,7.506 450.646,7.614 451.018,7.614 Z M452.044,18 L452.044,9.162 L449.974,9.162 L449.974,18 L452.044,18 Z M456.76,18 L456.76,11.826 C457.132,11.466 457.465,11.193 457.759,11.007 C458.053,10.821 458.392,10.728 458.776,10.728 C459.268,10.728 459.622,10.878 459.838,11.178 C460.054,11.478 460.162,11.994 460.162,12.726 L460.162,12.726 L460.162,18 L462.232,18 L462.232,12.456 C462.232,11.328 462.016,10.461 461.584,9.855 C461.152,9.249 460.462,8.946 459.514,8.946 C458.902,8.946 458.365,9.084 457.903,9.36 C457.441,9.636 457.012,9.966 456.616,10.35 L456.616,10.35 L456.544,10.35 L456.4,9.162 L454.69,9.162 L454.69,18 L456.76,18 Z M466.912,18.216 C467.44,18.216 467.929,18.102 468.379,17.874 C468.829,17.646 469.252,17.364 469.648,17.028 L469.648,17.028 L469.72,17.028 L469.864,18 L471.574,18 L471.574,12.762 C471.574,11.526 471.301,10.581 470.755,9.927 C470.209,9.273 469.384,8.946 468.28,8.946 C467.572,8.946 466.912,9.06 466.3,9.288 C465.688,9.516 465.136,9.786 464.644,10.098 L464.644,10.098 L465.4,11.484 C465.796,11.244 466.201,11.04 466.615,10.872 C467.029,10.704 467.452,10.62 467.884,10.62 C468.184,10.62 468.436,10.665 468.64,10.755 C468.844,10.845 469.009,10.971 469.135,11.133 C469.261,11.295 469.351,11.481 469.405,11.691 C469.459,11.901 469.492,12.12 469.504,12.348 C468.592,12.444 467.809,12.582 467.155,12.762 C466.501,12.942 465.961,13.164 465.535,13.428 C465.109,13.692 464.797,14.007 464.599,14.373 C464.401,14.739 464.302,15.156 464.302,15.624 C464.302,16.404 464.542,17.031 465.022,17.505 C465.502,17.979 466.132,18.216 466.912,18.216 Z M467.578,16.596 C467.206,16.596 466.9,16.506 466.66,16.326 C466.42,16.146 466.3,15.858 466.3,15.462 C466.3,15.246 466.354,15.042 466.462,14.85 C466.57,14.658 466.75,14.487 467.002,14.337 C467.254,14.187 467.584,14.052 467.992,13.932 C468.4,13.812 468.904,13.716 469.504,13.644 L469.504,13.644 L469.504,15.624 C469.168,15.936 468.853,16.176 468.559,16.344 C468.265,16.512 467.938,16.596 467.578,16.596 Z M476.128,18 L476.128,11.826 C476.5,11.466 476.833,11.193 477.127,11.007 C477.421,10.821 477.76,10.728 478.144,10.728 C478.636,10.728 478.99,10.878 479.206,11.178 C479.422,11.478 479.53,11.994 479.53,12.726 L479.53,12.726 L479.53,18 L481.6,18 L481.6,12.456 C481.6,11.328 481.384,10.461 480.952,9.855 C480.52,9.249 479.83,8.946 478.882,8.946 C478.27,8.946 477.733,9.084 477.271,9.36 C476.809,9.636 476.38,9.966 475.984,10.35 L475.984,10.35 L475.912,10.35 L475.768,9.162 L474.058,9.162 L474.058,18 L476.128,18 Z M487.828,18.216 C488.332,18.216 488.833,18.126 489.331,17.946 C489.829,17.766 490.288,17.496 490.708,17.136 L490.708,17.136 L489.862,15.768 C489.61,15.972 489.331,16.149 489.025,16.299 C488.719,16.449 488.392,16.524 488.044,16.524 C487.348,16.524 486.781,16.257 486.343,15.723 C485.905,15.189 485.686,14.478 485.686,13.59 C485.686,12.69 485.908,11.973 486.352,11.439 C486.796,10.905 487.378,10.638 488.098,10.638 C488.374,10.638 488.629,10.695 488.863,10.809 C489.097,10.923 489.334,11.082 489.574,11.286 L489.574,11.286 L490.582,9.936 C490.258,9.66 489.889,9.426 489.475,9.234 C489.061,9.042 488.566,8.946 487.99,8.946 C487.402,8.946 486.841,9.051 486.307,9.261 C485.773,9.471 485.302,9.774 484.894,10.17 C484.486,10.566 484.162,11.052 483.922,11.628 C483.682,12.204 483.562,12.858 483.562,13.59 C483.562,14.322 483.67,14.976 483.886,15.552 C484.102,16.128 484.402,16.614 484.786,17.01 C485.17,17.406 485.623,17.706 486.145,17.91 C486.667,18.114 487.228,18.216 487.828,18.216 Z M493.498,7.614 C493.87,7.614 494.176,7.506 494.416,7.29 C494.656,7.074 494.776,6.792 494.776,6.444 C494.776,6.096 494.656,5.811 494.416,5.589 C494.176,5.367 493.87,5.256 493.498,5.256 C493.126,5.256 492.82,5.367 492.58,5.589 C492.34,5.811 492.22,6.096 492.22,6.444 C492.22,6.792 492.34,7.074 492.58,7.29 C492.82,7.506 493.126,7.614 493.498,7.614 Z M494.524,18 L494.524,9.162 L492.454,9.162 L492.454,18 L494.524,18 Z M499.312,18.216 C499.84,18.216 500.329,18.102 500.779,17.874 C501.229,17.646 501.652,17.364 502.048,17.028 L502.048,17.028 L502.12,17.028 L502.264,18 L503.974,18 L503.974,12.762 C503.974,11.526 503.701,10.581 503.155,9.927 C502.609,9.273 501.784,8.946 500.68,8.946 C499.972,8.946 499.312,9.06 498.7,9.288 C498.088,9.516 497.536,9.786 497.044,10.098 L497.044,10.098 L497.8,11.484 C498.196,11.244 498.601,11.04 499.015,10.872 C499.429,10.704 499.852,10.62 500.284,10.62 C500.584,10.62 500.836,10.665 501.04,10.755 C501.244,10.845 501.409,10.971 501.535,11.133 C501.661,11.295 501.751,11.481 501.805,11.691 C501.859,11.901 501.892,12.12 501.904,12.348 C500.992,12.444 500.209,12.582 499.555,12.762 C498.901,12.942 498.361,13.164 497.935,13.428 C497.509,13.692 497.197,14.007 496.999,14.373 C496.801,14.739 496.702,15.156 496.702,15.624 C496.702,16.404 496.942,17.031 497.422,17.505 C497.902,17.979 498.532,18.216 499.312,18.216 Z M499.978,16.596 C499.606,16.596 499.3,16.506 499.06,16.326 C498.82,16.146 498.7,15.858 498.7,15.462 C498.7,15.246 498.754,15.042 498.862,14.85 C498.97,14.658 499.15,14.487 499.402,14.337 C499.654,14.187 499.984,14.052 500.392,13.932 C500.8,13.812 501.304,13.716 501.904,13.644 L501.904,13.644 L501.904,15.624 C501.568,15.936 501.253,16.176 500.959,16.344 C500.665,16.512 500.338,16.596 499.978,16.596 Z M508.474,18.216 C508.93,18.216 509.296,18.156 509.572,18.036 L509.572,18.036 L509.302,16.488 C509.218,16.512 509.155,16.524 509.113,16.524 L509.113,16.524 L508.978,16.524 C508.87,16.524 508.768,16.473 508.672,16.371 C508.576,16.269 508.528,16.092 508.528,15.84 L508.528,15.84 L508.528,5.292 L506.458,5.292 L506.458,15.732 C506.458,16.5 506.608,17.106 506.908,17.55 C507.208,17.994 507.73,18.216 508.474,18.216 Z M517.204,18 L517.204,13.392 L519.004,13.392 L521.542,18 L523.882,18 L521.074,13.086 C521.782,12.846 522.349,12.45 522.775,11.898 C523.201,11.346 523.414,10.62 523.414,9.72 C523.414,9.06 523.303,8.508 523.081,8.064 C522.859,7.62 522.556,7.263 522.172,6.993 C521.788,6.723 521.332,6.528 520.804,6.408 C520.276,6.288 519.706,6.228 519.094,6.228 L519.094,6.228 L515.116,6.228 L515.116,18 L517.204,18 Z M518.878,11.736 L517.204,11.736 L517.204,7.902 L518.878,7.902 C519.682,7.902 520.297,8.034 520.723,8.298 C521.149,8.562 521.362,9.036 521.362,9.72 C521.362,10.392 521.149,10.896 520.723,11.232 C520.297,11.568 519.682,11.736 518.878,11.736 L518.878,11.736 Z M529.192,18.216 C529.756,18.216 530.296,18.126 530.812,17.946 C531.328,17.766 531.796,17.538 532.216,17.262 L532.216,17.262 L531.514,15.966 C531.19,16.17 530.863,16.329 530.533,16.443 C530.203,16.557 529.846,16.614 529.462,16.614 C528.742,16.614 528.151,16.401 527.689,15.975 C527.227,15.549 526.948,14.94 526.852,14.148 L526.852,14.148 L532.468,14.148 C532.492,14.04 532.513,13.896 532.531,13.716 C532.549,13.536 532.558,13.344 532.558,13.14 C532.558,12.528 532.48,11.964 532.324,11.448 C532.168,10.932 531.937,10.488 531.631,10.116 C531.325,9.744 530.944,9.456 530.488,9.252 C530.032,9.048 529.504,8.946 528.904,8.946 C528.388,8.946 527.884,9.054 527.392,9.27 C526.9,9.486 526.465,9.792 526.087,10.188 C525.709,10.584 525.406,11.07 525.178,11.646 C524.95,12.222 524.836,12.87 524.836,13.59 C524.836,14.322 524.947,14.973 525.169,15.543 C525.391,16.113 525.7,16.596 526.096,16.992 C526.492,17.388 526.954,17.691 527.482,17.901 C528.01,18.111 528.58,18.216 529.192,18.216 Z M530.758,12.744 L526.834,12.744 C526.93,12.024 527.176,11.478 527.572,11.106 C527.968,10.734 528.43,10.548 528.958,10.548 C529.57,10.548 530.023,10.743 530.317,11.133 C530.611,11.523 530.758,12.06 530.758,12.744 L530.758,12.744 Z M536.554,18.216 C537.01,18.216 537.376,18.156 537.652,18.036 L537.652,18.036 L537.382,16.488 C537.298,16.512 537.235,16.524 537.193,16.524 L537.193,16.524 L537.058,16.524 C536.95,16.524 536.848,16.473 536.752,16.371 C536.656,16.269 536.608,16.092 536.608,15.84 L536.608,15.84 L536.608,5.292 L534.538,5.292 L534.538,15.732 C534.538,16.5 534.688,17.106 534.988,17.55 C535.288,17.994 535.81,18.216 536.554,18.216 Z M540.46,7.614 C540.832,7.614 541.138,7.506 541.378,7.29 C541.618,7.074 541.738,6.792 541.738,6.444 C541.738,6.096 541.618,5.811 541.378,5.589 C541.138,5.367 540.832,5.256 540.46,5.256 C540.088,5.256 539.782,5.367 539.542,5.589 C539.302,5.811 539.182,6.096 539.182,6.444 C539.182,6.792 539.302,7.074 539.542,7.29 C539.782,7.506 540.088,7.614 540.46,7.614 Z M541.486,18 L541.486,9.162 L539.416,9.162 L539.416,18 L541.486,18 Z M547.912,18.216 C548.476,18.216 549.016,18.126 549.532,17.946 C550.048,17.766 550.516,17.538 550.936,17.262 L550.936,17.262 L550.234,15.966 C549.91,16.17 549.583,16.329 549.253,16.443 C548.923,16.557 548.566,16.614 548.182,16.614 C547.462,16.614 546.871,16.401 546.409,15.975 C545.947,15.549 545.668,14.94 545.572,14.148 L545.572,14.148 L551.188,14.148 C551.212,14.04 551.233,13.896 551.251,13.716 C551.269,13.536 551.278,13.344 551.278,13.14 C551.278,12.528 551.2,11.964 551.044,11.448 C550.888,10.932 550.657,10.488 550.351,10.116 C550.045,9.744 549.664,9.456 549.208,9.252 C548.752,9.048 548.224,8.946 547.624,8.946 C547.108,8.946 546.604,9.054 546.112,9.27 C545.62,9.486 545.185,9.792 544.807,10.188 C544.429,10.584 544.126,11.07 543.898,11.646 C543.67,12.222 543.556,12.87 543.556,13.59 C543.556,14.322 543.667,14.973 543.889,15.543 C544.111,16.113 544.42,16.596 544.816,16.992 C545.212,17.388 545.674,17.691 546.202,17.901 C546.73,18.111 547.3,18.216 547.912,18.216 Z M549.478,12.744 L545.554,12.744 C545.65,12.024 545.896,11.478 546.292,11.106 C546.688,10.734 547.15,10.548 547.678,10.548 C548.29,10.548 548.743,10.743 549.037,11.133 C549.331,11.523 549.478,12.06 549.478,12.744 L549.478,12.744 Z M555.616,18 L555.616,10.8 L557.344,10.8 L557.344,9.162 L555.616,9.162 L555.616,8.208 C555.616,7.212 555.988,6.714 556.732,6.714 C557.056,6.714 557.38,6.786 557.704,6.93 L557.704,6.93 L558.1,5.382 C557.896,5.298 557.653,5.226 557.371,5.166 C557.089,5.106 556.792,5.076 556.48,5.076 C555.952,5.076 555.505,5.154 555.139,5.31 C554.773,5.466 554.47,5.685 554.23,5.967 C553.99,6.249 553.816,6.585 553.708,6.975 C553.6,7.365 553.546,7.788 553.546,8.244 L553.546,8.244 L553.546,9.162 L552.358,9.252 L552.358,10.8 L553.546,10.8 L553.546,18 L555.616,18 Z M566.542,19.98 L566.542,18.126 C567.442,17.958 568.132,17.583 568.612,17.001 C569.092,16.419 569.332,15.696 569.332,14.832 C569.332,14.232 569.212,13.731 568.972,13.329 C568.732,12.927 568.429,12.588 568.063,12.312 C567.697,12.036 567.304,11.799 566.884,11.601 C566.464,11.403 566.071,11.205 565.705,11.007 C565.339,10.809 565.036,10.593 564.796,10.359 C564.556,10.125 564.436,9.828 564.436,9.468 C564.436,9 564.574,8.643 564.85,8.397 C565.126,8.151 565.51,8.028 566.002,8.028 C566.434,8.028 566.806,8.109 567.118,8.271 C567.43,8.433 567.754,8.67 568.09,8.982 L568.09,8.982 L569.152,7.776 C568.816,7.428 568.441,7.125 568.027,6.867 C567.613,6.609 567.118,6.444 566.542,6.372 L566.542,6.372 L566.542,4.572 L565.102,4.572 L565.102,6.408 C564.286,6.552 563.638,6.903 563.158,7.461 C562.678,8.019 562.438,8.718 562.438,9.558 C562.438,10.122 562.558,10.593 562.798,10.971 C563.038,11.349 563.341,11.673 563.707,11.943 C564.073,12.213 564.466,12.447 564.886,12.645 C565.306,12.843 565.699,13.05 566.065,13.266 C566.431,13.482 566.734,13.722 566.974,13.986 C567.214,14.25 567.334,14.58 567.334,14.976 C567.334,15.468 567.19,15.849 566.902,16.119 C566.614,16.389 566.176,16.524 565.588,16.524 C565.096,16.524 564.634,16.422 564.202,16.218 C563.77,16.014 563.344,15.744 562.924,15.408 L562.924,15.408 L561.988,16.812 C562.396,17.196 562.879,17.505 563.437,17.739 C563.995,17.973 564.55,18.12 565.102,18.18 L565.102,18.18 L565.102,19.98 L566.542,19.98 Z M575.362,18.216 C575.854,18.216 576.319,18.126 576.757,17.946 C577.195,17.766 577.576,17.514 577.9,17.19 C578.224,16.866 578.482,16.473 578.674,16.011 C578.866,15.549 578.962,15.03 578.962,14.454 C578.962,13.854 578.881,13.332 578.719,12.888 C578.557,12.444 578.329,12.075 578.035,11.781 C577.741,11.487 577.387,11.268 576.973,11.124 C576.559,10.98 576.106,10.908 575.614,10.908 C575.194,10.908 574.759,11.028 574.309,11.268 C573.859,11.508 573.466,11.838 573.13,12.258 C573.154,11.466 573.241,10.8 573.391,10.26 C573.541,9.72 573.736,9.285 573.976,8.955 C574.216,8.625 574.495,8.388 574.813,8.244 C575.131,8.1 575.47,8.028 575.83,8.028 C576.178,8.028 576.517,8.109 576.847,8.271 C577.177,8.433 577.444,8.64 577.648,8.892 L577.648,8.892 L578.764,7.632 C578.416,7.272 577.993,6.966 577.495,6.714 C576.997,6.462 576.4,6.336 575.704,6.336 C575.116,6.336 574.552,6.456 574.012,6.696 C573.472,6.936 572.995,7.308 572.581,7.812 C572.167,8.316 571.834,8.964 571.582,9.756 C571.33,10.548 571.204,11.502 571.204,12.618 C571.204,13.578 571.315,14.412 571.537,15.12 C571.759,15.828 572.059,16.41 572.437,16.866 C572.815,17.322 573.256,17.661 573.76,17.883 C574.264,18.105 574.798,18.216 575.362,18.216 Z M575.326,16.632 C574.762,16.632 574.291,16.404 573.913,15.948 C573.535,15.492 573.292,14.754 573.184,13.734 C573.508,13.254 573.85,12.915 574.21,12.717 C574.57,12.519 574.912,12.42 575.236,12.42 C575.812,12.42 576.256,12.588 576.568,12.924 C576.88,13.26 577.036,13.77 577.036,14.454 C577.036,15.162 576.871,15.702 576.541,16.074 C576.211,16.446 575.806,16.632 575.326,16.632 Z M582.13,18.216 C582.514,18.216 582.832,18.084 583.084,17.82 C583.336,17.556 583.462,17.22 583.462,16.812 C583.462,16.404 583.336,16.068 583.084,15.804 C582.832,15.54 582.514,15.408 582.13,15.408 C581.746,15.408 581.425,15.54 581.167,15.804 C580.909,16.068 580.78,16.404 580.78,16.812 C580.78,17.22 580.909,17.556 581.167,17.82 C581.425,18.084 581.746,18.216 582.13,18.216 Z M592.822,18 L592.822,16.308 L590.572,16.308 L590.572,6.552 L589.024,6.552 C588.664,6.768 588.277,6.951 587.863,7.101 C587.449,7.251 586.954,7.38 586.378,7.488 L586.378,7.488 L586.378,8.784 L588.484,8.784 L588.484,16.308 L585.928,16.308 L585.928,18 L592.822,18 Z M598.78,18.216 C599.272,18.216 599.737,18.126 600.175,17.946 C600.613,17.766 600.994,17.514 601.318,17.19 C601.642,16.866 601.9,16.473 602.092,16.011 C602.284,15.549 602.38,15.03 602.38,14.454 C602.38,13.854 602.299,13.332 602.137,12.888 C601.975,12.444 601.747,12.075 601.453,11.781 C601.159,11.487 600.805,11.268 600.391,11.124 C599.977,10.98 599.524,10.908 599.032,10.908 C598.612,10.908 598.177,11.028 597.727,11.268 C597.277,11.508 596.884,11.838 596.548,12.258 C596.572,11.466 596.659,10.8 596.809,10.26 C596.959,9.72 597.154,9.285 597.394,8.955 C597.634,8.625 597.913,8.388 598.231,8.244 C598.549,8.1 598.888,8.028 599.248,8.028 C599.596,8.028 599.935,8.109 600.265,8.271 C600.595,8.433 600.862,8.64 601.066,8.892 L601.066,8.892 L602.182,7.632 C601.834,7.272 601.411,6.966 600.913,6.714 C600.415,6.462 599.818,6.336 599.122,6.336 C598.534,6.336 597.97,6.456 597.43,6.696 C596.89,6.936 596.413,7.308 595.999,7.812 C595.585,8.316 595.252,8.964 595,9.756 C594.748,10.548 594.622,11.502 594.622,12.618 C594.622,13.578 594.733,14.412 594.955,15.12 C595.177,15.828 595.477,16.41 595.855,16.866 C596.233,17.322 596.674,17.661 597.178,17.883 C597.682,18.105 598.216,18.216 598.78,18.216 Z M598.744,16.632 C598.18,16.632 597.709,16.404 597.331,15.948 C596.953,15.492 596.71,14.754 596.602,13.734 C596.926,13.254 597.268,12.915 597.628,12.717 C597.988,12.519 598.33,12.42 598.654,12.42 C599.23,12.42 599.674,12.588 599.986,12.924 C600.298,13.26 600.454,13.77 600.454,14.454 C600.454,15.162 600.289,15.702 599.959,16.074 C599.629,16.446 599.224,16.632 598.744,16.632 Z M612.622,18 L612.622,7.992 L616.024,7.992 L616.024,6.228 L607.132,6.228 L607.132,7.992 L610.534,7.992 L610.534,18 L612.622,18 Z" id="TotalEstimatedFinancialRelief$6.16T" fill="#666666" fill-rule="nonzero"></path>
                    <path d="M4.54747351e-13,105 L4.54747351e-13,41 L942,41 L942,105" id="Path-21" stroke="#D8D8D8" stroke-dasharray="3,3"></path>
                    <path d="M430.982,72 L430.982,64.968 L433.358,64.968 L433.358,64.128 L427.598,64.128 L427.598,64.968 L429.974,64.968 L429.974,72 L430.982,72 Z M434.27,72 L435.026,69.6 L437.894,69.6 L438.638,72 L439.706,72 L437.042,64.128 L435.914,64.128 L433.25,72 L434.27,72 Z M437.642,68.796 L435.278,68.796 L435.65,67.596 C435.794,67.156 435.93,66.718 436.058,66.282 C436.186,65.846 436.31,65.4 436.43,64.944 L436.43,64.944 L436.478,64.944 C436.606,65.4 436.734,65.846 436.862,66.282 C436.99,66.718 437.126,67.156 437.27,67.596 L437.27,67.596 L437.642,68.796 Z M441.026,72 L442.166,69.876 C442.262,69.684 442.362,69.486 442.466,69.282 C442.57,69.078 442.678,68.856 442.79,68.616 L442.79,68.616 L442.838,68.616 C442.966,68.856 443.084,69.078 443.192,69.282 C443.3,69.486 443.406,69.684 443.51,69.876 L443.51,69.876 L444.662,72 L445.766,72 L443.474,67.98 L445.622,64.128 L444.566,64.128 L443.522,66.144 C443.426,66.328 443.336,66.506 443.252,66.678 C443.168,66.85 443.07,67.052 442.958,67.284 L442.958,67.284 L442.91,67.284 C442.79,67.052 442.684,66.85 442.592,66.678 C442.5,66.506 442.402,66.328 442.298,66.144 L442.298,66.144 L441.23,64.128 L440.126,64.128 L442.262,67.932 L439.97,72 L441.026,72 Z M450.422,72 L450.422,68.676 L451.85,68.676 L453.746,72 L454.874,72 L452.87,68.568 C453.414,68.432 453.846,68.18 454.166,67.812 C454.486,67.444 454.646,66.952 454.646,66.336 C454.646,65.928 454.578,65.584 454.442,65.304 C454.306,65.024 454.116,64.796 453.872,64.62 C453.628,64.444 453.336,64.318 452.996,64.242 C452.656,64.166 452.286,64.128 451.886,64.128 L451.886,64.128 L449.426,64.128 L449.426,72 L450.422,72 Z M451.742,67.86 L450.422,67.86 L450.422,64.932 L451.742,64.932 C452.358,64.932 452.83,65.036 453.158,65.244 C453.486,65.452 453.65,65.816 453.65,66.336 C453.65,66.848 453.486,67.23 453.158,67.482 C452.83,67.734 452.358,67.86 451.742,67.86 L451.742,67.86 Z M460.91,72 L460.91,71.148 L457.25,71.148 L457.25,68.292 L460.238,68.292 L460.238,67.44 L457.25,67.44 L457.25,64.968 L460.79,64.968 L460.79,64.128 L456.254,64.128 L456.254,72 L460.91,72 Z M467.018,72 L467.018,71.148 L463.574,71.148 L463.574,64.128 L462.578,64.128 L462.578,72 L467.018,72 Z M469.406,72 L469.406,64.128 L468.41,64.128 L468.41,72 L469.406,72 Z M476.222,72 L476.222,71.148 L472.562,71.148 L472.562,68.292 L475.55,68.292 L475.55,67.44 L472.562,67.44 L472.562,64.968 L476.102,64.968 L476.102,64.128 L471.566,64.128 L471.566,72 L476.222,72 Z M478.886,72 L478.886,68.472 L481.886,68.472 L481.886,67.632 L478.886,67.632 L478.886,64.968 L482.426,64.968 L482.426,64.128 L477.89,64.128 L477.89,72 L478.886,72 Z M441.242,88.32 L441.242,87.072 C441.866,86.936 442.334,86.662 442.646,86.25 C442.958,85.838 443.114,85.344 443.114,84.768 C443.114,84.384 443.036,84.062 442.88,83.802 C442.724,83.542 442.528,83.32 442.292,83.136 C442.056,82.952 441.802,82.796 441.53,82.668 C441.258,82.54 441.004,82.416 440.768,82.296 C440.532,82.176 440.336,82.05 440.18,81.918 C440.024,81.786 439.946,81.624 439.946,81.432 C439.946,81.16 440.022,80.964 440.174,80.844 C440.326,80.724 440.546,80.664 440.834,80.664 C441.09,80.664 441.318,80.714 441.518,80.814 C441.718,80.914 441.926,81.064 442.142,81.264 L442.142,81.264 L443.03,80.256 C442.798,80.008 442.538,79.796 442.25,79.62 C441.962,79.444 441.626,79.328 441.242,79.272 L441.242,79.272 L441.242,78.06 L440.078,78.06 L440.078,79.296 C439.51,79.408 439.064,79.658 438.74,80.046 C438.416,80.434 438.254,80.924 438.254,81.516 C438.254,81.876 438.332,82.18 438.488,82.428 C438.644,82.676 438.84,82.892 439.076,83.076 C439.312,83.26 439.566,83.418 439.838,83.55 C440.11,83.682 440.364,83.814 440.6,83.946 C440.836,84.078 441.032,84.216 441.188,84.36 C441.344,84.504 441.422,84.68 441.422,84.888 C441.422,85.168 441.344,85.376 441.188,85.512 C441.032,85.648 440.786,85.716 440.45,85.716 C440.162,85.716 439.88,85.658 439.604,85.542 C439.328,85.426 439.038,85.252 438.734,85.02 L438.734,85.02 L437.966,86.208 C438.246,86.464 438.58,86.67 438.968,86.826 C439.356,86.982 439.726,87.08 440.078,87.12 L440.078,87.12 L440.078,88.32 L441.242,88.32 Z M446.582,87.144 C446.982,87.144 447.368,87.062 447.74,86.898 C448.112,86.734 448.44,86.484 448.724,86.148 C449.008,85.812 449.236,85.384 449.408,84.864 C449.58,84.344 449.666,83.728 449.666,83.016 C449.666,82.344 449.584,81.77 449.42,81.294 C449.256,80.818 449.04,80.428 448.772,80.124 C448.504,79.82 448.196,79.596 447.848,79.452 C447.5,79.308 447.142,79.236 446.774,79.236 C446.43,79.236 446.104,79.294 445.796,79.41 C445.488,79.526 445.22,79.696 444.992,79.92 C444.764,80.144 444.582,80.414 444.446,80.73 C444.31,81.046 444.242,81.4 444.242,81.792 C444.242,82.192 444.3,82.54 444.416,82.836 C444.532,83.132 444.69,83.376 444.89,83.568 C445.09,83.76 445.328,83.904 445.604,84 C445.88,84.096 446.182,84.144 446.51,84.144 C446.63,84.144 446.758,84.126 446.894,84.09 C447.03,84.054 447.166,84.002 447.302,83.934 C447.438,83.866 447.57,83.782 447.698,83.682 C447.826,83.582 447.938,83.468 448.034,83.34 C448.018,83.788 447.968,84.162 447.884,84.462 C447.8,84.762 447.688,85.006 447.548,85.194 C447.408,85.382 447.246,85.516 447.062,85.596 C446.878,85.676 446.678,85.716 446.462,85.716 C446.238,85.716 446.018,85.662 445.802,85.554 C445.586,85.446 445.414,85.32 445.286,85.176 L445.286,85.176 L444.35,86.232 C444.59,86.472 444.896,86.684 445.268,86.868 C445.64,87.052 446.078,87.144 446.582,87.144 Z M446.858,82.896 C446.57,82.896 446.33,82.814 446.138,82.65 C445.946,82.486 445.85,82.2 445.85,81.792 C445.85,81.36 445.946,81.046 446.138,80.85 C446.33,80.654 446.554,80.556 446.81,80.556 C447.082,80.556 447.328,80.67 447.548,80.898 C447.768,81.126 447.918,81.54 447.998,82.14 C447.846,82.412 447.668,82.606 447.464,82.722 C447.26,82.838 447.058,82.896 446.858,82.896 Z M453.338,87.144 C453.746,87.144 454.118,87.058 454.454,86.886 C454.79,86.714 455.076,86.46 455.312,86.124 C455.548,85.788 455.732,85.372 455.864,84.876 C455.996,84.38 456.062,83.808 456.062,83.16 C456.062,82.512 455.996,81.944 455.864,81.456 C455.732,80.968 455.548,80.558 455.312,80.226 C455.076,79.894 454.79,79.646 454.454,79.482 C454.118,79.318 453.746,79.236 453.338,79.236 C452.93,79.236 452.558,79.318 452.222,79.482 C451.886,79.646 451.6,79.894 451.364,80.226 C451.128,80.558 450.944,80.968 450.812,81.456 C450.68,81.944 450.614,82.512 450.614,83.16 C450.614,83.808 450.68,84.38 450.812,84.876 C450.944,85.372 451.128,85.788 451.364,86.124 C451.6,86.46 451.886,86.714 452.222,86.886 C452.558,87.058 452.93,87.144 453.338,87.144 Z M453.338,85.776 C453.194,85.776 453.058,85.738 452.93,85.662 C452.802,85.586 452.69,85.448 452.594,85.248 C452.498,85.048 452.422,84.78 452.366,84.444 C452.31,84.108 452.282,83.68 452.282,83.16 C452.282,82.64 452.31,82.214 452.366,81.882 C452.422,81.55 452.498,81.29 452.594,81.102 C452.69,80.914 452.802,80.784 452.93,80.712 C453.058,80.64 453.194,80.604 453.338,80.604 C453.49,80.604 453.63,80.64 453.758,80.712 C453.886,80.784 453.998,80.914 454.094,81.102 C454.19,81.29 454.264,81.55 454.316,81.882 C454.368,82.214 454.394,82.64 454.394,83.16 C454.394,83.68 454.368,84.108 454.316,84.444 C454.264,84.78 454.19,85.048 454.094,85.248 C453.998,85.448 453.886,85.586 453.758,85.662 C453.63,85.738 453.49,85.776 453.338,85.776 Z M462.314,87 L462.314,85.512 L460.778,85.512 C460.594,85.512 460.384,85.522 460.148,85.542 C459.912,85.562 459.698,85.584 459.506,85.608 C459.818,85.288 460.12,84.962 460.412,84.63 C460.704,84.298 460.964,83.966 461.192,83.634 C461.42,83.302 461.602,82.97 461.738,82.638 C461.874,82.306 461.942,81.98 461.942,81.66 C461.942,81.292 461.882,80.96 461.762,80.664 C461.642,80.368 461.47,80.114 461.246,79.902 C461.022,79.69 460.756,79.526 460.448,79.41 C460.14,79.294 459.798,79.236 459.422,79.236 C458.878,79.236 458.41,79.338 458.018,79.542 C457.626,79.746 457.242,80.048 456.866,80.448 L456.866,80.448 L457.826,81.396 C458.018,81.188 458.222,81.006 458.438,80.85 C458.654,80.694 458.902,80.616 459.182,80.616 C459.518,80.616 459.782,80.714 459.974,80.91 C460.166,81.106 460.262,81.392 460.262,81.768 C460.262,82.04 460.18,82.326 460.016,82.626 C459.852,82.926 459.624,83.25 459.332,83.598 C459.04,83.946 458.692,84.318 458.288,84.714 C457.884,85.11 457.438,85.536 456.95,85.992 L456.95,85.992 L456.95,87 L462.314,87 Z M469.07,87 C469.494,87 469.89,86.954 470.258,86.862 C470.626,86.77 470.948,86.63 471.224,86.442 C471.5,86.254 471.716,86.016 471.872,85.728 C472.028,85.44 472.106,85.096 472.106,84.696 C472.106,84.432 472.07,84.198 471.998,83.994 C471.926,83.79 471.826,83.612 471.698,83.46 C471.57,83.308 471.422,83.182 471.254,83.082 C471.086,82.982 470.902,82.908 470.702,82.86 L470.702,82.86 L470.702,82.812 C470.862,82.756 471.004,82.668 471.128,82.548 C471.252,82.428 471.358,82.292 471.446,82.14 C471.534,81.988 471.602,81.824 471.65,81.648 C471.698,81.472 471.722,81.296 471.722,81.12 C471.722,80.744 471.648,80.432 471.5,80.184 C471.352,79.936 471.148,79.736 470.888,79.584 C470.628,79.432 470.324,79.326 469.976,79.266 C469.628,79.206 469.25,79.176 468.842,79.176 L468.842,79.176 L466.166,79.176 L466.166,87 L469.07,87 Z M468.758,82.308 L467.93,82.308 L467.93,80.544 L468.77,80.544 C469.186,80.544 469.494,80.608 469.694,80.736 C469.894,80.864 469.994,81.08 469.994,81.384 C469.994,81.664 469.896,81.888 469.7,82.056 C469.504,82.224 469.19,82.308 468.758,82.308 L468.758,82.308 Z M468.926,85.632 L467.93,85.632 L467.93,83.616 L468.926,83.616 C469.414,83.616 469.778,83.69 470.018,83.838 C470.258,83.986 470.378,84.232 470.378,84.576 C470.378,85.28 469.894,85.632 468.926,85.632 L468.926,85.632 Z" id="TAXRELIEF$902B" fill="#666666" fill-rule="nonzero"></path>
                    <path d="M686.92,72 L686.92,68.88 L688.216,68.88 C688.648,68.88 689.042,68.83 689.398,68.73 C689.754,68.63 690.06,68.48 690.316,68.28 C690.572,68.08 690.77,67.828 690.91,67.524 C691.05,67.22 691.12,66.86 691.12,66.444 C691.12,66.012 691.048,65.648 690.904,65.352 C690.76,65.056 690.56,64.818 690.304,64.638 C690.048,64.458 689.738,64.328 689.374,64.248 C689.01,64.168 688.608,64.128 688.168,64.128 L688.168,64.128 L685.924,64.128 L685.924,72 L686.92,72 Z M688.096,68.064 L686.92,68.064 L686.92,64.932 L688.048,64.932 C688.736,64.932 689.254,65.042 689.602,65.262 C689.95,65.482 690.124,65.876 690.124,66.444 C690.124,67.004 689.958,67.414 689.626,67.674 C689.294,67.934 688.784,68.064 688.096,68.064 L688.096,68.064 Z M695.62,72.144 C696.116,72.144 696.57,72.048 696.982,71.856 C697.394,71.664 697.75,71.39 698.05,71.034 C698.35,70.678 698.582,70.246 698.746,69.738 C698.91,69.23 698.992,68.66 698.992,68.028 C698.992,67.404 698.91,66.842 698.746,66.342 C698.582,65.842 698.35,65.418 698.05,65.07 C697.75,64.722 697.394,64.454 696.982,64.266 C696.57,64.078 696.116,63.984 695.62,63.984 C695.124,63.984 694.67,64.076 694.258,64.26 C693.846,64.444 693.492,64.71 693.196,65.058 C692.9,65.406 692.67,65.83 692.506,66.33 C692.342,66.83 692.26,67.396 692.26,68.028 C692.26,68.66 692.342,69.23 692.506,69.738 C692.67,70.246 692.9,70.678 693.196,71.034 C693.492,71.39 693.846,71.664 694.258,71.856 C694.67,72.048 695.124,72.144 695.62,72.144 Z M695.62,71.268 C695.268,71.268 694.95,71.192 694.666,71.04 C694.382,70.888 694.138,70.67 693.934,70.386 C693.73,70.102 693.572,69.762 693.46,69.366 C693.348,68.97 693.292,68.524 693.292,68.028 C693.292,67.54 693.348,67.1 693.46,66.708 C693.572,66.316 693.73,65.984 693.934,65.712 C694.138,65.44 694.382,65.23 694.666,65.082 C694.95,64.934 695.268,64.86 695.62,64.86 C695.972,64.86 696.29,64.934 696.574,65.082 C696.858,65.23 697.102,65.44 697.306,65.712 C697.51,65.984 697.668,66.316 697.78,66.708 C697.892,67.1 697.948,67.54 697.948,68.028 C697.948,68.524 697.892,68.97 697.78,69.366 C697.668,69.762 697.51,70.102 697.306,70.386 C697.102,70.67 696.858,70.888 696.574,71.04 C696.29,71.192 695.972,71.268 695.62,71.268 Z M703.036,72 L703.036,64.968 L705.412,64.968 L705.412,64.128 L699.652,64.128 L699.652,64.968 L702.028,64.968 L702.028,72 L703.036,72 Z M711.484,72 L711.484,71.148 L707.824,71.148 L707.824,68.292 L710.812,68.292 L710.812,67.44 L707.824,67.44 L707.824,64.968 L711.364,64.968 L711.364,64.128 L706.828,64.128 L706.828,72 L711.484,72 Z M714.1,72 L714.1,67.884 C714.1,67.468 714.086,67.054 714.058,66.642 C714.03,66.23 714,65.824 713.968,65.424 L713.968,65.424 L714.016,65.424 L714.868,67.044 L717.724,72 L718.756,72 L718.756,64.128 L717.808,64.128 L717.808,68.196 C717.808,68.612 717.822,69.034 717.85,69.462 C717.878,69.89 717.904,70.304 717.928,70.704 L717.928,70.704 L717.88,70.704 L717.028,69.072 L714.184,64.128 L713.152,64.128 L713.152,72 L714.1,72 Z M723.556,72 L723.556,64.968 L725.932,64.968 L725.932,64.128 L720.172,64.128 L720.172,64.968 L722.548,64.968 L722.548,72 L723.556,72 Z M728.344,72 L728.344,64.128 L727.348,64.128 L727.348,72 L728.344,72 Z M730.48,72 L731.236,69.6 L734.104,69.6 L734.848,72 L735.916,72 L733.252,64.128 L732.124,64.128 L729.46,72 L730.48,72 Z M733.852,68.796 L731.488,68.796 L731.86,67.596 C732.004,67.156 732.14,66.718 732.268,66.282 C732.396,65.846 732.52,65.4 732.64,64.944 L732.64,64.944 L732.688,64.944 C732.816,65.4 732.944,65.846 733.072,66.282 C733.2,66.718 733.336,67.156 733.48,67.596 L733.48,67.596 L733.852,68.796 Z M741.472,72 L741.472,71.148 L738.028,71.148 L738.028,64.128 L737.032,64.128 L737.032,72 L741.472,72 Z M748.24,72.144 C748.752,72.144 749.204,72.044 749.596,71.844 C749.988,71.644 750.34,71.364 750.652,71.004 L750.652,71.004 L750.1,70.38 C749.844,70.66 749.572,70.878 749.284,71.034 C748.996,71.19 748.66,71.268 748.276,71.268 C747.9,71.268 747.562,71.192 747.262,71.04 C746.962,70.888 746.708,70.672 746.5,70.392 C746.292,70.112 746.13,69.774 746.014,69.378 C745.898,68.982 745.84,68.536 745.84,68.04 C745.84,67.552 745.898,67.112 746.014,66.72 C746.13,66.328 746.296,65.994 746.512,65.718 C746.728,65.442 746.988,65.23 747.292,65.082 C747.596,64.934 747.936,64.86 748.312,64.86 C748.648,64.86 748.948,64.928 749.212,65.064 C749.476,65.2 749.712,65.38 749.92,65.604 L749.92,65.604 L750.46,64.956 C750.228,64.7 749.93,64.474 749.566,64.278 C749.202,64.082 748.78,63.984 748.3,63.984 C747.796,63.984 747.332,64.078 746.908,64.266 C746.484,64.454 746.116,64.724 745.804,65.076 C745.492,65.428 745.248,65.856 745.072,66.36 C744.896,66.864 744.808,67.432 744.808,68.064 C744.808,68.704 744.894,69.278 745.066,69.786 C745.238,70.294 745.478,70.722 745.786,71.07 C746.094,71.418 746.456,71.684 746.872,71.868 C747.288,72.052 747.744,72.144 748.24,72.144 Z M753.112,72 L753.112,68.676 L754.54,68.676 L756.436,72 L757.564,72 L755.56,68.568 C756.104,68.432 756.536,68.18 756.856,67.812 C757.176,67.444 757.336,66.952 757.336,66.336 C757.336,65.928 757.268,65.584 757.132,65.304 C756.996,65.024 756.806,64.796 756.562,64.62 C756.318,64.444 756.026,64.318 755.686,64.242 C755.346,64.166 754.976,64.128 754.576,64.128 L754.576,64.128 L752.116,64.128 L752.116,72 L753.112,72 Z M754.432,67.86 L753.112,67.86 L753.112,64.932 L754.432,64.932 C755.048,64.932 755.52,65.036 755.848,65.244 C756.176,65.452 756.34,65.816 756.34,66.336 C756.34,66.848 756.176,67.23 755.848,67.482 C755.52,67.734 755.048,67.86 754.432,67.86 L754.432,67.86 Z M763.6,72 L763.6,71.148 L759.94,71.148 L759.94,68.292 L762.928,68.292 L762.928,67.44 L759.94,67.44 L759.94,64.968 L763.48,64.968 L763.48,64.128 L758.944,64.128 L758.944,72 L763.6,72 Z M767.284,72 C767.876,72 768.4,71.91 768.856,71.73 C769.312,71.55 769.696,71.29 770.008,70.95 C770.32,70.61 770.556,70.194 770.716,69.702 C770.876,69.21 770.956,68.652 770.956,68.028 C770.956,66.772 770.64,65.808 770.008,65.136 C769.376,64.464 768.452,64.128 767.236,64.128 L767.236,64.128 L765.268,64.128 L765.268,72 L767.284,72 Z M767.164,71.184 L766.264,71.184 L766.264,64.944 L767.164,64.944 C768.084,64.944 768.774,65.208 769.234,65.736 C769.694,66.264 769.924,67.028 769.924,68.028 C769.924,69.028 769.694,69.804 769.234,70.356 C768.774,70.908 768.084,71.184 767.164,71.184 L767.164,71.184 Z M773.644,72 L773.644,64.128 L772.648,64.128 L772.648,72 L773.644,72 Z M778.444,72 L778.444,64.968 L780.82,64.968 L780.82,64.128 L775.06,64.128 L775.06,64.968 L777.436,64.968 L777.436,72 L778.444,72 Z M717.736,88.32 L717.736,87.072 C718.36,86.936 718.828,86.662 719.14,86.25 C719.452,85.838 719.608,85.344 719.608,84.768 C719.608,84.384 719.53,84.062 719.374,83.802 C719.218,83.542 719.022,83.32 718.786,83.136 C718.55,82.952 718.296,82.796 718.024,82.668 C717.752,82.54 717.498,82.416 717.262,82.296 C717.026,82.176 716.83,82.05 716.674,81.918 C716.518,81.786 716.44,81.624 716.44,81.432 C716.44,81.16 716.516,80.964 716.668,80.844 C716.82,80.724 717.04,80.664 717.328,80.664 C717.584,80.664 717.812,80.714 718.012,80.814 C718.212,80.914 718.42,81.064 718.636,81.264 L718.636,81.264 L719.524,80.256 C719.292,80.008 719.032,79.796 718.744,79.62 C718.456,79.444 718.12,79.328 717.736,79.272 L717.736,79.272 L717.736,78.06 L716.572,78.06 L716.572,79.296 C716.004,79.408 715.558,79.658 715.234,80.046 C714.91,80.434 714.748,80.924 714.748,81.516 C714.748,81.876 714.826,82.18 714.982,82.428 C715.138,82.676 715.334,82.892 715.57,83.076 C715.806,83.26 716.06,83.418 716.332,83.55 C716.604,83.682 716.858,83.814 717.094,83.946 C717.33,84.078 717.526,84.216 717.682,84.36 C717.838,84.504 717.916,84.68 717.916,84.888 C717.916,85.168 717.838,85.376 717.682,85.512 C717.526,85.648 717.28,85.716 716.944,85.716 C716.656,85.716 716.374,85.658 716.098,85.542 C715.822,85.426 715.532,85.252 715.228,85.02 L715.228,85.02 L714.46,86.208 C714.74,86.464 715.074,86.67 715.462,86.826 C715.85,86.982 716.22,87.08 716.572,87.12 L716.572,87.12 L716.572,88.32 L717.736,88.32 Z M726.136,87 L726.136,85.512 L724.6,85.512 C724.416,85.512 724.206,85.522 723.97,85.542 C723.734,85.562 723.52,85.584 723.328,85.608 C723.64,85.288 723.942,84.962 724.234,84.63 C724.526,84.298 724.786,83.966 725.014,83.634 C725.242,83.302 725.424,82.97 725.56,82.638 C725.696,82.306 725.764,81.98 725.764,81.66 C725.764,81.292 725.704,80.96 725.584,80.664 C725.464,80.368 725.292,80.114 725.068,79.902 C724.844,79.69 724.578,79.526 724.27,79.41 C723.962,79.294 723.62,79.236 723.244,79.236 C722.7,79.236 722.232,79.338 721.84,79.542 C721.448,79.746 721.064,80.048 720.688,80.448 L720.688,80.448 L721.648,81.396 C721.84,81.188 722.044,81.006 722.26,80.85 C722.476,80.694 722.724,80.616 723.004,80.616 C723.34,80.616 723.604,80.714 723.796,80.91 C723.988,81.106 724.084,81.392 724.084,81.768 C724.084,82.04 724.002,82.326 723.838,82.626 C723.674,82.926 723.446,83.25 723.154,83.598 C722.862,83.946 722.514,84.318 722.11,84.714 C721.706,85.11 721.26,85.536 720.772,85.992 L720.772,85.992 L720.772,87 L726.136,87 Z M728.464,87.144 C728.768,87.144 729.022,87.038 729.226,86.826 C729.43,86.614 729.532,86.352 729.532,86.04 C729.532,85.72 729.43,85.454 729.226,85.242 C729.022,85.03 728.768,84.924 728.464,84.924 C728.16,84.924 727.906,85.03 727.702,85.242 C727.498,85.454 727.396,85.72 727.396,86.04 C727.396,86.352 727.498,86.614 727.702,86.826 C727.906,87.038 728.16,87.144 728.464,87.144 Z M733.636,87.144 C733.98,87.144 734.306,87.086 734.614,86.97 C734.922,86.854 735.19,86.684 735.418,86.46 C735.646,86.236 735.828,85.968 735.964,85.656 C736.1,85.344 736.168,84.988 736.168,84.588 C736.168,84.188 736.112,83.84 736,83.544 C735.888,83.248 735.73,83.004 735.526,82.812 C735.322,82.62 735.082,82.476 734.806,82.38 C734.53,82.284 734.228,82.236 733.9,82.236 C733.78,82.236 733.652,82.254 733.516,82.29 C733.38,82.326 733.244,82.378 733.108,82.446 C732.972,82.514 732.84,82.598 732.712,82.698 C732.584,82.798 732.472,82.912 732.376,83.04 C732.392,82.6 732.444,82.228 732.532,81.924 C732.62,81.62 732.734,81.374 732.874,81.186 C733.014,80.998 733.176,80.864 733.36,80.784 C733.544,80.704 733.74,80.664 733.948,80.664 C734.172,80.664 734.392,80.718 734.608,80.826 C734.824,80.934 735,81.06 735.136,81.204 L735.136,81.204 L736.06,80.148 C735.82,79.9 735.516,79.686 735.148,79.506 C734.78,79.326 734.344,79.236 733.84,79.236 C733.44,79.236 733.054,79.318 732.682,79.482 C732.31,79.646 731.982,79.896 731.698,80.232 C731.414,80.568 731.186,80.996 731.014,81.516 C730.842,82.036 730.756,82.652 730.756,83.364 C730.756,84.036 730.836,84.61 730.996,85.086 C731.156,85.562 731.37,85.952 731.638,86.256 C731.906,86.56 732.214,86.784 732.562,86.928 C732.91,87.072 733.268,87.144 733.636,87.144 Z M733.6,85.824 C733.464,85.824 733.334,85.798 733.21,85.746 C733.086,85.694 732.972,85.606 732.868,85.482 C732.764,85.358 732.672,85.196 732.592,84.996 C732.512,84.796 732.452,84.544 732.412,84.24 C732.572,83.968 732.754,83.774 732.958,83.658 C733.162,83.542 733.364,83.484 733.564,83.484 C733.852,83.484 734.09,83.566 734.278,83.73 C734.466,83.894 734.56,84.18 734.56,84.588 C734.56,85.02 734.466,85.334 734.278,85.53 C734.09,85.726 733.864,85.824 733.6,85.824 Z M739.756,87.144 C740.164,87.144 740.534,87.09 740.866,86.982 C741.198,86.874 741.482,86.726 741.718,86.538 C741.954,86.35 742.136,86.128 742.264,85.872 C742.392,85.616 742.456,85.336 742.456,85.032 C742.456,84.528 742.328,84.12 742.072,83.808 C741.816,83.496 741.504,83.24 741.136,83.04 L741.136,83.04 L741.136,82.992 C741.4,82.816 741.632,82.586 741.832,82.302 C742.032,82.018 742.132,81.692 742.132,81.324 C742.132,81.012 742.076,80.726 741.964,80.466 C741.852,80.206 741.696,79.986 741.496,79.806 C741.296,79.626 741.052,79.486 740.764,79.386 C740.476,79.286 740.16,79.236 739.816,79.236 C739.464,79.236 739.138,79.284 738.838,79.38 C738.538,79.476 738.28,79.616 738.064,79.8 C737.848,79.984 737.68,80.206 737.56,80.466 C737.44,80.726 737.38,81.016 737.38,81.336 C737.38,81.744 737.476,82.09 737.668,82.374 C737.86,82.658 738.104,82.912 738.4,83.136 L738.4,83.136 L738.4,83.184 C738.04,83.376 737.734,83.62 737.482,83.916 C737.23,84.212 737.104,84.592 737.104,85.056 C737.104,85.368 737.17,85.652 737.302,85.908 C737.434,86.164 737.618,86.384 737.854,86.568 C738.09,86.752 738.37,86.894 738.694,86.994 C739.018,87.094 739.372,87.144 739.756,87.144 Z M740.236,82.56 C739.844,82.408 739.528,82.244 739.288,82.068 C739.048,81.892 738.928,81.648 738.928,81.336 C738.928,81.04 739.012,80.82 739.18,80.676 C739.348,80.532 739.548,80.46 739.78,80.46 C740.068,80.46 740.294,80.55 740.458,80.73 C740.622,80.91 740.704,81.148 740.704,81.444 C740.704,81.828 740.548,82.2 740.236,82.56 Z M739.792,85.92 C739.472,85.92 739.196,85.826 738.964,85.638 C738.732,85.45 738.616,85.188 738.616,84.852 C738.616,84.62 738.672,84.4 738.784,84.192 C738.896,83.984 739.036,83.8 739.204,83.64 C739.444,83.744 739.662,83.84 739.858,83.928 C740.054,84.016 740.224,84.11 740.368,84.21 C740.512,84.31 740.622,84.42 740.698,84.54 C740.774,84.66 740.812,84.804 740.812,84.972 C740.812,85.292 740.716,85.53 740.524,85.686 C740.332,85.842 740.088,85.92 739.792,85.92 Z M749.56,87 L749.56,80.664 L751.708,80.664 L751.708,79.176 L745.636,79.176 L745.636,80.664 L747.784,80.664 L747.784,87 L749.56,87 Z" id="POTENTIALCREDIT$2.68T" fill="#666666" fill-rule="nonzero"></path>
                    <rect id="Rectangle" fill="#6F41A7" x="307" y="108" width="73" height="40"></rect>
                    <rect id="Rectangle-Copy-13" fill="#6F41A7" x="6" y="108" width="299" height="40"></rect>
                    <use id="Rectangle-Copy-19" stroke="#979797" mask="url(#mask-2)" stroke-width="2" fill="#D8D8D8" opacity="0.776204427" stroke-linecap="round" stroke-linejoin="round" stroke-dasharray="4,3" transform="translate(452.500000, 128.000000) rotate(90.000000) translate(-452.500000, -128.000000) " xlink:href="#path-1"></use>
                    <use id="Rectangle-Copy-16" stroke="#4A1D7A" mask="url(#mask-4)" stroke-width="2" fill-opacity="0.202524038" fill="#4A1D7A" stroke-linecap="round" stroke-linejoin="round" stroke-dasharray="4,3" transform="translate(733.000000, 128.000000) rotate(90.000000) translate(-733.000000, -128.000000) " xlink:href="#path-3"></use>
                    <line x1="471.5" y1="39.5" x2="471.5" y2="27.5" id="Line-14" stroke="#D8D8D8" stroke-linecap="round" stroke-linejoin="round" stroke-dasharray="3,3"></line>
                    <line x1="733.5" y1="104" x2="733.5" y2="96" id="Line-14-Copy-5" stroke="#979797" stroke-width="0.5" stroke-linecap="square"></line>
                    <line x1="190.5" y1="99" x2="190.5" y2="91" id="Line-14-Copy" stroke="#979797" stroke-width="0.5" stroke-linecap="square"></line>
                    <line x1="455.5" y1="107" x2="455.5" y2="99" id="Line-14-Copy-4" stroke="#979797" stroke-width="0.5" stroke-linecap="square"></line>
                </g>
                <rect id="Rectangle-Copy-14" fill="#6F41A7" x="3" y="108" width="2" height="40"></rect>
                <rect id="Rectangle-Copy-17" fill="#6F41A7" x="0" y="108" width="1" height="40"></rect>
            </g>
        </g>
    </g>
</svg>