<?xml version="1.0" encoding="UTF-8"?>
<svg width="352px" height="367px" viewBox="0 0 352 367" version="1.1" xmlns="http://www.w3.org/2000/svg" xmlns:xlink="http://www.w3.org/1999/xlink" role="img">
    <desc id="section-2-mobile-svg-b">section 2 mobile placeholder alt text B</desc>
    <defs>
        <polygon id="path-1" points="0 0.14496114 65.5046862 0.14496114 65.5046862 65.6279406 0 65.6279406"></polygon>
        <polygon id="path-3" points="0 44.921871 86.0184194 44.921871 86.0184194 0.0563426857 0 0.0563426857"></polygon>
    </defs>
    <g id="Viz2-Mobile-B-outline" stroke="none" stroke-width="1" fill="none" fill-rule="evenodd">
        <g id="Viz-2-B" transform="translate(28.000000, 2.000000)">
            <g id="Group-23">
                <text id="Grants-Copy" font-family="SourceSansPro-SemiBold, Source Sans Pro" font-size="13.70166" font-weight="500" fill="#6F41A7">
                    <tspan x="68.0915986" y="234">Grants</tspan>
                </text>
                <text id="Direct-Payments" font-family="SourceSansPro-SemiBold, Source Sans Pro" font-size="13.70166" font-weight="500" fill="#6F41A7">
                    <tspan x="188.893367" y="225">Direct </tspan>
                    <tspan x="177.404525" y="242">Payments</tspan>
                </text>
                <text id="Loans-Copy" font-family="SourceSansPro-SemiBold, Source Sans Pro" font-size="13.70166" font-weight="500" fill="#6F41A7">
                    <tspan x="190.646848" y="134">Loans</tspan>
                </text>
                <text id="Contracts-Copy" font-family="SourceSansPro-SemiBold, Source Sans Pro" font-size="13.70166" font-weight="500" fill="#6F41A7">
                    <tspan x="58.1170113" y="134">Contracts</tspan>
                </text>
                <g id="Group-8-Copy" transform="translate(63.000000, 54.000000)">
                    <g id="Group-6" stroke="#6F41A7" stroke-width="1.87174463">
                        <path d="M36.8308263,33.3885479 C27.6021818,33.3885479 18.3735372,33.3906669 9.14503317,33.3824736 C8.67650199,33.3820498 8.20811137,33.2944663 7.73958019,33.2472842" id="Stroke-3" stroke-linecap="round" stroke-linejoin="round"></path>
                        <path d="M36.9713295,38.4007975 C31.7720812,38.5638158 26.5715678,38.4577268 21.3717572,38.4615409 C16.9214841,38.4646487 12.4703675,38.5615556 8.02065673,38.4007975" id="Stroke-5" stroke-linecap="round" stroke-linejoin="round"></path>
                        <path d="M25.7283944,43.9071876 C20.2948102,43.7450169 14.8601015,43.8833141 9.42609566,43.8338718 C8.9574239,43.8296338 8.48917386,43.7895149 8.02064267,43.7659239" id="Stroke-9" stroke-linecap="round" stroke-linejoin="round"></path>
                        <path d="M20.1069058,49.4134365 C16.0782123,49.5302617 12.0493783,49.5302617 8.02068484,49.4134365" id="Stroke-11" stroke-linecap="round" stroke-linejoin="round"></path>
                        <path d="M0.993869752,0.350362341 C0.378158202,0.473826854 -0.0154473549,0.788703743 0.00816897855,1.47990725 C0.0194148516,1.80891051 0.00999643292,2.13862009 0.00999643292,2.46804715 C0.00999643292,20.8227281 0.0170251036,39.1772678 0,57.5318075 C-0.00181173379,59.5066746 0.152537874,59.6627711 2.11817591,59.6600871 C15.8439045,59.6405927 29.5697738,59.6403101 43.2955024,59.6613824 C45.0580119,59.6640424 45.2763224,59.443671 45.2745062,57.6730712 C45.2559392,39.2243086 45.2559392,20.7756873 45.2745062,2.32692467 C45.2763224,0.556183618 45.0580119,0.335953439 43.2955024,0.338613495 C29.241816,0.359403221 15.1881296,0.350362341 1.13444317,0.350362341" id="Stroke-17" stroke-linecap="round" stroke-linejoin="round"></path>
                        <path d="M33.8795297,43.8365558 C30.0221952,44.9502791 29.3196093,48.6409357 30.6483092,51.1777501 C31.582279,52.9610636 33.7336145,54.0533149 35.7057189,53.7149882 C37.8923383,53.3395092 39.5643185,51.5516752 39.8834202,49.7594621 C40.2885527,47.4845507 39.3329347,45.6190217 37.5590388,44.5014842 C36.3949503,43.7680429 35.2307213,43.8734256 34.0201031,43.8365558" id="Stroke-19" stroke-linecap="round" stroke-linejoin="round"></path>
                        <line x1="22.7026079" y1="5.29746108" x2="22.7026079" y2="5.29746108" id="Line-9" stroke-linecap="square"></line>
                        <g id="Group-7-Copy" transform="translate(17.360818, 6.710099)" stroke-linecap="round" stroke-linejoin="round">
                            <path d="M10.0133605,8.08310444 C10.2403163,5.58909302 8.32795557,3.99662682 6.00575308,3.6510957 C4.0101729,3.3541593 2.25356753,3.8928686 0.95045199,5.54297041 C0.0875420931,6.63557484 0.0941490435,8.25466926 0.948905682,9.35363057 C1.91274729,10.5929374 3.17706457,11.1958511 4.74277124,11.269732 C6.53416854,11.3542784 8.20467269,11.8163521 9.22811743,13.4560004 C10.1031166,14.8579018 9.8516308,16.2671489 8.88371256,17.3969057 C8.04104524,18.3803133 6.92482205,18.8793981 5.65635786,19.0215094 C3.75805448,19.234182 2.09289212,18.7655395 0.808824276,17.2598799 C0.307469198,16.6720814 0.0289229798,15.9961344 0.0352487834,15.2131095" id="Stroke-1"></path>
                            <path d="M5.02430465,0.0352806204 C5.18442689,1.17471399 5.10539913,2.31760832 5.12272029,3.45916065" id="Stroke-3"></path>
                            <path d="M5.12212954,19.2370072 C5.10002112,20.1314186 5.19060697,21.027949 5.02430465,21.9196058" id="Stroke-5"></path>
                        </g>
                    </g>
                    <circle id="Oval" fill-opacity="0.310287369" fill="#6F41A7" cx="31.1957437" cy="44.921871" r="10.6065529"></circle>
                </g>
                <g id="Group-9-Copy" transform="translate(30.000000, 155.000000)">
                    <path d="M67.602172,27.831586 C66.9265658,26.8018145 66.152849,25.8328123 65.3761997,24.8783161 C64.6967252,24.0432997 64.0083911,23.2093438 63.2521127,22.4420845 C62.4462643,21.6245689 61.591033,20.8500097 60.6888832,20.1399322 C60.2429089,19.7889177 59.7853609,19.4503503 59.302482,19.1514015 C58.9179321,18.9133468 58.5097358,18.6888934 58.0747735,18.5575593 C56.3682103,18.0421744 54.5908016,18.4061352 52.8495488,18.4101282 C52.5484787,18.4108457 52.5479172,18.8787819 52.8495488,18.8780644 C54.3897763,18.8745705 55.9454144,18.5748106 57.4731636,18.8914162 C57.9545139,18.991149 58.3751261,19.1545523 58.8008544,19.3973799 C59.2612724,19.6600481 59.696765,19.9659848 60.1188434,20.2859595 C61.0270451,20.9744496 61.8806542,21.7409602 62.6905893,22.5420045 C63.4112734,23.2548272 64.0684429,24.0244574 64.7139765,24.8052557 C65.5831523,25.8564899 66.4491149,26.9261607 67.1981247,28.067769 C67.3626511,28.3185204 67.7680086,28.0843651 67.602172,27.831586" id="Fill-5" stroke="#6F41A7" stroke-width="1.24782975" fill="#6F41A7"></path>
                    <path d="M52.5873767,18.6236631 C51.7080622,19.7596561 51.0644317,21.0926814 50.0090484,22.0862347 C49.5867205,22.4838244 49.0778867,22.7869535 48.5378572,22.9968696 C47.9748676,23.2156766 47.3539163,23.3628269 46.7470031,23.2909519 C46.4515482,23.2559503 46.1563429,23.1575901 45.9150126,22.9804919 C45.6058316,22.753574 45.4359396,22.4003134 45.2445537,22.0790285 C45.0905403,21.8205717 44.6858379,22.0556316 44.8404752,22.3152114 C45.0288975,22.6314739 45.2016908,22.9687623 45.4761197,23.2215414 C45.7156406,23.4421889 46.0094733,23.5965766 46.3228658,23.6824897 C46.9531758,23.8552517 47.6390142,23.7712104 48.2567835,23.5872803 C48.8680329,23.4052843 49.4622495,23.1190945 49.9700538,22.7315498 C50.5650502,22.277371 51.0394127,21.6802221 51.4684165,21.0723418 C51.9615901,20.3735259 52.3942126,19.6315664 52.9182699,18.9545563 C52.9961657,18.8539189 53.01454,18.7220857 52.9182699,18.6236631 C52.8385024,18.5421486 52.6646173,18.5239303 52.5873767,18.6236631" id="Fill-7" stroke="#6F41A7" stroke-width="1.24782975" fill="#6F41A7"></path>
                    <path d="M83.6008655,27.8756375 C81.8117584,28.087207 80.1721413,28.9135199 78.6917785,29.9047959 C77.9345954,30.4117891 77.210511,30.9669797 76.5012134,31.5385481 C75.8276037,32.0812917 75.1826941,32.6659311 74.4863427,33.1794443 C73.6600922,33.7887595 72.7575993,34.348536 71.7907497,34.7045106 C71.5105183,34.8077061 71.6316202,35.260138 71.9151271,35.155757 C72.7742579,34.8394322 73.5788585,34.3779535 74.3320797,33.8611961 C75.0522959,33.3670555 75.7072193,32.7901526 76.3811722,32.2365217 C77.7667623,31.0983138 79.20838,29.9892739 80.8287805,29.2032348 C81.7001401,28.7805636 82.6356692,28.4577189 83.6008655,28.3435737 C83.7263348,28.3287245 83.8348336,28.2466797 83.8348336,28.1096056 C83.8348336,27.9946493 83.7272083,27.8606947 83.6008655,27.8756375" id="Fill-9" stroke="#6F41A7" stroke-width="1.24782975" fill="#6F41A7"></path>
                    <path d="M67.234708,28.115121 C67.9065395,28.9199712 68.5506692,29.7444747 69.1819775,30.5812693 C69.7242531,31.3000193 70.2523347,32.0331192 70.6994321,32.8158204 C71.1237878,33.5585599 71.5291141,34.3940755 71.5809926,35.2623154 C71.6025177,35.621784 71.5615265,35.9925454 71.4026465,36.3198824 C71.2585534,36.6166787 71.0511017,36.8844317 70.8137021,37.1121919 C70.5001849,37.4129812 70.1157597,37.6354693 69.6848529,37.7118676 C69.1027091,37.8150944 68.527522,37.6042735 68.0360019,37.3061046 C67.7778259,37.1495332 67.5423916,37.5540172 67.7998189,37.7101519 C68.3017896,38.0146535 68.877663,38.229873 69.4728466,38.2023583 C69.9314865,38.181114 70.375745,38.0241682 70.7524648,37.7629663 C71.4086673,37.307914 71.9265167,36.5986787 72.0306169,35.7963554 C72.1482248,34.8898383 71.812777,33.974212 71.4196794,33.1734172 C70.985809,32.289517 70.4236305,31.4729685 69.8389599,30.6832482 C69.1080124,29.6958405 68.3529194,28.727431 67.5656012,27.7842589 C67.372406,27.5528177 67.0429478,27.8853643 67.234708,28.115121" id="Fill-11" stroke="#6F41A7" stroke-width="1.24782975" fill="#6F41A7"></path>
                    <path d="M61.5304571,29.3478707 C62.9858945,31.0234877 64.4377132,32.7107095 65.771768,34.4857473 C66.337846,35.2389686 66.9192098,36.0090043 67.3549832,36.8475459 C67.5303657,37.185115 67.6412041,37.5560948 67.6728678,37.9858474 C67.7119873,38.5165494 67.63353,39.0663744 67.3940091,39.5456034 C67.1390774,40.0555914 66.7149713,40.470682 66.1668309,40.6502759 C65.8465754,40.7551871 65.5190825,40.7743725 65.1842586,40.7577452 C64.7977433,40.7385286 64.3892662,40.6795998 64.037659,40.5096766 C63.7677222,40.3791848 63.5301666,40.782577 63.8015072,40.9137239 C64.4404272,41.2224994 65.2477419,41.3042322 65.9444676,41.1866555 C66.5116063,41.0909469 67.0415907,40.791499 67.4154405,40.354197 C68.1641384,39.4785637 68.3411742,38.1558018 67.9667941,37.0787375 C67.8441013,36.7258201 67.649471,36.3969546 67.4537489,36.0806297 C67.184592,35.6456987 66.8911961,35.2258039 66.5911554,34.8117428 C65.9179824,33.882952 65.2058148,32.9818317 64.4782365,32.0952175 C63.6243154,31.0546211 62.7439403,30.0331164 61.8613191,29.0170087 C61.6635069,28.7892485 61.3337055,29.1213584 61.5304571,29.3478707" id="Fill-13" stroke="#6F41A7" stroke-width="1.24782975" fill="#6F41A7"></path>
                    <path d="M57.7115677,33.4809418 C58.6961678,34.3229773 59.6334127,35.2067527 60.5625779,36.1086529 C61.2096712,36.7367792 61.8606328,37.3645935 62.4293312,38.0664041 C62.9373851,38.693345 63.499938,39.4823166 63.5230228,40.3220748 C63.5475739,41.2137739 62.7437843,41.9371096 61.9396516,42.186738 C61.4920239,42.3256838 61.0103928,42.3359784 60.55637,42.2203982 C60.2405131,42.1399756 59.9174187,42.0066761 59.7302131,41.778916 C59.6493225,41.6805246 59.4833924,41.6966528 59.3993198,41.778916 C59.3017083,41.8744374 59.3195211,42.0127281 59.3993198,42.1098093 C59.6095479,42.365552 59.948053,42.5191286 60.2549879,42.6201404 C60.6808722,42.7603029 61.1422884,42.7987049 61.5859231,42.7398697 C62.1286666,42.6679011 62.6280793,42.4458186 63.0552114,42.1046308 C63.4512102,41.7883371 63.7996043,41.3718428 63.929129,40.872898 C64.1606014,39.9810117 63.714783,39.0685362 63.2219839,38.3496303 C62.6543461,37.5216641 61.9448301,36.8005433 61.2280767,36.1024449 C60.1892585,35.0907045 59.1451681,34.093127 58.042461,33.1500797 C57.8147632,32.9553247 57.4822478,33.2848453 57.7115677,33.4809418" id="Fill-15" stroke="#6F41A7" stroke-width="1.24782975" fill="#6F41A7"></path>
                    <path d="M54.6409332,37.1189925 C56.1916424,38.2748884 57.7492459,39.6028288 58.845246,41.1927199 C59.0307671,41.4618456 59.2413383,41.7557719 59.3627522,42.0624573 C59.4470431,42.2754306 59.391889,42.5577521 59.3394802,42.772098 C59.273314,43.0427211 59.13259,43.2866406 58.9438869,43.4907232 C58.5840128,43.8798589 58.09477,44.0760489 57.5652534,43.9961878 C56.9837024,43.9084966 56.4702204,43.5473435 56.0336048,43.1736185 C55.5629858,42.7707878 55.1438086,42.313583 54.706881,41.8756571 C54.4939077,41.6621847 54.162952,41.9929843 54.3759878,42.2065192 C55.183084,43.0154872 55.995234,44.0034876 57.1197782,44.3686026 C57.6635512,44.5451081 58.2823812,44.5192469 58.7806396,44.2235424 C59.3137749,43.9071552 59.7125501,43.3596075 59.8219535,42.7480149 C59.8737385,42.4583312 59.9040607,42.1345194 59.7812119,41.8582811 C59.7570664,41.8040005 59.7293334,41.7512173 59.7017875,41.6985901 C59.6171535,41.5367154 59.5247517,41.3790209 59.4269218,41.2247891 C59.0443372,40.6215259 58.5865709,40.064713 58.1015395,39.5415916 C57.1280763,38.49173 56.0233414,37.5693655 54.8771162,36.7149453 C54.7750125,36.6388276 54.6167565,36.6990978 54.5569855,36.7988618 C54.485984,36.9174056 54.540171,37.0438732 54.6409332,37.1189925" id="Fill-17" stroke="#6F41A7" stroke-width="1.24782975" fill="#6F41A7"></path>
                    <path d="M56.7865702,11.2392905 C54.7997445,10.1364898 52.4654918,10.4419897 50.3642713,11.0126534 C49.2391968,11.3181845 48.1390477,11.7059788 47.032597,12.0713122 C45.9777441,12.4196127 44.9213003,12.7239895 43.8295116,12.9325643 C42.3174228,13.2213745 40.7843079,13.4521294 39.2415848,13.4551866 C38.9405147,13.4557793 38.9399844,13.9237155 39.2415848,13.9231233 C40.6050572,13.9204087 41.9639126,13.7395982 43.3045809,13.5031968 C44.4300297,13.3047295 45.5256554,13.0470215 46.6144181,12.6990953 C48.7488309,12.0170316 50.8961587,11.1223377 53.1556664,10.9761856 C54.3303109,10.9001928 55.5109763,11.0664037 56.5503872,11.6433378 C56.8139289,11.7896146 57.0502055,11.3855986 56.7865702,11.2392905" id="Fill-20" stroke="#6F41A7" stroke-width="1.24782975" fill="#6F41A7"></path>
                    <path d="M33.4434409,29.1427213 C35.7419745,30.6130079 38.1069551,31.9818459 40.3419741,33.5498064 C40.9726273,33.9922556 41.5921123,34.4504899 42.194159,34.9312163 C42.293611,35.0106407 42.4275968,35.0265193 42.5250211,34.9312163 C42.6076586,34.8503881 42.6235684,34.6789987 42.5250211,34.600323 C40.3684593,32.8782868 38.011964,31.4371058 35.6696316,29.9865349 C35.0039768,29.5742832 34.3391955,29.1605652 33.6796239,28.738674 C33.4251914,28.5759258 33.1902563,28.9807842 33.4434409,29.1427213" id="Fill-22" stroke="#6F41A7" stroke-width="1.24782975" fill="#6F41A7"></path>
                    <path d="M37.8825578,31.9312059 C37.6740767,32.6879834 37.6275638,33.577842 38.0691396,34.2656457 C38.4834502,34.9109297 39.2288102,35.1803362 39.9734214,35.1322635 C40.2485678,35.1145131 40.5320747,35.07034 40.7920913,34.9769087 C41.0967489,34.8674116 41.3784153,34.699173 41.696643,34.6287954 C41.9905381,34.5638147 41.8661607,34.1125994 41.5722344,34.1775802 C41.324665,34.2323287 41.0966865,34.3439159 40.8657132,34.4452085 C40.6445666,34.542196 40.4177111,34.6082062 40.1786894,34.6433014 C39.8459244,34.692154 39.4995268,34.6819529 39.1789905,34.57439 C38.621585,34.387278 38.2968061,33.8789745 38.2173194,33.3140508 C38.1580474,32.8926587 38.221718,32.462407 38.3337731,32.0555833 C38.4138837,31.764839 37.9625749,31.6407735 37.8825578,31.9312059" id="Fill-24" stroke="#6F41A7" stroke-width="1.24782975" fill="#6F41A7"></path>
                    <path d="M47.3950978,37.1120452 C47.5145151,36.0573483 47.1902354,34.9517712 46.3900021,34.2269693 C45.7033838,33.6050821 44.7206867,33.3145562 43.8222181,33.6055812 C42.7724189,33.9456149 42.0022272,35.0036497 41.9286988,36.0949392 C41.8610977,37.097664 42.4695706,37.9777583 43.3985175,38.3286792 C44.0093613,38.5594342 44.7114216,38.5363493 45.3493433,38.4534622 C46.0957327,38.3564435 46.7834429,38.0795812 47.3265608,37.5468515 C47.541905,37.3356563 47.2109493,37.0048255 46.9956675,37.2159895 C46.5737139,37.6298946 46.0483776,37.8641746 45.4702268,37.9657168 C44.9704398,38.0535328 44.4003064,38.0890023 43.900613,37.9861812 C43.1073676,37.8228715 42.4560005,37.229466 42.3968222,36.3928586 C42.3312175,35.466033 42.9299574,34.4892319 43.7809773,34.1184081 C44.4877481,33.8104749 45.3057629,33.9727552 45.9078095,34.4308958 C46.7348711,35.06027 47.040683,36.1095388 46.9271617,37.1120452 C46.9129052,37.2377953 47.0448632,37.3460133 47.1611297,37.3460133 C47.2994517,37.3460133 47.3808102,37.2381696 47.3950978,37.1120452" id="Fill-26" stroke="#6F41A7" stroke-width="1.24782975" fill="#6F41A7"></path>
                    <path d="M51.6152206,39.9142092 C51.9130152,39.208811 51.7068737,38.4584598 51.380691,37.8003232 C51.1380193,37.3107372 50.795646,36.8589916 50.3101466,36.5897411 C49.4863294,36.1328483 48.4778646,36.3156241 47.7328479,36.842957 C46.9298382,37.4113434 46.3752091,38.3409454 46.3847238,39.3398019 C46.3898711,39.880081 46.5494373,40.4232301 46.8889718,40.8480849 C47.2016468,41.2393108 47.6658082,41.4911228 48.1541776,41.5853651 C48.7711358,41.7044393 49.41773,41.6167169 50.0021823,41.3958198 C50.3230305,41.274562 50.6109672,41.1286283 50.8683945,40.899246 C51.1001789,40.6927301 51.3433809,40.4351469 51.47328,40.1493003 C51.5259072,40.0334081 51.5055052,39.8987985 51.3893322,39.8291696 C51.2894746,39.7693361 51.1213608,39.7983482 51.0692327,39.9131173 C50.8724499,40.3462078 50.4479694,40.7024008 50.0195583,40.8876099 C49.5790744,41.07806 49.0958211,41.187401 48.6148452,41.1702122 C48.2131064,41.1558621 47.7996692,41.0412178 47.4825644,40.7855375 C47.1299277,40.5011883 46.9362958,40.0782364 46.8735923,39.6357559 C46.7569826,38.8129682 47.1188221,38.0014421 47.7206815,37.4493087 C48.2619277,36.9527972 49.0444729,36.6463614 49.7671223,36.8641389 C50.2101955,36.9976567 50.5589951,37.3241825 50.7987968,37.7117585 C51.1334959,38.2527862 51.4785832,39.0445966 51.2111733,39.6780574 C51.1616657,39.795291 51.1768892,39.9273114 51.2951211,39.9981257 C51.392639,40.0565553 51.5661497,40.0305069 51.6152206,39.9142092" id="Fill-28" stroke="#6F41A7" stroke-width="1.24782975" fill="#6F41A7"></path>
                    <path d="M54.7754056,41.8134934 C54.716508,41.3378207 54.6247301,40.9012362 54.3816529,40.4812791 C54.1631891,40.1038106 53.8821779,39.7506748 53.537964,39.4806133 C53.2308731,39.2396262 52.8676611,39.0595331 52.470664,39.0488018 C52.0465579,39.0373841 51.6531796,39.2443367 51.3632775,39.5435975 C50.8070886,40.1177551 50.7216747,41.0783657 51.0351919,41.791438 C51.2880022,42.3664067 51.8289052,42.769175 52.4333851,42.9127378 C53.2052614,43.0960752 54.0270821,42.8903705 54.6595446,42.423183 C54.761929,42.3475333 54.8107504,42.2212841 54.7434611,42.1030523 C54.686061,42.0021964 54.5247166,41.9442347 54.4233616,42.0191357 C53.6145184,42.6165966 52.2647721,42.7783465 51.6073218,41.8564187 C51.2726539,41.3870788 51.232349,40.7159647 51.4772356,40.1978658 C51.6261641,39.8827888 51.9120107,39.6106059 52.2596872,39.5348939 C52.5464697,39.47244 52.8329402,39.572048 53.0750504,39.7228794 C53.4092192,39.931111 53.6779705,40.2422574 53.8886354,40.5713101 C54.1388876,40.9621927 54.2509427,41.3566941 54.3074694,41.8134934 C54.3230049,41.9389003 54.4038955,42.0474615 54.5414375,42.0474615 C54.6558323,42.0474615 54.7910346,41.9397738 54.7754056,41.8134934" id="Fill-30" stroke="#6F41A7" stroke-width="1.24782975" fill="#6F41A7"></path>
                    <path d="M52.2300887,41.5878733 C51.8949216,41.467177 51.5617199,41.1961171 51.3204832,40.9390642 C51.1139674,40.7190094 50.7835733,41.0504018 50.9896211,41.2699887 C51.2888195,41.5888092 51.6916502,41.8900041 52.1057113,42.0391197 C52.3894989,42.141317 52.5117551,41.6893218 52.2300887,41.5878733" id="Fill-32" stroke="#6F41A7" stroke-width="1.24782975" fill="#6F41A7"></path>
                    <path d="M49.8012692,39.5670036 C49.2357216,39.3089837 48.7656017,38.851654 48.3625215,38.3880229 C48.1735377,38.170651 48.0087618,37.9410191 47.850225,37.7010926 C47.7598821,37.5643305 47.593328,37.4893359 47.457221,37.6231345 C47.3980739,37.6812833 47.362386,37.7681947 47.3267292,37.8410679 C47.0922932,38.3200162 46.8732991,38.8129089 46.9423665,39.3602695 C47.0185777,39.9642191 47.4945935,40.54942 48.1148585,40.6470003 C48.7747421,40.7507885 49.3947263,40.3817117 49.8486243,39.9344583 C50.0634694,39.722764 49.732545,39.3919331 49.5177623,39.6035963 C49.0183184,40.0956779 48.1894475,40.5065571 47.6447074,39.8462056 C47.3484415,39.487049 47.3430134,39.0178962 47.4986802,38.5951314 C47.5299383,38.5102166 47.5196749,38.5397278 47.5543022,38.4608338 C47.5847804,38.3914232 47.6159138,38.3223559 47.6476086,38.2535069 C47.6788044,38.1857185 47.7103121,38.1180237 47.7435667,38.0512025 C47.7580416,38.0220656 47.77548,37.9934903 47.7885198,37.9636984 C47.8150986,37.9033346 47.8575872,37.9124438 47.7444402,37.9881247 C47.6843572,37.995986 47.624243,38.0038473 47.56416,38.0117086 C47.5649399,38.0120206 47.5657198,38.0123326 47.5664997,38.0126757 C47.5198933,37.9768006 47.4732868,37.9409879 47.4266804,37.905144 C47.6852931,38.3310907 48.0105711,38.7220045 48.3624903,39.0737989 C48.7133488,39.4245327 49.1104706,39.7636616 49.5650862,39.9710509 C49.680916,40.0238965 49.8156816,40.0031513 49.8852169,39.8871032 C49.9451128,39.7871208 49.9159759,39.6193189 49.8012692,39.5670036" id="Fill-34" stroke="#6F41A7" stroke-width="1.24782975" fill="#6F41A7"></path>
                    <path d="M43.1001552,35.5122901 C43.408993,35.9649403 43.7734217,36.3442805 44.2242938,36.6567059 C44.4078495,36.783891 44.5877866,36.8946982 44.7945832,36.9782093 C44.879186,37.0123686 44.9650679,37.0438451 45.047643,37.0828086 C45.0825511,37.0992799 45.1163361,37.1225208 45.151868,37.1369956 C45.2049008,37.1586142 45.1472199,37.1225208 45.1443499,37.102961 L45.1443499,36.9785836 C45.1560483,36.8980674 45.2059614,36.899128 45.1390154,36.9568402 C45.1148075,36.9777101 45.1436324,36.9570897 45.0982425,36.9869129 C45.0541318,37.0158625 45.0082116,37.041911 44.9602326,37.0640287 C44.9317509,37.077131 44.958548,37.0668988 44.9087908,37.0837445 C44.8789677,37.0938207 44.8489886,37.1031794 44.8185727,37.1111967 C44.7876577,37.11937 44.7564932,37.1258899 44.7251726,37.1321914 C44.7202437,37.1331585 44.6521434,37.1430788 44.6914189,37.1382122 C44.4484352,37.1683161 44.2140616,37.1330025 44.0130986,37.0333945 C43.7898619,36.9227744 43.6198139,36.7583105 43.518958,36.5249351 C43.3818839,36.2077368 43.4088994,35.8386287 43.4859217,35.5073611 C43.554022,35.2143395 43.1029628,35.0892758 43.0346753,35.3829525 C42.9169737,35.8893842 42.9072719,36.4557117 43.1957389,36.9100778 C43.4138908,37.2536989 43.7721115,37.4942492 44.1701068,37.576606 C44.5406186,37.6532852 44.9450402,37.6169421 45.2772125,37.4263049 C45.4535933,37.3251059 45.6779219,37.1553387 45.5765981,36.9249269 C45.4824181,36.7108305 45.1769182,36.6297528 44.9794803,36.5511083 C44.3916901,36.3168595 43.8658859,35.8062164 43.5042024,35.2761383 C43.3354647,35.0288496 42.9298264,35.2626617 43.1001552,35.5122901" id="Fill-36" stroke="#6F41A7" stroke-width="1.24782975" fill="#6F41A7"></path>
                    <path d="M51.965867,41.6954144 C51.8380892,41.8734173 51.7537047,41.9919299 51.5977572,42.1483766 C51.3849087,42.3619114 51.7156771,42.6929295 51.9286505,42.4792386 C52.0961716,42.3111872 52.2319979,42.1237007 52.3699143,41.9315662 C52.4436298,41.8288698 52.3878206,41.6710505 52.2859665,41.6114666 C52.1682026,41.5425864 52.0397697,41.5924372 51.965867,41.6954144" id="Fill-38" stroke="#6F41A7" stroke-width="1.24782975" fill="#6F41A7"></path>
                    <path d="M77.233521,13.6891453 C77.2357671,13.658823 77.2386683,13.6286568 77.2422246,13.5984593 C77.2328347,13.6786011 77.2445331,13.5895685 77.2485885,13.5705703 C77.2532679,13.5489204 77.2600998,13.5279257 77.2650911,13.506463 C77.2816872,13.4350872 77.2500235,13.524307 77.268741,13.495139 C77.3008102,13.4451634 77.2571986,13.5034682 77.2608173,13.5003175 C77.3030563,13.4638496 77.2092195,13.5321059 77.2464672,13.5097698 C77.2077221,13.5330106 77.1814241,13.5307021 77.1506651,13.5235271 C77.2055696,13.5363174 77.1316981,13.5104873 77.1402769,13.5169136 C77.1529736,13.5264595 77.1690082,13.5325739 77.1821728,13.541839 C77.2229144,13.5704455 77.1382804,13.4970731 77.1870081,13.5460816 C77.2050393,13.5642063 77.2246614,13.5807401 77.2425678,13.599052 C77.2790044,13.6363309 77.3121655,13.6764798 77.3451082,13.7167847 C77.3837909,13.7641087 77.3246126,13.6875543 77.3630769,13.7404623 C77.3853819,13.7711277 77.4076868,13.8017619 77.4293055,13.8329577 C77.8848569,14.4902832 78.2235179,15.2370157 78.5597144,15.9596651 C79.2976498,17.5458439 79.9649891,19.1683345 80.5897151,20.802274 C81.2026179,22.4052985 81.8732328,23.9840839 82.5048218,25.5796526 C82.8600477,26.4770606 83.1803344,27.3830162 83.4544826,28.3085939 C83.7266655,29.2275269 83.9681829,30.1551323 84.223988,31.0786511 C84.5159178,32.1324746 84.8592894,33.1709185 85.132876,34.2299204 C85.268172,34.7536969 85.3935165,35.2814665 85.4828923,35.8152257 C85.5185802,36.0282926 85.5460013,36.2225797 85.5574189,36.4439135 C85.5619423,36.5315424 85.5637516,36.6195767 85.5584484,36.7071744 C85.5572941,36.7262038 85.5554536,36.7451708 85.5540498,36.764169 C85.5494952,36.825531 85.5643132,36.7143182 85.5533946,36.7719056 C85.5466564,36.8074687 85.5379528,36.8415969 85.528594,36.8765361 C85.5123722,36.9369934 85.5413219,36.8352953 85.5212318,36.8909173 C85.5089095,36.9249207 85.4905352,36.8965638 85.531932,36.8797492 C85.5240707,36.8829312 85.4652043,36.9106642 85.548996,36.8703593 C85.5178003,36.8853957 85.5234779,36.8722623 85.5358003,36.878283 C85.57258,36.896283 85.5290308,36.881621 85.5132457,36.8770976 C85.565405,36.8920716 85.4895058,36.8654928 85.4876028,36.8644009 C85.5135577,36.8794373 85.4387503,36.8330492 85.4310137,36.8276524 C85.2408445,36.6953824 85.0916664,36.4622878 84.9666651,36.2630718 C84.5933456,35.6682937 84.3185423,35.0052282 84.0428967,34.3615352 C83.3874742,32.8308849 82.8634169,31.2476073 82.3034845,29.6806763 C82.1669719,29.298466 82.0374472,28.9131986 81.9367161,28.5198514 C81.8620335,28.2283272 81.4105687,28.3518624 81.4854697,28.6442289 C81.6846233,29.4216892 81.9980781,30.1600613 82.258157,30.9174315 C82.5529568,31.7758136 82.8485989,32.6326359 83.1798977,33.4778222 C83.5231445,34.3536115 83.8915038,35.2224442 84.3160779,36.0622336 C84.4221746,36.2720562 84.5406872,36.4763259 84.6747353,36.6695835 C84.8320243,36.8963142 85.0195731,37.1521193 85.2737872,37.2774326 C85.4921262,37.3850579 85.7714529,37.364188 85.9128632,37.1462857 C86.0033309,37.0068095 86.0222667,36.8291809 86.0282563,36.6671191 C86.0460066,36.1836786 85.9418441,35.6875415 85.8449189,35.2166418 C85.6622366,34.3290605 85.4239011,33.4493717 85.1532156,32.5846569 C84.5610892,30.6931029 84.1352673,28.7517606 83.4901394,26.8764909 C82.8167168,24.9190203 81.9375272,23.036326 81.201526,21.1022835 C80.9345216,20.4005352 80.6617772,19.7013762 80.3788007,19.0058359 C79.9814605,18.029066 79.5717044,17.0568194 79.1353383,16.0967392 C78.7715335,15.2962876 78.403299,14.4799886 77.9274079,13.7382474 C77.789086,13.5226224 77.6332009,13.2729005 77.4111807,13.1329876 C77.1778054,12.9858997 76.9264301,13.0880657 76.8301912,13.3376317 C76.7871411,13.44925 76.7744132,13.5705391 76.7655848,13.6891453 C76.7431863,13.9895291 77.211216,13.9880941 77.233521,13.6891453" id="Fill-40" stroke="#6F41A7" stroke-width="1.24782975" fill="#6F41A7"></path>
                    <path d="M77.242234,13.5196713 C79.0447864,12.8841204 80.8430339,12.2362784 82.6467094,11.6038783 C84.4001286,10.989135 86.1620018,10.3988179 87.9177606,9.79081286 C89.5846116,9.21356682 91.2477815,8.62640053 92.9004072,8.0094735 C95.4221463,7.06807954 97.9670951,6.19110479 100.482907,5.23274035 C102.748467,4.3697101 105.004917,3.47529693 107.215417,2.47828096 C108.485146,1.90558949 109.733256,1.28906801 110.95928,0.628061396 C111.078417,0.56382936 111.197397,0.499316562 111.316284,0.434616589 C111.580886,0.290679428 111.344984,-0.113523824 111.080101,0.0305693163 C109.921866,0.660692144 108.748344,1.25946325 107.551426,1.81293814 C105.522517,2.75118132 103.447875,3.58888063 101.36375,4.39560256 C99.7563894,5.01777048 98.1407618,5.6186005 96.5210164,6.20779451 C95.3608467,6.62981054 94.1931588,7.03195487 93.0357343,7.46148906 C91.6304909,7.98298831 90.2216287,8.49297633 88.8064962,8.98727289 C87.1252639,9.57453277 85.4378862,10.1436367 83.7542831,10.7240335 C81.9485174,11.3465134 80.1508315,11.9922029 78.3510867,12.6316845 C77.9401451,12.7777117 77.52911,12.9234271 77.1178253,13.0684561 C76.8357534,13.1679081 76.9571673,13.620184 77.242234,13.5196713" id="Fill-42" stroke="#6F41A7" stroke-width="1.24782975" fill="#6F41A7"></path>
                    <path d="M85.7209875,37.3033625 C86.6190818,37.0198868 87.5233528,36.7562515 88.4195754,36.4667238 C89.3142693,36.1776329 90.1860655,35.8281782 91.0761113,35.5263905 C91.9596996,35.2268178 92.8547366,34.9627146 93.7479956,34.6938697 C94.6526097,34.4215933 95.5408462,34.1058923 96.4225938,33.7672002 C97.3020643,33.4293503 98.1730494,33.0647344 99.0633136,32.7558341 C99.9424408,32.450771 100.839849,32.2023905 101.722158,31.9070603 C102.622124,31.605803 103.509705,31.2691386 104.411231,30.9715 C105.307703,30.6755148 106.210321,30.3975919 107.102457,30.0886292 C109.078239,29.4043194 111.018833,28.6065507 113.050456,28.0956892 C113.342354,28.0222856 113.218694,27.5708832 112.926078,27.6444427 C111.10537,28.1023027 109.356443,28.7906991 107.591481,29.4213211 C105.809362,30.0580262 103.991492,30.5875116 102.214427,31.2395026 C101.340416,31.5601325 100.444755,31.814097 99.5587956,32.0983838 C98.6642888,32.3854783 97.7931789,32.7340595 96.9184814,33.0754657 C96.0370768,33.4194612 95.1531454,33.7589645 94.2521812,34.0488041 C93.3634144,34.3347131 92.4633548,34.5844974 91.5743697,34.8699385 C90.5750141,35.1908179 89.6022372,35.5836659 88.6062507,35.9137481 C87.6086732,36.2443606 86.598711,36.5358224 85.5966101,36.8521161 C85.3104204,36.9424589 85.4326453,37.3943605 85.7209875,37.3033625" id="Fill-45" stroke="#6F41A7" stroke-width="1.24782975" fill="#6F41A7"></path>
                    <path d="M38.8512106,13.403751 C38.5470833,16.52501 37.5742753,19.5392987 36.3570173,22.4155151 C36.0510183,23.1386012 35.7072724,23.845528 35.4032075,24.5690509 C35.1017318,25.2863346 34.905261,26.0458262 34.5708426,26.7494462 C34.2388887,27.4478253 33.7974378,28.0862462 33.4437404,28.7729581 C33.0814954,29.4762974 32.8077216,30.2314527 32.5206895,30.9677971 C31.866546,32.6458785 31.2529257,34.3430517 30.4483875,35.9572131 C30.3144642,36.2259333 30.7179499,36.4632393 30.8524348,36.1933961 C31.5785781,34.7364925 32.1541708,33.2122372 32.738623,31.6948451 C33.0263102,30.9479878 33.3132798,30.1996019 33.6315388,29.4650357 C33.9464598,28.7381749 34.3946179,28.0825651 34.7700275,27.3874927 C35.1426918,26.6976301 35.3794987,25.958946 35.6470334,25.2251598 C35.9146305,24.4912175 36.2698252,23.7903739 36.5802229,23.0738389 C37.2107201,21.6183391 37.7864999,20.1374147 38.2509733,18.6200225 C38.7715991,16.9191994 39.1465407,15.1752013 39.3191468,13.403751 C39.3314379,13.2778138 39.2028179,13.169783 39.0851787,13.169783 C38.9484478,13.169783 38.8635329,13.2774395 38.8512106,13.403751" id="Fill-47" stroke="#6F41A7" stroke-width="1.24782975" fill="#6F41A7"></path>
                    <path d="M4.13330519,0.967985818 C5.92512632,2.05456477 7.90440268,2.77281557 9.8919771,3.40992625 C11.8755273,4.0457267 13.8920201,4.60684454 15.8088114,5.43144164 C16.338016,5.65913937 16.8874979,5.84662579 17.4267787,6.04930454 C17.9344894,6.24009771 18.4424809,6.43007979 18.9508467,6.61912599 C19.8538387,6.95488578 20.7579226,7.28768198 21.6634726,7.61642273 C23.0611043,8.1237903 24.462074,8.62207992 25.869314,9.10215122 C26.8289263,9.42951935 27.7914709,9.74868301 28.7593813,10.0507826 C29.3771818,10.2436035 29.9972908,10.4292805 30.6208937,10.6026353 C31.0090623,10.7105414 31.3988532,10.8123331 31.7888624,10.9134385 C32.0494404,10.9809461 32.310424,11.0480793 32.5670714,11.1295626 C34.0365157,11.5960326 35.5019981,12.0847139 36.9275812,12.6738455 C37.5569866,12.9339556 38.1597819,13.242232 38.7770521,13.5274546 C38.8574747,13.5646088 38.938958,13.6010142 39.0229994,13.6293711 C39.308794,13.7257972 39.4316948,13.2740204 39.1473768,13.1781247 C39.1154947,13.1673934 39.0845486,13.1546031 39.053228,13.1423744 C39.1408569,13.1765961 39.0197238,13.1264957 38.9905558,13.1128008 C38.8947536,13.0678789 38.8003241,13.0201183 38.7055827,12.9730439 C38.3991469,12.8207775 38.090621,12.6730968 37.778102,12.533683 C36.4030248,11.9201875 34.9780656,11.4200262 33.547616,10.953369 C33.0780265,10.8001979 32.6099967,10.6453423 32.1324523,10.5193739 C31.7853684,10.4278455 31.4374111,10.3397488 31.09092,10.2461303 C30.5361037,10.096266 29.9841262,9.93613823 29.4342388,9.76911622 C28.56681,9.50566816 27.7043724,9.22599832 26.8446489,8.93846715 C25.5608193,8.50905774 24.2830104,8.06161719 23.0085083,7.60534824 C21.2040217,6.95931558 19.4061486,6.29493983 17.6119566,5.62092459 C17.0715527,5.41790269 16.5205735,5.23050985 15.9896843,5.0036856 C15.5094571,4.79854239 15.0235834,4.60731248 14.5331863,4.42799934 C13.5579449,4.07133841 12.5675425,3.75850749 11.5765473,3.44907691 C9.59187404,2.82937346 7.58826501,2.22402005 5.71795539,1.30224821 C5.25803654,1.07557994 4.80791315,0.829819869 4.36948817,0.563938545 C4.11131219,0.407398303 3.87587792,0.811882316 4.13330519,0.967985818" id="Fill-49" stroke="#6F41A7" stroke-width="1.24782975" fill="#6F41A7"></path>
                    <path d="M30.6154157,35.9148181 C29.027178,35.3410972 27.4259317,34.8012236 25.8034411,34.3321644 C24.8747438,34.0636315 23.9377172,33.8286339 23.0024376,33.5847144 C22.6673329,33.4973351 22.3328522,33.4069299 22.0027076,33.3021434 C21.4348827,33.1219256 20.8902674,32.8789107 20.3393194,32.653771 C18.8408006,32.0414298 17.3388503,31.4367627 15.8270422,30.8578009 C14.8868025,30.4977396 13.9425073,30.1475674 12.9894462,29.8227573 C12.3410114,29.6017666 11.6868991,29.4012092 11.0328491,29.1979689 C10.8372518,29.1371684 10.6502333,29.0364374 10.4629653,28.9534879 C10.221947,28.8467049 9.98086625,28.7401714 9.73969195,28.6338563 C9.30850438,28.4437182 8.87700486,28.2542977 8.44516218,28.0657194 C7.69268964,27.7370722 6.93915645,27.4108896 6.18412587,27.0882008 C5.12131807,26.6339284 4.05576505,26.1857391 2.98475278,25.7510576 C2.39069223,25.5099769 1.79472874,25.2736068 1.19639438,25.0433198 C1.0312753,24.9798052 0.865906666,24.9168522 0.700912378,24.8530569 C0.642857098,24.830596 0.584833015,24.8081039 0.527058498,24.785019 C0.503848864,24.7757227 0.480764014,24.766208 0.457585576,24.7568805 C0.38309014,24.7269013 0.50344332,24.7784055 0.449162726,24.7534177 C0.417811003,24.7390053 0.386053736,24.7255911 0.355107558,24.7101804 C0.0863562257,24.5763195 -0.150918601,24.9798052 0.118924582,25.1142277 C0.33274021,25.22073 0.56259045,25.2991561 0.785296864,25.3845076 C1.28321213,25.5753632 1.78016033,25.7686832 2.27529917,25.966589 C3.20265505,26.3372256 4.12530036,26.7197167 5.04520046,27.1085092 C6.56312296,27.7500185 8.07436957,28.4074376 9.58212225,29.0725308 C9.82463796,29.1795322 10.0670289,29.2866896 10.3093574,29.3941278 C10.5037381,29.480228 10.6975261,29.5822069 10.90008,29.6466573 C11.0490709,29.6940748 11.1995904,29.7370938 11.3490492,29.7830139 C11.6701158,29.8817172 11.9903401,29.9832282 12.3095037,30.0880459 C13.1666068,30.3695251 14.0159109,30.6744011 14.8608788,30.9903204 C16.2093461,31.494506 17.5478618,32.0251456 18.8828525,32.5638961 C20.0316981,33.027496 21.1624503,33.5604753 22.3576528,33.8958608 C23.1820003,34.1272084 24.0162057,34.3225873 24.8422066,34.5481326 C26.2632351,34.9362076 27.6679483,35.3811525 29.0605575,35.8607559 C29.5386946,36.025407 30.0153968,36.1942384 30.4910383,36.3660645 C30.7749826,36.4685426 30.8969573,36.0165474 30.6154157,35.9148181" id="Fill-51" stroke="#6F41A7" stroke-width="1.24782975" fill="#6F41A7"></path>
                    <path d="M67.5258579,26.4824605 C68.7641105,26.5461934 70.1356002,26.6686991 71.2377146,25.9817377 C71.492771,25.8227953 71.2581167,25.4178122 71.0015629,25.5777216 C69.976034,26.21686 68.6759202,26.0737027 67.5258579,26.0145244 C67.2249125,25.9990201 67.2257548,26.4670186 67.5258579,26.4824605" id="Fill-53" stroke="#6F41A7" stroke-width="1.24782975" fill="#6F41A7"></path>
                    <circle id="Oval" fill="#FFFFFF" cx="44.921868" cy="36.1559706" r="1.87174463"></circle>
                    <circle id="Oval-Copy" fill="#FFFFFF" cx="49.2892722" cy="38.6516301" r="1.87174463"></circle>
                    <circle id="Oval-Copy-2" fill="#FFFFFF" cx="53.0327614" cy="41.1472896" r="1.24782975"></circle>
                    <path d="M45.8720374,21.186381 C46.07821,20.910361 46.2932735,20.6412665 46.4952035,20.3620334 C46.7153207,20.057563 46.9384951,19.7424548 47.0926332,19.3982409 C47.2814299,18.9766305 47.3925179,18.513904 47.5453459,18.0777875 C47.7945063,17.3666805 48.0642871,16.659317 48.4031352,15.9854266 C48.5193394,15.7543285 48.6440288,15.5271611 48.7832866,15.3090716 C48.9008945,15.1249232 48.9960103,14.9922165 49.1221659,14.8481233 C49.2242072,14.731576 50.6724384,13.8806497 51.1119241,13.7023349 C52.3433136,13.2027038 53.6115766,12.7881124 54.8898222,12.4265537 C56.0465604,12.0993104 57.2450385,11.7822056 58.4369655,11.6659391 C58.6450099,11.6456307 58.8544269,11.6320917 59.0635632,11.6363967 C59.2816838,11.6409201 59.3946124,11.6592632 59.6124211,11.713263 C60.2174937,11.8631898 60.8022891,12.1041145 61.3757917,12.3447585 C62.6603076,12.883665 63.9022102,13.5166266 65.1813293,14.0670443 C66.7537819,14.7437112 68.3977664,15.3212692 70.1058894,15.5226689 C70.7646499,15.6003463 71.4149876,15.5944503 72.0744968,15.5307486 C72.9193399,15.4491093 73.7618434,15.3153108 74.5825098,15.0961919 C75.5104896,14.8484665 76.3605424,14.4639789 77.2076004,14.0209682 C77.2552675,13.9960428 77.3030594,13.9712734 77.3517872,13.9483445 C77.3662932,13.9415126 77.4372011,13.9112216 77.3964907,13.9276617 C77.3550315,13.9443514 77.4200747,13.9193325 77.4335512,13.9147467 C77.7170581,13.8182271 77.5953635,13.3661071 77.3091738,13.4635314 C77.0572682,13.5492885 76.8254838,13.696626 76.5907982,13.8193813 C76.1864078,14.0308884 75.7796777,14.2132588 75.3526079,14.366617 C74.6796845,14.6082905 73.982834,14.7799294 73.2787773,14.9021232 C72.5070258,15.0360465 71.7136868,15.1354673 70.9288643,15.1152525 C69.3824913,15.0753843 67.8584232,14.6180235 66.4233878,14.0709126 C65.0152119,13.534065 63.6719544,12.8467916 62.2953798,12.2366028 C61.6468203,11.9491341 60.9926768,11.6669686 60.320814,11.4377734 C59.8797374,11.2873164 59.4332639,11.1649667 58.9641111,11.1678367 C58.46813,11.1708938 57.9709634,11.2464187 57.4835299,11.3321134 C56.8623291,11.4413609 56.2468995,11.5833016 55.6360868,11.7401226 C54.3136992,12.0796571 53.0059736,12.4877598 51.7265114,12.964306 C51.1895703,13.1642707 50.6559671,13.3767137 50.1362148,13.6182623 C49.7878519,13.7801682 49.4344041,13.9514017 49.1316806,14.1907978 C48.3938389,14.774283 47.9739442,15.7395729 47.6190926,16.5812341 C47.4569059,16.9659088 47.3074783,17.355762 47.1666295,17.7487348 C47.0041621,18.2020401 46.8780689,18.671848 46.7051821,19.1206924 C46.5739728,19.4614123 46.3429059,19.7740873 46.1321787,20.0688558 C45.930311,20.3511461 45.7138438,20.6220812 45.5057681,20.8996609 C45.2931068,21.183355 45.0889618,21.4766262 44.8528724,21.7416964 C44.6530949,21.9659002 44.9829275,22.2979789 45.1837345,22.0725585 C45.4322398,21.7936373 45.648707,21.4853922 45.8720374,21.186381 Z" id="Fill-3" stroke="#6F41A7" stroke-width="1.24782975" fill="#6F41A7"></path>
                    <polygon id="Path-17" fill-opacity="0.249344406" fill="#6F41A7" points="4.02196547 4.72427 34.8707448 15.5667797 28.5051079 31.8488475 1.89367618 22.1456423"></polygon>
                    <polygon id="Path-18" fill-opacity="0.249344406" fill="#6F41A7" points="83.8348336 15.5667797 89.7036019 32.4758845 111.432116 25.5410272 111.432116 2.8340029"></polygon>
                </g>
                <g id="Group-10-Copy" transform="translate(176.000000, 47.000000)">
                    <path d="M52.279161,59.0565728 L52.279161,24.4870874 C51.3870407,24.2315942 50.6454789,23.5802271 50.285753,22.7165339 C49.4122331,22.1511501 48.8721178,21.1762051 48.8721178,20.1082578 L48.8721178,18.7637602 L47.7638111,18.7637602 L47.7638111,20.1082578 C47.7638111,21.1762051 47.2236957,22.1511501 46.349825,22.7165339 C45.990801,23.5802271 45.2488882,24.2315942 44.3567679,24.4870874 L44.3567679,59.0565728 L44.3567679,64.742699 L52.279161,64.742699 L52.279161,59.0565728 Z" id="Fill-1" fill-opacity="0.226644449" fill="#6F41A7"></path>
                    <path d="M36.7136976,24.4871225 C35.8215773,24.2312784 35.0796645,23.5802622 34.7202896,22.716569 C33.8467698,22.1511852 33.3066544,21.1762402 33.3066544,20.1079419 L33.3066544,18.7637953 L32.1983477,18.7637953 L32.1983477,20.1079419 C32.1983477,21.1762402 31.6582323,22.1511852 30.7843616,22.716569 C30.4249866,23.5802622 29.6834248,24.2312784 28.7913045,24.4871225 L28.7913045,59.0566079 L28.7913045,64.7427341 L36.7136976,64.7427341 L36.7136976,59.0566079 L36.7136976,24.4871225 Z" id="Fill-3" fill-opacity="0.226644449" fill="#6F41A7"></path>
                    <path d="M19.1546156,22.716569 C18.2807448,22.1511852 17.7409805,21.1762402 17.7409805,20.1079419 L17.7409805,18.7637953 L16.6323227,18.7637953 L16.6323227,20.1079419 C16.6323227,21.1762402 16.0929093,22.1511852 15.2190386,22.716569 C14.8610674,23.5802622 14.1177508,24.2312784 13.2252796,24.4871225 L13.2252796,59.0566079 L13.2252796,64.7427341 L21.1480236,64.7427341 L21.1480236,59.0566079 L21.1480236,24.4871225 C20.2559033,24.2312784 19.5143415,23.5802622 19.1546156,22.716569" id="Fill-5" fill-opacity="0.226644449" fill="#6F41A7"></path>
                    <g id="Group-9" transform="translate(0.000000, 0.206009)">
                        <mask id="mask-2" fill="white">
                            <use xlink:href="#path-1"></use>
                        </mask>
                        <g id="Clip-8"></g>
                        <path d="M64.5230732,14.4345553 C64.1675587,14.1955569 63.73308,14.0537722 63.2754384,14.0537722 L61.3416922,14.0537722 L60.2263664,9.21414255 L60.2263664,9.21695017 C60.0856346,8.60348587 59.759951,8.06898579 59.3040642,7.68258751 C59.0766473,7.4892129 58.8151879,7.33023159 58.5298639,7.22178738 C58.2452417,7.11404508 57.9357019,7.05438322 57.6187922,7.05438322 L54.8750485,7.05438322 C54.0457487,7.05438322 53.2171507,7.01191802 52.394519,6.92382903 C51.7947418,6.86100861 51.2563812,7.29583828 51.1939118,7.89561545 C51.1296875,8.49504166 51.5645172,9.0319984 52.1642944,9.09762645 C53.0637846,9.19133066 53.9685392,9.23976206 54.8750485,9.23976206 L57.6187922,9.23976206 C57.6658198,9.23976206 57.7096888,9.24537729 57.7553125,9.26257394 C57.8219934,9.29100106 57.8928858,9.33627389 57.9557062,9.41032478 C58.0167719,9.48437568 58.0694147,9.58088751 58.0974909,9.70301885 L58.0974909,9.70582647 L59.100863,14.0537722 L33.8438919,14.0537722 L33.8438919,13.0163578 L34.0835922,13.0163578 C34.4573562,13.0163578 34.8195388,12.9394993 35.1462753,12.8001713 C35.6383101,12.5931095 36.0531355,12.2463688 36.3468824,11.8143468 C36.6413313,11.3767095 36.8147016,10.8478247 36.8147016,10.2855994 C36.8147016,9.9100806 36.7378431,9.54965278 36.6002699,9.22221445 C36.3911024,8.72807387 36.0457655,8.31324847 35.6112868,8.02090535 C35.1764571,7.72821129 34.6451156,7.55168237 34.0835922,7.55168237 L31.6837817,7.55168237 C31.6044665,7.55168237 31.5360308,7.54010095 31.4707537,7.51202478 C31.3742419,7.47201624 31.2875567,7.3983163 31.2292987,7.31303493 C31.1692859,7.22178738 31.1369983,7.12281888 31.1352435,7.00595183 L31.1352435,6.96664519 C31.1352435,6.88662811 31.1510363,6.8185434 31.1780597,6.75607392 C31.2191211,6.65956209 31.2903643,6.57147311 31.3784533,6.51181125 C31.4665423,6.45495701 31.5658618,6.42091465 31.6837817,6.42091465 L35.7232405,6.42091465 C36.3258253,6.42091465 36.8147016,5.9316874 36.8147016,5.32980452 C36.8147016,4.72406116 36.3258253,4.23553582 35.7232405,4.23553582 L33.8438919,4.23553582 L33.8438919,2.83734258 L44.0509833,6.92067047 L44.5953101,7.13685697 C45.1550787,7.36146632 45.790653,7.08807463 46.0145604,6.5290079 C46.237766,5.96888832 45.96648,5.33191023 45.4049566,5.10800278 L44.8609808,4.89216723 L33.1570787,0.211869793 C33.0977677,0.185899336 33.0352983,0.19151457 32.9728288,0.177125534 C32.9170274,0.163438401 32.8671922,0.152207933 32.8106889,0.145890795 C32.6713609,0.140626513 32.539052,0.157472215 32.4099016,0.202745038 C32.3902483,0.208711224 32.3674364,0.202745038 32.3474321,0.208711224 L20.6424771,4.89216723 L19.5611936,5.32383833 C16.6981263,6.46934604 13.6757266,7.05438322 10.6294622,7.05438322 L7.88606955,7.05438322 C7.56880884,7.05438322 7.25926907,7.11404508 6.97359404,7.22178738 C6.54578341,7.38392726 6.17377417,7.65416039 5.88388772,7.99774251 C5.59259746,8.34167559 5.38378095,8.75650099 5.27849532,9.21414255 L4.16316949,14.0537722 L2.22907237,14.0537722 C2.07009106,14.0537722 1.91672499,14.0821994 1.78020461,14.1243136 C1.65245804,14.1671298 1.54015337,14.2211764 1.44223773,14.2808383 C1.2562331,14.3945468 1.11830892,14.5222933 1.00460044,14.6503908 C0.804206777,14.8746492 0.667686403,15.1048738 0.548362683,15.3438722 C0.373588529,15.6962282 0.247245767,16.0601655 0.153541551,16.4125214 C0.107917776,16.5855408 0.0710678037,16.7557526 0.0440444907,16.921051 C0.0187759383,17.0884552 0.00157928453,17.2477875 -0.000175476059,17.4211578 C-0.000175476059,17.7194671 0.0594863839,18.0033874 0.166175827,18.2651977 C0.327964754,18.6568602 0.595390267,18.9923704 0.933708108,19.2341764 C0.978980931,19.2654112 1.03618613,19.2822569 1.08426657,19.310684 L1.08426657,19.9020383 C1.08426657,20.6207883 1.26605976,21.311462 1.59700761,21.9193111 C1.87425978,22.425735 2.2750471,22.8514399 2.73795294,23.209762 C2.97660038,23.6754755 3.27947206,24.1018823 3.66306272,24.4430078 C3.91294063,24.6644586 4.19440423,24.8466027 4.49130972,25.005584 L4.49130972,63.4432637 L2.22907237,63.4432637 C1.62683854,63.4432637 1.13831319,63.9314381 1.13831319,64.5368305 C1.13831319,65.1397662 1.62683854,65.6279406 2.22907237,65.6279406 L63.2754384,65.6279406 C63.8780232,65.6279406 64.3665485,65.1397662 64.3665485,64.5368305 C64.3665485,63.9314381 63.8780232,63.4432637 63.2754384,63.4432637 L61.013552,63.4432637 L61.013552,25.005584 C61.3104575,24.8466027 61.5915701,24.6644586 61.841799,24.4430078 C62.2253897,24.1018823 62.5279104,23.6754755 62.7665578,23.209762 C63.2298146,22.8514399 63.6306019,22.425735 63.9075032,21.9193111 C64.238802,21.311462 64.4205952,20.6207883 64.4205952,19.9020383 L64.4205952,19.1404722 C64.4630604,19.0944975 64.5230732,19.0551909 64.5599231,19.0123747 C64.7473316,18.7877654 64.8754291,18.5603484 64.9873828,18.3248595 C65.1537341,17.9753112 65.2730578,17.6141815 65.360094,17.2705994 C65.403963,17.1000366 65.4380053,16.9322815 65.462221,16.7701416 C65.4878405,16.605896 65.5032824,16.4518281 65.5046862,16.2844239 C65.5046862,15.9801484 65.4422168,15.6849977 65.3285083,15.4179231 C65.1579456,15.0139772 64.8782367,14.6760104 64.5230732,14.4345553 L64.5230732,14.4345553 Z M7.40701991,9.70582647 L7.40701991,9.70301885 C7.44386988,9.54087897 7.52493982,9.42155525 7.61443261,9.34469674 C7.65970543,9.30784677 7.70532921,9.2797706 7.74919822,9.26257394 C7.794822,9.24537729 7.83904197,9.23976206 7.88606955,9.23976206 L10.6294622,9.23976206 C13.9557864,9.23976206 17.2547363,8.59751968 20.3725949,7.35269252 L21.4538784,6.92067047 L31.6609698,2.83734258 L31.6609698,4.2408001 C31.2945758,4.24395867 30.940816,4.314851 30.6196948,4.45137137 C30.1280109,4.65913502 29.7131855,5.00552476 29.4190877,5.43754682 C29.1249898,5.87518411 28.9516194,6.40336704 28.9526723,6.96664519 L28.9526723,7.00595183 C28.9516194,7.38111964 29.028127,7.74224937 29.1678059,8.06898579 C29.3748677,8.56066971 29.7202046,8.97549511 30.1550342,9.27064584 C30.5898639,9.56369086 31.1212054,9.73671025 31.6837817,9.73671025 L34.0835922,9.73671025 C34.1618546,9.73671025 34.2313431,9.75109929 34.2969711,9.77952641 C34.393483,9.81953495 34.4787643,9.8932349 34.5384262,9.97851626 C34.5966842,10.0694129 34.6307266,10.1662756 34.6307266,10.2855994 C34.6307266,10.3649145 34.6149337,10.4333502 34.5882614,10.4954687 C34.5482528,10.5926825 34.4773605,10.6804205 34.3892715,10.7400824 C34.2994278,10.7972876 34.2001083,10.830979 34.0835922,10.830979 L30.0441334,10.830979 C29.4418995,10.830979 28.9526723,11.3202062 28.9526723,11.92244 C28.9526723,12.5274815 29.4418995,13.0163578 30.0441334,13.0163578 L31.6609698,13.0163578 L31.6609698,14.0537722 L6.40399876,14.0537722 L7.40701991,9.70582647 Z M2.19503002,17.2986755 C2.21257762,17.1793518 2.2508314,17.0087891 2.30312327,16.8329621 C2.341728,16.7020569 2.38840463,16.5715027 2.43964364,16.4549866 C2.47508981,16.3721619 2.51053597,16.2988129 2.54457833,16.2391511 L4.45867117,16.2391511 L32.7510271,16.2391511 L32.7524309,16.2391511 L32.7538347,16.2391511 L61.0458396,16.2391511 L63.2754384,16.2391511 C63.2838612,16.2391511 63.2880727,16.2416077 63.2926351,16.2416077 L63.3136922,16.2584534 C63.3179036,16.2672273 63.3210622,16.2700349 63.3210622,16.2844239 C63.3210622,16.2872315 63.3179036,16.3384705 63.3094808,16.4065552 C63.2926351,16.5227204 63.2568379,16.6936341 63.2070027,16.8670044 C63.1701528,16.9975586 63.1248799,17.1312714 63.0764485,17.2477875 C63.0424062,17.3330688 63.0080129,17.4039612 62.9753743,17.463623 L2.22240428,17.463623 L2.21117381,17.4608154 L2.18976574,17.4436187 C2.18660717,17.4351959 2.18379955,17.4351959 2.18379955,17.4211578 C2.18379955,17.4155426 2.18660717,17.3667602 2.19503002,17.2986755 L2.19503002,17.2986755 Z M46.6711918,19.9020383 C46.6711918,20.2543943 46.5845067,20.5811307 46.4255253,20.8710171 C46.2675969,21.1609036 46.0391271,21.4107815 45.7559087,21.5953823 C45.5727117,21.714706 45.4267156,21.8912349 45.3414343,22.0898738 C45.2277258,22.3657222 45.0515478,22.6099849 44.8297461,22.8061671 C44.6293524,22.9823451 44.3864935,23.1044764 44.1320533,23.1897578 L36.9382368,23.1897578 C36.6841474,23.1044764 36.4409376,22.9823451 36.240544,22.8061671 C36.0187422,22.6099849 35.8425643,22.3657222 35.727452,22.0898738 C35.6435744,21.8912349 35.4972274,21.714706 35.3143813,21.5953823 C35.0315139,21.4107815 34.8026931,21.1637112 34.6437118,20.8710171 C34.4857834,20.5811307 34.3976944,20.2543943 34.3976944,19.9020383 L34.3976944,19.6461942 L46.6711918,19.6461942 L46.6711918,19.9020383 Z M29.8823444,25.005584 C30.1806537,24.8466027 30.4603626,24.6644586 30.7119953,24.4430078 C31.0955859,24.1018823 31.3984576,23.6754755 31.637105,23.209762 C32.0891314,22.8630213 32.4769334,22.4450374 32.7524309,21.9533535 C33.0279283,22.4450374 33.4157304,22.8602137 33.8677567,23.209762 C34.1064041,23.6754755 34.4089249,24.1018823 34.7928665,24.4430078 C35.0441482,24.6644586 35.324208,24.8466027 35.6225173,25.005584 L35.6225173,57.7592432 L29.8823444,57.7592432 L29.8823444,25.005584 Z M31.1071673,19.9020383 C31.1071673,20.2543943 31.0190784,20.5811307 30.8611499,20.8710171 C30.7021686,21.1609036 30.4733478,21.4107815 30.1904804,21.5953823 C30.0072834,21.714706 29.8609364,21.8912349 29.7770588,22.0898738 C29.6619465,22.3657222 29.4857686,22.6099849 29.2643178,22.8061671 C29.0639241,22.9823451 28.8210652,23.1044764 28.566274,23.1897578 L21.3724575,23.1897578 C21.1183682,23.1044764 20.8751584,22.9823451 20.6751157,22.8061671 C20.4533139,22.6099849 20.277136,22.3657222 20.1634275,22.0898738 C20.0781461,21.8912349 19.9317991,21.714706 19.7486021,21.5953823 C19.4660856,21.4107815 19.2372648,21.1637112 19.0796873,20.8710171 C18.9203551,20.5811307 18.8336699,20.2543943 18.8336699,19.9020383 L18.8336699,19.6461942 L31.1071673,19.6461942 L31.1071673,19.9020383 Z M16.0713258,23.209762 C16.5230012,22.8602137 16.912558,22.4422298 17.1870026,21.9533535 C17.4625,22.4422298 17.8503021,22.8630213 18.3023284,23.209762 C18.5409758,23.6754755 18.8449004,24.1018823 19.228491,24.4430078 C19.4787199,24.6644586 19.7598325,24.8466027 20.057089,25.005584 L20.057089,57.7592432 L14.317969,57.7592432 L14.317969,25.005584 C14.6148745,24.8466027 14.8949343,24.6644586 15.1465669,24.4430078 C15.5298067,24.1018823 15.8326783,23.6754755 16.0713258,23.209762 L16.0713258,23.209762 Z M14.317969,63.4432637 L20.057089,63.4432637 L20.057089,59.9418144 L14.317969,59.9418144 L14.317969,63.4432637 Z M22.240713,58.8507043 L22.240713,25.3751366 L27.7001242,25.3751366 L27.7001242,58.8507043 L27.7001242,63.4432637 L22.240713,63.4432637 L22.240713,58.8507043 Z M29.8823444,63.4432637 L35.6221663,63.4432637 L35.6221663,59.9418144 L29.8823444,59.9418144 L29.8823444,63.4432637 Z M37.8050885,58.8507043 L37.8050885,25.3751366 L43.2637977,25.3751366 L43.2637977,58.8507043 L43.2637977,63.4432637 L37.8050885,63.4432637 L37.8050885,58.8507043 Z M45.4477727,63.4432637 L51.1865418,63.4432637 L51.1865418,59.9418144 L45.4477727,59.9418144 L45.4477727,63.4432637 Z M51.1865418,57.7592432 L45.4477727,57.7592432 L45.4477727,25.005584 C45.7446782,24.8466027 46.0261418,24.6644586 46.2760197,24.4430078 C46.6599614,24.1018823 46.9638859,23.6754755 47.2025333,23.209762 C47.6545597,22.8630213 48.0423617,22.4422298 48.3178592,21.9533535 C48.5919528,22.4422298 48.9811587,22.8630213 49.433185,23.209762 C49.6718324,23.6754755 49.9743532,24.1018823 50.3582948,24.4430078 C50.6095765,24.6644586 50.8896363,24.8466027 51.1865418,25.005584 L51.1865418,57.7592432 Z M3.51390807,20.8710171 C3.35597962,20.5811307 3.26789064,20.2543943 3.26789064,19.9020383 L3.26789064,19.6461942 L15.5413881,19.6461942 L15.5413881,19.9020383 C15.5413881,20.2543943 15.4536501,20.5811307 15.2957216,20.8710171 C15.1381441,21.1609036 14.9093233,21.4107815 14.6250521,21.5953823 C14.4415041,21.714706 14.2951571,21.8912349 14.2116305,22.0898738 C14.0965182,22.3657222 13.9203403,22.6099849 13.6985385,22.8061671 C13.4995487,22.9823451 13.2566898,23.1044764 13.0026005,23.1897578 L5.80702921,23.1897578 C5.55258892,23.1044764 5.30973006,22.9823451 5.11109116,22.8061671 C4.88928942,22.6099849 4.71311146,22.3657222 4.59799916,22.0898738 C4.51412161,21.8912349 4.36637077,21.714706 4.18457757,21.5953823 C3.90030635,21.4107815 3.67148557,21.1637112 3.51390807,20.8710171 L3.51390807,20.8710171 Z M6.67528474,25.3751366 L12.1343449,25.3751366 L12.1343449,58.8507043 L12.1343449,63.4432637 L6.67528474,63.4432637 L6.67528474,25.3751366 Z M53.3705168,63.4432637 L53.3705168,58.8507043 L53.3705168,25.3751366 L58.829577,25.3751366 L58.829577,63.4432637 L53.3705168,63.4432637 Z M61.3202842,21.5953823 C61.138491,21.714706 60.9907401,21.8912349 60.9068626,22.0898738 C60.7917503,22.3657222 60.6155723,22.6099849 60.3937706,22.8061671 C60.1951317,22.9823451 59.9522728,23.1044764 59.6978325,23.1897578 L52.5026122,23.1897578 C52.2481719,23.1044764 52.0053131,22.9823451 51.8059723,22.8061671 C51.5845215,22.6099849 51.4083435,22.3657222 51.2932312,22.0898738 C51.2093537,21.8912349 51.0630066,21.714706 50.8798096,21.5953823 C50.5955384,21.4107815 50.3667176,21.1637112 50.2091401,20.8710171 C50.0515626,20.5811307 49.9631227,20.2543943 49.9631227,19.9020383 L49.9631227,19.6461942 L62.2366201,19.6461942 L62.2366201,19.9020383 C62.2366201,20.2543943 62.1485311,20.5811307 61.9909536,20.8710171 C61.8330252,21.1609036 61.6045554,21.4107815 61.3202842,21.5953823 L61.3202842,21.5953823 Z" id="Fill-7" fill="#6F41A7" mask="url(#mask-2)"></path>
                    </g>
                </g>
                <g id="Group-5-Copy-3" transform="translate(164.000000, 150.000000)">
                    <g id="Group-25">
                        <path d="M0,44.921871 L86.1002527,44.921871 L86.1002527,0 L0,0 L0,44.921871 Z M1.2622255,43.6600353 L84.8377222,43.6600353 L84.8377222,1.26183575 L1.2622255,1.26183575 L1.2622255,43.6600353 Z" id="Fill-1" stroke="#6F41A7" stroke-width="0.623914875" fill="#6F41A7"></path>
                        <polygon id="Fill-2" stroke="#6F41A7" stroke-width="0.623914875" fill="#6F41A7" points="8.73480825 44.2979561 9.982638 44.2979561 9.982638 1.24782975 8.73480825 1.24782975"></polygon>
                        <polygon id="Fill-3" stroke="#6F41A7" stroke-width="0.623914875" fill="#6F41A7" points="4.36740412 25.5805099 5.61523387 25.5805099 5.61523387 19.3413611 4.36740412 19.3413611"></polygon>
                        <polygon id="Fill-4" stroke="#6F41A7" stroke-width="0.623914875" fill="#6F41A7" points="4.36740412 13.1022124 5.61523387 13.1022124 5.61523387 6.86306363 4.36740412 6.86306363"></polygon>
                        <polygon id="Fill-5" stroke="#6F41A7" stroke-width="0.623914875" fill="#6F41A7" points="4.36740412 38.0588074 5.61523387 38.0588074 5.61523387 31.8196586 4.36740412 31.8196586"></polygon>
                        <g id="Group-24">
                            <path d="M25.3009631,9.81804799 C21.8548195,9.81804799 19.0511515,12.61965 19.0511515,16.063254 C19.0511515,19.5067058 21.8548195,22.3083077 25.3009631,22.3083077 C28.7471067,22.3083077 31.5507747,19.5067058 31.5507747,16.063254 C31.5507747,12.61965 28.7471067,9.81804799 25.3009631,9.81804799 M25.3009631,23.5687088 C21.1593124,23.5687088 17.7899733,20.2017004 17.7899733,16.063254 C17.7899733,11.9246553 21.1593124,8.55779916 25.3009631,8.55779916 C29.4424615,8.55779916 32.8119529,11.9246553 32.8119529,16.063254 C32.8119529,20.2017004 29.4424615,23.5687088 25.3009631,23.5687088" id="Fill-6" stroke="#6F41A7" stroke-width="0.623914875" fill="#6F41A7"></path>
                            <polygon id="Fill-8" stroke="#6F41A7" stroke-width="0.623914875" fill="#6F41A7" points="24.4282875 19.2422301 21.4638482 16.2799754 22.3557859 15.3889996 24.4282875 17.4598217 28.5614044 13.3297505 29.4531897 14.2208786"></polygon>
                            <mask id="mask-4" fill="white">
                                <use xlink:href="#path-3"></use>
                            </mask>
                            <use id="Clip-11" stroke="#6F41A7" stroke-width="0.623914875" xlink:href="#path-3"></use>
                            <polygon id="Fill-10" stroke="#6F41A7" stroke-width="0.623914875" fill="#6F41A7" mask="url(#mask-4)" points="36.6777933 16.9162061 46.0052699 16.9162061 46.0052699 15.6559573 36.6777933 15.6559573"></polygon>
                            <polygon id="Fill-12" stroke="#6F41A7" stroke-width="0.623914875" fill="#6F41A7" mask="url(#mask-4)" points="40.0701433 20.0668282 46.0052699 20.0668282 46.0052699 18.8065794 40.0701433 18.8065794"></polygon>
                            <polygon id="Fill-13" stroke="#6F41A7" stroke-width="0.623914875" fill="#6F41A7" mask="url(#mask-4)" points="40.0701433 13.7654318 46.0052699 13.7654318 46.0052699 12.5051829 40.0701433 12.5051829"></polygon>
                            <polygon id="Fill-14" stroke="#6F41A7" stroke-width="0.623914875" fill="#6F41A7" mask="url(#mask-4)" points="36.6777933 29.0335382 46.0052699 29.0335382 46.0052699 27.7732894 36.6777933 27.7732894"></polygon>
                            <polygon id="Fill-15" stroke="#6F41A7" stroke-width="0.623914875" fill="#6F41A7" mask="url(#mask-4)" points="56.4218766 36.4205211 65.7495056 36.4205211 65.7495056 35.1604246 56.4218766 35.1604246"></polygon>
                            <polygon id="Fill-16" stroke="#6F41A7" stroke-width="0.623914875" fill="#6F41A7" mask="url(#mask-4)" points="67.2734039 36.4205211 72.3380798 36.4205211 72.3380798 35.1604246 67.2734039 35.1604246"></polygon>
                            <polygon id="Fill-17" stroke="#6F41A7" stroke-width="0.623914875" fill="#6F41A7" mask="url(#mask-4)" points="73.8621305 36.4205211 77.0981284 36.4205211 77.0981284 35.1604246 73.8621305 35.1604246"></polygon>
                            <polygon id="Fill-18" stroke="#6F41A7" stroke-width="0.623914875" fill="#6F41A7" mask="url(#mask-4)" points="62.5135076 29.0335382 65.7495056 29.0335382 65.7495056 27.7732894 62.5135076 27.7732894"></polygon>
                            <polygon id="Fill-19" stroke="#6F41A7" stroke-width="0.623914875" fill="#6F41A7" mask="url(#mask-4)" points="17.7899885 36.4205211 46.0052699 36.4205211 46.0052699 35.1604246 17.7899885 35.1604246"></polygon>
                            <polygon id="Fill-20" stroke="#6F41A7" stroke-width="0.623914875" fill="#6F41A7" mask="url(#mask-4)" points="17.7898361 29.0335382 32.8118158 29.0335382 32.8118158 27.7732894 17.7898361 27.7732894"></polygon>
                            <polygon id="Fill-21" stroke="#6F41A7" stroke-width="0.623914875" fill="#6F41A7" mask="url(#mask-4)" points="67.2734039 29.0335382 77.0981284 29.0335382 77.0981284 27.7732894 67.2734039 27.7732894"></polygon>
                            <path d="M71.7267985,12.0031848 L71.7267985,10.4309194 L73.1609391,10.4309194 L73.1609391,12.0196308 C73.8930199,12.0741462 74.6196146,12.1997751 75.3408756,12.3963654 L75.3408756,13.7065613 C74.3300739,13.3790123 73.3110431,13.2151617 72.2840881,13.2151617 C70.8528428,13.2151617 70.1370678,13.624636 70.1370678,14.4434322 C70.1370678,15.2078654 70.5876845,15.5899298 71.4890703,15.5899298 L72.7183991,15.5899298 C74.6851422,15.5899298 75.6685138,16.436136 75.6685138,18.1285484 C75.6685138,19.4988939 74.8326555,20.2959145 73.1609391,20.5196102 L73.1609391,22.1410613 L71.7267985,22.1410613 L71.7267985,20.5770188 C70.820079,20.5497611 69.9211314,20.4160615 69.03087,20.1757675 L69.03087,18.8654194 C70.041367,19.1929684 71.0631408,19.356819 72.0955819,19.356819 C73.4669379,19.356819 74.1525397,18.947497 74.1525397,18.1285484 C74.1525397,17.3642675 73.6744929,16.9820509 72.7183991,16.9820509 L71.4890703,16.9820509 C69.6317431,16.9820509 68.7029271,16.1358447 68.7029271,14.4434322 C68.7029271,12.9367984 69.7108334,12.1233318 71.7267985,12.0031848" id="Fill-22" stroke="#6F41A7" stroke-width="0.623914875" fill="#6F41A7" mask="url(#mask-4)"></path>
                            <path d="M51.5959955,20.0668282 L62.5135076,20.0668282 L62.5135076,12.5051829 L51.5959955,12.5051829 L51.5959955,20.0668282 Z M52.8571737,18.8065794 L61.2523294,18.8065794 L61.2523294,13.765584 L52.8571737,13.765584 L52.8571737,18.8065794 Z" id="Fill-23" stroke="#6F41A7" stroke-width="0.623914875" fill="#6F41A7" mask="url(#mask-4)"></path>
                        </g>
                    </g>
                    <rect id="Rectangle" fill-opacity="0.261882649" fill="#6F41A7" x="15.5978719" y="9.982638" width="55.5284239" height="29.3239991"></rect>
                </g>
                <circle id="Oval-Copy-5" stroke="#6F41A7" cx="148" cy="148" r="147.5"></circle>
            </g>
            <g id="entypo-arrow-bold-up-copy-5" transform="translate(148.000000, 329.000000) rotate(180.000000) translate(-148.000000, -329.000000) translate(114.000000, 295.000000)" fill-rule="nonzero">
                <g id="Icon" transform="translate(9.000000, 8.000000)" fill="#6F41A7" fill-opacity="0.218558785">
                    <polygon id="Icon-Path" points="25.4644327 0.2638625 50.6753324 25.724195 38.9102459 25.724195 38.9102459 49.487172 12.0186195 49.487172 12.0186195 25.724195 0.25353295 25.724195"></polygon>
                </g>
                <rect id="ViewBox" x="0" y="0" width="68" height="68"></rect>
            </g>
        </g>
    </g>
</svg>