<?xml version="1.0" encoding="UTF-8"?>
<svg width="264px" height="75px" viewBox="0 0 264 75" version="1.1" xmlns="http://www.w3.org/2000/svg" xmlns:xlink="http://www.w3.org/1999/xlink">
    <title>law 3 - B loan mobile</title>
    <g id="SVG-2.0" stroke="none" stroke-width="1" fill="none" fill-rule="evenodd">
        <g id="viz-3-mobile-outline" transform="translate(-36.000000, -1412.000000)">
            <g id="law-3---B-loan-mobile" transform="translate(36.000000, 1412.000000)">
                <path d="M4.044,58.144 C4.556,58.144 5.024,58.05 5.448,57.862 C5.872,57.674 6.238,57.402 6.546,57.046 C6.854,56.69 7.092,56.26 7.26,55.756 C7.428,55.252 7.512,54.68 7.512,54.04 C7.512,53.408 7.428,52.842 7.26,52.342 C7.092,51.842 6.854,51.42 6.546,51.076 C6.238,50.732 5.872,50.468 5.448,50.284 C5.024,50.1 4.556,50.008 4.044,50.008 C3.532,50.008 3.064,50.1 2.64,50.284 C2.216,50.468 1.852,50.732 1.548,51.076 C1.244,51.42 1.008,51.842 0.84,52.342 C0.672,52.842 0.588,53.408 0.588,54.04 C0.588,54.68 0.672,55.252 0.84,55.756 C1.008,56.26 1.244,56.69 1.548,57.046 C1.852,57.402 2.216,57.674 2.64,57.862 C3.064,58.05 3.532,58.144 4.044,58.144 Z M4.044,56.932 C3.732,56.932 3.452,56.864 3.204,56.728 C2.956,56.592 2.744,56.398 2.568,56.146 C2.392,55.894 2.256,55.59 2.16,55.234 C2.064,54.878 2.016,54.48 2.016,54.04 C2.016,53.16 2.198,52.47 2.562,51.97 C2.926,51.47 3.42,51.22 4.044,51.22 C4.668,51.22 5.162,51.47 5.526,51.97 C5.89,52.47 6.072,53.16 6.072,54.04 C6.072,54.48 6.024,54.878 5.928,55.234 C5.832,55.59 5.696,55.894 5.52,56.146 C5.344,56.398 5.132,56.592 4.884,56.728 C4.636,56.864 4.356,56.932 4.044,56.932 Z M10.716,58.144 C11.124,58.144 11.478,58.052 11.778,57.868 C12.078,57.684 12.356,57.44 12.612,57.136 L12.612,57.136 L12.648,57.136 L12.756,58 L13.884,58 L13.884,52.108 L12.504,52.108 L12.504,56.14 C12.28,56.428 12.07,56.636 11.874,56.764 C11.678,56.892 11.452,56.956 11.196,56.956 C10.876,56.956 10.644,56.856 10.5,56.656 C10.356,56.456 10.284,56.112 10.284,55.624 L10.284,55.624 L10.284,52.108 L8.904,52.108 L8.904,55.804 C8.904,56.556 9.048,57.134 9.336,57.538 C9.624,57.942 10.084,58.144 10.716,58.144 Z M17.712,58.144 C17.944,58.144 18.162,58.122 18.366,58.078 C18.57,58.034 18.752,57.984 18.912,57.928 L18.912,57.928 L18.672,56.908 C18.584,56.948 18.486,56.98 18.378,57.004 C18.27,57.028 18.164,57.04 18.06,57.04 C17.508,57.04 17.232,56.696 17.232,56.008 L17.232,56.008 L17.232,53.2 L18.732,53.2 L18.732,52.108 L17.232,52.108 L17.232,50.5 L16.08,50.5 L15.912,52.108 L15,52.168 L15,53.2 L15.84,53.2 L15.84,56.008 C15.84,56.328 15.874,56.618 15.942,56.878 C16.01,57.138 16.118,57.362 16.266,57.55 C16.414,57.738 16.606,57.884 16.842,57.988 C17.078,58.092 17.368,58.144 17.712,58.144 Z M21.312,58.144 C21.616,58.144 21.86,58.104 22.044,58.024 L22.044,58.024 L21.864,56.992 C21.808,57.008 21.766,57.016 21.738,57.016 L21.738,57.016 L21.648,57.016 C21.576,57.016 21.508,56.982 21.444,56.914 C21.38,56.846 21.348,56.728 21.348,56.56 L21.348,56.56 L21.348,49.528 L19.968,49.528 L19.968,56.488 C19.968,57 20.068,57.404 20.268,57.7 C20.468,57.996 20.816,58.144 21.312,58.144 Z M24.648,58.144 C25,58.144 25.326,58.068 25.626,57.916 C25.926,57.764 26.208,57.576 26.472,57.352 L26.472,57.352 L26.52,57.352 L26.616,58 L27.756,58 L27.756,54.508 C27.756,53.684 27.574,53.054 27.21,52.618 C26.846,52.182 26.296,51.964 25.56,51.964 C25.088,51.964 24.648,52.04 24.24,52.192 C23.832,52.344 23.464,52.524 23.136,52.732 L23.136,52.732 L23.64,53.656 C23.904,53.496 24.174,53.36 24.45,53.248 C24.726,53.136 25.008,53.08 25.296,53.08 C25.496,53.08 25.664,53.11 25.8,53.17 C25.936,53.23 26.046,53.314 26.13,53.422 C26.214,53.53 26.274,53.654 26.31,53.794 C26.346,53.934 26.368,54.08 26.376,54.232 C25.768,54.296 25.246,54.388 24.81,54.508 C24.374,54.628 24.014,54.776 23.73,54.952 C23.446,55.128 23.238,55.338 23.106,55.582 C22.974,55.826 22.908,56.104 22.908,56.416 C22.908,56.936 23.068,57.354 23.388,57.67 C23.708,57.986 24.128,58.144 24.648,58.144 Z M25.092,57.064 C24.844,57.064 24.64,57.004 24.48,56.884 C24.32,56.764 24.24,56.572 24.24,56.308 C24.24,56.164 24.276,56.028 24.348,55.9 C24.42,55.772 24.54,55.658 24.708,55.558 C24.876,55.458 25.096,55.368 25.368,55.288 C25.64,55.208 25.976,55.144 26.376,55.096 L26.376,55.096 L26.376,56.416 C26.152,56.624 25.942,56.784 25.746,56.896 C25.55,57.008 25.332,57.064 25.092,57.064 Z M29.808,60.424 C30.128,60.424 30.41,60.374 30.654,60.274 C30.898,60.174 31.114,60.03 31.302,59.842 C31.49,59.654 31.656,59.428 31.8,59.164 C31.944,58.9 32.076,58.6 32.196,58.264 L32.196,58.264 L34.332,52.108 L33,52.108 L32.112,55 C32.04,55.264 31.966,55.538 31.89,55.822 C31.814,56.106 31.74,56.384 31.668,56.656 L31.668,56.656 L31.62,56.656 C31.532,56.376 31.446,56.094 31.362,55.81 C31.278,55.526 31.192,55.256 31.104,55 L31.104,55 L30.084,52.108 L28.68,52.108 L30.996,57.928 L30.888,58.3 C30.792,58.596 30.65,58.838 30.462,59.026 C30.274,59.214 30.024,59.308 29.712,59.308 C29.64,59.308 29.566,59.298 29.49,59.278 C29.414,59.258 29.348,59.24 29.292,59.224 L29.292,59.224 L29.04,60.304 C29.152,60.344 29.268,60.374 29.388,60.394 C29.508,60.414 29.648,60.424 29.808,60.424 Z M36.996,58.144 C37.364,58.144 37.692,58.096 37.98,58 C38.268,57.904 38.508,57.774 38.7,57.61 C38.892,57.446 39.038,57.254 39.138,57.034 C39.238,56.814 39.288,56.576 39.288,56.32 C39.288,56.048 39.238,55.814 39.138,55.618 C39.038,55.422 38.906,55.256 38.742,55.12 C38.578,54.984 38.396,54.87 38.196,54.778 C37.996,54.686 37.796,54.604 37.596,54.532 C37.436,54.476 37.282,54.42 37.134,54.364 C36.986,54.308 36.856,54.248 36.744,54.184 C36.632,54.12 36.542,54.046 36.474,53.962 C36.406,53.878 36.372,53.776 36.372,53.656 C36.372,53.472 36.442,53.318 36.582,53.194 C36.722,53.07 36.94,53.008 37.236,53.008 C37.468,53.008 37.69,53.054 37.902,53.146 C38.114,53.238 38.324,53.36 38.532,53.512 L38.532,53.512 L39.168,52.672 C38.928,52.488 38.644,52.324 38.316,52.18 C37.988,52.036 37.62,51.964 37.212,51.964 C36.548,51.964 36.024,52.128 35.64,52.456 C35.256,52.784 35.064,53.208 35.064,53.728 C35.064,53.976 35.114,54.19 35.214,54.37 C35.314,54.55 35.442,54.708 35.598,54.844 C35.754,54.98 35.932,55.096 36.132,55.192 C36.332,55.288 36.528,55.372 36.72,55.444 C36.872,55.508 37.024,55.57 37.176,55.63 C37.328,55.69 37.464,55.756 37.584,55.828 C37.704,55.9 37.8,55.982 37.872,56.074 C37.944,56.166 37.98,56.272 37.98,56.392 C37.98,56.6 37.904,56.77 37.752,56.902 C37.6,57.034 37.364,57.1 37.044,57.1 C36.74,57.1 36.458,57.042 36.198,56.926 C35.938,56.81 35.676,56.648 35.412,56.44 L35.412,56.44 L34.764,57.328 C35.052,57.56 35.394,57.754 35.79,57.91 C36.186,58.066 36.588,58.144 36.996,58.144 Z M3.384,74.32 L3.384,73.108 C3.96,73.028 4.414,72.804 4.746,72.436 C5.078,72.068 5.244,71.596 5.244,71.02 C5.244,70.588 5.162,70.234 4.998,69.958 C4.834,69.682 4.628,69.45 4.38,69.262 C4.132,69.074 3.862,68.914 3.57,68.782 C3.278,68.65 3.008,68.514 2.76,68.374 C2.512,68.234 2.306,68.072 2.142,67.888 C1.978,67.704 1.896,67.468 1.896,67.18 C1.896,66.828 2.004,66.548 2.22,66.34 C2.436,66.132 2.728,66.028 3.096,66.028 C3.424,66.028 3.694,66.088 3.906,66.208 C4.118,66.328 4.336,66.496 4.56,66.712 L4.56,66.712 L5.088,66.124 C4.872,65.892 4.63,65.692 4.362,65.524 C4.094,65.356 3.768,65.252 3.384,65.212 L3.384,65.212 L3.384,64.024 L2.664,64.024 L2.664,65.236 C2.136,65.316 1.714,65.534 1.398,65.89 C1.082,66.246 0.924,66.692 0.924,67.228 C0.924,67.62 1.006,67.942 1.17,68.194 C1.334,68.446 1.54,68.66 1.788,68.836 C2.036,69.012 2.306,69.168 2.598,69.304 C2.89,69.44 3.16,69.586 3.408,69.742 C3.656,69.898 3.862,70.082 4.026,70.294 C4.19,70.506 4.272,70.772 4.272,71.092 C4.272,71.468 4.162,71.768 3.942,71.992 C3.722,72.216 3.388,72.328 2.94,72.328 C2.572,72.328 2.234,72.25 1.926,72.094 C1.618,71.938 1.336,71.748 1.08,71.524 L1.08,71.524 L0.624,72.208 C0.88,72.44 1.188,72.642 1.548,72.814 C1.908,72.986 2.28,73.092 2.664,73.132 L2.664,73.132 L2.664,74.32 L3.384,74.32 Z M8.796,73.144 C9.148,73.144 9.476,73.094 9.78,72.994 C10.084,72.894 10.35,72.75 10.578,72.562 C10.806,72.374 10.986,72.144 11.118,71.872 C11.25,71.6 11.316,71.296 11.316,70.96 C11.316,70.696 11.274,70.456 11.19,70.24 C11.106,70.024 10.988,69.834 10.836,69.67 C10.684,69.506 10.508,69.37 10.308,69.262 C10.108,69.154 9.892,69.072 9.66,69.016 L9.66,69.016 L9.66,68.968 C10.076,68.808 10.412,68.58 10.668,68.284 C10.924,67.988 11.052,67.608 11.052,67.144 C11.052,66.832 10.996,66.556 10.884,66.316 C10.772,66.076 10.614,65.874 10.41,65.71 C10.206,65.546 9.964,65.42 9.684,65.332 C9.404,65.244 9.096,65.2 8.76,65.2 C8.304,65.2 7.898,65.29 7.542,65.47 C7.186,65.65 6.86,65.88 6.564,66.16 L6.564,66.16 L7.092,66.784 C7.324,66.552 7.574,66.364 7.842,66.22 C8.11,66.076 8.404,66.004 8.724,66.004 C9.132,66.004 9.454,66.112 9.69,66.328 C9.926,66.544 10.044,66.84 10.044,67.216 C10.044,67.416 10.008,67.604 9.936,67.78 C9.864,67.956 9.742,68.108 9.57,68.236 C9.398,68.364 9.174,68.464 8.898,68.536 C8.622,68.608 8.28,68.644 7.872,68.644 L7.872,68.644 L7.872,69.4 C8.328,69.4 8.712,69.436 9.024,69.508 C9.336,69.58 9.588,69.684 9.78,69.82 C9.972,69.956 10.11,70.118 10.194,70.306 C10.278,70.494 10.32,70.7 10.32,70.924 C10.32,71.356 10.172,71.698 9.876,71.95 C9.58,72.202 9.2,72.328 8.736,72.328 C8.28,72.328 7.898,72.236 7.59,72.052 C7.282,71.868 7.012,71.656 6.78,71.416 L6.78,71.416 L6.276,72.064 C6.404,72.208 6.55,72.344 6.714,72.472 C6.878,72.6 7.064,72.714 7.272,72.814 C7.48,72.914 7.71,72.994 7.962,73.054 C8.214,73.114 8.492,73.144 8.796,73.144 Z M14.76,73.144 C15.112,73.144 15.44,73.094 15.744,72.994 C16.048,72.894 16.314,72.75 16.542,72.562 C16.77,72.374 16.95,72.144 17.082,71.872 C17.214,71.6 17.28,71.296 17.28,70.96 C17.28,70.696 17.238,70.456 17.154,70.24 C17.07,70.024 16.952,69.834 16.8,69.67 C16.648,69.506 16.472,69.37 16.272,69.262 C16.072,69.154 15.856,69.072 15.624,69.016 L15.624,69.016 L15.624,68.968 C16.04,68.808 16.376,68.58 16.632,68.284 C16.888,67.988 17.016,67.608 17.016,67.144 C17.016,66.832 16.96,66.556 16.848,66.316 C16.736,66.076 16.578,65.874 16.374,65.71 C16.17,65.546 15.928,65.42 15.648,65.332 C15.368,65.244 15.06,65.2 14.724,65.2 C14.268,65.2 13.862,65.29 13.506,65.47 C13.15,65.65 12.824,65.88 12.528,66.16 L12.528,66.16 L13.056,66.784 C13.288,66.552 13.538,66.364 13.806,66.22 C14.074,66.076 14.368,66.004 14.688,66.004 C15.096,66.004 15.418,66.112 15.654,66.328 C15.89,66.544 16.008,66.84 16.008,67.216 C16.008,67.416 15.972,67.604 15.9,67.78 C15.828,67.956 15.706,68.108 15.534,68.236 C15.362,68.364 15.138,68.464 14.862,68.536 C14.586,68.608 14.244,68.644 13.836,68.644 L13.836,68.644 L13.836,69.4 C14.292,69.4 14.676,69.436 14.988,69.508 C15.3,69.58 15.552,69.684 15.744,69.82 C15.936,69.956 16.074,70.118 16.158,70.306 C16.242,70.494 16.284,70.7 16.284,70.924 C16.284,71.356 16.136,71.698 15.84,71.95 C15.544,72.202 15.164,72.328 14.7,72.328 C14.244,72.328 13.862,72.236 13.554,72.052 C13.246,71.868 12.976,71.656 12.744,71.416 L12.744,71.416 L12.24,72.064 C12.368,72.208 12.514,72.344 12.678,72.472 C12.842,72.6 13.028,72.714 13.236,72.814 C13.444,72.914 13.674,72.994 13.926,73.054 C14.178,73.114 14.456,73.144 14.76,73.144 Z M23.316,73 L23.316,72.148 L21.096,72.148 C20.896,72.148 20.684,72.156 20.46,72.172 C20.236,72.188 20.02,72.204 19.812,72.22 C20.268,71.748 20.686,71.302 21.066,70.882 C21.446,70.462 21.774,70.058 22.05,69.67 C22.326,69.282 22.542,68.906 22.698,68.542 C22.854,68.178 22.932,67.816 22.932,67.456 C22.932,66.776 22.728,66.23 22.32,65.818 C21.912,65.406 21.352,65.2 20.64,65.2 C20.136,65.2 19.704,65.306 19.344,65.518 C18.984,65.73 18.644,66.012 18.324,66.364 L18.324,66.364 L18.888,66.928 C19.112,66.672 19.36,66.454 19.632,66.274 C19.904,66.094 20.2,66.004 20.52,66.004 C21.008,66.004 21.372,66.144 21.612,66.424 C21.852,66.704 21.972,67.064 21.972,67.504 C21.972,67.816 21.892,68.138 21.732,68.47 C21.572,68.802 21.34,69.166 21.036,69.562 C20.732,69.958 20.356,70.388 19.908,70.852 C19.46,71.316 18.948,71.836 18.372,72.412 L18.372,72.412 L18.372,73 L23.316,73 Z M27.444,73 C27.884,73 28.288,72.952 28.656,72.856 C29.024,72.76 29.34,72.616 29.604,72.424 C29.868,72.232 30.072,71.992 30.216,71.704 C30.36,71.416 30.432,71.08 30.432,70.696 C30.432,70.152 30.284,69.724 29.988,69.412 C29.692,69.1 29.304,68.9 28.824,68.812 L28.824,68.812 L28.824,68.764 C29.2,68.644 29.486,68.426 29.682,68.11 C29.878,67.794 29.976,67.44 29.976,67.048 C29.976,66.704 29.91,66.41 29.778,66.166 C29.646,65.922 29.462,65.724 29.226,65.572 C28.99,65.42 28.706,65.308 28.374,65.236 C28.042,65.164 27.676,65.128 27.276,65.128 L27.276,65.128 L24.936,65.128 L24.936,73 L27.444,73 Z M27.096,68.476 L25.932,68.476 L25.932,65.92 L27.144,65.92 C27.76,65.92 28.222,66.016 28.53,66.208 C28.838,66.4 28.992,66.724 28.992,67.18 C28.992,67.58 28.844,67.896 28.548,68.128 C28.252,68.36 27.768,68.476 27.096,68.476 L27.096,68.476 Z M27.3,72.208 L25.932,72.208 L25.932,69.244 L27.3,69.244 C27.996,69.244 28.528,69.358 28.896,69.586 C29.264,69.814 29.448,70.172 29.448,70.66 C29.448,71.188 29.26,71.578 28.884,71.83 C28.508,72.082 27.98,72.208 27.3,72.208 L27.3,72.208 Z" id="Outlays$332B" fill="#666666" fill-rule="nonzero"></path>
                <path d="M124.456,58.64 C124.968,58.64 125.436,58.546 125.86,58.358 C126.284,58.17 126.65,57.898 126.958,57.542 C127.266,57.186 127.504,56.756 127.672,56.252 C127.84,55.748 127.924,55.176 127.924,54.536 C127.924,53.904 127.84,53.338 127.672,52.838 C127.504,52.338 127.266,51.916 126.958,51.572 C126.65,51.228 126.284,50.964 125.86,50.78 C125.436,50.596 124.968,50.504 124.456,50.504 C123.944,50.504 123.476,50.596 123.052,50.78 C122.628,50.964 122.264,51.228 121.96,51.572 C121.656,51.916 121.42,52.338 121.252,52.838 C121.084,53.338 121,53.904 121,54.536 C121,55.176 121.084,55.748 121.252,56.252 C121.42,56.756 121.656,57.186 121.96,57.542 C122.264,57.898 122.628,58.17 123.052,58.358 C123.476,58.546 123.944,58.64 124.456,58.64 Z M124.456,57.428 C124.144,57.428 123.864,57.36 123.616,57.224 C123.368,57.088 123.156,56.894 122.98,56.642 C122.804,56.39 122.668,56.086 122.572,55.73 C122.476,55.374 122.428,54.976 122.428,54.536 C122.428,53.656 122.61,52.966 122.974,52.466 C123.338,51.966 123.832,51.716 124.456,51.716 C125.08,51.716 125.574,51.966 125.938,52.466 C126.302,52.966 126.484,53.656 126.484,54.536 C126.484,54.976 126.436,55.374 126.34,55.73 C126.244,56.086 126.108,56.39 125.932,56.642 C125.756,56.894 125.544,57.088 125.296,57.224 C125.048,57.36 124.768,57.428 124.456,57.428 Z M132.232,58.64 C132.56,58.64 132.876,58.568 133.18,58.424 C133.484,58.28 133.752,58.072 133.984,57.8 C134.216,57.528 134.402,57.194 134.542,56.798 C134.682,56.402 134.752,55.952 134.752,55.448 C134.752,54.992 134.7,54.58 134.596,54.212 C134.492,53.844 134.34,53.53 134.14,53.27 C133.94,53.01 133.696,52.81 133.408,52.67 C133.12,52.53 132.792,52.46 132.424,52.46 C132.12,52.46 131.822,52.528 131.53,52.664 C131.238,52.8 130.968,52.976 130.72,53.192 L130.72,53.192 L130.756,52.208 L130.756,50.024 L129.376,50.024 L129.376,58.496 L130.468,58.496 L130.588,57.872 L130.624,57.872 C130.872,58.12 131.134,58.31 131.41,58.442 C131.686,58.574 131.96,58.64 132.232,58.64 Z M131.944,57.5 C131.768,57.5 131.578,57.464 131.374,57.392 C131.17,57.32 130.964,57.192 130.756,57.008 L130.756,57.008 L130.756,54.26 C131.204,53.82 131.636,53.6 132.052,53.6 C132.5,53.6 132.824,53.764 133.024,54.092 C133.224,54.42 133.324,54.88 133.324,55.472 C133.324,56.144 133.192,56.65 132.928,56.99 C132.664,57.33 132.336,57.5 131.944,57.5 Z M137.476,58.64 C137.78,58.64 138.024,58.6 138.208,58.52 L138.208,58.52 L138.028,57.488 C137.972,57.504 137.93,57.512 137.902,57.512 L137.902,57.512 L137.812,57.512 C137.74,57.512 137.672,57.478 137.608,57.41 C137.544,57.342 137.512,57.224 137.512,57.056 L137.512,57.056 L137.512,50.024 L136.132,50.024 L136.132,56.984 C136.132,57.496 136.232,57.9 136.432,58.196 C136.632,58.492 136.98,58.64 137.476,58.64 Z M140.08,51.572 C140.328,51.572 140.532,51.5 140.692,51.356 C140.852,51.212 140.932,51.024 140.932,50.792 C140.932,50.56 140.852,50.37 140.692,50.222 C140.532,50.074 140.328,50 140.08,50 C139.832,50 139.628,50.074 139.468,50.222 C139.308,50.37 139.228,50.56 139.228,50.792 C139.228,51.024 139.308,51.212 139.468,51.356 C139.628,51.5 139.832,51.572 140.08,51.572 Z M140.764,58.496 L140.764,52.604 L139.384,52.604 L139.384,58.496 L140.764,58.496 Z M144.58,61.1 C145.06,61.1 145.494,61.046 145.882,60.938 C146.27,60.83 146.6,60.684 146.872,60.5 C147.144,60.316 147.354,60.096 147.502,59.84 C147.65,59.584 147.724,59.312 147.724,59.024 C147.724,58.512 147.542,58.142 147.178,57.914 C146.814,57.686 146.276,57.572 145.564,57.572 L145.564,57.572 L144.52,57.572 C144.16,57.572 143.91,57.524 143.77,57.428 C143.63,57.332 143.56,57.2 143.56,57.032 C143.56,56.896 143.586,56.788 143.638,56.708 C143.69,56.628 143.76,56.548 143.848,56.468 C143.984,56.524 144.12,56.564 144.256,56.588 C144.392,56.612 144.524,56.624 144.652,56.624 C144.964,56.624 145.256,56.58 145.528,56.492 C145.8,56.404 146.036,56.276 146.236,56.108 C146.436,55.94 146.594,55.732 146.71,55.484 C146.826,55.236 146.884,54.948 146.884,54.62 C146.884,54.412 146.852,54.222 146.788,54.05 C146.724,53.878 146.644,53.736 146.548,53.624 L146.548,53.624 L147.628,53.624 L147.628,52.604 L145.516,52.604 C145.396,52.564 145.262,52.53 145.114,52.502 C144.966,52.474 144.812,52.46 144.652,52.46 C144.34,52.46 144.044,52.506 143.764,52.598 C143.484,52.69 143.238,52.826 143.026,53.006 C142.814,53.186 142.644,53.408 142.516,53.672 C142.388,53.936 142.324,54.236 142.324,54.572 C142.324,54.924 142.402,55.234 142.558,55.502 C142.714,55.77 142.892,55.98 143.092,56.132 L143.092,56.132 L143.092,56.18 C142.924,56.3 142.774,56.454 142.642,56.642 C142.51,56.83 142.444,57.04 142.444,57.272 C142.444,57.512 142.494,57.712 142.594,57.872 C142.694,58.032 142.82,58.16 142.972,58.256 L142.972,58.256 L142.972,58.304 C142.7,58.472 142.492,58.662 142.348,58.874 C142.204,59.086 142.132,59.316 142.132,59.564 C142.132,59.82 142.194,60.044 142.318,60.236 C142.442,60.428 142.612,60.588 142.828,60.716 C143.044,60.844 143.302,60.94 143.602,61.004 C143.902,61.068 144.228,61.1 144.58,61.1 Z M144.652,55.76 C144.364,55.76 144.12,55.658 143.92,55.454 C143.72,55.25 143.62,54.956 143.62,54.572 C143.62,54.196 143.72,53.908 143.92,53.708 C144.12,53.508 144.364,53.408 144.652,53.408 C144.94,53.408 145.182,53.51 145.378,53.714 C145.574,53.918 145.672,54.204 145.672,54.572 C145.672,54.956 145.572,55.25 145.372,55.454 C145.172,55.658 144.932,55.76 144.652,55.76 Z M144.796,60.2 C144.324,60.2 143.954,60.126 143.686,59.978 C143.418,59.83 143.284,59.624 143.284,59.36 C143.284,59.072 143.436,58.812 143.74,58.58 C143.956,58.636 144.224,58.664 144.544,58.664 L144.544,58.664 L145.348,58.664 C145.684,58.664 145.942,58.704 146.122,58.784 C146.302,58.864 146.392,59.02 146.392,59.252 C146.392,59.508 146.246,59.73 145.954,59.918 C145.662,60.106 145.276,60.2 144.796,60.2 Z M149.98,58.64 C150.332,58.64 150.658,58.564 150.958,58.412 C151.258,58.26 151.54,58.072 151.804,57.848 L151.804,57.848 L151.852,57.848 L151.948,58.496 L153.088,58.496 L153.088,55.004 C153.088,54.18 152.906,53.55 152.542,53.114 C152.178,52.678 151.628,52.46 150.892,52.46 C150.42,52.46 149.98,52.536 149.572,52.688 C149.164,52.84 148.796,53.02 148.468,53.228 L148.468,53.228 L148.972,54.152 C149.236,53.992 149.506,53.856 149.782,53.744 C150.058,53.632 150.34,53.576 150.628,53.576 C150.828,53.576 150.996,53.606 151.132,53.666 C151.268,53.726 151.378,53.81 151.462,53.918 C151.546,54.026 151.606,54.15 151.642,54.29 C151.678,54.43 151.7,54.576 151.708,54.728 C151.1,54.792 150.578,54.884 150.142,55.004 C149.706,55.124 149.346,55.272 149.062,55.448 C148.778,55.624 148.57,55.834 148.438,56.078 C148.306,56.322 148.24,56.6 148.24,56.912 C148.24,57.432 148.4,57.85 148.72,58.166 C149.04,58.482 149.46,58.64 149.98,58.64 Z M150.424,57.56 C150.176,57.56 149.972,57.5 149.812,57.38 C149.652,57.26 149.572,57.068 149.572,56.804 C149.572,56.66 149.608,56.524 149.68,56.396 C149.752,56.268 149.872,56.154 150.04,56.054 C150.208,55.954 150.428,55.864 150.7,55.784 C150.972,55.704 151.308,55.64 151.708,55.592 L151.708,55.592 L151.708,56.912 C151.484,57.12 151.274,57.28 151.078,57.392 C150.882,57.504 150.664,57.56 150.424,57.56 Z M156.628,58.64 C156.86,58.64 157.078,58.618 157.282,58.574 C157.486,58.53 157.668,58.48 157.828,58.424 L157.828,58.424 L157.588,57.404 C157.5,57.444 157.402,57.476 157.294,57.5 C157.186,57.524 157.08,57.536 156.976,57.536 C156.424,57.536 156.148,57.192 156.148,56.504 L156.148,56.504 L156.148,53.696 L157.648,53.696 L157.648,52.604 L156.148,52.604 L156.148,50.996 L154.996,50.996 L154.828,52.604 L153.916,52.664 L153.916,53.696 L154.756,53.696 L154.756,56.504 C154.756,56.824 154.79,57.114 154.858,57.374 C154.926,57.634 155.034,57.858 155.182,58.046 C155.33,58.234 155.522,58.38 155.758,58.484 C155.994,58.588 156.284,58.64 156.628,58.64 Z M159.58,51.572 C159.828,51.572 160.032,51.5 160.192,51.356 C160.352,51.212 160.432,51.024 160.432,50.792 C160.432,50.56 160.352,50.37 160.192,50.222 C160.032,50.074 159.828,50 159.58,50 C159.332,50 159.128,50.074 158.968,50.222 C158.808,50.37 158.728,50.56 158.728,50.792 C158.728,51.024 158.808,51.212 158.968,51.356 C159.128,51.5 159.332,51.572 159.58,51.572 Z M160.264,58.496 L160.264,52.604 L158.884,52.604 L158.884,58.496 L160.264,58.496 Z M164.44,58.64 C164.808,58.64 165.162,58.572 165.502,58.436 C165.842,58.3 166.14,58.1 166.396,57.836 C166.652,57.572 166.858,57.248 167.014,56.864 C167.17,56.48 167.248,56.044 167.248,55.556 C167.248,55.068 167.17,54.632 167.014,54.248 C166.858,53.864 166.652,53.54 166.396,53.276 C166.14,53.012 165.842,52.81 165.502,52.67 C165.162,52.53 164.808,52.46 164.44,52.46 C164.072,52.46 163.72,52.53 163.384,52.67 C163.048,52.81 162.75,53.012 162.49,53.276 C162.23,53.54 162.024,53.864 161.872,54.248 C161.72,54.632 161.644,55.068 161.644,55.556 C161.644,56.044 161.72,56.48 161.872,56.864 C162.024,57.248 162.23,57.572 162.49,57.836 C162.75,58.1 163.048,58.3 163.384,58.436 C163.72,58.572 164.072,58.64 164.44,58.64 Z M164.44,57.512 C164.008,57.512 163.67,57.334 163.426,56.978 C163.182,56.622 163.06,56.148 163.06,55.556 C163.06,54.956 163.182,54.478 163.426,54.122 C163.67,53.766 164.008,53.588 164.44,53.588 C164.872,53.588 165.212,53.766 165.46,54.122 C165.708,54.478 165.832,54.956 165.832,55.556 C165.832,56.148 165.708,56.622 165.46,56.978 C165.212,57.334 164.872,57.512 164.44,57.512 Z M169.996,58.496 L169.996,54.38 C170.244,54.14 170.466,53.958 170.662,53.834 C170.858,53.71 171.084,53.648 171.34,53.648 C171.668,53.648 171.904,53.748 172.048,53.948 C172.192,54.148 172.264,54.492 172.264,54.98 L172.264,54.98 L172.264,58.496 L173.644,58.496 L173.644,54.8 C173.644,54.048 173.5,53.47 173.212,53.066 C172.924,52.662 172.464,52.46 171.832,52.46 C171.424,52.46 171.066,52.552 170.758,52.736 C170.45,52.92 170.164,53.14 169.9,53.396 L169.9,53.396 L169.852,53.396 L169.756,52.604 L168.616,52.604 L168.616,58.496 L169.996,58.496 Z M176.98,58.64 C177.348,58.64 177.676,58.592 177.964,58.496 C178.252,58.4 178.492,58.27 178.684,58.106 C178.876,57.942 179.022,57.75 179.122,57.53 C179.222,57.31 179.272,57.072 179.272,56.816 C179.272,56.544 179.222,56.31 179.122,56.114 C179.022,55.918 178.89,55.752 178.726,55.616 C178.562,55.48 178.38,55.366 178.18,55.274 C177.98,55.182 177.78,55.1 177.58,55.028 C177.42,54.972 177.266,54.916 177.118,54.86 C176.97,54.804 176.84,54.744 176.728,54.68 C176.616,54.616 176.526,54.542 176.458,54.458 C176.39,54.374 176.356,54.272 176.356,54.152 C176.356,53.968 176.426,53.814 176.566,53.69 C176.706,53.566 176.924,53.504 177.22,53.504 C177.452,53.504 177.674,53.55 177.886,53.642 C178.098,53.734 178.308,53.856 178.516,54.008 L178.516,54.008 L179.152,53.168 C178.912,52.984 178.628,52.82 178.3,52.676 C177.972,52.532 177.604,52.46 177.196,52.46 C176.532,52.46 176.008,52.624 175.624,52.952 C175.24,53.28 175.048,53.704 175.048,54.224 C175.048,54.472 175.098,54.686 175.198,54.866 C175.298,55.046 175.426,55.204 175.582,55.34 C175.738,55.476 175.916,55.592 176.116,55.688 C176.316,55.784 176.512,55.868 176.704,55.94 C176.856,56.004 177.008,56.066 177.16,56.126 C177.312,56.186 177.448,56.252 177.568,56.324 C177.688,56.396 177.784,56.478 177.856,56.57 C177.928,56.662 177.964,56.768 177.964,56.888 C177.964,57.096 177.888,57.266 177.736,57.398 C177.584,57.53 177.348,57.596 177.028,57.596 C176.724,57.596 176.442,57.538 176.182,57.422 C175.922,57.306 175.66,57.144 175.396,56.936 L175.396,56.936 L174.748,57.824 C175.036,58.056 175.378,58.25 175.774,58.406 C176.17,58.562 176.572,58.64 176.98,58.64 Z M123.796,74.816 L123.796,73.604 C124.372,73.524 124.826,73.3 125.158,72.932 C125.49,72.564 125.656,72.092 125.656,71.516 C125.656,71.084 125.574,70.73 125.41,70.454 C125.246,70.178 125.04,69.946 124.792,69.758 C124.544,69.57 124.274,69.41 123.982,69.278 C123.69,69.146 123.42,69.01 123.172,68.87 C122.924,68.73 122.718,68.568 122.554,68.384 C122.39,68.2 122.308,67.964 122.308,67.676 C122.308,67.324 122.416,67.044 122.632,66.836 C122.848,66.628 123.14,66.524 123.508,66.524 C123.836,66.524 124.106,66.584 124.318,66.704 C124.53,66.824 124.748,66.992 124.972,67.208 L124.972,67.208 L125.5,66.62 C125.284,66.388 125.042,66.188 124.774,66.02 C124.506,65.852 124.18,65.748 123.796,65.708 L123.796,65.708 L123.796,64.52 L123.076,64.52 L123.076,65.732 C122.548,65.812 122.126,66.03 121.81,66.386 C121.494,66.742 121.336,67.188 121.336,67.724 C121.336,68.116 121.418,68.438 121.582,68.69 C121.746,68.942 121.952,69.156 122.2,69.332 C122.448,69.508 122.718,69.664 123.01,69.8 C123.302,69.936 123.572,70.082 123.82,70.238 C124.068,70.394 124.274,70.578 124.438,70.79 C124.602,71.002 124.684,71.268 124.684,71.588 C124.684,71.964 124.574,72.264 124.354,72.488 C124.134,72.712 123.8,72.824 123.352,72.824 C122.984,72.824 122.646,72.746 122.338,72.59 C122.03,72.434 121.748,72.244 121.492,72.02 L121.492,72.02 L121.036,72.704 C121.292,72.936 121.6,73.138 121.96,73.31 C122.32,73.482 122.692,73.588 123.076,73.628 L123.076,73.628 L123.076,74.816 L123.796,74.816 Z M129.208,73.64 C129.56,73.64 129.888,73.59 130.192,73.49 C130.496,73.39 130.762,73.246 130.99,73.058 C131.218,72.87 131.398,72.64 131.53,72.368 C131.662,72.096 131.728,71.792 131.728,71.456 C131.728,71.192 131.686,70.952 131.602,70.736 C131.518,70.52 131.4,70.33 131.248,70.166 C131.096,70.002 130.92,69.866 130.72,69.758 C130.52,69.65 130.304,69.568 130.072,69.512 L130.072,69.512 L130.072,69.464 C130.488,69.304 130.824,69.076 131.08,68.78 C131.336,68.484 131.464,68.104 131.464,67.64 C131.464,67.328 131.408,67.052 131.296,66.812 C131.184,66.572 131.026,66.37 130.822,66.206 C130.618,66.042 130.376,65.916 130.096,65.828 C129.816,65.74 129.508,65.696 129.172,65.696 C128.716,65.696 128.31,65.786 127.954,65.966 C127.598,66.146 127.272,66.376 126.976,66.656 L126.976,66.656 L127.504,67.28 C127.736,67.048 127.986,66.86 128.254,66.716 C128.522,66.572 128.816,66.5 129.136,66.5 C129.544,66.5 129.866,66.608 130.102,66.824 C130.338,67.04 130.456,67.336 130.456,67.712 C130.456,67.912 130.42,68.1 130.348,68.276 C130.276,68.452 130.154,68.604 129.982,68.732 C129.81,68.86 129.586,68.96 129.31,69.032 C129.034,69.104 128.692,69.14 128.284,69.14 L128.284,69.14 L128.284,69.896 C128.74,69.896 129.124,69.932 129.436,70.004 C129.748,70.076 130,70.18 130.192,70.316 C130.384,70.452 130.522,70.614 130.606,70.802 C130.69,70.99 130.732,71.196 130.732,71.42 C130.732,71.852 130.584,72.194 130.288,72.446 C129.992,72.698 129.612,72.824 129.148,72.824 C128.692,72.824 128.31,72.732 128.002,72.548 C127.694,72.364 127.424,72.152 127.192,71.912 L127.192,71.912 L126.688,72.56 C126.816,72.704 126.962,72.84 127.126,72.968 C127.29,73.096 127.476,73.21 127.684,73.31 C127.892,73.41 128.122,73.49 128.374,73.55 C128.626,73.61 128.904,73.64 129.208,73.64 Z M136.924,73.496 L136.924,71.384 L137.968,71.384 L137.968,70.592 L136.924,70.592 L136.924,65.84 L135.82,65.84 L132.544,70.736 L132.544,71.384 L135.988,71.384 L135.988,73.496 L136.924,73.496 Z M135.988,70.592 L133.588,70.592 L135.376,67.976 C135.488,67.792 135.596,67.612 135.7,67.436 C135.804,67.26 135.904,67.08 136,66.896 L136,66.896 L136.048,66.896 C136.032,67.104 136.018,67.35 136.006,67.634 C135.994,67.918 135.988,68.164 135.988,68.372 L135.988,68.372 L135.988,70.592 Z M141.304,73.64 C141.672,73.64 142.008,73.588 142.312,73.484 C142.616,73.38 142.876,73.236 143.092,73.052 C143.308,72.868 143.476,72.652 143.596,72.404 C143.716,72.156 143.776,71.888 143.776,71.6 C143.776,71.344 143.738,71.116 143.662,70.916 C143.586,70.716 143.486,70.538 143.362,70.382 C143.238,70.226 143.096,70.086 142.936,69.962 C142.776,69.838 142.612,69.728 142.444,69.632 L142.444,69.632 L142.444,69.584 C142.564,69.496 142.686,69.388 142.81,69.26 C142.934,69.132 143.046,68.988 143.146,68.828 C143.246,68.668 143.33,68.496 143.398,68.312 C143.466,68.128 143.5,67.936 143.5,67.736 C143.5,67.44 143.45,67.166 143.35,66.914 C143.25,66.662 143.106,66.446 142.918,66.266 C142.73,66.086 142.504,65.946 142.24,65.846 C141.976,65.746 141.676,65.696 141.34,65.696 C141.028,65.696 140.74,65.744 140.476,65.84 C140.212,65.936 139.984,66.07 139.792,66.242 C139.6,66.414 139.448,66.62 139.336,66.86 C139.224,67.1 139.168,67.368 139.168,67.664 C139.168,68.072 139.276,68.418 139.492,68.702 C139.708,68.986 139.956,69.228 140.236,69.428 L140.236,69.428 L140.236,69.476 C140.052,69.572 139.874,69.686 139.702,69.818 C139.53,69.95 139.378,70.102 139.246,70.274 C139.114,70.446 139.006,70.638 138.922,70.85 C138.838,71.062 138.796,71.292 138.796,71.54 C138.796,71.844 138.86,72.124 138.988,72.38 C139.116,72.636 139.29,72.858 139.51,73.046 C139.73,73.234 139.994,73.38 140.302,73.484 C140.61,73.588 140.944,73.64 141.304,73.64 Z M141.844,69.32 C141.612,69.232 141.39,69.138 141.178,69.038 C140.966,68.938 140.778,68.824 140.614,68.696 C140.45,68.568 140.32,68.422 140.224,68.258 C140.128,68.094 140.08,67.896 140.08,67.664 C140.08,67.288 140.196,66.988 140.428,66.764 C140.66,66.54 140.956,66.428 141.316,66.428 C141.74,66.428 142.068,66.558 142.3,66.818 C142.532,67.078 142.648,67.4 142.648,67.784 C142.648,68.064 142.578,68.332 142.438,68.588 C142.298,68.844 142.1,69.088 141.844,69.32 Z M141.328,72.908 C141.096,72.908 140.88,72.872 140.68,72.8 C140.48,72.728 140.306,72.626 140.158,72.494 C140.01,72.362 139.894,72.208 139.81,72.032 C139.726,71.856 139.684,71.66 139.684,71.444 C139.684,71.092 139.786,70.778 139.99,70.502 C140.194,70.226 140.448,69.984 140.752,69.776 C141.024,69.888 141.286,69.998 141.538,70.106 C141.79,70.214 142.012,70.334 142.204,70.466 C142.396,70.598 142.548,70.752 142.66,70.928 C142.772,71.104 142.828,71.316 142.828,71.564 C142.828,71.964 142.69,72.288 142.414,72.536 C142.138,72.784 141.776,72.908 141.328,72.908 Z M147.856,73.496 C148.296,73.496 148.7,73.448 149.068,73.352 C149.436,73.256 149.752,73.112 150.016,72.92 C150.28,72.728 150.484,72.488 150.628,72.2 C150.772,71.912 150.844,71.576 150.844,71.192 C150.844,70.648 150.696,70.22 150.4,69.908 C150.104,69.596 149.716,69.396 149.236,69.308 L149.236,69.308 L149.236,69.26 C149.612,69.14 149.898,68.922 150.094,68.606 C150.29,68.29 150.388,67.936 150.388,67.544 C150.388,67.2 150.322,66.906 150.19,66.662 C150.058,66.418 149.874,66.22 149.638,66.068 C149.402,65.916 149.118,65.804 148.786,65.732 C148.454,65.66 148.088,65.624 147.688,65.624 L147.688,65.624 L145.348,65.624 L145.348,73.496 L147.856,73.496 Z M147.508,68.972 L146.344,68.972 L146.344,66.416 L147.556,66.416 C148.172,66.416 148.634,66.512 148.942,66.704 C149.25,66.896 149.404,67.22 149.404,67.676 C149.404,68.076 149.256,68.392 148.96,68.624 C148.664,68.856 148.18,68.972 147.508,68.972 L147.508,68.972 Z M147.712,72.704 L146.344,72.704 L146.344,69.74 L147.712,69.74 C148.408,69.74 148.94,69.854 149.308,70.082 C149.676,70.31 149.86,70.668 149.86,71.156 C149.86,71.684 149.672,72.074 149.296,72.326 C148.92,72.578 148.392,72.704 147.712,72.704 L147.712,72.704 Z" id="Obligations$348B" fill="#666666" fill-rule="nonzero"></path>
                <path d="M205.312,58.64 C205.768,58.64 206.178,58.574 206.542,58.442 C206.906,58.31 207.218,58.1 207.478,57.812 C207.738,57.524 207.936,57.154 208.072,56.702 C208.208,56.25 208.276,55.7 208.276,55.052 L208.276,55.052 L208.276,50.648 L206.944,50.648 L206.944,55.16 C206.944,55.584 206.904,55.942 206.824,56.234 C206.744,56.526 206.632,56.76 206.488,56.936 C206.344,57.112 206.172,57.238 205.972,57.314 C205.772,57.39 205.552,57.428 205.312,57.428 C205.072,57.428 204.856,57.39 204.664,57.314 C204.472,57.238 204.306,57.112 204.166,56.936 C204.026,56.76 203.918,56.526 203.842,56.234 C203.766,55.942 203.728,55.584 203.728,55.16 L203.728,55.16 L203.728,50.648 L202.336,50.648 L202.336,55.052 C202.336,55.7 202.406,56.25 202.546,56.702 C202.686,57.154 202.886,57.524 203.146,57.812 C203.406,58.1 203.718,58.31 204.082,58.442 C204.446,58.574 204.856,58.64 205.312,58.64 Z M211.492,58.496 L211.492,54.38 C211.74,54.14 211.962,53.958 212.158,53.834 C212.354,53.71 212.58,53.648 212.836,53.648 C213.164,53.648 213.4,53.748 213.544,53.948 C213.688,54.148 213.76,54.492 213.76,54.98 L213.76,54.98 L213.76,58.496 L215.14,58.496 L215.14,54.8 C215.14,54.048 214.996,53.47 214.708,53.066 C214.42,52.662 213.96,52.46 213.328,52.46 C212.92,52.46 212.562,52.552 212.254,52.736 C211.946,52.92 211.66,53.14 211.396,53.396 L211.396,53.396 L211.348,53.396 L211.252,52.604 L210.112,52.604 L210.112,58.496 L211.492,58.496 Z M219.244,58.64 C219.612,58.64 219.966,58.572 220.306,58.436 C220.646,58.3 220.944,58.1 221.2,57.836 C221.456,57.572 221.662,57.248 221.818,56.864 C221.974,56.48 222.052,56.044 222.052,55.556 C222.052,55.068 221.974,54.632 221.818,54.248 C221.662,53.864 221.456,53.54 221.2,53.276 C220.944,53.012 220.646,52.81 220.306,52.67 C219.966,52.53 219.612,52.46 219.244,52.46 C218.876,52.46 218.524,52.53 218.188,52.67 C217.852,52.81 217.554,53.012 217.294,53.276 C217.034,53.54 216.828,53.864 216.676,54.248 C216.524,54.632 216.448,55.068 216.448,55.556 C216.448,56.044 216.524,56.48 216.676,56.864 C216.828,57.248 217.034,57.572 217.294,57.836 C217.554,58.1 217.852,58.3 218.188,58.436 C218.524,58.572 218.876,58.64 219.244,58.64 Z M219.244,57.512 C218.812,57.512 218.474,57.334 218.23,56.978 C217.986,56.622 217.864,56.148 217.864,55.556 C217.864,54.956 217.986,54.478 218.23,54.122 C218.474,53.766 218.812,53.588 219.244,53.588 C219.676,53.588 220.016,53.766 220.264,54.122 C220.512,54.478 220.636,54.956 220.636,55.556 C220.636,56.148 220.512,56.622 220.264,56.978 C220.016,57.334 219.676,57.512 219.244,57.512 Z M226.276,58.64 C226.604,58.64 226.92,58.568 227.224,58.424 C227.528,58.28 227.796,58.072 228.028,57.8 C228.26,57.528 228.446,57.194 228.586,56.798 C228.726,56.402 228.796,55.952 228.796,55.448 C228.796,54.992 228.744,54.58 228.64,54.212 C228.536,53.844 228.384,53.53 228.184,53.27 C227.984,53.01 227.74,52.81 227.452,52.67 C227.164,52.53 226.836,52.46 226.468,52.46 C226.164,52.46 225.866,52.528 225.574,52.664 C225.282,52.8 225.012,52.976 224.764,53.192 L224.764,53.192 L224.8,52.208 L224.8,50.024 L223.42,50.024 L223.42,58.496 L224.512,58.496 L224.632,57.872 L224.668,57.872 C224.916,58.12 225.178,58.31 225.454,58.442 C225.73,58.574 226.004,58.64 226.276,58.64 Z M225.988,57.5 C225.812,57.5 225.622,57.464 225.418,57.392 C225.214,57.32 225.008,57.192 224.8,57.008 L224.8,57.008 L224.8,54.26 C225.248,53.82 225.68,53.6 226.096,53.6 C226.544,53.6 226.868,53.764 227.068,54.092 C227.268,54.42 227.368,54.88 227.368,55.472 C227.368,56.144 227.236,56.65 226.972,56.99 C226.708,57.33 226.38,57.5 225.988,57.5 Z M231.52,58.64 C231.824,58.64 232.068,58.6 232.252,58.52 L232.252,58.52 L232.072,57.488 C232.016,57.504 231.974,57.512 231.946,57.512 L231.946,57.512 L231.856,57.512 C231.784,57.512 231.716,57.478 231.652,57.41 C231.588,57.342 231.556,57.224 231.556,57.056 L231.556,57.056 L231.556,50.024 L230.176,50.024 L230.176,56.984 C230.176,57.496 230.276,57.9 230.476,58.196 C230.676,58.492 231.024,58.64 231.52,58.64 Z M234.124,51.572 C234.372,51.572 234.576,51.5 234.736,51.356 C234.896,51.212 234.976,51.024 234.976,50.792 C234.976,50.56 234.896,50.37 234.736,50.222 C234.576,50.074 234.372,50 234.124,50 C233.876,50 233.672,50.074 233.512,50.222 C233.352,50.37 233.272,50.56 233.272,50.792 C233.272,51.024 233.352,51.212 233.512,51.356 C233.672,51.5 233.876,51.572 234.124,51.572 Z M234.808,58.496 L234.808,52.604 L233.428,52.604 L233.428,58.496 L234.808,58.496 Z M238.624,61.1 C239.104,61.1 239.538,61.046 239.926,60.938 C240.314,60.83 240.644,60.684 240.916,60.5 C241.188,60.316 241.398,60.096 241.546,59.84 C241.694,59.584 241.768,59.312 241.768,59.024 C241.768,58.512 241.586,58.142 241.222,57.914 C240.858,57.686 240.32,57.572 239.608,57.572 L239.608,57.572 L238.564,57.572 C238.204,57.572 237.954,57.524 237.814,57.428 C237.674,57.332 237.604,57.2 237.604,57.032 C237.604,56.896 237.63,56.788 237.682,56.708 C237.734,56.628 237.804,56.548 237.892,56.468 C238.028,56.524 238.164,56.564 238.3,56.588 C238.436,56.612 238.568,56.624 238.696,56.624 C239.008,56.624 239.3,56.58 239.572,56.492 C239.844,56.404 240.08,56.276 240.28,56.108 C240.48,55.94 240.638,55.732 240.754,55.484 C240.87,55.236 240.928,54.948 240.928,54.62 C240.928,54.412 240.896,54.222 240.832,54.05 C240.768,53.878 240.688,53.736 240.592,53.624 L240.592,53.624 L241.672,53.624 L241.672,52.604 L239.56,52.604 C239.44,52.564 239.306,52.53 239.158,52.502 C239.01,52.474 238.856,52.46 238.696,52.46 C238.384,52.46 238.088,52.506 237.808,52.598 C237.528,52.69 237.282,52.826 237.07,53.006 C236.858,53.186 236.688,53.408 236.56,53.672 C236.432,53.936 236.368,54.236 236.368,54.572 C236.368,54.924 236.446,55.234 236.602,55.502 C236.758,55.77 236.936,55.98 237.136,56.132 L237.136,56.132 L237.136,56.18 C236.968,56.3 236.818,56.454 236.686,56.642 C236.554,56.83 236.488,57.04 236.488,57.272 C236.488,57.512 236.538,57.712 236.638,57.872 C236.738,58.032 236.864,58.16 237.016,58.256 L237.016,58.256 L237.016,58.304 C236.744,58.472 236.536,58.662 236.392,58.874 C236.248,59.086 236.176,59.316 236.176,59.564 C236.176,59.82 236.238,60.044 236.362,60.236 C236.486,60.428 236.656,60.588 236.872,60.716 C237.088,60.844 237.346,60.94 237.646,61.004 C237.946,61.068 238.272,61.1 238.624,61.1 Z M238.696,55.76 C238.408,55.76 238.164,55.658 237.964,55.454 C237.764,55.25 237.664,54.956 237.664,54.572 C237.664,54.196 237.764,53.908 237.964,53.708 C238.164,53.508 238.408,53.408 238.696,53.408 C238.984,53.408 239.226,53.51 239.422,53.714 C239.618,53.918 239.716,54.204 239.716,54.572 C239.716,54.956 239.616,55.25 239.416,55.454 C239.216,55.658 238.976,55.76 238.696,55.76 Z M238.84,60.2 C238.368,60.2 237.998,60.126 237.73,59.978 C237.462,59.83 237.328,59.624 237.328,59.36 C237.328,59.072 237.48,58.812 237.784,58.58 C238,58.636 238.268,58.664 238.588,58.664 L238.588,58.664 L239.392,58.664 C239.728,58.664 239.986,58.704 240.166,58.784 C240.346,58.864 240.436,59.02 240.436,59.252 C240.436,59.508 240.29,59.73 239.998,59.918 C239.706,60.106 239.32,60.2 238.84,60.2 Z M244.024,58.64 C244.376,58.64 244.702,58.564 245.002,58.412 C245.302,58.26 245.584,58.072 245.848,57.848 L245.848,57.848 L245.896,57.848 L245.992,58.496 L247.132,58.496 L247.132,55.004 C247.132,54.18 246.95,53.55 246.586,53.114 C246.222,52.678 245.672,52.46 244.936,52.46 C244.464,52.46 244.024,52.536 243.616,52.688 C243.208,52.84 242.84,53.02 242.512,53.228 L242.512,53.228 L243.016,54.152 C243.28,53.992 243.55,53.856 243.826,53.744 C244.102,53.632 244.384,53.576 244.672,53.576 C244.872,53.576 245.04,53.606 245.176,53.666 C245.312,53.726 245.422,53.81 245.506,53.918 C245.59,54.026 245.65,54.15 245.686,54.29 C245.722,54.43 245.744,54.576 245.752,54.728 C245.144,54.792 244.622,54.884 244.186,55.004 C243.75,55.124 243.39,55.272 243.106,55.448 C242.822,55.624 242.614,55.834 242.482,56.078 C242.35,56.322 242.284,56.6 242.284,56.912 C242.284,57.432 242.444,57.85 242.764,58.166 C243.084,58.482 243.504,58.64 244.024,58.64 Z M244.468,57.56 C244.22,57.56 244.016,57.5 243.856,57.38 C243.696,57.26 243.616,57.068 243.616,56.804 C243.616,56.66 243.652,56.524 243.724,56.396 C243.796,56.268 243.916,56.154 244.084,56.054 C244.252,55.954 244.472,55.864 244.744,55.784 C245.016,55.704 245.352,55.64 245.752,55.592 L245.752,55.592 L245.752,56.912 C245.528,57.12 245.318,57.28 245.122,57.392 C244.926,57.504 244.708,57.56 244.468,57.56 Z M250.672,58.64 C250.904,58.64 251.122,58.618 251.326,58.574 C251.53,58.53 251.712,58.48 251.872,58.424 L251.872,58.424 L251.632,57.404 C251.544,57.444 251.446,57.476 251.338,57.5 C251.23,57.524 251.124,57.536 251.02,57.536 C250.468,57.536 250.192,57.192 250.192,56.504 L250.192,56.504 L250.192,53.696 L251.692,53.696 L251.692,52.604 L250.192,52.604 L250.192,50.996 L249.04,50.996 L248.872,52.604 L247.96,52.664 L247.96,53.696 L248.8,53.696 L248.8,56.504 C248.8,56.824 248.834,57.114 248.902,57.374 C248.97,57.634 249.078,57.858 249.226,58.046 C249.374,58.234 249.566,58.38 249.802,58.484 C250.038,58.588 250.328,58.64 250.672,58.64 Z M255.256,58.64 C255.632,58.64 255.992,58.58 256.336,58.46 C256.68,58.34 256.992,58.188 257.272,58.004 L257.272,58.004 L256.804,57.14 C256.588,57.276 256.37,57.382 256.15,57.458 C255.93,57.534 255.692,57.572 255.436,57.572 C254.956,57.572 254.562,57.43 254.254,57.146 C253.946,56.862 253.76,56.456 253.696,55.928 L253.696,55.928 L257.44,55.928 C257.456,55.856 257.47,55.76 257.482,55.64 C257.494,55.52 257.5,55.392 257.5,55.256 C257.5,54.848 257.448,54.472 257.344,54.128 C257.24,53.784 257.086,53.488 256.882,53.24 C256.678,52.992 256.424,52.8 256.12,52.664 C255.816,52.528 255.464,52.46 255.064,52.46 C254.72,52.46 254.384,52.532 254.056,52.676 C253.728,52.82 253.438,53.024 253.186,53.288 C252.934,53.552 252.732,53.876 252.58,54.26 C252.428,54.644 252.352,55.076 252.352,55.556 C252.352,56.044 252.426,56.478 252.574,56.858 C252.722,57.238 252.928,57.56 253.192,57.824 C253.456,58.088 253.764,58.29 254.116,58.43 C254.468,58.57 254.848,58.64 255.256,58.64 Z M256.3,54.992 L253.684,54.992 C253.748,54.512 253.912,54.148 254.176,53.9 C254.44,53.652 254.748,53.528 255.1,53.528 C255.508,53.528 255.81,53.658 256.006,53.918 C256.202,54.178 256.3,54.536 256.3,54.992 L256.3,54.992 Z M260.884,58.64 C261.204,58.64 261.508,58.564 261.796,58.412 C262.084,58.26 262.336,58.076 262.552,57.86 L262.552,57.86 L262.6,57.86 L262.696,58.496 L263.836,58.496 L263.836,50.024 L262.456,50.024 L262.456,52.16 L262.504,53.108 C262.272,52.908 262.04,52.75 261.808,52.634 C261.576,52.518 261.292,52.46 260.956,52.46 C260.636,52.46 260.326,52.532 260.026,52.676 C259.726,52.82 259.46,53.024 259.228,53.288 C258.996,53.552 258.81,53.876 258.67,54.26 C258.53,54.644 258.46,55.076 258.46,55.556 C258.46,56.532 258.678,57.29 259.114,57.83 C259.55,58.37 260.14,58.64 260.884,58.64 Z M261.22,57.5 C260.788,57.5 260.458,57.334 260.23,57.002 C260.002,56.67 259.888,56.184 259.888,55.544 C259.888,54.92 260.02,54.44 260.284,54.104 C260.548,53.768 260.872,53.6 261.256,53.6 C261.456,53.6 261.654,53.636 261.85,53.708 C262.046,53.78 262.248,53.908 262.456,54.092 L262.456,54.092 L262.456,56.84 C262.072,57.28 261.66,57.5 261.22,57.5 Z M204.76,74.816 L204.76,73.604 C205.336,73.524 205.79,73.3 206.122,72.932 C206.454,72.564 206.62,72.092 206.62,71.516 C206.62,71.084 206.538,70.73 206.374,70.454 C206.21,70.178 206.004,69.946 205.756,69.758 C205.508,69.57 205.238,69.41 204.946,69.278 C204.654,69.146 204.384,69.01 204.136,68.87 C203.888,68.73 203.682,68.568 203.518,68.384 C203.354,68.2 203.272,67.964 203.272,67.676 C203.272,67.324 203.38,67.044 203.596,66.836 C203.812,66.628 204.104,66.524 204.472,66.524 C204.8,66.524 205.07,66.584 205.282,66.704 C205.494,66.824 205.712,66.992 205.936,67.208 L205.936,67.208 L206.464,66.62 C206.248,66.388 206.006,66.188 205.738,66.02 C205.47,65.852 205.144,65.748 204.76,65.708 L204.76,65.708 L204.76,64.52 L204.04,64.52 L204.04,65.732 C203.512,65.812 203.09,66.03 202.774,66.386 C202.458,66.742 202.3,67.188 202.3,67.724 C202.3,68.116 202.382,68.438 202.546,68.69 C202.71,68.942 202.916,69.156 203.164,69.332 C203.412,69.508 203.682,69.664 203.974,69.8 C204.266,69.936 204.536,70.082 204.784,70.238 C205.032,70.394 205.238,70.578 205.402,70.79 C205.566,71.002 205.648,71.268 205.648,71.588 C205.648,71.964 205.538,72.264 205.318,72.488 C205.098,72.712 204.764,72.824 204.316,72.824 C203.948,72.824 203.61,72.746 203.302,72.59 C202.994,72.434 202.712,72.244 202.456,72.02 L202.456,72.02 L202,72.704 C202.256,72.936 202.564,73.138 202.924,73.31 C203.284,73.482 203.656,73.588 204.04,73.628 L204.04,73.628 L204.04,74.816 L204.76,74.816 Z M210.148,73.64 C210.484,73.64 210.806,73.582 211.114,73.466 C211.422,73.35 211.696,73.182 211.936,72.962 C212.176,72.742 212.368,72.472 212.512,72.152 C212.656,71.832 212.728,71.464 212.728,71.048 C212.728,70.632 212.666,70.274 212.542,69.974 C212.418,69.674 212.248,69.426 212.032,69.23 C211.816,69.034 211.564,68.888 211.276,68.792 C210.988,68.696 210.68,68.648 210.352,68.648 C210.12,68.648 209.912,68.676 209.728,68.732 C209.544,68.788 209.36,68.864 209.176,68.96 L209.176,68.96 L209.38,66.692 L212.344,66.692 L212.344,65.84 L208.516,65.84 L208.264,69.524 L208.792,69.86 C209.024,69.708 209.234,69.592 209.422,69.512 C209.61,69.432 209.836,69.392 210.1,69.392 C210.596,69.392 210.992,69.54 211.288,69.836 C211.584,70.132 211.732,70.544 211.732,71.072 C211.732,71.336 211.688,71.576 211.6,71.792 C211.512,72.008 211.392,72.192 211.24,72.344 C211.088,72.496 210.91,72.614 210.706,72.698 C210.502,72.782 210.284,72.824 210.052,72.824 C209.604,72.824 209.226,72.736 208.918,72.56 C208.61,72.384 208.344,72.18 208.12,71.948 L208.12,71.948 L207.64,72.596 C207.768,72.732 207.914,72.862 208.078,72.986 C208.242,73.11 208.426,73.22 208.63,73.316 C208.834,73.412 209.062,73.49 209.314,73.55 C209.566,73.61 209.844,73.64 210.148,73.64 Z M216.112,73.64 C216.448,73.64 216.77,73.582 217.078,73.466 C217.386,73.35 217.66,73.182 217.9,72.962 C218.14,72.742 218.332,72.472 218.476,72.152 C218.62,71.832 218.692,71.464 218.692,71.048 C218.692,70.632 218.63,70.274 218.506,69.974 C218.382,69.674 218.212,69.426 217.996,69.23 C217.78,69.034 217.528,68.888 217.24,68.792 C216.952,68.696 216.644,68.648 216.316,68.648 C216.084,68.648 215.876,68.676 215.692,68.732 C215.508,68.788 215.324,68.864 215.14,68.96 L215.14,68.96 L215.344,66.692 L218.308,66.692 L218.308,65.84 L214.48,65.84 L214.228,69.524 L214.756,69.86 C214.988,69.708 215.198,69.592 215.386,69.512 C215.574,69.432 215.8,69.392 216.064,69.392 C216.56,69.392 216.956,69.54 217.252,69.836 C217.548,70.132 217.696,70.544 217.696,71.072 C217.696,71.336 217.652,71.576 217.564,71.792 C217.476,72.008 217.356,72.192 217.204,72.344 C217.052,72.496 216.874,72.614 216.67,72.698 C216.466,72.782 216.248,72.824 216.016,72.824 C215.568,72.824 215.19,72.736 214.882,72.56 C214.574,72.384 214.308,72.18 214.084,71.948 L214.084,71.948 L213.604,72.596 C213.732,72.732 213.878,72.862 214.042,72.986 C214.206,73.11 214.39,73.22 214.594,73.316 C214.798,73.412 215.026,73.49 215.278,73.55 C215.53,73.61 215.808,73.64 216.112,73.64 Z M222.256,73.64 C223.024,73.64 223.624,73.296 224.056,72.608 C224.488,71.92 224.704,70.932 224.704,69.644 C224.704,68.356 224.488,67.376 224.056,66.704 C223.624,66.032 223.024,65.696 222.256,65.696 C221.48,65.696 220.876,66.032 220.444,66.704 C220.012,67.376 219.796,68.356 219.796,69.644 C219.796,70.932 220.012,71.92 220.444,72.608 C220.876,73.296 221.48,73.64 222.256,73.64 Z M222.256,72.848 C221.808,72.848 221.446,72.594 221.17,72.086 C220.894,71.578 220.756,70.764 220.756,69.644 C220.756,69.084 220.792,68.604 220.864,68.204 C220.936,67.804 221.038,67.478 221.17,67.226 C221.302,66.974 221.46,66.788 221.644,66.668 C221.828,66.548 222.032,66.488 222.256,66.488 C222.48,66.488 222.682,66.548 222.862,66.668 C223.042,66.788 223.198,66.974 223.33,67.226 C223.462,67.478 223.564,67.804 223.636,68.204 C223.708,68.604 223.744,69.084 223.744,69.644 C223.744,70.204 223.708,70.686 223.636,71.09 C223.564,71.494 223.462,71.826 223.33,72.086 C223.198,72.346 223.042,72.538 222.862,72.662 C222.682,72.786 222.48,72.848 222.256,72.848 Z M228.82,73.496 C229.26,73.496 229.664,73.448 230.032,73.352 C230.4,73.256 230.716,73.112 230.98,72.92 C231.244,72.728 231.448,72.488 231.592,72.2 C231.736,71.912 231.808,71.576 231.808,71.192 C231.808,70.648 231.66,70.22 231.364,69.908 C231.068,69.596 230.68,69.396 230.2,69.308 L230.2,69.308 L230.2,69.26 C230.576,69.14 230.862,68.922 231.058,68.606 C231.254,68.29 231.352,67.936 231.352,67.544 C231.352,67.2 231.286,66.906 231.154,66.662 C231.022,66.418 230.838,66.22 230.602,66.068 C230.366,65.916 230.082,65.804 229.75,65.732 C229.418,65.66 229.052,65.624 228.652,65.624 L228.652,65.624 L226.312,65.624 L226.312,73.496 L228.82,73.496 Z M228.472,68.972 L227.308,68.972 L227.308,66.416 L228.52,66.416 C229.136,66.416 229.598,66.512 229.906,66.704 C230.214,66.896 230.368,67.22 230.368,67.676 C230.368,68.076 230.22,68.392 229.924,68.624 C229.628,68.856 229.144,68.972 228.472,68.972 L228.472,68.972 Z M228.676,72.704 L227.308,72.704 L227.308,69.74 L228.676,69.74 C229.372,69.74 229.904,69.854 230.272,70.082 C230.64,70.31 230.824,70.668 230.824,71.156 C230.824,71.684 230.636,72.074 230.26,72.326 C229.884,72.578 229.356,72.704 228.676,72.704 L228.676,72.704 Z" id="Unobligated$550B" fill="#666666" fill-rule="nonzero"></path>
                <line x1="1.5" y1="31" x2="1.5" y2="46" id="Line" stroke="#C6C6C6"></line>
                <path d="M145,31 L145,34 C145,35.1045695 144.104569,36 143,36 L13,36 C11.8954305,36 11,36.8954305 11,38 L11,46 L11,46" id="Line-Copy-7" stroke="#C6C6C6" stroke-linecap="round" transform="translate(78.000000, 38.500000) scale(1, -1) translate(-78.000000, -38.500000) "></path>
                <path d="M228,31 L228,33 C228,34.1045695 227.104569,35 226,35 L59,35 C57.8954305,35 57,35.8954305 57,37 L57,46 L57,46" id="Line-Copy-11" stroke="#C6C6C6" stroke-linecap="round" transform="translate(142.500000, 38.500000) scale(-1, 1) translate(-142.500000, -38.500000) "></path>
                <path d="M93.368,22.54 L93.368,21.084 C94.096,20.9253333 94.642,20.6056667 95.006,20.125 C95.37,19.6443333 95.552,19.068 95.552,18.396 C95.552,17.948 95.461,17.5723333 95.279,17.269 C95.097,16.9656667 94.8683333,16.7066667 94.593,16.492 C94.3176667,16.2773333 94.0213333,16.0953333 93.704,15.946 C93.3866667,15.7966667 93.0903333,15.652 92.815,15.512 C92.5396667,15.372 92.311,15.225 92.129,15.071 C91.947,14.917 91.856,14.728 91.856,14.504 C91.856,14.1866667 91.9446667,13.958 92.122,13.818 C92.2993333,13.678 92.556,13.608 92.892,13.608 C93.1906667,13.608 93.4566667,13.6663333 93.69,13.783 C93.9233333,13.8996667 94.166,14.0746667 94.418,14.308 L94.418,14.308 L95.454,13.132 C95.1833333,12.8426667 94.88,12.5953333 94.544,12.39 C94.208,12.1846667 93.816,12.0493333 93.368,11.984 L93.368,11.984 L93.368,10.57 L92.01,10.57 L92.01,12.012 C91.3473333,12.1426667 90.827,12.4343333 90.449,12.887 C90.071,13.3396667 89.882,13.9113333 89.882,14.602 C89.882,15.022 89.973,15.3766667 90.155,15.666 C90.337,15.9553333 90.5656667,16.2073333 90.841,16.422 C91.1163333,16.6366667 91.4126667,16.821 91.73,16.975 C92.0473333,17.129 92.3436667,17.283 92.619,17.437 C92.8943333,17.591 93.123,17.752 93.305,17.92 C93.487,18.088 93.578,18.2933333 93.578,18.536 C93.578,18.8626667 93.487,19.1053333 93.305,19.264 C93.123,19.4226667 92.836,19.502 92.444,19.502 C92.108,19.502 91.779,19.4343333 91.457,19.299 C91.135,19.1636667 90.7966667,18.9606667 90.442,18.69 L90.442,18.69 L89.546,20.076 C89.8726667,20.3746667 90.2623333,20.615 90.715,20.797 C91.1676667,20.979 91.5993333,21.0933333 92.01,21.14 L92.01,21.14 L92.01,22.54 L93.368,22.54 Z M100.074,21.168 C100.55,21.168 100.981667,21.105 101.369,20.979 C101.756333,20.853 102.087667,20.6803333 102.363,20.461 C102.638333,20.2416667 102.850667,19.9826667 103,19.684 C103.149333,19.3853333 103.224,19.0586667 103.224,18.704 C103.224,18.116 103.074667,17.64 102.776,17.276 C102.477333,16.912 102.113333,16.6133333 101.684,16.38 L101.684,16.38 L101.684,16.324 C101.992,16.1186667 102.262667,15.8503333 102.496,15.519 C102.729333,15.1876667 102.846,14.8073333 102.846,14.378 C102.846,14.014 102.780667,13.6803333 102.65,13.377 C102.519333,13.0736667 102.337333,12.817 102.104,12.607 C101.870667,12.397 101.586,12.2336667 101.25,12.117 C100.914,12.0003333 100.545333,11.942 100.144,11.942 C99.7333333,11.942 99.353,11.998 99.003,12.11 C98.653,12.222 98.352,12.3853333 98.1,12.6 C97.848,12.8146667 97.652,13.0736667 97.512,13.377 C97.372,13.6803333 97.302,14.0186667 97.302,14.392 C97.302,14.868 97.414,15.2716667 97.638,15.603 C97.862,15.9343333 98.1466667,16.2306667 98.492,16.492 L98.492,16.492 L98.492,16.548 C98.072,16.772 97.715,17.0566667 97.421,17.402 C97.127,17.7473333 96.98,18.1906667 96.98,18.732 C96.98,19.096 97.057,19.4273333 97.211,19.726 C97.365,20.0246667 97.5796667,20.2813333 97.855,20.496 C98.1303333,20.7106667 98.457,20.8763333 98.835,20.993 C99.213,21.1096667 99.626,21.168 100.074,21.168 Z M100.634,15.82 C100.176667,15.6426667 99.808,15.4513333 99.528,15.246 C99.248,15.0406667 99.108,14.756 99.108,14.392 C99.108,14.0466667 99.206,13.79 99.402,13.622 C99.598,13.454 99.8313333,13.37 100.102,13.37 C100.438,13.37 100.701667,13.475 100.893,13.685 C101.084333,13.895 101.18,14.1726667 101.18,14.518 C101.18,14.966 100.998,15.4 100.634,15.82 Z M100.116,19.74 C99.7426667,19.74 99.4206667,19.6303333 99.15,19.411 C98.8793333,19.1916667 98.744,18.886 98.744,18.494 C98.744,18.2233333 98.8093333,17.9666667 98.94,17.724 C99.0706667,17.4813333 99.234,17.2666667 99.43,17.08 C99.71,17.2013333 99.9643333,17.3133333 100.193,17.416 C100.421667,17.5186667 100.62,17.6283333 100.788,17.745 C100.956,17.8616667 101.084333,17.99 101.173,18.13 C101.261667,18.27 101.306,18.438 101.306,18.634 C101.306,19.0073333 101.194,19.285 100.97,19.467 C100.746,19.649 100.461333,19.74 100.116,19.74 Z M106.99,21.168 C107.456667,21.168 107.907,21.0723333 108.341,20.881 C108.775,20.6896667 109.157667,20.398 109.489,20.006 C109.820333,19.614 110.086333,19.1146667 110.287,18.508 C110.487667,17.9013333 110.588,17.1826667 110.588,16.352 C110.588,15.568 110.492333,14.8983333 110.301,14.343 C110.109667,13.7876667 109.857667,13.3326667 109.545,12.978 C109.232333,12.6233333 108.873,12.362 108.467,12.194 C108.061,12.026 107.643333,11.942 107.214,11.942 C106.812667,11.942 106.432333,12.0096667 106.073,12.145 C105.713667,12.2803333 105.401,12.4786667 105.135,12.74 C104.869,13.0013333 104.656667,13.3163333 104.498,13.685 C104.339333,14.0536667 104.26,14.4666667 104.26,14.924 C104.26,15.3906667 104.327667,15.7966667 104.463,16.142 C104.598333,16.4873333 104.782667,16.772 105.016,16.996 C105.249333,17.22 105.527,17.388 105.849,17.5 C106.171,17.612 106.523333,17.668 106.906,17.668 C107.046,17.668 107.195333,17.647 107.354,17.605 C107.512667,17.563 107.671333,17.5023333 107.83,17.423 C107.988667,17.3436667 108.142667,17.2456667 108.292,17.129 C108.441333,17.0123333 108.572,16.8793333 108.684,16.73 C108.665333,17.2526667 108.607,17.689 108.509,18.039 C108.411,18.389 108.280333,18.6736667 108.117,18.893 C107.953667,19.1123333 107.764667,19.2686667 107.55,19.362 C107.335333,19.4553333 107.102,19.502 106.85,19.502 C106.588667,19.502 106.332,19.439 106.08,19.313 C105.828,19.187 105.627333,19.04 105.478,18.872 L105.478,18.872 L104.386,20.104 C104.666,20.384 105.023,20.6313333 105.457,20.846 C105.891,21.0606667 106.402,21.168 106.99,21.168 Z M107.312,16.212 C106.976,16.212 106.696,16.1163333 106.472,15.925 C106.248,15.7336667 106.136,15.4 106.136,14.924 C106.136,14.42 106.248,14.0536667 106.472,13.825 C106.696,13.5963333 106.957333,13.482 107.256,13.482 C107.573333,13.482 107.860333,13.615 108.117,13.881 C108.373667,14.147 108.548667,14.63 108.642,15.33 C108.464667,15.6473333 108.257,15.8736667 108.019,16.009 C107.781,16.1443333 107.545333,16.212 107.312,16.212 Z M114.382,21.168 C114.848667,21.168 115.299,21.0723333 115.733,20.881 C116.167,20.6896667 116.549667,20.398 116.881,20.006 C117.212333,19.614 117.478333,19.1146667 117.679,18.508 C117.879667,17.9013333 117.98,17.1826667 117.98,16.352 C117.98,15.568 117.884333,14.8983333 117.693,14.343 C117.501667,13.7876667 117.249667,13.3326667 116.937,12.978 C116.624333,12.6233333 116.265,12.362 115.859,12.194 C115.453,12.026 115.035333,11.942 114.606,11.942 C114.204667,11.942 113.824333,12.0096667 113.465,12.145 C113.105667,12.2803333 112.793,12.4786667 112.527,12.74 C112.261,13.0013333 112.048667,13.3163333 111.89,13.685 C111.731333,14.0536667 111.652,14.4666667 111.652,14.924 C111.652,15.3906667 111.719667,15.7966667 111.855,16.142 C111.990333,16.4873333 112.174667,16.772 112.408,16.996 C112.641333,17.22 112.919,17.388 113.241,17.5 C113.563,17.612 113.915333,17.668 114.298,17.668 C114.438,17.668 114.587333,17.647 114.746,17.605 C114.904667,17.563 115.063333,17.5023333 115.222,17.423 C115.380667,17.3436667 115.534667,17.2456667 115.684,17.129 C115.833333,17.0123333 115.964,16.8793333 116.076,16.73 C116.057333,17.2526667 115.999,17.689 115.901,18.039 C115.803,18.389 115.672333,18.6736667 115.509,18.893 C115.345667,19.1123333 115.156667,19.2686667 114.942,19.362 C114.727333,19.4553333 114.494,19.502 114.242,19.502 C113.980667,19.502 113.724,19.439 113.472,19.313 C113.22,19.187 113.019333,19.04 112.87,18.872 L112.87,18.872 L111.778,20.104 C112.058,20.384 112.415,20.6313333 112.849,20.846 C113.283,21.0606667 113.794,21.168 114.382,21.168 Z M114.704,16.212 C114.368,16.212 114.088,16.1163333 113.864,15.925 C113.64,15.7336667 113.528,15.4 113.528,14.924 C113.528,14.42 113.64,14.0536667 113.864,13.825 C114.088,13.5963333 114.349333,13.482 114.648,13.482 C114.965333,13.482 115.252333,13.615 115.509,13.881 C115.765667,14.147 115.940667,14.63 116.034,15.33 C115.856667,15.6473333 115.649,15.8736667 115.411,16.009 C115.173,16.1443333 114.937333,16.212 114.704,16.212 Z M123.034,21 C123.528667,21 123.990667,20.9463333 124.42,20.839 C124.849333,20.7316667 125.225,20.5683333 125.547,20.349 C125.869,20.1296667 126.121,19.852 126.303,19.516 C126.485,19.18 126.576,18.7786667 126.576,18.312 C126.576,18.004 126.534,17.731 126.45,17.493 C126.366,17.255 126.249333,17.0473333 126.1,16.87 C125.950667,16.6926667 125.778,16.5456667 125.582,16.429 C125.386,16.3123333 125.171333,16.226 124.938,16.17 L124.938,16.17 L124.938,16.114 C125.124667,16.0486667 125.290333,15.946 125.435,15.806 C125.579667,15.666 125.703333,15.5073333 125.806,15.33 C125.908667,15.1526667 125.988,14.9613333 126.044,14.756 C126.1,14.5506667 126.128,14.3453333 126.128,14.14 C126.128,13.7013333 126.041667,13.3373333 125.869,13.048 C125.696333,12.7586667 125.458333,12.5253333 125.155,12.348 C124.851667,12.1706667 124.497,12.047 124.091,11.977 C123.685,11.907 123.244,11.872 122.768,11.872 L122.768,11.872 L119.646,11.872 L119.646,21 L123.034,21 Z M122.67,15.526 L121.704,15.526 L121.704,13.468 L122.684,13.468 C123.169333,13.468 123.528667,13.5426667 123.762,13.692 C123.995333,13.8413333 124.112,14.0933333 124.112,14.448 C124.112,14.7746667 123.997667,15.036 123.769,15.232 C123.540333,15.428 123.174,15.526 122.67,15.526 L122.67,15.526 Z M122.866,19.404 L121.704,19.404 L121.704,17.052 L122.866,17.052 C123.435333,17.052 123.86,17.1383333 124.14,17.311 C124.42,17.4836667 124.56,17.7706667 124.56,18.172 C124.56,18.9933333 123.995333,19.404 122.866,19.404 L122.866,19.404 Z" id="$899B" fill="#555555" fill-rule="nonzero"></path>
                <g id="Group-7">
                    <rect id="outlays" fill="#331E4D" x="0" y="0" width="21.1891892" height="31"></rect>
                    <rect id="unobligated" fill="#F3E9FF" x="44.1081081" y="0" width="35.8918919" height="31"></rect>
                    <rect id="obligated" fill="#6F41A7" x="21.1891892" y="0" width="22.9189189" height="31"></rect>
                </g>
            </g>
        </g>
    </g>
</svg>