<?xml version="1.0" encoding="UTF-8"?>
<svg width="276px" height="75px" viewBox="0 0 276 75" version="1.1" xmlns="http://www.w3.org/2000/svg" xmlns:xlink="http://www.w3.org/1999/xlink">
    <title>law 3 - A general</title>
    <g id="SVG-2.0" stroke="none" stroke-width="1" fill="none" fill-rule="evenodd">
        <g id="viz-3-mobile-outline" transform="translate(-36.000000, -1269.000000)">
            <g id="law-3---A-general" transform="translate(36.000000, 1269.000000)">
                <g id="labels" transform="translate(0.000000, 31.000000)">
                    <path d="M4.044,27.144 C4.556,27.144 5.024,27.05 5.448,26.862 C5.872,26.674 6.238,26.402 6.546,26.046 C6.854,25.69 7.092,25.26 7.26,24.756 C7.428,24.252 7.512,23.68 7.512,23.04 C7.512,22.408 7.428,21.842 7.26,21.342 C7.092,20.842 6.854,20.42 6.546,20.076 C6.238,19.732 5.872,19.468 5.448,19.284 C5.024,19.1 4.556,19.008 4.044,19.008 C3.532,19.008 3.064,19.1 2.64,19.284 C2.216,19.468 1.852,19.732 1.548,20.076 C1.244,20.42 1.008,20.842 0.84,21.342 C0.672,21.842 0.588,22.408 0.588,23.04 C0.588,23.68 0.672,24.252 0.84,24.756 C1.008,25.26 1.244,25.69 1.548,26.046 C1.852,26.402 2.216,26.674 2.64,26.862 C3.064,27.05 3.532,27.144 4.044,27.144 Z M4.044,25.932 C3.732,25.932 3.452,25.864 3.204,25.728 C2.956,25.592 2.744,25.398 2.568,25.146 C2.392,24.894 2.256,24.59 2.16,24.234 C2.064,23.878 2.016,23.48 2.016,23.04 C2.016,22.16 2.198,21.47 2.562,20.97 C2.926,20.47 3.42,20.22 4.044,20.22 C4.668,20.22 5.162,20.47 5.526,20.97 C5.89,21.47 6.072,22.16 6.072,23.04 C6.072,23.48 6.024,23.878 5.928,24.234 C5.832,24.59 5.696,24.894 5.52,25.146 C5.344,25.398 5.132,25.592 4.884,25.728 C4.636,25.864 4.356,25.932 4.044,25.932 Z M10.716,27.144 C11.124,27.144 11.478,27.052 11.778,26.868 C12.078,26.684 12.356,26.44 12.612,26.136 L12.612,26.136 L12.648,26.136 L12.756,27 L13.884,27 L13.884,21.108 L12.504,21.108 L12.504,25.14 C12.28,25.428 12.07,25.636 11.874,25.764 C11.678,25.892 11.452,25.956 11.196,25.956 C10.876,25.956 10.644,25.856 10.5,25.656 C10.356,25.456 10.284,25.112 10.284,24.624 L10.284,24.624 L10.284,21.108 L8.904,21.108 L8.904,24.804 C8.904,25.556 9.048,26.134 9.336,26.538 C9.624,26.942 10.084,27.144 10.716,27.144 Z M17.712,27.144 C17.944,27.144 18.162,27.122 18.366,27.078 C18.57,27.034 18.752,26.984 18.912,26.928 L18.912,26.928 L18.672,25.908 C18.584,25.948 18.486,25.98 18.378,26.004 C18.27,26.028 18.164,26.04 18.06,26.04 C17.508,26.04 17.232,25.696 17.232,25.008 L17.232,25.008 L17.232,22.2 L18.732,22.2 L18.732,21.108 L17.232,21.108 L17.232,19.5 L16.08,19.5 L15.912,21.108 L15,21.168 L15,22.2 L15.84,22.2 L15.84,25.008 C15.84,25.328 15.874,25.618 15.942,25.878 C16.01,26.138 16.118,26.362 16.266,26.55 C16.414,26.738 16.606,26.884 16.842,26.988 C17.078,27.092 17.368,27.144 17.712,27.144 Z M21.312,27.144 C21.616,27.144 21.86,27.104 22.044,27.024 L22.044,27.024 L21.864,25.992 C21.808,26.008 21.766,26.016 21.738,26.016 L21.738,26.016 L21.648,26.016 C21.576,26.016 21.508,25.982 21.444,25.914 C21.38,25.846 21.348,25.728 21.348,25.56 L21.348,25.56 L21.348,18.528 L19.968,18.528 L19.968,25.488 C19.968,26 20.068,26.404 20.268,26.7 C20.468,26.996 20.816,27.144 21.312,27.144 Z M24.648,27.144 C25,27.144 25.326,27.068 25.626,26.916 C25.926,26.764 26.208,26.576 26.472,26.352 L26.472,26.352 L26.52,26.352 L26.616,27 L27.756,27 L27.756,23.508 C27.756,22.684 27.574,22.054 27.21,21.618 C26.846,21.182 26.296,20.964 25.56,20.964 C25.088,20.964 24.648,21.04 24.24,21.192 C23.832,21.344 23.464,21.524 23.136,21.732 L23.136,21.732 L23.64,22.656 C23.904,22.496 24.174,22.36 24.45,22.248 C24.726,22.136 25.008,22.08 25.296,22.08 C25.496,22.08 25.664,22.11 25.8,22.17 C25.936,22.23 26.046,22.314 26.13,22.422 C26.214,22.53 26.274,22.654 26.31,22.794 C26.346,22.934 26.368,23.08 26.376,23.232 C25.768,23.296 25.246,23.388 24.81,23.508 C24.374,23.628 24.014,23.776 23.73,23.952 C23.446,24.128 23.238,24.338 23.106,24.582 C22.974,24.826 22.908,25.104 22.908,25.416 C22.908,25.936 23.068,26.354 23.388,26.67 C23.708,26.986 24.128,27.144 24.648,27.144 Z M25.092,26.064 C24.844,26.064 24.64,26.004 24.48,25.884 C24.32,25.764 24.24,25.572 24.24,25.308 C24.24,25.164 24.276,25.028 24.348,24.9 C24.42,24.772 24.54,24.658 24.708,24.558 C24.876,24.458 25.096,24.368 25.368,24.288 C25.64,24.208 25.976,24.144 26.376,24.096 L26.376,24.096 L26.376,25.416 C26.152,25.624 25.942,25.784 25.746,25.896 C25.55,26.008 25.332,26.064 25.092,26.064 Z M29.808,29.424 C30.128,29.424 30.41,29.374 30.654,29.274 C30.898,29.174 31.114,29.03 31.302,28.842 C31.49,28.654 31.656,28.428 31.8,28.164 C31.944,27.9 32.076,27.6 32.196,27.264 L32.196,27.264 L34.332,21.108 L33,21.108 L32.112,24 C32.04,24.264 31.966,24.538 31.89,24.822 C31.814,25.106 31.74,25.384 31.668,25.656 L31.668,25.656 L31.62,25.656 C31.532,25.376 31.446,25.094 31.362,24.81 C31.278,24.526 31.192,24.256 31.104,24 L31.104,24 L30.084,21.108 L28.68,21.108 L30.996,26.928 L30.888,27.3 C30.792,27.596 30.65,27.838 30.462,28.026 C30.274,28.214 30.024,28.308 29.712,28.308 C29.64,28.308 29.566,28.298 29.49,28.278 C29.414,28.258 29.348,28.24 29.292,28.224 L29.292,28.224 L29.04,29.304 C29.152,29.344 29.268,29.374 29.388,29.394 C29.508,29.414 29.648,29.424 29.808,29.424 Z M36.996,27.144 C37.364,27.144 37.692,27.096 37.98,27 C38.268,26.904 38.508,26.774 38.7,26.61 C38.892,26.446 39.038,26.254 39.138,26.034 C39.238,25.814 39.288,25.576 39.288,25.32 C39.288,25.048 39.238,24.814 39.138,24.618 C39.038,24.422 38.906,24.256 38.742,24.12 C38.578,23.984 38.396,23.87 38.196,23.778 C37.996,23.686 37.796,23.604 37.596,23.532 C37.436,23.476 37.282,23.42 37.134,23.364 C36.986,23.308 36.856,23.248 36.744,23.184 C36.632,23.12 36.542,23.046 36.474,22.962 C36.406,22.878 36.372,22.776 36.372,22.656 C36.372,22.472 36.442,22.318 36.582,22.194 C36.722,22.07 36.94,22.008 37.236,22.008 C37.468,22.008 37.69,22.054 37.902,22.146 C38.114,22.238 38.324,22.36 38.532,22.512 L38.532,22.512 L39.168,21.672 C38.928,21.488 38.644,21.324 38.316,21.18 C37.988,21.036 37.62,20.964 37.212,20.964 C36.548,20.964 36.024,21.128 35.64,21.456 C35.256,21.784 35.064,22.208 35.064,22.728 C35.064,22.976 35.114,23.19 35.214,23.37 C35.314,23.55 35.442,23.708 35.598,23.844 C35.754,23.98 35.932,24.096 36.132,24.192 C36.332,24.288 36.528,24.372 36.72,24.444 C36.872,24.508 37.024,24.57 37.176,24.63 C37.328,24.69 37.464,24.756 37.584,24.828 C37.704,24.9 37.8,24.982 37.872,25.074 C37.944,25.166 37.98,25.272 37.98,25.392 C37.98,25.6 37.904,25.77 37.752,25.902 C37.6,26.034 37.364,26.1 37.044,26.1 C36.74,26.1 36.458,26.042 36.198,25.926 C35.938,25.81 35.676,25.648 35.412,25.44 L35.412,25.44 L34.764,26.328 C35.052,26.56 35.394,26.754 35.79,26.91 C36.186,27.066 36.588,27.144 36.996,27.144 Z M3.384,43.32 L3.384,42.108 C3.96,42.028 4.414,41.804 4.746,41.436 C5.078,41.068 5.244,40.596 5.244,40.02 C5.244,39.588 5.162,39.234 4.998,38.958 C4.834,38.682 4.628,38.45 4.38,38.262 C4.132,38.074 3.862,37.914 3.57,37.782 C3.278,37.65 3.008,37.514 2.76,37.374 C2.512,37.234 2.306,37.072 2.142,36.888 C1.978,36.704 1.896,36.468 1.896,36.18 C1.896,35.828 2.004,35.548 2.22,35.34 C2.436,35.132 2.728,35.028 3.096,35.028 C3.424,35.028 3.694,35.088 3.906,35.208 C4.118,35.328 4.336,35.496 4.56,35.712 L4.56,35.712 L5.088,35.124 C4.872,34.892 4.63,34.692 4.362,34.524 C4.094,34.356 3.768,34.252 3.384,34.212 L3.384,34.212 L3.384,33.024 L2.664,33.024 L2.664,34.236 C2.136,34.316 1.714,34.534 1.398,34.89 C1.082,35.246 0.924,35.692 0.924,36.228 C0.924,36.62 1.006,36.942 1.17,37.194 C1.334,37.446 1.54,37.66 1.788,37.836 C2.036,38.012 2.306,38.168 2.598,38.304 C2.89,38.44 3.16,38.586 3.408,38.742 C3.656,38.898 3.862,39.082 4.026,39.294 C4.19,39.506 4.272,39.772 4.272,40.092 C4.272,40.468 4.162,40.768 3.942,40.992 C3.722,41.216 3.388,41.328 2.94,41.328 C2.572,41.328 2.234,41.25 1.926,41.094 C1.618,40.938 1.336,40.748 1.08,40.524 L1.08,40.524 L0.624,41.208 C0.88,41.44 1.188,41.642 1.548,41.814 C1.908,41.986 2.28,42.092 2.664,42.132 L2.664,42.132 L2.664,43.32 L3.384,43.32 Z M8.424,42.144 C8.808,42.144 9.174,42.066 9.522,41.91 C9.87,41.754 10.18,41.506 10.452,41.166 C10.724,40.826 10.94,40.386 11.1,39.846 C11.26,39.306 11.34,38.652 11.34,37.884 C11.34,37.268 11.274,36.73 11.142,36.27 C11.01,35.81 10.826,35.426 10.59,35.118 C10.354,34.81 10.074,34.58 9.75,34.428 C9.426,34.276 9.076,34.2 8.7,34.2 C8.396,34.2 8.106,34.26 7.83,34.38 C7.554,34.5 7.314,34.668 7.11,34.884 C6.906,35.1 6.744,35.358 6.624,35.658 C6.504,35.958 6.444,36.292 6.444,36.66 C6.444,37.452 6.64,38.044 7.032,38.436 C7.424,38.828 7.952,39.024 8.616,39.024 C8.936,39.024 9.256,38.936 9.576,38.76 C9.896,38.584 10.176,38.344 10.416,38.04 C10.408,38.656 10.348,39.172 10.236,39.588 C10.124,40.004 9.976,40.342 9.792,40.602 C9.608,40.862 9.396,41.048 9.156,41.16 C8.916,41.272 8.66,41.328 8.388,41.328 C8.148,41.328 7.918,41.272 7.698,41.16 C7.478,41.048 7.288,40.9 7.128,40.716 L7.128,40.716 L6.576,41.34 C6.784,41.572 7.042,41.764 7.35,41.916 C7.658,42.068 8.016,42.144 8.424,42.144 Z M8.784,38.28 C8.304,38.28 7.948,38.136 7.716,37.848 C7.484,37.56 7.368,37.164 7.368,36.66 C7.368,36.412 7.402,36.184 7.47,35.976 C7.538,35.768 7.632,35.59 7.752,35.442 C7.872,35.294 8.014,35.18 8.178,35.1 C8.342,35.02 8.516,34.98 8.7,34.98 C9.188,34.98 9.576,35.172 9.864,35.556 C10.152,35.94 10.328,36.508 10.392,37.26 C10.144,37.62 9.878,37.88 9.594,38.04 C9.31,38.2 9.04,38.28 8.784,38.28 Z M17.196,42 L17.196,41.184 L15.612,41.184 L15.612,34.344 L14.856,34.344 C14.648,34.472 14.414,34.582 14.154,34.674 C13.894,34.766 13.588,34.844 13.236,34.908 L13.236,34.908 L13.236,35.544 L14.628,35.544 L14.628,41.184 L12.876,41.184 L12.876,42 L17.196,42 Z M21.108,42.144 C21.42,42.144 21.712,42.084 21.984,41.964 C22.256,41.844 22.496,41.676 22.704,41.46 C22.912,41.244 23.076,40.986 23.196,40.686 C23.316,40.386 23.376,40.052 23.376,39.684 C23.376,38.892 23.178,38.3 22.782,37.908 C22.386,37.516 21.856,37.32 21.192,37.32 C20.88,37.32 20.564,37.406 20.244,37.578 C19.924,37.75 19.644,37.984 19.404,38.28 C19.412,37.672 19.472,37.162 19.584,36.75 C19.696,36.338 19.844,36.004 20.028,35.748 C20.212,35.492 20.424,35.308 20.664,35.196 C20.904,35.084 21.156,35.028 21.42,35.028 C21.66,35.028 21.89,35.082 22.11,35.19 C22.33,35.298 22.52,35.444 22.68,35.628 L22.68,35.628 L23.232,35.016 C23.016,34.784 22.758,34.59 22.458,34.434 C22.158,34.278 21.8,34.2 21.384,34.2 C21,34.2 20.634,34.278 20.286,34.434 C19.938,34.59 19.628,34.838 19.356,35.178 C19.084,35.518 18.868,35.958 18.708,36.498 C18.548,37.038 18.468,37.692 18.468,38.46 C18.468,39.076 18.536,39.614 18.672,40.074 C18.808,40.534 18.994,40.918 19.23,41.226 C19.466,41.534 19.744,41.764 20.064,41.916 C20.384,42.068 20.732,42.144 21.108,42.144 Z M21.108,41.364 C20.62,41.364 20.234,41.17 19.95,40.782 C19.666,40.394 19.492,39.824 19.428,39.072 C19.668,38.712 19.932,38.454 20.22,38.298 C20.508,38.142 20.776,38.064 21.024,38.064 C21.504,38.064 21.86,38.208 22.092,38.496 C22.324,38.784 22.44,39.18 22.44,39.684 C22.44,39.94 22.406,40.17 22.338,40.374 C22.27,40.578 22.176,40.754 22.056,40.902 C21.936,41.05 21.796,41.164 21.636,41.244 C21.476,41.324 21.3,41.364 21.108,41.364 Z M27.444,42 C27.884,42 28.288,41.952 28.656,41.856 C29.024,41.76 29.34,41.616 29.604,41.424 C29.868,41.232 30.072,40.992 30.216,40.704 C30.36,40.416 30.432,40.08 30.432,39.696 C30.432,39.152 30.284,38.724 29.988,38.412 C29.692,38.1 29.304,37.9 28.824,37.812 L28.824,37.812 L28.824,37.764 C29.2,37.644 29.486,37.426 29.682,37.11 C29.878,36.794 29.976,36.44 29.976,36.048 C29.976,35.704 29.91,35.41 29.778,35.166 C29.646,34.922 29.462,34.724 29.226,34.572 C28.99,34.42 28.706,34.308 28.374,34.236 C28.042,34.164 27.676,34.128 27.276,34.128 L27.276,34.128 L24.936,34.128 L24.936,42 L27.444,42 Z M27.096,37.476 L25.932,37.476 L25.932,34.92 L27.144,34.92 C27.76,34.92 28.222,35.016 28.53,35.208 C28.838,35.4 28.992,35.724 28.992,36.18 C28.992,36.58 28.844,36.896 28.548,37.128 C28.252,37.36 27.768,37.476 27.096,37.476 L27.096,37.476 Z M27.3,41.208 L25.932,41.208 L25.932,38.244 L27.3,38.244 C27.996,38.244 28.528,38.358 28.896,38.586 C29.264,38.814 29.448,39.172 29.448,39.66 C29.448,40.188 29.26,40.578 28.884,40.83 C28.508,41.082 27.98,41.208 27.3,41.208 L27.3,41.208 Z" id="Outlays$916B" fill="#555555" fill-rule="nonzero"></path>
                    <path d="M124.044,27.144 C124.556,27.144 125.024,27.05 125.448,26.862 C125.872,26.674 126.238,26.402 126.546,26.046 C126.854,25.69 127.092,25.26 127.26,24.756 C127.428,24.252 127.512,23.68 127.512,23.04 C127.512,22.408 127.428,21.842 127.26,21.342 C127.092,20.842 126.854,20.42 126.546,20.076 C126.238,19.732 125.872,19.468 125.448,19.284 C125.024,19.1 124.556,19.008 124.044,19.008 C123.532,19.008 123.064,19.1 122.64,19.284 C122.216,19.468 121.852,19.732 121.548,20.076 C121.244,20.42 121.008,20.842 120.84,21.342 C120.672,21.842 120.588,22.408 120.588,23.04 C120.588,23.68 120.672,24.252 120.84,24.756 C121.008,25.26 121.244,25.69 121.548,26.046 C121.852,26.402 122.216,26.674 122.64,26.862 C123.064,27.05 123.532,27.144 124.044,27.144 Z M124.044,25.932 C123.732,25.932 123.452,25.864 123.204,25.728 C122.956,25.592 122.744,25.398 122.568,25.146 C122.392,24.894 122.256,24.59 122.16,24.234 C122.064,23.878 122.016,23.48 122.016,23.04 C122.016,22.16 122.198,21.47 122.562,20.97 C122.926,20.47 123.42,20.22 124.044,20.22 C124.668,20.22 125.162,20.47 125.526,20.97 C125.89,21.47 126.072,22.16 126.072,23.04 C126.072,23.48 126.024,23.878 125.928,24.234 C125.832,24.59 125.696,24.894 125.52,25.146 C125.344,25.398 125.132,25.592 124.884,25.728 C124.636,25.864 124.356,25.932 124.044,25.932 Z M131.82,27.144 C132.148,27.144 132.464,27.072 132.768,26.928 C133.072,26.784 133.34,26.576 133.572,26.304 C133.804,26.032 133.99,25.698 134.13,25.302 C134.27,24.906 134.34,24.456 134.34,23.952 C134.34,23.496 134.288,23.084 134.184,22.716 C134.08,22.348 133.928,22.034 133.728,21.774 C133.528,21.514 133.284,21.314 132.996,21.174 C132.708,21.034 132.38,20.964 132.012,20.964 C131.708,20.964 131.41,21.032 131.118,21.168 C130.826,21.304 130.556,21.48 130.308,21.696 L130.308,21.696 L130.344,20.712 L130.344,18.528 L128.964,18.528 L128.964,27 L130.056,27 L130.176,26.376 L130.212,26.376 C130.46,26.624 130.722,26.814 130.998,26.946 C131.274,27.078 131.548,27.144 131.82,27.144 Z M131.532,26.004 C131.356,26.004 131.166,25.968 130.962,25.896 C130.758,25.824 130.552,25.696 130.344,25.512 L130.344,25.512 L130.344,22.764 C130.792,22.324 131.224,22.104 131.64,22.104 C132.088,22.104 132.412,22.268 132.612,22.596 C132.812,22.924 132.912,23.384 132.912,23.976 C132.912,24.648 132.78,25.154 132.516,25.494 C132.252,25.834 131.924,26.004 131.532,26.004 Z M137.064,27.144 C137.368,27.144 137.612,27.104 137.796,27.024 L137.796,27.024 L137.616,25.992 C137.56,26.008 137.518,26.016 137.49,26.016 L137.49,26.016 L137.4,26.016 C137.328,26.016 137.26,25.982 137.196,25.914 C137.132,25.846 137.1,25.728 137.1,25.56 L137.1,25.56 L137.1,18.528 L135.72,18.528 L135.72,25.488 C135.72,26 135.82,26.404 136.02,26.7 C136.22,26.996 136.568,27.144 137.064,27.144 Z M139.668,20.076 C139.916,20.076 140.12,20.004 140.28,19.86 C140.44,19.716 140.52,19.528 140.52,19.296 C140.52,19.064 140.44,18.874 140.28,18.726 C140.12,18.578 139.916,18.504 139.668,18.504 C139.42,18.504 139.216,18.578 139.056,18.726 C138.896,18.874 138.816,19.064 138.816,19.296 C138.816,19.528 138.896,19.716 139.056,19.86 C139.216,20.004 139.42,20.076 139.668,20.076 Z M140.352,27 L140.352,21.108 L138.972,21.108 L138.972,27 L140.352,27 Z M144.168,29.604 C144.648,29.604 145.082,29.55 145.47,29.442 C145.858,29.334 146.188,29.188 146.46,29.004 C146.732,28.82 146.942,28.6 147.09,28.344 C147.238,28.088 147.312,27.816 147.312,27.528 C147.312,27.016 147.13,26.646 146.766,26.418 C146.402,26.19 145.864,26.076 145.152,26.076 L145.152,26.076 L144.108,26.076 C143.748,26.076 143.498,26.028 143.358,25.932 C143.218,25.836 143.148,25.704 143.148,25.536 C143.148,25.4 143.174,25.292 143.226,25.212 C143.278,25.132 143.348,25.052 143.436,24.972 C143.572,25.028 143.708,25.068 143.844,25.092 C143.98,25.116 144.112,25.128 144.24,25.128 C144.552,25.128 144.844,25.084 145.116,24.996 C145.388,24.908 145.624,24.78 145.824,24.612 C146.024,24.444 146.182,24.236 146.298,23.988 C146.414,23.74 146.472,23.452 146.472,23.124 C146.472,22.916 146.44,22.726 146.376,22.554 C146.312,22.382 146.232,22.24 146.136,22.128 L146.136,22.128 L147.216,22.128 L147.216,21.108 L145.104,21.108 C144.984,21.068 144.85,21.034 144.702,21.006 C144.554,20.978 144.4,20.964 144.24,20.964 C143.928,20.964 143.632,21.01 143.352,21.102 C143.072,21.194 142.826,21.33 142.614,21.51 C142.402,21.69 142.232,21.912 142.104,22.176 C141.976,22.44 141.912,22.74 141.912,23.076 C141.912,23.428 141.99,23.738 142.146,24.006 C142.302,24.274 142.48,24.484 142.68,24.636 L142.68,24.636 L142.68,24.684 C142.512,24.804 142.362,24.958 142.23,25.146 C142.098,25.334 142.032,25.544 142.032,25.776 C142.032,26.016 142.082,26.216 142.182,26.376 C142.282,26.536 142.408,26.664 142.56,26.76 L142.56,26.76 L142.56,26.808 C142.288,26.976 142.08,27.166 141.936,27.378 C141.792,27.59 141.72,27.82 141.72,28.068 C141.72,28.324 141.782,28.548 141.906,28.74 C142.03,28.932 142.2,29.092 142.416,29.22 C142.632,29.348 142.89,29.444 143.19,29.508 C143.49,29.572 143.816,29.604 144.168,29.604 Z M144.24,24.264 C143.952,24.264 143.708,24.162 143.508,23.958 C143.308,23.754 143.208,23.46 143.208,23.076 C143.208,22.7 143.308,22.412 143.508,22.212 C143.708,22.012 143.952,21.912 144.24,21.912 C144.528,21.912 144.77,22.014 144.966,22.218 C145.162,22.422 145.26,22.708 145.26,23.076 C145.26,23.46 145.16,23.754 144.96,23.958 C144.76,24.162 144.52,24.264 144.24,24.264 Z M144.384,28.704 C143.912,28.704 143.542,28.63 143.274,28.482 C143.006,28.334 142.872,28.128 142.872,27.864 C142.872,27.576 143.024,27.316 143.328,27.084 C143.544,27.14 143.812,27.168 144.132,27.168 L144.132,27.168 L144.936,27.168 C145.272,27.168 145.53,27.208 145.71,27.288 C145.89,27.368 145.98,27.524 145.98,27.756 C145.98,28.012 145.834,28.234 145.542,28.422 C145.25,28.61 144.864,28.704 144.384,28.704 Z M149.568,27.144 C149.92,27.144 150.246,27.068 150.546,26.916 C150.846,26.764 151.128,26.576 151.392,26.352 L151.392,26.352 L151.44,26.352 L151.536,27 L152.676,27 L152.676,23.508 C152.676,22.684 152.494,22.054 152.13,21.618 C151.766,21.182 151.216,20.964 150.48,20.964 C150.008,20.964 149.568,21.04 149.16,21.192 C148.752,21.344 148.384,21.524 148.056,21.732 L148.056,21.732 L148.56,22.656 C148.824,22.496 149.094,22.36 149.37,22.248 C149.646,22.136 149.928,22.08 150.216,22.08 C150.416,22.08 150.584,22.11 150.72,22.17 C150.856,22.23 150.966,22.314 151.05,22.422 C151.134,22.53 151.194,22.654 151.23,22.794 C151.266,22.934 151.288,23.08 151.296,23.232 C150.688,23.296 150.166,23.388 149.73,23.508 C149.294,23.628 148.934,23.776 148.65,23.952 C148.366,24.128 148.158,24.338 148.026,24.582 C147.894,24.826 147.828,25.104 147.828,25.416 C147.828,25.936 147.988,26.354 148.308,26.67 C148.628,26.986 149.048,27.144 149.568,27.144 Z M150.012,26.064 C149.764,26.064 149.56,26.004 149.4,25.884 C149.24,25.764 149.16,25.572 149.16,25.308 C149.16,25.164 149.196,25.028 149.268,24.9 C149.34,24.772 149.46,24.658 149.628,24.558 C149.796,24.458 150.016,24.368 150.288,24.288 C150.56,24.208 150.896,24.144 151.296,24.096 L151.296,24.096 L151.296,25.416 C151.072,25.624 150.862,25.784 150.666,25.896 C150.47,26.008 150.252,26.064 150.012,26.064 Z M156.216,27.144 C156.448,27.144 156.666,27.122 156.87,27.078 C157.074,27.034 157.256,26.984 157.416,26.928 L157.416,26.928 L157.176,25.908 C157.088,25.948 156.99,25.98 156.882,26.004 C156.774,26.028 156.668,26.04 156.564,26.04 C156.012,26.04 155.736,25.696 155.736,25.008 L155.736,25.008 L155.736,22.2 L157.236,22.2 L157.236,21.108 L155.736,21.108 L155.736,19.5 L154.584,19.5 L154.416,21.108 L153.504,21.168 L153.504,22.2 L154.344,22.2 L154.344,25.008 C154.344,25.328 154.378,25.618 154.446,25.878 C154.514,26.138 154.622,26.362 154.77,26.55 C154.918,26.738 155.11,26.884 155.346,26.988 C155.582,27.092 155.872,27.144 156.216,27.144 Z M159.168,20.076 C159.416,20.076 159.62,20.004 159.78,19.86 C159.94,19.716 160.02,19.528 160.02,19.296 C160.02,19.064 159.94,18.874 159.78,18.726 C159.62,18.578 159.416,18.504 159.168,18.504 C158.92,18.504 158.716,18.578 158.556,18.726 C158.396,18.874 158.316,19.064 158.316,19.296 C158.316,19.528 158.396,19.716 158.556,19.86 C158.716,20.004 158.92,20.076 159.168,20.076 Z M159.852,27 L159.852,21.108 L158.472,21.108 L158.472,27 L159.852,27 Z M164.028,27.144 C164.396,27.144 164.75,27.076 165.09,26.94 C165.43,26.804 165.728,26.604 165.984,26.34 C166.24,26.076 166.446,25.752 166.602,25.368 C166.758,24.984 166.836,24.548 166.836,24.06 C166.836,23.572 166.758,23.136 166.602,22.752 C166.446,22.368 166.24,22.044 165.984,21.78 C165.728,21.516 165.43,21.314 165.09,21.174 C164.75,21.034 164.396,20.964 164.028,20.964 C163.66,20.964 163.308,21.034 162.972,21.174 C162.636,21.314 162.338,21.516 162.078,21.78 C161.818,22.044 161.612,22.368 161.46,22.752 C161.308,23.136 161.232,23.572 161.232,24.06 C161.232,24.548 161.308,24.984 161.46,25.368 C161.612,25.752 161.818,26.076 162.078,26.34 C162.338,26.604 162.636,26.804 162.972,26.94 C163.308,27.076 163.66,27.144 164.028,27.144 Z M164.028,26.016 C163.596,26.016 163.258,25.838 163.014,25.482 C162.77,25.126 162.648,24.652 162.648,24.06 C162.648,23.46 162.77,22.982 163.014,22.626 C163.258,22.27 163.596,22.092 164.028,22.092 C164.46,22.092 164.8,22.27 165.048,22.626 C165.296,22.982 165.42,23.46 165.42,24.06 C165.42,24.652 165.296,25.126 165.048,25.482 C164.8,25.838 164.46,26.016 164.028,26.016 Z M169.584,27 L169.584,22.884 C169.832,22.644 170.054,22.462 170.25,22.338 C170.446,22.214 170.672,22.152 170.928,22.152 C171.256,22.152 171.492,22.252 171.636,22.452 C171.78,22.652 171.852,22.996 171.852,23.484 L171.852,23.484 L171.852,27 L173.232,27 L173.232,23.304 C173.232,22.552 173.088,21.974 172.8,21.57 C172.512,21.166 172.052,20.964 171.42,20.964 C171.012,20.964 170.654,21.056 170.346,21.24 C170.038,21.424 169.752,21.644 169.488,21.9 L169.488,21.9 L169.44,21.9 L169.344,21.108 L168.204,21.108 L168.204,27 L169.584,27 Z M176.568,27.144 C176.936,27.144 177.264,27.096 177.552,27 C177.84,26.904 178.08,26.774 178.272,26.61 C178.464,26.446 178.61,26.254 178.71,26.034 C178.81,25.814 178.86,25.576 178.86,25.32 C178.86,25.048 178.81,24.814 178.71,24.618 C178.61,24.422 178.478,24.256 178.314,24.12 C178.15,23.984 177.968,23.87 177.768,23.778 C177.568,23.686 177.368,23.604 177.168,23.532 C177.008,23.476 176.854,23.42 176.706,23.364 C176.558,23.308 176.428,23.248 176.316,23.184 C176.204,23.12 176.114,23.046 176.046,22.962 C175.978,22.878 175.944,22.776 175.944,22.656 C175.944,22.472 176.014,22.318 176.154,22.194 C176.294,22.07 176.512,22.008 176.808,22.008 C177.04,22.008 177.262,22.054 177.474,22.146 C177.686,22.238 177.896,22.36 178.104,22.512 L178.104,22.512 L178.74,21.672 C178.5,21.488 178.216,21.324 177.888,21.18 C177.56,21.036 177.192,20.964 176.784,20.964 C176.12,20.964 175.596,21.128 175.212,21.456 C174.828,21.784 174.636,22.208 174.636,22.728 C174.636,22.976 174.686,23.19 174.786,23.37 C174.886,23.55 175.014,23.708 175.17,23.844 C175.326,23.98 175.504,24.096 175.704,24.192 C175.904,24.288 176.1,24.372 176.292,24.444 C176.444,24.508 176.596,24.57 176.748,24.63 C176.9,24.69 177.036,24.756 177.156,24.828 C177.276,24.9 177.372,24.982 177.444,25.074 C177.516,25.166 177.552,25.272 177.552,25.392 C177.552,25.6 177.476,25.77 177.324,25.902 C177.172,26.034 176.936,26.1 176.616,26.1 C176.312,26.1 176.03,26.042 175.77,25.926 C175.51,25.81 175.248,25.648 174.984,25.44 L174.984,25.44 L174.336,26.328 C174.624,26.56 174.966,26.754 175.362,26.91 C175.758,27.066 176.16,27.144 176.568,27.144 Z M123.384,43.32 L123.384,42.108 C123.96,42.028 124.414,41.804 124.746,41.436 C125.078,41.068 125.244,40.596 125.244,40.02 C125.244,39.588 125.162,39.234 124.998,38.958 C124.834,38.682 124.628,38.45 124.38,38.262 C124.132,38.074 123.862,37.914 123.57,37.782 C123.278,37.65 123.008,37.514 122.76,37.374 C122.512,37.234 122.306,37.072 122.142,36.888 C121.978,36.704 121.896,36.468 121.896,36.18 C121.896,35.828 122.004,35.548 122.22,35.34 C122.436,35.132 122.728,35.028 123.096,35.028 C123.424,35.028 123.694,35.088 123.906,35.208 C124.118,35.328 124.336,35.496 124.56,35.712 L124.56,35.712 L125.088,35.124 C124.872,34.892 124.63,34.692 124.362,34.524 C124.094,34.356 123.768,34.252 123.384,34.212 L123.384,34.212 L123.384,33.024 L122.664,33.024 L122.664,34.236 C122.136,34.316 121.714,34.534 121.398,34.89 C121.082,35.246 120.924,35.692 120.924,36.228 C120.924,36.62 121.006,36.942 121.17,37.194 C121.334,37.446 121.54,37.66 121.788,37.836 C122.036,38.012 122.306,38.168 122.598,38.304 C122.89,38.44 123.16,38.586 123.408,38.742 C123.656,38.898 123.862,39.082 124.026,39.294 C124.19,39.506 124.272,39.772 124.272,40.092 C124.272,40.468 124.162,40.768 123.942,40.992 C123.722,41.216 123.388,41.328 122.94,41.328 C122.572,41.328 122.234,41.25 121.926,41.094 C121.618,40.938 121.336,40.748 121.08,40.524 L121.08,40.524 L120.624,41.208 C120.88,41.44 121.188,41.642 121.548,41.814 C121.908,41.986 122.28,42.092 122.664,42.132 L122.664,42.132 L122.664,43.32 L123.384,43.32 Z M131.232,42 L131.232,41.184 L129.648,41.184 L129.648,34.344 L128.892,34.344 C128.684,34.472 128.45,34.582 128.19,34.674 C127.93,34.766 127.624,34.844 127.272,34.908 L127.272,34.908 L127.272,35.544 L128.664,35.544 L128.664,41.184 L126.912,41.184 L126.912,42 L131.232,42 Z M133.428,42.144 C133.62,42.144 133.786,42.074 133.926,41.934 C134.066,41.794 134.136,41.616 134.136,41.4 C134.136,41.168 134.066,40.982 133.926,40.842 C133.786,40.702 133.62,40.632 133.428,40.632 C133.228,40.632 133.058,40.702 132.918,40.842 C132.778,40.982 132.708,41.168 132.708,41.4 C132.708,41.616 132.778,41.794 132.918,41.934 C133.058,42.074 133.228,42.144 133.428,42.144 Z M137.904,42.144 C138.672,42.144 139.272,41.8 139.704,41.112 C140.136,40.424 140.352,39.436 140.352,38.148 C140.352,36.86 140.136,35.88 139.704,35.208 C139.272,34.536 138.672,34.2 137.904,34.2 C137.128,34.2 136.524,34.536 136.092,35.208 C135.66,35.88 135.444,36.86 135.444,38.148 C135.444,39.436 135.66,40.424 136.092,41.112 C136.524,41.8 137.128,42.144 137.904,42.144 Z M137.904,41.352 C137.456,41.352 137.094,41.098 136.818,40.59 C136.542,40.082 136.404,39.268 136.404,38.148 C136.404,37.588 136.44,37.108 136.512,36.708 C136.584,36.308 136.686,35.982 136.818,35.73 C136.95,35.478 137.108,35.292 137.292,35.172 C137.476,35.052 137.68,34.992 137.904,34.992 C138.128,34.992 138.33,35.052 138.51,35.172 C138.69,35.292 138.846,35.478 138.978,35.73 C139.11,35.982 139.212,36.308 139.284,36.708 C139.356,37.108 139.392,37.588 139.392,38.148 C139.392,38.708 139.356,39.19 139.284,39.594 C139.212,39.998 139.11,40.33 138.978,40.59 C138.846,40.85 138.69,41.042 138.51,41.166 C138.33,41.29 138.128,41.352 137.904,41.352 Z M145.464,42 L145.464,39.888 L146.508,39.888 L146.508,39.096 L145.464,39.096 L145.464,34.344 L144.36,34.344 L141.084,39.24 L141.084,39.888 L144.528,39.888 L144.528,42 L145.464,42 Z M144.528,39.096 L142.128,39.096 L143.916,36.48 C144.028,36.296 144.136,36.116 144.24,35.94 C144.344,35.764 144.444,35.584 144.54,35.4 L144.54,35.4 L144.588,35.4 C144.572,35.608 144.558,35.854 144.546,36.138 C144.534,36.422 144.528,36.668 144.528,36.876 L144.528,36.876 L144.528,39.096 Z M150.564,42 L150.564,34.968 L152.94,34.968 L152.94,34.128 L147.18,34.128 L147.18,34.968 L149.556,34.968 L149.556,42 L150.564,42 Z" id="Obligations$1.04T" fill="#555555" fill-rule="nonzero"></path>
                    <path d="M216.936,23.144 C217.392,23.144 217.802,23.078 218.166,22.946 C218.53,22.814 218.842,22.604 219.102,22.316 C219.362,22.028 219.56,21.658 219.696,21.206 C219.832,20.754 219.9,20.204 219.9,19.556 L219.9,19.556 L219.9,15.152 L218.568,15.152 L218.568,19.664 C218.568,20.088 218.528,20.446 218.448,20.738 C218.368,21.03 218.256,21.264 218.112,21.44 C217.968,21.616 217.796,21.742 217.596,21.818 C217.396,21.894 217.176,21.932 216.936,21.932 C216.696,21.932 216.48,21.894 216.288,21.818 C216.096,21.742 215.93,21.616 215.79,21.44 C215.65,21.264 215.542,21.03 215.466,20.738 C215.39,20.446 215.352,20.088 215.352,19.664 L215.352,19.664 L215.352,15.152 L213.96,15.152 L213.96,19.556 C213.96,20.204 214.03,20.754 214.17,21.206 C214.31,21.658 214.51,22.028 214.77,22.316 C215.03,22.604 215.342,22.814 215.706,22.946 C216.07,23.078 216.48,23.144 216.936,23.144 Z M223.116,23 L223.116,18.884 C223.364,18.644 223.586,18.462 223.782,18.338 C223.978,18.214 224.204,18.152 224.46,18.152 C224.788,18.152 225.024,18.252 225.168,18.452 C225.312,18.652 225.384,18.996 225.384,19.484 L225.384,19.484 L225.384,23 L226.764,23 L226.764,19.304 C226.764,18.552 226.62,17.974 226.332,17.57 C226.044,17.166 225.584,16.964 224.952,16.964 C224.544,16.964 224.186,17.056 223.878,17.24 C223.57,17.424 223.284,17.644 223.02,17.9 L223.02,17.9 L222.972,17.9 L222.876,17.108 L221.736,17.108 L221.736,23 L223.116,23 Z M230.868,23.144 C231.236,23.144 231.59,23.076 231.93,22.94 C232.27,22.804 232.568,22.604 232.824,22.34 C233.08,22.076 233.286,21.752 233.442,21.368 C233.598,20.984 233.676,20.548 233.676,20.06 C233.676,19.572 233.598,19.136 233.442,18.752 C233.286,18.368 233.08,18.044 232.824,17.78 C232.568,17.516 232.27,17.314 231.93,17.174 C231.59,17.034 231.236,16.964 230.868,16.964 C230.5,16.964 230.148,17.034 229.812,17.174 C229.476,17.314 229.178,17.516 228.918,17.78 C228.658,18.044 228.452,18.368 228.3,18.752 C228.148,19.136 228.072,19.572 228.072,20.06 C228.072,20.548 228.148,20.984 228.3,21.368 C228.452,21.752 228.658,22.076 228.918,22.34 C229.178,22.604 229.476,22.804 229.812,22.94 C230.148,23.076 230.5,23.144 230.868,23.144 Z M230.868,22.016 C230.436,22.016 230.098,21.838 229.854,21.482 C229.61,21.126 229.488,20.652 229.488,20.06 C229.488,19.46 229.61,18.982 229.854,18.626 C230.098,18.27 230.436,18.092 230.868,18.092 C231.3,18.092 231.64,18.27 231.888,18.626 C232.136,18.982 232.26,19.46 232.26,20.06 C232.26,20.652 232.136,21.126 231.888,21.482 C231.64,21.838 231.3,22.016 230.868,22.016 Z M237.9,23.144 C238.228,23.144 238.544,23.072 238.848,22.928 C239.152,22.784 239.42,22.576 239.652,22.304 C239.884,22.032 240.07,21.698 240.21,21.302 C240.35,20.906 240.42,20.456 240.42,19.952 C240.42,19.496 240.368,19.084 240.264,18.716 C240.16,18.348 240.008,18.034 239.808,17.774 C239.608,17.514 239.364,17.314 239.076,17.174 C238.788,17.034 238.46,16.964 238.092,16.964 C237.788,16.964 237.49,17.032 237.198,17.168 C236.906,17.304 236.636,17.48 236.388,17.696 L236.388,17.696 L236.424,16.712 L236.424,14.528 L235.044,14.528 L235.044,23 L236.136,23 L236.256,22.376 L236.292,22.376 C236.54,22.624 236.802,22.814 237.078,22.946 C237.354,23.078 237.628,23.144 237.9,23.144 Z M237.612,22.004 C237.436,22.004 237.246,21.968 237.042,21.896 C236.838,21.824 236.632,21.696 236.424,21.512 L236.424,21.512 L236.424,18.764 C236.872,18.324 237.304,18.104 237.72,18.104 C238.168,18.104 238.492,18.268 238.692,18.596 C238.892,18.924 238.992,19.384 238.992,19.976 C238.992,20.648 238.86,21.154 238.596,21.494 C238.332,21.834 238.004,22.004 237.612,22.004 Z M243.144,23.144 C243.448,23.144 243.692,23.104 243.876,23.024 L243.876,23.024 L243.696,21.992 C243.64,22.008 243.598,22.016 243.57,22.016 L243.57,22.016 L243.48,22.016 C243.408,22.016 243.34,21.982 243.276,21.914 C243.212,21.846 243.18,21.728 243.18,21.56 L243.18,21.56 L243.18,14.528 L241.8,14.528 L241.8,21.488 C241.8,22 241.9,22.404 242.1,22.7 C242.3,22.996 242.648,23.144 243.144,23.144 Z M245.748,16.076 C245.996,16.076 246.2,16.004 246.36,15.86 C246.52,15.716 246.6,15.528 246.6,15.296 C246.6,15.064 246.52,14.874 246.36,14.726 C246.2,14.578 245.996,14.504 245.748,14.504 C245.5,14.504 245.296,14.578 245.136,14.726 C244.976,14.874 244.896,15.064 244.896,15.296 C244.896,15.528 244.976,15.716 245.136,15.86 C245.296,16.004 245.5,16.076 245.748,16.076 Z M246.432,23 L246.432,17.108 L245.052,17.108 L245.052,23 L246.432,23 Z M250.248,25.604 C250.728,25.604 251.162,25.55 251.55,25.442 C251.938,25.334 252.268,25.188 252.54,25.004 C252.812,24.82 253.022,24.6 253.17,24.344 C253.318,24.088 253.392,23.816 253.392,23.528 C253.392,23.016 253.21,22.646 252.846,22.418 C252.482,22.19 251.944,22.076 251.232,22.076 L251.232,22.076 L250.188,22.076 C249.828,22.076 249.578,22.028 249.438,21.932 C249.298,21.836 249.228,21.704 249.228,21.536 C249.228,21.4 249.254,21.292 249.306,21.212 C249.358,21.132 249.428,21.052 249.516,20.972 C249.652,21.028 249.788,21.068 249.924,21.092 C250.06,21.116 250.192,21.128 250.32,21.128 C250.632,21.128 250.924,21.084 251.196,20.996 C251.468,20.908 251.704,20.78 251.904,20.612 C252.104,20.444 252.262,20.236 252.378,19.988 C252.494,19.74 252.552,19.452 252.552,19.124 C252.552,18.916 252.52,18.726 252.456,18.554 C252.392,18.382 252.312,18.24 252.216,18.128 L252.216,18.128 L253.296,18.128 L253.296,17.108 L251.184,17.108 C251.064,17.068 250.93,17.034 250.782,17.006 C250.634,16.978 250.48,16.964 250.32,16.964 C250.008,16.964 249.712,17.01 249.432,17.102 C249.152,17.194 248.906,17.33 248.694,17.51 C248.482,17.69 248.312,17.912 248.184,18.176 C248.056,18.44 247.992,18.74 247.992,19.076 C247.992,19.428 248.07,19.738 248.226,20.006 C248.382,20.274 248.56,20.484 248.76,20.636 L248.76,20.636 L248.76,20.684 C248.592,20.804 248.442,20.958 248.31,21.146 C248.178,21.334 248.112,21.544 248.112,21.776 C248.112,22.016 248.162,22.216 248.262,22.376 C248.362,22.536 248.488,22.664 248.64,22.76 L248.64,22.76 L248.64,22.808 C248.368,22.976 248.16,23.166 248.016,23.378 C247.872,23.59 247.8,23.82 247.8,24.068 C247.8,24.324 247.862,24.548 247.986,24.74 C248.11,24.932 248.28,25.092 248.496,25.22 C248.712,25.348 248.97,25.444 249.27,25.508 C249.57,25.572 249.896,25.604 250.248,25.604 Z M250.32,20.264 C250.032,20.264 249.788,20.162 249.588,19.958 C249.388,19.754 249.288,19.46 249.288,19.076 C249.288,18.7 249.388,18.412 249.588,18.212 C249.788,18.012 250.032,17.912 250.32,17.912 C250.608,17.912 250.85,18.014 251.046,18.218 C251.242,18.422 251.34,18.708 251.34,19.076 C251.34,19.46 251.24,19.754 251.04,19.958 C250.84,20.162 250.6,20.264 250.32,20.264 Z M250.464,24.704 C249.992,24.704 249.622,24.63 249.354,24.482 C249.086,24.334 248.952,24.128 248.952,23.864 C248.952,23.576 249.104,23.316 249.408,23.084 C249.624,23.14 249.892,23.168 250.212,23.168 L250.212,23.168 L251.016,23.168 C251.352,23.168 251.61,23.208 251.79,23.288 C251.97,23.368 252.06,23.524 252.06,23.756 C252.06,24.012 251.914,24.234 251.622,24.422 C251.33,24.61 250.944,24.704 250.464,24.704 Z M255.648,23.144 C256,23.144 256.326,23.068 256.626,22.916 C256.926,22.764 257.208,22.576 257.472,22.352 L257.472,22.352 L257.52,22.352 L257.616,23 L258.756,23 L258.756,19.508 C258.756,18.684 258.574,18.054 258.21,17.618 C257.846,17.182 257.296,16.964 256.56,16.964 C256.088,16.964 255.648,17.04 255.24,17.192 C254.832,17.344 254.464,17.524 254.136,17.732 L254.136,17.732 L254.64,18.656 C254.904,18.496 255.174,18.36 255.45,18.248 C255.726,18.136 256.008,18.08 256.296,18.08 C256.496,18.08 256.664,18.11 256.8,18.17 C256.936,18.23 257.046,18.314 257.13,18.422 C257.214,18.53 257.274,18.654 257.31,18.794 C257.346,18.934 257.368,19.08 257.376,19.232 C256.768,19.296 256.246,19.388 255.81,19.508 C255.374,19.628 255.014,19.776 254.73,19.952 C254.446,20.128 254.238,20.338 254.106,20.582 C253.974,20.826 253.908,21.104 253.908,21.416 C253.908,21.936 254.068,22.354 254.388,22.67 C254.708,22.986 255.128,23.144 255.648,23.144 Z M256.092,22.064 C255.844,22.064 255.64,22.004 255.48,21.884 C255.32,21.764 255.24,21.572 255.24,21.308 C255.24,21.164 255.276,21.028 255.348,20.9 C255.42,20.772 255.54,20.658 255.708,20.558 C255.876,20.458 256.096,20.368 256.368,20.288 C256.64,20.208 256.976,20.144 257.376,20.096 L257.376,20.096 L257.376,21.416 C257.152,21.624 256.942,21.784 256.746,21.896 C256.55,22.008 256.332,22.064 256.092,22.064 Z M262.296,23.144 C262.528,23.144 262.746,23.122 262.95,23.078 C263.154,23.034 263.336,22.984 263.496,22.928 L263.496,22.928 L263.256,21.908 C263.168,21.948 263.07,21.98 262.962,22.004 C262.854,22.028 262.748,22.04 262.644,22.04 C262.092,22.04 261.816,21.696 261.816,21.008 L261.816,21.008 L261.816,18.2 L263.316,18.2 L263.316,17.108 L261.816,17.108 L261.816,15.5 L260.664,15.5 L260.496,17.108 L259.584,17.168 L259.584,18.2 L260.424,18.2 L260.424,21.008 C260.424,21.328 260.458,21.618 260.526,21.878 C260.594,22.138 260.702,22.362 260.85,22.55 C260.998,22.738 261.19,22.884 261.426,22.988 C261.662,23.092 261.952,23.144 262.296,23.144 Z M266.88,23.144 C267.256,23.144 267.616,23.084 267.96,22.964 C268.304,22.844 268.616,22.692 268.896,22.508 L268.896,22.508 L268.428,21.644 C268.212,21.78 267.994,21.886 267.774,21.962 C267.554,22.038 267.316,22.076 267.06,22.076 C266.58,22.076 266.186,21.934 265.878,21.65 C265.57,21.366 265.384,20.96 265.32,20.432 L265.32,20.432 L269.064,20.432 C269.08,20.36 269.094,20.264 269.106,20.144 C269.118,20.024 269.124,19.896 269.124,19.76 C269.124,19.352 269.072,18.976 268.968,18.632 C268.864,18.288 268.71,17.992 268.506,17.744 C268.302,17.496 268.048,17.304 267.744,17.168 C267.44,17.032 267.088,16.964 266.688,16.964 C266.344,16.964 266.008,17.036 265.68,17.18 C265.352,17.324 265.062,17.528 264.81,17.792 C264.558,18.056 264.356,18.38 264.204,18.764 C264.052,19.148 263.976,19.58 263.976,20.06 C263.976,20.548 264.05,20.982 264.198,21.362 C264.346,21.742 264.552,22.064 264.816,22.328 C265.08,22.592 265.388,22.794 265.74,22.934 C266.092,23.074 266.472,23.144 266.88,23.144 Z M267.924,19.496 L265.308,19.496 C265.372,19.016 265.536,18.652 265.8,18.404 C266.064,18.156 266.372,18.032 266.724,18.032 C267.132,18.032 267.434,18.162 267.63,18.422 C267.826,18.682 267.924,19.04 267.924,19.496 L267.924,19.496 Z M272.508,23.144 C272.828,23.144 273.132,23.068 273.42,22.916 C273.708,22.764 273.96,22.58 274.176,22.364 L274.176,22.364 L274.224,22.364 L274.32,23 L275.46,23 L275.46,14.528 L274.08,14.528 L274.08,16.664 L274.128,17.612 C273.896,17.412 273.664,17.254 273.432,17.138 C273.2,17.022 272.916,16.964 272.58,16.964 C272.26,16.964 271.95,17.036 271.65,17.18 C271.35,17.324 271.084,17.528 270.852,17.792 C270.62,18.056 270.434,18.38 270.294,18.764 C270.154,19.148 270.084,19.58 270.084,20.06 C270.084,21.036 270.302,21.794 270.738,22.334 C271.174,22.874 271.764,23.144 272.508,23.144 Z M272.844,22.004 C272.412,22.004 272.082,21.838 271.854,21.506 C271.626,21.174 271.512,20.688 271.512,20.048 C271.512,19.424 271.644,18.944 271.908,18.608 C272.172,18.272 272.496,18.104 272.88,18.104 C273.08,18.104 273.278,18.14 273.474,18.212 C273.67,18.284 273.872,18.412 274.08,18.596 L274.08,18.596 L274.08,21.344 C273.696,21.784 273.284,22.004 272.844,22.004 Z M216.384,39.32 L216.384,38.108 C216.96,38.028 217.414,37.804 217.746,37.436 C218.078,37.068 218.244,36.596 218.244,36.02 C218.244,35.588 218.162,35.234 217.998,34.958 C217.834,34.682 217.628,34.45 217.38,34.262 C217.132,34.074 216.862,33.914 216.57,33.782 C216.278,33.65 216.008,33.514 215.76,33.374 C215.512,33.234 215.306,33.072 215.142,32.888 C214.978,32.704 214.896,32.468 214.896,32.18 C214.896,31.828 215.004,31.548 215.22,31.34 C215.436,31.132 215.728,31.028 216.096,31.028 C216.424,31.028 216.694,31.088 216.906,31.208 C217.118,31.328 217.336,31.496 217.56,31.712 L217.56,31.712 L218.088,31.124 C217.872,30.892 217.63,30.692 217.362,30.524 C217.094,30.356 216.768,30.252 216.384,30.212 L216.384,30.212 L216.384,29.024 L215.664,29.024 L215.664,30.236 C215.136,30.316 214.714,30.534 214.398,30.89 C214.082,31.246 213.924,31.692 213.924,32.228 C213.924,32.62 214.006,32.942 214.17,33.194 C214.334,33.446 214.54,33.66 214.788,33.836 C215.036,34.012 215.306,34.168 215.598,34.304 C215.89,34.44 216.16,34.586 216.408,34.742 C216.656,34.898 216.862,35.082 217.026,35.294 C217.19,35.506 217.272,35.772 217.272,36.092 C217.272,36.468 217.162,36.768 216.942,36.992 C216.722,37.216 216.388,37.328 215.94,37.328 C215.572,37.328 215.234,37.25 214.926,37.094 C214.618,36.938 214.336,36.748 214.08,36.524 L214.08,36.524 L213.624,37.208 C213.88,37.44 214.188,37.642 214.548,37.814 C214.908,37.986 215.28,38.092 215.664,38.132 L215.664,38.132 L215.664,39.32 L216.384,39.32 Z M224.232,38 L224.232,37.184 L222.648,37.184 L222.648,30.344 L221.892,30.344 C221.684,30.472 221.45,30.582 221.19,30.674 C220.93,30.766 220.624,30.844 220.272,30.908 L220.272,30.908 L220.272,31.544 L221.664,31.544 L221.664,37.184 L219.912,37.184 L219.912,38 L224.232,38 Z M229.512,38 L229.512,35.888 L230.556,35.888 L230.556,35.096 L229.512,35.096 L229.512,30.344 L228.408,30.344 L225.132,35.24 L225.132,35.888 L228.576,35.888 L228.576,38 L229.512,38 Z M228.576,35.096 L226.176,35.096 L227.964,32.48 C228.076,32.296 228.184,32.116 228.288,31.94 C228.392,31.764 228.492,31.584 228.588,31.4 L228.588,31.4 L228.636,31.4 C228.62,31.608 228.606,31.854 228.594,32.138 C228.582,32.422 228.576,32.668 228.576,32.876 L228.576,32.876 L228.576,35.096 Z M236.16,38 L236.16,37.184 L234.576,37.184 L234.576,30.344 L233.82,30.344 C233.612,30.472 233.378,30.582 233.118,30.674 C232.858,30.766 232.552,30.844 232.2,30.908 L232.2,30.908 L232.2,31.544 L233.592,31.544 L233.592,37.184 L231.84,37.184 L231.84,38 L236.16,38 Z M240.444,38 C240.884,38 241.288,37.952 241.656,37.856 C242.024,37.76 242.34,37.616 242.604,37.424 C242.868,37.232 243.072,36.992 243.216,36.704 C243.36,36.416 243.432,36.08 243.432,35.696 C243.432,35.152 243.284,34.724 242.988,34.412 C242.692,34.1 242.304,33.9 241.824,33.812 L241.824,33.812 L241.824,33.764 C242.2,33.644 242.486,33.426 242.682,33.11 C242.878,32.794 242.976,32.44 242.976,32.048 C242.976,31.704 242.91,31.41 242.778,31.166 C242.646,30.922 242.462,30.724 242.226,30.572 C241.99,30.42 241.706,30.308 241.374,30.236 C241.042,30.164 240.676,30.128 240.276,30.128 L240.276,30.128 L237.936,30.128 L237.936,38 L240.444,38 Z M240.096,33.476 L238.932,33.476 L238.932,30.92 L240.144,30.92 C240.76,30.92 241.222,31.016 241.53,31.208 C241.838,31.4 241.992,31.724 241.992,32.18 C241.992,32.58 241.844,32.896 241.548,33.128 C241.252,33.36 240.768,33.476 240.096,33.476 L240.096,33.476 Z M240.3,37.208 L238.932,37.208 L238.932,34.244 L240.3,34.244 C240.996,34.244 241.528,34.358 241.896,34.586 C242.264,34.814 242.448,35.172 242.448,35.66 C242.448,36.188 242.26,36.578 241.884,36.83 C241.508,37.082 240.98,37.208 240.3,37.208 L240.3,37.208 Z" id="Unobligated$141B" fill="#555555" fill-rule="nonzero"></path>
                    <line x1="10.5" y1="0" x2="10.5" y2="15" id="Line" stroke="#C6C6C6"></line>
                    <path d="M145,0 L145,3 C145,4.1045695 144.104569,5 143,5 L77,5 C75.8954305,5 75,5.8954305 75,7 L75,15 L75,15" id="Line-Copy-7" stroke="#C6C6C6" stroke-linecap="round" transform="translate(110.000000, 7.500000) scale(1, -1) translate(-110.000000, -7.500000) "></path>
                    <path d="M245,0 L245,1.2 C245,2.3045695 244.104569,3.2 243,3.2 L135,3.2 C133.895431,3.2 133,4.0954305 133,5.2 L133,12 L133,12" id="Line-Copy-11" stroke="#C6C6C6" stroke-linecap="round" transform="translate(189.000000, 6.000000) scale(-1, 1) translate(-189.000000, -6.000000) "></path>
                </g>
                <path d="M146.368,22.54 L146.368,21.084 C147.096,20.9253333 147.642,20.6056667 148.006,20.125 C148.37,19.6443333 148.552,19.068 148.552,18.396 C148.552,17.948 148.461,17.5723333 148.279,17.269 C148.097,16.9656667 147.868333,16.7066667 147.593,16.492 C147.317667,16.2773333 147.021333,16.0953333 146.704,15.946 C146.386667,15.7966667 146.090333,15.652 145.815,15.512 C145.539667,15.372 145.311,15.225 145.129,15.071 C144.947,14.917 144.856,14.728 144.856,14.504 C144.856,14.1866667 144.944667,13.958 145.122,13.818 C145.299333,13.678 145.556,13.608 145.892,13.608 C146.190667,13.608 146.456667,13.6663333 146.69,13.783 C146.923333,13.8996667 147.166,14.0746667 147.418,14.308 L147.418,14.308 L148.454,13.132 C148.183333,12.8426667 147.88,12.5953333 147.544,12.39 C147.208,12.1846667 146.816,12.0493333 146.368,11.984 L146.368,11.984 L146.368,10.57 L145.01,10.57 L145.01,12.012 C144.347333,12.1426667 143.827,12.4343333 143.449,12.887 C143.071,13.3396667 142.882,13.9113333 142.882,14.602 C142.882,15.022 142.973,15.3766667 143.155,15.666 C143.337,15.9553333 143.565667,16.2073333 143.841,16.422 C144.116333,16.6366667 144.412667,16.821 144.73,16.975 C145.047333,17.129 145.343667,17.283 145.619,17.437 C145.894333,17.591 146.123,17.752 146.305,17.92 C146.487,18.088 146.578,18.2933333 146.578,18.536 C146.578,18.8626667 146.487,19.1053333 146.305,19.264 C146.123,19.4226667 145.836,19.502 145.444,19.502 C145.108,19.502 144.779,19.4343333 144.457,19.299 C144.135,19.1636667 143.796667,18.9606667 143.442,18.69 L143.442,18.69 L142.546,20.076 C142.872667,20.3746667 143.262333,20.615 143.715,20.797 C144.167667,20.979 144.599333,21.0933333 145.01,21.14 L145.01,21.14 L145.01,22.54 L146.368,22.54 Z M156.028,21 L156.028,19.334 L154.362,19.334 L154.362,12.11 L152.85,12.11 C152.532667,12.2966667 152.206,12.4553333 151.87,12.586 C151.534,12.7166667 151.123333,12.8286667 150.638,12.922 L150.638,12.922 L150.638,14.196 L152.304,14.196 L152.304,19.334 L150.372,19.334 L150.372,21 L156.028,21 Z M158.884,21.168 C159.238667,21.168 159.535,21.0443333 159.773,20.797 C160.011,20.5496667 160.13,20.244 160.13,19.88 C160.13,19.5066667 160.011,19.1963333 159.773,18.949 C159.535,18.7016667 159.238667,18.578 158.884,18.578 C158.529333,18.578 158.233,18.7016667 157.995,18.949 C157.757,19.1963333 157.638,19.5066667 157.638,19.88 C157.638,20.244 157.757,20.5496667 157.995,20.797 C158.233,21.0443333 158.529333,21.168 158.884,21.168 Z M167.62,21 L167.62,19.334 L165.954,19.334 L165.954,12.11 L164.442,12.11 C164.124667,12.2966667 163.798,12.4553333 163.462,12.586 C163.126,12.7166667 162.715333,12.8286667 162.23,12.922 L162.23,12.922 L162.23,14.196 L163.896,14.196 L163.896,19.334 L161.964,19.334 L161.964,21 L167.62,21 Z M172.058,21.168 C172.534,21.168 172.965667,21.105 173.353,20.979 C173.740333,20.853 174.071667,20.6803333 174.347,20.461 C174.622333,20.2416667 174.834667,19.9826667 174.984,19.684 C175.133333,19.3853333 175.208,19.0586667 175.208,18.704 C175.208,18.116 175.058667,17.64 174.76,17.276 C174.461333,16.912 174.097333,16.6133333 173.668,16.38 L173.668,16.38 L173.668,16.324 C173.976,16.1186667 174.246667,15.8503333 174.48,15.519 C174.713333,15.1876667 174.83,14.8073333 174.83,14.378 C174.83,14.014 174.764667,13.6803333 174.634,13.377 C174.503333,13.0736667 174.321333,12.817 174.088,12.607 C173.854667,12.397 173.57,12.2336667 173.234,12.117 C172.898,12.0003333 172.529333,11.942 172.128,11.942 C171.717333,11.942 171.337,11.998 170.987,12.11 C170.637,12.222 170.336,12.3853333 170.084,12.6 C169.832,12.8146667 169.636,13.0736667 169.496,13.377 C169.356,13.6803333 169.286,14.0186667 169.286,14.392 C169.286,14.868 169.398,15.2716667 169.622,15.603 C169.846,15.9343333 170.130667,16.2306667 170.476,16.492 L170.476,16.492 L170.476,16.548 C170.056,16.772 169.699,17.0566667 169.405,17.402 C169.111,17.7473333 168.964,18.1906667 168.964,18.732 C168.964,19.096 169.041,19.4273333 169.195,19.726 C169.349,20.0246667 169.563667,20.2813333 169.839,20.496 C170.114333,20.7106667 170.441,20.8763333 170.819,20.993 C171.197,21.1096667 171.61,21.168 172.058,21.168 Z M172.618,15.82 C172.160667,15.6426667 171.792,15.4513333 171.512,15.246 C171.232,15.0406667 171.092,14.756 171.092,14.392 C171.092,14.0466667 171.19,13.79 171.386,13.622 C171.582,13.454 171.815333,13.37 172.086,13.37 C172.422,13.37 172.685667,13.475 172.877,13.685 C173.068333,13.895 173.164,14.1726667 173.164,14.518 C173.164,14.966 172.982,15.4 172.618,15.82 Z M172.1,19.74 C171.726667,19.74 171.404667,19.6303333 171.134,19.411 C170.863333,19.1916667 170.728,18.886 170.728,18.494 C170.728,18.2233333 170.793333,17.9666667 170.924,17.724 C171.054667,17.4813333 171.218,17.2666667 171.414,17.08 C171.694,17.2013333 171.948333,17.3133333 172.177,17.416 C172.405667,17.5186667 172.604,17.6283333 172.772,17.745 C172.94,17.8616667 173.068333,17.99 173.157,18.13 C173.245667,18.27 173.29,18.438 173.29,18.634 C173.29,19.0073333 173.178,19.285 172.954,19.467 C172.73,19.649 172.445333,19.74 172.1,19.74 Z M180.696,21 L180.696,13.608 L183.202,13.608 L183.202,11.872 L176.118,11.872 L176.118,13.608 L178.624,13.608 L178.624,21 L180.696,21 Z" id="$1.18T" fill="#555555" fill-rule="nonzero"></path>
                <g id="Group-17-Copy">
                    <rect id="outlays" fill="#331E4D" x="0" y="0" width="60" height="31"></rect>
                    <rect id="unobligated" fill="#F3E9FF" x="111" y="0" width="26" height="31"></rect>
                    <rect id="obligated" fill="#6F41A7" x="60" y="0" width="69" height="31"></rect>
                </g>
            </g>
        </g>
    </g>
</svg>