<?xml version="1.0" encoding="UTF-8"?>
<svg width="323px" height="75px" viewBox="0 0 323 75" version="1.1" xmlns="http://www.w3.org/2000/svg" xmlns:xlink="http://www.w3.org/1999/xlink">
    <title>law 3 - B loan</title>
    <g id="SVG-2.0" stroke="none" stroke-width="1" fill="none" fill-rule="evenodd">
        <g id="viz-3-mobile-outline" transform="translate(-36.000000, -1412.000000)">
            <g id="law-3---B-loan" transform="translate(36.000000, 1412.000000)">
                <path d="M4.044,58.144 C4.556,58.144 5.024,58.05 5.448,57.862 C5.872,57.674 6.238,57.402 6.546,57.046 C6.854,56.69 7.092,56.26 7.26,55.756 C7.428,55.252 7.512,54.68 7.512,54.04 C7.512,53.408 7.428,52.842 7.26,52.342 C7.092,51.842 6.854,51.42 6.546,51.076 C6.238,50.732 5.872,50.468 5.448,50.284 C5.024,50.1 4.556,50.008 4.044,50.008 C3.532,50.008 3.064,50.1 2.64,50.284 C2.216,50.468 1.852,50.732 1.548,51.076 C1.244,51.42 1.008,51.842 0.84,52.342 C0.672,52.842 0.588,53.408 0.588,54.04 C0.588,54.68 0.672,55.252 0.84,55.756 C1.008,56.26 1.244,56.69 1.548,57.046 C1.852,57.402 2.216,57.674 2.64,57.862 C3.064,58.05 3.532,58.144 4.044,58.144 Z M4.044,56.932 C3.732,56.932 3.452,56.864 3.204,56.728 C2.956,56.592 2.744,56.398 2.568,56.146 C2.392,55.894 2.256,55.59 2.16,55.234 C2.064,54.878 2.016,54.48 2.016,54.04 C2.016,53.16 2.198,52.47 2.562,51.97 C2.926,51.47 3.42,51.22 4.044,51.22 C4.668,51.22 5.162,51.47 5.526,51.97 C5.89,52.47 6.072,53.16 6.072,54.04 C6.072,54.48 6.024,54.878 5.928,55.234 C5.832,55.59 5.696,55.894 5.52,56.146 C5.344,56.398 5.132,56.592 4.884,56.728 C4.636,56.864 4.356,56.932 4.044,56.932 Z M10.716,58.144 C11.124,58.144 11.478,58.052 11.778,57.868 C12.078,57.684 12.356,57.44 12.612,57.136 L12.612,57.136 L12.648,57.136 L12.756,58 L13.884,58 L13.884,52.108 L12.504,52.108 L12.504,56.14 C12.28,56.428 12.07,56.636 11.874,56.764 C11.678,56.892 11.452,56.956 11.196,56.956 C10.876,56.956 10.644,56.856 10.5,56.656 C10.356,56.456 10.284,56.112 10.284,55.624 L10.284,55.624 L10.284,52.108 L8.904,52.108 L8.904,55.804 C8.904,56.556 9.048,57.134 9.336,57.538 C9.624,57.942 10.084,58.144 10.716,58.144 Z M17.712,58.144 C17.944,58.144 18.162,58.122 18.366,58.078 C18.57,58.034 18.752,57.984 18.912,57.928 L18.912,57.928 L18.672,56.908 C18.584,56.948 18.486,56.98 18.378,57.004 C18.27,57.028 18.164,57.04 18.06,57.04 C17.508,57.04 17.232,56.696 17.232,56.008 L17.232,56.008 L17.232,53.2 L18.732,53.2 L18.732,52.108 L17.232,52.108 L17.232,50.5 L16.08,50.5 L15.912,52.108 L15,52.168 L15,53.2 L15.84,53.2 L15.84,56.008 C15.84,56.328 15.874,56.618 15.942,56.878 C16.01,57.138 16.118,57.362 16.266,57.55 C16.414,57.738 16.606,57.884 16.842,57.988 C17.078,58.092 17.368,58.144 17.712,58.144 Z M21.312,58.144 C21.616,58.144 21.86,58.104 22.044,58.024 L22.044,58.024 L21.864,56.992 C21.808,57.008 21.766,57.016 21.738,57.016 L21.738,57.016 L21.648,57.016 C21.576,57.016 21.508,56.982 21.444,56.914 C21.38,56.846 21.348,56.728 21.348,56.56 L21.348,56.56 L21.348,49.528 L19.968,49.528 L19.968,56.488 C19.968,57 20.068,57.404 20.268,57.7 C20.468,57.996 20.816,58.144 21.312,58.144 Z M24.648,58.144 C25,58.144 25.326,58.068 25.626,57.916 C25.926,57.764 26.208,57.576 26.472,57.352 L26.472,57.352 L26.52,57.352 L26.616,58 L27.756,58 L27.756,54.508 C27.756,53.684 27.574,53.054 27.21,52.618 C26.846,52.182 26.296,51.964 25.56,51.964 C25.088,51.964 24.648,52.04 24.24,52.192 C23.832,52.344 23.464,52.524 23.136,52.732 L23.136,52.732 L23.64,53.656 C23.904,53.496 24.174,53.36 24.45,53.248 C24.726,53.136 25.008,53.08 25.296,53.08 C25.496,53.08 25.664,53.11 25.8,53.17 C25.936,53.23 26.046,53.314 26.13,53.422 C26.214,53.53 26.274,53.654 26.31,53.794 C26.346,53.934 26.368,54.08 26.376,54.232 C25.768,54.296 25.246,54.388 24.81,54.508 C24.374,54.628 24.014,54.776 23.73,54.952 C23.446,55.128 23.238,55.338 23.106,55.582 C22.974,55.826 22.908,56.104 22.908,56.416 C22.908,56.936 23.068,57.354 23.388,57.67 C23.708,57.986 24.128,58.144 24.648,58.144 Z M25.092,57.064 C24.844,57.064 24.64,57.004 24.48,56.884 C24.32,56.764 24.24,56.572 24.24,56.308 C24.24,56.164 24.276,56.028 24.348,55.9 C24.42,55.772 24.54,55.658 24.708,55.558 C24.876,55.458 25.096,55.368 25.368,55.288 C25.64,55.208 25.976,55.144 26.376,55.096 L26.376,55.096 L26.376,56.416 C26.152,56.624 25.942,56.784 25.746,56.896 C25.55,57.008 25.332,57.064 25.092,57.064 Z M29.808,60.424 C30.128,60.424 30.41,60.374 30.654,60.274 C30.898,60.174 31.114,60.03 31.302,59.842 C31.49,59.654 31.656,59.428 31.8,59.164 C31.944,58.9 32.076,58.6 32.196,58.264 L32.196,58.264 L34.332,52.108 L33,52.108 L32.112,55 C32.04,55.264 31.966,55.538 31.89,55.822 C31.814,56.106 31.74,56.384 31.668,56.656 L31.668,56.656 L31.62,56.656 C31.532,56.376 31.446,56.094 31.362,55.81 C31.278,55.526 31.192,55.256 31.104,55 L31.104,55 L30.084,52.108 L28.68,52.108 L30.996,57.928 L30.888,58.3 C30.792,58.596 30.65,58.838 30.462,59.026 C30.274,59.214 30.024,59.308 29.712,59.308 C29.64,59.308 29.566,59.298 29.49,59.278 C29.414,59.258 29.348,59.24 29.292,59.224 L29.292,59.224 L29.04,60.304 C29.152,60.344 29.268,60.374 29.388,60.394 C29.508,60.414 29.648,60.424 29.808,60.424 Z M36.996,58.144 C37.364,58.144 37.692,58.096 37.98,58 C38.268,57.904 38.508,57.774 38.7,57.61 C38.892,57.446 39.038,57.254 39.138,57.034 C39.238,56.814 39.288,56.576 39.288,56.32 C39.288,56.048 39.238,55.814 39.138,55.618 C39.038,55.422 38.906,55.256 38.742,55.12 C38.578,54.984 38.396,54.87 38.196,54.778 C37.996,54.686 37.796,54.604 37.596,54.532 C37.436,54.476 37.282,54.42 37.134,54.364 C36.986,54.308 36.856,54.248 36.744,54.184 C36.632,54.12 36.542,54.046 36.474,53.962 C36.406,53.878 36.372,53.776 36.372,53.656 C36.372,53.472 36.442,53.318 36.582,53.194 C36.722,53.07 36.94,53.008 37.236,53.008 C37.468,53.008 37.69,53.054 37.902,53.146 C38.114,53.238 38.324,53.36 38.532,53.512 L38.532,53.512 L39.168,52.672 C38.928,52.488 38.644,52.324 38.316,52.18 C37.988,52.036 37.62,51.964 37.212,51.964 C36.548,51.964 36.024,52.128 35.64,52.456 C35.256,52.784 35.064,53.208 35.064,53.728 C35.064,53.976 35.114,54.19 35.214,54.37 C35.314,54.55 35.442,54.708 35.598,54.844 C35.754,54.98 35.932,55.096 36.132,55.192 C36.332,55.288 36.528,55.372 36.72,55.444 C36.872,55.508 37.024,55.57 37.176,55.63 C37.328,55.69 37.464,55.756 37.584,55.828 C37.704,55.9 37.8,55.982 37.872,56.074 C37.944,56.166 37.98,56.272 37.98,56.392 C37.98,56.6 37.904,56.77 37.752,56.902 C37.6,57.034 37.364,57.1 37.044,57.1 C36.74,57.1 36.458,57.042 36.198,56.926 C35.938,56.81 35.676,56.648 35.412,56.44 L35.412,56.44 L34.764,57.328 C35.052,57.56 35.394,57.754 35.79,57.91 C36.186,58.066 36.588,58.144 36.996,58.144 Z M3.384,74.32 L3.384,73.108 C3.96,73.028 4.414,72.804 4.746,72.436 C5.078,72.068 5.244,71.596 5.244,71.02 C5.244,70.588 5.162,70.234 4.998,69.958 C4.834,69.682 4.628,69.45 4.38,69.262 C4.132,69.074 3.862,68.914 3.57,68.782 C3.278,68.65 3.008,68.514 2.76,68.374 C2.512,68.234 2.306,68.072 2.142,67.888 C1.978,67.704 1.896,67.468 1.896,67.18 C1.896,66.828 2.004,66.548 2.22,66.34 C2.436,66.132 2.728,66.028 3.096,66.028 C3.424,66.028 3.694,66.088 3.906,66.208 C4.118,66.328 4.336,66.496 4.56,66.712 L4.56,66.712 L5.088,66.124 C4.872,65.892 4.63,65.692 4.362,65.524 C4.094,65.356 3.768,65.252 3.384,65.212 L3.384,65.212 L3.384,64.024 L2.664,64.024 L2.664,65.236 C2.136,65.316 1.714,65.534 1.398,65.89 C1.082,66.246 0.924,66.692 0.924,67.228 C0.924,67.62 1.006,67.942 1.17,68.194 C1.334,68.446 1.54,68.66 1.788,68.836 C2.036,69.012 2.306,69.168 2.598,69.304 C2.89,69.44 3.16,69.586 3.408,69.742 C3.656,69.898 3.862,70.082 4.026,70.294 C4.19,70.506 4.272,70.772 4.272,71.092 C4.272,71.468 4.162,71.768 3.942,71.992 C3.722,72.216 3.388,72.328 2.94,72.328 C2.572,72.328 2.234,72.25 1.926,72.094 C1.618,71.938 1.336,71.748 1.08,71.524 L1.08,71.524 L0.624,72.208 C0.88,72.44 1.188,72.642 1.548,72.814 C1.908,72.986 2.28,73.092 2.664,73.132 L2.664,73.132 L2.664,74.32 L3.384,74.32 Z M8.796,73.144 C9.148,73.144 9.476,73.094 9.78,72.994 C10.084,72.894 10.35,72.75 10.578,72.562 C10.806,72.374 10.986,72.144 11.118,71.872 C11.25,71.6 11.316,71.296 11.316,70.96 C11.316,70.696 11.274,70.456 11.19,70.24 C11.106,70.024 10.988,69.834 10.836,69.67 C10.684,69.506 10.508,69.37 10.308,69.262 C10.108,69.154 9.892,69.072 9.66,69.016 L9.66,69.016 L9.66,68.968 C10.076,68.808 10.412,68.58 10.668,68.284 C10.924,67.988 11.052,67.608 11.052,67.144 C11.052,66.832 10.996,66.556 10.884,66.316 C10.772,66.076 10.614,65.874 10.41,65.71 C10.206,65.546 9.964,65.42 9.684,65.332 C9.404,65.244 9.096,65.2 8.76,65.2 C8.304,65.2 7.898,65.29 7.542,65.47 C7.186,65.65 6.86,65.88 6.564,66.16 L6.564,66.16 L7.092,66.784 C7.324,66.552 7.574,66.364 7.842,66.22 C8.11,66.076 8.404,66.004 8.724,66.004 C9.132,66.004 9.454,66.112 9.69,66.328 C9.926,66.544 10.044,66.84 10.044,67.216 C10.044,67.416 10.008,67.604 9.936,67.78 C9.864,67.956 9.742,68.108 9.57,68.236 C9.398,68.364 9.174,68.464 8.898,68.536 C8.622,68.608 8.28,68.644 7.872,68.644 L7.872,68.644 L7.872,69.4 C8.328,69.4 8.712,69.436 9.024,69.508 C9.336,69.58 9.588,69.684 9.78,69.82 C9.972,69.956 10.11,70.118 10.194,70.306 C10.278,70.494 10.32,70.7 10.32,70.924 C10.32,71.356 10.172,71.698 9.876,71.95 C9.58,72.202 9.2,72.328 8.736,72.328 C8.28,72.328 7.898,72.236 7.59,72.052 C7.282,71.868 7.012,71.656 6.78,71.416 L6.78,71.416 L6.276,72.064 C6.404,72.208 6.55,72.344 6.714,72.472 C6.878,72.6 7.064,72.714 7.272,72.814 C7.48,72.914 7.71,72.994 7.962,73.054 C8.214,73.114 8.492,73.144 8.796,73.144 Z M14.76,73.144 C15.112,73.144 15.44,73.094 15.744,72.994 C16.048,72.894 16.314,72.75 16.542,72.562 C16.77,72.374 16.95,72.144 17.082,71.872 C17.214,71.6 17.28,71.296 17.28,70.96 C17.28,70.696 17.238,70.456 17.154,70.24 C17.07,70.024 16.952,69.834 16.8,69.67 C16.648,69.506 16.472,69.37 16.272,69.262 C16.072,69.154 15.856,69.072 15.624,69.016 L15.624,69.016 L15.624,68.968 C16.04,68.808 16.376,68.58 16.632,68.284 C16.888,67.988 17.016,67.608 17.016,67.144 C17.016,66.832 16.96,66.556 16.848,66.316 C16.736,66.076 16.578,65.874 16.374,65.71 C16.17,65.546 15.928,65.42 15.648,65.332 C15.368,65.244 15.06,65.2 14.724,65.2 C14.268,65.2 13.862,65.29 13.506,65.47 C13.15,65.65 12.824,65.88 12.528,66.16 L12.528,66.16 L13.056,66.784 C13.288,66.552 13.538,66.364 13.806,66.22 C14.074,66.076 14.368,66.004 14.688,66.004 C15.096,66.004 15.418,66.112 15.654,66.328 C15.89,66.544 16.008,66.84 16.008,67.216 C16.008,67.416 15.972,67.604 15.9,67.78 C15.828,67.956 15.706,68.108 15.534,68.236 C15.362,68.364 15.138,68.464 14.862,68.536 C14.586,68.608 14.244,68.644 13.836,68.644 L13.836,68.644 L13.836,69.4 C14.292,69.4 14.676,69.436 14.988,69.508 C15.3,69.58 15.552,69.684 15.744,69.82 C15.936,69.956 16.074,70.118 16.158,70.306 C16.242,70.494 16.284,70.7 16.284,70.924 C16.284,71.356 16.136,71.698 15.84,71.95 C15.544,72.202 15.164,72.328 14.7,72.328 C14.244,72.328 13.862,72.236 13.554,72.052 C13.246,71.868 12.976,71.656 12.744,71.416 L12.744,71.416 L12.24,72.064 C12.368,72.208 12.514,72.344 12.678,72.472 C12.842,72.6 13.028,72.714 13.236,72.814 C13.444,72.914 13.674,72.994 13.926,73.054 C14.178,73.114 14.456,73.144 14.76,73.144 Z M23.316,73 L23.316,72.148 L21.096,72.148 C20.896,72.148 20.684,72.156 20.46,72.172 C20.236,72.188 20.02,72.204 19.812,72.22 C20.268,71.748 20.686,71.302 21.066,70.882 C21.446,70.462 21.774,70.058 22.05,69.67 C22.326,69.282 22.542,68.906 22.698,68.542 C22.854,68.178 22.932,67.816 22.932,67.456 C22.932,66.776 22.728,66.23 22.32,65.818 C21.912,65.406 21.352,65.2 20.64,65.2 C20.136,65.2 19.704,65.306 19.344,65.518 C18.984,65.73 18.644,66.012 18.324,66.364 L18.324,66.364 L18.888,66.928 C19.112,66.672 19.36,66.454 19.632,66.274 C19.904,66.094 20.2,66.004 20.52,66.004 C21.008,66.004 21.372,66.144 21.612,66.424 C21.852,66.704 21.972,67.064 21.972,67.504 C21.972,67.816 21.892,68.138 21.732,68.47 C21.572,68.802 21.34,69.166 21.036,69.562 C20.732,69.958 20.356,70.388 19.908,70.852 C19.46,71.316 18.948,71.836 18.372,72.412 L18.372,72.412 L18.372,73 L23.316,73 Z M27.444,73 C27.884,73 28.288,72.952 28.656,72.856 C29.024,72.76 29.34,72.616 29.604,72.424 C29.868,72.232 30.072,71.992 30.216,71.704 C30.36,71.416 30.432,71.08 30.432,70.696 C30.432,70.152 30.284,69.724 29.988,69.412 C29.692,69.1 29.304,68.9 28.824,68.812 L28.824,68.812 L28.824,68.764 C29.2,68.644 29.486,68.426 29.682,68.11 C29.878,67.794 29.976,67.44 29.976,67.048 C29.976,66.704 29.91,66.41 29.778,66.166 C29.646,65.922 29.462,65.724 29.226,65.572 C28.99,65.42 28.706,65.308 28.374,65.236 C28.042,65.164 27.676,65.128 27.276,65.128 L27.276,65.128 L24.936,65.128 L24.936,73 L27.444,73 Z M27.096,68.476 L25.932,68.476 L25.932,65.92 L27.144,65.92 C27.76,65.92 28.222,66.016 28.53,66.208 C28.838,66.4 28.992,66.724 28.992,67.18 C28.992,67.58 28.844,67.896 28.548,68.128 C28.252,68.36 27.768,68.476 27.096,68.476 L27.096,68.476 Z M27.3,72.208 L25.932,72.208 L25.932,69.244 L27.3,69.244 C27.996,69.244 28.528,69.358 28.896,69.586 C29.264,69.814 29.448,70.172 29.448,70.66 C29.448,71.188 29.26,71.578 28.884,71.83 C28.508,72.082 27.98,72.208 27.3,72.208 L27.3,72.208 Z" id="Outlays$332B" fill="#666666" fill-rule="nonzero"></path>
                <path d="M124.044,58.144 C124.556,58.144 125.024,58.05 125.448,57.862 C125.872,57.674 126.238,57.402 126.546,57.046 C126.854,56.69 127.092,56.26 127.26,55.756 C127.428,55.252 127.512,54.68 127.512,54.04 C127.512,53.408 127.428,52.842 127.26,52.342 C127.092,51.842 126.854,51.42 126.546,51.076 C126.238,50.732 125.872,50.468 125.448,50.284 C125.024,50.1 124.556,50.008 124.044,50.008 C123.532,50.008 123.064,50.1 122.64,50.284 C122.216,50.468 121.852,50.732 121.548,51.076 C121.244,51.42 121.008,51.842 120.84,52.342 C120.672,52.842 120.588,53.408 120.588,54.04 C120.588,54.68 120.672,55.252 120.84,55.756 C121.008,56.26 121.244,56.69 121.548,57.046 C121.852,57.402 122.216,57.674 122.64,57.862 C123.064,58.05 123.532,58.144 124.044,58.144 Z M124.044,56.932 C123.732,56.932 123.452,56.864 123.204,56.728 C122.956,56.592 122.744,56.398 122.568,56.146 C122.392,55.894 122.256,55.59 122.16,55.234 C122.064,54.878 122.016,54.48 122.016,54.04 C122.016,53.16 122.198,52.47 122.562,51.97 C122.926,51.47 123.42,51.22 124.044,51.22 C124.668,51.22 125.162,51.47 125.526,51.97 C125.89,52.47 126.072,53.16 126.072,54.04 C126.072,54.48 126.024,54.878 125.928,55.234 C125.832,55.59 125.696,55.894 125.52,56.146 C125.344,56.398 125.132,56.592 124.884,56.728 C124.636,56.864 124.356,56.932 124.044,56.932 Z M131.82,58.144 C132.148,58.144 132.464,58.072 132.768,57.928 C133.072,57.784 133.34,57.576 133.572,57.304 C133.804,57.032 133.99,56.698 134.13,56.302 C134.27,55.906 134.34,55.456 134.34,54.952 C134.34,54.496 134.288,54.084 134.184,53.716 C134.08,53.348 133.928,53.034 133.728,52.774 C133.528,52.514 133.284,52.314 132.996,52.174 C132.708,52.034 132.38,51.964 132.012,51.964 C131.708,51.964 131.41,52.032 131.118,52.168 C130.826,52.304 130.556,52.48 130.308,52.696 L130.308,52.696 L130.344,51.712 L130.344,49.528 L128.964,49.528 L128.964,58 L130.056,58 L130.176,57.376 L130.212,57.376 C130.46,57.624 130.722,57.814 130.998,57.946 C131.274,58.078 131.548,58.144 131.82,58.144 Z M131.532,57.004 C131.356,57.004 131.166,56.968 130.962,56.896 C130.758,56.824 130.552,56.696 130.344,56.512 L130.344,56.512 L130.344,53.764 C130.792,53.324 131.224,53.104 131.64,53.104 C132.088,53.104 132.412,53.268 132.612,53.596 C132.812,53.924 132.912,54.384 132.912,54.976 C132.912,55.648 132.78,56.154 132.516,56.494 C132.252,56.834 131.924,57.004 131.532,57.004 Z M137.064,58.144 C137.368,58.144 137.612,58.104 137.796,58.024 L137.796,58.024 L137.616,56.992 C137.56,57.008 137.518,57.016 137.49,57.016 L137.49,57.016 L137.4,57.016 C137.328,57.016 137.26,56.982 137.196,56.914 C137.132,56.846 137.1,56.728 137.1,56.56 L137.1,56.56 L137.1,49.528 L135.72,49.528 L135.72,56.488 C135.72,57 135.82,57.404 136.02,57.7 C136.22,57.996 136.568,58.144 137.064,58.144 Z M139.668,51.076 C139.916,51.076 140.12,51.004 140.28,50.86 C140.44,50.716 140.52,50.528 140.52,50.296 C140.52,50.064 140.44,49.874 140.28,49.726 C140.12,49.578 139.916,49.504 139.668,49.504 C139.42,49.504 139.216,49.578 139.056,49.726 C138.896,49.874 138.816,50.064 138.816,50.296 C138.816,50.528 138.896,50.716 139.056,50.86 C139.216,51.004 139.42,51.076 139.668,51.076 Z M140.352,58 L140.352,52.108 L138.972,52.108 L138.972,58 L140.352,58 Z M144.168,60.604 C144.648,60.604 145.082,60.55 145.47,60.442 C145.858,60.334 146.188,60.188 146.46,60.004 C146.732,59.82 146.942,59.6 147.09,59.344 C147.238,59.088 147.312,58.816 147.312,58.528 C147.312,58.016 147.13,57.646 146.766,57.418 C146.402,57.19 145.864,57.076 145.152,57.076 L145.152,57.076 L144.108,57.076 C143.748,57.076 143.498,57.028 143.358,56.932 C143.218,56.836 143.148,56.704 143.148,56.536 C143.148,56.4 143.174,56.292 143.226,56.212 C143.278,56.132 143.348,56.052 143.436,55.972 C143.572,56.028 143.708,56.068 143.844,56.092 C143.98,56.116 144.112,56.128 144.24,56.128 C144.552,56.128 144.844,56.084 145.116,55.996 C145.388,55.908 145.624,55.78 145.824,55.612 C146.024,55.444 146.182,55.236 146.298,54.988 C146.414,54.74 146.472,54.452 146.472,54.124 C146.472,53.916 146.44,53.726 146.376,53.554 C146.312,53.382 146.232,53.24 146.136,53.128 L146.136,53.128 L147.216,53.128 L147.216,52.108 L145.104,52.108 C144.984,52.068 144.85,52.034 144.702,52.006 C144.554,51.978 144.4,51.964 144.24,51.964 C143.928,51.964 143.632,52.01 143.352,52.102 C143.072,52.194 142.826,52.33 142.614,52.51 C142.402,52.69 142.232,52.912 142.104,53.176 C141.976,53.44 141.912,53.74 141.912,54.076 C141.912,54.428 141.99,54.738 142.146,55.006 C142.302,55.274 142.48,55.484 142.68,55.636 L142.68,55.636 L142.68,55.684 C142.512,55.804 142.362,55.958 142.23,56.146 C142.098,56.334 142.032,56.544 142.032,56.776 C142.032,57.016 142.082,57.216 142.182,57.376 C142.282,57.536 142.408,57.664 142.56,57.76 L142.56,57.76 L142.56,57.808 C142.288,57.976 142.08,58.166 141.936,58.378 C141.792,58.59 141.72,58.82 141.72,59.068 C141.72,59.324 141.782,59.548 141.906,59.74 C142.03,59.932 142.2,60.092 142.416,60.22 C142.632,60.348 142.89,60.444 143.19,60.508 C143.49,60.572 143.816,60.604 144.168,60.604 Z M144.24,55.264 C143.952,55.264 143.708,55.162 143.508,54.958 C143.308,54.754 143.208,54.46 143.208,54.076 C143.208,53.7 143.308,53.412 143.508,53.212 C143.708,53.012 143.952,52.912 144.24,52.912 C144.528,52.912 144.77,53.014 144.966,53.218 C145.162,53.422 145.26,53.708 145.26,54.076 C145.26,54.46 145.16,54.754 144.96,54.958 C144.76,55.162 144.52,55.264 144.24,55.264 Z M144.384,59.704 C143.912,59.704 143.542,59.63 143.274,59.482 C143.006,59.334 142.872,59.128 142.872,58.864 C142.872,58.576 143.024,58.316 143.328,58.084 C143.544,58.14 143.812,58.168 144.132,58.168 L144.132,58.168 L144.936,58.168 C145.272,58.168 145.53,58.208 145.71,58.288 C145.89,58.368 145.98,58.524 145.98,58.756 C145.98,59.012 145.834,59.234 145.542,59.422 C145.25,59.61 144.864,59.704 144.384,59.704 Z M149.568,58.144 C149.92,58.144 150.246,58.068 150.546,57.916 C150.846,57.764 151.128,57.576 151.392,57.352 L151.392,57.352 L151.44,57.352 L151.536,58 L152.676,58 L152.676,54.508 C152.676,53.684 152.494,53.054 152.13,52.618 C151.766,52.182 151.216,51.964 150.48,51.964 C150.008,51.964 149.568,52.04 149.16,52.192 C148.752,52.344 148.384,52.524 148.056,52.732 L148.056,52.732 L148.56,53.656 C148.824,53.496 149.094,53.36 149.37,53.248 C149.646,53.136 149.928,53.08 150.216,53.08 C150.416,53.08 150.584,53.11 150.72,53.17 C150.856,53.23 150.966,53.314 151.05,53.422 C151.134,53.53 151.194,53.654 151.23,53.794 C151.266,53.934 151.288,54.08 151.296,54.232 C150.688,54.296 150.166,54.388 149.73,54.508 C149.294,54.628 148.934,54.776 148.65,54.952 C148.366,55.128 148.158,55.338 148.026,55.582 C147.894,55.826 147.828,56.104 147.828,56.416 C147.828,56.936 147.988,57.354 148.308,57.67 C148.628,57.986 149.048,58.144 149.568,58.144 Z M150.012,57.064 C149.764,57.064 149.56,57.004 149.4,56.884 C149.24,56.764 149.16,56.572 149.16,56.308 C149.16,56.164 149.196,56.028 149.268,55.9 C149.34,55.772 149.46,55.658 149.628,55.558 C149.796,55.458 150.016,55.368 150.288,55.288 C150.56,55.208 150.896,55.144 151.296,55.096 L151.296,55.096 L151.296,56.416 C151.072,56.624 150.862,56.784 150.666,56.896 C150.47,57.008 150.252,57.064 150.012,57.064 Z M156.216,58.144 C156.448,58.144 156.666,58.122 156.87,58.078 C157.074,58.034 157.256,57.984 157.416,57.928 L157.416,57.928 L157.176,56.908 C157.088,56.948 156.99,56.98 156.882,57.004 C156.774,57.028 156.668,57.04 156.564,57.04 C156.012,57.04 155.736,56.696 155.736,56.008 L155.736,56.008 L155.736,53.2 L157.236,53.2 L157.236,52.108 L155.736,52.108 L155.736,50.5 L154.584,50.5 L154.416,52.108 L153.504,52.168 L153.504,53.2 L154.344,53.2 L154.344,56.008 C154.344,56.328 154.378,56.618 154.446,56.878 C154.514,57.138 154.622,57.362 154.77,57.55 C154.918,57.738 155.11,57.884 155.346,57.988 C155.582,58.092 155.872,58.144 156.216,58.144 Z M159.168,51.076 C159.416,51.076 159.62,51.004 159.78,50.86 C159.94,50.716 160.02,50.528 160.02,50.296 C160.02,50.064 159.94,49.874 159.78,49.726 C159.62,49.578 159.416,49.504 159.168,49.504 C158.92,49.504 158.716,49.578 158.556,49.726 C158.396,49.874 158.316,50.064 158.316,50.296 C158.316,50.528 158.396,50.716 158.556,50.86 C158.716,51.004 158.92,51.076 159.168,51.076 Z M159.852,58 L159.852,52.108 L158.472,52.108 L158.472,58 L159.852,58 Z M164.028,58.144 C164.396,58.144 164.75,58.076 165.09,57.94 C165.43,57.804 165.728,57.604 165.984,57.34 C166.24,57.076 166.446,56.752 166.602,56.368 C166.758,55.984 166.836,55.548 166.836,55.06 C166.836,54.572 166.758,54.136 166.602,53.752 C166.446,53.368 166.24,53.044 165.984,52.78 C165.728,52.516 165.43,52.314 165.09,52.174 C164.75,52.034 164.396,51.964 164.028,51.964 C163.66,51.964 163.308,52.034 162.972,52.174 C162.636,52.314 162.338,52.516 162.078,52.78 C161.818,53.044 161.612,53.368 161.46,53.752 C161.308,54.136 161.232,54.572 161.232,55.06 C161.232,55.548 161.308,55.984 161.46,56.368 C161.612,56.752 161.818,57.076 162.078,57.34 C162.338,57.604 162.636,57.804 162.972,57.94 C163.308,58.076 163.66,58.144 164.028,58.144 Z M164.028,57.016 C163.596,57.016 163.258,56.838 163.014,56.482 C162.77,56.126 162.648,55.652 162.648,55.06 C162.648,54.46 162.77,53.982 163.014,53.626 C163.258,53.27 163.596,53.092 164.028,53.092 C164.46,53.092 164.8,53.27 165.048,53.626 C165.296,53.982 165.42,54.46 165.42,55.06 C165.42,55.652 165.296,56.126 165.048,56.482 C164.8,56.838 164.46,57.016 164.028,57.016 Z M169.584,58 L169.584,53.884 C169.832,53.644 170.054,53.462 170.25,53.338 C170.446,53.214 170.672,53.152 170.928,53.152 C171.256,53.152 171.492,53.252 171.636,53.452 C171.78,53.652 171.852,53.996 171.852,54.484 L171.852,54.484 L171.852,58 L173.232,58 L173.232,54.304 C173.232,53.552 173.088,52.974 172.8,52.57 C172.512,52.166 172.052,51.964 171.42,51.964 C171.012,51.964 170.654,52.056 170.346,52.24 C170.038,52.424 169.752,52.644 169.488,52.9 L169.488,52.9 L169.44,52.9 L169.344,52.108 L168.204,52.108 L168.204,58 L169.584,58 Z M176.568,58.144 C176.936,58.144 177.264,58.096 177.552,58 C177.84,57.904 178.08,57.774 178.272,57.61 C178.464,57.446 178.61,57.254 178.71,57.034 C178.81,56.814 178.86,56.576 178.86,56.32 C178.86,56.048 178.81,55.814 178.71,55.618 C178.61,55.422 178.478,55.256 178.314,55.12 C178.15,54.984 177.968,54.87 177.768,54.778 C177.568,54.686 177.368,54.604 177.168,54.532 C177.008,54.476 176.854,54.42 176.706,54.364 C176.558,54.308 176.428,54.248 176.316,54.184 C176.204,54.12 176.114,54.046 176.046,53.962 C175.978,53.878 175.944,53.776 175.944,53.656 C175.944,53.472 176.014,53.318 176.154,53.194 C176.294,53.07 176.512,53.008 176.808,53.008 C177.04,53.008 177.262,53.054 177.474,53.146 C177.686,53.238 177.896,53.36 178.104,53.512 L178.104,53.512 L178.74,52.672 C178.5,52.488 178.216,52.324 177.888,52.18 C177.56,52.036 177.192,51.964 176.784,51.964 C176.12,51.964 175.596,52.128 175.212,52.456 C174.828,52.784 174.636,53.208 174.636,53.728 C174.636,53.976 174.686,54.19 174.786,54.37 C174.886,54.55 175.014,54.708 175.17,54.844 C175.326,54.98 175.504,55.096 175.704,55.192 C175.904,55.288 176.1,55.372 176.292,55.444 C176.444,55.508 176.596,55.57 176.748,55.63 C176.9,55.69 177.036,55.756 177.156,55.828 C177.276,55.9 177.372,55.982 177.444,56.074 C177.516,56.166 177.552,56.272 177.552,56.392 C177.552,56.6 177.476,56.77 177.324,56.902 C177.172,57.034 176.936,57.1 176.616,57.1 C176.312,57.1 176.03,57.042 175.77,56.926 C175.51,56.81 175.248,56.648 174.984,56.44 L174.984,56.44 L174.336,57.328 C174.624,57.56 174.966,57.754 175.362,57.91 C175.758,58.066 176.16,58.144 176.568,58.144 Z M123.384,74.32 L123.384,73.108 C123.96,73.028 124.414,72.804 124.746,72.436 C125.078,72.068 125.244,71.596 125.244,71.02 C125.244,70.588 125.162,70.234 124.998,69.958 C124.834,69.682 124.628,69.45 124.38,69.262 C124.132,69.074 123.862,68.914 123.57,68.782 C123.278,68.65 123.008,68.514 122.76,68.374 C122.512,68.234 122.306,68.072 122.142,67.888 C121.978,67.704 121.896,67.468 121.896,67.18 C121.896,66.828 122.004,66.548 122.22,66.34 C122.436,66.132 122.728,66.028 123.096,66.028 C123.424,66.028 123.694,66.088 123.906,66.208 C124.118,66.328 124.336,66.496 124.56,66.712 L124.56,66.712 L125.088,66.124 C124.872,65.892 124.63,65.692 124.362,65.524 C124.094,65.356 123.768,65.252 123.384,65.212 L123.384,65.212 L123.384,64.024 L122.664,64.024 L122.664,65.236 C122.136,65.316 121.714,65.534 121.398,65.89 C121.082,66.246 120.924,66.692 120.924,67.228 C120.924,67.62 121.006,67.942 121.17,68.194 C121.334,68.446 121.54,68.66 121.788,68.836 C122.036,69.012 122.306,69.168 122.598,69.304 C122.89,69.44 123.16,69.586 123.408,69.742 C123.656,69.898 123.862,70.082 124.026,70.294 C124.19,70.506 124.272,70.772 124.272,71.092 C124.272,71.468 124.162,71.768 123.942,71.992 C123.722,72.216 123.388,72.328 122.94,72.328 C122.572,72.328 122.234,72.25 121.926,72.094 C121.618,71.938 121.336,71.748 121.08,71.524 L121.08,71.524 L120.624,72.208 C120.88,72.44 121.188,72.642 121.548,72.814 C121.908,72.986 122.28,73.092 122.664,73.132 L122.664,73.132 L122.664,74.32 L123.384,74.32 Z M128.796,73.144 C129.148,73.144 129.476,73.094 129.78,72.994 C130.084,72.894 130.35,72.75 130.578,72.562 C130.806,72.374 130.986,72.144 131.118,71.872 C131.25,71.6 131.316,71.296 131.316,70.96 C131.316,70.696 131.274,70.456 131.19,70.24 C131.106,70.024 130.988,69.834 130.836,69.67 C130.684,69.506 130.508,69.37 130.308,69.262 C130.108,69.154 129.892,69.072 129.66,69.016 L129.66,69.016 L129.66,68.968 C130.076,68.808 130.412,68.58 130.668,68.284 C130.924,67.988 131.052,67.608 131.052,67.144 C131.052,66.832 130.996,66.556 130.884,66.316 C130.772,66.076 130.614,65.874 130.41,65.71 C130.206,65.546 129.964,65.42 129.684,65.332 C129.404,65.244 129.096,65.2 128.76,65.2 C128.304,65.2 127.898,65.29 127.542,65.47 C127.186,65.65 126.86,65.88 126.564,66.16 L126.564,66.16 L127.092,66.784 C127.324,66.552 127.574,66.364 127.842,66.22 C128.11,66.076 128.404,66.004 128.724,66.004 C129.132,66.004 129.454,66.112 129.69,66.328 C129.926,66.544 130.044,66.84 130.044,67.216 C130.044,67.416 130.008,67.604 129.936,67.78 C129.864,67.956 129.742,68.108 129.57,68.236 C129.398,68.364 129.174,68.464 128.898,68.536 C128.622,68.608 128.28,68.644 127.872,68.644 L127.872,68.644 L127.872,69.4 C128.328,69.4 128.712,69.436 129.024,69.508 C129.336,69.58 129.588,69.684 129.78,69.82 C129.972,69.956 130.11,70.118 130.194,70.306 C130.278,70.494 130.32,70.7 130.32,70.924 C130.32,71.356 130.172,71.698 129.876,71.95 C129.58,72.202 129.2,72.328 128.736,72.328 C128.28,72.328 127.898,72.236 127.59,72.052 C127.282,71.868 127.012,71.656 126.78,71.416 L126.78,71.416 L126.276,72.064 C126.404,72.208 126.55,72.344 126.714,72.472 C126.878,72.6 127.064,72.714 127.272,72.814 C127.48,72.914 127.71,72.994 127.962,73.054 C128.214,73.114 128.492,73.144 128.796,73.144 Z M136.512,73 L136.512,70.888 L137.556,70.888 L137.556,70.096 L136.512,70.096 L136.512,65.344 L135.408,65.344 L132.132,70.24 L132.132,70.888 L135.576,70.888 L135.576,73 L136.512,73 Z M135.576,70.096 L133.176,70.096 L134.964,67.48 C135.076,67.296 135.184,67.116 135.288,66.94 C135.392,66.764 135.492,66.584 135.588,66.4 L135.588,66.4 L135.636,66.4 C135.62,66.608 135.606,66.854 135.594,67.138 C135.582,67.422 135.576,67.668 135.576,67.876 L135.576,67.876 L135.576,70.096 Z M140.892,73.144 C141.26,73.144 141.596,73.092 141.9,72.988 C142.204,72.884 142.464,72.74 142.68,72.556 C142.896,72.372 143.064,72.156 143.184,71.908 C143.304,71.66 143.364,71.392 143.364,71.104 C143.364,70.848 143.326,70.62 143.25,70.42 C143.174,70.22 143.074,70.042 142.95,69.886 C142.826,69.73 142.684,69.59 142.524,69.466 C142.364,69.342 142.2,69.232 142.032,69.136 L142.032,69.136 L142.032,69.088 C142.152,69 142.274,68.892 142.398,68.764 C142.522,68.636 142.634,68.492 142.734,68.332 C142.834,68.172 142.918,68 142.986,67.816 C143.054,67.632 143.088,67.44 143.088,67.24 C143.088,66.944 143.038,66.67 142.938,66.418 C142.838,66.166 142.694,65.95 142.506,65.77 C142.318,65.59 142.092,65.45 141.828,65.35 C141.564,65.25 141.264,65.2 140.928,65.2 C140.616,65.2 140.328,65.248 140.064,65.344 C139.8,65.44 139.572,65.574 139.38,65.746 C139.188,65.918 139.036,66.124 138.924,66.364 C138.812,66.604 138.756,66.872 138.756,67.168 C138.756,67.576 138.864,67.922 139.08,68.206 C139.296,68.49 139.544,68.732 139.824,68.932 L139.824,68.932 L139.824,68.98 C139.64,69.076 139.462,69.19 139.29,69.322 C139.118,69.454 138.966,69.606 138.834,69.778 C138.702,69.95 138.594,70.142 138.51,70.354 C138.426,70.566 138.384,70.796 138.384,71.044 C138.384,71.348 138.448,71.628 138.576,71.884 C138.704,72.14 138.878,72.362 139.098,72.55 C139.318,72.738 139.582,72.884 139.89,72.988 C140.198,73.092 140.532,73.144 140.892,73.144 Z M141.432,68.824 C141.2,68.736 140.978,68.642 140.766,68.542 C140.554,68.442 140.366,68.328 140.202,68.2 C140.038,68.072 139.908,67.926 139.812,67.762 C139.716,67.598 139.668,67.4 139.668,67.168 C139.668,66.792 139.784,66.492 140.016,66.268 C140.248,66.044 140.544,65.932 140.904,65.932 C141.328,65.932 141.656,66.062 141.888,66.322 C142.12,66.582 142.236,66.904 142.236,67.288 C142.236,67.568 142.166,67.836 142.026,68.092 C141.886,68.348 141.688,68.592 141.432,68.824 Z M140.916,72.412 C140.684,72.412 140.468,72.376 140.268,72.304 C140.068,72.232 139.894,72.13 139.746,71.998 C139.598,71.866 139.482,71.712 139.398,71.536 C139.314,71.36 139.272,71.164 139.272,70.948 C139.272,70.596 139.374,70.282 139.578,70.006 C139.782,69.73 140.036,69.488 140.34,69.28 C140.612,69.392 140.874,69.502 141.126,69.61 C141.378,69.718 141.6,69.838 141.792,69.97 C141.984,70.102 142.136,70.256 142.248,70.432 C142.36,70.608 142.416,70.82 142.416,71.068 C142.416,71.468 142.278,71.792 142.002,72.04 C141.726,72.288 141.364,72.412 140.916,72.412 Z M147.444,73 C147.884,73 148.288,72.952 148.656,72.856 C149.024,72.76 149.34,72.616 149.604,72.424 C149.868,72.232 150.072,71.992 150.216,71.704 C150.36,71.416 150.432,71.08 150.432,70.696 C150.432,70.152 150.284,69.724 149.988,69.412 C149.692,69.1 149.304,68.9 148.824,68.812 L148.824,68.812 L148.824,68.764 C149.2,68.644 149.486,68.426 149.682,68.11 C149.878,67.794 149.976,67.44 149.976,67.048 C149.976,66.704 149.91,66.41 149.778,66.166 C149.646,65.922 149.462,65.724 149.226,65.572 C148.99,65.42 148.706,65.308 148.374,65.236 C148.042,65.164 147.676,65.128 147.276,65.128 L147.276,65.128 L144.936,65.128 L144.936,73 L147.444,73 Z M147.096,68.476 L145.932,68.476 L145.932,65.92 L147.144,65.92 C147.76,65.92 148.222,66.016 148.53,66.208 C148.838,66.4 148.992,66.724 148.992,67.18 C148.992,67.58 148.844,67.896 148.548,68.128 C148.252,68.36 147.768,68.476 147.096,68.476 L147.096,68.476 Z M147.3,72.208 L145.932,72.208 L145.932,69.244 L147.3,69.244 C147.996,69.244 148.528,69.358 148.896,69.586 C149.264,69.814 149.448,70.172 149.448,70.66 C149.448,71.188 149.26,71.578 148.884,71.83 C148.508,72.082 147.98,72.208 147.3,72.208 L147.3,72.208 Z" id="Obligations$348B" fill="#666666" fill-rule="nonzero"></path>
                <path d="M263.936,58.144 C264.392,58.144 264.802,58.078 265.166,57.946 C265.53,57.814 265.842,57.604 266.102,57.316 C266.362,57.028 266.56,56.658 266.696,56.206 C266.832,55.754 266.9,55.204 266.9,54.556 L266.9,54.556 L266.9,50.152 L265.568,50.152 L265.568,54.664 C265.568,55.088 265.528,55.446 265.448,55.738 C265.368,56.03 265.256,56.264 265.112,56.44 C264.968,56.616 264.796,56.742 264.596,56.818 C264.396,56.894 264.176,56.932 263.936,56.932 C263.696,56.932 263.48,56.894 263.288,56.818 C263.096,56.742 262.93,56.616 262.79,56.44 C262.65,56.264 262.542,56.03 262.466,55.738 C262.39,55.446 262.352,55.088 262.352,54.664 L262.352,54.664 L262.352,50.152 L260.96,50.152 L260.96,54.556 C260.96,55.204 261.03,55.754 261.17,56.206 C261.31,56.658 261.51,57.028 261.77,57.316 C262.03,57.604 262.342,57.814 262.706,57.946 C263.07,58.078 263.48,58.144 263.936,58.144 Z M270.116,58 L270.116,53.884 C270.364,53.644 270.586,53.462 270.782,53.338 C270.978,53.214 271.204,53.152 271.46,53.152 C271.788,53.152 272.024,53.252 272.168,53.452 C272.312,53.652 272.384,53.996 272.384,54.484 L272.384,54.484 L272.384,58 L273.764,58 L273.764,54.304 C273.764,53.552 273.62,52.974 273.332,52.57 C273.044,52.166 272.584,51.964 271.952,51.964 C271.544,51.964 271.186,52.056 270.878,52.24 C270.57,52.424 270.284,52.644 270.02,52.9 L270.02,52.9 L269.972,52.9 L269.876,52.108 L268.736,52.108 L268.736,58 L270.116,58 Z M277.868,58.144 C278.236,58.144 278.59,58.076 278.93,57.94 C279.27,57.804 279.568,57.604 279.824,57.34 C280.08,57.076 280.286,56.752 280.442,56.368 C280.598,55.984 280.676,55.548 280.676,55.06 C280.676,54.572 280.598,54.136 280.442,53.752 C280.286,53.368 280.08,53.044 279.824,52.78 C279.568,52.516 279.27,52.314 278.93,52.174 C278.59,52.034 278.236,51.964 277.868,51.964 C277.5,51.964 277.148,52.034 276.812,52.174 C276.476,52.314 276.178,52.516 275.918,52.78 C275.658,53.044 275.452,53.368 275.3,53.752 C275.148,54.136 275.072,54.572 275.072,55.06 C275.072,55.548 275.148,55.984 275.3,56.368 C275.452,56.752 275.658,57.076 275.918,57.34 C276.178,57.604 276.476,57.804 276.812,57.94 C277.148,58.076 277.5,58.144 277.868,58.144 Z M277.868,57.016 C277.436,57.016 277.098,56.838 276.854,56.482 C276.61,56.126 276.488,55.652 276.488,55.06 C276.488,54.46 276.61,53.982 276.854,53.626 C277.098,53.27 277.436,53.092 277.868,53.092 C278.3,53.092 278.64,53.27 278.888,53.626 C279.136,53.982 279.26,54.46 279.26,55.06 C279.26,55.652 279.136,56.126 278.888,56.482 C278.64,56.838 278.3,57.016 277.868,57.016 Z M284.9,58.144 C285.228,58.144 285.544,58.072 285.848,57.928 C286.152,57.784 286.42,57.576 286.652,57.304 C286.884,57.032 287.07,56.698 287.21,56.302 C287.35,55.906 287.42,55.456 287.42,54.952 C287.42,54.496 287.368,54.084 287.264,53.716 C287.16,53.348 287.008,53.034 286.808,52.774 C286.608,52.514 286.364,52.314 286.076,52.174 C285.788,52.034 285.46,51.964 285.092,51.964 C284.788,51.964 284.49,52.032 284.198,52.168 C283.906,52.304 283.636,52.48 283.388,52.696 L283.388,52.696 L283.424,51.712 L283.424,49.528 L282.044,49.528 L282.044,58 L283.136,58 L283.256,57.376 L283.292,57.376 C283.54,57.624 283.802,57.814 284.078,57.946 C284.354,58.078 284.628,58.144 284.9,58.144 Z M284.612,57.004 C284.436,57.004 284.246,56.968 284.042,56.896 C283.838,56.824 283.632,56.696 283.424,56.512 L283.424,56.512 L283.424,53.764 C283.872,53.324 284.304,53.104 284.72,53.104 C285.168,53.104 285.492,53.268 285.692,53.596 C285.892,53.924 285.992,54.384 285.992,54.976 C285.992,55.648 285.86,56.154 285.596,56.494 C285.332,56.834 285.004,57.004 284.612,57.004 Z M290.144,58.144 C290.448,58.144 290.692,58.104 290.876,58.024 L290.876,58.024 L290.696,56.992 C290.64,57.008 290.598,57.016 290.57,57.016 L290.57,57.016 L290.48,57.016 C290.408,57.016 290.34,56.982 290.276,56.914 C290.212,56.846 290.18,56.728 290.18,56.56 L290.18,56.56 L290.18,49.528 L288.8,49.528 L288.8,56.488 C288.8,57 288.9,57.404 289.1,57.7 C289.3,57.996 289.648,58.144 290.144,58.144 Z M292.748,51.076 C292.996,51.076 293.2,51.004 293.36,50.86 C293.52,50.716 293.6,50.528 293.6,50.296 C293.6,50.064 293.52,49.874 293.36,49.726 C293.2,49.578 292.996,49.504 292.748,49.504 C292.5,49.504 292.296,49.578 292.136,49.726 C291.976,49.874 291.896,50.064 291.896,50.296 C291.896,50.528 291.976,50.716 292.136,50.86 C292.296,51.004 292.5,51.076 292.748,51.076 Z M293.432,58 L293.432,52.108 L292.052,52.108 L292.052,58 L293.432,58 Z M297.248,60.604 C297.728,60.604 298.162,60.55 298.55,60.442 C298.938,60.334 299.268,60.188 299.54,60.004 C299.812,59.82 300.022,59.6 300.17,59.344 C300.318,59.088 300.392,58.816 300.392,58.528 C300.392,58.016 300.21,57.646 299.846,57.418 C299.482,57.19 298.944,57.076 298.232,57.076 L298.232,57.076 L297.188,57.076 C296.828,57.076 296.578,57.028 296.438,56.932 C296.298,56.836 296.228,56.704 296.228,56.536 C296.228,56.4 296.254,56.292 296.306,56.212 C296.358,56.132 296.428,56.052 296.516,55.972 C296.652,56.028 296.788,56.068 296.924,56.092 C297.06,56.116 297.192,56.128 297.32,56.128 C297.632,56.128 297.924,56.084 298.196,55.996 C298.468,55.908 298.704,55.78 298.904,55.612 C299.104,55.444 299.262,55.236 299.378,54.988 C299.494,54.74 299.552,54.452 299.552,54.124 C299.552,53.916 299.52,53.726 299.456,53.554 C299.392,53.382 299.312,53.24 299.216,53.128 L299.216,53.128 L300.296,53.128 L300.296,52.108 L298.184,52.108 C298.064,52.068 297.93,52.034 297.782,52.006 C297.634,51.978 297.48,51.964 297.32,51.964 C297.008,51.964 296.712,52.01 296.432,52.102 C296.152,52.194 295.906,52.33 295.694,52.51 C295.482,52.69 295.312,52.912 295.184,53.176 C295.056,53.44 294.992,53.74 294.992,54.076 C294.992,54.428 295.07,54.738 295.226,55.006 C295.382,55.274 295.56,55.484 295.76,55.636 L295.76,55.636 L295.76,55.684 C295.592,55.804 295.442,55.958 295.31,56.146 C295.178,56.334 295.112,56.544 295.112,56.776 C295.112,57.016 295.162,57.216 295.262,57.376 C295.362,57.536 295.488,57.664 295.64,57.76 L295.64,57.76 L295.64,57.808 C295.368,57.976 295.16,58.166 295.016,58.378 C294.872,58.59 294.8,58.82 294.8,59.068 C294.8,59.324 294.862,59.548 294.986,59.74 C295.11,59.932 295.28,60.092 295.496,60.22 C295.712,60.348 295.97,60.444 296.27,60.508 C296.57,60.572 296.896,60.604 297.248,60.604 Z M297.32,55.264 C297.032,55.264 296.788,55.162 296.588,54.958 C296.388,54.754 296.288,54.46 296.288,54.076 C296.288,53.7 296.388,53.412 296.588,53.212 C296.788,53.012 297.032,52.912 297.32,52.912 C297.608,52.912 297.85,53.014 298.046,53.218 C298.242,53.422 298.34,53.708 298.34,54.076 C298.34,54.46 298.24,54.754 298.04,54.958 C297.84,55.162 297.6,55.264 297.32,55.264 Z M297.464,59.704 C296.992,59.704 296.622,59.63 296.354,59.482 C296.086,59.334 295.952,59.128 295.952,58.864 C295.952,58.576 296.104,58.316 296.408,58.084 C296.624,58.14 296.892,58.168 297.212,58.168 L297.212,58.168 L298.016,58.168 C298.352,58.168 298.61,58.208 298.79,58.288 C298.97,58.368 299.06,58.524 299.06,58.756 C299.06,59.012 298.914,59.234 298.622,59.422 C298.33,59.61 297.944,59.704 297.464,59.704 Z M302.648,58.144 C303,58.144 303.326,58.068 303.626,57.916 C303.926,57.764 304.208,57.576 304.472,57.352 L304.472,57.352 L304.52,57.352 L304.616,58 L305.756,58 L305.756,54.508 C305.756,53.684 305.574,53.054 305.21,52.618 C304.846,52.182 304.296,51.964 303.56,51.964 C303.088,51.964 302.648,52.04 302.24,52.192 C301.832,52.344 301.464,52.524 301.136,52.732 L301.136,52.732 L301.64,53.656 C301.904,53.496 302.174,53.36 302.45,53.248 C302.726,53.136 303.008,53.08 303.296,53.08 C303.496,53.08 303.664,53.11 303.8,53.17 C303.936,53.23 304.046,53.314 304.13,53.422 C304.214,53.53 304.274,53.654 304.31,53.794 C304.346,53.934 304.368,54.08 304.376,54.232 C303.768,54.296 303.246,54.388 302.81,54.508 C302.374,54.628 302.014,54.776 301.73,54.952 C301.446,55.128 301.238,55.338 301.106,55.582 C300.974,55.826 300.908,56.104 300.908,56.416 C300.908,56.936 301.068,57.354 301.388,57.67 C301.708,57.986 302.128,58.144 302.648,58.144 Z M303.092,57.064 C302.844,57.064 302.64,57.004 302.48,56.884 C302.32,56.764 302.24,56.572 302.24,56.308 C302.24,56.164 302.276,56.028 302.348,55.9 C302.42,55.772 302.54,55.658 302.708,55.558 C302.876,55.458 303.096,55.368 303.368,55.288 C303.64,55.208 303.976,55.144 304.376,55.096 L304.376,55.096 L304.376,56.416 C304.152,56.624 303.942,56.784 303.746,56.896 C303.55,57.008 303.332,57.064 303.092,57.064 Z M309.296,58.144 C309.528,58.144 309.746,58.122 309.95,58.078 C310.154,58.034 310.336,57.984 310.496,57.928 L310.496,57.928 L310.256,56.908 C310.168,56.948 310.07,56.98 309.962,57.004 C309.854,57.028 309.748,57.04 309.644,57.04 C309.092,57.04 308.816,56.696 308.816,56.008 L308.816,56.008 L308.816,53.2 L310.316,53.2 L310.316,52.108 L308.816,52.108 L308.816,50.5 L307.664,50.5 L307.496,52.108 L306.584,52.168 L306.584,53.2 L307.424,53.2 L307.424,56.008 C307.424,56.328 307.458,56.618 307.526,56.878 C307.594,57.138 307.702,57.362 307.85,57.55 C307.998,57.738 308.19,57.884 308.426,57.988 C308.662,58.092 308.952,58.144 309.296,58.144 Z M313.88,58.144 C314.256,58.144 314.616,58.084 314.96,57.964 C315.304,57.844 315.616,57.692 315.896,57.508 L315.896,57.508 L315.428,56.644 C315.212,56.78 314.994,56.886 314.774,56.962 C314.554,57.038 314.316,57.076 314.06,57.076 C313.58,57.076 313.186,56.934 312.878,56.65 C312.57,56.366 312.384,55.96 312.32,55.432 L312.32,55.432 L316.064,55.432 C316.08,55.36 316.094,55.264 316.106,55.144 C316.118,55.024 316.124,54.896 316.124,54.76 C316.124,54.352 316.072,53.976 315.968,53.632 C315.864,53.288 315.71,52.992 315.506,52.744 C315.302,52.496 315.048,52.304 314.744,52.168 C314.44,52.032 314.088,51.964 313.688,51.964 C313.344,51.964 313.008,52.036 312.68,52.18 C312.352,52.324 312.062,52.528 311.81,52.792 C311.558,53.056 311.356,53.38 311.204,53.764 C311.052,54.148 310.976,54.58 310.976,55.06 C310.976,55.548 311.05,55.982 311.198,56.362 C311.346,56.742 311.552,57.064 311.816,57.328 C312.08,57.592 312.388,57.794 312.74,57.934 C313.092,58.074 313.472,58.144 313.88,58.144 Z M314.924,54.496 L312.308,54.496 C312.372,54.016 312.536,53.652 312.8,53.404 C313.064,53.156 313.372,53.032 313.724,53.032 C314.132,53.032 314.434,53.162 314.63,53.422 C314.826,53.682 314.924,54.04 314.924,54.496 L314.924,54.496 Z M319.508,58.144 C319.828,58.144 320.132,58.068 320.42,57.916 C320.708,57.764 320.96,57.58 321.176,57.364 L321.176,57.364 L321.224,57.364 L321.32,58 L322.46,58 L322.46,49.528 L321.08,49.528 L321.08,51.664 L321.128,52.612 C320.896,52.412 320.664,52.254 320.432,52.138 C320.2,52.022 319.916,51.964 319.58,51.964 C319.26,51.964 318.95,52.036 318.65,52.18 C318.35,52.324 318.084,52.528 317.852,52.792 C317.62,53.056 317.434,53.38 317.294,53.764 C317.154,54.148 317.084,54.58 317.084,55.06 C317.084,56.036 317.302,56.794 317.738,57.334 C318.174,57.874 318.764,58.144 319.508,58.144 Z M319.844,57.004 C319.412,57.004 319.082,56.838 318.854,56.506 C318.626,56.174 318.512,55.688 318.512,55.048 C318.512,54.424 318.644,53.944 318.908,53.608 C319.172,53.272 319.496,53.104 319.88,53.104 C320.08,53.104 320.278,53.14 320.474,53.212 C320.67,53.284 320.872,53.412 321.08,53.596 L321.08,53.596 L321.08,56.344 C320.696,56.784 320.284,57.004 319.844,57.004 Z M263.384,74.32 L263.384,73.108 C263.96,73.028 264.414,72.804 264.746,72.436 C265.078,72.068 265.244,71.596 265.244,71.02 C265.244,70.588 265.162,70.234 264.998,69.958 C264.834,69.682 264.628,69.45 264.38,69.262 C264.132,69.074 263.862,68.914 263.57,68.782 C263.278,68.65 263.008,68.514 262.76,68.374 C262.512,68.234 262.306,68.072 262.142,67.888 C261.978,67.704 261.896,67.468 261.896,67.18 C261.896,66.828 262.004,66.548 262.22,66.34 C262.436,66.132 262.728,66.028 263.096,66.028 C263.424,66.028 263.694,66.088 263.906,66.208 C264.118,66.328 264.336,66.496 264.56,66.712 L264.56,66.712 L265.088,66.124 C264.872,65.892 264.63,65.692 264.362,65.524 C264.094,65.356 263.768,65.252 263.384,65.212 L263.384,65.212 L263.384,64.024 L262.664,64.024 L262.664,65.236 C262.136,65.316 261.714,65.534 261.398,65.89 C261.082,66.246 260.924,66.692 260.924,67.228 C260.924,67.62 261.006,67.942 261.17,68.194 C261.334,68.446 261.54,68.66 261.788,68.836 C262.036,69.012 262.306,69.168 262.598,69.304 C262.89,69.44 263.16,69.586 263.408,69.742 C263.656,69.898 263.862,70.082 264.026,70.294 C264.19,70.506 264.272,70.772 264.272,71.092 C264.272,71.468 264.162,71.768 263.942,71.992 C263.722,72.216 263.388,72.328 262.94,72.328 C262.572,72.328 262.234,72.25 261.926,72.094 C261.618,71.938 261.336,71.748 261.08,71.524 L261.08,71.524 L260.624,72.208 C260.88,72.44 261.188,72.642 261.548,72.814 C261.908,72.986 262.28,73.092 262.664,73.132 L262.664,73.132 L262.664,74.32 L263.384,74.32 Z M268.772,73.144 C269.108,73.144 269.43,73.086 269.738,72.97 C270.046,72.854 270.32,72.686 270.56,72.466 C270.8,72.246 270.992,71.976 271.136,71.656 C271.28,71.336 271.352,70.968 271.352,70.552 C271.352,70.136 271.29,69.778 271.166,69.478 C271.042,69.178 270.872,68.93 270.656,68.734 C270.44,68.538 270.188,68.392 269.9,68.296 C269.612,68.2 269.304,68.152 268.976,68.152 C268.744,68.152 268.536,68.18 268.352,68.236 C268.168,68.292 267.984,68.368 267.8,68.464 L267.8,68.464 L268.004,66.196 L270.968,66.196 L270.968,65.344 L267.14,65.344 L266.888,69.028 L267.416,69.364 C267.648,69.212 267.858,69.096 268.046,69.016 C268.234,68.936 268.46,68.896 268.724,68.896 C269.22,68.896 269.616,69.044 269.912,69.34 C270.208,69.636 270.356,70.048 270.356,70.576 C270.356,70.84 270.312,71.08 270.224,71.296 C270.136,71.512 270.016,71.696 269.864,71.848 C269.712,72 269.534,72.118 269.33,72.202 C269.126,72.286 268.908,72.328 268.676,72.328 C268.228,72.328 267.85,72.24 267.542,72.064 C267.234,71.888 266.968,71.684 266.744,71.452 L266.744,71.452 L266.264,72.1 C266.392,72.236 266.538,72.366 266.702,72.49 C266.866,72.614 267.05,72.724 267.254,72.82 C267.458,72.916 267.686,72.994 267.938,73.054 C268.19,73.114 268.468,73.144 268.772,73.144 Z M274.736,73.144 C275.072,73.144 275.394,73.086 275.702,72.97 C276.01,72.854 276.284,72.686 276.524,72.466 C276.764,72.246 276.956,71.976 277.1,71.656 C277.244,71.336 277.316,70.968 277.316,70.552 C277.316,70.136 277.254,69.778 277.13,69.478 C277.006,69.178 276.836,68.93 276.62,68.734 C276.404,68.538 276.152,68.392 275.864,68.296 C275.576,68.2 275.268,68.152 274.94,68.152 C274.708,68.152 274.5,68.18 274.316,68.236 C274.132,68.292 273.948,68.368 273.764,68.464 L273.764,68.464 L273.968,66.196 L276.932,66.196 L276.932,65.344 L273.104,65.344 L272.852,69.028 L273.38,69.364 C273.612,69.212 273.822,69.096 274.01,69.016 C274.198,68.936 274.424,68.896 274.688,68.896 C275.184,68.896 275.58,69.044 275.876,69.34 C276.172,69.636 276.32,70.048 276.32,70.576 C276.32,70.84 276.276,71.08 276.188,71.296 C276.1,71.512 275.98,71.696 275.828,71.848 C275.676,72 275.498,72.118 275.294,72.202 C275.09,72.286 274.872,72.328 274.64,72.328 C274.192,72.328 273.814,72.24 273.506,72.064 C273.198,71.888 272.932,71.684 272.708,71.452 L272.708,71.452 L272.228,72.1 C272.356,72.236 272.502,72.366 272.666,72.49 C272.83,72.614 273.014,72.724 273.218,72.82 C273.422,72.916 273.65,72.994 273.902,73.054 C274.154,73.114 274.432,73.144 274.736,73.144 Z M280.88,73.144 C281.648,73.144 282.248,72.8 282.68,72.112 C283.112,71.424 283.328,70.436 283.328,69.148 C283.328,67.86 283.112,66.88 282.68,66.208 C282.248,65.536 281.648,65.2 280.88,65.2 C280.104,65.2 279.5,65.536 279.068,66.208 C278.636,66.88 278.42,67.86 278.42,69.148 C278.42,70.436 278.636,71.424 279.068,72.112 C279.5,72.8 280.104,73.144 280.88,73.144 Z M280.88,72.352 C280.432,72.352 280.07,72.098 279.794,71.59 C279.518,71.082 279.38,70.268 279.38,69.148 C279.38,68.588 279.416,68.108 279.488,67.708 C279.56,67.308 279.662,66.982 279.794,66.73 C279.926,66.478 280.084,66.292 280.268,66.172 C280.452,66.052 280.656,65.992 280.88,65.992 C281.104,65.992 281.306,66.052 281.486,66.172 C281.666,66.292 281.822,66.478 281.954,66.73 C282.086,66.982 282.188,67.308 282.26,67.708 C282.332,68.108 282.368,68.588 282.368,69.148 C282.368,69.708 282.332,70.19 282.26,70.594 C282.188,70.998 282.086,71.33 281.954,71.59 C281.822,71.85 281.666,72.042 281.486,72.166 C281.306,72.29 281.104,72.352 280.88,72.352 Z M287.444,73 C287.884,73 288.288,72.952 288.656,72.856 C289.024,72.76 289.34,72.616 289.604,72.424 C289.868,72.232 290.072,71.992 290.216,71.704 C290.36,71.416 290.432,71.08 290.432,70.696 C290.432,70.152 290.284,69.724 289.988,69.412 C289.692,69.1 289.304,68.9 288.824,68.812 L288.824,68.812 L288.824,68.764 C289.2,68.644 289.486,68.426 289.682,68.11 C289.878,67.794 289.976,67.44 289.976,67.048 C289.976,66.704 289.91,66.41 289.778,66.166 C289.646,65.922 289.462,65.724 289.226,65.572 C288.99,65.42 288.706,65.308 288.374,65.236 C288.042,65.164 287.676,65.128 287.276,65.128 L287.276,65.128 L284.936,65.128 L284.936,73 L287.444,73 Z M287.096,68.476 L285.932,68.476 L285.932,65.92 L287.144,65.92 C287.76,65.92 288.222,66.016 288.53,66.208 C288.838,66.4 288.992,66.724 288.992,67.18 C288.992,67.58 288.844,67.896 288.548,68.128 C288.252,68.36 287.768,68.476 287.096,68.476 L287.096,68.476 Z M287.3,72.208 L285.932,72.208 L285.932,69.244 L287.3,69.244 C287.996,69.244 288.528,69.358 288.896,69.586 C289.264,69.814 289.448,70.172 289.448,70.66 C289.448,71.188 289.26,71.578 288.884,71.83 C288.508,72.082 287.98,72.208 287.3,72.208 L287.3,72.208 Z" id="Unobligated$550B" fill="#666666" fill-rule="nonzero"></path>
                <line x1="1.5" y1="31" x2="1.5" y2="46" id="Line" stroke="#C6C6C6"></line>
                <path d="M145,31 L145,34 C145,35.1045695 144.104569,36 143,36 L13,36 C11.8954305,36 11,36.8954305 11,38 L11,46 L11,46" id="Line-Copy-7" stroke="#C6C6C6" stroke-linecap="round" transform="translate(78.000000, 38.500000) scale(1, -1) translate(-78.000000, -38.500000) "></path>
                <path d="M288,31 L288,33 C288,34.1045695 287.104569,35 286,35 L59,35 C57.8954305,35 57,35.8954305 57,37 L57,46 L57,46" id="Line-Copy-11" stroke="#C6C6C6" stroke-linecap="round" transform="translate(172.500000, 38.500000) scale(-1, 1) translate(-172.500000, -38.500000) "></path>
                <path d="M93.368,22.54 L93.368,21.084 C94.096,20.9253333 94.642,20.6056667 95.006,20.125 C95.37,19.6443333 95.552,19.068 95.552,18.396 C95.552,17.948 95.461,17.5723333 95.279,17.269 C95.097,16.9656667 94.8683333,16.7066667 94.593,16.492 C94.3176667,16.2773333 94.0213333,16.0953333 93.704,15.946 C93.3866667,15.7966667 93.0903333,15.652 92.815,15.512 C92.5396667,15.372 92.311,15.225 92.129,15.071 C91.947,14.917 91.856,14.728 91.856,14.504 C91.856,14.1866667 91.9446667,13.958 92.122,13.818 C92.2993333,13.678 92.556,13.608 92.892,13.608 C93.1906667,13.608 93.4566667,13.6663333 93.69,13.783 C93.9233333,13.8996667 94.166,14.0746667 94.418,14.308 L94.418,14.308 L95.454,13.132 C95.1833333,12.8426667 94.88,12.5953333 94.544,12.39 C94.208,12.1846667 93.816,12.0493333 93.368,11.984 L93.368,11.984 L93.368,10.57 L92.01,10.57 L92.01,12.012 C91.3473333,12.1426667 90.827,12.4343333 90.449,12.887 C90.071,13.3396667 89.882,13.9113333 89.882,14.602 C89.882,15.022 89.973,15.3766667 90.155,15.666 C90.337,15.9553333 90.5656667,16.2073333 90.841,16.422 C91.1163333,16.6366667 91.4126667,16.821 91.73,16.975 C92.0473333,17.129 92.3436667,17.283 92.619,17.437 C92.8943333,17.591 93.123,17.752 93.305,17.92 C93.487,18.088 93.578,18.2933333 93.578,18.536 C93.578,18.8626667 93.487,19.1053333 93.305,19.264 C93.123,19.4226667 92.836,19.502 92.444,19.502 C92.108,19.502 91.779,19.4343333 91.457,19.299 C91.135,19.1636667 90.7966667,18.9606667 90.442,18.69 L90.442,18.69 L89.546,20.076 C89.8726667,20.3746667 90.2623333,20.615 90.715,20.797 C91.1676667,20.979 91.5993333,21.0933333 92.01,21.14 L92.01,21.14 L92.01,22.54 L93.368,22.54 Z M100.074,21.168 C100.55,21.168 100.981667,21.105 101.369,20.979 C101.756333,20.853 102.087667,20.6803333 102.363,20.461 C102.638333,20.2416667 102.850667,19.9826667 103,19.684 C103.149333,19.3853333 103.224,19.0586667 103.224,18.704 C103.224,18.116 103.074667,17.64 102.776,17.276 C102.477333,16.912 102.113333,16.6133333 101.684,16.38 L101.684,16.38 L101.684,16.324 C101.992,16.1186667 102.262667,15.8503333 102.496,15.519 C102.729333,15.1876667 102.846,14.8073333 102.846,14.378 C102.846,14.014 102.780667,13.6803333 102.65,13.377 C102.519333,13.0736667 102.337333,12.817 102.104,12.607 C101.870667,12.397 101.586,12.2336667 101.25,12.117 C100.914,12.0003333 100.545333,11.942 100.144,11.942 C99.7333333,11.942 99.353,11.998 99.003,12.11 C98.653,12.222 98.352,12.3853333 98.1,12.6 C97.848,12.8146667 97.652,13.0736667 97.512,13.377 C97.372,13.6803333 97.302,14.0186667 97.302,14.392 C97.302,14.868 97.414,15.2716667 97.638,15.603 C97.862,15.9343333 98.1466667,16.2306667 98.492,16.492 L98.492,16.492 L98.492,16.548 C98.072,16.772 97.715,17.0566667 97.421,17.402 C97.127,17.7473333 96.98,18.1906667 96.98,18.732 C96.98,19.096 97.057,19.4273333 97.211,19.726 C97.365,20.0246667 97.5796667,20.2813333 97.855,20.496 C98.1303333,20.7106667 98.457,20.8763333 98.835,20.993 C99.213,21.1096667 99.626,21.168 100.074,21.168 Z M100.634,15.82 C100.176667,15.6426667 99.808,15.4513333 99.528,15.246 C99.248,15.0406667 99.108,14.756 99.108,14.392 C99.108,14.0466667 99.206,13.79 99.402,13.622 C99.598,13.454 99.8313333,13.37 100.102,13.37 C100.438,13.37 100.701667,13.475 100.893,13.685 C101.084333,13.895 101.18,14.1726667 101.18,14.518 C101.18,14.966 100.998,15.4 100.634,15.82 Z M100.116,19.74 C99.7426667,19.74 99.4206667,19.6303333 99.15,19.411 C98.8793333,19.1916667 98.744,18.886 98.744,18.494 C98.744,18.2233333 98.8093333,17.9666667 98.94,17.724 C99.0706667,17.4813333 99.234,17.2666667 99.43,17.08 C99.71,17.2013333 99.9643333,17.3133333 100.193,17.416 C100.421667,17.5186667 100.62,17.6283333 100.788,17.745 C100.956,17.8616667 101.084333,17.99 101.173,18.13 C101.261667,18.27 101.306,18.438 101.306,18.634 C101.306,19.0073333 101.194,19.285 100.97,19.467 C100.746,19.649 100.461333,19.74 100.116,19.74 Z M106.99,21.168 C107.456667,21.168 107.907,21.0723333 108.341,20.881 C108.775,20.6896667 109.157667,20.398 109.489,20.006 C109.820333,19.614 110.086333,19.1146667 110.287,18.508 C110.487667,17.9013333 110.588,17.1826667 110.588,16.352 C110.588,15.568 110.492333,14.8983333 110.301,14.343 C110.109667,13.7876667 109.857667,13.3326667 109.545,12.978 C109.232333,12.6233333 108.873,12.362 108.467,12.194 C108.061,12.026 107.643333,11.942 107.214,11.942 C106.812667,11.942 106.432333,12.0096667 106.073,12.145 C105.713667,12.2803333 105.401,12.4786667 105.135,12.74 C104.869,13.0013333 104.656667,13.3163333 104.498,13.685 C104.339333,14.0536667 104.26,14.4666667 104.26,14.924 C104.26,15.3906667 104.327667,15.7966667 104.463,16.142 C104.598333,16.4873333 104.782667,16.772 105.016,16.996 C105.249333,17.22 105.527,17.388 105.849,17.5 C106.171,17.612 106.523333,17.668 106.906,17.668 C107.046,17.668 107.195333,17.647 107.354,17.605 C107.512667,17.563 107.671333,17.5023333 107.83,17.423 C107.988667,17.3436667 108.142667,17.2456667 108.292,17.129 C108.441333,17.0123333 108.572,16.8793333 108.684,16.73 C108.665333,17.2526667 108.607,17.689 108.509,18.039 C108.411,18.389 108.280333,18.6736667 108.117,18.893 C107.953667,19.1123333 107.764667,19.2686667 107.55,19.362 C107.335333,19.4553333 107.102,19.502 106.85,19.502 C106.588667,19.502 106.332,19.439 106.08,19.313 C105.828,19.187 105.627333,19.04 105.478,18.872 L105.478,18.872 L104.386,20.104 C104.666,20.384 105.023,20.6313333 105.457,20.846 C105.891,21.0606667 106.402,21.168 106.99,21.168 Z M107.312,16.212 C106.976,16.212 106.696,16.1163333 106.472,15.925 C106.248,15.7336667 106.136,15.4 106.136,14.924 C106.136,14.42 106.248,14.0536667 106.472,13.825 C106.696,13.5963333 106.957333,13.482 107.256,13.482 C107.573333,13.482 107.860333,13.615 108.117,13.881 C108.373667,14.147 108.548667,14.63 108.642,15.33 C108.464667,15.6473333 108.257,15.8736667 108.019,16.009 C107.781,16.1443333 107.545333,16.212 107.312,16.212 Z M114.382,21.168 C114.848667,21.168 115.299,21.0723333 115.733,20.881 C116.167,20.6896667 116.549667,20.398 116.881,20.006 C117.212333,19.614 117.478333,19.1146667 117.679,18.508 C117.879667,17.9013333 117.98,17.1826667 117.98,16.352 C117.98,15.568 117.884333,14.8983333 117.693,14.343 C117.501667,13.7876667 117.249667,13.3326667 116.937,12.978 C116.624333,12.6233333 116.265,12.362 115.859,12.194 C115.453,12.026 115.035333,11.942 114.606,11.942 C114.204667,11.942 113.824333,12.0096667 113.465,12.145 C113.105667,12.2803333 112.793,12.4786667 112.527,12.74 C112.261,13.0013333 112.048667,13.3163333 111.89,13.685 C111.731333,14.0536667 111.652,14.4666667 111.652,14.924 C111.652,15.3906667 111.719667,15.7966667 111.855,16.142 C111.990333,16.4873333 112.174667,16.772 112.408,16.996 C112.641333,17.22 112.919,17.388 113.241,17.5 C113.563,17.612 113.915333,17.668 114.298,17.668 C114.438,17.668 114.587333,17.647 114.746,17.605 C114.904667,17.563 115.063333,17.5023333 115.222,17.423 C115.380667,17.3436667 115.534667,17.2456667 115.684,17.129 C115.833333,17.0123333 115.964,16.8793333 116.076,16.73 C116.057333,17.2526667 115.999,17.689 115.901,18.039 C115.803,18.389 115.672333,18.6736667 115.509,18.893 C115.345667,19.1123333 115.156667,19.2686667 114.942,19.362 C114.727333,19.4553333 114.494,19.502 114.242,19.502 C113.980667,19.502 113.724,19.439 113.472,19.313 C113.22,19.187 113.019333,19.04 112.87,18.872 L112.87,18.872 L111.778,20.104 C112.058,20.384 112.415,20.6313333 112.849,20.846 C113.283,21.0606667 113.794,21.168 114.382,21.168 Z M114.704,16.212 C114.368,16.212 114.088,16.1163333 113.864,15.925 C113.64,15.7336667 113.528,15.4 113.528,14.924 C113.528,14.42 113.64,14.0536667 113.864,13.825 C114.088,13.5963333 114.349333,13.482 114.648,13.482 C114.965333,13.482 115.252333,13.615 115.509,13.881 C115.765667,14.147 115.940667,14.63 116.034,15.33 C115.856667,15.6473333 115.649,15.8736667 115.411,16.009 C115.173,16.1443333 114.937333,16.212 114.704,16.212 Z M123.034,21 C123.528667,21 123.990667,20.9463333 124.42,20.839 C124.849333,20.7316667 125.225,20.5683333 125.547,20.349 C125.869,20.1296667 126.121,19.852 126.303,19.516 C126.485,19.18 126.576,18.7786667 126.576,18.312 C126.576,18.004 126.534,17.731 126.45,17.493 C126.366,17.255 126.249333,17.0473333 126.1,16.87 C125.950667,16.6926667 125.778,16.5456667 125.582,16.429 C125.386,16.3123333 125.171333,16.226 124.938,16.17 L124.938,16.17 L124.938,16.114 C125.124667,16.0486667 125.290333,15.946 125.435,15.806 C125.579667,15.666 125.703333,15.5073333 125.806,15.33 C125.908667,15.1526667 125.988,14.9613333 126.044,14.756 C126.1,14.5506667 126.128,14.3453333 126.128,14.14 C126.128,13.7013333 126.041667,13.3373333 125.869,13.048 C125.696333,12.7586667 125.458333,12.5253333 125.155,12.348 C124.851667,12.1706667 124.497,12.047 124.091,11.977 C123.685,11.907 123.244,11.872 122.768,11.872 L122.768,11.872 L119.646,11.872 L119.646,21 L123.034,21 Z M122.67,15.526 L121.704,15.526 L121.704,13.468 L122.684,13.468 C123.169333,13.468 123.528667,13.5426667 123.762,13.692 C123.995333,13.8413333 124.112,14.0933333 124.112,14.448 C124.112,14.7746667 123.997667,15.036 123.769,15.232 C123.540333,15.428 123.174,15.526 122.67,15.526 L122.67,15.526 Z M122.866,19.404 L121.704,19.404 L121.704,17.052 L122.866,17.052 C123.435333,17.052 123.86,17.1383333 124.14,17.311 C124.42,17.4836667 124.56,17.7706667 124.56,18.172 C124.56,18.9933333 123.995333,19.404 122.866,19.404 L122.866,19.404 Z" id="$899B" fill="#555555" fill-rule="nonzero"></path>
                <g id="Group-7">
                    <rect id="outlays" fill="#331E4D" x="0" y="0" width="21.1891892" height="31"></rect>
                    <rect id="unobligated" fill="#F3E9FF" x="44.1081081" y="0" width="35.8918919" height="31"></rect>
                    <rect id="obligated" fill="#6F41A7" x="21.1891892" y="0" width="22.9189189" height="31"></rect>
                </g>
            </g>
        </g>
    </g>
</svg>