<?xml version="1.0" encoding="UTF-8"?>
<svg width="292px" height="34px" viewBox="0 0 292 34" version="1.1" xmlns="http://www.w3.org/2000/svg" xmlns:xlink="http://www.w3.org/1999/xlink">
    <title>law 3.5 - A general</title>
    <g id="SVG-2.0" stroke="none" stroke-width="1" fill="none" fill-rule="evenodd">
        <g id="viz-3-mobile-outline" transform="translate(-36.000000, -1808.000000)">
            <g id="law-3.5---A-general" transform="translate(36.000000, 1809.000000)">
                <path d="M24.368,21.54 L24.368,20.084 C25.096,19.9253333 25.642,19.6056667 26.006,19.125 C26.37,18.6443333 26.552,18.068 26.552,17.396 C26.552,16.948 26.461,16.5723333 26.279,16.269 C26.097,15.9656667 25.8683333,15.7066667 25.593,15.492 C25.3176667,15.2773333 25.0213333,15.0953333 24.704,14.946 C24.3866667,14.7966667 24.0903333,14.652 23.815,14.512 C23.5396667,14.372 23.311,14.225 23.129,14.071 C22.947,13.917 22.856,13.728 22.856,13.504 C22.856,13.1866667 22.9446667,12.958 23.122,12.818 C23.2993333,12.678 23.556,12.608 23.892,12.608 C24.1906667,12.608 24.4566667,12.6663333 24.69,12.783 C24.9233333,12.8996667 25.166,13.0746667 25.418,13.308 L25.418,13.308 L26.454,12.132 C26.1833333,11.8426667 25.88,11.5953333 25.544,11.39 C25.208,11.1846667 24.816,11.0493333 24.368,10.984 L24.368,10.984 L24.368,9.57 L23.01,9.57 L23.01,11.012 C22.3473333,11.1426667 21.827,11.4343333 21.449,11.887 C21.071,12.3396667 20.882,12.9113333 20.882,13.602 C20.882,14.022 20.973,14.3766667 21.155,14.666 C21.337,14.9553333 21.5656667,15.2073333 21.841,15.422 C22.1163333,15.6366667 22.4126667,15.821 22.73,15.975 C23.0473333,16.129 23.3436667,16.283 23.619,16.437 C23.8943333,16.591 24.123,16.752 24.305,16.92 C24.487,17.088 24.578,17.2933333 24.578,17.536 C24.578,17.8626667 24.487,18.1053333 24.305,18.264 C24.123,18.4226667 23.836,18.502 23.444,18.502 C23.108,18.502 22.779,18.4343333 22.457,18.299 C22.135,18.1636667 21.7966667,17.9606667 21.442,17.69 L21.442,17.69 L20.546,19.076 C20.8726667,19.3746667 21.2623333,19.615 21.715,19.797 C22.1676667,19.979 22.5993333,20.0933333 23.01,20.14 L23.01,20.14 L23.01,21.54 L24.368,21.54 Z M34.028,20 L34.028,18.334 L32.362,18.334 L32.362,11.11 L30.85,11.11 C30.5326667,11.2966667 30.206,11.4553333 29.87,11.586 C29.534,11.7166667 29.1233333,11.8286667 28.638,11.922 L28.638,11.922 L28.638,13.196 L30.304,13.196 L30.304,18.334 L28.372,18.334 L28.372,20 L34.028,20 Z M41.42,20 L41.42,18.334 L39.754,18.334 L39.754,11.11 L38.242,11.11 C37.9246667,11.2966667 37.598,11.4553333 37.262,11.586 C36.926,11.7166667 36.5153333,11.8286667 36.03,11.922 L36.03,11.922 L36.03,13.196 L37.696,13.196 L37.696,18.334 L35.764,18.334 L35.764,20 L41.42,20 Z M48.952,20 L48.952,18.264 L47.16,18.264 C46.9453333,18.264 46.7003333,18.2756667 46.425,18.299 C46.1496667,18.3223333 45.9,18.348 45.676,18.376 C46.04,18.0026667 46.3923333,17.6223333 46.733,17.235 C47.0736667,16.8476667 47.377,16.4603333 47.643,16.073 C47.909,15.6856667 48.1213333,15.2983333 48.28,14.911 C48.4386667,14.5236667 48.518,14.1433333 48.518,13.77 C48.518,13.3406667 48.448,12.9533333 48.308,12.608 C48.168,12.2626667 47.9673333,11.9663333 47.706,11.719 C47.4446667,11.4716667 47.1343333,11.2803333 46.775,11.145 C46.4156667,11.0096667 46.0166667,10.942 45.578,10.942 C44.9433333,10.942 44.3973333,11.061 43.94,11.299 C43.4826667,11.537 43.0346667,11.8893333 42.596,12.356 L42.596,12.356 L43.716,13.462 C43.94,13.2193333 44.178,13.007 44.43,12.825 C44.682,12.643 44.9713333,12.552 45.298,12.552 C45.69,12.552 45.998,12.6663333 46.222,12.895 C46.446,13.1236667 46.558,13.4573333 46.558,13.896 C46.558,14.2133333 46.4623333,14.547 46.271,14.897 C46.0796667,15.247 45.8136667,15.625 45.473,16.031 C45.1323333,16.437 44.7263333,16.871 44.255,17.333 C43.7836667,17.795 43.2633333,18.292 42.694,18.824 L42.694,18.824 L42.694,20 L48.952,20 Z M54.034,20 C54.5286667,20 54.9906667,19.9463333 55.42,19.839 C55.8493333,19.7316667 56.225,19.5683333 56.547,19.349 C56.869,19.1296667 57.121,18.852 57.303,18.516 C57.485,18.18 57.576,17.7786667 57.576,17.312 C57.576,17.004 57.534,16.731 57.45,16.493 C57.366,16.255 57.2493333,16.0473333 57.1,15.87 C56.9506667,15.6926667 56.778,15.5456667 56.582,15.429 C56.386,15.3123333 56.1713333,15.226 55.938,15.17 L55.938,15.17 L55.938,15.114 C56.1246667,15.0486667 56.2903333,14.946 56.435,14.806 C56.5796667,14.666 56.7033333,14.5073333 56.806,14.33 C56.9086667,14.1526667 56.988,13.9613333 57.044,13.756 C57.1,13.5506667 57.128,13.3453333 57.128,13.14 C57.128,12.7013333 57.0416667,12.3373333 56.869,12.048 C56.6963333,11.7586667 56.4583333,11.5253333 56.155,11.348 C55.8516667,11.1706667 55.497,11.047 55.091,10.977 C54.685,10.907 54.244,10.872 53.768,10.872 L53.768,10.872 L50.646,10.872 L50.646,20 L54.034,20 Z M53.67,14.526 L52.704,14.526 L52.704,12.468 L53.684,12.468 C54.1693333,12.468 54.5286667,12.5426667 54.762,12.692 C54.9953333,12.8413333 55.112,13.0933333 55.112,13.448 C55.112,13.7746667 54.9976667,14.036 54.769,14.232 C54.5403333,14.428 54.174,14.526 53.67,14.526 L53.67,14.526 Z M53.866,18.404 L52.704,18.404 L52.704,16.052 L53.866,16.052 C54.4353333,16.052 54.86,16.1383333 55.14,16.311 C55.42,16.4836667 55.56,16.7706667 55.56,17.172 C55.56,17.9933333 54.9953333,18.404 53.866,18.404 L53.866,18.404 Z" id="$112B" fill="#555555" fill-rule="nonzero"></path>
                <g id="labels" transform="translate(72.000000, 0.000000)">
                    <path d="M42.044,12.144 C42.556,12.144 43.024,12.05 43.448,11.862 C43.872,11.674 44.238,11.402 44.546,11.046 C44.854,10.69 45.092,10.26 45.26,9.756 C45.428,9.252 45.512,8.68 45.512,8.04 C45.512,7.408 45.428,6.842 45.26,6.342 C45.092,5.842 44.854,5.42 44.546,5.076 C44.238,4.732 43.872,4.468 43.448,4.284 C43.024,4.1 42.556,4.008 42.044,4.008 C41.532,4.008 41.064,4.1 40.64,4.284 C40.216,4.468 39.852,4.732 39.548,5.076 C39.244,5.42 39.008,5.842 38.84,6.342 C38.672,6.842 38.588,7.408 38.588,8.04 C38.588,8.68 38.672,9.252 38.84,9.756 C39.008,10.26 39.244,10.69 39.548,11.046 C39.852,11.402 40.216,11.674 40.64,11.862 C41.064,12.05 41.532,12.144 42.044,12.144 Z M42.044,10.932 C41.732,10.932 41.452,10.864 41.204,10.728 C40.956,10.592 40.744,10.398 40.568,10.146 C40.392,9.894 40.256,9.59 40.16,9.234 C40.064,8.878 40.016,8.48 40.016,8.04 C40.016,7.16 40.198,6.47 40.562,5.97 C40.926,5.47 41.42,5.22 42.044,5.22 C42.668,5.22 43.162,5.47 43.526,5.97 C43.89,6.47 44.072,7.16 44.072,8.04 C44.072,8.48 44.024,8.878 43.928,9.234 C43.832,9.59 43.696,9.894 43.52,10.146 C43.344,10.398 43.132,10.592 42.884,10.728 C42.636,10.864 42.356,10.932 42.044,10.932 Z M48.716,12.144 C49.124,12.144 49.478,12.052 49.778,11.868 C50.078,11.684 50.356,11.44 50.612,11.136 L50.612,11.136 L50.648,11.136 L50.756,12 L51.884,12 L51.884,6.108 L50.504,6.108 L50.504,10.14 C50.28,10.428 50.07,10.636 49.874,10.764 C49.678,10.892 49.452,10.956 49.196,10.956 C48.876,10.956 48.644,10.856 48.5,10.656 C48.356,10.456 48.284,10.112 48.284,9.624 L48.284,9.624 L48.284,6.108 L46.904,6.108 L46.904,9.804 C46.904,10.556 47.048,11.134 47.336,11.538 C47.624,11.942 48.084,12.144 48.716,12.144 Z M55.712,12.144 C55.944,12.144 56.162,12.122 56.366,12.078 C56.57,12.034 56.752,11.984 56.912,11.928 L56.912,11.928 L56.672,10.908 C56.584,10.948 56.486,10.98 56.378,11.004 C56.27,11.028 56.164,11.04 56.06,11.04 C55.508,11.04 55.232,10.696 55.232,10.008 L55.232,10.008 L55.232,7.2 L56.732,7.2 L56.732,6.108 L55.232,6.108 L55.232,4.5 L54.08,4.5 L53.912,6.108 L53,6.168 L53,7.2 L53.84,7.2 L53.84,10.008 C53.84,10.328 53.874,10.618 53.942,10.878 C54.01,11.138 54.118,11.362 54.266,11.55 C54.414,11.738 54.606,11.884 54.842,11.988 C55.078,12.092 55.368,12.144 55.712,12.144 Z M59.312,12.144 C59.616,12.144 59.86,12.104 60.044,12.024 L60.044,12.024 L59.864,10.992 C59.808,11.008 59.766,11.016 59.738,11.016 L59.738,11.016 L59.648,11.016 C59.576,11.016 59.508,10.982 59.444,10.914 C59.38,10.846 59.348,10.728 59.348,10.56 L59.348,10.56 L59.348,3.528 L57.968,3.528 L57.968,10.488 C57.968,11 58.068,11.404 58.268,11.7 C58.468,11.996 58.816,12.144 59.312,12.144 Z M62.648,12.144 C63,12.144 63.326,12.068 63.626,11.916 C63.926,11.764 64.208,11.576 64.472,11.352 L64.472,11.352 L64.52,11.352 L64.616,12 L65.756,12 L65.756,8.508 C65.756,7.684 65.574,7.054 65.21,6.618 C64.846,6.182 64.296,5.964 63.56,5.964 C63.088,5.964 62.648,6.04 62.24,6.192 C61.832,6.344 61.464,6.524 61.136,6.732 L61.136,6.732 L61.64,7.656 C61.904,7.496 62.174,7.36 62.45,7.248 C62.726,7.136 63.008,7.08 63.296,7.08 C63.496,7.08 63.664,7.11 63.8,7.17 C63.936,7.23 64.046,7.314 64.13,7.422 C64.214,7.53 64.274,7.654 64.31,7.794 C64.346,7.934 64.368,8.08 64.376,8.232 C63.768,8.296 63.246,8.388 62.81,8.508 C62.374,8.628 62.014,8.776 61.73,8.952 C61.446,9.128 61.238,9.338 61.106,9.582 C60.974,9.826 60.908,10.104 60.908,10.416 C60.908,10.936 61.068,11.354 61.388,11.67 C61.708,11.986 62.128,12.144 62.648,12.144 Z M63.092,11.064 C62.844,11.064 62.64,11.004 62.48,10.884 C62.32,10.764 62.24,10.572 62.24,10.308 C62.24,10.164 62.276,10.028 62.348,9.9 C62.42,9.772 62.54,9.658 62.708,9.558 C62.876,9.458 63.096,9.368 63.368,9.288 C63.64,9.208 63.976,9.144 64.376,9.096 L64.376,9.096 L64.376,10.416 C64.152,10.624 63.942,10.784 63.746,10.896 C63.55,11.008 63.332,11.064 63.092,11.064 Z M67.808,14.424 C68.128,14.424 68.41,14.374 68.654,14.274 C68.898,14.174 69.114,14.03 69.302,13.842 C69.49,13.654 69.656,13.428 69.8,13.164 C69.944,12.9 70.076,12.6 70.196,12.264 L70.196,12.264 L72.332,6.108 L71,6.108 L70.112,9 C70.04,9.264 69.966,9.538 69.89,9.822 C69.814,10.106 69.74,10.384 69.668,10.656 L69.668,10.656 L69.62,10.656 C69.532,10.376 69.446,10.094 69.362,9.81 C69.278,9.526 69.192,9.256 69.104,9 L69.104,9 L68.084,6.108 L66.68,6.108 L68.996,11.928 L68.888,12.3 C68.792,12.596 68.65,12.838 68.462,13.026 C68.274,13.214 68.024,13.308 67.712,13.308 C67.64,13.308 67.566,13.298 67.49,13.278 C67.414,13.258 67.348,13.24 67.292,13.224 L67.292,13.224 L67.04,14.304 C67.152,14.344 67.268,14.374 67.388,14.394 C67.508,14.414 67.648,14.424 67.808,14.424 Z M74.996,12.144 C75.364,12.144 75.692,12.096 75.98,12 C76.268,11.904 76.508,11.774 76.7,11.61 C76.892,11.446 77.038,11.254 77.138,11.034 C77.238,10.814 77.288,10.576 77.288,10.32 C77.288,10.048 77.238,9.814 77.138,9.618 C77.038,9.422 76.906,9.256 76.742,9.12 C76.578,8.984 76.396,8.87 76.196,8.778 C75.996,8.686 75.796,8.604 75.596,8.532 C75.436,8.476 75.282,8.42 75.134,8.364 C74.986,8.308 74.856,8.248 74.744,8.184 C74.632,8.12 74.542,8.046 74.474,7.962 C74.406,7.878 74.372,7.776 74.372,7.656 C74.372,7.472 74.442,7.318 74.582,7.194 C74.722,7.07 74.94,7.008 75.236,7.008 C75.468,7.008 75.69,7.054 75.902,7.146 C76.114,7.238 76.324,7.36 76.532,7.512 L76.532,7.512 L77.168,6.672 C76.928,6.488 76.644,6.324 76.316,6.18 C75.988,6.036 75.62,5.964 75.212,5.964 C74.548,5.964 74.024,6.128 73.64,6.456 C73.256,6.784 73.064,7.208 73.064,7.728 C73.064,7.976 73.114,8.19 73.214,8.37 C73.314,8.55 73.442,8.708 73.598,8.844 C73.754,8.98 73.932,9.096 74.132,9.192 C74.332,9.288 74.528,9.372 74.72,9.444 C74.872,9.508 75.024,9.57 75.176,9.63 C75.328,9.69 75.464,9.756 75.584,9.828 C75.704,9.9 75.8,9.982 75.872,10.074 C75.944,10.166 75.98,10.272 75.98,10.392 C75.98,10.6 75.904,10.77 75.752,10.902 C75.6,11.034 75.364,11.1 75.044,11.1 C74.74,11.1 74.458,11.042 74.198,10.926 C73.938,10.81 73.676,10.648 73.412,10.44 L73.412,10.44 L72.764,11.328 C73.052,11.56 73.394,11.754 73.79,11.91 C74.186,12.066 74.588,12.144 74.996,12.144 Z M41.384,28.32 L41.384,27.108 C41.96,27.028 42.414,26.804 42.746,26.436 C43.078,26.068 43.244,25.596 43.244,25.02 C43.244,24.588 43.162,24.234 42.998,23.958 C42.834,23.682 42.628,23.45 42.38,23.262 C42.132,23.074 41.862,22.914 41.57,22.782 C41.278,22.65 41.008,22.514 40.76,22.374 C40.512,22.234 40.306,22.072 40.142,21.888 C39.978,21.704 39.896,21.468 39.896,21.18 C39.896,20.828 40.004,20.548 40.22,20.34 C40.436,20.132 40.728,20.028 41.096,20.028 C41.424,20.028 41.694,20.088 41.906,20.208 C42.118,20.328 42.336,20.496 42.56,20.712 L42.56,20.712 L43.088,20.124 C42.872,19.892 42.63,19.692 42.362,19.524 C42.094,19.356 41.768,19.252 41.384,19.212 L41.384,19.212 L41.384,18.024 L40.664,18.024 L40.664,19.236 C40.136,19.316 39.714,19.534 39.398,19.89 C39.082,20.246 38.924,20.692 38.924,21.228 C38.924,21.62 39.006,21.942 39.17,22.194 C39.334,22.446 39.54,22.66 39.788,22.836 C40.036,23.012 40.306,23.168 40.598,23.304 C40.89,23.44 41.16,23.586 41.408,23.742 C41.656,23.898 41.862,24.082 42.026,24.294 C42.19,24.506 42.272,24.772 42.272,25.092 C42.272,25.468 42.162,25.768 41.942,25.992 C41.722,26.216 41.388,26.328 40.94,26.328 C40.572,26.328 40.234,26.25 39.926,26.094 C39.618,25.938 39.336,25.748 39.08,25.524 L39.08,25.524 L38.624,26.208 C38.88,26.44 39.188,26.642 39.548,26.814 C39.908,26.986 40.28,27.092 40.664,27.132 L40.664,27.132 L40.664,28.32 L41.384,28.32 Z M46.964,27.144 C47.332,27.144 47.668,27.092 47.972,26.988 C48.276,26.884 48.536,26.74 48.752,26.556 C48.968,26.372 49.136,26.156 49.256,25.908 C49.376,25.66 49.436,25.392 49.436,25.104 C49.436,24.848 49.398,24.62 49.322,24.42 C49.246,24.22 49.146,24.042 49.022,23.886 C48.898,23.73 48.756,23.59 48.596,23.466 C48.436,23.342 48.272,23.232 48.104,23.136 L48.104,23.136 L48.104,23.088 C48.224,23 48.346,22.892 48.47,22.764 C48.594,22.636 48.706,22.492 48.806,22.332 C48.906,22.172 48.99,22 49.058,21.816 C49.126,21.632 49.16,21.44 49.16,21.24 C49.16,20.944 49.11,20.67 49.01,20.418 C48.91,20.166 48.766,19.95 48.578,19.77 C48.39,19.59 48.164,19.45 47.9,19.35 C47.636,19.25 47.336,19.2 47,19.2 C46.688,19.2 46.4,19.248 46.136,19.344 C45.872,19.44 45.644,19.574 45.452,19.746 C45.26,19.918 45.108,20.124 44.996,20.364 C44.884,20.604 44.828,20.872 44.828,21.168 C44.828,21.576 44.936,21.922 45.152,22.206 C45.368,22.49 45.616,22.732 45.896,22.932 L45.896,22.932 L45.896,22.98 C45.712,23.076 45.534,23.19 45.362,23.322 C45.19,23.454 45.038,23.606 44.906,23.778 C44.774,23.95 44.666,24.142 44.582,24.354 C44.498,24.566 44.456,24.796 44.456,25.044 C44.456,25.348 44.52,25.628 44.648,25.884 C44.776,26.14 44.95,26.362 45.17,26.55 C45.39,26.738 45.654,26.884 45.962,26.988 C46.27,27.092 46.604,27.144 46.964,27.144 Z M47.504,22.824 C47.272,22.736 47.05,22.642 46.838,22.542 C46.626,22.442 46.438,22.328 46.274,22.2 C46.11,22.072 45.98,21.926 45.884,21.762 C45.788,21.598 45.74,21.4 45.74,21.168 C45.74,20.792 45.856,20.492 46.088,20.268 C46.32,20.044 46.616,19.932 46.976,19.932 C47.4,19.932 47.728,20.062 47.96,20.322 C48.192,20.582 48.308,20.904 48.308,21.288 C48.308,21.568 48.238,21.836 48.098,22.092 C47.958,22.348 47.76,22.592 47.504,22.824 Z M46.988,26.412 C46.756,26.412 46.54,26.376 46.34,26.304 C46.14,26.232 45.966,26.13 45.818,25.998 C45.67,25.866 45.554,25.712 45.47,25.536 C45.386,25.36 45.344,25.164 45.344,24.948 C45.344,24.596 45.446,24.282 45.65,24.006 C45.854,23.73 46.108,23.488 46.412,23.28 C46.684,23.392 46.946,23.502 47.198,23.61 C47.45,23.718 47.672,23.838 47.864,23.97 C48.056,24.102 48.208,24.256 48.32,24.432 C48.432,24.608 48.488,24.82 48.488,25.068 C48.488,25.468 48.35,25.792 48.074,26.04 C47.798,26.288 47.436,26.412 46.988,26.412 Z M53.072,27 C53.104,26.256 53.158,25.578 53.234,24.966 C53.31,24.354 53.432,23.774 53.6,23.226 C53.768,22.678 53.994,22.14 54.278,21.612 C54.562,21.084 54.932,20.532 55.388,19.956 L55.388,19.956 L55.388,19.344 L50.456,19.344 L50.456,20.196 L54.272,20.196 C53.896,20.724 53.574,21.24 53.306,21.744 C53.038,22.248 52.818,22.77 52.646,23.31 C52.474,23.85 52.34,24.42 52.244,25.02 C52.148,25.62 52.084,26.28 52.052,27 L52.052,27 L53.072,27 Z M59.48,27 C59.92,27 60.324,26.952 60.692,26.856 C61.06,26.76 61.376,26.616 61.64,26.424 C61.904,26.232 62.108,25.992 62.252,25.704 C62.396,25.416 62.468,25.08 62.468,24.696 C62.468,24.152 62.32,23.724 62.024,23.412 C61.728,23.1 61.34,22.9 60.86,22.812 L60.86,22.812 L60.86,22.764 C61.236,22.644 61.522,22.426 61.718,22.11 C61.914,21.794 62.012,21.44 62.012,21.048 C62.012,20.704 61.946,20.41 61.814,20.166 C61.682,19.922 61.498,19.724 61.262,19.572 C61.026,19.42 60.742,19.308 60.41,19.236 C60.078,19.164 59.712,19.128 59.312,19.128 L59.312,19.128 L56.972,19.128 L56.972,27 L59.48,27 Z M59.132,22.476 L57.968,22.476 L57.968,19.92 L59.18,19.92 C59.796,19.92 60.258,20.016 60.566,20.208 C60.874,20.4 61.028,20.724 61.028,21.18 C61.028,21.58 60.88,21.896 60.584,22.128 C60.288,22.36 59.804,22.476 59.132,22.476 L59.132,22.476 Z M59.336,26.208 L57.968,26.208 L57.968,23.244 L59.336,23.244 C60.032,23.244 60.564,23.358 60.932,23.586 C61.3,23.814 61.484,24.172 61.484,24.66 C61.484,25.188 61.296,25.578 60.92,25.83 C60.544,26.082 60.016,26.208 59.336,26.208 L59.336,26.208 Z" id="Outlays$87B" fill="#555555" fill-rule="nonzero"></path>
                    <path d="M92.044,12.144 C92.556,12.144 93.024,12.05 93.448,11.862 C93.872,11.674 94.238,11.402 94.546,11.046 C94.854,10.69 95.092,10.26 95.26,9.756 C95.428,9.252 95.512,8.68 95.512,8.04 C95.512,7.408 95.428,6.842 95.26,6.342 C95.092,5.842 94.854,5.42 94.546,5.076 C94.238,4.732 93.872,4.468 93.448,4.284 C93.024,4.1 92.556,4.008 92.044,4.008 C91.532,4.008 91.064,4.1 90.64,4.284 C90.216,4.468 89.852,4.732 89.548,5.076 C89.244,5.42 89.008,5.842 88.84,6.342 C88.672,6.842 88.588,7.408 88.588,8.04 C88.588,8.68 88.672,9.252 88.84,9.756 C89.008,10.26 89.244,10.69 89.548,11.046 C89.852,11.402 90.216,11.674 90.64,11.862 C91.064,12.05 91.532,12.144 92.044,12.144 Z M92.044,10.932 C91.732,10.932 91.452,10.864 91.204,10.728 C90.956,10.592 90.744,10.398 90.568,10.146 C90.392,9.894 90.256,9.59 90.16,9.234 C90.064,8.878 90.016,8.48 90.016,8.04 C90.016,7.16 90.198,6.47 90.562,5.97 C90.926,5.47 91.42,5.22 92.044,5.22 C92.668,5.22 93.162,5.47 93.526,5.97 C93.89,6.47 94.072,7.16 94.072,8.04 C94.072,8.48 94.024,8.878 93.928,9.234 C93.832,9.59 93.696,9.894 93.52,10.146 C93.344,10.398 93.132,10.592 92.884,10.728 C92.636,10.864 92.356,10.932 92.044,10.932 Z M99.82,12.144 C100.148,12.144 100.464,12.072 100.768,11.928 C101.072,11.784 101.34,11.576 101.572,11.304 C101.804,11.032 101.99,10.698 102.13,10.302 C102.27,9.906 102.34,9.456 102.34,8.952 C102.34,8.496 102.288,8.084 102.184,7.716 C102.08,7.348 101.928,7.034 101.728,6.774 C101.528,6.514 101.284,6.314 100.996,6.174 C100.708,6.034 100.38,5.964 100.012,5.964 C99.708,5.964 99.41,6.032 99.118,6.168 C98.826,6.304 98.556,6.48 98.308,6.696 L98.308,6.696 L98.344,5.712 L98.344,3.528 L96.964,3.528 L96.964,12 L98.056,12 L98.176,11.376 L98.212,11.376 C98.46,11.624 98.722,11.814 98.998,11.946 C99.274,12.078 99.548,12.144 99.82,12.144 Z M99.532,11.004 C99.356,11.004 99.166,10.968 98.962,10.896 C98.758,10.824 98.552,10.696 98.344,10.512 L98.344,10.512 L98.344,7.764 C98.792,7.324 99.224,7.104 99.64,7.104 C100.088,7.104 100.412,7.268 100.612,7.596 C100.812,7.924 100.912,8.384 100.912,8.976 C100.912,9.648 100.78,10.154 100.516,10.494 C100.252,10.834 99.924,11.004 99.532,11.004 Z M105.064,12.144 C105.368,12.144 105.612,12.104 105.796,12.024 L105.796,12.024 L105.616,10.992 C105.56,11.008 105.518,11.016 105.49,11.016 L105.49,11.016 L105.4,11.016 C105.328,11.016 105.26,10.982 105.196,10.914 C105.132,10.846 105.1,10.728 105.1,10.56 L105.1,10.56 L105.1,3.528 L103.72,3.528 L103.72,10.488 C103.72,11 103.82,11.404 104.02,11.7 C104.22,11.996 104.568,12.144 105.064,12.144 Z M107.668,5.076 C107.916,5.076 108.12,5.004 108.28,4.86 C108.44,4.716 108.52,4.528 108.52,4.296 C108.52,4.064 108.44,3.874 108.28,3.726 C108.12,3.578 107.916,3.504 107.668,3.504 C107.42,3.504 107.216,3.578 107.056,3.726 C106.896,3.874 106.816,4.064 106.816,4.296 C106.816,4.528 106.896,4.716 107.056,4.86 C107.216,5.004 107.42,5.076 107.668,5.076 Z M108.352,12 L108.352,6.108 L106.972,6.108 L106.972,12 L108.352,12 Z M112.168,14.604 C112.648,14.604 113.082,14.55 113.47,14.442 C113.858,14.334 114.188,14.188 114.46,14.004 C114.732,13.82 114.942,13.6 115.09,13.344 C115.238,13.088 115.312,12.816 115.312,12.528 C115.312,12.016 115.13,11.646 114.766,11.418 C114.402,11.19 113.864,11.076 113.152,11.076 L113.152,11.076 L112.108,11.076 C111.748,11.076 111.498,11.028 111.358,10.932 C111.218,10.836 111.148,10.704 111.148,10.536 C111.148,10.4 111.174,10.292 111.226,10.212 C111.278,10.132 111.348,10.052 111.436,9.972 C111.572,10.028 111.708,10.068 111.844,10.092 C111.98,10.116 112.112,10.128 112.24,10.128 C112.552,10.128 112.844,10.084 113.116,9.996 C113.388,9.908 113.624,9.78 113.824,9.612 C114.024,9.444 114.182,9.236 114.298,8.988 C114.414,8.74 114.472,8.452 114.472,8.124 C114.472,7.916 114.44,7.726 114.376,7.554 C114.312,7.382 114.232,7.24 114.136,7.128 L114.136,7.128 L115.216,7.128 L115.216,6.108 L113.104,6.108 C112.984,6.068 112.85,6.034 112.702,6.006 C112.554,5.978 112.4,5.964 112.24,5.964 C111.928,5.964 111.632,6.01 111.352,6.102 C111.072,6.194 110.826,6.33 110.614,6.51 C110.402,6.69 110.232,6.912 110.104,7.176 C109.976,7.44 109.912,7.74 109.912,8.076 C109.912,8.428 109.99,8.738 110.146,9.006 C110.302,9.274 110.48,9.484 110.68,9.636 L110.68,9.636 L110.68,9.684 C110.512,9.804 110.362,9.958 110.23,10.146 C110.098,10.334 110.032,10.544 110.032,10.776 C110.032,11.016 110.082,11.216 110.182,11.376 C110.282,11.536 110.408,11.664 110.56,11.76 L110.56,11.76 L110.56,11.808 C110.288,11.976 110.08,12.166 109.936,12.378 C109.792,12.59 109.72,12.82 109.72,13.068 C109.72,13.324 109.782,13.548 109.906,13.74 C110.03,13.932 110.2,14.092 110.416,14.22 C110.632,14.348 110.89,14.444 111.19,14.508 C111.49,14.572 111.816,14.604 112.168,14.604 Z M112.24,9.264 C111.952,9.264 111.708,9.162 111.508,8.958 C111.308,8.754 111.208,8.46 111.208,8.076 C111.208,7.7 111.308,7.412 111.508,7.212 C111.708,7.012 111.952,6.912 112.24,6.912 C112.528,6.912 112.77,7.014 112.966,7.218 C113.162,7.422 113.26,7.708 113.26,8.076 C113.26,8.46 113.16,8.754 112.96,8.958 C112.76,9.162 112.52,9.264 112.24,9.264 Z M112.384,13.704 C111.912,13.704 111.542,13.63 111.274,13.482 C111.006,13.334 110.872,13.128 110.872,12.864 C110.872,12.576 111.024,12.316 111.328,12.084 C111.544,12.14 111.812,12.168 112.132,12.168 L112.132,12.168 L112.936,12.168 C113.272,12.168 113.53,12.208 113.71,12.288 C113.89,12.368 113.98,12.524 113.98,12.756 C113.98,13.012 113.834,13.234 113.542,13.422 C113.25,13.61 112.864,13.704 112.384,13.704 Z M117.568,12.144 C117.92,12.144 118.246,12.068 118.546,11.916 C118.846,11.764 119.128,11.576 119.392,11.352 L119.392,11.352 L119.44,11.352 L119.536,12 L120.676,12 L120.676,8.508 C120.676,7.684 120.494,7.054 120.13,6.618 C119.766,6.182 119.216,5.964 118.48,5.964 C118.008,5.964 117.568,6.04 117.16,6.192 C116.752,6.344 116.384,6.524 116.056,6.732 L116.056,6.732 L116.56,7.656 C116.824,7.496 117.094,7.36 117.37,7.248 C117.646,7.136 117.928,7.08 118.216,7.08 C118.416,7.08 118.584,7.11 118.72,7.17 C118.856,7.23 118.966,7.314 119.05,7.422 C119.134,7.53 119.194,7.654 119.23,7.794 C119.266,7.934 119.288,8.08 119.296,8.232 C118.688,8.296 118.166,8.388 117.73,8.508 C117.294,8.628 116.934,8.776 116.65,8.952 C116.366,9.128 116.158,9.338 116.026,9.582 C115.894,9.826 115.828,10.104 115.828,10.416 C115.828,10.936 115.988,11.354 116.308,11.67 C116.628,11.986 117.048,12.144 117.568,12.144 Z M118.012,11.064 C117.764,11.064 117.56,11.004 117.4,10.884 C117.24,10.764 117.16,10.572 117.16,10.308 C117.16,10.164 117.196,10.028 117.268,9.9 C117.34,9.772 117.46,9.658 117.628,9.558 C117.796,9.458 118.016,9.368 118.288,9.288 C118.56,9.208 118.896,9.144 119.296,9.096 L119.296,9.096 L119.296,10.416 C119.072,10.624 118.862,10.784 118.666,10.896 C118.47,11.008 118.252,11.064 118.012,11.064 Z M124.216,12.144 C124.448,12.144 124.666,12.122 124.87,12.078 C125.074,12.034 125.256,11.984 125.416,11.928 L125.416,11.928 L125.176,10.908 C125.088,10.948 124.99,10.98 124.882,11.004 C124.774,11.028 124.668,11.04 124.564,11.04 C124.012,11.04 123.736,10.696 123.736,10.008 L123.736,10.008 L123.736,7.2 L125.236,7.2 L125.236,6.108 L123.736,6.108 L123.736,4.5 L122.584,4.5 L122.416,6.108 L121.504,6.168 L121.504,7.2 L122.344,7.2 L122.344,10.008 C122.344,10.328 122.378,10.618 122.446,10.878 C122.514,11.138 122.622,11.362 122.77,11.55 C122.918,11.738 123.11,11.884 123.346,11.988 C123.582,12.092 123.872,12.144 124.216,12.144 Z M127.168,5.076 C127.416,5.076 127.62,5.004 127.78,4.86 C127.94,4.716 128.02,4.528 128.02,4.296 C128.02,4.064 127.94,3.874 127.78,3.726 C127.62,3.578 127.416,3.504 127.168,3.504 C126.92,3.504 126.716,3.578 126.556,3.726 C126.396,3.874 126.316,4.064 126.316,4.296 C126.316,4.528 126.396,4.716 126.556,4.86 C126.716,5.004 126.92,5.076 127.168,5.076 Z M127.852,12 L127.852,6.108 L126.472,6.108 L126.472,12 L127.852,12 Z M132.028,12.144 C132.396,12.144 132.75,12.076 133.09,11.94 C133.43,11.804 133.728,11.604 133.984,11.34 C134.24,11.076 134.446,10.752 134.602,10.368 C134.758,9.984 134.836,9.548 134.836,9.06 C134.836,8.572 134.758,8.136 134.602,7.752 C134.446,7.368 134.24,7.044 133.984,6.78 C133.728,6.516 133.43,6.314 133.09,6.174 C132.75,6.034 132.396,5.964 132.028,5.964 C131.66,5.964 131.308,6.034 130.972,6.174 C130.636,6.314 130.338,6.516 130.078,6.78 C129.818,7.044 129.612,7.368 129.46,7.752 C129.308,8.136 129.232,8.572 129.232,9.06 C129.232,9.548 129.308,9.984 129.46,10.368 C129.612,10.752 129.818,11.076 130.078,11.34 C130.338,11.604 130.636,11.804 130.972,11.94 C131.308,12.076 131.66,12.144 132.028,12.144 Z M132.028,11.016 C131.596,11.016 131.258,10.838 131.014,10.482 C130.77,10.126 130.648,9.652 130.648,9.06 C130.648,8.46 130.77,7.982 131.014,7.626 C131.258,7.27 131.596,7.092 132.028,7.092 C132.46,7.092 132.8,7.27 133.048,7.626 C133.296,7.982 133.42,8.46 133.42,9.06 C133.42,9.652 133.296,10.126 133.048,10.482 C132.8,10.838 132.46,11.016 132.028,11.016 Z M137.584,12 L137.584,7.884 C137.832,7.644 138.054,7.462 138.25,7.338 C138.446,7.214 138.672,7.152 138.928,7.152 C139.256,7.152 139.492,7.252 139.636,7.452 C139.78,7.652 139.852,7.996 139.852,8.484 L139.852,8.484 L139.852,12 L141.232,12 L141.232,8.304 C141.232,7.552 141.088,6.974 140.8,6.57 C140.512,6.166 140.052,5.964 139.42,5.964 C139.012,5.964 138.654,6.056 138.346,6.24 C138.038,6.424 137.752,6.644 137.488,6.9 L137.488,6.9 L137.44,6.9 L137.344,6.108 L136.204,6.108 L136.204,12 L137.584,12 Z M144.568,12.144 C144.936,12.144 145.264,12.096 145.552,12 C145.84,11.904 146.08,11.774 146.272,11.61 C146.464,11.446 146.61,11.254 146.71,11.034 C146.81,10.814 146.86,10.576 146.86,10.32 C146.86,10.048 146.81,9.814 146.71,9.618 C146.61,9.422 146.478,9.256 146.314,9.12 C146.15,8.984 145.968,8.87 145.768,8.778 C145.568,8.686 145.368,8.604 145.168,8.532 C145.008,8.476 144.854,8.42 144.706,8.364 C144.558,8.308 144.428,8.248 144.316,8.184 C144.204,8.12 144.114,8.046 144.046,7.962 C143.978,7.878 143.944,7.776 143.944,7.656 C143.944,7.472 144.014,7.318 144.154,7.194 C144.294,7.07 144.512,7.008 144.808,7.008 C145.04,7.008 145.262,7.054 145.474,7.146 C145.686,7.238 145.896,7.36 146.104,7.512 L146.104,7.512 L146.74,6.672 C146.5,6.488 146.216,6.324 145.888,6.18 C145.56,6.036 145.192,5.964 144.784,5.964 C144.12,5.964 143.596,6.128 143.212,6.456 C142.828,6.784 142.636,7.208 142.636,7.728 C142.636,7.976 142.686,8.19 142.786,8.37 C142.886,8.55 143.014,8.708 143.17,8.844 C143.326,8.98 143.504,9.096 143.704,9.192 C143.904,9.288 144.1,9.372 144.292,9.444 C144.444,9.508 144.596,9.57 144.748,9.63 C144.9,9.69 145.036,9.756 145.156,9.828 C145.276,9.9 145.372,9.982 145.444,10.074 C145.516,10.166 145.552,10.272 145.552,10.392 C145.552,10.6 145.476,10.77 145.324,10.902 C145.172,11.034 144.936,11.1 144.616,11.1 C144.312,11.1 144.03,11.042 143.77,10.926 C143.51,10.81 143.248,10.648 142.984,10.44 L142.984,10.44 L142.336,11.328 C142.624,11.56 142.966,11.754 143.362,11.91 C143.758,12.066 144.16,12.144 144.568,12.144 Z M91.384,28.32 L91.384,27.108 C91.96,27.028 92.414,26.804 92.746,26.436 C93.078,26.068 93.244,25.596 93.244,25.02 C93.244,24.588 93.162,24.234 92.998,23.958 C92.834,23.682 92.628,23.45 92.38,23.262 C92.132,23.074 91.862,22.914 91.57,22.782 C91.278,22.65 91.008,22.514 90.76,22.374 C90.512,22.234 90.306,22.072 90.142,21.888 C89.978,21.704 89.896,21.468 89.896,21.18 C89.896,20.828 90.004,20.548 90.22,20.34 C90.436,20.132 90.728,20.028 91.096,20.028 C91.424,20.028 91.694,20.088 91.906,20.208 C92.118,20.328 92.336,20.496 92.56,20.712 L92.56,20.712 L93.088,20.124 C92.872,19.892 92.63,19.692 92.362,19.524 C92.094,19.356 91.768,19.252 91.384,19.212 L91.384,19.212 L91.384,18.024 L90.664,18.024 L90.664,19.236 C90.136,19.316 89.714,19.534 89.398,19.89 C89.082,20.246 88.924,20.692 88.924,21.228 C88.924,21.62 89.006,21.942 89.17,22.194 C89.334,22.446 89.54,22.66 89.788,22.836 C90.036,23.012 90.306,23.168 90.598,23.304 C90.89,23.44 91.16,23.586 91.408,23.742 C91.656,23.898 91.862,24.082 92.026,24.294 C92.19,24.506 92.272,24.772 92.272,25.092 C92.272,25.468 92.162,25.768 91.942,25.992 C91.722,26.216 91.388,26.328 90.94,26.328 C90.572,26.328 90.234,26.25 89.926,26.094 C89.618,25.938 89.336,25.748 89.08,25.524 L89.08,25.524 L88.624,26.208 C88.88,26.44 89.188,26.642 89.548,26.814 C89.908,26.986 90.28,27.092 90.664,27.132 L90.664,27.132 L90.664,28.32 L91.384,28.32 Z M99.232,27 L99.232,26.184 L97.648,26.184 L97.648,19.344 L96.892,19.344 C96.684,19.472 96.45,19.582 96.19,19.674 C95.93,19.766 95.624,19.844 95.272,19.908 L95.272,19.908 L95.272,20.544 L96.664,20.544 L96.664,26.184 L94.912,26.184 L94.912,27 L99.232,27 Z M102.916,27.144 C103.684,27.144 104.284,26.8 104.716,26.112 C105.148,25.424 105.364,24.436 105.364,23.148 C105.364,21.86 105.148,20.88 104.716,20.208 C104.284,19.536 103.684,19.2 102.916,19.2 C102.14,19.2 101.536,19.536 101.104,20.208 C100.672,20.88 100.456,21.86 100.456,23.148 C100.456,24.436 100.672,25.424 101.104,26.112 C101.536,26.8 102.14,27.144 102.916,27.144 Z M102.916,26.352 C102.468,26.352 102.106,26.098 101.83,25.59 C101.554,25.082 101.416,24.268 101.416,23.148 C101.416,22.588 101.452,22.108 101.524,21.708 C101.596,21.308 101.698,20.982 101.83,20.73 C101.962,20.478 102.12,20.292 102.304,20.172 C102.488,20.052 102.692,19.992 102.916,19.992 C103.14,19.992 103.342,20.052 103.522,20.172 C103.702,20.292 103.858,20.478 103.99,20.73 C104.122,20.982 104.224,21.308 104.296,21.708 C104.368,22.108 104.404,22.588 104.404,23.148 C104.404,23.708 104.368,24.19 104.296,24.594 C104.224,24.998 104.122,25.33 103.99,25.59 C103.858,25.85 103.702,26.042 103.522,26.166 C103.342,26.29 103.14,26.352 102.916,26.352 Z M108.88,27.144 C109.648,27.144 110.248,26.8 110.68,26.112 C111.112,25.424 111.328,24.436 111.328,23.148 C111.328,21.86 111.112,20.88 110.68,20.208 C110.248,19.536 109.648,19.2 108.88,19.2 C108.104,19.2 107.5,19.536 107.068,20.208 C106.636,20.88 106.42,21.86 106.42,23.148 C106.42,24.436 106.636,25.424 107.068,26.112 C107.5,26.8 108.104,27.144 108.88,27.144 Z M108.88,26.352 C108.432,26.352 108.07,26.098 107.794,25.59 C107.518,25.082 107.38,24.268 107.38,23.148 C107.38,22.588 107.416,22.108 107.488,21.708 C107.56,21.308 107.662,20.982 107.794,20.73 C107.926,20.478 108.084,20.292 108.268,20.172 C108.452,20.052 108.656,19.992 108.88,19.992 C109.104,19.992 109.306,20.052 109.486,20.172 C109.666,20.292 109.822,20.478 109.954,20.73 C110.086,20.982 110.188,21.308 110.26,21.708 C110.332,22.108 110.368,22.588 110.368,23.148 C110.368,23.708 110.332,24.19 110.26,24.594 C110.188,24.998 110.086,25.33 109.954,25.59 C109.822,25.85 109.666,26.042 109.486,26.166 C109.306,26.29 109.104,26.352 108.88,26.352 Z M115.444,27 C115.884,27 116.288,26.952 116.656,26.856 C117.024,26.76 117.34,26.616 117.604,26.424 C117.868,26.232 118.072,25.992 118.216,25.704 C118.36,25.416 118.432,25.08 118.432,24.696 C118.432,24.152 118.284,23.724 117.988,23.412 C117.692,23.1 117.304,22.9 116.824,22.812 L116.824,22.812 L116.824,22.764 C117.2,22.644 117.486,22.426 117.682,22.11 C117.878,21.794 117.976,21.44 117.976,21.048 C117.976,20.704 117.91,20.41 117.778,20.166 C117.646,19.922 117.462,19.724 117.226,19.572 C116.99,19.42 116.706,19.308 116.374,19.236 C116.042,19.164 115.676,19.128 115.276,19.128 L115.276,19.128 L112.936,19.128 L112.936,27 L115.444,27 Z M115.096,22.476 L113.932,22.476 L113.932,19.92 L115.144,19.92 C115.76,19.92 116.222,20.016 116.53,20.208 C116.838,20.4 116.992,20.724 116.992,21.18 C116.992,21.58 116.844,21.896 116.548,22.128 C116.252,22.36 115.768,22.476 115.096,22.476 L115.096,22.476 Z M115.3,26.208 L113.932,26.208 L113.932,23.244 L115.3,23.244 C115.996,23.244 116.528,23.358 116.896,23.586 C117.264,23.814 117.448,24.172 117.448,24.66 C117.448,25.188 117.26,25.578 116.884,25.83 C116.508,26.082 115.98,26.208 115.3,26.208 L115.3,26.208 Z" id="Obligations$100B" fill="#555555" fill-rule="nonzero"></path>
                    <path d="M160.936,12.144 C161.392,12.144 161.802,12.078 162.166,11.946 C162.53,11.814 162.842,11.604 163.102,11.316 C163.362,11.028 163.56,10.658 163.696,10.206 C163.832,9.754 163.9,9.204 163.9,8.556 L163.9,8.556 L163.9,4.152 L162.568,4.152 L162.568,8.664 C162.568,9.088 162.528,9.446 162.448,9.738 C162.368,10.03 162.256,10.264 162.112,10.44 C161.968,10.616 161.796,10.742 161.596,10.818 C161.396,10.894 161.176,10.932 160.936,10.932 C160.696,10.932 160.48,10.894 160.288,10.818 C160.096,10.742 159.93,10.616 159.79,10.44 C159.65,10.264 159.542,10.03 159.466,9.738 C159.39,9.446 159.352,9.088 159.352,8.664 L159.352,8.664 L159.352,4.152 L157.96,4.152 L157.96,8.556 C157.96,9.204 158.03,9.754 158.17,10.206 C158.31,10.658 158.51,11.028 158.77,11.316 C159.03,11.604 159.342,11.814 159.706,11.946 C160.07,12.078 160.48,12.144 160.936,12.144 Z M167.116,12 L167.116,7.884 C167.364,7.644 167.586,7.462 167.782,7.338 C167.978,7.214 168.204,7.152 168.46,7.152 C168.788,7.152 169.024,7.252 169.168,7.452 C169.312,7.652 169.384,7.996 169.384,8.484 L169.384,8.484 L169.384,12 L170.764,12 L170.764,8.304 C170.764,7.552 170.62,6.974 170.332,6.57 C170.044,6.166 169.584,5.964 168.952,5.964 C168.544,5.964 168.186,6.056 167.878,6.24 C167.57,6.424 167.284,6.644 167.02,6.9 L167.02,6.9 L166.972,6.9 L166.876,6.108 L165.736,6.108 L165.736,12 L167.116,12 Z M174.868,12.144 C175.236,12.144 175.59,12.076 175.93,11.94 C176.27,11.804 176.568,11.604 176.824,11.34 C177.08,11.076 177.286,10.752 177.442,10.368 C177.598,9.984 177.676,9.548 177.676,9.06 C177.676,8.572 177.598,8.136 177.442,7.752 C177.286,7.368 177.08,7.044 176.824,6.78 C176.568,6.516 176.27,6.314 175.93,6.174 C175.59,6.034 175.236,5.964 174.868,5.964 C174.5,5.964 174.148,6.034 173.812,6.174 C173.476,6.314 173.178,6.516 172.918,6.78 C172.658,7.044 172.452,7.368 172.3,7.752 C172.148,8.136 172.072,8.572 172.072,9.06 C172.072,9.548 172.148,9.984 172.3,10.368 C172.452,10.752 172.658,11.076 172.918,11.34 C173.178,11.604 173.476,11.804 173.812,11.94 C174.148,12.076 174.5,12.144 174.868,12.144 Z M174.868,11.016 C174.436,11.016 174.098,10.838 173.854,10.482 C173.61,10.126 173.488,9.652 173.488,9.06 C173.488,8.46 173.61,7.982 173.854,7.626 C174.098,7.27 174.436,7.092 174.868,7.092 C175.3,7.092 175.64,7.27 175.888,7.626 C176.136,7.982 176.26,8.46 176.26,9.06 C176.26,9.652 176.136,10.126 175.888,10.482 C175.64,10.838 175.3,11.016 174.868,11.016 Z M181.9,12.144 C182.228,12.144 182.544,12.072 182.848,11.928 C183.152,11.784 183.42,11.576 183.652,11.304 C183.884,11.032 184.07,10.698 184.21,10.302 C184.35,9.906 184.42,9.456 184.42,8.952 C184.42,8.496 184.368,8.084 184.264,7.716 C184.16,7.348 184.008,7.034 183.808,6.774 C183.608,6.514 183.364,6.314 183.076,6.174 C182.788,6.034 182.46,5.964 182.092,5.964 C181.788,5.964 181.49,6.032 181.198,6.168 C180.906,6.304 180.636,6.48 180.388,6.696 L180.388,6.696 L180.424,5.712 L180.424,3.528 L179.044,3.528 L179.044,12 L180.136,12 L180.256,11.376 L180.292,11.376 C180.54,11.624 180.802,11.814 181.078,11.946 C181.354,12.078 181.628,12.144 181.9,12.144 Z M181.612,11.004 C181.436,11.004 181.246,10.968 181.042,10.896 C180.838,10.824 180.632,10.696 180.424,10.512 L180.424,10.512 L180.424,7.764 C180.872,7.324 181.304,7.104 181.72,7.104 C182.168,7.104 182.492,7.268 182.692,7.596 C182.892,7.924 182.992,8.384 182.992,8.976 C182.992,9.648 182.86,10.154 182.596,10.494 C182.332,10.834 182.004,11.004 181.612,11.004 Z M187.144,12.144 C187.448,12.144 187.692,12.104 187.876,12.024 L187.876,12.024 L187.696,10.992 C187.64,11.008 187.598,11.016 187.57,11.016 L187.57,11.016 L187.48,11.016 C187.408,11.016 187.34,10.982 187.276,10.914 C187.212,10.846 187.18,10.728 187.18,10.56 L187.18,10.56 L187.18,3.528 L185.8,3.528 L185.8,10.488 C185.8,11 185.9,11.404 186.1,11.7 C186.3,11.996 186.648,12.144 187.144,12.144 Z M189.748,5.076 C189.996,5.076 190.2,5.004 190.36,4.86 C190.52,4.716 190.6,4.528 190.6,4.296 C190.6,4.064 190.52,3.874 190.36,3.726 C190.2,3.578 189.996,3.504 189.748,3.504 C189.5,3.504 189.296,3.578 189.136,3.726 C188.976,3.874 188.896,4.064 188.896,4.296 C188.896,4.528 188.976,4.716 189.136,4.86 C189.296,5.004 189.5,5.076 189.748,5.076 Z M190.432,12 L190.432,6.108 L189.052,6.108 L189.052,12 L190.432,12 Z M194.248,14.604 C194.728,14.604 195.162,14.55 195.55,14.442 C195.938,14.334 196.268,14.188 196.54,14.004 C196.812,13.82 197.022,13.6 197.17,13.344 C197.318,13.088 197.392,12.816 197.392,12.528 C197.392,12.016 197.21,11.646 196.846,11.418 C196.482,11.19 195.944,11.076 195.232,11.076 L195.232,11.076 L194.188,11.076 C193.828,11.076 193.578,11.028 193.438,10.932 C193.298,10.836 193.228,10.704 193.228,10.536 C193.228,10.4 193.254,10.292 193.306,10.212 C193.358,10.132 193.428,10.052 193.516,9.972 C193.652,10.028 193.788,10.068 193.924,10.092 C194.06,10.116 194.192,10.128 194.32,10.128 C194.632,10.128 194.924,10.084 195.196,9.996 C195.468,9.908 195.704,9.78 195.904,9.612 C196.104,9.444 196.262,9.236 196.378,8.988 C196.494,8.74 196.552,8.452 196.552,8.124 C196.552,7.916 196.52,7.726 196.456,7.554 C196.392,7.382 196.312,7.24 196.216,7.128 L196.216,7.128 L197.296,7.128 L197.296,6.108 L195.184,6.108 C195.064,6.068 194.93,6.034 194.782,6.006 C194.634,5.978 194.48,5.964 194.32,5.964 C194.008,5.964 193.712,6.01 193.432,6.102 C193.152,6.194 192.906,6.33 192.694,6.51 C192.482,6.69 192.312,6.912 192.184,7.176 C192.056,7.44 191.992,7.74 191.992,8.076 C191.992,8.428 192.07,8.738 192.226,9.006 C192.382,9.274 192.56,9.484 192.76,9.636 L192.76,9.636 L192.76,9.684 C192.592,9.804 192.442,9.958 192.31,10.146 C192.178,10.334 192.112,10.544 192.112,10.776 C192.112,11.016 192.162,11.216 192.262,11.376 C192.362,11.536 192.488,11.664 192.64,11.76 L192.64,11.76 L192.64,11.808 C192.368,11.976 192.16,12.166 192.016,12.378 C191.872,12.59 191.8,12.82 191.8,13.068 C191.8,13.324 191.862,13.548 191.986,13.74 C192.11,13.932 192.28,14.092 192.496,14.22 C192.712,14.348 192.97,14.444 193.27,14.508 C193.57,14.572 193.896,14.604 194.248,14.604 Z M194.32,9.264 C194.032,9.264 193.788,9.162 193.588,8.958 C193.388,8.754 193.288,8.46 193.288,8.076 C193.288,7.7 193.388,7.412 193.588,7.212 C193.788,7.012 194.032,6.912 194.32,6.912 C194.608,6.912 194.85,7.014 195.046,7.218 C195.242,7.422 195.34,7.708 195.34,8.076 C195.34,8.46 195.24,8.754 195.04,8.958 C194.84,9.162 194.6,9.264 194.32,9.264 Z M194.464,13.704 C193.992,13.704 193.622,13.63 193.354,13.482 C193.086,13.334 192.952,13.128 192.952,12.864 C192.952,12.576 193.104,12.316 193.408,12.084 C193.624,12.14 193.892,12.168 194.212,12.168 L194.212,12.168 L195.016,12.168 C195.352,12.168 195.61,12.208 195.79,12.288 C195.97,12.368 196.06,12.524 196.06,12.756 C196.06,13.012 195.914,13.234 195.622,13.422 C195.33,13.61 194.944,13.704 194.464,13.704 Z M199.648,12.144 C200,12.144 200.326,12.068 200.626,11.916 C200.926,11.764 201.208,11.576 201.472,11.352 L201.472,11.352 L201.52,11.352 L201.616,12 L202.756,12 L202.756,8.508 C202.756,7.684 202.574,7.054 202.21,6.618 C201.846,6.182 201.296,5.964 200.56,5.964 C200.088,5.964 199.648,6.04 199.24,6.192 C198.832,6.344 198.464,6.524 198.136,6.732 L198.136,6.732 L198.64,7.656 C198.904,7.496 199.174,7.36 199.45,7.248 C199.726,7.136 200.008,7.08 200.296,7.08 C200.496,7.08 200.664,7.11 200.8,7.17 C200.936,7.23 201.046,7.314 201.13,7.422 C201.214,7.53 201.274,7.654 201.31,7.794 C201.346,7.934 201.368,8.08 201.376,8.232 C200.768,8.296 200.246,8.388 199.81,8.508 C199.374,8.628 199.014,8.776 198.73,8.952 C198.446,9.128 198.238,9.338 198.106,9.582 C197.974,9.826 197.908,10.104 197.908,10.416 C197.908,10.936 198.068,11.354 198.388,11.67 C198.708,11.986 199.128,12.144 199.648,12.144 Z M200.092,11.064 C199.844,11.064 199.64,11.004 199.48,10.884 C199.32,10.764 199.24,10.572 199.24,10.308 C199.24,10.164 199.276,10.028 199.348,9.9 C199.42,9.772 199.54,9.658 199.708,9.558 C199.876,9.458 200.096,9.368 200.368,9.288 C200.64,9.208 200.976,9.144 201.376,9.096 L201.376,9.096 L201.376,10.416 C201.152,10.624 200.942,10.784 200.746,10.896 C200.55,11.008 200.332,11.064 200.092,11.064 Z M206.296,12.144 C206.528,12.144 206.746,12.122 206.95,12.078 C207.154,12.034 207.336,11.984 207.496,11.928 L207.496,11.928 L207.256,10.908 C207.168,10.948 207.07,10.98 206.962,11.004 C206.854,11.028 206.748,11.04 206.644,11.04 C206.092,11.04 205.816,10.696 205.816,10.008 L205.816,10.008 L205.816,7.2 L207.316,7.2 L207.316,6.108 L205.816,6.108 L205.816,4.5 L204.664,4.5 L204.496,6.108 L203.584,6.168 L203.584,7.2 L204.424,7.2 L204.424,10.008 C204.424,10.328 204.458,10.618 204.526,10.878 C204.594,11.138 204.702,11.362 204.85,11.55 C204.998,11.738 205.19,11.884 205.426,11.988 C205.662,12.092 205.952,12.144 206.296,12.144 Z M210.88,12.144 C211.256,12.144 211.616,12.084 211.96,11.964 C212.304,11.844 212.616,11.692 212.896,11.508 L212.896,11.508 L212.428,10.644 C212.212,10.78 211.994,10.886 211.774,10.962 C211.554,11.038 211.316,11.076 211.06,11.076 C210.58,11.076 210.186,10.934 209.878,10.65 C209.57,10.366 209.384,9.96 209.32,9.432 L209.32,9.432 L213.064,9.432 C213.08,9.36 213.094,9.264 213.106,9.144 C213.118,9.024 213.124,8.896 213.124,8.76 C213.124,8.352 213.072,7.976 212.968,7.632 C212.864,7.288 212.71,6.992 212.506,6.744 C212.302,6.496 212.048,6.304 211.744,6.168 C211.44,6.032 211.088,5.964 210.688,5.964 C210.344,5.964 210.008,6.036 209.68,6.18 C209.352,6.324 209.062,6.528 208.81,6.792 C208.558,7.056 208.356,7.38 208.204,7.764 C208.052,8.148 207.976,8.58 207.976,9.06 C207.976,9.548 208.05,9.982 208.198,10.362 C208.346,10.742 208.552,11.064 208.816,11.328 C209.08,11.592 209.388,11.794 209.74,11.934 C210.092,12.074 210.472,12.144 210.88,12.144 Z M211.924,8.496 L209.308,8.496 C209.372,8.016 209.536,7.652 209.8,7.404 C210.064,7.156 210.372,7.032 210.724,7.032 C211.132,7.032 211.434,7.162 211.63,7.422 C211.826,7.682 211.924,8.04 211.924,8.496 L211.924,8.496 Z M216.508,12.144 C216.828,12.144 217.132,12.068 217.42,11.916 C217.708,11.764 217.96,11.58 218.176,11.364 L218.176,11.364 L218.224,11.364 L218.32,12 L219.46,12 L219.46,3.528 L218.08,3.528 L218.08,5.664 L218.128,6.612 C217.896,6.412 217.664,6.254 217.432,6.138 C217.2,6.022 216.916,5.964 216.58,5.964 C216.26,5.964 215.95,6.036 215.65,6.18 C215.35,6.324 215.084,6.528 214.852,6.792 C214.62,7.056 214.434,7.38 214.294,7.764 C214.154,8.148 214.084,8.58 214.084,9.06 C214.084,10.036 214.302,10.794 214.738,11.334 C215.174,11.874 215.764,12.144 216.508,12.144 Z M216.844,11.004 C216.412,11.004 216.082,10.838 215.854,10.506 C215.626,10.174 215.512,9.688 215.512,9.048 C215.512,8.424 215.644,7.944 215.908,7.608 C216.172,7.272 216.496,7.104 216.88,7.104 C217.08,7.104 217.278,7.14 217.474,7.212 C217.67,7.284 217.872,7.412 218.08,7.596 L218.08,7.596 L218.08,10.344 C217.696,10.784 217.284,11.004 216.844,11.004 Z M160.384,28.32 L160.384,27.108 C160.96,27.028 161.414,26.804 161.746,26.436 C162.078,26.068 162.244,25.596 162.244,25.02 C162.244,24.588 162.162,24.234 161.998,23.958 C161.834,23.682 161.628,23.45 161.38,23.262 C161.132,23.074 160.862,22.914 160.57,22.782 C160.278,22.65 160.008,22.514 159.76,22.374 C159.512,22.234 159.306,22.072 159.142,21.888 C158.978,21.704 158.896,21.468 158.896,21.18 C158.896,20.828 159.004,20.548 159.22,20.34 C159.436,20.132 159.728,20.028 160.096,20.028 C160.424,20.028 160.694,20.088 160.906,20.208 C161.118,20.328 161.336,20.496 161.56,20.712 L161.56,20.712 L162.088,20.124 C161.872,19.892 161.63,19.692 161.362,19.524 C161.094,19.356 160.768,19.252 160.384,19.212 L160.384,19.212 L160.384,18.024 L159.664,18.024 L159.664,19.236 C159.136,19.316 158.714,19.534 158.398,19.89 C158.082,20.246 157.924,20.692 157.924,21.228 C157.924,21.62 158.006,21.942 158.17,22.194 C158.334,22.446 158.54,22.66 158.788,22.836 C159.036,23.012 159.306,23.168 159.598,23.304 C159.89,23.44 160.16,23.586 160.408,23.742 C160.656,23.898 160.862,24.082 161.026,24.294 C161.19,24.506 161.272,24.772 161.272,25.092 C161.272,25.468 161.162,25.768 160.942,25.992 C160.722,26.216 160.388,26.328 159.94,26.328 C159.572,26.328 159.234,26.25 158.926,26.094 C158.618,25.938 158.336,25.748 158.08,25.524 L158.08,25.524 L157.624,26.208 C157.88,26.44 158.188,26.642 158.548,26.814 C158.908,26.986 159.28,27.092 159.664,27.132 L159.664,27.132 L159.664,28.32 L160.384,28.32 Z M168.232,27 L168.232,26.184 L166.648,26.184 L166.648,19.344 L165.892,19.344 C165.684,19.472 165.45,19.582 165.19,19.674 C164.93,19.766 164.624,19.844 164.272,19.908 L164.272,19.908 L164.272,20.544 L165.664,20.544 L165.664,26.184 L163.912,26.184 L163.912,27 L168.232,27 Z M174.352,27 L174.352,26.148 L172.132,26.148 C171.932,26.148 171.72,26.156 171.496,26.172 C171.272,26.188 171.056,26.204 170.848,26.22 C171.304,25.748 171.722,25.302 172.102,24.882 C172.482,24.462 172.81,24.058 173.086,23.67 C173.362,23.282 173.578,22.906 173.734,22.542 C173.89,22.178 173.968,21.816 173.968,21.456 C173.968,20.776 173.764,20.23 173.356,19.818 C172.948,19.406 172.388,19.2 171.676,19.2 C171.172,19.2 170.74,19.306 170.38,19.518 C170.02,19.73 169.68,20.012 169.36,20.364 L169.36,20.364 L169.924,20.928 C170.148,20.672 170.396,20.454 170.668,20.274 C170.94,20.094 171.236,20.004 171.556,20.004 C172.044,20.004 172.408,20.144 172.648,20.424 C172.888,20.704 173.008,21.064 173.008,21.504 C173.008,21.816 172.928,22.138 172.768,22.47 C172.608,22.802 172.376,23.166 172.072,23.562 C171.768,23.958 171.392,24.388 170.944,24.852 C170.496,25.316 169.984,25.836 169.408,26.412 L169.408,26.412 L169.408,27 L174.352,27 Z M178.48,27 C178.92,27 179.324,26.952 179.692,26.856 C180.06,26.76 180.376,26.616 180.64,26.424 C180.904,26.232 181.108,25.992 181.252,25.704 C181.396,25.416 181.468,25.08 181.468,24.696 C181.468,24.152 181.32,23.724 181.024,23.412 C180.728,23.1 180.34,22.9 179.86,22.812 L179.86,22.812 L179.86,22.764 C180.236,22.644 180.522,22.426 180.718,22.11 C180.914,21.794 181.012,21.44 181.012,21.048 C181.012,20.704 180.946,20.41 180.814,20.166 C180.682,19.922 180.498,19.724 180.262,19.572 C180.026,19.42 179.742,19.308 179.41,19.236 C179.078,19.164 178.712,19.128 178.312,19.128 L178.312,19.128 L175.972,19.128 L175.972,27 L178.48,27 Z M178.132,22.476 L176.968,22.476 L176.968,19.92 L178.18,19.92 C178.796,19.92 179.258,20.016 179.566,20.208 C179.874,20.4 180.028,20.724 180.028,21.18 C180.028,21.58 179.88,21.896 179.584,22.128 C179.288,22.36 178.804,22.476 178.132,22.476 L178.132,22.476 Z M178.336,26.208 L176.968,26.208 L176.968,23.244 L178.336,23.244 C179.032,23.244 179.564,23.358 179.932,23.586 C180.3,23.814 180.484,24.172 180.484,24.66 C180.484,25.188 180.296,25.578 179.92,25.83 C179.544,26.082 179.016,26.208 178.336,26.208 L178.336,26.208 Z" id="Unobligated$12B" fill="#555555" fill-rule="nonzero"></path>
                    <path d="M35,0 L29,0 C27.8954305,2.02906125e-16 27,0.8954305 27,2 L27,28 C27,29.1045695 27.8954305,30 29,30 L35,30 L35,30" id="Line-2" stroke="#C6C6C6" stroke-linecap="round"></path>
                    <line x1="26.5" y1="16.5" x2="0.5" y2="16.5" id="Line-4" stroke="#C6C6C6" stroke-linecap="round"></line>
                </g>
                <rect id="outlays" fill="#331E4D" x="0" y="2" width="6" height="31"></rect>
                <rect id="unobligated" fill="#F3E9FF" x="11" y="2" width="2" height="31"></rect>
                <rect id="obligated" fill="#6F41A7" x="6" y="2" width="7" height="31"></rect>
            </g>
        </g>
    </g>
</svg>