<?xml version="1.0" encoding="UTF-8"?>
<svg width="288px" height="40px" viewBox="0 0 288 40" version="1.1" xmlns="http://www.w3.org/2000/svg" xmlns:xlink="http://www.w3.org/1999/xlink">
    <title>law 2</title>
    <g id="SVG-2.0" stroke="none" stroke-width="1" fill="none" fill-rule="evenodd">
        <g id="viz-3-mobile-outline" transform="translate(-36.000000, -909.000000)">
            <g id="law-2" transform="translate(36.000000, 909.000000)">
                <rect id="unobligated" fill="#F3E9FF" x="4" y="0" width="4" height="40"></rect>
                <rect id="obligated" fill="#6F41A7" x="0" y="0" width="4" height="40"></rect>
                <g id="labels" transform="translate(60.000000, 4.000000)">
                    <path d="M45.044,12.144 C45.556,12.144 46.024,12.05 46.448,11.862 C46.872,11.674 47.238,11.402 47.546,11.046 C47.854,10.69 48.092,10.26 48.26,9.756 C48.428,9.252 48.512,8.68 48.512,8.04 C48.512,7.408 48.428,6.842 48.26,6.342 C48.092,5.842 47.854,5.42 47.546,5.076 C47.238,4.732 46.872,4.468 46.448,4.284 C46.024,4.1 45.556,4.008 45.044,4.008 C44.532,4.008 44.064,4.1 43.64,4.284 C43.216,4.468 42.852,4.732 42.548,5.076 C42.244,5.42 42.008,5.842 41.84,6.342 C41.672,6.842 41.588,7.408 41.588,8.04 C41.588,8.68 41.672,9.252 41.84,9.756 C42.008,10.26 42.244,10.69 42.548,11.046 C42.852,11.402 43.216,11.674 43.64,11.862 C44.064,12.05 44.532,12.144 45.044,12.144 Z M45.044,10.932 C44.732,10.932 44.452,10.864 44.204,10.728 C43.956,10.592 43.744,10.398 43.568,10.146 C43.392,9.894 43.256,9.59 43.16,9.234 C43.064,8.878 43.016,8.48 43.016,8.04 C43.016,7.16 43.198,6.47 43.562,5.97 C43.926,5.47 44.42,5.22 45.044,5.22 C45.668,5.22 46.162,5.47 46.526,5.97 C46.89,6.47 47.072,7.16 47.072,8.04 C47.072,8.48 47.024,8.878 46.928,9.234 C46.832,9.59 46.696,9.894 46.52,10.146 C46.344,10.398 46.132,10.592 45.884,10.728 C45.636,10.864 45.356,10.932 45.044,10.932 Z M51.716,12.144 C52.124,12.144 52.478,12.052 52.778,11.868 C53.078,11.684 53.356,11.44 53.612,11.136 L53.612,11.136 L53.648,11.136 L53.756,12 L54.884,12 L54.884,6.108 L53.504,6.108 L53.504,10.14 C53.28,10.428 53.07,10.636 52.874,10.764 C52.678,10.892 52.452,10.956 52.196,10.956 C51.876,10.956 51.644,10.856 51.5,10.656 C51.356,10.456 51.284,10.112 51.284,9.624 L51.284,9.624 L51.284,6.108 L49.904,6.108 L49.904,9.804 C49.904,10.556 50.048,11.134 50.336,11.538 C50.624,11.942 51.084,12.144 51.716,12.144 Z M58.712,12.144 C58.944,12.144 59.162,12.122 59.366,12.078 C59.57,12.034 59.752,11.984 59.912,11.928 L59.912,11.928 L59.672,10.908 C59.584,10.948 59.486,10.98 59.378,11.004 C59.27,11.028 59.164,11.04 59.06,11.04 C58.508,11.04 58.232,10.696 58.232,10.008 L58.232,10.008 L58.232,7.2 L59.732,7.2 L59.732,6.108 L58.232,6.108 L58.232,4.5 L57.08,4.5 L56.912,6.108 L56,6.168 L56,7.2 L56.84,7.2 L56.84,10.008 C56.84,10.328 56.874,10.618 56.942,10.878 C57.01,11.138 57.118,11.362 57.266,11.55 C57.414,11.738 57.606,11.884 57.842,11.988 C58.078,12.092 58.368,12.144 58.712,12.144 Z M62.312,12.144 C62.616,12.144 62.86,12.104 63.044,12.024 L63.044,12.024 L62.864,10.992 C62.808,11.008 62.766,11.016 62.738,11.016 L62.738,11.016 L62.648,11.016 C62.576,11.016 62.508,10.982 62.444,10.914 C62.38,10.846 62.348,10.728 62.348,10.56 L62.348,10.56 L62.348,3.528 L60.968,3.528 L60.968,10.488 C60.968,11 61.068,11.404 61.268,11.7 C61.468,11.996 61.816,12.144 62.312,12.144 Z M65.648,12.144 C66,12.144 66.326,12.068 66.626,11.916 C66.926,11.764 67.208,11.576 67.472,11.352 L67.472,11.352 L67.52,11.352 L67.616,12 L68.756,12 L68.756,8.508 C68.756,7.684 68.574,7.054 68.21,6.618 C67.846,6.182 67.296,5.964 66.56,5.964 C66.088,5.964 65.648,6.04 65.24,6.192 C64.832,6.344 64.464,6.524 64.136,6.732 L64.136,6.732 L64.64,7.656 C64.904,7.496 65.174,7.36 65.45,7.248 C65.726,7.136 66.008,7.08 66.296,7.08 C66.496,7.08 66.664,7.11 66.8,7.17 C66.936,7.23 67.046,7.314 67.13,7.422 C67.214,7.53 67.274,7.654 67.31,7.794 C67.346,7.934 67.368,8.08 67.376,8.232 C66.768,8.296 66.246,8.388 65.81,8.508 C65.374,8.628 65.014,8.776 64.73,8.952 C64.446,9.128 64.238,9.338 64.106,9.582 C63.974,9.826 63.908,10.104 63.908,10.416 C63.908,10.936 64.068,11.354 64.388,11.67 C64.708,11.986 65.128,12.144 65.648,12.144 Z M66.092,11.064 C65.844,11.064 65.64,11.004 65.48,10.884 C65.32,10.764 65.24,10.572 65.24,10.308 C65.24,10.164 65.276,10.028 65.348,9.9 C65.42,9.772 65.54,9.658 65.708,9.558 C65.876,9.458 66.096,9.368 66.368,9.288 C66.64,9.208 66.976,9.144 67.376,9.096 L67.376,9.096 L67.376,10.416 C67.152,10.624 66.942,10.784 66.746,10.896 C66.55,11.008 66.332,11.064 66.092,11.064 Z M70.808,14.424 C71.128,14.424 71.41,14.374 71.654,14.274 C71.898,14.174 72.114,14.03 72.302,13.842 C72.49,13.654 72.656,13.428 72.8,13.164 C72.944,12.9 73.076,12.6 73.196,12.264 L73.196,12.264 L75.332,6.108 L74,6.108 L73.112,9 C73.04,9.264 72.966,9.538 72.89,9.822 C72.814,10.106 72.74,10.384 72.668,10.656 L72.668,10.656 L72.62,10.656 C72.532,10.376 72.446,10.094 72.362,9.81 C72.278,9.526 72.192,9.256 72.104,9 L72.104,9 L71.084,6.108 L69.68,6.108 L71.996,11.928 L71.888,12.3 C71.792,12.596 71.65,12.838 71.462,13.026 C71.274,13.214 71.024,13.308 70.712,13.308 C70.64,13.308 70.566,13.298 70.49,13.278 C70.414,13.258 70.348,13.24 70.292,13.224 L70.292,13.224 L70.04,14.304 C70.152,14.344 70.268,14.374 70.388,14.394 C70.508,14.414 70.648,14.424 70.808,14.424 Z M77.996,12.144 C78.364,12.144 78.692,12.096 78.98,12 C79.268,11.904 79.508,11.774 79.7,11.61 C79.892,11.446 80.038,11.254 80.138,11.034 C80.238,10.814 80.288,10.576 80.288,10.32 C80.288,10.048 80.238,9.814 80.138,9.618 C80.038,9.422 79.906,9.256 79.742,9.12 C79.578,8.984 79.396,8.87 79.196,8.778 C78.996,8.686 78.796,8.604 78.596,8.532 C78.436,8.476 78.282,8.42 78.134,8.364 C77.986,8.308 77.856,8.248 77.744,8.184 C77.632,8.12 77.542,8.046 77.474,7.962 C77.406,7.878 77.372,7.776 77.372,7.656 C77.372,7.472 77.442,7.318 77.582,7.194 C77.722,7.07 77.94,7.008 78.236,7.008 C78.468,7.008 78.69,7.054 78.902,7.146 C79.114,7.238 79.324,7.36 79.532,7.512 L79.532,7.512 L80.168,6.672 C79.928,6.488 79.644,6.324 79.316,6.18 C78.988,6.036 78.62,5.964 78.212,5.964 C77.548,5.964 77.024,6.128 76.64,6.456 C76.256,6.784 76.064,7.208 76.064,7.728 C76.064,7.976 76.114,8.19 76.214,8.37 C76.314,8.55 76.442,8.708 76.598,8.844 C76.754,8.98 76.932,9.096 77.132,9.192 C77.332,9.288 77.528,9.372 77.72,9.444 C77.872,9.508 78.024,9.57 78.176,9.63 C78.328,9.69 78.464,9.756 78.584,9.828 C78.704,9.9 78.8,9.982 78.872,10.074 C78.944,10.166 78.98,10.272 78.98,10.392 C78.98,10.6 78.904,10.77 78.752,10.902 C78.6,11.034 78.364,11.1 78.044,11.1 C77.74,11.1 77.458,11.042 77.198,10.926 C76.938,10.81 76.676,10.648 76.412,10.44 L76.412,10.44 L75.764,11.328 C76.052,11.56 76.394,11.754 76.79,11.91 C77.186,12.066 77.588,12.144 77.996,12.144 Z M44.384,28.32 L44.384,27.108 C44.96,27.028 45.414,26.804 45.746,26.436 C46.078,26.068 46.244,25.596 46.244,25.02 C46.244,24.588 46.162,24.234 45.998,23.958 C45.834,23.682 45.628,23.45 45.38,23.262 C45.132,23.074 44.862,22.914 44.57,22.782 C44.278,22.65 44.008,22.514 43.76,22.374 C43.512,22.234 43.306,22.072 43.142,21.888 C42.978,21.704 42.896,21.468 42.896,21.18 C42.896,20.828 43.004,20.548 43.22,20.34 C43.436,20.132 43.728,20.028 44.096,20.028 C44.424,20.028 44.694,20.088 44.906,20.208 C45.118,20.328 45.336,20.496 45.56,20.712 L45.56,20.712 L46.088,20.124 C45.872,19.892 45.63,19.692 45.362,19.524 C45.094,19.356 44.768,19.252 44.384,19.212 L44.384,19.212 L44.384,18.024 L43.664,18.024 L43.664,19.236 C43.136,19.316 42.714,19.534 42.398,19.89 C42.082,20.246 41.924,20.692 41.924,21.228 C41.924,21.62 42.006,21.942 42.17,22.194 C42.334,22.446 42.54,22.66 42.788,22.836 C43.036,23.012 43.306,23.168 43.598,23.304 C43.89,23.44 44.16,23.586 44.408,23.742 C44.656,23.898 44.862,24.082 45.026,24.294 C45.19,24.506 45.272,24.772 45.272,25.092 C45.272,25.468 45.162,25.768 44.942,25.992 C44.722,26.216 44.388,26.328 43.94,26.328 C43.572,26.328 43.234,26.25 42.926,26.094 C42.618,25.938 42.336,25.748 42.08,25.524 L42.08,25.524 L41.624,26.208 C41.88,26.44 42.188,26.642 42.548,26.814 C42.908,26.986 43.28,27.092 43.664,27.132 L43.664,27.132 L43.664,28.32 L44.384,28.32 Z M50.18,27.144 C50.492,27.144 50.784,27.084 51.056,26.964 C51.328,26.844 51.568,26.676 51.776,26.46 C51.984,26.244 52.148,25.986 52.268,25.686 C52.388,25.386 52.448,25.052 52.448,24.684 C52.448,23.892 52.25,23.3 51.854,22.908 C51.458,22.516 50.928,22.32 50.264,22.32 C49.952,22.32 49.636,22.406 49.316,22.578 C48.996,22.75 48.716,22.984 48.476,23.28 C48.484,22.672 48.544,22.162 48.656,21.75 C48.768,21.338 48.916,21.004 49.1,20.748 C49.284,20.492 49.496,20.308 49.736,20.196 C49.976,20.084 50.228,20.028 50.492,20.028 C50.732,20.028 50.962,20.082 51.182,20.19 C51.402,20.298 51.592,20.444 51.752,20.628 L51.752,20.628 L52.304,20.016 C52.088,19.784 51.83,19.59 51.53,19.434 C51.23,19.278 50.872,19.2 50.456,19.2 C50.072,19.2 49.706,19.278 49.358,19.434 C49.01,19.59 48.7,19.838 48.428,20.178 C48.156,20.518 47.94,20.958 47.78,21.498 C47.62,22.038 47.54,22.692 47.54,23.46 C47.54,24.076 47.608,24.614 47.744,25.074 C47.88,25.534 48.066,25.918 48.302,26.226 C48.538,26.534 48.816,26.764 49.136,26.916 C49.456,27.068 49.804,27.144 50.18,27.144 Z M50.18,26.364 C49.692,26.364 49.306,26.17 49.022,25.782 C48.738,25.394 48.564,24.824 48.5,24.072 C48.74,23.712 49.004,23.454 49.292,23.298 C49.58,23.142 49.848,23.064 50.096,23.064 C50.576,23.064 50.932,23.208 51.164,23.496 C51.396,23.784 51.512,24.18 51.512,24.684 C51.512,24.94 51.478,25.17 51.41,25.374 C51.342,25.578 51.248,25.754 51.128,25.902 C51.008,26.05 50.868,26.164 50.708,26.244 C50.548,26.324 50.372,26.364 50.18,26.364 Z M56.516,27 C56.956,27 57.36,26.952 57.728,26.856 C58.096,26.76 58.412,26.616 58.676,26.424 C58.94,26.232 59.144,25.992 59.288,25.704 C59.432,25.416 59.504,25.08 59.504,24.696 C59.504,24.152 59.356,23.724 59.06,23.412 C58.764,23.1 58.376,22.9 57.896,22.812 L57.896,22.812 L57.896,22.764 C58.272,22.644 58.558,22.426 58.754,22.11 C58.95,21.794 59.048,21.44 59.048,21.048 C59.048,20.704 58.982,20.41 58.85,20.166 C58.718,19.922 58.534,19.724 58.298,19.572 C58.062,19.42 57.778,19.308 57.446,19.236 C57.114,19.164 56.748,19.128 56.348,19.128 L56.348,19.128 L54.008,19.128 L54.008,27 L56.516,27 Z M56.168,22.476 L55.004,22.476 L55.004,19.92 L56.216,19.92 C56.832,19.92 57.294,20.016 57.602,20.208 C57.91,20.4 58.064,20.724 58.064,21.18 C58.064,21.58 57.916,21.896 57.62,22.128 C57.324,22.36 56.84,22.476 56.168,22.476 L56.168,22.476 Z M56.372,26.208 L55.004,26.208 L55.004,23.244 L56.372,23.244 C57.068,23.244 57.6,23.358 57.968,23.586 C58.336,23.814 58.52,24.172 58.52,24.66 C58.52,25.188 58.332,25.578 57.956,25.83 C57.58,26.082 57.052,26.208 56.372,26.208 L56.372,26.208 Z" id="Outlays$6B" fill="#555555" fill-rule="nonzero"></path>
                    <path d="M95.044,12.144 C95.556,12.144 96.024,12.05 96.448,11.862 C96.872,11.674 97.238,11.402 97.546,11.046 C97.854,10.69 98.092,10.26 98.26,9.756 C98.428,9.252 98.512,8.68 98.512,8.04 C98.512,7.408 98.428,6.842 98.26,6.342 C98.092,5.842 97.854,5.42 97.546,5.076 C97.238,4.732 96.872,4.468 96.448,4.284 C96.024,4.1 95.556,4.008 95.044,4.008 C94.532,4.008 94.064,4.1 93.64,4.284 C93.216,4.468 92.852,4.732 92.548,5.076 C92.244,5.42 92.008,5.842 91.84,6.342 C91.672,6.842 91.588,7.408 91.588,8.04 C91.588,8.68 91.672,9.252 91.84,9.756 C92.008,10.26 92.244,10.69 92.548,11.046 C92.852,11.402 93.216,11.674 93.64,11.862 C94.064,12.05 94.532,12.144 95.044,12.144 Z M95.044,10.932 C94.732,10.932 94.452,10.864 94.204,10.728 C93.956,10.592 93.744,10.398 93.568,10.146 C93.392,9.894 93.256,9.59 93.16,9.234 C93.064,8.878 93.016,8.48 93.016,8.04 C93.016,7.16 93.198,6.47 93.562,5.97 C93.926,5.47 94.42,5.22 95.044,5.22 C95.668,5.22 96.162,5.47 96.526,5.97 C96.89,6.47 97.072,7.16 97.072,8.04 C97.072,8.48 97.024,8.878 96.928,9.234 C96.832,9.59 96.696,9.894 96.52,10.146 C96.344,10.398 96.132,10.592 95.884,10.728 C95.636,10.864 95.356,10.932 95.044,10.932 Z M102.82,12.144 C103.148,12.144 103.464,12.072 103.768,11.928 C104.072,11.784 104.34,11.576 104.572,11.304 C104.804,11.032 104.99,10.698 105.13,10.302 C105.27,9.906 105.34,9.456 105.34,8.952 C105.34,8.496 105.288,8.084 105.184,7.716 C105.08,7.348 104.928,7.034 104.728,6.774 C104.528,6.514 104.284,6.314 103.996,6.174 C103.708,6.034 103.38,5.964 103.012,5.964 C102.708,5.964 102.41,6.032 102.118,6.168 C101.826,6.304 101.556,6.48 101.308,6.696 L101.308,6.696 L101.344,5.712 L101.344,3.528 L99.964,3.528 L99.964,12 L101.056,12 L101.176,11.376 L101.212,11.376 C101.46,11.624 101.722,11.814 101.998,11.946 C102.274,12.078 102.548,12.144 102.82,12.144 Z M102.532,11.004 C102.356,11.004 102.166,10.968 101.962,10.896 C101.758,10.824 101.552,10.696 101.344,10.512 L101.344,10.512 L101.344,7.764 C101.792,7.324 102.224,7.104 102.64,7.104 C103.088,7.104 103.412,7.268 103.612,7.596 C103.812,7.924 103.912,8.384 103.912,8.976 C103.912,9.648 103.78,10.154 103.516,10.494 C103.252,10.834 102.924,11.004 102.532,11.004 Z M108.064,12.144 C108.368,12.144 108.612,12.104 108.796,12.024 L108.796,12.024 L108.616,10.992 C108.56,11.008 108.518,11.016 108.49,11.016 L108.49,11.016 L108.4,11.016 C108.328,11.016 108.26,10.982 108.196,10.914 C108.132,10.846 108.1,10.728 108.1,10.56 L108.1,10.56 L108.1,3.528 L106.72,3.528 L106.72,10.488 C106.72,11 106.82,11.404 107.02,11.7 C107.22,11.996 107.568,12.144 108.064,12.144 Z M110.668,5.076 C110.916,5.076 111.12,5.004 111.28,4.86 C111.44,4.716 111.52,4.528 111.52,4.296 C111.52,4.064 111.44,3.874 111.28,3.726 C111.12,3.578 110.916,3.504 110.668,3.504 C110.42,3.504 110.216,3.578 110.056,3.726 C109.896,3.874 109.816,4.064 109.816,4.296 C109.816,4.528 109.896,4.716 110.056,4.86 C110.216,5.004 110.42,5.076 110.668,5.076 Z M111.352,12 L111.352,6.108 L109.972,6.108 L109.972,12 L111.352,12 Z M115.168,14.604 C115.648,14.604 116.082,14.55 116.47,14.442 C116.858,14.334 117.188,14.188 117.46,14.004 C117.732,13.82 117.942,13.6 118.09,13.344 C118.238,13.088 118.312,12.816 118.312,12.528 C118.312,12.016 118.13,11.646 117.766,11.418 C117.402,11.19 116.864,11.076 116.152,11.076 L116.152,11.076 L115.108,11.076 C114.748,11.076 114.498,11.028 114.358,10.932 C114.218,10.836 114.148,10.704 114.148,10.536 C114.148,10.4 114.174,10.292 114.226,10.212 C114.278,10.132 114.348,10.052 114.436,9.972 C114.572,10.028 114.708,10.068 114.844,10.092 C114.98,10.116 115.112,10.128 115.24,10.128 C115.552,10.128 115.844,10.084 116.116,9.996 C116.388,9.908 116.624,9.78 116.824,9.612 C117.024,9.444 117.182,9.236 117.298,8.988 C117.414,8.74 117.472,8.452 117.472,8.124 C117.472,7.916 117.44,7.726 117.376,7.554 C117.312,7.382 117.232,7.24 117.136,7.128 L117.136,7.128 L118.216,7.128 L118.216,6.108 L116.104,6.108 C115.984,6.068 115.85,6.034 115.702,6.006 C115.554,5.978 115.4,5.964 115.24,5.964 C114.928,5.964 114.632,6.01 114.352,6.102 C114.072,6.194 113.826,6.33 113.614,6.51 C113.402,6.69 113.232,6.912 113.104,7.176 C112.976,7.44 112.912,7.74 112.912,8.076 C112.912,8.428 112.99,8.738 113.146,9.006 C113.302,9.274 113.48,9.484 113.68,9.636 L113.68,9.636 L113.68,9.684 C113.512,9.804 113.362,9.958 113.23,10.146 C113.098,10.334 113.032,10.544 113.032,10.776 C113.032,11.016 113.082,11.216 113.182,11.376 C113.282,11.536 113.408,11.664 113.56,11.76 L113.56,11.76 L113.56,11.808 C113.288,11.976 113.08,12.166 112.936,12.378 C112.792,12.59 112.72,12.82 112.72,13.068 C112.72,13.324 112.782,13.548 112.906,13.74 C113.03,13.932 113.2,14.092 113.416,14.22 C113.632,14.348 113.89,14.444 114.19,14.508 C114.49,14.572 114.816,14.604 115.168,14.604 Z M115.24,9.264 C114.952,9.264 114.708,9.162 114.508,8.958 C114.308,8.754 114.208,8.46 114.208,8.076 C114.208,7.7 114.308,7.412 114.508,7.212 C114.708,7.012 114.952,6.912 115.24,6.912 C115.528,6.912 115.77,7.014 115.966,7.218 C116.162,7.422 116.26,7.708 116.26,8.076 C116.26,8.46 116.16,8.754 115.96,8.958 C115.76,9.162 115.52,9.264 115.24,9.264 Z M115.384,13.704 C114.912,13.704 114.542,13.63 114.274,13.482 C114.006,13.334 113.872,13.128 113.872,12.864 C113.872,12.576 114.024,12.316 114.328,12.084 C114.544,12.14 114.812,12.168 115.132,12.168 L115.132,12.168 L115.936,12.168 C116.272,12.168 116.53,12.208 116.71,12.288 C116.89,12.368 116.98,12.524 116.98,12.756 C116.98,13.012 116.834,13.234 116.542,13.422 C116.25,13.61 115.864,13.704 115.384,13.704 Z M120.568,12.144 C120.92,12.144 121.246,12.068 121.546,11.916 C121.846,11.764 122.128,11.576 122.392,11.352 L122.392,11.352 L122.44,11.352 L122.536,12 L123.676,12 L123.676,8.508 C123.676,7.684 123.494,7.054 123.13,6.618 C122.766,6.182 122.216,5.964 121.48,5.964 C121.008,5.964 120.568,6.04 120.16,6.192 C119.752,6.344 119.384,6.524 119.056,6.732 L119.056,6.732 L119.56,7.656 C119.824,7.496 120.094,7.36 120.37,7.248 C120.646,7.136 120.928,7.08 121.216,7.08 C121.416,7.08 121.584,7.11 121.72,7.17 C121.856,7.23 121.966,7.314 122.05,7.422 C122.134,7.53 122.194,7.654 122.23,7.794 C122.266,7.934 122.288,8.08 122.296,8.232 C121.688,8.296 121.166,8.388 120.73,8.508 C120.294,8.628 119.934,8.776 119.65,8.952 C119.366,9.128 119.158,9.338 119.026,9.582 C118.894,9.826 118.828,10.104 118.828,10.416 C118.828,10.936 118.988,11.354 119.308,11.67 C119.628,11.986 120.048,12.144 120.568,12.144 Z M121.012,11.064 C120.764,11.064 120.56,11.004 120.4,10.884 C120.24,10.764 120.16,10.572 120.16,10.308 C120.16,10.164 120.196,10.028 120.268,9.9 C120.34,9.772 120.46,9.658 120.628,9.558 C120.796,9.458 121.016,9.368 121.288,9.288 C121.56,9.208 121.896,9.144 122.296,9.096 L122.296,9.096 L122.296,10.416 C122.072,10.624 121.862,10.784 121.666,10.896 C121.47,11.008 121.252,11.064 121.012,11.064 Z M127.216,12.144 C127.448,12.144 127.666,12.122 127.87,12.078 C128.074,12.034 128.256,11.984 128.416,11.928 L128.416,11.928 L128.176,10.908 C128.088,10.948 127.99,10.98 127.882,11.004 C127.774,11.028 127.668,11.04 127.564,11.04 C127.012,11.04 126.736,10.696 126.736,10.008 L126.736,10.008 L126.736,7.2 L128.236,7.2 L128.236,6.108 L126.736,6.108 L126.736,4.5 L125.584,4.5 L125.416,6.108 L124.504,6.168 L124.504,7.2 L125.344,7.2 L125.344,10.008 C125.344,10.328 125.378,10.618 125.446,10.878 C125.514,11.138 125.622,11.362 125.77,11.55 C125.918,11.738 126.11,11.884 126.346,11.988 C126.582,12.092 126.872,12.144 127.216,12.144 Z M130.168,5.076 C130.416,5.076 130.62,5.004 130.78,4.86 C130.94,4.716 131.02,4.528 131.02,4.296 C131.02,4.064 130.94,3.874 130.78,3.726 C130.62,3.578 130.416,3.504 130.168,3.504 C129.92,3.504 129.716,3.578 129.556,3.726 C129.396,3.874 129.316,4.064 129.316,4.296 C129.316,4.528 129.396,4.716 129.556,4.86 C129.716,5.004 129.92,5.076 130.168,5.076 Z M130.852,12 L130.852,6.108 L129.472,6.108 L129.472,12 L130.852,12 Z M135.028,12.144 C135.396,12.144 135.75,12.076 136.09,11.94 C136.43,11.804 136.728,11.604 136.984,11.34 C137.24,11.076 137.446,10.752 137.602,10.368 C137.758,9.984 137.836,9.548 137.836,9.06 C137.836,8.572 137.758,8.136 137.602,7.752 C137.446,7.368 137.24,7.044 136.984,6.78 C136.728,6.516 136.43,6.314 136.09,6.174 C135.75,6.034 135.396,5.964 135.028,5.964 C134.66,5.964 134.308,6.034 133.972,6.174 C133.636,6.314 133.338,6.516 133.078,6.78 C132.818,7.044 132.612,7.368 132.46,7.752 C132.308,8.136 132.232,8.572 132.232,9.06 C132.232,9.548 132.308,9.984 132.46,10.368 C132.612,10.752 132.818,11.076 133.078,11.34 C133.338,11.604 133.636,11.804 133.972,11.94 C134.308,12.076 134.66,12.144 135.028,12.144 Z M135.028,11.016 C134.596,11.016 134.258,10.838 134.014,10.482 C133.77,10.126 133.648,9.652 133.648,9.06 C133.648,8.46 133.77,7.982 134.014,7.626 C134.258,7.27 134.596,7.092 135.028,7.092 C135.46,7.092 135.8,7.27 136.048,7.626 C136.296,7.982 136.42,8.46 136.42,9.06 C136.42,9.652 136.296,10.126 136.048,10.482 C135.8,10.838 135.46,11.016 135.028,11.016 Z M140.584,12 L140.584,7.884 C140.832,7.644 141.054,7.462 141.25,7.338 C141.446,7.214 141.672,7.152 141.928,7.152 C142.256,7.152 142.492,7.252 142.636,7.452 C142.78,7.652 142.852,7.996 142.852,8.484 L142.852,8.484 L142.852,12 L144.232,12 L144.232,8.304 C144.232,7.552 144.088,6.974 143.8,6.57 C143.512,6.166 143.052,5.964 142.42,5.964 C142.012,5.964 141.654,6.056 141.346,6.24 C141.038,6.424 140.752,6.644 140.488,6.9 L140.488,6.9 L140.44,6.9 L140.344,6.108 L139.204,6.108 L139.204,12 L140.584,12 Z M147.568,12.144 C147.936,12.144 148.264,12.096 148.552,12 C148.84,11.904 149.08,11.774 149.272,11.61 C149.464,11.446 149.61,11.254 149.71,11.034 C149.81,10.814 149.86,10.576 149.86,10.32 C149.86,10.048 149.81,9.814 149.71,9.618 C149.61,9.422 149.478,9.256 149.314,9.12 C149.15,8.984 148.968,8.87 148.768,8.778 C148.568,8.686 148.368,8.604 148.168,8.532 C148.008,8.476 147.854,8.42 147.706,8.364 C147.558,8.308 147.428,8.248 147.316,8.184 C147.204,8.12 147.114,8.046 147.046,7.962 C146.978,7.878 146.944,7.776 146.944,7.656 C146.944,7.472 147.014,7.318 147.154,7.194 C147.294,7.07 147.512,7.008 147.808,7.008 C148.04,7.008 148.262,7.054 148.474,7.146 C148.686,7.238 148.896,7.36 149.104,7.512 L149.104,7.512 L149.74,6.672 C149.5,6.488 149.216,6.324 148.888,6.18 C148.56,6.036 148.192,5.964 147.784,5.964 C147.12,5.964 146.596,6.128 146.212,6.456 C145.828,6.784 145.636,7.208 145.636,7.728 C145.636,7.976 145.686,8.19 145.786,8.37 C145.886,8.55 146.014,8.708 146.17,8.844 C146.326,8.98 146.504,9.096 146.704,9.192 C146.904,9.288 147.1,9.372 147.292,9.444 C147.444,9.508 147.596,9.57 147.748,9.63 C147.9,9.69 148.036,9.756 148.156,9.828 C148.276,9.9 148.372,9.982 148.444,10.074 C148.516,10.166 148.552,10.272 148.552,10.392 C148.552,10.6 148.476,10.77 148.324,10.902 C148.172,11.034 147.936,11.1 147.616,11.1 C147.312,11.1 147.03,11.042 146.77,10.926 C146.51,10.81 146.248,10.648 145.984,10.44 L145.984,10.44 L145.336,11.328 C145.624,11.56 145.966,11.754 146.362,11.91 C146.758,12.066 147.16,12.144 147.568,12.144 Z M94.384,28.32 L94.384,27.108 C94.96,27.028 95.414,26.804 95.746,26.436 C96.078,26.068 96.244,25.596 96.244,25.02 C96.244,24.588 96.162,24.234 95.998,23.958 C95.834,23.682 95.628,23.45 95.38,23.262 C95.132,23.074 94.862,22.914 94.57,22.782 C94.278,22.65 94.008,22.514 93.76,22.374 C93.512,22.234 93.306,22.072 93.142,21.888 C92.978,21.704 92.896,21.468 92.896,21.18 C92.896,20.828 93.004,20.548 93.22,20.34 C93.436,20.132 93.728,20.028 94.096,20.028 C94.424,20.028 94.694,20.088 94.906,20.208 C95.118,20.328 95.336,20.496 95.56,20.712 L95.56,20.712 L96.088,20.124 C95.872,19.892 95.63,19.692 95.362,19.524 C95.094,19.356 94.768,19.252 94.384,19.212 L94.384,19.212 L94.384,18.024 L93.664,18.024 L93.664,19.236 C93.136,19.316 92.714,19.534 92.398,19.89 C92.082,20.246 91.924,20.692 91.924,21.228 C91.924,21.62 92.006,21.942 92.17,22.194 C92.334,22.446 92.54,22.66 92.788,22.836 C93.036,23.012 93.306,23.168 93.598,23.304 C93.89,23.44 94.16,23.586 94.408,23.742 C94.656,23.898 94.862,24.082 95.026,24.294 C95.19,24.506 95.272,24.772 95.272,25.092 C95.272,25.468 95.162,25.768 94.942,25.992 C94.722,26.216 94.388,26.328 93.94,26.328 C93.572,26.328 93.234,26.25 92.926,26.094 C92.618,25.938 92.336,25.748 92.08,25.524 L92.08,25.524 L91.624,26.208 C91.88,26.44 92.188,26.642 92.548,26.814 C92.908,26.986 93.28,27.092 93.664,27.132 L93.664,27.132 L93.664,28.32 L94.384,28.32 Z M99.964,27.144 C100.332,27.144 100.668,27.092 100.972,26.988 C101.276,26.884 101.536,26.74 101.752,26.556 C101.968,26.372 102.136,26.156 102.256,25.908 C102.376,25.66 102.436,25.392 102.436,25.104 C102.436,24.848 102.398,24.62 102.322,24.42 C102.246,24.22 102.146,24.042 102.022,23.886 C101.898,23.73 101.756,23.59 101.596,23.466 C101.436,23.342 101.272,23.232 101.104,23.136 L101.104,23.136 L101.104,23.088 C101.224,23 101.346,22.892 101.47,22.764 C101.594,22.636 101.706,22.492 101.806,22.332 C101.906,22.172 101.99,22 102.058,21.816 C102.126,21.632 102.16,21.44 102.16,21.24 C102.16,20.944 102.11,20.67 102.01,20.418 C101.91,20.166 101.766,19.95 101.578,19.77 C101.39,19.59 101.164,19.45 100.9,19.35 C100.636,19.25 100.336,19.2 100,19.2 C99.688,19.2 99.4,19.248 99.136,19.344 C98.872,19.44 98.644,19.574 98.452,19.746 C98.26,19.918 98.108,20.124 97.996,20.364 C97.884,20.604 97.828,20.872 97.828,21.168 C97.828,21.576 97.936,21.922 98.152,22.206 C98.368,22.49 98.616,22.732 98.896,22.932 L98.896,22.932 L98.896,22.98 C98.712,23.076 98.534,23.19 98.362,23.322 C98.19,23.454 98.038,23.606 97.906,23.778 C97.774,23.95 97.666,24.142 97.582,24.354 C97.498,24.566 97.456,24.796 97.456,25.044 C97.456,25.348 97.52,25.628 97.648,25.884 C97.776,26.14 97.95,26.362 98.17,26.55 C98.39,26.738 98.654,26.884 98.962,26.988 C99.27,27.092 99.604,27.144 99.964,27.144 Z M100.504,22.824 C100.272,22.736 100.05,22.642 99.838,22.542 C99.626,22.442 99.438,22.328 99.274,22.2 C99.11,22.072 98.98,21.926 98.884,21.762 C98.788,21.598 98.74,21.4 98.74,21.168 C98.74,20.792 98.856,20.492 99.088,20.268 C99.32,20.044 99.616,19.932 99.976,19.932 C100.4,19.932 100.728,20.062 100.96,20.322 C101.192,20.582 101.308,20.904 101.308,21.288 C101.308,21.568 101.238,21.836 101.098,22.092 C100.958,22.348 100.76,22.592 100.504,22.824 Z M99.988,26.412 C99.756,26.412 99.54,26.376 99.34,26.304 C99.14,26.232 98.966,26.13 98.818,25.998 C98.67,25.866 98.554,25.712 98.47,25.536 C98.386,25.36 98.344,25.164 98.344,24.948 C98.344,24.596 98.446,24.282 98.65,24.006 C98.854,23.73 99.108,23.488 99.412,23.28 C99.684,23.392 99.946,23.502 100.198,23.61 C100.45,23.718 100.672,23.838 100.864,23.97 C101.056,24.102 101.208,24.256 101.32,24.432 C101.432,24.608 101.488,24.82 101.488,25.068 C101.488,25.468 101.35,25.792 101.074,26.04 C100.798,26.288 100.436,26.412 99.988,26.412 Z M106.516,27 C106.956,27 107.36,26.952 107.728,26.856 C108.096,26.76 108.412,26.616 108.676,26.424 C108.94,26.232 109.144,25.992 109.288,25.704 C109.432,25.416 109.504,25.08 109.504,24.696 C109.504,24.152 109.356,23.724 109.06,23.412 C108.764,23.1 108.376,22.9 107.896,22.812 L107.896,22.812 L107.896,22.764 C108.272,22.644 108.558,22.426 108.754,22.11 C108.95,21.794 109.048,21.44 109.048,21.048 C109.048,20.704 108.982,20.41 108.85,20.166 C108.718,19.922 108.534,19.724 108.298,19.572 C108.062,19.42 107.778,19.308 107.446,19.236 C107.114,19.164 106.748,19.128 106.348,19.128 L106.348,19.128 L104.008,19.128 L104.008,27 L106.516,27 Z M106.168,22.476 L105.004,22.476 L105.004,19.92 L106.216,19.92 C106.832,19.92 107.294,20.016 107.602,20.208 C107.91,20.4 108.064,20.724 108.064,21.18 C108.064,21.58 107.916,21.896 107.62,22.128 C107.324,22.36 106.84,22.476 106.168,22.476 L106.168,22.476 Z M106.372,26.208 L105.004,26.208 L105.004,23.244 L106.372,23.244 C107.068,23.244 107.6,23.358 107.968,23.586 C108.336,23.814 108.52,24.172 108.52,24.66 C108.52,25.188 108.332,25.578 107.956,25.83 C107.58,26.082 107.052,26.208 106.372,26.208 L106.372,26.208 Z" id="Obligations$8B" fill="#555555" fill-rule="nonzero"></path>
                    <path d="M168.936,12.144 C169.392,12.144 169.802,12.078 170.166,11.946 C170.53,11.814 170.842,11.604 171.102,11.316 C171.362,11.028 171.56,10.658 171.696,10.206 C171.832,9.754 171.9,9.204 171.9,8.556 L171.9,8.556 L171.9,4.152 L170.568,4.152 L170.568,8.664 C170.568,9.088 170.528,9.446 170.448,9.738 C170.368,10.03 170.256,10.264 170.112,10.44 C169.968,10.616 169.796,10.742 169.596,10.818 C169.396,10.894 169.176,10.932 168.936,10.932 C168.696,10.932 168.48,10.894 168.288,10.818 C168.096,10.742 167.93,10.616 167.79,10.44 C167.65,10.264 167.542,10.03 167.466,9.738 C167.39,9.446 167.352,9.088 167.352,8.664 L167.352,8.664 L167.352,4.152 L165.96,4.152 L165.96,8.556 C165.96,9.204 166.03,9.754 166.17,10.206 C166.31,10.658 166.51,11.028 166.77,11.316 C167.03,11.604 167.342,11.814 167.706,11.946 C168.07,12.078 168.48,12.144 168.936,12.144 Z M175.116,12 L175.116,7.884 C175.364,7.644 175.586,7.462 175.782,7.338 C175.978,7.214 176.204,7.152 176.46,7.152 C176.788,7.152 177.024,7.252 177.168,7.452 C177.312,7.652 177.384,7.996 177.384,8.484 L177.384,8.484 L177.384,12 L178.764,12 L178.764,8.304 C178.764,7.552 178.62,6.974 178.332,6.57 C178.044,6.166 177.584,5.964 176.952,5.964 C176.544,5.964 176.186,6.056 175.878,6.24 C175.57,6.424 175.284,6.644 175.02,6.9 L175.02,6.9 L174.972,6.9 L174.876,6.108 L173.736,6.108 L173.736,12 L175.116,12 Z M182.868,12.144 C183.236,12.144 183.59,12.076 183.93,11.94 C184.27,11.804 184.568,11.604 184.824,11.34 C185.08,11.076 185.286,10.752 185.442,10.368 C185.598,9.984 185.676,9.548 185.676,9.06 C185.676,8.572 185.598,8.136 185.442,7.752 C185.286,7.368 185.08,7.044 184.824,6.78 C184.568,6.516 184.27,6.314 183.93,6.174 C183.59,6.034 183.236,5.964 182.868,5.964 C182.5,5.964 182.148,6.034 181.812,6.174 C181.476,6.314 181.178,6.516 180.918,6.78 C180.658,7.044 180.452,7.368 180.3,7.752 C180.148,8.136 180.072,8.572 180.072,9.06 C180.072,9.548 180.148,9.984 180.3,10.368 C180.452,10.752 180.658,11.076 180.918,11.34 C181.178,11.604 181.476,11.804 181.812,11.94 C182.148,12.076 182.5,12.144 182.868,12.144 Z M182.868,11.016 C182.436,11.016 182.098,10.838 181.854,10.482 C181.61,10.126 181.488,9.652 181.488,9.06 C181.488,8.46 181.61,7.982 181.854,7.626 C182.098,7.27 182.436,7.092 182.868,7.092 C183.3,7.092 183.64,7.27 183.888,7.626 C184.136,7.982 184.26,8.46 184.26,9.06 C184.26,9.652 184.136,10.126 183.888,10.482 C183.64,10.838 183.3,11.016 182.868,11.016 Z M189.9,12.144 C190.228,12.144 190.544,12.072 190.848,11.928 C191.152,11.784 191.42,11.576 191.652,11.304 C191.884,11.032 192.07,10.698 192.21,10.302 C192.35,9.906 192.42,9.456 192.42,8.952 C192.42,8.496 192.368,8.084 192.264,7.716 C192.16,7.348 192.008,7.034 191.808,6.774 C191.608,6.514 191.364,6.314 191.076,6.174 C190.788,6.034 190.46,5.964 190.092,5.964 C189.788,5.964 189.49,6.032 189.198,6.168 C188.906,6.304 188.636,6.48 188.388,6.696 L188.388,6.696 L188.424,5.712 L188.424,3.528 L187.044,3.528 L187.044,12 L188.136,12 L188.256,11.376 L188.292,11.376 C188.54,11.624 188.802,11.814 189.078,11.946 C189.354,12.078 189.628,12.144 189.9,12.144 Z M189.612,11.004 C189.436,11.004 189.246,10.968 189.042,10.896 C188.838,10.824 188.632,10.696 188.424,10.512 L188.424,10.512 L188.424,7.764 C188.872,7.324 189.304,7.104 189.72,7.104 C190.168,7.104 190.492,7.268 190.692,7.596 C190.892,7.924 190.992,8.384 190.992,8.976 C190.992,9.648 190.86,10.154 190.596,10.494 C190.332,10.834 190.004,11.004 189.612,11.004 Z M195.144,12.144 C195.448,12.144 195.692,12.104 195.876,12.024 L195.876,12.024 L195.696,10.992 C195.64,11.008 195.598,11.016 195.57,11.016 L195.57,11.016 L195.48,11.016 C195.408,11.016 195.34,10.982 195.276,10.914 C195.212,10.846 195.18,10.728 195.18,10.56 L195.18,10.56 L195.18,3.528 L193.8,3.528 L193.8,10.488 C193.8,11 193.9,11.404 194.1,11.7 C194.3,11.996 194.648,12.144 195.144,12.144 Z M197.748,5.076 C197.996,5.076 198.2,5.004 198.36,4.86 C198.52,4.716 198.6,4.528 198.6,4.296 C198.6,4.064 198.52,3.874 198.36,3.726 C198.2,3.578 197.996,3.504 197.748,3.504 C197.5,3.504 197.296,3.578 197.136,3.726 C196.976,3.874 196.896,4.064 196.896,4.296 C196.896,4.528 196.976,4.716 197.136,4.86 C197.296,5.004 197.5,5.076 197.748,5.076 Z M198.432,12 L198.432,6.108 L197.052,6.108 L197.052,12 L198.432,12 Z M202.248,14.604 C202.728,14.604 203.162,14.55 203.55,14.442 C203.938,14.334 204.268,14.188 204.54,14.004 C204.812,13.82 205.022,13.6 205.17,13.344 C205.318,13.088 205.392,12.816 205.392,12.528 C205.392,12.016 205.21,11.646 204.846,11.418 C204.482,11.19 203.944,11.076 203.232,11.076 L203.232,11.076 L202.188,11.076 C201.828,11.076 201.578,11.028 201.438,10.932 C201.298,10.836 201.228,10.704 201.228,10.536 C201.228,10.4 201.254,10.292 201.306,10.212 C201.358,10.132 201.428,10.052 201.516,9.972 C201.652,10.028 201.788,10.068 201.924,10.092 C202.06,10.116 202.192,10.128 202.32,10.128 C202.632,10.128 202.924,10.084 203.196,9.996 C203.468,9.908 203.704,9.78 203.904,9.612 C204.104,9.444 204.262,9.236 204.378,8.988 C204.494,8.74 204.552,8.452 204.552,8.124 C204.552,7.916 204.52,7.726 204.456,7.554 C204.392,7.382 204.312,7.24 204.216,7.128 L204.216,7.128 L205.296,7.128 L205.296,6.108 L203.184,6.108 C203.064,6.068 202.93,6.034 202.782,6.006 C202.634,5.978 202.48,5.964 202.32,5.964 C202.008,5.964 201.712,6.01 201.432,6.102 C201.152,6.194 200.906,6.33 200.694,6.51 C200.482,6.69 200.312,6.912 200.184,7.176 C200.056,7.44 199.992,7.74 199.992,8.076 C199.992,8.428 200.07,8.738 200.226,9.006 C200.382,9.274 200.56,9.484 200.76,9.636 L200.76,9.636 L200.76,9.684 C200.592,9.804 200.442,9.958 200.31,10.146 C200.178,10.334 200.112,10.544 200.112,10.776 C200.112,11.016 200.162,11.216 200.262,11.376 C200.362,11.536 200.488,11.664 200.64,11.76 L200.64,11.76 L200.64,11.808 C200.368,11.976 200.16,12.166 200.016,12.378 C199.872,12.59 199.8,12.82 199.8,13.068 C199.8,13.324 199.862,13.548 199.986,13.74 C200.11,13.932 200.28,14.092 200.496,14.22 C200.712,14.348 200.97,14.444 201.27,14.508 C201.57,14.572 201.896,14.604 202.248,14.604 Z M202.32,9.264 C202.032,9.264 201.788,9.162 201.588,8.958 C201.388,8.754 201.288,8.46 201.288,8.076 C201.288,7.7 201.388,7.412 201.588,7.212 C201.788,7.012 202.032,6.912 202.32,6.912 C202.608,6.912 202.85,7.014 203.046,7.218 C203.242,7.422 203.34,7.708 203.34,8.076 C203.34,8.46 203.24,8.754 203.04,8.958 C202.84,9.162 202.6,9.264 202.32,9.264 Z M202.464,13.704 C201.992,13.704 201.622,13.63 201.354,13.482 C201.086,13.334 200.952,13.128 200.952,12.864 C200.952,12.576 201.104,12.316 201.408,12.084 C201.624,12.14 201.892,12.168 202.212,12.168 L202.212,12.168 L203.016,12.168 C203.352,12.168 203.61,12.208 203.79,12.288 C203.97,12.368 204.06,12.524 204.06,12.756 C204.06,13.012 203.914,13.234 203.622,13.422 C203.33,13.61 202.944,13.704 202.464,13.704 Z M207.648,12.144 C208,12.144 208.326,12.068 208.626,11.916 C208.926,11.764 209.208,11.576 209.472,11.352 L209.472,11.352 L209.52,11.352 L209.616,12 L210.756,12 L210.756,8.508 C210.756,7.684 210.574,7.054 210.21,6.618 C209.846,6.182 209.296,5.964 208.56,5.964 C208.088,5.964 207.648,6.04 207.24,6.192 C206.832,6.344 206.464,6.524 206.136,6.732 L206.136,6.732 L206.64,7.656 C206.904,7.496 207.174,7.36 207.45,7.248 C207.726,7.136 208.008,7.08 208.296,7.08 C208.496,7.08 208.664,7.11 208.8,7.17 C208.936,7.23 209.046,7.314 209.13,7.422 C209.214,7.53 209.274,7.654 209.31,7.794 C209.346,7.934 209.368,8.08 209.376,8.232 C208.768,8.296 208.246,8.388 207.81,8.508 C207.374,8.628 207.014,8.776 206.73,8.952 C206.446,9.128 206.238,9.338 206.106,9.582 C205.974,9.826 205.908,10.104 205.908,10.416 C205.908,10.936 206.068,11.354 206.388,11.67 C206.708,11.986 207.128,12.144 207.648,12.144 Z M208.092,11.064 C207.844,11.064 207.64,11.004 207.48,10.884 C207.32,10.764 207.24,10.572 207.24,10.308 C207.24,10.164 207.276,10.028 207.348,9.9 C207.42,9.772 207.54,9.658 207.708,9.558 C207.876,9.458 208.096,9.368 208.368,9.288 C208.64,9.208 208.976,9.144 209.376,9.096 L209.376,9.096 L209.376,10.416 C209.152,10.624 208.942,10.784 208.746,10.896 C208.55,11.008 208.332,11.064 208.092,11.064 Z M214.296,12.144 C214.528,12.144 214.746,12.122 214.95,12.078 C215.154,12.034 215.336,11.984 215.496,11.928 L215.496,11.928 L215.256,10.908 C215.168,10.948 215.07,10.98 214.962,11.004 C214.854,11.028 214.748,11.04 214.644,11.04 C214.092,11.04 213.816,10.696 213.816,10.008 L213.816,10.008 L213.816,7.2 L215.316,7.2 L215.316,6.108 L213.816,6.108 L213.816,4.5 L212.664,4.5 L212.496,6.108 L211.584,6.168 L211.584,7.2 L212.424,7.2 L212.424,10.008 C212.424,10.328 212.458,10.618 212.526,10.878 C212.594,11.138 212.702,11.362 212.85,11.55 C212.998,11.738 213.19,11.884 213.426,11.988 C213.662,12.092 213.952,12.144 214.296,12.144 Z M218.88,12.144 C219.256,12.144 219.616,12.084 219.96,11.964 C220.304,11.844 220.616,11.692 220.896,11.508 L220.896,11.508 L220.428,10.644 C220.212,10.78 219.994,10.886 219.774,10.962 C219.554,11.038 219.316,11.076 219.06,11.076 C218.58,11.076 218.186,10.934 217.878,10.65 C217.57,10.366 217.384,9.96 217.32,9.432 L217.32,9.432 L221.064,9.432 C221.08,9.36 221.094,9.264 221.106,9.144 C221.118,9.024 221.124,8.896 221.124,8.76 C221.124,8.352 221.072,7.976 220.968,7.632 C220.864,7.288 220.71,6.992 220.506,6.744 C220.302,6.496 220.048,6.304 219.744,6.168 C219.44,6.032 219.088,5.964 218.688,5.964 C218.344,5.964 218.008,6.036 217.68,6.18 C217.352,6.324 217.062,6.528 216.81,6.792 C216.558,7.056 216.356,7.38 216.204,7.764 C216.052,8.148 215.976,8.58 215.976,9.06 C215.976,9.548 216.05,9.982 216.198,10.362 C216.346,10.742 216.552,11.064 216.816,11.328 C217.08,11.592 217.388,11.794 217.74,11.934 C218.092,12.074 218.472,12.144 218.88,12.144 Z M219.924,8.496 L217.308,8.496 C217.372,8.016 217.536,7.652 217.8,7.404 C218.064,7.156 218.372,7.032 218.724,7.032 C219.132,7.032 219.434,7.162 219.63,7.422 C219.826,7.682 219.924,8.04 219.924,8.496 L219.924,8.496 Z M224.508,12.144 C224.828,12.144 225.132,12.068 225.42,11.916 C225.708,11.764 225.96,11.58 226.176,11.364 L226.176,11.364 L226.224,11.364 L226.32,12 L227.46,12 L227.46,3.528 L226.08,3.528 L226.08,5.664 L226.128,6.612 C225.896,6.412 225.664,6.254 225.432,6.138 C225.2,6.022 224.916,5.964 224.58,5.964 C224.26,5.964 223.95,6.036 223.65,6.18 C223.35,6.324 223.084,6.528 222.852,6.792 C222.62,7.056 222.434,7.38 222.294,7.764 C222.154,8.148 222.084,8.58 222.084,9.06 C222.084,10.036 222.302,10.794 222.738,11.334 C223.174,11.874 223.764,12.144 224.508,12.144 Z M224.844,11.004 C224.412,11.004 224.082,10.838 223.854,10.506 C223.626,10.174 223.512,9.688 223.512,9.048 C223.512,8.424 223.644,7.944 223.908,7.608 C224.172,7.272 224.496,7.104 224.88,7.104 C225.08,7.104 225.278,7.14 225.474,7.212 C225.67,7.284 225.872,7.412 226.08,7.596 L226.08,7.596 L226.08,10.344 C225.696,10.784 225.284,11.004 224.844,11.004 Z M168.384,28.32 L168.384,27.108 C168.96,27.028 169.414,26.804 169.746,26.436 C170.078,26.068 170.244,25.596 170.244,25.02 C170.244,24.588 170.162,24.234 169.998,23.958 C169.834,23.682 169.628,23.45 169.38,23.262 C169.132,23.074 168.862,22.914 168.57,22.782 C168.278,22.65 168.008,22.514 167.76,22.374 C167.512,22.234 167.306,22.072 167.142,21.888 C166.978,21.704 166.896,21.468 166.896,21.18 C166.896,20.828 167.004,20.548 167.22,20.34 C167.436,20.132 167.728,20.028 168.096,20.028 C168.424,20.028 168.694,20.088 168.906,20.208 C169.118,20.328 169.336,20.496 169.56,20.712 L169.56,20.712 L170.088,20.124 C169.872,19.892 169.63,19.692 169.362,19.524 C169.094,19.356 168.768,19.252 168.384,19.212 L168.384,19.212 L168.384,18.024 L167.664,18.024 L167.664,19.236 C167.136,19.316 166.714,19.534 166.398,19.89 C166.082,20.246 165.924,20.692 165.924,21.228 C165.924,21.62 166.006,21.942 166.17,22.194 C166.334,22.446 166.54,22.66 166.788,22.836 C167.036,23.012 167.306,23.168 167.598,23.304 C167.89,23.44 168.16,23.586 168.408,23.742 C168.656,23.898 168.862,24.082 169.026,24.294 C169.19,24.506 169.272,24.772 169.272,25.092 C169.272,25.468 169.162,25.768 168.942,25.992 C168.722,26.216 168.388,26.328 167.94,26.328 C167.572,26.328 167.234,26.25 166.926,26.094 C166.618,25.938 166.336,25.748 166.08,25.524 L166.08,25.524 L165.624,26.208 C165.88,26.44 166.188,26.642 166.548,26.814 C166.908,26.986 167.28,27.092 167.664,27.132 L167.664,27.132 L167.664,28.32 L168.384,28.32 Z M174.18,27.144 C174.492,27.144 174.784,27.084 175.056,26.964 C175.328,26.844 175.568,26.676 175.776,26.46 C175.984,26.244 176.148,25.986 176.268,25.686 C176.388,25.386 176.448,25.052 176.448,24.684 C176.448,23.892 176.25,23.3 175.854,22.908 C175.458,22.516 174.928,22.32 174.264,22.32 C173.952,22.32 173.636,22.406 173.316,22.578 C172.996,22.75 172.716,22.984 172.476,23.28 C172.484,22.672 172.544,22.162 172.656,21.75 C172.768,21.338 172.916,21.004 173.1,20.748 C173.284,20.492 173.496,20.308 173.736,20.196 C173.976,20.084 174.228,20.028 174.492,20.028 C174.732,20.028 174.962,20.082 175.182,20.19 C175.402,20.298 175.592,20.444 175.752,20.628 L175.752,20.628 L176.304,20.016 C176.088,19.784 175.83,19.59 175.53,19.434 C175.23,19.278 174.872,19.2 174.456,19.2 C174.072,19.2 173.706,19.278 173.358,19.434 C173.01,19.59 172.7,19.838 172.428,20.178 C172.156,20.518 171.94,20.958 171.78,21.498 C171.62,22.038 171.54,22.692 171.54,23.46 C171.54,24.076 171.608,24.614 171.744,25.074 C171.88,25.534 172.066,25.918 172.302,26.226 C172.538,26.534 172.816,26.764 173.136,26.916 C173.456,27.068 173.804,27.144 174.18,27.144 Z M174.18,26.364 C173.692,26.364 173.306,26.17 173.022,25.782 C172.738,25.394 172.564,24.824 172.5,24.072 C172.74,23.712 173.004,23.454 173.292,23.298 C173.58,23.142 173.848,23.064 174.096,23.064 C174.576,23.064 174.932,23.208 175.164,23.496 C175.396,23.784 175.512,24.18 175.512,24.684 C175.512,24.94 175.478,25.17 175.41,25.374 C175.342,25.578 175.248,25.754 175.128,25.902 C175.008,26.05 174.868,26.164 174.708,26.244 C174.548,26.324 174.372,26.364 174.18,26.364 Z M180.516,27 C180.956,27 181.36,26.952 181.728,26.856 C182.096,26.76 182.412,26.616 182.676,26.424 C182.94,26.232 183.144,25.992 183.288,25.704 C183.432,25.416 183.504,25.08 183.504,24.696 C183.504,24.152 183.356,23.724 183.06,23.412 C182.764,23.1 182.376,22.9 181.896,22.812 L181.896,22.812 L181.896,22.764 C182.272,22.644 182.558,22.426 182.754,22.11 C182.95,21.794 183.048,21.44 183.048,21.048 C183.048,20.704 182.982,20.41 182.85,20.166 C182.718,19.922 182.534,19.724 182.298,19.572 C182.062,19.42 181.778,19.308 181.446,19.236 C181.114,19.164 180.748,19.128 180.348,19.128 L180.348,19.128 L178.008,19.128 L178.008,27 L180.516,27 Z M180.168,22.476 L179.004,22.476 L179.004,19.92 L180.216,19.92 C180.832,19.92 181.294,20.016 181.602,20.208 C181.91,20.4 182.064,20.724 182.064,21.18 C182.064,21.58 181.916,21.896 181.62,22.128 C181.324,22.36 180.84,22.476 180.168,22.476 L180.168,22.476 Z M180.372,26.208 L179.004,26.208 L179.004,23.244 L180.372,23.244 C181.068,23.244 181.6,23.358 181.968,23.586 C182.336,23.814 182.52,24.172 182.52,24.66 C182.52,25.188 182.332,25.578 181.956,25.83 C181.58,26.082 181.052,26.208 180.372,26.208 L180.372,26.208 Z" id="Unobligated$6B" fill="#555555" fill-rule="nonzero"></path>
                    <path d="M35,0 L29,0 C27.8954305,2.02906125e-16 27,0.8954305 27,2 L27,28 C27,29.1045695 27.8954305,30 29,30 L35,30 L35,30" id="Line-2" stroke="#C6C6C6" stroke-linecap="round"></path>
                    <line x1="26.5" y1="16.5" x2="0.5" y2="16.5" id="Line-4" stroke="#C6C6C6" stroke-linecap="round"></line>
                </g>
                <path d="M20.992,27.76 L20.992,26.096 C21.824,25.9146667 22.448,25.5493333 22.864,25 C23.28,24.4506667 23.488,23.792 23.488,23.024 C23.488,22.512 23.384,22.0826667 23.176,21.736 C22.968,21.3893333 22.7066667,21.0933333 22.392,20.848 C22.0773333,20.6026667 21.7386667,20.3946667 21.376,20.224 C21.0133333,20.0533333 20.6746667,19.888 20.36,19.728 C20.0453333,19.568 19.784,19.4 19.576,19.224 C19.368,19.048 19.264,18.832 19.264,18.576 C19.264,18.2133333 19.3653333,17.952 19.568,17.792 C19.7706667,17.632 20.064,17.552 20.448,17.552 C20.7893333,17.552 21.0933333,17.6186667 21.36,17.752 C21.6266667,17.8853333 21.904,18.0853333 22.192,18.352 L22.192,18.352 L23.376,17.008 C23.0666667,16.6773333 22.72,16.3946667 22.336,16.16 C21.952,15.9253333 21.504,15.7706667 20.992,15.696 L20.992,15.696 L20.992,14.08 L19.44,14.08 L19.44,15.728 C18.6826667,15.8773333 18.088,16.2106667 17.656,16.728 C17.224,17.2453333 17.008,17.8986667 17.008,18.688 C17.008,19.168 17.112,19.5733333 17.32,19.904 C17.528,20.2346667 17.7893333,20.5226667 18.104,20.768 C18.4186667,21.0133333 18.7573333,21.224 19.12,21.4 C19.4826667,21.576 19.8213333,21.752 20.136,21.928 C20.4506667,22.104 20.712,22.288 20.92,22.48 C21.128,22.672 21.232,22.9066667 21.232,23.184 C21.232,23.5573333 21.128,23.8346667 20.92,24.016 C20.712,24.1973333 20.384,24.288 19.936,24.288 C19.552,24.288 19.176,24.2106667 18.808,24.056 C18.44,23.9013333 18.0533333,23.6693333 17.648,23.36 L17.648,23.36 L16.624,24.944 C16.9973333,25.2853333 17.4426667,25.56 17.96,25.768 C18.4773333,25.976 18.9706667,26.1066667 19.44,26.16 L19.44,26.16 L19.44,27.76 L20.992,27.76 Z M32.032,26 L32.032,24.096 L30.128,24.096 L30.128,15.84 L28.4,15.84 C28.0373333,16.0533333 27.664,16.2346667 27.28,16.384 C26.896,16.5333333 26.4266667,16.6613333 25.872,16.768 L25.872,16.768 L25.872,18.224 L27.776,18.224 L27.776,24.096 L25.568,24.096 L25.568,26 L32.032,26 Z M39.792,26 L39.792,23.568 L40.96,23.568 L40.96,21.776 L39.792,21.776 L39.792,15.84 L36.912,15.84 L33.2,21.952 L33.2,23.568 L37.6,23.568 L37.6,26 L39.792,26 Z M37.6,21.776 L35.456,21.776 L36.8,19.568 C36.9493333,19.28 37.0933333,18.992 37.232,18.704 C37.3706667,18.416 37.504,18.1333333 37.632,17.856 L37.632,17.856 L37.696,17.856 C37.6746667,18.176 37.6533333,18.552 37.632,18.984 C37.6106667,19.416 37.6,19.7973333 37.6,20.128 L37.6,20.128 L37.6,21.776 Z M46.448,26 C47.0133333,26 47.5413333,25.9386667 48.032,25.816 C48.5226667,25.6933333 48.952,25.5066667 49.32,25.256 C49.688,25.0053333 49.976,24.688 50.184,24.304 C50.392,23.92 50.496,23.4613333 50.496,22.928 C50.496,22.576 50.448,22.264 50.352,21.992 C50.256,21.72 50.1226667,21.4826667 49.952,21.28 C49.7813333,21.0773333 49.584,20.9093333 49.36,20.776 C49.136,20.6426667 48.8906667,20.544 48.624,20.48 L48.624,20.48 L48.624,20.416 C48.8373333,20.3413333 49.0266667,20.224 49.192,20.064 C49.3573333,19.904 49.4986667,19.7226667 49.616,19.52 C49.7333333,19.3173333 49.824,19.0986667 49.888,18.864 C49.952,18.6293333 49.984,18.3946667 49.984,18.16 C49.984,17.6586667 49.8853333,17.2426667 49.688,16.912 C49.4906667,16.5813333 49.2186667,16.3146667 48.872,16.112 C48.5253333,15.9093333 48.12,15.768 47.656,15.688 C47.192,15.608 46.688,15.568 46.144,15.568 L46.144,15.568 L42.576,15.568 L42.576,26 L46.448,26 Z M46.032,19.744 L44.928,19.744 L44.928,17.392 L46.048,17.392 C46.6026667,17.392 47.0133333,17.4773333 47.28,17.648 C47.5466667,17.8186667 47.68,18.1066667 47.68,18.512 C47.68,18.8853333 47.5493333,19.184 47.288,19.408 C47.0266667,19.632 46.608,19.744 46.032,19.744 L46.032,19.744 Z M46.256,24.176 L44.928,24.176 L44.928,21.488 L46.256,21.488 C46.9066667,21.488 47.392,21.5866667 47.712,21.784 C48.032,21.9813333 48.192,22.3093333 48.192,22.768 C48.192,23.7066667 47.5466667,24.176 46.256,24.176 L46.256,24.176 Z" id="$14B" fill="#555555" fill-rule="nonzero"></path>
            </g>
        </g>
    </g>
</svg>