<?xml version="1.0" encoding="UTF-8"?>
<svg width="324px" height="75px" viewBox="0 0 324 75" version="1.1" xmlns="http://www.w3.org/2000/svg" xmlns:xlink="http://www.w3.org/1999/xlink">
    <title>05. phase 3 general</title>
    <g id="Viz-3-(v2)" stroke="none" stroke-width="1" fill="none" fill-rule="evenodd">
        <g id="Viz-3---SVG-Export-Mobile" transform="translate(-37.000000, -1144.000000)">
            <g id="Group-3" transform="translate(15.000000, 128.000000)">
                <g id="05.-phase-3-general" transform="translate(22.000000, 1016.000000)">
                    <text id="Outlays-$790B" font-family="SourceSansPro-SemiBold, Source Sans Pro" font-size="12" font-weight="500" fill="#666666">
                        <tspan x="0" y="57">Outlays</tspan>
                        <tspan x="39.648" y="57" font-family="SourceSansPro-Regular, Source Sans Pro" font-weight="normal"></tspan>
                        <tspan x="0" y="72" font-family="SourceSansPro-Regular, Source Sans Pro" font-weight="normal">$790B</tspan>
                    </text>
                    <text id="Obligations-$895B" font-family="SourceSansPro-SemiBold, Source Sans Pro" font-size="12" font-weight="500" fill="#666666">
                        <tspan x="120" y="57">Obligations</tspan>
                        <tspan x="179.22" y="57" font-family="SourceSansPro-Regular, Source Sans Pro" font-weight="normal"></tspan>
                        <tspan x="120" y="72" font-family="SourceSansPro-Regular, Source Sans Pro" font-weight="normal">$895B</tspan>
                    </text>
                    <text id="Unobligated-$281B" font-family="SourceSansPro-SemiBold, Source Sans Pro" font-size="12" font-weight="500" fill="#666666">
                        <tspan x="260" y="57">Unobligated</tspan>
                        <tspan x="260" y="72" font-family="SourceSansPro-Regular, Source Sans Pro" font-weight="normal">$281B</tspan>
                    </text>
                    <line x1="10.5" y1="30" x2="10.5" y2="45" id="Line" stroke="#C6C6C6"></line>
                    <path d="M145,30 L145,33 C145,34.1045695 144.104569,35 143,35 L90,35 C88.8954305,35 88,35.8954305 88,37 L88,45 L88,45" id="Line-Copy-7" stroke="#C6C6C6" stroke-linecap="round" transform="translate(116.500000, 37.500000) scale(1, -1) translate(-116.500000, -37.500000) "></path>
                    <path d="M288,30 L288,32 C288,33.1045695 287.104569,34 286,34 L110,34 C108.895431,34 108,34.8954305 108,36 L108,45 L108,45" id="Line-Copy-11" stroke="#C6C6C6" stroke-linecap="round" transform="translate(198.000000, 37.500000) scale(-1, 1) translate(-198.000000, -37.500000) "></path>
                    <rect id="unobligated" fill="#F3E9FF" x="94" y="0" width="29" height="30"></rect>
                    <rect id="obligated" fill="#6F41A7" x="83" y="0" width="11" height="30"></rect>
                    <rect id="outlays" fill="#331E4D" x="0" y="0" width="83" height="30"></rect>
                    <text id="$1.18T" font-family="SourceSansPro-Bold, Source Sans Pro" font-size="14" font-weight="bold" fill="#555555">
                        <tspan x="133" y="20">$1.18T</tspan>
                    </text>
                </g>
            </g>
        </g>
    </g>
</svg>