<?xml version="1.0" encoding="UTF-8"?>
<svg width="318px" height="40px" viewBox="0 0 318 40" version="1.1" xmlns="http://www.w3.org/2000/svg" xmlns:xlink="http://www.w3.org/1999/xlink">
    <title>law 2</title>
    <g id="SVG-2.0" stroke="none" stroke-width="1" fill="none" fill-rule="evenodd">
        <g id="viz-3-mobile-outline" transform="translate(-36.000000, -909.000000)">
            <g id="law-2" transform="translate(36.000000, 909.000000)">
                <rect id="unobligated" fill="#F3E9FF" x="4" y="0" width="4" height="40"></rect>
                <rect id="obligated" fill="#6F41A7" x="0" y="0" width="4" height="40"></rect>
                <g id="labels" transform="translate(60.000000, 4.000000)">
                    <path d="M59.044,12.144 C59.556,12.144 60.024,12.05 60.448,11.862 C60.872,11.674 61.238,11.402 61.546,11.046 C61.854,10.69 62.092,10.26 62.26,9.756 C62.428,9.252 62.512,8.68 62.512,8.04 C62.512,7.408 62.428,6.842 62.26,6.342 C62.092,5.842 61.854,5.42 61.546,5.076 C61.238,4.732 60.872,4.468 60.448,4.284 C60.024,4.1 59.556,4.008 59.044,4.008 C58.532,4.008 58.064,4.1 57.64,4.284 C57.216,4.468 56.852,4.732 56.548,5.076 C56.244,5.42 56.008,5.842 55.84,6.342 C55.672,6.842 55.588,7.408 55.588,8.04 C55.588,8.68 55.672,9.252 55.84,9.756 C56.008,10.26 56.244,10.69 56.548,11.046 C56.852,11.402 57.216,11.674 57.64,11.862 C58.064,12.05 58.532,12.144 59.044,12.144 Z M59.044,10.932 C58.732,10.932 58.452,10.864 58.204,10.728 C57.956,10.592 57.744,10.398 57.568,10.146 C57.392,9.894 57.256,9.59 57.16,9.234 C57.064,8.878 57.016,8.48 57.016,8.04 C57.016,7.16 57.198,6.47 57.562,5.97 C57.926,5.47 58.42,5.22 59.044,5.22 C59.668,5.22 60.162,5.47 60.526,5.97 C60.89,6.47 61.072,7.16 61.072,8.04 C61.072,8.48 61.024,8.878 60.928,9.234 C60.832,9.59 60.696,9.894 60.52,10.146 C60.344,10.398 60.132,10.592 59.884,10.728 C59.636,10.864 59.356,10.932 59.044,10.932 Z M65.716,12.144 C66.124,12.144 66.478,12.052 66.778,11.868 C67.078,11.684 67.356,11.44 67.612,11.136 L67.612,11.136 L67.648,11.136 L67.756,12 L68.884,12 L68.884,6.108 L67.504,6.108 L67.504,10.14 C67.28,10.428 67.07,10.636 66.874,10.764 C66.678,10.892 66.452,10.956 66.196,10.956 C65.876,10.956 65.644,10.856 65.5,10.656 C65.356,10.456 65.284,10.112 65.284,9.624 L65.284,9.624 L65.284,6.108 L63.904,6.108 L63.904,9.804 C63.904,10.556 64.048,11.134 64.336,11.538 C64.624,11.942 65.084,12.144 65.716,12.144 Z M72.712,12.144 C72.944,12.144 73.162,12.122 73.366,12.078 C73.57,12.034 73.752,11.984 73.912,11.928 L73.912,11.928 L73.672,10.908 C73.584,10.948 73.486,10.98 73.378,11.004 C73.27,11.028 73.164,11.04 73.06,11.04 C72.508,11.04 72.232,10.696 72.232,10.008 L72.232,10.008 L72.232,7.2 L73.732,7.2 L73.732,6.108 L72.232,6.108 L72.232,4.5 L71.08,4.5 L70.912,6.108 L70,6.168 L70,7.2 L70.84,7.2 L70.84,10.008 C70.84,10.328 70.874,10.618 70.942,10.878 C71.01,11.138 71.118,11.362 71.266,11.55 C71.414,11.738 71.606,11.884 71.842,11.988 C72.078,12.092 72.368,12.144 72.712,12.144 Z M76.312,12.144 C76.616,12.144 76.86,12.104 77.044,12.024 L77.044,12.024 L76.864,10.992 C76.808,11.008 76.766,11.016 76.738,11.016 L76.738,11.016 L76.648,11.016 C76.576,11.016 76.508,10.982 76.444,10.914 C76.38,10.846 76.348,10.728 76.348,10.56 L76.348,10.56 L76.348,3.528 L74.968,3.528 L74.968,10.488 C74.968,11 75.068,11.404 75.268,11.7 C75.468,11.996 75.816,12.144 76.312,12.144 Z M79.648,12.144 C80,12.144 80.326,12.068 80.626,11.916 C80.926,11.764 81.208,11.576 81.472,11.352 L81.472,11.352 L81.52,11.352 L81.616,12 L82.756,12 L82.756,8.508 C82.756,7.684 82.574,7.054 82.21,6.618 C81.846,6.182 81.296,5.964 80.56,5.964 C80.088,5.964 79.648,6.04 79.24,6.192 C78.832,6.344 78.464,6.524 78.136,6.732 L78.136,6.732 L78.64,7.656 C78.904,7.496 79.174,7.36 79.45,7.248 C79.726,7.136 80.008,7.08 80.296,7.08 C80.496,7.08 80.664,7.11 80.8,7.17 C80.936,7.23 81.046,7.314 81.13,7.422 C81.214,7.53 81.274,7.654 81.31,7.794 C81.346,7.934 81.368,8.08 81.376,8.232 C80.768,8.296 80.246,8.388 79.81,8.508 C79.374,8.628 79.014,8.776 78.73,8.952 C78.446,9.128 78.238,9.338 78.106,9.582 C77.974,9.826 77.908,10.104 77.908,10.416 C77.908,10.936 78.068,11.354 78.388,11.67 C78.708,11.986 79.128,12.144 79.648,12.144 Z M80.092,11.064 C79.844,11.064 79.64,11.004 79.48,10.884 C79.32,10.764 79.24,10.572 79.24,10.308 C79.24,10.164 79.276,10.028 79.348,9.9 C79.42,9.772 79.54,9.658 79.708,9.558 C79.876,9.458 80.096,9.368 80.368,9.288 C80.64,9.208 80.976,9.144 81.376,9.096 L81.376,9.096 L81.376,10.416 C81.152,10.624 80.942,10.784 80.746,10.896 C80.55,11.008 80.332,11.064 80.092,11.064 Z M84.808,14.424 C85.128,14.424 85.41,14.374 85.654,14.274 C85.898,14.174 86.114,14.03 86.302,13.842 C86.49,13.654 86.656,13.428 86.8,13.164 C86.944,12.9 87.076,12.6 87.196,12.264 L87.196,12.264 L89.332,6.108 L88,6.108 L87.112,9 C87.04,9.264 86.966,9.538 86.89,9.822 C86.814,10.106 86.74,10.384 86.668,10.656 L86.668,10.656 L86.62,10.656 C86.532,10.376 86.446,10.094 86.362,9.81 C86.278,9.526 86.192,9.256 86.104,9 L86.104,9 L85.084,6.108 L83.68,6.108 L85.996,11.928 L85.888,12.3 C85.792,12.596 85.65,12.838 85.462,13.026 C85.274,13.214 85.024,13.308 84.712,13.308 C84.64,13.308 84.566,13.298 84.49,13.278 C84.414,13.258 84.348,13.24 84.292,13.224 L84.292,13.224 L84.04,14.304 C84.152,14.344 84.268,14.374 84.388,14.394 C84.508,14.414 84.648,14.424 84.808,14.424 Z M91.996,12.144 C92.364,12.144 92.692,12.096 92.98,12 C93.268,11.904 93.508,11.774 93.7,11.61 C93.892,11.446 94.038,11.254 94.138,11.034 C94.238,10.814 94.288,10.576 94.288,10.32 C94.288,10.048 94.238,9.814 94.138,9.618 C94.038,9.422 93.906,9.256 93.742,9.12 C93.578,8.984 93.396,8.87 93.196,8.778 C92.996,8.686 92.796,8.604 92.596,8.532 C92.436,8.476 92.282,8.42 92.134,8.364 C91.986,8.308 91.856,8.248 91.744,8.184 C91.632,8.12 91.542,8.046 91.474,7.962 C91.406,7.878 91.372,7.776 91.372,7.656 C91.372,7.472 91.442,7.318 91.582,7.194 C91.722,7.07 91.94,7.008 92.236,7.008 C92.468,7.008 92.69,7.054 92.902,7.146 C93.114,7.238 93.324,7.36 93.532,7.512 L93.532,7.512 L94.168,6.672 C93.928,6.488 93.644,6.324 93.316,6.18 C92.988,6.036 92.62,5.964 92.212,5.964 C91.548,5.964 91.024,6.128 90.64,6.456 C90.256,6.784 90.064,7.208 90.064,7.728 C90.064,7.976 90.114,8.19 90.214,8.37 C90.314,8.55 90.442,8.708 90.598,8.844 C90.754,8.98 90.932,9.096 91.132,9.192 C91.332,9.288 91.528,9.372 91.72,9.444 C91.872,9.508 92.024,9.57 92.176,9.63 C92.328,9.69 92.464,9.756 92.584,9.828 C92.704,9.9 92.8,9.982 92.872,10.074 C92.944,10.166 92.98,10.272 92.98,10.392 C92.98,10.6 92.904,10.77 92.752,10.902 C92.6,11.034 92.364,11.1 92.044,11.1 C91.74,11.1 91.458,11.042 91.198,10.926 C90.938,10.81 90.676,10.648 90.412,10.44 L90.412,10.44 L89.764,11.328 C90.052,11.56 90.394,11.754 90.79,11.91 C91.186,12.066 91.588,12.144 91.996,12.144 Z M58.384,28.32 L58.384,27.108 C58.96,27.028 59.414,26.804 59.746,26.436 C60.078,26.068 60.244,25.596 60.244,25.02 C60.244,24.588 60.162,24.234 59.998,23.958 C59.834,23.682 59.628,23.45 59.38,23.262 C59.132,23.074 58.862,22.914 58.57,22.782 C58.278,22.65 58.008,22.514 57.76,22.374 C57.512,22.234 57.306,22.072 57.142,21.888 C56.978,21.704 56.896,21.468 56.896,21.18 C56.896,20.828 57.004,20.548 57.22,20.34 C57.436,20.132 57.728,20.028 58.096,20.028 C58.424,20.028 58.694,20.088 58.906,20.208 C59.118,20.328 59.336,20.496 59.56,20.712 L59.56,20.712 L60.088,20.124 C59.872,19.892 59.63,19.692 59.362,19.524 C59.094,19.356 58.768,19.252 58.384,19.212 L58.384,19.212 L58.384,18.024 L57.664,18.024 L57.664,19.236 C57.136,19.316 56.714,19.534 56.398,19.89 C56.082,20.246 55.924,20.692 55.924,21.228 C55.924,21.62 56.006,21.942 56.17,22.194 C56.334,22.446 56.54,22.66 56.788,22.836 C57.036,23.012 57.306,23.168 57.598,23.304 C57.89,23.44 58.16,23.586 58.408,23.742 C58.656,23.898 58.862,24.082 59.026,24.294 C59.19,24.506 59.272,24.772 59.272,25.092 C59.272,25.468 59.162,25.768 58.942,25.992 C58.722,26.216 58.388,26.328 57.94,26.328 C57.572,26.328 57.234,26.25 56.926,26.094 C56.618,25.938 56.336,25.748 56.08,25.524 L56.08,25.524 L55.624,26.208 C55.88,26.44 56.188,26.642 56.548,26.814 C56.908,26.986 57.28,27.092 57.664,27.132 L57.664,27.132 L57.664,28.32 L58.384,28.32 Z M64.18,27.144 C64.492,27.144 64.784,27.084 65.056,26.964 C65.328,26.844 65.568,26.676 65.776,26.46 C65.984,26.244 66.148,25.986 66.268,25.686 C66.388,25.386 66.448,25.052 66.448,24.684 C66.448,23.892 66.25,23.3 65.854,22.908 C65.458,22.516 64.928,22.32 64.264,22.32 C63.952,22.32 63.636,22.406 63.316,22.578 C62.996,22.75 62.716,22.984 62.476,23.28 C62.484,22.672 62.544,22.162 62.656,21.75 C62.768,21.338 62.916,21.004 63.1,20.748 C63.284,20.492 63.496,20.308 63.736,20.196 C63.976,20.084 64.228,20.028 64.492,20.028 C64.732,20.028 64.962,20.082 65.182,20.19 C65.402,20.298 65.592,20.444 65.752,20.628 L65.752,20.628 L66.304,20.016 C66.088,19.784 65.83,19.59 65.53,19.434 C65.23,19.278 64.872,19.2 64.456,19.2 C64.072,19.2 63.706,19.278 63.358,19.434 C63.01,19.59 62.7,19.838 62.428,20.178 C62.156,20.518 61.94,20.958 61.78,21.498 C61.62,22.038 61.54,22.692 61.54,23.46 C61.54,24.076 61.608,24.614 61.744,25.074 C61.88,25.534 62.066,25.918 62.302,26.226 C62.538,26.534 62.816,26.764 63.136,26.916 C63.456,27.068 63.804,27.144 64.18,27.144 Z M64.18,26.364 C63.692,26.364 63.306,26.17 63.022,25.782 C62.738,25.394 62.564,24.824 62.5,24.072 C62.74,23.712 63.004,23.454 63.292,23.298 C63.58,23.142 63.848,23.064 64.096,23.064 C64.576,23.064 64.932,23.208 65.164,23.496 C65.396,23.784 65.512,24.18 65.512,24.684 C65.512,24.94 65.478,25.17 65.41,25.374 C65.342,25.578 65.248,25.754 65.128,25.902 C65.008,26.05 64.868,26.164 64.708,26.244 C64.548,26.324 64.372,26.364 64.18,26.364 Z M70.516,27 C70.956,27 71.36,26.952 71.728,26.856 C72.096,26.76 72.412,26.616 72.676,26.424 C72.94,26.232 73.144,25.992 73.288,25.704 C73.432,25.416 73.504,25.08 73.504,24.696 C73.504,24.152 73.356,23.724 73.06,23.412 C72.764,23.1 72.376,22.9 71.896,22.812 L71.896,22.812 L71.896,22.764 C72.272,22.644 72.558,22.426 72.754,22.11 C72.95,21.794 73.048,21.44 73.048,21.048 C73.048,20.704 72.982,20.41 72.85,20.166 C72.718,19.922 72.534,19.724 72.298,19.572 C72.062,19.42 71.778,19.308 71.446,19.236 C71.114,19.164 70.748,19.128 70.348,19.128 L70.348,19.128 L68.008,19.128 L68.008,27 L70.516,27 Z M70.168,22.476 L69.004,22.476 L69.004,19.92 L70.216,19.92 C70.832,19.92 71.294,20.016 71.602,20.208 C71.91,20.4 72.064,20.724 72.064,21.18 C72.064,21.58 71.916,21.896 71.62,22.128 C71.324,22.36 70.84,22.476 70.168,22.476 L70.168,22.476 Z M70.372,26.208 L69.004,26.208 L69.004,23.244 L70.372,23.244 C71.068,23.244 71.6,23.358 71.968,23.586 C72.336,23.814 72.52,24.172 72.52,24.66 C72.52,25.188 72.332,25.578 71.956,25.83 C71.58,26.082 71.052,26.208 70.372,26.208 L70.372,26.208 Z" id="Outlays$6B" fill="#555555" fill-rule="nonzero"></path>
                    <path d="M119.044,12.144 C119.556,12.144 120.024,12.05 120.448,11.862 C120.872,11.674 121.238,11.402 121.546,11.046 C121.854,10.69 122.092,10.26 122.26,9.756 C122.428,9.252 122.512,8.68 122.512,8.04 C122.512,7.408 122.428,6.842 122.26,6.342 C122.092,5.842 121.854,5.42 121.546,5.076 C121.238,4.732 120.872,4.468 120.448,4.284 C120.024,4.1 119.556,4.008 119.044,4.008 C118.532,4.008 118.064,4.1 117.64,4.284 C117.216,4.468 116.852,4.732 116.548,5.076 C116.244,5.42 116.008,5.842 115.84,6.342 C115.672,6.842 115.588,7.408 115.588,8.04 C115.588,8.68 115.672,9.252 115.84,9.756 C116.008,10.26 116.244,10.69 116.548,11.046 C116.852,11.402 117.216,11.674 117.64,11.862 C118.064,12.05 118.532,12.144 119.044,12.144 Z M119.044,10.932 C118.732,10.932 118.452,10.864 118.204,10.728 C117.956,10.592 117.744,10.398 117.568,10.146 C117.392,9.894 117.256,9.59 117.16,9.234 C117.064,8.878 117.016,8.48 117.016,8.04 C117.016,7.16 117.198,6.47 117.562,5.97 C117.926,5.47 118.42,5.22 119.044,5.22 C119.668,5.22 120.162,5.47 120.526,5.97 C120.89,6.47 121.072,7.16 121.072,8.04 C121.072,8.48 121.024,8.878 120.928,9.234 C120.832,9.59 120.696,9.894 120.52,10.146 C120.344,10.398 120.132,10.592 119.884,10.728 C119.636,10.864 119.356,10.932 119.044,10.932 Z M126.82,12.144 C127.148,12.144 127.464,12.072 127.768,11.928 C128.072,11.784 128.34,11.576 128.572,11.304 C128.804,11.032 128.99,10.698 129.13,10.302 C129.27,9.906 129.34,9.456 129.34,8.952 C129.34,8.496 129.288,8.084 129.184,7.716 C129.08,7.348 128.928,7.034 128.728,6.774 C128.528,6.514 128.284,6.314 127.996,6.174 C127.708,6.034 127.38,5.964 127.012,5.964 C126.708,5.964 126.41,6.032 126.118,6.168 C125.826,6.304 125.556,6.48 125.308,6.696 L125.308,6.696 L125.344,5.712 L125.344,3.528 L123.964,3.528 L123.964,12 L125.056,12 L125.176,11.376 L125.212,11.376 C125.46,11.624 125.722,11.814 125.998,11.946 C126.274,12.078 126.548,12.144 126.82,12.144 Z M126.532,11.004 C126.356,11.004 126.166,10.968 125.962,10.896 C125.758,10.824 125.552,10.696 125.344,10.512 L125.344,10.512 L125.344,7.764 C125.792,7.324 126.224,7.104 126.64,7.104 C127.088,7.104 127.412,7.268 127.612,7.596 C127.812,7.924 127.912,8.384 127.912,8.976 C127.912,9.648 127.78,10.154 127.516,10.494 C127.252,10.834 126.924,11.004 126.532,11.004 Z M132.064,12.144 C132.368,12.144 132.612,12.104 132.796,12.024 L132.796,12.024 L132.616,10.992 C132.56,11.008 132.518,11.016 132.49,11.016 L132.49,11.016 L132.4,11.016 C132.328,11.016 132.26,10.982 132.196,10.914 C132.132,10.846 132.1,10.728 132.1,10.56 L132.1,10.56 L132.1,3.528 L130.72,3.528 L130.72,10.488 C130.72,11 130.82,11.404 131.02,11.7 C131.22,11.996 131.568,12.144 132.064,12.144 Z M134.668,5.076 C134.916,5.076 135.12,5.004 135.28,4.86 C135.44,4.716 135.52,4.528 135.52,4.296 C135.52,4.064 135.44,3.874 135.28,3.726 C135.12,3.578 134.916,3.504 134.668,3.504 C134.42,3.504 134.216,3.578 134.056,3.726 C133.896,3.874 133.816,4.064 133.816,4.296 C133.816,4.528 133.896,4.716 134.056,4.86 C134.216,5.004 134.42,5.076 134.668,5.076 Z M135.352,12 L135.352,6.108 L133.972,6.108 L133.972,12 L135.352,12 Z M139.168,14.604 C139.648,14.604 140.082,14.55 140.47,14.442 C140.858,14.334 141.188,14.188 141.46,14.004 C141.732,13.82 141.942,13.6 142.09,13.344 C142.238,13.088 142.312,12.816 142.312,12.528 C142.312,12.016 142.13,11.646 141.766,11.418 C141.402,11.19 140.864,11.076 140.152,11.076 L140.152,11.076 L139.108,11.076 C138.748,11.076 138.498,11.028 138.358,10.932 C138.218,10.836 138.148,10.704 138.148,10.536 C138.148,10.4 138.174,10.292 138.226,10.212 C138.278,10.132 138.348,10.052 138.436,9.972 C138.572,10.028 138.708,10.068 138.844,10.092 C138.98,10.116 139.112,10.128 139.24,10.128 C139.552,10.128 139.844,10.084 140.116,9.996 C140.388,9.908 140.624,9.78 140.824,9.612 C141.024,9.444 141.182,9.236 141.298,8.988 C141.414,8.74 141.472,8.452 141.472,8.124 C141.472,7.916 141.44,7.726 141.376,7.554 C141.312,7.382 141.232,7.24 141.136,7.128 L141.136,7.128 L142.216,7.128 L142.216,6.108 L140.104,6.108 C139.984,6.068 139.85,6.034 139.702,6.006 C139.554,5.978 139.4,5.964 139.24,5.964 C138.928,5.964 138.632,6.01 138.352,6.102 C138.072,6.194 137.826,6.33 137.614,6.51 C137.402,6.69 137.232,6.912 137.104,7.176 C136.976,7.44 136.912,7.74 136.912,8.076 C136.912,8.428 136.99,8.738 137.146,9.006 C137.302,9.274 137.48,9.484 137.68,9.636 L137.68,9.636 L137.68,9.684 C137.512,9.804 137.362,9.958 137.23,10.146 C137.098,10.334 137.032,10.544 137.032,10.776 C137.032,11.016 137.082,11.216 137.182,11.376 C137.282,11.536 137.408,11.664 137.56,11.76 L137.56,11.76 L137.56,11.808 C137.288,11.976 137.08,12.166 136.936,12.378 C136.792,12.59 136.72,12.82 136.72,13.068 C136.72,13.324 136.782,13.548 136.906,13.74 C137.03,13.932 137.2,14.092 137.416,14.22 C137.632,14.348 137.89,14.444 138.19,14.508 C138.49,14.572 138.816,14.604 139.168,14.604 Z M139.24,9.264 C138.952,9.264 138.708,9.162 138.508,8.958 C138.308,8.754 138.208,8.46 138.208,8.076 C138.208,7.7 138.308,7.412 138.508,7.212 C138.708,7.012 138.952,6.912 139.24,6.912 C139.528,6.912 139.77,7.014 139.966,7.218 C140.162,7.422 140.26,7.708 140.26,8.076 C140.26,8.46 140.16,8.754 139.96,8.958 C139.76,9.162 139.52,9.264 139.24,9.264 Z M139.384,13.704 C138.912,13.704 138.542,13.63 138.274,13.482 C138.006,13.334 137.872,13.128 137.872,12.864 C137.872,12.576 138.024,12.316 138.328,12.084 C138.544,12.14 138.812,12.168 139.132,12.168 L139.132,12.168 L139.936,12.168 C140.272,12.168 140.53,12.208 140.71,12.288 C140.89,12.368 140.98,12.524 140.98,12.756 C140.98,13.012 140.834,13.234 140.542,13.422 C140.25,13.61 139.864,13.704 139.384,13.704 Z M144.568,12.144 C144.92,12.144 145.246,12.068 145.546,11.916 C145.846,11.764 146.128,11.576 146.392,11.352 L146.392,11.352 L146.44,11.352 L146.536,12 L147.676,12 L147.676,8.508 C147.676,7.684 147.494,7.054 147.13,6.618 C146.766,6.182 146.216,5.964 145.48,5.964 C145.008,5.964 144.568,6.04 144.16,6.192 C143.752,6.344 143.384,6.524 143.056,6.732 L143.056,6.732 L143.56,7.656 C143.824,7.496 144.094,7.36 144.37,7.248 C144.646,7.136 144.928,7.08 145.216,7.08 C145.416,7.08 145.584,7.11 145.72,7.17 C145.856,7.23 145.966,7.314 146.05,7.422 C146.134,7.53 146.194,7.654 146.23,7.794 C146.266,7.934 146.288,8.08 146.296,8.232 C145.688,8.296 145.166,8.388 144.73,8.508 C144.294,8.628 143.934,8.776 143.65,8.952 C143.366,9.128 143.158,9.338 143.026,9.582 C142.894,9.826 142.828,10.104 142.828,10.416 C142.828,10.936 142.988,11.354 143.308,11.67 C143.628,11.986 144.048,12.144 144.568,12.144 Z M145.012,11.064 C144.764,11.064 144.56,11.004 144.4,10.884 C144.24,10.764 144.16,10.572 144.16,10.308 C144.16,10.164 144.196,10.028 144.268,9.9 C144.34,9.772 144.46,9.658 144.628,9.558 C144.796,9.458 145.016,9.368 145.288,9.288 C145.56,9.208 145.896,9.144 146.296,9.096 L146.296,9.096 L146.296,10.416 C146.072,10.624 145.862,10.784 145.666,10.896 C145.47,11.008 145.252,11.064 145.012,11.064 Z M151.216,12.144 C151.448,12.144 151.666,12.122 151.87,12.078 C152.074,12.034 152.256,11.984 152.416,11.928 L152.416,11.928 L152.176,10.908 C152.088,10.948 151.99,10.98 151.882,11.004 C151.774,11.028 151.668,11.04 151.564,11.04 C151.012,11.04 150.736,10.696 150.736,10.008 L150.736,10.008 L150.736,7.2 L152.236,7.2 L152.236,6.108 L150.736,6.108 L150.736,4.5 L149.584,4.5 L149.416,6.108 L148.504,6.168 L148.504,7.2 L149.344,7.2 L149.344,10.008 C149.344,10.328 149.378,10.618 149.446,10.878 C149.514,11.138 149.622,11.362 149.77,11.55 C149.918,11.738 150.11,11.884 150.346,11.988 C150.582,12.092 150.872,12.144 151.216,12.144 Z M154.168,5.076 C154.416,5.076 154.62,5.004 154.78,4.86 C154.94,4.716 155.02,4.528 155.02,4.296 C155.02,4.064 154.94,3.874 154.78,3.726 C154.62,3.578 154.416,3.504 154.168,3.504 C153.92,3.504 153.716,3.578 153.556,3.726 C153.396,3.874 153.316,4.064 153.316,4.296 C153.316,4.528 153.396,4.716 153.556,4.86 C153.716,5.004 153.92,5.076 154.168,5.076 Z M154.852,12 L154.852,6.108 L153.472,6.108 L153.472,12 L154.852,12 Z M159.028,12.144 C159.396,12.144 159.75,12.076 160.09,11.94 C160.43,11.804 160.728,11.604 160.984,11.34 C161.24,11.076 161.446,10.752 161.602,10.368 C161.758,9.984 161.836,9.548 161.836,9.06 C161.836,8.572 161.758,8.136 161.602,7.752 C161.446,7.368 161.24,7.044 160.984,6.78 C160.728,6.516 160.43,6.314 160.09,6.174 C159.75,6.034 159.396,5.964 159.028,5.964 C158.66,5.964 158.308,6.034 157.972,6.174 C157.636,6.314 157.338,6.516 157.078,6.78 C156.818,7.044 156.612,7.368 156.46,7.752 C156.308,8.136 156.232,8.572 156.232,9.06 C156.232,9.548 156.308,9.984 156.46,10.368 C156.612,10.752 156.818,11.076 157.078,11.34 C157.338,11.604 157.636,11.804 157.972,11.94 C158.308,12.076 158.66,12.144 159.028,12.144 Z M159.028,11.016 C158.596,11.016 158.258,10.838 158.014,10.482 C157.77,10.126 157.648,9.652 157.648,9.06 C157.648,8.46 157.77,7.982 158.014,7.626 C158.258,7.27 158.596,7.092 159.028,7.092 C159.46,7.092 159.8,7.27 160.048,7.626 C160.296,7.982 160.42,8.46 160.42,9.06 C160.42,9.652 160.296,10.126 160.048,10.482 C159.8,10.838 159.46,11.016 159.028,11.016 Z M164.584,12 L164.584,7.884 C164.832,7.644 165.054,7.462 165.25,7.338 C165.446,7.214 165.672,7.152 165.928,7.152 C166.256,7.152 166.492,7.252 166.636,7.452 C166.78,7.652 166.852,7.996 166.852,8.484 L166.852,8.484 L166.852,12 L168.232,12 L168.232,8.304 C168.232,7.552 168.088,6.974 167.8,6.57 C167.512,6.166 167.052,5.964 166.42,5.964 C166.012,5.964 165.654,6.056 165.346,6.24 C165.038,6.424 164.752,6.644 164.488,6.9 L164.488,6.9 L164.44,6.9 L164.344,6.108 L163.204,6.108 L163.204,12 L164.584,12 Z M171.568,12.144 C171.936,12.144 172.264,12.096 172.552,12 C172.84,11.904 173.08,11.774 173.272,11.61 C173.464,11.446 173.61,11.254 173.71,11.034 C173.81,10.814 173.86,10.576 173.86,10.32 C173.86,10.048 173.81,9.814 173.71,9.618 C173.61,9.422 173.478,9.256 173.314,9.12 C173.15,8.984 172.968,8.87 172.768,8.778 C172.568,8.686 172.368,8.604 172.168,8.532 C172.008,8.476 171.854,8.42 171.706,8.364 C171.558,8.308 171.428,8.248 171.316,8.184 C171.204,8.12 171.114,8.046 171.046,7.962 C170.978,7.878 170.944,7.776 170.944,7.656 C170.944,7.472 171.014,7.318 171.154,7.194 C171.294,7.07 171.512,7.008 171.808,7.008 C172.04,7.008 172.262,7.054 172.474,7.146 C172.686,7.238 172.896,7.36 173.104,7.512 L173.104,7.512 L173.74,6.672 C173.5,6.488 173.216,6.324 172.888,6.18 C172.56,6.036 172.192,5.964 171.784,5.964 C171.12,5.964 170.596,6.128 170.212,6.456 C169.828,6.784 169.636,7.208 169.636,7.728 C169.636,7.976 169.686,8.19 169.786,8.37 C169.886,8.55 170.014,8.708 170.17,8.844 C170.326,8.98 170.504,9.096 170.704,9.192 C170.904,9.288 171.1,9.372 171.292,9.444 C171.444,9.508 171.596,9.57 171.748,9.63 C171.9,9.69 172.036,9.756 172.156,9.828 C172.276,9.9 172.372,9.982 172.444,10.074 C172.516,10.166 172.552,10.272 172.552,10.392 C172.552,10.6 172.476,10.77 172.324,10.902 C172.172,11.034 171.936,11.1 171.616,11.1 C171.312,11.1 171.03,11.042 170.77,10.926 C170.51,10.81 170.248,10.648 169.984,10.44 L169.984,10.44 L169.336,11.328 C169.624,11.56 169.966,11.754 170.362,11.91 C170.758,12.066 171.16,12.144 171.568,12.144 Z M118.384,28.32 L118.384,27.108 C118.96,27.028 119.414,26.804 119.746,26.436 C120.078,26.068 120.244,25.596 120.244,25.02 C120.244,24.588 120.162,24.234 119.998,23.958 C119.834,23.682 119.628,23.45 119.38,23.262 C119.132,23.074 118.862,22.914 118.57,22.782 C118.278,22.65 118.008,22.514 117.76,22.374 C117.512,22.234 117.306,22.072 117.142,21.888 C116.978,21.704 116.896,21.468 116.896,21.18 C116.896,20.828 117.004,20.548 117.22,20.34 C117.436,20.132 117.728,20.028 118.096,20.028 C118.424,20.028 118.694,20.088 118.906,20.208 C119.118,20.328 119.336,20.496 119.56,20.712 L119.56,20.712 L120.088,20.124 C119.872,19.892 119.63,19.692 119.362,19.524 C119.094,19.356 118.768,19.252 118.384,19.212 L118.384,19.212 L118.384,18.024 L117.664,18.024 L117.664,19.236 C117.136,19.316 116.714,19.534 116.398,19.89 C116.082,20.246 115.924,20.692 115.924,21.228 C115.924,21.62 116.006,21.942 116.17,22.194 C116.334,22.446 116.54,22.66 116.788,22.836 C117.036,23.012 117.306,23.168 117.598,23.304 C117.89,23.44 118.16,23.586 118.408,23.742 C118.656,23.898 118.862,24.082 119.026,24.294 C119.19,24.506 119.272,24.772 119.272,25.092 C119.272,25.468 119.162,25.768 118.942,25.992 C118.722,26.216 118.388,26.328 117.94,26.328 C117.572,26.328 117.234,26.25 116.926,26.094 C116.618,25.938 116.336,25.748 116.08,25.524 L116.08,25.524 L115.624,26.208 C115.88,26.44 116.188,26.642 116.548,26.814 C116.908,26.986 117.28,27.092 117.664,27.132 L117.664,27.132 L117.664,28.32 L118.384,28.32 Z M123.964,27.144 C124.332,27.144 124.668,27.092 124.972,26.988 C125.276,26.884 125.536,26.74 125.752,26.556 C125.968,26.372 126.136,26.156 126.256,25.908 C126.376,25.66 126.436,25.392 126.436,25.104 C126.436,24.848 126.398,24.62 126.322,24.42 C126.246,24.22 126.146,24.042 126.022,23.886 C125.898,23.73 125.756,23.59 125.596,23.466 C125.436,23.342 125.272,23.232 125.104,23.136 L125.104,23.136 L125.104,23.088 C125.224,23 125.346,22.892 125.47,22.764 C125.594,22.636 125.706,22.492 125.806,22.332 C125.906,22.172 125.99,22 126.058,21.816 C126.126,21.632 126.16,21.44 126.16,21.24 C126.16,20.944 126.11,20.67 126.01,20.418 C125.91,20.166 125.766,19.95 125.578,19.77 C125.39,19.59 125.164,19.45 124.9,19.35 C124.636,19.25 124.336,19.2 124,19.2 C123.688,19.2 123.4,19.248 123.136,19.344 C122.872,19.44 122.644,19.574 122.452,19.746 C122.26,19.918 122.108,20.124 121.996,20.364 C121.884,20.604 121.828,20.872 121.828,21.168 C121.828,21.576 121.936,21.922 122.152,22.206 C122.368,22.49 122.616,22.732 122.896,22.932 L122.896,22.932 L122.896,22.98 C122.712,23.076 122.534,23.19 122.362,23.322 C122.19,23.454 122.038,23.606 121.906,23.778 C121.774,23.95 121.666,24.142 121.582,24.354 C121.498,24.566 121.456,24.796 121.456,25.044 C121.456,25.348 121.52,25.628 121.648,25.884 C121.776,26.14 121.95,26.362 122.17,26.55 C122.39,26.738 122.654,26.884 122.962,26.988 C123.27,27.092 123.604,27.144 123.964,27.144 Z M124.504,22.824 C124.272,22.736 124.05,22.642 123.838,22.542 C123.626,22.442 123.438,22.328 123.274,22.2 C123.11,22.072 122.98,21.926 122.884,21.762 C122.788,21.598 122.74,21.4 122.74,21.168 C122.74,20.792 122.856,20.492 123.088,20.268 C123.32,20.044 123.616,19.932 123.976,19.932 C124.4,19.932 124.728,20.062 124.96,20.322 C125.192,20.582 125.308,20.904 125.308,21.288 C125.308,21.568 125.238,21.836 125.098,22.092 C124.958,22.348 124.76,22.592 124.504,22.824 Z M123.988,26.412 C123.756,26.412 123.54,26.376 123.34,26.304 C123.14,26.232 122.966,26.13 122.818,25.998 C122.67,25.866 122.554,25.712 122.47,25.536 C122.386,25.36 122.344,25.164 122.344,24.948 C122.344,24.596 122.446,24.282 122.65,24.006 C122.854,23.73 123.108,23.488 123.412,23.28 C123.684,23.392 123.946,23.502 124.198,23.61 C124.45,23.718 124.672,23.838 124.864,23.97 C125.056,24.102 125.208,24.256 125.32,24.432 C125.432,24.608 125.488,24.82 125.488,25.068 C125.488,25.468 125.35,25.792 125.074,26.04 C124.798,26.288 124.436,26.412 123.988,26.412 Z M130.516,27 C130.956,27 131.36,26.952 131.728,26.856 C132.096,26.76 132.412,26.616 132.676,26.424 C132.94,26.232 133.144,25.992 133.288,25.704 C133.432,25.416 133.504,25.08 133.504,24.696 C133.504,24.152 133.356,23.724 133.06,23.412 C132.764,23.1 132.376,22.9 131.896,22.812 L131.896,22.812 L131.896,22.764 C132.272,22.644 132.558,22.426 132.754,22.11 C132.95,21.794 133.048,21.44 133.048,21.048 C133.048,20.704 132.982,20.41 132.85,20.166 C132.718,19.922 132.534,19.724 132.298,19.572 C132.062,19.42 131.778,19.308 131.446,19.236 C131.114,19.164 130.748,19.128 130.348,19.128 L130.348,19.128 L128.008,19.128 L128.008,27 L130.516,27 Z M130.168,22.476 L129.004,22.476 L129.004,19.92 L130.216,19.92 C130.832,19.92 131.294,20.016 131.602,20.208 C131.91,20.4 132.064,20.724 132.064,21.18 C132.064,21.58 131.916,21.896 131.62,22.128 C131.324,22.36 130.84,22.476 130.168,22.476 L130.168,22.476 Z M130.372,26.208 L129.004,26.208 L129.004,23.244 L130.372,23.244 C131.068,23.244 131.6,23.358 131.968,23.586 C132.336,23.814 132.52,24.172 132.52,24.66 C132.52,25.188 132.332,25.578 131.956,25.83 C131.58,26.082 131.052,26.208 130.372,26.208 L130.372,26.208 Z" id="Obligations$8B" fill="#555555" fill-rule="nonzero"></path>
                    <path d="M198.936,12.144 C199.392,12.144 199.802,12.078 200.166,11.946 C200.53,11.814 200.842,11.604 201.102,11.316 C201.362,11.028 201.56,10.658 201.696,10.206 C201.832,9.754 201.9,9.204 201.9,8.556 L201.9,8.556 L201.9,4.152 L200.568,4.152 L200.568,8.664 C200.568,9.088 200.528,9.446 200.448,9.738 C200.368,10.03 200.256,10.264 200.112,10.44 C199.968,10.616 199.796,10.742 199.596,10.818 C199.396,10.894 199.176,10.932 198.936,10.932 C198.696,10.932 198.48,10.894 198.288,10.818 C198.096,10.742 197.93,10.616 197.79,10.44 C197.65,10.264 197.542,10.03 197.466,9.738 C197.39,9.446 197.352,9.088 197.352,8.664 L197.352,8.664 L197.352,4.152 L195.96,4.152 L195.96,8.556 C195.96,9.204 196.03,9.754 196.17,10.206 C196.31,10.658 196.51,11.028 196.77,11.316 C197.03,11.604 197.342,11.814 197.706,11.946 C198.07,12.078 198.48,12.144 198.936,12.144 Z M205.116,12 L205.116,7.884 C205.364,7.644 205.586,7.462 205.782,7.338 C205.978,7.214 206.204,7.152 206.46,7.152 C206.788,7.152 207.024,7.252 207.168,7.452 C207.312,7.652 207.384,7.996 207.384,8.484 L207.384,8.484 L207.384,12 L208.764,12 L208.764,8.304 C208.764,7.552 208.62,6.974 208.332,6.57 C208.044,6.166 207.584,5.964 206.952,5.964 C206.544,5.964 206.186,6.056 205.878,6.24 C205.57,6.424 205.284,6.644 205.02,6.9 L205.02,6.9 L204.972,6.9 L204.876,6.108 L203.736,6.108 L203.736,12 L205.116,12 Z M212.868,12.144 C213.236,12.144 213.59,12.076 213.93,11.94 C214.27,11.804 214.568,11.604 214.824,11.34 C215.08,11.076 215.286,10.752 215.442,10.368 C215.598,9.984 215.676,9.548 215.676,9.06 C215.676,8.572 215.598,8.136 215.442,7.752 C215.286,7.368 215.08,7.044 214.824,6.78 C214.568,6.516 214.27,6.314 213.93,6.174 C213.59,6.034 213.236,5.964 212.868,5.964 C212.5,5.964 212.148,6.034 211.812,6.174 C211.476,6.314 211.178,6.516 210.918,6.78 C210.658,7.044 210.452,7.368 210.3,7.752 C210.148,8.136 210.072,8.572 210.072,9.06 C210.072,9.548 210.148,9.984 210.3,10.368 C210.452,10.752 210.658,11.076 210.918,11.34 C211.178,11.604 211.476,11.804 211.812,11.94 C212.148,12.076 212.5,12.144 212.868,12.144 Z M212.868,11.016 C212.436,11.016 212.098,10.838 211.854,10.482 C211.61,10.126 211.488,9.652 211.488,9.06 C211.488,8.46 211.61,7.982 211.854,7.626 C212.098,7.27 212.436,7.092 212.868,7.092 C213.3,7.092 213.64,7.27 213.888,7.626 C214.136,7.982 214.26,8.46 214.26,9.06 C214.26,9.652 214.136,10.126 213.888,10.482 C213.64,10.838 213.3,11.016 212.868,11.016 Z M219.9,12.144 C220.228,12.144 220.544,12.072 220.848,11.928 C221.152,11.784 221.42,11.576 221.652,11.304 C221.884,11.032 222.07,10.698 222.21,10.302 C222.35,9.906 222.42,9.456 222.42,8.952 C222.42,8.496 222.368,8.084 222.264,7.716 C222.16,7.348 222.008,7.034 221.808,6.774 C221.608,6.514 221.364,6.314 221.076,6.174 C220.788,6.034 220.46,5.964 220.092,5.964 C219.788,5.964 219.49,6.032 219.198,6.168 C218.906,6.304 218.636,6.48 218.388,6.696 L218.388,6.696 L218.424,5.712 L218.424,3.528 L217.044,3.528 L217.044,12 L218.136,12 L218.256,11.376 L218.292,11.376 C218.54,11.624 218.802,11.814 219.078,11.946 C219.354,12.078 219.628,12.144 219.9,12.144 Z M219.612,11.004 C219.436,11.004 219.246,10.968 219.042,10.896 C218.838,10.824 218.632,10.696 218.424,10.512 L218.424,10.512 L218.424,7.764 C218.872,7.324 219.304,7.104 219.72,7.104 C220.168,7.104 220.492,7.268 220.692,7.596 C220.892,7.924 220.992,8.384 220.992,8.976 C220.992,9.648 220.86,10.154 220.596,10.494 C220.332,10.834 220.004,11.004 219.612,11.004 Z M225.144,12.144 C225.448,12.144 225.692,12.104 225.876,12.024 L225.876,12.024 L225.696,10.992 C225.64,11.008 225.598,11.016 225.57,11.016 L225.57,11.016 L225.48,11.016 C225.408,11.016 225.34,10.982 225.276,10.914 C225.212,10.846 225.18,10.728 225.18,10.56 L225.18,10.56 L225.18,3.528 L223.8,3.528 L223.8,10.488 C223.8,11 223.9,11.404 224.1,11.7 C224.3,11.996 224.648,12.144 225.144,12.144 Z M227.748,5.076 C227.996,5.076 228.2,5.004 228.36,4.86 C228.52,4.716 228.6,4.528 228.6,4.296 C228.6,4.064 228.52,3.874 228.36,3.726 C228.2,3.578 227.996,3.504 227.748,3.504 C227.5,3.504 227.296,3.578 227.136,3.726 C226.976,3.874 226.896,4.064 226.896,4.296 C226.896,4.528 226.976,4.716 227.136,4.86 C227.296,5.004 227.5,5.076 227.748,5.076 Z M228.432,12 L228.432,6.108 L227.052,6.108 L227.052,12 L228.432,12 Z M232.248,14.604 C232.728,14.604 233.162,14.55 233.55,14.442 C233.938,14.334 234.268,14.188 234.54,14.004 C234.812,13.82 235.022,13.6 235.17,13.344 C235.318,13.088 235.392,12.816 235.392,12.528 C235.392,12.016 235.21,11.646 234.846,11.418 C234.482,11.19 233.944,11.076 233.232,11.076 L233.232,11.076 L232.188,11.076 C231.828,11.076 231.578,11.028 231.438,10.932 C231.298,10.836 231.228,10.704 231.228,10.536 C231.228,10.4 231.254,10.292 231.306,10.212 C231.358,10.132 231.428,10.052 231.516,9.972 C231.652,10.028 231.788,10.068 231.924,10.092 C232.06,10.116 232.192,10.128 232.32,10.128 C232.632,10.128 232.924,10.084 233.196,9.996 C233.468,9.908 233.704,9.78 233.904,9.612 C234.104,9.444 234.262,9.236 234.378,8.988 C234.494,8.74 234.552,8.452 234.552,8.124 C234.552,7.916 234.52,7.726 234.456,7.554 C234.392,7.382 234.312,7.24 234.216,7.128 L234.216,7.128 L235.296,7.128 L235.296,6.108 L233.184,6.108 C233.064,6.068 232.93,6.034 232.782,6.006 C232.634,5.978 232.48,5.964 232.32,5.964 C232.008,5.964 231.712,6.01 231.432,6.102 C231.152,6.194 230.906,6.33 230.694,6.51 C230.482,6.69 230.312,6.912 230.184,7.176 C230.056,7.44 229.992,7.74 229.992,8.076 C229.992,8.428 230.07,8.738 230.226,9.006 C230.382,9.274 230.56,9.484 230.76,9.636 L230.76,9.636 L230.76,9.684 C230.592,9.804 230.442,9.958 230.31,10.146 C230.178,10.334 230.112,10.544 230.112,10.776 C230.112,11.016 230.162,11.216 230.262,11.376 C230.362,11.536 230.488,11.664 230.64,11.76 L230.64,11.76 L230.64,11.808 C230.368,11.976 230.16,12.166 230.016,12.378 C229.872,12.59 229.8,12.82 229.8,13.068 C229.8,13.324 229.862,13.548 229.986,13.74 C230.11,13.932 230.28,14.092 230.496,14.22 C230.712,14.348 230.97,14.444 231.27,14.508 C231.57,14.572 231.896,14.604 232.248,14.604 Z M232.32,9.264 C232.032,9.264 231.788,9.162 231.588,8.958 C231.388,8.754 231.288,8.46 231.288,8.076 C231.288,7.7 231.388,7.412 231.588,7.212 C231.788,7.012 232.032,6.912 232.32,6.912 C232.608,6.912 232.85,7.014 233.046,7.218 C233.242,7.422 233.34,7.708 233.34,8.076 C233.34,8.46 233.24,8.754 233.04,8.958 C232.84,9.162 232.6,9.264 232.32,9.264 Z M232.464,13.704 C231.992,13.704 231.622,13.63 231.354,13.482 C231.086,13.334 230.952,13.128 230.952,12.864 C230.952,12.576 231.104,12.316 231.408,12.084 C231.624,12.14 231.892,12.168 232.212,12.168 L232.212,12.168 L233.016,12.168 C233.352,12.168 233.61,12.208 233.79,12.288 C233.97,12.368 234.06,12.524 234.06,12.756 C234.06,13.012 233.914,13.234 233.622,13.422 C233.33,13.61 232.944,13.704 232.464,13.704 Z M237.648,12.144 C238,12.144 238.326,12.068 238.626,11.916 C238.926,11.764 239.208,11.576 239.472,11.352 L239.472,11.352 L239.52,11.352 L239.616,12 L240.756,12 L240.756,8.508 C240.756,7.684 240.574,7.054 240.21,6.618 C239.846,6.182 239.296,5.964 238.56,5.964 C238.088,5.964 237.648,6.04 237.24,6.192 C236.832,6.344 236.464,6.524 236.136,6.732 L236.136,6.732 L236.64,7.656 C236.904,7.496 237.174,7.36 237.45,7.248 C237.726,7.136 238.008,7.08 238.296,7.08 C238.496,7.08 238.664,7.11 238.8,7.17 C238.936,7.23 239.046,7.314 239.13,7.422 C239.214,7.53 239.274,7.654 239.31,7.794 C239.346,7.934 239.368,8.08 239.376,8.232 C238.768,8.296 238.246,8.388 237.81,8.508 C237.374,8.628 237.014,8.776 236.73,8.952 C236.446,9.128 236.238,9.338 236.106,9.582 C235.974,9.826 235.908,10.104 235.908,10.416 C235.908,10.936 236.068,11.354 236.388,11.67 C236.708,11.986 237.128,12.144 237.648,12.144 Z M238.092,11.064 C237.844,11.064 237.64,11.004 237.48,10.884 C237.32,10.764 237.24,10.572 237.24,10.308 C237.24,10.164 237.276,10.028 237.348,9.9 C237.42,9.772 237.54,9.658 237.708,9.558 C237.876,9.458 238.096,9.368 238.368,9.288 C238.64,9.208 238.976,9.144 239.376,9.096 L239.376,9.096 L239.376,10.416 C239.152,10.624 238.942,10.784 238.746,10.896 C238.55,11.008 238.332,11.064 238.092,11.064 Z M244.296,12.144 C244.528,12.144 244.746,12.122 244.95,12.078 C245.154,12.034 245.336,11.984 245.496,11.928 L245.496,11.928 L245.256,10.908 C245.168,10.948 245.07,10.98 244.962,11.004 C244.854,11.028 244.748,11.04 244.644,11.04 C244.092,11.04 243.816,10.696 243.816,10.008 L243.816,10.008 L243.816,7.2 L245.316,7.2 L245.316,6.108 L243.816,6.108 L243.816,4.5 L242.664,4.5 L242.496,6.108 L241.584,6.168 L241.584,7.2 L242.424,7.2 L242.424,10.008 C242.424,10.328 242.458,10.618 242.526,10.878 C242.594,11.138 242.702,11.362 242.85,11.55 C242.998,11.738 243.19,11.884 243.426,11.988 C243.662,12.092 243.952,12.144 244.296,12.144 Z M248.88,12.144 C249.256,12.144 249.616,12.084 249.96,11.964 C250.304,11.844 250.616,11.692 250.896,11.508 L250.896,11.508 L250.428,10.644 C250.212,10.78 249.994,10.886 249.774,10.962 C249.554,11.038 249.316,11.076 249.06,11.076 C248.58,11.076 248.186,10.934 247.878,10.65 C247.57,10.366 247.384,9.96 247.32,9.432 L247.32,9.432 L251.064,9.432 C251.08,9.36 251.094,9.264 251.106,9.144 C251.118,9.024 251.124,8.896 251.124,8.76 C251.124,8.352 251.072,7.976 250.968,7.632 C250.864,7.288 250.71,6.992 250.506,6.744 C250.302,6.496 250.048,6.304 249.744,6.168 C249.44,6.032 249.088,5.964 248.688,5.964 C248.344,5.964 248.008,6.036 247.68,6.18 C247.352,6.324 247.062,6.528 246.81,6.792 C246.558,7.056 246.356,7.38 246.204,7.764 C246.052,8.148 245.976,8.58 245.976,9.06 C245.976,9.548 246.05,9.982 246.198,10.362 C246.346,10.742 246.552,11.064 246.816,11.328 C247.08,11.592 247.388,11.794 247.74,11.934 C248.092,12.074 248.472,12.144 248.88,12.144 Z M249.924,8.496 L247.308,8.496 C247.372,8.016 247.536,7.652 247.8,7.404 C248.064,7.156 248.372,7.032 248.724,7.032 C249.132,7.032 249.434,7.162 249.63,7.422 C249.826,7.682 249.924,8.04 249.924,8.496 L249.924,8.496 Z M254.508,12.144 C254.828,12.144 255.132,12.068 255.42,11.916 C255.708,11.764 255.96,11.58 256.176,11.364 L256.176,11.364 L256.224,11.364 L256.32,12 L257.46,12 L257.46,3.528 L256.08,3.528 L256.08,5.664 L256.128,6.612 C255.896,6.412 255.664,6.254 255.432,6.138 C255.2,6.022 254.916,5.964 254.58,5.964 C254.26,5.964 253.95,6.036 253.65,6.18 C253.35,6.324 253.084,6.528 252.852,6.792 C252.62,7.056 252.434,7.38 252.294,7.764 C252.154,8.148 252.084,8.58 252.084,9.06 C252.084,10.036 252.302,10.794 252.738,11.334 C253.174,11.874 253.764,12.144 254.508,12.144 Z M254.844,11.004 C254.412,11.004 254.082,10.838 253.854,10.506 C253.626,10.174 253.512,9.688 253.512,9.048 C253.512,8.424 253.644,7.944 253.908,7.608 C254.172,7.272 254.496,7.104 254.88,7.104 C255.08,7.104 255.278,7.14 255.474,7.212 C255.67,7.284 255.872,7.412 256.08,7.596 L256.08,7.596 L256.08,10.344 C255.696,10.784 255.284,11.004 254.844,11.004 Z M198.384,28.32 L198.384,27.108 C198.96,27.028 199.414,26.804 199.746,26.436 C200.078,26.068 200.244,25.596 200.244,25.02 C200.244,24.588 200.162,24.234 199.998,23.958 C199.834,23.682 199.628,23.45 199.38,23.262 C199.132,23.074 198.862,22.914 198.57,22.782 C198.278,22.65 198.008,22.514 197.76,22.374 C197.512,22.234 197.306,22.072 197.142,21.888 C196.978,21.704 196.896,21.468 196.896,21.18 C196.896,20.828 197.004,20.548 197.22,20.34 C197.436,20.132 197.728,20.028 198.096,20.028 C198.424,20.028 198.694,20.088 198.906,20.208 C199.118,20.328 199.336,20.496 199.56,20.712 L199.56,20.712 L200.088,20.124 C199.872,19.892 199.63,19.692 199.362,19.524 C199.094,19.356 198.768,19.252 198.384,19.212 L198.384,19.212 L198.384,18.024 L197.664,18.024 L197.664,19.236 C197.136,19.316 196.714,19.534 196.398,19.89 C196.082,20.246 195.924,20.692 195.924,21.228 C195.924,21.62 196.006,21.942 196.17,22.194 C196.334,22.446 196.54,22.66 196.788,22.836 C197.036,23.012 197.306,23.168 197.598,23.304 C197.89,23.44 198.16,23.586 198.408,23.742 C198.656,23.898 198.862,24.082 199.026,24.294 C199.19,24.506 199.272,24.772 199.272,25.092 C199.272,25.468 199.162,25.768 198.942,25.992 C198.722,26.216 198.388,26.328 197.94,26.328 C197.572,26.328 197.234,26.25 196.926,26.094 C196.618,25.938 196.336,25.748 196.08,25.524 L196.08,25.524 L195.624,26.208 C195.88,26.44 196.188,26.642 196.548,26.814 C196.908,26.986 197.28,27.092 197.664,27.132 L197.664,27.132 L197.664,28.32 L198.384,28.32 Z M204.18,27.144 C204.492,27.144 204.784,27.084 205.056,26.964 C205.328,26.844 205.568,26.676 205.776,26.46 C205.984,26.244 206.148,25.986 206.268,25.686 C206.388,25.386 206.448,25.052 206.448,24.684 C206.448,23.892 206.25,23.3 205.854,22.908 C205.458,22.516 204.928,22.32 204.264,22.32 C203.952,22.32 203.636,22.406 203.316,22.578 C202.996,22.75 202.716,22.984 202.476,23.28 C202.484,22.672 202.544,22.162 202.656,21.75 C202.768,21.338 202.916,21.004 203.1,20.748 C203.284,20.492 203.496,20.308 203.736,20.196 C203.976,20.084 204.228,20.028 204.492,20.028 C204.732,20.028 204.962,20.082 205.182,20.19 C205.402,20.298 205.592,20.444 205.752,20.628 L205.752,20.628 L206.304,20.016 C206.088,19.784 205.83,19.59 205.53,19.434 C205.23,19.278 204.872,19.2 204.456,19.2 C204.072,19.2 203.706,19.278 203.358,19.434 C203.01,19.59 202.7,19.838 202.428,20.178 C202.156,20.518 201.94,20.958 201.78,21.498 C201.62,22.038 201.54,22.692 201.54,23.46 C201.54,24.076 201.608,24.614 201.744,25.074 C201.88,25.534 202.066,25.918 202.302,26.226 C202.538,26.534 202.816,26.764 203.136,26.916 C203.456,27.068 203.804,27.144 204.18,27.144 Z M204.18,26.364 C203.692,26.364 203.306,26.17 203.022,25.782 C202.738,25.394 202.564,24.824 202.5,24.072 C202.74,23.712 203.004,23.454 203.292,23.298 C203.58,23.142 203.848,23.064 204.096,23.064 C204.576,23.064 204.932,23.208 205.164,23.496 C205.396,23.784 205.512,24.18 205.512,24.684 C205.512,24.94 205.478,25.17 205.41,25.374 C205.342,25.578 205.248,25.754 205.128,25.902 C205.008,26.05 204.868,26.164 204.708,26.244 C204.548,26.324 204.372,26.364 204.18,26.364 Z M210.516,27 C210.956,27 211.36,26.952 211.728,26.856 C212.096,26.76 212.412,26.616 212.676,26.424 C212.94,26.232 213.144,25.992 213.288,25.704 C213.432,25.416 213.504,25.08 213.504,24.696 C213.504,24.152 213.356,23.724 213.06,23.412 C212.764,23.1 212.376,22.9 211.896,22.812 L211.896,22.812 L211.896,22.764 C212.272,22.644 212.558,22.426 212.754,22.11 C212.95,21.794 213.048,21.44 213.048,21.048 C213.048,20.704 212.982,20.41 212.85,20.166 C212.718,19.922 212.534,19.724 212.298,19.572 C212.062,19.42 211.778,19.308 211.446,19.236 C211.114,19.164 210.748,19.128 210.348,19.128 L210.348,19.128 L208.008,19.128 L208.008,27 L210.516,27 Z M210.168,22.476 L209.004,22.476 L209.004,19.92 L210.216,19.92 C210.832,19.92 211.294,20.016 211.602,20.208 C211.91,20.4 212.064,20.724 212.064,21.18 C212.064,21.58 211.916,21.896 211.62,22.128 C211.324,22.36 210.84,22.476 210.168,22.476 L210.168,22.476 Z M210.372,26.208 L209.004,26.208 L209.004,23.244 L210.372,23.244 C211.068,23.244 211.6,23.358 211.968,23.586 C212.336,23.814 212.52,24.172 212.52,24.66 C212.52,25.188 212.332,25.578 211.956,25.83 C211.58,26.082 211.052,26.208 210.372,26.208 L210.372,26.208 Z" id="Unobligated$6B" fill="#555555" fill-rule="nonzero"></path>
                    <path d="M35,0 L29,0 C27.8954305,2.02906125e-16 27,0.8954305 27,2 L27,28 C27,29.1045695 27.8954305,30 29,30 L35,30 L35,30" id="Line-2" stroke="#C6C6C6" stroke-linecap="round"></path>
                    <line x1="26.5" y1="16.5" x2="0.5" y2="16.5" id="Line-4" stroke="#C6C6C6" stroke-linecap="round"></line>
                </g>
                <path d="M20.992,27.76 L20.992,26.096 C21.824,25.9146667 22.448,25.5493333 22.864,25 C23.28,24.4506667 23.488,23.792 23.488,23.024 C23.488,22.512 23.384,22.0826667 23.176,21.736 C22.968,21.3893333 22.7066667,21.0933333 22.392,20.848 C22.0773333,20.6026667 21.7386667,20.3946667 21.376,20.224 C21.0133333,20.0533333 20.6746667,19.888 20.36,19.728 C20.0453333,19.568 19.784,19.4 19.576,19.224 C19.368,19.048 19.264,18.832 19.264,18.576 C19.264,18.2133333 19.3653333,17.952 19.568,17.792 C19.7706667,17.632 20.064,17.552 20.448,17.552 C20.7893333,17.552 21.0933333,17.6186667 21.36,17.752 C21.6266667,17.8853333 21.904,18.0853333 22.192,18.352 L22.192,18.352 L23.376,17.008 C23.0666667,16.6773333 22.72,16.3946667 22.336,16.16 C21.952,15.9253333 21.504,15.7706667 20.992,15.696 L20.992,15.696 L20.992,14.08 L19.44,14.08 L19.44,15.728 C18.6826667,15.8773333 18.088,16.2106667 17.656,16.728 C17.224,17.2453333 17.008,17.8986667 17.008,18.688 C17.008,19.168 17.112,19.5733333 17.32,19.904 C17.528,20.2346667 17.7893333,20.5226667 18.104,20.768 C18.4186667,21.0133333 18.7573333,21.224 19.12,21.4 C19.4826667,21.576 19.8213333,21.752 20.136,21.928 C20.4506667,22.104 20.712,22.288 20.92,22.48 C21.128,22.672 21.232,22.9066667 21.232,23.184 C21.232,23.5573333 21.128,23.8346667 20.92,24.016 C20.712,24.1973333 20.384,24.288 19.936,24.288 C19.552,24.288 19.176,24.2106667 18.808,24.056 C18.44,23.9013333 18.0533333,23.6693333 17.648,23.36 L17.648,23.36 L16.624,24.944 C16.9973333,25.2853333 17.4426667,25.56 17.96,25.768 C18.4773333,25.976 18.9706667,26.1066667 19.44,26.16 L19.44,26.16 L19.44,27.76 L20.992,27.76 Z M32.032,26 L32.032,24.096 L30.128,24.096 L30.128,15.84 L28.4,15.84 C28.0373333,16.0533333 27.664,16.2346667 27.28,16.384 C26.896,16.5333333 26.4266667,16.6613333 25.872,16.768 L25.872,16.768 L25.872,18.224 L27.776,18.224 L27.776,24.096 L25.568,24.096 L25.568,26 L32.032,26 Z M39.792,26 L39.792,23.568 L40.96,23.568 L40.96,21.776 L39.792,21.776 L39.792,15.84 L36.912,15.84 L33.2,21.952 L33.2,23.568 L37.6,23.568 L37.6,26 L39.792,26 Z M37.6,21.776 L35.456,21.776 L36.8,19.568 C36.9493333,19.28 37.0933333,18.992 37.232,18.704 C37.3706667,18.416 37.504,18.1333333 37.632,17.856 L37.632,17.856 L37.696,17.856 C37.6746667,18.176 37.6533333,18.552 37.632,18.984 C37.6106667,19.416 37.6,19.7973333 37.6,20.128 L37.6,20.128 L37.6,21.776 Z M46.448,26 C47.0133333,26 47.5413333,25.9386667 48.032,25.816 C48.5226667,25.6933333 48.952,25.5066667 49.32,25.256 C49.688,25.0053333 49.976,24.688 50.184,24.304 C50.392,23.92 50.496,23.4613333 50.496,22.928 C50.496,22.576 50.448,22.264 50.352,21.992 C50.256,21.72 50.1226667,21.4826667 49.952,21.28 C49.7813333,21.0773333 49.584,20.9093333 49.36,20.776 C49.136,20.6426667 48.8906667,20.544 48.624,20.48 L48.624,20.48 L48.624,20.416 C48.8373333,20.3413333 49.0266667,20.224 49.192,20.064 C49.3573333,19.904 49.4986667,19.7226667 49.616,19.52 C49.7333333,19.3173333 49.824,19.0986667 49.888,18.864 C49.952,18.6293333 49.984,18.3946667 49.984,18.16 C49.984,17.6586667 49.8853333,17.2426667 49.688,16.912 C49.4906667,16.5813333 49.2186667,16.3146667 48.872,16.112 C48.5253333,15.9093333 48.12,15.768 47.656,15.688 C47.192,15.608 46.688,15.568 46.144,15.568 L46.144,15.568 L42.576,15.568 L42.576,26 L46.448,26 Z M46.032,19.744 L44.928,19.744 L44.928,17.392 L46.048,17.392 C46.6026667,17.392 47.0133333,17.4773333 47.28,17.648 C47.5466667,17.8186667 47.68,18.1066667 47.68,18.512 C47.68,18.8853333 47.5493333,19.184 47.288,19.408 C47.0266667,19.632 46.608,19.744 46.032,19.744 L46.032,19.744 Z M46.256,24.176 L44.928,24.176 L44.928,21.488 L46.256,21.488 C46.9066667,21.488 47.392,21.5866667 47.712,21.784 C48.032,21.9813333 48.192,22.3093333 48.192,22.768 C48.192,23.7066667 47.5466667,24.176 46.256,24.176 L46.256,24.176 Z" id="$14B" fill="#555555" fill-rule="nonzero"></path>
            </g>
        </g>
    </g>
</svg>