<?xml version="1.0" encoding="UTF-8"?>
<svg width="218px" height="80px" viewBox="0 0 218 80" version="1.1" xmlns="http://www.w3.org/2000/svg" xmlns:xlink="http://www.w3.org/1999/xlink">
    <title>law 1 - A General</title>
    <g id="SVG-2.0" stroke="none" stroke-width="1" fill="none" fill-rule="evenodd">
        <g id="viz-3-mobile-outline" transform="translate(-38.000000, -542.000000)">
            <g id="law-1---A-General" transform="translate(38.000000, 542.000000)">
                <path d="M87,30 L87,35.9411765 C87,37.045746 86.1045695,37.9411765 85,37.9411765 L57,37.9411765 C55.8954305,37.9411765 55,38.836607 55,39.9411765 L55,48 L55,48" id="Line-Copy-10" stroke="#C6C6C6" stroke-linecap="round" transform="translate(71.000000, 39.000000) scale(-1, 1) translate(-71.000000, -39.000000) "></path>
                <g id="bar---phase-3-general" transform="translate(0.000000, 7.000000)">
                    <path d="M4.044,56.144 C4.556,56.144 5.024,56.05 5.448,55.862 C5.872,55.674 6.238,55.402 6.546,55.046 C6.854,54.69 7.092,54.26 7.26,53.756 C7.428,53.252 7.512,52.68 7.512,52.04 C7.512,51.408 7.428,50.842 7.26,50.342 C7.092,49.842 6.854,49.42 6.546,49.076 C6.238,48.732 5.872,48.468 5.448,48.284 C5.024,48.1 4.556,48.008 4.044,48.008 C3.532,48.008 3.064,48.1 2.64,48.284 C2.216,48.468 1.852,48.732 1.548,49.076 C1.244,49.42 1.008,49.842 0.84,50.342 C0.672,50.842 0.588,51.408 0.588,52.04 C0.588,52.68 0.672,53.252 0.84,53.756 C1.008,54.26 1.244,54.69 1.548,55.046 C1.852,55.402 2.216,55.674 2.64,55.862 C3.064,56.05 3.532,56.144 4.044,56.144 Z M4.044,54.932 C3.732,54.932 3.452,54.864 3.204,54.728 C2.956,54.592 2.744,54.398 2.568,54.146 C2.392,53.894 2.256,53.59 2.16,53.234 C2.064,52.878 2.016,52.48 2.016,52.04 C2.016,51.16 2.198,50.47 2.562,49.97 C2.926,49.47 3.42,49.22 4.044,49.22 C4.668,49.22 5.162,49.47 5.526,49.97 C5.89,50.47 6.072,51.16 6.072,52.04 C6.072,52.48 6.024,52.878 5.928,53.234 C5.832,53.59 5.696,53.894 5.52,54.146 C5.344,54.398 5.132,54.592 4.884,54.728 C4.636,54.864 4.356,54.932 4.044,54.932 Z M10.716,56.144 C11.124,56.144 11.478,56.052 11.778,55.868 C12.078,55.684 12.356,55.44 12.612,55.136 L12.612,55.136 L12.648,55.136 L12.756,56 L13.884,56 L13.884,50.108 L12.504,50.108 L12.504,54.14 C12.28,54.428 12.07,54.636 11.874,54.764 C11.678,54.892 11.452,54.956 11.196,54.956 C10.876,54.956 10.644,54.856 10.5,54.656 C10.356,54.456 10.284,54.112 10.284,53.624 L10.284,53.624 L10.284,50.108 L8.904,50.108 L8.904,53.804 C8.904,54.556 9.048,55.134 9.336,55.538 C9.624,55.942 10.084,56.144 10.716,56.144 Z M17.712,56.144 C17.944,56.144 18.162,56.122 18.366,56.078 C18.57,56.034 18.752,55.984 18.912,55.928 L18.912,55.928 L18.672,54.908 C18.584,54.948 18.486,54.98 18.378,55.004 C18.27,55.028 18.164,55.04 18.06,55.04 C17.508,55.04 17.232,54.696 17.232,54.008 L17.232,54.008 L17.232,51.2 L18.732,51.2 L18.732,50.108 L17.232,50.108 L17.232,48.5 L16.08,48.5 L15.912,50.108 L15,50.168 L15,51.2 L15.84,51.2 L15.84,54.008 C15.84,54.328 15.874,54.618 15.942,54.878 C16.01,55.138 16.118,55.362 16.266,55.55 C16.414,55.738 16.606,55.884 16.842,55.988 C17.078,56.092 17.368,56.144 17.712,56.144 Z M21.312,56.144 C21.616,56.144 21.86,56.104 22.044,56.024 L22.044,56.024 L21.864,54.992 C21.808,55.008 21.766,55.016 21.738,55.016 L21.738,55.016 L21.648,55.016 C21.576,55.016 21.508,54.982 21.444,54.914 C21.38,54.846 21.348,54.728 21.348,54.56 L21.348,54.56 L21.348,47.528 L19.968,47.528 L19.968,54.488 C19.968,55 20.068,55.404 20.268,55.7 C20.468,55.996 20.816,56.144 21.312,56.144 Z M24.648,56.144 C25,56.144 25.326,56.068 25.626,55.916 C25.926,55.764 26.208,55.576 26.472,55.352 L26.472,55.352 L26.52,55.352 L26.616,56 L27.756,56 L27.756,52.508 C27.756,51.684 27.574,51.054 27.21,50.618 C26.846,50.182 26.296,49.964 25.56,49.964 C25.088,49.964 24.648,50.04 24.24,50.192 C23.832,50.344 23.464,50.524 23.136,50.732 L23.136,50.732 L23.64,51.656 C23.904,51.496 24.174,51.36 24.45,51.248 C24.726,51.136 25.008,51.08 25.296,51.08 C25.496,51.08 25.664,51.11 25.8,51.17 C25.936,51.23 26.046,51.314 26.13,51.422 C26.214,51.53 26.274,51.654 26.31,51.794 C26.346,51.934 26.368,52.08 26.376,52.232 C25.768,52.296 25.246,52.388 24.81,52.508 C24.374,52.628 24.014,52.776 23.73,52.952 C23.446,53.128 23.238,53.338 23.106,53.582 C22.974,53.826 22.908,54.104 22.908,54.416 C22.908,54.936 23.068,55.354 23.388,55.67 C23.708,55.986 24.128,56.144 24.648,56.144 Z M25.092,55.064 C24.844,55.064 24.64,55.004 24.48,54.884 C24.32,54.764 24.24,54.572 24.24,54.308 C24.24,54.164 24.276,54.028 24.348,53.9 C24.42,53.772 24.54,53.658 24.708,53.558 C24.876,53.458 25.096,53.368 25.368,53.288 C25.64,53.208 25.976,53.144 26.376,53.096 L26.376,53.096 L26.376,54.416 C26.152,54.624 25.942,54.784 25.746,54.896 C25.55,55.008 25.332,55.064 25.092,55.064 Z M29.808,58.424 C30.128,58.424 30.41,58.374 30.654,58.274 C30.898,58.174 31.114,58.03 31.302,57.842 C31.49,57.654 31.656,57.428 31.8,57.164 C31.944,56.9 32.076,56.6 32.196,56.264 L32.196,56.264 L34.332,50.108 L33,50.108 L32.112,53 C32.04,53.264 31.966,53.538 31.89,53.822 C31.814,54.106 31.74,54.384 31.668,54.656 L31.668,54.656 L31.62,54.656 C31.532,54.376 31.446,54.094 31.362,53.81 C31.278,53.526 31.192,53.256 31.104,53 L31.104,53 L30.084,50.108 L28.68,50.108 L30.996,55.928 L30.888,56.3 C30.792,56.596 30.65,56.838 30.462,57.026 C30.274,57.214 30.024,57.308 29.712,57.308 C29.64,57.308 29.566,57.298 29.49,57.278 C29.414,57.258 29.348,57.24 29.292,57.224 L29.292,57.224 L29.04,58.304 C29.152,58.344 29.268,58.374 29.388,58.394 C29.508,58.414 29.648,58.424 29.808,58.424 Z M36.996,56.144 C37.364,56.144 37.692,56.096 37.98,56 C38.268,55.904 38.508,55.774 38.7,55.61 C38.892,55.446 39.038,55.254 39.138,55.034 C39.238,54.814 39.288,54.576 39.288,54.32 C39.288,54.048 39.238,53.814 39.138,53.618 C39.038,53.422 38.906,53.256 38.742,53.12 C38.578,52.984 38.396,52.87 38.196,52.778 C37.996,52.686 37.796,52.604 37.596,52.532 C37.436,52.476 37.282,52.42 37.134,52.364 C36.986,52.308 36.856,52.248 36.744,52.184 C36.632,52.12 36.542,52.046 36.474,51.962 C36.406,51.878 36.372,51.776 36.372,51.656 C36.372,51.472 36.442,51.318 36.582,51.194 C36.722,51.07 36.94,51.008 37.236,51.008 C37.468,51.008 37.69,51.054 37.902,51.146 C38.114,51.238 38.324,51.36 38.532,51.512 L38.532,51.512 L39.168,50.672 C38.928,50.488 38.644,50.324 38.316,50.18 C37.988,50.036 37.62,49.964 37.212,49.964 C36.548,49.964 36.024,50.128 35.64,50.456 C35.256,50.784 35.064,51.208 35.064,51.728 C35.064,51.976 35.114,52.19 35.214,52.37 C35.314,52.55 35.442,52.708 35.598,52.844 C35.754,52.98 35.932,53.096 36.132,53.192 C36.332,53.288 36.528,53.372 36.72,53.444 C36.872,53.508 37.024,53.57 37.176,53.63 C37.328,53.69 37.464,53.756 37.584,53.828 C37.704,53.9 37.8,53.982 37.872,54.074 C37.944,54.166 37.98,54.272 37.98,54.392 C37.98,54.6 37.904,54.77 37.752,54.902 C37.6,55.034 37.364,55.1 37.044,55.1 C36.74,55.1 36.458,55.042 36.198,54.926 C35.938,54.81 35.676,54.648 35.412,54.44 L35.412,54.44 L34.764,55.328 C35.052,55.56 35.394,55.754 35.79,55.91 C36.186,56.066 36.588,56.144 36.996,56.144 Z M3.384,72.32 L3.384,71.108 C3.96,71.028 4.414,70.804 4.746,70.436 C5.078,70.068 5.244,69.596 5.244,69.02 C5.244,68.588 5.162,68.234 4.998,67.958 C4.834,67.682 4.628,67.45 4.38,67.262 C4.132,67.074 3.862,66.914 3.57,66.782 C3.278,66.65 3.008,66.514 2.76,66.374 C2.512,66.234 2.306,66.072 2.142,65.888 C1.978,65.704 1.896,65.468 1.896,65.18 C1.896,64.828 2.004,64.548 2.22,64.34 C2.436,64.132 2.728,64.028 3.096,64.028 C3.424,64.028 3.694,64.088 3.906,64.208 C4.118,64.328 4.336,64.496 4.56,64.712 L4.56,64.712 L5.088,64.124 C4.872,63.892 4.63,63.692 4.362,63.524 C4.094,63.356 3.768,63.252 3.384,63.212 L3.384,63.212 L3.384,62.024 L2.664,62.024 L2.664,63.236 C2.136,63.316 1.714,63.534 1.398,63.89 C1.082,64.246 0.924,64.692 0.924,65.228 C0.924,65.62 1.006,65.942 1.17,66.194 C1.334,66.446 1.54,66.66 1.788,66.836 C2.036,67.012 2.306,67.168 2.598,67.304 C2.89,67.44 3.16,67.586 3.408,67.742 C3.656,67.898 3.862,68.082 4.026,68.294 C4.19,68.506 4.272,68.772 4.272,69.092 C4.272,69.468 4.162,69.768 3.942,69.992 C3.722,70.216 3.388,70.328 2.94,70.328 C2.572,70.328 2.234,70.25 1.926,70.094 C1.618,69.938 1.336,69.748 1.08,69.524 L1.08,69.524 L0.624,70.208 C0.88,70.44 1.188,70.642 1.548,70.814 C1.908,70.986 2.28,71.092 2.664,71.132 L2.664,71.132 L2.664,72.32 L3.384,72.32 Z M11.388,71 L11.388,70.148 L9.168,70.148 C8.968,70.148 8.756,70.156 8.532,70.172 C8.308,70.188 8.092,70.204 7.884,70.22 C8.34,69.748 8.758,69.302 9.138,68.882 C9.518,68.462 9.846,68.058 10.122,67.67 C10.398,67.282 10.614,66.906 10.77,66.542 C10.926,66.178 11.004,65.816 11.004,65.456 C11.004,64.776 10.8,64.23 10.392,63.818 C9.984,63.406 9.424,63.2 8.712,63.2 C8.208,63.2 7.776,63.306 7.416,63.518 C7.056,63.73 6.716,64.012 6.396,64.364 L6.396,64.364 L6.96,64.928 C7.184,64.672 7.432,64.454 7.704,64.274 C7.976,64.094 8.272,64.004 8.592,64.004 C9.08,64.004 9.444,64.144 9.684,64.424 C9.924,64.704 10.044,65.064 10.044,65.504 C10.044,65.816 9.964,66.138 9.804,66.47 C9.644,66.802 9.412,67.166 9.108,67.562 C8.804,67.958 8.428,68.388 7.98,68.852 C7.532,69.316 7.02,69.836 6.444,70.412 L6.444,70.412 L6.444,71 L11.388,71 Z M15.516,71 C15.956,71 16.36,70.952 16.728,70.856 C17.096,70.76 17.412,70.616 17.676,70.424 C17.94,70.232 18.144,69.992 18.288,69.704 C18.432,69.416 18.504,69.08 18.504,68.696 C18.504,68.152 18.356,67.724 18.06,67.412 C17.764,67.1 17.376,66.9 16.896,66.812 L16.896,66.812 L16.896,66.764 C17.272,66.644 17.558,66.426 17.754,66.11 C17.95,65.794 18.048,65.44 18.048,65.048 C18.048,64.704 17.982,64.41 17.85,64.166 C17.718,63.922 17.534,63.724 17.298,63.572 C17.062,63.42 16.778,63.308 16.446,63.236 C16.114,63.164 15.748,63.128 15.348,63.128 L15.348,63.128 L13.008,63.128 L13.008,71 L15.516,71 Z M15.168,66.476 L14.004,66.476 L14.004,63.92 L15.216,63.92 C15.832,63.92 16.294,64.016 16.602,64.208 C16.91,64.4 17.064,64.724 17.064,65.18 C17.064,65.58 16.916,65.896 16.62,66.128 C16.324,66.36 15.84,66.476 15.168,66.476 L15.168,66.476 Z M15.372,70.208 L14.004,70.208 L14.004,67.244 L15.372,67.244 C16.068,67.244 16.6,67.358 16.968,67.586 C17.336,67.814 17.52,68.172 17.52,68.66 C17.52,69.188 17.332,69.578 16.956,69.83 C16.58,70.082 16.052,70.208 15.372,70.208 L15.372,70.208 Z" id="Outlays$2B" fill="#666666" fill-rule="nonzero"></path>
                    <path d="M66.044,56.144 C66.556,56.144 67.024,56.05 67.448,55.862 C67.872,55.674 68.238,55.402 68.546,55.046 C68.854,54.69 69.092,54.26 69.26,53.756 C69.428,53.252 69.512,52.68 69.512,52.04 C69.512,51.408 69.428,50.842 69.26,50.342 C69.092,49.842 68.854,49.42 68.546,49.076 C68.238,48.732 67.872,48.468 67.448,48.284 C67.024,48.1 66.556,48.008 66.044,48.008 C65.532,48.008 65.064,48.1 64.64,48.284 C64.216,48.468 63.852,48.732 63.548,49.076 C63.244,49.42 63.008,49.842 62.84,50.342 C62.672,50.842 62.588,51.408 62.588,52.04 C62.588,52.68 62.672,53.252 62.84,53.756 C63.008,54.26 63.244,54.69 63.548,55.046 C63.852,55.402 64.216,55.674 64.64,55.862 C65.064,56.05 65.532,56.144 66.044,56.144 Z M66.044,54.932 C65.732,54.932 65.452,54.864 65.204,54.728 C64.956,54.592 64.744,54.398 64.568,54.146 C64.392,53.894 64.256,53.59 64.16,53.234 C64.064,52.878 64.016,52.48 64.016,52.04 C64.016,51.16 64.198,50.47 64.562,49.97 C64.926,49.47 65.42,49.22 66.044,49.22 C66.668,49.22 67.162,49.47 67.526,49.97 C67.89,50.47 68.072,51.16 68.072,52.04 C68.072,52.48 68.024,52.878 67.928,53.234 C67.832,53.59 67.696,53.894 67.52,54.146 C67.344,54.398 67.132,54.592 66.884,54.728 C66.636,54.864 66.356,54.932 66.044,54.932 Z M73.82,56.144 C74.148,56.144 74.464,56.072 74.768,55.928 C75.072,55.784 75.34,55.576 75.572,55.304 C75.804,55.032 75.99,54.698 76.13,54.302 C76.27,53.906 76.34,53.456 76.34,52.952 C76.34,52.496 76.288,52.084 76.184,51.716 C76.08,51.348 75.928,51.034 75.728,50.774 C75.528,50.514 75.284,50.314 74.996,50.174 C74.708,50.034 74.38,49.964 74.012,49.964 C73.708,49.964 73.41,50.032 73.118,50.168 C72.826,50.304 72.556,50.48 72.308,50.696 L72.308,50.696 L72.344,49.712 L72.344,47.528 L70.964,47.528 L70.964,56 L72.056,56 L72.176,55.376 L72.212,55.376 C72.46,55.624 72.722,55.814 72.998,55.946 C73.274,56.078 73.548,56.144 73.82,56.144 Z M73.532,55.004 C73.356,55.004 73.166,54.968 72.962,54.896 C72.758,54.824 72.552,54.696 72.344,54.512 L72.344,54.512 L72.344,51.764 C72.792,51.324 73.224,51.104 73.64,51.104 C74.088,51.104 74.412,51.268 74.612,51.596 C74.812,51.924 74.912,52.384 74.912,52.976 C74.912,53.648 74.78,54.154 74.516,54.494 C74.252,54.834 73.924,55.004 73.532,55.004 Z M79.064,56.144 C79.368,56.144 79.612,56.104 79.796,56.024 L79.796,56.024 L79.616,54.992 C79.56,55.008 79.518,55.016 79.49,55.016 L79.49,55.016 L79.4,55.016 C79.328,55.016 79.26,54.982 79.196,54.914 C79.132,54.846 79.1,54.728 79.1,54.56 L79.1,54.56 L79.1,47.528 L77.72,47.528 L77.72,54.488 C77.72,55 77.82,55.404 78.02,55.7 C78.22,55.996 78.568,56.144 79.064,56.144 Z M81.668,49.076 C81.916,49.076 82.12,49.004 82.28,48.86 C82.44,48.716 82.52,48.528 82.52,48.296 C82.52,48.064 82.44,47.874 82.28,47.726 C82.12,47.578 81.916,47.504 81.668,47.504 C81.42,47.504 81.216,47.578 81.056,47.726 C80.896,47.874 80.816,48.064 80.816,48.296 C80.816,48.528 80.896,48.716 81.056,48.86 C81.216,49.004 81.42,49.076 81.668,49.076 Z M82.352,56 L82.352,50.108 L80.972,50.108 L80.972,56 L82.352,56 Z M86.168,58.604 C86.648,58.604 87.082,58.55 87.47,58.442 C87.858,58.334 88.188,58.188 88.46,58.004 C88.732,57.82 88.942,57.6 89.09,57.344 C89.238,57.088 89.312,56.816 89.312,56.528 C89.312,56.016 89.13,55.646 88.766,55.418 C88.402,55.19 87.864,55.076 87.152,55.076 L87.152,55.076 L86.108,55.076 C85.748,55.076 85.498,55.028 85.358,54.932 C85.218,54.836 85.148,54.704 85.148,54.536 C85.148,54.4 85.174,54.292 85.226,54.212 C85.278,54.132 85.348,54.052 85.436,53.972 C85.572,54.028 85.708,54.068 85.844,54.092 C85.98,54.116 86.112,54.128 86.24,54.128 C86.552,54.128 86.844,54.084 87.116,53.996 C87.388,53.908 87.624,53.78 87.824,53.612 C88.024,53.444 88.182,53.236 88.298,52.988 C88.414,52.74 88.472,52.452 88.472,52.124 C88.472,51.916 88.44,51.726 88.376,51.554 C88.312,51.382 88.232,51.24 88.136,51.128 L88.136,51.128 L89.216,51.128 L89.216,50.108 L87.104,50.108 C86.984,50.068 86.85,50.034 86.702,50.006 C86.554,49.978 86.4,49.964 86.24,49.964 C85.928,49.964 85.632,50.01 85.352,50.102 C85.072,50.194 84.826,50.33 84.614,50.51 C84.402,50.69 84.232,50.912 84.104,51.176 C83.976,51.44 83.912,51.74 83.912,52.076 C83.912,52.428 83.99,52.738 84.146,53.006 C84.302,53.274 84.48,53.484 84.68,53.636 L84.68,53.636 L84.68,53.684 C84.512,53.804 84.362,53.958 84.23,54.146 C84.098,54.334 84.032,54.544 84.032,54.776 C84.032,55.016 84.082,55.216 84.182,55.376 C84.282,55.536 84.408,55.664 84.56,55.76 L84.56,55.76 L84.56,55.808 C84.288,55.976 84.08,56.166 83.936,56.378 C83.792,56.59 83.72,56.82 83.72,57.068 C83.72,57.324 83.782,57.548 83.906,57.74 C84.03,57.932 84.2,58.092 84.416,58.22 C84.632,58.348 84.89,58.444 85.19,58.508 C85.49,58.572 85.816,58.604 86.168,58.604 Z M86.24,53.264 C85.952,53.264 85.708,53.162 85.508,52.958 C85.308,52.754 85.208,52.46 85.208,52.076 C85.208,51.7 85.308,51.412 85.508,51.212 C85.708,51.012 85.952,50.912 86.24,50.912 C86.528,50.912 86.77,51.014 86.966,51.218 C87.162,51.422 87.26,51.708 87.26,52.076 C87.26,52.46 87.16,52.754 86.96,52.958 C86.76,53.162 86.52,53.264 86.24,53.264 Z M86.384,57.704 C85.912,57.704 85.542,57.63 85.274,57.482 C85.006,57.334 84.872,57.128 84.872,56.864 C84.872,56.576 85.024,56.316 85.328,56.084 C85.544,56.14 85.812,56.168 86.132,56.168 L86.132,56.168 L86.936,56.168 C87.272,56.168 87.53,56.208 87.71,56.288 C87.89,56.368 87.98,56.524 87.98,56.756 C87.98,57.012 87.834,57.234 87.542,57.422 C87.25,57.61 86.864,57.704 86.384,57.704 Z M91.568,56.144 C91.92,56.144 92.246,56.068 92.546,55.916 C92.846,55.764 93.128,55.576 93.392,55.352 L93.392,55.352 L93.44,55.352 L93.536,56 L94.676,56 L94.676,52.508 C94.676,51.684 94.494,51.054 94.13,50.618 C93.766,50.182 93.216,49.964 92.48,49.964 C92.008,49.964 91.568,50.04 91.16,50.192 C90.752,50.344 90.384,50.524 90.056,50.732 L90.056,50.732 L90.56,51.656 C90.824,51.496 91.094,51.36 91.37,51.248 C91.646,51.136 91.928,51.08 92.216,51.08 C92.416,51.08 92.584,51.11 92.72,51.17 C92.856,51.23 92.966,51.314 93.05,51.422 C93.134,51.53 93.194,51.654 93.23,51.794 C93.266,51.934 93.288,52.08 93.296,52.232 C92.688,52.296 92.166,52.388 91.73,52.508 C91.294,52.628 90.934,52.776 90.65,52.952 C90.366,53.128 90.158,53.338 90.026,53.582 C89.894,53.826 89.828,54.104 89.828,54.416 C89.828,54.936 89.988,55.354 90.308,55.67 C90.628,55.986 91.048,56.144 91.568,56.144 Z M92.012,55.064 C91.764,55.064 91.56,55.004 91.4,54.884 C91.24,54.764 91.16,54.572 91.16,54.308 C91.16,54.164 91.196,54.028 91.268,53.9 C91.34,53.772 91.46,53.658 91.628,53.558 C91.796,53.458 92.016,53.368 92.288,53.288 C92.56,53.208 92.896,53.144 93.296,53.096 L93.296,53.096 L93.296,54.416 C93.072,54.624 92.862,54.784 92.666,54.896 C92.47,55.008 92.252,55.064 92.012,55.064 Z M98.216,56.144 C98.448,56.144 98.666,56.122 98.87,56.078 C99.074,56.034 99.256,55.984 99.416,55.928 L99.416,55.928 L99.176,54.908 C99.088,54.948 98.99,54.98 98.882,55.004 C98.774,55.028 98.668,55.04 98.564,55.04 C98.012,55.04 97.736,54.696 97.736,54.008 L97.736,54.008 L97.736,51.2 L99.236,51.2 L99.236,50.108 L97.736,50.108 L97.736,48.5 L96.584,48.5 L96.416,50.108 L95.504,50.168 L95.504,51.2 L96.344,51.2 L96.344,54.008 C96.344,54.328 96.378,54.618 96.446,54.878 C96.514,55.138 96.622,55.362 96.77,55.55 C96.918,55.738 97.11,55.884 97.346,55.988 C97.582,56.092 97.872,56.144 98.216,56.144 Z M101.168,49.076 C101.416,49.076 101.62,49.004 101.78,48.86 C101.94,48.716 102.02,48.528 102.02,48.296 C102.02,48.064 101.94,47.874 101.78,47.726 C101.62,47.578 101.416,47.504 101.168,47.504 C100.92,47.504 100.716,47.578 100.556,47.726 C100.396,47.874 100.316,48.064 100.316,48.296 C100.316,48.528 100.396,48.716 100.556,48.86 C100.716,49.004 100.92,49.076 101.168,49.076 Z M101.852,56 L101.852,50.108 L100.472,50.108 L100.472,56 L101.852,56 Z M106.028,56.144 C106.396,56.144 106.75,56.076 107.09,55.94 C107.43,55.804 107.728,55.604 107.984,55.34 C108.24,55.076 108.446,54.752 108.602,54.368 C108.758,53.984 108.836,53.548 108.836,53.06 C108.836,52.572 108.758,52.136 108.602,51.752 C108.446,51.368 108.24,51.044 107.984,50.78 C107.728,50.516 107.43,50.314 107.09,50.174 C106.75,50.034 106.396,49.964 106.028,49.964 C105.66,49.964 105.308,50.034 104.972,50.174 C104.636,50.314 104.338,50.516 104.078,50.78 C103.818,51.044 103.612,51.368 103.46,51.752 C103.308,52.136 103.232,52.572 103.232,53.06 C103.232,53.548 103.308,53.984 103.46,54.368 C103.612,54.752 103.818,55.076 104.078,55.34 C104.338,55.604 104.636,55.804 104.972,55.94 C105.308,56.076 105.66,56.144 106.028,56.144 Z M106.028,55.016 C105.596,55.016 105.258,54.838 105.014,54.482 C104.77,54.126 104.648,53.652 104.648,53.06 C104.648,52.46 104.77,51.982 105.014,51.626 C105.258,51.27 105.596,51.092 106.028,51.092 C106.46,51.092 106.8,51.27 107.048,51.626 C107.296,51.982 107.42,52.46 107.42,53.06 C107.42,53.652 107.296,54.126 107.048,54.482 C106.8,54.838 106.46,55.016 106.028,55.016 Z M111.584,56 L111.584,51.884 C111.832,51.644 112.054,51.462 112.25,51.338 C112.446,51.214 112.672,51.152 112.928,51.152 C113.256,51.152 113.492,51.252 113.636,51.452 C113.78,51.652 113.852,51.996 113.852,52.484 L113.852,52.484 L113.852,56 L115.232,56 L115.232,52.304 C115.232,51.552 115.088,50.974 114.8,50.57 C114.512,50.166 114.052,49.964 113.42,49.964 C113.012,49.964 112.654,50.056 112.346,50.24 C112.038,50.424 111.752,50.644 111.488,50.9 L111.488,50.9 L111.44,50.9 L111.344,50.108 L110.204,50.108 L110.204,56 L111.584,56 Z M118.568,56.144 C118.936,56.144 119.264,56.096 119.552,56 C119.84,55.904 120.08,55.774 120.272,55.61 C120.464,55.446 120.61,55.254 120.71,55.034 C120.81,54.814 120.86,54.576 120.86,54.32 C120.86,54.048 120.81,53.814 120.71,53.618 C120.61,53.422 120.478,53.256 120.314,53.12 C120.15,52.984 119.968,52.87 119.768,52.778 C119.568,52.686 119.368,52.604 119.168,52.532 C119.008,52.476 118.854,52.42 118.706,52.364 C118.558,52.308 118.428,52.248 118.316,52.184 C118.204,52.12 118.114,52.046 118.046,51.962 C117.978,51.878 117.944,51.776 117.944,51.656 C117.944,51.472 118.014,51.318 118.154,51.194 C118.294,51.07 118.512,51.008 118.808,51.008 C119.04,51.008 119.262,51.054 119.474,51.146 C119.686,51.238 119.896,51.36 120.104,51.512 L120.104,51.512 L120.74,50.672 C120.5,50.488 120.216,50.324 119.888,50.18 C119.56,50.036 119.192,49.964 118.784,49.964 C118.12,49.964 117.596,50.128 117.212,50.456 C116.828,50.784 116.636,51.208 116.636,51.728 C116.636,51.976 116.686,52.19 116.786,52.37 C116.886,52.55 117.014,52.708 117.17,52.844 C117.326,52.98 117.504,53.096 117.704,53.192 C117.904,53.288 118.1,53.372 118.292,53.444 C118.444,53.508 118.596,53.57 118.748,53.63 C118.9,53.69 119.036,53.756 119.156,53.828 C119.276,53.9 119.372,53.982 119.444,54.074 C119.516,54.166 119.552,54.272 119.552,54.392 C119.552,54.6 119.476,54.77 119.324,54.902 C119.172,55.034 118.936,55.1 118.616,55.1 C118.312,55.1 118.03,55.042 117.77,54.926 C117.51,54.81 117.248,54.648 116.984,54.44 L116.984,54.44 L116.336,55.328 C116.624,55.56 116.966,55.754 117.362,55.91 C117.758,56.066 118.16,56.144 118.568,56.144 Z M65.384,72.32 L65.384,71.108 C65.96,71.028 66.414,70.804 66.746,70.436 C67.078,70.068 67.244,69.596 67.244,69.02 C67.244,68.588 67.162,68.234 66.998,67.958 C66.834,67.682 66.628,67.45 66.38,67.262 C66.132,67.074 65.862,66.914 65.57,66.782 C65.278,66.65 65.008,66.514 64.76,66.374 C64.512,66.234 64.306,66.072 64.142,65.888 C63.978,65.704 63.896,65.468 63.896,65.18 C63.896,64.828 64.004,64.548 64.22,64.34 C64.436,64.132 64.728,64.028 65.096,64.028 C65.424,64.028 65.694,64.088 65.906,64.208 C66.118,64.328 66.336,64.496 66.56,64.712 L66.56,64.712 L67.088,64.124 C66.872,63.892 66.63,63.692 66.362,63.524 C66.094,63.356 65.768,63.252 65.384,63.212 L65.384,63.212 L65.384,62.024 L64.664,62.024 L64.664,63.236 C64.136,63.316 63.714,63.534 63.398,63.89 C63.082,64.246 62.924,64.692 62.924,65.228 C62.924,65.62 63.006,65.942 63.17,66.194 C63.334,66.446 63.54,66.66 63.788,66.836 C64.036,67.012 64.306,67.168 64.598,67.304 C64.89,67.44 65.16,67.586 65.408,67.742 C65.656,67.898 65.862,68.082 66.026,68.294 C66.19,68.506 66.272,68.772 66.272,69.092 C66.272,69.468 66.162,69.768 65.942,69.992 C65.722,70.216 65.388,70.328 64.94,70.328 C64.572,70.328 64.234,70.25 63.926,70.094 C63.618,69.938 63.336,69.748 63.08,69.524 L63.08,69.524 L62.624,70.208 C62.88,70.44 63.188,70.642 63.548,70.814 C63.908,70.986 64.28,71.092 64.664,71.132 L64.664,71.132 L64.664,72.32 L65.384,72.32 Z M71.18,71.144 C71.492,71.144 71.784,71.084 72.056,70.964 C72.328,70.844 72.568,70.676 72.776,70.46 C72.984,70.244 73.148,69.986 73.268,69.686 C73.388,69.386 73.448,69.052 73.448,68.684 C73.448,67.892 73.25,67.3 72.854,66.908 C72.458,66.516 71.928,66.32 71.264,66.32 C70.952,66.32 70.636,66.406 70.316,66.578 C69.996,66.75 69.716,66.984 69.476,67.28 C69.484,66.672 69.544,66.162 69.656,65.75 C69.768,65.338 69.916,65.004 70.1,64.748 C70.284,64.492 70.496,64.308 70.736,64.196 C70.976,64.084 71.228,64.028 71.492,64.028 C71.732,64.028 71.962,64.082 72.182,64.19 C72.402,64.298 72.592,64.444 72.752,64.628 L72.752,64.628 L73.304,64.016 C73.088,63.784 72.83,63.59 72.53,63.434 C72.23,63.278 71.872,63.2 71.456,63.2 C71.072,63.2 70.706,63.278 70.358,63.434 C70.01,63.59 69.7,63.838 69.428,64.178 C69.156,64.518 68.94,64.958 68.78,65.498 C68.62,66.038 68.54,66.692 68.54,67.46 C68.54,68.076 68.608,68.614 68.744,69.074 C68.88,69.534 69.066,69.918 69.302,70.226 C69.538,70.534 69.816,70.764 70.136,70.916 C70.456,71.068 70.804,71.144 71.18,71.144 Z M71.18,70.364 C70.692,70.364 70.306,70.17 70.022,69.782 C69.738,69.394 69.564,68.824 69.5,68.072 C69.74,67.712 70.004,67.454 70.292,67.298 C70.58,67.142 70.848,67.064 71.096,67.064 C71.576,67.064 71.932,67.208 72.164,67.496 C72.396,67.784 72.512,68.18 72.512,68.684 C72.512,68.94 72.478,69.17 72.41,69.374 C72.342,69.578 72.248,69.754 72.128,69.902 C72.008,70.05 71.868,70.164 71.708,70.244 C71.548,70.324 71.372,70.364 71.18,70.364 Z M77.516,71 C77.956,71 78.36,70.952 78.728,70.856 C79.096,70.76 79.412,70.616 79.676,70.424 C79.94,70.232 80.144,69.992 80.288,69.704 C80.432,69.416 80.504,69.08 80.504,68.696 C80.504,68.152 80.356,67.724 80.06,67.412 C79.764,67.1 79.376,66.9 78.896,66.812 L78.896,66.812 L78.896,66.764 C79.272,66.644 79.558,66.426 79.754,66.11 C79.95,65.794 80.048,65.44 80.048,65.048 C80.048,64.704 79.982,64.41 79.85,64.166 C79.718,63.922 79.534,63.724 79.298,63.572 C79.062,63.42 78.778,63.308 78.446,63.236 C78.114,63.164 77.748,63.128 77.348,63.128 L77.348,63.128 L75.008,63.128 L75.008,71 L77.516,71 Z M77.168,66.476 L76.004,66.476 L76.004,63.92 L77.216,63.92 C77.832,63.92 78.294,64.016 78.602,64.208 C78.91,64.4 79.064,64.724 79.064,65.18 C79.064,65.58 78.916,65.896 78.62,66.128 C78.324,66.36 77.84,66.476 77.168,66.476 L77.168,66.476 Z M77.372,70.208 L76.004,70.208 L76.004,67.244 L77.372,67.244 C78.068,67.244 78.6,67.358 78.968,67.586 C79.336,67.814 79.52,68.172 79.52,68.66 C79.52,69.188 79.332,69.578 78.956,69.83 C78.58,70.082 78.052,70.208 77.372,70.208 L77.372,70.208 Z" id="Obligations$6B" fill="#666666" fill-rule="nonzero"></path>
                    <path d="M158.936,56.144 C159.392,56.144 159.802,56.078 160.166,55.946 C160.53,55.814 160.842,55.604 161.102,55.316 C161.362,55.028 161.56,54.658 161.696,54.206 C161.832,53.754 161.9,53.204 161.9,52.556 L161.9,52.556 L161.9,48.152 L160.568,48.152 L160.568,52.664 C160.568,53.088 160.528,53.446 160.448,53.738 C160.368,54.03 160.256,54.264 160.112,54.44 C159.968,54.616 159.796,54.742 159.596,54.818 C159.396,54.894 159.176,54.932 158.936,54.932 C158.696,54.932 158.48,54.894 158.288,54.818 C158.096,54.742 157.93,54.616 157.79,54.44 C157.65,54.264 157.542,54.03 157.466,53.738 C157.39,53.446 157.352,53.088 157.352,52.664 L157.352,52.664 L157.352,48.152 L155.96,48.152 L155.96,52.556 C155.96,53.204 156.03,53.754 156.17,54.206 C156.31,54.658 156.51,55.028 156.77,55.316 C157.03,55.604 157.342,55.814 157.706,55.946 C158.07,56.078 158.48,56.144 158.936,56.144 Z M165.116,56 L165.116,51.884 C165.364,51.644 165.586,51.462 165.782,51.338 C165.978,51.214 166.204,51.152 166.46,51.152 C166.788,51.152 167.024,51.252 167.168,51.452 C167.312,51.652 167.384,51.996 167.384,52.484 L167.384,52.484 L167.384,56 L168.764,56 L168.764,52.304 C168.764,51.552 168.62,50.974 168.332,50.57 C168.044,50.166 167.584,49.964 166.952,49.964 C166.544,49.964 166.186,50.056 165.878,50.24 C165.57,50.424 165.284,50.644 165.02,50.9 L165.02,50.9 L164.972,50.9 L164.876,50.108 L163.736,50.108 L163.736,56 L165.116,56 Z M172.868,56.144 C173.236,56.144 173.59,56.076 173.93,55.94 C174.27,55.804 174.568,55.604 174.824,55.34 C175.08,55.076 175.286,54.752 175.442,54.368 C175.598,53.984 175.676,53.548 175.676,53.06 C175.676,52.572 175.598,52.136 175.442,51.752 C175.286,51.368 175.08,51.044 174.824,50.78 C174.568,50.516 174.27,50.314 173.93,50.174 C173.59,50.034 173.236,49.964 172.868,49.964 C172.5,49.964 172.148,50.034 171.812,50.174 C171.476,50.314 171.178,50.516 170.918,50.78 C170.658,51.044 170.452,51.368 170.3,51.752 C170.148,52.136 170.072,52.572 170.072,53.06 C170.072,53.548 170.148,53.984 170.3,54.368 C170.452,54.752 170.658,55.076 170.918,55.34 C171.178,55.604 171.476,55.804 171.812,55.94 C172.148,56.076 172.5,56.144 172.868,56.144 Z M172.868,55.016 C172.436,55.016 172.098,54.838 171.854,54.482 C171.61,54.126 171.488,53.652 171.488,53.06 C171.488,52.46 171.61,51.982 171.854,51.626 C172.098,51.27 172.436,51.092 172.868,51.092 C173.3,51.092 173.64,51.27 173.888,51.626 C174.136,51.982 174.26,52.46 174.26,53.06 C174.26,53.652 174.136,54.126 173.888,54.482 C173.64,54.838 173.3,55.016 172.868,55.016 Z M179.9,56.144 C180.228,56.144 180.544,56.072 180.848,55.928 C181.152,55.784 181.42,55.576 181.652,55.304 C181.884,55.032 182.07,54.698 182.21,54.302 C182.35,53.906 182.42,53.456 182.42,52.952 C182.42,52.496 182.368,52.084 182.264,51.716 C182.16,51.348 182.008,51.034 181.808,50.774 C181.608,50.514 181.364,50.314 181.076,50.174 C180.788,50.034 180.46,49.964 180.092,49.964 C179.788,49.964 179.49,50.032 179.198,50.168 C178.906,50.304 178.636,50.48 178.388,50.696 L178.388,50.696 L178.424,49.712 L178.424,47.528 L177.044,47.528 L177.044,56 L178.136,56 L178.256,55.376 L178.292,55.376 C178.54,55.624 178.802,55.814 179.078,55.946 C179.354,56.078 179.628,56.144 179.9,56.144 Z M179.612,55.004 C179.436,55.004 179.246,54.968 179.042,54.896 C178.838,54.824 178.632,54.696 178.424,54.512 L178.424,54.512 L178.424,51.764 C178.872,51.324 179.304,51.104 179.72,51.104 C180.168,51.104 180.492,51.268 180.692,51.596 C180.892,51.924 180.992,52.384 180.992,52.976 C180.992,53.648 180.86,54.154 180.596,54.494 C180.332,54.834 180.004,55.004 179.612,55.004 Z M185.144,56.144 C185.448,56.144 185.692,56.104 185.876,56.024 L185.876,56.024 L185.696,54.992 C185.64,55.008 185.598,55.016 185.57,55.016 L185.57,55.016 L185.48,55.016 C185.408,55.016 185.34,54.982 185.276,54.914 C185.212,54.846 185.18,54.728 185.18,54.56 L185.18,54.56 L185.18,47.528 L183.8,47.528 L183.8,54.488 C183.8,55 183.9,55.404 184.1,55.7 C184.3,55.996 184.648,56.144 185.144,56.144 Z M187.748,49.076 C187.996,49.076 188.2,49.004 188.36,48.86 C188.52,48.716 188.6,48.528 188.6,48.296 C188.6,48.064 188.52,47.874 188.36,47.726 C188.2,47.578 187.996,47.504 187.748,47.504 C187.5,47.504 187.296,47.578 187.136,47.726 C186.976,47.874 186.896,48.064 186.896,48.296 C186.896,48.528 186.976,48.716 187.136,48.86 C187.296,49.004 187.5,49.076 187.748,49.076 Z M188.432,56 L188.432,50.108 L187.052,50.108 L187.052,56 L188.432,56 Z M192.248,58.604 C192.728,58.604 193.162,58.55 193.55,58.442 C193.938,58.334 194.268,58.188 194.54,58.004 C194.812,57.82 195.022,57.6 195.17,57.344 C195.318,57.088 195.392,56.816 195.392,56.528 C195.392,56.016 195.21,55.646 194.846,55.418 C194.482,55.19 193.944,55.076 193.232,55.076 L193.232,55.076 L192.188,55.076 C191.828,55.076 191.578,55.028 191.438,54.932 C191.298,54.836 191.228,54.704 191.228,54.536 C191.228,54.4 191.254,54.292 191.306,54.212 C191.358,54.132 191.428,54.052 191.516,53.972 C191.652,54.028 191.788,54.068 191.924,54.092 C192.06,54.116 192.192,54.128 192.32,54.128 C192.632,54.128 192.924,54.084 193.196,53.996 C193.468,53.908 193.704,53.78 193.904,53.612 C194.104,53.444 194.262,53.236 194.378,52.988 C194.494,52.74 194.552,52.452 194.552,52.124 C194.552,51.916 194.52,51.726 194.456,51.554 C194.392,51.382 194.312,51.24 194.216,51.128 L194.216,51.128 L195.296,51.128 L195.296,50.108 L193.184,50.108 C193.064,50.068 192.93,50.034 192.782,50.006 C192.634,49.978 192.48,49.964 192.32,49.964 C192.008,49.964 191.712,50.01 191.432,50.102 C191.152,50.194 190.906,50.33 190.694,50.51 C190.482,50.69 190.312,50.912 190.184,51.176 C190.056,51.44 189.992,51.74 189.992,52.076 C189.992,52.428 190.07,52.738 190.226,53.006 C190.382,53.274 190.56,53.484 190.76,53.636 L190.76,53.636 L190.76,53.684 C190.592,53.804 190.442,53.958 190.31,54.146 C190.178,54.334 190.112,54.544 190.112,54.776 C190.112,55.016 190.162,55.216 190.262,55.376 C190.362,55.536 190.488,55.664 190.64,55.76 L190.64,55.76 L190.64,55.808 C190.368,55.976 190.16,56.166 190.016,56.378 C189.872,56.59 189.8,56.82 189.8,57.068 C189.8,57.324 189.862,57.548 189.986,57.74 C190.11,57.932 190.28,58.092 190.496,58.22 C190.712,58.348 190.97,58.444 191.27,58.508 C191.57,58.572 191.896,58.604 192.248,58.604 Z M192.32,53.264 C192.032,53.264 191.788,53.162 191.588,52.958 C191.388,52.754 191.288,52.46 191.288,52.076 C191.288,51.7 191.388,51.412 191.588,51.212 C191.788,51.012 192.032,50.912 192.32,50.912 C192.608,50.912 192.85,51.014 193.046,51.218 C193.242,51.422 193.34,51.708 193.34,52.076 C193.34,52.46 193.24,52.754 193.04,52.958 C192.84,53.162 192.6,53.264 192.32,53.264 Z M192.464,57.704 C191.992,57.704 191.622,57.63 191.354,57.482 C191.086,57.334 190.952,57.128 190.952,56.864 C190.952,56.576 191.104,56.316 191.408,56.084 C191.624,56.14 191.892,56.168 192.212,56.168 L192.212,56.168 L193.016,56.168 C193.352,56.168 193.61,56.208 193.79,56.288 C193.97,56.368 194.06,56.524 194.06,56.756 C194.06,57.012 193.914,57.234 193.622,57.422 C193.33,57.61 192.944,57.704 192.464,57.704 Z M197.648,56.144 C198,56.144 198.326,56.068 198.626,55.916 C198.926,55.764 199.208,55.576 199.472,55.352 L199.472,55.352 L199.52,55.352 L199.616,56 L200.756,56 L200.756,52.508 C200.756,51.684 200.574,51.054 200.21,50.618 C199.846,50.182 199.296,49.964 198.56,49.964 C198.088,49.964 197.648,50.04 197.24,50.192 C196.832,50.344 196.464,50.524 196.136,50.732 L196.136,50.732 L196.64,51.656 C196.904,51.496 197.174,51.36 197.45,51.248 C197.726,51.136 198.008,51.08 198.296,51.08 C198.496,51.08 198.664,51.11 198.8,51.17 C198.936,51.23 199.046,51.314 199.13,51.422 C199.214,51.53 199.274,51.654 199.31,51.794 C199.346,51.934 199.368,52.08 199.376,52.232 C198.768,52.296 198.246,52.388 197.81,52.508 C197.374,52.628 197.014,52.776 196.73,52.952 C196.446,53.128 196.238,53.338 196.106,53.582 C195.974,53.826 195.908,54.104 195.908,54.416 C195.908,54.936 196.068,55.354 196.388,55.67 C196.708,55.986 197.128,56.144 197.648,56.144 Z M198.092,55.064 C197.844,55.064 197.64,55.004 197.48,54.884 C197.32,54.764 197.24,54.572 197.24,54.308 C197.24,54.164 197.276,54.028 197.348,53.9 C197.42,53.772 197.54,53.658 197.708,53.558 C197.876,53.458 198.096,53.368 198.368,53.288 C198.64,53.208 198.976,53.144 199.376,53.096 L199.376,53.096 L199.376,54.416 C199.152,54.624 198.942,54.784 198.746,54.896 C198.55,55.008 198.332,55.064 198.092,55.064 Z M204.296,56.144 C204.528,56.144 204.746,56.122 204.95,56.078 C205.154,56.034 205.336,55.984 205.496,55.928 L205.496,55.928 L205.256,54.908 C205.168,54.948 205.07,54.98 204.962,55.004 C204.854,55.028 204.748,55.04 204.644,55.04 C204.092,55.04 203.816,54.696 203.816,54.008 L203.816,54.008 L203.816,51.2 L205.316,51.2 L205.316,50.108 L203.816,50.108 L203.816,48.5 L202.664,48.5 L202.496,50.108 L201.584,50.168 L201.584,51.2 L202.424,51.2 L202.424,54.008 C202.424,54.328 202.458,54.618 202.526,54.878 C202.594,55.138 202.702,55.362 202.85,55.55 C202.998,55.738 203.19,55.884 203.426,55.988 C203.662,56.092 203.952,56.144 204.296,56.144 Z M208.88,56.144 C209.256,56.144 209.616,56.084 209.96,55.964 C210.304,55.844 210.616,55.692 210.896,55.508 L210.896,55.508 L210.428,54.644 C210.212,54.78 209.994,54.886 209.774,54.962 C209.554,55.038 209.316,55.076 209.06,55.076 C208.58,55.076 208.186,54.934 207.878,54.65 C207.57,54.366 207.384,53.96 207.32,53.432 L207.32,53.432 L211.064,53.432 C211.08,53.36 211.094,53.264 211.106,53.144 C211.118,53.024 211.124,52.896 211.124,52.76 C211.124,52.352 211.072,51.976 210.968,51.632 C210.864,51.288 210.71,50.992 210.506,50.744 C210.302,50.496 210.048,50.304 209.744,50.168 C209.44,50.032 209.088,49.964 208.688,49.964 C208.344,49.964 208.008,50.036 207.68,50.18 C207.352,50.324 207.062,50.528 206.81,50.792 C206.558,51.056 206.356,51.38 206.204,51.764 C206.052,52.148 205.976,52.58 205.976,53.06 C205.976,53.548 206.05,53.982 206.198,54.362 C206.346,54.742 206.552,55.064 206.816,55.328 C207.08,55.592 207.388,55.794 207.74,55.934 C208.092,56.074 208.472,56.144 208.88,56.144 Z M209.924,52.496 L207.308,52.496 C207.372,52.016 207.536,51.652 207.8,51.404 C208.064,51.156 208.372,51.032 208.724,51.032 C209.132,51.032 209.434,51.162 209.63,51.422 C209.826,51.682 209.924,52.04 209.924,52.496 L209.924,52.496 Z M214.508,56.144 C214.828,56.144 215.132,56.068 215.42,55.916 C215.708,55.764 215.96,55.58 216.176,55.364 L216.176,55.364 L216.224,55.364 L216.32,56 L217.46,56 L217.46,47.528 L216.08,47.528 L216.08,49.664 L216.128,50.612 C215.896,50.412 215.664,50.254 215.432,50.138 C215.2,50.022 214.916,49.964 214.58,49.964 C214.26,49.964 213.95,50.036 213.65,50.18 C213.35,50.324 213.084,50.528 212.852,50.792 C212.62,51.056 212.434,51.38 212.294,51.764 C212.154,52.148 212.084,52.58 212.084,53.06 C212.084,54.036 212.302,54.794 212.738,55.334 C213.174,55.874 213.764,56.144 214.508,56.144 Z M214.844,55.004 C214.412,55.004 214.082,54.838 213.854,54.506 C213.626,54.174 213.512,53.688 213.512,53.048 C213.512,52.424 213.644,51.944 213.908,51.608 C214.172,51.272 214.496,51.104 214.88,51.104 C215.08,51.104 215.278,51.14 215.474,51.212 C215.67,51.284 215.872,51.412 216.08,51.596 L216.08,51.596 L216.08,54.344 C215.696,54.784 215.284,55.004 214.844,55.004 Z M158.384,72.32 L158.384,71.108 C158.96,71.028 159.414,70.804 159.746,70.436 C160.078,70.068 160.244,69.596 160.244,69.02 C160.244,68.588 160.162,68.234 159.998,67.958 C159.834,67.682 159.628,67.45 159.38,67.262 C159.132,67.074 158.862,66.914 158.57,66.782 C158.278,66.65 158.008,66.514 157.76,66.374 C157.512,66.234 157.306,66.072 157.142,65.888 C156.978,65.704 156.896,65.468 156.896,65.18 C156.896,64.828 157.004,64.548 157.22,64.34 C157.436,64.132 157.728,64.028 158.096,64.028 C158.424,64.028 158.694,64.088 158.906,64.208 C159.118,64.328 159.336,64.496 159.56,64.712 L159.56,64.712 L160.088,64.124 C159.872,63.892 159.63,63.692 159.362,63.524 C159.094,63.356 158.768,63.252 158.384,63.212 L158.384,63.212 L158.384,62.024 L157.664,62.024 L157.664,63.236 C157.136,63.316 156.714,63.534 156.398,63.89 C156.082,64.246 155.924,64.692 155.924,65.228 C155.924,65.62 156.006,65.942 156.17,66.194 C156.334,66.446 156.54,66.66 156.788,66.836 C157.036,67.012 157.306,67.168 157.598,67.304 C157.89,67.44 158.16,67.586 158.408,67.742 C158.656,67.898 158.862,68.082 159.026,68.294 C159.19,68.506 159.272,68.772 159.272,69.092 C159.272,69.468 159.162,69.768 158.942,69.992 C158.722,70.216 158.388,70.328 157.94,70.328 C157.572,70.328 157.234,70.25 156.926,70.094 C156.618,69.938 156.336,69.748 156.08,69.524 L156.08,69.524 L155.624,70.208 C155.88,70.44 156.188,70.642 156.548,70.814 C156.908,70.986 157.28,71.092 157.664,71.132 L157.664,71.132 L157.664,72.32 L158.384,72.32 Z M166.232,71 L166.232,70.184 L164.648,70.184 L164.648,63.344 L163.892,63.344 C163.684,63.472 163.45,63.582 163.19,63.674 C162.93,63.766 162.624,63.844 162.272,63.908 L162.272,63.908 L162.272,64.544 L163.664,64.544 L163.664,70.184 L161.912,70.184 L161.912,71 L166.232,71 Z M170.516,71 C170.956,71 171.36,70.952 171.728,70.856 C172.096,70.76 172.412,70.616 172.676,70.424 C172.94,70.232 173.144,69.992 173.288,69.704 C173.432,69.416 173.504,69.08 173.504,68.696 C173.504,68.152 173.356,67.724 173.06,67.412 C172.764,67.1 172.376,66.9 171.896,66.812 L171.896,66.812 L171.896,66.764 C172.272,66.644 172.558,66.426 172.754,66.11 C172.95,65.794 173.048,65.44 173.048,65.048 C173.048,64.704 172.982,64.41 172.85,64.166 C172.718,63.922 172.534,63.724 172.298,63.572 C172.062,63.42 171.778,63.308 171.446,63.236 C171.114,63.164 170.748,63.128 170.348,63.128 L170.348,63.128 L168.008,63.128 L168.008,71 L170.516,71 Z M170.168,66.476 L169.004,66.476 L169.004,63.92 L170.216,63.92 C170.832,63.92 171.294,64.016 171.602,64.208 C171.91,64.4 172.064,64.724 172.064,65.18 C172.064,65.58 171.916,65.896 171.62,66.128 C171.324,66.36 170.84,66.476 170.168,66.476 L170.168,66.476 Z M170.372,70.208 L169.004,70.208 L169.004,67.244 L170.372,67.244 C171.068,67.244 171.6,67.358 171.968,67.586 C172.336,67.814 172.52,68.172 172.52,68.66 C172.52,69.188 172.332,69.578 171.956,69.83 C171.58,70.082 171.052,70.208 170.372,70.208 L170.372,70.208 Z" id="Unobligated$1B" fill="#666666" fill-rule="nonzero"></path>
                    <line x1="10.5" y1="23" x2="10.5" y2="38" id="Line" stroke="#C6C6C6"></line>
                    <path d="M178,23 L178,27.6176471 C178,28.7222166 177.104569,29.6176471 176,29.6176471 L97,29.6176471 C95.8954305,29.6176471 95,30.5130776 95,31.6176471 L95,38 L95,38" id="Line-Copy-7" stroke="#C6C6C6" stroke-linecap="round" transform="translate(136.500000, 30.500000) scale(-1, 1) translate(-136.500000, -30.500000) "></path>
                    <path d="M117.368,12.54 L117.368,11.084 C118.096,10.9253333 118.642,10.6056667 119.006,10.125 C119.37,9.64433333 119.552,9.068 119.552,8.396 C119.552,7.948 119.461,7.57233333 119.279,7.269 C119.097,6.96566667 118.868333,6.70666667 118.593,6.492 C118.317667,6.27733333 118.021333,6.09533333 117.704,5.946 C117.386667,5.79666667 117.090333,5.652 116.815,5.512 C116.539667,5.372 116.311,5.225 116.129,5.071 C115.947,4.917 115.856,4.728 115.856,4.504 C115.856,4.18666667 115.944667,3.958 116.122,3.818 C116.299333,3.678 116.556,3.608 116.892,3.608 C117.190667,3.608 117.456667,3.66633333 117.69,3.783 C117.923333,3.89966667 118.166,4.07466667 118.418,4.308 L118.418,4.308 L119.454,3.132 C119.183333,2.84266667 118.88,2.59533333 118.544,2.39 C118.208,2.18466667 117.816,2.04933333 117.368,1.984 L117.368,1.984 L117.368,0.57 L116.01,0.57 L116.01,2.012 C115.347333,2.14266667 114.827,2.43433333 114.449,2.887 C114.071,3.33966667 113.882,3.91133333 113.882,4.602 C113.882,5.022 113.973,5.37666667 114.155,5.666 C114.337,5.95533333 114.565667,6.20733333 114.841,6.422 C115.116333,6.63666667 115.412667,6.821 115.73,6.975 C116.047333,7.129 116.343667,7.283 116.619,7.437 C116.894333,7.591 117.123,7.752 117.305,7.92 C117.487,8.088 117.578,8.29333333 117.578,8.536 C117.578,8.86266667 117.487,9.10533333 117.305,9.264 C117.123,9.42266667 116.836,9.502 116.444,9.502 C116.108,9.502 115.779,9.43433333 115.457,9.299 C115.135,9.16366667 114.796667,8.96066667 114.442,8.69 L114.442,8.69 L113.546,10.076 C113.872667,10.3746667 114.262333,10.615 114.715,10.797 C115.167667,10.979 115.599333,11.0933333 116.01,11.14 L116.01,11.14 L116.01,12.54 L117.368,12.54 Z M124.074,11.168 C124.55,11.168 124.981667,11.105 125.369,10.979 C125.756333,10.853 126.087667,10.6803333 126.363,10.461 C126.638333,10.2416667 126.850667,9.98266667 127,9.684 C127.149333,9.38533333 127.224,9.05866667 127.224,8.704 C127.224,8.116 127.074667,7.64 126.776,7.276 C126.477333,6.912 126.113333,6.61333333 125.684,6.38 L125.684,6.38 L125.684,6.324 C125.992,6.11866667 126.262667,5.85033333 126.496,5.519 C126.729333,5.18766667 126.846,4.80733333 126.846,4.378 C126.846,4.014 126.780667,3.68033333 126.65,3.377 C126.519333,3.07366667 126.337333,2.817 126.104,2.607 C125.870667,2.397 125.586,2.23366667 125.25,2.117 C124.914,2.00033333 124.545333,1.942 124.144,1.942 C123.733333,1.942 123.353,1.998 123.003,2.11 C122.653,2.222 122.352,2.38533333 122.1,2.6 C121.848,2.81466667 121.652,3.07366667 121.512,3.377 C121.372,3.68033333 121.302,4.01866667 121.302,4.392 C121.302,4.868 121.414,5.27166667 121.638,5.603 C121.862,5.93433333 122.146667,6.23066667 122.492,6.492 L122.492,6.492 L122.492,6.548 C122.072,6.772 121.715,7.05666667 121.421,7.402 C121.127,7.74733333 120.98,8.19066667 120.98,8.732 C120.98,9.096 121.057,9.42733333 121.211,9.726 C121.365,10.0246667 121.579667,10.2813333 121.855,10.496 C122.130333,10.7106667 122.457,10.8763333 122.835,10.993 C123.213,11.1096667 123.626,11.168 124.074,11.168 Z M124.634,5.82 C124.176667,5.64266667 123.808,5.45133333 123.528,5.246 C123.248,5.04066667 123.108,4.756 123.108,4.392 C123.108,4.04666667 123.206,3.79 123.402,3.622 C123.598,3.454 123.831333,3.37 124.102,3.37 C124.438,3.37 124.701667,3.475 124.893,3.685 C125.084333,3.895 125.18,4.17266667 125.18,4.518 C125.18,4.966 124.998,5.4 124.634,5.82 Z M124.116,9.74 C123.742667,9.74 123.420667,9.63033333 123.15,9.411 C122.879333,9.19166667 122.744,8.886 122.744,8.494 C122.744,8.22333333 122.809333,7.96666667 122.94,7.724 C123.070667,7.48133333 123.234,7.26666667 123.43,7.08 C123.71,7.20133333 123.964333,7.31333333 124.193,7.416 C124.421667,7.51866667 124.62,7.62833333 124.788,7.745 C124.956,7.86166667 125.084333,7.99 125.173,8.13 C125.261667,8.27 125.306,8.438 125.306,8.634 C125.306,9.00733333 125.194,9.285 124.97,9.467 C124.746,9.649 124.461333,9.74 124.116,9.74 Z M132.25,11 C132.744667,11 133.206667,10.9463333 133.636,10.839 C134.065333,10.7316667 134.441,10.5683333 134.763,10.349 C135.085,10.1296667 135.337,9.852 135.519,9.516 C135.701,9.18 135.792,8.77866667 135.792,8.312 C135.792,8.004 135.75,7.731 135.666,7.493 C135.582,7.255 135.465333,7.04733333 135.316,6.87 C135.166667,6.69266667 134.994,6.54566667 134.798,6.429 C134.602,6.31233333 134.387333,6.226 134.154,6.17 L134.154,6.17 L134.154,6.114 C134.340667,6.04866667 134.506333,5.946 134.651,5.806 C134.795667,5.666 134.919333,5.50733333 135.022,5.33 C135.124667,5.15266667 135.204,4.96133333 135.26,4.756 C135.316,4.55066667 135.344,4.34533333 135.344,4.14 C135.344,3.70133333 135.257667,3.33733333 135.085,3.048 C134.912333,2.75866667 134.674333,2.52533333 134.371,2.348 C134.067667,2.17066667 133.713,2.047 133.307,1.977 C132.901,1.907 132.46,1.872 131.984,1.872 L131.984,1.872 L128.862,1.872 L128.862,11 L132.25,11 Z M131.886,5.526 L130.92,5.526 L130.92,3.468 L131.9,3.468 C132.385333,3.468 132.744667,3.54266667 132.978,3.692 C133.211333,3.84133333 133.328,4.09333333 133.328,4.448 C133.328,4.77466667 133.213667,5.036 132.985,5.232 C132.756333,5.428 132.39,5.526 131.886,5.526 L131.886,5.526 Z M132.082,9.404 L130.92,9.404 L130.92,7.052 L132.082,7.052 C132.651333,7.052 133.076,7.13833333 133.356,7.311 C133.636,7.48366667 133.776,7.77066667 133.776,8.172 C133.776,8.99333333 133.211333,9.404 132.082,9.404 L132.082,9.404 Z" id="$8B" fill="#555555" fill-rule="nonzero"></path>
                </g>
                <g id="Group" transform="translate(0.000000, 0.000000)">
                    <rect id="unobligated" fill="#F3E9FF" x="86" y="-2.27373675e-13" width="15" height="30"></rect>
                    <rect id="obligated" fill="#6F41A7" x="17" y="-2.27373675e-13" width="69" height="30"></rect>
                    <rect id="outlays" fill="#331E4D" x="0" y="-2.27373675e-13" width="19" height="30"></rect>
                </g>
            </g>
        </g>
    </g>
</svg>