<?xml version="1.0" encoding="UTF-8"?>
<svg width="324px" height="75px" viewBox="0 0 324 75" version="1.1" xmlns="http://www.w3.org/2000/svg">
    <title>05. mobile - phase 3 general</title>
    <g id="SVG" stroke="none" stroke-width="1" fill="none" fill-rule="evenodd">
        <g id="Viz-3---Mobile-Outline" transform="translate(-37.000000, -1056.000000)">
            <g id="05.-mobile---phase-3-general" transform="translate(37.000000, 1056.000000)">
                <path d="M4.044,57.144 C4.556,57.144 5.024,57.05 5.448,56.862 C5.872,56.674 6.238,56.402 6.546,56.046 C6.854,55.69 7.092,55.26 7.26,54.756 C7.428,54.252 7.512,53.68 7.512,53.04 C7.512,52.408 7.428,51.842 7.26,51.342 C7.092,50.842 6.854,50.42 6.546,50.076 C6.238,49.732 5.872,49.468 5.448,49.284 C5.024,49.1 4.556,49.008 4.044,49.008 C3.532,49.008 3.064,49.1 2.64,49.284 C2.216,49.468 1.852,49.732 1.548,50.076 C1.244,50.42 1.008,50.842 0.84,51.342 C0.672,51.842 0.588,52.408 0.588,53.04 C0.588,53.68 0.672,54.252 0.84,54.756 C1.008,55.26 1.244,55.69 1.548,56.046 C1.852,56.402 2.216,56.674 2.64,56.862 C3.064,57.05 3.532,57.144 4.044,57.144 Z M4.044,55.932 C3.732,55.932 3.452,55.864 3.204,55.728 C2.956,55.592 2.744,55.398 2.568,55.146 C2.392,54.894 2.256,54.59 2.16,54.234 C2.064,53.878 2.016,53.48 2.016,53.04 C2.016,52.16 2.198,51.47 2.562,50.97 C2.926,50.47 3.42,50.22 4.044,50.22 C4.668,50.22 5.162,50.47 5.526,50.97 C5.89,51.47 6.072,52.16 6.072,53.04 C6.072,53.48 6.024,53.878 5.928,54.234 C5.832,54.59 5.696,54.894 5.52,55.146 C5.344,55.398 5.132,55.592 4.884,55.728 C4.636,55.864 4.356,55.932 4.044,55.932 Z M10.716,57.144 C11.124,57.144 11.478,57.052 11.778,56.868 C12.078,56.684 12.356,56.44 12.612,56.136 L12.612,56.136 L12.648,56.136 L12.756,57 L13.884,57 L13.884,51.108 L12.504,51.108 L12.504,55.14 C12.28,55.428 12.07,55.636 11.874,55.764 C11.678,55.892 11.452,55.956 11.196,55.956 C10.876,55.956 10.644,55.856 10.5,55.656 C10.356,55.456 10.284,55.112 10.284,54.624 L10.284,54.624 L10.284,51.108 L8.904,51.108 L8.904,54.804 C8.904,55.556 9.048,56.134 9.336,56.538 C9.624,56.942 10.084,57.144 10.716,57.144 Z M17.712,57.144 C17.944,57.144 18.162,57.122 18.366,57.078 C18.57,57.034 18.752,56.984 18.912,56.928 L18.912,56.928 L18.672,55.908 C18.584,55.948 18.486,55.98 18.378,56.004 C18.27,56.028 18.164,56.04 18.06,56.04 C17.508,56.04 17.232,55.696 17.232,55.008 L17.232,55.008 L17.232,52.2 L18.732,52.2 L18.732,51.108 L17.232,51.108 L17.232,49.5 L16.08,49.5 L15.912,51.108 L15,51.168 L15,52.2 L15.84,52.2 L15.84,55.008 C15.84,55.328 15.874,55.618 15.942,55.878 C16.01,56.138 16.118,56.362 16.266,56.55 C16.414,56.738 16.606,56.884 16.842,56.988 C17.078,57.092 17.368,57.144 17.712,57.144 Z M21.312,57.144 C21.616,57.144 21.86,57.104 22.044,57.024 L22.044,57.024 L21.864,55.992 C21.808,56.008 21.766,56.016 21.738,56.016 L21.738,56.016 L21.648,56.016 C21.576,56.016 21.508,55.982 21.444,55.914 C21.38,55.846 21.348,55.728 21.348,55.56 L21.348,55.56 L21.348,48.528 L19.968,48.528 L19.968,55.488 C19.968,56 20.068,56.404 20.268,56.7 C20.468,56.996 20.816,57.144 21.312,57.144 Z M24.648,57.144 C25,57.144 25.326,57.068 25.626,56.916 C25.926,56.764 26.208,56.576 26.472,56.352 L26.472,56.352 L26.52,56.352 L26.616,57 L27.756,57 L27.756,53.508 C27.756,52.684 27.574,52.054 27.21,51.618 C26.846,51.182 26.296,50.964 25.56,50.964 C25.088,50.964 24.648,51.04 24.24,51.192 C23.832,51.344 23.464,51.524 23.136,51.732 L23.136,51.732 L23.64,52.656 C23.904,52.496 24.174,52.36 24.45,52.248 C24.726,52.136 25.008,52.08 25.296,52.08 C25.496,52.08 25.664,52.11 25.8,52.17 C25.936,52.23 26.046,52.314 26.13,52.422 C26.214,52.53 26.274,52.654 26.31,52.794 C26.346,52.934 26.368,53.08 26.376,53.232 C25.768,53.296 25.246,53.388 24.81,53.508 C24.374,53.628 24.014,53.776 23.73,53.952 C23.446,54.128 23.238,54.338 23.106,54.582 C22.974,54.826 22.908,55.104 22.908,55.416 C22.908,55.936 23.068,56.354 23.388,56.67 C23.708,56.986 24.128,57.144 24.648,57.144 Z M25.092,56.064 C24.844,56.064 24.64,56.004 24.48,55.884 C24.32,55.764 24.24,55.572 24.24,55.308 C24.24,55.164 24.276,55.028 24.348,54.9 C24.42,54.772 24.54,54.658 24.708,54.558 C24.876,54.458 25.096,54.368 25.368,54.288 C25.64,54.208 25.976,54.144 26.376,54.096 L26.376,54.096 L26.376,55.416 C26.152,55.624 25.942,55.784 25.746,55.896 C25.55,56.008 25.332,56.064 25.092,56.064 Z M29.808,59.424 C30.128,59.424 30.41,59.374 30.654,59.274 C30.898,59.174 31.114,59.03 31.302,58.842 C31.49,58.654 31.656,58.428 31.8,58.164 C31.944,57.9 32.076,57.6 32.196,57.264 L32.196,57.264 L34.332,51.108 L33,51.108 L32.112,54 C32.04,54.264 31.966,54.538 31.89,54.822 C31.814,55.106 31.74,55.384 31.668,55.656 L31.668,55.656 L31.62,55.656 C31.532,55.376 31.446,55.094 31.362,54.81 C31.278,54.526 31.192,54.256 31.104,54 L31.104,54 L30.084,51.108 L28.68,51.108 L30.996,56.928 L30.888,57.3 C30.792,57.596 30.65,57.838 30.462,58.026 C30.274,58.214 30.024,58.308 29.712,58.308 C29.64,58.308 29.566,58.298 29.49,58.278 C29.414,58.258 29.348,58.24 29.292,58.224 L29.292,58.224 L29.04,59.304 C29.152,59.344 29.268,59.374 29.388,59.394 C29.508,59.414 29.648,59.424 29.808,59.424 Z M36.996,57.144 C37.364,57.144 37.692,57.096 37.98,57 C38.268,56.904 38.508,56.774 38.7,56.61 C38.892,56.446 39.038,56.254 39.138,56.034 C39.238,55.814 39.288,55.576 39.288,55.32 C39.288,55.048 39.238,54.814 39.138,54.618 C39.038,54.422 38.906,54.256 38.742,54.12 C38.578,53.984 38.396,53.87 38.196,53.778 C37.996,53.686 37.796,53.604 37.596,53.532 C37.436,53.476 37.282,53.42 37.134,53.364 C36.986,53.308 36.856,53.248 36.744,53.184 C36.632,53.12 36.542,53.046 36.474,52.962 C36.406,52.878 36.372,52.776 36.372,52.656 C36.372,52.472 36.442,52.318 36.582,52.194 C36.722,52.07 36.94,52.008 37.236,52.008 C37.468,52.008 37.69,52.054 37.902,52.146 C38.114,52.238 38.324,52.36 38.532,52.512 L38.532,52.512 L39.168,51.672 C38.928,51.488 38.644,51.324 38.316,51.18 C37.988,51.036 37.62,50.964 37.212,50.964 C36.548,50.964 36.024,51.128 35.64,51.456 C35.256,51.784 35.064,52.208 35.064,52.728 C35.064,52.976 35.114,53.19 35.214,53.37 C35.314,53.55 35.442,53.708 35.598,53.844 C35.754,53.98 35.932,54.096 36.132,54.192 C36.332,54.288 36.528,54.372 36.72,54.444 C36.872,54.508 37.024,54.57 37.176,54.63 C37.328,54.69 37.464,54.756 37.584,54.828 C37.704,54.9 37.8,54.982 37.872,55.074 C37.944,55.166 37.98,55.272 37.98,55.392 C37.98,55.6 37.904,55.77 37.752,55.902 C37.6,56.034 37.364,56.1 37.044,56.1 C36.74,56.1 36.458,56.042 36.198,55.926 C35.938,55.81 35.676,55.648 35.412,55.44 L35.412,55.44 L34.764,56.328 C35.052,56.56 35.394,56.754 35.79,56.91 C36.186,57.066 36.588,57.144 36.996,57.144 Z M3.384,73.32 L3.384,72.108 C3.96,72.028 4.414,71.804 4.746,71.436 C5.078,71.068 5.244,70.596 5.244,70.02 C5.244,69.588 5.162,69.234 4.998,68.958 C4.834,68.682 4.628,68.45 4.38,68.262 C4.132,68.074 3.862,67.914 3.57,67.782 C3.278,67.65 3.008,67.514 2.76,67.374 C2.512,67.234 2.306,67.072 2.142,66.888 C1.978,66.704 1.896,66.468 1.896,66.18 C1.896,65.828 2.004,65.548 2.22,65.34 C2.436,65.132 2.728,65.028 3.096,65.028 C3.424,65.028 3.694,65.088 3.906,65.208 C4.118,65.328 4.336,65.496 4.56,65.712 L4.56,65.712 L5.088,65.124 C4.872,64.892 4.63,64.692 4.362,64.524 C4.094,64.356 3.768,64.252 3.384,64.212 L3.384,64.212 L3.384,63.024 L2.664,63.024 L2.664,64.236 C2.136,64.316 1.714,64.534 1.398,64.89 C1.082,65.246 0.924,65.692 0.924,66.228 C0.924,66.62 1.006,66.942 1.17,67.194 C1.334,67.446 1.54,67.66 1.788,67.836 C2.036,68.012 2.306,68.168 2.598,68.304 C2.89,68.44 3.16,68.586 3.408,68.742 C3.656,68.898 3.862,69.082 4.026,69.294 C4.19,69.506 4.272,69.772 4.272,70.092 C4.272,70.468 4.162,70.768 3.942,70.992 C3.722,71.216 3.388,71.328 2.94,71.328 C2.572,71.328 2.234,71.25 1.926,71.094 C1.618,70.938 1.336,70.748 1.08,70.524 L1.08,70.524 L0.624,71.208 C0.88,71.44 1.188,71.642 1.548,71.814 C1.908,71.986 2.28,72.092 2.664,72.132 L2.664,72.132 L2.664,73.32 L3.384,73.32 Z M8.964,72.144 C9.332,72.144 9.668,72.092 9.972,71.988 C10.276,71.884 10.536,71.74 10.752,71.556 C10.968,71.372 11.136,71.156 11.256,70.908 C11.376,70.66 11.436,70.392 11.436,70.104 C11.436,69.848 11.398,69.62 11.322,69.42 C11.246,69.22 11.146,69.042 11.022,68.886 C10.898,68.73 10.756,68.59 10.596,68.466 C10.436,68.342 10.272,68.232 10.104,68.136 L10.104,68.136 L10.104,68.088 C10.224,68 10.346,67.892 10.47,67.764 C10.594,67.636 10.706,67.492 10.806,67.332 C10.906,67.172 10.99,67 11.058,66.816 C11.126,66.632 11.16,66.44 11.16,66.24 C11.16,65.944 11.11,65.67 11.01,65.418 C10.91,65.166 10.766,64.95 10.578,64.77 C10.39,64.59 10.164,64.45 9.9,64.35 C9.636,64.25 9.336,64.2 9,64.2 C8.688,64.2 8.4,64.248 8.136,64.344 C7.872,64.44 7.644,64.574 7.452,64.746 C7.26,64.918 7.108,65.124 6.996,65.364 C6.884,65.604 6.828,65.872 6.828,66.168 C6.828,66.576 6.936,66.922 7.152,67.206 C7.368,67.49 7.616,67.732 7.896,67.932 L7.896,67.932 L7.896,67.98 C7.712,68.076 7.534,68.19 7.362,68.322 C7.19,68.454 7.038,68.606 6.906,68.778 C6.774,68.95 6.666,69.142 6.582,69.354 C6.498,69.566 6.456,69.796 6.456,70.044 C6.456,70.348 6.52,70.628 6.648,70.884 C6.776,71.14 6.95,71.362 7.17,71.55 C7.39,71.738 7.654,71.884 7.962,71.988 C8.27,72.092 8.604,72.144 8.964,72.144 Z M9.504,67.824 C9.272,67.736 9.05,67.642 8.838,67.542 C8.626,67.442 8.438,67.328 8.274,67.2 C8.11,67.072 7.98,66.926 7.884,66.762 C7.788,66.598 7.74,66.4 7.74,66.168 C7.74,65.792 7.856,65.492 8.088,65.268 C8.32,65.044 8.616,64.932 8.976,64.932 C9.4,64.932 9.728,65.062 9.96,65.322 C10.192,65.582 10.308,65.904 10.308,66.288 C10.308,66.568 10.238,66.836 10.098,67.092 C9.958,67.348 9.76,67.592 9.504,67.824 Z M8.988,71.412 C8.756,71.412 8.54,71.376 8.34,71.304 C8.14,71.232 7.966,71.13 7.818,70.998 C7.67,70.866 7.554,70.712 7.47,70.536 C7.386,70.36 7.344,70.164 7.344,69.948 C7.344,69.596 7.446,69.282 7.65,69.006 C7.854,68.73 8.108,68.488 8.412,68.28 C8.684,68.392 8.946,68.502 9.198,68.61 C9.45,68.718 9.672,68.838 9.864,68.97 C10.056,69.102 10.208,69.256 10.32,69.432 C10.432,69.608 10.488,69.82 10.488,70.068 C10.488,70.468 10.35,70.792 10.074,71.04 C9.798,71.288 9.436,71.412 8.988,71.412 Z M14.736,72.144 C15.072,72.144 15.394,72.086 15.702,71.97 C16.01,71.854 16.284,71.686 16.524,71.466 C16.764,71.246 16.956,70.976 17.1,70.656 C17.244,70.336 17.316,69.968 17.316,69.552 C17.316,69.136 17.254,68.778 17.13,68.478 C17.006,68.178 16.836,67.93 16.62,67.734 C16.404,67.538 16.152,67.392 15.864,67.296 C15.576,67.2 15.268,67.152 14.94,67.152 C14.708,67.152 14.5,67.18 14.316,67.236 C14.132,67.292 13.948,67.368 13.764,67.464 L13.764,67.464 L13.968,65.196 L16.932,65.196 L16.932,64.344 L13.104,64.344 L12.852,68.028 L13.38,68.364 C13.612,68.212 13.822,68.096 14.01,68.016 C14.198,67.936 14.424,67.896 14.688,67.896 C15.184,67.896 15.58,68.044 15.876,68.34 C16.172,68.636 16.32,69.048 16.32,69.576 C16.32,69.84 16.276,70.08 16.188,70.296 C16.1,70.512 15.98,70.696 15.828,70.848 C15.676,71 15.498,71.118 15.294,71.202 C15.09,71.286 14.872,71.328 14.64,71.328 C14.192,71.328 13.814,71.24 13.506,71.064 C13.198,70.888 12.932,70.684 12.708,70.452 L12.708,70.452 L12.228,71.1 C12.356,71.236 12.502,71.366 12.666,71.49 C12.83,71.614 13.014,71.724 13.218,71.82 C13.422,71.916 13.65,71.994 13.902,72.054 C14.154,72.114 14.432,72.144 14.736,72.144 Z M23.316,72 L23.316,71.148 L21.096,71.148 C20.896,71.148 20.684,71.156 20.46,71.172 C20.236,71.188 20.02,71.204 19.812,71.22 C20.268,70.748 20.686,70.302 21.066,69.882 C21.446,69.462 21.774,69.058 22.05,68.67 C22.326,68.282 22.542,67.906 22.698,67.542 C22.854,67.178 22.932,66.816 22.932,66.456 C22.932,65.776 22.728,65.23 22.32,64.818 C21.912,64.406 21.352,64.2 20.64,64.2 C20.136,64.2 19.704,64.306 19.344,64.518 C18.984,64.73 18.644,65.012 18.324,65.364 L18.324,65.364 L18.888,65.928 C19.112,65.672 19.36,65.454 19.632,65.274 C19.904,65.094 20.2,65.004 20.52,65.004 C21.008,65.004 21.372,65.144 21.612,65.424 C21.852,65.704 21.972,66.064 21.972,66.504 C21.972,66.816 21.892,67.138 21.732,67.47 C21.572,67.802 21.34,68.166 21.036,68.562 C20.732,68.958 20.356,69.388 19.908,69.852 C19.46,70.316 18.948,70.836 18.372,71.412 L18.372,71.412 L18.372,72 L23.316,72 Z M27.444,72 C27.884,72 28.288,71.952 28.656,71.856 C29.024,71.76 29.34,71.616 29.604,71.424 C29.868,71.232 30.072,70.992 30.216,70.704 C30.36,70.416 30.432,70.08 30.432,69.696 C30.432,69.152 30.284,68.724 29.988,68.412 C29.692,68.1 29.304,67.9 28.824,67.812 L28.824,67.812 L28.824,67.764 C29.2,67.644 29.486,67.426 29.682,67.11 C29.878,66.794 29.976,66.44 29.976,66.048 C29.976,65.704 29.91,65.41 29.778,65.166 C29.646,64.922 29.462,64.724 29.226,64.572 C28.99,64.42 28.706,64.308 28.374,64.236 C28.042,64.164 27.676,64.128 27.276,64.128 L27.276,64.128 L24.936,64.128 L24.936,72 L27.444,72 Z M27.096,67.476 L25.932,67.476 L25.932,64.92 L27.144,64.92 C27.76,64.92 28.222,65.016 28.53,65.208 C28.838,65.4 28.992,65.724 28.992,66.18 C28.992,66.58 28.844,66.896 28.548,67.128 C28.252,67.36 27.768,67.476 27.096,67.476 L27.096,67.476 Z M27.3,71.208 L25.932,71.208 L25.932,68.244 L27.3,68.244 C27.996,68.244 28.528,68.358 28.896,68.586 C29.264,68.814 29.448,69.172 29.448,69.66 C29.448,70.188 29.26,70.578 28.884,70.83 C28.508,71.082 27.98,71.208 27.3,71.208 L27.3,71.208 Z" id="Outlays$852B" fill="#666666" fill-rule="nonzero"></path>
                <path d="M124.044,57.144 C124.556,57.144 125.024,57.05 125.448,56.862 C125.872,56.674 126.238,56.402 126.546,56.046 C126.854,55.69 127.092,55.26 127.26,54.756 C127.428,54.252 127.512,53.68 127.512,53.04 C127.512,52.408 127.428,51.842 127.26,51.342 C127.092,50.842 126.854,50.42 126.546,50.076 C126.238,49.732 125.872,49.468 125.448,49.284 C125.024,49.1 124.556,49.008 124.044,49.008 C123.532,49.008 123.064,49.1 122.64,49.284 C122.216,49.468 121.852,49.732 121.548,50.076 C121.244,50.42 121.008,50.842 120.84,51.342 C120.672,51.842 120.588,52.408 120.588,53.04 C120.588,53.68 120.672,54.252 120.84,54.756 C121.008,55.26 121.244,55.69 121.548,56.046 C121.852,56.402 122.216,56.674 122.64,56.862 C123.064,57.05 123.532,57.144 124.044,57.144 Z M124.044,55.932 C123.732,55.932 123.452,55.864 123.204,55.728 C122.956,55.592 122.744,55.398 122.568,55.146 C122.392,54.894 122.256,54.59 122.16,54.234 C122.064,53.878 122.016,53.48 122.016,53.04 C122.016,52.16 122.198,51.47 122.562,50.97 C122.926,50.47 123.42,50.22 124.044,50.22 C124.668,50.22 125.162,50.47 125.526,50.97 C125.89,51.47 126.072,52.16 126.072,53.04 C126.072,53.48 126.024,53.878 125.928,54.234 C125.832,54.59 125.696,54.894 125.52,55.146 C125.344,55.398 125.132,55.592 124.884,55.728 C124.636,55.864 124.356,55.932 124.044,55.932 Z M131.82,57.144 C132.148,57.144 132.464,57.072 132.768,56.928 C133.072,56.784 133.34,56.576 133.572,56.304 C133.804,56.032 133.99,55.698 134.13,55.302 C134.27,54.906 134.34,54.456 134.34,53.952 C134.34,53.496 134.288,53.084 134.184,52.716 C134.08,52.348 133.928,52.034 133.728,51.774 C133.528,51.514 133.284,51.314 132.996,51.174 C132.708,51.034 132.38,50.964 132.012,50.964 C131.708,50.964 131.41,51.032 131.118,51.168 C130.826,51.304 130.556,51.48 130.308,51.696 L130.308,51.696 L130.344,50.712 L130.344,48.528 L128.964,48.528 L128.964,57 L130.056,57 L130.176,56.376 L130.212,56.376 C130.46,56.624 130.722,56.814 130.998,56.946 C131.274,57.078 131.548,57.144 131.82,57.144 Z M131.532,56.004 C131.356,56.004 131.166,55.968 130.962,55.896 C130.758,55.824 130.552,55.696 130.344,55.512 L130.344,55.512 L130.344,52.764 C130.792,52.324 131.224,52.104 131.64,52.104 C132.088,52.104 132.412,52.268 132.612,52.596 C132.812,52.924 132.912,53.384 132.912,53.976 C132.912,54.648 132.78,55.154 132.516,55.494 C132.252,55.834 131.924,56.004 131.532,56.004 Z M137.064,57.144 C137.368,57.144 137.612,57.104 137.796,57.024 L137.796,57.024 L137.616,55.992 C137.56,56.008 137.518,56.016 137.49,56.016 L137.49,56.016 L137.4,56.016 C137.328,56.016 137.26,55.982 137.196,55.914 C137.132,55.846 137.1,55.728 137.1,55.56 L137.1,55.56 L137.1,48.528 L135.72,48.528 L135.72,55.488 C135.72,56 135.82,56.404 136.02,56.7 C136.22,56.996 136.568,57.144 137.064,57.144 Z M139.668,50.076 C139.916,50.076 140.12,50.004 140.28,49.86 C140.44,49.716 140.52,49.528 140.52,49.296 C140.52,49.064 140.44,48.874 140.28,48.726 C140.12,48.578 139.916,48.504 139.668,48.504 C139.42,48.504 139.216,48.578 139.056,48.726 C138.896,48.874 138.816,49.064 138.816,49.296 C138.816,49.528 138.896,49.716 139.056,49.86 C139.216,50.004 139.42,50.076 139.668,50.076 Z M140.352,57 L140.352,51.108 L138.972,51.108 L138.972,57 L140.352,57 Z M144.168,59.604 C144.648,59.604 145.082,59.55 145.47,59.442 C145.858,59.334 146.188,59.188 146.46,59.004 C146.732,58.82 146.942,58.6 147.09,58.344 C147.238,58.088 147.312,57.816 147.312,57.528 C147.312,57.016 147.13,56.646 146.766,56.418 C146.402,56.19 145.864,56.076 145.152,56.076 L145.152,56.076 L144.108,56.076 C143.748,56.076 143.498,56.028 143.358,55.932 C143.218,55.836 143.148,55.704 143.148,55.536 C143.148,55.4 143.174,55.292 143.226,55.212 C143.278,55.132 143.348,55.052 143.436,54.972 C143.572,55.028 143.708,55.068 143.844,55.092 C143.98,55.116 144.112,55.128 144.24,55.128 C144.552,55.128 144.844,55.084 145.116,54.996 C145.388,54.908 145.624,54.78 145.824,54.612 C146.024,54.444 146.182,54.236 146.298,53.988 C146.414,53.74 146.472,53.452 146.472,53.124 C146.472,52.916 146.44,52.726 146.376,52.554 C146.312,52.382 146.232,52.24 146.136,52.128 L146.136,52.128 L147.216,52.128 L147.216,51.108 L145.104,51.108 C144.984,51.068 144.85,51.034 144.702,51.006 C144.554,50.978 144.4,50.964 144.24,50.964 C143.928,50.964 143.632,51.01 143.352,51.102 C143.072,51.194 142.826,51.33 142.614,51.51 C142.402,51.69 142.232,51.912 142.104,52.176 C141.976,52.44 141.912,52.74 141.912,53.076 C141.912,53.428 141.99,53.738 142.146,54.006 C142.302,54.274 142.48,54.484 142.68,54.636 L142.68,54.636 L142.68,54.684 C142.512,54.804 142.362,54.958 142.23,55.146 C142.098,55.334 142.032,55.544 142.032,55.776 C142.032,56.016 142.082,56.216 142.182,56.376 C142.282,56.536 142.408,56.664 142.56,56.76 L142.56,56.76 L142.56,56.808 C142.288,56.976 142.08,57.166 141.936,57.378 C141.792,57.59 141.72,57.82 141.72,58.068 C141.72,58.324 141.782,58.548 141.906,58.74 C142.03,58.932 142.2,59.092 142.416,59.22 C142.632,59.348 142.89,59.444 143.19,59.508 C143.49,59.572 143.816,59.604 144.168,59.604 Z M144.24,54.264 C143.952,54.264 143.708,54.162 143.508,53.958 C143.308,53.754 143.208,53.46 143.208,53.076 C143.208,52.7 143.308,52.412 143.508,52.212 C143.708,52.012 143.952,51.912 144.24,51.912 C144.528,51.912 144.77,52.014 144.966,52.218 C145.162,52.422 145.26,52.708 145.26,53.076 C145.26,53.46 145.16,53.754 144.96,53.958 C144.76,54.162 144.52,54.264 144.24,54.264 Z M144.384,58.704 C143.912,58.704 143.542,58.63 143.274,58.482 C143.006,58.334 142.872,58.128 142.872,57.864 C142.872,57.576 143.024,57.316 143.328,57.084 C143.544,57.14 143.812,57.168 144.132,57.168 L144.132,57.168 L144.936,57.168 C145.272,57.168 145.53,57.208 145.71,57.288 C145.89,57.368 145.98,57.524 145.98,57.756 C145.98,58.012 145.834,58.234 145.542,58.422 C145.25,58.61 144.864,58.704 144.384,58.704 Z M149.568,57.144 C149.92,57.144 150.246,57.068 150.546,56.916 C150.846,56.764 151.128,56.576 151.392,56.352 L151.392,56.352 L151.44,56.352 L151.536,57 L152.676,57 L152.676,53.508 C152.676,52.684 152.494,52.054 152.13,51.618 C151.766,51.182 151.216,50.964 150.48,50.964 C150.008,50.964 149.568,51.04 149.16,51.192 C148.752,51.344 148.384,51.524 148.056,51.732 L148.056,51.732 L148.56,52.656 C148.824,52.496 149.094,52.36 149.37,52.248 C149.646,52.136 149.928,52.08 150.216,52.08 C150.416,52.08 150.584,52.11 150.72,52.17 C150.856,52.23 150.966,52.314 151.05,52.422 C151.134,52.53 151.194,52.654 151.23,52.794 C151.266,52.934 151.288,53.08 151.296,53.232 C150.688,53.296 150.166,53.388 149.73,53.508 C149.294,53.628 148.934,53.776 148.65,53.952 C148.366,54.128 148.158,54.338 148.026,54.582 C147.894,54.826 147.828,55.104 147.828,55.416 C147.828,55.936 147.988,56.354 148.308,56.67 C148.628,56.986 149.048,57.144 149.568,57.144 Z M150.012,56.064 C149.764,56.064 149.56,56.004 149.4,55.884 C149.24,55.764 149.16,55.572 149.16,55.308 C149.16,55.164 149.196,55.028 149.268,54.9 C149.34,54.772 149.46,54.658 149.628,54.558 C149.796,54.458 150.016,54.368 150.288,54.288 C150.56,54.208 150.896,54.144 151.296,54.096 L151.296,54.096 L151.296,55.416 C151.072,55.624 150.862,55.784 150.666,55.896 C150.47,56.008 150.252,56.064 150.012,56.064 Z M156.216,57.144 C156.448,57.144 156.666,57.122 156.87,57.078 C157.074,57.034 157.256,56.984 157.416,56.928 L157.416,56.928 L157.176,55.908 C157.088,55.948 156.99,55.98 156.882,56.004 C156.774,56.028 156.668,56.04 156.564,56.04 C156.012,56.04 155.736,55.696 155.736,55.008 L155.736,55.008 L155.736,52.2 L157.236,52.2 L157.236,51.108 L155.736,51.108 L155.736,49.5 L154.584,49.5 L154.416,51.108 L153.504,51.168 L153.504,52.2 L154.344,52.2 L154.344,55.008 C154.344,55.328 154.378,55.618 154.446,55.878 C154.514,56.138 154.622,56.362 154.77,56.55 C154.918,56.738 155.11,56.884 155.346,56.988 C155.582,57.092 155.872,57.144 156.216,57.144 Z M159.168,50.076 C159.416,50.076 159.62,50.004 159.78,49.86 C159.94,49.716 160.02,49.528 160.02,49.296 C160.02,49.064 159.94,48.874 159.78,48.726 C159.62,48.578 159.416,48.504 159.168,48.504 C158.92,48.504 158.716,48.578 158.556,48.726 C158.396,48.874 158.316,49.064 158.316,49.296 C158.316,49.528 158.396,49.716 158.556,49.86 C158.716,50.004 158.92,50.076 159.168,50.076 Z M159.852,57 L159.852,51.108 L158.472,51.108 L158.472,57 L159.852,57 Z M164.028,57.144 C164.396,57.144 164.75,57.076 165.09,56.94 C165.43,56.804 165.728,56.604 165.984,56.34 C166.24,56.076 166.446,55.752 166.602,55.368 C166.758,54.984 166.836,54.548 166.836,54.06 C166.836,53.572 166.758,53.136 166.602,52.752 C166.446,52.368 166.24,52.044 165.984,51.78 C165.728,51.516 165.43,51.314 165.09,51.174 C164.75,51.034 164.396,50.964 164.028,50.964 C163.66,50.964 163.308,51.034 162.972,51.174 C162.636,51.314 162.338,51.516 162.078,51.78 C161.818,52.044 161.612,52.368 161.46,52.752 C161.308,53.136 161.232,53.572 161.232,54.06 C161.232,54.548 161.308,54.984 161.46,55.368 C161.612,55.752 161.818,56.076 162.078,56.34 C162.338,56.604 162.636,56.804 162.972,56.94 C163.308,57.076 163.66,57.144 164.028,57.144 Z M164.028,56.016 C163.596,56.016 163.258,55.838 163.014,55.482 C162.77,55.126 162.648,54.652 162.648,54.06 C162.648,53.46 162.77,52.982 163.014,52.626 C163.258,52.27 163.596,52.092 164.028,52.092 C164.46,52.092 164.8,52.27 165.048,52.626 C165.296,52.982 165.42,53.46 165.42,54.06 C165.42,54.652 165.296,55.126 165.048,55.482 C164.8,55.838 164.46,56.016 164.028,56.016 Z M169.584,57 L169.584,52.884 C169.832,52.644 170.054,52.462 170.25,52.338 C170.446,52.214 170.672,52.152 170.928,52.152 C171.256,52.152 171.492,52.252 171.636,52.452 C171.78,52.652 171.852,52.996 171.852,53.484 L171.852,53.484 L171.852,57 L173.232,57 L173.232,53.304 C173.232,52.552 173.088,51.974 172.8,51.57 C172.512,51.166 172.052,50.964 171.42,50.964 C171.012,50.964 170.654,51.056 170.346,51.24 C170.038,51.424 169.752,51.644 169.488,51.9 L169.488,51.9 L169.44,51.9 L169.344,51.108 L168.204,51.108 L168.204,57 L169.584,57 Z M176.568,57.144 C176.936,57.144 177.264,57.096 177.552,57 C177.84,56.904 178.08,56.774 178.272,56.61 C178.464,56.446 178.61,56.254 178.71,56.034 C178.81,55.814 178.86,55.576 178.86,55.32 C178.86,55.048 178.81,54.814 178.71,54.618 C178.61,54.422 178.478,54.256 178.314,54.12 C178.15,53.984 177.968,53.87 177.768,53.778 C177.568,53.686 177.368,53.604 177.168,53.532 C177.008,53.476 176.854,53.42 176.706,53.364 C176.558,53.308 176.428,53.248 176.316,53.184 C176.204,53.12 176.114,53.046 176.046,52.962 C175.978,52.878 175.944,52.776 175.944,52.656 C175.944,52.472 176.014,52.318 176.154,52.194 C176.294,52.07 176.512,52.008 176.808,52.008 C177.04,52.008 177.262,52.054 177.474,52.146 C177.686,52.238 177.896,52.36 178.104,52.512 L178.104,52.512 L178.74,51.672 C178.5,51.488 178.216,51.324 177.888,51.18 C177.56,51.036 177.192,50.964 176.784,50.964 C176.12,50.964 175.596,51.128 175.212,51.456 C174.828,51.784 174.636,52.208 174.636,52.728 C174.636,52.976 174.686,53.19 174.786,53.37 C174.886,53.55 175.014,53.708 175.17,53.844 C175.326,53.98 175.504,54.096 175.704,54.192 C175.904,54.288 176.1,54.372 176.292,54.444 C176.444,54.508 176.596,54.57 176.748,54.63 C176.9,54.69 177.036,54.756 177.156,54.828 C177.276,54.9 177.372,54.982 177.444,55.074 C177.516,55.166 177.552,55.272 177.552,55.392 C177.552,55.6 177.476,55.77 177.324,55.902 C177.172,56.034 176.936,56.1 176.616,56.1 C176.312,56.1 176.03,56.042 175.77,55.926 C175.51,55.81 175.248,55.648 174.984,55.44 L174.984,55.44 L174.336,56.328 C174.624,56.56 174.966,56.754 175.362,56.91 C175.758,57.066 176.16,57.144 176.568,57.144 Z M123.384,73.32 L123.384,72.108 C123.96,72.028 124.414,71.804 124.746,71.436 C125.078,71.068 125.244,70.596 125.244,70.02 C125.244,69.588 125.162,69.234 124.998,68.958 C124.834,68.682 124.628,68.45 124.38,68.262 C124.132,68.074 123.862,67.914 123.57,67.782 C123.278,67.65 123.008,67.514 122.76,67.374 C122.512,67.234 122.306,67.072 122.142,66.888 C121.978,66.704 121.896,66.468 121.896,66.18 C121.896,65.828 122.004,65.548 122.22,65.34 C122.436,65.132 122.728,65.028 123.096,65.028 C123.424,65.028 123.694,65.088 123.906,65.208 C124.118,65.328 124.336,65.496 124.56,65.712 L124.56,65.712 L125.088,65.124 C124.872,64.892 124.63,64.692 124.362,64.524 C124.094,64.356 123.768,64.252 123.384,64.212 L123.384,64.212 L123.384,63.024 L122.664,63.024 L122.664,64.236 C122.136,64.316 121.714,64.534 121.398,64.89 C121.082,65.246 120.924,65.692 120.924,66.228 C120.924,66.62 121.006,66.942 121.17,67.194 C121.334,67.446 121.54,67.66 121.788,67.836 C122.036,68.012 122.306,68.168 122.598,68.304 C122.89,68.44 123.16,68.586 123.408,68.742 C123.656,68.898 123.862,69.082 124.026,69.294 C124.19,69.506 124.272,69.772 124.272,70.092 C124.272,70.468 124.162,70.768 123.942,70.992 C123.722,71.216 123.388,71.328 122.94,71.328 C122.572,71.328 122.234,71.25 121.926,71.094 C121.618,70.938 121.336,70.748 121.08,70.524 L121.08,70.524 L120.624,71.208 C120.88,71.44 121.188,71.642 121.548,71.814 C121.908,71.986 122.28,72.092 122.664,72.132 L122.664,72.132 L122.664,73.32 L123.384,73.32 Z M128.424,72.144 C128.808,72.144 129.174,72.066 129.522,71.91 C129.87,71.754 130.18,71.506 130.452,71.166 C130.724,70.826 130.94,70.386 131.1,69.846 C131.26,69.306 131.34,68.652 131.34,67.884 C131.34,67.268 131.274,66.73 131.142,66.27 C131.01,65.81 130.826,65.426 130.59,65.118 C130.354,64.81 130.074,64.58 129.75,64.428 C129.426,64.276 129.076,64.2 128.7,64.2 C128.396,64.2 128.106,64.26 127.83,64.38 C127.554,64.5 127.314,64.668 127.11,64.884 C126.906,65.1 126.744,65.358 126.624,65.658 C126.504,65.958 126.444,66.292 126.444,66.66 C126.444,67.452 126.64,68.044 127.032,68.436 C127.424,68.828 127.952,69.024 128.616,69.024 C128.936,69.024 129.256,68.936 129.576,68.76 C129.896,68.584 130.176,68.344 130.416,68.04 C130.408,68.656 130.348,69.172 130.236,69.588 C130.124,70.004 129.976,70.342 129.792,70.602 C129.608,70.862 129.396,71.048 129.156,71.16 C128.916,71.272 128.66,71.328 128.388,71.328 C128.148,71.328 127.918,71.272 127.698,71.16 C127.478,71.048 127.288,70.9 127.128,70.716 L127.128,70.716 L126.576,71.34 C126.784,71.572 127.042,71.764 127.35,71.916 C127.658,72.068 128.016,72.144 128.424,72.144 Z M128.784,68.28 C128.304,68.28 127.948,68.136 127.716,67.848 C127.484,67.56 127.368,67.164 127.368,66.66 C127.368,66.412 127.402,66.184 127.47,65.976 C127.538,65.768 127.632,65.59 127.752,65.442 C127.872,65.294 128.014,65.18 128.178,65.1 C128.342,65.02 128.516,64.98 128.7,64.98 C129.188,64.98 129.576,65.172 129.864,65.556 C130.152,65.94 130.328,66.508 130.392,67.26 C130.144,67.62 129.878,67.88 129.594,68.04 C129.31,68.2 129.04,68.28 128.784,68.28 Z M134.76,72.144 C135.112,72.144 135.44,72.094 135.744,71.994 C136.048,71.894 136.314,71.75 136.542,71.562 C136.77,71.374 136.95,71.144 137.082,70.872 C137.214,70.6 137.28,70.296 137.28,69.96 C137.28,69.696 137.238,69.456 137.154,69.24 C137.07,69.024 136.952,68.834 136.8,68.67 C136.648,68.506 136.472,68.37 136.272,68.262 C136.072,68.154 135.856,68.072 135.624,68.016 L135.624,68.016 L135.624,67.968 C136.04,67.808 136.376,67.58 136.632,67.284 C136.888,66.988 137.016,66.608 137.016,66.144 C137.016,65.832 136.96,65.556 136.848,65.316 C136.736,65.076 136.578,64.874 136.374,64.71 C136.17,64.546 135.928,64.42 135.648,64.332 C135.368,64.244 135.06,64.2 134.724,64.2 C134.268,64.2 133.862,64.29 133.506,64.47 C133.15,64.65 132.824,64.88 132.528,65.16 L132.528,65.16 L133.056,65.784 C133.288,65.552 133.538,65.364 133.806,65.22 C134.074,65.076 134.368,65.004 134.688,65.004 C135.096,65.004 135.418,65.112 135.654,65.328 C135.89,65.544 136.008,65.84 136.008,66.216 C136.008,66.416 135.972,66.604 135.9,66.78 C135.828,66.956 135.706,67.108 135.534,67.236 C135.362,67.364 135.138,67.464 134.862,67.536 C134.586,67.608 134.244,67.644 133.836,67.644 L133.836,67.644 L133.836,68.4 C134.292,68.4 134.676,68.436 134.988,68.508 C135.3,68.58 135.552,68.684 135.744,68.82 C135.936,68.956 136.074,69.118 136.158,69.306 C136.242,69.494 136.284,69.7 136.284,69.924 C136.284,70.356 136.136,70.698 135.84,70.95 C135.544,71.202 135.164,71.328 134.7,71.328 C134.244,71.328 133.862,71.236 133.554,71.052 C133.246,70.868 132.976,70.656 132.744,70.416 L132.744,70.416 L132.24,71.064 C132.368,71.208 132.514,71.344 132.678,71.472 C132.842,71.6 133.028,71.714 133.236,71.814 C133.444,71.914 133.674,71.994 133.926,72.054 C134.178,72.114 134.456,72.144 134.76,72.144 Z M140.352,72.144 C140.736,72.144 141.102,72.066 141.45,71.91 C141.798,71.754 142.108,71.506 142.38,71.166 C142.652,70.826 142.868,70.386 143.028,69.846 C143.188,69.306 143.268,68.652 143.268,67.884 C143.268,67.268 143.202,66.73 143.07,66.27 C142.938,65.81 142.754,65.426 142.518,65.118 C142.282,64.81 142.002,64.58 141.678,64.428 C141.354,64.276 141.004,64.2 140.628,64.2 C140.324,64.2 140.034,64.26 139.758,64.38 C139.482,64.5 139.242,64.668 139.038,64.884 C138.834,65.1 138.672,65.358 138.552,65.658 C138.432,65.958 138.372,66.292 138.372,66.66 C138.372,67.452 138.568,68.044 138.96,68.436 C139.352,68.828 139.88,69.024 140.544,69.024 C140.864,69.024 141.184,68.936 141.504,68.76 C141.824,68.584 142.104,68.344 142.344,68.04 C142.336,68.656 142.276,69.172 142.164,69.588 C142.052,70.004 141.904,70.342 141.72,70.602 C141.536,70.862 141.324,71.048 141.084,71.16 C140.844,71.272 140.588,71.328 140.316,71.328 C140.076,71.328 139.846,71.272 139.626,71.16 C139.406,71.048 139.216,70.9 139.056,70.716 L139.056,70.716 L138.504,71.34 C138.712,71.572 138.97,71.764 139.278,71.916 C139.586,72.068 139.944,72.144 140.352,72.144 Z M140.712,68.28 C140.232,68.28 139.876,68.136 139.644,67.848 C139.412,67.56 139.296,67.164 139.296,66.66 C139.296,66.412 139.33,66.184 139.398,65.976 C139.466,65.768 139.56,65.59 139.68,65.442 C139.8,65.294 139.942,65.18 140.106,65.1 C140.27,65.02 140.444,64.98 140.628,64.98 C141.116,64.98 141.504,65.172 141.792,65.556 C142.08,65.94 142.256,66.508 142.32,67.26 C142.072,67.62 141.806,67.88 141.522,68.04 C141.238,68.2 140.968,68.28 140.712,68.28 Z M147.444,72 C147.884,72 148.288,71.952 148.656,71.856 C149.024,71.76 149.34,71.616 149.604,71.424 C149.868,71.232 150.072,70.992 150.216,70.704 C150.36,70.416 150.432,70.08 150.432,69.696 C150.432,69.152 150.284,68.724 149.988,68.412 C149.692,68.1 149.304,67.9 148.824,67.812 L148.824,67.812 L148.824,67.764 C149.2,67.644 149.486,67.426 149.682,67.11 C149.878,66.794 149.976,66.44 149.976,66.048 C149.976,65.704 149.91,65.41 149.778,65.166 C149.646,64.922 149.462,64.724 149.226,64.572 C148.99,64.42 148.706,64.308 148.374,64.236 C148.042,64.164 147.676,64.128 147.276,64.128 L147.276,64.128 L144.936,64.128 L144.936,72 L147.444,72 Z M147.096,67.476 L145.932,67.476 L145.932,64.92 L147.144,64.92 C147.76,64.92 148.222,65.016 148.53,65.208 C148.838,65.4 148.992,65.724 148.992,66.18 C148.992,66.58 148.844,66.896 148.548,67.128 C148.252,67.36 147.768,67.476 147.096,67.476 L147.096,67.476 Z M147.3,71.208 L145.932,71.208 L145.932,68.244 L147.3,68.244 C147.996,68.244 148.528,68.358 148.896,68.586 C149.264,68.814 149.448,69.172 149.448,69.66 C149.448,70.188 149.26,70.578 148.884,70.83 C148.508,71.082 147.98,71.208 147.3,71.208 L147.3,71.208 Z" id="Obligations$939B" fill="#666666" fill-rule="nonzero"></path>
                <path d="M263.936,57.144 C264.392,57.144 264.802,57.078 265.166,56.946 C265.53,56.814 265.842,56.604 266.102,56.316 C266.362,56.028 266.56,55.658 266.696,55.206 C266.832,54.754 266.9,54.204 266.9,53.556 L266.9,53.556 L266.9,49.152 L265.568,49.152 L265.568,53.664 C265.568,54.088 265.528,54.446 265.448,54.738 C265.368,55.03 265.256,55.264 265.112,55.44 C264.968,55.616 264.796,55.742 264.596,55.818 C264.396,55.894 264.176,55.932 263.936,55.932 C263.696,55.932 263.48,55.894 263.288,55.818 C263.096,55.742 262.93,55.616 262.79,55.44 C262.65,55.264 262.542,55.03 262.466,54.738 C262.39,54.446 262.352,54.088 262.352,53.664 L262.352,53.664 L262.352,49.152 L260.96,49.152 L260.96,53.556 C260.96,54.204 261.03,54.754 261.17,55.206 C261.31,55.658 261.51,56.028 261.77,56.316 C262.03,56.604 262.342,56.814 262.706,56.946 C263.07,57.078 263.48,57.144 263.936,57.144 Z M270.116,57 L270.116,52.884 C270.364,52.644 270.586,52.462 270.782,52.338 C270.978,52.214 271.204,52.152 271.46,52.152 C271.788,52.152 272.024,52.252 272.168,52.452 C272.312,52.652 272.384,52.996 272.384,53.484 L272.384,53.484 L272.384,57 L273.764,57 L273.764,53.304 C273.764,52.552 273.62,51.974 273.332,51.57 C273.044,51.166 272.584,50.964 271.952,50.964 C271.544,50.964 271.186,51.056 270.878,51.24 C270.57,51.424 270.284,51.644 270.02,51.9 L270.02,51.9 L269.972,51.9 L269.876,51.108 L268.736,51.108 L268.736,57 L270.116,57 Z M277.868,57.144 C278.236,57.144 278.59,57.076 278.93,56.94 C279.27,56.804 279.568,56.604 279.824,56.34 C280.08,56.076 280.286,55.752 280.442,55.368 C280.598,54.984 280.676,54.548 280.676,54.06 C280.676,53.572 280.598,53.136 280.442,52.752 C280.286,52.368 280.08,52.044 279.824,51.78 C279.568,51.516 279.27,51.314 278.93,51.174 C278.59,51.034 278.236,50.964 277.868,50.964 C277.5,50.964 277.148,51.034 276.812,51.174 C276.476,51.314 276.178,51.516 275.918,51.78 C275.658,52.044 275.452,52.368 275.3,52.752 C275.148,53.136 275.072,53.572 275.072,54.06 C275.072,54.548 275.148,54.984 275.3,55.368 C275.452,55.752 275.658,56.076 275.918,56.34 C276.178,56.604 276.476,56.804 276.812,56.94 C277.148,57.076 277.5,57.144 277.868,57.144 Z M277.868,56.016 C277.436,56.016 277.098,55.838 276.854,55.482 C276.61,55.126 276.488,54.652 276.488,54.06 C276.488,53.46 276.61,52.982 276.854,52.626 C277.098,52.27 277.436,52.092 277.868,52.092 C278.3,52.092 278.64,52.27 278.888,52.626 C279.136,52.982 279.26,53.46 279.26,54.06 C279.26,54.652 279.136,55.126 278.888,55.482 C278.64,55.838 278.3,56.016 277.868,56.016 Z M284.9,57.144 C285.228,57.144 285.544,57.072 285.848,56.928 C286.152,56.784 286.42,56.576 286.652,56.304 C286.884,56.032 287.07,55.698 287.21,55.302 C287.35,54.906 287.42,54.456 287.42,53.952 C287.42,53.496 287.368,53.084 287.264,52.716 C287.16,52.348 287.008,52.034 286.808,51.774 C286.608,51.514 286.364,51.314 286.076,51.174 C285.788,51.034 285.46,50.964 285.092,50.964 C284.788,50.964 284.49,51.032 284.198,51.168 C283.906,51.304 283.636,51.48 283.388,51.696 L283.388,51.696 L283.424,50.712 L283.424,48.528 L282.044,48.528 L282.044,57 L283.136,57 L283.256,56.376 L283.292,56.376 C283.54,56.624 283.802,56.814 284.078,56.946 C284.354,57.078 284.628,57.144 284.9,57.144 Z M284.612,56.004 C284.436,56.004 284.246,55.968 284.042,55.896 C283.838,55.824 283.632,55.696 283.424,55.512 L283.424,55.512 L283.424,52.764 C283.872,52.324 284.304,52.104 284.72,52.104 C285.168,52.104 285.492,52.268 285.692,52.596 C285.892,52.924 285.992,53.384 285.992,53.976 C285.992,54.648 285.86,55.154 285.596,55.494 C285.332,55.834 285.004,56.004 284.612,56.004 Z M290.144,57.144 C290.448,57.144 290.692,57.104 290.876,57.024 L290.876,57.024 L290.696,55.992 C290.64,56.008 290.598,56.016 290.57,56.016 L290.57,56.016 L290.48,56.016 C290.408,56.016 290.34,55.982 290.276,55.914 C290.212,55.846 290.18,55.728 290.18,55.56 L290.18,55.56 L290.18,48.528 L288.8,48.528 L288.8,55.488 C288.8,56 288.9,56.404 289.1,56.7 C289.3,56.996 289.648,57.144 290.144,57.144 Z M292.748,50.076 C292.996,50.076 293.2,50.004 293.36,49.86 C293.52,49.716 293.6,49.528 293.6,49.296 C293.6,49.064 293.52,48.874 293.36,48.726 C293.2,48.578 292.996,48.504 292.748,48.504 C292.5,48.504 292.296,48.578 292.136,48.726 C291.976,48.874 291.896,49.064 291.896,49.296 C291.896,49.528 291.976,49.716 292.136,49.86 C292.296,50.004 292.5,50.076 292.748,50.076 Z M293.432,57 L293.432,51.108 L292.052,51.108 L292.052,57 L293.432,57 Z M297.248,59.604 C297.728,59.604 298.162,59.55 298.55,59.442 C298.938,59.334 299.268,59.188 299.54,59.004 C299.812,58.82 300.022,58.6 300.17,58.344 C300.318,58.088 300.392,57.816 300.392,57.528 C300.392,57.016 300.21,56.646 299.846,56.418 C299.482,56.19 298.944,56.076 298.232,56.076 L298.232,56.076 L297.188,56.076 C296.828,56.076 296.578,56.028 296.438,55.932 C296.298,55.836 296.228,55.704 296.228,55.536 C296.228,55.4 296.254,55.292 296.306,55.212 C296.358,55.132 296.428,55.052 296.516,54.972 C296.652,55.028 296.788,55.068 296.924,55.092 C297.06,55.116 297.192,55.128 297.32,55.128 C297.632,55.128 297.924,55.084 298.196,54.996 C298.468,54.908 298.704,54.78 298.904,54.612 C299.104,54.444 299.262,54.236 299.378,53.988 C299.494,53.74 299.552,53.452 299.552,53.124 C299.552,52.916 299.52,52.726 299.456,52.554 C299.392,52.382 299.312,52.24 299.216,52.128 L299.216,52.128 L300.296,52.128 L300.296,51.108 L298.184,51.108 C298.064,51.068 297.93,51.034 297.782,51.006 C297.634,50.978 297.48,50.964 297.32,50.964 C297.008,50.964 296.712,51.01 296.432,51.102 C296.152,51.194 295.906,51.33 295.694,51.51 C295.482,51.69 295.312,51.912 295.184,52.176 C295.056,52.44 294.992,52.74 294.992,53.076 C294.992,53.428 295.07,53.738 295.226,54.006 C295.382,54.274 295.56,54.484 295.76,54.636 L295.76,54.636 L295.76,54.684 C295.592,54.804 295.442,54.958 295.31,55.146 C295.178,55.334 295.112,55.544 295.112,55.776 C295.112,56.016 295.162,56.216 295.262,56.376 C295.362,56.536 295.488,56.664 295.64,56.76 L295.64,56.76 L295.64,56.808 C295.368,56.976 295.16,57.166 295.016,57.378 C294.872,57.59 294.8,57.82 294.8,58.068 C294.8,58.324 294.862,58.548 294.986,58.74 C295.11,58.932 295.28,59.092 295.496,59.22 C295.712,59.348 295.97,59.444 296.27,59.508 C296.57,59.572 296.896,59.604 297.248,59.604 Z M297.32,54.264 C297.032,54.264 296.788,54.162 296.588,53.958 C296.388,53.754 296.288,53.46 296.288,53.076 C296.288,52.7 296.388,52.412 296.588,52.212 C296.788,52.012 297.032,51.912 297.32,51.912 C297.608,51.912 297.85,52.014 298.046,52.218 C298.242,52.422 298.34,52.708 298.34,53.076 C298.34,53.46 298.24,53.754 298.04,53.958 C297.84,54.162 297.6,54.264 297.32,54.264 Z M297.464,58.704 C296.992,58.704 296.622,58.63 296.354,58.482 C296.086,58.334 295.952,58.128 295.952,57.864 C295.952,57.576 296.104,57.316 296.408,57.084 C296.624,57.14 296.892,57.168 297.212,57.168 L297.212,57.168 L298.016,57.168 C298.352,57.168 298.61,57.208 298.79,57.288 C298.97,57.368 299.06,57.524 299.06,57.756 C299.06,58.012 298.914,58.234 298.622,58.422 C298.33,58.61 297.944,58.704 297.464,58.704 Z M302.648,57.144 C303,57.144 303.326,57.068 303.626,56.916 C303.926,56.764 304.208,56.576 304.472,56.352 L304.472,56.352 L304.52,56.352 L304.616,57 L305.756,57 L305.756,53.508 C305.756,52.684 305.574,52.054 305.21,51.618 C304.846,51.182 304.296,50.964 303.56,50.964 C303.088,50.964 302.648,51.04 302.24,51.192 C301.832,51.344 301.464,51.524 301.136,51.732 L301.136,51.732 L301.64,52.656 C301.904,52.496 302.174,52.36 302.45,52.248 C302.726,52.136 303.008,52.08 303.296,52.08 C303.496,52.08 303.664,52.11 303.8,52.17 C303.936,52.23 304.046,52.314 304.13,52.422 C304.214,52.53 304.274,52.654 304.31,52.794 C304.346,52.934 304.368,53.08 304.376,53.232 C303.768,53.296 303.246,53.388 302.81,53.508 C302.374,53.628 302.014,53.776 301.73,53.952 C301.446,54.128 301.238,54.338 301.106,54.582 C300.974,54.826 300.908,55.104 300.908,55.416 C300.908,55.936 301.068,56.354 301.388,56.67 C301.708,56.986 302.128,57.144 302.648,57.144 Z M303.092,56.064 C302.844,56.064 302.64,56.004 302.48,55.884 C302.32,55.764 302.24,55.572 302.24,55.308 C302.24,55.164 302.276,55.028 302.348,54.9 C302.42,54.772 302.54,54.658 302.708,54.558 C302.876,54.458 303.096,54.368 303.368,54.288 C303.64,54.208 303.976,54.144 304.376,54.096 L304.376,54.096 L304.376,55.416 C304.152,55.624 303.942,55.784 303.746,55.896 C303.55,56.008 303.332,56.064 303.092,56.064 Z M309.296,57.144 C309.528,57.144 309.746,57.122 309.95,57.078 C310.154,57.034 310.336,56.984 310.496,56.928 L310.496,56.928 L310.256,55.908 C310.168,55.948 310.07,55.98 309.962,56.004 C309.854,56.028 309.748,56.04 309.644,56.04 C309.092,56.04 308.816,55.696 308.816,55.008 L308.816,55.008 L308.816,52.2 L310.316,52.2 L310.316,51.108 L308.816,51.108 L308.816,49.5 L307.664,49.5 L307.496,51.108 L306.584,51.168 L306.584,52.2 L307.424,52.2 L307.424,55.008 C307.424,55.328 307.458,55.618 307.526,55.878 C307.594,56.138 307.702,56.362 307.85,56.55 C307.998,56.738 308.19,56.884 308.426,56.988 C308.662,57.092 308.952,57.144 309.296,57.144 Z M313.88,57.144 C314.256,57.144 314.616,57.084 314.96,56.964 C315.304,56.844 315.616,56.692 315.896,56.508 L315.896,56.508 L315.428,55.644 C315.212,55.78 314.994,55.886 314.774,55.962 C314.554,56.038 314.316,56.076 314.06,56.076 C313.58,56.076 313.186,55.934 312.878,55.65 C312.57,55.366 312.384,54.96 312.32,54.432 L312.32,54.432 L316.064,54.432 C316.08,54.36 316.094,54.264 316.106,54.144 C316.118,54.024 316.124,53.896 316.124,53.76 C316.124,53.352 316.072,52.976 315.968,52.632 C315.864,52.288 315.71,51.992 315.506,51.744 C315.302,51.496 315.048,51.304 314.744,51.168 C314.44,51.032 314.088,50.964 313.688,50.964 C313.344,50.964 313.008,51.036 312.68,51.18 C312.352,51.324 312.062,51.528 311.81,51.792 C311.558,52.056 311.356,52.38 311.204,52.764 C311.052,53.148 310.976,53.58 310.976,54.06 C310.976,54.548 311.05,54.982 311.198,55.362 C311.346,55.742 311.552,56.064 311.816,56.328 C312.08,56.592 312.388,56.794 312.74,56.934 C313.092,57.074 313.472,57.144 313.88,57.144 Z M314.924,53.496 L312.308,53.496 C312.372,53.016 312.536,52.652 312.8,52.404 C313.064,52.156 313.372,52.032 313.724,52.032 C314.132,52.032 314.434,52.162 314.63,52.422 C314.826,52.682 314.924,53.04 314.924,53.496 L314.924,53.496 Z M319.508,57.144 C319.828,57.144 320.132,57.068 320.42,56.916 C320.708,56.764 320.96,56.58 321.176,56.364 L321.176,56.364 L321.224,56.364 L321.32,57 L322.46,57 L322.46,48.528 L321.08,48.528 L321.08,50.664 L321.128,51.612 C320.896,51.412 320.664,51.254 320.432,51.138 C320.2,51.022 319.916,50.964 319.58,50.964 C319.26,50.964 318.95,51.036 318.65,51.18 C318.35,51.324 318.084,51.528 317.852,51.792 C317.62,52.056 317.434,52.38 317.294,52.764 C317.154,53.148 317.084,53.58 317.084,54.06 C317.084,55.036 317.302,55.794 317.738,56.334 C318.174,56.874 318.764,57.144 319.508,57.144 Z M319.844,56.004 C319.412,56.004 319.082,55.838 318.854,55.506 C318.626,55.174 318.512,54.688 318.512,54.048 C318.512,53.424 318.644,52.944 318.908,52.608 C319.172,52.272 319.496,52.104 319.88,52.104 C320.08,52.104 320.278,52.14 320.474,52.212 C320.67,52.284 320.872,52.412 321.08,52.596 L321.08,52.596 L321.08,55.344 C320.696,55.784 320.284,56.004 319.844,56.004 Z M263.384,73.32 L263.384,72.108 C263.96,72.028 264.414,71.804 264.746,71.436 C265.078,71.068 265.244,70.596 265.244,70.02 C265.244,69.588 265.162,69.234 264.998,68.958 C264.834,68.682 264.628,68.45 264.38,68.262 C264.132,68.074 263.862,67.914 263.57,67.782 C263.278,67.65 263.008,67.514 262.76,67.374 C262.512,67.234 262.306,67.072 262.142,66.888 C261.978,66.704 261.896,66.468 261.896,66.18 C261.896,65.828 262.004,65.548 262.22,65.34 C262.436,65.132 262.728,65.028 263.096,65.028 C263.424,65.028 263.694,65.088 263.906,65.208 C264.118,65.328 264.336,65.496 264.56,65.712 L264.56,65.712 L265.088,65.124 C264.872,64.892 264.63,64.692 264.362,64.524 C264.094,64.356 263.768,64.252 263.384,64.212 L263.384,64.212 L263.384,63.024 L262.664,63.024 L262.664,64.236 C262.136,64.316 261.714,64.534 261.398,64.89 C261.082,65.246 260.924,65.692 260.924,66.228 C260.924,66.62 261.006,66.942 261.17,67.194 C261.334,67.446 261.54,67.66 261.788,67.836 C262.036,68.012 262.306,68.168 262.598,68.304 C262.89,68.44 263.16,68.586 263.408,68.742 C263.656,68.898 263.862,69.082 264.026,69.294 C264.19,69.506 264.272,69.772 264.272,70.092 C264.272,70.468 264.162,70.768 263.942,70.992 C263.722,71.216 263.388,71.328 262.94,71.328 C262.572,71.328 262.234,71.25 261.926,71.094 C261.618,70.938 261.336,70.748 261.08,70.524 L261.08,70.524 L260.624,71.208 C260.88,71.44 261.188,71.642 261.548,71.814 C261.908,71.986 262.28,72.092 262.664,72.132 L262.664,72.132 L262.664,73.32 L263.384,73.32 Z M271.388,72 L271.388,71.148 L269.168,71.148 C268.968,71.148 268.756,71.156 268.532,71.172 C268.308,71.188 268.092,71.204 267.884,71.22 C268.34,70.748 268.758,70.302 269.138,69.882 C269.518,69.462 269.846,69.058 270.122,68.67 C270.398,68.282 270.614,67.906 270.77,67.542 C270.926,67.178 271.004,66.816 271.004,66.456 C271.004,65.776 270.8,65.23 270.392,64.818 C269.984,64.406 269.424,64.2 268.712,64.2 C268.208,64.2 267.776,64.306 267.416,64.518 C267.056,64.73 266.716,65.012 266.396,65.364 L266.396,65.364 L266.96,65.928 C267.184,65.672 267.432,65.454 267.704,65.274 C267.976,65.094 268.272,65.004 268.592,65.004 C269.08,65.004 269.444,65.144 269.684,65.424 C269.924,65.704 270.044,66.064 270.044,66.504 C270.044,66.816 269.964,67.138 269.804,67.47 C269.644,67.802 269.412,68.166 269.108,68.562 C268.804,68.958 268.428,69.388 267.98,69.852 C267.532,70.316 267.02,70.836 266.444,71.412 L266.444,71.412 L266.444,72 L271.388,72 Z M276.512,72 L276.512,69.888 L277.556,69.888 L277.556,69.096 L276.512,69.096 L276.512,64.344 L275.408,64.344 L272.132,69.24 L272.132,69.888 L275.576,69.888 L275.576,72 L276.512,72 Z M275.576,69.096 L273.176,69.096 L274.964,66.48 C275.076,66.296 275.184,66.116 275.288,65.94 C275.392,65.764 275.492,65.584 275.588,65.4 L275.588,65.4 L275.636,65.4 C275.62,65.608 275.606,65.854 275.594,66.138 C275.582,66.422 275.576,66.668 275.576,66.876 L275.576,66.876 L275.576,69.096 Z M280.352,72.144 C280.736,72.144 281.102,72.066 281.45,71.91 C281.798,71.754 282.108,71.506 282.38,71.166 C282.652,70.826 282.868,70.386 283.028,69.846 C283.188,69.306 283.268,68.652 283.268,67.884 C283.268,67.268 283.202,66.73 283.07,66.27 C282.938,65.81 282.754,65.426 282.518,65.118 C282.282,64.81 282.002,64.58 281.678,64.428 C281.354,64.276 281.004,64.2 280.628,64.2 C280.324,64.2 280.034,64.26 279.758,64.38 C279.482,64.5 279.242,64.668 279.038,64.884 C278.834,65.1 278.672,65.358 278.552,65.658 C278.432,65.958 278.372,66.292 278.372,66.66 C278.372,67.452 278.568,68.044 278.96,68.436 C279.352,68.828 279.88,69.024 280.544,69.024 C280.864,69.024 281.184,68.936 281.504,68.76 C281.824,68.584 282.104,68.344 282.344,68.04 C282.336,68.656 282.276,69.172 282.164,69.588 C282.052,70.004 281.904,70.342 281.72,70.602 C281.536,70.862 281.324,71.048 281.084,71.16 C280.844,71.272 280.588,71.328 280.316,71.328 C280.076,71.328 279.846,71.272 279.626,71.16 C279.406,71.048 279.216,70.9 279.056,70.716 L279.056,70.716 L278.504,71.34 C278.712,71.572 278.97,71.764 279.278,71.916 C279.586,72.068 279.944,72.144 280.352,72.144 Z M280.712,68.28 C280.232,68.28 279.876,68.136 279.644,67.848 C279.412,67.56 279.296,67.164 279.296,66.66 C279.296,66.412 279.33,66.184 279.398,65.976 C279.466,65.768 279.56,65.59 279.68,65.442 C279.8,65.294 279.942,65.18 280.106,65.1 C280.27,65.02 280.444,64.98 280.628,64.98 C281.116,64.98 281.504,65.172 281.792,65.556 C282.08,65.94 282.256,66.508 282.32,67.26 C282.072,67.62 281.806,67.88 281.522,68.04 C281.238,68.2 280.968,68.28 280.712,68.28 Z M287.444,72 C287.884,72 288.288,71.952 288.656,71.856 C289.024,71.76 289.34,71.616 289.604,71.424 C289.868,71.232 290.072,70.992 290.216,70.704 C290.36,70.416 290.432,70.08 290.432,69.696 C290.432,69.152 290.284,68.724 289.988,68.412 C289.692,68.1 289.304,67.9 288.824,67.812 L288.824,67.812 L288.824,67.764 C289.2,67.644 289.486,67.426 289.682,67.11 C289.878,66.794 289.976,66.44 289.976,66.048 C289.976,65.704 289.91,65.41 289.778,65.166 C289.646,64.922 289.462,64.724 289.226,64.572 C288.99,64.42 288.706,64.308 288.374,64.236 C288.042,64.164 287.676,64.128 287.276,64.128 L287.276,64.128 L284.936,64.128 L284.936,72 L287.444,72 Z M287.096,67.476 L285.932,67.476 L285.932,64.92 L287.144,64.92 C287.76,64.92 288.222,65.016 288.53,65.208 C288.838,65.4 288.992,65.724 288.992,66.18 C288.992,66.58 288.844,66.896 288.548,67.128 C288.252,67.36 287.768,67.476 287.096,67.476 L287.096,67.476 Z M287.3,71.208 L285.932,71.208 L285.932,68.244 L287.3,68.244 C287.996,68.244 288.528,68.358 288.896,68.586 C289.264,68.814 289.448,69.172 289.448,69.66 C289.448,70.188 289.26,70.578 288.884,70.83 C288.508,71.082 287.98,71.208 287.3,71.208 L287.3,71.208 Z" id="Unobligated$249B" fill="#666666" fill-rule="nonzero"></path>
                <line x1="10.5" y1="30" x2="10.5" y2="45" id="Line" stroke="#C6C6C6"></line>
                <path d="M145,30 L145,33 C145,34.1045695 144.104569,35 143,35 L94,35 C92.8954305,35 92,35.8954305 92,37 L92,45 L92,45" id="Line-Copy-7" stroke="#C6C6C6" stroke-linecap="round" transform="translate(118.500000, 37.500000) scale(1, -1) translate(-118.500000, -37.500000) "></path>
                <path d="M288,30 L288,32 C288,33.1045695 287.104569,34 286,34 L112,34 C110.895431,34 110,34.8954305 110,36 L110,45 L110,45" id="Line-Copy-11" stroke="#C6C6C6" stroke-linecap="round" transform="translate(199.000000, 37.500000) scale(-1, 1) translate(-199.000000, -37.500000) "></path>
                <rect id="unobligated" fill="#F3E9FF" x="97" y="0" width="26" height="30"></rect>
                <rect id="obligated" fill="#6F41A7" x="88" y="0" width="9" height="30"></rect>
                <rect id="outlays" fill="#331E4D" x="0" y="0" width="88" height="30"></rect>
                <path d="M137.368,21.54 L137.368,20.084 C138.096,19.9253333 138.642,19.6056667 139.006,19.125 C139.37,18.6443333 139.552,18.068 139.552,17.396 C139.552,16.948 139.461,16.5723333 139.279,16.269 C139.097,15.9656667 138.868333,15.7066667 138.593,15.492 C138.317667,15.2773333 138.021333,15.0953333 137.704,14.946 C137.386667,14.7966667 137.090333,14.652 136.815,14.512 C136.539667,14.372 136.311,14.225 136.129,14.071 C135.947,13.917 135.856,13.728 135.856,13.504 C135.856,13.1866667 135.944667,12.958 136.122,12.818 C136.299333,12.678 136.556,12.608 136.892,12.608 C137.190667,12.608 137.456667,12.6663333 137.69,12.783 C137.923333,12.8996667 138.166,13.0746667 138.418,13.308 L138.418,13.308 L139.454,12.132 C139.183333,11.8426667 138.88,11.5953333 138.544,11.39 C138.208,11.1846667 137.816,11.0493333 137.368,10.984 L137.368,10.984 L137.368,9.57 L136.01,9.57 L136.01,11.012 C135.347333,11.1426667 134.827,11.4343333 134.449,11.887 C134.071,12.3396667 133.882,12.9113333 133.882,13.602 C133.882,14.022 133.973,14.3766667 134.155,14.666 C134.337,14.9553333 134.565667,15.2073333 134.841,15.422 C135.116333,15.6366667 135.412667,15.821 135.73,15.975 C136.047333,16.129 136.343667,16.283 136.619,16.437 C136.894333,16.591 137.123,16.752 137.305,16.92 C137.487,17.088 137.578,17.2933333 137.578,17.536 C137.578,17.8626667 137.487,18.1053333 137.305,18.264 C137.123,18.4226667 136.836,18.502 136.444,18.502 C136.108,18.502 135.779,18.4343333 135.457,18.299 C135.135,18.1636667 134.796667,17.9606667 134.442,17.69 L134.442,17.69 L133.546,19.076 C133.872667,19.3746667 134.262333,19.615 134.715,19.797 C135.167667,19.979 135.599333,20.0933333 136.01,20.14 L136.01,20.14 L136.01,21.54 L137.368,21.54 Z M147.028,20 L147.028,18.334 L145.362,18.334 L145.362,11.11 L143.85,11.11 C143.532667,11.2966667 143.206,11.4553333 142.87,11.586 C142.534,11.7166667 142.123333,11.8286667 141.638,11.922 L141.638,11.922 L141.638,13.196 L143.304,13.196 L143.304,18.334 L141.372,18.334 L141.372,20 L147.028,20 Z M149.884,20.168 C150.238667,20.168 150.535,20.0443333 150.773,19.797 C151.011,19.5496667 151.13,19.244 151.13,18.88 C151.13,18.5066667 151.011,18.1963333 150.773,17.949 C150.535,17.7016667 150.238667,17.578 149.884,17.578 C149.529333,17.578 149.233,17.7016667 148.995,17.949 C148.757,18.1963333 148.638,18.5066667 148.638,18.88 C148.638,19.244 148.757,19.5496667 148.995,19.797 C149.233,20.0443333 149.529333,20.168 149.884,20.168 Z M158.62,20 L158.62,18.334 L156.954,18.334 L156.954,11.11 L155.442,11.11 C155.124667,11.2966667 154.798,11.4553333 154.462,11.586 C154.126,11.7166667 153.715333,11.8286667 153.23,11.922 L153.23,11.922 L153.23,13.196 L154.896,13.196 L154.896,18.334 L152.964,18.334 L152.964,20 L158.62,20 Z M162.582,20.168 C163.048667,20.168 163.499,20.0723333 163.933,19.881 C164.367,19.6896667 164.749667,19.398 165.081,19.006 C165.412333,18.614 165.678333,18.1146667 165.879,17.508 C166.079667,16.9013333 166.18,16.1826667 166.18,15.352 C166.18,14.568 166.084333,13.8983333 165.893,13.343 C165.701667,12.7876667 165.449667,12.3326667 165.137,11.978 C164.824333,11.6233333 164.465,11.362 164.059,11.194 C163.653,11.026 163.235333,10.942 162.806,10.942 C162.404667,10.942 162.024333,11.0096667 161.665,11.145 C161.305667,11.2803333 160.993,11.4786667 160.727,11.74 C160.461,12.0013333 160.248667,12.3163333 160.09,12.685 C159.931333,13.0536667 159.852,13.4666667 159.852,13.924 C159.852,14.3906667 159.919667,14.7966667 160.055,15.142 C160.190333,15.4873333 160.374667,15.772 160.608,15.996 C160.841333,16.22 161.119,16.388 161.441,16.5 C161.763,16.612 162.115333,16.668 162.498,16.668 C162.638,16.668 162.787333,16.647 162.946,16.605 C163.104667,16.563 163.263333,16.5023333 163.422,16.423 C163.580667,16.3436667 163.734667,16.2456667 163.884,16.129 C164.033333,16.0123333 164.164,15.8793333 164.276,15.73 C164.257333,16.2526667 164.199,16.689 164.101,17.039 C164.003,17.389 163.872333,17.6736667 163.709,17.893 C163.545667,18.1123333 163.356667,18.2686667 163.142,18.362 C162.927333,18.4553333 162.694,18.502 162.442,18.502 C162.180667,18.502 161.924,18.439 161.672,18.313 C161.42,18.187 161.219333,18.04 161.07,17.872 L161.07,17.872 L159.978,19.104 C160.258,19.384 160.615,19.6313333 161.049,19.846 C161.483,20.0606667 161.994,20.168 162.582,20.168 Z M162.904,15.212 C162.568,15.212 162.288,15.1163333 162.064,14.925 C161.84,14.7336667 161.728,14.4 161.728,13.924 C161.728,13.42 161.84,13.0536667 162.064,12.825 C162.288,12.5963333 162.549333,12.482 162.848,12.482 C163.165333,12.482 163.452333,12.615 163.709,12.881 C163.965667,13.147 164.140667,13.63 164.234,14.33 C164.056667,14.6473333 163.849,14.8736667 163.611,15.009 C163.373,15.1443333 163.137333,15.212 162.904,15.212 Z M171.696,20 L171.696,12.608 L174.202,12.608 L174.202,10.872 L167.118,10.872 L167.118,12.608 L169.624,12.608 L169.624,20 L171.696,20 Z" id="$1.19T" fill="#555555" fill-rule="nonzero"></path>
            </g>
        </g>
    </g>
</svg>