<?xml version="1.0" encoding="UTF-8"?>
<svg width="324px" height="75px" viewBox="0 0 324 75" version="1.1" xmlns="http://www.w3.org/2000/svg" xmlns:xlink="http://www.w3.org/1999/xlink">
    <title>06. phase 3 loan</title>
    <g id="Viz-3-(v2)" stroke="none" stroke-width="1" fill="none" fill-rule="evenodd">
        <g id="Viz-3---SVG-Export-Mobile" transform="translate(-37.000000, -1287.000000)">
            <g id="Group-3" transform="translate(15.000000, 128.000000)">
                <g id="06.-phase-3-loan" transform="translate(22.000000, 1159.000000)">
                    <text id="Outlays-$323B" font-family="SourceSansPro-SemiBold, Source Sans Pro" font-size="12" font-weight="500" fill="#666666">
                        <tspan x="0" y="57">Outlays</tspan>
                        <tspan x="39.648" y="57" font-family="SourceSansPro-Regular, Source Sans Pro" font-weight="normal"></tspan>
                        <tspan x="0" y="72" font-family="SourceSansPro-Regular, Source Sans Pro" font-weight="normal">$323B</tspan>
                    </text>
                    <text id="Obligations-$344B" font-family="SourceSansPro-SemiBold, Source Sans Pro" font-size="12" font-weight="500" fill="#666666">
                        <tspan x="120" y="57">Obligations</tspan>
                        <tspan x="179.22" y="57" font-family="SourceSansPro-Regular, Source Sans Pro" font-weight="normal"></tspan>
                        <tspan x="120" y="72" font-family="SourceSansPro-Regular, Source Sans Pro" font-weight="normal">$344B</tspan>
                    </text>
                    <text id="Unobligated-$554B" font-family="SourceSansPro-SemiBold, Source Sans Pro" font-size="12" font-weight="500" fill="#666666">
                        <tspan x="260" y="57">Unobligated</tspan>
                        <tspan x="260" y="72" font-family="SourceSansPro-Regular, Source Sans Pro" font-weight="normal">$554B</tspan>
                    </text>
                    <line x1="1.5" y1="30" x2="1.5" y2="45" id="Line" stroke="#C6C6C6"></line>
                    <path d="M145,30 L145,33 C145,34.1045695 144.104569,35 143,35 L36,35 C34.8954305,35 34,35.8954305 34,37 L34,45 L34,45" id="Line-Copy-7" stroke="#C6C6C6" stroke-linecap="round" transform="translate(89.500000, 37.500000) scale(1, -1) translate(-89.500000, -37.500000) "></path>
                    <path d="M288,30 L288,32 C288,33.1045695 287.104569,34 286,34 L62,34 C60.8954305,34 60,34.8954305 60,36 L60,45 L60,45" id="Line-Copy-11" stroke="#C6C6C6" stroke-linecap="round" transform="translate(174.000000, 37.500000) scale(-1, 1) translate(-174.000000, -37.500000) "></path>
                    <rect id="unobligated" fill="#F3E9FF" x="35" y="0" width="57" height="30"></rect>
                    <rect id="obligated" fill="#6F41A7" x="33" y="0" width="2" height="30"></rect>
                    <rect id="outlays" fill="#331E4D" x="0" y="0" width="33" height="30"></rect>
                    <text id="$898B" font-family="SourceSansPro-Bold, Source Sans Pro" font-size="14" font-weight="bold" fill="#555555">
                        <tspan x="102" y="20">$898B</tspan>
                    </text>
                </g>
            </g>
        </g>
    </g>
</svg>