<?xml version="1.0" encoding="UTF-8"?>
<svg width="324px" height="85px" viewBox="0 0 324 85" version="1.1" xmlns="http://www.w3.org/2000/svg" xmlns:xlink="http://www.w3.org/1999/xlink">
    <title>04. mobile - phase 3 total</title>
    <g id="SVG" stroke="none" stroke-width="1" fill="none" fill-rule="evenodd">
        <g id="Viz-3---Mobile-Outline" transform="translate(-37.000000, -903.000000)">
            <g id="04.-mobile---phase-3-total" transform="translate(37.000000, 903.000000)">
                <path d="M4.044,67.144 C4.556,67.144 5.024,67.05 5.448,66.862 C5.872,66.674 6.238,66.402 6.546,66.046 C6.854,65.69 7.092,65.26 7.26,64.756 C7.428,64.252 7.512,63.68 7.512,63.04 C7.512,62.408 7.428,61.842 7.26,61.342 C7.092,60.842 6.854,60.42 6.546,60.076 C6.238,59.732 5.872,59.468 5.448,59.284 C5.024,59.1 4.556,59.008 4.044,59.008 C3.532,59.008 3.064,59.1 2.64,59.284 C2.216,59.468 1.852,59.732 1.548,60.076 C1.244,60.42 1.008,60.842 0.84,61.342 C0.672,61.842 0.588,62.408 0.588,63.04 C0.588,63.68 0.672,64.252 0.84,64.756 C1.008,65.26 1.244,65.69 1.548,66.046 C1.852,66.402 2.216,66.674 2.64,66.862 C3.064,67.05 3.532,67.144 4.044,67.144 Z M4.044,65.932 C3.732,65.932 3.452,65.864 3.204,65.728 C2.956,65.592 2.744,65.398 2.568,65.146 C2.392,64.894 2.256,64.59 2.16,64.234 C2.064,63.878 2.016,63.48 2.016,63.04 C2.016,62.16 2.198,61.47 2.562,60.97 C2.926,60.47 3.42,60.22 4.044,60.22 C4.668,60.22 5.162,60.47 5.526,60.97 C5.89,61.47 6.072,62.16 6.072,63.04 C6.072,63.48 6.024,63.878 5.928,64.234 C5.832,64.59 5.696,64.894 5.52,65.146 C5.344,65.398 5.132,65.592 4.884,65.728 C4.636,65.864 4.356,65.932 4.044,65.932 Z M10.716,67.144 C11.124,67.144 11.478,67.052 11.778,66.868 C12.078,66.684 12.356,66.44 12.612,66.136 L12.612,66.136 L12.648,66.136 L12.756,67 L13.884,67 L13.884,61.108 L12.504,61.108 L12.504,65.14 C12.28,65.428 12.07,65.636 11.874,65.764 C11.678,65.892 11.452,65.956 11.196,65.956 C10.876,65.956 10.644,65.856 10.5,65.656 C10.356,65.456 10.284,65.112 10.284,64.624 L10.284,64.624 L10.284,61.108 L8.904,61.108 L8.904,64.804 C8.904,65.556 9.048,66.134 9.336,66.538 C9.624,66.942 10.084,67.144 10.716,67.144 Z M17.712,67.144 C17.944,67.144 18.162,67.122 18.366,67.078 C18.57,67.034 18.752,66.984 18.912,66.928 L18.912,66.928 L18.672,65.908 C18.584,65.948 18.486,65.98 18.378,66.004 C18.27,66.028 18.164,66.04 18.06,66.04 C17.508,66.04 17.232,65.696 17.232,65.008 L17.232,65.008 L17.232,62.2 L18.732,62.2 L18.732,61.108 L17.232,61.108 L17.232,59.5 L16.08,59.5 L15.912,61.108 L15,61.168 L15,62.2 L15.84,62.2 L15.84,65.008 C15.84,65.328 15.874,65.618 15.942,65.878 C16.01,66.138 16.118,66.362 16.266,66.55 C16.414,66.738 16.606,66.884 16.842,66.988 C17.078,67.092 17.368,67.144 17.712,67.144 Z M21.312,67.144 C21.616,67.144 21.86,67.104 22.044,67.024 L22.044,67.024 L21.864,65.992 C21.808,66.008 21.766,66.016 21.738,66.016 L21.738,66.016 L21.648,66.016 C21.576,66.016 21.508,65.982 21.444,65.914 C21.38,65.846 21.348,65.728 21.348,65.56 L21.348,65.56 L21.348,58.528 L19.968,58.528 L19.968,65.488 C19.968,66 20.068,66.404 20.268,66.7 C20.468,66.996 20.816,67.144 21.312,67.144 Z M24.648,67.144 C25,67.144 25.326,67.068 25.626,66.916 C25.926,66.764 26.208,66.576 26.472,66.352 L26.472,66.352 L26.52,66.352 L26.616,67 L27.756,67 L27.756,63.508 C27.756,62.684 27.574,62.054 27.21,61.618 C26.846,61.182 26.296,60.964 25.56,60.964 C25.088,60.964 24.648,61.04 24.24,61.192 C23.832,61.344 23.464,61.524 23.136,61.732 L23.136,61.732 L23.64,62.656 C23.904,62.496 24.174,62.36 24.45,62.248 C24.726,62.136 25.008,62.08 25.296,62.08 C25.496,62.08 25.664,62.11 25.8,62.17 C25.936,62.23 26.046,62.314 26.13,62.422 C26.214,62.53 26.274,62.654 26.31,62.794 C26.346,62.934 26.368,63.08 26.376,63.232 C25.768,63.296 25.246,63.388 24.81,63.508 C24.374,63.628 24.014,63.776 23.73,63.952 C23.446,64.128 23.238,64.338 23.106,64.582 C22.974,64.826 22.908,65.104 22.908,65.416 C22.908,65.936 23.068,66.354 23.388,66.67 C23.708,66.986 24.128,67.144 24.648,67.144 Z M25.092,66.064 C24.844,66.064 24.64,66.004 24.48,65.884 C24.32,65.764 24.24,65.572 24.24,65.308 C24.24,65.164 24.276,65.028 24.348,64.9 C24.42,64.772 24.54,64.658 24.708,64.558 C24.876,64.458 25.096,64.368 25.368,64.288 C25.64,64.208 25.976,64.144 26.376,64.096 L26.376,64.096 L26.376,65.416 C26.152,65.624 25.942,65.784 25.746,65.896 C25.55,66.008 25.332,66.064 25.092,66.064 Z M29.808,69.424 C30.128,69.424 30.41,69.374 30.654,69.274 C30.898,69.174 31.114,69.03 31.302,68.842 C31.49,68.654 31.656,68.428 31.8,68.164 C31.944,67.9 32.076,67.6 32.196,67.264 L32.196,67.264 L34.332,61.108 L33,61.108 L32.112,64 C32.04,64.264 31.966,64.538 31.89,64.822 C31.814,65.106 31.74,65.384 31.668,65.656 L31.668,65.656 L31.62,65.656 C31.532,65.376 31.446,65.094 31.362,64.81 C31.278,64.526 31.192,64.256 31.104,64 L31.104,64 L30.084,61.108 L28.68,61.108 L30.996,66.928 L30.888,67.3 C30.792,67.596 30.65,67.838 30.462,68.026 C30.274,68.214 30.024,68.308 29.712,68.308 C29.64,68.308 29.566,68.298 29.49,68.278 C29.414,68.258 29.348,68.24 29.292,68.224 L29.292,68.224 L29.04,69.304 C29.152,69.344 29.268,69.374 29.388,69.394 C29.508,69.414 29.648,69.424 29.808,69.424 Z M36.996,67.144 C37.364,67.144 37.692,67.096 37.98,67 C38.268,66.904 38.508,66.774 38.7,66.61 C38.892,66.446 39.038,66.254 39.138,66.034 C39.238,65.814 39.288,65.576 39.288,65.32 C39.288,65.048 39.238,64.814 39.138,64.618 C39.038,64.422 38.906,64.256 38.742,64.12 C38.578,63.984 38.396,63.87 38.196,63.778 C37.996,63.686 37.796,63.604 37.596,63.532 C37.436,63.476 37.282,63.42 37.134,63.364 C36.986,63.308 36.856,63.248 36.744,63.184 C36.632,63.12 36.542,63.046 36.474,62.962 C36.406,62.878 36.372,62.776 36.372,62.656 C36.372,62.472 36.442,62.318 36.582,62.194 C36.722,62.07 36.94,62.008 37.236,62.008 C37.468,62.008 37.69,62.054 37.902,62.146 C38.114,62.238 38.324,62.36 38.532,62.512 L38.532,62.512 L39.168,61.672 C38.928,61.488 38.644,61.324 38.316,61.18 C37.988,61.036 37.62,60.964 37.212,60.964 C36.548,60.964 36.024,61.128 35.64,61.456 C35.256,61.784 35.064,62.208 35.064,62.728 C35.064,62.976 35.114,63.19 35.214,63.37 C35.314,63.55 35.442,63.708 35.598,63.844 C35.754,63.98 35.932,64.096 36.132,64.192 C36.332,64.288 36.528,64.372 36.72,64.444 C36.872,64.508 37.024,64.57 37.176,64.63 C37.328,64.69 37.464,64.756 37.584,64.828 C37.704,64.9 37.8,64.982 37.872,65.074 C37.944,65.166 37.98,65.272 37.98,65.392 C37.98,65.6 37.904,65.77 37.752,65.902 C37.6,66.034 37.364,66.1 37.044,66.1 C36.74,66.1 36.458,66.042 36.198,65.926 C35.938,65.81 35.676,65.648 35.412,65.44 L35.412,65.44 L34.764,66.328 C35.052,66.56 35.394,66.754 35.79,66.91 C36.186,67.066 36.588,67.144 36.996,67.144 Z M3.384,83.32 L3.384,82.108 C3.96,82.028 4.414,81.804 4.746,81.436 C5.078,81.068 5.244,80.596 5.244,80.02 C5.244,79.588 5.162,79.234 4.998,78.958 C4.834,78.682 4.628,78.45 4.38,78.262 C4.132,78.074 3.862,77.914 3.57,77.782 C3.278,77.65 3.008,77.514 2.76,77.374 C2.512,77.234 2.306,77.072 2.142,76.888 C1.978,76.704 1.896,76.468 1.896,76.18 C1.896,75.828 2.004,75.548 2.22,75.34 C2.436,75.132 2.728,75.028 3.096,75.028 C3.424,75.028 3.694,75.088 3.906,75.208 C4.118,75.328 4.336,75.496 4.56,75.712 L4.56,75.712 L5.088,75.124 C4.872,74.892 4.63,74.692 4.362,74.524 C4.094,74.356 3.768,74.252 3.384,74.212 L3.384,74.212 L3.384,73.024 L2.664,73.024 L2.664,74.236 C2.136,74.316 1.714,74.534 1.398,74.89 C1.082,75.246 0.924,75.692 0.924,76.228 C0.924,76.62 1.006,76.942 1.17,77.194 C1.334,77.446 1.54,77.66 1.788,77.836 C2.036,78.012 2.306,78.168 2.598,78.304 C2.89,78.44 3.16,78.586 3.408,78.742 C3.656,78.898 3.862,79.082 4.026,79.294 C4.19,79.506 4.272,79.772 4.272,80.092 C4.272,80.468 4.162,80.768 3.942,80.992 C3.722,81.216 3.388,81.328 2.94,81.328 C2.572,81.328 2.234,81.25 1.926,81.094 C1.618,80.938 1.336,80.748 1.08,80.524 L1.08,80.524 L0.624,81.208 C0.88,81.44 1.188,81.642 1.548,81.814 C1.908,81.986 2.28,82.092 2.664,82.132 L2.664,82.132 L2.664,83.32 L3.384,83.32 Z M11.232,82 L11.232,81.184 L9.648,81.184 L9.648,74.344 L8.892,74.344 C8.684,74.472 8.45,74.582 8.19,74.674 C7.93,74.766 7.624,74.844 7.272,74.908 L7.272,74.908 L7.272,75.544 L8.664,75.544 L8.664,81.184 L6.912,81.184 L6.912,82 L11.232,82 Z M13.428,82.144 C13.62,82.144 13.786,82.074 13.926,81.934 C14.066,81.794 14.136,81.616 14.136,81.4 C14.136,81.168 14.066,80.982 13.926,80.842 C13.786,80.702 13.62,80.632 13.428,80.632 C13.228,80.632 13.058,80.702 12.918,80.842 C12.778,80.982 12.708,81.168 12.708,81.4 C12.708,81.616 12.778,81.794 12.918,81.934 C13.058,82.074 13.228,82.144 13.428,82.144 Z M20.184,82 L20.184,81.184 L18.6,81.184 L18.6,74.344 L17.844,74.344 C17.636,74.472 17.402,74.582 17.142,74.674 C16.882,74.766 16.576,74.844 16.224,74.908 L16.224,74.908 L16.224,75.544 L17.616,75.544 L17.616,81.184 L15.864,81.184 L15.864,82 L20.184,82 Z M23.88,82.144 C24.248,82.144 24.584,82.092 24.888,81.988 C25.192,81.884 25.452,81.74 25.668,81.556 C25.884,81.372 26.052,81.156 26.172,80.908 C26.292,80.66 26.352,80.392 26.352,80.104 C26.352,79.848 26.314,79.62 26.238,79.42 C26.162,79.22 26.062,79.042 25.938,78.886 C25.814,78.73 25.672,78.59 25.512,78.466 C25.352,78.342 25.188,78.232 25.02,78.136 L25.02,78.136 L25.02,78.088 C25.14,78 25.262,77.892 25.386,77.764 C25.51,77.636 25.622,77.492 25.722,77.332 C25.822,77.172 25.906,77 25.974,76.816 C26.042,76.632 26.076,76.44 26.076,76.24 C26.076,75.944 26.026,75.67 25.926,75.418 C25.826,75.166 25.682,74.95 25.494,74.77 C25.306,74.59 25.08,74.45 24.816,74.35 C24.552,74.25 24.252,74.2 23.916,74.2 C23.604,74.2 23.316,74.248 23.052,74.344 C22.788,74.44 22.56,74.574 22.368,74.746 C22.176,74.918 22.024,75.124 21.912,75.364 C21.8,75.604 21.744,75.872 21.744,76.168 C21.744,76.576 21.852,76.922 22.068,77.206 C22.284,77.49 22.532,77.732 22.812,77.932 L22.812,77.932 L22.812,77.98 C22.628,78.076 22.45,78.19 22.278,78.322 C22.106,78.454 21.954,78.606 21.822,78.778 C21.69,78.95 21.582,79.142 21.498,79.354 C21.414,79.566 21.372,79.796 21.372,80.044 C21.372,80.348 21.436,80.628 21.564,80.884 C21.692,81.14 21.866,81.362 22.086,81.55 C22.306,81.738 22.57,81.884 22.878,81.988 C23.186,82.092 23.52,82.144 23.88,82.144 Z M24.42,77.824 C24.188,77.736 23.966,77.642 23.754,77.542 C23.542,77.442 23.354,77.328 23.19,77.2 C23.026,77.072 22.896,76.926 22.8,76.762 C22.704,76.598 22.656,76.4 22.656,76.168 C22.656,75.792 22.772,75.492 23.004,75.268 C23.236,75.044 23.532,74.932 23.892,74.932 C24.316,74.932 24.644,75.062 24.876,75.322 C25.108,75.582 25.224,75.904 25.224,76.288 C25.224,76.568 25.154,76.836 25.014,77.092 C24.874,77.348 24.676,77.592 24.42,77.824 Z M23.904,81.412 C23.672,81.412 23.456,81.376 23.256,81.304 C23.056,81.232 22.882,81.13 22.734,80.998 C22.586,80.866 22.47,80.712 22.386,80.536 C22.302,80.36 22.26,80.164 22.26,79.948 C22.26,79.596 22.362,79.282 22.566,79.006 C22.77,78.73 23.024,78.488 23.328,78.28 C23.6,78.392 23.862,78.502 24.114,78.61 C24.366,78.718 24.588,78.838 24.78,78.97 C24.972,79.102 25.124,79.256 25.236,79.432 C25.348,79.608 25.404,79.82 25.404,80.068 C25.404,80.468 25.266,80.792 24.99,81.04 C24.714,81.288 24.352,81.412 23.904,81.412 Z M30.564,82 L30.564,74.968 L32.94,74.968 L32.94,74.128 L27.18,74.128 L27.18,74.968 L29.556,74.968 L29.556,82 L30.564,82 Z" id="Outlays$1.18T" fill="#666666" fill-rule="nonzero"></path>
                <path d="M124.044,67.144 C124.556,67.144 125.024,67.05 125.448,66.862 C125.872,66.674 126.238,66.402 126.546,66.046 C126.854,65.69 127.092,65.26 127.26,64.756 C127.428,64.252 127.512,63.68 127.512,63.04 C127.512,62.408 127.428,61.842 127.26,61.342 C127.092,60.842 126.854,60.42 126.546,60.076 C126.238,59.732 125.872,59.468 125.448,59.284 C125.024,59.1 124.556,59.008 124.044,59.008 C123.532,59.008 123.064,59.1 122.64,59.284 C122.216,59.468 121.852,59.732 121.548,60.076 C121.244,60.42 121.008,60.842 120.84,61.342 C120.672,61.842 120.588,62.408 120.588,63.04 C120.588,63.68 120.672,64.252 120.84,64.756 C121.008,65.26 121.244,65.69 121.548,66.046 C121.852,66.402 122.216,66.674 122.64,66.862 C123.064,67.05 123.532,67.144 124.044,67.144 Z M124.044,65.932 C123.732,65.932 123.452,65.864 123.204,65.728 C122.956,65.592 122.744,65.398 122.568,65.146 C122.392,64.894 122.256,64.59 122.16,64.234 C122.064,63.878 122.016,63.48 122.016,63.04 C122.016,62.16 122.198,61.47 122.562,60.97 C122.926,60.47 123.42,60.22 124.044,60.22 C124.668,60.22 125.162,60.47 125.526,60.97 C125.89,61.47 126.072,62.16 126.072,63.04 C126.072,63.48 126.024,63.878 125.928,64.234 C125.832,64.59 125.696,64.894 125.52,65.146 C125.344,65.398 125.132,65.592 124.884,65.728 C124.636,65.864 124.356,65.932 124.044,65.932 Z M131.82,67.144 C132.148,67.144 132.464,67.072 132.768,66.928 C133.072,66.784 133.34,66.576 133.572,66.304 C133.804,66.032 133.99,65.698 134.13,65.302 C134.27,64.906 134.34,64.456 134.34,63.952 C134.34,63.496 134.288,63.084 134.184,62.716 C134.08,62.348 133.928,62.034 133.728,61.774 C133.528,61.514 133.284,61.314 132.996,61.174 C132.708,61.034 132.38,60.964 132.012,60.964 C131.708,60.964 131.41,61.032 131.118,61.168 C130.826,61.304 130.556,61.48 130.308,61.696 L130.308,61.696 L130.344,60.712 L130.344,58.528 L128.964,58.528 L128.964,67 L130.056,67 L130.176,66.376 L130.212,66.376 C130.46,66.624 130.722,66.814 130.998,66.946 C131.274,67.078 131.548,67.144 131.82,67.144 Z M131.532,66.004 C131.356,66.004 131.166,65.968 130.962,65.896 C130.758,65.824 130.552,65.696 130.344,65.512 L130.344,65.512 L130.344,62.764 C130.792,62.324 131.224,62.104 131.64,62.104 C132.088,62.104 132.412,62.268 132.612,62.596 C132.812,62.924 132.912,63.384 132.912,63.976 C132.912,64.648 132.78,65.154 132.516,65.494 C132.252,65.834 131.924,66.004 131.532,66.004 Z M137.064,67.144 C137.368,67.144 137.612,67.104 137.796,67.024 L137.796,67.024 L137.616,65.992 C137.56,66.008 137.518,66.016 137.49,66.016 L137.49,66.016 L137.4,66.016 C137.328,66.016 137.26,65.982 137.196,65.914 C137.132,65.846 137.1,65.728 137.1,65.56 L137.1,65.56 L137.1,58.528 L135.72,58.528 L135.72,65.488 C135.72,66 135.82,66.404 136.02,66.7 C136.22,66.996 136.568,67.144 137.064,67.144 Z M139.668,60.076 C139.916,60.076 140.12,60.004 140.28,59.86 C140.44,59.716 140.52,59.528 140.52,59.296 C140.52,59.064 140.44,58.874 140.28,58.726 C140.12,58.578 139.916,58.504 139.668,58.504 C139.42,58.504 139.216,58.578 139.056,58.726 C138.896,58.874 138.816,59.064 138.816,59.296 C138.816,59.528 138.896,59.716 139.056,59.86 C139.216,60.004 139.42,60.076 139.668,60.076 Z M140.352,67 L140.352,61.108 L138.972,61.108 L138.972,67 L140.352,67 Z M144.168,69.604 C144.648,69.604 145.082,69.55 145.47,69.442 C145.858,69.334 146.188,69.188 146.46,69.004 C146.732,68.82 146.942,68.6 147.09,68.344 C147.238,68.088 147.312,67.816 147.312,67.528 C147.312,67.016 147.13,66.646 146.766,66.418 C146.402,66.19 145.864,66.076 145.152,66.076 L145.152,66.076 L144.108,66.076 C143.748,66.076 143.498,66.028 143.358,65.932 C143.218,65.836 143.148,65.704 143.148,65.536 C143.148,65.4 143.174,65.292 143.226,65.212 C143.278,65.132 143.348,65.052 143.436,64.972 C143.572,65.028 143.708,65.068 143.844,65.092 C143.98,65.116 144.112,65.128 144.24,65.128 C144.552,65.128 144.844,65.084 145.116,64.996 C145.388,64.908 145.624,64.78 145.824,64.612 C146.024,64.444 146.182,64.236 146.298,63.988 C146.414,63.74 146.472,63.452 146.472,63.124 C146.472,62.916 146.44,62.726 146.376,62.554 C146.312,62.382 146.232,62.24 146.136,62.128 L146.136,62.128 L147.216,62.128 L147.216,61.108 L145.104,61.108 C144.984,61.068 144.85,61.034 144.702,61.006 C144.554,60.978 144.4,60.964 144.24,60.964 C143.928,60.964 143.632,61.01 143.352,61.102 C143.072,61.194 142.826,61.33 142.614,61.51 C142.402,61.69 142.232,61.912 142.104,62.176 C141.976,62.44 141.912,62.74 141.912,63.076 C141.912,63.428 141.99,63.738 142.146,64.006 C142.302,64.274 142.48,64.484 142.68,64.636 L142.68,64.636 L142.68,64.684 C142.512,64.804 142.362,64.958 142.23,65.146 C142.098,65.334 142.032,65.544 142.032,65.776 C142.032,66.016 142.082,66.216 142.182,66.376 C142.282,66.536 142.408,66.664 142.56,66.76 L142.56,66.76 L142.56,66.808 C142.288,66.976 142.08,67.166 141.936,67.378 C141.792,67.59 141.72,67.82 141.72,68.068 C141.72,68.324 141.782,68.548 141.906,68.74 C142.03,68.932 142.2,69.092 142.416,69.22 C142.632,69.348 142.89,69.444 143.19,69.508 C143.49,69.572 143.816,69.604 144.168,69.604 Z M144.24,64.264 C143.952,64.264 143.708,64.162 143.508,63.958 C143.308,63.754 143.208,63.46 143.208,63.076 C143.208,62.7 143.308,62.412 143.508,62.212 C143.708,62.012 143.952,61.912 144.24,61.912 C144.528,61.912 144.77,62.014 144.966,62.218 C145.162,62.422 145.26,62.708 145.26,63.076 C145.26,63.46 145.16,63.754 144.96,63.958 C144.76,64.162 144.52,64.264 144.24,64.264 Z M144.384,68.704 C143.912,68.704 143.542,68.63 143.274,68.482 C143.006,68.334 142.872,68.128 142.872,67.864 C142.872,67.576 143.024,67.316 143.328,67.084 C143.544,67.14 143.812,67.168 144.132,67.168 L144.132,67.168 L144.936,67.168 C145.272,67.168 145.53,67.208 145.71,67.288 C145.89,67.368 145.98,67.524 145.98,67.756 C145.98,68.012 145.834,68.234 145.542,68.422 C145.25,68.61 144.864,68.704 144.384,68.704 Z M149.568,67.144 C149.92,67.144 150.246,67.068 150.546,66.916 C150.846,66.764 151.128,66.576 151.392,66.352 L151.392,66.352 L151.44,66.352 L151.536,67 L152.676,67 L152.676,63.508 C152.676,62.684 152.494,62.054 152.13,61.618 C151.766,61.182 151.216,60.964 150.48,60.964 C150.008,60.964 149.568,61.04 149.16,61.192 C148.752,61.344 148.384,61.524 148.056,61.732 L148.056,61.732 L148.56,62.656 C148.824,62.496 149.094,62.36 149.37,62.248 C149.646,62.136 149.928,62.08 150.216,62.08 C150.416,62.08 150.584,62.11 150.72,62.17 C150.856,62.23 150.966,62.314 151.05,62.422 C151.134,62.53 151.194,62.654 151.23,62.794 C151.266,62.934 151.288,63.08 151.296,63.232 C150.688,63.296 150.166,63.388 149.73,63.508 C149.294,63.628 148.934,63.776 148.65,63.952 C148.366,64.128 148.158,64.338 148.026,64.582 C147.894,64.826 147.828,65.104 147.828,65.416 C147.828,65.936 147.988,66.354 148.308,66.67 C148.628,66.986 149.048,67.144 149.568,67.144 Z M150.012,66.064 C149.764,66.064 149.56,66.004 149.4,65.884 C149.24,65.764 149.16,65.572 149.16,65.308 C149.16,65.164 149.196,65.028 149.268,64.9 C149.34,64.772 149.46,64.658 149.628,64.558 C149.796,64.458 150.016,64.368 150.288,64.288 C150.56,64.208 150.896,64.144 151.296,64.096 L151.296,64.096 L151.296,65.416 C151.072,65.624 150.862,65.784 150.666,65.896 C150.47,66.008 150.252,66.064 150.012,66.064 Z M156.216,67.144 C156.448,67.144 156.666,67.122 156.87,67.078 C157.074,67.034 157.256,66.984 157.416,66.928 L157.416,66.928 L157.176,65.908 C157.088,65.948 156.99,65.98 156.882,66.004 C156.774,66.028 156.668,66.04 156.564,66.04 C156.012,66.04 155.736,65.696 155.736,65.008 L155.736,65.008 L155.736,62.2 L157.236,62.2 L157.236,61.108 L155.736,61.108 L155.736,59.5 L154.584,59.5 L154.416,61.108 L153.504,61.168 L153.504,62.2 L154.344,62.2 L154.344,65.008 C154.344,65.328 154.378,65.618 154.446,65.878 C154.514,66.138 154.622,66.362 154.77,66.55 C154.918,66.738 155.11,66.884 155.346,66.988 C155.582,67.092 155.872,67.144 156.216,67.144 Z M159.168,60.076 C159.416,60.076 159.62,60.004 159.78,59.86 C159.94,59.716 160.02,59.528 160.02,59.296 C160.02,59.064 159.94,58.874 159.78,58.726 C159.62,58.578 159.416,58.504 159.168,58.504 C158.92,58.504 158.716,58.578 158.556,58.726 C158.396,58.874 158.316,59.064 158.316,59.296 C158.316,59.528 158.396,59.716 158.556,59.86 C158.716,60.004 158.92,60.076 159.168,60.076 Z M159.852,67 L159.852,61.108 L158.472,61.108 L158.472,67 L159.852,67 Z M164.028,67.144 C164.396,67.144 164.75,67.076 165.09,66.94 C165.43,66.804 165.728,66.604 165.984,66.34 C166.24,66.076 166.446,65.752 166.602,65.368 C166.758,64.984 166.836,64.548 166.836,64.06 C166.836,63.572 166.758,63.136 166.602,62.752 C166.446,62.368 166.24,62.044 165.984,61.78 C165.728,61.516 165.43,61.314 165.09,61.174 C164.75,61.034 164.396,60.964 164.028,60.964 C163.66,60.964 163.308,61.034 162.972,61.174 C162.636,61.314 162.338,61.516 162.078,61.78 C161.818,62.044 161.612,62.368 161.46,62.752 C161.308,63.136 161.232,63.572 161.232,64.06 C161.232,64.548 161.308,64.984 161.46,65.368 C161.612,65.752 161.818,66.076 162.078,66.34 C162.338,66.604 162.636,66.804 162.972,66.94 C163.308,67.076 163.66,67.144 164.028,67.144 Z M164.028,66.016 C163.596,66.016 163.258,65.838 163.014,65.482 C162.77,65.126 162.648,64.652 162.648,64.06 C162.648,63.46 162.77,62.982 163.014,62.626 C163.258,62.27 163.596,62.092 164.028,62.092 C164.46,62.092 164.8,62.27 165.048,62.626 C165.296,62.982 165.42,63.46 165.42,64.06 C165.42,64.652 165.296,65.126 165.048,65.482 C164.8,65.838 164.46,66.016 164.028,66.016 Z M169.584,67 L169.584,62.884 C169.832,62.644 170.054,62.462 170.25,62.338 C170.446,62.214 170.672,62.152 170.928,62.152 C171.256,62.152 171.492,62.252 171.636,62.452 C171.78,62.652 171.852,62.996 171.852,63.484 L171.852,63.484 L171.852,67 L173.232,67 L173.232,63.304 C173.232,62.552 173.088,61.974 172.8,61.57 C172.512,61.166 172.052,60.964 171.42,60.964 C171.012,60.964 170.654,61.056 170.346,61.24 C170.038,61.424 169.752,61.644 169.488,61.9 L169.488,61.9 L169.44,61.9 L169.344,61.108 L168.204,61.108 L168.204,67 L169.584,67 Z M176.568,67.144 C176.936,67.144 177.264,67.096 177.552,67 C177.84,66.904 178.08,66.774 178.272,66.61 C178.464,66.446 178.61,66.254 178.71,66.034 C178.81,65.814 178.86,65.576 178.86,65.32 C178.86,65.048 178.81,64.814 178.71,64.618 C178.61,64.422 178.478,64.256 178.314,64.12 C178.15,63.984 177.968,63.87 177.768,63.778 C177.568,63.686 177.368,63.604 177.168,63.532 C177.008,63.476 176.854,63.42 176.706,63.364 C176.558,63.308 176.428,63.248 176.316,63.184 C176.204,63.12 176.114,63.046 176.046,62.962 C175.978,62.878 175.944,62.776 175.944,62.656 C175.944,62.472 176.014,62.318 176.154,62.194 C176.294,62.07 176.512,62.008 176.808,62.008 C177.04,62.008 177.262,62.054 177.474,62.146 C177.686,62.238 177.896,62.36 178.104,62.512 L178.104,62.512 L178.74,61.672 C178.5,61.488 178.216,61.324 177.888,61.18 C177.56,61.036 177.192,60.964 176.784,60.964 C176.12,60.964 175.596,61.128 175.212,61.456 C174.828,61.784 174.636,62.208 174.636,62.728 C174.636,62.976 174.686,63.19 174.786,63.37 C174.886,63.55 175.014,63.708 175.17,63.844 C175.326,63.98 175.504,64.096 175.704,64.192 C175.904,64.288 176.1,64.372 176.292,64.444 C176.444,64.508 176.596,64.57 176.748,64.63 C176.9,64.69 177.036,64.756 177.156,64.828 C177.276,64.9 177.372,64.982 177.444,65.074 C177.516,65.166 177.552,65.272 177.552,65.392 C177.552,65.6 177.476,65.77 177.324,65.902 C177.172,66.034 176.936,66.1 176.616,66.1 C176.312,66.1 176.03,66.042 175.77,65.926 C175.51,65.81 175.248,65.648 174.984,65.44 L174.984,65.44 L174.336,66.328 C174.624,66.56 174.966,66.754 175.362,66.91 C175.758,67.066 176.16,67.144 176.568,67.144 Z M123.384,83.32 L123.384,82.108 C123.96,82.028 124.414,81.804 124.746,81.436 C125.078,81.068 125.244,80.596 125.244,80.02 C125.244,79.588 125.162,79.234 124.998,78.958 C124.834,78.682 124.628,78.45 124.38,78.262 C124.132,78.074 123.862,77.914 123.57,77.782 C123.278,77.65 123.008,77.514 122.76,77.374 C122.512,77.234 122.306,77.072 122.142,76.888 C121.978,76.704 121.896,76.468 121.896,76.18 C121.896,75.828 122.004,75.548 122.22,75.34 C122.436,75.132 122.728,75.028 123.096,75.028 C123.424,75.028 123.694,75.088 123.906,75.208 C124.118,75.328 124.336,75.496 124.56,75.712 L124.56,75.712 L125.088,75.124 C124.872,74.892 124.63,74.692 124.362,74.524 C124.094,74.356 123.768,74.252 123.384,74.212 L123.384,74.212 L123.384,73.024 L122.664,73.024 L122.664,74.236 C122.136,74.316 121.714,74.534 121.398,74.89 C121.082,75.246 120.924,75.692 120.924,76.228 C120.924,76.62 121.006,76.942 121.17,77.194 C121.334,77.446 121.54,77.66 121.788,77.836 C122.036,78.012 122.306,78.168 122.598,78.304 C122.89,78.44 123.16,78.586 123.408,78.742 C123.656,78.898 123.862,79.082 124.026,79.294 C124.19,79.506 124.272,79.772 124.272,80.092 C124.272,80.468 124.162,80.768 123.942,80.992 C123.722,81.216 123.388,81.328 122.94,81.328 C122.572,81.328 122.234,81.25 121.926,81.094 C121.618,80.938 121.336,80.748 121.08,80.524 L121.08,80.524 L120.624,81.208 C120.88,81.44 121.188,81.642 121.548,81.814 C121.908,81.986 122.28,82.092 122.664,82.132 L122.664,82.132 L122.664,83.32 L123.384,83.32 Z M131.232,82 L131.232,81.184 L129.648,81.184 L129.648,74.344 L128.892,74.344 C128.684,74.472 128.45,74.582 128.19,74.674 C127.93,74.766 127.624,74.844 127.272,74.908 L127.272,74.908 L127.272,75.544 L128.664,75.544 L128.664,81.184 L126.912,81.184 L126.912,82 L131.232,82 Z M133.428,82.144 C133.62,82.144 133.786,82.074 133.926,81.934 C134.066,81.794 134.136,81.616 134.136,81.4 C134.136,81.168 134.066,80.982 133.926,80.842 C133.786,80.702 133.62,80.632 133.428,80.632 C133.228,80.632 133.058,80.702 132.918,80.842 C132.778,80.982 132.708,81.168 132.708,81.4 C132.708,81.616 132.778,81.794 132.918,81.934 C133.058,82.074 133.228,82.144 133.428,82.144 Z M140.34,82 L140.34,81.148 L138.12,81.148 C137.92,81.148 137.708,81.156 137.484,81.172 C137.26,81.188 137.044,81.204 136.836,81.22 C137.292,80.748 137.71,80.302 138.09,79.882 C138.47,79.462 138.798,79.058 139.074,78.67 C139.35,78.282 139.566,77.906 139.722,77.542 C139.878,77.178 139.956,76.816 139.956,76.456 C139.956,75.776 139.752,75.23 139.344,74.818 C138.936,74.406 138.376,74.2 137.664,74.2 C137.16,74.2 136.728,74.306 136.368,74.518 C136.008,74.73 135.668,75.012 135.348,75.364 L135.348,75.364 L135.912,75.928 C136.136,75.672 136.384,75.454 136.656,75.274 C136.928,75.094 137.224,75.004 137.544,75.004 C138.032,75.004 138.396,75.144 138.636,75.424 C138.876,75.704 138.996,76.064 138.996,76.504 C138.996,76.816 138.916,77.138 138.756,77.47 C138.596,77.802 138.364,78.166 138.06,78.562 C137.756,78.958 137.38,79.388 136.932,79.852 C136.484,80.316 135.972,80.836 135.396,81.412 L135.396,81.412 L135.396,82 L140.34,82 Z M143.88,82.144 C144.248,82.144 144.584,82.092 144.888,81.988 C145.192,81.884 145.452,81.74 145.668,81.556 C145.884,81.372 146.052,81.156 146.172,80.908 C146.292,80.66 146.352,80.392 146.352,80.104 C146.352,79.848 146.314,79.62 146.238,79.42 C146.162,79.22 146.062,79.042 145.938,78.886 C145.814,78.73 145.672,78.59 145.512,78.466 C145.352,78.342 145.188,78.232 145.02,78.136 L145.02,78.136 L145.02,78.088 C145.14,78 145.262,77.892 145.386,77.764 C145.51,77.636 145.622,77.492 145.722,77.332 C145.822,77.172 145.906,77 145.974,76.816 C146.042,76.632 146.076,76.44 146.076,76.24 C146.076,75.944 146.026,75.67 145.926,75.418 C145.826,75.166 145.682,74.95 145.494,74.77 C145.306,74.59 145.08,74.45 144.816,74.35 C144.552,74.25 144.252,74.2 143.916,74.2 C143.604,74.2 143.316,74.248 143.052,74.344 C142.788,74.44 142.56,74.574 142.368,74.746 C142.176,74.918 142.024,75.124 141.912,75.364 C141.8,75.604 141.744,75.872 141.744,76.168 C141.744,76.576 141.852,76.922 142.068,77.206 C142.284,77.49 142.532,77.732 142.812,77.932 L142.812,77.932 L142.812,77.98 C142.628,78.076 142.45,78.19 142.278,78.322 C142.106,78.454 141.954,78.606 141.822,78.778 C141.69,78.95 141.582,79.142 141.498,79.354 C141.414,79.566 141.372,79.796 141.372,80.044 C141.372,80.348 141.436,80.628 141.564,80.884 C141.692,81.14 141.866,81.362 142.086,81.55 C142.306,81.738 142.57,81.884 142.878,81.988 C143.186,82.092 143.52,82.144 143.88,82.144 Z M144.42,77.824 C144.188,77.736 143.966,77.642 143.754,77.542 C143.542,77.442 143.354,77.328 143.19,77.2 C143.026,77.072 142.896,76.926 142.8,76.762 C142.704,76.598 142.656,76.4 142.656,76.168 C142.656,75.792 142.772,75.492 143.004,75.268 C143.236,75.044 143.532,74.932 143.892,74.932 C144.316,74.932 144.644,75.062 144.876,75.322 C145.108,75.582 145.224,75.904 145.224,76.288 C145.224,76.568 145.154,76.836 145.014,77.092 C144.874,77.348 144.676,77.592 144.42,77.824 Z M143.904,81.412 C143.672,81.412 143.456,81.376 143.256,81.304 C143.056,81.232 142.882,81.13 142.734,80.998 C142.586,80.866 142.47,80.712 142.386,80.536 C142.302,80.36 142.26,80.164 142.26,79.948 C142.26,79.596 142.362,79.282 142.566,79.006 C142.77,78.73 143.024,78.488 143.328,78.28 C143.6,78.392 143.862,78.502 144.114,78.61 C144.366,78.718 144.588,78.838 144.78,78.97 C144.972,79.102 145.124,79.256 145.236,79.432 C145.348,79.608 145.404,79.82 145.404,80.068 C145.404,80.468 145.266,80.792 144.99,81.04 C144.714,81.288 144.352,81.412 143.904,81.412 Z M150.564,82 L150.564,74.968 L152.94,74.968 L152.94,74.128 L147.18,74.128 L147.18,74.968 L149.556,74.968 L149.556,82 L150.564,82 Z" id="Obligations$1.28T" fill="#666666" fill-rule="nonzero"></path>
                <path d="M263.936,67.144 C264.392,67.144 264.802,67.078 265.166,66.946 C265.53,66.814 265.842,66.604 266.102,66.316 C266.362,66.028 266.56,65.658 266.696,65.206 C266.832,64.754 266.9,64.204 266.9,63.556 L266.9,63.556 L266.9,59.152 L265.568,59.152 L265.568,63.664 C265.568,64.088 265.528,64.446 265.448,64.738 C265.368,65.03 265.256,65.264 265.112,65.44 C264.968,65.616 264.796,65.742 264.596,65.818 C264.396,65.894 264.176,65.932 263.936,65.932 C263.696,65.932 263.48,65.894 263.288,65.818 C263.096,65.742 262.93,65.616 262.79,65.44 C262.65,65.264 262.542,65.03 262.466,64.738 C262.39,64.446 262.352,64.088 262.352,63.664 L262.352,63.664 L262.352,59.152 L260.96,59.152 L260.96,63.556 C260.96,64.204 261.03,64.754 261.17,65.206 C261.31,65.658 261.51,66.028 261.77,66.316 C262.03,66.604 262.342,66.814 262.706,66.946 C263.07,67.078 263.48,67.144 263.936,67.144 Z M270.116,67 L270.116,62.884 C270.364,62.644 270.586,62.462 270.782,62.338 C270.978,62.214 271.204,62.152 271.46,62.152 C271.788,62.152 272.024,62.252 272.168,62.452 C272.312,62.652 272.384,62.996 272.384,63.484 L272.384,63.484 L272.384,67 L273.764,67 L273.764,63.304 C273.764,62.552 273.62,61.974 273.332,61.57 C273.044,61.166 272.584,60.964 271.952,60.964 C271.544,60.964 271.186,61.056 270.878,61.24 C270.57,61.424 270.284,61.644 270.02,61.9 L270.02,61.9 L269.972,61.9 L269.876,61.108 L268.736,61.108 L268.736,67 L270.116,67 Z M277.868,67.144 C278.236,67.144 278.59,67.076 278.93,66.94 C279.27,66.804 279.568,66.604 279.824,66.34 C280.08,66.076 280.286,65.752 280.442,65.368 C280.598,64.984 280.676,64.548 280.676,64.06 C280.676,63.572 280.598,63.136 280.442,62.752 C280.286,62.368 280.08,62.044 279.824,61.78 C279.568,61.516 279.27,61.314 278.93,61.174 C278.59,61.034 278.236,60.964 277.868,60.964 C277.5,60.964 277.148,61.034 276.812,61.174 C276.476,61.314 276.178,61.516 275.918,61.78 C275.658,62.044 275.452,62.368 275.3,62.752 C275.148,63.136 275.072,63.572 275.072,64.06 C275.072,64.548 275.148,64.984 275.3,65.368 C275.452,65.752 275.658,66.076 275.918,66.34 C276.178,66.604 276.476,66.804 276.812,66.94 C277.148,67.076 277.5,67.144 277.868,67.144 Z M277.868,66.016 C277.436,66.016 277.098,65.838 276.854,65.482 C276.61,65.126 276.488,64.652 276.488,64.06 C276.488,63.46 276.61,62.982 276.854,62.626 C277.098,62.27 277.436,62.092 277.868,62.092 C278.3,62.092 278.64,62.27 278.888,62.626 C279.136,62.982 279.26,63.46 279.26,64.06 C279.26,64.652 279.136,65.126 278.888,65.482 C278.64,65.838 278.3,66.016 277.868,66.016 Z M284.9,67.144 C285.228,67.144 285.544,67.072 285.848,66.928 C286.152,66.784 286.42,66.576 286.652,66.304 C286.884,66.032 287.07,65.698 287.21,65.302 C287.35,64.906 287.42,64.456 287.42,63.952 C287.42,63.496 287.368,63.084 287.264,62.716 C287.16,62.348 287.008,62.034 286.808,61.774 C286.608,61.514 286.364,61.314 286.076,61.174 C285.788,61.034 285.46,60.964 285.092,60.964 C284.788,60.964 284.49,61.032 284.198,61.168 C283.906,61.304 283.636,61.48 283.388,61.696 L283.388,61.696 L283.424,60.712 L283.424,58.528 L282.044,58.528 L282.044,67 L283.136,67 L283.256,66.376 L283.292,66.376 C283.54,66.624 283.802,66.814 284.078,66.946 C284.354,67.078 284.628,67.144 284.9,67.144 Z M284.612,66.004 C284.436,66.004 284.246,65.968 284.042,65.896 C283.838,65.824 283.632,65.696 283.424,65.512 L283.424,65.512 L283.424,62.764 C283.872,62.324 284.304,62.104 284.72,62.104 C285.168,62.104 285.492,62.268 285.692,62.596 C285.892,62.924 285.992,63.384 285.992,63.976 C285.992,64.648 285.86,65.154 285.596,65.494 C285.332,65.834 285.004,66.004 284.612,66.004 Z M290.144,67.144 C290.448,67.144 290.692,67.104 290.876,67.024 L290.876,67.024 L290.696,65.992 C290.64,66.008 290.598,66.016 290.57,66.016 L290.57,66.016 L290.48,66.016 C290.408,66.016 290.34,65.982 290.276,65.914 C290.212,65.846 290.18,65.728 290.18,65.56 L290.18,65.56 L290.18,58.528 L288.8,58.528 L288.8,65.488 C288.8,66 288.9,66.404 289.1,66.7 C289.3,66.996 289.648,67.144 290.144,67.144 Z M292.748,60.076 C292.996,60.076 293.2,60.004 293.36,59.86 C293.52,59.716 293.6,59.528 293.6,59.296 C293.6,59.064 293.52,58.874 293.36,58.726 C293.2,58.578 292.996,58.504 292.748,58.504 C292.5,58.504 292.296,58.578 292.136,58.726 C291.976,58.874 291.896,59.064 291.896,59.296 C291.896,59.528 291.976,59.716 292.136,59.86 C292.296,60.004 292.5,60.076 292.748,60.076 Z M293.432,67 L293.432,61.108 L292.052,61.108 L292.052,67 L293.432,67 Z M297.248,69.604 C297.728,69.604 298.162,69.55 298.55,69.442 C298.938,69.334 299.268,69.188 299.54,69.004 C299.812,68.82 300.022,68.6 300.17,68.344 C300.318,68.088 300.392,67.816 300.392,67.528 C300.392,67.016 300.21,66.646 299.846,66.418 C299.482,66.19 298.944,66.076 298.232,66.076 L298.232,66.076 L297.188,66.076 C296.828,66.076 296.578,66.028 296.438,65.932 C296.298,65.836 296.228,65.704 296.228,65.536 C296.228,65.4 296.254,65.292 296.306,65.212 C296.358,65.132 296.428,65.052 296.516,64.972 C296.652,65.028 296.788,65.068 296.924,65.092 C297.06,65.116 297.192,65.128 297.32,65.128 C297.632,65.128 297.924,65.084 298.196,64.996 C298.468,64.908 298.704,64.78 298.904,64.612 C299.104,64.444 299.262,64.236 299.378,63.988 C299.494,63.74 299.552,63.452 299.552,63.124 C299.552,62.916 299.52,62.726 299.456,62.554 C299.392,62.382 299.312,62.24 299.216,62.128 L299.216,62.128 L300.296,62.128 L300.296,61.108 L298.184,61.108 C298.064,61.068 297.93,61.034 297.782,61.006 C297.634,60.978 297.48,60.964 297.32,60.964 C297.008,60.964 296.712,61.01 296.432,61.102 C296.152,61.194 295.906,61.33 295.694,61.51 C295.482,61.69 295.312,61.912 295.184,62.176 C295.056,62.44 294.992,62.74 294.992,63.076 C294.992,63.428 295.07,63.738 295.226,64.006 C295.382,64.274 295.56,64.484 295.76,64.636 L295.76,64.636 L295.76,64.684 C295.592,64.804 295.442,64.958 295.31,65.146 C295.178,65.334 295.112,65.544 295.112,65.776 C295.112,66.016 295.162,66.216 295.262,66.376 C295.362,66.536 295.488,66.664 295.64,66.76 L295.64,66.76 L295.64,66.808 C295.368,66.976 295.16,67.166 295.016,67.378 C294.872,67.59 294.8,67.82 294.8,68.068 C294.8,68.324 294.862,68.548 294.986,68.74 C295.11,68.932 295.28,69.092 295.496,69.22 C295.712,69.348 295.97,69.444 296.27,69.508 C296.57,69.572 296.896,69.604 297.248,69.604 Z M297.32,64.264 C297.032,64.264 296.788,64.162 296.588,63.958 C296.388,63.754 296.288,63.46 296.288,63.076 C296.288,62.7 296.388,62.412 296.588,62.212 C296.788,62.012 297.032,61.912 297.32,61.912 C297.608,61.912 297.85,62.014 298.046,62.218 C298.242,62.422 298.34,62.708 298.34,63.076 C298.34,63.46 298.24,63.754 298.04,63.958 C297.84,64.162 297.6,64.264 297.32,64.264 Z M297.464,68.704 C296.992,68.704 296.622,68.63 296.354,68.482 C296.086,68.334 295.952,68.128 295.952,67.864 C295.952,67.576 296.104,67.316 296.408,67.084 C296.624,67.14 296.892,67.168 297.212,67.168 L297.212,67.168 L298.016,67.168 C298.352,67.168 298.61,67.208 298.79,67.288 C298.97,67.368 299.06,67.524 299.06,67.756 C299.06,68.012 298.914,68.234 298.622,68.422 C298.33,68.61 297.944,68.704 297.464,68.704 Z M302.648,67.144 C303,67.144 303.326,67.068 303.626,66.916 C303.926,66.764 304.208,66.576 304.472,66.352 L304.472,66.352 L304.52,66.352 L304.616,67 L305.756,67 L305.756,63.508 C305.756,62.684 305.574,62.054 305.21,61.618 C304.846,61.182 304.296,60.964 303.56,60.964 C303.088,60.964 302.648,61.04 302.24,61.192 C301.832,61.344 301.464,61.524 301.136,61.732 L301.136,61.732 L301.64,62.656 C301.904,62.496 302.174,62.36 302.45,62.248 C302.726,62.136 303.008,62.08 303.296,62.08 C303.496,62.08 303.664,62.11 303.8,62.17 C303.936,62.23 304.046,62.314 304.13,62.422 C304.214,62.53 304.274,62.654 304.31,62.794 C304.346,62.934 304.368,63.08 304.376,63.232 C303.768,63.296 303.246,63.388 302.81,63.508 C302.374,63.628 302.014,63.776 301.73,63.952 C301.446,64.128 301.238,64.338 301.106,64.582 C300.974,64.826 300.908,65.104 300.908,65.416 C300.908,65.936 301.068,66.354 301.388,66.67 C301.708,66.986 302.128,67.144 302.648,67.144 Z M303.092,66.064 C302.844,66.064 302.64,66.004 302.48,65.884 C302.32,65.764 302.24,65.572 302.24,65.308 C302.24,65.164 302.276,65.028 302.348,64.9 C302.42,64.772 302.54,64.658 302.708,64.558 C302.876,64.458 303.096,64.368 303.368,64.288 C303.64,64.208 303.976,64.144 304.376,64.096 L304.376,64.096 L304.376,65.416 C304.152,65.624 303.942,65.784 303.746,65.896 C303.55,66.008 303.332,66.064 303.092,66.064 Z M309.296,67.144 C309.528,67.144 309.746,67.122 309.95,67.078 C310.154,67.034 310.336,66.984 310.496,66.928 L310.496,66.928 L310.256,65.908 C310.168,65.948 310.07,65.98 309.962,66.004 C309.854,66.028 309.748,66.04 309.644,66.04 C309.092,66.04 308.816,65.696 308.816,65.008 L308.816,65.008 L308.816,62.2 L310.316,62.2 L310.316,61.108 L308.816,61.108 L308.816,59.5 L307.664,59.5 L307.496,61.108 L306.584,61.168 L306.584,62.2 L307.424,62.2 L307.424,65.008 C307.424,65.328 307.458,65.618 307.526,65.878 C307.594,66.138 307.702,66.362 307.85,66.55 C307.998,66.738 308.19,66.884 308.426,66.988 C308.662,67.092 308.952,67.144 309.296,67.144 Z M313.88,67.144 C314.256,67.144 314.616,67.084 314.96,66.964 C315.304,66.844 315.616,66.692 315.896,66.508 L315.896,66.508 L315.428,65.644 C315.212,65.78 314.994,65.886 314.774,65.962 C314.554,66.038 314.316,66.076 314.06,66.076 C313.58,66.076 313.186,65.934 312.878,65.65 C312.57,65.366 312.384,64.96 312.32,64.432 L312.32,64.432 L316.064,64.432 C316.08,64.36 316.094,64.264 316.106,64.144 C316.118,64.024 316.124,63.896 316.124,63.76 C316.124,63.352 316.072,62.976 315.968,62.632 C315.864,62.288 315.71,61.992 315.506,61.744 C315.302,61.496 315.048,61.304 314.744,61.168 C314.44,61.032 314.088,60.964 313.688,60.964 C313.344,60.964 313.008,61.036 312.68,61.18 C312.352,61.324 312.062,61.528 311.81,61.792 C311.558,62.056 311.356,62.38 311.204,62.764 C311.052,63.148 310.976,63.58 310.976,64.06 C310.976,64.548 311.05,64.982 311.198,65.362 C311.346,65.742 311.552,66.064 311.816,66.328 C312.08,66.592 312.388,66.794 312.74,66.934 C313.092,67.074 313.472,67.144 313.88,67.144 Z M314.924,63.496 L312.308,63.496 C312.372,63.016 312.536,62.652 312.8,62.404 C313.064,62.156 313.372,62.032 313.724,62.032 C314.132,62.032 314.434,62.162 314.63,62.422 C314.826,62.682 314.924,63.04 314.924,63.496 L314.924,63.496 Z M319.508,67.144 C319.828,67.144 320.132,67.068 320.42,66.916 C320.708,66.764 320.96,66.58 321.176,66.364 L321.176,66.364 L321.224,66.364 L321.32,67 L322.46,67 L322.46,58.528 L321.08,58.528 L321.08,60.664 L321.128,61.612 C320.896,61.412 320.664,61.254 320.432,61.138 C320.2,61.022 319.916,60.964 319.58,60.964 C319.26,60.964 318.95,61.036 318.65,61.18 C318.35,61.324 318.084,61.528 317.852,61.792 C317.62,62.056 317.434,62.38 317.294,62.764 C317.154,63.148 317.084,63.58 317.084,64.06 C317.084,65.036 317.302,65.794 317.738,66.334 C318.174,66.874 318.764,67.144 319.508,67.144 Z M319.844,66.004 C319.412,66.004 319.082,65.838 318.854,65.506 C318.626,65.174 318.512,64.688 318.512,64.048 C318.512,63.424 318.644,62.944 318.908,62.608 C319.172,62.272 319.496,62.104 319.88,62.104 C320.08,62.104 320.278,62.14 320.474,62.212 C320.67,62.284 320.872,62.412 321.08,62.596 L321.08,62.596 L321.08,65.344 C320.696,65.784 320.284,66.004 319.844,66.004 Z M263.384,83.32 L263.384,82.108 C263.96,82.028 264.414,81.804 264.746,81.436 C265.078,81.068 265.244,80.596 265.244,80.02 C265.244,79.588 265.162,79.234 264.998,78.958 C264.834,78.682 264.628,78.45 264.38,78.262 C264.132,78.074 263.862,77.914 263.57,77.782 C263.278,77.65 263.008,77.514 262.76,77.374 C262.512,77.234 262.306,77.072 262.142,76.888 C261.978,76.704 261.896,76.468 261.896,76.18 C261.896,75.828 262.004,75.548 262.22,75.34 C262.436,75.132 262.728,75.028 263.096,75.028 C263.424,75.028 263.694,75.088 263.906,75.208 C264.118,75.328 264.336,75.496 264.56,75.712 L264.56,75.712 L265.088,75.124 C264.872,74.892 264.63,74.692 264.362,74.524 C264.094,74.356 263.768,74.252 263.384,74.212 L263.384,74.212 L263.384,73.024 L262.664,73.024 L262.664,74.236 C262.136,74.316 261.714,74.534 261.398,74.89 C261.082,75.246 260.924,75.692 260.924,76.228 C260.924,76.62 261.006,76.942 261.17,77.194 C261.334,77.446 261.54,77.66 261.788,77.836 C262.036,78.012 262.306,78.168 262.598,78.304 C262.89,78.44 263.16,78.586 263.408,78.742 C263.656,78.898 263.862,79.082 264.026,79.294 C264.19,79.506 264.272,79.772 264.272,80.092 C264.272,80.468 264.162,80.768 263.942,80.992 C263.722,81.216 263.388,81.328 262.94,81.328 C262.572,81.328 262.234,81.25 261.926,81.094 C261.618,80.938 261.336,80.748 261.08,80.524 L261.08,80.524 L260.624,81.208 C260.88,81.44 261.188,81.642 261.548,81.814 C261.908,81.986 262.28,82.092 262.664,82.132 L262.664,82.132 L262.664,83.32 L263.384,83.32 Z M268.964,82.144 C269.332,82.144 269.668,82.092 269.972,81.988 C270.276,81.884 270.536,81.74 270.752,81.556 C270.968,81.372 271.136,81.156 271.256,80.908 C271.376,80.66 271.436,80.392 271.436,80.104 C271.436,79.848 271.398,79.62 271.322,79.42 C271.246,79.22 271.146,79.042 271.022,78.886 C270.898,78.73 270.756,78.59 270.596,78.466 C270.436,78.342 270.272,78.232 270.104,78.136 L270.104,78.136 L270.104,78.088 C270.224,78 270.346,77.892 270.47,77.764 C270.594,77.636 270.706,77.492 270.806,77.332 C270.906,77.172 270.99,77 271.058,76.816 C271.126,76.632 271.16,76.44 271.16,76.24 C271.16,75.944 271.11,75.67 271.01,75.418 C270.91,75.166 270.766,74.95 270.578,74.77 C270.39,74.59 270.164,74.45 269.9,74.35 C269.636,74.25 269.336,74.2 269,74.2 C268.688,74.2 268.4,74.248 268.136,74.344 C267.872,74.44 267.644,74.574 267.452,74.746 C267.26,74.918 267.108,75.124 266.996,75.364 C266.884,75.604 266.828,75.872 266.828,76.168 C266.828,76.576 266.936,76.922 267.152,77.206 C267.368,77.49 267.616,77.732 267.896,77.932 L267.896,77.932 L267.896,77.98 C267.712,78.076 267.534,78.19 267.362,78.322 C267.19,78.454 267.038,78.606 266.906,78.778 C266.774,78.95 266.666,79.142 266.582,79.354 C266.498,79.566 266.456,79.796 266.456,80.044 C266.456,80.348 266.52,80.628 266.648,80.884 C266.776,81.14 266.95,81.362 267.17,81.55 C267.39,81.738 267.654,81.884 267.962,81.988 C268.27,82.092 268.604,82.144 268.964,82.144 Z M269.504,77.824 C269.272,77.736 269.05,77.642 268.838,77.542 C268.626,77.442 268.438,77.328 268.274,77.2 C268.11,77.072 267.98,76.926 267.884,76.762 C267.788,76.598 267.74,76.4 267.74,76.168 C267.74,75.792 267.856,75.492 268.088,75.268 C268.32,75.044 268.616,74.932 268.976,74.932 C269.4,74.932 269.728,75.062 269.96,75.322 C270.192,75.582 270.308,75.904 270.308,76.288 C270.308,76.568 270.238,76.836 270.098,77.092 C269.958,77.348 269.76,77.592 269.504,77.824 Z M268.988,81.412 C268.756,81.412 268.54,81.376 268.34,81.304 C268.14,81.232 267.966,81.13 267.818,80.998 C267.67,80.866 267.554,80.712 267.47,80.536 C267.386,80.36 267.344,80.164 267.344,79.948 C267.344,79.596 267.446,79.282 267.65,79.006 C267.854,78.73 268.108,78.488 268.412,78.28 C268.684,78.392 268.946,78.502 269.198,78.61 C269.45,78.718 269.672,78.838 269.864,78.97 C270.056,79.102 270.208,79.256 270.32,79.432 C270.432,79.608 270.488,79.82 270.488,80.068 C270.488,80.468 270.35,80.792 270.074,81.04 C269.798,81.288 269.436,81.412 268.988,81.412 Z M274.916,82.144 C275.684,82.144 276.284,81.8 276.716,81.112 C277.148,80.424 277.364,79.436 277.364,78.148 C277.364,76.86 277.148,75.88 276.716,75.208 C276.284,74.536 275.684,74.2 274.916,74.2 C274.14,74.2 273.536,74.536 273.104,75.208 C272.672,75.88 272.456,76.86 272.456,78.148 C272.456,79.436 272.672,80.424 273.104,81.112 C273.536,81.8 274.14,82.144 274.916,82.144 Z M274.916,81.352 C274.468,81.352 274.106,81.098 273.83,80.59 C273.554,80.082 273.416,79.268 273.416,78.148 C273.416,77.588 273.452,77.108 273.524,76.708 C273.596,76.308 273.698,75.982 273.83,75.73 C273.962,75.478 274.12,75.292 274.304,75.172 C274.488,75.052 274.692,74.992 274.916,74.992 C275.14,74.992 275.342,75.052 275.522,75.172 C275.702,75.292 275.858,75.478 275.99,75.73 C276.122,75.982 276.224,76.308 276.296,76.708 C276.368,77.108 276.404,77.588 276.404,78.148 C276.404,78.708 276.368,79.19 276.296,79.594 C276.224,79.998 276.122,80.33 275.99,80.59 C275.858,80.85 275.702,81.042 275.522,81.166 C275.342,81.29 275.14,81.352 274.916,81.352 Z M283.316,82 L283.316,81.148 L281.096,81.148 C280.896,81.148 280.684,81.156 280.46,81.172 C280.236,81.188 280.02,81.204 279.812,81.22 C280.268,80.748 280.686,80.302 281.066,79.882 C281.446,79.462 281.774,79.058 282.05,78.67 C282.326,78.282 282.542,77.906 282.698,77.542 C282.854,77.178 282.932,76.816 282.932,76.456 C282.932,75.776 282.728,75.23 282.32,74.818 C281.912,74.406 281.352,74.2 280.64,74.2 C280.136,74.2 279.704,74.306 279.344,74.518 C278.984,74.73 278.644,75.012 278.324,75.364 L278.324,75.364 L278.888,75.928 C279.112,75.672 279.36,75.454 279.632,75.274 C279.904,75.094 280.2,75.004 280.52,75.004 C281.008,75.004 281.372,75.144 281.612,75.424 C281.852,75.704 281.972,76.064 281.972,76.504 C281.972,76.816 281.892,77.138 281.732,77.47 C281.572,77.802 281.34,78.166 281.036,78.562 C280.732,78.958 280.356,79.388 279.908,79.852 C279.46,80.316 278.948,80.836 278.372,81.412 L278.372,81.412 L278.372,82 L283.316,82 Z M287.444,82 C287.884,82 288.288,81.952 288.656,81.856 C289.024,81.76 289.34,81.616 289.604,81.424 C289.868,81.232 290.072,80.992 290.216,80.704 C290.36,80.416 290.432,80.08 290.432,79.696 C290.432,79.152 290.284,78.724 289.988,78.412 C289.692,78.1 289.304,77.9 288.824,77.812 L288.824,77.812 L288.824,77.764 C289.2,77.644 289.486,77.426 289.682,77.11 C289.878,76.794 289.976,76.44 289.976,76.048 C289.976,75.704 289.91,75.41 289.778,75.166 C289.646,74.922 289.462,74.724 289.226,74.572 C288.99,74.42 288.706,74.308 288.374,74.236 C288.042,74.164 287.676,74.128 287.276,74.128 L287.276,74.128 L284.936,74.128 L284.936,82 L287.444,82 Z M287.096,77.476 L285.932,77.476 L285.932,74.92 L287.144,74.92 C287.76,74.92 288.222,75.016 288.53,75.208 C288.838,75.4 288.992,75.724 288.992,76.18 C288.992,76.58 288.844,76.896 288.548,77.128 C288.252,77.36 287.768,77.476 287.096,77.476 L287.096,77.476 Z M287.3,81.208 L285.932,81.208 L285.932,78.244 L287.3,78.244 C287.996,78.244 288.528,78.358 288.896,78.586 C289.264,78.814 289.448,79.172 289.448,79.66 C289.448,80.188 289.26,80.578 288.884,80.83 C288.508,81.082 287.98,81.208 287.3,81.208 L287.3,81.208 Z" id="Unobligated$802B" fill="#666666" fill-rule="nonzero"></path>
                <line x1="4.5" y1="40" x2="4.5" y2="55" id="Line" stroke="#C6C6C6"></line>
                <path d="M148,40 L148,47.75 C148,48.8545695 147.104569,49.75 146,49.75 L129,49.75 C127.895431,49.75 127,50.6454305 127,51.75 L127,55 L127,55" id="Line-Copy-9" stroke="#C6C6C6" stroke-linecap="round" transform="translate(137.500000, 47.500000) scale(1, -1) translate(-137.500000, -47.500000) "></path>
                <path d="M288,40 L288,47.75 C288,48.8545695 287.104569,49.75 286,49.75 L176,49.75 C174.895431,49.75 174,50.6454305 174,51.75 L174,55 L174,55" id="Line-Copy-10" stroke="#C6C6C6" stroke-linecap="round" transform="translate(231.000000, 47.500000) scale(1, -1) translate(-231.000000, -47.500000) "></path>
                <rect id="unobligated" fill="#F3E9FF" x="133" y="0" width="83" height="40"></rect>
                <rect id="obligated" fill="#6F41A7" x="122" y="0" width="11" height="40"></rect>
                <rect id="outlays" fill="#331E4D" x="0" y="0" width="122" height="40"></rect>
                <path d="M230.992,27.76 L230.992,26.096 C231.824,25.9146667 232.448,25.5493333 232.864,25 C233.28,24.4506667 233.488,23.792 233.488,23.024 C233.488,22.512 233.384,22.0826667 233.176,21.736 C232.968,21.3893333 232.706667,21.0933333 232.392,20.848 C232.077333,20.6026667 231.738667,20.3946667 231.376,20.224 C231.013333,20.0533333 230.674667,19.888 230.36,19.728 C230.045333,19.568 229.784,19.4 229.576,19.224 C229.368,19.048 229.264,18.832 229.264,18.576 C229.264,18.2133333 229.365333,17.952 229.568,17.792 C229.770667,17.632 230.064,17.552 230.448,17.552 C230.789333,17.552 231.093333,17.6186667 231.36,17.752 C231.626667,17.8853333 231.904,18.0853333 232.192,18.352 L232.192,18.352 L233.376,17.008 C233.066667,16.6773333 232.72,16.3946667 232.336,16.16 C231.952,15.9253333 231.504,15.7706667 230.992,15.696 L230.992,15.696 L230.992,14.08 L229.44,14.08 L229.44,15.728 C228.682667,15.8773333 228.088,16.2106667 227.656,16.728 C227.224,17.2453333 227.008,17.8986667 227.008,18.688 C227.008,19.168 227.112,19.5733333 227.32,19.904 C227.528,20.2346667 227.789333,20.5226667 228.104,20.768 C228.418667,21.0133333 228.757333,21.224 229.12,21.4 C229.482667,21.576 229.821333,21.752 230.136,21.928 C230.450667,22.104 230.712,22.288 230.92,22.48 C231.128,22.672 231.232,22.9066667 231.232,23.184 C231.232,23.5573333 231.128,23.8346667 230.92,24.016 C230.712,24.1973333 230.384,24.288 229.936,24.288 C229.552,24.288 229.176,24.2106667 228.808,24.056 C228.44,23.9013333 228.053333,23.6693333 227.648,23.36 L227.648,23.36 L226.624,24.944 C226.997333,25.2853333 227.442667,25.56 227.96,25.768 C228.477333,25.976 228.970667,26.1066667 229.44,26.16 L229.44,26.16 L229.44,27.76 L230.992,27.76 Z M242.192,26 L242.192,24.016 L240.144,24.016 C239.898667,24.016 239.618667,24.0293333 239.304,24.056 C238.989333,24.0826667 238.704,24.112 238.448,24.144 C238.864,23.7173333 239.266667,23.2826667 239.656,22.84 C240.045333,22.3973333 240.392,21.9546667 240.696,21.512 C241,21.0693333 241.242667,20.6266667 241.424,20.184 C241.605333,19.7413333 241.696,19.3066667 241.696,18.88 C241.696,18.3893333 241.616,17.9466667 241.456,17.552 C241.296,17.1573333 241.066667,16.8186667 240.768,16.536 C240.469333,16.2533333 240.114667,16.0346667 239.704,15.88 C239.293333,15.7253333 238.837333,15.648 238.336,15.648 C237.610667,15.648 236.986667,15.784 236.464,16.056 C235.941333,16.328 235.429333,16.7306667 234.928,17.264 L234.928,17.264 L236.208,18.528 C236.464,18.2506667 236.736,18.008 237.024,17.8 C237.312,17.592 237.642667,17.488 238.016,17.488 C238.464,17.488 238.816,17.6186667 239.072,17.88 C239.328,18.1413333 239.456,18.5226667 239.456,19.024 C239.456,19.3866667 239.346667,19.768 239.128,20.168 C238.909333,20.568 238.605333,21 238.216,21.464 C237.826667,21.928 237.362667,22.424 236.824,22.952 C236.285333,23.48 235.690667,24.048 235.04,24.656 L235.04,24.656 L235.04,26 L242.192,26 Z M245.296,26.192 C245.701333,26.192 246.04,26.0506667 246.312,25.768 C246.584,25.4853333 246.72,25.136 246.72,24.72 C246.72,24.2933333 246.584,23.9386667 246.312,23.656 C246.04,23.3733333 245.701333,23.232 245.296,23.232 C244.890667,23.232 244.552,23.3733333 244.28,23.656 C244.008,23.9386667 243.872,24.2933333 243.872,24.72 C243.872,25.136 244.008,25.4853333 244.28,25.768 C244.552,26.0506667 244.890667,26.192 245.296,26.192 Z M251.92,26.192 C252.464,26.192 252.96,26.0773333 253.408,25.848 C253.856,25.6186667 254.237333,25.28 254.552,24.832 C254.866667,24.384 255.112,23.8293333 255.288,23.168 C255.464,22.5066667 255.552,21.744 255.552,20.88 C255.552,20.016 255.464,19.2586667 255.288,18.608 C255.112,17.9573333 254.866667,17.4106667 254.552,16.968 C254.237333,16.5253333 253.856,16.1946667 253.408,15.976 C252.96,15.7573333 252.464,15.648 251.92,15.648 C251.376,15.648 250.88,15.7573333 250.432,15.976 C249.984,16.1946667 249.602667,16.5253333 249.288,16.968 C248.973333,17.4106667 248.728,17.9573333 248.552,18.608 C248.376,19.2586667 248.288,20.016 248.288,20.88 C248.288,21.744 248.376,22.5066667 248.552,23.168 C248.728,23.8293333 248.973333,24.384 249.288,24.832 C249.602667,25.28 249.984,25.6186667 250.432,25.848 C250.88,26.0773333 251.376,26.192 251.92,26.192 Z M251.92,24.368 C251.728,24.368 251.546667,24.3173333 251.376,24.216 C251.205333,24.1146667 251.056,23.9306667 250.928,23.664 C250.8,23.3973333 250.698667,23.04 250.624,22.592 C250.549333,22.144 250.512,21.5733333 250.512,20.88 C250.512,20.1866667 250.549333,19.6186667 250.624,19.176 C250.698667,18.7333333 250.8,18.3866667 250.928,18.136 C251.056,17.8853333 251.205333,17.712 251.376,17.616 C251.546667,17.52 251.728,17.472 251.92,17.472 C252.122667,17.472 252.309333,17.52 252.48,17.616 C252.650667,17.712 252.8,17.8853333 252.928,18.136 C253.056,18.3866667 253.154667,18.7333333 253.224,19.176 C253.293333,19.6186667 253.328,20.1866667 253.328,20.88 C253.328,21.5733333 253.293333,22.144 253.224,22.592 C253.154667,23.04 253.056,23.3973333 252.928,23.664 C252.8,23.9306667 252.650667,24.1146667 252.48,24.216 C252.309333,24.3173333 252.122667,24.368 251.92,24.368 Z M259.808,26.192 C260.341333,26.192 260.856,26.0826667 261.352,25.864 C261.848,25.6453333 262.285333,25.312 262.664,24.864 C263.042667,24.416 263.346667,23.8453333 263.576,23.152 C263.805333,22.4586667 263.92,21.6373333 263.92,20.688 C263.92,19.792 263.810667,19.0266667 263.592,18.392 C263.373333,17.7573333 263.085333,17.2373333 262.728,16.832 C262.370667,16.4266667 261.96,16.128 261.496,15.936 C261.032,15.744 260.554667,15.648 260.064,15.648 C259.605333,15.648 259.170667,15.7253333 258.76,15.88 C258.349333,16.0346667 257.992,16.2613333 257.688,16.56 C257.384,16.8586667 257.141333,17.2186667 256.96,17.64 C256.778667,18.0613333 256.688,18.5333333 256.688,19.056 C256.688,19.5893333 256.765333,20.0533333 256.92,20.448 C257.074667,20.8426667 257.285333,21.168 257.552,21.424 C257.818667,21.68 258.136,21.872 258.504,22 C258.872,22.128 259.274667,22.192 259.712,22.192 C259.872,22.192 260.042667,22.168 260.224,22.12 C260.405333,22.072 260.586667,22.0026667 260.768,21.912 C260.949333,21.8213333 261.125333,21.7093333 261.296,21.576 C261.466667,21.4426667 261.616,21.2906667 261.744,21.12 C261.722667,21.7173333 261.656,22.216 261.544,22.616 C261.432,23.016 261.282667,23.3413333 261.096,23.592 C260.909333,23.8426667 260.693333,24.0213333 260.448,24.128 C260.202667,24.2346667 259.936,24.288 259.648,24.288 C259.349333,24.288 259.056,24.216 258.768,24.072 C258.48,23.928 258.250667,23.76 258.08,23.568 L258.08,23.568 L256.832,24.976 C257.152,25.296 257.56,25.5786667 258.056,25.824 C258.552,26.0693333 259.136,26.192 259.808,26.192 Z M260.176,20.528 C259.792,20.528 259.472,20.4186667 259.216,20.2 C258.96,19.9813333 258.832,19.6 258.832,19.056 C258.832,18.48 258.96,18.0613333 259.216,17.8 C259.472,17.5386667 259.770667,17.408 260.112,17.408 C260.474667,17.408 260.802667,17.56 261.096,17.864 C261.389333,18.168 261.589333,18.72 261.696,19.52 C261.493333,19.8826667 261.256,20.1413333 260.984,20.296 C260.712,20.4506667 260.442667,20.528 260.176,20.528 Z M270.224,26 L270.224,17.552 L273.088,17.552 L273.088,15.568 L264.992,15.568 L264.992,17.552 L267.856,17.552 L267.856,26 L270.224,26 Z" id="$2.09T" fill="#555555" fill-rule="nonzero"></path>
            </g>
        </g>
    </g>
</svg>