<?xml version="1.0" encoding="UTF-8"?>
<svg width="289px" height="34px" viewBox="0 0 289 34" version="1.1" xmlns="http://www.w3.org/2000/svg" xmlns:xlink="http://www.w3.org/1999/xlink">
    <title>law 3.5 - B Loan</title>
    <g id="SVG-2.0" stroke="none" stroke-width="1" fill="none" fill-rule="evenodd">
        <g id="viz-3-mobile-outline" transform="translate(-36.000000, -1906.000000)">
            <g id="law-3.5---B-Loan" transform="translate(36.000000, 1907.000000)">
                <path d="M50.368,21.54 L50.368,20.084 C51.096,19.9253333 51.642,19.6056667 52.006,19.125 C52.37,18.6443333 52.552,18.068 52.552,17.396 C52.552,16.948 52.461,16.5723333 52.279,16.269 C52.097,15.9656667 51.8683333,15.7066667 51.593,15.492 C51.3176667,15.2773333 51.0213333,15.0953333 50.704,14.946 C50.3866667,14.7966667 50.0903333,14.652 49.815,14.512 C49.5396667,14.372 49.311,14.225 49.129,14.071 C48.947,13.917 48.856,13.728 48.856,13.504 C48.856,13.1866667 48.9446667,12.958 49.122,12.818 C49.2993333,12.678 49.556,12.608 49.892,12.608 C50.1906667,12.608 50.4566667,12.6663333 50.69,12.783 C50.9233333,12.8996667 51.166,13.0746667 51.418,13.308 L51.418,13.308 L52.454,12.132 C52.1833333,11.8426667 51.88,11.5953333 51.544,11.39 C51.208,11.1846667 50.816,11.0493333 50.368,10.984 L50.368,10.984 L50.368,9.57 L49.01,9.57 L49.01,11.012 C48.3473333,11.1426667 47.827,11.4343333 47.449,11.887 C47.071,12.3396667 46.882,12.9113333 46.882,13.602 C46.882,14.022 46.973,14.3766667 47.155,14.666 C47.337,14.9553333 47.5656667,15.2073333 47.841,15.422 C48.1163333,15.6366667 48.4126667,15.821 48.73,15.975 C49.0473333,16.129 49.3436667,16.283 49.619,16.437 C49.8943333,16.591 50.123,16.752 50.305,16.92 C50.487,17.088 50.578,17.2933333 50.578,17.536 C50.578,17.8626667 50.487,18.1053333 50.305,18.264 C50.123,18.4226667 49.836,18.502 49.444,18.502 C49.108,18.502 48.779,18.4343333 48.457,18.299 C48.135,18.1636667 47.7966667,17.9606667 47.442,17.69 L47.442,17.69 L46.546,19.076 C46.8726667,19.3746667 47.2623333,19.615 47.715,19.797 C48.1676667,19.979 48.5993333,20.0933333 49.01,20.14 L49.01,20.14 L49.01,21.54 L50.368,21.54 Z M56.794,20.168 C57.242,20.168 57.6666667,20.1096667 58.068,19.993 C58.4693333,19.8763333 58.8193333,19.7083333 59.118,19.489 C59.4166667,19.2696667 59.6546667,18.999 59.832,18.677 C60.0093333,18.355 60.098,17.9886667 60.098,17.578 C60.098,16.9993333 59.9323333,16.5303333 59.601,16.171 C59.2696667,15.8116667 58.8473333,15.5573333 58.334,15.408 L58.334,15.408 L58.334,15.352 C58.81,15.1466667 59.1763333,14.883 59.433,14.561 C59.6896667,14.239 59.818,13.8446667 59.818,13.378 C59.818,12.986 59.7433333,12.6406667 59.594,12.342 C59.4446667,12.0433333 59.237,11.789 58.971,11.579 C58.705,11.369 58.383,11.2103333 58.005,11.103 C57.627,10.9956667 57.2093333,10.942 56.752,10.942 C56.2013333,10.942 55.6996667,11.0423333 55.247,11.243 C54.7943333,11.4436667 54.3626667,11.7213333 53.952,12.076 L53.952,12.076 L54.988,13.336 C55.268,13.0933333 55.5363333,12.902 55.793,12.762 C56.0496667,12.622 56.3366667,12.552 56.654,12.552 C57.0086667,12.552 57.2793333,12.6383333 57.466,12.811 C57.6526667,12.9836667 57.746,13.224 57.746,13.532 C57.746,13.7093333 57.711,13.8703333 57.641,14.015 C57.571,14.1596667 57.4543333,14.2856667 57.291,14.393 C57.1276667,14.5003333 56.913,14.582 56.647,14.638 C56.381,14.694 56.0473333,14.722 55.646,14.722 L55.646,14.722 L55.646,16.178 C56.1313333,16.178 56.528,16.2083333 56.836,16.269 C57.144,16.3296667 57.3866667,16.4136667 57.564,16.521 C57.7413333,16.6283333 57.865,16.7613333 57.935,16.92 C58.005,17.0786667 58.04,17.256 58.04,17.452 C58.04,17.788 57.9093333,18.047 57.648,18.229 C57.3866667,18.411 57.0366667,18.502 56.598,18.502 C56.2153333,18.502 55.863,18.418 55.541,18.25 C55.219,18.082 54.9226667,17.8673333 54.652,17.606 L54.652,17.606 L53.7,18.908 C54.0266667,19.2906667 54.442,19.5963333 54.946,19.825 C55.45,20.0536667 56.066,20.168 56.794,20.168 Z M65.082,20 C65.1193333,19.132 65.1753333,18.3643333 65.25,17.697 C65.3246667,17.0296667 65.4483333,16.4043333 65.621,15.821 C65.7936667,15.2376667 66.0363333,14.673 66.349,14.127 C66.6616667,13.581 67.0746667,12.9953333 67.588,12.37 L67.588,12.37 L67.588,11.11 L61.4,11.11 L61.4,12.846 L65.39,12.846 C64.97,13.4246667 64.6176667,13.9846667 64.333,14.526 C64.0483333,15.0673333 63.815,15.6203333 63.633,16.185 C63.451,16.7496667 63.311,17.3423333 63.213,17.963 C63.115,18.5836667 63.0473333,19.2626667 63.01,20 L63.01,20 L65.082,20 Z M74.812,20 L74.812,18.334 L73.146,18.334 L73.146,11.11 L71.634,11.11 C71.3166667,11.2966667 70.99,11.4553333 70.654,11.586 C70.318,11.7166667 69.9073333,11.8286667 69.422,11.922 L69.422,11.922 L69.422,13.196 L71.088,13.196 L71.088,18.334 L69.156,18.334 L69.156,20 L74.812,20 Z M80.034,20 C80.5286667,20 80.9906667,19.9463333 81.42,19.839 C81.8493333,19.7316667 82.225,19.5683333 82.547,19.349 C82.869,19.1296667 83.121,18.852 83.303,18.516 C83.485,18.18 83.576,17.7786667 83.576,17.312 C83.576,17.004 83.534,16.731 83.45,16.493 C83.366,16.255 83.2493333,16.0473333 83.1,15.87 C82.9506667,15.6926667 82.778,15.5456667 82.582,15.429 C82.386,15.3123333 82.1713333,15.226 81.938,15.17 L81.938,15.17 L81.938,15.114 C82.1246667,15.0486667 82.2903333,14.946 82.435,14.806 C82.5796667,14.666 82.7033333,14.5073333 82.806,14.33 C82.9086667,14.1526667 82.988,13.9613333 83.044,13.756 C83.1,13.5506667 83.128,13.3453333 83.128,13.14 C83.128,12.7013333 83.0416667,12.3373333 82.869,12.048 C82.6963333,11.7586667 82.4583333,11.5253333 82.155,11.348 C81.8516667,11.1706667 81.497,11.047 81.091,10.977 C80.685,10.907 80.244,10.872 79.768,10.872 L79.768,10.872 L76.646,10.872 L76.646,20 L80.034,20 Z M79.67,14.526 L78.704,14.526 L78.704,12.468 L79.684,12.468 C80.1693333,12.468 80.5286667,12.5426667 80.762,12.692 C80.9953333,12.8413333 81.112,13.0933333 81.112,13.448 C81.112,13.7746667 80.9976667,14.036 80.769,14.232 C80.5403333,14.428 80.174,14.526 79.67,14.526 L79.67,14.526 Z M79.866,18.404 L78.704,18.404 L78.704,16.052 L79.866,16.052 C80.4353333,16.052 80.86,16.1383333 81.14,16.311 C81.42,16.4836667 81.56,16.7706667 81.56,17.172 C81.56,17.9933333 80.9953333,18.404 79.866,18.404 L79.866,18.404 Z" id="$371B" fill="#555555" fill-rule="nonzero"></path>
                <g id="labels" transform="translate(92.000000, 0.000000)">
                    <path d="M21.044,12.144 C21.556,12.144 22.024,12.05 22.448,11.862 C22.872,11.674 23.238,11.402 23.546,11.046 C23.854,10.69 24.092,10.26 24.26,9.756 C24.428,9.252 24.512,8.68 24.512,8.04 C24.512,7.408 24.428,6.842 24.26,6.342 C24.092,5.842 23.854,5.42 23.546,5.076 C23.238,4.732 22.872,4.468 22.448,4.284 C22.024,4.1 21.556,4.008 21.044,4.008 C20.532,4.008 20.064,4.1 19.64,4.284 C19.216,4.468 18.852,4.732 18.548,5.076 C18.244,5.42 18.008,5.842 17.84,6.342 C17.672,6.842 17.588,7.408 17.588,8.04 C17.588,8.68 17.672,9.252 17.84,9.756 C18.008,10.26 18.244,10.69 18.548,11.046 C18.852,11.402 19.216,11.674 19.64,11.862 C20.064,12.05 20.532,12.144 21.044,12.144 Z M21.044,10.932 C20.732,10.932 20.452,10.864 20.204,10.728 C19.956,10.592 19.744,10.398 19.568,10.146 C19.392,9.894 19.256,9.59 19.16,9.234 C19.064,8.878 19.016,8.48 19.016,8.04 C19.016,7.16 19.198,6.47 19.562,5.97 C19.926,5.47 20.42,5.22 21.044,5.22 C21.668,5.22 22.162,5.47 22.526,5.97 C22.89,6.47 23.072,7.16 23.072,8.04 C23.072,8.48 23.024,8.878 22.928,9.234 C22.832,9.59 22.696,9.894 22.52,10.146 C22.344,10.398 22.132,10.592 21.884,10.728 C21.636,10.864 21.356,10.932 21.044,10.932 Z M27.716,12.144 C28.124,12.144 28.478,12.052 28.778,11.868 C29.078,11.684 29.356,11.44 29.612,11.136 L29.612,11.136 L29.648,11.136 L29.756,12 L30.884,12 L30.884,6.108 L29.504,6.108 L29.504,10.14 C29.28,10.428 29.07,10.636 28.874,10.764 C28.678,10.892 28.452,10.956 28.196,10.956 C27.876,10.956 27.644,10.856 27.5,10.656 C27.356,10.456 27.284,10.112 27.284,9.624 L27.284,9.624 L27.284,6.108 L25.904,6.108 L25.904,9.804 C25.904,10.556 26.048,11.134 26.336,11.538 C26.624,11.942 27.084,12.144 27.716,12.144 Z M34.712,12.144 C34.944,12.144 35.162,12.122 35.366,12.078 C35.57,12.034 35.752,11.984 35.912,11.928 L35.912,11.928 L35.672,10.908 C35.584,10.948 35.486,10.98 35.378,11.004 C35.27,11.028 35.164,11.04 35.06,11.04 C34.508,11.04 34.232,10.696 34.232,10.008 L34.232,10.008 L34.232,7.2 L35.732,7.2 L35.732,6.108 L34.232,6.108 L34.232,4.5 L33.08,4.5 L32.912,6.108 L32,6.168 L32,7.2 L32.84,7.2 L32.84,10.008 C32.84,10.328 32.874,10.618 32.942,10.878 C33.01,11.138 33.118,11.362 33.266,11.55 C33.414,11.738 33.606,11.884 33.842,11.988 C34.078,12.092 34.368,12.144 34.712,12.144 Z M38.312,12.144 C38.616,12.144 38.86,12.104 39.044,12.024 L39.044,12.024 L38.864,10.992 C38.808,11.008 38.766,11.016 38.738,11.016 L38.738,11.016 L38.648,11.016 C38.576,11.016 38.508,10.982 38.444,10.914 C38.38,10.846 38.348,10.728 38.348,10.56 L38.348,10.56 L38.348,3.528 L36.968,3.528 L36.968,10.488 C36.968,11 37.068,11.404 37.268,11.7 C37.468,11.996 37.816,12.144 38.312,12.144 Z M41.648,12.144 C42,12.144 42.326,12.068 42.626,11.916 C42.926,11.764 43.208,11.576 43.472,11.352 L43.472,11.352 L43.52,11.352 L43.616,12 L44.756,12 L44.756,8.508 C44.756,7.684 44.574,7.054 44.21,6.618 C43.846,6.182 43.296,5.964 42.56,5.964 C42.088,5.964 41.648,6.04 41.24,6.192 C40.832,6.344 40.464,6.524 40.136,6.732 L40.136,6.732 L40.64,7.656 C40.904,7.496 41.174,7.36 41.45,7.248 C41.726,7.136 42.008,7.08 42.296,7.08 C42.496,7.08 42.664,7.11 42.8,7.17 C42.936,7.23 43.046,7.314 43.13,7.422 C43.214,7.53 43.274,7.654 43.31,7.794 C43.346,7.934 43.368,8.08 43.376,8.232 C42.768,8.296 42.246,8.388 41.81,8.508 C41.374,8.628 41.014,8.776 40.73,8.952 C40.446,9.128 40.238,9.338 40.106,9.582 C39.974,9.826 39.908,10.104 39.908,10.416 C39.908,10.936 40.068,11.354 40.388,11.67 C40.708,11.986 41.128,12.144 41.648,12.144 Z M42.092,11.064 C41.844,11.064 41.64,11.004 41.48,10.884 C41.32,10.764 41.24,10.572 41.24,10.308 C41.24,10.164 41.276,10.028 41.348,9.9 C41.42,9.772 41.54,9.658 41.708,9.558 C41.876,9.458 42.096,9.368 42.368,9.288 C42.64,9.208 42.976,9.144 43.376,9.096 L43.376,9.096 L43.376,10.416 C43.152,10.624 42.942,10.784 42.746,10.896 C42.55,11.008 42.332,11.064 42.092,11.064 Z M46.808,14.424 C47.128,14.424 47.41,14.374 47.654,14.274 C47.898,14.174 48.114,14.03 48.302,13.842 C48.49,13.654 48.656,13.428 48.8,13.164 C48.944,12.9 49.076,12.6 49.196,12.264 L49.196,12.264 L51.332,6.108 L50,6.108 L49.112,9 C49.04,9.264 48.966,9.538 48.89,9.822 C48.814,10.106 48.74,10.384 48.668,10.656 L48.668,10.656 L48.62,10.656 C48.532,10.376 48.446,10.094 48.362,9.81 C48.278,9.526 48.192,9.256 48.104,9 L48.104,9 L47.084,6.108 L45.68,6.108 L47.996,11.928 L47.888,12.3 C47.792,12.596 47.65,12.838 47.462,13.026 C47.274,13.214 47.024,13.308 46.712,13.308 C46.64,13.308 46.566,13.298 46.49,13.278 C46.414,13.258 46.348,13.24 46.292,13.224 L46.292,13.224 L46.04,14.304 C46.152,14.344 46.268,14.374 46.388,14.394 C46.508,14.414 46.648,14.424 46.808,14.424 Z M53.996,12.144 C54.364,12.144 54.692,12.096 54.98,12 C55.268,11.904 55.508,11.774 55.7,11.61 C55.892,11.446 56.038,11.254 56.138,11.034 C56.238,10.814 56.288,10.576 56.288,10.32 C56.288,10.048 56.238,9.814 56.138,9.618 C56.038,9.422 55.906,9.256 55.742,9.12 C55.578,8.984 55.396,8.87 55.196,8.778 C54.996,8.686 54.796,8.604 54.596,8.532 C54.436,8.476 54.282,8.42 54.134,8.364 C53.986,8.308 53.856,8.248 53.744,8.184 C53.632,8.12 53.542,8.046 53.474,7.962 C53.406,7.878 53.372,7.776 53.372,7.656 C53.372,7.472 53.442,7.318 53.582,7.194 C53.722,7.07 53.94,7.008 54.236,7.008 C54.468,7.008 54.69,7.054 54.902,7.146 C55.114,7.238 55.324,7.36 55.532,7.512 L55.532,7.512 L56.168,6.672 C55.928,6.488 55.644,6.324 55.316,6.18 C54.988,6.036 54.62,5.964 54.212,5.964 C53.548,5.964 53.024,6.128 52.64,6.456 C52.256,6.784 52.064,7.208 52.064,7.728 C52.064,7.976 52.114,8.19 52.214,8.37 C52.314,8.55 52.442,8.708 52.598,8.844 C52.754,8.98 52.932,9.096 53.132,9.192 C53.332,9.288 53.528,9.372 53.72,9.444 C53.872,9.508 54.024,9.57 54.176,9.63 C54.328,9.69 54.464,9.756 54.584,9.828 C54.704,9.9 54.8,9.982 54.872,10.074 C54.944,10.166 54.98,10.272 54.98,10.392 C54.98,10.6 54.904,10.77 54.752,10.902 C54.6,11.034 54.364,11.1 54.044,11.1 C53.74,11.1 53.458,11.042 53.198,10.926 C52.938,10.81 52.676,10.648 52.412,10.44 L52.412,10.44 L51.764,11.328 C52.052,11.56 52.394,11.754 52.79,11.91 C53.186,12.066 53.588,12.144 53.996,12.144 Z M20.384,28.32 L20.384,27.108 C20.96,27.028 21.414,26.804 21.746,26.436 C22.078,26.068 22.244,25.596 22.244,25.02 C22.244,24.588 22.162,24.234 21.998,23.958 C21.834,23.682 21.628,23.45 21.38,23.262 C21.132,23.074 20.862,22.914 20.57,22.782 C20.278,22.65 20.008,22.514 19.76,22.374 C19.512,22.234 19.306,22.072 19.142,21.888 C18.978,21.704 18.896,21.468 18.896,21.18 C18.896,20.828 19.004,20.548 19.22,20.34 C19.436,20.132 19.728,20.028 20.096,20.028 C20.424,20.028 20.694,20.088 20.906,20.208 C21.118,20.328 21.336,20.496 21.56,20.712 L21.56,20.712 L22.088,20.124 C21.872,19.892 21.63,19.692 21.362,19.524 C21.094,19.356 20.768,19.252 20.384,19.212 L20.384,19.212 L20.384,18.024 L19.664,18.024 L19.664,19.236 C19.136,19.316 18.714,19.534 18.398,19.89 C18.082,20.246 17.924,20.692 17.924,21.228 C17.924,21.62 18.006,21.942 18.17,22.194 C18.334,22.446 18.54,22.66 18.788,22.836 C19.036,23.012 19.306,23.168 19.598,23.304 C19.89,23.44 20.16,23.586 20.408,23.742 C20.656,23.898 20.862,24.082 21.026,24.294 C21.19,24.506 21.272,24.772 21.272,25.092 C21.272,25.468 21.162,25.768 20.942,25.992 C20.722,26.216 20.388,26.328 19.94,26.328 C19.572,26.328 19.234,26.25 18.926,26.094 C18.618,25.938 18.336,25.748 18.08,25.524 L18.08,25.524 L17.624,26.208 C17.88,26.44 18.188,26.642 18.548,26.814 C18.908,26.986 19.28,27.092 19.664,27.132 L19.664,27.132 L19.664,28.32 L20.384,28.32 Z M28.388,27 L28.388,26.148 L26.168,26.148 C25.968,26.148 25.756,26.156 25.532,26.172 C25.308,26.188 25.092,26.204 24.884,26.22 C25.34,25.748 25.758,25.302 26.138,24.882 C26.518,24.462 26.846,24.058 27.122,23.67 C27.398,23.282 27.614,22.906 27.77,22.542 C27.926,22.178 28.004,21.816 28.004,21.456 C28.004,20.776 27.8,20.23 27.392,19.818 C26.984,19.406 26.424,19.2 25.712,19.2 C25.208,19.2 24.776,19.306 24.416,19.518 C24.056,19.73 23.716,20.012 23.396,20.364 L23.396,20.364 L23.96,20.928 C24.184,20.672 24.432,20.454 24.704,20.274 C24.976,20.094 25.272,20.004 25.592,20.004 C26.08,20.004 26.444,20.144 26.684,20.424 C26.924,20.704 27.044,21.064 27.044,21.504 C27.044,21.816 26.964,22.138 26.804,22.47 C26.644,22.802 26.412,23.166 26.108,23.562 C25.804,23.958 25.428,24.388 24.98,24.852 C24.532,25.316 24.02,25.836 23.444,26.412 L23.444,26.412 L23.444,27 L28.388,27 Z M32.072,27 C32.104,26.256 32.158,25.578 32.234,24.966 C32.31,24.354 32.432,23.774 32.6,23.226 C32.768,22.678 32.994,22.14 33.278,21.612 C33.562,21.084 33.932,20.532 34.388,19.956 L34.388,19.956 L34.388,19.344 L29.456,19.344 L29.456,20.196 L33.272,20.196 C32.896,20.724 32.574,21.24 32.306,21.744 C32.038,22.248 31.818,22.77 31.646,23.31 C31.474,23.85 31.34,24.42 31.244,25.02 C31.148,25.62 31.084,26.28 31.052,27 L31.052,27 L32.072,27 Z M37.724,27.144 C38.076,27.144 38.404,27.094 38.708,26.994 C39.012,26.894 39.278,26.75 39.506,26.562 C39.734,26.374 39.914,26.144 40.046,25.872 C40.178,25.6 40.244,25.296 40.244,24.96 C40.244,24.696 40.202,24.456 40.118,24.24 C40.034,24.024 39.916,23.834 39.764,23.67 C39.612,23.506 39.436,23.37 39.236,23.262 C39.036,23.154 38.82,23.072 38.588,23.016 L38.588,23.016 L38.588,22.968 C39.004,22.808 39.34,22.58 39.596,22.284 C39.852,21.988 39.98,21.608 39.98,21.144 C39.98,20.832 39.924,20.556 39.812,20.316 C39.7,20.076 39.542,19.874 39.338,19.71 C39.134,19.546 38.892,19.42 38.612,19.332 C38.332,19.244 38.024,19.2 37.688,19.2 C37.232,19.2 36.826,19.29 36.47,19.47 C36.114,19.65 35.788,19.88 35.492,20.16 L35.492,20.16 L36.02,20.784 C36.252,20.552 36.502,20.364 36.77,20.22 C37.038,20.076 37.332,20.004 37.652,20.004 C38.06,20.004 38.382,20.112 38.618,20.328 C38.854,20.544 38.972,20.84 38.972,21.216 C38.972,21.416 38.936,21.604 38.864,21.78 C38.792,21.956 38.67,22.108 38.498,22.236 C38.326,22.364 38.102,22.464 37.826,22.536 C37.55,22.608 37.208,22.644 36.8,22.644 L36.8,22.644 L36.8,23.4 C37.256,23.4 37.64,23.436 37.952,23.508 C38.264,23.58 38.516,23.684 38.708,23.82 C38.9,23.956 39.038,24.118 39.122,24.306 C39.206,24.494 39.248,24.7 39.248,24.924 C39.248,25.356 39.1,25.698 38.804,25.95 C38.508,26.202 38.128,26.328 37.664,26.328 C37.208,26.328 36.826,26.236 36.518,26.052 C36.21,25.868 35.94,25.656 35.708,25.416 L35.708,25.416 L35.204,26.064 C35.332,26.208 35.478,26.344 35.642,26.472 C35.806,26.6 35.992,26.714 36.2,26.814 C36.408,26.914 36.638,26.994 36.89,27.054 C37.142,27.114 37.42,27.144 37.724,27.144 Z M44.444,27 C44.884,27 45.288,26.952 45.656,26.856 C46.024,26.76 46.34,26.616 46.604,26.424 C46.868,26.232 47.072,25.992 47.216,25.704 C47.36,25.416 47.432,25.08 47.432,24.696 C47.432,24.152 47.284,23.724 46.988,23.412 C46.692,23.1 46.304,22.9 45.824,22.812 L45.824,22.812 L45.824,22.764 C46.2,22.644 46.486,22.426 46.682,22.11 C46.878,21.794 46.976,21.44 46.976,21.048 C46.976,20.704 46.91,20.41 46.778,20.166 C46.646,19.922 46.462,19.724 46.226,19.572 C45.99,19.42 45.706,19.308 45.374,19.236 C45.042,19.164 44.676,19.128 44.276,19.128 L44.276,19.128 L41.936,19.128 L41.936,27 L44.444,27 Z M44.096,22.476 L42.932,22.476 L42.932,19.92 L44.144,19.92 C44.76,19.92 45.222,20.016 45.53,20.208 C45.838,20.4 45.992,20.724 45.992,21.18 C45.992,21.58 45.844,21.896 45.548,22.128 C45.252,22.36 44.768,22.476 44.096,22.476 L44.096,22.476 Z M44.3,26.208 L42.932,26.208 L42.932,23.244 L44.3,23.244 C44.996,23.244 45.528,23.358 45.896,23.586 C46.264,23.814 46.448,24.172 46.448,24.66 C46.448,25.188 46.26,25.578 45.884,25.83 C45.508,26.082 44.98,26.208 44.3,26.208 L44.3,26.208 Z" id="Outlays$273B" fill="#555555" fill-rule="nonzero"></path>
                    <path d="M71.044,12.144 C71.556,12.144 72.024,12.05 72.448,11.862 C72.872,11.674 73.238,11.402 73.546,11.046 C73.854,10.69 74.092,10.26 74.26,9.756 C74.428,9.252 74.512,8.68 74.512,8.04 C74.512,7.408 74.428,6.842 74.26,6.342 C74.092,5.842 73.854,5.42 73.546,5.076 C73.238,4.732 72.872,4.468 72.448,4.284 C72.024,4.1 71.556,4.008 71.044,4.008 C70.532,4.008 70.064,4.1 69.64,4.284 C69.216,4.468 68.852,4.732 68.548,5.076 C68.244,5.42 68.008,5.842 67.84,6.342 C67.672,6.842 67.588,7.408 67.588,8.04 C67.588,8.68 67.672,9.252 67.84,9.756 C68.008,10.26 68.244,10.69 68.548,11.046 C68.852,11.402 69.216,11.674 69.64,11.862 C70.064,12.05 70.532,12.144 71.044,12.144 Z M71.044,10.932 C70.732,10.932 70.452,10.864 70.204,10.728 C69.956,10.592 69.744,10.398 69.568,10.146 C69.392,9.894 69.256,9.59 69.16,9.234 C69.064,8.878 69.016,8.48 69.016,8.04 C69.016,7.16 69.198,6.47 69.562,5.97 C69.926,5.47 70.42,5.22 71.044,5.22 C71.668,5.22 72.162,5.47 72.526,5.97 C72.89,6.47 73.072,7.16 73.072,8.04 C73.072,8.48 73.024,8.878 72.928,9.234 C72.832,9.59 72.696,9.894 72.52,10.146 C72.344,10.398 72.132,10.592 71.884,10.728 C71.636,10.864 71.356,10.932 71.044,10.932 Z M78.82,12.144 C79.148,12.144 79.464,12.072 79.768,11.928 C80.072,11.784 80.34,11.576 80.572,11.304 C80.804,11.032 80.99,10.698 81.13,10.302 C81.27,9.906 81.34,9.456 81.34,8.952 C81.34,8.496 81.288,8.084 81.184,7.716 C81.08,7.348 80.928,7.034 80.728,6.774 C80.528,6.514 80.284,6.314 79.996,6.174 C79.708,6.034 79.38,5.964 79.012,5.964 C78.708,5.964 78.41,6.032 78.118,6.168 C77.826,6.304 77.556,6.48 77.308,6.696 L77.308,6.696 L77.344,5.712 L77.344,3.528 L75.964,3.528 L75.964,12 L77.056,12 L77.176,11.376 L77.212,11.376 C77.46,11.624 77.722,11.814 77.998,11.946 C78.274,12.078 78.548,12.144 78.82,12.144 Z M78.532,11.004 C78.356,11.004 78.166,10.968 77.962,10.896 C77.758,10.824 77.552,10.696 77.344,10.512 L77.344,10.512 L77.344,7.764 C77.792,7.324 78.224,7.104 78.64,7.104 C79.088,7.104 79.412,7.268 79.612,7.596 C79.812,7.924 79.912,8.384 79.912,8.976 C79.912,9.648 79.78,10.154 79.516,10.494 C79.252,10.834 78.924,11.004 78.532,11.004 Z M84.064,12.144 C84.368,12.144 84.612,12.104 84.796,12.024 L84.796,12.024 L84.616,10.992 C84.56,11.008 84.518,11.016 84.49,11.016 L84.49,11.016 L84.4,11.016 C84.328,11.016 84.26,10.982 84.196,10.914 C84.132,10.846 84.1,10.728 84.1,10.56 L84.1,10.56 L84.1,3.528 L82.72,3.528 L82.72,10.488 C82.72,11 82.82,11.404 83.02,11.7 C83.22,11.996 83.568,12.144 84.064,12.144 Z M86.668,5.076 C86.916,5.076 87.12,5.004 87.28,4.86 C87.44,4.716 87.52,4.528 87.52,4.296 C87.52,4.064 87.44,3.874 87.28,3.726 C87.12,3.578 86.916,3.504 86.668,3.504 C86.42,3.504 86.216,3.578 86.056,3.726 C85.896,3.874 85.816,4.064 85.816,4.296 C85.816,4.528 85.896,4.716 86.056,4.86 C86.216,5.004 86.42,5.076 86.668,5.076 Z M87.352,12 L87.352,6.108 L85.972,6.108 L85.972,12 L87.352,12 Z M91.168,14.604 C91.648,14.604 92.082,14.55 92.47,14.442 C92.858,14.334 93.188,14.188 93.46,14.004 C93.732,13.82 93.942,13.6 94.09,13.344 C94.238,13.088 94.312,12.816 94.312,12.528 C94.312,12.016 94.13,11.646 93.766,11.418 C93.402,11.19 92.864,11.076 92.152,11.076 L92.152,11.076 L91.108,11.076 C90.748,11.076 90.498,11.028 90.358,10.932 C90.218,10.836 90.148,10.704 90.148,10.536 C90.148,10.4 90.174,10.292 90.226,10.212 C90.278,10.132 90.348,10.052 90.436,9.972 C90.572,10.028 90.708,10.068 90.844,10.092 C90.98,10.116 91.112,10.128 91.24,10.128 C91.552,10.128 91.844,10.084 92.116,9.996 C92.388,9.908 92.624,9.78 92.824,9.612 C93.024,9.444 93.182,9.236 93.298,8.988 C93.414,8.74 93.472,8.452 93.472,8.124 C93.472,7.916 93.44,7.726 93.376,7.554 C93.312,7.382 93.232,7.24 93.136,7.128 L93.136,7.128 L94.216,7.128 L94.216,6.108 L92.104,6.108 C91.984,6.068 91.85,6.034 91.702,6.006 C91.554,5.978 91.4,5.964 91.24,5.964 C90.928,5.964 90.632,6.01 90.352,6.102 C90.072,6.194 89.826,6.33 89.614,6.51 C89.402,6.69 89.232,6.912 89.104,7.176 C88.976,7.44 88.912,7.74 88.912,8.076 C88.912,8.428 88.99,8.738 89.146,9.006 C89.302,9.274 89.48,9.484 89.68,9.636 L89.68,9.636 L89.68,9.684 C89.512,9.804 89.362,9.958 89.23,10.146 C89.098,10.334 89.032,10.544 89.032,10.776 C89.032,11.016 89.082,11.216 89.182,11.376 C89.282,11.536 89.408,11.664 89.56,11.76 L89.56,11.76 L89.56,11.808 C89.288,11.976 89.08,12.166 88.936,12.378 C88.792,12.59 88.72,12.82 88.72,13.068 C88.72,13.324 88.782,13.548 88.906,13.74 C89.03,13.932 89.2,14.092 89.416,14.22 C89.632,14.348 89.89,14.444 90.19,14.508 C90.49,14.572 90.816,14.604 91.168,14.604 Z M91.24,9.264 C90.952,9.264 90.708,9.162 90.508,8.958 C90.308,8.754 90.208,8.46 90.208,8.076 C90.208,7.7 90.308,7.412 90.508,7.212 C90.708,7.012 90.952,6.912 91.24,6.912 C91.528,6.912 91.77,7.014 91.966,7.218 C92.162,7.422 92.26,7.708 92.26,8.076 C92.26,8.46 92.16,8.754 91.96,8.958 C91.76,9.162 91.52,9.264 91.24,9.264 Z M91.384,13.704 C90.912,13.704 90.542,13.63 90.274,13.482 C90.006,13.334 89.872,13.128 89.872,12.864 C89.872,12.576 90.024,12.316 90.328,12.084 C90.544,12.14 90.812,12.168 91.132,12.168 L91.132,12.168 L91.936,12.168 C92.272,12.168 92.53,12.208 92.71,12.288 C92.89,12.368 92.98,12.524 92.98,12.756 C92.98,13.012 92.834,13.234 92.542,13.422 C92.25,13.61 91.864,13.704 91.384,13.704 Z M96.568,12.144 C96.92,12.144 97.246,12.068 97.546,11.916 C97.846,11.764 98.128,11.576 98.392,11.352 L98.392,11.352 L98.44,11.352 L98.536,12 L99.676,12 L99.676,8.508 C99.676,7.684 99.494,7.054 99.13,6.618 C98.766,6.182 98.216,5.964 97.48,5.964 C97.008,5.964 96.568,6.04 96.16,6.192 C95.752,6.344 95.384,6.524 95.056,6.732 L95.056,6.732 L95.56,7.656 C95.824,7.496 96.094,7.36 96.37,7.248 C96.646,7.136 96.928,7.08 97.216,7.08 C97.416,7.08 97.584,7.11 97.72,7.17 C97.856,7.23 97.966,7.314 98.05,7.422 C98.134,7.53 98.194,7.654 98.23,7.794 C98.266,7.934 98.288,8.08 98.296,8.232 C97.688,8.296 97.166,8.388 96.73,8.508 C96.294,8.628 95.934,8.776 95.65,8.952 C95.366,9.128 95.158,9.338 95.026,9.582 C94.894,9.826 94.828,10.104 94.828,10.416 C94.828,10.936 94.988,11.354 95.308,11.67 C95.628,11.986 96.048,12.144 96.568,12.144 Z M97.012,11.064 C96.764,11.064 96.56,11.004 96.4,10.884 C96.24,10.764 96.16,10.572 96.16,10.308 C96.16,10.164 96.196,10.028 96.268,9.9 C96.34,9.772 96.46,9.658 96.628,9.558 C96.796,9.458 97.016,9.368 97.288,9.288 C97.56,9.208 97.896,9.144 98.296,9.096 L98.296,9.096 L98.296,10.416 C98.072,10.624 97.862,10.784 97.666,10.896 C97.47,11.008 97.252,11.064 97.012,11.064 Z M103.216,12.144 C103.448,12.144 103.666,12.122 103.87,12.078 C104.074,12.034 104.256,11.984 104.416,11.928 L104.416,11.928 L104.176,10.908 C104.088,10.948 103.99,10.98 103.882,11.004 C103.774,11.028 103.668,11.04 103.564,11.04 C103.012,11.04 102.736,10.696 102.736,10.008 L102.736,10.008 L102.736,7.2 L104.236,7.2 L104.236,6.108 L102.736,6.108 L102.736,4.5 L101.584,4.5 L101.416,6.108 L100.504,6.168 L100.504,7.2 L101.344,7.2 L101.344,10.008 C101.344,10.328 101.378,10.618 101.446,10.878 C101.514,11.138 101.622,11.362 101.77,11.55 C101.918,11.738 102.11,11.884 102.346,11.988 C102.582,12.092 102.872,12.144 103.216,12.144 Z M106.168,5.076 C106.416,5.076 106.62,5.004 106.78,4.86 C106.94,4.716 107.02,4.528 107.02,4.296 C107.02,4.064 106.94,3.874 106.78,3.726 C106.62,3.578 106.416,3.504 106.168,3.504 C105.92,3.504 105.716,3.578 105.556,3.726 C105.396,3.874 105.316,4.064 105.316,4.296 C105.316,4.528 105.396,4.716 105.556,4.86 C105.716,5.004 105.92,5.076 106.168,5.076 Z M106.852,12 L106.852,6.108 L105.472,6.108 L105.472,12 L106.852,12 Z M111.028,12.144 C111.396,12.144 111.75,12.076 112.09,11.94 C112.43,11.804 112.728,11.604 112.984,11.34 C113.24,11.076 113.446,10.752 113.602,10.368 C113.758,9.984 113.836,9.548 113.836,9.06 C113.836,8.572 113.758,8.136 113.602,7.752 C113.446,7.368 113.24,7.044 112.984,6.78 C112.728,6.516 112.43,6.314 112.09,6.174 C111.75,6.034 111.396,5.964 111.028,5.964 C110.66,5.964 110.308,6.034 109.972,6.174 C109.636,6.314 109.338,6.516 109.078,6.78 C108.818,7.044 108.612,7.368 108.46,7.752 C108.308,8.136 108.232,8.572 108.232,9.06 C108.232,9.548 108.308,9.984 108.46,10.368 C108.612,10.752 108.818,11.076 109.078,11.34 C109.338,11.604 109.636,11.804 109.972,11.94 C110.308,12.076 110.66,12.144 111.028,12.144 Z M111.028,11.016 C110.596,11.016 110.258,10.838 110.014,10.482 C109.77,10.126 109.648,9.652 109.648,9.06 C109.648,8.46 109.77,7.982 110.014,7.626 C110.258,7.27 110.596,7.092 111.028,7.092 C111.46,7.092 111.8,7.27 112.048,7.626 C112.296,7.982 112.42,8.46 112.42,9.06 C112.42,9.652 112.296,10.126 112.048,10.482 C111.8,10.838 111.46,11.016 111.028,11.016 Z M116.584,12 L116.584,7.884 C116.832,7.644 117.054,7.462 117.25,7.338 C117.446,7.214 117.672,7.152 117.928,7.152 C118.256,7.152 118.492,7.252 118.636,7.452 C118.78,7.652 118.852,7.996 118.852,8.484 L118.852,8.484 L118.852,12 L120.232,12 L120.232,8.304 C120.232,7.552 120.088,6.974 119.8,6.57 C119.512,6.166 119.052,5.964 118.42,5.964 C118.012,5.964 117.654,6.056 117.346,6.24 C117.038,6.424 116.752,6.644 116.488,6.9 L116.488,6.9 L116.44,6.9 L116.344,6.108 L115.204,6.108 L115.204,12 L116.584,12 Z M123.568,12.144 C123.936,12.144 124.264,12.096 124.552,12 C124.84,11.904 125.08,11.774 125.272,11.61 C125.464,11.446 125.61,11.254 125.71,11.034 C125.81,10.814 125.86,10.576 125.86,10.32 C125.86,10.048 125.81,9.814 125.71,9.618 C125.61,9.422 125.478,9.256 125.314,9.12 C125.15,8.984 124.968,8.87 124.768,8.778 C124.568,8.686 124.368,8.604 124.168,8.532 C124.008,8.476 123.854,8.42 123.706,8.364 C123.558,8.308 123.428,8.248 123.316,8.184 C123.204,8.12 123.114,8.046 123.046,7.962 C122.978,7.878 122.944,7.776 122.944,7.656 C122.944,7.472 123.014,7.318 123.154,7.194 C123.294,7.07 123.512,7.008 123.808,7.008 C124.04,7.008 124.262,7.054 124.474,7.146 C124.686,7.238 124.896,7.36 125.104,7.512 L125.104,7.512 L125.74,6.672 C125.5,6.488 125.216,6.324 124.888,6.18 C124.56,6.036 124.192,5.964 123.784,5.964 C123.12,5.964 122.596,6.128 122.212,6.456 C121.828,6.784 121.636,7.208 121.636,7.728 C121.636,7.976 121.686,8.19 121.786,8.37 C121.886,8.55 122.014,8.708 122.17,8.844 C122.326,8.98 122.504,9.096 122.704,9.192 C122.904,9.288 123.1,9.372 123.292,9.444 C123.444,9.508 123.596,9.57 123.748,9.63 C123.9,9.69 124.036,9.756 124.156,9.828 C124.276,9.9 124.372,9.982 124.444,10.074 C124.516,10.166 124.552,10.272 124.552,10.392 C124.552,10.6 124.476,10.77 124.324,10.902 C124.172,11.034 123.936,11.1 123.616,11.1 C123.312,11.1 123.03,11.042 122.77,10.926 C122.51,10.81 122.248,10.648 121.984,10.44 L121.984,10.44 L121.336,11.328 C121.624,11.56 121.966,11.754 122.362,11.91 C122.758,12.066 123.16,12.144 123.568,12.144 Z M70.384,28.32 L70.384,27.108 C70.96,27.028 71.414,26.804 71.746,26.436 C72.078,26.068 72.244,25.596 72.244,25.02 C72.244,24.588 72.162,24.234 71.998,23.958 C71.834,23.682 71.628,23.45 71.38,23.262 C71.132,23.074 70.862,22.914 70.57,22.782 C70.278,22.65 70.008,22.514 69.76,22.374 C69.512,22.234 69.306,22.072 69.142,21.888 C68.978,21.704 68.896,21.468 68.896,21.18 C68.896,20.828 69.004,20.548 69.22,20.34 C69.436,20.132 69.728,20.028 70.096,20.028 C70.424,20.028 70.694,20.088 70.906,20.208 C71.118,20.328 71.336,20.496 71.56,20.712 L71.56,20.712 L72.088,20.124 C71.872,19.892 71.63,19.692 71.362,19.524 C71.094,19.356 70.768,19.252 70.384,19.212 L70.384,19.212 L70.384,18.024 L69.664,18.024 L69.664,19.236 C69.136,19.316 68.714,19.534 68.398,19.89 C68.082,20.246 67.924,20.692 67.924,21.228 C67.924,21.62 68.006,21.942 68.17,22.194 C68.334,22.446 68.54,22.66 68.788,22.836 C69.036,23.012 69.306,23.168 69.598,23.304 C69.89,23.44 70.16,23.586 70.408,23.742 C70.656,23.898 70.862,24.082 71.026,24.294 C71.19,24.506 71.272,24.772 71.272,25.092 C71.272,25.468 71.162,25.768 70.942,25.992 C70.722,26.216 70.388,26.328 69.94,26.328 C69.572,26.328 69.234,26.25 68.926,26.094 C68.618,25.938 68.336,25.748 68.08,25.524 L68.08,25.524 L67.624,26.208 C67.88,26.44 68.188,26.642 68.548,26.814 C68.908,26.986 69.28,27.092 69.664,27.132 L69.664,27.132 L69.664,28.32 L70.384,28.32 Z M78.388,27 L78.388,26.148 L76.168,26.148 C75.968,26.148 75.756,26.156 75.532,26.172 C75.308,26.188 75.092,26.204 74.884,26.22 C75.34,25.748 75.758,25.302 76.138,24.882 C76.518,24.462 76.846,24.058 77.122,23.67 C77.398,23.282 77.614,22.906 77.77,22.542 C77.926,22.178 78.004,21.816 78.004,21.456 C78.004,20.776 77.8,20.23 77.392,19.818 C76.984,19.406 76.424,19.2 75.712,19.2 C75.208,19.2 74.776,19.306 74.416,19.518 C74.056,19.73 73.716,20.012 73.396,20.364 L73.396,20.364 L73.96,20.928 C74.184,20.672 74.432,20.454 74.704,20.274 C74.976,20.094 75.272,20.004 75.592,20.004 C76.08,20.004 76.444,20.144 76.684,20.424 C76.924,20.704 77.044,21.064 77.044,21.504 C77.044,21.816 76.964,22.138 76.804,22.47 C76.644,22.802 76.412,23.166 76.108,23.562 C75.804,23.958 75.428,24.388 74.98,24.852 C74.532,25.316 74.02,25.836 73.444,26.412 L73.444,26.412 L73.444,27 L78.388,27 Z M82.072,27 C82.104,26.256 82.158,25.578 82.234,24.966 C82.31,24.354 82.432,23.774 82.6,23.226 C82.768,22.678 82.994,22.14 83.278,21.612 C83.562,21.084 83.932,20.532 84.388,19.956 L84.388,19.956 L84.388,19.344 L79.456,19.344 L79.456,20.196 L83.272,20.196 C82.896,20.724 82.574,21.24 82.306,21.744 C82.038,22.248 81.818,22.77 81.646,23.31 C81.474,23.85 81.34,24.42 81.244,25.02 C81.148,25.62 81.084,26.28 81.052,27 L81.052,27 L82.072,27 Z M87.892,27.144 C88.26,27.144 88.596,27.092 88.9,26.988 C89.204,26.884 89.464,26.74 89.68,26.556 C89.896,26.372 90.064,26.156 90.184,25.908 C90.304,25.66 90.364,25.392 90.364,25.104 C90.364,24.848 90.326,24.62 90.25,24.42 C90.174,24.22 90.074,24.042 89.95,23.886 C89.826,23.73 89.684,23.59 89.524,23.466 C89.364,23.342 89.2,23.232 89.032,23.136 L89.032,23.136 L89.032,23.088 C89.152,23 89.274,22.892 89.398,22.764 C89.522,22.636 89.634,22.492 89.734,22.332 C89.834,22.172 89.918,22 89.986,21.816 C90.054,21.632 90.088,21.44 90.088,21.24 C90.088,20.944 90.038,20.67 89.938,20.418 C89.838,20.166 89.694,19.95 89.506,19.77 C89.318,19.59 89.092,19.45 88.828,19.35 C88.564,19.25 88.264,19.2 87.928,19.2 C87.616,19.2 87.328,19.248 87.064,19.344 C86.8,19.44 86.572,19.574 86.38,19.746 C86.188,19.918 86.036,20.124 85.924,20.364 C85.812,20.604 85.756,20.872 85.756,21.168 C85.756,21.576 85.864,21.922 86.08,22.206 C86.296,22.49 86.544,22.732 86.824,22.932 L86.824,22.932 L86.824,22.98 C86.64,23.076 86.462,23.19 86.29,23.322 C86.118,23.454 85.966,23.606 85.834,23.778 C85.702,23.95 85.594,24.142 85.51,24.354 C85.426,24.566 85.384,24.796 85.384,25.044 C85.384,25.348 85.448,25.628 85.576,25.884 C85.704,26.14 85.878,26.362 86.098,26.55 C86.318,26.738 86.582,26.884 86.89,26.988 C87.198,27.092 87.532,27.144 87.892,27.144 Z M88.432,22.824 C88.2,22.736 87.978,22.642 87.766,22.542 C87.554,22.442 87.366,22.328 87.202,22.2 C87.038,22.072 86.908,21.926 86.812,21.762 C86.716,21.598 86.668,21.4 86.668,21.168 C86.668,20.792 86.784,20.492 87.016,20.268 C87.248,20.044 87.544,19.932 87.904,19.932 C88.328,19.932 88.656,20.062 88.888,20.322 C89.12,20.582 89.236,20.904 89.236,21.288 C89.236,21.568 89.166,21.836 89.026,22.092 C88.886,22.348 88.688,22.592 88.432,22.824 Z M87.916,26.412 C87.684,26.412 87.468,26.376 87.268,26.304 C87.068,26.232 86.894,26.13 86.746,25.998 C86.598,25.866 86.482,25.712 86.398,25.536 C86.314,25.36 86.272,25.164 86.272,24.948 C86.272,24.596 86.374,24.282 86.578,24.006 C86.782,23.73 87.036,23.488 87.34,23.28 C87.612,23.392 87.874,23.502 88.126,23.61 C88.378,23.718 88.6,23.838 88.792,23.97 C88.984,24.102 89.136,24.256 89.248,24.432 C89.36,24.608 89.416,24.82 89.416,25.068 C89.416,25.468 89.278,25.792 89.002,26.04 C88.726,26.288 88.364,26.412 87.916,26.412 Z M94.444,27 C94.884,27 95.288,26.952 95.656,26.856 C96.024,26.76 96.34,26.616 96.604,26.424 C96.868,26.232 97.072,25.992 97.216,25.704 C97.36,25.416 97.432,25.08 97.432,24.696 C97.432,24.152 97.284,23.724 96.988,23.412 C96.692,23.1 96.304,22.9 95.824,22.812 L95.824,22.812 L95.824,22.764 C96.2,22.644 96.486,22.426 96.682,22.11 C96.878,21.794 96.976,21.44 96.976,21.048 C96.976,20.704 96.91,20.41 96.778,20.166 C96.646,19.922 96.462,19.724 96.226,19.572 C95.99,19.42 95.706,19.308 95.374,19.236 C95.042,19.164 94.676,19.128 94.276,19.128 L94.276,19.128 L91.936,19.128 L91.936,27 L94.444,27 Z M94.096,22.476 L92.932,22.476 L92.932,19.92 L94.144,19.92 C94.76,19.92 95.222,20.016 95.53,20.208 C95.838,20.4 95.992,20.724 95.992,21.18 C95.992,21.58 95.844,21.896 95.548,22.128 C95.252,22.36 94.768,22.476 94.096,22.476 L94.096,22.476 Z M94.3,26.208 L92.932,26.208 L92.932,23.244 L94.3,23.244 C94.996,23.244 95.528,23.358 95.896,23.586 C96.264,23.814 96.448,24.172 96.448,24.66 C96.448,25.188 96.26,25.578 95.884,25.83 C95.508,26.082 94.98,26.208 94.3,26.208 L94.3,26.208 Z" id="Obligations$278B" fill="#555555" fill-rule="nonzero"></path>
                    <path d="M137.936,12.144 C138.392,12.144 138.802,12.078 139.166,11.946 C139.53,11.814 139.842,11.604 140.102,11.316 C140.362,11.028 140.56,10.658 140.696,10.206 C140.832,9.754 140.9,9.204 140.9,8.556 L140.9,8.556 L140.9,4.152 L139.568,4.152 L139.568,8.664 C139.568,9.088 139.528,9.446 139.448,9.738 C139.368,10.03 139.256,10.264 139.112,10.44 C138.968,10.616 138.796,10.742 138.596,10.818 C138.396,10.894 138.176,10.932 137.936,10.932 C137.696,10.932 137.48,10.894 137.288,10.818 C137.096,10.742 136.93,10.616 136.79,10.44 C136.65,10.264 136.542,10.03 136.466,9.738 C136.39,9.446 136.352,9.088 136.352,8.664 L136.352,8.664 L136.352,4.152 L134.96,4.152 L134.96,8.556 C134.96,9.204 135.03,9.754 135.17,10.206 C135.31,10.658 135.51,11.028 135.77,11.316 C136.03,11.604 136.342,11.814 136.706,11.946 C137.07,12.078 137.48,12.144 137.936,12.144 Z M144.116,12 L144.116,7.884 C144.364,7.644 144.586,7.462 144.782,7.338 C144.978,7.214 145.204,7.152 145.46,7.152 C145.788,7.152 146.024,7.252 146.168,7.452 C146.312,7.652 146.384,7.996 146.384,8.484 L146.384,8.484 L146.384,12 L147.764,12 L147.764,8.304 C147.764,7.552 147.62,6.974 147.332,6.57 C147.044,6.166 146.584,5.964 145.952,5.964 C145.544,5.964 145.186,6.056 144.878,6.24 C144.57,6.424 144.284,6.644 144.02,6.9 L144.02,6.9 L143.972,6.9 L143.876,6.108 L142.736,6.108 L142.736,12 L144.116,12 Z M151.868,12.144 C152.236,12.144 152.59,12.076 152.93,11.94 C153.27,11.804 153.568,11.604 153.824,11.34 C154.08,11.076 154.286,10.752 154.442,10.368 C154.598,9.984 154.676,9.548 154.676,9.06 C154.676,8.572 154.598,8.136 154.442,7.752 C154.286,7.368 154.08,7.044 153.824,6.78 C153.568,6.516 153.27,6.314 152.93,6.174 C152.59,6.034 152.236,5.964 151.868,5.964 C151.5,5.964 151.148,6.034 150.812,6.174 C150.476,6.314 150.178,6.516 149.918,6.78 C149.658,7.044 149.452,7.368 149.3,7.752 C149.148,8.136 149.072,8.572 149.072,9.06 C149.072,9.548 149.148,9.984 149.3,10.368 C149.452,10.752 149.658,11.076 149.918,11.34 C150.178,11.604 150.476,11.804 150.812,11.94 C151.148,12.076 151.5,12.144 151.868,12.144 Z M151.868,11.016 C151.436,11.016 151.098,10.838 150.854,10.482 C150.61,10.126 150.488,9.652 150.488,9.06 C150.488,8.46 150.61,7.982 150.854,7.626 C151.098,7.27 151.436,7.092 151.868,7.092 C152.3,7.092 152.64,7.27 152.888,7.626 C153.136,7.982 153.26,8.46 153.26,9.06 C153.26,9.652 153.136,10.126 152.888,10.482 C152.64,10.838 152.3,11.016 151.868,11.016 Z M158.9,12.144 C159.228,12.144 159.544,12.072 159.848,11.928 C160.152,11.784 160.42,11.576 160.652,11.304 C160.884,11.032 161.07,10.698 161.21,10.302 C161.35,9.906 161.42,9.456 161.42,8.952 C161.42,8.496 161.368,8.084 161.264,7.716 C161.16,7.348 161.008,7.034 160.808,6.774 C160.608,6.514 160.364,6.314 160.076,6.174 C159.788,6.034 159.46,5.964 159.092,5.964 C158.788,5.964 158.49,6.032 158.198,6.168 C157.906,6.304 157.636,6.48 157.388,6.696 L157.388,6.696 L157.424,5.712 L157.424,3.528 L156.044,3.528 L156.044,12 L157.136,12 L157.256,11.376 L157.292,11.376 C157.54,11.624 157.802,11.814 158.078,11.946 C158.354,12.078 158.628,12.144 158.9,12.144 Z M158.612,11.004 C158.436,11.004 158.246,10.968 158.042,10.896 C157.838,10.824 157.632,10.696 157.424,10.512 L157.424,10.512 L157.424,7.764 C157.872,7.324 158.304,7.104 158.72,7.104 C159.168,7.104 159.492,7.268 159.692,7.596 C159.892,7.924 159.992,8.384 159.992,8.976 C159.992,9.648 159.86,10.154 159.596,10.494 C159.332,10.834 159.004,11.004 158.612,11.004 Z M164.144,12.144 C164.448,12.144 164.692,12.104 164.876,12.024 L164.876,12.024 L164.696,10.992 C164.64,11.008 164.598,11.016 164.57,11.016 L164.57,11.016 L164.48,11.016 C164.408,11.016 164.34,10.982 164.276,10.914 C164.212,10.846 164.18,10.728 164.18,10.56 L164.18,10.56 L164.18,3.528 L162.8,3.528 L162.8,10.488 C162.8,11 162.9,11.404 163.1,11.7 C163.3,11.996 163.648,12.144 164.144,12.144 Z M166.748,5.076 C166.996,5.076 167.2,5.004 167.36,4.86 C167.52,4.716 167.6,4.528 167.6,4.296 C167.6,4.064 167.52,3.874 167.36,3.726 C167.2,3.578 166.996,3.504 166.748,3.504 C166.5,3.504 166.296,3.578 166.136,3.726 C165.976,3.874 165.896,4.064 165.896,4.296 C165.896,4.528 165.976,4.716 166.136,4.86 C166.296,5.004 166.5,5.076 166.748,5.076 Z M167.432,12 L167.432,6.108 L166.052,6.108 L166.052,12 L167.432,12 Z M171.248,14.604 C171.728,14.604 172.162,14.55 172.55,14.442 C172.938,14.334 173.268,14.188 173.54,14.004 C173.812,13.82 174.022,13.6 174.17,13.344 C174.318,13.088 174.392,12.816 174.392,12.528 C174.392,12.016 174.21,11.646 173.846,11.418 C173.482,11.19 172.944,11.076 172.232,11.076 L172.232,11.076 L171.188,11.076 C170.828,11.076 170.578,11.028 170.438,10.932 C170.298,10.836 170.228,10.704 170.228,10.536 C170.228,10.4 170.254,10.292 170.306,10.212 C170.358,10.132 170.428,10.052 170.516,9.972 C170.652,10.028 170.788,10.068 170.924,10.092 C171.06,10.116 171.192,10.128 171.32,10.128 C171.632,10.128 171.924,10.084 172.196,9.996 C172.468,9.908 172.704,9.78 172.904,9.612 C173.104,9.444 173.262,9.236 173.378,8.988 C173.494,8.74 173.552,8.452 173.552,8.124 C173.552,7.916 173.52,7.726 173.456,7.554 C173.392,7.382 173.312,7.24 173.216,7.128 L173.216,7.128 L174.296,7.128 L174.296,6.108 L172.184,6.108 C172.064,6.068 171.93,6.034 171.782,6.006 C171.634,5.978 171.48,5.964 171.32,5.964 C171.008,5.964 170.712,6.01 170.432,6.102 C170.152,6.194 169.906,6.33 169.694,6.51 C169.482,6.69 169.312,6.912 169.184,7.176 C169.056,7.44 168.992,7.74 168.992,8.076 C168.992,8.428 169.07,8.738 169.226,9.006 C169.382,9.274 169.56,9.484 169.76,9.636 L169.76,9.636 L169.76,9.684 C169.592,9.804 169.442,9.958 169.31,10.146 C169.178,10.334 169.112,10.544 169.112,10.776 C169.112,11.016 169.162,11.216 169.262,11.376 C169.362,11.536 169.488,11.664 169.64,11.76 L169.64,11.76 L169.64,11.808 C169.368,11.976 169.16,12.166 169.016,12.378 C168.872,12.59 168.8,12.82 168.8,13.068 C168.8,13.324 168.862,13.548 168.986,13.74 C169.11,13.932 169.28,14.092 169.496,14.22 C169.712,14.348 169.97,14.444 170.27,14.508 C170.57,14.572 170.896,14.604 171.248,14.604 Z M171.32,9.264 C171.032,9.264 170.788,9.162 170.588,8.958 C170.388,8.754 170.288,8.46 170.288,8.076 C170.288,7.7 170.388,7.412 170.588,7.212 C170.788,7.012 171.032,6.912 171.32,6.912 C171.608,6.912 171.85,7.014 172.046,7.218 C172.242,7.422 172.34,7.708 172.34,8.076 C172.34,8.46 172.24,8.754 172.04,8.958 C171.84,9.162 171.6,9.264 171.32,9.264 Z M171.464,13.704 C170.992,13.704 170.622,13.63 170.354,13.482 C170.086,13.334 169.952,13.128 169.952,12.864 C169.952,12.576 170.104,12.316 170.408,12.084 C170.624,12.14 170.892,12.168 171.212,12.168 L171.212,12.168 L172.016,12.168 C172.352,12.168 172.61,12.208 172.79,12.288 C172.97,12.368 173.06,12.524 173.06,12.756 C173.06,13.012 172.914,13.234 172.622,13.422 C172.33,13.61 171.944,13.704 171.464,13.704 Z M176.648,12.144 C177,12.144 177.326,12.068 177.626,11.916 C177.926,11.764 178.208,11.576 178.472,11.352 L178.472,11.352 L178.52,11.352 L178.616,12 L179.756,12 L179.756,8.508 C179.756,7.684 179.574,7.054 179.21,6.618 C178.846,6.182 178.296,5.964 177.56,5.964 C177.088,5.964 176.648,6.04 176.24,6.192 C175.832,6.344 175.464,6.524 175.136,6.732 L175.136,6.732 L175.64,7.656 C175.904,7.496 176.174,7.36 176.45,7.248 C176.726,7.136 177.008,7.08 177.296,7.08 C177.496,7.08 177.664,7.11 177.8,7.17 C177.936,7.23 178.046,7.314 178.13,7.422 C178.214,7.53 178.274,7.654 178.31,7.794 C178.346,7.934 178.368,8.08 178.376,8.232 C177.768,8.296 177.246,8.388 176.81,8.508 C176.374,8.628 176.014,8.776 175.73,8.952 C175.446,9.128 175.238,9.338 175.106,9.582 C174.974,9.826 174.908,10.104 174.908,10.416 C174.908,10.936 175.068,11.354 175.388,11.67 C175.708,11.986 176.128,12.144 176.648,12.144 Z M177.092,11.064 C176.844,11.064 176.64,11.004 176.48,10.884 C176.32,10.764 176.24,10.572 176.24,10.308 C176.24,10.164 176.276,10.028 176.348,9.9 C176.42,9.772 176.54,9.658 176.708,9.558 C176.876,9.458 177.096,9.368 177.368,9.288 C177.64,9.208 177.976,9.144 178.376,9.096 L178.376,9.096 L178.376,10.416 C178.152,10.624 177.942,10.784 177.746,10.896 C177.55,11.008 177.332,11.064 177.092,11.064 Z M183.296,12.144 C183.528,12.144 183.746,12.122 183.95,12.078 C184.154,12.034 184.336,11.984 184.496,11.928 L184.496,11.928 L184.256,10.908 C184.168,10.948 184.07,10.98 183.962,11.004 C183.854,11.028 183.748,11.04 183.644,11.04 C183.092,11.04 182.816,10.696 182.816,10.008 L182.816,10.008 L182.816,7.2 L184.316,7.2 L184.316,6.108 L182.816,6.108 L182.816,4.5 L181.664,4.5 L181.496,6.108 L180.584,6.168 L180.584,7.2 L181.424,7.2 L181.424,10.008 C181.424,10.328 181.458,10.618 181.526,10.878 C181.594,11.138 181.702,11.362 181.85,11.55 C181.998,11.738 182.19,11.884 182.426,11.988 C182.662,12.092 182.952,12.144 183.296,12.144 Z M187.88,12.144 C188.256,12.144 188.616,12.084 188.96,11.964 C189.304,11.844 189.616,11.692 189.896,11.508 L189.896,11.508 L189.428,10.644 C189.212,10.78 188.994,10.886 188.774,10.962 C188.554,11.038 188.316,11.076 188.06,11.076 C187.58,11.076 187.186,10.934 186.878,10.65 C186.57,10.366 186.384,9.96 186.32,9.432 L186.32,9.432 L190.064,9.432 C190.08,9.36 190.094,9.264 190.106,9.144 C190.118,9.024 190.124,8.896 190.124,8.76 C190.124,8.352 190.072,7.976 189.968,7.632 C189.864,7.288 189.71,6.992 189.506,6.744 C189.302,6.496 189.048,6.304 188.744,6.168 C188.44,6.032 188.088,5.964 187.688,5.964 C187.344,5.964 187.008,6.036 186.68,6.18 C186.352,6.324 186.062,6.528 185.81,6.792 C185.558,7.056 185.356,7.38 185.204,7.764 C185.052,8.148 184.976,8.58 184.976,9.06 C184.976,9.548 185.05,9.982 185.198,10.362 C185.346,10.742 185.552,11.064 185.816,11.328 C186.08,11.592 186.388,11.794 186.74,11.934 C187.092,12.074 187.472,12.144 187.88,12.144 Z M188.924,8.496 L186.308,8.496 C186.372,8.016 186.536,7.652 186.8,7.404 C187.064,7.156 187.372,7.032 187.724,7.032 C188.132,7.032 188.434,7.162 188.63,7.422 C188.826,7.682 188.924,8.04 188.924,8.496 L188.924,8.496 Z M193.508,12.144 C193.828,12.144 194.132,12.068 194.42,11.916 C194.708,11.764 194.96,11.58 195.176,11.364 L195.176,11.364 L195.224,11.364 L195.32,12 L196.46,12 L196.46,3.528 L195.08,3.528 L195.08,5.664 L195.128,6.612 C194.896,6.412 194.664,6.254 194.432,6.138 C194.2,6.022 193.916,5.964 193.58,5.964 C193.26,5.964 192.95,6.036 192.65,6.18 C192.35,6.324 192.084,6.528 191.852,6.792 C191.62,7.056 191.434,7.38 191.294,7.764 C191.154,8.148 191.084,8.58 191.084,9.06 C191.084,10.036 191.302,10.794 191.738,11.334 C192.174,11.874 192.764,12.144 193.508,12.144 Z M193.844,11.004 C193.412,11.004 193.082,10.838 192.854,10.506 C192.626,10.174 192.512,9.688 192.512,9.048 C192.512,8.424 192.644,7.944 192.908,7.608 C193.172,7.272 193.496,7.104 193.88,7.104 C194.08,7.104 194.278,7.14 194.474,7.212 C194.67,7.284 194.872,7.412 195.08,7.596 L195.08,7.596 L195.08,10.344 C194.696,10.784 194.284,11.004 193.844,11.004 Z M137.384,28.32 L137.384,27.108 C137.96,27.028 138.414,26.804 138.746,26.436 C139.078,26.068 139.244,25.596 139.244,25.02 C139.244,24.588 139.162,24.234 138.998,23.958 C138.834,23.682 138.628,23.45 138.38,23.262 C138.132,23.074 137.862,22.914 137.57,22.782 C137.278,22.65 137.008,22.514 136.76,22.374 C136.512,22.234 136.306,22.072 136.142,21.888 C135.978,21.704 135.896,21.468 135.896,21.18 C135.896,20.828 136.004,20.548 136.22,20.34 C136.436,20.132 136.728,20.028 137.096,20.028 C137.424,20.028 137.694,20.088 137.906,20.208 C138.118,20.328 138.336,20.496 138.56,20.712 L138.56,20.712 L139.088,20.124 C138.872,19.892 138.63,19.692 138.362,19.524 C138.094,19.356 137.768,19.252 137.384,19.212 L137.384,19.212 L137.384,18.024 L136.664,18.024 L136.664,19.236 C136.136,19.316 135.714,19.534 135.398,19.89 C135.082,20.246 134.924,20.692 134.924,21.228 C134.924,21.62 135.006,21.942 135.17,22.194 C135.334,22.446 135.54,22.66 135.788,22.836 C136.036,23.012 136.306,23.168 136.598,23.304 C136.89,23.44 137.16,23.586 137.408,23.742 C137.656,23.898 137.862,24.082 138.026,24.294 C138.19,24.506 138.272,24.772 138.272,25.092 C138.272,25.468 138.162,25.768 137.942,25.992 C137.722,26.216 137.388,26.328 136.94,26.328 C136.572,26.328 136.234,26.25 135.926,26.094 C135.618,25.938 135.336,25.748 135.08,25.524 L135.08,25.524 L134.624,26.208 C134.88,26.44 135.188,26.642 135.548,26.814 C135.908,26.986 136.28,27.092 136.664,27.132 L136.664,27.132 L136.664,28.32 L137.384,28.32 Z M142.424,27.144 C142.808,27.144 143.174,27.066 143.522,26.91 C143.87,26.754 144.18,26.506 144.452,26.166 C144.724,25.826 144.94,25.386 145.1,24.846 C145.26,24.306 145.34,23.652 145.34,22.884 C145.34,22.268 145.274,21.73 145.142,21.27 C145.01,20.81 144.826,20.426 144.59,20.118 C144.354,19.81 144.074,19.58 143.75,19.428 C143.426,19.276 143.076,19.2 142.7,19.2 C142.396,19.2 142.106,19.26 141.83,19.38 C141.554,19.5 141.314,19.668 141.11,19.884 C140.906,20.1 140.744,20.358 140.624,20.658 C140.504,20.958 140.444,21.292 140.444,21.66 C140.444,22.452 140.64,23.044 141.032,23.436 C141.424,23.828 141.952,24.024 142.616,24.024 C142.936,24.024 143.256,23.936 143.576,23.76 C143.896,23.584 144.176,23.344 144.416,23.04 C144.408,23.656 144.348,24.172 144.236,24.588 C144.124,25.004 143.976,25.342 143.792,25.602 C143.608,25.862 143.396,26.048 143.156,26.16 C142.916,26.272 142.66,26.328 142.388,26.328 C142.148,26.328 141.918,26.272 141.698,26.16 C141.478,26.048 141.288,25.9 141.128,25.716 L141.128,25.716 L140.576,26.34 C140.784,26.572 141.042,26.764 141.35,26.916 C141.658,27.068 142.016,27.144 142.424,27.144 Z M142.784,23.28 C142.304,23.28 141.948,23.136 141.716,22.848 C141.484,22.56 141.368,22.164 141.368,21.66 C141.368,21.412 141.402,21.184 141.47,20.976 C141.538,20.768 141.632,20.59 141.752,20.442 C141.872,20.294 142.014,20.18 142.178,20.1 C142.342,20.02 142.516,19.98 142.7,19.98 C143.188,19.98 143.576,20.172 143.864,20.556 C144.152,20.94 144.328,21.508 144.392,22.26 C144.144,22.62 143.878,22.88 143.594,23.04 C143.31,23.2 143.04,23.28 142.784,23.28 Z M150.512,27 L150.512,24.888 L151.556,24.888 L151.556,24.096 L150.512,24.096 L150.512,19.344 L149.408,19.344 L146.132,24.24 L146.132,24.888 L149.576,24.888 L149.576,27 L150.512,27 Z M149.576,24.096 L147.176,24.096 L148.964,21.48 C149.076,21.296 149.184,21.116 149.288,20.94 C149.392,20.764 149.492,20.584 149.588,20.4 L149.588,20.4 L149.636,20.4 C149.62,20.608 149.606,20.854 149.594,21.138 C149.582,21.422 149.576,21.668 149.576,21.876 L149.576,21.876 L149.576,24.096 Z M155.48,27 C155.92,27 156.324,26.952 156.692,26.856 C157.06,26.76 157.376,26.616 157.64,26.424 C157.904,26.232 158.108,25.992 158.252,25.704 C158.396,25.416 158.468,25.08 158.468,24.696 C158.468,24.152 158.32,23.724 158.024,23.412 C157.728,23.1 157.34,22.9 156.86,22.812 L156.86,22.812 L156.86,22.764 C157.236,22.644 157.522,22.426 157.718,22.11 C157.914,21.794 158.012,21.44 158.012,21.048 C158.012,20.704 157.946,20.41 157.814,20.166 C157.682,19.922 157.498,19.724 157.262,19.572 C157.026,19.42 156.742,19.308 156.41,19.236 C156.078,19.164 155.712,19.128 155.312,19.128 L155.312,19.128 L152.972,19.128 L152.972,27 L155.48,27 Z M155.132,22.476 L153.968,22.476 L153.968,19.92 L155.18,19.92 C155.796,19.92 156.258,20.016 156.566,20.208 C156.874,20.4 157.028,20.724 157.028,21.18 C157.028,21.58 156.88,21.896 156.584,22.128 C156.288,22.36 155.804,22.476 155.132,22.476 L155.132,22.476 Z M155.336,26.208 L153.968,26.208 L153.968,23.244 L155.336,23.244 C156.032,23.244 156.564,23.358 156.932,23.586 C157.3,23.814 157.484,24.172 157.484,24.66 C157.484,25.188 157.296,25.578 156.92,25.83 C156.544,26.082 156.016,26.208 155.336,26.208 L155.336,26.208 Z" id="Unobligated$94B" fill="#555555" fill-rule="nonzero"></path>
                    <path d="M15,0 L9,0 C7.8954305,2.02906125e-16 7,0.8954305 7,2 L7,28 C7,29.1045695 7.8954305,30 9,30 L15,30 L15,30" id="Line-2" stroke="#C6C6C6" stroke-linecap="round"></path>
                    <line x1="6.5" y1="16.5" x2="0.5" y2="16.5" id="Line-4" stroke="#C6C6C6" stroke-linecap="round"></line>
                </g>
                <g id="Group-15-Copy" transform="translate(0.000000, 2.000000)">
                    <rect id="outlays" fill="#331E4D" x="0" y="0" width="18" height="31"></rect>
                    <rect id="unobligated" fill="#F3E9FF" x="35" y="0" width="7" height="31"></rect>
                    <rect id="obligated" fill="#6F41A7" x="18" y="0" width="18" height="31"></rect>
                </g>
            </g>
        </g>
    </g>
</svg>