<?xml version="1.0" encoding="UTF-8"?>
<svg width="324px" height="32px" viewBox="0 0 324 32" version="1.1" xmlns="http://www.w3.org/2000/svg" xmlns:xlink="http://www.w3.org/1999/xlink">
    <title>09. mobile - phase 3.5 loan</title>
    <g id="SVG" stroke="none" stroke-width="1" fill="none" fill-rule="evenodd">
        <g id="Viz-3---Mobile-Outline" transform="translate(-37.000000, -1692.000000)">
            <g id="09.-mobile---phase-3.5-loan" transform="translate(37.000000, 1693.000000)">
                <path d="M126.044,12.144 C126.556,12.144 127.024,12.05 127.448,11.862 C127.872,11.674 128.238,11.402 128.546,11.046 C128.854,10.69 129.092,10.26 129.26,9.756 C129.428,9.252 129.512,8.68 129.512,8.04 C129.512,7.408 129.428,6.842 129.26,6.342 C129.092,5.842 128.854,5.42 128.546,5.076 C128.238,4.732 127.872,4.468 127.448,4.284 C127.024,4.1 126.556,4.008 126.044,4.008 C125.532,4.008 125.064,4.1 124.64,4.284 C124.216,4.468 123.852,4.732 123.548,5.076 C123.244,5.42 123.008,5.842 122.84,6.342 C122.672,6.842 122.588,7.408 122.588,8.04 C122.588,8.68 122.672,9.252 122.84,9.756 C123.008,10.26 123.244,10.69 123.548,11.046 C123.852,11.402 124.216,11.674 124.64,11.862 C125.064,12.05 125.532,12.144 126.044,12.144 Z M126.044,10.932 C125.732,10.932 125.452,10.864 125.204,10.728 C124.956,10.592 124.744,10.398 124.568,10.146 C124.392,9.894 124.256,9.59 124.16,9.234 C124.064,8.878 124.016,8.48 124.016,8.04 C124.016,7.16 124.198,6.47 124.562,5.97 C124.926,5.47 125.42,5.22 126.044,5.22 C126.668,5.22 127.162,5.47 127.526,5.97 C127.89,6.47 128.072,7.16 128.072,8.04 C128.072,8.48 128.024,8.878 127.928,9.234 C127.832,9.59 127.696,9.894 127.52,10.146 C127.344,10.398 127.132,10.592 126.884,10.728 C126.636,10.864 126.356,10.932 126.044,10.932 Z M132.716,12.144 C133.124,12.144 133.478,12.052 133.778,11.868 C134.078,11.684 134.356,11.44 134.612,11.136 L134.612,11.136 L134.648,11.136 L134.756,12 L135.884,12 L135.884,6.108 L134.504,6.108 L134.504,10.14 C134.28,10.428 134.07,10.636 133.874,10.764 C133.678,10.892 133.452,10.956 133.196,10.956 C132.876,10.956 132.644,10.856 132.5,10.656 C132.356,10.456 132.284,10.112 132.284,9.624 L132.284,9.624 L132.284,6.108 L130.904,6.108 L130.904,9.804 C130.904,10.556 131.048,11.134 131.336,11.538 C131.624,11.942 132.084,12.144 132.716,12.144 Z M139.712,12.144 C139.944,12.144 140.162,12.122 140.366,12.078 C140.57,12.034 140.752,11.984 140.912,11.928 L140.912,11.928 L140.672,10.908 C140.584,10.948 140.486,10.98 140.378,11.004 C140.27,11.028 140.164,11.04 140.06,11.04 C139.508,11.04 139.232,10.696 139.232,10.008 L139.232,10.008 L139.232,7.2 L140.732,7.2 L140.732,6.108 L139.232,6.108 L139.232,4.5 L138.08,4.5 L137.912,6.108 L137,6.168 L137,7.2 L137.84,7.2 L137.84,10.008 C137.84,10.328 137.874,10.618 137.942,10.878 C138.01,11.138 138.118,11.362 138.266,11.55 C138.414,11.738 138.606,11.884 138.842,11.988 C139.078,12.092 139.368,12.144 139.712,12.144 Z M143.312,12.144 C143.616,12.144 143.86,12.104 144.044,12.024 L144.044,12.024 L143.864,10.992 C143.808,11.008 143.766,11.016 143.738,11.016 L143.738,11.016 L143.648,11.016 C143.576,11.016 143.508,10.982 143.444,10.914 C143.38,10.846 143.348,10.728 143.348,10.56 L143.348,10.56 L143.348,3.528 L141.968,3.528 L141.968,10.488 C141.968,11 142.068,11.404 142.268,11.7 C142.468,11.996 142.816,12.144 143.312,12.144 Z M146.648,12.144 C147,12.144 147.326,12.068 147.626,11.916 C147.926,11.764 148.208,11.576 148.472,11.352 L148.472,11.352 L148.52,11.352 L148.616,12 L149.756,12 L149.756,8.508 C149.756,7.684 149.574,7.054 149.21,6.618 C148.846,6.182 148.296,5.964 147.56,5.964 C147.088,5.964 146.648,6.04 146.24,6.192 C145.832,6.344 145.464,6.524 145.136,6.732 L145.136,6.732 L145.64,7.656 C145.904,7.496 146.174,7.36 146.45,7.248 C146.726,7.136 147.008,7.08 147.296,7.08 C147.496,7.08 147.664,7.11 147.8,7.17 C147.936,7.23 148.046,7.314 148.13,7.422 C148.214,7.53 148.274,7.654 148.31,7.794 C148.346,7.934 148.368,8.08 148.376,8.232 C147.768,8.296 147.246,8.388 146.81,8.508 C146.374,8.628 146.014,8.776 145.73,8.952 C145.446,9.128 145.238,9.338 145.106,9.582 C144.974,9.826 144.908,10.104 144.908,10.416 C144.908,10.936 145.068,11.354 145.388,11.67 C145.708,11.986 146.128,12.144 146.648,12.144 Z M147.092,11.064 C146.844,11.064 146.64,11.004 146.48,10.884 C146.32,10.764 146.24,10.572 146.24,10.308 C146.24,10.164 146.276,10.028 146.348,9.9 C146.42,9.772 146.54,9.658 146.708,9.558 C146.876,9.458 147.096,9.368 147.368,9.288 C147.64,9.208 147.976,9.144 148.376,9.096 L148.376,9.096 L148.376,10.416 C148.152,10.624 147.942,10.784 147.746,10.896 C147.55,11.008 147.332,11.064 147.092,11.064 Z M151.808,14.424 C152.128,14.424 152.41,14.374 152.654,14.274 C152.898,14.174 153.114,14.03 153.302,13.842 C153.49,13.654 153.656,13.428 153.8,13.164 C153.944,12.9 154.076,12.6 154.196,12.264 L154.196,12.264 L156.332,6.108 L155,6.108 L154.112,9 C154.04,9.264 153.966,9.538 153.89,9.822 C153.814,10.106 153.74,10.384 153.668,10.656 L153.668,10.656 L153.62,10.656 C153.532,10.376 153.446,10.094 153.362,9.81 C153.278,9.526 153.192,9.256 153.104,9 L153.104,9 L152.084,6.108 L150.68,6.108 L152.996,11.928 L152.888,12.3 C152.792,12.596 152.65,12.838 152.462,13.026 C152.274,13.214 152.024,13.308 151.712,13.308 C151.64,13.308 151.566,13.298 151.49,13.278 C151.414,13.258 151.348,13.24 151.292,13.224 L151.292,13.224 L151.04,14.304 C151.152,14.344 151.268,14.374 151.388,14.394 C151.508,14.414 151.648,14.424 151.808,14.424 Z M158.996,12.144 C159.364,12.144 159.692,12.096 159.98,12 C160.268,11.904 160.508,11.774 160.7,11.61 C160.892,11.446 161.038,11.254 161.138,11.034 C161.238,10.814 161.288,10.576 161.288,10.32 C161.288,10.048 161.238,9.814 161.138,9.618 C161.038,9.422 160.906,9.256 160.742,9.12 C160.578,8.984 160.396,8.87 160.196,8.778 C159.996,8.686 159.796,8.604 159.596,8.532 C159.436,8.476 159.282,8.42 159.134,8.364 C158.986,8.308 158.856,8.248 158.744,8.184 C158.632,8.12 158.542,8.046 158.474,7.962 C158.406,7.878 158.372,7.776 158.372,7.656 C158.372,7.472 158.442,7.318 158.582,7.194 C158.722,7.07 158.94,7.008 159.236,7.008 C159.468,7.008 159.69,7.054 159.902,7.146 C160.114,7.238 160.324,7.36 160.532,7.512 L160.532,7.512 L161.168,6.672 C160.928,6.488 160.644,6.324 160.316,6.18 C159.988,6.036 159.62,5.964 159.212,5.964 C158.548,5.964 158.024,6.128 157.64,6.456 C157.256,6.784 157.064,7.208 157.064,7.728 C157.064,7.976 157.114,8.19 157.214,8.37 C157.314,8.55 157.442,8.708 157.598,8.844 C157.754,8.98 157.932,9.096 158.132,9.192 C158.332,9.288 158.528,9.372 158.72,9.444 C158.872,9.508 159.024,9.57 159.176,9.63 C159.328,9.69 159.464,9.756 159.584,9.828 C159.704,9.9 159.8,9.982 159.872,10.074 C159.944,10.166 159.98,10.272 159.98,10.392 C159.98,10.6 159.904,10.77 159.752,10.902 C159.6,11.034 159.364,11.1 159.044,11.1 C158.74,11.1 158.458,11.042 158.198,10.926 C157.938,10.81 157.676,10.648 157.412,10.44 L157.412,10.44 L156.764,11.328 C157.052,11.56 157.394,11.754 157.79,11.91 C158.186,12.066 158.588,12.144 158.996,12.144 Z M125.384,28.32 L125.384,27.108 C125.96,27.028 126.414,26.804 126.746,26.436 C127.078,26.068 127.244,25.596 127.244,25.02 C127.244,24.588 127.162,24.234 126.998,23.958 C126.834,23.682 126.628,23.45 126.38,23.262 C126.132,23.074 125.862,22.914 125.57,22.782 C125.278,22.65 125.008,22.514 124.76,22.374 C124.512,22.234 124.306,22.072 124.142,21.888 C123.978,21.704 123.896,21.468 123.896,21.18 C123.896,20.828 124.004,20.548 124.22,20.34 C124.436,20.132 124.728,20.028 125.096,20.028 C125.424,20.028 125.694,20.088 125.906,20.208 C126.118,20.328 126.336,20.496 126.56,20.712 L126.56,20.712 L127.088,20.124 C126.872,19.892 126.63,19.692 126.362,19.524 C126.094,19.356 125.768,19.252 125.384,19.212 L125.384,19.212 L125.384,18.024 L124.664,18.024 L124.664,19.236 C124.136,19.316 123.714,19.534 123.398,19.89 C123.082,20.246 122.924,20.692 122.924,21.228 C122.924,21.62 123.006,21.942 123.17,22.194 C123.334,22.446 123.54,22.66 123.788,22.836 C124.036,23.012 124.306,23.168 124.598,23.304 C124.89,23.44 125.16,23.586 125.408,23.742 C125.656,23.898 125.862,24.082 126.026,24.294 C126.19,24.506 126.272,24.772 126.272,25.092 C126.272,25.468 126.162,25.768 125.942,25.992 C125.722,26.216 125.388,26.328 124.94,26.328 C124.572,26.328 124.234,26.25 123.926,26.094 C123.618,25.938 123.336,25.748 123.08,25.524 L123.08,25.524 L122.624,26.208 C122.88,26.44 123.188,26.642 123.548,26.814 C123.908,26.986 124.28,27.092 124.664,27.132 L124.664,27.132 L124.664,28.32 L125.384,28.32 Z M133.388,27 L133.388,26.148 L131.168,26.148 C130.968,26.148 130.756,26.156 130.532,26.172 C130.308,26.188 130.092,26.204 129.884,26.22 C130.34,25.748 130.758,25.302 131.138,24.882 C131.518,24.462 131.846,24.058 132.122,23.67 C132.398,23.282 132.614,22.906 132.77,22.542 C132.926,22.178 133.004,21.816 133.004,21.456 C133.004,20.776 132.8,20.23 132.392,19.818 C131.984,19.406 131.424,19.2 130.712,19.2 C130.208,19.2 129.776,19.306 129.416,19.518 C129.056,19.73 128.716,20.012 128.396,20.364 L128.396,20.364 L128.96,20.928 C129.184,20.672 129.432,20.454 129.704,20.274 C129.976,20.094 130.272,20.004 130.592,20.004 C131.08,20.004 131.444,20.144 131.684,20.424 C131.924,20.704 132.044,21.064 132.044,21.504 C132.044,21.816 131.964,22.138 131.804,22.47 C131.644,22.802 131.412,23.166 131.108,23.562 C130.804,23.958 130.428,24.388 129.98,24.852 C129.532,25.316 129.02,25.836 128.444,26.412 L128.444,26.412 L128.444,27 L133.388,27 Z M137.072,27 C137.104,26.256 137.158,25.578 137.234,24.966 C137.31,24.354 137.432,23.774 137.6,23.226 C137.768,22.678 137.994,22.14 138.278,21.612 C138.562,21.084 138.932,20.532 139.388,19.956 L139.388,19.956 L139.388,19.344 L134.456,19.344 L134.456,20.196 L138.272,20.196 C137.896,20.724 137.574,21.24 137.306,21.744 C137.038,22.248 136.818,22.77 136.646,23.31 C136.474,23.85 136.34,24.42 136.244,25.02 C136.148,25.62 136.084,26.28 136.052,27 L136.052,27 L137.072,27 Z M145.16,27 L145.16,26.184 L143.576,26.184 L143.576,19.344 L142.82,19.344 C142.612,19.472 142.378,19.582 142.118,19.674 C141.858,19.766 141.552,19.844 141.2,19.908 L141.2,19.908 L141.2,20.544 L142.592,20.544 L142.592,26.184 L140.84,26.184 L140.84,27 L145.16,27 Z M149.444,27 C149.884,27 150.288,26.952 150.656,26.856 C151.024,26.76 151.34,26.616 151.604,26.424 C151.868,26.232 152.072,25.992 152.216,25.704 C152.36,25.416 152.432,25.08 152.432,24.696 C152.432,24.152 152.284,23.724 151.988,23.412 C151.692,23.1 151.304,22.9 150.824,22.812 L150.824,22.812 L150.824,22.764 C151.2,22.644 151.486,22.426 151.682,22.11 C151.878,21.794 151.976,21.44 151.976,21.048 C151.976,20.704 151.91,20.41 151.778,20.166 C151.646,19.922 151.462,19.724 151.226,19.572 C150.99,19.42 150.706,19.308 150.374,19.236 C150.042,19.164 149.676,19.128 149.276,19.128 L149.276,19.128 L146.936,19.128 L146.936,27 L149.444,27 Z M149.096,22.476 L147.932,22.476 L147.932,19.92 L149.144,19.92 C149.76,19.92 150.222,20.016 150.53,20.208 C150.838,20.4 150.992,20.724 150.992,21.18 C150.992,21.58 150.844,21.896 150.548,22.128 C150.252,22.36 149.768,22.476 149.096,22.476 L149.096,22.476 Z M149.3,26.208 L147.932,26.208 L147.932,23.244 L149.3,23.244 C149.996,23.244 150.528,23.358 150.896,23.586 C151.264,23.814 151.448,24.172 151.448,24.66 C151.448,25.188 151.26,25.578 150.884,25.83 C150.508,26.082 149.98,26.208 149.3,26.208 L149.3,26.208 Z" id="Outlays$271B" fill="#666666" fill-rule="nonzero"></path>
                <path d="M185.044,12.144 C185.556,12.144 186.024,12.05 186.448,11.862 C186.872,11.674 187.238,11.402 187.546,11.046 C187.854,10.69 188.092,10.26 188.26,9.756 C188.428,9.252 188.512,8.68 188.512,8.04 C188.512,7.408 188.428,6.842 188.26,6.342 C188.092,5.842 187.854,5.42 187.546,5.076 C187.238,4.732 186.872,4.468 186.448,4.284 C186.024,4.1 185.556,4.008 185.044,4.008 C184.532,4.008 184.064,4.1 183.64,4.284 C183.216,4.468 182.852,4.732 182.548,5.076 C182.244,5.42 182.008,5.842 181.84,6.342 C181.672,6.842 181.588,7.408 181.588,8.04 C181.588,8.68 181.672,9.252 181.84,9.756 C182.008,10.26 182.244,10.69 182.548,11.046 C182.852,11.402 183.216,11.674 183.64,11.862 C184.064,12.05 184.532,12.144 185.044,12.144 Z M185.044,10.932 C184.732,10.932 184.452,10.864 184.204,10.728 C183.956,10.592 183.744,10.398 183.568,10.146 C183.392,9.894 183.256,9.59 183.16,9.234 C183.064,8.878 183.016,8.48 183.016,8.04 C183.016,7.16 183.198,6.47 183.562,5.97 C183.926,5.47 184.42,5.22 185.044,5.22 C185.668,5.22 186.162,5.47 186.526,5.97 C186.89,6.47 187.072,7.16 187.072,8.04 C187.072,8.48 187.024,8.878 186.928,9.234 C186.832,9.59 186.696,9.894 186.52,10.146 C186.344,10.398 186.132,10.592 185.884,10.728 C185.636,10.864 185.356,10.932 185.044,10.932 Z M192.82,12.144 C193.148,12.144 193.464,12.072 193.768,11.928 C194.072,11.784 194.34,11.576 194.572,11.304 C194.804,11.032 194.99,10.698 195.13,10.302 C195.27,9.906 195.34,9.456 195.34,8.952 C195.34,8.496 195.288,8.084 195.184,7.716 C195.08,7.348 194.928,7.034 194.728,6.774 C194.528,6.514 194.284,6.314 193.996,6.174 C193.708,6.034 193.38,5.964 193.012,5.964 C192.708,5.964 192.41,6.032 192.118,6.168 C191.826,6.304 191.556,6.48 191.308,6.696 L191.308,6.696 L191.344,5.712 L191.344,3.528 L189.964,3.528 L189.964,12 L191.056,12 L191.176,11.376 L191.212,11.376 C191.46,11.624 191.722,11.814 191.998,11.946 C192.274,12.078 192.548,12.144 192.82,12.144 Z M192.532,11.004 C192.356,11.004 192.166,10.968 191.962,10.896 C191.758,10.824 191.552,10.696 191.344,10.512 L191.344,10.512 L191.344,7.764 C191.792,7.324 192.224,7.104 192.64,7.104 C193.088,7.104 193.412,7.268 193.612,7.596 C193.812,7.924 193.912,8.384 193.912,8.976 C193.912,9.648 193.78,10.154 193.516,10.494 C193.252,10.834 192.924,11.004 192.532,11.004 Z M198.064,12.144 C198.368,12.144 198.612,12.104 198.796,12.024 L198.796,12.024 L198.616,10.992 C198.56,11.008 198.518,11.016 198.49,11.016 L198.49,11.016 L198.4,11.016 C198.328,11.016 198.26,10.982 198.196,10.914 C198.132,10.846 198.1,10.728 198.1,10.56 L198.1,10.56 L198.1,3.528 L196.72,3.528 L196.72,10.488 C196.72,11 196.82,11.404 197.02,11.7 C197.22,11.996 197.568,12.144 198.064,12.144 Z M200.668,5.076 C200.916,5.076 201.12,5.004 201.28,4.86 C201.44,4.716 201.52,4.528 201.52,4.296 C201.52,4.064 201.44,3.874 201.28,3.726 C201.12,3.578 200.916,3.504 200.668,3.504 C200.42,3.504 200.216,3.578 200.056,3.726 C199.896,3.874 199.816,4.064 199.816,4.296 C199.816,4.528 199.896,4.716 200.056,4.86 C200.216,5.004 200.42,5.076 200.668,5.076 Z M201.352,12 L201.352,6.108 L199.972,6.108 L199.972,12 L201.352,12 Z M205.168,14.604 C205.648,14.604 206.082,14.55 206.47,14.442 C206.858,14.334 207.188,14.188 207.46,14.004 C207.732,13.82 207.942,13.6 208.09,13.344 C208.238,13.088 208.312,12.816 208.312,12.528 C208.312,12.016 208.13,11.646 207.766,11.418 C207.402,11.19 206.864,11.076 206.152,11.076 L206.152,11.076 L205.108,11.076 C204.748,11.076 204.498,11.028 204.358,10.932 C204.218,10.836 204.148,10.704 204.148,10.536 C204.148,10.4 204.174,10.292 204.226,10.212 C204.278,10.132 204.348,10.052 204.436,9.972 C204.572,10.028 204.708,10.068 204.844,10.092 C204.98,10.116 205.112,10.128 205.24,10.128 C205.552,10.128 205.844,10.084 206.116,9.996 C206.388,9.908 206.624,9.78 206.824,9.612 C207.024,9.444 207.182,9.236 207.298,8.988 C207.414,8.74 207.472,8.452 207.472,8.124 C207.472,7.916 207.44,7.726 207.376,7.554 C207.312,7.382 207.232,7.24 207.136,7.128 L207.136,7.128 L208.216,7.128 L208.216,6.108 L206.104,6.108 C205.984,6.068 205.85,6.034 205.702,6.006 C205.554,5.978 205.4,5.964 205.24,5.964 C204.928,5.964 204.632,6.01 204.352,6.102 C204.072,6.194 203.826,6.33 203.614,6.51 C203.402,6.69 203.232,6.912 203.104,7.176 C202.976,7.44 202.912,7.74 202.912,8.076 C202.912,8.428 202.99,8.738 203.146,9.006 C203.302,9.274 203.48,9.484 203.68,9.636 L203.68,9.636 L203.68,9.684 C203.512,9.804 203.362,9.958 203.23,10.146 C203.098,10.334 203.032,10.544 203.032,10.776 C203.032,11.016 203.082,11.216 203.182,11.376 C203.282,11.536 203.408,11.664 203.56,11.76 L203.56,11.76 L203.56,11.808 C203.288,11.976 203.08,12.166 202.936,12.378 C202.792,12.59 202.72,12.82 202.72,13.068 C202.72,13.324 202.782,13.548 202.906,13.74 C203.03,13.932 203.2,14.092 203.416,14.22 C203.632,14.348 203.89,14.444 204.19,14.508 C204.49,14.572 204.816,14.604 205.168,14.604 Z M205.24,9.264 C204.952,9.264 204.708,9.162 204.508,8.958 C204.308,8.754 204.208,8.46 204.208,8.076 C204.208,7.7 204.308,7.412 204.508,7.212 C204.708,7.012 204.952,6.912 205.24,6.912 C205.528,6.912 205.77,7.014 205.966,7.218 C206.162,7.422 206.26,7.708 206.26,8.076 C206.26,8.46 206.16,8.754 205.96,8.958 C205.76,9.162 205.52,9.264 205.24,9.264 Z M205.384,13.704 C204.912,13.704 204.542,13.63 204.274,13.482 C204.006,13.334 203.872,13.128 203.872,12.864 C203.872,12.576 204.024,12.316 204.328,12.084 C204.544,12.14 204.812,12.168 205.132,12.168 L205.132,12.168 L205.936,12.168 C206.272,12.168 206.53,12.208 206.71,12.288 C206.89,12.368 206.98,12.524 206.98,12.756 C206.98,13.012 206.834,13.234 206.542,13.422 C206.25,13.61 205.864,13.704 205.384,13.704 Z M210.568,12.144 C210.92,12.144 211.246,12.068 211.546,11.916 C211.846,11.764 212.128,11.576 212.392,11.352 L212.392,11.352 L212.44,11.352 L212.536,12 L213.676,12 L213.676,8.508 C213.676,7.684 213.494,7.054 213.13,6.618 C212.766,6.182 212.216,5.964 211.48,5.964 C211.008,5.964 210.568,6.04 210.16,6.192 C209.752,6.344 209.384,6.524 209.056,6.732 L209.056,6.732 L209.56,7.656 C209.824,7.496 210.094,7.36 210.37,7.248 C210.646,7.136 210.928,7.08 211.216,7.08 C211.416,7.08 211.584,7.11 211.72,7.17 C211.856,7.23 211.966,7.314 212.05,7.422 C212.134,7.53 212.194,7.654 212.23,7.794 C212.266,7.934 212.288,8.08 212.296,8.232 C211.688,8.296 211.166,8.388 210.73,8.508 C210.294,8.628 209.934,8.776 209.65,8.952 C209.366,9.128 209.158,9.338 209.026,9.582 C208.894,9.826 208.828,10.104 208.828,10.416 C208.828,10.936 208.988,11.354 209.308,11.67 C209.628,11.986 210.048,12.144 210.568,12.144 Z M211.012,11.064 C210.764,11.064 210.56,11.004 210.4,10.884 C210.24,10.764 210.16,10.572 210.16,10.308 C210.16,10.164 210.196,10.028 210.268,9.9 C210.34,9.772 210.46,9.658 210.628,9.558 C210.796,9.458 211.016,9.368 211.288,9.288 C211.56,9.208 211.896,9.144 212.296,9.096 L212.296,9.096 L212.296,10.416 C212.072,10.624 211.862,10.784 211.666,10.896 C211.47,11.008 211.252,11.064 211.012,11.064 Z M217.216,12.144 C217.448,12.144 217.666,12.122 217.87,12.078 C218.074,12.034 218.256,11.984 218.416,11.928 L218.416,11.928 L218.176,10.908 C218.088,10.948 217.99,10.98 217.882,11.004 C217.774,11.028 217.668,11.04 217.564,11.04 C217.012,11.04 216.736,10.696 216.736,10.008 L216.736,10.008 L216.736,7.2 L218.236,7.2 L218.236,6.108 L216.736,6.108 L216.736,4.5 L215.584,4.5 L215.416,6.108 L214.504,6.168 L214.504,7.2 L215.344,7.2 L215.344,10.008 C215.344,10.328 215.378,10.618 215.446,10.878 C215.514,11.138 215.622,11.362 215.77,11.55 C215.918,11.738 216.11,11.884 216.346,11.988 C216.582,12.092 216.872,12.144 217.216,12.144 Z M220.168,5.076 C220.416,5.076 220.62,5.004 220.78,4.86 C220.94,4.716 221.02,4.528 221.02,4.296 C221.02,4.064 220.94,3.874 220.78,3.726 C220.62,3.578 220.416,3.504 220.168,3.504 C219.92,3.504 219.716,3.578 219.556,3.726 C219.396,3.874 219.316,4.064 219.316,4.296 C219.316,4.528 219.396,4.716 219.556,4.86 C219.716,5.004 219.92,5.076 220.168,5.076 Z M220.852,12 L220.852,6.108 L219.472,6.108 L219.472,12 L220.852,12 Z M225.028,12.144 C225.396,12.144 225.75,12.076 226.09,11.94 C226.43,11.804 226.728,11.604 226.984,11.34 C227.24,11.076 227.446,10.752 227.602,10.368 C227.758,9.984 227.836,9.548 227.836,9.06 C227.836,8.572 227.758,8.136 227.602,7.752 C227.446,7.368 227.24,7.044 226.984,6.78 C226.728,6.516 226.43,6.314 226.09,6.174 C225.75,6.034 225.396,5.964 225.028,5.964 C224.66,5.964 224.308,6.034 223.972,6.174 C223.636,6.314 223.338,6.516 223.078,6.78 C222.818,7.044 222.612,7.368 222.46,7.752 C222.308,8.136 222.232,8.572 222.232,9.06 C222.232,9.548 222.308,9.984 222.46,10.368 C222.612,10.752 222.818,11.076 223.078,11.34 C223.338,11.604 223.636,11.804 223.972,11.94 C224.308,12.076 224.66,12.144 225.028,12.144 Z M225.028,11.016 C224.596,11.016 224.258,10.838 224.014,10.482 C223.77,10.126 223.648,9.652 223.648,9.06 C223.648,8.46 223.77,7.982 224.014,7.626 C224.258,7.27 224.596,7.092 225.028,7.092 C225.46,7.092 225.8,7.27 226.048,7.626 C226.296,7.982 226.42,8.46 226.42,9.06 C226.42,9.652 226.296,10.126 226.048,10.482 C225.8,10.838 225.46,11.016 225.028,11.016 Z M230.584,12 L230.584,7.884 C230.832,7.644 231.054,7.462 231.25,7.338 C231.446,7.214 231.672,7.152 231.928,7.152 C232.256,7.152 232.492,7.252 232.636,7.452 C232.78,7.652 232.852,7.996 232.852,8.484 L232.852,8.484 L232.852,12 L234.232,12 L234.232,8.304 C234.232,7.552 234.088,6.974 233.8,6.57 C233.512,6.166 233.052,5.964 232.42,5.964 C232.012,5.964 231.654,6.056 231.346,6.24 C231.038,6.424 230.752,6.644 230.488,6.9 L230.488,6.9 L230.44,6.9 L230.344,6.108 L229.204,6.108 L229.204,12 L230.584,12 Z M237.568,12.144 C237.936,12.144 238.264,12.096 238.552,12 C238.84,11.904 239.08,11.774 239.272,11.61 C239.464,11.446 239.61,11.254 239.71,11.034 C239.81,10.814 239.86,10.576 239.86,10.32 C239.86,10.048 239.81,9.814 239.71,9.618 C239.61,9.422 239.478,9.256 239.314,9.12 C239.15,8.984 238.968,8.87 238.768,8.778 C238.568,8.686 238.368,8.604 238.168,8.532 C238.008,8.476 237.854,8.42 237.706,8.364 C237.558,8.308 237.428,8.248 237.316,8.184 C237.204,8.12 237.114,8.046 237.046,7.962 C236.978,7.878 236.944,7.776 236.944,7.656 C236.944,7.472 237.014,7.318 237.154,7.194 C237.294,7.07 237.512,7.008 237.808,7.008 C238.04,7.008 238.262,7.054 238.474,7.146 C238.686,7.238 238.896,7.36 239.104,7.512 L239.104,7.512 L239.74,6.672 C239.5,6.488 239.216,6.324 238.888,6.18 C238.56,6.036 238.192,5.964 237.784,5.964 C237.12,5.964 236.596,6.128 236.212,6.456 C235.828,6.784 235.636,7.208 235.636,7.728 C235.636,7.976 235.686,8.19 235.786,8.37 C235.886,8.55 236.014,8.708 236.17,8.844 C236.326,8.98 236.504,9.096 236.704,9.192 C236.904,9.288 237.1,9.372 237.292,9.444 C237.444,9.508 237.596,9.57 237.748,9.63 C237.9,9.69 238.036,9.756 238.156,9.828 C238.276,9.9 238.372,9.982 238.444,10.074 C238.516,10.166 238.552,10.272 238.552,10.392 C238.552,10.6 238.476,10.77 238.324,10.902 C238.172,11.034 237.936,11.1 237.616,11.1 C237.312,11.1 237.03,11.042 236.77,10.926 C236.51,10.81 236.248,10.648 235.984,10.44 L235.984,10.44 L235.336,11.328 C235.624,11.56 235.966,11.754 236.362,11.91 C236.758,12.066 237.16,12.144 237.568,12.144 Z M184.384,28.32 L184.384,27.108 C184.96,27.028 185.414,26.804 185.746,26.436 C186.078,26.068 186.244,25.596 186.244,25.02 C186.244,24.588 186.162,24.234 185.998,23.958 C185.834,23.682 185.628,23.45 185.38,23.262 C185.132,23.074 184.862,22.914 184.57,22.782 C184.278,22.65 184.008,22.514 183.76,22.374 C183.512,22.234 183.306,22.072 183.142,21.888 C182.978,21.704 182.896,21.468 182.896,21.18 C182.896,20.828 183.004,20.548 183.22,20.34 C183.436,20.132 183.728,20.028 184.096,20.028 C184.424,20.028 184.694,20.088 184.906,20.208 C185.118,20.328 185.336,20.496 185.56,20.712 L185.56,20.712 L186.088,20.124 C185.872,19.892 185.63,19.692 185.362,19.524 C185.094,19.356 184.768,19.252 184.384,19.212 L184.384,19.212 L184.384,18.024 L183.664,18.024 L183.664,19.236 C183.136,19.316 182.714,19.534 182.398,19.89 C182.082,20.246 181.924,20.692 181.924,21.228 C181.924,21.62 182.006,21.942 182.17,22.194 C182.334,22.446 182.54,22.66 182.788,22.836 C183.036,23.012 183.306,23.168 183.598,23.304 C183.89,23.44 184.16,23.586 184.408,23.742 C184.656,23.898 184.862,24.082 185.026,24.294 C185.19,24.506 185.272,24.772 185.272,25.092 C185.272,25.468 185.162,25.768 184.942,25.992 C184.722,26.216 184.388,26.328 183.94,26.328 C183.572,26.328 183.234,26.25 182.926,26.094 C182.618,25.938 182.336,25.748 182.08,25.524 L182.08,25.524 L181.624,26.208 C181.88,26.44 182.188,26.642 182.548,26.814 C182.908,26.986 183.28,27.092 183.664,27.132 L183.664,27.132 L183.664,28.32 L184.384,28.32 Z M192.388,27 L192.388,26.148 L190.168,26.148 C189.968,26.148 189.756,26.156 189.532,26.172 C189.308,26.188 189.092,26.204 188.884,26.22 C189.34,25.748 189.758,25.302 190.138,24.882 C190.518,24.462 190.846,24.058 191.122,23.67 C191.398,23.282 191.614,22.906 191.77,22.542 C191.926,22.178 192.004,21.816 192.004,21.456 C192.004,20.776 191.8,20.23 191.392,19.818 C190.984,19.406 190.424,19.2 189.712,19.2 C189.208,19.2 188.776,19.306 188.416,19.518 C188.056,19.73 187.716,20.012 187.396,20.364 L187.396,20.364 L187.96,20.928 C188.184,20.672 188.432,20.454 188.704,20.274 C188.976,20.094 189.272,20.004 189.592,20.004 C190.08,20.004 190.444,20.144 190.684,20.424 C190.924,20.704 191.044,21.064 191.044,21.504 C191.044,21.816 190.964,22.138 190.804,22.47 C190.644,22.802 190.412,23.166 190.108,23.562 C189.804,23.958 189.428,24.388 188.98,24.852 C188.532,25.316 188.02,25.836 187.444,26.412 L187.444,26.412 L187.444,27 L192.388,27 Z M196.072,27 C196.104,26.256 196.158,25.578 196.234,24.966 C196.31,24.354 196.432,23.774 196.6,23.226 C196.768,22.678 196.994,22.14 197.278,21.612 C197.562,21.084 197.932,20.532 198.388,19.956 L198.388,19.956 L198.388,19.344 L193.456,19.344 L193.456,20.196 L197.272,20.196 C196.896,20.724 196.574,21.24 196.306,21.744 C196.038,22.248 195.818,22.77 195.646,23.31 C195.474,23.85 195.34,24.42 195.244,25.02 C195.148,25.62 195.084,26.28 195.052,27 L195.052,27 L196.072,27 Z M202.036,27 C202.068,26.256 202.122,25.578 202.198,24.966 C202.274,24.354 202.396,23.774 202.564,23.226 C202.732,22.678 202.958,22.14 203.242,21.612 C203.526,21.084 203.896,20.532 204.352,19.956 L204.352,19.956 L204.352,19.344 L199.42,19.344 L199.42,20.196 L203.236,20.196 C202.86,20.724 202.538,21.24 202.27,21.744 C202.002,22.248 201.782,22.77 201.61,23.31 C201.438,23.85 201.304,24.42 201.208,25.02 C201.112,25.62 201.048,26.28 201.016,27 L201.016,27 L202.036,27 Z M208.444,27 C208.884,27 209.288,26.952 209.656,26.856 C210.024,26.76 210.34,26.616 210.604,26.424 C210.868,26.232 211.072,25.992 211.216,25.704 C211.36,25.416 211.432,25.08 211.432,24.696 C211.432,24.152 211.284,23.724 210.988,23.412 C210.692,23.1 210.304,22.9 209.824,22.812 L209.824,22.812 L209.824,22.764 C210.2,22.644 210.486,22.426 210.682,22.11 C210.878,21.794 210.976,21.44 210.976,21.048 C210.976,20.704 210.91,20.41 210.778,20.166 C210.646,19.922 210.462,19.724 210.226,19.572 C209.99,19.42 209.706,19.308 209.374,19.236 C209.042,19.164 208.676,19.128 208.276,19.128 L208.276,19.128 L205.936,19.128 L205.936,27 L208.444,27 Z M208.096,22.476 L206.932,22.476 L206.932,19.92 L208.144,19.92 C208.76,19.92 209.222,20.016 209.53,20.208 C209.838,20.4 209.992,20.724 209.992,21.18 C209.992,21.58 209.844,21.896 209.548,22.128 C209.252,22.36 208.768,22.476 208.096,22.476 L208.096,22.476 Z M208.3,26.208 L206.932,26.208 L206.932,23.244 L208.3,23.244 C208.996,23.244 209.528,23.358 209.896,23.586 C210.264,23.814 210.448,24.172 210.448,24.66 C210.448,25.188 210.26,25.578 209.884,25.83 C209.508,26.082 208.98,26.208 208.3,26.208 L208.3,26.208 Z" id="Obligations$277B" fill="#666666" fill-rule="nonzero"></path>
                <path d="M263.936,12.144 C264.392,12.144 264.802,12.078 265.166,11.946 C265.53,11.814 265.842,11.604 266.102,11.316 C266.362,11.028 266.56,10.658 266.696,10.206 C266.832,9.754 266.9,9.204 266.9,8.556 L266.9,8.556 L266.9,4.152 L265.568,4.152 L265.568,8.664 C265.568,9.088 265.528,9.446 265.448,9.738 C265.368,10.03 265.256,10.264 265.112,10.44 C264.968,10.616 264.796,10.742 264.596,10.818 C264.396,10.894 264.176,10.932 263.936,10.932 C263.696,10.932 263.48,10.894 263.288,10.818 C263.096,10.742 262.93,10.616 262.79,10.44 C262.65,10.264 262.542,10.03 262.466,9.738 C262.39,9.446 262.352,9.088 262.352,8.664 L262.352,8.664 L262.352,4.152 L260.96,4.152 L260.96,8.556 C260.96,9.204 261.03,9.754 261.17,10.206 C261.31,10.658 261.51,11.028 261.77,11.316 C262.03,11.604 262.342,11.814 262.706,11.946 C263.07,12.078 263.48,12.144 263.936,12.144 Z M270.116,12 L270.116,7.884 C270.364,7.644 270.586,7.462 270.782,7.338 C270.978,7.214 271.204,7.152 271.46,7.152 C271.788,7.152 272.024,7.252 272.168,7.452 C272.312,7.652 272.384,7.996 272.384,8.484 L272.384,8.484 L272.384,12 L273.764,12 L273.764,8.304 C273.764,7.552 273.62,6.974 273.332,6.57 C273.044,6.166 272.584,5.964 271.952,5.964 C271.544,5.964 271.186,6.056 270.878,6.24 C270.57,6.424 270.284,6.644 270.02,6.9 L270.02,6.9 L269.972,6.9 L269.876,6.108 L268.736,6.108 L268.736,12 L270.116,12 Z M277.868,12.144 C278.236,12.144 278.59,12.076 278.93,11.94 C279.27,11.804 279.568,11.604 279.824,11.34 C280.08,11.076 280.286,10.752 280.442,10.368 C280.598,9.984 280.676,9.548 280.676,9.06 C280.676,8.572 280.598,8.136 280.442,7.752 C280.286,7.368 280.08,7.044 279.824,6.78 C279.568,6.516 279.27,6.314 278.93,6.174 C278.59,6.034 278.236,5.964 277.868,5.964 C277.5,5.964 277.148,6.034 276.812,6.174 C276.476,6.314 276.178,6.516 275.918,6.78 C275.658,7.044 275.452,7.368 275.3,7.752 C275.148,8.136 275.072,8.572 275.072,9.06 C275.072,9.548 275.148,9.984 275.3,10.368 C275.452,10.752 275.658,11.076 275.918,11.34 C276.178,11.604 276.476,11.804 276.812,11.94 C277.148,12.076 277.5,12.144 277.868,12.144 Z M277.868,11.016 C277.436,11.016 277.098,10.838 276.854,10.482 C276.61,10.126 276.488,9.652 276.488,9.06 C276.488,8.46 276.61,7.982 276.854,7.626 C277.098,7.27 277.436,7.092 277.868,7.092 C278.3,7.092 278.64,7.27 278.888,7.626 C279.136,7.982 279.26,8.46 279.26,9.06 C279.26,9.652 279.136,10.126 278.888,10.482 C278.64,10.838 278.3,11.016 277.868,11.016 Z M284.9,12.144 C285.228,12.144 285.544,12.072 285.848,11.928 C286.152,11.784 286.42,11.576 286.652,11.304 C286.884,11.032 287.07,10.698 287.21,10.302 C287.35,9.906 287.42,9.456 287.42,8.952 C287.42,8.496 287.368,8.084 287.264,7.716 C287.16,7.348 287.008,7.034 286.808,6.774 C286.608,6.514 286.364,6.314 286.076,6.174 C285.788,6.034 285.46,5.964 285.092,5.964 C284.788,5.964 284.49,6.032 284.198,6.168 C283.906,6.304 283.636,6.48 283.388,6.696 L283.388,6.696 L283.424,5.712 L283.424,3.528 L282.044,3.528 L282.044,12 L283.136,12 L283.256,11.376 L283.292,11.376 C283.54,11.624 283.802,11.814 284.078,11.946 C284.354,12.078 284.628,12.144 284.9,12.144 Z M284.612,11.004 C284.436,11.004 284.246,10.968 284.042,10.896 C283.838,10.824 283.632,10.696 283.424,10.512 L283.424,10.512 L283.424,7.764 C283.872,7.324 284.304,7.104 284.72,7.104 C285.168,7.104 285.492,7.268 285.692,7.596 C285.892,7.924 285.992,8.384 285.992,8.976 C285.992,9.648 285.86,10.154 285.596,10.494 C285.332,10.834 285.004,11.004 284.612,11.004 Z M290.144,12.144 C290.448,12.144 290.692,12.104 290.876,12.024 L290.876,12.024 L290.696,10.992 C290.64,11.008 290.598,11.016 290.57,11.016 L290.57,11.016 L290.48,11.016 C290.408,11.016 290.34,10.982 290.276,10.914 C290.212,10.846 290.18,10.728 290.18,10.56 L290.18,10.56 L290.18,3.528 L288.8,3.528 L288.8,10.488 C288.8,11 288.9,11.404 289.1,11.7 C289.3,11.996 289.648,12.144 290.144,12.144 Z M292.748,5.076 C292.996,5.076 293.2,5.004 293.36,4.86 C293.52,4.716 293.6,4.528 293.6,4.296 C293.6,4.064 293.52,3.874 293.36,3.726 C293.2,3.578 292.996,3.504 292.748,3.504 C292.5,3.504 292.296,3.578 292.136,3.726 C291.976,3.874 291.896,4.064 291.896,4.296 C291.896,4.528 291.976,4.716 292.136,4.86 C292.296,5.004 292.5,5.076 292.748,5.076 Z M293.432,12 L293.432,6.108 L292.052,6.108 L292.052,12 L293.432,12 Z M297.248,14.604 C297.728,14.604 298.162,14.55 298.55,14.442 C298.938,14.334 299.268,14.188 299.54,14.004 C299.812,13.82 300.022,13.6 300.17,13.344 C300.318,13.088 300.392,12.816 300.392,12.528 C300.392,12.016 300.21,11.646 299.846,11.418 C299.482,11.19 298.944,11.076 298.232,11.076 L298.232,11.076 L297.188,11.076 C296.828,11.076 296.578,11.028 296.438,10.932 C296.298,10.836 296.228,10.704 296.228,10.536 C296.228,10.4 296.254,10.292 296.306,10.212 C296.358,10.132 296.428,10.052 296.516,9.972 C296.652,10.028 296.788,10.068 296.924,10.092 C297.06,10.116 297.192,10.128 297.32,10.128 C297.632,10.128 297.924,10.084 298.196,9.996 C298.468,9.908 298.704,9.78 298.904,9.612 C299.104,9.444 299.262,9.236 299.378,8.988 C299.494,8.74 299.552,8.452 299.552,8.124 C299.552,7.916 299.52,7.726 299.456,7.554 C299.392,7.382 299.312,7.24 299.216,7.128 L299.216,7.128 L300.296,7.128 L300.296,6.108 L298.184,6.108 C298.064,6.068 297.93,6.034 297.782,6.006 C297.634,5.978 297.48,5.964 297.32,5.964 C297.008,5.964 296.712,6.01 296.432,6.102 C296.152,6.194 295.906,6.33 295.694,6.51 C295.482,6.69 295.312,6.912 295.184,7.176 C295.056,7.44 294.992,7.74 294.992,8.076 C294.992,8.428 295.07,8.738 295.226,9.006 C295.382,9.274 295.56,9.484 295.76,9.636 L295.76,9.636 L295.76,9.684 C295.592,9.804 295.442,9.958 295.31,10.146 C295.178,10.334 295.112,10.544 295.112,10.776 C295.112,11.016 295.162,11.216 295.262,11.376 C295.362,11.536 295.488,11.664 295.64,11.76 L295.64,11.76 L295.64,11.808 C295.368,11.976 295.16,12.166 295.016,12.378 C294.872,12.59 294.8,12.82 294.8,13.068 C294.8,13.324 294.862,13.548 294.986,13.74 C295.11,13.932 295.28,14.092 295.496,14.22 C295.712,14.348 295.97,14.444 296.27,14.508 C296.57,14.572 296.896,14.604 297.248,14.604 Z M297.32,9.264 C297.032,9.264 296.788,9.162 296.588,8.958 C296.388,8.754 296.288,8.46 296.288,8.076 C296.288,7.7 296.388,7.412 296.588,7.212 C296.788,7.012 297.032,6.912 297.32,6.912 C297.608,6.912 297.85,7.014 298.046,7.218 C298.242,7.422 298.34,7.708 298.34,8.076 C298.34,8.46 298.24,8.754 298.04,8.958 C297.84,9.162 297.6,9.264 297.32,9.264 Z M297.464,13.704 C296.992,13.704 296.622,13.63 296.354,13.482 C296.086,13.334 295.952,13.128 295.952,12.864 C295.952,12.576 296.104,12.316 296.408,12.084 C296.624,12.14 296.892,12.168 297.212,12.168 L297.212,12.168 L298.016,12.168 C298.352,12.168 298.61,12.208 298.79,12.288 C298.97,12.368 299.06,12.524 299.06,12.756 C299.06,13.012 298.914,13.234 298.622,13.422 C298.33,13.61 297.944,13.704 297.464,13.704 Z M302.648,12.144 C303,12.144 303.326,12.068 303.626,11.916 C303.926,11.764 304.208,11.576 304.472,11.352 L304.472,11.352 L304.52,11.352 L304.616,12 L305.756,12 L305.756,8.508 C305.756,7.684 305.574,7.054 305.21,6.618 C304.846,6.182 304.296,5.964 303.56,5.964 C303.088,5.964 302.648,6.04 302.24,6.192 C301.832,6.344 301.464,6.524 301.136,6.732 L301.136,6.732 L301.64,7.656 C301.904,7.496 302.174,7.36 302.45,7.248 C302.726,7.136 303.008,7.08 303.296,7.08 C303.496,7.08 303.664,7.11 303.8,7.17 C303.936,7.23 304.046,7.314 304.13,7.422 C304.214,7.53 304.274,7.654 304.31,7.794 C304.346,7.934 304.368,8.08 304.376,8.232 C303.768,8.296 303.246,8.388 302.81,8.508 C302.374,8.628 302.014,8.776 301.73,8.952 C301.446,9.128 301.238,9.338 301.106,9.582 C300.974,9.826 300.908,10.104 300.908,10.416 C300.908,10.936 301.068,11.354 301.388,11.67 C301.708,11.986 302.128,12.144 302.648,12.144 Z M303.092,11.064 C302.844,11.064 302.64,11.004 302.48,10.884 C302.32,10.764 302.24,10.572 302.24,10.308 C302.24,10.164 302.276,10.028 302.348,9.9 C302.42,9.772 302.54,9.658 302.708,9.558 C302.876,9.458 303.096,9.368 303.368,9.288 C303.64,9.208 303.976,9.144 304.376,9.096 L304.376,9.096 L304.376,10.416 C304.152,10.624 303.942,10.784 303.746,10.896 C303.55,11.008 303.332,11.064 303.092,11.064 Z M309.296,12.144 C309.528,12.144 309.746,12.122 309.95,12.078 C310.154,12.034 310.336,11.984 310.496,11.928 L310.496,11.928 L310.256,10.908 C310.168,10.948 310.07,10.98 309.962,11.004 C309.854,11.028 309.748,11.04 309.644,11.04 C309.092,11.04 308.816,10.696 308.816,10.008 L308.816,10.008 L308.816,7.2 L310.316,7.2 L310.316,6.108 L308.816,6.108 L308.816,4.5 L307.664,4.5 L307.496,6.108 L306.584,6.168 L306.584,7.2 L307.424,7.2 L307.424,10.008 C307.424,10.328 307.458,10.618 307.526,10.878 C307.594,11.138 307.702,11.362 307.85,11.55 C307.998,11.738 308.19,11.884 308.426,11.988 C308.662,12.092 308.952,12.144 309.296,12.144 Z M313.88,12.144 C314.256,12.144 314.616,12.084 314.96,11.964 C315.304,11.844 315.616,11.692 315.896,11.508 L315.896,11.508 L315.428,10.644 C315.212,10.78 314.994,10.886 314.774,10.962 C314.554,11.038 314.316,11.076 314.06,11.076 C313.58,11.076 313.186,10.934 312.878,10.65 C312.57,10.366 312.384,9.96 312.32,9.432 L312.32,9.432 L316.064,9.432 C316.08,9.36 316.094,9.264 316.106,9.144 C316.118,9.024 316.124,8.896 316.124,8.76 C316.124,8.352 316.072,7.976 315.968,7.632 C315.864,7.288 315.71,6.992 315.506,6.744 C315.302,6.496 315.048,6.304 314.744,6.168 C314.44,6.032 314.088,5.964 313.688,5.964 C313.344,5.964 313.008,6.036 312.68,6.18 C312.352,6.324 312.062,6.528 311.81,6.792 C311.558,7.056 311.356,7.38 311.204,7.764 C311.052,8.148 310.976,8.58 310.976,9.06 C310.976,9.548 311.05,9.982 311.198,10.362 C311.346,10.742 311.552,11.064 311.816,11.328 C312.08,11.592 312.388,11.794 312.74,11.934 C313.092,12.074 313.472,12.144 313.88,12.144 Z M314.924,8.496 L312.308,8.496 C312.372,8.016 312.536,7.652 312.8,7.404 C313.064,7.156 313.372,7.032 313.724,7.032 C314.132,7.032 314.434,7.162 314.63,7.422 C314.826,7.682 314.924,8.04 314.924,8.496 L314.924,8.496 Z M319.508,12.144 C319.828,12.144 320.132,12.068 320.42,11.916 C320.708,11.764 320.96,11.58 321.176,11.364 L321.176,11.364 L321.224,11.364 L321.32,12 L322.46,12 L322.46,3.528 L321.08,3.528 L321.08,5.664 L321.128,6.612 C320.896,6.412 320.664,6.254 320.432,6.138 C320.2,6.022 319.916,5.964 319.58,5.964 C319.26,5.964 318.95,6.036 318.65,6.18 C318.35,6.324 318.084,6.528 317.852,6.792 C317.62,7.056 317.434,7.38 317.294,7.764 C317.154,8.148 317.084,8.58 317.084,9.06 C317.084,10.036 317.302,10.794 317.738,11.334 C318.174,11.874 318.764,12.144 319.508,12.144 Z M319.844,11.004 C319.412,11.004 319.082,10.838 318.854,10.506 C318.626,10.174 318.512,9.688 318.512,9.048 C318.512,8.424 318.644,7.944 318.908,7.608 C319.172,7.272 319.496,7.104 319.88,7.104 C320.08,7.104 320.278,7.14 320.474,7.212 C320.67,7.284 320.872,7.412 321.08,7.596 L321.08,7.596 L321.08,10.344 C320.696,10.784 320.284,11.004 319.844,11.004 Z M263.384,28.32 L263.384,27.108 C263.96,27.028 264.414,26.804 264.746,26.436 C265.078,26.068 265.244,25.596 265.244,25.02 C265.244,24.588 265.162,24.234 264.998,23.958 C264.834,23.682 264.628,23.45 264.38,23.262 C264.132,23.074 263.862,22.914 263.57,22.782 C263.278,22.65 263.008,22.514 262.76,22.374 C262.512,22.234 262.306,22.072 262.142,21.888 C261.978,21.704 261.896,21.468 261.896,21.18 C261.896,20.828 262.004,20.548 262.22,20.34 C262.436,20.132 262.728,20.028 263.096,20.028 C263.424,20.028 263.694,20.088 263.906,20.208 C264.118,20.328 264.336,20.496 264.56,20.712 L264.56,20.712 L265.088,20.124 C264.872,19.892 264.63,19.692 264.362,19.524 C264.094,19.356 263.768,19.252 263.384,19.212 L263.384,19.212 L263.384,18.024 L262.664,18.024 L262.664,19.236 C262.136,19.316 261.714,19.534 261.398,19.89 C261.082,20.246 260.924,20.692 260.924,21.228 C260.924,21.62 261.006,21.942 261.17,22.194 C261.334,22.446 261.54,22.66 261.788,22.836 C262.036,23.012 262.306,23.168 262.598,23.304 C262.89,23.44 263.16,23.586 263.408,23.742 C263.656,23.898 263.862,24.082 264.026,24.294 C264.19,24.506 264.272,24.772 264.272,25.092 C264.272,25.468 264.162,25.768 263.942,25.992 C263.722,26.216 263.388,26.328 262.94,26.328 C262.572,26.328 262.234,26.25 261.926,26.094 C261.618,25.938 261.336,25.748 261.08,25.524 L261.08,25.524 L260.624,26.208 C260.88,26.44 261.188,26.642 261.548,26.814 C261.908,26.986 262.28,27.092 262.664,27.132 L262.664,27.132 L262.664,28.32 L263.384,28.32 Z M268.424,27.144 C268.808,27.144 269.174,27.066 269.522,26.91 C269.87,26.754 270.18,26.506 270.452,26.166 C270.724,25.826 270.94,25.386 271.1,24.846 C271.26,24.306 271.34,23.652 271.34,22.884 C271.34,22.268 271.274,21.73 271.142,21.27 C271.01,20.81 270.826,20.426 270.59,20.118 C270.354,19.81 270.074,19.58 269.75,19.428 C269.426,19.276 269.076,19.2 268.7,19.2 C268.396,19.2 268.106,19.26 267.83,19.38 C267.554,19.5 267.314,19.668 267.11,19.884 C266.906,20.1 266.744,20.358 266.624,20.658 C266.504,20.958 266.444,21.292 266.444,21.66 C266.444,22.452 266.64,23.044 267.032,23.436 C267.424,23.828 267.952,24.024 268.616,24.024 C268.936,24.024 269.256,23.936 269.576,23.76 C269.896,23.584 270.176,23.344 270.416,23.04 C270.408,23.656 270.348,24.172 270.236,24.588 C270.124,25.004 269.976,25.342 269.792,25.602 C269.608,25.862 269.396,26.048 269.156,26.16 C268.916,26.272 268.66,26.328 268.388,26.328 C268.148,26.328 267.918,26.272 267.698,26.16 C267.478,26.048 267.288,25.9 267.128,25.716 L267.128,25.716 L266.576,26.34 C266.784,26.572 267.042,26.764 267.35,26.916 C267.658,27.068 268.016,27.144 268.424,27.144 Z M268.784,23.28 C268.304,23.28 267.948,23.136 267.716,22.848 C267.484,22.56 267.368,22.164 267.368,21.66 C267.368,21.412 267.402,21.184 267.47,20.976 C267.538,20.768 267.632,20.59 267.752,20.442 C267.872,20.294 268.014,20.18 268.178,20.1 C268.342,20.02 268.516,19.98 268.7,19.98 C269.188,19.98 269.576,20.172 269.864,20.556 C270.152,20.94 270.328,21.508 270.392,22.26 C270.144,22.62 269.878,22.88 269.594,23.04 C269.31,23.2 269.04,23.28 268.784,23.28 Z M276.512,27 L276.512,24.888 L277.556,24.888 L277.556,24.096 L276.512,24.096 L276.512,19.344 L275.408,19.344 L272.132,24.24 L272.132,24.888 L275.576,24.888 L275.576,27 L276.512,27 Z M275.576,24.096 L273.176,24.096 L274.964,21.48 C275.076,21.296 275.184,21.116 275.288,20.94 C275.392,20.764 275.492,20.584 275.588,20.4 L275.588,20.4 L275.636,20.4 C275.62,20.608 275.606,20.854 275.594,21.138 C275.582,21.422 275.576,21.668 275.576,21.876 L275.576,21.876 L275.576,24.096 Z M281.48,27 C281.92,27 282.324,26.952 282.692,26.856 C283.06,26.76 283.376,26.616 283.64,26.424 C283.904,26.232 284.108,25.992 284.252,25.704 C284.396,25.416 284.468,25.08 284.468,24.696 C284.468,24.152 284.32,23.724 284.024,23.412 C283.728,23.1 283.34,22.9 282.86,22.812 L282.86,22.812 L282.86,22.764 C283.236,22.644 283.522,22.426 283.718,22.11 C283.914,21.794 284.012,21.44 284.012,21.048 C284.012,20.704 283.946,20.41 283.814,20.166 C283.682,19.922 283.498,19.724 283.262,19.572 C283.026,19.42 282.742,19.308 282.41,19.236 C282.078,19.164 281.712,19.128 281.312,19.128 L281.312,19.128 L278.972,19.128 L278.972,27 L281.48,27 Z M281.132,22.476 L279.968,22.476 L279.968,19.92 L281.18,19.92 C281.796,19.92 282.258,20.016 282.566,20.208 C282.874,20.4 283.028,20.724 283.028,21.18 C283.028,21.58 282.88,21.896 282.584,22.128 C282.288,22.36 281.804,22.476 281.132,22.476 L281.132,22.476 Z M281.336,26.208 L279.968,26.208 L279.968,23.244 L281.336,23.244 C282.032,23.244 282.564,23.358 282.932,23.586 C283.3,23.814 283.484,24.172 283.484,24.66 C283.484,25.188 283.296,25.578 282.92,25.83 C282.544,26.082 282.016,26.208 281.336,26.208 L281.336,26.208 Z" id="Unobligated$94B" fill="#666666" fill-rule="nonzero"></path>
                <path d="M107,0 L101,0 C99.8954305,2.02906125e-16 99,0.8954305 99,2 L99,28 C99,29.1045695 99.8954305,30 101,30 L107,30 L107,30" id="Line-2" stroke="#C6C6C6" stroke-linecap="round"></path>
                <line x1="98.5" y1="16.5" x2="92.5" y2="16.5" id="Line-4" stroke="#C6C6C6" stroke-linecap="round"></line>
                <rect id="unobligated" fill="#F3E9FF" x="28" y="0" width="7" height="30"></rect>
                <rect id="obligated" fill="#6F41A7" x="27" y="0" width="1" height="30"></rect>
                <rect id="outlay" fill="#331E4D" x="0" y="0" width="27" height="30"></rect>
                <path d="M47.368,21.54 L47.368,20.084 C48.096,19.9253333 48.642,19.6056667 49.006,19.125 C49.37,18.6443333 49.552,18.068 49.552,17.396 C49.552,16.948 49.461,16.5723333 49.279,16.269 C49.097,15.9656667 48.8683333,15.7066667 48.593,15.492 C48.3176667,15.2773333 48.0213333,15.0953333 47.704,14.946 C47.3866667,14.7966667 47.0903333,14.652 46.815,14.512 C46.5396667,14.372 46.311,14.225 46.129,14.071 C45.947,13.917 45.856,13.728 45.856,13.504 C45.856,13.1866667 45.9446667,12.958 46.122,12.818 C46.2993333,12.678 46.556,12.608 46.892,12.608 C47.1906667,12.608 47.4566667,12.6663333 47.69,12.783 C47.9233333,12.8996667 48.166,13.0746667 48.418,13.308 L48.418,13.308 L49.454,12.132 C49.1833333,11.8426667 48.88,11.5953333 48.544,11.39 C48.208,11.1846667 47.816,11.0493333 47.368,10.984 L47.368,10.984 L47.368,9.57 L46.01,9.57 L46.01,11.012 C45.3473333,11.1426667 44.827,11.4343333 44.449,11.887 C44.071,12.3396667 43.882,12.9113333 43.882,13.602 C43.882,14.022 43.973,14.3766667 44.155,14.666 C44.337,14.9553333 44.5656667,15.2073333 44.841,15.422 C45.1163333,15.6366667 45.4126667,15.821 45.73,15.975 C46.0473333,16.129 46.3436667,16.283 46.619,16.437 C46.8943333,16.591 47.123,16.752 47.305,16.92 C47.487,17.088 47.578,17.2933333 47.578,17.536 C47.578,17.8626667 47.487,18.1053333 47.305,18.264 C47.123,18.4226667 46.836,18.502 46.444,18.502 C46.108,18.502 45.779,18.4343333 45.457,18.299 C45.135,18.1636667 44.7966667,17.9606667 44.442,17.69 L44.442,17.69 L43.546,19.076 C43.8726667,19.3746667 44.2623333,19.615 44.715,19.797 C45.1676667,19.979 45.5993333,20.0933333 46.01,20.14 L46.01,20.14 L46.01,21.54 L47.368,21.54 Z M53.794,20.168 C54.242,20.168 54.6666667,20.1096667 55.068,19.993 C55.4693333,19.8763333 55.8193333,19.7083333 56.118,19.489 C56.4166667,19.2696667 56.6546667,18.999 56.832,18.677 C57.0093333,18.355 57.098,17.9886667 57.098,17.578 C57.098,16.9993333 56.9323333,16.5303333 56.601,16.171 C56.2696667,15.8116667 55.8473333,15.5573333 55.334,15.408 L55.334,15.408 L55.334,15.352 C55.81,15.1466667 56.1763333,14.883 56.433,14.561 C56.6896667,14.239 56.818,13.8446667 56.818,13.378 C56.818,12.986 56.7433333,12.6406667 56.594,12.342 C56.4446667,12.0433333 56.237,11.789 55.971,11.579 C55.705,11.369 55.383,11.2103333 55.005,11.103 C54.627,10.9956667 54.2093333,10.942 53.752,10.942 C53.2013333,10.942 52.6996667,11.0423333 52.247,11.243 C51.7943333,11.4436667 51.3626667,11.7213333 50.952,12.076 L50.952,12.076 L51.988,13.336 C52.268,13.0933333 52.5363333,12.902 52.793,12.762 C53.0496667,12.622 53.3366667,12.552 53.654,12.552 C54.0086667,12.552 54.2793333,12.6383333 54.466,12.811 C54.6526667,12.9836667 54.746,13.224 54.746,13.532 C54.746,13.7093333 54.711,13.8703333 54.641,14.015 C54.571,14.1596667 54.4543333,14.2856667 54.291,14.393 C54.1276667,14.5003333 53.913,14.582 53.647,14.638 C53.381,14.694 53.0473333,14.722 52.646,14.722 L52.646,14.722 L52.646,16.178 C53.1313333,16.178 53.528,16.2083333 53.836,16.269 C54.144,16.3296667 54.3866667,16.4136667 54.564,16.521 C54.7413333,16.6283333 54.865,16.7613333 54.935,16.92 C55.005,17.0786667 55.04,17.256 55.04,17.452 C55.04,17.788 54.9093333,18.047 54.648,18.229 C54.3866667,18.411 54.0366667,18.502 53.598,18.502 C53.2153333,18.502 52.863,18.418 52.541,18.25 C52.219,18.082 51.9226667,17.8673333 51.652,17.606 L51.652,17.606 L50.7,18.908 C51.0266667,19.2906667 51.442,19.5963333 51.946,19.825 C52.45,20.0536667 53.066,20.168 53.794,20.168 Z M62.082,20 C62.1193333,19.132 62.1753333,18.3643333 62.25,17.697 C62.3246667,17.0296667 62.4483333,16.4043333 62.621,15.821 C62.7936667,15.2376667 63.0363333,14.673 63.349,14.127 C63.6616667,13.581 64.0746667,12.9953333 64.588,12.37 L64.588,12.37 L64.588,11.11 L58.4,11.11 L58.4,12.846 L62.39,12.846 C61.97,13.4246667 61.6176667,13.9846667 61.333,14.526 C61.0483333,15.0673333 60.815,15.6203333 60.633,16.185 C60.451,16.7496667 60.311,17.3423333 60.213,17.963 C60.115,18.5836667 60.0473333,19.2626667 60.01,20 L60.01,20 L62.082,20 Z M71.812,20 L71.812,18.334 L70.146,18.334 L70.146,11.11 L68.634,11.11 C68.3166667,11.2966667 67.99,11.4553333 67.654,11.586 C67.318,11.7166667 66.9073333,11.8286667 66.422,11.922 L66.422,11.922 L66.422,13.196 L68.088,13.196 L68.088,18.334 L66.156,18.334 L66.156,20 L71.812,20 Z M77.034,20 C77.5286667,20 77.9906667,19.9463333 78.42,19.839 C78.8493333,19.7316667 79.225,19.5683333 79.547,19.349 C79.869,19.1296667 80.121,18.852 80.303,18.516 C80.485,18.18 80.576,17.7786667 80.576,17.312 C80.576,17.004 80.534,16.731 80.45,16.493 C80.366,16.255 80.2493333,16.0473333 80.1,15.87 C79.9506667,15.6926667 79.778,15.5456667 79.582,15.429 C79.386,15.3123333 79.1713333,15.226 78.938,15.17 L78.938,15.17 L78.938,15.114 C79.1246667,15.0486667 79.2903333,14.946 79.435,14.806 C79.5796667,14.666 79.7033333,14.5073333 79.806,14.33 C79.9086667,14.1526667 79.988,13.9613333 80.044,13.756 C80.1,13.5506667 80.128,13.3453333 80.128,13.14 C80.128,12.7013333 80.0416667,12.3373333 79.869,12.048 C79.6963333,11.7586667 79.4583333,11.5253333 79.155,11.348 C78.8516667,11.1706667 78.497,11.047 78.091,10.977 C77.685,10.907 77.244,10.872 76.768,10.872 L76.768,10.872 L73.646,10.872 L73.646,20 L77.034,20 Z M76.67,14.526 L75.704,14.526 L75.704,12.468 L76.684,12.468 C77.1693333,12.468 77.5286667,12.5426667 77.762,12.692 C77.9953333,12.8413333 78.112,13.0933333 78.112,13.448 C78.112,13.7746667 77.9976667,14.036 77.769,14.232 C77.5403333,14.428 77.174,14.526 76.67,14.526 L76.67,14.526 Z M76.866,18.404 L75.704,18.404 L75.704,16.052 L76.866,16.052 C77.4353333,16.052 77.86,16.1383333 78.14,16.311 C78.42,16.4836667 78.56,16.7706667 78.56,17.172 C78.56,17.9933333 77.9953333,18.404 76.866,18.404 L76.866,18.404 Z" id="$371B" fill="#555555" fill-rule="nonzero"></path>
            </g>
        </g>
    </g>
</svg>