<?xml version="1.0" encoding="UTF-8"?>
<svg width="310px" height="40px" viewBox="0 0 310 40" version="1.1" xmlns="http://www.w3.org/2000/svg">
    <title>02. mobile - phase 1</title>
    <g id="SVG" stroke="none" stroke-width="1" fill="none" fill-rule="evenodd">
        <g id="Viz-3---Mobile-Outline" transform="translate(-37.000000, -487.000000)">
            <g id="02.-mobile---phase-1" transform="translate(37.000000, 487.000000)">
                <path d="M110.044,17.144 C110.556,17.144 111.024,17.05 111.448,16.862 C111.872,16.674 112.238,16.402 112.546,16.046 C112.854,15.69 113.092,15.26 113.26,14.756 C113.428,14.252 113.512,13.68 113.512,13.04 C113.512,12.408 113.428,11.842 113.26,11.342 C113.092,10.842 112.854,10.42 112.546,10.076 C112.238,9.732 111.872,9.468 111.448,9.284 C111.024,9.1 110.556,9.008 110.044,9.008 C109.532,9.008 109.064,9.1 108.64,9.284 C108.216,9.468 107.852,9.732 107.548,10.076 C107.244,10.42 107.008,10.842 106.84,11.342 C106.672,11.842 106.588,12.408 106.588,13.04 C106.588,13.68 106.672,14.252 106.84,14.756 C107.008,15.26 107.244,15.69 107.548,16.046 C107.852,16.402 108.216,16.674 108.64,16.862 C109.064,17.05 109.532,17.144 110.044,17.144 Z M110.044,15.932 C109.732,15.932 109.452,15.864 109.204,15.728 C108.956,15.592 108.744,15.398 108.568,15.146 C108.392,14.894 108.256,14.59 108.16,14.234 C108.064,13.878 108.016,13.48 108.016,13.04 C108.016,12.16 108.198,11.47 108.562,10.97 C108.926,10.47 109.42,10.22 110.044,10.22 C110.668,10.22 111.162,10.47 111.526,10.97 C111.89,11.47 112.072,12.16 112.072,13.04 C112.072,13.48 112.024,13.878 111.928,14.234 C111.832,14.59 111.696,14.894 111.52,15.146 C111.344,15.398 111.132,15.592 110.884,15.728 C110.636,15.864 110.356,15.932 110.044,15.932 Z M116.716,17.144 C117.124,17.144 117.478,17.052 117.778,16.868 C118.078,16.684 118.356,16.44 118.612,16.136 L118.612,16.136 L118.648,16.136 L118.756,17 L119.884,17 L119.884,11.108 L118.504,11.108 L118.504,15.14 C118.28,15.428 118.07,15.636 117.874,15.764 C117.678,15.892 117.452,15.956 117.196,15.956 C116.876,15.956 116.644,15.856 116.5,15.656 C116.356,15.456 116.284,15.112 116.284,14.624 L116.284,14.624 L116.284,11.108 L114.904,11.108 L114.904,14.804 C114.904,15.556 115.048,16.134 115.336,16.538 C115.624,16.942 116.084,17.144 116.716,17.144 Z M123.712,17.144 C123.944,17.144 124.162,17.122 124.366,17.078 C124.57,17.034 124.752,16.984 124.912,16.928 L124.912,16.928 L124.672,15.908 C124.584,15.948 124.486,15.98 124.378,16.004 C124.27,16.028 124.164,16.04 124.06,16.04 C123.508,16.04 123.232,15.696 123.232,15.008 L123.232,15.008 L123.232,12.2 L124.732,12.2 L124.732,11.108 L123.232,11.108 L123.232,9.5 L122.08,9.5 L121.912,11.108 L121,11.168 L121,12.2 L121.84,12.2 L121.84,15.008 C121.84,15.328 121.874,15.618 121.942,15.878 C122.01,16.138 122.118,16.362 122.266,16.55 C122.414,16.738 122.606,16.884 122.842,16.988 C123.078,17.092 123.368,17.144 123.712,17.144 Z M127.312,17.144 C127.616,17.144 127.86,17.104 128.044,17.024 L128.044,17.024 L127.864,15.992 C127.808,16.008 127.766,16.016 127.738,16.016 L127.738,16.016 L127.648,16.016 C127.576,16.016 127.508,15.982 127.444,15.914 C127.38,15.846 127.348,15.728 127.348,15.56 L127.348,15.56 L127.348,8.528 L125.968,8.528 L125.968,15.488 C125.968,16 126.068,16.404 126.268,16.7 C126.468,16.996 126.816,17.144 127.312,17.144 Z M130.648,17.144 C131,17.144 131.326,17.068 131.626,16.916 C131.926,16.764 132.208,16.576 132.472,16.352 L132.472,16.352 L132.52,16.352 L132.616,17 L133.756,17 L133.756,13.508 C133.756,12.684 133.574,12.054 133.21,11.618 C132.846,11.182 132.296,10.964 131.56,10.964 C131.088,10.964 130.648,11.04 130.24,11.192 C129.832,11.344 129.464,11.524 129.136,11.732 L129.136,11.732 L129.64,12.656 C129.904,12.496 130.174,12.36 130.45,12.248 C130.726,12.136 131.008,12.08 131.296,12.08 C131.496,12.08 131.664,12.11 131.8,12.17 C131.936,12.23 132.046,12.314 132.13,12.422 C132.214,12.53 132.274,12.654 132.31,12.794 C132.346,12.934 132.368,13.08 132.376,13.232 C131.768,13.296 131.246,13.388 130.81,13.508 C130.374,13.628 130.014,13.776 129.73,13.952 C129.446,14.128 129.238,14.338 129.106,14.582 C128.974,14.826 128.908,15.104 128.908,15.416 C128.908,15.936 129.068,16.354 129.388,16.67 C129.708,16.986 130.128,17.144 130.648,17.144 Z M131.092,16.064 C130.844,16.064 130.64,16.004 130.48,15.884 C130.32,15.764 130.24,15.572 130.24,15.308 C130.24,15.164 130.276,15.028 130.348,14.9 C130.42,14.772 130.54,14.658 130.708,14.558 C130.876,14.458 131.096,14.368 131.368,14.288 C131.64,14.208 131.976,14.144 132.376,14.096 L132.376,14.096 L132.376,15.416 C132.152,15.624 131.942,15.784 131.746,15.896 C131.55,16.008 131.332,16.064 131.092,16.064 Z M135.808,19.424 C136.128,19.424 136.41,19.374 136.654,19.274 C136.898,19.174 137.114,19.03 137.302,18.842 C137.49,18.654 137.656,18.428 137.8,18.164 C137.944,17.9 138.076,17.6 138.196,17.264 L138.196,17.264 L140.332,11.108 L139,11.108 L138.112,14 C138.04,14.264 137.966,14.538 137.89,14.822 C137.814,15.106 137.74,15.384 137.668,15.656 L137.668,15.656 L137.62,15.656 C137.532,15.376 137.446,15.094 137.362,14.81 C137.278,14.526 137.192,14.256 137.104,14 L137.104,14 L136.084,11.108 L134.68,11.108 L136.996,16.928 L136.888,17.3 C136.792,17.596 136.65,17.838 136.462,18.026 C136.274,18.214 136.024,18.308 135.712,18.308 C135.64,18.308 135.566,18.298 135.49,18.278 C135.414,18.258 135.348,18.24 135.292,18.224 L135.292,18.224 L135.04,19.304 C135.152,19.344 135.268,19.374 135.388,19.394 C135.508,19.414 135.648,19.424 135.808,19.424 Z M142.996,17.144 C143.364,17.144 143.692,17.096 143.98,17 C144.268,16.904 144.508,16.774 144.7,16.61 C144.892,16.446 145.038,16.254 145.138,16.034 C145.238,15.814 145.288,15.576 145.288,15.32 C145.288,15.048 145.238,14.814 145.138,14.618 C145.038,14.422 144.906,14.256 144.742,14.12 C144.578,13.984 144.396,13.87 144.196,13.778 C143.996,13.686 143.796,13.604 143.596,13.532 C143.436,13.476 143.282,13.42 143.134,13.364 C142.986,13.308 142.856,13.248 142.744,13.184 C142.632,13.12 142.542,13.046 142.474,12.962 C142.406,12.878 142.372,12.776 142.372,12.656 C142.372,12.472 142.442,12.318 142.582,12.194 C142.722,12.07 142.94,12.008 143.236,12.008 C143.468,12.008 143.69,12.054 143.902,12.146 C144.114,12.238 144.324,12.36 144.532,12.512 L144.532,12.512 L145.168,11.672 C144.928,11.488 144.644,11.324 144.316,11.18 C143.988,11.036 143.62,10.964 143.212,10.964 C142.548,10.964 142.024,11.128 141.64,11.456 C141.256,11.784 141.064,12.208 141.064,12.728 C141.064,12.976 141.114,13.19 141.214,13.37 C141.314,13.55 141.442,13.708 141.598,13.844 C141.754,13.98 141.932,14.096 142.132,14.192 C142.332,14.288 142.528,14.372 142.72,14.444 C142.872,14.508 143.024,14.57 143.176,14.63 C143.328,14.69 143.464,14.756 143.584,14.828 C143.704,14.9 143.8,14.982 143.872,15.074 C143.944,15.166 143.98,15.272 143.98,15.392 C143.98,15.6 143.904,15.77 143.752,15.902 C143.6,16.034 143.364,16.1 143.044,16.1 C142.74,16.1 142.458,16.042 142.198,15.926 C141.938,15.81 141.676,15.648 141.412,15.44 L141.412,15.44 L140.764,16.328 C141.052,16.56 141.394,16.754 141.79,16.91 C142.186,17.066 142.588,17.144 142.996,17.144 Z M109.384,33.32 L109.384,32.108 C109.96,32.028 110.414,31.804 110.746,31.436 C111.078,31.068 111.244,30.596 111.244,30.02 C111.244,29.588 111.162,29.234 110.998,28.958 C110.834,28.682 110.628,28.45 110.38,28.262 C110.132,28.074 109.862,27.914 109.57,27.782 C109.278,27.65 109.008,27.514 108.76,27.374 C108.512,27.234 108.306,27.072 108.142,26.888 C107.978,26.704 107.896,26.468 107.896,26.18 C107.896,25.828 108.004,25.548 108.22,25.34 C108.436,25.132 108.728,25.028 109.096,25.028 C109.424,25.028 109.694,25.088 109.906,25.208 C110.118,25.328 110.336,25.496 110.56,25.712 L110.56,25.712 L111.088,25.124 C110.872,24.892 110.63,24.692 110.362,24.524 C110.094,24.356 109.768,24.252 109.384,24.212 L109.384,24.212 L109.384,23.024 L108.664,23.024 L108.664,24.236 C108.136,24.316 107.714,24.534 107.398,24.89 C107.082,25.246 106.924,25.692 106.924,26.228 C106.924,26.62 107.006,26.942 107.17,27.194 C107.334,27.446 107.54,27.66 107.788,27.836 C108.036,28.012 108.306,28.168 108.598,28.304 C108.89,28.44 109.16,28.586 109.408,28.742 C109.656,28.898 109.862,29.082 110.026,29.294 C110.19,29.506 110.272,29.772 110.272,30.092 C110.272,30.468 110.162,30.768 109.942,30.992 C109.722,31.216 109.388,31.328 108.94,31.328 C108.572,31.328 108.234,31.25 107.926,31.094 C107.618,30.938 107.336,30.748 107.08,30.524 L107.08,30.524 L106.624,31.208 C106.88,31.44 107.188,31.642 107.548,31.814 C107.908,31.986 108.28,32.092 108.664,32.132 L108.664,32.132 L108.664,33.32 L109.384,33.32 Z M117.232,32 L117.232,31.184 L115.648,31.184 L115.648,24.344 L114.892,24.344 C114.684,24.472 114.45,24.582 114.19,24.674 C113.93,24.766 113.624,24.844 113.272,24.908 L113.272,24.908 L113.272,25.544 L114.664,25.544 L114.664,31.184 L112.912,31.184 L112.912,32 L117.232,32 Z M121.516,32 C121.956,32 122.36,31.952 122.728,31.856 C123.096,31.76 123.412,31.616 123.676,31.424 C123.94,31.232 124.144,30.992 124.288,30.704 C124.432,30.416 124.504,30.08 124.504,29.696 C124.504,29.152 124.356,28.724 124.06,28.412 C123.764,28.1 123.376,27.9 122.896,27.812 L122.896,27.812 L122.896,27.764 C123.272,27.644 123.558,27.426 123.754,27.11 C123.95,26.794 124.048,26.44 124.048,26.048 C124.048,25.704 123.982,25.41 123.85,25.166 C123.718,24.922 123.534,24.724 123.298,24.572 C123.062,24.42 122.778,24.308 122.446,24.236 C122.114,24.164 121.748,24.128 121.348,24.128 L121.348,24.128 L119.008,24.128 L119.008,32 L121.516,32 Z M121.168,27.476 L120.004,27.476 L120.004,24.92 L121.216,24.92 C121.832,24.92 122.294,25.016 122.602,25.208 C122.91,25.4 123.064,25.724 123.064,26.18 C123.064,26.58 122.916,26.896 122.62,27.128 C122.324,27.36 121.84,27.476 121.168,27.476 L121.168,27.476 Z M121.372,31.208 L120.004,31.208 L120.004,28.244 L121.372,28.244 C122.068,28.244 122.6,28.358 122.968,28.586 C123.336,28.814 123.52,29.172 123.52,29.66 C123.52,30.188 123.332,30.578 122.956,30.83 C122.58,31.082 122.052,31.208 121.372,31.208 L121.372,31.208 Z" id="Outlays$1B" fill="#666666" fill-rule="nonzero"></path>
                <path d="M170.044,17.144 C170.556,17.144 171.024,17.05 171.448,16.862 C171.872,16.674 172.238,16.402 172.546,16.046 C172.854,15.69 173.092,15.26 173.26,14.756 C173.428,14.252 173.512,13.68 173.512,13.04 C173.512,12.408 173.428,11.842 173.26,11.342 C173.092,10.842 172.854,10.42 172.546,10.076 C172.238,9.732 171.872,9.468 171.448,9.284 C171.024,9.1 170.556,9.008 170.044,9.008 C169.532,9.008 169.064,9.1 168.64,9.284 C168.216,9.468 167.852,9.732 167.548,10.076 C167.244,10.42 167.008,10.842 166.84,11.342 C166.672,11.842 166.588,12.408 166.588,13.04 C166.588,13.68 166.672,14.252 166.84,14.756 C167.008,15.26 167.244,15.69 167.548,16.046 C167.852,16.402 168.216,16.674 168.64,16.862 C169.064,17.05 169.532,17.144 170.044,17.144 Z M170.044,15.932 C169.732,15.932 169.452,15.864 169.204,15.728 C168.956,15.592 168.744,15.398 168.568,15.146 C168.392,14.894 168.256,14.59 168.16,14.234 C168.064,13.878 168.016,13.48 168.016,13.04 C168.016,12.16 168.198,11.47 168.562,10.97 C168.926,10.47 169.42,10.22 170.044,10.22 C170.668,10.22 171.162,10.47 171.526,10.97 C171.89,11.47 172.072,12.16 172.072,13.04 C172.072,13.48 172.024,13.878 171.928,14.234 C171.832,14.59 171.696,14.894 171.52,15.146 C171.344,15.398 171.132,15.592 170.884,15.728 C170.636,15.864 170.356,15.932 170.044,15.932 Z M177.82,17.144 C178.148,17.144 178.464,17.072 178.768,16.928 C179.072,16.784 179.34,16.576 179.572,16.304 C179.804,16.032 179.99,15.698 180.13,15.302 C180.27,14.906 180.34,14.456 180.34,13.952 C180.34,13.496 180.288,13.084 180.184,12.716 C180.08,12.348 179.928,12.034 179.728,11.774 C179.528,11.514 179.284,11.314 178.996,11.174 C178.708,11.034 178.38,10.964 178.012,10.964 C177.708,10.964 177.41,11.032 177.118,11.168 C176.826,11.304 176.556,11.48 176.308,11.696 L176.308,11.696 L176.344,10.712 L176.344,8.528 L174.964,8.528 L174.964,17 L176.056,17 L176.176,16.376 L176.212,16.376 C176.46,16.624 176.722,16.814 176.998,16.946 C177.274,17.078 177.548,17.144 177.82,17.144 Z M177.532,16.004 C177.356,16.004 177.166,15.968 176.962,15.896 C176.758,15.824 176.552,15.696 176.344,15.512 L176.344,15.512 L176.344,12.764 C176.792,12.324 177.224,12.104 177.64,12.104 C178.088,12.104 178.412,12.268 178.612,12.596 C178.812,12.924 178.912,13.384 178.912,13.976 C178.912,14.648 178.78,15.154 178.516,15.494 C178.252,15.834 177.924,16.004 177.532,16.004 Z M183.064,17.144 C183.368,17.144 183.612,17.104 183.796,17.024 L183.796,17.024 L183.616,15.992 C183.56,16.008 183.518,16.016 183.49,16.016 L183.49,16.016 L183.4,16.016 C183.328,16.016 183.26,15.982 183.196,15.914 C183.132,15.846 183.1,15.728 183.1,15.56 L183.1,15.56 L183.1,8.528 L181.72,8.528 L181.72,15.488 C181.72,16 181.82,16.404 182.02,16.7 C182.22,16.996 182.568,17.144 183.064,17.144 Z M185.668,10.076 C185.916,10.076 186.12,10.004 186.28,9.86 C186.44,9.716 186.52,9.528 186.52,9.296 C186.52,9.064 186.44,8.874 186.28,8.726 C186.12,8.578 185.916,8.504 185.668,8.504 C185.42,8.504 185.216,8.578 185.056,8.726 C184.896,8.874 184.816,9.064 184.816,9.296 C184.816,9.528 184.896,9.716 185.056,9.86 C185.216,10.004 185.42,10.076 185.668,10.076 Z M186.352,17 L186.352,11.108 L184.972,11.108 L184.972,17 L186.352,17 Z M190.168,19.604 C190.648,19.604 191.082,19.55 191.47,19.442 C191.858,19.334 192.188,19.188 192.46,19.004 C192.732,18.82 192.942,18.6 193.09,18.344 C193.238,18.088 193.312,17.816 193.312,17.528 C193.312,17.016 193.13,16.646 192.766,16.418 C192.402,16.19 191.864,16.076 191.152,16.076 L191.152,16.076 L190.108,16.076 C189.748,16.076 189.498,16.028 189.358,15.932 C189.218,15.836 189.148,15.704 189.148,15.536 C189.148,15.4 189.174,15.292 189.226,15.212 C189.278,15.132 189.348,15.052 189.436,14.972 C189.572,15.028 189.708,15.068 189.844,15.092 C189.98,15.116 190.112,15.128 190.24,15.128 C190.552,15.128 190.844,15.084 191.116,14.996 C191.388,14.908 191.624,14.78 191.824,14.612 C192.024,14.444 192.182,14.236 192.298,13.988 C192.414,13.74 192.472,13.452 192.472,13.124 C192.472,12.916 192.44,12.726 192.376,12.554 C192.312,12.382 192.232,12.24 192.136,12.128 L192.136,12.128 L193.216,12.128 L193.216,11.108 L191.104,11.108 C190.984,11.068 190.85,11.034 190.702,11.006 C190.554,10.978 190.4,10.964 190.24,10.964 C189.928,10.964 189.632,11.01 189.352,11.102 C189.072,11.194 188.826,11.33 188.614,11.51 C188.402,11.69 188.232,11.912 188.104,12.176 C187.976,12.44 187.912,12.74 187.912,13.076 C187.912,13.428 187.99,13.738 188.146,14.006 C188.302,14.274 188.48,14.484 188.68,14.636 L188.68,14.636 L188.68,14.684 C188.512,14.804 188.362,14.958 188.23,15.146 C188.098,15.334 188.032,15.544 188.032,15.776 C188.032,16.016 188.082,16.216 188.182,16.376 C188.282,16.536 188.408,16.664 188.56,16.76 L188.56,16.76 L188.56,16.808 C188.288,16.976 188.08,17.166 187.936,17.378 C187.792,17.59 187.72,17.82 187.72,18.068 C187.72,18.324 187.782,18.548 187.906,18.74 C188.03,18.932 188.2,19.092 188.416,19.22 C188.632,19.348 188.89,19.444 189.19,19.508 C189.49,19.572 189.816,19.604 190.168,19.604 Z M190.24,14.264 C189.952,14.264 189.708,14.162 189.508,13.958 C189.308,13.754 189.208,13.46 189.208,13.076 C189.208,12.7 189.308,12.412 189.508,12.212 C189.708,12.012 189.952,11.912 190.24,11.912 C190.528,11.912 190.77,12.014 190.966,12.218 C191.162,12.422 191.26,12.708 191.26,13.076 C191.26,13.46 191.16,13.754 190.96,13.958 C190.76,14.162 190.52,14.264 190.24,14.264 Z M190.384,18.704 C189.912,18.704 189.542,18.63 189.274,18.482 C189.006,18.334 188.872,18.128 188.872,17.864 C188.872,17.576 189.024,17.316 189.328,17.084 C189.544,17.14 189.812,17.168 190.132,17.168 L190.132,17.168 L190.936,17.168 C191.272,17.168 191.53,17.208 191.71,17.288 C191.89,17.368 191.98,17.524 191.98,17.756 C191.98,18.012 191.834,18.234 191.542,18.422 C191.25,18.61 190.864,18.704 190.384,18.704 Z M195.568,17.144 C195.92,17.144 196.246,17.068 196.546,16.916 C196.846,16.764 197.128,16.576 197.392,16.352 L197.392,16.352 L197.44,16.352 L197.536,17 L198.676,17 L198.676,13.508 C198.676,12.684 198.494,12.054 198.13,11.618 C197.766,11.182 197.216,10.964 196.48,10.964 C196.008,10.964 195.568,11.04 195.16,11.192 C194.752,11.344 194.384,11.524 194.056,11.732 L194.056,11.732 L194.56,12.656 C194.824,12.496 195.094,12.36 195.37,12.248 C195.646,12.136 195.928,12.08 196.216,12.08 C196.416,12.08 196.584,12.11 196.72,12.17 C196.856,12.23 196.966,12.314 197.05,12.422 C197.134,12.53 197.194,12.654 197.23,12.794 C197.266,12.934 197.288,13.08 197.296,13.232 C196.688,13.296 196.166,13.388 195.73,13.508 C195.294,13.628 194.934,13.776 194.65,13.952 C194.366,14.128 194.158,14.338 194.026,14.582 C193.894,14.826 193.828,15.104 193.828,15.416 C193.828,15.936 193.988,16.354 194.308,16.67 C194.628,16.986 195.048,17.144 195.568,17.144 Z M196.012,16.064 C195.764,16.064 195.56,16.004 195.4,15.884 C195.24,15.764 195.16,15.572 195.16,15.308 C195.16,15.164 195.196,15.028 195.268,14.9 C195.34,14.772 195.46,14.658 195.628,14.558 C195.796,14.458 196.016,14.368 196.288,14.288 C196.56,14.208 196.896,14.144 197.296,14.096 L197.296,14.096 L197.296,15.416 C197.072,15.624 196.862,15.784 196.666,15.896 C196.47,16.008 196.252,16.064 196.012,16.064 Z M202.216,17.144 C202.448,17.144 202.666,17.122 202.87,17.078 C203.074,17.034 203.256,16.984 203.416,16.928 L203.416,16.928 L203.176,15.908 C203.088,15.948 202.99,15.98 202.882,16.004 C202.774,16.028 202.668,16.04 202.564,16.04 C202.012,16.04 201.736,15.696 201.736,15.008 L201.736,15.008 L201.736,12.2 L203.236,12.2 L203.236,11.108 L201.736,11.108 L201.736,9.5 L200.584,9.5 L200.416,11.108 L199.504,11.168 L199.504,12.2 L200.344,12.2 L200.344,15.008 C200.344,15.328 200.378,15.618 200.446,15.878 C200.514,16.138 200.622,16.362 200.77,16.55 C200.918,16.738 201.11,16.884 201.346,16.988 C201.582,17.092 201.872,17.144 202.216,17.144 Z M205.168,10.076 C205.416,10.076 205.62,10.004 205.78,9.86 C205.94,9.716 206.02,9.528 206.02,9.296 C206.02,9.064 205.94,8.874 205.78,8.726 C205.62,8.578 205.416,8.504 205.168,8.504 C204.92,8.504 204.716,8.578 204.556,8.726 C204.396,8.874 204.316,9.064 204.316,9.296 C204.316,9.528 204.396,9.716 204.556,9.86 C204.716,10.004 204.92,10.076 205.168,10.076 Z M205.852,17 L205.852,11.108 L204.472,11.108 L204.472,17 L205.852,17 Z M210.028,17.144 C210.396,17.144 210.75,17.076 211.09,16.94 C211.43,16.804 211.728,16.604 211.984,16.34 C212.24,16.076 212.446,15.752 212.602,15.368 C212.758,14.984 212.836,14.548 212.836,14.06 C212.836,13.572 212.758,13.136 212.602,12.752 C212.446,12.368 212.24,12.044 211.984,11.78 C211.728,11.516 211.43,11.314 211.09,11.174 C210.75,11.034 210.396,10.964 210.028,10.964 C209.66,10.964 209.308,11.034 208.972,11.174 C208.636,11.314 208.338,11.516 208.078,11.78 C207.818,12.044 207.612,12.368 207.46,12.752 C207.308,13.136 207.232,13.572 207.232,14.06 C207.232,14.548 207.308,14.984 207.46,15.368 C207.612,15.752 207.818,16.076 208.078,16.34 C208.338,16.604 208.636,16.804 208.972,16.94 C209.308,17.076 209.66,17.144 210.028,17.144 Z M210.028,16.016 C209.596,16.016 209.258,15.838 209.014,15.482 C208.77,15.126 208.648,14.652 208.648,14.06 C208.648,13.46 208.77,12.982 209.014,12.626 C209.258,12.27 209.596,12.092 210.028,12.092 C210.46,12.092 210.8,12.27 211.048,12.626 C211.296,12.982 211.42,13.46 211.42,14.06 C211.42,14.652 211.296,15.126 211.048,15.482 C210.8,15.838 210.46,16.016 210.028,16.016 Z M215.584,17 L215.584,12.884 C215.832,12.644 216.054,12.462 216.25,12.338 C216.446,12.214 216.672,12.152 216.928,12.152 C217.256,12.152 217.492,12.252 217.636,12.452 C217.78,12.652 217.852,12.996 217.852,13.484 L217.852,13.484 L217.852,17 L219.232,17 L219.232,13.304 C219.232,12.552 219.088,11.974 218.8,11.57 C218.512,11.166 218.052,10.964 217.42,10.964 C217.012,10.964 216.654,11.056 216.346,11.24 C216.038,11.424 215.752,11.644 215.488,11.9 L215.488,11.9 L215.44,11.9 L215.344,11.108 L214.204,11.108 L214.204,17 L215.584,17 Z M222.568,17.144 C222.936,17.144 223.264,17.096 223.552,17 C223.84,16.904 224.08,16.774 224.272,16.61 C224.464,16.446 224.61,16.254 224.71,16.034 C224.81,15.814 224.86,15.576 224.86,15.32 C224.86,15.048 224.81,14.814 224.71,14.618 C224.61,14.422 224.478,14.256 224.314,14.12 C224.15,13.984 223.968,13.87 223.768,13.778 C223.568,13.686 223.368,13.604 223.168,13.532 C223.008,13.476 222.854,13.42 222.706,13.364 C222.558,13.308 222.428,13.248 222.316,13.184 C222.204,13.12 222.114,13.046 222.046,12.962 C221.978,12.878 221.944,12.776 221.944,12.656 C221.944,12.472 222.014,12.318 222.154,12.194 C222.294,12.07 222.512,12.008 222.808,12.008 C223.04,12.008 223.262,12.054 223.474,12.146 C223.686,12.238 223.896,12.36 224.104,12.512 L224.104,12.512 L224.74,11.672 C224.5,11.488 224.216,11.324 223.888,11.18 C223.56,11.036 223.192,10.964 222.784,10.964 C222.12,10.964 221.596,11.128 221.212,11.456 C220.828,11.784 220.636,12.208 220.636,12.728 C220.636,12.976 220.686,13.19 220.786,13.37 C220.886,13.55 221.014,13.708 221.17,13.844 C221.326,13.98 221.504,14.096 221.704,14.192 C221.904,14.288 222.1,14.372 222.292,14.444 C222.444,14.508 222.596,14.57 222.748,14.63 C222.9,14.69 223.036,14.756 223.156,14.828 C223.276,14.9 223.372,14.982 223.444,15.074 C223.516,15.166 223.552,15.272 223.552,15.392 C223.552,15.6 223.476,15.77 223.324,15.902 C223.172,16.034 222.936,16.1 222.616,16.1 C222.312,16.1 222.03,16.042 221.77,15.926 C221.51,15.81 221.248,15.648 220.984,15.44 L220.984,15.44 L220.336,16.328 C220.624,16.56 220.966,16.754 221.362,16.91 C221.758,17.066 222.16,17.144 222.568,17.144 Z M169.384,33.32 L169.384,32.108 C169.96,32.028 170.414,31.804 170.746,31.436 C171.078,31.068 171.244,30.596 171.244,30.02 C171.244,29.588 171.162,29.234 170.998,28.958 C170.834,28.682 170.628,28.45 170.38,28.262 C170.132,28.074 169.862,27.914 169.57,27.782 C169.278,27.65 169.008,27.514 168.76,27.374 C168.512,27.234 168.306,27.072 168.142,26.888 C167.978,26.704 167.896,26.468 167.896,26.18 C167.896,25.828 168.004,25.548 168.22,25.34 C168.436,25.132 168.728,25.028 169.096,25.028 C169.424,25.028 169.694,25.088 169.906,25.208 C170.118,25.328 170.336,25.496 170.56,25.712 L170.56,25.712 L171.088,25.124 C170.872,24.892 170.63,24.692 170.362,24.524 C170.094,24.356 169.768,24.252 169.384,24.212 L169.384,24.212 L169.384,23.024 L168.664,23.024 L168.664,24.236 C168.136,24.316 167.714,24.534 167.398,24.89 C167.082,25.246 166.924,25.692 166.924,26.228 C166.924,26.62 167.006,26.942 167.17,27.194 C167.334,27.446 167.54,27.66 167.788,27.836 C168.036,28.012 168.306,28.168 168.598,28.304 C168.89,28.44 169.16,28.586 169.408,28.742 C169.656,28.898 169.862,29.082 170.026,29.294 C170.19,29.506 170.272,29.772 170.272,30.092 C170.272,30.468 170.162,30.768 169.942,30.992 C169.722,31.216 169.388,31.328 168.94,31.328 C168.572,31.328 168.234,31.25 167.926,31.094 C167.618,30.938 167.336,30.748 167.08,30.524 L167.08,30.524 L166.624,31.208 C166.88,31.44 167.188,31.642 167.548,31.814 C167.908,31.986 168.28,32.092 168.664,32.132 L168.664,32.132 L168.664,33.32 L169.384,33.32 Z M175.18,32.144 C175.492,32.144 175.784,32.084 176.056,31.964 C176.328,31.844 176.568,31.676 176.776,31.46 C176.984,31.244 177.148,30.986 177.268,30.686 C177.388,30.386 177.448,30.052 177.448,29.684 C177.448,28.892 177.25,28.3 176.854,27.908 C176.458,27.516 175.928,27.32 175.264,27.32 C174.952,27.32 174.636,27.406 174.316,27.578 C173.996,27.75 173.716,27.984 173.476,28.28 C173.484,27.672 173.544,27.162 173.656,26.75 C173.768,26.338 173.916,26.004 174.1,25.748 C174.284,25.492 174.496,25.308 174.736,25.196 C174.976,25.084 175.228,25.028 175.492,25.028 C175.732,25.028 175.962,25.082 176.182,25.19 C176.402,25.298 176.592,25.444 176.752,25.628 L176.752,25.628 L177.304,25.016 C177.088,24.784 176.83,24.59 176.53,24.434 C176.23,24.278 175.872,24.2 175.456,24.2 C175.072,24.2 174.706,24.278 174.358,24.434 C174.01,24.59 173.7,24.838 173.428,25.178 C173.156,25.518 172.94,25.958 172.78,26.498 C172.62,27.038 172.54,27.692 172.54,28.46 C172.54,29.076 172.608,29.614 172.744,30.074 C172.88,30.534 173.066,30.918 173.302,31.226 C173.538,31.534 173.816,31.764 174.136,31.916 C174.456,32.068 174.804,32.144 175.18,32.144 Z M175.18,31.364 C174.692,31.364 174.306,31.17 174.022,30.782 C173.738,30.394 173.564,29.824 173.5,29.072 C173.74,28.712 174.004,28.454 174.292,28.298 C174.58,28.142 174.848,28.064 175.096,28.064 C175.576,28.064 175.932,28.208 176.164,28.496 C176.396,28.784 176.512,29.18 176.512,29.684 C176.512,29.94 176.478,30.17 176.41,30.374 C176.342,30.578 176.248,30.754 176.128,30.902 C176.008,31.05 175.868,31.164 175.708,31.244 C175.548,31.324 175.372,31.364 175.18,31.364 Z M181.516,32 C181.956,32 182.36,31.952 182.728,31.856 C183.096,31.76 183.412,31.616 183.676,31.424 C183.94,31.232 184.144,30.992 184.288,30.704 C184.432,30.416 184.504,30.08 184.504,29.696 C184.504,29.152 184.356,28.724 184.06,28.412 C183.764,28.1 183.376,27.9 182.896,27.812 L182.896,27.812 L182.896,27.764 C183.272,27.644 183.558,27.426 183.754,27.11 C183.95,26.794 184.048,26.44 184.048,26.048 C184.048,25.704 183.982,25.41 183.85,25.166 C183.718,24.922 183.534,24.724 183.298,24.572 C183.062,24.42 182.778,24.308 182.446,24.236 C182.114,24.164 181.748,24.128 181.348,24.128 L181.348,24.128 L179.008,24.128 L179.008,32 L181.516,32 Z M181.168,27.476 L180.004,27.476 L180.004,24.92 L181.216,24.92 C181.832,24.92 182.294,25.016 182.602,25.208 C182.91,25.4 183.064,25.724 183.064,26.18 C183.064,26.58 182.916,26.896 182.62,27.128 C182.324,27.36 181.84,27.476 181.168,27.476 L181.168,27.476 Z M181.372,31.208 L180.004,31.208 L180.004,28.244 L181.372,28.244 C182.068,28.244 182.6,28.358 182.968,28.586 C183.336,28.814 183.52,29.172 183.52,29.66 C183.52,30.188 183.332,30.578 182.956,30.83 C182.58,31.082 182.052,31.208 181.372,31.208 L181.372,31.208 Z" id="Obligations$6B" fill="#666666" fill-rule="nonzero"></path>
                <path d="M249.936,17.144 C250.392,17.144 250.802,17.078 251.166,16.946 C251.53,16.814 251.842,16.604 252.102,16.316 C252.362,16.028 252.56,15.658 252.696,15.206 C252.832,14.754 252.9,14.204 252.9,13.556 L252.9,13.556 L252.9,9.152 L251.568,9.152 L251.568,13.664 C251.568,14.088 251.528,14.446 251.448,14.738 C251.368,15.03 251.256,15.264 251.112,15.44 C250.968,15.616 250.796,15.742 250.596,15.818 C250.396,15.894 250.176,15.932 249.936,15.932 C249.696,15.932 249.48,15.894 249.288,15.818 C249.096,15.742 248.93,15.616 248.79,15.44 C248.65,15.264 248.542,15.03 248.466,14.738 C248.39,14.446 248.352,14.088 248.352,13.664 L248.352,13.664 L248.352,9.152 L246.96,9.152 L246.96,13.556 C246.96,14.204 247.03,14.754 247.17,15.206 C247.31,15.658 247.51,16.028 247.77,16.316 C248.03,16.604 248.342,16.814 248.706,16.946 C249.07,17.078 249.48,17.144 249.936,17.144 Z M256.116,17 L256.116,12.884 C256.364,12.644 256.586,12.462 256.782,12.338 C256.978,12.214 257.204,12.152 257.46,12.152 C257.788,12.152 258.024,12.252 258.168,12.452 C258.312,12.652 258.384,12.996 258.384,13.484 L258.384,13.484 L258.384,17 L259.764,17 L259.764,13.304 C259.764,12.552 259.62,11.974 259.332,11.57 C259.044,11.166 258.584,10.964 257.952,10.964 C257.544,10.964 257.186,11.056 256.878,11.24 C256.57,11.424 256.284,11.644 256.02,11.9 L256.02,11.9 L255.972,11.9 L255.876,11.108 L254.736,11.108 L254.736,17 L256.116,17 Z M263.868,17.144 C264.236,17.144 264.59,17.076 264.93,16.94 C265.27,16.804 265.568,16.604 265.824,16.34 C266.08,16.076 266.286,15.752 266.442,15.368 C266.598,14.984 266.676,14.548 266.676,14.06 C266.676,13.572 266.598,13.136 266.442,12.752 C266.286,12.368 266.08,12.044 265.824,11.78 C265.568,11.516 265.27,11.314 264.93,11.174 C264.59,11.034 264.236,10.964 263.868,10.964 C263.5,10.964 263.148,11.034 262.812,11.174 C262.476,11.314 262.178,11.516 261.918,11.78 C261.658,12.044 261.452,12.368 261.3,12.752 C261.148,13.136 261.072,13.572 261.072,14.06 C261.072,14.548 261.148,14.984 261.3,15.368 C261.452,15.752 261.658,16.076 261.918,16.34 C262.178,16.604 262.476,16.804 262.812,16.94 C263.148,17.076 263.5,17.144 263.868,17.144 Z M263.868,16.016 C263.436,16.016 263.098,15.838 262.854,15.482 C262.61,15.126 262.488,14.652 262.488,14.06 C262.488,13.46 262.61,12.982 262.854,12.626 C263.098,12.27 263.436,12.092 263.868,12.092 C264.3,12.092 264.64,12.27 264.888,12.626 C265.136,12.982 265.26,13.46 265.26,14.06 C265.26,14.652 265.136,15.126 264.888,15.482 C264.64,15.838 264.3,16.016 263.868,16.016 Z M270.9,17.144 C271.228,17.144 271.544,17.072 271.848,16.928 C272.152,16.784 272.42,16.576 272.652,16.304 C272.884,16.032 273.07,15.698 273.21,15.302 C273.35,14.906 273.42,14.456 273.42,13.952 C273.42,13.496 273.368,13.084 273.264,12.716 C273.16,12.348 273.008,12.034 272.808,11.774 C272.608,11.514 272.364,11.314 272.076,11.174 C271.788,11.034 271.46,10.964 271.092,10.964 C270.788,10.964 270.49,11.032 270.198,11.168 C269.906,11.304 269.636,11.48 269.388,11.696 L269.388,11.696 L269.424,10.712 L269.424,8.528 L268.044,8.528 L268.044,17 L269.136,17 L269.256,16.376 L269.292,16.376 C269.54,16.624 269.802,16.814 270.078,16.946 C270.354,17.078 270.628,17.144 270.9,17.144 Z M270.612,16.004 C270.436,16.004 270.246,15.968 270.042,15.896 C269.838,15.824 269.632,15.696 269.424,15.512 L269.424,15.512 L269.424,12.764 C269.872,12.324 270.304,12.104 270.72,12.104 C271.168,12.104 271.492,12.268 271.692,12.596 C271.892,12.924 271.992,13.384 271.992,13.976 C271.992,14.648 271.86,15.154 271.596,15.494 C271.332,15.834 271.004,16.004 270.612,16.004 Z M276.144,17.144 C276.448,17.144 276.692,17.104 276.876,17.024 L276.876,17.024 L276.696,15.992 C276.64,16.008 276.598,16.016 276.57,16.016 L276.57,16.016 L276.48,16.016 C276.408,16.016 276.34,15.982 276.276,15.914 C276.212,15.846 276.18,15.728 276.18,15.56 L276.18,15.56 L276.18,8.528 L274.8,8.528 L274.8,15.488 C274.8,16 274.9,16.404 275.1,16.7 C275.3,16.996 275.648,17.144 276.144,17.144 Z M278.748,10.076 C278.996,10.076 279.2,10.004 279.36,9.86 C279.52,9.716 279.6,9.528 279.6,9.296 C279.6,9.064 279.52,8.874 279.36,8.726 C279.2,8.578 278.996,8.504 278.748,8.504 C278.5,8.504 278.296,8.578 278.136,8.726 C277.976,8.874 277.896,9.064 277.896,9.296 C277.896,9.528 277.976,9.716 278.136,9.86 C278.296,10.004 278.5,10.076 278.748,10.076 Z M279.432,17 L279.432,11.108 L278.052,11.108 L278.052,17 L279.432,17 Z M283.248,19.604 C283.728,19.604 284.162,19.55 284.55,19.442 C284.938,19.334 285.268,19.188 285.54,19.004 C285.812,18.82 286.022,18.6 286.17,18.344 C286.318,18.088 286.392,17.816 286.392,17.528 C286.392,17.016 286.21,16.646 285.846,16.418 C285.482,16.19 284.944,16.076 284.232,16.076 L284.232,16.076 L283.188,16.076 C282.828,16.076 282.578,16.028 282.438,15.932 C282.298,15.836 282.228,15.704 282.228,15.536 C282.228,15.4 282.254,15.292 282.306,15.212 C282.358,15.132 282.428,15.052 282.516,14.972 C282.652,15.028 282.788,15.068 282.924,15.092 C283.06,15.116 283.192,15.128 283.32,15.128 C283.632,15.128 283.924,15.084 284.196,14.996 C284.468,14.908 284.704,14.78 284.904,14.612 C285.104,14.444 285.262,14.236 285.378,13.988 C285.494,13.74 285.552,13.452 285.552,13.124 C285.552,12.916 285.52,12.726 285.456,12.554 C285.392,12.382 285.312,12.24 285.216,12.128 L285.216,12.128 L286.296,12.128 L286.296,11.108 L284.184,11.108 C284.064,11.068 283.93,11.034 283.782,11.006 C283.634,10.978 283.48,10.964 283.32,10.964 C283.008,10.964 282.712,11.01 282.432,11.102 C282.152,11.194 281.906,11.33 281.694,11.51 C281.482,11.69 281.312,11.912 281.184,12.176 C281.056,12.44 280.992,12.74 280.992,13.076 C280.992,13.428 281.07,13.738 281.226,14.006 C281.382,14.274 281.56,14.484 281.76,14.636 L281.76,14.636 L281.76,14.684 C281.592,14.804 281.442,14.958 281.31,15.146 C281.178,15.334 281.112,15.544 281.112,15.776 C281.112,16.016 281.162,16.216 281.262,16.376 C281.362,16.536 281.488,16.664 281.64,16.76 L281.64,16.76 L281.64,16.808 C281.368,16.976 281.16,17.166 281.016,17.378 C280.872,17.59 280.8,17.82 280.8,18.068 C280.8,18.324 280.862,18.548 280.986,18.74 C281.11,18.932 281.28,19.092 281.496,19.22 C281.712,19.348 281.97,19.444 282.27,19.508 C282.57,19.572 282.896,19.604 283.248,19.604 Z M283.32,14.264 C283.032,14.264 282.788,14.162 282.588,13.958 C282.388,13.754 282.288,13.46 282.288,13.076 C282.288,12.7 282.388,12.412 282.588,12.212 C282.788,12.012 283.032,11.912 283.32,11.912 C283.608,11.912 283.85,12.014 284.046,12.218 C284.242,12.422 284.34,12.708 284.34,13.076 C284.34,13.46 284.24,13.754 284.04,13.958 C283.84,14.162 283.6,14.264 283.32,14.264 Z M283.464,18.704 C282.992,18.704 282.622,18.63 282.354,18.482 C282.086,18.334 281.952,18.128 281.952,17.864 C281.952,17.576 282.104,17.316 282.408,17.084 C282.624,17.14 282.892,17.168 283.212,17.168 L283.212,17.168 L284.016,17.168 C284.352,17.168 284.61,17.208 284.79,17.288 C284.97,17.368 285.06,17.524 285.06,17.756 C285.06,18.012 284.914,18.234 284.622,18.422 C284.33,18.61 283.944,18.704 283.464,18.704 Z M288.648,17.144 C289,17.144 289.326,17.068 289.626,16.916 C289.926,16.764 290.208,16.576 290.472,16.352 L290.472,16.352 L290.52,16.352 L290.616,17 L291.756,17 L291.756,13.508 C291.756,12.684 291.574,12.054 291.21,11.618 C290.846,11.182 290.296,10.964 289.56,10.964 C289.088,10.964 288.648,11.04 288.24,11.192 C287.832,11.344 287.464,11.524 287.136,11.732 L287.136,11.732 L287.64,12.656 C287.904,12.496 288.174,12.36 288.45,12.248 C288.726,12.136 289.008,12.08 289.296,12.08 C289.496,12.08 289.664,12.11 289.8,12.17 C289.936,12.23 290.046,12.314 290.13,12.422 C290.214,12.53 290.274,12.654 290.31,12.794 C290.346,12.934 290.368,13.08 290.376,13.232 C289.768,13.296 289.246,13.388 288.81,13.508 C288.374,13.628 288.014,13.776 287.73,13.952 C287.446,14.128 287.238,14.338 287.106,14.582 C286.974,14.826 286.908,15.104 286.908,15.416 C286.908,15.936 287.068,16.354 287.388,16.67 C287.708,16.986 288.128,17.144 288.648,17.144 Z M289.092,16.064 C288.844,16.064 288.64,16.004 288.48,15.884 C288.32,15.764 288.24,15.572 288.24,15.308 C288.24,15.164 288.276,15.028 288.348,14.9 C288.42,14.772 288.54,14.658 288.708,14.558 C288.876,14.458 289.096,14.368 289.368,14.288 C289.64,14.208 289.976,14.144 290.376,14.096 L290.376,14.096 L290.376,15.416 C290.152,15.624 289.942,15.784 289.746,15.896 C289.55,16.008 289.332,16.064 289.092,16.064 Z M295.296,17.144 C295.528,17.144 295.746,17.122 295.95,17.078 C296.154,17.034 296.336,16.984 296.496,16.928 L296.496,16.928 L296.256,15.908 C296.168,15.948 296.07,15.98 295.962,16.004 C295.854,16.028 295.748,16.04 295.644,16.04 C295.092,16.04 294.816,15.696 294.816,15.008 L294.816,15.008 L294.816,12.2 L296.316,12.2 L296.316,11.108 L294.816,11.108 L294.816,9.5 L293.664,9.5 L293.496,11.108 L292.584,11.168 L292.584,12.2 L293.424,12.2 L293.424,15.008 C293.424,15.328 293.458,15.618 293.526,15.878 C293.594,16.138 293.702,16.362 293.85,16.55 C293.998,16.738 294.19,16.884 294.426,16.988 C294.662,17.092 294.952,17.144 295.296,17.144 Z M299.88,17.144 C300.256,17.144 300.616,17.084 300.96,16.964 C301.304,16.844 301.616,16.692 301.896,16.508 L301.896,16.508 L301.428,15.644 C301.212,15.78 300.994,15.886 300.774,15.962 C300.554,16.038 300.316,16.076 300.06,16.076 C299.58,16.076 299.186,15.934 298.878,15.65 C298.57,15.366 298.384,14.96 298.32,14.432 L298.32,14.432 L302.064,14.432 C302.08,14.36 302.094,14.264 302.106,14.144 C302.118,14.024 302.124,13.896 302.124,13.76 C302.124,13.352 302.072,12.976 301.968,12.632 C301.864,12.288 301.71,11.992 301.506,11.744 C301.302,11.496 301.048,11.304 300.744,11.168 C300.44,11.032 300.088,10.964 299.688,10.964 C299.344,10.964 299.008,11.036 298.68,11.18 C298.352,11.324 298.062,11.528 297.81,11.792 C297.558,12.056 297.356,12.38 297.204,12.764 C297.052,13.148 296.976,13.58 296.976,14.06 C296.976,14.548 297.05,14.982 297.198,15.362 C297.346,15.742 297.552,16.064 297.816,16.328 C298.08,16.592 298.388,16.794 298.74,16.934 C299.092,17.074 299.472,17.144 299.88,17.144 Z M300.924,13.496 L298.308,13.496 C298.372,13.016 298.536,12.652 298.8,12.404 C299.064,12.156 299.372,12.032 299.724,12.032 C300.132,12.032 300.434,12.162 300.63,12.422 C300.826,12.682 300.924,13.04 300.924,13.496 L300.924,13.496 Z M305.508,17.144 C305.828,17.144 306.132,17.068 306.42,16.916 C306.708,16.764 306.96,16.58 307.176,16.364 L307.176,16.364 L307.224,16.364 L307.32,17 L308.46,17 L308.46,8.528 L307.08,8.528 L307.08,10.664 L307.128,11.612 C306.896,11.412 306.664,11.254 306.432,11.138 C306.2,11.022 305.916,10.964 305.58,10.964 C305.26,10.964 304.95,11.036 304.65,11.18 C304.35,11.324 304.084,11.528 303.852,11.792 C303.62,12.056 303.434,12.38 303.294,12.764 C303.154,13.148 303.084,13.58 303.084,14.06 C303.084,15.036 303.302,15.794 303.738,16.334 C304.174,16.874 304.764,17.144 305.508,17.144 Z M305.844,16.004 C305.412,16.004 305.082,15.838 304.854,15.506 C304.626,15.174 304.512,14.688 304.512,14.048 C304.512,13.424 304.644,12.944 304.908,12.608 C305.172,12.272 305.496,12.104 305.88,12.104 C306.08,12.104 306.278,12.14 306.474,12.212 C306.67,12.284 306.872,12.412 307.08,12.596 L307.08,12.596 L307.08,15.344 C306.696,15.784 306.284,16.004 305.844,16.004 Z M249.384,33.32 L249.384,32.108 C249.96,32.028 250.414,31.804 250.746,31.436 C251.078,31.068 251.244,30.596 251.244,30.02 C251.244,29.588 251.162,29.234 250.998,28.958 C250.834,28.682 250.628,28.45 250.38,28.262 C250.132,28.074 249.862,27.914 249.57,27.782 C249.278,27.65 249.008,27.514 248.76,27.374 C248.512,27.234 248.306,27.072 248.142,26.888 C247.978,26.704 247.896,26.468 247.896,26.18 C247.896,25.828 248.004,25.548 248.22,25.34 C248.436,25.132 248.728,25.028 249.096,25.028 C249.424,25.028 249.694,25.088 249.906,25.208 C250.118,25.328 250.336,25.496 250.56,25.712 L250.56,25.712 L251.088,25.124 C250.872,24.892 250.63,24.692 250.362,24.524 C250.094,24.356 249.768,24.252 249.384,24.212 L249.384,24.212 L249.384,23.024 L248.664,23.024 L248.664,24.236 C248.136,24.316 247.714,24.534 247.398,24.89 C247.082,25.246 246.924,25.692 246.924,26.228 C246.924,26.62 247.006,26.942 247.17,27.194 C247.334,27.446 247.54,27.66 247.788,27.836 C248.036,28.012 248.306,28.168 248.598,28.304 C248.89,28.44 249.16,28.586 249.408,28.742 C249.656,28.898 249.862,29.082 250.026,29.294 C250.19,29.506 250.272,29.772 250.272,30.092 C250.272,30.468 250.162,30.768 249.942,30.992 C249.722,31.216 249.388,31.328 248.94,31.328 C248.572,31.328 248.234,31.25 247.926,31.094 C247.618,30.938 247.336,30.748 247.08,30.524 L247.08,30.524 L246.624,31.208 C246.88,31.44 247.188,31.642 247.548,31.814 C247.908,31.986 248.28,32.092 248.664,32.132 L248.664,32.132 L248.664,33.32 L249.384,33.32 Z M257.232,32 L257.232,31.184 L255.648,31.184 L255.648,24.344 L254.892,24.344 C254.684,24.472 254.45,24.582 254.19,24.674 C253.93,24.766 253.624,24.844 253.272,24.908 L253.272,24.908 L253.272,25.544 L254.664,25.544 L254.664,31.184 L252.912,31.184 L252.912,32 L257.232,32 Z M261.516,32 C261.956,32 262.36,31.952 262.728,31.856 C263.096,31.76 263.412,31.616 263.676,31.424 C263.94,31.232 264.144,30.992 264.288,30.704 C264.432,30.416 264.504,30.08 264.504,29.696 C264.504,29.152 264.356,28.724 264.06,28.412 C263.764,28.1 263.376,27.9 262.896,27.812 L262.896,27.812 L262.896,27.764 C263.272,27.644 263.558,27.426 263.754,27.11 C263.95,26.794 264.048,26.44 264.048,26.048 C264.048,25.704 263.982,25.41 263.85,25.166 C263.718,24.922 263.534,24.724 263.298,24.572 C263.062,24.42 262.778,24.308 262.446,24.236 C262.114,24.164 261.748,24.128 261.348,24.128 L261.348,24.128 L259.008,24.128 L259.008,32 L261.516,32 Z M261.168,27.476 L260.004,27.476 L260.004,24.92 L261.216,24.92 C261.832,24.92 262.294,25.016 262.602,25.208 C262.91,25.4 263.064,25.724 263.064,26.18 C263.064,26.58 262.916,26.896 262.62,27.128 C262.324,27.36 261.84,27.476 261.168,27.476 L261.168,27.476 Z M261.372,31.208 L260.004,31.208 L260.004,28.244 L261.372,28.244 C262.068,28.244 262.6,28.358 262.968,28.586 C263.336,28.814 263.52,29.172 263.52,29.66 C263.52,30.188 263.332,30.578 262.956,30.83 C262.58,31.082 262.052,31.208 261.372,31.208 L261.372,31.208 Z" id="Unobligated$1B" fill="#666666" fill-rule="nonzero"></path>
                <path d="M86,5 L80,5 C78.8954305,5 78,5.8954305 78,7 L78,33 C78,34.1045695 78.8954305,35 80,35 L86,35 L86,35" id="Line-2" stroke="#C6C6C6" stroke-linecap="round"></path>
                <line x1="78" y1="20.5" x2="48" y2="20.5" id="Line-4" stroke="#C6C6C6" stroke-linecap="round"></line>
                <rect id="unobligated" fill="#F3E9FF" x="2" y="0" width="2" height="40"></rect>
                <rect id="obligated" fill="#6F41A7" x="0" y="0" width="2" height="40"></rect>
                <path d="M16.992,27.76 L16.992,26.096 C17.824,25.9146667 18.448,25.5493333 18.864,25 C19.28,24.4506667 19.488,23.792 19.488,23.024 C19.488,22.512 19.384,22.0826667 19.176,21.736 C18.968,21.3893333 18.7066667,21.0933333 18.392,20.848 C18.0773333,20.6026667 17.7386667,20.3946667 17.376,20.224 C17.0133333,20.0533333 16.6746667,19.888 16.36,19.728 C16.0453333,19.568 15.784,19.4 15.576,19.224 C15.368,19.048 15.264,18.832 15.264,18.576 C15.264,18.2133333 15.3653333,17.952 15.568,17.792 C15.7706667,17.632 16.064,17.552 16.448,17.552 C16.7893333,17.552 17.0933333,17.6186667 17.36,17.752 C17.6266667,17.8853333 17.904,18.0853333 18.192,18.352 L18.192,18.352 L19.376,17.008 C19.0666667,16.6773333 18.72,16.3946667 18.336,16.16 C17.952,15.9253333 17.504,15.7706667 16.992,15.696 L16.992,15.696 L16.992,14.08 L15.44,14.08 L15.44,15.728 C14.6826667,15.8773333 14.088,16.2106667 13.656,16.728 C13.224,17.2453333 13.008,17.8986667 13.008,18.688 C13.008,19.168 13.112,19.5733333 13.32,19.904 C13.528,20.2346667 13.7893333,20.5226667 14.104,20.768 C14.4186667,21.0133333 14.7573333,21.224 15.12,21.4 C15.4826667,21.576 15.8213333,21.752 16.136,21.928 C16.4506667,22.104 16.712,22.288 16.92,22.48 C17.128,22.672 17.232,22.9066667 17.232,23.184 C17.232,23.5573333 17.128,23.8346667 16.92,24.016 C16.712,24.1973333 16.384,24.288 15.936,24.288 C15.552,24.288 15.176,24.2106667 14.808,24.056 C14.44,23.9013333 14.0533333,23.6693333 13.648,23.36 L13.648,23.36 L12.624,24.944 C12.9973333,25.2853333 13.4426667,25.56 13.96,25.768 C14.4773333,25.976 14.9706667,26.1066667 15.44,26.16 L15.44,26.16 L15.44,27.76 L16.992,27.76 Z M25.36,26 C25.4026667,25.008 25.4666667,24.1306667 25.552,23.368 C25.6373333,22.6053333 25.7786667,21.8906667 25.976,21.224 C26.1733333,20.5573333 26.4506667,19.912 26.808,19.288 C27.1653333,18.664 27.6373333,17.9946667 28.224,17.28 L28.224,17.28 L28.224,15.84 L21.152,15.84 L21.152,17.824 L25.712,17.824 C25.232,18.4853333 24.8293333,19.1253333 24.504,19.744 C24.1786667,20.3626667 23.912,20.9946667 23.704,21.64 C23.496,22.2853333 23.336,22.9626667 23.224,23.672 C23.112,24.3813333 23.0346667,25.1573333 22.992,26 L22.992,26 L25.36,26 Z M34,26 C34.5653333,26 35.0933333,25.9386667 35.584,25.816 C36.0746667,25.6933333 36.504,25.5066667 36.872,25.256 C37.24,25.0053333 37.528,24.688 37.736,24.304 C37.944,23.92 38.048,23.4613333 38.048,22.928 C38.048,22.576 38,22.264 37.904,21.992 C37.808,21.72 37.6746667,21.4826667 37.504,21.28 C37.3333333,21.0773333 37.136,20.9093333 36.912,20.776 C36.688,20.6426667 36.4426667,20.544 36.176,20.48 L36.176,20.48 L36.176,20.416 C36.3893333,20.3413333 36.5786667,20.224 36.744,20.064 C36.9093333,19.904 37.0506667,19.7226667 37.168,19.52 C37.2853333,19.3173333 37.376,19.0986667 37.44,18.864 C37.504,18.6293333 37.536,18.3946667 37.536,18.16 C37.536,17.6586667 37.4373333,17.2426667 37.24,16.912 C37.0426667,16.5813333 36.7706667,16.3146667 36.424,16.112 C36.0773333,15.9093333 35.672,15.768 35.208,15.688 C34.744,15.608 34.24,15.568 33.696,15.568 L33.696,15.568 L30.128,15.568 L30.128,26 L34,26 Z M33.584,19.744 L32.48,19.744 L32.48,17.392 L33.6,17.392 C34.1546667,17.392 34.5653333,17.4773333 34.832,17.648 C35.0986667,17.8186667 35.232,18.1066667 35.232,18.512 C35.232,18.8853333 35.1013333,19.184 34.84,19.408 C34.5786667,19.632 34.16,19.744 33.584,19.744 L33.584,19.744 Z M33.808,24.176 L32.48,24.176 L32.48,21.488 L33.808,21.488 C34.4586667,21.488 34.944,21.5866667 35.264,21.784 C35.584,21.9813333 35.744,22.3093333 35.744,22.768 C35.744,23.7066667 35.0986667,24.176 33.808,24.176 L33.808,24.176 Z" id="$7B" fill="#555555" fill-rule="nonzero"></path>
            </g>
        </g>
    </g>
</svg>