<?xml version="1.0" encoding="UTF-8"?>
<svg width="323px" height="75px" viewBox="0 0 323 75" version="1.1" xmlns="http://www.w3.org/2000/svg" xmlns:xlink="http://www.w3.org/1999/xlink">
    <title>law 3 - A general</title>
    <g id="SVG-2.0" stroke="none" stroke-width="1" fill="none" fill-rule="evenodd">
        <g id="viz-3-mobile-outline" transform="translate(-36.000000, -1269.000000)">
            <g id="law-3---A-general" transform="translate(36.000000, 1269.000000)">
                <g id="labels" transform="translate(0.000000, 31.000000)">
                    <path d="M4.044,27.144 C4.556,27.144 5.024,27.05 5.448,26.862 C5.872,26.674 6.238,26.402 6.546,26.046 C6.854,25.69 7.092,25.26 7.26,24.756 C7.428,24.252 7.512,23.68 7.512,23.04 C7.512,22.408 7.428,21.842 7.26,21.342 C7.092,20.842 6.854,20.42 6.546,20.076 C6.238,19.732 5.872,19.468 5.448,19.284 C5.024,19.1 4.556,19.008 4.044,19.008 C3.532,19.008 3.064,19.1 2.64,19.284 C2.216,19.468 1.852,19.732 1.548,20.076 C1.244,20.42 1.008,20.842 0.84,21.342 C0.672,21.842 0.588,22.408 0.588,23.04 C0.588,23.68 0.672,24.252 0.84,24.756 C1.008,25.26 1.244,25.69 1.548,26.046 C1.852,26.402 2.216,26.674 2.64,26.862 C3.064,27.05 3.532,27.144 4.044,27.144 Z M4.044,25.932 C3.732,25.932 3.452,25.864 3.204,25.728 C2.956,25.592 2.744,25.398 2.568,25.146 C2.392,24.894 2.256,24.59 2.16,24.234 C2.064,23.878 2.016,23.48 2.016,23.04 C2.016,22.16 2.198,21.47 2.562,20.97 C2.926,20.47 3.42,20.22 4.044,20.22 C4.668,20.22 5.162,20.47 5.526,20.97 C5.89,21.47 6.072,22.16 6.072,23.04 C6.072,23.48 6.024,23.878 5.928,24.234 C5.832,24.59 5.696,24.894 5.52,25.146 C5.344,25.398 5.132,25.592 4.884,25.728 C4.636,25.864 4.356,25.932 4.044,25.932 Z M10.716,27.144 C11.124,27.144 11.478,27.052 11.778,26.868 C12.078,26.684 12.356,26.44 12.612,26.136 L12.612,26.136 L12.648,26.136 L12.756,27 L13.884,27 L13.884,21.108 L12.504,21.108 L12.504,25.14 C12.28,25.428 12.07,25.636 11.874,25.764 C11.678,25.892 11.452,25.956 11.196,25.956 C10.876,25.956 10.644,25.856 10.5,25.656 C10.356,25.456 10.284,25.112 10.284,24.624 L10.284,24.624 L10.284,21.108 L8.904,21.108 L8.904,24.804 C8.904,25.556 9.048,26.134 9.336,26.538 C9.624,26.942 10.084,27.144 10.716,27.144 Z M17.712,27.144 C17.944,27.144 18.162,27.122 18.366,27.078 C18.57,27.034 18.752,26.984 18.912,26.928 L18.912,26.928 L18.672,25.908 C18.584,25.948 18.486,25.98 18.378,26.004 C18.27,26.028 18.164,26.04 18.06,26.04 C17.508,26.04 17.232,25.696 17.232,25.008 L17.232,25.008 L17.232,22.2 L18.732,22.2 L18.732,21.108 L17.232,21.108 L17.232,19.5 L16.08,19.5 L15.912,21.108 L15,21.168 L15,22.2 L15.84,22.2 L15.84,25.008 C15.84,25.328 15.874,25.618 15.942,25.878 C16.01,26.138 16.118,26.362 16.266,26.55 C16.414,26.738 16.606,26.884 16.842,26.988 C17.078,27.092 17.368,27.144 17.712,27.144 Z M21.312,27.144 C21.616,27.144 21.86,27.104 22.044,27.024 L22.044,27.024 L21.864,25.992 C21.808,26.008 21.766,26.016 21.738,26.016 L21.738,26.016 L21.648,26.016 C21.576,26.016 21.508,25.982 21.444,25.914 C21.38,25.846 21.348,25.728 21.348,25.56 L21.348,25.56 L21.348,18.528 L19.968,18.528 L19.968,25.488 C19.968,26 20.068,26.404 20.268,26.7 C20.468,26.996 20.816,27.144 21.312,27.144 Z M24.648,27.144 C25,27.144 25.326,27.068 25.626,26.916 C25.926,26.764 26.208,26.576 26.472,26.352 L26.472,26.352 L26.52,26.352 L26.616,27 L27.756,27 L27.756,23.508 C27.756,22.684 27.574,22.054 27.21,21.618 C26.846,21.182 26.296,20.964 25.56,20.964 C25.088,20.964 24.648,21.04 24.24,21.192 C23.832,21.344 23.464,21.524 23.136,21.732 L23.136,21.732 L23.64,22.656 C23.904,22.496 24.174,22.36 24.45,22.248 C24.726,22.136 25.008,22.08 25.296,22.08 C25.496,22.08 25.664,22.11 25.8,22.17 C25.936,22.23 26.046,22.314 26.13,22.422 C26.214,22.53 26.274,22.654 26.31,22.794 C26.346,22.934 26.368,23.08 26.376,23.232 C25.768,23.296 25.246,23.388 24.81,23.508 C24.374,23.628 24.014,23.776 23.73,23.952 C23.446,24.128 23.238,24.338 23.106,24.582 C22.974,24.826 22.908,25.104 22.908,25.416 C22.908,25.936 23.068,26.354 23.388,26.67 C23.708,26.986 24.128,27.144 24.648,27.144 Z M25.092,26.064 C24.844,26.064 24.64,26.004 24.48,25.884 C24.32,25.764 24.24,25.572 24.24,25.308 C24.24,25.164 24.276,25.028 24.348,24.9 C24.42,24.772 24.54,24.658 24.708,24.558 C24.876,24.458 25.096,24.368 25.368,24.288 C25.64,24.208 25.976,24.144 26.376,24.096 L26.376,24.096 L26.376,25.416 C26.152,25.624 25.942,25.784 25.746,25.896 C25.55,26.008 25.332,26.064 25.092,26.064 Z M29.808,29.424 C30.128,29.424 30.41,29.374 30.654,29.274 C30.898,29.174 31.114,29.03 31.302,28.842 C31.49,28.654 31.656,28.428 31.8,28.164 C31.944,27.9 32.076,27.6 32.196,27.264 L32.196,27.264 L34.332,21.108 L33,21.108 L32.112,24 C32.04,24.264 31.966,24.538 31.89,24.822 C31.814,25.106 31.74,25.384 31.668,25.656 L31.668,25.656 L31.62,25.656 C31.532,25.376 31.446,25.094 31.362,24.81 C31.278,24.526 31.192,24.256 31.104,24 L31.104,24 L30.084,21.108 L28.68,21.108 L30.996,26.928 L30.888,27.3 C30.792,27.596 30.65,27.838 30.462,28.026 C30.274,28.214 30.024,28.308 29.712,28.308 C29.64,28.308 29.566,28.298 29.49,28.278 C29.414,28.258 29.348,28.24 29.292,28.224 L29.292,28.224 L29.04,29.304 C29.152,29.344 29.268,29.374 29.388,29.394 C29.508,29.414 29.648,29.424 29.808,29.424 Z M36.996,27.144 C37.364,27.144 37.692,27.096 37.98,27 C38.268,26.904 38.508,26.774 38.7,26.61 C38.892,26.446 39.038,26.254 39.138,26.034 C39.238,25.814 39.288,25.576 39.288,25.32 C39.288,25.048 39.238,24.814 39.138,24.618 C39.038,24.422 38.906,24.256 38.742,24.12 C38.578,23.984 38.396,23.87 38.196,23.778 C37.996,23.686 37.796,23.604 37.596,23.532 C37.436,23.476 37.282,23.42 37.134,23.364 C36.986,23.308 36.856,23.248 36.744,23.184 C36.632,23.12 36.542,23.046 36.474,22.962 C36.406,22.878 36.372,22.776 36.372,22.656 C36.372,22.472 36.442,22.318 36.582,22.194 C36.722,22.07 36.94,22.008 37.236,22.008 C37.468,22.008 37.69,22.054 37.902,22.146 C38.114,22.238 38.324,22.36 38.532,22.512 L38.532,22.512 L39.168,21.672 C38.928,21.488 38.644,21.324 38.316,21.18 C37.988,21.036 37.62,20.964 37.212,20.964 C36.548,20.964 36.024,21.128 35.64,21.456 C35.256,21.784 35.064,22.208 35.064,22.728 C35.064,22.976 35.114,23.19 35.214,23.37 C35.314,23.55 35.442,23.708 35.598,23.844 C35.754,23.98 35.932,24.096 36.132,24.192 C36.332,24.288 36.528,24.372 36.72,24.444 C36.872,24.508 37.024,24.57 37.176,24.63 C37.328,24.69 37.464,24.756 37.584,24.828 C37.704,24.9 37.8,24.982 37.872,25.074 C37.944,25.166 37.98,25.272 37.98,25.392 C37.98,25.6 37.904,25.77 37.752,25.902 C37.6,26.034 37.364,26.1 37.044,26.1 C36.74,26.1 36.458,26.042 36.198,25.926 C35.938,25.81 35.676,25.648 35.412,25.44 L35.412,25.44 L34.764,26.328 C35.052,26.56 35.394,26.754 35.79,26.91 C36.186,27.066 36.588,27.144 36.996,27.144 Z M3.384,43.32 L3.384,42.108 C3.96,42.028 4.414,41.804 4.746,41.436 C5.078,41.068 5.244,40.596 5.244,40.02 C5.244,39.588 5.162,39.234 4.998,38.958 C4.834,38.682 4.628,38.45 4.38,38.262 C4.132,38.074 3.862,37.914 3.57,37.782 C3.278,37.65 3.008,37.514 2.76,37.374 C2.512,37.234 2.306,37.072 2.142,36.888 C1.978,36.704 1.896,36.468 1.896,36.18 C1.896,35.828 2.004,35.548 2.22,35.34 C2.436,35.132 2.728,35.028 3.096,35.028 C3.424,35.028 3.694,35.088 3.906,35.208 C4.118,35.328 4.336,35.496 4.56,35.712 L4.56,35.712 L5.088,35.124 C4.872,34.892 4.63,34.692 4.362,34.524 C4.094,34.356 3.768,34.252 3.384,34.212 L3.384,34.212 L3.384,33.024 L2.664,33.024 L2.664,34.236 C2.136,34.316 1.714,34.534 1.398,34.89 C1.082,35.246 0.924,35.692 0.924,36.228 C0.924,36.62 1.006,36.942 1.17,37.194 C1.334,37.446 1.54,37.66 1.788,37.836 C2.036,38.012 2.306,38.168 2.598,38.304 C2.89,38.44 3.16,38.586 3.408,38.742 C3.656,38.898 3.862,39.082 4.026,39.294 C4.19,39.506 4.272,39.772 4.272,40.092 C4.272,40.468 4.162,40.768 3.942,40.992 C3.722,41.216 3.388,41.328 2.94,41.328 C2.572,41.328 2.234,41.25 1.926,41.094 C1.618,40.938 1.336,40.748 1.08,40.524 L1.08,40.524 L0.624,41.208 C0.88,41.44 1.188,41.642 1.548,41.814 C1.908,41.986 2.28,42.092 2.664,42.132 L2.664,42.132 L2.664,43.32 L3.384,43.32 Z M8.424,42.144 C8.808,42.144 9.174,42.066 9.522,41.91 C9.87,41.754 10.18,41.506 10.452,41.166 C10.724,40.826 10.94,40.386 11.1,39.846 C11.26,39.306 11.34,38.652 11.34,37.884 C11.34,37.268 11.274,36.73 11.142,36.27 C11.01,35.81 10.826,35.426 10.59,35.118 C10.354,34.81 10.074,34.58 9.75,34.428 C9.426,34.276 9.076,34.2 8.7,34.2 C8.396,34.2 8.106,34.26 7.83,34.38 C7.554,34.5 7.314,34.668 7.11,34.884 C6.906,35.1 6.744,35.358 6.624,35.658 C6.504,35.958 6.444,36.292 6.444,36.66 C6.444,37.452 6.64,38.044 7.032,38.436 C7.424,38.828 7.952,39.024 8.616,39.024 C8.936,39.024 9.256,38.936 9.576,38.76 C9.896,38.584 10.176,38.344 10.416,38.04 C10.408,38.656 10.348,39.172 10.236,39.588 C10.124,40.004 9.976,40.342 9.792,40.602 C9.608,40.862 9.396,41.048 9.156,41.16 C8.916,41.272 8.66,41.328 8.388,41.328 C8.148,41.328 7.918,41.272 7.698,41.16 C7.478,41.048 7.288,40.9 7.128,40.716 L7.128,40.716 L6.576,41.34 C6.784,41.572 7.042,41.764 7.35,41.916 C7.658,42.068 8.016,42.144 8.424,42.144 Z M8.784,38.28 C8.304,38.28 7.948,38.136 7.716,37.848 C7.484,37.56 7.368,37.164 7.368,36.66 C7.368,36.412 7.402,36.184 7.47,35.976 C7.538,35.768 7.632,35.59 7.752,35.442 C7.872,35.294 8.014,35.18 8.178,35.1 C8.342,35.02 8.516,34.98 8.7,34.98 C9.188,34.98 9.576,35.172 9.864,35.556 C10.152,35.94 10.328,36.508 10.392,37.26 C10.144,37.62 9.878,37.88 9.594,38.04 C9.31,38.2 9.04,38.28 8.784,38.28 Z M17.196,42 L17.196,41.184 L15.612,41.184 L15.612,34.344 L14.856,34.344 C14.648,34.472 14.414,34.582 14.154,34.674 C13.894,34.766 13.588,34.844 13.236,34.908 L13.236,34.908 L13.236,35.544 L14.628,35.544 L14.628,41.184 L12.876,41.184 L12.876,42 L17.196,42 Z M21.108,42.144 C21.42,42.144 21.712,42.084 21.984,41.964 C22.256,41.844 22.496,41.676 22.704,41.46 C22.912,41.244 23.076,40.986 23.196,40.686 C23.316,40.386 23.376,40.052 23.376,39.684 C23.376,38.892 23.178,38.3 22.782,37.908 C22.386,37.516 21.856,37.32 21.192,37.32 C20.88,37.32 20.564,37.406 20.244,37.578 C19.924,37.75 19.644,37.984 19.404,38.28 C19.412,37.672 19.472,37.162 19.584,36.75 C19.696,36.338 19.844,36.004 20.028,35.748 C20.212,35.492 20.424,35.308 20.664,35.196 C20.904,35.084 21.156,35.028 21.42,35.028 C21.66,35.028 21.89,35.082 22.11,35.19 C22.33,35.298 22.52,35.444 22.68,35.628 L22.68,35.628 L23.232,35.016 C23.016,34.784 22.758,34.59 22.458,34.434 C22.158,34.278 21.8,34.2 21.384,34.2 C21,34.2 20.634,34.278 20.286,34.434 C19.938,34.59 19.628,34.838 19.356,35.178 C19.084,35.518 18.868,35.958 18.708,36.498 C18.548,37.038 18.468,37.692 18.468,38.46 C18.468,39.076 18.536,39.614 18.672,40.074 C18.808,40.534 18.994,40.918 19.23,41.226 C19.466,41.534 19.744,41.764 20.064,41.916 C20.384,42.068 20.732,42.144 21.108,42.144 Z M21.108,41.364 C20.62,41.364 20.234,41.17 19.95,40.782 C19.666,40.394 19.492,39.824 19.428,39.072 C19.668,38.712 19.932,38.454 20.22,38.298 C20.508,38.142 20.776,38.064 21.024,38.064 C21.504,38.064 21.86,38.208 22.092,38.496 C22.324,38.784 22.44,39.18 22.44,39.684 C22.44,39.94 22.406,40.17 22.338,40.374 C22.27,40.578 22.176,40.754 22.056,40.902 C21.936,41.05 21.796,41.164 21.636,41.244 C21.476,41.324 21.3,41.364 21.108,41.364 Z M27.444,42 C27.884,42 28.288,41.952 28.656,41.856 C29.024,41.76 29.34,41.616 29.604,41.424 C29.868,41.232 30.072,40.992 30.216,40.704 C30.36,40.416 30.432,40.08 30.432,39.696 C30.432,39.152 30.284,38.724 29.988,38.412 C29.692,38.1 29.304,37.9 28.824,37.812 L28.824,37.812 L28.824,37.764 C29.2,37.644 29.486,37.426 29.682,37.11 C29.878,36.794 29.976,36.44 29.976,36.048 C29.976,35.704 29.91,35.41 29.778,35.166 C29.646,34.922 29.462,34.724 29.226,34.572 C28.99,34.42 28.706,34.308 28.374,34.236 C28.042,34.164 27.676,34.128 27.276,34.128 L27.276,34.128 L24.936,34.128 L24.936,42 L27.444,42 Z M27.096,37.476 L25.932,37.476 L25.932,34.92 L27.144,34.92 C27.76,34.92 28.222,35.016 28.53,35.208 C28.838,35.4 28.992,35.724 28.992,36.18 C28.992,36.58 28.844,36.896 28.548,37.128 C28.252,37.36 27.768,37.476 27.096,37.476 L27.096,37.476 Z M27.3,41.208 L25.932,41.208 L25.932,38.244 L27.3,38.244 C27.996,38.244 28.528,38.358 28.896,38.586 C29.264,38.814 29.448,39.172 29.448,39.66 C29.448,40.188 29.26,40.578 28.884,40.83 C28.508,41.082 27.98,41.208 27.3,41.208 L27.3,41.208 Z" id="Outlays$916B" fill="#555555" fill-rule="nonzero"></path>
                    <path d="M124.044,27.144 C124.556,27.144 125.024,27.05 125.448,26.862 C125.872,26.674 126.238,26.402 126.546,26.046 C126.854,25.69 127.092,25.26 127.26,24.756 C127.428,24.252 127.512,23.68 127.512,23.04 C127.512,22.408 127.428,21.842 127.26,21.342 C127.092,20.842 126.854,20.42 126.546,20.076 C126.238,19.732 125.872,19.468 125.448,19.284 C125.024,19.1 124.556,19.008 124.044,19.008 C123.532,19.008 123.064,19.1 122.64,19.284 C122.216,19.468 121.852,19.732 121.548,20.076 C121.244,20.42 121.008,20.842 120.84,21.342 C120.672,21.842 120.588,22.408 120.588,23.04 C120.588,23.68 120.672,24.252 120.84,24.756 C121.008,25.26 121.244,25.69 121.548,26.046 C121.852,26.402 122.216,26.674 122.64,26.862 C123.064,27.05 123.532,27.144 124.044,27.144 Z M124.044,25.932 C123.732,25.932 123.452,25.864 123.204,25.728 C122.956,25.592 122.744,25.398 122.568,25.146 C122.392,24.894 122.256,24.59 122.16,24.234 C122.064,23.878 122.016,23.48 122.016,23.04 C122.016,22.16 122.198,21.47 122.562,20.97 C122.926,20.47 123.42,20.22 124.044,20.22 C124.668,20.22 125.162,20.47 125.526,20.97 C125.89,21.47 126.072,22.16 126.072,23.04 C126.072,23.48 126.024,23.878 125.928,24.234 C125.832,24.59 125.696,24.894 125.52,25.146 C125.344,25.398 125.132,25.592 124.884,25.728 C124.636,25.864 124.356,25.932 124.044,25.932 Z M131.82,27.144 C132.148,27.144 132.464,27.072 132.768,26.928 C133.072,26.784 133.34,26.576 133.572,26.304 C133.804,26.032 133.99,25.698 134.13,25.302 C134.27,24.906 134.34,24.456 134.34,23.952 C134.34,23.496 134.288,23.084 134.184,22.716 C134.08,22.348 133.928,22.034 133.728,21.774 C133.528,21.514 133.284,21.314 132.996,21.174 C132.708,21.034 132.38,20.964 132.012,20.964 C131.708,20.964 131.41,21.032 131.118,21.168 C130.826,21.304 130.556,21.48 130.308,21.696 L130.308,21.696 L130.344,20.712 L130.344,18.528 L128.964,18.528 L128.964,27 L130.056,27 L130.176,26.376 L130.212,26.376 C130.46,26.624 130.722,26.814 130.998,26.946 C131.274,27.078 131.548,27.144 131.82,27.144 Z M131.532,26.004 C131.356,26.004 131.166,25.968 130.962,25.896 C130.758,25.824 130.552,25.696 130.344,25.512 L130.344,25.512 L130.344,22.764 C130.792,22.324 131.224,22.104 131.64,22.104 C132.088,22.104 132.412,22.268 132.612,22.596 C132.812,22.924 132.912,23.384 132.912,23.976 C132.912,24.648 132.78,25.154 132.516,25.494 C132.252,25.834 131.924,26.004 131.532,26.004 Z M137.064,27.144 C137.368,27.144 137.612,27.104 137.796,27.024 L137.796,27.024 L137.616,25.992 C137.56,26.008 137.518,26.016 137.49,26.016 L137.49,26.016 L137.4,26.016 C137.328,26.016 137.26,25.982 137.196,25.914 C137.132,25.846 137.1,25.728 137.1,25.56 L137.1,25.56 L137.1,18.528 L135.72,18.528 L135.72,25.488 C135.72,26 135.82,26.404 136.02,26.7 C136.22,26.996 136.568,27.144 137.064,27.144 Z M139.668,20.076 C139.916,20.076 140.12,20.004 140.28,19.86 C140.44,19.716 140.52,19.528 140.52,19.296 C140.52,19.064 140.44,18.874 140.28,18.726 C140.12,18.578 139.916,18.504 139.668,18.504 C139.42,18.504 139.216,18.578 139.056,18.726 C138.896,18.874 138.816,19.064 138.816,19.296 C138.816,19.528 138.896,19.716 139.056,19.86 C139.216,20.004 139.42,20.076 139.668,20.076 Z M140.352,27 L140.352,21.108 L138.972,21.108 L138.972,27 L140.352,27 Z M144.168,29.604 C144.648,29.604 145.082,29.55 145.47,29.442 C145.858,29.334 146.188,29.188 146.46,29.004 C146.732,28.82 146.942,28.6 147.09,28.344 C147.238,28.088 147.312,27.816 147.312,27.528 C147.312,27.016 147.13,26.646 146.766,26.418 C146.402,26.19 145.864,26.076 145.152,26.076 L145.152,26.076 L144.108,26.076 C143.748,26.076 143.498,26.028 143.358,25.932 C143.218,25.836 143.148,25.704 143.148,25.536 C143.148,25.4 143.174,25.292 143.226,25.212 C143.278,25.132 143.348,25.052 143.436,24.972 C143.572,25.028 143.708,25.068 143.844,25.092 C143.98,25.116 144.112,25.128 144.24,25.128 C144.552,25.128 144.844,25.084 145.116,24.996 C145.388,24.908 145.624,24.78 145.824,24.612 C146.024,24.444 146.182,24.236 146.298,23.988 C146.414,23.74 146.472,23.452 146.472,23.124 C146.472,22.916 146.44,22.726 146.376,22.554 C146.312,22.382 146.232,22.24 146.136,22.128 L146.136,22.128 L147.216,22.128 L147.216,21.108 L145.104,21.108 C144.984,21.068 144.85,21.034 144.702,21.006 C144.554,20.978 144.4,20.964 144.24,20.964 C143.928,20.964 143.632,21.01 143.352,21.102 C143.072,21.194 142.826,21.33 142.614,21.51 C142.402,21.69 142.232,21.912 142.104,22.176 C141.976,22.44 141.912,22.74 141.912,23.076 C141.912,23.428 141.99,23.738 142.146,24.006 C142.302,24.274 142.48,24.484 142.68,24.636 L142.68,24.636 L142.68,24.684 C142.512,24.804 142.362,24.958 142.23,25.146 C142.098,25.334 142.032,25.544 142.032,25.776 C142.032,26.016 142.082,26.216 142.182,26.376 C142.282,26.536 142.408,26.664 142.56,26.76 L142.56,26.76 L142.56,26.808 C142.288,26.976 142.08,27.166 141.936,27.378 C141.792,27.59 141.72,27.82 141.72,28.068 C141.72,28.324 141.782,28.548 141.906,28.74 C142.03,28.932 142.2,29.092 142.416,29.22 C142.632,29.348 142.89,29.444 143.19,29.508 C143.49,29.572 143.816,29.604 144.168,29.604 Z M144.24,24.264 C143.952,24.264 143.708,24.162 143.508,23.958 C143.308,23.754 143.208,23.46 143.208,23.076 C143.208,22.7 143.308,22.412 143.508,22.212 C143.708,22.012 143.952,21.912 144.24,21.912 C144.528,21.912 144.77,22.014 144.966,22.218 C145.162,22.422 145.26,22.708 145.26,23.076 C145.26,23.46 145.16,23.754 144.96,23.958 C144.76,24.162 144.52,24.264 144.24,24.264 Z M144.384,28.704 C143.912,28.704 143.542,28.63 143.274,28.482 C143.006,28.334 142.872,28.128 142.872,27.864 C142.872,27.576 143.024,27.316 143.328,27.084 C143.544,27.14 143.812,27.168 144.132,27.168 L144.132,27.168 L144.936,27.168 C145.272,27.168 145.53,27.208 145.71,27.288 C145.89,27.368 145.98,27.524 145.98,27.756 C145.98,28.012 145.834,28.234 145.542,28.422 C145.25,28.61 144.864,28.704 144.384,28.704 Z M149.568,27.144 C149.92,27.144 150.246,27.068 150.546,26.916 C150.846,26.764 151.128,26.576 151.392,26.352 L151.392,26.352 L151.44,26.352 L151.536,27 L152.676,27 L152.676,23.508 C152.676,22.684 152.494,22.054 152.13,21.618 C151.766,21.182 151.216,20.964 150.48,20.964 C150.008,20.964 149.568,21.04 149.16,21.192 C148.752,21.344 148.384,21.524 148.056,21.732 L148.056,21.732 L148.56,22.656 C148.824,22.496 149.094,22.36 149.37,22.248 C149.646,22.136 149.928,22.08 150.216,22.08 C150.416,22.08 150.584,22.11 150.72,22.17 C150.856,22.23 150.966,22.314 151.05,22.422 C151.134,22.53 151.194,22.654 151.23,22.794 C151.266,22.934 151.288,23.08 151.296,23.232 C150.688,23.296 150.166,23.388 149.73,23.508 C149.294,23.628 148.934,23.776 148.65,23.952 C148.366,24.128 148.158,24.338 148.026,24.582 C147.894,24.826 147.828,25.104 147.828,25.416 C147.828,25.936 147.988,26.354 148.308,26.67 C148.628,26.986 149.048,27.144 149.568,27.144 Z M150.012,26.064 C149.764,26.064 149.56,26.004 149.4,25.884 C149.24,25.764 149.16,25.572 149.16,25.308 C149.16,25.164 149.196,25.028 149.268,24.9 C149.34,24.772 149.46,24.658 149.628,24.558 C149.796,24.458 150.016,24.368 150.288,24.288 C150.56,24.208 150.896,24.144 151.296,24.096 L151.296,24.096 L151.296,25.416 C151.072,25.624 150.862,25.784 150.666,25.896 C150.47,26.008 150.252,26.064 150.012,26.064 Z M156.216,27.144 C156.448,27.144 156.666,27.122 156.87,27.078 C157.074,27.034 157.256,26.984 157.416,26.928 L157.416,26.928 L157.176,25.908 C157.088,25.948 156.99,25.98 156.882,26.004 C156.774,26.028 156.668,26.04 156.564,26.04 C156.012,26.04 155.736,25.696 155.736,25.008 L155.736,25.008 L155.736,22.2 L157.236,22.2 L157.236,21.108 L155.736,21.108 L155.736,19.5 L154.584,19.5 L154.416,21.108 L153.504,21.168 L153.504,22.2 L154.344,22.2 L154.344,25.008 C154.344,25.328 154.378,25.618 154.446,25.878 C154.514,26.138 154.622,26.362 154.77,26.55 C154.918,26.738 155.11,26.884 155.346,26.988 C155.582,27.092 155.872,27.144 156.216,27.144 Z M159.168,20.076 C159.416,20.076 159.62,20.004 159.78,19.86 C159.94,19.716 160.02,19.528 160.02,19.296 C160.02,19.064 159.94,18.874 159.78,18.726 C159.62,18.578 159.416,18.504 159.168,18.504 C158.92,18.504 158.716,18.578 158.556,18.726 C158.396,18.874 158.316,19.064 158.316,19.296 C158.316,19.528 158.396,19.716 158.556,19.86 C158.716,20.004 158.92,20.076 159.168,20.076 Z M159.852,27 L159.852,21.108 L158.472,21.108 L158.472,27 L159.852,27 Z M164.028,27.144 C164.396,27.144 164.75,27.076 165.09,26.94 C165.43,26.804 165.728,26.604 165.984,26.34 C166.24,26.076 166.446,25.752 166.602,25.368 C166.758,24.984 166.836,24.548 166.836,24.06 C166.836,23.572 166.758,23.136 166.602,22.752 C166.446,22.368 166.24,22.044 165.984,21.78 C165.728,21.516 165.43,21.314 165.09,21.174 C164.75,21.034 164.396,20.964 164.028,20.964 C163.66,20.964 163.308,21.034 162.972,21.174 C162.636,21.314 162.338,21.516 162.078,21.78 C161.818,22.044 161.612,22.368 161.46,22.752 C161.308,23.136 161.232,23.572 161.232,24.06 C161.232,24.548 161.308,24.984 161.46,25.368 C161.612,25.752 161.818,26.076 162.078,26.34 C162.338,26.604 162.636,26.804 162.972,26.94 C163.308,27.076 163.66,27.144 164.028,27.144 Z M164.028,26.016 C163.596,26.016 163.258,25.838 163.014,25.482 C162.77,25.126 162.648,24.652 162.648,24.06 C162.648,23.46 162.77,22.982 163.014,22.626 C163.258,22.27 163.596,22.092 164.028,22.092 C164.46,22.092 164.8,22.27 165.048,22.626 C165.296,22.982 165.42,23.46 165.42,24.06 C165.42,24.652 165.296,25.126 165.048,25.482 C164.8,25.838 164.46,26.016 164.028,26.016 Z M169.584,27 L169.584,22.884 C169.832,22.644 170.054,22.462 170.25,22.338 C170.446,22.214 170.672,22.152 170.928,22.152 C171.256,22.152 171.492,22.252 171.636,22.452 C171.78,22.652 171.852,22.996 171.852,23.484 L171.852,23.484 L171.852,27 L173.232,27 L173.232,23.304 C173.232,22.552 173.088,21.974 172.8,21.57 C172.512,21.166 172.052,20.964 171.42,20.964 C171.012,20.964 170.654,21.056 170.346,21.24 C170.038,21.424 169.752,21.644 169.488,21.9 L169.488,21.9 L169.44,21.9 L169.344,21.108 L168.204,21.108 L168.204,27 L169.584,27 Z M176.568,27.144 C176.936,27.144 177.264,27.096 177.552,27 C177.84,26.904 178.08,26.774 178.272,26.61 C178.464,26.446 178.61,26.254 178.71,26.034 C178.81,25.814 178.86,25.576 178.86,25.32 C178.86,25.048 178.81,24.814 178.71,24.618 C178.61,24.422 178.478,24.256 178.314,24.12 C178.15,23.984 177.968,23.87 177.768,23.778 C177.568,23.686 177.368,23.604 177.168,23.532 C177.008,23.476 176.854,23.42 176.706,23.364 C176.558,23.308 176.428,23.248 176.316,23.184 C176.204,23.12 176.114,23.046 176.046,22.962 C175.978,22.878 175.944,22.776 175.944,22.656 C175.944,22.472 176.014,22.318 176.154,22.194 C176.294,22.07 176.512,22.008 176.808,22.008 C177.04,22.008 177.262,22.054 177.474,22.146 C177.686,22.238 177.896,22.36 178.104,22.512 L178.104,22.512 L178.74,21.672 C178.5,21.488 178.216,21.324 177.888,21.18 C177.56,21.036 177.192,20.964 176.784,20.964 C176.12,20.964 175.596,21.128 175.212,21.456 C174.828,21.784 174.636,22.208 174.636,22.728 C174.636,22.976 174.686,23.19 174.786,23.37 C174.886,23.55 175.014,23.708 175.17,23.844 C175.326,23.98 175.504,24.096 175.704,24.192 C175.904,24.288 176.1,24.372 176.292,24.444 C176.444,24.508 176.596,24.57 176.748,24.63 C176.9,24.69 177.036,24.756 177.156,24.828 C177.276,24.9 177.372,24.982 177.444,25.074 C177.516,25.166 177.552,25.272 177.552,25.392 C177.552,25.6 177.476,25.77 177.324,25.902 C177.172,26.034 176.936,26.1 176.616,26.1 C176.312,26.1 176.03,26.042 175.77,25.926 C175.51,25.81 175.248,25.648 174.984,25.44 L174.984,25.44 L174.336,26.328 C174.624,26.56 174.966,26.754 175.362,26.91 C175.758,27.066 176.16,27.144 176.568,27.144 Z M123.384,43.32 L123.384,42.108 C123.96,42.028 124.414,41.804 124.746,41.436 C125.078,41.068 125.244,40.596 125.244,40.02 C125.244,39.588 125.162,39.234 124.998,38.958 C124.834,38.682 124.628,38.45 124.38,38.262 C124.132,38.074 123.862,37.914 123.57,37.782 C123.278,37.65 123.008,37.514 122.76,37.374 C122.512,37.234 122.306,37.072 122.142,36.888 C121.978,36.704 121.896,36.468 121.896,36.18 C121.896,35.828 122.004,35.548 122.22,35.34 C122.436,35.132 122.728,35.028 123.096,35.028 C123.424,35.028 123.694,35.088 123.906,35.208 C124.118,35.328 124.336,35.496 124.56,35.712 L124.56,35.712 L125.088,35.124 C124.872,34.892 124.63,34.692 124.362,34.524 C124.094,34.356 123.768,34.252 123.384,34.212 L123.384,34.212 L123.384,33.024 L122.664,33.024 L122.664,34.236 C122.136,34.316 121.714,34.534 121.398,34.89 C121.082,35.246 120.924,35.692 120.924,36.228 C120.924,36.62 121.006,36.942 121.17,37.194 C121.334,37.446 121.54,37.66 121.788,37.836 C122.036,38.012 122.306,38.168 122.598,38.304 C122.89,38.44 123.16,38.586 123.408,38.742 C123.656,38.898 123.862,39.082 124.026,39.294 C124.19,39.506 124.272,39.772 124.272,40.092 C124.272,40.468 124.162,40.768 123.942,40.992 C123.722,41.216 123.388,41.328 122.94,41.328 C122.572,41.328 122.234,41.25 121.926,41.094 C121.618,40.938 121.336,40.748 121.08,40.524 L121.08,40.524 L120.624,41.208 C120.88,41.44 121.188,41.642 121.548,41.814 C121.908,41.986 122.28,42.092 122.664,42.132 L122.664,42.132 L122.664,43.32 L123.384,43.32 Z M131.232,42 L131.232,41.184 L129.648,41.184 L129.648,34.344 L128.892,34.344 C128.684,34.472 128.45,34.582 128.19,34.674 C127.93,34.766 127.624,34.844 127.272,34.908 L127.272,34.908 L127.272,35.544 L128.664,35.544 L128.664,41.184 L126.912,41.184 L126.912,42 L131.232,42 Z M133.428,42.144 C133.62,42.144 133.786,42.074 133.926,41.934 C134.066,41.794 134.136,41.616 134.136,41.4 C134.136,41.168 134.066,40.982 133.926,40.842 C133.786,40.702 133.62,40.632 133.428,40.632 C133.228,40.632 133.058,40.702 132.918,40.842 C132.778,40.982 132.708,41.168 132.708,41.4 C132.708,41.616 132.778,41.794 132.918,41.934 C133.058,42.074 133.228,42.144 133.428,42.144 Z M137.904,42.144 C138.672,42.144 139.272,41.8 139.704,41.112 C140.136,40.424 140.352,39.436 140.352,38.148 C140.352,36.86 140.136,35.88 139.704,35.208 C139.272,34.536 138.672,34.2 137.904,34.2 C137.128,34.2 136.524,34.536 136.092,35.208 C135.66,35.88 135.444,36.86 135.444,38.148 C135.444,39.436 135.66,40.424 136.092,41.112 C136.524,41.8 137.128,42.144 137.904,42.144 Z M137.904,41.352 C137.456,41.352 137.094,41.098 136.818,40.59 C136.542,40.082 136.404,39.268 136.404,38.148 C136.404,37.588 136.44,37.108 136.512,36.708 C136.584,36.308 136.686,35.982 136.818,35.73 C136.95,35.478 137.108,35.292 137.292,35.172 C137.476,35.052 137.68,34.992 137.904,34.992 C138.128,34.992 138.33,35.052 138.51,35.172 C138.69,35.292 138.846,35.478 138.978,35.73 C139.11,35.982 139.212,36.308 139.284,36.708 C139.356,37.108 139.392,37.588 139.392,38.148 C139.392,38.708 139.356,39.19 139.284,39.594 C139.212,39.998 139.11,40.33 138.978,40.59 C138.846,40.85 138.69,41.042 138.51,41.166 C138.33,41.29 138.128,41.352 137.904,41.352 Z M145.464,42 L145.464,39.888 L146.508,39.888 L146.508,39.096 L145.464,39.096 L145.464,34.344 L144.36,34.344 L141.084,39.24 L141.084,39.888 L144.528,39.888 L144.528,42 L145.464,42 Z M144.528,39.096 L142.128,39.096 L143.916,36.48 C144.028,36.296 144.136,36.116 144.24,35.94 C144.344,35.764 144.444,35.584 144.54,35.4 L144.54,35.4 L144.588,35.4 C144.572,35.608 144.558,35.854 144.546,36.138 C144.534,36.422 144.528,36.668 144.528,36.876 L144.528,36.876 L144.528,39.096 Z M150.564,42 L150.564,34.968 L152.94,34.968 L152.94,34.128 L147.18,34.128 L147.18,34.968 L149.556,34.968 L149.556,42 L150.564,42 Z" id="Obligations$1.04T" fill="#555555" fill-rule="nonzero"></path>
                    <path d="M263.936,27.144 C264.392,27.144 264.802,27.078 265.166,26.946 C265.53,26.814 265.842,26.604 266.102,26.316 C266.362,26.028 266.56,25.658 266.696,25.206 C266.832,24.754 266.9,24.204 266.9,23.556 L266.9,23.556 L266.9,19.152 L265.568,19.152 L265.568,23.664 C265.568,24.088 265.528,24.446 265.448,24.738 C265.368,25.03 265.256,25.264 265.112,25.44 C264.968,25.616 264.796,25.742 264.596,25.818 C264.396,25.894 264.176,25.932 263.936,25.932 C263.696,25.932 263.48,25.894 263.288,25.818 C263.096,25.742 262.93,25.616 262.79,25.44 C262.65,25.264 262.542,25.03 262.466,24.738 C262.39,24.446 262.352,24.088 262.352,23.664 L262.352,23.664 L262.352,19.152 L260.96,19.152 L260.96,23.556 C260.96,24.204 261.03,24.754 261.17,25.206 C261.31,25.658 261.51,26.028 261.77,26.316 C262.03,26.604 262.342,26.814 262.706,26.946 C263.07,27.078 263.48,27.144 263.936,27.144 Z M270.116,27 L270.116,22.884 C270.364,22.644 270.586,22.462 270.782,22.338 C270.978,22.214 271.204,22.152 271.46,22.152 C271.788,22.152 272.024,22.252 272.168,22.452 C272.312,22.652 272.384,22.996 272.384,23.484 L272.384,23.484 L272.384,27 L273.764,27 L273.764,23.304 C273.764,22.552 273.62,21.974 273.332,21.57 C273.044,21.166 272.584,20.964 271.952,20.964 C271.544,20.964 271.186,21.056 270.878,21.24 C270.57,21.424 270.284,21.644 270.02,21.9 L270.02,21.9 L269.972,21.9 L269.876,21.108 L268.736,21.108 L268.736,27 L270.116,27 Z M277.868,27.144 C278.236,27.144 278.59,27.076 278.93,26.94 C279.27,26.804 279.568,26.604 279.824,26.34 C280.08,26.076 280.286,25.752 280.442,25.368 C280.598,24.984 280.676,24.548 280.676,24.06 C280.676,23.572 280.598,23.136 280.442,22.752 C280.286,22.368 280.08,22.044 279.824,21.78 C279.568,21.516 279.27,21.314 278.93,21.174 C278.59,21.034 278.236,20.964 277.868,20.964 C277.5,20.964 277.148,21.034 276.812,21.174 C276.476,21.314 276.178,21.516 275.918,21.78 C275.658,22.044 275.452,22.368 275.3,22.752 C275.148,23.136 275.072,23.572 275.072,24.06 C275.072,24.548 275.148,24.984 275.3,25.368 C275.452,25.752 275.658,26.076 275.918,26.34 C276.178,26.604 276.476,26.804 276.812,26.94 C277.148,27.076 277.5,27.144 277.868,27.144 Z M277.868,26.016 C277.436,26.016 277.098,25.838 276.854,25.482 C276.61,25.126 276.488,24.652 276.488,24.06 C276.488,23.46 276.61,22.982 276.854,22.626 C277.098,22.27 277.436,22.092 277.868,22.092 C278.3,22.092 278.64,22.27 278.888,22.626 C279.136,22.982 279.26,23.46 279.26,24.06 C279.26,24.652 279.136,25.126 278.888,25.482 C278.64,25.838 278.3,26.016 277.868,26.016 Z M284.9,27.144 C285.228,27.144 285.544,27.072 285.848,26.928 C286.152,26.784 286.42,26.576 286.652,26.304 C286.884,26.032 287.07,25.698 287.21,25.302 C287.35,24.906 287.42,24.456 287.42,23.952 C287.42,23.496 287.368,23.084 287.264,22.716 C287.16,22.348 287.008,22.034 286.808,21.774 C286.608,21.514 286.364,21.314 286.076,21.174 C285.788,21.034 285.46,20.964 285.092,20.964 C284.788,20.964 284.49,21.032 284.198,21.168 C283.906,21.304 283.636,21.48 283.388,21.696 L283.388,21.696 L283.424,20.712 L283.424,18.528 L282.044,18.528 L282.044,27 L283.136,27 L283.256,26.376 L283.292,26.376 C283.54,26.624 283.802,26.814 284.078,26.946 C284.354,27.078 284.628,27.144 284.9,27.144 Z M284.612,26.004 C284.436,26.004 284.246,25.968 284.042,25.896 C283.838,25.824 283.632,25.696 283.424,25.512 L283.424,25.512 L283.424,22.764 C283.872,22.324 284.304,22.104 284.72,22.104 C285.168,22.104 285.492,22.268 285.692,22.596 C285.892,22.924 285.992,23.384 285.992,23.976 C285.992,24.648 285.86,25.154 285.596,25.494 C285.332,25.834 285.004,26.004 284.612,26.004 Z M290.144,27.144 C290.448,27.144 290.692,27.104 290.876,27.024 L290.876,27.024 L290.696,25.992 C290.64,26.008 290.598,26.016 290.57,26.016 L290.57,26.016 L290.48,26.016 C290.408,26.016 290.34,25.982 290.276,25.914 C290.212,25.846 290.18,25.728 290.18,25.56 L290.18,25.56 L290.18,18.528 L288.8,18.528 L288.8,25.488 C288.8,26 288.9,26.404 289.1,26.7 C289.3,26.996 289.648,27.144 290.144,27.144 Z M292.748,20.076 C292.996,20.076 293.2,20.004 293.36,19.86 C293.52,19.716 293.6,19.528 293.6,19.296 C293.6,19.064 293.52,18.874 293.36,18.726 C293.2,18.578 292.996,18.504 292.748,18.504 C292.5,18.504 292.296,18.578 292.136,18.726 C291.976,18.874 291.896,19.064 291.896,19.296 C291.896,19.528 291.976,19.716 292.136,19.86 C292.296,20.004 292.5,20.076 292.748,20.076 Z M293.432,27 L293.432,21.108 L292.052,21.108 L292.052,27 L293.432,27 Z M297.248,29.604 C297.728,29.604 298.162,29.55 298.55,29.442 C298.938,29.334 299.268,29.188 299.54,29.004 C299.812,28.82 300.022,28.6 300.17,28.344 C300.318,28.088 300.392,27.816 300.392,27.528 C300.392,27.016 300.21,26.646 299.846,26.418 C299.482,26.19 298.944,26.076 298.232,26.076 L298.232,26.076 L297.188,26.076 C296.828,26.076 296.578,26.028 296.438,25.932 C296.298,25.836 296.228,25.704 296.228,25.536 C296.228,25.4 296.254,25.292 296.306,25.212 C296.358,25.132 296.428,25.052 296.516,24.972 C296.652,25.028 296.788,25.068 296.924,25.092 C297.06,25.116 297.192,25.128 297.32,25.128 C297.632,25.128 297.924,25.084 298.196,24.996 C298.468,24.908 298.704,24.78 298.904,24.612 C299.104,24.444 299.262,24.236 299.378,23.988 C299.494,23.74 299.552,23.452 299.552,23.124 C299.552,22.916 299.52,22.726 299.456,22.554 C299.392,22.382 299.312,22.24 299.216,22.128 L299.216,22.128 L300.296,22.128 L300.296,21.108 L298.184,21.108 C298.064,21.068 297.93,21.034 297.782,21.006 C297.634,20.978 297.48,20.964 297.32,20.964 C297.008,20.964 296.712,21.01 296.432,21.102 C296.152,21.194 295.906,21.33 295.694,21.51 C295.482,21.69 295.312,21.912 295.184,22.176 C295.056,22.44 294.992,22.74 294.992,23.076 C294.992,23.428 295.07,23.738 295.226,24.006 C295.382,24.274 295.56,24.484 295.76,24.636 L295.76,24.636 L295.76,24.684 C295.592,24.804 295.442,24.958 295.31,25.146 C295.178,25.334 295.112,25.544 295.112,25.776 C295.112,26.016 295.162,26.216 295.262,26.376 C295.362,26.536 295.488,26.664 295.64,26.76 L295.64,26.76 L295.64,26.808 C295.368,26.976 295.16,27.166 295.016,27.378 C294.872,27.59 294.8,27.82 294.8,28.068 C294.8,28.324 294.862,28.548 294.986,28.74 C295.11,28.932 295.28,29.092 295.496,29.22 C295.712,29.348 295.97,29.444 296.27,29.508 C296.57,29.572 296.896,29.604 297.248,29.604 Z M297.32,24.264 C297.032,24.264 296.788,24.162 296.588,23.958 C296.388,23.754 296.288,23.46 296.288,23.076 C296.288,22.7 296.388,22.412 296.588,22.212 C296.788,22.012 297.032,21.912 297.32,21.912 C297.608,21.912 297.85,22.014 298.046,22.218 C298.242,22.422 298.34,22.708 298.34,23.076 C298.34,23.46 298.24,23.754 298.04,23.958 C297.84,24.162 297.6,24.264 297.32,24.264 Z M297.464,28.704 C296.992,28.704 296.622,28.63 296.354,28.482 C296.086,28.334 295.952,28.128 295.952,27.864 C295.952,27.576 296.104,27.316 296.408,27.084 C296.624,27.14 296.892,27.168 297.212,27.168 L297.212,27.168 L298.016,27.168 C298.352,27.168 298.61,27.208 298.79,27.288 C298.97,27.368 299.06,27.524 299.06,27.756 C299.06,28.012 298.914,28.234 298.622,28.422 C298.33,28.61 297.944,28.704 297.464,28.704 Z M302.648,27.144 C303,27.144 303.326,27.068 303.626,26.916 C303.926,26.764 304.208,26.576 304.472,26.352 L304.472,26.352 L304.52,26.352 L304.616,27 L305.756,27 L305.756,23.508 C305.756,22.684 305.574,22.054 305.21,21.618 C304.846,21.182 304.296,20.964 303.56,20.964 C303.088,20.964 302.648,21.04 302.24,21.192 C301.832,21.344 301.464,21.524 301.136,21.732 L301.136,21.732 L301.64,22.656 C301.904,22.496 302.174,22.36 302.45,22.248 C302.726,22.136 303.008,22.08 303.296,22.08 C303.496,22.08 303.664,22.11 303.8,22.17 C303.936,22.23 304.046,22.314 304.13,22.422 C304.214,22.53 304.274,22.654 304.31,22.794 C304.346,22.934 304.368,23.08 304.376,23.232 C303.768,23.296 303.246,23.388 302.81,23.508 C302.374,23.628 302.014,23.776 301.73,23.952 C301.446,24.128 301.238,24.338 301.106,24.582 C300.974,24.826 300.908,25.104 300.908,25.416 C300.908,25.936 301.068,26.354 301.388,26.67 C301.708,26.986 302.128,27.144 302.648,27.144 Z M303.092,26.064 C302.844,26.064 302.64,26.004 302.48,25.884 C302.32,25.764 302.24,25.572 302.24,25.308 C302.24,25.164 302.276,25.028 302.348,24.9 C302.42,24.772 302.54,24.658 302.708,24.558 C302.876,24.458 303.096,24.368 303.368,24.288 C303.64,24.208 303.976,24.144 304.376,24.096 L304.376,24.096 L304.376,25.416 C304.152,25.624 303.942,25.784 303.746,25.896 C303.55,26.008 303.332,26.064 303.092,26.064 Z M309.296,27.144 C309.528,27.144 309.746,27.122 309.95,27.078 C310.154,27.034 310.336,26.984 310.496,26.928 L310.496,26.928 L310.256,25.908 C310.168,25.948 310.07,25.98 309.962,26.004 C309.854,26.028 309.748,26.04 309.644,26.04 C309.092,26.04 308.816,25.696 308.816,25.008 L308.816,25.008 L308.816,22.2 L310.316,22.2 L310.316,21.108 L308.816,21.108 L308.816,19.5 L307.664,19.5 L307.496,21.108 L306.584,21.168 L306.584,22.2 L307.424,22.2 L307.424,25.008 C307.424,25.328 307.458,25.618 307.526,25.878 C307.594,26.138 307.702,26.362 307.85,26.55 C307.998,26.738 308.19,26.884 308.426,26.988 C308.662,27.092 308.952,27.144 309.296,27.144 Z M313.88,27.144 C314.256,27.144 314.616,27.084 314.96,26.964 C315.304,26.844 315.616,26.692 315.896,26.508 L315.896,26.508 L315.428,25.644 C315.212,25.78 314.994,25.886 314.774,25.962 C314.554,26.038 314.316,26.076 314.06,26.076 C313.58,26.076 313.186,25.934 312.878,25.65 C312.57,25.366 312.384,24.96 312.32,24.432 L312.32,24.432 L316.064,24.432 C316.08,24.36 316.094,24.264 316.106,24.144 C316.118,24.024 316.124,23.896 316.124,23.76 C316.124,23.352 316.072,22.976 315.968,22.632 C315.864,22.288 315.71,21.992 315.506,21.744 C315.302,21.496 315.048,21.304 314.744,21.168 C314.44,21.032 314.088,20.964 313.688,20.964 C313.344,20.964 313.008,21.036 312.68,21.18 C312.352,21.324 312.062,21.528 311.81,21.792 C311.558,22.056 311.356,22.38 311.204,22.764 C311.052,23.148 310.976,23.58 310.976,24.06 C310.976,24.548 311.05,24.982 311.198,25.362 C311.346,25.742 311.552,26.064 311.816,26.328 C312.08,26.592 312.388,26.794 312.74,26.934 C313.092,27.074 313.472,27.144 313.88,27.144 Z M314.924,23.496 L312.308,23.496 C312.372,23.016 312.536,22.652 312.8,22.404 C313.064,22.156 313.372,22.032 313.724,22.032 C314.132,22.032 314.434,22.162 314.63,22.422 C314.826,22.682 314.924,23.04 314.924,23.496 L314.924,23.496 Z M319.508,27.144 C319.828,27.144 320.132,27.068 320.42,26.916 C320.708,26.764 320.96,26.58 321.176,26.364 L321.176,26.364 L321.224,26.364 L321.32,27 L322.46,27 L322.46,18.528 L321.08,18.528 L321.08,20.664 L321.128,21.612 C320.896,21.412 320.664,21.254 320.432,21.138 C320.2,21.022 319.916,20.964 319.58,20.964 C319.26,20.964 318.95,21.036 318.65,21.18 C318.35,21.324 318.084,21.528 317.852,21.792 C317.62,22.056 317.434,22.38 317.294,22.764 C317.154,23.148 317.084,23.58 317.084,24.06 C317.084,25.036 317.302,25.794 317.738,26.334 C318.174,26.874 318.764,27.144 319.508,27.144 Z M319.844,26.004 C319.412,26.004 319.082,25.838 318.854,25.506 C318.626,25.174 318.512,24.688 318.512,24.048 C318.512,23.424 318.644,22.944 318.908,22.608 C319.172,22.272 319.496,22.104 319.88,22.104 C320.08,22.104 320.278,22.14 320.474,22.212 C320.67,22.284 320.872,22.412 321.08,22.596 L321.08,22.596 L321.08,25.344 C320.696,25.784 320.284,26.004 319.844,26.004 Z M263.384,43.32 L263.384,42.108 C263.96,42.028 264.414,41.804 264.746,41.436 C265.078,41.068 265.244,40.596 265.244,40.02 C265.244,39.588 265.162,39.234 264.998,38.958 C264.834,38.682 264.628,38.45 264.38,38.262 C264.132,38.074 263.862,37.914 263.57,37.782 C263.278,37.65 263.008,37.514 262.76,37.374 C262.512,37.234 262.306,37.072 262.142,36.888 C261.978,36.704 261.896,36.468 261.896,36.18 C261.896,35.828 262.004,35.548 262.22,35.34 C262.436,35.132 262.728,35.028 263.096,35.028 C263.424,35.028 263.694,35.088 263.906,35.208 C264.118,35.328 264.336,35.496 264.56,35.712 L264.56,35.712 L265.088,35.124 C264.872,34.892 264.63,34.692 264.362,34.524 C264.094,34.356 263.768,34.252 263.384,34.212 L263.384,34.212 L263.384,33.024 L262.664,33.024 L262.664,34.236 C262.136,34.316 261.714,34.534 261.398,34.89 C261.082,35.246 260.924,35.692 260.924,36.228 C260.924,36.62 261.006,36.942 261.17,37.194 C261.334,37.446 261.54,37.66 261.788,37.836 C262.036,38.012 262.306,38.168 262.598,38.304 C262.89,38.44 263.16,38.586 263.408,38.742 C263.656,38.898 263.862,39.082 264.026,39.294 C264.19,39.506 264.272,39.772 264.272,40.092 C264.272,40.468 264.162,40.768 263.942,40.992 C263.722,41.216 263.388,41.328 262.94,41.328 C262.572,41.328 262.234,41.25 261.926,41.094 C261.618,40.938 261.336,40.748 261.08,40.524 L261.08,40.524 L260.624,41.208 C260.88,41.44 261.188,41.642 261.548,41.814 C261.908,41.986 262.28,42.092 262.664,42.132 L262.664,42.132 L262.664,43.32 L263.384,43.32 Z M271.232,42 L271.232,41.184 L269.648,41.184 L269.648,34.344 L268.892,34.344 C268.684,34.472 268.45,34.582 268.19,34.674 C267.93,34.766 267.624,34.844 267.272,34.908 L267.272,34.908 L267.272,35.544 L268.664,35.544 L268.664,41.184 L266.912,41.184 L266.912,42 L271.232,42 Z M276.512,42 L276.512,39.888 L277.556,39.888 L277.556,39.096 L276.512,39.096 L276.512,34.344 L275.408,34.344 L272.132,39.24 L272.132,39.888 L275.576,39.888 L275.576,42 L276.512,42 Z M275.576,39.096 L273.176,39.096 L274.964,36.48 C275.076,36.296 275.184,36.116 275.288,35.94 C275.392,35.764 275.492,35.584 275.588,35.4 L275.588,35.4 L275.636,35.4 C275.62,35.608 275.606,35.854 275.594,36.138 C275.582,36.422 275.576,36.668 275.576,36.876 L275.576,36.876 L275.576,39.096 Z M283.16,42 L283.16,41.184 L281.576,41.184 L281.576,34.344 L280.82,34.344 C280.612,34.472 280.378,34.582 280.118,34.674 C279.858,34.766 279.552,34.844 279.2,34.908 L279.2,34.908 L279.2,35.544 L280.592,35.544 L280.592,41.184 L278.84,41.184 L278.84,42 L283.16,42 Z M287.444,42 C287.884,42 288.288,41.952 288.656,41.856 C289.024,41.76 289.34,41.616 289.604,41.424 C289.868,41.232 290.072,40.992 290.216,40.704 C290.36,40.416 290.432,40.08 290.432,39.696 C290.432,39.152 290.284,38.724 289.988,38.412 C289.692,38.1 289.304,37.9 288.824,37.812 L288.824,37.812 L288.824,37.764 C289.2,37.644 289.486,37.426 289.682,37.11 C289.878,36.794 289.976,36.44 289.976,36.048 C289.976,35.704 289.91,35.41 289.778,35.166 C289.646,34.922 289.462,34.724 289.226,34.572 C288.99,34.42 288.706,34.308 288.374,34.236 C288.042,34.164 287.676,34.128 287.276,34.128 L287.276,34.128 L284.936,34.128 L284.936,42 L287.444,42 Z M287.096,37.476 L285.932,37.476 L285.932,34.92 L287.144,34.92 C287.76,34.92 288.222,35.016 288.53,35.208 C288.838,35.4 288.992,35.724 288.992,36.18 C288.992,36.58 288.844,36.896 288.548,37.128 C288.252,37.36 287.768,37.476 287.096,37.476 L287.096,37.476 Z M287.3,41.208 L285.932,41.208 L285.932,38.244 L287.3,38.244 C287.996,38.244 288.528,38.358 288.896,38.586 C289.264,38.814 289.448,39.172 289.448,39.66 C289.448,40.188 289.26,40.578 288.884,40.83 C288.508,41.082 287.98,41.208 287.3,41.208 L287.3,41.208 Z" id="Unobligated$141B" fill="#555555" fill-rule="nonzero"></path>
                    <line x1="10.5" y1="0" x2="10.5" y2="15" id="Line" stroke="#C6C6C6"></line>
                    <path d="M145,0 L145,3 C145,4.1045695 144.104569,5 143,5 L77,5 C75.8954305,5 75,5.8954305 75,7 L75,15 L75,15" id="Line-Copy-7" stroke="#C6C6C6" stroke-linecap="round" transform="translate(110.000000, 7.500000) scale(1, -1) translate(-110.000000, -7.500000) "></path>
                    <path d="M288,0 L288,2 C288,3.1045695 287.104569,4 286,4 L135,4 C133.895431,4 133,4.8954305 133,6 L133,15 L133,15" id="Line-Copy-11" stroke="#C6C6C6" stroke-linecap="round" transform="translate(210.500000, 7.500000) scale(-1, 1) translate(-210.500000, -7.500000) "></path>
                </g>
                <path d="M146.368,22.54 L146.368,21.084 C147.096,20.9253333 147.642,20.6056667 148.006,20.125 C148.37,19.6443333 148.552,19.068 148.552,18.396 C148.552,17.948 148.461,17.5723333 148.279,17.269 C148.097,16.9656667 147.868333,16.7066667 147.593,16.492 C147.317667,16.2773333 147.021333,16.0953333 146.704,15.946 C146.386667,15.7966667 146.090333,15.652 145.815,15.512 C145.539667,15.372 145.311,15.225 145.129,15.071 C144.947,14.917 144.856,14.728 144.856,14.504 C144.856,14.1866667 144.944667,13.958 145.122,13.818 C145.299333,13.678 145.556,13.608 145.892,13.608 C146.190667,13.608 146.456667,13.6663333 146.69,13.783 C146.923333,13.8996667 147.166,14.0746667 147.418,14.308 L147.418,14.308 L148.454,13.132 C148.183333,12.8426667 147.88,12.5953333 147.544,12.39 C147.208,12.1846667 146.816,12.0493333 146.368,11.984 L146.368,11.984 L146.368,10.57 L145.01,10.57 L145.01,12.012 C144.347333,12.1426667 143.827,12.4343333 143.449,12.887 C143.071,13.3396667 142.882,13.9113333 142.882,14.602 C142.882,15.022 142.973,15.3766667 143.155,15.666 C143.337,15.9553333 143.565667,16.2073333 143.841,16.422 C144.116333,16.6366667 144.412667,16.821 144.73,16.975 C145.047333,17.129 145.343667,17.283 145.619,17.437 C145.894333,17.591 146.123,17.752 146.305,17.92 C146.487,18.088 146.578,18.2933333 146.578,18.536 C146.578,18.8626667 146.487,19.1053333 146.305,19.264 C146.123,19.4226667 145.836,19.502 145.444,19.502 C145.108,19.502 144.779,19.4343333 144.457,19.299 C144.135,19.1636667 143.796667,18.9606667 143.442,18.69 L143.442,18.69 L142.546,20.076 C142.872667,20.3746667 143.262333,20.615 143.715,20.797 C144.167667,20.979 144.599333,21.0933333 145.01,21.14 L145.01,21.14 L145.01,22.54 L146.368,22.54 Z M156.028,21 L156.028,19.334 L154.362,19.334 L154.362,12.11 L152.85,12.11 C152.532667,12.2966667 152.206,12.4553333 151.87,12.586 C151.534,12.7166667 151.123333,12.8286667 150.638,12.922 L150.638,12.922 L150.638,14.196 L152.304,14.196 L152.304,19.334 L150.372,19.334 L150.372,21 L156.028,21 Z M158.884,21.168 C159.238667,21.168 159.535,21.0443333 159.773,20.797 C160.011,20.5496667 160.13,20.244 160.13,19.88 C160.13,19.5066667 160.011,19.1963333 159.773,18.949 C159.535,18.7016667 159.238667,18.578 158.884,18.578 C158.529333,18.578 158.233,18.7016667 157.995,18.949 C157.757,19.1963333 157.638,19.5066667 157.638,19.88 C157.638,20.244 157.757,20.5496667 157.995,20.797 C158.233,21.0443333 158.529333,21.168 158.884,21.168 Z M167.62,21 L167.62,19.334 L165.954,19.334 L165.954,12.11 L164.442,12.11 C164.124667,12.2966667 163.798,12.4553333 163.462,12.586 C163.126,12.7166667 162.715333,12.8286667 162.23,12.922 L162.23,12.922 L162.23,14.196 L163.896,14.196 L163.896,19.334 L161.964,19.334 L161.964,21 L167.62,21 Z M172.058,21.168 C172.534,21.168 172.965667,21.105 173.353,20.979 C173.740333,20.853 174.071667,20.6803333 174.347,20.461 C174.622333,20.2416667 174.834667,19.9826667 174.984,19.684 C175.133333,19.3853333 175.208,19.0586667 175.208,18.704 C175.208,18.116 175.058667,17.64 174.76,17.276 C174.461333,16.912 174.097333,16.6133333 173.668,16.38 L173.668,16.38 L173.668,16.324 C173.976,16.1186667 174.246667,15.8503333 174.48,15.519 C174.713333,15.1876667 174.83,14.8073333 174.83,14.378 C174.83,14.014 174.764667,13.6803333 174.634,13.377 C174.503333,13.0736667 174.321333,12.817 174.088,12.607 C173.854667,12.397 173.57,12.2336667 173.234,12.117 C172.898,12.0003333 172.529333,11.942 172.128,11.942 C171.717333,11.942 171.337,11.998 170.987,12.11 C170.637,12.222 170.336,12.3853333 170.084,12.6 C169.832,12.8146667 169.636,13.0736667 169.496,13.377 C169.356,13.6803333 169.286,14.0186667 169.286,14.392 C169.286,14.868 169.398,15.2716667 169.622,15.603 C169.846,15.9343333 170.130667,16.2306667 170.476,16.492 L170.476,16.492 L170.476,16.548 C170.056,16.772 169.699,17.0566667 169.405,17.402 C169.111,17.7473333 168.964,18.1906667 168.964,18.732 C168.964,19.096 169.041,19.4273333 169.195,19.726 C169.349,20.0246667 169.563667,20.2813333 169.839,20.496 C170.114333,20.7106667 170.441,20.8763333 170.819,20.993 C171.197,21.1096667 171.61,21.168 172.058,21.168 Z M172.618,15.82 C172.160667,15.6426667 171.792,15.4513333 171.512,15.246 C171.232,15.0406667 171.092,14.756 171.092,14.392 C171.092,14.0466667 171.19,13.79 171.386,13.622 C171.582,13.454 171.815333,13.37 172.086,13.37 C172.422,13.37 172.685667,13.475 172.877,13.685 C173.068333,13.895 173.164,14.1726667 173.164,14.518 C173.164,14.966 172.982,15.4 172.618,15.82 Z M172.1,19.74 C171.726667,19.74 171.404667,19.6303333 171.134,19.411 C170.863333,19.1916667 170.728,18.886 170.728,18.494 C170.728,18.2233333 170.793333,17.9666667 170.924,17.724 C171.054667,17.4813333 171.218,17.2666667 171.414,17.08 C171.694,17.2013333 171.948333,17.3133333 172.177,17.416 C172.405667,17.5186667 172.604,17.6283333 172.772,17.745 C172.94,17.8616667 173.068333,17.99 173.157,18.13 C173.245667,18.27 173.29,18.438 173.29,18.634 C173.29,19.0073333 173.178,19.285 172.954,19.467 C172.73,19.649 172.445333,19.74 172.1,19.74 Z M180.696,21 L180.696,13.608 L183.202,13.608 L183.202,11.872 L176.118,11.872 L176.118,13.608 L178.624,13.608 L178.624,21 L180.696,21 Z" id="$1.18T" fill="#555555" fill-rule="nonzero"></path>
                <g id="Group-17-Copy">
                    <rect id="outlays" fill="#331E4D" x="0" y="0" width="60" height="31"></rect>
                    <rect id="unobligated" fill="#F3E9FF" x="111" y="0" width="26" height="31"></rect>
                    <rect id="obligated" fill="#6F41A7" x="60" y="0" width="69" height="31"></rect>
                </g>
            </g>
        </g>
    </g>
</svg>