<?xml version="1.0" encoding="UTF-8"?>
<svg width="352" height="367" xmlns="http://www.w3.org/2000/svg" xmlns:xlink="http://www.w3.org/1999/xlink" role="img">
    <desc id="section-2-mobile-svg-b">section 2 mobile placeholder alt text B</desc>
    <defs>
        <path id="a" d="M0 .145h65.505v65.483H0z"/>
        <path id="c" d="M0 44.922h86.018V.056H0z"/>
    </defs>
    <g fill="none" fill-rule="evenodd">
        <g transform="translate(28 2)">
            <path d="M72.983 234.164c.612 0 1.167-.102 1.665-.308.498-.205.897-.459 1.199-.76v-3.946h-3.124v1.301h1.699v1.932a1.49 1.49 0 01-.562.295c-.228.068-.47.103-.726.103-.905 0-1.587-.29-2.049-.87-.46-.58-.692-1.382-.692-2.405 0-.503.064-.955.192-1.357s.309-.742.542-1.02c.232-.279.511-.494.835-.644.325-.151.688-.226 1.09-.226.42 0 .77.075 1.048.226.278.15.532.335.76.555l.85-1.028a4.263 4.263 0 00-1.09-.788c-.443-.233-.984-.35-1.623-.35-.594 0-1.149.106-1.665.316-.516.21-.964.516-1.343.918s-.678.893-.897 1.473c-.22.58-.329 1.235-.329 1.966 0 .74.105 1.398.315 1.973.21.575.505 1.06.884 1.452.379.393.827.69 1.343.891a4.586 4.586 0 001.678.301zm6.29-.164v-4.11c.21-.512.46-.87.753-1.076.292-.206.57-.308.836-.308a2.111 2.111 0 01.698.11l.274-1.37c-.191-.092-.447-.138-.767-.138-.356 0-.703.117-1.041.35-.338.232-.626.568-.863 1.007h-.055l-.11-1.193h-1.302V234h1.576zm4.808.164c.402 0 .775-.086 1.117-.26.343-.173.665-.388.966-.644h.055l.11.74h1.301v-3.987c0-.941-.208-1.66-.623-2.158-.416-.498-1.044-.747-1.884-.747-.54 0-1.042.087-1.507.26a6.74 6.74 0 00-1.261.617l.575 1.055c.302-.183.61-.338.925-.466.315-.128.637-.192.966-.192.229 0 .42.035.576.103.155.069.28.165.377.288.096.123.164.265.205.425.041.16.066.326.075.5-.694.073-1.29.178-1.788.315-.497.137-.908.306-1.233.507-.324.2-.562.44-.712.72a1.97 1.97 0 00-.226.951c0 .594.182 1.071.548 1.432.365.361.845.541 1.438.541zm.507-1.233c-.283 0-.516-.068-.698-.205-.183-.137-.274-.356-.274-.658 0-.164.04-.32.123-.466.082-.146.22-.276.41-.39.193-.114.444-.217.755-.309.31-.09.694-.164 1.15-.219v1.507a4.01 4.01 0 01-.719.548 1.478 1.478 0 01-.747.192zM91.097 234v-4.7c.283-.274.536-.482.76-.623.224-.142.482-.212.774-.212.375 0 .644.114.809.342.164.228.246.621.246 1.178V234h1.576v-4.22c0-.859-.164-1.519-.493-1.98-.33-.461-.854-.692-1.576-.692-.466 0-.875.105-1.226.315-.352.21-.678.461-.98.754h-.055l-.11-.905h-1.301V234h1.576zm8.467.164c.265 0 .514-.025.747-.075.233-.05.44-.107.623-.171l-.274-1.165c-.1.046-.212.082-.335.11a1.67 1.67 0 01-.363.04c-.63 0-.946-.392-.946-1.177v-3.207h1.713v-1.247h-1.713v-1.836h-1.315l-.192 1.836-1.041.069v1.178h.959v3.207c0 .365.039.696.116.993.078.297.201.553.37.767.17.215.388.382.658.5.27.119.6.178.993.178zm4.316 0c.42 0 .795-.054 1.124-.164.329-.11.603-.258.822-.445a1.883 1.883 0 00.671-1.473c0-.31-.057-.578-.17-.802a1.78 1.78 0 00-.453-.568 2.813 2.813 0 00-.623-.39 8.652 8.652 0 00-.686-.282 22.423 22.423 0 01-.527-.192 3.138 3.138 0 01-.445-.205 1.079 1.079 0 01-.309-.254.538.538 0 01-.116-.349c0-.21.08-.386.24-.528.16-.141.408-.212.746-.212.265 0 .519.053.76.158.243.105.483.244.72.418l.726-.96a4.693 4.693 0 00-.972-.561 3.104 3.104 0 00-1.261-.247c-.758 0-1.356.187-1.795.562-.438.374-.658.858-.658 1.452 0 .283.057.528.172.733.114.206.26.386.438.541.178.156.381.288.61.398.228.11.452.205.671.288.174.073.347.143.52.212.174.068.33.144.467.226.137.082.246.176.329.28a.573.573 0 01.123.364.736.736 0 01-.26.582c-.174.151-.443.226-.809.226-.347 0-.669-.066-.966-.198a4.277 4.277 0 01-.897-.555l-.74 1.014c.329.265.72.486 1.171.664.452.178.911.267 1.377.267zM192.51 225c.667 0 1.263-.096 1.789-.288a3.547 3.547 0 001.342-.856c.37-.38.654-.852.85-1.418.196-.567.295-1.22.295-1.96 0-1.48-.384-2.59-1.151-3.33-.768-.739-1.836-1.109-3.207-1.109h-2.397V225h2.48zm-.191-1.288h-.699v-6.385h.699c.904 0 1.603.251 2.096.754.493.502.74 1.301.74 2.397 0 1.106-.244 1.921-.733 2.446-.489.525-1.19.788-2.103.788zm6.933-6.618c.283 0 .516-.082.699-.246a.826.826 0 00.274-.644.847.847 0 00-.274-.651.989.989 0 00-.7-.254.989.989 0 00-.698.254.847.847 0 00-.274.65c0 .265.091.48.274.645.183.164.416.246.699.246zm.78 7.906v-6.728h-1.575V225h1.576zm3.59 0v-4.11c.21-.512.462-.87.754-1.076.293-.206.571-.308.836-.308a2.111 2.111 0 01.699.11l.274-1.37c-.192-.092-.448-.138-.767-.138-.357 0-.704.117-1.042.35-.338.232-.625.568-.863 1.007h-.055l-.11-1.193h-1.301V225h1.576zm6.276.164c.43 0 .84-.068 1.233-.205.393-.137.75-.31 1.069-.52l-.534-.987a3.623 3.623 0 01-.747.363 2.48 2.48 0 01-.815.13c-.549 0-.998-.162-1.35-.486-.352-.325-.564-.788-.637-1.391h4.275c.018-.082.034-.192.048-.329.013-.137.02-.283.02-.438 0-.466-.06-.896-.178-1.288a2.893 2.893 0 00-.527-1.014 2.352 2.352 0 00-.87-.658 2.927 2.927 0 00-1.206-.233c-.393 0-.777.082-1.151.247a3.066 3.066 0 00-.994.698 3.395 3.395 0 00-.691 1.11c-.174.439-.26.932-.26 1.48 0 .557.084 1.053.253 1.487.169.434.404.801.705 1.103a3.09 3.09 0 001.055.692c.402.16.836.24 1.302.24zM211.09 221h-2.987c.073-.548.26-.964.562-1.247a1.492 1.492 0 011.055-.424c.466 0 .81.148 1.034.445.224.297.336.705.336 1.226zm5.686 4.165a3.354 3.354 0 002.192-.822l-.643-1.041c-.192.155-.405.29-.638.404a1.674 1.674 0 01-.746.171c-.53 0-.962-.203-1.295-.61-.334-.406-.5-.947-.5-1.623 0-.685.169-1.23.507-1.637.338-.407.78-.61 1.329-.61.21 0 .404.043.582.13.178.087.359.208.541.363l.768-1.027a3.675 3.675 0 00-.843-.535c-.315-.146-.692-.219-1.13-.219-.448 0-.875.08-1.282.24-.406.16-.765.39-1.075.692-.31.301-.557.671-.74 1.11a3.853 3.853 0 00-.274 1.493c0 .557.082 1.055.247 1.494.164.438.392.808.685 1.11.292.3.637.53 1.034.684.397.156.825.233 1.281.233zm5.755 0c.265 0 .514-.025.747-.075.233-.05.44-.107.623-.171l-.274-1.165c-.1.046-.212.082-.336.11a1.67 1.67 0 01-.363.04c-.63 0-.945-.392-.945-1.177v-3.207h1.713v-1.247h-1.713v-1.836h-1.315l-.192 1.836-1.042.069v1.178h.96v3.207c0 .365.038.696.116.993.078.297.2.553.37.767.169.215.388.382.658.5.269.119.6.178.993.178zM180.13 242v-3.288h1.288a5.08 5.08 0 001.35-.172 3.005 3.005 0 001.082-.534c.306-.242.546-.546.72-.911.173-.366.26-.795.26-1.288 0-.52-.087-.957-.26-1.309a2.245 2.245 0 00-.727-.856 2.973 2.973 0 00-1.103-.466 6.547 6.547 0 00-1.377-.137h-2.822V242h1.59zm1.165-4.563h-1.165v-3.124h1.11c.667 0 1.171.108 1.514.322.343.215.514.606.514 1.172 0 1.087-.658 1.63-1.973 1.63zm6.193 4.727c.402 0 .774-.086 1.117-.26.342-.173.664-.388.966-.644h.054l.11.74h1.302v-3.987c0-.941-.208-1.66-.624-2.158-.415-.498-1.043-.747-1.884-.747-.539 0-1.041.087-1.507.26a6.74 6.74 0 00-1.26.617l.575 1.055c.301-.183.61-.338.925-.466.315-.128.637-.192.966-.192.228 0 .42.035.575.103.156.069.281.165.377.288.096.123.165.265.206.425.04.16.066.326.075.5-.694.073-1.29.178-1.788.315s-.909.306-1.233.507c-.325.2-.562.44-.713.72a1.97 1.97 0 00-.226.951c0 .594.183 1.071.548 1.432.366.361.845.541 1.439.541zm.507-1.233c-.283 0-.516-.068-.699-.205-.183-.137-.274-.356-.274-.658 0-.164.041-.32.123-.466.083-.146.22-.276.411-.39.192-.114.443-.217.754-.309.31-.09.694-.164 1.151-.219v1.507a4.01 4.01 0 01-.72.548 1.478 1.478 0 01-.746.192zm5.385 3.837c.365 0 .687-.057.966-.172.278-.114.525-.278.74-.493.214-.214.404-.473.568-.774.165-.301.315-.644.452-1.028l2.44-7.029h-1.522l-1.014 3.303a203.85 203.85 0 00-.507 1.89h-.054c-.1-.32-.2-.641-.295-.966a22.336 22.336 0 00-.295-.924l-1.164-3.303h-1.603l2.644 6.646-.123.425c-.11.338-.272.614-.487.828-.214.215-.5.322-.856.322a.994.994 0 01-.253-.034 11.358 11.358 0 01-.227-.061l-.287 1.233c.128.045.26.08.397.102.137.023.297.035.48.035zm7.906-2.768v-4.7c.52-.557.99-.835 1.41-.835.357 0 .62.114.789.342.169.228.253.621.253 1.178V242h1.576v-4.7c.52-.557.99-.835 1.411-.835.347 0 .605.114.774.342.17.228.254.621.254 1.178V242h1.59v-4.22c0-.859-.17-1.519-.508-1.98-.338-.461-.863-.692-1.576-.692-.429 0-.817.114-1.164.343-.347.228-.68.516-1 .863a1.957 1.957 0 00-.679-.89c-.297-.21-.692-.316-1.185-.316-.42 0-.797.105-1.13.315a4.72 4.72 0 00-.925.767h-.055l-.11-.918h-1.301V242h1.576zm12.852.164c.429 0 .84-.068 1.233-.205.393-.137.749-.31 1.069-.52l-.535-.987a3.623 3.623 0 01-.747.363 2.48 2.48 0 01-.815.13c-.548 0-.998-.162-1.35-.486-.351-.325-.563-.788-.637-1.391h4.275c.019-.082.035-.192.048-.329.014-.137.02-.283.02-.438 0-.466-.058-.896-.177-1.288a2.893 2.893 0 00-.528-1.014 2.352 2.352 0 00-.87-.658 2.927 2.927 0 00-1.206-.233c-.392 0-.776.082-1.15.247a3.066 3.066 0 00-.994.698 3.395 3.395 0 00-.692 1.11c-.173.439-.26.932-.26 1.48 0 .557.084 1.053.253 1.487.17.434.405.801.706 1.103a3.09 3.09 0 001.055.692c.402.16.836.24 1.302.24zM215.33 238h-2.987c.073-.548.26-.964.562-1.247a1.492 1.492 0 011.055-.424c.465 0 .81.148 1.034.445.224.297.336.705.336 1.226zm4.453 4.001v-4.7c.283-.274.536-.482.76-.623.224-.142.482-.212.774-.212.375 0 .644.114.809.342.164.228.246.621.246 1.178V242h1.576v-4.22c0-.859-.164-1.519-.493-1.98-.329-.461-.854-.692-1.576-.692-.466 0-.875.105-1.226.315-.352.21-.678.461-.98.754h-.055l-.11-.905h-1.3V242h1.575zm8.467.164c.265 0 .514-.025.747-.075.233-.05.44-.107.624-.171l-.274-1.165c-.101.046-.213.082-.336.11a1.67 1.67 0 01-.363.04c-.63 0-.946-.392-.946-1.177v-3.207h1.713v-1.247h-1.713v-1.836h-1.315l-.192 1.836-1.041.069v1.178h.959v3.207c0 .365.039.696.116.993.078.297.201.553.37.767.17.215.389.382.658.5.27.119.6.178.993.178zm4.316 0c.42 0 .795-.054 1.124-.164.329-.11.603-.258.822-.445a1.883 1.883 0 00.671-1.473c0-.31-.057-.578-.17-.802a1.78 1.78 0 00-.453-.568 2.813 2.813 0 00-.623-.39 8.652 8.652 0 00-.686-.282 22.423 22.423 0 01-.527-.192 3.138 3.138 0 01-.445-.205 1.079 1.079 0 01-.309-.254.538.538 0 01-.116-.349c0-.21.08-.386.24-.528.16-.141.408-.212.746-.212.265 0 .519.053.76.158.243.105.483.244.72.418l.726-.96a4.693 4.693 0 00-.972-.561 3.104 3.104 0 00-1.261-.247c-.758 0-1.356.187-1.795.562-.438.374-.658.858-.658 1.452 0 .283.058.528.172.733.114.206.26.386.438.541.178.156.382.288.61.398.228.11.452.205.671.288.174.073.347.143.52.212.174.068.33.144.467.226.137.082.246.176.329.28a.573.573 0 01.123.364.736.736 0 01-.26.582c-.174.151-.443.226-.809.226-.347 0-.669-.066-.966-.198a4.277 4.277 0 01-.897-.555l-.74 1.014c.329.265.72.486 1.171.664.453.178.912.267 1.377.267zM197.1 134v-1.343h-3.727v-7.618h-1.589V134h5.316zm4.001.164c.42 0 .825-.077 1.213-.233a2.915 2.915 0 001.02-.685c.293-.301.528-.671.706-1.11a3.94 3.94 0 00.267-1.493 3.94 3.94 0 00-.267-1.493 3.423 3.423 0 00-.705-1.11 2.996 2.996 0 00-1.021-.692 3.155 3.155 0 00-2.419 0c-.383.16-.723.39-1.02.692a3.278 3.278 0 00-.706 1.11c-.173.438-.26.936-.26 1.493s.087 1.055.26 1.494c.174.438.409.808.706 1.11a3 3 0 001.02.684c.384.156.786.233 1.206.233zm0-1.288c-.493 0-.879-.203-1.158-.61-.278-.406-.417-.947-.417-1.623 0-.685.139-1.23.417-1.637.279-.407.665-.61 1.158-.61.493 0 .882.203 1.165.61.283.406.425.952.425 1.637 0 .676-.142 1.217-.425 1.624-.283.406-.672.61-1.165.61zm6.234 1.288c.402 0 .775-.086 1.117-.26.343-.173.665-.388.966-.644h.055l.11.74h1.301v-3.987c0-.941-.208-1.66-.623-2.158-.416-.498-1.044-.747-1.884-.747-.54 0-1.042.087-1.507.26a6.74 6.74 0 00-1.26.617l.575 1.055c.301-.183.61-.338.924-.466.316-.128.638-.192.966-.192.229 0 .42.035.576.103.155.069.28.165.377.288.096.123.164.265.205.425.041.16.066.326.076.5-.695.073-1.29.178-1.789.315-.497.137-.908.306-1.233.507-.324.2-.561.44-.712.72a1.97 1.97 0 00-.226.951c0 .594.182 1.071.548 1.432.365.361.845.541 1.438.541zm.507-1.233c-.283 0-.516-.068-.698-.205-.183-.137-.274-.356-.274-.658 0-.164.04-.32.123-.466.082-.146.22-.276.411-.39.192-.114.443-.217.754-.309.31-.09.694-.164 1.15-.219v1.507a4.01 4.01 0 01-.719.548 1.478 1.478 0 01-.747.192zm6.509 1.069v-4.7c.283-.274.536-.482.76-.623.224-.142.482-.212.774-.212.375 0 .644.114.809.342.164.228.246.621.246 1.178V134h1.576v-4.22c0-.859-.164-1.519-.493-1.98-.33-.461-.854-.692-1.576-.692-.466 0-.875.105-1.226.315-.352.21-.678.461-.98.754h-.055l-.11-.905h-1.301V134h1.576zm7.974.164c.42 0 .795-.054 1.124-.164.328-.11.602-.258.822-.445a1.883 1.883 0 00.671-1.473c0-.31-.057-.578-.171-.802a1.78 1.78 0 00-.452-.568 2.813 2.813 0 00-.624-.39 8.652 8.652 0 00-.685-.282 22.423 22.423 0 01-.527-.192 3.138 3.138 0 01-.446-.205 1.079 1.079 0 01-.308-.254.538.538 0 01-.116-.349c0-.21.08-.386.24-.528.16-.141.408-.212.746-.212.265 0 .518.053.76.158.243.105.482.244.72.418l.726-.96a4.693 4.693 0 00-.973-.561 3.104 3.104 0 00-1.26-.247c-.758 0-1.357.187-1.795.562-.439.374-.658.858-.658 1.452 0 .283.057.528.171.733.115.206.26.386.439.541.178.156.381.288.61.398.228.11.452.205.67.288.175.073.348.143.522.212.173.068.328.144.465.226.137.082.247.176.33.28a.573.573 0 01.123.364.736.736 0 01-.26.582c-.174.151-.444.226-.81.226-.346 0-.668-.066-.965-.198a4.277 4.277 0 01-.898-.555l-.74 1.014c.33.265.72.486 1.172.664.452.178.911.267 1.377.267zM62.83 134.164c.576 0 1.099-.111 1.57-.335a3.84 3.84 0 001.253-.966l-.85-1a3.35 3.35 0 01-.85.664 2.2 2.2 0 01-1.068.254c-.758 0-1.359-.29-1.802-.87-.443-.58-.664-1.382-.664-2.405 0-.503.062-.955.185-1.357a3.03 3.03 0 01.52-1.02 2.248 2.248 0 011.802-.87 2 2 0 01.932.212c.274.142.53.331.767.569l.85-1.028a4.006 4.006 0 00-1.083-.795c-.438-.228-.94-.342-1.507-.342-.566 0-1.098.105-1.596.315-.498.21-.932.516-1.302.918a4.4 4.4 0 00-.877 1.473c-.214.58-.322 1.235-.322 1.966 0 .74.105 1.398.316 1.973.21.575.495 1.06.856 1.452.36.393.788.69 1.281.891a4.172 4.172 0 001.59.301zm6.933 0c.42 0 .825-.077 1.213-.233a2.915 2.915 0 001.02-.685c.293-.301.528-.671.706-1.11a3.94 3.94 0 00.268-1.493 3.94 3.94 0 00-.268-1.493 3.423 3.423 0 00-.705-1.11 2.996 2.996 0 00-1.021-.692 3.155 3.155 0 00-2.418 0c-.384.16-.724.39-1.021.692a3.278 3.278 0 00-.706 1.11c-.173.438-.26.936-.26 1.493s.087 1.055.26 1.494c.174.438.409.808.706 1.11a3 3 0 001.02.684c.384.156.786.233 1.206.233zm0-1.288c-.493 0-.879-.203-1.157-.61-.279-.406-.418-.947-.418-1.623 0-.685.139-1.23.418-1.637.278-.407.664-.61 1.157-.61.494 0 .882.203 1.165.61.283.406.425.952.425 1.637 0 .676-.142 1.217-.425 1.624-.283.406-.671.61-1.165.61zM76.107 134v-4.7c.283-.274.537-.482.76-.623.225-.142.483-.212.775-.212.374 0 .644.114.808.342.165.228.247.621.247 1.178V134h1.576v-4.22c0-.859-.165-1.519-.494-1.98-.329-.461-.854-.692-1.575-.692-.466 0-.875.105-1.227.315-.351.21-.678.461-.98.754h-.054l-.11-.905h-1.301V134h1.575zm8.468.164c.265 0 .514-.025.747-.075.233-.05.44-.107.623-.171l-.274-1.165c-.1.046-.212.082-.336.11a1.67 1.67 0 01-.363.04c-.63 0-.945-.392-.945-1.177v-3.207h1.713v-1.247h-1.713v-1.836H82.71l-.191 1.836-1.042.069v1.178h.96v3.207c0 .365.038.696.116.993.078.297.2.553.37.767.169.215.388.382.658.5.269.119.6.178.993.178zm4.152-.164v-4.11c.21-.512.46-.87.753-1.076.292-.206.571-.308.836-.308a2.111 2.111 0 01.699.11l.274-1.37c-.192-.092-.448-.138-.768-.138-.356 0-.703.117-1.04.35-.339.232-.627.568-.864 1.007h-.055l-.11-1.193h-1.301V134h1.576zm4.809.164c.402 0 .774-.086 1.116-.26.343-.173.665-.388.966-.644h.055l.11.74h1.302v-3.987c0-.941-.208-1.66-.624-2.158-.416-.498-1.044-.747-1.884-.747-.539 0-1.041.087-1.507.26a6.74 6.74 0 00-1.26.617l.575 1.055c.301-.183.61-.338.925-.466.315-.128.637-.192.966-.192.228 0 .42.035.575.103.155.069.281.165.377.288.096.123.164.265.205.425.042.16.067.326.076.5-.694.073-1.29.178-1.788.315s-.91.306-1.233.507c-.325.2-.562.44-.713.72a1.97 1.97 0 00-.226.951c0 .594.183 1.071.548 1.432.366.361.845.541 1.439.541zm.507-1.233c-.283 0-.516-.068-.699-.205-.183-.137-.274-.356-.274-.658 0-.164.041-.32.123-.466.082-.146.22-.276.411-.39.192-.114.443-.217.754-.309.31-.09.694-.164 1.15-.219v1.507a4.01 4.01 0 01-.718.548 1.478 1.478 0 01-.747.192zm7.741 1.233a3.354 3.354 0 002.192-.822l-.644-1.041c-.191.155-.404.29-.637.404a1.674 1.674 0 01-.746.171c-.53 0-.962-.203-1.295-.61-.334-.406-.5-.947-.5-1.623 0-.685.169-1.23.507-1.637.338-.407.78-.61 1.329-.61.21 0 .404.043.582.13.178.087.359.208.541.363l.768-1.027a3.675 3.675 0 00-.843-.535c-.315-.146-.692-.219-1.13-.219-.448 0-.875.08-1.282.24-.406.16-.765.39-1.075.692-.31.301-.557.671-.74 1.11a3.853 3.853 0 00-.274 1.493c0 .557.082 1.055.247 1.494.164.438.392.808.685 1.11.292.3.637.53 1.034.684.397.156.824.233 1.281.233zm5.755 0c.265 0 .514-.025.747-.075.233-.05.44-.107.623-.171l-.274-1.165c-.1.046-.212.082-.336.11a1.67 1.67 0 01-.363.04c-.63 0-.945-.392-.945-1.177v-3.207h1.713v-1.247h-1.713v-1.836h-1.316l-.191 1.836-1.042.069v1.178h.96v3.207c0 .365.038.696.116.993.078.297.2.553.37.767.169.215.388.382.658.5.269.119.6.178.993.178zm4.316 0c.42 0 .795-.054 1.123-.164.33-.11.603-.258.823-.445a1.883 1.883 0 00.67-1.473c0-.31-.056-.578-.17-.802a1.78 1.78 0 00-.452-.568 2.813 2.813 0 00-.624-.39 8.652 8.652 0 00-.685-.282 22.423 22.423 0 01-.528-.192 3.138 3.138 0 01-.445-.205 1.079 1.079 0 01-.308-.254.538.538 0 01-.117-.349c0-.21.08-.386.24-.528.16-.141.409-.212.747-.212.265 0 .518.053.76.158.242.105.482.244.72.418l.726-.96a4.693 4.693 0 00-.973-.561 3.104 3.104 0 00-1.26-.247c-.759 0-1.357.187-1.795.562-.439.374-.658.858-.658 1.452 0 .283.057.528.171.733.114.206.26.386.439.541.178.156.381.288.61.398.228.11.452.205.67.288.174.073.348.143.521.212.174.068.33.144.466.226.137.082.247.176.33.28a.573.573 0 01.122.364.736.736 0 01-.26.582c-.173.151-.443.226-.808.226-.347 0-.67-.066-.966-.198a4.277 4.277 0 01-.898-.555l-.74 1.014c.33.265.72.486 1.172.664.452.178.911.267 1.377.267z" fill="#6F41A7" fill-rule="nonzero"/>
            <g transform="translate(63 54)">
                <g stroke="#6F41A7" stroke-width="1.872">
                    <path d="M36.83 33.389c-9.228 0-18.456.002-27.685-.007-.468 0-.937-.088-1.405-.135M36.971 38.4c-5.199.164-10.4.058-15.6.062-4.45.003-8.9.1-13.35-.061M25.728 43.907c-5.433-.162-10.868-.024-16.302-.073-.469-.004-.937-.044-1.405-.068M20.107 49.413c-4.029.117-8.058.117-12.086 0" stroke-linecap="round" stroke-linejoin="round"/>
                    <path d="M.994.35C.378.474-.016.79.008 1.48c.011.329.002.659.002.988 0 18.355.007 36.71-.01 55.064-.002 1.975.153 2.13 2.118 2.128 13.726-.02 27.452-.02 41.178.001 1.762.003 1.98-.217 1.979-1.988-.02-18.449-.02-36.897 0-55.346.001-1.77-.217-1.991-1.98-1.988C29.243.359 15.189.35 1.136.35" stroke-linecap="round" stroke-linejoin="round"/>
                    <path d="M33.88 43.837c-3.858 1.113-4.56 4.804-3.232 7.34.934 1.784 3.086 2.876 5.058 2.538 2.186-.375 3.858-2.163 4.177-3.956.406-2.274-.55-4.14-2.324-5.258-1.164-.733-2.328-.628-3.539-.664" stroke-linecap="round" stroke-linejoin="round"/>
                    <path stroke-linecap="square" d="M22.703 5.297h0"/>
                    <g stroke-linecap="round" stroke-linejoin="round">
                        <path d="M27.374 14.793c.227-2.494-1.685-4.086-4.007-4.432-1.996-.297-3.753.242-5.056 1.892-.863 1.093-.856 2.712-.001 3.81.964 1.24 2.228 1.843 3.794 1.917 1.791.084 3.461.546 4.485 2.186.875 1.402.623 2.811-.344 3.941-.843.983-1.96 1.482-3.228 1.625-1.898.212-3.563-.256-4.847-1.762-.502-.588-.78-1.264-.774-2.047M22.385 6.745c.16 1.14.081 2.283.099 3.424M22.483 25.947c-.022.895.068 1.791-.098 2.683"/>
                    </g>
                </g>
                <circle fill-opacity=".31" fill="#6F41A7" cx="31.196" cy="44.922" r="10.607"/>
            </g>
            <g transform="translate(30 155)">
                <path d="M67.602 27.832c-.675-1.03-1.45-2-2.226-2.954-.68-.835-1.368-1.669-2.124-2.436a27.45 27.45 0 00-2.563-2.302c-.446-.351-.904-.69-1.387-.989-.384-.238-.792-.462-1.227-.593-1.707-.516-3.484-.152-5.225-.148-.302 0-.302.469 0 .468 1.54-.003 3.095-.303 4.623.013.482.1.902.264 1.328.506.46.263.896.569 1.318.889a26.138 26.138 0 012.572 2.256c.72.713 1.377 1.482 2.023 2.263.87 1.051 1.735 2.121 2.484 3.263.165.25.57.016.404-.236" stroke="#6F41A7" stroke-width="1.248" fill="#6F41A7"/>
                <path d="M52.587 18.624c-.879 1.136-1.523 2.469-2.578 3.462-.422.398-.931.701-1.471.91-.563.22-1.184.367-1.791.295a1.757 1.757 0 01-.832-.31c-.31-.227-.48-.58-.67-.902-.154-.258-.56-.023-.405.236.189.316.362.654.636.907.24.22.533.375.847.46.63.173 1.316.09 1.934-.095a5.356 5.356 0 001.713-.855c.595-.455 1.07-1.052 1.498-1.66.494-.698.926-1.44 1.45-2.117.078-.101.097-.233 0-.331-.08-.082-.253-.1-.33 0M83.6 27.876c-1.788.211-3.428 1.038-4.908 2.029a30.979 30.979 0 00-2.19 1.634c-.674.542-1.32 1.127-2.016 1.64-.826.61-1.728 1.17-2.695 1.526-.28.103-.16.555.124.45.86-.316 1.664-.777 2.417-1.294.72-.494 1.375-1.07 2.05-1.624 1.385-1.139 2.826-2.248 4.447-3.034.871-.422 1.807-.745 2.772-.86.125-.014.234-.096.234-.233 0-.115-.108-.25-.234-.234" stroke="#6F41A7" stroke-width="1.248" fill="#6F41A7"/>
                <path d="M67.235 28.115c.672.805 1.316 1.63 1.947 2.466.542.719 1.07 1.452 1.517 2.235.425.743.83 1.578.882 2.446.022.36-.02.73-.178 1.058a2.82 2.82 0 01-.59.792c-.313.301-.697.523-1.128.6-.582.103-1.157-.108-1.649-.406-.258-.156-.494.248-.236.404.502.305 1.078.52 1.673.492a2.454 2.454 0 001.28-.439c.656-.455 1.174-1.164 1.278-1.967.117-.906-.218-1.822-.611-2.623-.434-.883-.996-1.7-1.581-2.49a63.15 63.15 0 00-2.273-2.899c-.194-.231-.523.101-.331.331" stroke="#6F41A7" stroke-width="1.248" fill="#6F41A7"/>
                <path d="M61.53 29.348c1.456 1.675 2.908 3.363 4.242 5.138.566.753 1.147 1.523 1.583 2.362.175.337.286.708.318 1.138.039.53-.04 1.08-.279 1.56-.255.51-.679.925-1.227 1.104-.32.105-.648.124-.983.108-.386-.02-.795-.078-1.146-.248-.27-.13-.508.273-.236.404.638.308 1.446.39 2.142.273a2.5 2.5 0 001.471-.833c.75-.875.926-2.198.552-3.275-.123-.353-.318-.682-.513-.998a21.06 21.06 0 00-.863-1.27 57.364 57.364 0 00-2.113-2.716 144.23 144.23 0 00-2.617-3.078c-.197-.228-.527.104-.33.33" stroke="#6F41A7" stroke-width="1.248" fill="#6F41A7"/>
                <path d="M57.712 33.48a61.433 61.433 0 012.85 2.629c.648.628 1.299 1.256 1.867 1.957.508.627 1.07 1.416 1.094 2.256.025.892-.78 1.615-1.583 1.865-.448.139-.93.149-1.384.033-.315-.08-.639-.213-.826-.441-.08-.098-.247-.082-.33 0-.098.095-.08.234 0 .33.21.257.548.41.855.511a2.97 2.97 0 002.8-.516c.396-.316.745-.732.874-1.231.232-.892-.214-1.804-.707-2.523-.568-.828-1.277-1.55-1.994-2.248-1.039-1.011-2.083-2.009-3.186-2.952-.227-.195-.56.135-.33.33" stroke="#6F41A7" stroke-width="1.248" fill="#6F41A7"/>
                <path d="M54.64 37.119c1.552 1.156 3.11 2.484 4.205 4.074.186.269.396.563.518.87.084.212.029.495-.024.71-.066.27-.206.514-.395.718-.36.389-.85.585-1.379.505-.581-.088-1.095-.449-1.531-.822-.471-.403-.89-.86-1.327-1.298-.213-.214-.544.117-.331.33.807.81 1.62 1.797 2.744 2.163.544.176 1.162.15 1.66-.145a2.202 2.202 0 001.042-1.476c.052-.29.082-.613-.04-.89-.025-.054-.053-.107-.08-.16a6.561 6.561 0 00-.275-.473c-.383-.603-.84-1.16-1.325-1.683-.974-1.05-2.079-1.973-3.225-2.827-.102-.076-.26-.016-.32.084-.071.118-.017.245.084.32M56.787 11.24c-1.987-1.104-4.322-.798-6.423-.227-1.125.305-2.225.693-3.331 1.058-1.055.349-2.112.653-3.203.862-1.513.288-3.046.52-4.588.522-.301 0-.302.469 0 .468 1.363-.003 2.722-.183 4.063-.42a25.158 25.158 0 003.31-.804c2.134-.682 4.281-1.577 6.54-1.723 1.175-.076 2.356.09 3.395.667.264.147.5-.257.237-.404M33.443 29.143c2.299 1.47 4.664 2.839 6.899 4.407.63.442 1.25.9 1.852 1.381.1.08.234.096.331 0 .083-.08.099-.252 0-.33-2.157-1.723-4.513-3.164-6.855-4.614-.666-.413-1.33-.826-1.99-1.248-.255-.163-.49.242-.237.404" stroke="#6F41A7" stroke-width="1.248" fill="#6F41A7"/>
                <path d="M37.883 31.931c-.209.757-.255 1.647.186 2.335.414.645 1.16.914 1.904.866.276-.017.56-.062.82-.155.304-.11.585-.278.904-.348.294-.065.17-.516-.125-.451-.247.054-.475.166-.706.267a2.657 2.657 0 01-.687.198c-.333.05-.68.039-1-.069-.557-.187-.882-.695-.962-1.26-.059-.421.005-.852.117-1.258.08-.291-.371-.415-.451-.125M47.395 37.112c.12-1.055-.205-2.16-1.005-2.885-.687-.622-1.67-.912-2.568-.621-1.05.34-1.82 1.398-1.893 2.489-.068 1.003.54 1.883 1.47 2.234.61.23 1.312.207 1.95.124.747-.097 1.434-.373 1.978-.906.215-.211-.116-.542-.331-.331-.422.414-.948.648-1.526.75-.5.088-1.07.123-1.57.02-.793-.163-1.444-.757-1.503-1.593-.066-.927.533-1.904 1.384-2.275.707-.308 1.525-.145 2.127.313.827.63 1.133 1.679 1.02 2.681-.015.126.117.234.233.234.138 0 .22-.108.234-.234" stroke="#6F41A7" stroke-width="1.248" fill="#6F41A7"/>
                <path d="M51.615 39.914c.298-.705.092-1.456-.234-2.114-.243-.49-.585-.941-1.07-1.21-.825-.457-1.833-.274-2.578.253-.803.568-1.358 1.498-1.348 2.497.005.54.164 1.083.504 1.508.313.391.777.643 1.265.737.617.12 1.264.032 1.848-.19.321-.12.609-.266.866-.496.232-.206.475-.464.605-.75.053-.116.033-.25-.084-.32-.1-.06-.268-.03-.32.084-.197.433-.621.79-1.05.975-.44.19-.923.3-1.404.282-.402-.014-.815-.129-1.132-.384-.353-.285-.547-.708-.61-1.15-.116-.823.246-1.635.848-2.187.54-.496 1.323-.803 2.046-.585.443.134.792.46 1.032.848.334.54.68 1.333.412 1.966-.05.117-.034.25.084.32.098.059.271.033.32-.084" stroke="#6F41A7" stroke-width="1.248" fill="#6F41A7"/>
                <path d="M54.775 41.813c-.058-.475-.15-.912-.393-1.332-.219-.377-.5-.73-.844-1-.307-.241-.67-.421-1.067-.432-.424-.012-.818.195-1.108.495-.556.574-.641 1.534-.328 2.247.253.575.794.978 1.398 1.122.772.183 1.594-.023 2.227-.49.102-.075.15-.202.083-.32-.057-.1-.218-.159-.32-.084-.808.598-2.158.76-2.816-.163-.334-.469-.375-1.14-.13-1.658.15-.315.435-.587.783-.663.286-.063.573.037.815.188.334.208.603.52.814.848.25.391.362.786.418 1.242.016.126.097.234.234.234.115 0 .25-.107.234-.234" stroke="#6F41A7" stroke-width="1.248" fill="#6F41A7"/>
                <path d="M52.23 41.588c-.335-.12-.668-.392-.91-.649-.206-.22-.536.111-.33.331.299.319.702.62 1.116.77.283.101.406-.35.124-.452M49.801 39.567c-.565-.258-1.035-.715-1.438-1.179a6.467 6.467 0 01-.513-.687c-.09-.137-.257-.212-.393-.078-.059.058-.095.145-.13.218-.235.479-.454.972-.385 1.52.077.603.553 1.188 1.173 1.286.66.104 1.28-.265 1.734-.713.214-.211-.116-.542-.331-.33-.5.492-1.329.903-1.873.242-.297-.359-.302-.828-.146-1.25.03-.086.02-.056.055-.135a12.86 12.86 0 01.19-.41l.045-.087c.026-.06.069-.052-.045.024l-.18.024h.002l-.14-.107c.26.426.585.817.936 1.169.351.35.748.69 1.203.897.116.053.25.032.32-.084.06-.1.031-.268-.084-.32M43.1 35.512c.309.453.673.832 1.124 1.145.184.127.364.238.57.321.085.034.171.066.254.105.035.016.068.04.104.054.053.022-.005-.014-.008-.034v-.124c.012-.08.062-.08-.005-.022-.024.02.005 0-.04.03-.045.029-.09.055-.139.077-.028.013-.001.003-.051.02a1.384 1.384 0 01-.184.048c-.005.001-.073.011-.034.006a1.191 1.191 0 01-.678-.105 1 1 0 01-.494-.508c-.137-.317-.11-.686-.033-1.018.068-.293-.383-.418-.451-.124-.118.506-.128 1.073.16 1.527.219.344.577.584.975.667.37.076.775.04 1.107-.15.177-.102.4-.272.3-.502-.095-.214-.4-.295-.598-.374-.587-.234-1.113-.745-1.475-1.275-.169-.247-.574-.013-.404.236" stroke="#6F41A7" stroke-width="1.248" fill="#6F41A7"/>
                <path d="M51.966 41.695c-.128.178-.212.297-.368.453-.213.214.118.545.33.331.168-.168.304-.355.442-.547.074-.103.018-.26-.084-.32-.118-.07-.246-.02-.32.083M77.234 13.69l.008-.092c-.01.08.003-.008.007-.027.004-.022.011-.043.016-.065.017-.07-.015.018.004-.01.032-.05-.012.007-.008.004.042-.036-.052.032-.015.01a.112.112 0 01-.095.014c.055.012-.02-.014-.01-.007.012.01.028.016.041.025.04.028-.044-.045.005.004l.056.053c.036.037.07.077.102.118.039.047-.02-.03.018.023l.066.093c.456.657.795 1.404 1.13 2.127a74.821 74.821 0 012.03 4.842c.614 1.603 1.284 3.182 1.916 4.778.355.897.675 1.803.95 2.729.272.919.513 1.846.769 2.77.292 1.053.635 2.092.909 3.15.135.525.26 1.052.35 1.586.036.213.063.408.074.629.005.088.007.176.001.263 0 .02-.003.038-.004.057-.005.062.01-.05 0 .008-.007.035-.016.07-.025.105-.017.06.012-.042-.008.014-.012.034-.03.006.01-.011-.007.003-.066.03.018-.01-.031.015-.026.002-.013.008.037.018-.007.004-.023 0 .052.014-.023-.013-.025-.014.026.015-.05-.031-.057-.036-.19-.133-.34-.366-.464-.565-.374-.595-.648-1.258-.924-1.901-.656-1.531-1.18-3.114-1.74-4.681a13.19 13.19 0 01-.366-1.161c-.075-.292-.526-.168-.452.124.2.778.513 1.516.773 2.273.295.859.59 1.716.922 2.56.343.877.712 1.745 1.136 2.585.106.21.225.414.359.608.157.226.345.482.599.607.218.108.497.087.639-.13.09-.14.11-.318.115-.48.018-.483-.086-.98-.183-1.45a27.167 27.167 0 00-.692-2.632c-.592-1.892-1.018-3.833-1.663-5.709-.673-1.957-1.552-3.84-2.288-5.774-.267-.701-.54-1.4-.823-2.096a78.612 78.612 0 00-1.244-2.91c-.363-.8-.732-1.616-1.208-2.358-.138-.215-.294-.465-.516-.605-.233-.147-.485-.045-.58.205a1.226 1.226 0 00-.065.351c-.023.3.445.3.468 0" stroke="#6F41A7" stroke-width="1.248" fill="#6F41A7"/>
                <path d="M77.242 13.52c1.803-.636 3.601-1.284 5.405-1.916 1.753-.615 3.515-1.205 5.27-1.813A221.42 221.42 0 0092.9 8.009c2.522-.94 5.067-1.818 7.583-2.776 2.265-.863 4.522-1.758 6.732-2.755a59.014 59.014 0 004.101-2.043c.265-.144.029-.549-.236-.404a60.693 60.693 0 01-3.529 1.782c-2.028.938-4.103 1.776-6.187 2.583a253.024 253.024 0 01-4.843 1.812c-1.16.422-2.328.824-3.485 1.253a232.802 232.802 0 01-4.23 1.526c-1.68.588-3.368 1.157-5.052 1.737-1.805.623-3.603 1.268-5.403 1.908l-1.233.436c-.282.1-.16.552.124.452M85.721 37.303c.898-.283 1.802-.547 2.699-.836.894-.29 1.766-.639 2.656-.94.884-.3 1.779-.564 2.672-.833a38.035 38.035 0 002.675-.927c.88-.338 1.75-.702 2.64-1.011.88-.305 1.777-.554 2.66-.849.9-.301 1.787-.638 2.688-.936.897-.295 1.8-.573 2.691-.882 1.976-.685 3.917-1.482 5.948-1.993.292-.074.169-.525-.124-.452-1.82.458-3.57 1.147-5.335 1.777-1.782.637-3.6 1.167-5.377 1.819-.874.32-1.77.574-2.655.858-.895.287-1.766.636-2.64.977a46.65 46.65 0 01-2.667.974c-.889.286-1.789.535-2.678.82-.999.322-1.972.715-2.968 1.045-.997.33-2.007.622-3.01.938-.286.09-.163.542.125.451M38.851 13.404c-.304 3.121-1.277 6.135-2.494 9.012-.306.723-.65 1.43-.954 2.153-.301.717-.498 1.477-.832 2.18-.332.699-.774 1.337-1.127 2.024-.363.703-.636 1.458-.923 2.195-.654 1.678-1.268 3.375-2.073 4.99-.134.268.27.505.404.235.727-1.457 1.302-2.98 1.887-4.498.287-.747.574-1.495.893-2.23.314-.727.763-1.382 1.138-2.078.373-.69.61-1.428.877-2.162.268-.734.623-1.435.933-2.151.63-1.456 1.206-2.937 1.671-4.454.52-1.7.896-3.445 1.068-5.216.012-.126-.116-.234-.234-.234-.137 0-.221.107-.234.234" stroke="#6F41A7" stroke-width="1.248" fill="#6F41A7"/>
                <path d="M4.133.968C5.925 2.055 7.904 2.773 9.892 3.41c1.984.636 4 1.197 5.917 2.021.529.228 1.078.416 1.618.618a472.995 472.995 0 004.236 1.567c1.398.508 2.8 1.006 4.206 1.486.96.328 1.922.647 2.89.949.618.193 1.238.378 1.862.552.388.108.778.21 1.168.31.26.068.521.135.778.217 1.47.466 2.935.955 4.36 1.544.63.26 1.233.568 1.85.853.08.038.162.074.246.102.286.097.409-.355.124-.45l-.094-.037c.088.035-.033-.016-.062-.03-.096-.044-.19-.092-.285-.139-.307-.152-.615-.3-.928-.44-1.375-.613-2.8-1.113-4.23-1.58-.47-.153-.938-.308-1.416-.434-.347-.091-.695-.18-1.041-.273a55.5 55.5 0 01-1.657-.477 97.503 97.503 0 01-2.59-.83c-1.283-.43-2.561-.877-3.835-1.334a369.612 369.612 0 01-5.397-1.984c-.54-.203-1.091-.39-1.622-.617-.48-.205-.966-.397-1.457-.576a64.951 64.951 0 00-2.956-.979c-1.985-.62-3.989-1.225-5.859-2.147-.46-.226-.91-.472-1.349-.738-.258-.157-.493.248-.236.404M30.615 35.915a77.69 77.69 0 00-4.812-1.583c-.928-.268-1.865-.503-2.8-.747a19.88 19.88 0 01-1-.283c-.568-.18-1.113-.423-1.664-.648-1.498-.613-3-1.217-4.512-1.796a81.08 81.08 0 00-2.838-1.035c-.648-.221-1.302-.422-1.956-.625-.196-.06-.383-.162-.57-.245a424.475 424.475 0 00-4.279-1.865 188.708 188.708 0 00-3.2-1.337c-.593-.241-1.19-.477-1.788-.708l-.495-.19a17 17 0 01-.174-.068l-.07-.028c-.074-.03.046.021-.008-.004-.031-.014-.063-.027-.094-.043-.269-.134-.506.27-.236.404.214.107.444.185.666.27.498.191.995.385 1.49.583.928.37 1.85.753 2.77 1.142a317.217 317.217 0 015.264 2.285c.195.086.389.188.591.253.15.047.3.09.449.136.321.099.641.2.96.305a66.86 66.86 0 012.552.902c1.348.505 2.687 1.035 4.022 1.574 1.149.463 2.28.996 3.475 1.332.824.231 1.658.427 2.484.652a67.9 67.9 0 014.219 1.313c.478.164.954.333 1.43.505.284.103.406-.35.124-.451M67.526 26.482c1.238.064 2.61.187 3.712-.5.255-.16.02-.564-.236-.404-1.026.639-2.326.496-3.476.437-.301-.016-.3.452 0 .467" stroke="#6F41A7" stroke-width="1.248" fill="#6F41A7"/>
                <circle fill="#FFF" cx="44.922" cy="36.156" r="1.872"/>
                <circle fill="#FFF" cx="49.289" cy="38.652" r="1.872"/>
                <circle fill="#FFF" cx="53.033" cy="41.147" r="1.248"/>
                <path d="M45.872 21.186c.206-.276.421-.545.623-.824.22-.304.443-.62.598-.964.188-.421.3-.884.452-1.32.25-.711.52-1.419.858-2.093.116-.23.241-.458.38-.676.118-.184.213-.317.34-.46.101-.117 1.55-.968 1.989-1.147 1.231-.5 2.5-.914 3.778-1.275 1.157-.328 2.355-.645 3.547-.761.208-.02.417-.034.627-.03.218.005.33.023.548.077.605.15 1.19.391 1.764.632 1.284.539 2.526 1.172 3.805 1.722 1.573.677 3.217 1.254 4.925 1.456.659.077 1.309.071 1.968.008a15.498 15.498 0 002.509-.435c.927-.248 1.778-.632 2.625-1.075.047-.025.095-.05.144-.073.014-.006.085-.037.044-.02-.041.016.024-.009.038-.013.283-.097.161-.549-.125-.451-.252.085-.484.233-.718.355a9.808 9.808 0 01-1.238.548c-.673.241-1.37.413-2.074.535-.772.134-1.565.233-2.35.213-1.547-.04-3.07-.497-4.506-1.044-1.408-.537-2.751-1.224-4.128-1.834a24.11 24.11 0 00-1.974-.8c-.441-.15-.888-.272-1.357-.27-.496.004-.993.08-1.48.165-.622.11-1.237.251-1.848.408-1.322.34-2.63.748-3.91 1.224-.536.2-1.07.413-1.59.654-.348.162-.702.333-1.004.573-.738.583-1.158 1.549-1.513 2.39a22.83 22.83 0 00-.452 1.168c-.163.453-.289.923-.462 1.372-.131.34-.362.653-.573.948-.202.282-.418.553-.626.83-.213.284-.417.578-.653.843-.2.224.13.556.33.33.25-.278.466-.587.689-.886z" stroke="#6F41A7" stroke-width="1.248" fill="#6F41A7"/>
                <path fill-opacity=".249" fill="#6F41A7" d="M4.022 4.724l30.849 10.843-6.366 16.282-26.611-9.703zM83.835 15.567l5.869 16.909 21.728-6.935V2.834z"/>
            </g>
            <path d="M228.28 106.057v-34.57a3.083 3.083 0 01-1.994-1.77 3.1 3.1 0 01-1.414-2.609v-1.344h-1.108v1.344a3.1 3.1 0 01-1.414 2.609 3.08 3.08 0 01-1.993 1.77v40.256h7.922v-5.686zM212.714 71.487a3.083 3.083 0 01-1.994-1.77 3.101 3.101 0 01-1.413-2.61v-1.343h-1.109v1.344a3.1 3.1 0 01-1.414 2.609 3.083 3.083 0 01-1.993 1.77v40.256h7.923V71.487zM195.155 69.717a3.1 3.1 0 01-1.414-2.61v-1.343h-1.109v1.344a3.1 3.1 0 01-1.413 2.609 3.08 3.08 0 01-1.994 1.77v40.256h7.923V71.487a3.084 3.084 0 01-1.993-1.77" fill-opacity=".227" fill="#6F41A7"/>
            <g transform="translate(176 47.206)">
                <mask id="b" fill="#fff">
                    <use xlink:href="#a"/>
                </mask>
                <path d="M64.523 14.435a2.243 2.243 0 00-1.248-.381h-1.933l-1.116-4.84v.003a2.832 2.832 0 00-.922-1.534 2.579 2.579 0 00-1.685-.628h-2.744c-.83 0-1.658-.043-2.48-.131a1.092 1.092 0 00-.23 2.174c.899.093 1.804.142 2.71.142h2.744c.047 0 .09.005.136.023a.534.534 0 01.2.147c.062.074.114.17.142.293v.003l1.004 4.348H33.844v-1.038h.24a2.74 2.74 0 002.263-1.202 2.738 2.738 0 00.253-2.592 2.744 2.744 0 00-2.517-1.67h-2.4a.524.524 0 01-.454-.239.556.556 0 01-.094-.307v-.04c0-.08.016-.147.043-.21a.548.548 0 01.506-.335h4.04a1.092 1.092 0 000-2.185h-1.88V2.837L44.05 6.921l.544.216a1.092 1.092 0 10.81-2.029l-.544-.216L33.157.212c-.06-.026-.122-.02-.184-.035a1.235 1.235 0 00-.162-.031 1.07 1.07 0 00-.401.057c-.02.006-.043 0-.063.006L20.642 4.892l-1.08.432a24.013 24.013 0 01-8.933 1.73H7.886c-.317 0-.627.06-.912.168-.428.162-.8.432-1.09.776-.291.344-.5.759-.606 1.216l-1.115 4.84H2.23c-.159 0-.312.028-.449.07-.128.043-.24.097-.338.157a1.901 1.901 0 00-.437.37 3.04 3.04 0 00-.457.693 5.701 5.701 0 00-.504 1.577 3.513 3.513 0 00-.044.5 2.228 2.228 0 00.934 1.813c.045.031.102.048.15.077v.591c0 .719.182 1.41.513 2.017.277.507.678.932 1.141 1.29.239.466.541.893.925 1.234.25.221.531.404.828.563v38.437H2.23a1.091 1.091 0 000 2.185h61.046a1.091 1.091 0 000-2.185h-2.261V25.006c.296-.16.578-.342.828-.563.383-.341.686-.768.925-1.233.463-.359.864-.784 1.14-1.29a4.21 4.21 0 00.514-2.018v-.762c.042-.046.102-.085.139-.128a3.14 3.14 0 00.427-.687 5.737 5.737 0 00.475-1.555c.026-.164.041-.318.043-.486a2.237 2.237 0 00-.982-1.85zM7.407 9.705v-.002a.66.66 0 01.207-.358.519.519 0 01.135-.082.376.376 0 01.137-.023h2.743c3.327 0 6.626-.642 9.744-1.887l1.08-.432 10.208-4.084v1.404c-.366.003-.72.074-1.041.21a2.73 2.73 0 00-1.667 2.515v.04a2.737 2.737 0 001.202 2.265 2.74 2.74 0 001.529.466h2.4c.078 0 .147.014.213.043a.547.547 0 01.291.716.555.555 0 01-.199.244.554.554 0 01-.305.091h-4.04a1.092 1.092 0 000 2.185h1.617v1.038H6.404l1.003-4.348zM2.195 17.3a3.585 3.585 0 01.35-1.06h60.731c.008 0 .012.003.017.003l.02.016c.005.01.008.012.008.026 0 .003-.003.054-.012.123a3.717 3.717 0 01-.102.46c-.037.13-.082.264-.13.38a1.964 1.964 0 01-.102.217H2.222l-.01-.003-.022-.017c-.003-.009-.006-.009-.006-.023 0-.005.003-.054.011-.122zm44.476 2.603a2.015 2.015 0 01-.915 1.693c-.183.12-.33.296-.415.495-.113.276-.29.52-.511.716a2.02 2.02 0 01-.698.384h-7.194a2.022 2.022 0 01-.697-.384 1.969 1.969 0 01-.514-.716 1.115 1.115 0 00-.413-.495 2.007 2.007 0 01-.916-1.693v-.256H46.67v.256zm-16.789 5.104c.299-.16.578-.342.83-.563a4.19 4.19 0 00.925-1.233c.452-.347.84-.765 1.115-1.257.276.492.664.907 1.116 1.257.238.465.54.892.925 1.233.251.221.531.404.83.563v32.753h-5.74V25.006zm1.225-5.104a2.009 2.009 0 01-.917 1.693c-.183.12-.33.296-.413.495-.115.276-.291.52-.513.716-.2.176-.443.298-.698.384h-7.194a2.018 2.018 0 01-.697-.384 1.949 1.949 0 01-.512-.716 1.126 1.126 0 00-.414-.495 1.993 1.993 0 01-.67-.724 1.993 1.993 0 01-.245-.969v-.256h12.273v.256zM16.071 23.21c.452-.35.842-.768 1.116-1.257.275.49.663.91 1.115 1.257.239.465.543.892.926 1.233.25.221.532.404.83.563v32.753h-5.74V25.006a4.35 4.35 0 00.829-.563c.383-.341.686-.768.924-1.233zm-1.753 40.233h5.74v-3.501h-5.74v3.501zm7.923-4.592V25.375h5.46v38.068h-5.46v-4.592zm7.641 4.592h5.74v-3.501h-5.74v3.501zm7.923-4.592V25.375h5.459v38.068h-5.459v-4.592zm7.643 4.592h5.739v-3.501h-5.74v3.501zm5.739-5.684h-5.74V25.006c.298-.16.58-.342.829-.563.384-.341.688-.768.927-1.233.452-.347.84-.768 1.115-1.257.274.49.663.91 1.115 1.257.239.465.541.892.925 1.233.252.221.532.404.829.563v32.753zM3.514 20.871a2.009 2.009 0 01-.246-.969v-.256H15.54v.256a2.009 2.009 0 01-.916 1.693 1.11 1.11 0 00-.413.495c-.115.276-.292.52-.513.716a2.002 2.002 0 01-.696.384H5.807a1.996 1.996 0 01-.696-.384 1.969 1.969 0 01-.513-.716 1.123 1.123 0 00-.413-.495 1.983 1.983 0 01-.671-.724zm3.161 4.504h5.46v38.068h-5.46V25.375zm46.696 38.068V25.375h5.459v38.068h-5.46zm7.95-41.848c-.183.12-.33.296-.414.495-.115.276-.291.52-.513.716a1.996 1.996 0 01-.696.384h-7.195a2.005 2.005 0 01-.697-.384 1.972 1.972 0 01-.513-.716 1.114 1.114 0 00-.413-.495 2.013 2.013 0 01-.917-1.693v-.256h12.274v.256a2.013 2.013 0 01-.917 1.693z" fill="#6F41A7" mask="url(#b)"/>
            </g>
            <g>
                <path d="M164 194.922h86.1V150H164v44.922zm1.262-1.262h83.576v-42.398h-83.576v42.398z" stroke="#6F41A7" stroke-width=".624" fill="#6F41A7"/>
                <path stroke="#6F41A7" stroke-width=".624" fill="#6F41A7" d="M172.735 194.298h1.248v-43.05h-1.248zM168.367 175.58h1.248v-6.239h-1.248zM168.367 163.102h1.248v-6.239h-1.248zM168.367 188.059h1.248v-6.24h-1.248z"/>
                <g transform="translate(164 150)">
                    <path d="M25.301 9.818c-3.446 0-6.25 2.802-6.25 6.245 0 3.444 2.804 6.245 6.25 6.245s6.25-2.801 6.25-6.245c0-3.443-2.804-6.245-6.25-6.245m0 13.75c-4.142 0-7.511-3.366-7.511-7.505 0-4.138 3.37-7.505 7.511-7.505s7.511 3.367 7.511 7.505c0 4.139-3.37 7.506-7.511 7.506" stroke="#6F41A7" stroke-width=".624" fill="#6F41A7"/>
                    <path stroke="#6F41A7" stroke-width=".624" fill="#6F41A7" d="M24.428 19.242l-2.964-2.962.892-.891 2.072 2.07 4.133-4.13.892.892z"/>
                    <mask id="d" fill="#fff">
                        <use xlink:href="#c"/>
                    </mask>
                    <use stroke="#6F41A7" stroke-width=".624" xlink:href="#c"/>
                    <path stroke="#6F41A7" stroke-width=".624" fill="#6F41A7" mask="url(#d)" d="M36.678 16.916h9.327v-1.26h-9.327zM40.07 20.067h5.935v-1.26H40.07zM40.07 13.765h5.935v-1.26H40.07zM36.678 29.034h9.327v-1.26h-9.327zM56.422 36.42h9.328v-1.26h-9.328zM67.273 36.42h5.065v-1.26h-5.065zM73.862 36.42h3.236v-1.26h-3.236zM62.514 29.034h3.236v-1.26h-3.236zM17.79 36.42h28.215v-1.26H17.79zM17.79 29.034h15.022v-1.26H17.79zM67.273 29.034h9.825v-1.26h-9.825zM71.727 12.003v-1.572h1.434v1.589c.732.054 1.459.18 2.18.376v1.31a9.863 9.863 0 00-3.057-.49c-1.431 0-2.147.409-2.147 1.227 0 .765.45 1.147 1.352 1.147h1.23c1.966 0 2.95.846 2.95 2.539 0 1.37-.836 2.167-2.508 2.39v1.622h-1.434v-1.564a11.658 11.658 0 01-2.696-.401v-1.31a9.885 9.885 0 003.065.49c1.37 0 2.057-.409 2.057-1.227 0-.765-.479-1.147-1.435-1.147H71.49c-1.857 0-2.786-.846-2.786-2.539 0-1.506 1.008-2.32 3.024-2.44M51.596 20.067h10.918v-7.562H51.596v7.562zm1.261-1.26h8.395v-5.041h-8.395v5.04z"/>
                </g>
                <path fill-opacity=".262" fill="#6F41A7" d="M179.598 159.983h55.528v29.324h-55.528z"/>
            </g>
            <circle stroke="#6F41A7" cx="148" cy="148" r="147.5"/>
        </g>
        <g fill-rule="nonzero">
            <path d="M175.536 356.736l-25.211-25.46h11.765v-23.763h26.891v23.763h11.765z" fill="#6F41A7" fill-opacity=".219"/>
            <path d="M210 365h-68v-68h68z"/>
        </g>
    </g>
</svg>