<?xml version="1.0" encoding="UTF-8"?>
<svg width="687px" height="93px" viewBox="0 0 687 93" version="1.1" xmlns="http://www.w3.org/2000/svg" xmlns:xlink="http://www.w3.org/1999/xlink">
    <title>New Agency Funding</title>
    <g id="SVG-2.0" stroke="none" stroke-width="1" fill="none" fill-rule="evenodd">
        <g id="viz-3-tablet-outline" transform="translate(-61.000000, -78.000000)">
            <g id="New-Agency-Funding" transform="translate(61.000000, 78.000000)">
                <g id="Group-8">
                    <rect id="unobligated" fill="#F3E9FF" x="357" y="0" width="274" height="40"></rect>
                    <rect id="obligated" fill="#6F41A7" x="321" y="0" width="36" height="40"></rect>
                    <rect id="outlays" fill="#331E4D" x="0" y="0" width="321" height="40"></rect>
                </g>
                <path d="M643.992,26.76 L643.992,25.096 C644.824,24.9146667 645.448,24.5493333 645.864,24 C646.28,23.4506667 646.488,22.792 646.488,22.024 C646.488,21.512 646.384,21.0826667 646.176,20.736 C645.968,20.3893333 645.706667,20.0933333 645.392,19.848 C645.077333,19.6026667 644.738667,19.3946667 644.376,19.224 C644.013333,19.0533333 643.674667,18.888 643.36,18.728 C643.045333,18.568 642.784,18.4 642.576,18.224 C642.368,18.048 642.264,17.832 642.264,17.576 C642.264,17.2133333 642.365333,16.952 642.568,16.792 C642.770667,16.632 643.064,16.552 643.448,16.552 C643.789333,16.552 644.093333,16.6186667 644.36,16.752 C644.626667,16.8853333 644.904,17.0853333 645.192,17.352 L645.192,17.352 L646.376,16.008 C646.066667,15.6773333 645.72,15.3946667 645.336,15.16 C644.952,14.9253333 644.504,14.7706667 643.992,14.696 L643.992,14.696 L643.992,13.08 L642.44,13.08 L642.44,14.728 C641.682667,14.8773333 641.088,15.2106667 640.656,15.728 C640.224,16.2453333 640.008,16.8986667 640.008,17.688 C640.008,18.168 640.112,18.5733333 640.32,18.904 C640.528,19.2346667 640.789333,19.5226667 641.104,19.768 C641.418667,20.0133333 641.757333,20.224 642.12,20.4 C642.482667,20.576 642.821333,20.752 643.136,20.928 C643.450667,21.104 643.712,21.288 643.92,21.48 C644.128,21.672 644.232,21.9066667 644.232,22.184 C644.232,22.5573333 644.128,22.8346667 643.92,23.016 C643.712,23.1973333 643.384,23.288 642.936,23.288 C642.552,23.288 642.176,23.2106667 641.808,23.056 C641.44,22.9013333 641.053333,22.6693333 640.648,22.36 L640.648,22.36 L639.624,23.944 C639.997333,24.2853333 640.442667,24.56 640.96,24.768 C641.477333,24.976 641.970667,25.1066667 642.44,25.16 L642.44,25.16 L642.44,26.76 L643.992,26.76 Z M655.192,25 L655.192,23.016 L653.144,23.016 C652.898667,23.016 652.618667,23.0293333 652.304,23.056 C651.989333,23.0826667 651.704,23.112 651.448,23.144 C651.864,22.7173333 652.266667,22.2826667 652.656,21.84 C653.045333,21.3973333 653.392,20.9546667 653.696,20.512 C654,20.0693333 654.242667,19.6266667 654.424,19.184 C654.605333,18.7413333 654.696,18.3066667 654.696,17.88 C654.696,17.3893333 654.616,16.9466667 654.456,16.552 C654.296,16.1573333 654.066667,15.8186667 653.768,15.536 C653.469333,15.2533333 653.114667,15.0346667 652.704,14.88 C652.293333,14.7253333 651.837333,14.648 651.336,14.648 C650.610667,14.648 649.986667,14.784 649.464,15.056 C648.941333,15.328 648.429333,15.7306667 647.928,16.264 L647.928,16.264 L649.208,17.528 C649.464,17.2506667 649.736,17.008 650.024,16.8 C650.312,16.592 650.642667,16.488 651.016,16.488 C651.464,16.488 651.816,16.6186667 652.072,16.88 C652.328,17.1413333 652.456,17.5226667 652.456,18.024 C652.456,18.3866667 652.346667,18.768 652.128,19.168 C651.909333,19.568 651.605333,20 651.216,20.464 C650.826667,20.928 650.362667,21.424 649.824,21.952 C649.285333,22.48 648.690667,23.048 648.04,23.656 L648.04,23.656 L648.04,25 L655.192,25 Z M658.296,25.192 C658.701333,25.192 659.04,25.0506667 659.312,24.768 C659.584,24.4853333 659.72,24.136 659.72,23.72 C659.72,23.2933333 659.584,22.9386667 659.312,22.656 C659.04,22.3733333 658.701333,22.232 658.296,22.232 C657.890667,22.232 657.552,22.3733333 657.28,22.656 C657.008,22.9386667 656.872,23.2933333 656.872,23.72 C656.872,24.136 657.008,24.4853333 657.28,24.768 C657.552,25.0506667 657.890667,25.192 658.296,25.192 Z M664.648,25.192 C665.138667,25.192 665.610667,25.112 666.064,24.952 C666.517333,24.792 666.914667,24.56 667.256,24.256 C667.597333,23.952 667.869333,23.5813333 668.072,23.144 C668.274667,22.7066667 668.376,22.2053333 668.376,21.64 C668.376,21.096 668.290667,20.6266667 668.12,20.232 C667.949333,19.8373333 667.714667,19.512 667.416,19.256 C667.117333,19 666.773333,18.808 666.384,18.68 C665.994667,18.552 665.581333,18.488 665.144,18.488 C664.930667,18.488 664.736,18.5066667 664.56,18.544 C664.384,18.5813333 664.2,18.6426667 664.008,18.728 L664.008,18.728 L664.184,16.824 L667.912,16.824 L667.912,14.84 L662.152,14.84 L661.864,19.976 L662.92,20.648 C663.069333,20.552 663.205333,20.472 663.328,20.408 C663.450667,20.344 663.568,20.2906667 663.68,20.248 C663.792,20.2053333 663.906667,20.176 664.024,20.16 C664.141333,20.144 664.274667,20.136 664.424,20.136 C664.904,20.136 665.290667,20.2693333 665.584,20.536 C665.877333,20.8026667 666.024,21.192 666.024,21.704 C666.024,22.2266667 665.869333,22.6213333 665.56,22.888 C665.250667,23.1546667 664.834667,23.288 664.312,23.288 C663.874667,23.288 663.477333,23.1893333 663.12,22.992 C662.762667,22.7946667 662.429333,22.5573333 662.12,22.28 L662.12,22.28 L661.064,23.768 C661.469333,24.1733333 661.96,24.512 662.536,24.784 C663.112,25.056 663.816,25.192 664.648,25.192 Z M672.808,25.192 C673.341333,25.192 673.856,25.0826667 674.352,24.864 C674.848,24.6453333 675.285333,24.312 675.664,23.864 C676.042667,23.416 676.346667,22.8453333 676.576,22.152 C676.805333,21.4586667 676.92,20.6373333 676.92,19.688 C676.92,18.792 676.810667,18.0266667 676.592,17.392 C676.373333,16.7573333 676.085333,16.2373333 675.728,15.832 C675.370667,15.4266667 674.96,15.128 674.496,14.936 C674.032,14.744 673.554667,14.648 673.064,14.648 C672.605333,14.648 672.170667,14.7253333 671.76,14.88 C671.349333,15.0346667 670.992,15.2613333 670.688,15.56 C670.384,15.8586667 670.141333,16.2186667 669.96,16.64 C669.778667,17.0613333 669.688,17.5333333 669.688,18.056 C669.688,18.5893333 669.765333,19.0533333 669.92,19.448 C670.074667,19.8426667 670.285333,20.168 670.552,20.424 C670.818667,20.68 671.136,20.872 671.504,21 C671.872,21.128 672.274667,21.192 672.712,21.192 C672.872,21.192 673.042667,21.168 673.224,21.12 C673.405333,21.072 673.586667,21.0026667 673.768,20.912 C673.949333,20.8213333 674.125333,20.7093333 674.296,20.576 C674.466667,20.4426667 674.616,20.2906667 674.744,20.12 C674.722667,20.7173333 674.656,21.216 674.544,21.616 C674.432,22.016 674.282667,22.3413333 674.096,22.592 C673.909333,22.8426667 673.693333,23.0213333 673.448,23.128 C673.202667,23.2346667 672.936,23.288 672.648,23.288 C672.349333,23.288 672.056,23.216 671.768,23.072 C671.48,22.928 671.250667,22.76 671.08,22.568 L671.08,22.568 L669.832,23.976 C670.152,24.296 670.56,24.5786667 671.056,24.824 C671.552,25.0693333 672.136,25.192 672.808,25.192 Z M673.176,19.528 C672.792,19.528 672.472,19.4186667 672.216,19.2 C671.96,18.9813333 671.832,18.6 671.832,18.056 C671.832,17.48 671.96,17.0613333 672.216,16.8 C672.472,16.5386667 672.770667,16.408 673.112,16.408 C673.474667,16.408 673.802667,16.56 674.096,16.864 C674.389333,17.168 674.589333,17.72 674.696,18.52 C674.493333,18.8826667 674.256,19.1413333 673.984,19.296 C673.712,19.4506667 673.442667,19.528 673.176,19.528 Z M683.224,25 L683.224,16.552 L686.088,16.552 L686.088,14.568 L677.992,14.568 L677.992,16.552 L680.856,16.552 L680.856,25 L683.224,25 Z" id="$2.59T" fill="#6F41A7" fill-rule="nonzero"></path>
                <path d="M4.718,73.168 C5.31533333,73.168 5.86133333,73.0583333 6.356,72.839 C6.85066667,72.6196667 7.27766667,72.3023333 7.637,71.887 C7.99633333,71.4716667 8.274,70.97 8.47,70.382 C8.666,69.794 8.764,69.1266667 8.764,68.38 C8.764,67.6426667 8.666,66.9823333 8.47,66.399 C8.274,65.8156667 7.99633333,65.3233333 7.637,64.922 C7.27766667,64.5206667 6.85066667,64.2126667 6.356,63.998 C5.86133333,63.7833333 5.31533333,63.676 4.718,63.676 C4.12066667,63.676 3.57466667,63.7833333 3.08,63.998 C2.58533333,64.2126667 2.16066667,64.5206667 1.806,64.922 C1.45133333,65.3233333 1.176,65.8156667 0.98,66.399 C0.784,66.9823333 0.686,67.6426667 0.686,68.38 C0.686,69.1266667 0.784,69.794 0.98,70.382 C1.176,70.97 1.45133333,71.4716667 1.806,71.887 C2.16066667,72.3023333 2.58533333,72.6196667 3.08,72.839 C3.57466667,73.0583333 4.12066667,73.168 4.718,73.168 Z M4.718,71.754 C4.354,71.754 4.02733333,71.6746667 3.738,71.516 C3.44866667,71.3573333 3.20133333,71.131 2.996,70.837 C2.79066667,70.543 2.632,70.1883333 2.52,69.773 C2.408,69.3576667 2.352,68.8933333 2.352,68.38 C2.352,67.3533333 2.56433333,66.5483333 2.989,65.965 C3.41366667,65.3816667 3.99,65.09 4.718,65.09 C5.446,65.09 6.02233333,65.3816667 6.447,65.965 C6.87166667,66.5483333 7.084,67.3533333 7.084,68.38 C7.084,68.8933333 7.028,69.3576667 6.916,69.773 C6.804,70.1883333 6.64533333,70.543 6.44,70.837 C6.23466667,71.131 5.98733333,71.3573333 5.698,71.516 C5.40866667,71.6746667 5.082,71.754 4.718,71.754 Z M12.502,73.168 C12.978,73.168 13.391,73.0606667 13.741,72.846 C14.091,72.6313333 14.4153333,72.3466667 14.714,71.992 L14.714,71.992 L14.756,71.992 L14.882,73 L16.198,73 L16.198,66.126 L14.588,66.126 L14.588,70.83 C14.3266667,71.166 14.0816667,71.4086667 13.853,71.558 C13.6243333,71.7073333 13.3606667,71.782 13.062,71.782 C12.6886667,71.782 12.418,71.6653333 12.25,71.432 C12.082,71.1986667 11.998,70.7973333 11.998,70.228 L11.998,70.228 L11.998,66.126 L10.388,66.126 L10.388,70.438 C10.388,71.3153333 10.556,71.9896667 10.892,72.461 C11.228,72.9323333 11.7646667,73.168 12.502,73.168 Z M20.664,73.168 C20.9346667,73.168 21.189,73.1423333 21.427,73.091 C21.665,73.0396667 21.8773333,72.9813333 22.064,72.916 L22.064,72.916 L21.784,71.726 C21.6813333,71.7726667 21.567,71.81 21.441,71.838 C21.315,71.866 21.1913333,71.88 21.07,71.88 C20.426,71.88 20.104,71.4786667 20.104,70.676 L20.104,70.676 L20.104,67.4 L21.854,67.4 L21.854,66.126 L20.104,66.126 L20.104,64.25 L18.76,64.25 L18.564,66.126 L17.5,66.196 L17.5,67.4 L18.48,67.4 L18.48,70.676 C18.48,71.0493333 18.5196667,71.3876667 18.599,71.691 C18.6783333,71.9943333 18.8043333,72.2556667 18.977,72.475 C19.1496667,72.6943333 19.3736667,72.8646667 19.649,72.986 C19.9243333,73.1073333 20.2626667,73.168 20.664,73.168 Z M24.864,73.168 C25.2186667,73.168 25.5033333,73.1213333 25.718,73.028 L25.718,73.028 L25.508,71.824 C25.4426667,71.8426667 25.3936667,71.852 25.361,71.852 L25.361,71.852 L25.256,71.852 C25.172,71.852 25.0926667,71.8123333 25.018,71.733 C24.9433333,71.6536667 24.906,71.516 24.906,71.32 L24.906,71.32 L24.906,63.116 L23.296,63.116 L23.296,71.236 C23.296,71.8333333 23.4126667,72.3046667 23.646,72.65 C23.8793333,72.9953333 24.2853333,73.168 24.864,73.168 Z M28.756,73.168 C29.1666667,73.168 29.547,73.0793333 29.897,72.902 C30.247,72.7246667 30.576,72.5053333 30.884,72.244 L30.884,72.244 L30.94,72.244 L31.052,73 L32.382,73 L32.382,68.926 C32.382,67.9646667 32.1696667,67.2296667 31.745,66.721 C31.3203333,66.2123333 30.6786667,65.958 29.82,65.958 C29.2693333,65.958 28.756,66.0466667 28.28,66.224 C27.804,66.4013333 27.3746667,66.6113333 26.992,66.854 L26.992,66.854 L27.58,67.932 C27.888,67.7453333 28.203,67.5866667 28.525,67.456 C28.847,67.3253333 29.176,67.26 29.512,67.26 C29.7453333,67.26 29.9413333,67.295 30.1,67.365 C30.2586667,67.435 30.387,67.533 30.485,67.659 C30.583,67.785 30.653,67.9296667 30.695,68.093 C30.737,68.2563333 30.7626667,68.4266667 30.772,68.604 C30.0626667,68.6786667 29.4536667,68.786 28.945,68.926 C28.4363333,69.066 28.0163333,69.2386667 27.685,69.444 C27.3536667,69.6493333 27.111,69.8943333 26.957,70.179 C26.803,70.4636667 26.726,70.788 26.726,71.152 C26.726,71.7586667 26.9126667,72.2463333 27.286,72.615 C27.6593333,72.9836667 28.1493333,73.168 28.756,73.168 Z M29.274,71.908 C28.9846667,71.908 28.7466667,71.838 28.56,71.698 C28.3733333,71.558 28.28,71.334 28.28,71.026 C28.28,70.858 28.322,70.6993333 28.406,70.55 C28.49,70.4006667 28.63,70.2676667 28.826,70.151 C29.022,70.0343333 29.2786667,69.9293333 29.596,69.836 C29.9133333,69.7426667 30.3053333,69.668 30.772,69.612 L30.772,69.612 L30.772,71.152 C30.5106667,71.3946667 30.2656667,71.5813333 30.037,71.712 C29.8083333,71.8426667 29.554,71.908 29.274,71.908 Z M34.776,75.828 C35.1493333,75.828 35.4783333,75.7696667 35.763,75.653 C36.0476667,75.5363333 36.2996667,75.3683333 36.519,75.149 C36.7383333,74.9296667 36.932,74.666 37.1,74.358 C37.268,74.05 37.422,73.7 37.562,73.308 L37.562,73.308 L40.054,66.126 L38.5,66.126 L37.464,69.5 C37.38,69.808 37.2936667,70.1276667 37.205,70.459 C37.1163333,70.7903333 37.03,71.1146667 36.946,71.432 L36.946,71.432 L36.89,71.432 C36.7873333,71.1053333 36.687,70.7763333 36.589,70.445 C36.491,70.1136667 36.3906667,69.7986667 36.288,69.5 L36.288,69.5 L35.098,66.126 L33.46,66.126 L36.162,72.916 L36.036,73.35 C35.924,73.6953333 35.7583333,73.9776667 35.539,74.197 C35.3196667,74.4163333 35.028,74.526 34.664,74.526 C34.58,74.526 34.4936667,74.5143333 34.405,74.491 C34.3163333,74.4676667 34.2393333,74.4466667 34.174,74.428 L34.174,74.428 L33.88,75.688 C34.0106667,75.7346667 34.146,75.7696667 34.286,75.793 C34.426,75.8163333 34.5893333,75.828 34.776,75.828 Z M43.162,73.168 C43.5913333,73.168 43.974,73.112 44.31,73 C44.646,72.888 44.926,72.7363333 45.15,72.545 C45.374,72.3536667 45.5443333,72.1296667 45.661,71.873 C45.7776667,71.6163333 45.836,71.3386667 45.836,71.04 C45.836,70.7226667 45.7776667,70.4496667 45.661,70.221 C45.5443333,69.9923333 45.3903333,69.7986667 45.199,69.64 C45.0076667,69.4813333 44.7953333,69.3483333 44.562,69.241 C44.3286667,69.1336667 44.0953333,69.038 43.862,68.954 C43.6753333,68.8886667 43.4956667,68.8233333 43.323,68.758 C43.1503333,68.6926667 42.9986667,68.6226667 42.868,68.548 C42.7373333,68.4733333 42.6323333,68.387 42.553,68.289 C42.4736667,68.191 42.434,68.072 42.434,67.932 C42.434,67.7173333 42.5156667,67.5376667 42.679,67.393 C42.8423333,67.2483333 43.0966667,67.176 43.442,67.176 C43.7126667,67.176 43.9716667,67.2296667 44.219,67.337 C44.4663333,67.4443333 44.7113333,67.5866667 44.954,67.764 L44.954,67.764 L45.696,66.784 C45.416,66.5693333 45.0846667,66.378 44.702,66.21 C44.3193333,66.042 43.89,65.958 43.414,65.958 C42.6393333,65.958 42.028,66.1493333 41.58,66.532 C41.132,66.9146667 40.908,67.4093333 40.908,68.016 C40.908,68.3053333 40.9663333,68.555 41.083,68.765 C41.1996667,68.975 41.349,69.1593333 41.531,69.318 C41.713,69.4766667 41.9206667,69.612 42.154,69.724 C42.3873333,69.836 42.616,69.934 42.84,70.018 C43.0173333,70.0926667 43.1946667,70.165 43.372,70.235 C43.5493333,70.305 43.708,70.382 43.848,70.466 C43.988,70.55 44.1,70.6456667 44.184,70.753 C44.268,70.8603333 44.31,70.984 44.31,71.124 C44.31,71.3666667 44.2213333,71.565 44.044,71.719 C43.8666667,71.873 43.5913333,71.95 43.218,71.95 C42.8633333,71.95 42.5343333,71.8823333 42.231,71.747 C41.9276667,71.6116667 41.622,71.4226667 41.314,71.18 L41.314,71.18 L40.558,72.216 C40.894,72.4866667 41.293,72.713 41.755,72.895 C42.217,73.077 42.686,73.168 43.162,73.168 Z" id="Outlays" fill="#666666" fill-rule="nonzero"></path>
                <path d="M3.948,92.54 L3.948,91.126 C4.62,91.0326667 5.14966667,90.7713333 5.537,90.342 C5.92433333,89.9126667 6.118,89.362 6.118,88.69 C6.118,88.186 6.02233333,87.773 5.831,87.451 C5.63966667,87.129 5.39933333,86.8583333 5.11,86.639 C4.82066667,86.4196667 4.50566667,86.233 4.165,86.079 C3.82433333,85.925 3.50933333,85.7663333 3.22,85.603 C2.93066667,85.4396667 2.69033333,85.2506667 2.499,85.036 C2.30766667,84.8213333 2.212,84.546 2.212,84.21 C2.212,83.7993333 2.338,83.4726667 2.59,83.23 C2.842,82.9873333 3.18266667,82.866 3.612,82.866 C3.99466667,82.866 4.30966667,82.936 4.557,83.076 C4.80433333,83.216 5.05866667,83.412 5.32,83.664 L5.32,83.664 L5.936,82.978 C5.684,82.7073333 5.40166667,82.474 5.089,82.278 C4.77633333,82.082 4.396,81.9606667 3.948,81.914 L3.948,81.914 L3.948,80.528 L3.108,80.528 L3.108,81.942 C2.492,82.0353333 1.99966667,82.2896667 1.631,82.705 C1.26233333,83.1203333 1.078,83.6406667 1.078,84.266 C1.078,84.7233333 1.17366667,85.099 1.365,85.393 C1.55633333,85.687 1.79666667,85.9366667 2.086,86.142 C2.37533333,86.3473333 2.69033333,86.5293333 3.031,86.688 C3.37166667,86.8466667 3.68666667,87.017 3.976,87.199 C4.26533333,87.381 4.50566667,87.5956667 4.697,87.843 C4.88833333,88.0903333 4.984,88.4006667 4.984,88.774 C4.984,89.2126667 4.85566667,89.5626667 4.599,89.824 C4.34233333,90.0853333 3.95266667,90.216 3.43,90.216 C3.00066667,90.216 2.60633333,90.125 2.247,89.943 C1.88766667,89.761 1.55866667,89.5393333 1.26,89.278 L1.26,89.278 L0.728,90.076 C1.02666667,90.3466667 1.386,90.5823333 1.806,90.783 C2.226,90.9836667 2.66,91.1073333 3.108,91.154 L3.108,91.154 L3.108,92.54 L3.948,92.54 Z M13.104,91 L13.104,90.048 L11.256,90.048 L11.256,82.068 L10.374,82.068 C10.1313333,82.2173333 9.85833333,82.3456667 9.555,82.453 C9.25166667,82.5603333 8.89466667,82.6513333 8.484,82.726 L8.484,82.726 L8.484,83.468 L10.108,83.468 L10.108,90.048 L8.064,90.048 L8.064,91 L13.104,91 Z M15.666,91.168 C15.89,91.168 16.0836667,91.0863333 16.247,90.923 C16.4103333,90.7596667 16.492,90.552 16.492,90.3 C16.492,90.0293333 16.4103333,89.8123333 16.247,89.649 C16.0836667,89.4856667 15.89,89.404 15.666,89.404 C15.4326667,89.404 15.2343333,89.4856667 15.071,89.649 C14.9076667,89.8123333 14.826,90.0293333 14.826,90.3 C14.826,90.552 14.9076667,90.7596667 15.071,90.923 C15.2343333,91.0863333 15.4326667,91.168 15.666,91.168 Z M21.154,91.168 C21.518,91.168 21.8586667,91.098 22.176,90.958 C22.4933333,90.818 22.7733333,90.622 23.016,90.37 C23.2586667,90.118 23.45,89.817 23.59,89.467 C23.73,89.117 23.8,88.7273333 23.8,88.298 C23.8,87.374 23.569,86.6833333 23.107,86.226 C22.645,85.7686667 22.0266667,85.54 21.252,85.54 C20.888,85.54 20.5193333,85.6403333 20.146,85.841 C19.7726667,86.0416667 19.446,86.3146667 19.166,86.66 C19.1753333,85.9506667 19.2453333,85.3556667 19.376,84.875 C19.5066667,84.3943333 19.6793333,84.0046667 19.894,83.706 C20.1086667,83.4073333 20.356,83.1926667 20.636,83.062 C20.916,82.9313333 21.21,82.866 21.518,82.866 C21.798,82.866 22.0663333,82.929 22.323,83.055 C22.5796667,83.181 22.8013333,83.3513333 22.988,83.566 L22.988,83.566 L23.632,82.852 C23.38,82.5813333 23.079,82.355 22.729,82.173 C22.379,81.991 21.9613333,81.9 21.476,81.9 C21.028,81.9 20.601,81.991 20.195,82.173 C19.789,82.355 19.4273333,82.6443333 19.11,83.041 C18.7926667,83.4376667 18.5406667,83.951 18.354,84.581 C18.1673333,85.211 18.074,85.974 18.074,86.87 C18.074,87.5886667 18.1533333,88.2163333 18.312,88.753 C18.4706667,89.2896667 18.6876667,89.7376667 18.963,90.097 C19.2383333,90.4563333 19.5626667,90.7246667 19.936,90.902 C20.3093333,91.0793333 20.7153333,91.168 21.154,91.168 Z M21.154,90.258 C20.5846667,90.258 20.1343333,90.0316667 19.803,89.579 C19.4716667,89.1263333 19.2686667,88.4613333 19.194,87.584 C19.474,87.164 19.782,86.863 20.118,86.681 C20.454,86.499 20.7666667,86.408 21.056,86.408 C21.616,86.408 22.0313333,86.576 22.302,86.912 C22.5726667,87.248 22.708,87.71 22.708,88.298 C22.708,88.5966667 22.6683333,88.865 22.589,89.103 C22.5096667,89.341 22.4,89.5463333 22.26,89.719 C22.12,89.8916667 21.9566667,90.0246667 21.77,90.118 C21.5833333,90.2113333 21.378,90.258 21.154,90.258 Z M30.688,91 L30.688,90.006 L28.098,90.006 C27.8646667,90.006 27.6173333,90.0153333 27.356,90.034 C27.0946667,90.0526667 26.8426667,90.0713333 26.6,90.09 C27.132,89.5393333 27.6196667,89.019 28.063,88.529 C28.5063333,88.039 28.889,87.5676667 29.211,87.115 C29.533,86.6623333 29.785,86.2236667 29.967,85.799 C30.149,85.3743333 30.24,84.952 30.24,84.532 C30.24,83.7386667 30.002,83.1016667 29.526,82.621 C29.05,82.1403333 28.3966667,81.9 27.566,81.9 C26.978,81.9 26.474,82.0236667 26.054,82.271 C25.634,82.5183333 25.2373333,82.8473333 24.864,83.258 L24.864,83.258 L25.522,83.916 C25.7833333,83.6173333 26.0726667,83.363 26.39,83.153 C26.7073333,82.943 27.0526667,82.838 27.426,82.838 C27.9953333,82.838 28.42,83.0013333 28.7,83.328 C28.98,83.6546667 29.12,84.0746667 29.12,84.588 C29.12,84.952 29.0266667,85.3276667 28.84,85.715 C28.6533333,86.1023333 28.3826667,86.527 28.028,86.989 C27.6733333,87.451 27.2346667,87.9526667 26.712,88.494 C26.1893333,89.0353333 25.592,89.642 24.92,90.314 L24.92,90.314 L24.92,91 L30.688,91 Z M35.658,91 L35.658,82.796 L38.43,82.796 L38.43,81.816 L31.71,81.816 L31.71,82.796 L34.482,82.796 L34.482,91 L35.658,91 Z" id="$1.62T" fill="#666666" fill-rule="nonzero"></path>
                <path d="M306.448,92.54 L306.448,91.126 C307.12,91.0326667 307.649667,90.7713333 308.037,90.342 C308.424333,89.9126667 308.618,89.362 308.618,88.69 C308.618,88.186 308.522333,87.773 308.331,87.451 C308.139667,87.129 307.899333,86.8583333 307.61,86.639 C307.320667,86.4196667 307.005667,86.233 306.665,86.079 C306.324333,85.925 306.009333,85.7663333 305.72,85.603 C305.430667,85.4396667 305.190333,85.2506667 304.999,85.036 C304.807667,84.8213333 304.712,84.546 304.712,84.21 C304.712,83.7993333 304.838,83.4726667 305.09,83.23 C305.342,82.9873333 305.682667,82.866 306.112,82.866 C306.494667,82.866 306.809667,82.936 307.057,83.076 C307.304333,83.216 307.558667,83.412 307.82,83.664 L307.82,83.664 L308.436,82.978 C308.184,82.7073333 307.901667,82.474 307.589,82.278 C307.276333,82.082 306.896,81.9606667 306.448,81.914 L306.448,81.914 L306.448,80.528 L305.608,80.528 L305.608,81.942 C304.992,82.0353333 304.499667,82.2896667 304.131,82.705 C303.762333,83.1203333 303.578,83.6406667 303.578,84.266 C303.578,84.7233333 303.673667,85.099 303.865,85.393 C304.056333,85.687 304.296667,85.9366667 304.586,86.142 C304.875333,86.3473333 305.190333,86.5293333 305.531,86.688 C305.871667,86.8466667 306.186667,87.017 306.476,87.199 C306.765333,87.381 307.005667,87.5956667 307.197,87.843 C307.388333,88.0903333 307.484,88.4006667 307.484,88.774 C307.484,89.2126667 307.355667,89.5626667 307.099,89.824 C306.842333,90.0853333 306.452667,90.216 305.93,90.216 C305.500667,90.216 305.106333,90.125 304.747,89.943 C304.387667,89.761 304.058667,89.5393333 303.76,89.278 L303.76,89.278 L303.228,90.076 C303.526667,90.3466667 303.886,90.5823333 304.306,90.783 C304.726,90.9836667 305.16,91.1073333 305.608,91.154 L305.608,91.154 L305.608,92.54 L306.448,92.54 Z M315.604,91 L315.604,90.048 L313.756,90.048 L313.756,82.068 L312.874,82.068 C312.631333,82.2173333 312.358333,82.3456667 312.055,82.453 C311.751667,82.5603333 311.394667,82.6513333 310.984,82.726 L310.984,82.726 L310.984,83.468 L312.608,83.468 L312.608,90.048 L310.564,90.048 L310.564,91 L315.604,91 Z M318.166,91.168 C318.39,91.168 318.583667,91.0863333 318.747,90.923 C318.910333,90.7596667 318.992,90.552 318.992,90.3 C318.992,90.0293333 318.910333,89.8123333 318.747,89.649 C318.583667,89.4856667 318.39,89.404 318.166,89.404 C317.932667,89.404 317.734333,89.4856667 317.571,89.649 C317.407667,89.8123333 317.326,90.0293333 317.326,90.3 C317.326,90.552 317.407667,90.7596667 317.571,90.923 C317.734333,91.0863333 317.932667,91.168 318.166,91.168 Z M323.57,91 C323.607333,90.132 323.670333,89.341 323.759,88.627 C323.847667,87.913 323.99,87.2363333 324.186,86.597 C324.382,85.9576667 324.645667,85.33 324.977,84.714 C325.308333,84.098 325.74,83.454 326.272,82.782 L326.272,82.782 L326.272,82.068 L320.518,82.068 L320.518,83.062 L324.97,83.062 C324.531333,83.678 324.155667,84.28 323.843,84.868 C323.530333,85.456 323.273667,86.065 323.073,86.695 C322.872333,87.325 322.716,87.99 322.604,88.69 C322.492,89.39 322.417333,90.16 322.38,91 L322.38,91 L323.57,91 Z M329.73,91.168 C330.178,91.168 330.605,91.077 331.011,90.895 C331.417,90.713 331.778667,90.4236667 332.096,90.027 C332.413333,89.6303333 332.665333,89.117 332.852,88.487 C333.038667,87.857 333.132,87.094 333.132,86.198 C333.132,85.4793333 333.055,84.8516667 332.901,84.315 C332.747,83.7783333 332.532333,83.3303333 332.257,82.971 C331.981667,82.6116667 331.655,82.3433333 331.277,82.166 C330.899,81.9886667 330.490667,81.9 330.052,81.9 C329.697333,81.9 329.359,81.97 329.037,82.11 C328.715,82.25 328.435,82.446 328.197,82.698 C327.959,82.95 327.77,83.251 327.63,83.601 C327.49,83.951 327.42,84.3406667 327.42,84.77 C327.42,85.694 327.648667,86.3846667 328.106,86.842 C328.563333,87.2993333 329.179333,87.528 329.954,87.528 C330.327333,87.528 330.700667,87.4253333 331.074,87.22 C331.447333,87.0146667 331.774,86.7346667 332.054,86.38 C332.044667,87.0986667 331.974667,87.7006667 331.844,88.186 C331.713333,88.6713333 331.540667,89.0656667 331.326,89.369 C331.111333,89.6723333 330.864,89.8893333 330.584,90.02 C330.304,90.1506667 330.005333,90.216 329.688,90.216 C329.408,90.216 329.139667,90.1506667 328.883,90.02 C328.626333,89.8893333 328.404667,89.7166667 328.218,89.502 L328.218,89.502 L327.574,90.23 C327.816667,90.5006667 328.117667,90.7246667 328.477,90.902 C328.836333,91.0793333 329.254,91.168 329.73,91.168 Z M330.15,86.66 C329.59,86.66 329.174667,86.492 328.904,86.156 C328.633333,85.82 328.498,85.358 328.498,84.77 C328.498,84.4806667 328.537667,84.2146667 328.617,83.972 C328.696333,83.7293333 328.806,83.5216667 328.946,83.349 C329.086,83.1763333 329.251667,83.0433333 329.443,82.95 C329.634333,82.8566667 329.837333,82.81 330.052,82.81 C330.621333,82.81 331.074,83.034 331.41,83.482 C331.746,83.93 331.951333,84.5926667 332.026,85.47 C331.736667,85.89 331.426333,86.1933333 331.095,86.38 C330.763667,86.5666667 330.448667,86.66 330.15,86.66 Z M338.158,91 L338.158,82.796 L340.93,82.796 L340.93,81.816 L334.21,81.816 L334.21,82.796 L336.982,82.796 L336.982,91 L338.158,91 Z" id="$1.79T" fill="#666666" fill-rule="nonzero"></path>
                <path d="M565.948,92.54 L565.948,91.126 C566.62,91.0326667 567.149667,90.7713333 567.537,90.342 C567.924333,89.9126667 568.118,89.362 568.118,88.69 C568.118,88.186 568.022333,87.773 567.831,87.451 C567.639667,87.129 567.399333,86.8583333 567.11,86.639 C566.820667,86.4196667 566.505667,86.233 566.165,86.079 C565.824333,85.925 565.509333,85.7663333 565.22,85.603 C564.930667,85.4396667 564.690333,85.2506667 564.499,85.036 C564.307667,84.8213333 564.212,84.546 564.212,84.21 C564.212,83.7993333 564.338,83.4726667 564.59,83.23 C564.842,82.9873333 565.182667,82.866 565.612,82.866 C565.994667,82.866 566.309667,82.936 566.557,83.076 C566.804333,83.216 567.058667,83.412 567.32,83.664 L567.32,83.664 L567.936,82.978 C567.684,82.7073333 567.401667,82.474 567.089,82.278 C566.776333,82.082 566.396,81.9606667 565.948,81.914 L565.948,81.914 L565.948,80.528 L565.108,80.528 L565.108,81.942 C564.492,82.0353333 563.999667,82.2896667 563.631,82.705 C563.262333,83.1203333 563.078,83.6406667 563.078,84.266 C563.078,84.7233333 563.173667,85.099 563.365,85.393 C563.556333,85.687 563.796667,85.9366667 564.086,86.142 C564.375333,86.3473333 564.690333,86.5293333 565.031,86.688 C565.371667,86.8466667 565.686667,87.017 565.976,87.199 C566.265333,87.381 566.505667,87.5956667 566.697,87.843 C566.888333,88.0903333 566.984,88.4006667 566.984,88.774 C566.984,89.2126667 566.855667,89.5626667 566.599,89.824 C566.342333,90.0853333 565.952667,90.216 565.43,90.216 C565.000667,90.216 564.606333,90.125 564.247,89.943 C563.887667,89.761 563.558667,89.5393333 563.26,89.278 L563.26,89.278 L562.728,90.076 C563.026667,90.3466667 563.386,90.5823333 563.806,90.783 C564.226,90.9836667 564.66,91.1073333 565.108,91.154 L565.108,91.154 L565.108,92.54 L565.948,92.54 Z M572.458,91.168 C572.887333,91.168 573.279333,91.1073333 573.634,90.986 C573.988667,90.8646667 574.292,90.6966667 574.544,90.482 C574.796,90.2673333 574.992,90.0153333 575.132,89.726 C575.272,89.4366667 575.342,89.124 575.342,88.788 C575.342,88.4893333 575.297667,88.2233333 575.209,87.99 C575.120333,87.7566667 575.003667,87.549 574.859,87.367 C574.714333,87.185 574.548667,87.0216667 574.362,86.877 C574.175333,86.7323333 573.984,86.604 573.788,86.492 L573.788,86.492 L573.788,86.436 C573.928,86.3333333 574.070333,86.2073333 574.215,86.058 C574.359667,85.9086667 574.490333,85.7406667 574.607,85.554 C574.723667,85.3673333 574.821667,85.1666667 574.901,84.952 C574.980333,84.7373333 575.02,84.5133333 575.02,84.28 C575.02,83.9346667 574.961667,83.615 574.845,83.321 C574.728333,83.027 574.560333,82.775 574.341,82.565 C574.121667,82.355 573.858,82.1916667 573.55,82.075 C573.242,81.9583333 572.892,81.9 572.5,81.9 C572.136,81.9 571.8,81.956 571.492,82.068 C571.184,82.18 570.918,82.3363333 570.694,82.537 C570.47,82.7376667 570.292667,82.978 570.162,83.258 C570.031333,83.538 569.966,83.8506667 569.966,84.196 C569.966,84.672 570.092,85.0756667 570.344,85.407 C570.596,85.7383333 570.885333,86.0206667 571.212,86.254 L571.212,86.254 L571.212,86.31 C570.997333,86.422 570.789667,86.555 570.589,86.709 C570.388333,86.863 570.211,87.0403333 570.057,87.241 C569.903,87.4416667 569.777,87.6656667 569.679,87.913 C569.581,88.1603333 569.532,88.4286667 569.532,88.718 C569.532,89.0726667 569.606667,89.3993333 569.756,89.698 C569.905333,89.9966667 570.108333,90.2556667 570.365,90.475 C570.621667,90.6943333 570.929667,90.8646667 571.289,90.986 C571.648333,91.1073333 572.038,91.168 572.458,91.168 Z M573.088,86.128 C572.817333,86.0253333 572.558333,85.9156667 572.311,85.799 C572.063667,85.6823333 571.844333,85.5493333 571.653,85.4 C571.461667,85.2506667 571.31,85.0803333 571.198,84.889 C571.086,84.6976667 571.03,84.4666667 571.03,84.196 C571.03,83.7573333 571.165333,83.4073333 571.436,83.146 C571.706667,82.8846667 572.052,82.754 572.472,82.754 C572.966667,82.754 573.349333,82.9056667 573.62,83.209 C573.890667,83.5123333 574.026,83.888 574.026,84.336 C574.026,84.6626667 573.944333,84.9753333 573.781,85.274 C573.617667,85.5726667 573.386667,85.8573333 573.088,86.128 Z M572.486,90.314 C572.215333,90.314 571.963333,90.272 571.73,90.188 C571.496667,90.104 571.293667,89.985 571.121,89.831 C570.948333,89.677 570.813,89.4973333 570.715,89.292 C570.617,89.0866667 570.568,88.858 570.568,88.606 C570.568,88.1953333 570.687,87.829 570.925,87.507 C571.163,87.185 571.459333,86.9026667 571.814,86.66 C572.131333,86.7906667 572.437,86.919 572.731,87.045 C573.025,87.171 573.284,87.311 573.508,87.465 C573.732,87.619 573.909333,87.7986667 574.04,88.004 C574.170667,88.2093333 574.236,88.4566667 574.236,88.746 C574.236,89.2126667 574.075,89.5906667 573.753,89.88 C573.431,90.1693333 573.008667,90.314 572.486,90.314 Z M579.402,91.168 C580.298,91.168 580.998,90.7666667 581.502,89.964 C582.006,89.1613333 582.258,88.0086667 582.258,86.506 C582.258,85.0033333 582.006,83.86 581.502,83.076 C580.998,82.292 580.298,81.9 579.402,81.9 C578.496667,81.9 577.792,82.292 577.288,83.076 C576.784,83.86 576.532,85.0033333 576.532,86.506 C576.532,88.0086667 576.784,89.1613333 577.288,89.964 C577.792,90.7666667 578.496667,91.168 579.402,91.168 Z M579.402,90.244 C578.879333,90.244 578.457,89.9476667 578.135,89.355 C577.813,88.7623333 577.652,87.8126667 577.652,86.506 C577.652,85.8526667 577.694,85.2926667 577.778,84.826 C577.862,84.3593333 577.981,83.979 578.135,83.685 C578.289,83.391 578.473333,83.174 578.688,83.034 C578.902667,82.894 579.140667,82.824 579.402,82.824 C579.663333,82.824 579.899,82.894 580.109,83.034 C580.319,83.174 580.501,83.391 580.655,83.685 C580.809,83.979 580.928,84.3593333 581.012,84.826 C581.096,85.2926667 581.138,85.8526667 581.138,86.506 C581.138,87.1593333 581.096,87.7216667 581.012,88.193 C580.928,88.6643333 580.809,89.0516667 580.655,89.355 C580.501,89.6583333 580.319,89.8823333 580.109,90.027 C579.899,90.1716667 579.663333,90.244 579.402,90.244 Z M589.02,91 L589.02,90.048 L587.172,90.048 L587.172,82.068 L586.29,82.068 C586.047333,82.2173333 585.774333,82.3456667 585.471,82.453 C585.167667,82.5603333 584.810667,82.6513333 584.4,82.726 L584.4,82.726 L584.4,83.468 L586.024,83.468 L586.024,90.048 L583.98,90.048 L583.98,91 L589.02,91 Z M594.018,91 C594.531333,91 595.002667,90.944 595.432,90.832 C595.861333,90.72 596.23,90.552 596.538,90.328 C596.846,90.104 597.084,89.824 597.252,89.488 C597.42,89.152 597.504,88.76 597.504,88.312 C597.504,87.6773333 597.331333,87.178 596.986,86.814 C596.640667,86.45 596.188,86.2166667 595.628,86.114 L595.628,86.114 L595.628,86.058 C596.066667,85.918 596.400333,85.6636667 596.629,85.295 C596.857667,84.9263333 596.972,84.5133333 596.972,84.056 C596.972,83.6546667 596.895,83.3116667 596.741,83.027 C596.587,82.7423333 596.372333,82.5113333 596.097,82.334 C595.821667,82.1566667 595.490333,82.026 595.103,81.942 C594.715667,81.858 594.288667,81.816 593.822,81.816 L593.822,81.816 L591.092,81.816 L591.092,91 L594.018,91 Z M593.612,85.722 L592.254,85.722 L592.254,82.74 L593.668,82.74 C594.386667,82.74 594.925667,82.852 595.285,83.076 C595.644333,83.3 595.824,83.678 595.824,84.21 C595.824,84.6766667 595.651333,85.0453333 595.306,85.316 C594.960667,85.5866667 594.396,85.722 593.612,85.722 L593.612,85.722 Z M593.85,90.076 L592.254,90.076 L592.254,86.618 L593.85,86.618 C594.662,86.618 595.282667,86.751 595.712,87.017 C596.141333,87.283 596.356,87.7006667 596.356,88.27 C596.356,88.886 596.136667,89.341 595.698,89.635 C595.259333,89.929 594.643333,90.076 593.85,90.076 L593.85,90.076 Z" id="$801B" fill="#666666" fill-rule="nonzero"></path>
                <path d="M306.718,73.168 C307.315333,73.168 307.861333,73.0583333 308.356,72.839 C308.850667,72.6196667 309.277667,72.3023333 309.637,71.887 C309.996333,71.4716667 310.274,70.97 310.47,70.382 C310.666,69.794 310.764,69.1266667 310.764,68.38 C310.764,67.6426667 310.666,66.9823333 310.47,66.399 C310.274,65.8156667 309.996333,65.3233333 309.637,64.922 C309.277667,64.5206667 308.850667,64.2126667 308.356,63.998 C307.861333,63.7833333 307.315333,63.676 306.718,63.676 C306.120667,63.676 305.574667,63.7833333 305.08,63.998 C304.585333,64.2126667 304.160667,64.5206667 303.806,64.922 C303.451333,65.3233333 303.176,65.8156667 302.98,66.399 C302.784,66.9823333 302.686,67.6426667 302.686,68.38 C302.686,69.1266667 302.784,69.794 302.98,70.382 C303.176,70.97 303.451333,71.4716667 303.806,71.887 C304.160667,72.3023333 304.585333,72.6196667 305.08,72.839 C305.574667,73.0583333 306.120667,73.168 306.718,73.168 Z M306.718,71.754 C306.354,71.754 306.027333,71.6746667 305.738,71.516 C305.448667,71.3573333 305.201333,71.131 304.996,70.837 C304.790667,70.543 304.632,70.1883333 304.52,69.773 C304.408,69.3576667 304.352,68.8933333 304.352,68.38 C304.352,67.3533333 304.564333,66.5483333 304.989,65.965 C305.413667,65.3816667 305.99,65.09 306.718,65.09 C307.446,65.09 308.022333,65.3816667 308.447,65.965 C308.871667,66.5483333 309.084,67.3533333 309.084,68.38 C309.084,68.8933333 309.028,69.3576667 308.916,69.773 C308.804,70.1883333 308.645333,70.543 308.44,70.837 C308.234667,71.131 307.987333,71.3573333 307.698,71.516 C307.408667,71.6746667 307.082,71.754 306.718,71.754 Z M315.79,73.168 C316.172667,73.168 316.541333,73.084 316.896,72.916 C317.250667,72.748 317.563333,72.5053333 317.834,72.188 C318.104667,71.8706667 318.321667,71.481 318.485,71.019 C318.648333,70.557 318.73,70.032 318.73,69.444 C318.73,68.912 318.669333,68.4313333 318.548,68.002 C318.426667,67.5726667 318.249333,67.2063333 318.016,66.903 C317.782667,66.5996667 317.498,66.3663333 317.162,66.203 C316.826,66.0396667 316.443333,65.958 316.014,65.958 C315.659333,65.958 315.311667,66.0373333 314.971,66.196 C314.630333,66.3546667 314.315333,66.56 314.026,66.812 L314.026,66.812 L314.068,65.664 L314.068,63.116 L312.458,63.116 L312.458,73 L313.732,73 L313.872,72.272 L313.914,72.272 C314.203333,72.5613333 314.509,72.783 314.831,72.937 C315.153,73.091 315.472667,73.168 315.79,73.168 Z M315.454,71.838 C315.248667,71.838 315.027,71.796 314.789,71.712 C314.551,71.628 314.310667,71.4786667 314.068,71.264 L314.068,71.264 L314.068,68.058 C314.590667,67.5446667 315.094667,67.288 315.58,67.288 C316.102667,67.288 316.480667,67.4793333 316.714,67.862 C316.947333,68.2446667 317.064,68.7813333 317.064,69.472 C317.064,70.256 316.91,70.8463333 316.602,71.243 C316.294,71.6396667 315.911333,71.838 315.454,71.838 Z M321.908,73.168 C322.262667,73.168 322.547333,73.1213333 322.762,73.028 L322.762,73.028 L322.552,71.824 C322.486667,71.8426667 322.437667,71.852 322.405,71.852 L322.405,71.852 L322.3,71.852 C322.216,71.852 322.136667,71.8123333 322.062,71.733 C321.987333,71.6536667 321.95,71.516 321.95,71.32 L321.95,71.32 L321.95,63.116 L320.34,63.116 L320.34,71.236 C320.34,71.8333333 320.456667,72.3046667 320.69,72.65 C320.923333,72.9953333 321.329333,73.168 321.908,73.168 Z M324.946,64.922 C325.235333,64.922 325.473333,64.838 325.66,64.67 C325.846667,64.502 325.94,64.2826667 325.94,64.012 C325.94,63.7413333 325.846667,63.5196667 325.66,63.347 C325.473333,63.1743333 325.235333,63.088 324.946,63.088 C324.656667,63.088 324.418667,63.1743333 324.232,63.347 C324.045333,63.5196667 323.952,63.7413333 323.952,64.012 C323.952,64.2826667 324.045333,64.502 324.232,64.67 C324.418667,64.838 324.656667,64.922 324.946,64.922 Z M325.744,73 L325.744,66.126 L324.134,66.126 L324.134,73 L325.744,73 Z M330.196,76.038 C330.756,76.038 331.262333,75.975 331.715,75.849 C332.167667,75.723 332.552667,75.5526667 332.87,75.338 C333.187333,75.1233333 333.432333,74.8666667 333.605,74.568 C333.777667,74.2693333 333.864,73.952 333.864,73.616 C333.864,73.0186667 333.651667,72.587 333.227,72.321 C332.802333,72.055 332.174667,71.922 331.344,71.922 L331.344,71.922 L330.126,71.922 C329.706,71.922 329.414333,71.866 329.251,71.754 C329.087667,71.642 329.006,71.488 329.006,71.292 C329.006,71.1333333 329.036333,71.0073333 329.097,70.914 C329.157667,70.8206667 329.239333,70.7273333 329.342,70.634 C329.500667,70.6993333 329.659333,70.746 329.818,70.774 C329.976667,70.802 330.130667,70.816 330.28,70.816 C330.644,70.816 330.984667,70.7646667 331.302,70.662 C331.619333,70.5593333 331.894667,70.41 332.128,70.214 C332.361333,70.018 332.545667,69.7753333 332.681,69.486 C332.816333,69.1966667 332.884,68.8606667 332.884,68.478 C332.884,68.2353333 332.846667,68.0136667 332.772,67.813 C332.697333,67.6123333 332.604,67.4466667 332.492,67.316 L332.492,67.316 L333.752,67.316 L333.752,66.126 L331.288,66.126 C331.148,66.0793333 330.991667,66.0396667 330.819,66.007 C330.646333,65.9743333 330.466667,65.958 330.28,65.958 C329.916,65.958 329.570667,66.0116667 329.244,66.119 C328.917333,66.2263333 328.630333,66.385 328.383,66.595 C328.135667,66.805 327.937333,67.064 327.788,67.372 C327.638667,67.68 327.564,68.03 327.564,68.422 C327.564,68.8326667 327.655,69.1943333 327.837,69.507 C328.019,69.8196667 328.226667,70.0646667 328.46,70.242 L328.46,70.242 L328.46,70.298 C328.264,70.438 328.089,70.6176667 327.935,70.837 C327.781,71.0563333 327.704,71.3013333 327.704,71.572 C327.704,71.852 327.762333,72.0853333 327.879,72.272 C327.995667,72.4586667 328.142667,72.608 328.32,72.72 L328.32,72.72 L328.32,72.776 C328.002667,72.972 327.76,73.1936667 327.592,73.441 C327.424,73.6883333 327.34,73.9566667 327.34,74.246 C327.34,74.5446667 327.412333,74.806 327.557,75.03 C327.701667,75.254 327.9,75.4406667 328.152,75.59 C328.404,75.7393333 328.705,75.8513333 329.055,75.926 C329.405,76.0006667 329.785333,76.038 330.196,76.038 Z M330.28,69.808 C329.944,69.808 329.659333,69.689 329.426,69.451 C329.192667,69.213 329.076,68.87 329.076,68.422 C329.076,67.9833333 329.192667,67.6473333 329.426,67.414 C329.659333,67.1806667 329.944,67.064 330.28,67.064 C330.616,67.064 330.898333,67.183 331.127,67.421 C331.355667,67.659 331.47,67.9926667 331.47,68.422 C331.47,68.87 331.353333,69.213 331.12,69.451 C330.886667,69.689 330.606667,69.808 330.28,69.808 Z M330.448,74.988 C329.897333,74.988 329.465667,74.9016667 329.153,74.729 C328.840333,74.5563333 328.684,74.316 328.684,74.008 C328.684,73.672 328.861333,73.3686667 329.216,73.098 C329.468,73.1633333 329.780667,73.196 330.154,73.196 L330.154,73.196 L331.092,73.196 C331.484,73.196 331.785,73.2426667 331.995,73.336 C332.205,73.4293333 332.31,73.6113333 332.31,73.882 C332.31,74.1806667 332.139667,74.4396667 331.799,74.659 C331.458333,74.8783333 331.008,74.988 330.448,74.988 Z M336.496,73.168 C336.906667,73.168 337.287,73.0793333 337.637,72.902 C337.987,72.7246667 338.316,72.5053333 338.624,72.244 L338.624,72.244 L338.68,72.244 L338.792,73 L340.122,73 L340.122,68.926 C340.122,67.9646667 339.909667,67.2296667 339.485,66.721 C339.060333,66.2123333 338.418667,65.958 337.56,65.958 C337.009333,65.958 336.496,66.0466667 336.02,66.224 C335.544,66.4013333 335.114667,66.6113333 334.732,66.854 L334.732,66.854 L335.32,67.932 C335.628,67.7453333 335.943,67.5866667 336.265,67.456 C336.587,67.3253333 336.916,67.26 337.252,67.26 C337.485333,67.26 337.681333,67.295 337.84,67.365 C337.998667,67.435 338.127,67.533 338.225,67.659 C338.323,67.785 338.393,67.9296667 338.435,68.093 C338.477,68.2563333 338.502667,68.4266667 338.512,68.604 C337.802667,68.6786667 337.193667,68.786 336.685,68.926 C336.176333,69.066 335.756333,69.2386667 335.425,69.444 C335.093667,69.6493333 334.851,69.8943333 334.697,70.179 C334.543,70.4636667 334.466,70.788 334.466,71.152 C334.466,71.7586667 334.652667,72.2463333 335.026,72.615 C335.399333,72.9836667 335.889333,73.168 336.496,73.168 Z M337.014,71.908 C336.724667,71.908 336.486667,71.838 336.3,71.698 C336.113333,71.558 336.02,71.334 336.02,71.026 C336.02,70.858 336.062,70.6993333 336.146,70.55 C336.23,70.4006667 336.37,70.2676667 336.566,70.151 C336.762,70.0343333 337.018667,69.9293333 337.336,69.836 C337.653333,69.7426667 338.045333,69.668 338.512,69.612 L338.512,69.612 L338.512,71.152 C338.250667,71.3946667 338.005667,71.5813333 337.777,71.712 C337.548333,71.8426667 337.294,71.908 337.014,71.908 Z M344.252,73.168 C344.522667,73.168 344.777,73.1423333 345.015,73.091 C345.253,73.0396667 345.465333,72.9813333 345.652,72.916 L345.652,72.916 L345.372,71.726 C345.269333,71.7726667 345.155,71.81 345.029,71.838 C344.903,71.866 344.779333,71.88 344.658,71.88 C344.014,71.88 343.692,71.4786667 343.692,70.676 L343.692,70.676 L343.692,67.4 L345.442,67.4 L345.442,66.126 L343.692,66.126 L343.692,64.25 L342.348,64.25 L342.152,66.126 L341.088,66.196 L341.088,67.4 L342.068,67.4 L342.068,70.676 C342.068,71.0493333 342.107667,71.3876667 342.187,71.691 C342.266333,71.9943333 342.392333,72.2556667 342.565,72.475 C342.737667,72.6943333 342.961667,72.8646667 343.237,72.986 C343.512333,73.1073333 343.850667,73.168 344.252,73.168 Z M347.696,64.922 C347.985333,64.922 348.223333,64.838 348.41,64.67 C348.596667,64.502 348.69,64.2826667 348.69,64.012 C348.69,63.7413333 348.596667,63.5196667 348.41,63.347 C348.223333,63.1743333 347.985333,63.088 347.696,63.088 C347.406667,63.088 347.168667,63.1743333 346.982,63.347 C346.795333,63.5196667 346.702,63.7413333 346.702,64.012 C346.702,64.2826667 346.795333,64.502 346.982,64.67 C347.168667,64.838 347.406667,64.922 347.696,64.922 Z M348.494,73 L348.494,66.126 L346.884,66.126 L346.884,73 L348.494,73 Z M353.366,73.168 C353.795333,73.168 354.208333,73.0886667 354.605,72.93 C355.001667,72.7713333 355.349333,72.538 355.648,72.23 C355.946667,71.922 356.187,71.544 356.369,71.096 C356.551,70.648 356.642,70.1393333 356.642,69.57 C356.642,69.0006667 356.551,68.492 356.369,68.044 C356.187,67.596 355.946667,67.218 355.648,66.91 C355.349333,66.602 355.001667,66.3663333 354.605,66.203 C354.208333,66.0396667 353.795333,65.958 353.366,65.958 C352.936667,65.958 352.526,66.0396667 352.134,66.203 C351.742,66.3663333 351.394333,66.602 351.091,66.91 C350.787667,67.218 350.547333,67.596 350.37,68.044 C350.192667,68.492 350.104,69.0006667 350.104,69.57 C350.104,70.1393333 350.192667,70.648 350.37,71.096 C350.547333,71.544 350.787667,71.922 351.091,72.23 C351.394333,72.538 351.742,72.7713333 352.134,72.93 C352.526,73.0886667 352.936667,73.168 353.366,73.168 Z M353.366,71.852 C352.862,71.852 352.467667,71.6443333 352.183,71.229 C351.898333,70.8136667 351.756,70.2606667 351.756,69.57 C351.756,68.87 351.898333,68.3123333 352.183,67.897 C352.467667,67.4816667 352.862,67.274 353.366,67.274 C353.87,67.274 354.266667,67.4816667 354.556,67.897 C354.845333,68.3123333 354.99,68.87 354.99,69.57 C354.99,70.2606667 354.845333,70.8136667 354.556,71.229 C354.266667,71.6443333 353.87,71.852 353.366,71.852 Z M359.848,73 L359.848,68.198 C360.137333,67.918 360.396333,67.7056667 360.625,67.561 C360.853667,67.4163333 361.117333,67.344 361.416,67.344 C361.798667,67.344 362.074,67.4606667 362.242,67.694 C362.41,67.9273333 362.494,68.3286667 362.494,68.898 L362.494,68.898 L362.494,73 L364.104,73 L364.104,68.688 C364.104,67.8106667 363.936,67.1363333 363.6,66.665 C363.264,66.1936667 362.727333,65.958 361.99,65.958 C361.514,65.958 361.096333,66.0653333 360.737,66.28 C360.377667,66.4946667 360.044,66.7513333 359.736,67.05 L359.736,67.05 L359.68,67.05 L359.568,66.126 L358.238,66.126 L358.238,73 L359.848,73 Z M367.996,73.168 C368.425333,73.168 368.808,73.112 369.144,73 C369.48,72.888 369.76,72.7363333 369.984,72.545 C370.208,72.3536667 370.378333,72.1296667 370.495,71.873 C370.611667,71.6163333 370.67,71.3386667 370.67,71.04 C370.67,70.7226667 370.611667,70.4496667 370.495,70.221 C370.378333,69.9923333 370.224333,69.7986667 370.033,69.64 C369.841667,69.4813333 369.629333,69.3483333 369.396,69.241 C369.162667,69.1336667 368.929333,69.038 368.696,68.954 C368.509333,68.8886667 368.329667,68.8233333 368.157,68.758 C367.984333,68.6926667 367.832667,68.6226667 367.702,68.548 C367.571333,68.4733333 367.466333,68.387 367.387,68.289 C367.307667,68.191 367.268,68.072 367.268,67.932 C367.268,67.7173333 367.349667,67.5376667 367.513,67.393 C367.676333,67.2483333 367.930667,67.176 368.276,67.176 C368.546667,67.176 368.805667,67.2296667 369.053,67.337 C369.300333,67.4443333 369.545333,67.5866667 369.788,67.764 L369.788,67.764 L370.53,66.784 C370.25,66.5693333 369.918667,66.378 369.536,66.21 C369.153333,66.042 368.724,65.958 368.248,65.958 C367.473333,65.958 366.862,66.1493333 366.414,66.532 C365.966,66.9146667 365.742,67.4093333 365.742,68.016 C365.742,68.3053333 365.800333,68.555 365.917,68.765 C366.033667,68.975 366.183,69.1593333 366.365,69.318 C366.547,69.4766667 366.754667,69.612 366.988,69.724 C367.221333,69.836 367.45,69.934 367.674,70.018 C367.851333,70.0926667 368.028667,70.165 368.206,70.235 C368.383333,70.305 368.542,70.382 368.682,70.466 C368.822,70.55 368.934,70.6456667 369.018,70.753 C369.102,70.8603333 369.144,70.984 369.144,71.124 C369.144,71.3666667 369.055333,71.565 368.878,71.719 C368.700667,71.873 368.425333,71.95 368.052,71.95 C367.697333,71.95 367.368333,71.8823333 367.065,71.747 C366.761667,71.6116667 366.456,71.4226667 366.148,71.18 L366.148,71.18 L365.392,72.216 C365.728,72.4866667 366.127,72.713 366.589,72.895 C367.051,73.077 367.52,73.168 367.996,73.168 Z" id="Obligations" fill="#666666" fill-rule="nonzero"></path>
                <path d="M566.592,73.168 C567.124,73.168 567.602333,73.091 568.027,72.937 C568.451667,72.783 568.815667,72.538 569.119,72.202 C569.422333,71.866 569.653333,71.4343333 569.812,70.907 C569.970667,70.3796667 570.05,69.738 570.05,68.982 L570.05,68.982 L570.05,63.844 L568.496,63.844 L568.496,69.108 C568.496,69.6026667 568.449333,70.0203333 568.356,70.361 C568.262667,70.7016667 568.132,70.9746667 567.964,71.18 C567.796,71.3853333 567.595333,71.5323333 567.362,71.621 C567.128667,71.7096667 566.872,71.754 566.592,71.754 C566.312,71.754 566.06,71.7096667 565.836,71.621 C565.612,71.5323333 565.418333,71.3853333 565.255,71.18 C565.091667,70.9746667 564.965667,70.7016667 564.877,70.361 C564.788333,70.0203333 564.744,69.6026667 564.744,69.108 L564.744,69.108 L564.744,63.844 L563.12,63.844 L563.12,68.982 C563.12,69.738 563.201667,70.3796667 563.365,70.907 C563.528333,71.4343333 563.761667,71.866 564.065,72.202 C564.368333,72.538 564.732333,72.783 565.157,72.937 C565.581667,73.091 566.06,73.168 566.592,73.168 Z M573.802,73 L573.802,68.198 C574.091333,67.918 574.350333,67.7056667 574.579,67.561 C574.807667,67.4163333 575.071333,67.344 575.37,67.344 C575.752667,67.344 576.028,67.4606667 576.196,67.694 C576.364,67.9273333 576.448,68.3286667 576.448,68.898 L576.448,68.898 L576.448,73 L578.058,73 L578.058,68.688 C578.058,67.8106667 577.89,67.1363333 577.554,66.665 C577.218,66.1936667 576.681333,65.958 575.944,65.958 C575.468,65.958 575.050333,66.0653333 574.691,66.28 C574.331667,66.4946667 573.998,66.7513333 573.69,67.05 L573.69,67.05 L573.634,67.05 L573.522,66.126 L572.192,66.126 L572.192,73 L573.802,73 Z M582.846,73.168 C583.275333,73.168 583.688333,73.0886667 584.085,72.93 C584.481667,72.7713333 584.829333,72.538 585.128,72.23 C585.426667,71.922 585.667,71.544 585.849,71.096 C586.031,70.648 586.122,70.1393333 586.122,69.57 C586.122,69.0006667 586.031,68.492 585.849,68.044 C585.667,67.596 585.426667,67.218 585.128,66.91 C584.829333,66.602 584.481667,66.3663333 584.085,66.203 C583.688333,66.0396667 583.275333,65.958 582.846,65.958 C582.416667,65.958 582.006,66.0396667 581.614,66.203 C581.222,66.3663333 580.874333,66.602 580.571,66.91 C580.267667,67.218 580.027333,67.596 579.85,68.044 C579.672667,68.492 579.584,69.0006667 579.584,69.57 C579.584,70.1393333 579.672667,70.648 579.85,71.096 C580.027333,71.544 580.267667,71.922 580.571,72.23 C580.874333,72.538 581.222,72.7713333 581.614,72.93 C582.006,73.0886667 582.416667,73.168 582.846,73.168 Z M582.846,71.852 C582.342,71.852 581.947667,71.6443333 581.663,71.229 C581.378333,70.8136667 581.236,70.2606667 581.236,69.57 C581.236,68.87 581.378333,68.3123333 581.663,67.897 C581.947667,67.4816667 582.342,67.274 582.846,67.274 C583.35,67.274 583.746667,67.4816667 584.036,67.897 C584.325333,68.3123333 584.47,68.87 584.47,69.57 C584.47,70.2606667 584.325333,70.8136667 584.036,71.229 C583.746667,71.6443333 583.35,71.852 582.846,71.852 Z M591.05,73.168 C591.432667,73.168 591.801333,73.084 592.156,72.916 C592.510667,72.748 592.823333,72.5053333 593.094,72.188 C593.364667,71.8706667 593.581667,71.481 593.745,71.019 C593.908333,70.557 593.99,70.032 593.99,69.444 C593.99,68.912 593.929333,68.4313333 593.808,68.002 C593.686667,67.5726667 593.509333,67.2063333 593.276,66.903 C593.042667,66.5996667 592.758,66.3663333 592.422,66.203 C592.086,66.0396667 591.703333,65.958 591.274,65.958 C590.919333,65.958 590.571667,66.0373333 590.231,66.196 C589.890333,66.3546667 589.575333,66.56 589.286,66.812 L589.286,66.812 L589.328,65.664 L589.328,63.116 L587.718,63.116 L587.718,73 L588.992,73 L589.132,72.272 L589.174,72.272 C589.463333,72.5613333 589.769,72.783 590.091,72.937 C590.413,73.091 590.732667,73.168 591.05,73.168 Z M590.714,71.838 C590.508667,71.838 590.287,71.796 590.049,71.712 C589.811,71.628 589.570667,71.4786667 589.328,71.264 L589.328,71.264 L589.328,68.058 C589.850667,67.5446667 590.354667,67.288 590.84,67.288 C591.362667,67.288 591.740667,67.4793333 591.974,67.862 C592.207333,68.2446667 592.324,68.7813333 592.324,69.472 C592.324,70.256 592.17,70.8463333 591.862,71.243 C591.554,71.6396667 591.171333,71.838 590.714,71.838 Z M597.168,73.168 C597.522667,73.168 597.807333,73.1213333 598.022,73.028 L598.022,73.028 L597.812,71.824 C597.746667,71.8426667 597.697667,71.852 597.665,71.852 L597.665,71.852 L597.56,71.852 C597.476,71.852 597.396667,71.8123333 597.322,71.733 C597.247333,71.6536667 597.21,71.516 597.21,71.32 L597.21,71.32 L597.21,63.116 L595.6,63.116 L595.6,71.236 C595.6,71.8333333 595.716667,72.3046667 595.95,72.65 C596.183333,72.9953333 596.589333,73.168 597.168,73.168 Z M600.206,64.922 C600.495333,64.922 600.733333,64.838 600.92,64.67 C601.106667,64.502 601.2,64.2826667 601.2,64.012 C601.2,63.7413333 601.106667,63.5196667 600.92,63.347 C600.733333,63.1743333 600.495333,63.088 600.206,63.088 C599.916667,63.088 599.678667,63.1743333 599.492,63.347 C599.305333,63.5196667 599.212,63.7413333 599.212,64.012 C599.212,64.2826667 599.305333,64.502 599.492,64.67 C599.678667,64.838 599.916667,64.922 600.206,64.922 Z M601.004,73 L601.004,66.126 L599.394,66.126 L599.394,73 L601.004,73 Z M605.456,76.038 C606.016,76.038 606.522333,75.975 606.975,75.849 C607.427667,75.723 607.812667,75.5526667 608.13,75.338 C608.447333,75.1233333 608.692333,74.8666667 608.865,74.568 C609.037667,74.2693333 609.124,73.952 609.124,73.616 C609.124,73.0186667 608.911667,72.587 608.487,72.321 C608.062333,72.055 607.434667,71.922 606.604,71.922 L606.604,71.922 L605.386,71.922 C604.966,71.922 604.674333,71.866 604.511,71.754 C604.347667,71.642 604.266,71.488 604.266,71.292 C604.266,71.1333333 604.296333,71.0073333 604.357,70.914 C604.417667,70.8206667 604.499333,70.7273333 604.602,70.634 C604.760667,70.6993333 604.919333,70.746 605.078,70.774 C605.236667,70.802 605.390667,70.816 605.54,70.816 C605.904,70.816 606.244667,70.7646667 606.562,70.662 C606.879333,70.5593333 607.154667,70.41 607.388,70.214 C607.621333,70.018 607.805667,69.7753333 607.941,69.486 C608.076333,69.1966667 608.144,68.8606667 608.144,68.478 C608.144,68.2353333 608.106667,68.0136667 608.032,67.813 C607.957333,67.6123333 607.864,67.4466667 607.752,67.316 L607.752,67.316 L609.012,67.316 L609.012,66.126 L606.548,66.126 C606.408,66.0793333 606.251667,66.0396667 606.079,66.007 C605.906333,65.9743333 605.726667,65.958 605.54,65.958 C605.176,65.958 604.830667,66.0116667 604.504,66.119 C604.177333,66.2263333 603.890333,66.385 603.643,66.595 C603.395667,66.805 603.197333,67.064 603.048,67.372 C602.898667,67.68 602.824,68.03 602.824,68.422 C602.824,68.8326667 602.915,69.1943333 603.097,69.507 C603.279,69.8196667 603.486667,70.0646667 603.72,70.242 L603.72,70.242 L603.72,70.298 C603.524,70.438 603.349,70.6176667 603.195,70.837 C603.041,71.0563333 602.964,71.3013333 602.964,71.572 C602.964,71.852 603.022333,72.0853333 603.139,72.272 C603.255667,72.4586667 603.402667,72.608 603.58,72.72 L603.58,72.72 L603.58,72.776 C603.262667,72.972 603.02,73.1936667 602.852,73.441 C602.684,73.6883333 602.6,73.9566667 602.6,74.246 C602.6,74.5446667 602.672333,74.806 602.817,75.03 C602.961667,75.254 603.16,75.4406667 603.412,75.59 C603.664,75.7393333 603.965,75.8513333 604.315,75.926 C604.665,76.0006667 605.045333,76.038 605.456,76.038 Z M605.54,69.808 C605.204,69.808 604.919333,69.689 604.686,69.451 C604.452667,69.213 604.336,68.87 604.336,68.422 C604.336,67.9833333 604.452667,67.6473333 604.686,67.414 C604.919333,67.1806667 605.204,67.064 605.54,67.064 C605.876,67.064 606.158333,67.183 606.387,67.421 C606.615667,67.659 606.73,67.9926667 606.73,68.422 C606.73,68.87 606.613333,69.213 606.38,69.451 C606.146667,69.689 605.866667,69.808 605.54,69.808 Z M605.708,74.988 C605.157333,74.988 604.725667,74.9016667 604.413,74.729 C604.100333,74.5563333 603.944,74.316 603.944,74.008 C603.944,73.672 604.121333,73.3686667 604.476,73.098 C604.728,73.1633333 605.040667,73.196 605.414,73.196 L605.414,73.196 L606.352,73.196 C606.744,73.196 607.045,73.2426667 607.255,73.336 C607.465,73.4293333 607.57,73.6113333 607.57,73.882 C607.57,74.1806667 607.399667,74.4396667 607.059,74.659 C606.718333,74.8783333 606.268,74.988 605.708,74.988 Z M611.756,73.168 C612.166667,73.168 612.547,73.0793333 612.897,72.902 C613.247,72.7246667 613.576,72.5053333 613.884,72.244 L613.884,72.244 L613.94,72.244 L614.052,73 L615.382,73 L615.382,68.926 C615.382,67.9646667 615.169667,67.2296667 614.745,66.721 C614.320333,66.2123333 613.678667,65.958 612.82,65.958 C612.269333,65.958 611.756,66.0466667 611.28,66.224 C610.804,66.4013333 610.374667,66.6113333 609.992,66.854 L609.992,66.854 L610.58,67.932 C610.888,67.7453333 611.203,67.5866667 611.525,67.456 C611.847,67.3253333 612.176,67.26 612.512,67.26 C612.745333,67.26 612.941333,67.295 613.1,67.365 C613.258667,67.435 613.387,67.533 613.485,67.659 C613.583,67.785 613.653,67.9296667 613.695,68.093 C613.737,68.2563333 613.762667,68.4266667 613.772,68.604 C613.062667,68.6786667 612.453667,68.786 611.945,68.926 C611.436333,69.066 611.016333,69.2386667 610.685,69.444 C610.353667,69.6493333 610.111,69.8943333 609.957,70.179 C609.803,70.4636667 609.726,70.788 609.726,71.152 C609.726,71.7586667 609.912667,72.2463333 610.286,72.615 C610.659333,72.9836667 611.149333,73.168 611.756,73.168 Z M612.274,71.908 C611.984667,71.908 611.746667,71.838 611.56,71.698 C611.373333,71.558 611.28,71.334 611.28,71.026 C611.28,70.858 611.322,70.6993333 611.406,70.55 C611.49,70.4006667 611.63,70.2676667 611.826,70.151 C612.022,70.0343333 612.278667,69.9293333 612.596,69.836 C612.913333,69.7426667 613.305333,69.668 613.772,69.612 L613.772,69.612 L613.772,71.152 C613.510667,71.3946667 613.265667,71.5813333 613.037,71.712 C612.808333,71.8426667 612.554,71.908 612.274,71.908 Z M619.512,73.168 C619.782667,73.168 620.037,73.1423333 620.275,73.091 C620.513,73.0396667 620.725333,72.9813333 620.912,72.916 L620.912,72.916 L620.632,71.726 C620.529333,71.7726667 620.415,71.81 620.289,71.838 C620.163,71.866 620.039333,71.88 619.918,71.88 C619.274,71.88 618.952,71.4786667 618.952,70.676 L618.952,70.676 L618.952,67.4 L620.702,67.4 L620.702,66.126 L618.952,66.126 L618.952,64.25 L617.608,64.25 L617.412,66.126 L616.348,66.196 L616.348,67.4 L617.328,67.4 L617.328,70.676 C617.328,71.0493333 617.367667,71.3876667 617.447,71.691 C617.526333,71.9943333 617.652333,72.2556667 617.825,72.475 C617.997667,72.6943333 618.221667,72.8646667 618.497,72.986 C618.772333,73.1073333 619.110667,73.168 619.512,73.168 Z M624.86,73.168 C625.298667,73.168 625.718667,73.098 626.12,72.958 C626.521333,72.818 626.885333,72.6406667 627.212,72.426 L627.212,72.426 L626.666,71.418 C626.414,71.5766667 626.159667,71.7003333 625.903,71.789 C625.646333,71.8776667 625.368667,71.922 625.07,71.922 C624.51,71.922 624.050333,71.7563333 623.691,71.425 C623.331667,71.0936667 623.114667,70.62 623.04,70.004 L623.04,70.004 L627.408,70.004 C627.426667,69.92 627.443,69.808 627.457,69.668 C627.471,69.528 627.478,69.3786667 627.478,69.22 C627.478,68.744 627.417333,68.3053333 627.296,67.904 C627.174667,67.5026667 626.995,67.1573333 626.757,66.868 C626.519,66.5786667 626.222667,66.3546667 625.868,66.196 C625.513333,66.0373333 625.102667,65.958 624.636,65.958 C624.234667,65.958 623.842667,66.042 623.46,66.21 C623.077333,66.378 622.739,66.616 622.445,66.924 C622.151,67.232 621.915333,67.61 621.738,68.058 C621.560667,68.506 621.472,69.01 621.472,69.57 C621.472,70.1393333 621.558333,70.6456667 621.731,71.089 C621.903667,71.5323333 622.144,71.908 622.452,72.216 C622.76,72.524 623.119333,72.7596667 623.53,72.923 C623.940667,73.0863333 624.384,73.168 624.86,73.168 Z M626.078,68.912 L623.026,68.912 C623.100667,68.352 623.292,67.9273333 623.6,67.638 C623.908,67.3486667 624.267333,67.204 624.678,67.204 C625.154,67.204 625.506333,67.3556667 625.735,67.659 C625.963667,67.9623333 626.078,68.38 626.078,68.912 L626.078,68.912 Z M631.426,73.168 C631.799333,73.168 632.154,73.0793333 632.49,72.902 C632.826,72.7246667 633.12,72.51 633.372,72.258 L633.372,72.258 L633.428,72.258 L633.54,73 L634.87,73 L634.87,63.116 L633.26,63.116 L633.26,65.608 L633.316,66.714 C633.045333,66.4806667 632.774667,66.2963333 632.504,66.161 C632.233333,66.0256667 631.902,65.958 631.51,65.958 C631.136667,65.958 630.775,66.042 630.425,66.21 C630.075,66.378 629.764667,66.616 629.494,66.924 C629.223333,67.232 629.006333,67.61 628.843,68.058 C628.679667,68.506 628.598,69.01 628.598,69.57 C628.598,70.7086667 628.852333,71.593 629.361,72.223 C629.869667,72.853 630.558,73.168 631.426,73.168 Z M631.818,71.838 C631.314,71.838 630.929,71.6443333 630.663,71.257 C630.397,70.8696667 630.264,70.3026667 630.264,69.556 C630.264,68.828 630.418,68.268 630.726,67.876 C631.034,67.484 631.412,67.288 631.86,67.288 C632.093333,67.288 632.324333,67.33 632.553,67.414 C632.781667,67.498 633.017333,67.6473333 633.26,67.862 L633.26,67.862 L633.26,71.068 C632.812,71.5813333 632.331333,71.838 631.818,71.838 Z" id="Unobligated" fill="#666666" fill-rule="nonzero"></path>
                <line x1="337" y1="40" x2="337" y2="55" id="Line-Copy-5" stroke="#C6C6C6"></line>
                <line x1="599.5" y1="40" x2="599.5" y2="55" id="Line-Copy-2" stroke="#C6C6C6"></line>
            </g>
        </g>
    </g>
</svg>