<?xml version="1.0" encoding="UTF-8"?>
<svg width="562px" height="94px" viewBox="0 0 562 94" version="1.1" xmlns="http://www.w3.org/2000/svg" xmlns:xlink="http://www.w3.org/1999/xlink">
    <title>Law 3 - Total</title>
    <g id="SVG-2.0" stroke="none" stroke-width="1" fill="none" fill-rule="evenodd">
        <g id="viz-3-tablet-outline" transform="translate(-61.000000, -1030.000000)">
            <g id="Law-3---Total" transform="translate(61.000000, 1030.000000)">
                <path d="M4.718,74.168 C5.31533333,74.168 5.86133333,74.0583333 6.356,73.839 C6.85066667,73.6196667 7.27766667,73.3023333 7.637,72.887 C7.99633333,72.4716667 8.274,71.97 8.47,71.382 C8.666,70.794 8.764,70.1266667 8.764,69.38 C8.764,68.6426667 8.666,67.9823333 8.47,67.399 C8.274,66.8156667 7.99633333,66.3233333 7.637,65.922 C7.27766667,65.5206667 6.85066667,65.2126667 6.356,64.998 C5.86133333,64.7833333 5.31533333,64.676 4.718,64.676 C4.12066667,64.676 3.57466667,64.7833333 3.08,64.998 C2.58533333,65.2126667 2.16066667,65.5206667 1.806,65.922 C1.45133333,66.3233333 1.176,66.8156667 0.98,67.399 C0.784,67.9823333 0.686,68.6426667 0.686,69.38 C0.686,70.1266667 0.784,70.794 0.98,71.382 C1.176,71.97 1.45133333,72.4716667 1.806,72.887 C2.16066667,73.3023333 2.58533333,73.6196667 3.08,73.839 C3.57466667,74.0583333 4.12066667,74.168 4.718,74.168 Z M4.718,72.754 C4.354,72.754 4.02733333,72.6746667 3.738,72.516 C3.44866667,72.3573333 3.20133333,72.131 2.996,71.837 C2.79066667,71.543 2.632,71.1883333 2.52,70.773 C2.408,70.3576667 2.352,69.8933333 2.352,69.38 C2.352,68.3533333 2.56433333,67.5483333 2.989,66.965 C3.41366667,66.3816667 3.99,66.09 4.718,66.09 C5.446,66.09 6.02233333,66.3816667 6.447,66.965 C6.87166667,67.5483333 7.084,68.3533333 7.084,69.38 C7.084,69.8933333 7.028,70.3576667 6.916,70.773 C6.804,71.1883333 6.64533333,71.543 6.44,71.837 C6.23466667,72.131 5.98733333,72.3573333 5.698,72.516 C5.40866667,72.6746667 5.082,72.754 4.718,72.754 Z M12.502,74.168 C12.978,74.168 13.391,74.0606667 13.741,73.846 C14.091,73.6313333 14.4153333,73.3466667 14.714,72.992 L14.714,72.992 L14.756,72.992 L14.882,74 L16.198,74 L16.198,67.126 L14.588,67.126 L14.588,71.83 C14.3266667,72.166 14.0816667,72.4086667 13.853,72.558 C13.6243333,72.7073333 13.3606667,72.782 13.062,72.782 C12.6886667,72.782 12.418,72.6653333 12.25,72.432 C12.082,72.1986667 11.998,71.7973333 11.998,71.228 L11.998,71.228 L11.998,67.126 L10.388,67.126 L10.388,71.438 C10.388,72.3153333 10.556,72.9896667 10.892,73.461 C11.228,73.9323333 11.7646667,74.168 12.502,74.168 Z M20.664,74.168 C20.9346667,74.168 21.189,74.1423333 21.427,74.091 C21.665,74.0396667 21.8773333,73.9813333 22.064,73.916 L22.064,73.916 L21.784,72.726 C21.6813333,72.7726667 21.567,72.81 21.441,72.838 C21.315,72.866 21.1913333,72.88 21.07,72.88 C20.426,72.88 20.104,72.4786667 20.104,71.676 L20.104,71.676 L20.104,68.4 L21.854,68.4 L21.854,67.126 L20.104,67.126 L20.104,65.25 L18.76,65.25 L18.564,67.126 L17.5,67.196 L17.5,68.4 L18.48,68.4 L18.48,71.676 C18.48,72.0493333 18.5196667,72.3876667 18.599,72.691 C18.6783333,72.9943333 18.8043333,73.2556667 18.977,73.475 C19.1496667,73.6943333 19.3736667,73.8646667 19.649,73.986 C19.9243333,74.1073333 20.2626667,74.168 20.664,74.168 Z M24.864,74.168 C25.2186667,74.168 25.5033333,74.1213333 25.718,74.028 L25.718,74.028 L25.508,72.824 C25.4426667,72.8426667 25.3936667,72.852 25.361,72.852 L25.361,72.852 L25.256,72.852 C25.172,72.852 25.0926667,72.8123333 25.018,72.733 C24.9433333,72.6536667 24.906,72.516 24.906,72.32 L24.906,72.32 L24.906,64.116 L23.296,64.116 L23.296,72.236 C23.296,72.8333333 23.4126667,73.3046667 23.646,73.65 C23.8793333,73.9953333 24.2853333,74.168 24.864,74.168 Z M28.756,74.168 C29.1666667,74.168 29.547,74.0793333 29.897,73.902 C30.247,73.7246667 30.576,73.5053333 30.884,73.244 L30.884,73.244 L30.94,73.244 L31.052,74 L32.382,74 L32.382,69.926 C32.382,68.9646667 32.1696667,68.2296667 31.745,67.721 C31.3203333,67.2123333 30.6786667,66.958 29.82,66.958 C29.2693333,66.958 28.756,67.0466667 28.28,67.224 C27.804,67.4013333 27.3746667,67.6113333 26.992,67.854 L26.992,67.854 L27.58,68.932 C27.888,68.7453333 28.203,68.5866667 28.525,68.456 C28.847,68.3253333 29.176,68.26 29.512,68.26 C29.7453333,68.26 29.9413333,68.295 30.1,68.365 C30.2586667,68.435 30.387,68.533 30.485,68.659 C30.583,68.785 30.653,68.9296667 30.695,69.093 C30.737,69.2563333 30.7626667,69.4266667 30.772,69.604 C30.0626667,69.6786667 29.4536667,69.786 28.945,69.926 C28.4363333,70.066 28.0163333,70.2386667 27.685,70.444 C27.3536667,70.6493333 27.111,70.8943333 26.957,71.179 C26.803,71.4636667 26.726,71.788 26.726,72.152 C26.726,72.7586667 26.9126667,73.2463333 27.286,73.615 C27.6593333,73.9836667 28.1493333,74.168 28.756,74.168 Z M29.274,72.908 C28.9846667,72.908 28.7466667,72.838 28.56,72.698 C28.3733333,72.558 28.28,72.334 28.28,72.026 C28.28,71.858 28.322,71.6993333 28.406,71.55 C28.49,71.4006667 28.63,71.2676667 28.826,71.151 C29.022,71.0343333 29.2786667,70.9293333 29.596,70.836 C29.9133333,70.7426667 30.3053333,70.668 30.772,70.612 L30.772,70.612 L30.772,72.152 C30.5106667,72.3946667 30.2656667,72.5813333 30.037,72.712 C29.8083333,72.8426667 29.554,72.908 29.274,72.908 Z M34.776,76.828 C35.1493333,76.828 35.4783333,76.7696667 35.763,76.653 C36.0476667,76.5363333 36.2996667,76.3683333 36.519,76.149 C36.7383333,75.9296667 36.932,75.666 37.1,75.358 C37.268,75.05 37.422,74.7 37.562,74.308 L37.562,74.308 L40.054,67.126 L38.5,67.126 L37.464,70.5 C37.38,70.808 37.2936667,71.1276667 37.205,71.459 C37.1163333,71.7903333 37.03,72.1146667 36.946,72.432 L36.946,72.432 L36.89,72.432 C36.7873333,72.1053333 36.687,71.7763333 36.589,71.445 C36.491,71.1136667 36.3906667,70.7986667 36.288,70.5 L36.288,70.5 L35.098,67.126 L33.46,67.126 L36.162,73.916 L36.036,74.35 C35.924,74.6953333 35.7583333,74.9776667 35.539,75.197 C35.3196667,75.4163333 35.028,75.526 34.664,75.526 C34.58,75.526 34.4936667,75.5143333 34.405,75.491 C34.3163333,75.4676667 34.2393333,75.4466667 34.174,75.428 L34.174,75.428 L33.88,76.688 C34.0106667,76.7346667 34.146,76.7696667 34.286,76.793 C34.426,76.8163333 34.5893333,76.828 34.776,76.828 Z M43.162,74.168 C43.5913333,74.168 43.974,74.112 44.31,74 C44.646,73.888 44.926,73.7363333 45.15,73.545 C45.374,73.3536667 45.5443333,73.1296667 45.661,72.873 C45.7776667,72.6163333 45.836,72.3386667 45.836,72.04 C45.836,71.7226667 45.7776667,71.4496667 45.661,71.221 C45.5443333,70.9923333 45.3903333,70.7986667 45.199,70.64 C45.0076667,70.4813333 44.7953333,70.3483333 44.562,70.241 C44.3286667,70.1336667 44.0953333,70.038 43.862,69.954 C43.6753333,69.8886667 43.4956667,69.8233333 43.323,69.758 C43.1503333,69.6926667 42.9986667,69.6226667 42.868,69.548 C42.7373333,69.4733333 42.6323333,69.387 42.553,69.289 C42.4736667,69.191 42.434,69.072 42.434,68.932 C42.434,68.7173333 42.5156667,68.5376667 42.679,68.393 C42.8423333,68.2483333 43.0966667,68.176 43.442,68.176 C43.7126667,68.176 43.9716667,68.2296667 44.219,68.337 C44.4663333,68.4443333 44.7113333,68.5866667 44.954,68.764 L44.954,68.764 L45.696,67.784 C45.416,67.5693333 45.0846667,67.378 44.702,67.21 C44.3193333,67.042 43.89,66.958 43.414,66.958 C42.6393333,66.958 42.028,67.1493333 41.58,67.532 C41.132,67.9146667 40.908,68.4093333 40.908,69.016 C40.908,69.3053333 40.9663333,69.555 41.083,69.765 C41.1996667,69.975 41.349,70.1593333 41.531,70.318 C41.713,70.4766667 41.9206667,70.612 42.154,70.724 C42.3873333,70.836 42.616,70.934 42.84,71.018 C43.0173333,71.0926667 43.1946667,71.165 43.372,71.235 C43.5493333,71.305 43.708,71.382 43.848,71.466 C43.988,71.55 44.1,71.6456667 44.184,71.753 C44.268,71.8603333 44.31,71.984 44.31,72.124 C44.31,72.3666667 44.2213333,72.565 44.044,72.719 C43.8666667,72.873 43.5913333,72.95 43.218,72.95 C42.8633333,72.95 42.5343333,72.8823333 42.231,72.747 C41.9276667,72.6116667 41.622,72.4226667 41.314,72.18 L41.314,72.18 L40.558,73.216 C40.894,73.4866667 41.293,73.713 41.755,73.895 C42.217,74.077 42.686,74.168 43.162,74.168 Z M3.948,93.54 L3.948,92.126 C4.62,92.0326667 5.14966667,91.7713333 5.537,91.342 C5.92433333,90.9126667 6.118,90.362 6.118,89.69 C6.118,89.186 6.02233333,88.773 5.831,88.451 C5.63966667,88.129 5.39933333,87.8583333 5.11,87.639 C4.82066667,87.4196667 4.50566667,87.233 4.165,87.079 C3.82433333,86.925 3.50933333,86.7663333 3.22,86.603 C2.93066667,86.4396667 2.69033333,86.2506667 2.499,86.036 C2.30766667,85.8213333 2.212,85.546 2.212,85.21 C2.212,84.7993333 2.338,84.4726667 2.59,84.23 C2.842,83.9873333 3.18266667,83.866 3.612,83.866 C3.99466667,83.866 4.30966667,83.936 4.557,84.076 C4.80433333,84.216 5.05866667,84.412 5.32,84.664 L5.32,84.664 L5.936,83.978 C5.684,83.7073333 5.40166667,83.474 5.089,83.278 C4.77633333,83.082 4.396,82.9606667 3.948,82.914 L3.948,82.914 L3.948,81.528 L3.108,81.528 L3.108,82.942 C2.492,83.0353333 1.99966667,83.2896667 1.631,83.705 C1.26233333,84.1203333 1.078,84.6406667 1.078,85.266 C1.078,85.7233333 1.17366667,86.099 1.365,86.393 C1.55633333,86.687 1.79666667,86.9366667 2.086,87.142 C2.37533333,87.3473333 2.69033333,87.5293333 3.031,87.688 C3.37166667,87.8466667 3.68666667,88.017 3.976,88.199 C4.26533333,88.381 4.50566667,88.5956667 4.697,88.843 C4.88833333,89.0903333 4.984,89.4006667 4.984,89.774 C4.984,90.2126667 4.85566667,90.5626667 4.599,90.824 C4.34233333,91.0853333 3.95266667,91.216 3.43,91.216 C3.00066667,91.216 2.60633333,91.125 2.247,90.943 C1.88766667,90.761 1.55866667,90.5393333 1.26,90.278 L1.26,90.278 L0.728,91.076 C1.02666667,91.3466667 1.386,91.5823333 1.806,91.783 C2.226,91.9836667 2.66,92.1073333 3.108,92.154 L3.108,92.154 L3.108,93.54 L3.948,93.54 Z M13.104,92 L13.104,91.048 L11.256,91.048 L11.256,83.068 L10.374,83.068 C10.1313333,83.2173333 9.85833333,83.3456667 9.555,83.453 C9.25166667,83.5603333 8.89466667,83.6513333 8.484,83.726 L8.484,83.726 L8.484,84.468 L10.108,84.468 L10.108,91.048 L8.064,91.048 L8.064,92 L13.104,92 Z M15.666,92.168 C15.89,92.168 16.0836667,92.0863333 16.247,91.923 C16.4103333,91.7596667 16.492,91.552 16.492,91.3 C16.492,91.0293333 16.4103333,90.8123333 16.247,90.649 C16.0836667,90.4856667 15.89,90.404 15.666,90.404 C15.4326667,90.404 15.2343333,90.4856667 15.071,90.649 C14.9076667,90.8123333 14.826,91.0293333 14.826,91.3 C14.826,91.552 14.9076667,91.7596667 15.071,91.923 C15.2343333,92.0863333 15.4326667,92.168 15.666,92.168 Z M23.73,92 L23.73,91.006 L21.14,91.006 C20.9066667,91.006 20.6593333,91.0153333 20.398,91.034 C20.1366667,91.0526667 19.8846667,91.0713333 19.642,91.09 C20.174,90.5393333 20.6616667,90.019 21.105,89.529 C21.5483333,89.039 21.931,88.5676667 22.253,88.115 C22.575,87.6623333 22.827,87.2236667 23.009,86.799 C23.191,86.3743333 23.282,85.952 23.282,85.532 C23.282,84.7386667 23.044,84.1016667 22.568,83.621 C22.092,83.1403333 21.4386667,82.9 20.608,82.9 C20.02,82.9 19.516,83.0236667 19.096,83.271 C18.676,83.5183333 18.2793333,83.8473333 17.906,84.258 L17.906,84.258 L18.564,84.916 C18.8253333,84.6173333 19.1146667,84.363 19.432,84.153 C19.7493333,83.943 20.0946667,83.838 20.468,83.838 C21.0373333,83.838 21.462,84.0013333 21.742,84.328 C22.022,84.6546667 22.162,85.0746667 22.162,85.588 C22.162,85.952 22.0686667,86.3276667 21.882,86.715 C21.6953333,87.1023333 21.4246667,87.527 21.07,87.989 C20.7153333,88.451 20.2766667,88.9526667 19.754,89.494 C19.2313333,90.0353333 18.634,90.642 17.962,91.314 L17.962,91.314 L17.962,92 L23.73,92 Z M27.636,92.168 C28.028,92.168 28.4036667,92.1003333 28.763,91.965 C29.1223333,91.8296667 29.442,91.6336667 29.722,91.377 C30.002,91.1203333 30.226,90.8053333 30.394,90.432 C30.562,90.0586667 30.646,89.6293333 30.646,89.144 C30.646,88.6586667 30.5736667,88.241 30.429,87.891 C30.2843333,87.541 30.086,87.2516667 29.834,87.023 C29.582,86.7943333 29.288,86.624 28.952,86.512 C28.616,86.4 28.2566667,86.344 27.874,86.344 C27.6033333,86.344 27.3606667,86.3766667 27.146,86.442 C26.9313333,86.5073333 26.7166667,86.596 26.502,86.708 L26.502,86.708 L26.74,84.062 L30.198,84.062 L30.198,83.068 L25.732,83.068 L25.438,87.366 L26.054,87.758 C26.3246667,87.5806667 26.5696667,87.4453333 26.789,87.352 C27.0083333,87.2586667 27.272,87.212 27.58,87.212 C28.1586667,87.212 28.6206667,87.3846667 28.966,87.73 C29.3113333,88.0753333 29.484,88.556 29.484,89.172 C29.484,89.48 29.4326667,89.76 29.33,90.012 C29.2273333,90.264 29.0873333,90.4786667 28.91,90.656 C28.7326667,90.8333333 28.525,90.971 28.287,91.069 C28.049,91.167 27.7946667,91.216 27.524,91.216 C27.0013333,91.216 26.5603333,91.1133333 26.201,90.908 C25.8416667,90.7026667 25.5313333,90.4646667 25.27,90.194 L25.27,90.194 L24.71,90.95 C24.8593333,91.1086667 25.0296667,91.2603333 25.221,91.405 C25.4123333,91.5496667 25.627,91.678 25.865,91.79 C26.103,91.902 26.369,91.993 26.663,92.063 C26.957,92.133 27.2813333,92.168 27.636,92.168 Z M35.658,92 L35.658,83.796 L38.43,83.796 L38.43,82.816 L31.71,82.816 L31.71,83.796 L34.482,83.796 L34.482,92 L35.658,92 Z" id="Outlays$1.25T" fill="#666666" fill-rule="nonzero"></path>
                <path d="M268.718,72.168 C269.315333,72.168 269.861333,72.0583333 270.356,71.839 C270.850667,71.6196667 271.277667,71.3023333 271.637,70.887 C271.996333,70.4716667 272.274,69.97 272.47,69.382 C272.666,68.794 272.764,68.1266667 272.764,67.38 C272.764,66.6426667 272.666,65.9823333 272.47,65.399 C272.274,64.8156667 271.996333,64.3233333 271.637,63.922 C271.277667,63.5206667 270.850667,63.2126667 270.356,62.998 C269.861333,62.7833333 269.315333,62.676 268.718,62.676 C268.120667,62.676 267.574667,62.7833333 267.08,62.998 C266.585333,63.2126667 266.160667,63.5206667 265.806,63.922 C265.451333,64.3233333 265.176,64.8156667 264.98,65.399 C264.784,65.9823333 264.686,66.6426667 264.686,67.38 C264.686,68.1266667 264.784,68.794 264.98,69.382 C265.176,69.97 265.451333,70.4716667 265.806,70.887 C266.160667,71.3023333 266.585333,71.6196667 267.08,71.839 C267.574667,72.0583333 268.120667,72.168 268.718,72.168 Z M268.718,70.754 C268.354,70.754 268.027333,70.6746667 267.738,70.516 C267.448667,70.3573333 267.201333,70.131 266.996,69.837 C266.790667,69.543 266.632,69.1883333 266.52,68.773 C266.408,68.3576667 266.352,67.8933333 266.352,67.38 C266.352,66.3533333 266.564333,65.5483333 266.989,64.965 C267.413667,64.3816667 267.99,64.09 268.718,64.09 C269.446,64.09 270.022333,64.3816667 270.447,64.965 C270.871667,65.5483333 271.084,66.3533333 271.084,67.38 C271.084,67.8933333 271.028,68.3576667 270.916,68.773 C270.804,69.1883333 270.645333,69.543 270.44,69.837 C270.234667,70.131 269.987333,70.3573333 269.698,70.516 C269.408667,70.6746667 269.082,70.754 268.718,70.754 Z M277.79,72.168 C278.172667,72.168 278.541333,72.084 278.896,71.916 C279.250667,71.748 279.563333,71.5053333 279.834,71.188 C280.104667,70.8706667 280.321667,70.481 280.485,70.019 C280.648333,69.557 280.73,69.032 280.73,68.444 C280.73,67.912 280.669333,67.4313333 280.548,67.002 C280.426667,66.5726667 280.249333,66.2063333 280.016,65.903 C279.782667,65.5996667 279.498,65.3663333 279.162,65.203 C278.826,65.0396667 278.443333,64.958 278.014,64.958 C277.659333,64.958 277.311667,65.0373333 276.971,65.196 C276.630333,65.3546667 276.315333,65.56 276.026,65.812 L276.026,65.812 L276.068,64.664 L276.068,62.116 L274.458,62.116 L274.458,72 L275.732,72 L275.872,71.272 L275.914,71.272 C276.203333,71.5613333 276.509,71.783 276.831,71.937 C277.153,72.091 277.472667,72.168 277.79,72.168 Z M277.454,70.838 C277.248667,70.838 277.027,70.796 276.789,70.712 C276.551,70.628 276.310667,70.4786667 276.068,70.264 L276.068,70.264 L276.068,67.058 C276.590667,66.5446667 277.094667,66.288 277.58,66.288 C278.102667,66.288 278.480667,66.4793333 278.714,66.862 C278.947333,67.2446667 279.064,67.7813333 279.064,68.472 C279.064,69.256 278.91,69.8463333 278.602,70.243 C278.294,70.6396667 277.911333,70.838 277.454,70.838 Z M283.908,72.168 C284.262667,72.168 284.547333,72.1213333 284.762,72.028 L284.762,72.028 L284.552,70.824 C284.486667,70.8426667 284.437667,70.852 284.405,70.852 L284.405,70.852 L284.3,70.852 C284.216,70.852 284.136667,70.8123333 284.062,70.733 C283.987333,70.6536667 283.95,70.516 283.95,70.32 L283.95,70.32 L283.95,62.116 L282.34,62.116 L282.34,70.236 C282.34,70.8333333 282.456667,71.3046667 282.69,71.65 C282.923333,71.9953333 283.329333,72.168 283.908,72.168 Z M286.946,63.922 C287.235333,63.922 287.473333,63.838 287.66,63.67 C287.846667,63.502 287.94,63.2826667 287.94,63.012 C287.94,62.7413333 287.846667,62.5196667 287.66,62.347 C287.473333,62.1743333 287.235333,62.088 286.946,62.088 C286.656667,62.088 286.418667,62.1743333 286.232,62.347 C286.045333,62.5196667 285.952,62.7413333 285.952,63.012 C285.952,63.2826667 286.045333,63.502 286.232,63.67 C286.418667,63.838 286.656667,63.922 286.946,63.922 Z M287.744,72 L287.744,65.126 L286.134,65.126 L286.134,72 L287.744,72 Z M292.196,75.038 C292.756,75.038 293.262333,74.975 293.715,74.849 C294.167667,74.723 294.552667,74.5526667 294.87,74.338 C295.187333,74.1233333 295.432333,73.8666667 295.605,73.568 C295.777667,73.2693333 295.864,72.952 295.864,72.616 C295.864,72.0186667 295.651667,71.587 295.227,71.321 C294.802333,71.055 294.174667,70.922 293.344,70.922 L293.344,70.922 L292.126,70.922 C291.706,70.922 291.414333,70.866 291.251,70.754 C291.087667,70.642 291.006,70.488 291.006,70.292 C291.006,70.1333333 291.036333,70.0073333 291.097,69.914 C291.157667,69.8206667 291.239333,69.7273333 291.342,69.634 C291.500667,69.6993333 291.659333,69.746 291.818,69.774 C291.976667,69.802 292.130667,69.816 292.28,69.816 C292.644,69.816 292.984667,69.7646667 293.302,69.662 C293.619333,69.5593333 293.894667,69.41 294.128,69.214 C294.361333,69.018 294.545667,68.7753333 294.681,68.486 C294.816333,68.1966667 294.884,67.8606667 294.884,67.478 C294.884,67.2353333 294.846667,67.0136667 294.772,66.813 C294.697333,66.6123333 294.604,66.4466667 294.492,66.316 L294.492,66.316 L295.752,66.316 L295.752,65.126 L293.288,65.126 C293.148,65.0793333 292.991667,65.0396667 292.819,65.007 C292.646333,64.9743333 292.466667,64.958 292.28,64.958 C291.916,64.958 291.570667,65.0116667 291.244,65.119 C290.917333,65.2263333 290.630333,65.385 290.383,65.595 C290.135667,65.805 289.937333,66.064 289.788,66.372 C289.638667,66.68 289.564,67.03 289.564,67.422 C289.564,67.8326667 289.655,68.1943333 289.837,68.507 C290.019,68.8196667 290.226667,69.0646667 290.46,69.242 L290.46,69.242 L290.46,69.298 C290.264,69.438 290.089,69.6176667 289.935,69.837 C289.781,70.0563333 289.704,70.3013333 289.704,70.572 C289.704,70.852 289.762333,71.0853333 289.879,71.272 C289.995667,71.4586667 290.142667,71.608 290.32,71.72 L290.32,71.72 L290.32,71.776 C290.002667,71.972 289.76,72.1936667 289.592,72.441 C289.424,72.6883333 289.34,72.9566667 289.34,73.246 C289.34,73.5446667 289.412333,73.806 289.557,74.03 C289.701667,74.254 289.9,74.4406667 290.152,74.59 C290.404,74.7393333 290.705,74.8513333 291.055,74.926 C291.405,75.0006667 291.785333,75.038 292.196,75.038 Z M292.28,68.808 C291.944,68.808 291.659333,68.689 291.426,68.451 C291.192667,68.213 291.076,67.87 291.076,67.422 C291.076,66.9833333 291.192667,66.6473333 291.426,66.414 C291.659333,66.1806667 291.944,66.064 292.28,66.064 C292.616,66.064 292.898333,66.183 293.127,66.421 C293.355667,66.659 293.47,66.9926667 293.47,67.422 C293.47,67.87 293.353333,68.213 293.12,68.451 C292.886667,68.689 292.606667,68.808 292.28,68.808 Z M292.448,73.988 C291.897333,73.988 291.465667,73.9016667 291.153,73.729 C290.840333,73.5563333 290.684,73.316 290.684,73.008 C290.684,72.672 290.861333,72.3686667 291.216,72.098 C291.468,72.1633333 291.780667,72.196 292.154,72.196 L292.154,72.196 L293.092,72.196 C293.484,72.196 293.785,72.2426667 293.995,72.336 C294.205,72.4293333 294.31,72.6113333 294.31,72.882 C294.31,73.1806667 294.139667,73.4396667 293.799,73.659 C293.458333,73.8783333 293.008,73.988 292.448,73.988 Z M298.496,72.168 C298.906667,72.168 299.287,72.0793333 299.637,71.902 C299.987,71.7246667 300.316,71.5053333 300.624,71.244 L300.624,71.244 L300.68,71.244 L300.792,72 L302.122,72 L302.122,67.926 C302.122,66.9646667 301.909667,66.2296667 301.485,65.721 C301.060333,65.2123333 300.418667,64.958 299.56,64.958 C299.009333,64.958 298.496,65.0466667 298.02,65.224 C297.544,65.4013333 297.114667,65.6113333 296.732,65.854 L296.732,65.854 L297.32,66.932 C297.628,66.7453333 297.943,66.5866667 298.265,66.456 C298.587,66.3253333 298.916,66.26 299.252,66.26 C299.485333,66.26 299.681333,66.295 299.84,66.365 C299.998667,66.435 300.127,66.533 300.225,66.659 C300.323,66.785 300.393,66.9296667 300.435,67.093 C300.477,67.2563333 300.502667,67.4266667 300.512,67.604 C299.802667,67.6786667 299.193667,67.786 298.685,67.926 C298.176333,68.066 297.756333,68.2386667 297.425,68.444 C297.093667,68.6493333 296.851,68.8943333 296.697,69.179 C296.543,69.4636667 296.466,69.788 296.466,70.152 C296.466,70.7586667 296.652667,71.2463333 297.026,71.615 C297.399333,71.9836667 297.889333,72.168 298.496,72.168 Z M299.014,70.908 C298.724667,70.908 298.486667,70.838 298.3,70.698 C298.113333,70.558 298.02,70.334 298.02,70.026 C298.02,69.858 298.062,69.6993333 298.146,69.55 C298.23,69.4006667 298.37,69.2676667 298.566,69.151 C298.762,69.0343333 299.018667,68.9293333 299.336,68.836 C299.653333,68.7426667 300.045333,68.668 300.512,68.612 L300.512,68.612 L300.512,70.152 C300.250667,70.3946667 300.005667,70.5813333 299.777,70.712 C299.548333,70.8426667 299.294,70.908 299.014,70.908 Z M306.252,72.168 C306.522667,72.168 306.777,72.1423333 307.015,72.091 C307.253,72.0396667 307.465333,71.9813333 307.652,71.916 L307.652,71.916 L307.372,70.726 C307.269333,70.7726667 307.155,70.81 307.029,70.838 C306.903,70.866 306.779333,70.88 306.658,70.88 C306.014,70.88 305.692,70.4786667 305.692,69.676 L305.692,69.676 L305.692,66.4 L307.442,66.4 L307.442,65.126 L305.692,65.126 L305.692,63.25 L304.348,63.25 L304.152,65.126 L303.088,65.196 L303.088,66.4 L304.068,66.4 L304.068,69.676 C304.068,70.0493333 304.107667,70.3876667 304.187,70.691 C304.266333,70.9943333 304.392333,71.2556667 304.565,71.475 C304.737667,71.6943333 304.961667,71.8646667 305.237,71.986 C305.512333,72.1073333 305.850667,72.168 306.252,72.168 Z M309.696,63.922 C309.985333,63.922 310.223333,63.838 310.41,63.67 C310.596667,63.502 310.69,63.2826667 310.69,63.012 C310.69,62.7413333 310.596667,62.5196667 310.41,62.347 C310.223333,62.1743333 309.985333,62.088 309.696,62.088 C309.406667,62.088 309.168667,62.1743333 308.982,62.347 C308.795333,62.5196667 308.702,62.7413333 308.702,63.012 C308.702,63.2826667 308.795333,63.502 308.982,63.67 C309.168667,63.838 309.406667,63.922 309.696,63.922 Z M310.494,72 L310.494,65.126 L308.884,65.126 L308.884,72 L310.494,72 Z M315.366,72.168 C315.795333,72.168 316.208333,72.0886667 316.605,71.93 C317.001667,71.7713333 317.349333,71.538 317.648,71.23 C317.946667,70.922 318.187,70.544 318.369,70.096 C318.551,69.648 318.642,69.1393333 318.642,68.57 C318.642,68.0006667 318.551,67.492 318.369,67.044 C318.187,66.596 317.946667,66.218 317.648,65.91 C317.349333,65.602 317.001667,65.3663333 316.605,65.203 C316.208333,65.0396667 315.795333,64.958 315.366,64.958 C314.936667,64.958 314.526,65.0396667 314.134,65.203 C313.742,65.3663333 313.394333,65.602 313.091,65.91 C312.787667,66.218 312.547333,66.596 312.37,67.044 C312.192667,67.492 312.104,68.0006667 312.104,68.57 C312.104,69.1393333 312.192667,69.648 312.37,70.096 C312.547333,70.544 312.787667,70.922 313.091,71.23 C313.394333,71.538 313.742,71.7713333 314.134,71.93 C314.526,72.0886667 314.936667,72.168 315.366,72.168 Z M315.366,70.852 C314.862,70.852 314.467667,70.6443333 314.183,70.229 C313.898333,69.8136667 313.756,69.2606667 313.756,68.57 C313.756,67.87 313.898333,67.3123333 314.183,66.897 C314.467667,66.4816667 314.862,66.274 315.366,66.274 C315.87,66.274 316.266667,66.4816667 316.556,66.897 C316.845333,67.3123333 316.99,67.87 316.99,68.57 C316.99,69.2606667 316.845333,69.8136667 316.556,70.229 C316.266667,70.6443333 315.87,70.852 315.366,70.852 Z M321.848,72 L321.848,67.198 C322.137333,66.918 322.396333,66.7056667 322.625,66.561 C322.853667,66.4163333 323.117333,66.344 323.416,66.344 C323.798667,66.344 324.074,66.4606667 324.242,66.694 C324.41,66.9273333 324.494,67.3286667 324.494,67.898 L324.494,67.898 L324.494,72 L326.104,72 L326.104,67.688 C326.104,66.8106667 325.936,66.1363333 325.6,65.665 C325.264,65.1936667 324.727333,64.958 323.99,64.958 C323.514,64.958 323.096333,65.0653333 322.737,65.28 C322.377667,65.4946667 322.044,65.7513333 321.736,66.05 L321.736,66.05 L321.68,66.05 L321.568,65.126 L320.238,65.126 L320.238,72 L321.848,72 Z M329.996,72.168 C330.425333,72.168 330.808,72.112 331.144,72 C331.48,71.888 331.76,71.7363333 331.984,71.545 C332.208,71.3536667 332.378333,71.1296667 332.495,70.873 C332.611667,70.6163333 332.67,70.3386667 332.67,70.04 C332.67,69.7226667 332.611667,69.4496667 332.495,69.221 C332.378333,68.9923333 332.224333,68.7986667 332.033,68.64 C331.841667,68.4813333 331.629333,68.3483333 331.396,68.241 C331.162667,68.1336667 330.929333,68.038 330.696,67.954 C330.509333,67.8886667 330.329667,67.8233333 330.157,67.758 C329.984333,67.6926667 329.832667,67.6226667 329.702,67.548 C329.571333,67.4733333 329.466333,67.387 329.387,67.289 C329.307667,67.191 329.268,67.072 329.268,66.932 C329.268,66.7173333 329.349667,66.5376667 329.513,66.393 C329.676333,66.2483333 329.930667,66.176 330.276,66.176 C330.546667,66.176 330.805667,66.2296667 331.053,66.337 C331.300333,66.4443333 331.545333,66.5866667 331.788,66.764 L331.788,66.764 L332.53,65.784 C332.25,65.5693333 331.918667,65.378 331.536,65.21 C331.153333,65.042 330.724,64.958 330.248,64.958 C329.473333,64.958 328.862,65.1493333 328.414,65.532 C327.966,65.9146667 327.742,66.4093333 327.742,67.016 C327.742,67.3053333 327.800333,67.555 327.917,67.765 C328.033667,67.975 328.183,68.1593333 328.365,68.318 C328.547,68.4766667 328.754667,68.612 328.988,68.724 C329.221333,68.836 329.45,68.934 329.674,69.018 C329.851333,69.0926667 330.028667,69.165 330.206,69.235 C330.383333,69.305 330.542,69.382 330.682,69.466 C330.822,69.55 330.934,69.6456667 331.018,69.753 C331.102,69.8603333 331.144,69.984 331.144,70.124 C331.144,70.3666667 331.055333,70.565 330.878,70.719 C330.700667,70.873 330.425333,70.95 330.052,70.95 C329.697333,70.95 329.368333,70.8823333 329.065,70.747 C328.761667,70.6116667 328.456,70.4226667 328.148,70.18 L328.148,70.18 L327.392,71.216 C327.728,71.4866667 328.127,71.713 328.589,71.895 C329.051,72.077 329.52,72.168 329.996,72.168 Z M267.948,91.54 L267.948,90.126 C268.62,90.0326667 269.149667,89.7713333 269.537,89.342 C269.924333,88.9126667 270.118,88.362 270.118,87.69 C270.118,87.186 270.022333,86.773 269.831,86.451 C269.639667,86.129 269.399333,85.8583333 269.11,85.639 C268.820667,85.4196667 268.505667,85.233 268.165,85.079 C267.824333,84.925 267.509333,84.7663333 267.22,84.603 C266.930667,84.4396667 266.690333,84.2506667 266.499,84.036 C266.307667,83.8213333 266.212,83.546 266.212,83.21 C266.212,82.7993333 266.338,82.4726667 266.59,82.23 C266.842,81.9873333 267.182667,81.866 267.612,81.866 C267.994667,81.866 268.309667,81.936 268.557,82.076 C268.804333,82.216 269.058667,82.412 269.32,82.664 L269.32,82.664 L269.936,81.978 C269.684,81.7073333 269.401667,81.474 269.089,81.278 C268.776333,81.082 268.396,80.9606667 267.948,80.914 L267.948,80.914 L267.948,79.528 L267.108,79.528 L267.108,80.942 C266.492,81.0353333 265.999667,81.2896667 265.631,81.705 C265.262333,82.1203333 265.078,82.6406667 265.078,83.266 C265.078,83.7233333 265.173667,84.099 265.365,84.393 C265.556333,84.687 265.796667,84.9366667 266.086,85.142 C266.375333,85.3473333 266.690333,85.5293333 267.031,85.688 C267.371667,85.8466667 267.686667,86.017 267.976,86.199 C268.265333,86.381 268.505667,86.5956667 268.697,86.843 C268.888333,87.0903333 268.984,87.4006667 268.984,87.774 C268.984,88.2126667 268.855667,88.5626667 268.599,88.824 C268.342333,89.0853333 267.952667,89.216 267.43,89.216 C267.000667,89.216 266.606333,89.125 266.247,88.943 C265.887667,88.761 265.558667,88.5393333 265.26,88.278 L265.26,88.278 L264.728,89.076 C265.026667,89.3466667 265.386,89.5823333 265.806,89.783 C266.226,89.9836667 266.66,90.1073333 267.108,90.154 L267.108,90.154 L267.108,91.54 L267.948,91.54 Z M277.104,90 L277.104,89.048 L275.256,89.048 L275.256,81.068 L274.374,81.068 C274.131333,81.2173333 273.858333,81.3456667 273.555,81.453 C273.251667,81.5603333 272.894667,81.6513333 272.484,81.726 L272.484,81.726 L272.484,82.468 L274.108,82.468 L274.108,89.048 L272.064,89.048 L272.064,90 L277.104,90 Z M279.666,90.168 C279.89,90.168 280.083667,90.0863333 280.247,89.923 C280.410333,89.7596667 280.492,89.552 280.492,89.3 C280.492,89.0293333 280.410333,88.8123333 280.247,88.649 C280.083667,88.4856667 279.89,88.404 279.666,88.404 C279.432667,88.404 279.234333,88.4856667 279.071,88.649 C278.907667,88.8123333 278.826,89.0293333 278.826,89.3 C278.826,89.552 278.907667,89.7596667 279.071,89.923 C279.234333,90.0863333 279.432667,90.168 279.666,90.168 Z M284.706,90.168 C285.116667,90.168 285.499333,90.1096667 285.854,89.993 C286.208667,89.8763333 286.519,89.7083333 286.785,89.489 C287.051,89.2696667 287.261,89.0013333 287.415,88.684 C287.569,88.3666667 287.646,88.012 287.646,87.62 C287.646,87.312 287.597,87.032 287.499,86.78 C287.401,86.528 287.263333,86.3063333 287.086,86.115 C286.908667,85.9236667 286.703333,85.765 286.47,85.639 C286.236667,85.513 285.984667,85.4173333 285.714,85.352 L285.714,85.352 L285.714,85.296 C286.199333,85.1093333 286.591333,84.8433333 286.89,84.498 C287.188667,84.1526667 287.338,83.7093333 287.338,83.168 C287.338,82.804 287.272667,82.482 287.142,82.202 C287.011333,81.922 286.827,81.6863333 286.589,81.495 C286.351,81.3036667 286.068667,81.1566667 285.742,81.054 C285.415333,80.9513333 285.056,80.9 284.664,80.9 C284.132,80.9 283.658333,81.005 283.243,81.215 C282.827667,81.425 282.447333,81.6933333 282.102,82.02 L282.102,82.02 L282.718,82.748 C282.988667,82.4773333 283.280333,82.258 283.593,82.09 C283.905667,81.922 284.248667,81.838 284.622,81.838 C285.098,81.838 285.473667,81.964 285.749,82.216 C286.024333,82.468 286.162,82.8133333 286.162,83.252 C286.162,83.4853333 286.12,83.7046667 286.036,83.91 C285.952,84.1153333 285.809667,84.2926667 285.609,84.442 C285.408333,84.5913333 285.147,84.708 284.825,84.792 C284.503,84.876 284.104,84.918 283.628,84.918 L283.628,84.918 L283.628,85.8 C284.16,85.8 284.608,85.842 284.972,85.926 C285.336,86.01 285.63,86.1313333 285.854,86.29 C286.078,86.4486667 286.239,86.6376667 286.337,86.857 C286.435,87.0763333 286.484,87.3166667 286.484,87.578 C286.484,88.082 286.311333,88.481 285.966,88.775 C285.620667,89.069 285.177333,89.216 284.636,89.216 C284.104,89.216 283.658333,89.1086667 283.299,88.894 C282.939667,88.6793333 282.624667,88.432 282.354,88.152 L282.354,88.152 L281.766,88.908 C281.915333,89.076 282.085667,89.2346667 282.277,89.384 C282.468333,89.5333333 282.685333,89.6663333 282.928,89.783 C283.170667,89.8996667 283.439,89.993 283.733,90.063 C284.027,90.133 284.351333,90.168 284.706,90.168 Z M291.23,90.168 C291.678,90.168 292.105,90.077 292.511,89.895 C292.917,89.713 293.278667,89.4236667 293.596,89.027 C293.913333,88.6303333 294.165333,88.117 294.352,87.487 C294.538667,86.857 294.632,86.094 294.632,85.198 C294.632,84.4793333 294.555,83.8516667 294.401,83.315 C294.247,82.7783333 294.032333,82.3303333 293.757,81.971 C293.481667,81.6116667 293.155,81.3433333 292.777,81.166 C292.399,80.9886667 291.990667,80.9 291.552,80.9 C291.197333,80.9 290.859,80.97 290.537,81.11 C290.215,81.25 289.935,81.446 289.697,81.698 C289.459,81.95 289.27,82.251 289.13,82.601 C288.99,82.951 288.92,83.3406667 288.92,83.77 C288.92,84.694 289.148667,85.3846667 289.606,85.842 C290.063333,86.2993333 290.679333,86.528 291.454,86.528 C291.827333,86.528 292.200667,86.4253333 292.574,86.22 C292.947333,86.0146667 293.274,85.7346667 293.554,85.38 C293.544667,86.0986667 293.474667,86.7006667 293.344,87.186 C293.213333,87.6713333 293.040667,88.0656667 292.826,88.369 C292.611333,88.6723333 292.364,88.8893333 292.084,89.02 C291.804,89.1506667 291.505333,89.216 291.188,89.216 C290.908,89.216 290.639667,89.1506667 290.383,89.02 C290.126333,88.8893333 289.904667,88.7166667 289.718,88.502 L289.718,88.502 L289.074,89.23 C289.316667,89.5006667 289.617667,89.7246667 289.977,89.902 C290.336333,90.0793333 290.754,90.168 291.23,90.168 Z M291.65,85.66 C291.09,85.66 290.674667,85.492 290.404,85.156 C290.133333,84.82 289.998,84.358 289.998,83.77 C289.998,83.4806667 290.037667,83.2146667 290.117,82.972 C290.196333,82.7293333 290.306,82.5216667 290.446,82.349 C290.586,82.1763333 290.751667,82.0433333 290.943,81.95 C291.134333,81.8566667 291.337333,81.81 291.552,81.81 C292.121333,81.81 292.574,82.034 292.91,82.482 C293.246,82.93 293.451333,83.5926667 293.526,84.47 C293.236667,84.89 292.926333,85.1933333 292.595,85.38 C292.263667,85.5666667 291.948667,85.66 291.65,85.66 Z M299.658,90 L299.658,81.796 L302.43,81.796 L302.43,80.816 L295.71,80.816 L295.71,81.796 L298.482,81.796 L298.482,90 L299.658,90 Z" id="Obligations$1.39T" fill="#666666" fill-rule="nonzero"></path>
                <path d="M422.592,73.168 C423.124,73.168 423.602333,73.091 424.027,72.937 C424.451667,72.783 424.815667,72.538 425.119,72.202 C425.422333,71.866 425.653333,71.4343333 425.812,70.907 C425.970667,70.3796667 426.05,69.738 426.05,68.982 L426.05,68.982 L426.05,63.844 L424.496,63.844 L424.496,69.108 C424.496,69.6026667 424.449333,70.0203333 424.356,70.361 C424.262667,70.7016667 424.132,70.9746667 423.964,71.18 C423.796,71.3853333 423.595333,71.5323333 423.362,71.621 C423.128667,71.7096667 422.872,71.754 422.592,71.754 C422.312,71.754 422.06,71.7096667 421.836,71.621 C421.612,71.5323333 421.418333,71.3853333 421.255,71.18 C421.091667,70.9746667 420.965667,70.7016667 420.877,70.361 C420.788333,70.0203333 420.744,69.6026667 420.744,69.108 L420.744,69.108 L420.744,63.844 L419.12,63.844 L419.12,68.982 C419.12,69.738 419.201667,70.3796667 419.365,70.907 C419.528333,71.4343333 419.761667,71.866 420.065,72.202 C420.368333,72.538 420.732333,72.783 421.157,72.937 C421.581667,73.091 422.06,73.168 422.592,73.168 Z M429.802,73 L429.802,68.198 C430.091333,67.918 430.350333,67.7056667 430.579,67.561 C430.807667,67.4163333 431.071333,67.344 431.37,67.344 C431.752667,67.344 432.028,67.4606667 432.196,67.694 C432.364,67.9273333 432.448,68.3286667 432.448,68.898 L432.448,68.898 L432.448,73 L434.058,73 L434.058,68.688 C434.058,67.8106667 433.89,67.1363333 433.554,66.665 C433.218,66.1936667 432.681333,65.958 431.944,65.958 C431.468,65.958 431.050333,66.0653333 430.691,66.28 C430.331667,66.4946667 429.998,66.7513333 429.69,67.05 L429.69,67.05 L429.634,67.05 L429.522,66.126 L428.192,66.126 L428.192,73 L429.802,73 Z M438.846,73.168 C439.275333,73.168 439.688333,73.0886667 440.085,72.93 C440.481667,72.7713333 440.829333,72.538 441.128,72.23 C441.426667,71.922 441.667,71.544 441.849,71.096 C442.031,70.648 442.122,70.1393333 442.122,69.57 C442.122,69.0006667 442.031,68.492 441.849,68.044 C441.667,67.596 441.426667,67.218 441.128,66.91 C440.829333,66.602 440.481667,66.3663333 440.085,66.203 C439.688333,66.0396667 439.275333,65.958 438.846,65.958 C438.416667,65.958 438.006,66.0396667 437.614,66.203 C437.222,66.3663333 436.874333,66.602 436.571,66.91 C436.267667,67.218 436.027333,67.596 435.85,68.044 C435.672667,68.492 435.584,69.0006667 435.584,69.57 C435.584,70.1393333 435.672667,70.648 435.85,71.096 C436.027333,71.544 436.267667,71.922 436.571,72.23 C436.874333,72.538 437.222,72.7713333 437.614,72.93 C438.006,73.0886667 438.416667,73.168 438.846,73.168 Z M438.846,71.852 C438.342,71.852 437.947667,71.6443333 437.663,71.229 C437.378333,70.8136667 437.236,70.2606667 437.236,69.57 C437.236,68.87 437.378333,68.3123333 437.663,67.897 C437.947667,67.4816667 438.342,67.274 438.846,67.274 C439.35,67.274 439.746667,67.4816667 440.036,67.897 C440.325333,68.3123333 440.47,68.87 440.47,69.57 C440.47,70.2606667 440.325333,70.8136667 440.036,71.229 C439.746667,71.6443333 439.35,71.852 438.846,71.852 Z M447.05,73.168 C447.432667,73.168 447.801333,73.084 448.156,72.916 C448.510667,72.748 448.823333,72.5053333 449.094,72.188 C449.364667,71.8706667 449.581667,71.481 449.745,71.019 C449.908333,70.557 449.99,70.032 449.99,69.444 C449.99,68.912 449.929333,68.4313333 449.808,68.002 C449.686667,67.5726667 449.509333,67.2063333 449.276,66.903 C449.042667,66.5996667 448.758,66.3663333 448.422,66.203 C448.086,66.0396667 447.703333,65.958 447.274,65.958 C446.919333,65.958 446.571667,66.0373333 446.231,66.196 C445.890333,66.3546667 445.575333,66.56 445.286,66.812 L445.286,66.812 L445.328,65.664 L445.328,63.116 L443.718,63.116 L443.718,73 L444.992,73 L445.132,72.272 L445.174,72.272 C445.463333,72.5613333 445.769,72.783 446.091,72.937 C446.413,73.091 446.732667,73.168 447.05,73.168 Z M446.714,71.838 C446.508667,71.838 446.287,71.796 446.049,71.712 C445.811,71.628 445.570667,71.4786667 445.328,71.264 L445.328,71.264 L445.328,68.058 C445.850667,67.5446667 446.354667,67.288 446.84,67.288 C447.362667,67.288 447.740667,67.4793333 447.974,67.862 C448.207333,68.2446667 448.324,68.7813333 448.324,69.472 C448.324,70.256 448.17,70.8463333 447.862,71.243 C447.554,71.6396667 447.171333,71.838 446.714,71.838 Z M453.168,73.168 C453.522667,73.168 453.807333,73.1213333 454.022,73.028 L454.022,73.028 L453.812,71.824 C453.746667,71.8426667 453.697667,71.852 453.665,71.852 L453.665,71.852 L453.56,71.852 C453.476,71.852 453.396667,71.8123333 453.322,71.733 C453.247333,71.6536667 453.21,71.516 453.21,71.32 L453.21,71.32 L453.21,63.116 L451.6,63.116 L451.6,71.236 C451.6,71.8333333 451.716667,72.3046667 451.95,72.65 C452.183333,72.9953333 452.589333,73.168 453.168,73.168 Z M456.206,64.922 C456.495333,64.922 456.733333,64.838 456.92,64.67 C457.106667,64.502 457.2,64.2826667 457.2,64.012 C457.2,63.7413333 457.106667,63.5196667 456.92,63.347 C456.733333,63.1743333 456.495333,63.088 456.206,63.088 C455.916667,63.088 455.678667,63.1743333 455.492,63.347 C455.305333,63.5196667 455.212,63.7413333 455.212,64.012 C455.212,64.2826667 455.305333,64.502 455.492,64.67 C455.678667,64.838 455.916667,64.922 456.206,64.922 Z M457.004,73 L457.004,66.126 L455.394,66.126 L455.394,73 L457.004,73 Z M461.456,76.038 C462.016,76.038 462.522333,75.975 462.975,75.849 C463.427667,75.723 463.812667,75.5526667 464.13,75.338 C464.447333,75.1233333 464.692333,74.8666667 464.865,74.568 C465.037667,74.2693333 465.124,73.952 465.124,73.616 C465.124,73.0186667 464.911667,72.587 464.487,72.321 C464.062333,72.055 463.434667,71.922 462.604,71.922 L462.604,71.922 L461.386,71.922 C460.966,71.922 460.674333,71.866 460.511,71.754 C460.347667,71.642 460.266,71.488 460.266,71.292 C460.266,71.1333333 460.296333,71.0073333 460.357,70.914 C460.417667,70.8206667 460.499333,70.7273333 460.602,70.634 C460.760667,70.6993333 460.919333,70.746 461.078,70.774 C461.236667,70.802 461.390667,70.816 461.54,70.816 C461.904,70.816 462.244667,70.7646667 462.562,70.662 C462.879333,70.5593333 463.154667,70.41 463.388,70.214 C463.621333,70.018 463.805667,69.7753333 463.941,69.486 C464.076333,69.1966667 464.144,68.8606667 464.144,68.478 C464.144,68.2353333 464.106667,68.0136667 464.032,67.813 C463.957333,67.6123333 463.864,67.4466667 463.752,67.316 L463.752,67.316 L465.012,67.316 L465.012,66.126 L462.548,66.126 C462.408,66.0793333 462.251667,66.0396667 462.079,66.007 C461.906333,65.9743333 461.726667,65.958 461.54,65.958 C461.176,65.958 460.830667,66.0116667 460.504,66.119 C460.177333,66.2263333 459.890333,66.385 459.643,66.595 C459.395667,66.805 459.197333,67.064 459.048,67.372 C458.898667,67.68 458.824,68.03 458.824,68.422 C458.824,68.8326667 458.915,69.1943333 459.097,69.507 C459.279,69.8196667 459.486667,70.0646667 459.72,70.242 L459.72,70.242 L459.72,70.298 C459.524,70.438 459.349,70.6176667 459.195,70.837 C459.041,71.0563333 458.964,71.3013333 458.964,71.572 C458.964,71.852 459.022333,72.0853333 459.139,72.272 C459.255667,72.4586667 459.402667,72.608 459.58,72.72 L459.58,72.72 L459.58,72.776 C459.262667,72.972 459.02,73.1936667 458.852,73.441 C458.684,73.6883333 458.6,73.9566667 458.6,74.246 C458.6,74.5446667 458.672333,74.806 458.817,75.03 C458.961667,75.254 459.16,75.4406667 459.412,75.59 C459.664,75.7393333 459.965,75.8513333 460.315,75.926 C460.665,76.0006667 461.045333,76.038 461.456,76.038 Z M461.54,69.808 C461.204,69.808 460.919333,69.689 460.686,69.451 C460.452667,69.213 460.336,68.87 460.336,68.422 C460.336,67.9833333 460.452667,67.6473333 460.686,67.414 C460.919333,67.1806667 461.204,67.064 461.54,67.064 C461.876,67.064 462.158333,67.183 462.387,67.421 C462.615667,67.659 462.73,67.9926667 462.73,68.422 C462.73,68.87 462.613333,69.213 462.38,69.451 C462.146667,69.689 461.866667,69.808 461.54,69.808 Z M461.708,74.988 C461.157333,74.988 460.725667,74.9016667 460.413,74.729 C460.100333,74.5563333 459.944,74.316 459.944,74.008 C459.944,73.672 460.121333,73.3686667 460.476,73.098 C460.728,73.1633333 461.040667,73.196 461.414,73.196 L461.414,73.196 L462.352,73.196 C462.744,73.196 463.045,73.2426667 463.255,73.336 C463.465,73.4293333 463.57,73.6113333 463.57,73.882 C463.57,74.1806667 463.399667,74.4396667 463.059,74.659 C462.718333,74.8783333 462.268,74.988 461.708,74.988 Z M467.756,73.168 C468.166667,73.168 468.547,73.0793333 468.897,72.902 C469.247,72.7246667 469.576,72.5053333 469.884,72.244 L469.884,72.244 L469.94,72.244 L470.052,73 L471.382,73 L471.382,68.926 C471.382,67.9646667 471.169667,67.2296667 470.745,66.721 C470.320333,66.2123333 469.678667,65.958 468.82,65.958 C468.269333,65.958 467.756,66.0466667 467.28,66.224 C466.804,66.4013333 466.374667,66.6113333 465.992,66.854 L465.992,66.854 L466.58,67.932 C466.888,67.7453333 467.203,67.5866667 467.525,67.456 C467.847,67.3253333 468.176,67.26 468.512,67.26 C468.745333,67.26 468.941333,67.295 469.1,67.365 C469.258667,67.435 469.387,67.533 469.485,67.659 C469.583,67.785 469.653,67.9296667 469.695,68.093 C469.737,68.2563333 469.762667,68.4266667 469.772,68.604 C469.062667,68.6786667 468.453667,68.786 467.945,68.926 C467.436333,69.066 467.016333,69.2386667 466.685,69.444 C466.353667,69.6493333 466.111,69.8943333 465.957,70.179 C465.803,70.4636667 465.726,70.788 465.726,71.152 C465.726,71.7586667 465.912667,72.2463333 466.286,72.615 C466.659333,72.9836667 467.149333,73.168 467.756,73.168 Z M468.274,71.908 C467.984667,71.908 467.746667,71.838 467.56,71.698 C467.373333,71.558 467.28,71.334 467.28,71.026 C467.28,70.858 467.322,70.6993333 467.406,70.55 C467.49,70.4006667 467.63,70.2676667 467.826,70.151 C468.022,70.0343333 468.278667,69.9293333 468.596,69.836 C468.913333,69.7426667 469.305333,69.668 469.772,69.612 L469.772,69.612 L469.772,71.152 C469.510667,71.3946667 469.265667,71.5813333 469.037,71.712 C468.808333,71.8426667 468.554,71.908 468.274,71.908 Z M475.512,73.168 C475.782667,73.168 476.037,73.1423333 476.275,73.091 C476.513,73.0396667 476.725333,72.9813333 476.912,72.916 L476.912,72.916 L476.632,71.726 C476.529333,71.7726667 476.415,71.81 476.289,71.838 C476.163,71.866 476.039333,71.88 475.918,71.88 C475.274,71.88 474.952,71.4786667 474.952,70.676 L474.952,70.676 L474.952,67.4 L476.702,67.4 L476.702,66.126 L474.952,66.126 L474.952,64.25 L473.608,64.25 L473.412,66.126 L472.348,66.196 L472.348,67.4 L473.328,67.4 L473.328,70.676 C473.328,71.0493333 473.367667,71.3876667 473.447,71.691 C473.526333,71.9943333 473.652333,72.2556667 473.825,72.475 C473.997667,72.6943333 474.221667,72.8646667 474.497,72.986 C474.772333,73.1073333 475.110667,73.168 475.512,73.168 Z M480.86,73.168 C481.298667,73.168 481.718667,73.098 482.12,72.958 C482.521333,72.818 482.885333,72.6406667 483.212,72.426 L483.212,72.426 L482.666,71.418 C482.414,71.5766667 482.159667,71.7003333 481.903,71.789 C481.646333,71.8776667 481.368667,71.922 481.07,71.922 C480.51,71.922 480.050333,71.7563333 479.691,71.425 C479.331667,71.0936667 479.114667,70.62 479.04,70.004 L479.04,70.004 L483.408,70.004 C483.426667,69.92 483.443,69.808 483.457,69.668 C483.471,69.528 483.478,69.3786667 483.478,69.22 C483.478,68.744 483.417333,68.3053333 483.296,67.904 C483.174667,67.5026667 482.995,67.1573333 482.757,66.868 C482.519,66.5786667 482.222667,66.3546667 481.868,66.196 C481.513333,66.0373333 481.102667,65.958 480.636,65.958 C480.234667,65.958 479.842667,66.042 479.46,66.21 C479.077333,66.378 478.739,66.616 478.445,66.924 C478.151,67.232 477.915333,67.61 477.738,68.058 C477.560667,68.506 477.472,69.01 477.472,69.57 C477.472,70.1393333 477.558333,70.6456667 477.731,71.089 C477.903667,71.5323333 478.144,71.908 478.452,72.216 C478.76,72.524 479.119333,72.7596667 479.53,72.923 C479.940667,73.0863333 480.384,73.168 480.86,73.168 Z M482.078,68.912 L479.026,68.912 C479.100667,68.352 479.292,67.9273333 479.6,67.638 C479.908,67.3486667 480.267333,67.204 480.678,67.204 C481.154,67.204 481.506333,67.3556667 481.735,67.659 C481.963667,67.9623333 482.078,68.38 482.078,68.912 L482.078,68.912 Z M487.426,73.168 C487.799333,73.168 488.154,73.0793333 488.49,72.902 C488.826,72.7246667 489.12,72.51 489.372,72.258 L489.372,72.258 L489.428,72.258 L489.54,73 L490.87,73 L490.87,63.116 L489.26,63.116 L489.26,65.608 L489.316,66.714 C489.045333,66.4806667 488.774667,66.2963333 488.504,66.161 C488.233333,66.0256667 487.902,65.958 487.51,65.958 C487.136667,65.958 486.775,66.042 486.425,66.21 C486.075,66.378 485.764667,66.616 485.494,66.924 C485.223333,67.232 485.006333,67.61 484.843,68.058 C484.679667,68.506 484.598,69.01 484.598,69.57 C484.598,70.7086667 484.852333,71.593 485.361,72.223 C485.869667,72.853 486.558,73.168 487.426,73.168 Z M487.818,71.838 C487.314,71.838 486.929,71.6443333 486.663,71.257 C486.397,70.8696667 486.264,70.3026667 486.264,69.556 C486.264,68.828 486.418,68.268 486.726,67.876 C487.034,67.484 487.412,67.288 487.86,67.288 C488.093333,67.288 488.324333,67.33 488.553,67.414 C488.781667,67.498 489.017333,67.6473333 489.26,67.862 L489.26,67.862 L489.26,71.068 C488.812,71.5813333 488.331333,71.838 487.818,71.838 Z M421.948,92.54 L421.948,91.126 C422.62,91.0326667 423.149667,90.7713333 423.537,90.342 C423.924333,89.9126667 424.118,89.362 424.118,88.69 C424.118,88.186 424.022333,87.773 423.831,87.451 C423.639667,87.129 423.399333,86.8583333 423.11,86.639 C422.820667,86.4196667 422.505667,86.233 422.165,86.079 C421.824333,85.925 421.509333,85.7663333 421.22,85.603 C420.930667,85.4396667 420.690333,85.2506667 420.499,85.036 C420.307667,84.8213333 420.212,84.546 420.212,84.21 C420.212,83.7993333 420.338,83.4726667 420.59,83.23 C420.842,82.9873333 421.182667,82.866 421.612,82.866 C421.994667,82.866 422.309667,82.936 422.557,83.076 C422.804333,83.216 423.058667,83.412 423.32,83.664 L423.32,83.664 L423.936,82.978 C423.684,82.7073333 423.401667,82.474 423.089,82.278 C422.776333,82.082 422.396,81.9606667 421.948,81.914 L421.948,81.914 L421.948,80.528 L421.108,80.528 L421.108,81.942 C420.492,82.0353333 419.999667,82.2896667 419.631,82.705 C419.262333,83.1203333 419.078,83.6406667 419.078,84.266 C419.078,84.7233333 419.173667,85.099 419.365,85.393 C419.556333,85.687 419.796667,85.9366667 420.086,86.142 C420.375333,86.3473333 420.690333,86.5293333 421.031,86.688 C421.371667,86.8466667 421.686667,87.017 421.976,87.199 C422.265333,87.381 422.505667,87.5956667 422.697,87.843 C422.888333,88.0903333 422.984,88.4006667 422.984,88.774 C422.984,89.2126667 422.855667,89.5626667 422.599,89.824 C422.342333,90.0853333 421.952667,90.216 421.43,90.216 C421.000667,90.216 420.606333,90.125 420.247,89.943 C419.887667,89.761 419.558667,89.5393333 419.26,89.278 L419.26,89.278 L418.728,90.076 C419.026667,90.3466667 419.386,90.5823333 419.806,90.783 C420.226,90.9836667 420.66,91.1073333 421.108,91.154 L421.108,91.154 L421.108,92.54 L421.948,92.54 Z M428.71,91.168 C429.074,91.168 429.414667,91.098 429.732,90.958 C430.049333,90.818 430.329333,90.622 430.572,90.37 C430.814667,90.118 431.006,89.817 431.146,89.467 C431.286,89.117 431.356,88.7273333 431.356,88.298 C431.356,87.374 431.125,86.6833333 430.663,86.226 C430.201,85.7686667 429.582667,85.54 428.808,85.54 C428.444,85.54 428.075333,85.6403333 427.702,85.841 C427.328667,86.0416667 427.002,86.3146667 426.722,86.66 C426.731333,85.9506667 426.801333,85.3556667 426.932,84.875 C427.062667,84.3943333 427.235333,84.0046667 427.45,83.706 C427.664667,83.4073333 427.912,83.1926667 428.192,83.062 C428.472,82.9313333 428.766,82.866 429.074,82.866 C429.354,82.866 429.622333,82.929 429.879,83.055 C430.135667,83.181 430.357333,83.3513333 430.544,83.566 L430.544,83.566 L431.188,82.852 C430.936,82.5813333 430.635,82.355 430.285,82.173 C429.935,81.991 429.517333,81.9 429.032,81.9 C428.584,81.9 428.157,81.991 427.751,82.173 C427.345,82.355 426.983333,82.6443333 426.666,83.041 C426.348667,83.4376667 426.096667,83.951 425.91,84.581 C425.723333,85.211 425.63,85.974 425.63,86.87 C425.63,87.5886667 425.709333,88.2163333 425.868,88.753 C426.026667,89.2896667 426.243667,89.7376667 426.519,90.097 C426.794333,90.4563333 427.118667,90.7246667 427.492,90.902 C427.865333,91.0793333 428.271333,91.168 428.71,91.168 Z M428.71,90.258 C428.140667,90.258 427.690333,90.0316667 427.359,89.579 C427.027667,89.1263333 426.824667,88.4613333 426.75,87.584 C427.03,87.164 427.338,86.863 427.674,86.681 C428.01,86.499 428.322667,86.408 428.612,86.408 C429.172,86.408 429.587333,86.576 429.858,86.912 C430.128667,87.248 430.264,87.71 430.264,88.298 C430.264,88.5966667 430.224333,88.865 430.145,89.103 C430.065667,89.341 429.956,89.5463333 429.816,89.719 C429.676,89.8916667 429.512667,90.0246667 429.326,90.118 C429.139333,90.2113333 428.934,90.258 428.71,90.258 Z M434.786,91.168 C435.234,91.168 435.661,91.077 436.067,90.895 C436.473,90.713 436.834667,90.4236667 437.152,90.027 C437.469333,89.6303333 437.721333,89.117 437.908,88.487 C438.094667,87.857 438.188,87.094 438.188,86.198 C438.188,85.4793333 438.111,84.8516667 437.957,84.315 C437.803,83.7783333 437.588333,83.3303333 437.313,82.971 C437.037667,82.6116667 436.711,82.3433333 436.333,82.166 C435.955,81.9886667 435.546667,81.9 435.108,81.9 C434.753333,81.9 434.415,81.97 434.093,82.11 C433.771,82.25 433.491,82.446 433.253,82.698 C433.015,82.95 432.826,83.251 432.686,83.601 C432.546,83.951 432.476,84.3406667 432.476,84.77 C432.476,85.694 432.704667,86.3846667 433.162,86.842 C433.619333,87.2993333 434.235333,87.528 435.01,87.528 C435.383333,87.528 435.756667,87.4253333 436.13,87.22 C436.503333,87.0146667 436.83,86.7346667 437.11,86.38 C437.100667,87.0986667 437.030667,87.7006667 436.9,88.186 C436.769333,88.6713333 436.596667,89.0656667 436.382,89.369 C436.167333,89.6723333 435.92,89.8893333 435.64,90.02 C435.36,90.1506667 435.061333,90.216 434.744,90.216 C434.464,90.216 434.195667,90.1506667 433.939,90.02 C433.682333,89.8893333 433.460667,89.7166667 433.274,89.502 L433.274,89.502 L432.63,90.23 C432.872667,90.5006667 433.173667,90.7246667 433.533,90.902 C433.892333,91.0793333 434.31,91.168 434.786,91.168 Z M435.206,86.66 C434.646,86.66 434.230667,86.492 433.96,86.156 C433.689333,85.82 433.554,85.358 433.554,84.77 C433.554,84.4806667 433.593667,84.2146667 433.673,83.972 C433.752333,83.7293333 433.862,83.5216667 434.002,83.349 C434.142,83.1763333 434.307667,83.0433333 434.499,82.95 C434.690333,82.8566667 434.893333,82.81 435.108,82.81 C435.677333,82.81 436.13,83.034 436.466,83.482 C436.802,83.93 437.007333,84.5926667 437.082,85.47 C436.792667,85.89 436.482333,86.1933333 436.151,86.38 C435.819667,86.5666667 435.504667,86.66 435.206,86.66 Z M445.02,91 L445.02,90.048 L443.172,90.048 L443.172,82.068 L442.29,82.068 C442.047333,82.2173333 441.774333,82.3456667 441.471,82.453 C441.167667,82.5603333 440.810667,82.6513333 440.4,82.726 L440.4,82.726 L440.4,83.468 L442.024,83.468 L442.024,90.048 L439.98,90.048 L439.98,91 L445.02,91 Z M450.018,91 C450.531333,91 451.002667,90.944 451.432,90.832 C451.861333,90.72 452.23,90.552 452.538,90.328 C452.846,90.104 453.084,89.824 453.252,89.488 C453.42,89.152 453.504,88.76 453.504,88.312 C453.504,87.6773333 453.331333,87.178 452.986,86.814 C452.640667,86.45 452.188,86.2166667 451.628,86.114 L451.628,86.114 L451.628,86.058 C452.066667,85.918 452.400333,85.6636667 452.629,85.295 C452.857667,84.9263333 452.972,84.5133333 452.972,84.056 C452.972,83.6546667 452.895,83.3116667 452.741,83.027 C452.587,82.7423333 452.372333,82.5113333 452.097,82.334 C451.821667,82.1566667 451.490333,82.026 451.103,81.942 C450.715667,81.858 450.288667,81.816 449.822,81.816 L449.822,81.816 L447.092,81.816 L447.092,91 L450.018,91 Z M449.612,85.722 L448.254,85.722 L448.254,82.74 L449.668,82.74 C450.386667,82.74 450.925667,82.852 451.285,83.076 C451.644333,83.3 451.824,83.678 451.824,84.21 C451.824,84.6766667 451.651333,85.0453333 451.306,85.316 C450.960667,85.5866667 450.396,85.722 449.612,85.722 L449.612,85.722 Z M449.85,90.076 L448.254,90.076 L448.254,86.618 L449.85,86.618 C450.662,86.618 451.282667,86.751 451.712,87.017 C452.141333,87.283 452.356,87.7006667 452.356,88.27 C452.356,88.886 452.136667,89.341 451.698,89.635 C451.259333,89.929 450.643333,90.076 449.85,90.076 L449.85,90.076 Z" id="Unobligated$691B" fill="#666666" fill-rule="nonzero"></path>
                <line x1="454.5" y1="40" x2="454.5" y2="55" id="Line-Copy-2" stroke="#C6C6C6"></line>
                <line x1="10.5" y1="41" x2="10.5" y2="56" id="Line" stroke="#C6C6C6"></line>
                <line x1="294.5" y1="39" x2="294.5" y2="54" id="Line-Copy-4" stroke="#C6C6C6"></line>
                <path d="M518.992,27.76 L518.992,26.096 C519.824,25.9146667 520.448,25.5493333 520.864,25 C521.28,24.4506667 521.488,23.792 521.488,23.024 C521.488,22.512 521.384,22.0826667 521.176,21.736 C520.968,21.3893333 520.706667,21.0933333 520.392,20.848 C520.077333,20.6026667 519.738667,20.3946667 519.376,20.224 C519.013333,20.0533333 518.674667,19.888 518.36,19.728 C518.045333,19.568 517.784,19.4 517.576,19.224 C517.368,19.048 517.264,18.832 517.264,18.576 C517.264,18.2133333 517.365333,17.952 517.568,17.792 C517.770667,17.632 518.064,17.552 518.448,17.552 C518.789333,17.552 519.093333,17.6186667 519.36,17.752 C519.626667,17.8853333 519.904,18.0853333 520.192,18.352 L520.192,18.352 L521.376,17.008 C521.066667,16.6773333 520.72,16.3946667 520.336,16.16 C519.952,15.9253333 519.504,15.7706667 518.992,15.696 L518.992,15.696 L518.992,14.08 L517.44,14.08 L517.44,15.728 C516.682667,15.8773333 516.088,16.2106667 515.656,16.728 C515.224,17.2453333 515.008,17.8986667 515.008,18.688 C515.008,19.168 515.112,19.5733333 515.32,19.904 C515.528,20.2346667 515.789333,20.5226667 516.104,20.768 C516.418667,21.0133333 516.757333,21.224 517.12,21.4 C517.482667,21.576 517.821333,21.752 518.136,21.928 C518.450667,22.104 518.712,22.288 518.92,22.48 C519.128,22.672 519.232,22.9066667 519.232,23.184 C519.232,23.5573333 519.128,23.8346667 518.92,24.016 C518.712,24.1973333 518.384,24.288 517.936,24.288 C517.552,24.288 517.176,24.2106667 516.808,24.056 C516.44,23.9013333 516.053333,23.6693333 515.648,23.36 L515.648,23.36 L514.624,24.944 C514.997333,25.2853333 515.442667,25.56 515.96,25.768 C516.477333,25.976 516.970667,26.1066667 517.44,26.16 L517.44,26.16 L517.44,27.76 L518.992,27.76 Z M530.192,26 L530.192,24.016 L528.144,24.016 C527.898667,24.016 527.618667,24.0293333 527.304,24.056 C526.989333,24.0826667 526.704,24.112 526.448,24.144 C526.864,23.7173333 527.266667,23.2826667 527.656,22.84 C528.045333,22.3973333 528.392,21.9546667 528.696,21.512 C529,21.0693333 529.242667,20.6266667 529.424,20.184 C529.605333,19.7413333 529.696,19.3066667 529.696,18.88 C529.696,18.3893333 529.616,17.9466667 529.456,17.552 C529.296,17.1573333 529.066667,16.8186667 528.768,16.536 C528.469333,16.2533333 528.114667,16.0346667 527.704,15.88 C527.293333,15.7253333 526.837333,15.648 526.336,15.648 C525.610667,15.648 524.986667,15.784 524.464,16.056 C523.941333,16.328 523.429333,16.7306667 522.928,17.264 L522.928,17.264 L524.208,18.528 C524.464,18.2506667 524.736,18.008 525.024,17.8 C525.312,17.592 525.642667,17.488 526.016,17.488 C526.464,17.488 526.816,17.6186667 527.072,17.88 C527.328,18.1413333 527.456,18.5226667 527.456,19.024 C527.456,19.3866667 527.346667,19.768 527.128,20.168 C526.909333,20.568 526.605333,21 526.216,21.464 C525.826667,21.928 525.362667,22.424 524.824,22.952 C524.285333,23.48 523.690667,24.048 523.04,24.656 L523.04,24.656 L523.04,26 L530.192,26 Z M533.296,26.192 C533.701333,26.192 534.04,26.0506667 534.312,25.768 C534.584,25.4853333 534.72,25.136 534.72,24.72 C534.72,24.2933333 534.584,23.9386667 534.312,23.656 C534.04,23.3733333 533.701333,23.232 533.296,23.232 C532.890667,23.232 532.552,23.3733333 532.28,23.656 C532.008,23.9386667 531.872,24.2933333 531.872,24.72 C531.872,25.136 532.008,25.4853333 532.28,25.768 C532.552,26.0506667 532.890667,26.192 533.296,26.192 Z M539.92,26.192 C540.464,26.192 540.96,26.0773333 541.408,25.848 C541.856,25.6186667 542.237333,25.28 542.552,24.832 C542.866667,24.384 543.112,23.8293333 543.288,23.168 C543.464,22.5066667 543.552,21.744 543.552,20.88 C543.552,20.016 543.464,19.2586667 543.288,18.608 C543.112,17.9573333 542.866667,17.4106667 542.552,16.968 C542.237333,16.5253333 541.856,16.1946667 541.408,15.976 C540.96,15.7573333 540.464,15.648 539.92,15.648 C539.376,15.648 538.88,15.7573333 538.432,15.976 C537.984,16.1946667 537.602667,16.5253333 537.288,16.968 C536.973333,17.4106667 536.728,17.9573333 536.552,18.608 C536.376,19.2586667 536.288,20.016 536.288,20.88 C536.288,21.744 536.376,22.5066667 536.552,23.168 C536.728,23.8293333 536.973333,24.384 537.288,24.832 C537.602667,25.28 537.984,25.6186667 538.432,25.848 C538.88,26.0773333 539.376,26.192 539.92,26.192 Z M539.92,24.368 C539.728,24.368 539.546667,24.3173333 539.376,24.216 C539.205333,24.1146667 539.056,23.9306667 538.928,23.664 C538.8,23.3973333 538.698667,23.04 538.624,22.592 C538.549333,22.144 538.512,21.5733333 538.512,20.88 C538.512,20.1866667 538.549333,19.6186667 538.624,19.176 C538.698667,18.7333333 538.8,18.3866667 538.928,18.136 C539.056,17.8853333 539.205333,17.712 539.376,17.616 C539.546667,17.52 539.728,17.472 539.92,17.472 C540.122667,17.472 540.309333,17.52 540.48,17.616 C540.650667,17.712 540.8,17.8853333 540.928,18.136 C541.056,18.3866667 541.154667,18.7333333 541.224,19.176 C541.293333,19.6186667 541.328,20.1866667 541.328,20.88 C541.328,21.5733333 541.293333,22.144 541.224,22.592 C541.154667,23.04 541.056,23.3973333 540.928,23.664 C540.8,23.9306667 540.650667,24.1146667 540.48,24.216 C540.309333,24.3173333 540.122667,24.368 539.92,24.368 Z M548.352,26.192 C548.896,26.192 549.389333,26.12 549.832,25.976 C550.274667,25.832 550.653333,25.6346667 550.968,25.384 C551.282667,25.1333333 551.525333,24.8373333 551.696,24.496 C551.866667,24.1546667 551.952,23.7813333 551.952,23.376 C551.952,22.704 551.781333,22.16 551.44,21.744 C551.098667,21.328 550.682667,20.9866667 550.192,20.72 L550.192,20.72 L550.192,20.656 C550.544,20.4213333 550.853333,20.1146667 551.12,19.736 C551.386667,19.3573333 551.52,18.9226667 551.52,18.432 C551.52,18.016 551.445333,17.6346667 551.296,17.288 C551.146667,16.9413333 550.938667,16.648 550.672,16.408 C550.405333,16.168 550.08,15.9813333 549.696,15.848 C549.312,15.7146667 548.890667,15.648 548.432,15.648 C547.962667,15.648 547.528,15.712 547.128,15.84 C546.728,15.968 546.384,16.1546667 546.096,16.4 C545.808,16.6453333 545.584,16.9413333 545.424,17.288 C545.264,17.6346667 545.184,18.0213333 545.184,18.448 C545.184,18.992 545.312,19.4533333 545.568,19.832 C545.824,20.2106667 546.149333,20.5493333 546.544,20.848 L546.544,20.848 L546.544,20.912 C546.064,21.168 545.656,21.4933333 545.32,21.888 C544.984,22.2826667 544.816,22.7893333 544.816,23.408 C544.816,23.824 544.904,24.2026667 545.08,24.544 C545.256,24.8853333 545.501333,25.1786667 545.816,25.424 C546.130667,25.6693333 546.504,25.8586667 546.936,25.992 C547.368,26.1253333 547.84,26.192 548.352,26.192 Z M548.992,20.08 C548.469333,19.8773333 548.048,19.6586667 547.728,19.424 C547.408,19.1893333 547.248,18.864 547.248,18.448 C547.248,18.0533333 547.36,17.76 547.584,17.568 C547.808,17.376 548.074667,17.28 548.384,17.28 C548.768,17.28 549.069333,17.4 549.288,17.64 C549.506667,17.88 549.616,18.1973333 549.616,18.592 C549.616,19.104 549.408,19.6 548.992,20.08 Z M548.4,24.56 C547.973333,24.56 547.605333,24.4346667 547.296,24.184 C546.986667,23.9333333 546.832,23.584 546.832,23.136 C546.832,22.8266667 546.906667,22.5333333 547.056,22.256 C547.205333,21.9786667 547.392,21.7333333 547.616,21.52 C547.936,21.6586667 548.226667,21.7866667 548.488,21.904 C548.749333,22.0213333 548.976,22.1466667 549.168,22.28 C549.36,22.4133333 549.506667,22.56 549.608,22.72 C549.709333,22.88 549.76,23.072 549.76,23.296 C549.76,23.7226667 549.632,24.04 549.376,24.248 C549.12,24.456 548.794667,24.56 548.4,24.56 Z M558.224,26 L558.224,17.552 L561.088,17.552 L561.088,15.568 L552.992,15.568 L552.992,17.552 L555.856,17.552 L555.856,26 L558.224,26 Z" id="$2.08T" fill="#555555" fill-rule="nonzero"></path>
                <g id="Group-5" transform="translate(0.000000, 0.000000)">
                    <rect id="outlays" fill="#331E4D" x="0" y="0" width="188" height="40"></rect>
                    <rect id="unobligated" fill="#F3E9FF" x="397" y="0" width="103" height="40"></rect>
                    <rect id="obligated" fill="#6F41A7" x="188" y="0" width="209" height="40"></rect>
                </g>
                <line x1="454.5" y1="40" x2="454.5" y2="55" id="Line-Copy-2" stroke="#C6C6C6"></line>
            </g>
        </g>
    </g>
</svg>