<?xml version="1.0" encoding="UTF-8"?>
<svg width="129px" height="84px" viewBox="0 0 129 84" version="1.1" xmlns="http://www.w3.org/2000/svg" xmlns:xlink="http://www.w3.org/1999/xlink">
    <title>Law 1 B-Loan Tablet</title>
    <g id="SVG-2.0" stroke="none" stroke-width="1" fill="none" fill-rule="evenodd">
        <g id="viz-3-tablet-outline" transform="translate(-62.000000, -593.000000)">
            <g id="Law-1-B-Loan-Tablet" transform="translate(62.000000, 593.000000)">
                <path d="M4.718,64.168 C5.31533333,64.168 5.86133333,64.0583333 6.356,63.839 C6.85066667,63.6196667 7.27766667,63.3023333 7.637,62.887 C7.99633333,62.4716667 8.274,61.97 8.47,61.382 C8.666,60.794 8.764,60.1266667 8.764,59.38 C8.764,58.6426667 8.666,57.9823333 8.47,57.399 C8.274,56.8156667 7.99633333,56.3233333 7.637,55.922 C7.27766667,55.5206667 6.85066667,55.2126667 6.356,54.998 C5.86133333,54.7833333 5.31533333,54.676 4.718,54.676 C4.12066667,54.676 3.57466667,54.7833333 3.08,54.998 C2.58533333,55.2126667 2.16066667,55.5206667 1.806,55.922 C1.45133333,56.3233333 1.176,56.8156667 0.98,57.399 C0.784,57.9823333 0.686,58.6426667 0.686,59.38 C0.686,60.1266667 0.784,60.794 0.98,61.382 C1.176,61.97 1.45133333,62.4716667 1.806,62.887 C2.16066667,63.3023333 2.58533333,63.6196667 3.08,63.839 C3.57466667,64.0583333 4.12066667,64.168 4.718,64.168 Z M4.718,62.754 C4.354,62.754 4.02733333,62.6746667 3.738,62.516 C3.44866667,62.3573333 3.20133333,62.131 2.996,61.837 C2.79066667,61.543 2.632,61.1883333 2.52,60.773 C2.408,60.3576667 2.352,59.8933333 2.352,59.38 C2.352,58.3533333 2.56433333,57.5483333 2.989,56.965 C3.41366667,56.3816667 3.99,56.09 4.718,56.09 C5.446,56.09 6.02233333,56.3816667 6.447,56.965 C6.87166667,57.5483333 7.084,58.3533333 7.084,59.38 C7.084,59.8933333 7.028,60.3576667 6.916,60.773 C6.804,61.1883333 6.64533333,61.543 6.44,61.837 C6.23466667,62.131 5.98733333,62.3573333 5.698,62.516 C5.40866667,62.6746667 5.082,62.754 4.718,62.754 Z M12.502,64.168 C12.978,64.168 13.391,64.0606667 13.741,63.846 C14.091,63.6313333 14.4153333,63.3466667 14.714,62.992 L14.714,62.992 L14.756,62.992 L14.882,64 L16.198,64 L16.198,57.126 L14.588,57.126 L14.588,61.83 C14.3266667,62.166 14.0816667,62.4086667 13.853,62.558 C13.6243333,62.7073333 13.3606667,62.782 13.062,62.782 C12.6886667,62.782 12.418,62.6653333 12.25,62.432 C12.082,62.1986667 11.998,61.7973333 11.998,61.228 L11.998,61.228 L11.998,57.126 L10.388,57.126 L10.388,61.438 C10.388,62.3153333 10.556,62.9896667 10.892,63.461 C11.228,63.9323333 11.7646667,64.168 12.502,64.168 Z M20.664,64.168 C20.9346667,64.168 21.189,64.1423333 21.427,64.091 C21.665,64.0396667 21.8773333,63.9813333 22.064,63.916 L22.064,63.916 L21.784,62.726 C21.6813333,62.7726667 21.567,62.81 21.441,62.838 C21.315,62.866 21.1913333,62.88 21.07,62.88 C20.426,62.88 20.104,62.4786667 20.104,61.676 L20.104,61.676 L20.104,58.4 L21.854,58.4 L21.854,57.126 L20.104,57.126 L20.104,55.25 L18.76,55.25 L18.564,57.126 L17.5,57.196 L17.5,58.4 L18.48,58.4 L18.48,61.676 C18.48,62.0493333 18.5196667,62.3876667 18.599,62.691 C18.6783333,62.9943333 18.8043333,63.2556667 18.977,63.475 C19.1496667,63.6943333 19.3736667,63.8646667 19.649,63.986 C19.9243333,64.1073333 20.2626667,64.168 20.664,64.168 Z M24.864,64.168 C25.2186667,64.168 25.5033333,64.1213333 25.718,64.028 L25.718,64.028 L25.508,62.824 C25.4426667,62.8426667 25.3936667,62.852 25.361,62.852 L25.361,62.852 L25.256,62.852 C25.172,62.852 25.0926667,62.8123333 25.018,62.733 C24.9433333,62.6536667 24.906,62.516 24.906,62.32 L24.906,62.32 L24.906,54.116 L23.296,54.116 L23.296,62.236 C23.296,62.8333333 23.4126667,63.3046667 23.646,63.65 C23.8793333,63.9953333 24.2853333,64.168 24.864,64.168 Z M28.756,64.168 C29.1666667,64.168 29.547,64.0793333 29.897,63.902 C30.247,63.7246667 30.576,63.5053333 30.884,63.244 L30.884,63.244 L30.94,63.244 L31.052,64 L32.382,64 L32.382,59.926 C32.382,58.9646667 32.1696667,58.2296667 31.745,57.721 C31.3203333,57.2123333 30.6786667,56.958 29.82,56.958 C29.2693333,56.958 28.756,57.0466667 28.28,57.224 C27.804,57.4013333 27.3746667,57.6113333 26.992,57.854 L26.992,57.854 L27.58,58.932 C27.888,58.7453333 28.203,58.5866667 28.525,58.456 C28.847,58.3253333 29.176,58.26 29.512,58.26 C29.7453333,58.26 29.9413333,58.295 30.1,58.365 C30.2586667,58.435 30.387,58.533 30.485,58.659 C30.583,58.785 30.653,58.9296667 30.695,59.093 C30.737,59.2563333 30.7626667,59.4266667 30.772,59.604 C30.0626667,59.6786667 29.4536667,59.786 28.945,59.926 C28.4363333,60.066 28.0163333,60.2386667 27.685,60.444 C27.3536667,60.6493333 27.111,60.8943333 26.957,61.179 C26.803,61.4636667 26.726,61.788 26.726,62.152 C26.726,62.7586667 26.9126667,63.2463333 27.286,63.615 C27.6593333,63.9836667 28.1493333,64.168 28.756,64.168 Z M29.274,62.908 C28.9846667,62.908 28.7466667,62.838 28.56,62.698 C28.3733333,62.558 28.28,62.334 28.28,62.026 C28.28,61.858 28.322,61.6993333 28.406,61.55 C28.49,61.4006667 28.63,61.2676667 28.826,61.151 C29.022,61.0343333 29.2786667,60.9293333 29.596,60.836 C29.9133333,60.7426667 30.3053333,60.668 30.772,60.612 L30.772,60.612 L30.772,62.152 C30.5106667,62.3946667 30.2656667,62.5813333 30.037,62.712 C29.8083333,62.8426667 29.554,62.908 29.274,62.908 Z M34.776,66.828 C35.1493333,66.828 35.4783333,66.7696667 35.763,66.653 C36.0476667,66.5363333 36.2996667,66.3683333 36.519,66.149 C36.7383333,65.9296667 36.932,65.666 37.1,65.358 C37.268,65.05 37.422,64.7 37.562,64.308 L37.562,64.308 L40.054,57.126 L38.5,57.126 L37.464,60.5 C37.38,60.808 37.2936667,61.1276667 37.205,61.459 C37.1163333,61.7903333 37.03,62.1146667 36.946,62.432 L36.946,62.432 L36.89,62.432 C36.7873333,62.1053333 36.687,61.7763333 36.589,61.445 C36.491,61.1136667 36.3906667,60.7986667 36.288,60.5 L36.288,60.5 L35.098,57.126 L33.46,57.126 L36.162,63.916 L36.036,64.35 C35.924,64.6953333 35.7583333,64.9776667 35.539,65.197 C35.3196667,65.4163333 35.028,65.526 34.664,65.526 C34.58,65.526 34.4936667,65.5143333 34.405,65.491 C34.3163333,65.4676667 34.2393333,65.4466667 34.174,65.428 L34.174,65.428 L33.88,66.688 C34.0106667,66.7346667 34.146,66.7696667 34.286,66.793 C34.426,66.8163333 34.5893333,66.828 34.776,66.828 Z M43.162,64.168 C43.5913333,64.168 43.974,64.112 44.31,64 C44.646,63.888 44.926,63.7363333 45.15,63.545 C45.374,63.3536667 45.5443333,63.1296667 45.661,62.873 C45.7776667,62.6163333 45.836,62.3386667 45.836,62.04 C45.836,61.7226667 45.7776667,61.4496667 45.661,61.221 C45.5443333,60.9923333 45.3903333,60.7986667 45.199,60.64 C45.0076667,60.4813333 44.7953333,60.3483333 44.562,60.241 C44.3286667,60.1336667 44.0953333,60.038 43.862,59.954 C43.6753333,59.8886667 43.4956667,59.8233333 43.323,59.758 C43.1503333,59.6926667 42.9986667,59.6226667 42.868,59.548 C42.7373333,59.4733333 42.6323333,59.387 42.553,59.289 C42.4736667,59.191 42.434,59.072 42.434,58.932 C42.434,58.7173333 42.5156667,58.5376667 42.679,58.393 C42.8423333,58.2483333 43.0966667,58.176 43.442,58.176 C43.7126667,58.176 43.9716667,58.2296667 44.219,58.337 C44.4663333,58.4443333 44.7113333,58.5866667 44.954,58.764 L44.954,58.764 L45.696,57.784 C45.416,57.5693333 45.0846667,57.378 44.702,57.21 C44.3193333,57.042 43.89,56.958 43.414,56.958 C42.6393333,56.958 42.028,57.1493333 41.58,57.532 C41.132,57.9146667 40.908,58.4093333 40.908,59.016 C40.908,59.3053333 40.9663333,59.555 41.083,59.765 C41.1996667,59.975 41.349,60.1593333 41.531,60.318 C41.713,60.4766667 41.9206667,60.612 42.154,60.724 C42.3873333,60.836 42.616,60.934 42.84,61.018 C43.0173333,61.0926667 43.1946667,61.165 43.372,61.235 C43.5493333,61.305 43.708,61.382 43.848,61.466 C43.988,61.55 44.1,61.6456667 44.184,61.753 C44.268,61.8603333 44.31,61.984 44.31,62.124 C44.31,62.3666667 44.2213333,62.565 44.044,62.719 C43.8666667,62.873 43.5913333,62.95 43.218,62.95 C42.8633333,62.95 42.5343333,62.8823333 42.231,62.747 C41.9276667,62.6116667 41.622,62.4226667 41.314,62.18 L41.314,62.18 L40.558,63.216 C40.894,63.4866667 41.293,63.713 41.755,63.895 C42.217,64.077 42.686,64.168 43.162,64.168 Z M3.948,83.54 L3.948,82.126 C4.62,82.0326667 5.14966667,81.7713333 5.537,81.342 C5.92433333,80.9126667 6.118,80.362 6.118,79.69 C6.118,79.186 6.02233333,78.773 5.831,78.451 C5.63966667,78.129 5.39933333,77.8583333 5.11,77.639 C4.82066667,77.4196667 4.50566667,77.233 4.165,77.079 C3.82433333,76.925 3.50933333,76.7663333 3.22,76.603 C2.93066667,76.4396667 2.69033333,76.2506667 2.499,76.036 C2.30766667,75.8213333 2.212,75.546 2.212,75.21 C2.212,74.7993333 2.338,74.4726667 2.59,74.23 C2.842,73.9873333 3.18266667,73.866 3.612,73.866 C3.99466667,73.866 4.30966667,73.936 4.557,74.076 C4.80433333,74.216 5.05866667,74.412 5.32,74.664 L5.32,74.664 L5.936,73.978 C5.684,73.7073333 5.40166667,73.474 5.089,73.278 C4.77633333,73.082 4.396,72.9606667 3.948,72.914 L3.948,72.914 L3.948,71.528 L3.108,71.528 L3.108,72.942 C2.492,73.0353333 1.99966667,73.2896667 1.631,73.705 C1.26233333,74.1203333 1.078,74.6406667 1.078,75.266 C1.078,75.7233333 1.17366667,76.099 1.365,76.393 C1.55633333,76.687 1.79666667,76.9366667 2.086,77.142 C2.37533333,77.3473333 2.69033333,77.5293333 3.031,77.688 C3.37166667,77.8466667 3.68666667,78.017 3.976,78.199 C4.26533333,78.381 4.50566667,78.5956667 4.697,78.843 C4.88833333,79.0903333 4.984,79.4006667 4.984,79.774 C4.984,80.2126667 4.85566667,80.5626667 4.599,80.824 C4.34233333,81.0853333 3.95266667,81.216 3.43,81.216 C3.00066667,81.216 2.60633333,81.125 2.247,80.943 C1.88766667,80.761 1.55866667,80.5393333 1.26,80.278 L1.26,80.278 L0.728,81.076 C1.02666667,81.3466667 1.386,81.5823333 1.806,81.783 C2.226,81.9836667 2.66,82.1073333 3.108,82.154 L3.108,82.154 L3.108,83.54 L3.948,83.54 Z M13.286,82 L13.286,81.006 L10.696,81.006 C10.4626667,81.006 10.2153333,81.0153333 9.954,81.034 C9.69266667,81.0526667 9.44066667,81.0713333 9.198,81.09 C9.73,80.5393333 10.2176667,80.019 10.661,79.529 C11.1043333,79.039 11.487,78.5676667 11.809,78.115 C12.131,77.6623333 12.383,77.2236667 12.565,76.799 C12.747,76.3743333 12.838,75.952 12.838,75.532 C12.838,74.7386667 12.6,74.1016667 12.124,73.621 C11.648,73.1403333 10.9946667,72.9 10.164,72.9 C9.576,72.9 9.072,73.0236667 8.652,73.271 C8.232,73.5183333 7.83533333,73.8473333 7.462,74.258 L7.462,74.258 L8.12,74.916 C8.38133333,74.6173333 8.67066667,74.363 8.988,74.153 C9.30533333,73.943 9.65066667,73.838 10.024,73.838 C10.5933333,73.838 11.018,74.0013333 11.298,74.328 C11.578,74.6546667 11.718,75.0746667 11.718,75.588 C11.718,75.952 11.6246667,76.3276667 11.438,76.715 C11.2513333,77.1023333 10.9806667,77.527 10.626,77.989 C10.2713333,78.451 9.83266667,78.9526667 9.31,79.494 C8.78733333,80.0353333 8.19,80.642 7.518,81.314 L7.518,81.314 L7.518,82 L13.286,82 Z M17.402,82.168 C18.298,82.168 18.998,81.7666667 19.502,80.964 C20.006,80.1613333 20.258,79.0086667 20.258,77.506 C20.258,76.0033333 20.006,74.86 19.502,74.076 C18.998,73.292 18.298,72.9 17.402,72.9 C16.4966667,72.9 15.792,73.292 15.288,74.076 C14.784,74.86 14.532,76.0033333 14.532,77.506 C14.532,79.0086667 14.784,80.1613333 15.288,80.964 C15.792,81.7666667 16.4966667,82.168 17.402,82.168 Z M17.402,81.244 C16.8793333,81.244 16.457,80.9476667 16.135,80.355 C15.813,79.7623333 15.652,78.8126667 15.652,77.506 C15.652,76.8526667 15.694,76.2926667 15.778,75.826 C15.862,75.3593333 15.981,74.979 16.135,74.685 C16.289,74.391 16.4733333,74.174 16.688,74.034 C16.9026667,73.894 17.1406667,73.824 17.402,73.824 C17.6633333,73.824 17.899,73.894 18.109,74.034 C18.319,74.174 18.501,74.391 18.655,74.685 C18.809,74.979 18.928,75.3593333 19.012,75.826 C19.096,76.2926667 19.138,76.8526667 19.138,77.506 C19.138,78.1593333 19.096,78.7216667 19.012,79.193 C18.928,79.6643333 18.809,80.0516667 18.655,80.355 C18.501,80.6583333 18.319,80.8823333 18.109,81.027 C17.899,81.1716667 17.6633333,81.244 17.402,81.244 Z M23.184,82 L23.184,76.946 C23.184,76.5353333 23.1676667,76.0826667 23.135,75.588 C23.1023333,75.0933333 23.072,74.6406667 23.044,74.23 L23.044,74.23 L23.1,74.23 L23.828,76.316 L25.564,81.076 L26.334,81.076 L28.07,76.316 L28.798,74.23 L28.854,74.23 C28.826,74.6406667 28.7933333,75.0933333 28.756,75.588 C28.7186667,76.0826667 28.7,76.5353333 28.7,76.946 L28.7,76.946 L28.7,82 L29.792,82 L29.792,72.816 L28.378,72.816 L26.642,77.716 C26.53,78.0333333 26.425,78.353 26.327,78.675 C26.229,78.997 26.124,79.3166667 26.012,79.634 L26.012,79.634 L25.956,79.634 C25.844,79.3166667 25.7343333,78.997 25.627,78.675 C25.5196667,78.353 25.41,78.0333333 25.298,77.716 L25.298,77.716 L23.534,72.816 L22.134,72.816 L22.134,82 L23.184,82 Z" id="Outlays$20M" fill="#666666" fill-rule="nonzero"></path>
                <path d="M64.718,64.168 C65.3153333,64.168 65.8613333,64.0583333 66.356,63.839 C66.8506667,63.6196667 67.2776667,63.3023333 67.637,62.887 C67.9963333,62.4716667 68.274,61.97 68.47,61.382 C68.666,60.794 68.764,60.1266667 68.764,59.38 C68.764,58.6426667 68.666,57.9823333 68.47,57.399 C68.274,56.8156667 67.9963333,56.3233333 67.637,55.922 C67.2776667,55.5206667 66.8506667,55.2126667 66.356,54.998 C65.8613333,54.7833333 65.3153333,54.676 64.718,54.676 C64.1206667,54.676 63.5746667,54.7833333 63.08,54.998 C62.5853333,55.2126667 62.1606667,55.5206667 61.806,55.922 C61.4513333,56.3233333 61.176,56.8156667 60.98,57.399 C60.784,57.9823333 60.686,58.6426667 60.686,59.38 C60.686,60.1266667 60.784,60.794 60.98,61.382 C61.176,61.97 61.4513333,62.4716667 61.806,62.887 C62.1606667,63.3023333 62.5853333,63.6196667 63.08,63.839 C63.5746667,64.0583333 64.1206667,64.168 64.718,64.168 Z M64.718,62.754 C64.354,62.754 64.0273333,62.6746667 63.738,62.516 C63.4486667,62.3573333 63.2013333,62.131 62.996,61.837 C62.7906667,61.543 62.632,61.1883333 62.52,60.773 C62.408,60.3576667 62.352,59.8933333 62.352,59.38 C62.352,58.3533333 62.5643333,57.5483333 62.989,56.965 C63.4136667,56.3816667 63.99,56.09 64.718,56.09 C65.446,56.09 66.0223333,56.3816667 66.447,56.965 C66.8716667,57.5483333 67.084,58.3533333 67.084,59.38 C67.084,59.8933333 67.028,60.3576667 66.916,60.773 C66.804,61.1883333 66.6453333,61.543 66.44,61.837 C66.2346667,62.131 65.9873333,62.3573333 65.698,62.516 C65.4086667,62.6746667 65.082,62.754 64.718,62.754 Z M73.79,64.168 C74.1726667,64.168 74.5413333,64.084 74.896,63.916 C75.2506667,63.748 75.5633333,63.5053333 75.834,63.188 C76.1046667,62.8706667 76.3216667,62.481 76.485,62.019 C76.6483333,61.557 76.73,61.032 76.73,60.444 C76.73,59.912 76.6693333,59.4313333 76.548,59.002 C76.4266667,58.5726667 76.2493333,58.2063333 76.016,57.903 C75.7826667,57.5996667 75.498,57.3663333 75.162,57.203 C74.826,57.0396667 74.4433333,56.958 74.014,56.958 C73.6593333,56.958 73.3116667,57.0373333 72.971,57.196 C72.6303333,57.3546667 72.3153333,57.56 72.026,57.812 L72.026,57.812 L72.068,56.664 L72.068,54.116 L70.458,54.116 L70.458,64 L71.732,64 L71.872,63.272 L71.914,63.272 C72.2033333,63.5613333 72.509,63.783 72.831,63.937 C73.153,64.091 73.4726667,64.168 73.79,64.168 Z M73.454,62.838 C73.2486667,62.838 73.027,62.796 72.789,62.712 C72.551,62.628 72.3106667,62.4786667 72.068,62.264 L72.068,62.264 L72.068,59.058 C72.5906667,58.5446667 73.0946667,58.288 73.58,58.288 C74.1026667,58.288 74.4806667,58.4793333 74.714,58.862 C74.9473333,59.2446667 75.064,59.7813333 75.064,60.472 C75.064,61.256 74.91,61.8463333 74.602,62.243 C74.294,62.6396667 73.9113333,62.838 73.454,62.838 Z M79.908,64.168 C80.2626667,64.168 80.5473333,64.1213333 80.762,64.028 L80.762,64.028 L80.552,62.824 C80.4866667,62.8426667 80.4376667,62.852 80.405,62.852 L80.405,62.852 L80.3,62.852 C80.216,62.852 80.1366667,62.8123333 80.062,62.733 C79.9873333,62.6536667 79.95,62.516 79.95,62.32 L79.95,62.32 L79.95,54.116 L78.34,54.116 L78.34,62.236 C78.34,62.8333333 78.4566667,63.3046667 78.69,63.65 C78.9233333,63.9953333 79.3293333,64.168 79.908,64.168 Z M82.946,55.922 C83.2353333,55.922 83.4733333,55.838 83.66,55.67 C83.8466667,55.502 83.94,55.2826667 83.94,55.012 C83.94,54.7413333 83.8466667,54.5196667 83.66,54.347 C83.4733333,54.1743333 83.2353333,54.088 82.946,54.088 C82.6566667,54.088 82.4186667,54.1743333 82.232,54.347 C82.0453333,54.5196667 81.952,54.7413333 81.952,55.012 C81.952,55.2826667 82.0453333,55.502 82.232,55.67 C82.4186667,55.838 82.6566667,55.922 82.946,55.922 Z M83.744,64 L83.744,57.126 L82.134,57.126 L82.134,64 L83.744,64 Z M88.196,67.038 C88.756,67.038 89.2623333,66.975 89.715,66.849 C90.1676667,66.723 90.5526667,66.5526667 90.87,66.338 C91.1873333,66.1233333 91.4323333,65.8666667 91.605,65.568 C91.7776667,65.2693333 91.864,64.952 91.864,64.616 C91.864,64.0186667 91.6516667,63.587 91.227,63.321 C90.8023333,63.055 90.1746667,62.922 89.344,62.922 L89.344,62.922 L88.126,62.922 C87.706,62.922 87.4143333,62.866 87.251,62.754 C87.0876667,62.642 87.006,62.488 87.006,62.292 C87.006,62.1333333 87.0363333,62.0073333 87.097,61.914 C87.1576667,61.8206667 87.2393333,61.7273333 87.342,61.634 C87.5006667,61.6993333 87.6593333,61.746 87.818,61.774 C87.9766667,61.802 88.1306667,61.816 88.28,61.816 C88.644,61.816 88.9846667,61.7646667 89.302,61.662 C89.6193333,61.5593333 89.8946667,61.41 90.128,61.214 C90.3613333,61.018 90.5456667,60.7753333 90.681,60.486 C90.8163333,60.1966667 90.884,59.8606667 90.884,59.478 C90.884,59.2353333 90.8466667,59.0136667 90.772,58.813 C90.6973333,58.6123333 90.604,58.4466667 90.492,58.316 L90.492,58.316 L91.752,58.316 L91.752,57.126 L89.288,57.126 C89.148,57.0793333 88.9916667,57.0396667 88.819,57.007 C88.6463333,56.9743333 88.4666667,56.958 88.28,56.958 C87.916,56.958 87.5706667,57.0116667 87.244,57.119 C86.9173333,57.2263333 86.6303333,57.385 86.383,57.595 C86.1356667,57.805 85.9373333,58.064 85.788,58.372 C85.6386667,58.68 85.564,59.03 85.564,59.422 C85.564,59.8326667 85.655,60.1943333 85.837,60.507 C86.019,60.8196667 86.2266667,61.0646667 86.46,61.242 L86.46,61.242 L86.46,61.298 C86.264,61.438 86.089,61.6176667 85.935,61.837 C85.781,62.0563333 85.704,62.3013333 85.704,62.572 C85.704,62.852 85.7623333,63.0853333 85.879,63.272 C85.9956667,63.4586667 86.1426667,63.608 86.32,63.72 L86.32,63.72 L86.32,63.776 C86.0026667,63.972 85.76,64.1936667 85.592,64.441 C85.424,64.6883333 85.34,64.9566667 85.34,65.246 C85.34,65.5446667 85.4123333,65.806 85.557,66.03 C85.7016667,66.254 85.9,66.4406667 86.152,66.59 C86.404,66.7393333 86.705,66.8513333 87.055,66.926 C87.405,67.0006667 87.7853333,67.038 88.196,67.038 Z M88.28,60.808 C87.944,60.808 87.6593333,60.689 87.426,60.451 C87.1926667,60.213 87.076,59.87 87.076,59.422 C87.076,58.9833333 87.1926667,58.6473333 87.426,58.414 C87.6593333,58.1806667 87.944,58.064 88.28,58.064 C88.616,58.064 88.8983333,58.183 89.127,58.421 C89.3556667,58.659 89.47,58.9926667 89.47,59.422 C89.47,59.87 89.3533333,60.213 89.12,60.451 C88.8866667,60.689 88.6066667,60.808 88.28,60.808 Z M88.448,65.988 C87.8973333,65.988 87.4656667,65.9016667 87.153,65.729 C86.8403333,65.5563333 86.684,65.316 86.684,65.008 C86.684,64.672 86.8613333,64.3686667 87.216,64.098 C87.468,64.1633333 87.7806667,64.196 88.154,64.196 L88.154,64.196 L89.092,64.196 C89.484,64.196 89.785,64.2426667 89.995,64.336 C90.205,64.4293333 90.31,64.6113333 90.31,64.882 C90.31,65.1806667 90.1396667,65.4396667 89.799,65.659 C89.4583333,65.8783333 89.008,65.988 88.448,65.988 Z M94.496,64.168 C94.9066667,64.168 95.287,64.0793333 95.637,63.902 C95.987,63.7246667 96.316,63.5053333 96.624,63.244 L96.624,63.244 L96.68,63.244 L96.792,64 L98.122,64 L98.122,59.926 C98.122,58.9646667 97.9096667,58.2296667 97.485,57.721 C97.0603333,57.2123333 96.4186667,56.958 95.56,56.958 C95.0093333,56.958 94.496,57.0466667 94.02,57.224 C93.544,57.4013333 93.1146667,57.6113333 92.732,57.854 L92.732,57.854 L93.32,58.932 C93.628,58.7453333 93.943,58.5866667 94.265,58.456 C94.587,58.3253333 94.916,58.26 95.252,58.26 C95.4853333,58.26 95.6813333,58.295 95.84,58.365 C95.9986667,58.435 96.127,58.533 96.225,58.659 C96.323,58.785 96.393,58.9296667 96.435,59.093 C96.477,59.2563333 96.5026667,59.4266667 96.512,59.604 C95.8026667,59.6786667 95.1936667,59.786 94.685,59.926 C94.1763333,60.066 93.7563333,60.2386667 93.425,60.444 C93.0936667,60.6493333 92.851,60.8943333 92.697,61.179 C92.543,61.4636667 92.466,61.788 92.466,62.152 C92.466,62.7586667 92.6526667,63.2463333 93.026,63.615 C93.3993333,63.9836667 93.8893333,64.168 94.496,64.168 Z M95.014,62.908 C94.7246667,62.908 94.4866667,62.838 94.3,62.698 C94.1133333,62.558 94.02,62.334 94.02,62.026 C94.02,61.858 94.062,61.6993333 94.146,61.55 C94.23,61.4006667 94.37,61.2676667 94.566,61.151 C94.762,61.0343333 95.0186667,60.9293333 95.336,60.836 C95.6533333,60.7426667 96.0453333,60.668 96.512,60.612 L96.512,60.612 L96.512,62.152 C96.2506667,62.3946667 96.0056667,62.5813333 95.777,62.712 C95.5483333,62.8426667 95.294,62.908 95.014,62.908 Z M102.252,64.168 C102.522667,64.168 102.777,64.1423333 103.015,64.091 C103.253,64.0396667 103.465333,63.9813333 103.652,63.916 L103.652,63.916 L103.372,62.726 C103.269333,62.7726667 103.155,62.81 103.029,62.838 C102.903,62.866 102.779333,62.88 102.658,62.88 C102.014,62.88 101.692,62.4786667 101.692,61.676 L101.692,61.676 L101.692,58.4 L103.442,58.4 L103.442,57.126 L101.692,57.126 L101.692,55.25 L100.348,55.25 L100.152,57.126 L99.088,57.196 L99.088,58.4 L100.068,58.4 L100.068,61.676 C100.068,62.0493333 100.107667,62.3876667 100.187,62.691 C100.266333,62.9943333 100.392333,63.2556667 100.565,63.475 C100.737667,63.6943333 100.961667,63.8646667 101.237,63.986 C101.512333,64.1073333 101.850667,64.168 102.252,64.168 Z M105.696,55.922 C105.985333,55.922 106.223333,55.838 106.41,55.67 C106.596667,55.502 106.69,55.2826667 106.69,55.012 C106.69,54.7413333 106.596667,54.5196667 106.41,54.347 C106.223333,54.1743333 105.985333,54.088 105.696,54.088 C105.406667,54.088 105.168667,54.1743333 104.982,54.347 C104.795333,54.5196667 104.702,54.7413333 104.702,55.012 C104.702,55.2826667 104.795333,55.502 104.982,55.67 C105.168667,55.838 105.406667,55.922 105.696,55.922 Z M106.494,64 L106.494,57.126 L104.884,57.126 L104.884,64 L106.494,64 Z M111.366,64.168 C111.795333,64.168 112.208333,64.0886667 112.605,63.93 C113.001667,63.7713333 113.349333,63.538 113.648,63.23 C113.946667,62.922 114.187,62.544 114.369,62.096 C114.551,61.648 114.642,61.1393333 114.642,60.57 C114.642,60.0006667 114.551,59.492 114.369,59.044 C114.187,58.596 113.946667,58.218 113.648,57.91 C113.349333,57.602 113.001667,57.3663333 112.605,57.203 C112.208333,57.0396667 111.795333,56.958 111.366,56.958 C110.936667,56.958 110.526,57.0396667 110.134,57.203 C109.742,57.3663333 109.394333,57.602 109.091,57.91 C108.787667,58.218 108.547333,58.596 108.37,59.044 C108.192667,59.492 108.104,60.0006667 108.104,60.57 C108.104,61.1393333 108.192667,61.648 108.37,62.096 C108.547333,62.544 108.787667,62.922 109.091,63.23 C109.394333,63.538 109.742,63.7713333 110.134,63.93 C110.526,64.0886667 110.936667,64.168 111.366,64.168 Z M111.366,62.852 C110.862,62.852 110.467667,62.6443333 110.183,62.229 C109.898333,61.8136667 109.756,61.2606667 109.756,60.57 C109.756,59.87 109.898333,59.3123333 110.183,58.897 C110.467667,58.4816667 110.862,58.274 111.366,58.274 C111.87,58.274 112.266667,58.4816667 112.556,58.897 C112.845333,59.3123333 112.99,59.87 112.99,60.57 C112.99,61.2606667 112.845333,61.8136667 112.556,62.229 C112.266667,62.6443333 111.87,62.852 111.366,62.852 Z M117.848,64 L117.848,59.198 C118.137333,58.918 118.396333,58.7056667 118.625,58.561 C118.853667,58.4163333 119.117333,58.344 119.416,58.344 C119.798667,58.344 120.074,58.4606667 120.242,58.694 C120.41,58.9273333 120.494,59.3286667 120.494,59.898 L120.494,59.898 L120.494,64 L122.104,64 L122.104,59.688 C122.104,58.8106667 121.936,58.1363333 121.6,57.665 C121.264,57.1936667 120.727333,56.958 119.99,56.958 C119.514,56.958 119.096333,57.0653333 118.737,57.28 C118.377667,57.4946667 118.044,57.7513333 117.736,58.05 L117.736,58.05 L117.68,58.05 L117.568,57.126 L116.238,57.126 L116.238,64 L117.848,64 Z M125.996,64.168 C126.425333,64.168 126.808,64.112 127.144,64 C127.48,63.888 127.76,63.7363333 127.984,63.545 C128.208,63.3536667 128.378333,63.1296667 128.495,62.873 C128.611667,62.6163333 128.67,62.3386667 128.67,62.04 C128.67,61.7226667 128.611667,61.4496667 128.495,61.221 C128.378333,60.9923333 128.224333,60.7986667 128.033,60.64 C127.841667,60.4813333 127.629333,60.3483333 127.396,60.241 C127.162667,60.1336667 126.929333,60.038 126.696,59.954 C126.509333,59.8886667 126.329667,59.8233333 126.157,59.758 C125.984333,59.6926667 125.832667,59.6226667 125.702,59.548 C125.571333,59.4733333 125.466333,59.387 125.387,59.289 C125.307667,59.191 125.268,59.072 125.268,58.932 C125.268,58.7173333 125.349667,58.5376667 125.513,58.393 C125.676333,58.2483333 125.930667,58.176 126.276,58.176 C126.546667,58.176 126.805667,58.2296667 127.053,58.337 C127.300333,58.4443333 127.545333,58.5866667 127.788,58.764 L127.788,58.764 L128.53,57.784 C128.25,57.5693333 127.918667,57.378 127.536,57.21 C127.153333,57.042 126.724,56.958 126.248,56.958 C125.473333,56.958 124.862,57.1493333 124.414,57.532 C123.966,57.9146667 123.742,58.4093333 123.742,59.016 C123.742,59.3053333 123.800333,59.555 123.917,59.765 C124.033667,59.975 124.183,60.1593333 124.365,60.318 C124.547,60.4766667 124.754667,60.612 124.988,60.724 C125.221333,60.836 125.45,60.934 125.674,61.018 C125.851333,61.0926667 126.028667,61.165 126.206,61.235 C126.383333,61.305 126.542,61.382 126.682,61.466 C126.822,61.55 126.934,61.6456667 127.018,61.753 C127.102,61.8603333 127.144,61.984 127.144,62.124 C127.144,62.3666667 127.055333,62.565 126.878,62.719 C126.700667,62.873 126.425333,62.95 126.052,62.95 C125.697333,62.95 125.368333,62.8823333 125.065,62.747 C124.761667,62.6116667 124.456,62.4226667 124.148,62.18 L124.148,62.18 L123.392,63.216 C123.728,63.4866667 124.127,63.713 124.589,63.895 C125.051,64.077 125.52,64.168 125.996,64.168 Z M63.948,83.54 L63.948,82.126 C64.62,82.0326667 65.1496667,81.7713333 65.537,81.342 C65.9243333,80.9126667 66.118,80.362 66.118,79.69 C66.118,79.186 66.0223333,78.773 65.831,78.451 C65.6396667,78.129 65.3993333,77.8583333 65.11,77.639 C64.8206667,77.4196667 64.5056667,77.233 64.165,77.079 C63.8243333,76.925 63.5093333,76.7663333 63.22,76.603 C62.9306667,76.4396667 62.6903333,76.2506667 62.499,76.036 C62.3076667,75.8213333 62.212,75.546 62.212,75.21 C62.212,74.7993333 62.338,74.4726667 62.59,74.23 C62.842,73.9873333 63.1826667,73.866 63.612,73.866 C63.9946667,73.866 64.3096667,73.936 64.557,74.076 C64.8043333,74.216 65.0586667,74.412 65.32,74.664 L65.32,74.664 L65.936,73.978 C65.684,73.7073333 65.4016667,73.474 65.089,73.278 C64.7763333,73.082 64.396,72.9606667 63.948,72.914 L63.948,72.914 L63.948,71.528 L63.108,71.528 L63.108,72.942 C62.492,73.0353333 61.9996667,73.2896667 61.631,73.705 C61.2623333,74.1203333 61.078,74.6406667 61.078,75.266 C61.078,75.7233333 61.1736667,76.099 61.365,76.393 C61.5563333,76.687 61.7966667,76.9366667 62.086,77.142 C62.3753333,77.3473333 62.6903333,77.5293333 63.031,77.688 C63.3716667,77.8466667 63.6866667,78.017 63.976,78.199 C64.2653333,78.381 64.5056667,78.5956667 64.697,78.843 C64.8883333,79.0903333 64.984,79.4006667 64.984,79.774 C64.984,80.2126667 64.8556667,80.5626667 64.599,80.824 C64.3423333,81.0853333 63.9526667,81.216 63.43,81.216 C63.0006667,81.216 62.6063333,81.125 62.247,80.943 C61.8876667,80.761 61.5586667,80.5393333 61.26,80.278 L61.26,80.278 L60.728,81.076 C61.0266667,81.3466667 61.386,81.5823333 61.806,81.783 C62.226,81.9836667 62.66,82.1073333 63.108,82.154 L63.108,82.154 L63.108,83.54 L63.948,83.54 Z M73.286,82 L73.286,81.006 L70.696,81.006 C70.4626667,81.006 70.2153333,81.0153333 69.954,81.034 C69.6926667,81.0526667 69.4406667,81.0713333 69.198,81.09 C69.73,80.5393333 70.2176667,80.019 70.661,79.529 C71.1043333,79.039 71.487,78.5676667 71.809,78.115 C72.131,77.6623333 72.383,77.2236667 72.565,76.799 C72.747,76.3743333 72.838,75.952 72.838,75.532 C72.838,74.7386667 72.6,74.1016667 72.124,73.621 C71.648,73.1403333 70.9946667,72.9 70.164,72.9 C69.576,72.9 69.072,73.0236667 68.652,73.271 C68.232,73.5183333 67.8353333,73.8473333 67.462,74.258 L67.462,74.258 L68.12,74.916 C68.3813333,74.6173333 68.6706667,74.363 68.988,74.153 C69.3053333,73.943 69.6506667,73.838 70.024,73.838 C70.5933333,73.838 71.018,74.0013333 71.298,74.328 C71.578,74.6546667 71.718,75.0746667 71.718,75.588 C71.718,75.952 71.6246667,76.3276667 71.438,76.715 C71.2513333,77.1023333 70.9806667,77.527 70.626,77.989 C70.2713333,78.451 69.8326667,78.9526667 69.31,79.494 C68.7873333,80.0353333 68.19,80.642 67.518,81.314 L67.518,81.314 L67.518,82 L73.286,82 Z M77.402,82.168 C78.298,82.168 78.998,81.7666667 79.502,80.964 C80.006,80.1613333 80.258,79.0086667 80.258,77.506 C80.258,76.0033333 80.006,74.86 79.502,74.076 C78.998,73.292 78.298,72.9 77.402,72.9 C76.4966667,72.9 75.792,73.292 75.288,74.076 C74.784,74.86 74.532,76.0033333 74.532,77.506 C74.532,79.0086667 74.784,80.1613333 75.288,80.964 C75.792,81.7666667 76.4966667,82.168 77.402,82.168 Z M77.402,81.244 C76.8793333,81.244 76.457,80.9476667 76.135,80.355 C75.813,79.7623333 75.652,78.8126667 75.652,77.506 C75.652,76.8526667 75.694,76.2926667 75.778,75.826 C75.862,75.3593333 75.981,74.979 76.135,74.685 C76.289,74.391 76.4733333,74.174 76.688,74.034 C76.9026667,73.894 77.1406667,73.824 77.402,73.824 C77.6633333,73.824 77.899,73.894 78.109,74.034 C78.319,74.174 78.501,74.391 78.655,74.685 C78.809,74.979 78.928,75.3593333 79.012,75.826 C79.096,76.2926667 79.138,76.8526667 79.138,77.506 C79.138,78.1593333 79.096,78.7216667 79.012,79.193 C78.928,79.6643333 78.809,80.0516667 78.655,80.355 C78.501,80.6583333 78.319,80.8823333 78.109,81.027 C77.899,81.1716667 77.6633333,81.244 77.402,81.244 Z M83.184,82 L83.184,76.946 C83.184,76.5353333 83.1676667,76.0826667 83.135,75.588 C83.1023333,75.0933333 83.072,74.6406667 83.044,74.23 L83.044,74.23 L83.1,74.23 L83.828,76.316 L85.564,81.076 L86.334,81.076 L88.07,76.316 L88.798,74.23 L88.854,74.23 C88.826,74.6406667 88.7933333,75.0933333 88.756,75.588 C88.7186667,76.0826667 88.7,76.5353333 88.7,76.946 L88.7,76.946 L88.7,82 L89.792,82 L89.792,72.816 L88.378,72.816 L86.642,77.716 C86.53,78.0333333 86.425,78.353 86.327,78.675 C86.229,78.997 86.124,79.3166667 86.012,79.634 L86.012,79.634 L85.956,79.634 C85.844,79.3166667 85.7343333,78.997 85.627,78.675 C85.5196667,78.353 85.41,78.0333333 85.298,77.716 L85.298,77.716 L83.534,72.816 L82.134,72.816 L82.134,82 L83.184,82 Z" id="Obligations$20M" fill="#666666" fill-rule="nonzero"></path>
                <path d="M91,31 L91,35.6176471 C91,36.7222166 90.1045695,37.6176471 89,37.6176471 L6,37.6176471 C4.8954305,37.6176471 4,38.5130776 4,39.6176471 L4,46 L4,46" id="Line-Copy-7" stroke="#C6C6C6" stroke-linecap="round" transform="translate(47.500000, 38.500000) scale(-1, 1) translate(-47.500000, -38.500000) "></path>
                <line x1="2" y1="31" x2="2" y2="46" id="Line" stroke="#C6C6C6"></line>
                <path d="M11.368,20.54 L11.368,19.084 C12.096,18.9253333 12.642,18.6056667 13.006,18.125 C13.37,17.6443333 13.552,17.068 13.552,16.396 C13.552,15.948 13.461,15.5723333 13.279,15.269 C13.097,14.9656667 12.8683333,14.7066667 12.593,14.492 C12.3176667,14.2773333 12.0213333,14.0953333 11.704,13.946 C11.3866667,13.7966667 11.0903333,13.652 10.815,13.512 C10.5396667,13.372 10.311,13.225 10.129,13.071 C9.947,12.917 9.856,12.728 9.856,12.504 C9.856,12.1866667 9.94466667,11.958 10.122,11.818 C10.2993333,11.678 10.556,11.608 10.892,11.608 C11.1906667,11.608 11.4566667,11.6663333 11.69,11.783 C11.9233333,11.8996667 12.166,12.0746667 12.418,12.308 L12.418,12.308 L13.454,11.132 C13.1833333,10.8426667 12.88,10.5953333 12.544,10.39 C12.208,10.1846667 11.816,10.0493333 11.368,9.984 L11.368,9.984 L11.368,8.57 L10.01,8.57 L10.01,10.012 C9.34733333,10.1426667 8.827,10.4343333 8.449,10.887 C8.071,11.3396667 7.882,11.9113333 7.882,12.602 C7.882,13.022 7.973,13.3766667 8.155,13.666 C8.337,13.9553333 8.56566667,14.2073333 8.841,14.422 C9.11633333,14.6366667 9.41266667,14.821 9.73,14.975 C10.0473333,15.129 10.3436667,15.283 10.619,15.437 C10.8943333,15.591 11.123,15.752 11.305,15.92 C11.487,16.088 11.578,16.2933333 11.578,16.536 C11.578,16.8626667 11.487,17.1053333 11.305,17.264 C11.123,17.4226667 10.836,17.502 10.444,17.502 C10.108,17.502 9.779,17.4343333 9.457,17.299 C9.135,17.1636667 8.79666667,16.9606667 8.442,16.69 L8.442,16.69 L7.546,18.076 C7.87266667,18.3746667 8.26233333,18.615 8.715,18.797 C9.16766667,18.979 9.59933333,19.0933333 10.01,19.14 L10.01,19.14 L10.01,20.54 L11.368,20.54 Z M21.168,19 L21.168,17.264 L19.376,17.264 C19.1613333,17.264 18.9163333,17.2756667 18.641,17.299 C18.3656667,17.3223333 18.116,17.348 17.892,17.376 C18.256,17.0026667 18.6083333,16.6223333 18.949,16.235 C19.2896667,15.8476667 19.593,15.4603333 19.859,15.073 C20.125,14.6856667 20.3373333,14.2983333 20.496,13.911 C20.6546667,13.5236667 20.734,13.1433333 20.734,12.77 C20.734,12.3406667 20.664,11.9533333 20.524,11.608 C20.384,11.2626667 20.1833333,10.9663333 19.922,10.719 C19.6606667,10.4716667 19.3503333,10.2803333 18.991,10.145 C18.6316667,10.0096667 18.2326667,9.942 17.794,9.942 C17.1593333,9.942 16.6133333,10.061 16.156,10.299 C15.6986667,10.537 15.2506667,10.8893333 14.812,11.356 L14.812,11.356 L15.932,12.462 C16.156,12.2193333 16.394,12.007 16.646,11.825 C16.898,11.643 17.1873333,11.552 17.514,11.552 C17.906,11.552 18.214,11.6663333 18.438,11.895 C18.662,12.1236667 18.774,12.4573333 18.774,12.896 C18.774,13.2133333 18.6783333,13.547 18.487,13.897 C18.2956667,14.247 18.0296667,14.625 17.689,15.031 C17.3483333,15.437 16.9423333,15.871 16.471,16.333 C15.9996667,16.795 15.4793333,17.292 14.91,17.824 L14.91,17.824 L14.91,19 L21.168,19 Z M25.48,19.168 C25.956,19.168 26.39,19.0676667 26.782,18.867 C27.174,18.6663333 27.5076667,18.37 27.783,17.978 C28.0583333,17.586 28.273,17.1006667 28.427,16.522 C28.581,15.9433333 28.658,15.276 28.658,14.52 C28.658,13.764 28.581,13.1013333 28.427,12.532 C28.273,11.9626667 28.0583333,11.4843333 27.783,11.097 C27.5076667,10.7096667 27.174,10.4203333 26.782,10.229 C26.39,10.0376667 25.956,9.942 25.48,9.942 C25.004,9.942 24.57,10.0376667 24.178,10.229 C23.786,10.4203333 23.4523333,10.7096667 23.177,11.097 C22.9016667,11.4843333 22.687,11.9626667 22.533,12.532 C22.379,13.1013333 22.302,13.764 22.302,14.52 C22.302,15.276 22.379,15.9433333 22.533,16.522 C22.687,17.1006667 22.9016667,17.586 23.177,17.978 C23.4523333,18.37 23.786,18.6663333 24.178,18.867 C24.57,19.0676667 25.004,19.168 25.48,19.168 Z M25.48,17.572 C25.312,17.572 25.1533333,17.5276667 25.004,17.439 C24.8546667,17.3503333 24.724,17.1893333 24.612,16.956 C24.5,16.7226667 24.4113333,16.41 24.346,16.018 C24.2806667,15.626 24.248,15.1266667 24.248,14.52 C24.248,13.9133333 24.2806667,13.4163333 24.346,13.029 C24.4113333,12.6416667 24.5,12.3383333 24.612,12.119 C24.724,11.8996667 24.8546667,11.748 25.004,11.664 C25.1533333,11.58 25.312,11.538 25.48,11.538 C25.6573333,11.538 25.8206667,11.58 25.97,11.664 C26.1193333,11.748 26.25,11.8996667 26.362,12.119 C26.474,12.3383333 26.5603333,12.6416667 26.621,13.029 C26.6816667,13.4163333 26.712,13.9133333 26.712,14.52 C26.712,15.1266667 26.6816667,15.626 26.621,16.018 C26.5603333,16.41 26.474,16.7226667 26.362,16.956 C26.25,17.1893333 26.1193333,17.3503333 25.97,17.439 C25.8206667,17.5276667 25.6573333,17.572 25.48,17.572 Z M32.102,19 L32.102,15.654 C32.102,15.43 32.0926667,15.1826667 32.074,14.912 C32.0553333,14.6413333 32.032,14.3683333 32.004,14.093 C31.976,13.8176667 31.948,13.547 31.92,13.281 C31.892,13.015 31.864,12.77 31.836,12.546 L31.836,12.546 L31.892,12.546 L32.62,14.716 L33.922,18.202 L35.056,18.202 L36.358,14.716 L37.1,12.546 L37.156,12.546 C37.128,12.77 37.1,13.015 37.072,13.281 C37.044,13.547 37.016,13.8176667 36.988,14.093 C36.96,14.3683333 36.9366667,14.6413333 36.918,14.912 C36.8993333,15.1826667 36.89,15.43 36.89,15.654 L36.89,15.654 L36.89,19 L38.766,19 L38.766,9.872 L36.526,9.872 L35.084,13.932 C34.9906667,14.2026667 34.9043333,14.4803333 34.825,14.765 C34.7456667,15.0496667 34.6593333,15.332 34.566,15.612 L34.566,15.612 L34.51,15.612 C34.4166667,15.332 34.328,15.0496667 34.244,14.765 C34.16,14.4803333 34.0713333,14.2026667 33.978,13.932 L33.978,13.932 L32.508,9.872 L30.254,9.872 L30.254,19 L32.102,19 Z" id="$20M" fill="#555555" fill-rule="nonzero"></path>
                <g id="Group-Copy" transform="translate(2.000000, 0.000000)">
                    <rect id="obligated" fill="#6F41A7" x="1" y="0" width="1" height="30"></rect>
                    <rect id="outlays" fill="#331E4D" x="0" y="0" width="1" height="30"></rect>
                </g>
            </g>
        </g>
    </g>
</svg>