<?xml version="1.0" encoding="UTF-8"?>
<svg width="309px" height="40px" viewBox="0 0 309 40" version="1.1" xmlns="http://www.w3.org/2000/svg" xmlns:xlink="http://www.w3.org/1999/xlink">
    <title>law 1 - total</title>
    <g id="SVG-2.0" stroke="none" stroke-width="1" fill="none" fill-rule="evenodd">
        <g id="viz-3-mobile-outline" transform="translate(-36.000000, -442.000000)">
            <g id="law-1---total" transform="translate(36.000000, 442.000000)">
                <rect id="unobligated" fill="#F3E9FF" x="2" y="0" width="2" height="40"></rect>
                <rect id="obligated" fill="#6F41A7" x="0" y="0" width="2" height="40"></rect>
                <g id="labels" transform="translate(47.000000, 4.000000)">
                    <path d="M63.044,12.144 C63.556,12.144 64.024,12.05 64.448,11.862 C64.872,11.674 65.238,11.402 65.546,11.046 C65.854,10.69 66.092,10.26 66.26,9.756 C66.428,9.252 66.512,8.68 66.512,8.04 C66.512,7.408 66.428,6.842 66.26,6.342 C66.092,5.842 65.854,5.42 65.546,5.076 C65.238,4.732 64.872,4.468 64.448,4.284 C64.024,4.1 63.556,4.008 63.044,4.008 C62.532,4.008 62.064,4.1 61.64,4.284 C61.216,4.468 60.852,4.732 60.548,5.076 C60.244,5.42 60.008,5.842 59.84,6.342 C59.672,6.842 59.588,7.408 59.588,8.04 C59.588,8.68 59.672,9.252 59.84,9.756 C60.008,10.26 60.244,10.69 60.548,11.046 C60.852,11.402 61.216,11.674 61.64,11.862 C62.064,12.05 62.532,12.144 63.044,12.144 Z M63.044,10.932 C62.732,10.932 62.452,10.864 62.204,10.728 C61.956,10.592 61.744,10.398 61.568,10.146 C61.392,9.894 61.256,9.59 61.16,9.234 C61.064,8.878 61.016,8.48 61.016,8.04 C61.016,7.16 61.198,6.47 61.562,5.97 C61.926,5.47 62.42,5.22 63.044,5.22 C63.668,5.22 64.162,5.47 64.526,5.97 C64.89,6.47 65.072,7.16 65.072,8.04 C65.072,8.48 65.024,8.878 64.928,9.234 C64.832,9.59 64.696,9.894 64.52,10.146 C64.344,10.398 64.132,10.592 63.884,10.728 C63.636,10.864 63.356,10.932 63.044,10.932 Z M69.716,12.144 C70.124,12.144 70.478,12.052 70.778,11.868 C71.078,11.684 71.356,11.44 71.612,11.136 L71.612,11.136 L71.648,11.136 L71.756,12 L72.884,12 L72.884,6.108 L71.504,6.108 L71.504,10.14 C71.28,10.428 71.07,10.636 70.874,10.764 C70.678,10.892 70.452,10.956 70.196,10.956 C69.876,10.956 69.644,10.856 69.5,10.656 C69.356,10.456 69.284,10.112 69.284,9.624 L69.284,9.624 L69.284,6.108 L67.904,6.108 L67.904,9.804 C67.904,10.556 68.048,11.134 68.336,11.538 C68.624,11.942 69.084,12.144 69.716,12.144 Z M76.712,12.144 C76.944,12.144 77.162,12.122 77.366,12.078 C77.57,12.034 77.752,11.984 77.912,11.928 L77.912,11.928 L77.672,10.908 C77.584,10.948 77.486,10.98 77.378,11.004 C77.27,11.028 77.164,11.04 77.06,11.04 C76.508,11.04 76.232,10.696 76.232,10.008 L76.232,10.008 L76.232,7.2 L77.732,7.2 L77.732,6.108 L76.232,6.108 L76.232,4.5 L75.08,4.5 L74.912,6.108 L74,6.168 L74,7.2 L74.84,7.2 L74.84,10.008 C74.84,10.328 74.874,10.618 74.942,10.878 C75.01,11.138 75.118,11.362 75.266,11.55 C75.414,11.738 75.606,11.884 75.842,11.988 C76.078,12.092 76.368,12.144 76.712,12.144 Z M80.312,12.144 C80.616,12.144 80.86,12.104 81.044,12.024 L81.044,12.024 L80.864,10.992 C80.808,11.008 80.766,11.016 80.738,11.016 L80.738,11.016 L80.648,11.016 C80.576,11.016 80.508,10.982 80.444,10.914 C80.38,10.846 80.348,10.728 80.348,10.56 L80.348,10.56 L80.348,3.528 L78.968,3.528 L78.968,10.488 C78.968,11 79.068,11.404 79.268,11.7 C79.468,11.996 79.816,12.144 80.312,12.144 Z M83.648,12.144 C84,12.144 84.326,12.068 84.626,11.916 C84.926,11.764 85.208,11.576 85.472,11.352 L85.472,11.352 L85.52,11.352 L85.616,12 L86.756,12 L86.756,8.508 C86.756,7.684 86.574,7.054 86.21,6.618 C85.846,6.182 85.296,5.964 84.56,5.964 C84.088,5.964 83.648,6.04 83.24,6.192 C82.832,6.344 82.464,6.524 82.136,6.732 L82.136,6.732 L82.64,7.656 C82.904,7.496 83.174,7.36 83.45,7.248 C83.726,7.136 84.008,7.08 84.296,7.08 C84.496,7.08 84.664,7.11 84.8,7.17 C84.936,7.23 85.046,7.314 85.13,7.422 C85.214,7.53 85.274,7.654 85.31,7.794 C85.346,7.934 85.368,8.08 85.376,8.232 C84.768,8.296 84.246,8.388 83.81,8.508 C83.374,8.628 83.014,8.776 82.73,8.952 C82.446,9.128 82.238,9.338 82.106,9.582 C81.974,9.826 81.908,10.104 81.908,10.416 C81.908,10.936 82.068,11.354 82.388,11.67 C82.708,11.986 83.128,12.144 83.648,12.144 Z M84.092,11.064 C83.844,11.064 83.64,11.004 83.48,10.884 C83.32,10.764 83.24,10.572 83.24,10.308 C83.24,10.164 83.276,10.028 83.348,9.9 C83.42,9.772 83.54,9.658 83.708,9.558 C83.876,9.458 84.096,9.368 84.368,9.288 C84.64,9.208 84.976,9.144 85.376,9.096 L85.376,9.096 L85.376,10.416 C85.152,10.624 84.942,10.784 84.746,10.896 C84.55,11.008 84.332,11.064 84.092,11.064 Z M88.808,14.424 C89.128,14.424 89.41,14.374 89.654,14.274 C89.898,14.174 90.114,14.03 90.302,13.842 C90.49,13.654 90.656,13.428 90.8,13.164 C90.944,12.9 91.076,12.6 91.196,12.264 L91.196,12.264 L93.332,6.108 L92,6.108 L91.112,9 C91.04,9.264 90.966,9.538 90.89,9.822 C90.814,10.106 90.74,10.384 90.668,10.656 L90.668,10.656 L90.62,10.656 C90.532,10.376 90.446,10.094 90.362,9.81 C90.278,9.526 90.192,9.256 90.104,9 L90.104,9 L89.084,6.108 L87.68,6.108 L89.996,11.928 L89.888,12.3 C89.792,12.596 89.65,12.838 89.462,13.026 C89.274,13.214 89.024,13.308 88.712,13.308 C88.64,13.308 88.566,13.298 88.49,13.278 C88.414,13.258 88.348,13.24 88.292,13.224 L88.292,13.224 L88.04,14.304 C88.152,14.344 88.268,14.374 88.388,14.394 C88.508,14.414 88.648,14.424 88.808,14.424 Z M95.996,12.144 C96.364,12.144 96.692,12.096 96.98,12 C97.268,11.904 97.508,11.774 97.7,11.61 C97.892,11.446 98.038,11.254 98.138,11.034 C98.238,10.814 98.288,10.576 98.288,10.32 C98.288,10.048 98.238,9.814 98.138,9.618 C98.038,9.422 97.906,9.256 97.742,9.12 C97.578,8.984 97.396,8.87 97.196,8.778 C96.996,8.686 96.796,8.604 96.596,8.532 C96.436,8.476 96.282,8.42 96.134,8.364 C95.986,8.308 95.856,8.248 95.744,8.184 C95.632,8.12 95.542,8.046 95.474,7.962 C95.406,7.878 95.372,7.776 95.372,7.656 C95.372,7.472 95.442,7.318 95.582,7.194 C95.722,7.07 95.94,7.008 96.236,7.008 C96.468,7.008 96.69,7.054 96.902,7.146 C97.114,7.238 97.324,7.36 97.532,7.512 L97.532,7.512 L98.168,6.672 C97.928,6.488 97.644,6.324 97.316,6.18 C96.988,6.036 96.62,5.964 96.212,5.964 C95.548,5.964 95.024,6.128 94.64,6.456 C94.256,6.784 94.064,7.208 94.064,7.728 C94.064,7.976 94.114,8.19 94.214,8.37 C94.314,8.55 94.442,8.708 94.598,8.844 C94.754,8.98 94.932,9.096 95.132,9.192 C95.332,9.288 95.528,9.372 95.72,9.444 C95.872,9.508 96.024,9.57 96.176,9.63 C96.328,9.69 96.464,9.756 96.584,9.828 C96.704,9.9 96.8,9.982 96.872,10.074 C96.944,10.166 96.98,10.272 96.98,10.392 C96.98,10.6 96.904,10.77 96.752,10.902 C96.6,11.034 96.364,11.1 96.044,11.1 C95.74,11.1 95.458,11.042 95.198,10.926 C94.938,10.81 94.676,10.648 94.412,10.44 L94.412,10.44 L93.764,11.328 C94.052,11.56 94.394,11.754 94.79,11.91 C95.186,12.066 95.588,12.144 95.996,12.144 Z M62.384,28.32 L62.384,27.108 C62.96,27.028 63.414,26.804 63.746,26.436 C64.078,26.068 64.244,25.596 64.244,25.02 C64.244,24.588 64.162,24.234 63.998,23.958 C63.834,23.682 63.628,23.45 63.38,23.262 C63.132,23.074 62.862,22.914 62.57,22.782 C62.278,22.65 62.008,22.514 61.76,22.374 C61.512,22.234 61.306,22.072 61.142,21.888 C60.978,21.704 60.896,21.468 60.896,21.18 C60.896,20.828 61.004,20.548 61.22,20.34 C61.436,20.132 61.728,20.028 62.096,20.028 C62.424,20.028 62.694,20.088 62.906,20.208 C63.118,20.328 63.336,20.496 63.56,20.712 L63.56,20.712 L64.088,20.124 C63.872,19.892 63.63,19.692 63.362,19.524 C63.094,19.356 62.768,19.252 62.384,19.212 L62.384,19.212 L62.384,18.024 L61.664,18.024 L61.664,19.236 C61.136,19.316 60.714,19.534 60.398,19.89 C60.082,20.246 59.924,20.692 59.924,21.228 C59.924,21.62 60.006,21.942 60.17,22.194 C60.334,22.446 60.54,22.66 60.788,22.836 C61.036,23.012 61.306,23.168 61.598,23.304 C61.89,23.44 62.16,23.586 62.408,23.742 C62.656,23.898 62.862,24.082 63.026,24.294 C63.19,24.506 63.272,24.772 63.272,25.092 C63.272,25.468 63.162,25.768 62.942,25.992 C62.722,26.216 62.388,26.328 61.94,26.328 C61.572,26.328 61.234,26.25 60.926,26.094 C60.618,25.938 60.336,25.748 60.08,25.524 L60.08,25.524 L59.624,26.208 C59.88,26.44 60.188,26.642 60.548,26.814 C60.908,26.986 61.28,27.092 61.664,27.132 L61.664,27.132 L61.664,28.32 L62.384,28.32 Z M70.388,27 L70.388,26.148 L68.168,26.148 C67.968,26.148 67.756,26.156 67.532,26.172 C67.308,26.188 67.092,26.204 66.884,26.22 C67.34,25.748 67.758,25.302 68.138,24.882 C68.518,24.462 68.846,24.058 69.122,23.67 C69.398,23.282 69.614,22.906 69.77,22.542 C69.926,22.178 70.004,21.816 70.004,21.456 C70.004,20.776 69.8,20.23 69.392,19.818 C68.984,19.406 68.424,19.2 67.712,19.2 C67.208,19.2 66.776,19.306 66.416,19.518 C66.056,19.73 65.716,20.012 65.396,20.364 L65.396,20.364 L65.96,20.928 C66.184,20.672 66.432,20.454 66.704,20.274 C66.976,20.094 67.272,20.004 67.592,20.004 C68.08,20.004 68.444,20.144 68.684,20.424 C68.924,20.704 69.044,21.064 69.044,21.504 C69.044,21.816 68.964,22.138 68.804,22.47 C68.644,22.802 68.412,23.166 68.108,23.562 C67.804,23.958 67.428,24.388 66.98,24.852 C66.532,25.316 66.02,25.836 65.444,26.412 L65.444,26.412 L65.444,27 L70.388,27 Z M74.516,27 C74.956,27 75.36,26.952 75.728,26.856 C76.096,26.76 76.412,26.616 76.676,26.424 C76.94,26.232 77.144,25.992 77.288,25.704 C77.432,25.416 77.504,25.08 77.504,24.696 C77.504,24.152 77.356,23.724 77.06,23.412 C76.764,23.1 76.376,22.9 75.896,22.812 L75.896,22.812 L75.896,22.764 C76.272,22.644 76.558,22.426 76.754,22.11 C76.95,21.794 77.048,21.44 77.048,21.048 C77.048,20.704 76.982,20.41 76.85,20.166 C76.718,19.922 76.534,19.724 76.298,19.572 C76.062,19.42 75.778,19.308 75.446,19.236 C75.114,19.164 74.748,19.128 74.348,19.128 L74.348,19.128 L72.008,19.128 L72.008,27 L74.516,27 Z M74.168,22.476 L73.004,22.476 L73.004,19.92 L74.216,19.92 C74.832,19.92 75.294,20.016 75.602,20.208 C75.91,20.4 76.064,20.724 76.064,21.18 C76.064,21.58 75.916,21.896 75.62,22.128 C75.324,22.36 74.84,22.476 74.168,22.476 L74.168,22.476 Z M74.372,26.208 L73.004,26.208 L73.004,23.244 L74.372,23.244 C75.068,23.244 75.6,23.358 75.968,23.586 C76.336,23.814 76.52,24.172 76.52,24.66 C76.52,25.188 76.332,25.578 75.956,25.83 C75.58,26.082 75.052,26.208 74.372,26.208 L74.372,26.208 Z" id="Outlays$2B" fill="#555555" fill-rule="nonzero"></path>
                    <path d="M123.044,12.144 C123.556,12.144 124.024,12.05 124.448,11.862 C124.872,11.674 125.238,11.402 125.546,11.046 C125.854,10.69 126.092,10.26 126.26,9.756 C126.428,9.252 126.512,8.68 126.512,8.04 C126.512,7.408 126.428,6.842 126.26,6.342 C126.092,5.842 125.854,5.42 125.546,5.076 C125.238,4.732 124.872,4.468 124.448,4.284 C124.024,4.1 123.556,4.008 123.044,4.008 C122.532,4.008 122.064,4.1 121.64,4.284 C121.216,4.468 120.852,4.732 120.548,5.076 C120.244,5.42 120.008,5.842 119.84,6.342 C119.672,6.842 119.588,7.408 119.588,8.04 C119.588,8.68 119.672,9.252 119.84,9.756 C120.008,10.26 120.244,10.69 120.548,11.046 C120.852,11.402 121.216,11.674 121.64,11.862 C122.064,12.05 122.532,12.144 123.044,12.144 Z M123.044,10.932 C122.732,10.932 122.452,10.864 122.204,10.728 C121.956,10.592 121.744,10.398 121.568,10.146 C121.392,9.894 121.256,9.59 121.16,9.234 C121.064,8.878 121.016,8.48 121.016,8.04 C121.016,7.16 121.198,6.47 121.562,5.97 C121.926,5.47 122.42,5.22 123.044,5.22 C123.668,5.22 124.162,5.47 124.526,5.97 C124.89,6.47 125.072,7.16 125.072,8.04 C125.072,8.48 125.024,8.878 124.928,9.234 C124.832,9.59 124.696,9.894 124.52,10.146 C124.344,10.398 124.132,10.592 123.884,10.728 C123.636,10.864 123.356,10.932 123.044,10.932 Z M130.82,12.144 C131.148,12.144 131.464,12.072 131.768,11.928 C132.072,11.784 132.34,11.576 132.572,11.304 C132.804,11.032 132.99,10.698 133.13,10.302 C133.27,9.906 133.34,9.456 133.34,8.952 C133.34,8.496 133.288,8.084 133.184,7.716 C133.08,7.348 132.928,7.034 132.728,6.774 C132.528,6.514 132.284,6.314 131.996,6.174 C131.708,6.034 131.38,5.964 131.012,5.964 C130.708,5.964 130.41,6.032 130.118,6.168 C129.826,6.304 129.556,6.48 129.308,6.696 L129.308,6.696 L129.344,5.712 L129.344,3.528 L127.964,3.528 L127.964,12 L129.056,12 L129.176,11.376 L129.212,11.376 C129.46,11.624 129.722,11.814 129.998,11.946 C130.274,12.078 130.548,12.144 130.82,12.144 Z M130.532,11.004 C130.356,11.004 130.166,10.968 129.962,10.896 C129.758,10.824 129.552,10.696 129.344,10.512 L129.344,10.512 L129.344,7.764 C129.792,7.324 130.224,7.104 130.64,7.104 C131.088,7.104 131.412,7.268 131.612,7.596 C131.812,7.924 131.912,8.384 131.912,8.976 C131.912,9.648 131.78,10.154 131.516,10.494 C131.252,10.834 130.924,11.004 130.532,11.004 Z M136.064,12.144 C136.368,12.144 136.612,12.104 136.796,12.024 L136.796,12.024 L136.616,10.992 C136.56,11.008 136.518,11.016 136.49,11.016 L136.49,11.016 L136.4,11.016 C136.328,11.016 136.26,10.982 136.196,10.914 C136.132,10.846 136.1,10.728 136.1,10.56 L136.1,10.56 L136.1,3.528 L134.72,3.528 L134.72,10.488 C134.72,11 134.82,11.404 135.02,11.7 C135.22,11.996 135.568,12.144 136.064,12.144 Z M138.668,5.076 C138.916,5.076 139.12,5.004 139.28,4.86 C139.44,4.716 139.52,4.528 139.52,4.296 C139.52,4.064 139.44,3.874 139.28,3.726 C139.12,3.578 138.916,3.504 138.668,3.504 C138.42,3.504 138.216,3.578 138.056,3.726 C137.896,3.874 137.816,4.064 137.816,4.296 C137.816,4.528 137.896,4.716 138.056,4.86 C138.216,5.004 138.42,5.076 138.668,5.076 Z M139.352,12 L139.352,6.108 L137.972,6.108 L137.972,12 L139.352,12 Z M143.168,14.604 C143.648,14.604 144.082,14.55 144.47,14.442 C144.858,14.334 145.188,14.188 145.46,14.004 C145.732,13.82 145.942,13.6 146.09,13.344 C146.238,13.088 146.312,12.816 146.312,12.528 C146.312,12.016 146.13,11.646 145.766,11.418 C145.402,11.19 144.864,11.076 144.152,11.076 L144.152,11.076 L143.108,11.076 C142.748,11.076 142.498,11.028 142.358,10.932 C142.218,10.836 142.148,10.704 142.148,10.536 C142.148,10.4 142.174,10.292 142.226,10.212 C142.278,10.132 142.348,10.052 142.436,9.972 C142.572,10.028 142.708,10.068 142.844,10.092 C142.98,10.116 143.112,10.128 143.24,10.128 C143.552,10.128 143.844,10.084 144.116,9.996 C144.388,9.908 144.624,9.78 144.824,9.612 C145.024,9.444 145.182,9.236 145.298,8.988 C145.414,8.74 145.472,8.452 145.472,8.124 C145.472,7.916 145.44,7.726 145.376,7.554 C145.312,7.382 145.232,7.24 145.136,7.128 L145.136,7.128 L146.216,7.128 L146.216,6.108 L144.104,6.108 C143.984,6.068 143.85,6.034 143.702,6.006 C143.554,5.978 143.4,5.964 143.24,5.964 C142.928,5.964 142.632,6.01 142.352,6.102 C142.072,6.194 141.826,6.33 141.614,6.51 C141.402,6.69 141.232,6.912 141.104,7.176 C140.976,7.44 140.912,7.74 140.912,8.076 C140.912,8.428 140.99,8.738 141.146,9.006 C141.302,9.274 141.48,9.484 141.68,9.636 L141.68,9.636 L141.68,9.684 C141.512,9.804 141.362,9.958 141.23,10.146 C141.098,10.334 141.032,10.544 141.032,10.776 C141.032,11.016 141.082,11.216 141.182,11.376 C141.282,11.536 141.408,11.664 141.56,11.76 L141.56,11.76 L141.56,11.808 C141.288,11.976 141.08,12.166 140.936,12.378 C140.792,12.59 140.72,12.82 140.72,13.068 C140.72,13.324 140.782,13.548 140.906,13.74 C141.03,13.932 141.2,14.092 141.416,14.22 C141.632,14.348 141.89,14.444 142.19,14.508 C142.49,14.572 142.816,14.604 143.168,14.604 Z M143.24,9.264 C142.952,9.264 142.708,9.162 142.508,8.958 C142.308,8.754 142.208,8.46 142.208,8.076 C142.208,7.7 142.308,7.412 142.508,7.212 C142.708,7.012 142.952,6.912 143.24,6.912 C143.528,6.912 143.77,7.014 143.966,7.218 C144.162,7.422 144.26,7.708 144.26,8.076 C144.26,8.46 144.16,8.754 143.96,8.958 C143.76,9.162 143.52,9.264 143.24,9.264 Z M143.384,13.704 C142.912,13.704 142.542,13.63 142.274,13.482 C142.006,13.334 141.872,13.128 141.872,12.864 C141.872,12.576 142.024,12.316 142.328,12.084 C142.544,12.14 142.812,12.168 143.132,12.168 L143.132,12.168 L143.936,12.168 C144.272,12.168 144.53,12.208 144.71,12.288 C144.89,12.368 144.98,12.524 144.98,12.756 C144.98,13.012 144.834,13.234 144.542,13.422 C144.25,13.61 143.864,13.704 143.384,13.704 Z M148.568,12.144 C148.92,12.144 149.246,12.068 149.546,11.916 C149.846,11.764 150.128,11.576 150.392,11.352 L150.392,11.352 L150.44,11.352 L150.536,12 L151.676,12 L151.676,8.508 C151.676,7.684 151.494,7.054 151.13,6.618 C150.766,6.182 150.216,5.964 149.48,5.964 C149.008,5.964 148.568,6.04 148.16,6.192 C147.752,6.344 147.384,6.524 147.056,6.732 L147.056,6.732 L147.56,7.656 C147.824,7.496 148.094,7.36 148.37,7.248 C148.646,7.136 148.928,7.08 149.216,7.08 C149.416,7.08 149.584,7.11 149.72,7.17 C149.856,7.23 149.966,7.314 150.05,7.422 C150.134,7.53 150.194,7.654 150.23,7.794 C150.266,7.934 150.288,8.08 150.296,8.232 C149.688,8.296 149.166,8.388 148.73,8.508 C148.294,8.628 147.934,8.776 147.65,8.952 C147.366,9.128 147.158,9.338 147.026,9.582 C146.894,9.826 146.828,10.104 146.828,10.416 C146.828,10.936 146.988,11.354 147.308,11.67 C147.628,11.986 148.048,12.144 148.568,12.144 Z M149.012,11.064 C148.764,11.064 148.56,11.004 148.4,10.884 C148.24,10.764 148.16,10.572 148.16,10.308 C148.16,10.164 148.196,10.028 148.268,9.9 C148.34,9.772 148.46,9.658 148.628,9.558 C148.796,9.458 149.016,9.368 149.288,9.288 C149.56,9.208 149.896,9.144 150.296,9.096 L150.296,9.096 L150.296,10.416 C150.072,10.624 149.862,10.784 149.666,10.896 C149.47,11.008 149.252,11.064 149.012,11.064 Z M155.216,12.144 C155.448,12.144 155.666,12.122 155.87,12.078 C156.074,12.034 156.256,11.984 156.416,11.928 L156.416,11.928 L156.176,10.908 C156.088,10.948 155.99,10.98 155.882,11.004 C155.774,11.028 155.668,11.04 155.564,11.04 C155.012,11.04 154.736,10.696 154.736,10.008 L154.736,10.008 L154.736,7.2 L156.236,7.2 L156.236,6.108 L154.736,6.108 L154.736,4.5 L153.584,4.5 L153.416,6.108 L152.504,6.168 L152.504,7.2 L153.344,7.2 L153.344,10.008 C153.344,10.328 153.378,10.618 153.446,10.878 C153.514,11.138 153.622,11.362 153.77,11.55 C153.918,11.738 154.11,11.884 154.346,11.988 C154.582,12.092 154.872,12.144 155.216,12.144 Z M158.168,5.076 C158.416,5.076 158.62,5.004 158.78,4.86 C158.94,4.716 159.02,4.528 159.02,4.296 C159.02,4.064 158.94,3.874 158.78,3.726 C158.62,3.578 158.416,3.504 158.168,3.504 C157.92,3.504 157.716,3.578 157.556,3.726 C157.396,3.874 157.316,4.064 157.316,4.296 C157.316,4.528 157.396,4.716 157.556,4.86 C157.716,5.004 157.92,5.076 158.168,5.076 Z M158.852,12 L158.852,6.108 L157.472,6.108 L157.472,12 L158.852,12 Z M163.028,12.144 C163.396,12.144 163.75,12.076 164.09,11.94 C164.43,11.804 164.728,11.604 164.984,11.34 C165.24,11.076 165.446,10.752 165.602,10.368 C165.758,9.984 165.836,9.548 165.836,9.06 C165.836,8.572 165.758,8.136 165.602,7.752 C165.446,7.368 165.24,7.044 164.984,6.78 C164.728,6.516 164.43,6.314 164.09,6.174 C163.75,6.034 163.396,5.964 163.028,5.964 C162.66,5.964 162.308,6.034 161.972,6.174 C161.636,6.314 161.338,6.516 161.078,6.78 C160.818,7.044 160.612,7.368 160.46,7.752 C160.308,8.136 160.232,8.572 160.232,9.06 C160.232,9.548 160.308,9.984 160.46,10.368 C160.612,10.752 160.818,11.076 161.078,11.34 C161.338,11.604 161.636,11.804 161.972,11.94 C162.308,12.076 162.66,12.144 163.028,12.144 Z M163.028,11.016 C162.596,11.016 162.258,10.838 162.014,10.482 C161.77,10.126 161.648,9.652 161.648,9.06 C161.648,8.46 161.77,7.982 162.014,7.626 C162.258,7.27 162.596,7.092 163.028,7.092 C163.46,7.092 163.8,7.27 164.048,7.626 C164.296,7.982 164.42,8.46 164.42,9.06 C164.42,9.652 164.296,10.126 164.048,10.482 C163.8,10.838 163.46,11.016 163.028,11.016 Z M168.584,12 L168.584,7.884 C168.832,7.644 169.054,7.462 169.25,7.338 C169.446,7.214 169.672,7.152 169.928,7.152 C170.256,7.152 170.492,7.252 170.636,7.452 C170.78,7.652 170.852,7.996 170.852,8.484 L170.852,8.484 L170.852,12 L172.232,12 L172.232,8.304 C172.232,7.552 172.088,6.974 171.8,6.57 C171.512,6.166 171.052,5.964 170.42,5.964 C170.012,5.964 169.654,6.056 169.346,6.24 C169.038,6.424 168.752,6.644 168.488,6.9 L168.488,6.9 L168.44,6.9 L168.344,6.108 L167.204,6.108 L167.204,12 L168.584,12 Z M175.568,12.144 C175.936,12.144 176.264,12.096 176.552,12 C176.84,11.904 177.08,11.774 177.272,11.61 C177.464,11.446 177.61,11.254 177.71,11.034 C177.81,10.814 177.86,10.576 177.86,10.32 C177.86,10.048 177.81,9.814 177.71,9.618 C177.61,9.422 177.478,9.256 177.314,9.12 C177.15,8.984 176.968,8.87 176.768,8.778 C176.568,8.686 176.368,8.604 176.168,8.532 C176.008,8.476 175.854,8.42 175.706,8.364 C175.558,8.308 175.428,8.248 175.316,8.184 C175.204,8.12 175.114,8.046 175.046,7.962 C174.978,7.878 174.944,7.776 174.944,7.656 C174.944,7.472 175.014,7.318 175.154,7.194 C175.294,7.07 175.512,7.008 175.808,7.008 C176.04,7.008 176.262,7.054 176.474,7.146 C176.686,7.238 176.896,7.36 177.104,7.512 L177.104,7.512 L177.74,6.672 C177.5,6.488 177.216,6.324 176.888,6.18 C176.56,6.036 176.192,5.964 175.784,5.964 C175.12,5.964 174.596,6.128 174.212,6.456 C173.828,6.784 173.636,7.208 173.636,7.728 C173.636,7.976 173.686,8.19 173.786,8.37 C173.886,8.55 174.014,8.708 174.17,8.844 C174.326,8.98 174.504,9.096 174.704,9.192 C174.904,9.288 175.1,9.372 175.292,9.444 C175.444,9.508 175.596,9.57 175.748,9.63 C175.9,9.69 176.036,9.756 176.156,9.828 C176.276,9.9 176.372,9.982 176.444,10.074 C176.516,10.166 176.552,10.272 176.552,10.392 C176.552,10.6 176.476,10.77 176.324,10.902 C176.172,11.034 175.936,11.1 175.616,11.1 C175.312,11.1 175.03,11.042 174.77,10.926 C174.51,10.81 174.248,10.648 173.984,10.44 L173.984,10.44 L173.336,11.328 C173.624,11.56 173.966,11.754 174.362,11.91 C174.758,12.066 175.16,12.144 175.568,12.144 Z M122.384,28.32 L122.384,27.108 C122.96,27.028 123.414,26.804 123.746,26.436 C124.078,26.068 124.244,25.596 124.244,25.02 C124.244,24.588 124.162,24.234 123.998,23.958 C123.834,23.682 123.628,23.45 123.38,23.262 C123.132,23.074 122.862,22.914 122.57,22.782 C122.278,22.65 122.008,22.514 121.76,22.374 C121.512,22.234 121.306,22.072 121.142,21.888 C120.978,21.704 120.896,21.468 120.896,21.18 C120.896,20.828 121.004,20.548 121.22,20.34 C121.436,20.132 121.728,20.028 122.096,20.028 C122.424,20.028 122.694,20.088 122.906,20.208 C123.118,20.328 123.336,20.496 123.56,20.712 L123.56,20.712 L124.088,20.124 C123.872,19.892 123.63,19.692 123.362,19.524 C123.094,19.356 122.768,19.252 122.384,19.212 L122.384,19.212 L122.384,18.024 L121.664,18.024 L121.664,19.236 C121.136,19.316 120.714,19.534 120.398,19.89 C120.082,20.246 119.924,20.692 119.924,21.228 C119.924,21.62 120.006,21.942 120.17,22.194 C120.334,22.446 120.54,22.66 120.788,22.836 C121.036,23.012 121.306,23.168 121.598,23.304 C121.89,23.44 122.16,23.586 122.408,23.742 C122.656,23.898 122.862,24.082 123.026,24.294 C123.19,24.506 123.272,24.772 123.272,25.092 C123.272,25.468 123.162,25.768 122.942,25.992 C122.722,26.216 122.388,26.328 121.94,26.328 C121.572,26.328 121.234,26.25 120.926,26.094 C120.618,25.938 120.336,25.748 120.08,25.524 L120.08,25.524 L119.624,26.208 C119.88,26.44 120.188,26.642 120.548,26.814 C120.908,26.986 121.28,27.092 121.664,27.132 L121.664,27.132 L121.664,28.32 L122.384,28.32 Z M128.18,27.144 C128.492,27.144 128.784,27.084 129.056,26.964 C129.328,26.844 129.568,26.676 129.776,26.46 C129.984,26.244 130.148,25.986 130.268,25.686 C130.388,25.386 130.448,25.052 130.448,24.684 C130.448,23.892 130.25,23.3 129.854,22.908 C129.458,22.516 128.928,22.32 128.264,22.32 C127.952,22.32 127.636,22.406 127.316,22.578 C126.996,22.75 126.716,22.984 126.476,23.28 C126.484,22.672 126.544,22.162 126.656,21.75 C126.768,21.338 126.916,21.004 127.1,20.748 C127.284,20.492 127.496,20.308 127.736,20.196 C127.976,20.084 128.228,20.028 128.492,20.028 C128.732,20.028 128.962,20.082 129.182,20.19 C129.402,20.298 129.592,20.444 129.752,20.628 L129.752,20.628 L130.304,20.016 C130.088,19.784 129.83,19.59 129.53,19.434 C129.23,19.278 128.872,19.2 128.456,19.2 C128.072,19.2 127.706,19.278 127.358,19.434 C127.01,19.59 126.7,19.838 126.428,20.178 C126.156,20.518 125.94,20.958 125.78,21.498 C125.62,22.038 125.54,22.692 125.54,23.46 C125.54,24.076 125.608,24.614 125.744,25.074 C125.88,25.534 126.066,25.918 126.302,26.226 C126.538,26.534 126.816,26.764 127.136,26.916 C127.456,27.068 127.804,27.144 128.18,27.144 Z M128.18,26.364 C127.692,26.364 127.306,26.17 127.022,25.782 C126.738,25.394 126.564,24.824 126.5,24.072 C126.74,23.712 127.004,23.454 127.292,23.298 C127.58,23.142 127.848,23.064 128.096,23.064 C128.576,23.064 128.932,23.208 129.164,23.496 C129.396,23.784 129.512,24.18 129.512,24.684 C129.512,24.94 129.478,25.17 129.41,25.374 C129.342,25.578 129.248,25.754 129.128,25.902 C129.008,26.05 128.868,26.164 128.708,26.244 C128.548,26.324 128.372,26.364 128.18,26.364 Z M134.516,27 C134.956,27 135.36,26.952 135.728,26.856 C136.096,26.76 136.412,26.616 136.676,26.424 C136.94,26.232 137.144,25.992 137.288,25.704 C137.432,25.416 137.504,25.08 137.504,24.696 C137.504,24.152 137.356,23.724 137.06,23.412 C136.764,23.1 136.376,22.9 135.896,22.812 L135.896,22.812 L135.896,22.764 C136.272,22.644 136.558,22.426 136.754,22.11 C136.95,21.794 137.048,21.44 137.048,21.048 C137.048,20.704 136.982,20.41 136.85,20.166 C136.718,19.922 136.534,19.724 136.298,19.572 C136.062,19.42 135.778,19.308 135.446,19.236 C135.114,19.164 134.748,19.128 134.348,19.128 L134.348,19.128 L132.008,19.128 L132.008,27 L134.516,27 Z M134.168,22.476 L133.004,22.476 L133.004,19.92 L134.216,19.92 C134.832,19.92 135.294,20.016 135.602,20.208 C135.91,20.4 136.064,20.724 136.064,21.18 C136.064,21.58 135.916,21.896 135.62,22.128 C135.324,22.36 134.84,22.476 134.168,22.476 L134.168,22.476 Z M134.372,26.208 L133.004,26.208 L133.004,23.244 L134.372,23.244 C135.068,23.244 135.6,23.358 135.968,23.586 C136.336,23.814 136.52,24.172 136.52,24.66 C136.52,25.188 136.332,25.578 135.956,25.83 C135.58,26.082 135.052,26.208 134.372,26.208 L134.372,26.208 Z" id="Obligations$6B" fill="#555555" fill-rule="nonzero"></path>
                    <path d="M202.936,12.144 C203.392,12.144 203.802,12.078 204.166,11.946 C204.53,11.814 204.842,11.604 205.102,11.316 C205.362,11.028 205.56,10.658 205.696,10.206 C205.832,9.754 205.9,9.204 205.9,8.556 L205.9,8.556 L205.9,4.152 L204.568,4.152 L204.568,8.664 C204.568,9.088 204.528,9.446 204.448,9.738 C204.368,10.03 204.256,10.264 204.112,10.44 C203.968,10.616 203.796,10.742 203.596,10.818 C203.396,10.894 203.176,10.932 202.936,10.932 C202.696,10.932 202.48,10.894 202.288,10.818 C202.096,10.742 201.93,10.616 201.79,10.44 C201.65,10.264 201.542,10.03 201.466,9.738 C201.39,9.446 201.352,9.088 201.352,8.664 L201.352,8.664 L201.352,4.152 L199.96,4.152 L199.96,8.556 C199.96,9.204 200.03,9.754 200.17,10.206 C200.31,10.658 200.51,11.028 200.77,11.316 C201.03,11.604 201.342,11.814 201.706,11.946 C202.07,12.078 202.48,12.144 202.936,12.144 Z M209.116,12 L209.116,7.884 C209.364,7.644 209.586,7.462 209.782,7.338 C209.978,7.214 210.204,7.152 210.46,7.152 C210.788,7.152 211.024,7.252 211.168,7.452 C211.312,7.652 211.384,7.996 211.384,8.484 L211.384,8.484 L211.384,12 L212.764,12 L212.764,8.304 C212.764,7.552 212.62,6.974 212.332,6.57 C212.044,6.166 211.584,5.964 210.952,5.964 C210.544,5.964 210.186,6.056 209.878,6.24 C209.57,6.424 209.284,6.644 209.02,6.9 L209.02,6.9 L208.972,6.9 L208.876,6.108 L207.736,6.108 L207.736,12 L209.116,12 Z M216.868,12.144 C217.236,12.144 217.59,12.076 217.93,11.94 C218.27,11.804 218.568,11.604 218.824,11.34 C219.08,11.076 219.286,10.752 219.442,10.368 C219.598,9.984 219.676,9.548 219.676,9.06 C219.676,8.572 219.598,8.136 219.442,7.752 C219.286,7.368 219.08,7.044 218.824,6.78 C218.568,6.516 218.27,6.314 217.93,6.174 C217.59,6.034 217.236,5.964 216.868,5.964 C216.5,5.964 216.148,6.034 215.812,6.174 C215.476,6.314 215.178,6.516 214.918,6.78 C214.658,7.044 214.452,7.368 214.3,7.752 C214.148,8.136 214.072,8.572 214.072,9.06 C214.072,9.548 214.148,9.984 214.3,10.368 C214.452,10.752 214.658,11.076 214.918,11.34 C215.178,11.604 215.476,11.804 215.812,11.94 C216.148,12.076 216.5,12.144 216.868,12.144 Z M216.868,11.016 C216.436,11.016 216.098,10.838 215.854,10.482 C215.61,10.126 215.488,9.652 215.488,9.06 C215.488,8.46 215.61,7.982 215.854,7.626 C216.098,7.27 216.436,7.092 216.868,7.092 C217.3,7.092 217.64,7.27 217.888,7.626 C218.136,7.982 218.26,8.46 218.26,9.06 C218.26,9.652 218.136,10.126 217.888,10.482 C217.64,10.838 217.3,11.016 216.868,11.016 Z M223.9,12.144 C224.228,12.144 224.544,12.072 224.848,11.928 C225.152,11.784 225.42,11.576 225.652,11.304 C225.884,11.032 226.07,10.698 226.21,10.302 C226.35,9.906 226.42,9.456 226.42,8.952 C226.42,8.496 226.368,8.084 226.264,7.716 C226.16,7.348 226.008,7.034 225.808,6.774 C225.608,6.514 225.364,6.314 225.076,6.174 C224.788,6.034 224.46,5.964 224.092,5.964 C223.788,5.964 223.49,6.032 223.198,6.168 C222.906,6.304 222.636,6.48 222.388,6.696 L222.388,6.696 L222.424,5.712 L222.424,3.528 L221.044,3.528 L221.044,12 L222.136,12 L222.256,11.376 L222.292,11.376 C222.54,11.624 222.802,11.814 223.078,11.946 C223.354,12.078 223.628,12.144 223.9,12.144 Z M223.612,11.004 C223.436,11.004 223.246,10.968 223.042,10.896 C222.838,10.824 222.632,10.696 222.424,10.512 L222.424,10.512 L222.424,7.764 C222.872,7.324 223.304,7.104 223.72,7.104 C224.168,7.104 224.492,7.268 224.692,7.596 C224.892,7.924 224.992,8.384 224.992,8.976 C224.992,9.648 224.86,10.154 224.596,10.494 C224.332,10.834 224.004,11.004 223.612,11.004 Z M229.144,12.144 C229.448,12.144 229.692,12.104 229.876,12.024 L229.876,12.024 L229.696,10.992 C229.64,11.008 229.598,11.016 229.57,11.016 L229.57,11.016 L229.48,11.016 C229.408,11.016 229.34,10.982 229.276,10.914 C229.212,10.846 229.18,10.728 229.18,10.56 L229.18,10.56 L229.18,3.528 L227.8,3.528 L227.8,10.488 C227.8,11 227.9,11.404 228.1,11.7 C228.3,11.996 228.648,12.144 229.144,12.144 Z M231.748,5.076 C231.996,5.076 232.2,5.004 232.36,4.86 C232.52,4.716 232.6,4.528 232.6,4.296 C232.6,4.064 232.52,3.874 232.36,3.726 C232.2,3.578 231.996,3.504 231.748,3.504 C231.5,3.504 231.296,3.578 231.136,3.726 C230.976,3.874 230.896,4.064 230.896,4.296 C230.896,4.528 230.976,4.716 231.136,4.86 C231.296,5.004 231.5,5.076 231.748,5.076 Z M232.432,12 L232.432,6.108 L231.052,6.108 L231.052,12 L232.432,12 Z M236.248,14.604 C236.728,14.604 237.162,14.55 237.55,14.442 C237.938,14.334 238.268,14.188 238.54,14.004 C238.812,13.82 239.022,13.6 239.17,13.344 C239.318,13.088 239.392,12.816 239.392,12.528 C239.392,12.016 239.21,11.646 238.846,11.418 C238.482,11.19 237.944,11.076 237.232,11.076 L237.232,11.076 L236.188,11.076 C235.828,11.076 235.578,11.028 235.438,10.932 C235.298,10.836 235.228,10.704 235.228,10.536 C235.228,10.4 235.254,10.292 235.306,10.212 C235.358,10.132 235.428,10.052 235.516,9.972 C235.652,10.028 235.788,10.068 235.924,10.092 C236.06,10.116 236.192,10.128 236.32,10.128 C236.632,10.128 236.924,10.084 237.196,9.996 C237.468,9.908 237.704,9.78 237.904,9.612 C238.104,9.444 238.262,9.236 238.378,8.988 C238.494,8.74 238.552,8.452 238.552,8.124 C238.552,7.916 238.52,7.726 238.456,7.554 C238.392,7.382 238.312,7.24 238.216,7.128 L238.216,7.128 L239.296,7.128 L239.296,6.108 L237.184,6.108 C237.064,6.068 236.93,6.034 236.782,6.006 C236.634,5.978 236.48,5.964 236.32,5.964 C236.008,5.964 235.712,6.01 235.432,6.102 C235.152,6.194 234.906,6.33 234.694,6.51 C234.482,6.69 234.312,6.912 234.184,7.176 C234.056,7.44 233.992,7.74 233.992,8.076 C233.992,8.428 234.07,8.738 234.226,9.006 C234.382,9.274 234.56,9.484 234.76,9.636 L234.76,9.636 L234.76,9.684 C234.592,9.804 234.442,9.958 234.31,10.146 C234.178,10.334 234.112,10.544 234.112,10.776 C234.112,11.016 234.162,11.216 234.262,11.376 C234.362,11.536 234.488,11.664 234.64,11.76 L234.64,11.76 L234.64,11.808 C234.368,11.976 234.16,12.166 234.016,12.378 C233.872,12.59 233.8,12.82 233.8,13.068 C233.8,13.324 233.862,13.548 233.986,13.74 C234.11,13.932 234.28,14.092 234.496,14.22 C234.712,14.348 234.97,14.444 235.27,14.508 C235.57,14.572 235.896,14.604 236.248,14.604 Z M236.32,9.264 C236.032,9.264 235.788,9.162 235.588,8.958 C235.388,8.754 235.288,8.46 235.288,8.076 C235.288,7.7 235.388,7.412 235.588,7.212 C235.788,7.012 236.032,6.912 236.32,6.912 C236.608,6.912 236.85,7.014 237.046,7.218 C237.242,7.422 237.34,7.708 237.34,8.076 C237.34,8.46 237.24,8.754 237.04,8.958 C236.84,9.162 236.6,9.264 236.32,9.264 Z M236.464,13.704 C235.992,13.704 235.622,13.63 235.354,13.482 C235.086,13.334 234.952,13.128 234.952,12.864 C234.952,12.576 235.104,12.316 235.408,12.084 C235.624,12.14 235.892,12.168 236.212,12.168 L236.212,12.168 L237.016,12.168 C237.352,12.168 237.61,12.208 237.79,12.288 C237.97,12.368 238.06,12.524 238.06,12.756 C238.06,13.012 237.914,13.234 237.622,13.422 C237.33,13.61 236.944,13.704 236.464,13.704 Z M241.648,12.144 C242,12.144 242.326,12.068 242.626,11.916 C242.926,11.764 243.208,11.576 243.472,11.352 L243.472,11.352 L243.52,11.352 L243.616,12 L244.756,12 L244.756,8.508 C244.756,7.684 244.574,7.054 244.21,6.618 C243.846,6.182 243.296,5.964 242.56,5.964 C242.088,5.964 241.648,6.04 241.24,6.192 C240.832,6.344 240.464,6.524 240.136,6.732 L240.136,6.732 L240.64,7.656 C240.904,7.496 241.174,7.36 241.45,7.248 C241.726,7.136 242.008,7.08 242.296,7.08 C242.496,7.08 242.664,7.11 242.8,7.17 C242.936,7.23 243.046,7.314 243.13,7.422 C243.214,7.53 243.274,7.654 243.31,7.794 C243.346,7.934 243.368,8.08 243.376,8.232 C242.768,8.296 242.246,8.388 241.81,8.508 C241.374,8.628 241.014,8.776 240.73,8.952 C240.446,9.128 240.238,9.338 240.106,9.582 C239.974,9.826 239.908,10.104 239.908,10.416 C239.908,10.936 240.068,11.354 240.388,11.67 C240.708,11.986 241.128,12.144 241.648,12.144 Z M242.092,11.064 C241.844,11.064 241.64,11.004 241.48,10.884 C241.32,10.764 241.24,10.572 241.24,10.308 C241.24,10.164 241.276,10.028 241.348,9.9 C241.42,9.772 241.54,9.658 241.708,9.558 C241.876,9.458 242.096,9.368 242.368,9.288 C242.64,9.208 242.976,9.144 243.376,9.096 L243.376,9.096 L243.376,10.416 C243.152,10.624 242.942,10.784 242.746,10.896 C242.55,11.008 242.332,11.064 242.092,11.064 Z M248.296,12.144 C248.528,12.144 248.746,12.122 248.95,12.078 C249.154,12.034 249.336,11.984 249.496,11.928 L249.496,11.928 L249.256,10.908 C249.168,10.948 249.07,10.98 248.962,11.004 C248.854,11.028 248.748,11.04 248.644,11.04 C248.092,11.04 247.816,10.696 247.816,10.008 L247.816,10.008 L247.816,7.2 L249.316,7.2 L249.316,6.108 L247.816,6.108 L247.816,4.5 L246.664,4.5 L246.496,6.108 L245.584,6.168 L245.584,7.2 L246.424,7.2 L246.424,10.008 C246.424,10.328 246.458,10.618 246.526,10.878 C246.594,11.138 246.702,11.362 246.85,11.55 C246.998,11.738 247.19,11.884 247.426,11.988 C247.662,12.092 247.952,12.144 248.296,12.144 Z M252.88,12.144 C253.256,12.144 253.616,12.084 253.96,11.964 C254.304,11.844 254.616,11.692 254.896,11.508 L254.896,11.508 L254.428,10.644 C254.212,10.78 253.994,10.886 253.774,10.962 C253.554,11.038 253.316,11.076 253.06,11.076 C252.58,11.076 252.186,10.934 251.878,10.65 C251.57,10.366 251.384,9.96 251.32,9.432 L251.32,9.432 L255.064,9.432 C255.08,9.36 255.094,9.264 255.106,9.144 C255.118,9.024 255.124,8.896 255.124,8.76 C255.124,8.352 255.072,7.976 254.968,7.632 C254.864,7.288 254.71,6.992 254.506,6.744 C254.302,6.496 254.048,6.304 253.744,6.168 C253.44,6.032 253.088,5.964 252.688,5.964 C252.344,5.964 252.008,6.036 251.68,6.18 C251.352,6.324 251.062,6.528 250.81,6.792 C250.558,7.056 250.356,7.38 250.204,7.764 C250.052,8.148 249.976,8.58 249.976,9.06 C249.976,9.548 250.05,9.982 250.198,10.362 C250.346,10.742 250.552,11.064 250.816,11.328 C251.08,11.592 251.388,11.794 251.74,11.934 C252.092,12.074 252.472,12.144 252.88,12.144 Z M253.924,8.496 L251.308,8.496 C251.372,8.016 251.536,7.652 251.8,7.404 C252.064,7.156 252.372,7.032 252.724,7.032 C253.132,7.032 253.434,7.162 253.63,7.422 C253.826,7.682 253.924,8.04 253.924,8.496 L253.924,8.496 Z M258.508,12.144 C258.828,12.144 259.132,12.068 259.42,11.916 C259.708,11.764 259.96,11.58 260.176,11.364 L260.176,11.364 L260.224,11.364 L260.32,12 L261.46,12 L261.46,3.528 L260.08,3.528 L260.08,5.664 L260.128,6.612 C259.896,6.412 259.664,6.254 259.432,6.138 C259.2,6.022 258.916,5.964 258.58,5.964 C258.26,5.964 257.95,6.036 257.65,6.18 C257.35,6.324 257.084,6.528 256.852,6.792 C256.62,7.056 256.434,7.38 256.294,7.764 C256.154,8.148 256.084,8.58 256.084,9.06 C256.084,10.036 256.302,10.794 256.738,11.334 C257.174,11.874 257.764,12.144 258.508,12.144 Z M258.844,11.004 C258.412,11.004 258.082,10.838 257.854,10.506 C257.626,10.174 257.512,9.688 257.512,9.048 C257.512,8.424 257.644,7.944 257.908,7.608 C258.172,7.272 258.496,7.104 258.88,7.104 C259.08,7.104 259.278,7.14 259.474,7.212 C259.67,7.284 259.872,7.412 260.08,7.596 L260.08,7.596 L260.08,10.344 C259.696,10.784 259.284,11.004 258.844,11.004 Z M202.384,28.32 L202.384,27.108 C202.96,27.028 203.414,26.804 203.746,26.436 C204.078,26.068 204.244,25.596 204.244,25.02 C204.244,24.588 204.162,24.234 203.998,23.958 C203.834,23.682 203.628,23.45 203.38,23.262 C203.132,23.074 202.862,22.914 202.57,22.782 C202.278,22.65 202.008,22.514 201.76,22.374 C201.512,22.234 201.306,22.072 201.142,21.888 C200.978,21.704 200.896,21.468 200.896,21.18 C200.896,20.828 201.004,20.548 201.22,20.34 C201.436,20.132 201.728,20.028 202.096,20.028 C202.424,20.028 202.694,20.088 202.906,20.208 C203.118,20.328 203.336,20.496 203.56,20.712 L203.56,20.712 L204.088,20.124 C203.872,19.892 203.63,19.692 203.362,19.524 C203.094,19.356 202.768,19.252 202.384,19.212 L202.384,19.212 L202.384,18.024 L201.664,18.024 L201.664,19.236 C201.136,19.316 200.714,19.534 200.398,19.89 C200.082,20.246 199.924,20.692 199.924,21.228 C199.924,21.62 200.006,21.942 200.17,22.194 C200.334,22.446 200.54,22.66 200.788,22.836 C201.036,23.012 201.306,23.168 201.598,23.304 C201.89,23.44 202.16,23.586 202.408,23.742 C202.656,23.898 202.862,24.082 203.026,24.294 C203.19,24.506 203.272,24.772 203.272,25.092 C203.272,25.468 203.162,25.768 202.942,25.992 C202.722,26.216 202.388,26.328 201.94,26.328 C201.572,26.328 201.234,26.25 200.926,26.094 C200.618,25.938 200.336,25.748 200.08,25.524 L200.08,25.524 L199.624,26.208 C199.88,26.44 200.188,26.642 200.548,26.814 C200.908,26.986 201.28,27.092 201.664,27.132 L201.664,27.132 L201.664,28.32 L202.384,28.32 Z M210.232,27 L210.232,26.184 L208.648,26.184 L208.648,19.344 L207.892,19.344 C207.684,19.472 207.45,19.582 207.19,19.674 C206.93,19.766 206.624,19.844 206.272,19.908 L206.272,19.908 L206.272,20.544 L207.664,20.544 L207.664,26.184 L205.912,26.184 L205.912,27 L210.232,27 Z M214.516,27 C214.956,27 215.36,26.952 215.728,26.856 C216.096,26.76 216.412,26.616 216.676,26.424 C216.94,26.232 217.144,25.992 217.288,25.704 C217.432,25.416 217.504,25.08 217.504,24.696 C217.504,24.152 217.356,23.724 217.06,23.412 C216.764,23.1 216.376,22.9 215.896,22.812 L215.896,22.812 L215.896,22.764 C216.272,22.644 216.558,22.426 216.754,22.11 C216.95,21.794 217.048,21.44 217.048,21.048 C217.048,20.704 216.982,20.41 216.85,20.166 C216.718,19.922 216.534,19.724 216.298,19.572 C216.062,19.42 215.778,19.308 215.446,19.236 C215.114,19.164 214.748,19.128 214.348,19.128 L214.348,19.128 L212.008,19.128 L212.008,27 L214.516,27 Z M214.168,22.476 L213.004,22.476 L213.004,19.92 L214.216,19.92 C214.832,19.92 215.294,20.016 215.602,20.208 C215.91,20.4 216.064,20.724 216.064,21.18 C216.064,21.58 215.916,21.896 215.62,22.128 C215.324,22.36 214.84,22.476 214.168,22.476 L214.168,22.476 Z M214.372,26.208 L213.004,26.208 L213.004,23.244 L214.372,23.244 C215.068,23.244 215.6,23.358 215.968,23.586 C216.336,23.814 216.52,24.172 216.52,24.66 C216.52,25.188 216.332,25.578 215.956,25.83 C215.58,26.082 215.052,26.208 214.372,26.208 L214.372,26.208 Z" id="Unobligated$1B" fill="#555555" fill-rule="nonzero"></path>
                    <path d="M39,0 L33,0 C31.8954305,2.02906125e-16 31,0.8954305 31,2 L31,28 C31,29.1045695 31.8954305,30 33,30 L39,30 L39,30" id="Line-2" stroke="#C6C6C6" stroke-linecap="round"></path>
                    <line x1="30.5" y1="16.5" x2="0.5" y2="16.5" id="Line-4" stroke="#C6C6C6" stroke-linecap="round"></line>
                </g>
                <path d="M16.992,27.76 L16.992,26.096 C17.824,25.9146667 18.448,25.5493333 18.864,25 C19.28,24.4506667 19.488,23.792 19.488,23.024 C19.488,22.512 19.384,22.0826667 19.176,21.736 C18.968,21.3893333 18.7066667,21.0933333 18.392,20.848 C18.0773333,20.6026667 17.7386667,20.3946667 17.376,20.224 C17.0133333,20.0533333 16.6746667,19.888 16.36,19.728 C16.0453333,19.568 15.784,19.4 15.576,19.224 C15.368,19.048 15.264,18.832 15.264,18.576 C15.264,18.2133333 15.3653333,17.952 15.568,17.792 C15.7706667,17.632 16.064,17.552 16.448,17.552 C16.7893333,17.552 17.0933333,17.6186667 17.36,17.752 C17.6266667,17.8853333 17.904,18.0853333 18.192,18.352 L18.192,18.352 L19.376,17.008 C19.0666667,16.6773333 18.72,16.3946667 18.336,16.16 C17.952,15.9253333 17.504,15.7706667 16.992,15.696 L16.992,15.696 L16.992,14.08 L15.44,14.08 L15.44,15.728 C14.6826667,15.8773333 14.088,16.2106667 13.656,16.728 C13.224,17.2453333 13.008,17.8986667 13.008,18.688 C13.008,19.168 13.112,19.5733333 13.32,19.904 C13.528,20.2346667 13.7893333,20.5226667 14.104,20.768 C14.4186667,21.0133333 14.7573333,21.224 15.12,21.4 C15.4826667,21.576 15.8213333,21.752 16.136,21.928 C16.4506667,22.104 16.712,22.288 16.92,22.48 C17.128,22.672 17.232,22.9066667 17.232,23.184 C17.232,23.5573333 17.128,23.8346667 16.92,24.016 C16.712,24.1973333 16.384,24.288 15.936,24.288 C15.552,24.288 15.176,24.2106667 14.808,24.056 C14.44,23.9013333 14.0533333,23.6693333 13.648,23.36 L13.648,23.36 L12.624,24.944 C12.9973333,25.2853333 13.4426667,25.56 13.96,25.768 C14.4773333,25.976 14.9706667,26.1066667 15.44,26.16 L15.44,26.16 L15.44,27.76 L16.992,27.76 Z M24.656,26.192 C25.2,26.192 25.6933333,26.12 26.136,25.976 C26.5786667,25.832 26.9573333,25.6346667 27.272,25.384 C27.5866667,25.1333333 27.8293333,24.8373333 28,24.496 C28.1706667,24.1546667 28.256,23.7813333 28.256,23.376 C28.256,22.704 28.0853333,22.16 27.744,21.744 C27.4026667,21.328 26.9866667,20.9866667 26.496,20.72 L26.496,20.72 L26.496,20.656 C26.848,20.4213333 27.1573333,20.1146667 27.424,19.736 C27.6906667,19.3573333 27.824,18.9226667 27.824,18.432 C27.824,18.016 27.7493333,17.6346667 27.6,17.288 C27.4506667,16.9413333 27.2426667,16.648 26.976,16.408 C26.7093333,16.168 26.384,15.9813333 26,15.848 C25.616,15.7146667 25.1946667,15.648 24.736,15.648 C24.2666667,15.648 23.832,15.712 23.432,15.84 C23.032,15.968 22.688,16.1546667 22.4,16.4 C22.112,16.6453333 21.888,16.9413333 21.728,17.288 C21.568,17.6346667 21.488,18.0213333 21.488,18.448 C21.488,18.992 21.616,19.4533333 21.872,19.832 C22.128,20.2106667 22.4533333,20.5493333 22.848,20.848 L22.848,20.848 L22.848,20.912 C22.368,21.168 21.96,21.4933333 21.624,21.888 C21.288,22.2826667 21.12,22.7893333 21.12,23.408 C21.12,23.824 21.208,24.2026667 21.384,24.544 C21.56,24.8853333 21.8053333,25.1786667 22.12,25.424 C22.4346667,25.6693333 22.808,25.8586667 23.24,25.992 C23.672,26.1253333 24.144,26.192 24.656,26.192 Z M25.296,20.08 C24.7733333,19.8773333 24.352,19.6586667 24.032,19.424 C23.712,19.1893333 23.552,18.864 23.552,18.448 C23.552,18.0533333 23.664,17.76 23.888,17.568 C24.112,17.376 24.3786667,17.28 24.688,17.28 C25.072,17.28 25.3733333,17.4 25.592,17.64 C25.8106667,17.88 25.92,18.1973333 25.92,18.592 C25.92,19.104 25.712,19.6 25.296,20.08 Z M24.704,24.56 C24.2773333,24.56 23.9093333,24.4346667 23.6,24.184 C23.2906667,23.9333333 23.136,23.584 23.136,23.136 C23.136,22.8266667 23.2106667,22.5333333 23.36,22.256 C23.5093333,21.9786667 23.696,21.7333333 23.92,21.52 C24.24,21.6586667 24.5306667,21.7866667 24.792,21.904 C25.0533333,22.0213333 25.28,22.1466667 25.472,22.28 C25.664,22.4133333 25.8106667,22.56 25.912,22.72 C26.0133333,22.88 26.064,23.072 26.064,23.296 C26.064,23.7226667 25.936,24.04 25.68,24.248 C25.424,24.456 25.0986667,24.56 24.704,24.56 Z M34,26 C34.5653333,26 35.0933333,25.9386667 35.584,25.816 C36.0746667,25.6933333 36.504,25.5066667 36.872,25.256 C37.24,25.0053333 37.528,24.688 37.736,24.304 C37.944,23.92 38.048,23.4613333 38.048,22.928 C38.048,22.576 38,22.264 37.904,21.992 C37.808,21.72 37.6746667,21.4826667 37.504,21.28 C37.3333333,21.0773333 37.136,20.9093333 36.912,20.776 C36.688,20.6426667 36.4426667,20.544 36.176,20.48 L36.176,20.48 L36.176,20.416 C36.3893333,20.3413333 36.5786667,20.224 36.744,20.064 C36.9093333,19.904 37.0506667,19.7226667 37.168,19.52 C37.2853333,19.3173333 37.376,19.0986667 37.44,18.864 C37.504,18.6293333 37.536,18.3946667 37.536,18.16 C37.536,17.6586667 37.4373333,17.2426667 37.24,16.912 C37.0426667,16.5813333 36.7706667,16.3146667 36.424,16.112 C36.0773333,15.9093333 35.672,15.768 35.208,15.688 C34.744,15.608 34.24,15.568 33.696,15.568 L33.696,15.568 L30.128,15.568 L30.128,26 L34,26 Z M33.584,19.744 L32.48,19.744 L32.48,17.392 L33.6,17.392 C34.1546667,17.392 34.5653333,17.4773333 34.832,17.648 C35.0986667,17.8186667 35.232,18.1066667 35.232,18.512 C35.232,18.8853333 35.1013333,19.184 34.84,19.408 C34.5786667,19.632 34.16,19.744 33.584,19.744 L33.584,19.744 Z M33.808,24.176 L32.48,24.176 L32.48,21.488 L33.808,21.488 C34.4586667,21.488 34.944,21.5866667 35.264,21.784 C35.584,21.9813333 35.744,22.3093333 35.744,22.768 C35.744,23.7066667 35.0986667,24.176 33.808,24.176 L33.808,24.176 Z" id="$8B" fill="#555555" fill-rule="nonzero"></path>
            </g>
        </g>
    </g>
</svg>