<?xml version="1.0" encoding="UTF-8"?>
<svg width="262px" height="80px" viewBox="0 0 262 80" version="1.1" xmlns="http://www.w3.org/2000/svg" xmlns:xlink="http://www.w3.org/1999/xlink">
    <title>law 1 - A General</title>
    <g id="SVG-2.0" stroke="none" stroke-width="1" fill="none" fill-rule="evenodd">
        <g id="viz-3-mobile-outline" transform="translate(-38.000000, -542.000000)">
            <g id="law-1---A-General" transform="translate(38.000000, 542.000000)">
                <path d="M87,30 L87,35.9411765 C87,37.045746 86.1045695,37.9411765 85,37.9411765 L57,37.9411765 C55.8954305,37.9411765 55,38.836607 55,39.9411765 L55,48 L55,48" id="Line-Copy-10" stroke="#C6C6C6" stroke-linecap="round" transform="translate(71.000000, 39.000000) scale(-1, 1) translate(-71.000000, -39.000000) "></path>
                <g id="bar---phase-3-general" transform="translate(0.000000, 4.000000)">
                    <path d="M4.044,59.144 C4.556,59.144 5.024,59.05 5.448,58.862 C5.872,58.674 6.238,58.402 6.546,58.046 C6.854,57.69 7.092,57.26 7.26,56.756 C7.428,56.252 7.512,55.68 7.512,55.04 C7.512,54.408 7.428,53.842 7.26,53.342 C7.092,52.842 6.854,52.42 6.546,52.076 C6.238,51.732 5.872,51.468 5.448,51.284 C5.024,51.1 4.556,51.008 4.044,51.008 C3.532,51.008 3.064,51.1 2.64,51.284 C2.216,51.468 1.852,51.732 1.548,52.076 C1.244,52.42 1.008,52.842 0.84,53.342 C0.672,53.842 0.588,54.408 0.588,55.04 C0.588,55.68 0.672,56.252 0.84,56.756 C1.008,57.26 1.244,57.69 1.548,58.046 C1.852,58.402 2.216,58.674 2.64,58.862 C3.064,59.05 3.532,59.144 4.044,59.144 Z M4.044,57.932 C3.732,57.932 3.452,57.864 3.204,57.728 C2.956,57.592 2.744,57.398 2.568,57.146 C2.392,56.894 2.256,56.59 2.16,56.234 C2.064,55.878 2.016,55.48 2.016,55.04 C2.016,54.16 2.198,53.47 2.562,52.97 C2.926,52.47 3.42,52.22 4.044,52.22 C4.668,52.22 5.162,52.47 5.526,52.97 C5.89,53.47 6.072,54.16 6.072,55.04 C6.072,55.48 6.024,55.878 5.928,56.234 C5.832,56.59 5.696,56.894 5.52,57.146 C5.344,57.398 5.132,57.592 4.884,57.728 C4.636,57.864 4.356,57.932 4.044,57.932 Z M10.716,59.144 C11.124,59.144 11.478,59.052 11.778,58.868 C12.078,58.684 12.356,58.44 12.612,58.136 L12.612,58.136 L12.648,58.136 L12.756,59 L13.884,59 L13.884,53.108 L12.504,53.108 L12.504,57.14 C12.28,57.428 12.07,57.636 11.874,57.764 C11.678,57.892 11.452,57.956 11.196,57.956 C10.876,57.956 10.644,57.856 10.5,57.656 C10.356,57.456 10.284,57.112 10.284,56.624 L10.284,56.624 L10.284,53.108 L8.904,53.108 L8.904,56.804 C8.904,57.556 9.048,58.134 9.336,58.538 C9.624,58.942 10.084,59.144 10.716,59.144 Z M17.712,59.144 C17.944,59.144 18.162,59.122 18.366,59.078 C18.57,59.034 18.752,58.984 18.912,58.928 L18.912,58.928 L18.672,57.908 C18.584,57.948 18.486,57.98 18.378,58.004 C18.27,58.028 18.164,58.04 18.06,58.04 C17.508,58.04 17.232,57.696 17.232,57.008 L17.232,57.008 L17.232,54.2 L18.732,54.2 L18.732,53.108 L17.232,53.108 L17.232,51.5 L16.08,51.5 L15.912,53.108 L15,53.168 L15,54.2 L15.84,54.2 L15.84,57.008 C15.84,57.328 15.874,57.618 15.942,57.878 C16.01,58.138 16.118,58.362 16.266,58.55 C16.414,58.738 16.606,58.884 16.842,58.988 C17.078,59.092 17.368,59.144 17.712,59.144 Z M21.312,59.144 C21.616,59.144 21.86,59.104 22.044,59.024 L22.044,59.024 L21.864,57.992 C21.808,58.008 21.766,58.016 21.738,58.016 L21.738,58.016 L21.648,58.016 C21.576,58.016 21.508,57.982 21.444,57.914 C21.38,57.846 21.348,57.728 21.348,57.56 L21.348,57.56 L21.348,50.528 L19.968,50.528 L19.968,57.488 C19.968,58 20.068,58.404 20.268,58.7 C20.468,58.996 20.816,59.144 21.312,59.144 Z M24.648,59.144 C25,59.144 25.326,59.068 25.626,58.916 C25.926,58.764 26.208,58.576 26.472,58.352 L26.472,58.352 L26.52,58.352 L26.616,59 L27.756,59 L27.756,55.508 C27.756,54.684 27.574,54.054 27.21,53.618 C26.846,53.182 26.296,52.964 25.56,52.964 C25.088,52.964 24.648,53.04 24.24,53.192 C23.832,53.344 23.464,53.524 23.136,53.732 L23.136,53.732 L23.64,54.656 C23.904,54.496 24.174,54.36 24.45,54.248 C24.726,54.136 25.008,54.08 25.296,54.08 C25.496,54.08 25.664,54.11 25.8,54.17 C25.936,54.23 26.046,54.314 26.13,54.422 C26.214,54.53 26.274,54.654 26.31,54.794 C26.346,54.934 26.368,55.08 26.376,55.232 C25.768,55.296 25.246,55.388 24.81,55.508 C24.374,55.628 24.014,55.776 23.73,55.952 C23.446,56.128 23.238,56.338 23.106,56.582 C22.974,56.826 22.908,57.104 22.908,57.416 C22.908,57.936 23.068,58.354 23.388,58.67 C23.708,58.986 24.128,59.144 24.648,59.144 Z M25.092,58.064 C24.844,58.064 24.64,58.004 24.48,57.884 C24.32,57.764 24.24,57.572 24.24,57.308 C24.24,57.164 24.276,57.028 24.348,56.9 C24.42,56.772 24.54,56.658 24.708,56.558 C24.876,56.458 25.096,56.368 25.368,56.288 C25.64,56.208 25.976,56.144 26.376,56.096 L26.376,56.096 L26.376,57.416 C26.152,57.624 25.942,57.784 25.746,57.896 C25.55,58.008 25.332,58.064 25.092,58.064 Z M29.808,61.424 C30.128,61.424 30.41,61.374 30.654,61.274 C30.898,61.174 31.114,61.03 31.302,60.842 C31.49,60.654 31.656,60.428 31.8,60.164 C31.944,59.9 32.076,59.6 32.196,59.264 L32.196,59.264 L34.332,53.108 L33,53.108 L32.112,56 C32.04,56.264 31.966,56.538 31.89,56.822 C31.814,57.106 31.74,57.384 31.668,57.656 L31.668,57.656 L31.62,57.656 C31.532,57.376 31.446,57.094 31.362,56.81 C31.278,56.526 31.192,56.256 31.104,56 L31.104,56 L30.084,53.108 L28.68,53.108 L30.996,58.928 L30.888,59.3 C30.792,59.596 30.65,59.838 30.462,60.026 C30.274,60.214 30.024,60.308 29.712,60.308 C29.64,60.308 29.566,60.298 29.49,60.278 C29.414,60.258 29.348,60.24 29.292,60.224 L29.292,60.224 L29.04,61.304 C29.152,61.344 29.268,61.374 29.388,61.394 C29.508,61.414 29.648,61.424 29.808,61.424 Z M36.996,59.144 C37.364,59.144 37.692,59.096 37.98,59 C38.268,58.904 38.508,58.774 38.7,58.61 C38.892,58.446 39.038,58.254 39.138,58.034 C39.238,57.814 39.288,57.576 39.288,57.32 C39.288,57.048 39.238,56.814 39.138,56.618 C39.038,56.422 38.906,56.256 38.742,56.12 C38.578,55.984 38.396,55.87 38.196,55.778 C37.996,55.686 37.796,55.604 37.596,55.532 C37.436,55.476 37.282,55.42 37.134,55.364 C36.986,55.308 36.856,55.248 36.744,55.184 C36.632,55.12 36.542,55.046 36.474,54.962 C36.406,54.878 36.372,54.776 36.372,54.656 C36.372,54.472 36.442,54.318 36.582,54.194 C36.722,54.07 36.94,54.008 37.236,54.008 C37.468,54.008 37.69,54.054 37.902,54.146 C38.114,54.238 38.324,54.36 38.532,54.512 L38.532,54.512 L39.168,53.672 C38.928,53.488 38.644,53.324 38.316,53.18 C37.988,53.036 37.62,52.964 37.212,52.964 C36.548,52.964 36.024,53.128 35.64,53.456 C35.256,53.784 35.064,54.208 35.064,54.728 C35.064,54.976 35.114,55.19 35.214,55.37 C35.314,55.55 35.442,55.708 35.598,55.844 C35.754,55.98 35.932,56.096 36.132,56.192 C36.332,56.288 36.528,56.372 36.72,56.444 C36.872,56.508 37.024,56.57 37.176,56.63 C37.328,56.69 37.464,56.756 37.584,56.828 C37.704,56.9 37.8,56.982 37.872,57.074 C37.944,57.166 37.98,57.272 37.98,57.392 C37.98,57.6 37.904,57.77 37.752,57.902 C37.6,58.034 37.364,58.1 37.044,58.1 C36.74,58.1 36.458,58.042 36.198,57.926 C35.938,57.81 35.676,57.648 35.412,57.44 L35.412,57.44 L34.764,58.328 C35.052,58.56 35.394,58.754 35.79,58.91 C36.186,59.066 36.588,59.144 36.996,59.144 Z M3.384,75.32 L3.384,74.108 C3.96,74.028 4.414,73.804 4.746,73.436 C5.078,73.068 5.244,72.596 5.244,72.02 C5.244,71.588 5.162,71.234 4.998,70.958 C4.834,70.682 4.628,70.45 4.38,70.262 C4.132,70.074 3.862,69.914 3.57,69.782 C3.278,69.65 3.008,69.514 2.76,69.374 C2.512,69.234 2.306,69.072 2.142,68.888 C1.978,68.704 1.896,68.468 1.896,68.18 C1.896,67.828 2.004,67.548 2.22,67.34 C2.436,67.132 2.728,67.028 3.096,67.028 C3.424,67.028 3.694,67.088 3.906,67.208 C4.118,67.328 4.336,67.496 4.56,67.712 L4.56,67.712 L5.088,67.124 C4.872,66.892 4.63,66.692 4.362,66.524 C4.094,66.356 3.768,66.252 3.384,66.212 L3.384,66.212 L3.384,65.024 L2.664,65.024 L2.664,66.236 C2.136,66.316 1.714,66.534 1.398,66.89 C1.082,67.246 0.924,67.692 0.924,68.228 C0.924,68.62 1.006,68.942 1.17,69.194 C1.334,69.446 1.54,69.66 1.788,69.836 C2.036,70.012 2.306,70.168 2.598,70.304 C2.89,70.44 3.16,70.586 3.408,70.742 C3.656,70.898 3.862,71.082 4.026,71.294 C4.19,71.506 4.272,71.772 4.272,72.092 C4.272,72.468 4.162,72.768 3.942,72.992 C3.722,73.216 3.388,73.328 2.94,73.328 C2.572,73.328 2.234,73.25 1.926,73.094 C1.618,72.938 1.336,72.748 1.08,72.524 L1.08,72.524 L0.624,73.208 C0.88,73.44 1.188,73.642 1.548,73.814 C1.908,73.986 2.28,74.092 2.664,74.132 L2.664,74.132 L2.664,75.32 L3.384,75.32 Z M11.388,74 L11.388,73.148 L9.168,73.148 C8.968,73.148 8.756,73.156 8.532,73.172 C8.308,73.188 8.092,73.204 7.884,73.22 C8.34,72.748 8.758,72.302 9.138,71.882 C9.518,71.462 9.846,71.058 10.122,70.67 C10.398,70.282 10.614,69.906 10.77,69.542 C10.926,69.178 11.004,68.816 11.004,68.456 C11.004,67.776 10.8,67.23 10.392,66.818 C9.984,66.406 9.424,66.2 8.712,66.2 C8.208,66.2 7.776,66.306 7.416,66.518 C7.056,66.73 6.716,67.012 6.396,67.364 L6.396,67.364 L6.96,67.928 C7.184,67.672 7.432,67.454 7.704,67.274 C7.976,67.094 8.272,67.004 8.592,67.004 C9.08,67.004 9.444,67.144 9.684,67.424 C9.924,67.704 10.044,68.064 10.044,68.504 C10.044,68.816 9.964,69.138 9.804,69.47 C9.644,69.802 9.412,70.166 9.108,70.562 C8.804,70.958 8.428,71.388 7.98,71.852 C7.532,72.316 7.02,72.836 6.444,73.412 L6.444,73.412 L6.444,74 L11.388,74 Z M15.516,74 C15.956,74 16.36,73.952 16.728,73.856 C17.096,73.76 17.412,73.616 17.676,73.424 C17.94,73.232 18.144,72.992 18.288,72.704 C18.432,72.416 18.504,72.08 18.504,71.696 C18.504,71.152 18.356,70.724 18.06,70.412 C17.764,70.1 17.376,69.9 16.896,69.812 L16.896,69.812 L16.896,69.764 C17.272,69.644 17.558,69.426 17.754,69.11 C17.95,68.794 18.048,68.44 18.048,68.048 C18.048,67.704 17.982,67.41 17.85,67.166 C17.718,66.922 17.534,66.724 17.298,66.572 C17.062,66.42 16.778,66.308 16.446,66.236 C16.114,66.164 15.748,66.128 15.348,66.128 L15.348,66.128 L13.008,66.128 L13.008,74 L15.516,74 Z M15.168,69.476 L14.004,69.476 L14.004,66.92 L15.216,66.92 C15.832,66.92 16.294,67.016 16.602,67.208 C16.91,67.4 17.064,67.724 17.064,68.18 C17.064,68.58 16.916,68.896 16.62,69.128 C16.324,69.36 15.84,69.476 15.168,69.476 L15.168,69.476 Z M15.372,73.208 L14.004,73.208 L14.004,70.244 L15.372,70.244 C16.068,70.244 16.6,70.358 16.968,70.586 C17.336,70.814 17.52,71.172 17.52,71.66 C17.52,72.188 17.332,72.578 16.956,72.83 C16.58,73.082 16.052,73.208 15.372,73.208 L15.372,73.208 Z" id="Outlays$2B" fill="#666666" fill-rule="nonzero"></path>
                    <path d="M66.044,59.144 C66.556,59.144 67.024,59.05 67.448,58.862 C67.872,58.674 68.238,58.402 68.546,58.046 C68.854,57.69 69.092,57.26 69.26,56.756 C69.428,56.252 69.512,55.68 69.512,55.04 C69.512,54.408 69.428,53.842 69.26,53.342 C69.092,52.842 68.854,52.42 68.546,52.076 C68.238,51.732 67.872,51.468 67.448,51.284 C67.024,51.1 66.556,51.008 66.044,51.008 C65.532,51.008 65.064,51.1 64.64,51.284 C64.216,51.468 63.852,51.732 63.548,52.076 C63.244,52.42 63.008,52.842 62.84,53.342 C62.672,53.842 62.588,54.408 62.588,55.04 C62.588,55.68 62.672,56.252 62.84,56.756 C63.008,57.26 63.244,57.69 63.548,58.046 C63.852,58.402 64.216,58.674 64.64,58.862 C65.064,59.05 65.532,59.144 66.044,59.144 Z M66.044,57.932 C65.732,57.932 65.452,57.864 65.204,57.728 C64.956,57.592 64.744,57.398 64.568,57.146 C64.392,56.894 64.256,56.59 64.16,56.234 C64.064,55.878 64.016,55.48 64.016,55.04 C64.016,54.16 64.198,53.47 64.562,52.97 C64.926,52.47 65.42,52.22 66.044,52.22 C66.668,52.22 67.162,52.47 67.526,52.97 C67.89,53.47 68.072,54.16 68.072,55.04 C68.072,55.48 68.024,55.878 67.928,56.234 C67.832,56.59 67.696,56.894 67.52,57.146 C67.344,57.398 67.132,57.592 66.884,57.728 C66.636,57.864 66.356,57.932 66.044,57.932 Z M73.82,59.144 C74.148,59.144 74.464,59.072 74.768,58.928 C75.072,58.784 75.34,58.576 75.572,58.304 C75.804,58.032 75.99,57.698 76.13,57.302 C76.27,56.906 76.34,56.456 76.34,55.952 C76.34,55.496 76.288,55.084 76.184,54.716 C76.08,54.348 75.928,54.034 75.728,53.774 C75.528,53.514 75.284,53.314 74.996,53.174 C74.708,53.034 74.38,52.964 74.012,52.964 C73.708,52.964 73.41,53.032 73.118,53.168 C72.826,53.304 72.556,53.48 72.308,53.696 L72.308,53.696 L72.344,52.712 L72.344,50.528 L70.964,50.528 L70.964,59 L72.056,59 L72.176,58.376 L72.212,58.376 C72.46,58.624 72.722,58.814 72.998,58.946 C73.274,59.078 73.548,59.144 73.82,59.144 Z M73.532,58.004 C73.356,58.004 73.166,57.968 72.962,57.896 C72.758,57.824 72.552,57.696 72.344,57.512 L72.344,57.512 L72.344,54.764 C72.792,54.324 73.224,54.104 73.64,54.104 C74.088,54.104 74.412,54.268 74.612,54.596 C74.812,54.924 74.912,55.384 74.912,55.976 C74.912,56.648 74.78,57.154 74.516,57.494 C74.252,57.834 73.924,58.004 73.532,58.004 Z M79.064,59.144 C79.368,59.144 79.612,59.104 79.796,59.024 L79.796,59.024 L79.616,57.992 C79.56,58.008 79.518,58.016 79.49,58.016 L79.49,58.016 L79.4,58.016 C79.328,58.016 79.26,57.982 79.196,57.914 C79.132,57.846 79.1,57.728 79.1,57.56 L79.1,57.56 L79.1,50.528 L77.72,50.528 L77.72,57.488 C77.72,58 77.82,58.404 78.02,58.7 C78.22,58.996 78.568,59.144 79.064,59.144 Z M81.668,52.076 C81.916,52.076 82.12,52.004 82.28,51.86 C82.44,51.716 82.52,51.528 82.52,51.296 C82.52,51.064 82.44,50.874 82.28,50.726 C82.12,50.578 81.916,50.504 81.668,50.504 C81.42,50.504 81.216,50.578 81.056,50.726 C80.896,50.874 80.816,51.064 80.816,51.296 C80.816,51.528 80.896,51.716 81.056,51.86 C81.216,52.004 81.42,52.076 81.668,52.076 Z M82.352,59 L82.352,53.108 L80.972,53.108 L80.972,59 L82.352,59 Z M86.168,61.604 C86.648,61.604 87.082,61.55 87.47,61.442 C87.858,61.334 88.188,61.188 88.46,61.004 C88.732,60.82 88.942,60.6 89.09,60.344 C89.238,60.088 89.312,59.816 89.312,59.528 C89.312,59.016 89.13,58.646 88.766,58.418 C88.402,58.19 87.864,58.076 87.152,58.076 L87.152,58.076 L86.108,58.076 C85.748,58.076 85.498,58.028 85.358,57.932 C85.218,57.836 85.148,57.704 85.148,57.536 C85.148,57.4 85.174,57.292 85.226,57.212 C85.278,57.132 85.348,57.052 85.436,56.972 C85.572,57.028 85.708,57.068 85.844,57.092 C85.98,57.116 86.112,57.128 86.24,57.128 C86.552,57.128 86.844,57.084 87.116,56.996 C87.388,56.908 87.624,56.78 87.824,56.612 C88.024,56.444 88.182,56.236 88.298,55.988 C88.414,55.74 88.472,55.452 88.472,55.124 C88.472,54.916 88.44,54.726 88.376,54.554 C88.312,54.382 88.232,54.24 88.136,54.128 L88.136,54.128 L89.216,54.128 L89.216,53.108 L87.104,53.108 C86.984,53.068 86.85,53.034 86.702,53.006 C86.554,52.978 86.4,52.964 86.24,52.964 C85.928,52.964 85.632,53.01 85.352,53.102 C85.072,53.194 84.826,53.33 84.614,53.51 C84.402,53.69 84.232,53.912 84.104,54.176 C83.976,54.44 83.912,54.74 83.912,55.076 C83.912,55.428 83.99,55.738 84.146,56.006 C84.302,56.274 84.48,56.484 84.68,56.636 L84.68,56.636 L84.68,56.684 C84.512,56.804 84.362,56.958 84.23,57.146 C84.098,57.334 84.032,57.544 84.032,57.776 C84.032,58.016 84.082,58.216 84.182,58.376 C84.282,58.536 84.408,58.664 84.56,58.76 L84.56,58.76 L84.56,58.808 C84.288,58.976 84.08,59.166 83.936,59.378 C83.792,59.59 83.72,59.82 83.72,60.068 C83.72,60.324 83.782,60.548 83.906,60.74 C84.03,60.932 84.2,61.092 84.416,61.22 C84.632,61.348 84.89,61.444 85.19,61.508 C85.49,61.572 85.816,61.604 86.168,61.604 Z M86.24,56.264 C85.952,56.264 85.708,56.162 85.508,55.958 C85.308,55.754 85.208,55.46 85.208,55.076 C85.208,54.7 85.308,54.412 85.508,54.212 C85.708,54.012 85.952,53.912 86.24,53.912 C86.528,53.912 86.77,54.014 86.966,54.218 C87.162,54.422 87.26,54.708 87.26,55.076 C87.26,55.46 87.16,55.754 86.96,55.958 C86.76,56.162 86.52,56.264 86.24,56.264 Z M86.384,60.704 C85.912,60.704 85.542,60.63 85.274,60.482 C85.006,60.334 84.872,60.128 84.872,59.864 C84.872,59.576 85.024,59.316 85.328,59.084 C85.544,59.14 85.812,59.168 86.132,59.168 L86.132,59.168 L86.936,59.168 C87.272,59.168 87.53,59.208 87.71,59.288 C87.89,59.368 87.98,59.524 87.98,59.756 C87.98,60.012 87.834,60.234 87.542,60.422 C87.25,60.61 86.864,60.704 86.384,60.704 Z M91.568,59.144 C91.92,59.144 92.246,59.068 92.546,58.916 C92.846,58.764 93.128,58.576 93.392,58.352 L93.392,58.352 L93.44,58.352 L93.536,59 L94.676,59 L94.676,55.508 C94.676,54.684 94.494,54.054 94.13,53.618 C93.766,53.182 93.216,52.964 92.48,52.964 C92.008,52.964 91.568,53.04 91.16,53.192 C90.752,53.344 90.384,53.524 90.056,53.732 L90.056,53.732 L90.56,54.656 C90.824,54.496 91.094,54.36 91.37,54.248 C91.646,54.136 91.928,54.08 92.216,54.08 C92.416,54.08 92.584,54.11 92.72,54.17 C92.856,54.23 92.966,54.314 93.05,54.422 C93.134,54.53 93.194,54.654 93.23,54.794 C93.266,54.934 93.288,55.08 93.296,55.232 C92.688,55.296 92.166,55.388 91.73,55.508 C91.294,55.628 90.934,55.776 90.65,55.952 C90.366,56.128 90.158,56.338 90.026,56.582 C89.894,56.826 89.828,57.104 89.828,57.416 C89.828,57.936 89.988,58.354 90.308,58.67 C90.628,58.986 91.048,59.144 91.568,59.144 Z M92.012,58.064 C91.764,58.064 91.56,58.004 91.4,57.884 C91.24,57.764 91.16,57.572 91.16,57.308 C91.16,57.164 91.196,57.028 91.268,56.9 C91.34,56.772 91.46,56.658 91.628,56.558 C91.796,56.458 92.016,56.368 92.288,56.288 C92.56,56.208 92.896,56.144 93.296,56.096 L93.296,56.096 L93.296,57.416 C93.072,57.624 92.862,57.784 92.666,57.896 C92.47,58.008 92.252,58.064 92.012,58.064 Z M98.216,59.144 C98.448,59.144 98.666,59.122 98.87,59.078 C99.074,59.034 99.256,58.984 99.416,58.928 L99.416,58.928 L99.176,57.908 C99.088,57.948 98.99,57.98 98.882,58.004 C98.774,58.028 98.668,58.04 98.564,58.04 C98.012,58.04 97.736,57.696 97.736,57.008 L97.736,57.008 L97.736,54.2 L99.236,54.2 L99.236,53.108 L97.736,53.108 L97.736,51.5 L96.584,51.5 L96.416,53.108 L95.504,53.168 L95.504,54.2 L96.344,54.2 L96.344,57.008 C96.344,57.328 96.378,57.618 96.446,57.878 C96.514,58.138 96.622,58.362 96.77,58.55 C96.918,58.738 97.11,58.884 97.346,58.988 C97.582,59.092 97.872,59.144 98.216,59.144 Z M101.168,52.076 C101.416,52.076 101.62,52.004 101.78,51.86 C101.94,51.716 102.02,51.528 102.02,51.296 C102.02,51.064 101.94,50.874 101.78,50.726 C101.62,50.578 101.416,50.504 101.168,50.504 C100.92,50.504 100.716,50.578 100.556,50.726 C100.396,50.874 100.316,51.064 100.316,51.296 C100.316,51.528 100.396,51.716 100.556,51.86 C100.716,52.004 100.92,52.076 101.168,52.076 Z M101.852,59 L101.852,53.108 L100.472,53.108 L100.472,59 L101.852,59 Z M106.028,59.144 C106.396,59.144 106.75,59.076 107.09,58.94 C107.43,58.804 107.728,58.604 107.984,58.34 C108.24,58.076 108.446,57.752 108.602,57.368 C108.758,56.984 108.836,56.548 108.836,56.06 C108.836,55.572 108.758,55.136 108.602,54.752 C108.446,54.368 108.24,54.044 107.984,53.78 C107.728,53.516 107.43,53.314 107.09,53.174 C106.75,53.034 106.396,52.964 106.028,52.964 C105.66,52.964 105.308,53.034 104.972,53.174 C104.636,53.314 104.338,53.516 104.078,53.78 C103.818,54.044 103.612,54.368 103.46,54.752 C103.308,55.136 103.232,55.572 103.232,56.06 C103.232,56.548 103.308,56.984 103.46,57.368 C103.612,57.752 103.818,58.076 104.078,58.34 C104.338,58.604 104.636,58.804 104.972,58.94 C105.308,59.076 105.66,59.144 106.028,59.144 Z M106.028,58.016 C105.596,58.016 105.258,57.838 105.014,57.482 C104.77,57.126 104.648,56.652 104.648,56.06 C104.648,55.46 104.77,54.982 105.014,54.626 C105.258,54.27 105.596,54.092 106.028,54.092 C106.46,54.092 106.8,54.27 107.048,54.626 C107.296,54.982 107.42,55.46 107.42,56.06 C107.42,56.652 107.296,57.126 107.048,57.482 C106.8,57.838 106.46,58.016 106.028,58.016 Z M111.584,59 L111.584,54.884 C111.832,54.644 112.054,54.462 112.25,54.338 C112.446,54.214 112.672,54.152 112.928,54.152 C113.256,54.152 113.492,54.252 113.636,54.452 C113.78,54.652 113.852,54.996 113.852,55.484 L113.852,55.484 L113.852,59 L115.232,59 L115.232,55.304 C115.232,54.552 115.088,53.974 114.8,53.57 C114.512,53.166 114.052,52.964 113.42,52.964 C113.012,52.964 112.654,53.056 112.346,53.24 C112.038,53.424 111.752,53.644 111.488,53.9 L111.488,53.9 L111.44,53.9 L111.344,53.108 L110.204,53.108 L110.204,59 L111.584,59 Z M118.568,59.144 C118.936,59.144 119.264,59.096 119.552,59 C119.84,58.904 120.08,58.774 120.272,58.61 C120.464,58.446 120.61,58.254 120.71,58.034 C120.81,57.814 120.86,57.576 120.86,57.32 C120.86,57.048 120.81,56.814 120.71,56.618 C120.61,56.422 120.478,56.256 120.314,56.12 C120.15,55.984 119.968,55.87 119.768,55.778 C119.568,55.686 119.368,55.604 119.168,55.532 C119.008,55.476 118.854,55.42 118.706,55.364 C118.558,55.308 118.428,55.248 118.316,55.184 C118.204,55.12 118.114,55.046 118.046,54.962 C117.978,54.878 117.944,54.776 117.944,54.656 C117.944,54.472 118.014,54.318 118.154,54.194 C118.294,54.07 118.512,54.008 118.808,54.008 C119.04,54.008 119.262,54.054 119.474,54.146 C119.686,54.238 119.896,54.36 120.104,54.512 L120.104,54.512 L120.74,53.672 C120.5,53.488 120.216,53.324 119.888,53.18 C119.56,53.036 119.192,52.964 118.784,52.964 C118.12,52.964 117.596,53.128 117.212,53.456 C116.828,53.784 116.636,54.208 116.636,54.728 C116.636,54.976 116.686,55.19 116.786,55.37 C116.886,55.55 117.014,55.708 117.17,55.844 C117.326,55.98 117.504,56.096 117.704,56.192 C117.904,56.288 118.1,56.372 118.292,56.444 C118.444,56.508 118.596,56.57 118.748,56.63 C118.9,56.69 119.036,56.756 119.156,56.828 C119.276,56.9 119.372,56.982 119.444,57.074 C119.516,57.166 119.552,57.272 119.552,57.392 C119.552,57.6 119.476,57.77 119.324,57.902 C119.172,58.034 118.936,58.1 118.616,58.1 C118.312,58.1 118.03,58.042 117.77,57.926 C117.51,57.81 117.248,57.648 116.984,57.44 L116.984,57.44 L116.336,58.328 C116.624,58.56 116.966,58.754 117.362,58.91 C117.758,59.066 118.16,59.144 118.568,59.144 Z M65.384,75.32 L65.384,74.108 C65.96,74.028 66.414,73.804 66.746,73.436 C67.078,73.068 67.244,72.596 67.244,72.02 C67.244,71.588 67.162,71.234 66.998,70.958 C66.834,70.682 66.628,70.45 66.38,70.262 C66.132,70.074 65.862,69.914 65.57,69.782 C65.278,69.65 65.008,69.514 64.76,69.374 C64.512,69.234 64.306,69.072 64.142,68.888 C63.978,68.704 63.896,68.468 63.896,68.18 C63.896,67.828 64.004,67.548 64.22,67.34 C64.436,67.132 64.728,67.028 65.096,67.028 C65.424,67.028 65.694,67.088 65.906,67.208 C66.118,67.328 66.336,67.496 66.56,67.712 L66.56,67.712 L67.088,67.124 C66.872,66.892 66.63,66.692 66.362,66.524 C66.094,66.356 65.768,66.252 65.384,66.212 L65.384,66.212 L65.384,65.024 L64.664,65.024 L64.664,66.236 C64.136,66.316 63.714,66.534 63.398,66.89 C63.082,67.246 62.924,67.692 62.924,68.228 C62.924,68.62 63.006,68.942 63.17,69.194 C63.334,69.446 63.54,69.66 63.788,69.836 C64.036,70.012 64.306,70.168 64.598,70.304 C64.89,70.44 65.16,70.586 65.408,70.742 C65.656,70.898 65.862,71.082 66.026,71.294 C66.19,71.506 66.272,71.772 66.272,72.092 C66.272,72.468 66.162,72.768 65.942,72.992 C65.722,73.216 65.388,73.328 64.94,73.328 C64.572,73.328 64.234,73.25 63.926,73.094 C63.618,72.938 63.336,72.748 63.08,72.524 L63.08,72.524 L62.624,73.208 C62.88,73.44 63.188,73.642 63.548,73.814 C63.908,73.986 64.28,74.092 64.664,74.132 L64.664,74.132 L64.664,75.32 L65.384,75.32 Z M71.18,74.144 C71.492,74.144 71.784,74.084 72.056,73.964 C72.328,73.844 72.568,73.676 72.776,73.46 C72.984,73.244 73.148,72.986 73.268,72.686 C73.388,72.386 73.448,72.052 73.448,71.684 C73.448,70.892 73.25,70.3 72.854,69.908 C72.458,69.516 71.928,69.32 71.264,69.32 C70.952,69.32 70.636,69.406 70.316,69.578 C69.996,69.75 69.716,69.984 69.476,70.28 C69.484,69.672 69.544,69.162 69.656,68.75 C69.768,68.338 69.916,68.004 70.1,67.748 C70.284,67.492 70.496,67.308 70.736,67.196 C70.976,67.084 71.228,67.028 71.492,67.028 C71.732,67.028 71.962,67.082 72.182,67.19 C72.402,67.298 72.592,67.444 72.752,67.628 L72.752,67.628 L73.304,67.016 C73.088,66.784 72.83,66.59 72.53,66.434 C72.23,66.278 71.872,66.2 71.456,66.2 C71.072,66.2 70.706,66.278 70.358,66.434 C70.01,66.59 69.7,66.838 69.428,67.178 C69.156,67.518 68.94,67.958 68.78,68.498 C68.62,69.038 68.54,69.692 68.54,70.46 C68.54,71.076 68.608,71.614 68.744,72.074 C68.88,72.534 69.066,72.918 69.302,73.226 C69.538,73.534 69.816,73.764 70.136,73.916 C70.456,74.068 70.804,74.144 71.18,74.144 Z M71.18,73.364 C70.692,73.364 70.306,73.17 70.022,72.782 C69.738,72.394 69.564,71.824 69.5,71.072 C69.74,70.712 70.004,70.454 70.292,70.298 C70.58,70.142 70.848,70.064 71.096,70.064 C71.576,70.064 71.932,70.208 72.164,70.496 C72.396,70.784 72.512,71.18 72.512,71.684 C72.512,71.94 72.478,72.17 72.41,72.374 C72.342,72.578 72.248,72.754 72.128,72.902 C72.008,73.05 71.868,73.164 71.708,73.244 C71.548,73.324 71.372,73.364 71.18,73.364 Z M77.516,74 C77.956,74 78.36,73.952 78.728,73.856 C79.096,73.76 79.412,73.616 79.676,73.424 C79.94,73.232 80.144,72.992 80.288,72.704 C80.432,72.416 80.504,72.08 80.504,71.696 C80.504,71.152 80.356,70.724 80.06,70.412 C79.764,70.1 79.376,69.9 78.896,69.812 L78.896,69.812 L78.896,69.764 C79.272,69.644 79.558,69.426 79.754,69.11 C79.95,68.794 80.048,68.44 80.048,68.048 C80.048,67.704 79.982,67.41 79.85,67.166 C79.718,66.922 79.534,66.724 79.298,66.572 C79.062,66.42 78.778,66.308 78.446,66.236 C78.114,66.164 77.748,66.128 77.348,66.128 L77.348,66.128 L75.008,66.128 L75.008,74 L77.516,74 Z M77.168,69.476 L76.004,69.476 L76.004,66.92 L77.216,66.92 C77.832,66.92 78.294,67.016 78.602,67.208 C78.91,67.4 79.064,67.724 79.064,68.18 C79.064,68.58 78.916,68.896 78.62,69.128 C78.324,69.36 77.84,69.476 77.168,69.476 L77.168,69.476 Z M77.372,73.208 L76.004,73.208 L76.004,70.244 L77.372,70.244 C78.068,70.244 78.6,70.358 78.968,70.586 C79.336,70.814 79.52,71.172 79.52,71.66 C79.52,72.188 79.332,72.578 78.956,72.83 C78.58,73.082 78.052,73.208 77.372,73.208 L77.372,73.208 Z" id="Obligations$6B" fill="#666666" fill-rule="nonzero"></path>
                    <path d="M202.936,59.144 C203.392,59.144 203.802,59.078 204.166,58.946 C204.53,58.814 204.842,58.604 205.102,58.316 C205.362,58.028 205.56,57.658 205.696,57.206 C205.832,56.754 205.9,56.204 205.9,55.556 L205.9,55.556 L205.9,51.152 L204.568,51.152 L204.568,55.664 C204.568,56.088 204.528,56.446 204.448,56.738 C204.368,57.03 204.256,57.264 204.112,57.44 C203.968,57.616 203.796,57.742 203.596,57.818 C203.396,57.894 203.176,57.932 202.936,57.932 C202.696,57.932 202.48,57.894 202.288,57.818 C202.096,57.742 201.93,57.616 201.79,57.44 C201.65,57.264 201.542,57.03 201.466,56.738 C201.39,56.446 201.352,56.088 201.352,55.664 L201.352,55.664 L201.352,51.152 L199.96,51.152 L199.96,55.556 C199.96,56.204 200.03,56.754 200.17,57.206 C200.31,57.658 200.51,58.028 200.77,58.316 C201.03,58.604 201.342,58.814 201.706,58.946 C202.07,59.078 202.48,59.144 202.936,59.144 Z M209.116,59 L209.116,54.884 C209.364,54.644 209.586,54.462 209.782,54.338 C209.978,54.214 210.204,54.152 210.46,54.152 C210.788,54.152 211.024,54.252 211.168,54.452 C211.312,54.652 211.384,54.996 211.384,55.484 L211.384,55.484 L211.384,59 L212.764,59 L212.764,55.304 C212.764,54.552 212.62,53.974 212.332,53.57 C212.044,53.166 211.584,52.964 210.952,52.964 C210.544,52.964 210.186,53.056 209.878,53.24 C209.57,53.424 209.284,53.644 209.02,53.9 L209.02,53.9 L208.972,53.9 L208.876,53.108 L207.736,53.108 L207.736,59 L209.116,59 Z M216.868,59.144 C217.236,59.144 217.59,59.076 217.93,58.94 C218.27,58.804 218.568,58.604 218.824,58.34 C219.08,58.076 219.286,57.752 219.442,57.368 C219.598,56.984 219.676,56.548 219.676,56.06 C219.676,55.572 219.598,55.136 219.442,54.752 C219.286,54.368 219.08,54.044 218.824,53.78 C218.568,53.516 218.27,53.314 217.93,53.174 C217.59,53.034 217.236,52.964 216.868,52.964 C216.5,52.964 216.148,53.034 215.812,53.174 C215.476,53.314 215.178,53.516 214.918,53.78 C214.658,54.044 214.452,54.368 214.3,54.752 C214.148,55.136 214.072,55.572 214.072,56.06 C214.072,56.548 214.148,56.984 214.3,57.368 C214.452,57.752 214.658,58.076 214.918,58.34 C215.178,58.604 215.476,58.804 215.812,58.94 C216.148,59.076 216.5,59.144 216.868,59.144 Z M216.868,58.016 C216.436,58.016 216.098,57.838 215.854,57.482 C215.61,57.126 215.488,56.652 215.488,56.06 C215.488,55.46 215.61,54.982 215.854,54.626 C216.098,54.27 216.436,54.092 216.868,54.092 C217.3,54.092 217.64,54.27 217.888,54.626 C218.136,54.982 218.26,55.46 218.26,56.06 C218.26,56.652 218.136,57.126 217.888,57.482 C217.64,57.838 217.3,58.016 216.868,58.016 Z M223.9,59.144 C224.228,59.144 224.544,59.072 224.848,58.928 C225.152,58.784 225.42,58.576 225.652,58.304 C225.884,58.032 226.07,57.698 226.21,57.302 C226.35,56.906 226.42,56.456 226.42,55.952 C226.42,55.496 226.368,55.084 226.264,54.716 C226.16,54.348 226.008,54.034 225.808,53.774 C225.608,53.514 225.364,53.314 225.076,53.174 C224.788,53.034 224.46,52.964 224.092,52.964 C223.788,52.964 223.49,53.032 223.198,53.168 C222.906,53.304 222.636,53.48 222.388,53.696 L222.388,53.696 L222.424,52.712 L222.424,50.528 L221.044,50.528 L221.044,59 L222.136,59 L222.256,58.376 L222.292,58.376 C222.54,58.624 222.802,58.814 223.078,58.946 C223.354,59.078 223.628,59.144 223.9,59.144 Z M223.612,58.004 C223.436,58.004 223.246,57.968 223.042,57.896 C222.838,57.824 222.632,57.696 222.424,57.512 L222.424,57.512 L222.424,54.764 C222.872,54.324 223.304,54.104 223.72,54.104 C224.168,54.104 224.492,54.268 224.692,54.596 C224.892,54.924 224.992,55.384 224.992,55.976 C224.992,56.648 224.86,57.154 224.596,57.494 C224.332,57.834 224.004,58.004 223.612,58.004 Z M229.144,59.144 C229.448,59.144 229.692,59.104 229.876,59.024 L229.876,59.024 L229.696,57.992 C229.64,58.008 229.598,58.016 229.57,58.016 L229.57,58.016 L229.48,58.016 C229.408,58.016 229.34,57.982 229.276,57.914 C229.212,57.846 229.18,57.728 229.18,57.56 L229.18,57.56 L229.18,50.528 L227.8,50.528 L227.8,57.488 C227.8,58 227.9,58.404 228.1,58.7 C228.3,58.996 228.648,59.144 229.144,59.144 Z M231.748,52.076 C231.996,52.076 232.2,52.004 232.36,51.86 C232.52,51.716 232.6,51.528 232.6,51.296 C232.6,51.064 232.52,50.874 232.36,50.726 C232.2,50.578 231.996,50.504 231.748,50.504 C231.5,50.504 231.296,50.578 231.136,50.726 C230.976,50.874 230.896,51.064 230.896,51.296 C230.896,51.528 230.976,51.716 231.136,51.86 C231.296,52.004 231.5,52.076 231.748,52.076 Z M232.432,59 L232.432,53.108 L231.052,53.108 L231.052,59 L232.432,59 Z M236.248,61.604 C236.728,61.604 237.162,61.55 237.55,61.442 C237.938,61.334 238.268,61.188 238.54,61.004 C238.812,60.82 239.022,60.6 239.17,60.344 C239.318,60.088 239.392,59.816 239.392,59.528 C239.392,59.016 239.21,58.646 238.846,58.418 C238.482,58.19 237.944,58.076 237.232,58.076 L237.232,58.076 L236.188,58.076 C235.828,58.076 235.578,58.028 235.438,57.932 C235.298,57.836 235.228,57.704 235.228,57.536 C235.228,57.4 235.254,57.292 235.306,57.212 C235.358,57.132 235.428,57.052 235.516,56.972 C235.652,57.028 235.788,57.068 235.924,57.092 C236.06,57.116 236.192,57.128 236.32,57.128 C236.632,57.128 236.924,57.084 237.196,56.996 C237.468,56.908 237.704,56.78 237.904,56.612 C238.104,56.444 238.262,56.236 238.378,55.988 C238.494,55.74 238.552,55.452 238.552,55.124 C238.552,54.916 238.52,54.726 238.456,54.554 C238.392,54.382 238.312,54.24 238.216,54.128 L238.216,54.128 L239.296,54.128 L239.296,53.108 L237.184,53.108 C237.064,53.068 236.93,53.034 236.782,53.006 C236.634,52.978 236.48,52.964 236.32,52.964 C236.008,52.964 235.712,53.01 235.432,53.102 C235.152,53.194 234.906,53.33 234.694,53.51 C234.482,53.69 234.312,53.912 234.184,54.176 C234.056,54.44 233.992,54.74 233.992,55.076 C233.992,55.428 234.07,55.738 234.226,56.006 C234.382,56.274 234.56,56.484 234.76,56.636 L234.76,56.636 L234.76,56.684 C234.592,56.804 234.442,56.958 234.31,57.146 C234.178,57.334 234.112,57.544 234.112,57.776 C234.112,58.016 234.162,58.216 234.262,58.376 C234.362,58.536 234.488,58.664 234.64,58.76 L234.64,58.76 L234.64,58.808 C234.368,58.976 234.16,59.166 234.016,59.378 C233.872,59.59 233.8,59.82 233.8,60.068 C233.8,60.324 233.862,60.548 233.986,60.74 C234.11,60.932 234.28,61.092 234.496,61.22 C234.712,61.348 234.97,61.444 235.27,61.508 C235.57,61.572 235.896,61.604 236.248,61.604 Z M236.32,56.264 C236.032,56.264 235.788,56.162 235.588,55.958 C235.388,55.754 235.288,55.46 235.288,55.076 C235.288,54.7 235.388,54.412 235.588,54.212 C235.788,54.012 236.032,53.912 236.32,53.912 C236.608,53.912 236.85,54.014 237.046,54.218 C237.242,54.422 237.34,54.708 237.34,55.076 C237.34,55.46 237.24,55.754 237.04,55.958 C236.84,56.162 236.6,56.264 236.32,56.264 Z M236.464,60.704 C235.992,60.704 235.622,60.63 235.354,60.482 C235.086,60.334 234.952,60.128 234.952,59.864 C234.952,59.576 235.104,59.316 235.408,59.084 C235.624,59.14 235.892,59.168 236.212,59.168 L236.212,59.168 L237.016,59.168 C237.352,59.168 237.61,59.208 237.79,59.288 C237.97,59.368 238.06,59.524 238.06,59.756 C238.06,60.012 237.914,60.234 237.622,60.422 C237.33,60.61 236.944,60.704 236.464,60.704 Z M241.648,59.144 C242,59.144 242.326,59.068 242.626,58.916 C242.926,58.764 243.208,58.576 243.472,58.352 L243.472,58.352 L243.52,58.352 L243.616,59 L244.756,59 L244.756,55.508 C244.756,54.684 244.574,54.054 244.21,53.618 C243.846,53.182 243.296,52.964 242.56,52.964 C242.088,52.964 241.648,53.04 241.24,53.192 C240.832,53.344 240.464,53.524 240.136,53.732 L240.136,53.732 L240.64,54.656 C240.904,54.496 241.174,54.36 241.45,54.248 C241.726,54.136 242.008,54.08 242.296,54.08 C242.496,54.08 242.664,54.11 242.8,54.17 C242.936,54.23 243.046,54.314 243.13,54.422 C243.214,54.53 243.274,54.654 243.31,54.794 C243.346,54.934 243.368,55.08 243.376,55.232 C242.768,55.296 242.246,55.388 241.81,55.508 C241.374,55.628 241.014,55.776 240.73,55.952 C240.446,56.128 240.238,56.338 240.106,56.582 C239.974,56.826 239.908,57.104 239.908,57.416 C239.908,57.936 240.068,58.354 240.388,58.67 C240.708,58.986 241.128,59.144 241.648,59.144 Z M242.092,58.064 C241.844,58.064 241.64,58.004 241.48,57.884 C241.32,57.764 241.24,57.572 241.24,57.308 C241.24,57.164 241.276,57.028 241.348,56.9 C241.42,56.772 241.54,56.658 241.708,56.558 C241.876,56.458 242.096,56.368 242.368,56.288 C242.64,56.208 242.976,56.144 243.376,56.096 L243.376,56.096 L243.376,57.416 C243.152,57.624 242.942,57.784 242.746,57.896 C242.55,58.008 242.332,58.064 242.092,58.064 Z M248.296,59.144 C248.528,59.144 248.746,59.122 248.95,59.078 C249.154,59.034 249.336,58.984 249.496,58.928 L249.496,58.928 L249.256,57.908 C249.168,57.948 249.07,57.98 248.962,58.004 C248.854,58.028 248.748,58.04 248.644,58.04 C248.092,58.04 247.816,57.696 247.816,57.008 L247.816,57.008 L247.816,54.2 L249.316,54.2 L249.316,53.108 L247.816,53.108 L247.816,51.5 L246.664,51.5 L246.496,53.108 L245.584,53.168 L245.584,54.2 L246.424,54.2 L246.424,57.008 C246.424,57.328 246.458,57.618 246.526,57.878 C246.594,58.138 246.702,58.362 246.85,58.55 C246.998,58.738 247.19,58.884 247.426,58.988 C247.662,59.092 247.952,59.144 248.296,59.144 Z M252.88,59.144 C253.256,59.144 253.616,59.084 253.96,58.964 C254.304,58.844 254.616,58.692 254.896,58.508 L254.896,58.508 L254.428,57.644 C254.212,57.78 253.994,57.886 253.774,57.962 C253.554,58.038 253.316,58.076 253.06,58.076 C252.58,58.076 252.186,57.934 251.878,57.65 C251.57,57.366 251.384,56.96 251.32,56.432 L251.32,56.432 L255.064,56.432 C255.08,56.36 255.094,56.264 255.106,56.144 C255.118,56.024 255.124,55.896 255.124,55.76 C255.124,55.352 255.072,54.976 254.968,54.632 C254.864,54.288 254.71,53.992 254.506,53.744 C254.302,53.496 254.048,53.304 253.744,53.168 C253.44,53.032 253.088,52.964 252.688,52.964 C252.344,52.964 252.008,53.036 251.68,53.18 C251.352,53.324 251.062,53.528 250.81,53.792 C250.558,54.056 250.356,54.38 250.204,54.764 C250.052,55.148 249.976,55.58 249.976,56.06 C249.976,56.548 250.05,56.982 250.198,57.362 C250.346,57.742 250.552,58.064 250.816,58.328 C251.08,58.592 251.388,58.794 251.74,58.934 C252.092,59.074 252.472,59.144 252.88,59.144 Z M253.924,55.496 L251.308,55.496 C251.372,55.016 251.536,54.652 251.8,54.404 C252.064,54.156 252.372,54.032 252.724,54.032 C253.132,54.032 253.434,54.162 253.63,54.422 C253.826,54.682 253.924,55.04 253.924,55.496 L253.924,55.496 Z M258.508,59.144 C258.828,59.144 259.132,59.068 259.42,58.916 C259.708,58.764 259.96,58.58 260.176,58.364 L260.176,58.364 L260.224,58.364 L260.32,59 L261.46,59 L261.46,50.528 L260.08,50.528 L260.08,52.664 L260.128,53.612 C259.896,53.412 259.664,53.254 259.432,53.138 C259.2,53.022 258.916,52.964 258.58,52.964 C258.26,52.964 257.95,53.036 257.65,53.18 C257.35,53.324 257.084,53.528 256.852,53.792 C256.62,54.056 256.434,54.38 256.294,54.764 C256.154,55.148 256.084,55.58 256.084,56.06 C256.084,57.036 256.302,57.794 256.738,58.334 C257.174,58.874 257.764,59.144 258.508,59.144 Z M258.844,58.004 C258.412,58.004 258.082,57.838 257.854,57.506 C257.626,57.174 257.512,56.688 257.512,56.048 C257.512,55.424 257.644,54.944 257.908,54.608 C258.172,54.272 258.496,54.104 258.88,54.104 C259.08,54.104 259.278,54.14 259.474,54.212 C259.67,54.284 259.872,54.412 260.08,54.596 L260.08,54.596 L260.08,57.344 C259.696,57.784 259.284,58.004 258.844,58.004 Z M202.384,75.32 L202.384,74.108 C202.96,74.028 203.414,73.804 203.746,73.436 C204.078,73.068 204.244,72.596 204.244,72.02 C204.244,71.588 204.162,71.234 203.998,70.958 C203.834,70.682 203.628,70.45 203.38,70.262 C203.132,70.074 202.862,69.914 202.57,69.782 C202.278,69.65 202.008,69.514 201.76,69.374 C201.512,69.234 201.306,69.072 201.142,68.888 C200.978,68.704 200.896,68.468 200.896,68.18 C200.896,67.828 201.004,67.548 201.22,67.34 C201.436,67.132 201.728,67.028 202.096,67.028 C202.424,67.028 202.694,67.088 202.906,67.208 C203.118,67.328 203.336,67.496 203.56,67.712 L203.56,67.712 L204.088,67.124 C203.872,66.892 203.63,66.692 203.362,66.524 C203.094,66.356 202.768,66.252 202.384,66.212 L202.384,66.212 L202.384,65.024 L201.664,65.024 L201.664,66.236 C201.136,66.316 200.714,66.534 200.398,66.89 C200.082,67.246 199.924,67.692 199.924,68.228 C199.924,68.62 200.006,68.942 200.17,69.194 C200.334,69.446 200.54,69.66 200.788,69.836 C201.036,70.012 201.306,70.168 201.598,70.304 C201.89,70.44 202.16,70.586 202.408,70.742 C202.656,70.898 202.862,71.082 203.026,71.294 C203.19,71.506 203.272,71.772 203.272,72.092 C203.272,72.468 203.162,72.768 202.942,72.992 C202.722,73.216 202.388,73.328 201.94,73.328 C201.572,73.328 201.234,73.25 200.926,73.094 C200.618,72.938 200.336,72.748 200.08,72.524 L200.08,72.524 L199.624,73.208 C199.88,73.44 200.188,73.642 200.548,73.814 C200.908,73.986 201.28,74.092 201.664,74.132 L201.664,74.132 L201.664,75.32 L202.384,75.32 Z M210.232,74 L210.232,73.184 L208.648,73.184 L208.648,66.344 L207.892,66.344 C207.684,66.472 207.45,66.582 207.19,66.674 C206.93,66.766 206.624,66.844 206.272,66.908 L206.272,66.908 L206.272,67.544 L207.664,67.544 L207.664,73.184 L205.912,73.184 L205.912,74 L210.232,74 Z M214.516,74 C214.956,74 215.36,73.952 215.728,73.856 C216.096,73.76 216.412,73.616 216.676,73.424 C216.94,73.232 217.144,72.992 217.288,72.704 C217.432,72.416 217.504,72.08 217.504,71.696 C217.504,71.152 217.356,70.724 217.06,70.412 C216.764,70.1 216.376,69.9 215.896,69.812 L215.896,69.812 L215.896,69.764 C216.272,69.644 216.558,69.426 216.754,69.11 C216.95,68.794 217.048,68.44 217.048,68.048 C217.048,67.704 216.982,67.41 216.85,67.166 C216.718,66.922 216.534,66.724 216.298,66.572 C216.062,66.42 215.778,66.308 215.446,66.236 C215.114,66.164 214.748,66.128 214.348,66.128 L214.348,66.128 L212.008,66.128 L212.008,74 L214.516,74 Z M214.168,69.476 L213.004,69.476 L213.004,66.92 L214.216,66.92 C214.832,66.92 215.294,67.016 215.602,67.208 C215.91,67.4 216.064,67.724 216.064,68.18 C216.064,68.58 215.916,68.896 215.62,69.128 C215.324,69.36 214.84,69.476 214.168,69.476 L214.168,69.476 Z M214.372,73.208 L213.004,73.208 L213.004,70.244 L214.372,70.244 C215.068,70.244 215.6,70.358 215.968,70.586 C216.336,70.814 216.52,71.172 216.52,71.66 C216.52,72.188 216.332,72.578 215.956,72.83 C215.58,73.082 215.052,73.208 214.372,73.208 L214.372,73.208 Z" id="Unobligated$1B" fill="#666666" fill-rule="nonzero"></path>
                    <line x1="10.5" y1="26" x2="10.5" y2="41" id="Line" stroke="#C6C6C6"></line>
                    <path d="M230,26 L230,30.6176471 C230,31.7222166 229.104569,32.6176471 228,32.6176471 L97,32.6176471 C95.8954305,32.6176471 95,33.5130776 95,34.6176471 L95,41 L95,41" id="Line-Copy-7" stroke="#C6C6C6" stroke-linecap="round" transform="translate(162.500000, 33.500000) scale(-1, 1) translate(-162.500000, -33.500000) "></path>
                    <path d="M117.368,15.54 L117.368,14.084 C118.096,13.9253333 118.642,13.6056667 119.006,13.125 C119.37,12.6443333 119.552,12.068 119.552,11.396 C119.552,10.948 119.461,10.5723333 119.279,10.269 C119.097,9.96566667 118.868333,9.70666667 118.593,9.492 C118.317667,9.27733333 118.021333,9.09533333 117.704,8.946 C117.386667,8.79666667 117.090333,8.652 116.815,8.512 C116.539667,8.372 116.311,8.225 116.129,8.071 C115.947,7.917 115.856,7.728 115.856,7.504 C115.856,7.18666667 115.944667,6.958 116.122,6.818 C116.299333,6.678 116.556,6.608 116.892,6.608 C117.190667,6.608 117.456667,6.66633333 117.69,6.783 C117.923333,6.89966667 118.166,7.07466667 118.418,7.308 L118.418,7.308 L119.454,6.132 C119.183333,5.84266667 118.88,5.59533333 118.544,5.39 C118.208,5.18466667 117.816,5.04933333 117.368,4.984 L117.368,4.984 L117.368,3.57 L116.01,3.57 L116.01,5.012 C115.347333,5.14266667 114.827,5.43433333 114.449,5.887 C114.071,6.33966667 113.882,6.91133333 113.882,7.602 C113.882,8.022 113.973,8.37666667 114.155,8.666 C114.337,8.95533333 114.565667,9.20733333 114.841,9.422 C115.116333,9.63666667 115.412667,9.821 115.73,9.975 C116.047333,10.129 116.343667,10.283 116.619,10.437 C116.894333,10.591 117.123,10.752 117.305,10.92 C117.487,11.088 117.578,11.2933333 117.578,11.536 C117.578,11.8626667 117.487,12.1053333 117.305,12.264 C117.123,12.4226667 116.836,12.502 116.444,12.502 C116.108,12.502 115.779,12.4343333 115.457,12.299 C115.135,12.1636667 114.796667,11.9606667 114.442,11.69 L114.442,11.69 L113.546,13.076 C113.872667,13.3746667 114.262333,13.615 114.715,13.797 C115.167667,13.979 115.599333,14.0933333 116.01,14.14 L116.01,14.14 L116.01,15.54 L117.368,15.54 Z M124.074,14.168 C124.55,14.168 124.981667,14.105 125.369,13.979 C125.756333,13.853 126.087667,13.6803333 126.363,13.461 C126.638333,13.2416667 126.850667,12.9826667 127,12.684 C127.149333,12.3853333 127.224,12.0586667 127.224,11.704 C127.224,11.116 127.074667,10.64 126.776,10.276 C126.477333,9.912 126.113333,9.61333333 125.684,9.38 L125.684,9.38 L125.684,9.324 C125.992,9.11866667 126.262667,8.85033333 126.496,8.519 C126.729333,8.18766667 126.846,7.80733333 126.846,7.378 C126.846,7.014 126.780667,6.68033333 126.65,6.377 C126.519333,6.07366667 126.337333,5.817 126.104,5.607 C125.870667,5.397 125.586,5.23366667 125.25,5.117 C124.914,5.00033333 124.545333,4.942 124.144,4.942 C123.733333,4.942 123.353,4.998 123.003,5.11 C122.653,5.222 122.352,5.38533333 122.1,5.6 C121.848,5.81466667 121.652,6.07366667 121.512,6.377 C121.372,6.68033333 121.302,7.01866667 121.302,7.392 C121.302,7.868 121.414,8.27166667 121.638,8.603 C121.862,8.93433333 122.146667,9.23066667 122.492,9.492 L122.492,9.492 L122.492,9.548 C122.072,9.772 121.715,10.0566667 121.421,10.402 C121.127,10.7473333 120.98,11.1906667 120.98,11.732 C120.98,12.096 121.057,12.4273333 121.211,12.726 C121.365,13.0246667 121.579667,13.2813333 121.855,13.496 C122.130333,13.7106667 122.457,13.8763333 122.835,13.993 C123.213,14.1096667 123.626,14.168 124.074,14.168 Z M124.634,8.82 C124.176667,8.64266667 123.808,8.45133333 123.528,8.246 C123.248,8.04066667 123.108,7.756 123.108,7.392 C123.108,7.04666667 123.206,6.79 123.402,6.622 C123.598,6.454 123.831333,6.37 124.102,6.37 C124.438,6.37 124.701667,6.475 124.893,6.685 C125.084333,6.895 125.18,7.17266667 125.18,7.518 C125.18,7.966 124.998,8.4 124.634,8.82 Z M124.116,12.74 C123.742667,12.74 123.420667,12.6303333 123.15,12.411 C122.879333,12.1916667 122.744,11.886 122.744,11.494 C122.744,11.2233333 122.809333,10.9666667 122.94,10.724 C123.070667,10.4813333 123.234,10.2666667 123.43,10.08 C123.71,10.2013333 123.964333,10.3133333 124.193,10.416 C124.421667,10.5186667 124.62,10.6283333 124.788,10.745 C124.956,10.8616667 125.084333,10.99 125.173,11.13 C125.261667,11.27 125.306,11.438 125.306,11.634 C125.306,12.0073333 125.194,12.285 124.97,12.467 C124.746,12.649 124.461333,12.74 124.116,12.74 Z M132.25,14 C132.744667,14 133.206667,13.9463333 133.636,13.839 C134.065333,13.7316667 134.441,13.5683333 134.763,13.349 C135.085,13.1296667 135.337,12.852 135.519,12.516 C135.701,12.18 135.792,11.7786667 135.792,11.312 C135.792,11.004 135.75,10.731 135.666,10.493 C135.582,10.255 135.465333,10.0473333 135.316,9.87 C135.166667,9.69266667 134.994,9.54566667 134.798,9.429 C134.602,9.31233333 134.387333,9.226 134.154,9.17 L134.154,9.17 L134.154,9.114 C134.340667,9.04866667 134.506333,8.946 134.651,8.806 C134.795667,8.666 134.919333,8.50733333 135.022,8.33 C135.124667,8.15266667 135.204,7.96133333 135.26,7.756 C135.316,7.55066667 135.344,7.34533333 135.344,7.14 C135.344,6.70133333 135.257667,6.33733333 135.085,6.048 C134.912333,5.75866667 134.674333,5.52533333 134.371,5.348 C134.067667,5.17066667 133.713,5.047 133.307,4.977 C132.901,4.907 132.46,4.872 131.984,4.872 L131.984,4.872 L128.862,4.872 L128.862,14 L132.25,14 Z M131.886,8.526 L130.92,8.526 L130.92,6.468 L131.9,6.468 C132.385333,6.468 132.744667,6.54266667 132.978,6.692 C133.211333,6.84133333 133.328,7.09333333 133.328,7.448 C133.328,7.77466667 133.213667,8.036 132.985,8.232 C132.756333,8.428 132.39,8.526 131.886,8.526 L131.886,8.526 Z M132.082,12.404 L130.92,12.404 L130.92,10.052 L132.082,10.052 C132.651333,10.052 133.076,10.1383333 133.356,10.311 C133.636,10.4836667 133.776,10.7706667 133.776,11.172 C133.776,11.9933333 133.211333,12.404 132.082,12.404 L132.082,12.404 Z" id="$8B" fill="#555555" fill-rule="nonzero"></path>
                </g>
                <g id="Group" transform="translate(0.000000, 0.000000)">
                    <rect id="unobligated" fill="#F3E9FF" x="86" y="-2.27373675e-13" width="15" height="30"></rect>
                    <rect id="obligated" fill="#6F41A7" x="17" y="-2.27373675e-13" width="69" height="30"></rect>
                    <rect id="outlays" fill="#331E4D" x="0" y="-2.27373675e-13" width="19" height="30"></rect>
                </g>
            </g>
        </g>
    </g>
</svg>