<?xml version="1.0" encoding="UTF-8"?>
<svg width="119px" height="81px" viewBox="0 0 119 81" version="1.1" xmlns="http://www.w3.org/2000/svg" xmlns:xlink="http://www.w3.org/1999/xlink">
    <title>Law 1 - B Loan</title>
    <g id="SVG-2.0" stroke="none" stroke-width="1" fill="none" fill-rule="evenodd">
        <g id="viz-3-mobile-outline" transform="translate(-36.000000, -684.000000)">
            <g id="Law-1---B-Loan" transform="translate(36.588000, 684.000000)">
                <path d="M3.456,64.144 C3.968,64.144 4.436,64.05 4.86,63.862 C5.284,63.674 5.65,63.402 5.958,63.046 C6.266,62.69 6.504,62.26 6.672,61.756 C6.84,61.252 6.924,60.68 6.924,60.04 C6.924,59.408 6.84,58.842 6.672,58.342 C6.504,57.842 6.266,57.42 5.958,57.076 C5.65,56.732 5.284,56.468 4.86,56.284 C4.436,56.1 3.968,56.008 3.456,56.008 C2.944,56.008 2.476,56.1 2.052,56.284 C1.628,56.468 1.264,56.732 0.96,57.076 C0.656,57.42 0.42,57.842 0.252,58.342 C0.084,58.842 3.65929509e-13,59.408 3.65929509e-13,60.04 C3.65929509e-13,60.68 0.084,61.252 0.252,61.756 C0.42,62.26 0.656,62.69 0.96,63.046 C1.264,63.402 1.628,63.674 2.052,63.862 C2.476,64.05 2.944,64.144 3.456,64.144 Z M3.456,62.932 C3.144,62.932 2.864,62.864 2.616,62.728 C2.368,62.592 2.156,62.398 1.98,62.146 C1.804,61.894 1.668,61.59 1.572,61.234 C1.476,60.878 1.428,60.48 1.428,60.04 C1.428,59.16 1.61,58.47 1.974,57.97 C2.338,57.47 2.832,57.22 3.456,57.22 C4.08,57.22 4.574,57.47 4.938,57.97 C5.302,58.47 5.484,59.16 5.484,60.04 C5.484,60.48 5.436,60.878 5.34,61.234 C5.244,61.59 5.108,61.894 4.932,62.146 C4.756,62.398 4.544,62.592 4.296,62.728 C4.048,62.864 3.768,62.932 3.456,62.932 Z M10.128,64.144 C10.536,64.144 10.89,64.052 11.19,63.868 C11.49,63.684 11.768,63.44 12.024,63.136 L12.024,63.136 L12.06,63.136 L12.168,64 L13.296,64 L13.296,58.108 L11.916,58.108 L11.916,62.14 C11.692,62.428 11.482,62.636 11.286,62.764 C11.09,62.892 10.864,62.956 10.608,62.956 C10.288,62.956 10.056,62.856 9.912,62.656 C9.768,62.456 9.696,62.112 9.696,61.624 L9.696,61.624 L9.696,58.108 L8.316,58.108 L8.316,61.804 C8.316,62.556 8.46,63.134 8.748,63.538 C9.036,63.942 9.496,64.144 10.128,64.144 Z M17.124,64.144 C17.356,64.144 17.574,64.122 17.778,64.078 C17.982,64.034 18.164,63.984 18.324,63.928 L18.324,63.928 L18.084,62.908 C17.996,62.948 17.898,62.98 17.79,63.004 C17.682,63.028 17.576,63.04 17.472,63.04 C16.92,63.04 16.644,62.696 16.644,62.008 L16.644,62.008 L16.644,59.2 L18.144,59.2 L18.144,58.108 L16.644,58.108 L16.644,56.5 L15.492,56.5 L15.324,58.108 L14.412,58.168 L14.412,59.2 L15.252,59.2 L15.252,62.008 C15.252,62.328 15.286,62.618 15.354,62.878 C15.422,63.138 15.53,63.362 15.678,63.55 C15.826,63.738 16.018,63.884 16.254,63.988 C16.49,64.092 16.78,64.144 17.124,64.144 Z M20.724,64.144 C21.028,64.144 21.272,64.104 21.456,64.024 L21.456,64.024 L21.276,62.992 C21.22,63.008 21.178,63.016 21.15,63.016 L21.15,63.016 L21.06,63.016 C20.988,63.016 20.92,62.982 20.856,62.914 C20.792,62.846 20.76,62.728 20.76,62.56 L20.76,62.56 L20.76,55.528 L19.38,55.528 L19.38,62.488 C19.38,63 19.48,63.404 19.68,63.7 C19.88,63.996 20.228,64.144 20.724,64.144 Z M24.06,64.144 C24.412,64.144 24.738,64.068 25.038,63.916 C25.338,63.764 25.62,63.576 25.884,63.352 L25.884,63.352 L25.932,63.352 L26.028,64 L27.168,64 L27.168,60.508 C27.168,59.684 26.986,59.054 26.622,58.618 C26.258,58.182 25.708,57.964 24.972,57.964 C24.5,57.964 24.06,58.04 23.652,58.192 C23.244,58.344 22.876,58.524 22.548,58.732 L22.548,58.732 L23.052,59.656 C23.316,59.496 23.586,59.36 23.862,59.248 C24.138,59.136 24.42,59.08 24.708,59.08 C24.908,59.08 25.076,59.11 25.212,59.17 C25.348,59.23 25.458,59.314 25.542,59.422 C25.626,59.53 25.686,59.654 25.722,59.794 C25.758,59.934 25.78,60.08 25.788,60.232 C25.18,60.296 24.658,60.388 24.222,60.508 C23.786,60.628 23.426,60.776 23.142,60.952 C22.858,61.128 22.65,61.338 22.518,61.582 C22.386,61.826 22.32,62.104 22.32,62.416 C22.32,62.936 22.48,63.354 22.8,63.67 C23.12,63.986 23.54,64.144 24.06,64.144 Z M24.504,63.064 C24.256,63.064 24.052,63.004 23.892,62.884 C23.732,62.764 23.652,62.572 23.652,62.308 C23.652,62.164 23.688,62.028 23.76,61.9 C23.832,61.772 23.952,61.658 24.12,61.558 C24.288,61.458 24.508,61.368 24.78,61.288 C25.052,61.208 25.388,61.144 25.788,61.096 L25.788,61.096 L25.788,62.416 C25.564,62.624 25.354,62.784 25.158,62.896 C24.962,63.008 24.744,63.064 24.504,63.064 Z M29.22,66.424 C29.54,66.424 29.822,66.374 30.066,66.274 C30.31,66.174 30.526,66.03 30.714,65.842 C30.902,65.654 31.068,65.428 31.212,65.164 C31.356,64.9 31.488,64.6 31.608,64.264 L31.608,64.264 L33.744,58.108 L32.412,58.108 L31.524,61 C31.452,61.264 31.378,61.538 31.302,61.822 C31.226,62.106 31.152,62.384 31.08,62.656 L31.08,62.656 L31.032,62.656 C30.944,62.376 30.858,62.094 30.774,61.81 C30.69,61.526 30.604,61.256 30.516,61 L30.516,61 L29.496,58.108 L28.092,58.108 L30.408,63.928 L30.3,64.3 C30.204,64.596 30.062,64.838 29.874,65.026 C29.686,65.214 29.436,65.308 29.124,65.308 C29.052,65.308 28.978,65.298 28.902,65.278 C28.826,65.258 28.76,65.24 28.704,65.224 L28.704,65.224 L28.452,66.304 C28.564,66.344 28.68,66.374 28.8,66.394 C28.92,66.414 29.06,66.424 29.22,66.424 Z M36.408,64.144 C36.776,64.144 37.104,64.096 37.392,64 C37.68,63.904 37.92,63.774 38.112,63.61 C38.304,63.446 38.45,63.254 38.55,63.034 C38.65,62.814 38.7,62.576 38.7,62.32 C38.7,62.048 38.65,61.814 38.55,61.618 C38.45,61.422 38.318,61.256 38.154,61.12 C37.99,60.984 37.808,60.87 37.608,60.778 C37.408,60.686 37.208,60.604 37.008,60.532 C36.848,60.476 36.694,60.42 36.546,60.364 C36.398,60.308 36.268,60.248 36.156,60.184 C36.044,60.12 35.954,60.046 35.886,59.962 C35.818,59.878 35.784,59.776 35.784,59.656 C35.784,59.472 35.854,59.318 35.994,59.194 C36.134,59.07 36.352,59.008 36.648,59.008 C36.88,59.008 37.102,59.054 37.314,59.146 C37.526,59.238 37.736,59.36 37.944,59.512 L37.944,59.512 L38.58,58.672 C38.34,58.488 38.056,58.324 37.728,58.18 C37.4,58.036 37.032,57.964 36.624,57.964 C35.96,57.964 35.436,58.128 35.052,58.456 C34.668,58.784 34.476,59.208 34.476,59.728 C34.476,59.976 34.526,60.19 34.626,60.37 C34.726,60.55 34.854,60.708 35.01,60.844 C35.166,60.98 35.344,61.096 35.544,61.192 C35.744,61.288 35.94,61.372 36.132,61.444 C36.284,61.508 36.436,61.57 36.588,61.63 C36.74,61.69 36.876,61.756 36.996,61.828 C37.116,61.9 37.212,61.982 37.284,62.074 C37.356,62.166 37.392,62.272 37.392,62.392 C37.392,62.6 37.316,62.77 37.164,62.902 C37.012,63.034 36.776,63.1 36.456,63.1 C36.152,63.1 35.87,63.042 35.61,62.926 C35.35,62.81 35.088,62.648 34.824,62.44 L34.824,62.44 L34.176,63.328 C34.464,63.56 34.806,63.754 35.202,63.91 C35.598,64.066 36,64.144 36.408,64.144 Z M2.796,80.32 L2.796,79.108 C3.372,79.028 3.826,78.804 4.158,78.436 C4.49,78.068 4.656,77.596 4.656,77.02 C4.656,76.588 4.574,76.234 4.41,75.958 C4.246,75.682 4.04,75.45 3.792,75.262 C3.544,75.074 3.274,74.914 2.982,74.782 C2.69,74.65 2.42,74.514 2.172,74.374 C1.924,74.234 1.718,74.072 1.554,73.888 C1.39,73.704 1.308,73.468 1.308,73.18 C1.308,72.828 1.416,72.548 1.632,72.34 C1.848,72.132 2.14,72.028 2.508,72.028 C2.836,72.028 3.106,72.088 3.318,72.208 C3.53,72.328 3.748,72.496 3.972,72.712 L3.972,72.712 L4.5,72.124 C4.284,71.892 4.042,71.692 3.774,71.524 C3.506,71.356 3.18,71.252 2.796,71.212 L2.796,71.212 L2.796,70.024 L2.076,70.024 L2.076,71.236 C1.548,71.316 1.126,71.534 0.81,71.89 C0.494,72.246 0.336,72.692 0.336,73.228 C0.336,73.62 0.418,73.942 0.582,74.194 C0.746,74.446 0.952,74.66 1.2,74.836 C1.448,75.012 1.718,75.168 2.01,75.304 C2.302,75.44 2.572,75.586 2.82,75.742 C3.068,75.898 3.274,76.082 3.438,76.294 C3.602,76.506 3.684,76.772 3.684,77.092 C3.684,77.468 3.574,77.768 3.354,77.992 C3.134,78.216 2.8,78.328 2.352,78.328 C1.984,78.328 1.646,78.25 1.338,78.094 C1.03,77.938 0.748,77.748 0.492,77.524 L0.492,77.524 L0.036,78.208 C0.292,78.44 0.6,78.642 0.96,78.814 C1.32,78.986 1.692,79.092 2.076,79.132 L2.076,79.132 L2.076,80.32 L2.796,80.32 Z M10.8,79 L10.8,78.148 L8.58,78.148 C8.38,78.148 8.168,78.156 7.944,78.172 C7.72,78.188 7.504,78.204 7.296,78.22 C7.752,77.748 8.17,77.302 8.55,76.882 C8.93,76.462 9.258,76.058 9.534,75.67 C9.81,75.282 10.026,74.906 10.182,74.542 C10.338,74.178 10.416,73.816 10.416,73.456 C10.416,72.776 10.212,72.23 9.804,71.818 C9.396,71.406 8.836,71.2 8.124,71.2 C7.62,71.2 7.188,71.306 6.828,71.518 C6.468,71.73 6.128,72.012 5.808,72.364 L5.808,72.364 L6.372,72.928 C6.596,72.672 6.844,72.454 7.116,72.274 C7.388,72.094 7.684,72.004 8.004,72.004 C8.492,72.004 8.856,72.144 9.096,72.424 C9.336,72.704 9.456,73.064 9.456,73.504 C9.456,73.816 9.376,74.138 9.216,74.47 C9.056,74.802 8.824,75.166 8.52,75.562 C8.216,75.958 7.84,76.388 7.392,76.852 C6.944,77.316 6.432,77.836 5.856,78.412 L5.856,78.412 L5.856,79 L10.8,79 Z M14.328,79.144 C15.096,79.144 15.696,78.8 16.128,78.112 C16.56,77.424 16.776,76.436 16.776,75.148 C16.776,73.86 16.56,72.88 16.128,72.208 C15.696,71.536 15.096,71.2 14.328,71.2 C13.552,71.2 12.948,71.536 12.516,72.208 C12.084,72.88 11.868,73.86 11.868,75.148 C11.868,76.436 12.084,77.424 12.516,78.112 C12.948,78.8 13.552,79.144 14.328,79.144 Z M14.328,78.352 C13.88,78.352 13.518,78.098 13.242,77.59 C12.966,77.082 12.828,76.268 12.828,75.148 C12.828,74.588 12.864,74.108 12.936,73.708 C13.008,73.308 13.11,72.982 13.242,72.73 C13.374,72.478 13.532,72.292 13.716,72.172 C13.9,72.052 14.104,71.992 14.328,71.992 C14.552,71.992 14.754,72.052 14.934,72.172 C15.114,72.292 15.27,72.478 15.402,72.73 C15.534,72.982 15.636,73.308 15.708,73.708 C15.78,74.108 15.816,74.588 15.816,75.148 C15.816,75.708 15.78,76.19 15.708,76.594 C15.636,76.998 15.534,77.33 15.402,77.59 C15.27,77.85 15.114,78.042 14.934,78.166 C14.754,78.29 14.552,78.352 14.328,78.352 Z M19.284,79 L19.284,74.668 C19.284,74.316 19.27,73.928 19.242,73.504 C19.214,73.08 19.188,72.692 19.164,72.34 L19.164,72.34 L19.212,72.34 L19.836,74.128 L21.324,78.208 L21.984,78.208 L23.472,74.128 L24.096,72.34 L24.144,72.34 C24.12,72.692 24.092,73.08 24.06,73.504 C24.028,73.928 24.012,74.316 24.012,74.668 L24.012,74.668 L24.012,79 L24.948,79 L24.948,71.128 L23.736,71.128 L22.248,75.328 C22.152,75.6 22.062,75.874 21.978,76.15 C21.894,76.426 21.804,76.7 21.708,76.972 L21.708,76.972 L21.66,76.972 C21.564,76.7 21.47,76.426 21.378,76.15 C21.286,75.874 21.192,75.6 21.096,75.328 L21.096,75.328 L19.584,71.128 L18.384,71.128 L18.384,79 L19.284,79 Z" id="Outlays$20M" fill="#666666" fill-rule="nonzero"></path>
                <path d="M63.456,64.144 C63.968,64.144 64.436,64.05 64.86,63.862 C65.284,63.674 65.65,63.402 65.958,63.046 C66.266,62.69 66.504,62.26 66.672,61.756 C66.84,61.252 66.924,60.68 66.924,60.04 C66.924,59.408 66.84,58.842 66.672,58.342 C66.504,57.842 66.266,57.42 65.958,57.076 C65.65,56.732 65.284,56.468 64.86,56.284 C64.436,56.1 63.968,56.008 63.456,56.008 C62.944,56.008 62.476,56.1 62.052,56.284 C61.628,56.468 61.264,56.732 60.96,57.076 C60.656,57.42 60.42,57.842 60.252,58.342 C60.084,58.842 60,59.408 60,60.04 C60,60.68 60.084,61.252 60.252,61.756 C60.42,62.26 60.656,62.69 60.96,63.046 C61.264,63.402 61.628,63.674 62.052,63.862 C62.476,64.05 62.944,64.144 63.456,64.144 Z M63.456,62.932 C63.144,62.932 62.864,62.864 62.616,62.728 C62.368,62.592 62.156,62.398 61.98,62.146 C61.804,61.894 61.668,61.59 61.572,61.234 C61.476,60.878 61.428,60.48 61.428,60.04 C61.428,59.16 61.61,58.47 61.974,57.97 C62.338,57.47 62.832,57.22 63.456,57.22 C64.08,57.22 64.574,57.47 64.938,57.97 C65.302,58.47 65.484,59.16 65.484,60.04 C65.484,60.48 65.436,60.878 65.34,61.234 C65.244,61.59 65.108,61.894 64.932,62.146 C64.756,62.398 64.544,62.592 64.296,62.728 C64.048,62.864 63.768,62.932 63.456,62.932 Z M71.232,64.144 C71.56,64.144 71.876,64.072 72.18,63.928 C72.484,63.784 72.752,63.576 72.984,63.304 C73.216,63.032 73.402,62.698 73.542,62.302 C73.682,61.906 73.752,61.456 73.752,60.952 C73.752,60.496 73.7,60.084 73.596,59.716 C73.492,59.348 73.34,59.034 73.14,58.774 C72.94,58.514 72.696,58.314 72.408,58.174 C72.12,58.034 71.792,57.964 71.424,57.964 C71.12,57.964 70.822,58.032 70.53,58.168 C70.238,58.304 69.968,58.48 69.72,58.696 L69.72,58.696 L69.756,57.712 L69.756,55.528 L68.376,55.528 L68.376,64 L69.468,64 L69.588,63.376 L69.624,63.376 C69.872,63.624 70.134,63.814 70.41,63.946 C70.686,64.078 70.96,64.144 71.232,64.144 Z M70.944,63.004 C70.768,63.004 70.578,62.968 70.374,62.896 C70.17,62.824 69.964,62.696 69.756,62.512 L69.756,62.512 L69.756,59.764 C70.204,59.324 70.636,59.104 71.052,59.104 C71.5,59.104 71.824,59.268 72.024,59.596 C72.224,59.924 72.324,60.384 72.324,60.976 C72.324,61.648 72.192,62.154 71.928,62.494 C71.664,62.834 71.336,63.004 70.944,63.004 Z M76.476,64.144 C76.78,64.144 77.024,64.104 77.208,64.024 L77.208,64.024 L77.028,62.992 C76.972,63.008 76.93,63.016 76.902,63.016 L76.902,63.016 L76.812,63.016 C76.74,63.016 76.672,62.982 76.608,62.914 C76.544,62.846 76.512,62.728 76.512,62.56 L76.512,62.56 L76.512,55.528 L75.132,55.528 L75.132,62.488 C75.132,63 75.232,63.404 75.432,63.7 C75.632,63.996 75.98,64.144 76.476,64.144 Z M79.08,57.076 C79.328,57.076 79.532,57.004 79.692,56.86 C79.852,56.716 79.932,56.528 79.932,56.296 C79.932,56.064 79.852,55.874 79.692,55.726 C79.532,55.578 79.328,55.504 79.08,55.504 C78.832,55.504 78.628,55.578 78.468,55.726 C78.308,55.874 78.228,56.064 78.228,56.296 C78.228,56.528 78.308,56.716 78.468,56.86 C78.628,57.004 78.832,57.076 79.08,57.076 Z M79.764,64 L79.764,58.108 L78.384,58.108 L78.384,64 L79.764,64 Z M83.58,66.604 C84.06,66.604 84.494,66.55 84.882,66.442 C85.27,66.334 85.6,66.188 85.872,66.004 C86.144,65.82 86.354,65.6 86.502,65.344 C86.65,65.088 86.724,64.816 86.724,64.528 C86.724,64.016 86.542,63.646 86.178,63.418 C85.814,63.19 85.276,63.076 84.564,63.076 L84.564,63.076 L83.52,63.076 C83.16,63.076 82.91,63.028 82.77,62.932 C82.63,62.836 82.56,62.704 82.56,62.536 C82.56,62.4 82.586,62.292 82.638,62.212 C82.69,62.132 82.76,62.052 82.848,61.972 C82.984,62.028 83.12,62.068 83.256,62.092 C83.392,62.116 83.524,62.128 83.652,62.128 C83.964,62.128 84.256,62.084 84.528,61.996 C84.8,61.908 85.036,61.78 85.236,61.612 C85.436,61.444 85.594,61.236 85.71,60.988 C85.826,60.74 85.884,60.452 85.884,60.124 C85.884,59.916 85.852,59.726 85.788,59.554 C85.724,59.382 85.644,59.24 85.548,59.128 L85.548,59.128 L86.628,59.128 L86.628,58.108 L84.516,58.108 C84.396,58.068 84.262,58.034 84.114,58.006 C83.966,57.978 83.812,57.964 83.652,57.964 C83.34,57.964 83.044,58.01 82.764,58.102 C82.484,58.194 82.238,58.33 82.026,58.51 C81.814,58.69 81.644,58.912 81.516,59.176 C81.388,59.44 81.324,59.74 81.324,60.076 C81.324,60.428 81.402,60.738 81.558,61.006 C81.714,61.274 81.892,61.484 82.092,61.636 L82.092,61.636 L82.092,61.684 C81.924,61.804 81.774,61.958 81.642,62.146 C81.51,62.334 81.444,62.544 81.444,62.776 C81.444,63.016 81.494,63.216 81.594,63.376 C81.694,63.536 81.82,63.664 81.972,63.76 L81.972,63.76 L81.972,63.808 C81.7,63.976 81.492,64.166 81.348,64.378 C81.204,64.59 81.132,64.82 81.132,65.068 C81.132,65.324 81.194,65.548 81.318,65.74 C81.442,65.932 81.612,66.092 81.828,66.22 C82.044,66.348 82.302,66.444 82.602,66.508 C82.902,66.572 83.228,66.604 83.58,66.604 Z M83.652,61.264 C83.364,61.264 83.12,61.162 82.92,60.958 C82.72,60.754 82.62,60.46 82.62,60.076 C82.62,59.7 82.72,59.412 82.92,59.212 C83.12,59.012 83.364,58.912 83.652,58.912 C83.94,58.912 84.182,59.014 84.378,59.218 C84.574,59.422 84.672,59.708 84.672,60.076 C84.672,60.46 84.572,60.754 84.372,60.958 C84.172,61.162 83.932,61.264 83.652,61.264 Z M83.796,65.704 C83.324,65.704 82.954,65.63 82.686,65.482 C82.418,65.334 82.284,65.128 82.284,64.864 C82.284,64.576 82.436,64.316 82.74,64.084 C82.956,64.14 83.224,64.168 83.544,64.168 L83.544,64.168 L84.348,64.168 C84.684,64.168 84.942,64.208 85.122,64.288 C85.302,64.368 85.392,64.524 85.392,64.756 C85.392,65.012 85.246,65.234 84.954,65.422 C84.662,65.61 84.276,65.704 83.796,65.704 Z M88.98,64.144 C89.332,64.144 89.658,64.068 89.958,63.916 C90.258,63.764 90.54,63.576 90.804,63.352 L90.804,63.352 L90.852,63.352 L90.948,64 L92.088,64 L92.088,60.508 C92.088,59.684 91.906,59.054 91.542,58.618 C91.178,58.182 90.628,57.964 89.892,57.964 C89.42,57.964 88.98,58.04 88.572,58.192 C88.164,58.344 87.796,58.524 87.468,58.732 L87.468,58.732 L87.972,59.656 C88.236,59.496 88.506,59.36 88.782,59.248 C89.058,59.136 89.34,59.08 89.628,59.08 C89.828,59.08 89.996,59.11 90.132,59.17 C90.268,59.23 90.378,59.314 90.462,59.422 C90.546,59.53 90.606,59.654 90.642,59.794 C90.678,59.934 90.7,60.08 90.708,60.232 C90.1,60.296 89.578,60.388 89.142,60.508 C88.706,60.628 88.346,60.776 88.062,60.952 C87.778,61.128 87.57,61.338 87.438,61.582 C87.306,61.826 87.24,62.104 87.24,62.416 C87.24,62.936 87.4,63.354 87.72,63.67 C88.04,63.986 88.46,64.144 88.98,64.144 Z M89.424,63.064 C89.176,63.064 88.972,63.004 88.812,62.884 C88.652,62.764 88.572,62.572 88.572,62.308 C88.572,62.164 88.608,62.028 88.68,61.9 C88.752,61.772 88.872,61.658 89.04,61.558 C89.208,61.458 89.428,61.368 89.7,61.288 C89.972,61.208 90.308,61.144 90.708,61.096 L90.708,61.096 L90.708,62.416 C90.484,62.624 90.274,62.784 90.078,62.896 C89.882,63.008 89.664,63.064 89.424,63.064 Z M95.628,64.144 C95.86,64.144 96.078,64.122 96.282,64.078 C96.486,64.034 96.668,63.984 96.828,63.928 L96.828,63.928 L96.588,62.908 C96.5,62.948 96.402,62.98 96.294,63.004 C96.186,63.028 96.08,63.04 95.976,63.04 C95.424,63.04 95.148,62.696 95.148,62.008 L95.148,62.008 L95.148,59.2 L96.648,59.2 L96.648,58.108 L95.148,58.108 L95.148,56.5 L93.996,56.5 L93.828,58.108 L92.916,58.168 L92.916,59.2 L93.756,59.2 L93.756,62.008 C93.756,62.328 93.79,62.618 93.858,62.878 C93.926,63.138 94.034,63.362 94.182,63.55 C94.33,63.738 94.522,63.884 94.758,63.988 C94.994,64.092 95.284,64.144 95.628,64.144 Z M98.58,57.076 C98.828,57.076 99.032,57.004 99.192,56.86 C99.352,56.716 99.432,56.528 99.432,56.296 C99.432,56.064 99.352,55.874 99.192,55.726 C99.032,55.578 98.828,55.504 98.58,55.504 C98.332,55.504 98.128,55.578 97.968,55.726 C97.808,55.874 97.728,56.064 97.728,56.296 C97.728,56.528 97.808,56.716 97.968,56.86 C98.128,57.004 98.332,57.076 98.58,57.076 Z M99.264,64 L99.264,58.108 L97.884,58.108 L97.884,64 L99.264,64 Z M103.44,64.144 C103.808,64.144 104.162,64.076 104.502,63.94 C104.842,63.804 105.14,63.604 105.396,63.34 C105.652,63.076 105.858,62.752 106.014,62.368 C106.17,61.984 106.248,61.548 106.248,61.06 C106.248,60.572 106.17,60.136 106.014,59.752 C105.858,59.368 105.652,59.044 105.396,58.78 C105.14,58.516 104.842,58.314 104.502,58.174 C104.162,58.034 103.808,57.964 103.44,57.964 C103.072,57.964 102.72,58.034 102.384,58.174 C102.048,58.314 101.75,58.516 101.49,58.78 C101.23,59.044 101.024,59.368 100.872,59.752 C100.72,60.136 100.644,60.572 100.644,61.06 C100.644,61.548 100.72,61.984 100.872,62.368 C101.024,62.752 101.23,63.076 101.49,63.34 C101.75,63.604 102.048,63.804 102.384,63.94 C102.72,64.076 103.072,64.144 103.44,64.144 Z M103.44,63.016 C103.008,63.016 102.67,62.838 102.426,62.482 C102.182,62.126 102.06,61.652 102.06,61.06 C102.06,60.46 102.182,59.982 102.426,59.626 C102.67,59.27 103.008,59.092 103.44,59.092 C103.872,59.092 104.212,59.27 104.46,59.626 C104.708,59.982 104.832,60.46 104.832,61.06 C104.832,61.652 104.708,62.126 104.46,62.482 C104.212,62.838 103.872,63.016 103.44,63.016 Z M108.996,64 L108.996,59.884 C109.244,59.644 109.466,59.462 109.662,59.338 C109.858,59.214 110.084,59.152 110.34,59.152 C110.668,59.152 110.904,59.252 111.048,59.452 C111.192,59.652 111.264,59.996 111.264,60.484 L111.264,60.484 L111.264,64 L112.644,64 L112.644,60.304 C112.644,59.552 112.5,58.974 112.212,58.57 C111.924,58.166 111.464,57.964 110.832,57.964 C110.424,57.964 110.066,58.056 109.758,58.24 C109.45,58.424 109.164,58.644 108.9,58.9 L108.9,58.9 L108.852,58.9 L108.756,58.108 L107.616,58.108 L107.616,64 L108.996,64 Z M115.98,64.144 C116.348,64.144 116.676,64.096 116.964,64 C117.252,63.904 117.492,63.774 117.684,63.61 C117.876,63.446 118.022,63.254 118.122,63.034 C118.222,62.814 118.272,62.576 118.272,62.32 C118.272,62.048 118.222,61.814 118.122,61.618 C118.022,61.422 117.89,61.256 117.726,61.12 C117.562,60.984 117.38,60.87 117.18,60.778 C116.98,60.686 116.78,60.604 116.58,60.532 C116.42,60.476 116.266,60.42 116.118,60.364 C115.97,60.308 115.84,60.248 115.728,60.184 C115.616,60.12 115.526,60.046 115.458,59.962 C115.39,59.878 115.356,59.776 115.356,59.656 C115.356,59.472 115.426,59.318 115.566,59.194 C115.706,59.07 115.924,59.008 116.22,59.008 C116.452,59.008 116.674,59.054 116.886,59.146 C117.098,59.238 117.308,59.36 117.516,59.512 L117.516,59.512 L118.152,58.672 C117.912,58.488 117.628,58.324 117.3,58.18 C116.972,58.036 116.604,57.964 116.196,57.964 C115.532,57.964 115.008,58.128 114.624,58.456 C114.24,58.784 114.048,59.208 114.048,59.728 C114.048,59.976 114.098,60.19 114.198,60.37 C114.298,60.55 114.426,60.708 114.582,60.844 C114.738,60.98 114.916,61.096 115.116,61.192 C115.316,61.288 115.512,61.372 115.704,61.444 C115.856,61.508 116.008,61.57 116.16,61.63 C116.312,61.69 116.448,61.756 116.568,61.828 C116.688,61.9 116.784,61.982 116.856,62.074 C116.928,62.166 116.964,62.272 116.964,62.392 C116.964,62.6 116.888,62.77 116.736,62.902 C116.584,63.034 116.348,63.1 116.028,63.1 C115.724,63.1 115.442,63.042 115.182,62.926 C114.922,62.81 114.66,62.648 114.396,62.44 L114.396,62.44 L113.748,63.328 C114.036,63.56 114.378,63.754 114.774,63.91 C115.17,64.066 115.572,64.144 115.98,64.144 Z M62.796,80.32 L62.796,79.108 C63.372,79.028 63.826,78.804 64.158,78.436 C64.49,78.068 64.656,77.596 64.656,77.02 C64.656,76.588 64.574,76.234 64.41,75.958 C64.246,75.682 64.04,75.45 63.792,75.262 C63.544,75.074 63.274,74.914 62.982,74.782 C62.69,74.65 62.42,74.514 62.172,74.374 C61.924,74.234 61.718,74.072 61.554,73.888 C61.39,73.704 61.308,73.468 61.308,73.18 C61.308,72.828 61.416,72.548 61.632,72.34 C61.848,72.132 62.14,72.028 62.508,72.028 C62.836,72.028 63.106,72.088 63.318,72.208 C63.53,72.328 63.748,72.496 63.972,72.712 L63.972,72.712 L64.5,72.124 C64.284,71.892 64.042,71.692 63.774,71.524 C63.506,71.356 63.18,71.252 62.796,71.212 L62.796,71.212 L62.796,70.024 L62.076,70.024 L62.076,71.236 C61.548,71.316 61.126,71.534 60.81,71.89 C60.494,72.246 60.336,72.692 60.336,73.228 C60.336,73.62 60.418,73.942 60.582,74.194 C60.746,74.446 60.952,74.66 61.2,74.836 C61.448,75.012 61.718,75.168 62.01,75.304 C62.302,75.44 62.572,75.586 62.82,75.742 C63.068,75.898 63.274,76.082 63.438,76.294 C63.602,76.506 63.684,76.772 63.684,77.092 C63.684,77.468 63.574,77.768 63.354,77.992 C63.134,78.216 62.8,78.328 62.352,78.328 C61.984,78.328 61.646,78.25 61.338,78.094 C61.03,77.938 60.748,77.748 60.492,77.524 L60.492,77.524 L60.036,78.208 C60.292,78.44 60.6,78.642 60.96,78.814 C61.32,78.986 61.692,79.092 62.076,79.132 L62.076,79.132 L62.076,80.32 L62.796,80.32 Z M70.8,79 L70.8,78.148 L68.58,78.148 C68.38,78.148 68.168,78.156 67.944,78.172 C67.72,78.188 67.504,78.204 67.296,78.22 C67.752,77.748 68.17,77.302 68.55,76.882 C68.93,76.462 69.258,76.058 69.534,75.67 C69.81,75.282 70.026,74.906 70.182,74.542 C70.338,74.178 70.416,73.816 70.416,73.456 C70.416,72.776 70.212,72.23 69.804,71.818 C69.396,71.406 68.836,71.2 68.124,71.2 C67.62,71.2 67.188,71.306 66.828,71.518 C66.468,71.73 66.128,72.012 65.808,72.364 L65.808,72.364 L66.372,72.928 C66.596,72.672 66.844,72.454 67.116,72.274 C67.388,72.094 67.684,72.004 68.004,72.004 C68.492,72.004 68.856,72.144 69.096,72.424 C69.336,72.704 69.456,73.064 69.456,73.504 C69.456,73.816 69.376,74.138 69.216,74.47 C69.056,74.802 68.824,75.166 68.52,75.562 C68.216,75.958 67.84,76.388 67.392,76.852 C66.944,77.316 66.432,77.836 65.856,78.412 L65.856,78.412 L65.856,79 L70.8,79 Z M74.328,79.144 C75.096,79.144 75.696,78.8 76.128,78.112 C76.56,77.424 76.776,76.436 76.776,75.148 C76.776,73.86 76.56,72.88 76.128,72.208 C75.696,71.536 75.096,71.2 74.328,71.2 C73.552,71.2 72.948,71.536 72.516,72.208 C72.084,72.88 71.868,73.86 71.868,75.148 C71.868,76.436 72.084,77.424 72.516,78.112 C72.948,78.8 73.552,79.144 74.328,79.144 Z M74.328,78.352 C73.88,78.352 73.518,78.098 73.242,77.59 C72.966,77.082 72.828,76.268 72.828,75.148 C72.828,74.588 72.864,74.108 72.936,73.708 C73.008,73.308 73.11,72.982 73.242,72.73 C73.374,72.478 73.532,72.292 73.716,72.172 C73.9,72.052 74.104,71.992 74.328,71.992 C74.552,71.992 74.754,72.052 74.934,72.172 C75.114,72.292 75.27,72.478 75.402,72.73 C75.534,72.982 75.636,73.308 75.708,73.708 C75.78,74.108 75.816,74.588 75.816,75.148 C75.816,75.708 75.78,76.19 75.708,76.594 C75.636,76.998 75.534,77.33 75.402,77.59 C75.27,77.85 75.114,78.042 74.934,78.166 C74.754,78.29 74.552,78.352 74.328,78.352 Z M79.284,79 L79.284,74.668 C79.284,74.316 79.27,73.928 79.242,73.504 C79.214,73.08 79.188,72.692 79.164,72.34 L79.164,72.34 L79.212,72.34 L79.836,74.128 L81.324,78.208 L81.984,78.208 L83.472,74.128 L84.096,72.34 L84.144,72.34 C84.12,72.692 84.092,73.08 84.06,73.504 C84.028,73.928 84.012,74.316 84.012,74.668 L84.012,74.668 L84.012,79 L84.948,79 L84.948,71.128 L83.736,71.128 L82.248,75.328 C82.152,75.6 82.062,75.874 81.978,76.15 C81.894,76.426 81.804,76.7 81.708,76.972 L81.708,76.972 L81.66,76.972 C81.564,76.7 81.47,76.426 81.378,76.15 C81.286,75.874 81.192,75.6 81.096,75.328 L81.096,75.328 L79.584,71.128 L78.384,71.128 L78.384,79 L79.284,79 Z" id="Obligations$20M" fill="#666666" fill-rule="nonzero"></path>
                <path d="M91.412,31 L91.412,35.6176471 C91.412,36.7222166 90.5165695,37.6176471 89.412,37.6176471 L6.412,37.6176471 C5.3074305,37.6176471 4.412,38.5130776 4.412,39.6176471 L4.412,46 L4.412,46" id="Line-Copy-7" stroke="#C6C6C6" stroke-linecap="round" transform="translate(47.912000, 38.500000) scale(-1, 1) translate(-47.912000, -38.500000) "></path>
                <line x1="2.412" y1="31" x2="2.412" y2="46" id="Line" stroke="#C6C6C6"></line>
                <path d="M14.78,20.54 L14.78,19.084 C15.508,18.9253333 16.054,18.6056667 16.418,18.125 C16.782,17.6443333 16.964,17.068 16.964,16.396 C16.964,15.948 16.873,15.5723333 16.691,15.269 C16.509,14.9656667 16.2803333,14.7066667 16.005,14.492 C15.7296667,14.2773333 15.4333333,14.0953333 15.116,13.946 C14.7986667,13.7966667 14.5023333,13.652 14.227,13.512 C13.9516667,13.372 13.723,13.225 13.541,13.071 C13.359,12.917 13.268,12.728 13.268,12.504 C13.268,12.1866667 13.3566667,11.958 13.534,11.818 C13.7113333,11.678 13.968,11.608 14.304,11.608 C14.6026667,11.608 14.8686667,11.6663333 15.102,11.783 C15.3353333,11.8996667 15.578,12.0746667 15.83,12.308 L15.83,12.308 L16.866,11.132 C16.5953333,10.8426667 16.292,10.5953333 15.956,10.39 C15.62,10.1846667 15.228,10.0493333 14.78,9.984 L14.78,9.984 L14.78,8.57 L13.422,8.57 L13.422,10.012 C12.7593333,10.1426667 12.239,10.4343333 11.861,10.887 C11.483,11.3396667 11.294,11.9113333 11.294,12.602 C11.294,13.022 11.385,13.3766667 11.567,13.666 C11.749,13.9553333 11.9776667,14.2073333 12.253,14.422 C12.5283333,14.6366667 12.8246667,14.821 13.142,14.975 C13.4593333,15.129 13.7556667,15.283 14.031,15.437 C14.3063333,15.591 14.535,15.752 14.717,15.92 C14.899,16.088 14.99,16.2933333 14.99,16.536 C14.99,16.8626667 14.899,17.1053333 14.717,17.264 C14.535,17.4226667 14.248,17.502 13.856,17.502 C13.52,17.502 13.191,17.4343333 12.869,17.299 C12.547,17.1636667 12.2086667,16.9606667 11.854,16.69 L11.854,16.69 L10.958,18.076 C11.2846667,18.3746667 11.6743333,18.615 12.127,18.797 C12.5796667,18.979 13.0113333,19.0933333 13.422,19.14 L13.422,19.14 L13.422,20.54 L14.78,20.54 Z M24.58,19 L24.58,17.264 L22.788,17.264 C22.5733333,17.264 22.3283333,17.2756667 22.053,17.299 C21.7776667,17.3223333 21.528,17.348 21.304,17.376 C21.668,17.0026667 22.0203333,16.6223333 22.361,16.235 C22.7016667,15.8476667 23.005,15.4603333 23.271,15.073 C23.537,14.6856667 23.7493333,14.2983333 23.908,13.911 C24.0666667,13.5236667 24.146,13.1433333 24.146,12.77 C24.146,12.3406667 24.076,11.9533333 23.936,11.608 C23.796,11.2626667 23.5953333,10.9663333 23.334,10.719 C23.0726667,10.4716667 22.7623333,10.2803333 22.403,10.145 C22.0436667,10.0096667 21.6446667,9.942 21.206,9.942 C20.5713333,9.942 20.0253333,10.061 19.568,10.299 C19.1106667,10.537 18.6626667,10.8893333 18.224,11.356 L18.224,11.356 L19.344,12.462 C19.568,12.2193333 19.806,12.007 20.058,11.825 C20.31,11.643 20.5993333,11.552 20.926,11.552 C21.318,11.552 21.626,11.6663333 21.85,11.895 C22.074,12.1236667 22.186,12.4573333 22.186,12.896 C22.186,13.2133333 22.0903333,13.547 21.899,13.897 C21.7076667,14.247 21.4416667,14.625 21.101,15.031 C20.7603333,15.437 20.3543333,15.871 19.883,16.333 C19.4116667,16.795 18.8913333,17.292 18.322,17.824 L18.322,17.824 L18.322,19 L24.58,19 Z M28.892,19.168 C29.368,19.168 29.802,19.0676667 30.194,18.867 C30.586,18.6663333 30.9196667,18.37 31.195,17.978 C31.4703333,17.586 31.685,17.1006667 31.839,16.522 C31.993,15.9433333 32.07,15.276 32.07,14.52 C32.07,13.764 31.993,13.1013333 31.839,12.532 C31.685,11.9626667 31.4703333,11.4843333 31.195,11.097 C30.9196667,10.7096667 30.586,10.4203333 30.194,10.229 C29.802,10.0376667 29.368,9.942 28.892,9.942 C28.416,9.942 27.982,10.0376667 27.59,10.229 C27.198,10.4203333 26.8643333,10.7096667 26.589,11.097 C26.3136667,11.4843333 26.099,11.9626667 25.945,12.532 C25.791,13.1013333 25.714,13.764 25.714,14.52 C25.714,15.276 25.791,15.9433333 25.945,16.522 C26.099,17.1006667 26.3136667,17.586 26.589,17.978 C26.8643333,18.37 27.198,18.6663333 27.59,18.867 C27.982,19.0676667 28.416,19.168 28.892,19.168 Z M28.892,17.572 C28.724,17.572 28.5653333,17.5276667 28.416,17.439 C28.2666667,17.3503333 28.136,17.1893333 28.024,16.956 C27.912,16.7226667 27.8233333,16.41 27.758,16.018 C27.6926667,15.626 27.66,15.1266667 27.66,14.52 C27.66,13.9133333 27.6926667,13.4163333 27.758,13.029 C27.8233333,12.6416667 27.912,12.3383333 28.024,12.119 C28.136,11.8996667 28.2666667,11.748 28.416,11.664 C28.5653333,11.58 28.724,11.538 28.892,11.538 C29.0693333,11.538 29.2326667,11.58 29.382,11.664 C29.5313333,11.748 29.662,11.8996667 29.774,12.119 C29.886,12.3383333 29.9723333,12.6416667 30.033,13.029 C30.0936667,13.4163333 30.124,13.9133333 30.124,14.52 C30.124,15.1266667 30.0936667,15.626 30.033,16.018 C29.9723333,16.41 29.886,16.7226667 29.774,16.956 C29.662,17.1893333 29.5313333,17.3503333 29.382,17.439 C29.2326667,17.5276667 29.0693333,17.572 28.892,17.572 Z M35.514,19 L35.514,15.654 C35.514,15.43 35.5046667,15.1826667 35.486,14.912 C35.4673333,14.6413333 35.444,14.3683333 35.416,14.093 C35.388,13.8176667 35.36,13.547 35.332,13.281 C35.304,13.015 35.276,12.77 35.248,12.546 L35.248,12.546 L35.304,12.546 L36.032,14.716 L37.334,18.202 L38.468,18.202 L39.77,14.716 L40.512,12.546 L40.568,12.546 C40.54,12.77 40.512,13.015 40.484,13.281 C40.456,13.547 40.428,13.8176667 40.4,14.093 C40.372,14.3683333 40.3486667,14.6413333 40.33,14.912 C40.3113333,15.1826667 40.302,15.43 40.302,15.654 L40.302,15.654 L40.302,19 L42.178,19 L42.178,9.872 L39.938,9.872 L38.496,13.932 C38.4026667,14.2026667 38.3163333,14.4803333 38.237,14.765 C38.1576667,15.0496667 38.0713333,15.332 37.978,15.612 L37.978,15.612 L37.922,15.612 C37.8286667,15.332 37.74,15.0496667 37.656,14.765 C37.572,14.4803333 37.4833333,14.2026667 37.39,13.932 L37.39,13.932 L35.92,9.872 L33.666,9.872 L33.666,19 L35.514,19 Z" id="$20M" fill="#555555" fill-rule="nonzero"></path>
                <g id="Group-Copy" transform="translate(1.412000, 0.000000)">
                    <rect id="obligated" fill="#6F41A7" x="2" y="0" width="2" height="30"></rect>
                    <rect id="outlays" fill="#331E4D" x="0" y="0" width="2" height="30"></rect>
                </g>
            </g>
        </g>
    </g>
</svg>