<?xml version="1.0" encoding="UTF-8"?>
<svg width="911px" height="95px" viewBox="0 0 911 95" version="1.1" xmlns="http://www.w3.org/2000/svg" xmlns:xlink="http://www.w3.org/1999/xlink">
    <title>01. desktop - govt total</title>
    <g id="SVG" stroke="none" stroke-width="1" fill="none" fill-rule="evenodd">
        <g id="Viz-3---Desktop-Copy" transform="translate(-279.000000, -209.000000)">
            <g id="01.-desktop---govt-total" transform="translate(279.000000, 209.000000)">
                <rect id="unobligated" fill="#F3E9FF" x="547" y="0" width="300" height="40"></rect>
                <rect id="obligated" fill="#6F41A7" x="505" y="0" width="42" height="40"></rect>
                <rect id="outlays" fill="#331E4D" x="0" y="0" width="505" height="40"></rect>
                <path d="M867.992,27.76 L867.992,26.096 C868.824,25.9146667 869.448,25.5493333 869.864,25 C870.28,24.4506667 870.488,23.792 870.488,23.024 C870.488,22.512 870.384,22.0826667 870.176,21.736 C869.968,21.3893333 869.706667,21.0933333 869.392,20.848 C869.077333,20.6026667 868.738667,20.3946667 868.376,20.224 C868.013333,20.0533333 867.674667,19.888 867.36,19.728 C867.045333,19.568 866.784,19.4 866.576,19.224 C866.368,19.048 866.264,18.832 866.264,18.576 C866.264,18.2133333 866.365333,17.952 866.568,17.792 C866.770667,17.632 867.064,17.552 867.448,17.552 C867.789333,17.552 868.093333,17.6186667 868.36,17.752 C868.626667,17.8853333 868.904,18.0853333 869.192,18.352 L869.192,18.352 L870.376,17.008 C870.066667,16.6773333 869.72,16.3946667 869.336,16.16 C868.952,15.9253333 868.504,15.7706667 867.992,15.696 L867.992,15.696 L867.992,14.08 L866.44,14.08 L866.44,15.728 C865.682667,15.8773333 865.088,16.2106667 864.656,16.728 C864.224,17.2453333 864.008,17.8986667 864.008,18.688 C864.008,19.168 864.112,19.5733333 864.32,19.904 C864.528,20.2346667 864.789333,20.5226667 865.104,20.768 C865.418667,21.0133333 865.757333,21.224 866.12,21.4 C866.482667,21.576 866.821333,21.752 867.136,21.928 C867.450667,22.104 867.712,22.288 867.92,22.48 C868.128,22.672 868.232,22.9066667 868.232,23.184 C868.232,23.5573333 868.128,23.8346667 867.92,24.016 C867.712,24.1973333 867.384,24.288 866.936,24.288 C866.552,24.288 866.176,24.2106667 865.808,24.056 C865.44,23.9013333 865.053333,23.6693333 864.648,23.36 L864.648,23.36 L863.624,24.944 C863.997333,25.2853333 864.442667,25.56 864.96,25.768 C865.477333,25.976 865.970667,26.1066667 866.44,26.16 L866.44,26.16 L866.44,27.76 L867.992,27.76 Z M879.192,26 L879.192,24.016 L877.144,24.016 C876.898667,24.016 876.618667,24.0293333 876.304,24.056 C875.989333,24.0826667 875.704,24.112 875.448,24.144 C875.864,23.7173333 876.266667,23.2826667 876.656,22.84 C877.045333,22.3973333 877.392,21.9546667 877.696,21.512 C878,21.0693333 878.242667,20.6266667 878.424,20.184 C878.605333,19.7413333 878.696,19.3066667 878.696,18.88 C878.696,18.3893333 878.616,17.9466667 878.456,17.552 C878.296,17.1573333 878.066667,16.8186667 877.768,16.536 C877.469333,16.2533333 877.114667,16.0346667 876.704,15.88 C876.293333,15.7253333 875.837333,15.648 875.336,15.648 C874.610667,15.648 873.986667,15.784 873.464,16.056 C872.941333,16.328 872.429333,16.7306667 871.928,17.264 L871.928,17.264 L873.208,18.528 C873.464,18.2506667 873.736,18.008 874.024,17.8 C874.312,17.592 874.642667,17.488 875.016,17.488 C875.464,17.488 875.816,17.6186667 876.072,17.88 C876.328,18.1413333 876.456,18.5226667 876.456,19.024 C876.456,19.3866667 876.346667,19.768 876.128,20.168 C875.909333,20.568 875.605333,21 875.216,21.464 C874.826667,21.928 874.362667,22.424 873.824,22.952 C873.285333,23.48 872.690667,24.048 872.04,24.656 L872.04,24.656 L872.04,26 L879.192,26 Z M882.296,26.192 C882.701333,26.192 883.04,26.0506667 883.312,25.768 C883.584,25.4853333 883.72,25.136 883.72,24.72 C883.72,24.2933333 883.584,23.9386667 883.312,23.656 C883.04,23.3733333 882.701333,23.232 882.296,23.232 C881.890667,23.232 881.552,23.3733333 881.28,23.656 C881.008,23.9386667 880.872,24.2933333 880.872,24.72 C880.872,25.136 881.008,25.4853333 881.28,25.768 C881.552,26.0506667 881.890667,26.192 882.296,26.192 Z M888.648,26.192 C889.138667,26.192 889.610667,26.112 890.064,25.952 C890.517333,25.792 890.914667,25.56 891.256,25.256 C891.597333,24.952 891.869333,24.5813333 892.072,24.144 C892.274667,23.7066667 892.376,23.2053333 892.376,22.64 C892.376,22.096 892.290667,21.6266667 892.12,21.232 C891.949333,20.8373333 891.714667,20.512 891.416,20.256 C891.117333,20 890.773333,19.808 890.384,19.68 C889.994667,19.552 889.581333,19.488 889.144,19.488 C888.930667,19.488 888.736,19.5066667 888.56,19.544 C888.384,19.5813333 888.2,19.6426667 888.008,19.728 L888.008,19.728 L888.184,17.824 L891.912,17.824 L891.912,15.84 L886.152,15.84 L885.864,20.976 L886.92,21.648 C887.069333,21.552 887.205333,21.472 887.328,21.408 C887.450667,21.344 887.568,21.2906667 887.68,21.248 C887.792,21.2053333 887.906667,21.176 888.024,21.16 C888.141333,21.144 888.274667,21.136 888.424,21.136 C888.904,21.136 889.290667,21.2693333 889.584,21.536 C889.877333,21.8026667 890.024,22.192 890.024,22.704 C890.024,23.2266667 889.869333,23.6213333 889.56,23.888 C889.250667,24.1546667 888.834667,24.288 888.312,24.288 C887.874667,24.288 887.477333,24.1893333 887.12,23.992 C886.762667,23.7946667 886.429333,23.5573333 886.12,23.28 L886.12,23.28 L885.064,24.768 C885.469333,25.1733333 885.96,25.512 886.536,25.784 C887.112,26.056 887.816,26.192 888.648,26.192 Z M896.808,26.192 C897.341333,26.192 897.856,26.0826667 898.352,25.864 C898.848,25.6453333 899.285333,25.312 899.664,24.864 C900.042667,24.416 900.346667,23.8453333 900.576,23.152 C900.805333,22.4586667 900.92,21.6373333 900.92,20.688 C900.92,19.792 900.810667,19.0266667 900.592,18.392 C900.373333,17.7573333 900.085333,17.2373333 899.728,16.832 C899.370667,16.4266667 898.96,16.128 898.496,15.936 C898.032,15.744 897.554667,15.648 897.064,15.648 C896.605333,15.648 896.170667,15.7253333 895.76,15.88 C895.349333,16.0346667 894.992,16.2613333 894.688,16.56 C894.384,16.8586667 894.141333,17.2186667 893.96,17.64 C893.778667,18.0613333 893.688,18.5333333 893.688,19.056 C893.688,19.5893333 893.765333,20.0533333 893.92,20.448 C894.074667,20.8426667 894.285333,21.168 894.552,21.424 C894.818667,21.68 895.136,21.872 895.504,22 C895.872,22.128 896.274667,22.192 896.712,22.192 C896.872,22.192 897.042667,22.168 897.224,22.12 C897.405333,22.072 897.586667,22.0026667 897.768,21.912 C897.949333,21.8213333 898.125333,21.7093333 898.296,21.576 C898.466667,21.4426667 898.616,21.2906667 898.744,21.12 C898.722667,21.7173333 898.656,22.216 898.544,22.616 C898.432,23.016 898.282667,23.3413333 898.096,23.592 C897.909333,23.8426667 897.693333,24.0213333 897.448,24.128 C897.202667,24.2346667 896.936,24.288 896.648,24.288 C896.349333,24.288 896.056,24.216 895.768,24.072 C895.48,23.928 895.250667,23.76 895.08,23.568 L895.08,23.568 L893.832,24.976 C894.152,25.296 894.56,25.5786667 895.056,25.824 C895.552,26.0693333 896.136,26.192 896.808,26.192 Z M897.176,20.528 C896.792,20.528 896.472,20.4186667 896.216,20.2 C895.96,19.9813333 895.832,19.6 895.832,19.056 C895.832,18.48 895.96,18.0613333 896.216,17.8 C896.472,17.5386667 896.770667,17.408 897.112,17.408 C897.474667,17.408 897.802667,17.56 898.096,17.864 C898.389333,18.168 898.589333,18.72 898.696,19.52 C898.493333,19.8826667 898.256,20.1413333 897.984,20.296 C897.712,20.4506667 897.442667,20.528 897.176,20.528 Z M907.224,26 L907.224,17.552 L910.088,17.552 L910.088,15.568 L901.992,15.568 L901.992,17.552 L904.856,17.552 L904.856,26 L907.224,26 Z" id="$2.59T" fill="#6F41A7" fill-rule="nonzero"></path>
                <path d="M4.718,73.168 C5.31533333,73.168 5.86133333,73.0583333 6.356,72.839 C6.85066667,72.6196667 7.27766667,72.3023333 7.637,71.887 C7.99633333,71.4716667 8.274,70.97 8.47,70.382 C8.666,69.794 8.764,69.1266667 8.764,68.38 C8.764,67.6426667 8.666,66.9823333 8.47,66.399 C8.274,65.8156667 7.99633333,65.3233333 7.637,64.922 C7.27766667,64.5206667 6.85066667,64.2126667 6.356,63.998 C5.86133333,63.7833333 5.31533333,63.676 4.718,63.676 C4.12066667,63.676 3.57466667,63.7833333 3.08,63.998 C2.58533333,64.2126667 2.16066667,64.5206667 1.806,64.922 C1.45133333,65.3233333 1.176,65.8156667 0.98,66.399 C0.784,66.9823333 0.686,67.6426667 0.686,68.38 C0.686,69.1266667 0.784,69.794 0.98,70.382 C1.176,70.97 1.45133333,71.4716667 1.806,71.887 C2.16066667,72.3023333 2.58533333,72.6196667 3.08,72.839 C3.57466667,73.0583333 4.12066667,73.168 4.718,73.168 Z M4.718,71.754 C4.354,71.754 4.02733333,71.6746667 3.738,71.516 C3.44866667,71.3573333 3.20133333,71.131 2.996,70.837 C2.79066667,70.543 2.632,70.1883333 2.52,69.773 C2.408,69.3576667 2.352,68.8933333 2.352,68.38 C2.352,67.3533333 2.56433333,66.5483333 2.989,65.965 C3.41366667,65.3816667 3.99,65.09 4.718,65.09 C5.446,65.09 6.02233333,65.3816667 6.447,65.965 C6.87166667,66.5483333 7.084,67.3533333 7.084,68.38 C7.084,68.8933333 7.028,69.3576667 6.916,69.773 C6.804,70.1883333 6.64533333,70.543 6.44,70.837 C6.23466667,71.131 5.98733333,71.3573333 5.698,71.516 C5.40866667,71.6746667 5.082,71.754 4.718,71.754 Z M12.502,73.168 C12.978,73.168 13.391,73.0606667 13.741,72.846 C14.091,72.6313333 14.4153333,72.3466667 14.714,71.992 L14.714,71.992 L14.756,71.992 L14.882,73 L16.198,73 L16.198,66.126 L14.588,66.126 L14.588,70.83 C14.3266667,71.166 14.0816667,71.4086667 13.853,71.558 C13.6243333,71.7073333 13.3606667,71.782 13.062,71.782 C12.6886667,71.782 12.418,71.6653333 12.25,71.432 C12.082,71.1986667 11.998,70.7973333 11.998,70.228 L11.998,70.228 L11.998,66.126 L10.388,66.126 L10.388,70.438 C10.388,71.3153333 10.556,71.9896667 10.892,72.461 C11.228,72.9323333 11.7646667,73.168 12.502,73.168 Z M20.664,73.168 C20.9346667,73.168 21.189,73.1423333 21.427,73.091 C21.665,73.0396667 21.8773333,72.9813333 22.064,72.916 L22.064,72.916 L21.784,71.726 C21.6813333,71.7726667 21.567,71.81 21.441,71.838 C21.315,71.866 21.1913333,71.88 21.07,71.88 C20.426,71.88 20.104,71.4786667 20.104,70.676 L20.104,70.676 L20.104,67.4 L21.854,67.4 L21.854,66.126 L20.104,66.126 L20.104,64.25 L18.76,64.25 L18.564,66.126 L17.5,66.196 L17.5,67.4 L18.48,67.4 L18.48,70.676 C18.48,71.0493333 18.5196667,71.3876667 18.599,71.691 C18.6783333,71.9943333 18.8043333,72.2556667 18.977,72.475 C19.1496667,72.6943333 19.3736667,72.8646667 19.649,72.986 C19.9243333,73.1073333 20.2626667,73.168 20.664,73.168 Z M24.864,73.168 C25.2186667,73.168 25.5033333,73.1213333 25.718,73.028 L25.718,73.028 L25.508,71.824 C25.4426667,71.8426667 25.3936667,71.852 25.361,71.852 L25.361,71.852 L25.256,71.852 C25.172,71.852 25.0926667,71.8123333 25.018,71.733 C24.9433333,71.6536667 24.906,71.516 24.906,71.32 L24.906,71.32 L24.906,63.116 L23.296,63.116 L23.296,71.236 C23.296,71.8333333 23.4126667,72.3046667 23.646,72.65 C23.8793333,72.9953333 24.2853333,73.168 24.864,73.168 Z M28.756,73.168 C29.1666667,73.168 29.547,73.0793333 29.897,72.902 C30.247,72.7246667 30.576,72.5053333 30.884,72.244 L30.884,72.244 L30.94,72.244 L31.052,73 L32.382,73 L32.382,68.926 C32.382,67.9646667 32.1696667,67.2296667 31.745,66.721 C31.3203333,66.2123333 30.6786667,65.958 29.82,65.958 C29.2693333,65.958 28.756,66.0466667 28.28,66.224 C27.804,66.4013333 27.3746667,66.6113333 26.992,66.854 L26.992,66.854 L27.58,67.932 C27.888,67.7453333 28.203,67.5866667 28.525,67.456 C28.847,67.3253333 29.176,67.26 29.512,67.26 C29.7453333,67.26 29.9413333,67.295 30.1,67.365 C30.2586667,67.435 30.387,67.533 30.485,67.659 C30.583,67.785 30.653,67.9296667 30.695,68.093 C30.737,68.2563333 30.7626667,68.4266667 30.772,68.604 C30.0626667,68.6786667 29.4536667,68.786 28.945,68.926 C28.4363333,69.066 28.0163333,69.2386667 27.685,69.444 C27.3536667,69.6493333 27.111,69.8943333 26.957,70.179 C26.803,70.4636667 26.726,70.788 26.726,71.152 C26.726,71.7586667 26.9126667,72.2463333 27.286,72.615 C27.6593333,72.9836667 28.1493333,73.168 28.756,73.168 Z M29.274,71.908 C28.9846667,71.908 28.7466667,71.838 28.56,71.698 C28.3733333,71.558 28.28,71.334 28.28,71.026 C28.28,70.858 28.322,70.6993333 28.406,70.55 C28.49,70.4006667 28.63,70.2676667 28.826,70.151 C29.022,70.0343333 29.2786667,69.9293333 29.596,69.836 C29.9133333,69.7426667 30.3053333,69.668 30.772,69.612 L30.772,69.612 L30.772,71.152 C30.5106667,71.3946667 30.2656667,71.5813333 30.037,71.712 C29.8083333,71.8426667 29.554,71.908 29.274,71.908 Z M34.776,75.828 C35.1493333,75.828 35.4783333,75.7696667 35.763,75.653 C36.0476667,75.5363333 36.2996667,75.3683333 36.519,75.149 C36.7383333,74.9296667 36.932,74.666 37.1,74.358 C37.268,74.05 37.422,73.7 37.562,73.308 L37.562,73.308 L40.054,66.126 L38.5,66.126 L37.464,69.5 C37.38,69.808 37.2936667,70.1276667 37.205,70.459 C37.1163333,70.7903333 37.03,71.1146667 36.946,71.432 L36.946,71.432 L36.89,71.432 C36.7873333,71.1053333 36.687,70.7763333 36.589,70.445 C36.491,70.1136667 36.3906667,69.7986667 36.288,69.5 L36.288,69.5 L35.098,66.126 L33.46,66.126 L36.162,72.916 L36.036,73.35 C35.924,73.6953333 35.7583333,73.9776667 35.539,74.197 C35.3196667,74.4163333 35.028,74.526 34.664,74.526 C34.58,74.526 34.4936667,74.5143333 34.405,74.491 C34.3163333,74.4676667 34.2393333,74.4466667 34.174,74.428 L34.174,74.428 L33.88,75.688 C34.0106667,75.7346667 34.146,75.7696667 34.286,75.793 C34.426,75.8163333 34.5893333,75.828 34.776,75.828 Z M43.162,73.168 C43.5913333,73.168 43.974,73.112 44.31,73 C44.646,72.888 44.926,72.7363333 45.15,72.545 C45.374,72.3536667 45.5443333,72.1296667 45.661,71.873 C45.7776667,71.6163333 45.836,71.3386667 45.836,71.04 C45.836,70.7226667 45.7776667,70.4496667 45.661,70.221 C45.5443333,69.9923333 45.3903333,69.7986667 45.199,69.64 C45.0076667,69.4813333 44.7953333,69.3483333 44.562,69.241 C44.3286667,69.1336667 44.0953333,69.038 43.862,68.954 C43.6753333,68.8886667 43.4956667,68.8233333 43.323,68.758 C43.1503333,68.6926667 42.9986667,68.6226667 42.868,68.548 C42.7373333,68.4733333 42.6323333,68.387 42.553,68.289 C42.4736667,68.191 42.434,68.072 42.434,67.932 C42.434,67.7173333 42.5156667,67.5376667 42.679,67.393 C42.8423333,67.2483333 43.0966667,67.176 43.442,67.176 C43.7126667,67.176 43.9716667,67.2296667 44.219,67.337 C44.4663333,67.4443333 44.7113333,67.5866667 44.954,67.764 L44.954,67.764 L45.696,66.784 C45.416,66.5693333 45.0846667,66.378 44.702,66.21 C44.3193333,66.042 43.89,65.958 43.414,65.958 C42.6393333,65.958 42.028,66.1493333 41.58,66.532 C41.132,66.9146667 40.908,67.4093333 40.908,68.016 C40.908,68.3053333 40.9663333,68.555 41.083,68.765 C41.1996667,68.975 41.349,69.1593333 41.531,69.318 C41.713,69.4766667 41.9206667,69.612 42.154,69.724 C42.3873333,69.836 42.616,69.934 42.84,70.018 C43.0173333,70.0926667 43.1946667,70.165 43.372,70.235 C43.5493333,70.305 43.708,70.382 43.848,70.466 C43.988,70.55 44.1,70.6456667 44.184,70.753 C44.268,70.8603333 44.31,70.984 44.31,71.124 C44.31,71.3666667 44.2213333,71.565 44.044,71.719 C43.8666667,71.873 43.5913333,71.95 43.218,71.95 C42.8633333,71.95 42.5343333,71.8823333 42.231,71.747 C41.9276667,71.6116667 41.622,71.4226667 41.314,71.18 L41.314,71.18 L40.558,72.216 C40.894,72.4866667 41.293,72.713 41.755,72.895 C42.217,73.077 42.686,73.168 43.162,73.168 Z" id="Outlays" fill="#666666" fill-rule="nonzero"></path>
                <path d="M3.948,92.54 L3.948,91.126 C4.62,91.0326667 5.14966667,90.7713333 5.537,90.342 C5.92433333,89.9126667 6.118,89.362 6.118,88.69 C6.118,88.186 6.02233333,87.773 5.831,87.451 C5.63966667,87.129 5.39933333,86.8583333 5.11,86.639 C4.82066667,86.4196667 4.50566667,86.233 4.165,86.079 C3.82433333,85.925 3.50933333,85.7663333 3.22,85.603 C2.93066667,85.4396667 2.69033333,85.2506667 2.499,85.036 C2.30766667,84.8213333 2.212,84.546 2.212,84.21 C2.212,83.7993333 2.338,83.4726667 2.59,83.23 C2.842,82.9873333 3.18266667,82.866 3.612,82.866 C3.99466667,82.866 4.30966667,82.936 4.557,83.076 C4.80433333,83.216 5.05866667,83.412 5.32,83.664 L5.32,83.664 L5.936,82.978 C5.684,82.7073333 5.40166667,82.474 5.089,82.278 C4.77633333,82.082 4.396,81.9606667 3.948,81.914 L3.948,81.914 L3.948,80.528 L3.108,80.528 L3.108,81.942 C2.492,82.0353333 1.99966667,82.2896667 1.631,82.705 C1.26233333,83.1203333 1.078,83.6406667 1.078,84.266 C1.078,84.7233333 1.17366667,85.099 1.365,85.393 C1.55633333,85.687 1.79666667,85.9366667 2.086,86.142 C2.37533333,86.3473333 2.69033333,86.5293333 3.031,86.688 C3.37166667,86.8466667 3.68666667,87.017 3.976,87.199 C4.26533333,87.381 4.50566667,87.5956667 4.697,87.843 C4.88833333,88.0903333 4.984,88.4006667 4.984,88.774 C4.984,89.2126667 4.85566667,89.5626667 4.599,89.824 C4.34233333,90.0853333 3.95266667,90.216 3.43,90.216 C3.00066667,90.216 2.60633333,90.125 2.247,89.943 C1.88766667,89.761 1.55866667,89.5393333 1.26,89.278 L1.26,89.278 L0.728,90.076 C1.02666667,90.3466667 1.386,90.5823333 1.806,90.783 C2.226,90.9836667 2.66,91.1073333 3.108,91.154 L3.108,91.154 L3.108,92.54 L3.948,92.54 Z M13.104,91 L13.104,90.048 L11.256,90.048 L11.256,82.068 L10.374,82.068 C10.1313333,82.2173333 9.85833333,82.3456667 9.555,82.453 C9.25166667,82.5603333 8.89466667,82.6513333 8.484,82.726 L8.484,82.726 L8.484,83.468 L10.108,83.468 L10.108,90.048 L8.064,90.048 L8.064,91 L13.104,91 Z M15.666,91.168 C15.89,91.168 16.0836667,91.0863333 16.247,90.923 C16.4103333,90.7596667 16.492,90.552 16.492,90.3 C16.492,90.0293333 16.4103333,89.8123333 16.247,89.649 C16.0836667,89.4856667 15.89,89.404 15.666,89.404 C15.4326667,89.404 15.2343333,89.4856667 15.071,89.649 C14.9076667,89.8123333 14.826,90.0293333 14.826,90.3 C14.826,90.552 14.9076667,90.7596667 15.071,90.923 C15.2343333,91.0863333 15.4326667,91.168 15.666,91.168 Z M20.678,91.168 C21.07,91.168 21.4456667,91.1003333 21.805,90.965 C22.1643333,90.8296667 22.484,90.6336667 22.764,90.377 C23.044,90.1203333 23.268,89.8053333 23.436,89.432 C23.604,89.0586667 23.688,88.6293333 23.688,88.144 C23.688,87.6586667 23.6156667,87.241 23.471,86.891 C23.3263333,86.541 23.128,86.2516667 22.876,86.023 C22.624,85.7943333 22.33,85.624 21.994,85.512 C21.658,85.4 21.2986667,85.344 20.916,85.344 C20.6453333,85.344 20.4026667,85.3766667 20.188,85.442 C19.9733333,85.5073333 19.7586667,85.596 19.544,85.708 L19.544,85.708 L19.782,83.062 L23.24,83.062 L23.24,82.068 L18.774,82.068 L18.48,86.366 L19.096,86.758 C19.3666667,86.5806667 19.6116667,86.4453333 19.831,86.352 C20.0503333,86.2586667 20.314,86.212 20.622,86.212 C21.2006667,86.212 21.6626667,86.3846667 22.008,86.73 C22.3533333,87.0753333 22.526,87.556 22.526,88.172 C22.526,88.48 22.4746667,88.76 22.372,89.012 C22.2693333,89.264 22.1293333,89.4786667 21.952,89.656 C21.7746667,89.8333333 21.567,89.971 21.329,90.069 C21.091,90.167 20.8366667,90.216 20.566,90.216 C20.0433333,90.216 19.6023333,90.1133333 19.243,89.908 C18.8836667,89.7026667 18.5733333,89.4646667 18.312,89.194 L18.312,89.194 L17.752,89.95 C17.9013333,90.1086667 18.0716667,90.2603333 18.263,90.405 C18.4543333,90.5496667 18.669,90.678 18.907,90.79 C19.145,90.902 19.411,90.993 19.705,91.063 C19.999,91.133 20.3233333,91.168 20.678,91.168 Z M27.636,91.168 C28.028,91.168 28.4036667,91.1003333 28.763,90.965 C29.1223333,90.8296667 29.442,90.6336667 29.722,90.377 C30.002,90.1203333 30.226,89.8053333 30.394,89.432 C30.562,89.0586667 30.646,88.6293333 30.646,88.144 C30.646,87.6586667 30.5736667,87.241 30.429,86.891 C30.2843333,86.541 30.086,86.2516667 29.834,86.023 C29.582,85.7943333 29.288,85.624 28.952,85.512 C28.616,85.4 28.2566667,85.344 27.874,85.344 C27.6033333,85.344 27.3606667,85.3766667 27.146,85.442 C26.9313333,85.5073333 26.7166667,85.596 26.502,85.708 L26.502,85.708 L26.74,83.062 L30.198,83.062 L30.198,82.068 L25.732,82.068 L25.438,86.366 L26.054,86.758 C26.3246667,86.5806667 26.5696667,86.4453333 26.789,86.352 C27.0083333,86.2586667 27.272,86.212 27.58,86.212 C28.1586667,86.212 28.6206667,86.3846667 28.966,86.73 C29.3113333,87.0753333 29.484,87.556 29.484,88.172 C29.484,88.48 29.4326667,88.76 29.33,89.012 C29.2273333,89.264 29.0873333,89.4786667 28.91,89.656 C28.7326667,89.8333333 28.525,89.971 28.287,90.069 C28.049,90.167 27.7946667,90.216 27.524,90.216 C27.0013333,90.216 26.5603333,90.1133333 26.201,89.908 C25.8416667,89.7026667 25.5313333,89.4646667 25.27,89.194 L25.27,89.194 L24.71,89.95 C24.8593333,90.1086667 25.0296667,90.2603333 25.221,90.405 C25.4123333,90.5496667 25.627,90.678 25.865,90.79 C26.103,90.902 26.369,90.993 26.663,91.063 C26.957,91.133 27.2813333,91.168 27.636,91.168 Z M35.658,91 L35.658,82.796 L38.43,82.796 L38.43,81.816 L31.71,81.816 L31.71,82.796 L34.482,82.796 L34.482,91 L35.658,91 Z" id="$1.55T" fill="#666666" fill-rule="nonzero"></path>
                <path d="M478.448,92.54 L478.448,91.126 C479.12,91.0326667 479.649667,90.7713333 480.037,90.342 C480.424333,89.9126667 480.618,89.362 480.618,88.69 C480.618,88.186 480.522333,87.773 480.331,87.451 C480.139667,87.129 479.899333,86.8583333 479.61,86.639 C479.320667,86.4196667 479.005667,86.233 478.665,86.079 C478.324333,85.925 478.009333,85.7663333 477.72,85.603 C477.430667,85.4396667 477.190333,85.2506667 476.999,85.036 C476.807667,84.8213333 476.712,84.546 476.712,84.21 C476.712,83.7993333 476.838,83.4726667 477.09,83.23 C477.342,82.9873333 477.682667,82.866 478.112,82.866 C478.494667,82.866 478.809667,82.936 479.057,83.076 C479.304333,83.216 479.558667,83.412 479.82,83.664 L479.82,83.664 L480.436,82.978 C480.184,82.7073333 479.901667,82.474 479.589,82.278 C479.276333,82.082 478.896,81.9606667 478.448,81.914 L478.448,81.914 L478.448,80.528 L477.608,80.528 L477.608,81.942 C476.992,82.0353333 476.499667,82.2896667 476.131,82.705 C475.762333,83.1203333 475.578,83.6406667 475.578,84.266 C475.578,84.7233333 475.673667,85.099 475.865,85.393 C476.056333,85.687 476.296667,85.9366667 476.586,86.142 C476.875333,86.3473333 477.190333,86.5293333 477.531,86.688 C477.871667,86.8466667 478.186667,87.017 478.476,87.199 C478.765333,87.381 479.005667,87.5956667 479.197,87.843 C479.388333,88.0903333 479.484,88.4006667 479.484,88.774 C479.484,89.2126667 479.355667,89.5626667 479.099,89.824 C478.842333,90.0853333 478.452667,90.216 477.93,90.216 C477.500667,90.216 477.106333,90.125 476.747,89.943 C476.387667,89.761 476.058667,89.5393333 475.76,89.278 L475.76,89.278 L475.228,90.076 C475.526667,90.3466667 475.886,90.5823333 476.306,90.783 C476.726,90.9836667 477.16,91.1073333 477.608,91.154 L477.608,91.154 L477.608,92.54 L478.448,92.54 Z M487.604,91 L487.604,90.048 L485.756,90.048 L485.756,82.068 L484.874,82.068 C484.631333,82.2173333 484.358333,82.3456667 484.055,82.453 C483.751667,82.5603333 483.394667,82.6513333 482.984,82.726 L482.984,82.726 L482.984,83.468 L484.608,83.468 L484.608,90.048 L482.564,90.048 L482.564,91 L487.604,91 Z M490.166,91.168 C490.39,91.168 490.583667,91.0863333 490.747,90.923 C490.910333,90.7596667 490.992,90.552 490.992,90.3 C490.992,90.0293333 490.910333,89.8123333 490.747,89.649 C490.583667,89.4856667 490.39,89.404 490.166,89.404 C489.932667,89.404 489.734333,89.4856667 489.571,89.649 C489.407667,89.8123333 489.326,90.0293333 489.326,90.3 C489.326,90.552 489.407667,90.7596667 489.571,90.923 C489.734333,91.0863333 489.932667,91.168 490.166,91.168 Z M495.654,91.168 C496.018,91.168 496.358667,91.098 496.676,90.958 C496.993333,90.818 497.273333,90.622 497.516,90.37 C497.758667,90.118 497.95,89.817 498.09,89.467 C498.23,89.117 498.3,88.7273333 498.3,88.298 C498.3,87.374 498.069,86.6833333 497.607,86.226 C497.145,85.7686667 496.526667,85.54 495.752,85.54 C495.388,85.54 495.019333,85.6403333 494.646,85.841 C494.272667,86.0416667 493.946,86.3146667 493.666,86.66 C493.675333,85.9506667 493.745333,85.3556667 493.876,84.875 C494.006667,84.3943333 494.179333,84.0046667 494.394,83.706 C494.608667,83.4073333 494.856,83.1926667 495.136,83.062 C495.416,82.9313333 495.71,82.866 496.018,82.866 C496.298,82.866 496.566333,82.929 496.823,83.055 C497.079667,83.181 497.301333,83.3513333 497.488,83.566 L497.488,83.566 L498.132,82.852 C497.88,82.5813333 497.579,82.355 497.229,82.173 C496.879,81.991 496.461333,81.9 495.976,81.9 C495.528,81.9 495.101,81.991 494.695,82.173 C494.289,82.355 493.927333,82.6443333 493.61,83.041 C493.292667,83.4376667 493.040667,83.951 492.854,84.581 C492.667333,85.211 492.574,85.974 492.574,86.87 C492.574,87.5886667 492.653333,88.2163333 492.812,88.753 C492.970667,89.2896667 493.187667,89.7376667 493.463,90.097 C493.738333,90.4563333 494.062667,90.7246667 494.436,90.902 C494.809333,91.0793333 495.215333,91.168 495.654,91.168 Z M495.654,90.258 C495.084667,90.258 494.634333,90.0316667 494.303,89.579 C493.971667,89.1263333 493.768667,88.4613333 493.694,87.584 C493.974,87.164 494.282,86.863 494.618,86.681 C494.954,86.499 495.266667,86.408 495.556,86.408 C496.116,86.408 496.531333,86.576 496.802,86.912 C497.072667,87.248 497.208,87.71 497.208,88.298 C497.208,88.5966667 497.168333,88.865 497.089,89.103 C497.009667,89.341 496.9,89.5463333 496.76,89.719 C496.62,89.8916667 496.456667,90.0246667 496.27,90.118 C496.083333,90.2113333 495.878,90.258 495.654,90.258 Z M502.36,91.168 C502.789333,91.168 503.181333,91.1073333 503.536,90.986 C503.890667,90.8646667 504.194,90.6966667 504.446,90.482 C504.698,90.2673333 504.894,90.0153333 505.034,89.726 C505.174,89.4366667 505.244,89.124 505.244,88.788 C505.244,88.4893333 505.199667,88.2233333 505.111,87.99 C505.022333,87.7566667 504.905667,87.549 504.761,87.367 C504.616333,87.185 504.450667,87.0216667 504.264,86.877 C504.077333,86.7323333 503.886,86.604 503.69,86.492 L503.69,86.492 L503.69,86.436 C503.83,86.3333333 503.972333,86.2073333 504.117,86.058 C504.261667,85.9086667 504.392333,85.7406667 504.509,85.554 C504.625667,85.3673333 504.723667,85.1666667 504.803,84.952 C504.882333,84.7373333 504.922,84.5133333 504.922,84.28 C504.922,83.9346667 504.863667,83.615 504.747,83.321 C504.630333,83.027 504.462333,82.775 504.243,82.565 C504.023667,82.355 503.76,82.1916667 503.452,82.075 C503.144,81.9583333 502.794,81.9 502.402,81.9 C502.038,81.9 501.702,81.956 501.394,82.068 C501.086,82.18 500.82,82.3363333 500.596,82.537 C500.372,82.7376667 500.194667,82.978 500.064,83.258 C499.933333,83.538 499.868,83.8506667 499.868,84.196 C499.868,84.672 499.994,85.0756667 500.246,85.407 C500.498,85.7383333 500.787333,86.0206667 501.114,86.254 L501.114,86.254 L501.114,86.31 C500.899333,86.422 500.691667,86.555 500.491,86.709 C500.290333,86.863 500.113,87.0403333 499.959,87.241 C499.805,87.4416667 499.679,87.6656667 499.581,87.913 C499.483,88.1603333 499.434,88.4286667 499.434,88.718 C499.434,89.0726667 499.508667,89.3993333 499.658,89.698 C499.807333,89.9966667 500.010333,90.2556667 500.267,90.475 C500.523667,90.6943333 500.831667,90.8646667 501.191,90.986 C501.550333,91.1073333 501.94,91.168 502.36,91.168 Z M502.99,86.128 C502.719333,86.0253333 502.460333,85.9156667 502.213,85.799 C501.965667,85.6823333 501.746333,85.5493333 501.555,85.4 C501.363667,85.2506667 501.212,85.0803333 501.1,84.889 C500.988,84.6976667 500.932,84.4666667 500.932,84.196 C500.932,83.7573333 501.067333,83.4073333 501.338,83.146 C501.608667,82.8846667 501.954,82.754 502.374,82.754 C502.868667,82.754 503.251333,82.9056667 503.522,83.209 C503.792667,83.5123333 503.928,83.888 503.928,84.336 C503.928,84.6626667 503.846333,84.9753333 503.683,85.274 C503.519667,85.5726667 503.288667,85.8573333 502.99,86.128 Z M502.388,90.314 C502.117333,90.314 501.865333,90.272 501.632,90.188 C501.398667,90.104 501.195667,89.985 501.023,89.831 C500.850333,89.677 500.715,89.4973333 500.617,89.292 C500.519,89.0866667 500.47,88.858 500.47,88.606 C500.47,88.1953333 500.589,87.829 500.827,87.507 C501.065,87.185 501.361333,86.9026667 501.716,86.66 C502.033333,86.7906667 502.339,86.919 502.633,87.045 C502.927,87.171 503.186,87.311 503.41,87.465 C503.634,87.619 503.811333,87.7986667 503.942,88.004 C504.072667,88.2093333 504.138,88.4566667 504.138,88.746 C504.138,89.2126667 503.977,89.5906667 503.655,89.88 C503.333,90.1693333 502.910667,90.314 502.388,90.314 Z M510.158,91 L510.158,82.796 L512.93,82.796 L512.93,81.816 L506.21,81.816 L506.21,82.796 L508.982,82.796 L508.982,91 L510.158,91 Z" id="$1.68T" fill="#666666" fill-rule="nonzero"></path>
                <path d="M777.948,92.54 L777.948,91.126 C778.62,91.0326667 779.149667,90.7713333 779.537,90.342 C779.924333,89.9126667 780.118,89.362 780.118,88.69 C780.118,88.186 780.022333,87.773 779.831,87.451 C779.639667,87.129 779.399333,86.8583333 779.11,86.639 C778.820667,86.4196667 778.505667,86.233 778.165,86.079 C777.824333,85.925 777.509333,85.7663333 777.22,85.603 C776.930667,85.4396667 776.690333,85.2506667 776.499,85.036 C776.307667,84.8213333 776.212,84.546 776.212,84.21 C776.212,83.7993333 776.338,83.4726667 776.59,83.23 C776.842,82.9873333 777.182667,82.866 777.612,82.866 C777.994667,82.866 778.309667,82.936 778.557,83.076 C778.804333,83.216 779.058667,83.412 779.32,83.664 L779.32,83.664 L779.936,82.978 C779.684,82.7073333 779.401667,82.474 779.089,82.278 C778.776333,82.082 778.396,81.9606667 777.948,81.914 L777.948,81.914 L777.948,80.528 L777.108,80.528 L777.108,81.942 C776.492,82.0353333 775.999667,82.2896667 775.631,82.705 C775.262333,83.1203333 775.078,83.6406667 775.078,84.266 C775.078,84.7233333 775.173667,85.099 775.365,85.393 C775.556333,85.687 775.796667,85.9366667 776.086,86.142 C776.375333,86.3473333 776.690333,86.5293333 777.031,86.688 C777.371667,86.8466667 777.686667,87.017 777.976,87.199 C778.265333,87.381 778.505667,87.5956667 778.697,87.843 C778.888333,88.0903333 778.984,88.4006667 778.984,88.774 C778.984,89.2126667 778.855667,89.5626667 778.599,89.824 C778.342333,90.0853333 777.952667,90.216 777.43,90.216 C777.000667,90.216 776.606333,90.125 776.247,89.943 C775.887667,89.761 775.558667,89.5393333 775.26,89.278 L775.26,89.278 L774.728,90.076 C775.026667,90.3466667 775.386,90.5823333 775.806,90.783 C776.226,90.9836667 776.66,91.1073333 777.108,91.154 L777.108,91.154 L777.108,92.54 L777.948,92.54 Z M783.828,91.168 C784.276,91.168 784.703,91.077 785.109,90.895 C785.515,90.713 785.876667,90.4236667 786.194,90.027 C786.511333,89.6303333 786.763333,89.117 786.95,88.487 C787.136667,87.857 787.23,87.094 787.23,86.198 C787.23,85.4793333 787.153,84.8516667 786.999,84.315 C786.845,83.7783333 786.630333,83.3303333 786.355,82.971 C786.079667,82.6116667 785.753,82.3433333 785.375,82.166 C784.997,81.9886667 784.588667,81.9 784.15,81.9 C783.795333,81.9 783.457,81.97 783.135,82.11 C782.813,82.25 782.533,82.446 782.295,82.698 C782.057,82.95 781.868,83.251 781.728,83.601 C781.588,83.951 781.518,84.3406667 781.518,84.77 C781.518,85.694 781.746667,86.3846667 782.204,86.842 C782.661333,87.2993333 783.277333,87.528 784.052,87.528 C784.425333,87.528 784.798667,87.4253333 785.172,87.22 C785.545333,87.0146667 785.872,86.7346667 786.152,86.38 C786.142667,87.0986667 786.072667,87.7006667 785.942,88.186 C785.811333,88.6713333 785.638667,89.0656667 785.424,89.369 C785.209333,89.6723333 784.962,89.8893333 784.682,90.02 C784.402,90.1506667 784.103333,90.216 783.786,90.216 C783.506,90.216 783.237667,90.1506667 782.981,90.02 C782.724333,89.8893333 782.502667,89.7166667 782.316,89.502 L782.316,89.502 L781.672,90.23 C781.914667,90.5006667 782.215667,90.7246667 782.575,90.902 C782.934333,91.0793333 783.352,91.168 783.828,91.168 Z M784.248,86.66 C783.688,86.66 783.272667,86.492 783.002,86.156 C782.731333,85.82 782.596,85.358 782.596,84.77 C782.596,84.4806667 782.635667,84.2146667 782.715,83.972 C782.794333,83.7293333 782.904,83.5216667 783.044,83.349 C783.184,83.1763333 783.349667,83.0433333 783.541,82.95 C783.732333,82.8566667 783.935333,82.81 784.15,82.81 C784.719333,82.81 785.172,83.034 785.508,83.482 C785.844,83.93 786.049333,84.5926667 786.124,85.47 C785.834667,85.89 785.524333,86.1933333 785.193,86.38 C784.861667,86.5666667 784.546667,86.66 784.248,86.66 Z M794.062,91 L794.062,90.048 L792.214,90.048 L792.214,82.068 L791.332,82.068 C791.089333,82.2173333 790.816333,82.3456667 790.513,82.453 C790.209667,82.5603333 789.852667,82.6513333 789.442,82.726 L789.442,82.726 L789.442,83.468 L791.066,83.468 L791.066,90.048 L789.022,90.048 L789.022,91 L794.062,91 Z M798.374,91.168 C798.803333,91.168 799.195333,91.1073333 799.55,90.986 C799.904667,90.8646667 800.208,90.6966667 800.46,90.482 C800.712,90.2673333 800.908,90.0153333 801.048,89.726 C801.188,89.4366667 801.258,89.124 801.258,88.788 C801.258,88.4893333 801.213667,88.2233333 801.125,87.99 C801.036333,87.7566667 800.919667,87.549 800.775,87.367 C800.630333,87.185 800.464667,87.0216667 800.278,86.877 C800.091333,86.7323333 799.9,86.604 799.704,86.492 L799.704,86.492 L799.704,86.436 C799.844,86.3333333 799.986333,86.2073333 800.131,86.058 C800.275667,85.9086667 800.406333,85.7406667 800.523,85.554 C800.639667,85.3673333 800.737667,85.1666667 800.817,84.952 C800.896333,84.7373333 800.936,84.5133333 800.936,84.28 C800.936,83.9346667 800.877667,83.615 800.761,83.321 C800.644333,83.027 800.476333,82.775 800.257,82.565 C800.037667,82.355 799.774,82.1916667 799.466,82.075 C799.158,81.9583333 798.808,81.9 798.416,81.9 C798.052,81.9 797.716,81.956 797.408,82.068 C797.1,82.18 796.834,82.3363333 796.61,82.537 C796.386,82.7376667 796.208667,82.978 796.078,83.258 C795.947333,83.538 795.882,83.8506667 795.882,84.196 C795.882,84.672 796.008,85.0756667 796.26,85.407 C796.512,85.7383333 796.801333,86.0206667 797.128,86.254 L797.128,86.254 L797.128,86.31 C796.913333,86.422 796.705667,86.555 796.505,86.709 C796.304333,86.863 796.127,87.0403333 795.973,87.241 C795.819,87.4416667 795.693,87.6656667 795.595,87.913 C795.497,88.1603333 795.448,88.4286667 795.448,88.718 C795.448,89.0726667 795.522667,89.3993333 795.672,89.698 C795.821333,89.9966667 796.024333,90.2556667 796.281,90.475 C796.537667,90.6943333 796.845667,90.8646667 797.205,90.986 C797.564333,91.1073333 797.954,91.168 798.374,91.168 Z M799.004,86.128 C798.733333,86.0253333 798.474333,85.9156667 798.227,85.799 C797.979667,85.6823333 797.760333,85.5493333 797.569,85.4 C797.377667,85.2506667 797.226,85.0803333 797.114,84.889 C797.002,84.6976667 796.946,84.4666667 796.946,84.196 C796.946,83.7573333 797.081333,83.4073333 797.352,83.146 C797.622667,82.8846667 797.968,82.754 798.388,82.754 C798.882667,82.754 799.265333,82.9056667 799.536,83.209 C799.806667,83.5123333 799.942,83.888 799.942,84.336 C799.942,84.6626667 799.860333,84.9753333 799.697,85.274 C799.533667,85.5726667 799.302667,85.8573333 799.004,86.128 Z M798.402,90.314 C798.131333,90.314 797.879333,90.272 797.646,90.188 C797.412667,90.104 797.209667,89.985 797.037,89.831 C796.864333,89.677 796.729,89.4973333 796.631,89.292 C796.533,89.0866667 796.484,88.858 796.484,88.606 C796.484,88.1953333 796.603,87.829 796.841,87.507 C797.079,87.185 797.375333,86.9026667 797.73,86.66 C798.047333,86.7906667 798.353,86.919 798.647,87.045 C798.941,87.171 799.2,87.311 799.424,87.465 C799.648,87.619 799.825333,87.7986667 799.956,88.004 C800.086667,88.2093333 800.152,88.4566667 800.152,88.746 C800.152,89.2126667 799.991,89.5906667 799.669,89.88 C799.347,90.1693333 798.924667,90.314 798.402,90.314 Z M806.018,91 C806.531333,91 807.002667,90.944 807.432,90.832 C807.861333,90.72 808.23,90.552 808.538,90.328 C808.846,90.104 809.084,89.824 809.252,89.488 C809.42,89.152 809.504,88.76 809.504,88.312 C809.504,87.6773333 809.331333,87.178 808.986,86.814 C808.640667,86.45 808.188,86.2166667 807.628,86.114 L807.628,86.114 L807.628,86.058 C808.066667,85.918 808.400333,85.6636667 808.629,85.295 C808.857667,84.9263333 808.972,84.5133333 808.972,84.056 C808.972,83.6546667 808.895,83.3116667 808.741,83.027 C808.587,82.7423333 808.372333,82.5113333 808.097,82.334 C807.821667,82.1566667 807.490333,82.026 807.103,81.942 C806.715667,81.858 806.288667,81.816 805.822,81.816 L805.822,81.816 L803.092,81.816 L803.092,91 L806.018,91 Z M805.612,85.722 L804.254,85.722 L804.254,82.74 L805.668,82.74 C806.386667,82.74 806.925667,82.852 807.285,83.076 C807.644333,83.3 807.824,83.678 807.824,84.21 C807.824,84.6766667 807.651333,85.0453333 807.306,85.316 C806.960667,85.5866667 806.396,85.722 805.612,85.722 L805.612,85.722 Z M805.85,90.076 L804.254,90.076 L804.254,86.618 L805.85,86.618 C806.662,86.618 807.282667,86.751 807.712,87.017 C808.141333,87.283 808.356,87.7006667 808.356,88.27 C808.356,88.886 808.136667,89.341 807.698,89.635 C807.259333,89.929 806.643333,90.076 805.85,90.076 L805.85,90.076 Z" id="$918B" fill="#666666" fill-rule="nonzero"></path>
                <path d="M478.718,73.168 C479.315333,73.168 479.861333,73.0583333 480.356,72.839 C480.850667,72.6196667 481.277667,72.3023333 481.637,71.887 C481.996333,71.4716667 482.274,70.97 482.47,70.382 C482.666,69.794 482.764,69.1266667 482.764,68.38 C482.764,67.6426667 482.666,66.9823333 482.47,66.399 C482.274,65.8156667 481.996333,65.3233333 481.637,64.922 C481.277667,64.5206667 480.850667,64.2126667 480.356,63.998 C479.861333,63.7833333 479.315333,63.676 478.718,63.676 C478.120667,63.676 477.574667,63.7833333 477.08,63.998 C476.585333,64.2126667 476.160667,64.5206667 475.806,64.922 C475.451333,65.3233333 475.176,65.8156667 474.98,66.399 C474.784,66.9823333 474.686,67.6426667 474.686,68.38 C474.686,69.1266667 474.784,69.794 474.98,70.382 C475.176,70.97 475.451333,71.4716667 475.806,71.887 C476.160667,72.3023333 476.585333,72.6196667 477.08,72.839 C477.574667,73.0583333 478.120667,73.168 478.718,73.168 Z M478.718,71.754 C478.354,71.754 478.027333,71.6746667 477.738,71.516 C477.448667,71.3573333 477.201333,71.131 476.996,70.837 C476.790667,70.543 476.632,70.1883333 476.52,69.773 C476.408,69.3576667 476.352,68.8933333 476.352,68.38 C476.352,67.3533333 476.564333,66.5483333 476.989,65.965 C477.413667,65.3816667 477.99,65.09 478.718,65.09 C479.446,65.09 480.022333,65.3816667 480.447,65.965 C480.871667,66.5483333 481.084,67.3533333 481.084,68.38 C481.084,68.8933333 481.028,69.3576667 480.916,69.773 C480.804,70.1883333 480.645333,70.543 480.44,70.837 C480.234667,71.131 479.987333,71.3573333 479.698,71.516 C479.408667,71.6746667 479.082,71.754 478.718,71.754 Z M487.79,73.168 C488.172667,73.168 488.541333,73.084 488.896,72.916 C489.250667,72.748 489.563333,72.5053333 489.834,72.188 C490.104667,71.8706667 490.321667,71.481 490.485,71.019 C490.648333,70.557 490.73,70.032 490.73,69.444 C490.73,68.912 490.669333,68.4313333 490.548,68.002 C490.426667,67.5726667 490.249333,67.2063333 490.016,66.903 C489.782667,66.5996667 489.498,66.3663333 489.162,66.203 C488.826,66.0396667 488.443333,65.958 488.014,65.958 C487.659333,65.958 487.311667,66.0373333 486.971,66.196 C486.630333,66.3546667 486.315333,66.56 486.026,66.812 L486.026,66.812 L486.068,65.664 L486.068,63.116 L484.458,63.116 L484.458,73 L485.732,73 L485.872,72.272 L485.914,72.272 C486.203333,72.5613333 486.509,72.783 486.831,72.937 C487.153,73.091 487.472667,73.168 487.79,73.168 Z M487.454,71.838 C487.248667,71.838 487.027,71.796 486.789,71.712 C486.551,71.628 486.310667,71.4786667 486.068,71.264 L486.068,71.264 L486.068,68.058 C486.590667,67.5446667 487.094667,67.288 487.58,67.288 C488.102667,67.288 488.480667,67.4793333 488.714,67.862 C488.947333,68.2446667 489.064,68.7813333 489.064,69.472 C489.064,70.256 488.91,70.8463333 488.602,71.243 C488.294,71.6396667 487.911333,71.838 487.454,71.838 Z M493.908,73.168 C494.262667,73.168 494.547333,73.1213333 494.762,73.028 L494.762,73.028 L494.552,71.824 C494.486667,71.8426667 494.437667,71.852 494.405,71.852 L494.405,71.852 L494.3,71.852 C494.216,71.852 494.136667,71.8123333 494.062,71.733 C493.987333,71.6536667 493.95,71.516 493.95,71.32 L493.95,71.32 L493.95,63.116 L492.34,63.116 L492.34,71.236 C492.34,71.8333333 492.456667,72.3046667 492.69,72.65 C492.923333,72.9953333 493.329333,73.168 493.908,73.168 Z M496.946,64.922 C497.235333,64.922 497.473333,64.838 497.66,64.67 C497.846667,64.502 497.94,64.2826667 497.94,64.012 C497.94,63.7413333 497.846667,63.5196667 497.66,63.347 C497.473333,63.1743333 497.235333,63.088 496.946,63.088 C496.656667,63.088 496.418667,63.1743333 496.232,63.347 C496.045333,63.5196667 495.952,63.7413333 495.952,64.012 C495.952,64.2826667 496.045333,64.502 496.232,64.67 C496.418667,64.838 496.656667,64.922 496.946,64.922 Z M497.744,73 L497.744,66.126 L496.134,66.126 L496.134,73 L497.744,73 Z M502.196,76.038 C502.756,76.038 503.262333,75.975 503.715,75.849 C504.167667,75.723 504.552667,75.5526667 504.87,75.338 C505.187333,75.1233333 505.432333,74.8666667 505.605,74.568 C505.777667,74.2693333 505.864,73.952 505.864,73.616 C505.864,73.0186667 505.651667,72.587 505.227,72.321 C504.802333,72.055 504.174667,71.922 503.344,71.922 L503.344,71.922 L502.126,71.922 C501.706,71.922 501.414333,71.866 501.251,71.754 C501.087667,71.642 501.006,71.488 501.006,71.292 C501.006,71.1333333 501.036333,71.0073333 501.097,70.914 C501.157667,70.8206667 501.239333,70.7273333 501.342,70.634 C501.500667,70.6993333 501.659333,70.746 501.818,70.774 C501.976667,70.802 502.130667,70.816 502.28,70.816 C502.644,70.816 502.984667,70.7646667 503.302,70.662 C503.619333,70.5593333 503.894667,70.41 504.128,70.214 C504.361333,70.018 504.545667,69.7753333 504.681,69.486 C504.816333,69.1966667 504.884,68.8606667 504.884,68.478 C504.884,68.2353333 504.846667,68.0136667 504.772,67.813 C504.697333,67.6123333 504.604,67.4466667 504.492,67.316 L504.492,67.316 L505.752,67.316 L505.752,66.126 L503.288,66.126 C503.148,66.0793333 502.991667,66.0396667 502.819,66.007 C502.646333,65.9743333 502.466667,65.958 502.28,65.958 C501.916,65.958 501.570667,66.0116667 501.244,66.119 C500.917333,66.2263333 500.630333,66.385 500.383,66.595 C500.135667,66.805 499.937333,67.064 499.788,67.372 C499.638667,67.68 499.564,68.03 499.564,68.422 C499.564,68.8326667 499.655,69.1943333 499.837,69.507 C500.019,69.8196667 500.226667,70.0646667 500.46,70.242 L500.46,70.242 L500.46,70.298 C500.264,70.438 500.089,70.6176667 499.935,70.837 C499.781,71.0563333 499.704,71.3013333 499.704,71.572 C499.704,71.852 499.762333,72.0853333 499.879,72.272 C499.995667,72.4586667 500.142667,72.608 500.32,72.72 L500.32,72.72 L500.32,72.776 C500.002667,72.972 499.76,73.1936667 499.592,73.441 C499.424,73.6883333 499.34,73.9566667 499.34,74.246 C499.34,74.5446667 499.412333,74.806 499.557,75.03 C499.701667,75.254 499.9,75.4406667 500.152,75.59 C500.404,75.7393333 500.705,75.8513333 501.055,75.926 C501.405,76.0006667 501.785333,76.038 502.196,76.038 Z M502.28,69.808 C501.944,69.808 501.659333,69.689 501.426,69.451 C501.192667,69.213 501.076,68.87 501.076,68.422 C501.076,67.9833333 501.192667,67.6473333 501.426,67.414 C501.659333,67.1806667 501.944,67.064 502.28,67.064 C502.616,67.064 502.898333,67.183 503.127,67.421 C503.355667,67.659 503.47,67.9926667 503.47,68.422 C503.47,68.87 503.353333,69.213 503.12,69.451 C502.886667,69.689 502.606667,69.808 502.28,69.808 Z M502.448,74.988 C501.897333,74.988 501.465667,74.9016667 501.153,74.729 C500.840333,74.5563333 500.684,74.316 500.684,74.008 C500.684,73.672 500.861333,73.3686667 501.216,73.098 C501.468,73.1633333 501.780667,73.196 502.154,73.196 L502.154,73.196 L503.092,73.196 C503.484,73.196 503.785,73.2426667 503.995,73.336 C504.205,73.4293333 504.31,73.6113333 504.31,73.882 C504.31,74.1806667 504.139667,74.4396667 503.799,74.659 C503.458333,74.8783333 503.008,74.988 502.448,74.988 Z M508.496,73.168 C508.906667,73.168 509.287,73.0793333 509.637,72.902 C509.987,72.7246667 510.316,72.5053333 510.624,72.244 L510.624,72.244 L510.68,72.244 L510.792,73 L512.122,73 L512.122,68.926 C512.122,67.9646667 511.909667,67.2296667 511.485,66.721 C511.060333,66.2123333 510.418667,65.958 509.56,65.958 C509.009333,65.958 508.496,66.0466667 508.02,66.224 C507.544,66.4013333 507.114667,66.6113333 506.732,66.854 L506.732,66.854 L507.32,67.932 C507.628,67.7453333 507.943,67.5866667 508.265,67.456 C508.587,67.3253333 508.916,67.26 509.252,67.26 C509.485333,67.26 509.681333,67.295 509.84,67.365 C509.998667,67.435 510.127,67.533 510.225,67.659 C510.323,67.785 510.393,67.9296667 510.435,68.093 C510.477,68.2563333 510.502667,68.4266667 510.512,68.604 C509.802667,68.6786667 509.193667,68.786 508.685,68.926 C508.176333,69.066 507.756333,69.2386667 507.425,69.444 C507.093667,69.6493333 506.851,69.8943333 506.697,70.179 C506.543,70.4636667 506.466,70.788 506.466,71.152 C506.466,71.7586667 506.652667,72.2463333 507.026,72.615 C507.399333,72.9836667 507.889333,73.168 508.496,73.168 Z M509.014,71.908 C508.724667,71.908 508.486667,71.838 508.3,71.698 C508.113333,71.558 508.02,71.334 508.02,71.026 C508.02,70.858 508.062,70.6993333 508.146,70.55 C508.23,70.4006667 508.37,70.2676667 508.566,70.151 C508.762,70.0343333 509.018667,69.9293333 509.336,69.836 C509.653333,69.7426667 510.045333,69.668 510.512,69.612 L510.512,69.612 L510.512,71.152 C510.250667,71.3946667 510.005667,71.5813333 509.777,71.712 C509.548333,71.8426667 509.294,71.908 509.014,71.908 Z M516.252,73.168 C516.522667,73.168 516.777,73.1423333 517.015,73.091 C517.253,73.0396667 517.465333,72.9813333 517.652,72.916 L517.652,72.916 L517.372,71.726 C517.269333,71.7726667 517.155,71.81 517.029,71.838 C516.903,71.866 516.779333,71.88 516.658,71.88 C516.014,71.88 515.692,71.4786667 515.692,70.676 L515.692,70.676 L515.692,67.4 L517.442,67.4 L517.442,66.126 L515.692,66.126 L515.692,64.25 L514.348,64.25 L514.152,66.126 L513.088,66.196 L513.088,67.4 L514.068,67.4 L514.068,70.676 C514.068,71.0493333 514.107667,71.3876667 514.187,71.691 C514.266333,71.9943333 514.392333,72.2556667 514.565,72.475 C514.737667,72.6943333 514.961667,72.8646667 515.237,72.986 C515.512333,73.1073333 515.850667,73.168 516.252,73.168 Z M519.696,64.922 C519.985333,64.922 520.223333,64.838 520.41,64.67 C520.596667,64.502 520.69,64.2826667 520.69,64.012 C520.69,63.7413333 520.596667,63.5196667 520.41,63.347 C520.223333,63.1743333 519.985333,63.088 519.696,63.088 C519.406667,63.088 519.168667,63.1743333 518.982,63.347 C518.795333,63.5196667 518.702,63.7413333 518.702,64.012 C518.702,64.2826667 518.795333,64.502 518.982,64.67 C519.168667,64.838 519.406667,64.922 519.696,64.922 Z M520.494,73 L520.494,66.126 L518.884,66.126 L518.884,73 L520.494,73 Z M525.366,73.168 C525.795333,73.168 526.208333,73.0886667 526.605,72.93 C527.001667,72.7713333 527.349333,72.538 527.648,72.23 C527.946667,71.922 528.187,71.544 528.369,71.096 C528.551,70.648 528.642,70.1393333 528.642,69.57 C528.642,69.0006667 528.551,68.492 528.369,68.044 C528.187,67.596 527.946667,67.218 527.648,66.91 C527.349333,66.602 527.001667,66.3663333 526.605,66.203 C526.208333,66.0396667 525.795333,65.958 525.366,65.958 C524.936667,65.958 524.526,66.0396667 524.134,66.203 C523.742,66.3663333 523.394333,66.602 523.091,66.91 C522.787667,67.218 522.547333,67.596 522.37,68.044 C522.192667,68.492 522.104,69.0006667 522.104,69.57 C522.104,70.1393333 522.192667,70.648 522.37,71.096 C522.547333,71.544 522.787667,71.922 523.091,72.23 C523.394333,72.538 523.742,72.7713333 524.134,72.93 C524.526,73.0886667 524.936667,73.168 525.366,73.168 Z M525.366,71.852 C524.862,71.852 524.467667,71.6443333 524.183,71.229 C523.898333,70.8136667 523.756,70.2606667 523.756,69.57 C523.756,68.87 523.898333,68.3123333 524.183,67.897 C524.467667,67.4816667 524.862,67.274 525.366,67.274 C525.87,67.274 526.266667,67.4816667 526.556,67.897 C526.845333,68.3123333 526.99,68.87 526.99,69.57 C526.99,70.2606667 526.845333,70.8136667 526.556,71.229 C526.266667,71.6443333 525.87,71.852 525.366,71.852 Z M531.848,73 L531.848,68.198 C532.137333,67.918 532.396333,67.7056667 532.625,67.561 C532.853667,67.4163333 533.117333,67.344 533.416,67.344 C533.798667,67.344 534.074,67.4606667 534.242,67.694 C534.41,67.9273333 534.494,68.3286667 534.494,68.898 L534.494,68.898 L534.494,73 L536.104,73 L536.104,68.688 C536.104,67.8106667 535.936,67.1363333 535.6,66.665 C535.264,66.1936667 534.727333,65.958 533.99,65.958 C533.514,65.958 533.096333,66.0653333 532.737,66.28 C532.377667,66.4946667 532.044,66.7513333 531.736,67.05 L531.736,67.05 L531.68,67.05 L531.568,66.126 L530.238,66.126 L530.238,73 L531.848,73 Z M539.996,73.168 C540.425333,73.168 540.808,73.112 541.144,73 C541.48,72.888 541.76,72.7363333 541.984,72.545 C542.208,72.3536667 542.378333,72.1296667 542.495,71.873 C542.611667,71.6163333 542.67,71.3386667 542.67,71.04 C542.67,70.7226667 542.611667,70.4496667 542.495,70.221 C542.378333,69.9923333 542.224333,69.7986667 542.033,69.64 C541.841667,69.4813333 541.629333,69.3483333 541.396,69.241 C541.162667,69.1336667 540.929333,69.038 540.696,68.954 C540.509333,68.8886667 540.329667,68.8233333 540.157,68.758 C539.984333,68.6926667 539.832667,68.6226667 539.702,68.548 C539.571333,68.4733333 539.466333,68.387 539.387,68.289 C539.307667,68.191 539.268,68.072 539.268,67.932 C539.268,67.7173333 539.349667,67.5376667 539.513,67.393 C539.676333,67.2483333 539.930667,67.176 540.276,67.176 C540.546667,67.176 540.805667,67.2296667 541.053,67.337 C541.300333,67.4443333 541.545333,67.5866667 541.788,67.764 L541.788,67.764 L542.53,66.784 C542.25,66.5693333 541.918667,66.378 541.536,66.21 C541.153333,66.042 540.724,65.958 540.248,65.958 C539.473333,65.958 538.862,66.1493333 538.414,66.532 C537.966,66.9146667 537.742,67.4093333 537.742,68.016 C537.742,68.3053333 537.800333,68.555 537.917,68.765 C538.033667,68.975 538.183,69.1593333 538.365,69.318 C538.547,69.4766667 538.754667,69.612 538.988,69.724 C539.221333,69.836 539.45,69.934 539.674,70.018 C539.851333,70.0926667 540.028667,70.165 540.206,70.235 C540.383333,70.305 540.542,70.382 540.682,70.466 C540.822,70.55 540.934,70.6456667 541.018,70.753 C541.102,70.8603333 541.144,70.984 541.144,71.124 C541.144,71.3666667 541.055333,71.565 540.878,71.719 C540.700667,71.873 540.425333,71.95 540.052,71.95 C539.697333,71.95 539.368333,71.8823333 539.065,71.747 C538.761667,71.6116667 538.456,71.4226667 538.148,71.18 L538.148,71.18 L537.392,72.216 C537.728,72.4866667 538.127,72.713 538.589,72.895 C539.051,73.077 539.52,73.168 539.996,73.168 Z" id="Obligations" fill="#666666" fill-rule="nonzero"></path>
                <path d="M778.592,73.168 C779.124,73.168 779.602333,73.091 780.027,72.937 C780.451667,72.783 780.815667,72.538 781.119,72.202 C781.422333,71.866 781.653333,71.4343333 781.812,70.907 C781.970667,70.3796667 782.05,69.738 782.05,68.982 L782.05,68.982 L782.05,63.844 L780.496,63.844 L780.496,69.108 C780.496,69.6026667 780.449333,70.0203333 780.356,70.361 C780.262667,70.7016667 780.132,70.9746667 779.964,71.18 C779.796,71.3853333 779.595333,71.5323333 779.362,71.621 C779.128667,71.7096667 778.872,71.754 778.592,71.754 C778.312,71.754 778.06,71.7096667 777.836,71.621 C777.612,71.5323333 777.418333,71.3853333 777.255,71.18 C777.091667,70.9746667 776.965667,70.7016667 776.877,70.361 C776.788333,70.0203333 776.744,69.6026667 776.744,69.108 L776.744,69.108 L776.744,63.844 L775.12,63.844 L775.12,68.982 C775.12,69.738 775.201667,70.3796667 775.365,70.907 C775.528333,71.4343333 775.761667,71.866 776.065,72.202 C776.368333,72.538 776.732333,72.783 777.157,72.937 C777.581667,73.091 778.06,73.168 778.592,73.168 Z M785.802,73 L785.802,68.198 C786.091333,67.918 786.350333,67.7056667 786.579,67.561 C786.807667,67.4163333 787.071333,67.344 787.37,67.344 C787.752667,67.344 788.028,67.4606667 788.196,67.694 C788.364,67.9273333 788.448,68.3286667 788.448,68.898 L788.448,68.898 L788.448,73 L790.058,73 L790.058,68.688 C790.058,67.8106667 789.89,67.1363333 789.554,66.665 C789.218,66.1936667 788.681333,65.958 787.944,65.958 C787.468,65.958 787.050333,66.0653333 786.691,66.28 C786.331667,66.4946667 785.998,66.7513333 785.69,67.05 L785.69,67.05 L785.634,67.05 L785.522,66.126 L784.192,66.126 L784.192,73 L785.802,73 Z M794.846,73.168 C795.275333,73.168 795.688333,73.0886667 796.085,72.93 C796.481667,72.7713333 796.829333,72.538 797.128,72.23 C797.426667,71.922 797.667,71.544 797.849,71.096 C798.031,70.648 798.122,70.1393333 798.122,69.57 C798.122,69.0006667 798.031,68.492 797.849,68.044 C797.667,67.596 797.426667,67.218 797.128,66.91 C796.829333,66.602 796.481667,66.3663333 796.085,66.203 C795.688333,66.0396667 795.275333,65.958 794.846,65.958 C794.416667,65.958 794.006,66.0396667 793.614,66.203 C793.222,66.3663333 792.874333,66.602 792.571,66.91 C792.267667,67.218 792.027333,67.596 791.85,68.044 C791.672667,68.492 791.584,69.0006667 791.584,69.57 C791.584,70.1393333 791.672667,70.648 791.85,71.096 C792.027333,71.544 792.267667,71.922 792.571,72.23 C792.874333,72.538 793.222,72.7713333 793.614,72.93 C794.006,73.0886667 794.416667,73.168 794.846,73.168 Z M794.846,71.852 C794.342,71.852 793.947667,71.6443333 793.663,71.229 C793.378333,70.8136667 793.236,70.2606667 793.236,69.57 C793.236,68.87 793.378333,68.3123333 793.663,67.897 C793.947667,67.4816667 794.342,67.274 794.846,67.274 C795.35,67.274 795.746667,67.4816667 796.036,67.897 C796.325333,68.3123333 796.47,68.87 796.47,69.57 C796.47,70.2606667 796.325333,70.8136667 796.036,71.229 C795.746667,71.6443333 795.35,71.852 794.846,71.852 Z M803.05,73.168 C803.432667,73.168 803.801333,73.084 804.156,72.916 C804.510667,72.748 804.823333,72.5053333 805.094,72.188 C805.364667,71.8706667 805.581667,71.481 805.745,71.019 C805.908333,70.557 805.99,70.032 805.99,69.444 C805.99,68.912 805.929333,68.4313333 805.808,68.002 C805.686667,67.5726667 805.509333,67.2063333 805.276,66.903 C805.042667,66.5996667 804.758,66.3663333 804.422,66.203 C804.086,66.0396667 803.703333,65.958 803.274,65.958 C802.919333,65.958 802.571667,66.0373333 802.231,66.196 C801.890333,66.3546667 801.575333,66.56 801.286,66.812 L801.286,66.812 L801.328,65.664 L801.328,63.116 L799.718,63.116 L799.718,73 L800.992,73 L801.132,72.272 L801.174,72.272 C801.463333,72.5613333 801.769,72.783 802.091,72.937 C802.413,73.091 802.732667,73.168 803.05,73.168 Z M802.714,71.838 C802.508667,71.838 802.287,71.796 802.049,71.712 C801.811,71.628 801.570667,71.4786667 801.328,71.264 L801.328,71.264 L801.328,68.058 C801.850667,67.5446667 802.354667,67.288 802.84,67.288 C803.362667,67.288 803.740667,67.4793333 803.974,67.862 C804.207333,68.2446667 804.324,68.7813333 804.324,69.472 C804.324,70.256 804.17,70.8463333 803.862,71.243 C803.554,71.6396667 803.171333,71.838 802.714,71.838 Z M809.168,73.168 C809.522667,73.168 809.807333,73.1213333 810.022,73.028 L810.022,73.028 L809.812,71.824 C809.746667,71.8426667 809.697667,71.852 809.665,71.852 L809.665,71.852 L809.56,71.852 C809.476,71.852 809.396667,71.8123333 809.322,71.733 C809.247333,71.6536667 809.21,71.516 809.21,71.32 L809.21,71.32 L809.21,63.116 L807.6,63.116 L807.6,71.236 C807.6,71.8333333 807.716667,72.3046667 807.95,72.65 C808.183333,72.9953333 808.589333,73.168 809.168,73.168 Z M812.206,64.922 C812.495333,64.922 812.733333,64.838 812.92,64.67 C813.106667,64.502 813.2,64.2826667 813.2,64.012 C813.2,63.7413333 813.106667,63.5196667 812.92,63.347 C812.733333,63.1743333 812.495333,63.088 812.206,63.088 C811.916667,63.088 811.678667,63.1743333 811.492,63.347 C811.305333,63.5196667 811.212,63.7413333 811.212,64.012 C811.212,64.2826667 811.305333,64.502 811.492,64.67 C811.678667,64.838 811.916667,64.922 812.206,64.922 Z M813.004,73 L813.004,66.126 L811.394,66.126 L811.394,73 L813.004,73 Z M817.456,76.038 C818.016,76.038 818.522333,75.975 818.975,75.849 C819.427667,75.723 819.812667,75.5526667 820.13,75.338 C820.447333,75.1233333 820.692333,74.8666667 820.865,74.568 C821.037667,74.2693333 821.124,73.952 821.124,73.616 C821.124,73.0186667 820.911667,72.587 820.487,72.321 C820.062333,72.055 819.434667,71.922 818.604,71.922 L818.604,71.922 L817.386,71.922 C816.966,71.922 816.674333,71.866 816.511,71.754 C816.347667,71.642 816.266,71.488 816.266,71.292 C816.266,71.1333333 816.296333,71.0073333 816.357,70.914 C816.417667,70.8206667 816.499333,70.7273333 816.602,70.634 C816.760667,70.6993333 816.919333,70.746 817.078,70.774 C817.236667,70.802 817.390667,70.816 817.54,70.816 C817.904,70.816 818.244667,70.7646667 818.562,70.662 C818.879333,70.5593333 819.154667,70.41 819.388,70.214 C819.621333,70.018 819.805667,69.7753333 819.941,69.486 C820.076333,69.1966667 820.144,68.8606667 820.144,68.478 C820.144,68.2353333 820.106667,68.0136667 820.032,67.813 C819.957333,67.6123333 819.864,67.4466667 819.752,67.316 L819.752,67.316 L821.012,67.316 L821.012,66.126 L818.548,66.126 C818.408,66.0793333 818.251667,66.0396667 818.079,66.007 C817.906333,65.9743333 817.726667,65.958 817.54,65.958 C817.176,65.958 816.830667,66.0116667 816.504,66.119 C816.177333,66.2263333 815.890333,66.385 815.643,66.595 C815.395667,66.805 815.197333,67.064 815.048,67.372 C814.898667,67.68 814.824,68.03 814.824,68.422 C814.824,68.8326667 814.915,69.1943333 815.097,69.507 C815.279,69.8196667 815.486667,70.0646667 815.72,70.242 L815.72,70.242 L815.72,70.298 C815.524,70.438 815.349,70.6176667 815.195,70.837 C815.041,71.0563333 814.964,71.3013333 814.964,71.572 C814.964,71.852 815.022333,72.0853333 815.139,72.272 C815.255667,72.4586667 815.402667,72.608 815.58,72.72 L815.58,72.72 L815.58,72.776 C815.262667,72.972 815.02,73.1936667 814.852,73.441 C814.684,73.6883333 814.6,73.9566667 814.6,74.246 C814.6,74.5446667 814.672333,74.806 814.817,75.03 C814.961667,75.254 815.16,75.4406667 815.412,75.59 C815.664,75.7393333 815.965,75.8513333 816.315,75.926 C816.665,76.0006667 817.045333,76.038 817.456,76.038 Z M817.54,69.808 C817.204,69.808 816.919333,69.689 816.686,69.451 C816.452667,69.213 816.336,68.87 816.336,68.422 C816.336,67.9833333 816.452667,67.6473333 816.686,67.414 C816.919333,67.1806667 817.204,67.064 817.54,67.064 C817.876,67.064 818.158333,67.183 818.387,67.421 C818.615667,67.659 818.73,67.9926667 818.73,68.422 C818.73,68.87 818.613333,69.213 818.38,69.451 C818.146667,69.689 817.866667,69.808 817.54,69.808 Z M817.708,74.988 C817.157333,74.988 816.725667,74.9016667 816.413,74.729 C816.100333,74.5563333 815.944,74.316 815.944,74.008 C815.944,73.672 816.121333,73.3686667 816.476,73.098 C816.728,73.1633333 817.040667,73.196 817.414,73.196 L817.414,73.196 L818.352,73.196 C818.744,73.196 819.045,73.2426667 819.255,73.336 C819.465,73.4293333 819.57,73.6113333 819.57,73.882 C819.57,74.1806667 819.399667,74.4396667 819.059,74.659 C818.718333,74.8783333 818.268,74.988 817.708,74.988 Z M823.756,73.168 C824.166667,73.168 824.547,73.0793333 824.897,72.902 C825.247,72.7246667 825.576,72.5053333 825.884,72.244 L825.884,72.244 L825.94,72.244 L826.052,73 L827.382,73 L827.382,68.926 C827.382,67.9646667 827.169667,67.2296667 826.745,66.721 C826.320333,66.2123333 825.678667,65.958 824.82,65.958 C824.269333,65.958 823.756,66.0466667 823.28,66.224 C822.804,66.4013333 822.374667,66.6113333 821.992,66.854 L821.992,66.854 L822.58,67.932 C822.888,67.7453333 823.203,67.5866667 823.525,67.456 C823.847,67.3253333 824.176,67.26 824.512,67.26 C824.745333,67.26 824.941333,67.295 825.1,67.365 C825.258667,67.435 825.387,67.533 825.485,67.659 C825.583,67.785 825.653,67.9296667 825.695,68.093 C825.737,68.2563333 825.762667,68.4266667 825.772,68.604 C825.062667,68.6786667 824.453667,68.786 823.945,68.926 C823.436333,69.066 823.016333,69.2386667 822.685,69.444 C822.353667,69.6493333 822.111,69.8943333 821.957,70.179 C821.803,70.4636667 821.726,70.788 821.726,71.152 C821.726,71.7586667 821.912667,72.2463333 822.286,72.615 C822.659333,72.9836667 823.149333,73.168 823.756,73.168 Z M824.274,71.908 C823.984667,71.908 823.746667,71.838 823.56,71.698 C823.373333,71.558 823.28,71.334 823.28,71.026 C823.28,70.858 823.322,70.6993333 823.406,70.55 C823.49,70.4006667 823.63,70.2676667 823.826,70.151 C824.022,70.0343333 824.278667,69.9293333 824.596,69.836 C824.913333,69.7426667 825.305333,69.668 825.772,69.612 L825.772,69.612 L825.772,71.152 C825.510667,71.3946667 825.265667,71.5813333 825.037,71.712 C824.808333,71.8426667 824.554,71.908 824.274,71.908 Z M831.512,73.168 C831.782667,73.168 832.037,73.1423333 832.275,73.091 C832.513,73.0396667 832.725333,72.9813333 832.912,72.916 L832.912,72.916 L832.632,71.726 C832.529333,71.7726667 832.415,71.81 832.289,71.838 C832.163,71.866 832.039333,71.88 831.918,71.88 C831.274,71.88 830.952,71.4786667 830.952,70.676 L830.952,70.676 L830.952,67.4 L832.702,67.4 L832.702,66.126 L830.952,66.126 L830.952,64.25 L829.608,64.25 L829.412,66.126 L828.348,66.196 L828.348,67.4 L829.328,67.4 L829.328,70.676 C829.328,71.0493333 829.367667,71.3876667 829.447,71.691 C829.526333,71.9943333 829.652333,72.2556667 829.825,72.475 C829.997667,72.6943333 830.221667,72.8646667 830.497,72.986 C830.772333,73.1073333 831.110667,73.168 831.512,73.168 Z M836.86,73.168 C837.298667,73.168 837.718667,73.098 838.12,72.958 C838.521333,72.818 838.885333,72.6406667 839.212,72.426 L839.212,72.426 L838.666,71.418 C838.414,71.5766667 838.159667,71.7003333 837.903,71.789 C837.646333,71.8776667 837.368667,71.922 837.07,71.922 C836.51,71.922 836.050333,71.7563333 835.691,71.425 C835.331667,71.0936667 835.114667,70.62 835.04,70.004 L835.04,70.004 L839.408,70.004 C839.426667,69.92 839.443,69.808 839.457,69.668 C839.471,69.528 839.478,69.3786667 839.478,69.22 C839.478,68.744 839.417333,68.3053333 839.296,67.904 C839.174667,67.5026667 838.995,67.1573333 838.757,66.868 C838.519,66.5786667 838.222667,66.3546667 837.868,66.196 C837.513333,66.0373333 837.102667,65.958 836.636,65.958 C836.234667,65.958 835.842667,66.042 835.46,66.21 C835.077333,66.378 834.739,66.616 834.445,66.924 C834.151,67.232 833.915333,67.61 833.738,68.058 C833.560667,68.506 833.472,69.01 833.472,69.57 C833.472,70.1393333 833.558333,70.6456667 833.731,71.089 C833.903667,71.5323333 834.144,71.908 834.452,72.216 C834.76,72.524 835.119333,72.7596667 835.53,72.923 C835.940667,73.0863333 836.384,73.168 836.86,73.168 Z M838.078,68.912 L835.026,68.912 C835.100667,68.352 835.292,67.9273333 835.6,67.638 C835.908,67.3486667 836.267333,67.204 836.678,67.204 C837.154,67.204 837.506333,67.3556667 837.735,67.659 C837.963667,67.9623333 838.078,68.38 838.078,68.912 L838.078,68.912 Z M843.426,73.168 C843.799333,73.168 844.154,73.0793333 844.49,72.902 C844.826,72.7246667 845.12,72.51 845.372,72.258 L845.372,72.258 L845.428,72.258 L845.54,73 L846.87,73 L846.87,63.116 L845.26,63.116 L845.26,65.608 L845.316,66.714 C845.045333,66.4806667 844.774667,66.2963333 844.504,66.161 C844.233333,66.0256667 843.902,65.958 843.51,65.958 C843.136667,65.958 842.775,66.042 842.425,66.21 C842.075,66.378 841.764667,66.616 841.494,66.924 C841.223333,67.232 841.006333,67.61 840.843,68.058 C840.679667,68.506 840.598,69.01 840.598,69.57 C840.598,70.7086667 840.852333,71.593 841.361,72.223 C841.869667,72.853 842.558,73.168 843.426,73.168 Z M843.818,71.838 C843.314,71.838 842.929,71.6443333 842.663,71.257 C842.397,70.8696667 842.264,70.3026667 842.264,69.556 C842.264,68.828 842.418,68.268 842.726,67.876 C843.034,67.484 843.412,67.288 843.86,67.288 C844.093333,67.288 844.324333,67.33 844.553,67.414 C844.781667,67.498 845.017333,67.6473333 845.26,67.862 L845.26,67.862 L845.26,71.068 C844.812,71.5813333 844.331333,71.838 843.818,71.838 Z" id="Unobligated" fill="#666666" fill-rule="nonzero"></path>
                <line x1="10.5" y1="40" x2="10.5" y2="55" id="Line" stroke="#C6C6C6"></line>
                <line x1="509" y1="40" x2="509" y2="55" id="Line-Copy-5" stroke="#C6C6C6"></line>
                <line x1="811.5" y1="40" x2="811.5" y2="55" id="Line-Copy-2" stroke="#C6C6C6"></line>
            </g>
        </g>
    </g>
</svg>