<?xml version="1.0" encoding="UTF-8"?>
<svg width="391px" height="95px" viewBox="0 0 391 95" version="1.1" xmlns="http://www.w3.org/2000/svg" xmlns:xlink="http://www.w3.org/1999/xlink">
    <title>07. phase 3.5 total</title>
    <g id="Viz-3-(v2)" stroke="none" stroke-width="1" fill="none" fill-rule="evenodd">
        <g id="Viz-3---SVG-Export-Outline" transform="translate(-279.000000, -1560.000000)">
            <g id="07.-phase-3.5-total" transform="translate(279.000000, 1560.000000)">
                <path d="M4.718,73.168 C5.31533333,73.168 5.86133333,73.0583333 6.356,72.839 C6.85066667,72.6196667 7.27766667,72.3023333 7.637,71.887 C7.99633333,71.4716667 8.274,70.97 8.47,70.382 C8.666,69.794 8.764,69.1266667 8.764,68.38 C8.764,67.6426667 8.666,66.9823333 8.47,66.399 C8.274,65.8156667 7.99633333,65.3233333 7.637,64.922 C7.27766667,64.5206667 6.85066667,64.2126667 6.356,63.998 C5.86133333,63.7833333 5.31533333,63.676 4.718,63.676 C4.12066667,63.676 3.57466667,63.7833333 3.08,63.998 C2.58533333,64.2126667 2.16066667,64.5206667 1.806,64.922 C1.45133333,65.3233333 1.176,65.8156667 0.98,66.399 C0.784,66.9823333 0.686,67.6426667 0.686,68.38 C0.686,69.1266667 0.784,69.794 0.98,70.382 C1.176,70.97 1.45133333,71.4716667 1.806,71.887 C2.16066667,72.3023333 2.58533333,72.6196667 3.08,72.839 C3.57466667,73.0583333 4.12066667,73.168 4.718,73.168 Z M4.718,71.754 C4.354,71.754 4.02733333,71.6746667 3.738,71.516 C3.44866667,71.3573333 3.20133333,71.131 2.996,70.837 C2.79066667,70.543 2.632,70.1883333 2.52,69.773 C2.408,69.3576667 2.352,68.8933333 2.352,68.38 C2.352,67.3533333 2.56433333,66.5483333 2.989,65.965 C3.41366667,65.3816667 3.99,65.09 4.718,65.09 C5.446,65.09 6.02233333,65.3816667 6.447,65.965 C6.87166667,66.5483333 7.084,67.3533333 7.084,68.38 C7.084,68.8933333 7.028,69.3576667 6.916,69.773 C6.804,70.1883333 6.64533333,70.543 6.44,70.837 C6.23466667,71.131 5.98733333,71.3573333 5.698,71.516 C5.40866667,71.6746667 5.082,71.754 4.718,71.754 Z M12.502,73.168 C12.978,73.168 13.391,73.0606667 13.741,72.846 C14.091,72.6313333 14.4153333,72.3466667 14.714,71.992 L14.714,71.992 L14.756,71.992 L14.882,73 L16.198,73 L16.198,66.126 L14.588,66.126 L14.588,70.83 C14.3266667,71.166 14.0816667,71.4086667 13.853,71.558 C13.6243333,71.7073333 13.3606667,71.782 13.062,71.782 C12.6886667,71.782 12.418,71.6653333 12.25,71.432 C12.082,71.1986667 11.998,70.7973333 11.998,70.228 L11.998,70.228 L11.998,66.126 L10.388,66.126 L10.388,70.438 C10.388,71.3153333 10.556,71.9896667 10.892,72.461 C11.228,72.9323333 11.7646667,73.168 12.502,73.168 Z M20.664,73.168 C20.9346667,73.168 21.189,73.1423333 21.427,73.091 C21.665,73.0396667 21.8773333,72.9813333 22.064,72.916 L22.064,72.916 L21.784,71.726 C21.6813333,71.7726667 21.567,71.81 21.441,71.838 C21.315,71.866 21.1913333,71.88 21.07,71.88 C20.426,71.88 20.104,71.4786667 20.104,70.676 L20.104,70.676 L20.104,67.4 L21.854,67.4 L21.854,66.126 L20.104,66.126 L20.104,64.25 L18.76,64.25 L18.564,66.126 L17.5,66.196 L17.5,67.4 L18.48,67.4 L18.48,70.676 C18.48,71.0493333 18.5196667,71.3876667 18.599,71.691 C18.6783333,71.9943333 18.8043333,72.2556667 18.977,72.475 C19.1496667,72.6943333 19.3736667,72.8646667 19.649,72.986 C19.9243333,73.1073333 20.2626667,73.168 20.664,73.168 Z M24.864,73.168 C25.2186667,73.168 25.5033333,73.1213333 25.718,73.028 L25.718,73.028 L25.508,71.824 C25.4426667,71.8426667 25.3936667,71.852 25.361,71.852 L25.361,71.852 L25.256,71.852 C25.172,71.852 25.0926667,71.8123333 25.018,71.733 C24.9433333,71.6536667 24.906,71.516 24.906,71.32 L24.906,71.32 L24.906,63.116 L23.296,63.116 L23.296,71.236 C23.296,71.8333333 23.4126667,72.3046667 23.646,72.65 C23.8793333,72.9953333 24.2853333,73.168 24.864,73.168 Z M28.756,73.168 C29.1666667,73.168 29.547,73.0793333 29.897,72.902 C30.247,72.7246667 30.576,72.5053333 30.884,72.244 L30.884,72.244 L30.94,72.244 L31.052,73 L32.382,73 L32.382,68.926 C32.382,67.9646667 32.1696667,67.2296667 31.745,66.721 C31.3203333,66.2123333 30.6786667,65.958 29.82,65.958 C29.2693333,65.958 28.756,66.0466667 28.28,66.224 C27.804,66.4013333 27.3746667,66.6113333 26.992,66.854 L26.992,66.854 L27.58,67.932 C27.888,67.7453333 28.203,67.5866667 28.525,67.456 C28.847,67.3253333 29.176,67.26 29.512,67.26 C29.7453333,67.26 29.9413333,67.295 30.1,67.365 C30.2586667,67.435 30.387,67.533 30.485,67.659 C30.583,67.785 30.653,67.9296667 30.695,68.093 C30.737,68.2563333 30.7626667,68.4266667 30.772,68.604 C30.0626667,68.6786667 29.4536667,68.786 28.945,68.926 C28.4363333,69.066 28.0163333,69.2386667 27.685,69.444 C27.3536667,69.6493333 27.111,69.8943333 26.957,70.179 C26.803,70.4636667 26.726,70.788 26.726,71.152 C26.726,71.7586667 26.9126667,72.2463333 27.286,72.615 C27.6593333,72.9836667 28.1493333,73.168 28.756,73.168 Z M29.274,71.908 C28.9846667,71.908 28.7466667,71.838 28.56,71.698 C28.3733333,71.558 28.28,71.334 28.28,71.026 C28.28,70.858 28.322,70.6993333 28.406,70.55 C28.49,70.4006667 28.63,70.2676667 28.826,70.151 C29.022,70.0343333 29.2786667,69.9293333 29.596,69.836 C29.9133333,69.7426667 30.3053333,69.668 30.772,69.612 L30.772,69.612 L30.772,71.152 C30.5106667,71.3946667 30.2656667,71.5813333 30.037,71.712 C29.8083333,71.8426667 29.554,71.908 29.274,71.908 Z M34.776,75.828 C35.1493333,75.828 35.4783333,75.7696667 35.763,75.653 C36.0476667,75.5363333 36.2996667,75.3683333 36.519,75.149 C36.7383333,74.9296667 36.932,74.666 37.1,74.358 C37.268,74.05 37.422,73.7 37.562,73.308 L37.562,73.308 L40.054,66.126 L38.5,66.126 L37.464,69.5 C37.38,69.808 37.2936667,70.1276667 37.205,70.459 C37.1163333,70.7903333 37.03,71.1146667 36.946,71.432 L36.946,71.432 L36.89,71.432 C36.7873333,71.1053333 36.687,70.7763333 36.589,70.445 C36.491,70.1136667 36.3906667,69.7986667 36.288,69.5 L36.288,69.5 L35.098,66.126 L33.46,66.126 L36.162,72.916 L36.036,73.35 C35.924,73.6953333 35.7583333,73.9776667 35.539,74.197 C35.3196667,74.4163333 35.028,74.526 34.664,74.526 C34.58,74.526 34.4936667,74.5143333 34.405,74.491 C34.3163333,74.4676667 34.2393333,74.4466667 34.174,74.428 L34.174,74.428 L33.88,75.688 C34.0106667,75.7346667 34.146,75.7696667 34.286,75.793 C34.426,75.8163333 34.5893333,75.828 34.776,75.828 Z M43.162,73.168 C43.5913333,73.168 43.974,73.112 44.31,73 C44.646,72.888 44.926,72.7363333 45.15,72.545 C45.374,72.3536667 45.5443333,72.1296667 45.661,71.873 C45.7776667,71.6163333 45.836,71.3386667 45.836,71.04 C45.836,70.7226667 45.7776667,70.4496667 45.661,70.221 C45.5443333,69.9923333 45.3903333,69.7986667 45.199,69.64 C45.0076667,69.4813333 44.7953333,69.3483333 44.562,69.241 C44.3286667,69.1336667 44.0953333,69.038 43.862,68.954 C43.6753333,68.8886667 43.4956667,68.8233333 43.323,68.758 C43.1503333,68.6926667 42.9986667,68.6226667 42.868,68.548 C42.7373333,68.4733333 42.6323333,68.387 42.553,68.289 C42.4736667,68.191 42.434,68.072 42.434,67.932 C42.434,67.7173333 42.5156667,67.5376667 42.679,67.393 C42.8423333,67.2483333 43.0966667,67.176 43.442,67.176 C43.7126667,67.176 43.9716667,67.2296667 44.219,67.337 C44.4663333,67.4443333 44.7113333,67.5866667 44.954,67.764 L44.954,67.764 L45.696,66.784 C45.416,66.5693333 45.0846667,66.378 44.702,66.21 C44.3193333,66.042 43.89,65.958 43.414,65.958 C42.6393333,65.958 42.028,66.1493333 41.58,66.532 C41.132,66.9146667 40.908,67.4093333 40.908,68.016 C40.908,68.3053333 40.9663333,68.555 41.083,68.765 C41.1996667,68.975 41.349,69.1593333 41.531,69.318 C41.713,69.4766667 41.9206667,69.612 42.154,69.724 C42.3873333,69.836 42.616,69.934 42.84,70.018 C43.0173333,70.0926667 43.1946667,70.165 43.372,70.235 C43.5493333,70.305 43.708,70.382 43.848,70.466 C43.988,70.55 44.1,70.6456667 44.184,70.753 C44.268,70.8603333 44.31,70.984 44.31,71.124 C44.31,71.3666667 44.2213333,71.565 44.044,71.719 C43.8666667,71.873 43.5913333,71.95 43.218,71.95 C42.8633333,71.95 42.5343333,71.8823333 42.231,71.747 C41.9276667,71.6116667 41.622,71.4226667 41.314,71.18 L41.314,71.18 L40.558,72.216 C40.894,72.4866667 41.293,72.713 41.755,72.895 C42.217,73.077 42.686,73.168 43.162,73.168 Z M3.948,92.54 L3.948,91.126 C4.62,91.0326667 5.14966667,90.7713333 5.537,90.342 C5.92433333,89.9126667 6.118,89.362 6.118,88.69 C6.118,88.186 6.02233333,87.773 5.831,87.451 C5.63966667,87.129 5.39933333,86.8583333 5.11,86.639 C4.82066667,86.4196667 4.50566667,86.233 4.165,86.079 C3.82433333,85.925 3.50933333,85.7663333 3.22,85.603 C2.93066667,85.4396667 2.69033333,85.2506667 2.499,85.036 C2.30766667,84.8213333 2.212,84.546 2.212,84.21 C2.212,83.7993333 2.338,83.4726667 2.59,83.23 C2.842,82.9873333 3.18266667,82.866 3.612,82.866 C3.99466667,82.866 4.30966667,82.936 4.557,83.076 C4.80433333,83.216 5.05866667,83.412 5.32,83.664 L5.32,83.664 L5.936,82.978 C5.684,82.7073333 5.40166667,82.474 5.089,82.278 C4.77633333,82.082 4.396,81.9606667 3.948,81.914 L3.948,81.914 L3.948,80.528 L3.108,80.528 L3.108,81.942 C2.492,82.0353333 1.99966667,82.2896667 1.631,82.705 C1.26233333,83.1203333 1.078,83.6406667 1.078,84.266 C1.078,84.7233333 1.17366667,85.099 1.365,85.393 C1.55633333,85.687 1.79666667,85.9366667 2.086,86.142 C2.37533333,86.3473333 2.69033333,86.5293333 3.031,86.688 C3.37166667,86.8466667 3.68666667,87.017 3.976,87.199 C4.26533333,87.381 4.50566667,87.5956667 4.697,87.843 C4.88833333,88.0903333 4.984,88.4006667 4.984,88.774 C4.984,89.2126667 4.85566667,89.5626667 4.599,89.824 C4.34233333,90.0853333 3.95266667,90.216 3.43,90.216 C3.00066667,90.216 2.60633333,90.125 2.247,89.943 C1.88766667,89.761 1.55866667,89.5393333 1.26,89.278 L1.26,89.278 L0.728,90.076 C1.02666667,90.3466667 1.386,90.5823333 1.806,90.783 C2.226,90.9836667 2.66,91.1073333 3.108,91.154 L3.108,91.154 L3.108,92.54 L3.948,92.54 Z M10.262,91.168 C10.6726667,91.168 11.0553333,91.1096667 11.41,90.993 C11.7646667,90.8763333 12.075,90.7083333 12.341,90.489 C12.607,90.2696667 12.817,90.0013333 12.971,89.684 C13.125,89.3666667 13.202,89.012 13.202,88.62 C13.202,88.312 13.153,88.032 13.055,87.78 C12.957,87.528 12.8193333,87.3063333 12.642,87.115 C12.4646667,86.9236667 12.2593333,86.765 12.026,86.639 C11.7926667,86.513 11.5406667,86.4173333 11.27,86.352 L11.27,86.352 L11.27,86.296 C11.7553333,86.1093333 12.1473333,85.8433333 12.446,85.498 C12.7446667,85.1526667 12.894,84.7093333 12.894,84.168 C12.894,83.804 12.8286667,83.482 12.698,83.202 C12.5673333,82.922 12.383,82.6863333 12.145,82.495 C11.907,82.3036667 11.6246667,82.1566667 11.298,82.054 C10.9713333,81.9513333 10.612,81.9 10.22,81.9 C9.688,81.9 9.21433333,82.005 8.799,82.215 C8.38366667,82.425 8.00333333,82.6933333 7.658,83.02 L7.658,83.02 L8.274,83.748 C8.54466667,83.4773333 8.83633333,83.258 9.149,83.09 C9.46166667,82.922 9.80466667,82.838 10.178,82.838 C10.654,82.838 11.0296667,82.964 11.305,83.216 C11.5803333,83.468 11.718,83.8133333 11.718,84.252 C11.718,84.4853333 11.676,84.7046667 11.592,84.91 C11.508,85.1153333 11.3656667,85.2926667 11.165,85.442 C10.9643333,85.5913333 10.703,85.708 10.381,85.792 C10.059,85.876 9.66,85.918 9.184,85.918 L9.184,85.918 L9.184,86.8 C9.716,86.8 10.164,86.842 10.528,86.926 C10.892,87.01 11.186,87.1313333 11.41,87.29 C11.634,87.4486667 11.795,87.6376667 11.893,87.857 C11.991,88.0763333 12.04,88.3166667 12.04,88.578 C12.04,89.082 11.8673333,89.481 11.522,89.775 C11.1766667,90.069 10.7333333,90.216 10.192,90.216 C9.66,90.216 9.21433333,90.1086667 8.855,89.894 C8.49566667,89.6793333 8.18066667,89.432 7.91,89.152 L7.91,89.152 L7.322,89.908 C7.47133333,90.076 7.64166667,90.2346667 7.833,90.384 C8.02433333,90.5333333 8.24133333,90.6663333 8.484,90.783 C8.72666667,90.8996667 8.995,90.993 9.289,91.063 C9.583,91.133 9.90733333,91.168 10.262,91.168 Z M19.264,91 L19.264,88.536 L20.482,88.536 L20.482,87.612 L19.264,87.612 L19.264,82.068 L17.976,82.068 L14.154,87.78 L14.154,88.536 L18.172,88.536 L18.172,91 L19.264,91 Z M18.172,87.612 L15.372,87.612 L17.458,84.56 C17.5886667,84.3453333 17.7146667,84.1353333 17.836,83.93 C17.9573333,83.7246667 18.074,83.5146667 18.186,83.3 L18.186,83.3 L18.242,83.3 C18.2233333,83.5426667 18.207,83.8296667 18.193,84.161 C18.179,84.4923333 18.172,84.7793333 18.172,85.022 L18.172,85.022 L18.172,87.612 Z M23.744,91.168 C24.192,91.168 24.619,91.077 25.025,90.895 C25.431,90.713 25.7926667,90.4236667 26.11,90.027 C26.4273333,89.6303333 26.6793333,89.117 26.866,88.487 C27.0526667,87.857 27.146,87.094 27.146,86.198 C27.146,85.4793333 27.069,84.8516667 26.915,84.315 C26.761,83.7783333 26.5463333,83.3303333 26.271,82.971 C25.9956667,82.6116667 25.669,82.3433333 25.291,82.166 C24.913,81.9886667 24.5046667,81.9 24.066,81.9 C23.7113333,81.9 23.373,81.97 23.051,82.11 C22.729,82.25 22.449,82.446 22.211,82.698 C21.973,82.95 21.784,83.251 21.644,83.601 C21.504,83.951 21.434,84.3406667 21.434,84.77 C21.434,85.694 21.6626667,86.3846667 22.12,86.842 C22.5773333,87.2993333 23.1933333,87.528 23.968,87.528 C24.3413333,87.528 24.7146667,87.4253333 25.088,87.22 C25.4613333,87.0146667 25.788,86.7346667 26.068,86.38 C26.0586667,87.0986667 25.9886667,87.7006667 25.858,88.186 C25.7273333,88.6713333 25.5546667,89.0656667 25.34,89.369 C25.1253333,89.6723333 24.878,89.8893333 24.598,90.02 C24.318,90.1506667 24.0193333,90.216 23.702,90.216 C23.422,90.216 23.1536667,90.1506667 22.897,90.02 C22.6403333,89.8893333 22.4186667,89.7166667 22.232,89.502 L22.232,89.502 L21.588,90.23 C21.8306667,90.5006667 22.1316667,90.7246667 22.491,90.902 C22.8503333,91.0793333 23.268,91.168 23.744,91.168 Z M24.164,86.66 C23.604,86.66 23.1886667,86.492 22.918,86.156 C22.6473333,85.82 22.512,85.358 22.512,84.77 C22.512,84.4806667 22.5516667,84.2146667 22.631,83.972 C22.7103333,83.7293333 22.82,83.5216667 22.96,83.349 C23.1,83.1763333 23.2656667,83.0433333 23.457,82.95 C23.6483333,82.8566667 23.8513333,82.81 24.066,82.81 C24.6353333,82.81 25.088,83.034 25.424,83.482 C25.76,83.93 25.9653333,84.5926667 26.04,85.47 C25.7506667,85.89 25.4403333,86.1933333 25.109,86.38 C24.7776667,86.5666667 24.4626667,86.66 24.164,86.66 Z M32.018,91 C32.5313333,91 33.0026667,90.944 33.432,90.832 C33.8613333,90.72 34.23,90.552 34.538,90.328 C34.846,90.104 35.084,89.824 35.252,89.488 C35.42,89.152 35.504,88.76 35.504,88.312 C35.504,87.6773333 35.3313333,87.178 34.986,86.814 C34.6406667,86.45 34.188,86.2166667 33.628,86.114 L33.628,86.114 L33.628,86.058 C34.0666667,85.918 34.4003333,85.6636667 34.629,85.295 C34.8576667,84.9263333 34.972,84.5133333 34.972,84.056 C34.972,83.6546667 34.895,83.3116667 34.741,83.027 C34.587,82.7423333 34.3723333,82.5113333 34.097,82.334 C33.8216667,82.1566667 33.4903333,82.026 33.103,81.942 C32.7156667,81.858 32.2886667,81.816 31.822,81.816 L31.822,81.816 L29.092,81.816 L29.092,91 L32.018,91 Z M31.612,85.722 L30.254,85.722 L30.254,82.74 L31.668,82.74 C32.3866667,82.74 32.9256667,82.852 33.285,83.076 C33.6443333,83.3 33.824,83.678 33.824,84.21 C33.824,84.6766667 33.6513333,85.0453333 33.306,85.316 C32.9606667,85.5866667 32.396,85.722 31.612,85.722 L31.612,85.722 Z M31.85,90.076 L30.254,90.076 L30.254,86.618 L31.85,86.618 C32.662,86.618 33.2826667,86.751 33.712,87.017 C34.1413333,87.283 34.356,87.7006667 34.356,88.27 C34.356,88.886 34.1366667,89.341 33.698,89.635 C33.2593333,89.929 32.6433333,90.076 31.85,90.076 L31.85,90.076 Z" id="Outlays$349B" fill="#666666" fill-rule="nonzero"></path>
                <path d="M151.718,73.168 C152.315333,73.168 152.861333,73.0583333 153.356,72.839 C153.850667,72.6196667 154.277667,72.3023333 154.637,71.887 C154.996333,71.4716667 155.274,70.97 155.47,70.382 C155.666,69.794 155.764,69.1266667 155.764,68.38 C155.764,67.6426667 155.666,66.9823333 155.47,66.399 C155.274,65.8156667 154.996333,65.3233333 154.637,64.922 C154.277667,64.5206667 153.850667,64.2126667 153.356,63.998 C152.861333,63.7833333 152.315333,63.676 151.718,63.676 C151.120667,63.676 150.574667,63.7833333 150.08,63.998 C149.585333,64.2126667 149.160667,64.5206667 148.806,64.922 C148.451333,65.3233333 148.176,65.8156667 147.98,66.399 C147.784,66.9823333 147.686,67.6426667 147.686,68.38 C147.686,69.1266667 147.784,69.794 147.98,70.382 C148.176,70.97 148.451333,71.4716667 148.806,71.887 C149.160667,72.3023333 149.585333,72.6196667 150.08,72.839 C150.574667,73.0583333 151.120667,73.168 151.718,73.168 Z M151.718,71.754 C151.354,71.754 151.027333,71.6746667 150.738,71.516 C150.448667,71.3573333 150.201333,71.131 149.996,70.837 C149.790667,70.543 149.632,70.1883333 149.52,69.773 C149.408,69.3576667 149.352,68.8933333 149.352,68.38 C149.352,67.3533333 149.564333,66.5483333 149.989,65.965 C150.413667,65.3816667 150.99,65.09 151.718,65.09 C152.446,65.09 153.022333,65.3816667 153.447,65.965 C153.871667,66.5483333 154.084,67.3533333 154.084,68.38 C154.084,68.8933333 154.028,69.3576667 153.916,69.773 C153.804,70.1883333 153.645333,70.543 153.44,70.837 C153.234667,71.131 152.987333,71.3573333 152.698,71.516 C152.408667,71.6746667 152.082,71.754 151.718,71.754 Z M160.79,73.168 C161.172667,73.168 161.541333,73.084 161.896,72.916 C162.250667,72.748 162.563333,72.5053333 162.834,72.188 C163.104667,71.8706667 163.321667,71.481 163.485,71.019 C163.648333,70.557 163.73,70.032 163.73,69.444 C163.73,68.912 163.669333,68.4313333 163.548,68.002 C163.426667,67.5726667 163.249333,67.2063333 163.016,66.903 C162.782667,66.5996667 162.498,66.3663333 162.162,66.203 C161.826,66.0396667 161.443333,65.958 161.014,65.958 C160.659333,65.958 160.311667,66.0373333 159.971,66.196 C159.630333,66.3546667 159.315333,66.56 159.026,66.812 L159.026,66.812 L159.068,65.664 L159.068,63.116 L157.458,63.116 L157.458,73 L158.732,73 L158.872,72.272 L158.914,72.272 C159.203333,72.5613333 159.509,72.783 159.831,72.937 C160.153,73.091 160.472667,73.168 160.79,73.168 Z M160.454,71.838 C160.248667,71.838 160.027,71.796 159.789,71.712 C159.551,71.628 159.310667,71.4786667 159.068,71.264 L159.068,71.264 L159.068,68.058 C159.590667,67.5446667 160.094667,67.288 160.58,67.288 C161.102667,67.288 161.480667,67.4793333 161.714,67.862 C161.947333,68.2446667 162.064,68.7813333 162.064,69.472 C162.064,70.256 161.91,70.8463333 161.602,71.243 C161.294,71.6396667 160.911333,71.838 160.454,71.838 Z M166.908,73.168 C167.262667,73.168 167.547333,73.1213333 167.762,73.028 L167.762,73.028 L167.552,71.824 C167.486667,71.8426667 167.437667,71.852 167.405,71.852 L167.405,71.852 L167.3,71.852 C167.216,71.852 167.136667,71.8123333 167.062,71.733 C166.987333,71.6536667 166.95,71.516 166.95,71.32 L166.95,71.32 L166.95,63.116 L165.34,63.116 L165.34,71.236 C165.34,71.8333333 165.456667,72.3046667 165.69,72.65 C165.923333,72.9953333 166.329333,73.168 166.908,73.168 Z M169.946,64.922 C170.235333,64.922 170.473333,64.838 170.66,64.67 C170.846667,64.502 170.94,64.2826667 170.94,64.012 C170.94,63.7413333 170.846667,63.5196667 170.66,63.347 C170.473333,63.1743333 170.235333,63.088 169.946,63.088 C169.656667,63.088 169.418667,63.1743333 169.232,63.347 C169.045333,63.5196667 168.952,63.7413333 168.952,64.012 C168.952,64.2826667 169.045333,64.502 169.232,64.67 C169.418667,64.838 169.656667,64.922 169.946,64.922 Z M170.744,73 L170.744,66.126 L169.134,66.126 L169.134,73 L170.744,73 Z M175.196,76.038 C175.756,76.038 176.262333,75.975 176.715,75.849 C177.167667,75.723 177.552667,75.5526667 177.87,75.338 C178.187333,75.1233333 178.432333,74.8666667 178.605,74.568 C178.777667,74.2693333 178.864,73.952 178.864,73.616 C178.864,73.0186667 178.651667,72.587 178.227,72.321 C177.802333,72.055 177.174667,71.922 176.344,71.922 L176.344,71.922 L175.126,71.922 C174.706,71.922 174.414333,71.866 174.251,71.754 C174.087667,71.642 174.006,71.488 174.006,71.292 C174.006,71.1333333 174.036333,71.0073333 174.097,70.914 C174.157667,70.8206667 174.239333,70.7273333 174.342,70.634 C174.500667,70.6993333 174.659333,70.746 174.818,70.774 C174.976667,70.802 175.130667,70.816 175.28,70.816 C175.644,70.816 175.984667,70.7646667 176.302,70.662 C176.619333,70.5593333 176.894667,70.41 177.128,70.214 C177.361333,70.018 177.545667,69.7753333 177.681,69.486 C177.816333,69.1966667 177.884,68.8606667 177.884,68.478 C177.884,68.2353333 177.846667,68.0136667 177.772,67.813 C177.697333,67.6123333 177.604,67.4466667 177.492,67.316 L177.492,67.316 L178.752,67.316 L178.752,66.126 L176.288,66.126 C176.148,66.0793333 175.991667,66.0396667 175.819,66.007 C175.646333,65.9743333 175.466667,65.958 175.28,65.958 C174.916,65.958 174.570667,66.0116667 174.244,66.119 C173.917333,66.2263333 173.630333,66.385 173.383,66.595 C173.135667,66.805 172.937333,67.064 172.788,67.372 C172.638667,67.68 172.564,68.03 172.564,68.422 C172.564,68.8326667 172.655,69.1943333 172.837,69.507 C173.019,69.8196667 173.226667,70.0646667 173.46,70.242 L173.46,70.242 L173.46,70.298 C173.264,70.438 173.089,70.6176667 172.935,70.837 C172.781,71.0563333 172.704,71.3013333 172.704,71.572 C172.704,71.852 172.762333,72.0853333 172.879,72.272 C172.995667,72.4586667 173.142667,72.608 173.32,72.72 L173.32,72.72 L173.32,72.776 C173.002667,72.972 172.76,73.1936667 172.592,73.441 C172.424,73.6883333 172.34,73.9566667 172.34,74.246 C172.34,74.5446667 172.412333,74.806 172.557,75.03 C172.701667,75.254 172.9,75.4406667 173.152,75.59 C173.404,75.7393333 173.705,75.8513333 174.055,75.926 C174.405,76.0006667 174.785333,76.038 175.196,76.038 Z M175.28,69.808 C174.944,69.808 174.659333,69.689 174.426,69.451 C174.192667,69.213 174.076,68.87 174.076,68.422 C174.076,67.9833333 174.192667,67.6473333 174.426,67.414 C174.659333,67.1806667 174.944,67.064 175.28,67.064 C175.616,67.064 175.898333,67.183 176.127,67.421 C176.355667,67.659 176.47,67.9926667 176.47,68.422 C176.47,68.87 176.353333,69.213 176.12,69.451 C175.886667,69.689 175.606667,69.808 175.28,69.808 Z M175.448,74.988 C174.897333,74.988 174.465667,74.9016667 174.153,74.729 C173.840333,74.5563333 173.684,74.316 173.684,74.008 C173.684,73.672 173.861333,73.3686667 174.216,73.098 C174.468,73.1633333 174.780667,73.196 175.154,73.196 L175.154,73.196 L176.092,73.196 C176.484,73.196 176.785,73.2426667 176.995,73.336 C177.205,73.4293333 177.31,73.6113333 177.31,73.882 C177.31,74.1806667 177.139667,74.4396667 176.799,74.659 C176.458333,74.8783333 176.008,74.988 175.448,74.988 Z M181.496,73.168 C181.906667,73.168 182.287,73.0793333 182.637,72.902 C182.987,72.7246667 183.316,72.5053333 183.624,72.244 L183.624,72.244 L183.68,72.244 L183.792,73 L185.122,73 L185.122,68.926 C185.122,67.9646667 184.909667,67.2296667 184.485,66.721 C184.060333,66.2123333 183.418667,65.958 182.56,65.958 C182.009333,65.958 181.496,66.0466667 181.02,66.224 C180.544,66.4013333 180.114667,66.6113333 179.732,66.854 L179.732,66.854 L180.32,67.932 C180.628,67.7453333 180.943,67.5866667 181.265,67.456 C181.587,67.3253333 181.916,67.26 182.252,67.26 C182.485333,67.26 182.681333,67.295 182.84,67.365 C182.998667,67.435 183.127,67.533 183.225,67.659 C183.323,67.785 183.393,67.9296667 183.435,68.093 C183.477,68.2563333 183.502667,68.4266667 183.512,68.604 C182.802667,68.6786667 182.193667,68.786 181.685,68.926 C181.176333,69.066 180.756333,69.2386667 180.425,69.444 C180.093667,69.6493333 179.851,69.8943333 179.697,70.179 C179.543,70.4636667 179.466,70.788 179.466,71.152 C179.466,71.7586667 179.652667,72.2463333 180.026,72.615 C180.399333,72.9836667 180.889333,73.168 181.496,73.168 Z M182.014,71.908 C181.724667,71.908 181.486667,71.838 181.3,71.698 C181.113333,71.558 181.02,71.334 181.02,71.026 C181.02,70.858 181.062,70.6993333 181.146,70.55 C181.23,70.4006667 181.37,70.2676667 181.566,70.151 C181.762,70.0343333 182.018667,69.9293333 182.336,69.836 C182.653333,69.7426667 183.045333,69.668 183.512,69.612 L183.512,69.612 L183.512,71.152 C183.250667,71.3946667 183.005667,71.5813333 182.777,71.712 C182.548333,71.8426667 182.294,71.908 182.014,71.908 Z M189.252,73.168 C189.522667,73.168 189.777,73.1423333 190.015,73.091 C190.253,73.0396667 190.465333,72.9813333 190.652,72.916 L190.652,72.916 L190.372,71.726 C190.269333,71.7726667 190.155,71.81 190.029,71.838 C189.903,71.866 189.779333,71.88 189.658,71.88 C189.014,71.88 188.692,71.4786667 188.692,70.676 L188.692,70.676 L188.692,67.4 L190.442,67.4 L190.442,66.126 L188.692,66.126 L188.692,64.25 L187.348,64.25 L187.152,66.126 L186.088,66.196 L186.088,67.4 L187.068,67.4 L187.068,70.676 C187.068,71.0493333 187.107667,71.3876667 187.187,71.691 C187.266333,71.9943333 187.392333,72.2556667 187.565,72.475 C187.737667,72.6943333 187.961667,72.8646667 188.237,72.986 C188.512333,73.1073333 188.850667,73.168 189.252,73.168 Z M192.696,64.922 C192.985333,64.922 193.223333,64.838 193.41,64.67 C193.596667,64.502 193.69,64.2826667 193.69,64.012 C193.69,63.7413333 193.596667,63.5196667 193.41,63.347 C193.223333,63.1743333 192.985333,63.088 192.696,63.088 C192.406667,63.088 192.168667,63.1743333 191.982,63.347 C191.795333,63.5196667 191.702,63.7413333 191.702,64.012 C191.702,64.2826667 191.795333,64.502 191.982,64.67 C192.168667,64.838 192.406667,64.922 192.696,64.922 Z M193.494,73 L193.494,66.126 L191.884,66.126 L191.884,73 L193.494,73 Z M198.366,73.168 C198.795333,73.168 199.208333,73.0886667 199.605,72.93 C200.001667,72.7713333 200.349333,72.538 200.648,72.23 C200.946667,71.922 201.187,71.544 201.369,71.096 C201.551,70.648 201.642,70.1393333 201.642,69.57 C201.642,69.0006667 201.551,68.492 201.369,68.044 C201.187,67.596 200.946667,67.218 200.648,66.91 C200.349333,66.602 200.001667,66.3663333 199.605,66.203 C199.208333,66.0396667 198.795333,65.958 198.366,65.958 C197.936667,65.958 197.526,66.0396667 197.134,66.203 C196.742,66.3663333 196.394333,66.602 196.091,66.91 C195.787667,67.218 195.547333,67.596 195.37,68.044 C195.192667,68.492 195.104,69.0006667 195.104,69.57 C195.104,70.1393333 195.192667,70.648 195.37,71.096 C195.547333,71.544 195.787667,71.922 196.091,72.23 C196.394333,72.538 196.742,72.7713333 197.134,72.93 C197.526,73.0886667 197.936667,73.168 198.366,73.168 Z M198.366,71.852 C197.862,71.852 197.467667,71.6443333 197.183,71.229 C196.898333,70.8136667 196.756,70.2606667 196.756,69.57 C196.756,68.87 196.898333,68.3123333 197.183,67.897 C197.467667,67.4816667 197.862,67.274 198.366,67.274 C198.87,67.274 199.266667,67.4816667 199.556,67.897 C199.845333,68.3123333 199.99,68.87 199.99,69.57 C199.99,70.2606667 199.845333,70.8136667 199.556,71.229 C199.266667,71.6443333 198.87,71.852 198.366,71.852 Z M204.848,73 L204.848,68.198 C205.137333,67.918 205.396333,67.7056667 205.625,67.561 C205.853667,67.4163333 206.117333,67.344 206.416,67.344 C206.798667,67.344 207.074,67.4606667 207.242,67.694 C207.41,67.9273333 207.494,68.3286667 207.494,68.898 L207.494,68.898 L207.494,73 L209.104,73 L209.104,68.688 C209.104,67.8106667 208.936,67.1363333 208.6,66.665 C208.264,66.1936667 207.727333,65.958 206.99,65.958 C206.514,65.958 206.096333,66.0653333 205.737,66.28 C205.377667,66.4946667 205.044,66.7513333 204.736,67.05 L204.736,67.05 L204.68,67.05 L204.568,66.126 L203.238,66.126 L203.238,73 L204.848,73 Z M212.996,73.168 C213.425333,73.168 213.808,73.112 214.144,73 C214.48,72.888 214.76,72.7363333 214.984,72.545 C215.208,72.3536667 215.378333,72.1296667 215.495,71.873 C215.611667,71.6163333 215.67,71.3386667 215.67,71.04 C215.67,70.7226667 215.611667,70.4496667 215.495,70.221 C215.378333,69.9923333 215.224333,69.7986667 215.033,69.64 C214.841667,69.4813333 214.629333,69.3483333 214.396,69.241 C214.162667,69.1336667 213.929333,69.038 213.696,68.954 C213.509333,68.8886667 213.329667,68.8233333 213.157,68.758 C212.984333,68.6926667 212.832667,68.6226667 212.702,68.548 C212.571333,68.4733333 212.466333,68.387 212.387,68.289 C212.307667,68.191 212.268,68.072 212.268,67.932 C212.268,67.7173333 212.349667,67.5376667 212.513,67.393 C212.676333,67.2483333 212.930667,67.176 213.276,67.176 C213.546667,67.176 213.805667,67.2296667 214.053,67.337 C214.300333,67.4443333 214.545333,67.5866667 214.788,67.764 L214.788,67.764 L215.53,66.784 C215.25,66.5693333 214.918667,66.378 214.536,66.21 C214.153333,66.042 213.724,65.958 213.248,65.958 C212.473333,65.958 211.862,66.1493333 211.414,66.532 C210.966,66.9146667 210.742,67.4093333 210.742,68.016 C210.742,68.3053333 210.800333,68.555 210.917,68.765 C211.033667,68.975 211.183,69.1593333 211.365,69.318 C211.547,69.4766667 211.754667,69.612 211.988,69.724 C212.221333,69.836 212.45,69.934 212.674,70.018 C212.851333,70.0926667 213.028667,70.165 213.206,70.235 C213.383333,70.305 213.542,70.382 213.682,70.466 C213.822,70.55 213.934,70.6456667 214.018,70.753 C214.102,70.8603333 214.144,70.984 214.144,71.124 C214.144,71.3666667 214.055333,71.565 213.878,71.719 C213.700667,71.873 213.425333,71.95 213.052,71.95 C212.697333,71.95 212.368333,71.8823333 212.065,71.747 C211.761667,71.6116667 211.456,71.4226667 211.148,71.18 L211.148,71.18 L210.392,72.216 C210.728,72.4866667 211.127,72.713 211.589,72.895 C212.051,73.077 212.52,73.168 212.996,73.168 Z M150.948,92.54 L150.948,91.126 C151.62,91.0326667 152.149667,90.7713333 152.537,90.342 C152.924333,89.9126667 153.118,89.362 153.118,88.69 C153.118,88.186 153.022333,87.773 152.831,87.451 C152.639667,87.129 152.399333,86.8583333 152.11,86.639 C151.820667,86.4196667 151.505667,86.233 151.165,86.079 C150.824333,85.925 150.509333,85.7663333 150.22,85.603 C149.930667,85.4396667 149.690333,85.2506667 149.499,85.036 C149.307667,84.8213333 149.212,84.546 149.212,84.21 C149.212,83.7993333 149.338,83.4726667 149.59,83.23 C149.842,82.9873333 150.182667,82.866 150.612,82.866 C150.994667,82.866 151.309667,82.936 151.557,83.076 C151.804333,83.216 152.058667,83.412 152.32,83.664 L152.32,83.664 L152.936,82.978 C152.684,82.7073333 152.401667,82.474 152.089,82.278 C151.776333,82.082 151.396,81.9606667 150.948,81.914 L150.948,81.914 L150.948,80.528 L150.108,80.528 L150.108,81.942 C149.492,82.0353333 148.999667,82.2896667 148.631,82.705 C148.262333,83.1203333 148.078,83.6406667 148.078,84.266 C148.078,84.7233333 148.173667,85.099 148.365,85.393 C148.556333,85.687 148.796667,85.9366667 149.086,86.142 C149.375333,86.3473333 149.690333,86.5293333 150.031,86.688 C150.371667,86.8466667 150.686667,87.017 150.976,87.199 C151.265333,87.381 151.505667,87.5956667 151.697,87.843 C151.888333,88.0903333 151.984,88.4006667 151.984,88.774 C151.984,89.2126667 151.855667,89.5626667 151.599,89.824 C151.342333,90.0853333 150.952667,90.216 150.43,90.216 C150.000667,90.216 149.606333,90.125 149.247,89.943 C148.887667,89.761 148.558667,89.5393333 148.26,89.278 L148.26,89.278 L147.728,90.076 C148.026667,90.3466667 148.386,90.5823333 148.806,90.783 C149.226,90.9836667 149.66,91.1073333 150.108,91.154 L150.108,91.154 L150.108,92.54 L150.948,92.54 Z M157.262,91.168 C157.672667,91.168 158.055333,91.1096667 158.41,90.993 C158.764667,90.8763333 159.075,90.7083333 159.341,90.489 C159.607,90.2696667 159.817,90.0013333 159.971,89.684 C160.125,89.3666667 160.202,89.012 160.202,88.62 C160.202,88.312 160.153,88.032 160.055,87.78 C159.957,87.528 159.819333,87.3063333 159.642,87.115 C159.464667,86.9236667 159.259333,86.765 159.026,86.639 C158.792667,86.513 158.540667,86.4173333 158.27,86.352 L158.27,86.352 L158.27,86.296 C158.755333,86.1093333 159.147333,85.8433333 159.446,85.498 C159.744667,85.1526667 159.894,84.7093333 159.894,84.168 C159.894,83.804 159.828667,83.482 159.698,83.202 C159.567333,82.922 159.383,82.6863333 159.145,82.495 C158.907,82.3036667 158.624667,82.1566667 158.298,82.054 C157.971333,81.9513333 157.612,81.9 157.22,81.9 C156.688,81.9 156.214333,82.005 155.799,82.215 C155.383667,82.425 155.003333,82.6933333 154.658,83.02 L154.658,83.02 L155.274,83.748 C155.544667,83.4773333 155.836333,83.258 156.149,83.09 C156.461667,82.922 156.804667,82.838 157.178,82.838 C157.654,82.838 158.029667,82.964 158.305,83.216 C158.580333,83.468 158.718,83.8133333 158.718,84.252 C158.718,84.4853333 158.676,84.7046667 158.592,84.91 C158.508,85.1153333 158.365667,85.2926667 158.165,85.442 C157.964333,85.5913333 157.703,85.708 157.381,85.792 C157.059,85.876 156.66,85.918 156.184,85.918 L156.184,85.918 L156.184,86.8 C156.716,86.8 157.164,86.842 157.528,86.926 C157.892,87.01 158.186,87.1313333 158.41,87.29 C158.634,87.4486667 158.795,87.6376667 158.893,87.857 C158.991,88.0763333 159.04,88.3166667 159.04,88.578 C159.04,89.082 158.867333,89.481 158.522,89.775 C158.176667,90.069 157.733333,90.216 157.192,90.216 C156.66,90.216 156.214333,90.1086667 155.855,89.894 C155.495667,89.6793333 155.180667,89.432 154.91,89.152 L154.91,89.152 L154.322,89.908 C154.471333,90.076 154.641667,90.2346667 154.833,90.384 C155.024333,90.5333333 155.241333,90.6663333 155.484,90.783 C155.726667,90.8996667 155.995,90.993 156.289,91.063 C156.583,91.133 156.907333,91.168 157.262,91.168 Z M164.584,91 C164.621333,90.132 164.684333,89.341 164.773,88.627 C164.861667,87.913 165.004,87.2363333 165.2,86.597 C165.396,85.9576667 165.659667,85.33 165.991,84.714 C166.322333,84.098 166.754,83.454 167.286,82.782 L167.286,82.782 L167.286,82.068 L161.532,82.068 L161.532,83.062 L165.984,83.062 C165.545333,83.678 165.169667,84.28 164.857,84.868 C164.544333,85.456 164.287667,86.065 164.087,86.695 C163.886333,87.325 163.73,87.99 163.618,88.69 C163.506,89.39 163.431333,90.16 163.394,91 L163.394,91 L164.584,91 Z M174.202,91 L174.202,90.006 L171.612,90.006 C171.378667,90.006 171.131333,90.0153333 170.87,90.034 C170.608667,90.0526667 170.356667,90.0713333 170.114,90.09 C170.646,89.5393333 171.133667,89.019 171.577,88.529 C172.020333,88.039 172.403,87.5676667 172.725,87.115 C173.047,86.6623333 173.299,86.2236667 173.481,85.799 C173.663,85.3743333 173.754,84.952 173.754,84.532 C173.754,83.7386667 173.516,83.1016667 173.04,82.621 C172.564,82.1403333 171.910667,81.9 171.08,81.9 C170.492,81.9 169.988,82.0236667 169.568,82.271 C169.148,82.5183333 168.751333,82.8473333 168.378,83.258 L168.378,83.258 L169.036,83.916 C169.297333,83.6173333 169.586667,83.363 169.904,83.153 C170.221333,82.943 170.566667,82.838 170.94,82.838 C171.509333,82.838 171.934,83.0013333 172.214,83.328 C172.494,83.6546667 172.634,84.0746667 172.634,84.588 C172.634,84.952 172.540667,85.3276667 172.354,85.715 C172.167333,86.1023333 171.896667,86.527 171.542,86.989 C171.187333,87.451 170.748667,87.9526667 170.226,88.494 C169.703333,89.0353333 169.106,89.642 168.434,90.314 L168.434,90.314 L168.434,91 L174.202,91 Z M179.018,91 C179.531333,91 180.002667,90.944 180.432,90.832 C180.861333,90.72 181.23,90.552 181.538,90.328 C181.846,90.104 182.084,89.824 182.252,89.488 C182.42,89.152 182.504,88.76 182.504,88.312 C182.504,87.6773333 182.331333,87.178 181.986,86.814 C181.640667,86.45 181.188,86.2166667 180.628,86.114 L180.628,86.114 L180.628,86.058 C181.066667,85.918 181.400333,85.6636667 181.629,85.295 C181.857667,84.9263333 181.972,84.5133333 181.972,84.056 C181.972,83.6546667 181.895,83.3116667 181.741,83.027 C181.587,82.7423333 181.372333,82.5113333 181.097,82.334 C180.821667,82.1566667 180.490333,82.026 180.103,81.942 C179.715667,81.858 179.288667,81.816 178.822,81.816 L178.822,81.816 L176.092,81.816 L176.092,91 L179.018,91 Z M178.612,85.722 L177.254,85.722 L177.254,82.74 L178.668,82.74 C179.386667,82.74 179.925667,82.852 180.285,83.076 C180.644333,83.3 180.824,83.678 180.824,84.21 C180.824,84.6766667 180.651333,85.0453333 180.306,85.316 C179.960667,85.5866667 179.396,85.722 178.612,85.722 L178.612,85.722 Z M178.85,90.076 L177.254,90.076 L177.254,86.618 L178.85,86.618 C179.662,86.618 180.282667,86.751 180.712,87.017 C181.141333,87.283 181.356,87.7006667 181.356,88.27 C181.356,88.886 181.136667,89.341 180.698,89.635 C180.259333,89.929 179.643333,90.076 178.85,90.076 L178.85,90.076 Z" id="Obligations$372B" fill="#666666" fill-rule="nonzero"></path>
                <path d="M321.592,73.168 C322.124,73.168 322.602333,73.091 323.027,72.937 C323.451667,72.783 323.815667,72.538 324.119,72.202 C324.422333,71.866 324.653333,71.4343333 324.812,70.907 C324.970667,70.3796667 325.05,69.738 325.05,68.982 L325.05,68.982 L325.05,63.844 L323.496,63.844 L323.496,69.108 C323.496,69.6026667 323.449333,70.0203333 323.356,70.361 C323.262667,70.7016667 323.132,70.9746667 322.964,71.18 C322.796,71.3853333 322.595333,71.5323333 322.362,71.621 C322.128667,71.7096667 321.872,71.754 321.592,71.754 C321.312,71.754 321.06,71.7096667 320.836,71.621 C320.612,71.5323333 320.418333,71.3853333 320.255,71.18 C320.091667,70.9746667 319.965667,70.7016667 319.877,70.361 C319.788333,70.0203333 319.744,69.6026667 319.744,69.108 L319.744,69.108 L319.744,63.844 L318.12,63.844 L318.12,68.982 C318.12,69.738 318.201667,70.3796667 318.365,70.907 C318.528333,71.4343333 318.761667,71.866 319.065,72.202 C319.368333,72.538 319.732333,72.783 320.157,72.937 C320.581667,73.091 321.06,73.168 321.592,73.168 Z M328.802,73 L328.802,68.198 C329.091333,67.918 329.350333,67.7056667 329.579,67.561 C329.807667,67.4163333 330.071333,67.344 330.37,67.344 C330.752667,67.344 331.028,67.4606667 331.196,67.694 C331.364,67.9273333 331.448,68.3286667 331.448,68.898 L331.448,68.898 L331.448,73 L333.058,73 L333.058,68.688 C333.058,67.8106667 332.89,67.1363333 332.554,66.665 C332.218,66.1936667 331.681333,65.958 330.944,65.958 C330.468,65.958 330.050333,66.0653333 329.691,66.28 C329.331667,66.4946667 328.998,66.7513333 328.69,67.05 L328.69,67.05 L328.634,67.05 L328.522,66.126 L327.192,66.126 L327.192,73 L328.802,73 Z M337.846,73.168 C338.275333,73.168 338.688333,73.0886667 339.085,72.93 C339.481667,72.7713333 339.829333,72.538 340.128,72.23 C340.426667,71.922 340.667,71.544 340.849,71.096 C341.031,70.648 341.122,70.1393333 341.122,69.57 C341.122,69.0006667 341.031,68.492 340.849,68.044 C340.667,67.596 340.426667,67.218 340.128,66.91 C339.829333,66.602 339.481667,66.3663333 339.085,66.203 C338.688333,66.0396667 338.275333,65.958 337.846,65.958 C337.416667,65.958 337.006,66.0396667 336.614,66.203 C336.222,66.3663333 335.874333,66.602 335.571,66.91 C335.267667,67.218 335.027333,67.596 334.85,68.044 C334.672667,68.492 334.584,69.0006667 334.584,69.57 C334.584,70.1393333 334.672667,70.648 334.85,71.096 C335.027333,71.544 335.267667,71.922 335.571,72.23 C335.874333,72.538 336.222,72.7713333 336.614,72.93 C337.006,73.0886667 337.416667,73.168 337.846,73.168 Z M337.846,71.852 C337.342,71.852 336.947667,71.6443333 336.663,71.229 C336.378333,70.8136667 336.236,70.2606667 336.236,69.57 C336.236,68.87 336.378333,68.3123333 336.663,67.897 C336.947667,67.4816667 337.342,67.274 337.846,67.274 C338.35,67.274 338.746667,67.4816667 339.036,67.897 C339.325333,68.3123333 339.47,68.87 339.47,69.57 C339.47,70.2606667 339.325333,70.8136667 339.036,71.229 C338.746667,71.6443333 338.35,71.852 337.846,71.852 Z M346.05,73.168 C346.432667,73.168 346.801333,73.084 347.156,72.916 C347.510667,72.748 347.823333,72.5053333 348.094,72.188 C348.364667,71.8706667 348.581667,71.481 348.745,71.019 C348.908333,70.557 348.99,70.032 348.99,69.444 C348.99,68.912 348.929333,68.4313333 348.808,68.002 C348.686667,67.5726667 348.509333,67.2063333 348.276,66.903 C348.042667,66.5996667 347.758,66.3663333 347.422,66.203 C347.086,66.0396667 346.703333,65.958 346.274,65.958 C345.919333,65.958 345.571667,66.0373333 345.231,66.196 C344.890333,66.3546667 344.575333,66.56 344.286,66.812 L344.286,66.812 L344.328,65.664 L344.328,63.116 L342.718,63.116 L342.718,73 L343.992,73 L344.132,72.272 L344.174,72.272 C344.463333,72.5613333 344.769,72.783 345.091,72.937 C345.413,73.091 345.732667,73.168 346.05,73.168 Z M345.714,71.838 C345.508667,71.838 345.287,71.796 345.049,71.712 C344.811,71.628 344.570667,71.4786667 344.328,71.264 L344.328,71.264 L344.328,68.058 C344.850667,67.5446667 345.354667,67.288 345.84,67.288 C346.362667,67.288 346.740667,67.4793333 346.974,67.862 C347.207333,68.2446667 347.324,68.7813333 347.324,69.472 C347.324,70.256 347.17,70.8463333 346.862,71.243 C346.554,71.6396667 346.171333,71.838 345.714,71.838 Z M352.168,73.168 C352.522667,73.168 352.807333,73.1213333 353.022,73.028 L353.022,73.028 L352.812,71.824 C352.746667,71.8426667 352.697667,71.852 352.665,71.852 L352.665,71.852 L352.56,71.852 C352.476,71.852 352.396667,71.8123333 352.322,71.733 C352.247333,71.6536667 352.21,71.516 352.21,71.32 L352.21,71.32 L352.21,63.116 L350.6,63.116 L350.6,71.236 C350.6,71.8333333 350.716667,72.3046667 350.95,72.65 C351.183333,72.9953333 351.589333,73.168 352.168,73.168 Z M355.206,64.922 C355.495333,64.922 355.733333,64.838 355.92,64.67 C356.106667,64.502 356.2,64.2826667 356.2,64.012 C356.2,63.7413333 356.106667,63.5196667 355.92,63.347 C355.733333,63.1743333 355.495333,63.088 355.206,63.088 C354.916667,63.088 354.678667,63.1743333 354.492,63.347 C354.305333,63.5196667 354.212,63.7413333 354.212,64.012 C354.212,64.2826667 354.305333,64.502 354.492,64.67 C354.678667,64.838 354.916667,64.922 355.206,64.922 Z M356.004,73 L356.004,66.126 L354.394,66.126 L354.394,73 L356.004,73 Z M360.456,76.038 C361.016,76.038 361.522333,75.975 361.975,75.849 C362.427667,75.723 362.812667,75.5526667 363.13,75.338 C363.447333,75.1233333 363.692333,74.8666667 363.865,74.568 C364.037667,74.2693333 364.124,73.952 364.124,73.616 C364.124,73.0186667 363.911667,72.587 363.487,72.321 C363.062333,72.055 362.434667,71.922 361.604,71.922 L361.604,71.922 L360.386,71.922 C359.966,71.922 359.674333,71.866 359.511,71.754 C359.347667,71.642 359.266,71.488 359.266,71.292 C359.266,71.1333333 359.296333,71.0073333 359.357,70.914 C359.417667,70.8206667 359.499333,70.7273333 359.602,70.634 C359.760667,70.6993333 359.919333,70.746 360.078,70.774 C360.236667,70.802 360.390667,70.816 360.54,70.816 C360.904,70.816 361.244667,70.7646667 361.562,70.662 C361.879333,70.5593333 362.154667,70.41 362.388,70.214 C362.621333,70.018 362.805667,69.7753333 362.941,69.486 C363.076333,69.1966667 363.144,68.8606667 363.144,68.478 C363.144,68.2353333 363.106667,68.0136667 363.032,67.813 C362.957333,67.6123333 362.864,67.4466667 362.752,67.316 L362.752,67.316 L364.012,67.316 L364.012,66.126 L361.548,66.126 C361.408,66.0793333 361.251667,66.0396667 361.079,66.007 C360.906333,65.9743333 360.726667,65.958 360.54,65.958 C360.176,65.958 359.830667,66.0116667 359.504,66.119 C359.177333,66.2263333 358.890333,66.385 358.643,66.595 C358.395667,66.805 358.197333,67.064 358.048,67.372 C357.898667,67.68 357.824,68.03 357.824,68.422 C357.824,68.8326667 357.915,69.1943333 358.097,69.507 C358.279,69.8196667 358.486667,70.0646667 358.72,70.242 L358.72,70.242 L358.72,70.298 C358.524,70.438 358.349,70.6176667 358.195,70.837 C358.041,71.0563333 357.964,71.3013333 357.964,71.572 C357.964,71.852 358.022333,72.0853333 358.139,72.272 C358.255667,72.4586667 358.402667,72.608 358.58,72.72 L358.58,72.72 L358.58,72.776 C358.262667,72.972 358.02,73.1936667 357.852,73.441 C357.684,73.6883333 357.6,73.9566667 357.6,74.246 C357.6,74.5446667 357.672333,74.806 357.817,75.03 C357.961667,75.254 358.16,75.4406667 358.412,75.59 C358.664,75.7393333 358.965,75.8513333 359.315,75.926 C359.665,76.0006667 360.045333,76.038 360.456,76.038 Z M360.54,69.808 C360.204,69.808 359.919333,69.689 359.686,69.451 C359.452667,69.213 359.336,68.87 359.336,68.422 C359.336,67.9833333 359.452667,67.6473333 359.686,67.414 C359.919333,67.1806667 360.204,67.064 360.54,67.064 C360.876,67.064 361.158333,67.183 361.387,67.421 C361.615667,67.659 361.73,67.9926667 361.73,68.422 C361.73,68.87 361.613333,69.213 361.38,69.451 C361.146667,69.689 360.866667,69.808 360.54,69.808 Z M360.708,74.988 C360.157333,74.988 359.725667,74.9016667 359.413,74.729 C359.100333,74.5563333 358.944,74.316 358.944,74.008 C358.944,73.672 359.121333,73.3686667 359.476,73.098 C359.728,73.1633333 360.040667,73.196 360.414,73.196 L360.414,73.196 L361.352,73.196 C361.744,73.196 362.045,73.2426667 362.255,73.336 C362.465,73.4293333 362.57,73.6113333 362.57,73.882 C362.57,74.1806667 362.399667,74.4396667 362.059,74.659 C361.718333,74.8783333 361.268,74.988 360.708,74.988 Z M366.756,73.168 C367.166667,73.168 367.547,73.0793333 367.897,72.902 C368.247,72.7246667 368.576,72.5053333 368.884,72.244 L368.884,72.244 L368.94,72.244 L369.052,73 L370.382,73 L370.382,68.926 C370.382,67.9646667 370.169667,67.2296667 369.745,66.721 C369.320333,66.2123333 368.678667,65.958 367.82,65.958 C367.269333,65.958 366.756,66.0466667 366.28,66.224 C365.804,66.4013333 365.374667,66.6113333 364.992,66.854 L364.992,66.854 L365.58,67.932 C365.888,67.7453333 366.203,67.5866667 366.525,67.456 C366.847,67.3253333 367.176,67.26 367.512,67.26 C367.745333,67.26 367.941333,67.295 368.1,67.365 C368.258667,67.435 368.387,67.533 368.485,67.659 C368.583,67.785 368.653,67.9296667 368.695,68.093 C368.737,68.2563333 368.762667,68.4266667 368.772,68.604 C368.062667,68.6786667 367.453667,68.786 366.945,68.926 C366.436333,69.066 366.016333,69.2386667 365.685,69.444 C365.353667,69.6493333 365.111,69.8943333 364.957,70.179 C364.803,70.4636667 364.726,70.788 364.726,71.152 C364.726,71.7586667 364.912667,72.2463333 365.286,72.615 C365.659333,72.9836667 366.149333,73.168 366.756,73.168 Z M367.274,71.908 C366.984667,71.908 366.746667,71.838 366.56,71.698 C366.373333,71.558 366.28,71.334 366.28,71.026 C366.28,70.858 366.322,70.6993333 366.406,70.55 C366.49,70.4006667 366.63,70.2676667 366.826,70.151 C367.022,70.0343333 367.278667,69.9293333 367.596,69.836 C367.913333,69.7426667 368.305333,69.668 368.772,69.612 L368.772,69.612 L368.772,71.152 C368.510667,71.3946667 368.265667,71.5813333 368.037,71.712 C367.808333,71.8426667 367.554,71.908 367.274,71.908 Z M374.512,73.168 C374.782667,73.168 375.037,73.1423333 375.275,73.091 C375.513,73.0396667 375.725333,72.9813333 375.912,72.916 L375.912,72.916 L375.632,71.726 C375.529333,71.7726667 375.415,71.81 375.289,71.838 C375.163,71.866 375.039333,71.88 374.918,71.88 C374.274,71.88 373.952,71.4786667 373.952,70.676 L373.952,70.676 L373.952,67.4 L375.702,67.4 L375.702,66.126 L373.952,66.126 L373.952,64.25 L372.608,64.25 L372.412,66.126 L371.348,66.196 L371.348,67.4 L372.328,67.4 L372.328,70.676 C372.328,71.0493333 372.367667,71.3876667 372.447,71.691 C372.526333,71.9943333 372.652333,72.2556667 372.825,72.475 C372.997667,72.6943333 373.221667,72.8646667 373.497,72.986 C373.772333,73.1073333 374.110667,73.168 374.512,73.168 Z M379.86,73.168 C380.298667,73.168 380.718667,73.098 381.12,72.958 C381.521333,72.818 381.885333,72.6406667 382.212,72.426 L382.212,72.426 L381.666,71.418 C381.414,71.5766667 381.159667,71.7003333 380.903,71.789 C380.646333,71.8776667 380.368667,71.922 380.07,71.922 C379.51,71.922 379.050333,71.7563333 378.691,71.425 C378.331667,71.0936667 378.114667,70.62 378.04,70.004 L378.04,70.004 L382.408,70.004 C382.426667,69.92 382.443,69.808 382.457,69.668 C382.471,69.528 382.478,69.3786667 382.478,69.22 C382.478,68.744 382.417333,68.3053333 382.296,67.904 C382.174667,67.5026667 381.995,67.1573333 381.757,66.868 C381.519,66.5786667 381.222667,66.3546667 380.868,66.196 C380.513333,66.0373333 380.102667,65.958 379.636,65.958 C379.234667,65.958 378.842667,66.042 378.46,66.21 C378.077333,66.378 377.739,66.616 377.445,66.924 C377.151,67.232 376.915333,67.61 376.738,68.058 C376.560667,68.506 376.472,69.01 376.472,69.57 C376.472,70.1393333 376.558333,70.6456667 376.731,71.089 C376.903667,71.5323333 377.144,71.908 377.452,72.216 C377.76,72.524 378.119333,72.7596667 378.53,72.923 C378.940667,73.0863333 379.384,73.168 379.86,73.168 Z M381.078,68.912 L378.026,68.912 C378.100667,68.352 378.292,67.9273333 378.6,67.638 C378.908,67.3486667 379.267333,67.204 379.678,67.204 C380.154,67.204 380.506333,67.3556667 380.735,67.659 C380.963667,67.9623333 381.078,68.38 381.078,68.912 L381.078,68.912 Z M386.426,73.168 C386.799333,73.168 387.154,73.0793333 387.49,72.902 C387.826,72.7246667 388.12,72.51 388.372,72.258 L388.372,72.258 L388.428,72.258 L388.54,73 L389.87,73 L389.87,63.116 L388.26,63.116 L388.26,65.608 L388.316,66.714 C388.045333,66.4806667 387.774667,66.2963333 387.504,66.161 C387.233333,66.0256667 386.902,65.958 386.51,65.958 C386.136667,65.958 385.775,66.042 385.425,66.21 C385.075,66.378 384.764667,66.616 384.494,66.924 C384.223333,67.232 384.006333,67.61 383.843,68.058 C383.679667,68.506 383.598,69.01 383.598,69.57 C383.598,70.7086667 383.852333,71.593 384.361,72.223 C384.869667,72.853 385.558,73.168 386.426,73.168 Z M386.818,71.838 C386.314,71.838 385.929,71.6443333 385.663,71.257 C385.397,70.8696667 385.264,70.3026667 385.264,69.556 C385.264,68.828 385.418,68.268 385.726,67.876 C386.034,67.484 386.412,67.288 386.86,67.288 C387.093333,67.288 387.324333,67.33 387.553,67.414 C387.781667,67.498 388.017333,67.6473333 388.26,67.862 L388.26,67.862 L388.26,71.068 C387.812,71.5813333 387.331333,71.838 386.818,71.838 Z M320.948,92.54 L320.948,91.126 C321.62,91.0326667 322.149667,90.7713333 322.537,90.342 C322.924333,89.9126667 323.118,89.362 323.118,88.69 C323.118,88.186 323.022333,87.773 322.831,87.451 C322.639667,87.129 322.399333,86.8583333 322.11,86.639 C321.820667,86.4196667 321.505667,86.233 321.165,86.079 C320.824333,85.925 320.509333,85.7663333 320.22,85.603 C319.930667,85.4396667 319.690333,85.2506667 319.499,85.036 C319.307667,84.8213333 319.212,84.546 319.212,84.21 C319.212,83.7993333 319.338,83.4726667 319.59,83.23 C319.842,82.9873333 320.182667,82.866 320.612,82.866 C320.994667,82.866 321.309667,82.936 321.557,83.076 C321.804333,83.216 322.058667,83.412 322.32,83.664 L322.32,83.664 L322.936,82.978 C322.684,82.7073333 322.401667,82.474 322.089,82.278 C321.776333,82.082 321.396,81.9606667 320.948,81.914 L320.948,81.914 L320.948,80.528 L320.108,80.528 L320.108,81.942 C319.492,82.0353333 318.999667,82.2896667 318.631,82.705 C318.262333,83.1203333 318.078,83.6406667 318.078,84.266 C318.078,84.7233333 318.173667,85.099 318.365,85.393 C318.556333,85.687 318.796667,85.9366667 319.086,86.142 C319.375333,86.3473333 319.690333,86.5293333 320.031,86.688 C320.371667,86.8466667 320.686667,87.017 320.976,87.199 C321.265333,87.381 321.505667,87.5956667 321.697,87.843 C321.888333,88.0903333 321.984,88.4006667 321.984,88.774 C321.984,89.2126667 321.855667,89.5626667 321.599,89.824 C321.342333,90.0853333 320.952667,90.216 320.43,90.216 C320.000667,90.216 319.606333,90.125 319.247,89.943 C318.887667,89.761 318.558667,89.5393333 318.26,89.278 L318.26,89.278 L317.728,90.076 C318.026667,90.3466667 318.386,90.5823333 318.806,90.783 C319.226,90.9836667 319.66,91.1073333 320.108,91.154 L320.108,91.154 L320.108,92.54 L320.948,92.54 Z M330.104,91 L330.104,90.048 L328.256,90.048 L328.256,82.068 L327.374,82.068 C327.131333,82.2173333 326.858333,82.3456667 326.555,82.453 C326.251667,82.5603333 325.894667,82.6513333 325.484,82.726 L325.484,82.726 L325.484,83.468 L327.108,83.468 L327.108,90.048 L325.064,90.048 L325.064,91 L330.104,91 Z M337.062,91 L337.062,90.048 L335.214,90.048 L335.214,82.068 L334.332,82.068 C334.089333,82.2173333 333.816333,82.3456667 333.513,82.453 C333.209667,82.5603333 332.852667,82.6513333 332.442,82.726 L332.442,82.726 L332.442,83.468 L334.066,83.468 L334.066,90.048 L332.022,90.048 L332.022,91 L337.062,91 Z M344.202,91 L344.202,90.006 L341.612,90.006 C341.378667,90.006 341.131333,90.0153333 340.87,90.034 C340.608667,90.0526667 340.356667,90.0713333 340.114,90.09 C340.646,89.5393333 341.133667,89.019 341.577,88.529 C342.020333,88.039 342.403,87.5676667 342.725,87.115 C343.047,86.6623333 343.299,86.2236667 343.481,85.799 C343.663,85.3743333 343.754,84.952 343.754,84.532 C343.754,83.7386667 343.516,83.1016667 343.04,82.621 C342.564,82.1403333 341.910667,81.9 341.08,81.9 C340.492,81.9 339.988,82.0236667 339.568,82.271 C339.148,82.5183333 338.751333,82.8473333 338.378,83.258 L338.378,83.258 L339.036,83.916 C339.297333,83.6173333 339.586667,83.363 339.904,83.153 C340.221333,82.943 340.566667,82.838 340.94,82.838 C341.509333,82.838 341.934,83.0013333 342.214,83.328 C342.494,83.6546667 342.634,84.0746667 342.634,84.588 C342.634,84.952 342.540667,85.3276667 342.354,85.715 C342.167333,86.1023333 341.896667,86.527 341.542,86.989 C341.187333,87.451 340.748667,87.9526667 340.226,88.494 C339.703333,89.0353333 339.106,89.642 338.434,90.314 L338.434,90.314 L338.434,91 L344.202,91 Z M349.018,91 C349.531333,91 350.002667,90.944 350.432,90.832 C350.861333,90.72 351.23,90.552 351.538,90.328 C351.846,90.104 352.084,89.824 352.252,89.488 C352.42,89.152 352.504,88.76 352.504,88.312 C352.504,87.6773333 352.331333,87.178 351.986,86.814 C351.640667,86.45 351.188,86.2166667 350.628,86.114 L350.628,86.114 L350.628,86.058 C351.066667,85.918 351.400333,85.6636667 351.629,85.295 C351.857667,84.9263333 351.972,84.5133333 351.972,84.056 C351.972,83.6546667 351.895,83.3116667 351.741,83.027 C351.587,82.7423333 351.372333,82.5113333 351.097,82.334 C350.821667,82.1566667 350.490333,82.026 350.103,81.942 C349.715667,81.858 349.288667,81.816 348.822,81.816 L348.822,81.816 L346.092,81.816 L346.092,91 L349.018,91 Z M348.612,85.722 L347.254,85.722 L347.254,82.74 L348.668,82.74 C349.386667,82.74 349.925667,82.852 350.285,83.076 C350.644333,83.3 350.824,83.678 350.824,84.21 C350.824,84.6766667 350.651333,85.0453333 350.306,85.316 C349.960667,85.5866667 349.396,85.722 348.612,85.722 L348.612,85.722 Z M348.85,90.076 L347.254,90.076 L347.254,86.618 L348.85,86.618 C349.662,86.618 350.282667,86.751 350.712,87.017 C351.141333,87.283 351.356,87.7006667 351.356,88.27 C351.356,88.886 351.136667,89.341 350.698,89.635 C350.259333,89.929 349.643333,90.076 348.85,90.076 L348.85,90.076 Z" id="Unobligated$112B" fill="#666666" fill-rule="nonzero"></path>
                <line x1="4" y1="40" x2="4" y2="55" id="Line" stroke="#666666" opacity="0.5"></line>
                <path d="M322,40 L322,41.3088235 C322,42.413393 321.104569,43.3088235 320,43.3088235 L124,43.3088235 C122.895431,43.3088235 122,44.204254 122,45.3088235 L122,55 L122,55" id="Line-Copy-7" stroke="#666666" opacity="0.5" stroke-linecap="round" transform="translate(222.000000, 47.500000) scale(-1, 1) translate(-222.000000, -47.500000) "></path>
                <path d="M167,40 L167,47.75 C167,48.8545695 166.104569,49.75 165,49.75 L106,49.75 C104.895431,49.75 104,50.6454305 104,51.75 L104,55 L104,55" id="Line-Copy-9" stroke="#666666" opacity="0.5" stroke-linecap="round" transform="translate(135.500000, 47.500000) scale(-1, 1) translate(-135.500000, -47.500000) "></path>
                <rect id="unobligated" fill="#F3E9FF" x="107" y="0" width="32" height="40"></rect>
                <rect id="obligated" fill="#6F41A7" x="101" y="0" width="6" height="40"></rect>
                <rect id="outlays" fill="#331E4D" x="0" y="0" width="101" height="40"></rect>
                <path d="M153.992,27.76 L153.992,26.096 C154.824,25.9146667 155.448,25.5493333 155.864,25 C156.28,24.4506667 156.488,23.792 156.488,23.024 C156.488,22.512 156.384,22.0826667 156.176,21.736 C155.968,21.3893333 155.706667,21.0933333 155.392,20.848 C155.077333,20.6026667 154.738667,20.3946667 154.376,20.224 C154.013333,20.0533333 153.674667,19.888 153.36,19.728 C153.045333,19.568 152.784,19.4 152.576,19.224 C152.368,19.048 152.264,18.832 152.264,18.576 C152.264,18.2133333 152.365333,17.952 152.568,17.792 C152.770667,17.632 153.064,17.552 153.448,17.552 C153.789333,17.552 154.093333,17.6186667 154.36,17.752 C154.626667,17.8853333 154.904,18.0853333 155.192,18.352 L155.192,18.352 L156.376,17.008 C156.066667,16.6773333 155.72,16.3946667 155.336,16.16 C154.952,15.9253333 154.504,15.7706667 153.992,15.696 L153.992,15.696 L153.992,14.08 L152.44,14.08 L152.44,15.728 C151.682667,15.8773333 151.088,16.2106667 150.656,16.728 C150.224,17.2453333 150.008,17.8986667 150.008,18.688 C150.008,19.168 150.112,19.5733333 150.32,19.904 C150.528,20.2346667 150.789333,20.5226667 151.104,20.768 C151.418667,21.0133333 151.757333,21.224 152.12,21.4 C152.482667,21.576 152.821333,21.752 153.136,21.928 C153.450667,22.104 153.712,22.288 153.92,22.48 C154.128,22.672 154.232,22.9066667 154.232,23.184 C154.232,23.5573333 154.128,23.8346667 153.92,24.016 C153.712,24.1973333 153.384,24.288 152.936,24.288 C152.552,24.288 152.176,24.2106667 151.808,24.056 C151.44,23.9013333 151.053333,23.6693333 150.648,23.36 L150.648,23.36 L149.624,24.944 C149.997333,25.2853333 150.442667,25.56 150.96,25.768 C151.477333,25.976 151.970667,26.1066667 152.44,26.16 L152.44,26.16 L152.44,27.76 L153.992,27.76 Z M164.344,26 L164.344,23.568 L165.512,23.568 L165.512,21.776 L164.344,21.776 L164.344,15.84 L161.464,15.84 L157.752,21.952 L157.752,23.568 L162.152,23.568 L162.152,26 L164.344,26 Z M162.152,21.776 L160.008,21.776 L161.352,19.568 C161.501333,19.28 161.645333,18.992 161.784,18.704 C161.922667,18.416 162.056,18.1333333 162.184,17.856 L162.184,17.856 L162.248,17.856 C162.226667,18.176 162.205333,18.552 162.184,18.984 C162.162667,19.416 162.152,19.7973333 162.152,20.128 L162.152,20.128 L162.152,21.776 Z M170.104,26.192 C170.648,26.192 171.141333,26.12 171.584,25.976 C172.026667,25.832 172.405333,25.6346667 172.72,25.384 C173.034667,25.1333333 173.277333,24.8373333 173.448,24.496 C173.618667,24.1546667 173.704,23.7813333 173.704,23.376 C173.704,22.704 173.533333,22.16 173.192,21.744 C172.850667,21.328 172.434667,20.9866667 171.944,20.72 L171.944,20.72 L171.944,20.656 C172.296,20.4213333 172.605333,20.1146667 172.872,19.736 C173.138667,19.3573333 173.272,18.9226667 173.272,18.432 C173.272,18.016 173.197333,17.6346667 173.048,17.288 C172.898667,16.9413333 172.690667,16.648 172.424,16.408 C172.157333,16.168 171.832,15.9813333 171.448,15.848 C171.064,15.7146667 170.642667,15.648 170.184,15.648 C169.714667,15.648 169.28,15.712 168.88,15.84 C168.48,15.968 168.136,16.1546667 167.848,16.4 C167.56,16.6453333 167.336,16.9413333 167.176,17.288 C167.016,17.6346667 166.936,18.0213333 166.936,18.448 C166.936,18.992 167.064,19.4533333 167.32,19.832 C167.576,20.2106667 167.901333,20.5493333 168.296,20.848 L168.296,20.848 L168.296,20.912 C167.816,21.168 167.408,21.4933333 167.072,21.888 C166.736,22.2826667 166.568,22.7893333 166.568,23.408 C166.568,23.824 166.656,24.2026667 166.832,24.544 C167.008,24.8853333 167.253333,25.1786667 167.568,25.424 C167.882667,25.6693333 168.256,25.8586667 168.688,25.992 C169.12,26.1253333 169.592,26.192 170.104,26.192 Z M170.744,20.08 C170.221333,19.8773333 169.8,19.6586667 169.48,19.424 C169.16,19.1893333 169,18.864 169,18.448 C169,18.0533333 169.112,17.76 169.336,17.568 C169.56,17.376 169.826667,17.28 170.136,17.28 C170.52,17.28 170.821333,17.4 171.04,17.64 C171.258667,17.88 171.368,18.1973333 171.368,18.592 C171.368,19.104 171.16,19.6 170.744,20.08 Z M170.152,24.56 C169.725333,24.56 169.357333,24.4346667 169.048,24.184 C168.738667,23.9333333 168.584,23.584 168.584,23.136 C168.584,22.8266667 168.658667,22.5333333 168.808,22.256 C168.957333,21.9786667 169.144,21.7333333 169.368,21.52 C169.688,21.6586667 169.978667,21.7866667 170.24,21.904 C170.501333,22.0213333 170.728,22.1466667 170.92,22.28 C171.112,22.4133333 171.258667,22.56 171.36,22.72 C171.461333,22.88 171.512,23.072 171.512,23.296 C171.512,23.7226667 171.384,24.04 171.128,24.248 C170.872,24.456 170.546667,24.56 170.152,24.56 Z M178.232,26.192 C178.744,26.192 179.229333,26.1253333 179.688,25.992 C180.146667,25.8586667 180.546667,25.6666667 180.888,25.416 C181.229333,25.1653333 181.501333,24.856 181.704,24.488 C181.906667,24.12 182.008,23.7013333 182.008,23.232 C182.008,22.5706667 181.818667,22.0346667 181.44,21.624 C181.061333,21.2133333 180.578667,20.9226667 179.992,20.752 L179.992,20.752 L179.992,20.688 C180.536,20.4533333 180.954667,20.152 181.248,19.784 C181.541333,19.416 181.688,18.9653333 181.688,18.432 C181.688,17.984 181.602667,17.5893333 181.432,17.248 C181.261333,16.9066667 181.024,16.616 180.72,16.376 C180.416,16.136 180.048,15.9546667 179.616,15.832 C179.184,15.7093333 178.706667,15.648 178.184,15.648 C177.554667,15.648 176.981333,15.7626667 176.464,15.992 C175.946667,16.2213333 175.453333,16.5386667 174.984,16.944 L174.984,16.944 L176.168,18.384 C176.488,18.1066667 176.794667,17.888 177.088,17.728 C177.381333,17.568 177.709333,17.488 178.072,17.488 C178.477333,17.488 178.786667,17.5866667 179,17.784 C179.213333,17.9813333 179.32,18.256 179.32,18.608 C179.32,18.8106667 179.28,18.9946667 179.2,19.16 C179.12,19.3253333 178.986667,19.4693333 178.8,19.592 C178.613333,19.7146667 178.368,19.808 178.064,19.872 C177.76,19.936 177.378667,19.968 176.92,19.968 L176.92,19.968 L176.92,21.632 C177.474667,21.632 177.928,21.6666667 178.28,21.736 C178.632,21.8053333 178.909333,21.9013333 179.112,22.024 C179.314667,22.1466667 179.456,22.2986667 179.536,22.48 C179.616,22.6613333 179.656,22.864 179.656,23.088 C179.656,23.472 179.506667,23.768 179.208,23.976 C178.909333,24.184 178.509333,24.288 178.008,24.288 C177.570667,24.288 177.168,24.192 176.8,24 C176.432,23.808 176.093333,23.5626667 175.784,23.264 L175.784,23.264 L174.696,24.752 C175.069333,25.1893333 175.544,25.5386667 176.12,25.8 C176.696,26.0613333 177.4,26.192 178.232,26.192 Z M191.096,26 C191.661333,26 192.189333,25.9386667 192.68,25.816 C193.170667,25.6933333 193.6,25.5066667 193.968,25.256 C194.336,25.0053333 194.624,24.688 194.832,24.304 C195.04,23.92 195.144,23.4613333 195.144,22.928 C195.144,22.576 195.096,22.264 195,21.992 C194.904,21.72 194.770667,21.4826667 194.6,21.28 C194.429333,21.0773333 194.232,20.9093333 194.008,20.776 C193.784,20.6426667 193.538667,20.544 193.272,20.48 L193.272,20.48 L193.272,20.416 C193.485333,20.3413333 193.674667,20.224 193.84,20.064 C194.005333,19.904 194.146667,19.7226667 194.264,19.52 C194.381333,19.3173333 194.472,19.0986667 194.536,18.864 C194.6,18.6293333 194.632,18.3946667 194.632,18.16 C194.632,17.6586667 194.533333,17.2426667 194.336,16.912 C194.138667,16.5813333 193.866667,16.3146667 193.52,16.112 C193.173333,15.9093333 192.768,15.768 192.304,15.688 C191.84,15.608 191.336,15.568 190.792,15.568 L190.792,15.568 L187.224,15.568 L187.224,26 L191.096,26 Z M190.68,19.744 L189.576,19.744 L189.576,17.392 L190.696,17.392 C191.250667,17.392 191.661333,17.4773333 191.928,17.648 C192.194667,17.8186667 192.328,18.1066667 192.328,18.512 C192.328,18.8853333 192.197333,19.184 191.936,19.408 C191.674667,19.632 191.256,19.744 190.68,19.744 L190.68,19.744 Z M190.904,24.176 L189.576,24.176 L189.576,21.488 L190.904,21.488 C191.554667,21.488 192.04,21.5866667 192.36,21.784 C192.68,21.9813333 192.84,22.3093333 192.84,22.768 C192.84,23.7066667 192.194667,24.176 190.904,24.176 L190.904,24.176 Z" id="$483B" fill="#555555" fill-rule="nonzero"></path>
            </g>
        </g>
    </g>
</svg>