<?xml version="1.0" encoding="UTF-8"?>
<svg width="390px" height="85px" viewBox="0 0 390 85" version="1.1" xmlns="http://www.w3.org/2000/svg" xmlns:xlink="http://www.w3.org/1999/xlink">
    <title>law 3 B - loan</title>
    <g id="SVG-2.0" stroke="none" stroke-width="1" fill="none" fill-rule="evenodd">
        <g id="viz-3-desktop-outline" transform="translate(-146.000000, -1380.000000)">
            <g id="law-3-B---loan" transform="translate(146.000000, 1380.000000)">
                <g id="bar---phase-3-loan" transform="translate(0.000000, 5.000000)">
                    <path d="M4.718,60.168 C5.31533333,60.168 5.86133333,60.0583333 6.356,59.839 C6.85066667,59.6196667 7.27766667,59.3023333 7.637,58.887 C7.99633333,58.4716667 8.274,57.97 8.47,57.382 C8.666,56.794 8.764,56.1266667 8.764,55.38 C8.764,54.6426667 8.666,53.9823333 8.47,53.399 C8.274,52.8156667 7.99633333,52.3233333 7.637,51.922 C7.27766667,51.5206667 6.85066667,51.2126667 6.356,50.998 C5.86133333,50.7833333 5.31533333,50.676 4.718,50.676 C4.12066667,50.676 3.57466667,50.7833333 3.08,50.998 C2.58533333,51.2126667 2.16066667,51.5206667 1.806,51.922 C1.45133333,52.3233333 1.176,52.8156667 0.98,53.399 C0.784,53.9823333 0.686,54.6426667 0.686,55.38 C0.686,56.1266667 0.784,56.794 0.98,57.382 C1.176,57.97 1.45133333,58.4716667 1.806,58.887 C2.16066667,59.3023333 2.58533333,59.6196667 3.08,59.839 C3.57466667,60.0583333 4.12066667,60.168 4.718,60.168 Z M4.718,58.754 C4.354,58.754 4.02733333,58.6746667 3.738,58.516 C3.44866667,58.3573333 3.20133333,58.131 2.996,57.837 C2.79066667,57.543 2.632,57.1883333 2.52,56.773 C2.408,56.3576667 2.352,55.8933333 2.352,55.38 C2.352,54.3533333 2.56433333,53.5483333 2.989,52.965 C3.41366667,52.3816667 3.99,52.09 4.718,52.09 C5.446,52.09 6.02233333,52.3816667 6.447,52.965 C6.87166667,53.5483333 7.084,54.3533333 7.084,55.38 C7.084,55.8933333 7.028,56.3576667 6.916,56.773 C6.804,57.1883333 6.64533333,57.543 6.44,57.837 C6.23466667,58.131 5.98733333,58.3573333 5.698,58.516 C5.40866667,58.6746667 5.082,58.754 4.718,58.754 Z M12.502,60.168 C12.978,60.168 13.391,60.0606667 13.741,59.846 C14.091,59.6313333 14.4153333,59.3466667 14.714,58.992 L14.714,58.992 L14.756,58.992 L14.882,60 L16.198,60 L16.198,53.126 L14.588,53.126 L14.588,57.83 C14.3266667,58.166 14.0816667,58.4086667 13.853,58.558 C13.6243333,58.7073333 13.3606667,58.782 13.062,58.782 C12.6886667,58.782 12.418,58.6653333 12.25,58.432 C12.082,58.1986667 11.998,57.7973333 11.998,57.228 L11.998,57.228 L11.998,53.126 L10.388,53.126 L10.388,57.438 C10.388,58.3153333 10.556,58.9896667 10.892,59.461 C11.228,59.9323333 11.7646667,60.168 12.502,60.168 Z M20.664,60.168 C20.9346667,60.168 21.189,60.1423333 21.427,60.091 C21.665,60.0396667 21.8773333,59.9813333 22.064,59.916 L22.064,59.916 L21.784,58.726 C21.6813333,58.7726667 21.567,58.81 21.441,58.838 C21.315,58.866 21.1913333,58.88 21.07,58.88 C20.426,58.88 20.104,58.4786667 20.104,57.676 L20.104,57.676 L20.104,54.4 L21.854,54.4 L21.854,53.126 L20.104,53.126 L20.104,51.25 L18.76,51.25 L18.564,53.126 L17.5,53.196 L17.5,54.4 L18.48,54.4 L18.48,57.676 C18.48,58.0493333 18.5196667,58.3876667 18.599,58.691 C18.6783333,58.9943333 18.8043333,59.2556667 18.977,59.475 C19.1496667,59.6943333 19.3736667,59.8646667 19.649,59.986 C19.9243333,60.1073333 20.2626667,60.168 20.664,60.168 Z M24.864,60.168 C25.2186667,60.168 25.5033333,60.1213333 25.718,60.028 L25.718,60.028 L25.508,58.824 C25.4426667,58.8426667 25.3936667,58.852 25.361,58.852 L25.361,58.852 L25.256,58.852 C25.172,58.852 25.0926667,58.8123333 25.018,58.733 C24.9433333,58.6536667 24.906,58.516 24.906,58.32 L24.906,58.32 L24.906,50.116 L23.296,50.116 L23.296,58.236 C23.296,58.8333333 23.4126667,59.3046667 23.646,59.65 C23.8793333,59.9953333 24.2853333,60.168 24.864,60.168 Z M28.756,60.168 C29.1666667,60.168 29.547,60.0793333 29.897,59.902 C30.247,59.7246667 30.576,59.5053333 30.884,59.244 L30.884,59.244 L30.94,59.244 L31.052,60 L32.382,60 L32.382,55.926 C32.382,54.9646667 32.1696667,54.2296667 31.745,53.721 C31.3203333,53.2123333 30.6786667,52.958 29.82,52.958 C29.2693333,52.958 28.756,53.0466667 28.28,53.224 C27.804,53.4013333 27.3746667,53.6113333 26.992,53.854 L26.992,53.854 L27.58,54.932 C27.888,54.7453333 28.203,54.5866667 28.525,54.456 C28.847,54.3253333 29.176,54.26 29.512,54.26 C29.7453333,54.26 29.9413333,54.295 30.1,54.365 C30.2586667,54.435 30.387,54.533 30.485,54.659 C30.583,54.785 30.653,54.9296667 30.695,55.093 C30.737,55.2563333 30.7626667,55.4266667 30.772,55.604 C30.0626667,55.6786667 29.4536667,55.786 28.945,55.926 C28.4363333,56.066 28.0163333,56.2386667 27.685,56.444 C27.3536667,56.6493333 27.111,56.8943333 26.957,57.179 C26.803,57.4636667 26.726,57.788 26.726,58.152 C26.726,58.7586667 26.9126667,59.2463333 27.286,59.615 C27.6593333,59.9836667 28.1493333,60.168 28.756,60.168 Z M29.274,58.908 C28.9846667,58.908 28.7466667,58.838 28.56,58.698 C28.3733333,58.558 28.28,58.334 28.28,58.026 C28.28,57.858 28.322,57.6993333 28.406,57.55 C28.49,57.4006667 28.63,57.2676667 28.826,57.151 C29.022,57.0343333 29.2786667,56.9293333 29.596,56.836 C29.9133333,56.7426667 30.3053333,56.668 30.772,56.612 L30.772,56.612 L30.772,58.152 C30.5106667,58.3946667 30.2656667,58.5813333 30.037,58.712 C29.8083333,58.8426667 29.554,58.908 29.274,58.908 Z M34.776,62.828 C35.1493333,62.828 35.4783333,62.7696667 35.763,62.653 C36.0476667,62.5363333 36.2996667,62.3683333 36.519,62.149 C36.7383333,61.9296667 36.932,61.666 37.1,61.358 C37.268,61.05 37.422,60.7 37.562,60.308 L37.562,60.308 L40.054,53.126 L38.5,53.126 L37.464,56.5 C37.38,56.808 37.2936667,57.1276667 37.205,57.459 C37.1163333,57.7903333 37.03,58.1146667 36.946,58.432 L36.946,58.432 L36.89,58.432 C36.7873333,58.1053333 36.687,57.7763333 36.589,57.445 C36.491,57.1136667 36.3906667,56.7986667 36.288,56.5 L36.288,56.5 L35.098,53.126 L33.46,53.126 L36.162,59.916 L36.036,60.35 C35.924,60.6953333 35.7583333,60.9776667 35.539,61.197 C35.3196667,61.4163333 35.028,61.526 34.664,61.526 C34.58,61.526 34.4936667,61.5143333 34.405,61.491 C34.3163333,61.4676667 34.2393333,61.4466667 34.174,61.428 L34.174,61.428 L33.88,62.688 C34.0106667,62.7346667 34.146,62.7696667 34.286,62.793 C34.426,62.8163333 34.5893333,62.828 34.776,62.828 Z M43.162,60.168 C43.5913333,60.168 43.974,60.112 44.31,60 C44.646,59.888 44.926,59.7363333 45.15,59.545 C45.374,59.3536667 45.5443333,59.1296667 45.661,58.873 C45.7776667,58.6163333 45.836,58.3386667 45.836,58.04 C45.836,57.7226667 45.7776667,57.4496667 45.661,57.221 C45.5443333,56.9923333 45.3903333,56.7986667 45.199,56.64 C45.0076667,56.4813333 44.7953333,56.3483333 44.562,56.241 C44.3286667,56.1336667 44.0953333,56.038 43.862,55.954 C43.6753333,55.8886667 43.4956667,55.8233333 43.323,55.758 C43.1503333,55.6926667 42.9986667,55.6226667 42.868,55.548 C42.7373333,55.4733333 42.6323333,55.387 42.553,55.289 C42.4736667,55.191 42.434,55.072 42.434,54.932 C42.434,54.7173333 42.5156667,54.5376667 42.679,54.393 C42.8423333,54.2483333 43.0966667,54.176 43.442,54.176 C43.7126667,54.176 43.9716667,54.2296667 44.219,54.337 C44.4663333,54.4443333 44.7113333,54.5866667 44.954,54.764 L44.954,54.764 L45.696,53.784 C45.416,53.5693333 45.0846667,53.378 44.702,53.21 C44.3193333,53.042 43.89,52.958 43.414,52.958 C42.6393333,52.958 42.028,53.1493333 41.58,53.532 C41.132,53.9146667 40.908,54.4093333 40.908,55.016 C40.908,55.3053333 40.9663333,55.555 41.083,55.765 C41.1996667,55.975 41.349,56.1593333 41.531,56.318 C41.713,56.4766667 41.9206667,56.612 42.154,56.724 C42.3873333,56.836 42.616,56.934 42.84,57.018 C43.0173333,57.0926667 43.1946667,57.165 43.372,57.235 C43.5493333,57.305 43.708,57.382 43.848,57.466 C43.988,57.55 44.1,57.6456667 44.184,57.753 C44.268,57.8603333 44.31,57.984 44.31,58.124 C44.31,58.3666667 44.2213333,58.565 44.044,58.719 C43.8666667,58.873 43.5913333,58.95 43.218,58.95 C42.8633333,58.95 42.5343333,58.8823333 42.231,58.747 C41.9276667,58.6116667 41.622,58.4226667 41.314,58.18 L41.314,58.18 L40.558,59.216 C40.894,59.4866667 41.293,59.713 41.755,59.895 C42.217,60.077 42.686,60.168 43.162,60.168 Z M3.948,79.54 L3.948,78.126 C4.62,78.0326667 5.14966667,77.7713333 5.537,77.342 C5.92433333,76.9126667 6.118,76.362 6.118,75.69 C6.118,75.186 6.02233333,74.773 5.831,74.451 C5.63966667,74.129 5.39933333,73.8583333 5.11,73.639 C4.82066667,73.4196667 4.50566667,73.233 4.165,73.079 C3.82433333,72.925 3.50933333,72.7663333 3.22,72.603 C2.93066667,72.4396667 2.69033333,72.2506667 2.499,72.036 C2.30766667,71.8213333 2.212,71.546 2.212,71.21 C2.212,70.7993333 2.338,70.4726667 2.59,70.23 C2.842,69.9873333 3.18266667,69.866 3.612,69.866 C3.99466667,69.866 4.30966667,69.936 4.557,70.076 C4.80433333,70.216 5.05866667,70.412 5.32,70.664 L5.32,70.664 L5.936,69.978 C5.684,69.7073333 5.40166667,69.474 5.089,69.278 C4.77633333,69.082 4.396,68.9606667 3.948,68.914 L3.948,68.914 L3.948,67.528 L3.108,67.528 L3.108,68.942 C2.492,69.0353333 1.99966667,69.2896667 1.631,69.705 C1.26233333,70.1203333 1.078,70.6406667 1.078,71.266 C1.078,71.7233333 1.17366667,72.099 1.365,72.393 C1.55633333,72.687 1.79666667,72.9366667 2.086,73.142 C2.37533333,73.3473333 2.69033333,73.5293333 3.031,73.688 C3.37166667,73.8466667 3.68666667,74.017 3.976,74.199 C4.26533333,74.381 4.50566667,74.5956667 4.697,74.843 C4.88833333,75.0903333 4.984,75.4006667 4.984,75.774 C4.984,76.2126667 4.85566667,76.5626667 4.599,76.824 C4.34233333,77.0853333 3.95266667,77.216 3.43,77.216 C3.00066667,77.216 2.60633333,77.125 2.247,76.943 C1.88766667,76.761 1.55866667,76.5393333 1.26,76.278 L1.26,76.278 L0.728,77.076 C1.02666667,77.3466667 1.386,77.5823333 1.806,77.783 C2.226,77.9836667 2.66,78.1073333 3.108,78.154 L3.108,78.154 L3.108,79.54 L3.948,79.54 Z M10.262,78.168 C10.6726667,78.168 11.0553333,78.1096667 11.41,77.993 C11.7646667,77.8763333 12.075,77.7083333 12.341,77.489 C12.607,77.2696667 12.817,77.0013333 12.971,76.684 C13.125,76.3666667 13.202,76.012 13.202,75.62 C13.202,75.312 13.153,75.032 13.055,74.78 C12.957,74.528 12.8193333,74.3063333 12.642,74.115 C12.4646667,73.9236667 12.2593333,73.765 12.026,73.639 C11.7926667,73.513 11.5406667,73.4173333 11.27,73.352 L11.27,73.352 L11.27,73.296 C11.7553333,73.1093333 12.1473333,72.8433333 12.446,72.498 C12.7446667,72.1526667 12.894,71.7093333 12.894,71.168 C12.894,70.804 12.8286667,70.482 12.698,70.202 C12.5673333,69.922 12.383,69.6863333 12.145,69.495 C11.907,69.3036667 11.6246667,69.1566667 11.298,69.054 C10.9713333,68.9513333 10.612,68.9 10.22,68.9 C9.688,68.9 9.21433333,69.005 8.799,69.215 C8.38366667,69.425 8.00333333,69.6933333 7.658,70.02 L7.658,70.02 L8.274,70.748 C8.54466667,70.4773333 8.83633333,70.258 9.149,70.09 C9.46166667,69.922 9.80466667,69.838 10.178,69.838 C10.654,69.838 11.0296667,69.964 11.305,70.216 C11.5803333,70.468 11.718,70.8133333 11.718,71.252 C11.718,71.4853333 11.676,71.7046667 11.592,71.91 C11.508,72.1153333 11.3656667,72.2926667 11.165,72.442 C10.9643333,72.5913333 10.703,72.708 10.381,72.792 C10.059,72.876 9.66,72.918 9.184,72.918 L9.184,72.918 L9.184,73.8 C9.716,73.8 10.164,73.842 10.528,73.926 C10.892,74.01 11.186,74.1313333 11.41,74.29 C11.634,74.4486667 11.795,74.6376667 11.893,74.857 C11.991,75.0763333 12.04,75.3166667 12.04,75.578 C12.04,76.082 11.8673333,76.481 11.522,76.775 C11.1766667,77.069 10.7333333,77.216 10.192,77.216 C9.66,77.216 9.21433333,77.1086667 8.855,76.894 C8.49566667,76.6793333 8.18066667,76.432 7.91,76.152 L7.91,76.152 L7.322,76.908 C7.47133333,77.076 7.64166667,77.2346667 7.833,77.384 C8.02433333,77.5333333 8.24133333,77.6663333 8.484,77.783 C8.72666667,77.8996667 8.995,77.993 9.289,78.063 C9.583,78.133 9.90733333,78.168 10.262,78.168 Z M17.22,78.168 C17.6306667,78.168 18.0133333,78.1096667 18.368,77.993 C18.7226667,77.8763333 19.033,77.7083333 19.299,77.489 C19.565,77.2696667 19.775,77.0013333 19.929,76.684 C20.083,76.3666667 20.16,76.012 20.16,75.62 C20.16,75.312 20.111,75.032 20.013,74.78 C19.915,74.528 19.7773333,74.3063333 19.6,74.115 C19.4226667,73.9236667 19.2173333,73.765 18.984,73.639 C18.7506667,73.513 18.4986667,73.4173333 18.228,73.352 L18.228,73.352 L18.228,73.296 C18.7133333,73.1093333 19.1053333,72.8433333 19.404,72.498 C19.7026667,72.1526667 19.852,71.7093333 19.852,71.168 C19.852,70.804 19.7866667,70.482 19.656,70.202 C19.5253333,69.922 19.341,69.6863333 19.103,69.495 C18.865,69.3036667 18.5826667,69.1566667 18.256,69.054 C17.9293333,68.9513333 17.57,68.9 17.178,68.9 C16.646,68.9 16.1723333,69.005 15.757,69.215 C15.3416667,69.425 14.9613333,69.6933333 14.616,70.02 L14.616,70.02 L15.232,70.748 C15.5026667,70.4773333 15.7943333,70.258 16.107,70.09 C16.4196667,69.922 16.7626667,69.838 17.136,69.838 C17.612,69.838 17.9876667,69.964 18.263,70.216 C18.5383333,70.468 18.676,70.8133333 18.676,71.252 C18.676,71.4853333 18.634,71.7046667 18.55,71.91 C18.466,72.1153333 18.3236667,72.2926667 18.123,72.442 C17.9223333,72.5913333 17.661,72.708 17.339,72.792 C17.017,72.876 16.618,72.918 16.142,72.918 L16.142,72.918 L16.142,73.8 C16.674,73.8 17.122,73.842 17.486,73.926 C17.85,74.01 18.144,74.1313333 18.368,74.29 C18.592,74.4486667 18.753,74.6376667 18.851,74.857 C18.949,75.0763333 18.998,75.3166667 18.998,75.578 C18.998,76.082 18.8253333,76.481 18.48,76.775 C18.1346667,77.069 17.6913333,77.216 17.15,77.216 C16.618,77.216 16.1723333,77.1086667 15.813,76.894 C15.4536667,76.6793333 15.1386667,76.432 14.868,76.152 L14.868,76.152 L14.28,76.908 C14.4293333,77.076 14.5996667,77.2346667 14.791,77.384 C14.9823333,77.5333333 15.1993333,77.6663333 15.442,77.783 C15.6846667,77.8996667 15.953,77.993 16.247,78.063 C16.541,78.133 16.8653333,78.168 17.22,78.168 Z M27.202,78 L27.202,77.006 L24.612,77.006 C24.3786667,77.006 24.1313333,77.0153333 23.87,77.034 C23.6086667,77.0526667 23.3566667,77.0713333 23.114,77.09 C23.646,76.5393333 24.1336667,76.019 24.577,75.529 C25.0203333,75.039 25.403,74.5676667 25.725,74.115 C26.047,73.6623333 26.299,73.2236667 26.481,72.799 C26.663,72.3743333 26.754,71.952 26.754,71.532 C26.754,70.7386667 26.516,70.1016667 26.04,69.621 C25.564,69.1403333 24.9106667,68.9 24.08,68.9 C23.492,68.9 22.988,69.0236667 22.568,69.271 C22.148,69.5183333 21.7513333,69.8473333 21.378,70.258 L21.378,70.258 L22.036,70.916 C22.2973333,70.6173333 22.5866667,70.363 22.904,70.153 C23.2213333,69.943 23.5666667,69.838 23.94,69.838 C24.5093333,69.838 24.934,70.0013333 25.214,70.328 C25.494,70.6546667 25.634,71.0746667 25.634,71.588 C25.634,71.952 25.5406667,72.3276667 25.354,72.715 C25.1673333,73.1023333 24.8966667,73.527 24.542,73.989 C24.1873333,74.451 23.7486667,74.9526667 23.226,75.494 C22.7033333,76.0353333 22.106,76.642 21.434,77.314 L21.434,77.314 L21.434,78 L27.202,78 Z M32.018,78 C32.5313333,78 33.0026667,77.944 33.432,77.832 C33.8613333,77.72 34.23,77.552 34.538,77.328 C34.846,77.104 35.084,76.824 35.252,76.488 C35.42,76.152 35.504,75.76 35.504,75.312 C35.504,74.6773333 35.3313333,74.178 34.986,73.814 C34.6406667,73.45 34.188,73.2166667 33.628,73.114 L33.628,73.114 L33.628,73.058 C34.0666667,72.918 34.4003333,72.6636667 34.629,72.295 C34.8576667,71.9263333 34.972,71.5133333 34.972,71.056 C34.972,70.6546667 34.895,70.3116667 34.741,70.027 C34.587,69.7423333 34.3723333,69.5113333 34.097,69.334 C33.8216667,69.1566667 33.4903333,69.026 33.103,68.942 C32.7156667,68.858 32.2886667,68.816 31.822,68.816 L31.822,68.816 L29.092,68.816 L29.092,78 L32.018,78 Z M31.612,72.722 L30.254,72.722 L30.254,69.74 L31.668,69.74 C32.3866667,69.74 32.9256667,69.852 33.285,70.076 C33.6443333,70.3 33.824,70.678 33.824,71.21 C33.824,71.6766667 33.6513333,72.0453333 33.306,72.316 C32.9606667,72.5866667 32.396,72.722 31.612,72.722 L31.612,72.722 Z M31.85,77.076 L30.254,77.076 L30.254,73.618 L31.85,73.618 C32.662,73.618 33.2826667,73.751 33.712,74.017 C34.1413333,74.283 34.356,74.7006667 34.356,75.27 C34.356,75.886 34.1366667,76.341 33.698,76.635 C33.2593333,76.929 32.6433333,77.076 31.85,77.076 L31.85,77.076 Z" id="Outlays$332B" fill="#666666" fill-rule="nonzero"></path>
                    <path d="M151.718,60.168 C152.315333,60.168 152.861333,60.0583333 153.356,59.839 C153.850667,59.6196667 154.277667,59.3023333 154.637,58.887 C154.996333,58.4716667 155.274,57.97 155.47,57.382 C155.666,56.794 155.764,56.1266667 155.764,55.38 C155.764,54.6426667 155.666,53.9823333 155.47,53.399 C155.274,52.8156667 154.996333,52.3233333 154.637,51.922 C154.277667,51.5206667 153.850667,51.2126667 153.356,50.998 C152.861333,50.7833333 152.315333,50.676 151.718,50.676 C151.120667,50.676 150.574667,50.7833333 150.08,50.998 C149.585333,51.2126667 149.160667,51.5206667 148.806,51.922 C148.451333,52.3233333 148.176,52.8156667 147.98,53.399 C147.784,53.9823333 147.686,54.6426667 147.686,55.38 C147.686,56.1266667 147.784,56.794 147.98,57.382 C148.176,57.97 148.451333,58.4716667 148.806,58.887 C149.160667,59.3023333 149.585333,59.6196667 150.08,59.839 C150.574667,60.0583333 151.120667,60.168 151.718,60.168 Z M151.718,58.754 C151.354,58.754 151.027333,58.6746667 150.738,58.516 C150.448667,58.3573333 150.201333,58.131 149.996,57.837 C149.790667,57.543 149.632,57.1883333 149.52,56.773 C149.408,56.3576667 149.352,55.8933333 149.352,55.38 C149.352,54.3533333 149.564333,53.5483333 149.989,52.965 C150.413667,52.3816667 150.99,52.09 151.718,52.09 C152.446,52.09 153.022333,52.3816667 153.447,52.965 C153.871667,53.5483333 154.084,54.3533333 154.084,55.38 C154.084,55.8933333 154.028,56.3576667 153.916,56.773 C153.804,57.1883333 153.645333,57.543 153.44,57.837 C153.234667,58.131 152.987333,58.3573333 152.698,58.516 C152.408667,58.6746667 152.082,58.754 151.718,58.754 Z M160.79,60.168 C161.172667,60.168 161.541333,60.084 161.896,59.916 C162.250667,59.748 162.563333,59.5053333 162.834,59.188 C163.104667,58.8706667 163.321667,58.481 163.485,58.019 C163.648333,57.557 163.73,57.032 163.73,56.444 C163.73,55.912 163.669333,55.4313333 163.548,55.002 C163.426667,54.5726667 163.249333,54.2063333 163.016,53.903 C162.782667,53.5996667 162.498,53.3663333 162.162,53.203 C161.826,53.0396667 161.443333,52.958 161.014,52.958 C160.659333,52.958 160.311667,53.0373333 159.971,53.196 C159.630333,53.3546667 159.315333,53.56 159.026,53.812 L159.026,53.812 L159.068,52.664 L159.068,50.116 L157.458,50.116 L157.458,60 L158.732,60 L158.872,59.272 L158.914,59.272 C159.203333,59.5613333 159.509,59.783 159.831,59.937 C160.153,60.091 160.472667,60.168 160.79,60.168 Z M160.454,58.838 C160.248667,58.838 160.027,58.796 159.789,58.712 C159.551,58.628 159.310667,58.4786667 159.068,58.264 L159.068,58.264 L159.068,55.058 C159.590667,54.5446667 160.094667,54.288 160.58,54.288 C161.102667,54.288 161.480667,54.4793333 161.714,54.862 C161.947333,55.2446667 162.064,55.7813333 162.064,56.472 C162.064,57.256 161.91,57.8463333 161.602,58.243 C161.294,58.6396667 160.911333,58.838 160.454,58.838 Z M166.908,60.168 C167.262667,60.168 167.547333,60.1213333 167.762,60.028 L167.762,60.028 L167.552,58.824 C167.486667,58.8426667 167.437667,58.852 167.405,58.852 L167.405,58.852 L167.3,58.852 C167.216,58.852 167.136667,58.8123333 167.062,58.733 C166.987333,58.6536667 166.95,58.516 166.95,58.32 L166.95,58.32 L166.95,50.116 L165.34,50.116 L165.34,58.236 C165.34,58.8333333 165.456667,59.3046667 165.69,59.65 C165.923333,59.9953333 166.329333,60.168 166.908,60.168 Z M169.946,51.922 C170.235333,51.922 170.473333,51.838 170.66,51.67 C170.846667,51.502 170.94,51.2826667 170.94,51.012 C170.94,50.7413333 170.846667,50.5196667 170.66,50.347 C170.473333,50.1743333 170.235333,50.088 169.946,50.088 C169.656667,50.088 169.418667,50.1743333 169.232,50.347 C169.045333,50.5196667 168.952,50.7413333 168.952,51.012 C168.952,51.2826667 169.045333,51.502 169.232,51.67 C169.418667,51.838 169.656667,51.922 169.946,51.922 Z M170.744,60 L170.744,53.126 L169.134,53.126 L169.134,60 L170.744,60 Z M175.196,63.038 C175.756,63.038 176.262333,62.975 176.715,62.849 C177.167667,62.723 177.552667,62.5526667 177.87,62.338 C178.187333,62.1233333 178.432333,61.8666667 178.605,61.568 C178.777667,61.2693333 178.864,60.952 178.864,60.616 C178.864,60.0186667 178.651667,59.587 178.227,59.321 C177.802333,59.055 177.174667,58.922 176.344,58.922 L176.344,58.922 L175.126,58.922 C174.706,58.922 174.414333,58.866 174.251,58.754 C174.087667,58.642 174.006,58.488 174.006,58.292 C174.006,58.1333333 174.036333,58.0073333 174.097,57.914 C174.157667,57.8206667 174.239333,57.7273333 174.342,57.634 C174.500667,57.6993333 174.659333,57.746 174.818,57.774 C174.976667,57.802 175.130667,57.816 175.28,57.816 C175.644,57.816 175.984667,57.7646667 176.302,57.662 C176.619333,57.5593333 176.894667,57.41 177.128,57.214 C177.361333,57.018 177.545667,56.7753333 177.681,56.486 C177.816333,56.1966667 177.884,55.8606667 177.884,55.478 C177.884,55.2353333 177.846667,55.0136667 177.772,54.813 C177.697333,54.6123333 177.604,54.4466667 177.492,54.316 L177.492,54.316 L178.752,54.316 L178.752,53.126 L176.288,53.126 C176.148,53.0793333 175.991667,53.0396667 175.819,53.007 C175.646333,52.9743333 175.466667,52.958 175.28,52.958 C174.916,52.958 174.570667,53.0116667 174.244,53.119 C173.917333,53.2263333 173.630333,53.385 173.383,53.595 C173.135667,53.805 172.937333,54.064 172.788,54.372 C172.638667,54.68 172.564,55.03 172.564,55.422 C172.564,55.8326667 172.655,56.1943333 172.837,56.507 C173.019,56.8196667 173.226667,57.0646667 173.46,57.242 L173.46,57.242 L173.46,57.298 C173.264,57.438 173.089,57.6176667 172.935,57.837 C172.781,58.0563333 172.704,58.3013333 172.704,58.572 C172.704,58.852 172.762333,59.0853333 172.879,59.272 C172.995667,59.4586667 173.142667,59.608 173.32,59.72 L173.32,59.72 L173.32,59.776 C173.002667,59.972 172.76,60.1936667 172.592,60.441 C172.424,60.6883333 172.34,60.9566667 172.34,61.246 C172.34,61.5446667 172.412333,61.806 172.557,62.03 C172.701667,62.254 172.9,62.4406667 173.152,62.59 C173.404,62.7393333 173.705,62.8513333 174.055,62.926 C174.405,63.0006667 174.785333,63.038 175.196,63.038 Z M175.28,56.808 C174.944,56.808 174.659333,56.689 174.426,56.451 C174.192667,56.213 174.076,55.87 174.076,55.422 C174.076,54.9833333 174.192667,54.6473333 174.426,54.414 C174.659333,54.1806667 174.944,54.064 175.28,54.064 C175.616,54.064 175.898333,54.183 176.127,54.421 C176.355667,54.659 176.47,54.9926667 176.47,55.422 C176.47,55.87 176.353333,56.213 176.12,56.451 C175.886667,56.689 175.606667,56.808 175.28,56.808 Z M175.448,61.988 C174.897333,61.988 174.465667,61.9016667 174.153,61.729 C173.840333,61.5563333 173.684,61.316 173.684,61.008 C173.684,60.672 173.861333,60.3686667 174.216,60.098 C174.468,60.1633333 174.780667,60.196 175.154,60.196 L175.154,60.196 L176.092,60.196 C176.484,60.196 176.785,60.2426667 176.995,60.336 C177.205,60.4293333 177.31,60.6113333 177.31,60.882 C177.31,61.1806667 177.139667,61.4396667 176.799,61.659 C176.458333,61.8783333 176.008,61.988 175.448,61.988 Z M181.496,60.168 C181.906667,60.168 182.287,60.0793333 182.637,59.902 C182.987,59.7246667 183.316,59.5053333 183.624,59.244 L183.624,59.244 L183.68,59.244 L183.792,60 L185.122,60 L185.122,55.926 C185.122,54.9646667 184.909667,54.2296667 184.485,53.721 C184.060333,53.2123333 183.418667,52.958 182.56,52.958 C182.009333,52.958 181.496,53.0466667 181.02,53.224 C180.544,53.4013333 180.114667,53.6113333 179.732,53.854 L179.732,53.854 L180.32,54.932 C180.628,54.7453333 180.943,54.5866667 181.265,54.456 C181.587,54.3253333 181.916,54.26 182.252,54.26 C182.485333,54.26 182.681333,54.295 182.84,54.365 C182.998667,54.435 183.127,54.533 183.225,54.659 C183.323,54.785 183.393,54.9296667 183.435,55.093 C183.477,55.2563333 183.502667,55.4266667 183.512,55.604 C182.802667,55.6786667 182.193667,55.786 181.685,55.926 C181.176333,56.066 180.756333,56.2386667 180.425,56.444 C180.093667,56.6493333 179.851,56.8943333 179.697,57.179 C179.543,57.4636667 179.466,57.788 179.466,58.152 C179.466,58.7586667 179.652667,59.2463333 180.026,59.615 C180.399333,59.9836667 180.889333,60.168 181.496,60.168 Z M182.014,58.908 C181.724667,58.908 181.486667,58.838 181.3,58.698 C181.113333,58.558 181.02,58.334 181.02,58.026 C181.02,57.858 181.062,57.6993333 181.146,57.55 C181.23,57.4006667 181.37,57.2676667 181.566,57.151 C181.762,57.0343333 182.018667,56.9293333 182.336,56.836 C182.653333,56.7426667 183.045333,56.668 183.512,56.612 L183.512,56.612 L183.512,58.152 C183.250667,58.3946667 183.005667,58.5813333 182.777,58.712 C182.548333,58.8426667 182.294,58.908 182.014,58.908 Z M189.252,60.168 C189.522667,60.168 189.777,60.1423333 190.015,60.091 C190.253,60.0396667 190.465333,59.9813333 190.652,59.916 L190.652,59.916 L190.372,58.726 C190.269333,58.7726667 190.155,58.81 190.029,58.838 C189.903,58.866 189.779333,58.88 189.658,58.88 C189.014,58.88 188.692,58.4786667 188.692,57.676 L188.692,57.676 L188.692,54.4 L190.442,54.4 L190.442,53.126 L188.692,53.126 L188.692,51.25 L187.348,51.25 L187.152,53.126 L186.088,53.196 L186.088,54.4 L187.068,54.4 L187.068,57.676 C187.068,58.0493333 187.107667,58.3876667 187.187,58.691 C187.266333,58.9943333 187.392333,59.2556667 187.565,59.475 C187.737667,59.6943333 187.961667,59.8646667 188.237,59.986 C188.512333,60.1073333 188.850667,60.168 189.252,60.168 Z M192.696,51.922 C192.985333,51.922 193.223333,51.838 193.41,51.67 C193.596667,51.502 193.69,51.2826667 193.69,51.012 C193.69,50.7413333 193.596667,50.5196667 193.41,50.347 C193.223333,50.1743333 192.985333,50.088 192.696,50.088 C192.406667,50.088 192.168667,50.1743333 191.982,50.347 C191.795333,50.5196667 191.702,50.7413333 191.702,51.012 C191.702,51.2826667 191.795333,51.502 191.982,51.67 C192.168667,51.838 192.406667,51.922 192.696,51.922 Z M193.494,60 L193.494,53.126 L191.884,53.126 L191.884,60 L193.494,60 Z M198.366,60.168 C198.795333,60.168 199.208333,60.0886667 199.605,59.93 C200.001667,59.7713333 200.349333,59.538 200.648,59.23 C200.946667,58.922 201.187,58.544 201.369,58.096 C201.551,57.648 201.642,57.1393333 201.642,56.57 C201.642,56.0006667 201.551,55.492 201.369,55.044 C201.187,54.596 200.946667,54.218 200.648,53.91 C200.349333,53.602 200.001667,53.3663333 199.605,53.203 C199.208333,53.0396667 198.795333,52.958 198.366,52.958 C197.936667,52.958 197.526,53.0396667 197.134,53.203 C196.742,53.3663333 196.394333,53.602 196.091,53.91 C195.787667,54.218 195.547333,54.596 195.37,55.044 C195.192667,55.492 195.104,56.0006667 195.104,56.57 C195.104,57.1393333 195.192667,57.648 195.37,58.096 C195.547333,58.544 195.787667,58.922 196.091,59.23 C196.394333,59.538 196.742,59.7713333 197.134,59.93 C197.526,60.0886667 197.936667,60.168 198.366,60.168 Z M198.366,58.852 C197.862,58.852 197.467667,58.6443333 197.183,58.229 C196.898333,57.8136667 196.756,57.2606667 196.756,56.57 C196.756,55.87 196.898333,55.3123333 197.183,54.897 C197.467667,54.4816667 197.862,54.274 198.366,54.274 C198.87,54.274 199.266667,54.4816667 199.556,54.897 C199.845333,55.3123333 199.99,55.87 199.99,56.57 C199.99,57.2606667 199.845333,57.8136667 199.556,58.229 C199.266667,58.6443333 198.87,58.852 198.366,58.852 Z M204.848,60 L204.848,55.198 C205.137333,54.918 205.396333,54.7056667 205.625,54.561 C205.853667,54.4163333 206.117333,54.344 206.416,54.344 C206.798667,54.344 207.074,54.4606667 207.242,54.694 C207.41,54.9273333 207.494,55.3286667 207.494,55.898 L207.494,55.898 L207.494,60 L209.104,60 L209.104,55.688 C209.104,54.8106667 208.936,54.1363333 208.6,53.665 C208.264,53.1936667 207.727333,52.958 206.99,52.958 C206.514,52.958 206.096333,53.0653333 205.737,53.28 C205.377667,53.4946667 205.044,53.7513333 204.736,54.05 L204.736,54.05 L204.68,54.05 L204.568,53.126 L203.238,53.126 L203.238,60 L204.848,60 Z M212.996,60.168 C213.425333,60.168 213.808,60.112 214.144,60 C214.48,59.888 214.76,59.7363333 214.984,59.545 C215.208,59.3536667 215.378333,59.1296667 215.495,58.873 C215.611667,58.6163333 215.67,58.3386667 215.67,58.04 C215.67,57.7226667 215.611667,57.4496667 215.495,57.221 C215.378333,56.9923333 215.224333,56.7986667 215.033,56.64 C214.841667,56.4813333 214.629333,56.3483333 214.396,56.241 C214.162667,56.1336667 213.929333,56.038 213.696,55.954 C213.509333,55.8886667 213.329667,55.8233333 213.157,55.758 C212.984333,55.6926667 212.832667,55.6226667 212.702,55.548 C212.571333,55.4733333 212.466333,55.387 212.387,55.289 C212.307667,55.191 212.268,55.072 212.268,54.932 C212.268,54.7173333 212.349667,54.5376667 212.513,54.393 C212.676333,54.2483333 212.930667,54.176 213.276,54.176 C213.546667,54.176 213.805667,54.2296667 214.053,54.337 C214.300333,54.4443333 214.545333,54.5866667 214.788,54.764 L214.788,54.764 L215.53,53.784 C215.25,53.5693333 214.918667,53.378 214.536,53.21 C214.153333,53.042 213.724,52.958 213.248,52.958 C212.473333,52.958 211.862,53.1493333 211.414,53.532 C210.966,53.9146667 210.742,54.4093333 210.742,55.016 C210.742,55.3053333 210.800333,55.555 210.917,55.765 C211.033667,55.975 211.183,56.1593333 211.365,56.318 C211.547,56.4766667 211.754667,56.612 211.988,56.724 C212.221333,56.836 212.45,56.934 212.674,57.018 C212.851333,57.0926667 213.028667,57.165 213.206,57.235 C213.383333,57.305 213.542,57.382 213.682,57.466 C213.822,57.55 213.934,57.6456667 214.018,57.753 C214.102,57.8603333 214.144,57.984 214.144,58.124 C214.144,58.3666667 214.055333,58.565 213.878,58.719 C213.700667,58.873 213.425333,58.95 213.052,58.95 C212.697333,58.95 212.368333,58.8823333 212.065,58.747 C211.761667,58.6116667 211.456,58.4226667 211.148,58.18 L211.148,58.18 L210.392,59.216 C210.728,59.4866667 211.127,59.713 211.589,59.895 C212.051,60.077 212.52,60.168 212.996,60.168 Z M150.948,79.54 L150.948,78.126 C151.62,78.0326667 152.149667,77.7713333 152.537,77.342 C152.924333,76.9126667 153.118,76.362 153.118,75.69 C153.118,75.186 153.022333,74.773 152.831,74.451 C152.639667,74.129 152.399333,73.8583333 152.11,73.639 C151.820667,73.4196667 151.505667,73.233 151.165,73.079 C150.824333,72.925 150.509333,72.7663333 150.22,72.603 C149.930667,72.4396667 149.690333,72.2506667 149.499,72.036 C149.307667,71.8213333 149.212,71.546 149.212,71.21 C149.212,70.7993333 149.338,70.4726667 149.59,70.23 C149.842,69.9873333 150.182667,69.866 150.612,69.866 C150.994667,69.866 151.309667,69.936 151.557,70.076 C151.804333,70.216 152.058667,70.412 152.32,70.664 L152.32,70.664 L152.936,69.978 C152.684,69.7073333 152.401667,69.474 152.089,69.278 C151.776333,69.082 151.396,68.9606667 150.948,68.914 L150.948,68.914 L150.948,67.528 L150.108,67.528 L150.108,68.942 C149.492,69.0353333 148.999667,69.2896667 148.631,69.705 C148.262333,70.1203333 148.078,70.6406667 148.078,71.266 C148.078,71.7233333 148.173667,72.099 148.365,72.393 C148.556333,72.687 148.796667,72.9366667 149.086,73.142 C149.375333,73.3473333 149.690333,73.5293333 150.031,73.688 C150.371667,73.8466667 150.686667,74.017 150.976,74.199 C151.265333,74.381 151.505667,74.5956667 151.697,74.843 C151.888333,75.0903333 151.984,75.4006667 151.984,75.774 C151.984,76.2126667 151.855667,76.5626667 151.599,76.824 C151.342333,77.0853333 150.952667,77.216 150.43,77.216 C150.000667,77.216 149.606333,77.125 149.247,76.943 C148.887667,76.761 148.558667,76.5393333 148.26,76.278 L148.26,76.278 L147.728,77.076 C148.026667,77.3466667 148.386,77.5823333 148.806,77.783 C149.226,77.9836667 149.66,78.1073333 150.108,78.154 L150.108,78.154 L150.108,79.54 L150.948,79.54 Z M157.262,78.168 C157.672667,78.168 158.055333,78.1096667 158.41,77.993 C158.764667,77.8763333 159.075,77.7083333 159.341,77.489 C159.607,77.2696667 159.817,77.0013333 159.971,76.684 C160.125,76.3666667 160.202,76.012 160.202,75.62 C160.202,75.312 160.153,75.032 160.055,74.78 C159.957,74.528 159.819333,74.3063333 159.642,74.115 C159.464667,73.9236667 159.259333,73.765 159.026,73.639 C158.792667,73.513 158.540667,73.4173333 158.27,73.352 L158.27,73.352 L158.27,73.296 C158.755333,73.1093333 159.147333,72.8433333 159.446,72.498 C159.744667,72.1526667 159.894,71.7093333 159.894,71.168 C159.894,70.804 159.828667,70.482 159.698,70.202 C159.567333,69.922 159.383,69.6863333 159.145,69.495 C158.907,69.3036667 158.624667,69.1566667 158.298,69.054 C157.971333,68.9513333 157.612,68.9 157.22,68.9 C156.688,68.9 156.214333,69.005 155.799,69.215 C155.383667,69.425 155.003333,69.6933333 154.658,70.02 L154.658,70.02 L155.274,70.748 C155.544667,70.4773333 155.836333,70.258 156.149,70.09 C156.461667,69.922 156.804667,69.838 157.178,69.838 C157.654,69.838 158.029667,69.964 158.305,70.216 C158.580333,70.468 158.718,70.8133333 158.718,71.252 C158.718,71.4853333 158.676,71.7046667 158.592,71.91 C158.508,72.1153333 158.365667,72.2926667 158.165,72.442 C157.964333,72.5913333 157.703,72.708 157.381,72.792 C157.059,72.876 156.66,72.918 156.184,72.918 L156.184,72.918 L156.184,73.8 C156.716,73.8 157.164,73.842 157.528,73.926 C157.892,74.01 158.186,74.1313333 158.41,74.29 C158.634,74.4486667 158.795,74.6376667 158.893,74.857 C158.991,75.0763333 159.04,75.3166667 159.04,75.578 C159.04,76.082 158.867333,76.481 158.522,76.775 C158.176667,77.069 157.733333,77.216 157.192,77.216 C156.66,77.216 156.214333,77.1086667 155.855,76.894 C155.495667,76.6793333 155.180667,76.432 154.91,76.152 L154.91,76.152 L154.322,76.908 C154.471333,77.076 154.641667,77.2346667 154.833,77.384 C155.024333,77.5333333 155.241333,77.6663333 155.484,77.783 C155.726667,77.8996667 155.995,77.993 156.289,78.063 C156.583,78.133 156.907333,78.168 157.262,78.168 Z M166.264,78 L166.264,75.536 L167.482,75.536 L167.482,74.612 L166.264,74.612 L166.264,69.068 L164.976,69.068 L161.154,74.78 L161.154,75.536 L165.172,75.536 L165.172,78 L166.264,78 Z M165.172,74.612 L162.372,74.612 L164.458,71.56 C164.588667,71.3453333 164.714667,71.1353333 164.836,70.93 C164.957333,70.7246667 165.074,70.5146667 165.186,70.3 L165.186,70.3 L165.242,70.3 C165.223333,70.5426667 165.207,70.8296667 165.193,71.161 C165.179,71.4923333 165.172,71.7793333 165.172,72.022 L165.172,72.022 L165.172,74.612 Z M171.374,78.168 C171.803333,78.168 172.195333,78.1073333 172.55,77.986 C172.904667,77.8646667 173.208,77.6966667 173.46,77.482 C173.712,77.2673333 173.908,77.0153333 174.048,76.726 C174.188,76.4366667 174.258,76.124 174.258,75.788 C174.258,75.4893333 174.213667,75.2233333 174.125,74.99 C174.036333,74.7566667 173.919667,74.549 173.775,74.367 C173.630333,74.185 173.464667,74.0216667 173.278,73.877 C173.091333,73.7323333 172.9,73.604 172.704,73.492 L172.704,73.492 L172.704,73.436 C172.844,73.3333333 172.986333,73.2073333 173.131,73.058 C173.275667,72.9086667 173.406333,72.7406667 173.523,72.554 C173.639667,72.3673333 173.737667,72.1666667 173.817,71.952 C173.896333,71.7373333 173.936,71.5133333 173.936,71.28 C173.936,70.9346667 173.877667,70.615 173.761,70.321 C173.644333,70.027 173.476333,69.775 173.257,69.565 C173.037667,69.355 172.774,69.1916667 172.466,69.075 C172.158,68.9583333 171.808,68.9 171.416,68.9 C171.052,68.9 170.716,68.956 170.408,69.068 C170.1,69.18 169.834,69.3363333 169.61,69.537 C169.386,69.7376667 169.208667,69.978 169.078,70.258 C168.947333,70.538 168.882,70.8506667 168.882,71.196 C168.882,71.672 169.008,72.0756667 169.26,72.407 C169.512,72.7383333 169.801333,73.0206667 170.128,73.254 L170.128,73.254 L170.128,73.31 C169.913333,73.422 169.705667,73.555 169.505,73.709 C169.304333,73.863 169.127,74.0403333 168.973,74.241 C168.819,74.4416667 168.693,74.6656667 168.595,74.913 C168.497,75.1603333 168.448,75.4286667 168.448,75.718 C168.448,76.0726667 168.522667,76.3993333 168.672,76.698 C168.821333,76.9966667 169.024333,77.2556667 169.281,77.475 C169.537667,77.6943333 169.845667,77.8646667 170.205,77.986 C170.564333,78.1073333 170.954,78.168 171.374,78.168 Z M172.004,73.128 C171.733333,73.0253333 171.474333,72.9156667 171.227,72.799 C170.979667,72.6823333 170.760333,72.5493333 170.569,72.4 C170.377667,72.2506667 170.226,72.0803333 170.114,71.889 C170.002,71.6976667 169.946,71.4666667 169.946,71.196 C169.946,70.7573333 170.081333,70.4073333 170.352,70.146 C170.622667,69.8846667 170.968,69.754 171.388,69.754 C171.882667,69.754 172.265333,69.9056667 172.536,70.209 C172.806667,70.5123333 172.942,70.888 172.942,71.336 C172.942,71.6626667 172.860333,71.9753333 172.697,72.274 C172.533667,72.5726667 172.302667,72.8573333 172.004,73.128 Z M171.402,77.314 C171.131333,77.314 170.879333,77.272 170.646,77.188 C170.412667,77.104 170.209667,76.985 170.037,76.831 C169.864333,76.677 169.729,76.4973333 169.631,76.292 C169.533,76.0866667 169.484,75.858 169.484,75.606 C169.484,75.1953333 169.603,74.829 169.841,74.507 C170.079,74.185 170.375333,73.9026667 170.73,73.66 C171.047333,73.7906667 171.353,73.919 171.647,74.045 C171.941,74.171 172.2,74.311 172.424,74.465 C172.648,74.619 172.825333,74.7986667 172.956,75.004 C173.086667,75.2093333 173.152,75.4566667 173.152,75.746 C173.152,76.2126667 172.991,76.5906667 172.669,76.88 C172.347,77.1693333 171.924667,77.314 171.402,77.314 Z M179.018,78 C179.531333,78 180.002667,77.944 180.432,77.832 C180.861333,77.72 181.23,77.552 181.538,77.328 C181.846,77.104 182.084,76.824 182.252,76.488 C182.42,76.152 182.504,75.76 182.504,75.312 C182.504,74.6773333 182.331333,74.178 181.986,73.814 C181.640667,73.45 181.188,73.2166667 180.628,73.114 L180.628,73.114 L180.628,73.058 C181.066667,72.918 181.400333,72.6636667 181.629,72.295 C181.857667,71.9263333 181.972,71.5133333 181.972,71.056 C181.972,70.6546667 181.895,70.3116667 181.741,70.027 C181.587,69.7423333 181.372333,69.5113333 181.097,69.334 C180.821667,69.1566667 180.490333,69.026 180.103,68.942 C179.715667,68.858 179.288667,68.816 178.822,68.816 L178.822,68.816 L176.092,68.816 L176.092,78 L179.018,78 Z M178.612,72.722 L177.254,72.722 L177.254,69.74 L178.668,69.74 C179.386667,69.74 179.925667,69.852 180.285,70.076 C180.644333,70.3 180.824,70.678 180.824,71.21 C180.824,71.6766667 180.651333,72.0453333 180.306,72.316 C179.960667,72.5866667 179.396,72.722 178.612,72.722 L178.612,72.722 Z M178.85,77.076 L177.254,77.076 L177.254,73.618 L178.85,73.618 C179.662,73.618 180.282667,73.751 180.712,74.017 C181.141333,74.283 181.356,74.7006667 181.356,75.27 C181.356,75.886 181.136667,76.341 180.698,76.635 C180.259333,76.929 179.643333,77.076 178.85,77.076 L178.85,77.076 Z" id="Obligations$348B" fill="#666666" fill-rule="nonzero"></path>
                    <path d="M321.592,60.168 C322.124,60.168 322.602333,60.091 323.027,59.937 C323.451667,59.783 323.815667,59.538 324.119,59.202 C324.422333,58.866 324.653333,58.4343333 324.812,57.907 C324.970667,57.3796667 325.05,56.738 325.05,55.982 L325.05,55.982 L325.05,50.844 L323.496,50.844 L323.496,56.108 C323.496,56.6026667 323.449333,57.0203333 323.356,57.361 C323.262667,57.7016667 323.132,57.9746667 322.964,58.18 C322.796,58.3853333 322.595333,58.5323333 322.362,58.621 C322.128667,58.7096667 321.872,58.754 321.592,58.754 C321.312,58.754 321.06,58.7096667 320.836,58.621 C320.612,58.5323333 320.418333,58.3853333 320.255,58.18 C320.091667,57.9746667 319.965667,57.7016667 319.877,57.361 C319.788333,57.0203333 319.744,56.6026667 319.744,56.108 L319.744,56.108 L319.744,50.844 L318.12,50.844 L318.12,55.982 C318.12,56.738 318.201667,57.3796667 318.365,57.907 C318.528333,58.4343333 318.761667,58.866 319.065,59.202 C319.368333,59.538 319.732333,59.783 320.157,59.937 C320.581667,60.091 321.06,60.168 321.592,60.168 Z M328.802,60 L328.802,55.198 C329.091333,54.918 329.350333,54.7056667 329.579,54.561 C329.807667,54.4163333 330.071333,54.344 330.37,54.344 C330.752667,54.344 331.028,54.4606667 331.196,54.694 C331.364,54.9273333 331.448,55.3286667 331.448,55.898 L331.448,55.898 L331.448,60 L333.058,60 L333.058,55.688 C333.058,54.8106667 332.89,54.1363333 332.554,53.665 C332.218,53.1936667 331.681333,52.958 330.944,52.958 C330.468,52.958 330.050333,53.0653333 329.691,53.28 C329.331667,53.4946667 328.998,53.7513333 328.69,54.05 L328.69,54.05 L328.634,54.05 L328.522,53.126 L327.192,53.126 L327.192,60 L328.802,60 Z M337.846,60.168 C338.275333,60.168 338.688333,60.0886667 339.085,59.93 C339.481667,59.7713333 339.829333,59.538 340.128,59.23 C340.426667,58.922 340.667,58.544 340.849,58.096 C341.031,57.648 341.122,57.1393333 341.122,56.57 C341.122,56.0006667 341.031,55.492 340.849,55.044 C340.667,54.596 340.426667,54.218 340.128,53.91 C339.829333,53.602 339.481667,53.3663333 339.085,53.203 C338.688333,53.0396667 338.275333,52.958 337.846,52.958 C337.416667,52.958 337.006,53.0396667 336.614,53.203 C336.222,53.3663333 335.874333,53.602 335.571,53.91 C335.267667,54.218 335.027333,54.596 334.85,55.044 C334.672667,55.492 334.584,56.0006667 334.584,56.57 C334.584,57.1393333 334.672667,57.648 334.85,58.096 C335.027333,58.544 335.267667,58.922 335.571,59.23 C335.874333,59.538 336.222,59.7713333 336.614,59.93 C337.006,60.0886667 337.416667,60.168 337.846,60.168 Z M337.846,58.852 C337.342,58.852 336.947667,58.6443333 336.663,58.229 C336.378333,57.8136667 336.236,57.2606667 336.236,56.57 C336.236,55.87 336.378333,55.3123333 336.663,54.897 C336.947667,54.4816667 337.342,54.274 337.846,54.274 C338.35,54.274 338.746667,54.4816667 339.036,54.897 C339.325333,55.3123333 339.47,55.87 339.47,56.57 C339.47,57.2606667 339.325333,57.8136667 339.036,58.229 C338.746667,58.6443333 338.35,58.852 337.846,58.852 Z M346.05,60.168 C346.432667,60.168 346.801333,60.084 347.156,59.916 C347.510667,59.748 347.823333,59.5053333 348.094,59.188 C348.364667,58.8706667 348.581667,58.481 348.745,58.019 C348.908333,57.557 348.99,57.032 348.99,56.444 C348.99,55.912 348.929333,55.4313333 348.808,55.002 C348.686667,54.5726667 348.509333,54.2063333 348.276,53.903 C348.042667,53.5996667 347.758,53.3663333 347.422,53.203 C347.086,53.0396667 346.703333,52.958 346.274,52.958 C345.919333,52.958 345.571667,53.0373333 345.231,53.196 C344.890333,53.3546667 344.575333,53.56 344.286,53.812 L344.286,53.812 L344.328,52.664 L344.328,50.116 L342.718,50.116 L342.718,60 L343.992,60 L344.132,59.272 L344.174,59.272 C344.463333,59.5613333 344.769,59.783 345.091,59.937 C345.413,60.091 345.732667,60.168 346.05,60.168 Z M345.714,58.838 C345.508667,58.838 345.287,58.796 345.049,58.712 C344.811,58.628 344.570667,58.4786667 344.328,58.264 L344.328,58.264 L344.328,55.058 C344.850667,54.5446667 345.354667,54.288 345.84,54.288 C346.362667,54.288 346.740667,54.4793333 346.974,54.862 C347.207333,55.2446667 347.324,55.7813333 347.324,56.472 C347.324,57.256 347.17,57.8463333 346.862,58.243 C346.554,58.6396667 346.171333,58.838 345.714,58.838 Z M352.168,60.168 C352.522667,60.168 352.807333,60.1213333 353.022,60.028 L353.022,60.028 L352.812,58.824 C352.746667,58.8426667 352.697667,58.852 352.665,58.852 L352.665,58.852 L352.56,58.852 C352.476,58.852 352.396667,58.8123333 352.322,58.733 C352.247333,58.6536667 352.21,58.516 352.21,58.32 L352.21,58.32 L352.21,50.116 L350.6,50.116 L350.6,58.236 C350.6,58.8333333 350.716667,59.3046667 350.95,59.65 C351.183333,59.9953333 351.589333,60.168 352.168,60.168 Z M355.206,51.922 C355.495333,51.922 355.733333,51.838 355.92,51.67 C356.106667,51.502 356.2,51.2826667 356.2,51.012 C356.2,50.7413333 356.106667,50.5196667 355.92,50.347 C355.733333,50.1743333 355.495333,50.088 355.206,50.088 C354.916667,50.088 354.678667,50.1743333 354.492,50.347 C354.305333,50.5196667 354.212,50.7413333 354.212,51.012 C354.212,51.2826667 354.305333,51.502 354.492,51.67 C354.678667,51.838 354.916667,51.922 355.206,51.922 Z M356.004,60 L356.004,53.126 L354.394,53.126 L354.394,60 L356.004,60 Z M360.456,63.038 C361.016,63.038 361.522333,62.975 361.975,62.849 C362.427667,62.723 362.812667,62.5526667 363.13,62.338 C363.447333,62.1233333 363.692333,61.8666667 363.865,61.568 C364.037667,61.2693333 364.124,60.952 364.124,60.616 C364.124,60.0186667 363.911667,59.587 363.487,59.321 C363.062333,59.055 362.434667,58.922 361.604,58.922 L361.604,58.922 L360.386,58.922 C359.966,58.922 359.674333,58.866 359.511,58.754 C359.347667,58.642 359.266,58.488 359.266,58.292 C359.266,58.1333333 359.296333,58.0073333 359.357,57.914 C359.417667,57.8206667 359.499333,57.7273333 359.602,57.634 C359.760667,57.6993333 359.919333,57.746 360.078,57.774 C360.236667,57.802 360.390667,57.816 360.54,57.816 C360.904,57.816 361.244667,57.7646667 361.562,57.662 C361.879333,57.5593333 362.154667,57.41 362.388,57.214 C362.621333,57.018 362.805667,56.7753333 362.941,56.486 C363.076333,56.1966667 363.144,55.8606667 363.144,55.478 C363.144,55.2353333 363.106667,55.0136667 363.032,54.813 C362.957333,54.6123333 362.864,54.4466667 362.752,54.316 L362.752,54.316 L364.012,54.316 L364.012,53.126 L361.548,53.126 C361.408,53.0793333 361.251667,53.0396667 361.079,53.007 C360.906333,52.9743333 360.726667,52.958 360.54,52.958 C360.176,52.958 359.830667,53.0116667 359.504,53.119 C359.177333,53.2263333 358.890333,53.385 358.643,53.595 C358.395667,53.805 358.197333,54.064 358.048,54.372 C357.898667,54.68 357.824,55.03 357.824,55.422 C357.824,55.8326667 357.915,56.1943333 358.097,56.507 C358.279,56.8196667 358.486667,57.0646667 358.72,57.242 L358.72,57.242 L358.72,57.298 C358.524,57.438 358.349,57.6176667 358.195,57.837 C358.041,58.0563333 357.964,58.3013333 357.964,58.572 C357.964,58.852 358.022333,59.0853333 358.139,59.272 C358.255667,59.4586667 358.402667,59.608 358.58,59.72 L358.58,59.72 L358.58,59.776 C358.262667,59.972 358.02,60.1936667 357.852,60.441 C357.684,60.6883333 357.6,60.9566667 357.6,61.246 C357.6,61.5446667 357.672333,61.806 357.817,62.03 C357.961667,62.254 358.16,62.4406667 358.412,62.59 C358.664,62.7393333 358.965,62.8513333 359.315,62.926 C359.665,63.0006667 360.045333,63.038 360.456,63.038 Z M360.54,56.808 C360.204,56.808 359.919333,56.689 359.686,56.451 C359.452667,56.213 359.336,55.87 359.336,55.422 C359.336,54.9833333 359.452667,54.6473333 359.686,54.414 C359.919333,54.1806667 360.204,54.064 360.54,54.064 C360.876,54.064 361.158333,54.183 361.387,54.421 C361.615667,54.659 361.73,54.9926667 361.73,55.422 C361.73,55.87 361.613333,56.213 361.38,56.451 C361.146667,56.689 360.866667,56.808 360.54,56.808 Z M360.708,61.988 C360.157333,61.988 359.725667,61.9016667 359.413,61.729 C359.100333,61.5563333 358.944,61.316 358.944,61.008 C358.944,60.672 359.121333,60.3686667 359.476,60.098 C359.728,60.1633333 360.040667,60.196 360.414,60.196 L360.414,60.196 L361.352,60.196 C361.744,60.196 362.045,60.2426667 362.255,60.336 C362.465,60.4293333 362.57,60.6113333 362.57,60.882 C362.57,61.1806667 362.399667,61.4396667 362.059,61.659 C361.718333,61.8783333 361.268,61.988 360.708,61.988 Z M366.756,60.168 C367.166667,60.168 367.547,60.0793333 367.897,59.902 C368.247,59.7246667 368.576,59.5053333 368.884,59.244 L368.884,59.244 L368.94,59.244 L369.052,60 L370.382,60 L370.382,55.926 C370.382,54.9646667 370.169667,54.2296667 369.745,53.721 C369.320333,53.2123333 368.678667,52.958 367.82,52.958 C367.269333,52.958 366.756,53.0466667 366.28,53.224 C365.804,53.4013333 365.374667,53.6113333 364.992,53.854 L364.992,53.854 L365.58,54.932 C365.888,54.7453333 366.203,54.5866667 366.525,54.456 C366.847,54.3253333 367.176,54.26 367.512,54.26 C367.745333,54.26 367.941333,54.295 368.1,54.365 C368.258667,54.435 368.387,54.533 368.485,54.659 C368.583,54.785 368.653,54.9296667 368.695,55.093 C368.737,55.2563333 368.762667,55.4266667 368.772,55.604 C368.062667,55.6786667 367.453667,55.786 366.945,55.926 C366.436333,56.066 366.016333,56.2386667 365.685,56.444 C365.353667,56.6493333 365.111,56.8943333 364.957,57.179 C364.803,57.4636667 364.726,57.788 364.726,58.152 C364.726,58.7586667 364.912667,59.2463333 365.286,59.615 C365.659333,59.9836667 366.149333,60.168 366.756,60.168 Z M367.274,58.908 C366.984667,58.908 366.746667,58.838 366.56,58.698 C366.373333,58.558 366.28,58.334 366.28,58.026 C366.28,57.858 366.322,57.6993333 366.406,57.55 C366.49,57.4006667 366.63,57.2676667 366.826,57.151 C367.022,57.0343333 367.278667,56.9293333 367.596,56.836 C367.913333,56.7426667 368.305333,56.668 368.772,56.612 L368.772,56.612 L368.772,58.152 C368.510667,58.3946667 368.265667,58.5813333 368.037,58.712 C367.808333,58.8426667 367.554,58.908 367.274,58.908 Z M374.512,60.168 C374.782667,60.168 375.037,60.1423333 375.275,60.091 C375.513,60.0396667 375.725333,59.9813333 375.912,59.916 L375.912,59.916 L375.632,58.726 C375.529333,58.7726667 375.415,58.81 375.289,58.838 C375.163,58.866 375.039333,58.88 374.918,58.88 C374.274,58.88 373.952,58.4786667 373.952,57.676 L373.952,57.676 L373.952,54.4 L375.702,54.4 L375.702,53.126 L373.952,53.126 L373.952,51.25 L372.608,51.25 L372.412,53.126 L371.348,53.196 L371.348,54.4 L372.328,54.4 L372.328,57.676 C372.328,58.0493333 372.367667,58.3876667 372.447,58.691 C372.526333,58.9943333 372.652333,59.2556667 372.825,59.475 C372.997667,59.6943333 373.221667,59.8646667 373.497,59.986 C373.772333,60.1073333 374.110667,60.168 374.512,60.168 Z M379.86,60.168 C380.298667,60.168 380.718667,60.098 381.12,59.958 C381.521333,59.818 381.885333,59.6406667 382.212,59.426 L382.212,59.426 L381.666,58.418 C381.414,58.5766667 381.159667,58.7003333 380.903,58.789 C380.646333,58.8776667 380.368667,58.922 380.07,58.922 C379.51,58.922 379.050333,58.7563333 378.691,58.425 C378.331667,58.0936667 378.114667,57.62 378.04,57.004 L378.04,57.004 L382.408,57.004 C382.426667,56.92 382.443,56.808 382.457,56.668 C382.471,56.528 382.478,56.3786667 382.478,56.22 C382.478,55.744 382.417333,55.3053333 382.296,54.904 C382.174667,54.5026667 381.995,54.1573333 381.757,53.868 C381.519,53.5786667 381.222667,53.3546667 380.868,53.196 C380.513333,53.0373333 380.102667,52.958 379.636,52.958 C379.234667,52.958 378.842667,53.042 378.46,53.21 C378.077333,53.378 377.739,53.616 377.445,53.924 C377.151,54.232 376.915333,54.61 376.738,55.058 C376.560667,55.506 376.472,56.01 376.472,56.57 C376.472,57.1393333 376.558333,57.6456667 376.731,58.089 C376.903667,58.5323333 377.144,58.908 377.452,59.216 C377.76,59.524 378.119333,59.7596667 378.53,59.923 C378.940667,60.0863333 379.384,60.168 379.86,60.168 Z M381.078,55.912 L378.026,55.912 C378.100667,55.352 378.292,54.9273333 378.6,54.638 C378.908,54.3486667 379.267333,54.204 379.678,54.204 C380.154,54.204 380.506333,54.3556667 380.735,54.659 C380.963667,54.9623333 381.078,55.38 381.078,55.912 L381.078,55.912 Z M386.426,60.168 C386.799333,60.168 387.154,60.0793333 387.49,59.902 C387.826,59.7246667 388.12,59.51 388.372,59.258 L388.372,59.258 L388.428,59.258 L388.54,60 L389.87,60 L389.87,50.116 L388.26,50.116 L388.26,52.608 L388.316,53.714 C388.045333,53.4806667 387.774667,53.2963333 387.504,53.161 C387.233333,53.0256667 386.902,52.958 386.51,52.958 C386.136667,52.958 385.775,53.042 385.425,53.21 C385.075,53.378 384.764667,53.616 384.494,53.924 C384.223333,54.232 384.006333,54.61 383.843,55.058 C383.679667,55.506 383.598,56.01 383.598,56.57 C383.598,57.7086667 383.852333,58.593 384.361,59.223 C384.869667,59.853 385.558,60.168 386.426,60.168 Z M386.818,58.838 C386.314,58.838 385.929,58.6443333 385.663,58.257 C385.397,57.8696667 385.264,57.3026667 385.264,56.556 C385.264,55.828 385.418,55.268 385.726,54.876 C386.034,54.484 386.412,54.288 386.86,54.288 C387.093333,54.288 387.324333,54.33 387.553,54.414 C387.781667,54.498 388.017333,54.6473333 388.26,54.862 L388.26,54.862 L388.26,58.068 C387.812,58.5813333 387.331333,58.838 386.818,58.838 Z M320.948,79.54 L320.948,78.126 C321.62,78.0326667 322.149667,77.7713333 322.537,77.342 C322.924333,76.9126667 323.118,76.362 323.118,75.69 C323.118,75.186 323.022333,74.773 322.831,74.451 C322.639667,74.129 322.399333,73.8583333 322.11,73.639 C321.820667,73.4196667 321.505667,73.233 321.165,73.079 C320.824333,72.925 320.509333,72.7663333 320.22,72.603 C319.930667,72.4396667 319.690333,72.2506667 319.499,72.036 C319.307667,71.8213333 319.212,71.546 319.212,71.21 C319.212,70.7993333 319.338,70.4726667 319.59,70.23 C319.842,69.9873333 320.182667,69.866 320.612,69.866 C320.994667,69.866 321.309667,69.936 321.557,70.076 C321.804333,70.216 322.058667,70.412 322.32,70.664 L322.32,70.664 L322.936,69.978 C322.684,69.7073333 322.401667,69.474 322.089,69.278 C321.776333,69.082 321.396,68.9606667 320.948,68.914 L320.948,68.914 L320.948,67.528 L320.108,67.528 L320.108,68.942 C319.492,69.0353333 318.999667,69.2896667 318.631,69.705 C318.262333,70.1203333 318.078,70.6406667 318.078,71.266 C318.078,71.7233333 318.173667,72.099 318.365,72.393 C318.556333,72.687 318.796667,72.9366667 319.086,73.142 C319.375333,73.3473333 319.690333,73.5293333 320.031,73.688 C320.371667,73.8466667 320.686667,74.017 320.976,74.199 C321.265333,74.381 321.505667,74.5956667 321.697,74.843 C321.888333,75.0903333 321.984,75.4006667 321.984,75.774 C321.984,76.2126667 321.855667,76.5626667 321.599,76.824 C321.342333,77.0853333 320.952667,77.216 320.43,77.216 C320.000667,77.216 319.606333,77.125 319.247,76.943 C318.887667,76.761 318.558667,76.5393333 318.26,76.278 L318.26,76.278 L317.728,77.076 C318.026667,77.3466667 318.386,77.5823333 318.806,77.783 C319.226,77.9836667 319.66,78.1073333 320.108,78.154 L320.108,78.154 L320.108,79.54 L320.948,79.54 Z M327.234,78.168 C327.626,78.168 328.001667,78.1003333 328.361,77.965 C328.720333,77.8296667 329.04,77.6336667 329.32,77.377 C329.6,77.1203333 329.824,76.8053333 329.992,76.432 C330.16,76.0586667 330.244,75.6293333 330.244,75.144 C330.244,74.6586667 330.171667,74.241 330.027,73.891 C329.882333,73.541 329.684,73.2516667 329.432,73.023 C329.18,72.7943333 328.886,72.624 328.55,72.512 C328.214,72.4 327.854667,72.344 327.472,72.344 C327.201333,72.344 326.958667,72.3766667 326.744,72.442 C326.529333,72.5073333 326.314667,72.596 326.1,72.708 L326.1,72.708 L326.338,70.062 L329.796,70.062 L329.796,69.068 L325.33,69.068 L325.036,73.366 L325.652,73.758 C325.922667,73.5806667 326.167667,73.4453333 326.387,73.352 C326.606333,73.2586667 326.87,73.212 327.178,73.212 C327.756667,73.212 328.218667,73.3846667 328.564,73.73 C328.909333,74.0753333 329.082,74.556 329.082,75.172 C329.082,75.48 329.030667,75.76 328.928,76.012 C328.825333,76.264 328.685333,76.4786667 328.508,76.656 C328.330667,76.8333333 328.123,76.971 327.885,77.069 C327.647,77.167 327.392667,77.216 327.122,77.216 C326.599333,77.216 326.158333,77.1133333 325.799,76.908 C325.439667,76.7026667 325.129333,76.4646667 324.868,76.194 L324.868,76.194 L324.308,76.95 C324.457333,77.1086667 324.627667,77.2603333 324.819,77.405 C325.010333,77.5496667 325.225,77.678 325.463,77.79 C325.701,77.902 325.967,77.993 326.261,78.063 C326.555,78.133 326.879333,78.168 327.234,78.168 Z M334.192,78.168 C334.584,78.168 334.959667,78.1003333 335.319,77.965 C335.678333,77.8296667 335.998,77.6336667 336.278,77.377 C336.558,77.1203333 336.782,76.8053333 336.95,76.432 C337.118,76.0586667 337.202,75.6293333 337.202,75.144 C337.202,74.6586667 337.129667,74.241 336.985,73.891 C336.840333,73.541 336.642,73.2516667 336.39,73.023 C336.138,72.7943333 335.844,72.624 335.508,72.512 C335.172,72.4 334.812667,72.344 334.43,72.344 C334.159333,72.344 333.916667,72.3766667 333.702,72.442 C333.487333,72.5073333 333.272667,72.596 333.058,72.708 L333.058,72.708 L333.296,70.062 L336.754,70.062 L336.754,69.068 L332.288,69.068 L331.994,73.366 L332.61,73.758 C332.880667,73.5806667 333.125667,73.4453333 333.345,73.352 C333.564333,73.2586667 333.828,73.212 334.136,73.212 C334.714667,73.212 335.176667,73.3846667 335.522,73.73 C335.867333,74.0753333 336.04,74.556 336.04,75.172 C336.04,75.48 335.988667,75.76 335.886,76.012 C335.783333,76.264 335.643333,76.4786667 335.466,76.656 C335.288667,76.8333333 335.081,76.971 334.843,77.069 C334.605,77.167 334.350667,77.216 334.08,77.216 C333.557333,77.216 333.116333,77.1133333 332.757,76.908 C332.397667,76.7026667 332.087333,76.4646667 331.826,76.194 L331.826,76.194 L331.266,76.95 C331.415333,77.1086667 331.585667,77.2603333 331.777,77.405 C331.968333,77.5496667 332.183,77.678 332.421,77.79 C332.659,77.902 332.925,77.993 333.219,78.063 C333.513,78.133 333.837333,78.168 334.192,78.168 Z M341.36,78.168 C342.256,78.168 342.956,77.7666667 343.46,76.964 C343.964,76.1613333 344.216,75.0086667 344.216,73.506 C344.216,72.0033333 343.964,70.86 343.46,70.076 C342.956,69.292 342.256,68.9 341.36,68.9 C340.454667,68.9 339.75,69.292 339.246,70.076 C338.742,70.86 338.49,72.0033333 338.49,73.506 C338.49,75.0086667 338.742,76.1613333 339.246,76.964 C339.75,77.7666667 340.454667,78.168 341.36,78.168 Z M341.36,77.244 C340.837333,77.244 340.415,76.9476667 340.093,76.355 C339.771,75.7623333 339.61,74.8126667 339.61,73.506 C339.61,72.8526667 339.652,72.2926667 339.736,71.826 C339.82,71.3593333 339.939,70.979 340.093,70.685 C340.247,70.391 340.431333,70.174 340.646,70.034 C340.860667,69.894 341.098667,69.824 341.36,69.824 C341.621333,69.824 341.857,69.894 342.067,70.034 C342.277,70.174 342.459,70.391 342.613,70.685 C342.767,70.979 342.886,71.3593333 342.97,71.826 C343.054,72.2926667 343.096,72.8526667 343.096,73.506 C343.096,74.1593333 343.054,74.7216667 342.97,75.193 C342.886,75.6643333 342.767,76.0516667 342.613,76.355 C342.459,76.6583333 342.277,76.8823333 342.067,77.027 C341.857,77.1716667 341.621333,77.244 341.36,77.244 Z M349.018,78 C349.531333,78 350.002667,77.944 350.432,77.832 C350.861333,77.72 351.23,77.552 351.538,77.328 C351.846,77.104 352.084,76.824 352.252,76.488 C352.42,76.152 352.504,75.76 352.504,75.312 C352.504,74.6773333 352.331333,74.178 351.986,73.814 C351.640667,73.45 351.188,73.2166667 350.628,73.114 L350.628,73.114 L350.628,73.058 C351.066667,72.918 351.400333,72.6636667 351.629,72.295 C351.857667,71.9263333 351.972,71.5133333 351.972,71.056 C351.972,70.6546667 351.895,70.3116667 351.741,70.027 C351.587,69.7423333 351.372333,69.5113333 351.097,69.334 C350.821667,69.1566667 350.490333,69.026 350.103,68.942 C349.715667,68.858 349.288667,68.816 348.822,68.816 L348.822,68.816 L346.092,68.816 L346.092,78 L349.018,78 Z M348.612,72.722 L347.254,72.722 L347.254,69.74 L348.668,69.74 C349.386667,69.74 349.925667,69.852 350.285,70.076 C350.644333,70.3 350.824,70.678 350.824,71.21 C350.824,71.6766667 350.651333,72.0453333 350.306,72.316 C349.960667,72.5866667 349.396,72.722 348.612,72.722 L348.612,72.722 Z M348.85,77.076 L347.254,77.076 L347.254,73.618 L348.85,73.618 C349.662,73.618 350.282667,73.751 350.712,74.017 C351.141333,74.283 351.356,74.7006667 351.356,75.27 C351.356,75.886 351.136667,76.341 350.698,76.635 C350.259333,76.929 349.643333,77.076 348.85,77.076 L348.85,77.076 Z" id="Unobligated$550B" fill="#666666" fill-rule="nonzero"></path>
                    <path d="M179,27 L179,31.6176471 C179,32.7222166 178.104569,33.6176471 177,33.6176471 L94,33.6176471 C92.8954305,33.6176471 92,34.5130776 92,35.6176471 L92,42 L92,42" id="Line-Copy-7" stroke="#C6C6C6" stroke-linecap="round" transform="translate(135.500000, 34.500000) scale(-1, 1) translate(-135.500000, -34.500000) "></path>
                    <path d="M344,27 L344,31.6176471 C344,32.7222166 343.104569,33.6176471 342,33.6176471 L194,33.6176471 C192.895431,33.6176471 192,34.5130776 192,35.6176471 L192,42 L192,42" id="Line-Copy-8" stroke="#C6C6C6" stroke-linecap="round" transform="translate(268.000000, 34.500000) scale(-1, 1) translate(-268.000000, -34.500000) "></path>
                    <line x1="4" y1="27" x2="4" y2="42" id="Line" stroke="#C6C6C6"></line>
                    <path d="M259.368,15.54 L259.368,14.084 C260.096,13.9253333 260.642,13.6056667 261.006,13.125 C261.37,12.6443333 261.552,12.068 261.552,11.396 C261.552,10.948 261.461,10.5723333 261.279,10.269 C261.097,9.96566667 260.868333,9.70666667 260.593,9.492 C260.317667,9.27733333 260.021333,9.09533333 259.704,8.946 C259.386667,8.79666667 259.090333,8.652 258.815,8.512 C258.539667,8.372 258.311,8.225 258.129,8.071 C257.947,7.917 257.856,7.728 257.856,7.504 C257.856,7.18666667 257.944667,6.958 258.122,6.818 C258.299333,6.678 258.556,6.608 258.892,6.608 C259.190667,6.608 259.456667,6.66633333 259.69,6.783 C259.923333,6.89966667 260.166,7.07466667 260.418,7.308 L260.418,7.308 L261.454,6.132 C261.183333,5.84266667 260.88,5.59533333 260.544,5.39 C260.208,5.18466667 259.816,5.04933333 259.368,4.984 L259.368,4.984 L259.368,3.57 L258.01,3.57 L258.01,5.012 C257.347333,5.14266667 256.827,5.43433333 256.449,5.887 C256.071,6.33966667 255.882,6.91133333 255.882,7.602 C255.882,8.022 255.973,8.37666667 256.155,8.666 C256.337,8.95533333 256.565667,9.20733333 256.841,9.422 C257.116333,9.63666667 257.412667,9.821 257.73,9.975 C258.047333,10.129 258.343667,10.283 258.619,10.437 C258.894333,10.591 259.123,10.752 259.305,10.92 C259.487,11.088 259.578,11.2933333 259.578,11.536 C259.578,11.8626667 259.487,12.1053333 259.305,12.264 C259.123,12.4226667 258.836,12.502 258.444,12.502 C258.108,12.502 257.779,12.4343333 257.457,12.299 C257.135,12.1636667 256.796667,11.9606667 256.442,11.69 L256.442,11.69 L255.546,13.076 C255.872667,13.3746667 256.262333,13.615 256.715,13.797 C257.167667,13.979 257.599333,14.0933333 258.01,14.14 L258.01,14.14 L258.01,15.54 L259.368,15.54 Z M266.074,14.168 C266.55,14.168 266.981667,14.105 267.369,13.979 C267.756333,13.853 268.087667,13.6803333 268.363,13.461 C268.638333,13.2416667 268.850667,12.9826667 269,12.684 C269.149333,12.3853333 269.224,12.0586667 269.224,11.704 C269.224,11.116 269.074667,10.64 268.776,10.276 C268.477333,9.912 268.113333,9.61333333 267.684,9.38 L267.684,9.38 L267.684,9.324 C267.992,9.11866667 268.262667,8.85033333 268.496,8.519 C268.729333,8.18766667 268.846,7.80733333 268.846,7.378 C268.846,7.014 268.780667,6.68033333 268.65,6.377 C268.519333,6.07366667 268.337333,5.817 268.104,5.607 C267.870667,5.397 267.586,5.23366667 267.25,5.117 C266.914,5.00033333 266.545333,4.942 266.144,4.942 C265.733333,4.942 265.353,4.998 265.003,5.11 C264.653,5.222 264.352,5.38533333 264.1,5.6 C263.848,5.81466667 263.652,6.07366667 263.512,6.377 C263.372,6.68033333 263.302,7.01866667 263.302,7.392 C263.302,7.868 263.414,8.27166667 263.638,8.603 C263.862,8.93433333 264.146667,9.23066667 264.492,9.492 L264.492,9.492 L264.492,9.548 C264.072,9.772 263.715,10.0566667 263.421,10.402 C263.127,10.7473333 262.98,11.1906667 262.98,11.732 C262.98,12.096 263.057,12.4273333 263.211,12.726 C263.365,13.0246667 263.579667,13.2813333 263.855,13.496 C264.130333,13.7106667 264.457,13.8763333 264.835,13.993 C265.213,14.1096667 265.626,14.168 266.074,14.168 Z M266.634,8.82 C266.176667,8.64266667 265.808,8.45133333 265.528,8.246 C265.248,8.04066667 265.108,7.756 265.108,7.392 C265.108,7.04666667 265.206,6.79 265.402,6.622 C265.598,6.454 265.831333,6.37 266.102,6.37 C266.438,6.37 266.701667,6.475 266.893,6.685 C267.084333,6.895 267.18,7.17266667 267.18,7.518 C267.18,7.966 266.998,8.4 266.634,8.82 Z M266.116,12.74 C265.742667,12.74 265.420667,12.6303333 265.15,12.411 C264.879333,12.1916667 264.744,11.886 264.744,11.494 C264.744,11.2233333 264.809333,10.9666667 264.94,10.724 C265.070667,10.4813333 265.234,10.2666667 265.43,10.08 C265.71,10.2013333 265.964333,10.3133333 266.193,10.416 C266.421667,10.5186667 266.62,10.6283333 266.788,10.745 C266.956,10.8616667 267.084333,10.99 267.173,11.13 C267.261667,11.27 267.306,11.438 267.306,11.634 C267.306,12.0073333 267.194,12.285 266.97,12.467 C266.746,12.649 266.461333,12.74 266.116,12.74 Z M272.99,14.168 C273.456667,14.168 273.907,14.0723333 274.341,13.881 C274.775,13.6896667 275.157667,13.398 275.489,13.006 C275.820333,12.614 276.086333,12.1146667 276.287,11.508 C276.487667,10.9013333 276.588,10.1826667 276.588,9.352 C276.588,8.568 276.492333,7.89833333 276.301,7.343 C276.109667,6.78766667 275.857667,6.33266667 275.545,5.978 C275.232333,5.62333333 274.873,5.362 274.467,5.194 C274.061,5.026 273.643333,4.942 273.214,4.942 C272.812667,4.942 272.432333,5.00966667 272.073,5.145 C271.713667,5.28033333 271.401,5.47866667 271.135,5.74 C270.869,6.00133333 270.656667,6.31633333 270.498,6.685 C270.339333,7.05366667 270.26,7.46666667 270.26,7.924 C270.26,8.39066667 270.327667,8.79666667 270.463,9.142 C270.598333,9.48733333 270.782667,9.772 271.016,9.996 C271.249333,10.22 271.527,10.388 271.849,10.5 C272.171,10.612 272.523333,10.668 272.906,10.668 C273.046,10.668 273.195333,10.647 273.354,10.605 C273.512667,10.563 273.671333,10.5023333 273.83,10.423 C273.988667,10.3436667 274.142667,10.2456667 274.292,10.129 C274.441333,10.0123333 274.572,9.87933333 274.684,9.73 C274.665333,10.2526667 274.607,10.689 274.509,11.039 C274.411,11.389 274.280333,11.6736667 274.117,11.893 C273.953667,12.1123333 273.764667,12.2686667 273.55,12.362 C273.335333,12.4553333 273.102,12.502 272.85,12.502 C272.588667,12.502 272.332,12.439 272.08,12.313 C271.828,12.187 271.627333,12.04 271.478,11.872 L271.478,11.872 L270.386,13.104 C270.666,13.384 271.023,13.6313333 271.457,13.846 C271.891,14.0606667 272.402,14.168 272.99,14.168 Z M273.312,9.212 C272.976,9.212 272.696,9.11633333 272.472,8.925 C272.248,8.73366667 272.136,8.4 272.136,7.924 C272.136,7.42 272.248,7.05366667 272.472,6.825 C272.696,6.59633333 272.957333,6.482 273.256,6.482 C273.573333,6.482 273.860333,6.615 274.117,6.881 C274.373667,7.147 274.548667,7.63 274.642,8.33 C274.464667,8.64733333 274.257,8.87366667 274.019,9.009 C273.781,9.14433333 273.545333,9.212 273.312,9.212 Z M280.858,14.168 C281.334,14.168 281.765667,14.105 282.153,13.979 C282.540333,13.853 282.871667,13.6803333 283.147,13.461 C283.422333,13.2416667 283.634667,12.9826667 283.784,12.684 C283.933333,12.3853333 284.008,12.0586667 284.008,11.704 C284.008,11.116 283.858667,10.64 283.56,10.276 C283.261333,9.912 282.897333,9.61333333 282.468,9.38 L282.468,9.38 L282.468,9.324 C282.776,9.11866667 283.046667,8.85033333 283.28,8.519 C283.513333,8.18766667 283.63,7.80733333 283.63,7.378 C283.63,7.014 283.564667,6.68033333 283.434,6.377 C283.303333,6.07366667 283.121333,5.817 282.888,5.607 C282.654667,5.397 282.37,5.23366667 282.034,5.117 C281.698,5.00033333 281.329333,4.942 280.928,4.942 C280.517333,4.942 280.137,4.998 279.787,5.11 C279.437,5.222 279.136,5.38533333 278.884,5.6 C278.632,5.81466667 278.436,6.07366667 278.296,6.377 C278.156,6.68033333 278.086,7.01866667 278.086,7.392 C278.086,7.868 278.198,8.27166667 278.422,8.603 C278.646,8.93433333 278.930667,9.23066667 279.276,9.492 L279.276,9.492 L279.276,9.548 C278.856,9.772 278.499,10.0566667 278.205,10.402 C277.911,10.7473333 277.764,11.1906667 277.764,11.732 C277.764,12.096 277.841,12.4273333 277.995,12.726 C278.149,13.0246667 278.363667,13.2813333 278.639,13.496 C278.914333,13.7106667 279.241,13.8763333 279.619,13.993 C279.997,14.1096667 280.41,14.168 280.858,14.168 Z M281.418,8.82 C280.960667,8.64266667 280.592,8.45133333 280.312,8.246 C280.032,8.04066667 279.892,7.756 279.892,7.392 C279.892,7.04666667 279.99,6.79 280.186,6.622 C280.382,6.454 280.615333,6.37 280.886,6.37 C281.222,6.37 281.485667,6.475 281.677,6.685 C281.868333,6.895 281.964,7.17266667 281.964,7.518 C281.964,7.966 281.782,8.4 281.418,8.82 Z M280.9,12.74 C280.526667,12.74 280.204667,12.6303333 279.934,12.411 C279.663333,12.1916667 279.528,11.886 279.528,11.494 C279.528,11.2233333 279.593333,10.9666667 279.724,10.724 C279.854667,10.4813333 280.018,10.2666667 280.214,10.08 C280.494,10.2013333 280.748333,10.3133333 280.977,10.416 C281.205667,10.5186667 281.404,10.6283333 281.572,10.745 C281.74,10.8616667 281.868333,10.99 281.957,11.13 C282.045667,11.27 282.09,11.438 282.09,11.634 C282.09,12.0073333 281.978,12.285 281.754,12.467 C281.53,12.649 281.245333,12.74 280.9,12.74 Z M289.034,14 C289.528667,14 289.990667,13.9463333 290.42,13.839 C290.849333,13.7316667 291.225,13.5683333 291.547,13.349 C291.869,13.1296667 292.121,12.852 292.303,12.516 C292.485,12.18 292.576,11.7786667 292.576,11.312 C292.576,11.004 292.534,10.731 292.45,10.493 C292.366,10.255 292.249333,10.0473333 292.1,9.87 C291.950667,9.69266667 291.778,9.54566667 291.582,9.429 C291.386,9.31233333 291.171333,9.226 290.938,9.17 L290.938,9.17 L290.938,9.114 C291.124667,9.04866667 291.290333,8.946 291.435,8.806 C291.579667,8.666 291.703333,8.50733333 291.806,8.33 C291.908667,8.15266667 291.988,7.96133333 292.044,7.756 C292.1,7.55066667 292.128,7.34533333 292.128,7.14 C292.128,6.70133333 292.041667,6.33733333 291.869,6.048 C291.696333,5.75866667 291.458333,5.52533333 291.155,5.348 C290.851667,5.17066667 290.497,5.047 290.091,4.977 C289.685,4.907 289.244,4.872 288.768,4.872 L288.768,4.872 L285.646,4.872 L285.646,14 L289.034,14 Z M288.67,8.526 L287.704,8.526 L287.704,6.468 L288.684,6.468 C289.169333,6.468 289.528667,6.54266667 289.762,6.692 C289.995333,6.84133333 290.112,7.09333333 290.112,7.448 C290.112,7.77466667 289.997667,8.036 289.769,8.232 C289.540333,8.428 289.174,8.526 288.67,8.526 L288.67,8.526 Z M288.866,12.404 L287.704,12.404 L287.704,10.052 L288.866,10.052 C289.435333,10.052 289.86,10.1383333 290.14,10.311 C290.42,10.4836667 290.56,10.7706667 290.56,11.172 C290.56,11.9933333 289.995333,12.404 288.866,12.404 L288.866,12.404 Z" id="$898B" fill="#555555" fill-rule="nonzero"></path>
                </g>
                <g id="Group-7">
                    <rect id="outlays" fill="#331E4D" x="0" y="0" width="66" height="31"></rect>
                    <rect id="unobligated" fill="#F3E9FF" x="137" y="0" width="111" height="31"></rect>
                    <rect id="obligated" fill="#6F41A7" x="66" y="0" width="71" height="31"></rect>
                </g>
            </g>
        </g>
    </g>
</svg>