<?xml version="1.0" encoding="UTF-8"?>
<svg width="472px" height="85px" viewBox="0 0 472 85" version="1.1" xmlns="http://www.w3.org/2000/svg" xmlns:xlink="http://www.w3.org/1999/xlink">
    <title>Law 3 - A General</title>
    <g id="SVG-2.0" stroke="none" stroke-width="1" fill="none" fill-rule="evenodd">
        <g id="viz-3-desktop-outline" transform="translate(-146.000000, -1237.000000)">
            <g id="Law-3---A-General" transform="translate(146.000000, 1237.000000)">
                <g id="bar---phase-3-general" transform="translate(0.000000, 6.000000)">
                    <path d="M4.718,59.168 C5.31533333,59.168 5.86133333,59.0583333 6.356,58.839 C6.85066667,58.6196667 7.27766667,58.3023333 7.637,57.887 C7.99633333,57.4716667 8.274,56.97 8.47,56.382 C8.666,55.794 8.764,55.1266667 8.764,54.38 C8.764,53.6426667 8.666,52.9823333 8.47,52.399 C8.274,51.8156667 7.99633333,51.3233333 7.637,50.922 C7.27766667,50.5206667 6.85066667,50.2126667 6.356,49.998 C5.86133333,49.7833333 5.31533333,49.676 4.718,49.676 C4.12066667,49.676 3.57466667,49.7833333 3.08,49.998 C2.58533333,50.2126667 2.16066667,50.5206667 1.806,50.922 C1.45133333,51.3233333 1.176,51.8156667 0.98,52.399 C0.784,52.9823333 0.686,53.6426667 0.686,54.38 C0.686,55.1266667 0.784,55.794 0.98,56.382 C1.176,56.97 1.45133333,57.4716667 1.806,57.887 C2.16066667,58.3023333 2.58533333,58.6196667 3.08,58.839 C3.57466667,59.0583333 4.12066667,59.168 4.718,59.168 Z M4.718,57.754 C4.354,57.754 4.02733333,57.6746667 3.738,57.516 C3.44866667,57.3573333 3.20133333,57.131 2.996,56.837 C2.79066667,56.543 2.632,56.1883333 2.52,55.773 C2.408,55.3576667 2.352,54.8933333 2.352,54.38 C2.352,53.3533333 2.56433333,52.5483333 2.989,51.965 C3.41366667,51.3816667 3.99,51.09 4.718,51.09 C5.446,51.09 6.02233333,51.3816667 6.447,51.965 C6.87166667,52.5483333 7.084,53.3533333 7.084,54.38 C7.084,54.8933333 7.028,55.3576667 6.916,55.773 C6.804,56.1883333 6.64533333,56.543 6.44,56.837 C6.23466667,57.131 5.98733333,57.3573333 5.698,57.516 C5.40866667,57.6746667 5.082,57.754 4.718,57.754 Z M12.502,59.168 C12.978,59.168 13.391,59.0606667 13.741,58.846 C14.091,58.6313333 14.4153333,58.3466667 14.714,57.992 L14.714,57.992 L14.756,57.992 L14.882,59 L16.198,59 L16.198,52.126 L14.588,52.126 L14.588,56.83 C14.3266667,57.166 14.0816667,57.4086667 13.853,57.558 C13.6243333,57.7073333 13.3606667,57.782 13.062,57.782 C12.6886667,57.782 12.418,57.6653333 12.25,57.432 C12.082,57.1986667 11.998,56.7973333 11.998,56.228 L11.998,56.228 L11.998,52.126 L10.388,52.126 L10.388,56.438 C10.388,57.3153333 10.556,57.9896667 10.892,58.461 C11.228,58.9323333 11.7646667,59.168 12.502,59.168 Z M20.664,59.168 C20.9346667,59.168 21.189,59.1423333 21.427,59.091 C21.665,59.0396667 21.8773333,58.9813333 22.064,58.916 L22.064,58.916 L21.784,57.726 C21.6813333,57.7726667 21.567,57.81 21.441,57.838 C21.315,57.866 21.1913333,57.88 21.07,57.88 C20.426,57.88 20.104,57.4786667 20.104,56.676 L20.104,56.676 L20.104,53.4 L21.854,53.4 L21.854,52.126 L20.104,52.126 L20.104,50.25 L18.76,50.25 L18.564,52.126 L17.5,52.196 L17.5,53.4 L18.48,53.4 L18.48,56.676 C18.48,57.0493333 18.5196667,57.3876667 18.599,57.691 C18.6783333,57.9943333 18.8043333,58.2556667 18.977,58.475 C19.1496667,58.6943333 19.3736667,58.8646667 19.649,58.986 C19.9243333,59.1073333 20.2626667,59.168 20.664,59.168 Z M24.864,59.168 C25.2186667,59.168 25.5033333,59.1213333 25.718,59.028 L25.718,59.028 L25.508,57.824 C25.4426667,57.8426667 25.3936667,57.852 25.361,57.852 L25.361,57.852 L25.256,57.852 C25.172,57.852 25.0926667,57.8123333 25.018,57.733 C24.9433333,57.6536667 24.906,57.516 24.906,57.32 L24.906,57.32 L24.906,49.116 L23.296,49.116 L23.296,57.236 C23.296,57.8333333 23.4126667,58.3046667 23.646,58.65 C23.8793333,58.9953333 24.2853333,59.168 24.864,59.168 Z M28.756,59.168 C29.1666667,59.168 29.547,59.0793333 29.897,58.902 C30.247,58.7246667 30.576,58.5053333 30.884,58.244 L30.884,58.244 L30.94,58.244 L31.052,59 L32.382,59 L32.382,54.926 C32.382,53.9646667 32.1696667,53.2296667 31.745,52.721 C31.3203333,52.2123333 30.6786667,51.958 29.82,51.958 C29.2693333,51.958 28.756,52.0466667 28.28,52.224 C27.804,52.4013333 27.3746667,52.6113333 26.992,52.854 L26.992,52.854 L27.58,53.932 C27.888,53.7453333 28.203,53.5866667 28.525,53.456 C28.847,53.3253333 29.176,53.26 29.512,53.26 C29.7453333,53.26 29.9413333,53.295 30.1,53.365 C30.2586667,53.435 30.387,53.533 30.485,53.659 C30.583,53.785 30.653,53.9296667 30.695,54.093 C30.737,54.2563333 30.7626667,54.4266667 30.772,54.604 C30.0626667,54.6786667 29.4536667,54.786 28.945,54.926 C28.4363333,55.066 28.0163333,55.2386667 27.685,55.444 C27.3536667,55.6493333 27.111,55.8943333 26.957,56.179 C26.803,56.4636667 26.726,56.788 26.726,57.152 C26.726,57.7586667 26.9126667,58.2463333 27.286,58.615 C27.6593333,58.9836667 28.1493333,59.168 28.756,59.168 Z M29.274,57.908 C28.9846667,57.908 28.7466667,57.838 28.56,57.698 C28.3733333,57.558 28.28,57.334 28.28,57.026 C28.28,56.858 28.322,56.6993333 28.406,56.55 C28.49,56.4006667 28.63,56.2676667 28.826,56.151 C29.022,56.0343333 29.2786667,55.9293333 29.596,55.836 C29.9133333,55.7426667 30.3053333,55.668 30.772,55.612 L30.772,55.612 L30.772,57.152 C30.5106667,57.3946667 30.2656667,57.5813333 30.037,57.712 C29.8083333,57.8426667 29.554,57.908 29.274,57.908 Z M34.776,61.828 C35.1493333,61.828 35.4783333,61.7696667 35.763,61.653 C36.0476667,61.5363333 36.2996667,61.3683333 36.519,61.149 C36.7383333,60.9296667 36.932,60.666 37.1,60.358 C37.268,60.05 37.422,59.7 37.562,59.308 L37.562,59.308 L40.054,52.126 L38.5,52.126 L37.464,55.5 C37.38,55.808 37.2936667,56.1276667 37.205,56.459 C37.1163333,56.7903333 37.03,57.1146667 36.946,57.432 L36.946,57.432 L36.89,57.432 C36.7873333,57.1053333 36.687,56.7763333 36.589,56.445 C36.491,56.1136667 36.3906667,55.7986667 36.288,55.5 L36.288,55.5 L35.098,52.126 L33.46,52.126 L36.162,58.916 L36.036,59.35 C35.924,59.6953333 35.7583333,59.9776667 35.539,60.197 C35.3196667,60.4163333 35.028,60.526 34.664,60.526 C34.58,60.526 34.4936667,60.5143333 34.405,60.491 C34.3163333,60.4676667 34.2393333,60.4466667 34.174,60.428 L34.174,60.428 L33.88,61.688 C34.0106667,61.7346667 34.146,61.7696667 34.286,61.793 C34.426,61.8163333 34.5893333,61.828 34.776,61.828 Z M43.162,59.168 C43.5913333,59.168 43.974,59.112 44.31,59 C44.646,58.888 44.926,58.7363333 45.15,58.545 C45.374,58.3536667 45.5443333,58.1296667 45.661,57.873 C45.7776667,57.6163333 45.836,57.3386667 45.836,57.04 C45.836,56.7226667 45.7776667,56.4496667 45.661,56.221 C45.5443333,55.9923333 45.3903333,55.7986667 45.199,55.64 C45.0076667,55.4813333 44.7953333,55.3483333 44.562,55.241 C44.3286667,55.1336667 44.0953333,55.038 43.862,54.954 C43.6753333,54.8886667 43.4956667,54.8233333 43.323,54.758 C43.1503333,54.6926667 42.9986667,54.6226667 42.868,54.548 C42.7373333,54.4733333 42.6323333,54.387 42.553,54.289 C42.4736667,54.191 42.434,54.072 42.434,53.932 C42.434,53.7173333 42.5156667,53.5376667 42.679,53.393 C42.8423333,53.2483333 43.0966667,53.176 43.442,53.176 C43.7126667,53.176 43.9716667,53.2296667 44.219,53.337 C44.4663333,53.4443333 44.7113333,53.5866667 44.954,53.764 L44.954,53.764 L45.696,52.784 C45.416,52.5693333 45.0846667,52.378 44.702,52.21 C44.3193333,52.042 43.89,51.958 43.414,51.958 C42.6393333,51.958 42.028,52.1493333 41.58,52.532 C41.132,52.9146667 40.908,53.4093333 40.908,54.016 C40.908,54.3053333 40.9663333,54.555 41.083,54.765 C41.1996667,54.975 41.349,55.1593333 41.531,55.318 C41.713,55.4766667 41.9206667,55.612 42.154,55.724 C42.3873333,55.836 42.616,55.934 42.84,56.018 C43.0173333,56.0926667 43.1946667,56.165 43.372,56.235 C43.5493333,56.305 43.708,56.382 43.848,56.466 C43.988,56.55 44.1,56.6456667 44.184,56.753 C44.268,56.8603333 44.31,56.984 44.31,57.124 C44.31,57.3666667 44.2213333,57.565 44.044,57.719 C43.8666667,57.873 43.5913333,57.95 43.218,57.95 C42.8633333,57.95 42.5343333,57.8823333 42.231,57.747 C41.9276667,57.6116667 41.622,57.4226667 41.314,57.18 L41.314,57.18 L40.558,58.216 C40.894,58.4866667 41.293,58.713 41.755,58.895 C42.217,59.077 42.686,59.168 43.162,59.168 Z M3.948,78.54 L3.948,77.126 C4.62,77.0326667 5.14966667,76.7713333 5.537,76.342 C5.92433333,75.9126667 6.118,75.362 6.118,74.69 C6.118,74.186 6.02233333,73.773 5.831,73.451 C5.63966667,73.129 5.39933333,72.8583333 5.11,72.639 C4.82066667,72.4196667 4.50566667,72.233 4.165,72.079 C3.82433333,71.925 3.50933333,71.7663333 3.22,71.603 C2.93066667,71.4396667 2.69033333,71.2506667 2.499,71.036 C2.30766667,70.8213333 2.212,70.546 2.212,70.21 C2.212,69.7993333 2.338,69.4726667 2.59,69.23 C2.842,68.9873333 3.18266667,68.866 3.612,68.866 C3.99466667,68.866 4.30966667,68.936 4.557,69.076 C4.80433333,69.216 5.05866667,69.412 5.32,69.664 L5.32,69.664 L5.936,68.978 C5.684,68.7073333 5.40166667,68.474 5.089,68.278 C4.77633333,68.082 4.396,67.9606667 3.948,67.914 L3.948,67.914 L3.948,66.528 L3.108,66.528 L3.108,67.942 C2.492,68.0353333 1.99966667,68.2896667 1.631,68.705 C1.26233333,69.1203333 1.078,69.6406667 1.078,70.266 C1.078,70.7233333 1.17366667,71.099 1.365,71.393 C1.55633333,71.687 1.79666667,71.9366667 2.086,72.142 C2.37533333,72.3473333 2.69033333,72.5293333 3.031,72.688 C3.37166667,72.8466667 3.68666667,73.017 3.976,73.199 C4.26533333,73.381 4.50566667,73.5956667 4.697,73.843 C4.88833333,74.0903333 4.984,74.4006667 4.984,74.774 C4.984,75.2126667 4.85566667,75.5626667 4.599,75.824 C4.34233333,76.0853333 3.95266667,76.216 3.43,76.216 C3.00066667,76.216 2.60633333,76.125 2.247,75.943 C1.88766667,75.761 1.55866667,75.5393333 1.26,75.278 L1.26,75.278 L0.728,76.076 C1.02666667,76.3466667 1.386,76.5823333 1.806,76.783 C2.226,76.9836667 2.66,77.1073333 3.108,77.154 L3.108,77.154 L3.108,78.54 L3.948,78.54 Z M9.828,77.168 C10.276,77.168 10.703,77.077 11.109,76.895 C11.515,76.713 11.8766667,76.4236667 12.194,76.027 C12.5113333,75.6303333 12.7633333,75.117 12.95,74.487 C13.1366667,73.857 13.23,73.094 13.23,72.198 C13.23,71.4793333 13.153,70.8516667 12.999,70.315 C12.845,69.7783333 12.6303333,69.3303333 12.355,68.971 C12.0796667,68.6116667 11.753,68.3433333 11.375,68.166 C10.997,67.9886667 10.5886667,67.9 10.15,67.9 C9.79533333,67.9 9.457,67.97 9.135,68.11 C8.813,68.25 8.533,68.446 8.295,68.698 C8.057,68.95 7.868,69.251 7.728,69.601 C7.588,69.951 7.518,70.3406667 7.518,70.77 C7.518,71.694 7.74666667,72.3846667 8.204,72.842 C8.66133333,73.2993333 9.27733333,73.528 10.052,73.528 C10.4253333,73.528 10.7986667,73.4253333 11.172,73.22 C11.5453333,73.0146667 11.872,72.7346667 12.152,72.38 C12.1426667,73.0986667 12.0726667,73.7006667 11.942,74.186 C11.8113333,74.6713333 11.6386667,75.0656667 11.424,75.369 C11.2093333,75.6723333 10.962,75.8893333 10.682,76.02 C10.402,76.1506667 10.1033333,76.216 9.786,76.216 C9.506,76.216 9.23766667,76.1506667 8.981,76.02 C8.72433333,75.8893333 8.50266667,75.7166667 8.316,75.502 L8.316,75.502 L7.672,76.23 C7.91466667,76.5006667 8.21566667,76.7246667 8.575,76.902 C8.93433333,77.0793333 9.352,77.168 9.828,77.168 Z M10.248,72.66 C9.688,72.66 9.27266667,72.492 9.002,72.156 C8.73133333,71.82 8.596,71.358 8.596,70.77 C8.596,70.4806667 8.63566667,70.2146667 8.715,69.972 C8.79433333,69.7293333 8.904,69.5216667 9.044,69.349 C9.184,69.1763333 9.34966667,69.0433333 9.541,68.95 C9.73233333,68.8566667 9.93533333,68.81 10.15,68.81 C10.7193333,68.81 11.172,69.034 11.508,69.482 C11.844,69.93 12.0493333,70.5926667 12.124,71.47 C11.8346667,71.89 11.5243333,72.1933333 11.193,72.38 C10.8616667,72.5666667 10.5466667,72.66 10.248,72.66 Z M20.062,77 L20.062,76.048 L18.214,76.048 L18.214,68.068 L17.332,68.068 C17.0893333,68.2173333 16.8163333,68.3456667 16.513,68.453 C16.2096667,68.5603333 15.8526667,68.6513333 15.442,68.726 L15.442,68.726 L15.442,69.468 L17.066,69.468 L17.066,76.048 L15.022,76.048 L15.022,77 L20.062,77 Z M24.626,77.168 C24.99,77.168 25.3306667,77.098 25.648,76.958 C25.9653333,76.818 26.2453333,76.622 26.488,76.37 C26.7306667,76.118 26.922,75.817 27.062,75.467 C27.202,75.117 27.272,74.7273333 27.272,74.298 C27.272,73.374 27.041,72.6833333 26.579,72.226 C26.117,71.7686667 25.4986667,71.54 24.724,71.54 C24.36,71.54 23.9913333,71.6403333 23.618,71.841 C23.2446667,72.0416667 22.918,72.3146667 22.638,72.66 C22.6473333,71.9506667 22.7173333,71.3556667 22.848,70.875 C22.9786667,70.3943333 23.1513333,70.0046667 23.366,69.706 C23.5806667,69.4073333 23.828,69.1926667 24.108,69.062 C24.388,68.9313333 24.682,68.866 24.99,68.866 C25.27,68.866 25.5383333,68.929 25.795,69.055 C26.0516667,69.181 26.2733333,69.3513333 26.46,69.566 L26.46,69.566 L27.104,68.852 C26.852,68.5813333 26.551,68.355 26.201,68.173 C25.851,67.991 25.4333333,67.9 24.948,67.9 C24.5,67.9 24.073,67.991 23.667,68.173 C23.261,68.355 22.8993333,68.6443333 22.582,69.041 C22.2646667,69.4376667 22.0126667,69.951 21.826,70.581 C21.6393333,71.211 21.546,71.974 21.546,72.87 C21.546,73.5886667 21.6253333,74.2163333 21.784,74.753 C21.9426667,75.2896667 22.1596667,75.7376667 22.435,76.097 C22.7103333,76.4563333 23.0346667,76.7246667 23.408,76.902 C23.7813333,77.0793333 24.1873333,77.168 24.626,77.168 Z M24.626,76.258 C24.0566667,76.258 23.6063333,76.0316667 23.275,75.579 C22.9436667,75.1263333 22.7406667,74.4613333 22.666,73.584 C22.946,73.164 23.254,72.863 23.59,72.681 C23.926,72.499 24.2386667,72.408 24.528,72.408 C25.088,72.408 25.5033333,72.576 25.774,72.912 C26.0446667,73.248 26.18,73.71 26.18,74.298 C26.18,74.5966667 26.1403333,74.865 26.061,75.103 C25.9816667,75.341 25.872,75.5463333 25.732,75.719 C25.592,75.8916667 25.4286667,76.0246667 25.242,76.118 C25.0553333,76.2113333 24.85,76.258 24.626,76.258 Z M32.018,77 C32.5313333,77 33.0026667,76.944 33.432,76.832 C33.8613333,76.72 34.23,76.552 34.538,76.328 C34.846,76.104 35.084,75.824 35.252,75.488 C35.42,75.152 35.504,74.76 35.504,74.312 C35.504,73.6773333 35.3313333,73.178 34.986,72.814 C34.6406667,72.45 34.188,72.2166667 33.628,72.114 L33.628,72.114 L33.628,72.058 C34.0666667,71.918 34.4003333,71.6636667 34.629,71.295 C34.8576667,70.9263333 34.972,70.5133333 34.972,70.056 C34.972,69.6546667 34.895,69.3116667 34.741,69.027 C34.587,68.7423333 34.3723333,68.5113333 34.097,68.334 C33.8216667,68.1566667 33.4903333,68.026 33.103,67.942 C32.7156667,67.858 32.2886667,67.816 31.822,67.816 L31.822,67.816 L29.092,67.816 L29.092,77 L32.018,77 Z M31.612,71.722 L30.254,71.722 L30.254,68.74 L31.668,68.74 C32.3866667,68.74 32.9256667,68.852 33.285,69.076 C33.6443333,69.3 33.824,69.678 33.824,70.21 C33.824,70.6766667 33.6513333,71.0453333 33.306,71.316 C32.9606667,71.5866667 32.396,71.722 31.612,71.722 L31.612,71.722 Z M31.85,76.076 L30.254,76.076 L30.254,72.618 L31.85,72.618 C32.662,72.618 33.2826667,72.751 33.712,73.017 C34.1413333,73.283 34.356,73.7006667 34.356,74.27 C34.356,74.886 34.1366667,75.341 33.698,75.635 C33.2593333,75.929 32.6433333,76.076 31.85,76.076 L31.85,76.076 Z" id="Outlays$916B" fill="#666666" fill-rule="nonzero"></path>
                    <path d="M258.718,59.168 C259.315333,59.168 259.861333,59.0583333 260.356,58.839 C260.850667,58.6196667 261.277667,58.3023333 261.637,57.887 C261.996333,57.4716667 262.274,56.97 262.47,56.382 C262.666,55.794 262.764,55.1266667 262.764,54.38 C262.764,53.6426667 262.666,52.9823333 262.47,52.399 C262.274,51.8156667 261.996333,51.3233333 261.637,50.922 C261.277667,50.5206667 260.850667,50.2126667 260.356,49.998 C259.861333,49.7833333 259.315333,49.676 258.718,49.676 C258.120667,49.676 257.574667,49.7833333 257.08,49.998 C256.585333,50.2126667 256.160667,50.5206667 255.806,50.922 C255.451333,51.3233333 255.176,51.8156667 254.98,52.399 C254.784,52.9823333 254.686,53.6426667 254.686,54.38 C254.686,55.1266667 254.784,55.794 254.98,56.382 C255.176,56.97 255.451333,57.4716667 255.806,57.887 C256.160667,58.3023333 256.585333,58.6196667 257.08,58.839 C257.574667,59.0583333 258.120667,59.168 258.718,59.168 Z M258.718,57.754 C258.354,57.754 258.027333,57.6746667 257.738,57.516 C257.448667,57.3573333 257.201333,57.131 256.996,56.837 C256.790667,56.543 256.632,56.1883333 256.52,55.773 C256.408,55.3576667 256.352,54.8933333 256.352,54.38 C256.352,53.3533333 256.564333,52.5483333 256.989,51.965 C257.413667,51.3816667 257.99,51.09 258.718,51.09 C259.446,51.09 260.022333,51.3816667 260.447,51.965 C260.871667,52.5483333 261.084,53.3533333 261.084,54.38 C261.084,54.8933333 261.028,55.3576667 260.916,55.773 C260.804,56.1883333 260.645333,56.543 260.44,56.837 C260.234667,57.131 259.987333,57.3573333 259.698,57.516 C259.408667,57.6746667 259.082,57.754 258.718,57.754 Z M267.79,59.168 C268.172667,59.168 268.541333,59.084 268.896,58.916 C269.250667,58.748 269.563333,58.5053333 269.834,58.188 C270.104667,57.8706667 270.321667,57.481 270.485,57.019 C270.648333,56.557 270.73,56.032 270.73,55.444 C270.73,54.912 270.669333,54.4313333 270.548,54.002 C270.426667,53.5726667 270.249333,53.2063333 270.016,52.903 C269.782667,52.5996667 269.498,52.3663333 269.162,52.203 C268.826,52.0396667 268.443333,51.958 268.014,51.958 C267.659333,51.958 267.311667,52.0373333 266.971,52.196 C266.630333,52.3546667 266.315333,52.56 266.026,52.812 L266.026,52.812 L266.068,51.664 L266.068,49.116 L264.458,49.116 L264.458,59 L265.732,59 L265.872,58.272 L265.914,58.272 C266.203333,58.5613333 266.509,58.783 266.831,58.937 C267.153,59.091 267.472667,59.168 267.79,59.168 Z M267.454,57.838 C267.248667,57.838 267.027,57.796 266.789,57.712 C266.551,57.628 266.310667,57.4786667 266.068,57.264 L266.068,57.264 L266.068,54.058 C266.590667,53.5446667 267.094667,53.288 267.58,53.288 C268.102667,53.288 268.480667,53.4793333 268.714,53.862 C268.947333,54.2446667 269.064,54.7813333 269.064,55.472 C269.064,56.256 268.91,56.8463333 268.602,57.243 C268.294,57.6396667 267.911333,57.838 267.454,57.838 Z M273.908,59.168 C274.262667,59.168 274.547333,59.1213333 274.762,59.028 L274.762,59.028 L274.552,57.824 C274.486667,57.8426667 274.437667,57.852 274.405,57.852 L274.405,57.852 L274.3,57.852 C274.216,57.852 274.136667,57.8123333 274.062,57.733 C273.987333,57.6536667 273.95,57.516 273.95,57.32 L273.95,57.32 L273.95,49.116 L272.34,49.116 L272.34,57.236 C272.34,57.8333333 272.456667,58.3046667 272.69,58.65 C272.923333,58.9953333 273.329333,59.168 273.908,59.168 Z M276.946,50.922 C277.235333,50.922 277.473333,50.838 277.66,50.67 C277.846667,50.502 277.94,50.2826667 277.94,50.012 C277.94,49.7413333 277.846667,49.5196667 277.66,49.347 C277.473333,49.1743333 277.235333,49.088 276.946,49.088 C276.656667,49.088 276.418667,49.1743333 276.232,49.347 C276.045333,49.5196667 275.952,49.7413333 275.952,50.012 C275.952,50.2826667 276.045333,50.502 276.232,50.67 C276.418667,50.838 276.656667,50.922 276.946,50.922 Z M277.744,59 L277.744,52.126 L276.134,52.126 L276.134,59 L277.744,59 Z M282.196,62.038 C282.756,62.038 283.262333,61.975 283.715,61.849 C284.167667,61.723 284.552667,61.5526667 284.87,61.338 C285.187333,61.1233333 285.432333,60.8666667 285.605,60.568 C285.777667,60.2693333 285.864,59.952 285.864,59.616 C285.864,59.0186667 285.651667,58.587 285.227,58.321 C284.802333,58.055 284.174667,57.922 283.344,57.922 L283.344,57.922 L282.126,57.922 C281.706,57.922 281.414333,57.866 281.251,57.754 C281.087667,57.642 281.006,57.488 281.006,57.292 C281.006,57.1333333 281.036333,57.0073333 281.097,56.914 C281.157667,56.8206667 281.239333,56.7273333 281.342,56.634 C281.500667,56.6993333 281.659333,56.746 281.818,56.774 C281.976667,56.802 282.130667,56.816 282.28,56.816 C282.644,56.816 282.984667,56.7646667 283.302,56.662 C283.619333,56.5593333 283.894667,56.41 284.128,56.214 C284.361333,56.018 284.545667,55.7753333 284.681,55.486 C284.816333,55.1966667 284.884,54.8606667 284.884,54.478 C284.884,54.2353333 284.846667,54.0136667 284.772,53.813 C284.697333,53.6123333 284.604,53.4466667 284.492,53.316 L284.492,53.316 L285.752,53.316 L285.752,52.126 L283.288,52.126 C283.148,52.0793333 282.991667,52.0396667 282.819,52.007 C282.646333,51.9743333 282.466667,51.958 282.28,51.958 C281.916,51.958 281.570667,52.0116667 281.244,52.119 C280.917333,52.2263333 280.630333,52.385 280.383,52.595 C280.135667,52.805 279.937333,53.064 279.788,53.372 C279.638667,53.68 279.564,54.03 279.564,54.422 C279.564,54.8326667 279.655,55.1943333 279.837,55.507 C280.019,55.8196667 280.226667,56.0646667 280.46,56.242 L280.46,56.242 L280.46,56.298 C280.264,56.438 280.089,56.6176667 279.935,56.837 C279.781,57.0563333 279.704,57.3013333 279.704,57.572 C279.704,57.852 279.762333,58.0853333 279.879,58.272 C279.995667,58.4586667 280.142667,58.608 280.32,58.72 L280.32,58.72 L280.32,58.776 C280.002667,58.972 279.76,59.1936667 279.592,59.441 C279.424,59.6883333 279.34,59.9566667 279.34,60.246 C279.34,60.5446667 279.412333,60.806 279.557,61.03 C279.701667,61.254 279.9,61.4406667 280.152,61.59 C280.404,61.7393333 280.705,61.8513333 281.055,61.926 C281.405,62.0006667 281.785333,62.038 282.196,62.038 Z M282.28,55.808 C281.944,55.808 281.659333,55.689 281.426,55.451 C281.192667,55.213 281.076,54.87 281.076,54.422 C281.076,53.9833333 281.192667,53.6473333 281.426,53.414 C281.659333,53.1806667 281.944,53.064 282.28,53.064 C282.616,53.064 282.898333,53.183 283.127,53.421 C283.355667,53.659 283.47,53.9926667 283.47,54.422 C283.47,54.87 283.353333,55.213 283.12,55.451 C282.886667,55.689 282.606667,55.808 282.28,55.808 Z M282.448,60.988 C281.897333,60.988 281.465667,60.9016667 281.153,60.729 C280.840333,60.5563333 280.684,60.316 280.684,60.008 C280.684,59.672 280.861333,59.3686667 281.216,59.098 C281.468,59.1633333 281.780667,59.196 282.154,59.196 L282.154,59.196 L283.092,59.196 C283.484,59.196 283.785,59.2426667 283.995,59.336 C284.205,59.4293333 284.31,59.6113333 284.31,59.882 C284.31,60.1806667 284.139667,60.4396667 283.799,60.659 C283.458333,60.8783333 283.008,60.988 282.448,60.988 Z M288.496,59.168 C288.906667,59.168 289.287,59.0793333 289.637,58.902 C289.987,58.7246667 290.316,58.5053333 290.624,58.244 L290.624,58.244 L290.68,58.244 L290.792,59 L292.122,59 L292.122,54.926 C292.122,53.9646667 291.909667,53.2296667 291.485,52.721 C291.060333,52.2123333 290.418667,51.958 289.56,51.958 C289.009333,51.958 288.496,52.0466667 288.02,52.224 C287.544,52.4013333 287.114667,52.6113333 286.732,52.854 L286.732,52.854 L287.32,53.932 C287.628,53.7453333 287.943,53.5866667 288.265,53.456 C288.587,53.3253333 288.916,53.26 289.252,53.26 C289.485333,53.26 289.681333,53.295 289.84,53.365 C289.998667,53.435 290.127,53.533 290.225,53.659 C290.323,53.785 290.393,53.9296667 290.435,54.093 C290.477,54.2563333 290.502667,54.4266667 290.512,54.604 C289.802667,54.6786667 289.193667,54.786 288.685,54.926 C288.176333,55.066 287.756333,55.2386667 287.425,55.444 C287.093667,55.6493333 286.851,55.8943333 286.697,56.179 C286.543,56.4636667 286.466,56.788 286.466,57.152 C286.466,57.7586667 286.652667,58.2463333 287.026,58.615 C287.399333,58.9836667 287.889333,59.168 288.496,59.168 Z M289.014,57.908 C288.724667,57.908 288.486667,57.838 288.3,57.698 C288.113333,57.558 288.02,57.334 288.02,57.026 C288.02,56.858 288.062,56.6993333 288.146,56.55 C288.23,56.4006667 288.37,56.2676667 288.566,56.151 C288.762,56.0343333 289.018667,55.9293333 289.336,55.836 C289.653333,55.7426667 290.045333,55.668 290.512,55.612 L290.512,55.612 L290.512,57.152 C290.250667,57.3946667 290.005667,57.5813333 289.777,57.712 C289.548333,57.8426667 289.294,57.908 289.014,57.908 Z M296.252,59.168 C296.522667,59.168 296.777,59.1423333 297.015,59.091 C297.253,59.0396667 297.465333,58.9813333 297.652,58.916 L297.652,58.916 L297.372,57.726 C297.269333,57.7726667 297.155,57.81 297.029,57.838 C296.903,57.866 296.779333,57.88 296.658,57.88 C296.014,57.88 295.692,57.4786667 295.692,56.676 L295.692,56.676 L295.692,53.4 L297.442,53.4 L297.442,52.126 L295.692,52.126 L295.692,50.25 L294.348,50.25 L294.152,52.126 L293.088,52.196 L293.088,53.4 L294.068,53.4 L294.068,56.676 C294.068,57.0493333 294.107667,57.3876667 294.187,57.691 C294.266333,57.9943333 294.392333,58.2556667 294.565,58.475 C294.737667,58.6943333 294.961667,58.8646667 295.237,58.986 C295.512333,59.1073333 295.850667,59.168 296.252,59.168 Z M299.696,50.922 C299.985333,50.922 300.223333,50.838 300.41,50.67 C300.596667,50.502 300.69,50.2826667 300.69,50.012 C300.69,49.7413333 300.596667,49.5196667 300.41,49.347 C300.223333,49.1743333 299.985333,49.088 299.696,49.088 C299.406667,49.088 299.168667,49.1743333 298.982,49.347 C298.795333,49.5196667 298.702,49.7413333 298.702,50.012 C298.702,50.2826667 298.795333,50.502 298.982,50.67 C299.168667,50.838 299.406667,50.922 299.696,50.922 Z M300.494,59 L300.494,52.126 L298.884,52.126 L298.884,59 L300.494,59 Z M305.366,59.168 C305.795333,59.168 306.208333,59.0886667 306.605,58.93 C307.001667,58.7713333 307.349333,58.538 307.648,58.23 C307.946667,57.922 308.187,57.544 308.369,57.096 C308.551,56.648 308.642,56.1393333 308.642,55.57 C308.642,55.0006667 308.551,54.492 308.369,54.044 C308.187,53.596 307.946667,53.218 307.648,52.91 C307.349333,52.602 307.001667,52.3663333 306.605,52.203 C306.208333,52.0396667 305.795333,51.958 305.366,51.958 C304.936667,51.958 304.526,52.0396667 304.134,52.203 C303.742,52.3663333 303.394333,52.602 303.091,52.91 C302.787667,53.218 302.547333,53.596 302.37,54.044 C302.192667,54.492 302.104,55.0006667 302.104,55.57 C302.104,56.1393333 302.192667,56.648 302.37,57.096 C302.547333,57.544 302.787667,57.922 303.091,58.23 C303.394333,58.538 303.742,58.7713333 304.134,58.93 C304.526,59.0886667 304.936667,59.168 305.366,59.168 Z M305.366,57.852 C304.862,57.852 304.467667,57.6443333 304.183,57.229 C303.898333,56.8136667 303.756,56.2606667 303.756,55.57 C303.756,54.87 303.898333,54.3123333 304.183,53.897 C304.467667,53.4816667 304.862,53.274 305.366,53.274 C305.87,53.274 306.266667,53.4816667 306.556,53.897 C306.845333,54.3123333 306.99,54.87 306.99,55.57 C306.99,56.2606667 306.845333,56.8136667 306.556,57.229 C306.266667,57.6443333 305.87,57.852 305.366,57.852 Z M311.848,59 L311.848,54.198 C312.137333,53.918 312.396333,53.7056667 312.625,53.561 C312.853667,53.4163333 313.117333,53.344 313.416,53.344 C313.798667,53.344 314.074,53.4606667 314.242,53.694 C314.41,53.9273333 314.494,54.3286667 314.494,54.898 L314.494,54.898 L314.494,59 L316.104,59 L316.104,54.688 C316.104,53.8106667 315.936,53.1363333 315.6,52.665 C315.264,52.1936667 314.727333,51.958 313.99,51.958 C313.514,51.958 313.096333,52.0653333 312.737,52.28 C312.377667,52.4946667 312.044,52.7513333 311.736,53.05 L311.736,53.05 L311.68,53.05 L311.568,52.126 L310.238,52.126 L310.238,59 L311.848,59 Z M319.996,59.168 C320.425333,59.168 320.808,59.112 321.144,59 C321.48,58.888 321.76,58.7363333 321.984,58.545 C322.208,58.3536667 322.378333,58.1296667 322.495,57.873 C322.611667,57.6163333 322.67,57.3386667 322.67,57.04 C322.67,56.7226667 322.611667,56.4496667 322.495,56.221 C322.378333,55.9923333 322.224333,55.7986667 322.033,55.64 C321.841667,55.4813333 321.629333,55.3483333 321.396,55.241 C321.162667,55.1336667 320.929333,55.038 320.696,54.954 C320.509333,54.8886667 320.329667,54.8233333 320.157,54.758 C319.984333,54.6926667 319.832667,54.6226667 319.702,54.548 C319.571333,54.4733333 319.466333,54.387 319.387,54.289 C319.307667,54.191 319.268,54.072 319.268,53.932 C319.268,53.7173333 319.349667,53.5376667 319.513,53.393 C319.676333,53.2483333 319.930667,53.176 320.276,53.176 C320.546667,53.176 320.805667,53.2296667 321.053,53.337 C321.300333,53.4443333 321.545333,53.5866667 321.788,53.764 L321.788,53.764 L322.53,52.784 C322.25,52.5693333 321.918667,52.378 321.536,52.21 C321.153333,52.042 320.724,51.958 320.248,51.958 C319.473333,51.958 318.862,52.1493333 318.414,52.532 C317.966,52.9146667 317.742,53.4093333 317.742,54.016 C317.742,54.3053333 317.800333,54.555 317.917,54.765 C318.033667,54.975 318.183,55.1593333 318.365,55.318 C318.547,55.4766667 318.754667,55.612 318.988,55.724 C319.221333,55.836 319.45,55.934 319.674,56.018 C319.851333,56.0926667 320.028667,56.165 320.206,56.235 C320.383333,56.305 320.542,56.382 320.682,56.466 C320.822,56.55 320.934,56.6456667 321.018,56.753 C321.102,56.8603333 321.144,56.984 321.144,57.124 C321.144,57.3666667 321.055333,57.565 320.878,57.719 C320.700667,57.873 320.425333,57.95 320.052,57.95 C319.697333,57.95 319.368333,57.8823333 319.065,57.747 C318.761667,57.6116667 318.456,57.4226667 318.148,57.18 L318.148,57.18 L317.392,58.216 C317.728,58.4866667 318.127,58.713 318.589,58.895 C319.051,59.077 319.52,59.168 319.996,59.168 Z M257.948,78.54 L257.948,77.126 C258.62,77.0326667 259.149667,76.7713333 259.537,76.342 C259.924333,75.9126667 260.118,75.362 260.118,74.69 C260.118,74.186 260.022333,73.773 259.831,73.451 C259.639667,73.129 259.399333,72.8583333 259.11,72.639 C258.820667,72.4196667 258.505667,72.233 258.165,72.079 C257.824333,71.925 257.509333,71.7663333 257.22,71.603 C256.930667,71.4396667 256.690333,71.2506667 256.499,71.036 C256.307667,70.8213333 256.212,70.546 256.212,70.21 C256.212,69.7993333 256.338,69.4726667 256.59,69.23 C256.842,68.9873333 257.182667,68.866 257.612,68.866 C257.994667,68.866 258.309667,68.936 258.557,69.076 C258.804333,69.216 259.058667,69.412 259.32,69.664 L259.32,69.664 L259.936,68.978 C259.684,68.7073333 259.401667,68.474 259.089,68.278 C258.776333,68.082 258.396,67.9606667 257.948,67.914 L257.948,67.914 L257.948,66.528 L257.108,66.528 L257.108,67.942 C256.492,68.0353333 255.999667,68.2896667 255.631,68.705 C255.262333,69.1203333 255.078,69.6406667 255.078,70.266 C255.078,70.7233333 255.173667,71.099 255.365,71.393 C255.556333,71.687 255.796667,71.9366667 256.086,72.142 C256.375333,72.3473333 256.690333,72.5293333 257.031,72.688 C257.371667,72.8466667 257.686667,73.017 257.976,73.199 C258.265333,73.381 258.505667,73.5956667 258.697,73.843 C258.888333,74.0903333 258.984,74.4006667 258.984,74.774 C258.984,75.2126667 258.855667,75.5626667 258.599,75.824 C258.342333,76.0853333 257.952667,76.216 257.43,76.216 C257.000667,76.216 256.606333,76.125 256.247,75.943 C255.887667,75.761 255.558667,75.5393333 255.26,75.278 L255.26,75.278 L254.728,76.076 C255.026667,76.3466667 255.386,76.5823333 255.806,76.783 C256.226,76.9836667 256.66,77.1073333 257.108,77.154 L257.108,77.154 L257.108,78.54 L257.948,78.54 Z M267.104,77 L267.104,76.048 L265.256,76.048 L265.256,68.068 L264.374,68.068 C264.131333,68.2173333 263.858333,68.3456667 263.555,68.453 C263.251667,68.5603333 262.894667,68.6513333 262.484,68.726 L262.484,68.726 L262.484,69.468 L264.108,69.468 L264.108,76.048 L262.064,76.048 L262.064,77 L267.104,77 Z M269.666,77.168 C269.89,77.168 270.083667,77.0863333 270.247,76.923 C270.410333,76.7596667 270.492,76.552 270.492,76.3 C270.492,76.0293333 270.410333,75.8123333 270.247,75.649 C270.083667,75.4856667 269.89,75.404 269.666,75.404 C269.432667,75.404 269.234333,75.4856667 269.071,75.649 C268.907667,75.8123333 268.826,76.0293333 268.826,76.3 C268.826,76.552 268.907667,76.7596667 269.071,76.923 C269.234333,77.0863333 269.432667,77.168 269.666,77.168 Z M274.888,77.168 C275.784,77.168 276.484,76.7666667 276.988,75.964 C277.492,75.1613333 277.744,74.0086667 277.744,72.506 C277.744,71.0033333 277.492,69.86 276.988,69.076 C276.484,68.292 275.784,67.9 274.888,67.9 C273.982667,67.9 273.278,68.292 272.774,69.076 C272.27,69.86 272.018,71.0033333 272.018,72.506 C272.018,74.0086667 272.27,75.1613333 272.774,75.964 C273.278,76.7666667 273.982667,77.168 274.888,77.168 Z M274.888,76.244 C274.365333,76.244 273.943,75.9476667 273.621,75.355 C273.299,74.7623333 273.138,73.8126667 273.138,72.506 C273.138,71.8526667 273.18,71.2926667 273.264,70.826 C273.348,70.3593333 273.467,69.979 273.621,69.685 C273.775,69.391 273.959333,69.174 274.174,69.034 C274.388667,68.894 274.626667,68.824 274.888,68.824 C275.149333,68.824 275.385,68.894 275.595,69.034 C275.805,69.174 275.987,69.391 276.141,69.685 C276.295,69.979 276.414,70.3593333 276.498,70.826 C276.582,71.2926667 276.624,71.8526667 276.624,72.506 C276.624,73.1593333 276.582,73.7216667 276.498,74.193 C276.414,74.6643333 276.295,75.0516667 276.141,75.355 C275.987,75.6583333 275.805,75.8823333 275.595,76.027 C275.385,76.1716667 275.149333,76.244 274.888,76.244 Z M283.708,77 L283.708,74.536 L284.926,74.536 L284.926,73.612 L283.708,73.612 L283.708,68.068 L282.42,68.068 L278.598,73.78 L278.598,74.536 L282.616,74.536 L282.616,77 L283.708,77 Z M282.616,73.612 L279.816,73.612 L281.902,70.56 C282.032667,70.3453333 282.158667,70.1353333 282.28,69.93 C282.401333,69.7246667 282.518,69.5146667 282.63,69.3 L282.63,69.3 L282.686,69.3 C282.667333,69.5426667 282.651,69.8296667 282.637,70.161 C282.623,70.4923333 282.616,70.7793333 282.616,71.022 L282.616,71.022 L282.616,73.612 Z M289.658,77 L289.658,68.796 L292.43,68.796 L292.43,67.816 L285.71,67.816 L285.71,68.796 L288.482,68.796 L288.482,77 L289.658,77 Z" id="Obligations$1.04T" fill="#666666" fill-rule="nonzero"></path>
                    <path d="M381.592,55.168 C382.124,55.168 382.602333,55.091 383.027,54.937 C383.451667,54.783 383.815667,54.538 384.119,54.202 C384.422333,53.866 384.653333,53.4343333 384.812,52.907 C384.970667,52.3796667 385.05,51.738 385.05,50.982 L385.05,50.982 L385.05,45.844 L383.496,45.844 L383.496,51.108 C383.496,51.6026667 383.449333,52.0203333 383.356,52.361 C383.262667,52.7016667 383.132,52.9746667 382.964,53.18 C382.796,53.3853333 382.595333,53.5323333 382.362,53.621 C382.128667,53.7096667 381.872,53.754 381.592,53.754 C381.312,53.754 381.06,53.7096667 380.836,53.621 C380.612,53.5323333 380.418333,53.3853333 380.255,53.18 C380.091667,52.9746667 379.965667,52.7016667 379.877,52.361 C379.788333,52.0203333 379.744,51.6026667 379.744,51.108 L379.744,51.108 L379.744,45.844 L378.12,45.844 L378.12,50.982 C378.12,51.738 378.201667,52.3796667 378.365,52.907 C378.528333,53.4343333 378.761667,53.866 379.065,54.202 C379.368333,54.538 379.732333,54.783 380.157,54.937 C380.581667,55.091 381.06,55.168 381.592,55.168 Z M388.802,55 L388.802,50.198 C389.091333,49.918 389.350333,49.7056667 389.579,49.561 C389.807667,49.4163333 390.071333,49.344 390.37,49.344 C390.752667,49.344 391.028,49.4606667 391.196,49.694 C391.364,49.9273333 391.448,50.3286667 391.448,50.898 L391.448,50.898 L391.448,55 L393.058,55 L393.058,50.688 C393.058,49.8106667 392.89,49.1363333 392.554,48.665 C392.218,48.1936667 391.681333,47.958 390.944,47.958 C390.468,47.958 390.050333,48.0653333 389.691,48.28 C389.331667,48.4946667 388.998,48.7513333 388.69,49.05 L388.69,49.05 L388.634,49.05 L388.522,48.126 L387.192,48.126 L387.192,55 L388.802,55 Z M397.846,55.168 C398.275333,55.168 398.688333,55.0886667 399.085,54.93 C399.481667,54.7713333 399.829333,54.538 400.128,54.23 C400.426667,53.922 400.667,53.544 400.849,53.096 C401.031,52.648 401.122,52.1393333 401.122,51.57 C401.122,51.0006667 401.031,50.492 400.849,50.044 C400.667,49.596 400.426667,49.218 400.128,48.91 C399.829333,48.602 399.481667,48.3663333 399.085,48.203 C398.688333,48.0396667 398.275333,47.958 397.846,47.958 C397.416667,47.958 397.006,48.0396667 396.614,48.203 C396.222,48.3663333 395.874333,48.602 395.571,48.91 C395.267667,49.218 395.027333,49.596 394.85,50.044 C394.672667,50.492 394.584,51.0006667 394.584,51.57 C394.584,52.1393333 394.672667,52.648 394.85,53.096 C395.027333,53.544 395.267667,53.922 395.571,54.23 C395.874333,54.538 396.222,54.7713333 396.614,54.93 C397.006,55.0886667 397.416667,55.168 397.846,55.168 Z M397.846,53.852 C397.342,53.852 396.947667,53.6443333 396.663,53.229 C396.378333,52.8136667 396.236,52.2606667 396.236,51.57 C396.236,50.87 396.378333,50.3123333 396.663,49.897 C396.947667,49.4816667 397.342,49.274 397.846,49.274 C398.35,49.274 398.746667,49.4816667 399.036,49.897 C399.325333,50.3123333 399.47,50.87 399.47,51.57 C399.47,52.2606667 399.325333,52.8136667 399.036,53.229 C398.746667,53.6443333 398.35,53.852 397.846,53.852 Z M406.05,55.168 C406.432667,55.168 406.801333,55.084 407.156,54.916 C407.510667,54.748 407.823333,54.5053333 408.094,54.188 C408.364667,53.8706667 408.581667,53.481 408.745,53.019 C408.908333,52.557 408.99,52.032 408.99,51.444 C408.99,50.912 408.929333,50.4313333 408.808,50.002 C408.686667,49.5726667 408.509333,49.2063333 408.276,48.903 C408.042667,48.5996667 407.758,48.3663333 407.422,48.203 C407.086,48.0396667 406.703333,47.958 406.274,47.958 C405.919333,47.958 405.571667,48.0373333 405.231,48.196 C404.890333,48.3546667 404.575333,48.56 404.286,48.812 L404.286,48.812 L404.328,47.664 L404.328,45.116 L402.718,45.116 L402.718,55 L403.992,55 L404.132,54.272 L404.174,54.272 C404.463333,54.5613333 404.769,54.783 405.091,54.937 C405.413,55.091 405.732667,55.168 406.05,55.168 Z M405.714,53.838 C405.508667,53.838 405.287,53.796 405.049,53.712 C404.811,53.628 404.570667,53.4786667 404.328,53.264 L404.328,53.264 L404.328,50.058 C404.850667,49.5446667 405.354667,49.288 405.84,49.288 C406.362667,49.288 406.740667,49.4793333 406.974,49.862 C407.207333,50.2446667 407.324,50.7813333 407.324,51.472 C407.324,52.256 407.17,52.8463333 406.862,53.243 C406.554,53.6396667 406.171333,53.838 405.714,53.838 Z M412.168,55.168 C412.522667,55.168 412.807333,55.1213333 413.022,55.028 L413.022,55.028 L412.812,53.824 C412.746667,53.8426667 412.697667,53.852 412.665,53.852 L412.665,53.852 L412.56,53.852 C412.476,53.852 412.396667,53.8123333 412.322,53.733 C412.247333,53.6536667 412.21,53.516 412.21,53.32 L412.21,53.32 L412.21,45.116 L410.6,45.116 L410.6,53.236 C410.6,53.8333333 410.716667,54.3046667 410.95,54.65 C411.183333,54.9953333 411.589333,55.168 412.168,55.168 Z M415.206,46.922 C415.495333,46.922 415.733333,46.838 415.92,46.67 C416.106667,46.502 416.2,46.2826667 416.2,46.012 C416.2,45.7413333 416.106667,45.5196667 415.92,45.347 C415.733333,45.1743333 415.495333,45.088 415.206,45.088 C414.916667,45.088 414.678667,45.1743333 414.492,45.347 C414.305333,45.5196667 414.212,45.7413333 414.212,46.012 C414.212,46.2826667 414.305333,46.502 414.492,46.67 C414.678667,46.838 414.916667,46.922 415.206,46.922 Z M416.004,55 L416.004,48.126 L414.394,48.126 L414.394,55 L416.004,55 Z M420.456,58.038 C421.016,58.038 421.522333,57.975 421.975,57.849 C422.427667,57.723 422.812667,57.5526667 423.13,57.338 C423.447333,57.1233333 423.692333,56.8666667 423.865,56.568 C424.037667,56.2693333 424.124,55.952 424.124,55.616 C424.124,55.0186667 423.911667,54.587 423.487,54.321 C423.062333,54.055 422.434667,53.922 421.604,53.922 L421.604,53.922 L420.386,53.922 C419.966,53.922 419.674333,53.866 419.511,53.754 C419.347667,53.642 419.266,53.488 419.266,53.292 C419.266,53.1333333 419.296333,53.0073333 419.357,52.914 C419.417667,52.8206667 419.499333,52.7273333 419.602,52.634 C419.760667,52.6993333 419.919333,52.746 420.078,52.774 C420.236667,52.802 420.390667,52.816 420.54,52.816 C420.904,52.816 421.244667,52.7646667 421.562,52.662 C421.879333,52.5593333 422.154667,52.41 422.388,52.214 C422.621333,52.018 422.805667,51.7753333 422.941,51.486 C423.076333,51.1966667 423.144,50.8606667 423.144,50.478 C423.144,50.2353333 423.106667,50.0136667 423.032,49.813 C422.957333,49.6123333 422.864,49.4466667 422.752,49.316 L422.752,49.316 L424.012,49.316 L424.012,48.126 L421.548,48.126 C421.408,48.0793333 421.251667,48.0396667 421.079,48.007 C420.906333,47.9743333 420.726667,47.958 420.54,47.958 C420.176,47.958 419.830667,48.0116667 419.504,48.119 C419.177333,48.2263333 418.890333,48.385 418.643,48.595 C418.395667,48.805 418.197333,49.064 418.048,49.372 C417.898667,49.68 417.824,50.03 417.824,50.422 C417.824,50.8326667 417.915,51.1943333 418.097,51.507 C418.279,51.8196667 418.486667,52.0646667 418.72,52.242 L418.72,52.242 L418.72,52.298 C418.524,52.438 418.349,52.6176667 418.195,52.837 C418.041,53.0563333 417.964,53.3013333 417.964,53.572 C417.964,53.852 418.022333,54.0853333 418.139,54.272 C418.255667,54.4586667 418.402667,54.608 418.58,54.72 L418.58,54.72 L418.58,54.776 C418.262667,54.972 418.02,55.1936667 417.852,55.441 C417.684,55.6883333 417.6,55.9566667 417.6,56.246 C417.6,56.5446667 417.672333,56.806 417.817,57.03 C417.961667,57.254 418.16,57.4406667 418.412,57.59 C418.664,57.7393333 418.965,57.8513333 419.315,57.926 C419.665,58.0006667 420.045333,58.038 420.456,58.038 Z M420.54,51.808 C420.204,51.808 419.919333,51.689 419.686,51.451 C419.452667,51.213 419.336,50.87 419.336,50.422 C419.336,49.9833333 419.452667,49.6473333 419.686,49.414 C419.919333,49.1806667 420.204,49.064 420.54,49.064 C420.876,49.064 421.158333,49.183 421.387,49.421 C421.615667,49.659 421.73,49.9926667 421.73,50.422 C421.73,50.87 421.613333,51.213 421.38,51.451 C421.146667,51.689 420.866667,51.808 420.54,51.808 Z M420.708,56.988 C420.157333,56.988 419.725667,56.9016667 419.413,56.729 C419.100333,56.5563333 418.944,56.316 418.944,56.008 C418.944,55.672 419.121333,55.3686667 419.476,55.098 C419.728,55.1633333 420.040667,55.196 420.414,55.196 L420.414,55.196 L421.352,55.196 C421.744,55.196 422.045,55.2426667 422.255,55.336 C422.465,55.4293333 422.57,55.6113333 422.57,55.882 C422.57,56.1806667 422.399667,56.4396667 422.059,56.659 C421.718333,56.8783333 421.268,56.988 420.708,56.988 Z M426.756,55.168 C427.166667,55.168 427.547,55.0793333 427.897,54.902 C428.247,54.7246667 428.576,54.5053333 428.884,54.244 L428.884,54.244 L428.94,54.244 L429.052,55 L430.382,55 L430.382,50.926 C430.382,49.9646667 430.169667,49.2296667 429.745,48.721 C429.320333,48.2123333 428.678667,47.958 427.82,47.958 C427.269333,47.958 426.756,48.0466667 426.28,48.224 C425.804,48.4013333 425.374667,48.6113333 424.992,48.854 L424.992,48.854 L425.58,49.932 C425.888,49.7453333 426.203,49.5866667 426.525,49.456 C426.847,49.3253333 427.176,49.26 427.512,49.26 C427.745333,49.26 427.941333,49.295 428.1,49.365 C428.258667,49.435 428.387,49.533 428.485,49.659 C428.583,49.785 428.653,49.9296667 428.695,50.093 C428.737,50.2563333 428.762667,50.4266667 428.772,50.604 C428.062667,50.6786667 427.453667,50.786 426.945,50.926 C426.436333,51.066 426.016333,51.2386667 425.685,51.444 C425.353667,51.6493333 425.111,51.8943333 424.957,52.179 C424.803,52.4636667 424.726,52.788 424.726,53.152 C424.726,53.7586667 424.912667,54.2463333 425.286,54.615 C425.659333,54.9836667 426.149333,55.168 426.756,55.168 Z M427.274,53.908 C426.984667,53.908 426.746667,53.838 426.56,53.698 C426.373333,53.558 426.28,53.334 426.28,53.026 C426.28,52.858 426.322,52.6993333 426.406,52.55 C426.49,52.4006667 426.63,52.2676667 426.826,52.151 C427.022,52.0343333 427.278667,51.9293333 427.596,51.836 C427.913333,51.7426667 428.305333,51.668 428.772,51.612 L428.772,51.612 L428.772,53.152 C428.510667,53.3946667 428.265667,53.5813333 428.037,53.712 C427.808333,53.8426667 427.554,53.908 427.274,53.908 Z M434.512,55.168 C434.782667,55.168 435.037,55.1423333 435.275,55.091 C435.513,55.0396667 435.725333,54.9813333 435.912,54.916 L435.912,54.916 L435.632,53.726 C435.529333,53.7726667 435.415,53.81 435.289,53.838 C435.163,53.866 435.039333,53.88 434.918,53.88 C434.274,53.88 433.952,53.4786667 433.952,52.676 L433.952,52.676 L433.952,49.4 L435.702,49.4 L435.702,48.126 L433.952,48.126 L433.952,46.25 L432.608,46.25 L432.412,48.126 L431.348,48.196 L431.348,49.4 L432.328,49.4 L432.328,52.676 C432.328,53.0493333 432.367667,53.3876667 432.447,53.691 C432.526333,53.9943333 432.652333,54.2556667 432.825,54.475 C432.997667,54.6943333 433.221667,54.8646667 433.497,54.986 C433.772333,55.1073333 434.110667,55.168 434.512,55.168 Z M439.86,55.168 C440.298667,55.168 440.718667,55.098 441.12,54.958 C441.521333,54.818 441.885333,54.6406667 442.212,54.426 L442.212,54.426 L441.666,53.418 C441.414,53.5766667 441.159667,53.7003333 440.903,53.789 C440.646333,53.8776667 440.368667,53.922 440.07,53.922 C439.51,53.922 439.050333,53.7563333 438.691,53.425 C438.331667,53.0936667 438.114667,52.62 438.04,52.004 L438.04,52.004 L442.408,52.004 C442.426667,51.92 442.443,51.808 442.457,51.668 C442.471,51.528 442.478,51.3786667 442.478,51.22 C442.478,50.744 442.417333,50.3053333 442.296,49.904 C442.174667,49.5026667 441.995,49.1573333 441.757,48.868 C441.519,48.5786667 441.222667,48.3546667 440.868,48.196 C440.513333,48.0373333 440.102667,47.958 439.636,47.958 C439.234667,47.958 438.842667,48.042 438.46,48.21 C438.077333,48.378 437.739,48.616 437.445,48.924 C437.151,49.232 436.915333,49.61 436.738,50.058 C436.560667,50.506 436.472,51.01 436.472,51.57 C436.472,52.1393333 436.558333,52.6456667 436.731,53.089 C436.903667,53.5323333 437.144,53.908 437.452,54.216 C437.76,54.524 438.119333,54.7596667 438.53,54.923 C438.940667,55.0863333 439.384,55.168 439.86,55.168 Z M441.078,50.912 L438.026,50.912 C438.100667,50.352 438.292,49.9273333 438.6,49.638 C438.908,49.3486667 439.267333,49.204 439.678,49.204 C440.154,49.204 440.506333,49.3556667 440.735,49.659 C440.963667,49.9623333 441.078,50.38 441.078,50.912 L441.078,50.912 Z M446.426,55.168 C446.799333,55.168 447.154,55.0793333 447.49,54.902 C447.826,54.7246667 448.12,54.51 448.372,54.258 L448.372,54.258 L448.428,54.258 L448.54,55 L449.87,55 L449.87,45.116 L448.26,45.116 L448.26,47.608 L448.316,48.714 C448.045333,48.4806667 447.774667,48.2963333 447.504,48.161 C447.233333,48.0256667 446.902,47.958 446.51,47.958 C446.136667,47.958 445.775,48.042 445.425,48.21 C445.075,48.378 444.764667,48.616 444.494,48.924 C444.223333,49.232 444.006333,49.61 443.843,50.058 C443.679667,50.506 443.598,51.01 443.598,51.57 C443.598,52.7086667 443.852333,53.593 444.361,54.223 C444.869667,54.853 445.558,55.168 446.426,55.168 Z M446.818,53.838 C446.314,53.838 445.929,53.6443333 445.663,53.257 C445.397,52.8696667 445.264,52.3026667 445.264,51.556 C445.264,50.828 445.418,50.268 445.726,49.876 C446.034,49.484 446.412,49.288 446.86,49.288 C447.093333,49.288 447.324333,49.33 447.553,49.414 C447.781667,49.498 448.017333,49.6473333 448.26,49.862 L448.26,49.862 L448.26,53.068 C447.812,53.5813333 447.331333,53.838 446.818,53.838 Z M380.948,74.54 L380.948,73.126 C381.62,73.0326667 382.149667,72.7713333 382.537,72.342 C382.924333,71.9126667 383.118,71.362 383.118,70.69 C383.118,70.186 383.022333,69.773 382.831,69.451 C382.639667,69.129 382.399333,68.8583333 382.11,68.639 C381.820667,68.4196667 381.505667,68.233 381.165,68.079 C380.824333,67.925 380.509333,67.7663333 380.22,67.603 C379.930667,67.4396667 379.690333,67.2506667 379.499,67.036 C379.307667,66.8213333 379.212,66.546 379.212,66.21 C379.212,65.7993333 379.338,65.4726667 379.59,65.23 C379.842,64.9873333 380.182667,64.866 380.612,64.866 C380.994667,64.866 381.309667,64.936 381.557,65.076 C381.804333,65.216 382.058667,65.412 382.32,65.664 L382.32,65.664 L382.936,64.978 C382.684,64.7073333 382.401667,64.474 382.089,64.278 C381.776333,64.082 381.396,63.9606667 380.948,63.914 L380.948,63.914 L380.948,62.528 L380.108,62.528 L380.108,63.942 C379.492,64.0353333 378.999667,64.2896667 378.631,64.705 C378.262333,65.1203333 378.078,65.6406667 378.078,66.266 C378.078,66.7233333 378.173667,67.099 378.365,67.393 C378.556333,67.687 378.796667,67.9366667 379.086,68.142 C379.375333,68.3473333 379.690333,68.5293333 380.031,68.688 C380.371667,68.8466667 380.686667,69.017 380.976,69.199 C381.265333,69.381 381.505667,69.5956667 381.697,69.843 C381.888333,70.0903333 381.984,70.4006667 381.984,70.774 C381.984,71.2126667 381.855667,71.5626667 381.599,71.824 C381.342333,72.0853333 380.952667,72.216 380.43,72.216 C380.000667,72.216 379.606333,72.125 379.247,71.943 C378.887667,71.761 378.558667,71.5393333 378.26,71.278 L378.26,71.278 L377.728,72.076 C378.026667,72.3466667 378.386,72.5823333 378.806,72.783 C379.226,72.9836667 379.66,73.1073333 380.108,73.154 L380.108,73.154 L380.108,74.54 L380.948,74.54 Z M390.104,73 L390.104,72.048 L388.256,72.048 L388.256,64.068 L387.374,64.068 C387.131333,64.2173333 386.858333,64.3456667 386.555,64.453 C386.251667,64.5603333 385.894667,64.6513333 385.484,64.726 L385.484,64.726 L385.484,65.468 L387.108,65.468 L387.108,72.048 L385.064,72.048 L385.064,73 L390.104,73 Z M396.264,73 L396.264,70.536 L397.482,70.536 L397.482,69.612 L396.264,69.612 L396.264,64.068 L394.976,64.068 L391.154,69.78 L391.154,70.536 L395.172,70.536 L395.172,73 L396.264,73 Z M395.172,69.612 L392.372,69.612 L394.458,66.56 C394.588667,66.3453333 394.714667,66.1353333 394.836,65.93 C394.957333,65.7246667 395.074,65.5146667 395.186,65.3 L395.186,65.3 L395.242,65.3 C395.223333,65.5426667 395.207,65.8296667 395.193,66.161 C395.179,66.4923333 395.172,66.7793333 395.172,67.022 L395.172,67.022 L395.172,69.612 Z M404.02,73 L404.02,72.048 L402.172,72.048 L402.172,64.068 L401.29,64.068 C401.047333,64.2173333 400.774333,64.3456667 400.471,64.453 C400.167667,64.5603333 399.810667,64.6513333 399.4,64.726 L399.4,64.726 L399.4,65.468 L401.024,65.468 L401.024,72.048 L398.98,72.048 L398.98,73 L404.02,73 Z M409.018,73 C409.531333,73 410.002667,72.944 410.432,72.832 C410.861333,72.72 411.23,72.552 411.538,72.328 C411.846,72.104 412.084,71.824 412.252,71.488 C412.42,71.152 412.504,70.76 412.504,70.312 C412.504,69.6773333 412.331333,69.178 411.986,68.814 C411.640667,68.45 411.188,68.2166667 410.628,68.114 L410.628,68.114 L410.628,68.058 C411.066667,67.918 411.400333,67.6636667 411.629,67.295 C411.857667,66.9263333 411.972,66.5133333 411.972,66.056 C411.972,65.6546667 411.895,65.3116667 411.741,65.027 C411.587,64.7423333 411.372333,64.5113333 411.097,64.334 C410.821667,64.1566667 410.490333,64.026 410.103,63.942 C409.715667,63.858 409.288667,63.816 408.822,63.816 L408.822,63.816 L406.092,63.816 L406.092,73 L409.018,73 Z M408.612,67.722 L407.254,67.722 L407.254,64.74 L408.668,64.74 C409.386667,64.74 409.925667,64.852 410.285,65.076 C410.644333,65.3 410.824,65.678 410.824,66.21 C410.824,66.6766667 410.651333,67.0453333 410.306,67.316 C409.960667,67.5866667 409.396,67.722 408.612,67.722 L408.612,67.722 Z M408.85,72.076 L407.254,72.076 L407.254,68.618 L408.85,68.618 C409.662,68.618 410.282667,68.751 410.712,69.017 C411.141333,69.283 411.356,69.7006667 411.356,70.27 C411.356,70.886 411.136667,71.341 410.698,71.635 C410.259333,71.929 409.643333,72.076 408.85,72.076 L408.85,72.076 Z" id="Unobligated$141B" fill="#666666" fill-rule="nonzero"></path>
                    <line x1="10.5" y1="26" x2="10.5" y2="41" id="Line" stroke="#C6C6C6"></line>
                    <line x1="288.5" y1="26" x2="288.5" y2="41" id="Line-Copy" stroke="#C6C6C6"></line>
                    <path d="M434.368,15.54 L434.368,14.084 C435.096,13.9253333 435.642,13.6056667 436.006,13.125 C436.37,12.6443333 436.552,12.068 436.552,11.396 C436.552,10.948 436.461,10.5723333 436.279,10.269 C436.097,9.96566667 435.868333,9.70666667 435.593,9.492 C435.317667,9.27733333 435.021333,9.09533333 434.704,8.946 C434.386667,8.79666667 434.090333,8.652 433.815,8.512 C433.539667,8.372 433.311,8.225 433.129,8.071 C432.947,7.917 432.856,7.728 432.856,7.504 C432.856,7.18666667 432.944667,6.958 433.122,6.818 C433.299333,6.678 433.556,6.608 433.892,6.608 C434.190667,6.608 434.456667,6.66633333 434.69,6.783 C434.923333,6.89966667 435.166,7.07466667 435.418,7.308 L435.418,7.308 L436.454,6.132 C436.183333,5.84266667 435.88,5.59533333 435.544,5.39 C435.208,5.18466667 434.816,5.04933333 434.368,4.984 L434.368,4.984 L434.368,3.57 L433.01,3.57 L433.01,5.012 C432.347333,5.14266667 431.827,5.43433333 431.449,5.887 C431.071,6.33966667 430.882,6.91133333 430.882,7.602 C430.882,8.022 430.973,8.37666667 431.155,8.666 C431.337,8.95533333 431.565667,9.20733333 431.841,9.422 C432.116333,9.63666667 432.412667,9.821 432.73,9.975 C433.047333,10.129 433.343667,10.283 433.619,10.437 C433.894333,10.591 434.123,10.752 434.305,10.92 C434.487,11.088 434.578,11.2933333 434.578,11.536 C434.578,11.8626667 434.487,12.1053333 434.305,12.264 C434.123,12.4226667 433.836,12.502 433.444,12.502 C433.108,12.502 432.779,12.4343333 432.457,12.299 C432.135,12.1636667 431.796667,11.9606667 431.442,11.69 L431.442,11.69 L430.546,13.076 C430.872667,13.3746667 431.262333,13.615 431.715,13.797 C432.167667,13.979 432.599333,14.0933333 433.01,14.14 L433.01,14.14 L433.01,15.54 L434.368,15.54 Z M444.028,14 L444.028,12.334 L442.362,12.334 L442.362,5.11 L440.85,5.11 C440.532667,5.29666667 440.206,5.45533333 439.87,5.586 C439.534,5.71666667 439.123333,5.82866667 438.638,5.922 L438.638,5.922 L438.638,7.196 L440.304,7.196 L440.304,12.334 L438.372,12.334 L438.372,14 L444.028,14 Z M446.884,14.168 C447.238667,14.168 447.535,14.0443333 447.773,13.797 C448.011,13.5496667 448.13,13.244 448.13,12.88 C448.13,12.5066667 448.011,12.1963333 447.773,11.949 C447.535,11.7016667 447.238667,11.578 446.884,11.578 C446.529333,11.578 446.233,11.7016667 445.995,11.949 C445.757,12.1963333 445.638,12.5066667 445.638,12.88 C445.638,13.244 445.757,13.5496667 445.995,13.797 C446.233,14.0443333 446.529333,14.168 446.884,14.168 Z M455.62,14 L455.62,12.334 L453.954,12.334 L453.954,5.11 L452.442,5.11 C452.124667,5.29666667 451.798,5.45533333 451.462,5.586 C451.126,5.71666667 450.715333,5.82866667 450.23,5.922 L450.23,5.922 L450.23,7.196 L451.896,7.196 L451.896,12.334 L449.964,12.334 L449.964,14 L455.62,14 Z M460.058,14.168 C460.534,14.168 460.965667,14.105 461.353,13.979 C461.740333,13.853 462.071667,13.6803333 462.347,13.461 C462.622333,13.2416667 462.834667,12.9826667 462.984,12.684 C463.133333,12.3853333 463.208,12.0586667 463.208,11.704 C463.208,11.116 463.058667,10.64 462.76,10.276 C462.461333,9.912 462.097333,9.61333333 461.668,9.38 L461.668,9.38 L461.668,9.324 C461.976,9.11866667 462.246667,8.85033333 462.48,8.519 C462.713333,8.18766667 462.83,7.80733333 462.83,7.378 C462.83,7.014 462.764667,6.68033333 462.634,6.377 C462.503333,6.07366667 462.321333,5.817 462.088,5.607 C461.854667,5.397 461.57,5.23366667 461.234,5.117 C460.898,5.00033333 460.529333,4.942 460.128,4.942 C459.717333,4.942 459.337,4.998 458.987,5.11 C458.637,5.222 458.336,5.38533333 458.084,5.6 C457.832,5.81466667 457.636,6.07366667 457.496,6.377 C457.356,6.68033333 457.286,7.01866667 457.286,7.392 C457.286,7.868 457.398,8.27166667 457.622,8.603 C457.846,8.93433333 458.130667,9.23066667 458.476,9.492 L458.476,9.492 L458.476,9.548 C458.056,9.772 457.699,10.0566667 457.405,10.402 C457.111,10.7473333 456.964,11.1906667 456.964,11.732 C456.964,12.096 457.041,12.4273333 457.195,12.726 C457.349,13.0246667 457.563667,13.2813333 457.839,13.496 C458.114333,13.7106667 458.441,13.8763333 458.819,13.993 C459.197,14.1096667 459.61,14.168 460.058,14.168 Z M460.618,8.82 C460.160667,8.64266667 459.792,8.45133333 459.512,8.246 C459.232,8.04066667 459.092,7.756 459.092,7.392 C459.092,7.04666667 459.19,6.79 459.386,6.622 C459.582,6.454 459.815333,6.37 460.086,6.37 C460.422,6.37 460.685667,6.475 460.877,6.685 C461.068333,6.895 461.164,7.17266667 461.164,7.518 C461.164,7.966 460.982,8.4 460.618,8.82 Z M460.1,12.74 C459.726667,12.74 459.404667,12.6303333 459.134,12.411 C458.863333,12.1916667 458.728,11.886 458.728,11.494 C458.728,11.2233333 458.793333,10.9666667 458.924,10.724 C459.054667,10.4813333 459.218,10.2666667 459.414,10.08 C459.694,10.2013333 459.948333,10.3133333 460.177,10.416 C460.405667,10.5186667 460.604,10.6283333 460.772,10.745 C460.94,10.8616667 461.068333,10.99 461.157,11.13 C461.245667,11.27 461.29,11.438 461.29,11.634 C461.29,12.0073333 461.178,12.285 460.954,12.467 C460.73,12.649 460.445333,12.74 460.1,12.74 Z M468.696,14 L468.696,6.608 L471.202,6.608 L471.202,4.872 L464.118,4.872 L464.118,6.608 L466.624,6.608 L466.624,14 L468.696,14 Z" id="$1.18T" fill="#555555" fill-rule="nonzero"></path>
                </g>
                <line x1="410.5" y1="31" x2="410.5" y2="46" id="Line-Copy-3" stroke="#C6C6C6"></line>
                <g id="Group-3-Copy-2">
                    <rect id="outlays" fill="#331E4D" x="0" y="0" width="185" height="31"></rect>
                    <rect id="unobligated" fill="#F3E9FF" x="344" y="0" width="80" height="31"></rect>
                    <rect id="obligated" fill="#6F41A7" x="185" y="0" width="211" height="31"></rect>
                </g>
            </g>
        </g>
    </g>
</svg>