<?xml version="1.0" encoding="UTF-8"?>
<svg width="378px" height="40px" viewBox="0 0 378 40" version="1.1" xmlns="http://www.w3.org/2000/svg" xmlns:xlink="http://www.w3.org/1999/xlink">
    <title>03. desktop - phase 2</title>
    <g id="SVG" stroke="none" stroke-width="1" fill="none" fill-rule="evenodd">
        <g id="Viz-3---Desktop-Copy" transform="translate(-279.000000, -692.000000)">
            <g id="03.-desktop---phase-2" transform="translate(279.000000, 692.000000)">
                <rect id="unobligated" fill="#F3E9FF" x="4" y="0" width="4" height="40"></rect>
                <rect id="obligated" fill="#6F41A7" x="0" y="0" width="4" height="40"></rect>
                <path d="M141.718,16.168 C142.315333,16.168 142.861333,16.0583333 143.356,15.839 C143.850667,15.6196667 144.277667,15.3023333 144.637,14.887 C144.996333,14.4716667 145.274,13.97 145.47,13.382 C145.666,12.794 145.764,12.1266667 145.764,11.38 C145.764,10.6426667 145.666,9.98233333 145.47,9.399 C145.274,8.81566667 144.996333,8.32333333 144.637,7.922 C144.277667,7.52066667 143.850667,7.21266667 143.356,6.998 C142.861333,6.78333333 142.315333,6.676 141.718,6.676 C141.120667,6.676 140.574667,6.78333333 140.08,6.998 C139.585333,7.21266667 139.160667,7.52066667 138.806,7.922 C138.451333,8.32333333 138.176,8.81566667 137.98,9.399 C137.784,9.98233333 137.686,10.6426667 137.686,11.38 C137.686,12.1266667 137.784,12.794 137.98,13.382 C138.176,13.97 138.451333,14.4716667 138.806,14.887 C139.160667,15.3023333 139.585333,15.6196667 140.08,15.839 C140.574667,16.0583333 141.120667,16.168 141.718,16.168 Z M141.718,14.754 C141.354,14.754 141.027333,14.6746667 140.738,14.516 C140.448667,14.3573333 140.201333,14.131 139.996,13.837 C139.790667,13.543 139.632,13.1883333 139.52,12.773 C139.408,12.3576667 139.352,11.8933333 139.352,11.38 C139.352,10.3533333 139.564333,9.54833333 139.989,8.965 C140.413667,8.38166667 140.99,8.09 141.718,8.09 C142.446,8.09 143.022333,8.38166667 143.447,8.965 C143.871667,9.54833333 144.084,10.3533333 144.084,11.38 C144.084,11.8933333 144.028,12.3576667 143.916,12.773 C143.804,13.1883333 143.645333,13.543 143.44,13.837 C143.234667,14.131 142.987333,14.3573333 142.698,14.516 C142.408667,14.6746667 142.082,14.754 141.718,14.754 Z M149.502,16.168 C149.978,16.168 150.391,16.0606667 150.741,15.846 C151.091,15.6313333 151.415333,15.3466667 151.714,14.992 L151.714,14.992 L151.756,14.992 L151.882,16 L153.198,16 L153.198,9.126 L151.588,9.126 L151.588,13.83 C151.326667,14.166 151.081667,14.4086667 150.853,14.558 C150.624333,14.7073333 150.360667,14.782 150.062,14.782 C149.688667,14.782 149.418,14.6653333 149.25,14.432 C149.082,14.1986667 148.998,13.7973333 148.998,13.228 L148.998,13.228 L148.998,9.126 L147.388,9.126 L147.388,13.438 C147.388,14.3153333 147.556,14.9896667 147.892,15.461 C148.228,15.9323333 148.764667,16.168 149.502,16.168 Z M157.664,16.168 C157.934667,16.168 158.189,16.1423333 158.427,16.091 C158.665,16.0396667 158.877333,15.9813333 159.064,15.916 L159.064,15.916 L158.784,14.726 C158.681333,14.7726667 158.567,14.81 158.441,14.838 C158.315,14.866 158.191333,14.88 158.07,14.88 C157.426,14.88 157.104,14.4786667 157.104,13.676 L157.104,13.676 L157.104,10.4 L158.854,10.4 L158.854,9.126 L157.104,9.126 L157.104,7.25 L155.76,7.25 L155.564,9.126 L154.5,9.196 L154.5,10.4 L155.48,10.4 L155.48,13.676 C155.48,14.0493333 155.519667,14.3876667 155.599,14.691 C155.678333,14.9943333 155.804333,15.2556667 155.977,15.475 C156.149667,15.6943333 156.373667,15.8646667 156.649,15.986 C156.924333,16.1073333 157.262667,16.168 157.664,16.168 Z M161.864,16.168 C162.218667,16.168 162.503333,16.1213333 162.718,16.028 L162.718,16.028 L162.508,14.824 C162.442667,14.8426667 162.393667,14.852 162.361,14.852 L162.361,14.852 L162.256,14.852 C162.172,14.852 162.092667,14.8123333 162.018,14.733 C161.943333,14.6536667 161.906,14.516 161.906,14.32 L161.906,14.32 L161.906,6.116 L160.296,6.116 L160.296,14.236 C160.296,14.8333333 160.412667,15.3046667 160.646,15.65 C160.879333,15.9953333 161.285333,16.168 161.864,16.168 Z M165.756,16.168 C166.166667,16.168 166.547,16.0793333 166.897,15.902 C167.247,15.7246667 167.576,15.5053333 167.884,15.244 L167.884,15.244 L167.94,15.244 L168.052,16 L169.382,16 L169.382,11.926 C169.382,10.9646667 169.169667,10.2296667 168.745,9.721 C168.320333,9.21233333 167.678667,8.958 166.82,8.958 C166.269333,8.958 165.756,9.04666667 165.28,9.224 C164.804,9.40133333 164.374667,9.61133333 163.992,9.854 L163.992,9.854 L164.58,10.932 C164.888,10.7453333 165.203,10.5866667 165.525,10.456 C165.847,10.3253333 166.176,10.26 166.512,10.26 C166.745333,10.26 166.941333,10.295 167.1,10.365 C167.258667,10.435 167.387,10.533 167.485,10.659 C167.583,10.785 167.653,10.9296667 167.695,11.093 C167.737,11.2563333 167.762667,11.4266667 167.772,11.604 C167.062667,11.6786667 166.453667,11.786 165.945,11.926 C165.436333,12.066 165.016333,12.2386667 164.685,12.444 C164.353667,12.6493333 164.111,12.8943333 163.957,13.179 C163.803,13.4636667 163.726,13.788 163.726,14.152 C163.726,14.7586667 163.912667,15.2463333 164.286,15.615 C164.659333,15.9836667 165.149333,16.168 165.756,16.168 Z M166.274,14.908 C165.984667,14.908 165.746667,14.838 165.56,14.698 C165.373333,14.558 165.28,14.334 165.28,14.026 C165.28,13.858 165.322,13.6993333 165.406,13.55 C165.49,13.4006667 165.63,13.2676667 165.826,13.151 C166.022,13.0343333 166.278667,12.9293333 166.596,12.836 C166.913333,12.7426667 167.305333,12.668 167.772,12.612 L167.772,12.612 L167.772,14.152 C167.510667,14.3946667 167.265667,14.5813333 167.037,14.712 C166.808333,14.8426667 166.554,14.908 166.274,14.908 Z M171.776,18.828 C172.149333,18.828 172.478333,18.7696667 172.763,18.653 C173.047667,18.5363333 173.299667,18.3683333 173.519,18.149 C173.738333,17.9296667 173.932,17.666 174.1,17.358 C174.268,17.05 174.422,16.7 174.562,16.308 L174.562,16.308 L177.054,9.126 L175.5,9.126 L174.464,12.5 C174.38,12.808 174.293667,13.1276667 174.205,13.459 C174.116333,13.7903333 174.03,14.1146667 173.946,14.432 L173.946,14.432 L173.89,14.432 C173.787333,14.1053333 173.687,13.7763333 173.589,13.445 C173.491,13.1136667 173.390667,12.7986667 173.288,12.5 L173.288,12.5 L172.098,9.126 L170.46,9.126 L173.162,15.916 L173.036,16.35 C172.924,16.6953333 172.758333,16.9776667 172.539,17.197 C172.319667,17.4163333 172.028,17.526 171.664,17.526 C171.58,17.526 171.493667,17.5143333 171.405,17.491 C171.316333,17.4676667 171.239333,17.4466667 171.174,17.428 L171.174,17.428 L170.88,18.688 C171.010667,18.7346667 171.146,18.7696667 171.286,18.793 C171.426,18.8163333 171.589333,18.828 171.776,18.828 Z M180.162,16.168 C180.591333,16.168 180.974,16.112 181.31,16 C181.646,15.888 181.926,15.7363333 182.15,15.545 C182.374,15.3536667 182.544333,15.1296667 182.661,14.873 C182.777667,14.6163333 182.836,14.3386667 182.836,14.04 C182.836,13.7226667 182.777667,13.4496667 182.661,13.221 C182.544333,12.9923333 182.390333,12.7986667 182.199,12.64 C182.007667,12.4813333 181.795333,12.3483333 181.562,12.241 C181.328667,12.1336667 181.095333,12.038 180.862,11.954 C180.675333,11.8886667 180.495667,11.8233333 180.323,11.758 C180.150333,11.6926667 179.998667,11.6226667 179.868,11.548 C179.737333,11.4733333 179.632333,11.387 179.553,11.289 C179.473667,11.191 179.434,11.072 179.434,10.932 C179.434,10.7173333 179.515667,10.5376667 179.679,10.393 C179.842333,10.2483333 180.096667,10.176 180.442,10.176 C180.712667,10.176 180.971667,10.2296667 181.219,10.337 C181.466333,10.4443333 181.711333,10.5866667 181.954,10.764 L181.954,10.764 L182.696,9.784 C182.416,9.56933333 182.084667,9.378 181.702,9.21 C181.319333,9.042 180.89,8.958 180.414,8.958 C179.639333,8.958 179.028,9.14933333 178.58,9.532 C178.132,9.91466667 177.908,10.4093333 177.908,11.016 C177.908,11.3053333 177.966333,11.555 178.083,11.765 C178.199667,11.975 178.349,12.1593333 178.531,12.318 C178.713,12.4766667 178.920667,12.612 179.154,12.724 C179.387333,12.836 179.616,12.934 179.84,13.018 C180.017333,13.0926667 180.194667,13.165 180.372,13.235 C180.549333,13.305 180.708,13.382 180.848,13.466 C180.988,13.55 181.1,13.6456667 181.184,13.753 C181.268,13.8603333 181.31,13.984 181.31,14.124 C181.31,14.3666667 181.221333,14.565 181.044,14.719 C180.866667,14.873 180.591333,14.95 180.218,14.95 C179.863333,14.95 179.534333,14.8823333 179.231,14.747 C178.927667,14.6116667 178.622,14.4226667 178.314,14.18 L178.314,14.18 L177.558,15.216 C177.894,15.4866667 178.293,15.713 178.755,15.895 C179.217,16.077 179.686,16.168 180.162,16.168 Z M140.948,35.54 L140.948,34.126 C141.62,34.0326667 142.149667,33.7713333 142.537,33.342 C142.924333,32.9126667 143.118,32.362 143.118,31.69 C143.118,31.186 143.022333,30.773 142.831,30.451 C142.639667,30.129 142.399333,29.8583333 142.11,29.639 C141.820667,29.4196667 141.505667,29.233 141.165,29.079 C140.824333,28.925 140.509333,28.7663333 140.22,28.603 C139.930667,28.4396667 139.690333,28.2506667 139.499,28.036 C139.307667,27.8213333 139.212,27.546 139.212,27.21 C139.212,26.7993333 139.338,26.4726667 139.59,26.23 C139.842,25.9873333 140.182667,25.866 140.612,25.866 C140.994667,25.866 141.309667,25.936 141.557,26.076 C141.804333,26.216 142.058667,26.412 142.32,26.664 L142.32,26.664 L142.936,25.978 C142.684,25.7073333 142.401667,25.474 142.089,25.278 C141.776333,25.082 141.396,24.9606667 140.948,24.914 L140.948,24.914 L140.948,23.528 L140.108,23.528 L140.108,24.942 C139.492,25.0353333 138.999667,25.2896667 138.631,25.705 C138.262333,26.1203333 138.078,26.6406667 138.078,27.266 C138.078,27.7233333 138.173667,28.099 138.365,28.393 C138.556333,28.687 138.796667,28.9366667 139.086,29.142 C139.375333,29.3473333 139.690333,29.5293333 140.031,29.688 C140.371667,29.8466667 140.686667,30.017 140.976,30.199 C141.265333,30.381 141.505667,30.5956667 141.697,30.843 C141.888333,31.0903333 141.984,31.4006667 141.984,31.774 C141.984,32.2126667 141.855667,32.5626667 141.599,32.824 C141.342333,33.0853333 140.952667,33.216 140.43,33.216 C140.000667,33.216 139.606333,33.125 139.247,32.943 C138.887667,32.761 138.558667,32.5393333 138.26,32.278 L138.26,32.278 L137.728,33.076 C138.026667,33.3466667 138.386,33.5823333 138.806,33.783 C139.226,33.9836667 139.66,34.1073333 140.108,34.154 L140.108,34.154 L140.108,35.54 L140.948,35.54 Z M146.828,34.168 C147.276,34.168 147.703,34.077 148.109,33.895 C148.515,33.713 148.876667,33.4236667 149.194,33.027 C149.511333,32.6303333 149.763333,32.117 149.95,31.487 C150.136667,30.857 150.23,30.094 150.23,29.198 C150.23,28.4793333 150.153,27.8516667 149.999,27.315 C149.845,26.7783333 149.630333,26.3303333 149.355,25.971 C149.079667,25.6116667 148.753,25.3433333 148.375,25.166 C147.997,24.9886667 147.588667,24.9 147.15,24.9 C146.795333,24.9 146.457,24.97 146.135,25.11 C145.813,25.25 145.533,25.446 145.295,25.698 C145.057,25.95 144.868,26.251 144.728,26.601 C144.588,26.951 144.518,27.3406667 144.518,27.77 C144.518,28.694 144.746667,29.3846667 145.204,29.842 C145.661333,30.2993333 146.277333,30.528 147.052,30.528 C147.425333,30.528 147.798667,30.4253333 148.172,30.22 C148.545333,30.0146667 148.872,29.7346667 149.152,29.38 C149.142667,30.0986667 149.072667,30.7006667 148.942,31.186 C148.811333,31.6713333 148.638667,32.0656667 148.424,32.369 C148.209333,32.6723333 147.962,32.8893333 147.682,33.02 C147.402,33.1506667 147.103333,33.216 146.786,33.216 C146.506,33.216 146.237667,33.1506667 145.981,33.02 C145.724333,32.8893333 145.502667,32.7166667 145.316,32.502 L145.316,32.502 L144.672,33.23 C144.914667,33.5006667 145.215667,33.7246667 145.575,33.902 C145.934333,34.0793333 146.352,34.168 146.828,34.168 Z M147.248,29.66 C146.688,29.66 146.272667,29.492 146.002,29.156 C145.731333,28.82 145.596,28.358 145.596,27.77 C145.596,27.4806667 145.635667,27.2146667 145.715,26.972 C145.794333,26.7293333 145.904,26.5216667 146.044,26.349 C146.184,26.1763333 146.349667,26.0433333 146.541,25.95 C146.732333,25.8566667 146.935333,25.81 147.15,25.81 C147.719333,25.81 148.172,26.034 148.508,26.482 C148.844,26.93 149.049333,27.5926667 149.124,28.47 C148.834667,28.89 148.524333,29.1933333 148.193,29.38 C147.861667,29.5666667 147.546667,29.66 147.248,29.66 Z M155.102,34 C155.615333,34 156.086667,33.944 156.516,33.832 C156.945333,33.72 157.314,33.552 157.622,33.328 C157.93,33.104 158.168,32.824 158.336,32.488 C158.504,32.152 158.588,31.76 158.588,31.312 C158.588,30.6773333 158.415333,30.178 158.07,29.814 C157.724667,29.45 157.272,29.2166667 156.712,29.114 L156.712,29.114 L156.712,29.058 C157.150667,28.918 157.484333,28.6636667 157.713,28.295 C157.941667,27.9263333 158.056,27.5133333 158.056,27.056 C158.056,26.6546667 157.979,26.3116667 157.825,26.027 C157.671,25.7423333 157.456333,25.5113333 157.181,25.334 C156.905667,25.1566667 156.574333,25.026 156.187,24.942 C155.799667,24.858 155.372667,24.816 154.906,24.816 L154.906,24.816 L152.176,24.816 L152.176,34 L155.102,34 Z M154.696,28.722 L153.338,28.722 L153.338,25.74 L154.752,25.74 C155.470667,25.74 156.009667,25.852 156.369,26.076 C156.728333,26.3 156.908,26.678 156.908,27.21 C156.908,27.6766667 156.735333,28.0453333 156.39,28.316 C156.044667,28.5866667 155.48,28.722 154.696,28.722 L154.696,28.722 Z M154.934,33.076 L153.338,33.076 L153.338,29.618 L154.934,29.618 C155.746,29.618 156.366667,29.751 156.796,30.017 C157.225333,30.283 157.44,30.7006667 157.44,31.27 C157.44,31.886 157.220667,32.341 156.782,32.635 C156.343333,32.929 155.727333,33.076 154.934,33.076 L154.934,33.076 Z" id="Outlays$9B" fill="#666666" fill-rule="nonzero"></path>
                <path d="M213.718,16.168 C214.315333,16.168 214.861333,16.0583333 215.356,15.839 C215.850667,15.6196667 216.277667,15.3023333 216.637,14.887 C216.996333,14.4716667 217.274,13.97 217.47,13.382 C217.666,12.794 217.764,12.1266667 217.764,11.38 C217.764,10.6426667 217.666,9.98233333 217.47,9.399 C217.274,8.81566667 216.996333,8.32333333 216.637,7.922 C216.277667,7.52066667 215.850667,7.21266667 215.356,6.998 C214.861333,6.78333333 214.315333,6.676 213.718,6.676 C213.120667,6.676 212.574667,6.78333333 212.08,6.998 C211.585333,7.21266667 211.160667,7.52066667 210.806,7.922 C210.451333,8.32333333 210.176,8.81566667 209.98,9.399 C209.784,9.98233333 209.686,10.6426667 209.686,11.38 C209.686,12.1266667 209.784,12.794 209.98,13.382 C210.176,13.97 210.451333,14.4716667 210.806,14.887 C211.160667,15.3023333 211.585333,15.6196667 212.08,15.839 C212.574667,16.0583333 213.120667,16.168 213.718,16.168 Z M213.718,14.754 C213.354,14.754 213.027333,14.6746667 212.738,14.516 C212.448667,14.3573333 212.201333,14.131 211.996,13.837 C211.790667,13.543 211.632,13.1883333 211.52,12.773 C211.408,12.3576667 211.352,11.8933333 211.352,11.38 C211.352,10.3533333 211.564333,9.54833333 211.989,8.965 C212.413667,8.38166667 212.99,8.09 213.718,8.09 C214.446,8.09 215.022333,8.38166667 215.447,8.965 C215.871667,9.54833333 216.084,10.3533333 216.084,11.38 C216.084,11.8933333 216.028,12.3576667 215.916,12.773 C215.804,13.1883333 215.645333,13.543 215.44,13.837 C215.234667,14.131 214.987333,14.3573333 214.698,14.516 C214.408667,14.6746667 214.082,14.754 213.718,14.754 Z M222.79,16.168 C223.172667,16.168 223.541333,16.084 223.896,15.916 C224.250667,15.748 224.563333,15.5053333 224.834,15.188 C225.104667,14.8706667 225.321667,14.481 225.485,14.019 C225.648333,13.557 225.73,13.032 225.73,12.444 C225.73,11.912 225.669333,11.4313333 225.548,11.002 C225.426667,10.5726667 225.249333,10.2063333 225.016,9.903 C224.782667,9.59966667 224.498,9.36633333 224.162,9.203 C223.826,9.03966667 223.443333,8.958 223.014,8.958 C222.659333,8.958 222.311667,9.03733333 221.971,9.196 C221.630333,9.35466667 221.315333,9.56 221.026,9.812 L221.026,9.812 L221.068,8.664 L221.068,6.116 L219.458,6.116 L219.458,16 L220.732,16 L220.872,15.272 L220.914,15.272 C221.203333,15.5613333 221.509,15.783 221.831,15.937 C222.153,16.091 222.472667,16.168 222.79,16.168 Z M222.454,14.838 C222.248667,14.838 222.027,14.796 221.789,14.712 C221.551,14.628 221.310667,14.4786667 221.068,14.264 L221.068,14.264 L221.068,11.058 C221.590667,10.5446667 222.094667,10.288 222.58,10.288 C223.102667,10.288 223.480667,10.4793333 223.714,10.862 C223.947333,11.2446667 224.064,11.7813333 224.064,12.472 C224.064,13.256 223.91,13.8463333 223.602,14.243 C223.294,14.6396667 222.911333,14.838 222.454,14.838 Z M228.908,16.168 C229.262667,16.168 229.547333,16.1213333 229.762,16.028 L229.762,16.028 L229.552,14.824 C229.486667,14.8426667 229.437667,14.852 229.405,14.852 L229.405,14.852 L229.3,14.852 C229.216,14.852 229.136667,14.8123333 229.062,14.733 C228.987333,14.6536667 228.95,14.516 228.95,14.32 L228.95,14.32 L228.95,6.116 L227.34,6.116 L227.34,14.236 C227.34,14.8333333 227.456667,15.3046667 227.69,15.65 C227.923333,15.9953333 228.329333,16.168 228.908,16.168 Z M231.946,7.922 C232.235333,7.922 232.473333,7.838 232.66,7.67 C232.846667,7.502 232.94,7.28266667 232.94,7.012 C232.94,6.74133333 232.846667,6.51966667 232.66,6.347 C232.473333,6.17433333 232.235333,6.088 231.946,6.088 C231.656667,6.088 231.418667,6.17433333 231.232,6.347 C231.045333,6.51966667 230.952,6.74133333 230.952,7.012 C230.952,7.28266667 231.045333,7.502 231.232,7.67 C231.418667,7.838 231.656667,7.922 231.946,7.922 Z M232.744,16 L232.744,9.126 L231.134,9.126 L231.134,16 L232.744,16 Z M237.196,19.038 C237.756,19.038 238.262333,18.975 238.715,18.849 C239.167667,18.723 239.552667,18.5526667 239.87,18.338 C240.187333,18.1233333 240.432333,17.8666667 240.605,17.568 C240.777667,17.2693333 240.864,16.952 240.864,16.616 C240.864,16.0186667 240.651667,15.587 240.227,15.321 C239.802333,15.055 239.174667,14.922 238.344,14.922 L238.344,14.922 L237.126,14.922 C236.706,14.922 236.414333,14.866 236.251,14.754 C236.087667,14.642 236.006,14.488 236.006,14.292 C236.006,14.1333333 236.036333,14.0073333 236.097,13.914 C236.157667,13.8206667 236.239333,13.7273333 236.342,13.634 C236.500667,13.6993333 236.659333,13.746 236.818,13.774 C236.976667,13.802 237.130667,13.816 237.28,13.816 C237.644,13.816 237.984667,13.7646667 238.302,13.662 C238.619333,13.5593333 238.894667,13.41 239.128,13.214 C239.361333,13.018 239.545667,12.7753333 239.681,12.486 C239.816333,12.1966667 239.884,11.8606667 239.884,11.478 C239.884,11.2353333 239.846667,11.0136667 239.772,10.813 C239.697333,10.6123333 239.604,10.4466667 239.492,10.316 L239.492,10.316 L240.752,10.316 L240.752,9.126 L238.288,9.126 C238.148,9.07933333 237.991667,9.03966667 237.819,9.007 C237.646333,8.97433333 237.466667,8.958 237.28,8.958 C236.916,8.958 236.570667,9.01166667 236.244,9.119 C235.917333,9.22633333 235.630333,9.385 235.383,9.595 C235.135667,9.805 234.937333,10.064 234.788,10.372 C234.638667,10.68 234.564,11.03 234.564,11.422 C234.564,11.8326667 234.655,12.1943333 234.837,12.507 C235.019,12.8196667 235.226667,13.0646667 235.46,13.242 L235.46,13.242 L235.46,13.298 C235.264,13.438 235.089,13.6176667 234.935,13.837 C234.781,14.0563333 234.704,14.3013333 234.704,14.572 C234.704,14.852 234.762333,15.0853333 234.879,15.272 C234.995667,15.4586667 235.142667,15.608 235.32,15.72 L235.32,15.72 L235.32,15.776 C235.002667,15.972 234.76,16.1936667 234.592,16.441 C234.424,16.6883333 234.34,16.9566667 234.34,17.246 C234.34,17.5446667 234.412333,17.806 234.557,18.03 C234.701667,18.254 234.9,18.4406667 235.152,18.59 C235.404,18.7393333 235.705,18.8513333 236.055,18.926 C236.405,19.0006667 236.785333,19.038 237.196,19.038 Z M237.28,12.808 C236.944,12.808 236.659333,12.689 236.426,12.451 C236.192667,12.213 236.076,11.87 236.076,11.422 C236.076,10.9833333 236.192667,10.6473333 236.426,10.414 C236.659333,10.1806667 236.944,10.064 237.28,10.064 C237.616,10.064 237.898333,10.183 238.127,10.421 C238.355667,10.659 238.47,10.9926667 238.47,11.422 C238.47,11.87 238.353333,12.213 238.12,12.451 C237.886667,12.689 237.606667,12.808 237.28,12.808 Z M237.448,17.988 C236.897333,17.988 236.465667,17.9016667 236.153,17.729 C235.840333,17.5563333 235.684,17.316 235.684,17.008 C235.684,16.672 235.861333,16.3686667 236.216,16.098 C236.468,16.1633333 236.780667,16.196 237.154,16.196 L237.154,16.196 L238.092,16.196 C238.484,16.196 238.785,16.2426667 238.995,16.336 C239.205,16.4293333 239.31,16.6113333 239.31,16.882 C239.31,17.1806667 239.139667,17.4396667 238.799,17.659 C238.458333,17.8783333 238.008,17.988 237.448,17.988 Z M243.496,16.168 C243.906667,16.168 244.287,16.0793333 244.637,15.902 C244.987,15.7246667 245.316,15.5053333 245.624,15.244 L245.624,15.244 L245.68,15.244 L245.792,16 L247.122,16 L247.122,11.926 C247.122,10.9646667 246.909667,10.2296667 246.485,9.721 C246.060333,9.21233333 245.418667,8.958 244.56,8.958 C244.009333,8.958 243.496,9.04666667 243.02,9.224 C242.544,9.40133333 242.114667,9.61133333 241.732,9.854 L241.732,9.854 L242.32,10.932 C242.628,10.7453333 242.943,10.5866667 243.265,10.456 C243.587,10.3253333 243.916,10.26 244.252,10.26 C244.485333,10.26 244.681333,10.295 244.84,10.365 C244.998667,10.435 245.127,10.533 245.225,10.659 C245.323,10.785 245.393,10.9296667 245.435,11.093 C245.477,11.2563333 245.502667,11.4266667 245.512,11.604 C244.802667,11.6786667 244.193667,11.786 243.685,11.926 C243.176333,12.066 242.756333,12.2386667 242.425,12.444 C242.093667,12.6493333 241.851,12.8943333 241.697,13.179 C241.543,13.4636667 241.466,13.788 241.466,14.152 C241.466,14.7586667 241.652667,15.2463333 242.026,15.615 C242.399333,15.9836667 242.889333,16.168 243.496,16.168 Z M244.014,14.908 C243.724667,14.908 243.486667,14.838 243.3,14.698 C243.113333,14.558 243.02,14.334 243.02,14.026 C243.02,13.858 243.062,13.6993333 243.146,13.55 C243.23,13.4006667 243.37,13.2676667 243.566,13.151 C243.762,13.0343333 244.018667,12.9293333 244.336,12.836 C244.653333,12.7426667 245.045333,12.668 245.512,12.612 L245.512,12.612 L245.512,14.152 C245.250667,14.3946667 245.005667,14.5813333 244.777,14.712 C244.548333,14.8426667 244.294,14.908 244.014,14.908 Z M251.252,16.168 C251.522667,16.168 251.777,16.1423333 252.015,16.091 C252.253,16.0396667 252.465333,15.9813333 252.652,15.916 L252.652,15.916 L252.372,14.726 C252.269333,14.7726667 252.155,14.81 252.029,14.838 C251.903,14.866 251.779333,14.88 251.658,14.88 C251.014,14.88 250.692,14.4786667 250.692,13.676 L250.692,13.676 L250.692,10.4 L252.442,10.4 L252.442,9.126 L250.692,9.126 L250.692,7.25 L249.348,7.25 L249.152,9.126 L248.088,9.196 L248.088,10.4 L249.068,10.4 L249.068,13.676 C249.068,14.0493333 249.107667,14.3876667 249.187,14.691 C249.266333,14.9943333 249.392333,15.2556667 249.565,15.475 C249.737667,15.6943333 249.961667,15.8646667 250.237,15.986 C250.512333,16.1073333 250.850667,16.168 251.252,16.168 Z M254.696,7.922 C254.985333,7.922 255.223333,7.838 255.41,7.67 C255.596667,7.502 255.69,7.28266667 255.69,7.012 C255.69,6.74133333 255.596667,6.51966667 255.41,6.347 C255.223333,6.17433333 254.985333,6.088 254.696,6.088 C254.406667,6.088 254.168667,6.17433333 253.982,6.347 C253.795333,6.51966667 253.702,6.74133333 253.702,7.012 C253.702,7.28266667 253.795333,7.502 253.982,7.67 C254.168667,7.838 254.406667,7.922 254.696,7.922 Z M255.494,16 L255.494,9.126 L253.884,9.126 L253.884,16 L255.494,16 Z M260.366,16.168 C260.795333,16.168 261.208333,16.0886667 261.605,15.93 C262.001667,15.7713333 262.349333,15.538 262.648,15.23 C262.946667,14.922 263.187,14.544 263.369,14.096 C263.551,13.648 263.642,13.1393333 263.642,12.57 C263.642,12.0006667 263.551,11.492 263.369,11.044 C263.187,10.596 262.946667,10.218 262.648,9.91 C262.349333,9.602 262.001667,9.36633333 261.605,9.203 C261.208333,9.03966667 260.795333,8.958 260.366,8.958 C259.936667,8.958 259.526,9.03966667 259.134,9.203 C258.742,9.36633333 258.394333,9.602 258.091,9.91 C257.787667,10.218 257.547333,10.596 257.37,11.044 C257.192667,11.492 257.104,12.0006667 257.104,12.57 C257.104,13.1393333 257.192667,13.648 257.37,14.096 C257.547333,14.544 257.787667,14.922 258.091,15.23 C258.394333,15.538 258.742,15.7713333 259.134,15.93 C259.526,16.0886667 259.936667,16.168 260.366,16.168 Z M260.366,14.852 C259.862,14.852 259.467667,14.6443333 259.183,14.229 C258.898333,13.8136667 258.756,13.2606667 258.756,12.57 C258.756,11.87 258.898333,11.3123333 259.183,10.897 C259.467667,10.4816667 259.862,10.274 260.366,10.274 C260.87,10.274 261.266667,10.4816667 261.556,10.897 C261.845333,11.3123333 261.99,11.87 261.99,12.57 C261.99,13.2606667 261.845333,13.8136667 261.556,14.229 C261.266667,14.6443333 260.87,14.852 260.366,14.852 Z M266.848,16 L266.848,11.198 C267.137333,10.918 267.396333,10.7056667 267.625,10.561 C267.853667,10.4163333 268.117333,10.344 268.416,10.344 C268.798667,10.344 269.074,10.4606667 269.242,10.694 C269.41,10.9273333 269.494,11.3286667 269.494,11.898 L269.494,11.898 L269.494,16 L271.104,16 L271.104,11.688 C271.104,10.8106667 270.936,10.1363333 270.6,9.665 C270.264,9.19366667 269.727333,8.958 268.99,8.958 C268.514,8.958 268.096333,9.06533333 267.737,9.28 C267.377667,9.49466667 267.044,9.75133333 266.736,10.05 L266.736,10.05 L266.68,10.05 L266.568,9.126 L265.238,9.126 L265.238,16 L266.848,16 Z M274.996,16.168 C275.425333,16.168 275.808,16.112 276.144,16 C276.48,15.888 276.76,15.7363333 276.984,15.545 C277.208,15.3536667 277.378333,15.1296667 277.495,14.873 C277.611667,14.6163333 277.67,14.3386667 277.67,14.04 C277.67,13.7226667 277.611667,13.4496667 277.495,13.221 C277.378333,12.9923333 277.224333,12.7986667 277.033,12.64 C276.841667,12.4813333 276.629333,12.3483333 276.396,12.241 C276.162667,12.1336667 275.929333,12.038 275.696,11.954 C275.509333,11.8886667 275.329667,11.8233333 275.157,11.758 C274.984333,11.6926667 274.832667,11.6226667 274.702,11.548 C274.571333,11.4733333 274.466333,11.387 274.387,11.289 C274.307667,11.191 274.268,11.072 274.268,10.932 C274.268,10.7173333 274.349667,10.5376667 274.513,10.393 C274.676333,10.2483333 274.930667,10.176 275.276,10.176 C275.546667,10.176 275.805667,10.2296667 276.053,10.337 C276.300333,10.4443333 276.545333,10.5866667 276.788,10.764 L276.788,10.764 L277.53,9.784 C277.25,9.56933333 276.918667,9.378 276.536,9.21 C276.153333,9.042 275.724,8.958 275.248,8.958 C274.473333,8.958 273.862,9.14933333 273.414,9.532 C272.966,9.91466667 272.742,10.4093333 272.742,11.016 C272.742,11.3053333 272.800333,11.555 272.917,11.765 C273.033667,11.975 273.183,12.1593333 273.365,12.318 C273.547,12.4766667 273.754667,12.612 273.988,12.724 C274.221333,12.836 274.45,12.934 274.674,13.018 C274.851333,13.0926667 275.028667,13.165 275.206,13.235 C275.383333,13.305 275.542,13.382 275.682,13.466 C275.822,13.55 275.934,13.6456667 276.018,13.753 C276.102,13.8603333 276.144,13.984 276.144,14.124 C276.144,14.3666667 276.055333,14.565 275.878,14.719 C275.700667,14.873 275.425333,14.95 275.052,14.95 C274.697333,14.95 274.368333,14.8823333 274.065,14.747 C273.761667,14.6116667 273.456,14.4226667 273.148,14.18 L273.148,14.18 L272.392,15.216 C272.728,15.4866667 273.127,15.713 273.589,15.895 C274.051,16.077 274.52,16.168 274.996,16.168 Z M212.948,35.54 L212.948,34.126 C213.62,34.0326667 214.149667,33.7713333 214.537,33.342 C214.924333,32.9126667 215.118,32.362 215.118,31.69 C215.118,31.186 215.022333,30.773 214.831,30.451 C214.639667,30.129 214.399333,29.8583333 214.11,29.639 C213.820667,29.4196667 213.505667,29.233 213.165,29.079 C212.824333,28.925 212.509333,28.7663333 212.22,28.603 C211.930667,28.4396667 211.690333,28.2506667 211.499,28.036 C211.307667,27.8213333 211.212,27.546 211.212,27.21 C211.212,26.7993333 211.338,26.4726667 211.59,26.23 C211.842,25.9873333 212.182667,25.866 212.612,25.866 C212.994667,25.866 213.309667,25.936 213.557,26.076 C213.804333,26.216 214.058667,26.412 214.32,26.664 L214.32,26.664 L214.936,25.978 C214.684,25.7073333 214.401667,25.474 214.089,25.278 C213.776333,25.082 213.396,24.9606667 212.948,24.914 L212.948,24.914 L212.948,23.528 L212.108,23.528 L212.108,24.942 C211.492,25.0353333 210.999667,25.2896667 210.631,25.705 C210.262333,26.1203333 210.078,26.6406667 210.078,27.266 C210.078,27.7233333 210.173667,28.099 210.365,28.393 C210.556333,28.687 210.796667,28.9366667 211.086,29.142 C211.375333,29.3473333 211.690333,29.5293333 212.031,29.688 C212.371667,29.8466667 212.686667,30.017 212.976,30.199 C213.265333,30.381 213.505667,30.5956667 213.697,30.843 C213.888333,31.0903333 213.984,31.4006667 213.984,31.774 C213.984,32.2126667 213.855667,32.5626667 213.599,32.824 C213.342333,33.0853333 212.952667,33.216 212.43,33.216 C212.000667,33.216 211.606333,33.125 211.247,32.943 C210.887667,32.761 210.558667,32.5393333 210.26,32.278 L210.26,32.278 L209.728,33.076 C210.026667,33.3466667 210.386,33.5823333 210.806,33.783 C211.226,33.9836667 211.66,34.1073333 212.108,34.154 L212.108,34.154 L212.108,35.54 L212.948,35.54 Z M222.104,34 L222.104,33.048 L220.256,33.048 L220.256,25.068 L219.374,25.068 C219.131333,25.2173333 218.858333,25.3456667 218.555,25.453 C218.251667,25.5603333 217.894667,25.6513333 217.484,25.726 L217.484,25.726 L217.484,26.468 L219.108,26.468 L219.108,33.048 L217.064,33.048 L217.064,34 L222.104,34 Z M226.402,34.168 C227.298,34.168 227.998,33.7666667 228.502,32.964 C229.006,32.1613333 229.258,31.0086667 229.258,29.506 C229.258,28.0033333 229.006,26.86 228.502,26.076 C227.998,25.292 227.298,24.9 226.402,24.9 C225.496667,24.9 224.792,25.292 224.288,26.076 C223.784,26.86 223.532,28.0033333 223.532,29.506 C223.532,31.0086667 223.784,32.1613333 224.288,32.964 C224.792,33.7666667 225.496667,34.168 226.402,34.168 Z M226.402,33.244 C225.879333,33.244 225.457,32.9476667 225.135,32.355 C224.813,31.7623333 224.652,30.8126667 224.652,29.506 C224.652,28.8526667 224.694,28.2926667 224.778,27.826 C224.862,27.3593333 224.981,26.979 225.135,26.685 C225.289,26.391 225.473333,26.174 225.688,26.034 C225.902667,25.894 226.140667,25.824 226.402,25.824 C226.663333,25.824 226.899,25.894 227.109,26.034 C227.319,26.174 227.501,26.391 227.655,26.685 C227.809,26.979 227.928,27.3593333 228.012,27.826 C228.096,28.2926667 228.138,28.8526667 228.138,29.506 C228.138,30.1593333 228.096,30.7216667 228.012,31.193 C227.928,31.6643333 227.809,32.0516667 227.655,32.355 C227.501,32.6583333 227.319,32.8823333 227.109,33.027 C226.899,33.1716667 226.663333,33.244 226.402,33.244 Z M234.06,34 C234.573333,34 235.044667,33.944 235.474,33.832 C235.903333,33.72 236.272,33.552 236.58,33.328 C236.888,33.104 237.126,32.824 237.294,32.488 C237.462,32.152 237.546,31.76 237.546,31.312 C237.546,30.6773333 237.373333,30.178 237.028,29.814 C236.682667,29.45 236.23,29.2166667 235.67,29.114 L235.67,29.114 L235.67,29.058 C236.108667,28.918 236.442333,28.6636667 236.671,28.295 C236.899667,27.9263333 237.014,27.5133333 237.014,27.056 C237.014,26.6546667 236.937,26.3116667 236.783,26.027 C236.629,25.7423333 236.414333,25.5113333 236.139,25.334 C235.863667,25.1566667 235.532333,25.026 235.145,24.942 C234.757667,24.858 234.330667,24.816 233.864,24.816 L233.864,24.816 L231.134,24.816 L231.134,34 L234.06,34 Z M233.654,28.722 L232.296,28.722 L232.296,25.74 L233.71,25.74 C234.428667,25.74 234.967667,25.852 235.327,26.076 C235.686333,26.3 235.866,26.678 235.866,27.21 C235.866,27.6766667 235.693333,28.0453333 235.348,28.316 C235.002667,28.5866667 234.438,28.722 233.654,28.722 L233.654,28.722 Z M233.892,33.076 L232.296,33.076 L232.296,29.618 L233.892,29.618 C234.704,29.618 235.324667,29.751 235.754,30.017 C236.183333,30.283 236.398,30.7006667 236.398,31.27 C236.398,31.886 236.178667,32.341 235.74,32.635 C235.301333,32.929 234.685333,33.076 233.892,33.076 L233.892,33.076 Z" id="Obligations$10B" fill="#666666" fill-rule="nonzero"></path>
                <path d="M308.592,16.168 C309.124,16.168 309.602333,16.091 310.027,15.937 C310.451667,15.783 310.815667,15.538 311.119,15.202 C311.422333,14.866 311.653333,14.4343333 311.812,13.907 C311.970667,13.3796667 312.05,12.738 312.05,11.982 L312.05,11.982 L312.05,6.844 L310.496,6.844 L310.496,12.108 C310.496,12.6026667 310.449333,13.0203333 310.356,13.361 C310.262667,13.7016667 310.132,13.9746667 309.964,14.18 C309.796,14.3853333 309.595333,14.5323333 309.362,14.621 C309.128667,14.7096667 308.872,14.754 308.592,14.754 C308.312,14.754 308.06,14.7096667 307.836,14.621 C307.612,14.5323333 307.418333,14.3853333 307.255,14.18 C307.091667,13.9746667 306.965667,13.7016667 306.877,13.361 C306.788333,13.0203333 306.744,12.6026667 306.744,12.108 L306.744,12.108 L306.744,6.844 L305.12,6.844 L305.12,11.982 C305.12,12.738 305.201667,13.3796667 305.365,13.907 C305.528333,14.4343333 305.761667,14.866 306.065,15.202 C306.368333,15.538 306.732333,15.783 307.157,15.937 C307.581667,16.091 308.06,16.168 308.592,16.168 Z M315.802,16 L315.802,11.198 C316.091333,10.918 316.350333,10.7056667 316.579,10.561 C316.807667,10.4163333 317.071333,10.344 317.37,10.344 C317.752667,10.344 318.028,10.4606667 318.196,10.694 C318.364,10.9273333 318.448,11.3286667 318.448,11.898 L318.448,11.898 L318.448,16 L320.058,16 L320.058,11.688 C320.058,10.8106667 319.89,10.1363333 319.554,9.665 C319.218,9.19366667 318.681333,8.958 317.944,8.958 C317.468,8.958 317.050333,9.06533333 316.691,9.28 C316.331667,9.49466667 315.998,9.75133333 315.69,10.05 L315.69,10.05 L315.634,10.05 L315.522,9.126 L314.192,9.126 L314.192,16 L315.802,16 Z M324.846,16.168 C325.275333,16.168 325.688333,16.0886667 326.085,15.93 C326.481667,15.7713333 326.829333,15.538 327.128,15.23 C327.426667,14.922 327.667,14.544 327.849,14.096 C328.031,13.648 328.122,13.1393333 328.122,12.57 C328.122,12.0006667 328.031,11.492 327.849,11.044 C327.667,10.596 327.426667,10.218 327.128,9.91 C326.829333,9.602 326.481667,9.36633333 326.085,9.203 C325.688333,9.03966667 325.275333,8.958 324.846,8.958 C324.416667,8.958 324.006,9.03966667 323.614,9.203 C323.222,9.36633333 322.874333,9.602 322.571,9.91 C322.267667,10.218 322.027333,10.596 321.85,11.044 C321.672667,11.492 321.584,12.0006667 321.584,12.57 C321.584,13.1393333 321.672667,13.648 321.85,14.096 C322.027333,14.544 322.267667,14.922 322.571,15.23 C322.874333,15.538 323.222,15.7713333 323.614,15.93 C324.006,16.0886667 324.416667,16.168 324.846,16.168 Z M324.846,14.852 C324.342,14.852 323.947667,14.6443333 323.663,14.229 C323.378333,13.8136667 323.236,13.2606667 323.236,12.57 C323.236,11.87 323.378333,11.3123333 323.663,10.897 C323.947667,10.4816667 324.342,10.274 324.846,10.274 C325.35,10.274 325.746667,10.4816667 326.036,10.897 C326.325333,11.3123333 326.47,11.87 326.47,12.57 C326.47,13.2606667 326.325333,13.8136667 326.036,14.229 C325.746667,14.6443333 325.35,14.852 324.846,14.852 Z M333.05,16.168 C333.432667,16.168 333.801333,16.084 334.156,15.916 C334.510667,15.748 334.823333,15.5053333 335.094,15.188 C335.364667,14.8706667 335.581667,14.481 335.745,14.019 C335.908333,13.557 335.99,13.032 335.99,12.444 C335.99,11.912 335.929333,11.4313333 335.808,11.002 C335.686667,10.5726667 335.509333,10.2063333 335.276,9.903 C335.042667,9.59966667 334.758,9.36633333 334.422,9.203 C334.086,9.03966667 333.703333,8.958 333.274,8.958 C332.919333,8.958 332.571667,9.03733333 332.231,9.196 C331.890333,9.35466667 331.575333,9.56 331.286,9.812 L331.286,9.812 L331.328,8.664 L331.328,6.116 L329.718,6.116 L329.718,16 L330.992,16 L331.132,15.272 L331.174,15.272 C331.463333,15.5613333 331.769,15.783 332.091,15.937 C332.413,16.091 332.732667,16.168 333.05,16.168 Z M332.714,14.838 C332.508667,14.838 332.287,14.796 332.049,14.712 C331.811,14.628 331.570667,14.4786667 331.328,14.264 L331.328,14.264 L331.328,11.058 C331.850667,10.5446667 332.354667,10.288 332.84,10.288 C333.362667,10.288 333.740667,10.4793333 333.974,10.862 C334.207333,11.2446667 334.324,11.7813333 334.324,12.472 C334.324,13.256 334.17,13.8463333 333.862,14.243 C333.554,14.6396667 333.171333,14.838 332.714,14.838 Z M339.168,16.168 C339.522667,16.168 339.807333,16.1213333 340.022,16.028 L340.022,16.028 L339.812,14.824 C339.746667,14.8426667 339.697667,14.852 339.665,14.852 L339.665,14.852 L339.56,14.852 C339.476,14.852 339.396667,14.8123333 339.322,14.733 C339.247333,14.6536667 339.21,14.516 339.21,14.32 L339.21,14.32 L339.21,6.116 L337.6,6.116 L337.6,14.236 C337.6,14.8333333 337.716667,15.3046667 337.95,15.65 C338.183333,15.9953333 338.589333,16.168 339.168,16.168 Z M342.206,7.922 C342.495333,7.922 342.733333,7.838 342.92,7.67 C343.106667,7.502 343.2,7.28266667 343.2,7.012 C343.2,6.74133333 343.106667,6.51966667 342.92,6.347 C342.733333,6.17433333 342.495333,6.088 342.206,6.088 C341.916667,6.088 341.678667,6.17433333 341.492,6.347 C341.305333,6.51966667 341.212,6.74133333 341.212,7.012 C341.212,7.28266667 341.305333,7.502 341.492,7.67 C341.678667,7.838 341.916667,7.922 342.206,7.922 Z M343.004,16 L343.004,9.126 L341.394,9.126 L341.394,16 L343.004,16 Z M347.456,19.038 C348.016,19.038 348.522333,18.975 348.975,18.849 C349.427667,18.723 349.812667,18.5526667 350.13,18.338 C350.447333,18.1233333 350.692333,17.8666667 350.865,17.568 C351.037667,17.2693333 351.124,16.952 351.124,16.616 C351.124,16.0186667 350.911667,15.587 350.487,15.321 C350.062333,15.055 349.434667,14.922 348.604,14.922 L348.604,14.922 L347.386,14.922 C346.966,14.922 346.674333,14.866 346.511,14.754 C346.347667,14.642 346.266,14.488 346.266,14.292 C346.266,14.1333333 346.296333,14.0073333 346.357,13.914 C346.417667,13.8206667 346.499333,13.7273333 346.602,13.634 C346.760667,13.6993333 346.919333,13.746 347.078,13.774 C347.236667,13.802 347.390667,13.816 347.54,13.816 C347.904,13.816 348.244667,13.7646667 348.562,13.662 C348.879333,13.5593333 349.154667,13.41 349.388,13.214 C349.621333,13.018 349.805667,12.7753333 349.941,12.486 C350.076333,12.1966667 350.144,11.8606667 350.144,11.478 C350.144,11.2353333 350.106667,11.0136667 350.032,10.813 C349.957333,10.6123333 349.864,10.4466667 349.752,10.316 L349.752,10.316 L351.012,10.316 L351.012,9.126 L348.548,9.126 C348.408,9.07933333 348.251667,9.03966667 348.079,9.007 C347.906333,8.97433333 347.726667,8.958 347.54,8.958 C347.176,8.958 346.830667,9.01166667 346.504,9.119 C346.177333,9.22633333 345.890333,9.385 345.643,9.595 C345.395667,9.805 345.197333,10.064 345.048,10.372 C344.898667,10.68 344.824,11.03 344.824,11.422 C344.824,11.8326667 344.915,12.1943333 345.097,12.507 C345.279,12.8196667 345.486667,13.0646667 345.72,13.242 L345.72,13.242 L345.72,13.298 C345.524,13.438 345.349,13.6176667 345.195,13.837 C345.041,14.0563333 344.964,14.3013333 344.964,14.572 C344.964,14.852 345.022333,15.0853333 345.139,15.272 C345.255667,15.4586667 345.402667,15.608 345.58,15.72 L345.58,15.72 L345.58,15.776 C345.262667,15.972 345.02,16.1936667 344.852,16.441 C344.684,16.6883333 344.6,16.9566667 344.6,17.246 C344.6,17.5446667 344.672333,17.806 344.817,18.03 C344.961667,18.254 345.16,18.4406667 345.412,18.59 C345.664,18.7393333 345.965,18.8513333 346.315,18.926 C346.665,19.0006667 347.045333,19.038 347.456,19.038 Z M347.54,12.808 C347.204,12.808 346.919333,12.689 346.686,12.451 C346.452667,12.213 346.336,11.87 346.336,11.422 C346.336,10.9833333 346.452667,10.6473333 346.686,10.414 C346.919333,10.1806667 347.204,10.064 347.54,10.064 C347.876,10.064 348.158333,10.183 348.387,10.421 C348.615667,10.659 348.73,10.9926667 348.73,11.422 C348.73,11.87 348.613333,12.213 348.38,12.451 C348.146667,12.689 347.866667,12.808 347.54,12.808 Z M347.708,17.988 C347.157333,17.988 346.725667,17.9016667 346.413,17.729 C346.100333,17.5563333 345.944,17.316 345.944,17.008 C345.944,16.672 346.121333,16.3686667 346.476,16.098 C346.728,16.1633333 347.040667,16.196 347.414,16.196 L347.414,16.196 L348.352,16.196 C348.744,16.196 349.045,16.2426667 349.255,16.336 C349.465,16.4293333 349.57,16.6113333 349.57,16.882 C349.57,17.1806667 349.399667,17.4396667 349.059,17.659 C348.718333,17.8783333 348.268,17.988 347.708,17.988 Z M353.756,16.168 C354.166667,16.168 354.547,16.0793333 354.897,15.902 C355.247,15.7246667 355.576,15.5053333 355.884,15.244 L355.884,15.244 L355.94,15.244 L356.052,16 L357.382,16 L357.382,11.926 C357.382,10.9646667 357.169667,10.2296667 356.745,9.721 C356.320333,9.21233333 355.678667,8.958 354.82,8.958 C354.269333,8.958 353.756,9.04666667 353.28,9.224 C352.804,9.40133333 352.374667,9.61133333 351.992,9.854 L351.992,9.854 L352.58,10.932 C352.888,10.7453333 353.203,10.5866667 353.525,10.456 C353.847,10.3253333 354.176,10.26 354.512,10.26 C354.745333,10.26 354.941333,10.295 355.1,10.365 C355.258667,10.435 355.387,10.533 355.485,10.659 C355.583,10.785 355.653,10.9296667 355.695,11.093 C355.737,11.2563333 355.762667,11.4266667 355.772,11.604 C355.062667,11.6786667 354.453667,11.786 353.945,11.926 C353.436333,12.066 353.016333,12.2386667 352.685,12.444 C352.353667,12.6493333 352.111,12.8943333 351.957,13.179 C351.803,13.4636667 351.726,13.788 351.726,14.152 C351.726,14.7586667 351.912667,15.2463333 352.286,15.615 C352.659333,15.9836667 353.149333,16.168 353.756,16.168 Z M354.274,14.908 C353.984667,14.908 353.746667,14.838 353.56,14.698 C353.373333,14.558 353.28,14.334 353.28,14.026 C353.28,13.858 353.322,13.6993333 353.406,13.55 C353.49,13.4006667 353.63,13.2676667 353.826,13.151 C354.022,13.0343333 354.278667,12.9293333 354.596,12.836 C354.913333,12.7426667 355.305333,12.668 355.772,12.612 L355.772,12.612 L355.772,14.152 C355.510667,14.3946667 355.265667,14.5813333 355.037,14.712 C354.808333,14.8426667 354.554,14.908 354.274,14.908 Z M361.512,16.168 C361.782667,16.168 362.037,16.1423333 362.275,16.091 C362.513,16.0396667 362.725333,15.9813333 362.912,15.916 L362.912,15.916 L362.632,14.726 C362.529333,14.7726667 362.415,14.81 362.289,14.838 C362.163,14.866 362.039333,14.88 361.918,14.88 C361.274,14.88 360.952,14.4786667 360.952,13.676 L360.952,13.676 L360.952,10.4 L362.702,10.4 L362.702,9.126 L360.952,9.126 L360.952,7.25 L359.608,7.25 L359.412,9.126 L358.348,9.196 L358.348,10.4 L359.328,10.4 L359.328,13.676 C359.328,14.0493333 359.367667,14.3876667 359.447,14.691 C359.526333,14.9943333 359.652333,15.2556667 359.825,15.475 C359.997667,15.6943333 360.221667,15.8646667 360.497,15.986 C360.772333,16.1073333 361.110667,16.168 361.512,16.168 Z M366.86,16.168 C367.298667,16.168 367.718667,16.098 368.12,15.958 C368.521333,15.818 368.885333,15.6406667 369.212,15.426 L369.212,15.426 L368.666,14.418 C368.414,14.5766667 368.159667,14.7003333 367.903,14.789 C367.646333,14.8776667 367.368667,14.922 367.07,14.922 C366.51,14.922 366.050333,14.7563333 365.691,14.425 C365.331667,14.0936667 365.114667,13.62 365.04,13.004 L365.04,13.004 L369.408,13.004 C369.426667,12.92 369.443,12.808 369.457,12.668 C369.471,12.528 369.478,12.3786667 369.478,12.22 C369.478,11.744 369.417333,11.3053333 369.296,10.904 C369.174667,10.5026667 368.995,10.1573333 368.757,9.868 C368.519,9.57866667 368.222667,9.35466667 367.868,9.196 C367.513333,9.03733333 367.102667,8.958 366.636,8.958 C366.234667,8.958 365.842667,9.042 365.46,9.21 C365.077333,9.378 364.739,9.616 364.445,9.924 C364.151,10.232 363.915333,10.61 363.738,11.058 C363.560667,11.506 363.472,12.01 363.472,12.57 C363.472,13.1393333 363.558333,13.6456667 363.731,14.089 C363.903667,14.5323333 364.144,14.908 364.452,15.216 C364.76,15.524 365.119333,15.7596667 365.53,15.923 C365.940667,16.0863333 366.384,16.168 366.86,16.168 Z M368.078,11.912 L365.026,11.912 C365.100667,11.352 365.292,10.9273333 365.6,10.638 C365.908,10.3486667 366.267333,10.204 366.678,10.204 C367.154,10.204 367.506333,10.3556667 367.735,10.659 C367.963667,10.9623333 368.078,11.38 368.078,11.912 L368.078,11.912 Z M373.426,16.168 C373.799333,16.168 374.154,16.0793333 374.49,15.902 C374.826,15.7246667 375.12,15.51 375.372,15.258 L375.372,15.258 L375.428,15.258 L375.54,16 L376.87,16 L376.87,6.116 L375.26,6.116 L375.26,8.608 L375.316,9.714 C375.045333,9.48066667 374.774667,9.29633333 374.504,9.161 C374.233333,9.02566667 373.902,8.958 373.51,8.958 C373.136667,8.958 372.775,9.042 372.425,9.21 C372.075,9.378 371.764667,9.616 371.494,9.924 C371.223333,10.232 371.006333,10.61 370.843,11.058 C370.679667,11.506 370.598,12.01 370.598,12.57 C370.598,13.7086667 370.852333,14.593 371.361,15.223 C371.869667,15.853 372.558,16.168 373.426,16.168 Z M373.818,14.838 C373.314,14.838 372.929,14.6443333 372.663,14.257 C372.397,13.8696667 372.264,13.3026667 372.264,12.556 C372.264,11.828 372.418,11.268 372.726,10.876 C373.034,10.484 373.412,10.288 373.86,10.288 C374.093333,10.288 374.324333,10.33 374.553,10.414 C374.781667,10.498 375.017333,10.6473333 375.26,10.862 L375.26,10.862 L375.26,14.068 C374.812,14.5813333 374.331333,14.838 373.818,14.838 Z M307.948,35.54 L307.948,34.126 C308.62,34.0326667 309.149667,33.7713333 309.537,33.342 C309.924333,32.9126667 310.118,32.362 310.118,31.69 C310.118,31.186 310.022333,30.773 309.831,30.451 C309.639667,30.129 309.399333,29.8583333 309.11,29.639 C308.820667,29.4196667 308.505667,29.233 308.165,29.079 C307.824333,28.925 307.509333,28.7663333 307.22,28.603 C306.930667,28.4396667 306.690333,28.2506667 306.499,28.036 C306.307667,27.8213333 306.212,27.546 306.212,27.21 C306.212,26.7993333 306.338,26.4726667 306.59,26.23 C306.842,25.9873333 307.182667,25.866 307.612,25.866 C307.994667,25.866 308.309667,25.936 308.557,26.076 C308.804333,26.216 309.058667,26.412 309.32,26.664 L309.32,26.664 L309.936,25.978 C309.684,25.7073333 309.401667,25.474 309.089,25.278 C308.776333,25.082 308.396,24.9606667 307.948,24.914 L307.948,24.914 L307.948,23.528 L307.108,23.528 L307.108,24.942 C306.492,25.0353333 305.999667,25.2896667 305.631,25.705 C305.262333,26.1203333 305.078,26.6406667 305.078,27.266 C305.078,27.7233333 305.173667,28.099 305.365,28.393 C305.556333,28.687 305.796667,28.9366667 306.086,29.142 C306.375333,29.3473333 306.690333,29.5293333 307.031,29.688 C307.371667,29.8466667 307.686667,30.017 307.976,30.199 C308.265333,30.381 308.505667,30.5956667 308.697,30.843 C308.888333,31.0903333 308.984,31.4006667 308.984,31.774 C308.984,32.2126667 308.855667,32.5626667 308.599,32.824 C308.342333,33.0853333 307.952667,33.216 307.43,33.216 C307.000667,33.216 306.606333,33.125 306.247,32.943 C305.887667,32.761 305.558667,32.5393333 305.26,32.278 L305.26,32.278 L304.728,33.076 C305.026667,33.3466667 305.386,33.5823333 305.806,33.783 C306.226,33.9836667 306.66,34.1073333 307.108,34.154 L307.108,34.154 L307.108,35.54 L307.948,35.54 Z M314.626,34 C314.663333,33.132 314.726333,32.341 314.815,31.627 C314.903667,30.913 315.046,30.2363333 315.242,29.597 C315.438,28.9576667 315.701667,28.33 316.033,27.714 C316.364333,27.098 316.796,26.454 317.328,25.782 L317.328,25.782 L317.328,25.068 L311.574,25.068 L311.574,26.062 L316.026,26.062 C315.587333,26.678 315.211667,27.28 314.899,27.868 C314.586333,28.456 314.329667,29.065 314.129,29.695 C313.928333,30.325 313.772,30.99 313.66,31.69 C313.548,32.39 313.473333,33.16 313.436,34 L313.436,34 L314.626,34 Z M322.102,34 C322.615333,34 323.086667,33.944 323.516,33.832 C323.945333,33.72 324.314,33.552 324.622,33.328 C324.93,33.104 325.168,32.824 325.336,32.488 C325.504,32.152 325.588,31.76 325.588,31.312 C325.588,30.6773333 325.415333,30.178 325.07,29.814 C324.724667,29.45 324.272,29.2166667 323.712,29.114 L323.712,29.114 L323.712,29.058 C324.150667,28.918 324.484333,28.6636667 324.713,28.295 C324.941667,27.9263333 325.056,27.5133333 325.056,27.056 C325.056,26.6546667 324.979,26.3116667 324.825,26.027 C324.671,25.7423333 324.456333,25.5113333 324.181,25.334 C323.905667,25.1566667 323.574333,25.026 323.187,24.942 C322.799667,24.858 322.372667,24.816 321.906,24.816 L321.906,24.816 L319.176,24.816 L319.176,34 L322.102,34 Z M321.696,28.722 L320.338,28.722 L320.338,25.74 L321.752,25.74 C322.470667,25.74 323.009667,25.852 323.369,26.076 C323.728333,26.3 323.908,26.678 323.908,27.21 C323.908,27.6766667 323.735333,28.0453333 323.39,28.316 C323.044667,28.5866667 322.48,28.722 321.696,28.722 L321.696,28.722 Z M321.934,33.076 L320.338,33.076 L320.338,29.618 L321.934,29.618 C322.746,29.618 323.366667,29.751 323.796,30.017 C324.225333,30.283 324.44,30.7006667 324.44,31.27 C324.44,31.886 324.220667,32.341 323.782,32.635 C323.343333,32.929 322.727333,33.076 321.934,33.076 L321.934,33.076 Z" id="Unobligated$7B" fill="#666666" fill-rule="nonzero"></path>
                <path d="M112,2 L106,2 C104.895431,2 104,2.8954305 104,4 L104,36 C104,37.1045695 104.895431,38 106,38 L112,38 L112,38" id="Line-2" stroke="#C6C6C6" stroke-linecap="round"></path>
                <line x1="103.5" y1="20.5" x2="63.5" y2="20.5" id="Line-4" stroke="#C6C6C6" stroke-linecap="round"></line>
                <path d="M20.992,27.76 L20.992,26.096 C21.824,25.9146667 22.448,25.5493333 22.864,25 C23.28,24.4506667 23.488,23.792 23.488,23.024 C23.488,22.512 23.384,22.0826667 23.176,21.736 C22.968,21.3893333 22.7066667,21.0933333 22.392,20.848 C22.0773333,20.6026667 21.7386667,20.3946667 21.376,20.224 C21.0133333,20.0533333 20.6746667,19.888 20.36,19.728 C20.0453333,19.568 19.784,19.4 19.576,19.224 C19.368,19.048 19.264,18.832 19.264,18.576 C19.264,18.2133333 19.3653333,17.952 19.568,17.792 C19.7706667,17.632 20.064,17.552 20.448,17.552 C20.7893333,17.552 21.0933333,17.6186667 21.36,17.752 C21.6266667,17.8853333 21.904,18.0853333 22.192,18.352 L22.192,18.352 L23.376,17.008 C23.0666667,16.6773333 22.72,16.3946667 22.336,16.16 C21.952,15.9253333 21.504,15.7706667 20.992,15.696 L20.992,15.696 L20.992,14.08 L19.44,14.08 L19.44,15.728 C18.6826667,15.8773333 18.088,16.2106667 17.656,16.728 C17.224,17.2453333 17.008,17.8986667 17.008,18.688 C17.008,19.168 17.112,19.5733333 17.32,19.904 C17.528,20.2346667 17.7893333,20.5226667 18.104,20.768 C18.4186667,21.0133333 18.7573333,21.224 19.12,21.4 C19.4826667,21.576 19.8213333,21.752 20.136,21.928 C20.4506667,22.104 20.712,22.288 20.92,22.48 C21.128,22.672 21.232,22.9066667 21.232,23.184 C21.232,23.5573333 21.128,23.8346667 20.92,24.016 C20.712,24.1973333 20.384,24.288 19.936,24.288 C19.552,24.288 19.176,24.2106667 18.808,24.056 C18.44,23.9013333 18.0533333,23.6693333 17.648,23.36 L17.648,23.36 L16.624,24.944 C16.9973333,25.2853333 17.4426667,25.56 17.96,25.768 C18.4773333,25.976 18.9706667,26.1066667 19.44,26.16 L19.44,26.16 L19.44,27.76 L20.992,27.76 Z M32.032,26 L32.032,24.096 L30.128,24.096 L30.128,15.84 L28.4,15.84 C28.0373333,16.0533333 27.664,16.2346667 27.28,16.384 C26.896,16.5333333 26.4266667,16.6613333 25.872,16.768 L25.872,16.768 L25.872,18.224 L27.776,18.224 L27.776,24.096 L25.568,24.096 L25.568,26 L32.032,26 Z M37.808,26 C37.8506667,25.008 37.9146667,24.1306667 38,23.368 C38.0853333,22.6053333 38.2266667,21.8906667 38.424,21.224 C38.6213333,20.5573333 38.8986667,19.912 39.256,19.288 C39.6133333,18.664 40.0853333,17.9946667 40.672,17.28 L40.672,17.28 L40.672,15.84 L33.6,15.84 L33.6,17.824 L38.16,17.824 C37.68,18.4853333 37.2773333,19.1253333 36.952,19.744 C36.6266667,20.3626667 36.36,20.9946667 36.152,21.64 C35.944,22.2853333 35.784,22.9626667 35.672,23.672 C35.56,24.3813333 35.4826667,25.1573333 35.44,26 L35.44,26 L37.808,26 Z M46.448,26 C47.0133333,26 47.5413333,25.9386667 48.032,25.816 C48.5226667,25.6933333 48.952,25.5066667 49.32,25.256 C49.688,25.0053333 49.976,24.688 50.184,24.304 C50.392,23.92 50.496,23.4613333 50.496,22.928 C50.496,22.576 50.448,22.264 50.352,21.992 C50.256,21.72 50.1226667,21.4826667 49.952,21.28 C49.7813333,21.0773333 49.584,20.9093333 49.36,20.776 C49.136,20.6426667 48.8906667,20.544 48.624,20.48 L48.624,20.48 L48.624,20.416 C48.8373333,20.3413333 49.0266667,20.224 49.192,20.064 C49.3573333,19.904 49.4986667,19.7226667 49.616,19.52 C49.7333333,19.3173333 49.824,19.0986667 49.888,18.864 C49.952,18.6293333 49.984,18.3946667 49.984,18.16 C49.984,17.6586667 49.8853333,17.2426667 49.688,16.912 C49.4906667,16.5813333 49.2186667,16.3146667 48.872,16.112 C48.5253333,15.9093333 48.12,15.768 47.656,15.688 C47.192,15.608 46.688,15.568 46.144,15.568 L46.144,15.568 L42.576,15.568 L42.576,26 L46.448,26 Z M46.032,19.744 L44.928,19.744 L44.928,17.392 L46.048,17.392 C46.6026667,17.392 47.0133333,17.4773333 47.28,17.648 C47.5466667,17.8186667 47.68,18.1066667 47.68,18.512 C47.68,18.8853333 47.5493333,19.184 47.288,19.408 C47.0266667,19.632 46.608,19.744 46.032,19.744 L46.032,19.744 Z M46.256,24.176 L44.928,24.176 L44.928,21.488 L46.256,21.488 C46.9066667,21.488 47.392,21.5866667 47.712,21.784 C48.032,21.9813333 48.192,22.3093333 48.192,22.768 C48.192,23.7066667 47.5466667,24.176 46.256,24.176 L46.256,24.176 Z" id="$17B" fill="#555555" fill-rule="nonzero"></path>
            </g>
        </g>
    </g>
</svg>