<?xml version="1.0" encoding="UTF-8"?>
<svg width="654px" height="93px" viewBox="0 0 654 93" version="1.1" xmlns="http://www.w3.org/2000/svg" xmlns:xlink="http://www.w3.org/1999/xlink">
    <title>04. phase 3 total</title>
    <g id="Viz-3-(v2)" stroke="none" stroke-width="1" fill="none" fill-rule="evenodd">
        <g id="Viz-3---SVG-Export-Outline" transform="translate(-279.000000, -1006.000000)">
            <g id="04.-phase-3-total" transform="translate(279.000000, 1006.000000)">
                <path d="M4.718,73.168 C5.31533333,73.168 5.86133333,73.0583333 6.356,72.839 C6.85066667,72.6196667 7.27766667,72.3023333 7.637,71.887 C7.99633333,71.4716667 8.274,70.97 8.47,70.382 C8.666,69.794 8.764,69.1266667 8.764,68.38 C8.764,67.6426667 8.666,66.9823333 8.47,66.399 C8.274,65.8156667 7.99633333,65.3233333 7.637,64.922 C7.27766667,64.5206667 6.85066667,64.2126667 6.356,63.998 C5.86133333,63.7833333 5.31533333,63.676 4.718,63.676 C4.12066667,63.676 3.57466667,63.7833333 3.08,63.998 C2.58533333,64.2126667 2.16066667,64.5206667 1.806,64.922 C1.45133333,65.3233333 1.176,65.8156667 0.98,66.399 C0.784,66.9823333 0.686,67.6426667 0.686,68.38 C0.686,69.1266667 0.784,69.794 0.98,70.382 C1.176,70.97 1.45133333,71.4716667 1.806,71.887 C2.16066667,72.3023333 2.58533333,72.6196667 3.08,72.839 C3.57466667,73.0583333 4.12066667,73.168 4.718,73.168 Z M4.718,71.754 C4.354,71.754 4.02733333,71.6746667 3.738,71.516 C3.44866667,71.3573333 3.20133333,71.131 2.996,70.837 C2.79066667,70.543 2.632,70.1883333 2.52,69.773 C2.408,69.3576667 2.352,68.8933333 2.352,68.38 C2.352,67.3533333 2.56433333,66.5483333 2.989,65.965 C3.41366667,65.3816667 3.99,65.09 4.718,65.09 C5.446,65.09 6.02233333,65.3816667 6.447,65.965 C6.87166667,66.5483333 7.084,67.3533333 7.084,68.38 C7.084,68.8933333 7.028,69.3576667 6.916,69.773 C6.804,70.1883333 6.64533333,70.543 6.44,70.837 C6.23466667,71.131 5.98733333,71.3573333 5.698,71.516 C5.40866667,71.6746667 5.082,71.754 4.718,71.754 Z M12.502,73.168 C12.978,73.168 13.391,73.0606667 13.741,72.846 C14.091,72.6313333 14.4153333,72.3466667 14.714,71.992 L14.714,71.992 L14.756,71.992 L14.882,73 L16.198,73 L16.198,66.126 L14.588,66.126 L14.588,70.83 C14.3266667,71.166 14.0816667,71.4086667 13.853,71.558 C13.6243333,71.7073333 13.3606667,71.782 13.062,71.782 C12.6886667,71.782 12.418,71.6653333 12.25,71.432 C12.082,71.1986667 11.998,70.7973333 11.998,70.228 L11.998,70.228 L11.998,66.126 L10.388,66.126 L10.388,70.438 C10.388,71.3153333 10.556,71.9896667 10.892,72.461 C11.228,72.9323333 11.7646667,73.168 12.502,73.168 Z M20.664,73.168 C20.9346667,73.168 21.189,73.1423333 21.427,73.091 C21.665,73.0396667 21.8773333,72.9813333 22.064,72.916 L22.064,72.916 L21.784,71.726 C21.6813333,71.7726667 21.567,71.81 21.441,71.838 C21.315,71.866 21.1913333,71.88 21.07,71.88 C20.426,71.88 20.104,71.4786667 20.104,70.676 L20.104,70.676 L20.104,67.4 L21.854,67.4 L21.854,66.126 L20.104,66.126 L20.104,64.25 L18.76,64.25 L18.564,66.126 L17.5,66.196 L17.5,67.4 L18.48,67.4 L18.48,70.676 C18.48,71.0493333 18.5196667,71.3876667 18.599,71.691 C18.6783333,71.9943333 18.8043333,72.2556667 18.977,72.475 C19.1496667,72.6943333 19.3736667,72.8646667 19.649,72.986 C19.9243333,73.1073333 20.2626667,73.168 20.664,73.168 Z M24.864,73.168 C25.2186667,73.168 25.5033333,73.1213333 25.718,73.028 L25.718,73.028 L25.508,71.824 C25.4426667,71.8426667 25.3936667,71.852 25.361,71.852 L25.361,71.852 L25.256,71.852 C25.172,71.852 25.0926667,71.8123333 25.018,71.733 C24.9433333,71.6536667 24.906,71.516 24.906,71.32 L24.906,71.32 L24.906,63.116 L23.296,63.116 L23.296,71.236 C23.296,71.8333333 23.4126667,72.3046667 23.646,72.65 C23.8793333,72.9953333 24.2853333,73.168 24.864,73.168 Z M28.756,73.168 C29.1666667,73.168 29.547,73.0793333 29.897,72.902 C30.247,72.7246667 30.576,72.5053333 30.884,72.244 L30.884,72.244 L30.94,72.244 L31.052,73 L32.382,73 L32.382,68.926 C32.382,67.9646667 32.1696667,67.2296667 31.745,66.721 C31.3203333,66.2123333 30.6786667,65.958 29.82,65.958 C29.2693333,65.958 28.756,66.0466667 28.28,66.224 C27.804,66.4013333 27.3746667,66.6113333 26.992,66.854 L26.992,66.854 L27.58,67.932 C27.888,67.7453333 28.203,67.5866667 28.525,67.456 C28.847,67.3253333 29.176,67.26 29.512,67.26 C29.7453333,67.26 29.9413333,67.295 30.1,67.365 C30.2586667,67.435 30.387,67.533 30.485,67.659 C30.583,67.785 30.653,67.9296667 30.695,68.093 C30.737,68.2563333 30.7626667,68.4266667 30.772,68.604 C30.0626667,68.6786667 29.4536667,68.786 28.945,68.926 C28.4363333,69.066 28.0163333,69.2386667 27.685,69.444 C27.3536667,69.6493333 27.111,69.8943333 26.957,70.179 C26.803,70.4636667 26.726,70.788 26.726,71.152 C26.726,71.7586667 26.9126667,72.2463333 27.286,72.615 C27.6593333,72.9836667 28.1493333,73.168 28.756,73.168 Z M29.274,71.908 C28.9846667,71.908 28.7466667,71.838 28.56,71.698 C28.3733333,71.558 28.28,71.334 28.28,71.026 C28.28,70.858 28.322,70.6993333 28.406,70.55 C28.49,70.4006667 28.63,70.2676667 28.826,70.151 C29.022,70.0343333 29.2786667,69.9293333 29.596,69.836 C29.9133333,69.7426667 30.3053333,69.668 30.772,69.612 L30.772,69.612 L30.772,71.152 C30.5106667,71.3946667 30.2656667,71.5813333 30.037,71.712 C29.8083333,71.8426667 29.554,71.908 29.274,71.908 Z M34.776,75.828 C35.1493333,75.828 35.4783333,75.7696667 35.763,75.653 C36.0476667,75.5363333 36.2996667,75.3683333 36.519,75.149 C36.7383333,74.9296667 36.932,74.666 37.1,74.358 C37.268,74.05 37.422,73.7 37.562,73.308 L37.562,73.308 L40.054,66.126 L38.5,66.126 L37.464,69.5 C37.38,69.808 37.2936667,70.1276667 37.205,70.459 C37.1163333,70.7903333 37.03,71.1146667 36.946,71.432 L36.946,71.432 L36.89,71.432 C36.7873333,71.1053333 36.687,70.7763333 36.589,70.445 C36.491,70.1136667 36.3906667,69.7986667 36.288,69.5 L36.288,69.5 L35.098,66.126 L33.46,66.126 L36.162,72.916 L36.036,73.35 C35.924,73.6953333 35.7583333,73.9776667 35.539,74.197 C35.3196667,74.4163333 35.028,74.526 34.664,74.526 C34.58,74.526 34.4936667,74.5143333 34.405,74.491 C34.3163333,74.4676667 34.2393333,74.4466667 34.174,74.428 L34.174,74.428 L33.88,75.688 C34.0106667,75.7346667 34.146,75.7696667 34.286,75.793 C34.426,75.8163333 34.5893333,75.828 34.776,75.828 Z M43.162,73.168 C43.5913333,73.168 43.974,73.112 44.31,73 C44.646,72.888 44.926,72.7363333 45.15,72.545 C45.374,72.3536667 45.5443333,72.1296667 45.661,71.873 C45.7776667,71.6163333 45.836,71.3386667 45.836,71.04 C45.836,70.7226667 45.7776667,70.4496667 45.661,70.221 C45.5443333,69.9923333 45.3903333,69.7986667 45.199,69.64 C45.0076667,69.4813333 44.7953333,69.3483333 44.562,69.241 C44.3286667,69.1336667 44.0953333,69.038 43.862,68.954 C43.6753333,68.8886667 43.4956667,68.8233333 43.323,68.758 C43.1503333,68.6926667 42.9986667,68.6226667 42.868,68.548 C42.7373333,68.4733333 42.6323333,68.387 42.553,68.289 C42.4736667,68.191 42.434,68.072 42.434,67.932 C42.434,67.7173333 42.5156667,67.5376667 42.679,67.393 C42.8423333,67.2483333 43.0966667,67.176 43.442,67.176 C43.7126667,67.176 43.9716667,67.2296667 44.219,67.337 C44.4663333,67.4443333 44.7113333,67.5866667 44.954,67.764 L44.954,67.764 L45.696,66.784 C45.416,66.5693333 45.0846667,66.378 44.702,66.21 C44.3193333,66.042 43.89,65.958 43.414,65.958 C42.6393333,65.958 42.028,66.1493333 41.58,66.532 C41.132,66.9146667 40.908,67.4093333 40.908,68.016 C40.908,68.3053333 40.9663333,68.555 41.083,68.765 C41.1996667,68.975 41.349,69.1593333 41.531,69.318 C41.713,69.4766667 41.9206667,69.612 42.154,69.724 C42.3873333,69.836 42.616,69.934 42.84,70.018 C43.0173333,70.0926667 43.1946667,70.165 43.372,70.235 C43.5493333,70.305 43.708,70.382 43.848,70.466 C43.988,70.55 44.1,70.6456667 44.184,70.753 C44.268,70.8603333 44.31,70.984 44.31,71.124 C44.31,71.3666667 44.2213333,71.565 44.044,71.719 C43.8666667,71.873 43.5913333,71.95 43.218,71.95 C42.8633333,71.95 42.5343333,71.8823333 42.231,71.747 C41.9276667,71.6116667 41.622,71.4226667 41.314,71.18 L41.314,71.18 L40.558,72.216 C40.894,72.4866667 41.293,72.713 41.755,72.895 C42.217,73.077 42.686,73.168 43.162,73.168 Z M3.948,92.54 L3.948,91.126 C4.62,91.0326667 5.14966667,90.7713333 5.537,90.342 C5.92433333,89.9126667 6.118,89.362 6.118,88.69 C6.118,88.186 6.02233333,87.773 5.831,87.451 C5.63966667,87.129 5.39933333,86.8583333 5.11,86.639 C4.82066667,86.4196667 4.50566667,86.233 4.165,86.079 C3.82433333,85.925 3.50933333,85.7663333 3.22,85.603 C2.93066667,85.4396667 2.69033333,85.2506667 2.499,85.036 C2.30766667,84.8213333 2.212,84.546 2.212,84.21 C2.212,83.7993333 2.338,83.4726667 2.59,83.23 C2.842,82.9873333 3.18266667,82.866 3.612,82.866 C3.99466667,82.866 4.30966667,82.936 4.557,83.076 C4.80433333,83.216 5.05866667,83.412 5.32,83.664 L5.32,83.664 L5.936,82.978 C5.684,82.7073333 5.40166667,82.474 5.089,82.278 C4.77633333,82.082 4.396,81.9606667 3.948,81.914 L3.948,81.914 L3.948,80.528 L3.108,80.528 L3.108,81.942 C2.492,82.0353333 1.99966667,82.2896667 1.631,82.705 C1.26233333,83.1203333 1.078,83.6406667 1.078,84.266 C1.078,84.7233333 1.17366667,85.099 1.365,85.393 C1.55633333,85.687 1.79666667,85.9366667 2.086,86.142 C2.37533333,86.3473333 2.69033333,86.5293333 3.031,86.688 C3.37166667,86.8466667 3.68666667,87.017 3.976,87.199 C4.26533333,87.381 4.50566667,87.5956667 4.697,87.843 C4.88833333,88.0903333 4.984,88.4006667 4.984,88.774 C4.984,89.2126667 4.85566667,89.5626667 4.599,89.824 C4.34233333,90.0853333 3.95266667,90.216 3.43,90.216 C3.00066667,90.216 2.60633333,90.125 2.247,89.943 C1.88766667,89.761 1.55866667,89.5393333 1.26,89.278 L1.26,89.278 L0.728,90.076 C1.02666667,90.3466667 1.386,90.5823333 1.806,90.783 C2.226,90.9836667 2.66,91.1073333 3.108,91.154 L3.108,91.154 L3.108,92.54 L3.948,92.54 Z M13.104,91 L13.104,90.048 L11.256,90.048 L11.256,82.068 L10.374,82.068 C10.1313333,82.2173333 9.85833333,82.3456667 9.555,82.453 C9.25166667,82.5603333 8.89466667,82.6513333 8.484,82.726 L8.484,82.726 L8.484,83.468 L10.108,83.468 L10.108,90.048 L8.064,90.048 L8.064,91 L13.104,91 Z M15.666,91.168 C15.89,91.168 16.0836667,91.0863333 16.247,90.923 C16.4103333,90.7596667 16.492,90.552 16.492,90.3 C16.492,90.0293333 16.4103333,89.8123333 16.247,89.649 C16.0836667,89.4856667 15.89,89.404 15.666,89.404 C15.4326667,89.404 15.2343333,89.4856667 15.071,89.649 C14.9076667,89.8123333 14.826,90.0293333 14.826,90.3 C14.826,90.552 14.9076667,90.7596667 15.071,90.923 C15.2343333,91.0863333 15.4326667,91.168 15.666,91.168 Z M23.548,91 L23.548,90.048 L21.7,90.048 L21.7,82.068 L20.818,82.068 C20.5753333,82.2173333 20.3023333,82.3456667 19.999,82.453 C19.6956667,82.5603333 19.3386667,82.6513333 18.928,82.726 L18.928,82.726 L18.928,83.468 L20.552,83.468 L20.552,90.048 L18.508,90.048 L18.508,91 L23.548,91 Z M30.506,91 L30.506,90.048 L28.658,90.048 L28.658,82.068 L27.776,82.068 C27.5333333,82.2173333 27.2603333,82.3456667 26.957,82.453 C26.6536667,82.5603333 26.2966667,82.6513333 25.886,82.726 L25.886,82.726 L25.886,83.468 L27.51,83.468 L27.51,90.048 L25.466,90.048 L25.466,91 L30.506,91 Z M35.658,91 L35.658,82.796 L38.43,82.796 L38.43,81.816 L31.71,81.816 L31.71,82.796 L34.482,82.796 L34.482,91 L35.658,91 Z" id="Outlays$1.11T" fill="#666666" fill-rule="nonzero"></path>
                <path d="M309.718,73.168 C310.315333,73.168 310.861333,73.0583333 311.356,72.839 C311.850667,72.6196667 312.277667,72.3023333 312.637,71.887 C312.996333,71.4716667 313.274,70.97 313.47,70.382 C313.666,69.794 313.764,69.1266667 313.764,68.38 C313.764,67.6426667 313.666,66.9823333 313.47,66.399 C313.274,65.8156667 312.996333,65.3233333 312.637,64.922 C312.277667,64.5206667 311.850667,64.2126667 311.356,63.998 C310.861333,63.7833333 310.315333,63.676 309.718,63.676 C309.120667,63.676 308.574667,63.7833333 308.08,63.998 C307.585333,64.2126667 307.160667,64.5206667 306.806,64.922 C306.451333,65.3233333 306.176,65.8156667 305.98,66.399 C305.784,66.9823333 305.686,67.6426667 305.686,68.38 C305.686,69.1266667 305.784,69.794 305.98,70.382 C306.176,70.97 306.451333,71.4716667 306.806,71.887 C307.160667,72.3023333 307.585333,72.6196667 308.08,72.839 C308.574667,73.0583333 309.120667,73.168 309.718,73.168 Z M309.718,71.754 C309.354,71.754 309.027333,71.6746667 308.738,71.516 C308.448667,71.3573333 308.201333,71.131 307.996,70.837 C307.790667,70.543 307.632,70.1883333 307.52,69.773 C307.408,69.3576667 307.352,68.8933333 307.352,68.38 C307.352,67.3533333 307.564333,66.5483333 307.989,65.965 C308.413667,65.3816667 308.99,65.09 309.718,65.09 C310.446,65.09 311.022333,65.3816667 311.447,65.965 C311.871667,66.5483333 312.084,67.3533333 312.084,68.38 C312.084,68.8933333 312.028,69.3576667 311.916,69.773 C311.804,70.1883333 311.645333,70.543 311.44,70.837 C311.234667,71.131 310.987333,71.3573333 310.698,71.516 C310.408667,71.6746667 310.082,71.754 309.718,71.754 Z M318.79,73.168 C319.172667,73.168 319.541333,73.084 319.896,72.916 C320.250667,72.748 320.563333,72.5053333 320.834,72.188 C321.104667,71.8706667 321.321667,71.481 321.485,71.019 C321.648333,70.557 321.73,70.032 321.73,69.444 C321.73,68.912 321.669333,68.4313333 321.548,68.002 C321.426667,67.5726667 321.249333,67.2063333 321.016,66.903 C320.782667,66.5996667 320.498,66.3663333 320.162,66.203 C319.826,66.0396667 319.443333,65.958 319.014,65.958 C318.659333,65.958 318.311667,66.0373333 317.971,66.196 C317.630333,66.3546667 317.315333,66.56 317.026,66.812 L317.026,66.812 L317.068,65.664 L317.068,63.116 L315.458,63.116 L315.458,73 L316.732,73 L316.872,72.272 L316.914,72.272 C317.203333,72.5613333 317.509,72.783 317.831,72.937 C318.153,73.091 318.472667,73.168 318.79,73.168 Z M318.454,71.838 C318.248667,71.838 318.027,71.796 317.789,71.712 C317.551,71.628 317.310667,71.4786667 317.068,71.264 L317.068,71.264 L317.068,68.058 C317.590667,67.5446667 318.094667,67.288 318.58,67.288 C319.102667,67.288 319.480667,67.4793333 319.714,67.862 C319.947333,68.2446667 320.064,68.7813333 320.064,69.472 C320.064,70.256 319.91,70.8463333 319.602,71.243 C319.294,71.6396667 318.911333,71.838 318.454,71.838 Z M324.908,73.168 C325.262667,73.168 325.547333,73.1213333 325.762,73.028 L325.762,73.028 L325.552,71.824 C325.486667,71.8426667 325.437667,71.852 325.405,71.852 L325.405,71.852 L325.3,71.852 C325.216,71.852 325.136667,71.8123333 325.062,71.733 C324.987333,71.6536667 324.95,71.516 324.95,71.32 L324.95,71.32 L324.95,63.116 L323.34,63.116 L323.34,71.236 C323.34,71.8333333 323.456667,72.3046667 323.69,72.65 C323.923333,72.9953333 324.329333,73.168 324.908,73.168 Z M327.946,64.922 C328.235333,64.922 328.473333,64.838 328.66,64.67 C328.846667,64.502 328.94,64.2826667 328.94,64.012 C328.94,63.7413333 328.846667,63.5196667 328.66,63.347 C328.473333,63.1743333 328.235333,63.088 327.946,63.088 C327.656667,63.088 327.418667,63.1743333 327.232,63.347 C327.045333,63.5196667 326.952,63.7413333 326.952,64.012 C326.952,64.2826667 327.045333,64.502 327.232,64.67 C327.418667,64.838 327.656667,64.922 327.946,64.922 Z M328.744,73 L328.744,66.126 L327.134,66.126 L327.134,73 L328.744,73 Z M333.196,76.038 C333.756,76.038 334.262333,75.975 334.715,75.849 C335.167667,75.723 335.552667,75.5526667 335.87,75.338 C336.187333,75.1233333 336.432333,74.8666667 336.605,74.568 C336.777667,74.2693333 336.864,73.952 336.864,73.616 C336.864,73.0186667 336.651667,72.587 336.227,72.321 C335.802333,72.055 335.174667,71.922 334.344,71.922 L334.344,71.922 L333.126,71.922 C332.706,71.922 332.414333,71.866 332.251,71.754 C332.087667,71.642 332.006,71.488 332.006,71.292 C332.006,71.1333333 332.036333,71.0073333 332.097,70.914 C332.157667,70.8206667 332.239333,70.7273333 332.342,70.634 C332.500667,70.6993333 332.659333,70.746 332.818,70.774 C332.976667,70.802 333.130667,70.816 333.28,70.816 C333.644,70.816 333.984667,70.7646667 334.302,70.662 C334.619333,70.5593333 334.894667,70.41 335.128,70.214 C335.361333,70.018 335.545667,69.7753333 335.681,69.486 C335.816333,69.1966667 335.884,68.8606667 335.884,68.478 C335.884,68.2353333 335.846667,68.0136667 335.772,67.813 C335.697333,67.6123333 335.604,67.4466667 335.492,67.316 L335.492,67.316 L336.752,67.316 L336.752,66.126 L334.288,66.126 C334.148,66.0793333 333.991667,66.0396667 333.819,66.007 C333.646333,65.9743333 333.466667,65.958 333.28,65.958 C332.916,65.958 332.570667,66.0116667 332.244,66.119 C331.917333,66.2263333 331.630333,66.385 331.383,66.595 C331.135667,66.805 330.937333,67.064 330.788,67.372 C330.638667,67.68 330.564,68.03 330.564,68.422 C330.564,68.8326667 330.655,69.1943333 330.837,69.507 C331.019,69.8196667 331.226667,70.0646667 331.46,70.242 L331.46,70.242 L331.46,70.298 C331.264,70.438 331.089,70.6176667 330.935,70.837 C330.781,71.0563333 330.704,71.3013333 330.704,71.572 C330.704,71.852 330.762333,72.0853333 330.879,72.272 C330.995667,72.4586667 331.142667,72.608 331.32,72.72 L331.32,72.72 L331.32,72.776 C331.002667,72.972 330.76,73.1936667 330.592,73.441 C330.424,73.6883333 330.34,73.9566667 330.34,74.246 C330.34,74.5446667 330.412333,74.806 330.557,75.03 C330.701667,75.254 330.9,75.4406667 331.152,75.59 C331.404,75.7393333 331.705,75.8513333 332.055,75.926 C332.405,76.0006667 332.785333,76.038 333.196,76.038 Z M333.28,69.808 C332.944,69.808 332.659333,69.689 332.426,69.451 C332.192667,69.213 332.076,68.87 332.076,68.422 C332.076,67.9833333 332.192667,67.6473333 332.426,67.414 C332.659333,67.1806667 332.944,67.064 333.28,67.064 C333.616,67.064 333.898333,67.183 334.127,67.421 C334.355667,67.659 334.47,67.9926667 334.47,68.422 C334.47,68.87 334.353333,69.213 334.12,69.451 C333.886667,69.689 333.606667,69.808 333.28,69.808 Z M333.448,74.988 C332.897333,74.988 332.465667,74.9016667 332.153,74.729 C331.840333,74.5563333 331.684,74.316 331.684,74.008 C331.684,73.672 331.861333,73.3686667 332.216,73.098 C332.468,73.1633333 332.780667,73.196 333.154,73.196 L333.154,73.196 L334.092,73.196 C334.484,73.196 334.785,73.2426667 334.995,73.336 C335.205,73.4293333 335.31,73.6113333 335.31,73.882 C335.31,74.1806667 335.139667,74.4396667 334.799,74.659 C334.458333,74.8783333 334.008,74.988 333.448,74.988 Z M339.496,73.168 C339.906667,73.168 340.287,73.0793333 340.637,72.902 C340.987,72.7246667 341.316,72.5053333 341.624,72.244 L341.624,72.244 L341.68,72.244 L341.792,73 L343.122,73 L343.122,68.926 C343.122,67.9646667 342.909667,67.2296667 342.485,66.721 C342.060333,66.2123333 341.418667,65.958 340.56,65.958 C340.009333,65.958 339.496,66.0466667 339.02,66.224 C338.544,66.4013333 338.114667,66.6113333 337.732,66.854 L337.732,66.854 L338.32,67.932 C338.628,67.7453333 338.943,67.5866667 339.265,67.456 C339.587,67.3253333 339.916,67.26 340.252,67.26 C340.485333,67.26 340.681333,67.295 340.84,67.365 C340.998667,67.435 341.127,67.533 341.225,67.659 C341.323,67.785 341.393,67.9296667 341.435,68.093 C341.477,68.2563333 341.502667,68.4266667 341.512,68.604 C340.802667,68.6786667 340.193667,68.786 339.685,68.926 C339.176333,69.066 338.756333,69.2386667 338.425,69.444 C338.093667,69.6493333 337.851,69.8943333 337.697,70.179 C337.543,70.4636667 337.466,70.788 337.466,71.152 C337.466,71.7586667 337.652667,72.2463333 338.026,72.615 C338.399333,72.9836667 338.889333,73.168 339.496,73.168 Z M340.014,71.908 C339.724667,71.908 339.486667,71.838 339.3,71.698 C339.113333,71.558 339.02,71.334 339.02,71.026 C339.02,70.858 339.062,70.6993333 339.146,70.55 C339.23,70.4006667 339.37,70.2676667 339.566,70.151 C339.762,70.0343333 340.018667,69.9293333 340.336,69.836 C340.653333,69.7426667 341.045333,69.668 341.512,69.612 L341.512,69.612 L341.512,71.152 C341.250667,71.3946667 341.005667,71.5813333 340.777,71.712 C340.548333,71.8426667 340.294,71.908 340.014,71.908 Z M347.252,73.168 C347.522667,73.168 347.777,73.1423333 348.015,73.091 C348.253,73.0396667 348.465333,72.9813333 348.652,72.916 L348.652,72.916 L348.372,71.726 C348.269333,71.7726667 348.155,71.81 348.029,71.838 C347.903,71.866 347.779333,71.88 347.658,71.88 C347.014,71.88 346.692,71.4786667 346.692,70.676 L346.692,70.676 L346.692,67.4 L348.442,67.4 L348.442,66.126 L346.692,66.126 L346.692,64.25 L345.348,64.25 L345.152,66.126 L344.088,66.196 L344.088,67.4 L345.068,67.4 L345.068,70.676 C345.068,71.0493333 345.107667,71.3876667 345.187,71.691 C345.266333,71.9943333 345.392333,72.2556667 345.565,72.475 C345.737667,72.6943333 345.961667,72.8646667 346.237,72.986 C346.512333,73.1073333 346.850667,73.168 347.252,73.168 Z M350.696,64.922 C350.985333,64.922 351.223333,64.838 351.41,64.67 C351.596667,64.502 351.69,64.2826667 351.69,64.012 C351.69,63.7413333 351.596667,63.5196667 351.41,63.347 C351.223333,63.1743333 350.985333,63.088 350.696,63.088 C350.406667,63.088 350.168667,63.1743333 349.982,63.347 C349.795333,63.5196667 349.702,63.7413333 349.702,64.012 C349.702,64.2826667 349.795333,64.502 349.982,64.67 C350.168667,64.838 350.406667,64.922 350.696,64.922 Z M351.494,73 L351.494,66.126 L349.884,66.126 L349.884,73 L351.494,73 Z M356.366,73.168 C356.795333,73.168 357.208333,73.0886667 357.605,72.93 C358.001667,72.7713333 358.349333,72.538 358.648,72.23 C358.946667,71.922 359.187,71.544 359.369,71.096 C359.551,70.648 359.642,70.1393333 359.642,69.57 C359.642,69.0006667 359.551,68.492 359.369,68.044 C359.187,67.596 358.946667,67.218 358.648,66.91 C358.349333,66.602 358.001667,66.3663333 357.605,66.203 C357.208333,66.0396667 356.795333,65.958 356.366,65.958 C355.936667,65.958 355.526,66.0396667 355.134,66.203 C354.742,66.3663333 354.394333,66.602 354.091,66.91 C353.787667,67.218 353.547333,67.596 353.37,68.044 C353.192667,68.492 353.104,69.0006667 353.104,69.57 C353.104,70.1393333 353.192667,70.648 353.37,71.096 C353.547333,71.544 353.787667,71.922 354.091,72.23 C354.394333,72.538 354.742,72.7713333 355.134,72.93 C355.526,73.0886667 355.936667,73.168 356.366,73.168 Z M356.366,71.852 C355.862,71.852 355.467667,71.6443333 355.183,71.229 C354.898333,70.8136667 354.756,70.2606667 354.756,69.57 C354.756,68.87 354.898333,68.3123333 355.183,67.897 C355.467667,67.4816667 355.862,67.274 356.366,67.274 C356.87,67.274 357.266667,67.4816667 357.556,67.897 C357.845333,68.3123333 357.99,68.87 357.99,69.57 C357.99,70.2606667 357.845333,70.8136667 357.556,71.229 C357.266667,71.6443333 356.87,71.852 356.366,71.852 Z M362.848,73 L362.848,68.198 C363.137333,67.918 363.396333,67.7056667 363.625,67.561 C363.853667,67.4163333 364.117333,67.344 364.416,67.344 C364.798667,67.344 365.074,67.4606667 365.242,67.694 C365.41,67.9273333 365.494,68.3286667 365.494,68.898 L365.494,68.898 L365.494,73 L367.104,73 L367.104,68.688 C367.104,67.8106667 366.936,67.1363333 366.6,66.665 C366.264,66.1936667 365.727333,65.958 364.99,65.958 C364.514,65.958 364.096333,66.0653333 363.737,66.28 C363.377667,66.4946667 363.044,66.7513333 362.736,67.05 L362.736,67.05 L362.68,67.05 L362.568,66.126 L361.238,66.126 L361.238,73 L362.848,73 Z M370.996,73.168 C371.425333,73.168 371.808,73.112 372.144,73 C372.48,72.888 372.76,72.7363333 372.984,72.545 C373.208,72.3536667 373.378333,72.1296667 373.495,71.873 C373.611667,71.6163333 373.67,71.3386667 373.67,71.04 C373.67,70.7226667 373.611667,70.4496667 373.495,70.221 C373.378333,69.9923333 373.224333,69.7986667 373.033,69.64 C372.841667,69.4813333 372.629333,69.3483333 372.396,69.241 C372.162667,69.1336667 371.929333,69.038 371.696,68.954 C371.509333,68.8886667 371.329667,68.8233333 371.157,68.758 C370.984333,68.6926667 370.832667,68.6226667 370.702,68.548 C370.571333,68.4733333 370.466333,68.387 370.387,68.289 C370.307667,68.191 370.268,68.072 370.268,67.932 C370.268,67.7173333 370.349667,67.5376667 370.513,67.393 C370.676333,67.2483333 370.930667,67.176 371.276,67.176 C371.546667,67.176 371.805667,67.2296667 372.053,67.337 C372.300333,67.4443333 372.545333,67.5866667 372.788,67.764 L372.788,67.764 L373.53,66.784 C373.25,66.5693333 372.918667,66.378 372.536,66.21 C372.153333,66.042 371.724,65.958 371.248,65.958 C370.473333,65.958 369.862,66.1493333 369.414,66.532 C368.966,66.9146667 368.742,67.4093333 368.742,68.016 C368.742,68.3053333 368.800333,68.555 368.917,68.765 C369.033667,68.975 369.183,69.1593333 369.365,69.318 C369.547,69.4766667 369.754667,69.612 369.988,69.724 C370.221333,69.836 370.45,69.934 370.674,70.018 C370.851333,70.0926667 371.028667,70.165 371.206,70.235 C371.383333,70.305 371.542,70.382 371.682,70.466 C371.822,70.55 371.934,70.6456667 372.018,70.753 C372.102,70.8603333 372.144,70.984 372.144,71.124 C372.144,71.3666667 372.055333,71.565 371.878,71.719 C371.700667,71.873 371.425333,71.95 371.052,71.95 C370.697333,71.95 370.368333,71.8823333 370.065,71.747 C369.761667,71.6116667 369.456,71.4226667 369.148,71.18 L369.148,71.18 L368.392,72.216 C368.728,72.4866667 369.127,72.713 369.589,72.895 C370.051,73.077 370.52,73.168 370.996,73.168 Z M308.948,92.54 L308.948,91.126 C309.62,91.0326667 310.149667,90.7713333 310.537,90.342 C310.924333,89.9126667 311.118,89.362 311.118,88.69 C311.118,88.186 311.022333,87.773 310.831,87.451 C310.639667,87.129 310.399333,86.8583333 310.11,86.639 C309.820667,86.4196667 309.505667,86.233 309.165,86.079 C308.824333,85.925 308.509333,85.7663333 308.22,85.603 C307.930667,85.4396667 307.690333,85.2506667 307.499,85.036 C307.307667,84.8213333 307.212,84.546 307.212,84.21 C307.212,83.7993333 307.338,83.4726667 307.59,83.23 C307.842,82.9873333 308.182667,82.866 308.612,82.866 C308.994667,82.866 309.309667,82.936 309.557,83.076 C309.804333,83.216 310.058667,83.412 310.32,83.664 L310.32,83.664 L310.936,82.978 C310.684,82.7073333 310.401667,82.474 310.089,82.278 C309.776333,82.082 309.396,81.9606667 308.948,81.914 L308.948,81.914 L308.948,80.528 L308.108,80.528 L308.108,81.942 C307.492,82.0353333 306.999667,82.2896667 306.631,82.705 C306.262333,83.1203333 306.078,83.6406667 306.078,84.266 C306.078,84.7233333 306.173667,85.099 306.365,85.393 C306.556333,85.687 306.796667,85.9366667 307.086,86.142 C307.375333,86.3473333 307.690333,86.5293333 308.031,86.688 C308.371667,86.8466667 308.686667,87.017 308.976,87.199 C309.265333,87.381 309.505667,87.5956667 309.697,87.843 C309.888333,88.0903333 309.984,88.4006667 309.984,88.774 C309.984,89.2126667 309.855667,89.5626667 309.599,89.824 C309.342333,90.0853333 308.952667,90.216 308.43,90.216 C308.000667,90.216 307.606333,90.125 307.247,89.943 C306.887667,89.761 306.558667,89.5393333 306.26,89.278 L306.26,89.278 L305.728,90.076 C306.026667,90.3466667 306.386,90.5823333 306.806,90.783 C307.226,90.9836667 307.66,91.1073333 308.108,91.154 L308.108,91.154 L308.108,92.54 L308.948,92.54 Z M318.104,91 L318.104,90.048 L316.256,90.048 L316.256,82.068 L315.374,82.068 C315.131333,82.2173333 314.858333,82.3456667 314.555,82.453 C314.251667,82.5603333 313.894667,82.6513333 313.484,82.726 L313.484,82.726 L313.484,83.468 L315.108,83.468 L315.108,90.048 L313.064,90.048 L313.064,91 L318.104,91 Z M320.666,91.168 C320.89,91.168 321.083667,91.0863333 321.247,90.923 C321.410333,90.7596667 321.492,90.552 321.492,90.3 C321.492,90.0293333 321.410333,89.8123333 321.247,89.649 C321.083667,89.4856667 320.89,89.404 320.666,89.404 C320.432667,89.404 320.234333,89.4856667 320.071,89.649 C319.907667,89.8123333 319.826,90.0293333 319.826,90.3 C319.826,90.552 319.907667,90.7596667 320.071,90.923 C320.234333,91.0863333 320.432667,91.168 320.666,91.168 Z M328.73,91 L328.73,90.006 L326.14,90.006 C325.906667,90.006 325.659333,90.0153333 325.398,90.034 C325.136667,90.0526667 324.884667,90.0713333 324.642,90.09 C325.174,89.5393333 325.661667,89.019 326.105,88.529 C326.548333,88.039 326.931,87.5676667 327.253,87.115 C327.575,86.6623333 327.827,86.2236667 328.009,85.799 C328.191,85.3743333 328.282,84.952 328.282,84.532 C328.282,83.7386667 328.044,83.1016667 327.568,82.621 C327.092,82.1403333 326.438667,81.9 325.608,81.9 C325.02,81.9 324.516,82.0236667 324.096,82.271 C323.676,82.5183333 323.279333,82.8473333 322.906,83.258 L322.906,83.258 L323.564,83.916 C323.825333,83.6173333 324.114667,83.363 324.432,83.153 C324.749333,82.943 325.094667,82.838 325.468,82.838 C326.037333,82.838 326.462,83.0013333 326.742,83.328 C327.022,83.6546667 327.162,84.0746667 327.162,84.588 C327.162,84.952 327.068667,85.3276667 326.882,85.715 C326.695333,86.1023333 326.424667,86.527 326.07,86.989 C325.715333,87.451 325.276667,87.9526667 324.754,88.494 C324.231333,89.0353333 323.634,89.642 322.962,90.314 L322.962,90.314 L322.962,91 L328.73,91 Z M334.708,91 L334.708,88.536 L335.926,88.536 L335.926,87.612 L334.708,87.612 L334.708,82.068 L333.42,82.068 L329.598,87.78 L329.598,88.536 L333.616,88.536 L333.616,91 L334.708,91 Z M333.616,87.612 L330.816,87.612 L332.902,84.56 C333.032667,84.3453333 333.158667,84.1353333 333.28,83.93 C333.401333,83.7246667 333.518,83.5146667 333.63,83.3 L333.63,83.3 L333.686,83.3 C333.667333,83.5426667 333.651,83.8296667 333.637,84.161 C333.623,84.4923333 333.616,84.7793333 333.616,85.022 L333.616,85.022 L333.616,87.612 Z M340.658,91 L340.658,82.796 L343.43,82.796 L343.43,81.816 L336.71,81.816 L336.71,82.796 L339.482,82.796 L339.482,91 L340.658,91 Z" id="Obligations$1.24T" fill="#666666" fill-rule="nonzero"></path>
                <path d="M528.592,73.168 C529.124,73.168 529.602333,73.091 530.027,72.937 C530.451667,72.783 530.815667,72.538 531.119,72.202 C531.422333,71.866 531.653333,71.4343333 531.812,70.907 C531.970667,70.3796667 532.05,69.738 532.05,68.982 L532.05,68.982 L532.05,63.844 L530.496,63.844 L530.496,69.108 C530.496,69.6026667 530.449333,70.0203333 530.356,70.361 C530.262667,70.7016667 530.132,70.9746667 529.964,71.18 C529.796,71.3853333 529.595333,71.5323333 529.362,71.621 C529.128667,71.7096667 528.872,71.754 528.592,71.754 C528.312,71.754 528.06,71.7096667 527.836,71.621 C527.612,71.5323333 527.418333,71.3853333 527.255,71.18 C527.091667,70.9746667 526.965667,70.7016667 526.877,70.361 C526.788333,70.0203333 526.744,69.6026667 526.744,69.108 L526.744,69.108 L526.744,63.844 L525.12,63.844 L525.12,68.982 C525.12,69.738 525.201667,70.3796667 525.365,70.907 C525.528333,71.4343333 525.761667,71.866 526.065,72.202 C526.368333,72.538 526.732333,72.783 527.157,72.937 C527.581667,73.091 528.06,73.168 528.592,73.168 Z M535.802,73 L535.802,68.198 C536.091333,67.918 536.350333,67.7056667 536.579,67.561 C536.807667,67.4163333 537.071333,67.344 537.37,67.344 C537.752667,67.344 538.028,67.4606667 538.196,67.694 C538.364,67.9273333 538.448,68.3286667 538.448,68.898 L538.448,68.898 L538.448,73 L540.058,73 L540.058,68.688 C540.058,67.8106667 539.89,67.1363333 539.554,66.665 C539.218,66.1936667 538.681333,65.958 537.944,65.958 C537.468,65.958 537.050333,66.0653333 536.691,66.28 C536.331667,66.4946667 535.998,66.7513333 535.69,67.05 L535.69,67.05 L535.634,67.05 L535.522,66.126 L534.192,66.126 L534.192,73 L535.802,73 Z M544.846,73.168 C545.275333,73.168 545.688333,73.0886667 546.085,72.93 C546.481667,72.7713333 546.829333,72.538 547.128,72.23 C547.426667,71.922 547.667,71.544 547.849,71.096 C548.031,70.648 548.122,70.1393333 548.122,69.57 C548.122,69.0006667 548.031,68.492 547.849,68.044 C547.667,67.596 547.426667,67.218 547.128,66.91 C546.829333,66.602 546.481667,66.3663333 546.085,66.203 C545.688333,66.0396667 545.275333,65.958 544.846,65.958 C544.416667,65.958 544.006,66.0396667 543.614,66.203 C543.222,66.3663333 542.874333,66.602 542.571,66.91 C542.267667,67.218 542.027333,67.596 541.85,68.044 C541.672667,68.492 541.584,69.0006667 541.584,69.57 C541.584,70.1393333 541.672667,70.648 541.85,71.096 C542.027333,71.544 542.267667,71.922 542.571,72.23 C542.874333,72.538 543.222,72.7713333 543.614,72.93 C544.006,73.0886667 544.416667,73.168 544.846,73.168 Z M544.846,71.852 C544.342,71.852 543.947667,71.6443333 543.663,71.229 C543.378333,70.8136667 543.236,70.2606667 543.236,69.57 C543.236,68.87 543.378333,68.3123333 543.663,67.897 C543.947667,67.4816667 544.342,67.274 544.846,67.274 C545.35,67.274 545.746667,67.4816667 546.036,67.897 C546.325333,68.3123333 546.47,68.87 546.47,69.57 C546.47,70.2606667 546.325333,70.8136667 546.036,71.229 C545.746667,71.6443333 545.35,71.852 544.846,71.852 Z M553.05,73.168 C553.432667,73.168 553.801333,73.084 554.156,72.916 C554.510667,72.748 554.823333,72.5053333 555.094,72.188 C555.364667,71.8706667 555.581667,71.481 555.745,71.019 C555.908333,70.557 555.99,70.032 555.99,69.444 C555.99,68.912 555.929333,68.4313333 555.808,68.002 C555.686667,67.5726667 555.509333,67.2063333 555.276,66.903 C555.042667,66.5996667 554.758,66.3663333 554.422,66.203 C554.086,66.0396667 553.703333,65.958 553.274,65.958 C552.919333,65.958 552.571667,66.0373333 552.231,66.196 C551.890333,66.3546667 551.575333,66.56 551.286,66.812 L551.286,66.812 L551.328,65.664 L551.328,63.116 L549.718,63.116 L549.718,73 L550.992,73 L551.132,72.272 L551.174,72.272 C551.463333,72.5613333 551.769,72.783 552.091,72.937 C552.413,73.091 552.732667,73.168 553.05,73.168 Z M552.714,71.838 C552.508667,71.838 552.287,71.796 552.049,71.712 C551.811,71.628 551.570667,71.4786667 551.328,71.264 L551.328,71.264 L551.328,68.058 C551.850667,67.5446667 552.354667,67.288 552.84,67.288 C553.362667,67.288 553.740667,67.4793333 553.974,67.862 C554.207333,68.2446667 554.324,68.7813333 554.324,69.472 C554.324,70.256 554.17,70.8463333 553.862,71.243 C553.554,71.6396667 553.171333,71.838 552.714,71.838 Z M559.168,73.168 C559.522667,73.168 559.807333,73.1213333 560.022,73.028 L560.022,73.028 L559.812,71.824 C559.746667,71.8426667 559.697667,71.852 559.665,71.852 L559.665,71.852 L559.56,71.852 C559.476,71.852 559.396667,71.8123333 559.322,71.733 C559.247333,71.6536667 559.21,71.516 559.21,71.32 L559.21,71.32 L559.21,63.116 L557.6,63.116 L557.6,71.236 C557.6,71.8333333 557.716667,72.3046667 557.95,72.65 C558.183333,72.9953333 558.589333,73.168 559.168,73.168 Z M562.206,64.922 C562.495333,64.922 562.733333,64.838 562.92,64.67 C563.106667,64.502 563.2,64.2826667 563.2,64.012 C563.2,63.7413333 563.106667,63.5196667 562.92,63.347 C562.733333,63.1743333 562.495333,63.088 562.206,63.088 C561.916667,63.088 561.678667,63.1743333 561.492,63.347 C561.305333,63.5196667 561.212,63.7413333 561.212,64.012 C561.212,64.2826667 561.305333,64.502 561.492,64.67 C561.678667,64.838 561.916667,64.922 562.206,64.922 Z M563.004,73 L563.004,66.126 L561.394,66.126 L561.394,73 L563.004,73 Z M567.456,76.038 C568.016,76.038 568.522333,75.975 568.975,75.849 C569.427667,75.723 569.812667,75.5526667 570.13,75.338 C570.447333,75.1233333 570.692333,74.8666667 570.865,74.568 C571.037667,74.2693333 571.124,73.952 571.124,73.616 C571.124,73.0186667 570.911667,72.587 570.487,72.321 C570.062333,72.055 569.434667,71.922 568.604,71.922 L568.604,71.922 L567.386,71.922 C566.966,71.922 566.674333,71.866 566.511,71.754 C566.347667,71.642 566.266,71.488 566.266,71.292 C566.266,71.1333333 566.296333,71.0073333 566.357,70.914 C566.417667,70.8206667 566.499333,70.7273333 566.602,70.634 C566.760667,70.6993333 566.919333,70.746 567.078,70.774 C567.236667,70.802 567.390667,70.816 567.54,70.816 C567.904,70.816 568.244667,70.7646667 568.562,70.662 C568.879333,70.5593333 569.154667,70.41 569.388,70.214 C569.621333,70.018 569.805667,69.7753333 569.941,69.486 C570.076333,69.1966667 570.144,68.8606667 570.144,68.478 C570.144,68.2353333 570.106667,68.0136667 570.032,67.813 C569.957333,67.6123333 569.864,67.4466667 569.752,67.316 L569.752,67.316 L571.012,67.316 L571.012,66.126 L568.548,66.126 C568.408,66.0793333 568.251667,66.0396667 568.079,66.007 C567.906333,65.9743333 567.726667,65.958 567.54,65.958 C567.176,65.958 566.830667,66.0116667 566.504,66.119 C566.177333,66.2263333 565.890333,66.385 565.643,66.595 C565.395667,66.805 565.197333,67.064 565.048,67.372 C564.898667,67.68 564.824,68.03 564.824,68.422 C564.824,68.8326667 564.915,69.1943333 565.097,69.507 C565.279,69.8196667 565.486667,70.0646667 565.72,70.242 L565.72,70.242 L565.72,70.298 C565.524,70.438 565.349,70.6176667 565.195,70.837 C565.041,71.0563333 564.964,71.3013333 564.964,71.572 C564.964,71.852 565.022333,72.0853333 565.139,72.272 C565.255667,72.4586667 565.402667,72.608 565.58,72.72 L565.58,72.72 L565.58,72.776 C565.262667,72.972 565.02,73.1936667 564.852,73.441 C564.684,73.6883333 564.6,73.9566667 564.6,74.246 C564.6,74.5446667 564.672333,74.806 564.817,75.03 C564.961667,75.254 565.16,75.4406667 565.412,75.59 C565.664,75.7393333 565.965,75.8513333 566.315,75.926 C566.665,76.0006667 567.045333,76.038 567.456,76.038 Z M567.54,69.808 C567.204,69.808 566.919333,69.689 566.686,69.451 C566.452667,69.213 566.336,68.87 566.336,68.422 C566.336,67.9833333 566.452667,67.6473333 566.686,67.414 C566.919333,67.1806667 567.204,67.064 567.54,67.064 C567.876,67.064 568.158333,67.183 568.387,67.421 C568.615667,67.659 568.73,67.9926667 568.73,68.422 C568.73,68.87 568.613333,69.213 568.38,69.451 C568.146667,69.689 567.866667,69.808 567.54,69.808 Z M567.708,74.988 C567.157333,74.988 566.725667,74.9016667 566.413,74.729 C566.100333,74.5563333 565.944,74.316 565.944,74.008 C565.944,73.672 566.121333,73.3686667 566.476,73.098 C566.728,73.1633333 567.040667,73.196 567.414,73.196 L567.414,73.196 L568.352,73.196 C568.744,73.196 569.045,73.2426667 569.255,73.336 C569.465,73.4293333 569.57,73.6113333 569.57,73.882 C569.57,74.1806667 569.399667,74.4396667 569.059,74.659 C568.718333,74.8783333 568.268,74.988 567.708,74.988 Z M573.756,73.168 C574.166667,73.168 574.547,73.0793333 574.897,72.902 C575.247,72.7246667 575.576,72.5053333 575.884,72.244 L575.884,72.244 L575.94,72.244 L576.052,73 L577.382,73 L577.382,68.926 C577.382,67.9646667 577.169667,67.2296667 576.745,66.721 C576.320333,66.2123333 575.678667,65.958 574.82,65.958 C574.269333,65.958 573.756,66.0466667 573.28,66.224 C572.804,66.4013333 572.374667,66.6113333 571.992,66.854 L571.992,66.854 L572.58,67.932 C572.888,67.7453333 573.203,67.5866667 573.525,67.456 C573.847,67.3253333 574.176,67.26 574.512,67.26 C574.745333,67.26 574.941333,67.295 575.1,67.365 C575.258667,67.435 575.387,67.533 575.485,67.659 C575.583,67.785 575.653,67.9296667 575.695,68.093 C575.737,68.2563333 575.762667,68.4266667 575.772,68.604 C575.062667,68.6786667 574.453667,68.786 573.945,68.926 C573.436333,69.066 573.016333,69.2386667 572.685,69.444 C572.353667,69.6493333 572.111,69.8943333 571.957,70.179 C571.803,70.4636667 571.726,70.788 571.726,71.152 C571.726,71.7586667 571.912667,72.2463333 572.286,72.615 C572.659333,72.9836667 573.149333,73.168 573.756,73.168 Z M574.274,71.908 C573.984667,71.908 573.746667,71.838 573.56,71.698 C573.373333,71.558 573.28,71.334 573.28,71.026 C573.28,70.858 573.322,70.6993333 573.406,70.55 C573.49,70.4006667 573.63,70.2676667 573.826,70.151 C574.022,70.0343333 574.278667,69.9293333 574.596,69.836 C574.913333,69.7426667 575.305333,69.668 575.772,69.612 L575.772,69.612 L575.772,71.152 C575.510667,71.3946667 575.265667,71.5813333 575.037,71.712 C574.808333,71.8426667 574.554,71.908 574.274,71.908 Z M581.512,73.168 C581.782667,73.168 582.037,73.1423333 582.275,73.091 C582.513,73.0396667 582.725333,72.9813333 582.912,72.916 L582.912,72.916 L582.632,71.726 C582.529333,71.7726667 582.415,71.81 582.289,71.838 C582.163,71.866 582.039333,71.88 581.918,71.88 C581.274,71.88 580.952,71.4786667 580.952,70.676 L580.952,70.676 L580.952,67.4 L582.702,67.4 L582.702,66.126 L580.952,66.126 L580.952,64.25 L579.608,64.25 L579.412,66.126 L578.348,66.196 L578.348,67.4 L579.328,67.4 L579.328,70.676 C579.328,71.0493333 579.367667,71.3876667 579.447,71.691 C579.526333,71.9943333 579.652333,72.2556667 579.825,72.475 C579.997667,72.6943333 580.221667,72.8646667 580.497,72.986 C580.772333,73.1073333 581.110667,73.168 581.512,73.168 Z M586.86,73.168 C587.298667,73.168 587.718667,73.098 588.12,72.958 C588.521333,72.818 588.885333,72.6406667 589.212,72.426 L589.212,72.426 L588.666,71.418 C588.414,71.5766667 588.159667,71.7003333 587.903,71.789 C587.646333,71.8776667 587.368667,71.922 587.07,71.922 C586.51,71.922 586.050333,71.7563333 585.691,71.425 C585.331667,71.0936667 585.114667,70.62 585.04,70.004 L585.04,70.004 L589.408,70.004 C589.426667,69.92 589.443,69.808 589.457,69.668 C589.471,69.528 589.478,69.3786667 589.478,69.22 C589.478,68.744 589.417333,68.3053333 589.296,67.904 C589.174667,67.5026667 588.995,67.1573333 588.757,66.868 C588.519,66.5786667 588.222667,66.3546667 587.868,66.196 C587.513333,66.0373333 587.102667,65.958 586.636,65.958 C586.234667,65.958 585.842667,66.042 585.46,66.21 C585.077333,66.378 584.739,66.616 584.445,66.924 C584.151,67.232 583.915333,67.61 583.738,68.058 C583.560667,68.506 583.472,69.01 583.472,69.57 C583.472,70.1393333 583.558333,70.6456667 583.731,71.089 C583.903667,71.5323333 584.144,71.908 584.452,72.216 C584.76,72.524 585.119333,72.7596667 585.53,72.923 C585.940667,73.0863333 586.384,73.168 586.86,73.168 Z M588.078,68.912 L585.026,68.912 C585.100667,68.352 585.292,67.9273333 585.6,67.638 C585.908,67.3486667 586.267333,67.204 586.678,67.204 C587.154,67.204 587.506333,67.3556667 587.735,67.659 C587.963667,67.9623333 588.078,68.38 588.078,68.912 L588.078,68.912 Z M593.426,73.168 C593.799333,73.168 594.154,73.0793333 594.49,72.902 C594.826,72.7246667 595.12,72.51 595.372,72.258 L595.372,72.258 L595.428,72.258 L595.54,73 L596.87,73 L596.87,63.116 L595.26,63.116 L595.26,65.608 L595.316,66.714 C595.045333,66.4806667 594.774667,66.2963333 594.504,66.161 C594.233333,66.0256667 593.902,65.958 593.51,65.958 C593.136667,65.958 592.775,66.042 592.425,66.21 C592.075,66.378 591.764667,66.616 591.494,66.924 C591.223333,67.232 591.006333,67.61 590.843,68.058 C590.679667,68.506 590.598,69.01 590.598,69.57 C590.598,70.7086667 590.852333,71.593 591.361,72.223 C591.869667,72.853 592.558,73.168 593.426,73.168 Z M593.818,71.838 C593.314,71.838 592.929,71.6443333 592.663,71.257 C592.397,70.8696667 592.264,70.3026667 592.264,69.556 C592.264,68.828 592.418,68.268 592.726,67.876 C593.034,67.484 593.412,67.288 593.86,67.288 C594.093333,67.288 594.324333,67.33 594.553,67.414 C594.781667,67.498 595.017333,67.6473333 595.26,67.862 L595.26,67.862 L595.26,71.068 C594.812,71.5813333 594.331333,71.838 593.818,71.838 Z M527.948,92.54 L527.948,91.126 C528.62,91.0326667 529.149667,90.7713333 529.537,90.342 C529.924333,89.9126667 530.118,89.362 530.118,88.69 C530.118,88.186 530.022333,87.773 529.831,87.451 C529.639667,87.129 529.399333,86.8583333 529.11,86.639 C528.820667,86.4196667 528.505667,86.233 528.165,86.079 C527.824333,85.925 527.509333,85.7663333 527.22,85.603 C526.930667,85.4396667 526.690333,85.2506667 526.499,85.036 C526.307667,84.8213333 526.212,84.546 526.212,84.21 C526.212,83.7993333 526.338,83.4726667 526.59,83.23 C526.842,82.9873333 527.182667,82.866 527.612,82.866 C527.994667,82.866 528.309667,82.936 528.557,83.076 C528.804333,83.216 529.058667,83.412 529.32,83.664 L529.32,83.664 L529.936,82.978 C529.684,82.7073333 529.401667,82.474 529.089,82.278 C528.776333,82.082 528.396,81.9606667 527.948,81.914 L527.948,81.914 L527.948,80.528 L527.108,80.528 L527.108,81.942 C526.492,82.0353333 525.999667,82.2896667 525.631,82.705 C525.262333,83.1203333 525.078,83.6406667 525.078,84.266 C525.078,84.7233333 525.173667,85.099 525.365,85.393 C525.556333,85.687 525.796667,85.9366667 526.086,86.142 C526.375333,86.3473333 526.690333,86.5293333 527.031,86.688 C527.371667,86.8466667 527.686667,87.017 527.976,87.199 C528.265333,87.381 528.505667,87.5956667 528.697,87.843 C528.888333,88.0903333 528.984,88.4006667 528.984,88.774 C528.984,89.2126667 528.855667,89.5626667 528.599,89.824 C528.342333,90.0853333 527.952667,90.216 527.43,90.216 C527.000667,90.216 526.606333,90.125 526.247,89.943 C525.887667,89.761 525.558667,89.5393333 525.26,89.278 L525.26,89.278 L524.728,90.076 C525.026667,90.3466667 525.386,90.5823333 525.806,90.783 C526.226,90.9836667 526.66,91.1073333 527.108,91.154 L527.108,91.154 L527.108,92.54 L527.948,92.54 Z M534.458,91.168 C534.887333,91.168 535.279333,91.1073333 535.634,90.986 C535.988667,90.8646667 536.292,90.6966667 536.544,90.482 C536.796,90.2673333 536.992,90.0153333 537.132,89.726 C537.272,89.4366667 537.342,89.124 537.342,88.788 C537.342,88.4893333 537.297667,88.2233333 537.209,87.99 C537.120333,87.7566667 537.003667,87.549 536.859,87.367 C536.714333,87.185 536.548667,87.0216667 536.362,86.877 C536.175333,86.7323333 535.984,86.604 535.788,86.492 L535.788,86.492 L535.788,86.436 C535.928,86.3333333 536.070333,86.2073333 536.215,86.058 C536.359667,85.9086667 536.490333,85.7406667 536.607,85.554 C536.723667,85.3673333 536.821667,85.1666667 536.901,84.952 C536.980333,84.7373333 537.02,84.5133333 537.02,84.28 C537.02,83.9346667 536.961667,83.615 536.845,83.321 C536.728333,83.027 536.560333,82.775 536.341,82.565 C536.121667,82.355 535.858,82.1916667 535.55,82.075 C535.242,81.9583333 534.892,81.9 534.5,81.9 C534.136,81.9 533.8,81.956 533.492,82.068 C533.184,82.18 532.918,82.3363333 532.694,82.537 C532.47,82.7376667 532.292667,82.978 532.162,83.258 C532.031333,83.538 531.966,83.8506667 531.966,84.196 C531.966,84.672 532.092,85.0756667 532.344,85.407 C532.596,85.7383333 532.885333,86.0206667 533.212,86.254 L533.212,86.254 L533.212,86.31 C532.997333,86.422 532.789667,86.555 532.589,86.709 C532.388333,86.863 532.211,87.0403333 532.057,87.241 C531.903,87.4416667 531.777,87.6656667 531.679,87.913 C531.581,88.1603333 531.532,88.4286667 531.532,88.718 C531.532,89.0726667 531.606667,89.3993333 531.756,89.698 C531.905333,89.9966667 532.108333,90.2556667 532.365,90.475 C532.621667,90.6943333 532.929667,90.8646667 533.289,90.986 C533.648333,91.1073333 534.038,91.168 534.458,91.168 Z M535.088,86.128 C534.817333,86.0253333 534.558333,85.9156667 534.311,85.799 C534.063667,85.6823333 533.844333,85.5493333 533.653,85.4 C533.461667,85.2506667 533.31,85.0803333 533.198,84.889 C533.086,84.6976667 533.03,84.4666667 533.03,84.196 C533.03,83.7573333 533.165333,83.4073333 533.436,83.146 C533.706667,82.8846667 534.052,82.754 534.472,82.754 C534.966667,82.754 535.349333,82.9056667 535.62,83.209 C535.890667,83.5123333 536.026,83.888 536.026,84.336 C536.026,84.6626667 535.944333,84.9753333 535.781,85.274 C535.617667,85.5726667 535.386667,85.8573333 535.088,86.128 Z M534.486,90.314 C534.215333,90.314 533.963333,90.272 533.73,90.188 C533.496667,90.104 533.293667,89.985 533.121,89.831 C532.948333,89.677 532.813,89.4973333 532.715,89.292 C532.617,89.0866667 532.568,88.858 532.568,88.606 C532.568,88.1953333 532.687,87.829 532.925,87.507 C533.163,87.185 533.459333,86.9026667 533.814,86.66 C534.131333,86.7906667 534.437,86.919 534.731,87.045 C535.025,87.171 535.284,87.311 535.508,87.465 C535.732,87.619 535.909333,87.7986667 536.04,88.004 C536.170667,88.2093333 536.236,88.4566667 536.236,88.746 C536.236,89.2126667 536.075,89.5906667 535.753,89.88 C535.431,90.1693333 535.008667,90.314 534.486,90.314 Z M541.22,91.168 C541.630667,91.168 542.013333,91.1096667 542.368,90.993 C542.722667,90.8763333 543.033,90.7083333 543.299,90.489 C543.565,90.2696667 543.775,90.0013333 543.929,89.684 C544.083,89.3666667 544.16,89.012 544.16,88.62 C544.16,88.312 544.111,88.032 544.013,87.78 C543.915,87.528 543.777333,87.3063333 543.6,87.115 C543.422667,86.9236667 543.217333,86.765 542.984,86.639 C542.750667,86.513 542.498667,86.4173333 542.228,86.352 L542.228,86.352 L542.228,86.296 C542.713333,86.1093333 543.105333,85.8433333 543.404,85.498 C543.702667,85.1526667 543.852,84.7093333 543.852,84.168 C543.852,83.804 543.786667,83.482 543.656,83.202 C543.525333,82.922 543.341,82.6863333 543.103,82.495 C542.865,82.3036667 542.582667,82.1566667 542.256,82.054 C541.929333,81.9513333 541.57,81.9 541.178,81.9 C540.646,81.9 540.172333,82.005 539.757,82.215 C539.341667,82.425 538.961333,82.6933333 538.616,83.02 L538.616,83.02 L539.232,83.748 C539.502667,83.4773333 539.794333,83.258 540.107,83.09 C540.419667,82.922 540.762667,82.838 541.136,82.838 C541.612,82.838 541.987667,82.964 542.263,83.216 C542.538333,83.468 542.676,83.8133333 542.676,84.252 C542.676,84.4853333 542.634,84.7046667 542.55,84.91 C542.466,85.1153333 542.323667,85.2926667 542.123,85.442 C541.922333,85.5913333 541.661,85.708 541.339,85.792 C541.017,85.876 540.618,85.918 540.142,85.918 L540.142,85.918 L540.142,86.8 C540.674,86.8 541.122,86.842 541.486,86.926 C541.85,87.01 542.144,87.1313333 542.368,87.29 C542.592,87.4486667 542.753,87.6376667 542.851,87.857 C542.949,88.0763333 542.998,88.3166667 542.998,88.578 C542.998,89.082 542.825333,89.481 542.48,89.775 C542.134667,90.069 541.691333,90.216 541.15,90.216 C540.618,90.216 540.172333,90.1086667 539.813,89.894 C539.453667,89.6793333 539.138667,89.432 538.868,89.152 L538.868,89.152 L538.28,89.908 C538.429333,90.076 538.599667,90.2346667 538.791,90.384 C538.982333,90.5333333 539.199333,90.6663333 539.442,90.783 C539.684667,90.8996667 539.953,90.993 540.247,91.063 C540.541,91.133 540.865333,91.168 541.22,91.168 Z M548.15,91.168 C548.542,91.168 548.917667,91.1003333 549.277,90.965 C549.636333,90.8296667 549.956,90.6336667 550.236,90.377 C550.516,90.1203333 550.74,89.8053333 550.908,89.432 C551.076,89.0586667 551.16,88.6293333 551.16,88.144 C551.16,87.6586667 551.087667,87.241 550.943,86.891 C550.798333,86.541 550.6,86.2516667 550.348,86.023 C550.096,85.7943333 549.802,85.624 549.466,85.512 C549.13,85.4 548.770667,85.344 548.388,85.344 C548.117333,85.344 547.874667,85.3766667 547.66,85.442 C547.445333,85.5073333 547.230667,85.596 547.016,85.708 L547.016,85.708 L547.254,83.062 L550.712,83.062 L550.712,82.068 L546.246,82.068 L545.952,86.366 L546.568,86.758 C546.838667,86.5806667 547.083667,86.4453333 547.303,86.352 C547.522333,86.2586667 547.786,86.212 548.094,86.212 C548.672667,86.212 549.134667,86.3846667 549.48,86.73 C549.825333,87.0753333 549.998,87.556 549.998,88.172 C549.998,88.48 549.946667,88.76 549.844,89.012 C549.741333,89.264 549.601333,89.4786667 549.424,89.656 C549.246667,89.8333333 549.039,89.971 548.801,90.069 C548.563,90.167 548.308667,90.216 548.038,90.216 C547.515333,90.216 547.074333,90.1133333 546.715,89.908 C546.355667,89.7026667 546.045333,89.4646667 545.784,89.194 L545.784,89.194 L545.224,89.95 C545.373333,90.1086667 545.543667,90.2603333 545.735,90.405 C545.926333,90.5496667 546.141,90.678 546.379,90.79 C546.617,90.902 546.883,90.993 547.177,91.063 C547.471,91.133 547.795333,91.168 548.15,91.168 Z M556.018,91 C556.531333,91 557.002667,90.944 557.432,90.832 C557.861333,90.72 558.23,90.552 558.538,90.328 C558.846,90.104 559.084,89.824 559.252,89.488 C559.42,89.152 559.504,88.76 559.504,88.312 C559.504,87.6773333 559.331333,87.178 558.986,86.814 C558.640667,86.45 558.188,86.2166667 557.628,86.114 L557.628,86.114 L557.628,86.058 C558.066667,85.918 558.400333,85.6636667 558.629,85.295 C558.857667,84.9263333 558.972,84.5133333 558.972,84.056 C558.972,83.6546667 558.895,83.3116667 558.741,83.027 C558.587,82.7423333 558.372333,82.5113333 558.097,82.334 C557.821667,82.1566667 557.490333,82.026 557.103,81.942 C556.715667,81.858 556.288667,81.816 555.822,81.816 L555.822,81.816 L553.092,81.816 L553.092,91 L556.018,91 Z M555.612,85.722 L554.254,85.722 L554.254,82.74 L555.668,82.74 C556.386667,82.74 556.925667,82.852 557.285,83.076 C557.644333,83.3 557.824,83.678 557.824,84.21 C557.824,84.6766667 557.651333,85.0453333 557.306,85.316 C556.960667,85.5866667 556.396,85.722 555.612,85.722 L555.612,85.722 Z M555.85,90.076 L554.254,90.076 L554.254,86.618 L555.85,86.618 C556.662,86.618 557.282667,86.751 557.712,87.017 C558.141333,87.283 558.356,87.7006667 558.356,88.27 C558.356,88.886 558.136667,89.341 557.698,89.635 C557.259333,89.929 556.643333,90.076 555.85,90.076 L555.85,90.076 Z" id="Unobligated$835B" fill="#666666" fill-rule="nonzero"></path>
                <line x1="593.5" y1="40" x2="593.5" y2="55" id="Line-Copy-2" stroke="#C6C6C6"></line>
                <line x1="10.5" y1="40" x2="10.5" y2="55" id="Line" stroke="#C6C6C6"></line>
                <line x1="339.5" y1="40" x2="339.5" y2="55" id="Line-Copy-4" stroke="#C6C6C6"></line>
                <rect id="unobligated" fill="#F3E9FF" x="357" y="0" width="241" height="40"></rect>
                <rect id="obligated" fill="#6F41A7" x="321" y="0" width="36" height="40"></rect>
                <rect id="outlays" fill="#331E4D" x="0" y="0" width="321" height="40"></rect>
                <path d="M610.992,27.76 L610.992,26.096 C611.824,25.9146667 612.448,25.5493333 612.864,25 C613.28,24.4506667 613.488,23.792 613.488,23.024 C613.488,22.512 613.384,22.0826667 613.176,21.736 C612.968,21.3893333 612.706667,21.0933333 612.392,20.848 C612.077333,20.6026667 611.738667,20.3946667 611.376,20.224 C611.013333,20.0533333 610.674667,19.888 610.36,19.728 C610.045333,19.568 609.784,19.4 609.576,19.224 C609.368,19.048 609.264,18.832 609.264,18.576 C609.264,18.2133333 609.365333,17.952 609.568,17.792 C609.770667,17.632 610.064,17.552 610.448,17.552 C610.789333,17.552 611.093333,17.6186667 611.36,17.752 C611.626667,17.8853333 611.904,18.0853333 612.192,18.352 L612.192,18.352 L613.376,17.008 C613.066667,16.6773333 612.72,16.3946667 612.336,16.16 C611.952,15.9253333 611.504,15.7706667 610.992,15.696 L610.992,15.696 L610.992,14.08 L609.44,14.08 L609.44,15.728 C608.682667,15.8773333 608.088,16.2106667 607.656,16.728 C607.224,17.2453333 607.008,17.8986667 607.008,18.688 C607.008,19.168 607.112,19.5733333 607.32,19.904 C607.528,20.2346667 607.789333,20.5226667 608.104,20.768 C608.418667,21.0133333 608.757333,21.224 609.12,21.4 C609.482667,21.576 609.821333,21.752 610.136,21.928 C610.450667,22.104 610.712,22.288 610.92,22.48 C611.128,22.672 611.232,22.9066667 611.232,23.184 C611.232,23.5573333 611.128,23.8346667 610.92,24.016 C610.712,24.1973333 610.384,24.288 609.936,24.288 C609.552,24.288 609.176,24.2106667 608.808,24.056 C608.44,23.9013333 608.053333,23.6693333 607.648,23.36 L607.648,23.36 L606.624,24.944 C606.997333,25.2853333 607.442667,25.56 607.96,25.768 C608.477333,25.976 608.970667,26.1066667 609.44,26.16 L609.44,26.16 L609.44,27.76 L610.992,27.76 Z M622.192,26 L622.192,24.016 L620.144,24.016 C619.898667,24.016 619.618667,24.0293333 619.304,24.056 C618.989333,24.0826667 618.704,24.112 618.448,24.144 C618.864,23.7173333 619.266667,23.2826667 619.656,22.84 C620.045333,22.3973333 620.392,21.9546667 620.696,21.512 C621,21.0693333 621.242667,20.6266667 621.424,20.184 C621.605333,19.7413333 621.696,19.3066667 621.696,18.88 C621.696,18.3893333 621.616,17.9466667 621.456,17.552 C621.296,17.1573333 621.066667,16.8186667 620.768,16.536 C620.469333,16.2533333 620.114667,16.0346667 619.704,15.88 C619.293333,15.7253333 618.837333,15.648 618.336,15.648 C617.610667,15.648 616.986667,15.784 616.464,16.056 C615.941333,16.328 615.429333,16.7306667 614.928,17.264 L614.928,17.264 L616.208,18.528 C616.464,18.2506667 616.736,18.008 617.024,17.8 C617.312,17.592 617.642667,17.488 618.016,17.488 C618.464,17.488 618.816,17.6186667 619.072,17.88 C619.328,18.1413333 619.456,18.5226667 619.456,19.024 C619.456,19.3866667 619.346667,19.768 619.128,20.168 C618.909333,20.568 618.605333,21 618.216,21.464 C617.826667,21.928 617.362667,22.424 616.824,22.952 C616.285333,23.48 615.690667,24.048 615.04,24.656 L615.04,24.656 L615.04,26 L622.192,26 Z M625.296,26.192 C625.701333,26.192 626.04,26.0506667 626.312,25.768 C626.584,25.4853333 626.72,25.136 626.72,24.72 C626.72,24.2933333 626.584,23.9386667 626.312,23.656 C626.04,23.3733333 625.701333,23.232 625.296,23.232 C624.890667,23.232 624.552,23.3733333 624.28,23.656 C624.008,23.9386667 623.872,24.2933333 623.872,24.72 C623.872,25.136 624.008,25.4853333 624.28,25.768 C624.552,26.0506667 624.890667,26.192 625.296,26.192 Z M631.92,26.192 C632.464,26.192 632.96,26.0773333 633.408,25.848 C633.856,25.6186667 634.237333,25.28 634.552,24.832 C634.866667,24.384 635.112,23.8293333 635.288,23.168 C635.464,22.5066667 635.552,21.744 635.552,20.88 C635.552,20.016 635.464,19.2586667 635.288,18.608 C635.112,17.9573333 634.866667,17.4106667 634.552,16.968 C634.237333,16.5253333 633.856,16.1946667 633.408,15.976 C632.96,15.7573333 632.464,15.648 631.92,15.648 C631.376,15.648 630.88,15.7573333 630.432,15.976 C629.984,16.1946667 629.602667,16.5253333 629.288,16.968 C628.973333,17.4106667 628.728,17.9573333 628.552,18.608 C628.376,19.2586667 628.288,20.016 628.288,20.88 C628.288,21.744 628.376,22.5066667 628.552,23.168 C628.728,23.8293333 628.973333,24.384 629.288,24.832 C629.602667,25.28 629.984,25.6186667 630.432,25.848 C630.88,26.0773333 631.376,26.192 631.92,26.192 Z M631.92,24.368 C631.728,24.368 631.546667,24.3173333 631.376,24.216 C631.205333,24.1146667 631.056,23.9306667 630.928,23.664 C630.8,23.3973333 630.698667,23.04 630.624,22.592 C630.549333,22.144 630.512,21.5733333 630.512,20.88 C630.512,20.1866667 630.549333,19.6186667 630.624,19.176 C630.698667,18.7333333 630.8,18.3866667 630.928,18.136 C631.056,17.8853333 631.205333,17.712 631.376,17.616 C631.546667,17.52 631.728,17.472 631.92,17.472 C632.122667,17.472 632.309333,17.52 632.48,17.616 C632.650667,17.712 632.8,17.8853333 632.928,18.136 C633.056,18.3866667 633.154667,18.7333333 633.224,19.176 C633.293333,19.6186667 633.328,20.1866667 633.328,20.88 C633.328,21.5733333 633.293333,22.144 633.224,22.592 C633.154667,23.04 633.056,23.3973333 632.928,23.664 C632.8,23.9306667 632.650667,24.1146667 632.48,24.216 C632.309333,24.3173333 632.122667,24.368 631.92,24.368 Z M641.056,26 C641.098667,25.008 641.162667,24.1306667 641.248,23.368 C641.333333,22.6053333 641.474667,21.8906667 641.672,21.224 C641.869333,20.5573333 642.146667,19.912 642.504,19.288 C642.861333,18.664 643.333333,17.9946667 643.92,17.28 L643.92,17.28 L643.92,15.84 L636.848,15.84 L636.848,17.824 L641.408,17.824 C640.928,18.4853333 640.525333,19.1253333 640.2,19.744 C639.874667,20.3626667 639.608,20.9946667 639.4,21.64 C639.192,22.2853333 639.032,22.9626667 638.92,23.672 C638.808,24.3813333 638.730667,25.1573333 638.688,26 L638.688,26 L641.056,26 Z M650.224,26 L650.224,17.552 L653.088,17.552 L653.088,15.568 L644.992,15.568 L644.992,17.552 L647.856,17.552 L647.856,26 L650.224,26 Z" id="$2.07T" fill="#555555" fill-rule="nonzero"></path>
            </g>
        </g>
    </g>
</svg>