<?xml version="1.0" encoding="UTF-8"?>
<svg width="368px" height="83px" viewBox="0 0 368 83" version="1.1" xmlns="http://www.w3.org/2000/svg" xmlns:xlink="http://www.w3.org/1999/xlink">
    <title>Law 3 - A - General</title>
    <g id="SVG-2.0" stroke="none" stroke-width="1" fill="none" fill-rule="evenodd">
        <g id="viz-3-tablet-outline" transform="translate(-61.000000, -1182.000000)">
            <g id="Law-3---A---General" transform="translate(61.000000, 1182.000000)">
                <path d="M5.032,63.052 C5.62933333,63.052 6.17533333,62.9423333 6.67,62.723 C7.16466667,62.5036667 7.59166667,62.1863333 7.951,61.771 C8.31033333,61.3556667 8.588,60.854 8.784,60.266 C8.98,59.678 9.078,59.0106667 9.078,58.264 C9.078,57.5266667 8.98,56.8663333 8.784,56.283 C8.588,55.6996667 8.31033333,55.2073333 7.951,54.806 C7.59166667,54.4046667 7.16466667,54.0966667 6.67,53.882 C6.17533333,53.6673333 5.62933333,53.56 5.032,53.56 C4.43466667,53.56 3.88866667,53.6673333 3.394,53.882 C2.89933333,54.0966667 2.47466667,54.4046667 2.12,54.806 C1.76533333,55.2073333 1.49,55.6996667 1.294,56.283 C1.098,56.8663333 1,57.5266667 1,58.264 C1,59.0106667 1.098,59.678 1.294,60.266 C1.49,60.854 1.76533333,61.3556667 2.12,61.771 C2.47466667,62.1863333 2.89933333,62.5036667 3.394,62.723 C3.88866667,62.9423333 4.43466667,63.052 5.032,63.052 Z M5.032,61.638 C4.668,61.638 4.34133333,61.5586667 4.052,61.4 C3.76266667,61.2413333 3.51533333,61.015 3.31,60.721 C3.10466667,60.427 2.946,60.0723333 2.834,59.657 C2.722,59.2416667 2.666,58.7773333 2.666,58.264 C2.666,57.2373333 2.87833333,56.4323333 3.303,55.849 C3.72766667,55.2656667 4.304,54.974 5.032,54.974 C5.76,54.974 6.33633333,55.2656667 6.761,55.849 C7.18566667,56.4323333 7.398,57.2373333 7.398,58.264 C7.398,58.7773333 7.342,59.2416667 7.23,59.657 C7.118,60.0723333 6.95933333,60.427 6.754,60.721 C6.54866667,61.015 6.30133333,61.2413333 6.012,61.4 C5.72266667,61.5586667 5.396,61.638 5.032,61.638 Z M12.816,63.052 C13.292,63.052 13.705,62.9446667 14.055,62.73 C14.405,62.5153333 14.7293333,62.2306667 15.028,61.876 L15.028,61.876 L15.07,61.876 L15.196,62.884 L16.512,62.884 L16.512,56.01 L14.902,56.01 L14.902,60.714 C14.6406667,61.05 14.3956667,61.2926667 14.167,61.442 C13.9383333,61.5913333 13.6746667,61.666 13.376,61.666 C13.0026667,61.666 12.732,61.5493333 12.564,61.316 C12.396,61.0826667 12.312,60.6813333 12.312,60.112 L12.312,60.112 L12.312,56.01 L10.702,56.01 L10.702,60.322 C10.702,61.1993333 10.87,61.8736667 11.206,62.345 C11.542,62.8163333 12.0786667,63.052 12.816,63.052 Z M20.978,63.052 C21.2486667,63.052 21.503,63.0263333 21.741,62.975 C21.979,62.9236667 22.1913333,62.8653333 22.378,62.8 L22.378,62.8 L22.098,61.61 C21.9953333,61.6566667 21.881,61.694 21.755,61.722 C21.629,61.75 21.5053333,61.764 21.384,61.764 C20.74,61.764 20.418,61.3626667 20.418,60.56 L20.418,60.56 L20.418,57.284 L22.168,57.284 L22.168,56.01 L20.418,56.01 L20.418,54.134 L19.074,54.134 L18.878,56.01 L17.814,56.08 L17.814,57.284 L18.794,57.284 L18.794,60.56 C18.794,60.9333333 18.8336667,61.2716667 18.913,61.575 C18.9923333,61.8783333 19.1183333,62.1396667 19.291,62.359 C19.4636667,62.5783333 19.6876667,62.7486667 19.963,62.87 C20.2383333,62.9913333 20.5766667,63.052 20.978,63.052 Z M25.178,63.052 C25.5326667,63.052 25.8173333,63.0053333 26.032,62.912 L26.032,62.912 L25.822,61.708 C25.7566667,61.7266667 25.7076667,61.736 25.675,61.736 L25.675,61.736 L25.57,61.736 C25.486,61.736 25.4066667,61.6963333 25.332,61.617 C25.2573333,61.5376667 25.22,61.4 25.22,61.204 L25.22,61.204 L25.22,53 L23.61,53 L23.61,61.12 C23.61,61.7173333 23.7266667,62.1886667 23.96,62.534 C24.1933333,62.8793333 24.5993333,63.052 25.178,63.052 Z M29.07,63.052 C29.4806667,63.052 29.861,62.9633333 30.211,62.786 C30.561,62.6086667 30.89,62.3893333 31.198,62.128 L31.198,62.128 L31.254,62.128 L31.366,62.884 L32.696,62.884 L32.696,58.81 C32.696,57.8486667 32.4836667,57.1136667 32.059,56.605 C31.6343333,56.0963333 30.9926667,55.842 30.134,55.842 C29.5833333,55.842 29.07,55.9306667 28.594,56.108 C28.118,56.2853333 27.6886667,56.4953333 27.306,56.738 L27.306,56.738 L27.894,57.816 C28.202,57.6293333 28.517,57.4706667 28.839,57.34 C29.161,57.2093333 29.49,57.144 29.826,57.144 C30.0593333,57.144 30.2553333,57.179 30.414,57.249 C30.5726667,57.319 30.701,57.417 30.799,57.543 C30.897,57.669 30.967,57.8136667 31.009,57.977 C31.051,58.1403333 31.0766667,58.3106667 31.086,58.488 C30.3766667,58.5626667 29.7676667,58.67 29.259,58.81 C28.7503333,58.95 28.3303333,59.1226667 27.999,59.328 C27.6676667,59.5333333 27.425,59.7783333 27.271,60.063 C27.117,60.3476667 27.04,60.672 27.04,61.036 C27.04,61.6426667 27.2266667,62.1303333 27.6,62.499 C27.9733333,62.8676667 28.4633333,63.052 29.07,63.052 Z M29.588,61.792 C29.2986667,61.792 29.0606667,61.722 28.874,61.582 C28.6873333,61.442 28.594,61.218 28.594,60.91 C28.594,60.742 28.636,60.5833333 28.72,60.434 C28.804,60.2846667 28.944,60.1516667 29.14,60.035 C29.336,59.9183333 29.5926667,59.8133333 29.91,59.72 C30.2273333,59.6266667 30.6193333,59.552 31.086,59.496 L31.086,59.496 L31.086,61.036 C30.8246667,61.2786667 30.5796667,61.4653333 30.351,61.596 C30.1223333,61.7266667 29.868,61.792 29.588,61.792 Z M35.09,65.712 C35.4633333,65.712 35.7923333,65.6536667 36.077,65.537 C36.3616667,65.4203333 36.6136667,65.2523333 36.833,65.033 C37.0523333,64.8136667 37.246,64.55 37.414,64.242 C37.582,63.934 37.736,63.584 37.876,63.192 L37.876,63.192 L40.368,56.01 L38.814,56.01 L37.778,59.384 C37.694,59.692 37.6076667,60.0116667 37.519,60.343 C37.4303333,60.6743333 37.344,60.9986667 37.26,61.316 L37.26,61.316 L37.204,61.316 C37.1013333,60.9893333 37.001,60.6603333 36.903,60.329 C36.805,59.9976667 36.7046667,59.6826667 36.602,59.384 L36.602,59.384 L35.412,56.01 L33.774,56.01 L36.476,62.8 L36.35,63.234 C36.238,63.5793333 36.0723333,63.8616667 35.853,64.081 C35.6336667,64.3003333 35.342,64.41 34.978,64.41 C34.894,64.41 34.8076667,64.3983333 34.719,64.375 C34.6303333,64.3516667 34.5533333,64.3306667 34.488,64.312 L34.488,64.312 L34.194,65.572 C34.3246667,65.6186667 34.46,65.6536667 34.6,65.677 C34.74,65.7003333 34.9033333,65.712 35.09,65.712 Z M43.476,63.052 C43.9053333,63.052 44.288,62.996 44.624,62.884 C44.96,62.772 45.24,62.6203333 45.464,62.429 C45.688,62.2376667 45.8583333,62.0136667 45.975,61.757 C46.0916667,61.5003333 46.15,61.2226667 46.15,60.924 C46.15,60.6066667 46.0916667,60.3336667 45.975,60.105 C45.8583333,59.8763333 45.7043333,59.6826667 45.513,59.524 C45.3216667,59.3653333 45.1093333,59.2323333 44.876,59.125 C44.6426667,59.0176667 44.4093333,58.922 44.176,58.838 C43.9893333,58.7726667 43.8096667,58.7073333 43.637,58.642 C43.4643333,58.5766667 43.3126667,58.5066667 43.182,58.432 C43.0513333,58.3573333 42.9463333,58.271 42.867,58.173 C42.7876667,58.075 42.748,57.956 42.748,57.816 C42.748,57.6013333 42.8296667,57.4216667 42.993,57.277 C43.1563333,57.1323333 43.4106667,57.06 43.756,57.06 C44.0266667,57.06 44.2856667,57.1136667 44.533,57.221 C44.7803333,57.3283333 45.0253333,57.4706667 45.268,57.648 L45.268,57.648 L46.01,56.668 C45.73,56.4533333 45.3986667,56.262 45.016,56.094 C44.6333333,55.926 44.204,55.842 43.728,55.842 C42.9533333,55.842 42.342,56.0333333 41.894,56.416 C41.446,56.7986667 41.222,57.2933333 41.222,57.9 C41.222,58.1893333 41.2803333,58.439 41.397,58.649 C41.5136667,58.859 41.663,59.0433333 41.845,59.202 C42.027,59.3606667 42.2346667,59.496 42.468,59.608 C42.7013333,59.72 42.93,59.818 43.154,59.902 C43.3313333,59.9766667 43.5086667,60.049 43.686,60.119 C43.8633333,60.189 44.022,60.266 44.162,60.35 C44.302,60.434 44.414,60.5296667 44.498,60.637 C44.582,60.7443333 44.624,60.868 44.624,61.008 C44.624,61.2506667 44.5353333,61.449 44.358,61.603 C44.1806667,61.757 43.9053333,61.834 43.532,61.834 C43.1773333,61.834 42.8483333,61.7663333 42.545,61.631 C42.2416667,61.4956667 41.936,61.3066667 41.628,61.064 L41.628,61.064 L40.872,62.1 C41.208,62.3706667 41.607,62.597 42.069,62.779 C42.531,62.961 43,63.052 43.476,63.052 Z M4.262,82.424 L4.262,81.01 C4.934,80.9166667 5.46366667,80.6553333 5.851,80.226 C6.23833333,79.7966667 6.432,79.246 6.432,78.574 C6.432,78.07 6.33633333,77.657 6.145,77.335 C5.95366667,77.013 5.71333333,76.7423333 5.424,76.523 C5.13466667,76.3036667 4.81966667,76.117 4.479,75.963 C4.13833333,75.809 3.82333333,75.6503333 3.534,75.487 C3.24466667,75.3236667 3.00433333,75.1346667 2.813,74.92 C2.62166667,74.7053333 2.526,74.43 2.526,74.094 C2.526,73.6833333 2.652,73.3566667 2.904,73.114 C3.156,72.8713333 3.49666667,72.75 3.926,72.75 C4.30866667,72.75 4.62366667,72.82 4.871,72.96 C5.11833333,73.1 5.37266667,73.296 5.634,73.548 L5.634,73.548 L6.25,72.862 C5.998,72.5913333 5.71566667,72.358 5.403,72.162 C5.09033333,71.966 4.71,71.8446667 4.262,71.798 L4.262,71.798 L4.262,70.412 L3.422,70.412 L3.422,71.826 C2.806,71.9193333 2.31366667,72.1736667 1.945,72.589 C1.57633333,73.0043333 1.392,73.5246667 1.392,74.15 C1.392,74.6073333 1.48766667,74.983 1.679,75.277 C1.87033333,75.571 2.11066667,75.8206667 2.4,76.026 C2.68933333,76.2313333 3.00433333,76.4133333 3.345,76.572 C3.68566667,76.7306667 4.00066667,76.901 4.29,77.083 C4.57933333,77.265 4.81966667,77.4796667 5.011,77.727 C5.20233333,77.9743333 5.298,78.2846667 5.298,78.658 C5.298,79.0966667 5.16966667,79.4466667 4.913,79.708 C4.65633333,79.9693333 4.26666667,80.1 3.744,80.1 C3.31466667,80.1 2.92033333,80.009 2.561,79.827 C2.20166667,79.645 1.87266667,79.4233333 1.574,79.162 L1.574,79.162 L1.042,79.96 C1.34066667,80.2306667 1.7,80.4663333 2.12,80.667 C2.54,80.8676667 2.974,80.9913333 3.422,81.038 L3.422,81.038 L3.422,82.424 L4.262,82.424 Z M10.142,81.052 C10.59,81.052 11.017,80.961 11.423,80.779 C11.829,80.597 12.1906667,80.3076667 12.508,79.911 C12.8253333,79.5143333 13.0773333,79.001 13.264,78.371 C13.4506667,77.741 13.544,76.978 13.544,76.082 C13.544,75.3633333 13.467,74.7356667 13.313,74.199 C13.159,73.6623333 12.9443333,73.2143333 12.669,72.855 C12.3936667,72.4956667 12.067,72.2273333 11.689,72.05 C11.311,71.8726667 10.9026667,71.784 10.464,71.784 C10.1093333,71.784 9.771,71.854 9.449,71.994 C9.127,72.134 8.847,72.33 8.609,72.582 C8.371,72.834 8.182,73.135 8.042,73.485 C7.902,73.835 7.832,74.2246667 7.832,74.654 C7.832,75.578 8.06066667,76.2686667 8.518,76.726 C8.97533333,77.1833333 9.59133333,77.412 10.366,77.412 C10.7393333,77.412 11.1126667,77.3093333 11.486,77.104 C11.8593333,76.8986667 12.186,76.6186667 12.466,76.264 C12.4566667,76.9826667 12.3866667,77.5846667 12.256,78.07 C12.1253333,78.5553333 11.9526667,78.9496667 11.738,79.253 C11.5233333,79.5563333 11.276,79.7733333 10.996,79.904 C10.716,80.0346667 10.4173333,80.1 10.1,80.1 C9.82,80.1 9.55166667,80.0346667 9.295,79.904 C9.03833333,79.7733333 8.81666667,79.6006667 8.63,79.386 L8.63,79.386 L7.986,80.114 C8.22866667,80.3846667 8.52966667,80.6086667 8.889,80.786 C9.24833333,80.9633333 9.666,81.052 10.142,81.052 Z M10.562,76.544 C10.002,76.544 9.58666667,76.376 9.316,76.04 C9.04533333,75.704 8.91,75.242 8.91,74.654 C8.91,74.3646667 8.94966667,74.0986667 9.029,73.856 C9.10833333,73.6133333 9.218,73.4056667 9.358,73.233 C9.498,73.0603333 9.66366667,72.9273333 9.855,72.834 C10.0463333,72.7406667 10.2493333,72.694 10.464,72.694 C11.0333333,72.694 11.486,72.918 11.822,73.366 C12.158,73.814 12.3633333,74.4766667 12.438,75.354 C12.1486667,75.774 11.8383333,76.0773333 11.507,76.264 C11.1756667,76.4506667 10.8606667,76.544 10.562,76.544 Z M20.376,80.884 L20.376,79.932 L18.528,79.932 L18.528,71.952 L17.646,71.952 C17.4033333,72.1013333 17.1303333,72.2296667 16.827,72.337 C16.5236667,72.4443333 16.1666667,72.5353333 15.756,72.61 L15.756,72.61 L15.756,73.352 L17.38,73.352 L17.38,79.932 L15.336,79.932 L15.336,80.884 L20.376,80.884 Z M24.94,81.052 C25.304,81.052 25.6446667,80.982 25.962,80.842 C26.2793333,80.702 26.5593333,80.506 26.802,80.254 C27.0446667,80.002 27.236,79.701 27.376,79.351 C27.516,79.001 27.586,78.6113333 27.586,78.182 C27.586,77.258 27.355,76.5673333 26.893,76.11 C26.431,75.6526667 25.8126667,75.424 25.038,75.424 C24.674,75.424 24.3053333,75.5243333 23.932,75.725 C23.5586667,75.9256667 23.232,76.1986667 22.952,76.544 C22.9613333,75.8346667 23.0313333,75.2396667 23.162,74.759 C23.2926667,74.2783333 23.4653333,73.8886667 23.68,73.59 C23.8946667,73.2913333 24.142,73.0766667 24.422,72.946 C24.702,72.8153333 24.996,72.75 25.304,72.75 C25.584,72.75 25.8523333,72.813 26.109,72.939 C26.3656667,73.065 26.5873333,73.2353333 26.774,73.45 L26.774,73.45 L27.418,72.736 C27.166,72.4653333 26.865,72.239 26.515,72.057 C26.165,71.875 25.7473333,71.784 25.262,71.784 C24.814,71.784 24.387,71.875 23.981,72.057 C23.575,72.239 23.2133333,72.5283333 22.896,72.925 C22.5786667,73.3216667 22.3266667,73.835 22.14,74.465 C21.9533333,75.095 21.86,75.858 21.86,76.754 C21.86,77.4726667 21.9393333,78.1003333 22.098,78.637 C22.2566667,79.1736667 22.4736667,79.6216667 22.749,79.981 C23.0243333,80.3403333 23.3486667,80.6086667 23.722,80.786 C24.0953333,80.9633333 24.5013333,81.052 24.94,81.052 Z M24.94,80.142 C24.3706667,80.142 23.9203333,79.9156667 23.589,79.463 C23.2576667,79.0103333 23.0546667,78.3453333 22.98,77.468 C23.26,77.048 23.568,76.747 23.904,76.565 C24.24,76.383 24.5526667,76.292 24.842,76.292 C25.402,76.292 25.8173333,76.46 26.088,76.796 C26.3586667,77.132 26.494,77.594 26.494,78.182 C26.494,78.4806667 26.4543333,78.749 26.375,78.987 C26.2956667,79.225 26.186,79.4303333 26.046,79.603 C25.906,79.7756667 25.7426667,79.9086667 25.556,80.002 C25.3693333,80.0953333 25.164,80.142 24.94,80.142 Z M32.332,80.884 C32.8453333,80.884 33.3166667,80.828 33.746,80.716 C34.1753333,80.604 34.544,80.436 34.852,80.212 C35.16,79.988 35.398,79.708 35.566,79.372 C35.734,79.036 35.818,78.644 35.818,78.196 C35.818,77.5613333 35.6453333,77.062 35.3,76.698 C34.9546667,76.334 34.502,76.1006667 33.942,75.998 L33.942,75.998 L33.942,75.942 C34.3806667,75.802 34.7143333,75.5476667 34.943,75.179 C35.1716667,74.8103333 35.286,74.3973333 35.286,73.94 C35.286,73.5386667 35.209,73.1956667 35.055,72.911 C34.901,72.6263333 34.6863333,72.3953333 34.411,72.218 C34.1356667,72.0406667 33.8043333,71.91 33.417,71.826 C33.0296667,71.742 32.6026667,71.7 32.136,71.7 L32.136,71.7 L29.406,71.7 L29.406,80.884 L32.332,80.884 Z M31.926,75.606 L30.568,75.606 L30.568,72.624 L31.982,72.624 C32.7006667,72.624 33.2396667,72.736 33.599,72.96 C33.9583333,73.184 34.138,73.562 34.138,74.094 C34.138,74.5606667 33.9653333,74.9293333 33.62,75.2 C33.2746667,75.4706667 32.71,75.606 31.926,75.606 L31.926,75.606 Z M32.164,79.96 L30.568,79.96 L30.568,76.502 L32.164,76.502 C32.976,76.502 33.5966667,76.635 34.026,76.901 C34.4553333,77.167 34.67,77.5846667 34.67,78.154 C34.67,78.77 34.4506667,79.225 34.012,79.519 C33.5733333,79.813 32.9573333,79.96 32.164,79.96 L32.164,79.96 Z" id="Outlays$916B" fill="#666666" fill-rule="nonzero"></path>
                <path d="M185.032,63.08 C185.629333,63.08 186.175333,62.9703333 186.67,62.751 C187.164667,62.5316667 187.591667,62.2143333 187.951,61.799 C188.310333,61.3836667 188.588,60.882 188.784,60.294 C188.98,59.706 189.078,59.0386667 189.078,58.292 C189.078,57.5546667 188.98,56.8943333 188.784,56.311 C188.588,55.7276667 188.310333,55.2353333 187.951,54.834 C187.591667,54.4326667 187.164667,54.1246667 186.67,53.91 C186.175333,53.6953333 185.629333,53.588 185.032,53.588 C184.434667,53.588 183.888667,53.6953333 183.394,53.91 C182.899333,54.1246667 182.474667,54.4326667 182.12,54.834 C181.765333,55.2353333 181.49,55.7276667 181.294,56.311 C181.098,56.8943333 181,57.5546667 181,58.292 C181,59.0386667 181.098,59.706 181.294,60.294 C181.49,60.882 181.765333,61.3836667 182.12,61.799 C182.474667,62.2143333 182.899333,62.5316667 183.394,62.751 C183.888667,62.9703333 184.434667,63.08 185.032,63.08 Z M185.032,61.666 C184.668,61.666 184.341333,61.5866667 184.052,61.428 C183.762667,61.2693333 183.515333,61.043 183.31,60.749 C183.104667,60.455 182.946,60.1003333 182.834,59.685 C182.722,59.2696667 182.666,58.8053333 182.666,58.292 C182.666,57.2653333 182.878333,56.4603333 183.303,55.877 C183.727667,55.2936667 184.304,55.002 185.032,55.002 C185.76,55.002 186.336333,55.2936667 186.761,55.877 C187.185667,56.4603333 187.398,57.2653333 187.398,58.292 C187.398,58.8053333 187.342,59.2696667 187.23,59.685 C187.118,60.1003333 186.959333,60.455 186.754,60.749 C186.548667,61.043 186.301333,61.2693333 186.012,61.428 C185.722667,61.5866667 185.396,61.666 185.032,61.666 Z M194.104,63.08 C194.486667,63.08 194.855333,62.996 195.21,62.828 C195.564667,62.66 195.877333,62.4173333 196.148,62.1 C196.418667,61.7826667 196.635667,61.393 196.799,60.931 C196.962333,60.469 197.044,59.944 197.044,59.356 C197.044,58.824 196.983333,58.3433333 196.862,57.914 C196.740667,57.4846667 196.563333,57.1183333 196.33,56.815 C196.096667,56.5116667 195.812,56.2783333 195.476,56.115 C195.14,55.9516667 194.757333,55.87 194.328,55.87 C193.973333,55.87 193.625667,55.9493333 193.285,56.108 C192.944333,56.2666667 192.629333,56.472 192.34,56.724 L192.34,56.724 L192.382,55.576 L192.382,53.028 L190.772,53.028 L190.772,62.912 L192.046,62.912 L192.186,62.184 L192.228,62.184 C192.517333,62.4733333 192.823,62.695 193.145,62.849 C193.467,63.003 193.786667,63.08 194.104,63.08 Z M193.768,61.75 C193.562667,61.75 193.341,61.708 193.103,61.624 C192.865,61.54 192.624667,61.3906667 192.382,61.176 L192.382,61.176 L192.382,57.97 C192.904667,57.4566667 193.408667,57.2 193.894,57.2 C194.416667,57.2 194.794667,57.3913333 195.028,57.774 C195.261333,58.1566667 195.378,58.6933333 195.378,59.384 C195.378,60.168 195.224,60.7583333 194.916,61.155 C194.608,61.5516667 194.225333,61.75 193.768,61.75 Z M200.222,63.08 C200.576667,63.08 200.861333,63.0333333 201.076,62.94 L201.076,62.94 L200.866,61.736 C200.800667,61.7546667 200.751667,61.764 200.719,61.764 L200.719,61.764 L200.614,61.764 C200.53,61.764 200.450667,61.7243333 200.376,61.645 C200.301333,61.5656667 200.264,61.428 200.264,61.232 L200.264,61.232 L200.264,53.028 L198.654,53.028 L198.654,61.148 C198.654,61.7453333 198.770667,62.2166667 199.004,62.562 C199.237333,62.9073333 199.643333,63.08 200.222,63.08 Z M203.26,54.834 C203.549333,54.834 203.787333,54.75 203.974,54.582 C204.160667,54.414 204.254,54.1946667 204.254,53.924 C204.254,53.6533333 204.160667,53.4316667 203.974,53.259 C203.787333,53.0863333 203.549333,53 203.26,53 C202.970667,53 202.732667,53.0863333 202.546,53.259 C202.359333,53.4316667 202.266,53.6533333 202.266,53.924 C202.266,54.1946667 202.359333,54.414 202.546,54.582 C202.732667,54.75 202.970667,54.834 203.26,54.834 Z M204.058,62.912 L204.058,56.038 L202.448,56.038 L202.448,62.912 L204.058,62.912 Z M208.51,65.95 C209.07,65.95 209.576333,65.887 210.029,65.761 C210.481667,65.635 210.866667,65.4646667 211.184,65.25 C211.501333,65.0353333 211.746333,64.7786667 211.919,64.48 C212.091667,64.1813333 212.178,63.864 212.178,63.528 C212.178,62.9306667 211.965667,62.499 211.541,62.233 C211.116333,61.967 210.488667,61.834 209.658,61.834 L209.658,61.834 L208.44,61.834 C208.02,61.834 207.728333,61.778 207.565,61.666 C207.401667,61.554 207.32,61.4 207.32,61.204 C207.32,61.0453333 207.350333,60.9193333 207.411,60.826 C207.471667,60.7326667 207.553333,60.6393333 207.656,60.546 C207.814667,60.6113333 207.973333,60.658 208.132,60.686 C208.290667,60.714 208.444667,60.728 208.594,60.728 C208.958,60.728 209.298667,60.6766667 209.616,60.574 C209.933333,60.4713333 210.208667,60.322 210.442,60.126 C210.675333,59.93 210.859667,59.6873333 210.995,59.398 C211.130333,59.1086667 211.198,58.7726667 211.198,58.39 C211.198,58.1473333 211.160667,57.9256667 211.086,57.725 C211.011333,57.5243333 210.918,57.3586667 210.806,57.228 L210.806,57.228 L212.066,57.228 L212.066,56.038 L209.602,56.038 C209.462,55.9913333 209.305667,55.9516667 209.133,55.919 C208.960333,55.8863333 208.780667,55.87 208.594,55.87 C208.23,55.87 207.884667,55.9236667 207.558,56.031 C207.231333,56.1383333 206.944333,56.297 206.697,56.507 C206.449667,56.717 206.251333,56.976 206.102,57.284 C205.952667,57.592 205.878,57.942 205.878,58.334 C205.878,58.7446667 205.969,59.1063333 206.151,59.419 C206.333,59.7316667 206.540667,59.9766667 206.774,60.154 L206.774,60.154 L206.774,60.21 C206.578,60.35 206.403,60.5296667 206.249,60.749 C206.095,60.9683333 206.018,61.2133333 206.018,61.484 C206.018,61.764 206.076333,61.9973333 206.193,62.184 C206.309667,62.3706667 206.456667,62.52 206.634,62.632 L206.634,62.632 L206.634,62.688 C206.316667,62.884 206.074,63.1056667 205.906,63.353 C205.738,63.6003333 205.654,63.8686667 205.654,64.158 C205.654,64.4566667 205.726333,64.718 205.871,64.942 C206.015667,65.166 206.214,65.3526667 206.466,65.502 C206.718,65.6513333 207.019,65.7633333 207.369,65.838 C207.719,65.9126667 208.099333,65.95 208.51,65.95 Z M208.594,59.72 C208.258,59.72 207.973333,59.601 207.74,59.363 C207.506667,59.125 207.39,58.782 207.39,58.334 C207.39,57.8953333 207.506667,57.5593333 207.74,57.326 C207.973333,57.0926667 208.258,56.976 208.594,56.976 C208.93,56.976 209.212333,57.095 209.441,57.333 C209.669667,57.571 209.784,57.9046667 209.784,58.334 C209.784,58.782 209.667333,59.125 209.434,59.363 C209.200667,59.601 208.920667,59.72 208.594,59.72 Z M208.762,64.9 C208.211333,64.9 207.779667,64.8136667 207.467,64.641 C207.154333,64.4683333 206.998,64.228 206.998,63.92 C206.998,63.584 207.175333,63.2806667 207.53,63.01 C207.782,63.0753333 208.094667,63.108 208.468,63.108 L208.468,63.108 L209.406,63.108 C209.798,63.108 210.099,63.1546667 210.309,63.248 C210.519,63.3413333 210.624,63.5233333 210.624,63.794 C210.624,64.0926667 210.453667,64.3516667 210.113,64.571 C209.772333,64.7903333 209.322,64.9 208.762,64.9 Z M214.81,63.08 C215.220667,63.08 215.601,62.9913333 215.951,62.814 C216.301,62.6366667 216.63,62.4173333 216.938,62.156 L216.938,62.156 L216.994,62.156 L217.106,62.912 L218.436,62.912 L218.436,58.838 C218.436,57.8766667 218.223667,57.1416667 217.799,56.633 C217.374333,56.1243333 216.732667,55.87 215.874,55.87 C215.323333,55.87 214.81,55.9586667 214.334,56.136 C213.858,56.3133333 213.428667,56.5233333 213.046,56.766 L213.046,56.766 L213.634,57.844 C213.942,57.6573333 214.257,57.4986667 214.579,57.368 C214.901,57.2373333 215.23,57.172 215.566,57.172 C215.799333,57.172 215.995333,57.207 216.154,57.277 C216.312667,57.347 216.441,57.445 216.539,57.571 C216.637,57.697 216.707,57.8416667 216.749,58.005 C216.791,58.1683333 216.816667,58.3386667 216.826,58.516 C216.116667,58.5906667 215.507667,58.698 214.999,58.838 C214.490333,58.978 214.070333,59.1506667 213.739,59.356 C213.407667,59.5613333 213.165,59.8063333 213.011,60.091 C212.857,60.3756667 212.78,60.7 212.78,61.064 C212.78,61.6706667 212.966667,62.1583333 213.34,62.527 C213.713333,62.8956667 214.203333,63.08 214.81,63.08 Z M215.328,61.82 C215.038667,61.82 214.800667,61.75 214.614,61.61 C214.427333,61.47 214.334,61.246 214.334,60.938 C214.334,60.77 214.376,60.6113333 214.46,60.462 C214.544,60.3126667 214.684,60.1796667 214.88,60.063 C215.076,59.9463333 215.332667,59.8413333 215.65,59.748 C215.967333,59.6546667 216.359333,59.58 216.826,59.524 L216.826,59.524 L216.826,61.064 C216.564667,61.3066667 216.319667,61.4933333 216.091,61.624 C215.862333,61.7546667 215.608,61.82 215.328,61.82 Z M222.566,63.08 C222.836667,63.08 223.091,63.0543333 223.329,63.003 C223.567,62.9516667 223.779333,62.8933333 223.966,62.828 L223.966,62.828 L223.686,61.638 C223.583333,61.6846667 223.469,61.722 223.343,61.75 C223.217,61.778 223.093333,61.792 222.972,61.792 C222.328,61.792 222.006,61.3906667 222.006,60.588 L222.006,60.588 L222.006,57.312 L223.756,57.312 L223.756,56.038 L222.006,56.038 L222.006,54.162 L220.662,54.162 L220.466,56.038 L219.402,56.108 L219.402,57.312 L220.382,57.312 L220.382,60.588 C220.382,60.9613333 220.421667,61.2996667 220.501,61.603 C220.580333,61.9063333 220.706333,62.1676667 220.879,62.387 C221.051667,62.6063333 221.275667,62.7766667 221.551,62.898 C221.826333,63.0193333 222.164667,63.08 222.566,63.08 Z M226.01,54.834 C226.299333,54.834 226.537333,54.75 226.724,54.582 C226.910667,54.414 227.004,54.1946667 227.004,53.924 C227.004,53.6533333 226.910667,53.4316667 226.724,53.259 C226.537333,53.0863333 226.299333,53 226.01,53 C225.720667,53 225.482667,53.0863333 225.296,53.259 C225.109333,53.4316667 225.016,53.6533333 225.016,53.924 C225.016,54.1946667 225.109333,54.414 225.296,54.582 C225.482667,54.75 225.720667,54.834 226.01,54.834 Z M226.808,62.912 L226.808,56.038 L225.198,56.038 L225.198,62.912 L226.808,62.912 Z M231.68,63.08 C232.109333,63.08 232.522333,63.0006667 232.919,62.842 C233.315667,62.6833333 233.663333,62.45 233.962,62.142 C234.260667,61.834 234.501,61.456 234.683,61.008 C234.865,60.56 234.956,60.0513333 234.956,59.482 C234.956,58.9126667 234.865,58.404 234.683,57.956 C234.501,57.508 234.260667,57.13 233.962,56.822 C233.663333,56.514 233.315667,56.2783333 232.919,56.115 C232.522333,55.9516667 232.109333,55.87 231.68,55.87 C231.250667,55.87 230.84,55.9516667 230.448,56.115 C230.056,56.2783333 229.708333,56.514 229.405,56.822 C229.101667,57.13 228.861333,57.508 228.684,57.956 C228.506667,58.404 228.418,58.9126667 228.418,59.482 C228.418,60.0513333 228.506667,60.56 228.684,61.008 C228.861333,61.456 229.101667,61.834 229.405,62.142 C229.708333,62.45 230.056,62.6833333 230.448,62.842 C230.84,63.0006667 231.250667,63.08 231.68,63.08 Z M231.68,61.764 C231.176,61.764 230.781667,61.5563333 230.497,61.141 C230.212333,60.7256667 230.07,60.1726667 230.07,59.482 C230.07,58.782 230.212333,58.2243333 230.497,57.809 C230.781667,57.3936667 231.176,57.186 231.68,57.186 C232.184,57.186 232.580667,57.3936667 232.87,57.809 C233.159333,58.2243333 233.304,58.782 233.304,59.482 C233.304,60.1726667 233.159333,60.7256667 232.87,61.141 C232.580667,61.5563333 232.184,61.764 231.68,61.764 Z M238.162,62.912 L238.162,58.11 C238.451333,57.83 238.710333,57.6176667 238.939,57.473 C239.167667,57.3283333 239.431333,57.256 239.73,57.256 C240.112667,57.256 240.388,57.3726667 240.556,57.606 C240.724,57.8393333 240.808,58.2406667 240.808,58.81 L240.808,58.81 L240.808,62.912 L242.418,62.912 L242.418,58.6 C242.418,57.7226667 242.25,57.0483333 241.914,56.577 C241.578,56.1056667 241.041333,55.87 240.304,55.87 C239.828,55.87 239.410333,55.9773333 239.051,56.192 C238.691667,56.4066667 238.358,56.6633333 238.05,56.962 L238.05,56.962 L237.994,56.962 L237.882,56.038 L236.552,56.038 L236.552,62.912 L238.162,62.912 Z M246.31,63.08 C246.739333,63.08 247.122,63.024 247.458,62.912 C247.794,62.8 248.074,62.6483333 248.298,62.457 C248.522,62.2656667 248.692333,62.0416667 248.809,61.785 C248.925667,61.5283333 248.984,61.2506667 248.984,60.952 C248.984,60.6346667 248.925667,60.3616667 248.809,60.133 C248.692333,59.9043333 248.538333,59.7106667 248.347,59.552 C248.155667,59.3933333 247.943333,59.2603333 247.71,59.153 C247.476667,59.0456667 247.243333,58.95 247.01,58.866 C246.823333,58.8006667 246.643667,58.7353333 246.471,58.67 C246.298333,58.6046667 246.146667,58.5346667 246.016,58.46 C245.885333,58.3853333 245.780333,58.299 245.701,58.201 C245.621667,58.103 245.582,57.984 245.582,57.844 C245.582,57.6293333 245.663667,57.4496667 245.827,57.305 C245.990333,57.1603333 246.244667,57.088 246.59,57.088 C246.860667,57.088 247.119667,57.1416667 247.367,57.249 C247.614333,57.3563333 247.859333,57.4986667 248.102,57.676 L248.102,57.676 L248.844,56.696 C248.564,56.4813333 248.232667,56.29 247.85,56.122 C247.467333,55.954 247.038,55.87 246.562,55.87 C245.787333,55.87 245.176,56.0613333 244.728,56.444 C244.28,56.8266667 244.056,57.3213333 244.056,57.928 C244.056,58.2173333 244.114333,58.467 244.231,58.677 C244.347667,58.887 244.497,59.0713333 244.679,59.23 C244.861,59.3886667 245.068667,59.524 245.302,59.636 C245.535333,59.748 245.764,59.846 245.988,59.93 C246.165333,60.0046667 246.342667,60.077 246.52,60.147 C246.697333,60.217 246.856,60.294 246.996,60.378 C247.136,60.462 247.248,60.5576667 247.332,60.665 C247.416,60.7723333 247.458,60.896 247.458,61.036 C247.458,61.2786667 247.369333,61.477 247.192,61.631 C247.014667,61.785 246.739333,61.862 246.366,61.862 C246.011333,61.862 245.682333,61.7943333 245.379,61.659 C245.075667,61.5236667 244.77,61.3346667 244.462,61.092 L244.462,61.092 L243.706,62.128 C244.042,62.3986667 244.441,62.625 244.903,62.807 C245.365,62.989 245.834,63.08 246.31,63.08 Z M184.262,82.452 L184.262,81.038 C184.934,80.9446667 185.463667,80.6833333 185.851,80.254 C186.238333,79.8246667 186.432,79.274 186.432,78.602 C186.432,78.098 186.336333,77.685 186.145,77.363 C185.953667,77.041 185.713333,76.7703333 185.424,76.551 C185.134667,76.3316667 184.819667,76.145 184.479,75.991 C184.138333,75.837 183.823333,75.6783333 183.534,75.515 C183.244667,75.3516667 183.004333,75.1626667 182.813,74.948 C182.621667,74.7333333 182.526,74.458 182.526,74.122 C182.526,73.7113333 182.652,73.3846667 182.904,73.142 C183.156,72.8993333 183.496667,72.778 183.926,72.778 C184.308667,72.778 184.623667,72.848 184.871,72.988 C185.118333,73.128 185.372667,73.324 185.634,73.576 L185.634,73.576 L186.25,72.89 C185.998,72.6193333 185.715667,72.386 185.403,72.19 C185.090333,71.994 184.71,71.8726667 184.262,71.826 L184.262,71.826 L184.262,70.44 L183.422,70.44 L183.422,71.854 C182.806,71.9473333 182.313667,72.2016667 181.945,72.617 C181.576333,73.0323333 181.392,73.5526667 181.392,74.178 C181.392,74.6353333 181.487667,75.011 181.679,75.305 C181.870333,75.599 182.110667,75.8486667 182.4,76.054 C182.689333,76.2593333 183.004333,76.4413333 183.345,76.6 C183.685667,76.7586667 184.000667,76.929 184.29,77.111 C184.579333,77.293 184.819667,77.5076667 185.011,77.755 C185.202333,78.0023333 185.298,78.3126667 185.298,78.686 C185.298,79.1246667 185.169667,79.4746667 184.913,79.736 C184.656333,79.9973333 184.266667,80.128 183.744,80.128 C183.314667,80.128 182.920333,80.037 182.561,79.855 C182.201667,79.673 181.872667,79.4513333 181.574,79.19 L181.574,79.19 L181.042,79.988 C181.340667,80.2586667 181.7,80.4943333 182.12,80.695 C182.54,80.8956667 182.974,81.0193333 183.422,81.066 L183.422,81.066 L183.422,82.452 L184.262,82.452 Z M193.418,80.912 L193.418,79.96 L191.57,79.96 L191.57,71.98 L190.688,71.98 C190.445333,72.1293333 190.172333,72.2576667 189.869,72.365 C189.565667,72.4723333 189.208667,72.5633333 188.798,72.638 L188.798,72.638 L188.798,73.38 L190.422,73.38 L190.422,79.96 L188.378,79.96 L188.378,80.912 L193.418,80.912 Z M195.98,81.08 C196.204,81.08 196.397667,80.9983333 196.561,80.835 C196.724333,80.6716667 196.806,80.464 196.806,80.212 C196.806,79.9413333 196.724333,79.7243333 196.561,79.561 C196.397667,79.3976667 196.204,79.316 195.98,79.316 C195.746667,79.316 195.548333,79.3976667 195.385,79.561 C195.221667,79.7243333 195.14,79.9413333 195.14,80.212 C195.14,80.464 195.221667,80.6716667 195.385,80.835 C195.548333,80.9983333 195.746667,81.08 195.98,81.08 Z M201.202,81.08 C202.098,81.08 202.798,80.6786667 203.302,79.876 C203.806,79.0733333 204.058,77.9206667 204.058,76.418 C204.058,74.9153333 203.806,73.772 203.302,72.988 C202.798,72.204 202.098,71.812 201.202,71.812 C200.296667,71.812 199.592,72.204 199.088,72.988 C198.584,73.772 198.332,74.9153333 198.332,76.418 C198.332,77.9206667 198.584,79.0733333 199.088,79.876 C199.592,80.6786667 200.296667,81.08 201.202,81.08 Z M201.202,80.156 C200.679333,80.156 200.257,79.8596667 199.935,79.267 C199.613,78.6743333 199.452,77.7246667 199.452,76.418 C199.452,75.7646667 199.494,75.2046667 199.578,74.738 C199.662,74.2713333 199.781,73.891 199.935,73.597 C200.089,73.303 200.273333,73.086 200.488,72.946 C200.702667,72.806 200.940667,72.736 201.202,72.736 C201.463333,72.736 201.699,72.806 201.909,72.946 C202.119,73.086 202.301,73.303 202.455,73.597 C202.609,73.891 202.728,74.2713333 202.812,74.738 C202.896,75.2046667 202.938,75.7646667 202.938,76.418 C202.938,77.0713333 202.896,77.6336667 202.812,78.105 C202.728,78.5763333 202.609,78.9636667 202.455,79.267 C202.301,79.5703333 202.119,79.7943333 201.909,79.939 C201.699,80.0836667 201.463333,80.156 201.202,80.156 Z M210.022,80.912 L210.022,78.448 L211.24,78.448 L211.24,77.524 L210.022,77.524 L210.022,71.98 L208.734,71.98 L204.912,77.692 L204.912,78.448 L208.93,78.448 L208.93,80.912 L210.022,80.912 Z M208.93,77.524 L206.13,77.524 L208.216,74.472 C208.346667,74.2573333 208.472667,74.0473333 208.594,73.842 C208.715333,73.6366667 208.832,73.4266667 208.944,73.212 L208.944,73.212 L209,73.212 C208.981333,73.4546667 208.965,73.7416667 208.951,74.073 C208.937,74.4043333 208.93,74.6913333 208.93,74.934 L208.93,74.934 L208.93,77.524 Z M215.972,80.912 L215.972,72.708 L218.744,72.708 L218.744,71.728 L212.024,71.728 L212.024,72.708 L214.796,72.708 L214.796,80.912 L215.972,80.912 Z" id="Obligations$1.04T" fill="#666666" fill-rule="nonzero"></path>
                <path d="M274.864,63.08 C275.396,63.08 275.874333,63.003 276.299,62.849 C276.723667,62.695 277.087667,62.45 277.391,62.114 C277.694333,61.778 277.925333,61.3463333 278.084,60.819 C278.242667,60.2916667 278.322,59.65 278.322,58.894 L278.322,58.894 L278.322,53.756 L276.768,53.756 L276.768,59.02 C276.768,59.5146667 276.721333,59.9323333 276.628,60.273 C276.534667,60.6136667 276.404,60.8866667 276.236,61.092 C276.068,61.2973333 275.867333,61.4443333 275.634,61.533 C275.400667,61.6216667 275.144,61.666 274.864,61.666 C274.584,61.666 274.332,61.6216667 274.108,61.533 C273.884,61.4443333 273.690333,61.2973333 273.527,61.092 C273.363667,60.8866667 273.237667,60.6136667 273.149,60.273 C273.060333,59.9323333 273.016,59.5146667 273.016,59.02 L273.016,59.02 L273.016,53.756 L271.392,53.756 L271.392,58.894 C271.392,59.65 271.473667,60.2916667 271.637,60.819 C271.800333,61.3463333 272.033667,61.778 272.337,62.114 C272.640333,62.45 273.004333,62.695 273.429,62.849 C273.853667,63.003 274.332,63.08 274.864,63.08 Z M282.074,62.912 L282.074,58.11 C282.363333,57.83 282.622333,57.6176667 282.851,57.473 C283.079667,57.3283333 283.343333,57.256 283.642,57.256 C284.024667,57.256 284.3,57.3726667 284.468,57.606 C284.636,57.8393333 284.72,58.2406667 284.72,58.81 L284.72,58.81 L284.72,62.912 L286.33,62.912 L286.33,58.6 C286.33,57.7226667 286.162,57.0483333 285.826,56.577 C285.49,56.1056667 284.953333,55.87 284.216,55.87 C283.74,55.87 283.322333,55.9773333 282.963,56.192 C282.603667,56.4066667 282.27,56.6633333 281.962,56.962 L281.962,56.962 L281.906,56.962 L281.794,56.038 L280.464,56.038 L280.464,62.912 L282.074,62.912 Z M291.118,63.08 C291.547333,63.08 291.960333,63.0006667 292.357,62.842 C292.753667,62.6833333 293.101333,62.45 293.4,62.142 C293.698667,61.834 293.939,61.456 294.121,61.008 C294.303,60.56 294.394,60.0513333 294.394,59.482 C294.394,58.9126667 294.303,58.404 294.121,57.956 C293.939,57.508 293.698667,57.13 293.4,56.822 C293.101333,56.514 292.753667,56.2783333 292.357,56.115 C291.960333,55.9516667 291.547333,55.87 291.118,55.87 C290.688667,55.87 290.278,55.9516667 289.886,56.115 C289.494,56.2783333 289.146333,56.514 288.843,56.822 C288.539667,57.13 288.299333,57.508 288.122,57.956 C287.944667,58.404 287.856,58.9126667 287.856,59.482 C287.856,60.0513333 287.944667,60.56 288.122,61.008 C288.299333,61.456 288.539667,61.834 288.843,62.142 C289.146333,62.45 289.494,62.6833333 289.886,62.842 C290.278,63.0006667 290.688667,63.08 291.118,63.08 Z M291.118,61.764 C290.614,61.764 290.219667,61.5563333 289.935,61.141 C289.650333,60.7256667 289.508,60.1726667 289.508,59.482 C289.508,58.782 289.650333,58.2243333 289.935,57.809 C290.219667,57.3936667 290.614,57.186 291.118,57.186 C291.622,57.186 292.018667,57.3936667 292.308,57.809 C292.597333,58.2243333 292.742,58.782 292.742,59.482 C292.742,60.1726667 292.597333,60.7256667 292.308,61.141 C292.018667,61.5563333 291.622,61.764 291.118,61.764 Z M299.322,63.08 C299.704667,63.08 300.073333,62.996 300.428,62.828 C300.782667,62.66 301.095333,62.4173333 301.366,62.1 C301.636667,61.7826667 301.853667,61.393 302.017,60.931 C302.180333,60.469 302.262,59.944 302.262,59.356 C302.262,58.824 302.201333,58.3433333 302.08,57.914 C301.958667,57.4846667 301.781333,57.1183333 301.548,56.815 C301.314667,56.5116667 301.03,56.2783333 300.694,56.115 C300.358,55.9516667 299.975333,55.87 299.546,55.87 C299.191333,55.87 298.843667,55.9493333 298.503,56.108 C298.162333,56.2666667 297.847333,56.472 297.558,56.724 L297.558,56.724 L297.6,55.576 L297.6,53.028 L295.99,53.028 L295.99,62.912 L297.264,62.912 L297.404,62.184 L297.446,62.184 C297.735333,62.4733333 298.041,62.695 298.363,62.849 C298.685,63.003 299.004667,63.08 299.322,63.08 Z M298.986,61.75 C298.780667,61.75 298.559,61.708 298.321,61.624 C298.083,61.54 297.842667,61.3906667 297.6,61.176 L297.6,61.176 L297.6,57.97 C298.122667,57.4566667 298.626667,57.2 299.112,57.2 C299.634667,57.2 300.012667,57.3913333 300.246,57.774 C300.479333,58.1566667 300.596,58.6933333 300.596,59.384 C300.596,60.168 300.442,60.7583333 300.134,61.155 C299.826,61.5516667 299.443333,61.75 298.986,61.75 Z M305.44,63.08 C305.794667,63.08 306.079333,63.0333333 306.294,62.94 L306.294,62.94 L306.084,61.736 C306.018667,61.7546667 305.969667,61.764 305.937,61.764 L305.937,61.764 L305.832,61.764 C305.748,61.764 305.668667,61.7243333 305.594,61.645 C305.519333,61.5656667 305.482,61.428 305.482,61.232 L305.482,61.232 L305.482,53.028 L303.872,53.028 L303.872,61.148 C303.872,61.7453333 303.988667,62.2166667 304.222,62.562 C304.455333,62.9073333 304.861333,63.08 305.44,63.08 Z M308.478,54.834 C308.767333,54.834 309.005333,54.75 309.192,54.582 C309.378667,54.414 309.472,54.1946667 309.472,53.924 C309.472,53.6533333 309.378667,53.4316667 309.192,53.259 C309.005333,53.0863333 308.767333,53 308.478,53 C308.188667,53 307.950667,53.0863333 307.764,53.259 C307.577333,53.4316667 307.484,53.6533333 307.484,53.924 C307.484,54.1946667 307.577333,54.414 307.764,54.582 C307.950667,54.75 308.188667,54.834 308.478,54.834 Z M309.276,62.912 L309.276,56.038 L307.666,56.038 L307.666,62.912 L309.276,62.912 Z M313.728,65.95 C314.288,65.95 314.794333,65.887 315.247,65.761 C315.699667,65.635 316.084667,65.4646667 316.402,65.25 C316.719333,65.0353333 316.964333,64.7786667 317.137,64.48 C317.309667,64.1813333 317.396,63.864 317.396,63.528 C317.396,62.9306667 317.183667,62.499 316.759,62.233 C316.334333,61.967 315.706667,61.834 314.876,61.834 L314.876,61.834 L313.658,61.834 C313.238,61.834 312.946333,61.778 312.783,61.666 C312.619667,61.554 312.538,61.4 312.538,61.204 C312.538,61.0453333 312.568333,60.9193333 312.629,60.826 C312.689667,60.7326667 312.771333,60.6393333 312.874,60.546 C313.032667,60.6113333 313.191333,60.658 313.35,60.686 C313.508667,60.714 313.662667,60.728 313.812,60.728 C314.176,60.728 314.516667,60.6766667 314.834,60.574 C315.151333,60.4713333 315.426667,60.322 315.66,60.126 C315.893333,59.93 316.077667,59.6873333 316.213,59.398 C316.348333,59.1086667 316.416,58.7726667 316.416,58.39 C316.416,58.1473333 316.378667,57.9256667 316.304,57.725 C316.229333,57.5243333 316.136,57.3586667 316.024,57.228 L316.024,57.228 L317.284,57.228 L317.284,56.038 L314.82,56.038 C314.68,55.9913333 314.523667,55.9516667 314.351,55.919 C314.178333,55.8863333 313.998667,55.87 313.812,55.87 C313.448,55.87 313.102667,55.9236667 312.776,56.031 C312.449333,56.1383333 312.162333,56.297 311.915,56.507 C311.667667,56.717 311.469333,56.976 311.32,57.284 C311.170667,57.592 311.096,57.942 311.096,58.334 C311.096,58.7446667 311.187,59.1063333 311.369,59.419 C311.551,59.7316667 311.758667,59.9766667 311.992,60.154 L311.992,60.154 L311.992,60.21 C311.796,60.35 311.621,60.5296667 311.467,60.749 C311.313,60.9683333 311.236,61.2133333 311.236,61.484 C311.236,61.764 311.294333,61.9973333 311.411,62.184 C311.527667,62.3706667 311.674667,62.52 311.852,62.632 L311.852,62.632 L311.852,62.688 C311.534667,62.884 311.292,63.1056667 311.124,63.353 C310.956,63.6003333 310.872,63.8686667 310.872,64.158 C310.872,64.4566667 310.944333,64.718 311.089,64.942 C311.233667,65.166 311.432,65.3526667 311.684,65.502 C311.936,65.6513333 312.237,65.7633333 312.587,65.838 C312.937,65.9126667 313.317333,65.95 313.728,65.95 Z M313.812,59.72 C313.476,59.72 313.191333,59.601 312.958,59.363 C312.724667,59.125 312.608,58.782 312.608,58.334 C312.608,57.8953333 312.724667,57.5593333 312.958,57.326 C313.191333,57.0926667 313.476,56.976 313.812,56.976 C314.148,56.976 314.430333,57.095 314.659,57.333 C314.887667,57.571 315.002,57.9046667 315.002,58.334 C315.002,58.782 314.885333,59.125 314.652,59.363 C314.418667,59.601 314.138667,59.72 313.812,59.72 Z M313.98,64.9 C313.429333,64.9 312.997667,64.8136667 312.685,64.641 C312.372333,64.4683333 312.216,64.228 312.216,63.92 C312.216,63.584 312.393333,63.2806667 312.748,63.01 C313,63.0753333 313.312667,63.108 313.686,63.108 L313.686,63.108 L314.624,63.108 C315.016,63.108 315.317,63.1546667 315.527,63.248 C315.737,63.3413333 315.842,63.5233333 315.842,63.794 C315.842,64.0926667 315.671667,64.3516667 315.331,64.571 C314.990333,64.7903333 314.54,64.9 313.98,64.9 Z M320.028,63.08 C320.438667,63.08 320.819,62.9913333 321.169,62.814 C321.519,62.6366667 321.848,62.4173333 322.156,62.156 L322.156,62.156 L322.212,62.156 L322.324,62.912 L323.654,62.912 L323.654,58.838 C323.654,57.8766667 323.441667,57.1416667 323.017,56.633 C322.592333,56.1243333 321.950667,55.87 321.092,55.87 C320.541333,55.87 320.028,55.9586667 319.552,56.136 C319.076,56.3133333 318.646667,56.5233333 318.264,56.766 L318.264,56.766 L318.852,57.844 C319.16,57.6573333 319.475,57.4986667 319.797,57.368 C320.119,57.2373333 320.448,57.172 320.784,57.172 C321.017333,57.172 321.213333,57.207 321.372,57.277 C321.530667,57.347 321.659,57.445 321.757,57.571 C321.855,57.697 321.925,57.8416667 321.967,58.005 C322.009,58.1683333 322.034667,58.3386667 322.044,58.516 C321.334667,58.5906667 320.725667,58.698 320.217,58.838 C319.708333,58.978 319.288333,59.1506667 318.957,59.356 C318.625667,59.5613333 318.383,59.8063333 318.229,60.091 C318.075,60.3756667 317.998,60.7 317.998,61.064 C317.998,61.6706667 318.184667,62.1583333 318.558,62.527 C318.931333,62.8956667 319.421333,63.08 320.028,63.08 Z M320.546,61.82 C320.256667,61.82 320.018667,61.75 319.832,61.61 C319.645333,61.47 319.552,61.246 319.552,60.938 C319.552,60.77 319.594,60.6113333 319.678,60.462 C319.762,60.3126667 319.902,60.1796667 320.098,60.063 C320.294,59.9463333 320.550667,59.8413333 320.868,59.748 C321.185333,59.6546667 321.577333,59.58 322.044,59.524 L322.044,59.524 L322.044,61.064 C321.782667,61.3066667 321.537667,61.4933333 321.309,61.624 C321.080333,61.7546667 320.826,61.82 320.546,61.82 Z M327.784,63.08 C328.054667,63.08 328.309,63.0543333 328.547,63.003 C328.785,62.9516667 328.997333,62.8933333 329.184,62.828 L329.184,62.828 L328.904,61.638 C328.801333,61.6846667 328.687,61.722 328.561,61.75 C328.435,61.778 328.311333,61.792 328.19,61.792 C327.546,61.792 327.224,61.3906667 327.224,60.588 L327.224,60.588 L327.224,57.312 L328.974,57.312 L328.974,56.038 L327.224,56.038 L327.224,54.162 L325.88,54.162 L325.684,56.038 L324.62,56.108 L324.62,57.312 L325.6,57.312 L325.6,60.588 C325.6,60.9613333 325.639667,61.2996667 325.719,61.603 C325.798333,61.9063333 325.924333,62.1676667 326.097,62.387 C326.269667,62.6063333 326.493667,62.7766667 326.769,62.898 C327.044333,63.0193333 327.382667,63.08 327.784,63.08 Z M333.132,63.08 C333.570667,63.08 333.990667,63.01 334.392,62.87 C334.793333,62.73 335.157333,62.5526667 335.484,62.338 L335.484,62.338 L334.938,61.33 C334.686,61.4886667 334.431667,61.6123333 334.175,61.701 C333.918333,61.7896667 333.640667,61.834 333.342,61.834 C332.782,61.834 332.322333,61.6683333 331.963,61.337 C331.603667,61.0056667 331.386667,60.532 331.312,59.916 L331.312,59.916 L335.68,59.916 C335.698667,59.832 335.715,59.72 335.729,59.58 C335.743,59.44 335.75,59.2906667 335.75,59.132 C335.75,58.656 335.689333,58.2173333 335.568,57.816 C335.446667,57.4146667 335.267,57.0693333 335.029,56.78 C334.791,56.4906667 334.494667,56.2666667 334.14,56.108 C333.785333,55.9493333 333.374667,55.87 332.908,55.87 C332.506667,55.87 332.114667,55.954 331.732,56.122 C331.349333,56.29 331.011,56.528 330.717,56.836 C330.423,57.144 330.187333,57.522 330.01,57.97 C329.832667,58.418 329.744,58.922 329.744,59.482 C329.744,60.0513333 329.830333,60.5576667 330.003,61.001 C330.175667,61.4443333 330.416,61.82 330.724,62.128 C331.032,62.436 331.391333,62.6716667 331.802,62.835 C332.212667,62.9983333 332.656,63.08 333.132,63.08 Z M334.35,58.824 L331.298,58.824 C331.372667,58.264 331.564,57.8393333 331.872,57.55 C332.18,57.2606667 332.539333,57.116 332.95,57.116 C333.426,57.116 333.778333,57.2676667 334.007,57.571 C334.235667,57.8743333 334.35,58.292 334.35,58.824 L334.35,58.824 Z M339.698,63.08 C340.071333,63.08 340.426,62.9913333 340.762,62.814 C341.098,62.6366667 341.392,62.422 341.644,62.17 L341.644,62.17 L341.7,62.17 L341.812,62.912 L343.142,62.912 L343.142,53.028 L341.532,53.028 L341.532,55.52 L341.588,56.626 C341.317333,56.3926667 341.046667,56.2083333 340.776,56.073 C340.505333,55.9376667 340.174,55.87 339.782,55.87 C339.408667,55.87 339.047,55.954 338.697,56.122 C338.347,56.29 338.036667,56.528 337.766,56.836 C337.495333,57.144 337.278333,57.522 337.115,57.97 C336.951667,58.418 336.87,58.922 336.87,59.482 C336.87,60.6206667 337.124333,61.505 337.633,62.135 C338.141667,62.765 338.83,63.08 339.698,63.08 Z M340.09,61.75 C339.586,61.75 339.201,61.5563333 338.935,61.169 C338.669,60.7816667 338.536,60.2146667 338.536,59.468 C338.536,58.74 338.69,58.18 338.998,57.788 C339.306,57.396 339.684,57.2 340.132,57.2 C340.365333,57.2 340.596333,57.242 340.825,57.326 C341.053667,57.41 341.289333,57.5593333 341.532,57.774 L341.532,57.774 L341.532,60.98 C341.084,61.4933333 340.603333,61.75 340.09,61.75 Z M274.22,82.452 L274.22,81.038 C274.892,80.9446667 275.421667,80.6833333 275.809,80.254 C276.196333,79.8246667 276.39,79.274 276.39,78.602 C276.39,78.098 276.294333,77.685 276.103,77.363 C275.911667,77.041 275.671333,76.7703333 275.382,76.551 C275.092667,76.3316667 274.777667,76.145 274.437,75.991 C274.096333,75.837 273.781333,75.6783333 273.492,75.515 C273.202667,75.3516667 272.962333,75.1626667 272.771,74.948 C272.579667,74.7333333 272.484,74.458 272.484,74.122 C272.484,73.7113333 272.61,73.3846667 272.862,73.142 C273.114,72.8993333 273.454667,72.778 273.884,72.778 C274.266667,72.778 274.581667,72.848 274.829,72.988 C275.076333,73.128 275.330667,73.324 275.592,73.576 L275.592,73.576 L276.208,72.89 C275.956,72.6193333 275.673667,72.386 275.361,72.19 C275.048333,71.994 274.668,71.8726667 274.22,71.826 L274.22,71.826 L274.22,70.44 L273.38,70.44 L273.38,71.854 C272.764,71.9473333 272.271667,72.2016667 271.903,72.617 C271.534333,73.0323333 271.35,73.5526667 271.35,74.178 C271.35,74.6353333 271.445667,75.011 271.637,75.305 C271.828333,75.599 272.068667,75.8486667 272.358,76.054 C272.647333,76.2593333 272.962333,76.4413333 273.303,76.6 C273.643667,76.7586667 273.958667,76.929 274.248,77.111 C274.537333,77.293 274.777667,77.5076667 274.969,77.755 C275.160333,78.0023333 275.256,78.3126667 275.256,78.686 C275.256,79.1246667 275.127667,79.4746667 274.871,79.736 C274.614333,79.9973333 274.224667,80.128 273.702,80.128 C273.272667,80.128 272.878333,80.037 272.519,79.855 C272.159667,79.673 271.830667,79.4513333 271.532,79.19 L271.532,79.19 L271,79.988 C271.298667,80.2586667 271.658,80.4943333 272.078,80.695 C272.498,80.8956667 272.932,81.0193333 273.38,81.066 L273.38,81.066 L273.38,82.452 L274.22,82.452 Z M283.376,80.912 L283.376,79.96 L281.528,79.96 L281.528,71.98 L280.646,71.98 C280.403333,72.1293333 280.130333,72.2576667 279.827,72.365 C279.523667,72.4723333 279.166667,72.5633333 278.756,72.638 L278.756,72.638 L278.756,73.38 L280.38,73.38 L280.38,79.96 L278.336,79.96 L278.336,80.912 L283.376,80.912 Z M289.536,80.912 L289.536,78.448 L290.754,78.448 L290.754,77.524 L289.536,77.524 L289.536,71.98 L288.248,71.98 L284.426,77.692 L284.426,78.448 L288.444,78.448 L288.444,80.912 L289.536,80.912 Z M288.444,77.524 L285.644,77.524 L287.73,74.472 C287.860667,74.2573333 287.986667,74.0473333 288.108,73.842 C288.229333,73.6366667 288.346,73.4266667 288.458,73.212 L288.458,73.212 L288.514,73.212 C288.495333,73.4546667 288.479,73.7416667 288.465,74.073 C288.451,74.4043333 288.444,74.6913333 288.444,74.934 L288.444,74.934 L288.444,77.524 Z M297.292,80.912 L297.292,79.96 L295.444,79.96 L295.444,71.98 L294.562,71.98 C294.319333,72.1293333 294.046333,72.2576667 293.743,72.365 C293.439667,72.4723333 293.082667,72.5633333 292.672,72.638 L292.672,72.638 L292.672,73.38 L294.296,73.38 L294.296,79.96 L292.252,79.96 L292.252,80.912 L297.292,80.912 Z M302.29,80.912 C302.803333,80.912 303.274667,80.856 303.704,80.744 C304.133333,80.632 304.502,80.464 304.81,80.24 C305.118,80.016 305.356,79.736 305.524,79.4 C305.692,79.064 305.776,78.672 305.776,78.224 C305.776,77.5893333 305.603333,77.09 305.258,76.726 C304.912667,76.362 304.46,76.1286667 303.9,76.026 L303.9,76.026 L303.9,75.97 C304.338667,75.83 304.672333,75.5756667 304.901,75.207 C305.129667,74.8383333 305.244,74.4253333 305.244,73.968 C305.244,73.5666667 305.167,73.2236667 305.013,72.939 C304.859,72.6543333 304.644333,72.4233333 304.369,72.246 C304.093667,72.0686667 303.762333,71.938 303.375,71.854 C302.987667,71.77 302.560667,71.728 302.094,71.728 L302.094,71.728 L299.364,71.728 L299.364,80.912 L302.29,80.912 Z M301.884,75.634 L300.526,75.634 L300.526,72.652 L301.94,72.652 C302.658667,72.652 303.197667,72.764 303.557,72.988 C303.916333,73.212 304.096,73.59 304.096,74.122 C304.096,74.5886667 303.923333,74.9573333 303.578,75.228 C303.232667,75.4986667 302.668,75.634 301.884,75.634 L301.884,75.634 Z M302.122,79.988 L300.526,79.988 L300.526,76.53 L302.122,76.53 C302.934,76.53 303.554667,76.663 303.984,76.929 C304.413333,77.195 304.628,77.6126667 304.628,78.182 C304.628,78.798 304.408667,79.253 303.97,79.547 C303.531333,79.841 302.915333,79.988 302.122,79.988 L302.122,79.988 Z" id="Unobligated$141B" fill="#666666" fill-rule="nonzero"></path>
                <line x1="10.5" y1="32" x2="10.5" y2="47" id="Line" stroke="#C6C6C6"></line>
                <line x1="214.5" y1="30" x2="214.5" y2="45" id="Line-Copy" stroke="#C6C6C6"></line>
                <path d="M330.368,21.54 L330.368,20.084 C331.096,19.9253333 331.642,19.6056667 332.006,19.125 C332.37,18.6443333 332.552,18.068 332.552,17.396 C332.552,16.948 332.461,16.5723333 332.279,16.269 C332.097,15.9656667 331.868333,15.7066667 331.593,15.492 C331.317667,15.2773333 331.021333,15.0953333 330.704,14.946 C330.386667,14.7966667 330.090333,14.652 329.815,14.512 C329.539667,14.372 329.311,14.225 329.129,14.071 C328.947,13.917 328.856,13.728 328.856,13.504 C328.856,13.1866667 328.944667,12.958 329.122,12.818 C329.299333,12.678 329.556,12.608 329.892,12.608 C330.190667,12.608 330.456667,12.6663333 330.69,12.783 C330.923333,12.8996667 331.166,13.0746667 331.418,13.308 L331.418,13.308 L332.454,12.132 C332.183333,11.8426667 331.88,11.5953333 331.544,11.39 C331.208,11.1846667 330.816,11.0493333 330.368,10.984 L330.368,10.984 L330.368,9.57 L329.01,9.57 L329.01,11.012 C328.347333,11.1426667 327.827,11.4343333 327.449,11.887 C327.071,12.3396667 326.882,12.9113333 326.882,13.602 C326.882,14.022 326.973,14.3766667 327.155,14.666 C327.337,14.9553333 327.565667,15.2073333 327.841,15.422 C328.116333,15.6366667 328.412667,15.821 328.73,15.975 C329.047333,16.129 329.343667,16.283 329.619,16.437 C329.894333,16.591 330.123,16.752 330.305,16.92 C330.487,17.088 330.578,17.2933333 330.578,17.536 C330.578,17.8626667 330.487,18.1053333 330.305,18.264 C330.123,18.4226667 329.836,18.502 329.444,18.502 C329.108,18.502 328.779,18.4343333 328.457,18.299 C328.135,18.1636667 327.796667,17.9606667 327.442,17.69 L327.442,17.69 L326.546,19.076 C326.872667,19.3746667 327.262333,19.615 327.715,19.797 C328.167667,19.979 328.599333,20.0933333 329.01,20.14 L329.01,20.14 L329.01,21.54 L330.368,21.54 Z M340.028,20 L340.028,18.334 L338.362,18.334 L338.362,11.11 L336.85,11.11 C336.532667,11.2966667 336.206,11.4553333 335.87,11.586 C335.534,11.7166667 335.123333,11.8286667 334.638,11.922 L334.638,11.922 L334.638,13.196 L336.304,13.196 L336.304,18.334 L334.372,18.334 L334.372,20 L340.028,20 Z M342.884,20.168 C343.238667,20.168 343.535,20.0443333 343.773,19.797 C344.011,19.5496667 344.13,19.244 344.13,18.88 C344.13,18.5066667 344.011,18.1963333 343.773,17.949 C343.535,17.7016667 343.238667,17.578 342.884,17.578 C342.529333,17.578 342.233,17.7016667 341.995,17.949 C341.757,18.1963333 341.638,18.5066667 341.638,18.88 C341.638,19.244 341.757,19.5496667 341.995,19.797 C342.233,20.0443333 342.529333,20.168 342.884,20.168 Z M351.62,20 L351.62,18.334 L349.954,18.334 L349.954,11.11 L348.442,11.11 C348.124667,11.2966667 347.798,11.4553333 347.462,11.586 C347.126,11.7166667 346.715333,11.8286667 346.23,11.922 L346.23,11.922 L346.23,13.196 L347.896,13.196 L347.896,18.334 L345.964,18.334 L345.964,20 L351.62,20 Z M356.058,20.168 C356.534,20.168 356.965667,20.105 357.353,19.979 C357.740333,19.853 358.071667,19.6803333 358.347,19.461 C358.622333,19.2416667 358.834667,18.9826667 358.984,18.684 C359.133333,18.3853333 359.208,18.0586667 359.208,17.704 C359.208,17.116 359.058667,16.64 358.76,16.276 C358.461333,15.912 358.097333,15.6133333 357.668,15.38 L357.668,15.38 L357.668,15.324 C357.976,15.1186667 358.246667,14.8503333 358.48,14.519 C358.713333,14.1876667 358.83,13.8073333 358.83,13.378 C358.83,13.014 358.764667,12.6803333 358.634,12.377 C358.503333,12.0736667 358.321333,11.817 358.088,11.607 C357.854667,11.397 357.57,11.2336667 357.234,11.117 C356.898,11.0003333 356.529333,10.942 356.128,10.942 C355.717333,10.942 355.337,10.998 354.987,11.11 C354.637,11.222 354.336,11.3853333 354.084,11.6 C353.832,11.8146667 353.636,12.0736667 353.496,12.377 C353.356,12.6803333 353.286,13.0186667 353.286,13.392 C353.286,13.868 353.398,14.2716667 353.622,14.603 C353.846,14.9343333 354.130667,15.2306667 354.476,15.492 L354.476,15.492 L354.476,15.548 C354.056,15.772 353.699,16.0566667 353.405,16.402 C353.111,16.7473333 352.964,17.1906667 352.964,17.732 C352.964,18.096 353.041,18.4273333 353.195,18.726 C353.349,19.0246667 353.563667,19.2813333 353.839,19.496 C354.114333,19.7106667 354.441,19.8763333 354.819,19.993 C355.197,20.1096667 355.61,20.168 356.058,20.168 Z M356.618,14.82 C356.160667,14.6426667 355.792,14.4513333 355.512,14.246 C355.232,14.0406667 355.092,13.756 355.092,13.392 C355.092,13.0466667 355.19,12.79 355.386,12.622 C355.582,12.454 355.815333,12.37 356.086,12.37 C356.422,12.37 356.685667,12.475 356.877,12.685 C357.068333,12.895 357.164,13.1726667 357.164,13.518 C357.164,13.966 356.982,14.4 356.618,14.82 Z M356.1,18.74 C355.726667,18.74 355.404667,18.6303333 355.134,18.411 C354.863333,18.1916667 354.728,17.886 354.728,17.494 C354.728,17.2233333 354.793333,16.9666667 354.924,16.724 C355.054667,16.4813333 355.218,16.2666667 355.414,16.08 C355.694,16.2013333 355.948333,16.3133333 356.177,16.416 C356.405667,16.5186667 356.604,16.6283333 356.772,16.745 C356.94,16.8616667 357.068333,16.99 357.157,17.13 C357.245667,17.27 357.29,17.438 357.29,17.634 C357.29,18.0073333 357.178,18.285 356.954,18.467 C356.73,18.649 356.445333,18.74 356.1,18.74 Z M364.696,20 L364.696,12.608 L367.202,12.608 L367.202,10.872 L360.118,10.872 L360.118,12.608 L362.624,12.608 L362.624,20 L364.696,20 Z" id="$1.18T" fill="#555555" fill-rule="nonzero"></path>
                <line x1="303.5" y1="32" x2="303.5" y2="47" id="Line-Copy-3" stroke="#C6C6C6"></line>
                <g id="Group-17">
                    <rect id="outlays" fill="#331E4D" x="0" y="0" width="138" height="31"></rect>
                    <rect id="unobligated" fill="#F3E9FF" x="257" y="0" width="59" height="31"></rect>
                    <rect id="obligated" fill="#6F41A7" x="138" y="0" width="158" height="31"></rect>
                </g>
            </g>
        </g>
    </g>
</svg>