<?xml version="1.0" encoding="UTF-8"?>
<svg width="493px" height="36px" viewBox="0 0 493 36" version="1.1" xmlns="http://www.w3.org/2000/svg" xmlns:xlink="http://www.w3.org/1999/xlink">
    <title>09. desktop - phase 3.5 loan</title>
    <g id="SVG" stroke="none" stroke-width="1" fill="none" fill-rule="evenodd">
        <g id="Viz-3---Desktop-Copy" transform="translate(-279.000000, -1689.000000)">
            <g id="09.-desktop---phase-3.5-loan" transform="translate(279.000000, 1689.000000)">
                <path d="M256.718,14.168 C257.315333,14.168 257.861333,14.0583333 258.356,13.839 C258.850667,13.6196667 259.277667,13.3023333 259.637,12.887 C259.996333,12.4716667 260.274,11.97 260.47,11.382 C260.666,10.794 260.764,10.1266667 260.764,9.38 C260.764,8.64266667 260.666,7.98233333 260.47,7.399 C260.274,6.81566667 259.996333,6.32333333 259.637,5.922 C259.277667,5.52066667 258.850667,5.21266667 258.356,4.998 C257.861333,4.78333333 257.315333,4.676 256.718,4.676 C256.120667,4.676 255.574667,4.78333333 255.08,4.998 C254.585333,5.21266667 254.160667,5.52066667 253.806,5.922 C253.451333,6.32333333 253.176,6.81566667 252.98,7.399 C252.784,7.98233333 252.686,8.64266667 252.686,9.38 C252.686,10.1266667 252.784,10.794 252.98,11.382 C253.176,11.97 253.451333,12.4716667 253.806,12.887 C254.160667,13.3023333 254.585333,13.6196667 255.08,13.839 C255.574667,14.0583333 256.120667,14.168 256.718,14.168 Z M256.718,12.754 C256.354,12.754 256.027333,12.6746667 255.738,12.516 C255.448667,12.3573333 255.201333,12.131 254.996,11.837 C254.790667,11.543 254.632,11.1883333 254.52,10.773 C254.408,10.3576667 254.352,9.89333333 254.352,9.38 C254.352,8.35333333 254.564333,7.54833333 254.989,6.965 C255.413667,6.38166667 255.99,6.09 256.718,6.09 C257.446,6.09 258.022333,6.38166667 258.447,6.965 C258.871667,7.54833333 259.084,8.35333333 259.084,9.38 C259.084,9.89333333 259.028,10.3576667 258.916,10.773 C258.804,11.1883333 258.645333,11.543 258.44,11.837 C258.234667,12.131 257.987333,12.3573333 257.698,12.516 C257.408667,12.6746667 257.082,12.754 256.718,12.754 Z M264.502,14.168 C264.978,14.168 265.391,14.0606667 265.741,13.846 C266.091,13.6313333 266.415333,13.3466667 266.714,12.992 L266.714,12.992 L266.756,12.992 L266.882,14 L268.198,14 L268.198,7.126 L266.588,7.126 L266.588,11.83 C266.326667,12.166 266.081667,12.4086667 265.853,12.558 C265.624333,12.7073333 265.360667,12.782 265.062,12.782 C264.688667,12.782 264.418,12.6653333 264.25,12.432 C264.082,12.1986667 263.998,11.7973333 263.998,11.228 L263.998,11.228 L263.998,7.126 L262.388,7.126 L262.388,11.438 C262.388,12.3153333 262.556,12.9896667 262.892,13.461 C263.228,13.9323333 263.764667,14.168 264.502,14.168 Z M272.664,14.168 C272.934667,14.168 273.189,14.1423333 273.427,14.091 C273.665,14.0396667 273.877333,13.9813333 274.064,13.916 L274.064,13.916 L273.784,12.726 C273.681333,12.7726667 273.567,12.81 273.441,12.838 C273.315,12.866 273.191333,12.88 273.07,12.88 C272.426,12.88 272.104,12.4786667 272.104,11.676 L272.104,11.676 L272.104,8.4 L273.854,8.4 L273.854,7.126 L272.104,7.126 L272.104,5.25 L270.76,5.25 L270.564,7.126 L269.5,7.196 L269.5,8.4 L270.48,8.4 L270.48,11.676 C270.48,12.0493333 270.519667,12.3876667 270.599,12.691 C270.678333,12.9943333 270.804333,13.2556667 270.977,13.475 C271.149667,13.6943333 271.373667,13.8646667 271.649,13.986 C271.924333,14.1073333 272.262667,14.168 272.664,14.168 Z M276.864,14.168 C277.218667,14.168 277.503333,14.1213333 277.718,14.028 L277.718,14.028 L277.508,12.824 C277.442667,12.8426667 277.393667,12.852 277.361,12.852 L277.361,12.852 L277.256,12.852 C277.172,12.852 277.092667,12.8123333 277.018,12.733 C276.943333,12.6536667 276.906,12.516 276.906,12.32 L276.906,12.32 L276.906,4.116 L275.296,4.116 L275.296,12.236 C275.296,12.8333333 275.412667,13.3046667 275.646,13.65 C275.879333,13.9953333 276.285333,14.168 276.864,14.168 Z M280.756,14.168 C281.166667,14.168 281.547,14.0793333 281.897,13.902 C282.247,13.7246667 282.576,13.5053333 282.884,13.244 L282.884,13.244 L282.94,13.244 L283.052,14 L284.382,14 L284.382,9.926 C284.382,8.96466667 284.169667,8.22966667 283.745,7.721 C283.320333,7.21233333 282.678667,6.958 281.82,6.958 C281.269333,6.958 280.756,7.04666667 280.28,7.224 C279.804,7.40133333 279.374667,7.61133333 278.992,7.854 L278.992,7.854 L279.58,8.932 C279.888,8.74533333 280.203,8.58666667 280.525,8.456 C280.847,8.32533333 281.176,8.26 281.512,8.26 C281.745333,8.26 281.941333,8.295 282.1,8.365 C282.258667,8.435 282.387,8.533 282.485,8.659 C282.583,8.785 282.653,8.92966667 282.695,9.093 C282.737,9.25633333 282.762667,9.42666667 282.772,9.604 C282.062667,9.67866667 281.453667,9.786 280.945,9.926 C280.436333,10.066 280.016333,10.2386667 279.685,10.444 C279.353667,10.6493333 279.111,10.8943333 278.957,11.179 C278.803,11.4636667 278.726,11.788 278.726,12.152 C278.726,12.7586667 278.912667,13.2463333 279.286,13.615 C279.659333,13.9836667 280.149333,14.168 280.756,14.168 Z M281.274,12.908 C280.984667,12.908 280.746667,12.838 280.56,12.698 C280.373333,12.558 280.28,12.334 280.28,12.026 C280.28,11.858 280.322,11.6993333 280.406,11.55 C280.49,11.4006667 280.63,11.2676667 280.826,11.151 C281.022,11.0343333 281.278667,10.9293333 281.596,10.836 C281.913333,10.7426667 282.305333,10.668 282.772,10.612 L282.772,10.612 L282.772,12.152 C282.510667,12.3946667 282.265667,12.5813333 282.037,12.712 C281.808333,12.8426667 281.554,12.908 281.274,12.908 Z M286.776,16.828 C287.149333,16.828 287.478333,16.7696667 287.763,16.653 C288.047667,16.5363333 288.299667,16.3683333 288.519,16.149 C288.738333,15.9296667 288.932,15.666 289.1,15.358 C289.268,15.05 289.422,14.7 289.562,14.308 L289.562,14.308 L292.054,7.126 L290.5,7.126 L289.464,10.5 C289.38,10.808 289.293667,11.1276667 289.205,11.459 C289.116333,11.7903333 289.03,12.1146667 288.946,12.432 L288.946,12.432 L288.89,12.432 C288.787333,12.1053333 288.687,11.7763333 288.589,11.445 C288.491,11.1136667 288.390667,10.7986667 288.288,10.5 L288.288,10.5 L287.098,7.126 L285.46,7.126 L288.162,13.916 L288.036,14.35 C287.924,14.6953333 287.758333,14.9776667 287.539,15.197 C287.319667,15.4163333 287.028,15.526 286.664,15.526 C286.58,15.526 286.493667,15.5143333 286.405,15.491 C286.316333,15.4676667 286.239333,15.4466667 286.174,15.428 L286.174,15.428 L285.88,16.688 C286.010667,16.7346667 286.146,16.7696667 286.286,16.793 C286.426,16.8163333 286.589333,16.828 286.776,16.828 Z M295.162,14.168 C295.591333,14.168 295.974,14.112 296.31,14 C296.646,13.888 296.926,13.7363333 297.15,13.545 C297.374,13.3536667 297.544333,13.1296667 297.661,12.873 C297.777667,12.6163333 297.836,12.3386667 297.836,12.04 C297.836,11.7226667 297.777667,11.4496667 297.661,11.221 C297.544333,10.9923333 297.390333,10.7986667 297.199,10.64 C297.007667,10.4813333 296.795333,10.3483333 296.562,10.241 C296.328667,10.1336667 296.095333,10.038 295.862,9.954 C295.675333,9.88866667 295.495667,9.82333333 295.323,9.758 C295.150333,9.69266667 294.998667,9.62266667 294.868,9.548 C294.737333,9.47333333 294.632333,9.387 294.553,9.289 C294.473667,9.191 294.434,9.072 294.434,8.932 C294.434,8.71733333 294.515667,8.53766667 294.679,8.393 C294.842333,8.24833333 295.096667,8.176 295.442,8.176 C295.712667,8.176 295.971667,8.22966667 296.219,8.337 C296.466333,8.44433333 296.711333,8.58666667 296.954,8.764 L296.954,8.764 L297.696,7.784 C297.416,7.56933333 297.084667,7.378 296.702,7.21 C296.319333,7.042 295.89,6.958 295.414,6.958 C294.639333,6.958 294.028,7.14933333 293.58,7.532 C293.132,7.91466667 292.908,8.40933333 292.908,9.016 C292.908,9.30533333 292.966333,9.555 293.083,9.765 C293.199667,9.975 293.349,10.1593333 293.531,10.318 C293.713,10.4766667 293.920667,10.612 294.154,10.724 C294.387333,10.836 294.616,10.934 294.84,11.018 C295.017333,11.0926667 295.194667,11.165 295.372,11.235 C295.549333,11.305 295.708,11.382 295.848,11.466 C295.988,11.55 296.1,11.6456667 296.184,11.753 C296.268,11.8603333 296.31,11.984 296.31,12.124 C296.31,12.3666667 296.221333,12.565 296.044,12.719 C295.866667,12.873 295.591333,12.95 295.218,12.95 C294.863333,12.95 294.534333,12.8823333 294.231,12.747 C293.927667,12.6116667 293.622,12.4226667 293.314,12.18 L293.314,12.18 L292.558,13.216 C292.894,13.4866667 293.293,13.713 293.755,13.895 C294.217,14.077 294.686,14.168 295.162,14.168 Z M255.948,33.54 L255.948,32.126 C256.62,32.0326667 257.149667,31.7713333 257.537,31.342 C257.924333,30.9126667 258.118,30.362 258.118,29.69 C258.118,29.186 258.022333,28.773 257.831,28.451 C257.639667,28.129 257.399333,27.8583333 257.11,27.639 C256.820667,27.4196667 256.505667,27.233 256.165,27.079 C255.824333,26.925 255.509333,26.7663333 255.22,26.603 C254.930667,26.4396667 254.690333,26.2506667 254.499,26.036 C254.307667,25.8213333 254.212,25.546 254.212,25.21 C254.212,24.7993333 254.338,24.4726667 254.59,24.23 C254.842,23.9873333 255.182667,23.866 255.612,23.866 C255.994667,23.866 256.309667,23.936 256.557,24.076 C256.804333,24.216 257.058667,24.412 257.32,24.664 L257.32,24.664 L257.936,23.978 C257.684,23.7073333 257.401667,23.474 257.089,23.278 C256.776333,23.082 256.396,22.9606667 255.948,22.914 L255.948,22.914 L255.948,21.528 L255.108,21.528 L255.108,22.942 C254.492,23.0353333 253.999667,23.2896667 253.631,23.705 C253.262333,24.1203333 253.078,24.6406667 253.078,25.266 C253.078,25.7233333 253.173667,26.099 253.365,26.393 C253.556333,26.687 253.796667,26.9366667 254.086,27.142 C254.375333,27.3473333 254.690333,27.5293333 255.031,27.688 C255.371667,27.8466667 255.686667,28.017 255.976,28.199 C256.265333,28.381 256.505667,28.5956667 256.697,28.843 C256.888333,29.0903333 256.984,29.4006667 256.984,29.774 C256.984,30.2126667 256.855667,30.5626667 256.599,30.824 C256.342333,31.0853333 255.952667,31.216 255.43,31.216 C255.000667,31.216 254.606333,31.125 254.247,30.943 C253.887667,30.761 253.558667,30.5393333 253.26,30.278 L253.26,30.278 L252.728,31.076 C253.026667,31.3466667 253.386,31.5823333 253.806,31.783 C254.226,31.9836667 254.66,32.1073333 255.108,32.154 L255.108,32.154 L255.108,33.54 L255.948,33.54 Z M265.286,32 L265.286,31.006 L262.696,31.006 C262.462667,31.006 262.215333,31.0153333 261.954,31.034 C261.692667,31.0526667 261.440667,31.0713333 261.198,31.09 C261.73,30.5393333 262.217667,30.019 262.661,29.529 C263.104333,29.039 263.487,28.5676667 263.809,28.115 C264.131,27.6623333 264.383,27.2236667 264.565,26.799 C264.747,26.3743333 264.838,25.952 264.838,25.532 C264.838,24.7386667 264.6,24.1016667 264.124,23.621 C263.648,23.1403333 262.994667,22.9 262.164,22.9 C261.576,22.9 261.072,23.0236667 260.652,23.271 C260.232,23.5183333 259.835333,23.8473333 259.462,24.258 L259.462,24.258 L260.12,24.916 C260.381333,24.6173333 260.670667,24.363 260.988,24.153 C261.305333,23.943 261.650667,23.838 262.024,23.838 C262.593333,23.838 263.018,24.0013333 263.298,24.328 C263.578,24.6546667 263.718,25.0746667 263.718,25.588 C263.718,25.952 263.624667,26.3276667 263.438,26.715 C263.251333,27.1023333 262.980667,27.527 262.626,27.989 C262.271333,28.451 261.832667,28.9526667 261.31,29.494 C260.787333,30.0353333 260.19,30.642 259.518,31.314 L259.518,31.314 L259.518,32 L265.286,32 Z M269.584,32 C269.621333,31.132 269.684333,30.341 269.773,29.627 C269.861667,28.913 270.004,28.2363333 270.2,27.597 C270.396,26.9576667 270.659667,26.33 270.991,25.714 C271.322333,25.098 271.754,24.454 272.286,23.782 L272.286,23.782 L272.286,23.068 L266.532,23.068 L266.532,24.062 L270.984,24.062 C270.545333,24.678 270.169667,25.28 269.857,25.868 C269.544333,26.456 269.287667,27.065 269.087,27.695 C268.886333,28.325 268.73,28.99 268.618,29.69 C268.506,30.39 268.431333,31.16 268.394,32 L268.394,32 L269.584,32 Z M279.02,32 L279.02,31.048 L277.172,31.048 L277.172,23.068 L276.29,23.068 C276.047333,23.2173333 275.774333,23.3456667 275.471,23.453 C275.167667,23.5603333 274.810667,23.6513333 274.4,23.726 L274.4,23.726 L274.4,24.468 L276.024,24.468 L276.024,31.048 L273.98,31.048 L273.98,32 L279.02,32 Z M284.018,32 C284.531333,32 285.002667,31.944 285.432,31.832 C285.861333,31.72 286.23,31.552 286.538,31.328 C286.846,31.104 287.084,30.824 287.252,30.488 C287.42,30.152 287.504,29.76 287.504,29.312 C287.504,28.6773333 287.331333,28.178 286.986,27.814 C286.640667,27.45 286.188,27.2166667 285.628,27.114 L285.628,27.114 L285.628,27.058 C286.066667,26.918 286.400333,26.6636667 286.629,26.295 C286.857667,25.9263333 286.972,25.5133333 286.972,25.056 C286.972,24.6546667 286.895,24.3116667 286.741,24.027 C286.587,23.7423333 286.372333,23.5113333 286.097,23.334 C285.821667,23.1566667 285.490333,23.026 285.103,22.942 C284.715667,22.858 284.288667,22.816 283.822,22.816 L283.822,22.816 L281.092,22.816 L281.092,32 L284.018,32 Z M283.612,26.722 L282.254,26.722 L282.254,23.74 L283.668,23.74 C284.386667,23.74 284.925667,23.852 285.285,24.076 C285.644333,24.3 285.824,24.678 285.824,25.21 C285.824,25.6766667 285.651333,26.0453333 285.306,26.316 C284.960667,26.5866667 284.396,26.722 283.612,26.722 L283.612,26.722 Z M283.85,31.076 L282.254,31.076 L282.254,27.618 L283.85,27.618 C284.662,27.618 285.282667,27.751 285.712,28.017 C286.141333,28.283 286.356,28.7006667 286.356,29.27 C286.356,29.886 286.136667,30.341 285.698,30.635 C285.259333,30.929 284.643333,31.076 283.85,31.076 L283.85,31.076 Z" id="Outlays$271B" fill="#666666" fill-rule="nonzero"></path>
                <path d="M328.718,14.168 C329.315333,14.168 329.861333,14.0583333 330.356,13.839 C330.850667,13.6196667 331.277667,13.3023333 331.637,12.887 C331.996333,12.4716667 332.274,11.97 332.47,11.382 C332.666,10.794 332.764,10.1266667 332.764,9.38 C332.764,8.64266667 332.666,7.98233333 332.47,7.399 C332.274,6.81566667 331.996333,6.32333333 331.637,5.922 C331.277667,5.52066667 330.850667,5.21266667 330.356,4.998 C329.861333,4.78333333 329.315333,4.676 328.718,4.676 C328.120667,4.676 327.574667,4.78333333 327.08,4.998 C326.585333,5.21266667 326.160667,5.52066667 325.806,5.922 C325.451333,6.32333333 325.176,6.81566667 324.98,7.399 C324.784,7.98233333 324.686,8.64266667 324.686,9.38 C324.686,10.1266667 324.784,10.794 324.98,11.382 C325.176,11.97 325.451333,12.4716667 325.806,12.887 C326.160667,13.3023333 326.585333,13.6196667 327.08,13.839 C327.574667,14.0583333 328.120667,14.168 328.718,14.168 Z M328.718,12.754 C328.354,12.754 328.027333,12.6746667 327.738,12.516 C327.448667,12.3573333 327.201333,12.131 326.996,11.837 C326.790667,11.543 326.632,11.1883333 326.52,10.773 C326.408,10.3576667 326.352,9.89333333 326.352,9.38 C326.352,8.35333333 326.564333,7.54833333 326.989,6.965 C327.413667,6.38166667 327.99,6.09 328.718,6.09 C329.446,6.09 330.022333,6.38166667 330.447,6.965 C330.871667,7.54833333 331.084,8.35333333 331.084,9.38 C331.084,9.89333333 331.028,10.3576667 330.916,10.773 C330.804,11.1883333 330.645333,11.543 330.44,11.837 C330.234667,12.131 329.987333,12.3573333 329.698,12.516 C329.408667,12.6746667 329.082,12.754 328.718,12.754 Z M337.79,14.168 C338.172667,14.168 338.541333,14.084 338.896,13.916 C339.250667,13.748 339.563333,13.5053333 339.834,13.188 C340.104667,12.8706667 340.321667,12.481 340.485,12.019 C340.648333,11.557 340.73,11.032 340.73,10.444 C340.73,9.912 340.669333,9.43133333 340.548,9.002 C340.426667,8.57266667 340.249333,8.20633333 340.016,7.903 C339.782667,7.59966667 339.498,7.36633333 339.162,7.203 C338.826,7.03966667 338.443333,6.958 338.014,6.958 C337.659333,6.958 337.311667,7.03733333 336.971,7.196 C336.630333,7.35466667 336.315333,7.56 336.026,7.812 L336.026,7.812 L336.068,6.664 L336.068,4.116 L334.458,4.116 L334.458,14 L335.732,14 L335.872,13.272 L335.914,13.272 C336.203333,13.5613333 336.509,13.783 336.831,13.937 C337.153,14.091 337.472667,14.168 337.79,14.168 Z M337.454,12.838 C337.248667,12.838 337.027,12.796 336.789,12.712 C336.551,12.628 336.310667,12.4786667 336.068,12.264 L336.068,12.264 L336.068,9.058 C336.590667,8.54466667 337.094667,8.288 337.58,8.288 C338.102667,8.288 338.480667,8.47933333 338.714,8.862 C338.947333,9.24466667 339.064,9.78133333 339.064,10.472 C339.064,11.256 338.91,11.8463333 338.602,12.243 C338.294,12.6396667 337.911333,12.838 337.454,12.838 Z M343.908,14.168 C344.262667,14.168 344.547333,14.1213333 344.762,14.028 L344.762,14.028 L344.552,12.824 C344.486667,12.8426667 344.437667,12.852 344.405,12.852 L344.405,12.852 L344.3,12.852 C344.216,12.852 344.136667,12.8123333 344.062,12.733 C343.987333,12.6536667 343.95,12.516 343.95,12.32 L343.95,12.32 L343.95,4.116 L342.34,4.116 L342.34,12.236 C342.34,12.8333333 342.456667,13.3046667 342.69,13.65 C342.923333,13.9953333 343.329333,14.168 343.908,14.168 Z M346.946,5.922 C347.235333,5.922 347.473333,5.838 347.66,5.67 C347.846667,5.502 347.94,5.28266667 347.94,5.012 C347.94,4.74133333 347.846667,4.51966667 347.66,4.347 C347.473333,4.17433333 347.235333,4.088 346.946,4.088 C346.656667,4.088 346.418667,4.17433333 346.232,4.347 C346.045333,4.51966667 345.952,4.74133333 345.952,5.012 C345.952,5.28266667 346.045333,5.502 346.232,5.67 C346.418667,5.838 346.656667,5.922 346.946,5.922 Z M347.744,14 L347.744,7.126 L346.134,7.126 L346.134,14 L347.744,14 Z M352.196,17.038 C352.756,17.038 353.262333,16.975 353.715,16.849 C354.167667,16.723 354.552667,16.5526667 354.87,16.338 C355.187333,16.1233333 355.432333,15.8666667 355.605,15.568 C355.777667,15.2693333 355.864,14.952 355.864,14.616 C355.864,14.0186667 355.651667,13.587 355.227,13.321 C354.802333,13.055 354.174667,12.922 353.344,12.922 L353.344,12.922 L352.126,12.922 C351.706,12.922 351.414333,12.866 351.251,12.754 C351.087667,12.642 351.006,12.488 351.006,12.292 C351.006,12.1333333 351.036333,12.0073333 351.097,11.914 C351.157667,11.8206667 351.239333,11.7273333 351.342,11.634 C351.500667,11.6993333 351.659333,11.746 351.818,11.774 C351.976667,11.802 352.130667,11.816 352.28,11.816 C352.644,11.816 352.984667,11.7646667 353.302,11.662 C353.619333,11.5593333 353.894667,11.41 354.128,11.214 C354.361333,11.018 354.545667,10.7753333 354.681,10.486 C354.816333,10.1966667 354.884,9.86066667 354.884,9.478 C354.884,9.23533333 354.846667,9.01366667 354.772,8.813 C354.697333,8.61233333 354.604,8.44666667 354.492,8.316 L354.492,8.316 L355.752,8.316 L355.752,7.126 L353.288,7.126 C353.148,7.07933333 352.991667,7.03966667 352.819,7.007 C352.646333,6.97433333 352.466667,6.958 352.28,6.958 C351.916,6.958 351.570667,7.01166667 351.244,7.119 C350.917333,7.22633333 350.630333,7.385 350.383,7.595 C350.135667,7.805 349.937333,8.064 349.788,8.372 C349.638667,8.68 349.564,9.03 349.564,9.422 C349.564,9.83266667 349.655,10.1943333 349.837,10.507 C350.019,10.8196667 350.226667,11.0646667 350.46,11.242 L350.46,11.242 L350.46,11.298 C350.264,11.438 350.089,11.6176667 349.935,11.837 C349.781,12.0563333 349.704,12.3013333 349.704,12.572 C349.704,12.852 349.762333,13.0853333 349.879,13.272 C349.995667,13.4586667 350.142667,13.608 350.32,13.72 L350.32,13.72 L350.32,13.776 C350.002667,13.972 349.76,14.1936667 349.592,14.441 C349.424,14.6883333 349.34,14.9566667 349.34,15.246 C349.34,15.5446667 349.412333,15.806 349.557,16.03 C349.701667,16.254 349.9,16.4406667 350.152,16.59 C350.404,16.7393333 350.705,16.8513333 351.055,16.926 C351.405,17.0006667 351.785333,17.038 352.196,17.038 Z M352.28,10.808 C351.944,10.808 351.659333,10.689 351.426,10.451 C351.192667,10.213 351.076,9.87 351.076,9.422 C351.076,8.98333333 351.192667,8.64733333 351.426,8.414 C351.659333,8.18066667 351.944,8.064 352.28,8.064 C352.616,8.064 352.898333,8.183 353.127,8.421 C353.355667,8.659 353.47,8.99266667 353.47,9.422 C353.47,9.87 353.353333,10.213 353.12,10.451 C352.886667,10.689 352.606667,10.808 352.28,10.808 Z M352.448,15.988 C351.897333,15.988 351.465667,15.9016667 351.153,15.729 C350.840333,15.5563333 350.684,15.316 350.684,15.008 C350.684,14.672 350.861333,14.3686667 351.216,14.098 C351.468,14.1633333 351.780667,14.196 352.154,14.196 L352.154,14.196 L353.092,14.196 C353.484,14.196 353.785,14.2426667 353.995,14.336 C354.205,14.4293333 354.31,14.6113333 354.31,14.882 C354.31,15.1806667 354.139667,15.4396667 353.799,15.659 C353.458333,15.8783333 353.008,15.988 352.448,15.988 Z M358.496,14.168 C358.906667,14.168 359.287,14.0793333 359.637,13.902 C359.987,13.7246667 360.316,13.5053333 360.624,13.244 L360.624,13.244 L360.68,13.244 L360.792,14 L362.122,14 L362.122,9.926 C362.122,8.96466667 361.909667,8.22966667 361.485,7.721 C361.060333,7.21233333 360.418667,6.958 359.56,6.958 C359.009333,6.958 358.496,7.04666667 358.02,7.224 C357.544,7.40133333 357.114667,7.61133333 356.732,7.854 L356.732,7.854 L357.32,8.932 C357.628,8.74533333 357.943,8.58666667 358.265,8.456 C358.587,8.32533333 358.916,8.26 359.252,8.26 C359.485333,8.26 359.681333,8.295 359.84,8.365 C359.998667,8.435 360.127,8.533 360.225,8.659 C360.323,8.785 360.393,8.92966667 360.435,9.093 C360.477,9.25633333 360.502667,9.42666667 360.512,9.604 C359.802667,9.67866667 359.193667,9.786 358.685,9.926 C358.176333,10.066 357.756333,10.2386667 357.425,10.444 C357.093667,10.6493333 356.851,10.8943333 356.697,11.179 C356.543,11.4636667 356.466,11.788 356.466,12.152 C356.466,12.7586667 356.652667,13.2463333 357.026,13.615 C357.399333,13.9836667 357.889333,14.168 358.496,14.168 Z M359.014,12.908 C358.724667,12.908 358.486667,12.838 358.3,12.698 C358.113333,12.558 358.02,12.334 358.02,12.026 C358.02,11.858 358.062,11.6993333 358.146,11.55 C358.23,11.4006667 358.37,11.2676667 358.566,11.151 C358.762,11.0343333 359.018667,10.9293333 359.336,10.836 C359.653333,10.7426667 360.045333,10.668 360.512,10.612 L360.512,10.612 L360.512,12.152 C360.250667,12.3946667 360.005667,12.5813333 359.777,12.712 C359.548333,12.8426667 359.294,12.908 359.014,12.908 Z M366.252,14.168 C366.522667,14.168 366.777,14.1423333 367.015,14.091 C367.253,14.0396667 367.465333,13.9813333 367.652,13.916 L367.652,13.916 L367.372,12.726 C367.269333,12.7726667 367.155,12.81 367.029,12.838 C366.903,12.866 366.779333,12.88 366.658,12.88 C366.014,12.88 365.692,12.4786667 365.692,11.676 L365.692,11.676 L365.692,8.4 L367.442,8.4 L367.442,7.126 L365.692,7.126 L365.692,5.25 L364.348,5.25 L364.152,7.126 L363.088,7.196 L363.088,8.4 L364.068,8.4 L364.068,11.676 C364.068,12.0493333 364.107667,12.3876667 364.187,12.691 C364.266333,12.9943333 364.392333,13.2556667 364.565,13.475 C364.737667,13.6943333 364.961667,13.8646667 365.237,13.986 C365.512333,14.1073333 365.850667,14.168 366.252,14.168 Z M369.696,5.922 C369.985333,5.922 370.223333,5.838 370.41,5.67 C370.596667,5.502 370.69,5.28266667 370.69,5.012 C370.69,4.74133333 370.596667,4.51966667 370.41,4.347 C370.223333,4.17433333 369.985333,4.088 369.696,4.088 C369.406667,4.088 369.168667,4.17433333 368.982,4.347 C368.795333,4.51966667 368.702,4.74133333 368.702,5.012 C368.702,5.28266667 368.795333,5.502 368.982,5.67 C369.168667,5.838 369.406667,5.922 369.696,5.922 Z M370.494,14 L370.494,7.126 L368.884,7.126 L368.884,14 L370.494,14 Z M375.366,14.168 C375.795333,14.168 376.208333,14.0886667 376.605,13.93 C377.001667,13.7713333 377.349333,13.538 377.648,13.23 C377.946667,12.922 378.187,12.544 378.369,12.096 C378.551,11.648 378.642,11.1393333 378.642,10.57 C378.642,10.0006667 378.551,9.492 378.369,9.044 C378.187,8.596 377.946667,8.218 377.648,7.91 C377.349333,7.602 377.001667,7.36633333 376.605,7.203 C376.208333,7.03966667 375.795333,6.958 375.366,6.958 C374.936667,6.958 374.526,7.03966667 374.134,7.203 C373.742,7.36633333 373.394333,7.602 373.091,7.91 C372.787667,8.218 372.547333,8.596 372.37,9.044 C372.192667,9.492 372.104,10.0006667 372.104,10.57 C372.104,11.1393333 372.192667,11.648 372.37,12.096 C372.547333,12.544 372.787667,12.922 373.091,13.23 C373.394333,13.538 373.742,13.7713333 374.134,13.93 C374.526,14.0886667 374.936667,14.168 375.366,14.168 Z M375.366,12.852 C374.862,12.852 374.467667,12.6443333 374.183,12.229 C373.898333,11.8136667 373.756,11.2606667 373.756,10.57 C373.756,9.87 373.898333,9.31233333 374.183,8.897 C374.467667,8.48166667 374.862,8.274 375.366,8.274 C375.87,8.274 376.266667,8.48166667 376.556,8.897 C376.845333,9.31233333 376.99,9.87 376.99,10.57 C376.99,11.2606667 376.845333,11.8136667 376.556,12.229 C376.266667,12.6443333 375.87,12.852 375.366,12.852 Z M381.848,14 L381.848,9.198 C382.137333,8.918 382.396333,8.70566667 382.625,8.561 C382.853667,8.41633333 383.117333,8.344 383.416,8.344 C383.798667,8.344 384.074,8.46066667 384.242,8.694 C384.41,8.92733333 384.494,9.32866667 384.494,9.898 L384.494,9.898 L384.494,14 L386.104,14 L386.104,9.688 C386.104,8.81066667 385.936,8.13633333 385.6,7.665 C385.264,7.19366667 384.727333,6.958 383.99,6.958 C383.514,6.958 383.096333,7.06533333 382.737,7.28 C382.377667,7.49466667 382.044,7.75133333 381.736,8.05 L381.736,8.05 L381.68,8.05 L381.568,7.126 L380.238,7.126 L380.238,14 L381.848,14 Z M389.996,14.168 C390.425333,14.168 390.808,14.112 391.144,14 C391.48,13.888 391.76,13.7363333 391.984,13.545 C392.208,13.3536667 392.378333,13.1296667 392.495,12.873 C392.611667,12.6163333 392.67,12.3386667 392.67,12.04 C392.67,11.7226667 392.611667,11.4496667 392.495,11.221 C392.378333,10.9923333 392.224333,10.7986667 392.033,10.64 C391.841667,10.4813333 391.629333,10.3483333 391.396,10.241 C391.162667,10.1336667 390.929333,10.038 390.696,9.954 C390.509333,9.88866667 390.329667,9.82333333 390.157,9.758 C389.984333,9.69266667 389.832667,9.62266667 389.702,9.548 C389.571333,9.47333333 389.466333,9.387 389.387,9.289 C389.307667,9.191 389.268,9.072 389.268,8.932 C389.268,8.71733333 389.349667,8.53766667 389.513,8.393 C389.676333,8.24833333 389.930667,8.176 390.276,8.176 C390.546667,8.176 390.805667,8.22966667 391.053,8.337 C391.300333,8.44433333 391.545333,8.58666667 391.788,8.764 L391.788,8.764 L392.53,7.784 C392.25,7.56933333 391.918667,7.378 391.536,7.21 C391.153333,7.042 390.724,6.958 390.248,6.958 C389.473333,6.958 388.862,7.14933333 388.414,7.532 C387.966,7.91466667 387.742,8.40933333 387.742,9.016 C387.742,9.30533333 387.800333,9.555 387.917,9.765 C388.033667,9.975 388.183,10.1593333 388.365,10.318 C388.547,10.4766667 388.754667,10.612 388.988,10.724 C389.221333,10.836 389.45,10.934 389.674,11.018 C389.851333,11.0926667 390.028667,11.165 390.206,11.235 C390.383333,11.305 390.542,11.382 390.682,11.466 C390.822,11.55 390.934,11.6456667 391.018,11.753 C391.102,11.8603333 391.144,11.984 391.144,12.124 C391.144,12.3666667 391.055333,12.565 390.878,12.719 C390.700667,12.873 390.425333,12.95 390.052,12.95 C389.697333,12.95 389.368333,12.8823333 389.065,12.747 C388.761667,12.6116667 388.456,12.4226667 388.148,12.18 L388.148,12.18 L387.392,13.216 C387.728,13.4866667 388.127,13.713 388.589,13.895 C389.051,14.077 389.52,14.168 389.996,14.168 Z M327.948,33.54 L327.948,32.126 C328.62,32.0326667 329.149667,31.7713333 329.537,31.342 C329.924333,30.9126667 330.118,30.362 330.118,29.69 C330.118,29.186 330.022333,28.773 329.831,28.451 C329.639667,28.129 329.399333,27.8583333 329.11,27.639 C328.820667,27.4196667 328.505667,27.233 328.165,27.079 C327.824333,26.925 327.509333,26.7663333 327.22,26.603 C326.930667,26.4396667 326.690333,26.2506667 326.499,26.036 C326.307667,25.8213333 326.212,25.546 326.212,25.21 C326.212,24.7993333 326.338,24.4726667 326.59,24.23 C326.842,23.9873333 327.182667,23.866 327.612,23.866 C327.994667,23.866 328.309667,23.936 328.557,24.076 C328.804333,24.216 329.058667,24.412 329.32,24.664 L329.32,24.664 L329.936,23.978 C329.684,23.7073333 329.401667,23.474 329.089,23.278 C328.776333,23.082 328.396,22.9606667 327.948,22.914 L327.948,22.914 L327.948,21.528 L327.108,21.528 L327.108,22.942 C326.492,23.0353333 325.999667,23.2896667 325.631,23.705 C325.262333,24.1203333 325.078,24.6406667 325.078,25.266 C325.078,25.7233333 325.173667,26.099 325.365,26.393 C325.556333,26.687 325.796667,26.9366667 326.086,27.142 C326.375333,27.3473333 326.690333,27.5293333 327.031,27.688 C327.371667,27.8466667 327.686667,28.017 327.976,28.199 C328.265333,28.381 328.505667,28.5956667 328.697,28.843 C328.888333,29.0903333 328.984,29.4006667 328.984,29.774 C328.984,30.2126667 328.855667,30.5626667 328.599,30.824 C328.342333,31.0853333 327.952667,31.216 327.43,31.216 C327.000667,31.216 326.606333,31.125 326.247,30.943 C325.887667,30.761 325.558667,30.5393333 325.26,30.278 L325.26,30.278 L324.728,31.076 C325.026667,31.3466667 325.386,31.5823333 325.806,31.783 C326.226,31.9836667 326.66,32.1073333 327.108,32.154 L327.108,32.154 L327.108,33.54 L327.948,33.54 Z M337.286,32 L337.286,31.006 L334.696,31.006 C334.462667,31.006 334.215333,31.0153333 333.954,31.034 C333.692667,31.0526667 333.440667,31.0713333 333.198,31.09 C333.73,30.5393333 334.217667,30.019 334.661,29.529 C335.104333,29.039 335.487,28.5676667 335.809,28.115 C336.131,27.6623333 336.383,27.2236667 336.565,26.799 C336.747,26.3743333 336.838,25.952 336.838,25.532 C336.838,24.7386667 336.6,24.1016667 336.124,23.621 C335.648,23.1403333 334.994667,22.9 334.164,22.9 C333.576,22.9 333.072,23.0236667 332.652,23.271 C332.232,23.5183333 331.835333,23.8473333 331.462,24.258 L331.462,24.258 L332.12,24.916 C332.381333,24.6173333 332.670667,24.363 332.988,24.153 C333.305333,23.943 333.650667,23.838 334.024,23.838 C334.593333,23.838 335.018,24.0013333 335.298,24.328 C335.578,24.6546667 335.718,25.0746667 335.718,25.588 C335.718,25.952 335.624667,26.3276667 335.438,26.715 C335.251333,27.1023333 334.980667,27.527 334.626,27.989 C334.271333,28.451 333.832667,28.9526667 333.31,29.494 C332.787333,30.0353333 332.19,30.642 331.518,31.314 L331.518,31.314 L331.518,32 L337.286,32 Z M341.584,32 C341.621333,31.132 341.684333,30.341 341.773,29.627 C341.861667,28.913 342.004,28.2363333 342.2,27.597 C342.396,26.9576667 342.659667,26.33 342.991,25.714 C343.322333,25.098 343.754,24.454 344.286,23.782 L344.286,23.782 L344.286,23.068 L338.532,23.068 L338.532,24.062 L342.984,24.062 C342.545333,24.678 342.169667,25.28 341.857,25.868 C341.544333,26.456 341.287667,27.065 341.087,27.695 C340.886333,28.325 340.73,28.99 340.618,29.69 C340.506,30.39 340.431333,31.16 340.394,32 L340.394,32 L341.584,32 Z M348.542,32 C348.579333,31.132 348.642333,30.341 348.731,29.627 C348.819667,28.913 348.962,28.2363333 349.158,27.597 C349.354,26.9576667 349.617667,26.33 349.949,25.714 C350.280333,25.098 350.712,24.454 351.244,23.782 L351.244,23.782 L351.244,23.068 L345.49,23.068 L345.49,24.062 L349.942,24.062 C349.503333,24.678 349.127667,25.28 348.815,25.868 C348.502333,26.456 348.245667,27.065 348.045,27.695 C347.844333,28.325 347.688,28.99 347.576,29.69 C347.464,30.39 347.389333,31.16 347.352,32 L347.352,32 L348.542,32 Z M356.018,32 C356.531333,32 357.002667,31.944 357.432,31.832 C357.861333,31.72 358.23,31.552 358.538,31.328 C358.846,31.104 359.084,30.824 359.252,30.488 C359.42,30.152 359.504,29.76 359.504,29.312 C359.504,28.6773333 359.331333,28.178 358.986,27.814 C358.640667,27.45 358.188,27.2166667 357.628,27.114 L357.628,27.114 L357.628,27.058 C358.066667,26.918 358.400333,26.6636667 358.629,26.295 C358.857667,25.9263333 358.972,25.5133333 358.972,25.056 C358.972,24.6546667 358.895,24.3116667 358.741,24.027 C358.587,23.7423333 358.372333,23.5113333 358.097,23.334 C357.821667,23.1566667 357.490333,23.026 357.103,22.942 C356.715667,22.858 356.288667,22.816 355.822,22.816 L355.822,22.816 L353.092,22.816 L353.092,32 L356.018,32 Z M355.612,26.722 L354.254,26.722 L354.254,23.74 L355.668,23.74 C356.386667,23.74 356.925667,23.852 357.285,24.076 C357.644333,24.3 357.824,24.678 357.824,25.21 C357.824,25.6766667 357.651333,26.0453333 357.306,26.316 C356.960667,26.5866667 356.396,26.722 355.612,26.722 L355.612,26.722 Z M355.85,31.076 L354.254,31.076 L354.254,27.618 L355.85,27.618 C356.662,27.618 357.282667,27.751 357.712,28.017 C358.141333,28.283 358.356,28.7006667 358.356,29.27 C358.356,29.886 358.136667,30.341 357.698,30.635 C357.259333,30.929 356.643333,31.076 355.85,31.076 L355.85,31.076 Z" id="Obligations$277B" fill="#666666" fill-rule="nonzero"></path>
                <path d="M423.592,14.168 C424.124,14.168 424.602333,14.091 425.027,13.937 C425.451667,13.783 425.815667,13.538 426.119,13.202 C426.422333,12.866 426.653333,12.4343333 426.812,11.907 C426.970667,11.3796667 427.05,10.738 427.05,9.982 L427.05,9.982 L427.05,4.844 L425.496,4.844 L425.496,10.108 C425.496,10.6026667 425.449333,11.0203333 425.356,11.361 C425.262667,11.7016667 425.132,11.9746667 424.964,12.18 C424.796,12.3853333 424.595333,12.5323333 424.362,12.621 C424.128667,12.7096667 423.872,12.754 423.592,12.754 C423.312,12.754 423.06,12.7096667 422.836,12.621 C422.612,12.5323333 422.418333,12.3853333 422.255,12.18 C422.091667,11.9746667 421.965667,11.7016667 421.877,11.361 C421.788333,11.0203333 421.744,10.6026667 421.744,10.108 L421.744,10.108 L421.744,4.844 L420.12,4.844 L420.12,9.982 C420.12,10.738 420.201667,11.3796667 420.365,11.907 C420.528333,12.4343333 420.761667,12.866 421.065,13.202 C421.368333,13.538 421.732333,13.783 422.157,13.937 C422.581667,14.091 423.06,14.168 423.592,14.168 Z M430.802,14 L430.802,9.198 C431.091333,8.918 431.350333,8.70566667 431.579,8.561 C431.807667,8.41633333 432.071333,8.344 432.37,8.344 C432.752667,8.344 433.028,8.46066667 433.196,8.694 C433.364,8.92733333 433.448,9.32866667 433.448,9.898 L433.448,9.898 L433.448,14 L435.058,14 L435.058,9.688 C435.058,8.81066667 434.89,8.13633333 434.554,7.665 C434.218,7.19366667 433.681333,6.958 432.944,6.958 C432.468,6.958 432.050333,7.06533333 431.691,7.28 C431.331667,7.49466667 430.998,7.75133333 430.69,8.05 L430.69,8.05 L430.634,8.05 L430.522,7.126 L429.192,7.126 L429.192,14 L430.802,14 Z M439.846,14.168 C440.275333,14.168 440.688333,14.0886667 441.085,13.93 C441.481667,13.7713333 441.829333,13.538 442.128,13.23 C442.426667,12.922 442.667,12.544 442.849,12.096 C443.031,11.648 443.122,11.1393333 443.122,10.57 C443.122,10.0006667 443.031,9.492 442.849,9.044 C442.667,8.596 442.426667,8.218 442.128,7.91 C441.829333,7.602 441.481667,7.36633333 441.085,7.203 C440.688333,7.03966667 440.275333,6.958 439.846,6.958 C439.416667,6.958 439.006,7.03966667 438.614,7.203 C438.222,7.36633333 437.874333,7.602 437.571,7.91 C437.267667,8.218 437.027333,8.596 436.85,9.044 C436.672667,9.492 436.584,10.0006667 436.584,10.57 C436.584,11.1393333 436.672667,11.648 436.85,12.096 C437.027333,12.544 437.267667,12.922 437.571,13.23 C437.874333,13.538 438.222,13.7713333 438.614,13.93 C439.006,14.0886667 439.416667,14.168 439.846,14.168 Z M439.846,12.852 C439.342,12.852 438.947667,12.6443333 438.663,12.229 C438.378333,11.8136667 438.236,11.2606667 438.236,10.57 C438.236,9.87 438.378333,9.31233333 438.663,8.897 C438.947667,8.48166667 439.342,8.274 439.846,8.274 C440.35,8.274 440.746667,8.48166667 441.036,8.897 C441.325333,9.31233333 441.47,9.87 441.47,10.57 C441.47,11.2606667 441.325333,11.8136667 441.036,12.229 C440.746667,12.6443333 440.35,12.852 439.846,12.852 Z M448.05,14.168 C448.432667,14.168 448.801333,14.084 449.156,13.916 C449.510667,13.748 449.823333,13.5053333 450.094,13.188 C450.364667,12.8706667 450.581667,12.481 450.745,12.019 C450.908333,11.557 450.99,11.032 450.99,10.444 C450.99,9.912 450.929333,9.43133333 450.808,9.002 C450.686667,8.57266667 450.509333,8.20633333 450.276,7.903 C450.042667,7.59966667 449.758,7.36633333 449.422,7.203 C449.086,7.03966667 448.703333,6.958 448.274,6.958 C447.919333,6.958 447.571667,7.03733333 447.231,7.196 C446.890333,7.35466667 446.575333,7.56 446.286,7.812 L446.286,7.812 L446.328,6.664 L446.328,4.116 L444.718,4.116 L444.718,14 L445.992,14 L446.132,13.272 L446.174,13.272 C446.463333,13.5613333 446.769,13.783 447.091,13.937 C447.413,14.091 447.732667,14.168 448.05,14.168 Z M447.714,12.838 C447.508667,12.838 447.287,12.796 447.049,12.712 C446.811,12.628 446.570667,12.4786667 446.328,12.264 L446.328,12.264 L446.328,9.058 C446.850667,8.54466667 447.354667,8.288 447.84,8.288 C448.362667,8.288 448.740667,8.47933333 448.974,8.862 C449.207333,9.24466667 449.324,9.78133333 449.324,10.472 C449.324,11.256 449.17,11.8463333 448.862,12.243 C448.554,12.6396667 448.171333,12.838 447.714,12.838 Z M454.168,14.168 C454.522667,14.168 454.807333,14.1213333 455.022,14.028 L455.022,14.028 L454.812,12.824 C454.746667,12.8426667 454.697667,12.852 454.665,12.852 L454.665,12.852 L454.56,12.852 C454.476,12.852 454.396667,12.8123333 454.322,12.733 C454.247333,12.6536667 454.21,12.516 454.21,12.32 L454.21,12.32 L454.21,4.116 L452.6,4.116 L452.6,12.236 C452.6,12.8333333 452.716667,13.3046667 452.95,13.65 C453.183333,13.9953333 453.589333,14.168 454.168,14.168 Z M457.206,5.922 C457.495333,5.922 457.733333,5.838 457.92,5.67 C458.106667,5.502 458.2,5.28266667 458.2,5.012 C458.2,4.74133333 458.106667,4.51966667 457.92,4.347 C457.733333,4.17433333 457.495333,4.088 457.206,4.088 C456.916667,4.088 456.678667,4.17433333 456.492,4.347 C456.305333,4.51966667 456.212,4.74133333 456.212,5.012 C456.212,5.28266667 456.305333,5.502 456.492,5.67 C456.678667,5.838 456.916667,5.922 457.206,5.922 Z M458.004,14 L458.004,7.126 L456.394,7.126 L456.394,14 L458.004,14 Z M462.456,17.038 C463.016,17.038 463.522333,16.975 463.975,16.849 C464.427667,16.723 464.812667,16.5526667 465.13,16.338 C465.447333,16.1233333 465.692333,15.8666667 465.865,15.568 C466.037667,15.2693333 466.124,14.952 466.124,14.616 C466.124,14.0186667 465.911667,13.587 465.487,13.321 C465.062333,13.055 464.434667,12.922 463.604,12.922 L463.604,12.922 L462.386,12.922 C461.966,12.922 461.674333,12.866 461.511,12.754 C461.347667,12.642 461.266,12.488 461.266,12.292 C461.266,12.1333333 461.296333,12.0073333 461.357,11.914 C461.417667,11.8206667 461.499333,11.7273333 461.602,11.634 C461.760667,11.6993333 461.919333,11.746 462.078,11.774 C462.236667,11.802 462.390667,11.816 462.54,11.816 C462.904,11.816 463.244667,11.7646667 463.562,11.662 C463.879333,11.5593333 464.154667,11.41 464.388,11.214 C464.621333,11.018 464.805667,10.7753333 464.941,10.486 C465.076333,10.1966667 465.144,9.86066667 465.144,9.478 C465.144,9.23533333 465.106667,9.01366667 465.032,8.813 C464.957333,8.61233333 464.864,8.44666667 464.752,8.316 L464.752,8.316 L466.012,8.316 L466.012,7.126 L463.548,7.126 C463.408,7.07933333 463.251667,7.03966667 463.079,7.007 C462.906333,6.97433333 462.726667,6.958 462.54,6.958 C462.176,6.958 461.830667,7.01166667 461.504,7.119 C461.177333,7.22633333 460.890333,7.385 460.643,7.595 C460.395667,7.805 460.197333,8.064 460.048,8.372 C459.898667,8.68 459.824,9.03 459.824,9.422 C459.824,9.83266667 459.915,10.1943333 460.097,10.507 C460.279,10.8196667 460.486667,11.0646667 460.72,11.242 L460.72,11.242 L460.72,11.298 C460.524,11.438 460.349,11.6176667 460.195,11.837 C460.041,12.0563333 459.964,12.3013333 459.964,12.572 C459.964,12.852 460.022333,13.0853333 460.139,13.272 C460.255667,13.4586667 460.402667,13.608 460.58,13.72 L460.58,13.72 L460.58,13.776 C460.262667,13.972 460.02,14.1936667 459.852,14.441 C459.684,14.6883333 459.6,14.9566667 459.6,15.246 C459.6,15.5446667 459.672333,15.806 459.817,16.03 C459.961667,16.254 460.16,16.4406667 460.412,16.59 C460.664,16.7393333 460.965,16.8513333 461.315,16.926 C461.665,17.0006667 462.045333,17.038 462.456,17.038 Z M462.54,10.808 C462.204,10.808 461.919333,10.689 461.686,10.451 C461.452667,10.213 461.336,9.87 461.336,9.422 C461.336,8.98333333 461.452667,8.64733333 461.686,8.414 C461.919333,8.18066667 462.204,8.064 462.54,8.064 C462.876,8.064 463.158333,8.183 463.387,8.421 C463.615667,8.659 463.73,8.99266667 463.73,9.422 C463.73,9.87 463.613333,10.213 463.38,10.451 C463.146667,10.689 462.866667,10.808 462.54,10.808 Z M462.708,15.988 C462.157333,15.988 461.725667,15.9016667 461.413,15.729 C461.100333,15.5563333 460.944,15.316 460.944,15.008 C460.944,14.672 461.121333,14.3686667 461.476,14.098 C461.728,14.1633333 462.040667,14.196 462.414,14.196 L462.414,14.196 L463.352,14.196 C463.744,14.196 464.045,14.2426667 464.255,14.336 C464.465,14.4293333 464.57,14.6113333 464.57,14.882 C464.57,15.1806667 464.399667,15.4396667 464.059,15.659 C463.718333,15.8783333 463.268,15.988 462.708,15.988 Z M468.756,14.168 C469.166667,14.168 469.547,14.0793333 469.897,13.902 C470.247,13.7246667 470.576,13.5053333 470.884,13.244 L470.884,13.244 L470.94,13.244 L471.052,14 L472.382,14 L472.382,9.926 C472.382,8.96466667 472.169667,8.22966667 471.745,7.721 C471.320333,7.21233333 470.678667,6.958 469.82,6.958 C469.269333,6.958 468.756,7.04666667 468.28,7.224 C467.804,7.40133333 467.374667,7.61133333 466.992,7.854 L466.992,7.854 L467.58,8.932 C467.888,8.74533333 468.203,8.58666667 468.525,8.456 C468.847,8.32533333 469.176,8.26 469.512,8.26 C469.745333,8.26 469.941333,8.295 470.1,8.365 C470.258667,8.435 470.387,8.533 470.485,8.659 C470.583,8.785 470.653,8.92966667 470.695,9.093 C470.737,9.25633333 470.762667,9.42666667 470.772,9.604 C470.062667,9.67866667 469.453667,9.786 468.945,9.926 C468.436333,10.066 468.016333,10.2386667 467.685,10.444 C467.353667,10.6493333 467.111,10.8943333 466.957,11.179 C466.803,11.4636667 466.726,11.788 466.726,12.152 C466.726,12.7586667 466.912667,13.2463333 467.286,13.615 C467.659333,13.9836667 468.149333,14.168 468.756,14.168 Z M469.274,12.908 C468.984667,12.908 468.746667,12.838 468.56,12.698 C468.373333,12.558 468.28,12.334 468.28,12.026 C468.28,11.858 468.322,11.6993333 468.406,11.55 C468.49,11.4006667 468.63,11.2676667 468.826,11.151 C469.022,11.0343333 469.278667,10.9293333 469.596,10.836 C469.913333,10.7426667 470.305333,10.668 470.772,10.612 L470.772,10.612 L470.772,12.152 C470.510667,12.3946667 470.265667,12.5813333 470.037,12.712 C469.808333,12.8426667 469.554,12.908 469.274,12.908 Z M476.512,14.168 C476.782667,14.168 477.037,14.1423333 477.275,14.091 C477.513,14.0396667 477.725333,13.9813333 477.912,13.916 L477.912,13.916 L477.632,12.726 C477.529333,12.7726667 477.415,12.81 477.289,12.838 C477.163,12.866 477.039333,12.88 476.918,12.88 C476.274,12.88 475.952,12.4786667 475.952,11.676 L475.952,11.676 L475.952,8.4 L477.702,8.4 L477.702,7.126 L475.952,7.126 L475.952,5.25 L474.608,5.25 L474.412,7.126 L473.348,7.196 L473.348,8.4 L474.328,8.4 L474.328,11.676 C474.328,12.0493333 474.367667,12.3876667 474.447,12.691 C474.526333,12.9943333 474.652333,13.2556667 474.825,13.475 C474.997667,13.6943333 475.221667,13.8646667 475.497,13.986 C475.772333,14.1073333 476.110667,14.168 476.512,14.168 Z M481.86,14.168 C482.298667,14.168 482.718667,14.098 483.12,13.958 C483.521333,13.818 483.885333,13.6406667 484.212,13.426 L484.212,13.426 L483.666,12.418 C483.414,12.5766667 483.159667,12.7003333 482.903,12.789 C482.646333,12.8776667 482.368667,12.922 482.07,12.922 C481.51,12.922 481.050333,12.7563333 480.691,12.425 C480.331667,12.0936667 480.114667,11.62 480.04,11.004 L480.04,11.004 L484.408,11.004 C484.426667,10.92 484.443,10.808 484.457,10.668 C484.471,10.528 484.478,10.3786667 484.478,10.22 C484.478,9.744 484.417333,9.30533333 484.296,8.904 C484.174667,8.50266667 483.995,8.15733333 483.757,7.868 C483.519,7.57866667 483.222667,7.35466667 482.868,7.196 C482.513333,7.03733333 482.102667,6.958 481.636,6.958 C481.234667,6.958 480.842667,7.042 480.46,7.21 C480.077333,7.378 479.739,7.616 479.445,7.924 C479.151,8.232 478.915333,8.61 478.738,9.058 C478.560667,9.506 478.472,10.01 478.472,10.57 C478.472,11.1393333 478.558333,11.6456667 478.731,12.089 C478.903667,12.5323333 479.144,12.908 479.452,13.216 C479.76,13.524 480.119333,13.7596667 480.53,13.923 C480.940667,14.0863333 481.384,14.168 481.86,14.168 Z M483.078,9.912 L480.026,9.912 C480.100667,9.352 480.292,8.92733333 480.6,8.638 C480.908,8.34866667 481.267333,8.204 481.678,8.204 C482.154,8.204 482.506333,8.35566667 482.735,8.659 C482.963667,8.96233333 483.078,9.38 483.078,9.912 L483.078,9.912 Z M488.426,14.168 C488.799333,14.168 489.154,14.0793333 489.49,13.902 C489.826,13.7246667 490.12,13.51 490.372,13.258 L490.372,13.258 L490.428,13.258 L490.54,14 L491.87,14 L491.87,4.116 L490.26,4.116 L490.26,6.608 L490.316,7.714 C490.045333,7.48066667 489.774667,7.29633333 489.504,7.161 C489.233333,7.02566667 488.902,6.958 488.51,6.958 C488.136667,6.958 487.775,7.042 487.425,7.21 C487.075,7.378 486.764667,7.616 486.494,7.924 C486.223333,8.232 486.006333,8.61 485.843,9.058 C485.679667,9.506 485.598,10.01 485.598,10.57 C485.598,11.7086667 485.852333,12.593 486.361,13.223 C486.869667,13.853 487.558,14.168 488.426,14.168 Z M488.818,12.838 C488.314,12.838 487.929,12.6443333 487.663,12.257 C487.397,11.8696667 487.264,11.3026667 487.264,10.556 C487.264,9.828 487.418,9.268 487.726,8.876 C488.034,8.484 488.412,8.288 488.86,8.288 C489.093333,8.288 489.324333,8.33 489.553,8.414 C489.781667,8.498 490.017333,8.64733333 490.26,8.862 L490.26,8.862 L490.26,12.068 C489.812,12.5813333 489.331333,12.838 488.818,12.838 Z M422.948,33.54 L422.948,32.126 C423.62,32.0326667 424.149667,31.7713333 424.537,31.342 C424.924333,30.9126667 425.118,30.362 425.118,29.69 C425.118,29.186 425.022333,28.773 424.831,28.451 C424.639667,28.129 424.399333,27.8583333 424.11,27.639 C423.820667,27.4196667 423.505667,27.233 423.165,27.079 C422.824333,26.925 422.509333,26.7663333 422.22,26.603 C421.930667,26.4396667 421.690333,26.2506667 421.499,26.036 C421.307667,25.8213333 421.212,25.546 421.212,25.21 C421.212,24.7993333 421.338,24.4726667 421.59,24.23 C421.842,23.9873333 422.182667,23.866 422.612,23.866 C422.994667,23.866 423.309667,23.936 423.557,24.076 C423.804333,24.216 424.058667,24.412 424.32,24.664 L424.32,24.664 L424.936,23.978 C424.684,23.7073333 424.401667,23.474 424.089,23.278 C423.776333,23.082 423.396,22.9606667 422.948,22.914 L422.948,22.914 L422.948,21.528 L422.108,21.528 L422.108,22.942 C421.492,23.0353333 420.999667,23.2896667 420.631,23.705 C420.262333,24.1203333 420.078,24.6406667 420.078,25.266 C420.078,25.7233333 420.173667,26.099 420.365,26.393 C420.556333,26.687 420.796667,26.9366667 421.086,27.142 C421.375333,27.3473333 421.690333,27.5293333 422.031,27.688 C422.371667,27.8466667 422.686667,28.017 422.976,28.199 C423.265333,28.381 423.505667,28.5956667 423.697,28.843 C423.888333,29.0903333 423.984,29.4006667 423.984,29.774 C423.984,30.2126667 423.855667,30.5626667 423.599,30.824 C423.342333,31.0853333 422.952667,31.216 422.43,31.216 C422.000667,31.216 421.606333,31.125 421.247,30.943 C420.887667,30.761 420.558667,30.5393333 420.26,30.278 L420.26,30.278 L419.728,31.076 C420.026667,31.3466667 420.386,31.5823333 420.806,31.783 C421.226,31.9836667 421.66,32.1073333 422.108,32.154 L422.108,32.154 L422.108,33.54 L422.948,33.54 Z M428.828,32.168 C429.276,32.168 429.703,32.077 430.109,31.895 C430.515,31.713 430.876667,31.4236667 431.194,31.027 C431.511333,30.6303333 431.763333,30.117 431.95,29.487 C432.136667,28.857 432.23,28.094 432.23,27.198 C432.23,26.4793333 432.153,25.8516667 431.999,25.315 C431.845,24.7783333 431.630333,24.3303333 431.355,23.971 C431.079667,23.6116667 430.753,23.3433333 430.375,23.166 C429.997,22.9886667 429.588667,22.9 429.15,22.9 C428.795333,22.9 428.457,22.97 428.135,23.11 C427.813,23.25 427.533,23.446 427.295,23.698 C427.057,23.95 426.868,24.251 426.728,24.601 C426.588,24.951 426.518,25.3406667 426.518,25.77 C426.518,26.694 426.746667,27.3846667 427.204,27.842 C427.661333,28.2993333 428.277333,28.528 429.052,28.528 C429.425333,28.528 429.798667,28.4253333 430.172,28.22 C430.545333,28.0146667 430.872,27.7346667 431.152,27.38 C431.142667,28.0986667 431.072667,28.7006667 430.942,29.186 C430.811333,29.6713333 430.638667,30.0656667 430.424,30.369 C430.209333,30.6723333 429.962,30.8893333 429.682,31.02 C429.402,31.1506667 429.103333,31.216 428.786,31.216 C428.506,31.216 428.237667,31.1506667 427.981,31.02 C427.724333,30.8893333 427.502667,30.7166667 427.316,30.502 L427.316,30.502 L426.672,31.23 C426.914667,31.5006667 427.215667,31.7246667 427.575,31.902 C427.934333,32.0793333 428.352,32.168 428.828,32.168 Z M429.248,27.66 C428.688,27.66 428.272667,27.492 428.002,27.156 C427.731333,26.82 427.596,26.358 427.596,25.77 C427.596,25.4806667 427.635667,25.2146667 427.715,24.972 C427.794333,24.7293333 427.904,24.5216667 428.044,24.349 C428.184,24.1763333 428.349667,24.0433333 428.541,23.95 C428.732333,23.8566667 428.935333,23.81 429.15,23.81 C429.719333,23.81 430.172,24.034 430.508,24.482 C430.844,24.93 431.049333,25.5926667 431.124,26.47 C430.834667,26.89 430.524333,27.1933333 430.193,27.38 C429.861667,27.5666667 429.546667,27.66 429.248,27.66 Z M438.264,32 L438.264,29.536 L439.482,29.536 L439.482,28.612 L438.264,28.612 L438.264,23.068 L436.976,23.068 L433.154,28.78 L433.154,29.536 L437.172,29.536 L437.172,32 L438.264,32 Z M437.172,28.612 L434.372,28.612 L436.458,25.56 C436.588667,25.3453333 436.714667,25.1353333 436.836,24.93 C436.957333,24.7246667 437.074,24.5146667 437.186,24.3 L437.186,24.3 L437.242,24.3 C437.223333,24.5426667 437.207,24.8296667 437.193,25.161 C437.179,25.4923333 437.172,25.7793333 437.172,26.022 L437.172,26.022 L437.172,28.612 Z M444.06,32 C444.573333,32 445.044667,31.944 445.474,31.832 C445.903333,31.72 446.272,31.552 446.58,31.328 C446.888,31.104 447.126,30.824 447.294,30.488 C447.462,30.152 447.546,29.76 447.546,29.312 C447.546,28.6773333 447.373333,28.178 447.028,27.814 C446.682667,27.45 446.23,27.2166667 445.67,27.114 L445.67,27.114 L445.67,27.058 C446.108667,26.918 446.442333,26.6636667 446.671,26.295 C446.899667,25.9263333 447.014,25.5133333 447.014,25.056 C447.014,24.6546667 446.937,24.3116667 446.783,24.027 C446.629,23.7423333 446.414333,23.5113333 446.139,23.334 C445.863667,23.1566667 445.532333,23.026 445.145,22.942 C444.757667,22.858 444.330667,22.816 443.864,22.816 L443.864,22.816 L441.134,22.816 L441.134,32 L444.06,32 Z M443.654,26.722 L442.296,26.722 L442.296,23.74 L443.71,23.74 C444.428667,23.74 444.967667,23.852 445.327,24.076 C445.686333,24.3 445.866,24.678 445.866,25.21 C445.866,25.6766667 445.693333,26.0453333 445.348,26.316 C445.002667,26.5866667 444.438,26.722 443.654,26.722 L443.654,26.722 Z M443.892,31.076 L442.296,31.076 L442.296,27.618 L443.892,27.618 C444.704,27.618 445.324667,27.751 445.754,28.017 C446.183333,28.283 446.398,28.7006667 446.398,29.27 C446.398,29.886 446.178667,30.341 445.74,30.635 C445.301333,30.929 444.685333,31.076 443.892,31.076 L443.892,31.076 Z" id="Unobligated$94B" fill="#666666" fill-rule="nonzero"></path>
                <path d="M232,8 L226,8 C224.895431,8 224,8.8954305 224,10 L224,26 C224,27.1045695 224.895431,28 226,28 L232,28 L232,28" id="Line-2" stroke="#C6C6C6" stroke-linecap="round"></path>
                <line x1="223.5" y1="18.5" x2="183.5" y2="18.5" id="Line-4" stroke="#C6C6C6" stroke-linecap="round"></line>
                <rect id="unobligated" fill="#F3E9FF" x="0" y="3" width="122" height="30"></rect>
                <rect id="obligated" fill="#6F41A7" x="89" y="3" width="2" height="30"></rect>
                <rect id="outlays" fill="#331E4D" x="0" y="3" width="89" height="30"></rect>
                <path d="M136.368,24.54 L136.368,23.084 C137.096,22.9253333 137.642,22.6056667 138.006,22.125 C138.37,21.6443333 138.552,21.068 138.552,20.396 C138.552,19.948 138.461,19.5723333 138.279,19.269 C138.097,18.9656667 137.868333,18.7066667 137.593,18.492 C137.317667,18.2773333 137.021333,18.0953333 136.704,17.946 C136.386667,17.7966667 136.090333,17.652 135.815,17.512 C135.539667,17.372 135.311,17.225 135.129,17.071 C134.947,16.917 134.856,16.728 134.856,16.504 C134.856,16.1866667 134.944667,15.958 135.122,15.818 C135.299333,15.678 135.556,15.608 135.892,15.608 C136.190667,15.608 136.456667,15.6663333 136.69,15.783 C136.923333,15.8996667 137.166,16.0746667 137.418,16.308 L137.418,16.308 L138.454,15.132 C138.183333,14.8426667 137.88,14.5953333 137.544,14.39 C137.208,14.1846667 136.816,14.0493333 136.368,13.984 L136.368,13.984 L136.368,12.57 L135.01,12.57 L135.01,14.012 C134.347333,14.1426667 133.827,14.4343333 133.449,14.887 C133.071,15.3396667 132.882,15.9113333 132.882,16.602 C132.882,17.022 132.973,17.3766667 133.155,17.666 C133.337,17.9553333 133.565667,18.2073333 133.841,18.422 C134.116333,18.6366667 134.412667,18.821 134.73,18.975 C135.047333,19.129 135.343667,19.283 135.619,19.437 C135.894333,19.591 136.123,19.752 136.305,19.92 C136.487,20.088 136.578,20.2933333 136.578,20.536 C136.578,20.8626667 136.487,21.1053333 136.305,21.264 C136.123,21.4226667 135.836,21.502 135.444,21.502 C135.108,21.502 134.779,21.4343333 134.457,21.299 C134.135,21.1636667 133.796667,20.9606667 133.442,20.69 L133.442,20.69 L132.546,22.076 C132.872667,22.3746667 133.262333,22.615 133.715,22.797 C134.167667,22.979 134.599333,23.0933333 135.01,23.14 L135.01,23.14 L135.01,24.54 L136.368,24.54 Z M142.794,23.168 C143.242,23.168 143.666667,23.1096667 144.068,22.993 C144.469333,22.8763333 144.819333,22.7083333 145.118,22.489 C145.416667,22.2696667 145.654667,21.999 145.832,21.677 C146.009333,21.355 146.098,20.9886667 146.098,20.578 C146.098,19.9993333 145.932333,19.5303333 145.601,19.171 C145.269667,18.8116667 144.847333,18.5573333 144.334,18.408 L144.334,18.408 L144.334,18.352 C144.81,18.1466667 145.176333,17.883 145.433,17.561 C145.689667,17.239 145.818,16.8446667 145.818,16.378 C145.818,15.986 145.743333,15.6406667 145.594,15.342 C145.444667,15.0433333 145.237,14.789 144.971,14.579 C144.705,14.369 144.383,14.2103333 144.005,14.103 C143.627,13.9956667 143.209333,13.942 142.752,13.942 C142.201333,13.942 141.699667,14.0423333 141.247,14.243 C140.794333,14.4436667 140.362667,14.7213333 139.952,15.076 L139.952,15.076 L140.988,16.336 C141.268,16.0933333 141.536333,15.902 141.793,15.762 C142.049667,15.622 142.336667,15.552 142.654,15.552 C143.008667,15.552 143.279333,15.6383333 143.466,15.811 C143.652667,15.9836667 143.746,16.224 143.746,16.532 C143.746,16.7093333 143.711,16.8703333 143.641,17.015 C143.571,17.1596667 143.454333,17.2856667 143.291,17.393 C143.127667,17.5003333 142.913,17.582 142.647,17.638 C142.381,17.694 142.047333,17.722 141.646,17.722 L141.646,17.722 L141.646,19.178 C142.131333,19.178 142.528,19.2083333 142.836,19.269 C143.144,19.3296667 143.386667,19.4136667 143.564,19.521 C143.741333,19.6283333 143.865,19.7613333 143.935,19.92 C144.005,20.0786667 144.04,20.256 144.04,20.452 C144.04,20.788 143.909333,21.047 143.648,21.229 C143.386667,21.411 143.036667,21.502 142.598,21.502 C142.215333,21.502 141.863,21.418 141.541,21.25 C141.219,21.082 140.922667,20.8673333 140.652,20.606 L140.652,20.606 L139.7,21.908 C140.026667,22.2906667 140.442,22.5963333 140.946,22.825 C141.45,23.0536667 142.066,23.168 142.794,23.168 Z M151.082,23 C151.119333,22.132 151.175333,21.3643333 151.25,20.697 C151.324667,20.0296667 151.448333,19.4043333 151.621,18.821 C151.793667,18.2376667 152.036333,17.673 152.349,17.127 C152.661667,16.581 153.074667,15.9953333 153.588,15.37 L153.588,15.37 L153.588,14.11 L147.4,14.11 L147.4,15.846 L151.39,15.846 C150.97,16.4246667 150.617667,16.9846667 150.333,17.526 C150.048333,18.0673333 149.815,18.6203333 149.633,19.185 C149.451,19.7496667 149.311,20.3423333 149.213,20.963 C149.115,21.5836667 149.047333,22.2626667 149.01,23 L149.01,23 L151.082,23 Z M160.812,23 L160.812,21.334 L159.146,21.334 L159.146,14.11 L157.634,14.11 C157.316667,14.2966667 156.99,14.4553333 156.654,14.586 C156.318,14.7166667 155.907333,14.8286667 155.422,14.922 L155.422,14.922 L155.422,16.196 L157.088,16.196 L157.088,21.334 L155.156,21.334 L155.156,23 L160.812,23 Z M166.034,23 C166.528667,23 166.990667,22.9463333 167.42,22.839 C167.849333,22.7316667 168.225,22.5683333 168.547,22.349 C168.869,22.1296667 169.121,21.852 169.303,21.516 C169.485,21.18 169.576,20.7786667 169.576,20.312 C169.576,20.004 169.534,19.731 169.45,19.493 C169.366,19.255 169.249333,19.0473333 169.1,18.87 C168.950667,18.6926667 168.778,18.5456667 168.582,18.429 C168.386,18.3123333 168.171333,18.226 167.938,18.17 L167.938,18.17 L167.938,18.114 C168.124667,18.0486667 168.290333,17.946 168.435,17.806 C168.579667,17.666 168.703333,17.5073333 168.806,17.33 C168.908667,17.1526667 168.988,16.9613333 169.044,16.756 C169.1,16.5506667 169.128,16.3453333 169.128,16.14 C169.128,15.7013333 169.041667,15.3373333 168.869,15.048 C168.696333,14.7586667 168.458333,14.5253333 168.155,14.348 C167.851667,14.1706667 167.497,14.047 167.091,13.977 C166.685,13.907 166.244,13.872 165.768,13.872 L165.768,13.872 L162.646,13.872 L162.646,23 L166.034,23 Z M165.67,17.526 L164.704,17.526 L164.704,15.468 L165.684,15.468 C166.169333,15.468 166.528667,15.5426667 166.762,15.692 C166.995333,15.8413333 167.112,16.0933333 167.112,16.448 C167.112,16.7746667 166.997667,17.036 166.769,17.232 C166.540333,17.428 166.174,17.526 165.67,17.526 L165.67,17.526 Z M165.866,21.404 L164.704,21.404 L164.704,19.052 L165.866,19.052 C166.435333,19.052 166.86,19.1383333 167.14,19.311 C167.42,19.4836667 167.56,19.7706667 167.56,20.172 C167.56,20.9933333 166.995333,21.404 165.866,21.404 L165.866,21.404 Z" id="$371B" fill="#555555" fill-rule="nonzero"></path>
            </g>
        </g>
    </g>
</svg>