<?xml version="1.0" encoding="UTF-8"?>
<svg width="479px" height="36px" viewBox="0 0 479 36" version="1.1" xmlns="http://www.w3.org/2000/svg" xmlns:xlink="http://www.w3.org/1999/xlink">
    <title>09. phase 3.5 loan</title>
    <g id="Viz-3-(v2)" stroke="none" stroke-width="1" fill="none" fill-rule="evenodd">
        <g id="Viz-3---SVG-Export-Outline" transform="translate(-279.000000, -1790.000000)">
            <g id="09.-phase-3.5-loan" transform="translate(279.000000, 1790.000000)">
                <path d="M242.718,14.168 C243.315333,14.168 243.861333,14.0583333 244.356,13.839 C244.850667,13.6196667 245.277667,13.3023333 245.637,12.887 C245.996333,12.4716667 246.274,11.97 246.47,11.382 C246.666,10.794 246.764,10.1266667 246.764,9.38 C246.764,8.64266667 246.666,7.98233333 246.47,7.399 C246.274,6.81566667 245.996333,6.32333333 245.637,5.922 C245.277667,5.52066667 244.850667,5.21266667 244.356,4.998 C243.861333,4.78333333 243.315333,4.676 242.718,4.676 C242.120667,4.676 241.574667,4.78333333 241.08,4.998 C240.585333,5.21266667 240.160667,5.52066667 239.806,5.922 C239.451333,6.32333333 239.176,6.81566667 238.98,7.399 C238.784,7.98233333 238.686,8.64266667 238.686,9.38 C238.686,10.1266667 238.784,10.794 238.98,11.382 C239.176,11.97 239.451333,12.4716667 239.806,12.887 C240.160667,13.3023333 240.585333,13.6196667 241.08,13.839 C241.574667,14.0583333 242.120667,14.168 242.718,14.168 Z M242.718,12.754 C242.354,12.754 242.027333,12.6746667 241.738,12.516 C241.448667,12.3573333 241.201333,12.131 240.996,11.837 C240.790667,11.543 240.632,11.1883333 240.52,10.773 C240.408,10.3576667 240.352,9.89333333 240.352,9.38 C240.352,8.35333333 240.564333,7.54833333 240.989,6.965 C241.413667,6.38166667 241.99,6.09 242.718,6.09 C243.446,6.09 244.022333,6.38166667 244.447,6.965 C244.871667,7.54833333 245.084,8.35333333 245.084,9.38 C245.084,9.89333333 245.028,10.3576667 244.916,10.773 C244.804,11.1883333 244.645333,11.543 244.44,11.837 C244.234667,12.131 243.987333,12.3573333 243.698,12.516 C243.408667,12.6746667 243.082,12.754 242.718,12.754 Z M250.502,14.168 C250.978,14.168 251.391,14.0606667 251.741,13.846 C252.091,13.6313333 252.415333,13.3466667 252.714,12.992 L252.714,12.992 L252.756,12.992 L252.882,14 L254.198,14 L254.198,7.126 L252.588,7.126 L252.588,11.83 C252.326667,12.166 252.081667,12.4086667 251.853,12.558 C251.624333,12.7073333 251.360667,12.782 251.062,12.782 C250.688667,12.782 250.418,12.6653333 250.25,12.432 C250.082,12.1986667 249.998,11.7973333 249.998,11.228 L249.998,11.228 L249.998,7.126 L248.388,7.126 L248.388,11.438 C248.388,12.3153333 248.556,12.9896667 248.892,13.461 C249.228,13.9323333 249.764667,14.168 250.502,14.168 Z M258.664,14.168 C258.934667,14.168 259.189,14.1423333 259.427,14.091 C259.665,14.0396667 259.877333,13.9813333 260.064,13.916 L260.064,13.916 L259.784,12.726 C259.681333,12.7726667 259.567,12.81 259.441,12.838 C259.315,12.866 259.191333,12.88 259.07,12.88 C258.426,12.88 258.104,12.4786667 258.104,11.676 L258.104,11.676 L258.104,8.4 L259.854,8.4 L259.854,7.126 L258.104,7.126 L258.104,5.25 L256.76,5.25 L256.564,7.126 L255.5,7.196 L255.5,8.4 L256.48,8.4 L256.48,11.676 C256.48,12.0493333 256.519667,12.3876667 256.599,12.691 C256.678333,12.9943333 256.804333,13.2556667 256.977,13.475 C257.149667,13.6943333 257.373667,13.8646667 257.649,13.986 C257.924333,14.1073333 258.262667,14.168 258.664,14.168 Z M262.864,14.168 C263.218667,14.168 263.503333,14.1213333 263.718,14.028 L263.718,14.028 L263.508,12.824 C263.442667,12.8426667 263.393667,12.852 263.361,12.852 L263.361,12.852 L263.256,12.852 C263.172,12.852 263.092667,12.8123333 263.018,12.733 C262.943333,12.6536667 262.906,12.516 262.906,12.32 L262.906,12.32 L262.906,4.116 L261.296,4.116 L261.296,12.236 C261.296,12.8333333 261.412667,13.3046667 261.646,13.65 C261.879333,13.9953333 262.285333,14.168 262.864,14.168 Z M266.756,14.168 C267.166667,14.168 267.547,14.0793333 267.897,13.902 C268.247,13.7246667 268.576,13.5053333 268.884,13.244 L268.884,13.244 L268.94,13.244 L269.052,14 L270.382,14 L270.382,9.926 C270.382,8.96466667 270.169667,8.22966667 269.745,7.721 C269.320333,7.21233333 268.678667,6.958 267.82,6.958 C267.269333,6.958 266.756,7.04666667 266.28,7.224 C265.804,7.40133333 265.374667,7.61133333 264.992,7.854 L264.992,7.854 L265.58,8.932 C265.888,8.74533333 266.203,8.58666667 266.525,8.456 C266.847,8.32533333 267.176,8.26 267.512,8.26 C267.745333,8.26 267.941333,8.295 268.1,8.365 C268.258667,8.435 268.387,8.533 268.485,8.659 C268.583,8.785 268.653,8.92966667 268.695,9.093 C268.737,9.25633333 268.762667,9.42666667 268.772,9.604 C268.062667,9.67866667 267.453667,9.786 266.945,9.926 C266.436333,10.066 266.016333,10.2386667 265.685,10.444 C265.353667,10.6493333 265.111,10.8943333 264.957,11.179 C264.803,11.4636667 264.726,11.788 264.726,12.152 C264.726,12.7586667 264.912667,13.2463333 265.286,13.615 C265.659333,13.9836667 266.149333,14.168 266.756,14.168 Z M267.274,12.908 C266.984667,12.908 266.746667,12.838 266.56,12.698 C266.373333,12.558 266.28,12.334 266.28,12.026 C266.28,11.858 266.322,11.6993333 266.406,11.55 C266.49,11.4006667 266.63,11.2676667 266.826,11.151 C267.022,11.0343333 267.278667,10.9293333 267.596,10.836 C267.913333,10.7426667 268.305333,10.668 268.772,10.612 L268.772,10.612 L268.772,12.152 C268.510667,12.3946667 268.265667,12.5813333 268.037,12.712 C267.808333,12.8426667 267.554,12.908 267.274,12.908 Z M272.776,16.828 C273.149333,16.828 273.478333,16.7696667 273.763,16.653 C274.047667,16.5363333 274.299667,16.3683333 274.519,16.149 C274.738333,15.9296667 274.932,15.666 275.1,15.358 C275.268,15.05 275.422,14.7 275.562,14.308 L275.562,14.308 L278.054,7.126 L276.5,7.126 L275.464,10.5 C275.38,10.808 275.293667,11.1276667 275.205,11.459 C275.116333,11.7903333 275.03,12.1146667 274.946,12.432 L274.946,12.432 L274.89,12.432 C274.787333,12.1053333 274.687,11.7763333 274.589,11.445 C274.491,11.1136667 274.390667,10.7986667 274.288,10.5 L274.288,10.5 L273.098,7.126 L271.46,7.126 L274.162,13.916 L274.036,14.35 C273.924,14.6953333 273.758333,14.9776667 273.539,15.197 C273.319667,15.4163333 273.028,15.526 272.664,15.526 C272.58,15.526 272.493667,15.5143333 272.405,15.491 C272.316333,15.4676667 272.239333,15.4466667 272.174,15.428 L272.174,15.428 L271.88,16.688 C272.010667,16.7346667 272.146,16.7696667 272.286,16.793 C272.426,16.8163333 272.589333,16.828 272.776,16.828 Z M281.162,14.168 C281.591333,14.168 281.974,14.112 282.31,14 C282.646,13.888 282.926,13.7363333 283.15,13.545 C283.374,13.3536667 283.544333,13.1296667 283.661,12.873 C283.777667,12.6163333 283.836,12.3386667 283.836,12.04 C283.836,11.7226667 283.777667,11.4496667 283.661,11.221 C283.544333,10.9923333 283.390333,10.7986667 283.199,10.64 C283.007667,10.4813333 282.795333,10.3483333 282.562,10.241 C282.328667,10.1336667 282.095333,10.038 281.862,9.954 C281.675333,9.88866667 281.495667,9.82333333 281.323,9.758 C281.150333,9.69266667 280.998667,9.62266667 280.868,9.548 C280.737333,9.47333333 280.632333,9.387 280.553,9.289 C280.473667,9.191 280.434,9.072 280.434,8.932 C280.434,8.71733333 280.515667,8.53766667 280.679,8.393 C280.842333,8.24833333 281.096667,8.176 281.442,8.176 C281.712667,8.176 281.971667,8.22966667 282.219,8.337 C282.466333,8.44433333 282.711333,8.58666667 282.954,8.764 L282.954,8.764 L283.696,7.784 C283.416,7.56933333 283.084667,7.378 282.702,7.21 C282.319333,7.042 281.89,6.958 281.414,6.958 C280.639333,6.958 280.028,7.14933333 279.58,7.532 C279.132,7.91466667 278.908,8.40933333 278.908,9.016 C278.908,9.30533333 278.966333,9.555 279.083,9.765 C279.199667,9.975 279.349,10.1593333 279.531,10.318 C279.713,10.4766667 279.920667,10.612 280.154,10.724 C280.387333,10.836 280.616,10.934 280.84,11.018 C281.017333,11.0926667 281.194667,11.165 281.372,11.235 C281.549333,11.305 281.708,11.382 281.848,11.466 C281.988,11.55 282.1,11.6456667 282.184,11.753 C282.268,11.8603333 282.31,11.984 282.31,12.124 C282.31,12.3666667 282.221333,12.565 282.044,12.719 C281.866667,12.873 281.591333,12.95 281.218,12.95 C280.863333,12.95 280.534333,12.8823333 280.231,12.747 C279.927667,12.6116667 279.622,12.4226667 279.314,12.18 L279.314,12.18 L278.558,13.216 C278.894,13.4866667 279.293,13.713 279.755,13.895 C280.217,14.077 280.686,14.168 281.162,14.168 Z M241.948,33.54 L241.948,32.126 C242.62,32.0326667 243.149667,31.7713333 243.537,31.342 C243.924333,30.9126667 244.118,30.362 244.118,29.69 C244.118,29.186 244.022333,28.773 243.831,28.451 C243.639667,28.129 243.399333,27.8583333 243.11,27.639 C242.820667,27.4196667 242.505667,27.233 242.165,27.079 C241.824333,26.925 241.509333,26.7663333 241.22,26.603 C240.930667,26.4396667 240.690333,26.2506667 240.499,26.036 C240.307667,25.8213333 240.212,25.546 240.212,25.21 C240.212,24.7993333 240.338,24.4726667 240.59,24.23 C240.842,23.9873333 241.182667,23.866 241.612,23.866 C241.994667,23.866 242.309667,23.936 242.557,24.076 C242.804333,24.216 243.058667,24.412 243.32,24.664 L243.32,24.664 L243.936,23.978 C243.684,23.7073333 243.401667,23.474 243.089,23.278 C242.776333,23.082 242.396,22.9606667 241.948,22.914 L241.948,22.914 L241.948,21.528 L241.108,21.528 L241.108,22.942 C240.492,23.0353333 239.999667,23.2896667 239.631,23.705 C239.262333,24.1203333 239.078,24.6406667 239.078,25.266 C239.078,25.7233333 239.173667,26.099 239.365,26.393 C239.556333,26.687 239.796667,26.9366667 240.086,27.142 C240.375333,27.3473333 240.690333,27.5293333 241.031,27.688 C241.371667,27.8466667 241.686667,28.017 241.976,28.199 C242.265333,28.381 242.505667,28.5956667 242.697,28.843 C242.888333,29.0903333 242.984,29.4006667 242.984,29.774 C242.984,30.2126667 242.855667,30.5626667 242.599,30.824 C242.342333,31.0853333 241.952667,31.216 241.43,31.216 C241.000667,31.216 240.606333,31.125 240.247,30.943 C239.887667,30.761 239.558667,30.5393333 239.26,30.278 L239.26,30.278 L238.728,31.076 C239.026667,31.3466667 239.386,31.5823333 239.806,31.783 C240.226,31.9836667 240.66,32.1073333 241.108,32.154 L241.108,32.154 L241.108,33.54 L241.948,33.54 Z M251.286,32 L251.286,31.006 L248.696,31.006 C248.462667,31.006 248.215333,31.0153333 247.954,31.034 C247.692667,31.0526667 247.440667,31.0713333 247.198,31.09 C247.73,30.5393333 248.217667,30.019 248.661,29.529 C249.104333,29.039 249.487,28.5676667 249.809,28.115 C250.131,27.6623333 250.383,27.2236667 250.565,26.799 C250.747,26.3743333 250.838,25.952 250.838,25.532 C250.838,24.7386667 250.6,24.1016667 250.124,23.621 C249.648,23.1403333 248.994667,22.9 248.164,22.9 C247.576,22.9 247.072,23.0236667 246.652,23.271 C246.232,23.5183333 245.835333,23.8473333 245.462,24.258 L245.462,24.258 L246.12,24.916 C246.381333,24.6173333 246.670667,24.363 246.988,24.153 C247.305333,23.943 247.650667,23.838 248.024,23.838 C248.593333,23.838 249.018,24.0013333 249.298,24.328 C249.578,24.6546667 249.718,25.0746667 249.718,25.588 C249.718,25.952 249.624667,26.3276667 249.438,26.715 C249.251333,27.1023333 248.980667,27.527 248.626,27.989 C248.271333,28.451 247.832667,28.9526667 247.31,29.494 C246.787333,30.0353333 246.19,30.642 245.518,31.314 L245.518,31.314 L245.518,32 L251.286,32 Z M255.668,32.168 C256.032,32.168 256.372667,32.098 256.69,31.958 C257.007333,31.818 257.287333,31.622 257.53,31.37 C257.772667,31.118 257.964,30.817 258.104,30.467 C258.244,30.117 258.314,29.7273333 258.314,29.298 C258.314,28.374 258.083,27.6833333 257.621,27.226 C257.159,26.7686667 256.540667,26.54 255.766,26.54 C255.402,26.54 255.033333,26.6403333 254.66,26.841 C254.286667,27.0416667 253.96,27.3146667 253.68,27.66 C253.689333,26.9506667 253.759333,26.3556667 253.89,25.875 C254.020667,25.3943333 254.193333,25.0046667 254.408,24.706 C254.622667,24.4073333 254.87,24.1926667 255.15,24.062 C255.43,23.9313333 255.724,23.866 256.032,23.866 C256.312,23.866 256.580333,23.929 256.837,24.055 C257.093667,24.181 257.315333,24.3513333 257.502,24.566 L257.502,24.566 L258.146,23.852 C257.894,23.5813333 257.593,23.355 257.243,23.173 C256.893,22.991 256.475333,22.9 255.99,22.9 C255.542,22.9 255.115,22.991 254.709,23.173 C254.303,23.355 253.941333,23.6443333 253.624,24.041 C253.306667,24.4376667 253.054667,24.951 252.868,25.581 C252.681333,26.211 252.588,26.974 252.588,27.87 C252.588,28.5886667 252.667333,29.2163333 252.826,29.753 C252.984667,30.2896667 253.201667,30.7376667 253.477,31.097 C253.752333,31.4563333 254.076667,31.7246667 254.45,31.902 C254.823333,32.0793333 255.229333,32.168 255.668,32.168 Z M255.668,31.258 C255.098667,31.258 254.648333,31.0316667 254.317,30.579 C253.985667,30.1263333 253.782667,29.4613333 253.708,28.584 C253.988,28.164 254.296,27.863 254.632,27.681 C254.968,27.499 255.280667,27.408 255.57,27.408 C256.13,27.408 256.545333,27.576 256.816,27.912 C257.086667,28.248 257.222,28.71 257.222,29.298 C257.222,29.5966667 257.182333,29.865 257.103,30.103 C257.023667,30.341 256.914,30.5463333 256.774,30.719 C256.634,30.8916667 256.470667,31.0246667 256.284,31.118 C256.097333,31.2113333 255.892,31.258 255.668,31.258 Z M264.222,32 L264.222,29.536 L265.44,29.536 L265.44,28.612 L264.222,28.612 L264.222,23.068 L262.934,23.068 L259.112,28.78 L259.112,29.536 L263.13,29.536 L263.13,32 L264.222,32 Z M263.13,28.612 L260.33,28.612 L262.416,25.56 C262.546667,25.3453333 262.672667,25.1353333 262.794,24.93 C262.915333,24.7246667 263.032,24.5146667 263.144,24.3 L263.144,24.3 L263.2,24.3 C263.181333,24.5426667 263.165,24.8296667 263.151,25.161 C263.137,25.4923333 263.13,25.7793333 263.13,26.022 L263.13,26.022 L263.13,28.612 Z M270.018,32 C270.531333,32 271.002667,31.944 271.432,31.832 C271.861333,31.72 272.23,31.552 272.538,31.328 C272.846,31.104 273.084,30.824 273.252,30.488 C273.42,30.152 273.504,29.76 273.504,29.312 C273.504,28.6773333 273.331333,28.178 272.986,27.814 C272.640667,27.45 272.188,27.2166667 271.628,27.114 L271.628,27.114 L271.628,27.058 C272.066667,26.918 272.400333,26.6636667 272.629,26.295 C272.857667,25.9263333 272.972,25.5133333 272.972,25.056 C272.972,24.6546667 272.895,24.3116667 272.741,24.027 C272.587,23.7423333 272.372333,23.5113333 272.097,23.334 C271.821667,23.1566667 271.490333,23.026 271.103,22.942 C270.715667,22.858 270.288667,22.816 269.822,22.816 L269.822,22.816 L267.092,22.816 L267.092,32 L270.018,32 Z M269.612,26.722 L268.254,26.722 L268.254,23.74 L269.668,23.74 C270.386667,23.74 270.925667,23.852 271.285,24.076 C271.644333,24.3 271.824,24.678 271.824,25.21 C271.824,25.6766667 271.651333,26.0453333 271.306,26.316 C270.960667,26.5866667 270.396,26.722 269.612,26.722 L269.612,26.722 Z M269.85,31.076 L268.254,31.076 L268.254,27.618 L269.85,27.618 C270.662,27.618 271.282667,27.751 271.712,28.017 C272.141333,28.283 272.356,28.7006667 272.356,29.27 C272.356,29.886 272.136667,30.341 271.698,30.635 C271.259333,30.929 270.643333,31.076 269.85,31.076 L269.85,31.076 Z" id="Outlays$264B" fill="#666666" fill-rule="nonzero"></path>
                <path d="M314.718,14.168 C315.315333,14.168 315.861333,14.0583333 316.356,13.839 C316.850667,13.6196667 317.277667,13.3023333 317.637,12.887 C317.996333,12.4716667 318.274,11.97 318.47,11.382 C318.666,10.794 318.764,10.1266667 318.764,9.38 C318.764,8.64266667 318.666,7.98233333 318.47,7.399 C318.274,6.81566667 317.996333,6.32333333 317.637,5.922 C317.277667,5.52066667 316.850667,5.21266667 316.356,4.998 C315.861333,4.78333333 315.315333,4.676 314.718,4.676 C314.120667,4.676 313.574667,4.78333333 313.08,4.998 C312.585333,5.21266667 312.160667,5.52066667 311.806,5.922 C311.451333,6.32333333 311.176,6.81566667 310.98,7.399 C310.784,7.98233333 310.686,8.64266667 310.686,9.38 C310.686,10.1266667 310.784,10.794 310.98,11.382 C311.176,11.97 311.451333,12.4716667 311.806,12.887 C312.160667,13.3023333 312.585333,13.6196667 313.08,13.839 C313.574667,14.0583333 314.120667,14.168 314.718,14.168 Z M314.718,12.754 C314.354,12.754 314.027333,12.6746667 313.738,12.516 C313.448667,12.3573333 313.201333,12.131 312.996,11.837 C312.790667,11.543 312.632,11.1883333 312.52,10.773 C312.408,10.3576667 312.352,9.89333333 312.352,9.38 C312.352,8.35333333 312.564333,7.54833333 312.989,6.965 C313.413667,6.38166667 313.99,6.09 314.718,6.09 C315.446,6.09 316.022333,6.38166667 316.447,6.965 C316.871667,7.54833333 317.084,8.35333333 317.084,9.38 C317.084,9.89333333 317.028,10.3576667 316.916,10.773 C316.804,11.1883333 316.645333,11.543 316.44,11.837 C316.234667,12.131 315.987333,12.3573333 315.698,12.516 C315.408667,12.6746667 315.082,12.754 314.718,12.754 Z M323.79,14.168 C324.172667,14.168 324.541333,14.084 324.896,13.916 C325.250667,13.748 325.563333,13.5053333 325.834,13.188 C326.104667,12.8706667 326.321667,12.481 326.485,12.019 C326.648333,11.557 326.73,11.032 326.73,10.444 C326.73,9.912 326.669333,9.43133333 326.548,9.002 C326.426667,8.57266667 326.249333,8.20633333 326.016,7.903 C325.782667,7.59966667 325.498,7.36633333 325.162,7.203 C324.826,7.03966667 324.443333,6.958 324.014,6.958 C323.659333,6.958 323.311667,7.03733333 322.971,7.196 C322.630333,7.35466667 322.315333,7.56 322.026,7.812 L322.026,7.812 L322.068,6.664 L322.068,4.116 L320.458,4.116 L320.458,14 L321.732,14 L321.872,13.272 L321.914,13.272 C322.203333,13.5613333 322.509,13.783 322.831,13.937 C323.153,14.091 323.472667,14.168 323.79,14.168 Z M323.454,12.838 C323.248667,12.838 323.027,12.796 322.789,12.712 C322.551,12.628 322.310667,12.4786667 322.068,12.264 L322.068,12.264 L322.068,9.058 C322.590667,8.54466667 323.094667,8.288 323.58,8.288 C324.102667,8.288 324.480667,8.47933333 324.714,8.862 C324.947333,9.24466667 325.064,9.78133333 325.064,10.472 C325.064,11.256 324.91,11.8463333 324.602,12.243 C324.294,12.6396667 323.911333,12.838 323.454,12.838 Z M329.908,14.168 C330.262667,14.168 330.547333,14.1213333 330.762,14.028 L330.762,14.028 L330.552,12.824 C330.486667,12.8426667 330.437667,12.852 330.405,12.852 L330.405,12.852 L330.3,12.852 C330.216,12.852 330.136667,12.8123333 330.062,12.733 C329.987333,12.6536667 329.95,12.516 329.95,12.32 L329.95,12.32 L329.95,4.116 L328.34,4.116 L328.34,12.236 C328.34,12.8333333 328.456667,13.3046667 328.69,13.65 C328.923333,13.9953333 329.329333,14.168 329.908,14.168 Z M332.946,5.922 C333.235333,5.922 333.473333,5.838 333.66,5.67 C333.846667,5.502 333.94,5.28266667 333.94,5.012 C333.94,4.74133333 333.846667,4.51966667 333.66,4.347 C333.473333,4.17433333 333.235333,4.088 332.946,4.088 C332.656667,4.088 332.418667,4.17433333 332.232,4.347 C332.045333,4.51966667 331.952,4.74133333 331.952,5.012 C331.952,5.28266667 332.045333,5.502 332.232,5.67 C332.418667,5.838 332.656667,5.922 332.946,5.922 Z M333.744,14 L333.744,7.126 L332.134,7.126 L332.134,14 L333.744,14 Z M338.196,17.038 C338.756,17.038 339.262333,16.975 339.715,16.849 C340.167667,16.723 340.552667,16.5526667 340.87,16.338 C341.187333,16.1233333 341.432333,15.8666667 341.605,15.568 C341.777667,15.2693333 341.864,14.952 341.864,14.616 C341.864,14.0186667 341.651667,13.587 341.227,13.321 C340.802333,13.055 340.174667,12.922 339.344,12.922 L339.344,12.922 L338.126,12.922 C337.706,12.922 337.414333,12.866 337.251,12.754 C337.087667,12.642 337.006,12.488 337.006,12.292 C337.006,12.1333333 337.036333,12.0073333 337.097,11.914 C337.157667,11.8206667 337.239333,11.7273333 337.342,11.634 C337.500667,11.6993333 337.659333,11.746 337.818,11.774 C337.976667,11.802 338.130667,11.816 338.28,11.816 C338.644,11.816 338.984667,11.7646667 339.302,11.662 C339.619333,11.5593333 339.894667,11.41 340.128,11.214 C340.361333,11.018 340.545667,10.7753333 340.681,10.486 C340.816333,10.1966667 340.884,9.86066667 340.884,9.478 C340.884,9.23533333 340.846667,9.01366667 340.772,8.813 C340.697333,8.61233333 340.604,8.44666667 340.492,8.316 L340.492,8.316 L341.752,8.316 L341.752,7.126 L339.288,7.126 C339.148,7.07933333 338.991667,7.03966667 338.819,7.007 C338.646333,6.97433333 338.466667,6.958 338.28,6.958 C337.916,6.958 337.570667,7.01166667 337.244,7.119 C336.917333,7.22633333 336.630333,7.385 336.383,7.595 C336.135667,7.805 335.937333,8.064 335.788,8.372 C335.638667,8.68 335.564,9.03 335.564,9.422 C335.564,9.83266667 335.655,10.1943333 335.837,10.507 C336.019,10.8196667 336.226667,11.0646667 336.46,11.242 L336.46,11.242 L336.46,11.298 C336.264,11.438 336.089,11.6176667 335.935,11.837 C335.781,12.0563333 335.704,12.3013333 335.704,12.572 C335.704,12.852 335.762333,13.0853333 335.879,13.272 C335.995667,13.4586667 336.142667,13.608 336.32,13.72 L336.32,13.72 L336.32,13.776 C336.002667,13.972 335.76,14.1936667 335.592,14.441 C335.424,14.6883333 335.34,14.9566667 335.34,15.246 C335.34,15.5446667 335.412333,15.806 335.557,16.03 C335.701667,16.254 335.9,16.4406667 336.152,16.59 C336.404,16.7393333 336.705,16.8513333 337.055,16.926 C337.405,17.0006667 337.785333,17.038 338.196,17.038 Z M338.28,10.808 C337.944,10.808 337.659333,10.689 337.426,10.451 C337.192667,10.213 337.076,9.87 337.076,9.422 C337.076,8.98333333 337.192667,8.64733333 337.426,8.414 C337.659333,8.18066667 337.944,8.064 338.28,8.064 C338.616,8.064 338.898333,8.183 339.127,8.421 C339.355667,8.659 339.47,8.99266667 339.47,9.422 C339.47,9.87 339.353333,10.213 339.12,10.451 C338.886667,10.689 338.606667,10.808 338.28,10.808 Z M338.448,15.988 C337.897333,15.988 337.465667,15.9016667 337.153,15.729 C336.840333,15.5563333 336.684,15.316 336.684,15.008 C336.684,14.672 336.861333,14.3686667 337.216,14.098 C337.468,14.1633333 337.780667,14.196 338.154,14.196 L338.154,14.196 L339.092,14.196 C339.484,14.196 339.785,14.2426667 339.995,14.336 C340.205,14.4293333 340.31,14.6113333 340.31,14.882 C340.31,15.1806667 340.139667,15.4396667 339.799,15.659 C339.458333,15.8783333 339.008,15.988 338.448,15.988 Z M344.496,14.168 C344.906667,14.168 345.287,14.0793333 345.637,13.902 C345.987,13.7246667 346.316,13.5053333 346.624,13.244 L346.624,13.244 L346.68,13.244 L346.792,14 L348.122,14 L348.122,9.926 C348.122,8.96466667 347.909667,8.22966667 347.485,7.721 C347.060333,7.21233333 346.418667,6.958 345.56,6.958 C345.009333,6.958 344.496,7.04666667 344.02,7.224 C343.544,7.40133333 343.114667,7.61133333 342.732,7.854 L342.732,7.854 L343.32,8.932 C343.628,8.74533333 343.943,8.58666667 344.265,8.456 C344.587,8.32533333 344.916,8.26 345.252,8.26 C345.485333,8.26 345.681333,8.295 345.84,8.365 C345.998667,8.435 346.127,8.533 346.225,8.659 C346.323,8.785 346.393,8.92966667 346.435,9.093 C346.477,9.25633333 346.502667,9.42666667 346.512,9.604 C345.802667,9.67866667 345.193667,9.786 344.685,9.926 C344.176333,10.066 343.756333,10.2386667 343.425,10.444 C343.093667,10.6493333 342.851,10.8943333 342.697,11.179 C342.543,11.4636667 342.466,11.788 342.466,12.152 C342.466,12.7586667 342.652667,13.2463333 343.026,13.615 C343.399333,13.9836667 343.889333,14.168 344.496,14.168 Z M345.014,12.908 C344.724667,12.908 344.486667,12.838 344.3,12.698 C344.113333,12.558 344.02,12.334 344.02,12.026 C344.02,11.858 344.062,11.6993333 344.146,11.55 C344.23,11.4006667 344.37,11.2676667 344.566,11.151 C344.762,11.0343333 345.018667,10.9293333 345.336,10.836 C345.653333,10.7426667 346.045333,10.668 346.512,10.612 L346.512,10.612 L346.512,12.152 C346.250667,12.3946667 346.005667,12.5813333 345.777,12.712 C345.548333,12.8426667 345.294,12.908 345.014,12.908 Z M352.252,14.168 C352.522667,14.168 352.777,14.1423333 353.015,14.091 C353.253,14.0396667 353.465333,13.9813333 353.652,13.916 L353.652,13.916 L353.372,12.726 C353.269333,12.7726667 353.155,12.81 353.029,12.838 C352.903,12.866 352.779333,12.88 352.658,12.88 C352.014,12.88 351.692,12.4786667 351.692,11.676 L351.692,11.676 L351.692,8.4 L353.442,8.4 L353.442,7.126 L351.692,7.126 L351.692,5.25 L350.348,5.25 L350.152,7.126 L349.088,7.196 L349.088,8.4 L350.068,8.4 L350.068,11.676 C350.068,12.0493333 350.107667,12.3876667 350.187,12.691 C350.266333,12.9943333 350.392333,13.2556667 350.565,13.475 C350.737667,13.6943333 350.961667,13.8646667 351.237,13.986 C351.512333,14.1073333 351.850667,14.168 352.252,14.168 Z M355.696,5.922 C355.985333,5.922 356.223333,5.838 356.41,5.67 C356.596667,5.502 356.69,5.28266667 356.69,5.012 C356.69,4.74133333 356.596667,4.51966667 356.41,4.347 C356.223333,4.17433333 355.985333,4.088 355.696,4.088 C355.406667,4.088 355.168667,4.17433333 354.982,4.347 C354.795333,4.51966667 354.702,4.74133333 354.702,5.012 C354.702,5.28266667 354.795333,5.502 354.982,5.67 C355.168667,5.838 355.406667,5.922 355.696,5.922 Z M356.494,14 L356.494,7.126 L354.884,7.126 L354.884,14 L356.494,14 Z M361.366,14.168 C361.795333,14.168 362.208333,14.0886667 362.605,13.93 C363.001667,13.7713333 363.349333,13.538 363.648,13.23 C363.946667,12.922 364.187,12.544 364.369,12.096 C364.551,11.648 364.642,11.1393333 364.642,10.57 C364.642,10.0006667 364.551,9.492 364.369,9.044 C364.187,8.596 363.946667,8.218 363.648,7.91 C363.349333,7.602 363.001667,7.36633333 362.605,7.203 C362.208333,7.03966667 361.795333,6.958 361.366,6.958 C360.936667,6.958 360.526,7.03966667 360.134,7.203 C359.742,7.36633333 359.394333,7.602 359.091,7.91 C358.787667,8.218 358.547333,8.596 358.37,9.044 C358.192667,9.492 358.104,10.0006667 358.104,10.57 C358.104,11.1393333 358.192667,11.648 358.37,12.096 C358.547333,12.544 358.787667,12.922 359.091,13.23 C359.394333,13.538 359.742,13.7713333 360.134,13.93 C360.526,14.0886667 360.936667,14.168 361.366,14.168 Z M361.366,12.852 C360.862,12.852 360.467667,12.6443333 360.183,12.229 C359.898333,11.8136667 359.756,11.2606667 359.756,10.57 C359.756,9.87 359.898333,9.31233333 360.183,8.897 C360.467667,8.48166667 360.862,8.274 361.366,8.274 C361.87,8.274 362.266667,8.48166667 362.556,8.897 C362.845333,9.31233333 362.99,9.87 362.99,10.57 C362.99,11.2606667 362.845333,11.8136667 362.556,12.229 C362.266667,12.6443333 361.87,12.852 361.366,12.852 Z M367.848,14 L367.848,9.198 C368.137333,8.918 368.396333,8.70566667 368.625,8.561 C368.853667,8.41633333 369.117333,8.344 369.416,8.344 C369.798667,8.344 370.074,8.46066667 370.242,8.694 C370.41,8.92733333 370.494,9.32866667 370.494,9.898 L370.494,9.898 L370.494,14 L372.104,14 L372.104,9.688 C372.104,8.81066667 371.936,8.13633333 371.6,7.665 C371.264,7.19366667 370.727333,6.958 369.99,6.958 C369.514,6.958 369.096333,7.06533333 368.737,7.28 C368.377667,7.49466667 368.044,7.75133333 367.736,8.05 L367.736,8.05 L367.68,8.05 L367.568,7.126 L366.238,7.126 L366.238,14 L367.848,14 Z M375.996,14.168 C376.425333,14.168 376.808,14.112 377.144,14 C377.48,13.888 377.76,13.7363333 377.984,13.545 C378.208,13.3536667 378.378333,13.1296667 378.495,12.873 C378.611667,12.6163333 378.67,12.3386667 378.67,12.04 C378.67,11.7226667 378.611667,11.4496667 378.495,11.221 C378.378333,10.9923333 378.224333,10.7986667 378.033,10.64 C377.841667,10.4813333 377.629333,10.3483333 377.396,10.241 C377.162667,10.1336667 376.929333,10.038 376.696,9.954 C376.509333,9.88866667 376.329667,9.82333333 376.157,9.758 C375.984333,9.69266667 375.832667,9.62266667 375.702,9.548 C375.571333,9.47333333 375.466333,9.387 375.387,9.289 C375.307667,9.191 375.268,9.072 375.268,8.932 C375.268,8.71733333 375.349667,8.53766667 375.513,8.393 C375.676333,8.24833333 375.930667,8.176 376.276,8.176 C376.546667,8.176 376.805667,8.22966667 377.053,8.337 C377.300333,8.44433333 377.545333,8.58666667 377.788,8.764 L377.788,8.764 L378.53,7.784 C378.25,7.56933333 377.918667,7.378 377.536,7.21 C377.153333,7.042 376.724,6.958 376.248,6.958 C375.473333,6.958 374.862,7.14933333 374.414,7.532 C373.966,7.91466667 373.742,8.40933333 373.742,9.016 C373.742,9.30533333 373.800333,9.555 373.917,9.765 C374.033667,9.975 374.183,10.1593333 374.365,10.318 C374.547,10.4766667 374.754667,10.612 374.988,10.724 C375.221333,10.836 375.45,10.934 375.674,11.018 C375.851333,11.0926667 376.028667,11.165 376.206,11.235 C376.383333,11.305 376.542,11.382 376.682,11.466 C376.822,11.55 376.934,11.6456667 377.018,11.753 C377.102,11.8603333 377.144,11.984 377.144,12.124 C377.144,12.3666667 377.055333,12.565 376.878,12.719 C376.700667,12.873 376.425333,12.95 376.052,12.95 C375.697333,12.95 375.368333,12.8823333 375.065,12.747 C374.761667,12.6116667 374.456,12.4226667 374.148,12.18 L374.148,12.18 L373.392,13.216 C373.728,13.4866667 374.127,13.713 374.589,13.895 C375.051,14.077 375.52,14.168 375.996,14.168 Z M313.948,33.54 L313.948,32.126 C314.62,32.0326667 315.149667,31.7713333 315.537,31.342 C315.924333,30.9126667 316.118,30.362 316.118,29.69 C316.118,29.186 316.022333,28.773 315.831,28.451 C315.639667,28.129 315.399333,27.8583333 315.11,27.639 C314.820667,27.4196667 314.505667,27.233 314.165,27.079 C313.824333,26.925 313.509333,26.7663333 313.22,26.603 C312.930667,26.4396667 312.690333,26.2506667 312.499,26.036 C312.307667,25.8213333 312.212,25.546 312.212,25.21 C312.212,24.7993333 312.338,24.4726667 312.59,24.23 C312.842,23.9873333 313.182667,23.866 313.612,23.866 C313.994667,23.866 314.309667,23.936 314.557,24.076 C314.804333,24.216 315.058667,24.412 315.32,24.664 L315.32,24.664 L315.936,23.978 C315.684,23.7073333 315.401667,23.474 315.089,23.278 C314.776333,23.082 314.396,22.9606667 313.948,22.914 L313.948,22.914 L313.948,21.528 L313.108,21.528 L313.108,22.942 C312.492,23.0353333 311.999667,23.2896667 311.631,23.705 C311.262333,24.1203333 311.078,24.6406667 311.078,25.266 C311.078,25.7233333 311.173667,26.099 311.365,26.393 C311.556333,26.687 311.796667,26.9366667 312.086,27.142 C312.375333,27.3473333 312.690333,27.5293333 313.031,27.688 C313.371667,27.8466667 313.686667,28.017 313.976,28.199 C314.265333,28.381 314.505667,28.5956667 314.697,28.843 C314.888333,29.0903333 314.984,29.4006667 314.984,29.774 C314.984,30.2126667 314.855667,30.5626667 314.599,30.824 C314.342333,31.0853333 313.952667,31.216 313.43,31.216 C313.000667,31.216 312.606333,31.125 312.247,30.943 C311.887667,30.761 311.558667,30.5393333 311.26,30.278 L311.26,30.278 L310.728,31.076 C311.026667,31.3466667 311.386,31.5823333 311.806,31.783 C312.226,31.9836667 312.66,32.1073333 313.108,32.154 L313.108,32.154 L313.108,33.54 L313.948,33.54 Z M323.286,32 L323.286,31.006 L320.696,31.006 C320.462667,31.006 320.215333,31.0153333 319.954,31.034 C319.692667,31.0526667 319.440667,31.0713333 319.198,31.09 C319.73,30.5393333 320.217667,30.019 320.661,29.529 C321.104333,29.039 321.487,28.5676667 321.809,28.115 C322.131,27.6623333 322.383,27.2236667 322.565,26.799 C322.747,26.3743333 322.838,25.952 322.838,25.532 C322.838,24.7386667 322.6,24.1016667 322.124,23.621 C321.648,23.1403333 320.994667,22.9 320.164,22.9 C319.576,22.9 319.072,23.0236667 318.652,23.271 C318.232,23.5183333 317.835333,23.8473333 317.462,24.258 L317.462,24.258 L318.12,24.916 C318.381333,24.6173333 318.670667,24.363 318.988,24.153 C319.305333,23.943 319.650667,23.838 320.024,23.838 C320.593333,23.838 321.018,24.0013333 321.298,24.328 C321.578,24.6546667 321.718,25.0746667 321.718,25.588 C321.718,25.952 321.624667,26.3276667 321.438,26.715 C321.251333,27.1023333 320.980667,27.527 320.626,27.989 C320.271333,28.451 319.832667,28.9526667 319.31,29.494 C318.787333,30.0353333 318.19,30.642 317.518,31.314 L317.518,31.314 L317.518,32 L323.286,32 Z M327.584,32 C327.621333,31.132 327.684333,30.341 327.773,29.627 C327.861667,28.913 328.004,28.2363333 328.2,27.597 C328.396,26.9576667 328.659667,26.33 328.991,25.714 C329.322333,25.098 329.754,24.454 330.286,23.782 L330.286,23.782 L330.286,23.068 L324.532,23.068 L324.532,24.062 L328.984,24.062 C328.545333,24.678 328.169667,25.28 327.857,25.868 C327.544333,26.456 327.287667,27.065 327.087,27.695 C326.886333,28.325 326.73,28.99 326.618,29.69 C326.506,30.39 326.431333,31.16 326.394,32 L326.394,32 L327.584,32 Z M336.222,32 L336.222,29.536 L337.44,29.536 L337.44,28.612 L336.222,28.612 L336.222,23.068 L334.934,23.068 L331.112,28.78 L331.112,29.536 L335.13,29.536 L335.13,32 L336.222,32 Z M335.13,28.612 L332.33,28.612 L334.416,25.56 C334.546667,25.3453333 334.672667,25.1353333 334.794,24.93 C334.915333,24.7246667 335.032,24.5146667 335.144,24.3 L335.144,24.3 L335.2,24.3 C335.181333,24.5426667 335.165,24.8296667 335.151,25.161 C335.137,25.4923333 335.13,25.7793333 335.13,26.022 L335.13,26.022 L335.13,28.612 Z M342.018,32 C342.531333,32 343.002667,31.944 343.432,31.832 C343.861333,31.72 344.23,31.552 344.538,31.328 C344.846,31.104 345.084,30.824 345.252,30.488 C345.42,30.152 345.504,29.76 345.504,29.312 C345.504,28.6773333 345.331333,28.178 344.986,27.814 C344.640667,27.45 344.188,27.2166667 343.628,27.114 L343.628,27.114 L343.628,27.058 C344.066667,26.918 344.400333,26.6636667 344.629,26.295 C344.857667,25.9263333 344.972,25.5133333 344.972,25.056 C344.972,24.6546667 344.895,24.3116667 344.741,24.027 C344.587,23.7423333 344.372333,23.5113333 344.097,23.334 C343.821667,23.1566667 343.490333,23.026 343.103,22.942 C342.715667,22.858 342.288667,22.816 341.822,22.816 L341.822,22.816 L339.092,22.816 L339.092,32 L342.018,32 Z M341.612,26.722 L340.254,26.722 L340.254,23.74 L341.668,23.74 C342.386667,23.74 342.925667,23.852 343.285,24.076 C343.644333,24.3 343.824,24.678 343.824,25.21 C343.824,25.6766667 343.651333,26.0453333 343.306,26.316 C342.960667,26.5866667 342.396,26.722 341.612,26.722 L341.612,26.722 Z M341.85,31.076 L340.254,31.076 L340.254,27.618 L341.85,27.618 C342.662,27.618 343.282667,27.751 343.712,28.017 C344.141333,28.283 344.356,28.7006667 344.356,29.27 C344.356,29.886 344.136667,30.341 343.698,30.635 C343.259333,30.929 342.643333,31.076 341.85,31.076 L341.85,31.076 Z" id="Obligations$274B" fill="#666666" fill-rule="nonzero"></path>
                <path d="M409.592,14.168 C410.124,14.168 410.602333,14.091 411.027,13.937 C411.451667,13.783 411.815667,13.538 412.119,13.202 C412.422333,12.866 412.653333,12.4343333 412.812,11.907 C412.970667,11.3796667 413.05,10.738 413.05,9.982 L413.05,9.982 L413.05,4.844 L411.496,4.844 L411.496,10.108 C411.496,10.6026667 411.449333,11.0203333 411.356,11.361 C411.262667,11.7016667 411.132,11.9746667 410.964,12.18 C410.796,12.3853333 410.595333,12.5323333 410.362,12.621 C410.128667,12.7096667 409.872,12.754 409.592,12.754 C409.312,12.754 409.06,12.7096667 408.836,12.621 C408.612,12.5323333 408.418333,12.3853333 408.255,12.18 C408.091667,11.9746667 407.965667,11.7016667 407.877,11.361 C407.788333,11.0203333 407.744,10.6026667 407.744,10.108 L407.744,10.108 L407.744,4.844 L406.12,4.844 L406.12,9.982 C406.12,10.738 406.201667,11.3796667 406.365,11.907 C406.528333,12.4343333 406.761667,12.866 407.065,13.202 C407.368333,13.538 407.732333,13.783 408.157,13.937 C408.581667,14.091 409.06,14.168 409.592,14.168 Z M416.802,14 L416.802,9.198 C417.091333,8.918 417.350333,8.70566667 417.579,8.561 C417.807667,8.41633333 418.071333,8.344 418.37,8.344 C418.752667,8.344 419.028,8.46066667 419.196,8.694 C419.364,8.92733333 419.448,9.32866667 419.448,9.898 L419.448,9.898 L419.448,14 L421.058,14 L421.058,9.688 C421.058,8.81066667 420.89,8.13633333 420.554,7.665 C420.218,7.19366667 419.681333,6.958 418.944,6.958 C418.468,6.958 418.050333,7.06533333 417.691,7.28 C417.331667,7.49466667 416.998,7.75133333 416.69,8.05 L416.69,8.05 L416.634,8.05 L416.522,7.126 L415.192,7.126 L415.192,14 L416.802,14 Z M425.846,14.168 C426.275333,14.168 426.688333,14.0886667 427.085,13.93 C427.481667,13.7713333 427.829333,13.538 428.128,13.23 C428.426667,12.922 428.667,12.544 428.849,12.096 C429.031,11.648 429.122,11.1393333 429.122,10.57 C429.122,10.0006667 429.031,9.492 428.849,9.044 C428.667,8.596 428.426667,8.218 428.128,7.91 C427.829333,7.602 427.481667,7.36633333 427.085,7.203 C426.688333,7.03966667 426.275333,6.958 425.846,6.958 C425.416667,6.958 425.006,7.03966667 424.614,7.203 C424.222,7.36633333 423.874333,7.602 423.571,7.91 C423.267667,8.218 423.027333,8.596 422.85,9.044 C422.672667,9.492 422.584,10.0006667 422.584,10.57 C422.584,11.1393333 422.672667,11.648 422.85,12.096 C423.027333,12.544 423.267667,12.922 423.571,13.23 C423.874333,13.538 424.222,13.7713333 424.614,13.93 C425.006,14.0886667 425.416667,14.168 425.846,14.168 Z M425.846,12.852 C425.342,12.852 424.947667,12.6443333 424.663,12.229 C424.378333,11.8136667 424.236,11.2606667 424.236,10.57 C424.236,9.87 424.378333,9.31233333 424.663,8.897 C424.947667,8.48166667 425.342,8.274 425.846,8.274 C426.35,8.274 426.746667,8.48166667 427.036,8.897 C427.325333,9.31233333 427.47,9.87 427.47,10.57 C427.47,11.2606667 427.325333,11.8136667 427.036,12.229 C426.746667,12.6443333 426.35,12.852 425.846,12.852 Z M434.05,14.168 C434.432667,14.168 434.801333,14.084 435.156,13.916 C435.510667,13.748 435.823333,13.5053333 436.094,13.188 C436.364667,12.8706667 436.581667,12.481 436.745,12.019 C436.908333,11.557 436.99,11.032 436.99,10.444 C436.99,9.912 436.929333,9.43133333 436.808,9.002 C436.686667,8.57266667 436.509333,8.20633333 436.276,7.903 C436.042667,7.59966667 435.758,7.36633333 435.422,7.203 C435.086,7.03966667 434.703333,6.958 434.274,6.958 C433.919333,6.958 433.571667,7.03733333 433.231,7.196 C432.890333,7.35466667 432.575333,7.56 432.286,7.812 L432.286,7.812 L432.328,6.664 L432.328,4.116 L430.718,4.116 L430.718,14 L431.992,14 L432.132,13.272 L432.174,13.272 C432.463333,13.5613333 432.769,13.783 433.091,13.937 C433.413,14.091 433.732667,14.168 434.05,14.168 Z M433.714,12.838 C433.508667,12.838 433.287,12.796 433.049,12.712 C432.811,12.628 432.570667,12.4786667 432.328,12.264 L432.328,12.264 L432.328,9.058 C432.850667,8.54466667 433.354667,8.288 433.84,8.288 C434.362667,8.288 434.740667,8.47933333 434.974,8.862 C435.207333,9.24466667 435.324,9.78133333 435.324,10.472 C435.324,11.256 435.17,11.8463333 434.862,12.243 C434.554,12.6396667 434.171333,12.838 433.714,12.838 Z M440.168,14.168 C440.522667,14.168 440.807333,14.1213333 441.022,14.028 L441.022,14.028 L440.812,12.824 C440.746667,12.8426667 440.697667,12.852 440.665,12.852 L440.665,12.852 L440.56,12.852 C440.476,12.852 440.396667,12.8123333 440.322,12.733 C440.247333,12.6536667 440.21,12.516 440.21,12.32 L440.21,12.32 L440.21,4.116 L438.6,4.116 L438.6,12.236 C438.6,12.8333333 438.716667,13.3046667 438.95,13.65 C439.183333,13.9953333 439.589333,14.168 440.168,14.168 Z M443.206,5.922 C443.495333,5.922 443.733333,5.838 443.92,5.67 C444.106667,5.502 444.2,5.28266667 444.2,5.012 C444.2,4.74133333 444.106667,4.51966667 443.92,4.347 C443.733333,4.17433333 443.495333,4.088 443.206,4.088 C442.916667,4.088 442.678667,4.17433333 442.492,4.347 C442.305333,4.51966667 442.212,4.74133333 442.212,5.012 C442.212,5.28266667 442.305333,5.502 442.492,5.67 C442.678667,5.838 442.916667,5.922 443.206,5.922 Z M444.004,14 L444.004,7.126 L442.394,7.126 L442.394,14 L444.004,14 Z M448.456,17.038 C449.016,17.038 449.522333,16.975 449.975,16.849 C450.427667,16.723 450.812667,16.5526667 451.13,16.338 C451.447333,16.1233333 451.692333,15.8666667 451.865,15.568 C452.037667,15.2693333 452.124,14.952 452.124,14.616 C452.124,14.0186667 451.911667,13.587 451.487,13.321 C451.062333,13.055 450.434667,12.922 449.604,12.922 L449.604,12.922 L448.386,12.922 C447.966,12.922 447.674333,12.866 447.511,12.754 C447.347667,12.642 447.266,12.488 447.266,12.292 C447.266,12.1333333 447.296333,12.0073333 447.357,11.914 C447.417667,11.8206667 447.499333,11.7273333 447.602,11.634 C447.760667,11.6993333 447.919333,11.746 448.078,11.774 C448.236667,11.802 448.390667,11.816 448.54,11.816 C448.904,11.816 449.244667,11.7646667 449.562,11.662 C449.879333,11.5593333 450.154667,11.41 450.388,11.214 C450.621333,11.018 450.805667,10.7753333 450.941,10.486 C451.076333,10.1966667 451.144,9.86066667 451.144,9.478 C451.144,9.23533333 451.106667,9.01366667 451.032,8.813 C450.957333,8.61233333 450.864,8.44666667 450.752,8.316 L450.752,8.316 L452.012,8.316 L452.012,7.126 L449.548,7.126 C449.408,7.07933333 449.251667,7.03966667 449.079,7.007 C448.906333,6.97433333 448.726667,6.958 448.54,6.958 C448.176,6.958 447.830667,7.01166667 447.504,7.119 C447.177333,7.22633333 446.890333,7.385 446.643,7.595 C446.395667,7.805 446.197333,8.064 446.048,8.372 C445.898667,8.68 445.824,9.03 445.824,9.422 C445.824,9.83266667 445.915,10.1943333 446.097,10.507 C446.279,10.8196667 446.486667,11.0646667 446.72,11.242 L446.72,11.242 L446.72,11.298 C446.524,11.438 446.349,11.6176667 446.195,11.837 C446.041,12.0563333 445.964,12.3013333 445.964,12.572 C445.964,12.852 446.022333,13.0853333 446.139,13.272 C446.255667,13.4586667 446.402667,13.608 446.58,13.72 L446.58,13.72 L446.58,13.776 C446.262667,13.972 446.02,14.1936667 445.852,14.441 C445.684,14.6883333 445.6,14.9566667 445.6,15.246 C445.6,15.5446667 445.672333,15.806 445.817,16.03 C445.961667,16.254 446.16,16.4406667 446.412,16.59 C446.664,16.7393333 446.965,16.8513333 447.315,16.926 C447.665,17.0006667 448.045333,17.038 448.456,17.038 Z M448.54,10.808 C448.204,10.808 447.919333,10.689 447.686,10.451 C447.452667,10.213 447.336,9.87 447.336,9.422 C447.336,8.98333333 447.452667,8.64733333 447.686,8.414 C447.919333,8.18066667 448.204,8.064 448.54,8.064 C448.876,8.064 449.158333,8.183 449.387,8.421 C449.615667,8.659 449.73,8.99266667 449.73,9.422 C449.73,9.87 449.613333,10.213 449.38,10.451 C449.146667,10.689 448.866667,10.808 448.54,10.808 Z M448.708,15.988 C448.157333,15.988 447.725667,15.9016667 447.413,15.729 C447.100333,15.5563333 446.944,15.316 446.944,15.008 C446.944,14.672 447.121333,14.3686667 447.476,14.098 C447.728,14.1633333 448.040667,14.196 448.414,14.196 L448.414,14.196 L449.352,14.196 C449.744,14.196 450.045,14.2426667 450.255,14.336 C450.465,14.4293333 450.57,14.6113333 450.57,14.882 C450.57,15.1806667 450.399667,15.4396667 450.059,15.659 C449.718333,15.8783333 449.268,15.988 448.708,15.988 Z M454.756,14.168 C455.166667,14.168 455.547,14.0793333 455.897,13.902 C456.247,13.7246667 456.576,13.5053333 456.884,13.244 L456.884,13.244 L456.94,13.244 L457.052,14 L458.382,14 L458.382,9.926 C458.382,8.96466667 458.169667,8.22966667 457.745,7.721 C457.320333,7.21233333 456.678667,6.958 455.82,6.958 C455.269333,6.958 454.756,7.04666667 454.28,7.224 C453.804,7.40133333 453.374667,7.61133333 452.992,7.854 L452.992,7.854 L453.58,8.932 C453.888,8.74533333 454.203,8.58666667 454.525,8.456 C454.847,8.32533333 455.176,8.26 455.512,8.26 C455.745333,8.26 455.941333,8.295 456.1,8.365 C456.258667,8.435 456.387,8.533 456.485,8.659 C456.583,8.785 456.653,8.92966667 456.695,9.093 C456.737,9.25633333 456.762667,9.42666667 456.772,9.604 C456.062667,9.67866667 455.453667,9.786 454.945,9.926 C454.436333,10.066 454.016333,10.2386667 453.685,10.444 C453.353667,10.6493333 453.111,10.8943333 452.957,11.179 C452.803,11.4636667 452.726,11.788 452.726,12.152 C452.726,12.7586667 452.912667,13.2463333 453.286,13.615 C453.659333,13.9836667 454.149333,14.168 454.756,14.168 Z M455.274,12.908 C454.984667,12.908 454.746667,12.838 454.56,12.698 C454.373333,12.558 454.28,12.334 454.28,12.026 C454.28,11.858 454.322,11.6993333 454.406,11.55 C454.49,11.4006667 454.63,11.2676667 454.826,11.151 C455.022,11.0343333 455.278667,10.9293333 455.596,10.836 C455.913333,10.7426667 456.305333,10.668 456.772,10.612 L456.772,10.612 L456.772,12.152 C456.510667,12.3946667 456.265667,12.5813333 456.037,12.712 C455.808333,12.8426667 455.554,12.908 455.274,12.908 Z M462.512,14.168 C462.782667,14.168 463.037,14.1423333 463.275,14.091 C463.513,14.0396667 463.725333,13.9813333 463.912,13.916 L463.912,13.916 L463.632,12.726 C463.529333,12.7726667 463.415,12.81 463.289,12.838 C463.163,12.866 463.039333,12.88 462.918,12.88 C462.274,12.88 461.952,12.4786667 461.952,11.676 L461.952,11.676 L461.952,8.4 L463.702,8.4 L463.702,7.126 L461.952,7.126 L461.952,5.25 L460.608,5.25 L460.412,7.126 L459.348,7.196 L459.348,8.4 L460.328,8.4 L460.328,11.676 C460.328,12.0493333 460.367667,12.3876667 460.447,12.691 C460.526333,12.9943333 460.652333,13.2556667 460.825,13.475 C460.997667,13.6943333 461.221667,13.8646667 461.497,13.986 C461.772333,14.1073333 462.110667,14.168 462.512,14.168 Z M467.86,14.168 C468.298667,14.168 468.718667,14.098 469.12,13.958 C469.521333,13.818 469.885333,13.6406667 470.212,13.426 L470.212,13.426 L469.666,12.418 C469.414,12.5766667 469.159667,12.7003333 468.903,12.789 C468.646333,12.8776667 468.368667,12.922 468.07,12.922 C467.51,12.922 467.050333,12.7563333 466.691,12.425 C466.331667,12.0936667 466.114667,11.62 466.04,11.004 L466.04,11.004 L470.408,11.004 C470.426667,10.92 470.443,10.808 470.457,10.668 C470.471,10.528 470.478,10.3786667 470.478,10.22 C470.478,9.744 470.417333,9.30533333 470.296,8.904 C470.174667,8.50266667 469.995,8.15733333 469.757,7.868 C469.519,7.57866667 469.222667,7.35466667 468.868,7.196 C468.513333,7.03733333 468.102667,6.958 467.636,6.958 C467.234667,6.958 466.842667,7.042 466.46,7.21 C466.077333,7.378 465.739,7.616 465.445,7.924 C465.151,8.232 464.915333,8.61 464.738,9.058 C464.560667,9.506 464.472,10.01 464.472,10.57 C464.472,11.1393333 464.558333,11.6456667 464.731,12.089 C464.903667,12.5323333 465.144,12.908 465.452,13.216 C465.76,13.524 466.119333,13.7596667 466.53,13.923 C466.940667,14.0863333 467.384,14.168 467.86,14.168 Z M469.078,9.912 L466.026,9.912 C466.100667,9.352 466.292,8.92733333 466.6,8.638 C466.908,8.34866667 467.267333,8.204 467.678,8.204 C468.154,8.204 468.506333,8.35566667 468.735,8.659 C468.963667,8.96233333 469.078,9.38 469.078,9.912 L469.078,9.912 Z M474.426,14.168 C474.799333,14.168 475.154,14.0793333 475.49,13.902 C475.826,13.7246667 476.12,13.51 476.372,13.258 L476.372,13.258 L476.428,13.258 L476.54,14 L477.87,14 L477.87,4.116 L476.26,4.116 L476.26,6.608 L476.316,7.714 C476.045333,7.48066667 475.774667,7.29633333 475.504,7.161 C475.233333,7.02566667 474.902,6.958 474.51,6.958 C474.136667,6.958 473.775,7.042 473.425,7.21 C473.075,7.378 472.764667,7.616 472.494,7.924 C472.223333,8.232 472.006333,8.61 471.843,9.058 C471.679667,9.506 471.598,10.01 471.598,10.57 C471.598,11.7086667 471.852333,12.593 472.361,13.223 C472.869667,13.853 473.558,14.168 474.426,14.168 Z M474.818,12.838 C474.314,12.838 473.929,12.6443333 473.663,12.257 C473.397,11.8696667 473.264,11.3026667 473.264,10.556 C473.264,9.828 473.418,9.268 473.726,8.876 C474.034,8.484 474.412,8.288 474.86,8.288 C475.093333,8.288 475.324333,8.33 475.553,8.414 C475.781667,8.498 476.017333,8.64733333 476.26,8.862 L476.26,8.862 L476.26,12.068 C475.812,12.5813333 475.331333,12.838 474.818,12.838 Z M408.948,33.54 L408.948,32.126 C409.62,32.0326667 410.149667,31.7713333 410.537,31.342 C410.924333,30.9126667 411.118,30.362 411.118,29.69 C411.118,29.186 411.022333,28.773 410.831,28.451 C410.639667,28.129 410.399333,27.8583333 410.11,27.639 C409.820667,27.4196667 409.505667,27.233 409.165,27.079 C408.824333,26.925 408.509333,26.7663333 408.22,26.603 C407.930667,26.4396667 407.690333,26.2506667 407.499,26.036 C407.307667,25.8213333 407.212,25.546 407.212,25.21 C407.212,24.7993333 407.338,24.4726667 407.59,24.23 C407.842,23.9873333 408.182667,23.866 408.612,23.866 C408.994667,23.866 409.309667,23.936 409.557,24.076 C409.804333,24.216 410.058667,24.412 410.32,24.664 L410.32,24.664 L410.936,23.978 C410.684,23.7073333 410.401667,23.474 410.089,23.278 C409.776333,23.082 409.396,22.9606667 408.948,22.914 L408.948,22.914 L408.948,21.528 L408.108,21.528 L408.108,22.942 C407.492,23.0353333 406.999667,23.2896667 406.631,23.705 C406.262333,24.1203333 406.078,24.6406667 406.078,25.266 C406.078,25.7233333 406.173667,26.099 406.365,26.393 C406.556333,26.687 406.796667,26.9366667 407.086,27.142 C407.375333,27.3473333 407.690333,27.5293333 408.031,27.688 C408.371667,27.8466667 408.686667,28.017 408.976,28.199 C409.265333,28.381 409.505667,28.5956667 409.697,28.843 C409.888333,29.0903333 409.984,29.4006667 409.984,29.774 C409.984,30.2126667 409.855667,30.5626667 409.599,30.824 C409.342333,31.0853333 408.952667,31.216 408.43,31.216 C408.000667,31.216 407.606333,31.125 407.247,30.943 C406.887667,30.761 406.558667,30.5393333 406.26,30.278 L406.26,30.278 L405.728,31.076 C406.026667,31.3466667 406.386,31.5823333 406.806,31.783 C407.226,31.9836667 407.66,32.1073333 408.108,32.154 L408.108,32.154 L408.108,33.54 L408.948,33.54 Z M414.828,32.168 C415.276,32.168 415.703,32.077 416.109,31.895 C416.515,31.713 416.876667,31.4236667 417.194,31.027 C417.511333,30.6303333 417.763333,30.117 417.95,29.487 C418.136667,28.857 418.23,28.094 418.23,27.198 C418.23,26.4793333 418.153,25.8516667 417.999,25.315 C417.845,24.7783333 417.630333,24.3303333 417.355,23.971 C417.079667,23.6116667 416.753,23.3433333 416.375,23.166 C415.997,22.9886667 415.588667,22.9 415.15,22.9 C414.795333,22.9 414.457,22.97 414.135,23.11 C413.813,23.25 413.533,23.446 413.295,23.698 C413.057,23.95 412.868,24.251 412.728,24.601 C412.588,24.951 412.518,25.3406667 412.518,25.77 C412.518,26.694 412.746667,27.3846667 413.204,27.842 C413.661333,28.2993333 414.277333,28.528 415.052,28.528 C415.425333,28.528 415.798667,28.4253333 416.172,28.22 C416.545333,28.0146667 416.872,27.7346667 417.152,27.38 C417.142667,28.0986667 417.072667,28.7006667 416.942,29.186 C416.811333,29.6713333 416.638667,30.0656667 416.424,30.369 C416.209333,30.6723333 415.962,30.8893333 415.682,31.02 C415.402,31.1506667 415.103333,31.216 414.786,31.216 C414.506,31.216 414.237667,31.1506667 413.981,31.02 C413.724333,30.8893333 413.502667,30.7166667 413.316,30.502 L413.316,30.502 L412.672,31.23 C412.914667,31.5006667 413.215667,31.7246667 413.575,31.902 C413.934333,32.0793333 414.352,32.168 414.828,32.168 Z M415.248,27.66 C414.688,27.66 414.272667,27.492 414.002,27.156 C413.731333,26.82 413.596,26.358 413.596,25.77 C413.596,25.4806667 413.635667,25.2146667 413.715,24.972 C413.794333,24.7293333 413.904,24.5216667 414.044,24.349 C414.184,24.1763333 414.349667,24.0433333 414.541,23.95 C414.732333,23.8566667 414.935333,23.81 415.15,23.81 C415.719333,23.81 416.172,24.034 416.508,24.482 C416.844,24.93 417.049333,25.5926667 417.124,26.47 C416.834667,26.89 416.524333,27.1933333 416.193,27.38 C415.861667,27.5666667 415.546667,27.66 415.248,27.66 Z M422.416,32.168 C422.845333,32.168 423.237333,32.1073333 423.592,31.986 C423.946667,31.8646667 424.25,31.6966667 424.502,31.482 C424.754,31.2673333 424.95,31.0153333 425.09,30.726 C425.23,30.4366667 425.3,30.124 425.3,29.788 C425.3,29.4893333 425.255667,29.2233333 425.167,28.99 C425.078333,28.7566667 424.961667,28.549 424.817,28.367 C424.672333,28.185 424.506667,28.0216667 424.32,27.877 C424.133333,27.7323333 423.942,27.604 423.746,27.492 L423.746,27.492 L423.746,27.436 C423.886,27.3333333 424.028333,27.2073333 424.173,27.058 C424.317667,26.9086667 424.448333,26.7406667 424.565,26.554 C424.681667,26.3673333 424.779667,26.1666667 424.859,25.952 C424.938333,25.7373333 424.978,25.5133333 424.978,25.28 C424.978,24.9346667 424.919667,24.615 424.803,24.321 C424.686333,24.027 424.518333,23.775 424.299,23.565 C424.079667,23.355 423.816,23.1916667 423.508,23.075 C423.2,22.9583333 422.85,22.9 422.458,22.9 C422.094,22.9 421.758,22.956 421.45,23.068 C421.142,23.18 420.876,23.3363333 420.652,23.537 C420.428,23.7376667 420.250667,23.978 420.12,24.258 C419.989333,24.538 419.924,24.8506667 419.924,25.196 C419.924,25.672 420.05,26.0756667 420.302,26.407 C420.554,26.7383333 420.843333,27.0206667 421.17,27.254 L421.17,27.254 L421.17,27.31 C420.955333,27.422 420.747667,27.555 420.547,27.709 C420.346333,27.863 420.169,28.0403333 420.015,28.241 C419.861,28.4416667 419.735,28.6656667 419.637,28.913 C419.539,29.1603333 419.49,29.4286667 419.49,29.718 C419.49,30.0726667 419.564667,30.3993333 419.714,30.698 C419.863333,30.9966667 420.066333,31.2556667 420.323,31.475 C420.579667,31.6943333 420.887667,31.8646667 421.247,31.986 C421.606333,32.1073333 421.996,32.168 422.416,32.168 Z M423.046,27.128 C422.775333,27.0253333 422.516333,26.9156667 422.269,26.799 C422.021667,26.6823333 421.802333,26.5493333 421.611,26.4 C421.419667,26.2506667 421.268,26.0803333 421.156,25.889 C421.044,25.6976667 420.988,25.4666667 420.988,25.196 C420.988,24.7573333 421.123333,24.4073333 421.394,24.146 C421.664667,23.8846667 422.01,23.754 422.43,23.754 C422.924667,23.754 423.307333,23.9056667 423.578,24.209 C423.848667,24.5123333 423.984,24.888 423.984,25.336 C423.984,25.6626667 423.902333,25.9753333 423.739,26.274 C423.575667,26.5726667 423.344667,26.8573333 423.046,27.128 Z M422.444,31.314 C422.173333,31.314 421.921333,31.272 421.688,31.188 C421.454667,31.104 421.251667,30.985 421.079,30.831 C420.906333,30.677 420.771,30.4973333 420.673,30.292 C420.575,30.0866667 420.526,29.858 420.526,29.606 C420.526,29.1953333 420.645,28.829 420.883,28.507 C421.121,28.185 421.417333,27.9026667 421.772,27.66 C422.089333,27.7906667 422.395,27.919 422.689,28.045 C422.983,28.171 423.242,28.311 423.466,28.465 C423.69,28.619 423.867333,28.7986667 423.998,29.004 C424.128667,29.2093333 424.194,29.4566667 424.194,29.746 C424.194,30.2126667 424.033,30.5906667 423.711,30.88 C423.389,31.1693333 422.966667,31.314 422.444,31.314 Z M430.06,32 C430.573333,32 431.044667,31.944 431.474,31.832 C431.903333,31.72 432.272,31.552 432.58,31.328 C432.888,31.104 433.126,30.824 433.294,30.488 C433.462,30.152 433.546,29.76 433.546,29.312 C433.546,28.6773333 433.373333,28.178 433.028,27.814 C432.682667,27.45 432.23,27.2166667 431.67,27.114 L431.67,27.114 L431.67,27.058 C432.108667,26.918 432.442333,26.6636667 432.671,26.295 C432.899667,25.9263333 433.014,25.5133333 433.014,25.056 C433.014,24.6546667 432.937,24.3116667 432.783,24.027 C432.629,23.7423333 432.414333,23.5113333 432.139,23.334 C431.863667,23.1566667 431.532333,23.026 431.145,22.942 C430.757667,22.858 430.330667,22.816 429.864,22.816 L429.864,22.816 L427.134,22.816 L427.134,32 L430.06,32 Z M429.654,26.722 L428.296,26.722 L428.296,23.74 L429.71,23.74 C430.428667,23.74 430.967667,23.852 431.327,24.076 C431.686333,24.3 431.866,24.678 431.866,25.21 C431.866,25.6766667 431.693333,26.0453333 431.348,26.316 C431.002667,26.5866667 430.438,26.722 429.654,26.722 L429.654,26.722 Z M429.892,31.076 L428.296,31.076 L428.296,27.618 L429.892,27.618 C430.704,27.618 431.324667,27.751 431.754,28.017 C432.183333,28.283 432.398,28.7006667 432.398,29.27 C432.398,29.886 432.178667,30.341 431.74,30.635 C431.301333,30.929 430.685333,31.076 429.892,31.076 L429.892,31.076 Z" id="Unobligated$98B" fill="#666666" fill-rule="nonzero"></path>
                <path d="M218,8 L212,8 C210.895431,8 210,8.8954305 210,10 L210,26 C210,27.1045695 210.895431,28 212,28 L218,28 L218,28" id="Line-2" stroke="#C6C6C6" stroke-linecap="round"></path>
                <line x1="209.5" y1="18.5" x2="169.5" y2="18.5" id="Line-4" stroke="#C6C6C6" stroke-linecap="round"></line>
                <rect id="unobligated" fill="#F3E9FF" x="80" y="3" width="28" height="30"></rect>
                <rect id="obligated" fill="#6F41A7" x="77" y="3" width="3" height="30"></rect>
                <rect id="outlays" fill="#331E4D" x="0" y="3" width="77" height="30"></rect>
                <path d="M122.368,24.54 L122.368,23.084 C123.096,22.9253333 123.642,22.6056667 124.006,22.125 C124.37,21.6443333 124.552,21.068 124.552,20.396 C124.552,19.948 124.461,19.5723333 124.279,19.269 C124.097,18.9656667 123.868333,18.7066667 123.593,18.492 C123.317667,18.2773333 123.021333,18.0953333 122.704,17.946 C122.386667,17.7966667 122.090333,17.652 121.815,17.512 C121.539667,17.372 121.311,17.225 121.129,17.071 C120.947,16.917 120.856,16.728 120.856,16.504 C120.856,16.1866667 120.944667,15.958 121.122,15.818 C121.299333,15.678 121.556,15.608 121.892,15.608 C122.190667,15.608 122.456667,15.6663333 122.69,15.783 C122.923333,15.8996667 123.166,16.0746667 123.418,16.308 L123.418,16.308 L124.454,15.132 C124.183333,14.8426667 123.88,14.5953333 123.544,14.39 C123.208,14.1846667 122.816,14.0493333 122.368,13.984 L122.368,13.984 L122.368,12.57 L121.01,12.57 L121.01,14.012 C120.347333,14.1426667 119.827,14.4343333 119.449,14.887 C119.071,15.3396667 118.882,15.9113333 118.882,16.602 C118.882,17.022 118.973,17.3766667 119.155,17.666 C119.337,17.9553333 119.565667,18.2073333 119.841,18.422 C120.116333,18.6366667 120.412667,18.821 120.73,18.975 C121.047333,19.129 121.343667,19.283 121.619,19.437 C121.894333,19.591 122.123,19.752 122.305,19.92 C122.487,20.088 122.578,20.2933333 122.578,20.536 C122.578,20.8626667 122.487,21.1053333 122.305,21.264 C122.123,21.4226667 121.836,21.502 121.444,21.502 C121.108,21.502 120.779,21.4343333 120.457,21.299 C120.135,21.1636667 119.796667,20.9606667 119.442,20.69 L119.442,20.69 L118.546,22.076 C118.872667,22.3746667 119.262333,22.615 119.715,22.797 C120.167667,22.979 120.599333,23.0933333 121.01,23.14 L121.01,23.14 L121.01,24.54 L122.368,24.54 Z M128.794,23.168 C129.242,23.168 129.666667,23.1096667 130.068,22.993 C130.469333,22.8763333 130.819333,22.7083333 131.118,22.489 C131.416667,22.2696667 131.654667,21.999 131.832,21.677 C132.009333,21.355 132.098,20.9886667 132.098,20.578 C132.098,19.9993333 131.932333,19.5303333 131.601,19.171 C131.269667,18.8116667 130.847333,18.5573333 130.334,18.408 L130.334,18.408 L130.334,18.352 C130.81,18.1466667 131.176333,17.883 131.433,17.561 C131.689667,17.239 131.818,16.8446667 131.818,16.378 C131.818,15.986 131.743333,15.6406667 131.594,15.342 C131.444667,15.0433333 131.237,14.789 130.971,14.579 C130.705,14.369 130.383,14.2103333 130.005,14.103 C129.627,13.9956667 129.209333,13.942 128.752,13.942 C128.201333,13.942 127.699667,14.0423333 127.247,14.243 C126.794333,14.4436667 126.362667,14.7213333 125.952,15.076 L125.952,15.076 L126.988,16.336 C127.268,16.0933333 127.536333,15.902 127.793,15.762 C128.049667,15.622 128.336667,15.552 128.654,15.552 C129.008667,15.552 129.279333,15.6383333 129.466,15.811 C129.652667,15.9836667 129.746,16.224 129.746,16.532 C129.746,16.7093333 129.711,16.8703333 129.641,17.015 C129.571,17.1596667 129.454333,17.2856667 129.291,17.393 C129.127667,17.5003333 128.913,17.582 128.647,17.638 C128.381,17.694 128.047333,17.722 127.646,17.722 L127.646,17.722 L127.646,19.178 C128.131333,19.178 128.528,19.2083333 128.836,19.269 C129.144,19.3296667 129.386667,19.4136667 129.564,19.521 C129.741333,19.6283333 129.865,19.7613333 129.935,19.92 C130.005,20.0786667 130.04,20.256 130.04,20.452 C130.04,20.788 129.909333,21.047 129.648,21.229 C129.386667,21.411 129.036667,21.502 128.598,21.502 C128.215333,21.502 127.863,21.418 127.541,21.25 C127.219,21.082 126.922667,20.8673333 126.652,20.606 L126.652,20.606 L125.7,21.908 C126.026667,22.2906667 126.442,22.5963333 126.946,22.825 C127.45,23.0536667 128.066,23.168 128.794,23.168 Z M137.082,23 C137.119333,22.132 137.175333,21.3643333 137.25,20.697 C137.324667,20.0296667 137.448333,19.4043333 137.621,18.821 C137.793667,18.2376667 138.036333,17.673 138.349,17.127 C138.661667,16.581 139.074667,15.9953333 139.588,15.37 L139.588,15.37 L139.588,14.11 L133.4,14.11 L133.4,15.846 L137.39,15.846 C136.97,16.4246667 136.617667,16.9846667 136.333,17.526 C136.048333,18.0673333 135.815,18.6203333 135.633,19.185 C135.451,19.7496667 135.311,20.3423333 135.213,20.963 C135.115,21.5836667 135.047333,22.2626667 135.01,23 L135.01,23 L137.082,23 Z M146.812,23 L146.812,21.334 L145.146,21.334 L145.146,14.11 L143.634,14.11 C143.316667,14.2966667 142.99,14.4553333 142.654,14.586 C142.318,14.7166667 141.907333,14.8286667 141.422,14.922 L141.422,14.922 L141.422,16.196 L143.088,16.196 L143.088,21.334 L141.156,21.334 L141.156,23 L146.812,23 Z M154.834,23 C155.328667,23 155.790667,22.9463333 156.22,22.839 C156.649333,22.7316667 157.025,22.5683333 157.347,22.349 C157.669,22.1296667 157.921,21.852 158.103,21.516 C158.285,21.18 158.376,20.7786667 158.376,20.312 C158.376,20.004 158.334,19.731 158.25,19.493 C158.166,19.255 158.049333,19.0473333 157.9,18.87 C157.750667,18.6926667 157.578,18.5456667 157.382,18.429 C157.186,18.3123333 156.971333,18.226 156.738,18.17 L156.738,18.17 L156.738,18.114 C156.924667,18.0486667 157.090333,17.946 157.235,17.806 C157.379667,17.666 157.503333,17.5073333 157.606,17.33 C157.708667,17.1526667 157.788,16.9613333 157.844,16.756 C157.9,16.5506667 157.928,16.3453333 157.928,16.14 C157.928,15.7013333 157.841667,15.3373333 157.669,15.048 C157.496333,14.7586667 157.258333,14.5253333 156.955,14.348 C156.651667,14.1706667 156.297,14.047 155.891,13.977 C155.485,13.907 155.044,13.872 154.568,13.872 L154.568,13.872 L151.446,13.872 L151.446,23 L154.834,23 Z M154.47,17.526 L153.504,17.526 L153.504,15.468 L154.484,15.468 C154.969333,15.468 155.328667,15.5426667 155.562,15.692 C155.795333,15.8413333 155.912,16.0933333 155.912,16.448 C155.912,16.7746667 155.797667,17.036 155.569,17.232 C155.340333,17.428 154.974,17.526 154.47,17.526 L154.47,17.526 Z M154.666,21.404 L153.504,21.404 L153.504,19.052 L154.666,19.052 C155.235333,19.052 155.66,19.1383333 155.94,19.311 C156.22,19.4836667 156.36,19.7706667 156.36,20.172 C156.36,20.9933333 155.795333,21.404 154.666,21.404 L154.666,21.404 Z" id="$371B" fill="#555555" fill-rule="nonzero"></path>
            </g>
        </g>
    </g>
</svg>