<?xml version="1.0" encoding="UTF-8"?>
<svg width="448px" height="85px" viewBox="0 0 448 85" version="1.1" xmlns="http://www.w3.org/2000/svg" xmlns:xlink="http://www.w3.org/1999/xlink">
    <title>05. desktop - phase 3 general</title>
    <g id="SVG" stroke="none" stroke-width="1" fill="none" fill-rule="evenodd">
        <g id="Viz-3---Desktop-Copy" transform="translate(-279.000000, -1058.000000)">
            <g id="05.-desktop---phase-3-general" transform="translate(279.000000, 1058.000000)">
                <path d="M4.718,63.168 C5.31533333,63.168 5.86133333,63.0583333 6.356,62.839 C6.85066667,62.6196667 7.27766667,62.3023333 7.637,61.887 C7.99633333,61.4716667 8.274,60.97 8.47,60.382 C8.666,59.794 8.764,59.1266667 8.764,58.38 C8.764,57.6426667 8.666,56.9823333 8.47,56.399 C8.274,55.8156667 7.99633333,55.3233333 7.637,54.922 C7.27766667,54.5206667 6.85066667,54.2126667 6.356,53.998 C5.86133333,53.7833333 5.31533333,53.676 4.718,53.676 C4.12066667,53.676 3.57466667,53.7833333 3.08,53.998 C2.58533333,54.2126667 2.16066667,54.5206667 1.806,54.922 C1.45133333,55.3233333 1.176,55.8156667 0.98,56.399 C0.784,56.9823333 0.686,57.6426667 0.686,58.38 C0.686,59.1266667 0.784,59.794 0.98,60.382 C1.176,60.97 1.45133333,61.4716667 1.806,61.887 C2.16066667,62.3023333 2.58533333,62.6196667 3.08,62.839 C3.57466667,63.0583333 4.12066667,63.168 4.718,63.168 Z M4.718,61.754 C4.354,61.754 4.02733333,61.6746667 3.738,61.516 C3.44866667,61.3573333 3.20133333,61.131 2.996,60.837 C2.79066667,60.543 2.632,60.1883333 2.52,59.773 C2.408,59.3576667 2.352,58.8933333 2.352,58.38 C2.352,57.3533333 2.56433333,56.5483333 2.989,55.965 C3.41366667,55.3816667 3.99,55.09 4.718,55.09 C5.446,55.09 6.02233333,55.3816667 6.447,55.965 C6.87166667,56.5483333 7.084,57.3533333 7.084,58.38 C7.084,58.8933333 7.028,59.3576667 6.916,59.773 C6.804,60.1883333 6.64533333,60.543 6.44,60.837 C6.23466667,61.131 5.98733333,61.3573333 5.698,61.516 C5.40866667,61.6746667 5.082,61.754 4.718,61.754 Z M12.502,63.168 C12.978,63.168 13.391,63.0606667 13.741,62.846 C14.091,62.6313333 14.4153333,62.3466667 14.714,61.992 L14.714,61.992 L14.756,61.992 L14.882,63 L16.198,63 L16.198,56.126 L14.588,56.126 L14.588,60.83 C14.3266667,61.166 14.0816667,61.4086667 13.853,61.558 C13.6243333,61.7073333 13.3606667,61.782 13.062,61.782 C12.6886667,61.782 12.418,61.6653333 12.25,61.432 C12.082,61.1986667 11.998,60.7973333 11.998,60.228 L11.998,60.228 L11.998,56.126 L10.388,56.126 L10.388,60.438 C10.388,61.3153333 10.556,61.9896667 10.892,62.461 C11.228,62.9323333 11.7646667,63.168 12.502,63.168 Z M20.664,63.168 C20.9346667,63.168 21.189,63.1423333 21.427,63.091 C21.665,63.0396667 21.8773333,62.9813333 22.064,62.916 L22.064,62.916 L21.784,61.726 C21.6813333,61.7726667 21.567,61.81 21.441,61.838 C21.315,61.866 21.1913333,61.88 21.07,61.88 C20.426,61.88 20.104,61.4786667 20.104,60.676 L20.104,60.676 L20.104,57.4 L21.854,57.4 L21.854,56.126 L20.104,56.126 L20.104,54.25 L18.76,54.25 L18.564,56.126 L17.5,56.196 L17.5,57.4 L18.48,57.4 L18.48,60.676 C18.48,61.0493333 18.5196667,61.3876667 18.599,61.691 C18.6783333,61.9943333 18.8043333,62.2556667 18.977,62.475 C19.1496667,62.6943333 19.3736667,62.8646667 19.649,62.986 C19.9243333,63.1073333 20.2626667,63.168 20.664,63.168 Z M24.864,63.168 C25.2186667,63.168 25.5033333,63.1213333 25.718,63.028 L25.718,63.028 L25.508,61.824 C25.4426667,61.8426667 25.3936667,61.852 25.361,61.852 L25.361,61.852 L25.256,61.852 C25.172,61.852 25.0926667,61.8123333 25.018,61.733 C24.9433333,61.6536667 24.906,61.516 24.906,61.32 L24.906,61.32 L24.906,53.116 L23.296,53.116 L23.296,61.236 C23.296,61.8333333 23.4126667,62.3046667 23.646,62.65 C23.8793333,62.9953333 24.2853333,63.168 24.864,63.168 Z M28.756,63.168 C29.1666667,63.168 29.547,63.0793333 29.897,62.902 C30.247,62.7246667 30.576,62.5053333 30.884,62.244 L30.884,62.244 L30.94,62.244 L31.052,63 L32.382,63 L32.382,58.926 C32.382,57.9646667 32.1696667,57.2296667 31.745,56.721 C31.3203333,56.2123333 30.6786667,55.958 29.82,55.958 C29.2693333,55.958 28.756,56.0466667 28.28,56.224 C27.804,56.4013333 27.3746667,56.6113333 26.992,56.854 L26.992,56.854 L27.58,57.932 C27.888,57.7453333 28.203,57.5866667 28.525,57.456 C28.847,57.3253333 29.176,57.26 29.512,57.26 C29.7453333,57.26 29.9413333,57.295 30.1,57.365 C30.2586667,57.435 30.387,57.533 30.485,57.659 C30.583,57.785 30.653,57.9296667 30.695,58.093 C30.737,58.2563333 30.7626667,58.4266667 30.772,58.604 C30.0626667,58.6786667 29.4536667,58.786 28.945,58.926 C28.4363333,59.066 28.0163333,59.2386667 27.685,59.444 C27.3536667,59.6493333 27.111,59.8943333 26.957,60.179 C26.803,60.4636667 26.726,60.788 26.726,61.152 C26.726,61.7586667 26.9126667,62.2463333 27.286,62.615 C27.6593333,62.9836667 28.1493333,63.168 28.756,63.168 Z M29.274,61.908 C28.9846667,61.908 28.7466667,61.838 28.56,61.698 C28.3733333,61.558 28.28,61.334 28.28,61.026 C28.28,60.858 28.322,60.6993333 28.406,60.55 C28.49,60.4006667 28.63,60.2676667 28.826,60.151 C29.022,60.0343333 29.2786667,59.9293333 29.596,59.836 C29.9133333,59.7426667 30.3053333,59.668 30.772,59.612 L30.772,59.612 L30.772,61.152 C30.5106667,61.3946667 30.2656667,61.5813333 30.037,61.712 C29.8083333,61.8426667 29.554,61.908 29.274,61.908 Z M34.776,65.828 C35.1493333,65.828 35.4783333,65.7696667 35.763,65.653 C36.0476667,65.5363333 36.2996667,65.3683333 36.519,65.149 C36.7383333,64.9296667 36.932,64.666 37.1,64.358 C37.268,64.05 37.422,63.7 37.562,63.308 L37.562,63.308 L40.054,56.126 L38.5,56.126 L37.464,59.5 C37.38,59.808 37.2936667,60.1276667 37.205,60.459 C37.1163333,60.7903333 37.03,61.1146667 36.946,61.432 L36.946,61.432 L36.89,61.432 C36.7873333,61.1053333 36.687,60.7763333 36.589,60.445 C36.491,60.1136667 36.3906667,59.7986667 36.288,59.5 L36.288,59.5 L35.098,56.126 L33.46,56.126 L36.162,62.916 L36.036,63.35 C35.924,63.6953333 35.7583333,63.9776667 35.539,64.197 C35.3196667,64.4163333 35.028,64.526 34.664,64.526 C34.58,64.526 34.4936667,64.5143333 34.405,64.491 C34.3163333,64.4676667 34.2393333,64.4466667 34.174,64.428 L34.174,64.428 L33.88,65.688 C34.0106667,65.7346667 34.146,65.7696667 34.286,65.793 C34.426,65.8163333 34.5893333,65.828 34.776,65.828 Z M43.162,63.168 C43.5913333,63.168 43.974,63.112 44.31,63 C44.646,62.888 44.926,62.7363333 45.15,62.545 C45.374,62.3536667 45.5443333,62.1296667 45.661,61.873 C45.7776667,61.6163333 45.836,61.3386667 45.836,61.04 C45.836,60.7226667 45.7776667,60.4496667 45.661,60.221 C45.5443333,59.9923333 45.3903333,59.7986667 45.199,59.64 C45.0076667,59.4813333 44.7953333,59.3483333 44.562,59.241 C44.3286667,59.1336667 44.0953333,59.038 43.862,58.954 C43.6753333,58.8886667 43.4956667,58.8233333 43.323,58.758 C43.1503333,58.6926667 42.9986667,58.6226667 42.868,58.548 C42.7373333,58.4733333 42.6323333,58.387 42.553,58.289 C42.4736667,58.191 42.434,58.072 42.434,57.932 C42.434,57.7173333 42.5156667,57.5376667 42.679,57.393 C42.8423333,57.2483333 43.0966667,57.176 43.442,57.176 C43.7126667,57.176 43.9716667,57.2296667 44.219,57.337 C44.4663333,57.4443333 44.7113333,57.5866667 44.954,57.764 L44.954,57.764 L45.696,56.784 C45.416,56.5693333 45.0846667,56.378 44.702,56.21 C44.3193333,56.042 43.89,55.958 43.414,55.958 C42.6393333,55.958 42.028,56.1493333 41.58,56.532 C41.132,56.9146667 40.908,57.4093333 40.908,58.016 C40.908,58.3053333 40.9663333,58.555 41.083,58.765 C41.1996667,58.975 41.349,59.1593333 41.531,59.318 C41.713,59.4766667 41.9206667,59.612 42.154,59.724 C42.3873333,59.836 42.616,59.934 42.84,60.018 C43.0173333,60.0926667 43.1946667,60.165 43.372,60.235 C43.5493333,60.305 43.708,60.382 43.848,60.466 C43.988,60.55 44.1,60.6456667 44.184,60.753 C44.268,60.8603333 44.31,60.984 44.31,61.124 C44.31,61.3666667 44.2213333,61.565 44.044,61.719 C43.8666667,61.873 43.5913333,61.95 43.218,61.95 C42.8633333,61.95 42.5343333,61.8823333 42.231,61.747 C41.9276667,61.6116667 41.622,61.4226667 41.314,61.18 L41.314,61.18 L40.558,62.216 C40.894,62.4866667 41.293,62.713 41.755,62.895 C42.217,63.077 42.686,63.168 43.162,63.168 Z M3.948,82.54 L3.948,81.126 C4.62,81.0326667 5.14966667,80.7713333 5.537,80.342 C5.92433333,79.9126667 6.118,79.362 6.118,78.69 C6.118,78.186 6.02233333,77.773 5.831,77.451 C5.63966667,77.129 5.39933333,76.8583333 5.11,76.639 C4.82066667,76.4196667 4.50566667,76.233 4.165,76.079 C3.82433333,75.925 3.50933333,75.7663333 3.22,75.603 C2.93066667,75.4396667 2.69033333,75.2506667 2.499,75.036 C2.30766667,74.8213333 2.212,74.546 2.212,74.21 C2.212,73.7993333 2.338,73.4726667 2.59,73.23 C2.842,72.9873333 3.18266667,72.866 3.612,72.866 C3.99466667,72.866 4.30966667,72.936 4.557,73.076 C4.80433333,73.216 5.05866667,73.412 5.32,73.664 L5.32,73.664 L5.936,72.978 C5.684,72.7073333 5.40166667,72.474 5.089,72.278 C4.77633333,72.082 4.396,71.9606667 3.948,71.914 L3.948,71.914 L3.948,70.528 L3.108,70.528 L3.108,71.942 C2.492,72.0353333 1.99966667,72.2896667 1.631,72.705 C1.26233333,73.1203333 1.078,73.6406667 1.078,74.266 C1.078,74.7233333 1.17366667,75.099 1.365,75.393 C1.55633333,75.687 1.79666667,75.9366667 2.086,76.142 C2.37533333,76.3473333 2.69033333,76.5293333 3.031,76.688 C3.37166667,76.8466667 3.68666667,77.017 3.976,77.199 C4.26533333,77.381 4.50566667,77.5956667 4.697,77.843 C4.88833333,78.0903333 4.984,78.4006667 4.984,78.774 C4.984,79.2126667 4.85566667,79.5626667 4.599,79.824 C4.34233333,80.0853333 3.95266667,80.216 3.43,80.216 C3.00066667,80.216 2.60633333,80.125 2.247,79.943 C1.88766667,79.761 1.55866667,79.5393333 1.26,79.278 L1.26,79.278 L0.728,80.076 C1.02666667,80.3466667 1.386,80.5823333 1.806,80.783 C2.226,80.9836667 2.66,81.1073333 3.108,81.154 L3.108,81.154 L3.108,82.54 L3.948,82.54 Z M10.458,81.168 C10.8873333,81.168 11.2793333,81.1073333 11.634,80.986 C11.9886667,80.8646667 12.292,80.6966667 12.544,80.482 C12.796,80.2673333 12.992,80.0153333 13.132,79.726 C13.272,79.4366667 13.342,79.124 13.342,78.788 C13.342,78.4893333 13.2976667,78.2233333 13.209,77.99 C13.1203333,77.7566667 13.0036667,77.549 12.859,77.367 C12.7143333,77.185 12.5486667,77.0216667 12.362,76.877 C12.1753333,76.7323333 11.984,76.604 11.788,76.492 L11.788,76.492 L11.788,76.436 C11.928,76.3333333 12.0703333,76.2073333 12.215,76.058 C12.3596667,75.9086667 12.4903333,75.7406667 12.607,75.554 C12.7236667,75.3673333 12.8216667,75.1666667 12.901,74.952 C12.9803333,74.7373333 13.02,74.5133333 13.02,74.28 C13.02,73.9346667 12.9616667,73.615 12.845,73.321 C12.7283333,73.027 12.5603333,72.775 12.341,72.565 C12.1216667,72.355 11.858,72.1916667 11.55,72.075 C11.242,71.9583333 10.892,71.9 10.5,71.9 C10.136,71.9 9.8,71.956 9.492,72.068 C9.184,72.18 8.918,72.3363333 8.694,72.537 C8.47,72.7376667 8.29266667,72.978 8.162,73.258 C8.03133333,73.538 7.966,73.8506667 7.966,74.196 C7.966,74.672 8.092,75.0756667 8.344,75.407 C8.596,75.7383333 8.88533333,76.0206667 9.212,76.254 L9.212,76.254 L9.212,76.31 C8.99733333,76.422 8.78966667,76.555 8.589,76.709 C8.38833333,76.863 8.211,77.0403333 8.057,77.241 C7.903,77.4416667 7.777,77.6656667 7.679,77.913 C7.581,78.1603333 7.532,78.4286667 7.532,78.718 C7.532,79.0726667 7.60666667,79.3993333 7.756,79.698 C7.90533333,79.9966667 8.10833333,80.2556667 8.365,80.475 C8.62166667,80.6943333 8.92966667,80.8646667 9.289,80.986 C9.64833333,81.1073333 10.038,81.168 10.458,81.168 Z M11.088,76.128 C10.8173333,76.0253333 10.5583333,75.9156667 10.311,75.799 C10.0636667,75.6823333 9.84433333,75.5493333 9.653,75.4 C9.46166667,75.2506667 9.31,75.0803333 9.198,74.889 C9.086,74.6976667 9.03,74.4666667 9.03,74.196 C9.03,73.7573333 9.16533333,73.4073333 9.436,73.146 C9.70666667,72.8846667 10.052,72.754 10.472,72.754 C10.9666667,72.754 11.3493333,72.9056667 11.62,73.209 C11.8906667,73.5123333 12.026,73.888 12.026,74.336 C12.026,74.6626667 11.9443333,74.9753333 11.781,75.274 C11.6176667,75.5726667 11.3866667,75.8573333 11.088,76.128 Z M10.486,80.314 C10.2153333,80.314 9.96333333,80.272 9.73,80.188 C9.49666667,80.104 9.29366667,79.985 9.121,79.831 C8.94833333,79.677 8.813,79.4973333 8.715,79.292 C8.617,79.0866667 8.568,78.858 8.568,78.606 C8.568,78.1953333 8.687,77.829 8.925,77.507 C9.163,77.185 9.45933333,76.9026667 9.814,76.66 C10.1313333,76.7906667 10.437,76.919 10.731,77.045 C11.025,77.171 11.284,77.311 11.508,77.465 C11.732,77.619 11.9093333,77.7986667 12.04,78.004 C12.1706667,78.2093333 12.236,78.4566667 12.236,78.746 C12.236,79.2126667 12.075,79.5906667 11.753,79.88 C11.431,80.1693333 11.0086667,80.314 10.486,80.314 Z M17.192,81.168 C17.584,81.168 17.9596667,81.1003333 18.319,80.965 C18.6783333,80.8296667 18.998,80.6336667 19.278,80.377 C19.558,80.1203333 19.782,79.8053333 19.95,79.432 C20.118,79.0586667 20.202,78.6293333 20.202,78.144 C20.202,77.6586667 20.1296667,77.241 19.985,76.891 C19.8403333,76.541 19.642,76.2516667 19.39,76.023 C19.138,75.7943333 18.844,75.624 18.508,75.512 C18.172,75.4 17.8126667,75.344 17.43,75.344 C17.1593333,75.344 16.9166667,75.3766667 16.702,75.442 C16.4873333,75.5073333 16.2726667,75.596 16.058,75.708 L16.058,75.708 L16.296,73.062 L19.754,73.062 L19.754,72.068 L15.288,72.068 L14.994,76.366 L15.61,76.758 C15.8806667,76.5806667 16.1256667,76.4453333 16.345,76.352 C16.5643333,76.2586667 16.828,76.212 17.136,76.212 C17.7146667,76.212 18.1766667,76.3846667 18.522,76.73 C18.8673333,77.0753333 19.04,77.556 19.04,78.172 C19.04,78.48 18.9886667,78.76 18.886,79.012 C18.7833333,79.264 18.6433333,79.4786667 18.466,79.656 C18.2886667,79.8333333 18.081,79.971 17.843,80.069 C17.605,80.167 17.3506667,80.216 17.08,80.216 C16.5573333,80.216 16.1163333,80.1133333 15.757,79.908 C15.3976667,79.7026667 15.0873333,79.4646667 14.826,79.194 L14.826,79.194 L14.266,79.95 C14.4153333,80.1086667 14.5856667,80.2603333 14.777,80.405 C14.9683333,80.5496667 15.183,80.678 15.421,80.79 C15.659,80.902 15.925,80.993 16.219,81.063 C16.513,81.133 16.8373333,81.168 17.192,81.168 Z M27.202,81 L27.202,80.006 L24.612,80.006 C24.3786667,80.006 24.1313333,80.0153333 23.87,80.034 C23.6086667,80.0526667 23.3566667,80.0713333 23.114,80.09 C23.646,79.5393333 24.1336667,79.019 24.577,78.529 C25.0203333,78.039 25.403,77.5676667 25.725,77.115 C26.047,76.6623333 26.299,76.2236667 26.481,75.799 C26.663,75.3743333 26.754,74.952 26.754,74.532 C26.754,73.7386667 26.516,73.1016667 26.04,72.621 C25.564,72.1403333 24.9106667,71.9 24.08,71.9 C23.492,71.9 22.988,72.0236667 22.568,72.271 C22.148,72.5183333 21.7513333,72.8473333 21.378,73.258 L21.378,73.258 L22.036,73.916 C22.2973333,73.6173333 22.5866667,73.363 22.904,73.153 C23.2213333,72.943 23.5666667,72.838 23.94,72.838 C24.5093333,72.838 24.934,73.0013333 25.214,73.328 C25.494,73.6546667 25.634,74.0746667 25.634,74.588 C25.634,74.952 25.5406667,75.3276667 25.354,75.715 C25.1673333,76.1023333 24.8966667,76.527 24.542,76.989 C24.1873333,77.451 23.7486667,77.9526667 23.226,78.494 C22.7033333,79.0353333 22.106,79.642 21.434,80.314 L21.434,80.314 L21.434,81 L27.202,81 Z M32.018,81 C32.5313333,81 33.0026667,80.944 33.432,80.832 C33.8613333,80.72 34.23,80.552 34.538,80.328 C34.846,80.104 35.084,79.824 35.252,79.488 C35.42,79.152 35.504,78.76 35.504,78.312 C35.504,77.6773333 35.3313333,77.178 34.986,76.814 C34.6406667,76.45 34.188,76.2166667 33.628,76.114 L33.628,76.114 L33.628,76.058 C34.0666667,75.918 34.4003333,75.6636667 34.629,75.295 C34.8576667,74.9263333 34.972,74.5133333 34.972,74.056 C34.972,73.6546667 34.895,73.3116667 34.741,73.027 C34.587,72.7423333 34.3723333,72.5113333 34.097,72.334 C33.8216667,72.1566667 33.4903333,72.026 33.103,71.942 C32.7156667,71.858 32.2886667,71.816 31.822,71.816 L31.822,71.816 L29.092,71.816 L29.092,81 L32.018,81 Z M31.612,75.722 L30.254,75.722 L30.254,72.74 L31.668,72.74 C32.3866667,72.74 32.9256667,72.852 33.285,73.076 C33.6443333,73.3 33.824,73.678 33.824,74.21 C33.824,74.6766667 33.6513333,75.0453333 33.306,75.316 C32.9606667,75.5866667 32.396,75.722 31.612,75.722 L31.612,75.722 Z M31.85,80.076 L30.254,80.076 L30.254,76.618 L31.85,76.618 C32.662,76.618 33.2826667,76.751 33.712,77.017 C34.1413333,77.283 34.356,77.7006667 34.356,78.27 C34.356,78.886 34.1366667,79.341 33.698,79.635 C33.2593333,79.929 32.6433333,80.076 31.85,80.076 L31.85,80.076 Z" id="Outlays$852B" fill="#666666" fill-rule="nonzero"></path>
                <path d="M261.718,63.168 C262.315333,63.168 262.861333,63.0583333 263.356,62.839 C263.850667,62.6196667 264.277667,62.3023333 264.637,61.887 C264.996333,61.4716667 265.274,60.97 265.47,60.382 C265.666,59.794 265.764,59.1266667 265.764,58.38 C265.764,57.6426667 265.666,56.9823333 265.47,56.399 C265.274,55.8156667 264.996333,55.3233333 264.637,54.922 C264.277667,54.5206667 263.850667,54.2126667 263.356,53.998 C262.861333,53.7833333 262.315333,53.676 261.718,53.676 C261.120667,53.676 260.574667,53.7833333 260.08,53.998 C259.585333,54.2126667 259.160667,54.5206667 258.806,54.922 C258.451333,55.3233333 258.176,55.8156667 257.98,56.399 C257.784,56.9823333 257.686,57.6426667 257.686,58.38 C257.686,59.1266667 257.784,59.794 257.98,60.382 C258.176,60.97 258.451333,61.4716667 258.806,61.887 C259.160667,62.3023333 259.585333,62.6196667 260.08,62.839 C260.574667,63.0583333 261.120667,63.168 261.718,63.168 Z M261.718,61.754 C261.354,61.754 261.027333,61.6746667 260.738,61.516 C260.448667,61.3573333 260.201333,61.131 259.996,60.837 C259.790667,60.543 259.632,60.1883333 259.52,59.773 C259.408,59.3576667 259.352,58.8933333 259.352,58.38 C259.352,57.3533333 259.564333,56.5483333 259.989,55.965 C260.413667,55.3816667 260.99,55.09 261.718,55.09 C262.446,55.09 263.022333,55.3816667 263.447,55.965 C263.871667,56.5483333 264.084,57.3533333 264.084,58.38 C264.084,58.8933333 264.028,59.3576667 263.916,59.773 C263.804,60.1883333 263.645333,60.543 263.44,60.837 C263.234667,61.131 262.987333,61.3573333 262.698,61.516 C262.408667,61.6746667 262.082,61.754 261.718,61.754 Z M270.79,63.168 C271.172667,63.168 271.541333,63.084 271.896,62.916 C272.250667,62.748 272.563333,62.5053333 272.834,62.188 C273.104667,61.8706667 273.321667,61.481 273.485,61.019 C273.648333,60.557 273.73,60.032 273.73,59.444 C273.73,58.912 273.669333,58.4313333 273.548,58.002 C273.426667,57.5726667 273.249333,57.2063333 273.016,56.903 C272.782667,56.5996667 272.498,56.3663333 272.162,56.203 C271.826,56.0396667 271.443333,55.958 271.014,55.958 C270.659333,55.958 270.311667,56.0373333 269.971,56.196 C269.630333,56.3546667 269.315333,56.56 269.026,56.812 L269.026,56.812 L269.068,55.664 L269.068,53.116 L267.458,53.116 L267.458,63 L268.732,63 L268.872,62.272 L268.914,62.272 C269.203333,62.5613333 269.509,62.783 269.831,62.937 C270.153,63.091 270.472667,63.168 270.79,63.168 Z M270.454,61.838 C270.248667,61.838 270.027,61.796 269.789,61.712 C269.551,61.628 269.310667,61.4786667 269.068,61.264 L269.068,61.264 L269.068,58.058 C269.590667,57.5446667 270.094667,57.288 270.58,57.288 C271.102667,57.288 271.480667,57.4793333 271.714,57.862 C271.947333,58.2446667 272.064,58.7813333 272.064,59.472 C272.064,60.256 271.91,60.8463333 271.602,61.243 C271.294,61.6396667 270.911333,61.838 270.454,61.838 Z M276.908,63.168 C277.262667,63.168 277.547333,63.1213333 277.762,63.028 L277.762,63.028 L277.552,61.824 C277.486667,61.8426667 277.437667,61.852 277.405,61.852 L277.405,61.852 L277.3,61.852 C277.216,61.852 277.136667,61.8123333 277.062,61.733 C276.987333,61.6536667 276.95,61.516 276.95,61.32 L276.95,61.32 L276.95,53.116 L275.34,53.116 L275.34,61.236 C275.34,61.8333333 275.456667,62.3046667 275.69,62.65 C275.923333,62.9953333 276.329333,63.168 276.908,63.168 Z M279.946,54.922 C280.235333,54.922 280.473333,54.838 280.66,54.67 C280.846667,54.502 280.94,54.2826667 280.94,54.012 C280.94,53.7413333 280.846667,53.5196667 280.66,53.347 C280.473333,53.1743333 280.235333,53.088 279.946,53.088 C279.656667,53.088 279.418667,53.1743333 279.232,53.347 C279.045333,53.5196667 278.952,53.7413333 278.952,54.012 C278.952,54.2826667 279.045333,54.502 279.232,54.67 C279.418667,54.838 279.656667,54.922 279.946,54.922 Z M280.744,63 L280.744,56.126 L279.134,56.126 L279.134,63 L280.744,63 Z M285.196,66.038 C285.756,66.038 286.262333,65.975 286.715,65.849 C287.167667,65.723 287.552667,65.5526667 287.87,65.338 C288.187333,65.1233333 288.432333,64.8666667 288.605,64.568 C288.777667,64.2693333 288.864,63.952 288.864,63.616 C288.864,63.0186667 288.651667,62.587 288.227,62.321 C287.802333,62.055 287.174667,61.922 286.344,61.922 L286.344,61.922 L285.126,61.922 C284.706,61.922 284.414333,61.866 284.251,61.754 C284.087667,61.642 284.006,61.488 284.006,61.292 C284.006,61.1333333 284.036333,61.0073333 284.097,60.914 C284.157667,60.8206667 284.239333,60.7273333 284.342,60.634 C284.500667,60.6993333 284.659333,60.746 284.818,60.774 C284.976667,60.802 285.130667,60.816 285.28,60.816 C285.644,60.816 285.984667,60.7646667 286.302,60.662 C286.619333,60.5593333 286.894667,60.41 287.128,60.214 C287.361333,60.018 287.545667,59.7753333 287.681,59.486 C287.816333,59.1966667 287.884,58.8606667 287.884,58.478 C287.884,58.2353333 287.846667,58.0136667 287.772,57.813 C287.697333,57.6123333 287.604,57.4466667 287.492,57.316 L287.492,57.316 L288.752,57.316 L288.752,56.126 L286.288,56.126 C286.148,56.0793333 285.991667,56.0396667 285.819,56.007 C285.646333,55.9743333 285.466667,55.958 285.28,55.958 C284.916,55.958 284.570667,56.0116667 284.244,56.119 C283.917333,56.2263333 283.630333,56.385 283.383,56.595 C283.135667,56.805 282.937333,57.064 282.788,57.372 C282.638667,57.68 282.564,58.03 282.564,58.422 C282.564,58.8326667 282.655,59.1943333 282.837,59.507 C283.019,59.8196667 283.226667,60.0646667 283.46,60.242 L283.46,60.242 L283.46,60.298 C283.264,60.438 283.089,60.6176667 282.935,60.837 C282.781,61.0563333 282.704,61.3013333 282.704,61.572 C282.704,61.852 282.762333,62.0853333 282.879,62.272 C282.995667,62.4586667 283.142667,62.608 283.32,62.72 L283.32,62.72 L283.32,62.776 C283.002667,62.972 282.76,63.1936667 282.592,63.441 C282.424,63.6883333 282.34,63.9566667 282.34,64.246 C282.34,64.5446667 282.412333,64.806 282.557,65.03 C282.701667,65.254 282.9,65.4406667 283.152,65.59 C283.404,65.7393333 283.705,65.8513333 284.055,65.926 C284.405,66.0006667 284.785333,66.038 285.196,66.038 Z M285.28,59.808 C284.944,59.808 284.659333,59.689 284.426,59.451 C284.192667,59.213 284.076,58.87 284.076,58.422 C284.076,57.9833333 284.192667,57.6473333 284.426,57.414 C284.659333,57.1806667 284.944,57.064 285.28,57.064 C285.616,57.064 285.898333,57.183 286.127,57.421 C286.355667,57.659 286.47,57.9926667 286.47,58.422 C286.47,58.87 286.353333,59.213 286.12,59.451 C285.886667,59.689 285.606667,59.808 285.28,59.808 Z M285.448,64.988 C284.897333,64.988 284.465667,64.9016667 284.153,64.729 C283.840333,64.5563333 283.684,64.316 283.684,64.008 C283.684,63.672 283.861333,63.3686667 284.216,63.098 C284.468,63.1633333 284.780667,63.196 285.154,63.196 L285.154,63.196 L286.092,63.196 C286.484,63.196 286.785,63.2426667 286.995,63.336 C287.205,63.4293333 287.31,63.6113333 287.31,63.882 C287.31,64.1806667 287.139667,64.4396667 286.799,64.659 C286.458333,64.8783333 286.008,64.988 285.448,64.988 Z M291.496,63.168 C291.906667,63.168 292.287,63.0793333 292.637,62.902 C292.987,62.7246667 293.316,62.5053333 293.624,62.244 L293.624,62.244 L293.68,62.244 L293.792,63 L295.122,63 L295.122,58.926 C295.122,57.9646667 294.909667,57.2296667 294.485,56.721 C294.060333,56.2123333 293.418667,55.958 292.56,55.958 C292.009333,55.958 291.496,56.0466667 291.02,56.224 C290.544,56.4013333 290.114667,56.6113333 289.732,56.854 L289.732,56.854 L290.32,57.932 C290.628,57.7453333 290.943,57.5866667 291.265,57.456 C291.587,57.3253333 291.916,57.26 292.252,57.26 C292.485333,57.26 292.681333,57.295 292.84,57.365 C292.998667,57.435 293.127,57.533 293.225,57.659 C293.323,57.785 293.393,57.9296667 293.435,58.093 C293.477,58.2563333 293.502667,58.4266667 293.512,58.604 C292.802667,58.6786667 292.193667,58.786 291.685,58.926 C291.176333,59.066 290.756333,59.2386667 290.425,59.444 C290.093667,59.6493333 289.851,59.8943333 289.697,60.179 C289.543,60.4636667 289.466,60.788 289.466,61.152 C289.466,61.7586667 289.652667,62.2463333 290.026,62.615 C290.399333,62.9836667 290.889333,63.168 291.496,63.168 Z M292.014,61.908 C291.724667,61.908 291.486667,61.838 291.3,61.698 C291.113333,61.558 291.02,61.334 291.02,61.026 C291.02,60.858 291.062,60.6993333 291.146,60.55 C291.23,60.4006667 291.37,60.2676667 291.566,60.151 C291.762,60.0343333 292.018667,59.9293333 292.336,59.836 C292.653333,59.7426667 293.045333,59.668 293.512,59.612 L293.512,59.612 L293.512,61.152 C293.250667,61.3946667 293.005667,61.5813333 292.777,61.712 C292.548333,61.8426667 292.294,61.908 292.014,61.908 Z M299.252,63.168 C299.522667,63.168 299.777,63.1423333 300.015,63.091 C300.253,63.0396667 300.465333,62.9813333 300.652,62.916 L300.652,62.916 L300.372,61.726 C300.269333,61.7726667 300.155,61.81 300.029,61.838 C299.903,61.866 299.779333,61.88 299.658,61.88 C299.014,61.88 298.692,61.4786667 298.692,60.676 L298.692,60.676 L298.692,57.4 L300.442,57.4 L300.442,56.126 L298.692,56.126 L298.692,54.25 L297.348,54.25 L297.152,56.126 L296.088,56.196 L296.088,57.4 L297.068,57.4 L297.068,60.676 C297.068,61.0493333 297.107667,61.3876667 297.187,61.691 C297.266333,61.9943333 297.392333,62.2556667 297.565,62.475 C297.737667,62.6943333 297.961667,62.8646667 298.237,62.986 C298.512333,63.1073333 298.850667,63.168 299.252,63.168 Z M302.696,54.922 C302.985333,54.922 303.223333,54.838 303.41,54.67 C303.596667,54.502 303.69,54.2826667 303.69,54.012 C303.69,53.7413333 303.596667,53.5196667 303.41,53.347 C303.223333,53.1743333 302.985333,53.088 302.696,53.088 C302.406667,53.088 302.168667,53.1743333 301.982,53.347 C301.795333,53.5196667 301.702,53.7413333 301.702,54.012 C301.702,54.2826667 301.795333,54.502 301.982,54.67 C302.168667,54.838 302.406667,54.922 302.696,54.922 Z M303.494,63 L303.494,56.126 L301.884,56.126 L301.884,63 L303.494,63 Z M308.366,63.168 C308.795333,63.168 309.208333,63.0886667 309.605,62.93 C310.001667,62.7713333 310.349333,62.538 310.648,62.23 C310.946667,61.922 311.187,61.544 311.369,61.096 C311.551,60.648 311.642,60.1393333 311.642,59.57 C311.642,59.0006667 311.551,58.492 311.369,58.044 C311.187,57.596 310.946667,57.218 310.648,56.91 C310.349333,56.602 310.001667,56.3663333 309.605,56.203 C309.208333,56.0396667 308.795333,55.958 308.366,55.958 C307.936667,55.958 307.526,56.0396667 307.134,56.203 C306.742,56.3663333 306.394333,56.602 306.091,56.91 C305.787667,57.218 305.547333,57.596 305.37,58.044 C305.192667,58.492 305.104,59.0006667 305.104,59.57 C305.104,60.1393333 305.192667,60.648 305.37,61.096 C305.547333,61.544 305.787667,61.922 306.091,62.23 C306.394333,62.538 306.742,62.7713333 307.134,62.93 C307.526,63.0886667 307.936667,63.168 308.366,63.168 Z M308.366,61.852 C307.862,61.852 307.467667,61.6443333 307.183,61.229 C306.898333,60.8136667 306.756,60.2606667 306.756,59.57 C306.756,58.87 306.898333,58.3123333 307.183,57.897 C307.467667,57.4816667 307.862,57.274 308.366,57.274 C308.87,57.274 309.266667,57.4816667 309.556,57.897 C309.845333,58.3123333 309.99,58.87 309.99,59.57 C309.99,60.2606667 309.845333,60.8136667 309.556,61.229 C309.266667,61.6443333 308.87,61.852 308.366,61.852 Z M314.848,63 L314.848,58.198 C315.137333,57.918 315.396333,57.7056667 315.625,57.561 C315.853667,57.4163333 316.117333,57.344 316.416,57.344 C316.798667,57.344 317.074,57.4606667 317.242,57.694 C317.41,57.9273333 317.494,58.3286667 317.494,58.898 L317.494,58.898 L317.494,63 L319.104,63 L319.104,58.688 C319.104,57.8106667 318.936,57.1363333 318.6,56.665 C318.264,56.1936667 317.727333,55.958 316.99,55.958 C316.514,55.958 316.096333,56.0653333 315.737,56.28 C315.377667,56.4946667 315.044,56.7513333 314.736,57.05 L314.736,57.05 L314.68,57.05 L314.568,56.126 L313.238,56.126 L313.238,63 L314.848,63 Z M322.996,63.168 C323.425333,63.168 323.808,63.112 324.144,63 C324.48,62.888 324.76,62.7363333 324.984,62.545 C325.208,62.3536667 325.378333,62.1296667 325.495,61.873 C325.611667,61.6163333 325.67,61.3386667 325.67,61.04 C325.67,60.7226667 325.611667,60.4496667 325.495,60.221 C325.378333,59.9923333 325.224333,59.7986667 325.033,59.64 C324.841667,59.4813333 324.629333,59.3483333 324.396,59.241 C324.162667,59.1336667 323.929333,59.038 323.696,58.954 C323.509333,58.8886667 323.329667,58.8233333 323.157,58.758 C322.984333,58.6926667 322.832667,58.6226667 322.702,58.548 C322.571333,58.4733333 322.466333,58.387 322.387,58.289 C322.307667,58.191 322.268,58.072 322.268,57.932 C322.268,57.7173333 322.349667,57.5376667 322.513,57.393 C322.676333,57.2483333 322.930667,57.176 323.276,57.176 C323.546667,57.176 323.805667,57.2296667 324.053,57.337 C324.300333,57.4443333 324.545333,57.5866667 324.788,57.764 L324.788,57.764 L325.53,56.784 C325.25,56.5693333 324.918667,56.378 324.536,56.21 C324.153333,56.042 323.724,55.958 323.248,55.958 C322.473333,55.958 321.862,56.1493333 321.414,56.532 C320.966,56.9146667 320.742,57.4093333 320.742,58.016 C320.742,58.3053333 320.800333,58.555 320.917,58.765 C321.033667,58.975 321.183,59.1593333 321.365,59.318 C321.547,59.4766667 321.754667,59.612 321.988,59.724 C322.221333,59.836 322.45,59.934 322.674,60.018 C322.851333,60.0926667 323.028667,60.165 323.206,60.235 C323.383333,60.305 323.542,60.382 323.682,60.466 C323.822,60.55 323.934,60.6456667 324.018,60.753 C324.102,60.8603333 324.144,60.984 324.144,61.124 C324.144,61.3666667 324.055333,61.565 323.878,61.719 C323.700667,61.873 323.425333,61.95 323.052,61.95 C322.697333,61.95 322.368333,61.8823333 322.065,61.747 C321.761667,61.6116667 321.456,61.4226667 321.148,61.18 L321.148,61.18 L320.392,62.216 C320.728,62.4866667 321.127,62.713 321.589,62.895 C322.051,63.077 322.52,63.168 322.996,63.168 Z M260.948,82.54 L260.948,81.126 C261.62,81.0326667 262.149667,80.7713333 262.537,80.342 C262.924333,79.9126667 263.118,79.362 263.118,78.69 C263.118,78.186 263.022333,77.773 262.831,77.451 C262.639667,77.129 262.399333,76.8583333 262.11,76.639 C261.820667,76.4196667 261.505667,76.233 261.165,76.079 C260.824333,75.925 260.509333,75.7663333 260.22,75.603 C259.930667,75.4396667 259.690333,75.2506667 259.499,75.036 C259.307667,74.8213333 259.212,74.546 259.212,74.21 C259.212,73.7993333 259.338,73.4726667 259.59,73.23 C259.842,72.9873333 260.182667,72.866 260.612,72.866 C260.994667,72.866 261.309667,72.936 261.557,73.076 C261.804333,73.216 262.058667,73.412 262.32,73.664 L262.32,73.664 L262.936,72.978 C262.684,72.7073333 262.401667,72.474 262.089,72.278 C261.776333,72.082 261.396,71.9606667 260.948,71.914 L260.948,71.914 L260.948,70.528 L260.108,70.528 L260.108,71.942 C259.492,72.0353333 258.999667,72.2896667 258.631,72.705 C258.262333,73.1203333 258.078,73.6406667 258.078,74.266 C258.078,74.7233333 258.173667,75.099 258.365,75.393 C258.556333,75.687 258.796667,75.9366667 259.086,76.142 C259.375333,76.3473333 259.690333,76.5293333 260.031,76.688 C260.371667,76.8466667 260.686667,77.017 260.976,77.199 C261.265333,77.381 261.505667,77.5956667 261.697,77.843 C261.888333,78.0903333 261.984,78.4006667 261.984,78.774 C261.984,79.2126667 261.855667,79.5626667 261.599,79.824 C261.342333,80.0853333 260.952667,80.216 260.43,80.216 C260.000667,80.216 259.606333,80.125 259.247,79.943 C258.887667,79.761 258.558667,79.5393333 258.26,79.278 L258.26,79.278 L257.728,80.076 C258.026667,80.3466667 258.386,80.5823333 258.806,80.783 C259.226,80.9836667 259.66,81.1073333 260.108,81.154 L260.108,81.154 L260.108,82.54 L260.948,82.54 Z M266.828,81.168 C267.276,81.168 267.703,81.077 268.109,80.895 C268.515,80.713 268.876667,80.4236667 269.194,80.027 C269.511333,79.6303333 269.763333,79.117 269.95,78.487 C270.136667,77.857 270.23,77.094 270.23,76.198 C270.23,75.4793333 270.153,74.8516667 269.999,74.315 C269.845,73.7783333 269.630333,73.3303333 269.355,72.971 C269.079667,72.6116667 268.753,72.3433333 268.375,72.166 C267.997,71.9886667 267.588667,71.9 267.15,71.9 C266.795333,71.9 266.457,71.97 266.135,72.11 C265.813,72.25 265.533,72.446 265.295,72.698 C265.057,72.95 264.868,73.251 264.728,73.601 C264.588,73.951 264.518,74.3406667 264.518,74.77 C264.518,75.694 264.746667,76.3846667 265.204,76.842 C265.661333,77.2993333 266.277333,77.528 267.052,77.528 C267.425333,77.528 267.798667,77.4253333 268.172,77.22 C268.545333,77.0146667 268.872,76.7346667 269.152,76.38 C269.142667,77.0986667 269.072667,77.7006667 268.942,78.186 C268.811333,78.6713333 268.638667,79.0656667 268.424,79.369 C268.209333,79.6723333 267.962,79.8893333 267.682,80.02 C267.402,80.1506667 267.103333,80.216 266.786,80.216 C266.506,80.216 266.237667,80.1506667 265.981,80.02 C265.724333,79.8893333 265.502667,79.7166667 265.316,79.502 L265.316,79.502 L264.672,80.23 C264.914667,80.5006667 265.215667,80.7246667 265.575,80.902 C265.934333,81.0793333 266.352,81.168 266.828,81.168 Z M267.248,76.66 C266.688,76.66 266.272667,76.492 266.002,76.156 C265.731333,75.82 265.596,75.358 265.596,74.77 C265.596,74.4806667 265.635667,74.2146667 265.715,73.972 C265.794333,73.7293333 265.904,73.5216667 266.044,73.349 C266.184,73.1763333 266.349667,73.0433333 266.541,72.95 C266.732333,72.8566667 266.935333,72.81 267.15,72.81 C267.719333,72.81 268.172,73.034 268.508,73.482 C268.844,73.93 269.049333,74.5926667 269.124,75.47 C268.834667,75.89 268.524333,76.1933333 268.193,76.38 C267.861667,76.5666667 267.546667,76.66 267.248,76.66 Z M274.22,81.168 C274.630667,81.168 275.013333,81.1096667 275.368,80.993 C275.722667,80.8763333 276.033,80.7083333 276.299,80.489 C276.565,80.2696667 276.775,80.0013333 276.929,79.684 C277.083,79.3666667 277.16,79.012 277.16,78.62 C277.16,78.312 277.111,78.032 277.013,77.78 C276.915,77.528 276.777333,77.3063333 276.6,77.115 C276.422667,76.9236667 276.217333,76.765 275.984,76.639 C275.750667,76.513 275.498667,76.4173333 275.228,76.352 L275.228,76.352 L275.228,76.296 C275.713333,76.1093333 276.105333,75.8433333 276.404,75.498 C276.702667,75.1526667 276.852,74.7093333 276.852,74.168 C276.852,73.804 276.786667,73.482 276.656,73.202 C276.525333,72.922 276.341,72.6863333 276.103,72.495 C275.865,72.3036667 275.582667,72.1566667 275.256,72.054 C274.929333,71.9513333 274.57,71.9 274.178,71.9 C273.646,71.9 273.172333,72.005 272.757,72.215 C272.341667,72.425 271.961333,72.6933333 271.616,73.02 L271.616,73.02 L272.232,73.748 C272.502667,73.4773333 272.794333,73.258 273.107,73.09 C273.419667,72.922 273.762667,72.838 274.136,72.838 C274.612,72.838 274.987667,72.964 275.263,73.216 C275.538333,73.468 275.676,73.8133333 275.676,74.252 C275.676,74.4853333 275.634,74.7046667 275.55,74.91 C275.466,75.1153333 275.323667,75.2926667 275.123,75.442 C274.922333,75.5913333 274.661,75.708 274.339,75.792 C274.017,75.876 273.618,75.918 273.142,75.918 L273.142,75.918 L273.142,76.8 C273.674,76.8 274.122,76.842 274.486,76.926 C274.85,77.01 275.144,77.1313333 275.368,77.29 C275.592,77.4486667 275.753,77.6376667 275.851,77.857 C275.949,78.0763333 275.998,78.3166667 275.998,78.578 C275.998,79.082 275.825333,79.481 275.48,79.775 C275.134667,80.069 274.691333,80.216 274.15,80.216 C273.618,80.216 273.172333,80.1086667 272.813,79.894 C272.453667,79.6793333 272.138667,79.432 271.868,79.152 L271.868,79.152 L271.28,79.908 C271.429333,80.076 271.599667,80.2346667 271.791,80.384 C271.982333,80.5333333 272.199333,80.6663333 272.442,80.783 C272.684667,80.8996667 272.953,80.993 273.247,81.063 C273.541,81.133 273.865333,81.168 274.22,81.168 Z M280.744,81.168 C281.192,81.168 281.619,81.077 282.025,80.895 C282.431,80.713 282.792667,80.4236667 283.11,80.027 C283.427333,79.6303333 283.679333,79.117 283.866,78.487 C284.052667,77.857 284.146,77.094 284.146,76.198 C284.146,75.4793333 284.069,74.8516667 283.915,74.315 C283.761,73.7783333 283.546333,73.3303333 283.271,72.971 C282.995667,72.6116667 282.669,72.3433333 282.291,72.166 C281.913,71.9886667 281.504667,71.9 281.066,71.9 C280.711333,71.9 280.373,71.97 280.051,72.11 C279.729,72.25 279.449,72.446 279.211,72.698 C278.973,72.95 278.784,73.251 278.644,73.601 C278.504,73.951 278.434,74.3406667 278.434,74.77 C278.434,75.694 278.662667,76.3846667 279.12,76.842 C279.577333,77.2993333 280.193333,77.528 280.968,77.528 C281.341333,77.528 281.714667,77.4253333 282.088,77.22 C282.461333,77.0146667 282.788,76.7346667 283.068,76.38 C283.058667,77.0986667 282.988667,77.7006667 282.858,78.186 C282.727333,78.6713333 282.554667,79.0656667 282.34,79.369 C282.125333,79.6723333 281.878,79.8893333 281.598,80.02 C281.318,80.1506667 281.019333,80.216 280.702,80.216 C280.422,80.216 280.153667,80.1506667 279.897,80.02 C279.640333,79.8893333 279.418667,79.7166667 279.232,79.502 L279.232,79.502 L278.588,80.23 C278.830667,80.5006667 279.131667,80.7246667 279.491,80.902 C279.850333,81.0793333 280.268,81.168 280.744,81.168 Z M281.164,76.66 C280.604,76.66 280.188667,76.492 279.918,76.156 C279.647333,75.82 279.512,75.358 279.512,74.77 C279.512,74.4806667 279.551667,74.2146667 279.631,73.972 C279.710333,73.7293333 279.82,73.5216667 279.96,73.349 C280.1,73.1763333 280.265667,73.0433333 280.457,72.95 C280.648333,72.8566667 280.851333,72.81 281.066,72.81 C281.635333,72.81 282.088,73.034 282.424,73.482 C282.76,73.93 282.965333,74.5926667 283.04,75.47 C282.750667,75.89 282.440333,76.1933333 282.109,76.38 C281.777667,76.5666667 281.462667,76.66 281.164,76.66 Z M289.018,81 C289.531333,81 290.002667,80.944 290.432,80.832 C290.861333,80.72 291.23,80.552 291.538,80.328 C291.846,80.104 292.084,79.824 292.252,79.488 C292.42,79.152 292.504,78.76 292.504,78.312 C292.504,77.6773333 292.331333,77.178 291.986,76.814 C291.640667,76.45 291.188,76.2166667 290.628,76.114 L290.628,76.114 L290.628,76.058 C291.066667,75.918 291.400333,75.6636667 291.629,75.295 C291.857667,74.9263333 291.972,74.5133333 291.972,74.056 C291.972,73.6546667 291.895,73.3116667 291.741,73.027 C291.587,72.7423333 291.372333,72.5113333 291.097,72.334 C290.821667,72.1566667 290.490333,72.026 290.103,71.942 C289.715667,71.858 289.288667,71.816 288.822,71.816 L288.822,71.816 L286.092,71.816 L286.092,81 L289.018,81 Z M288.612,75.722 L287.254,75.722 L287.254,72.74 L288.668,72.74 C289.386667,72.74 289.925667,72.852 290.285,73.076 C290.644333,73.3 290.824,73.678 290.824,74.21 C290.824,74.6766667 290.651333,75.0453333 290.306,75.316 C289.960667,75.5866667 289.396,75.722 288.612,75.722 L288.612,75.722 Z M288.85,80.076 L287.254,80.076 L287.254,76.618 L288.85,76.618 C289.662,76.618 290.282667,76.751 290.712,77.017 C291.141333,77.283 291.356,77.7006667 291.356,78.27 C291.356,78.886 291.136667,79.341 290.698,79.635 C290.259333,79.929 289.643333,80.076 288.85,80.076 L288.85,80.076 Z" id="Obligations$939B" fill="#666666" fill-rule="nonzero"></path>
                <path d="M375.592,63.168 C376.124,63.168 376.602333,63.091 377.027,62.937 C377.451667,62.783 377.815667,62.538 378.119,62.202 C378.422333,61.866 378.653333,61.4343333 378.812,60.907 C378.970667,60.3796667 379.05,59.738 379.05,58.982 L379.05,58.982 L379.05,53.844 L377.496,53.844 L377.496,59.108 C377.496,59.6026667 377.449333,60.0203333 377.356,60.361 C377.262667,60.7016667 377.132,60.9746667 376.964,61.18 C376.796,61.3853333 376.595333,61.5323333 376.362,61.621 C376.128667,61.7096667 375.872,61.754 375.592,61.754 C375.312,61.754 375.06,61.7096667 374.836,61.621 C374.612,61.5323333 374.418333,61.3853333 374.255,61.18 C374.091667,60.9746667 373.965667,60.7016667 373.877,60.361 C373.788333,60.0203333 373.744,59.6026667 373.744,59.108 L373.744,59.108 L373.744,53.844 L372.12,53.844 L372.12,58.982 C372.12,59.738 372.201667,60.3796667 372.365,60.907 C372.528333,61.4343333 372.761667,61.866 373.065,62.202 C373.368333,62.538 373.732333,62.783 374.157,62.937 C374.581667,63.091 375.06,63.168 375.592,63.168 Z M382.802,63 L382.802,58.198 C383.091333,57.918 383.350333,57.7056667 383.579,57.561 C383.807667,57.4163333 384.071333,57.344 384.37,57.344 C384.752667,57.344 385.028,57.4606667 385.196,57.694 C385.364,57.9273333 385.448,58.3286667 385.448,58.898 L385.448,58.898 L385.448,63 L387.058,63 L387.058,58.688 C387.058,57.8106667 386.89,57.1363333 386.554,56.665 C386.218,56.1936667 385.681333,55.958 384.944,55.958 C384.468,55.958 384.050333,56.0653333 383.691,56.28 C383.331667,56.4946667 382.998,56.7513333 382.69,57.05 L382.69,57.05 L382.634,57.05 L382.522,56.126 L381.192,56.126 L381.192,63 L382.802,63 Z M391.846,63.168 C392.275333,63.168 392.688333,63.0886667 393.085,62.93 C393.481667,62.7713333 393.829333,62.538 394.128,62.23 C394.426667,61.922 394.667,61.544 394.849,61.096 C395.031,60.648 395.122,60.1393333 395.122,59.57 C395.122,59.0006667 395.031,58.492 394.849,58.044 C394.667,57.596 394.426667,57.218 394.128,56.91 C393.829333,56.602 393.481667,56.3663333 393.085,56.203 C392.688333,56.0396667 392.275333,55.958 391.846,55.958 C391.416667,55.958 391.006,56.0396667 390.614,56.203 C390.222,56.3663333 389.874333,56.602 389.571,56.91 C389.267667,57.218 389.027333,57.596 388.85,58.044 C388.672667,58.492 388.584,59.0006667 388.584,59.57 C388.584,60.1393333 388.672667,60.648 388.85,61.096 C389.027333,61.544 389.267667,61.922 389.571,62.23 C389.874333,62.538 390.222,62.7713333 390.614,62.93 C391.006,63.0886667 391.416667,63.168 391.846,63.168 Z M391.846,61.852 C391.342,61.852 390.947667,61.6443333 390.663,61.229 C390.378333,60.8136667 390.236,60.2606667 390.236,59.57 C390.236,58.87 390.378333,58.3123333 390.663,57.897 C390.947667,57.4816667 391.342,57.274 391.846,57.274 C392.35,57.274 392.746667,57.4816667 393.036,57.897 C393.325333,58.3123333 393.47,58.87 393.47,59.57 C393.47,60.2606667 393.325333,60.8136667 393.036,61.229 C392.746667,61.6443333 392.35,61.852 391.846,61.852 Z M400.05,63.168 C400.432667,63.168 400.801333,63.084 401.156,62.916 C401.510667,62.748 401.823333,62.5053333 402.094,62.188 C402.364667,61.8706667 402.581667,61.481 402.745,61.019 C402.908333,60.557 402.99,60.032 402.99,59.444 C402.99,58.912 402.929333,58.4313333 402.808,58.002 C402.686667,57.5726667 402.509333,57.2063333 402.276,56.903 C402.042667,56.5996667 401.758,56.3663333 401.422,56.203 C401.086,56.0396667 400.703333,55.958 400.274,55.958 C399.919333,55.958 399.571667,56.0373333 399.231,56.196 C398.890333,56.3546667 398.575333,56.56 398.286,56.812 L398.286,56.812 L398.328,55.664 L398.328,53.116 L396.718,53.116 L396.718,63 L397.992,63 L398.132,62.272 L398.174,62.272 C398.463333,62.5613333 398.769,62.783 399.091,62.937 C399.413,63.091 399.732667,63.168 400.05,63.168 Z M399.714,61.838 C399.508667,61.838 399.287,61.796 399.049,61.712 C398.811,61.628 398.570667,61.4786667 398.328,61.264 L398.328,61.264 L398.328,58.058 C398.850667,57.5446667 399.354667,57.288 399.84,57.288 C400.362667,57.288 400.740667,57.4793333 400.974,57.862 C401.207333,58.2446667 401.324,58.7813333 401.324,59.472 C401.324,60.256 401.17,60.8463333 400.862,61.243 C400.554,61.6396667 400.171333,61.838 399.714,61.838 Z M406.168,63.168 C406.522667,63.168 406.807333,63.1213333 407.022,63.028 L407.022,63.028 L406.812,61.824 C406.746667,61.8426667 406.697667,61.852 406.665,61.852 L406.665,61.852 L406.56,61.852 C406.476,61.852 406.396667,61.8123333 406.322,61.733 C406.247333,61.6536667 406.21,61.516 406.21,61.32 L406.21,61.32 L406.21,53.116 L404.6,53.116 L404.6,61.236 C404.6,61.8333333 404.716667,62.3046667 404.95,62.65 C405.183333,62.9953333 405.589333,63.168 406.168,63.168 Z M409.206,54.922 C409.495333,54.922 409.733333,54.838 409.92,54.67 C410.106667,54.502 410.2,54.2826667 410.2,54.012 C410.2,53.7413333 410.106667,53.5196667 409.92,53.347 C409.733333,53.1743333 409.495333,53.088 409.206,53.088 C408.916667,53.088 408.678667,53.1743333 408.492,53.347 C408.305333,53.5196667 408.212,53.7413333 408.212,54.012 C408.212,54.2826667 408.305333,54.502 408.492,54.67 C408.678667,54.838 408.916667,54.922 409.206,54.922 Z M410.004,63 L410.004,56.126 L408.394,56.126 L408.394,63 L410.004,63 Z M414.456,66.038 C415.016,66.038 415.522333,65.975 415.975,65.849 C416.427667,65.723 416.812667,65.5526667 417.13,65.338 C417.447333,65.1233333 417.692333,64.8666667 417.865,64.568 C418.037667,64.2693333 418.124,63.952 418.124,63.616 C418.124,63.0186667 417.911667,62.587 417.487,62.321 C417.062333,62.055 416.434667,61.922 415.604,61.922 L415.604,61.922 L414.386,61.922 C413.966,61.922 413.674333,61.866 413.511,61.754 C413.347667,61.642 413.266,61.488 413.266,61.292 C413.266,61.1333333 413.296333,61.0073333 413.357,60.914 C413.417667,60.8206667 413.499333,60.7273333 413.602,60.634 C413.760667,60.6993333 413.919333,60.746 414.078,60.774 C414.236667,60.802 414.390667,60.816 414.54,60.816 C414.904,60.816 415.244667,60.7646667 415.562,60.662 C415.879333,60.5593333 416.154667,60.41 416.388,60.214 C416.621333,60.018 416.805667,59.7753333 416.941,59.486 C417.076333,59.1966667 417.144,58.8606667 417.144,58.478 C417.144,58.2353333 417.106667,58.0136667 417.032,57.813 C416.957333,57.6123333 416.864,57.4466667 416.752,57.316 L416.752,57.316 L418.012,57.316 L418.012,56.126 L415.548,56.126 C415.408,56.0793333 415.251667,56.0396667 415.079,56.007 C414.906333,55.9743333 414.726667,55.958 414.54,55.958 C414.176,55.958 413.830667,56.0116667 413.504,56.119 C413.177333,56.2263333 412.890333,56.385 412.643,56.595 C412.395667,56.805 412.197333,57.064 412.048,57.372 C411.898667,57.68 411.824,58.03 411.824,58.422 C411.824,58.8326667 411.915,59.1943333 412.097,59.507 C412.279,59.8196667 412.486667,60.0646667 412.72,60.242 L412.72,60.242 L412.72,60.298 C412.524,60.438 412.349,60.6176667 412.195,60.837 C412.041,61.0563333 411.964,61.3013333 411.964,61.572 C411.964,61.852 412.022333,62.0853333 412.139,62.272 C412.255667,62.4586667 412.402667,62.608 412.58,62.72 L412.58,62.72 L412.58,62.776 C412.262667,62.972 412.02,63.1936667 411.852,63.441 C411.684,63.6883333 411.6,63.9566667 411.6,64.246 C411.6,64.5446667 411.672333,64.806 411.817,65.03 C411.961667,65.254 412.16,65.4406667 412.412,65.59 C412.664,65.7393333 412.965,65.8513333 413.315,65.926 C413.665,66.0006667 414.045333,66.038 414.456,66.038 Z M414.54,59.808 C414.204,59.808 413.919333,59.689 413.686,59.451 C413.452667,59.213 413.336,58.87 413.336,58.422 C413.336,57.9833333 413.452667,57.6473333 413.686,57.414 C413.919333,57.1806667 414.204,57.064 414.54,57.064 C414.876,57.064 415.158333,57.183 415.387,57.421 C415.615667,57.659 415.73,57.9926667 415.73,58.422 C415.73,58.87 415.613333,59.213 415.38,59.451 C415.146667,59.689 414.866667,59.808 414.54,59.808 Z M414.708,64.988 C414.157333,64.988 413.725667,64.9016667 413.413,64.729 C413.100333,64.5563333 412.944,64.316 412.944,64.008 C412.944,63.672 413.121333,63.3686667 413.476,63.098 C413.728,63.1633333 414.040667,63.196 414.414,63.196 L414.414,63.196 L415.352,63.196 C415.744,63.196 416.045,63.2426667 416.255,63.336 C416.465,63.4293333 416.57,63.6113333 416.57,63.882 C416.57,64.1806667 416.399667,64.4396667 416.059,64.659 C415.718333,64.8783333 415.268,64.988 414.708,64.988 Z M420.756,63.168 C421.166667,63.168 421.547,63.0793333 421.897,62.902 C422.247,62.7246667 422.576,62.5053333 422.884,62.244 L422.884,62.244 L422.94,62.244 L423.052,63 L424.382,63 L424.382,58.926 C424.382,57.9646667 424.169667,57.2296667 423.745,56.721 C423.320333,56.2123333 422.678667,55.958 421.82,55.958 C421.269333,55.958 420.756,56.0466667 420.28,56.224 C419.804,56.4013333 419.374667,56.6113333 418.992,56.854 L418.992,56.854 L419.58,57.932 C419.888,57.7453333 420.203,57.5866667 420.525,57.456 C420.847,57.3253333 421.176,57.26 421.512,57.26 C421.745333,57.26 421.941333,57.295 422.1,57.365 C422.258667,57.435 422.387,57.533 422.485,57.659 C422.583,57.785 422.653,57.9296667 422.695,58.093 C422.737,58.2563333 422.762667,58.4266667 422.772,58.604 C422.062667,58.6786667 421.453667,58.786 420.945,58.926 C420.436333,59.066 420.016333,59.2386667 419.685,59.444 C419.353667,59.6493333 419.111,59.8943333 418.957,60.179 C418.803,60.4636667 418.726,60.788 418.726,61.152 C418.726,61.7586667 418.912667,62.2463333 419.286,62.615 C419.659333,62.9836667 420.149333,63.168 420.756,63.168 Z M421.274,61.908 C420.984667,61.908 420.746667,61.838 420.56,61.698 C420.373333,61.558 420.28,61.334 420.28,61.026 C420.28,60.858 420.322,60.6993333 420.406,60.55 C420.49,60.4006667 420.63,60.2676667 420.826,60.151 C421.022,60.0343333 421.278667,59.9293333 421.596,59.836 C421.913333,59.7426667 422.305333,59.668 422.772,59.612 L422.772,59.612 L422.772,61.152 C422.510667,61.3946667 422.265667,61.5813333 422.037,61.712 C421.808333,61.8426667 421.554,61.908 421.274,61.908 Z M428.512,63.168 C428.782667,63.168 429.037,63.1423333 429.275,63.091 C429.513,63.0396667 429.725333,62.9813333 429.912,62.916 L429.912,62.916 L429.632,61.726 C429.529333,61.7726667 429.415,61.81 429.289,61.838 C429.163,61.866 429.039333,61.88 428.918,61.88 C428.274,61.88 427.952,61.4786667 427.952,60.676 L427.952,60.676 L427.952,57.4 L429.702,57.4 L429.702,56.126 L427.952,56.126 L427.952,54.25 L426.608,54.25 L426.412,56.126 L425.348,56.196 L425.348,57.4 L426.328,57.4 L426.328,60.676 C426.328,61.0493333 426.367667,61.3876667 426.447,61.691 C426.526333,61.9943333 426.652333,62.2556667 426.825,62.475 C426.997667,62.6943333 427.221667,62.8646667 427.497,62.986 C427.772333,63.1073333 428.110667,63.168 428.512,63.168 Z M433.86,63.168 C434.298667,63.168 434.718667,63.098 435.12,62.958 C435.521333,62.818 435.885333,62.6406667 436.212,62.426 L436.212,62.426 L435.666,61.418 C435.414,61.5766667 435.159667,61.7003333 434.903,61.789 C434.646333,61.8776667 434.368667,61.922 434.07,61.922 C433.51,61.922 433.050333,61.7563333 432.691,61.425 C432.331667,61.0936667 432.114667,60.62 432.04,60.004 L432.04,60.004 L436.408,60.004 C436.426667,59.92 436.443,59.808 436.457,59.668 C436.471,59.528 436.478,59.3786667 436.478,59.22 C436.478,58.744 436.417333,58.3053333 436.296,57.904 C436.174667,57.5026667 435.995,57.1573333 435.757,56.868 C435.519,56.5786667 435.222667,56.3546667 434.868,56.196 C434.513333,56.0373333 434.102667,55.958 433.636,55.958 C433.234667,55.958 432.842667,56.042 432.46,56.21 C432.077333,56.378 431.739,56.616 431.445,56.924 C431.151,57.232 430.915333,57.61 430.738,58.058 C430.560667,58.506 430.472,59.01 430.472,59.57 C430.472,60.1393333 430.558333,60.6456667 430.731,61.089 C430.903667,61.5323333 431.144,61.908 431.452,62.216 C431.76,62.524 432.119333,62.7596667 432.53,62.923 C432.940667,63.0863333 433.384,63.168 433.86,63.168 Z M435.078,58.912 L432.026,58.912 C432.100667,58.352 432.292,57.9273333 432.6,57.638 C432.908,57.3486667 433.267333,57.204 433.678,57.204 C434.154,57.204 434.506333,57.3556667 434.735,57.659 C434.963667,57.9623333 435.078,58.38 435.078,58.912 L435.078,58.912 Z M440.426,63.168 C440.799333,63.168 441.154,63.0793333 441.49,62.902 C441.826,62.7246667 442.12,62.51 442.372,62.258 L442.372,62.258 L442.428,62.258 L442.54,63 L443.87,63 L443.87,53.116 L442.26,53.116 L442.26,55.608 L442.316,56.714 C442.045333,56.4806667 441.774667,56.2963333 441.504,56.161 C441.233333,56.0256667 440.902,55.958 440.51,55.958 C440.136667,55.958 439.775,56.042 439.425,56.21 C439.075,56.378 438.764667,56.616 438.494,56.924 C438.223333,57.232 438.006333,57.61 437.843,58.058 C437.679667,58.506 437.598,59.01 437.598,59.57 C437.598,60.7086667 437.852333,61.593 438.361,62.223 C438.869667,62.853 439.558,63.168 440.426,63.168 Z M440.818,61.838 C440.314,61.838 439.929,61.6443333 439.663,61.257 C439.397,60.8696667 439.264,60.3026667 439.264,59.556 C439.264,58.828 439.418,58.268 439.726,57.876 C440.034,57.484 440.412,57.288 440.86,57.288 C441.093333,57.288 441.324333,57.33 441.553,57.414 C441.781667,57.498 442.017333,57.6473333 442.26,57.862 L442.26,57.862 L442.26,61.068 C441.812,61.5813333 441.331333,61.838 440.818,61.838 Z M374.948,82.54 L374.948,81.126 C375.62,81.0326667 376.149667,80.7713333 376.537,80.342 C376.924333,79.9126667 377.118,79.362 377.118,78.69 C377.118,78.186 377.022333,77.773 376.831,77.451 C376.639667,77.129 376.399333,76.8583333 376.11,76.639 C375.820667,76.4196667 375.505667,76.233 375.165,76.079 C374.824333,75.925 374.509333,75.7663333 374.22,75.603 C373.930667,75.4396667 373.690333,75.2506667 373.499,75.036 C373.307667,74.8213333 373.212,74.546 373.212,74.21 C373.212,73.7993333 373.338,73.4726667 373.59,73.23 C373.842,72.9873333 374.182667,72.866 374.612,72.866 C374.994667,72.866 375.309667,72.936 375.557,73.076 C375.804333,73.216 376.058667,73.412 376.32,73.664 L376.32,73.664 L376.936,72.978 C376.684,72.7073333 376.401667,72.474 376.089,72.278 C375.776333,72.082 375.396,71.9606667 374.948,71.914 L374.948,71.914 L374.948,70.528 L374.108,70.528 L374.108,71.942 C373.492,72.0353333 372.999667,72.2896667 372.631,72.705 C372.262333,73.1203333 372.078,73.6406667 372.078,74.266 C372.078,74.7233333 372.173667,75.099 372.365,75.393 C372.556333,75.687 372.796667,75.9366667 373.086,76.142 C373.375333,76.3473333 373.690333,76.5293333 374.031,76.688 C374.371667,76.8466667 374.686667,77.017 374.976,77.199 C375.265333,77.381 375.505667,77.5956667 375.697,77.843 C375.888333,78.0903333 375.984,78.4006667 375.984,78.774 C375.984,79.2126667 375.855667,79.5626667 375.599,79.824 C375.342333,80.0853333 374.952667,80.216 374.43,80.216 C374.000667,80.216 373.606333,80.125 373.247,79.943 C372.887667,79.761 372.558667,79.5393333 372.26,79.278 L372.26,79.278 L371.728,80.076 C372.026667,80.3466667 372.386,80.5823333 372.806,80.783 C373.226,80.9836667 373.66,81.1073333 374.108,81.154 L374.108,81.154 L374.108,82.54 L374.948,82.54 Z M384.286,81 L384.286,80.006 L381.696,80.006 C381.462667,80.006 381.215333,80.0153333 380.954,80.034 C380.692667,80.0526667 380.440667,80.0713333 380.198,80.09 C380.73,79.5393333 381.217667,79.019 381.661,78.529 C382.104333,78.039 382.487,77.5676667 382.809,77.115 C383.131,76.6623333 383.383,76.2236667 383.565,75.799 C383.747,75.3743333 383.838,74.952 383.838,74.532 C383.838,73.7386667 383.6,73.1016667 383.124,72.621 C382.648,72.1403333 381.994667,71.9 381.164,71.9 C380.576,71.9 380.072,72.0236667 379.652,72.271 C379.232,72.5183333 378.835333,72.8473333 378.462,73.258 L378.462,73.258 L379.12,73.916 C379.381333,73.6173333 379.670667,73.363 379.988,73.153 C380.305333,72.943 380.650667,72.838 381.024,72.838 C381.593333,72.838 382.018,73.0013333 382.298,73.328 C382.578,73.6546667 382.718,74.0746667 382.718,74.588 C382.718,74.952 382.624667,75.3276667 382.438,75.715 C382.251333,76.1023333 381.980667,76.527 381.626,76.989 C381.271333,77.451 380.832667,77.9526667 380.31,78.494 C379.787333,79.0353333 379.19,79.642 378.518,80.314 L378.518,80.314 L378.518,81 L384.286,81 Z M390.264,81 L390.264,78.536 L391.482,78.536 L391.482,77.612 L390.264,77.612 L390.264,72.068 L388.976,72.068 L385.154,77.78 L385.154,78.536 L389.172,78.536 L389.172,81 L390.264,81 Z M389.172,77.612 L386.372,77.612 L388.458,74.56 C388.588667,74.3453333 388.714667,74.1353333 388.836,73.93 C388.957333,73.7246667 389.074,73.5146667 389.186,73.3 L389.186,73.3 L389.242,73.3 C389.223333,73.5426667 389.207,73.8296667 389.193,74.161 C389.179,74.4923333 389.172,74.7793333 389.172,75.022 L389.172,75.022 L389.172,77.612 Z M394.744,81.168 C395.192,81.168 395.619,81.077 396.025,80.895 C396.431,80.713 396.792667,80.4236667 397.11,80.027 C397.427333,79.6303333 397.679333,79.117 397.866,78.487 C398.052667,77.857 398.146,77.094 398.146,76.198 C398.146,75.4793333 398.069,74.8516667 397.915,74.315 C397.761,73.7783333 397.546333,73.3303333 397.271,72.971 C396.995667,72.6116667 396.669,72.3433333 396.291,72.166 C395.913,71.9886667 395.504667,71.9 395.066,71.9 C394.711333,71.9 394.373,71.97 394.051,72.11 C393.729,72.25 393.449,72.446 393.211,72.698 C392.973,72.95 392.784,73.251 392.644,73.601 C392.504,73.951 392.434,74.3406667 392.434,74.77 C392.434,75.694 392.662667,76.3846667 393.12,76.842 C393.577333,77.2993333 394.193333,77.528 394.968,77.528 C395.341333,77.528 395.714667,77.4253333 396.088,77.22 C396.461333,77.0146667 396.788,76.7346667 397.068,76.38 C397.058667,77.0986667 396.988667,77.7006667 396.858,78.186 C396.727333,78.6713333 396.554667,79.0656667 396.34,79.369 C396.125333,79.6723333 395.878,79.8893333 395.598,80.02 C395.318,80.1506667 395.019333,80.216 394.702,80.216 C394.422,80.216 394.153667,80.1506667 393.897,80.02 C393.640333,79.8893333 393.418667,79.7166667 393.232,79.502 L393.232,79.502 L392.588,80.23 C392.830667,80.5006667 393.131667,80.7246667 393.491,80.902 C393.850333,81.0793333 394.268,81.168 394.744,81.168 Z M395.164,76.66 C394.604,76.66 394.188667,76.492 393.918,76.156 C393.647333,75.82 393.512,75.358 393.512,74.77 C393.512,74.4806667 393.551667,74.2146667 393.631,73.972 C393.710333,73.7293333 393.82,73.5216667 393.96,73.349 C394.1,73.1763333 394.265667,73.0433333 394.457,72.95 C394.648333,72.8566667 394.851333,72.81 395.066,72.81 C395.635333,72.81 396.088,73.034 396.424,73.482 C396.76,73.93 396.965333,74.5926667 397.04,75.47 C396.750667,75.89 396.440333,76.1933333 396.109,76.38 C395.777667,76.5666667 395.462667,76.66 395.164,76.66 Z M403.018,81 C403.531333,81 404.002667,80.944 404.432,80.832 C404.861333,80.72 405.23,80.552 405.538,80.328 C405.846,80.104 406.084,79.824 406.252,79.488 C406.42,79.152 406.504,78.76 406.504,78.312 C406.504,77.6773333 406.331333,77.178 405.986,76.814 C405.640667,76.45 405.188,76.2166667 404.628,76.114 L404.628,76.114 L404.628,76.058 C405.066667,75.918 405.400333,75.6636667 405.629,75.295 C405.857667,74.9263333 405.972,74.5133333 405.972,74.056 C405.972,73.6546667 405.895,73.3116667 405.741,73.027 C405.587,72.7423333 405.372333,72.5113333 405.097,72.334 C404.821667,72.1566667 404.490333,72.026 404.103,71.942 C403.715667,71.858 403.288667,71.816 402.822,71.816 L402.822,71.816 L400.092,71.816 L400.092,81 L403.018,81 Z M402.612,75.722 L401.254,75.722 L401.254,72.74 L402.668,72.74 C403.386667,72.74 403.925667,72.852 404.285,73.076 C404.644333,73.3 404.824,73.678 404.824,74.21 C404.824,74.6766667 404.651333,75.0453333 404.306,75.316 C403.960667,75.5866667 403.396,75.722 402.612,75.722 L402.612,75.722 Z M402.85,80.076 L401.254,80.076 L401.254,76.618 L402.85,76.618 C403.662,76.618 404.282667,76.751 404.712,77.017 C405.141333,77.283 405.356,77.7006667 405.356,78.27 C405.356,78.886 405.136667,79.341 404.698,79.635 C404.259333,79.929 403.643333,80.076 402.85,80.076 L402.85,80.076 Z" id="Unobligated$249B" fill="#666666" fill-rule="nonzero"></path>
                <line x1="10.5" y1="30" x2="10.5" y2="45" id="Line" stroke="#C6C6C6"></line>
                <line x1="292.5" y1="30" x2="292.5" y2="45" id="Line-Copy" stroke="#C6C6C6"></line>
                <path d="M401,30 L401,34.6176471 C401,35.7222166 400.104569,36.6176471 399,36.6176471 L351,36.6176471 C349.895431,36.6176471 349,37.5130776 349,38.6176471 L349,45 L349,45" id="Line-Copy-7" stroke="#C6C6C6" stroke-linecap="round" transform="translate(375.000000, 37.500000) scale(-1, 1) translate(-375.000000, -37.500000) "></path>
                <rect id="unobligated" fill="#F3E9FF" x="308" y="0" width="82" height="30"></rect>
                <rect id="obligated" fill="#6F41A7" x="280" y="0" width="28" height="30"></rect>
                <rect id="outlays" fill="#331E4D" x="0" y="0" width="280" height="30"></rect>
                <path d="M410.368,21.54 L410.368,20.084 C411.096,19.9253333 411.642,19.6056667 412.006,19.125 C412.37,18.6443333 412.552,18.068 412.552,17.396 C412.552,16.948 412.461,16.5723333 412.279,16.269 C412.097,15.9656667 411.868333,15.7066667 411.593,15.492 C411.317667,15.2773333 411.021333,15.0953333 410.704,14.946 C410.386667,14.7966667 410.090333,14.652 409.815,14.512 C409.539667,14.372 409.311,14.225 409.129,14.071 C408.947,13.917 408.856,13.728 408.856,13.504 C408.856,13.1866667 408.944667,12.958 409.122,12.818 C409.299333,12.678 409.556,12.608 409.892,12.608 C410.190667,12.608 410.456667,12.6663333 410.69,12.783 C410.923333,12.8996667 411.166,13.0746667 411.418,13.308 L411.418,13.308 L412.454,12.132 C412.183333,11.8426667 411.88,11.5953333 411.544,11.39 C411.208,11.1846667 410.816,11.0493333 410.368,10.984 L410.368,10.984 L410.368,9.57 L409.01,9.57 L409.01,11.012 C408.347333,11.1426667 407.827,11.4343333 407.449,11.887 C407.071,12.3396667 406.882,12.9113333 406.882,13.602 C406.882,14.022 406.973,14.3766667 407.155,14.666 C407.337,14.9553333 407.565667,15.2073333 407.841,15.422 C408.116333,15.6366667 408.412667,15.821 408.73,15.975 C409.047333,16.129 409.343667,16.283 409.619,16.437 C409.894333,16.591 410.123,16.752 410.305,16.92 C410.487,17.088 410.578,17.2933333 410.578,17.536 C410.578,17.8626667 410.487,18.1053333 410.305,18.264 C410.123,18.4226667 409.836,18.502 409.444,18.502 C409.108,18.502 408.779,18.4343333 408.457,18.299 C408.135,18.1636667 407.796667,17.9606667 407.442,17.69 L407.442,17.69 L406.546,19.076 C406.872667,19.3746667 407.262333,19.615 407.715,19.797 C408.167667,19.979 408.599333,20.0933333 409.01,20.14 L409.01,20.14 L409.01,21.54 L410.368,21.54 Z M420.028,20 L420.028,18.334 L418.362,18.334 L418.362,11.11 L416.85,11.11 C416.532667,11.2966667 416.206,11.4553333 415.87,11.586 C415.534,11.7166667 415.123333,11.8286667 414.638,11.922 L414.638,11.922 L414.638,13.196 L416.304,13.196 L416.304,18.334 L414.372,18.334 L414.372,20 L420.028,20 Z M422.884,20.168 C423.238667,20.168 423.535,20.0443333 423.773,19.797 C424.011,19.5496667 424.13,19.244 424.13,18.88 C424.13,18.5066667 424.011,18.1963333 423.773,17.949 C423.535,17.7016667 423.238667,17.578 422.884,17.578 C422.529333,17.578 422.233,17.7016667 421.995,17.949 C421.757,18.1963333 421.638,18.5066667 421.638,18.88 C421.638,19.244 421.757,19.5496667 421.995,19.797 C422.233,20.0443333 422.529333,20.168 422.884,20.168 Z M431.62,20 L431.62,18.334 L429.954,18.334 L429.954,11.11 L428.442,11.11 C428.124667,11.2966667 427.798,11.4553333 427.462,11.586 C427.126,11.7166667 426.715333,11.8286667 426.23,11.922 L426.23,11.922 L426.23,13.196 L427.896,13.196 L427.896,18.334 L425.964,18.334 L425.964,20 L431.62,20 Z M435.582,20.168 C436.048667,20.168 436.499,20.0723333 436.933,19.881 C437.367,19.6896667 437.749667,19.398 438.081,19.006 C438.412333,18.614 438.678333,18.1146667 438.879,17.508 C439.079667,16.9013333 439.18,16.1826667 439.18,15.352 C439.18,14.568 439.084333,13.8983333 438.893,13.343 C438.701667,12.7876667 438.449667,12.3326667 438.137,11.978 C437.824333,11.6233333 437.465,11.362 437.059,11.194 C436.653,11.026 436.235333,10.942 435.806,10.942 C435.404667,10.942 435.024333,11.0096667 434.665,11.145 C434.305667,11.2803333 433.993,11.4786667 433.727,11.74 C433.461,12.0013333 433.248667,12.3163333 433.09,12.685 C432.931333,13.0536667 432.852,13.4666667 432.852,13.924 C432.852,14.3906667 432.919667,14.7966667 433.055,15.142 C433.190333,15.4873333 433.374667,15.772 433.608,15.996 C433.841333,16.22 434.119,16.388 434.441,16.5 C434.763,16.612 435.115333,16.668 435.498,16.668 C435.638,16.668 435.787333,16.647 435.946,16.605 C436.104667,16.563 436.263333,16.5023333 436.422,16.423 C436.580667,16.3436667 436.734667,16.2456667 436.884,16.129 C437.033333,16.0123333 437.164,15.8793333 437.276,15.73 C437.257333,16.2526667 437.199,16.689 437.101,17.039 C437.003,17.389 436.872333,17.6736667 436.709,17.893 C436.545667,18.1123333 436.356667,18.2686667 436.142,18.362 C435.927333,18.4553333 435.694,18.502 435.442,18.502 C435.180667,18.502 434.924,18.439 434.672,18.313 C434.42,18.187 434.219333,18.04 434.07,17.872 L434.07,17.872 L432.978,19.104 C433.258,19.384 433.615,19.6313333 434.049,19.846 C434.483,20.0606667 434.994,20.168 435.582,20.168 Z M435.904,15.212 C435.568,15.212 435.288,15.1163333 435.064,14.925 C434.84,14.7336667 434.728,14.4 434.728,13.924 C434.728,13.42 434.84,13.0536667 435.064,12.825 C435.288,12.5963333 435.549333,12.482 435.848,12.482 C436.165333,12.482 436.452333,12.615 436.709,12.881 C436.965667,13.147 437.140667,13.63 437.234,14.33 C437.056667,14.6473333 436.849,14.8736667 436.611,15.009 C436.373,15.1443333 436.137333,15.212 435.904,15.212 Z M444.696,20 L444.696,12.608 L447.202,12.608 L447.202,10.872 L440.118,10.872 L440.118,12.608 L442.624,12.608 L442.624,20 L444.696,20 Z" id="$1.19T" fill="#555555" fill-rule="nonzero"></path>
            </g>
        </g>
    </g>
</svg>