<?xml version="1.0" encoding="UTF-8"?>
<svg width="391px" height="85px" viewBox="0 0 391 85" version="1.1" xmlns="http://www.w3.org/2000/svg" xmlns:xlink="http://www.w3.org/1999/xlink">
    <title>06. phase 3 loan</title>
    <g id="Viz-3-(v2)" stroke="none" stroke-width="1" fill="none" fill-rule="evenodd">
        <g id="Viz-3---SVG-Export-Outline" transform="translate(-279.000000, -1302.000000)">
            <g id="06.-phase-3-loan" transform="translate(279.000000, 1302.000000)">
                <path d="M4.718,63.168 C5.31533333,63.168 5.86133333,63.0583333 6.356,62.839 C6.85066667,62.6196667 7.27766667,62.3023333 7.637,61.887 C7.99633333,61.4716667 8.274,60.97 8.47,60.382 C8.666,59.794 8.764,59.1266667 8.764,58.38 C8.764,57.6426667 8.666,56.9823333 8.47,56.399 C8.274,55.8156667 7.99633333,55.3233333 7.637,54.922 C7.27766667,54.5206667 6.85066667,54.2126667 6.356,53.998 C5.86133333,53.7833333 5.31533333,53.676 4.718,53.676 C4.12066667,53.676 3.57466667,53.7833333 3.08,53.998 C2.58533333,54.2126667 2.16066667,54.5206667 1.806,54.922 C1.45133333,55.3233333 1.176,55.8156667 0.98,56.399 C0.784,56.9823333 0.686,57.6426667 0.686,58.38 C0.686,59.1266667 0.784,59.794 0.98,60.382 C1.176,60.97 1.45133333,61.4716667 1.806,61.887 C2.16066667,62.3023333 2.58533333,62.6196667 3.08,62.839 C3.57466667,63.0583333 4.12066667,63.168 4.718,63.168 Z M4.718,61.754 C4.354,61.754 4.02733333,61.6746667 3.738,61.516 C3.44866667,61.3573333 3.20133333,61.131 2.996,60.837 C2.79066667,60.543 2.632,60.1883333 2.52,59.773 C2.408,59.3576667 2.352,58.8933333 2.352,58.38 C2.352,57.3533333 2.56433333,56.5483333 2.989,55.965 C3.41366667,55.3816667 3.99,55.09 4.718,55.09 C5.446,55.09 6.02233333,55.3816667 6.447,55.965 C6.87166667,56.5483333 7.084,57.3533333 7.084,58.38 C7.084,58.8933333 7.028,59.3576667 6.916,59.773 C6.804,60.1883333 6.64533333,60.543 6.44,60.837 C6.23466667,61.131 5.98733333,61.3573333 5.698,61.516 C5.40866667,61.6746667 5.082,61.754 4.718,61.754 Z M12.502,63.168 C12.978,63.168 13.391,63.0606667 13.741,62.846 C14.091,62.6313333 14.4153333,62.3466667 14.714,61.992 L14.714,61.992 L14.756,61.992 L14.882,63 L16.198,63 L16.198,56.126 L14.588,56.126 L14.588,60.83 C14.3266667,61.166 14.0816667,61.4086667 13.853,61.558 C13.6243333,61.7073333 13.3606667,61.782 13.062,61.782 C12.6886667,61.782 12.418,61.6653333 12.25,61.432 C12.082,61.1986667 11.998,60.7973333 11.998,60.228 L11.998,60.228 L11.998,56.126 L10.388,56.126 L10.388,60.438 C10.388,61.3153333 10.556,61.9896667 10.892,62.461 C11.228,62.9323333 11.7646667,63.168 12.502,63.168 Z M20.664,63.168 C20.9346667,63.168 21.189,63.1423333 21.427,63.091 C21.665,63.0396667 21.8773333,62.9813333 22.064,62.916 L22.064,62.916 L21.784,61.726 C21.6813333,61.7726667 21.567,61.81 21.441,61.838 C21.315,61.866 21.1913333,61.88 21.07,61.88 C20.426,61.88 20.104,61.4786667 20.104,60.676 L20.104,60.676 L20.104,57.4 L21.854,57.4 L21.854,56.126 L20.104,56.126 L20.104,54.25 L18.76,54.25 L18.564,56.126 L17.5,56.196 L17.5,57.4 L18.48,57.4 L18.48,60.676 C18.48,61.0493333 18.5196667,61.3876667 18.599,61.691 C18.6783333,61.9943333 18.8043333,62.2556667 18.977,62.475 C19.1496667,62.6943333 19.3736667,62.8646667 19.649,62.986 C19.9243333,63.1073333 20.2626667,63.168 20.664,63.168 Z M24.864,63.168 C25.2186667,63.168 25.5033333,63.1213333 25.718,63.028 L25.718,63.028 L25.508,61.824 C25.4426667,61.8426667 25.3936667,61.852 25.361,61.852 L25.361,61.852 L25.256,61.852 C25.172,61.852 25.0926667,61.8123333 25.018,61.733 C24.9433333,61.6536667 24.906,61.516 24.906,61.32 L24.906,61.32 L24.906,53.116 L23.296,53.116 L23.296,61.236 C23.296,61.8333333 23.4126667,62.3046667 23.646,62.65 C23.8793333,62.9953333 24.2853333,63.168 24.864,63.168 Z M28.756,63.168 C29.1666667,63.168 29.547,63.0793333 29.897,62.902 C30.247,62.7246667 30.576,62.5053333 30.884,62.244 L30.884,62.244 L30.94,62.244 L31.052,63 L32.382,63 L32.382,58.926 C32.382,57.9646667 32.1696667,57.2296667 31.745,56.721 C31.3203333,56.2123333 30.6786667,55.958 29.82,55.958 C29.2693333,55.958 28.756,56.0466667 28.28,56.224 C27.804,56.4013333 27.3746667,56.6113333 26.992,56.854 L26.992,56.854 L27.58,57.932 C27.888,57.7453333 28.203,57.5866667 28.525,57.456 C28.847,57.3253333 29.176,57.26 29.512,57.26 C29.7453333,57.26 29.9413333,57.295 30.1,57.365 C30.2586667,57.435 30.387,57.533 30.485,57.659 C30.583,57.785 30.653,57.9296667 30.695,58.093 C30.737,58.2563333 30.7626667,58.4266667 30.772,58.604 C30.0626667,58.6786667 29.4536667,58.786 28.945,58.926 C28.4363333,59.066 28.0163333,59.2386667 27.685,59.444 C27.3536667,59.6493333 27.111,59.8943333 26.957,60.179 C26.803,60.4636667 26.726,60.788 26.726,61.152 C26.726,61.7586667 26.9126667,62.2463333 27.286,62.615 C27.6593333,62.9836667 28.1493333,63.168 28.756,63.168 Z M29.274,61.908 C28.9846667,61.908 28.7466667,61.838 28.56,61.698 C28.3733333,61.558 28.28,61.334 28.28,61.026 C28.28,60.858 28.322,60.6993333 28.406,60.55 C28.49,60.4006667 28.63,60.2676667 28.826,60.151 C29.022,60.0343333 29.2786667,59.9293333 29.596,59.836 C29.9133333,59.7426667 30.3053333,59.668 30.772,59.612 L30.772,59.612 L30.772,61.152 C30.5106667,61.3946667 30.2656667,61.5813333 30.037,61.712 C29.8083333,61.8426667 29.554,61.908 29.274,61.908 Z M34.776,65.828 C35.1493333,65.828 35.4783333,65.7696667 35.763,65.653 C36.0476667,65.5363333 36.2996667,65.3683333 36.519,65.149 C36.7383333,64.9296667 36.932,64.666 37.1,64.358 C37.268,64.05 37.422,63.7 37.562,63.308 L37.562,63.308 L40.054,56.126 L38.5,56.126 L37.464,59.5 C37.38,59.808 37.2936667,60.1276667 37.205,60.459 C37.1163333,60.7903333 37.03,61.1146667 36.946,61.432 L36.946,61.432 L36.89,61.432 C36.7873333,61.1053333 36.687,60.7763333 36.589,60.445 C36.491,60.1136667 36.3906667,59.7986667 36.288,59.5 L36.288,59.5 L35.098,56.126 L33.46,56.126 L36.162,62.916 L36.036,63.35 C35.924,63.6953333 35.7583333,63.9776667 35.539,64.197 C35.3196667,64.4163333 35.028,64.526 34.664,64.526 C34.58,64.526 34.4936667,64.5143333 34.405,64.491 C34.3163333,64.4676667 34.2393333,64.4466667 34.174,64.428 L34.174,64.428 L33.88,65.688 C34.0106667,65.7346667 34.146,65.7696667 34.286,65.793 C34.426,65.8163333 34.5893333,65.828 34.776,65.828 Z M43.162,63.168 C43.5913333,63.168 43.974,63.112 44.31,63 C44.646,62.888 44.926,62.7363333 45.15,62.545 C45.374,62.3536667 45.5443333,62.1296667 45.661,61.873 C45.7776667,61.6163333 45.836,61.3386667 45.836,61.04 C45.836,60.7226667 45.7776667,60.4496667 45.661,60.221 C45.5443333,59.9923333 45.3903333,59.7986667 45.199,59.64 C45.0076667,59.4813333 44.7953333,59.3483333 44.562,59.241 C44.3286667,59.1336667 44.0953333,59.038 43.862,58.954 C43.6753333,58.8886667 43.4956667,58.8233333 43.323,58.758 C43.1503333,58.6926667 42.9986667,58.6226667 42.868,58.548 C42.7373333,58.4733333 42.6323333,58.387 42.553,58.289 C42.4736667,58.191 42.434,58.072 42.434,57.932 C42.434,57.7173333 42.5156667,57.5376667 42.679,57.393 C42.8423333,57.2483333 43.0966667,57.176 43.442,57.176 C43.7126667,57.176 43.9716667,57.2296667 44.219,57.337 C44.4663333,57.4443333 44.7113333,57.5866667 44.954,57.764 L44.954,57.764 L45.696,56.784 C45.416,56.5693333 45.0846667,56.378 44.702,56.21 C44.3193333,56.042 43.89,55.958 43.414,55.958 C42.6393333,55.958 42.028,56.1493333 41.58,56.532 C41.132,56.9146667 40.908,57.4093333 40.908,58.016 C40.908,58.3053333 40.9663333,58.555 41.083,58.765 C41.1996667,58.975 41.349,59.1593333 41.531,59.318 C41.713,59.4766667 41.9206667,59.612 42.154,59.724 C42.3873333,59.836 42.616,59.934 42.84,60.018 C43.0173333,60.0926667 43.1946667,60.165 43.372,60.235 C43.5493333,60.305 43.708,60.382 43.848,60.466 C43.988,60.55 44.1,60.6456667 44.184,60.753 C44.268,60.8603333 44.31,60.984 44.31,61.124 C44.31,61.3666667 44.2213333,61.565 44.044,61.719 C43.8666667,61.873 43.5913333,61.95 43.218,61.95 C42.8633333,61.95 42.5343333,61.8823333 42.231,61.747 C41.9276667,61.6116667 41.622,61.4226667 41.314,61.18 L41.314,61.18 L40.558,62.216 C40.894,62.4866667 41.293,62.713 41.755,62.895 C42.217,63.077 42.686,63.168 43.162,63.168 Z M3.948,82.54 L3.948,81.126 C4.62,81.0326667 5.14966667,80.7713333 5.537,80.342 C5.92433333,79.9126667 6.118,79.362 6.118,78.69 C6.118,78.186 6.02233333,77.773 5.831,77.451 C5.63966667,77.129 5.39933333,76.8583333 5.11,76.639 C4.82066667,76.4196667 4.50566667,76.233 4.165,76.079 C3.82433333,75.925 3.50933333,75.7663333 3.22,75.603 C2.93066667,75.4396667 2.69033333,75.2506667 2.499,75.036 C2.30766667,74.8213333 2.212,74.546 2.212,74.21 C2.212,73.7993333 2.338,73.4726667 2.59,73.23 C2.842,72.9873333 3.18266667,72.866 3.612,72.866 C3.99466667,72.866 4.30966667,72.936 4.557,73.076 C4.80433333,73.216 5.05866667,73.412 5.32,73.664 L5.32,73.664 L5.936,72.978 C5.684,72.7073333 5.40166667,72.474 5.089,72.278 C4.77633333,72.082 4.396,71.9606667 3.948,71.914 L3.948,71.914 L3.948,70.528 L3.108,70.528 L3.108,71.942 C2.492,72.0353333 1.99966667,72.2896667 1.631,72.705 C1.26233333,73.1203333 1.078,73.6406667 1.078,74.266 C1.078,74.7233333 1.17366667,75.099 1.365,75.393 C1.55633333,75.687 1.79666667,75.9366667 2.086,76.142 C2.37533333,76.3473333 2.69033333,76.5293333 3.031,76.688 C3.37166667,76.8466667 3.68666667,77.017 3.976,77.199 C4.26533333,77.381 4.50566667,77.5956667 4.697,77.843 C4.88833333,78.0903333 4.984,78.4006667 4.984,78.774 C4.984,79.2126667 4.85566667,79.5626667 4.599,79.824 C4.34233333,80.0853333 3.95266667,80.216 3.43,80.216 C3.00066667,80.216 2.60633333,80.125 2.247,79.943 C1.88766667,79.761 1.55866667,79.5393333 1.26,79.278 L1.26,79.278 L0.728,80.076 C1.02666667,80.3466667 1.386,80.5823333 1.806,80.783 C2.226,80.9836667 2.66,81.1073333 3.108,81.154 L3.108,81.154 L3.108,82.54 L3.948,82.54 Z M10.262,81.168 C10.6726667,81.168 11.0553333,81.1096667 11.41,80.993 C11.7646667,80.8763333 12.075,80.7083333 12.341,80.489 C12.607,80.2696667 12.817,80.0013333 12.971,79.684 C13.125,79.3666667 13.202,79.012 13.202,78.62 C13.202,78.312 13.153,78.032 13.055,77.78 C12.957,77.528 12.8193333,77.3063333 12.642,77.115 C12.4646667,76.9236667 12.2593333,76.765 12.026,76.639 C11.7926667,76.513 11.5406667,76.4173333 11.27,76.352 L11.27,76.352 L11.27,76.296 C11.7553333,76.1093333 12.1473333,75.8433333 12.446,75.498 C12.7446667,75.1526667 12.894,74.7093333 12.894,74.168 C12.894,73.804 12.8286667,73.482 12.698,73.202 C12.5673333,72.922 12.383,72.6863333 12.145,72.495 C11.907,72.3036667 11.6246667,72.1566667 11.298,72.054 C10.9713333,71.9513333 10.612,71.9 10.22,71.9 C9.688,71.9 9.21433333,72.005 8.799,72.215 C8.38366667,72.425 8.00333333,72.6933333 7.658,73.02 L7.658,73.02 L8.274,73.748 C8.54466667,73.4773333 8.83633333,73.258 9.149,73.09 C9.46166667,72.922 9.80466667,72.838 10.178,72.838 C10.654,72.838 11.0296667,72.964 11.305,73.216 C11.5803333,73.468 11.718,73.8133333 11.718,74.252 C11.718,74.4853333 11.676,74.7046667 11.592,74.91 C11.508,75.1153333 11.3656667,75.2926667 11.165,75.442 C10.9643333,75.5913333 10.703,75.708 10.381,75.792 C10.059,75.876 9.66,75.918 9.184,75.918 L9.184,75.918 L9.184,76.8 C9.716,76.8 10.164,76.842 10.528,76.926 C10.892,77.01 11.186,77.1313333 11.41,77.29 C11.634,77.4486667 11.795,77.6376667 11.893,77.857 C11.991,78.0763333 12.04,78.3166667 12.04,78.578 C12.04,79.082 11.8673333,79.481 11.522,79.775 C11.1766667,80.069 10.7333333,80.216 10.192,80.216 C9.66,80.216 9.21433333,80.1086667 8.855,79.894 C8.49566667,79.6793333 8.18066667,79.432 7.91,79.152 L7.91,79.152 L7.322,79.908 C7.47133333,80.076 7.64166667,80.2346667 7.833,80.384 C8.02433333,80.5333333 8.24133333,80.6663333 8.484,80.783 C8.72666667,80.8996667 8.995,80.993 9.289,81.063 C9.583,81.133 9.90733333,81.168 10.262,81.168 Z M20.244,81 L20.244,80.006 L17.654,80.006 C17.4206667,80.006 17.1733333,80.0153333 16.912,80.034 C16.6506667,80.0526667 16.3986667,80.0713333 16.156,80.09 C16.688,79.5393333 17.1756667,79.019 17.619,78.529 C18.0623333,78.039 18.445,77.5676667 18.767,77.115 C19.089,76.6623333 19.341,76.2236667 19.523,75.799 C19.705,75.3743333 19.796,74.952 19.796,74.532 C19.796,73.7386667 19.558,73.1016667 19.082,72.621 C18.606,72.1403333 17.9526667,71.9 17.122,71.9 C16.534,71.9 16.03,72.0236667 15.61,72.271 C15.19,72.5183333 14.7933333,72.8473333 14.42,73.258 L14.42,73.258 L15.078,73.916 C15.3393333,73.6173333 15.6286667,73.363 15.946,73.153 C16.2633333,72.943 16.6086667,72.838 16.982,72.838 C17.5513333,72.838 17.976,73.0013333 18.256,73.328 C18.536,73.6546667 18.676,74.0746667 18.676,74.588 C18.676,74.952 18.5826667,75.3276667 18.396,75.715 C18.2093333,76.1023333 17.9386667,76.527 17.584,76.989 C17.2293333,77.451 16.7906667,77.9526667 16.268,78.494 C15.7453333,79.0353333 15.148,79.642 14.476,80.314 L14.476,80.314 L14.476,81 L20.244,81 Z M24.178,81.168 C24.5886667,81.168 24.9713333,81.1096667 25.326,80.993 C25.6806667,80.8763333 25.991,80.7083333 26.257,80.489 C26.523,80.2696667 26.733,80.0013333 26.887,79.684 C27.041,79.3666667 27.118,79.012 27.118,78.62 C27.118,78.312 27.069,78.032 26.971,77.78 C26.873,77.528 26.7353333,77.3063333 26.558,77.115 C26.3806667,76.9236667 26.1753333,76.765 25.942,76.639 C25.7086667,76.513 25.4566667,76.4173333 25.186,76.352 L25.186,76.352 L25.186,76.296 C25.6713333,76.1093333 26.0633333,75.8433333 26.362,75.498 C26.6606667,75.1526667 26.81,74.7093333 26.81,74.168 C26.81,73.804 26.7446667,73.482 26.614,73.202 C26.4833333,72.922 26.299,72.6863333 26.061,72.495 C25.823,72.3036667 25.5406667,72.1566667 25.214,72.054 C24.8873333,71.9513333 24.528,71.9 24.136,71.9 C23.604,71.9 23.1303333,72.005 22.715,72.215 C22.2996667,72.425 21.9193333,72.6933333 21.574,73.02 L21.574,73.02 L22.19,73.748 C22.4606667,73.4773333 22.7523333,73.258 23.065,73.09 C23.3776667,72.922 23.7206667,72.838 24.094,72.838 C24.57,72.838 24.9456667,72.964 25.221,73.216 C25.4963333,73.468 25.634,73.8133333 25.634,74.252 C25.634,74.4853333 25.592,74.7046667 25.508,74.91 C25.424,75.1153333 25.2816667,75.2926667 25.081,75.442 C24.8803333,75.5913333 24.619,75.708 24.297,75.792 C23.975,75.876 23.576,75.918 23.1,75.918 L23.1,75.918 L23.1,76.8 C23.632,76.8 24.08,76.842 24.444,76.926 C24.808,77.01 25.102,77.1313333 25.326,77.29 C25.55,77.4486667 25.711,77.6376667 25.809,77.857 C25.907,78.0763333 25.956,78.3166667 25.956,78.578 C25.956,79.082 25.7833333,79.481 25.438,79.775 C25.0926667,80.069 24.6493333,80.216 24.108,80.216 C23.576,80.216 23.1303333,80.1086667 22.771,79.894 C22.4116667,79.6793333 22.0966667,79.432 21.826,79.152 L21.826,79.152 L21.238,79.908 C21.3873333,80.076 21.5576667,80.2346667 21.749,80.384 C21.9403333,80.5333333 22.1573333,80.6663333 22.4,80.783 C22.6426667,80.8996667 22.911,80.993 23.205,81.063 C23.499,81.133 23.8233333,81.168 24.178,81.168 Z M32.018,81 C32.5313333,81 33.0026667,80.944 33.432,80.832 C33.8613333,80.72 34.23,80.552 34.538,80.328 C34.846,80.104 35.084,79.824 35.252,79.488 C35.42,79.152 35.504,78.76 35.504,78.312 C35.504,77.6773333 35.3313333,77.178 34.986,76.814 C34.6406667,76.45 34.188,76.2166667 33.628,76.114 L33.628,76.114 L33.628,76.058 C34.0666667,75.918 34.4003333,75.6636667 34.629,75.295 C34.8576667,74.9263333 34.972,74.5133333 34.972,74.056 C34.972,73.6546667 34.895,73.3116667 34.741,73.027 C34.587,72.7423333 34.3723333,72.5113333 34.097,72.334 C33.8216667,72.1566667 33.4903333,72.026 33.103,71.942 C32.7156667,71.858 32.2886667,71.816 31.822,71.816 L31.822,71.816 L29.092,71.816 L29.092,81 L32.018,81 Z M31.612,75.722 L30.254,75.722 L30.254,72.74 L31.668,72.74 C32.3866667,72.74 32.9256667,72.852 33.285,73.076 C33.6443333,73.3 33.824,73.678 33.824,74.21 C33.824,74.6766667 33.6513333,75.0453333 33.306,75.316 C32.9606667,75.5866667 32.396,75.722 31.612,75.722 L31.612,75.722 Z M31.85,80.076 L30.254,80.076 L30.254,76.618 L31.85,76.618 C32.662,76.618 33.2826667,76.751 33.712,77.017 C34.1413333,77.283 34.356,77.7006667 34.356,78.27 C34.356,78.886 34.1366667,79.341 33.698,79.635 C33.2593333,79.929 32.6433333,80.076 31.85,80.076 L31.85,80.076 Z" id="Outlays$323B" fill="#666666" fill-rule="nonzero"></path>
                <path d="M151.718,63.168 C152.315333,63.168 152.861333,63.0583333 153.356,62.839 C153.850667,62.6196667 154.277667,62.3023333 154.637,61.887 C154.996333,61.4716667 155.274,60.97 155.47,60.382 C155.666,59.794 155.764,59.1266667 155.764,58.38 C155.764,57.6426667 155.666,56.9823333 155.47,56.399 C155.274,55.8156667 154.996333,55.3233333 154.637,54.922 C154.277667,54.5206667 153.850667,54.2126667 153.356,53.998 C152.861333,53.7833333 152.315333,53.676 151.718,53.676 C151.120667,53.676 150.574667,53.7833333 150.08,53.998 C149.585333,54.2126667 149.160667,54.5206667 148.806,54.922 C148.451333,55.3233333 148.176,55.8156667 147.98,56.399 C147.784,56.9823333 147.686,57.6426667 147.686,58.38 C147.686,59.1266667 147.784,59.794 147.98,60.382 C148.176,60.97 148.451333,61.4716667 148.806,61.887 C149.160667,62.3023333 149.585333,62.6196667 150.08,62.839 C150.574667,63.0583333 151.120667,63.168 151.718,63.168 Z M151.718,61.754 C151.354,61.754 151.027333,61.6746667 150.738,61.516 C150.448667,61.3573333 150.201333,61.131 149.996,60.837 C149.790667,60.543 149.632,60.1883333 149.52,59.773 C149.408,59.3576667 149.352,58.8933333 149.352,58.38 C149.352,57.3533333 149.564333,56.5483333 149.989,55.965 C150.413667,55.3816667 150.99,55.09 151.718,55.09 C152.446,55.09 153.022333,55.3816667 153.447,55.965 C153.871667,56.5483333 154.084,57.3533333 154.084,58.38 C154.084,58.8933333 154.028,59.3576667 153.916,59.773 C153.804,60.1883333 153.645333,60.543 153.44,60.837 C153.234667,61.131 152.987333,61.3573333 152.698,61.516 C152.408667,61.6746667 152.082,61.754 151.718,61.754 Z M160.79,63.168 C161.172667,63.168 161.541333,63.084 161.896,62.916 C162.250667,62.748 162.563333,62.5053333 162.834,62.188 C163.104667,61.8706667 163.321667,61.481 163.485,61.019 C163.648333,60.557 163.73,60.032 163.73,59.444 C163.73,58.912 163.669333,58.4313333 163.548,58.002 C163.426667,57.5726667 163.249333,57.2063333 163.016,56.903 C162.782667,56.5996667 162.498,56.3663333 162.162,56.203 C161.826,56.0396667 161.443333,55.958 161.014,55.958 C160.659333,55.958 160.311667,56.0373333 159.971,56.196 C159.630333,56.3546667 159.315333,56.56 159.026,56.812 L159.026,56.812 L159.068,55.664 L159.068,53.116 L157.458,53.116 L157.458,63 L158.732,63 L158.872,62.272 L158.914,62.272 C159.203333,62.5613333 159.509,62.783 159.831,62.937 C160.153,63.091 160.472667,63.168 160.79,63.168 Z M160.454,61.838 C160.248667,61.838 160.027,61.796 159.789,61.712 C159.551,61.628 159.310667,61.4786667 159.068,61.264 L159.068,61.264 L159.068,58.058 C159.590667,57.5446667 160.094667,57.288 160.58,57.288 C161.102667,57.288 161.480667,57.4793333 161.714,57.862 C161.947333,58.2446667 162.064,58.7813333 162.064,59.472 C162.064,60.256 161.91,60.8463333 161.602,61.243 C161.294,61.6396667 160.911333,61.838 160.454,61.838 Z M166.908,63.168 C167.262667,63.168 167.547333,63.1213333 167.762,63.028 L167.762,63.028 L167.552,61.824 C167.486667,61.8426667 167.437667,61.852 167.405,61.852 L167.405,61.852 L167.3,61.852 C167.216,61.852 167.136667,61.8123333 167.062,61.733 C166.987333,61.6536667 166.95,61.516 166.95,61.32 L166.95,61.32 L166.95,53.116 L165.34,53.116 L165.34,61.236 C165.34,61.8333333 165.456667,62.3046667 165.69,62.65 C165.923333,62.9953333 166.329333,63.168 166.908,63.168 Z M169.946,54.922 C170.235333,54.922 170.473333,54.838 170.66,54.67 C170.846667,54.502 170.94,54.2826667 170.94,54.012 C170.94,53.7413333 170.846667,53.5196667 170.66,53.347 C170.473333,53.1743333 170.235333,53.088 169.946,53.088 C169.656667,53.088 169.418667,53.1743333 169.232,53.347 C169.045333,53.5196667 168.952,53.7413333 168.952,54.012 C168.952,54.2826667 169.045333,54.502 169.232,54.67 C169.418667,54.838 169.656667,54.922 169.946,54.922 Z M170.744,63 L170.744,56.126 L169.134,56.126 L169.134,63 L170.744,63 Z M175.196,66.038 C175.756,66.038 176.262333,65.975 176.715,65.849 C177.167667,65.723 177.552667,65.5526667 177.87,65.338 C178.187333,65.1233333 178.432333,64.8666667 178.605,64.568 C178.777667,64.2693333 178.864,63.952 178.864,63.616 C178.864,63.0186667 178.651667,62.587 178.227,62.321 C177.802333,62.055 177.174667,61.922 176.344,61.922 L176.344,61.922 L175.126,61.922 C174.706,61.922 174.414333,61.866 174.251,61.754 C174.087667,61.642 174.006,61.488 174.006,61.292 C174.006,61.1333333 174.036333,61.0073333 174.097,60.914 C174.157667,60.8206667 174.239333,60.7273333 174.342,60.634 C174.500667,60.6993333 174.659333,60.746 174.818,60.774 C174.976667,60.802 175.130667,60.816 175.28,60.816 C175.644,60.816 175.984667,60.7646667 176.302,60.662 C176.619333,60.5593333 176.894667,60.41 177.128,60.214 C177.361333,60.018 177.545667,59.7753333 177.681,59.486 C177.816333,59.1966667 177.884,58.8606667 177.884,58.478 C177.884,58.2353333 177.846667,58.0136667 177.772,57.813 C177.697333,57.6123333 177.604,57.4466667 177.492,57.316 L177.492,57.316 L178.752,57.316 L178.752,56.126 L176.288,56.126 C176.148,56.0793333 175.991667,56.0396667 175.819,56.007 C175.646333,55.9743333 175.466667,55.958 175.28,55.958 C174.916,55.958 174.570667,56.0116667 174.244,56.119 C173.917333,56.2263333 173.630333,56.385 173.383,56.595 C173.135667,56.805 172.937333,57.064 172.788,57.372 C172.638667,57.68 172.564,58.03 172.564,58.422 C172.564,58.8326667 172.655,59.1943333 172.837,59.507 C173.019,59.8196667 173.226667,60.0646667 173.46,60.242 L173.46,60.242 L173.46,60.298 C173.264,60.438 173.089,60.6176667 172.935,60.837 C172.781,61.0563333 172.704,61.3013333 172.704,61.572 C172.704,61.852 172.762333,62.0853333 172.879,62.272 C172.995667,62.4586667 173.142667,62.608 173.32,62.72 L173.32,62.72 L173.32,62.776 C173.002667,62.972 172.76,63.1936667 172.592,63.441 C172.424,63.6883333 172.34,63.9566667 172.34,64.246 C172.34,64.5446667 172.412333,64.806 172.557,65.03 C172.701667,65.254 172.9,65.4406667 173.152,65.59 C173.404,65.7393333 173.705,65.8513333 174.055,65.926 C174.405,66.0006667 174.785333,66.038 175.196,66.038 Z M175.28,59.808 C174.944,59.808 174.659333,59.689 174.426,59.451 C174.192667,59.213 174.076,58.87 174.076,58.422 C174.076,57.9833333 174.192667,57.6473333 174.426,57.414 C174.659333,57.1806667 174.944,57.064 175.28,57.064 C175.616,57.064 175.898333,57.183 176.127,57.421 C176.355667,57.659 176.47,57.9926667 176.47,58.422 C176.47,58.87 176.353333,59.213 176.12,59.451 C175.886667,59.689 175.606667,59.808 175.28,59.808 Z M175.448,64.988 C174.897333,64.988 174.465667,64.9016667 174.153,64.729 C173.840333,64.5563333 173.684,64.316 173.684,64.008 C173.684,63.672 173.861333,63.3686667 174.216,63.098 C174.468,63.1633333 174.780667,63.196 175.154,63.196 L175.154,63.196 L176.092,63.196 C176.484,63.196 176.785,63.2426667 176.995,63.336 C177.205,63.4293333 177.31,63.6113333 177.31,63.882 C177.31,64.1806667 177.139667,64.4396667 176.799,64.659 C176.458333,64.8783333 176.008,64.988 175.448,64.988 Z M181.496,63.168 C181.906667,63.168 182.287,63.0793333 182.637,62.902 C182.987,62.7246667 183.316,62.5053333 183.624,62.244 L183.624,62.244 L183.68,62.244 L183.792,63 L185.122,63 L185.122,58.926 C185.122,57.9646667 184.909667,57.2296667 184.485,56.721 C184.060333,56.2123333 183.418667,55.958 182.56,55.958 C182.009333,55.958 181.496,56.0466667 181.02,56.224 C180.544,56.4013333 180.114667,56.6113333 179.732,56.854 L179.732,56.854 L180.32,57.932 C180.628,57.7453333 180.943,57.5866667 181.265,57.456 C181.587,57.3253333 181.916,57.26 182.252,57.26 C182.485333,57.26 182.681333,57.295 182.84,57.365 C182.998667,57.435 183.127,57.533 183.225,57.659 C183.323,57.785 183.393,57.9296667 183.435,58.093 C183.477,58.2563333 183.502667,58.4266667 183.512,58.604 C182.802667,58.6786667 182.193667,58.786 181.685,58.926 C181.176333,59.066 180.756333,59.2386667 180.425,59.444 C180.093667,59.6493333 179.851,59.8943333 179.697,60.179 C179.543,60.4636667 179.466,60.788 179.466,61.152 C179.466,61.7586667 179.652667,62.2463333 180.026,62.615 C180.399333,62.9836667 180.889333,63.168 181.496,63.168 Z M182.014,61.908 C181.724667,61.908 181.486667,61.838 181.3,61.698 C181.113333,61.558 181.02,61.334 181.02,61.026 C181.02,60.858 181.062,60.6993333 181.146,60.55 C181.23,60.4006667 181.37,60.2676667 181.566,60.151 C181.762,60.0343333 182.018667,59.9293333 182.336,59.836 C182.653333,59.7426667 183.045333,59.668 183.512,59.612 L183.512,59.612 L183.512,61.152 C183.250667,61.3946667 183.005667,61.5813333 182.777,61.712 C182.548333,61.8426667 182.294,61.908 182.014,61.908 Z M189.252,63.168 C189.522667,63.168 189.777,63.1423333 190.015,63.091 C190.253,63.0396667 190.465333,62.9813333 190.652,62.916 L190.652,62.916 L190.372,61.726 C190.269333,61.7726667 190.155,61.81 190.029,61.838 C189.903,61.866 189.779333,61.88 189.658,61.88 C189.014,61.88 188.692,61.4786667 188.692,60.676 L188.692,60.676 L188.692,57.4 L190.442,57.4 L190.442,56.126 L188.692,56.126 L188.692,54.25 L187.348,54.25 L187.152,56.126 L186.088,56.196 L186.088,57.4 L187.068,57.4 L187.068,60.676 C187.068,61.0493333 187.107667,61.3876667 187.187,61.691 C187.266333,61.9943333 187.392333,62.2556667 187.565,62.475 C187.737667,62.6943333 187.961667,62.8646667 188.237,62.986 C188.512333,63.1073333 188.850667,63.168 189.252,63.168 Z M192.696,54.922 C192.985333,54.922 193.223333,54.838 193.41,54.67 C193.596667,54.502 193.69,54.2826667 193.69,54.012 C193.69,53.7413333 193.596667,53.5196667 193.41,53.347 C193.223333,53.1743333 192.985333,53.088 192.696,53.088 C192.406667,53.088 192.168667,53.1743333 191.982,53.347 C191.795333,53.5196667 191.702,53.7413333 191.702,54.012 C191.702,54.2826667 191.795333,54.502 191.982,54.67 C192.168667,54.838 192.406667,54.922 192.696,54.922 Z M193.494,63 L193.494,56.126 L191.884,56.126 L191.884,63 L193.494,63 Z M198.366,63.168 C198.795333,63.168 199.208333,63.0886667 199.605,62.93 C200.001667,62.7713333 200.349333,62.538 200.648,62.23 C200.946667,61.922 201.187,61.544 201.369,61.096 C201.551,60.648 201.642,60.1393333 201.642,59.57 C201.642,59.0006667 201.551,58.492 201.369,58.044 C201.187,57.596 200.946667,57.218 200.648,56.91 C200.349333,56.602 200.001667,56.3663333 199.605,56.203 C199.208333,56.0396667 198.795333,55.958 198.366,55.958 C197.936667,55.958 197.526,56.0396667 197.134,56.203 C196.742,56.3663333 196.394333,56.602 196.091,56.91 C195.787667,57.218 195.547333,57.596 195.37,58.044 C195.192667,58.492 195.104,59.0006667 195.104,59.57 C195.104,60.1393333 195.192667,60.648 195.37,61.096 C195.547333,61.544 195.787667,61.922 196.091,62.23 C196.394333,62.538 196.742,62.7713333 197.134,62.93 C197.526,63.0886667 197.936667,63.168 198.366,63.168 Z M198.366,61.852 C197.862,61.852 197.467667,61.6443333 197.183,61.229 C196.898333,60.8136667 196.756,60.2606667 196.756,59.57 C196.756,58.87 196.898333,58.3123333 197.183,57.897 C197.467667,57.4816667 197.862,57.274 198.366,57.274 C198.87,57.274 199.266667,57.4816667 199.556,57.897 C199.845333,58.3123333 199.99,58.87 199.99,59.57 C199.99,60.2606667 199.845333,60.8136667 199.556,61.229 C199.266667,61.6443333 198.87,61.852 198.366,61.852 Z M204.848,63 L204.848,58.198 C205.137333,57.918 205.396333,57.7056667 205.625,57.561 C205.853667,57.4163333 206.117333,57.344 206.416,57.344 C206.798667,57.344 207.074,57.4606667 207.242,57.694 C207.41,57.9273333 207.494,58.3286667 207.494,58.898 L207.494,58.898 L207.494,63 L209.104,63 L209.104,58.688 C209.104,57.8106667 208.936,57.1363333 208.6,56.665 C208.264,56.1936667 207.727333,55.958 206.99,55.958 C206.514,55.958 206.096333,56.0653333 205.737,56.28 C205.377667,56.4946667 205.044,56.7513333 204.736,57.05 L204.736,57.05 L204.68,57.05 L204.568,56.126 L203.238,56.126 L203.238,63 L204.848,63 Z M212.996,63.168 C213.425333,63.168 213.808,63.112 214.144,63 C214.48,62.888 214.76,62.7363333 214.984,62.545 C215.208,62.3536667 215.378333,62.1296667 215.495,61.873 C215.611667,61.6163333 215.67,61.3386667 215.67,61.04 C215.67,60.7226667 215.611667,60.4496667 215.495,60.221 C215.378333,59.9923333 215.224333,59.7986667 215.033,59.64 C214.841667,59.4813333 214.629333,59.3483333 214.396,59.241 C214.162667,59.1336667 213.929333,59.038 213.696,58.954 C213.509333,58.8886667 213.329667,58.8233333 213.157,58.758 C212.984333,58.6926667 212.832667,58.6226667 212.702,58.548 C212.571333,58.4733333 212.466333,58.387 212.387,58.289 C212.307667,58.191 212.268,58.072 212.268,57.932 C212.268,57.7173333 212.349667,57.5376667 212.513,57.393 C212.676333,57.2483333 212.930667,57.176 213.276,57.176 C213.546667,57.176 213.805667,57.2296667 214.053,57.337 C214.300333,57.4443333 214.545333,57.5866667 214.788,57.764 L214.788,57.764 L215.53,56.784 C215.25,56.5693333 214.918667,56.378 214.536,56.21 C214.153333,56.042 213.724,55.958 213.248,55.958 C212.473333,55.958 211.862,56.1493333 211.414,56.532 C210.966,56.9146667 210.742,57.4093333 210.742,58.016 C210.742,58.3053333 210.800333,58.555 210.917,58.765 C211.033667,58.975 211.183,59.1593333 211.365,59.318 C211.547,59.4766667 211.754667,59.612 211.988,59.724 C212.221333,59.836 212.45,59.934 212.674,60.018 C212.851333,60.0926667 213.028667,60.165 213.206,60.235 C213.383333,60.305 213.542,60.382 213.682,60.466 C213.822,60.55 213.934,60.6456667 214.018,60.753 C214.102,60.8603333 214.144,60.984 214.144,61.124 C214.144,61.3666667 214.055333,61.565 213.878,61.719 C213.700667,61.873 213.425333,61.95 213.052,61.95 C212.697333,61.95 212.368333,61.8823333 212.065,61.747 C211.761667,61.6116667 211.456,61.4226667 211.148,61.18 L211.148,61.18 L210.392,62.216 C210.728,62.4866667 211.127,62.713 211.589,62.895 C212.051,63.077 212.52,63.168 212.996,63.168 Z M150.948,82.54 L150.948,81.126 C151.62,81.0326667 152.149667,80.7713333 152.537,80.342 C152.924333,79.9126667 153.118,79.362 153.118,78.69 C153.118,78.186 153.022333,77.773 152.831,77.451 C152.639667,77.129 152.399333,76.8583333 152.11,76.639 C151.820667,76.4196667 151.505667,76.233 151.165,76.079 C150.824333,75.925 150.509333,75.7663333 150.22,75.603 C149.930667,75.4396667 149.690333,75.2506667 149.499,75.036 C149.307667,74.8213333 149.212,74.546 149.212,74.21 C149.212,73.7993333 149.338,73.4726667 149.59,73.23 C149.842,72.9873333 150.182667,72.866 150.612,72.866 C150.994667,72.866 151.309667,72.936 151.557,73.076 C151.804333,73.216 152.058667,73.412 152.32,73.664 L152.32,73.664 L152.936,72.978 C152.684,72.7073333 152.401667,72.474 152.089,72.278 C151.776333,72.082 151.396,71.9606667 150.948,71.914 L150.948,71.914 L150.948,70.528 L150.108,70.528 L150.108,71.942 C149.492,72.0353333 148.999667,72.2896667 148.631,72.705 C148.262333,73.1203333 148.078,73.6406667 148.078,74.266 C148.078,74.7233333 148.173667,75.099 148.365,75.393 C148.556333,75.687 148.796667,75.9366667 149.086,76.142 C149.375333,76.3473333 149.690333,76.5293333 150.031,76.688 C150.371667,76.8466667 150.686667,77.017 150.976,77.199 C151.265333,77.381 151.505667,77.5956667 151.697,77.843 C151.888333,78.0903333 151.984,78.4006667 151.984,78.774 C151.984,79.2126667 151.855667,79.5626667 151.599,79.824 C151.342333,80.0853333 150.952667,80.216 150.43,80.216 C150.000667,80.216 149.606333,80.125 149.247,79.943 C148.887667,79.761 148.558667,79.5393333 148.26,79.278 L148.26,79.278 L147.728,80.076 C148.026667,80.3466667 148.386,80.5823333 148.806,80.783 C149.226,80.9836667 149.66,81.1073333 150.108,81.154 L150.108,81.154 L150.108,82.54 L150.948,82.54 Z M157.262,81.168 C157.672667,81.168 158.055333,81.1096667 158.41,80.993 C158.764667,80.8763333 159.075,80.7083333 159.341,80.489 C159.607,80.2696667 159.817,80.0013333 159.971,79.684 C160.125,79.3666667 160.202,79.012 160.202,78.62 C160.202,78.312 160.153,78.032 160.055,77.78 C159.957,77.528 159.819333,77.3063333 159.642,77.115 C159.464667,76.9236667 159.259333,76.765 159.026,76.639 C158.792667,76.513 158.540667,76.4173333 158.27,76.352 L158.27,76.352 L158.27,76.296 C158.755333,76.1093333 159.147333,75.8433333 159.446,75.498 C159.744667,75.1526667 159.894,74.7093333 159.894,74.168 C159.894,73.804 159.828667,73.482 159.698,73.202 C159.567333,72.922 159.383,72.6863333 159.145,72.495 C158.907,72.3036667 158.624667,72.1566667 158.298,72.054 C157.971333,71.9513333 157.612,71.9 157.22,71.9 C156.688,71.9 156.214333,72.005 155.799,72.215 C155.383667,72.425 155.003333,72.6933333 154.658,73.02 L154.658,73.02 L155.274,73.748 C155.544667,73.4773333 155.836333,73.258 156.149,73.09 C156.461667,72.922 156.804667,72.838 157.178,72.838 C157.654,72.838 158.029667,72.964 158.305,73.216 C158.580333,73.468 158.718,73.8133333 158.718,74.252 C158.718,74.4853333 158.676,74.7046667 158.592,74.91 C158.508,75.1153333 158.365667,75.2926667 158.165,75.442 C157.964333,75.5913333 157.703,75.708 157.381,75.792 C157.059,75.876 156.66,75.918 156.184,75.918 L156.184,75.918 L156.184,76.8 C156.716,76.8 157.164,76.842 157.528,76.926 C157.892,77.01 158.186,77.1313333 158.41,77.29 C158.634,77.4486667 158.795,77.6376667 158.893,77.857 C158.991,78.0763333 159.04,78.3166667 159.04,78.578 C159.04,79.082 158.867333,79.481 158.522,79.775 C158.176667,80.069 157.733333,80.216 157.192,80.216 C156.66,80.216 156.214333,80.1086667 155.855,79.894 C155.495667,79.6793333 155.180667,79.432 154.91,79.152 L154.91,79.152 L154.322,79.908 C154.471333,80.076 154.641667,80.2346667 154.833,80.384 C155.024333,80.5333333 155.241333,80.6663333 155.484,80.783 C155.726667,80.8996667 155.995,80.993 156.289,81.063 C156.583,81.133 156.907333,81.168 157.262,81.168 Z M166.264,81 L166.264,78.536 L167.482,78.536 L167.482,77.612 L166.264,77.612 L166.264,72.068 L164.976,72.068 L161.154,77.78 L161.154,78.536 L165.172,78.536 L165.172,81 L166.264,81 Z M165.172,77.612 L162.372,77.612 L164.458,74.56 C164.588667,74.3453333 164.714667,74.1353333 164.836,73.93 C164.957333,73.7246667 165.074,73.5146667 165.186,73.3 L165.186,73.3 L165.242,73.3 C165.223333,73.5426667 165.207,73.8296667 165.193,74.161 C165.179,74.4923333 165.172,74.7793333 165.172,75.022 L165.172,75.022 L165.172,77.612 Z M173.222,81 L173.222,78.536 L174.44,78.536 L174.44,77.612 L173.222,77.612 L173.222,72.068 L171.934,72.068 L168.112,77.78 L168.112,78.536 L172.13,78.536 L172.13,81 L173.222,81 Z M172.13,77.612 L169.33,77.612 L171.416,74.56 C171.546667,74.3453333 171.672667,74.1353333 171.794,73.93 C171.915333,73.7246667 172.032,73.5146667 172.144,73.3 L172.144,73.3 L172.2,73.3 C172.181333,73.5426667 172.165,73.8296667 172.151,74.161 C172.137,74.4923333 172.13,74.7793333 172.13,75.022 L172.13,75.022 L172.13,77.612 Z M179.018,81 C179.531333,81 180.002667,80.944 180.432,80.832 C180.861333,80.72 181.23,80.552 181.538,80.328 C181.846,80.104 182.084,79.824 182.252,79.488 C182.42,79.152 182.504,78.76 182.504,78.312 C182.504,77.6773333 182.331333,77.178 181.986,76.814 C181.640667,76.45 181.188,76.2166667 180.628,76.114 L180.628,76.114 L180.628,76.058 C181.066667,75.918 181.400333,75.6636667 181.629,75.295 C181.857667,74.9263333 181.972,74.5133333 181.972,74.056 C181.972,73.6546667 181.895,73.3116667 181.741,73.027 C181.587,72.7423333 181.372333,72.5113333 181.097,72.334 C180.821667,72.1566667 180.490333,72.026 180.103,71.942 C179.715667,71.858 179.288667,71.816 178.822,71.816 L178.822,71.816 L176.092,71.816 L176.092,81 L179.018,81 Z M178.612,75.722 L177.254,75.722 L177.254,72.74 L178.668,72.74 C179.386667,72.74 179.925667,72.852 180.285,73.076 C180.644333,73.3 180.824,73.678 180.824,74.21 C180.824,74.6766667 180.651333,75.0453333 180.306,75.316 C179.960667,75.5866667 179.396,75.722 178.612,75.722 L178.612,75.722 Z M178.85,80.076 L177.254,80.076 L177.254,76.618 L178.85,76.618 C179.662,76.618 180.282667,76.751 180.712,77.017 C181.141333,77.283 181.356,77.7006667 181.356,78.27 C181.356,78.886 181.136667,79.341 180.698,79.635 C180.259333,79.929 179.643333,80.076 178.85,80.076 L178.85,80.076 Z" id="Obligations$344B" fill="#666666" fill-rule="nonzero"></path>
                <path d="M321.592,63.168 C322.124,63.168 322.602333,63.091 323.027,62.937 C323.451667,62.783 323.815667,62.538 324.119,62.202 C324.422333,61.866 324.653333,61.4343333 324.812,60.907 C324.970667,60.3796667 325.05,59.738 325.05,58.982 L325.05,58.982 L325.05,53.844 L323.496,53.844 L323.496,59.108 C323.496,59.6026667 323.449333,60.0203333 323.356,60.361 C323.262667,60.7016667 323.132,60.9746667 322.964,61.18 C322.796,61.3853333 322.595333,61.5323333 322.362,61.621 C322.128667,61.7096667 321.872,61.754 321.592,61.754 C321.312,61.754 321.06,61.7096667 320.836,61.621 C320.612,61.5323333 320.418333,61.3853333 320.255,61.18 C320.091667,60.9746667 319.965667,60.7016667 319.877,60.361 C319.788333,60.0203333 319.744,59.6026667 319.744,59.108 L319.744,59.108 L319.744,53.844 L318.12,53.844 L318.12,58.982 C318.12,59.738 318.201667,60.3796667 318.365,60.907 C318.528333,61.4343333 318.761667,61.866 319.065,62.202 C319.368333,62.538 319.732333,62.783 320.157,62.937 C320.581667,63.091 321.06,63.168 321.592,63.168 Z M328.802,63 L328.802,58.198 C329.091333,57.918 329.350333,57.7056667 329.579,57.561 C329.807667,57.4163333 330.071333,57.344 330.37,57.344 C330.752667,57.344 331.028,57.4606667 331.196,57.694 C331.364,57.9273333 331.448,58.3286667 331.448,58.898 L331.448,58.898 L331.448,63 L333.058,63 L333.058,58.688 C333.058,57.8106667 332.89,57.1363333 332.554,56.665 C332.218,56.1936667 331.681333,55.958 330.944,55.958 C330.468,55.958 330.050333,56.0653333 329.691,56.28 C329.331667,56.4946667 328.998,56.7513333 328.69,57.05 L328.69,57.05 L328.634,57.05 L328.522,56.126 L327.192,56.126 L327.192,63 L328.802,63 Z M337.846,63.168 C338.275333,63.168 338.688333,63.0886667 339.085,62.93 C339.481667,62.7713333 339.829333,62.538 340.128,62.23 C340.426667,61.922 340.667,61.544 340.849,61.096 C341.031,60.648 341.122,60.1393333 341.122,59.57 C341.122,59.0006667 341.031,58.492 340.849,58.044 C340.667,57.596 340.426667,57.218 340.128,56.91 C339.829333,56.602 339.481667,56.3663333 339.085,56.203 C338.688333,56.0396667 338.275333,55.958 337.846,55.958 C337.416667,55.958 337.006,56.0396667 336.614,56.203 C336.222,56.3663333 335.874333,56.602 335.571,56.91 C335.267667,57.218 335.027333,57.596 334.85,58.044 C334.672667,58.492 334.584,59.0006667 334.584,59.57 C334.584,60.1393333 334.672667,60.648 334.85,61.096 C335.027333,61.544 335.267667,61.922 335.571,62.23 C335.874333,62.538 336.222,62.7713333 336.614,62.93 C337.006,63.0886667 337.416667,63.168 337.846,63.168 Z M337.846,61.852 C337.342,61.852 336.947667,61.6443333 336.663,61.229 C336.378333,60.8136667 336.236,60.2606667 336.236,59.57 C336.236,58.87 336.378333,58.3123333 336.663,57.897 C336.947667,57.4816667 337.342,57.274 337.846,57.274 C338.35,57.274 338.746667,57.4816667 339.036,57.897 C339.325333,58.3123333 339.47,58.87 339.47,59.57 C339.47,60.2606667 339.325333,60.8136667 339.036,61.229 C338.746667,61.6443333 338.35,61.852 337.846,61.852 Z M346.05,63.168 C346.432667,63.168 346.801333,63.084 347.156,62.916 C347.510667,62.748 347.823333,62.5053333 348.094,62.188 C348.364667,61.8706667 348.581667,61.481 348.745,61.019 C348.908333,60.557 348.99,60.032 348.99,59.444 C348.99,58.912 348.929333,58.4313333 348.808,58.002 C348.686667,57.5726667 348.509333,57.2063333 348.276,56.903 C348.042667,56.5996667 347.758,56.3663333 347.422,56.203 C347.086,56.0396667 346.703333,55.958 346.274,55.958 C345.919333,55.958 345.571667,56.0373333 345.231,56.196 C344.890333,56.3546667 344.575333,56.56 344.286,56.812 L344.286,56.812 L344.328,55.664 L344.328,53.116 L342.718,53.116 L342.718,63 L343.992,63 L344.132,62.272 L344.174,62.272 C344.463333,62.5613333 344.769,62.783 345.091,62.937 C345.413,63.091 345.732667,63.168 346.05,63.168 Z M345.714,61.838 C345.508667,61.838 345.287,61.796 345.049,61.712 C344.811,61.628 344.570667,61.4786667 344.328,61.264 L344.328,61.264 L344.328,58.058 C344.850667,57.5446667 345.354667,57.288 345.84,57.288 C346.362667,57.288 346.740667,57.4793333 346.974,57.862 C347.207333,58.2446667 347.324,58.7813333 347.324,59.472 C347.324,60.256 347.17,60.8463333 346.862,61.243 C346.554,61.6396667 346.171333,61.838 345.714,61.838 Z M352.168,63.168 C352.522667,63.168 352.807333,63.1213333 353.022,63.028 L353.022,63.028 L352.812,61.824 C352.746667,61.8426667 352.697667,61.852 352.665,61.852 L352.665,61.852 L352.56,61.852 C352.476,61.852 352.396667,61.8123333 352.322,61.733 C352.247333,61.6536667 352.21,61.516 352.21,61.32 L352.21,61.32 L352.21,53.116 L350.6,53.116 L350.6,61.236 C350.6,61.8333333 350.716667,62.3046667 350.95,62.65 C351.183333,62.9953333 351.589333,63.168 352.168,63.168 Z M355.206,54.922 C355.495333,54.922 355.733333,54.838 355.92,54.67 C356.106667,54.502 356.2,54.2826667 356.2,54.012 C356.2,53.7413333 356.106667,53.5196667 355.92,53.347 C355.733333,53.1743333 355.495333,53.088 355.206,53.088 C354.916667,53.088 354.678667,53.1743333 354.492,53.347 C354.305333,53.5196667 354.212,53.7413333 354.212,54.012 C354.212,54.2826667 354.305333,54.502 354.492,54.67 C354.678667,54.838 354.916667,54.922 355.206,54.922 Z M356.004,63 L356.004,56.126 L354.394,56.126 L354.394,63 L356.004,63 Z M360.456,66.038 C361.016,66.038 361.522333,65.975 361.975,65.849 C362.427667,65.723 362.812667,65.5526667 363.13,65.338 C363.447333,65.1233333 363.692333,64.8666667 363.865,64.568 C364.037667,64.2693333 364.124,63.952 364.124,63.616 C364.124,63.0186667 363.911667,62.587 363.487,62.321 C363.062333,62.055 362.434667,61.922 361.604,61.922 L361.604,61.922 L360.386,61.922 C359.966,61.922 359.674333,61.866 359.511,61.754 C359.347667,61.642 359.266,61.488 359.266,61.292 C359.266,61.1333333 359.296333,61.0073333 359.357,60.914 C359.417667,60.8206667 359.499333,60.7273333 359.602,60.634 C359.760667,60.6993333 359.919333,60.746 360.078,60.774 C360.236667,60.802 360.390667,60.816 360.54,60.816 C360.904,60.816 361.244667,60.7646667 361.562,60.662 C361.879333,60.5593333 362.154667,60.41 362.388,60.214 C362.621333,60.018 362.805667,59.7753333 362.941,59.486 C363.076333,59.1966667 363.144,58.8606667 363.144,58.478 C363.144,58.2353333 363.106667,58.0136667 363.032,57.813 C362.957333,57.6123333 362.864,57.4466667 362.752,57.316 L362.752,57.316 L364.012,57.316 L364.012,56.126 L361.548,56.126 C361.408,56.0793333 361.251667,56.0396667 361.079,56.007 C360.906333,55.9743333 360.726667,55.958 360.54,55.958 C360.176,55.958 359.830667,56.0116667 359.504,56.119 C359.177333,56.2263333 358.890333,56.385 358.643,56.595 C358.395667,56.805 358.197333,57.064 358.048,57.372 C357.898667,57.68 357.824,58.03 357.824,58.422 C357.824,58.8326667 357.915,59.1943333 358.097,59.507 C358.279,59.8196667 358.486667,60.0646667 358.72,60.242 L358.72,60.242 L358.72,60.298 C358.524,60.438 358.349,60.6176667 358.195,60.837 C358.041,61.0563333 357.964,61.3013333 357.964,61.572 C357.964,61.852 358.022333,62.0853333 358.139,62.272 C358.255667,62.4586667 358.402667,62.608 358.58,62.72 L358.58,62.72 L358.58,62.776 C358.262667,62.972 358.02,63.1936667 357.852,63.441 C357.684,63.6883333 357.6,63.9566667 357.6,64.246 C357.6,64.5446667 357.672333,64.806 357.817,65.03 C357.961667,65.254 358.16,65.4406667 358.412,65.59 C358.664,65.7393333 358.965,65.8513333 359.315,65.926 C359.665,66.0006667 360.045333,66.038 360.456,66.038 Z M360.54,59.808 C360.204,59.808 359.919333,59.689 359.686,59.451 C359.452667,59.213 359.336,58.87 359.336,58.422 C359.336,57.9833333 359.452667,57.6473333 359.686,57.414 C359.919333,57.1806667 360.204,57.064 360.54,57.064 C360.876,57.064 361.158333,57.183 361.387,57.421 C361.615667,57.659 361.73,57.9926667 361.73,58.422 C361.73,58.87 361.613333,59.213 361.38,59.451 C361.146667,59.689 360.866667,59.808 360.54,59.808 Z M360.708,64.988 C360.157333,64.988 359.725667,64.9016667 359.413,64.729 C359.100333,64.5563333 358.944,64.316 358.944,64.008 C358.944,63.672 359.121333,63.3686667 359.476,63.098 C359.728,63.1633333 360.040667,63.196 360.414,63.196 L360.414,63.196 L361.352,63.196 C361.744,63.196 362.045,63.2426667 362.255,63.336 C362.465,63.4293333 362.57,63.6113333 362.57,63.882 C362.57,64.1806667 362.399667,64.4396667 362.059,64.659 C361.718333,64.8783333 361.268,64.988 360.708,64.988 Z M366.756,63.168 C367.166667,63.168 367.547,63.0793333 367.897,62.902 C368.247,62.7246667 368.576,62.5053333 368.884,62.244 L368.884,62.244 L368.94,62.244 L369.052,63 L370.382,63 L370.382,58.926 C370.382,57.9646667 370.169667,57.2296667 369.745,56.721 C369.320333,56.2123333 368.678667,55.958 367.82,55.958 C367.269333,55.958 366.756,56.0466667 366.28,56.224 C365.804,56.4013333 365.374667,56.6113333 364.992,56.854 L364.992,56.854 L365.58,57.932 C365.888,57.7453333 366.203,57.5866667 366.525,57.456 C366.847,57.3253333 367.176,57.26 367.512,57.26 C367.745333,57.26 367.941333,57.295 368.1,57.365 C368.258667,57.435 368.387,57.533 368.485,57.659 C368.583,57.785 368.653,57.9296667 368.695,58.093 C368.737,58.2563333 368.762667,58.4266667 368.772,58.604 C368.062667,58.6786667 367.453667,58.786 366.945,58.926 C366.436333,59.066 366.016333,59.2386667 365.685,59.444 C365.353667,59.6493333 365.111,59.8943333 364.957,60.179 C364.803,60.4636667 364.726,60.788 364.726,61.152 C364.726,61.7586667 364.912667,62.2463333 365.286,62.615 C365.659333,62.9836667 366.149333,63.168 366.756,63.168 Z M367.274,61.908 C366.984667,61.908 366.746667,61.838 366.56,61.698 C366.373333,61.558 366.28,61.334 366.28,61.026 C366.28,60.858 366.322,60.6993333 366.406,60.55 C366.49,60.4006667 366.63,60.2676667 366.826,60.151 C367.022,60.0343333 367.278667,59.9293333 367.596,59.836 C367.913333,59.7426667 368.305333,59.668 368.772,59.612 L368.772,59.612 L368.772,61.152 C368.510667,61.3946667 368.265667,61.5813333 368.037,61.712 C367.808333,61.8426667 367.554,61.908 367.274,61.908 Z M374.512,63.168 C374.782667,63.168 375.037,63.1423333 375.275,63.091 C375.513,63.0396667 375.725333,62.9813333 375.912,62.916 L375.912,62.916 L375.632,61.726 C375.529333,61.7726667 375.415,61.81 375.289,61.838 C375.163,61.866 375.039333,61.88 374.918,61.88 C374.274,61.88 373.952,61.4786667 373.952,60.676 L373.952,60.676 L373.952,57.4 L375.702,57.4 L375.702,56.126 L373.952,56.126 L373.952,54.25 L372.608,54.25 L372.412,56.126 L371.348,56.196 L371.348,57.4 L372.328,57.4 L372.328,60.676 C372.328,61.0493333 372.367667,61.3876667 372.447,61.691 C372.526333,61.9943333 372.652333,62.2556667 372.825,62.475 C372.997667,62.6943333 373.221667,62.8646667 373.497,62.986 C373.772333,63.1073333 374.110667,63.168 374.512,63.168 Z M379.86,63.168 C380.298667,63.168 380.718667,63.098 381.12,62.958 C381.521333,62.818 381.885333,62.6406667 382.212,62.426 L382.212,62.426 L381.666,61.418 C381.414,61.5766667 381.159667,61.7003333 380.903,61.789 C380.646333,61.8776667 380.368667,61.922 380.07,61.922 C379.51,61.922 379.050333,61.7563333 378.691,61.425 C378.331667,61.0936667 378.114667,60.62 378.04,60.004 L378.04,60.004 L382.408,60.004 C382.426667,59.92 382.443,59.808 382.457,59.668 C382.471,59.528 382.478,59.3786667 382.478,59.22 C382.478,58.744 382.417333,58.3053333 382.296,57.904 C382.174667,57.5026667 381.995,57.1573333 381.757,56.868 C381.519,56.5786667 381.222667,56.3546667 380.868,56.196 C380.513333,56.0373333 380.102667,55.958 379.636,55.958 C379.234667,55.958 378.842667,56.042 378.46,56.21 C378.077333,56.378 377.739,56.616 377.445,56.924 C377.151,57.232 376.915333,57.61 376.738,58.058 C376.560667,58.506 376.472,59.01 376.472,59.57 C376.472,60.1393333 376.558333,60.6456667 376.731,61.089 C376.903667,61.5323333 377.144,61.908 377.452,62.216 C377.76,62.524 378.119333,62.7596667 378.53,62.923 C378.940667,63.0863333 379.384,63.168 379.86,63.168 Z M381.078,58.912 L378.026,58.912 C378.100667,58.352 378.292,57.9273333 378.6,57.638 C378.908,57.3486667 379.267333,57.204 379.678,57.204 C380.154,57.204 380.506333,57.3556667 380.735,57.659 C380.963667,57.9623333 381.078,58.38 381.078,58.912 L381.078,58.912 Z M386.426,63.168 C386.799333,63.168 387.154,63.0793333 387.49,62.902 C387.826,62.7246667 388.12,62.51 388.372,62.258 L388.372,62.258 L388.428,62.258 L388.54,63 L389.87,63 L389.87,53.116 L388.26,53.116 L388.26,55.608 L388.316,56.714 C388.045333,56.4806667 387.774667,56.2963333 387.504,56.161 C387.233333,56.0256667 386.902,55.958 386.51,55.958 C386.136667,55.958 385.775,56.042 385.425,56.21 C385.075,56.378 384.764667,56.616 384.494,56.924 C384.223333,57.232 384.006333,57.61 383.843,58.058 C383.679667,58.506 383.598,59.01 383.598,59.57 C383.598,60.7086667 383.852333,61.593 384.361,62.223 C384.869667,62.853 385.558,63.168 386.426,63.168 Z M386.818,61.838 C386.314,61.838 385.929,61.6443333 385.663,61.257 C385.397,60.8696667 385.264,60.3026667 385.264,59.556 C385.264,58.828 385.418,58.268 385.726,57.876 C386.034,57.484 386.412,57.288 386.86,57.288 C387.093333,57.288 387.324333,57.33 387.553,57.414 C387.781667,57.498 388.017333,57.6473333 388.26,57.862 L388.26,57.862 L388.26,61.068 C387.812,61.5813333 387.331333,61.838 386.818,61.838 Z M320.948,82.54 L320.948,81.126 C321.62,81.0326667 322.149667,80.7713333 322.537,80.342 C322.924333,79.9126667 323.118,79.362 323.118,78.69 C323.118,78.186 323.022333,77.773 322.831,77.451 C322.639667,77.129 322.399333,76.8583333 322.11,76.639 C321.820667,76.4196667 321.505667,76.233 321.165,76.079 C320.824333,75.925 320.509333,75.7663333 320.22,75.603 C319.930667,75.4396667 319.690333,75.2506667 319.499,75.036 C319.307667,74.8213333 319.212,74.546 319.212,74.21 C319.212,73.7993333 319.338,73.4726667 319.59,73.23 C319.842,72.9873333 320.182667,72.866 320.612,72.866 C320.994667,72.866 321.309667,72.936 321.557,73.076 C321.804333,73.216 322.058667,73.412 322.32,73.664 L322.32,73.664 L322.936,72.978 C322.684,72.7073333 322.401667,72.474 322.089,72.278 C321.776333,72.082 321.396,71.9606667 320.948,71.914 L320.948,71.914 L320.948,70.528 L320.108,70.528 L320.108,71.942 C319.492,72.0353333 318.999667,72.2896667 318.631,72.705 C318.262333,73.1203333 318.078,73.6406667 318.078,74.266 C318.078,74.7233333 318.173667,75.099 318.365,75.393 C318.556333,75.687 318.796667,75.9366667 319.086,76.142 C319.375333,76.3473333 319.690333,76.5293333 320.031,76.688 C320.371667,76.8466667 320.686667,77.017 320.976,77.199 C321.265333,77.381 321.505667,77.5956667 321.697,77.843 C321.888333,78.0903333 321.984,78.4006667 321.984,78.774 C321.984,79.2126667 321.855667,79.5626667 321.599,79.824 C321.342333,80.0853333 320.952667,80.216 320.43,80.216 C320.000667,80.216 319.606333,80.125 319.247,79.943 C318.887667,79.761 318.558667,79.5393333 318.26,79.278 L318.26,79.278 L317.728,80.076 C318.026667,80.3466667 318.386,80.5823333 318.806,80.783 C319.226,80.9836667 319.66,81.1073333 320.108,81.154 L320.108,81.154 L320.108,82.54 L320.948,82.54 Z M327.234,81.168 C327.626,81.168 328.001667,81.1003333 328.361,80.965 C328.720333,80.8296667 329.04,80.6336667 329.32,80.377 C329.6,80.1203333 329.824,79.8053333 329.992,79.432 C330.16,79.0586667 330.244,78.6293333 330.244,78.144 C330.244,77.6586667 330.171667,77.241 330.027,76.891 C329.882333,76.541 329.684,76.2516667 329.432,76.023 C329.18,75.7943333 328.886,75.624 328.55,75.512 C328.214,75.4 327.854667,75.344 327.472,75.344 C327.201333,75.344 326.958667,75.3766667 326.744,75.442 C326.529333,75.5073333 326.314667,75.596 326.1,75.708 L326.1,75.708 L326.338,73.062 L329.796,73.062 L329.796,72.068 L325.33,72.068 L325.036,76.366 L325.652,76.758 C325.922667,76.5806667 326.167667,76.4453333 326.387,76.352 C326.606333,76.2586667 326.87,76.212 327.178,76.212 C327.756667,76.212 328.218667,76.3846667 328.564,76.73 C328.909333,77.0753333 329.082,77.556 329.082,78.172 C329.082,78.48 329.030667,78.76 328.928,79.012 C328.825333,79.264 328.685333,79.4786667 328.508,79.656 C328.330667,79.8333333 328.123,79.971 327.885,80.069 C327.647,80.167 327.392667,80.216 327.122,80.216 C326.599333,80.216 326.158333,80.1133333 325.799,79.908 C325.439667,79.7026667 325.129333,79.4646667 324.868,79.194 L324.868,79.194 L324.308,79.95 C324.457333,80.1086667 324.627667,80.2603333 324.819,80.405 C325.010333,80.5496667 325.225,80.678 325.463,80.79 C325.701,80.902 325.967,80.993 326.261,81.063 C326.555,81.133 326.879333,81.168 327.234,81.168 Z M334.192,81.168 C334.584,81.168 334.959667,81.1003333 335.319,80.965 C335.678333,80.8296667 335.998,80.6336667 336.278,80.377 C336.558,80.1203333 336.782,79.8053333 336.95,79.432 C337.118,79.0586667 337.202,78.6293333 337.202,78.144 C337.202,77.6586667 337.129667,77.241 336.985,76.891 C336.840333,76.541 336.642,76.2516667 336.39,76.023 C336.138,75.7943333 335.844,75.624 335.508,75.512 C335.172,75.4 334.812667,75.344 334.43,75.344 C334.159333,75.344 333.916667,75.3766667 333.702,75.442 C333.487333,75.5073333 333.272667,75.596 333.058,75.708 L333.058,75.708 L333.296,73.062 L336.754,73.062 L336.754,72.068 L332.288,72.068 L331.994,76.366 L332.61,76.758 C332.880667,76.5806667 333.125667,76.4453333 333.345,76.352 C333.564333,76.2586667 333.828,76.212 334.136,76.212 C334.714667,76.212 335.176667,76.3846667 335.522,76.73 C335.867333,77.0753333 336.04,77.556 336.04,78.172 C336.04,78.48 335.988667,78.76 335.886,79.012 C335.783333,79.264 335.643333,79.4786667 335.466,79.656 C335.288667,79.8333333 335.081,79.971 334.843,80.069 C334.605,80.167 334.350667,80.216 334.08,80.216 C333.557333,80.216 333.116333,80.1133333 332.757,79.908 C332.397667,79.7026667 332.087333,79.4646667 331.826,79.194 L331.826,79.194 L331.266,79.95 C331.415333,80.1086667 331.585667,80.2603333 331.777,80.405 C331.968333,80.5496667 332.183,80.678 332.421,80.79 C332.659,80.902 332.925,80.993 333.219,81.063 C333.513,81.133 333.837333,81.168 334.192,81.168 Z M343.222,81 L343.222,78.536 L344.44,78.536 L344.44,77.612 L343.222,77.612 L343.222,72.068 L341.934,72.068 L338.112,77.78 L338.112,78.536 L342.13,78.536 L342.13,81 L343.222,81 Z M342.13,77.612 L339.33,77.612 L341.416,74.56 C341.546667,74.3453333 341.672667,74.1353333 341.794,73.93 C341.915333,73.7246667 342.032,73.5146667 342.144,73.3 L342.144,73.3 L342.2,73.3 C342.181333,73.5426667 342.165,73.8296667 342.151,74.161 C342.137,74.4923333 342.13,74.7793333 342.13,75.022 L342.13,75.022 L342.13,77.612 Z M349.018,81 C349.531333,81 350.002667,80.944 350.432,80.832 C350.861333,80.72 351.23,80.552 351.538,80.328 C351.846,80.104 352.084,79.824 352.252,79.488 C352.42,79.152 352.504,78.76 352.504,78.312 C352.504,77.6773333 352.331333,77.178 351.986,76.814 C351.640667,76.45 351.188,76.2166667 350.628,76.114 L350.628,76.114 L350.628,76.058 C351.066667,75.918 351.400333,75.6636667 351.629,75.295 C351.857667,74.9263333 351.972,74.5133333 351.972,74.056 C351.972,73.6546667 351.895,73.3116667 351.741,73.027 C351.587,72.7423333 351.372333,72.5113333 351.097,72.334 C350.821667,72.1566667 350.490333,72.026 350.103,71.942 C349.715667,71.858 349.288667,71.816 348.822,71.816 L348.822,71.816 L346.092,71.816 L346.092,81 L349.018,81 Z M348.612,75.722 L347.254,75.722 L347.254,72.74 L348.668,72.74 C349.386667,72.74 349.925667,72.852 350.285,73.076 C350.644333,73.3 350.824,73.678 350.824,74.21 C350.824,74.6766667 350.651333,75.0453333 350.306,75.316 C349.960667,75.5866667 349.396,75.722 348.612,75.722 L348.612,75.722 Z M348.85,80.076 L347.254,80.076 L347.254,76.618 L348.85,76.618 C349.662,76.618 350.282667,76.751 350.712,77.017 C351.141333,77.283 351.356,77.7006667 351.356,78.27 C351.356,78.886 351.136667,79.341 350.698,79.635 C350.259333,79.929 349.643333,80.076 348.85,80.076 L348.85,80.076 Z" id="Unobligated$554B" fill="#666666" fill-rule="nonzero"></path>
                <path d="M179,30 L179,34.6176471 C179,35.7222166 178.104569,36.6176471 177,36.6176471 L98,36.6176471 C96.8954305,36.6176471 96,37.5130776 96,38.6176471 L96,45 L96,45" id="Line-Copy-7" stroke="#C6C6C6" stroke-linecap="round" transform="translate(137.500000, 37.500000) scale(-1, 1) translate(-137.500000, -37.500000) "></path>
                <path d="M344,30 L344,34.6176471 C344,35.7222166 343.104569,36.6176471 342,36.6176471 L194,36.6176471 C192.895431,36.6176471 192,37.5130776 192,38.6176471 L192,45 L192,45" id="Line-Copy-8" stroke="#C6C6C6" stroke-linecap="round" transform="translate(268.000000, 37.500000) scale(-1, 1) translate(-268.000000, -37.500000) "></path>
                <line x1="4" y1="30" x2="4" y2="45" id="Line" stroke="#C6C6C6"></line>
                <rect id="unobligated" fill="#F3E9FF" x="99" y="0" width="160" height="30"></rect>
                <rect id="obligated" fill="#6F41A7" x="93" y="0" width="6" height="30"></rect>
                <rect id="outlays" fill="#331E4D" x="0" y="0" width="93" height="30"></rect>
                <path d="M271.368,21.54 L271.368,20.084 C272.096,19.9253333 272.642,19.6056667 273.006,19.125 C273.37,18.6443333 273.552,18.068 273.552,17.396 C273.552,16.948 273.461,16.5723333 273.279,16.269 C273.097,15.9656667 272.868333,15.7066667 272.593,15.492 C272.317667,15.2773333 272.021333,15.0953333 271.704,14.946 C271.386667,14.7966667 271.090333,14.652 270.815,14.512 C270.539667,14.372 270.311,14.225 270.129,14.071 C269.947,13.917 269.856,13.728 269.856,13.504 C269.856,13.1866667 269.944667,12.958 270.122,12.818 C270.299333,12.678 270.556,12.608 270.892,12.608 C271.190667,12.608 271.456667,12.6663333 271.69,12.783 C271.923333,12.8996667 272.166,13.0746667 272.418,13.308 L272.418,13.308 L273.454,12.132 C273.183333,11.8426667 272.88,11.5953333 272.544,11.39 C272.208,11.1846667 271.816,11.0493333 271.368,10.984 L271.368,10.984 L271.368,9.57 L270.01,9.57 L270.01,11.012 C269.347333,11.1426667 268.827,11.4343333 268.449,11.887 C268.071,12.3396667 267.882,12.9113333 267.882,13.602 C267.882,14.022 267.973,14.3766667 268.155,14.666 C268.337,14.9553333 268.565667,15.2073333 268.841,15.422 C269.116333,15.6366667 269.412667,15.821 269.73,15.975 C270.047333,16.129 270.343667,16.283 270.619,16.437 C270.894333,16.591 271.123,16.752 271.305,16.92 C271.487,17.088 271.578,17.2933333 271.578,17.536 C271.578,17.8626667 271.487,18.1053333 271.305,18.264 C271.123,18.4226667 270.836,18.502 270.444,18.502 C270.108,18.502 269.779,18.4343333 269.457,18.299 C269.135,18.1636667 268.796667,17.9606667 268.442,17.69 L268.442,17.69 L267.546,19.076 C267.872667,19.3746667 268.262333,19.615 268.715,19.797 C269.167667,19.979 269.599333,20.0933333 270.01,20.14 L270.01,20.14 L270.01,21.54 L271.368,21.54 Z M278.074,20.168 C278.55,20.168 278.981667,20.105 279.369,19.979 C279.756333,19.853 280.087667,19.6803333 280.363,19.461 C280.638333,19.2416667 280.850667,18.9826667 281,18.684 C281.149333,18.3853333 281.224,18.0586667 281.224,17.704 C281.224,17.116 281.074667,16.64 280.776,16.276 C280.477333,15.912 280.113333,15.6133333 279.684,15.38 L279.684,15.38 L279.684,15.324 C279.992,15.1186667 280.262667,14.8503333 280.496,14.519 C280.729333,14.1876667 280.846,13.8073333 280.846,13.378 C280.846,13.014 280.780667,12.6803333 280.65,12.377 C280.519333,12.0736667 280.337333,11.817 280.104,11.607 C279.870667,11.397 279.586,11.2336667 279.25,11.117 C278.914,11.0003333 278.545333,10.942 278.144,10.942 C277.733333,10.942 277.353,10.998 277.003,11.11 C276.653,11.222 276.352,11.3853333 276.1,11.6 C275.848,11.8146667 275.652,12.0736667 275.512,12.377 C275.372,12.6803333 275.302,13.0186667 275.302,13.392 C275.302,13.868 275.414,14.2716667 275.638,14.603 C275.862,14.9343333 276.146667,15.2306667 276.492,15.492 L276.492,15.492 L276.492,15.548 C276.072,15.772 275.715,16.0566667 275.421,16.402 C275.127,16.7473333 274.98,17.1906667 274.98,17.732 C274.98,18.096 275.057,18.4273333 275.211,18.726 C275.365,19.0246667 275.579667,19.2813333 275.855,19.496 C276.130333,19.7106667 276.457,19.8763333 276.835,19.993 C277.213,20.1096667 277.626,20.168 278.074,20.168 Z M278.634,14.82 C278.176667,14.6426667 277.808,14.4513333 277.528,14.246 C277.248,14.0406667 277.108,13.756 277.108,13.392 C277.108,13.0466667 277.206,12.79 277.402,12.622 C277.598,12.454 277.831333,12.37 278.102,12.37 C278.438,12.37 278.701667,12.475 278.893,12.685 C279.084333,12.895 279.18,13.1726667 279.18,13.518 C279.18,13.966 278.998,14.4 278.634,14.82 Z M278.116,18.74 C277.742667,18.74 277.420667,18.6303333 277.15,18.411 C276.879333,18.1916667 276.744,17.886 276.744,17.494 C276.744,17.2233333 276.809333,16.9666667 276.94,16.724 C277.070667,16.4813333 277.234,16.2666667 277.43,16.08 C277.71,16.2013333 277.964333,16.3133333 278.193,16.416 C278.421667,16.5186667 278.62,16.6283333 278.788,16.745 C278.956,16.8616667 279.084333,16.99 279.173,17.13 C279.261667,17.27 279.306,17.438 279.306,17.634 C279.306,18.0073333 279.194,18.285 278.97,18.467 C278.746,18.649 278.461333,18.74 278.116,18.74 Z M284.99,20.168 C285.456667,20.168 285.907,20.0723333 286.341,19.881 C286.775,19.6896667 287.157667,19.398 287.489,19.006 C287.820333,18.614 288.086333,18.1146667 288.287,17.508 C288.487667,16.9013333 288.588,16.1826667 288.588,15.352 C288.588,14.568 288.492333,13.8983333 288.301,13.343 C288.109667,12.7876667 287.857667,12.3326667 287.545,11.978 C287.232333,11.6233333 286.873,11.362 286.467,11.194 C286.061,11.026 285.643333,10.942 285.214,10.942 C284.812667,10.942 284.432333,11.0096667 284.073,11.145 C283.713667,11.2803333 283.401,11.4786667 283.135,11.74 C282.869,12.0013333 282.656667,12.3163333 282.498,12.685 C282.339333,13.0536667 282.26,13.4666667 282.26,13.924 C282.26,14.3906667 282.327667,14.7966667 282.463,15.142 C282.598333,15.4873333 282.782667,15.772 283.016,15.996 C283.249333,16.22 283.527,16.388 283.849,16.5 C284.171,16.612 284.523333,16.668 284.906,16.668 C285.046,16.668 285.195333,16.647 285.354,16.605 C285.512667,16.563 285.671333,16.5023333 285.83,16.423 C285.988667,16.3436667 286.142667,16.2456667 286.292,16.129 C286.441333,16.0123333 286.572,15.8793333 286.684,15.73 C286.665333,16.2526667 286.607,16.689 286.509,17.039 C286.411,17.389 286.280333,17.6736667 286.117,17.893 C285.953667,18.1123333 285.764667,18.2686667 285.55,18.362 C285.335333,18.4553333 285.102,18.502 284.85,18.502 C284.588667,18.502 284.332,18.439 284.08,18.313 C283.828,18.187 283.627333,18.04 283.478,17.872 L283.478,17.872 L282.386,19.104 C282.666,19.384 283.023,19.6313333 283.457,19.846 C283.891,20.0606667 284.402,20.168 284.99,20.168 Z M285.312,15.212 C284.976,15.212 284.696,15.1163333 284.472,14.925 C284.248,14.7336667 284.136,14.4 284.136,13.924 C284.136,13.42 284.248,13.0536667 284.472,12.825 C284.696,12.5963333 284.957333,12.482 285.256,12.482 C285.573333,12.482 285.860333,12.615 286.117,12.881 C286.373667,13.147 286.548667,13.63 286.642,14.33 C286.464667,14.6473333 286.257,14.8736667 286.019,15.009 C285.781,15.1443333 285.545333,15.212 285.312,15.212 Z M292.858,20.168 C293.334,20.168 293.765667,20.105 294.153,19.979 C294.540333,19.853 294.871667,19.6803333 295.147,19.461 C295.422333,19.2416667 295.634667,18.9826667 295.784,18.684 C295.933333,18.3853333 296.008,18.0586667 296.008,17.704 C296.008,17.116 295.858667,16.64 295.56,16.276 C295.261333,15.912 294.897333,15.6133333 294.468,15.38 L294.468,15.38 L294.468,15.324 C294.776,15.1186667 295.046667,14.8503333 295.28,14.519 C295.513333,14.1876667 295.63,13.8073333 295.63,13.378 C295.63,13.014 295.564667,12.6803333 295.434,12.377 C295.303333,12.0736667 295.121333,11.817 294.888,11.607 C294.654667,11.397 294.37,11.2336667 294.034,11.117 C293.698,11.0003333 293.329333,10.942 292.928,10.942 C292.517333,10.942 292.137,10.998 291.787,11.11 C291.437,11.222 291.136,11.3853333 290.884,11.6 C290.632,11.8146667 290.436,12.0736667 290.296,12.377 C290.156,12.6803333 290.086,13.0186667 290.086,13.392 C290.086,13.868 290.198,14.2716667 290.422,14.603 C290.646,14.9343333 290.930667,15.2306667 291.276,15.492 L291.276,15.492 L291.276,15.548 C290.856,15.772 290.499,16.0566667 290.205,16.402 C289.911,16.7473333 289.764,17.1906667 289.764,17.732 C289.764,18.096 289.841,18.4273333 289.995,18.726 C290.149,19.0246667 290.363667,19.2813333 290.639,19.496 C290.914333,19.7106667 291.241,19.8763333 291.619,19.993 C291.997,20.1096667 292.41,20.168 292.858,20.168 Z M293.418,14.82 C292.960667,14.6426667 292.592,14.4513333 292.312,14.246 C292.032,14.0406667 291.892,13.756 291.892,13.392 C291.892,13.0466667 291.99,12.79 292.186,12.622 C292.382,12.454 292.615333,12.37 292.886,12.37 C293.222,12.37 293.485667,12.475 293.677,12.685 C293.868333,12.895 293.964,13.1726667 293.964,13.518 C293.964,13.966 293.782,14.4 293.418,14.82 Z M292.9,18.74 C292.526667,18.74 292.204667,18.6303333 291.934,18.411 C291.663333,18.1916667 291.528,17.886 291.528,17.494 C291.528,17.2233333 291.593333,16.9666667 291.724,16.724 C291.854667,16.4813333 292.018,16.2666667 292.214,16.08 C292.494,16.2013333 292.748333,16.3133333 292.977,16.416 C293.205667,16.5186667 293.404,16.6283333 293.572,16.745 C293.74,16.8616667 293.868333,16.99 293.957,17.13 C294.045667,17.27 294.09,17.438 294.09,17.634 C294.09,18.0073333 293.978,18.285 293.754,18.467 C293.53,18.649 293.245333,18.74 292.9,18.74 Z M301.034,20 C301.528667,20 301.990667,19.9463333 302.42,19.839 C302.849333,19.7316667 303.225,19.5683333 303.547,19.349 C303.869,19.1296667 304.121,18.852 304.303,18.516 C304.485,18.18 304.576,17.7786667 304.576,17.312 C304.576,17.004 304.534,16.731 304.45,16.493 C304.366,16.255 304.249333,16.0473333 304.1,15.87 C303.950667,15.6926667 303.778,15.5456667 303.582,15.429 C303.386,15.3123333 303.171333,15.226 302.938,15.17 L302.938,15.17 L302.938,15.114 C303.124667,15.0486667 303.290333,14.946 303.435,14.806 C303.579667,14.666 303.703333,14.5073333 303.806,14.33 C303.908667,14.1526667 303.988,13.9613333 304.044,13.756 C304.1,13.5506667 304.128,13.3453333 304.128,13.14 C304.128,12.7013333 304.041667,12.3373333 303.869,12.048 C303.696333,11.7586667 303.458333,11.5253333 303.155,11.348 C302.851667,11.1706667 302.497,11.047 302.091,10.977 C301.685,10.907 301.244,10.872 300.768,10.872 L300.768,10.872 L297.646,10.872 L297.646,20 L301.034,20 Z M300.67,14.526 L299.704,14.526 L299.704,12.468 L300.684,12.468 C301.169333,12.468 301.528667,12.5426667 301.762,12.692 C301.995333,12.8413333 302.112,13.0933333 302.112,13.448 C302.112,13.7746667 301.997667,14.036 301.769,14.232 C301.540333,14.428 301.174,14.526 300.67,14.526 L300.67,14.526 Z M300.866,18.404 L299.704,18.404 L299.704,16.052 L300.866,16.052 C301.435333,16.052 301.86,16.1383333 302.14,16.311 C302.42,16.4836667 302.56,16.7706667 302.56,17.172 C302.56,17.9933333 301.995333,18.404 300.866,18.404 L300.866,18.404 Z" id="$898B" fill="#555555" fill-rule="nonzero"></path>
            </g>
        </g>
    </g>
</svg>