<?xml version="1.0" encoding="UTF-8"?>
<svg width="390px" height="83px" viewBox="0 0 390 83" version="1.1" xmlns="http://www.w3.org/2000/svg" xmlns:xlink="http://www.w3.org/1999/xlink">
    <title>05. phase 3 general</title>
    <g id="Viz-3-(v2)" stroke="none" stroke-width="1" fill="none" fill-rule="evenodd">
        <g id="Viz-3---SVG-Export-Outline" transform="translate(-279.000000, -1159.000000)">
            <g id="05.-phase-3-general" transform="translate(279.000000, 1159.000000)">
                <path d="M4.718,63.168 C5.31533333,63.168 5.86133333,63.0583333 6.356,62.839 C6.85066667,62.6196667 7.27766667,62.3023333 7.637,61.887 C7.99633333,61.4716667 8.274,60.97 8.47,60.382 C8.666,59.794 8.764,59.1266667 8.764,58.38 C8.764,57.6426667 8.666,56.9823333 8.47,56.399 C8.274,55.8156667 7.99633333,55.3233333 7.637,54.922 C7.27766667,54.5206667 6.85066667,54.2126667 6.356,53.998 C5.86133333,53.7833333 5.31533333,53.676 4.718,53.676 C4.12066667,53.676 3.57466667,53.7833333 3.08,53.998 C2.58533333,54.2126667 2.16066667,54.5206667 1.806,54.922 C1.45133333,55.3233333 1.176,55.8156667 0.98,56.399 C0.784,56.9823333 0.686,57.6426667 0.686,58.38 C0.686,59.1266667 0.784,59.794 0.98,60.382 C1.176,60.97 1.45133333,61.4716667 1.806,61.887 C2.16066667,62.3023333 2.58533333,62.6196667 3.08,62.839 C3.57466667,63.0583333 4.12066667,63.168 4.718,63.168 Z M4.718,61.754 C4.354,61.754 4.02733333,61.6746667 3.738,61.516 C3.44866667,61.3573333 3.20133333,61.131 2.996,60.837 C2.79066667,60.543 2.632,60.1883333 2.52,59.773 C2.408,59.3576667 2.352,58.8933333 2.352,58.38 C2.352,57.3533333 2.56433333,56.5483333 2.989,55.965 C3.41366667,55.3816667 3.99,55.09 4.718,55.09 C5.446,55.09 6.02233333,55.3816667 6.447,55.965 C6.87166667,56.5483333 7.084,57.3533333 7.084,58.38 C7.084,58.8933333 7.028,59.3576667 6.916,59.773 C6.804,60.1883333 6.64533333,60.543 6.44,60.837 C6.23466667,61.131 5.98733333,61.3573333 5.698,61.516 C5.40866667,61.6746667 5.082,61.754 4.718,61.754 Z M12.502,63.168 C12.978,63.168 13.391,63.0606667 13.741,62.846 C14.091,62.6313333 14.4153333,62.3466667 14.714,61.992 L14.714,61.992 L14.756,61.992 L14.882,63 L16.198,63 L16.198,56.126 L14.588,56.126 L14.588,60.83 C14.3266667,61.166 14.0816667,61.4086667 13.853,61.558 C13.6243333,61.7073333 13.3606667,61.782 13.062,61.782 C12.6886667,61.782 12.418,61.6653333 12.25,61.432 C12.082,61.1986667 11.998,60.7973333 11.998,60.228 L11.998,60.228 L11.998,56.126 L10.388,56.126 L10.388,60.438 C10.388,61.3153333 10.556,61.9896667 10.892,62.461 C11.228,62.9323333 11.7646667,63.168 12.502,63.168 Z M20.664,63.168 C20.9346667,63.168 21.189,63.1423333 21.427,63.091 C21.665,63.0396667 21.8773333,62.9813333 22.064,62.916 L22.064,62.916 L21.784,61.726 C21.6813333,61.7726667 21.567,61.81 21.441,61.838 C21.315,61.866 21.1913333,61.88 21.07,61.88 C20.426,61.88 20.104,61.4786667 20.104,60.676 L20.104,60.676 L20.104,57.4 L21.854,57.4 L21.854,56.126 L20.104,56.126 L20.104,54.25 L18.76,54.25 L18.564,56.126 L17.5,56.196 L17.5,57.4 L18.48,57.4 L18.48,60.676 C18.48,61.0493333 18.5196667,61.3876667 18.599,61.691 C18.6783333,61.9943333 18.8043333,62.2556667 18.977,62.475 C19.1496667,62.6943333 19.3736667,62.8646667 19.649,62.986 C19.9243333,63.1073333 20.2626667,63.168 20.664,63.168 Z M24.864,63.168 C25.2186667,63.168 25.5033333,63.1213333 25.718,63.028 L25.718,63.028 L25.508,61.824 C25.4426667,61.8426667 25.3936667,61.852 25.361,61.852 L25.361,61.852 L25.256,61.852 C25.172,61.852 25.0926667,61.8123333 25.018,61.733 C24.9433333,61.6536667 24.906,61.516 24.906,61.32 L24.906,61.32 L24.906,53.116 L23.296,53.116 L23.296,61.236 C23.296,61.8333333 23.4126667,62.3046667 23.646,62.65 C23.8793333,62.9953333 24.2853333,63.168 24.864,63.168 Z M28.756,63.168 C29.1666667,63.168 29.547,63.0793333 29.897,62.902 C30.247,62.7246667 30.576,62.5053333 30.884,62.244 L30.884,62.244 L30.94,62.244 L31.052,63 L32.382,63 L32.382,58.926 C32.382,57.9646667 32.1696667,57.2296667 31.745,56.721 C31.3203333,56.2123333 30.6786667,55.958 29.82,55.958 C29.2693333,55.958 28.756,56.0466667 28.28,56.224 C27.804,56.4013333 27.3746667,56.6113333 26.992,56.854 L26.992,56.854 L27.58,57.932 C27.888,57.7453333 28.203,57.5866667 28.525,57.456 C28.847,57.3253333 29.176,57.26 29.512,57.26 C29.7453333,57.26 29.9413333,57.295 30.1,57.365 C30.2586667,57.435 30.387,57.533 30.485,57.659 C30.583,57.785 30.653,57.9296667 30.695,58.093 C30.737,58.2563333 30.7626667,58.4266667 30.772,58.604 C30.0626667,58.6786667 29.4536667,58.786 28.945,58.926 C28.4363333,59.066 28.0163333,59.2386667 27.685,59.444 C27.3536667,59.6493333 27.111,59.8943333 26.957,60.179 C26.803,60.4636667 26.726,60.788 26.726,61.152 C26.726,61.7586667 26.9126667,62.2463333 27.286,62.615 C27.6593333,62.9836667 28.1493333,63.168 28.756,63.168 Z M29.274,61.908 C28.9846667,61.908 28.7466667,61.838 28.56,61.698 C28.3733333,61.558 28.28,61.334 28.28,61.026 C28.28,60.858 28.322,60.6993333 28.406,60.55 C28.49,60.4006667 28.63,60.2676667 28.826,60.151 C29.022,60.0343333 29.2786667,59.9293333 29.596,59.836 C29.9133333,59.7426667 30.3053333,59.668 30.772,59.612 L30.772,59.612 L30.772,61.152 C30.5106667,61.3946667 30.2656667,61.5813333 30.037,61.712 C29.8083333,61.8426667 29.554,61.908 29.274,61.908 Z M34.776,65.828 C35.1493333,65.828 35.4783333,65.7696667 35.763,65.653 C36.0476667,65.5363333 36.2996667,65.3683333 36.519,65.149 C36.7383333,64.9296667 36.932,64.666 37.1,64.358 C37.268,64.05 37.422,63.7 37.562,63.308 L37.562,63.308 L40.054,56.126 L38.5,56.126 L37.464,59.5 C37.38,59.808 37.2936667,60.1276667 37.205,60.459 C37.1163333,60.7903333 37.03,61.1146667 36.946,61.432 L36.946,61.432 L36.89,61.432 C36.7873333,61.1053333 36.687,60.7763333 36.589,60.445 C36.491,60.1136667 36.3906667,59.7986667 36.288,59.5 L36.288,59.5 L35.098,56.126 L33.46,56.126 L36.162,62.916 L36.036,63.35 C35.924,63.6953333 35.7583333,63.9776667 35.539,64.197 C35.3196667,64.4163333 35.028,64.526 34.664,64.526 C34.58,64.526 34.4936667,64.5143333 34.405,64.491 C34.3163333,64.4676667 34.2393333,64.4466667 34.174,64.428 L34.174,64.428 L33.88,65.688 C34.0106667,65.7346667 34.146,65.7696667 34.286,65.793 C34.426,65.8163333 34.5893333,65.828 34.776,65.828 Z M43.162,63.168 C43.5913333,63.168 43.974,63.112 44.31,63 C44.646,62.888 44.926,62.7363333 45.15,62.545 C45.374,62.3536667 45.5443333,62.1296667 45.661,61.873 C45.7776667,61.6163333 45.836,61.3386667 45.836,61.04 C45.836,60.7226667 45.7776667,60.4496667 45.661,60.221 C45.5443333,59.9923333 45.3903333,59.7986667 45.199,59.64 C45.0076667,59.4813333 44.7953333,59.3483333 44.562,59.241 C44.3286667,59.1336667 44.0953333,59.038 43.862,58.954 C43.6753333,58.8886667 43.4956667,58.8233333 43.323,58.758 C43.1503333,58.6926667 42.9986667,58.6226667 42.868,58.548 C42.7373333,58.4733333 42.6323333,58.387 42.553,58.289 C42.4736667,58.191 42.434,58.072 42.434,57.932 C42.434,57.7173333 42.5156667,57.5376667 42.679,57.393 C42.8423333,57.2483333 43.0966667,57.176 43.442,57.176 C43.7126667,57.176 43.9716667,57.2296667 44.219,57.337 C44.4663333,57.4443333 44.7113333,57.5866667 44.954,57.764 L44.954,57.764 L45.696,56.784 C45.416,56.5693333 45.0846667,56.378 44.702,56.21 C44.3193333,56.042 43.89,55.958 43.414,55.958 C42.6393333,55.958 42.028,56.1493333 41.58,56.532 C41.132,56.9146667 40.908,57.4093333 40.908,58.016 C40.908,58.3053333 40.9663333,58.555 41.083,58.765 C41.1996667,58.975 41.349,59.1593333 41.531,59.318 C41.713,59.4766667 41.9206667,59.612 42.154,59.724 C42.3873333,59.836 42.616,59.934 42.84,60.018 C43.0173333,60.0926667 43.1946667,60.165 43.372,60.235 C43.5493333,60.305 43.708,60.382 43.848,60.466 C43.988,60.55 44.1,60.6456667 44.184,60.753 C44.268,60.8603333 44.31,60.984 44.31,61.124 C44.31,61.3666667 44.2213333,61.565 44.044,61.719 C43.8666667,61.873 43.5913333,61.95 43.218,61.95 C42.8633333,61.95 42.5343333,61.8823333 42.231,61.747 C41.9276667,61.6116667 41.622,61.4226667 41.314,61.18 L41.314,61.18 L40.558,62.216 C40.894,62.4866667 41.293,62.713 41.755,62.895 C42.217,63.077 42.686,63.168 43.162,63.168 Z M3.948,82.54 L3.948,81.126 C4.62,81.0326667 5.14966667,80.7713333 5.537,80.342 C5.92433333,79.9126667 6.118,79.362 6.118,78.69 C6.118,78.186 6.02233333,77.773 5.831,77.451 C5.63966667,77.129 5.39933333,76.8583333 5.11,76.639 C4.82066667,76.4196667 4.50566667,76.233 4.165,76.079 C3.82433333,75.925 3.50933333,75.7663333 3.22,75.603 C2.93066667,75.4396667 2.69033333,75.2506667 2.499,75.036 C2.30766667,74.8213333 2.212,74.546 2.212,74.21 C2.212,73.7993333 2.338,73.4726667 2.59,73.23 C2.842,72.9873333 3.18266667,72.866 3.612,72.866 C3.99466667,72.866 4.30966667,72.936 4.557,73.076 C4.80433333,73.216 5.05866667,73.412 5.32,73.664 L5.32,73.664 L5.936,72.978 C5.684,72.7073333 5.40166667,72.474 5.089,72.278 C4.77633333,72.082 4.396,71.9606667 3.948,71.914 L3.948,71.914 L3.948,70.528 L3.108,70.528 L3.108,71.942 C2.492,72.0353333 1.99966667,72.2896667 1.631,72.705 C1.26233333,73.1203333 1.078,73.6406667 1.078,74.266 C1.078,74.7233333 1.17366667,75.099 1.365,75.393 C1.55633333,75.687 1.79666667,75.9366667 2.086,76.142 C2.37533333,76.3473333 2.69033333,76.5293333 3.031,76.688 C3.37166667,76.8466667 3.68666667,77.017 3.976,77.199 C4.26533333,77.381 4.50566667,77.5956667 4.697,77.843 C4.88833333,78.0903333 4.984,78.4006667 4.984,78.774 C4.984,79.2126667 4.85566667,79.5626667 4.599,79.824 C4.34233333,80.0853333 3.95266667,80.216 3.43,80.216 C3.00066667,80.216 2.60633333,80.125 2.247,79.943 C1.88766667,79.761 1.55866667,79.5393333 1.26,79.278 L1.26,79.278 L0.728,80.076 C1.02666667,80.3466667 1.386,80.5823333 1.806,80.783 C2.226,80.9836667 2.66,81.1073333 3.108,81.154 L3.108,81.154 L3.108,82.54 L3.948,82.54 Z M10.626,81 C10.6633333,80.132 10.7263333,79.341 10.815,78.627 C10.9036667,77.913 11.046,77.2363333 11.242,76.597 C11.438,75.9576667 11.7016667,75.33 12.033,74.714 C12.3643333,74.098 12.796,73.454 13.328,72.782 L13.328,72.782 L13.328,72.068 L7.574,72.068 L7.574,73.062 L12.026,73.062 C11.5873333,73.678 11.2116667,74.28 10.899,74.868 C10.5863333,75.456 10.3296667,76.065 10.129,76.695 C9.92833333,77.325 9.772,77.99 9.66,78.69 C9.548,79.39 9.47333333,80.16 9.436,81 L9.436,81 L10.626,81 Z M16.786,81.168 C17.234,81.168 17.661,81.077 18.067,80.895 C18.473,80.713 18.8346667,80.4236667 19.152,80.027 C19.4693333,79.6303333 19.7213333,79.117 19.908,78.487 C20.0946667,77.857 20.188,77.094 20.188,76.198 C20.188,75.4793333 20.111,74.8516667 19.957,74.315 C19.803,73.7783333 19.5883333,73.3303333 19.313,72.971 C19.0376667,72.6116667 18.711,72.3433333 18.333,72.166 C17.955,71.9886667 17.5466667,71.9 17.108,71.9 C16.7533333,71.9 16.415,71.97 16.093,72.11 C15.771,72.25 15.491,72.446 15.253,72.698 C15.015,72.95 14.826,73.251 14.686,73.601 C14.546,73.951 14.476,74.3406667 14.476,74.77 C14.476,75.694 14.7046667,76.3846667 15.162,76.842 C15.6193333,77.2993333 16.2353333,77.528 17.01,77.528 C17.3833333,77.528 17.7566667,77.4253333 18.13,77.22 C18.5033333,77.0146667 18.83,76.7346667 19.11,76.38 C19.1006667,77.0986667 19.0306667,77.7006667 18.9,78.186 C18.7693333,78.6713333 18.5966667,79.0656667 18.382,79.369 C18.1673333,79.6723333 17.92,79.8893333 17.64,80.02 C17.36,80.1506667 17.0613333,80.216 16.744,80.216 C16.464,80.216 16.1956667,80.1506667 15.939,80.02 C15.6823333,79.8893333 15.4606667,79.7166667 15.274,79.502 L15.274,79.502 L14.63,80.23 C14.8726667,80.5006667 15.1736667,80.7246667 15.533,80.902 C15.8923333,81.0793333 16.31,81.168 16.786,81.168 Z M17.206,76.66 C16.646,76.66 16.2306667,76.492 15.96,76.156 C15.6893333,75.82 15.554,75.358 15.554,74.77 C15.554,74.4806667 15.5936667,74.2146667 15.673,73.972 C15.7523333,73.7293333 15.862,73.5216667 16.002,73.349 C16.142,73.1763333 16.3076667,73.0433333 16.499,72.95 C16.6903333,72.8566667 16.8933333,72.81 17.108,72.81 C17.6773333,72.81 18.13,73.034 18.466,73.482 C18.802,73.93 19.0073333,74.5926667 19.082,75.47 C18.7926667,75.89 18.4823333,76.1933333 18.151,76.38 C17.8196667,76.5666667 17.5046667,76.66 17.206,76.66 Z M24.36,81.168 C25.256,81.168 25.956,80.7666667 26.46,79.964 C26.964,79.1613333 27.216,78.0086667 27.216,76.506 C27.216,75.0033333 26.964,73.86 26.46,73.076 C25.956,72.292 25.256,71.9 24.36,71.9 C23.4546667,71.9 22.75,72.292 22.246,73.076 C21.742,73.86 21.49,75.0033333 21.49,76.506 C21.49,78.0086667 21.742,79.1613333 22.246,79.964 C22.75,80.7666667 23.4546667,81.168 24.36,81.168 Z M24.36,80.244 C23.8373333,80.244 23.415,79.9476667 23.093,79.355 C22.771,78.7623333 22.61,77.8126667 22.61,76.506 C22.61,75.8526667 22.652,75.2926667 22.736,74.826 C22.82,74.3593333 22.939,73.979 23.093,73.685 C23.247,73.391 23.4313333,73.174 23.646,73.034 C23.8606667,72.894 24.0986667,72.824 24.36,72.824 C24.6213333,72.824 24.857,72.894 25.067,73.034 C25.277,73.174 25.459,73.391 25.613,73.685 C25.767,73.979 25.886,74.3593333 25.97,74.826 C26.054,75.2926667 26.096,75.8526667 26.096,76.506 C26.096,77.1593333 26.054,77.7216667 25.97,78.193 C25.886,78.6643333 25.767,79.0516667 25.613,79.355 C25.459,79.6583333 25.277,79.8823333 25.067,80.027 C24.857,80.1716667 24.6213333,80.244 24.36,80.244 Z M32.018,81 C32.5313333,81 33.0026667,80.944 33.432,80.832 C33.8613333,80.72 34.23,80.552 34.538,80.328 C34.846,80.104 35.084,79.824 35.252,79.488 C35.42,79.152 35.504,78.76 35.504,78.312 C35.504,77.6773333 35.3313333,77.178 34.986,76.814 C34.6406667,76.45 34.188,76.2166667 33.628,76.114 L33.628,76.114 L33.628,76.058 C34.0666667,75.918 34.4003333,75.6636667 34.629,75.295 C34.8576667,74.9263333 34.972,74.5133333 34.972,74.056 C34.972,73.6546667 34.895,73.3116667 34.741,73.027 C34.587,72.7423333 34.3723333,72.5113333 34.097,72.334 C33.8216667,72.1566667 33.4903333,72.026 33.103,71.942 C32.7156667,71.858 32.2886667,71.816 31.822,71.816 L31.822,71.816 L29.092,71.816 L29.092,81 L32.018,81 Z M31.612,75.722 L30.254,75.722 L30.254,72.74 L31.668,72.74 C32.3866667,72.74 32.9256667,72.852 33.285,73.076 C33.6443333,73.3 33.824,73.678 33.824,74.21 C33.824,74.6766667 33.6513333,75.0453333 33.306,75.316 C32.9606667,75.5866667 32.396,75.722 31.612,75.722 L31.612,75.722 Z M31.85,80.076 L30.254,80.076 L30.254,76.618 L31.85,76.618 C32.662,76.618 33.2826667,76.751 33.712,77.017 C34.1413333,77.283 34.356,77.7006667 34.356,78.27 C34.356,78.886 34.1366667,79.341 33.698,79.635 C33.2593333,79.929 32.6433333,80.076 31.85,80.076 L31.85,80.076 Z" id="Outlays$790B" fill="#666666" fill-rule="nonzero"></path>
                <path d="M189.718,63.168 C190.315333,63.168 190.861333,63.0583333 191.356,62.839 C191.850667,62.6196667 192.277667,62.3023333 192.637,61.887 C192.996333,61.4716667 193.274,60.97 193.47,60.382 C193.666,59.794 193.764,59.1266667 193.764,58.38 C193.764,57.6426667 193.666,56.9823333 193.47,56.399 C193.274,55.8156667 192.996333,55.3233333 192.637,54.922 C192.277667,54.5206667 191.850667,54.2126667 191.356,53.998 C190.861333,53.7833333 190.315333,53.676 189.718,53.676 C189.120667,53.676 188.574667,53.7833333 188.08,53.998 C187.585333,54.2126667 187.160667,54.5206667 186.806,54.922 C186.451333,55.3233333 186.176,55.8156667 185.98,56.399 C185.784,56.9823333 185.686,57.6426667 185.686,58.38 C185.686,59.1266667 185.784,59.794 185.98,60.382 C186.176,60.97 186.451333,61.4716667 186.806,61.887 C187.160667,62.3023333 187.585333,62.6196667 188.08,62.839 C188.574667,63.0583333 189.120667,63.168 189.718,63.168 Z M189.718,61.754 C189.354,61.754 189.027333,61.6746667 188.738,61.516 C188.448667,61.3573333 188.201333,61.131 187.996,60.837 C187.790667,60.543 187.632,60.1883333 187.52,59.773 C187.408,59.3576667 187.352,58.8933333 187.352,58.38 C187.352,57.3533333 187.564333,56.5483333 187.989,55.965 C188.413667,55.3816667 188.99,55.09 189.718,55.09 C190.446,55.09 191.022333,55.3816667 191.447,55.965 C191.871667,56.5483333 192.084,57.3533333 192.084,58.38 C192.084,58.8933333 192.028,59.3576667 191.916,59.773 C191.804,60.1883333 191.645333,60.543 191.44,60.837 C191.234667,61.131 190.987333,61.3573333 190.698,61.516 C190.408667,61.6746667 190.082,61.754 189.718,61.754 Z M198.79,63.168 C199.172667,63.168 199.541333,63.084 199.896,62.916 C200.250667,62.748 200.563333,62.5053333 200.834,62.188 C201.104667,61.8706667 201.321667,61.481 201.485,61.019 C201.648333,60.557 201.73,60.032 201.73,59.444 C201.73,58.912 201.669333,58.4313333 201.548,58.002 C201.426667,57.5726667 201.249333,57.2063333 201.016,56.903 C200.782667,56.5996667 200.498,56.3663333 200.162,56.203 C199.826,56.0396667 199.443333,55.958 199.014,55.958 C198.659333,55.958 198.311667,56.0373333 197.971,56.196 C197.630333,56.3546667 197.315333,56.56 197.026,56.812 L197.026,56.812 L197.068,55.664 L197.068,53.116 L195.458,53.116 L195.458,63 L196.732,63 L196.872,62.272 L196.914,62.272 C197.203333,62.5613333 197.509,62.783 197.831,62.937 C198.153,63.091 198.472667,63.168 198.79,63.168 Z M198.454,61.838 C198.248667,61.838 198.027,61.796 197.789,61.712 C197.551,61.628 197.310667,61.4786667 197.068,61.264 L197.068,61.264 L197.068,58.058 C197.590667,57.5446667 198.094667,57.288 198.58,57.288 C199.102667,57.288 199.480667,57.4793333 199.714,57.862 C199.947333,58.2446667 200.064,58.7813333 200.064,59.472 C200.064,60.256 199.91,60.8463333 199.602,61.243 C199.294,61.6396667 198.911333,61.838 198.454,61.838 Z M204.908,63.168 C205.262667,63.168 205.547333,63.1213333 205.762,63.028 L205.762,63.028 L205.552,61.824 C205.486667,61.8426667 205.437667,61.852 205.405,61.852 L205.405,61.852 L205.3,61.852 C205.216,61.852 205.136667,61.8123333 205.062,61.733 C204.987333,61.6536667 204.95,61.516 204.95,61.32 L204.95,61.32 L204.95,53.116 L203.34,53.116 L203.34,61.236 C203.34,61.8333333 203.456667,62.3046667 203.69,62.65 C203.923333,62.9953333 204.329333,63.168 204.908,63.168 Z M207.946,54.922 C208.235333,54.922 208.473333,54.838 208.66,54.67 C208.846667,54.502 208.94,54.2826667 208.94,54.012 C208.94,53.7413333 208.846667,53.5196667 208.66,53.347 C208.473333,53.1743333 208.235333,53.088 207.946,53.088 C207.656667,53.088 207.418667,53.1743333 207.232,53.347 C207.045333,53.5196667 206.952,53.7413333 206.952,54.012 C206.952,54.2826667 207.045333,54.502 207.232,54.67 C207.418667,54.838 207.656667,54.922 207.946,54.922 Z M208.744,63 L208.744,56.126 L207.134,56.126 L207.134,63 L208.744,63 Z M213.196,66.038 C213.756,66.038 214.262333,65.975 214.715,65.849 C215.167667,65.723 215.552667,65.5526667 215.87,65.338 C216.187333,65.1233333 216.432333,64.8666667 216.605,64.568 C216.777667,64.2693333 216.864,63.952 216.864,63.616 C216.864,63.0186667 216.651667,62.587 216.227,62.321 C215.802333,62.055 215.174667,61.922 214.344,61.922 L214.344,61.922 L213.126,61.922 C212.706,61.922 212.414333,61.866 212.251,61.754 C212.087667,61.642 212.006,61.488 212.006,61.292 C212.006,61.1333333 212.036333,61.0073333 212.097,60.914 C212.157667,60.8206667 212.239333,60.7273333 212.342,60.634 C212.500667,60.6993333 212.659333,60.746 212.818,60.774 C212.976667,60.802 213.130667,60.816 213.28,60.816 C213.644,60.816 213.984667,60.7646667 214.302,60.662 C214.619333,60.5593333 214.894667,60.41 215.128,60.214 C215.361333,60.018 215.545667,59.7753333 215.681,59.486 C215.816333,59.1966667 215.884,58.8606667 215.884,58.478 C215.884,58.2353333 215.846667,58.0136667 215.772,57.813 C215.697333,57.6123333 215.604,57.4466667 215.492,57.316 L215.492,57.316 L216.752,57.316 L216.752,56.126 L214.288,56.126 C214.148,56.0793333 213.991667,56.0396667 213.819,56.007 C213.646333,55.9743333 213.466667,55.958 213.28,55.958 C212.916,55.958 212.570667,56.0116667 212.244,56.119 C211.917333,56.2263333 211.630333,56.385 211.383,56.595 C211.135667,56.805 210.937333,57.064 210.788,57.372 C210.638667,57.68 210.564,58.03 210.564,58.422 C210.564,58.8326667 210.655,59.1943333 210.837,59.507 C211.019,59.8196667 211.226667,60.0646667 211.46,60.242 L211.46,60.242 L211.46,60.298 C211.264,60.438 211.089,60.6176667 210.935,60.837 C210.781,61.0563333 210.704,61.3013333 210.704,61.572 C210.704,61.852 210.762333,62.0853333 210.879,62.272 C210.995667,62.4586667 211.142667,62.608 211.32,62.72 L211.32,62.72 L211.32,62.776 C211.002667,62.972 210.76,63.1936667 210.592,63.441 C210.424,63.6883333 210.34,63.9566667 210.34,64.246 C210.34,64.5446667 210.412333,64.806 210.557,65.03 C210.701667,65.254 210.9,65.4406667 211.152,65.59 C211.404,65.7393333 211.705,65.8513333 212.055,65.926 C212.405,66.0006667 212.785333,66.038 213.196,66.038 Z M213.28,59.808 C212.944,59.808 212.659333,59.689 212.426,59.451 C212.192667,59.213 212.076,58.87 212.076,58.422 C212.076,57.9833333 212.192667,57.6473333 212.426,57.414 C212.659333,57.1806667 212.944,57.064 213.28,57.064 C213.616,57.064 213.898333,57.183 214.127,57.421 C214.355667,57.659 214.47,57.9926667 214.47,58.422 C214.47,58.87 214.353333,59.213 214.12,59.451 C213.886667,59.689 213.606667,59.808 213.28,59.808 Z M213.448,64.988 C212.897333,64.988 212.465667,64.9016667 212.153,64.729 C211.840333,64.5563333 211.684,64.316 211.684,64.008 C211.684,63.672 211.861333,63.3686667 212.216,63.098 C212.468,63.1633333 212.780667,63.196 213.154,63.196 L213.154,63.196 L214.092,63.196 C214.484,63.196 214.785,63.2426667 214.995,63.336 C215.205,63.4293333 215.31,63.6113333 215.31,63.882 C215.31,64.1806667 215.139667,64.4396667 214.799,64.659 C214.458333,64.8783333 214.008,64.988 213.448,64.988 Z M219.496,63.168 C219.906667,63.168 220.287,63.0793333 220.637,62.902 C220.987,62.7246667 221.316,62.5053333 221.624,62.244 L221.624,62.244 L221.68,62.244 L221.792,63 L223.122,63 L223.122,58.926 C223.122,57.9646667 222.909667,57.2296667 222.485,56.721 C222.060333,56.2123333 221.418667,55.958 220.56,55.958 C220.009333,55.958 219.496,56.0466667 219.02,56.224 C218.544,56.4013333 218.114667,56.6113333 217.732,56.854 L217.732,56.854 L218.32,57.932 C218.628,57.7453333 218.943,57.5866667 219.265,57.456 C219.587,57.3253333 219.916,57.26 220.252,57.26 C220.485333,57.26 220.681333,57.295 220.84,57.365 C220.998667,57.435 221.127,57.533 221.225,57.659 C221.323,57.785 221.393,57.9296667 221.435,58.093 C221.477,58.2563333 221.502667,58.4266667 221.512,58.604 C220.802667,58.6786667 220.193667,58.786 219.685,58.926 C219.176333,59.066 218.756333,59.2386667 218.425,59.444 C218.093667,59.6493333 217.851,59.8943333 217.697,60.179 C217.543,60.4636667 217.466,60.788 217.466,61.152 C217.466,61.7586667 217.652667,62.2463333 218.026,62.615 C218.399333,62.9836667 218.889333,63.168 219.496,63.168 Z M220.014,61.908 C219.724667,61.908 219.486667,61.838 219.3,61.698 C219.113333,61.558 219.02,61.334 219.02,61.026 C219.02,60.858 219.062,60.6993333 219.146,60.55 C219.23,60.4006667 219.37,60.2676667 219.566,60.151 C219.762,60.0343333 220.018667,59.9293333 220.336,59.836 C220.653333,59.7426667 221.045333,59.668 221.512,59.612 L221.512,59.612 L221.512,61.152 C221.250667,61.3946667 221.005667,61.5813333 220.777,61.712 C220.548333,61.8426667 220.294,61.908 220.014,61.908 Z M227.252,63.168 C227.522667,63.168 227.777,63.1423333 228.015,63.091 C228.253,63.0396667 228.465333,62.9813333 228.652,62.916 L228.652,62.916 L228.372,61.726 C228.269333,61.7726667 228.155,61.81 228.029,61.838 C227.903,61.866 227.779333,61.88 227.658,61.88 C227.014,61.88 226.692,61.4786667 226.692,60.676 L226.692,60.676 L226.692,57.4 L228.442,57.4 L228.442,56.126 L226.692,56.126 L226.692,54.25 L225.348,54.25 L225.152,56.126 L224.088,56.196 L224.088,57.4 L225.068,57.4 L225.068,60.676 C225.068,61.0493333 225.107667,61.3876667 225.187,61.691 C225.266333,61.9943333 225.392333,62.2556667 225.565,62.475 C225.737667,62.6943333 225.961667,62.8646667 226.237,62.986 C226.512333,63.1073333 226.850667,63.168 227.252,63.168 Z M230.696,54.922 C230.985333,54.922 231.223333,54.838 231.41,54.67 C231.596667,54.502 231.69,54.2826667 231.69,54.012 C231.69,53.7413333 231.596667,53.5196667 231.41,53.347 C231.223333,53.1743333 230.985333,53.088 230.696,53.088 C230.406667,53.088 230.168667,53.1743333 229.982,53.347 C229.795333,53.5196667 229.702,53.7413333 229.702,54.012 C229.702,54.2826667 229.795333,54.502 229.982,54.67 C230.168667,54.838 230.406667,54.922 230.696,54.922 Z M231.494,63 L231.494,56.126 L229.884,56.126 L229.884,63 L231.494,63 Z M236.366,63.168 C236.795333,63.168 237.208333,63.0886667 237.605,62.93 C238.001667,62.7713333 238.349333,62.538 238.648,62.23 C238.946667,61.922 239.187,61.544 239.369,61.096 C239.551,60.648 239.642,60.1393333 239.642,59.57 C239.642,59.0006667 239.551,58.492 239.369,58.044 C239.187,57.596 238.946667,57.218 238.648,56.91 C238.349333,56.602 238.001667,56.3663333 237.605,56.203 C237.208333,56.0396667 236.795333,55.958 236.366,55.958 C235.936667,55.958 235.526,56.0396667 235.134,56.203 C234.742,56.3663333 234.394333,56.602 234.091,56.91 C233.787667,57.218 233.547333,57.596 233.37,58.044 C233.192667,58.492 233.104,59.0006667 233.104,59.57 C233.104,60.1393333 233.192667,60.648 233.37,61.096 C233.547333,61.544 233.787667,61.922 234.091,62.23 C234.394333,62.538 234.742,62.7713333 235.134,62.93 C235.526,63.0886667 235.936667,63.168 236.366,63.168 Z M236.366,61.852 C235.862,61.852 235.467667,61.6443333 235.183,61.229 C234.898333,60.8136667 234.756,60.2606667 234.756,59.57 C234.756,58.87 234.898333,58.3123333 235.183,57.897 C235.467667,57.4816667 235.862,57.274 236.366,57.274 C236.87,57.274 237.266667,57.4816667 237.556,57.897 C237.845333,58.3123333 237.99,58.87 237.99,59.57 C237.99,60.2606667 237.845333,60.8136667 237.556,61.229 C237.266667,61.6443333 236.87,61.852 236.366,61.852 Z M242.848,63 L242.848,58.198 C243.137333,57.918 243.396333,57.7056667 243.625,57.561 C243.853667,57.4163333 244.117333,57.344 244.416,57.344 C244.798667,57.344 245.074,57.4606667 245.242,57.694 C245.41,57.9273333 245.494,58.3286667 245.494,58.898 L245.494,58.898 L245.494,63 L247.104,63 L247.104,58.688 C247.104,57.8106667 246.936,57.1363333 246.6,56.665 C246.264,56.1936667 245.727333,55.958 244.99,55.958 C244.514,55.958 244.096333,56.0653333 243.737,56.28 C243.377667,56.4946667 243.044,56.7513333 242.736,57.05 L242.736,57.05 L242.68,57.05 L242.568,56.126 L241.238,56.126 L241.238,63 L242.848,63 Z M250.996,63.168 C251.425333,63.168 251.808,63.112 252.144,63 C252.48,62.888 252.76,62.7363333 252.984,62.545 C253.208,62.3536667 253.378333,62.1296667 253.495,61.873 C253.611667,61.6163333 253.67,61.3386667 253.67,61.04 C253.67,60.7226667 253.611667,60.4496667 253.495,60.221 C253.378333,59.9923333 253.224333,59.7986667 253.033,59.64 C252.841667,59.4813333 252.629333,59.3483333 252.396,59.241 C252.162667,59.1336667 251.929333,59.038 251.696,58.954 C251.509333,58.8886667 251.329667,58.8233333 251.157,58.758 C250.984333,58.6926667 250.832667,58.6226667 250.702,58.548 C250.571333,58.4733333 250.466333,58.387 250.387,58.289 C250.307667,58.191 250.268,58.072 250.268,57.932 C250.268,57.7173333 250.349667,57.5376667 250.513,57.393 C250.676333,57.2483333 250.930667,57.176 251.276,57.176 C251.546667,57.176 251.805667,57.2296667 252.053,57.337 C252.300333,57.4443333 252.545333,57.5866667 252.788,57.764 L252.788,57.764 L253.53,56.784 C253.25,56.5693333 252.918667,56.378 252.536,56.21 C252.153333,56.042 251.724,55.958 251.248,55.958 C250.473333,55.958 249.862,56.1493333 249.414,56.532 C248.966,56.9146667 248.742,57.4093333 248.742,58.016 C248.742,58.3053333 248.800333,58.555 248.917,58.765 C249.033667,58.975 249.183,59.1593333 249.365,59.318 C249.547,59.4766667 249.754667,59.612 249.988,59.724 C250.221333,59.836 250.45,59.934 250.674,60.018 C250.851333,60.0926667 251.028667,60.165 251.206,60.235 C251.383333,60.305 251.542,60.382 251.682,60.466 C251.822,60.55 251.934,60.6456667 252.018,60.753 C252.102,60.8603333 252.144,60.984 252.144,61.124 C252.144,61.3666667 252.055333,61.565 251.878,61.719 C251.700667,61.873 251.425333,61.95 251.052,61.95 C250.697333,61.95 250.368333,61.8823333 250.065,61.747 C249.761667,61.6116667 249.456,61.4226667 249.148,61.18 L249.148,61.18 L248.392,62.216 C248.728,62.4866667 249.127,62.713 249.589,62.895 C250.051,63.077 250.52,63.168 250.996,63.168 Z M188.948,82.54 L188.948,81.126 C189.62,81.0326667 190.149667,80.7713333 190.537,80.342 C190.924333,79.9126667 191.118,79.362 191.118,78.69 C191.118,78.186 191.022333,77.773 190.831,77.451 C190.639667,77.129 190.399333,76.8583333 190.11,76.639 C189.820667,76.4196667 189.505667,76.233 189.165,76.079 C188.824333,75.925 188.509333,75.7663333 188.22,75.603 C187.930667,75.4396667 187.690333,75.2506667 187.499,75.036 C187.307667,74.8213333 187.212,74.546 187.212,74.21 C187.212,73.7993333 187.338,73.4726667 187.59,73.23 C187.842,72.9873333 188.182667,72.866 188.612,72.866 C188.994667,72.866 189.309667,72.936 189.557,73.076 C189.804333,73.216 190.058667,73.412 190.32,73.664 L190.32,73.664 L190.936,72.978 C190.684,72.7073333 190.401667,72.474 190.089,72.278 C189.776333,72.082 189.396,71.9606667 188.948,71.914 L188.948,71.914 L188.948,70.528 L188.108,70.528 L188.108,71.942 C187.492,72.0353333 186.999667,72.2896667 186.631,72.705 C186.262333,73.1203333 186.078,73.6406667 186.078,74.266 C186.078,74.7233333 186.173667,75.099 186.365,75.393 C186.556333,75.687 186.796667,75.9366667 187.086,76.142 C187.375333,76.3473333 187.690333,76.5293333 188.031,76.688 C188.371667,76.8466667 188.686667,77.017 188.976,77.199 C189.265333,77.381 189.505667,77.5956667 189.697,77.843 C189.888333,78.0903333 189.984,78.4006667 189.984,78.774 C189.984,79.2126667 189.855667,79.5626667 189.599,79.824 C189.342333,80.0853333 188.952667,80.216 188.43,80.216 C188.000667,80.216 187.606333,80.125 187.247,79.943 C186.887667,79.761 186.558667,79.5393333 186.26,79.278 L186.26,79.278 L185.728,80.076 C186.026667,80.3466667 186.386,80.5823333 186.806,80.783 C187.226,80.9836667 187.66,81.1073333 188.108,81.154 L188.108,81.154 L188.108,82.54 L188.948,82.54 Z M195.458,81.168 C195.887333,81.168 196.279333,81.1073333 196.634,80.986 C196.988667,80.8646667 197.292,80.6966667 197.544,80.482 C197.796,80.2673333 197.992,80.0153333 198.132,79.726 C198.272,79.4366667 198.342,79.124 198.342,78.788 C198.342,78.4893333 198.297667,78.2233333 198.209,77.99 C198.120333,77.7566667 198.003667,77.549 197.859,77.367 C197.714333,77.185 197.548667,77.0216667 197.362,76.877 C197.175333,76.7323333 196.984,76.604 196.788,76.492 L196.788,76.492 L196.788,76.436 C196.928,76.3333333 197.070333,76.2073333 197.215,76.058 C197.359667,75.9086667 197.490333,75.7406667 197.607,75.554 C197.723667,75.3673333 197.821667,75.1666667 197.901,74.952 C197.980333,74.7373333 198.02,74.5133333 198.02,74.28 C198.02,73.9346667 197.961667,73.615 197.845,73.321 C197.728333,73.027 197.560333,72.775 197.341,72.565 C197.121667,72.355 196.858,72.1916667 196.55,72.075 C196.242,71.9583333 195.892,71.9 195.5,71.9 C195.136,71.9 194.8,71.956 194.492,72.068 C194.184,72.18 193.918,72.3363333 193.694,72.537 C193.47,72.7376667 193.292667,72.978 193.162,73.258 C193.031333,73.538 192.966,73.8506667 192.966,74.196 C192.966,74.672 193.092,75.0756667 193.344,75.407 C193.596,75.7383333 193.885333,76.0206667 194.212,76.254 L194.212,76.254 L194.212,76.31 C193.997333,76.422 193.789667,76.555 193.589,76.709 C193.388333,76.863 193.211,77.0403333 193.057,77.241 C192.903,77.4416667 192.777,77.6656667 192.679,77.913 C192.581,78.1603333 192.532,78.4286667 192.532,78.718 C192.532,79.0726667 192.606667,79.3993333 192.756,79.698 C192.905333,79.9966667 193.108333,80.2556667 193.365,80.475 C193.621667,80.6943333 193.929667,80.8646667 194.289,80.986 C194.648333,81.1073333 195.038,81.168 195.458,81.168 Z M196.088,76.128 C195.817333,76.0253333 195.558333,75.9156667 195.311,75.799 C195.063667,75.6823333 194.844333,75.5493333 194.653,75.4 C194.461667,75.2506667 194.31,75.0803333 194.198,74.889 C194.086,74.6976667 194.03,74.4666667 194.03,74.196 C194.03,73.7573333 194.165333,73.4073333 194.436,73.146 C194.706667,72.8846667 195.052,72.754 195.472,72.754 C195.966667,72.754 196.349333,72.9056667 196.62,73.209 C196.890667,73.5123333 197.026,73.888 197.026,74.336 C197.026,74.6626667 196.944333,74.9753333 196.781,75.274 C196.617667,75.5726667 196.386667,75.8573333 196.088,76.128 Z M195.486,80.314 C195.215333,80.314 194.963333,80.272 194.73,80.188 C194.496667,80.104 194.293667,79.985 194.121,79.831 C193.948333,79.677 193.813,79.4973333 193.715,79.292 C193.617,79.0866667 193.568,78.858 193.568,78.606 C193.568,78.1953333 193.687,77.829 193.925,77.507 C194.163,77.185 194.459333,76.9026667 194.814,76.66 C195.131333,76.7906667 195.437,76.919 195.731,77.045 C196.025,77.171 196.284,77.311 196.508,77.465 C196.732,77.619 196.909333,77.7986667 197.04,78.004 C197.170667,78.2093333 197.236,78.4566667 197.236,78.746 C197.236,79.2126667 197.075,79.5906667 196.753,79.88 C196.431,80.1693333 196.008667,80.314 195.486,80.314 Z M201.786,81.168 C202.234,81.168 202.661,81.077 203.067,80.895 C203.473,80.713 203.834667,80.4236667 204.152,80.027 C204.469333,79.6303333 204.721333,79.117 204.908,78.487 C205.094667,77.857 205.188,77.094 205.188,76.198 C205.188,75.4793333 205.111,74.8516667 204.957,74.315 C204.803,73.7783333 204.588333,73.3303333 204.313,72.971 C204.037667,72.6116667 203.711,72.3433333 203.333,72.166 C202.955,71.9886667 202.546667,71.9 202.108,71.9 C201.753333,71.9 201.415,71.97 201.093,72.11 C200.771,72.25 200.491,72.446 200.253,72.698 C200.015,72.95 199.826,73.251 199.686,73.601 C199.546,73.951 199.476,74.3406667 199.476,74.77 C199.476,75.694 199.704667,76.3846667 200.162,76.842 C200.619333,77.2993333 201.235333,77.528 202.01,77.528 C202.383333,77.528 202.756667,77.4253333 203.13,77.22 C203.503333,77.0146667 203.83,76.7346667 204.11,76.38 C204.100667,77.0986667 204.030667,77.7006667 203.9,78.186 C203.769333,78.6713333 203.596667,79.0656667 203.382,79.369 C203.167333,79.6723333 202.92,79.8893333 202.64,80.02 C202.36,80.1506667 202.061333,80.216 201.744,80.216 C201.464,80.216 201.195667,80.1506667 200.939,80.02 C200.682333,79.8893333 200.460667,79.7166667 200.274,79.502 L200.274,79.502 L199.63,80.23 C199.872667,80.5006667 200.173667,80.7246667 200.533,80.902 C200.892333,81.0793333 201.31,81.168 201.786,81.168 Z M202.206,76.66 C201.646,76.66 201.230667,76.492 200.96,76.156 C200.689333,75.82 200.554,75.358 200.554,74.77 C200.554,74.4806667 200.593667,74.2146667 200.673,73.972 C200.752333,73.7293333 200.862,73.5216667 201.002,73.349 C201.142,73.1763333 201.307667,73.0433333 201.499,72.95 C201.690333,72.8566667 201.893333,72.81 202.108,72.81 C202.677333,72.81 203.13,73.034 203.466,73.482 C203.802,73.93 204.007333,74.5926667 204.082,75.47 C203.792667,75.89 203.482333,76.1933333 203.151,76.38 C202.819667,76.5666667 202.504667,76.66 202.206,76.66 Z M209.15,81.168 C209.542,81.168 209.917667,81.1003333 210.277,80.965 C210.636333,80.8296667 210.956,80.6336667 211.236,80.377 C211.516,80.1203333 211.74,79.8053333 211.908,79.432 C212.076,79.0586667 212.16,78.6293333 212.16,78.144 C212.16,77.6586667 212.087667,77.241 211.943,76.891 C211.798333,76.541 211.6,76.2516667 211.348,76.023 C211.096,75.7943333 210.802,75.624 210.466,75.512 C210.13,75.4 209.770667,75.344 209.388,75.344 C209.117333,75.344 208.874667,75.3766667 208.66,75.442 C208.445333,75.5073333 208.230667,75.596 208.016,75.708 L208.016,75.708 L208.254,73.062 L211.712,73.062 L211.712,72.068 L207.246,72.068 L206.952,76.366 L207.568,76.758 C207.838667,76.5806667 208.083667,76.4453333 208.303,76.352 C208.522333,76.2586667 208.786,76.212 209.094,76.212 C209.672667,76.212 210.134667,76.3846667 210.48,76.73 C210.825333,77.0753333 210.998,77.556 210.998,78.172 C210.998,78.48 210.946667,78.76 210.844,79.012 C210.741333,79.264 210.601333,79.4786667 210.424,79.656 C210.246667,79.8333333 210.039,79.971 209.801,80.069 C209.563,80.167 209.308667,80.216 209.038,80.216 C208.515333,80.216 208.074333,80.1133333 207.715,79.908 C207.355667,79.7026667 207.045333,79.4646667 206.784,79.194 L206.784,79.194 L206.224,79.95 C206.373333,80.1086667 206.543667,80.2603333 206.735,80.405 C206.926333,80.5496667 207.141,80.678 207.379,80.79 C207.617,80.902 207.883,80.993 208.177,81.063 C208.471,81.133 208.795333,81.168 209.15,81.168 Z M217.018,81 C217.531333,81 218.002667,80.944 218.432,80.832 C218.861333,80.72 219.23,80.552 219.538,80.328 C219.846,80.104 220.084,79.824 220.252,79.488 C220.42,79.152 220.504,78.76 220.504,78.312 C220.504,77.6773333 220.331333,77.178 219.986,76.814 C219.640667,76.45 219.188,76.2166667 218.628,76.114 L218.628,76.114 L218.628,76.058 C219.066667,75.918 219.400333,75.6636667 219.629,75.295 C219.857667,74.9263333 219.972,74.5133333 219.972,74.056 C219.972,73.6546667 219.895,73.3116667 219.741,73.027 C219.587,72.7423333 219.372333,72.5113333 219.097,72.334 C218.821667,72.1566667 218.490333,72.026 218.103,71.942 C217.715667,71.858 217.288667,71.816 216.822,71.816 L216.822,71.816 L214.092,71.816 L214.092,81 L217.018,81 Z M216.612,75.722 L215.254,75.722 L215.254,72.74 L216.668,72.74 C217.386667,72.74 217.925667,72.852 218.285,73.076 C218.644333,73.3 218.824,73.678 218.824,74.21 C218.824,74.6766667 218.651333,75.0453333 218.306,75.316 C217.960667,75.5866667 217.396,75.722 216.612,75.722 L216.612,75.722 Z M216.85,80.076 L215.254,80.076 L215.254,76.618 L216.85,76.618 C217.662,76.618 218.282667,76.751 218.712,77.017 C219.141333,77.283 219.356,77.7006667 219.356,78.27 C219.356,78.886 219.136667,79.341 218.698,79.635 C218.259333,79.929 217.643333,80.076 216.85,80.076 L216.85,80.076 Z" id="Obligations$895B" fill="#666666" fill-rule="nonzero"></path>
                <path d="M321.592,63.168 C322.124,63.168 322.602333,63.091 323.027,62.937 C323.451667,62.783 323.815667,62.538 324.119,62.202 C324.422333,61.866 324.653333,61.4343333 324.812,60.907 C324.970667,60.3796667 325.05,59.738 325.05,58.982 L325.05,58.982 L325.05,53.844 L323.496,53.844 L323.496,59.108 C323.496,59.6026667 323.449333,60.0203333 323.356,60.361 C323.262667,60.7016667 323.132,60.9746667 322.964,61.18 C322.796,61.3853333 322.595333,61.5323333 322.362,61.621 C322.128667,61.7096667 321.872,61.754 321.592,61.754 C321.312,61.754 321.06,61.7096667 320.836,61.621 C320.612,61.5323333 320.418333,61.3853333 320.255,61.18 C320.091667,60.9746667 319.965667,60.7016667 319.877,60.361 C319.788333,60.0203333 319.744,59.6026667 319.744,59.108 L319.744,59.108 L319.744,53.844 L318.12,53.844 L318.12,58.982 C318.12,59.738 318.201667,60.3796667 318.365,60.907 C318.528333,61.4343333 318.761667,61.866 319.065,62.202 C319.368333,62.538 319.732333,62.783 320.157,62.937 C320.581667,63.091 321.06,63.168 321.592,63.168 Z M328.802,63 L328.802,58.198 C329.091333,57.918 329.350333,57.7056667 329.579,57.561 C329.807667,57.4163333 330.071333,57.344 330.37,57.344 C330.752667,57.344 331.028,57.4606667 331.196,57.694 C331.364,57.9273333 331.448,58.3286667 331.448,58.898 L331.448,58.898 L331.448,63 L333.058,63 L333.058,58.688 C333.058,57.8106667 332.89,57.1363333 332.554,56.665 C332.218,56.1936667 331.681333,55.958 330.944,55.958 C330.468,55.958 330.050333,56.0653333 329.691,56.28 C329.331667,56.4946667 328.998,56.7513333 328.69,57.05 L328.69,57.05 L328.634,57.05 L328.522,56.126 L327.192,56.126 L327.192,63 L328.802,63 Z M337.846,63.168 C338.275333,63.168 338.688333,63.0886667 339.085,62.93 C339.481667,62.7713333 339.829333,62.538 340.128,62.23 C340.426667,61.922 340.667,61.544 340.849,61.096 C341.031,60.648 341.122,60.1393333 341.122,59.57 C341.122,59.0006667 341.031,58.492 340.849,58.044 C340.667,57.596 340.426667,57.218 340.128,56.91 C339.829333,56.602 339.481667,56.3663333 339.085,56.203 C338.688333,56.0396667 338.275333,55.958 337.846,55.958 C337.416667,55.958 337.006,56.0396667 336.614,56.203 C336.222,56.3663333 335.874333,56.602 335.571,56.91 C335.267667,57.218 335.027333,57.596 334.85,58.044 C334.672667,58.492 334.584,59.0006667 334.584,59.57 C334.584,60.1393333 334.672667,60.648 334.85,61.096 C335.027333,61.544 335.267667,61.922 335.571,62.23 C335.874333,62.538 336.222,62.7713333 336.614,62.93 C337.006,63.0886667 337.416667,63.168 337.846,63.168 Z M337.846,61.852 C337.342,61.852 336.947667,61.6443333 336.663,61.229 C336.378333,60.8136667 336.236,60.2606667 336.236,59.57 C336.236,58.87 336.378333,58.3123333 336.663,57.897 C336.947667,57.4816667 337.342,57.274 337.846,57.274 C338.35,57.274 338.746667,57.4816667 339.036,57.897 C339.325333,58.3123333 339.47,58.87 339.47,59.57 C339.47,60.2606667 339.325333,60.8136667 339.036,61.229 C338.746667,61.6443333 338.35,61.852 337.846,61.852 Z M346.05,63.168 C346.432667,63.168 346.801333,63.084 347.156,62.916 C347.510667,62.748 347.823333,62.5053333 348.094,62.188 C348.364667,61.8706667 348.581667,61.481 348.745,61.019 C348.908333,60.557 348.99,60.032 348.99,59.444 C348.99,58.912 348.929333,58.4313333 348.808,58.002 C348.686667,57.5726667 348.509333,57.2063333 348.276,56.903 C348.042667,56.5996667 347.758,56.3663333 347.422,56.203 C347.086,56.0396667 346.703333,55.958 346.274,55.958 C345.919333,55.958 345.571667,56.0373333 345.231,56.196 C344.890333,56.3546667 344.575333,56.56 344.286,56.812 L344.286,56.812 L344.328,55.664 L344.328,53.116 L342.718,53.116 L342.718,63 L343.992,63 L344.132,62.272 L344.174,62.272 C344.463333,62.5613333 344.769,62.783 345.091,62.937 C345.413,63.091 345.732667,63.168 346.05,63.168 Z M345.714,61.838 C345.508667,61.838 345.287,61.796 345.049,61.712 C344.811,61.628 344.570667,61.4786667 344.328,61.264 L344.328,61.264 L344.328,58.058 C344.850667,57.5446667 345.354667,57.288 345.84,57.288 C346.362667,57.288 346.740667,57.4793333 346.974,57.862 C347.207333,58.2446667 347.324,58.7813333 347.324,59.472 C347.324,60.256 347.17,60.8463333 346.862,61.243 C346.554,61.6396667 346.171333,61.838 345.714,61.838 Z M352.168,63.168 C352.522667,63.168 352.807333,63.1213333 353.022,63.028 L353.022,63.028 L352.812,61.824 C352.746667,61.8426667 352.697667,61.852 352.665,61.852 L352.665,61.852 L352.56,61.852 C352.476,61.852 352.396667,61.8123333 352.322,61.733 C352.247333,61.6536667 352.21,61.516 352.21,61.32 L352.21,61.32 L352.21,53.116 L350.6,53.116 L350.6,61.236 C350.6,61.8333333 350.716667,62.3046667 350.95,62.65 C351.183333,62.9953333 351.589333,63.168 352.168,63.168 Z M355.206,54.922 C355.495333,54.922 355.733333,54.838 355.92,54.67 C356.106667,54.502 356.2,54.2826667 356.2,54.012 C356.2,53.7413333 356.106667,53.5196667 355.92,53.347 C355.733333,53.1743333 355.495333,53.088 355.206,53.088 C354.916667,53.088 354.678667,53.1743333 354.492,53.347 C354.305333,53.5196667 354.212,53.7413333 354.212,54.012 C354.212,54.2826667 354.305333,54.502 354.492,54.67 C354.678667,54.838 354.916667,54.922 355.206,54.922 Z M356.004,63 L356.004,56.126 L354.394,56.126 L354.394,63 L356.004,63 Z M360.456,66.038 C361.016,66.038 361.522333,65.975 361.975,65.849 C362.427667,65.723 362.812667,65.5526667 363.13,65.338 C363.447333,65.1233333 363.692333,64.8666667 363.865,64.568 C364.037667,64.2693333 364.124,63.952 364.124,63.616 C364.124,63.0186667 363.911667,62.587 363.487,62.321 C363.062333,62.055 362.434667,61.922 361.604,61.922 L361.604,61.922 L360.386,61.922 C359.966,61.922 359.674333,61.866 359.511,61.754 C359.347667,61.642 359.266,61.488 359.266,61.292 C359.266,61.1333333 359.296333,61.0073333 359.357,60.914 C359.417667,60.8206667 359.499333,60.7273333 359.602,60.634 C359.760667,60.6993333 359.919333,60.746 360.078,60.774 C360.236667,60.802 360.390667,60.816 360.54,60.816 C360.904,60.816 361.244667,60.7646667 361.562,60.662 C361.879333,60.5593333 362.154667,60.41 362.388,60.214 C362.621333,60.018 362.805667,59.7753333 362.941,59.486 C363.076333,59.1966667 363.144,58.8606667 363.144,58.478 C363.144,58.2353333 363.106667,58.0136667 363.032,57.813 C362.957333,57.6123333 362.864,57.4466667 362.752,57.316 L362.752,57.316 L364.012,57.316 L364.012,56.126 L361.548,56.126 C361.408,56.0793333 361.251667,56.0396667 361.079,56.007 C360.906333,55.9743333 360.726667,55.958 360.54,55.958 C360.176,55.958 359.830667,56.0116667 359.504,56.119 C359.177333,56.2263333 358.890333,56.385 358.643,56.595 C358.395667,56.805 358.197333,57.064 358.048,57.372 C357.898667,57.68 357.824,58.03 357.824,58.422 C357.824,58.8326667 357.915,59.1943333 358.097,59.507 C358.279,59.8196667 358.486667,60.0646667 358.72,60.242 L358.72,60.242 L358.72,60.298 C358.524,60.438 358.349,60.6176667 358.195,60.837 C358.041,61.0563333 357.964,61.3013333 357.964,61.572 C357.964,61.852 358.022333,62.0853333 358.139,62.272 C358.255667,62.4586667 358.402667,62.608 358.58,62.72 L358.58,62.72 L358.58,62.776 C358.262667,62.972 358.02,63.1936667 357.852,63.441 C357.684,63.6883333 357.6,63.9566667 357.6,64.246 C357.6,64.5446667 357.672333,64.806 357.817,65.03 C357.961667,65.254 358.16,65.4406667 358.412,65.59 C358.664,65.7393333 358.965,65.8513333 359.315,65.926 C359.665,66.0006667 360.045333,66.038 360.456,66.038 Z M360.54,59.808 C360.204,59.808 359.919333,59.689 359.686,59.451 C359.452667,59.213 359.336,58.87 359.336,58.422 C359.336,57.9833333 359.452667,57.6473333 359.686,57.414 C359.919333,57.1806667 360.204,57.064 360.54,57.064 C360.876,57.064 361.158333,57.183 361.387,57.421 C361.615667,57.659 361.73,57.9926667 361.73,58.422 C361.73,58.87 361.613333,59.213 361.38,59.451 C361.146667,59.689 360.866667,59.808 360.54,59.808 Z M360.708,64.988 C360.157333,64.988 359.725667,64.9016667 359.413,64.729 C359.100333,64.5563333 358.944,64.316 358.944,64.008 C358.944,63.672 359.121333,63.3686667 359.476,63.098 C359.728,63.1633333 360.040667,63.196 360.414,63.196 L360.414,63.196 L361.352,63.196 C361.744,63.196 362.045,63.2426667 362.255,63.336 C362.465,63.4293333 362.57,63.6113333 362.57,63.882 C362.57,64.1806667 362.399667,64.4396667 362.059,64.659 C361.718333,64.8783333 361.268,64.988 360.708,64.988 Z M366.756,63.168 C367.166667,63.168 367.547,63.0793333 367.897,62.902 C368.247,62.7246667 368.576,62.5053333 368.884,62.244 L368.884,62.244 L368.94,62.244 L369.052,63 L370.382,63 L370.382,58.926 C370.382,57.9646667 370.169667,57.2296667 369.745,56.721 C369.320333,56.2123333 368.678667,55.958 367.82,55.958 C367.269333,55.958 366.756,56.0466667 366.28,56.224 C365.804,56.4013333 365.374667,56.6113333 364.992,56.854 L364.992,56.854 L365.58,57.932 C365.888,57.7453333 366.203,57.5866667 366.525,57.456 C366.847,57.3253333 367.176,57.26 367.512,57.26 C367.745333,57.26 367.941333,57.295 368.1,57.365 C368.258667,57.435 368.387,57.533 368.485,57.659 C368.583,57.785 368.653,57.9296667 368.695,58.093 C368.737,58.2563333 368.762667,58.4266667 368.772,58.604 C368.062667,58.6786667 367.453667,58.786 366.945,58.926 C366.436333,59.066 366.016333,59.2386667 365.685,59.444 C365.353667,59.6493333 365.111,59.8943333 364.957,60.179 C364.803,60.4636667 364.726,60.788 364.726,61.152 C364.726,61.7586667 364.912667,62.2463333 365.286,62.615 C365.659333,62.9836667 366.149333,63.168 366.756,63.168 Z M367.274,61.908 C366.984667,61.908 366.746667,61.838 366.56,61.698 C366.373333,61.558 366.28,61.334 366.28,61.026 C366.28,60.858 366.322,60.6993333 366.406,60.55 C366.49,60.4006667 366.63,60.2676667 366.826,60.151 C367.022,60.0343333 367.278667,59.9293333 367.596,59.836 C367.913333,59.7426667 368.305333,59.668 368.772,59.612 L368.772,59.612 L368.772,61.152 C368.510667,61.3946667 368.265667,61.5813333 368.037,61.712 C367.808333,61.8426667 367.554,61.908 367.274,61.908 Z M374.512,63.168 C374.782667,63.168 375.037,63.1423333 375.275,63.091 C375.513,63.0396667 375.725333,62.9813333 375.912,62.916 L375.912,62.916 L375.632,61.726 C375.529333,61.7726667 375.415,61.81 375.289,61.838 C375.163,61.866 375.039333,61.88 374.918,61.88 C374.274,61.88 373.952,61.4786667 373.952,60.676 L373.952,60.676 L373.952,57.4 L375.702,57.4 L375.702,56.126 L373.952,56.126 L373.952,54.25 L372.608,54.25 L372.412,56.126 L371.348,56.196 L371.348,57.4 L372.328,57.4 L372.328,60.676 C372.328,61.0493333 372.367667,61.3876667 372.447,61.691 C372.526333,61.9943333 372.652333,62.2556667 372.825,62.475 C372.997667,62.6943333 373.221667,62.8646667 373.497,62.986 C373.772333,63.1073333 374.110667,63.168 374.512,63.168 Z M379.86,63.168 C380.298667,63.168 380.718667,63.098 381.12,62.958 C381.521333,62.818 381.885333,62.6406667 382.212,62.426 L382.212,62.426 L381.666,61.418 C381.414,61.5766667 381.159667,61.7003333 380.903,61.789 C380.646333,61.8776667 380.368667,61.922 380.07,61.922 C379.51,61.922 379.050333,61.7563333 378.691,61.425 C378.331667,61.0936667 378.114667,60.62 378.04,60.004 L378.04,60.004 L382.408,60.004 C382.426667,59.92 382.443,59.808 382.457,59.668 C382.471,59.528 382.478,59.3786667 382.478,59.22 C382.478,58.744 382.417333,58.3053333 382.296,57.904 C382.174667,57.5026667 381.995,57.1573333 381.757,56.868 C381.519,56.5786667 381.222667,56.3546667 380.868,56.196 C380.513333,56.0373333 380.102667,55.958 379.636,55.958 C379.234667,55.958 378.842667,56.042 378.46,56.21 C378.077333,56.378 377.739,56.616 377.445,56.924 C377.151,57.232 376.915333,57.61 376.738,58.058 C376.560667,58.506 376.472,59.01 376.472,59.57 C376.472,60.1393333 376.558333,60.6456667 376.731,61.089 C376.903667,61.5323333 377.144,61.908 377.452,62.216 C377.76,62.524 378.119333,62.7596667 378.53,62.923 C378.940667,63.0863333 379.384,63.168 379.86,63.168 Z M381.078,58.912 L378.026,58.912 C378.100667,58.352 378.292,57.9273333 378.6,57.638 C378.908,57.3486667 379.267333,57.204 379.678,57.204 C380.154,57.204 380.506333,57.3556667 380.735,57.659 C380.963667,57.9623333 381.078,58.38 381.078,58.912 L381.078,58.912 Z M386.426,63.168 C386.799333,63.168 387.154,63.0793333 387.49,62.902 C387.826,62.7246667 388.12,62.51 388.372,62.258 L388.372,62.258 L388.428,62.258 L388.54,63 L389.87,63 L389.87,53.116 L388.26,53.116 L388.26,55.608 L388.316,56.714 C388.045333,56.4806667 387.774667,56.2963333 387.504,56.161 C387.233333,56.0256667 386.902,55.958 386.51,55.958 C386.136667,55.958 385.775,56.042 385.425,56.21 C385.075,56.378 384.764667,56.616 384.494,56.924 C384.223333,57.232 384.006333,57.61 383.843,58.058 C383.679667,58.506 383.598,59.01 383.598,59.57 C383.598,60.7086667 383.852333,61.593 384.361,62.223 C384.869667,62.853 385.558,63.168 386.426,63.168 Z M386.818,61.838 C386.314,61.838 385.929,61.6443333 385.663,61.257 C385.397,60.8696667 385.264,60.3026667 385.264,59.556 C385.264,58.828 385.418,58.268 385.726,57.876 C386.034,57.484 386.412,57.288 386.86,57.288 C387.093333,57.288 387.324333,57.33 387.553,57.414 C387.781667,57.498 388.017333,57.6473333 388.26,57.862 L388.26,57.862 L388.26,61.068 C387.812,61.5813333 387.331333,61.838 386.818,61.838 Z M320.948,82.54 L320.948,81.126 C321.62,81.0326667 322.149667,80.7713333 322.537,80.342 C322.924333,79.9126667 323.118,79.362 323.118,78.69 C323.118,78.186 323.022333,77.773 322.831,77.451 C322.639667,77.129 322.399333,76.8583333 322.11,76.639 C321.820667,76.4196667 321.505667,76.233 321.165,76.079 C320.824333,75.925 320.509333,75.7663333 320.22,75.603 C319.930667,75.4396667 319.690333,75.2506667 319.499,75.036 C319.307667,74.8213333 319.212,74.546 319.212,74.21 C319.212,73.7993333 319.338,73.4726667 319.59,73.23 C319.842,72.9873333 320.182667,72.866 320.612,72.866 C320.994667,72.866 321.309667,72.936 321.557,73.076 C321.804333,73.216 322.058667,73.412 322.32,73.664 L322.32,73.664 L322.936,72.978 C322.684,72.7073333 322.401667,72.474 322.089,72.278 C321.776333,72.082 321.396,71.9606667 320.948,71.914 L320.948,71.914 L320.948,70.528 L320.108,70.528 L320.108,71.942 C319.492,72.0353333 318.999667,72.2896667 318.631,72.705 C318.262333,73.1203333 318.078,73.6406667 318.078,74.266 C318.078,74.7233333 318.173667,75.099 318.365,75.393 C318.556333,75.687 318.796667,75.9366667 319.086,76.142 C319.375333,76.3473333 319.690333,76.5293333 320.031,76.688 C320.371667,76.8466667 320.686667,77.017 320.976,77.199 C321.265333,77.381 321.505667,77.5956667 321.697,77.843 C321.888333,78.0903333 321.984,78.4006667 321.984,78.774 C321.984,79.2126667 321.855667,79.5626667 321.599,79.824 C321.342333,80.0853333 320.952667,80.216 320.43,80.216 C320.000667,80.216 319.606333,80.125 319.247,79.943 C318.887667,79.761 318.558667,79.5393333 318.26,79.278 L318.26,79.278 L317.728,80.076 C318.026667,80.3466667 318.386,80.5823333 318.806,80.783 C319.226,80.9836667 319.66,81.1073333 320.108,81.154 L320.108,81.154 L320.108,82.54 L320.948,82.54 Z M330.286,81 L330.286,80.006 L327.696,80.006 C327.462667,80.006 327.215333,80.0153333 326.954,80.034 C326.692667,80.0526667 326.440667,80.0713333 326.198,80.09 C326.73,79.5393333 327.217667,79.019 327.661,78.529 C328.104333,78.039 328.487,77.5676667 328.809,77.115 C329.131,76.6623333 329.383,76.2236667 329.565,75.799 C329.747,75.3743333 329.838,74.952 329.838,74.532 C329.838,73.7386667 329.6,73.1016667 329.124,72.621 C328.648,72.1403333 327.994667,71.9 327.164,71.9 C326.576,71.9 326.072,72.0236667 325.652,72.271 C325.232,72.5183333 324.835333,72.8473333 324.462,73.258 L324.462,73.258 L325.12,73.916 C325.381333,73.6173333 325.670667,73.363 325.988,73.153 C326.305333,72.943 326.650667,72.838 327.024,72.838 C327.593333,72.838 328.018,73.0013333 328.298,73.328 C328.578,73.6546667 328.718,74.0746667 328.718,74.588 C328.718,74.952 328.624667,75.3276667 328.438,75.715 C328.251333,76.1023333 327.980667,76.527 327.626,76.989 C327.271333,77.451 326.832667,77.9526667 326.31,78.494 C325.787333,79.0353333 325.19,79.642 324.518,80.314 L324.518,80.314 L324.518,81 L330.286,81 Z M334.416,81.168 C334.845333,81.168 335.237333,81.1073333 335.592,80.986 C335.946667,80.8646667 336.25,80.6966667 336.502,80.482 C336.754,80.2673333 336.95,80.0153333 337.09,79.726 C337.23,79.4366667 337.3,79.124 337.3,78.788 C337.3,78.4893333 337.255667,78.2233333 337.167,77.99 C337.078333,77.7566667 336.961667,77.549 336.817,77.367 C336.672333,77.185 336.506667,77.0216667 336.32,76.877 C336.133333,76.7323333 335.942,76.604 335.746,76.492 L335.746,76.492 L335.746,76.436 C335.886,76.3333333 336.028333,76.2073333 336.173,76.058 C336.317667,75.9086667 336.448333,75.7406667 336.565,75.554 C336.681667,75.3673333 336.779667,75.1666667 336.859,74.952 C336.938333,74.7373333 336.978,74.5133333 336.978,74.28 C336.978,73.9346667 336.919667,73.615 336.803,73.321 C336.686333,73.027 336.518333,72.775 336.299,72.565 C336.079667,72.355 335.816,72.1916667 335.508,72.075 C335.2,71.9583333 334.85,71.9 334.458,71.9 C334.094,71.9 333.758,71.956 333.45,72.068 C333.142,72.18 332.876,72.3363333 332.652,72.537 C332.428,72.7376667 332.250667,72.978 332.12,73.258 C331.989333,73.538 331.924,73.8506667 331.924,74.196 C331.924,74.672 332.05,75.0756667 332.302,75.407 C332.554,75.7383333 332.843333,76.0206667 333.17,76.254 L333.17,76.254 L333.17,76.31 C332.955333,76.422 332.747667,76.555 332.547,76.709 C332.346333,76.863 332.169,77.0403333 332.015,77.241 C331.861,77.4416667 331.735,77.6656667 331.637,77.913 C331.539,78.1603333 331.49,78.4286667 331.49,78.718 C331.49,79.0726667 331.564667,79.3993333 331.714,79.698 C331.863333,79.9966667 332.066333,80.2556667 332.323,80.475 C332.579667,80.6943333 332.887667,80.8646667 333.247,80.986 C333.606333,81.1073333 333.996,81.168 334.416,81.168 Z M335.046,76.128 C334.775333,76.0253333 334.516333,75.9156667 334.269,75.799 C334.021667,75.6823333 333.802333,75.5493333 333.611,75.4 C333.419667,75.2506667 333.268,75.0803333 333.156,74.889 C333.044,74.6976667 332.988,74.4666667 332.988,74.196 C332.988,73.7573333 333.123333,73.4073333 333.394,73.146 C333.664667,72.8846667 334.01,72.754 334.43,72.754 C334.924667,72.754 335.307333,72.9056667 335.578,73.209 C335.848667,73.5123333 335.984,73.888 335.984,74.336 C335.984,74.6626667 335.902333,74.9753333 335.739,75.274 C335.575667,75.5726667 335.344667,75.8573333 335.046,76.128 Z M334.444,80.314 C334.173333,80.314 333.921333,80.272 333.688,80.188 C333.454667,80.104 333.251667,79.985 333.079,79.831 C332.906333,79.677 332.771,79.4973333 332.673,79.292 C332.575,79.0866667 332.526,78.858 332.526,78.606 C332.526,78.1953333 332.645,77.829 332.883,77.507 C333.121,77.185 333.417333,76.9026667 333.772,76.66 C334.089333,76.7906667 334.395,76.919 334.689,77.045 C334.983,77.171 335.242,77.311 335.466,77.465 C335.69,77.619 335.867333,77.7986667 335.998,78.004 C336.128667,78.2093333 336.194,78.4566667 336.194,78.746 C336.194,79.2126667 336.033,79.5906667 335.711,79.88 C335.389,80.1693333 334.966667,80.314 334.444,80.314 Z M344.02,81 L344.02,80.048 L342.172,80.048 L342.172,72.068 L341.29,72.068 C341.047333,72.2173333 340.774333,72.3456667 340.471,72.453 C340.167667,72.5603333 339.810667,72.6513333 339.4,72.726 L339.4,72.726 L339.4,73.468 L341.024,73.468 L341.024,80.048 L338.98,80.048 L338.98,81 L344.02,81 Z M349.018,81 C349.531333,81 350.002667,80.944 350.432,80.832 C350.861333,80.72 351.23,80.552 351.538,80.328 C351.846,80.104 352.084,79.824 352.252,79.488 C352.42,79.152 352.504,78.76 352.504,78.312 C352.504,77.6773333 352.331333,77.178 351.986,76.814 C351.640667,76.45 351.188,76.2166667 350.628,76.114 L350.628,76.114 L350.628,76.058 C351.066667,75.918 351.400333,75.6636667 351.629,75.295 C351.857667,74.9263333 351.972,74.5133333 351.972,74.056 C351.972,73.6546667 351.895,73.3116667 351.741,73.027 C351.587,72.7423333 351.372333,72.5113333 351.097,72.334 C350.821667,72.1566667 350.490333,72.026 350.103,71.942 C349.715667,71.858 349.288667,71.816 348.822,71.816 L348.822,71.816 L346.092,71.816 L346.092,81 L349.018,81 Z M348.612,75.722 L347.254,75.722 L347.254,72.74 L348.668,72.74 C349.386667,72.74 349.925667,72.852 350.285,73.076 C350.644333,73.3 350.824,73.678 350.824,74.21 C350.824,74.6766667 350.651333,75.0453333 350.306,75.316 C349.960667,75.5866667 349.396,75.722 348.612,75.722 L348.612,75.722 Z M348.85,80.076 L347.254,80.076 L347.254,76.618 L348.85,76.618 C349.662,76.618 350.282667,76.751 350.712,77.017 C351.141333,77.283 351.356,77.7006667 351.356,78.27 C351.356,78.886 351.136667,79.341 350.698,79.635 C350.259333,79.929 349.643333,80.076 348.85,80.076 L348.85,80.076 Z" id="Unobligated$281B" fill="#666666" fill-rule="nonzero"></path>
                <line x1="10.5" y1="30" x2="10.5" y2="45" id="Line" stroke="#C6C6C6"></line>
                <line x1="239.5" y1="30" x2="239.5" y2="45" id="Line-Copy" stroke="#C6C6C6"></line>
                <path d="M347,30 L347,34.6176471 C347,35.7222166 346.104569,36.6176471 345,36.6176471 L297,36.6176471 C295.895431,36.6176471 295,37.5130776 295,38.6176471 L295,45 L295,45" id="Line-Copy-7" stroke="#C6C6C6" stroke-linecap="round" transform="translate(321.000000, 37.500000) scale(-1, 1) translate(-321.000000, -37.500000) "></path>
                <rect id="unobligated" fill="#F3E9FF" x="255" y="0" width="80" height="30"></rect>
                <rect id="obligated" fill="#6F41A7" x="225" y="0" width="30" height="30"></rect>
                <rect id="outlays" fill="#331E4D" x="0" y="0" width="225" height="30"></rect>
                <path d="M347.368,21.54 L347.368,20.084 C348.096,19.9253333 348.642,19.6056667 349.006,19.125 C349.37,18.6443333 349.552,18.068 349.552,17.396 C349.552,16.948 349.461,16.5723333 349.279,16.269 C349.097,15.9656667 348.868333,15.7066667 348.593,15.492 C348.317667,15.2773333 348.021333,15.0953333 347.704,14.946 C347.386667,14.7966667 347.090333,14.652 346.815,14.512 C346.539667,14.372 346.311,14.225 346.129,14.071 C345.947,13.917 345.856,13.728 345.856,13.504 C345.856,13.1866667 345.944667,12.958 346.122,12.818 C346.299333,12.678 346.556,12.608 346.892,12.608 C347.190667,12.608 347.456667,12.6663333 347.69,12.783 C347.923333,12.8996667 348.166,13.0746667 348.418,13.308 L348.418,13.308 L349.454,12.132 C349.183333,11.8426667 348.88,11.5953333 348.544,11.39 C348.208,11.1846667 347.816,11.0493333 347.368,10.984 L347.368,10.984 L347.368,9.57 L346.01,9.57 L346.01,11.012 C345.347333,11.1426667 344.827,11.4343333 344.449,11.887 C344.071,12.3396667 343.882,12.9113333 343.882,13.602 C343.882,14.022 343.973,14.3766667 344.155,14.666 C344.337,14.9553333 344.565667,15.2073333 344.841,15.422 C345.116333,15.6366667 345.412667,15.821 345.73,15.975 C346.047333,16.129 346.343667,16.283 346.619,16.437 C346.894333,16.591 347.123,16.752 347.305,16.92 C347.487,17.088 347.578,17.2933333 347.578,17.536 C347.578,17.8626667 347.487,18.1053333 347.305,18.264 C347.123,18.4226667 346.836,18.502 346.444,18.502 C346.108,18.502 345.779,18.4343333 345.457,18.299 C345.135,18.1636667 344.796667,17.9606667 344.442,17.69 L344.442,17.69 L343.546,19.076 C343.872667,19.3746667 344.262333,19.615 344.715,19.797 C345.167667,19.979 345.599333,20.0933333 346.01,20.14 L346.01,20.14 L346.01,21.54 L347.368,21.54 Z M357.028,20 L357.028,18.334 L355.362,18.334 L355.362,11.11 L353.85,11.11 C353.532667,11.2966667 353.206,11.4553333 352.87,11.586 C352.534,11.7166667 352.123333,11.8286667 351.638,11.922 L351.638,11.922 L351.638,13.196 L353.304,13.196 L353.304,18.334 L351.372,18.334 L351.372,20 L357.028,20 Z M359.884,20.168 C360.238667,20.168 360.535,20.0443333 360.773,19.797 C361.011,19.5496667 361.13,19.244 361.13,18.88 C361.13,18.5066667 361.011,18.1963333 360.773,17.949 C360.535,17.7016667 360.238667,17.578 359.884,17.578 C359.529333,17.578 359.233,17.7016667 358.995,17.949 C358.757,18.1963333 358.638,18.5066667 358.638,18.88 C358.638,19.244 358.757,19.5496667 358.995,19.797 C359.233,20.0443333 359.529333,20.168 359.884,20.168 Z M368.62,20 L368.62,18.334 L366.954,18.334 L366.954,11.11 L365.442,11.11 C365.124667,11.2966667 364.798,11.4553333 364.462,11.586 C364.126,11.7166667 363.715333,11.8286667 363.23,11.922 L363.23,11.922 L363.23,13.196 L364.896,13.196 L364.896,18.334 L362.964,18.334 L362.964,20 L368.62,20 Z M373.058,20.168 C373.534,20.168 373.965667,20.105 374.353,19.979 C374.740333,19.853 375.071667,19.6803333 375.347,19.461 C375.622333,19.2416667 375.834667,18.9826667 375.984,18.684 C376.133333,18.3853333 376.208,18.0586667 376.208,17.704 C376.208,17.116 376.058667,16.64 375.76,16.276 C375.461333,15.912 375.097333,15.6133333 374.668,15.38 L374.668,15.38 L374.668,15.324 C374.976,15.1186667 375.246667,14.8503333 375.48,14.519 C375.713333,14.1876667 375.83,13.8073333 375.83,13.378 C375.83,13.014 375.764667,12.6803333 375.634,12.377 C375.503333,12.0736667 375.321333,11.817 375.088,11.607 C374.854667,11.397 374.57,11.2336667 374.234,11.117 C373.898,11.0003333 373.529333,10.942 373.128,10.942 C372.717333,10.942 372.337,10.998 371.987,11.11 C371.637,11.222 371.336,11.3853333 371.084,11.6 C370.832,11.8146667 370.636,12.0736667 370.496,12.377 C370.356,12.6803333 370.286,13.0186667 370.286,13.392 C370.286,13.868 370.398,14.2716667 370.622,14.603 C370.846,14.9343333 371.130667,15.2306667 371.476,15.492 L371.476,15.492 L371.476,15.548 C371.056,15.772 370.699,16.0566667 370.405,16.402 C370.111,16.7473333 369.964,17.1906667 369.964,17.732 C369.964,18.096 370.041,18.4273333 370.195,18.726 C370.349,19.0246667 370.563667,19.2813333 370.839,19.496 C371.114333,19.7106667 371.441,19.8763333 371.819,19.993 C372.197,20.1096667 372.61,20.168 373.058,20.168 Z M373.618,14.82 C373.160667,14.6426667 372.792,14.4513333 372.512,14.246 C372.232,14.0406667 372.092,13.756 372.092,13.392 C372.092,13.0466667 372.19,12.79 372.386,12.622 C372.582,12.454 372.815333,12.37 373.086,12.37 C373.422,12.37 373.685667,12.475 373.877,12.685 C374.068333,12.895 374.164,13.1726667 374.164,13.518 C374.164,13.966 373.982,14.4 373.618,14.82 Z M373.1,18.74 C372.726667,18.74 372.404667,18.6303333 372.134,18.411 C371.863333,18.1916667 371.728,17.886 371.728,17.494 C371.728,17.2233333 371.793333,16.9666667 371.924,16.724 C372.054667,16.4813333 372.218,16.2666667 372.414,16.08 C372.694,16.2013333 372.948333,16.3133333 373.177,16.416 C373.405667,16.5186667 373.604,16.6283333 373.772,16.745 C373.94,16.8616667 374.068333,16.99 374.157,17.13 C374.245667,17.27 374.29,17.438 374.29,17.634 C374.29,18.0073333 374.178,18.285 373.954,18.467 C373.73,18.649 373.445333,18.74 373.1,18.74 Z M381.696,20 L381.696,12.608 L384.202,12.608 L384.202,10.872 L377.118,10.872 L377.118,12.608 L379.624,12.608 L379.624,20 L381.696,20 Z" id="$1.18T" fill="#555555" fill-rule="nonzero"></path>
            </g>
        </g>
    </g>
</svg>