<?xml version="1.0" encoding="UTF-8"?>
<svg width="153px" height="32px" viewBox="0 0 153 32" version="1.1" xmlns="http://www.w3.org/2000/svg">
    <title>new-data-flag</title>
    <g id="00.-Homepage" stroke="none" stroke-width="1" fill="none" fill-rule="evenodd">
        <g id="New-Data-Flag" transform="translate(-42.000000, -103.000000)">
            <g id="side-article" transform="translate(42.000000, 57.000000)">
                <g id="new-data-flag" transform="translate(0.000000, 46.000000)">
                    <polygon id="Rectangle" fill="#D72D79" points="0 0 153 0 153 26 0 26"></polygon>
                    <polygon id="Triangle" fill="#A4094E" points="8 26 8 32 0 26"></polygon>
                    <path d="M9.472,17.08 C10.004,17.08 10.4823333,17.003 10.907,16.849 C11.3316667,16.695 11.6956667,16.45 11.999,16.114 C12.3023333,15.778 12.5333333,15.3463333 12.692,14.819 C12.8506667,14.2916667 12.93,13.65 12.93,12.894 L12.93,12.894 L12.93,7.756 L11.376,7.756 L11.376,13.02 C11.376,13.5146667 11.3293333,13.9323333 11.236,14.273 C11.1426667,14.6136667 11.012,14.8866667 10.844,15.092 C10.676,15.2973333 10.4753333,15.4443333 10.242,15.533 C10.0086667,15.6216667 9.752,15.666 9.472,15.666 C9.192,15.666 8.94,15.6216667 8.716,15.533 C8.492,15.4443333 8.29833333,15.2973333 8.135,15.092 C7.97166667,14.8866667 7.84566667,14.6136667 7.757,14.273 C7.66833333,13.9323333 7.624,13.5146667 7.624,13.02 L7.624,13.02 L7.624,7.756 L6,7.756 L6,12.894 C6,13.65 6.08166667,14.2916667 6.245,14.819 C6.40833333,15.3463333 6.64166667,15.778 6.945,16.114 C7.24833333,16.45 7.61233333,16.695 8.037,16.849 C8.46166667,17.003 8.94,17.08 9.472,17.08 Z M16.682,19.628 L16.682,17.472 L16.64,16.324 C16.92,16.5666667 17.2093333,16.7533333 17.508,16.884 C17.8066667,17.0146667 18.1053333,17.08 18.404,17.08 C18.7866667,17.08 19.1553333,16.996 19.51,16.828 C19.8646667,16.66 20.1773333,16.4196667 20.448,16.107 C20.7186667,15.7943333 20.9356667,15.407 21.099,14.945 C21.2623333,14.483 21.344,13.958 21.344,13.37 C21.344,12.838 21.2833333,12.3573333 21.162,11.928 C21.0406667,11.4986667 20.8633333,11.13 20.63,10.822 C20.3966667,10.514 20.1143333,10.2783333 19.783,10.115 C19.4516667,9.95166667 19.0713333,9.87 18.642,9.87 C18.2593333,9.87 17.8906667,9.95866667 17.536,10.136 C17.1813333,10.3133333 16.8593333,10.5233333 16.57,10.766 L16.57,10.766 L16.514,10.766 L16.402,10.038 L15.072,10.038 L15.072,19.628 L16.682,19.628 Z M18.068,15.75 C17.8626667,15.75 17.6433333,15.708 17.41,15.624 C17.1766667,15.54 16.934,15.3906667 16.682,15.176 L16.682,15.176 L16.682,11.97 C17.2046667,11.4566667 17.7086667,11.2 18.194,11.2 C18.7166667,11.2 19.0946667,11.3913333 19.328,11.774 C19.5613333,12.1566667 19.678,12.6933333 19.678,13.384 C19.678,14.168 19.524,14.7583333 19.216,15.155 C18.908,15.5516667 18.5253333,15.75 18.068,15.75 Z M25.376,17.08 C25.7493333,17.08 26.104,16.9913333 26.44,16.814 C26.776,16.6366667 27.07,16.422 27.322,16.17 L27.322,16.17 L27.378,16.17 L27.49,16.912 L28.82,16.912 L28.82,7.028 L27.21,7.028 L27.21,9.52 L27.266,10.626 C26.9953333,10.3926667 26.7246667,10.2083333 26.454,10.073 C26.1833333,9.93766667 25.852,9.87 25.46,9.87 C25.0866667,9.87 24.725,9.954 24.375,10.122 C24.025,10.29 23.7146667,10.528 23.444,10.836 C23.1733333,11.144 22.9563333,11.522 22.793,11.97 C22.6296667,12.418 22.548,12.922 22.548,13.482 C22.548,14.6206667 22.8023333,15.505 23.311,16.135 C23.8196667,16.765 24.508,17.08 25.376,17.08 Z M25.768,15.75 C25.264,15.75 24.879,15.5563333 24.613,15.169 C24.347,14.7816667 24.214,14.2146667 24.214,13.468 C24.214,12.74 24.368,12.18 24.676,11.788 C24.984,11.396 25.362,11.2 25.81,11.2 C26.0433333,11.2 26.2743333,11.242 26.503,11.326 C26.7316667,11.41 26.9673333,11.5593333 27.21,11.774 L27.21,11.774 L27.21,14.98 C26.762,15.4933333 26.2813333,15.75 25.768,15.75 Z M32.53,17.08 C32.9406667,17.08 33.321,16.9913333 33.671,16.814 C34.021,16.6366667 34.35,16.4173333 34.658,16.156 L34.658,16.156 L34.714,16.156 L34.826,16.912 L36.156,16.912 L36.156,12.838 C36.156,11.8766667 35.9436667,11.1416667 35.519,10.633 C35.0943333,10.1243333 34.4526667,9.87 33.594,9.87 C33.0433333,9.87 32.53,9.95866667 32.054,10.136 C31.578,10.3133333 31.1486667,10.5233333 30.766,10.766 L30.766,10.766 L31.354,11.844 C31.662,11.6573333 31.977,11.4986667 32.299,11.368 C32.621,11.2373333 32.95,11.172 33.286,11.172 C33.5193333,11.172 33.7153333,11.207 33.874,11.277 C34.0326667,11.347 34.161,11.445 34.259,11.571 C34.357,11.697 34.427,11.8416667 34.469,12.005 C34.511,12.1683333 34.5366667,12.3386667 34.546,12.516 C33.8366667,12.5906667 33.2276667,12.698 32.719,12.838 C32.2103333,12.978 31.7903333,13.1506667 31.459,13.356 C31.1276667,13.5613333 30.885,13.8063333 30.731,14.091 C30.577,14.3756667 30.5,14.7 30.5,15.064 C30.5,15.6706667 30.6866667,16.1583333 31.06,16.527 C31.4333333,16.8956667 31.9233333,17.08 32.53,17.08 Z M33.048,15.82 C32.7586667,15.82 32.5206667,15.75 32.334,15.61 C32.1473333,15.47 32.054,15.246 32.054,14.938 C32.054,14.77 32.096,14.6113333 32.18,14.462 C32.264,14.3126667 32.404,14.1796667 32.6,14.063 C32.796,13.9463333 33.0526667,13.8413333 33.37,13.748 C33.6873333,13.6546667 34.0793333,13.58 34.546,13.524 L34.546,13.524 L34.546,15.064 C34.2846667,15.3066667 34.0396667,15.4933333 33.811,15.624 C33.5823333,15.7546667 33.328,15.82 33.048,15.82 Z M40.286,17.08 C40.5566667,17.08 40.811,17.0543333 41.049,17.003 C41.287,16.9516667 41.4993333,16.8933333 41.686,16.828 L41.686,16.828 L41.406,15.638 C41.3033333,15.6846667 41.189,15.722 41.063,15.75 C40.937,15.778 40.8133333,15.792 40.692,15.792 C40.048,15.792 39.726,15.3906667 39.726,14.588 L39.726,14.588 L39.726,11.312 L41.476,11.312 L41.476,10.038 L39.726,10.038 L39.726,8.162 L38.382,8.162 L38.186,10.038 L37.122,10.108 L37.122,11.312 L38.102,11.312 L38.102,14.588 C38.102,14.9613333 38.1416667,15.2996667 38.221,15.603 C38.3003333,15.9063333 38.4263333,16.1676667 38.599,16.387 C38.7716667,16.6063333 38.9956667,16.7766667 39.271,16.898 C39.5463333,17.0193333 39.8846667,17.08 40.286,17.08 Z M45.634,17.08 C46.0726667,17.08 46.4926667,17.01 46.894,16.87 C47.2953333,16.73 47.6593333,16.5526667 47.986,16.338 L47.986,16.338 L47.44,15.33 C47.188,15.4886667 46.9336667,15.6123333 46.677,15.701 C46.4203333,15.7896667 46.1426667,15.834 45.844,15.834 C45.284,15.834 44.8243333,15.6683333 44.465,15.337 C44.1056667,15.0056667 43.8886667,14.532 43.814,13.916 L43.814,13.916 L48.182,13.916 C48.2006667,13.832 48.217,13.72 48.231,13.58 C48.245,13.44 48.252,13.2906667 48.252,13.132 C48.252,12.656 48.1913333,12.2173333 48.07,11.816 C47.9486667,11.4146667 47.769,11.0693333 47.531,10.78 C47.293,10.4906667 46.9966667,10.2666667 46.642,10.108 C46.2873333,9.94933333 45.8766667,9.87 45.41,9.87 C45.0086667,9.87 44.6166667,9.954 44.234,10.122 C43.8513333,10.29 43.513,10.528 43.219,10.836 C42.925,11.144 42.6893333,11.522 42.512,11.97 C42.3346667,12.418 42.246,12.922 42.246,13.482 C42.246,14.0513333 42.3323333,14.5576667 42.505,15.001 C42.6776667,15.4443333 42.918,15.82 43.226,16.128 C43.534,16.436 43.8933333,16.6716667 44.304,16.835 C44.7146667,16.9983333 45.158,17.08 45.634,17.08 Z M46.852,12.824 L43.8,12.824 C43.8746667,12.264 44.066,11.8393333 44.374,11.55 C44.682,11.2606667 45.0413333,11.116 45.452,11.116 C45.928,11.116 46.2803333,11.2676667 46.509,11.571 C46.7376667,11.8743333 46.852,12.292 46.852,12.824 L46.852,12.824 Z M52.2,17.08 C52.5733333,17.08 52.928,16.9913333 53.264,16.814 C53.6,16.6366667 53.894,16.422 54.146,16.17 L54.146,16.17 L54.202,16.17 L54.314,16.912 L55.644,16.912 L55.644,7.028 L54.034,7.028 L54.034,9.52 L54.09,10.626 C53.8193333,10.3926667 53.5486667,10.2083333 53.278,10.073 C53.0073333,9.93766667 52.676,9.87 52.284,9.87 C51.9106667,9.87 51.549,9.954 51.199,10.122 C50.849,10.29 50.5386667,10.528 50.268,10.836 C49.9973333,11.144 49.7803333,11.522 49.617,11.97 C49.4536667,12.418 49.372,12.922 49.372,13.482 C49.372,14.6206667 49.6263333,15.505 50.135,16.135 C50.6436667,16.765 51.332,17.08 52.2,17.08 Z M52.592,15.75 C52.088,15.75 51.703,15.5563333 51.437,15.169 C51.171,14.7816667 51.038,14.2146667 51.038,13.468 C51.038,12.74 51.192,12.18 51.5,11.788 C51.808,11.396 52.186,11.2 52.634,11.2 C52.8673333,11.2 53.0983333,11.242 53.327,11.326 C53.5556667,11.41 53.7913333,11.5593333 54.034,11.774 L54.034,11.774 L54.034,14.98 C53.586,15.4933333 53.1053333,15.75 52.592,15.75 Z M63.47,16.912 L64.254,13.72 C64.3286667,13.3933333 64.3986667,13.0666667 64.464,12.74 C64.5293333,12.4133333 64.5946667,12.068 64.66,11.704 L64.66,11.704 L64.716,11.704 C64.7906667,12.068 64.8606667,12.411 64.926,12.733 C64.9913333,13.055 65.0613333,13.3793333 65.136,13.706 L65.136,13.706 L65.934,16.912 L67.852,16.912 L69.602,10.038 L68.09,10.038 L67.264,13.608 C67.1986667,13.9346667 67.138,14.2613333 67.082,14.588 C67.026,14.9146667 66.9653333,15.246 66.9,15.582 L66.9,15.582 L66.844,15.582 C66.7693333,15.246 66.6946667,14.9146667 66.62,14.588 C66.5453333,14.2613333 66.466,13.9346667 66.382,13.608 L66.382,13.608 L65.472,10.038 L64.002,10.038 L63.106,13.608 C63.022,13.9346667 62.945,14.2613333 62.875,14.588 C62.805,14.9146667 62.7373333,15.246 62.672,15.582 L62.672,15.582 L62.616,15.582 C62.5506667,15.246 62.4923333,14.9146667 62.441,14.588 C62.3896667,14.2613333 62.3266667,13.9346667 62.252,13.608 L62.252,13.608 L61.426,10.038 L59.802,10.038 L61.622,16.912 L63.47,16.912 Z M71.772,8.834 C72.0613333,8.834 72.2993333,8.75 72.486,8.582 C72.6726667,8.414 72.766,8.19466667 72.766,7.924 C72.766,7.65333333 72.6726667,7.43166667 72.486,7.259 C72.2993333,7.08633333 72.0613333,7 71.772,7 C71.4826667,7 71.2446667,7.08633333 71.058,7.259 C70.8713333,7.43166667 70.778,7.65333333 70.778,7.924 C70.778,8.19466667 70.8713333,8.414 71.058,8.582 C71.2446667,8.75 71.4826667,8.834 71.772,8.834 Z M72.57,16.912 L72.57,10.038 L70.96,10.038 L70.96,16.912 L72.57,16.912 Z M77.05,17.08 C77.3206667,17.08 77.575,17.0543333 77.813,17.003 C78.051,16.9516667 78.2633333,16.8933333 78.45,16.828 L78.45,16.828 L78.17,15.638 C78.0673333,15.6846667 77.953,15.722 77.827,15.75 C77.701,15.778 77.5773333,15.792 77.456,15.792 C76.812,15.792 76.49,15.3906667 76.49,14.588 L76.49,14.588 L76.49,11.312 L78.24,11.312 L78.24,10.038 L76.49,10.038 L76.49,8.162 L75.146,8.162 L74.95,10.038 L73.886,10.108 L73.886,11.312 L74.866,11.312 L74.866,14.588 C74.866,14.9613333 74.9056667,15.2996667 74.985,15.603 C75.0643333,15.9063333 75.1903333,16.1676667 75.363,16.387 C75.5356667,16.6063333 75.7596667,16.7766667 76.035,16.898 C76.3103333,17.0193333 76.6486667,17.08 77.05,17.08 Z M81.292,16.912 L81.292,12.11 C81.5813333,11.83 81.8403333,11.6176667 82.069,11.473 C82.2976667,11.3283333 82.5613333,11.256 82.86,11.256 C83.2426667,11.256 83.518,11.3726667 83.686,11.606 C83.854,11.8393333 83.938,12.2406667 83.938,12.81 L83.938,12.81 L83.938,16.912 L85.548,16.912 L85.548,12.6 C85.548,11.7226667 85.38,11.0483333 85.044,10.577 C84.708,10.1056667 84.1713333,9.87 83.434,9.87 C82.958,9.87 82.545,9.975 82.195,10.185 C81.845,10.395 81.5253333,10.6353333 81.236,10.906 L81.236,10.906 L81.292,9.576 L81.292,7.028 L79.682,7.028 L79.682,16.912 L81.292,16.912 Z M91.904,16.912 L91.904,12.11 C92.1933333,11.83 92.4523333,11.6176667 92.681,11.473 C92.9096667,11.3283333 93.1733333,11.256 93.472,11.256 C93.8546667,11.256 94.13,11.3726667 94.298,11.606 C94.466,11.8393333 94.55,12.2406667 94.55,12.81 L94.55,12.81 L94.55,16.912 L96.16,16.912 L96.16,12.6 C96.16,11.7226667 95.992,11.0483333 95.656,10.577 C95.32,10.1056667 94.7833333,9.87 94.046,9.87 C93.57,9.87 93.1523333,9.97733333 92.793,10.192 C92.4336667,10.4066667 92.1,10.6633333 91.792,10.962 L91.792,10.962 L91.736,10.962 L91.624,10.038 L90.294,10.038 L90.294,16.912 L91.904,16.912 Z M101.074,17.08 C101.512667,17.08 101.932667,17.01 102.334,16.87 C102.735333,16.73 103.099333,16.5526667 103.426,16.338 L103.426,16.338 L102.88,15.33 C102.628,15.4886667 102.373667,15.6123333 102.117,15.701 C101.860333,15.7896667 101.582667,15.834 101.284,15.834 C100.724,15.834 100.264333,15.6683333 99.905,15.337 C99.5456667,15.0056667 99.3286667,14.532 99.254,13.916 L99.254,13.916 L103.622,13.916 C103.640667,13.832 103.657,13.72 103.671,13.58 C103.685,13.44 103.692,13.2906667 103.692,13.132 C103.692,12.656 103.631333,12.2173333 103.51,11.816 C103.388667,11.4146667 103.209,11.0693333 102.971,10.78 C102.733,10.4906667 102.436667,10.2666667 102.082,10.108 C101.727333,9.94933333 101.316667,9.87 100.85,9.87 C100.448667,9.87 100.056667,9.954 99.674,10.122 C99.2913333,10.29 98.953,10.528 98.659,10.836 C98.365,11.144 98.1293333,11.522 97.952,11.97 C97.7746667,12.418 97.686,12.922 97.686,13.482 C97.686,14.0513333 97.7723333,14.5576667 97.945,15.001 C98.1176667,15.4443333 98.358,15.82 98.666,16.128 C98.974,16.436 99.3333333,16.6716667 99.744,16.835 C100.154667,16.9983333 100.598,17.08 101.074,17.08 Z M102.292,12.824 L99.24,12.824 C99.3146667,12.264 99.506,11.8393333 99.814,11.55 C100.122,11.2606667 100.481333,11.116 100.892,11.116 C101.368,11.116 101.720333,11.2676667 101.949,11.571 C102.177667,11.8743333 102.292,12.292 102.292,12.824 L102.292,12.824 Z M108.214,16.912 L108.998,13.72 C109.072667,13.3933333 109.142667,13.0666667 109.208,12.74 C109.273333,12.4133333 109.338667,12.068 109.404,11.704 L109.404,11.704 L109.46,11.704 C109.534667,12.068 109.604667,12.411 109.67,12.733 C109.735333,13.055 109.805333,13.3793333 109.88,13.706 L109.88,13.706 L110.678,16.912 L112.596,16.912 L114.346,10.038 L112.834,10.038 L112.008,13.608 C111.942667,13.9346667 111.882,14.2613333 111.826,14.588 C111.77,14.9146667 111.709333,15.246 111.644,15.582 L111.644,15.582 L111.588,15.582 C111.513333,15.246 111.438667,14.9146667 111.364,14.588 C111.289333,14.2613333 111.21,13.9346667 111.126,13.608 L111.126,13.608 L110.216,10.038 L108.746,10.038 L107.85,13.608 C107.766,13.9346667 107.689,14.2613333 107.619,14.588 C107.549,14.9146667 107.481333,15.246 107.416,15.582 L107.416,15.582 L107.36,15.582 C107.294667,15.246 107.236333,14.9146667 107.185,14.588 C107.133667,14.2613333 107.070667,13.9346667 106.996,13.608 L106.996,13.608 L106.17,10.038 L104.546,10.038 L106.366,16.912 L108.214,16.912 Z M120.912,17.08 C121.285333,17.08 121.64,16.9913333 121.976,16.814 C122.312,16.6366667 122.606,16.422 122.858,16.17 L122.858,16.17 L122.914,16.17 L123.026,16.912 L124.356,16.912 L124.356,7.028 L122.746,7.028 L122.746,9.52 L122.802,10.626 C122.531333,10.3926667 122.260667,10.2083333 121.99,10.073 C121.719333,9.93766667 121.388,9.87 120.996,9.87 C120.622667,9.87 120.261,9.954 119.911,10.122 C119.561,10.29 119.250667,10.528 118.98,10.836 C118.709333,11.144 118.492333,11.522 118.329,11.97 C118.165667,12.418 118.084,12.922 118.084,13.482 C118.084,14.6206667 118.338333,15.505 118.847,16.135 C119.355667,16.765 120.044,17.08 120.912,17.08 Z M121.304,15.75 C120.8,15.75 120.415,15.5563333 120.149,15.169 C119.883,14.7816667 119.75,14.2146667 119.75,13.468 C119.75,12.74 119.904,12.18 120.212,11.788 C120.52,11.396 120.898,11.2 121.346,11.2 C121.579333,11.2 121.810333,11.242 122.039,11.326 C122.267667,11.41 122.503333,11.5593333 122.746,11.774 L122.746,11.774 L122.746,14.98 C122.298,15.4933333 121.817333,15.75 121.304,15.75 Z M128.066,17.08 C128.476667,17.08 128.857,16.9913333 129.207,16.814 C129.557,16.6366667 129.886,16.4173333 130.194,16.156 L130.194,16.156 L130.25,16.156 L130.362,16.912 L131.692,16.912 L131.692,12.838 C131.692,11.8766667 131.479667,11.1416667 131.055,10.633 C130.630333,10.1243333 129.988667,9.87 129.13,9.87 C128.579333,9.87 128.066,9.95866667 127.59,10.136 C127.114,10.3133333 126.684667,10.5233333 126.302,10.766 L126.302,10.766 L126.89,11.844 C127.198,11.6573333 127.513,11.4986667 127.835,11.368 C128.157,11.2373333 128.486,11.172 128.822,11.172 C129.055333,11.172 129.251333,11.207 129.41,11.277 C129.568667,11.347 129.697,11.445 129.795,11.571 C129.893,11.697 129.963,11.8416667 130.005,12.005 C130.047,12.1683333 130.072667,12.3386667 130.082,12.516 C129.372667,12.5906667 128.763667,12.698 128.255,12.838 C127.746333,12.978 127.326333,13.1506667 126.995,13.356 C126.663667,13.5613333 126.421,13.8063333 126.267,14.091 C126.113,14.3756667 126.036,14.7 126.036,15.064 C126.036,15.6706667 126.222667,16.1583333 126.596,16.527 C126.969333,16.8956667 127.459333,17.08 128.066,17.08 Z M128.584,15.82 C128.294667,15.82 128.056667,15.75 127.87,15.61 C127.683333,15.47 127.59,15.246 127.59,14.938 C127.59,14.77 127.632,14.6113333 127.716,14.462 C127.8,14.3126667 127.94,14.1796667 128.136,14.063 C128.332,13.9463333 128.588667,13.8413333 128.906,13.748 C129.223333,13.6546667 129.615333,13.58 130.082,13.524 L130.082,13.524 L130.082,15.064 C129.820667,15.3066667 129.575667,15.4933333 129.347,15.624 C129.118333,15.7546667 128.864,15.82 128.584,15.82 Z M135.822,17.08 C136.092667,17.08 136.347,17.0543333 136.585,17.003 C136.823,16.9516667 137.035333,16.8933333 137.222,16.828 L137.222,16.828 L136.942,15.638 C136.839333,15.6846667 136.725,15.722 136.599,15.75 C136.473,15.778 136.349333,15.792 136.228,15.792 C135.584,15.792 135.262,15.3906667 135.262,14.588 L135.262,14.588 L135.262,11.312 L137.012,11.312 L137.012,10.038 L135.262,10.038 L135.262,8.162 L133.918,8.162 L133.722,10.038 L132.658,10.108 L132.658,11.312 L133.638,11.312 L133.638,14.588 C133.638,14.9613333 133.677667,15.2996667 133.757,15.603 C133.836333,15.9063333 133.962333,16.1676667 134.135,16.387 C134.307667,16.6063333 134.531667,16.7766667 134.807,16.898 C135.082333,17.0193333 135.420667,17.08 135.822,17.08 Z M139.826,17.08 C140.236667,17.08 140.617,16.9913333 140.967,16.814 C141.317,16.6366667 141.646,16.4173333 141.954,16.156 L141.954,16.156 L142.01,16.156 L142.122,16.912 L143.452,16.912 L143.452,12.838 C143.452,11.8766667 143.239667,11.1416667 142.815,10.633 C142.390333,10.1243333 141.748667,9.87 140.89,9.87 C140.339333,9.87 139.826,9.95866667 139.35,10.136 C138.874,10.3133333 138.444667,10.5233333 138.062,10.766 L138.062,10.766 L138.65,11.844 C138.958,11.6573333 139.273,11.4986667 139.595,11.368 C139.917,11.2373333 140.246,11.172 140.582,11.172 C140.815333,11.172 141.011333,11.207 141.17,11.277 C141.328667,11.347 141.457,11.445 141.555,11.571 C141.653,11.697 141.723,11.8416667 141.765,12.005 C141.807,12.1683333 141.832667,12.3386667 141.842,12.516 C141.132667,12.5906667 140.523667,12.698 140.015,12.838 C139.506333,12.978 139.086333,13.1506667 138.755,13.356 C138.423667,13.5613333 138.181,13.8063333 138.027,14.091 C137.873,14.3756667 137.796,14.7 137.796,15.064 C137.796,15.6706667 137.982667,16.1583333 138.356,16.527 C138.729333,16.8956667 139.219333,17.08 139.826,17.08 Z M140.344,15.82 C140.054667,15.82 139.816667,15.75 139.63,15.61 C139.443333,15.47 139.35,15.246 139.35,14.938 C139.35,14.77 139.392,14.6113333 139.476,14.462 C139.56,14.3126667 139.7,14.1796667 139.896,14.063 C140.092,13.9463333 140.348667,13.8413333 140.666,13.748 C140.983333,13.6546667 141.375333,13.58 141.842,13.524 L141.842,13.524 L141.842,15.064 C141.580667,15.3066667 141.335667,15.4933333 141.107,15.624 C140.878333,15.7546667 140.624,15.82 140.344,15.82 Z M147.106,13.902 L147.33,9.128 L147.386,7.532 L145.762,7.532 L145.804,9.128 L146.028,13.902 L147.106,13.902 Z M146.574,17.08 C146.872667,17.08 147.12,16.9773333 147.316,16.772 C147.512,16.5666667 147.61,16.3053333 147.61,15.988 C147.61,15.6706667 147.512,15.4093333 147.316,15.204 C147.12,14.9986667 146.872667,14.896 146.574,14.896 C146.275333,14.896 146.025667,14.9986667 145.825,15.204 C145.624333,15.4093333 145.524,15.6706667 145.524,15.988 C145.524,16.3053333 145.624333,16.5666667 145.825,16.772 C146.025667,16.9773333 146.275333,17.08 146.574,17.08 Z" id="Updatedwithnewdata!" fill="#FFFFFF" fill-rule="nonzero"></path>
                </g>
            </g>
        </g>
    </g>
</svg>