<?xml version="1.0" encoding="UTF-8"?>
<svg width="658px" height="95px" viewBox="0 0 658 95" version="1.1" xmlns="http://www.w3.org/2000/svg" xmlns:xlink="http://www.w3.org/1999/xlink">
    <title>01. tablet - govt total</title>
    <g id="SVG" stroke="none" stroke-width="1" fill="none" fill-rule="evenodd">
        <g id="Viz-3---Tablet-Outline" transform="translate(-70.000000, -195.000000)">
            <g id="01.-tablet---govt-total" transform="translate(70.000000, 195.000000)">
                <path d="M4.718,73.168 C5.31533333,73.168 5.86133333,73.0583333 6.356,72.839 C6.85066667,72.6196667 7.27766667,72.3023333 7.637,71.887 C7.99633333,71.4716667 8.274,70.97 8.47,70.382 C8.666,69.794 8.764,69.1266667 8.764,68.38 C8.764,67.6426667 8.666,66.9823333 8.47,66.399 C8.274,65.8156667 7.99633333,65.3233333 7.637,64.922 C7.27766667,64.5206667 6.85066667,64.2126667 6.356,63.998 C5.86133333,63.7833333 5.31533333,63.676 4.718,63.676 C4.12066667,63.676 3.57466667,63.7833333 3.08,63.998 C2.58533333,64.2126667 2.16066667,64.5206667 1.806,64.922 C1.45133333,65.3233333 1.176,65.8156667 0.98,66.399 C0.784,66.9823333 0.686,67.6426667 0.686,68.38 C0.686,69.1266667 0.784,69.794 0.98,70.382 C1.176,70.97 1.45133333,71.4716667 1.806,71.887 C2.16066667,72.3023333 2.58533333,72.6196667 3.08,72.839 C3.57466667,73.0583333 4.12066667,73.168 4.718,73.168 Z M4.718,71.754 C4.354,71.754 4.02733333,71.6746667 3.738,71.516 C3.44866667,71.3573333 3.20133333,71.131 2.996,70.837 C2.79066667,70.543 2.632,70.1883333 2.52,69.773 C2.408,69.3576667 2.352,68.8933333 2.352,68.38 C2.352,67.3533333 2.56433333,66.5483333 2.989,65.965 C3.41366667,65.3816667 3.99,65.09 4.718,65.09 C5.446,65.09 6.02233333,65.3816667 6.447,65.965 C6.87166667,66.5483333 7.084,67.3533333 7.084,68.38 C7.084,68.8933333 7.028,69.3576667 6.916,69.773 C6.804,70.1883333 6.64533333,70.543 6.44,70.837 C6.23466667,71.131 5.98733333,71.3573333 5.698,71.516 C5.40866667,71.6746667 5.082,71.754 4.718,71.754 Z M12.502,73.168 C12.978,73.168 13.391,73.0606667 13.741,72.846 C14.091,72.6313333 14.4153333,72.3466667 14.714,71.992 L14.714,71.992 L14.756,71.992 L14.882,73 L16.198,73 L16.198,66.126 L14.588,66.126 L14.588,70.83 C14.3266667,71.166 14.0816667,71.4086667 13.853,71.558 C13.6243333,71.7073333 13.3606667,71.782 13.062,71.782 C12.6886667,71.782 12.418,71.6653333 12.25,71.432 C12.082,71.1986667 11.998,70.7973333 11.998,70.228 L11.998,70.228 L11.998,66.126 L10.388,66.126 L10.388,70.438 C10.388,71.3153333 10.556,71.9896667 10.892,72.461 C11.228,72.9323333 11.7646667,73.168 12.502,73.168 Z M20.664,73.168 C20.9346667,73.168 21.189,73.1423333 21.427,73.091 C21.665,73.0396667 21.8773333,72.9813333 22.064,72.916 L22.064,72.916 L21.784,71.726 C21.6813333,71.7726667 21.567,71.81 21.441,71.838 C21.315,71.866 21.1913333,71.88 21.07,71.88 C20.426,71.88 20.104,71.4786667 20.104,70.676 L20.104,70.676 L20.104,67.4 L21.854,67.4 L21.854,66.126 L20.104,66.126 L20.104,64.25 L18.76,64.25 L18.564,66.126 L17.5,66.196 L17.5,67.4 L18.48,67.4 L18.48,70.676 C18.48,71.0493333 18.5196667,71.3876667 18.599,71.691 C18.6783333,71.9943333 18.8043333,72.2556667 18.977,72.475 C19.1496667,72.6943333 19.3736667,72.8646667 19.649,72.986 C19.9243333,73.1073333 20.2626667,73.168 20.664,73.168 Z M24.864,73.168 C25.2186667,73.168 25.5033333,73.1213333 25.718,73.028 L25.718,73.028 L25.508,71.824 C25.4426667,71.8426667 25.3936667,71.852 25.361,71.852 L25.361,71.852 L25.256,71.852 C25.172,71.852 25.0926667,71.8123333 25.018,71.733 C24.9433333,71.6536667 24.906,71.516 24.906,71.32 L24.906,71.32 L24.906,63.116 L23.296,63.116 L23.296,71.236 C23.296,71.8333333 23.4126667,72.3046667 23.646,72.65 C23.8793333,72.9953333 24.2853333,73.168 24.864,73.168 Z M28.756,73.168 C29.1666667,73.168 29.547,73.0793333 29.897,72.902 C30.247,72.7246667 30.576,72.5053333 30.884,72.244 L30.884,72.244 L30.94,72.244 L31.052,73 L32.382,73 L32.382,68.926 C32.382,67.9646667 32.1696667,67.2296667 31.745,66.721 C31.3203333,66.2123333 30.6786667,65.958 29.82,65.958 C29.2693333,65.958 28.756,66.0466667 28.28,66.224 C27.804,66.4013333 27.3746667,66.6113333 26.992,66.854 L26.992,66.854 L27.58,67.932 C27.888,67.7453333 28.203,67.5866667 28.525,67.456 C28.847,67.3253333 29.176,67.26 29.512,67.26 C29.7453333,67.26 29.9413333,67.295 30.1,67.365 C30.2586667,67.435 30.387,67.533 30.485,67.659 C30.583,67.785 30.653,67.9296667 30.695,68.093 C30.737,68.2563333 30.7626667,68.4266667 30.772,68.604 C30.0626667,68.6786667 29.4536667,68.786 28.945,68.926 C28.4363333,69.066 28.0163333,69.2386667 27.685,69.444 C27.3536667,69.6493333 27.111,69.8943333 26.957,70.179 C26.803,70.4636667 26.726,70.788 26.726,71.152 C26.726,71.7586667 26.9126667,72.2463333 27.286,72.615 C27.6593333,72.9836667 28.1493333,73.168 28.756,73.168 Z M29.274,71.908 C28.9846667,71.908 28.7466667,71.838 28.56,71.698 C28.3733333,71.558 28.28,71.334 28.28,71.026 C28.28,70.858 28.322,70.6993333 28.406,70.55 C28.49,70.4006667 28.63,70.2676667 28.826,70.151 C29.022,70.0343333 29.2786667,69.9293333 29.596,69.836 C29.9133333,69.7426667 30.3053333,69.668 30.772,69.612 L30.772,69.612 L30.772,71.152 C30.5106667,71.3946667 30.2656667,71.5813333 30.037,71.712 C29.8083333,71.8426667 29.554,71.908 29.274,71.908 Z M34.776,75.828 C35.1493333,75.828 35.4783333,75.7696667 35.763,75.653 C36.0476667,75.5363333 36.2996667,75.3683333 36.519,75.149 C36.7383333,74.9296667 36.932,74.666 37.1,74.358 C37.268,74.05 37.422,73.7 37.562,73.308 L37.562,73.308 L40.054,66.126 L38.5,66.126 L37.464,69.5 C37.38,69.808 37.2936667,70.1276667 37.205,70.459 C37.1163333,70.7903333 37.03,71.1146667 36.946,71.432 L36.946,71.432 L36.89,71.432 C36.7873333,71.1053333 36.687,70.7763333 36.589,70.445 C36.491,70.1136667 36.3906667,69.7986667 36.288,69.5 L36.288,69.5 L35.098,66.126 L33.46,66.126 L36.162,72.916 L36.036,73.35 C35.924,73.6953333 35.7583333,73.9776667 35.539,74.197 C35.3196667,74.4163333 35.028,74.526 34.664,74.526 C34.58,74.526 34.4936667,74.5143333 34.405,74.491 C34.3163333,74.4676667 34.2393333,74.4466667 34.174,74.428 L34.174,74.428 L33.88,75.688 C34.0106667,75.7346667 34.146,75.7696667 34.286,75.793 C34.426,75.8163333 34.5893333,75.828 34.776,75.828 Z M43.162,73.168 C43.5913333,73.168 43.974,73.112 44.31,73 C44.646,72.888 44.926,72.7363333 45.15,72.545 C45.374,72.3536667 45.5443333,72.1296667 45.661,71.873 C45.7776667,71.6163333 45.836,71.3386667 45.836,71.04 C45.836,70.7226667 45.7776667,70.4496667 45.661,70.221 C45.5443333,69.9923333 45.3903333,69.7986667 45.199,69.64 C45.0076667,69.4813333 44.7953333,69.3483333 44.562,69.241 C44.3286667,69.1336667 44.0953333,69.038 43.862,68.954 C43.6753333,68.8886667 43.4956667,68.8233333 43.323,68.758 C43.1503333,68.6926667 42.9986667,68.6226667 42.868,68.548 C42.7373333,68.4733333 42.6323333,68.387 42.553,68.289 C42.4736667,68.191 42.434,68.072 42.434,67.932 C42.434,67.7173333 42.5156667,67.5376667 42.679,67.393 C42.8423333,67.2483333 43.0966667,67.176 43.442,67.176 C43.7126667,67.176 43.9716667,67.2296667 44.219,67.337 C44.4663333,67.4443333 44.7113333,67.5866667 44.954,67.764 L44.954,67.764 L45.696,66.784 C45.416,66.5693333 45.0846667,66.378 44.702,66.21 C44.3193333,66.042 43.89,65.958 43.414,65.958 C42.6393333,65.958 42.028,66.1493333 41.58,66.532 C41.132,66.9146667 40.908,67.4093333 40.908,68.016 C40.908,68.3053333 40.9663333,68.555 41.083,68.765 C41.1996667,68.975 41.349,69.1593333 41.531,69.318 C41.713,69.4766667 41.9206667,69.612 42.154,69.724 C42.3873333,69.836 42.616,69.934 42.84,70.018 C43.0173333,70.0926667 43.1946667,70.165 43.372,70.235 C43.5493333,70.305 43.708,70.382 43.848,70.466 C43.988,70.55 44.1,70.6456667 44.184,70.753 C44.268,70.8603333 44.31,70.984 44.31,71.124 C44.31,71.3666667 44.2213333,71.565 44.044,71.719 C43.8666667,71.873 43.5913333,71.95 43.218,71.95 C42.8633333,71.95 42.5343333,71.8823333 42.231,71.747 C41.9276667,71.6116667 41.622,71.4226667 41.314,71.18 L41.314,71.18 L40.558,72.216 C40.894,72.4866667 41.293,72.713 41.755,72.895 C42.217,73.077 42.686,73.168 43.162,73.168 Z" id="Outlays" fill="#666666" fill-rule="nonzero"></path>
                <path d="M3.948,92.54 L3.948,91.126 C4.62,91.0326667 5.14966667,90.7713333 5.537,90.342 C5.92433333,89.9126667 6.118,89.362 6.118,88.69 C6.118,88.186 6.02233333,87.773 5.831,87.451 C5.63966667,87.129 5.39933333,86.8583333 5.11,86.639 C4.82066667,86.4196667 4.50566667,86.233 4.165,86.079 C3.82433333,85.925 3.50933333,85.7663333 3.22,85.603 C2.93066667,85.4396667 2.69033333,85.2506667 2.499,85.036 C2.30766667,84.8213333 2.212,84.546 2.212,84.21 C2.212,83.7993333 2.338,83.4726667 2.59,83.23 C2.842,82.9873333 3.18266667,82.866 3.612,82.866 C3.99466667,82.866 4.30966667,82.936 4.557,83.076 C4.80433333,83.216 5.05866667,83.412 5.32,83.664 L5.32,83.664 L5.936,82.978 C5.684,82.7073333 5.40166667,82.474 5.089,82.278 C4.77633333,82.082 4.396,81.9606667 3.948,81.914 L3.948,81.914 L3.948,80.528 L3.108,80.528 L3.108,81.942 C2.492,82.0353333 1.99966667,82.2896667 1.631,82.705 C1.26233333,83.1203333 1.078,83.6406667 1.078,84.266 C1.078,84.7233333 1.17366667,85.099 1.365,85.393 C1.55633333,85.687 1.79666667,85.9366667 2.086,86.142 C2.37533333,86.3473333 2.69033333,86.5293333 3.031,86.688 C3.37166667,86.8466667 3.68666667,87.017 3.976,87.199 C4.26533333,87.381 4.50566667,87.5956667 4.697,87.843 C4.88833333,88.0903333 4.984,88.4006667 4.984,88.774 C4.984,89.2126667 4.85566667,89.5626667 4.599,89.824 C4.34233333,90.0853333 3.95266667,90.216 3.43,90.216 C3.00066667,90.216 2.60633333,90.125 2.247,89.943 C1.88766667,89.761 1.55866667,89.5393333 1.26,89.278 L1.26,89.278 L0.728,90.076 C1.02666667,90.3466667 1.386,90.5823333 1.806,90.783 C2.226,90.9836667 2.66,91.1073333 3.108,91.154 L3.108,91.154 L3.108,92.54 L3.948,92.54 Z M13.104,91 L13.104,90.048 L11.256,90.048 L11.256,82.068 L10.374,82.068 C10.1313333,82.2173333 9.85833333,82.3456667 9.555,82.453 C9.25166667,82.5603333 8.89466667,82.6513333 8.484,82.726 L8.484,82.726 L8.484,83.468 L10.108,83.468 L10.108,90.048 L8.064,90.048 L8.064,91 L13.104,91 Z M15.666,91.168 C15.89,91.168 16.0836667,91.0863333 16.247,90.923 C16.4103333,90.7596667 16.492,90.552 16.492,90.3 C16.492,90.0293333 16.4103333,89.8123333 16.247,89.649 C16.0836667,89.4856667 15.89,89.404 15.666,89.404 C15.4326667,89.404 15.2343333,89.4856667 15.071,89.649 C14.9076667,89.8123333 14.826,90.0293333 14.826,90.3 C14.826,90.552 14.9076667,90.7596667 15.071,90.923 C15.2343333,91.0863333 15.4326667,91.168 15.666,91.168 Z M20.678,91.168 C21.07,91.168 21.4456667,91.1003333 21.805,90.965 C22.1643333,90.8296667 22.484,90.6336667 22.764,90.377 C23.044,90.1203333 23.268,89.8053333 23.436,89.432 C23.604,89.0586667 23.688,88.6293333 23.688,88.144 C23.688,87.6586667 23.6156667,87.241 23.471,86.891 C23.3263333,86.541 23.128,86.2516667 22.876,86.023 C22.624,85.7943333 22.33,85.624 21.994,85.512 C21.658,85.4 21.2986667,85.344 20.916,85.344 C20.6453333,85.344 20.4026667,85.3766667 20.188,85.442 C19.9733333,85.5073333 19.7586667,85.596 19.544,85.708 L19.544,85.708 L19.782,83.062 L23.24,83.062 L23.24,82.068 L18.774,82.068 L18.48,86.366 L19.096,86.758 C19.3666667,86.5806667 19.6116667,86.4453333 19.831,86.352 C20.0503333,86.2586667 20.314,86.212 20.622,86.212 C21.2006667,86.212 21.6626667,86.3846667 22.008,86.73 C22.3533333,87.0753333 22.526,87.556 22.526,88.172 C22.526,88.48 22.4746667,88.76 22.372,89.012 C22.2693333,89.264 22.1293333,89.4786667 21.952,89.656 C21.7746667,89.8333333 21.567,89.971 21.329,90.069 C21.091,90.167 20.8366667,90.216 20.566,90.216 C20.0433333,90.216 19.6023333,90.1133333 19.243,89.908 C18.8836667,89.7026667 18.5733333,89.4646667 18.312,89.194 L18.312,89.194 L17.752,89.95 C17.9013333,90.1086667 18.0716667,90.2603333 18.263,90.405 C18.4543333,90.5496667 18.669,90.678 18.907,90.79 C19.145,90.902 19.411,90.993 19.705,91.063 C19.999,91.133 20.3233333,91.168 20.678,91.168 Z M27.636,91.168 C28.028,91.168 28.4036667,91.1003333 28.763,90.965 C29.1223333,90.8296667 29.442,90.6336667 29.722,90.377 C30.002,90.1203333 30.226,89.8053333 30.394,89.432 C30.562,89.0586667 30.646,88.6293333 30.646,88.144 C30.646,87.6586667 30.5736667,87.241 30.429,86.891 C30.2843333,86.541 30.086,86.2516667 29.834,86.023 C29.582,85.7943333 29.288,85.624 28.952,85.512 C28.616,85.4 28.2566667,85.344 27.874,85.344 C27.6033333,85.344 27.3606667,85.3766667 27.146,85.442 C26.9313333,85.5073333 26.7166667,85.596 26.502,85.708 L26.502,85.708 L26.74,83.062 L30.198,83.062 L30.198,82.068 L25.732,82.068 L25.438,86.366 L26.054,86.758 C26.3246667,86.5806667 26.5696667,86.4453333 26.789,86.352 C27.0083333,86.2586667 27.272,86.212 27.58,86.212 C28.1586667,86.212 28.6206667,86.3846667 28.966,86.73 C29.3113333,87.0753333 29.484,87.556 29.484,88.172 C29.484,88.48 29.4326667,88.76 29.33,89.012 C29.2273333,89.264 29.0873333,89.4786667 28.91,89.656 C28.7326667,89.8333333 28.525,89.971 28.287,90.069 C28.049,90.167 27.7946667,90.216 27.524,90.216 C27.0013333,90.216 26.5603333,90.1133333 26.201,89.908 C25.8416667,89.7026667 25.5313333,89.4646667 25.27,89.194 L25.27,89.194 L24.71,89.95 C24.8593333,90.1086667 25.0296667,90.2603333 25.221,90.405 C25.4123333,90.5496667 25.627,90.678 25.865,90.79 C26.103,90.902 26.369,90.993 26.663,91.063 C26.957,91.133 27.2813333,91.168 27.636,91.168 Z M35.658,91 L35.658,82.796 L38.43,82.796 L38.43,81.816 L31.71,81.816 L31.71,82.796 L34.482,82.796 L34.482,91 L35.658,91 Z" id="$1.55T" fill="#666666" fill-rule="nonzero"></path>
                <path d="M341.948,92.54 L341.948,91.126 C342.62,91.0326667 343.149667,90.7713333 343.537,90.342 C343.924333,89.9126667 344.118,89.362 344.118,88.69 C344.118,88.186 344.022333,87.773 343.831,87.451 C343.639667,87.129 343.399333,86.8583333 343.11,86.639 C342.820667,86.4196667 342.505667,86.233 342.165,86.079 C341.824333,85.925 341.509333,85.7663333 341.22,85.603 C340.930667,85.4396667 340.690333,85.2506667 340.499,85.036 C340.307667,84.8213333 340.212,84.546 340.212,84.21 C340.212,83.7993333 340.338,83.4726667 340.59,83.23 C340.842,82.9873333 341.182667,82.866 341.612,82.866 C341.994667,82.866 342.309667,82.936 342.557,83.076 C342.804333,83.216 343.058667,83.412 343.32,83.664 L343.32,83.664 L343.936,82.978 C343.684,82.7073333 343.401667,82.474 343.089,82.278 C342.776333,82.082 342.396,81.9606667 341.948,81.914 L341.948,81.914 L341.948,80.528 L341.108,80.528 L341.108,81.942 C340.492,82.0353333 339.999667,82.2896667 339.631,82.705 C339.262333,83.1203333 339.078,83.6406667 339.078,84.266 C339.078,84.7233333 339.173667,85.099 339.365,85.393 C339.556333,85.687 339.796667,85.9366667 340.086,86.142 C340.375333,86.3473333 340.690333,86.5293333 341.031,86.688 C341.371667,86.8466667 341.686667,87.017 341.976,87.199 C342.265333,87.381 342.505667,87.5956667 342.697,87.843 C342.888333,88.0903333 342.984,88.4006667 342.984,88.774 C342.984,89.2126667 342.855667,89.5626667 342.599,89.824 C342.342333,90.0853333 341.952667,90.216 341.43,90.216 C341.000667,90.216 340.606333,90.125 340.247,89.943 C339.887667,89.761 339.558667,89.5393333 339.26,89.278 L339.26,89.278 L338.728,90.076 C339.026667,90.3466667 339.386,90.5823333 339.806,90.783 C340.226,90.9836667 340.66,91.1073333 341.108,91.154 L341.108,91.154 L341.108,92.54 L341.948,92.54 Z M351.104,91 L351.104,90.048 L349.256,90.048 L349.256,82.068 L348.374,82.068 C348.131333,82.2173333 347.858333,82.3456667 347.555,82.453 C347.251667,82.5603333 346.894667,82.6513333 346.484,82.726 L346.484,82.726 L346.484,83.468 L348.108,83.468 L348.108,90.048 L346.064,90.048 L346.064,91 L351.104,91 Z M353.666,91.168 C353.89,91.168 354.083667,91.0863333 354.247,90.923 C354.410333,90.7596667 354.492,90.552 354.492,90.3 C354.492,90.0293333 354.410333,89.8123333 354.247,89.649 C354.083667,89.4856667 353.89,89.404 353.666,89.404 C353.432667,89.404 353.234333,89.4856667 353.071,89.649 C352.907667,89.8123333 352.826,90.0293333 352.826,90.3 C352.826,90.552 352.907667,90.7596667 353.071,90.923 C353.234333,91.0863333 353.432667,91.168 353.666,91.168 Z M359.154,91.168 C359.518,91.168 359.858667,91.098 360.176,90.958 C360.493333,90.818 360.773333,90.622 361.016,90.37 C361.258667,90.118 361.45,89.817 361.59,89.467 C361.73,89.117 361.8,88.7273333 361.8,88.298 C361.8,87.374 361.569,86.6833333 361.107,86.226 C360.645,85.7686667 360.026667,85.54 359.252,85.54 C358.888,85.54 358.519333,85.6403333 358.146,85.841 C357.772667,86.0416667 357.446,86.3146667 357.166,86.66 C357.175333,85.9506667 357.245333,85.3556667 357.376,84.875 C357.506667,84.3943333 357.679333,84.0046667 357.894,83.706 C358.108667,83.4073333 358.356,83.1926667 358.636,83.062 C358.916,82.9313333 359.21,82.866 359.518,82.866 C359.798,82.866 360.066333,82.929 360.323,83.055 C360.579667,83.181 360.801333,83.3513333 360.988,83.566 L360.988,83.566 L361.632,82.852 C361.38,82.5813333 361.079,82.355 360.729,82.173 C360.379,81.991 359.961333,81.9 359.476,81.9 C359.028,81.9 358.601,81.991 358.195,82.173 C357.789,82.355 357.427333,82.6443333 357.11,83.041 C356.792667,83.4376667 356.540667,83.951 356.354,84.581 C356.167333,85.211 356.074,85.974 356.074,86.87 C356.074,87.5886667 356.153333,88.2163333 356.312,88.753 C356.470667,89.2896667 356.687667,89.7376667 356.963,90.097 C357.238333,90.4563333 357.562667,90.7246667 357.936,90.902 C358.309333,91.0793333 358.715333,91.168 359.154,91.168 Z M359.154,90.258 C358.584667,90.258 358.134333,90.0316667 357.803,89.579 C357.471667,89.1263333 357.268667,88.4613333 357.194,87.584 C357.474,87.164 357.782,86.863 358.118,86.681 C358.454,86.499 358.766667,86.408 359.056,86.408 C359.616,86.408 360.031333,86.576 360.302,86.912 C360.572667,87.248 360.708,87.71 360.708,88.298 C360.708,88.5966667 360.668333,88.865 360.589,89.103 C360.509667,89.341 360.4,89.5463333 360.26,89.719 C360.12,89.8916667 359.956667,90.0246667 359.77,90.118 C359.583333,90.2113333 359.378,90.258 359.154,90.258 Z M365.86,91.168 C366.289333,91.168 366.681333,91.1073333 367.036,90.986 C367.390667,90.8646667 367.694,90.6966667 367.946,90.482 C368.198,90.2673333 368.394,90.0153333 368.534,89.726 C368.674,89.4366667 368.744,89.124 368.744,88.788 C368.744,88.4893333 368.699667,88.2233333 368.611,87.99 C368.522333,87.7566667 368.405667,87.549 368.261,87.367 C368.116333,87.185 367.950667,87.0216667 367.764,86.877 C367.577333,86.7323333 367.386,86.604 367.19,86.492 L367.19,86.492 L367.19,86.436 C367.33,86.3333333 367.472333,86.2073333 367.617,86.058 C367.761667,85.9086667 367.892333,85.7406667 368.009,85.554 C368.125667,85.3673333 368.223667,85.1666667 368.303,84.952 C368.382333,84.7373333 368.422,84.5133333 368.422,84.28 C368.422,83.9346667 368.363667,83.615 368.247,83.321 C368.130333,83.027 367.962333,82.775 367.743,82.565 C367.523667,82.355 367.26,82.1916667 366.952,82.075 C366.644,81.9583333 366.294,81.9 365.902,81.9 C365.538,81.9 365.202,81.956 364.894,82.068 C364.586,82.18 364.32,82.3363333 364.096,82.537 C363.872,82.7376667 363.694667,82.978 363.564,83.258 C363.433333,83.538 363.368,83.8506667 363.368,84.196 C363.368,84.672 363.494,85.0756667 363.746,85.407 C363.998,85.7383333 364.287333,86.0206667 364.614,86.254 L364.614,86.254 L364.614,86.31 C364.399333,86.422 364.191667,86.555 363.991,86.709 C363.790333,86.863 363.613,87.0403333 363.459,87.241 C363.305,87.4416667 363.179,87.6656667 363.081,87.913 C362.983,88.1603333 362.934,88.4286667 362.934,88.718 C362.934,89.0726667 363.008667,89.3993333 363.158,89.698 C363.307333,89.9966667 363.510333,90.2556667 363.767,90.475 C364.023667,90.6943333 364.331667,90.8646667 364.691,90.986 C365.050333,91.1073333 365.44,91.168 365.86,91.168 Z M366.49,86.128 C366.219333,86.0253333 365.960333,85.9156667 365.713,85.799 C365.465667,85.6823333 365.246333,85.5493333 365.055,85.4 C364.863667,85.2506667 364.712,85.0803333 364.6,84.889 C364.488,84.6976667 364.432,84.4666667 364.432,84.196 C364.432,83.7573333 364.567333,83.4073333 364.838,83.146 C365.108667,82.8846667 365.454,82.754 365.874,82.754 C366.368667,82.754 366.751333,82.9056667 367.022,83.209 C367.292667,83.5123333 367.428,83.888 367.428,84.336 C367.428,84.6626667 367.346333,84.9753333 367.183,85.274 C367.019667,85.5726667 366.788667,85.8573333 366.49,86.128 Z M365.888,90.314 C365.617333,90.314 365.365333,90.272 365.132,90.188 C364.898667,90.104 364.695667,89.985 364.523,89.831 C364.350333,89.677 364.215,89.4973333 364.117,89.292 C364.019,89.0866667 363.97,88.858 363.97,88.606 C363.97,88.1953333 364.089,87.829 364.327,87.507 C364.565,87.185 364.861333,86.9026667 365.216,86.66 C365.533333,86.7906667 365.839,86.919 366.133,87.045 C366.427,87.171 366.686,87.311 366.91,87.465 C367.134,87.619 367.311333,87.7986667 367.442,88.004 C367.572667,88.2093333 367.638,88.4566667 367.638,88.746 C367.638,89.2126667 367.477,89.5906667 367.155,89.88 C366.833,90.1693333 366.410667,90.314 365.888,90.314 Z M373.658,91 L373.658,82.796 L376.43,82.796 L376.43,81.816 L369.71,81.816 L369.71,82.796 L372.482,82.796 L372.482,91 L373.658,91 Z" id="$1.68T" fill="#666666" fill-rule="nonzero"></path>
                <path d="M529.948,92.54 L529.948,91.126 C530.62,91.0326667 531.149667,90.7713333 531.537,90.342 C531.924333,89.9126667 532.118,89.362 532.118,88.69 C532.118,88.186 532.022333,87.773 531.831,87.451 C531.639667,87.129 531.399333,86.8583333 531.11,86.639 C530.820667,86.4196667 530.505667,86.233 530.165,86.079 C529.824333,85.925 529.509333,85.7663333 529.22,85.603 C528.930667,85.4396667 528.690333,85.2506667 528.499,85.036 C528.307667,84.8213333 528.212,84.546 528.212,84.21 C528.212,83.7993333 528.338,83.4726667 528.59,83.23 C528.842,82.9873333 529.182667,82.866 529.612,82.866 C529.994667,82.866 530.309667,82.936 530.557,83.076 C530.804333,83.216 531.058667,83.412 531.32,83.664 L531.32,83.664 L531.936,82.978 C531.684,82.7073333 531.401667,82.474 531.089,82.278 C530.776333,82.082 530.396,81.9606667 529.948,81.914 L529.948,81.914 L529.948,80.528 L529.108,80.528 L529.108,81.942 C528.492,82.0353333 527.999667,82.2896667 527.631,82.705 C527.262333,83.1203333 527.078,83.6406667 527.078,84.266 C527.078,84.7233333 527.173667,85.099 527.365,85.393 C527.556333,85.687 527.796667,85.9366667 528.086,86.142 C528.375333,86.3473333 528.690333,86.5293333 529.031,86.688 C529.371667,86.8466667 529.686667,87.017 529.976,87.199 C530.265333,87.381 530.505667,87.5956667 530.697,87.843 C530.888333,88.0903333 530.984,88.4006667 530.984,88.774 C530.984,89.2126667 530.855667,89.5626667 530.599,89.824 C530.342333,90.0853333 529.952667,90.216 529.43,90.216 C529.000667,90.216 528.606333,90.125 528.247,89.943 C527.887667,89.761 527.558667,89.5393333 527.26,89.278 L527.26,89.278 L526.728,90.076 C527.026667,90.3466667 527.386,90.5823333 527.806,90.783 C528.226,90.9836667 528.66,91.1073333 529.108,91.154 L529.108,91.154 L529.108,92.54 L529.948,92.54 Z M535.828,91.168 C536.276,91.168 536.703,91.077 537.109,90.895 C537.515,90.713 537.876667,90.4236667 538.194,90.027 C538.511333,89.6303333 538.763333,89.117 538.95,88.487 C539.136667,87.857 539.23,87.094 539.23,86.198 C539.23,85.4793333 539.153,84.8516667 538.999,84.315 C538.845,83.7783333 538.630333,83.3303333 538.355,82.971 C538.079667,82.6116667 537.753,82.3433333 537.375,82.166 C536.997,81.9886667 536.588667,81.9 536.15,81.9 C535.795333,81.9 535.457,81.97 535.135,82.11 C534.813,82.25 534.533,82.446 534.295,82.698 C534.057,82.95 533.868,83.251 533.728,83.601 C533.588,83.951 533.518,84.3406667 533.518,84.77 C533.518,85.694 533.746667,86.3846667 534.204,86.842 C534.661333,87.2993333 535.277333,87.528 536.052,87.528 C536.425333,87.528 536.798667,87.4253333 537.172,87.22 C537.545333,87.0146667 537.872,86.7346667 538.152,86.38 C538.142667,87.0986667 538.072667,87.7006667 537.942,88.186 C537.811333,88.6713333 537.638667,89.0656667 537.424,89.369 C537.209333,89.6723333 536.962,89.8893333 536.682,90.02 C536.402,90.1506667 536.103333,90.216 535.786,90.216 C535.506,90.216 535.237667,90.1506667 534.981,90.02 C534.724333,89.8893333 534.502667,89.7166667 534.316,89.502 L534.316,89.502 L533.672,90.23 C533.914667,90.5006667 534.215667,90.7246667 534.575,90.902 C534.934333,91.0793333 535.352,91.168 535.828,91.168 Z M536.248,86.66 C535.688,86.66 535.272667,86.492 535.002,86.156 C534.731333,85.82 534.596,85.358 534.596,84.77 C534.596,84.4806667 534.635667,84.2146667 534.715,83.972 C534.794333,83.7293333 534.904,83.5216667 535.044,83.349 C535.184,83.1763333 535.349667,83.0433333 535.541,82.95 C535.732333,82.8566667 535.935333,82.81 536.15,82.81 C536.719333,82.81 537.172,83.034 537.508,83.482 C537.844,83.93 538.049333,84.5926667 538.124,85.47 C537.834667,85.89 537.524333,86.1933333 537.193,86.38 C536.861667,86.5666667 536.546667,86.66 536.248,86.66 Z M546.062,91 L546.062,90.048 L544.214,90.048 L544.214,82.068 L543.332,82.068 C543.089333,82.2173333 542.816333,82.3456667 542.513,82.453 C542.209667,82.5603333 541.852667,82.6513333 541.442,82.726 L541.442,82.726 L541.442,83.468 L543.066,83.468 L543.066,90.048 L541.022,90.048 L541.022,91 L546.062,91 Z M550.374,91.168 C550.803333,91.168 551.195333,91.1073333 551.55,90.986 C551.904667,90.8646667 552.208,90.6966667 552.46,90.482 C552.712,90.2673333 552.908,90.0153333 553.048,89.726 C553.188,89.4366667 553.258,89.124 553.258,88.788 C553.258,88.4893333 553.213667,88.2233333 553.125,87.99 C553.036333,87.7566667 552.919667,87.549 552.775,87.367 C552.630333,87.185 552.464667,87.0216667 552.278,86.877 C552.091333,86.7323333 551.9,86.604 551.704,86.492 L551.704,86.492 L551.704,86.436 C551.844,86.3333333 551.986333,86.2073333 552.131,86.058 C552.275667,85.9086667 552.406333,85.7406667 552.523,85.554 C552.639667,85.3673333 552.737667,85.1666667 552.817,84.952 C552.896333,84.7373333 552.936,84.5133333 552.936,84.28 C552.936,83.9346667 552.877667,83.615 552.761,83.321 C552.644333,83.027 552.476333,82.775 552.257,82.565 C552.037667,82.355 551.774,82.1916667 551.466,82.075 C551.158,81.9583333 550.808,81.9 550.416,81.9 C550.052,81.9 549.716,81.956 549.408,82.068 C549.1,82.18 548.834,82.3363333 548.61,82.537 C548.386,82.7376667 548.208667,82.978 548.078,83.258 C547.947333,83.538 547.882,83.8506667 547.882,84.196 C547.882,84.672 548.008,85.0756667 548.26,85.407 C548.512,85.7383333 548.801333,86.0206667 549.128,86.254 L549.128,86.254 L549.128,86.31 C548.913333,86.422 548.705667,86.555 548.505,86.709 C548.304333,86.863 548.127,87.0403333 547.973,87.241 C547.819,87.4416667 547.693,87.6656667 547.595,87.913 C547.497,88.1603333 547.448,88.4286667 547.448,88.718 C547.448,89.0726667 547.522667,89.3993333 547.672,89.698 C547.821333,89.9966667 548.024333,90.2556667 548.281,90.475 C548.537667,90.6943333 548.845667,90.8646667 549.205,90.986 C549.564333,91.1073333 549.954,91.168 550.374,91.168 Z M551.004,86.128 C550.733333,86.0253333 550.474333,85.9156667 550.227,85.799 C549.979667,85.6823333 549.760333,85.5493333 549.569,85.4 C549.377667,85.2506667 549.226,85.0803333 549.114,84.889 C549.002,84.6976667 548.946,84.4666667 548.946,84.196 C548.946,83.7573333 549.081333,83.4073333 549.352,83.146 C549.622667,82.8846667 549.968,82.754 550.388,82.754 C550.882667,82.754 551.265333,82.9056667 551.536,83.209 C551.806667,83.5123333 551.942,83.888 551.942,84.336 C551.942,84.6626667 551.860333,84.9753333 551.697,85.274 C551.533667,85.5726667 551.302667,85.8573333 551.004,86.128 Z M550.402,90.314 C550.131333,90.314 549.879333,90.272 549.646,90.188 C549.412667,90.104 549.209667,89.985 549.037,89.831 C548.864333,89.677 548.729,89.4973333 548.631,89.292 C548.533,89.0866667 548.484,88.858 548.484,88.606 C548.484,88.1953333 548.603,87.829 548.841,87.507 C549.079,87.185 549.375333,86.9026667 549.73,86.66 C550.047333,86.7906667 550.353,86.919 550.647,87.045 C550.941,87.171 551.2,87.311 551.424,87.465 C551.648,87.619 551.825333,87.7986667 551.956,88.004 C552.086667,88.2093333 552.152,88.4566667 552.152,88.746 C552.152,89.2126667 551.991,89.5906667 551.669,89.88 C551.347,90.1693333 550.924667,90.314 550.402,90.314 Z M558.018,91 C558.531333,91 559.002667,90.944 559.432,90.832 C559.861333,90.72 560.23,90.552 560.538,90.328 C560.846,90.104 561.084,89.824 561.252,89.488 C561.42,89.152 561.504,88.76 561.504,88.312 C561.504,87.6773333 561.331333,87.178 560.986,86.814 C560.640667,86.45 560.188,86.2166667 559.628,86.114 L559.628,86.114 L559.628,86.058 C560.066667,85.918 560.400333,85.6636667 560.629,85.295 C560.857667,84.9263333 560.972,84.5133333 560.972,84.056 C560.972,83.6546667 560.895,83.3116667 560.741,83.027 C560.587,82.7423333 560.372333,82.5113333 560.097,82.334 C559.821667,82.1566667 559.490333,82.026 559.103,81.942 C558.715667,81.858 558.288667,81.816 557.822,81.816 L557.822,81.816 L555.092,81.816 L555.092,91 L558.018,91 Z M557.612,85.722 L556.254,85.722 L556.254,82.74 L557.668,82.74 C558.386667,82.74 558.925667,82.852 559.285,83.076 C559.644333,83.3 559.824,83.678 559.824,84.21 C559.824,84.6766667 559.651333,85.0453333 559.306,85.316 C558.960667,85.5866667 558.396,85.722 557.612,85.722 L557.612,85.722 Z M557.85,90.076 L556.254,90.076 L556.254,86.618 L557.85,86.618 C558.662,86.618 559.282667,86.751 559.712,87.017 C560.141333,87.283 560.356,87.7006667 560.356,88.27 C560.356,88.886 560.136667,89.341 559.698,89.635 C559.259333,89.929 558.643333,90.076 557.85,90.076 L557.85,90.076 Z" id="$918B" fill="#666666" fill-rule="nonzero"></path>
                <path d="M342.718,73.168 C343.315333,73.168 343.861333,73.0583333 344.356,72.839 C344.850667,72.6196667 345.277667,72.3023333 345.637,71.887 C345.996333,71.4716667 346.274,70.97 346.47,70.382 C346.666,69.794 346.764,69.1266667 346.764,68.38 C346.764,67.6426667 346.666,66.9823333 346.47,66.399 C346.274,65.8156667 345.996333,65.3233333 345.637,64.922 C345.277667,64.5206667 344.850667,64.2126667 344.356,63.998 C343.861333,63.7833333 343.315333,63.676 342.718,63.676 C342.120667,63.676 341.574667,63.7833333 341.08,63.998 C340.585333,64.2126667 340.160667,64.5206667 339.806,64.922 C339.451333,65.3233333 339.176,65.8156667 338.98,66.399 C338.784,66.9823333 338.686,67.6426667 338.686,68.38 C338.686,69.1266667 338.784,69.794 338.98,70.382 C339.176,70.97 339.451333,71.4716667 339.806,71.887 C340.160667,72.3023333 340.585333,72.6196667 341.08,72.839 C341.574667,73.0583333 342.120667,73.168 342.718,73.168 Z M342.718,71.754 C342.354,71.754 342.027333,71.6746667 341.738,71.516 C341.448667,71.3573333 341.201333,71.131 340.996,70.837 C340.790667,70.543 340.632,70.1883333 340.52,69.773 C340.408,69.3576667 340.352,68.8933333 340.352,68.38 C340.352,67.3533333 340.564333,66.5483333 340.989,65.965 C341.413667,65.3816667 341.99,65.09 342.718,65.09 C343.446,65.09 344.022333,65.3816667 344.447,65.965 C344.871667,66.5483333 345.084,67.3533333 345.084,68.38 C345.084,68.8933333 345.028,69.3576667 344.916,69.773 C344.804,70.1883333 344.645333,70.543 344.44,70.837 C344.234667,71.131 343.987333,71.3573333 343.698,71.516 C343.408667,71.6746667 343.082,71.754 342.718,71.754 Z M351.79,73.168 C352.172667,73.168 352.541333,73.084 352.896,72.916 C353.250667,72.748 353.563333,72.5053333 353.834,72.188 C354.104667,71.8706667 354.321667,71.481 354.485,71.019 C354.648333,70.557 354.73,70.032 354.73,69.444 C354.73,68.912 354.669333,68.4313333 354.548,68.002 C354.426667,67.5726667 354.249333,67.2063333 354.016,66.903 C353.782667,66.5996667 353.498,66.3663333 353.162,66.203 C352.826,66.0396667 352.443333,65.958 352.014,65.958 C351.659333,65.958 351.311667,66.0373333 350.971,66.196 C350.630333,66.3546667 350.315333,66.56 350.026,66.812 L350.026,66.812 L350.068,65.664 L350.068,63.116 L348.458,63.116 L348.458,73 L349.732,73 L349.872,72.272 L349.914,72.272 C350.203333,72.5613333 350.509,72.783 350.831,72.937 C351.153,73.091 351.472667,73.168 351.79,73.168 Z M351.454,71.838 C351.248667,71.838 351.027,71.796 350.789,71.712 C350.551,71.628 350.310667,71.4786667 350.068,71.264 L350.068,71.264 L350.068,68.058 C350.590667,67.5446667 351.094667,67.288 351.58,67.288 C352.102667,67.288 352.480667,67.4793333 352.714,67.862 C352.947333,68.2446667 353.064,68.7813333 353.064,69.472 C353.064,70.256 352.91,70.8463333 352.602,71.243 C352.294,71.6396667 351.911333,71.838 351.454,71.838 Z M357.908,73.168 C358.262667,73.168 358.547333,73.1213333 358.762,73.028 L358.762,73.028 L358.552,71.824 C358.486667,71.8426667 358.437667,71.852 358.405,71.852 L358.405,71.852 L358.3,71.852 C358.216,71.852 358.136667,71.8123333 358.062,71.733 C357.987333,71.6536667 357.95,71.516 357.95,71.32 L357.95,71.32 L357.95,63.116 L356.34,63.116 L356.34,71.236 C356.34,71.8333333 356.456667,72.3046667 356.69,72.65 C356.923333,72.9953333 357.329333,73.168 357.908,73.168 Z M360.946,64.922 C361.235333,64.922 361.473333,64.838 361.66,64.67 C361.846667,64.502 361.94,64.2826667 361.94,64.012 C361.94,63.7413333 361.846667,63.5196667 361.66,63.347 C361.473333,63.1743333 361.235333,63.088 360.946,63.088 C360.656667,63.088 360.418667,63.1743333 360.232,63.347 C360.045333,63.5196667 359.952,63.7413333 359.952,64.012 C359.952,64.2826667 360.045333,64.502 360.232,64.67 C360.418667,64.838 360.656667,64.922 360.946,64.922 Z M361.744,73 L361.744,66.126 L360.134,66.126 L360.134,73 L361.744,73 Z M366.196,76.038 C366.756,76.038 367.262333,75.975 367.715,75.849 C368.167667,75.723 368.552667,75.5526667 368.87,75.338 C369.187333,75.1233333 369.432333,74.8666667 369.605,74.568 C369.777667,74.2693333 369.864,73.952 369.864,73.616 C369.864,73.0186667 369.651667,72.587 369.227,72.321 C368.802333,72.055 368.174667,71.922 367.344,71.922 L367.344,71.922 L366.126,71.922 C365.706,71.922 365.414333,71.866 365.251,71.754 C365.087667,71.642 365.006,71.488 365.006,71.292 C365.006,71.1333333 365.036333,71.0073333 365.097,70.914 C365.157667,70.8206667 365.239333,70.7273333 365.342,70.634 C365.500667,70.6993333 365.659333,70.746 365.818,70.774 C365.976667,70.802 366.130667,70.816 366.28,70.816 C366.644,70.816 366.984667,70.7646667 367.302,70.662 C367.619333,70.5593333 367.894667,70.41 368.128,70.214 C368.361333,70.018 368.545667,69.7753333 368.681,69.486 C368.816333,69.1966667 368.884,68.8606667 368.884,68.478 C368.884,68.2353333 368.846667,68.0136667 368.772,67.813 C368.697333,67.6123333 368.604,67.4466667 368.492,67.316 L368.492,67.316 L369.752,67.316 L369.752,66.126 L367.288,66.126 C367.148,66.0793333 366.991667,66.0396667 366.819,66.007 C366.646333,65.9743333 366.466667,65.958 366.28,65.958 C365.916,65.958 365.570667,66.0116667 365.244,66.119 C364.917333,66.2263333 364.630333,66.385 364.383,66.595 C364.135667,66.805 363.937333,67.064 363.788,67.372 C363.638667,67.68 363.564,68.03 363.564,68.422 C363.564,68.8326667 363.655,69.1943333 363.837,69.507 C364.019,69.8196667 364.226667,70.0646667 364.46,70.242 L364.46,70.242 L364.46,70.298 C364.264,70.438 364.089,70.6176667 363.935,70.837 C363.781,71.0563333 363.704,71.3013333 363.704,71.572 C363.704,71.852 363.762333,72.0853333 363.879,72.272 C363.995667,72.4586667 364.142667,72.608 364.32,72.72 L364.32,72.72 L364.32,72.776 C364.002667,72.972 363.76,73.1936667 363.592,73.441 C363.424,73.6883333 363.34,73.9566667 363.34,74.246 C363.34,74.5446667 363.412333,74.806 363.557,75.03 C363.701667,75.254 363.9,75.4406667 364.152,75.59 C364.404,75.7393333 364.705,75.8513333 365.055,75.926 C365.405,76.0006667 365.785333,76.038 366.196,76.038 Z M366.28,69.808 C365.944,69.808 365.659333,69.689 365.426,69.451 C365.192667,69.213 365.076,68.87 365.076,68.422 C365.076,67.9833333 365.192667,67.6473333 365.426,67.414 C365.659333,67.1806667 365.944,67.064 366.28,67.064 C366.616,67.064 366.898333,67.183 367.127,67.421 C367.355667,67.659 367.47,67.9926667 367.47,68.422 C367.47,68.87 367.353333,69.213 367.12,69.451 C366.886667,69.689 366.606667,69.808 366.28,69.808 Z M366.448,74.988 C365.897333,74.988 365.465667,74.9016667 365.153,74.729 C364.840333,74.5563333 364.684,74.316 364.684,74.008 C364.684,73.672 364.861333,73.3686667 365.216,73.098 C365.468,73.1633333 365.780667,73.196 366.154,73.196 L366.154,73.196 L367.092,73.196 C367.484,73.196 367.785,73.2426667 367.995,73.336 C368.205,73.4293333 368.31,73.6113333 368.31,73.882 C368.31,74.1806667 368.139667,74.4396667 367.799,74.659 C367.458333,74.8783333 367.008,74.988 366.448,74.988 Z M372.496,73.168 C372.906667,73.168 373.287,73.0793333 373.637,72.902 C373.987,72.7246667 374.316,72.5053333 374.624,72.244 L374.624,72.244 L374.68,72.244 L374.792,73 L376.122,73 L376.122,68.926 C376.122,67.9646667 375.909667,67.2296667 375.485,66.721 C375.060333,66.2123333 374.418667,65.958 373.56,65.958 C373.009333,65.958 372.496,66.0466667 372.02,66.224 C371.544,66.4013333 371.114667,66.6113333 370.732,66.854 L370.732,66.854 L371.32,67.932 C371.628,67.7453333 371.943,67.5866667 372.265,67.456 C372.587,67.3253333 372.916,67.26 373.252,67.26 C373.485333,67.26 373.681333,67.295 373.84,67.365 C373.998667,67.435 374.127,67.533 374.225,67.659 C374.323,67.785 374.393,67.9296667 374.435,68.093 C374.477,68.2563333 374.502667,68.4266667 374.512,68.604 C373.802667,68.6786667 373.193667,68.786 372.685,68.926 C372.176333,69.066 371.756333,69.2386667 371.425,69.444 C371.093667,69.6493333 370.851,69.8943333 370.697,70.179 C370.543,70.4636667 370.466,70.788 370.466,71.152 C370.466,71.7586667 370.652667,72.2463333 371.026,72.615 C371.399333,72.9836667 371.889333,73.168 372.496,73.168 Z M373.014,71.908 C372.724667,71.908 372.486667,71.838 372.3,71.698 C372.113333,71.558 372.02,71.334 372.02,71.026 C372.02,70.858 372.062,70.6993333 372.146,70.55 C372.23,70.4006667 372.37,70.2676667 372.566,70.151 C372.762,70.0343333 373.018667,69.9293333 373.336,69.836 C373.653333,69.7426667 374.045333,69.668 374.512,69.612 L374.512,69.612 L374.512,71.152 C374.250667,71.3946667 374.005667,71.5813333 373.777,71.712 C373.548333,71.8426667 373.294,71.908 373.014,71.908 Z M380.252,73.168 C380.522667,73.168 380.777,73.1423333 381.015,73.091 C381.253,73.0396667 381.465333,72.9813333 381.652,72.916 L381.652,72.916 L381.372,71.726 C381.269333,71.7726667 381.155,71.81 381.029,71.838 C380.903,71.866 380.779333,71.88 380.658,71.88 C380.014,71.88 379.692,71.4786667 379.692,70.676 L379.692,70.676 L379.692,67.4 L381.442,67.4 L381.442,66.126 L379.692,66.126 L379.692,64.25 L378.348,64.25 L378.152,66.126 L377.088,66.196 L377.088,67.4 L378.068,67.4 L378.068,70.676 C378.068,71.0493333 378.107667,71.3876667 378.187,71.691 C378.266333,71.9943333 378.392333,72.2556667 378.565,72.475 C378.737667,72.6943333 378.961667,72.8646667 379.237,72.986 C379.512333,73.1073333 379.850667,73.168 380.252,73.168 Z M383.696,64.922 C383.985333,64.922 384.223333,64.838 384.41,64.67 C384.596667,64.502 384.69,64.2826667 384.69,64.012 C384.69,63.7413333 384.596667,63.5196667 384.41,63.347 C384.223333,63.1743333 383.985333,63.088 383.696,63.088 C383.406667,63.088 383.168667,63.1743333 382.982,63.347 C382.795333,63.5196667 382.702,63.7413333 382.702,64.012 C382.702,64.2826667 382.795333,64.502 382.982,64.67 C383.168667,64.838 383.406667,64.922 383.696,64.922 Z M384.494,73 L384.494,66.126 L382.884,66.126 L382.884,73 L384.494,73 Z M389.366,73.168 C389.795333,73.168 390.208333,73.0886667 390.605,72.93 C391.001667,72.7713333 391.349333,72.538 391.648,72.23 C391.946667,71.922 392.187,71.544 392.369,71.096 C392.551,70.648 392.642,70.1393333 392.642,69.57 C392.642,69.0006667 392.551,68.492 392.369,68.044 C392.187,67.596 391.946667,67.218 391.648,66.91 C391.349333,66.602 391.001667,66.3663333 390.605,66.203 C390.208333,66.0396667 389.795333,65.958 389.366,65.958 C388.936667,65.958 388.526,66.0396667 388.134,66.203 C387.742,66.3663333 387.394333,66.602 387.091,66.91 C386.787667,67.218 386.547333,67.596 386.37,68.044 C386.192667,68.492 386.104,69.0006667 386.104,69.57 C386.104,70.1393333 386.192667,70.648 386.37,71.096 C386.547333,71.544 386.787667,71.922 387.091,72.23 C387.394333,72.538 387.742,72.7713333 388.134,72.93 C388.526,73.0886667 388.936667,73.168 389.366,73.168 Z M389.366,71.852 C388.862,71.852 388.467667,71.6443333 388.183,71.229 C387.898333,70.8136667 387.756,70.2606667 387.756,69.57 C387.756,68.87 387.898333,68.3123333 388.183,67.897 C388.467667,67.4816667 388.862,67.274 389.366,67.274 C389.87,67.274 390.266667,67.4816667 390.556,67.897 C390.845333,68.3123333 390.99,68.87 390.99,69.57 C390.99,70.2606667 390.845333,70.8136667 390.556,71.229 C390.266667,71.6443333 389.87,71.852 389.366,71.852 Z M395.848,73 L395.848,68.198 C396.137333,67.918 396.396333,67.7056667 396.625,67.561 C396.853667,67.4163333 397.117333,67.344 397.416,67.344 C397.798667,67.344 398.074,67.4606667 398.242,67.694 C398.41,67.9273333 398.494,68.3286667 398.494,68.898 L398.494,68.898 L398.494,73 L400.104,73 L400.104,68.688 C400.104,67.8106667 399.936,67.1363333 399.6,66.665 C399.264,66.1936667 398.727333,65.958 397.99,65.958 C397.514,65.958 397.096333,66.0653333 396.737,66.28 C396.377667,66.4946667 396.044,66.7513333 395.736,67.05 L395.736,67.05 L395.68,67.05 L395.568,66.126 L394.238,66.126 L394.238,73 L395.848,73 Z M403.996,73.168 C404.425333,73.168 404.808,73.112 405.144,73 C405.48,72.888 405.76,72.7363333 405.984,72.545 C406.208,72.3536667 406.378333,72.1296667 406.495,71.873 C406.611667,71.6163333 406.67,71.3386667 406.67,71.04 C406.67,70.7226667 406.611667,70.4496667 406.495,70.221 C406.378333,69.9923333 406.224333,69.7986667 406.033,69.64 C405.841667,69.4813333 405.629333,69.3483333 405.396,69.241 C405.162667,69.1336667 404.929333,69.038 404.696,68.954 C404.509333,68.8886667 404.329667,68.8233333 404.157,68.758 C403.984333,68.6926667 403.832667,68.6226667 403.702,68.548 C403.571333,68.4733333 403.466333,68.387 403.387,68.289 C403.307667,68.191 403.268,68.072 403.268,67.932 C403.268,67.7173333 403.349667,67.5376667 403.513,67.393 C403.676333,67.2483333 403.930667,67.176 404.276,67.176 C404.546667,67.176 404.805667,67.2296667 405.053,67.337 C405.300333,67.4443333 405.545333,67.5866667 405.788,67.764 L405.788,67.764 L406.53,66.784 C406.25,66.5693333 405.918667,66.378 405.536,66.21 C405.153333,66.042 404.724,65.958 404.248,65.958 C403.473333,65.958 402.862,66.1493333 402.414,66.532 C401.966,66.9146667 401.742,67.4093333 401.742,68.016 C401.742,68.3053333 401.800333,68.555 401.917,68.765 C402.033667,68.975 402.183,69.1593333 402.365,69.318 C402.547,69.4766667 402.754667,69.612 402.988,69.724 C403.221333,69.836 403.45,69.934 403.674,70.018 C403.851333,70.0926667 404.028667,70.165 404.206,70.235 C404.383333,70.305 404.542,70.382 404.682,70.466 C404.822,70.55 404.934,70.6456667 405.018,70.753 C405.102,70.8603333 405.144,70.984 405.144,71.124 C405.144,71.3666667 405.055333,71.565 404.878,71.719 C404.700667,71.873 404.425333,71.95 404.052,71.95 C403.697333,71.95 403.368333,71.8823333 403.065,71.747 C402.761667,71.6116667 402.456,71.4226667 402.148,71.18 L402.148,71.18 L401.392,72.216 C401.728,72.4866667 402.127,72.713 402.589,72.895 C403.051,73.077 403.52,73.168 403.996,73.168 Z" id="Obligations" fill="#666666" fill-rule="nonzero"></path>
                <path d="M530.592,73.168 C531.124,73.168 531.602333,73.091 532.027,72.937 C532.451667,72.783 532.815667,72.538 533.119,72.202 C533.422333,71.866 533.653333,71.4343333 533.812,70.907 C533.970667,70.3796667 534.05,69.738 534.05,68.982 L534.05,68.982 L534.05,63.844 L532.496,63.844 L532.496,69.108 C532.496,69.6026667 532.449333,70.0203333 532.356,70.361 C532.262667,70.7016667 532.132,70.9746667 531.964,71.18 C531.796,71.3853333 531.595333,71.5323333 531.362,71.621 C531.128667,71.7096667 530.872,71.754 530.592,71.754 C530.312,71.754 530.06,71.7096667 529.836,71.621 C529.612,71.5323333 529.418333,71.3853333 529.255,71.18 C529.091667,70.9746667 528.965667,70.7016667 528.877,70.361 C528.788333,70.0203333 528.744,69.6026667 528.744,69.108 L528.744,69.108 L528.744,63.844 L527.12,63.844 L527.12,68.982 C527.12,69.738 527.201667,70.3796667 527.365,70.907 C527.528333,71.4343333 527.761667,71.866 528.065,72.202 C528.368333,72.538 528.732333,72.783 529.157,72.937 C529.581667,73.091 530.06,73.168 530.592,73.168 Z M537.802,73 L537.802,68.198 C538.091333,67.918 538.350333,67.7056667 538.579,67.561 C538.807667,67.4163333 539.071333,67.344 539.37,67.344 C539.752667,67.344 540.028,67.4606667 540.196,67.694 C540.364,67.9273333 540.448,68.3286667 540.448,68.898 L540.448,68.898 L540.448,73 L542.058,73 L542.058,68.688 C542.058,67.8106667 541.89,67.1363333 541.554,66.665 C541.218,66.1936667 540.681333,65.958 539.944,65.958 C539.468,65.958 539.050333,66.0653333 538.691,66.28 C538.331667,66.4946667 537.998,66.7513333 537.69,67.05 L537.69,67.05 L537.634,67.05 L537.522,66.126 L536.192,66.126 L536.192,73 L537.802,73 Z M546.846,73.168 C547.275333,73.168 547.688333,73.0886667 548.085,72.93 C548.481667,72.7713333 548.829333,72.538 549.128,72.23 C549.426667,71.922 549.667,71.544 549.849,71.096 C550.031,70.648 550.122,70.1393333 550.122,69.57 C550.122,69.0006667 550.031,68.492 549.849,68.044 C549.667,67.596 549.426667,67.218 549.128,66.91 C548.829333,66.602 548.481667,66.3663333 548.085,66.203 C547.688333,66.0396667 547.275333,65.958 546.846,65.958 C546.416667,65.958 546.006,66.0396667 545.614,66.203 C545.222,66.3663333 544.874333,66.602 544.571,66.91 C544.267667,67.218 544.027333,67.596 543.85,68.044 C543.672667,68.492 543.584,69.0006667 543.584,69.57 C543.584,70.1393333 543.672667,70.648 543.85,71.096 C544.027333,71.544 544.267667,71.922 544.571,72.23 C544.874333,72.538 545.222,72.7713333 545.614,72.93 C546.006,73.0886667 546.416667,73.168 546.846,73.168 Z M546.846,71.852 C546.342,71.852 545.947667,71.6443333 545.663,71.229 C545.378333,70.8136667 545.236,70.2606667 545.236,69.57 C545.236,68.87 545.378333,68.3123333 545.663,67.897 C545.947667,67.4816667 546.342,67.274 546.846,67.274 C547.35,67.274 547.746667,67.4816667 548.036,67.897 C548.325333,68.3123333 548.47,68.87 548.47,69.57 C548.47,70.2606667 548.325333,70.8136667 548.036,71.229 C547.746667,71.6443333 547.35,71.852 546.846,71.852 Z M555.05,73.168 C555.432667,73.168 555.801333,73.084 556.156,72.916 C556.510667,72.748 556.823333,72.5053333 557.094,72.188 C557.364667,71.8706667 557.581667,71.481 557.745,71.019 C557.908333,70.557 557.99,70.032 557.99,69.444 C557.99,68.912 557.929333,68.4313333 557.808,68.002 C557.686667,67.5726667 557.509333,67.2063333 557.276,66.903 C557.042667,66.5996667 556.758,66.3663333 556.422,66.203 C556.086,66.0396667 555.703333,65.958 555.274,65.958 C554.919333,65.958 554.571667,66.0373333 554.231,66.196 C553.890333,66.3546667 553.575333,66.56 553.286,66.812 L553.286,66.812 L553.328,65.664 L553.328,63.116 L551.718,63.116 L551.718,73 L552.992,73 L553.132,72.272 L553.174,72.272 C553.463333,72.5613333 553.769,72.783 554.091,72.937 C554.413,73.091 554.732667,73.168 555.05,73.168 Z M554.714,71.838 C554.508667,71.838 554.287,71.796 554.049,71.712 C553.811,71.628 553.570667,71.4786667 553.328,71.264 L553.328,71.264 L553.328,68.058 C553.850667,67.5446667 554.354667,67.288 554.84,67.288 C555.362667,67.288 555.740667,67.4793333 555.974,67.862 C556.207333,68.2446667 556.324,68.7813333 556.324,69.472 C556.324,70.256 556.17,70.8463333 555.862,71.243 C555.554,71.6396667 555.171333,71.838 554.714,71.838 Z M561.168,73.168 C561.522667,73.168 561.807333,73.1213333 562.022,73.028 L562.022,73.028 L561.812,71.824 C561.746667,71.8426667 561.697667,71.852 561.665,71.852 L561.665,71.852 L561.56,71.852 C561.476,71.852 561.396667,71.8123333 561.322,71.733 C561.247333,71.6536667 561.21,71.516 561.21,71.32 L561.21,71.32 L561.21,63.116 L559.6,63.116 L559.6,71.236 C559.6,71.8333333 559.716667,72.3046667 559.95,72.65 C560.183333,72.9953333 560.589333,73.168 561.168,73.168 Z M564.206,64.922 C564.495333,64.922 564.733333,64.838 564.92,64.67 C565.106667,64.502 565.2,64.2826667 565.2,64.012 C565.2,63.7413333 565.106667,63.5196667 564.92,63.347 C564.733333,63.1743333 564.495333,63.088 564.206,63.088 C563.916667,63.088 563.678667,63.1743333 563.492,63.347 C563.305333,63.5196667 563.212,63.7413333 563.212,64.012 C563.212,64.2826667 563.305333,64.502 563.492,64.67 C563.678667,64.838 563.916667,64.922 564.206,64.922 Z M565.004,73 L565.004,66.126 L563.394,66.126 L563.394,73 L565.004,73 Z M569.456,76.038 C570.016,76.038 570.522333,75.975 570.975,75.849 C571.427667,75.723 571.812667,75.5526667 572.13,75.338 C572.447333,75.1233333 572.692333,74.8666667 572.865,74.568 C573.037667,74.2693333 573.124,73.952 573.124,73.616 C573.124,73.0186667 572.911667,72.587 572.487,72.321 C572.062333,72.055 571.434667,71.922 570.604,71.922 L570.604,71.922 L569.386,71.922 C568.966,71.922 568.674333,71.866 568.511,71.754 C568.347667,71.642 568.266,71.488 568.266,71.292 C568.266,71.1333333 568.296333,71.0073333 568.357,70.914 C568.417667,70.8206667 568.499333,70.7273333 568.602,70.634 C568.760667,70.6993333 568.919333,70.746 569.078,70.774 C569.236667,70.802 569.390667,70.816 569.54,70.816 C569.904,70.816 570.244667,70.7646667 570.562,70.662 C570.879333,70.5593333 571.154667,70.41 571.388,70.214 C571.621333,70.018 571.805667,69.7753333 571.941,69.486 C572.076333,69.1966667 572.144,68.8606667 572.144,68.478 C572.144,68.2353333 572.106667,68.0136667 572.032,67.813 C571.957333,67.6123333 571.864,67.4466667 571.752,67.316 L571.752,67.316 L573.012,67.316 L573.012,66.126 L570.548,66.126 C570.408,66.0793333 570.251667,66.0396667 570.079,66.007 C569.906333,65.9743333 569.726667,65.958 569.54,65.958 C569.176,65.958 568.830667,66.0116667 568.504,66.119 C568.177333,66.2263333 567.890333,66.385 567.643,66.595 C567.395667,66.805 567.197333,67.064 567.048,67.372 C566.898667,67.68 566.824,68.03 566.824,68.422 C566.824,68.8326667 566.915,69.1943333 567.097,69.507 C567.279,69.8196667 567.486667,70.0646667 567.72,70.242 L567.72,70.242 L567.72,70.298 C567.524,70.438 567.349,70.6176667 567.195,70.837 C567.041,71.0563333 566.964,71.3013333 566.964,71.572 C566.964,71.852 567.022333,72.0853333 567.139,72.272 C567.255667,72.4586667 567.402667,72.608 567.58,72.72 L567.58,72.72 L567.58,72.776 C567.262667,72.972 567.02,73.1936667 566.852,73.441 C566.684,73.6883333 566.6,73.9566667 566.6,74.246 C566.6,74.5446667 566.672333,74.806 566.817,75.03 C566.961667,75.254 567.16,75.4406667 567.412,75.59 C567.664,75.7393333 567.965,75.8513333 568.315,75.926 C568.665,76.0006667 569.045333,76.038 569.456,76.038 Z M569.54,69.808 C569.204,69.808 568.919333,69.689 568.686,69.451 C568.452667,69.213 568.336,68.87 568.336,68.422 C568.336,67.9833333 568.452667,67.6473333 568.686,67.414 C568.919333,67.1806667 569.204,67.064 569.54,67.064 C569.876,67.064 570.158333,67.183 570.387,67.421 C570.615667,67.659 570.73,67.9926667 570.73,68.422 C570.73,68.87 570.613333,69.213 570.38,69.451 C570.146667,69.689 569.866667,69.808 569.54,69.808 Z M569.708,74.988 C569.157333,74.988 568.725667,74.9016667 568.413,74.729 C568.100333,74.5563333 567.944,74.316 567.944,74.008 C567.944,73.672 568.121333,73.3686667 568.476,73.098 C568.728,73.1633333 569.040667,73.196 569.414,73.196 L569.414,73.196 L570.352,73.196 C570.744,73.196 571.045,73.2426667 571.255,73.336 C571.465,73.4293333 571.57,73.6113333 571.57,73.882 C571.57,74.1806667 571.399667,74.4396667 571.059,74.659 C570.718333,74.8783333 570.268,74.988 569.708,74.988 Z M575.756,73.168 C576.166667,73.168 576.547,73.0793333 576.897,72.902 C577.247,72.7246667 577.576,72.5053333 577.884,72.244 L577.884,72.244 L577.94,72.244 L578.052,73 L579.382,73 L579.382,68.926 C579.382,67.9646667 579.169667,67.2296667 578.745,66.721 C578.320333,66.2123333 577.678667,65.958 576.82,65.958 C576.269333,65.958 575.756,66.0466667 575.28,66.224 C574.804,66.4013333 574.374667,66.6113333 573.992,66.854 L573.992,66.854 L574.58,67.932 C574.888,67.7453333 575.203,67.5866667 575.525,67.456 C575.847,67.3253333 576.176,67.26 576.512,67.26 C576.745333,67.26 576.941333,67.295 577.1,67.365 C577.258667,67.435 577.387,67.533 577.485,67.659 C577.583,67.785 577.653,67.9296667 577.695,68.093 C577.737,68.2563333 577.762667,68.4266667 577.772,68.604 C577.062667,68.6786667 576.453667,68.786 575.945,68.926 C575.436333,69.066 575.016333,69.2386667 574.685,69.444 C574.353667,69.6493333 574.111,69.8943333 573.957,70.179 C573.803,70.4636667 573.726,70.788 573.726,71.152 C573.726,71.7586667 573.912667,72.2463333 574.286,72.615 C574.659333,72.9836667 575.149333,73.168 575.756,73.168 Z M576.274,71.908 C575.984667,71.908 575.746667,71.838 575.56,71.698 C575.373333,71.558 575.28,71.334 575.28,71.026 C575.28,70.858 575.322,70.6993333 575.406,70.55 C575.49,70.4006667 575.63,70.2676667 575.826,70.151 C576.022,70.0343333 576.278667,69.9293333 576.596,69.836 C576.913333,69.7426667 577.305333,69.668 577.772,69.612 L577.772,69.612 L577.772,71.152 C577.510667,71.3946667 577.265667,71.5813333 577.037,71.712 C576.808333,71.8426667 576.554,71.908 576.274,71.908 Z M583.512,73.168 C583.782667,73.168 584.037,73.1423333 584.275,73.091 C584.513,73.0396667 584.725333,72.9813333 584.912,72.916 L584.912,72.916 L584.632,71.726 C584.529333,71.7726667 584.415,71.81 584.289,71.838 C584.163,71.866 584.039333,71.88 583.918,71.88 C583.274,71.88 582.952,71.4786667 582.952,70.676 L582.952,70.676 L582.952,67.4 L584.702,67.4 L584.702,66.126 L582.952,66.126 L582.952,64.25 L581.608,64.25 L581.412,66.126 L580.348,66.196 L580.348,67.4 L581.328,67.4 L581.328,70.676 C581.328,71.0493333 581.367667,71.3876667 581.447,71.691 C581.526333,71.9943333 581.652333,72.2556667 581.825,72.475 C581.997667,72.6943333 582.221667,72.8646667 582.497,72.986 C582.772333,73.1073333 583.110667,73.168 583.512,73.168 Z M588.86,73.168 C589.298667,73.168 589.718667,73.098 590.12,72.958 C590.521333,72.818 590.885333,72.6406667 591.212,72.426 L591.212,72.426 L590.666,71.418 C590.414,71.5766667 590.159667,71.7003333 589.903,71.789 C589.646333,71.8776667 589.368667,71.922 589.07,71.922 C588.51,71.922 588.050333,71.7563333 587.691,71.425 C587.331667,71.0936667 587.114667,70.62 587.04,70.004 L587.04,70.004 L591.408,70.004 C591.426667,69.92 591.443,69.808 591.457,69.668 C591.471,69.528 591.478,69.3786667 591.478,69.22 C591.478,68.744 591.417333,68.3053333 591.296,67.904 C591.174667,67.5026667 590.995,67.1573333 590.757,66.868 C590.519,66.5786667 590.222667,66.3546667 589.868,66.196 C589.513333,66.0373333 589.102667,65.958 588.636,65.958 C588.234667,65.958 587.842667,66.042 587.46,66.21 C587.077333,66.378 586.739,66.616 586.445,66.924 C586.151,67.232 585.915333,67.61 585.738,68.058 C585.560667,68.506 585.472,69.01 585.472,69.57 C585.472,70.1393333 585.558333,70.6456667 585.731,71.089 C585.903667,71.5323333 586.144,71.908 586.452,72.216 C586.76,72.524 587.119333,72.7596667 587.53,72.923 C587.940667,73.0863333 588.384,73.168 588.86,73.168 Z M590.078,68.912 L587.026,68.912 C587.100667,68.352 587.292,67.9273333 587.6,67.638 C587.908,67.3486667 588.267333,67.204 588.678,67.204 C589.154,67.204 589.506333,67.3556667 589.735,67.659 C589.963667,67.9623333 590.078,68.38 590.078,68.912 L590.078,68.912 Z M595.426,73.168 C595.799333,73.168 596.154,73.0793333 596.49,72.902 C596.826,72.7246667 597.12,72.51 597.372,72.258 L597.372,72.258 L597.428,72.258 L597.54,73 L598.87,73 L598.87,63.116 L597.26,63.116 L597.26,65.608 L597.316,66.714 C597.045333,66.4806667 596.774667,66.2963333 596.504,66.161 C596.233333,66.0256667 595.902,65.958 595.51,65.958 C595.136667,65.958 594.775,66.042 594.425,66.21 C594.075,66.378 593.764667,66.616 593.494,66.924 C593.223333,67.232 593.006333,67.61 592.843,68.058 C592.679667,68.506 592.598,69.01 592.598,69.57 C592.598,70.7086667 592.852333,71.593 593.361,72.223 C593.869667,72.853 594.558,73.168 595.426,73.168 Z M595.818,71.838 C595.314,71.838 594.929,71.6443333 594.663,71.257 C594.397,70.8696667 594.264,70.3026667 594.264,69.556 C594.264,68.828 594.418,68.268 594.726,67.876 C595.034,67.484 595.412,67.288 595.86,67.288 C596.093333,67.288 596.324333,67.33 596.553,67.414 C596.781667,67.498 597.017333,67.6473333 597.26,67.862 L597.26,67.862 L597.26,71.068 C596.812,71.5813333 596.331333,71.838 595.818,71.838 Z" id="Unobligated" fill="#666666" fill-rule="nonzero"></path>
                <line x1="563.5" y1="40" x2="563.5" y2="55" id="Line-Copy-2" stroke="#C6C6C6"></line>
                <line x1="372.5" y1="40" x2="372.5" y2="55" id="Line-Copy-5" stroke="#C6C6C6"></line>
                <line x1="10.5" y1="40" x2="10.5" y2="55" id="Line" stroke="#C6C6C6"></line>
                <rect id="unobligated" fill="#F3E9FF" x="388" y="0" width="212" height="40"></rect>
                <rect id="obligated" fill="#6F41A7" x="358" y="0" width="30" height="40"></rect>
                <rect id="outlays" fill="#331E4D" x="0" y="0" width="358" height="40"></rect>
                <path d="M614.992,27.76 L614.992,26.096 C615.824,25.9146667 616.448,25.5493333 616.864,25 C617.28,24.4506667 617.488,23.792 617.488,23.024 C617.488,22.512 617.384,22.0826667 617.176,21.736 C616.968,21.3893333 616.706667,21.0933333 616.392,20.848 C616.077333,20.6026667 615.738667,20.3946667 615.376,20.224 C615.013333,20.0533333 614.674667,19.888 614.36,19.728 C614.045333,19.568 613.784,19.4 613.576,19.224 C613.368,19.048 613.264,18.832 613.264,18.576 C613.264,18.2133333 613.365333,17.952 613.568,17.792 C613.770667,17.632 614.064,17.552 614.448,17.552 C614.789333,17.552 615.093333,17.6186667 615.36,17.752 C615.626667,17.8853333 615.904,18.0853333 616.192,18.352 L616.192,18.352 L617.376,17.008 C617.066667,16.6773333 616.72,16.3946667 616.336,16.16 C615.952,15.9253333 615.504,15.7706667 614.992,15.696 L614.992,15.696 L614.992,14.08 L613.44,14.08 L613.44,15.728 C612.682667,15.8773333 612.088,16.2106667 611.656,16.728 C611.224,17.2453333 611.008,17.8986667 611.008,18.688 C611.008,19.168 611.112,19.5733333 611.32,19.904 C611.528,20.2346667 611.789333,20.5226667 612.104,20.768 C612.418667,21.0133333 612.757333,21.224 613.12,21.4 C613.482667,21.576 613.821333,21.752 614.136,21.928 C614.450667,22.104 614.712,22.288 614.92,22.48 C615.128,22.672 615.232,22.9066667 615.232,23.184 C615.232,23.5573333 615.128,23.8346667 614.92,24.016 C614.712,24.1973333 614.384,24.288 613.936,24.288 C613.552,24.288 613.176,24.2106667 612.808,24.056 C612.44,23.9013333 612.053333,23.6693333 611.648,23.36 L611.648,23.36 L610.624,24.944 C610.997333,25.2853333 611.442667,25.56 611.96,25.768 C612.477333,25.976 612.970667,26.1066667 613.44,26.16 L613.44,26.16 L613.44,27.76 L614.992,27.76 Z M626.192,26 L626.192,24.016 L624.144,24.016 C623.898667,24.016 623.618667,24.0293333 623.304,24.056 C622.989333,24.0826667 622.704,24.112 622.448,24.144 C622.864,23.7173333 623.266667,23.2826667 623.656,22.84 C624.045333,22.3973333 624.392,21.9546667 624.696,21.512 C625,21.0693333 625.242667,20.6266667 625.424,20.184 C625.605333,19.7413333 625.696,19.3066667 625.696,18.88 C625.696,18.3893333 625.616,17.9466667 625.456,17.552 C625.296,17.1573333 625.066667,16.8186667 624.768,16.536 C624.469333,16.2533333 624.114667,16.0346667 623.704,15.88 C623.293333,15.7253333 622.837333,15.648 622.336,15.648 C621.610667,15.648 620.986667,15.784 620.464,16.056 C619.941333,16.328 619.429333,16.7306667 618.928,17.264 L618.928,17.264 L620.208,18.528 C620.464,18.2506667 620.736,18.008 621.024,17.8 C621.312,17.592 621.642667,17.488 622.016,17.488 C622.464,17.488 622.816,17.6186667 623.072,17.88 C623.328,18.1413333 623.456,18.5226667 623.456,19.024 C623.456,19.3866667 623.346667,19.768 623.128,20.168 C622.909333,20.568 622.605333,21 622.216,21.464 C621.826667,21.928 621.362667,22.424 620.824,22.952 C620.285333,23.48 619.690667,24.048 619.04,24.656 L619.04,24.656 L619.04,26 L626.192,26 Z M629.296,26.192 C629.701333,26.192 630.04,26.0506667 630.312,25.768 C630.584,25.4853333 630.72,25.136 630.72,24.72 C630.72,24.2933333 630.584,23.9386667 630.312,23.656 C630.04,23.3733333 629.701333,23.232 629.296,23.232 C628.890667,23.232 628.552,23.3733333 628.28,23.656 C628.008,23.9386667 627.872,24.2933333 627.872,24.72 C627.872,25.136 628.008,25.4853333 628.28,25.768 C628.552,26.0506667 628.890667,26.192 629.296,26.192 Z M635.648,26.192 C636.138667,26.192 636.610667,26.112 637.064,25.952 C637.517333,25.792 637.914667,25.56 638.256,25.256 C638.597333,24.952 638.869333,24.5813333 639.072,24.144 C639.274667,23.7066667 639.376,23.2053333 639.376,22.64 C639.376,22.096 639.290667,21.6266667 639.12,21.232 C638.949333,20.8373333 638.714667,20.512 638.416,20.256 C638.117333,20 637.773333,19.808 637.384,19.68 C636.994667,19.552 636.581333,19.488 636.144,19.488 C635.930667,19.488 635.736,19.5066667 635.56,19.544 C635.384,19.5813333 635.2,19.6426667 635.008,19.728 L635.008,19.728 L635.184,17.824 L638.912,17.824 L638.912,15.84 L633.152,15.84 L632.864,20.976 L633.92,21.648 C634.069333,21.552 634.205333,21.472 634.328,21.408 C634.450667,21.344 634.568,21.2906667 634.68,21.248 C634.792,21.2053333 634.906667,21.176 635.024,21.16 C635.141333,21.144 635.274667,21.136 635.424,21.136 C635.904,21.136 636.290667,21.2693333 636.584,21.536 C636.877333,21.8026667 637.024,22.192 637.024,22.704 C637.024,23.2266667 636.869333,23.6213333 636.56,23.888 C636.250667,24.1546667 635.834667,24.288 635.312,24.288 C634.874667,24.288 634.477333,24.1893333 634.12,23.992 C633.762667,23.7946667 633.429333,23.5573333 633.12,23.28 L633.12,23.28 L632.064,24.768 C632.469333,25.1733333 632.96,25.512 633.536,25.784 C634.112,26.056 634.816,26.192 635.648,26.192 Z M643.808,26.192 C644.341333,26.192 644.856,26.0826667 645.352,25.864 C645.848,25.6453333 646.285333,25.312 646.664,24.864 C647.042667,24.416 647.346667,23.8453333 647.576,23.152 C647.805333,22.4586667 647.92,21.6373333 647.92,20.688 C647.92,19.792 647.810667,19.0266667 647.592,18.392 C647.373333,17.7573333 647.085333,17.2373333 646.728,16.832 C646.370667,16.4266667 645.96,16.128 645.496,15.936 C645.032,15.744 644.554667,15.648 644.064,15.648 C643.605333,15.648 643.170667,15.7253333 642.76,15.88 C642.349333,16.0346667 641.992,16.2613333 641.688,16.56 C641.384,16.8586667 641.141333,17.2186667 640.96,17.64 C640.778667,18.0613333 640.688,18.5333333 640.688,19.056 C640.688,19.5893333 640.765333,20.0533333 640.92,20.448 C641.074667,20.8426667 641.285333,21.168 641.552,21.424 C641.818667,21.68 642.136,21.872 642.504,22 C642.872,22.128 643.274667,22.192 643.712,22.192 C643.872,22.192 644.042667,22.168 644.224,22.12 C644.405333,22.072 644.586667,22.0026667 644.768,21.912 C644.949333,21.8213333 645.125333,21.7093333 645.296,21.576 C645.466667,21.4426667 645.616,21.2906667 645.744,21.12 C645.722667,21.7173333 645.656,22.216 645.544,22.616 C645.432,23.016 645.282667,23.3413333 645.096,23.592 C644.909333,23.8426667 644.693333,24.0213333 644.448,24.128 C644.202667,24.2346667 643.936,24.288 643.648,24.288 C643.349333,24.288 643.056,24.216 642.768,24.072 C642.48,23.928 642.250667,23.76 642.08,23.568 L642.08,23.568 L640.832,24.976 C641.152,25.296 641.56,25.5786667 642.056,25.824 C642.552,26.0693333 643.136,26.192 643.808,26.192 Z M644.176,20.528 C643.792,20.528 643.472,20.4186667 643.216,20.2 C642.96,19.9813333 642.832,19.6 642.832,19.056 C642.832,18.48 642.96,18.0613333 643.216,17.8 C643.472,17.5386667 643.770667,17.408 644.112,17.408 C644.474667,17.408 644.802667,17.56 645.096,17.864 C645.389333,18.168 645.589333,18.72 645.696,19.52 C645.493333,19.8826667 645.256,20.1413333 644.984,20.296 C644.712,20.4506667 644.442667,20.528 644.176,20.528 Z M654.224,26 L654.224,17.552 L657.088,17.552 L657.088,15.568 L648.992,15.568 L648.992,17.552 L651.856,17.552 L651.856,26 L654.224,26 Z" id="$2.59T" fill="#6F41A7" fill-rule="nonzero"></path>
            </g>
        </g>
    </g>
</svg>