<?xml version="1.0" encoding="UTF-8"?>
<svg width="364px" height="40px" viewBox="0 0 364 40" version="1.1" xmlns="http://www.w3.org/2000/svg" xmlns:xlink="http://www.w3.org/1999/xlink">
    <title>Law 1 -A General Tablet</title>
    <g id="SVG-2.0" stroke="none" stroke-width="1" fill="none" fill-rule="evenodd">
        <g id="viz-3-tablet-outline" transform="translate(-61.000000, -456.000000)">
            <g id="Law-1--A-General-Tablet" transform="translate(61.000000, 456.000000)">
                <rect id="unobligated" fill="#F3E9FF" x="2" y="0" width="2" height="40"></rect>
                <rect id="obligated" fill="#6F41A7" x="0" y="0" width="2" height="40"></rect>
                <g id="labels" transform="translate(50.000000, 2.000000)">
                    <path d="M78.718,14.168 C79.3153333,14.168 79.8613333,14.0583333 80.356,13.839 C80.8506667,13.6196667 81.2776667,13.3023333 81.637,12.887 C81.9963333,12.4716667 82.274,11.97 82.47,11.382 C82.666,10.794 82.764,10.1266667 82.764,9.38 C82.764,8.64266667 82.666,7.98233333 82.47,7.399 C82.274,6.81566667 81.9963333,6.32333333 81.637,5.922 C81.2776667,5.52066667 80.8506667,5.21266667 80.356,4.998 C79.8613333,4.78333333 79.3153333,4.676 78.718,4.676 C78.1206667,4.676 77.5746667,4.78333333 77.08,4.998 C76.5853333,5.21266667 76.1606667,5.52066667 75.806,5.922 C75.4513333,6.32333333 75.176,6.81566667 74.98,7.399 C74.784,7.98233333 74.686,8.64266667 74.686,9.38 C74.686,10.1266667 74.784,10.794 74.98,11.382 C75.176,11.97 75.4513333,12.4716667 75.806,12.887 C76.1606667,13.3023333 76.5853333,13.6196667 77.08,13.839 C77.5746667,14.0583333 78.1206667,14.168 78.718,14.168 Z M78.718,12.754 C78.354,12.754 78.0273333,12.6746667 77.738,12.516 C77.4486667,12.3573333 77.2013333,12.131 76.996,11.837 C76.7906667,11.543 76.632,11.1883333 76.52,10.773 C76.408,10.3576667 76.352,9.89333333 76.352,9.38 C76.352,8.35333333 76.5643333,7.54833333 76.989,6.965 C77.4136667,6.38166667 77.99,6.09 78.718,6.09 C79.446,6.09 80.0223333,6.38166667 80.447,6.965 C80.8716667,7.54833333 81.084,8.35333333 81.084,9.38 C81.084,9.89333333 81.028,10.3576667 80.916,10.773 C80.804,11.1883333 80.6453333,11.543 80.44,11.837 C80.2346667,12.131 79.9873333,12.3573333 79.698,12.516 C79.4086667,12.6746667 79.082,12.754 78.718,12.754 Z M86.502,14.168 C86.978,14.168 87.391,14.0606667 87.741,13.846 C88.091,13.6313333 88.4153333,13.3466667 88.714,12.992 L88.714,12.992 L88.756,12.992 L88.882,14 L90.198,14 L90.198,7.126 L88.588,7.126 L88.588,11.83 C88.3266667,12.166 88.0816667,12.4086667 87.853,12.558 C87.6243333,12.7073333 87.3606667,12.782 87.062,12.782 C86.6886667,12.782 86.418,12.6653333 86.25,12.432 C86.082,12.1986667 85.998,11.7973333 85.998,11.228 L85.998,11.228 L85.998,7.126 L84.388,7.126 L84.388,11.438 C84.388,12.3153333 84.556,12.9896667 84.892,13.461 C85.228,13.9323333 85.7646667,14.168 86.502,14.168 Z M94.664,14.168 C94.9346667,14.168 95.189,14.1423333 95.427,14.091 C95.665,14.0396667 95.8773333,13.9813333 96.064,13.916 L96.064,13.916 L95.784,12.726 C95.6813333,12.7726667 95.567,12.81 95.441,12.838 C95.315,12.866 95.1913333,12.88 95.07,12.88 C94.426,12.88 94.104,12.4786667 94.104,11.676 L94.104,11.676 L94.104,8.4 L95.854,8.4 L95.854,7.126 L94.104,7.126 L94.104,5.25 L92.76,5.25 L92.564,7.126 L91.5,7.196 L91.5,8.4 L92.48,8.4 L92.48,11.676 C92.48,12.0493333 92.5196667,12.3876667 92.599,12.691 C92.6783333,12.9943333 92.8043333,13.2556667 92.977,13.475 C93.1496667,13.6943333 93.3736667,13.8646667 93.649,13.986 C93.9243333,14.1073333 94.2626667,14.168 94.664,14.168 Z M98.864,14.168 C99.2186667,14.168 99.5033333,14.1213333 99.718,14.028 L99.718,14.028 L99.508,12.824 C99.4426667,12.8426667 99.3936667,12.852 99.361,12.852 L99.361,12.852 L99.256,12.852 C99.172,12.852 99.0926667,12.8123333 99.018,12.733 C98.9433333,12.6536667 98.906,12.516 98.906,12.32 L98.906,12.32 L98.906,4.116 L97.296,4.116 L97.296,12.236 C97.296,12.8333333 97.4126667,13.3046667 97.646,13.65 C97.8793333,13.9953333 98.2853333,14.168 98.864,14.168 Z M102.756,14.168 C103.166667,14.168 103.547,14.0793333 103.897,13.902 C104.247,13.7246667 104.576,13.5053333 104.884,13.244 L104.884,13.244 L104.94,13.244 L105.052,14 L106.382,14 L106.382,9.926 C106.382,8.96466667 106.169667,8.22966667 105.745,7.721 C105.320333,7.21233333 104.678667,6.958 103.82,6.958 C103.269333,6.958 102.756,7.04666667 102.28,7.224 C101.804,7.40133333 101.374667,7.61133333 100.992,7.854 L100.992,7.854 L101.58,8.932 C101.888,8.74533333 102.203,8.58666667 102.525,8.456 C102.847,8.32533333 103.176,8.26 103.512,8.26 C103.745333,8.26 103.941333,8.295 104.1,8.365 C104.258667,8.435 104.387,8.533 104.485,8.659 C104.583,8.785 104.653,8.92966667 104.695,9.093 C104.737,9.25633333 104.762667,9.42666667 104.772,9.604 C104.062667,9.67866667 103.453667,9.786 102.945,9.926 C102.436333,10.066 102.016333,10.2386667 101.685,10.444 C101.353667,10.6493333 101.111,10.8943333 100.957,11.179 C100.803,11.4636667 100.726,11.788 100.726,12.152 C100.726,12.7586667 100.912667,13.2463333 101.286,13.615 C101.659333,13.9836667 102.149333,14.168 102.756,14.168 Z M103.274,12.908 C102.984667,12.908 102.746667,12.838 102.56,12.698 C102.373333,12.558 102.28,12.334 102.28,12.026 C102.28,11.858 102.322,11.6993333 102.406,11.55 C102.49,11.4006667 102.63,11.2676667 102.826,11.151 C103.022,11.0343333 103.278667,10.9293333 103.596,10.836 C103.913333,10.7426667 104.305333,10.668 104.772,10.612 L104.772,10.612 L104.772,12.152 C104.510667,12.3946667 104.265667,12.5813333 104.037,12.712 C103.808333,12.8426667 103.554,12.908 103.274,12.908 Z M108.776,16.828 C109.149333,16.828 109.478333,16.7696667 109.763,16.653 C110.047667,16.5363333 110.299667,16.3683333 110.519,16.149 C110.738333,15.9296667 110.932,15.666 111.1,15.358 C111.268,15.05 111.422,14.7 111.562,14.308 L111.562,14.308 L114.054,7.126 L112.5,7.126 L111.464,10.5 C111.38,10.808 111.293667,11.1276667 111.205,11.459 C111.116333,11.7903333 111.03,12.1146667 110.946,12.432 L110.946,12.432 L110.89,12.432 C110.787333,12.1053333 110.687,11.7763333 110.589,11.445 C110.491,11.1136667 110.390667,10.7986667 110.288,10.5 L110.288,10.5 L109.098,7.126 L107.46,7.126 L110.162,13.916 L110.036,14.35 C109.924,14.6953333 109.758333,14.9776667 109.539,15.197 C109.319667,15.4163333 109.028,15.526 108.664,15.526 C108.58,15.526 108.493667,15.5143333 108.405,15.491 C108.316333,15.4676667 108.239333,15.4466667 108.174,15.428 L108.174,15.428 L107.88,16.688 C108.010667,16.7346667 108.146,16.7696667 108.286,16.793 C108.426,16.8163333 108.589333,16.828 108.776,16.828 Z M117.162,14.168 C117.591333,14.168 117.974,14.112 118.31,14 C118.646,13.888 118.926,13.7363333 119.15,13.545 C119.374,13.3536667 119.544333,13.1296667 119.661,12.873 C119.777667,12.6163333 119.836,12.3386667 119.836,12.04 C119.836,11.7226667 119.777667,11.4496667 119.661,11.221 C119.544333,10.9923333 119.390333,10.7986667 119.199,10.64 C119.007667,10.4813333 118.795333,10.3483333 118.562,10.241 C118.328667,10.1336667 118.095333,10.038 117.862,9.954 C117.675333,9.88866667 117.495667,9.82333333 117.323,9.758 C117.150333,9.69266667 116.998667,9.62266667 116.868,9.548 C116.737333,9.47333333 116.632333,9.387 116.553,9.289 C116.473667,9.191 116.434,9.072 116.434,8.932 C116.434,8.71733333 116.515667,8.53766667 116.679,8.393 C116.842333,8.24833333 117.096667,8.176 117.442,8.176 C117.712667,8.176 117.971667,8.22966667 118.219,8.337 C118.466333,8.44433333 118.711333,8.58666667 118.954,8.764 L118.954,8.764 L119.696,7.784 C119.416,7.56933333 119.084667,7.378 118.702,7.21 C118.319333,7.042 117.89,6.958 117.414,6.958 C116.639333,6.958 116.028,7.14933333 115.58,7.532 C115.132,7.91466667 114.908,8.40933333 114.908,9.016 C114.908,9.30533333 114.966333,9.555 115.083,9.765 C115.199667,9.975 115.349,10.1593333 115.531,10.318 C115.713,10.4766667 115.920667,10.612 116.154,10.724 C116.387333,10.836 116.616,10.934 116.84,11.018 C117.017333,11.0926667 117.194667,11.165 117.372,11.235 C117.549333,11.305 117.708,11.382 117.848,11.466 C117.988,11.55 118.1,11.6456667 118.184,11.753 C118.268,11.8603333 118.31,11.984 118.31,12.124 C118.31,12.3666667 118.221333,12.565 118.044,12.719 C117.866667,12.873 117.591333,12.95 117.218,12.95 C116.863333,12.95 116.534333,12.8823333 116.231,12.747 C115.927667,12.6116667 115.622,12.4226667 115.314,12.18 L115.314,12.18 L114.558,13.216 C114.894,13.4866667 115.293,13.713 115.755,13.895 C116.217,14.077 116.686,14.168 117.162,14.168 Z M77.948,33.54 L77.948,32.126 C78.62,32.0326667 79.1496667,31.7713333 79.537,31.342 C79.9243333,30.9126667 80.118,30.362 80.118,29.69 C80.118,29.186 80.0223333,28.773 79.831,28.451 C79.6396667,28.129 79.3993333,27.8583333 79.11,27.639 C78.8206667,27.4196667 78.5056667,27.233 78.165,27.079 C77.8243333,26.925 77.5093333,26.7663333 77.22,26.603 C76.9306667,26.4396667 76.6903333,26.2506667 76.499,26.036 C76.3076667,25.8213333 76.212,25.546 76.212,25.21 C76.212,24.7993333 76.338,24.4726667 76.59,24.23 C76.842,23.9873333 77.1826667,23.866 77.612,23.866 C77.9946667,23.866 78.3096667,23.936 78.557,24.076 C78.8043333,24.216 79.0586667,24.412 79.32,24.664 L79.32,24.664 L79.936,23.978 C79.684,23.7073333 79.4016667,23.474 79.089,23.278 C78.7763333,23.082 78.396,22.9606667 77.948,22.914 L77.948,22.914 L77.948,21.528 L77.108,21.528 L77.108,22.942 C76.492,23.0353333 75.9996667,23.2896667 75.631,23.705 C75.2623333,24.1203333 75.078,24.6406667 75.078,25.266 C75.078,25.7233333 75.1736667,26.099 75.365,26.393 C75.5563333,26.687 75.7966667,26.9366667 76.086,27.142 C76.3753333,27.3473333 76.6903333,27.5293333 77.031,27.688 C77.3716667,27.8466667 77.6866667,28.017 77.976,28.199 C78.2653333,28.381 78.5056667,28.5956667 78.697,28.843 C78.8883333,29.0903333 78.984,29.4006667 78.984,29.774 C78.984,30.2126667 78.8556667,30.5626667 78.599,30.824 C78.3423333,31.0853333 77.9526667,31.216 77.43,31.216 C77.0006667,31.216 76.6063333,31.125 76.247,30.943 C75.8876667,30.761 75.5586667,30.5393333 75.26,30.278 L75.26,30.278 L74.728,31.076 C75.0266667,31.3466667 75.386,31.5823333 75.806,31.783 C76.226,31.9836667 76.66,32.1073333 77.108,32.154 L77.108,32.154 L77.108,33.54 L77.948,33.54 Z M87.286,32 L87.286,31.006 L84.696,31.006 C84.4626667,31.006 84.2153333,31.0153333 83.954,31.034 C83.6926667,31.0526667 83.4406667,31.0713333 83.198,31.09 C83.73,30.5393333 84.2176667,30.019 84.661,29.529 C85.1043333,29.039 85.487,28.5676667 85.809,28.115 C86.131,27.6623333 86.383,27.2236667 86.565,26.799 C86.747,26.3743333 86.838,25.952 86.838,25.532 C86.838,24.7386667 86.6,24.1016667 86.124,23.621 C85.648,23.1403333 84.9946667,22.9 84.164,22.9 C83.576,22.9 83.072,23.0236667 82.652,23.271 C82.232,23.5183333 81.8353333,23.8473333 81.462,24.258 L81.462,24.258 L82.12,24.916 C82.3813333,24.6173333 82.6706667,24.363 82.988,24.153 C83.3053333,23.943 83.6506667,23.838 84.024,23.838 C84.5933333,23.838 85.018,24.0013333 85.298,24.328 C85.578,24.6546667 85.718,25.0746667 85.718,25.588 C85.718,25.952 85.6246667,26.3276667 85.438,26.715 C85.2513333,27.1023333 84.9806667,27.527 84.626,27.989 C84.2713333,28.451 83.8326667,28.9526667 83.31,29.494 C82.7873333,30.0353333 82.19,30.642 81.518,31.314 L81.518,31.314 L81.518,32 L87.286,32 Z M92.102,32 C92.6153333,32 93.0866667,31.944 93.516,31.832 C93.9453333,31.72 94.314,31.552 94.622,31.328 C94.93,31.104 95.168,30.824 95.336,30.488 C95.504,30.152 95.588,29.76 95.588,29.312 C95.588,28.6773333 95.4153333,28.178 95.07,27.814 C94.7246667,27.45 94.272,27.2166667 93.712,27.114 L93.712,27.114 L93.712,27.058 C94.1506667,26.918 94.4843333,26.6636667 94.713,26.295 C94.9416667,25.9263333 95.056,25.5133333 95.056,25.056 C95.056,24.6546667 94.979,24.3116667 94.825,24.027 C94.671,23.7423333 94.4563333,23.5113333 94.181,23.334 C93.9056667,23.1566667 93.5743333,23.026 93.187,22.942 C92.7996667,22.858 92.3726667,22.816 91.906,22.816 L91.906,22.816 L89.176,22.816 L89.176,32 L92.102,32 Z M91.696,26.722 L90.338,26.722 L90.338,23.74 L91.752,23.74 C92.4706667,23.74 93.0096667,23.852 93.369,24.076 C93.7283333,24.3 93.908,24.678 93.908,25.21 C93.908,25.6766667 93.7353333,26.0453333 93.39,26.316 C93.0446667,26.5866667 92.48,26.722 91.696,26.722 L91.696,26.722 Z M91.934,31.076 L90.338,31.076 L90.338,27.618 L91.934,27.618 C92.746,27.618 93.3666667,27.751 93.796,28.017 C94.2253333,28.283 94.44,28.7006667 94.44,29.27 C94.44,29.886 94.2206667,30.341 93.782,30.635 C93.3433333,30.929 92.7273333,31.076 91.934,31.076 L91.934,31.076 Z" id="Outlays$2B" fill="#666666" fill-rule="nonzero"></path>
                    <path d="M150.718,14.168 C151.315333,14.168 151.861333,14.0583333 152.356,13.839 C152.850667,13.6196667 153.277667,13.3023333 153.637,12.887 C153.996333,12.4716667 154.274,11.97 154.47,11.382 C154.666,10.794 154.764,10.1266667 154.764,9.38 C154.764,8.64266667 154.666,7.98233333 154.47,7.399 C154.274,6.81566667 153.996333,6.32333333 153.637,5.922 C153.277667,5.52066667 152.850667,5.21266667 152.356,4.998 C151.861333,4.78333333 151.315333,4.676 150.718,4.676 C150.120667,4.676 149.574667,4.78333333 149.08,4.998 C148.585333,5.21266667 148.160667,5.52066667 147.806,5.922 C147.451333,6.32333333 147.176,6.81566667 146.98,7.399 C146.784,7.98233333 146.686,8.64266667 146.686,9.38 C146.686,10.1266667 146.784,10.794 146.98,11.382 C147.176,11.97 147.451333,12.4716667 147.806,12.887 C148.160667,13.3023333 148.585333,13.6196667 149.08,13.839 C149.574667,14.0583333 150.120667,14.168 150.718,14.168 Z M150.718,12.754 C150.354,12.754 150.027333,12.6746667 149.738,12.516 C149.448667,12.3573333 149.201333,12.131 148.996,11.837 C148.790667,11.543 148.632,11.1883333 148.52,10.773 C148.408,10.3576667 148.352,9.89333333 148.352,9.38 C148.352,8.35333333 148.564333,7.54833333 148.989,6.965 C149.413667,6.38166667 149.99,6.09 150.718,6.09 C151.446,6.09 152.022333,6.38166667 152.447,6.965 C152.871667,7.54833333 153.084,8.35333333 153.084,9.38 C153.084,9.89333333 153.028,10.3576667 152.916,10.773 C152.804,11.1883333 152.645333,11.543 152.44,11.837 C152.234667,12.131 151.987333,12.3573333 151.698,12.516 C151.408667,12.6746667 151.082,12.754 150.718,12.754 Z M159.79,14.168 C160.172667,14.168 160.541333,14.084 160.896,13.916 C161.250667,13.748 161.563333,13.5053333 161.834,13.188 C162.104667,12.8706667 162.321667,12.481 162.485,12.019 C162.648333,11.557 162.73,11.032 162.73,10.444 C162.73,9.912 162.669333,9.43133333 162.548,9.002 C162.426667,8.57266667 162.249333,8.20633333 162.016,7.903 C161.782667,7.59966667 161.498,7.36633333 161.162,7.203 C160.826,7.03966667 160.443333,6.958 160.014,6.958 C159.659333,6.958 159.311667,7.03733333 158.971,7.196 C158.630333,7.35466667 158.315333,7.56 158.026,7.812 L158.026,7.812 L158.068,6.664 L158.068,4.116 L156.458,4.116 L156.458,14 L157.732,14 L157.872,13.272 L157.914,13.272 C158.203333,13.5613333 158.509,13.783 158.831,13.937 C159.153,14.091 159.472667,14.168 159.79,14.168 Z M159.454,12.838 C159.248667,12.838 159.027,12.796 158.789,12.712 C158.551,12.628 158.310667,12.4786667 158.068,12.264 L158.068,12.264 L158.068,9.058 C158.590667,8.54466667 159.094667,8.288 159.58,8.288 C160.102667,8.288 160.480667,8.47933333 160.714,8.862 C160.947333,9.24466667 161.064,9.78133333 161.064,10.472 C161.064,11.256 160.91,11.8463333 160.602,12.243 C160.294,12.6396667 159.911333,12.838 159.454,12.838 Z M165.908,14.168 C166.262667,14.168 166.547333,14.1213333 166.762,14.028 L166.762,14.028 L166.552,12.824 C166.486667,12.8426667 166.437667,12.852 166.405,12.852 L166.405,12.852 L166.3,12.852 C166.216,12.852 166.136667,12.8123333 166.062,12.733 C165.987333,12.6536667 165.95,12.516 165.95,12.32 L165.95,12.32 L165.95,4.116 L164.34,4.116 L164.34,12.236 C164.34,12.8333333 164.456667,13.3046667 164.69,13.65 C164.923333,13.9953333 165.329333,14.168 165.908,14.168 Z M168.946,5.922 C169.235333,5.922 169.473333,5.838 169.66,5.67 C169.846667,5.502 169.94,5.28266667 169.94,5.012 C169.94,4.74133333 169.846667,4.51966667 169.66,4.347 C169.473333,4.17433333 169.235333,4.088 168.946,4.088 C168.656667,4.088 168.418667,4.17433333 168.232,4.347 C168.045333,4.51966667 167.952,4.74133333 167.952,5.012 C167.952,5.28266667 168.045333,5.502 168.232,5.67 C168.418667,5.838 168.656667,5.922 168.946,5.922 Z M169.744,14 L169.744,7.126 L168.134,7.126 L168.134,14 L169.744,14 Z M174.196,17.038 C174.756,17.038 175.262333,16.975 175.715,16.849 C176.167667,16.723 176.552667,16.5526667 176.87,16.338 C177.187333,16.1233333 177.432333,15.8666667 177.605,15.568 C177.777667,15.2693333 177.864,14.952 177.864,14.616 C177.864,14.0186667 177.651667,13.587 177.227,13.321 C176.802333,13.055 176.174667,12.922 175.344,12.922 L175.344,12.922 L174.126,12.922 C173.706,12.922 173.414333,12.866 173.251,12.754 C173.087667,12.642 173.006,12.488 173.006,12.292 C173.006,12.1333333 173.036333,12.0073333 173.097,11.914 C173.157667,11.8206667 173.239333,11.7273333 173.342,11.634 C173.500667,11.6993333 173.659333,11.746 173.818,11.774 C173.976667,11.802 174.130667,11.816 174.28,11.816 C174.644,11.816 174.984667,11.7646667 175.302,11.662 C175.619333,11.5593333 175.894667,11.41 176.128,11.214 C176.361333,11.018 176.545667,10.7753333 176.681,10.486 C176.816333,10.1966667 176.884,9.86066667 176.884,9.478 C176.884,9.23533333 176.846667,9.01366667 176.772,8.813 C176.697333,8.61233333 176.604,8.44666667 176.492,8.316 L176.492,8.316 L177.752,8.316 L177.752,7.126 L175.288,7.126 C175.148,7.07933333 174.991667,7.03966667 174.819,7.007 C174.646333,6.97433333 174.466667,6.958 174.28,6.958 C173.916,6.958 173.570667,7.01166667 173.244,7.119 C172.917333,7.22633333 172.630333,7.385 172.383,7.595 C172.135667,7.805 171.937333,8.064 171.788,8.372 C171.638667,8.68 171.564,9.03 171.564,9.422 C171.564,9.83266667 171.655,10.1943333 171.837,10.507 C172.019,10.8196667 172.226667,11.0646667 172.46,11.242 L172.46,11.242 L172.46,11.298 C172.264,11.438 172.089,11.6176667 171.935,11.837 C171.781,12.0563333 171.704,12.3013333 171.704,12.572 C171.704,12.852 171.762333,13.0853333 171.879,13.272 C171.995667,13.4586667 172.142667,13.608 172.32,13.72 L172.32,13.72 L172.32,13.776 C172.002667,13.972 171.76,14.1936667 171.592,14.441 C171.424,14.6883333 171.34,14.9566667 171.34,15.246 C171.34,15.5446667 171.412333,15.806 171.557,16.03 C171.701667,16.254 171.9,16.4406667 172.152,16.59 C172.404,16.7393333 172.705,16.8513333 173.055,16.926 C173.405,17.0006667 173.785333,17.038 174.196,17.038 Z M174.28,10.808 C173.944,10.808 173.659333,10.689 173.426,10.451 C173.192667,10.213 173.076,9.87 173.076,9.422 C173.076,8.98333333 173.192667,8.64733333 173.426,8.414 C173.659333,8.18066667 173.944,8.064 174.28,8.064 C174.616,8.064 174.898333,8.183 175.127,8.421 C175.355667,8.659 175.47,8.99266667 175.47,9.422 C175.47,9.87 175.353333,10.213 175.12,10.451 C174.886667,10.689 174.606667,10.808 174.28,10.808 Z M174.448,15.988 C173.897333,15.988 173.465667,15.9016667 173.153,15.729 C172.840333,15.5563333 172.684,15.316 172.684,15.008 C172.684,14.672 172.861333,14.3686667 173.216,14.098 C173.468,14.1633333 173.780667,14.196 174.154,14.196 L174.154,14.196 L175.092,14.196 C175.484,14.196 175.785,14.2426667 175.995,14.336 C176.205,14.4293333 176.31,14.6113333 176.31,14.882 C176.31,15.1806667 176.139667,15.4396667 175.799,15.659 C175.458333,15.8783333 175.008,15.988 174.448,15.988 Z M180.496,14.168 C180.906667,14.168 181.287,14.0793333 181.637,13.902 C181.987,13.7246667 182.316,13.5053333 182.624,13.244 L182.624,13.244 L182.68,13.244 L182.792,14 L184.122,14 L184.122,9.926 C184.122,8.96466667 183.909667,8.22966667 183.485,7.721 C183.060333,7.21233333 182.418667,6.958 181.56,6.958 C181.009333,6.958 180.496,7.04666667 180.02,7.224 C179.544,7.40133333 179.114667,7.61133333 178.732,7.854 L178.732,7.854 L179.32,8.932 C179.628,8.74533333 179.943,8.58666667 180.265,8.456 C180.587,8.32533333 180.916,8.26 181.252,8.26 C181.485333,8.26 181.681333,8.295 181.84,8.365 C181.998667,8.435 182.127,8.533 182.225,8.659 C182.323,8.785 182.393,8.92966667 182.435,9.093 C182.477,9.25633333 182.502667,9.42666667 182.512,9.604 C181.802667,9.67866667 181.193667,9.786 180.685,9.926 C180.176333,10.066 179.756333,10.2386667 179.425,10.444 C179.093667,10.6493333 178.851,10.8943333 178.697,11.179 C178.543,11.4636667 178.466,11.788 178.466,12.152 C178.466,12.7586667 178.652667,13.2463333 179.026,13.615 C179.399333,13.9836667 179.889333,14.168 180.496,14.168 Z M181.014,12.908 C180.724667,12.908 180.486667,12.838 180.3,12.698 C180.113333,12.558 180.02,12.334 180.02,12.026 C180.02,11.858 180.062,11.6993333 180.146,11.55 C180.23,11.4006667 180.37,11.2676667 180.566,11.151 C180.762,11.0343333 181.018667,10.9293333 181.336,10.836 C181.653333,10.7426667 182.045333,10.668 182.512,10.612 L182.512,10.612 L182.512,12.152 C182.250667,12.3946667 182.005667,12.5813333 181.777,12.712 C181.548333,12.8426667 181.294,12.908 181.014,12.908 Z M188.252,14.168 C188.522667,14.168 188.777,14.1423333 189.015,14.091 C189.253,14.0396667 189.465333,13.9813333 189.652,13.916 L189.652,13.916 L189.372,12.726 C189.269333,12.7726667 189.155,12.81 189.029,12.838 C188.903,12.866 188.779333,12.88 188.658,12.88 C188.014,12.88 187.692,12.4786667 187.692,11.676 L187.692,11.676 L187.692,8.4 L189.442,8.4 L189.442,7.126 L187.692,7.126 L187.692,5.25 L186.348,5.25 L186.152,7.126 L185.088,7.196 L185.088,8.4 L186.068,8.4 L186.068,11.676 C186.068,12.0493333 186.107667,12.3876667 186.187,12.691 C186.266333,12.9943333 186.392333,13.2556667 186.565,13.475 C186.737667,13.6943333 186.961667,13.8646667 187.237,13.986 C187.512333,14.1073333 187.850667,14.168 188.252,14.168 Z M191.696,5.922 C191.985333,5.922 192.223333,5.838 192.41,5.67 C192.596667,5.502 192.69,5.28266667 192.69,5.012 C192.69,4.74133333 192.596667,4.51966667 192.41,4.347 C192.223333,4.17433333 191.985333,4.088 191.696,4.088 C191.406667,4.088 191.168667,4.17433333 190.982,4.347 C190.795333,4.51966667 190.702,4.74133333 190.702,5.012 C190.702,5.28266667 190.795333,5.502 190.982,5.67 C191.168667,5.838 191.406667,5.922 191.696,5.922 Z M192.494,14 L192.494,7.126 L190.884,7.126 L190.884,14 L192.494,14 Z M197.366,14.168 C197.795333,14.168 198.208333,14.0886667 198.605,13.93 C199.001667,13.7713333 199.349333,13.538 199.648,13.23 C199.946667,12.922 200.187,12.544 200.369,12.096 C200.551,11.648 200.642,11.1393333 200.642,10.57 C200.642,10.0006667 200.551,9.492 200.369,9.044 C200.187,8.596 199.946667,8.218 199.648,7.91 C199.349333,7.602 199.001667,7.36633333 198.605,7.203 C198.208333,7.03966667 197.795333,6.958 197.366,6.958 C196.936667,6.958 196.526,7.03966667 196.134,7.203 C195.742,7.36633333 195.394333,7.602 195.091,7.91 C194.787667,8.218 194.547333,8.596 194.37,9.044 C194.192667,9.492 194.104,10.0006667 194.104,10.57 C194.104,11.1393333 194.192667,11.648 194.37,12.096 C194.547333,12.544 194.787667,12.922 195.091,13.23 C195.394333,13.538 195.742,13.7713333 196.134,13.93 C196.526,14.0886667 196.936667,14.168 197.366,14.168 Z M197.366,12.852 C196.862,12.852 196.467667,12.6443333 196.183,12.229 C195.898333,11.8136667 195.756,11.2606667 195.756,10.57 C195.756,9.87 195.898333,9.31233333 196.183,8.897 C196.467667,8.48166667 196.862,8.274 197.366,8.274 C197.87,8.274 198.266667,8.48166667 198.556,8.897 C198.845333,9.31233333 198.99,9.87 198.99,10.57 C198.99,11.2606667 198.845333,11.8136667 198.556,12.229 C198.266667,12.6443333 197.87,12.852 197.366,12.852 Z M203.848,14 L203.848,9.198 C204.137333,8.918 204.396333,8.70566667 204.625,8.561 C204.853667,8.41633333 205.117333,8.344 205.416,8.344 C205.798667,8.344 206.074,8.46066667 206.242,8.694 C206.41,8.92733333 206.494,9.32866667 206.494,9.898 L206.494,9.898 L206.494,14 L208.104,14 L208.104,9.688 C208.104,8.81066667 207.936,8.13633333 207.6,7.665 C207.264,7.19366667 206.727333,6.958 205.99,6.958 C205.514,6.958 205.096333,7.06533333 204.737,7.28 C204.377667,7.49466667 204.044,7.75133333 203.736,8.05 L203.736,8.05 L203.68,8.05 L203.568,7.126 L202.238,7.126 L202.238,14 L203.848,14 Z M211.996,14.168 C212.425333,14.168 212.808,14.112 213.144,14 C213.48,13.888 213.76,13.7363333 213.984,13.545 C214.208,13.3536667 214.378333,13.1296667 214.495,12.873 C214.611667,12.6163333 214.67,12.3386667 214.67,12.04 C214.67,11.7226667 214.611667,11.4496667 214.495,11.221 C214.378333,10.9923333 214.224333,10.7986667 214.033,10.64 C213.841667,10.4813333 213.629333,10.3483333 213.396,10.241 C213.162667,10.1336667 212.929333,10.038 212.696,9.954 C212.509333,9.88866667 212.329667,9.82333333 212.157,9.758 C211.984333,9.69266667 211.832667,9.62266667 211.702,9.548 C211.571333,9.47333333 211.466333,9.387 211.387,9.289 C211.307667,9.191 211.268,9.072 211.268,8.932 C211.268,8.71733333 211.349667,8.53766667 211.513,8.393 C211.676333,8.24833333 211.930667,8.176 212.276,8.176 C212.546667,8.176 212.805667,8.22966667 213.053,8.337 C213.300333,8.44433333 213.545333,8.58666667 213.788,8.764 L213.788,8.764 L214.53,7.784 C214.25,7.56933333 213.918667,7.378 213.536,7.21 C213.153333,7.042 212.724,6.958 212.248,6.958 C211.473333,6.958 210.862,7.14933333 210.414,7.532 C209.966,7.91466667 209.742,8.40933333 209.742,9.016 C209.742,9.30533333 209.800333,9.555 209.917,9.765 C210.033667,9.975 210.183,10.1593333 210.365,10.318 C210.547,10.4766667 210.754667,10.612 210.988,10.724 C211.221333,10.836 211.45,10.934 211.674,11.018 C211.851333,11.0926667 212.028667,11.165 212.206,11.235 C212.383333,11.305 212.542,11.382 212.682,11.466 C212.822,11.55 212.934,11.6456667 213.018,11.753 C213.102,11.8603333 213.144,11.984 213.144,12.124 C213.144,12.3666667 213.055333,12.565 212.878,12.719 C212.700667,12.873 212.425333,12.95 212.052,12.95 C211.697333,12.95 211.368333,12.8823333 211.065,12.747 C210.761667,12.6116667 210.456,12.4226667 210.148,12.18 L210.148,12.18 L209.392,13.216 C209.728,13.4866667 210.127,13.713 210.589,13.895 C211.051,14.077 211.52,14.168 211.996,14.168 Z M149.948,33.54 L149.948,32.126 C150.62,32.0326667 151.149667,31.7713333 151.537,31.342 C151.924333,30.9126667 152.118,30.362 152.118,29.69 C152.118,29.186 152.022333,28.773 151.831,28.451 C151.639667,28.129 151.399333,27.8583333 151.11,27.639 C150.820667,27.4196667 150.505667,27.233 150.165,27.079 C149.824333,26.925 149.509333,26.7663333 149.22,26.603 C148.930667,26.4396667 148.690333,26.2506667 148.499,26.036 C148.307667,25.8213333 148.212,25.546 148.212,25.21 C148.212,24.7993333 148.338,24.4726667 148.59,24.23 C148.842,23.9873333 149.182667,23.866 149.612,23.866 C149.994667,23.866 150.309667,23.936 150.557,24.076 C150.804333,24.216 151.058667,24.412 151.32,24.664 L151.32,24.664 L151.936,23.978 C151.684,23.7073333 151.401667,23.474 151.089,23.278 C150.776333,23.082 150.396,22.9606667 149.948,22.914 L149.948,22.914 L149.948,21.528 L149.108,21.528 L149.108,22.942 C148.492,23.0353333 147.999667,23.2896667 147.631,23.705 C147.262333,24.1203333 147.078,24.6406667 147.078,25.266 C147.078,25.7233333 147.173667,26.099 147.365,26.393 C147.556333,26.687 147.796667,26.9366667 148.086,27.142 C148.375333,27.3473333 148.690333,27.5293333 149.031,27.688 C149.371667,27.8466667 149.686667,28.017 149.976,28.199 C150.265333,28.381 150.505667,28.5956667 150.697,28.843 C150.888333,29.0903333 150.984,29.4006667 150.984,29.774 C150.984,30.2126667 150.855667,30.5626667 150.599,30.824 C150.342333,31.0853333 149.952667,31.216 149.43,31.216 C149.000667,31.216 148.606333,31.125 148.247,30.943 C147.887667,30.761 147.558667,30.5393333 147.26,30.278 L147.26,30.278 L146.728,31.076 C147.026667,31.3466667 147.386,31.5823333 147.806,31.783 C148.226,31.9836667 148.66,32.1073333 149.108,32.154 L149.108,32.154 L149.108,33.54 L149.948,33.54 Z M156.71,32.168 C157.074,32.168 157.414667,32.098 157.732,31.958 C158.049333,31.818 158.329333,31.622 158.572,31.37 C158.814667,31.118 159.006,30.817 159.146,30.467 C159.286,30.117 159.356,29.7273333 159.356,29.298 C159.356,28.374 159.125,27.6833333 158.663,27.226 C158.201,26.7686667 157.582667,26.54 156.808,26.54 C156.444,26.54 156.075333,26.6403333 155.702,26.841 C155.328667,27.0416667 155.002,27.3146667 154.722,27.66 C154.731333,26.9506667 154.801333,26.3556667 154.932,25.875 C155.062667,25.3943333 155.235333,25.0046667 155.45,24.706 C155.664667,24.4073333 155.912,24.1926667 156.192,24.062 C156.472,23.9313333 156.766,23.866 157.074,23.866 C157.354,23.866 157.622333,23.929 157.879,24.055 C158.135667,24.181 158.357333,24.3513333 158.544,24.566 L158.544,24.566 L159.188,23.852 C158.936,23.5813333 158.635,23.355 158.285,23.173 C157.935,22.991 157.517333,22.9 157.032,22.9 C156.584,22.9 156.157,22.991 155.751,23.173 C155.345,23.355 154.983333,23.6443333 154.666,24.041 C154.348667,24.4376667 154.096667,24.951 153.91,25.581 C153.723333,26.211 153.63,26.974 153.63,27.87 C153.63,28.5886667 153.709333,29.2163333 153.868,29.753 C154.026667,30.2896667 154.243667,30.7376667 154.519,31.097 C154.794333,31.4563333 155.118667,31.7246667 155.492,31.902 C155.865333,32.0793333 156.271333,32.168 156.71,32.168 Z M156.71,31.258 C156.140667,31.258 155.690333,31.0316667 155.359,30.579 C155.027667,30.1263333 154.824667,29.4613333 154.75,28.584 C155.03,28.164 155.338,27.863 155.674,27.681 C156.01,27.499 156.322667,27.408 156.612,27.408 C157.172,27.408 157.587333,27.576 157.858,27.912 C158.128667,28.248 158.264,28.71 158.264,29.298 C158.264,29.5966667 158.224333,29.865 158.145,30.103 C158.065667,30.341 157.956,30.5463333 157.816,30.719 C157.676,30.8916667 157.512667,31.0246667 157.326,31.118 C157.139333,31.2113333 156.934,31.258 156.71,31.258 Z M164.102,32 C164.615333,32 165.086667,31.944 165.516,31.832 C165.945333,31.72 166.314,31.552 166.622,31.328 C166.93,31.104 167.168,30.824 167.336,30.488 C167.504,30.152 167.588,29.76 167.588,29.312 C167.588,28.6773333 167.415333,28.178 167.07,27.814 C166.724667,27.45 166.272,27.2166667 165.712,27.114 L165.712,27.114 L165.712,27.058 C166.150667,26.918 166.484333,26.6636667 166.713,26.295 C166.941667,25.9263333 167.056,25.5133333 167.056,25.056 C167.056,24.6546667 166.979,24.3116667 166.825,24.027 C166.671,23.7423333 166.456333,23.5113333 166.181,23.334 C165.905667,23.1566667 165.574333,23.026 165.187,22.942 C164.799667,22.858 164.372667,22.816 163.906,22.816 L163.906,22.816 L161.176,22.816 L161.176,32 L164.102,32 Z M163.696,26.722 L162.338,26.722 L162.338,23.74 L163.752,23.74 C164.470667,23.74 165.009667,23.852 165.369,24.076 C165.728333,24.3 165.908,24.678 165.908,25.21 C165.908,25.6766667 165.735333,26.0453333 165.39,26.316 C165.044667,26.5866667 164.48,26.722 163.696,26.722 L163.696,26.722 Z M163.934,31.076 L162.338,31.076 L162.338,27.618 L163.934,27.618 C164.746,27.618 165.366667,27.751 165.796,28.017 C166.225333,28.283 166.44,28.7006667 166.44,29.27 C166.44,29.886 166.220667,30.341 165.782,30.635 C165.343333,30.929 164.727333,31.076 163.934,31.076 L163.934,31.076 Z" id="Obligations$6B" fill="#666666" fill-rule="nonzero"></path>
                    <path d="M245.592,14.168 C246.124,14.168 246.602333,14.091 247.027,13.937 C247.451667,13.783 247.815667,13.538 248.119,13.202 C248.422333,12.866 248.653333,12.4343333 248.812,11.907 C248.970667,11.3796667 249.05,10.738 249.05,9.982 L249.05,9.982 L249.05,4.844 L247.496,4.844 L247.496,10.108 C247.496,10.6026667 247.449333,11.0203333 247.356,11.361 C247.262667,11.7016667 247.132,11.9746667 246.964,12.18 C246.796,12.3853333 246.595333,12.5323333 246.362,12.621 C246.128667,12.7096667 245.872,12.754 245.592,12.754 C245.312,12.754 245.06,12.7096667 244.836,12.621 C244.612,12.5323333 244.418333,12.3853333 244.255,12.18 C244.091667,11.9746667 243.965667,11.7016667 243.877,11.361 C243.788333,11.0203333 243.744,10.6026667 243.744,10.108 L243.744,10.108 L243.744,4.844 L242.12,4.844 L242.12,9.982 C242.12,10.738 242.201667,11.3796667 242.365,11.907 C242.528333,12.4343333 242.761667,12.866 243.065,13.202 C243.368333,13.538 243.732333,13.783 244.157,13.937 C244.581667,14.091 245.06,14.168 245.592,14.168 Z M252.802,14 L252.802,9.198 C253.091333,8.918 253.350333,8.70566667 253.579,8.561 C253.807667,8.41633333 254.071333,8.344 254.37,8.344 C254.752667,8.344 255.028,8.46066667 255.196,8.694 C255.364,8.92733333 255.448,9.32866667 255.448,9.898 L255.448,9.898 L255.448,14 L257.058,14 L257.058,9.688 C257.058,8.81066667 256.89,8.13633333 256.554,7.665 C256.218,7.19366667 255.681333,6.958 254.944,6.958 C254.468,6.958 254.050333,7.06533333 253.691,7.28 C253.331667,7.49466667 252.998,7.75133333 252.69,8.05 L252.69,8.05 L252.634,8.05 L252.522,7.126 L251.192,7.126 L251.192,14 L252.802,14 Z M261.846,14.168 C262.275333,14.168 262.688333,14.0886667 263.085,13.93 C263.481667,13.7713333 263.829333,13.538 264.128,13.23 C264.426667,12.922 264.667,12.544 264.849,12.096 C265.031,11.648 265.122,11.1393333 265.122,10.57 C265.122,10.0006667 265.031,9.492 264.849,9.044 C264.667,8.596 264.426667,8.218 264.128,7.91 C263.829333,7.602 263.481667,7.36633333 263.085,7.203 C262.688333,7.03966667 262.275333,6.958 261.846,6.958 C261.416667,6.958 261.006,7.03966667 260.614,7.203 C260.222,7.36633333 259.874333,7.602 259.571,7.91 C259.267667,8.218 259.027333,8.596 258.85,9.044 C258.672667,9.492 258.584,10.0006667 258.584,10.57 C258.584,11.1393333 258.672667,11.648 258.85,12.096 C259.027333,12.544 259.267667,12.922 259.571,13.23 C259.874333,13.538 260.222,13.7713333 260.614,13.93 C261.006,14.0886667 261.416667,14.168 261.846,14.168 Z M261.846,12.852 C261.342,12.852 260.947667,12.6443333 260.663,12.229 C260.378333,11.8136667 260.236,11.2606667 260.236,10.57 C260.236,9.87 260.378333,9.31233333 260.663,8.897 C260.947667,8.48166667 261.342,8.274 261.846,8.274 C262.35,8.274 262.746667,8.48166667 263.036,8.897 C263.325333,9.31233333 263.47,9.87 263.47,10.57 C263.47,11.2606667 263.325333,11.8136667 263.036,12.229 C262.746667,12.6443333 262.35,12.852 261.846,12.852 Z M270.05,14.168 C270.432667,14.168 270.801333,14.084 271.156,13.916 C271.510667,13.748 271.823333,13.5053333 272.094,13.188 C272.364667,12.8706667 272.581667,12.481 272.745,12.019 C272.908333,11.557 272.99,11.032 272.99,10.444 C272.99,9.912 272.929333,9.43133333 272.808,9.002 C272.686667,8.57266667 272.509333,8.20633333 272.276,7.903 C272.042667,7.59966667 271.758,7.36633333 271.422,7.203 C271.086,7.03966667 270.703333,6.958 270.274,6.958 C269.919333,6.958 269.571667,7.03733333 269.231,7.196 C268.890333,7.35466667 268.575333,7.56 268.286,7.812 L268.286,7.812 L268.328,6.664 L268.328,4.116 L266.718,4.116 L266.718,14 L267.992,14 L268.132,13.272 L268.174,13.272 C268.463333,13.5613333 268.769,13.783 269.091,13.937 C269.413,14.091 269.732667,14.168 270.05,14.168 Z M269.714,12.838 C269.508667,12.838 269.287,12.796 269.049,12.712 C268.811,12.628 268.570667,12.4786667 268.328,12.264 L268.328,12.264 L268.328,9.058 C268.850667,8.54466667 269.354667,8.288 269.84,8.288 C270.362667,8.288 270.740667,8.47933333 270.974,8.862 C271.207333,9.24466667 271.324,9.78133333 271.324,10.472 C271.324,11.256 271.17,11.8463333 270.862,12.243 C270.554,12.6396667 270.171333,12.838 269.714,12.838 Z M276.168,14.168 C276.522667,14.168 276.807333,14.1213333 277.022,14.028 L277.022,14.028 L276.812,12.824 C276.746667,12.8426667 276.697667,12.852 276.665,12.852 L276.665,12.852 L276.56,12.852 C276.476,12.852 276.396667,12.8123333 276.322,12.733 C276.247333,12.6536667 276.21,12.516 276.21,12.32 L276.21,12.32 L276.21,4.116 L274.6,4.116 L274.6,12.236 C274.6,12.8333333 274.716667,13.3046667 274.95,13.65 C275.183333,13.9953333 275.589333,14.168 276.168,14.168 Z M279.206,5.922 C279.495333,5.922 279.733333,5.838 279.92,5.67 C280.106667,5.502 280.2,5.28266667 280.2,5.012 C280.2,4.74133333 280.106667,4.51966667 279.92,4.347 C279.733333,4.17433333 279.495333,4.088 279.206,4.088 C278.916667,4.088 278.678667,4.17433333 278.492,4.347 C278.305333,4.51966667 278.212,4.74133333 278.212,5.012 C278.212,5.28266667 278.305333,5.502 278.492,5.67 C278.678667,5.838 278.916667,5.922 279.206,5.922 Z M280.004,14 L280.004,7.126 L278.394,7.126 L278.394,14 L280.004,14 Z M284.456,17.038 C285.016,17.038 285.522333,16.975 285.975,16.849 C286.427667,16.723 286.812667,16.5526667 287.13,16.338 C287.447333,16.1233333 287.692333,15.8666667 287.865,15.568 C288.037667,15.2693333 288.124,14.952 288.124,14.616 C288.124,14.0186667 287.911667,13.587 287.487,13.321 C287.062333,13.055 286.434667,12.922 285.604,12.922 L285.604,12.922 L284.386,12.922 C283.966,12.922 283.674333,12.866 283.511,12.754 C283.347667,12.642 283.266,12.488 283.266,12.292 C283.266,12.1333333 283.296333,12.0073333 283.357,11.914 C283.417667,11.8206667 283.499333,11.7273333 283.602,11.634 C283.760667,11.6993333 283.919333,11.746 284.078,11.774 C284.236667,11.802 284.390667,11.816 284.54,11.816 C284.904,11.816 285.244667,11.7646667 285.562,11.662 C285.879333,11.5593333 286.154667,11.41 286.388,11.214 C286.621333,11.018 286.805667,10.7753333 286.941,10.486 C287.076333,10.1966667 287.144,9.86066667 287.144,9.478 C287.144,9.23533333 287.106667,9.01366667 287.032,8.813 C286.957333,8.61233333 286.864,8.44666667 286.752,8.316 L286.752,8.316 L288.012,8.316 L288.012,7.126 L285.548,7.126 C285.408,7.07933333 285.251667,7.03966667 285.079,7.007 C284.906333,6.97433333 284.726667,6.958 284.54,6.958 C284.176,6.958 283.830667,7.01166667 283.504,7.119 C283.177333,7.22633333 282.890333,7.385 282.643,7.595 C282.395667,7.805 282.197333,8.064 282.048,8.372 C281.898667,8.68 281.824,9.03 281.824,9.422 C281.824,9.83266667 281.915,10.1943333 282.097,10.507 C282.279,10.8196667 282.486667,11.0646667 282.72,11.242 L282.72,11.242 L282.72,11.298 C282.524,11.438 282.349,11.6176667 282.195,11.837 C282.041,12.0563333 281.964,12.3013333 281.964,12.572 C281.964,12.852 282.022333,13.0853333 282.139,13.272 C282.255667,13.4586667 282.402667,13.608 282.58,13.72 L282.58,13.72 L282.58,13.776 C282.262667,13.972 282.02,14.1936667 281.852,14.441 C281.684,14.6883333 281.6,14.9566667 281.6,15.246 C281.6,15.5446667 281.672333,15.806 281.817,16.03 C281.961667,16.254 282.16,16.4406667 282.412,16.59 C282.664,16.7393333 282.965,16.8513333 283.315,16.926 C283.665,17.0006667 284.045333,17.038 284.456,17.038 Z M284.54,10.808 C284.204,10.808 283.919333,10.689 283.686,10.451 C283.452667,10.213 283.336,9.87 283.336,9.422 C283.336,8.98333333 283.452667,8.64733333 283.686,8.414 C283.919333,8.18066667 284.204,8.064 284.54,8.064 C284.876,8.064 285.158333,8.183 285.387,8.421 C285.615667,8.659 285.73,8.99266667 285.73,9.422 C285.73,9.87 285.613333,10.213 285.38,10.451 C285.146667,10.689 284.866667,10.808 284.54,10.808 Z M284.708,15.988 C284.157333,15.988 283.725667,15.9016667 283.413,15.729 C283.100333,15.5563333 282.944,15.316 282.944,15.008 C282.944,14.672 283.121333,14.3686667 283.476,14.098 C283.728,14.1633333 284.040667,14.196 284.414,14.196 L284.414,14.196 L285.352,14.196 C285.744,14.196 286.045,14.2426667 286.255,14.336 C286.465,14.4293333 286.57,14.6113333 286.57,14.882 C286.57,15.1806667 286.399667,15.4396667 286.059,15.659 C285.718333,15.8783333 285.268,15.988 284.708,15.988 Z M290.756,14.168 C291.166667,14.168 291.547,14.0793333 291.897,13.902 C292.247,13.7246667 292.576,13.5053333 292.884,13.244 L292.884,13.244 L292.94,13.244 L293.052,14 L294.382,14 L294.382,9.926 C294.382,8.96466667 294.169667,8.22966667 293.745,7.721 C293.320333,7.21233333 292.678667,6.958 291.82,6.958 C291.269333,6.958 290.756,7.04666667 290.28,7.224 C289.804,7.40133333 289.374667,7.61133333 288.992,7.854 L288.992,7.854 L289.58,8.932 C289.888,8.74533333 290.203,8.58666667 290.525,8.456 C290.847,8.32533333 291.176,8.26 291.512,8.26 C291.745333,8.26 291.941333,8.295 292.1,8.365 C292.258667,8.435 292.387,8.533 292.485,8.659 C292.583,8.785 292.653,8.92966667 292.695,9.093 C292.737,9.25633333 292.762667,9.42666667 292.772,9.604 C292.062667,9.67866667 291.453667,9.786 290.945,9.926 C290.436333,10.066 290.016333,10.2386667 289.685,10.444 C289.353667,10.6493333 289.111,10.8943333 288.957,11.179 C288.803,11.4636667 288.726,11.788 288.726,12.152 C288.726,12.7586667 288.912667,13.2463333 289.286,13.615 C289.659333,13.9836667 290.149333,14.168 290.756,14.168 Z M291.274,12.908 C290.984667,12.908 290.746667,12.838 290.56,12.698 C290.373333,12.558 290.28,12.334 290.28,12.026 C290.28,11.858 290.322,11.6993333 290.406,11.55 C290.49,11.4006667 290.63,11.2676667 290.826,11.151 C291.022,11.0343333 291.278667,10.9293333 291.596,10.836 C291.913333,10.7426667 292.305333,10.668 292.772,10.612 L292.772,10.612 L292.772,12.152 C292.510667,12.3946667 292.265667,12.5813333 292.037,12.712 C291.808333,12.8426667 291.554,12.908 291.274,12.908 Z M298.512,14.168 C298.782667,14.168 299.037,14.1423333 299.275,14.091 C299.513,14.0396667 299.725333,13.9813333 299.912,13.916 L299.912,13.916 L299.632,12.726 C299.529333,12.7726667 299.415,12.81 299.289,12.838 C299.163,12.866 299.039333,12.88 298.918,12.88 C298.274,12.88 297.952,12.4786667 297.952,11.676 L297.952,11.676 L297.952,8.4 L299.702,8.4 L299.702,7.126 L297.952,7.126 L297.952,5.25 L296.608,5.25 L296.412,7.126 L295.348,7.196 L295.348,8.4 L296.328,8.4 L296.328,11.676 C296.328,12.0493333 296.367667,12.3876667 296.447,12.691 C296.526333,12.9943333 296.652333,13.2556667 296.825,13.475 C296.997667,13.6943333 297.221667,13.8646667 297.497,13.986 C297.772333,14.1073333 298.110667,14.168 298.512,14.168 Z M303.86,14.168 C304.298667,14.168 304.718667,14.098 305.12,13.958 C305.521333,13.818 305.885333,13.6406667 306.212,13.426 L306.212,13.426 L305.666,12.418 C305.414,12.5766667 305.159667,12.7003333 304.903,12.789 C304.646333,12.8776667 304.368667,12.922 304.07,12.922 C303.51,12.922 303.050333,12.7563333 302.691,12.425 C302.331667,12.0936667 302.114667,11.62 302.04,11.004 L302.04,11.004 L306.408,11.004 C306.426667,10.92 306.443,10.808 306.457,10.668 C306.471,10.528 306.478,10.3786667 306.478,10.22 C306.478,9.744 306.417333,9.30533333 306.296,8.904 C306.174667,8.50266667 305.995,8.15733333 305.757,7.868 C305.519,7.57866667 305.222667,7.35466667 304.868,7.196 C304.513333,7.03733333 304.102667,6.958 303.636,6.958 C303.234667,6.958 302.842667,7.042 302.46,7.21 C302.077333,7.378 301.739,7.616 301.445,7.924 C301.151,8.232 300.915333,8.61 300.738,9.058 C300.560667,9.506 300.472,10.01 300.472,10.57 C300.472,11.1393333 300.558333,11.6456667 300.731,12.089 C300.903667,12.5323333 301.144,12.908 301.452,13.216 C301.76,13.524 302.119333,13.7596667 302.53,13.923 C302.940667,14.0863333 303.384,14.168 303.86,14.168 Z M305.078,9.912 L302.026,9.912 C302.100667,9.352 302.292,8.92733333 302.6,8.638 C302.908,8.34866667 303.267333,8.204 303.678,8.204 C304.154,8.204 304.506333,8.35566667 304.735,8.659 C304.963667,8.96233333 305.078,9.38 305.078,9.912 L305.078,9.912 Z M310.426,14.168 C310.799333,14.168 311.154,14.0793333 311.49,13.902 C311.826,13.7246667 312.12,13.51 312.372,13.258 L312.372,13.258 L312.428,13.258 L312.54,14 L313.87,14 L313.87,4.116 L312.26,4.116 L312.26,6.608 L312.316,7.714 C312.045333,7.48066667 311.774667,7.29633333 311.504,7.161 C311.233333,7.02566667 310.902,6.958 310.51,6.958 C310.136667,6.958 309.775,7.042 309.425,7.21 C309.075,7.378 308.764667,7.616 308.494,7.924 C308.223333,8.232 308.006333,8.61 307.843,9.058 C307.679667,9.506 307.598,10.01 307.598,10.57 C307.598,11.7086667 307.852333,12.593 308.361,13.223 C308.869667,13.853 309.558,14.168 310.426,14.168 Z M310.818,12.838 C310.314,12.838 309.929,12.6443333 309.663,12.257 C309.397,11.8696667 309.264,11.3026667 309.264,10.556 C309.264,9.828 309.418,9.268 309.726,8.876 C310.034,8.484 310.412,8.288 310.86,8.288 C311.093333,8.288 311.324333,8.33 311.553,8.414 C311.781667,8.498 312.017333,8.64733333 312.26,8.862 L312.26,8.862 L312.26,12.068 C311.812,12.5813333 311.331333,12.838 310.818,12.838 Z M244.948,33.54 L244.948,32.126 C245.62,32.0326667 246.149667,31.7713333 246.537,31.342 C246.924333,30.9126667 247.118,30.362 247.118,29.69 C247.118,29.186 247.022333,28.773 246.831,28.451 C246.639667,28.129 246.399333,27.8583333 246.11,27.639 C245.820667,27.4196667 245.505667,27.233 245.165,27.079 C244.824333,26.925 244.509333,26.7663333 244.22,26.603 C243.930667,26.4396667 243.690333,26.2506667 243.499,26.036 C243.307667,25.8213333 243.212,25.546 243.212,25.21 C243.212,24.7993333 243.338,24.4726667 243.59,24.23 C243.842,23.9873333 244.182667,23.866 244.612,23.866 C244.994667,23.866 245.309667,23.936 245.557,24.076 C245.804333,24.216 246.058667,24.412 246.32,24.664 L246.32,24.664 L246.936,23.978 C246.684,23.7073333 246.401667,23.474 246.089,23.278 C245.776333,23.082 245.396,22.9606667 244.948,22.914 L244.948,22.914 L244.948,21.528 L244.108,21.528 L244.108,22.942 C243.492,23.0353333 242.999667,23.2896667 242.631,23.705 C242.262333,24.1203333 242.078,24.6406667 242.078,25.266 C242.078,25.7233333 242.173667,26.099 242.365,26.393 C242.556333,26.687 242.796667,26.9366667 243.086,27.142 C243.375333,27.3473333 243.690333,27.5293333 244.031,27.688 C244.371667,27.8466667 244.686667,28.017 244.976,28.199 C245.265333,28.381 245.505667,28.5956667 245.697,28.843 C245.888333,29.0903333 245.984,29.4006667 245.984,29.774 C245.984,30.2126667 245.855667,30.5626667 245.599,30.824 C245.342333,31.0853333 244.952667,31.216 244.43,31.216 C244.000667,31.216 243.606333,31.125 243.247,30.943 C242.887667,30.761 242.558667,30.5393333 242.26,30.278 L242.26,30.278 L241.728,31.076 C242.026667,31.3466667 242.386,31.5823333 242.806,31.783 C243.226,31.9836667 243.66,32.1073333 244.108,32.154 L244.108,32.154 L244.108,33.54 L244.948,33.54 Z M254.104,32 L254.104,31.048 L252.256,31.048 L252.256,23.068 L251.374,23.068 C251.131333,23.2173333 250.858333,23.3456667 250.555,23.453 C250.251667,23.5603333 249.894667,23.6513333 249.484,23.726 L249.484,23.726 L249.484,24.468 L251.108,24.468 L251.108,31.048 L249.064,31.048 L249.064,32 L254.104,32 Z M259.102,32 C259.615333,32 260.086667,31.944 260.516,31.832 C260.945333,31.72 261.314,31.552 261.622,31.328 C261.93,31.104 262.168,30.824 262.336,30.488 C262.504,30.152 262.588,29.76 262.588,29.312 C262.588,28.6773333 262.415333,28.178 262.07,27.814 C261.724667,27.45 261.272,27.2166667 260.712,27.114 L260.712,27.114 L260.712,27.058 C261.150667,26.918 261.484333,26.6636667 261.713,26.295 C261.941667,25.9263333 262.056,25.5133333 262.056,25.056 C262.056,24.6546667 261.979,24.3116667 261.825,24.027 C261.671,23.7423333 261.456333,23.5113333 261.181,23.334 C260.905667,23.1566667 260.574333,23.026 260.187,22.942 C259.799667,22.858 259.372667,22.816 258.906,22.816 L258.906,22.816 L256.176,22.816 L256.176,32 L259.102,32 Z M258.696,26.722 L257.338,26.722 L257.338,23.74 L258.752,23.74 C259.470667,23.74 260.009667,23.852 260.369,24.076 C260.728333,24.3 260.908,24.678 260.908,25.21 C260.908,25.6766667 260.735333,26.0453333 260.39,26.316 C260.044667,26.5866667 259.48,26.722 258.696,26.722 L258.696,26.722 Z M258.934,31.076 L257.338,31.076 L257.338,27.618 L258.934,27.618 C259.746,27.618 260.366667,27.751 260.796,28.017 C261.225333,28.283 261.44,28.7006667 261.44,29.27 C261.44,29.886 261.220667,30.341 260.782,30.635 C260.343333,30.929 259.727333,31.076 258.934,31.076 L258.934,31.076 Z" id="Unobligated$1B" fill="#666666" fill-rule="nonzero"></path>
                    <path d="M49,0 L43,0 C41.8954305,2.02906125e-16 41,0.8954305 41,2 L41,34 C41,35.1045695 41.8954305,36 43,36 L49,36 L49,36" id="Line-2" stroke="#C6C6C6" stroke-linecap="round"></path>
                    <line x1="40.5" y1="18.5" x2="0.5" y2="18.5" id="Line-4" stroke="#C6C6C6" stroke-linecap="round"></line>
                </g>
                <path d="M16.992,27.76 L16.992,26.096 C17.824,25.9146667 18.448,25.5493333 18.864,25 C19.28,24.4506667 19.488,23.792 19.488,23.024 C19.488,22.512 19.384,22.0826667 19.176,21.736 C18.968,21.3893333 18.7066667,21.0933333 18.392,20.848 C18.0773333,20.6026667 17.7386667,20.3946667 17.376,20.224 C17.0133333,20.0533333 16.6746667,19.888 16.36,19.728 C16.0453333,19.568 15.784,19.4 15.576,19.224 C15.368,19.048 15.264,18.832 15.264,18.576 C15.264,18.2133333 15.3653333,17.952 15.568,17.792 C15.7706667,17.632 16.064,17.552 16.448,17.552 C16.7893333,17.552 17.0933333,17.6186667 17.36,17.752 C17.6266667,17.8853333 17.904,18.0853333 18.192,18.352 L18.192,18.352 L19.376,17.008 C19.0666667,16.6773333 18.72,16.3946667 18.336,16.16 C17.952,15.9253333 17.504,15.7706667 16.992,15.696 L16.992,15.696 L16.992,14.08 L15.44,14.08 L15.44,15.728 C14.6826667,15.8773333 14.088,16.2106667 13.656,16.728 C13.224,17.2453333 13.008,17.8986667 13.008,18.688 C13.008,19.168 13.112,19.5733333 13.32,19.904 C13.528,20.2346667 13.7893333,20.5226667 14.104,20.768 C14.4186667,21.0133333 14.7573333,21.224 15.12,21.4 C15.4826667,21.576 15.8213333,21.752 16.136,21.928 C16.4506667,22.104 16.712,22.288 16.92,22.48 C17.128,22.672 17.232,22.9066667 17.232,23.184 C17.232,23.5573333 17.128,23.8346667 16.92,24.016 C16.712,24.1973333 16.384,24.288 15.936,24.288 C15.552,24.288 15.176,24.2106667 14.808,24.056 C14.44,23.9013333 14.0533333,23.6693333 13.648,23.36 L13.648,23.36 L12.624,24.944 C12.9973333,25.2853333 13.4426667,25.56 13.96,25.768 C14.4773333,25.976 14.9706667,26.1066667 15.44,26.16 L15.44,26.16 L15.44,27.76 L16.992,27.76 Z M24.656,26.192 C25.2,26.192 25.6933333,26.12 26.136,25.976 C26.5786667,25.832 26.9573333,25.6346667 27.272,25.384 C27.5866667,25.1333333 27.8293333,24.8373333 28,24.496 C28.1706667,24.1546667 28.256,23.7813333 28.256,23.376 C28.256,22.704 28.0853333,22.16 27.744,21.744 C27.4026667,21.328 26.9866667,20.9866667 26.496,20.72 L26.496,20.72 L26.496,20.656 C26.848,20.4213333 27.1573333,20.1146667 27.424,19.736 C27.6906667,19.3573333 27.824,18.9226667 27.824,18.432 C27.824,18.016 27.7493333,17.6346667 27.6,17.288 C27.4506667,16.9413333 27.2426667,16.648 26.976,16.408 C26.7093333,16.168 26.384,15.9813333 26,15.848 C25.616,15.7146667 25.1946667,15.648 24.736,15.648 C24.2666667,15.648 23.832,15.712 23.432,15.84 C23.032,15.968 22.688,16.1546667 22.4,16.4 C22.112,16.6453333 21.888,16.9413333 21.728,17.288 C21.568,17.6346667 21.488,18.0213333 21.488,18.448 C21.488,18.992 21.616,19.4533333 21.872,19.832 C22.128,20.2106667 22.4533333,20.5493333 22.848,20.848 L22.848,20.848 L22.848,20.912 C22.368,21.168 21.96,21.4933333 21.624,21.888 C21.288,22.2826667 21.12,22.7893333 21.12,23.408 C21.12,23.824 21.208,24.2026667 21.384,24.544 C21.56,24.8853333 21.8053333,25.1786667 22.12,25.424 C22.4346667,25.6693333 22.808,25.8586667 23.24,25.992 C23.672,26.1253333 24.144,26.192 24.656,26.192 Z M25.296,20.08 C24.7733333,19.8773333 24.352,19.6586667 24.032,19.424 C23.712,19.1893333 23.552,18.864 23.552,18.448 C23.552,18.0533333 23.664,17.76 23.888,17.568 C24.112,17.376 24.3786667,17.28 24.688,17.28 C25.072,17.28 25.3733333,17.4 25.592,17.64 C25.8106667,17.88 25.92,18.1973333 25.92,18.592 C25.92,19.104 25.712,19.6 25.296,20.08 Z M24.704,24.56 C24.2773333,24.56 23.9093333,24.4346667 23.6,24.184 C23.2906667,23.9333333 23.136,23.584 23.136,23.136 C23.136,22.8266667 23.2106667,22.5333333 23.36,22.256 C23.5093333,21.9786667 23.696,21.7333333 23.92,21.52 C24.24,21.6586667 24.5306667,21.7866667 24.792,21.904 C25.0533333,22.0213333 25.28,22.1466667 25.472,22.28 C25.664,22.4133333 25.8106667,22.56 25.912,22.72 C26.0133333,22.88 26.064,23.072 26.064,23.296 C26.064,23.7226667 25.936,24.04 25.68,24.248 C25.424,24.456 25.0986667,24.56 24.704,24.56 Z M34,26 C34.5653333,26 35.0933333,25.9386667 35.584,25.816 C36.0746667,25.6933333 36.504,25.5066667 36.872,25.256 C37.24,25.0053333 37.528,24.688 37.736,24.304 C37.944,23.92 38.048,23.4613333 38.048,22.928 C38.048,22.576 38,22.264 37.904,21.992 C37.808,21.72 37.6746667,21.4826667 37.504,21.28 C37.3333333,21.0773333 37.136,20.9093333 36.912,20.776 C36.688,20.6426667 36.4426667,20.544 36.176,20.48 L36.176,20.48 L36.176,20.416 C36.3893333,20.3413333 36.5786667,20.224 36.744,20.064 C36.9093333,19.904 37.0506667,19.7226667 37.168,19.52 C37.2853333,19.3173333 37.376,19.0986667 37.44,18.864 C37.504,18.6293333 37.536,18.3946667 37.536,18.16 C37.536,17.6586667 37.4373333,17.2426667 37.24,16.912 C37.0426667,16.5813333 36.7706667,16.3146667 36.424,16.112 C36.0773333,15.9093333 35.672,15.768 35.208,15.688 C34.744,15.608 34.24,15.568 33.696,15.568 L33.696,15.568 L30.128,15.568 L30.128,26 L34,26 Z M33.584,19.744 L32.48,19.744 L32.48,17.392 L33.6,17.392 C34.1546667,17.392 34.5653333,17.4773333 34.832,17.648 C35.0986667,17.8186667 35.232,18.1066667 35.232,18.512 C35.232,18.8853333 35.1013333,19.184 34.84,19.408 C34.5786667,19.632 34.16,19.744 33.584,19.744 L33.584,19.744 Z M33.808,24.176 L32.48,24.176 L32.48,21.488 L33.808,21.488 C34.4586667,21.488 34.944,21.5866667 35.264,21.784 C35.584,21.9813333 35.744,22.3093333 35.744,22.768 C35.744,23.7066667 35.0986667,24.176 33.808,24.176 L33.808,24.176 Z" id="$8B" fill="#555555" fill-rule="nonzero"></path>
            </g>
        </g>
    </g>
</svg>