<?xml version="1.0" encoding="UTF-8"?>
<svg width="402px" height="32px" viewBox="0 0 402 32" version="1.1" xmlns="http://www.w3.org/2000/svg" xmlns:xlink="http://www.w3.org/1999/xlink">
    <title>Law 3.5 A - general</title>
    <g id="SVG-2.0" stroke="none" stroke-width="1" fill="none" fill-rule="evenodd">
        <g id="viz-3-tablet-outline" transform="translate(-61.000000, -1725.000000)">
            <g id="Law-3.5-A---general" transform="translate(61.000000, 1723.000000)">
                <g id="bar---phase-3.5-general" transform="translate(47.000000, 0.000000)">
                    <path d="M119.718,14.168 C120.315333,14.168 120.861333,14.0583333 121.356,13.839 C121.850667,13.6196667 122.277667,13.3023333 122.637,12.887 C122.996333,12.4716667 123.274,11.97 123.47,11.382 C123.666,10.794 123.764,10.1266667 123.764,9.38 C123.764,8.64266667 123.666,7.98233333 123.47,7.399 C123.274,6.81566667 122.996333,6.32333333 122.637,5.922 C122.277667,5.52066667 121.850667,5.21266667 121.356,4.998 C120.861333,4.78333333 120.315333,4.676 119.718,4.676 C119.120667,4.676 118.574667,4.78333333 118.08,4.998 C117.585333,5.21266667 117.160667,5.52066667 116.806,5.922 C116.451333,6.32333333 116.176,6.81566667 115.98,7.399 C115.784,7.98233333 115.686,8.64266667 115.686,9.38 C115.686,10.1266667 115.784,10.794 115.98,11.382 C116.176,11.97 116.451333,12.4716667 116.806,12.887 C117.160667,13.3023333 117.585333,13.6196667 118.08,13.839 C118.574667,14.0583333 119.120667,14.168 119.718,14.168 Z M119.718,12.754 C119.354,12.754 119.027333,12.6746667 118.738,12.516 C118.448667,12.3573333 118.201333,12.131 117.996,11.837 C117.790667,11.543 117.632,11.1883333 117.52,10.773 C117.408,10.3576667 117.352,9.89333333 117.352,9.38 C117.352,8.35333333 117.564333,7.54833333 117.989,6.965 C118.413667,6.38166667 118.99,6.09 119.718,6.09 C120.446,6.09 121.022333,6.38166667 121.447,6.965 C121.871667,7.54833333 122.084,8.35333333 122.084,9.38 C122.084,9.89333333 122.028,10.3576667 121.916,10.773 C121.804,11.1883333 121.645333,11.543 121.44,11.837 C121.234667,12.131 120.987333,12.3573333 120.698,12.516 C120.408667,12.6746667 120.082,12.754 119.718,12.754 Z M127.502,14.168 C127.978,14.168 128.391,14.0606667 128.741,13.846 C129.091,13.6313333 129.415333,13.3466667 129.714,12.992 L129.714,12.992 L129.756,12.992 L129.882,14 L131.198,14 L131.198,7.126 L129.588,7.126 L129.588,11.83 C129.326667,12.166 129.081667,12.4086667 128.853,12.558 C128.624333,12.7073333 128.360667,12.782 128.062,12.782 C127.688667,12.782 127.418,12.6653333 127.25,12.432 C127.082,12.1986667 126.998,11.7973333 126.998,11.228 L126.998,11.228 L126.998,7.126 L125.388,7.126 L125.388,11.438 C125.388,12.3153333 125.556,12.9896667 125.892,13.461 C126.228,13.9323333 126.764667,14.168 127.502,14.168 Z M135.664,14.168 C135.934667,14.168 136.189,14.1423333 136.427,14.091 C136.665,14.0396667 136.877333,13.9813333 137.064,13.916 L137.064,13.916 L136.784,12.726 C136.681333,12.7726667 136.567,12.81 136.441,12.838 C136.315,12.866 136.191333,12.88 136.07,12.88 C135.426,12.88 135.104,12.4786667 135.104,11.676 L135.104,11.676 L135.104,8.4 L136.854,8.4 L136.854,7.126 L135.104,7.126 L135.104,5.25 L133.76,5.25 L133.564,7.126 L132.5,7.196 L132.5,8.4 L133.48,8.4 L133.48,11.676 C133.48,12.0493333 133.519667,12.3876667 133.599,12.691 C133.678333,12.9943333 133.804333,13.2556667 133.977,13.475 C134.149667,13.6943333 134.373667,13.8646667 134.649,13.986 C134.924333,14.1073333 135.262667,14.168 135.664,14.168 Z M139.864,14.168 C140.218667,14.168 140.503333,14.1213333 140.718,14.028 L140.718,14.028 L140.508,12.824 C140.442667,12.8426667 140.393667,12.852 140.361,12.852 L140.361,12.852 L140.256,12.852 C140.172,12.852 140.092667,12.8123333 140.018,12.733 C139.943333,12.6536667 139.906,12.516 139.906,12.32 L139.906,12.32 L139.906,4.116 L138.296,4.116 L138.296,12.236 C138.296,12.8333333 138.412667,13.3046667 138.646,13.65 C138.879333,13.9953333 139.285333,14.168 139.864,14.168 Z M143.756,14.168 C144.166667,14.168 144.547,14.0793333 144.897,13.902 C145.247,13.7246667 145.576,13.5053333 145.884,13.244 L145.884,13.244 L145.94,13.244 L146.052,14 L147.382,14 L147.382,9.926 C147.382,8.96466667 147.169667,8.22966667 146.745,7.721 C146.320333,7.21233333 145.678667,6.958 144.82,6.958 C144.269333,6.958 143.756,7.04666667 143.28,7.224 C142.804,7.40133333 142.374667,7.61133333 141.992,7.854 L141.992,7.854 L142.58,8.932 C142.888,8.74533333 143.203,8.58666667 143.525,8.456 C143.847,8.32533333 144.176,8.26 144.512,8.26 C144.745333,8.26 144.941333,8.295 145.1,8.365 C145.258667,8.435 145.387,8.533 145.485,8.659 C145.583,8.785 145.653,8.92966667 145.695,9.093 C145.737,9.25633333 145.762667,9.42666667 145.772,9.604 C145.062667,9.67866667 144.453667,9.786 143.945,9.926 C143.436333,10.066 143.016333,10.2386667 142.685,10.444 C142.353667,10.6493333 142.111,10.8943333 141.957,11.179 C141.803,11.4636667 141.726,11.788 141.726,12.152 C141.726,12.7586667 141.912667,13.2463333 142.286,13.615 C142.659333,13.9836667 143.149333,14.168 143.756,14.168 Z M144.274,12.908 C143.984667,12.908 143.746667,12.838 143.56,12.698 C143.373333,12.558 143.28,12.334 143.28,12.026 C143.28,11.858 143.322,11.6993333 143.406,11.55 C143.49,11.4006667 143.63,11.2676667 143.826,11.151 C144.022,11.0343333 144.278667,10.9293333 144.596,10.836 C144.913333,10.7426667 145.305333,10.668 145.772,10.612 L145.772,10.612 L145.772,12.152 C145.510667,12.3946667 145.265667,12.5813333 145.037,12.712 C144.808333,12.8426667 144.554,12.908 144.274,12.908 Z M149.776,16.828 C150.149333,16.828 150.478333,16.7696667 150.763,16.653 C151.047667,16.5363333 151.299667,16.3683333 151.519,16.149 C151.738333,15.9296667 151.932,15.666 152.1,15.358 C152.268,15.05 152.422,14.7 152.562,14.308 L152.562,14.308 L155.054,7.126 L153.5,7.126 L152.464,10.5 C152.38,10.808 152.293667,11.1276667 152.205,11.459 C152.116333,11.7903333 152.03,12.1146667 151.946,12.432 L151.946,12.432 L151.89,12.432 C151.787333,12.1053333 151.687,11.7763333 151.589,11.445 C151.491,11.1136667 151.390667,10.7986667 151.288,10.5 L151.288,10.5 L150.098,7.126 L148.46,7.126 L151.162,13.916 L151.036,14.35 C150.924,14.6953333 150.758333,14.9776667 150.539,15.197 C150.319667,15.4163333 150.028,15.526 149.664,15.526 C149.58,15.526 149.493667,15.5143333 149.405,15.491 C149.316333,15.4676667 149.239333,15.4466667 149.174,15.428 L149.174,15.428 L148.88,16.688 C149.010667,16.7346667 149.146,16.7696667 149.286,16.793 C149.426,16.8163333 149.589333,16.828 149.776,16.828 Z M158.162,14.168 C158.591333,14.168 158.974,14.112 159.31,14 C159.646,13.888 159.926,13.7363333 160.15,13.545 C160.374,13.3536667 160.544333,13.1296667 160.661,12.873 C160.777667,12.6163333 160.836,12.3386667 160.836,12.04 C160.836,11.7226667 160.777667,11.4496667 160.661,11.221 C160.544333,10.9923333 160.390333,10.7986667 160.199,10.64 C160.007667,10.4813333 159.795333,10.3483333 159.562,10.241 C159.328667,10.1336667 159.095333,10.038 158.862,9.954 C158.675333,9.88866667 158.495667,9.82333333 158.323,9.758 C158.150333,9.69266667 157.998667,9.62266667 157.868,9.548 C157.737333,9.47333333 157.632333,9.387 157.553,9.289 C157.473667,9.191 157.434,9.072 157.434,8.932 C157.434,8.71733333 157.515667,8.53766667 157.679,8.393 C157.842333,8.24833333 158.096667,8.176 158.442,8.176 C158.712667,8.176 158.971667,8.22966667 159.219,8.337 C159.466333,8.44433333 159.711333,8.58666667 159.954,8.764 L159.954,8.764 L160.696,7.784 C160.416,7.56933333 160.084667,7.378 159.702,7.21 C159.319333,7.042 158.89,6.958 158.414,6.958 C157.639333,6.958 157.028,7.14933333 156.58,7.532 C156.132,7.91466667 155.908,8.40933333 155.908,9.016 C155.908,9.30533333 155.966333,9.555 156.083,9.765 C156.199667,9.975 156.349,10.1593333 156.531,10.318 C156.713,10.4766667 156.920667,10.612 157.154,10.724 C157.387333,10.836 157.616,10.934 157.84,11.018 C158.017333,11.0926667 158.194667,11.165 158.372,11.235 C158.549333,11.305 158.708,11.382 158.848,11.466 C158.988,11.55 159.1,11.6456667 159.184,11.753 C159.268,11.8603333 159.31,11.984 159.31,12.124 C159.31,12.3666667 159.221333,12.565 159.044,12.719 C158.866667,12.873 158.591333,12.95 158.218,12.95 C157.863333,12.95 157.534333,12.8823333 157.231,12.747 C156.927667,12.6116667 156.622,12.4226667 156.314,12.18 L156.314,12.18 L155.558,13.216 C155.894,13.4866667 156.293,13.713 156.755,13.895 C157.217,14.077 157.686,14.168 158.162,14.168 Z M118.948,33.54 L118.948,32.126 C119.62,32.0326667 120.149667,31.7713333 120.537,31.342 C120.924333,30.9126667 121.118,30.362 121.118,29.69 C121.118,29.186 121.022333,28.773 120.831,28.451 C120.639667,28.129 120.399333,27.8583333 120.11,27.639 C119.820667,27.4196667 119.505667,27.233 119.165,27.079 C118.824333,26.925 118.509333,26.7663333 118.22,26.603 C117.930667,26.4396667 117.690333,26.2506667 117.499,26.036 C117.307667,25.8213333 117.212,25.546 117.212,25.21 C117.212,24.7993333 117.338,24.4726667 117.59,24.23 C117.842,23.9873333 118.182667,23.866 118.612,23.866 C118.994667,23.866 119.309667,23.936 119.557,24.076 C119.804333,24.216 120.058667,24.412 120.32,24.664 L120.32,24.664 L120.936,23.978 C120.684,23.7073333 120.401667,23.474 120.089,23.278 C119.776333,23.082 119.396,22.9606667 118.948,22.914 L118.948,22.914 L118.948,21.528 L118.108,21.528 L118.108,22.942 C117.492,23.0353333 116.999667,23.2896667 116.631,23.705 C116.262333,24.1203333 116.078,24.6406667 116.078,25.266 C116.078,25.7233333 116.173667,26.099 116.365,26.393 C116.556333,26.687 116.796667,26.9366667 117.086,27.142 C117.375333,27.3473333 117.690333,27.5293333 118.031,27.688 C118.371667,27.8466667 118.686667,28.017 118.976,28.199 C119.265333,28.381 119.505667,28.5956667 119.697,28.843 C119.888333,29.0903333 119.984,29.4006667 119.984,29.774 C119.984,30.2126667 119.855667,30.5626667 119.599,30.824 C119.342333,31.0853333 118.952667,31.216 118.43,31.216 C118.000667,31.216 117.606333,31.125 117.247,30.943 C116.887667,30.761 116.558667,30.5393333 116.26,30.278 L116.26,30.278 L115.728,31.076 C116.026667,31.3466667 116.386,31.5823333 116.806,31.783 C117.226,31.9836667 117.66,32.1073333 118.108,32.154 L118.108,32.154 L118.108,33.54 L118.948,33.54 Z M125.458,32.168 C125.887333,32.168 126.279333,32.1073333 126.634,31.986 C126.988667,31.8646667 127.292,31.6966667 127.544,31.482 C127.796,31.2673333 127.992,31.0153333 128.132,30.726 C128.272,30.4366667 128.342,30.124 128.342,29.788 C128.342,29.4893333 128.297667,29.2233333 128.209,28.99 C128.120333,28.7566667 128.003667,28.549 127.859,28.367 C127.714333,28.185 127.548667,28.0216667 127.362,27.877 C127.175333,27.7323333 126.984,27.604 126.788,27.492 L126.788,27.492 L126.788,27.436 C126.928,27.3333333 127.070333,27.2073333 127.215,27.058 C127.359667,26.9086667 127.490333,26.7406667 127.607,26.554 C127.723667,26.3673333 127.821667,26.1666667 127.901,25.952 C127.980333,25.7373333 128.02,25.5133333 128.02,25.28 C128.02,24.9346667 127.961667,24.615 127.845,24.321 C127.728333,24.027 127.560333,23.775 127.341,23.565 C127.121667,23.355 126.858,23.1916667 126.55,23.075 C126.242,22.9583333 125.892,22.9 125.5,22.9 C125.136,22.9 124.8,22.956 124.492,23.068 C124.184,23.18 123.918,23.3363333 123.694,23.537 C123.47,23.7376667 123.292667,23.978 123.162,24.258 C123.031333,24.538 122.966,24.8506667 122.966,25.196 C122.966,25.672 123.092,26.0756667 123.344,26.407 C123.596,26.7383333 123.885333,27.0206667 124.212,27.254 L124.212,27.254 L124.212,27.31 C123.997333,27.422 123.789667,27.555 123.589,27.709 C123.388333,27.863 123.211,28.0403333 123.057,28.241 C122.903,28.4416667 122.777,28.6656667 122.679,28.913 C122.581,29.1603333 122.532,29.4286667 122.532,29.718 C122.532,30.0726667 122.606667,30.3993333 122.756,30.698 C122.905333,30.9966667 123.108333,31.2556667 123.365,31.475 C123.621667,31.6943333 123.929667,31.8646667 124.289,31.986 C124.648333,32.1073333 125.038,32.168 125.458,32.168 Z M126.088,27.128 C125.817333,27.0253333 125.558333,26.9156667 125.311,26.799 C125.063667,26.6823333 124.844333,26.5493333 124.653,26.4 C124.461667,26.2506667 124.31,26.0803333 124.198,25.889 C124.086,25.6976667 124.03,25.4666667 124.03,25.196 C124.03,24.7573333 124.165333,24.4073333 124.436,24.146 C124.706667,23.8846667 125.052,23.754 125.472,23.754 C125.966667,23.754 126.349333,23.9056667 126.62,24.209 C126.890667,24.5123333 127.026,24.888 127.026,25.336 C127.026,25.6626667 126.944333,25.9753333 126.781,26.274 C126.617667,26.5726667 126.386667,26.8573333 126.088,27.128 Z M125.486,31.314 C125.215333,31.314 124.963333,31.272 124.73,31.188 C124.496667,31.104 124.293667,30.985 124.121,30.831 C123.948333,30.677 123.813,30.4973333 123.715,30.292 C123.617,30.0866667 123.568,29.858 123.568,29.606 C123.568,29.1953333 123.687,28.829 123.925,28.507 C124.163,28.185 124.459333,27.9026667 124.814,27.66 C125.131333,27.7906667 125.437,27.919 125.731,28.045 C126.025,28.171 126.284,28.311 126.508,28.465 C126.732,28.619 126.909333,28.7986667 127.04,29.004 C127.170667,29.2093333 127.236,29.4566667 127.236,29.746 C127.236,30.2126667 127.075,30.5906667 126.753,30.88 C126.431,31.1693333 126.008667,31.314 125.486,31.314 Z M132.584,32 C132.621333,31.132 132.684333,30.341 132.773,29.627 C132.861667,28.913 133.004,28.2363333 133.2,27.597 C133.396,26.9576667 133.659667,26.33 133.991,25.714 C134.322333,25.098 134.754,24.454 135.286,23.782 L135.286,23.782 L135.286,23.068 L129.532,23.068 L129.532,24.062 L133.984,24.062 C133.545333,24.678 133.169667,25.28 132.857,25.868 C132.544333,26.456 132.287667,27.065 132.087,27.695 C131.886333,28.325 131.73,28.99 131.618,29.69 C131.506,30.39 131.431333,31.16 131.394,32 L131.394,32 L132.584,32 Z M140.06,32 C140.573333,32 141.044667,31.944 141.474,31.832 C141.903333,31.72 142.272,31.552 142.58,31.328 C142.888,31.104 143.126,30.824 143.294,30.488 C143.462,30.152 143.546,29.76 143.546,29.312 C143.546,28.6773333 143.373333,28.178 143.028,27.814 C142.682667,27.45 142.23,27.2166667 141.67,27.114 L141.67,27.114 L141.67,27.058 C142.108667,26.918 142.442333,26.6636667 142.671,26.295 C142.899667,25.9263333 143.014,25.5133333 143.014,25.056 C143.014,24.6546667 142.937,24.3116667 142.783,24.027 C142.629,23.7423333 142.414333,23.5113333 142.139,23.334 C141.863667,23.1566667 141.532333,23.026 141.145,22.942 C140.757667,22.858 140.330667,22.816 139.864,22.816 L139.864,22.816 L137.134,22.816 L137.134,32 L140.06,32 Z M139.654,26.722 L138.296,26.722 L138.296,23.74 L139.71,23.74 C140.428667,23.74 140.967667,23.852 141.327,24.076 C141.686333,24.3 141.866,24.678 141.866,25.21 C141.866,25.6766667 141.693333,26.0453333 141.348,26.316 C141.002667,26.5866667 140.438,26.722 139.654,26.722 L139.654,26.722 Z M139.892,31.076 L138.296,31.076 L138.296,27.618 L139.892,27.618 C140.704,27.618 141.324667,27.751 141.754,28.017 C142.183333,28.283 142.398,28.7006667 142.398,29.27 C142.398,29.886 142.178667,30.341 141.74,30.635 C141.301333,30.929 140.685333,31.076 139.892,31.076 L139.892,31.076 Z" id="Outlays$87B" fill="#666666" fill-rule="nonzero"></path>
                    <path d="M191.718,14.168 C192.315333,14.168 192.861333,14.0583333 193.356,13.839 C193.850667,13.6196667 194.277667,13.3023333 194.637,12.887 C194.996333,12.4716667 195.274,11.97 195.47,11.382 C195.666,10.794 195.764,10.1266667 195.764,9.38 C195.764,8.64266667 195.666,7.98233333 195.47,7.399 C195.274,6.81566667 194.996333,6.32333333 194.637,5.922 C194.277667,5.52066667 193.850667,5.21266667 193.356,4.998 C192.861333,4.78333333 192.315333,4.676 191.718,4.676 C191.120667,4.676 190.574667,4.78333333 190.08,4.998 C189.585333,5.21266667 189.160667,5.52066667 188.806,5.922 C188.451333,6.32333333 188.176,6.81566667 187.98,7.399 C187.784,7.98233333 187.686,8.64266667 187.686,9.38 C187.686,10.1266667 187.784,10.794 187.98,11.382 C188.176,11.97 188.451333,12.4716667 188.806,12.887 C189.160667,13.3023333 189.585333,13.6196667 190.08,13.839 C190.574667,14.0583333 191.120667,14.168 191.718,14.168 Z M191.718,12.754 C191.354,12.754 191.027333,12.6746667 190.738,12.516 C190.448667,12.3573333 190.201333,12.131 189.996,11.837 C189.790667,11.543 189.632,11.1883333 189.52,10.773 C189.408,10.3576667 189.352,9.89333333 189.352,9.38 C189.352,8.35333333 189.564333,7.54833333 189.989,6.965 C190.413667,6.38166667 190.99,6.09 191.718,6.09 C192.446,6.09 193.022333,6.38166667 193.447,6.965 C193.871667,7.54833333 194.084,8.35333333 194.084,9.38 C194.084,9.89333333 194.028,10.3576667 193.916,10.773 C193.804,11.1883333 193.645333,11.543 193.44,11.837 C193.234667,12.131 192.987333,12.3573333 192.698,12.516 C192.408667,12.6746667 192.082,12.754 191.718,12.754 Z M200.79,14.168 C201.172667,14.168 201.541333,14.084 201.896,13.916 C202.250667,13.748 202.563333,13.5053333 202.834,13.188 C203.104667,12.8706667 203.321667,12.481 203.485,12.019 C203.648333,11.557 203.73,11.032 203.73,10.444 C203.73,9.912 203.669333,9.43133333 203.548,9.002 C203.426667,8.57266667 203.249333,8.20633333 203.016,7.903 C202.782667,7.59966667 202.498,7.36633333 202.162,7.203 C201.826,7.03966667 201.443333,6.958 201.014,6.958 C200.659333,6.958 200.311667,7.03733333 199.971,7.196 C199.630333,7.35466667 199.315333,7.56 199.026,7.812 L199.026,7.812 L199.068,6.664 L199.068,4.116 L197.458,4.116 L197.458,14 L198.732,14 L198.872,13.272 L198.914,13.272 C199.203333,13.5613333 199.509,13.783 199.831,13.937 C200.153,14.091 200.472667,14.168 200.79,14.168 Z M200.454,12.838 C200.248667,12.838 200.027,12.796 199.789,12.712 C199.551,12.628 199.310667,12.4786667 199.068,12.264 L199.068,12.264 L199.068,9.058 C199.590667,8.54466667 200.094667,8.288 200.58,8.288 C201.102667,8.288 201.480667,8.47933333 201.714,8.862 C201.947333,9.24466667 202.064,9.78133333 202.064,10.472 C202.064,11.256 201.91,11.8463333 201.602,12.243 C201.294,12.6396667 200.911333,12.838 200.454,12.838 Z M206.908,14.168 C207.262667,14.168 207.547333,14.1213333 207.762,14.028 L207.762,14.028 L207.552,12.824 C207.486667,12.8426667 207.437667,12.852 207.405,12.852 L207.405,12.852 L207.3,12.852 C207.216,12.852 207.136667,12.8123333 207.062,12.733 C206.987333,12.6536667 206.95,12.516 206.95,12.32 L206.95,12.32 L206.95,4.116 L205.34,4.116 L205.34,12.236 C205.34,12.8333333 205.456667,13.3046667 205.69,13.65 C205.923333,13.9953333 206.329333,14.168 206.908,14.168 Z M209.946,5.922 C210.235333,5.922 210.473333,5.838 210.66,5.67 C210.846667,5.502 210.94,5.28266667 210.94,5.012 C210.94,4.74133333 210.846667,4.51966667 210.66,4.347 C210.473333,4.17433333 210.235333,4.088 209.946,4.088 C209.656667,4.088 209.418667,4.17433333 209.232,4.347 C209.045333,4.51966667 208.952,4.74133333 208.952,5.012 C208.952,5.28266667 209.045333,5.502 209.232,5.67 C209.418667,5.838 209.656667,5.922 209.946,5.922 Z M210.744,14 L210.744,7.126 L209.134,7.126 L209.134,14 L210.744,14 Z M215.196,17.038 C215.756,17.038 216.262333,16.975 216.715,16.849 C217.167667,16.723 217.552667,16.5526667 217.87,16.338 C218.187333,16.1233333 218.432333,15.8666667 218.605,15.568 C218.777667,15.2693333 218.864,14.952 218.864,14.616 C218.864,14.0186667 218.651667,13.587 218.227,13.321 C217.802333,13.055 217.174667,12.922 216.344,12.922 L216.344,12.922 L215.126,12.922 C214.706,12.922 214.414333,12.866 214.251,12.754 C214.087667,12.642 214.006,12.488 214.006,12.292 C214.006,12.1333333 214.036333,12.0073333 214.097,11.914 C214.157667,11.8206667 214.239333,11.7273333 214.342,11.634 C214.500667,11.6993333 214.659333,11.746 214.818,11.774 C214.976667,11.802 215.130667,11.816 215.28,11.816 C215.644,11.816 215.984667,11.7646667 216.302,11.662 C216.619333,11.5593333 216.894667,11.41 217.128,11.214 C217.361333,11.018 217.545667,10.7753333 217.681,10.486 C217.816333,10.1966667 217.884,9.86066667 217.884,9.478 C217.884,9.23533333 217.846667,9.01366667 217.772,8.813 C217.697333,8.61233333 217.604,8.44666667 217.492,8.316 L217.492,8.316 L218.752,8.316 L218.752,7.126 L216.288,7.126 C216.148,7.07933333 215.991667,7.03966667 215.819,7.007 C215.646333,6.97433333 215.466667,6.958 215.28,6.958 C214.916,6.958 214.570667,7.01166667 214.244,7.119 C213.917333,7.22633333 213.630333,7.385 213.383,7.595 C213.135667,7.805 212.937333,8.064 212.788,8.372 C212.638667,8.68 212.564,9.03 212.564,9.422 C212.564,9.83266667 212.655,10.1943333 212.837,10.507 C213.019,10.8196667 213.226667,11.0646667 213.46,11.242 L213.46,11.242 L213.46,11.298 C213.264,11.438 213.089,11.6176667 212.935,11.837 C212.781,12.0563333 212.704,12.3013333 212.704,12.572 C212.704,12.852 212.762333,13.0853333 212.879,13.272 C212.995667,13.4586667 213.142667,13.608 213.32,13.72 L213.32,13.72 L213.32,13.776 C213.002667,13.972 212.76,14.1936667 212.592,14.441 C212.424,14.6883333 212.34,14.9566667 212.34,15.246 C212.34,15.5446667 212.412333,15.806 212.557,16.03 C212.701667,16.254 212.9,16.4406667 213.152,16.59 C213.404,16.7393333 213.705,16.8513333 214.055,16.926 C214.405,17.0006667 214.785333,17.038 215.196,17.038 Z M215.28,10.808 C214.944,10.808 214.659333,10.689 214.426,10.451 C214.192667,10.213 214.076,9.87 214.076,9.422 C214.076,8.98333333 214.192667,8.64733333 214.426,8.414 C214.659333,8.18066667 214.944,8.064 215.28,8.064 C215.616,8.064 215.898333,8.183 216.127,8.421 C216.355667,8.659 216.47,8.99266667 216.47,9.422 C216.47,9.87 216.353333,10.213 216.12,10.451 C215.886667,10.689 215.606667,10.808 215.28,10.808 Z M215.448,15.988 C214.897333,15.988 214.465667,15.9016667 214.153,15.729 C213.840333,15.5563333 213.684,15.316 213.684,15.008 C213.684,14.672 213.861333,14.3686667 214.216,14.098 C214.468,14.1633333 214.780667,14.196 215.154,14.196 L215.154,14.196 L216.092,14.196 C216.484,14.196 216.785,14.2426667 216.995,14.336 C217.205,14.4293333 217.31,14.6113333 217.31,14.882 C217.31,15.1806667 217.139667,15.4396667 216.799,15.659 C216.458333,15.8783333 216.008,15.988 215.448,15.988 Z M221.496,14.168 C221.906667,14.168 222.287,14.0793333 222.637,13.902 C222.987,13.7246667 223.316,13.5053333 223.624,13.244 L223.624,13.244 L223.68,13.244 L223.792,14 L225.122,14 L225.122,9.926 C225.122,8.96466667 224.909667,8.22966667 224.485,7.721 C224.060333,7.21233333 223.418667,6.958 222.56,6.958 C222.009333,6.958 221.496,7.04666667 221.02,7.224 C220.544,7.40133333 220.114667,7.61133333 219.732,7.854 L219.732,7.854 L220.32,8.932 C220.628,8.74533333 220.943,8.58666667 221.265,8.456 C221.587,8.32533333 221.916,8.26 222.252,8.26 C222.485333,8.26 222.681333,8.295 222.84,8.365 C222.998667,8.435 223.127,8.533 223.225,8.659 C223.323,8.785 223.393,8.92966667 223.435,9.093 C223.477,9.25633333 223.502667,9.42666667 223.512,9.604 C222.802667,9.67866667 222.193667,9.786 221.685,9.926 C221.176333,10.066 220.756333,10.2386667 220.425,10.444 C220.093667,10.6493333 219.851,10.8943333 219.697,11.179 C219.543,11.4636667 219.466,11.788 219.466,12.152 C219.466,12.7586667 219.652667,13.2463333 220.026,13.615 C220.399333,13.9836667 220.889333,14.168 221.496,14.168 Z M222.014,12.908 C221.724667,12.908 221.486667,12.838 221.3,12.698 C221.113333,12.558 221.02,12.334 221.02,12.026 C221.02,11.858 221.062,11.6993333 221.146,11.55 C221.23,11.4006667 221.37,11.2676667 221.566,11.151 C221.762,11.0343333 222.018667,10.9293333 222.336,10.836 C222.653333,10.7426667 223.045333,10.668 223.512,10.612 L223.512,10.612 L223.512,12.152 C223.250667,12.3946667 223.005667,12.5813333 222.777,12.712 C222.548333,12.8426667 222.294,12.908 222.014,12.908 Z M229.252,14.168 C229.522667,14.168 229.777,14.1423333 230.015,14.091 C230.253,14.0396667 230.465333,13.9813333 230.652,13.916 L230.652,13.916 L230.372,12.726 C230.269333,12.7726667 230.155,12.81 230.029,12.838 C229.903,12.866 229.779333,12.88 229.658,12.88 C229.014,12.88 228.692,12.4786667 228.692,11.676 L228.692,11.676 L228.692,8.4 L230.442,8.4 L230.442,7.126 L228.692,7.126 L228.692,5.25 L227.348,5.25 L227.152,7.126 L226.088,7.196 L226.088,8.4 L227.068,8.4 L227.068,11.676 C227.068,12.0493333 227.107667,12.3876667 227.187,12.691 C227.266333,12.9943333 227.392333,13.2556667 227.565,13.475 C227.737667,13.6943333 227.961667,13.8646667 228.237,13.986 C228.512333,14.1073333 228.850667,14.168 229.252,14.168 Z M232.696,5.922 C232.985333,5.922 233.223333,5.838 233.41,5.67 C233.596667,5.502 233.69,5.28266667 233.69,5.012 C233.69,4.74133333 233.596667,4.51966667 233.41,4.347 C233.223333,4.17433333 232.985333,4.088 232.696,4.088 C232.406667,4.088 232.168667,4.17433333 231.982,4.347 C231.795333,4.51966667 231.702,4.74133333 231.702,5.012 C231.702,5.28266667 231.795333,5.502 231.982,5.67 C232.168667,5.838 232.406667,5.922 232.696,5.922 Z M233.494,14 L233.494,7.126 L231.884,7.126 L231.884,14 L233.494,14 Z M238.366,14.168 C238.795333,14.168 239.208333,14.0886667 239.605,13.93 C240.001667,13.7713333 240.349333,13.538 240.648,13.23 C240.946667,12.922 241.187,12.544 241.369,12.096 C241.551,11.648 241.642,11.1393333 241.642,10.57 C241.642,10.0006667 241.551,9.492 241.369,9.044 C241.187,8.596 240.946667,8.218 240.648,7.91 C240.349333,7.602 240.001667,7.36633333 239.605,7.203 C239.208333,7.03966667 238.795333,6.958 238.366,6.958 C237.936667,6.958 237.526,7.03966667 237.134,7.203 C236.742,7.36633333 236.394333,7.602 236.091,7.91 C235.787667,8.218 235.547333,8.596 235.37,9.044 C235.192667,9.492 235.104,10.0006667 235.104,10.57 C235.104,11.1393333 235.192667,11.648 235.37,12.096 C235.547333,12.544 235.787667,12.922 236.091,13.23 C236.394333,13.538 236.742,13.7713333 237.134,13.93 C237.526,14.0886667 237.936667,14.168 238.366,14.168 Z M238.366,12.852 C237.862,12.852 237.467667,12.6443333 237.183,12.229 C236.898333,11.8136667 236.756,11.2606667 236.756,10.57 C236.756,9.87 236.898333,9.31233333 237.183,8.897 C237.467667,8.48166667 237.862,8.274 238.366,8.274 C238.87,8.274 239.266667,8.48166667 239.556,8.897 C239.845333,9.31233333 239.99,9.87 239.99,10.57 C239.99,11.2606667 239.845333,11.8136667 239.556,12.229 C239.266667,12.6443333 238.87,12.852 238.366,12.852 Z M244.848,14 L244.848,9.198 C245.137333,8.918 245.396333,8.70566667 245.625,8.561 C245.853667,8.41633333 246.117333,8.344 246.416,8.344 C246.798667,8.344 247.074,8.46066667 247.242,8.694 C247.41,8.92733333 247.494,9.32866667 247.494,9.898 L247.494,9.898 L247.494,14 L249.104,14 L249.104,9.688 C249.104,8.81066667 248.936,8.13633333 248.6,7.665 C248.264,7.19366667 247.727333,6.958 246.99,6.958 C246.514,6.958 246.096333,7.06533333 245.737,7.28 C245.377667,7.49466667 245.044,7.75133333 244.736,8.05 L244.736,8.05 L244.68,8.05 L244.568,7.126 L243.238,7.126 L243.238,14 L244.848,14 Z M252.996,14.168 C253.425333,14.168 253.808,14.112 254.144,14 C254.48,13.888 254.76,13.7363333 254.984,13.545 C255.208,13.3536667 255.378333,13.1296667 255.495,12.873 C255.611667,12.6163333 255.67,12.3386667 255.67,12.04 C255.67,11.7226667 255.611667,11.4496667 255.495,11.221 C255.378333,10.9923333 255.224333,10.7986667 255.033,10.64 C254.841667,10.4813333 254.629333,10.3483333 254.396,10.241 C254.162667,10.1336667 253.929333,10.038 253.696,9.954 C253.509333,9.88866667 253.329667,9.82333333 253.157,9.758 C252.984333,9.69266667 252.832667,9.62266667 252.702,9.548 C252.571333,9.47333333 252.466333,9.387 252.387,9.289 C252.307667,9.191 252.268,9.072 252.268,8.932 C252.268,8.71733333 252.349667,8.53766667 252.513,8.393 C252.676333,8.24833333 252.930667,8.176 253.276,8.176 C253.546667,8.176 253.805667,8.22966667 254.053,8.337 C254.300333,8.44433333 254.545333,8.58666667 254.788,8.764 L254.788,8.764 L255.53,7.784 C255.25,7.56933333 254.918667,7.378 254.536,7.21 C254.153333,7.042 253.724,6.958 253.248,6.958 C252.473333,6.958 251.862,7.14933333 251.414,7.532 C250.966,7.91466667 250.742,8.40933333 250.742,9.016 C250.742,9.30533333 250.800333,9.555 250.917,9.765 C251.033667,9.975 251.183,10.1593333 251.365,10.318 C251.547,10.4766667 251.754667,10.612 251.988,10.724 C252.221333,10.836 252.45,10.934 252.674,11.018 C252.851333,11.0926667 253.028667,11.165 253.206,11.235 C253.383333,11.305 253.542,11.382 253.682,11.466 C253.822,11.55 253.934,11.6456667 254.018,11.753 C254.102,11.8603333 254.144,11.984 254.144,12.124 C254.144,12.3666667 254.055333,12.565 253.878,12.719 C253.700667,12.873 253.425333,12.95 253.052,12.95 C252.697333,12.95 252.368333,12.8823333 252.065,12.747 C251.761667,12.6116667 251.456,12.4226667 251.148,12.18 L251.148,12.18 L250.392,13.216 C250.728,13.4866667 251.127,13.713 251.589,13.895 C252.051,14.077 252.52,14.168 252.996,14.168 Z M190.948,33.54 L190.948,32.126 C191.62,32.0326667 192.149667,31.7713333 192.537,31.342 C192.924333,30.9126667 193.118,30.362 193.118,29.69 C193.118,29.186 193.022333,28.773 192.831,28.451 C192.639667,28.129 192.399333,27.8583333 192.11,27.639 C191.820667,27.4196667 191.505667,27.233 191.165,27.079 C190.824333,26.925 190.509333,26.7663333 190.22,26.603 C189.930667,26.4396667 189.690333,26.2506667 189.499,26.036 C189.307667,25.8213333 189.212,25.546 189.212,25.21 C189.212,24.7993333 189.338,24.4726667 189.59,24.23 C189.842,23.9873333 190.182667,23.866 190.612,23.866 C190.994667,23.866 191.309667,23.936 191.557,24.076 C191.804333,24.216 192.058667,24.412 192.32,24.664 L192.32,24.664 L192.936,23.978 C192.684,23.7073333 192.401667,23.474 192.089,23.278 C191.776333,23.082 191.396,22.9606667 190.948,22.914 L190.948,22.914 L190.948,21.528 L190.108,21.528 L190.108,22.942 C189.492,23.0353333 188.999667,23.2896667 188.631,23.705 C188.262333,24.1203333 188.078,24.6406667 188.078,25.266 C188.078,25.7233333 188.173667,26.099 188.365,26.393 C188.556333,26.687 188.796667,26.9366667 189.086,27.142 C189.375333,27.3473333 189.690333,27.5293333 190.031,27.688 C190.371667,27.8466667 190.686667,28.017 190.976,28.199 C191.265333,28.381 191.505667,28.5956667 191.697,28.843 C191.888333,29.0903333 191.984,29.4006667 191.984,29.774 C191.984,30.2126667 191.855667,30.5626667 191.599,30.824 C191.342333,31.0853333 190.952667,31.216 190.43,31.216 C190.000667,31.216 189.606333,31.125 189.247,30.943 C188.887667,30.761 188.558667,30.5393333 188.26,30.278 L188.26,30.278 L187.728,31.076 C188.026667,31.3466667 188.386,31.5823333 188.806,31.783 C189.226,31.9836667 189.66,32.1073333 190.108,32.154 L190.108,32.154 L190.108,33.54 L190.948,33.54 Z M200.104,32 L200.104,31.048 L198.256,31.048 L198.256,23.068 L197.374,23.068 C197.131333,23.2173333 196.858333,23.3456667 196.555,23.453 C196.251667,23.5603333 195.894667,23.6513333 195.484,23.726 L195.484,23.726 L195.484,24.468 L197.108,24.468 L197.108,31.048 L195.064,31.048 L195.064,32 L200.104,32 Z M204.402,32.168 C205.298,32.168 205.998,31.7666667 206.502,30.964 C207.006,30.1613333 207.258,29.0086667 207.258,27.506 C207.258,26.0033333 207.006,24.86 206.502,24.076 C205.998,23.292 205.298,22.9 204.402,22.9 C203.496667,22.9 202.792,23.292 202.288,24.076 C201.784,24.86 201.532,26.0033333 201.532,27.506 C201.532,29.0086667 201.784,30.1613333 202.288,30.964 C202.792,31.7666667 203.496667,32.168 204.402,32.168 Z M204.402,31.244 C203.879333,31.244 203.457,30.9476667 203.135,30.355 C202.813,29.7623333 202.652,28.8126667 202.652,27.506 C202.652,26.8526667 202.694,26.2926667 202.778,25.826 C202.862,25.3593333 202.981,24.979 203.135,24.685 C203.289,24.391 203.473333,24.174 203.688,24.034 C203.902667,23.894 204.140667,23.824 204.402,23.824 C204.663333,23.824 204.899,23.894 205.109,24.034 C205.319,24.174 205.501,24.391 205.655,24.685 C205.809,24.979 205.928,25.3593333 206.012,25.826 C206.096,26.2926667 206.138,26.8526667 206.138,27.506 C206.138,28.1593333 206.096,28.7216667 206.012,29.193 C205.928,29.6643333 205.809,30.0516667 205.655,30.355 C205.501,30.6583333 205.319,30.8823333 205.109,31.027 C204.899,31.1716667 204.663333,31.244 204.402,31.244 Z M211.36,32.168 C212.256,32.168 212.956,31.7666667 213.46,30.964 C213.964,30.1613333 214.216,29.0086667 214.216,27.506 C214.216,26.0033333 213.964,24.86 213.46,24.076 C212.956,23.292 212.256,22.9 211.36,22.9 C210.454667,22.9 209.75,23.292 209.246,24.076 C208.742,24.86 208.49,26.0033333 208.49,27.506 C208.49,29.0086667 208.742,30.1613333 209.246,30.964 C209.75,31.7666667 210.454667,32.168 211.36,32.168 Z M211.36,31.244 C210.837333,31.244 210.415,30.9476667 210.093,30.355 C209.771,29.7623333 209.61,28.8126667 209.61,27.506 C209.61,26.8526667 209.652,26.2926667 209.736,25.826 C209.82,25.3593333 209.939,24.979 210.093,24.685 C210.247,24.391 210.431333,24.174 210.646,24.034 C210.860667,23.894 211.098667,23.824 211.36,23.824 C211.621333,23.824 211.857,23.894 212.067,24.034 C212.277,24.174 212.459,24.391 212.613,24.685 C212.767,24.979 212.886,25.3593333 212.97,25.826 C213.054,26.2926667 213.096,26.8526667 213.096,27.506 C213.096,28.1593333 213.054,28.7216667 212.97,29.193 C212.886,29.6643333 212.767,30.0516667 212.613,30.355 C212.459,30.6583333 212.277,30.8823333 212.067,31.027 C211.857,31.1716667 211.621333,31.244 211.36,31.244 Z M219.018,32 C219.531333,32 220.002667,31.944 220.432,31.832 C220.861333,31.72 221.23,31.552 221.538,31.328 C221.846,31.104 222.084,30.824 222.252,30.488 C222.42,30.152 222.504,29.76 222.504,29.312 C222.504,28.6773333 222.331333,28.178 221.986,27.814 C221.640667,27.45 221.188,27.2166667 220.628,27.114 L220.628,27.114 L220.628,27.058 C221.066667,26.918 221.400333,26.6636667 221.629,26.295 C221.857667,25.9263333 221.972,25.5133333 221.972,25.056 C221.972,24.6546667 221.895,24.3116667 221.741,24.027 C221.587,23.7423333 221.372333,23.5113333 221.097,23.334 C220.821667,23.1566667 220.490333,23.026 220.103,22.942 C219.715667,22.858 219.288667,22.816 218.822,22.816 L218.822,22.816 L216.092,22.816 L216.092,32 L219.018,32 Z M218.612,26.722 L217.254,26.722 L217.254,23.74 L218.668,23.74 C219.386667,23.74 219.925667,23.852 220.285,24.076 C220.644333,24.3 220.824,24.678 220.824,25.21 C220.824,25.6766667 220.651333,26.0453333 220.306,26.316 C219.960667,26.5866667 219.396,26.722 218.612,26.722 L218.612,26.722 Z M218.85,31.076 L217.254,31.076 L217.254,27.618 L218.85,27.618 C219.662,27.618 220.282667,27.751 220.712,28.017 C221.141333,28.283 221.356,28.7006667 221.356,29.27 C221.356,29.886 221.136667,30.341 220.698,30.635 C220.259333,30.929 219.643333,31.076 218.85,31.076 L218.85,31.076 Z" id="Obligations$100B" fill="#666666" fill-rule="nonzero"></path>
                    <path d="M286.592,14.168 C287.124,14.168 287.602333,14.091 288.027,13.937 C288.451667,13.783 288.815667,13.538 289.119,13.202 C289.422333,12.866 289.653333,12.4343333 289.812,11.907 C289.970667,11.3796667 290.05,10.738 290.05,9.982 L290.05,9.982 L290.05,4.844 L288.496,4.844 L288.496,10.108 C288.496,10.6026667 288.449333,11.0203333 288.356,11.361 C288.262667,11.7016667 288.132,11.9746667 287.964,12.18 C287.796,12.3853333 287.595333,12.5323333 287.362,12.621 C287.128667,12.7096667 286.872,12.754 286.592,12.754 C286.312,12.754 286.06,12.7096667 285.836,12.621 C285.612,12.5323333 285.418333,12.3853333 285.255,12.18 C285.091667,11.9746667 284.965667,11.7016667 284.877,11.361 C284.788333,11.0203333 284.744,10.6026667 284.744,10.108 L284.744,10.108 L284.744,4.844 L283.12,4.844 L283.12,9.982 C283.12,10.738 283.201667,11.3796667 283.365,11.907 C283.528333,12.4343333 283.761667,12.866 284.065,13.202 C284.368333,13.538 284.732333,13.783 285.157,13.937 C285.581667,14.091 286.06,14.168 286.592,14.168 Z M293.802,14 L293.802,9.198 C294.091333,8.918 294.350333,8.70566667 294.579,8.561 C294.807667,8.41633333 295.071333,8.344 295.37,8.344 C295.752667,8.344 296.028,8.46066667 296.196,8.694 C296.364,8.92733333 296.448,9.32866667 296.448,9.898 L296.448,9.898 L296.448,14 L298.058,14 L298.058,9.688 C298.058,8.81066667 297.89,8.13633333 297.554,7.665 C297.218,7.19366667 296.681333,6.958 295.944,6.958 C295.468,6.958 295.050333,7.06533333 294.691,7.28 C294.331667,7.49466667 293.998,7.75133333 293.69,8.05 L293.69,8.05 L293.634,8.05 L293.522,7.126 L292.192,7.126 L292.192,14 L293.802,14 Z M302.846,14.168 C303.275333,14.168 303.688333,14.0886667 304.085,13.93 C304.481667,13.7713333 304.829333,13.538 305.128,13.23 C305.426667,12.922 305.667,12.544 305.849,12.096 C306.031,11.648 306.122,11.1393333 306.122,10.57 C306.122,10.0006667 306.031,9.492 305.849,9.044 C305.667,8.596 305.426667,8.218 305.128,7.91 C304.829333,7.602 304.481667,7.36633333 304.085,7.203 C303.688333,7.03966667 303.275333,6.958 302.846,6.958 C302.416667,6.958 302.006,7.03966667 301.614,7.203 C301.222,7.36633333 300.874333,7.602 300.571,7.91 C300.267667,8.218 300.027333,8.596 299.85,9.044 C299.672667,9.492 299.584,10.0006667 299.584,10.57 C299.584,11.1393333 299.672667,11.648 299.85,12.096 C300.027333,12.544 300.267667,12.922 300.571,13.23 C300.874333,13.538 301.222,13.7713333 301.614,13.93 C302.006,14.0886667 302.416667,14.168 302.846,14.168 Z M302.846,12.852 C302.342,12.852 301.947667,12.6443333 301.663,12.229 C301.378333,11.8136667 301.236,11.2606667 301.236,10.57 C301.236,9.87 301.378333,9.31233333 301.663,8.897 C301.947667,8.48166667 302.342,8.274 302.846,8.274 C303.35,8.274 303.746667,8.48166667 304.036,8.897 C304.325333,9.31233333 304.47,9.87 304.47,10.57 C304.47,11.2606667 304.325333,11.8136667 304.036,12.229 C303.746667,12.6443333 303.35,12.852 302.846,12.852 Z M311.05,14.168 C311.432667,14.168 311.801333,14.084 312.156,13.916 C312.510667,13.748 312.823333,13.5053333 313.094,13.188 C313.364667,12.8706667 313.581667,12.481 313.745,12.019 C313.908333,11.557 313.99,11.032 313.99,10.444 C313.99,9.912 313.929333,9.43133333 313.808,9.002 C313.686667,8.57266667 313.509333,8.20633333 313.276,7.903 C313.042667,7.59966667 312.758,7.36633333 312.422,7.203 C312.086,7.03966667 311.703333,6.958 311.274,6.958 C310.919333,6.958 310.571667,7.03733333 310.231,7.196 C309.890333,7.35466667 309.575333,7.56 309.286,7.812 L309.286,7.812 L309.328,6.664 L309.328,4.116 L307.718,4.116 L307.718,14 L308.992,14 L309.132,13.272 L309.174,13.272 C309.463333,13.5613333 309.769,13.783 310.091,13.937 C310.413,14.091 310.732667,14.168 311.05,14.168 Z M310.714,12.838 C310.508667,12.838 310.287,12.796 310.049,12.712 C309.811,12.628 309.570667,12.4786667 309.328,12.264 L309.328,12.264 L309.328,9.058 C309.850667,8.54466667 310.354667,8.288 310.84,8.288 C311.362667,8.288 311.740667,8.47933333 311.974,8.862 C312.207333,9.24466667 312.324,9.78133333 312.324,10.472 C312.324,11.256 312.17,11.8463333 311.862,12.243 C311.554,12.6396667 311.171333,12.838 310.714,12.838 Z M317.168,14.168 C317.522667,14.168 317.807333,14.1213333 318.022,14.028 L318.022,14.028 L317.812,12.824 C317.746667,12.8426667 317.697667,12.852 317.665,12.852 L317.665,12.852 L317.56,12.852 C317.476,12.852 317.396667,12.8123333 317.322,12.733 C317.247333,12.6536667 317.21,12.516 317.21,12.32 L317.21,12.32 L317.21,4.116 L315.6,4.116 L315.6,12.236 C315.6,12.8333333 315.716667,13.3046667 315.95,13.65 C316.183333,13.9953333 316.589333,14.168 317.168,14.168 Z M320.206,5.922 C320.495333,5.922 320.733333,5.838 320.92,5.67 C321.106667,5.502 321.2,5.28266667 321.2,5.012 C321.2,4.74133333 321.106667,4.51966667 320.92,4.347 C320.733333,4.17433333 320.495333,4.088 320.206,4.088 C319.916667,4.088 319.678667,4.17433333 319.492,4.347 C319.305333,4.51966667 319.212,4.74133333 319.212,5.012 C319.212,5.28266667 319.305333,5.502 319.492,5.67 C319.678667,5.838 319.916667,5.922 320.206,5.922 Z M321.004,14 L321.004,7.126 L319.394,7.126 L319.394,14 L321.004,14 Z M325.456,17.038 C326.016,17.038 326.522333,16.975 326.975,16.849 C327.427667,16.723 327.812667,16.5526667 328.13,16.338 C328.447333,16.1233333 328.692333,15.8666667 328.865,15.568 C329.037667,15.2693333 329.124,14.952 329.124,14.616 C329.124,14.0186667 328.911667,13.587 328.487,13.321 C328.062333,13.055 327.434667,12.922 326.604,12.922 L326.604,12.922 L325.386,12.922 C324.966,12.922 324.674333,12.866 324.511,12.754 C324.347667,12.642 324.266,12.488 324.266,12.292 C324.266,12.1333333 324.296333,12.0073333 324.357,11.914 C324.417667,11.8206667 324.499333,11.7273333 324.602,11.634 C324.760667,11.6993333 324.919333,11.746 325.078,11.774 C325.236667,11.802 325.390667,11.816 325.54,11.816 C325.904,11.816 326.244667,11.7646667 326.562,11.662 C326.879333,11.5593333 327.154667,11.41 327.388,11.214 C327.621333,11.018 327.805667,10.7753333 327.941,10.486 C328.076333,10.1966667 328.144,9.86066667 328.144,9.478 C328.144,9.23533333 328.106667,9.01366667 328.032,8.813 C327.957333,8.61233333 327.864,8.44666667 327.752,8.316 L327.752,8.316 L329.012,8.316 L329.012,7.126 L326.548,7.126 C326.408,7.07933333 326.251667,7.03966667 326.079,7.007 C325.906333,6.97433333 325.726667,6.958 325.54,6.958 C325.176,6.958 324.830667,7.01166667 324.504,7.119 C324.177333,7.22633333 323.890333,7.385 323.643,7.595 C323.395667,7.805 323.197333,8.064 323.048,8.372 C322.898667,8.68 322.824,9.03 322.824,9.422 C322.824,9.83266667 322.915,10.1943333 323.097,10.507 C323.279,10.8196667 323.486667,11.0646667 323.72,11.242 L323.72,11.242 L323.72,11.298 C323.524,11.438 323.349,11.6176667 323.195,11.837 C323.041,12.0563333 322.964,12.3013333 322.964,12.572 C322.964,12.852 323.022333,13.0853333 323.139,13.272 C323.255667,13.4586667 323.402667,13.608 323.58,13.72 L323.58,13.72 L323.58,13.776 C323.262667,13.972 323.02,14.1936667 322.852,14.441 C322.684,14.6883333 322.6,14.9566667 322.6,15.246 C322.6,15.5446667 322.672333,15.806 322.817,16.03 C322.961667,16.254 323.16,16.4406667 323.412,16.59 C323.664,16.7393333 323.965,16.8513333 324.315,16.926 C324.665,17.0006667 325.045333,17.038 325.456,17.038 Z M325.54,10.808 C325.204,10.808 324.919333,10.689 324.686,10.451 C324.452667,10.213 324.336,9.87 324.336,9.422 C324.336,8.98333333 324.452667,8.64733333 324.686,8.414 C324.919333,8.18066667 325.204,8.064 325.54,8.064 C325.876,8.064 326.158333,8.183 326.387,8.421 C326.615667,8.659 326.73,8.99266667 326.73,9.422 C326.73,9.87 326.613333,10.213 326.38,10.451 C326.146667,10.689 325.866667,10.808 325.54,10.808 Z M325.708,15.988 C325.157333,15.988 324.725667,15.9016667 324.413,15.729 C324.100333,15.5563333 323.944,15.316 323.944,15.008 C323.944,14.672 324.121333,14.3686667 324.476,14.098 C324.728,14.1633333 325.040667,14.196 325.414,14.196 L325.414,14.196 L326.352,14.196 C326.744,14.196 327.045,14.2426667 327.255,14.336 C327.465,14.4293333 327.57,14.6113333 327.57,14.882 C327.57,15.1806667 327.399667,15.4396667 327.059,15.659 C326.718333,15.8783333 326.268,15.988 325.708,15.988 Z M331.756,14.168 C332.166667,14.168 332.547,14.0793333 332.897,13.902 C333.247,13.7246667 333.576,13.5053333 333.884,13.244 L333.884,13.244 L333.94,13.244 L334.052,14 L335.382,14 L335.382,9.926 C335.382,8.96466667 335.169667,8.22966667 334.745,7.721 C334.320333,7.21233333 333.678667,6.958 332.82,6.958 C332.269333,6.958 331.756,7.04666667 331.28,7.224 C330.804,7.40133333 330.374667,7.61133333 329.992,7.854 L329.992,7.854 L330.58,8.932 C330.888,8.74533333 331.203,8.58666667 331.525,8.456 C331.847,8.32533333 332.176,8.26 332.512,8.26 C332.745333,8.26 332.941333,8.295 333.1,8.365 C333.258667,8.435 333.387,8.533 333.485,8.659 C333.583,8.785 333.653,8.92966667 333.695,9.093 C333.737,9.25633333 333.762667,9.42666667 333.772,9.604 C333.062667,9.67866667 332.453667,9.786 331.945,9.926 C331.436333,10.066 331.016333,10.2386667 330.685,10.444 C330.353667,10.6493333 330.111,10.8943333 329.957,11.179 C329.803,11.4636667 329.726,11.788 329.726,12.152 C329.726,12.7586667 329.912667,13.2463333 330.286,13.615 C330.659333,13.9836667 331.149333,14.168 331.756,14.168 Z M332.274,12.908 C331.984667,12.908 331.746667,12.838 331.56,12.698 C331.373333,12.558 331.28,12.334 331.28,12.026 C331.28,11.858 331.322,11.6993333 331.406,11.55 C331.49,11.4006667 331.63,11.2676667 331.826,11.151 C332.022,11.0343333 332.278667,10.9293333 332.596,10.836 C332.913333,10.7426667 333.305333,10.668 333.772,10.612 L333.772,10.612 L333.772,12.152 C333.510667,12.3946667 333.265667,12.5813333 333.037,12.712 C332.808333,12.8426667 332.554,12.908 332.274,12.908 Z M339.512,14.168 C339.782667,14.168 340.037,14.1423333 340.275,14.091 C340.513,14.0396667 340.725333,13.9813333 340.912,13.916 L340.912,13.916 L340.632,12.726 C340.529333,12.7726667 340.415,12.81 340.289,12.838 C340.163,12.866 340.039333,12.88 339.918,12.88 C339.274,12.88 338.952,12.4786667 338.952,11.676 L338.952,11.676 L338.952,8.4 L340.702,8.4 L340.702,7.126 L338.952,7.126 L338.952,5.25 L337.608,5.25 L337.412,7.126 L336.348,7.196 L336.348,8.4 L337.328,8.4 L337.328,11.676 C337.328,12.0493333 337.367667,12.3876667 337.447,12.691 C337.526333,12.9943333 337.652333,13.2556667 337.825,13.475 C337.997667,13.6943333 338.221667,13.8646667 338.497,13.986 C338.772333,14.1073333 339.110667,14.168 339.512,14.168 Z M344.86,14.168 C345.298667,14.168 345.718667,14.098 346.12,13.958 C346.521333,13.818 346.885333,13.6406667 347.212,13.426 L347.212,13.426 L346.666,12.418 C346.414,12.5766667 346.159667,12.7003333 345.903,12.789 C345.646333,12.8776667 345.368667,12.922 345.07,12.922 C344.51,12.922 344.050333,12.7563333 343.691,12.425 C343.331667,12.0936667 343.114667,11.62 343.04,11.004 L343.04,11.004 L347.408,11.004 C347.426667,10.92 347.443,10.808 347.457,10.668 C347.471,10.528 347.478,10.3786667 347.478,10.22 C347.478,9.744 347.417333,9.30533333 347.296,8.904 C347.174667,8.50266667 346.995,8.15733333 346.757,7.868 C346.519,7.57866667 346.222667,7.35466667 345.868,7.196 C345.513333,7.03733333 345.102667,6.958 344.636,6.958 C344.234667,6.958 343.842667,7.042 343.46,7.21 C343.077333,7.378 342.739,7.616 342.445,7.924 C342.151,8.232 341.915333,8.61 341.738,9.058 C341.560667,9.506 341.472,10.01 341.472,10.57 C341.472,11.1393333 341.558333,11.6456667 341.731,12.089 C341.903667,12.5323333 342.144,12.908 342.452,13.216 C342.76,13.524 343.119333,13.7596667 343.53,13.923 C343.940667,14.0863333 344.384,14.168 344.86,14.168 Z M346.078,9.912 L343.026,9.912 C343.100667,9.352 343.292,8.92733333 343.6,8.638 C343.908,8.34866667 344.267333,8.204 344.678,8.204 C345.154,8.204 345.506333,8.35566667 345.735,8.659 C345.963667,8.96233333 346.078,9.38 346.078,9.912 L346.078,9.912 Z M351.426,14.168 C351.799333,14.168 352.154,14.0793333 352.49,13.902 C352.826,13.7246667 353.12,13.51 353.372,13.258 L353.372,13.258 L353.428,13.258 L353.54,14 L354.87,14 L354.87,4.116 L353.26,4.116 L353.26,6.608 L353.316,7.714 C353.045333,7.48066667 352.774667,7.29633333 352.504,7.161 C352.233333,7.02566667 351.902,6.958 351.51,6.958 C351.136667,6.958 350.775,7.042 350.425,7.21 C350.075,7.378 349.764667,7.616 349.494,7.924 C349.223333,8.232 349.006333,8.61 348.843,9.058 C348.679667,9.506 348.598,10.01 348.598,10.57 C348.598,11.7086667 348.852333,12.593 349.361,13.223 C349.869667,13.853 350.558,14.168 351.426,14.168 Z M351.818,12.838 C351.314,12.838 350.929,12.6443333 350.663,12.257 C350.397,11.8696667 350.264,11.3026667 350.264,10.556 C350.264,9.828 350.418,9.268 350.726,8.876 C351.034,8.484 351.412,8.288 351.86,8.288 C352.093333,8.288 352.324333,8.33 352.553,8.414 C352.781667,8.498 353.017333,8.64733333 353.26,8.862 L353.26,8.862 L353.26,12.068 C352.812,12.5813333 352.331333,12.838 351.818,12.838 Z M285.948,33.54 L285.948,32.126 C286.62,32.0326667 287.149667,31.7713333 287.537,31.342 C287.924333,30.9126667 288.118,30.362 288.118,29.69 C288.118,29.186 288.022333,28.773 287.831,28.451 C287.639667,28.129 287.399333,27.8583333 287.11,27.639 C286.820667,27.4196667 286.505667,27.233 286.165,27.079 C285.824333,26.925 285.509333,26.7663333 285.22,26.603 C284.930667,26.4396667 284.690333,26.2506667 284.499,26.036 C284.307667,25.8213333 284.212,25.546 284.212,25.21 C284.212,24.7993333 284.338,24.4726667 284.59,24.23 C284.842,23.9873333 285.182667,23.866 285.612,23.866 C285.994667,23.866 286.309667,23.936 286.557,24.076 C286.804333,24.216 287.058667,24.412 287.32,24.664 L287.32,24.664 L287.936,23.978 C287.684,23.7073333 287.401667,23.474 287.089,23.278 C286.776333,23.082 286.396,22.9606667 285.948,22.914 L285.948,22.914 L285.948,21.528 L285.108,21.528 L285.108,22.942 C284.492,23.0353333 283.999667,23.2896667 283.631,23.705 C283.262333,24.1203333 283.078,24.6406667 283.078,25.266 C283.078,25.7233333 283.173667,26.099 283.365,26.393 C283.556333,26.687 283.796667,26.9366667 284.086,27.142 C284.375333,27.3473333 284.690333,27.5293333 285.031,27.688 C285.371667,27.8466667 285.686667,28.017 285.976,28.199 C286.265333,28.381 286.505667,28.5956667 286.697,28.843 C286.888333,29.0903333 286.984,29.4006667 286.984,29.774 C286.984,30.2126667 286.855667,30.5626667 286.599,30.824 C286.342333,31.0853333 285.952667,31.216 285.43,31.216 C285.000667,31.216 284.606333,31.125 284.247,30.943 C283.887667,30.761 283.558667,30.5393333 283.26,30.278 L283.26,30.278 L282.728,31.076 C283.026667,31.3466667 283.386,31.5823333 283.806,31.783 C284.226,31.9836667 284.66,32.1073333 285.108,32.154 L285.108,32.154 L285.108,33.54 L285.948,33.54 Z M295.104,32 L295.104,31.048 L293.256,31.048 L293.256,23.068 L292.374,23.068 C292.131333,23.2173333 291.858333,23.3456667 291.555,23.453 C291.251667,23.5603333 290.894667,23.6513333 290.484,23.726 L290.484,23.726 L290.484,24.468 L292.108,24.468 L292.108,31.048 L290.064,31.048 L290.064,32 L295.104,32 Z M302.244,32 L302.244,31.006 L299.654,31.006 C299.420667,31.006 299.173333,31.0153333 298.912,31.034 C298.650667,31.0526667 298.398667,31.0713333 298.156,31.09 C298.688,30.5393333 299.175667,30.019 299.619,29.529 C300.062333,29.039 300.445,28.5676667 300.767,28.115 C301.089,27.6623333 301.341,27.2236667 301.523,26.799 C301.705,26.3743333 301.796,25.952 301.796,25.532 C301.796,24.7386667 301.558,24.1016667 301.082,23.621 C300.606,23.1403333 299.952667,22.9 299.122,22.9 C298.534,22.9 298.03,23.0236667 297.61,23.271 C297.19,23.5183333 296.793333,23.8473333 296.42,24.258 L296.42,24.258 L297.078,24.916 C297.339333,24.6173333 297.628667,24.363 297.946,24.153 C298.263333,23.943 298.608667,23.838 298.982,23.838 C299.551333,23.838 299.976,24.0013333 300.256,24.328 C300.536,24.6546667 300.676,25.0746667 300.676,25.588 C300.676,25.952 300.582667,26.3276667 300.396,26.715 C300.209333,27.1023333 299.938667,27.527 299.584,27.989 C299.229333,28.451 298.790667,28.9526667 298.268,29.494 C297.745333,30.0353333 297.148,30.642 296.476,31.314 L296.476,31.314 L296.476,32 L302.244,32 Z M307.06,32 C307.573333,32 308.044667,31.944 308.474,31.832 C308.903333,31.72 309.272,31.552 309.58,31.328 C309.888,31.104 310.126,30.824 310.294,30.488 C310.462,30.152 310.546,29.76 310.546,29.312 C310.546,28.6773333 310.373333,28.178 310.028,27.814 C309.682667,27.45 309.23,27.2166667 308.67,27.114 L308.67,27.114 L308.67,27.058 C309.108667,26.918 309.442333,26.6636667 309.671,26.295 C309.899667,25.9263333 310.014,25.5133333 310.014,25.056 C310.014,24.6546667 309.937,24.3116667 309.783,24.027 C309.629,23.7423333 309.414333,23.5113333 309.139,23.334 C308.863667,23.1566667 308.532333,23.026 308.145,22.942 C307.757667,22.858 307.330667,22.816 306.864,22.816 L306.864,22.816 L304.134,22.816 L304.134,32 L307.06,32 Z M306.654,26.722 L305.296,26.722 L305.296,23.74 L306.71,23.74 C307.428667,23.74 307.967667,23.852 308.327,24.076 C308.686333,24.3 308.866,24.678 308.866,25.21 C308.866,25.6766667 308.693333,26.0453333 308.348,26.316 C308.002667,26.5866667 307.438,26.722 306.654,26.722 L306.654,26.722 Z M306.892,31.076 L305.296,31.076 L305.296,27.618 L306.892,27.618 C307.704,27.618 308.324667,27.751 308.754,28.017 C309.183333,28.283 309.398,28.7006667 309.398,29.27 C309.398,29.886 309.178667,30.341 308.74,30.635 C308.301333,30.929 307.685333,31.076 306.892,31.076 L306.892,31.076 Z" id="Unobligated$12B" fill="#666666" fill-rule="nonzero"></path>
                    <path d="M95,8 L89,8 C87.8954305,8 87,8.8954305 87,10 L87,26 C87,27.1045695 87.8954305,28 89,28 L95,28 L95,28" id="Line-2" stroke="#C6C6C6" stroke-linecap="round"></path>
                    <line x1="86.5" y1="18.5" x2="46.5" y2="18.5" id="Line-4" stroke="#C6C6C6" stroke-linecap="round"></line>
                    <path d="M4.368,24.54 L4.368,23.084 C5.096,22.9253333 5.642,22.6056667 6.006,22.125 C6.37,21.6443333 6.552,21.068 6.552,20.396 C6.552,19.948 6.461,19.5723333 6.279,19.269 C6.097,18.9656667 5.86833333,18.7066667 5.593,18.492 C5.31766667,18.2773333 5.02133333,18.0953333 4.704,17.946 C4.38666667,17.7966667 4.09033333,17.652 3.815,17.512 C3.53966667,17.372 3.311,17.225 3.129,17.071 C2.947,16.917 2.856,16.728 2.856,16.504 C2.856,16.1866667 2.94466667,15.958 3.122,15.818 C3.29933333,15.678 3.556,15.608 3.892,15.608 C4.19066667,15.608 4.45666667,15.6663333 4.69,15.783 C4.92333333,15.8996667 5.166,16.0746667 5.418,16.308 L5.418,16.308 L6.454,15.132 C6.18333333,14.8426667 5.88,14.5953333 5.544,14.39 C5.208,14.1846667 4.816,14.0493333 4.368,13.984 L4.368,13.984 L4.368,12.57 L3.01,12.57 L3.01,14.012 C2.34733333,14.1426667 1.827,14.4343333 1.449,14.887 C1.071,15.3396667 0.882,15.9113333 0.882,16.602 C0.882,17.022 0.973,17.3766667 1.155,17.666 C1.337,17.9553333 1.56566667,18.2073333 1.841,18.422 C2.11633333,18.6366667 2.41266667,18.821 2.73,18.975 C3.04733333,19.129 3.34366667,19.283 3.619,19.437 C3.89433333,19.591 4.123,19.752 4.305,19.92 C4.487,20.088 4.578,20.2933333 4.578,20.536 C4.578,20.8626667 4.487,21.1053333 4.305,21.264 C4.123,21.4226667 3.836,21.502 3.444,21.502 C3.108,21.502 2.779,21.4343333 2.457,21.299 C2.135,21.1636667 1.79666667,20.9606667 1.442,20.69 L1.442,20.69 L0.546,22.076 C0.872666667,22.3746667 1.26233333,22.615 1.715,22.797 C2.16766667,22.979 2.59933333,23.0933333 3.01,23.14 L3.01,23.14 L3.01,24.54 L4.368,24.54 Z M14.028,23 L14.028,21.334 L12.362,21.334 L12.362,14.11 L10.85,14.11 C10.5326667,14.2966667 10.206,14.4553333 9.87,14.586 C9.534,14.7166667 9.12333333,14.8286667 8.638,14.922 L8.638,14.922 L8.638,16.196 L10.304,16.196 L10.304,21.334 L8.372,21.334 L8.372,23 L14.028,23 Z M21.42,23 L21.42,21.334 L19.754,21.334 L19.754,14.11 L18.242,14.11 C17.9246667,14.2966667 17.598,14.4553333 17.262,14.586 C16.926,14.7166667 16.5153333,14.8286667 16.03,14.922 L16.03,14.922 L16.03,16.196 L17.696,16.196 L17.696,21.334 L15.764,21.334 L15.764,23 L21.42,23 Z M28.952,23 L28.952,21.264 L27.16,21.264 C26.9453333,21.264 26.7003333,21.2756667 26.425,21.299 C26.1496667,21.3223333 25.9,21.348 25.676,21.376 C26.04,21.0026667 26.3923333,20.6223333 26.733,20.235 C27.0736667,19.8476667 27.377,19.4603333 27.643,19.073 C27.909,18.6856667 28.1213333,18.2983333 28.28,17.911 C28.4386667,17.5236667 28.518,17.1433333 28.518,16.77 C28.518,16.3406667 28.448,15.9533333 28.308,15.608 C28.168,15.2626667 27.9673333,14.9663333 27.706,14.719 C27.4446667,14.4716667 27.1343333,14.2803333 26.775,14.145 C26.4156667,14.0096667 26.0166667,13.942 25.578,13.942 C24.9433333,13.942 24.3973333,14.061 23.94,14.299 C23.4826667,14.537 23.0346667,14.8893333 22.596,15.356 L22.596,15.356 L23.716,16.462 C23.94,16.2193333 24.178,16.007 24.43,15.825 C24.682,15.643 24.9713333,15.552 25.298,15.552 C25.69,15.552 25.998,15.6663333 26.222,15.895 C26.446,16.1236667 26.558,16.4573333 26.558,16.896 C26.558,17.2133333 26.4623333,17.547 26.271,17.897 C26.0796667,18.247 25.8136667,18.625 25.473,19.031 C25.1323333,19.437 24.7263333,19.871 24.255,20.333 C23.7836667,20.795 23.2633333,21.292 22.694,21.824 L22.694,21.824 L22.694,23 L28.952,23 Z M36.834,23 C37.3286667,23 37.7906667,22.9463333 38.22,22.839 C38.6493333,22.7316667 39.025,22.5683333 39.347,22.349 C39.669,22.1296667 39.921,21.852 40.103,21.516 C40.285,21.18 40.376,20.7786667 40.376,20.312 C40.376,20.004 40.334,19.731 40.25,19.493 C40.166,19.255 40.0493333,19.0473333 39.9,18.87 C39.7506667,18.6926667 39.578,18.5456667 39.382,18.429 C39.186,18.3123333 38.9713333,18.226 38.738,18.17 L38.738,18.17 L38.738,18.114 C38.9246667,18.0486667 39.0903333,17.946 39.235,17.806 C39.3796667,17.666 39.5033333,17.5073333 39.606,17.33 C39.7086667,17.1526667 39.788,16.9613333 39.844,16.756 C39.9,16.5506667 39.928,16.3453333 39.928,16.14 C39.928,15.7013333 39.8416667,15.3373333 39.669,15.048 C39.4963333,14.7586667 39.2583333,14.5253333 38.955,14.348 C38.6516667,14.1706667 38.297,14.047 37.891,13.977 C37.485,13.907 37.044,13.872 36.568,13.872 L36.568,13.872 L33.446,13.872 L33.446,23 L36.834,23 Z M36.47,17.526 L35.504,17.526 L35.504,15.468 L36.484,15.468 C36.9693333,15.468 37.3286667,15.5426667 37.562,15.692 C37.7953333,15.8413333 37.912,16.0933333 37.912,16.448 C37.912,16.7746667 37.7976667,17.036 37.569,17.232 C37.3403333,17.428 36.974,17.526 36.47,17.526 L36.47,17.526 Z M36.666,21.404 L35.504,21.404 L35.504,19.052 L36.666,19.052 C37.2353333,19.052 37.66,19.1383333 37.94,19.311 C38.22,19.4836667 38.36,19.7706667 38.36,20.172 C38.36,20.9933333 37.7953333,21.404 36.666,21.404 L36.666,21.404 Z" id="$112B" fill="#555555" fill-rule="nonzero"></path>
                </g>
                <g id="labels" transform="translate(93.000000, 18.000000)"></g>
                <g id="Group-14" transform="translate(0.000000, 2.000000)">
                    <rect id="outlays" fill="#331E4D" x="0" y="0" width="14" height="31"></rect>
                    <rect id="unobligated" fill="#F3E9FF" x="26" y="0" width="5" height="31"></rect>
                    <rect id="obligated" fill="#6F41A7" x="13" y="0" width="16" height="31"></rect>
                </g>
            </g>
        </g>
    </g>
</svg>