<?xml version="1.0" encoding="UTF-8"?>
<svg width="351px" height="85px" viewBox="0 0 351 85" version="1.1" xmlns="http://www.w3.org/2000/svg">
    <title>05. tablet - phase 3 general</title>
    <g id="SVG" stroke="none" stroke-width="1" fill="none" fill-rule="evenodd">
        <g id="Viz-3---Tablet-Outline" transform="translate(-70.000000, -1034.000000)">
            <g id="05.-tablet---phase-3-general" transform="translate(70.000000, 1034.000000)">
                <path d="M4.718,63.168 C5.31533333,63.168 5.86133333,63.0583333 6.356,62.839 C6.85066667,62.6196667 7.27766667,62.3023333 7.637,61.887 C7.99633333,61.4716667 8.274,60.97 8.47,60.382 C8.666,59.794 8.764,59.1266667 8.764,58.38 C8.764,57.6426667 8.666,56.9823333 8.47,56.399 C8.274,55.8156667 7.99633333,55.3233333 7.637,54.922 C7.27766667,54.5206667 6.85066667,54.2126667 6.356,53.998 C5.86133333,53.7833333 5.31533333,53.676 4.718,53.676 C4.12066667,53.676 3.57466667,53.7833333 3.08,53.998 C2.58533333,54.2126667 2.16066667,54.5206667 1.806,54.922 C1.45133333,55.3233333 1.176,55.8156667 0.98,56.399 C0.784,56.9823333 0.686,57.6426667 0.686,58.38 C0.686,59.1266667 0.784,59.794 0.98,60.382 C1.176,60.97 1.45133333,61.4716667 1.806,61.887 C2.16066667,62.3023333 2.58533333,62.6196667 3.08,62.839 C3.57466667,63.0583333 4.12066667,63.168 4.718,63.168 Z M4.718,61.754 C4.354,61.754 4.02733333,61.6746667 3.738,61.516 C3.44866667,61.3573333 3.20133333,61.131 2.996,60.837 C2.79066667,60.543 2.632,60.1883333 2.52,59.773 C2.408,59.3576667 2.352,58.8933333 2.352,58.38 C2.352,57.3533333 2.56433333,56.5483333 2.989,55.965 C3.41366667,55.3816667 3.99,55.09 4.718,55.09 C5.446,55.09 6.02233333,55.3816667 6.447,55.965 C6.87166667,56.5483333 7.084,57.3533333 7.084,58.38 C7.084,58.8933333 7.028,59.3576667 6.916,59.773 C6.804,60.1883333 6.64533333,60.543 6.44,60.837 C6.23466667,61.131 5.98733333,61.3573333 5.698,61.516 C5.40866667,61.6746667 5.082,61.754 4.718,61.754 Z M12.502,63.168 C12.978,63.168 13.391,63.0606667 13.741,62.846 C14.091,62.6313333 14.4153333,62.3466667 14.714,61.992 L14.714,61.992 L14.756,61.992 L14.882,63 L16.198,63 L16.198,56.126 L14.588,56.126 L14.588,60.83 C14.3266667,61.166 14.0816667,61.4086667 13.853,61.558 C13.6243333,61.7073333 13.3606667,61.782 13.062,61.782 C12.6886667,61.782 12.418,61.6653333 12.25,61.432 C12.082,61.1986667 11.998,60.7973333 11.998,60.228 L11.998,60.228 L11.998,56.126 L10.388,56.126 L10.388,60.438 C10.388,61.3153333 10.556,61.9896667 10.892,62.461 C11.228,62.9323333 11.7646667,63.168 12.502,63.168 Z M20.664,63.168 C20.9346667,63.168 21.189,63.1423333 21.427,63.091 C21.665,63.0396667 21.8773333,62.9813333 22.064,62.916 L22.064,62.916 L21.784,61.726 C21.6813333,61.7726667 21.567,61.81 21.441,61.838 C21.315,61.866 21.1913333,61.88 21.07,61.88 C20.426,61.88 20.104,61.4786667 20.104,60.676 L20.104,60.676 L20.104,57.4 L21.854,57.4 L21.854,56.126 L20.104,56.126 L20.104,54.25 L18.76,54.25 L18.564,56.126 L17.5,56.196 L17.5,57.4 L18.48,57.4 L18.48,60.676 C18.48,61.0493333 18.5196667,61.3876667 18.599,61.691 C18.6783333,61.9943333 18.8043333,62.2556667 18.977,62.475 C19.1496667,62.6943333 19.3736667,62.8646667 19.649,62.986 C19.9243333,63.1073333 20.2626667,63.168 20.664,63.168 Z M24.864,63.168 C25.2186667,63.168 25.5033333,63.1213333 25.718,63.028 L25.718,63.028 L25.508,61.824 C25.4426667,61.8426667 25.3936667,61.852 25.361,61.852 L25.361,61.852 L25.256,61.852 C25.172,61.852 25.0926667,61.8123333 25.018,61.733 C24.9433333,61.6536667 24.906,61.516 24.906,61.32 L24.906,61.32 L24.906,53.116 L23.296,53.116 L23.296,61.236 C23.296,61.8333333 23.4126667,62.3046667 23.646,62.65 C23.8793333,62.9953333 24.2853333,63.168 24.864,63.168 Z M28.756,63.168 C29.1666667,63.168 29.547,63.0793333 29.897,62.902 C30.247,62.7246667 30.576,62.5053333 30.884,62.244 L30.884,62.244 L30.94,62.244 L31.052,63 L32.382,63 L32.382,58.926 C32.382,57.9646667 32.1696667,57.2296667 31.745,56.721 C31.3203333,56.2123333 30.6786667,55.958 29.82,55.958 C29.2693333,55.958 28.756,56.0466667 28.28,56.224 C27.804,56.4013333 27.3746667,56.6113333 26.992,56.854 L26.992,56.854 L27.58,57.932 C27.888,57.7453333 28.203,57.5866667 28.525,57.456 C28.847,57.3253333 29.176,57.26 29.512,57.26 C29.7453333,57.26 29.9413333,57.295 30.1,57.365 C30.2586667,57.435 30.387,57.533 30.485,57.659 C30.583,57.785 30.653,57.9296667 30.695,58.093 C30.737,58.2563333 30.7626667,58.4266667 30.772,58.604 C30.0626667,58.6786667 29.4536667,58.786 28.945,58.926 C28.4363333,59.066 28.0163333,59.2386667 27.685,59.444 C27.3536667,59.6493333 27.111,59.8943333 26.957,60.179 C26.803,60.4636667 26.726,60.788 26.726,61.152 C26.726,61.7586667 26.9126667,62.2463333 27.286,62.615 C27.6593333,62.9836667 28.1493333,63.168 28.756,63.168 Z M29.274,61.908 C28.9846667,61.908 28.7466667,61.838 28.56,61.698 C28.3733333,61.558 28.28,61.334 28.28,61.026 C28.28,60.858 28.322,60.6993333 28.406,60.55 C28.49,60.4006667 28.63,60.2676667 28.826,60.151 C29.022,60.0343333 29.2786667,59.9293333 29.596,59.836 C29.9133333,59.7426667 30.3053333,59.668 30.772,59.612 L30.772,59.612 L30.772,61.152 C30.5106667,61.3946667 30.2656667,61.5813333 30.037,61.712 C29.8083333,61.8426667 29.554,61.908 29.274,61.908 Z M34.776,65.828 C35.1493333,65.828 35.4783333,65.7696667 35.763,65.653 C36.0476667,65.5363333 36.2996667,65.3683333 36.519,65.149 C36.7383333,64.9296667 36.932,64.666 37.1,64.358 C37.268,64.05 37.422,63.7 37.562,63.308 L37.562,63.308 L40.054,56.126 L38.5,56.126 L37.464,59.5 C37.38,59.808 37.2936667,60.1276667 37.205,60.459 C37.1163333,60.7903333 37.03,61.1146667 36.946,61.432 L36.946,61.432 L36.89,61.432 C36.7873333,61.1053333 36.687,60.7763333 36.589,60.445 C36.491,60.1136667 36.3906667,59.7986667 36.288,59.5 L36.288,59.5 L35.098,56.126 L33.46,56.126 L36.162,62.916 L36.036,63.35 C35.924,63.6953333 35.7583333,63.9776667 35.539,64.197 C35.3196667,64.4163333 35.028,64.526 34.664,64.526 C34.58,64.526 34.4936667,64.5143333 34.405,64.491 C34.3163333,64.4676667 34.2393333,64.4466667 34.174,64.428 L34.174,64.428 L33.88,65.688 C34.0106667,65.7346667 34.146,65.7696667 34.286,65.793 C34.426,65.8163333 34.5893333,65.828 34.776,65.828 Z M43.162,63.168 C43.5913333,63.168 43.974,63.112 44.31,63 C44.646,62.888 44.926,62.7363333 45.15,62.545 C45.374,62.3536667 45.5443333,62.1296667 45.661,61.873 C45.7776667,61.6163333 45.836,61.3386667 45.836,61.04 C45.836,60.7226667 45.7776667,60.4496667 45.661,60.221 C45.5443333,59.9923333 45.3903333,59.7986667 45.199,59.64 C45.0076667,59.4813333 44.7953333,59.3483333 44.562,59.241 C44.3286667,59.1336667 44.0953333,59.038 43.862,58.954 C43.6753333,58.8886667 43.4956667,58.8233333 43.323,58.758 C43.1503333,58.6926667 42.9986667,58.6226667 42.868,58.548 C42.7373333,58.4733333 42.6323333,58.387 42.553,58.289 C42.4736667,58.191 42.434,58.072 42.434,57.932 C42.434,57.7173333 42.5156667,57.5376667 42.679,57.393 C42.8423333,57.2483333 43.0966667,57.176 43.442,57.176 C43.7126667,57.176 43.9716667,57.2296667 44.219,57.337 C44.4663333,57.4443333 44.7113333,57.5866667 44.954,57.764 L44.954,57.764 L45.696,56.784 C45.416,56.5693333 45.0846667,56.378 44.702,56.21 C44.3193333,56.042 43.89,55.958 43.414,55.958 C42.6393333,55.958 42.028,56.1493333 41.58,56.532 C41.132,56.9146667 40.908,57.4093333 40.908,58.016 C40.908,58.3053333 40.9663333,58.555 41.083,58.765 C41.1996667,58.975 41.349,59.1593333 41.531,59.318 C41.713,59.4766667 41.9206667,59.612 42.154,59.724 C42.3873333,59.836 42.616,59.934 42.84,60.018 C43.0173333,60.0926667 43.1946667,60.165 43.372,60.235 C43.5493333,60.305 43.708,60.382 43.848,60.466 C43.988,60.55 44.1,60.6456667 44.184,60.753 C44.268,60.8603333 44.31,60.984 44.31,61.124 C44.31,61.3666667 44.2213333,61.565 44.044,61.719 C43.8666667,61.873 43.5913333,61.95 43.218,61.95 C42.8633333,61.95 42.5343333,61.8823333 42.231,61.747 C41.9276667,61.6116667 41.622,61.4226667 41.314,61.18 L41.314,61.18 L40.558,62.216 C40.894,62.4866667 41.293,62.713 41.755,62.895 C42.217,63.077 42.686,63.168 43.162,63.168 Z M3.948,82.54 L3.948,81.126 C4.62,81.0326667 5.14966667,80.7713333 5.537,80.342 C5.92433333,79.9126667 6.118,79.362 6.118,78.69 C6.118,78.186 6.02233333,77.773 5.831,77.451 C5.63966667,77.129 5.39933333,76.8583333 5.11,76.639 C4.82066667,76.4196667 4.50566667,76.233 4.165,76.079 C3.82433333,75.925 3.50933333,75.7663333 3.22,75.603 C2.93066667,75.4396667 2.69033333,75.2506667 2.499,75.036 C2.30766667,74.8213333 2.212,74.546 2.212,74.21 C2.212,73.7993333 2.338,73.4726667 2.59,73.23 C2.842,72.9873333 3.18266667,72.866 3.612,72.866 C3.99466667,72.866 4.30966667,72.936 4.557,73.076 C4.80433333,73.216 5.05866667,73.412 5.32,73.664 L5.32,73.664 L5.936,72.978 C5.684,72.7073333 5.40166667,72.474 5.089,72.278 C4.77633333,72.082 4.396,71.9606667 3.948,71.914 L3.948,71.914 L3.948,70.528 L3.108,70.528 L3.108,71.942 C2.492,72.0353333 1.99966667,72.2896667 1.631,72.705 C1.26233333,73.1203333 1.078,73.6406667 1.078,74.266 C1.078,74.7233333 1.17366667,75.099 1.365,75.393 C1.55633333,75.687 1.79666667,75.9366667 2.086,76.142 C2.37533333,76.3473333 2.69033333,76.5293333 3.031,76.688 C3.37166667,76.8466667 3.68666667,77.017 3.976,77.199 C4.26533333,77.381 4.50566667,77.5956667 4.697,77.843 C4.88833333,78.0903333 4.984,78.4006667 4.984,78.774 C4.984,79.2126667 4.85566667,79.5626667 4.599,79.824 C4.34233333,80.0853333 3.95266667,80.216 3.43,80.216 C3.00066667,80.216 2.60633333,80.125 2.247,79.943 C1.88766667,79.761 1.55866667,79.5393333 1.26,79.278 L1.26,79.278 L0.728,80.076 C1.02666667,80.3466667 1.386,80.5823333 1.806,80.783 C2.226,80.9836667 2.66,81.1073333 3.108,81.154 L3.108,81.154 L3.108,82.54 L3.948,82.54 Z M10.458,81.168 C10.8873333,81.168 11.2793333,81.1073333 11.634,80.986 C11.9886667,80.8646667 12.292,80.6966667 12.544,80.482 C12.796,80.2673333 12.992,80.0153333 13.132,79.726 C13.272,79.4366667 13.342,79.124 13.342,78.788 C13.342,78.4893333 13.2976667,78.2233333 13.209,77.99 C13.1203333,77.7566667 13.0036667,77.549 12.859,77.367 C12.7143333,77.185 12.5486667,77.0216667 12.362,76.877 C12.1753333,76.7323333 11.984,76.604 11.788,76.492 L11.788,76.492 L11.788,76.436 C11.928,76.3333333 12.0703333,76.2073333 12.215,76.058 C12.3596667,75.9086667 12.4903333,75.7406667 12.607,75.554 C12.7236667,75.3673333 12.8216667,75.1666667 12.901,74.952 C12.9803333,74.7373333 13.02,74.5133333 13.02,74.28 C13.02,73.9346667 12.9616667,73.615 12.845,73.321 C12.7283333,73.027 12.5603333,72.775 12.341,72.565 C12.1216667,72.355 11.858,72.1916667 11.55,72.075 C11.242,71.9583333 10.892,71.9 10.5,71.9 C10.136,71.9 9.8,71.956 9.492,72.068 C9.184,72.18 8.918,72.3363333 8.694,72.537 C8.47,72.7376667 8.29266667,72.978 8.162,73.258 C8.03133333,73.538 7.966,73.8506667 7.966,74.196 C7.966,74.672 8.092,75.0756667 8.344,75.407 C8.596,75.7383333 8.88533333,76.0206667 9.212,76.254 L9.212,76.254 L9.212,76.31 C8.99733333,76.422 8.78966667,76.555 8.589,76.709 C8.38833333,76.863 8.211,77.0403333 8.057,77.241 C7.903,77.4416667 7.777,77.6656667 7.679,77.913 C7.581,78.1603333 7.532,78.4286667 7.532,78.718 C7.532,79.0726667 7.60666667,79.3993333 7.756,79.698 C7.90533333,79.9966667 8.10833333,80.2556667 8.365,80.475 C8.62166667,80.6943333 8.92966667,80.8646667 9.289,80.986 C9.64833333,81.1073333 10.038,81.168 10.458,81.168 Z M11.088,76.128 C10.8173333,76.0253333 10.5583333,75.9156667 10.311,75.799 C10.0636667,75.6823333 9.84433333,75.5493333 9.653,75.4 C9.46166667,75.2506667 9.31,75.0803333 9.198,74.889 C9.086,74.6976667 9.03,74.4666667 9.03,74.196 C9.03,73.7573333 9.16533333,73.4073333 9.436,73.146 C9.70666667,72.8846667 10.052,72.754 10.472,72.754 C10.9666667,72.754 11.3493333,72.9056667 11.62,73.209 C11.8906667,73.5123333 12.026,73.888 12.026,74.336 C12.026,74.6626667 11.9443333,74.9753333 11.781,75.274 C11.6176667,75.5726667 11.3866667,75.8573333 11.088,76.128 Z M10.486,80.314 C10.2153333,80.314 9.96333333,80.272 9.73,80.188 C9.49666667,80.104 9.29366667,79.985 9.121,79.831 C8.94833333,79.677 8.813,79.4973333 8.715,79.292 C8.617,79.0866667 8.568,78.858 8.568,78.606 C8.568,78.1953333 8.687,77.829 8.925,77.507 C9.163,77.185 9.45933333,76.9026667 9.814,76.66 C10.1313333,76.7906667 10.437,76.919 10.731,77.045 C11.025,77.171 11.284,77.311 11.508,77.465 C11.732,77.619 11.9093333,77.7986667 12.04,78.004 C12.1706667,78.2093333 12.236,78.4566667 12.236,78.746 C12.236,79.2126667 12.075,79.5906667 11.753,79.88 C11.431,80.1693333 11.0086667,80.314 10.486,80.314 Z M17.192,81.168 C17.584,81.168 17.9596667,81.1003333 18.319,80.965 C18.6783333,80.8296667 18.998,80.6336667 19.278,80.377 C19.558,80.1203333 19.782,79.8053333 19.95,79.432 C20.118,79.0586667 20.202,78.6293333 20.202,78.144 C20.202,77.6586667 20.1296667,77.241 19.985,76.891 C19.8403333,76.541 19.642,76.2516667 19.39,76.023 C19.138,75.7943333 18.844,75.624 18.508,75.512 C18.172,75.4 17.8126667,75.344 17.43,75.344 C17.1593333,75.344 16.9166667,75.3766667 16.702,75.442 C16.4873333,75.5073333 16.2726667,75.596 16.058,75.708 L16.058,75.708 L16.296,73.062 L19.754,73.062 L19.754,72.068 L15.288,72.068 L14.994,76.366 L15.61,76.758 C15.8806667,76.5806667 16.1256667,76.4453333 16.345,76.352 C16.5643333,76.2586667 16.828,76.212 17.136,76.212 C17.7146667,76.212 18.1766667,76.3846667 18.522,76.73 C18.8673333,77.0753333 19.04,77.556 19.04,78.172 C19.04,78.48 18.9886667,78.76 18.886,79.012 C18.7833333,79.264 18.6433333,79.4786667 18.466,79.656 C18.2886667,79.8333333 18.081,79.971 17.843,80.069 C17.605,80.167 17.3506667,80.216 17.08,80.216 C16.5573333,80.216 16.1163333,80.1133333 15.757,79.908 C15.3976667,79.7026667 15.0873333,79.4646667 14.826,79.194 L14.826,79.194 L14.266,79.95 C14.4153333,80.1086667 14.5856667,80.2603333 14.777,80.405 C14.9683333,80.5496667 15.183,80.678 15.421,80.79 C15.659,80.902 15.925,80.993 16.219,81.063 C16.513,81.133 16.8373333,81.168 17.192,81.168 Z M27.202,81 L27.202,80.006 L24.612,80.006 C24.3786667,80.006 24.1313333,80.0153333 23.87,80.034 C23.6086667,80.0526667 23.3566667,80.0713333 23.114,80.09 C23.646,79.5393333 24.1336667,79.019 24.577,78.529 C25.0203333,78.039 25.403,77.5676667 25.725,77.115 C26.047,76.6623333 26.299,76.2236667 26.481,75.799 C26.663,75.3743333 26.754,74.952 26.754,74.532 C26.754,73.7386667 26.516,73.1016667 26.04,72.621 C25.564,72.1403333 24.9106667,71.9 24.08,71.9 C23.492,71.9 22.988,72.0236667 22.568,72.271 C22.148,72.5183333 21.7513333,72.8473333 21.378,73.258 L21.378,73.258 L22.036,73.916 C22.2973333,73.6173333 22.5866667,73.363 22.904,73.153 C23.2213333,72.943 23.5666667,72.838 23.94,72.838 C24.5093333,72.838 24.934,73.0013333 25.214,73.328 C25.494,73.6546667 25.634,74.0746667 25.634,74.588 C25.634,74.952 25.5406667,75.3276667 25.354,75.715 C25.1673333,76.1023333 24.8966667,76.527 24.542,76.989 C24.1873333,77.451 23.7486667,77.9526667 23.226,78.494 C22.7033333,79.0353333 22.106,79.642 21.434,80.314 L21.434,80.314 L21.434,81 L27.202,81 Z M32.018,81 C32.5313333,81 33.0026667,80.944 33.432,80.832 C33.8613333,80.72 34.23,80.552 34.538,80.328 C34.846,80.104 35.084,79.824 35.252,79.488 C35.42,79.152 35.504,78.76 35.504,78.312 C35.504,77.6773333 35.3313333,77.178 34.986,76.814 C34.6406667,76.45 34.188,76.2166667 33.628,76.114 L33.628,76.114 L33.628,76.058 C34.0666667,75.918 34.4003333,75.6636667 34.629,75.295 C34.8576667,74.9263333 34.972,74.5133333 34.972,74.056 C34.972,73.6546667 34.895,73.3116667 34.741,73.027 C34.587,72.7423333 34.3723333,72.5113333 34.097,72.334 C33.8216667,72.1566667 33.4903333,72.026 33.103,71.942 C32.7156667,71.858 32.2886667,71.816 31.822,71.816 L31.822,71.816 L29.092,71.816 L29.092,81 L32.018,81 Z M31.612,75.722 L30.254,75.722 L30.254,72.74 L31.668,72.74 C32.3866667,72.74 32.9256667,72.852 33.285,73.076 C33.6443333,73.3 33.824,73.678 33.824,74.21 C33.824,74.6766667 33.6513333,75.0453333 33.306,75.316 C32.9606667,75.5866667 32.396,75.722 31.612,75.722 L31.612,75.722 Z M31.85,80.076 L30.254,80.076 L30.254,76.618 L31.85,76.618 C32.662,76.618 33.2826667,76.751 33.712,77.017 C34.1413333,77.283 34.356,77.7006667 34.356,78.27 C34.356,78.886 34.1366667,79.341 33.698,79.635 C33.2593333,79.929 32.6433333,80.076 31.85,80.076 L31.85,80.076 Z" id="Outlays$852B" fill="#666666" fill-rule="nonzero"></path>
                <path d="M131.718,63.168 C132.315333,63.168 132.861333,63.0583333 133.356,62.839 C133.850667,62.6196667 134.277667,62.3023333 134.637,61.887 C134.996333,61.4716667 135.274,60.97 135.47,60.382 C135.666,59.794 135.764,59.1266667 135.764,58.38 C135.764,57.6426667 135.666,56.9823333 135.47,56.399 C135.274,55.8156667 134.996333,55.3233333 134.637,54.922 C134.277667,54.5206667 133.850667,54.2126667 133.356,53.998 C132.861333,53.7833333 132.315333,53.676 131.718,53.676 C131.120667,53.676 130.574667,53.7833333 130.08,53.998 C129.585333,54.2126667 129.160667,54.5206667 128.806,54.922 C128.451333,55.3233333 128.176,55.8156667 127.98,56.399 C127.784,56.9823333 127.686,57.6426667 127.686,58.38 C127.686,59.1266667 127.784,59.794 127.98,60.382 C128.176,60.97 128.451333,61.4716667 128.806,61.887 C129.160667,62.3023333 129.585333,62.6196667 130.08,62.839 C130.574667,63.0583333 131.120667,63.168 131.718,63.168 Z M131.718,61.754 C131.354,61.754 131.027333,61.6746667 130.738,61.516 C130.448667,61.3573333 130.201333,61.131 129.996,60.837 C129.790667,60.543 129.632,60.1883333 129.52,59.773 C129.408,59.3576667 129.352,58.8933333 129.352,58.38 C129.352,57.3533333 129.564333,56.5483333 129.989,55.965 C130.413667,55.3816667 130.99,55.09 131.718,55.09 C132.446,55.09 133.022333,55.3816667 133.447,55.965 C133.871667,56.5483333 134.084,57.3533333 134.084,58.38 C134.084,58.8933333 134.028,59.3576667 133.916,59.773 C133.804,60.1883333 133.645333,60.543 133.44,60.837 C133.234667,61.131 132.987333,61.3573333 132.698,61.516 C132.408667,61.6746667 132.082,61.754 131.718,61.754 Z M140.79,63.168 C141.172667,63.168 141.541333,63.084 141.896,62.916 C142.250667,62.748 142.563333,62.5053333 142.834,62.188 C143.104667,61.8706667 143.321667,61.481 143.485,61.019 C143.648333,60.557 143.73,60.032 143.73,59.444 C143.73,58.912 143.669333,58.4313333 143.548,58.002 C143.426667,57.5726667 143.249333,57.2063333 143.016,56.903 C142.782667,56.5996667 142.498,56.3663333 142.162,56.203 C141.826,56.0396667 141.443333,55.958 141.014,55.958 C140.659333,55.958 140.311667,56.0373333 139.971,56.196 C139.630333,56.3546667 139.315333,56.56 139.026,56.812 L139.026,56.812 L139.068,55.664 L139.068,53.116 L137.458,53.116 L137.458,63 L138.732,63 L138.872,62.272 L138.914,62.272 C139.203333,62.5613333 139.509,62.783 139.831,62.937 C140.153,63.091 140.472667,63.168 140.79,63.168 Z M140.454,61.838 C140.248667,61.838 140.027,61.796 139.789,61.712 C139.551,61.628 139.310667,61.4786667 139.068,61.264 L139.068,61.264 L139.068,58.058 C139.590667,57.5446667 140.094667,57.288 140.58,57.288 C141.102667,57.288 141.480667,57.4793333 141.714,57.862 C141.947333,58.2446667 142.064,58.7813333 142.064,59.472 C142.064,60.256 141.91,60.8463333 141.602,61.243 C141.294,61.6396667 140.911333,61.838 140.454,61.838 Z M146.908,63.168 C147.262667,63.168 147.547333,63.1213333 147.762,63.028 L147.762,63.028 L147.552,61.824 C147.486667,61.8426667 147.437667,61.852 147.405,61.852 L147.405,61.852 L147.3,61.852 C147.216,61.852 147.136667,61.8123333 147.062,61.733 C146.987333,61.6536667 146.95,61.516 146.95,61.32 L146.95,61.32 L146.95,53.116 L145.34,53.116 L145.34,61.236 C145.34,61.8333333 145.456667,62.3046667 145.69,62.65 C145.923333,62.9953333 146.329333,63.168 146.908,63.168 Z M149.946,54.922 C150.235333,54.922 150.473333,54.838 150.66,54.67 C150.846667,54.502 150.94,54.2826667 150.94,54.012 C150.94,53.7413333 150.846667,53.5196667 150.66,53.347 C150.473333,53.1743333 150.235333,53.088 149.946,53.088 C149.656667,53.088 149.418667,53.1743333 149.232,53.347 C149.045333,53.5196667 148.952,53.7413333 148.952,54.012 C148.952,54.2826667 149.045333,54.502 149.232,54.67 C149.418667,54.838 149.656667,54.922 149.946,54.922 Z M150.744,63 L150.744,56.126 L149.134,56.126 L149.134,63 L150.744,63 Z M155.196,66.038 C155.756,66.038 156.262333,65.975 156.715,65.849 C157.167667,65.723 157.552667,65.5526667 157.87,65.338 C158.187333,65.1233333 158.432333,64.8666667 158.605,64.568 C158.777667,64.2693333 158.864,63.952 158.864,63.616 C158.864,63.0186667 158.651667,62.587 158.227,62.321 C157.802333,62.055 157.174667,61.922 156.344,61.922 L156.344,61.922 L155.126,61.922 C154.706,61.922 154.414333,61.866 154.251,61.754 C154.087667,61.642 154.006,61.488 154.006,61.292 C154.006,61.1333333 154.036333,61.0073333 154.097,60.914 C154.157667,60.8206667 154.239333,60.7273333 154.342,60.634 C154.500667,60.6993333 154.659333,60.746 154.818,60.774 C154.976667,60.802 155.130667,60.816 155.28,60.816 C155.644,60.816 155.984667,60.7646667 156.302,60.662 C156.619333,60.5593333 156.894667,60.41 157.128,60.214 C157.361333,60.018 157.545667,59.7753333 157.681,59.486 C157.816333,59.1966667 157.884,58.8606667 157.884,58.478 C157.884,58.2353333 157.846667,58.0136667 157.772,57.813 C157.697333,57.6123333 157.604,57.4466667 157.492,57.316 L157.492,57.316 L158.752,57.316 L158.752,56.126 L156.288,56.126 C156.148,56.0793333 155.991667,56.0396667 155.819,56.007 C155.646333,55.9743333 155.466667,55.958 155.28,55.958 C154.916,55.958 154.570667,56.0116667 154.244,56.119 C153.917333,56.2263333 153.630333,56.385 153.383,56.595 C153.135667,56.805 152.937333,57.064 152.788,57.372 C152.638667,57.68 152.564,58.03 152.564,58.422 C152.564,58.8326667 152.655,59.1943333 152.837,59.507 C153.019,59.8196667 153.226667,60.0646667 153.46,60.242 L153.46,60.242 L153.46,60.298 C153.264,60.438 153.089,60.6176667 152.935,60.837 C152.781,61.0563333 152.704,61.3013333 152.704,61.572 C152.704,61.852 152.762333,62.0853333 152.879,62.272 C152.995667,62.4586667 153.142667,62.608 153.32,62.72 L153.32,62.72 L153.32,62.776 C153.002667,62.972 152.76,63.1936667 152.592,63.441 C152.424,63.6883333 152.34,63.9566667 152.34,64.246 C152.34,64.5446667 152.412333,64.806 152.557,65.03 C152.701667,65.254 152.9,65.4406667 153.152,65.59 C153.404,65.7393333 153.705,65.8513333 154.055,65.926 C154.405,66.0006667 154.785333,66.038 155.196,66.038 Z M155.28,59.808 C154.944,59.808 154.659333,59.689 154.426,59.451 C154.192667,59.213 154.076,58.87 154.076,58.422 C154.076,57.9833333 154.192667,57.6473333 154.426,57.414 C154.659333,57.1806667 154.944,57.064 155.28,57.064 C155.616,57.064 155.898333,57.183 156.127,57.421 C156.355667,57.659 156.47,57.9926667 156.47,58.422 C156.47,58.87 156.353333,59.213 156.12,59.451 C155.886667,59.689 155.606667,59.808 155.28,59.808 Z M155.448,64.988 C154.897333,64.988 154.465667,64.9016667 154.153,64.729 C153.840333,64.5563333 153.684,64.316 153.684,64.008 C153.684,63.672 153.861333,63.3686667 154.216,63.098 C154.468,63.1633333 154.780667,63.196 155.154,63.196 L155.154,63.196 L156.092,63.196 C156.484,63.196 156.785,63.2426667 156.995,63.336 C157.205,63.4293333 157.31,63.6113333 157.31,63.882 C157.31,64.1806667 157.139667,64.4396667 156.799,64.659 C156.458333,64.8783333 156.008,64.988 155.448,64.988 Z M161.496,63.168 C161.906667,63.168 162.287,63.0793333 162.637,62.902 C162.987,62.7246667 163.316,62.5053333 163.624,62.244 L163.624,62.244 L163.68,62.244 L163.792,63 L165.122,63 L165.122,58.926 C165.122,57.9646667 164.909667,57.2296667 164.485,56.721 C164.060333,56.2123333 163.418667,55.958 162.56,55.958 C162.009333,55.958 161.496,56.0466667 161.02,56.224 C160.544,56.4013333 160.114667,56.6113333 159.732,56.854 L159.732,56.854 L160.32,57.932 C160.628,57.7453333 160.943,57.5866667 161.265,57.456 C161.587,57.3253333 161.916,57.26 162.252,57.26 C162.485333,57.26 162.681333,57.295 162.84,57.365 C162.998667,57.435 163.127,57.533 163.225,57.659 C163.323,57.785 163.393,57.9296667 163.435,58.093 C163.477,58.2563333 163.502667,58.4266667 163.512,58.604 C162.802667,58.6786667 162.193667,58.786 161.685,58.926 C161.176333,59.066 160.756333,59.2386667 160.425,59.444 C160.093667,59.6493333 159.851,59.8943333 159.697,60.179 C159.543,60.4636667 159.466,60.788 159.466,61.152 C159.466,61.7586667 159.652667,62.2463333 160.026,62.615 C160.399333,62.9836667 160.889333,63.168 161.496,63.168 Z M162.014,61.908 C161.724667,61.908 161.486667,61.838 161.3,61.698 C161.113333,61.558 161.02,61.334 161.02,61.026 C161.02,60.858 161.062,60.6993333 161.146,60.55 C161.23,60.4006667 161.37,60.2676667 161.566,60.151 C161.762,60.0343333 162.018667,59.9293333 162.336,59.836 C162.653333,59.7426667 163.045333,59.668 163.512,59.612 L163.512,59.612 L163.512,61.152 C163.250667,61.3946667 163.005667,61.5813333 162.777,61.712 C162.548333,61.8426667 162.294,61.908 162.014,61.908 Z M169.252,63.168 C169.522667,63.168 169.777,63.1423333 170.015,63.091 C170.253,63.0396667 170.465333,62.9813333 170.652,62.916 L170.652,62.916 L170.372,61.726 C170.269333,61.7726667 170.155,61.81 170.029,61.838 C169.903,61.866 169.779333,61.88 169.658,61.88 C169.014,61.88 168.692,61.4786667 168.692,60.676 L168.692,60.676 L168.692,57.4 L170.442,57.4 L170.442,56.126 L168.692,56.126 L168.692,54.25 L167.348,54.25 L167.152,56.126 L166.088,56.196 L166.088,57.4 L167.068,57.4 L167.068,60.676 C167.068,61.0493333 167.107667,61.3876667 167.187,61.691 C167.266333,61.9943333 167.392333,62.2556667 167.565,62.475 C167.737667,62.6943333 167.961667,62.8646667 168.237,62.986 C168.512333,63.1073333 168.850667,63.168 169.252,63.168 Z M172.696,54.922 C172.985333,54.922 173.223333,54.838 173.41,54.67 C173.596667,54.502 173.69,54.2826667 173.69,54.012 C173.69,53.7413333 173.596667,53.5196667 173.41,53.347 C173.223333,53.1743333 172.985333,53.088 172.696,53.088 C172.406667,53.088 172.168667,53.1743333 171.982,53.347 C171.795333,53.5196667 171.702,53.7413333 171.702,54.012 C171.702,54.2826667 171.795333,54.502 171.982,54.67 C172.168667,54.838 172.406667,54.922 172.696,54.922 Z M173.494,63 L173.494,56.126 L171.884,56.126 L171.884,63 L173.494,63 Z M178.366,63.168 C178.795333,63.168 179.208333,63.0886667 179.605,62.93 C180.001667,62.7713333 180.349333,62.538 180.648,62.23 C180.946667,61.922 181.187,61.544 181.369,61.096 C181.551,60.648 181.642,60.1393333 181.642,59.57 C181.642,59.0006667 181.551,58.492 181.369,58.044 C181.187,57.596 180.946667,57.218 180.648,56.91 C180.349333,56.602 180.001667,56.3663333 179.605,56.203 C179.208333,56.0396667 178.795333,55.958 178.366,55.958 C177.936667,55.958 177.526,56.0396667 177.134,56.203 C176.742,56.3663333 176.394333,56.602 176.091,56.91 C175.787667,57.218 175.547333,57.596 175.37,58.044 C175.192667,58.492 175.104,59.0006667 175.104,59.57 C175.104,60.1393333 175.192667,60.648 175.37,61.096 C175.547333,61.544 175.787667,61.922 176.091,62.23 C176.394333,62.538 176.742,62.7713333 177.134,62.93 C177.526,63.0886667 177.936667,63.168 178.366,63.168 Z M178.366,61.852 C177.862,61.852 177.467667,61.6443333 177.183,61.229 C176.898333,60.8136667 176.756,60.2606667 176.756,59.57 C176.756,58.87 176.898333,58.3123333 177.183,57.897 C177.467667,57.4816667 177.862,57.274 178.366,57.274 C178.87,57.274 179.266667,57.4816667 179.556,57.897 C179.845333,58.3123333 179.99,58.87 179.99,59.57 C179.99,60.2606667 179.845333,60.8136667 179.556,61.229 C179.266667,61.6443333 178.87,61.852 178.366,61.852 Z M184.848,63 L184.848,58.198 C185.137333,57.918 185.396333,57.7056667 185.625,57.561 C185.853667,57.4163333 186.117333,57.344 186.416,57.344 C186.798667,57.344 187.074,57.4606667 187.242,57.694 C187.41,57.9273333 187.494,58.3286667 187.494,58.898 L187.494,58.898 L187.494,63 L189.104,63 L189.104,58.688 C189.104,57.8106667 188.936,57.1363333 188.6,56.665 C188.264,56.1936667 187.727333,55.958 186.99,55.958 C186.514,55.958 186.096333,56.0653333 185.737,56.28 C185.377667,56.4946667 185.044,56.7513333 184.736,57.05 L184.736,57.05 L184.68,57.05 L184.568,56.126 L183.238,56.126 L183.238,63 L184.848,63 Z M192.996,63.168 C193.425333,63.168 193.808,63.112 194.144,63 C194.48,62.888 194.76,62.7363333 194.984,62.545 C195.208,62.3536667 195.378333,62.1296667 195.495,61.873 C195.611667,61.6163333 195.67,61.3386667 195.67,61.04 C195.67,60.7226667 195.611667,60.4496667 195.495,60.221 C195.378333,59.9923333 195.224333,59.7986667 195.033,59.64 C194.841667,59.4813333 194.629333,59.3483333 194.396,59.241 C194.162667,59.1336667 193.929333,59.038 193.696,58.954 C193.509333,58.8886667 193.329667,58.8233333 193.157,58.758 C192.984333,58.6926667 192.832667,58.6226667 192.702,58.548 C192.571333,58.4733333 192.466333,58.387 192.387,58.289 C192.307667,58.191 192.268,58.072 192.268,57.932 C192.268,57.7173333 192.349667,57.5376667 192.513,57.393 C192.676333,57.2483333 192.930667,57.176 193.276,57.176 C193.546667,57.176 193.805667,57.2296667 194.053,57.337 C194.300333,57.4443333 194.545333,57.5866667 194.788,57.764 L194.788,57.764 L195.53,56.784 C195.25,56.5693333 194.918667,56.378 194.536,56.21 C194.153333,56.042 193.724,55.958 193.248,55.958 C192.473333,55.958 191.862,56.1493333 191.414,56.532 C190.966,56.9146667 190.742,57.4093333 190.742,58.016 C190.742,58.3053333 190.800333,58.555 190.917,58.765 C191.033667,58.975 191.183,59.1593333 191.365,59.318 C191.547,59.4766667 191.754667,59.612 191.988,59.724 C192.221333,59.836 192.45,59.934 192.674,60.018 C192.851333,60.0926667 193.028667,60.165 193.206,60.235 C193.383333,60.305 193.542,60.382 193.682,60.466 C193.822,60.55 193.934,60.6456667 194.018,60.753 C194.102,60.8603333 194.144,60.984 194.144,61.124 C194.144,61.3666667 194.055333,61.565 193.878,61.719 C193.700667,61.873 193.425333,61.95 193.052,61.95 C192.697333,61.95 192.368333,61.8823333 192.065,61.747 C191.761667,61.6116667 191.456,61.4226667 191.148,61.18 L191.148,61.18 L190.392,62.216 C190.728,62.4866667 191.127,62.713 191.589,62.895 C192.051,63.077 192.52,63.168 192.996,63.168 Z M130.948,82.54 L130.948,81.126 C131.62,81.0326667 132.149667,80.7713333 132.537,80.342 C132.924333,79.9126667 133.118,79.362 133.118,78.69 C133.118,78.186 133.022333,77.773 132.831,77.451 C132.639667,77.129 132.399333,76.8583333 132.11,76.639 C131.820667,76.4196667 131.505667,76.233 131.165,76.079 C130.824333,75.925 130.509333,75.7663333 130.22,75.603 C129.930667,75.4396667 129.690333,75.2506667 129.499,75.036 C129.307667,74.8213333 129.212,74.546 129.212,74.21 C129.212,73.7993333 129.338,73.4726667 129.59,73.23 C129.842,72.9873333 130.182667,72.866 130.612,72.866 C130.994667,72.866 131.309667,72.936 131.557,73.076 C131.804333,73.216 132.058667,73.412 132.32,73.664 L132.32,73.664 L132.936,72.978 C132.684,72.7073333 132.401667,72.474 132.089,72.278 C131.776333,72.082 131.396,71.9606667 130.948,71.914 L130.948,71.914 L130.948,70.528 L130.108,70.528 L130.108,71.942 C129.492,72.0353333 128.999667,72.2896667 128.631,72.705 C128.262333,73.1203333 128.078,73.6406667 128.078,74.266 C128.078,74.7233333 128.173667,75.099 128.365,75.393 C128.556333,75.687 128.796667,75.9366667 129.086,76.142 C129.375333,76.3473333 129.690333,76.5293333 130.031,76.688 C130.371667,76.8466667 130.686667,77.017 130.976,77.199 C131.265333,77.381 131.505667,77.5956667 131.697,77.843 C131.888333,78.0903333 131.984,78.4006667 131.984,78.774 C131.984,79.2126667 131.855667,79.5626667 131.599,79.824 C131.342333,80.0853333 130.952667,80.216 130.43,80.216 C130.000667,80.216 129.606333,80.125 129.247,79.943 C128.887667,79.761 128.558667,79.5393333 128.26,79.278 L128.26,79.278 L127.728,80.076 C128.026667,80.3466667 128.386,80.5823333 128.806,80.783 C129.226,80.9836667 129.66,81.1073333 130.108,81.154 L130.108,81.154 L130.108,82.54 L130.948,82.54 Z M136.828,81.168 C137.276,81.168 137.703,81.077 138.109,80.895 C138.515,80.713 138.876667,80.4236667 139.194,80.027 C139.511333,79.6303333 139.763333,79.117 139.95,78.487 C140.136667,77.857 140.23,77.094 140.23,76.198 C140.23,75.4793333 140.153,74.8516667 139.999,74.315 C139.845,73.7783333 139.630333,73.3303333 139.355,72.971 C139.079667,72.6116667 138.753,72.3433333 138.375,72.166 C137.997,71.9886667 137.588667,71.9 137.15,71.9 C136.795333,71.9 136.457,71.97 136.135,72.11 C135.813,72.25 135.533,72.446 135.295,72.698 C135.057,72.95 134.868,73.251 134.728,73.601 C134.588,73.951 134.518,74.3406667 134.518,74.77 C134.518,75.694 134.746667,76.3846667 135.204,76.842 C135.661333,77.2993333 136.277333,77.528 137.052,77.528 C137.425333,77.528 137.798667,77.4253333 138.172,77.22 C138.545333,77.0146667 138.872,76.7346667 139.152,76.38 C139.142667,77.0986667 139.072667,77.7006667 138.942,78.186 C138.811333,78.6713333 138.638667,79.0656667 138.424,79.369 C138.209333,79.6723333 137.962,79.8893333 137.682,80.02 C137.402,80.1506667 137.103333,80.216 136.786,80.216 C136.506,80.216 136.237667,80.1506667 135.981,80.02 C135.724333,79.8893333 135.502667,79.7166667 135.316,79.502 L135.316,79.502 L134.672,80.23 C134.914667,80.5006667 135.215667,80.7246667 135.575,80.902 C135.934333,81.0793333 136.352,81.168 136.828,81.168 Z M137.248,76.66 C136.688,76.66 136.272667,76.492 136.002,76.156 C135.731333,75.82 135.596,75.358 135.596,74.77 C135.596,74.4806667 135.635667,74.2146667 135.715,73.972 C135.794333,73.7293333 135.904,73.5216667 136.044,73.349 C136.184,73.1763333 136.349667,73.0433333 136.541,72.95 C136.732333,72.8566667 136.935333,72.81 137.15,72.81 C137.719333,72.81 138.172,73.034 138.508,73.482 C138.844,73.93 139.049333,74.5926667 139.124,75.47 C138.834667,75.89 138.524333,76.1933333 138.193,76.38 C137.861667,76.5666667 137.546667,76.66 137.248,76.66 Z M144.22,81.168 C144.630667,81.168 145.013333,81.1096667 145.368,80.993 C145.722667,80.8763333 146.033,80.7083333 146.299,80.489 C146.565,80.2696667 146.775,80.0013333 146.929,79.684 C147.083,79.3666667 147.16,79.012 147.16,78.62 C147.16,78.312 147.111,78.032 147.013,77.78 C146.915,77.528 146.777333,77.3063333 146.6,77.115 C146.422667,76.9236667 146.217333,76.765 145.984,76.639 C145.750667,76.513 145.498667,76.4173333 145.228,76.352 L145.228,76.352 L145.228,76.296 C145.713333,76.1093333 146.105333,75.8433333 146.404,75.498 C146.702667,75.1526667 146.852,74.7093333 146.852,74.168 C146.852,73.804 146.786667,73.482 146.656,73.202 C146.525333,72.922 146.341,72.6863333 146.103,72.495 C145.865,72.3036667 145.582667,72.1566667 145.256,72.054 C144.929333,71.9513333 144.57,71.9 144.178,71.9 C143.646,71.9 143.172333,72.005 142.757,72.215 C142.341667,72.425 141.961333,72.6933333 141.616,73.02 L141.616,73.02 L142.232,73.748 C142.502667,73.4773333 142.794333,73.258 143.107,73.09 C143.419667,72.922 143.762667,72.838 144.136,72.838 C144.612,72.838 144.987667,72.964 145.263,73.216 C145.538333,73.468 145.676,73.8133333 145.676,74.252 C145.676,74.4853333 145.634,74.7046667 145.55,74.91 C145.466,75.1153333 145.323667,75.2926667 145.123,75.442 C144.922333,75.5913333 144.661,75.708 144.339,75.792 C144.017,75.876 143.618,75.918 143.142,75.918 L143.142,75.918 L143.142,76.8 C143.674,76.8 144.122,76.842 144.486,76.926 C144.85,77.01 145.144,77.1313333 145.368,77.29 C145.592,77.4486667 145.753,77.6376667 145.851,77.857 C145.949,78.0763333 145.998,78.3166667 145.998,78.578 C145.998,79.082 145.825333,79.481 145.48,79.775 C145.134667,80.069 144.691333,80.216 144.15,80.216 C143.618,80.216 143.172333,80.1086667 142.813,79.894 C142.453667,79.6793333 142.138667,79.432 141.868,79.152 L141.868,79.152 L141.28,79.908 C141.429333,80.076 141.599667,80.2346667 141.791,80.384 C141.982333,80.5333333 142.199333,80.6663333 142.442,80.783 C142.684667,80.8996667 142.953,80.993 143.247,81.063 C143.541,81.133 143.865333,81.168 144.22,81.168 Z M150.744,81.168 C151.192,81.168 151.619,81.077 152.025,80.895 C152.431,80.713 152.792667,80.4236667 153.11,80.027 C153.427333,79.6303333 153.679333,79.117 153.866,78.487 C154.052667,77.857 154.146,77.094 154.146,76.198 C154.146,75.4793333 154.069,74.8516667 153.915,74.315 C153.761,73.7783333 153.546333,73.3303333 153.271,72.971 C152.995667,72.6116667 152.669,72.3433333 152.291,72.166 C151.913,71.9886667 151.504667,71.9 151.066,71.9 C150.711333,71.9 150.373,71.97 150.051,72.11 C149.729,72.25 149.449,72.446 149.211,72.698 C148.973,72.95 148.784,73.251 148.644,73.601 C148.504,73.951 148.434,74.3406667 148.434,74.77 C148.434,75.694 148.662667,76.3846667 149.12,76.842 C149.577333,77.2993333 150.193333,77.528 150.968,77.528 C151.341333,77.528 151.714667,77.4253333 152.088,77.22 C152.461333,77.0146667 152.788,76.7346667 153.068,76.38 C153.058667,77.0986667 152.988667,77.7006667 152.858,78.186 C152.727333,78.6713333 152.554667,79.0656667 152.34,79.369 C152.125333,79.6723333 151.878,79.8893333 151.598,80.02 C151.318,80.1506667 151.019333,80.216 150.702,80.216 C150.422,80.216 150.153667,80.1506667 149.897,80.02 C149.640333,79.8893333 149.418667,79.7166667 149.232,79.502 L149.232,79.502 L148.588,80.23 C148.830667,80.5006667 149.131667,80.7246667 149.491,80.902 C149.850333,81.0793333 150.268,81.168 150.744,81.168 Z M151.164,76.66 C150.604,76.66 150.188667,76.492 149.918,76.156 C149.647333,75.82 149.512,75.358 149.512,74.77 C149.512,74.4806667 149.551667,74.2146667 149.631,73.972 C149.710333,73.7293333 149.82,73.5216667 149.96,73.349 C150.1,73.1763333 150.265667,73.0433333 150.457,72.95 C150.648333,72.8566667 150.851333,72.81 151.066,72.81 C151.635333,72.81 152.088,73.034 152.424,73.482 C152.76,73.93 152.965333,74.5926667 153.04,75.47 C152.750667,75.89 152.440333,76.1933333 152.109,76.38 C151.777667,76.5666667 151.462667,76.66 151.164,76.66 Z M159.018,81 C159.531333,81 160.002667,80.944 160.432,80.832 C160.861333,80.72 161.23,80.552 161.538,80.328 C161.846,80.104 162.084,79.824 162.252,79.488 C162.42,79.152 162.504,78.76 162.504,78.312 C162.504,77.6773333 162.331333,77.178 161.986,76.814 C161.640667,76.45 161.188,76.2166667 160.628,76.114 L160.628,76.114 L160.628,76.058 C161.066667,75.918 161.400333,75.6636667 161.629,75.295 C161.857667,74.9263333 161.972,74.5133333 161.972,74.056 C161.972,73.6546667 161.895,73.3116667 161.741,73.027 C161.587,72.7423333 161.372333,72.5113333 161.097,72.334 C160.821667,72.1566667 160.490333,72.026 160.103,71.942 C159.715667,71.858 159.288667,71.816 158.822,71.816 L158.822,71.816 L156.092,71.816 L156.092,81 L159.018,81 Z M158.612,75.722 L157.254,75.722 L157.254,72.74 L158.668,72.74 C159.386667,72.74 159.925667,72.852 160.285,73.076 C160.644333,73.3 160.824,73.678 160.824,74.21 C160.824,74.6766667 160.651333,75.0453333 160.306,75.316 C159.960667,75.5866667 159.396,75.722 158.612,75.722 L158.612,75.722 Z M158.85,80.076 L157.254,80.076 L157.254,76.618 L158.85,76.618 C159.662,76.618 160.282667,76.751 160.712,77.017 C161.141333,77.283 161.356,77.7006667 161.356,78.27 C161.356,78.886 161.136667,79.341 160.698,79.635 C160.259333,79.929 159.643333,80.076 158.85,80.076 L158.85,80.076 Z" id="Obligations$939B" fill="#666666" fill-rule="nonzero"></path>
                <path d="M281.592,63.168 C282.124,63.168 282.602333,63.091 283.027,62.937 C283.451667,62.783 283.815667,62.538 284.119,62.202 C284.422333,61.866 284.653333,61.4343333 284.812,60.907 C284.970667,60.3796667 285.05,59.738 285.05,58.982 L285.05,58.982 L285.05,53.844 L283.496,53.844 L283.496,59.108 C283.496,59.6026667 283.449333,60.0203333 283.356,60.361 C283.262667,60.7016667 283.132,60.9746667 282.964,61.18 C282.796,61.3853333 282.595333,61.5323333 282.362,61.621 C282.128667,61.7096667 281.872,61.754 281.592,61.754 C281.312,61.754 281.06,61.7096667 280.836,61.621 C280.612,61.5323333 280.418333,61.3853333 280.255,61.18 C280.091667,60.9746667 279.965667,60.7016667 279.877,60.361 C279.788333,60.0203333 279.744,59.6026667 279.744,59.108 L279.744,59.108 L279.744,53.844 L278.12,53.844 L278.12,58.982 C278.12,59.738 278.201667,60.3796667 278.365,60.907 C278.528333,61.4343333 278.761667,61.866 279.065,62.202 C279.368333,62.538 279.732333,62.783 280.157,62.937 C280.581667,63.091 281.06,63.168 281.592,63.168 Z M288.802,63 L288.802,58.198 C289.091333,57.918 289.350333,57.7056667 289.579,57.561 C289.807667,57.4163333 290.071333,57.344 290.37,57.344 C290.752667,57.344 291.028,57.4606667 291.196,57.694 C291.364,57.9273333 291.448,58.3286667 291.448,58.898 L291.448,58.898 L291.448,63 L293.058,63 L293.058,58.688 C293.058,57.8106667 292.89,57.1363333 292.554,56.665 C292.218,56.1936667 291.681333,55.958 290.944,55.958 C290.468,55.958 290.050333,56.0653333 289.691,56.28 C289.331667,56.4946667 288.998,56.7513333 288.69,57.05 L288.69,57.05 L288.634,57.05 L288.522,56.126 L287.192,56.126 L287.192,63 L288.802,63 Z M297.846,63.168 C298.275333,63.168 298.688333,63.0886667 299.085,62.93 C299.481667,62.7713333 299.829333,62.538 300.128,62.23 C300.426667,61.922 300.667,61.544 300.849,61.096 C301.031,60.648 301.122,60.1393333 301.122,59.57 C301.122,59.0006667 301.031,58.492 300.849,58.044 C300.667,57.596 300.426667,57.218 300.128,56.91 C299.829333,56.602 299.481667,56.3663333 299.085,56.203 C298.688333,56.0396667 298.275333,55.958 297.846,55.958 C297.416667,55.958 297.006,56.0396667 296.614,56.203 C296.222,56.3663333 295.874333,56.602 295.571,56.91 C295.267667,57.218 295.027333,57.596 294.85,58.044 C294.672667,58.492 294.584,59.0006667 294.584,59.57 C294.584,60.1393333 294.672667,60.648 294.85,61.096 C295.027333,61.544 295.267667,61.922 295.571,62.23 C295.874333,62.538 296.222,62.7713333 296.614,62.93 C297.006,63.0886667 297.416667,63.168 297.846,63.168 Z M297.846,61.852 C297.342,61.852 296.947667,61.6443333 296.663,61.229 C296.378333,60.8136667 296.236,60.2606667 296.236,59.57 C296.236,58.87 296.378333,58.3123333 296.663,57.897 C296.947667,57.4816667 297.342,57.274 297.846,57.274 C298.35,57.274 298.746667,57.4816667 299.036,57.897 C299.325333,58.3123333 299.47,58.87 299.47,59.57 C299.47,60.2606667 299.325333,60.8136667 299.036,61.229 C298.746667,61.6443333 298.35,61.852 297.846,61.852 Z M306.05,63.168 C306.432667,63.168 306.801333,63.084 307.156,62.916 C307.510667,62.748 307.823333,62.5053333 308.094,62.188 C308.364667,61.8706667 308.581667,61.481 308.745,61.019 C308.908333,60.557 308.99,60.032 308.99,59.444 C308.99,58.912 308.929333,58.4313333 308.808,58.002 C308.686667,57.5726667 308.509333,57.2063333 308.276,56.903 C308.042667,56.5996667 307.758,56.3663333 307.422,56.203 C307.086,56.0396667 306.703333,55.958 306.274,55.958 C305.919333,55.958 305.571667,56.0373333 305.231,56.196 C304.890333,56.3546667 304.575333,56.56 304.286,56.812 L304.286,56.812 L304.328,55.664 L304.328,53.116 L302.718,53.116 L302.718,63 L303.992,63 L304.132,62.272 L304.174,62.272 C304.463333,62.5613333 304.769,62.783 305.091,62.937 C305.413,63.091 305.732667,63.168 306.05,63.168 Z M305.714,61.838 C305.508667,61.838 305.287,61.796 305.049,61.712 C304.811,61.628 304.570667,61.4786667 304.328,61.264 L304.328,61.264 L304.328,58.058 C304.850667,57.5446667 305.354667,57.288 305.84,57.288 C306.362667,57.288 306.740667,57.4793333 306.974,57.862 C307.207333,58.2446667 307.324,58.7813333 307.324,59.472 C307.324,60.256 307.17,60.8463333 306.862,61.243 C306.554,61.6396667 306.171333,61.838 305.714,61.838 Z M312.168,63.168 C312.522667,63.168 312.807333,63.1213333 313.022,63.028 L313.022,63.028 L312.812,61.824 C312.746667,61.8426667 312.697667,61.852 312.665,61.852 L312.665,61.852 L312.56,61.852 C312.476,61.852 312.396667,61.8123333 312.322,61.733 C312.247333,61.6536667 312.21,61.516 312.21,61.32 L312.21,61.32 L312.21,53.116 L310.6,53.116 L310.6,61.236 C310.6,61.8333333 310.716667,62.3046667 310.95,62.65 C311.183333,62.9953333 311.589333,63.168 312.168,63.168 Z M315.206,54.922 C315.495333,54.922 315.733333,54.838 315.92,54.67 C316.106667,54.502 316.2,54.2826667 316.2,54.012 C316.2,53.7413333 316.106667,53.5196667 315.92,53.347 C315.733333,53.1743333 315.495333,53.088 315.206,53.088 C314.916667,53.088 314.678667,53.1743333 314.492,53.347 C314.305333,53.5196667 314.212,53.7413333 314.212,54.012 C314.212,54.2826667 314.305333,54.502 314.492,54.67 C314.678667,54.838 314.916667,54.922 315.206,54.922 Z M316.004,63 L316.004,56.126 L314.394,56.126 L314.394,63 L316.004,63 Z M320.456,66.038 C321.016,66.038 321.522333,65.975 321.975,65.849 C322.427667,65.723 322.812667,65.5526667 323.13,65.338 C323.447333,65.1233333 323.692333,64.8666667 323.865,64.568 C324.037667,64.2693333 324.124,63.952 324.124,63.616 C324.124,63.0186667 323.911667,62.587 323.487,62.321 C323.062333,62.055 322.434667,61.922 321.604,61.922 L321.604,61.922 L320.386,61.922 C319.966,61.922 319.674333,61.866 319.511,61.754 C319.347667,61.642 319.266,61.488 319.266,61.292 C319.266,61.1333333 319.296333,61.0073333 319.357,60.914 C319.417667,60.8206667 319.499333,60.7273333 319.602,60.634 C319.760667,60.6993333 319.919333,60.746 320.078,60.774 C320.236667,60.802 320.390667,60.816 320.54,60.816 C320.904,60.816 321.244667,60.7646667 321.562,60.662 C321.879333,60.5593333 322.154667,60.41 322.388,60.214 C322.621333,60.018 322.805667,59.7753333 322.941,59.486 C323.076333,59.1966667 323.144,58.8606667 323.144,58.478 C323.144,58.2353333 323.106667,58.0136667 323.032,57.813 C322.957333,57.6123333 322.864,57.4466667 322.752,57.316 L322.752,57.316 L324.012,57.316 L324.012,56.126 L321.548,56.126 C321.408,56.0793333 321.251667,56.0396667 321.079,56.007 C320.906333,55.9743333 320.726667,55.958 320.54,55.958 C320.176,55.958 319.830667,56.0116667 319.504,56.119 C319.177333,56.2263333 318.890333,56.385 318.643,56.595 C318.395667,56.805 318.197333,57.064 318.048,57.372 C317.898667,57.68 317.824,58.03 317.824,58.422 C317.824,58.8326667 317.915,59.1943333 318.097,59.507 C318.279,59.8196667 318.486667,60.0646667 318.72,60.242 L318.72,60.242 L318.72,60.298 C318.524,60.438 318.349,60.6176667 318.195,60.837 C318.041,61.0563333 317.964,61.3013333 317.964,61.572 C317.964,61.852 318.022333,62.0853333 318.139,62.272 C318.255667,62.4586667 318.402667,62.608 318.58,62.72 L318.58,62.72 L318.58,62.776 C318.262667,62.972 318.02,63.1936667 317.852,63.441 C317.684,63.6883333 317.6,63.9566667 317.6,64.246 C317.6,64.5446667 317.672333,64.806 317.817,65.03 C317.961667,65.254 318.16,65.4406667 318.412,65.59 C318.664,65.7393333 318.965,65.8513333 319.315,65.926 C319.665,66.0006667 320.045333,66.038 320.456,66.038 Z M320.54,59.808 C320.204,59.808 319.919333,59.689 319.686,59.451 C319.452667,59.213 319.336,58.87 319.336,58.422 C319.336,57.9833333 319.452667,57.6473333 319.686,57.414 C319.919333,57.1806667 320.204,57.064 320.54,57.064 C320.876,57.064 321.158333,57.183 321.387,57.421 C321.615667,57.659 321.73,57.9926667 321.73,58.422 C321.73,58.87 321.613333,59.213 321.38,59.451 C321.146667,59.689 320.866667,59.808 320.54,59.808 Z M320.708,64.988 C320.157333,64.988 319.725667,64.9016667 319.413,64.729 C319.100333,64.5563333 318.944,64.316 318.944,64.008 C318.944,63.672 319.121333,63.3686667 319.476,63.098 C319.728,63.1633333 320.040667,63.196 320.414,63.196 L320.414,63.196 L321.352,63.196 C321.744,63.196 322.045,63.2426667 322.255,63.336 C322.465,63.4293333 322.57,63.6113333 322.57,63.882 C322.57,64.1806667 322.399667,64.4396667 322.059,64.659 C321.718333,64.8783333 321.268,64.988 320.708,64.988 Z M326.756,63.168 C327.166667,63.168 327.547,63.0793333 327.897,62.902 C328.247,62.7246667 328.576,62.5053333 328.884,62.244 L328.884,62.244 L328.94,62.244 L329.052,63 L330.382,63 L330.382,58.926 C330.382,57.9646667 330.169667,57.2296667 329.745,56.721 C329.320333,56.2123333 328.678667,55.958 327.82,55.958 C327.269333,55.958 326.756,56.0466667 326.28,56.224 C325.804,56.4013333 325.374667,56.6113333 324.992,56.854 L324.992,56.854 L325.58,57.932 C325.888,57.7453333 326.203,57.5866667 326.525,57.456 C326.847,57.3253333 327.176,57.26 327.512,57.26 C327.745333,57.26 327.941333,57.295 328.1,57.365 C328.258667,57.435 328.387,57.533 328.485,57.659 C328.583,57.785 328.653,57.9296667 328.695,58.093 C328.737,58.2563333 328.762667,58.4266667 328.772,58.604 C328.062667,58.6786667 327.453667,58.786 326.945,58.926 C326.436333,59.066 326.016333,59.2386667 325.685,59.444 C325.353667,59.6493333 325.111,59.8943333 324.957,60.179 C324.803,60.4636667 324.726,60.788 324.726,61.152 C324.726,61.7586667 324.912667,62.2463333 325.286,62.615 C325.659333,62.9836667 326.149333,63.168 326.756,63.168 Z M327.274,61.908 C326.984667,61.908 326.746667,61.838 326.56,61.698 C326.373333,61.558 326.28,61.334 326.28,61.026 C326.28,60.858 326.322,60.6993333 326.406,60.55 C326.49,60.4006667 326.63,60.2676667 326.826,60.151 C327.022,60.0343333 327.278667,59.9293333 327.596,59.836 C327.913333,59.7426667 328.305333,59.668 328.772,59.612 L328.772,59.612 L328.772,61.152 C328.510667,61.3946667 328.265667,61.5813333 328.037,61.712 C327.808333,61.8426667 327.554,61.908 327.274,61.908 Z M334.512,63.168 C334.782667,63.168 335.037,63.1423333 335.275,63.091 C335.513,63.0396667 335.725333,62.9813333 335.912,62.916 L335.912,62.916 L335.632,61.726 C335.529333,61.7726667 335.415,61.81 335.289,61.838 C335.163,61.866 335.039333,61.88 334.918,61.88 C334.274,61.88 333.952,61.4786667 333.952,60.676 L333.952,60.676 L333.952,57.4 L335.702,57.4 L335.702,56.126 L333.952,56.126 L333.952,54.25 L332.608,54.25 L332.412,56.126 L331.348,56.196 L331.348,57.4 L332.328,57.4 L332.328,60.676 C332.328,61.0493333 332.367667,61.3876667 332.447,61.691 C332.526333,61.9943333 332.652333,62.2556667 332.825,62.475 C332.997667,62.6943333 333.221667,62.8646667 333.497,62.986 C333.772333,63.1073333 334.110667,63.168 334.512,63.168 Z M339.86,63.168 C340.298667,63.168 340.718667,63.098 341.12,62.958 C341.521333,62.818 341.885333,62.6406667 342.212,62.426 L342.212,62.426 L341.666,61.418 C341.414,61.5766667 341.159667,61.7003333 340.903,61.789 C340.646333,61.8776667 340.368667,61.922 340.07,61.922 C339.51,61.922 339.050333,61.7563333 338.691,61.425 C338.331667,61.0936667 338.114667,60.62 338.04,60.004 L338.04,60.004 L342.408,60.004 C342.426667,59.92 342.443,59.808 342.457,59.668 C342.471,59.528 342.478,59.3786667 342.478,59.22 C342.478,58.744 342.417333,58.3053333 342.296,57.904 C342.174667,57.5026667 341.995,57.1573333 341.757,56.868 C341.519,56.5786667 341.222667,56.3546667 340.868,56.196 C340.513333,56.0373333 340.102667,55.958 339.636,55.958 C339.234667,55.958 338.842667,56.042 338.46,56.21 C338.077333,56.378 337.739,56.616 337.445,56.924 C337.151,57.232 336.915333,57.61 336.738,58.058 C336.560667,58.506 336.472,59.01 336.472,59.57 C336.472,60.1393333 336.558333,60.6456667 336.731,61.089 C336.903667,61.5323333 337.144,61.908 337.452,62.216 C337.76,62.524 338.119333,62.7596667 338.53,62.923 C338.940667,63.0863333 339.384,63.168 339.86,63.168 Z M341.078,58.912 L338.026,58.912 C338.100667,58.352 338.292,57.9273333 338.6,57.638 C338.908,57.3486667 339.267333,57.204 339.678,57.204 C340.154,57.204 340.506333,57.3556667 340.735,57.659 C340.963667,57.9623333 341.078,58.38 341.078,58.912 L341.078,58.912 Z M346.426,63.168 C346.799333,63.168 347.154,63.0793333 347.49,62.902 C347.826,62.7246667 348.12,62.51 348.372,62.258 L348.372,62.258 L348.428,62.258 L348.54,63 L349.87,63 L349.87,53.116 L348.26,53.116 L348.26,55.608 L348.316,56.714 C348.045333,56.4806667 347.774667,56.2963333 347.504,56.161 C347.233333,56.0256667 346.902,55.958 346.51,55.958 C346.136667,55.958 345.775,56.042 345.425,56.21 C345.075,56.378 344.764667,56.616 344.494,56.924 C344.223333,57.232 344.006333,57.61 343.843,58.058 C343.679667,58.506 343.598,59.01 343.598,59.57 C343.598,60.7086667 343.852333,61.593 344.361,62.223 C344.869667,62.853 345.558,63.168 346.426,63.168 Z M346.818,61.838 C346.314,61.838 345.929,61.6443333 345.663,61.257 C345.397,60.8696667 345.264,60.3026667 345.264,59.556 C345.264,58.828 345.418,58.268 345.726,57.876 C346.034,57.484 346.412,57.288 346.86,57.288 C347.093333,57.288 347.324333,57.33 347.553,57.414 C347.781667,57.498 348.017333,57.6473333 348.26,57.862 L348.26,57.862 L348.26,61.068 C347.812,61.5813333 347.331333,61.838 346.818,61.838 Z M280.948,82.54 L280.948,81.126 C281.62,81.0326667 282.149667,80.7713333 282.537,80.342 C282.924333,79.9126667 283.118,79.362 283.118,78.69 C283.118,78.186 283.022333,77.773 282.831,77.451 C282.639667,77.129 282.399333,76.8583333 282.11,76.639 C281.820667,76.4196667 281.505667,76.233 281.165,76.079 C280.824333,75.925 280.509333,75.7663333 280.22,75.603 C279.930667,75.4396667 279.690333,75.2506667 279.499,75.036 C279.307667,74.8213333 279.212,74.546 279.212,74.21 C279.212,73.7993333 279.338,73.4726667 279.59,73.23 C279.842,72.9873333 280.182667,72.866 280.612,72.866 C280.994667,72.866 281.309667,72.936 281.557,73.076 C281.804333,73.216 282.058667,73.412 282.32,73.664 L282.32,73.664 L282.936,72.978 C282.684,72.7073333 282.401667,72.474 282.089,72.278 C281.776333,72.082 281.396,71.9606667 280.948,71.914 L280.948,71.914 L280.948,70.528 L280.108,70.528 L280.108,71.942 C279.492,72.0353333 278.999667,72.2896667 278.631,72.705 C278.262333,73.1203333 278.078,73.6406667 278.078,74.266 C278.078,74.7233333 278.173667,75.099 278.365,75.393 C278.556333,75.687 278.796667,75.9366667 279.086,76.142 C279.375333,76.3473333 279.690333,76.5293333 280.031,76.688 C280.371667,76.8466667 280.686667,77.017 280.976,77.199 C281.265333,77.381 281.505667,77.5956667 281.697,77.843 C281.888333,78.0903333 281.984,78.4006667 281.984,78.774 C281.984,79.2126667 281.855667,79.5626667 281.599,79.824 C281.342333,80.0853333 280.952667,80.216 280.43,80.216 C280.000667,80.216 279.606333,80.125 279.247,79.943 C278.887667,79.761 278.558667,79.5393333 278.26,79.278 L278.26,79.278 L277.728,80.076 C278.026667,80.3466667 278.386,80.5823333 278.806,80.783 C279.226,80.9836667 279.66,81.1073333 280.108,81.154 L280.108,81.154 L280.108,82.54 L280.948,82.54 Z M290.286,81 L290.286,80.006 L287.696,80.006 C287.462667,80.006 287.215333,80.0153333 286.954,80.034 C286.692667,80.0526667 286.440667,80.0713333 286.198,80.09 C286.73,79.5393333 287.217667,79.019 287.661,78.529 C288.104333,78.039 288.487,77.5676667 288.809,77.115 C289.131,76.6623333 289.383,76.2236667 289.565,75.799 C289.747,75.3743333 289.838,74.952 289.838,74.532 C289.838,73.7386667 289.6,73.1016667 289.124,72.621 C288.648,72.1403333 287.994667,71.9 287.164,71.9 C286.576,71.9 286.072,72.0236667 285.652,72.271 C285.232,72.5183333 284.835333,72.8473333 284.462,73.258 L284.462,73.258 L285.12,73.916 C285.381333,73.6173333 285.670667,73.363 285.988,73.153 C286.305333,72.943 286.650667,72.838 287.024,72.838 C287.593333,72.838 288.018,73.0013333 288.298,73.328 C288.578,73.6546667 288.718,74.0746667 288.718,74.588 C288.718,74.952 288.624667,75.3276667 288.438,75.715 C288.251333,76.1023333 287.980667,76.527 287.626,76.989 C287.271333,77.451 286.832667,77.9526667 286.31,78.494 C285.787333,79.0353333 285.19,79.642 284.518,80.314 L284.518,80.314 L284.518,81 L290.286,81 Z M296.264,81 L296.264,78.536 L297.482,78.536 L297.482,77.612 L296.264,77.612 L296.264,72.068 L294.976,72.068 L291.154,77.78 L291.154,78.536 L295.172,78.536 L295.172,81 L296.264,81 Z M295.172,77.612 L292.372,77.612 L294.458,74.56 C294.588667,74.3453333 294.714667,74.1353333 294.836,73.93 C294.957333,73.7246667 295.074,73.5146667 295.186,73.3 L295.186,73.3 L295.242,73.3 C295.223333,73.5426667 295.207,73.8296667 295.193,74.161 C295.179,74.4923333 295.172,74.7793333 295.172,75.022 L295.172,75.022 L295.172,77.612 Z M300.744,81.168 C301.192,81.168 301.619,81.077 302.025,80.895 C302.431,80.713 302.792667,80.4236667 303.11,80.027 C303.427333,79.6303333 303.679333,79.117 303.866,78.487 C304.052667,77.857 304.146,77.094 304.146,76.198 C304.146,75.4793333 304.069,74.8516667 303.915,74.315 C303.761,73.7783333 303.546333,73.3303333 303.271,72.971 C302.995667,72.6116667 302.669,72.3433333 302.291,72.166 C301.913,71.9886667 301.504667,71.9 301.066,71.9 C300.711333,71.9 300.373,71.97 300.051,72.11 C299.729,72.25 299.449,72.446 299.211,72.698 C298.973,72.95 298.784,73.251 298.644,73.601 C298.504,73.951 298.434,74.3406667 298.434,74.77 C298.434,75.694 298.662667,76.3846667 299.12,76.842 C299.577333,77.2993333 300.193333,77.528 300.968,77.528 C301.341333,77.528 301.714667,77.4253333 302.088,77.22 C302.461333,77.0146667 302.788,76.7346667 303.068,76.38 C303.058667,77.0986667 302.988667,77.7006667 302.858,78.186 C302.727333,78.6713333 302.554667,79.0656667 302.34,79.369 C302.125333,79.6723333 301.878,79.8893333 301.598,80.02 C301.318,80.1506667 301.019333,80.216 300.702,80.216 C300.422,80.216 300.153667,80.1506667 299.897,80.02 C299.640333,79.8893333 299.418667,79.7166667 299.232,79.502 L299.232,79.502 L298.588,80.23 C298.830667,80.5006667 299.131667,80.7246667 299.491,80.902 C299.850333,81.0793333 300.268,81.168 300.744,81.168 Z M301.164,76.66 C300.604,76.66 300.188667,76.492 299.918,76.156 C299.647333,75.82 299.512,75.358 299.512,74.77 C299.512,74.4806667 299.551667,74.2146667 299.631,73.972 C299.710333,73.7293333 299.82,73.5216667 299.96,73.349 C300.1,73.1763333 300.265667,73.0433333 300.457,72.95 C300.648333,72.8566667 300.851333,72.81 301.066,72.81 C301.635333,72.81 302.088,73.034 302.424,73.482 C302.76,73.93 302.965333,74.5926667 303.04,75.47 C302.750667,75.89 302.440333,76.1933333 302.109,76.38 C301.777667,76.5666667 301.462667,76.66 301.164,76.66 Z M309.018,81 C309.531333,81 310.002667,80.944 310.432,80.832 C310.861333,80.72 311.23,80.552 311.538,80.328 C311.846,80.104 312.084,79.824 312.252,79.488 C312.42,79.152 312.504,78.76 312.504,78.312 C312.504,77.6773333 312.331333,77.178 311.986,76.814 C311.640667,76.45 311.188,76.2166667 310.628,76.114 L310.628,76.114 L310.628,76.058 C311.066667,75.918 311.400333,75.6636667 311.629,75.295 C311.857667,74.9263333 311.972,74.5133333 311.972,74.056 C311.972,73.6546667 311.895,73.3116667 311.741,73.027 C311.587,72.7423333 311.372333,72.5113333 311.097,72.334 C310.821667,72.1566667 310.490333,72.026 310.103,71.942 C309.715667,71.858 309.288667,71.816 308.822,71.816 L308.822,71.816 L306.092,71.816 L306.092,81 L309.018,81 Z M308.612,75.722 L307.254,75.722 L307.254,72.74 L308.668,72.74 C309.386667,72.74 309.925667,72.852 310.285,73.076 C310.644333,73.3 310.824,73.678 310.824,74.21 C310.824,74.6766667 310.651333,75.0453333 310.306,75.316 C309.960667,75.5866667 309.396,75.722 308.612,75.722 L308.612,75.722 Z M308.85,80.076 L307.254,80.076 L307.254,76.618 L308.85,76.618 C309.662,76.618 310.282667,76.751 310.712,77.017 C311.141333,77.283 311.356,77.7006667 311.356,78.27 C311.356,78.886 311.136667,79.341 310.698,79.635 C310.259333,79.929 309.643333,80.076 308.85,80.076 L308.85,80.076 Z" id="Unobligated$249B" fill="#666666" fill-rule="nonzero"></path>
                <line x1="10.5" y1="30" x2="10.5" y2="45" id="Line" stroke="#C6C6C6"></line>
                <path d="M305,30 L305,34.6176471 C305,35.7222166 304.104569,36.6176471 303,36.6176471 L247,36.6176471 C245.895431,36.6176471 245,37.5130776 245,38.6176471 L245,45 L245,45" id="Line-Copy-7" stroke="#C6C6C6" stroke-linecap="round" transform="translate(275.000000, 37.500000) scale(-1, 1) translate(-275.000000, -37.500000) "></path>
                <path d="M206,30 L206,34.6176471 C206,35.7222166 205.104569,36.6176471 204,36.6176471 L164,36.6176471 C162.895431,36.6176471 162,37.5130776 162,38.6176471 L162,45 L162,45" id="Line-Copy-7" stroke="#C6C6C6" stroke-linecap="round"></path>
                <rect id="unobligated" fill="#F3E9FF" x="216" y="0" width="58" height="30"></rect>
                <rect id="obligated" fill="#6F41A7" x="196" y="0" width="20.002" height="30"></rect>
                <rect id="outlays" fill="#331E4D" x="0" y="0" width="196" height="30"></rect>
                <path d="M288.368,21.54 L288.368,20.084 C289.096,19.9253333 289.642,19.6056667 290.006,19.125 C290.37,18.6443333 290.552,18.068 290.552,17.396 C290.552,16.948 290.461,16.5723333 290.279,16.269 C290.097,15.9656667 289.868333,15.7066667 289.593,15.492 C289.317667,15.2773333 289.021333,15.0953333 288.704,14.946 C288.386667,14.7966667 288.090333,14.652 287.815,14.512 C287.539667,14.372 287.311,14.225 287.129,14.071 C286.947,13.917 286.856,13.728 286.856,13.504 C286.856,13.1866667 286.944667,12.958 287.122,12.818 C287.299333,12.678 287.556,12.608 287.892,12.608 C288.190667,12.608 288.456667,12.6663333 288.69,12.783 C288.923333,12.8996667 289.166,13.0746667 289.418,13.308 L289.418,13.308 L290.454,12.132 C290.183333,11.8426667 289.88,11.5953333 289.544,11.39 C289.208,11.1846667 288.816,11.0493333 288.368,10.984 L288.368,10.984 L288.368,9.57 L287.01,9.57 L287.01,11.012 C286.347333,11.1426667 285.827,11.4343333 285.449,11.887 C285.071,12.3396667 284.882,12.9113333 284.882,13.602 C284.882,14.022 284.973,14.3766667 285.155,14.666 C285.337,14.9553333 285.565667,15.2073333 285.841,15.422 C286.116333,15.6366667 286.412667,15.821 286.73,15.975 C287.047333,16.129 287.343667,16.283 287.619,16.437 C287.894333,16.591 288.123,16.752 288.305,16.92 C288.487,17.088 288.578,17.2933333 288.578,17.536 C288.578,17.8626667 288.487,18.1053333 288.305,18.264 C288.123,18.4226667 287.836,18.502 287.444,18.502 C287.108,18.502 286.779,18.4343333 286.457,18.299 C286.135,18.1636667 285.796667,17.9606667 285.442,17.69 L285.442,17.69 L284.546,19.076 C284.872667,19.3746667 285.262333,19.615 285.715,19.797 C286.167667,19.979 286.599333,20.0933333 287.01,20.14 L287.01,20.14 L287.01,21.54 L288.368,21.54 Z M298.028,20 L298.028,18.334 L296.362,18.334 L296.362,11.11 L294.85,11.11 C294.532667,11.2966667 294.206,11.4553333 293.87,11.586 C293.534,11.7166667 293.123333,11.8286667 292.638,11.922 L292.638,11.922 L292.638,13.196 L294.304,13.196 L294.304,18.334 L292.372,18.334 L292.372,20 L298.028,20 Z M300.884,20.168 C301.238667,20.168 301.535,20.0443333 301.773,19.797 C302.011,19.5496667 302.13,19.244 302.13,18.88 C302.13,18.5066667 302.011,18.1963333 301.773,17.949 C301.535,17.7016667 301.238667,17.578 300.884,17.578 C300.529333,17.578 300.233,17.7016667 299.995,17.949 C299.757,18.1963333 299.638,18.5066667 299.638,18.88 C299.638,19.244 299.757,19.5496667 299.995,19.797 C300.233,20.0443333 300.529333,20.168 300.884,20.168 Z M309.62,20 L309.62,18.334 L307.954,18.334 L307.954,11.11 L306.442,11.11 C306.124667,11.2966667 305.798,11.4553333 305.462,11.586 C305.126,11.7166667 304.715333,11.8286667 304.23,11.922 L304.23,11.922 L304.23,13.196 L305.896,13.196 L305.896,18.334 L303.964,18.334 L303.964,20 L309.62,20 Z M313.582,20.168 C314.048667,20.168 314.499,20.0723333 314.933,19.881 C315.367,19.6896667 315.749667,19.398 316.081,19.006 C316.412333,18.614 316.678333,18.1146667 316.879,17.508 C317.079667,16.9013333 317.18,16.1826667 317.18,15.352 C317.18,14.568 317.084333,13.8983333 316.893,13.343 C316.701667,12.7876667 316.449667,12.3326667 316.137,11.978 C315.824333,11.6233333 315.465,11.362 315.059,11.194 C314.653,11.026 314.235333,10.942 313.806,10.942 C313.404667,10.942 313.024333,11.0096667 312.665,11.145 C312.305667,11.2803333 311.993,11.4786667 311.727,11.74 C311.461,12.0013333 311.248667,12.3163333 311.09,12.685 C310.931333,13.0536667 310.852,13.4666667 310.852,13.924 C310.852,14.3906667 310.919667,14.7966667 311.055,15.142 C311.190333,15.4873333 311.374667,15.772 311.608,15.996 C311.841333,16.22 312.119,16.388 312.441,16.5 C312.763,16.612 313.115333,16.668 313.498,16.668 C313.638,16.668 313.787333,16.647 313.946,16.605 C314.104667,16.563 314.263333,16.5023333 314.422,16.423 C314.580667,16.3436667 314.734667,16.2456667 314.884,16.129 C315.033333,16.0123333 315.164,15.8793333 315.276,15.73 C315.257333,16.2526667 315.199,16.689 315.101,17.039 C315.003,17.389 314.872333,17.6736667 314.709,17.893 C314.545667,18.1123333 314.356667,18.2686667 314.142,18.362 C313.927333,18.4553333 313.694,18.502 313.442,18.502 C313.180667,18.502 312.924,18.439 312.672,18.313 C312.42,18.187 312.219333,18.04 312.07,17.872 L312.07,17.872 L310.978,19.104 C311.258,19.384 311.615,19.6313333 312.049,19.846 C312.483,20.0606667 312.994,20.168 313.582,20.168 Z M313.904,15.212 C313.568,15.212 313.288,15.1163333 313.064,14.925 C312.84,14.7336667 312.728,14.4 312.728,13.924 C312.728,13.42 312.84,13.0536667 313.064,12.825 C313.288,12.5963333 313.549333,12.482 313.848,12.482 C314.165333,12.482 314.452333,12.615 314.709,12.881 C314.965667,13.147 315.140667,13.63 315.234,14.33 C315.056667,14.6473333 314.849,14.8736667 314.611,15.009 C314.373,15.1443333 314.137333,15.212 313.904,15.212 Z M322.696,20 L322.696,12.608 L325.202,12.608 L325.202,10.872 L318.118,10.872 L318.118,12.608 L320.624,12.608 L320.624,20 L322.696,20 Z" id="$1.19T" fill="#555555" fill-rule="nonzero"></path>
            </g>
        </g>
    </g>
</svg>