<?xml version="1.0" encoding="UTF-8"?>
<svg width="402px" height="36px" viewBox="0 0 402 36" version="1.1" xmlns="http://www.w3.org/2000/svg" xmlns:xlink="http://www.w3.org/1999/xlink">
    <title>08. tablet - phase 3.5 general</title>
    <g id="SVG" stroke="none" stroke-width="1" fill="none" fill-rule="evenodd">
        <g id="Viz-3---Tablet-Outline" transform="translate(-70.000000, -1594.000000)">
            <g id="08.-tablet---phase-3.5-general" transform="translate(70.000000, 1594.000000)">
                <path d="M165.718,14.168 C166.315333,14.168 166.861333,14.0583333 167.356,13.839 C167.850667,13.6196667 168.277667,13.3023333 168.637,12.887 C168.996333,12.4716667 169.274,11.97 169.47,11.382 C169.666,10.794 169.764,10.1266667 169.764,9.38 C169.764,8.64266667 169.666,7.98233333 169.47,7.399 C169.274,6.81566667 168.996333,6.32333333 168.637,5.922 C168.277667,5.52066667 167.850667,5.21266667 167.356,4.998 C166.861333,4.78333333 166.315333,4.676 165.718,4.676 C165.120667,4.676 164.574667,4.78333333 164.08,4.998 C163.585333,5.21266667 163.160667,5.52066667 162.806,5.922 C162.451333,6.32333333 162.176,6.81566667 161.98,7.399 C161.784,7.98233333 161.686,8.64266667 161.686,9.38 C161.686,10.1266667 161.784,10.794 161.98,11.382 C162.176,11.97 162.451333,12.4716667 162.806,12.887 C163.160667,13.3023333 163.585333,13.6196667 164.08,13.839 C164.574667,14.0583333 165.120667,14.168 165.718,14.168 Z M165.718,12.754 C165.354,12.754 165.027333,12.6746667 164.738,12.516 C164.448667,12.3573333 164.201333,12.131 163.996,11.837 C163.790667,11.543 163.632,11.1883333 163.52,10.773 C163.408,10.3576667 163.352,9.89333333 163.352,9.38 C163.352,8.35333333 163.564333,7.54833333 163.989,6.965 C164.413667,6.38166667 164.99,6.09 165.718,6.09 C166.446,6.09 167.022333,6.38166667 167.447,6.965 C167.871667,7.54833333 168.084,8.35333333 168.084,9.38 C168.084,9.89333333 168.028,10.3576667 167.916,10.773 C167.804,11.1883333 167.645333,11.543 167.44,11.837 C167.234667,12.131 166.987333,12.3573333 166.698,12.516 C166.408667,12.6746667 166.082,12.754 165.718,12.754 Z M173.502,14.168 C173.978,14.168 174.391,14.0606667 174.741,13.846 C175.091,13.6313333 175.415333,13.3466667 175.714,12.992 L175.714,12.992 L175.756,12.992 L175.882,14 L177.198,14 L177.198,7.126 L175.588,7.126 L175.588,11.83 C175.326667,12.166 175.081667,12.4086667 174.853,12.558 C174.624333,12.7073333 174.360667,12.782 174.062,12.782 C173.688667,12.782 173.418,12.6653333 173.25,12.432 C173.082,12.1986667 172.998,11.7973333 172.998,11.228 L172.998,11.228 L172.998,7.126 L171.388,7.126 L171.388,11.438 C171.388,12.3153333 171.556,12.9896667 171.892,13.461 C172.228,13.9323333 172.764667,14.168 173.502,14.168 Z M181.664,14.168 C181.934667,14.168 182.189,14.1423333 182.427,14.091 C182.665,14.0396667 182.877333,13.9813333 183.064,13.916 L183.064,13.916 L182.784,12.726 C182.681333,12.7726667 182.567,12.81 182.441,12.838 C182.315,12.866 182.191333,12.88 182.07,12.88 C181.426,12.88 181.104,12.4786667 181.104,11.676 L181.104,11.676 L181.104,8.4 L182.854,8.4 L182.854,7.126 L181.104,7.126 L181.104,5.25 L179.76,5.25 L179.564,7.126 L178.5,7.196 L178.5,8.4 L179.48,8.4 L179.48,11.676 C179.48,12.0493333 179.519667,12.3876667 179.599,12.691 C179.678333,12.9943333 179.804333,13.2556667 179.977,13.475 C180.149667,13.6943333 180.373667,13.8646667 180.649,13.986 C180.924333,14.1073333 181.262667,14.168 181.664,14.168 Z M185.864,14.168 C186.218667,14.168 186.503333,14.1213333 186.718,14.028 L186.718,14.028 L186.508,12.824 C186.442667,12.8426667 186.393667,12.852 186.361,12.852 L186.361,12.852 L186.256,12.852 C186.172,12.852 186.092667,12.8123333 186.018,12.733 C185.943333,12.6536667 185.906,12.516 185.906,12.32 L185.906,12.32 L185.906,4.116 L184.296,4.116 L184.296,12.236 C184.296,12.8333333 184.412667,13.3046667 184.646,13.65 C184.879333,13.9953333 185.285333,14.168 185.864,14.168 Z M189.756,14.168 C190.166667,14.168 190.547,14.0793333 190.897,13.902 C191.247,13.7246667 191.576,13.5053333 191.884,13.244 L191.884,13.244 L191.94,13.244 L192.052,14 L193.382,14 L193.382,9.926 C193.382,8.96466667 193.169667,8.22966667 192.745,7.721 C192.320333,7.21233333 191.678667,6.958 190.82,6.958 C190.269333,6.958 189.756,7.04666667 189.28,7.224 C188.804,7.40133333 188.374667,7.61133333 187.992,7.854 L187.992,7.854 L188.58,8.932 C188.888,8.74533333 189.203,8.58666667 189.525,8.456 C189.847,8.32533333 190.176,8.26 190.512,8.26 C190.745333,8.26 190.941333,8.295 191.1,8.365 C191.258667,8.435 191.387,8.533 191.485,8.659 C191.583,8.785 191.653,8.92966667 191.695,9.093 C191.737,9.25633333 191.762667,9.42666667 191.772,9.604 C191.062667,9.67866667 190.453667,9.786 189.945,9.926 C189.436333,10.066 189.016333,10.2386667 188.685,10.444 C188.353667,10.6493333 188.111,10.8943333 187.957,11.179 C187.803,11.4636667 187.726,11.788 187.726,12.152 C187.726,12.7586667 187.912667,13.2463333 188.286,13.615 C188.659333,13.9836667 189.149333,14.168 189.756,14.168 Z M190.274,12.908 C189.984667,12.908 189.746667,12.838 189.56,12.698 C189.373333,12.558 189.28,12.334 189.28,12.026 C189.28,11.858 189.322,11.6993333 189.406,11.55 C189.49,11.4006667 189.63,11.2676667 189.826,11.151 C190.022,11.0343333 190.278667,10.9293333 190.596,10.836 C190.913333,10.7426667 191.305333,10.668 191.772,10.612 L191.772,10.612 L191.772,12.152 C191.510667,12.3946667 191.265667,12.5813333 191.037,12.712 C190.808333,12.8426667 190.554,12.908 190.274,12.908 Z M195.776,16.828 C196.149333,16.828 196.478333,16.7696667 196.763,16.653 C197.047667,16.5363333 197.299667,16.3683333 197.519,16.149 C197.738333,15.9296667 197.932,15.666 198.1,15.358 C198.268,15.05 198.422,14.7 198.562,14.308 L198.562,14.308 L201.054,7.126 L199.5,7.126 L198.464,10.5 C198.38,10.808 198.293667,11.1276667 198.205,11.459 C198.116333,11.7903333 198.03,12.1146667 197.946,12.432 L197.946,12.432 L197.89,12.432 C197.787333,12.1053333 197.687,11.7763333 197.589,11.445 C197.491,11.1136667 197.390667,10.7986667 197.288,10.5 L197.288,10.5 L196.098,7.126 L194.46,7.126 L197.162,13.916 L197.036,14.35 C196.924,14.6953333 196.758333,14.9776667 196.539,15.197 C196.319667,15.4163333 196.028,15.526 195.664,15.526 C195.58,15.526 195.493667,15.5143333 195.405,15.491 C195.316333,15.4676667 195.239333,15.4466667 195.174,15.428 L195.174,15.428 L194.88,16.688 C195.010667,16.7346667 195.146,16.7696667 195.286,16.793 C195.426,16.8163333 195.589333,16.828 195.776,16.828 Z M204.162,14.168 C204.591333,14.168 204.974,14.112 205.31,14 C205.646,13.888 205.926,13.7363333 206.15,13.545 C206.374,13.3536667 206.544333,13.1296667 206.661,12.873 C206.777667,12.6163333 206.836,12.3386667 206.836,12.04 C206.836,11.7226667 206.777667,11.4496667 206.661,11.221 C206.544333,10.9923333 206.390333,10.7986667 206.199,10.64 C206.007667,10.4813333 205.795333,10.3483333 205.562,10.241 C205.328667,10.1336667 205.095333,10.038 204.862,9.954 C204.675333,9.88866667 204.495667,9.82333333 204.323,9.758 C204.150333,9.69266667 203.998667,9.62266667 203.868,9.548 C203.737333,9.47333333 203.632333,9.387 203.553,9.289 C203.473667,9.191 203.434,9.072 203.434,8.932 C203.434,8.71733333 203.515667,8.53766667 203.679,8.393 C203.842333,8.24833333 204.096667,8.176 204.442,8.176 C204.712667,8.176 204.971667,8.22966667 205.219,8.337 C205.466333,8.44433333 205.711333,8.58666667 205.954,8.764 L205.954,8.764 L206.696,7.784 C206.416,7.56933333 206.084667,7.378 205.702,7.21 C205.319333,7.042 204.89,6.958 204.414,6.958 C203.639333,6.958 203.028,7.14933333 202.58,7.532 C202.132,7.91466667 201.908,8.40933333 201.908,9.016 C201.908,9.30533333 201.966333,9.555 202.083,9.765 C202.199667,9.975 202.349,10.1593333 202.531,10.318 C202.713,10.4766667 202.920667,10.612 203.154,10.724 C203.387333,10.836 203.616,10.934 203.84,11.018 C204.017333,11.0926667 204.194667,11.165 204.372,11.235 C204.549333,11.305 204.708,11.382 204.848,11.466 C204.988,11.55 205.1,11.6456667 205.184,11.753 C205.268,11.8603333 205.31,11.984 205.31,12.124 C205.31,12.3666667 205.221333,12.565 205.044,12.719 C204.866667,12.873 204.591333,12.95 204.218,12.95 C203.863333,12.95 203.534333,12.8823333 203.231,12.747 C202.927667,12.6116667 202.622,12.4226667 202.314,12.18 L202.314,12.18 L201.558,13.216 C201.894,13.4866667 202.293,13.713 202.755,13.895 C203.217,14.077 203.686,14.168 204.162,14.168 Z M164.948,33.54 L164.948,32.126 C165.62,32.0326667 166.149667,31.7713333 166.537,31.342 C166.924333,30.9126667 167.118,30.362 167.118,29.69 C167.118,29.186 167.022333,28.773 166.831,28.451 C166.639667,28.129 166.399333,27.8583333 166.11,27.639 C165.820667,27.4196667 165.505667,27.233 165.165,27.079 C164.824333,26.925 164.509333,26.7663333 164.22,26.603 C163.930667,26.4396667 163.690333,26.2506667 163.499,26.036 C163.307667,25.8213333 163.212,25.546 163.212,25.21 C163.212,24.7993333 163.338,24.4726667 163.59,24.23 C163.842,23.9873333 164.182667,23.866 164.612,23.866 C164.994667,23.866 165.309667,23.936 165.557,24.076 C165.804333,24.216 166.058667,24.412 166.32,24.664 L166.32,24.664 L166.936,23.978 C166.684,23.7073333 166.401667,23.474 166.089,23.278 C165.776333,23.082 165.396,22.9606667 164.948,22.914 L164.948,22.914 L164.948,21.528 L164.108,21.528 L164.108,22.942 C163.492,23.0353333 162.999667,23.2896667 162.631,23.705 C162.262333,24.1203333 162.078,24.6406667 162.078,25.266 C162.078,25.7233333 162.173667,26.099 162.365,26.393 C162.556333,26.687 162.796667,26.9366667 163.086,27.142 C163.375333,27.3473333 163.690333,27.5293333 164.031,27.688 C164.371667,27.8466667 164.686667,28.017 164.976,28.199 C165.265333,28.381 165.505667,28.5956667 165.697,28.843 C165.888333,29.0903333 165.984,29.4006667 165.984,29.774 C165.984,30.2126667 165.855667,30.5626667 165.599,30.824 C165.342333,31.0853333 164.952667,31.216 164.43,31.216 C164.000667,31.216 163.606333,31.125 163.247,30.943 C162.887667,30.761 162.558667,30.5393333 162.26,30.278 L162.26,30.278 L161.728,31.076 C162.026667,31.3466667 162.386,31.5823333 162.806,31.783 C163.226,31.9836667 163.66,32.1073333 164.108,32.154 L164.108,32.154 L164.108,33.54 L164.948,33.54 Z M171.458,32.168 C171.887333,32.168 172.279333,32.1073333 172.634,31.986 C172.988667,31.8646667 173.292,31.6966667 173.544,31.482 C173.796,31.2673333 173.992,31.0153333 174.132,30.726 C174.272,30.4366667 174.342,30.124 174.342,29.788 C174.342,29.4893333 174.297667,29.2233333 174.209,28.99 C174.120333,28.7566667 174.003667,28.549 173.859,28.367 C173.714333,28.185 173.548667,28.0216667 173.362,27.877 C173.175333,27.7323333 172.984,27.604 172.788,27.492 L172.788,27.492 L172.788,27.436 C172.928,27.3333333 173.070333,27.2073333 173.215,27.058 C173.359667,26.9086667 173.490333,26.7406667 173.607,26.554 C173.723667,26.3673333 173.821667,26.1666667 173.901,25.952 C173.980333,25.7373333 174.02,25.5133333 174.02,25.28 C174.02,24.9346667 173.961667,24.615 173.845,24.321 C173.728333,24.027 173.560333,23.775 173.341,23.565 C173.121667,23.355 172.858,23.1916667 172.55,23.075 C172.242,22.9583333 171.892,22.9 171.5,22.9 C171.136,22.9 170.8,22.956 170.492,23.068 C170.184,23.18 169.918,23.3363333 169.694,23.537 C169.47,23.7376667 169.292667,23.978 169.162,24.258 C169.031333,24.538 168.966,24.8506667 168.966,25.196 C168.966,25.672 169.092,26.0756667 169.344,26.407 C169.596,26.7383333 169.885333,27.0206667 170.212,27.254 L170.212,27.254 L170.212,27.31 C169.997333,27.422 169.789667,27.555 169.589,27.709 C169.388333,27.863 169.211,28.0403333 169.057,28.241 C168.903,28.4416667 168.777,28.6656667 168.679,28.913 C168.581,29.1603333 168.532,29.4286667 168.532,29.718 C168.532,30.0726667 168.606667,30.3993333 168.756,30.698 C168.905333,30.9966667 169.108333,31.2556667 169.365,31.475 C169.621667,31.6943333 169.929667,31.8646667 170.289,31.986 C170.648333,32.1073333 171.038,32.168 171.458,32.168 Z M172.088,27.128 C171.817333,27.0253333 171.558333,26.9156667 171.311,26.799 C171.063667,26.6823333 170.844333,26.5493333 170.653,26.4 C170.461667,26.2506667 170.31,26.0803333 170.198,25.889 C170.086,25.6976667 170.03,25.4666667 170.03,25.196 C170.03,24.7573333 170.165333,24.4073333 170.436,24.146 C170.706667,23.8846667 171.052,23.754 171.472,23.754 C171.966667,23.754 172.349333,23.9056667 172.62,24.209 C172.890667,24.5123333 173.026,24.888 173.026,25.336 C173.026,25.6626667 172.944333,25.9753333 172.781,26.274 C172.617667,26.5726667 172.386667,26.8573333 172.088,27.128 Z M171.486,31.314 C171.215333,31.314 170.963333,31.272 170.73,31.188 C170.496667,31.104 170.293667,30.985 170.121,30.831 C169.948333,30.677 169.813,30.4973333 169.715,30.292 C169.617,30.0866667 169.568,29.858 169.568,29.606 C169.568,29.1953333 169.687,28.829 169.925,28.507 C170.163,28.185 170.459333,27.9026667 170.814,27.66 C171.131333,27.7906667 171.437,27.919 171.731,28.045 C172.025,28.171 172.284,28.311 172.508,28.465 C172.732,28.619 172.909333,28.7986667 173.04,29.004 C173.170667,29.2093333 173.236,29.4566667 173.236,29.746 C173.236,30.2126667 173.075,30.5906667 172.753,30.88 C172.431,31.1693333 172.008667,31.314 171.486,31.314 Z M178.668,32.168 C179.032,32.168 179.372667,32.098 179.69,31.958 C180.007333,31.818 180.287333,31.622 180.53,31.37 C180.772667,31.118 180.964,30.817 181.104,30.467 C181.244,30.117 181.314,29.7273333 181.314,29.298 C181.314,28.374 181.083,27.6833333 180.621,27.226 C180.159,26.7686667 179.540667,26.54 178.766,26.54 C178.402,26.54 178.033333,26.6403333 177.66,26.841 C177.286667,27.0416667 176.96,27.3146667 176.68,27.66 C176.689333,26.9506667 176.759333,26.3556667 176.89,25.875 C177.020667,25.3943333 177.193333,25.0046667 177.408,24.706 C177.622667,24.4073333 177.87,24.1926667 178.15,24.062 C178.43,23.9313333 178.724,23.866 179.032,23.866 C179.312,23.866 179.580333,23.929 179.837,24.055 C180.093667,24.181 180.315333,24.3513333 180.502,24.566 L180.502,24.566 L181.146,23.852 C180.894,23.5813333 180.593,23.355 180.243,23.173 C179.893,22.991 179.475333,22.9 178.99,22.9 C178.542,22.9 178.115,22.991 177.709,23.173 C177.303,23.355 176.941333,23.6443333 176.624,24.041 C176.306667,24.4376667 176.054667,24.951 175.868,25.581 C175.681333,26.211 175.588,26.974 175.588,27.87 C175.588,28.5886667 175.667333,29.2163333 175.826,29.753 C175.984667,30.2896667 176.201667,30.7376667 176.477,31.097 C176.752333,31.4563333 177.076667,31.7246667 177.45,31.902 C177.823333,32.0793333 178.229333,32.168 178.668,32.168 Z M178.668,31.258 C178.098667,31.258 177.648333,31.0316667 177.317,30.579 C176.985667,30.1263333 176.782667,29.4613333 176.708,28.584 C176.988,28.164 177.296,27.863 177.632,27.681 C177.968,27.499 178.280667,27.408 178.57,27.408 C179.13,27.408 179.545333,27.576 179.816,27.912 C180.086667,28.248 180.222,28.71 180.222,29.298 C180.222,29.5966667 180.182333,29.865 180.103,30.103 C180.023667,30.341 179.914,30.5463333 179.774,30.719 C179.634,30.8916667 179.470667,31.0246667 179.284,31.118 C179.097333,31.2113333 178.892,31.258 178.668,31.258 Z M186.06,32 C186.573333,32 187.044667,31.944 187.474,31.832 C187.903333,31.72 188.272,31.552 188.58,31.328 C188.888,31.104 189.126,30.824 189.294,30.488 C189.462,30.152 189.546,29.76 189.546,29.312 C189.546,28.6773333 189.373333,28.178 189.028,27.814 C188.682667,27.45 188.23,27.2166667 187.67,27.114 L187.67,27.114 L187.67,27.058 C188.108667,26.918 188.442333,26.6636667 188.671,26.295 C188.899667,25.9263333 189.014,25.5133333 189.014,25.056 C189.014,24.6546667 188.937,24.3116667 188.783,24.027 C188.629,23.7423333 188.414333,23.5113333 188.139,23.334 C187.863667,23.1566667 187.532333,23.026 187.145,22.942 C186.757667,22.858 186.330667,22.816 185.864,22.816 L185.864,22.816 L183.134,22.816 L183.134,32 L186.06,32 Z M185.654,26.722 L184.296,26.722 L184.296,23.74 L185.71,23.74 C186.428667,23.74 186.967667,23.852 187.327,24.076 C187.686333,24.3 187.866,24.678 187.866,25.21 C187.866,25.6766667 187.693333,26.0453333 187.348,26.316 C187.002667,26.5866667 186.438,26.722 185.654,26.722 L185.654,26.722 Z M185.892,31.076 L184.296,31.076 L184.296,27.618 L185.892,27.618 C186.704,27.618 187.324667,27.751 187.754,28.017 C188.183333,28.283 188.398,28.7006667 188.398,29.27 C188.398,29.886 188.178667,30.341 187.74,30.635 C187.301333,30.929 186.685333,31.076 185.892,31.076 L185.892,31.076 Z" id="Outlays$86B" fill="#666666" fill-rule="nonzero"></path>
                <path d="M237.718,14.168 C238.315333,14.168 238.861333,14.0583333 239.356,13.839 C239.850667,13.6196667 240.277667,13.3023333 240.637,12.887 C240.996333,12.4716667 241.274,11.97 241.47,11.382 C241.666,10.794 241.764,10.1266667 241.764,9.38 C241.764,8.64266667 241.666,7.98233333 241.47,7.399 C241.274,6.81566667 240.996333,6.32333333 240.637,5.922 C240.277667,5.52066667 239.850667,5.21266667 239.356,4.998 C238.861333,4.78333333 238.315333,4.676 237.718,4.676 C237.120667,4.676 236.574667,4.78333333 236.08,4.998 C235.585333,5.21266667 235.160667,5.52066667 234.806,5.922 C234.451333,6.32333333 234.176,6.81566667 233.98,7.399 C233.784,7.98233333 233.686,8.64266667 233.686,9.38 C233.686,10.1266667 233.784,10.794 233.98,11.382 C234.176,11.97 234.451333,12.4716667 234.806,12.887 C235.160667,13.3023333 235.585333,13.6196667 236.08,13.839 C236.574667,14.0583333 237.120667,14.168 237.718,14.168 Z M237.718,12.754 C237.354,12.754 237.027333,12.6746667 236.738,12.516 C236.448667,12.3573333 236.201333,12.131 235.996,11.837 C235.790667,11.543 235.632,11.1883333 235.52,10.773 C235.408,10.3576667 235.352,9.89333333 235.352,9.38 C235.352,8.35333333 235.564333,7.54833333 235.989,6.965 C236.413667,6.38166667 236.99,6.09 237.718,6.09 C238.446,6.09 239.022333,6.38166667 239.447,6.965 C239.871667,7.54833333 240.084,8.35333333 240.084,9.38 C240.084,9.89333333 240.028,10.3576667 239.916,10.773 C239.804,11.1883333 239.645333,11.543 239.44,11.837 C239.234667,12.131 238.987333,12.3573333 238.698,12.516 C238.408667,12.6746667 238.082,12.754 237.718,12.754 Z M246.79,14.168 C247.172667,14.168 247.541333,14.084 247.896,13.916 C248.250667,13.748 248.563333,13.5053333 248.834,13.188 C249.104667,12.8706667 249.321667,12.481 249.485,12.019 C249.648333,11.557 249.73,11.032 249.73,10.444 C249.73,9.912 249.669333,9.43133333 249.548,9.002 C249.426667,8.57266667 249.249333,8.20633333 249.016,7.903 C248.782667,7.59966667 248.498,7.36633333 248.162,7.203 C247.826,7.03966667 247.443333,6.958 247.014,6.958 C246.659333,6.958 246.311667,7.03733333 245.971,7.196 C245.630333,7.35466667 245.315333,7.56 245.026,7.812 L245.026,7.812 L245.068,6.664 L245.068,4.116 L243.458,4.116 L243.458,14 L244.732,14 L244.872,13.272 L244.914,13.272 C245.203333,13.5613333 245.509,13.783 245.831,13.937 C246.153,14.091 246.472667,14.168 246.79,14.168 Z M246.454,12.838 C246.248667,12.838 246.027,12.796 245.789,12.712 C245.551,12.628 245.310667,12.4786667 245.068,12.264 L245.068,12.264 L245.068,9.058 C245.590667,8.54466667 246.094667,8.288 246.58,8.288 C247.102667,8.288 247.480667,8.47933333 247.714,8.862 C247.947333,9.24466667 248.064,9.78133333 248.064,10.472 C248.064,11.256 247.91,11.8463333 247.602,12.243 C247.294,12.6396667 246.911333,12.838 246.454,12.838 Z M252.908,14.168 C253.262667,14.168 253.547333,14.1213333 253.762,14.028 L253.762,14.028 L253.552,12.824 C253.486667,12.8426667 253.437667,12.852 253.405,12.852 L253.405,12.852 L253.3,12.852 C253.216,12.852 253.136667,12.8123333 253.062,12.733 C252.987333,12.6536667 252.95,12.516 252.95,12.32 L252.95,12.32 L252.95,4.116 L251.34,4.116 L251.34,12.236 C251.34,12.8333333 251.456667,13.3046667 251.69,13.65 C251.923333,13.9953333 252.329333,14.168 252.908,14.168 Z M255.946,5.922 C256.235333,5.922 256.473333,5.838 256.66,5.67 C256.846667,5.502 256.94,5.28266667 256.94,5.012 C256.94,4.74133333 256.846667,4.51966667 256.66,4.347 C256.473333,4.17433333 256.235333,4.088 255.946,4.088 C255.656667,4.088 255.418667,4.17433333 255.232,4.347 C255.045333,4.51966667 254.952,4.74133333 254.952,5.012 C254.952,5.28266667 255.045333,5.502 255.232,5.67 C255.418667,5.838 255.656667,5.922 255.946,5.922 Z M256.744,14 L256.744,7.126 L255.134,7.126 L255.134,14 L256.744,14 Z M261.196,17.038 C261.756,17.038 262.262333,16.975 262.715,16.849 C263.167667,16.723 263.552667,16.5526667 263.87,16.338 C264.187333,16.1233333 264.432333,15.8666667 264.605,15.568 C264.777667,15.2693333 264.864,14.952 264.864,14.616 C264.864,14.0186667 264.651667,13.587 264.227,13.321 C263.802333,13.055 263.174667,12.922 262.344,12.922 L262.344,12.922 L261.126,12.922 C260.706,12.922 260.414333,12.866 260.251,12.754 C260.087667,12.642 260.006,12.488 260.006,12.292 C260.006,12.1333333 260.036333,12.0073333 260.097,11.914 C260.157667,11.8206667 260.239333,11.7273333 260.342,11.634 C260.500667,11.6993333 260.659333,11.746 260.818,11.774 C260.976667,11.802 261.130667,11.816 261.28,11.816 C261.644,11.816 261.984667,11.7646667 262.302,11.662 C262.619333,11.5593333 262.894667,11.41 263.128,11.214 C263.361333,11.018 263.545667,10.7753333 263.681,10.486 C263.816333,10.1966667 263.884,9.86066667 263.884,9.478 C263.884,9.23533333 263.846667,9.01366667 263.772,8.813 C263.697333,8.61233333 263.604,8.44666667 263.492,8.316 L263.492,8.316 L264.752,8.316 L264.752,7.126 L262.288,7.126 C262.148,7.07933333 261.991667,7.03966667 261.819,7.007 C261.646333,6.97433333 261.466667,6.958 261.28,6.958 C260.916,6.958 260.570667,7.01166667 260.244,7.119 C259.917333,7.22633333 259.630333,7.385 259.383,7.595 C259.135667,7.805 258.937333,8.064 258.788,8.372 C258.638667,8.68 258.564,9.03 258.564,9.422 C258.564,9.83266667 258.655,10.1943333 258.837,10.507 C259.019,10.8196667 259.226667,11.0646667 259.46,11.242 L259.46,11.242 L259.46,11.298 C259.264,11.438 259.089,11.6176667 258.935,11.837 C258.781,12.0563333 258.704,12.3013333 258.704,12.572 C258.704,12.852 258.762333,13.0853333 258.879,13.272 C258.995667,13.4586667 259.142667,13.608 259.32,13.72 L259.32,13.72 L259.32,13.776 C259.002667,13.972 258.76,14.1936667 258.592,14.441 C258.424,14.6883333 258.34,14.9566667 258.34,15.246 C258.34,15.5446667 258.412333,15.806 258.557,16.03 C258.701667,16.254 258.9,16.4406667 259.152,16.59 C259.404,16.7393333 259.705,16.8513333 260.055,16.926 C260.405,17.0006667 260.785333,17.038 261.196,17.038 Z M261.28,10.808 C260.944,10.808 260.659333,10.689 260.426,10.451 C260.192667,10.213 260.076,9.87 260.076,9.422 C260.076,8.98333333 260.192667,8.64733333 260.426,8.414 C260.659333,8.18066667 260.944,8.064 261.28,8.064 C261.616,8.064 261.898333,8.183 262.127,8.421 C262.355667,8.659 262.47,8.99266667 262.47,9.422 C262.47,9.87 262.353333,10.213 262.12,10.451 C261.886667,10.689 261.606667,10.808 261.28,10.808 Z M261.448,15.988 C260.897333,15.988 260.465667,15.9016667 260.153,15.729 C259.840333,15.5563333 259.684,15.316 259.684,15.008 C259.684,14.672 259.861333,14.3686667 260.216,14.098 C260.468,14.1633333 260.780667,14.196 261.154,14.196 L261.154,14.196 L262.092,14.196 C262.484,14.196 262.785,14.2426667 262.995,14.336 C263.205,14.4293333 263.31,14.6113333 263.31,14.882 C263.31,15.1806667 263.139667,15.4396667 262.799,15.659 C262.458333,15.8783333 262.008,15.988 261.448,15.988 Z M267.496,14.168 C267.906667,14.168 268.287,14.0793333 268.637,13.902 C268.987,13.7246667 269.316,13.5053333 269.624,13.244 L269.624,13.244 L269.68,13.244 L269.792,14 L271.122,14 L271.122,9.926 C271.122,8.96466667 270.909667,8.22966667 270.485,7.721 C270.060333,7.21233333 269.418667,6.958 268.56,6.958 C268.009333,6.958 267.496,7.04666667 267.02,7.224 C266.544,7.40133333 266.114667,7.61133333 265.732,7.854 L265.732,7.854 L266.32,8.932 C266.628,8.74533333 266.943,8.58666667 267.265,8.456 C267.587,8.32533333 267.916,8.26 268.252,8.26 C268.485333,8.26 268.681333,8.295 268.84,8.365 C268.998667,8.435 269.127,8.533 269.225,8.659 C269.323,8.785 269.393,8.92966667 269.435,9.093 C269.477,9.25633333 269.502667,9.42666667 269.512,9.604 C268.802667,9.67866667 268.193667,9.786 267.685,9.926 C267.176333,10.066 266.756333,10.2386667 266.425,10.444 C266.093667,10.6493333 265.851,10.8943333 265.697,11.179 C265.543,11.4636667 265.466,11.788 265.466,12.152 C265.466,12.7586667 265.652667,13.2463333 266.026,13.615 C266.399333,13.9836667 266.889333,14.168 267.496,14.168 Z M268.014,12.908 C267.724667,12.908 267.486667,12.838 267.3,12.698 C267.113333,12.558 267.02,12.334 267.02,12.026 C267.02,11.858 267.062,11.6993333 267.146,11.55 C267.23,11.4006667 267.37,11.2676667 267.566,11.151 C267.762,11.0343333 268.018667,10.9293333 268.336,10.836 C268.653333,10.7426667 269.045333,10.668 269.512,10.612 L269.512,10.612 L269.512,12.152 C269.250667,12.3946667 269.005667,12.5813333 268.777,12.712 C268.548333,12.8426667 268.294,12.908 268.014,12.908 Z M275.252,14.168 C275.522667,14.168 275.777,14.1423333 276.015,14.091 C276.253,14.0396667 276.465333,13.9813333 276.652,13.916 L276.652,13.916 L276.372,12.726 C276.269333,12.7726667 276.155,12.81 276.029,12.838 C275.903,12.866 275.779333,12.88 275.658,12.88 C275.014,12.88 274.692,12.4786667 274.692,11.676 L274.692,11.676 L274.692,8.4 L276.442,8.4 L276.442,7.126 L274.692,7.126 L274.692,5.25 L273.348,5.25 L273.152,7.126 L272.088,7.196 L272.088,8.4 L273.068,8.4 L273.068,11.676 C273.068,12.0493333 273.107667,12.3876667 273.187,12.691 C273.266333,12.9943333 273.392333,13.2556667 273.565,13.475 C273.737667,13.6943333 273.961667,13.8646667 274.237,13.986 C274.512333,14.1073333 274.850667,14.168 275.252,14.168 Z M278.696,5.922 C278.985333,5.922 279.223333,5.838 279.41,5.67 C279.596667,5.502 279.69,5.28266667 279.69,5.012 C279.69,4.74133333 279.596667,4.51966667 279.41,4.347 C279.223333,4.17433333 278.985333,4.088 278.696,4.088 C278.406667,4.088 278.168667,4.17433333 277.982,4.347 C277.795333,4.51966667 277.702,4.74133333 277.702,5.012 C277.702,5.28266667 277.795333,5.502 277.982,5.67 C278.168667,5.838 278.406667,5.922 278.696,5.922 Z M279.494,14 L279.494,7.126 L277.884,7.126 L277.884,14 L279.494,14 Z M284.366,14.168 C284.795333,14.168 285.208333,14.0886667 285.605,13.93 C286.001667,13.7713333 286.349333,13.538 286.648,13.23 C286.946667,12.922 287.187,12.544 287.369,12.096 C287.551,11.648 287.642,11.1393333 287.642,10.57 C287.642,10.0006667 287.551,9.492 287.369,9.044 C287.187,8.596 286.946667,8.218 286.648,7.91 C286.349333,7.602 286.001667,7.36633333 285.605,7.203 C285.208333,7.03966667 284.795333,6.958 284.366,6.958 C283.936667,6.958 283.526,7.03966667 283.134,7.203 C282.742,7.36633333 282.394333,7.602 282.091,7.91 C281.787667,8.218 281.547333,8.596 281.37,9.044 C281.192667,9.492 281.104,10.0006667 281.104,10.57 C281.104,11.1393333 281.192667,11.648 281.37,12.096 C281.547333,12.544 281.787667,12.922 282.091,13.23 C282.394333,13.538 282.742,13.7713333 283.134,13.93 C283.526,14.0886667 283.936667,14.168 284.366,14.168 Z M284.366,12.852 C283.862,12.852 283.467667,12.6443333 283.183,12.229 C282.898333,11.8136667 282.756,11.2606667 282.756,10.57 C282.756,9.87 282.898333,9.31233333 283.183,8.897 C283.467667,8.48166667 283.862,8.274 284.366,8.274 C284.87,8.274 285.266667,8.48166667 285.556,8.897 C285.845333,9.31233333 285.99,9.87 285.99,10.57 C285.99,11.2606667 285.845333,11.8136667 285.556,12.229 C285.266667,12.6443333 284.87,12.852 284.366,12.852 Z M290.848,14 L290.848,9.198 C291.137333,8.918 291.396333,8.70566667 291.625,8.561 C291.853667,8.41633333 292.117333,8.344 292.416,8.344 C292.798667,8.344 293.074,8.46066667 293.242,8.694 C293.41,8.92733333 293.494,9.32866667 293.494,9.898 L293.494,9.898 L293.494,14 L295.104,14 L295.104,9.688 C295.104,8.81066667 294.936,8.13633333 294.6,7.665 C294.264,7.19366667 293.727333,6.958 292.99,6.958 C292.514,6.958 292.096333,7.06533333 291.737,7.28 C291.377667,7.49466667 291.044,7.75133333 290.736,8.05 L290.736,8.05 L290.68,8.05 L290.568,7.126 L289.238,7.126 L289.238,14 L290.848,14 Z M298.996,14.168 C299.425333,14.168 299.808,14.112 300.144,14 C300.48,13.888 300.76,13.7363333 300.984,13.545 C301.208,13.3536667 301.378333,13.1296667 301.495,12.873 C301.611667,12.6163333 301.67,12.3386667 301.67,12.04 C301.67,11.7226667 301.611667,11.4496667 301.495,11.221 C301.378333,10.9923333 301.224333,10.7986667 301.033,10.64 C300.841667,10.4813333 300.629333,10.3483333 300.396,10.241 C300.162667,10.1336667 299.929333,10.038 299.696,9.954 C299.509333,9.88866667 299.329667,9.82333333 299.157,9.758 C298.984333,9.69266667 298.832667,9.62266667 298.702,9.548 C298.571333,9.47333333 298.466333,9.387 298.387,9.289 C298.307667,9.191 298.268,9.072 298.268,8.932 C298.268,8.71733333 298.349667,8.53766667 298.513,8.393 C298.676333,8.24833333 298.930667,8.176 299.276,8.176 C299.546667,8.176 299.805667,8.22966667 300.053,8.337 C300.300333,8.44433333 300.545333,8.58666667 300.788,8.764 L300.788,8.764 L301.53,7.784 C301.25,7.56933333 300.918667,7.378 300.536,7.21 C300.153333,7.042 299.724,6.958 299.248,6.958 C298.473333,6.958 297.862,7.14933333 297.414,7.532 C296.966,7.91466667 296.742,8.40933333 296.742,9.016 C296.742,9.30533333 296.800333,9.555 296.917,9.765 C297.033667,9.975 297.183,10.1593333 297.365,10.318 C297.547,10.4766667 297.754667,10.612 297.988,10.724 C298.221333,10.836 298.45,10.934 298.674,11.018 C298.851333,11.0926667 299.028667,11.165 299.206,11.235 C299.383333,11.305 299.542,11.382 299.682,11.466 C299.822,11.55 299.934,11.6456667 300.018,11.753 C300.102,11.8603333 300.144,11.984 300.144,12.124 C300.144,12.3666667 300.055333,12.565 299.878,12.719 C299.700667,12.873 299.425333,12.95 299.052,12.95 C298.697333,12.95 298.368333,12.8823333 298.065,12.747 C297.761667,12.6116667 297.456,12.4226667 297.148,12.18 L297.148,12.18 L296.392,13.216 C296.728,13.4866667 297.127,13.713 297.589,13.895 C298.051,14.077 298.52,14.168 298.996,14.168 Z M236.948,33.54 L236.948,32.126 C237.62,32.0326667 238.149667,31.7713333 238.537,31.342 C238.924333,30.9126667 239.118,30.362 239.118,29.69 C239.118,29.186 239.022333,28.773 238.831,28.451 C238.639667,28.129 238.399333,27.8583333 238.11,27.639 C237.820667,27.4196667 237.505667,27.233 237.165,27.079 C236.824333,26.925 236.509333,26.7663333 236.22,26.603 C235.930667,26.4396667 235.690333,26.2506667 235.499,26.036 C235.307667,25.8213333 235.212,25.546 235.212,25.21 C235.212,24.7993333 235.338,24.4726667 235.59,24.23 C235.842,23.9873333 236.182667,23.866 236.612,23.866 C236.994667,23.866 237.309667,23.936 237.557,24.076 C237.804333,24.216 238.058667,24.412 238.32,24.664 L238.32,24.664 L238.936,23.978 C238.684,23.7073333 238.401667,23.474 238.089,23.278 C237.776333,23.082 237.396,22.9606667 236.948,22.914 L236.948,22.914 L236.948,21.528 L236.108,21.528 L236.108,22.942 C235.492,23.0353333 234.999667,23.2896667 234.631,23.705 C234.262333,24.1203333 234.078,24.6406667 234.078,25.266 C234.078,25.7233333 234.173667,26.099 234.365,26.393 C234.556333,26.687 234.796667,26.9366667 235.086,27.142 C235.375333,27.3473333 235.690333,27.5293333 236.031,27.688 C236.371667,27.8466667 236.686667,28.017 236.976,28.199 C237.265333,28.381 237.505667,28.5956667 237.697,28.843 C237.888333,29.0903333 237.984,29.4006667 237.984,29.774 C237.984,30.2126667 237.855667,30.5626667 237.599,30.824 C237.342333,31.0853333 236.952667,31.216 236.43,31.216 C236.000667,31.216 235.606333,31.125 235.247,30.943 C234.887667,30.761 234.558667,30.5393333 234.26,30.278 L234.26,30.278 L233.728,31.076 C234.026667,31.3466667 234.386,31.5823333 234.806,31.783 C235.226,31.9836667 235.66,32.1073333 236.108,32.154 L236.108,32.154 L236.108,33.54 L236.948,33.54 Z M242.828,32.168 C243.276,32.168 243.703,32.077 244.109,31.895 C244.515,31.713 244.876667,31.4236667 245.194,31.027 C245.511333,30.6303333 245.763333,30.117 245.95,29.487 C246.136667,28.857 246.23,28.094 246.23,27.198 C246.23,26.4793333 246.153,25.8516667 245.999,25.315 C245.845,24.7783333 245.630333,24.3303333 245.355,23.971 C245.079667,23.6116667 244.753,23.3433333 244.375,23.166 C243.997,22.9886667 243.588667,22.9 243.15,22.9 C242.795333,22.9 242.457,22.97 242.135,23.11 C241.813,23.25 241.533,23.446 241.295,23.698 C241.057,23.95 240.868,24.251 240.728,24.601 C240.588,24.951 240.518,25.3406667 240.518,25.77 C240.518,26.694 240.746667,27.3846667 241.204,27.842 C241.661333,28.2993333 242.277333,28.528 243.052,28.528 C243.425333,28.528 243.798667,28.4253333 244.172,28.22 C244.545333,28.0146667 244.872,27.7346667 245.152,27.38 C245.142667,28.0986667 245.072667,28.7006667 244.942,29.186 C244.811333,29.6713333 244.638667,30.0656667 244.424,30.369 C244.209333,30.6723333 243.962,30.8893333 243.682,31.02 C243.402,31.1506667 243.103333,31.216 242.786,31.216 C242.506,31.216 242.237667,31.1506667 241.981,31.02 C241.724333,30.8893333 241.502667,30.7166667 241.316,30.502 L241.316,30.502 L240.672,31.23 C240.914667,31.5006667 241.215667,31.7246667 241.575,31.902 C241.934333,32.0793333 242.352,32.168 242.828,32.168 Z M243.248,27.66 C242.688,27.66 242.272667,27.492 242.002,27.156 C241.731333,26.82 241.596,26.358 241.596,25.77 C241.596,25.4806667 241.635667,25.2146667 241.715,24.972 C241.794333,24.7293333 241.904,24.5216667 242.044,24.349 C242.184,24.1763333 242.349667,24.0433333 242.541,23.95 C242.732333,23.8566667 242.935333,23.81 243.15,23.81 C243.719333,23.81 244.172,24.034 244.508,24.482 C244.844,24.93 245.049333,25.5926667 245.124,26.47 C244.834667,26.89 244.524333,27.1933333 244.193,27.38 C243.861667,27.5666667 243.546667,27.66 243.248,27.66 Z M249.786,32.168 C250.234,32.168 250.661,32.077 251.067,31.895 C251.473,31.713 251.834667,31.4236667 252.152,31.027 C252.469333,30.6303333 252.721333,30.117 252.908,29.487 C253.094667,28.857 253.188,28.094 253.188,27.198 C253.188,26.4793333 253.111,25.8516667 252.957,25.315 C252.803,24.7783333 252.588333,24.3303333 252.313,23.971 C252.037667,23.6116667 251.711,23.3433333 251.333,23.166 C250.955,22.9886667 250.546667,22.9 250.108,22.9 C249.753333,22.9 249.415,22.97 249.093,23.11 C248.771,23.25 248.491,23.446 248.253,23.698 C248.015,23.95 247.826,24.251 247.686,24.601 C247.546,24.951 247.476,25.3406667 247.476,25.77 C247.476,26.694 247.704667,27.3846667 248.162,27.842 C248.619333,28.2993333 249.235333,28.528 250.01,28.528 C250.383333,28.528 250.756667,28.4253333 251.13,28.22 C251.503333,28.0146667 251.83,27.7346667 252.11,27.38 C252.100667,28.0986667 252.030667,28.7006667 251.9,29.186 C251.769333,29.6713333 251.596667,30.0656667 251.382,30.369 C251.167333,30.6723333 250.92,30.8893333 250.64,31.02 C250.36,31.1506667 250.061333,31.216 249.744,31.216 C249.464,31.216 249.195667,31.1506667 248.939,31.02 C248.682333,30.8893333 248.460667,30.7166667 248.274,30.502 L248.274,30.502 L247.63,31.23 C247.872667,31.5006667 248.173667,31.7246667 248.533,31.902 C248.892333,32.0793333 249.31,32.168 249.786,32.168 Z M250.206,27.66 C249.646,27.66 249.230667,27.492 248.96,27.156 C248.689333,26.82 248.554,26.358 248.554,25.77 C248.554,25.4806667 248.593667,25.2146667 248.673,24.972 C248.752333,24.7293333 248.862,24.5216667 249.002,24.349 C249.142,24.1763333 249.307667,24.0433333 249.499,23.95 C249.690333,23.8566667 249.893333,23.81 250.108,23.81 C250.677333,23.81 251.13,24.034 251.466,24.482 C251.802,24.93 252.007333,25.5926667 252.082,26.47 C251.792667,26.89 251.482333,27.1933333 251.151,27.38 C250.819667,27.5666667 250.504667,27.66 250.206,27.66 Z M258.06,32 C258.573333,32 259.044667,31.944 259.474,31.832 C259.903333,31.72 260.272,31.552 260.58,31.328 C260.888,31.104 261.126,30.824 261.294,30.488 C261.462,30.152 261.546,29.76 261.546,29.312 C261.546,28.6773333 261.373333,28.178 261.028,27.814 C260.682667,27.45 260.23,27.2166667 259.67,27.114 L259.67,27.114 L259.67,27.058 C260.108667,26.918 260.442333,26.6636667 260.671,26.295 C260.899667,25.9263333 261.014,25.5133333 261.014,25.056 C261.014,24.6546667 260.937,24.3116667 260.783,24.027 C260.629,23.7423333 260.414333,23.5113333 260.139,23.334 C259.863667,23.1566667 259.532333,23.026 259.145,22.942 C258.757667,22.858 258.330667,22.816 257.864,22.816 L257.864,22.816 L255.134,22.816 L255.134,32 L258.06,32 Z M257.654,26.722 L256.296,26.722 L256.296,23.74 L257.71,23.74 C258.428667,23.74 258.967667,23.852 259.327,24.076 C259.686333,24.3 259.866,24.678 259.866,25.21 C259.866,25.6766667 259.693333,26.0453333 259.348,26.316 C259.002667,26.5866667 258.438,26.722 257.654,26.722 L257.654,26.722 Z M257.892,31.076 L256.296,31.076 L256.296,27.618 L257.892,27.618 C258.704,27.618 259.324667,27.751 259.754,28.017 C260.183333,28.283 260.398,28.7006667 260.398,29.27 C260.398,29.886 260.178667,30.341 259.74,30.635 C259.301333,30.929 258.685333,31.076 257.892,31.076 L257.892,31.076 Z" id="Obligations$99B" fill="#666666" fill-rule="nonzero"></path>
                <path d="M332.592,14.168 C333.124,14.168 333.602333,14.091 334.027,13.937 C334.451667,13.783 334.815667,13.538 335.119,13.202 C335.422333,12.866 335.653333,12.4343333 335.812,11.907 C335.970667,11.3796667 336.05,10.738 336.05,9.982 L336.05,9.982 L336.05,4.844 L334.496,4.844 L334.496,10.108 C334.496,10.6026667 334.449333,11.0203333 334.356,11.361 C334.262667,11.7016667 334.132,11.9746667 333.964,12.18 C333.796,12.3853333 333.595333,12.5323333 333.362,12.621 C333.128667,12.7096667 332.872,12.754 332.592,12.754 C332.312,12.754 332.06,12.7096667 331.836,12.621 C331.612,12.5323333 331.418333,12.3853333 331.255,12.18 C331.091667,11.9746667 330.965667,11.7016667 330.877,11.361 C330.788333,11.0203333 330.744,10.6026667 330.744,10.108 L330.744,10.108 L330.744,4.844 L329.12,4.844 L329.12,9.982 C329.12,10.738 329.201667,11.3796667 329.365,11.907 C329.528333,12.4343333 329.761667,12.866 330.065,13.202 C330.368333,13.538 330.732333,13.783 331.157,13.937 C331.581667,14.091 332.06,14.168 332.592,14.168 Z M339.802,14 L339.802,9.198 C340.091333,8.918 340.350333,8.70566667 340.579,8.561 C340.807667,8.41633333 341.071333,8.344 341.37,8.344 C341.752667,8.344 342.028,8.46066667 342.196,8.694 C342.364,8.92733333 342.448,9.32866667 342.448,9.898 L342.448,9.898 L342.448,14 L344.058,14 L344.058,9.688 C344.058,8.81066667 343.89,8.13633333 343.554,7.665 C343.218,7.19366667 342.681333,6.958 341.944,6.958 C341.468,6.958 341.050333,7.06533333 340.691,7.28 C340.331667,7.49466667 339.998,7.75133333 339.69,8.05 L339.69,8.05 L339.634,8.05 L339.522,7.126 L338.192,7.126 L338.192,14 L339.802,14 Z M348.846,14.168 C349.275333,14.168 349.688333,14.0886667 350.085,13.93 C350.481667,13.7713333 350.829333,13.538 351.128,13.23 C351.426667,12.922 351.667,12.544 351.849,12.096 C352.031,11.648 352.122,11.1393333 352.122,10.57 C352.122,10.0006667 352.031,9.492 351.849,9.044 C351.667,8.596 351.426667,8.218 351.128,7.91 C350.829333,7.602 350.481667,7.36633333 350.085,7.203 C349.688333,7.03966667 349.275333,6.958 348.846,6.958 C348.416667,6.958 348.006,7.03966667 347.614,7.203 C347.222,7.36633333 346.874333,7.602 346.571,7.91 C346.267667,8.218 346.027333,8.596 345.85,9.044 C345.672667,9.492 345.584,10.0006667 345.584,10.57 C345.584,11.1393333 345.672667,11.648 345.85,12.096 C346.027333,12.544 346.267667,12.922 346.571,13.23 C346.874333,13.538 347.222,13.7713333 347.614,13.93 C348.006,14.0886667 348.416667,14.168 348.846,14.168 Z M348.846,12.852 C348.342,12.852 347.947667,12.6443333 347.663,12.229 C347.378333,11.8136667 347.236,11.2606667 347.236,10.57 C347.236,9.87 347.378333,9.31233333 347.663,8.897 C347.947667,8.48166667 348.342,8.274 348.846,8.274 C349.35,8.274 349.746667,8.48166667 350.036,8.897 C350.325333,9.31233333 350.47,9.87 350.47,10.57 C350.47,11.2606667 350.325333,11.8136667 350.036,12.229 C349.746667,12.6443333 349.35,12.852 348.846,12.852 Z M357.05,14.168 C357.432667,14.168 357.801333,14.084 358.156,13.916 C358.510667,13.748 358.823333,13.5053333 359.094,13.188 C359.364667,12.8706667 359.581667,12.481 359.745,12.019 C359.908333,11.557 359.99,11.032 359.99,10.444 C359.99,9.912 359.929333,9.43133333 359.808,9.002 C359.686667,8.57266667 359.509333,8.20633333 359.276,7.903 C359.042667,7.59966667 358.758,7.36633333 358.422,7.203 C358.086,7.03966667 357.703333,6.958 357.274,6.958 C356.919333,6.958 356.571667,7.03733333 356.231,7.196 C355.890333,7.35466667 355.575333,7.56 355.286,7.812 L355.286,7.812 L355.328,6.664 L355.328,4.116 L353.718,4.116 L353.718,14 L354.992,14 L355.132,13.272 L355.174,13.272 C355.463333,13.5613333 355.769,13.783 356.091,13.937 C356.413,14.091 356.732667,14.168 357.05,14.168 Z M356.714,12.838 C356.508667,12.838 356.287,12.796 356.049,12.712 C355.811,12.628 355.570667,12.4786667 355.328,12.264 L355.328,12.264 L355.328,9.058 C355.850667,8.54466667 356.354667,8.288 356.84,8.288 C357.362667,8.288 357.740667,8.47933333 357.974,8.862 C358.207333,9.24466667 358.324,9.78133333 358.324,10.472 C358.324,11.256 358.17,11.8463333 357.862,12.243 C357.554,12.6396667 357.171333,12.838 356.714,12.838 Z M363.168,14.168 C363.522667,14.168 363.807333,14.1213333 364.022,14.028 L364.022,14.028 L363.812,12.824 C363.746667,12.8426667 363.697667,12.852 363.665,12.852 L363.665,12.852 L363.56,12.852 C363.476,12.852 363.396667,12.8123333 363.322,12.733 C363.247333,12.6536667 363.21,12.516 363.21,12.32 L363.21,12.32 L363.21,4.116 L361.6,4.116 L361.6,12.236 C361.6,12.8333333 361.716667,13.3046667 361.95,13.65 C362.183333,13.9953333 362.589333,14.168 363.168,14.168 Z M366.206,5.922 C366.495333,5.922 366.733333,5.838 366.92,5.67 C367.106667,5.502 367.2,5.28266667 367.2,5.012 C367.2,4.74133333 367.106667,4.51966667 366.92,4.347 C366.733333,4.17433333 366.495333,4.088 366.206,4.088 C365.916667,4.088 365.678667,4.17433333 365.492,4.347 C365.305333,4.51966667 365.212,4.74133333 365.212,5.012 C365.212,5.28266667 365.305333,5.502 365.492,5.67 C365.678667,5.838 365.916667,5.922 366.206,5.922 Z M367.004,14 L367.004,7.126 L365.394,7.126 L365.394,14 L367.004,14 Z M371.456,17.038 C372.016,17.038 372.522333,16.975 372.975,16.849 C373.427667,16.723 373.812667,16.5526667 374.13,16.338 C374.447333,16.1233333 374.692333,15.8666667 374.865,15.568 C375.037667,15.2693333 375.124,14.952 375.124,14.616 C375.124,14.0186667 374.911667,13.587 374.487,13.321 C374.062333,13.055 373.434667,12.922 372.604,12.922 L372.604,12.922 L371.386,12.922 C370.966,12.922 370.674333,12.866 370.511,12.754 C370.347667,12.642 370.266,12.488 370.266,12.292 C370.266,12.1333333 370.296333,12.0073333 370.357,11.914 C370.417667,11.8206667 370.499333,11.7273333 370.602,11.634 C370.760667,11.6993333 370.919333,11.746 371.078,11.774 C371.236667,11.802 371.390667,11.816 371.54,11.816 C371.904,11.816 372.244667,11.7646667 372.562,11.662 C372.879333,11.5593333 373.154667,11.41 373.388,11.214 C373.621333,11.018 373.805667,10.7753333 373.941,10.486 C374.076333,10.1966667 374.144,9.86066667 374.144,9.478 C374.144,9.23533333 374.106667,9.01366667 374.032,8.813 C373.957333,8.61233333 373.864,8.44666667 373.752,8.316 L373.752,8.316 L375.012,8.316 L375.012,7.126 L372.548,7.126 C372.408,7.07933333 372.251667,7.03966667 372.079,7.007 C371.906333,6.97433333 371.726667,6.958 371.54,6.958 C371.176,6.958 370.830667,7.01166667 370.504,7.119 C370.177333,7.22633333 369.890333,7.385 369.643,7.595 C369.395667,7.805 369.197333,8.064 369.048,8.372 C368.898667,8.68 368.824,9.03 368.824,9.422 C368.824,9.83266667 368.915,10.1943333 369.097,10.507 C369.279,10.8196667 369.486667,11.0646667 369.72,11.242 L369.72,11.242 L369.72,11.298 C369.524,11.438 369.349,11.6176667 369.195,11.837 C369.041,12.0563333 368.964,12.3013333 368.964,12.572 C368.964,12.852 369.022333,13.0853333 369.139,13.272 C369.255667,13.4586667 369.402667,13.608 369.58,13.72 L369.58,13.72 L369.58,13.776 C369.262667,13.972 369.02,14.1936667 368.852,14.441 C368.684,14.6883333 368.6,14.9566667 368.6,15.246 C368.6,15.5446667 368.672333,15.806 368.817,16.03 C368.961667,16.254 369.16,16.4406667 369.412,16.59 C369.664,16.7393333 369.965,16.8513333 370.315,16.926 C370.665,17.0006667 371.045333,17.038 371.456,17.038 Z M371.54,10.808 C371.204,10.808 370.919333,10.689 370.686,10.451 C370.452667,10.213 370.336,9.87 370.336,9.422 C370.336,8.98333333 370.452667,8.64733333 370.686,8.414 C370.919333,8.18066667 371.204,8.064 371.54,8.064 C371.876,8.064 372.158333,8.183 372.387,8.421 C372.615667,8.659 372.73,8.99266667 372.73,9.422 C372.73,9.87 372.613333,10.213 372.38,10.451 C372.146667,10.689 371.866667,10.808 371.54,10.808 Z M371.708,15.988 C371.157333,15.988 370.725667,15.9016667 370.413,15.729 C370.100333,15.5563333 369.944,15.316 369.944,15.008 C369.944,14.672 370.121333,14.3686667 370.476,14.098 C370.728,14.1633333 371.040667,14.196 371.414,14.196 L371.414,14.196 L372.352,14.196 C372.744,14.196 373.045,14.2426667 373.255,14.336 C373.465,14.4293333 373.57,14.6113333 373.57,14.882 C373.57,15.1806667 373.399667,15.4396667 373.059,15.659 C372.718333,15.8783333 372.268,15.988 371.708,15.988 Z M377.756,14.168 C378.166667,14.168 378.547,14.0793333 378.897,13.902 C379.247,13.7246667 379.576,13.5053333 379.884,13.244 L379.884,13.244 L379.94,13.244 L380.052,14 L381.382,14 L381.382,9.926 C381.382,8.96466667 381.169667,8.22966667 380.745,7.721 C380.320333,7.21233333 379.678667,6.958 378.82,6.958 C378.269333,6.958 377.756,7.04666667 377.28,7.224 C376.804,7.40133333 376.374667,7.61133333 375.992,7.854 L375.992,7.854 L376.58,8.932 C376.888,8.74533333 377.203,8.58666667 377.525,8.456 C377.847,8.32533333 378.176,8.26 378.512,8.26 C378.745333,8.26 378.941333,8.295 379.1,8.365 C379.258667,8.435 379.387,8.533 379.485,8.659 C379.583,8.785 379.653,8.92966667 379.695,9.093 C379.737,9.25633333 379.762667,9.42666667 379.772,9.604 C379.062667,9.67866667 378.453667,9.786 377.945,9.926 C377.436333,10.066 377.016333,10.2386667 376.685,10.444 C376.353667,10.6493333 376.111,10.8943333 375.957,11.179 C375.803,11.4636667 375.726,11.788 375.726,12.152 C375.726,12.7586667 375.912667,13.2463333 376.286,13.615 C376.659333,13.9836667 377.149333,14.168 377.756,14.168 Z M378.274,12.908 C377.984667,12.908 377.746667,12.838 377.56,12.698 C377.373333,12.558 377.28,12.334 377.28,12.026 C377.28,11.858 377.322,11.6993333 377.406,11.55 C377.49,11.4006667 377.63,11.2676667 377.826,11.151 C378.022,11.0343333 378.278667,10.9293333 378.596,10.836 C378.913333,10.7426667 379.305333,10.668 379.772,10.612 L379.772,10.612 L379.772,12.152 C379.510667,12.3946667 379.265667,12.5813333 379.037,12.712 C378.808333,12.8426667 378.554,12.908 378.274,12.908 Z M385.512,14.168 C385.782667,14.168 386.037,14.1423333 386.275,14.091 C386.513,14.0396667 386.725333,13.9813333 386.912,13.916 L386.912,13.916 L386.632,12.726 C386.529333,12.7726667 386.415,12.81 386.289,12.838 C386.163,12.866 386.039333,12.88 385.918,12.88 C385.274,12.88 384.952,12.4786667 384.952,11.676 L384.952,11.676 L384.952,8.4 L386.702,8.4 L386.702,7.126 L384.952,7.126 L384.952,5.25 L383.608,5.25 L383.412,7.126 L382.348,7.196 L382.348,8.4 L383.328,8.4 L383.328,11.676 C383.328,12.0493333 383.367667,12.3876667 383.447,12.691 C383.526333,12.9943333 383.652333,13.2556667 383.825,13.475 C383.997667,13.6943333 384.221667,13.8646667 384.497,13.986 C384.772333,14.1073333 385.110667,14.168 385.512,14.168 Z M390.86,14.168 C391.298667,14.168 391.718667,14.098 392.12,13.958 C392.521333,13.818 392.885333,13.6406667 393.212,13.426 L393.212,13.426 L392.666,12.418 C392.414,12.5766667 392.159667,12.7003333 391.903,12.789 C391.646333,12.8776667 391.368667,12.922 391.07,12.922 C390.51,12.922 390.050333,12.7563333 389.691,12.425 C389.331667,12.0936667 389.114667,11.62 389.04,11.004 L389.04,11.004 L393.408,11.004 C393.426667,10.92 393.443,10.808 393.457,10.668 C393.471,10.528 393.478,10.3786667 393.478,10.22 C393.478,9.744 393.417333,9.30533333 393.296,8.904 C393.174667,8.50266667 392.995,8.15733333 392.757,7.868 C392.519,7.57866667 392.222667,7.35466667 391.868,7.196 C391.513333,7.03733333 391.102667,6.958 390.636,6.958 C390.234667,6.958 389.842667,7.042 389.46,7.21 C389.077333,7.378 388.739,7.616 388.445,7.924 C388.151,8.232 387.915333,8.61 387.738,9.058 C387.560667,9.506 387.472,10.01 387.472,10.57 C387.472,11.1393333 387.558333,11.6456667 387.731,12.089 C387.903667,12.5323333 388.144,12.908 388.452,13.216 C388.76,13.524 389.119333,13.7596667 389.53,13.923 C389.940667,14.0863333 390.384,14.168 390.86,14.168 Z M392.078,9.912 L389.026,9.912 C389.100667,9.352 389.292,8.92733333 389.6,8.638 C389.908,8.34866667 390.267333,8.204 390.678,8.204 C391.154,8.204 391.506333,8.35566667 391.735,8.659 C391.963667,8.96233333 392.078,9.38 392.078,9.912 L392.078,9.912 Z M397.426,14.168 C397.799333,14.168 398.154,14.0793333 398.49,13.902 C398.826,13.7246667 399.12,13.51 399.372,13.258 L399.372,13.258 L399.428,13.258 L399.54,14 L400.87,14 L400.87,4.116 L399.26,4.116 L399.26,6.608 L399.316,7.714 C399.045333,7.48066667 398.774667,7.29633333 398.504,7.161 C398.233333,7.02566667 397.902,6.958 397.51,6.958 C397.136667,6.958 396.775,7.042 396.425,7.21 C396.075,7.378 395.764667,7.616 395.494,7.924 C395.223333,8.232 395.006333,8.61 394.843,9.058 C394.679667,9.506 394.598,10.01 394.598,10.57 C394.598,11.7086667 394.852333,12.593 395.361,13.223 C395.869667,13.853 396.558,14.168 397.426,14.168 Z M397.818,12.838 C397.314,12.838 396.929,12.6443333 396.663,12.257 C396.397,11.8696667 396.264,11.3026667 396.264,10.556 C396.264,9.828 396.418,9.268 396.726,8.876 C397.034,8.484 397.412,8.288 397.86,8.288 C398.093333,8.288 398.324333,8.33 398.553,8.414 C398.781667,8.498 399.017333,8.64733333 399.26,8.862 L399.26,8.862 L399.26,12.068 C398.812,12.5813333 398.331333,12.838 397.818,12.838 Z M331.948,33.54 L331.948,32.126 C332.62,32.0326667 333.149667,31.7713333 333.537,31.342 C333.924333,30.9126667 334.118,30.362 334.118,29.69 C334.118,29.186 334.022333,28.773 333.831,28.451 C333.639667,28.129 333.399333,27.8583333 333.11,27.639 C332.820667,27.4196667 332.505667,27.233 332.165,27.079 C331.824333,26.925 331.509333,26.7663333 331.22,26.603 C330.930667,26.4396667 330.690333,26.2506667 330.499,26.036 C330.307667,25.8213333 330.212,25.546 330.212,25.21 C330.212,24.7993333 330.338,24.4726667 330.59,24.23 C330.842,23.9873333 331.182667,23.866 331.612,23.866 C331.994667,23.866 332.309667,23.936 332.557,24.076 C332.804333,24.216 333.058667,24.412 333.32,24.664 L333.32,24.664 L333.936,23.978 C333.684,23.7073333 333.401667,23.474 333.089,23.278 C332.776333,23.082 332.396,22.9606667 331.948,22.914 L331.948,22.914 L331.948,21.528 L331.108,21.528 L331.108,22.942 C330.492,23.0353333 329.999667,23.2896667 329.631,23.705 C329.262333,24.1203333 329.078,24.6406667 329.078,25.266 C329.078,25.7233333 329.173667,26.099 329.365,26.393 C329.556333,26.687 329.796667,26.9366667 330.086,27.142 C330.375333,27.3473333 330.690333,27.5293333 331.031,27.688 C331.371667,27.8466667 331.686667,28.017 331.976,28.199 C332.265333,28.381 332.505667,28.5956667 332.697,28.843 C332.888333,29.0903333 332.984,29.4006667 332.984,29.774 C332.984,30.2126667 332.855667,30.5626667 332.599,30.824 C332.342333,31.0853333 331.952667,31.216 331.43,31.216 C331.000667,31.216 330.606333,31.125 330.247,30.943 C329.887667,30.761 329.558667,30.5393333 329.26,30.278 L329.26,30.278 L328.728,31.076 C329.026667,31.3466667 329.386,31.5823333 329.806,31.783 C330.226,31.9836667 330.66,32.1073333 331.108,32.154 L331.108,32.154 L331.108,33.54 L331.948,33.54 Z M341.104,32 L341.104,31.048 L339.256,31.048 L339.256,23.068 L338.374,23.068 C338.131333,23.2173333 337.858333,23.3456667 337.555,23.453 C337.251667,23.5603333 336.894667,23.6513333 336.484,23.726 L336.484,23.726 L336.484,24.468 L338.108,24.468 L338.108,31.048 L336.064,31.048 L336.064,32 L341.104,32 Z M347.264,32 L347.264,29.536 L348.482,29.536 L348.482,28.612 L347.264,28.612 L347.264,23.068 L345.976,23.068 L342.154,28.78 L342.154,29.536 L346.172,29.536 L346.172,32 L347.264,32 Z M346.172,28.612 L343.372,28.612 L345.458,25.56 C345.588667,25.3453333 345.714667,25.1353333 345.836,24.93 C345.957333,24.7246667 346.074,24.5146667 346.186,24.3 L346.186,24.3 L346.242,24.3 C346.223333,24.5426667 346.207,24.8296667 346.193,25.161 C346.179,25.4923333 346.172,25.7793333 346.172,26.022 L346.172,26.022 L346.172,28.612 Z M353.06,32 C353.573333,32 354.044667,31.944 354.474,31.832 C354.903333,31.72 355.272,31.552 355.58,31.328 C355.888,31.104 356.126,30.824 356.294,30.488 C356.462,30.152 356.546,29.76 356.546,29.312 C356.546,28.6773333 356.373333,28.178 356.028,27.814 C355.682667,27.45 355.23,27.2166667 354.67,27.114 L354.67,27.114 L354.67,27.058 C355.108667,26.918 355.442333,26.6636667 355.671,26.295 C355.899667,25.9263333 356.014,25.5133333 356.014,25.056 C356.014,24.6546667 355.937,24.3116667 355.783,24.027 C355.629,23.7423333 355.414333,23.5113333 355.139,23.334 C354.863667,23.1566667 354.532333,23.026 354.145,22.942 C353.757667,22.858 353.330667,22.816 352.864,22.816 L352.864,22.816 L350.134,22.816 L350.134,32 L353.06,32 Z M352.654,26.722 L351.296,26.722 L351.296,23.74 L352.71,23.74 C353.428667,23.74 353.967667,23.852 354.327,24.076 C354.686333,24.3 354.866,24.678 354.866,25.21 C354.866,25.6766667 354.693333,26.0453333 354.348,26.316 C354.002667,26.5866667 353.438,26.722 352.654,26.722 L352.654,26.722 Z M352.892,31.076 L351.296,31.076 L351.296,27.618 L352.892,27.618 C353.704,27.618 354.324667,27.751 354.754,28.017 C355.183333,28.283 355.398,28.7006667 355.398,29.27 C355.398,29.886 355.178667,30.341 354.74,30.635 C354.301333,30.929 353.685333,31.076 352.892,31.076 L352.892,31.076 Z" id="Unobligated$14B" fill="#666666" fill-rule="nonzero"></path>
                <path d="M136,8 L130,8 C128.895431,8 128,8.8954305 128,10 L128,26 C128,27.1045695 128.895431,28 130,28 L136,28 L136,28" id="Line-2" stroke="#C6C6C6" stroke-linecap="round"></path>
                <line x1="127.5" y1="18.5" x2="87.5" y2="18.5" id="Line-4" stroke="#C6C6C6" stroke-linecap="round"></line>
                <rect id="unobligated" fill="#F3E9FF" x="23" y="3" width="3" height="30"></rect>
                <rect id="obligated" fill="#6F41A7" x="20" y="3" width="3" height="30"></rect>
                <rect id="outlays" fill="#331E4D" x="0" y="3" width="20" height="30"></rect>
                <path d="M40.368,24.54 L40.368,23.084 C41.096,22.9253333 41.642,22.6056667 42.006,22.125 C42.37,21.6443333 42.552,21.068 42.552,20.396 C42.552,19.948 42.461,19.5723333 42.279,19.269 C42.097,18.9656667 41.8683333,18.7066667 41.593,18.492 C41.3176667,18.2773333 41.0213333,18.0953333 40.704,17.946 C40.3866667,17.7966667 40.0903333,17.652 39.815,17.512 C39.5396667,17.372 39.311,17.225 39.129,17.071 C38.947,16.917 38.856,16.728 38.856,16.504 C38.856,16.1866667 38.9446667,15.958 39.122,15.818 C39.2993333,15.678 39.556,15.608 39.892,15.608 C40.1906667,15.608 40.4566667,15.6663333 40.69,15.783 C40.9233333,15.8996667 41.166,16.0746667 41.418,16.308 L41.418,16.308 L42.454,15.132 C42.1833333,14.8426667 41.88,14.5953333 41.544,14.39 C41.208,14.1846667 40.816,14.0493333 40.368,13.984 L40.368,13.984 L40.368,12.57 L39.01,12.57 L39.01,14.012 C38.3473333,14.1426667 37.827,14.4343333 37.449,14.887 C37.071,15.3396667 36.882,15.9113333 36.882,16.602 C36.882,17.022 36.973,17.3766667 37.155,17.666 C37.337,17.9553333 37.5656667,18.2073333 37.841,18.422 C38.1163333,18.6366667 38.4126667,18.821 38.73,18.975 C39.0473333,19.129 39.3436667,19.283 39.619,19.437 C39.8943333,19.591 40.123,19.752 40.305,19.92 C40.487,20.088 40.578,20.2933333 40.578,20.536 C40.578,20.8626667 40.487,21.1053333 40.305,21.264 C40.123,21.4226667 39.836,21.502 39.444,21.502 C39.108,21.502 38.779,21.4343333 38.457,21.299 C38.135,21.1636667 37.7966667,20.9606667 37.442,20.69 L37.442,20.69 L36.546,22.076 C36.8726667,22.3746667 37.2623333,22.615 37.715,22.797 C38.1676667,22.979 38.5993333,23.0933333 39.01,23.14 L39.01,23.14 L39.01,24.54 L40.368,24.54 Z M50.028,23 L50.028,21.334 L48.362,21.334 L48.362,14.11 L46.85,14.11 C46.5326667,14.2966667 46.206,14.4553333 45.87,14.586 C45.534,14.7166667 45.1233333,14.8286667 44.638,14.922 L44.638,14.922 L44.638,16.196 L46.304,16.196 L46.304,21.334 L44.372,21.334 L44.372,23 L50.028,23 Z M57.42,23 L57.42,21.334 L55.754,21.334 L55.754,14.11 L54.242,14.11 C53.9246667,14.2966667 53.598,14.4553333 53.262,14.586 C52.926,14.7166667 52.5153333,14.8286667 52.03,14.922 L52.03,14.922 L52.03,16.196 L53.696,16.196 L53.696,21.334 L51.764,21.334 L51.764,23 L57.42,23 Z M64.952,23 L64.952,21.264 L63.16,21.264 C62.9453333,21.264 62.7003333,21.2756667 62.425,21.299 C62.1496667,21.3223333 61.9,21.348 61.676,21.376 C62.04,21.0026667 62.3923333,20.6223333 62.733,20.235 C63.0736667,19.8476667 63.377,19.4603333 63.643,19.073 C63.909,18.6856667 64.1213333,18.2983333 64.28,17.911 C64.4386667,17.5236667 64.518,17.1433333 64.518,16.77 C64.518,16.3406667 64.448,15.9533333 64.308,15.608 C64.168,15.2626667 63.9673333,14.9663333 63.706,14.719 C63.4446667,14.4716667 63.1343333,14.2803333 62.775,14.145 C62.4156667,14.0096667 62.0166667,13.942 61.578,13.942 C60.9433333,13.942 60.3973333,14.061 59.94,14.299 C59.4826667,14.537 59.0346667,14.8893333 58.596,15.356 L58.596,15.356 L59.716,16.462 C59.94,16.2193333 60.178,16.007 60.43,15.825 C60.682,15.643 60.9713333,15.552 61.298,15.552 C61.69,15.552 61.998,15.6663333 62.222,15.895 C62.446,16.1236667 62.558,16.4573333 62.558,16.896 C62.558,17.2133333 62.4623333,17.547 62.271,17.897 C62.0796667,18.247 61.8136667,18.625 61.473,19.031 C61.1323333,19.437 60.7263333,19.871 60.255,20.333 C59.7836667,20.795 59.2633333,21.292 58.694,21.824 L58.694,21.824 L58.694,23 L64.952,23 Z M70.034,23 C70.5286667,23 70.9906667,22.9463333 71.42,22.839 C71.8493333,22.7316667 72.225,22.5683333 72.547,22.349 C72.869,22.1296667 73.121,21.852 73.303,21.516 C73.485,21.18 73.576,20.7786667 73.576,20.312 C73.576,20.004 73.534,19.731 73.45,19.493 C73.366,19.255 73.2493333,19.0473333 73.1,18.87 C72.9506667,18.6926667 72.778,18.5456667 72.582,18.429 C72.386,18.3123333 72.1713333,18.226 71.938,18.17 L71.938,18.17 L71.938,18.114 C72.1246667,18.0486667 72.2903333,17.946 72.435,17.806 C72.5796667,17.666 72.7033333,17.5073333 72.806,17.33 C72.9086667,17.1526667 72.988,16.9613333 73.044,16.756 C73.1,16.5506667 73.128,16.3453333 73.128,16.14 C73.128,15.7013333 73.0416667,15.3373333 72.869,15.048 C72.6963333,14.7586667 72.4583333,14.5253333 72.155,14.348 C71.8516667,14.1706667 71.497,14.047 71.091,13.977 C70.685,13.907 70.244,13.872 69.768,13.872 L69.768,13.872 L66.646,13.872 L66.646,23 L70.034,23 Z M69.67,17.526 L68.704,17.526 L68.704,15.468 L69.684,15.468 C70.1693333,15.468 70.5286667,15.5426667 70.762,15.692 C70.9953333,15.8413333 71.112,16.0933333 71.112,16.448 C71.112,16.7746667 70.9976667,17.036 70.769,17.232 C70.5403333,17.428 70.174,17.526 69.67,17.526 L69.67,17.526 Z M69.866,21.404 L68.704,21.404 L68.704,19.052 L69.866,19.052 C70.4353333,19.052 70.86,19.1383333 71.14,19.311 C71.42,19.4836667 71.56,19.7706667 71.56,20.172 C71.56,20.9933333 70.9953333,21.404 69.866,21.404 L69.866,21.404 Z" id="$112B" fill="#555555" fill-rule="nonzero"></path>
            </g>
        </g>
    </g>
</svg>