<?xml version="1.0" encoding="UTF-8"?>
<svg width="539px" height="93px" viewBox="0 0 539 93" version="1.1" xmlns="http://www.w3.org/2000/svg" xmlns:xlink="http://www.w3.org/1999/xlink">
    <title>04. phase 3 total</title>
    <g id="Viz-3-(v2)" stroke="none" stroke-width="1" fill="none" fill-rule="evenodd">
        <g id="Viz-3---SVG-Export-Tablet-Outline" transform="translate(-70.000000, -924.000000)">
            <g id="04.-phase-3-total" transform="translate(70.000000, 924.000000)">
                <path d="M4.718,73.168 C5.31533333,73.168 5.86133333,73.0583333 6.356,72.839 C6.85066667,72.6196667 7.27766667,72.3023333 7.637,71.887 C7.99633333,71.4716667 8.274,70.97 8.47,70.382 C8.666,69.794 8.764,69.1266667 8.764,68.38 C8.764,67.6426667 8.666,66.9823333 8.47,66.399 C8.274,65.8156667 7.99633333,65.3233333 7.637,64.922 C7.27766667,64.5206667 6.85066667,64.2126667 6.356,63.998 C5.86133333,63.7833333 5.31533333,63.676 4.718,63.676 C4.12066667,63.676 3.57466667,63.7833333 3.08,63.998 C2.58533333,64.2126667 2.16066667,64.5206667 1.806,64.922 C1.45133333,65.3233333 1.176,65.8156667 0.98,66.399 C0.784,66.9823333 0.686,67.6426667 0.686,68.38 C0.686,69.1266667 0.784,69.794 0.98,70.382 C1.176,70.97 1.45133333,71.4716667 1.806,71.887 C2.16066667,72.3023333 2.58533333,72.6196667 3.08,72.839 C3.57466667,73.0583333 4.12066667,73.168 4.718,73.168 Z M4.718,71.754 C4.354,71.754 4.02733333,71.6746667 3.738,71.516 C3.44866667,71.3573333 3.20133333,71.131 2.996,70.837 C2.79066667,70.543 2.632,70.1883333 2.52,69.773 C2.408,69.3576667 2.352,68.8933333 2.352,68.38 C2.352,67.3533333 2.56433333,66.5483333 2.989,65.965 C3.41366667,65.3816667 3.99,65.09 4.718,65.09 C5.446,65.09 6.02233333,65.3816667 6.447,65.965 C6.87166667,66.5483333 7.084,67.3533333 7.084,68.38 C7.084,68.8933333 7.028,69.3576667 6.916,69.773 C6.804,70.1883333 6.64533333,70.543 6.44,70.837 C6.23466667,71.131 5.98733333,71.3573333 5.698,71.516 C5.40866667,71.6746667 5.082,71.754 4.718,71.754 Z M12.502,73.168 C12.978,73.168 13.391,73.0606667 13.741,72.846 C14.091,72.6313333 14.4153333,72.3466667 14.714,71.992 L14.714,71.992 L14.756,71.992 L14.882,73 L16.198,73 L16.198,66.126 L14.588,66.126 L14.588,70.83 C14.3266667,71.166 14.0816667,71.4086667 13.853,71.558 C13.6243333,71.7073333 13.3606667,71.782 13.062,71.782 C12.6886667,71.782 12.418,71.6653333 12.25,71.432 C12.082,71.1986667 11.998,70.7973333 11.998,70.228 L11.998,70.228 L11.998,66.126 L10.388,66.126 L10.388,70.438 C10.388,71.3153333 10.556,71.9896667 10.892,72.461 C11.228,72.9323333 11.7646667,73.168 12.502,73.168 Z M20.664,73.168 C20.9346667,73.168 21.189,73.1423333 21.427,73.091 C21.665,73.0396667 21.8773333,72.9813333 22.064,72.916 L22.064,72.916 L21.784,71.726 C21.6813333,71.7726667 21.567,71.81 21.441,71.838 C21.315,71.866 21.1913333,71.88 21.07,71.88 C20.426,71.88 20.104,71.4786667 20.104,70.676 L20.104,70.676 L20.104,67.4 L21.854,67.4 L21.854,66.126 L20.104,66.126 L20.104,64.25 L18.76,64.25 L18.564,66.126 L17.5,66.196 L17.5,67.4 L18.48,67.4 L18.48,70.676 C18.48,71.0493333 18.5196667,71.3876667 18.599,71.691 C18.6783333,71.9943333 18.8043333,72.2556667 18.977,72.475 C19.1496667,72.6943333 19.3736667,72.8646667 19.649,72.986 C19.9243333,73.1073333 20.2626667,73.168 20.664,73.168 Z M24.864,73.168 C25.2186667,73.168 25.5033333,73.1213333 25.718,73.028 L25.718,73.028 L25.508,71.824 C25.4426667,71.8426667 25.3936667,71.852 25.361,71.852 L25.361,71.852 L25.256,71.852 C25.172,71.852 25.0926667,71.8123333 25.018,71.733 C24.9433333,71.6536667 24.906,71.516 24.906,71.32 L24.906,71.32 L24.906,63.116 L23.296,63.116 L23.296,71.236 C23.296,71.8333333 23.4126667,72.3046667 23.646,72.65 C23.8793333,72.9953333 24.2853333,73.168 24.864,73.168 Z M28.756,73.168 C29.1666667,73.168 29.547,73.0793333 29.897,72.902 C30.247,72.7246667 30.576,72.5053333 30.884,72.244 L30.884,72.244 L30.94,72.244 L31.052,73 L32.382,73 L32.382,68.926 C32.382,67.9646667 32.1696667,67.2296667 31.745,66.721 C31.3203333,66.2123333 30.6786667,65.958 29.82,65.958 C29.2693333,65.958 28.756,66.0466667 28.28,66.224 C27.804,66.4013333 27.3746667,66.6113333 26.992,66.854 L26.992,66.854 L27.58,67.932 C27.888,67.7453333 28.203,67.5866667 28.525,67.456 C28.847,67.3253333 29.176,67.26 29.512,67.26 C29.7453333,67.26 29.9413333,67.295 30.1,67.365 C30.2586667,67.435 30.387,67.533 30.485,67.659 C30.583,67.785 30.653,67.9296667 30.695,68.093 C30.737,68.2563333 30.7626667,68.4266667 30.772,68.604 C30.0626667,68.6786667 29.4536667,68.786 28.945,68.926 C28.4363333,69.066 28.0163333,69.2386667 27.685,69.444 C27.3536667,69.6493333 27.111,69.8943333 26.957,70.179 C26.803,70.4636667 26.726,70.788 26.726,71.152 C26.726,71.7586667 26.9126667,72.2463333 27.286,72.615 C27.6593333,72.9836667 28.1493333,73.168 28.756,73.168 Z M29.274,71.908 C28.9846667,71.908 28.7466667,71.838 28.56,71.698 C28.3733333,71.558 28.28,71.334 28.28,71.026 C28.28,70.858 28.322,70.6993333 28.406,70.55 C28.49,70.4006667 28.63,70.2676667 28.826,70.151 C29.022,70.0343333 29.2786667,69.9293333 29.596,69.836 C29.9133333,69.7426667 30.3053333,69.668 30.772,69.612 L30.772,69.612 L30.772,71.152 C30.5106667,71.3946667 30.2656667,71.5813333 30.037,71.712 C29.8083333,71.8426667 29.554,71.908 29.274,71.908 Z M34.776,75.828 C35.1493333,75.828 35.4783333,75.7696667 35.763,75.653 C36.0476667,75.5363333 36.2996667,75.3683333 36.519,75.149 C36.7383333,74.9296667 36.932,74.666 37.1,74.358 C37.268,74.05 37.422,73.7 37.562,73.308 L37.562,73.308 L40.054,66.126 L38.5,66.126 L37.464,69.5 C37.38,69.808 37.2936667,70.1276667 37.205,70.459 C37.1163333,70.7903333 37.03,71.1146667 36.946,71.432 L36.946,71.432 L36.89,71.432 C36.7873333,71.1053333 36.687,70.7763333 36.589,70.445 C36.491,70.1136667 36.3906667,69.7986667 36.288,69.5 L36.288,69.5 L35.098,66.126 L33.46,66.126 L36.162,72.916 L36.036,73.35 C35.924,73.6953333 35.7583333,73.9776667 35.539,74.197 C35.3196667,74.4163333 35.028,74.526 34.664,74.526 C34.58,74.526 34.4936667,74.5143333 34.405,74.491 C34.3163333,74.4676667 34.2393333,74.4466667 34.174,74.428 L34.174,74.428 L33.88,75.688 C34.0106667,75.7346667 34.146,75.7696667 34.286,75.793 C34.426,75.8163333 34.5893333,75.828 34.776,75.828 Z M43.162,73.168 C43.5913333,73.168 43.974,73.112 44.31,73 C44.646,72.888 44.926,72.7363333 45.15,72.545 C45.374,72.3536667 45.5443333,72.1296667 45.661,71.873 C45.7776667,71.6163333 45.836,71.3386667 45.836,71.04 C45.836,70.7226667 45.7776667,70.4496667 45.661,70.221 C45.5443333,69.9923333 45.3903333,69.7986667 45.199,69.64 C45.0076667,69.4813333 44.7953333,69.3483333 44.562,69.241 C44.3286667,69.1336667 44.0953333,69.038 43.862,68.954 C43.6753333,68.8886667 43.4956667,68.8233333 43.323,68.758 C43.1503333,68.6926667 42.9986667,68.6226667 42.868,68.548 C42.7373333,68.4733333 42.6323333,68.387 42.553,68.289 C42.4736667,68.191 42.434,68.072 42.434,67.932 C42.434,67.7173333 42.5156667,67.5376667 42.679,67.393 C42.8423333,67.2483333 43.0966667,67.176 43.442,67.176 C43.7126667,67.176 43.9716667,67.2296667 44.219,67.337 C44.4663333,67.4443333 44.7113333,67.5866667 44.954,67.764 L44.954,67.764 L45.696,66.784 C45.416,66.5693333 45.0846667,66.378 44.702,66.21 C44.3193333,66.042 43.89,65.958 43.414,65.958 C42.6393333,65.958 42.028,66.1493333 41.58,66.532 C41.132,66.9146667 40.908,67.4093333 40.908,68.016 C40.908,68.3053333 40.9663333,68.555 41.083,68.765 C41.1996667,68.975 41.349,69.1593333 41.531,69.318 C41.713,69.4766667 41.9206667,69.612 42.154,69.724 C42.3873333,69.836 42.616,69.934 42.84,70.018 C43.0173333,70.0926667 43.1946667,70.165 43.372,70.235 C43.5493333,70.305 43.708,70.382 43.848,70.466 C43.988,70.55 44.1,70.6456667 44.184,70.753 C44.268,70.8603333 44.31,70.984 44.31,71.124 C44.31,71.3666667 44.2213333,71.565 44.044,71.719 C43.8666667,71.873 43.5913333,71.95 43.218,71.95 C42.8633333,71.95 42.5343333,71.8823333 42.231,71.747 C41.9276667,71.6116667 41.622,71.4226667 41.314,71.18 L41.314,71.18 L40.558,72.216 C40.894,72.4866667 41.293,72.713 41.755,72.895 C42.217,73.077 42.686,73.168 43.162,73.168 Z M3.948,92.54 L3.948,91.126 C4.62,91.0326667 5.14966667,90.7713333 5.537,90.342 C5.92433333,89.9126667 6.118,89.362 6.118,88.69 C6.118,88.186 6.02233333,87.773 5.831,87.451 C5.63966667,87.129 5.39933333,86.8583333 5.11,86.639 C4.82066667,86.4196667 4.50566667,86.233 4.165,86.079 C3.82433333,85.925 3.50933333,85.7663333 3.22,85.603 C2.93066667,85.4396667 2.69033333,85.2506667 2.499,85.036 C2.30766667,84.8213333 2.212,84.546 2.212,84.21 C2.212,83.7993333 2.338,83.4726667 2.59,83.23 C2.842,82.9873333 3.18266667,82.866 3.612,82.866 C3.99466667,82.866 4.30966667,82.936 4.557,83.076 C4.80433333,83.216 5.05866667,83.412 5.32,83.664 L5.32,83.664 L5.936,82.978 C5.684,82.7073333 5.40166667,82.474 5.089,82.278 C4.77633333,82.082 4.396,81.9606667 3.948,81.914 L3.948,81.914 L3.948,80.528 L3.108,80.528 L3.108,81.942 C2.492,82.0353333 1.99966667,82.2896667 1.631,82.705 C1.26233333,83.1203333 1.078,83.6406667 1.078,84.266 C1.078,84.7233333 1.17366667,85.099 1.365,85.393 C1.55633333,85.687 1.79666667,85.9366667 2.086,86.142 C2.37533333,86.3473333 2.69033333,86.5293333 3.031,86.688 C3.37166667,86.8466667 3.68666667,87.017 3.976,87.199 C4.26533333,87.381 4.50566667,87.5956667 4.697,87.843 C4.88833333,88.0903333 4.984,88.4006667 4.984,88.774 C4.984,89.2126667 4.85566667,89.5626667 4.599,89.824 C4.34233333,90.0853333 3.95266667,90.216 3.43,90.216 C3.00066667,90.216 2.60633333,90.125 2.247,89.943 C1.88766667,89.761 1.55866667,89.5393333 1.26,89.278 L1.26,89.278 L0.728,90.076 C1.02666667,90.3466667 1.386,90.5823333 1.806,90.783 C2.226,90.9836667 2.66,91.1073333 3.108,91.154 L3.108,91.154 L3.108,92.54 L3.948,92.54 Z M13.104,91 L13.104,90.048 L11.256,90.048 L11.256,82.068 L10.374,82.068 C10.1313333,82.2173333 9.85833333,82.3456667 9.555,82.453 C9.25166667,82.5603333 8.89466667,82.6513333 8.484,82.726 L8.484,82.726 L8.484,83.468 L10.108,83.468 L10.108,90.048 L8.064,90.048 L8.064,91 L13.104,91 Z M15.666,91.168 C15.89,91.168 16.0836667,91.0863333 16.247,90.923 C16.4103333,90.7596667 16.492,90.552 16.492,90.3 C16.492,90.0293333 16.4103333,89.8123333 16.247,89.649 C16.0836667,89.4856667 15.89,89.404 15.666,89.404 C15.4326667,89.404 15.2343333,89.4856667 15.071,89.649 C14.9076667,89.8123333 14.826,90.0293333 14.826,90.3 C14.826,90.552 14.9076667,90.7596667 15.071,90.923 C15.2343333,91.0863333 15.4326667,91.168 15.666,91.168 Z M23.548,91 L23.548,90.048 L21.7,90.048 L21.7,82.068 L20.818,82.068 C20.5753333,82.2173333 20.3023333,82.3456667 19.999,82.453 C19.6956667,82.5603333 19.3386667,82.6513333 18.928,82.726 L18.928,82.726 L18.928,83.468 L20.552,83.468 L20.552,90.048 L18.508,90.048 L18.508,91 L23.548,91 Z M30.506,91 L30.506,90.048 L28.658,90.048 L28.658,82.068 L27.776,82.068 C27.5333333,82.2173333 27.2603333,82.3456667 26.957,82.453 C26.6536667,82.5603333 26.2966667,82.6513333 25.886,82.726 L25.886,82.726 L25.886,83.468 L27.51,83.468 L27.51,90.048 L25.466,90.048 L25.466,91 L30.506,91 Z M35.658,91 L35.658,82.796 L38.43,82.796 L38.43,81.816 L31.71,81.816 L31.71,82.796 L34.482,82.796 L34.482,91 L35.658,91 Z" id="Outlays$1.11T" fill="#666666" fill-rule="nonzero"></path>
                <path d="M242.718,73.168 C243.315333,73.168 243.861333,73.0583333 244.356,72.839 C244.850667,72.6196667 245.277667,72.3023333 245.637,71.887 C245.996333,71.4716667 246.274,70.97 246.47,70.382 C246.666,69.794 246.764,69.1266667 246.764,68.38 C246.764,67.6426667 246.666,66.9823333 246.47,66.399 C246.274,65.8156667 245.996333,65.3233333 245.637,64.922 C245.277667,64.5206667 244.850667,64.2126667 244.356,63.998 C243.861333,63.7833333 243.315333,63.676 242.718,63.676 C242.120667,63.676 241.574667,63.7833333 241.08,63.998 C240.585333,64.2126667 240.160667,64.5206667 239.806,64.922 C239.451333,65.3233333 239.176,65.8156667 238.98,66.399 C238.784,66.9823333 238.686,67.6426667 238.686,68.38 C238.686,69.1266667 238.784,69.794 238.98,70.382 C239.176,70.97 239.451333,71.4716667 239.806,71.887 C240.160667,72.3023333 240.585333,72.6196667 241.08,72.839 C241.574667,73.0583333 242.120667,73.168 242.718,73.168 Z M242.718,71.754 C242.354,71.754 242.027333,71.6746667 241.738,71.516 C241.448667,71.3573333 241.201333,71.131 240.996,70.837 C240.790667,70.543 240.632,70.1883333 240.52,69.773 C240.408,69.3576667 240.352,68.8933333 240.352,68.38 C240.352,67.3533333 240.564333,66.5483333 240.989,65.965 C241.413667,65.3816667 241.99,65.09 242.718,65.09 C243.446,65.09 244.022333,65.3816667 244.447,65.965 C244.871667,66.5483333 245.084,67.3533333 245.084,68.38 C245.084,68.8933333 245.028,69.3576667 244.916,69.773 C244.804,70.1883333 244.645333,70.543 244.44,70.837 C244.234667,71.131 243.987333,71.3573333 243.698,71.516 C243.408667,71.6746667 243.082,71.754 242.718,71.754 Z M251.79,73.168 C252.172667,73.168 252.541333,73.084 252.896,72.916 C253.250667,72.748 253.563333,72.5053333 253.834,72.188 C254.104667,71.8706667 254.321667,71.481 254.485,71.019 C254.648333,70.557 254.73,70.032 254.73,69.444 C254.73,68.912 254.669333,68.4313333 254.548,68.002 C254.426667,67.5726667 254.249333,67.2063333 254.016,66.903 C253.782667,66.5996667 253.498,66.3663333 253.162,66.203 C252.826,66.0396667 252.443333,65.958 252.014,65.958 C251.659333,65.958 251.311667,66.0373333 250.971,66.196 C250.630333,66.3546667 250.315333,66.56 250.026,66.812 L250.026,66.812 L250.068,65.664 L250.068,63.116 L248.458,63.116 L248.458,73 L249.732,73 L249.872,72.272 L249.914,72.272 C250.203333,72.5613333 250.509,72.783 250.831,72.937 C251.153,73.091 251.472667,73.168 251.79,73.168 Z M251.454,71.838 C251.248667,71.838 251.027,71.796 250.789,71.712 C250.551,71.628 250.310667,71.4786667 250.068,71.264 L250.068,71.264 L250.068,68.058 C250.590667,67.5446667 251.094667,67.288 251.58,67.288 C252.102667,67.288 252.480667,67.4793333 252.714,67.862 C252.947333,68.2446667 253.064,68.7813333 253.064,69.472 C253.064,70.256 252.91,70.8463333 252.602,71.243 C252.294,71.6396667 251.911333,71.838 251.454,71.838 Z M257.908,73.168 C258.262667,73.168 258.547333,73.1213333 258.762,73.028 L258.762,73.028 L258.552,71.824 C258.486667,71.8426667 258.437667,71.852 258.405,71.852 L258.405,71.852 L258.3,71.852 C258.216,71.852 258.136667,71.8123333 258.062,71.733 C257.987333,71.6536667 257.95,71.516 257.95,71.32 L257.95,71.32 L257.95,63.116 L256.34,63.116 L256.34,71.236 C256.34,71.8333333 256.456667,72.3046667 256.69,72.65 C256.923333,72.9953333 257.329333,73.168 257.908,73.168 Z M260.946,64.922 C261.235333,64.922 261.473333,64.838 261.66,64.67 C261.846667,64.502 261.94,64.2826667 261.94,64.012 C261.94,63.7413333 261.846667,63.5196667 261.66,63.347 C261.473333,63.1743333 261.235333,63.088 260.946,63.088 C260.656667,63.088 260.418667,63.1743333 260.232,63.347 C260.045333,63.5196667 259.952,63.7413333 259.952,64.012 C259.952,64.2826667 260.045333,64.502 260.232,64.67 C260.418667,64.838 260.656667,64.922 260.946,64.922 Z M261.744,73 L261.744,66.126 L260.134,66.126 L260.134,73 L261.744,73 Z M266.196,76.038 C266.756,76.038 267.262333,75.975 267.715,75.849 C268.167667,75.723 268.552667,75.5526667 268.87,75.338 C269.187333,75.1233333 269.432333,74.8666667 269.605,74.568 C269.777667,74.2693333 269.864,73.952 269.864,73.616 C269.864,73.0186667 269.651667,72.587 269.227,72.321 C268.802333,72.055 268.174667,71.922 267.344,71.922 L267.344,71.922 L266.126,71.922 C265.706,71.922 265.414333,71.866 265.251,71.754 C265.087667,71.642 265.006,71.488 265.006,71.292 C265.006,71.1333333 265.036333,71.0073333 265.097,70.914 C265.157667,70.8206667 265.239333,70.7273333 265.342,70.634 C265.500667,70.6993333 265.659333,70.746 265.818,70.774 C265.976667,70.802 266.130667,70.816 266.28,70.816 C266.644,70.816 266.984667,70.7646667 267.302,70.662 C267.619333,70.5593333 267.894667,70.41 268.128,70.214 C268.361333,70.018 268.545667,69.7753333 268.681,69.486 C268.816333,69.1966667 268.884,68.8606667 268.884,68.478 C268.884,68.2353333 268.846667,68.0136667 268.772,67.813 C268.697333,67.6123333 268.604,67.4466667 268.492,67.316 L268.492,67.316 L269.752,67.316 L269.752,66.126 L267.288,66.126 C267.148,66.0793333 266.991667,66.0396667 266.819,66.007 C266.646333,65.9743333 266.466667,65.958 266.28,65.958 C265.916,65.958 265.570667,66.0116667 265.244,66.119 C264.917333,66.2263333 264.630333,66.385 264.383,66.595 C264.135667,66.805 263.937333,67.064 263.788,67.372 C263.638667,67.68 263.564,68.03 263.564,68.422 C263.564,68.8326667 263.655,69.1943333 263.837,69.507 C264.019,69.8196667 264.226667,70.0646667 264.46,70.242 L264.46,70.242 L264.46,70.298 C264.264,70.438 264.089,70.6176667 263.935,70.837 C263.781,71.0563333 263.704,71.3013333 263.704,71.572 C263.704,71.852 263.762333,72.0853333 263.879,72.272 C263.995667,72.4586667 264.142667,72.608 264.32,72.72 L264.32,72.72 L264.32,72.776 C264.002667,72.972 263.76,73.1936667 263.592,73.441 C263.424,73.6883333 263.34,73.9566667 263.34,74.246 C263.34,74.5446667 263.412333,74.806 263.557,75.03 C263.701667,75.254 263.9,75.4406667 264.152,75.59 C264.404,75.7393333 264.705,75.8513333 265.055,75.926 C265.405,76.0006667 265.785333,76.038 266.196,76.038 Z M266.28,69.808 C265.944,69.808 265.659333,69.689 265.426,69.451 C265.192667,69.213 265.076,68.87 265.076,68.422 C265.076,67.9833333 265.192667,67.6473333 265.426,67.414 C265.659333,67.1806667 265.944,67.064 266.28,67.064 C266.616,67.064 266.898333,67.183 267.127,67.421 C267.355667,67.659 267.47,67.9926667 267.47,68.422 C267.47,68.87 267.353333,69.213 267.12,69.451 C266.886667,69.689 266.606667,69.808 266.28,69.808 Z M266.448,74.988 C265.897333,74.988 265.465667,74.9016667 265.153,74.729 C264.840333,74.5563333 264.684,74.316 264.684,74.008 C264.684,73.672 264.861333,73.3686667 265.216,73.098 C265.468,73.1633333 265.780667,73.196 266.154,73.196 L266.154,73.196 L267.092,73.196 C267.484,73.196 267.785,73.2426667 267.995,73.336 C268.205,73.4293333 268.31,73.6113333 268.31,73.882 C268.31,74.1806667 268.139667,74.4396667 267.799,74.659 C267.458333,74.8783333 267.008,74.988 266.448,74.988 Z M272.496,73.168 C272.906667,73.168 273.287,73.0793333 273.637,72.902 C273.987,72.7246667 274.316,72.5053333 274.624,72.244 L274.624,72.244 L274.68,72.244 L274.792,73 L276.122,73 L276.122,68.926 C276.122,67.9646667 275.909667,67.2296667 275.485,66.721 C275.060333,66.2123333 274.418667,65.958 273.56,65.958 C273.009333,65.958 272.496,66.0466667 272.02,66.224 C271.544,66.4013333 271.114667,66.6113333 270.732,66.854 L270.732,66.854 L271.32,67.932 C271.628,67.7453333 271.943,67.5866667 272.265,67.456 C272.587,67.3253333 272.916,67.26 273.252,67.26 C273.485333,67.26 273.681333,67.295 273.84,67.365 C273.998667,67.435 274.127,67.533 274.225,67.659 C274.323,67.785 274.393,67.9296667 274.435,68.093 C274.477,68.2563333 274.502667,68.4266667 274.512,68.604 C273.802667,68.6786667 273.193667,68.786 272.685,68.926 C272.176333,69.066 271.756333,69.2386667 271.425,69.444 C271.093667,69.6493333 270.851,69.8943333 270.697,70.179 C270.543,70.4636667 270.466,70.788 270.466,71.152 C270.466,71.7586667 270.652667,72.2463333 271.026,72.615 C271.399333,72.9836667 271.889333,73.168 272.496,73.168 Z M273.014,71.908 C272.724667,71.908 272.486667,71.838 272.3,71.698 C272.113333,71.558 272.02,71.334 272.02,71.026 C272.02,70.858 272.062,70.6993333 272.146,70.55 C272.23,70.4006667 272.37,70.2676667 272.566,70.151 C272.762,70.0343333 273.018667,69.9293333 273.336,69.836 C273.653333,69.7426667 274.045333,69.668 274.512,69.612 L274.512,69.612 L274.512,71.152 C274.250667,71.3946667 274.005667,71.5813333 273.777,71.712 C273.548333,71.8426667 273.294,71.908 273.014,71.908 Z M280.252,73.168 C280.522667,73.168 280.777,73.1423333 281.015,73.091 C281.253,73.0396667 281.465333,72.9813333 281.652,72.916 L281.652,72.916 L281.372,71.726 C281.269333,71.7726667 281.155,71.81 281.029,71.838 C280.903,71.866 280.779333,71.88 280.658,71.88 C280.014,71.88 279.692,71.4786667 279.692,70.676 L279.692,70.676 L279.692,67.4 L281.442,67.4 L281.442,66.126 L279.692,66.126 L279.692,64.25 L278.348,64.25 L278.152,66.126 L277.088,66.196 L277.088,67.4 L278.068,67.4 L278.068,70.676 C278.068,71.0493333 278.107667,71.3876667 278.187,71.691 C278.266333,71.9943333 278.392333,72.2556667 278.565,72.475 C278.737667,72.6943333 278.961667,72.8646667 279.237,72.986 C279.512333,73.1073333 279.850667,73.168 280.252,73.168 Z M283.696,64.922 C283.985333,64.922 284.223333,64.838 284.41,64.67 C284.596667,64.502 284.69,64.2826667 284.69,64.012 C284.69,63.7413333 284.596667,63.5196667 284.41,63.347 C284.223333,63.1743333 283.985333,63.088 283.696,63.088 C283.406667,63.088 283.168667,63.1743333 282.982,63.347 C282.795333,63.5196667 282.702,63.7413333 282.702,64.012 C282.702,64.2826667 282.795333,64.502 282.982,64.67 C283.168667,64.838 283.406667,64.922 283.696,64.922 Z M284.494,73 L284.494,66.126 L282.884,66.126 L282.884,73 L284.494,73 Z M289.366,73.168 C289.795333,73.168 290.208333,73.0886667 290.605,72.93 C291.001667,72.7713333 291.349333,72.538 291.648,72.23 C291.946667,71.922 292.187,71.544 292.369,71.096 C292.551,70.648 292.642,70.1393333 292.642,69.57 C292.642,69.0006667 292.551,68.492 292.369,68.044 C292.187,67.596 291.946667,67.218 291.648,66.91 C291.349333,66.602 291.001667,66.3663333 290.605,66.203 C290.208333,66.0396667 289.795333,65.958 289.366,65.958 C288.936667,65.958 288.526,66.0396667 288.134,66.203 C287.742,66.3663333 287.394333,66.602 287.091,66.91 C286.787667,67.218 286.547333,67.596 286.37,68.044 C286.192667,68.492 286.104,69.0006667 286.104,69.57 C286.104,70.1393333 286.192667,70.648 286.37,71.096 C286.547333,71.544 286.787667,71.922 287.091,72.23 C287.394333,72.538 287.742,72.7713333 288.134,72.93 C288.526,73.0886667 288.936667,73.168 289.366,73.168 Z M289.366,71.852 C288.862,71.852 288.467667,71.6443333 288.183,71.229 C287.898333,70.8136667 287.756,70.2606667 287.756,69.57 C287.756,68.87 287.898333,68.3123333 288.183,67.897 C288.467667,67.4816667 288.862,67.274 289.366,67.274 C289.87,67.274 290.266667,67.4816667 290.556,67.897 C290.845333,68.3123333 290.99,68.87 290.99,69.57 C290.99,70.2606667 290.845333,70.8136667 290.556,71.229 C290.266667,71.6443333 289.87,71.852 289.366,71.852 Z M295.848,73 L295.848,68.198 C296.137333,67.918 296.396333,67.7056667 296.625,67.561 C296.853667,67.4163333 297.117333,67.344 297.416,67.344 C297.798667,67.344 298.074,67.4606667 298.242,67.694 C298.41,67.9273333 298.494,68.3286667 298.494,68.898 L298.494,68.898 L298.494,73 L300.104,73 L300.104,68.688 C300.104,67.8106667 299.936,67.1363333 299.6,66.665 C299.264,66.1936667 298.727333,65.958 297.99,65.958 C297.514,65.958 297.096333,66.0653333 296.737,66.28 C296.377667,66.4946667 296.044,66.7513333 295.736,67.05 L295.736,67.05 L295.68,67.05 L295.568,66.126 L294.238,66.126 L294.238,73 L295.848,73 Z M303.996,73.168 C304.425333,73.168 304.808,73.112 305.144,73 C305.48,72.888 305.76,72.7363333 305.984,72.545 C306.208,72.3536667 306.378333,72.1296667 306.495,71.873 C306.611667,71.6163333 306.67,71.3386667 306.67,71.04 C306.67,70.7226667 306.611667,70.4496667 306.495,70.221 C306.378333,69.9923333 306.224333,69.7986667 306.033,69.64 C305.841667,69.4813333 305.629333,69.3483333 305.396,69.241 C305.162667,69.1336667 304.929333,69.038 304.696,68.954 C304.509333,68.8886667 304.329667,68.8233333 304.157,68.758 C303.984333,68.6926667 303.832667,68.6226667 303.702,68.548 C303.571333,68.4733333 303.466333,68.387 303.387,68.289 C303.307667,68.191 303.268,68.072 303.268,67.932 C303.268,67.7173333 303.349667,67.5376667 303.513,67.393 C303.676333,67.2483333 303.930667,67.176 304.276,67.176 C304.546667,67.176 304.805667,67.2296667 305.053,67.337 C305.300333,67.4443333 305.545333,67.5866667 305.788,67.764 L305.788,67.764 L306.53,66.784 C306.25,66.5693333 305.918667,66.378 305.536,66.21 C305.153333,66.042 304.724,65.958 304.248,65.958 C303.473333,65.958 302.862,66.1493333 302.414,66.532 C301.966,66.9146667 301.742,67.4093333 301.742,68.016 C301.742,68.3053333 301.800333,68.555 301.917,68.765 C302.033667,68.975 302.183,69.1593333 302.365,69.318 C302.547,69.4766667 302.754667,69.612 302.988,69.724 C303.221333,69.836 303.45,69.934 303.674,70.018 C303.851333,70.0926667 304.028667,70.165 304.206,70.235 C304.383333,70.305 304.542,70.382 304.682,70.466 C304.822,70.55 304.934,70.6456667 305.018,70.753 C305.102,70.8603333 305.144,70.984 305.144,71.124 C305.144,71.3666667 305.055333,71.565 304.878,71.719 C304.700667,71.873 304.425333,71.95 304.052,71.95 C303.697333,71.95 303.368333,71.8823333 303.065,71.747 C302.761667,71.6116667 302.456,71.4226667 302.148,71.18 L302.148,71.18 L301.392,72.216 C301.728,72.4866667 302.127,72.713 302.589,72.895 C303.051,73.077 303.52,73.168 303.996,73.168 Z M241.948,92.54 L241.948,91.126 C242.62,91.0326667 243.149667,90.7713333 243.537,90.342 C243.924333,89.9126667 244.118,89.362 244.118,88.69 C244.118,88.186 244.022333,87.773 243.831,87.451 C243.639667,87.129 243.399333,86.8583333 243.11,86.639 C242.820667,86.4196667 242.505667,86.233 242.165,86.079 C241.824333,85.925 241.509333,85.7663333 241.22,85.603 C240.930667,85.4396667 240.690333,85.2506667 240.499,85.036 C240.307667,84.8213333 240.212,84.546 240.212,84.21 C240.212,83.7993333 240.338,83.4726667 240.59,83.23 C240.842,82.9873333 241.182667,82.866 241.612,82.866 C241.994667,82.866 242.309667,82.936 242.557,83.076 C242.804333,83.216 243.058667,83.412 243.32,83.664 L243.32,83.664 L243.936,82.978 C243.684,82.7073333 243.401667,82.474 243.089,82.278 C242.776333,82.082 242.396,81.9606667 241.948,81.914 L241.948,81.914 L241.948,80.528 L241.108,80.528 L241.108,81.942 C240.492,82.0353333 239.999667,82.2896667 239.631,82.705 C239.262333,83.1203333 239.078,83.6406667 239.078,84.266 C239.078,84.7233333 239.173667,85.099 239.365,85.393 C239.556333,85.687 239.796667,85.9366667 240.086,86.142 C240.375333,86.3473333 240.690333,86.5293333 241.031,86.688 C241.371667,86.8466667 241.686667,87.017 241.976,87.199 C242.265333,87.381 242.505667,87.5956667 242.697,87.843 C242.888333,88.0903333 242.984,88.4006667 242.984,88.774 C242.984,89.2126667 242.855667,89.5626667 242.599,89.824 C242.342333,90.0853333 241.952667,90.216 241.43,90.216 C241.000667,90.216 240.606333,90.125 240.247,89.943 C239.887667,89.761 239.558667,89.5393333 239.26,89.278 L239.26,89.278 L238.728,90.076 C239.026667,90.3466667 239.386,90.5823333 239.806,90.783 C240.226,90.9836667 240.66,91.1073333 241.108,91.154 L241.108,91.154 L241.108,92.54 L241.948,92.54 Z M251.104,91 L251.104,90.048 L249.256,90.048 L249.256,82.068 L248.374,82.068 C248.131333,82.2173333 247.858333,82.3456667 247.555,82.453 C247.251667,82.5603333 246.894667,82.6513333 246.484,82.726 L246.484,82.726 L246.484,83.468 L248.108,83.468 L248.108,90.048 L246.064,90.048 L246.064,91 L251.104,91 Z M253.666,91.168 C253.89,91.168 254.083667,91.0863333 254.247,90.923 C254.410333,90.7596667 254.492,90.552 254.492,90.3 C254.492,90.0293333 254.410333,89.8123333 254.247,89.649 C254.083667,89.4856667 253.89,89.404 253.666,89.404 C253.432667,89.404 253.234333,89.4856667 253.071,89.649 C252.907667,89.8123333 252.826,90.0293333 252.826,90.3 C252.826,90.552 252.907667,90.7596667 253.071,90.923 C253.234333,91.0863333 253.432667,91.168 253.666,91.168 Z M261.73,91 L261.73,90.006 L259.14,90.006 C258.906667,90.006 258.659333,90.0153333 258.398,90.034 C258.136667,90.0526667 257.884667,90.0713333 257.642,90.09 C258.174,89.5393333 258.661667,89.019 259.105,88.529 C259.548333,88.039 259.931,87.5676667 260.253,87.115 C260.575,86.6623333 260.827,86.2236667 261.009,85.799 C261.191,85.3743333 261.282,84.952 261.282,84.532 C261.282,83.7386667 261.044,83.1016667 260.568,82.621 C260.092,82.1403333 259.438667,81.9 258.608,81.9 C258.02,81.9 257.516,82.0236667 257.096,82.271 C256.676,82.5183333 256.279333,82.8473333 255.906,83.258 L255.906,83.258 L256.564,83.916 C256.825333,83.6173333 257.114667,83.363 257.432,83.153 C257.749333,82.943 258.094667,82.838 258.468,82.838 C259.037333,82.838 259.462,83.0013333 259.742,83.328 C260.022,83.6546667 260.162,84.0746667 260.162,84.588 C260.162,84.952 260.068667,85.3276667 259.882,85.715 C259.695333,86.1023333 259.424667,86.527 259.07,86.989 C258.715333,87.451 258.276667,87.9526667 257.754,88.494 C257.231333,89.0353333 256.634,89.642 255.962,90.314 L255.962,90.314 L255.962,91 L261.73,91 Z M267.708,91 L267.708,88.536 L268.926,88.536 L268.926,87.612 L267.708,87.612 L267.708,82.068 L266.42,82.068 L262.598,87.78 L262.598,88.536 L266.616,88.536 L266.616,91 L267.708,91 Z M266.616,87.612 L263.816,87.612 L265.902,84.56 C266.032667,84.3453333 266.158667,84.1353333 266.28,83.93 C266.401333,83.7246667 266.518,83.5146667 266.63,83.3 L266.63,83.3 L266.686,83.3 C266.667333,83.5426667 266.651,83.8296667 266.637,84.161 C266.623,84.4923333 266.616,84.7793333 266.616,85.022 L266.616,85.022 L266.616,87.612 Z M273.658,91 L273.658,82.796 L276.43,82.796 L276.43,81.816 L269.71,81.816 L269.71,82.796 L272.482,82.796 L272.482,91 L273.658,91 Z" id="Obligations$1.24T" fill="#666666" fill-rule="nonzero"></path>
                <path d="M411.592,73.168 C412.124,73.168 412.602333,73.091 413.027,72.937 C413.451667,72.783 413.815667,72.538 414.119,72.202 C414.422333,71.866 414.653333,71.4343333 414.812,70.907 C414.970667,70.3796667 415.05,69.738 415.05,68.982 L415.05,68.982 L415.05,63.844 L413.496,63.844 L413.496,69.108 C413.496,69.6026667 413.449333,70.0203333 413.356,70.361 C413.262667,70.7016667 413.132,70.9746667 412.964,71.18 C412.796,71.3853333 412.595333,71.5323333 412.362,71.621 C412.128667,71.7096667 411.872,71.754 411.592,71.754 C411.312,71.754 411.06,71.7096667 410.836,71.621 C410.612,71.5323333 410.418333,71.3853333 410.255,71.18 C410.091667,70.9746667 409.965667,70.7016667 409.877,70.361 C409.788333,70.0203333 409.744,69.6026667 409.744,69.108 L409.744,69.108 L409.744,63.844 L408.12,63.844 L408.12,68.982 C408.12,69.738 408.201667,70.3796667 408.365,70.907 C408.528333,71.4343333 408.761667,71.866 409.065,72.202 C409.368333,72.538 409.732333,72.783 410.157,72.937 C410.581667,73.091 411.06,73.168 411.592,73.168 Z M418.802,73 L418.802,68.198 C419.091333,67.918 419.350333,67.7056667 419.579,67.561 C419.807667,67.4163333 420.071333,67.344 420.37,67.344 C420.752667,67.344 421.028,67.4606667 421.196,67.694 C421.364,67.9273333 421.448,68.3286667 421.448,68.898 L421.448,68.898 L421.448,73 L423.058,73 L423.058,68.688 C423.058,67.8106667 422.89,67.1363333 422.554,66.665 C422.218,66.1936667 421.681333,65.958 420.944,65.958 C420.468,65.958 420.050333,66.0653333 419.691,66.28 C419.331667,66.4946667 418.998,66.7513333 418.69,67.05 L418.69,67.05 L418.634,67.05 L418.522,66.126 L417.192,66.126 L417.192,73 L418.802,73 Z M427.846,73.168 C428.275333,73.168 428.688333,73.0886667 429.085,72.93 C429.481667,72.7713333 429.829333,72.538 430.128,72.23 C430.426667,71.922 430.667,71.544 430.849,71.096 C431.031,70.648 431.122,70.1393333 431.122,69.57 C431.122,69.0006667 431.031,68.492 430.849,68.044 C430.667,67.596 430.426667,67.218 430.128,66.91 C429.829333,66.602 429.481667,66.3663333 429.085,66.203 C428.688333,66.0396667 428.275333,65.958 427.846,65.958 C427.416667,65.958 427.006,66.0396667 426.614,66.203 C426.222,66.3663333 425.874333,66.602 425.571,66.91 C425.267667,67.218 425.027333,67.596 424.85,68.044 C424.672667,68.492 424.584,69.0006667 424.584,69.57 C424.584,70.1393333 424.672667,70.648 424.85,71.096 C425.027333,71.544 425.267667,71.922 425.571,72.23 C425.874333,72.538 426.222,72.7713333 426.614,72.93 C427.006,73.0886667 427.416667,73.168 427.846,73.168 Z M427.846,71.852 C427.342,71.852 426.947667,71.6443333 426.663,71.229 C426.378333,70.8136667 426.236,70.2606667 426.236,69.57 C426.236,68.87 426.378333,68.3123333 426.663,67.897 C426.947667,67.4816667 427.342,67.274 427.846,67.274 C428.35,67.274 428.746667,67.4816667 429.036,67.897 C429.325333,68.3123333 429.47,68.87 429.47,69.57 C429.47,70.2606667 429.325333,70.8136667 429.036,71.229 C428.746667,71.6443333 428.35,71.852 427.846,71.852 Z M436.05,73.168 C436.432667,73.168 436.801333,73.084 437.156,72.916 C437.510667,72.748 437.823333,72.5053333 438.094,72.188 C438.364667,71.8706667 438.581667,71.481 438.745,71.019 C438.908333,70.557 438.99,70.032 438.99,69.444 C438.99,68.912 438.929333,68.4313333 438.808,68.002 C438.686667,67.5726667 438.509333,67.2063333 438.276,66.903 C438.042667,66.5996667 437.758,66.3663333 437.422,66.203 C437.086,66.0396667 436.703333,65.958 436.274,65.958 C435.919333,65.958 435.571667,66.0373333 435.231,66.196 C434.890333,66.3546667 434.575333,66.56 434.286,66.812 L434.286,66.812 L434.328,65.664 L434.328,63.116 L432.718,63.116 L432.718,73 L433.992,73 L434.132,72.272 L434.174,72.272 C434.463333,72.5613333 434.769,72.783 435.091,72.937 C435.413,73.091 435.732667,73.168 436.05,73.168 Z M435.714,71.838 C435.508667,71.838 435.287,71.796 435.049,71.712 C434.811,71.628 434.570667,71.4786667 434.328,71.264 L434.328,71.264 L434.328,68.058 C434.850667,67.5446667 435.354667,67.288 435.84,67.288 C436.362667,67.288 436.740667,67.4793333 436.974,67.862 C437.207333,68.2446667 437.324,68.7813333 437.324,69.472 C437.324,70.256 437.17,70.8463333 436.862,71.243 C436.554,71.6396667 436.171333,71.838 435.714,71.838 Z M442.168,73.168 C442.522667,73.168 442.807333,73.1213333 443.022,73.028 L443.022,73.028 L442.812,71.824 C442.746667,71.8426667 442.697667,71.852 442.665,71.852 L442.665,71.852 L442.56,71.852 C442.476,71.852 442.396667,71.8123333 442.322,71.733 C442.247333,71.6536667 442.21,71.516 442.21,71.32 L442.21,71.32 L442.21,63.116 L440.6,63.116 L440.6,71.236 C440.6,71.8333333 440.716667,72.3046667 440.95,72.65 C441.183333,72.9953333 441.589333,73.168 442.168,73.168 Z M445.206,64.922 C445.495333,64.922 445.733333,64.838 445.92,64.67 C446.106667,64.502 446.2,64.2826667 446.2,64.012 C446.2,63.7413333 446.106667,63.5196667 445.92,63.347 C445.733333,63.1743333 445.495333,63.088 445.206,63.088 C444.916667,63.088 444.678667,63.1743333 444.492,63.347 C444.305333,63.5196667 444.212,63.7413333 444.212,64.012 C444.212,64.2826667 444.305333,64.502 444.492,64.67 C444.678667,64.838 444.916667,64.922 445.206,64.922 Z M446.004,73 L446.004,66.126 L444.394,66.126 L444.394,73 L446.004,73 Z M450.456,76.038 C451.016,76.038 451.522333,75.975 451.975,75.849 C452.427667,75.723 452.812667,75.5526667 453.13,75.338 C453.447333,75.1233333 453.692333,74.8666667 453.865,74.568 C454.037667,74.2693333 454.124,73.952 454.124,73.616 C454.124,73.0186667 453.911667,72.587 453.487,72.321 C453.062333,72.055 452.434667,71.922 451.604,71.922 L451.604,71.922 L450.386,71.922 C449.966,71.922 449.674333,71.866 449.511,71.754 C449.347667,71.642 449.266,71.488 449.266,71.292 C449.266,71.1333333 449.296333,71.0073333 449.357,70.914 C449.417667,70.8206667 449.499333,70.7273333 449.602,70.634 C449.760667,70.6993333 449.919333,70.746 450.078,70.774 C450.236667,70.802 450.390667,70.816 450.54,70.816 C450.904,70.816 451.244667,70.7646667 451.562,70.662 C451.879333,70.5593333 452.154667,70.41 452.388,70.214 C452.621333,70.018 452.805667,69.7753333 452.941,69.486 C453.076333,69.1966667 453.144,68.8606667 453.144,68.478 C453.144,68.2353333 453.106667,68.0136667 453.032,67.813 C452.957333,67.6123333 452.864,67.4466667 452.752,67.316 L452.752,67.316 L454.012,67.316 L454.012,66.126 L451.548,66.126 C451.408,66.0793333 451.251667,66.0396667 451.079,66.007 C450.906333,65.9743333 450.726667,65.958 450.54,65.958 C450.176,65.958 449.830667,66.0116667 449.504,66.119 C449.177333,66.2263333 448.890333,66.385 448.643,66.595 C448.395667,66.805 448.197333,67.064 448.048,67.372 C447.898667,67.68 447.824,68.03 447.824,68.422 C447.824,68.8326667 447.915,69.1943333 448.097,69.507 C448.279,69.8196667 448.486667,70.0646667 448.72,70.242 L448.72,70.242 L448.72,70.298 C448.524,70.438 448.349,70.6176667 448.195,70.837 C448.041,71.0563333 447.964,71.3013333 447.964,71.572 C447.964,71.852 448.022333,72.0853333 448.139,72.272 C448.255667,72.4586667 448.402667,72.608 448.58,72.72 L448.58,72.72 L448.58,72.776 C448.262667,72.972 448.02,73.1936667 447.852,73.441 C447.684,73.6883333 447.6,73.9566667 447.6,74.246 C447.6,74.5446667 447.672333,74.806 447.817,75.03 C447.961667,75.254 448.16,75.4406667 448.412,75.59 C448.664,75.7393333 448.965,75.8513333 449.315,75.926 C449.665,76.0006667 450.045333,76.038 450.456,76.038 Z M450.54,69.808 C450.204,69.808 449.919333,69.689 449.686,69.451 C449.452667,69.213 449.336,68.87 449.336,68.422 C449.336,67.9833333 449.452667,67.6473333 449.686,67.414 C449.919333,67.1806667 450.204,67.064 450.54,67.064 C450.876,67.064 451.158333,67.183 451.387,67.421 C451.615667,67.659 451.73,67.9926667 451.73,68.422 C451.73,68.87 451.613333,69.213 451.38,69.451 C451.146667,69.689 450.866667,69.808 450.54,69.808 Z M450.708,74.988 C450.157333,74.988 449.725667,74.9016667 449.413,74.729 C449.100333,74.5563333 448.944,74.316 448.944,74.008 C448.944,73.672 449.121333,73.3686667 449.476,73.098 C449.728,73.1633333 450.040667,73.196 450.414,73.196 L450.414,73.196 L451.352,73.196 C451.744,73.196 452.045,73.2426667 452.255,73.336 C452.465,73.4293333 452.57,73.6113333 452.57,73.882 C452.57,74.1806667 452.399667,74.4396667 452.059,74.659 C451.718333,74.8783333 451.268,74.988 450.708,74.988 Z M456.756,73.168 C457.166667,73.168 457.547,73.0793333 457.897,72.902 C458.247,72.7246667 458.576,72.5053333 458.884,72.244 L458.884,72.244 L458.94,72.244 L459.052,73 L460.382,73 L460.382,68.926 C460.382,67.9646667 460.169667,67.2296667 459.745,66.721 C459.320333,66.2123333 458.678667,65.958 457.82,65.958 C457.269333,65.958 456.756,66.0466667 456.28,66.224 C455.804,66.4013333 455.374667,66.6113333 454.992,66.854 L454.992,66.854 L455.58,67.932 C455.888,67.7453333 456.203,67.5866667 456.525,67.456 C456.847,67.3253333 457.176,67.26 457.512,67.26 C457.745333,67.26 457.941333,67.295 458.1,67.365 C458.258667,67.435 458.387,67.533 458.485,67.659 C458.583,67.785 458.653,67.9296667 458.695,68.093 C458.737,68.2563333 458.762667,68.4266667 458.772,68.604 C458.062667,68.6786667 457.453667,68.786 456.945,68.926 C456.436333,69.066 456.016333,69.2386667 455.685,69.444 C455.353667,69.6493333 455.111,69.8943333 454.957,70.179 C454.803,70.4636667 454.726,70.788 454.726,71.152 C454.726,71.7586667 454.912667,72.2463333 455.286,72.615 C455.659333,72.9836667 456.149333,73.168 456.756,73.168 Z M457.274,71.908 C456.984667,71.908 456.746667,71.838 456.56,71.698 C456.373333,71.558 456.28,71.334 456.28,71.026 C456.28,70.858 456.322,70.6993333 456.406,70.55 C456.49,70.4006667 456.63,70.2676667 456.826,70.151 C457.022,70.0343333 457.278667,69.9293333 457.596,69.836 C457.913333,69.7426667 458.305333,69.668 458.772,69.612 L458.772,69.612 L458.772,71.152 C458.510667,71.3946667 458.265667,71.5813333 458.037,71.712 C457.808333,71.8426667 457.554,71.908 457.274,71.908 Z M464.512,73.168 C464.782667,73.168 465.037,73.1423333 465.275,73.091 C465.513,73.0396667 465.725333,72.9813333 465.912,72.916 L465.912,72.916 L465.632,71.726 C465.529333,71.7726667 465.415,71.81 465.289,71.838 C465.163,71.866 465.039333,71.88 464.918,71.88 C464.274,71.88 463.952,71.4786667 463.952,70.676 L463.952,70.676 L463.952,67.4 L465.702,67.4 L465.702,66.126 L463.952,66.126 L463.952,64.25 L462.608,64.25 L462.412,66.126 L461.348,66.196 L461.348,67.4 L462.328,67.4 L462.328,70.676 C462.328,71.0493333 462.367667,71.3876667 462.447,71.691 C462.526333,71.9943333 462.652333,72.2556667 462.825,72.475 C462.997667,72.6943333 463.221667,72.8646667 463.497,72.986 C463.772333,73.1073333 464.110667,73.168 464.512,73.168 Z M469.86,73.168 C470.298667,73.168 470.718667,73.098 471.12,72.958 C471.521333,72.818 471.885333,72.6406667 472.212,72.426 L472.212,72.426 L471.666,71.418 C471.414,71.5766667 471.159667,71.7003333 470.903,71.789 C470.646333,71.8776667 470.368667,71.922 470.07,71.922 C469.51,71.922 469.050333,71.7563333 468.691,71.425 C468.331667,71.0936667 468.114667,70.62 468.04,70.004 L468.04,70.004 L472.408,70.004 C472.426667,69.92 472.443,69.808 472.457,69.668 C472.471,69.528 472.478,69.3786667 472.478,69.22 C472.478,68.744 472.417333,68.3053333 472.296,67.904 C472.174667,67.5026667 471.995,67.1573333 471.757,66.868 C471.519,66.5786667 471.222667,66.3546667 470.868,66.196 C470.513333,66.0373333 470.102667,65.958 469.636,65.958 C469.234667,65.958 468.842667,66.042 468.46,66.21 C468.077333,66.378 467.739,66.616 467.445,66.924 C467.151,67.232 466.915333,67.61 466.738,68.058 C466.560667,68.506 466.472,69.01 466.472,69.57 C466.472,70.1393333 466.558333,70.6456667 466.731,71.089 C466.903667,71.5323333 467.144,71.908 467.452,72.216 C467.76,72.524 468.119333,72.7596667 468.53,72.923 C468.940667,73.0863333 469.384,73.168 469.86,73.168 Z M471.078,68.912 L468.026,68.912 C468.100667,68.352 468.292,67.9273333 468.6,67.638 C468.908,67.3486667 469.267333,67.204 469.678,67.204 C470.154,67.204 470.506333,67.3556667 470.735,67.659 C470.963667,67.9623333 471.078,68.38 471.078,68.912 L471.078,68.912 Z M476.426,73.168 C476.799333,73.168 477.154,73.0793333 477.49,72.902 C477.826,72.7246667 478.12,72.51 478.372,72.258 L478.372,72.258 L478.428,72.258 L478.54,73 L479.87,73 L479.87,63.116 L478.26,63.116 L478.26,65.608 L478.316,66.714 C478.045333,66.4806667 477.774667,66.2963333 477.504,66.161 C477.233333,66.0256667 476.902,65.958 476.51,65.958 C476.136667,65.958 475.775,66.042 475.425,66.21 C475.075,66.378 474.764667,66.616 474.494,66.924 C474.223333,67.232 474.006333,67.61 473.843,68.058 C473.679667,68.506 473.598,69.01 473.598,69.57 C473.598,70.7086667 473.852333,71.593 474.361,72.223 C474.869667,72.853 475.558,73.168 476.426,73.168 Z M476.818,71.838 C476.314,71.838 475.929,71.6443333 475.663,71.257 C475.397,70.8696667 475.264,70.3026667 475.264,69.556 C475.264,68.828 475.418,68.268 475.726,67.876 C476.034,67.484 476.412,67.288 476.86,67.288 C477.093333,67.288 477.324333,67.33 477.553,67.414 C477.781667,67.498 478.017333,67.6473333 478.26,67.862 L478.26,67.862 L478.26,71.068 C477.812,71.5813333 477.331333,71.838 476.818,71.838 Z M410.948,92.54 L410.948,91.126 C411.62,91.0326667 412.149667,90.7713333 412.537,90.342 C412.924333,89.9126667 413.118,89.362 413.118,88.69 C413.118,88.186 413.022333,87.773 412.831,87.451 C412.639667,87.129 412.399333,86.8583333 412.11,86.639 C411.820667,86.4196667 411.505667,86.233 411.165,86.079 C410.824333,85.925 410.509333,85.7663333 410.22,85.603 C409.930667,85.4396667 409.690333,85.2506667 409.499,85.036 C409.307667,84.8213333 409.212,84.546 409.212,84.21 C409.212,83.7993333 409.338,83.4726667 409.59,83.23 C409.842,82.9873333 410.182667,82.866 410.612,82.866 C410.994667,82.866 411.309667,82.936 411.557,83.076 C411.804333,83.216 412.058667,83.412 412.32,83.664 L412.32,83.664 L412.936,82.978 C412.684,82.7073333 412.401667,82.474 412.089,82.278 C411.776333,82.082 411.396,81.9606667 410.948,81.914 L410.948,81.914 L410.948,80.528 L410.108,80.528 L410.108,81.942 C409.492,82.0353333 408.999667,82.2896667 408.631,82.705 C408.262333,83.1203333 408.078,83.6406667 408.078,84.266 C408.078,84.7233333 408.173667,85.099 408.365,85.393 C408.556333,85.687 408.796667,85.9366667 409.086,86.142 C409.375333,86.3473333 409.690333,86.5293333 410.031,86.688 C410.371667,86.8466667 410.686667,87.017 410.976,87.199 C411.265333,87.381 411.505667,87.5956667 411.697,87.843 C411.888333,88.0903333 411.984,88.4006667 411.984,88.774 C411.984,89.2126667 411.855667,89.5626667 411.599,89.824 C411.342333,90.0853333 410.952667,90.216 410.43,90.216 C410.000667,90.216 409.606333,90.125 409.247,89.943 C408.887667,89.761 408.558667,89.5393333 408.26,89.278 L408.26,89.278 L407.728,90.076 C408.026667,90.3466667 408.386,90.5823333 408.806,90.783 C409.226,90.9836667 409.66,91.1073333 410.108,91.154 L410.108,91.154 L410.108,92.54 L410.948,92.54 Z M417.458,91.168 C417.887333,91.168 418.279333,91.1073333 418.634,90.986 C418.988667,90.8646667 419.292,90.6966667 419.544,90.482 C419.796,90.2673333 419.992,90.0153333 420.132,89.726 C420.272,89.4366667 420.342,89.124 420.342,88.788 C420.342,88.4893333 420.297667,88.2233333 420.209,87.99 C420.120333,87.7566667 420.003667,87.549 419.859,87.367 C419.714333,87.185 419.548667,87.0216667 419.362,86.877 C419.175333,86.7323333 418.984,86.604 418.788,86.492 L418.788,86.492 L418.788,86.436 C418.928,86.3333333 419.070333,86.2073333 419.215,86.058 C419.359667,85.9086667 419.490333,85.7406667 419.607,85.554 C419.723667,85.3673333 419.821667,85.1666667 419.901,84.952 C419.980333,84.7373333 420.02,84.5133333 420.02,84.28 C420.02,83.9346667 419.961667,83.615 419.845,83.321 C419.728333,83.027 419.560333,82.775 419.341,82.565 C419.121667,82.355 418.858,82.1916667 418.55,82.075 C418.242,81.9583333 417.892,81.9 417.5,81.9 C417.136,81.9 416.8,81.956 416.492,82.068 C416.184,82.18 415.918,82.3363333 415.694,82.537 C415.47,82.7376667 415.292667,82.978 415.162,83.258 C415.031333,83.538 414.966,83.8506667 414.966,84.196 C414.966,84.672 415.092,85.0756667 415.344,85.407 C415.596,85.7383333 415.885333,86.0206667 416.212,86.254 L416.212,86.254 L416.212,86.31 C415.997333,86.422 415.789667,86.555 415.589,86.709 C415.388333,86.863 415.211,87.0403333 415.057,87.241 C414.903,87.4416667 414.777,87.6656667 414.679,87.913 C414.581,88.1603333 414.532,88.4286667 414.532,88.718 C414.532,89.0726667 414.606667,89.3993333 414.756,89.698 C414.905333,89.9966667 415.108333,90.2556667 415.365,90.475 C415.621667,90.6943333 415.929667,90.8646667 416.289,90.986 C416.648333,91.1073333 417.038,91.168 417.458,91.168 Z M418.088,86.128 C417.817333,86.0253333 417.558333,85.9156667 417.311,85.799 C417.063667,85.6823333 416.844333,85.5493333 416.653,85.4 C416.461667,85.2506667 416.31,85.0803333 416.198,84.889 C416.086,84.6976667 416.03,84.4666667 416.03,84.196 C416.03,83.7573333 416.165333,83.4073333 416.436,83.146 C416.706667,82.8846667 417.052,82.754 417.472,82.754 C417.966667,82.754 418.349333,82.9056667 418.62,83.209 C418.890667,83.5123333 419.026,83.888 419.026,84.336 C419.026,84.6626667 418.944333,84.9753333 418.781,85.274 C418.617667,85.5726667 418.386667,85.8573333 418.088,86.128 Z M417.486,90.314 C417.215333,90.314 416.963333,90.272 416.73,90.188 C416.496667,90.104 416.293667,89.985 416.121,89.831 C415.948333,89.677 415.813,89.4973333 415.715,89.292 C415.617,89.0866667 415.568,88.858 415.568,88.606 C415.568,88.1953333 415.687,87.829 415.925,87.507 C416.163,87.185 416.459333,86.9026667 416.814,86.66 C417.131333,86.7906667 417.437,86.919 417.731,87.045 C418.025,87.171 418.284,87.311 418.508,87.465 C418.732,87.619 418.909333,87.7986667 419.04,88.004 C419.170667,88.2093333 419.236,88.4566667 419.236,88.746 C419.236,89.2126667 419.075,89.5906667 418.753,89.88 C418.431,90.1693333 418.008667,90.314 417.486,90.314 Z M424.22,91.168 C424.630667,91.168 425.013333,91.1096667 425.368,90.993 C425.722667,90.8763333 426.033,90.7083333 426.299,90.489 C426.565,90.2696667 426.775,90.0013333 426.929,89.684 C427.083,89.3666667 427.16,89.012 427.16,88.62 C427.16,88.312 427.111,88.032 427.013,87.78 C426.915,87.528 426.777333,87.3063333 426.6,87.115 C426.422667,86.9236667 426.217333,86.765 425.984,86.639 C425.750667,86.513 425.498667,86.4173333 425.228,86.352 L425.228,86.352 L425.228,86.296 C425.713333,86.1093333 426.105333,85.8433333 426.404,85.498 C426.702667,85.1526667 426.852,84.7093333 426.852,84.168 C426.852,83.804 426.786667,83.482 426.656,83.202 C426.525333,82.922 426.341,82.6863333 426.103,82.495 C425.865,82.3036667 425.582667,82.1566667 425.256,82.054 C424.929333,81.9513333 424.57,81.9 424.178,81.9 C423.646,81.9 423.172333,82.005 422.757,82.215 C422.341667,82.425 421.961333,82.6933333 421.616,83.02 L421.616,83.02 L422.232,83.748 C422.502667,83.4773333 422.794333,83.258 423.107,83.09 C423.419667,82.922 423.762667,82.838 424.136,82.838 C424.612,82.838 424.987667,82.964 425.263,83.216 C425.538333,83.468 425.676,83.8133333 425.676,84.252 C425.676,84.4853333 425.634,84.7046667 425.55,84.91 C425.466,85.1153333 425.323667,85.2926667 425.123,85.442 C424.922333,85.5913333 424.661,85.708 424.339,85.792 C424.017,85.876 423.618,85.918 423.142,85.918 L423.142,85.918 L423.142,86.8 C423.674,86.8 424.122,86.842 424.486,86.926 C424.85,87.01 425.144,87.1313333 425.368,87.29 C425.592,87.4486667 425.753,87.6376667 425.851,87.857 C425.949,88.0763333 425.998,88.3166667 425.998,88.578 C425.998,89.082 425.825333,89.481 425.48,89.775 C425.134667,90.069 424.691333,90.216 424.15,90.216 C423.618,90.216 423.172333,90.1086667 422.813,89.894 C422.453667,89.6793333 422.138667,89.432 421.868,89.152 L421.868,89.152 L421.28,89.908 C421.429333,90.076 421.599667,90.2346667 421.791,90.384 C421.982333,90.5333333 422.199333,90.6663333 422.442,90.783 C422.684667,90.8996667 422.953,90.993 423.247,91.063 C423.541,91.133 423.865333,91.168 424.22,91.168 Z M431.15,91.168 C431.542,91.168 431.917667,91.1003333 432.277,90.965 C432.636333,90.8296667 432.956,90.6336667 433.236,90.377 C433.516,90.1203333 433.74,89.8053333 433.908,89.432 C434.076,89.0586667 434.16,88.6293333 434.16,88.144 C434.16,87.6586667 434.087667,87.241 433.943,86.891 C433.798333,86.541 433.6,86.2516667 433.348,86.023 C433.096,85.7943333 432.802,85.624 432.466,85.512 C432.13,85.4 431.770667,85.344 431.388,85.344 C431.117333,85.344 430.874667,85.3766667 430.66,85.442 C430.445333,85.5073333 430.230667,85.596 430.016,85.708 L430.016,85.708 L430.254,83.062 L433.712,83.062 L433.712,82.068 L429.246,82.068 L428.952,86.366 L429.568,86.758 C429.838667,86.5806667 430.083667,86.4453333 430.303,86.352 C430.522333,86.2586667 430.786,86.212 431.094,86.212 C431.672667,86.212 432.134667,86.3846667 432.48,86.73 C432.825333,87.0753333 432.998,87.556 432.998,88.172 C432.998,88.48 432.946667,88.76 432.844,89.012 C432.741333,89.264 432.601333,89.4786667 432.424,89.656 C432.246667,89.8333333 432.039,89.971 431.801,90.069 C431.563,90.167 431.308667,90.216 431.038,90.216 C430.515333,90.216 430.074333,90.1133333 429.715,89.908 C429.355667,89.7026667 429.045333,89.4646667 428.784,89.194 L428.784,89.194 L428.224,89.95 C428.373333,90.1086667 428.543667,90.2603333 428.735,90.405 C428.926333,90.5496667 429.141,90.678 429.379,90.79 C429.617,90.902 429.883,90.993 430.177,91.063 C430.471,91.133 430.795333,91.168 431.15,91.168 Z M439.018,91 C439.531333,91 440.002667,90.944 440.432,90.832 C440.861333,90.72 441.23,90.552 441.538,90.328 C441.846,90.104 442.084,89.824 442.252,89.488 C442.42,89.152 442.504,88.76 442.504,88.312 C442.504,87.6773333 442.331333,87.178 441.986,86.814 C441.640667,86.45 441.188,86.2166667 440.628,86.114 L440.628,86.114 L440.628,86.058 C441.066667,85.918 441.400333,85.6636667 441.629,85.295 C441.857667,84.9263333 441.972,84.5133333 441.972,84.056 C441.972,83.6546667 441.895,83.3116667 441.741,83.027 C441.587,82.7423333 441.372333,82.5113333 441.097,82.334 C440.821667,82.1566667 440.490333,82.026 440.103,81.942 C439.715667,81.858 439.288667,81.816 438.822,81.816 L438.822,81.816 L436.092,81.816 L436.092,91 L439.018,91 Z M438.612,85.722 L437.254,85.722 L437.254,82.74 L438.668,82.74 C439.386667,82.74 439.925667,82.852 440.285,83.076 C440.644333,83.3 440.824,83.678 440.824,84.21 C440.824,84.6766667 440.651333,85.0453333 440.306,85.316 C439.960667,85.5866667 439.396,85.722 438.612,85.722 L438.612,85.722 Z M438.85,90.076 L437.254,90.076 L437.254,86.618 L438.85,86.618 C439.662,86.618 440.282667,86.751 440.712,87.017 C441.141333,87.283 441.356,87.7006667 441.356,88.27 C441.356,88.886 441.136667,89.341 440.698,89.635 C440.259333,89.929 439.643333,90.076 438.85,90.076 L438.85,90.076 Z" id="Unobligated$835B" fill="#666666" fill-rule="nonzero"></path>
                <line x1="470.5" y1="40" x2="470.5" y2="55" id="Line-Copy-2" stroke="#C6C6C6"></line>
                <line x1="10.5" y1="40" x2="10.5" y2="55" id="Line" stroke="#C6C6C6"></line>
                <line x1="272.5" y1="40" x2="272.5" y2="55" id="Line-Copy-4" stroke="#C6C6C6"></line>
                <rect id="unobligated" fill="#F3E9FF" x="287" y="0" width="194" height="40"></rect>
                <rect id="obligated" fill="#6F41A7" x="258" y="0" width="29" height="40"></rect>
                <rect id="outlays" fill="#331E4D" x="0" y="0" width="258" height="40"></rect>
                <path d="M495.992,27.76 L495.992,26.096 C496.824,25.9146667 497.448,25.5493333 497.864,25 C498.28,24.4506667 498.488,23.792 498.488,23.024 C498.488,22.512 498.384,22.0826667 498.176,21.736 C497.968,21.3893333 497.706667,21.0933333 497.392,20.848 C497.077333,20.6026667 496.738667,20.3946667 496.376,20.224 C496.013333,20.0533333 495.674667,19.888 495.36,19.728 C495.045333,19.568 494.784,19.4 494.576,19.224 C494.368,19.048 494.264,18.832 494.264,18.576 C494.264,18.2133333 494.365333,17.952 494.568,17.792 C494.770667,17.632 495.064,17.552 495.448,17.552 C495.789333,17.552 496.093333,17.6186667 496.36,17.752 C496.626667,17.8853333 496.904,18.0853333 497.192,18.352 L497.192,18.352 L498.376,17.008 C498.066667,16.6773333 497.72,16.3946667 497.336,16.16 C496.952,15.9253333 496.504,15.7706667 495.992,15.696 L495.992,15.696 L495.992,14.08 L494.44,14.08 L494.44,15.728 C493.682667,15.8773333 493.088,16.2106667 492.656,16.728 C492.224,17.2453333 492.008,17.8986667 492.008,18.688 C492.008,19.168 492.112,19.5733333 492.32,19.904 C492.528,20.2346667 492.789333,20.5226667 493.104,20.768 C493.418667,21.0133333 493.757333,21.224 494.12,21.4 C494.482667,21.576 494.821333,21.752 495.136,21.928 C495.450667,22.104 495.712,22.288 495.92,22.48 C496.128,22.672 496.232,22.9066667 496.232,23.184 C496.232,23.5573333 496.128,23.8346667 495.92,24.016 C495.712,24.1973333 495.384,24.288 494.936,24.288 C494.552,24.288 494.176,24.2106667 493.808,24.056 C493.44,23.9013333 493.053333,23.6693333 492.648,23.36 L492.648,23.36 L491.624,24.944 C491.997333,25.2853333 492.442667,25.56 492.96,25.768 C493.477333,25.976 493.970667,26.1066667 494.44,26.16 L494.44,26.16 L494.44,27.76 L495.992,27.76 Z M507.192,26 L507.192,24.016 L505.144,24.016 C504.898667,24.016 504.618667,24.0293333 504.304,24.056 C503.989333,24.0826667 503.704,24.112 503.448,24.144 C503.864,23.7173333 504.266667,23.2826667 504.656,22.84 C505.045333,22.3973333 505.392,21.9546667 505.696,21.512 C506,21.0693333 506.242667,20.6266667 506.424,20.184 C506.605333,19.7413333 506.696,19.3066667 506.696,18.88 C506.696,18.3893333 506.616,17.9466667 506.456,17.552 C506.296,17.1573333 506.066667,16.8186667 505.768,16.536 C505.469333,16.2533333 505.114667,16.0346667 504.704,15.88 C504.293333,15.7253333 503.837333,15.648 503.336,15.648 C502.610667,15.648 501.986667,15.784 501.464,16.056 C500.941333,16.328 500.429333,16.7306667 499.928,17.264 L499.928,17.264 L501.208,18.528 C501.464,18.2506667 501.736,18.008 502.024,17.8 C502.312,17.592 502.642667,17.488 503.016,17.488 C503.464,17.488 503.816,17.6186667 504.072,17.88 C504.328,18.1413333 504.456,18.5226667 504.456,19.024 C504.456,19.3866667 504.346667,19.768 504.128,20.168 C503.909333,20.568 503.605333,21 503.216,21.464 C502.826667,21.928 502.362667,22.424 501.824,22.952 C501.285333,23.48 500.690667,24.048 500.04,24.656 L500.04,24.656 L500.04,26 L507.192,26 Z M510.296,26.192 C510.701333,26.192 511.04,26.0506667 511.312,25.768 C511.584,25.4853333 511.72,25.136 511.72,24.72 C511.72,24.2933333 511.584,23.9386667 511.312,23.656 C511.04,23.3733333 510.701333,23.232 510.296,23.232 C509.890667,23.232 509.552,23.3733333 509.28,23.656 C509.008,23.9386667 508.872,24.2933333 508.872,24.72 C508.872,25.136 509.008,25.4853333 509.28,25.768 C509.552,26.0506667 509.890667,26.192 510.296,26.192 Z M516.92,26.192 C517.464,26.192 517.96,26.0773333 518.408,25.848 C518.856,25.6186667 519.237333,25.28 519.552,24.832 C519.866667,24.384 520.112,23.8293333 520.288,23.168 C520.464,22.5066667 520.552,21.744 520.552,20.88 C520.552,20.016 520.464,19.2586667 520.288,18.608 C520.112,17.9573333 519.866667,17.4106667 519.552,16.968 C519.237333,16.5253333 518.856,16.1946667 518.408,15.976 C517.96,15.7573333 517.464,15.648 516.92,15.648 C516.376,15.648 515.88,15.7573333 515.432,15.976 C514.984,16.1946667 514.602667,16.5253333 514.288,16.968 C513.973333,17.4106667 513.728,17.9573333 513.552,18.608 C513.376,19.2586667 513.288,20.016 513.288,20.88 C513.288,21.744 513.376,22.5066667 513.552,23.168 C513.728,23.8293333 513.973333,24.384 514.288,24.832 C514.602667,25.28 514.984,25.6186667 515.432,25.848 C515.88,26.0773333 516.376,26.192 516.92,26.192 Z M516.92,24.368 C516.728,24.368 516.546667,24.3173333 516.376,24.216 C516.205333,24.1146667 516.056,23.9306667 515.928,23.664 C515.8,23.3973333 515.698667,23.04 515.624,22.592 C515.549333,22.144 515.512,21.5733333 515.512,20.88 C515.512,20.1866667 515.549333,19.6186667 515.624,19.176 C515.698667,18.7333333 515.8,18.3866667 515.928,18.136 C516.056,17.8853333 516.205333,17.712 516.376,17.616 C516.546667,17.52 516.728,17.472 516.92,17.472 C517.122667,17.472 517.309333,17.52 517.48,17.616 C517.650667,17.712 517.8,17.8853333 517.928,18.136 C518.056,18.3866667 518.154667,18.7333333 518.224,19.176 C518.293333,19.6186667 518.328,20.1866667 518.328,20.88 C518.328,21.5733333 518.293333,22.144 518.224,22.592 C518.154667,23.04 518.056,23.3973333 517.928,23.664 C517.8,23.9306667 517.650667,24.1146667 517.48,24.216 C517.309333,24.3173333 517.122667,24.368 516.92,24.368 Z M526.056,26 C526.098667,25.008 526.162667,24.1306667 526.248,23.368 C526.333333,22.6053333 526.474667,21.8906667 526.672,21.224 C526.869333,20.5573333 527.146667,19.912 527.504,19.288 C527.861333,18.664 528.333333,17.9946667 528.92,17.28 L528.92,17.28 L528.92,15.84 L521.848,15.84 L521.848,17.824 L526.408,17.824 C525.928,18.4853333 525.525333,19.1253333 525.2,19.744 C524.874667,20.3626667 524.608,20.9946667 524.4,21.64 C524.192,22.2853333 524.032,22.9626667 523.92,23.672 C523.808,24.3813333 523.730667,25.1573333 523.688,26 L523.688,26 L526.056,26 Z M535.224,26 L535.224,17.552 L538.088,17.552 L538.088,15.568 L529.992,15.568 L529.992,17.552 L532.856,17.552 L532.856,26 L535.224,26 Z" id="$2.07T" fill="#555555" fill-rule="nonzero"></path>
            </g>
        </g>
    </g>
</svg>