<?xml version="1.0" encoding="UTF-8"?>
<svg width="319px" height="96px" viewBox="0 0 319 96" version="1.1" xmlns="http://www.w3.org/2000/svg">
    <title>07. tablet - phase 3.5 total</title>
    <g id="SVG" stroke="none" stroke-width="1" fill="none" fill-rule="evenodd">
        <g id="Viz-3---Tablet-Outline" transform="translate(-70.000000, -1440.000000)">
            <g id="07.-tablet---phase-3.5-total" transform="translate(70.000000, 1440.000000)">
                <path d="M8.718,74.168 C9.31533333,74.168 9.86133333,74.0583333 10.356,73.839 C10.8506667,73.6196667 11.2776667,73.3023333 11.637,72.887 C11.9963333,72.4716667 12.274,71.97 12.47,71.382 C12.666,70.794 12.764,70.1266667 12.764,69.38 C12.764,68.6426667 12.666,67.9823333 12.47,67.399 C12.274,66.8156667 11.9963333,66.3233333 11.637,65.922 C11.2776667,65.5206667 10.8506667,65.2126667 10.356,64.998 C9.86133333,64.7833333 9.31533333,64.676 8.718,64.676 C8.12066667,64.676 7.57466667,64.7833333 7.08,64.998 C6.58533333,65.2126667 6.16066667,65.5206667 5.806,65.922 C5.45133333,66.3233333 5.176,66.8156667 4.98,67.399 C4.784,67.9823333 4.686,68.6426667 4.686,69.38 C4.686,70.1266667 4.784,70.794 4.98,71.382 C5.176,71.97 5.45133333,72.4716667 5.806,72.887 C6.16066667,73.3023333 6.58533333,73.6196667 7.08,73.839 C7.57466667,74.0583333 8.12066667,74.168 8.718,74.168 Z M8.718,72.754 C8.354,72.754 8.02733333,72.6746667 7.738,72.516 C7.44866667,72.3573333 7.20133333,72.131 6.996,71.837 C6.79066667,71.543 6.632,71.1883333 6.52,70.773 C6.408,70.3576667 6.352,69.8933333 6.352,69.38 C6.352,68.3533333 6.56433333,67.5483333 6.989,66.965 C7.41366667,66.3816667 7.99,66.09 8.718,66.09 C9.446,66.09 10.0223333,66.3816667 10.447,66.965 C10.8716667,67.5483333 11.084,68.3533333 11.084,69.38 C11.084,69.8933333 11.028,70.3576667 10.916,70.773 C10.804,71.1883333 10.6453333,71.543 10.44,71.837 C10.2346667,72.131 9.98733333,72.3573333 9.698,72.516 C9.40866667,72.6746667 9.082,72.754 8.718,72.754 Z M16.502,74.168 C16.978,74.168 17.391,74.0606667 17.741,73.846 C18.091,73.6313333 18.4153333,73.3466667 18.714,72.992 L18.714,72.992 L18.756,72.992 L18.882,74 L20.198,74 L20.198,67.126 L18.588,67.126 L18.588,71.83 C18.3266667,72.166 18.0816667,72.4086667 17.853,72.558 C17.6243333,72.7073333 17.3606667,72.782 17.062,72.782 C16.6886667,72.782 16.418,72.6653333 16.25,72.432 C16.082,72.1986667 15.998,71.7973333 15.998,71.228 L15.998,71.228 L15.998,67.126 L14.388,67.126 L14.388,71.438 C14.388,72.3153333 14.556,72.9896667 14.892,73.461 C15.228,73.9323333 15.7646667,74.168 16.502,74.168 Z M24.664,74.168 C24.9346667,74.168 25.189,74.1423333 25.427,74.091 C25.665,74.0396667 25.8773333,73.9813333 26.064,73.916 L26.064,73.916 L25.784,72.726 C25.6813333,72.7726667 25.567,72.81 25.441,72.838 C25.315,72.866 25.1913333,72.88 25.07,72.88 C24.426,72.88 24.104,72.4786667 24.104,71.676 L24.104,71.676 L24.104,68.4 L25.854,68.4 L25.854,67.126 L24.104,67.126 L24.104,65.25 L22.76,65.25 L22.564,67.126 L21.5,67.196 L21.5,68.4 L22.48,68.4 L22.48,71.676 C22.48,72.0493333 22.5196667,72.3876667 22.599,72.691 C22.6783333,72.9943333 22.8043333,73.2556667 22.977,73.475 C23.1496667,73.6943333 23.3736667,73.8646667 23.649,73.986 C23.9243333,74.1073333 24.2626667,74.168 24.664,74.168 Z M28.864,74.168 C29.2186667,74.168 29.5033333,74.1213333 29.718,74.028 L29.718,74.028 L29.508,72.824 C29.4426667,72.8426667 29.3936667,72.852 29.361,72.852 L29.361,72.852 L29.256,72.852 C29.172,72.852 29.0926667,72.8123333 29.018,72.733 C28.9433333,72.6536667 28.906,72.516 28.906,72.32 L28.906,72.32 L28.906,64.116 L27.296,64.116 L27.296,72.236 C27.296,72.8333333 27.4126667,73.3046667 27.646,73.65 C27.8793333,73.9953333 28.2853333,74.168 28.864,74.168 Z M32.756,74.168 C33.1666667,74.168 33.547,74.0793333 33.897,73.902 C34.247,73.7246667 34.576,73.5053333 34.884,73.244 L34.884,73.244 L34.94,73.244 L35.052,74 L36.382,74 L36.382,69.926 C36.382,68.9646667 36.1696667,68.2296667 35.745,67.721 C35.3203333,67.2123333 34.6786667,66.958 33.82,66.958 C33.2693333,66.958 32.756,67.0466667 32.28,67.224 C31.804,67.4013333 31.3746667,67.6113333 30.992,67.854 L30.992,67.854 L31.58,68.932 C31.888,68.7453333 32.203,68.5866667 32.525,68.456 C32.847,68.3253333 33.176,68.26 33.512,68.26 C33.7453333,68.26 33.9413333,68.295 34.1,68.365 C34.2586667,68.435 34.387,68.533 34.485,68.659 C34.583,68.785 34.653,68.9296667 34.695,69.093 C34.737,69.2563333 34.7626667,69.4266667 34.772,69.604 C34.0626667,69.6786667 33.4536667,69.786 32.945,69.926 C32.4363333,70.066 32.0163333,70.2386667 31.685,70.444 C31.3536667,70.6493333 31.111,70.8943333 30.957,71.179 C30.803,71.4636667 30.726,71.788 30.726,72.152 C30.726,72.7586667 30.9126667,73.2463333 31.286,73.615 C31.6593333,73.9836667 32.1493333,74.168 32.756,74.168 Z M33.274,72.908 C32.9846667,72.908 32.7466667,72.838 32.56,72.698 C32.3733333,72.558 32.28,72.334 32.28,72.026 C32.28,71.858 32.322,71.6993333 32.406,71.55 C32.49,71.4006667 32.63,71.2676667 32.826,71.151 C33.022,71.0343333 33.2786667,70.9293333 33.596,70.836 C33.9133333,70.7426667 34.3053333,70.668 34.772,70.612 L34.772,70.612 L34.772,72.152 C34.5106667,72.3946667 34.2656667,72.5813333 34.037,72.712 C33.8083333,72.8426667 33.554,72.908 33.274,72.908 Z M38.776,76.828 C39.1493333,76.828 39.4783333,76.7696667 39.763,76.653 C40.0476667,76.5363333 40.2996667,76.3683333 40.519,76.149 C40.7383333,75.9296667 40.932,75.666 41.1,75.358 C41.268,75.05 41.422,74.7 41.562,74.308 L41.562,74.308 L44.054,67.126 L42.5,67.126 L41.464,70.5 C41.38,70.808 41.2936667,71.1276667 41.205,71.459 C41.1163333,71.7903333 41.03,72.1146667 40.946,72.432 L40.946,72.432 L40.89,72.432 C40.7873333,72.1053333 40.687,71.7763333 40.589,71.445 C40.491,71.1136667 40.3906667,70.7986667 40.288,70.5 L40.288,70.5 L39.098,67.126 L37.46,67.126 L40.162,73.916 L40.036,74.35 C39.924,74.6953333 39.7583333,74.9776667 39.539,75.197 C39.3196667,75.4163333 39.028,75.526 38.664,75.526 C38.58,75.526 38.4936667,75.5143333 38.405,75.491 C38.3163333,75.4676667 38.2393333,75.4466667 38.174,75.428 L38.174,75.428 L37.88,76.688 C38.0106667,76.7346667 38.146,76.7696667 38.286,76.793 C38.426,76.8163333 38.5893333,76.828 38.776,76.828 Z M47.162,74.168 C47.5913333,74.168 47.974,74.112 48.31,74 C48.646,73.888 48.926,73.7363333 49.15,73.545 C49.374,73.3536667 49.5443333,73.1296667 49.661,72.873 C49.7776667,72.6163333 49.836,72.3386667 49.836,72.04 C49.836,71.7226667 49.7776667,71.4496667 49.661,71.221 C49.5443333,70.9923333 49.3903333,70.7986667 49.199,70.64 C49.0076667,70.4813333 48.7953333,70.3483333 48.562,70.241 C48.3286667,70.1336667 48.0953333,70.038 47.862,69.954 C47.6753333,69.8886667 47.4956667,69.8233333 47.323,69.758 C47.1503333,69.6926667 46.9986667,69.6226667 46.868,69.548 C46.7373333,69.4733333 46.6323333,69.387 46.553,69.289 C46.4736667,69.191 46.434,69.072 46.434,68.932 C46.434,68.7173333 46.5156667,68.5376667 46.679,68.393 C46.8423333,68.2483333 47.0966667,68.176 47.442,68.176 C47.7126667,68.176 47.9716667,68.2296667 48.219,68.337 C48.4663333,68.4443333 48.7113333,68.5866667 48.954,68.764 L48.954,68.764 L49.696,67.784 C49.416,67.5693333 49.0846667,67.378 48.702,67.21 C48.3193333,67.042 47.89,66.958 47.414,66.958 C46.6393333,66.958 46.028,67.1493333 45.58,67.532 C45.132,67.9146667 44.908,68.4093333 44.908,69.016 C44.908,69.3053333 44.9663333,69.555 45.083,69.765 C45.1996667,69.975 45.349,70.1593333 45.531,70.318 C45.713,70.4766667 45.9206667,70.612 46.154,70.724 C46.3873333,70.836 46.616,70.934 46.84,71.018 C47.0173333,71.0926667 47.1946667,71.165 47.372,71.235 C47.5493333,71.305 47.708,71.382 47.848,71.466 C47.988,71.55 48.1,71.6456667 48.184,71.753 C48.268,71.8603333 48.31,71.984 48.31,72.124 C48.31,72.3666667 48.2213333,72.565 48.044,72.719 C47.8666667,72.873 47.5913333,72.95 47.218,72.95 C46.8633333,72.95 46.5343333,72.8823333 46.231,72.747 C45.9276667,72.6116667 45.622,72.4226667 45.314,72.18 L45.314,72.18 L44.558,73.216 C44.894,73.4866667 45.293,73.713 45.755,73.895 C46.217,74.077 46.686,74.168 47.162,74.168 Z M7.948,93.54 L7.948,92.126 C8.62,92.0326667 9.14966667,91.7713333 9.537,91.342 C9.92433333,90.9126667 10.118,90.362 10.118,89.69 C10.118,89.186 10.0223333,88.773 9.831,88.451 C9.63966667,88.129 9.39933333,87.8583333 9.11,87.639 C8.82066667,87.4196667 8.50566667,87.233 8.165,87.079 C7.82433333,86.925 7.50933333,86.7663333 7.22,86.603 C6.93066667,86.4396667 6.69033333,86.2506667 6.499,86.036 C6.30766667,85.8213333 6.212,85.546 6.212,85.21 C6.212,84.7993333 6.338,84.4726667 6.59,84.23 C6.842,83.9873333 7.18266667,83.866 7.612,83.866 C7.99466667,83.866 8.30966667,83.936 8.557,84.076 C8.80433333,84.216 9.05866667,84.412 9.32,84.664 L9.32,84.664 L9.936,83.978 C9.684,83.7073333 9.40166667,83.474 9.089,83.278 C8.77633333,83.082 8.396,82.9606667 7.948,82.914 L7.948,82.914 L7.948,81.528 L7.108,81.528 L7.108,82.942 C6.492,83.0353333 5.99966667,83.2896667 5.631,83.705 C5.26233333,84.1203333 5.078,84.6406667 5.078,85.266 C5.078,85.7233333 5.17366667,86.099 5.365,86.393 C5.55633333,86.687 5.79666667,86.9366667 6.086,87.142 C6.37533333,87.3473333 6.69033333,87.5293333 7.031,87.688 C7.37166667,87.8466667 7.68666667,88.017 7.976,88.199 C8.26533333,88.381 8.50566667,88.5956667 8.697,88.843 C8.88833333,89.0903333 8.984,89.4006667 8.984,89.774 C8.984,90.2126667 8.85566667,90.5626667 8.599,90.824 C8.34233333,91.0853333 7.95266667,91.216 7.43,91.216 C7.00066667,91.216 6.60633333,91.125 6.247,90.943 C5.88766667,90.761 5.55866667,90.5393333 5.26,90.278 L5.26,90.278 L4.728,91.076 C5.02666667,91.3466667 5.386,91.5823333 5.806,91.783 C6.226,91.9836667 6.66,92.1073333 7.108,92.154 L7.108,92.154 L7.108,93.54 L7.948,93.54 Z M14.262,92.168 C14.6726667,92.168 15.0553333,92.1096667 15.41,91.993 C15.7646667,91.8763333 16.075,91.7083333 16.341,91.489 C16.607,91.2696667 16.817,91.0013333 16.971,90.684 C17.125,90.3666667 17.202,90.012 17.202,89.62 C17.202,89.312 17.153,89.032 17.055,88.78 C16.957,88.528 16.8193333,88.3063333 16.642,88.115 C16.4646667,87.9236667 16.2593333,87.765 16.026,87.639 C15.7926667,87.513 15.5406667,87.4173333 15.27,87.352 L15.27,87.352 L15.27,87.296 C15.7553333,87.1093333 16.1473333,86.8433333 16.446,86.498 C16.7446667,86.1526667 16.894,85.7093333 16.894,85.168 C16.894,84.804 16.8286667,84.482 16.698,84.202 C16.5673333,83.922 16.383,83.6863333 16.145,83.495 C15.907,83.3036667 15.6246667,83.1566667 15.298,83.054 C14.9713333,82.9513333 14.612,82.9 14.22,82.9 C13.688,82.9 13.2143333,83.005 12.799,83.215 C12.3836667,83.425 12.0033333,83.6933333 11.658,84.02 L11.658,84.02 L12.274,84.748 C12.5446667,84.4773333 12.8363333,84.258 13.149,84.09 C13.4616667,83.922 13.8046667,83.838 14.178,83.838 C14.654,83.838 15.0296667,83.964 15.305,84.216 C15.5803333,84.468 15.718,84.8133333 15.718,85.252 C15.718,85.4853333 15.676,85.7046667 15.592,85.91 C15.508,86.1153333 15.3656667,86.2926667 15.165,86.442 C14.9643333,86.5913333 14.703,86.708 14.381,86.792 C14.059,86.876 13.66,86.918 13.184,86.918 L13.184,86.918 L13.184,87.8 C13.716,87.8 14.164,87.842 14.528,87.926 C14.892,88.01 15.186,88.1313333 15.41,88.29 C15.634,88.4486667 15.795,88.6376667 15.893,88.857 C15.991,89.0763333 16.04,89.3166667 16.04,89.578 C16.04,90.082 15.8673333,90.481 15.522,90.775 C15.1766667,91.069 14.7333333,91.216 14.192,91.216 C13.66,91.216 13.2143333,91.1086667 12.855,90.894 C12.4956667,90.6793333 12.1806667,90.432 11.91,90.152 L11.91,90.152 L11.322,90.908 C11.4713333,91.076 11.6416667,91.2346667 11.833,91.384 C12.0243333,91.5333333 12.2413333,91.6663333 12.484,91.783 C12.7266667,91.8996667 12.995,91.993 13.289,92.063 C13.583,92.133 13.9073333,92.168 14.262,92.168 Z M21.192,92.168 C21.584,92.168 21.9596667,92.1003333 22.319,91.965 C22.6783333,91.8296667 22.998,91.6336667 23.278,91.377 C23.558,91.1203333 23.782,90.8053333 23.95,90.432 C24.118,90.0586667 24.202,89.6293333 24.202,89.144 C24.202,88.6586667 24.1296667,88.241 23.985,87.891 C23.8403333,87.541 23.642,87.2516667 23.39,87.023 C23.138,86.7943333 22.844,86.624 22.508,86.512 C22.172,86.4 21.8126667,86.344 21.43,86.344 C21.1593333,86.344 20.9166667,86.3766667 20.702,86.442 C20.4873333,86.5073333 20.2726667,86.596 20.058,86.708 L20.058,86.708 L20.296,84.062 L23.754,84.062 L23.754,83.068 L19.288,83.068 L18.994,87.366 L19.61,87.758 C19.8806667,87.5806667 20.1256667,87.4453333 20.345,87.352 C20.5643333,87.2586667 20.828,87.212 21.136,87.212 C21.7146667,87.212 22.1766667,87.3846667 22.522,87.73 C22.8673333,88.0753333 23.04,88.556 23.04,89.172 C23.04,89.48 22.9886667,89.76 22.886,90.012 C22.7833333,90.264 22.6433333,90.4786667 22.466,90.656 C22.2886667,90.8333333 22.081,90.971 21.843,91.069 C21.605,91.167 21.3506667,91.216 21.08,91.216 C20.5573333,91.216 20.1163333,91.1133333 19.757,90.908 C19.3976667,90.7026667 19.0873333,90.4646667 18.826,90.194 L18.826,90.194 L18.266,90.95 C18.4153333,91.1086667 18.5856667,91.2603333 18.777,91.405 C18.9683333,91.5496667 19.183,91.678 19.421,91.79 C19.659,91.902 19.925,91.993 20.219,92.063 C20.513,92.133 20.8373333,92.168 21.192,92.168 Z M28.542,92 C28.5793333,91.132 28.6423333,90.341 28.731,89.627 C28.8196667,88.913 28.962,88.2363333 29.158,87.597 C29.354,86.9576667 29.6176667,86.33 29.949,85.714 C30.2803333,85.098 30.712,84.454 31.244,83.782 L31.244,83.782 L31.244,83.068 L25.49,83.068 L25.49,84.062 L29.942,84.062 C29.5033333,84.678 29.1276667,85.28 28.815,85.868 C28.5023333,86.456 28.2456667,87.065 28.045,87.695 C27.8443333,88.325 27.688,88.99 27.576,89.69 C27.464,90.39 27.3893333,91.16 27.352,92 L27.352,92 L28.542,92 Z M36.018,92 C36.5313333,92 37.0026667,91.944 37.432,91.832 C37.8613333,91.72 38.23,91.552 38.538,91.328 C38.846,91.104 39.084,90.824 39.252,90.488 C39.42,90.152 39.504,89.76 39.504,89.312 C39.504,88.6773333 39.3313333,88.178 38.986,87.814 C38.6406667,87.45 38.188,87.2166667 37.628,87.114 L37.628,87.114 L37.628,87.058 C38.0666667,86.918 38.4003333,86.6636667 38.629,86.295 C38.8576667,85.9263333 38.972,85.5133333 38.972,85.056 C38.972,84.6546667 38.895,84.3116667 38.741,84.027 C38.587,83.7423333 38.3723333,83.5113333 38.097,83.334 C37.8216667,83.1566667 37.4903333,83.026 37.103,82.942 C36.7156667,82.858 36.2886667,82.816 35.822,82.816 L35.822,82.816 L33.092,82.816 L33.092,92 L36.018,92 Z M35.612,86.722 L34.254,86.722 L34.254,83.74 L35.668,83.74 C36.3866667,83.74 36.9256667,83.852 37.285,84.076 C37.6443333,84.3 37.824,84.678 37.824,85.21 C37.824,85.6766667 37.6513333,86.0453333 37.306,86.316 C36.9606667,86.5866667 36.396,86.722 35.612,86.722 L35.612,86.722 Z M35.85,91.076 L34.254,91.076 L34.254,87.618 L35.85,87.618 C36.662,87.618 37.2826667,87.751 37.712,88.017 C38.1413333,88.283 38.356,88.7006667 38.356,89.27 C38.356,89.886 38.1366667,90.341 37.698,90.635 C37.2593333,90.929 36.6433333,91.076 35.85,91.076 L35.85,91.076 Z" id="Outlays$357B" fill="#666666" fill-rule="nonzero"></path>
                <path d="M117.718,74.168 C118.315333,74.168 118.861333,74.0583333 119.356,73.839 C119.850667,73.6196667 120.277667,73.3023333 120.637,72.887 C120.996333,72.4716667 121.274,71.97 121.47,71.382 C121.666,70.794 121.764,70.1266667 121.764,69.38 C121.764,68.6426667 121.666,67.9823333 121.47,67.399 C121.274,66.8156667 120.996333,66.3233333 120.637,65.922 C120.277667,65.5206667 119.850667,65.2126667 119.356,64.998 C118.861333,64.7833333 118.315333,64.676 117.718,64.676 C117.120667,64.676 116.574667,64.7833333 116.08,64.998 C115.585333,65.2126667 115.160667,65.5206667 114.806,65.922 C114.451333,66.3233333 114.176,66.8156667 113.98,67.399 C113.784,67.9823333 113.686,68.6426667 113.686,69.38 C113.686,70.1266667 113.784,70.794 113.98,71.382 C114.176,71.97 114.451333,72.4716667 114.806,72.887 C115.160667,73.3023333 115.585333,73.6196667 116.08,73.839 C116.574667,74.0583333 117.120667,74.168 117.718,74.168 Z M117.718,72.754 C117.354,72.754 117.027333,72.6746667 116.738,72.516 C116.448667,72.3573333 116.201333,72.131 115.996,71.837 C115.790667,71.543 115.632,71.1883333 115.52,70.773 C115.408,70.3576667 115.352,69.8933333 115.352,69.38 C115.352,68.3533333 115.564333,67.5483333 115.989,66.965 C116.413667,66.3816667 116.99,66.09 117.718,66.09 C118.446,66.09 119.022333,66.3816667 119.447,66.965 C119.871667,67.5483333 120.084,68.3533333 120.084,69.38 C120.084,69.8933333 120.028,70.3576667 119.916,70.773 C119.804,71.1883333 119.645333,71.543 119.44,71.837 C119.234667,72.131 118.987333,72.3573333 118.698,72.516 C118.408667,72.6746667 118.082,72.754 117.718,72.754 Z M126.79,74.168 C127.172667,74.168 127.541333,74.084 127.896,73.916 C128.250667,73.748 128.563333,73.5053333 128.834,73.188 C129.104667,72.8706667 129.321667,72.481 129.485,72.019 C129.648333,71.557 129.73,71.032 129.73,70.444 C129.73,69.912 129.669333,69.4313333 129.548,69.002 C129.426667,68.5726667 129.249333,68.2063333 129.016,67.903 C128.782667,67.5996667 128.498,67.3663333 128.162,67.203 C127.826,67.0396667 127.443333,66.958 127.014,66.958 C126.659333,66.958 126.311667,67.0373333 125.971,67.196 C125.630333,67.3546667 125.315333,67.56 125.026,67.812 L125.026,67.812 L125.068,66.664 L125.068,64.116 L123.458,64.116 L123.458,74 L124.732,74 L124.872,73.272 L124.914,73.272 C125.203333,73.5613333 125.509,73.783 125.831,73.937 C126.153,74.091 126.472667,74.168 126.79,74.168 Z M126.454,72.838 C126.248667,72.838 126.027,72.796 125.789,72.712 C125.551,72.628 125.310667,72.4786667 125.068,72.264 L125.068,72.264 L125.068,69.058 C125.590667,68.5446667 126.094667,68.288 126.58,68.288 C127.102667,68.288 127.480667,68.4793333 127.714,68.862 C127.947333,69.2446667 128.064,69.7813333 128.064,70.472 C128.064,71.256 127.91,71.8463333 127.602,72.243 C127.294,72.6396667 126.911333,72.838 126.454,72.838 Z M132.908,74.168 C133.262667,74.168 133.547333,74.1213333 133.762,74.028 L133.762,74.028 L133.552,72.824 C133.486667,72.8426667 133.437667,72.852 133.405,72.852 L133.405,72.852 L133.3,72.852 C133.216,72.852 133.136667,72.8123333 133.062,72.733 C132.987333,72.6536667 132.95,72.516 132.95,72.32 L132.95,72.32 L132.95,64.116 L131.34,64.116 L131.34,72.236 C131.34,72.8333333 131.456667,73.3046667 131.69,73.65 C131.923333,73.9953333 132.329333,74.168 132.908,74.168 Z M135.946,65.922 C136.235333,65.922 136.473333,65.838 136.66,65.67 C136.846667,65.502 136.94,65.2826667 136.94,65.012 C136.94,64.7413333 136.846667,64.5196667 136.66,64.347 C136.473333,64.1743333 136.235333,64.088 135.946,64.088 C135.656667,64.088 135.418667,64.1743333 135.232,64.347 C135.045333,64.5196667 134.952,64.7413333 134.952,65.012 C134.952,65.2826667 135.045333,65.502 135.232,65.67 C135.418667,65.838 135.656667,65.922 135.946,65.922 Z M136.744,74 L136.744,67.126 L135.134,67.126 L135.134,74 L136.744,74 Z M141.196,77.038 C141.756,77.038 142.262333,76.975 142.715,76.849 C143.167667,76.723 143.552667,76.5526667 143.87,76.338 C144.187333,76.1233333 144.432333,75.8666667 144.605,75.568 C144.777667,75.2693333 144.864,74.952 144.864,74.616 C144.864,74.0186667 144.651667,73.587 144.227,73.321 C143.802333,73.055 143.174667,72.922 142.344,72.922 L142.344,72.922 L141.126,72.922 C140.706,72.922 140.414333,72.866 140.251,72.754 C140.087667,72.642 140.006,72.488 140.006,72.292 C140.006,72.1333333 140.036333,72.0073333 140.097,71.914 C140.157667,71.8206667 140.239333,71.7273333 140.342,71.634 C140.500667,71.6993333 140.659333,71.746 140.818,71.774 C140.976667,71.802 141.130667,71.816 141.28,71.816 C141.644,71.816 141.984667,71.7646667 142.302,71.662 C142.619333,71.5593333 142.894667,71.41 143.128,71.214 C143.361333,71.018 143.545667,70.7753333 143.681,70.486 C143.816333,70.1966667 143.884,69.8606667 143.884,69.478 C143.884,69.2353333 143.846667,69.0136667 143.772,68.813 C143.697333,68.6123333 143.604,68.4466667 143.492,68.316 L143.492,68.316 L144.752,68.316 L144.752,67.126 L142.288,67.126 C142.148,67.0793333 141.991667,67.0396667 141.819,67.007 C141.646333,66.9743333 141.466667,66.958 141.28,66.958 C140.916,66.958 140.570667,67.0116667 140.244,67.119 C139.917333,67.2263333 139.630333,67.385 139.383,67.595 C139.135667,67.805 138.937333,68.064 138.788,68.372 C138.638667,68.68 138.564,69.03 138.564,69.422 C138.564,69.8326667 138.655,70.1943333 138.837,70.507 C139.019,70.8196667 139.226667,71.0646667 139.46,71.242 L139.46,71.242 L139.46,71.298 C139.264,71.438 139.089,71.6176667 138.935,71.837 C138.781,72.0563333 138.704,72.3013333 138.704,72.572 C138.704,72.852 138.762333,73.0853333 138.879,73.272 C138.995667,73.4586667 139.142667,73.608 139.32,73.72 L139.32,73.72 L139.32,73.776 C139.002667,73.972 138.76,74.1936667 138.592,74.441 C138.424,74.6883333 138.34,74.9566667 138.34,75.246 C138.34,75.5446667 138.412333,75.806 138.557,76.03 C138.701667,76.254 138.9,76.4406667 139.152,76.59 C139.404,76.7393333 139.705,76.8513333 140.055,76.926 C140.405,77.0006667 140.785333,77.038 141.196,77.038 Z M141.28,70.808 C140.944,70.808 140.659333,70.689 140.426,70.451 C140.192667,70.213 140.076,69.87 140.076,69.422 C140.076,68.9833333 140.192667,68.6473333 140.426,68.414 C140.659333,68.1806667 140.944,68.064 141.28,68.064 C141.616,68.064 141.898333,68.183 142.127,68.421 C142.355667,68.659 142.47,68.9926667 142.47,69.422 C142.47,69.87 142.353333,70.213 142.12,70.451 C141.886667,70.689 141.606667,70.808 141.28,70.808 Z M141.448,75.988 C140.897333,75.988 140.465667,75.9016667 140.153,75.729 C139.840333,75.5563333 139.684,75.316 139.684,75.008 C139.684,74.672 139.861333,74.3686667 140.216,74.098 C140.468,74.1633333 140.780667,74.196 141.154,74.196 L141.154,74.196 L142.092,74.196 C142.484,74.196 142.785,74.2426667 142.995,74.336 C143.205,74.4293333 143.31,74.6113333 143.31,74.882 C143.31,75.1806667 143.139667,75.4396667 142.799,75.659 C142.458333,75.8783333 142.008,75.988 141.448,75.988 Z M147.496,74.168 C147.906667,74.168 148.287,74.0793333 148.637,73.902 C148.987,73.7246667 149.316,73.5053333 149.624,73.244 L149.624,73.244 L149.68,73.244 L149.792,74 L151.122,74 L151.122,69.926 C151.122,68.9646667 150.909667,68.2296667 150.485,67.721 C150.060333,67.2123333 149.418667,66.958 148.56,66.958 C148.009333,66.958 147.496,67.0466667 147.02,67.224 C146.544,67.4013333 146.114667,67.6113333 145.732,67.854 L145.732,67.854 L146.32,68.932 C146.628,68.7453333 146.943,68.5866667 147.265,68.456 C147.587,68.3253333 147.916,68.26 148.252,68.26 C148.485333,68.26 148.681333,68.295 148.84,68.365 C148.998667,68.435 149.127,68.533 149.225,68.659 C149.323,68.785 149.393,68.9296667 149.435,69.093 C149.477,69.2563333 149.502667,69.4266667 149.512,69.604 C148.802667,69.6786667 148.193667,69.786 147.685,69.926 C147.176333,70.066 146.756333,70.2386667 146.425,70.444 C146.093667,70.6493333 145.851,70.8943333 145.697,71.179 C145.543,71.4636667 145.466,71.788 145.466,72.152 C145.466,72.7586667 145.652667,73.2463333 146.026,73.615 C146.399333,73.9836667 146.889333,74.168 147.496,74.168 Z M148.014,72.908 C147.724667,72.908 147.486667,72.838 147.3,72.698 C147.113333,72.558 147.02,72.334 147.02,72.026 C147.02,71.858 147.062,71.6993333 147.146,71.55 C147.23,71.4006667 147.37,71.2676667 147.566,71.151 C147.762,71.0343333 148.018667,70.9293333 148.336,70.836 C148.653333,70.7426667 149.045333,70.668 149.512,70.612 L149.512,70.612 L149.512,72.152 C149.250667,72.3946667 149.005667,72.5813333 148.777,72.712 C148.548333,72.8426667 148.294,72.908 148.014,72.908 Z M155.252,74.168 C155.522667,74.168 155.777,74.1423333 156.015,74.091 C156.253,74.0396667 156.465333,73.9813333 156.652,73.916 L156.652,73.916 L156.372,72.726 C156.269333,72.7726667 156.155,72.81 156.029,72.838 C155.903,72.866 155.779333,72.88 155.658,72.88 C155.014,72.88 154.692,72.4786667 154.692,71.676 L154.692,71.676 L154.692,68.4 L156.442,68.4 L156.442,67.126 L154.692,67.126 L154.692,65.25 L153.348,65.25 L153.152,67.126 L152.088,67.196 L152.088,68.4 L153.068,68.4 L153.068,71.676 C153.068,72.0493333 153.107667,72.3876667 153.187,72.691 C153.266333,72.9943333 153.392333,73.2556667 153.565,73.475 C153.737667,73.6943333 153.961667,73.8646667 154.237,73.986 C154.512333,74.1073333 154.850667,74.168 155.252,74.168 Z M158.696,65.922 C158.985333,65.922 159.223333,65.838 159.41,65.67 C159.596667,65.502 159.69,65.2826667 159.69,65.012 C159.69,64.7413333 159.596667,64.5196667 159.41,64.347 C159.223333,64.1743333 158.985333,64.088 158.696,64.088 C158.406667,64.088 158.168667,64.1743333 157.982,64.347 C157.795333,64.5196667 157.702,64.7413333 157.702,65.012 C157.702,65.2826667 157.795333,65.502 157.982,65.67 C158.168667,65.838 158.406667,65.922 158.696,65.922 Z M159.494,74 L159.494,67.126 L157.884,67.126 L157.884,74 L159.494,74 Z M164.366,74.168 C164.795333,74.168 165.208333,74.0886667 165.605,73.93 C166.001667,73.7713333 166.349333,73.538 166.648,73.23 C166.946667,72.922 167.187,72.544 167.369,72.096 C167.551,71.648 167.642,71.1393333 167.642,70.57 C167.642,70.0006667 167.551,69.492 167.369,69.044 C167.187,68.596 166.946667,68.218 166.648,67.91 C166.349333,67.602 166.001667,67.3663333 165.605,67.203 C165.208333,67.0396667 164.795333,66.958 164.366,66.958 C163.936667,66.958 163.526,67.0396667 163.134,67.203 C162.742,67.3663333 162.394333,67.602 162.091,67.91 C161.787667,68.218 161.547333,68.596 161.37,69.044 C161.192667,69.492 161.104,70.0006667 161.104,70.57 C161.104,71.1393333 161.192667,71.648 161.37,72.096 C161.547333,72.544 161.787667,72.922 162.091,73.23 C162.394333,73.538 162.742,73.7713333 163.134,73.93 C163.526,74.0886667 163.936667,74.168 164.366,74.168 Z M164.366,72.852 C163.862,72.852 163.467667,72.6443333 163.183,72.229 C162.898333,71.8136667 162.756,71.2606667 162.756,70.57 C162.756,69.87 162.898333,69.3123333 163.183,68.897 C163.467667,68.4816667 163.862,68.274 164.366,68.274 C164.87,68.274 165.266667,68.4816667 165.556,68.897 C165.845333,69.3123333 165.99,69.87 165.99,70.57 C165.99,71.2606667 165.845333,71.8136667 165.556,72.229 C165.266667,72.6443333 164.87,72.852 164.366,72.852 Z M170.848,74 L170.848,69.198 C171.137333,68.918 171.396333,68.7056667 171.625,68.561 C171.853667,68.4163333 172.117333,68.344 172.416,68.344 C172.798667,68.344 173.074,68.4606667 173.242,68.694 C173.41,68.9273333 173.494,69.3286667 173.494,69.898 L173.494,69.898 L173.494,74 L175.104,74 L175.104,69.688 C175.104,68.8106667 174.936,68.1363333 174.6,67.665 C174.264,67.1936667 173.727333,66.958 172.99,66.958 C172.514,66.958 172.096333,67.0653333 171.737,67.28 C171.377667,67.4946667 171.044,67.7513333 170.736,68.05 L170.736,68.05 L170.68,68.05 L170.568,67.126 L169.238,67.126 L169.238,74 L170.848,74 Z M178.996,74.168 C179.425333,74.168 179.808,74.112 180.144,74 C180.48,73.888 180.76,73.7363333 180.984,73.545 C181.208,73.3536667 181.378333,73.1296667 181.495,72.873 C181.611667,72.6163333 181.67,72.3386667 181.67,72.04 C181.67,71.7226667 181.611667,71.4496667 181.495,71.221 C181.378333,70.9923333 181.224333,70.7986667 181.033,70.64 C180.841667,70.4813333 180.629333,70.3483333 180.396,70.241 C180.162667,70.1336667 179.929333,70.038 179.696,69.954 C179.509333,69.8886667 179.329667,69.8233333 179.157,69.758 C178.984333,69.6926667 178.832667,69.6226667 178.702,69.548 C178.571333,69.4733333 178.466333,69.387 178.387,69.289 C178.307667,69.191 178.268,69.072 178.268,68.932 C178.268,68.7173333 178.349667,68.5376667 178.513,68.393 C178.676333,68.2483333 178.930667,68.176 179.276,68.176 C179.546667,68.176 179.805667,68.2296667 180.053,68.337 C180.300333,68.4443333 180.545333,68.5866667 180.788,68.764 L180.788,68.764 L181.53,67.784 C181.25,67.5693333 180.918667,67.378 180.536,67.21 C180.153333,67.042 179.724,66.958 179.248,66.958 C178.473333,66.958 177.862,67.1493333 177.414,67.532 C176.966,67.9146667 176.742,68.4093333 176.742,69.016 C176.742,69.3053333 176.800333,69.555 176.917,69.765 C177.033667,69.975 177.183,70.1593333 177.365,70.318 C177.547,70.4766667 177.754667,70.612 177.988,70.724 C178.221333,70.836 178.45,70.934 178.674,71.018 C178.851333,71.0926667 179.028667,71.165 179.206,71.235 C179.383333,71.305 179.542,71.382 179.682,71.466 C179.822,71.55 179.934,71.6456667 180.018,71.753 C180.102,71.8603333 180.144,71.984 180.144,72.124 C180.144,72.3666667 180.055333,72.565 179.878,72.719 C179.700667,72.873 179.425333,72.95 179.052,72.95 C178.697333,72.95 178.368333,72.8823333 178.065,72.747 C177.761667,72.6116667 177.456,72.4226667 177.148,72.18 L177.148,72.18 L176.392,73.216 C176.728,73.4866667 177.127,73.713 177.589,73.895 C178.051,74.077 178.52,74.168 178.996,74.168 Z M116.948,93.54 L116.948,92.126 C117.62,92.0326667 118.149667,91.7713333 118.537,91.342 C118.924333,90.9126667 119.118,90.362 119.118,89.69 C119.118,89.186 119.022333,88.773 118.831,88.451 C118.639667,88.129 118.399333,87.8583333 118.11,87.639 C117.820667,87.4196667 117.505667,87.233 117.165,87.079 C116.824333,86.925 116.509333,86.7663333 116.22,86.603 C115.930667,86.4396667 115.690333,86.2506667 115.499,86.036 C115.307667,85.8213333 115.212,85.546 115.212,85.21 C115.212,84.7993333 115.338,84.4726667 115.59,84.23 C115.842,83.9873333 116.182667,83.866 116.612,83.866 C116.994667,83.866 117.309667,83.936 117.557,84.076 C117.804333,84.216 118.058667,84.412 118.32,84.664 L118.32,84.664 L118.936,83.978 C118.684,83.7073333 118.401667,83.474 118.089,83.278 C117.776333,83.082 117.396,82.9606667 116.948,82.914 L116.948,82.914 L116.948,81.528 L116.108,81.528 L116.108,82.942 C115.492,83.0353333 114.999667,83.2896667 114.631,83.705 C114.262333,84.1203333 114.078,84.6406667 114.078,85.266 C114.078,85.7233333 114.173667,86.099 114.365,86.393 C114.556333,86.687 114.796667,86.9366667 115.086,87.142 C115.375333,87.3473333 115.690333,87.5293333 116.031,87.688 C116.371667,87.8466667 116.686667,88.017 116.976,88.199 C117.265333,88.381 117.505667,88.5956667 117.697,88.843 C117.888333,89.0903333 117.984,89.4006667 117.984,89.774 C117.984,90.2126667 117.855667,90.5626667 117.599,90.824 C117.342333,91.0853333 116.952667,91.216 116.43,91.216 C116.000667,91.216 115.606333,91.125 115.247,90.943 C114.887667,90.761 114.558667,90.5393333 114.26,90.278 L114.26,90.278 L113.728,91.076 C114.026667,91.3466667 114.386,91.5823333 114.806,91.783 C115.226,91.9836667 115.66,92.1073333 116.108,92.154 L116.108,92.154 L116.108,93.54 L116.948,93.54 Z M123.262,92.168 C123.672667,92.168 124.055333,92.1096667 124.41,91.993 C124.764667,91.8763333 125.075,91.7083333 125.341,91.489 C125.607,91.2696667 125.817,91.0013333 125.971,90.684 C126.125,90.3666667 126.202,90.012 126.202,89.62 C126.202,89.312 126.153,89.032 126.055,88.78 C125.957,88.528 125.819333,88.3063333 125.642,88.115 C125.464667,87.9236667 125.259333,87.765 125.026,87.639 C124.792667,87.513 124.540667,87.4173333 124.27,87.352 L124.27,87.352 L124.27,87.296 C124.755333,87.1093333 125.147333,86.8433333 125.446,86.498 C125.744667,86.1526667 125.894,85.7093333 125.894,85.168 C125.894,84.804 125.828667,84.482 125.698,84.202 C125.567333,83.922 125.383,83.6863333 125.145,83.495 C124.907,83.3036667 124.624667,83.1566667 124.298,83.054 C123.971333,82.9513333 123.612,82.9 123.22,82.9 C122.688,82.9 122.214333,83.005 121.799,83.215 C121.383667,83.425 121.003333,83.6933333 120.658,84.02 L120.658,84.02 L121.274,84.748 C121.544667,84.4773333 121.836333,84.258 122.149,84.09 C122.461667,83.922 122.804667,83.838 123.178,83.838 C123.654,83.838 124.029667,83.964 124.305,84.216 C124.580333,84.468 124.718,84.8133333 124.718,85.252 C124.718,85.4853333 124.676,85.7046667 124.592,85.91 C124.508,86.1153333 124.365667,86.2926667 124.165,86.442 C123.964333,86.5913333 123.703,86.708 123.381,86.792 C123.059,86.876 122.66,86.918 122.184,86.918 L122.184,86.918 L122.184,87.8 C122.716,87.8 123.164,87.842 123.528,87.926 C123.892,88.01 124.186,88.1313333 124.41,88.29 C124.634,88.4486667 124.795,88.6376667 124.893,88.857 C124.991,89.0763333 125.04,89.3166667 125.04,89.578 C125.04,90.082 124.867333,90.481 124.522,90.775 C124.176667,91.069 123.733333,91.216 123.192,91.216 C122.66,91.216 122.214333,91.1086667 121.855,90.894 C121.495667,90.6793333 121.180667,90.432 120.91,90.152 L120.91,90.152 L120.322,90.908 C120.471333,91.076 120.641667,91.2346667 120.833,91.384 C121.024333,91.5333333 121.241333,91.6663333 121.484,91.783 C121.726667,91.8996667 121.995,91.993 122.289,92.063 C122.583,92.133 122.907333,92.168 123.262,92.168 Z M130.584,92 C130.621333,91.132 130.684333,90.341 130.773,89.627 C130.861667,88.913 131.004,88.2363333 131.2,87.597 C131.396,86.9576667 131.659667,86.33 131.991,85.714 C132.322333,85.098 132.754,84.454 133.286,83.782 L133.286,83.782 L133.286,83.068 L127.532,83.068 L127.532,84.062 L131.984,84.062 C131.545333,84.678 131.169667,85.28 130.857,85.868 C130.544333,86.456 130.287667,87.065 130.087,87.695 C129.886333,88.325 129.73,88.99 129.618,89.69 C129.506,90.39 129.431333,91.16 129.394,92 L129.394,92 L130.584,92 Z M137.626,92.168 C137.99,92.168 138.330667,92.098 138.648,91.958 C138.965333,91.818 139.245333,91.622 139.488,91.37 C139.730667,91.118 139.922,90.817 140.062,90.467 C140.202,90.117 140.272,89.7273333 140.272,89.298 C140.272,88.374 140.041,87.6833333 139.579,87.226 C139.117,86.7686667 138.498667,86.54 137.724,86.54 C137.36,86.54 136.991333,86.6403333 136.618,86.841 C136.244667,87.0416667 135.918,87.3146667 135.638,87.66 C135.647333,86.9506667 135.717333,86.3556667 135.848,85.875 C135.978667,85.3943333 136.151333,85.0046667 136.366,84.706 C136.580667,84.4073333 136.828,84.1926667 137.108,84.062 C137.388,83.9313333 137.682,83.866 137.99,83.866 C138.27,83.866 138.538333,83.929 138.795,84.055 C139.051667,84.181 139.273333,84.3513333 139.46,84.566 L139.46,84.566 L140.104,83.852 C139.852,83.5813333 139.551,83.355 139.201,83.173 C138.851,82.991 138.433333,82.9 137.948,82.9 C137.5,82.9 137.073,82.991 136.667,83.173 C136.261,83.355 135.899333,83.6443333 135.582,84.041 C135.264667,84.4376667 135.012667,84.951 134.826,85.581 C134.639333,86.211 134.546,86.974 134.546,87.87 C134.546,88.5886667 134.625333,89.2163333 134.784,89.753 C134.942667,90.2896667 135.159667,90.7376667 135.435,91.097 C135.710333,91.4563333 136.034667,91.7246667 136.408,91.902 C136.781333,92.0793333 137.187333,92.168 137.626,92.168 Z M137.626,91.258 C137.056667,91.258 136.606333,91.0316667 136.275,90.579 C135.943667,90.1263333 135.740667,89.4613333 135.666,88.584 C135.946,88.164 136.254,87.863 136.59,87.681 C136.926,87.499 137.238667,87.408 137.528,87.408 C138.088,87.408 138.503333,87.576 138.774,87.912 C139.044667,88.248 139.18,88.71 139.18,89.298 C139.18,89.5966667 139.140333,89.865 139.061,90.103 C138.981667,90.341 138.872,90.5463333 138.732,90.719 C138.592,90.8916667 138.428667,91.0246667 138.242,91.118 C138.055333,91.2113333 137.85,91.258 137.626,91.258 Z M145.018,92 C145.531333,92 146.002667,91.944 146.432,91.832 C146.861333,91.72 147.23,91.552 147.538,91.328 C147.846,91.104 148.084,90.824 148.252,90.488 C148.42,90.152 148.504,89.76 148.504,89.312 C148.504,88.6773333 148.331333,88.178 147.986,87.814 C147.640667,87.45 147.188,87.2166667 146.628,87.114 L146.628,87.114 L146.628,87.058 C147.066667,86.918 147.400333,86.6636667 147.629,86.295 C147.857667,85.9263333 147.972,85.5133333 147.972,85.056 C147.972,84.6546667 147.895,84.3116667 147.741,84.027 C147.587,83.7423333 147.372333,83.5113333 147.097,83.334 C146.821667,83.1566667 146.490333,83.026 146.103,82.942 C145.715667,82.858 145.288667,82.816 144.822,82.816 L144.822,82.816 L142.092,82.816 L142.092,92 L145.018,92 Z M144.612,86.722 L143.254,86.722 L143.254,83.74 L144.668,83.74 C145.386667,83.74 145.925667,83.852 146.285,84.076 C146.644333,84.3 146.824,84.678 146.824,85.21 C146.824,85.6766667 146.651333,86.0453333 146.306,86.316 C145.960667,86.5866667 145.396,86.722 144.612,86.722 L144.612,86.722 Z M144.85,91.076 L143.254,91.076 L143.254,87.618 L144.85,87.618 C145.662,87.618 146.282667,87.751 146.712,88.017 C147.141333,88.283 147.356,88.7006667 147.356,89.27 C147.356,89.886 147.136667,90.341 146.698,90.635 C146.259333,90.929 145.643333,91.076 144.85,91.076 L144.85,91.076 Z" id="Obligations$376B" fill="#666666" fill-rule="nonzero"></path>
                <path d="M249.592,74.168 C250.124,74.168 250.602333,74.091 251.027,73.937 C251.451667,73.783 251.815667,73.538 252.119,73.202 C252.422333,72.866 252.653333,72.4343333 252.812,71.907 C252.970667,71.3796667 253.05,70.738 253.05,69.982 L253.05,69.982 L253.05,64.844 L251.496,64.844 L251.496,70.108 C251.496,70.6026667 251.449333,71.0203333 251.356,71.361 C251.262667,71.7016667 251.132,71.9746667 250.964,72.18 C250.796,72.3853333 250.595333,72.5323333 250.362,72.621 C250.128667,72.7096667 249.872,72.754 249.592,72.754 C249.312,72.754 249.06,72.7096667 248.836,72.621 C248.612,72.5323333 248.418333,72.3853333 248.255,72.18 C248.091667,71.9746667 247.965667,71.7016667 247.877,71.361 C247.788333,71.0203333 247.744,70.6026667 247.744,70.108 L247.744,70.108 L247.744,64.844 L246.12,64.844 L246.12,69.982 C246.12,70.738 246.201667,71.3796667 246.365,71.907 C246.528333,72.4343333 246.761667,72.866 247.065,73.202 C247.368333,73.538 247.732333,73.783 248.157,73.937 C248.581667,74.091 249.06,74.168 249.592,74.168 Z M256.802,74 L256.802,69.198 C257.091333,68.918 257.350333,68.7056667 257.579,68.561 C257.807667,68.4163333 258.071333,68.344 258.37,68.344 C258.752667,68.344 259.028,68.4606667 259.196,68.694 C259.364,68.9273333 259.448,69.3286667 259.448,69.898 L259.448,69.898 L259.448,74 L261.058,74 L261.058,69.688 C261.058,68.8106667 260.89,68.1363333 260.554,67.665 C260.218,67.1936667 259.681333,66.958 258.944,66.958 C258.468,66.958 258.050333,67.0653333 257.691,67.28 C257.331667,67.4946667 256.998,67.7513333 256.69,68.05 L256.69,68.05 L256.634,68.05 L256.522,67.126 L255.192,67.126 L255.192,74 L256.802,74 Z M265.846,74.168 C266.275333,74.168 266.688333,74.0886667 267.085,73.93 C267.481667,73.7713333 267.829333,73.538 268.128,73.23 C268.426667,72.922 268.667,72.544 268.849,72.096 C269.031,71.648 269.122,71.1393333 269.122,70.57 C269.122,70.0006667 269.031,69.492 268.849,69.044 C268.667,68.596 268.426667,68.218 268.128,67.91 C267.829333,67.602 267.481667,67.3663333 267.085,67.203 C266.688333,67.0396667 266.275333,66.958 265.846,66.958 C265.416667,66.958 265.006,67.0396667 264.614,67.203 C264.222,67.3663333 263.874333,67.602 263.571,67.91 C263.267667,68.218 263.027333,68.596 262.85,69.044 C262.672667,69.492 262.584,70.0006667 262.584,70.57 C262.584,71.1393333 262.672667,71.648 262.85,72.096 C263.027333,72.544 263.267667,72.922 263.571,73.23 C263.874333,73.538 264.222,73.7713333 264.614,73.93 C265.006,74.0886667 265.416667,74.168 265.846,74.168 Z M265.846,72.852 C265.342,72.852 264.947667,72.6443333 264.663,72.229 C264.378333,71.8136667 264.236,71.2606667 264.236,70.57 C264.236,69.87 264.378333,69.3123333 264.663,68.897 C264.947667,68.4816667 265.342,68.274 265.846,68.274 C266.35,68.274 266.746667,68.4816667 267.036,68.897 C267.325333,69.3123333 267.47,69.87 267.47,70.57 C267.47,71.2606667 267.325333,71.8136667 267.036,72.229 C266.746667,72.6443333 266.35,72.852 265.846,72.852 Z M274.05,74.168 C274.432667,74.168 274.801333,74.084 275.156,73.916 C275.510667,73.748 275.823333,73.5053333 276.094,73.188 C276.364667,72.8706667 276.581667,72.481 276.745,72.019 C276.908333,71.557 276.99,71.032 276.99,70.444 C276.99,69.912 276.929333,69.4313333 276.808,69.002 C276.686667,68.5726667 276.509333,68.2063333 276.276,67.903 C276.042667,67.5996667 275.758,67.3663333 275.422,67.203 C275.086,67.0396667 274.703333,66.958 274.274,66.958 C273.919333,66.958 273.571667,67.0373333 273.231,67.196 C272.890333,67.3546667 272.575333,67.56 272.286,67.812 L272.286,67.812 L272.328,66.664 L272.328,64.116 L270.718,64.116 L270.718,74 L271.992,74 L272.132,73.272 L272.174,73.272 C272.463333,73.5613333 272.769,73.783 273.091,73.937 C273.413,74.091 273.732667,74.168 274.05,74.168 Z M273.714,72.838 C273.508667,72.838 273.287,72.796 273.049,72.712 C272.811,72.628 272.570667,72.4786667 272.328,72.264 L272.328,72.264 L272.328,69.058 C272.850667,68.5446667 273.354667,68.288 273.84,68.288 C274.362667,68.288 274.740667,68.4793333 274.974,68.862 C275.207333,69.2446667 275.324,69.7813333 275.324,70.472 C275.324,71.256 275.17,71.8463333 274.862,72.243 C274.554,72.6396667 274.171333,72.838 273.714,72.838 Z M280.168,74.168 C280.522667,74.168 280.807333,74.1213333 281.022,74.028 L281.022,74.028 L280.812,72.824 C280.746667,72.8426667 280.697667,72.852 280.665,72.852 L280.665,72.852 L280.56,72.852 C280.476,72.852 280.396667,72.8123333 280.322,72.733 C280.247333,72.6536667 280.21,72.516 280.21,72.32 L280.21,72.32 L280.21,64.116 L278.6,64.116 L278.6,72.236 C278.6,72.8333333 278.716667,73.3046667 278.95,73.65 C279.183333,73.9953333 279.589333,74.168 280.168,74.168 Z M283.206,65.922 C283.495333,65.922 283.733333,65.838 283.92,65.67 C284.106667,65.502 284.2,65.2826667 284.2,65.012 C284.2,64.7413333 284.106667,64.5196667 283.92,64.347 C283.733333,64.1743333 283.495333,64.088 283.206,64.088 C282.916667,64.088 282.678667,64.1743333 282.492,64.347 C282.305333,64.5196667 282.212,64.7413333 282.212,65.012 C282.212,65.2826667 282.305333,65.502 282.492,65.67 C282.678667,65.838 282.916667,65.922 283.206,65.922 Z M284.004,74 L284.004,67.126 L282.394,67.126 L282.394,74 L284.004,74 Z M288.456,77.038 C289.016,77.038 289.522333,76.975 289.975,76.849 C290.427667,76.723 290.812667,76.5526667 291.13,76.338 C291.447333,76.1233333 291.692333,75.8666667 291.865,75.568 C292.037667,75.2693333 292.124,74.952 292.124,74.616 C292.124,74.0186667 291.911667,73.587 291.487,73.321 C291.062333,73.055 290.434667,72.922 289.604,72.922 L289.604,72.922 L288.386,72.922 C287.966,72.922 287.674333,72.866 287.511,72.754 C287.347667,72.642 287.266,72.488 287.266,72.292 C287.266,72.1333333 287.296333,72.0073333 287.357,71.914 C287.417667,71.8206667 287.499333,71.7273333 287.602,71.634 C287.760667,71.6993333 287.919333,71.746 288.078,71.774 C288.236667,71.802 288.390667,71.816 288.54,71.816 C288.904,71.816 289.244667,71.7646667 289.562,71.662 C289.879333,71.5593333 290.154667,71.41 290.388,71.214 C290.621333,71.018 290.805667,70.7753333 290.941,70.486 C291.076333,70.1966667 291.144,69.8606667 291.144,69.478 C291.144,69.2353333 291.106667,69.0136667 291.032,68.813 C290.957333,68.6123333 290.864,68.4466667 290.752,68.316 L290.752,68.316 L292.012,68.316 L292.012,67.126 L289.548,67.126 C289.408,67.0793333 289.251667,67.0396667 289.079,67.007 C288.906333,66.9743333 288.726667,66.958 288.54,66.958 C288.176,66.958 287.830667,67.0116667 287.504,67.119 C287.177333,67.2263333 286.890333,67.385 286.643,67.595 C286.395667,67.805 286.197333,68.064 286.048,68.372 C285.898667,68.68 285.824,69.03 285.824,69.422 C285.824,69.8326667 285.915,70.1943333 286.097,70.507 C286.279,70.8196667 286.486667,71.0646667 286.72,71.242 L286.72,71.242 L286.72,71.298 C286.524,71.438 286.349,71.6176667 286.195,71.837 C286.041,72.0563333 285.964,72.3013333 285.964,72.572 C285.964,72.852 286.022333,73.0853333 286.139,73.272 C286.255667,73.4586667 286.402667,73.608 286.58,73.72 L286.58,73.72 L286.58,73.776 C286.262667,73.972 286.02,74.1936667 285.852,74.441 C285.684,74.6883333 285.6,74.9566667 285.6,75.246 C285.6,75.5446667 285.672333,75.806 285.817,76.03 C285.961667,76.254 286.16,76.4406667 286.412,76.59 C286.664,76.7393333 286.965,76.8513333 287.315,76.926 C287.665,77.0006667 288.045333,77.038 288.456,77.038 Z M288.54,70.808 C288.204,70.808 287.919333,70.689 287.686,70.451 C287.452667,70.213 287.336,69.87 287.336,69.422 C287.336,68.9833333 287.452667,68.6473333 287.686,68.414 C287.919333,68.1806667 288.204,68.064 288.54,68.064 C288.876,68.064 289.158333,68.183 289.387,68.421 C289.615667,68.659 289.73,68.9926667 289.73,69.422 C289.73,69.87 289.613333,70.213 289.38,70.451 C289.146667,70.689 288.866667,70.808 288.54,70.808 Z M288.708,75.988 C288.157333,75.988 287.725667,75.9016667 287.413,75.729 C287.100333,75.5563333 286.944,75.316 286.944,75.008 C286.944,74.672 287.121333,74.3686667 287.476,74.098 C287.728,74.1633333 288.040667,74.196 288.414,74.196 L288.414,74.196 L289.352,74.196 C289.744,74.196 290.045,74.2426667 290.255,74.336 C290.465,74.4293333 290.57,74.6113333 290.57,74.882 C290.57,75.1806667 290.399667,75.4396667 290.059,75.659 C289.718333,75.8783333 289.268,75.988 288.708,75.988 Z M294.756,74.168 C295.166667,74.168 295.547,74.0793333 295.897,73.902 C296.247,73.7246667 296.576,73.5053333 296.884,73.244 L296.884,73.244 L296.94,73.244 L297.052,74 L298.382,74 L298.382,69.926 C298.382,68.9646667 298.169667,68.2296667 297.745,67.721 C297.320333,67.2123333 296.678667,66.958 295.82,66.958 C295.269333,66.958 294.756,67.0466667 294.28,67.224 C293.804,67.4013333 293.374667,67.6113333 292.992,67.854 L292.992,67.854 L293.58,68.932 C293.888,68.7453333 294.203,68.5866667 294.525,68.456 C294.847,68.3253333 295.176,68.26 295.512,68.26 C295.745333,68.26 295.941333,68.295 296.1,68.365 C296.258667,68.435 296.387,68.533 296.485,68.659 C296.583,68.785 296.653,68.9296667 296.695,69.093 C296.737,69.2563333 296.762667,69.4266667 296.772,69.604 C296.062667,69.6786667 295.453667,69.786 294.945,69.926 C294.436333,70.066 294.016333,70.2386667 293.685,70.444 C293.353667,70.6493333 293.111,70.8943333 292.957,71.179 C292.803,71.4636667 292.726,71.788 292.726,72.152 C292.726,72.7586667 292.912667,73.2463333 293.286,73.615 C293.659333,73.9836667 294.149333,74.168 294.756,74.168 Z M295.274,72.908 C294.984667,72.908 294.746667,72.838 294.56,72.698 C294.373333,72.558 294.28,72.334 294.28,72.026 C294.28,71.858 294.322,71.6993333 294.406,71.55 C294.49,71.4006667 294.63,71.2676667 294.826,71.151 C295.022,71.0343333 295.278667,70.9293333 295.596,70.836 C295.913333,70.7426667 296.305333,70.668 296.772,70.612 L296.772,70.612 L296.772,72.152 C296.510667,72.3946667 296.265667,72.5813333 296.037,72.712 C295.808333,72.8426667 295.554,72.908 295.274,72.908 Z M302.512,74.168 C302.782667,74.168 303.037,74.1423333 303.275,74.091 C303.513,74.0396667 303.725333,73.9813333 303.912,73.916 L303.912,73.916 L303.632,72.726 C303.529333,72.7726667 303.415,72.81 303.289,72.838 C303.163,72.866 303.039333,72.88 302.918,72.88 C302.274,72.88 301.952,72.4786667 301.952,71.676 L301.952,71.676 L301.952,68.4 L303.702,68.4 L303.702,67.126 L301.952,67.126 L301.952,65.25 L300.608,65.25 L300.412,67.126 L299.348,67.196 L299.348,68.4 L300.328,68.4 L300.328,71.676 C300.328,72.0493333 300.367667,72.3876667 300.447,72.691 C300.526333,72.9943333 300.652333,73.2556667 300.825,73.475 C300.997667,73.6943333 301.221667,73.8646667 301.497,73.986 C301.772333,74.1073333 302.110667,74.168 302.512,74.168 Z M307.86,74.168 C308.298667,74.168 308.718667,74.098 309.12,73.958 C309.521333,73.818 309.885333,73.6406667 310.212,73.426 L310.212,73.426 L309.666,72.418 C309.414,72.5766667 309.159667,72.7003333 308.903,72.789 C308.646333,72.8776667 308.368667,72.922 308.07,72.922 C307.51,72.922 307.050333,72.7563333 306.691,72.425 C306.331667,72.0936667 306.114667,71.62 306.04,71.004 L306.04,71.004 L310.408,71.004 C310.426667,70.92 310.443,70.808 310.457,70.668 C310.471,70.528 310.478,70.3786667 310.478,70.22 C310.478,69.744 310.417333,69.3053333 310.296,68.904 C310.174667,68.5026667 309.995,68.1573333 309.757,67.868 C309.519,67.5786667 309.222667,67.3546667 308.868,67.196 C308.513333,67.0373333 308.102667,66.958 307.636,66.958 C307.234667,66.958 306.842667,67.042 306.46,67.21 C306.077333,67.378 305.739,67.616 305.445,67.924 C305.151,68.232 304.915333,68.61 304.738,69.058 C304.560667,69.506 304.472,70.01 304.472,70.57 C304.472,71.1393333 304.558333,71.6456667 304.731,72.089 C304.903667,72.5323333 305.144,72.908 305.452,73.216 C305.76,73.524 306.119333,73.7596667 306.53,73.923 C306.940667,74.0863333 307.384,74.168 307.86,74.168 Z M309.078,69.912 L306.026,69.912 C306.100667,69.352 306.292,68.9273333 306.6,68.638 C306.908,68.3486667 307.267333,68.204 307.678,68.204 C308.154,68.204 308.506333,68.3556667 308.735,68.659 C308.963667,68.9623333 309.078,69.38 309.078,69.912 L309.078,69.912 Z M314.426,74.168 C314.799333,74.168 315.154,74.0793333 315.49,73.902 C315.826,73.7246667 316.12,73.51 316.372,73.258 L316.372,73.258 L316.428,73.258 L316.54,74 L317.87,74 L317.87,64.116 L316.26,64.116 L316.26,66.608 L316.316,67.714 C316.045333,67.4806667 315.774667,67.2963333 315.504,67.161 C315.233333,67.0256667 314.902,66.958 314.51,66.958 C314.136667,66.958 313.775,67.042 313.425,67.21 C313.075,67.378 312.764667,67.616 312.494,67.924 C312.223333,68.232 312.006333,68.61 311.843,69.058 C311.679667,69.506 311.598,70.01 311.598,70.57 C311.598,71.7086667 311.852333,72.593 312.361,73.223 C312.869667,73.853 313.558,74.168 314.426,74.168 Z M314.818,72.838 C314.314,72.838 313.929,72.6443333 313.663,72.257 C313.397,71.8696667 313.264,71.3026667 313.264,70.556 C313.264,69.828 313.418,69.268 313.726,68.876 C314.034,68.484 314.412,68.288 314.86,68.288 C315.093333,68.288 315.324333,68.33 315.553,68.414 C315.781667,68.498 316.017333,68.6473333 316.26,68.862 L316.26,68.862 L316.26,72.068 C315.812,72.5813333 315.331333,72.838 314.818,72.838 Z M248.948,93.54 L248.948,92.126 C249.62,92.0326667 250.149667,91.7713333 250.537,91.342 C250.924333,90.9126667 251.118,90.362 251.118,89.69 C251.118,89.186 251.022333,88.773 250.831,88.451 C250.639667,88.129 250.399333,87.8583333 250.11,87.639 C249.820667,87.4196667 249.505667,87.233 249.165,87.079 C248.824333,86.925 248.509333,86.7663333 248.22,86.603 C247.930667,86.4396667 247.690333,86.2506667 247.499,86.036 C247.307667,85.8213333 247.212,85.546 247.212,85.21 C247.212,84.7993333 247.338,84.4726667 247.59,84.23 C247.842,83.9873333 248.182667,83.866 248.612,83.866 C248.994667,83.866 249.309667,83.936 249.557,84.076 C249.804333,84.216 250.058667,84.412 250.32,84.664 L250.32,84.664 L250.936,83.978 C250.684,83.7073333 250.401667,83.474 250.089,83.278 C249.776333,83.082 249.396,82.9606667 248.948,82.914 L248.948,82.914 L248.948,81.528 L248.108,81.528 L248.108,82.942 C247.492,83.0353333 246.999667,83.2896667 246.631,83.705 C246.262333,84.1203333 246.078,84.6406667 246.078,85.266 C246.078,85.7233333 246.173667,86.099 246.365,86.393 C246.556333,86.687 246.796667,86.9366667 247.086,87.142 C247.375333,87.3473333 247.690333,87.5293333 248.031,87.688 C248.371667,87.8466667 248.686667,88.017 248.976,88.199 C249.265333,88.381 249.505667,88.5956667 249.697,88.843 C249.888333,89.0903333 249.984,89.4006667 249.984,89.774 C249.984,90.2126667 249.855667,90.5626667 249.599,90.824 C249.342333,91.0853333 248.952667,91.216 248.43,91.216 C248.000667,91.216 247.606333,91.125 247.247,90.943 C246.887667,90.761 246.558667,90.5393333 246.26,90.278 L246.26,90.278 L245.728,91.076 C246.026667,91.3466667 246.386,91.5823333 246.806,91.783 C247.226,91.9836667 247.66,92.1073333 248.108,92.154 L248.108,92.154 L248.108,93.54 L248.948,93.54 Z M258.104,92 L258.104,91.048 L256.256,91.048 L256.256,83.068 L255.374,83.068 C255.131333,83.2173333 254.858333,83.3456667 254.555,83.453 C254.251667,83.5603333 253.894667,83.6513333 253.484,83.726 L253.484,83.726 L253.484,84.468 L255.108,84.468 L255.108,91.048 L253.064,91.048 L253.064,92 L258.104,92 Z M262.402,92.168 C263.298,92.168 263.998,91.7666667 264.502,90.964 C265.006,90.1613333 265.258,89.0086667 265.258,87.506 C265.258,86.0033333 265.006,84.86 264.502,84.076 C263.998,83.292 263.298,82.9 262.402,82.9 C261.496667,82.9 260.792,83.292 260.288,84.076 C259.784,84.86 259.532,86.0033333 259.532,87.506 C259.532,89.0086667 259.784,90.1613333 260.288,90.964 C260.792,91.7666667 261.496667,92.168 262.402,92.168 Z M262.402,91.244 C261.879333,91.244 261.457,90.9476667 261.135,90.355 C260.813,89.7623333 260.652,88.8126667 260.652,87.506 C260.652,86.8526667 260.694,86.2926667 260.778,85.826 C260.862,85.3593333 260.981,84.979 261.135,84.685 C261.289,84.391 261.473333,84.174 261.688,84.034 C261.902667,83.894 262.140667,83.824 262.402,83.824 C262.663333,83.824 262.899,83.894 263.109,84.034 C263.319,84.174 263.501,84.391 263.655,84.685 C263.809,84.979 263.928,85.3593333 264.012,85.826 C264.096,86.2926667 264.138,86.8526667 264.138,87.506 C264.138,88.1593333 264.096,88.7216667 264.012,89.193 C263.928,89.6643333 263.809,90.0516667 263.655,90.355 C263.501,90.6583333 263.319,90.8823333 263.109,91.027 C262.899,91.1716667 262.663333,91.244 262.402,91.244 Z M269.374,92.168 C269.803333,92.168 270.195333,92.1073333 270.55,91.986 C270.904667,91.8646667 271.208,91.6966667 271.46,91.482 C271.712,91.2673333 271.908,91.0153333 272.048,90.726 C272.188,90.4366667 272.258,90.124 272.258,89.788 C272.258,89.4893333 272.213667,89.2233333 272.125,88.99 C272.036333,88.7566667 271.919667,88.549 271.775,88.367 C271.630333,88.185 271.464667,88.0216667 271.278,87.877 C271.091333,87.7323333 270.9,87.604 270.704,87.492 L270.704,87.492 L270.704,87.436 C270.844,87.3333333 270.986333,87.2073333 271.131,87.058 C271.275667,86.9086667 271.406333,86.7406667 271.523,86.554 C271.639667,86.3673333 271.737667,86.1666667 271.817,85.952 C271.896333,85.7373333 271.936,85.5133333 271.936,85.28 C271.936,84.9346667 271.877667,84.615 271.761,84.321 C271.644333,84.027 271.476333,83.775 271.257,83.565 C271.037667,83.355 270.774,83.1916667 270.466,83.075 C270.158,82.9583333 269.808,82.9 269.416,82.9 C269.052,82.9 268.716,82.956 268.408,83.068 C268.1,83.18 267.834,83.3363333 267.61,83.537 C267.386,83.7376667 267.208667,83.978 267.078,84.258 C266.947333,84.538 266.882,84.8506667 266.882,85.196 C266.882,85.672 267.008,86.0756667 267.26,86.407 C267.512,86.7383333 267.801333,87.0206667 268.128,87.254 L268.128,87.254 L268.128,87.31 C267.913333,87.422 267.705667,87.555 267.505,87.709 C267.304333,87.863 267.127,88.0403333 266.973,88.241 C266.819,88.4416667 266.693,88.6656667 266.595,88.913 C266.497,89.1603333 266.448,89.4286667 266.448,89.718 C266.448,90.0726667 266.522667,90.3993333 266.672,90.698 C266.821333,90.9966667 267.024333,91.2556667 267.281,91.475 C267.537667,91.6943333 267.845667,91.8646667 268.205,91.986 C268.564333,92.1073333 268.954,92.168 269.374,92.168 Z M270.004,87.128 C269.733333,87.0253333 269.474333,86.9156667 269.227,86.799 C268.979667,86.6823333 268.760333,86.5493333 268.569,86.4 C268.377667,86.2506667 268.226,86.0803333 268.114,85.889 C268.002,85.6976667 267.946,85.4666667 267.946,85.196 C267.946,84.7573333 268.081333,84.4073333 268.352,84.146 C268.622667,83.8846667 268.968,83.754 269.388,83.754 C269.882667,83.754 270.265333,83.9056667 270.536,84.209 C270.806667,84.5123333 270.942,84.888 270.942,85.336 C270.942,85.6626667 270.860333,85.9753333 270.697,86.274 C270.533667,86.5726667 270.302667,86.8573333 270.004,87.128 Z M269.402,91.314 C269.131333,91.314 268.879333,91.272 268.646,91.188 C268.412667,91.104 268.209667,90.985 268.037,90.831 C267.864333,90.677 267.729,90.4973333 267.631,90.292 C267.533,90.0866667 267.484,89.858 267.484,89.606 C267.484,89.1953333 267.603,88.829 267.841,88.507 C268.079,88.185 268.375333,87.9026667 268.73,87.66 C269.047333,87.7906667 269.353,87.919 269.647,88.045 C269.941,88.171 270.2,88.311 270.424,88.465 C270.648,88.619 270.825333,88.7986667 270.956,89.004 C271.086667,89.2093333 271.152,89.4566667 271.152,89.746 C271.152,90.2126667 270.991,90.5906667 270.669,90.88 C270.347,91.1693333 269.924667,91.314 269.402,91.314 Z M277.018,92 C277.531333,92 278.002667,91.944 278.432,91.832 C278.861333,91.72 279.23,91.552 279.538,91.328 C279.846,91.104 280.084,90.824 280.252,90.488 C280.42,90.152 280.504,89.76 280.504,89.312 C280.504,88.6773333 280.331333,88.178 279.986,87.814 C279.640667,87.45 279.188,87.2166667 278.628,87.114 L278.628,87.114 L278.628,87.058 C279.066667,86.918 279.400333,86.6636667 279.629,86.295 C279.857667,85.9263333 279.972,85.5133333 279.972,85.056 C279.972,84.6546667 279.895,84.3116667 279.741,84.027 C279.587,83.7423333 279.372333,83.5113333 279.097,83.334 C278.821667,83.1566667 278.490333,83.026 278.103,82.942 C277.715667,82.858 277.288667,82.816 276.822,82.816 L276.822,82.816 L274.092,82.816 L274.092,92 L277.018,92 Z M276.612,86.722 L275.254,86.722 L275.254,83.74 L276.668,83.74 C277.386667,83.74 277.925667,83.852 278.285,84.076 C278.644333,84.3 278.824,84.678 278.824,85.21 C278.824,85.6766667 278.651333,86.0453333 278.306,86.316 C277.960667,86.5866667 277.396,86.722 276.612,86.722 L276.612,86.722 Z M276.85,91.076 L275.254,91.076 L275.254,87.618 L276.85,87.618 C277.662,87.618 278.282667,87.751 278.712,88.017 C279.141333,88.283 279.356,88.7006667 279.356,89.27 C279.356,89.886 279.136667,90.341 278.698,90.635 C278.259333,90.929 277.643333,91.076 276.85,91.076 L276.85,91.076 Z" id="Unobligated$108B" fill="#666666" fill-rule="nonzero"></path>
                <line x1="4" y1="40" x2="4" y2="60" id="Line" stroke="#666666" opacity="0.5"></line>
                <path d="M278,40 L278,42.4117647 C278,43.5163342 277.104569,44.4117647 276,44.4117647 L101,44.4117647 C99.8954305,44.4117647 99,45.3071952 99,46.4117647 L99,60 L99,60" id="Line-Copy-7" stroke="#666666" opacity="0.5" stroke-linecap="round" transform="translate(188.500000, 50.000000) scale(-1, 1) translate(-188.500000, -50.000000) "></path>
                <path d="M141,40 L141,51 C141,52.1045695 140.104569,53 139,53 L87,53 C85.8954305,53 85,53.8954305 85,55 L85,60 L85,60" id="Line-Copy-9" stroke="#666666" opacity="0.5" stroke-linecap="round" transform="translate(113.000000, 50.000000) scale(-1, 1) translate(-113.000000, -50.000000) "></path>
                <rect id="unobligated" fill="#F3E9FF" x="87" y="0" width="25" height="40"></rect>
                <rect id="obligated" fill="#6F41A7" x="83" y="0" width="4" height="40"></rect>
                <rect id="outlays" fill="#331E4D" x="0" y="0" width="83" height="40"></rect>
                <path d="M126.992,27.76 L126.992,26.096 C127.824,25.9146667 128.448,25.5493333 128.864,25 C129.28,24.4506667 129.488,23.792 129.488,23.024 C129.488,22.512 129.384,22.0826667 129.176,21.736 C128.968,21.3893333 128.706667,21.0933333 128.392,20.848 C128.077333,20.6026667 127.738667,20.3946667 127.376,20.224 C127.013333,20.0533333 126.674667,19.888 126.36,19.728 C126.045333,19.568 125.784,19.4 125.576,19.224 C125.368,19.048 125.264,18.832 125.264,18.576 C125.264,18.2133333 125.365333,17.952 125.568,17.792 C125.770667,17.632 126.064,17.552 126.448,17.552 C126.789333,17.552 127.093333,17.6186667 127.36,17.752 C127.626667,17.8853333 127.904,18.0853333 128.192,18.352 L128.192,18.352 L129.376,17.008 C129.066667,16.6773333 128.72,16.3946667 128.336,16.16 C127.952,15.9253333 127.504,15.7706667 126.992,15.696 L126.992,15.696 L126.992,14.08 L125.44,14.08 L125.44,15.728 C124.682667,15.8773333 124.088,16.2106667 123.656,16.728 C123.224,17.2453333 123.008,17.8986667 123.008,18.688 C123.008,19.168 123.112,19.5733333 123.32,19.904 C123.528,20.2346667 123.789333,20.5226667 124.104,20.768 C124.418667,21.0133333 124.757333,21.224 125.12,21.4 C125.482667,21.576 125.821333,21.752 126.136,21.928 C126.450667,22.104 126.712,22.288 126.92,22.48 C127.128,22.672 127.232,22.9066667 127.232,23.184 C127.232,23.5573333 127.128,23.8346667 126.92,24.016 C126.712,24.1973333 126.384,24.288 125.936,24.288 C125.552,24.288 125.176,24.2106667 124.808,24.056 C124.44,23.9013333 124.053333,23.6693333 123.648,23.36 L123.648,23.36 L122.624,24.944 C122.997333,25.2853333 123.442667,25.56 123.96,25.768 C124.477333,25.976 124.970667,26.1066667 125.44,26.16 L125.44,26.16 L125.44,27.76 L126.992,27.76 Z M137.344,26 L137.344,23.568 L138.512,23.568 L138.512,21.776 L137.344,21.776 L137.344,15.84 L134.464,15.84 L130.752,21.952 L130.752,23.568 L135.152,23.568 L135.152,26 L137.344,26 Z M135.152,21.776 L133.008,21.776 L134.352,19.568 C134.501333,19.28 134.645333,18.992 134.784,18.704 C134.922667,18.416 135.056,18.1333333 135.184,17.856 L135.184,17.856 L135.248,17.856 C135.226667,18.176 135.205333,18.552 135.184,18.984 C135.162667,19.416 135.152,19.7973333 135.152,20.128 L135.152,20.128 L135.152,21.776 Z M143.104,26.192 C143.648,26.192 144.141333,26.12 144.584,25.976 C145.026667,25.832 145.405333,25.6346667 145.72,25.384 C146.034667,25.1333333 146.277333,24.8373333 146.448,24.496 C146.618667,24.1546667 146.704,23.7813333 146.704,23.376 C146.704,22.704 146.533333,22.16 146.192,21.744 C145.850667,21.328 145.434667,20.9866667 144.944,20.72 L144.944,20.72 L144.944,20.656 C145.296,20.4213333 145.605333,20.1146667 145.872,19.736 C146.138667,19.3573333 146.272,18.9226667 146.272,18.432 C146.272,18.016 146.197333,17.6346667 146.048,17.288 C145.898667,16.9413333 145.690667,16.648 145.424,16.408 C145.157333,16.168 144.832,15.9813333 144.448,15.848 C144.064,15.7146667 143.642667,15.648 143.184,15.648 C142.714667,15.648 142.28,15.712 141.88,15.84 C141.48,15.968 141.136,16.1546667 140.848,16.4 C140.56,16.6453333 140.336,16.9413333 140.176,17.288 C140.016,17.6346667 139.936,18.0213333 139.936,18.448 C139.936,18.992 140.064,19.4533333 140.32,19.832 C140.576,20.2106667 140.901333,20.5493333 141.296,20.848 L141.296,20.848 L141.296,20.912 C140.816,21.168 140.408,21.4933333 140.072,21.888 C139.736,22.2826667 139.568,22.7893333 139.568,23.408 C139.568,23.824 139.656,24.2026667 139.832,24.544 C140.008,24.8853333 140.253333,25.1786667 140.568,25.424 C140.882667,25.6693333 141.256,25.8586667 141.688,25.992 C142.12,26.1253333 142.592,26.192 143.104,26.192 Z M143.744,20.08 C143.221333,19.8773333 142.8,19.6586667 142.48,19.424 C142.16,19.1893333 142,18.864 142,18.448 C142,18.0533333 142.112,17.76 142.336,17.568 C142.56,17.376 142.826667,17.28 143.136,17.28 C143.52,17.28 143.821333,17.4 144.04,17.64 C144.258667,17.88 144.368,18.1973333 144.368,18.592 C144.368,19.104 144.16,19.6 143.744,20.08 Z M143.152,24.56 C142.725333,24.56 142.357333,24.4346667 142.048,24.184 C141.738667,23.9333333 141.584,23.584 141.584,23.136 C141.584,22.8266667 141.658667,22.5333333 141.808,22.256 C141.957333,21.9786667 142.144,21.7333333 142.368,21.52 C142.688,21.6586667 142.978667,21.7866667 143.24,21.904 C143.501333,22.0213333 143.728,22.1466667 143.92,22.28 C144.112,22.4133333 144.258667,22.56 144.36,22.72 C144.461333,22.88 144.512,23.072 144.512,23.296 C144.512,23.7226667 144.384,24.04 144.128,24.248 C143.872,24.456 143.546667,24.56 143.152,24.56 Z M151.232,26.192 C151.744,26.192 152.229333,26.1253333 152.688,25.992 C153.146667,25.8586667 153.546667,25.6666667 153.888,25.416 C154.229333,25.1653333 154.501333,24.856 154.704,24.488 C154.906667,24.12 155.008,23.7013333 155.008,23.232 C155.008,22.5706667 154.818667,22.0346667 154.44,21.624 C154.061333,21.2133333 153.578667,20.9226667 152.992,20.752 L152.992,20.752 L152.992,20.688 C153.536,20.4533333 153.954667,20.152 154.248,19.784 C154.541333,19.416 154.688,18.9653333 154.688,18.432 C154.688,17.984 154.602667,17.5893333 154.432,17.248 C154.261333,16.9066667 154.024,16.616 153.72,16.376 C153.416,16.136 153.048,15.9546667 152.616,15.832 C152.184,15.7093333 151.706667,15.648 151.184,15.648 C150.554667,15.648 149.981333,15.7626667 149.464,15.992 C148.946667,16.2213333 148.453333,16.5386667 147.984,16.944 L147.984,16.944 L149.168,18.384 C149.488,18.1066667 149.794667,17.888 150.088,17.728 C150.381333,17.568 150.709333,17.488 151.072,17.488 C151.477333,17.488 151.786667,17.5866667 152,17.784 C152.213333,17.9813333 152.32,18.256 152.32,18.608 C152.32,18.8106667 152.28,18.9946667 152.2,19.16 C152.12,19.3253333 151.986667,19.4693333 151.8,19.592 C151.613333,19.7146667 151.368,19.808 151.064,19.872 C150.76,19.936 150.378667,19.968 149.92,19.968 L149.92,19.968 L149.92,21.632 C150.474667,21.632 150.928,21.6666667 151.28,21.736 C151.632,21.8053333 151.909333,21.9013333 152.112,22.024 C152.314667,22.1466667 152.456,22.2986667 152.536,22.48 C152.616,22.6613333 152.656,22.864 152.656,23.088 C152.656,23.472 152.506667,23.768 152.208,23.976 C151.909333,24.184 151.509333,24.288 151.008,24.288 C150.570667,24.288 150.168,24.192 149.8,24 C149.432,23.808 149.093333,23.5626667 148.784,23.264 L148.784,23.264 L147.696,24.752 C148.069333,25.1893333 148.544,25.5386667 149.12,25.8 C149.696,26.0613333 150.4,26.192 151.232,26.192 Z M160.896,26 C161.461333,26 161.989333,25.9386667 162.48,25.816 C162.970667,25.6933333 163.4,25.5066667 163.768,25.256 C164.136,25.0053333 164.424,24.688 164.632,24.304 C164.84,23.92 164.944,23.4613333 164.944,22.928 C164.944,22.576 164.896,22.264 164.8,21.992 C164.704,21.72 164.570667,21.4826667 164.4,21.28 C164.229333,21.0773333 164.032,20.9093333 163.808,20.776 C163.584,20.6426667 163.338667,20.544 163.072,20.48 L163.072,20.48 L163.072,20.416 C163.285333,20.3413333 163.474667,20.224 163.64,20.064 C163.805333,19.904 163.946667,19.7226667 164.064,19.52 C164.181333,19.3173333 164.272,19.0986667 164.336,18.864 C164.4,18.6293333 164.432,18.3946667 164.432,18.16 C164.432,17.6586667 164.333333,17.2426667 164.136,16.912 C163.938667,16.5813333 163.666667,16.3146667 163.32,16.112 C162.973333,15.9093333 162.568,15.768 162.104,15.688 C161.64,15.608 161.136,15.568 160.592,15.568 L160.592,15.568 L157.024,15.568 L157.024,26 L160.896,26 Z M160.48,19.744 L159.376,19.744 L159.376,17.392 L160.496,17.392 C161.050667,17.392 161.461333,17.4773333 161.728,17.648 C161.994667,17.8186667 162.128,18.1066667 162.128,18.512 C162.128,18.8853333 161.997333,19.184 161.736,19.408 C161.474667,19.632 161.056,19.744 160.48,19.744 L160.48,19.744 Z M160.704,24.176 L159.376,24.176 L159.376,21.488 L160.704,21.488 C161.354667,21.488 161.84,21.5866667 162.16,21.784 C162.48,21.9813333 162.64,22.3093333 162.64,22.768 C162.64,23.7066667 161.994667,24.176 160.704,24.176 L160.704,24.176 Z" id="$483B" fill="#555555" fill-rule="nonzero"></path>
            </g>
        </g>
    </g>
</svg>