<?xml version="1.0" encoding="UTF-8"?>
<svg width="349px" height="95px" viewBox="0 0 349 95" version="1.1" xmlns="http://www.w3.org/2000/svg" xmlns:xlink="http://www.w3.org/1999/xlink">
    <title>Law 3.5 Total 3</title>
    <g id="SVG-2.0" stroke="none" stroke-width="1" fill="none" fill-rule="evenodd">
        <g id="viz-3-tablet-outline" transform="translate(-61.000000, -1585.000000)">
            <g id="Law-3.5-Total" transform="translate(61.000000, 1585.000000)">
                <path d="M4.718,75.168 C5.31533333,75.168 5.86133333,75.0583333 6.356,74.839 C6.85066667,74.6196667 7.27766667,74.3023333 7.637,73.887 C7.99633333,73.4716667 8.274,72.97 8.47,72.382 C8.666,71.794 8.764,71.1266667 8.764,70.38 C8.764,69.6426667 8.666,68.9823333 8.47,68.399 C8.274,67.8156667 7.99633333,67.3233333 7.637,66.922 C7.27766667,66.5206667 6.85066667,66.2126667 6.356,65.998 C5.86133333,65.7833333 5.31533333,65.676 4.718,65.676 C4.12066667,65.676 3.57466667,65.7833333 3.08,65.998 C2.58533333,66.2126667 2.16066667,66.5206667 1.806,66.922 C1.45133333,67.3233333 1.176,67.8156667 0.98,68.399 C0.784,68.9823333 0.686,69.6426667 0.686,70.38 C0.686,71.1266667 0.784,71.794 0.98,72.382 C1.176,72.97 1.45133333,73.4716667 1.806,73.887 C2.16066667,74.3023333 2.58533333,74.6196667 3.08,74.839 C3.57466667,75.0583333 4.12066667,75.168 4.718,75.168 Z M4.718,73.754 C4.354,73.754 4.02733333,73.6746667 3.738,73.516 C3.44866667,73.3573333 3.20133333,73.131 2.996,72.837 C2.79066667,72.543 2.632,72.1883333 2.52,71.773 C2.408,71.3576667 2.352,70.8933333 2.352,70.38 C2.352,69.3533333 2.56433333,68.5483333 2.989,67.965 C3.41366667,67.3816667 3.99,67.09 4.718,67.09 C5.446,67.09 6.02233333,67.3816667 6.447,67.965 C6.87166667,68.5483333 7.084,69.3533333 7.084,70.38 C7.084,70.8933333 7.028,71.3576667 6.916,71.773 C6.804,72.1883333 6.64533333,72.543 6.44,72.837 C6.23466667,73.131 5.98733333,73.3573333 5.698,73.516 C5.40866667,73.6746667 5.082,73.754 4.718,73.754 Z M12.502,75.168 C12.978,75.168 13.391,75.0606667 13.741,74.846 C14.091,74.6313333 14.4153333,74.3466667 14.714,73.992 L14.714,73.992 L14.756,73.992 L14.882,75 L16.198,75 L16.198,68.126 L14.588,68.126 L14.588,72.83 C14.3266667,73.166 14.0816667,73.4086667 13.853,73.558 C13.6243333,73.7073333 13.3606667,73.782 13.062,73.782 C12.6886667,73.782 12.418,73.6653333 12.25,73.432 C12.082,73.1986667 11.998,72.7973333 11.998,72.228 L11.998,72.228 L11.998,68.126 L10.388,68.126 L10.388,72.438 C10.388,73.3153333 10.556,73.9896667 10.892,74.461 C11.228,74.9323333 11.7646667,75.168 12.502,75.168 Z M20.664,75.168 C20.9346667,75.168 21.189,75.1423333 21.427,75.091 C21.665,75.0396667 21.8773333,74.9813333 22.064,74.916 L22.064,74.916 L21.784,73.726 C21.6813333,73.7726667 21.567,73.81 21.441,73.838 C21.315,73.866 21.1913333,73.88 21.07,73.88 C20.426,73.88 20.104,73.4786667 20.104,72.676 L20.104,72.676 L20.104,69.4 L21.854,69.4 L21.854,68.126 L20.104,68.126 L20.104,66.25 L18.76,66.25 L18.564,68.126 L17.5,68.196 L17.5,69.4 L18.48,69.4 L18.48,72.676 C18.48,73.0493333 18.5196667,73.3876667 18.599,73.691 C18.6783333,73.9943333 18.8043333,74.2556667 18.977,74.475 C19.1496667,74.6943333 19.3736667,74.8646667 19.649,74.986 C19.9243333,75.1073333 20.2626667,75.168 20.664,75.168 Z M24.864,75.168 C25.2186667,75.168 25.5033333,75.1213333 25.718,75.028 L25.718,75.028 L25.508,73.824 C25.4426667,73.8426667 25.3936667,73.852 25.361,73.852 L25.361,73.852 L25.256,73.852 C25.172,73.852 25.0926667,73.8123333 25.018,73.733 C24.9433333,73.6536667 24.906,73.516 24.906,73.32 L24.906,73.32 L24.906,65.116 L23.296,65.116 L23.296,73.236 C23.296,73.8333333 23.4126667,74.3046667 23.646,74.65 C23.8793333,74.9953333 24.2853333,75.168 24.864,75.168 Z M28.756,75.168 C29.1666667,75.168 29.547,75.0793333 29.897,74.902 C30.247,74.7246667 30.576,74.5053333 30.884,74.244 L30.884,74.244 L30.94,74.244 L31.052,75 L32.382,75 L32.382,70.926 C32.382,69.9646667 32.1696667,69.2296667 31.745,68.721 C31.3203333,68.2123333 30.6786667,67.958 29.82,67.958 C29.2693333,67.958 28.756,68.0466667 28.28,68.224 C27.804,68.4013333 27.3746667,68.6113333 26.992,68.854 L26.992,68.854 L27.58,69.932 C27.888,69.7453333 28.203,69.5866667 28.525,69.456 C28.847,69.3253333 29.176,69.26 29.512,69.26 C29.7453333,69.26 29.9413333,69.295 30.1,69.365 C30.2586667,69.435 30.387,69.533 30.485,69.659 C30.583,69.785 30.653,69.9296667 30.695,70.093 C30.737,70.2563333 30.7626667,70.4266667 30.772,70.604 C30.0626667,70.6786667 29.4536667,70.786 28.945,70.926 C28.4363333,71.066 28.0163333,71.2386667 27.685,71.444 C27.3536667,71.6493333 27.111,71.8943333 26.957,72.179 C26.803,72.4636667 26.726,72.788 26.726,73.152 C26.726,73.7586667 26.9126667,74.2463333 27.286,74.615 C27.6593333,74.9836667 28.1493333,75.168 28.756,75.168 Z M29.274,73.908 C28.9846667,73.908 28.7466667,73.838 28.56,73.698 C28.3733333,73.558 28.28,73.334 28.28,73.026 C28.28,72.858 28.322,72.6993333 28.406,72.55 C28.49,72.4006667 28.63,72.2676667 28.826,72.151 C29.022,72.0343333 29.2786667,71.9293333 29.596,71.836 C29.9133333,71.7426667 30.3053333,71.668 30.772,71.612 L30.772,71.612 L30.772,73.152 C30.5106667,73.3946667 30.2656667,73.5813333 30.037,73.712 C29.8083333,73.8426667 29.554,73.908 29.274,73.908 Z M34.776,77.828 C35.1493333,77.828 35.4783333,77.7696667 35.763,77.653 C36.0476667,77.5363333 36.2996667,77.3683333 36.519,77.149 C36.7383333,76.9296667 36.932,76.666 37.1,76.358 C37.268,76.05 37.422,75.7 37.562,75.308 L37.562,75.308 L40.054,68.126 L38.5,68.126 L37.464,71.5 C37.38,71.808 37.2936667,72.1276667 37.205,72.459 C37.1163333,72.7903333 37.03,73.1146667 36.946,73.432 L36.946,73.432 L36.89,73.432 C36.7873333,73.1053333 36.687,72.7763333 36.589,72.445 C36.491,72.1136667 36.3906667,71.7986667 36.288,71.5 L36.288,71.5 L35.098,68.126 L33.46,68.126 L36.162,74.916 L36.036,75.35 C35.924,75.6953333 35.7583333,75.9776667 35.539,76.197 C35.3196667,76.4163333 35.028,76.526 34.664,76.526 C34.58,76.526 34.4936667,76.5143333 34.405,76.491 C34.3163333,76.4676667 34.2393333,76.4466667 34.174,76.428 L34.174,76.428 L33.88,77.688 C34.0106667,77.7346667 34.146,77.7696667 34.286,77.793 C34.426,77.8163333 34.5893333,77.828 34.776,77.828 Z M43.162,75.168 C43.5913333,75.168 43.974,75.112 44.31,75 C44.646,74.888 44.926,74.7363333 45.15,74.545 C45.374,74.3536667 45.5443333,74.1296667 45.661,73.873 C45.7776667,73.6163333 45.836,73.3386667 45.836,73.04 C45.836,72.7226667 45.7776667,72.4496667 45.661,72.221 C45.5443333,71.9923333 45.3903333,71.7986667 45.199,71.64 C45.0076667,71.4813333 44.7953333,71.3483333 44.562,71.241 C44.3286667,71.1336667 44.0953333,71.038 43.862,70.954 C43.6753333,70.8886667 43.4956667,70.8233333 43.323,70.758 C43.1503333,70.6926667 42.9986667,70.6226667 42.868,70.548 C42.7373333,70.4733333 42.6323333,70.387 42.553,70.289 C42.4736667,70.191 42.434,70.072 42.434,69.932 C42.434,69.7173333 42.5156667,69.5376667 42.679,69.393 C42.8423333,69.2483333 43.0966667,69.176 43.442,69.176 C43.7126667,69.176 43.9716667,69.2296667 44.219,69.337 C44.4663333,69.4443333 44.7113333,69.5866667 44.954,69.764 L44.954,69.764 L45.696,68.784 C45.416,68.5693333 45.0846667,68.378 44.702,68.21 C44.3193333,68.042 43.89,67.958 43.414,67.958 C42.6393333,67.958 42.028,68.1493333 41.58,68.532 C41.132,68.9146667 40.908,69.4093333 40.908,70.016 C40.908,70.3053333 40.9663333,70.555 41.083,70.765 C41.1996667,70.975 41.349,71.1593333 41.531,71.318 C41.713,71.4766667 41.9206667,71.612 42.154,71.724 C42.3873333,71.836 42.616,71.934 42.84,72.018 C43.0173333,72.0926667 43.1946667,72.165 43.372,72.235 C43.5493333,72.305 43.708,72.382 43.848,72.466 C43.988,72.55 44.1,72.6456667 44.184,72.753 C44.268,72.8603333 44.31,72.984 44.31,73.124 C44.31,73.3666667 44.2213333,73.565 44.044,73.719 C43.8666667,73.873 43.5913333,73.95 43.218,73.95 C42.8633333,73.95 42.5343333,73.8823333 42.231,73.747 C41.9276667,73.6116667 41.622,73.4226667 41.314,73.18 L41.314,73.18 L40.558,74.216 C40.894,74.4866667 41.293,74.713 41.755,74.895 C42.217,75.077 42.686,75.168 43.162,75.168 Z M3.948,94.54 L3.948,93.126 C4.62,93.0326667 5.14966667,92.7713333 5.537,92.342 C5.92433333,91.9126667 6.118,91.362 6.118,90.69 C6.118,90.186 6.02233333,89.773 5.831,89.451 C5.63966667,89.129 5.39933333,88.8583333 5.11,88.639 C4.82066667,88.4196667 4.50566667,88.233 4.165,88.079 C3.82433333,87.925 3.50933333,87.7663333 3.22,87.603 C2.93066667,87.4396667 2.69033333,87.2506667 2.499,87.036 C2.30766667,86.8213333 2.212,86.546 2.212,86.21 C2.212,85.7993333 2.338,85.4726667 2.59,85.23 C2.842,84.9873333 3.18266667,84.866 3.612,84.866 C3.99466667,84.866 4.30966667,84.936 4.557,85.076 C4.80433333,85.216 5.05866667,85.412 5.32,85.664 L5.32,85.664 L5.936,84.978 C5.684,84.7073333 5.40166667,84.474 5.089,84.278 C4.77633333,84.082 4.396,83.9606667 3.948,83.914 L3.948,83.914 L3.948,82.528 L3.108,82.528 L3.108,83.942 C2.492,84.0353333 1.99966667,84.2896667 1.631,84.705 C1.26233333,85.1203333 1.078,85.6406667 1.078,86.266 C1.078,86.7233333 1.17366667,87.099 1.365,87.393 C1.55633333,87.687 1.79666667,87.9366667 2.086,88.142 C2.37533333,88.3473333 2.69033333,88.5293333 3.031,88.688 C3.37166667,88.8466667 3.68666667,89.017 3.976,89.199 C4.26533333,89.381 4.50566667,89.5956667 4.697,89.843 C4.88833333,90.0903333 4.984,90.4006667 4.984,90.774 C4.984,91.2126667 4.85566667,91.5626667 4.599,91.824 C4.34233333,92.0853333 3.95266667,92.216 3.43,92.216 C3.00066667,92.216 2.60633333,92.125 2.247,91.943 C1.88766667,91.761 1.55866667,91.5393333 1.26,91.278 L1.26,91.278 L0.728,92.076 C1.02666667,92.3466667 1.386,92.5823333 1.806,92.783 C2.226,92.9836667 2.66,93.1073333 3.108,93.154 L3.108,93.154 L3.108,94.54 L3.948,94.54 Z M10.262,93.168 C10.6726667,93.168 11.0553333,93.1096667 11.41,92.993 C11.7646667,92.8763333 12.075,92.7083333 12.341,92.489 C12.607,92.2696667 12.817,92.0013333 12.971,91.684 C13.125,91.3666667 13.202,91.012 13.202,90.62 C13.202,90.312 13.153,90.032 13.055,89.78 C12.957,89.528 12.8193333,89.3063333 12.642,89.115 C12.4646667,88.9236667 12.2593333,88.765 12.026,88.639 C11.7926667,88.513 11.5406667,88.4173333 11.27,88.352 L11.27,88.352 L11.27,88.296 C11.7553333,88.1093333 12.1473333,87.8433333 12.446,87.498 C12.7446667,87.1526667 12.894,86.7093333 12.894,86.168 C12.894,85.804 12.8286667,85.482 12.698,85.202 C12.5673333,84.922 12.383,84.6863333 12.145,84.495 C11.907,84.3036667 11.6246667,84.1566667 11.298,84.054 C10.9713333,83.9513333 10.612,83.9 10.22,83.9 C9.688,83.9 9.21433333,84.005 8.799,84.215 C8.38366667,84.425 8.00333333,84.6933333 7.658,85.02 L7.658,85.02 L8.274,85.748 C8.54466667,85.4773333 8.83633333,85.258 9.149,85.09 C9.46166667,84.922 9.80466667,84.838 10.178,84.838 C10.654,84.838 11.0296667,84.964 11.305,85.216 C11.5803333,85.468 11.718,85.8133333 11.718,86.252 C11.718,86.4853333 11.676,86.7046667 11.592,86.91 C11.508,87.1153333 11.3656667,87.2926667 11.165,87.442 C10.9643333,87.5913333 10.703,87.708 10.381,87.792 C10.059,87.876 9.66,87.918 9.184,87.918 L9.184,87.918 L9.184,88.8 C9.716,88.8 10.164,88.842 10.528,88.926 C10.892,89.01 11.186,89.1313333 11.41,89.29 C11.634,89.4486667 11.795,89.6376667 11.893,89.857 C11.991,90.0763333 12.04,90.3166667 12.04,90.578 C12.04,91.082 11.8673333,91.481 11.522,91.775 C11.1766667,92.069 10.7333333,92.216 10.192,92.216 C9.66,92.216 9.21433333,92.1086667 8.855,91.894 C8.49566667,91.6793333 8.18066667,91.432 7.91,91.152 L7.91,91.152 L7.322,91.908 C7.47133333,92.076 7.64166667,92.2346667 7.833,92.384 C8.02433333,92.5333333 8.24133333,92.6663333 8.484,92.783 C8.72666667,92.8996667 8.995,92.993 9.289,93.063 C9.583,93.133 9.90733333,93.168 10.262,93.168 Z M17.668,93.168 C18.032,93.168 18.3726667,93.098 18.69,92.958 C19.0073333,92.818 19.2873333,92.622 19.53,92.37 C19.7726667,92.118 19.964,91.817 20.104,91.467 C20.244,91.117 20.314,90.7273333 20.314,90.298 C20.314,89.374 20.083,88.6833333 19.621,88.226 C19.159,87.7686667 18.5406667,87.54 17.766,87.54 C17.402,87.54 17.0333333,87.6403333 16.66,87.841 C16.2866667,88.0416667 15.96,88.3146667 15.68,88.66 C15.6893333,87.9506667 15.7593333,87.3556667 15.89,86.875 C16.0206667,86.3943333 16.1933333,86.0046667 16.408,85.706 C16.6226667,85.4073333 16.87,85.1926667 17.15,85.062 C17.43,84.9313333 17.724,84.866 18.032,84.866 C18.312,84.866 18.5803333,84.929 18.837,85.055 C19.0936667,85.181 19.3153333,85.3513333 19.502,85.566 L19.502,85.566 L20.146,84.852 C19.894,84.5813333 19.593,84.355 19.243,84.173 C18.893,83.991 18.4753333,83.9 17.99,83.9 C17.542,83.9 17.115,83.991 16.709,84.173 C16.303,84.355 15.9413333,84.6443333 15.624,85.041 C15.3066667,85.4376667 15.0546667,85.951 14.868,86.581 C14.6813333,87.211 14.588,87.974 14.588,88.87 C14.588,89.5886667 14.6673333,90.2163333 14.826,90.753 C14.9846667,91.2896667 15.2016667,91.7376667 15.477,92.097 C15.7523333,92.4563333 16.0766667,92.7246667 16.45,92.902 C16.8233333,93.0793333 17.2293333,93.168 17.668,93.168 Z M17.668,92.258 C17.0986667,92.258 16.6483333,92.0316667 16.317,91.579 C15.9856667,91.1263333 15.7826667,90.4613333 15.708,89.584 C15.988,89.164 16.296,88.863 16.632,88.681 C16.968,88.499 17.2806667,88.408 17.57,88.408 C18.13,88.408 18.5453333,88.576 18.816,88.912 C19.0866667,89.248 19.222,89.71 19.222,90.298 C19.222,90.5966667 19.1823333,90.865 19.103,91.103 C19.0236667,91.341 18.914,91.5463333 18.774,91.719 C18.634,91.8916667 18.4706667,92.0246667 18.284,92.118 C18.0973333,92.2113333 17.892,92.258 17.668,92.258 Z M24.36,93.168 C25.256,93.168 25.956,92.7666667 26.46,91.964 C26.964,91.1613333 27.216,90.0086667 27.216,88.506 C27.216,87.0033333 26.964,85.86 26.46,85.076 C25.956,84.292 25.256,83.9 24.36,83.9 C23.4546667,83.9 22.75,84.292 22.246,85.076 C21.742,85.86 21.49,87.0033333 21.49,88.506 C21.49,90.0086667 21.742,91.1613333 22.246,91.964 C22.75,92.7666667 23.4546667,93.168 24.36,93.168 Z M24.36,92.244 C23.8373333,92.244 23.415,91.9476667 23.093,91.355 C22.771,90.7623333 22.61,89.8126667 22.61,88.506 C22.61,87.8526667 22.652,87.2926667 22.736,86.826 C22.82,86.3593333 22.939,85.979 23.093,85.685 C23.247,85.391 23.4313333,85.174 23.646,85.034 C23.8606667,84.894 24.0986667,84.824 24.36,84.824 C24.6213333,84.824 24.857,84.894 25.067,85.034 C25.277,85.174 25.459,85.391 25.613,85.685 C25.767,85.979 25.886,86.3593333 25.97,86.826 C26.054,87.2926667 26.096,87.8526667 26.096,88.506 C26.096,89.1593333 26.054,89.7216667 25.97,90.193 C25.886,90.6643333 25.767,91.0516667 25.613,91.355 C25.459,91.6583333 25.277,91.8823333 25.067,92.027 C24.857,92.1716667 24.6213333,92.244 24.36,92.244 Z M32.018,93 C32.5313333,93 33.0026667,92.944 33.432,92.832 C33.8613333,92.72 34.23,92.552 34.538,92.328 C34.846,92.104 35.084,91.824 35.252,91.488 C35.42,91.152 35.504,90.76 35.504,90.312 C35.504,89.6773333 35.3313333,89.178 34.986,88.814 C34.6406667,88.45 34.188,88.2166667 33.628,88.114 L33.628,88.114 L33.628,88.058 C34.0666667,87.918 34.4003333,87.6636667 34.629,87.295 C34.8576667,86.9263333 34.972,86.5133333 34.972,86.056 C34.972,85.6546667 34.895,85.3116667 34.741,85.027 C34.587,84.7423333 34.3723333,84.5113333 34.097,84.334 C33.8216667,84.1566667 33.4903333,84.026 33.103,83.942 C32.7156667,83.858 32.2886667,83.816 31.822,83.816 L31.822,83.816 L29.092,83.816 L29.092,93 L32.018,93 Z M31.612,87.722 L30.254,87.722 L30.254,84.74 L31.668,84.74 C32.3866667,84.74 32.9256667,84.852 33.285,85.076 C33.6443333,85.3 33.824,85.678 33.824,86.21 C33.824,86.6766667 33.6513333,87.0453333 33.306,87.316 C32.9606667,87.5866667 32.396,87.722 31.612,87.722 L31.612,87.722 Z M31.85,92.076 L30.254,92.076 L30.254,88.618 L31.85,88.618 C32.662,88.618 33.2826667,88.751 33.712,89.017 C34.1413333,89.283 34.356,89.7006667 34.356,90.27 C34.356,90.886 34.1366667,91.341 33.698,91.635 C33.2593333,91.929 32.6433333,92.076 31.85,92.076 L31.85,92.076 Z" id="Outlays$360B" fill="#666666" fill-rule="nonzero"></path>
                <path d="M120.718,75.168 C121.315333,75.168 121.861333,75.0583333 122.356,74.839 C122.850667,74.6196667 123.277667,74.3023333 123.637,73.887 C123.996333,73.4716667 124.274,72.97 124.47,72.382 C124.666,71.794 124.764,71.1266667 124.764,70.38 C124.764,69.6426667 124.666,68.9823333 124.47,68.399 C124.274,67.8156667 123.996333,67.3233333 123.637,66.922 C123.277667,66.5206667 122.850667,66.2126667 122.356,65.998 C121.861333,65.7833333 121.315333,65.676 120.718,65.676 C120.120667,65.676 119.574667,65.7833333 119.08,65.998 C118.585333,66.2126667 118.160667,66.5206667 117.806,66.922 C117.451333,67.3233333 117.176,67.8156667 116.98,68.399 C116.784,68.9823333 116.686,69.6426667 116.686,70.38 C116.686,71.1266667 116.784,71.794 116.98,72.382 C117.176,72.97 117.451333,73.4716667 117.806,73.887 C118.160667,74.3023333 118.585333,74.6196667 119.08,74.839 C119.574667,75.0583333 120.120667,75.168 120.718,75.168 Z M120.718,73.754 C120.354,73.754 120.027333,73.6746667 119.738,73.516 C119.448667,73.3573333 119.201333,73.131 118.996,72.837 C118.790667,72.543 118.632,72.1883333 118.52,71.773 C118.408,71.3576667 118.352,70.8933333 118.352,70.38 C118.352,69.3533333 118.564333,68.5483333 118.989,67.965 C119.413667,67.3816667 119.99,67.09 120.718,67.09 C121.446,67.09 122.022333,67.3816667 122.447,67.965 C122.871667,68.5483333 123.084,69.3533333 123.084,70.38 C123.084,70.8933333 123.028,71.3576667 122.916,71.773 C122.804,72.1883333 122.645333,72.543 122.44,72.837 C122.234667,73.131 121.987333,73.3573333 121.698,73.516 C121.408667,73.6746667 121.082,73.754 120.718,73.754 Z M129.79,75.168 C130.172667,75.168 130.541333,75.084 130.896,74.916 C131.250667,74.748 131.563333,74.5053333 131.834,74.188 C132.104667,73.8706667 132.321667,73.481 132.485,73.019 C132.648333,72.557 132.73,72.032 132.73,71.444 C132.73,70.912 132.669333,70.4313333 132.548,70.002 C132.426667,69.5726667 132.249333,69.2063333 132.016,68.903 C131.782667,68.5996667 131.498,68.3663333 131.162,68.203 C130.826,68.0396667 130.443333,67.958 130.014,67.958 C129.659333,67.958 129.311667,68.0373333 128.971,68.196 C128.630333,68.3546667 128.315333,68.56 128.026,68.812 L128.026,68.812 L128.068,67.664 L128.068,65.116 L126.458,65.116 L126.458,75 L127.732,75 L127.872,74.272 L127.914,74.272 C128.203333,74.5613333 128.509,74.783 128.831,74.937 C129.153,75.091 129.472667,75.168 129.79,75.168 Z M129.454,73.838 C129.248667,73.838 129.027,73.796 128.789,73.712 C128.551,73.628 128.310667,73.4786667 128.068,73.264 L128.068,73.264 L128.068,70.058 C128.590667,69.5446667 129.094667,69.288 129.58,69.288 C130.102667,69.288 130.480667,69.4793333 130.714,69.862 C130.947333,70.2446667 131.064,70.7813333 131.064,71.472 C131.064,72.256 130.91,72.8463333 130.602,73.243 C130.294,73.6396667 129.911333,73.838 129.454,73.838 Z M135.908,75.168 C136.262667,75.168 136.547333,75.1213333 136.762,75.028 L136.762,75.028 L136.552,73.824 C136.486667,73.8426667 136.437667,73.852 136.405,73.852 L136.405,73.852 L136.3,73.852 C136.216,73.852 136.136667,73.8123333 136.062,73.733 C135.987333,73.6536667 135.95,73.516 135.95,73.32 L135.95,73.32 L135.95,65.116 L134.34,65.116 L134.34,73.236 C134.34,73.8333333 134.456667,74.3046667 134.69,74.65 C134.923333,74.9953333 135.329333,75.168 135.908,75.168 Z M138.946,66.922 C139.235333,66.922 139.473333,66.838 139.66,66.67 C139.846667,66.502 139.94,66.2826667 139.94,66.012 C139.94,65.7413333 139.846667,65.5196667 139.66,65.347 C139.473333,65.1743333 139.235333,65.088 138.946,65.088 C138.656667,65.088 138.418667,65.1743333 138.232,65.347 C138.045333,65.5196667 137.952,65.7413333 137.952,66.012 C137.952,66.2826667 138.045333,66.502 138.232,66.67 C138.418667,66.838 138.656667,66.922 138.946,66.922 Z M139.744,75 L139.744,68.126 L138.134,68.126 L138.134,75 L139.744,75 Z M144.196,78.038 C144.756,78.038 145.262333,77.975 145.715,77.849 C146.167667,77.723 146.552667,77.5526667 146.87,77.338 C147.187333,77.1233333 147.432333,76.8666667 147.605,76.568 C147.777667,76.2693333 147.864,75.952 147.864,75.616 C147.864,75.0186667 147.651667,74.587 147.227,74.321 C146.802333,74.055 146.174667,73.922 145.344,73.922 L145.344,73.922 L144.126,73.922 C143.706,73.922 143.414333,73.866 143.251,73.754 C143.087667,73.642 143.006,73.488 143.006,73.292 C143.006,73.1333333 143.036333,73.0073333 143.097,72.914 C143.157667,72.8206667 143.239333,72.7273333 143.342,72.634 C143.500667,72.6993333 143.659333,72.746 143.818,72.774 C143.976667,72.802 144.130667,72.816 144.28,72.816 C144.644,72.816 144.984667,72.7646667 145.302,72.662 C145.619333,72.5593333 145.894667,72.41 146.128,72.214 C146.361333,72.018 146.545667,71.7753333 146.681,71.486 C146.816333,71.1966667 146.884,70.8606667 146.884,70.478 C146.884,70.2353333 146.846667,70.0136667 146.772,69.813 C146.697333,69.6123333 146.604,69.4466667 146.492,69.316 L146.492,69.316 L147.752,69.316 L147.752,68.126 L145.288,68.126 C145.148,68.0793333 144.991667,68.0396667 144.819,68.007 C144.646333,67.9743333 144.466667,67.958 144.28,67.958 C143.916,67.958 143.570667,68.0116667 143.244,68.119 C142.917333,68.2263333 142.630333,68.385 142.383,68.595 C142.135667,68.805 141.937333,69.064 141.788,69.372 C141.638667,69.68 141.564,70.03 141.564,70.422 C141.564,70.8326667 141.655,71.1943333 141.837,71.507 C142.019,71.8196667 142.226667,72.0646667 142.46,72.242 L142.46,72.242 L142.46,72.298 C142.264,72.438 142.089,72.6176667 141.935,72.837 C141.781,73.0563333 141.704,73.3013333 141.704,73.572 C141.704,73.852 141.762333,74.0853333 141.879,74.272 C141.995667,74.4586667 142.142667,74.608 142.32,74.72 L142.32,74.72 L142.32,74.776 C142.002667,74.972 141.76,75.1936667 141.592,75.441 C141.424,75.6883333 141.34,75.9566667 141.34,76.246 C141.34,76.5446667 141.412333,76.806 141.557,77.03 C141.701667,77.254 141.9,77.4406667 142.152,77.59 C142.404,77.7393333 142.705,77.8513333 143.055,77.926 C143.405,78.0006667 143.785333,78.038 144.196,78.038 Z M144.28,71.808 C143.944,71.808 143.659333,71.689 143.426,71.451 C143.192667,71.213 143.076,70.87 143.076,70.422 C143.076,69.9833333 143.192667,69.6473333 143.426,69.414 C143.659333,69.1806667 143.944,69.064 144.28,69.064 C144.616,69.064 144.898333,69.183 145.127,69.421 C145.355667,69.659 145.47,69.9926667 145.47,70.422 C145.47,70.87 145.353333,71.213 145.12,71.451 C144.886667,71.689 144.606667,71.808 144.28,71.808 Z M144.448,76.988 C143.897333,76.988 143.465667,76.9016667 143.153,76.729 C142.840333,76.5563333 142.684,76.316 142.684,76.008 C142.684,75.672 142.861333,75.3686667 143.216,75.098 C143.468,75.1633333 143.780667,75.196 144.154,75.196 L144.154,75.196 L145.092,75.196 C145.484,75.196 145.785,75.2426667 145.995,75.336 C146.205,75.4293333 146.31,75.6113333 146.31,75.882 C146.31,76.1806667 146.139667,76.4396667 145.799,76.659 C145.458333,76.8783333 145.008,76.988 144.448,76.988 Z M150.496,75.168 C150.906667,75.168 151.287,75.0793333 151.637,74.902 C151.987,74.7246667 152.316,74.5053333 152.624,74.244 L152.624,74.244 L152.68,74.244 L152.792,75 L154.122,75 L154.122,70.926 C154.122,69.9646667 153.909667,69.2296667 153.485,68.721 C153.060333,68.2123333 152.418667,67.958 151.56,67.958 C151.009333,67.958 150.496,68.0466667 150.02,68.224 C149.544,68.4013333 149.114667,68.6113333 148.732,68.854 L148.732,68.854 L149.32,69.932 C149.628,69.7453333 149.943,69.5866667 150.265,69.456 C150.587,69.3253333 150.916,69.26 151.252,69.26 C151.485333,69.26 151.681333,69.295 151.84,69.365 C151.998667,69.435 152.127,69.533 152.225,69.659 C152.323,69.785 152.393,69.9296667 152.435,70.093 C152.477,70.2563333 152.502667,70.4266667 152.512,70.604 C151.802667,70.6786667 151.193667,70.786 150.685,70.926 C150.176333,71.066 149.756333,71.2386667 149.425,71.444 C149.093667,71.6493333 148.851,71.8943333 148.697,72.179 C148.543,72.4636667 148.466,72.788 148.466,73.152 C148.466,73.7586667 148.652667,74.2463333 149.026,74.615 C149.399333,74.9836667 149.889333,75.168 150.496,75.168 Z M151.014,73.908 C150.724667,73.908 150.486667,73.838 150.3,73.698 C150.113333,73.558 150.02,73.334 150.02,73.026 C150.02,72.858 150.062,72.6993333 150.146,72.55 C150.23,72.4006667 150.37,72.2676667 150.566,72.151 C150.762,72.0343333 151.018667,71.9293333 151.336,71.836 C151.653333,71.7426667 152.045333,71.668 152.512,71.612 L152.512,71.612 L152.512,73.152 C152.250667,73.3946667 152.005667,73.5813333 151.777,73.712 C151.548333,73.8426667 151.294,73.908 151.014,73.908 Z M158.252,75.168 C158.522667,75.168 158.777,75.1423333 159.015,75.091 C159.253,75.0396667 159.465333,74.9813333 159.652,74.916 L159.652,74.916 L159.372,73.726 C159.269333,73.7726667 159.155,73.81 159.029,73.838 C158.903,73.866 158.779333,73.88 158.658,73.88 C158.014,73.88 157.692,73.4786667 157.692,72.676 L157.692,72.676 L157.692,69.4 L159.442,69.4 L159.442,68.126 L157.692,68.126 L157.692,66.25 L156.348,66.25 L156.152,68.126 L155.088,68.196 L155.088,69.4 L156.068,69.4 L156.068,72.676 C156.068,73.0493333 156.107667,73.3876667 156.187,73.691 C156.266333,73.9943333 156.392333,74.2556667 156.565,74.475 C156.737667,74.6943333 156.961667,74.8646667 157.237,74.986 C157.512333,75.1073333 157.850667,75.168 158.252,75.168 Z M161.696,66.922 C161.985333,66.922 162.223333,66.838 162.41,66.67 C162.596667,66.502 162.69,66.2826667 162.69,66.012 C162.69,65.7413333 162.596667,65.5196667 162.41,65.347 C162.223333,65.1743333 161.985333,65.088 161.696,65.088 C161.406667,65.088 161.168667,65.1743333 160.982,65.347 C160.795333,65.5196667 160.702,65.7413333 160.702,66.012 C160.702,66.2826667 160.795333,66.502 160.982,66.67 C161.168667,66.838 161.406667,66.922 161.696,66.922 Z M162.494,75 L162.494,68.126 L160.884,68.126 L160.884,75 L162.494,75 Z M167.366,75.168 C167.795333,75.168 168.208333,75.0886667 168.605,74.93 C169.001667,74.7713333 169.349333,74.538 169.648,74.23 C169.946667,73.922 170.187,73.544 170.369,73.096 C170.551,72.648 170.642,72.1393333 170.642,71.57 C170.642,71.0006667 170.551,70.492 170.369,70.044 C170.187,69.596 169.946667,69.218 169.648,68.91 C169.349333,68.602 169.001667,68.3663333 168.605,68.203 C168.208333,68.0396667 167.795333,67.958 167.366,67.958 C166.936667,67.958 166.526,68.0396667 166.134,68.203 C165.742,68.3663333 165.394333,68.602 165.091,68.91 C164.787667,69.218 164.547333,69.596 164.37,70.044 C164.192667,70.492 164.104,71.0006667 164.104,71.57 C164.104,72.1393333 164.192667,72.648 164.37,73.096 C164.547333,73.544 164.787667,73.922 165.091,74.23 C165.394333,74.538 165.742,74.7713333 166.134,74.93 C166.526,75.0886667 166.936667,75.168 167.366,75.168 Z M167.366,73.852 C166.862,73.852 166.467667,73.6443333 166.183,73.229 C165.898333,72.8136667 165.756,72.2606667 165.756,71.57 C165.756,70.87 165.898333,70.3123333 166.183,69.897 C166.467667,69.4816667 166.862,69.274 167.366,69.274 C167.87,69.274 168.266667,69.4816667 168.556,69.897 C168.845333,70.3123333 168.99,70.87 168.99,71.57 C168.99,72.2606667 168.845333,72.8136667 168.556,73.229 C168.266667,73.6443333 167.87,73.852 167.366,73.852 Z M173.848,75 L173.848,70.198 C174.137333,69.918 174.396333,69.7056667 174.625,69.561 C174.853667,69.4163333 175.117333,69.344 175.416,69.344 C175.798667,69.344 176.074,69.4606667 176.242,69.694 C176.41,69.9273333 176.494,70.3286667 176.494,70.898 L176.494,70.898 L176.494,75 L178.104,75 L178.104,70.688 C178.104,69.8106667 177.936,69.1363333 177.6,68.665 C177.264,68.1936667 176.727333,67.958 175.99,67.958 C175.514,67.958 175.096333,68.0653333 174.737,68.28 C174.377667,68.4946667 174.044,68.7513333 173.736,69.05 L173.736,69.05 L173.68,69.05 L173.568,68.126 L172.238,68.126 L172.238,75 L173.848,75 Z M181.996,75.168 C182.425333,75.168 182.808,75.112 183.144,75 C183.48,74.888 183.76,74.7363333 183.984,74.545 C184.208,74.3536667 184.378333,74.1296667 184.495,73.873 C184.611667,73.6163333 184.67,73.3386667 184.67,73.04 C184.67,72.7226667 184.611667,72.4496667 184.495,72.221 C184.378333,71.9923333 184.224333,71.7986667 184.033,71.64 C183.841667,71.4813333 183.629333,71.3483333 183.396,71.241 C183.162667,71.1336667 182.929333,71.038 182.696,70.954 C182.509333,70.8886667 182.329667,70.8233333 182.157,70.758 C181.984333,70.6926667 181.832667,70.6226667 181.702,70.548 C181.571333,70.4733333 181.466333,70.387 181.387,70.289 C181.307667,70.191 181.268,70.072 181.268,69.932 C181.268,69.7173333 181.349667,69.5376667 181.513,69.393 C181.676333,69.2483333 181.930667,69.176 182.276,69.176 C182.546667,69.176 182.805667,69.2296667 183.053,69.337 C183.300333,69.4443333 183.545333,69.5866667 183.788,69.764 L183.788,69.764 L184.53,68.784 C184.25,68.5693333 183.918667,68.378 183.536,68.21 C183.153333,68.042 182.724,67.958 182.248,67.958 C181.473333,67.958 180.862,68.1493333 180.414,68.532 C179.966,68.9146667 179.742,69.4093333 179.742,70.016 C179.742,70.3053333 179.800333,70.555 179.917,70.765 C180.033667,70.975 180.183,71.1593333 180.365,71.318 C180.547,71.4766667 180.754667,71.612 180.988,71.724 C181.221333,71.836 181.45,71.934 181.674,72.018 C181.851333,72.0926667 182.028667,72.165 182.206,72.235 C182.383333,72.305 182.542,72.382 182.682,72.466 C182.822,72.55 182.934,72.6456667 183.018,72.753 C183.102,72.8603333 183.144,72.984 183.144,73.124 C183.144,73.3666667 183.055333,73.565 182.878,73.719 C182.700667,73.873 182.425333,73.95 182.052,73.95 C181.697333,73.95 181.368333,73.8823333 181.065,73.747 C180.761667,73.6116667 180.456,73.4226667 180.148,73.18 L180.148,73.18 L179.392,74.216 C179.728,74.4866667 180.127,74.713 180.589,74.895 C181.051,75.077 181.52,75.168 181.996,75.168 Z M119.948,94.54 L119.948,93.126 C120.62,93.0326667 121.149667,92.7713333 121.537,92.342 C121.924333,91.9126667 122.118,91.362 122.118,90.69 C122.118,90.186 122.022333,89.773 121.831,89.451 C121.639667,89.129 121.399333,88.8583333 121.11,88.639 C120.820667,88.4196667 120.505667,88.233 120.165,88.079 C119.824333,87.925 119.509333,87.7663333 119.22,87.603 C118.930667,87.4396667 118.690333,87.2506667 118.499,87.036 C118.307667,86.8213333 118.212,86.546 118.212,86.21 C118.212,85.7993333 118.338,85.4726667 118.59,85.23 C118.842,84.9873333 119.182667,84.866 119.612,84.866 C119.994667,84.866 120.309667,84.936 120.557,85.076 C120.804333,85.216 121.058667,85.412 121.32,85.664 L121.32,85.664 L121.936,84.978 C121.684,84.7073333 121.401667,84.474 121.089,84.278 C120.776333,84.082 120.396,83.9606667 119.948,83.914 L119.948,83.914 L119.948,82.528 L119.108,82.528 L119.108,83.942 C118.492,84.0353333 117.999667,84.2896667 117.631,84.705 C117.262333,85.1203333 117.078,85.6406667 117.078,86.266 C117.078,86.7233333 117.173667,87.099 117.365,87.393 C117.556333,87.687 117.796667,87.9366667 118.086,88.142 C118.375333,88.3473333 118.690333,88.5293333 119.031,88.688 C119.371667,88.8466667 119.686667,89.017 119.976,89.199 C120.265333,89.381 120.505667,89.5956667 120.697,89.843 C120.888333,90.0903333 120.984,90.4006667 120.984,90.774 C120.984,91.2126667 120.855667,91.5626667 120.599,91.824 C120.342333,92.0853333 119.952667,92.216 119.43,92.216 C119.000667,92.216 118.606333,92.125 118.247,91.943 C117.887667,91.761 117.558667,91.5393333 117.26,91.278 L117.26,91.278 L116.728,92.076 C117.026667,92.3466667 117.386,92.5823333 117.806,92.783 C118.226,92.9836667 118.66,93.1073333 119.108,93.154 L119.108,93.154 L119.108,94.54 L119.948,94.54 Z M126.262,93.168 C126.672667,93.168 127.055333,93.1096667 127.41,92.993 C127.764667,92.8763333 128.075,92.7083333 128.341,92.489 C128.607,92.2696667 128.817,92.0013333 128.971,91.684 C129.125,91.3666667 129.202,91.012 129.202,90.62 C129.202,90.312 129.153,90.032 129.055,89.78 C128.957,89.528 128.819333,89.3063333 128.642,89.115 C128.464667,88.9236667 128.259333,88.765 128.026,88.639 C127.792667,88.513 127.540667,88.4173333 127.27,88.352 L127.27,88.352 L127.27,88.296 C127.755333,88.1093333 128.147333,87.8433333 128.446,87.498 C128.744667,87.1526667 128.894,86.7093333 128.894,86.168 C128.894,85.804 128.828667,85.482 128.698,85.202 C128.567333,84.922 128.383,84.6863333 128.145,84.495 C127.907,84.3036667 127.624667,84.1566667 127.298,84.054 C126.971333,83.9513333 126.612,83.9 126.22,83.9 C125.688,83.9 125.214333,84.005 124.799,84.215 C124.383667,84.425 124.003333,84.6933333 123.658,85.02 L123.658,85.02 L124.274,85.748 C124.544667,85.4773333 124.836333,85.258 125.149,85.09 C125.461667,84.922 125.804667,84.838 126.178,84.838 C126.654,84.838 127.029667,84.964 127.305,85.216 C127.580333,85.468 127.718,85.8133333 127.718,86.252 C127.718,86.4853333 127.676,86.7046667 127.592,86.91 C127.508,87.1153333 127.365667,87.2926667 127.165,87.442 C126.964333,87.5913333 126.703,87.708 126.381,87.792 C126.059,87.876 125.66,87.918 125.184,87.918 L125.184,87.918 L125.184,88.8 C125.716,88.8 126.164,88.842 126.528,88.926 C126.892,89.01 127.186,89.1313333 127.41,89.29 C127.634,89.4486667 127.795,89.6376667 127.893,89.857 C127.991,90.0763333 128.04,90.3166667 128.04,90.578 C128.04,91.082 127.867333,91.481 127.522,91.775 C127.176667,92.069 126.733333,92.216 126.192,92.216 C125.66,92.216 125.214333,92.1086667 124.855,91.894 C124.495667,91.6793333 124.180667,91.432 123.91,91.152 L123.91,91.152 L123.322,91.908 C123.471333,92.076 123.641667,92.2346667 123.833,92.384 C124.024333,92.5333333 124.241333,92.6663333 124.484,92.783 C124.726667,92.8996667 124.995,92.993 125.289,93.063 C125.583,93.133 125.907333,93.168 126.262,93.168 Z M133.584,93 C133.621333,92.132 133.684333,91.341 133.773,90.627 C133.861667,89.913 134.004,89.2363333 134.2,88.597 C134.396,87.9576667 134.659667,87.33 134.991,86.714 C135.322333,86.098 135.754,85.454 136.286,84.782 L136.286,84.782 L136.286,84.068 L130.532,84.068 L130.532,85.062 L134.984,85.062 C134.545333,85.678 134.169667,86.28 133.857,86.868 C133.544333,87.456 133.287667,88.065 133.087,88.695 C132.886333,89.325 132.73,89.99 132.618,90.69 C132.506,91.39 132.431333,92.16 132.394,93 L132.394,93 L133.584,93 Z M140.374,93.168 C140.803333,93.168 141.195333,93.1073333 141.55,92.986 C141.904667,92.8646667 142.208,92.6966667 142.46,92.482 C142.712,92.2673333 142.908,92.0153333 143.048,91.726 C143.188,91.4366667 143.258,91.124 143.258,90.788 C143.258,90.4893333 143.213667,90.2233333 143.125,89.99 C143.036333,89.7566667 142.919667,89.549 142.775,89.367 C142.630333,89.185 142.464667,89.0216667 142.278,88.877 C142.091333,88.7323333 141.9,88.604 141.704,88.492 L141.704,88.492 L141.704,88.436 C141.844,88.3333333 141.986333,88.2073333 142.131,88.058 C142.275667,87.9086667 142.406333,87.7406667 142.523,87.554 C142.639667,87.3673333 142.737667,87.1666667 142.817,86.952 C142.896333,86.7373333 142.936,86.5133333 142.936,86.28 C142.936,85.9346667 142.877667,85.615 142.761,85.321 C142.644333,85.027 142.476333,84.775 142.257,84.565 C142.037667,84.355 141.774,84.1916667 141.466,84.075 C141.158,83.9583333 140.808,83.9 140.416,83.9 C140.052,83.9 139.716,83.956 139.408,84.068 C139.1,84.18 138.834,84.3363333 138.61,84.537 C138.386,84.7376667 138.208667,84.978 138.078,85.258 C137.947333,85.538 137.882,85.8506667 137.882,86.196 C137.882,86.672 138.008,87.0756667 138.26,87.407 C138.512,87.7383333 138.801333,88.0206667 139.128,88.254 L139.128,88.254 L139.128,88.31 C138.913333,88.422 138.705667,88.555 138.505,88.709 C138.304333,88.863 138.127,89.0403333 137.973,89.241 C137.819,89.4416667 137.693,89.6656667 137.595,89.913 C137.497,90.1603333 137.448,90.4286667 137.448,90.718 C137.448,91.0726667 137.522667,91.3993333 137.672,91.698 C137.821333,91.9966667 138.024333,92.2556667 138.281,92.475 C138.537667,92.6943333 138.845667,92.8646667 139.205,92.986 C139.564333,93.1073333 139.954,93.168 140.374,93.168 Z M141.004,88.128 C140.733333,88.0253333 140.474333,87.9156667 140.227,87.799 C139.979667,87.6823333 139.760333,87.5493333 139.569,87.4 C139.377667,87.2506667 139.226,87.0803333 139.114,86.889 C139.002,86.6976667 138.946,86.4666667 138.946,86.196 C138.946,85.7573333 139.081333,85.4073333 139.352,85.146 C139.622667,84.8846667 139.968,84.754 140.388,84.754 C140.882667,84.754 141.265333,84.9056667 141.536,85.209 C141.806667,85.5123333 141.942,85.888 141.942,86.336 C141.942,86.6626667 141.860333,86.9753333 141.697,87.274 C141.533667,87.5726667 141.302667,87.8573333 141.004,88.128 Z M140.402,92.314 C140.131333,92.314 139.879333,92.272 139.646,92.188 C139.412667,92.104 139.209667,91.985 139.037,91.831 C138.864333,91.677 138.729,91.4973333 138.631,91.292 C138.533,91.0866667 138.484,90.858 138.484,90.606 C138.484,90.1953333 138.603,89.829 138.841,89.507 C139.079,89.185 139.375333,88.9026667 139.73,88.66 C140.047333,88.7906667 140.353,88.919 140.647,89.045 C140.941,89.171 141.2,89.311 141.424,89.465 C141.648,89.619 141.825333,89.7986667 141.956,90.004 C142.086667,90.2093333 142.152,90.4566667 142.152,90.746 C142.152,91.2126667 141.991,91.5906667 141.669,91.88 C141.347,92.1693333 140.924667,92.314 140.402,92.314 Z M148.018,93 C148.531333,93 149.002667,92.944 149.432,92.832 C149.861333,92.72 150.23,92.552 150.538,92.328 C150.846,92.104 151.084,91.824 151.252,91.488 C151.42,91.152 151.504,90.76 151.504,90.312 C151.504,89.6773333 151.331333,89.178 150.986,88.814 C150.640667,88.45 150.188,88.2166667 149.628,88.114 L149.628,88.114 L149.628,88.058 C150.066667,87.918 150.400333,87.6636667 150.629,87.295 C150.857667,86.9263333 150.972,86.5133333 150.972,86.056 C150.972,85.6546667 150.895,85.3116667 150.741,85.027 C150.587,84.7423333 150.372333,84.5113333 150.097,84.334 C149.821667,84.1566667 149.490333,84.026 149.103,83.942 C148.715667,83.858 148.288667,83.816 147.822,83.816 L147.822,83.816 L145.092,83.816 L145.092,93 L148.018,93 Z M147.612,87.722 L146.254,87.722 L146.254,84.74 L147.668,84.74 C148.386667,84.74 148.925667,84.852 149.285,85.076 C149.644333,85.3 149.824,85.678 149.824,86.21 C149.824,86.6766667 149.651333,87.0453333 149.306,87.316 C148.960667,87.5866667 148.396,87.722 147.612,87.722 L147.612,87.722 Z M147.85,92.076 L146.254,92.076 L146.254,88.618 L147.85,88.618 C148.662,88.618 149.282667,88.751 149.712,89.017 C150.141333,89.283 150.356,89.7006667 150.356,90.27 C150.356,90.886 150.136667,91.341 149.698,91.635 C149.259333,91.929 148.643333,92.076 147.85,92.076 L147.85,92.076 Z" id="Obligations$378B" fill="#666666" fill-rule="nonzero"></path>
                <path d="M280.592,75.168 C281.124,75.168 281.602333,75.091 282.027,74.937 C282.451667,74.783 282.815667,74.538 283.119,74.202 C283.422333,73.866 283.653333,73.4343333 283.812,72.907 C283.970667,72.3796667 284.05,71.738 284.05,70.982 L284.05,70.982 L284.05,65.844 L282.496,65.844 L282.496,71.108 C282.496,71.6026667 282.449333,72.0203333 282.356,72.361 C282.262667,72.7016667 282.132,72.9746667 281.964,73.18 C281.796,73.3853333 281.595333,73.5323333 281.362,73.621 C281.128667,73.7096667 280.872,73.754 280.592,73.754 C280.312,73.754 280.06,73.7096667 279.836,73.621 C279.612,73.5323333 279.418333,73.3853333 279.255,73.18 C279.091667,72.9746667 278.965667,72.7016667 278.877,72.361 C278.788333,72.0203333 278.744,71.6026667 278.744,71.108 L278.744,71.108 L278.744,65.844 L277.12,65.844 L277.12,70.982 C277.12,71.738 277.201667,72.3796667 277.365,72.907 C277.528333,73.4343333 277.761667,73.866 278.065,74.202 C278.368333,74.538 278.732333,74.783 279.157,74.937 C279.581667,75.091 280.06,75.168 280.592,75.168 Z M287.802,75 L287.802,70.198 C288.091333,69.918 288.350333,69.7056667 288.579,69.561 C288.807667,69.4163333 289.071333,69.344 289.37,69.344 C289.752667,69.344 290.028,69.4606667 290.196,69.694 C290.364,69.9273333 290.448,70.3286667 290.448,70.898 L290.448,70.898 L290.448,75 L292.058,75 L292.058,70.688 C292.058,69.8106667 291.89,69.1363333 291.554,68.665 C291.218,68.1936667 290.681333,67.958 289.944,67.958 C289.468,67.958 289.050333,68.0653333 288.691,68.28 C288.331667,68.4946667 287.998,68.7513333 287.69,69.05 L287.69,69.05 L287.634,69.05 L287.522,68.126 L286.192,68.126 L286.192,75 L287.802,75 Z M296.846,75.168 C297.275333,75.168 297.688333,75.0886667 298.085,74.93 C298.481667,74.7713333 298.829333,74.538 299.128,74.23 C299.426667,73.922 299.667,73.544 299.849,73.096 C300.031,72.648 300.122,72.1393333 300.122,71.57 C300.122,71.0006667 300.031,70.492 299.849,70.044 C299.667,69.596 299.426667,69.218 299.128,68.91 C298.829333,68.602 298.481667,68.3663333 298.085,68.203 C297.688333,68.0396667 297.275333,67.958 296.846,67.958 C296.416667,67.958 296.006,68.0396667 295.614,68.203 C295.222,68.3663333 294.874333,68.602 294.571,68.91 C294.267667,69.218 294.027333,69.596 293.85,70.044 C293.672667,70.492 293.584,71.0006667 293.584,71.57 C293.584,72.1393333 293.672667,72.648 293.85,73.096 C294.027333,73.544 294.267667,73.922 294.571,74.23 C294.874333,74.538 295.222,74.7713333 295.614,74.93 C296.006,75.0886667 296.416667,75.168 296.846,75.168 Z M296.846,73.852 C296.342,73.852 295.947667,73.6443333 295.663,73.229 C295.378333,72.8136667 295.236,72.2606667 295.236,71.57 C295.236,70.87 295.378333,70.3123333 295.663,69.897 C295.947667,69.4816667 296.342,69.274 296.846,69.274 C297.35,69.274 297.746667,69.4816667 298.036,69.897 C298.325333,70.3123333 298.47,70.87 298.47,71.57 C298.47,72.2606667 298.325333,72.8136667 298.036,73.229 C297.746667,73.6443333 297.35,73.852 296.846,73.852 Z M305.05,75.168 C305.432667,75.168 305.801333,75.084 306.156,74.916 C306.510667,74.748 306.823333,74.5053333 307.094,74.188 C307.364667,73.8706667 307.581667,73.481 307.745,73.019 C307.908333,72.557 307.99,72.032 307.99,71.444 C307.99,70.912 307.929333,70.4313333 307.808,70.002 C307.686667,69.5726667 307.509333,69.2063333 307.276,68.903 C307.042667,68.5996667 306.758,68.3663333 306.422,68.203 C306.086,68.0396667 305.703333,67.958 305.274,67.958 C304.919333,67.958 304.571667,68.0373333 304.231,68.196 C303.890333,68.3546667 303.575333,68.56 303.286,68.812 L303.286,68.812 L303.328,67.664 L303.328,65.116 L301.718,65.116 L301.718,75 L302.992,75 L303.132,74.272 L303.174,74.272 C303.463333,74.5613333 303.769,74.783 304.091,74.937 C304.413,75.091 304.732667,75.168 305.05,75.168 Z M304.714,73.838 C304.508667,73.838 304.287,73.796 304.049,73.712 C303.811,73.628 303.570667,73.4786667 303.328,73.264 L303.328,73.264 L303.328,70.058 C303.850667,69.5446667 304.354667,69.288 304.84,69.288 C305.362667,69.288 305.740667,69.4793333 305.974,69.862 C306.207333,70.2446667 306.324,70.7813333 306.324,71.472 C306.324,72.256 306.17,72.8463333 305.862,73.243 C305.554,73.6396667 305.171333,73.838 304.714,73.838 Z M311.168,75.168 C311.522667,75.168 311.807333,75.1213333 312.022,75.028 L312.022,75.028 L311.812,73.824 C311.746667,73.8426667 311.697667,73.852 311.665,73.852 L311.665,73.852 L311.56,73.852 C311.476,73.852 311.396667,73.8123333 311.322,73.733 C311.247333,73.6536667 311.21,73.516 311.21,73.32 L311.21,73.32 L311.21,65.116 L309.6,65.116 L309.6,73.236 C309.6,73.8333333 309.716667,74.3046667 309.95,74.65 C310.183333,74.9953333 310.589333,75.168 311.168,75.168 Z M314.206,66.922 C314.495333,66.922 314.733333,66.838 314.92,66.67 C315.106667,66.502 315.2,66.2826667 315.2,66.012 C315.2,65.7413333 315.106667,65.5196667 314.92,65.347 C314.733333,65.1743333 314.495333,65.088 314.206,65.088 C313.916667,65.088 313.678667,65.1743333 313.492,65.347 C313.305333,65.5196667 313.212,65.7413333 313.212,66.012 C313.212,66.2826667 313.305333,66.502 313.492,66.67 C313.678667,66.838 313.916667,66.922 314.206,66.922 Z M315.004,75 L315.004,68.126 L313.394,68.126 L313.394,75 L315.004,75 Z M319.456,78.038 C320.016,78.038 320.522333,77.975 320.975,77.849 C321.427667,77.723 321.812667,77.5526667 322.13,77.338 C322.447333,77.1233333 322.692333,76.8666667 322.865,76.568 C323.037667,76.2693333 323.124,75.952 323.124,75.616 C323.124,75.0186667 322.911667,74.587 322.487,74.321 C322.062333,74.055 321.434667,73.922 320.604,73.922 L320.604,73.922 L319.386,73.922 C318.966,73.922 318.674333,73.866 318.511,73.754 C318.347667,73.642 318.266,73.488 318.266,73.292 C318.266,73.1333333 318.296333,73.0073333 318.357,72.914 C318.417667,72.8206667 318.499333,72.7273333 318.602,72.634 C318.760667,72.6993333 318.919333,72.746 319.078,72.774 C319.236667,72.802 319.390667,72.816 319.54,72.816 C319.904,72.816 320.244667,72.7646667 320.562,72.662 C320.879333,72.5593333 321.154667,72.41 321.388,72.214 C321.621333,72.018 321.805667,71.7753333 321.941,71.486 C322.076333,71.1966667 322.144,70.8606667 322.144,70.478 C322.144,70.2353333 322.106667,70.0136667 322.032,69.813 C321.957333,69.6123333 321.864,69.4466667 321.752,69.316 L321.752,69.316 L323.012,69.316 L323.012,68.126 L320.548,68.126 C320.408,68.0793333 320.251667,68.0396667 320.079,68.007 C319.906333,67.9743333 319.726667,67.958 319.54,67.958 C319.176,67.958 318.830667,68.0116667 318.504,68.119 C318.177333,68.2263333 317.890333,68.385 317.643,68.595 C317.395667,68.805 317.197333,69.064 317.048,69.372 C316.898667,69.68 316.824,70.03 316.824,70.422 C316.824,70.8326667 316.915,71.1943333 317.097,71.507 C317.279,71.8196667 317.486667,72.0646667 317.72,72.242 L317.72,72.242 L317.72,72.298 C317.524,72.438 317.349,72.6176667 317.195,72.837 C317.041,73.0563333 316.964,73.3013333 316.964,73.572 C316.964,73.852 317.022333,74.0853333 317.139,74.272 C317.255667,74.4586667 317.402667,74.608 317.58,74.72 L317.58,74.72 L317.58,74.776 C317.262667,74.972 317.02,75.1936667 316.852,75.441 C316.684,75.6883333 316.6,75.9566667 316.6,76.246 C316.6,76.5446667 316.672333,76.806 316.817,77.03 C316.961667,77.254 317.16,77.4406667 317.412,77.59 C317.664,77.7393333 317.965,77.8513333 318.315,77.926 C318.665,78.0006667 319.045333,78.038 319.456,78.038 Z M319.54,71.808 C319.204,71.808 318.919333,71.689 318.686,71.451 C318.452667,71.213 318.336,70.87 318.336,70.422 C318.336,69.9833333 318.452667,69.6473333 318.686,69.414 C318.919333,69.1806667 319.204,69.064 319.54,69.064 C319.876,69.064 320.158333,69.183 320.387,69.421 C320.615667,69.659 320.73,69.9926667 320.73,70.422 C320.73,70.87 320.613333,71.213 320.38,71.451 C320.146667,71.689 319.866667,71.808 319.54,71.808 Z M319.708,76.988 C319.157333,76.988 318.725667,76.9016667 318.413,76.729 C318.100333,76.5563333 317.944,76.316 317.944,76.008 C317.944,75.672 318.121333,75.3686667 318.476,75.098 C318.728,75.1633333 319.040667,75.196 319.414,75.196 L319.414,75.196 L320.352,75.196 C320.744,75.196 321.045,75.2426667 321.255,75.336 C321.465,75.4293333 321.57,75.6113333 321.57,75.882 C321.57,76.1806667 321.399667,76.4396667 321.059,76.659 C320.718333,76.8783333 320.268,76.988 319.708,76.988 Z M325.756,75.168 C326.166667,75.168 326.547,75.0793333 326.897,74.902 C327.247,74.7246667 327.576,74.5053333 327.884,74.244 L327.884,74.244 L327.94,74.244 L328.052,75 L329.382,75 L329.382,70.926 C329.382,69.9646667 329.169667,69.2296667 328.745,68.721 C328.320333,68.2123333 327.678667,67.958 326.82,67.958 C326.269333,67.958 325.756,68.0466667 325.28,68.224 C324.804,68.4013333 324.374667,68.6113333 323.992,68.854 L323.992,68.854 L324.58,69.932 C324.888,69.7453333 325.203,69.5866667 325.525,69.456 C325.847,69.3253333 326.176,69.26 326.512,69.26 C326.745333,69.26 326.941333,69.295 327.1,69.365 C327.258667,69.435 327.387,69.533 327.485,69.659 C327.583,69.785 327.653,69.9296667 327.695,70.093 C327.737,70.2563333 327.762667,70.4266667 327.772,70.604 C327.062667,70.6786667 326.453667,70.786 325.945,70.926 C325.436333,71.066 325.016333,71.2386667 324.685,71.444 C324.353667,71.6493333 324.111,71.8943333 323.957,72.179 C323.803,72.4636667 323.726,72.788 323.726,73.152 C323.726,73.7586667 323.912667,74.2463333 324.286,74.615 C324.659333,74.9836667 325.149333,75.168 325.756,75.168 Z M326.274,73.908 C325.984667,73.908 325.746667,73.838 325.56,73.698 C325.373333,73.558 325.28,73.334 325.28,73.026 C325.28,72.858 325.322,72.6993333 325.406,72.55 C325.49,72.4006667 325.63,72.2676667 325.826,72.151 C326.022,72.0343333 326.278667,71.9293333 326.596,71.836 C326.913333,71.7426667 327.305333,71.668 327.772,71.612 L327.772,71.612 L327.772,73.152 C327.510667,73.3946667 327.265667,73.5813333 327.037,73.712 C326.808333,73.8426667 326.554,73.908 326.274,73.908 Z M333.512,75.168 C333.782667,75.168 334.037,75.1423333 334.275,75.091 C334.513,75.0396667 334.725333,74.9813333 334.912,74.916 L334.912,74.916 L334.632,73.726 C334.529333,73.7726667 334.415,73.81 334.289,73.838 C334.163,73.866 334.039333,73.88 333.918,73.88 C333.274,73.88 332.952,73.4786667 332.952,72.676 L332.952,72.676 L332.952,69.4 L334.702,69.4 L334.702,68.126 L332.952,68.126 L332.952,66.25 L331.608,66.25 L331.412,68.126 L330.348,68.196 L330.348,69.4 L331.328,69.4 L331.328,72.676 C331.328,73.0493333 331.367667,73.3876667 331.447,73.691 C331.526333,73.9943333 331.652333,74.2556667 331.825,74.475 C331.997667,74.6943333 332.221667,74.8646667 332.497,74.986 C332.772333,75.1073333 333.110667,75.168 333.512,75.168 Z M338.86,75.168 C339.298667,75.168 339.718667,75.098 340.12,74.958 C340.521333,74.818 340.885333,74.6406667 341.212,74.426 L341.212,74.426 L340.666,73.418 C340.414,73.5766667 340.159667,73.7003333 339.903,73.789 C339.646333,73.8776667 339.368667,73.922 339.07,73.922 C338.51,73.922 338.050333,73.7563333 337.691,73.425 C337.331667,73.0936667 337.114667,72.62 337.04,72.004 L337.04,72.004 L341.408,72.004 C341.426667,71.92 341.443,71.808 341.457,71.668 C341.471,71.528 341.478,71.3786667 341.478,71.22 C341.478,70.744 341.417333,70.3053333 341.296,69.904 C341.174667,69.5026667 340.995,69.1573333 340.757,68.868 C340.519,68.5786667 340.222667,68.3546667 339.868,68.196 C339.513333,68.0373333 339.102667,67.958 338.636,67.958 C338.234667,67.958 337.842667,68.042 337.46,68.21 C337.077333,68.378 336.739,68.616 336.445,68.924 C336.151,69.232 335.915333,69.61 335.738,70.058 C335.560667,70.506 335.472,71.01 335.472,71.57 C335.472,72.1393333 335.558333,72.6456667 335.731,73.089 C335.903667,73.5323333 336.144,73.908 336.452,74.216 C336.76,74.524 337.119333,74.7596667 337.53,74.923 C337.940667,75.0863333 338.384,75.168 338.86,75.168 Z M340.078,70.912 L337.026,70.912 C337.100667,70.352 337.292,69.9273333 337.6,69.638 C337.908,69.3486667 338.267333,69.204 338.678,69.204 C339.154,69.204 339.506333,69.3556667 339.735,69.659 C339.963667,69.9623333 340.078,70.38 340.078,70.912 L340.078,70.912 Z M345.426,75.168 C345.799333,75.168 346.154,75.0793333 346.49,74.902 C346.826,74.7246667 347.12,74.51 347.372,74.258 L347.372,74.258 L347.428,74.258 L347.54,75 L348.87,75 L348.87,65.116 L347.26,65.116 L347.26,67.608 L347.316,68.714 C347.045333,68.4806667 346.774667,68.2963333 346.504,68.161 C346.233333,68.0256667 345.902,67.958 345.51,67.958 C345.136667,67.958 344.775,68.042 344.425,68.21 C344.075,68.378 343.764667,68.616 343.494,68.924 C343.223333,69.232 343.006333,69.61 342.843,70.058 C342.679667,70.506 342.598,71.01 342.598,71.57 C342.598,72.7086667 342.852333,73.593 343.361,74.223 C343.869667,74.853 344.558,75.168 345.426,75.168 Z M345.818,73.838 C345.314,73.838 344.929,73.6443333 344.663,73.257 C344.397,72.8696667 344.264,72.3026667 344.264,71.556 C344.264,70.828 344.418,70.268 344.726,69.876 C345.034,69.484 345.412,69.288 345.86,69.288 C346.093333,69.288 346.324333,69.33 346.553,69.414 C346.781667,69.498 347.017333,69.6473333 347.26,69.862 L347.26,69.862 L347.26,73.068 C346.812,73.5813333 346.331333,73.838 345.818,73.838 Z M279.948,94.54 L279.948,93.126 C280.62,93.0326667 281.149667,92.7713333 281.537,92.342 C281.924333,91.9126667 282.118,91.362 282.118,90.69 C282.118,90.186 282.022333,89.773 281.831,89.451 C281.639667,89.129 281.399333,88.8583333 281.11,88.639 C280.820667,88.4196667 280.505667,88.233 280.165,88.079 C279.824333,87.925 279.509333,87.7663333 279.22,87.603 C278.930667,87.4396667 278.690333,87.2506667 278.499,87.036 C278.307667,86.8213333 278.212,86.546 278.212,86.21 C278.212,85.7993333 278.338,85.4726667 278.59,85.23 C278.842,84.9873333 279.182667,84.866 279.612,84.866 C279.994667,84.866 280.309667,84.936 280.557,85.076 C280.804333,85.216 281.058667,85.412 281.32,85.664 L281.32,85.664 L281.936,84.978 C281.684,84.7073333 281.401667,84.474 281.089,84.278 C280.776333,84.082 280.396,83.9606667 279.948,83.914 L279.948,83.914 L279.948,82.528 L279.108,82.528 L279.108,83.942 C278.492,84.0353333 277.999667,84.2896667 277.631,84.705 C277.262333,85.1203333 277.078,85.6406667 277.078,86.266 C277.078,86.7233333 277.173667,87.099 277.365,87.393 C277.556333,87.687 277.796667,87.9366667 278.086,88.142 C278.375333,88.3473333 278.690333,88.5293333 279.031,88.688 C279.371667,88.8466667 279.686667,89.017 279.976,89.199 C280.265333,89.381 280.505667,89.5956667 280.697,89.843 C280.888333,90.0903333 280.984,90.4006667 280.984,90.774 C280.984,91.2126667 280.855667,91.5626667 280.599,91.824 C280.342333,92.0853333 279.952667,92.216 279.43,92.216 C279.000667,92.216 278.606333,92.125 278.247,91.943 C277.887667,91.761 277.558667,91.5393333 277.26,91.278 L277.26,91.278 L276.728,92.076 C277.026667,92.3466667 277.386,92.5823333 277.806,92.783 C278.226,92.9836667 278.66,93.1073333 279.108,93.154 L279.108,93.154 L279.108,94.54 L279.948,94.54 Z M289.104,93 L289.104,92.048 L287.256,92.048 L287.256,84.068 L286.374,84.068 C286.131333,84.2173333 285.858333,84.3456667 285.555,84.453 C285.251667,84.5603333 284.894667,84.6513333 284.484,84.726 L284.484,84.726 L284.484,85.468 L286.108,85.468 L286.108,92.048 L284.064,92.048 L284.064,93 L289.104,93 Z M293.402,93.168 C294.298,93.168 294.998,92.7666667 295.502,91.964 C296.006,91.1613333 296.258,90.0086667 296.258,88.506 C296.258,87.0033333 296.006,85.86 295.502,85.076 C294.998,84.292 294.298,83.9 293.402,83.9 C292.496667,83.9 291.792,84.292 291.288,85.076 C290.784,85.86 290.532,87.0033333 290.532,88.506 C290.532,90.0086667 290.784,91.1613333 291.288,91.964 C291.792,92.7666667 292.496667,93.168 293.402,93.168 Z M293.402,92.244 C292.879333,92.244 292.457,91.9476667 292.135,91.355 C291.813,90.7623333 291.652,89.8126667 291.652,88.506 C291.652,87.8526667 291.694,87.2926667 291.778,86.826 C291.862,86.3593333 291.981,85.979 292.135,85.685 C292.289,85.391 292.473333,85.174 292.688,85.034 C292.902667,84.894 293.140667,84.824 293.402,84.824 C293.663333,84.824 293.899,84.894 294.109,85.034 C294.319,85.174 294.501,85.391 294.655,85.685 C294.809,85.979 294.928,86.3593333 295.012,86.826 C295.096,87.2926667 295.138,87.8526667 295.138,88.506 C295.138,89.1593333 295.096,89.7216667 295.012,90.193 C294.928,90.6643333 294.809,91.0516667 294.655,91.355 C294.501,91.6583333 294.319,91.8823333 294.109,92.027 C293.899,92.1716667 293.663333,92.244 293.402,92.244 Z M300.626,93.168 C300.99,93.168 301.330667,93.098 301.648,92.958 C301.965333,92.818 302.245333,92.622 302.488,92.37 C302.730667,92.118 302.922,91.817 303.062,91.467 C303.202,91.117 303.272,90.7273333 303.272,90.298 C303.272,89.374 303.041,88.6833333 302.579,88.226 C302.117,87.7686667 301.498667,87.54 300.724,87.54 C300.36,87.54 299.991333,87.6403333 299.618,87.841 C299.244667,88.0416667 298.918,88.3146667 298.638,88.66 C298.647333,87.9506667 298.717333,87.3556667 298.848,86.875 C298.978667,86.3943333 299.151333,86.0046667 299.366,85.706 C299.580667,85.4073333 299.828,85.1926667 300.108,85.062 C300.388,84.9313333 300.682,84.866 300.99,84.866 C301.27,84.866 301.538333,84.929 301.795,85.055 C302.051667,85.181 302.273333,85.3513333 302.46,85.566 L302.46,85.566 L303.104,84.852 C302.852,84.5813333 302.551,84.355 302.201,84.173 C301.851,83.991 301.433333,83.9 300.948,83.9 C300.5,83.9 300.073,83.991 299.667,84.173 C299.261,84.355 298.899333,84.6443333 298.582,85.041 C298.264667,85.4376667 298.012667,85.951 297.826,86.581 C297.639333,87.211 297.546,87.974 297.546,88.87 C297.546,89.5886667 297.625333,90.2163333 297.784,90.753 C297.942667,91.2896667 298.159667,91.7376667 298.435,92.097 C298.710333,92.4563333 299.034667,92.7246667 299.408,92.902 C299.781333,93.0793333 300.187333,93.168 300.626,93.168 Z M300.626,92.258 C300.056667,92.258 299.606333,92.0316667 299.275,91.579 C298.943667,91.1263333 298.740667,90.4613333 298.666,89.584 C298.946,89.164 299.254,88.863 299.59,88.681 C299.926,88.499 300.238667,88.408 300.528,88.408 C301.088,88.408 301.503333,88.576 301.774,88.912 C302.044667,89.248 302.18,89.71 302.18,90.298 C302.18,90.5966667 302.140333,90.865 302.061,91.103 C301.981667,91.341 301.872,91.5463333 301.732,91.719 C301.592,91.8916667 301.428667,92.0246667 301.242,92.118 C301.055333,92.2113333 300.85,92.258 300.626,92.258 Z M308.018,93 C308.531333,93 309.002667,92.944 309.432,92.832 C309.861333,92.72 310.23,92.552 310.538,92.328 C310.846,92.104 311.084,91.824 311.252,91.488 C311.42,91.152 311.504,90.76 311.504,90.312 C311.504,89.6773333 311.331333,89.178 310.986,88.814 C310.640667,88.45 310.188,88.2166667 309.628,88.114 L309.628,88.114 L309.628,88.058 C310.066667,87.918 310.400333,87.6636667 310.629,87.295 C310.857667,86.9263333 310.972,86.5133333 310.972,86.056 C310.972,85.6546667 310.895,85.3116667 310.741,85.027 C310.587,84.7423333 310.372333,84.5113333 310.097,84.334 C309.821667,84.1566667 309.490333,84.026 309.103,83.942 C308.715667,83.858 308.288667,83.816 307.822,83.816 L307.822,83.816 L305.092,83.816 L305.092,93 L308.018,93 Z M307.612,87.722 L306.254,87.722 L306.254,84.74 L307.668,84.74 C308.386667,84.74 308.925667,84.852 309.285,85.076 C309.644333,85.3 309.824,85.678 309.824,86.21 C309.824,86.6766667 309.651333,87.0453333 309.306,87.316 C308.960667,87.5866667 308.396,87.722 307.612,87.722 L307.612,87.722 Z M307.85,92.076 L306.254,92.076 L306.254,88.618 L307.85,88.618 C308.662,88.618 309.282667,88.751 309.712,89.017 C310.141333,89.283 310.356,89.7006667 310.356,90.27 C310.356,90.886 310.136667,91.341 309.698,91.635 C309.259333,91.929 308.643333,92.076 307.85,92.076 L307.85,92.076 Z" id="Unobligated$106B" fill="#666666" fill-rule="nonzero"></path>
                <line x1="4" y1="42" x2="4" y2="57" id="Line" stroke="#666666" opacity="0.5"></line>
                <path d="M313,42 L313,43.3088235 C313,44.413393 312.104569,45.3088235 311,45.3088235 L118,45.3088235 C116.895431,45.3088235 116,46.204254 116,47.3088235 L116,57 L116,57" id="Line-Copy-7" stroke="#666666" opacity="0.5" stroke-linecap="round" transform="translate(214.500000, 49.500000) scale(-1, 1) translate(-214.500000, -49.500000) "></path>
                <path d="M151,42 L151,52.35 C151,53.4545695 150.104569,54.35 149,54.35 L81,54.35 C79.8954305,54.35 79,55.2454305 79,56.35 L79,61 L79,61" id="Line-Copy-9" stroke="#666666" opacity="0.5" stroke-linecap="round" transform="translate(115.000000, 51.500000) scale(-1, 1) translate(-115.000000, -51.500000) "></path>
                <path d="M145.992,26.76 L145.992,25.096 C146.824,24.9146667 147.448,24.5493333 147.864,24 C148.28,23.4506667 148.488,22.792 148.488,22.024 C148.488,21.512 148.384,21.0826667 148.176,20.736 C147.968,20.3893333 147.706667,20.0933333 147.392,19.848 C147.077333,19.6026667 146.738667,19.3946667 146.376,19.224 C146.013333,19.0533333 145.674667,18.888 145.36,18.728 C145.045333,18.568 144.784,18.4 144.576,18.224 C144.368,18.048 144.264,17.832 144.264,17.576 C144.264,17.2133333 144.365333,16.952 144.568,16.792 C144.770667,16.632 145.064,16.552 145.448,16.552 C145.789333,16.552 146.093333,16.6186667 146.36,16.752 C146.626667,16.8853333 146.904,17.0853333 147.192,17.352 L147.192,17.352 L148.376,16.008 C148.066667,15.6773333 147.72,15.3946667 147.336,15.16 C146.952,14.9253333 146.504,14.7706667 145.992,14.696 L145.992,14.696 L145.992,13.08 L144.44,13.08 L144.44,14.728 C143.682667,14.8773333 143.088,15.2106667 142.656,15.728 C142.224,16.2453333 142.008,16.8986667 142.008,17.688 C142.008,18.168 142.112,18.5733333 142.32,18.904 C142.528,19.2346667 142.789333,19.5226667 143.104,19.768 C143.418667,20.0133333 143.757333,20.224 144.12,20.4 C144.482667,20.576 144.821333,20.752 145.136,20.928 C145.450667,21.104 145.712,21.288 145.92,21.48 C146.128,21.672 146.232,21.9066667 146.232,22.184 C146.232,22.5573333 146.128,22.8346667 145.92,23.016 C145.712,23.1973333 145.384,23.288 144.936,23.288 C144.552,23.288 144.176,23.2106667 143.808,23.056 C143.44,22.9013333 143.053333,22.6693333 142.648,22.36 L142.648,22.36 L141.624,23.944 C141.997333,24.2853333 142.442667,24.56 142.96,24.768 C143.477333,24.976 143.970667,25.1066667 144.44,25.16 L144.44,25.16 L144.44,26.76 L145.992,26.76 Z M156.344,25 L156.344,22.568 L157.512,22.568 L157.512,20.776 L156.344,20.776 L156.344,14.84 L153.464,14.84 L149.752,20.952 L149.752,22.568 L154.152,22.568 L154.152,25 L156.344,25 Z M154.152,20.776 L152.008,20.776 L153.352,18.568 C153.501333,18.28 153.645333,17.992 153.784,17.704 C153.922667,17.416 154.056,17.1333333 154.184,16.856 L154.184,16.856 L154.248,16.856 C154.226667,17.176 154.205333,17.552 154.184,17.984 C154.162667,18.416 154.152,18.7973333 154.152,19.128 L154.152,19.128 L154.152,20.776 Z M162.104,25.192 C162.648,25.192 163.141333,25.12 163.584,24.976 C164.026667,24.832 164.405333,24.6346667 164.72,24.384 C165.034667,24.1333333 165.277333,23.8373333 165.448,23.496 C165.618667,23.1546667 165.704,22.7813333 165.704,22.376 C165.704,21.704 165.533333,21.16 165.192,20.744 C164.850667,20.328 164.434667,19.9866667 163.944,19.72 L163.944,19.72 L163.944,19.656 C164.296,19.4213333 164.605333,19.1146667 164.872,18.736 C165.138667,18.3573333 165.272,17.9226667 165.272,17.432 C165.272,17.016 165.197333,16.6346667 165.048,16.288 C164.898667,15.9413333 164.690667,15.648 164.424,15.408 C164.157333,15.168 163.832,14.9813333 163.448,14.848 C163.064,14.7146667 162.642667,14.648 162.184,14.648 C161.714667,14.648 161.28,14.712 160.88,14.84 C160.48,14.968 160.136,15.1546667 159.848,15.4 C159.56,15.6453333 159.336,15.9413333 159.176,16.288 C159.016,16.6346667 158.936,17.0213333 158.936,17.448 C158.936,17.992 159.064,18.4533333 159.32,18.832 C159.576,19.2106667 159.901333,19.5493333 160.296,19.848 L160.296,19.848 L160.296,19.912 C159.816,20.168 159.408,20.4933333 159.072,20.888 C158.736,21.2826667 158.568,21.7893333 158.568,22.408 C158.568,22.824 158.656,23.2026667 158.832,23.544 C159.008,23.8853333 159.253333,24.1786667 159.568,24.424 C159.882667,24.6693333 160.256,24.8586667 160.688,24.992 C161.12,25.1253333 161.592,25.192 162.104,25.192 Z M162.744,19.08 C162.221333,18.8773333 161.8,18.6586667 161.48,18.424 C161.16,18.1893333 161,17.864 161,17.448 C161,17.0533333 161.112,16.76 161.336,16.568 C161.56,16.376 161.826667,16.28 162.136,16.28 C162.52,16.28 162.821333,16.4 163.04,16.64 C163.258667,16.88 163.368,17.1973333 163.368,17.592 C163.368,18.104 163.16,18.6 162.744,19.08 Z M162.152,23.56 C161.725333,23.56 161.357333,23.4346667 161.048,23.184 C160.738667,22.9333333 160.584,22.584 160.584,22.136 C160.584,21.8266667 160.658667,21.5333333 160.808,21.256 C160.957333,20.9786667 161.144,20.7333333 161.368,20.52 C161.688,20.6586667 161.978667,20.7866667 162.24,20.904 C162.501333,21.0213333 162.728,21.1466667 162.92,21.28 C163.112,21.4133333 163.258667,21.56 163.36,21.72 C163.461333,21.88 163.512,22.072 163.512,22.296 C163.512,22.7226667 163.384,23.04 163.128,23.248 C162.872,23.456 162.546667,23.56 162.152,23.56 Z M170.232,25.192 C170.744,25.192 171.229333,25.1253333 171.688,24.992 C172.146667,24.8586667 172.546667,24.6666667 172.888,24.416 C173.229333,24.1653333 173.501333,23.856 173.704,23.488 C173.906667,23.12 174.008,22.7013333 174.008,22.232 C174.008,21.5706667 173.818667,21.0346667 173.44,20.624 C173.061333,20.2133333 172.578667,19.9226667 171.992,19.752 L171.992,19.752 L171.992,19.688 C172.536,19.4533333 172.954667,19.152 173.248,18.784 C173.541333,18.416 173.688,17.9653333 173.688,17.432 C173.688,16.984 173.602667,16.5893333 173.432,16.248 C173.261333,15.9066667 173.024,15.616 172.72,15.376 C172.416,15.136 172.048,14.9546667 171.616,14.832 C171.184,14.7093333 170.706667,14.648 170.184,14.648 C169.554667,14.648 168.981333,14.7626667 168.464,14.992 C167.946667,15.2213333 167.453333,15.5386667 166.984,15.944 L166.984,15.944 L168.168,17.384 C168.488,17.1066667 168.794667,16.888 169.088,16.728 C169.381333,16.568 169.709333,16.488 170.072,16.488 C170.477333,16.488 170.786667,16.5866667 171,16.784 C171.213333,16.9813333 171.32,17.256 171.32,17.608 C171.32,17.8106667 171.28,17.9946667 171.2,18.16 C171.12,18.3253333 170.986667,18.4693333 170.8,18.592 C170.613333,18.7146667 170.368,18.808 170.064,18.872 C169.76,18.936 169.378667,18.968 168.92,18.968 L168.92,18.968 L168.92,20.632 C169.474667,20.632 169.928,20.6666667 170.28,20.736 C170.632,20.8053333 170.909333,20.9013333 171.112,21.024 C171.314667,21.1466667 171.456,21.2986667 171.536,21.48 C171.616,21.6613333 171.656,21.864 171.656,22.088 C171.656,22.472 171.506667,22.768 171.208,22.976 C170.909333,23.184 170.509333,23.288 170.008,23.288 C169.570667,23.288 169.168,23.192 168.8,23 C168.432,22.808 168.093333,22.5626667 167.784,22.264 L167.784,22.264 L166.696,23.752 C167.069333,24.1893333 167.544,24.5386667 168.12,24.8 C168.696,25.0613333 169.4,25.192 170.232,25.192 Z M183.096,25 C183.661333,25 184.189333,24.9386667 184.68,24.816 C185.170667,24.6933333 185.6,24.5066667 185.968,24.256 C186.336,24.0053333 186.624,23.688 186.832,23.304 C187.04,22.92 187.144,22.4613333 187.144,21.928 C187.144,21.576 187.096,21.264 187,20.992 C186.904,20.72 186.770667,20.4826667 186.6,20.28 C186.429333,20.0773333 186.232,19.9093333 186.008,19.776 C185.784,19.6426667 185.538667,19.544 185.272,19.48 L185.272,19.48 L185.272,19.416 C185.485333,19.3413333 185.674667,19.224 185.84,19.064 C186.005333,18.904 186.146667,18.7226667 186.264,18.52 C186.381333,18.3173333 186.472,18.0986667 186.536,17.864 C186.6,17.6293333 186.632,17.3946667 186.632,17.16 C186.632,16.6586667 186.533333,16.2426667 186.336,15.912 C186.138667,15.5813333 185.866667,15.3146667 185.52,15.112 C185.173333,14.9093333 184.768,14.768 184.304,14.688 C183.84,14.608 183.336,14.568 182.792,14.568 L182.792,14.568 L179.224,14.568 L179.224,25 L183.096,25 Z M182.68,18.744 L181.576,18.744 L181.576,16.392 L182.696,16.392 C183.250667,16.392 183.661333,16.4773333 183.928,16.648 C184.194667,16.8186667 184.328,17.1066667 184.328,17.512 C184.328,17.8853333 184.197333,18.184 183.936,18.408 C183.674667,18.632 183.256,18.744 182.68,18.744 L182.68,18.744 Z M182.904,23.176 L181.576,23.176 L181.576,20.488 L182.904,20.488 C183.554667,20.488 184.04,20.5866667 184.36,20.784 C184.68,20.9813333 184.84,21.3093333 184.84,21.768 C184.84,22.7066667 184.194667,23.176 182.904,23.176 L182.904,23.176 Z" id="$483B" fill="#555555" fill-rule="nonzero"></path>
                <g id="Group-9">
                    <rect id="outlays" fill="#331E4D" x="0" y="0" width="54" height="40"></rect>
                    <rect id="unobligated" fill="#F3E9FF" x="110" y="0" width="17" height="40"></rect>
                    <rect id="obligated" fill="#6F41A7" x="54" y="0" width="57" height="40"></rect>
                </g>
            </g>
        </g>
    </g>
</svg>