<?xml version="1.0" encoding="UTF-8"?>
<svg width="462px" height="36px" viewBox="0 0 462 36" version="1.1" xmlns="http://www.w3.org/2000/svg">
    <title>09. tablet - phase 3.5 loan</title>
    <g id="SVG" stroke="none" stroke-width="1" fill="none" fill-rule="evenodd">
        <g id="Viz-3---Tablet-Outline" transform="translate(-70.000000, -1688.000000)">
            <g id="09.-tablet---phase-3.5-loan" transform="translate(70.000000, 1688.000000)">
                <path d="M225.718,14.168 C226.315333,14.168 226.861333,14.0583333 227.356,13.839 C227.850667,13.6196667 228.277667,13.3023333 228.637,12.887 C228.996333,12.4716667 229.274,11.97 229.47,11.382 C229.666,10.794 229.764,10.1266667 229.764,9.38 C229.764,8.64266667 229.666,7.98233333 229.47,7.399 C229.274,6.81566667 228.996333,6.32333333 228.637,5.922 C228.277667,5.52066667 227.850667,5.21266667 227.356,4.998 C226.861333,4.78333333 226.315333,4.676 225.718,4.676 C225.120667,4.676 224.574667,4.78333333 224.08,4.998 C223.585333,5.21266667 223.160667,5.52066667 222.806,5.922 C222.451333,6.32333333 222.176,6.81566667 221.98,7.399 C221.784,7.98233333 221.686,8.64266667 221.686,9.38 C221.686,10.1266667 221.784,10.794 221.98,11.382 C222.176,11.97 222.451333,12.4716667 222.806,12.887 C223.160667,13.3023333 223.585333,13.6196667 224.08,13.839 C224.574667,14.0583333 225.120667,14.168 225.718,14.168 Z M225.718,12.754 C225.354,12.754 225.027333,12.6746667 224.738,12.516 C224.448667,12.3573333 224.201333,12.131 223.996,11.837 C223.790667,11.543 223.632,11.1883333 223.52,10.773 C223.408,10.3576667 223.352,9.89333333 223.352,9.38 C223.352,8.35333333 223.564333,7.54833333 223.989,6.965 C224.413667,6.38166667 224.99,6.09 225.718,6.09 C226.446,6.09 227.022333,6.38166667 227.447,6.965 C227.871667,7.54833333 228.084,8.35333333 228.084,9.38 C228.084,9.89333333 228.028,10.3576667 227.916,10.773 C227.804,11.1883333 227.645333,11.543 227.44,11.837 C227.234667,12.131 226.987333,12.3573333 226.698,12.516 C226.408667,12.6746667 226.082,12.754 225.718,12.754 Z M233.502,14.168 C233.978,14.168 234.391,14.0606667 234.741,13.846 C235.091,13.6313333 235.415333,13.3466667 235.714,12.992 L235.714,12.992 L235.756,12.992 L235.882,14 L237.198,14 L237.198,7.126 L235.588,7.126 L235.588,11.83 C235.326667,12.166 235.081667,12.4086667 234.853,12.558 C234.624333,12.7073333 234.360667,12.782 234.062,12.782 C233.688667,12.782 233.418,12.6653333 233.25,12.432 C233.082,12.1986667 232.998,11.7973333 232.998,11.228 L232.998,11.228 L232.998,7.126 L231.388,7.126 L231.388,11.438 C231.388,12.3153333 231.556,12.9896667 231.892,13.461 C232.228,13.9323333 232.764667,14.168 233.502,14.168 Z M241.664,14.168 C241.934667,14.168 242.189,14.1423333 242.427,14.091 C242.665,14.0396667 242.877333,13.9813333 243.064,13.916 L243.064,13.916 L242.784,12.726 C242.681333,12.7726667 242.567,12.81 242.441,12.838 C242.315,12.866 242.191333,12.88 242.07,12.88 C241.426,12.88 241.104,12.4786667 241.104,11.676 L241.104,11.676 L241.104,8.4 L242.854,8.4 L242.854,7.126 L241.104,7.126 L241.104,5.25 L239.76,5.25 L239.564,7.126 L238.5,7.196 L238.5,8.4 L239.48,8.4 L239.48,11.676 C239.48,12.0493333 239.519667,12.3876667 239.599,12.691 C239.678333,12.9943333 239.804333,13.2556667 239.977,13.475 C240.149667,13.6943333 240.373667,13.8646667 240.649,13.986 C240.924333,14.1073333 241.262667,14.168 241.664,14.168 Z M245.864,14.168 C246.218667,14.168 246.503333,14.1213333 246.718,14.028 L246.718,14.028 L246.508,12.824 C246.442667,12.8426667 246.393667,12.852 246.361,12.852 L246.361,12.852 L246.256,12.852 C246.172,12.852 246.092667,12.8123333 246.018,12.733 C245.943333,12.6536667 245.906,12.516 245.906,12.32 L245.906,12.32 L245.906,4.116 L244.296,4.116 L244.296,12.236 C244.296,12.8333333 244.412667,13.3046667 244.646,13.65 C244.879333,13.9953333 245.285333,14.168 245.864,14.168 Z M249.756,14.168 C250.166667,14.168 250.547,14.0793333 250.897,13.902 C251.247,13.7246667 251.576,13.5053333 251.884,13.244 L251.884,13.244 L251.94,13.244 L252.052,14 L253.382,14 L253.382,9.926 C253.382,8.96466667 253.169667,8.22966667 252.745,7.721 C252.320333,7.21233333 251.678667,6.958 250.82,6.958 C250.269333,6.958 249.756,7.04666667 249.28,7.224 C248.804,7.40133333 248.374667,7.61133333 247.992,7.854 L247.992,7.854 L248.58,8.932 C248.888,8.74533333 249.203,8.58666667 249.525,8.456 C249.847,8.32533333 250.176,8.26 250.512,8.26 C250.745333,8.26 250.941333,8.295 251.1,8.365 C251.258667,8.435 251.387,8.533 251.485,8.659 C251.583,8.785 251.653,8.92966667 251.695,9.093 C251.737,9.25633333 251.762667,9.42666667 251.772,9.604 C251.062667,9.67866667 250.453667,9.786 249.945,9.926 C249.436333,10.066 249.016333,10.2386667 248.685,10.444 C248.353667,10.6493333 248.111,10.8943333 247.957,11.179 C247.803,11.4636667 247.726,11.788 247.726,12.152 C247.726,12.7586667 247.912667,13.2463333 248.286,13.615 C248.659333,13.9836667 249.149333,14.168 249.756,14.168 Z M250.274,12.908 C249.984667,12.908 249.746667,12.838 249.56,12.698 C249.373333,12.558 249.28,12.334 249.28,12.026 C249.28,11.858 249.322,11.6993333 249.406,11.55 C249.49,11.4006667 249.63,11.2676667 249.826,11.151 C250.022,11.0343333 250.278667,10.9293333 250.596,10.836 C250.913333,10.7426667 251.305333,10.668 251.772,10.612 L251.772,10.612 L251.772,12.152 C251.510667,12.3946667 251.265667,12.5813333 251.037,12.712 C250.808333,12.8426667 250.554,12.908 250.274,12.908 Z M255.776,16.828 C256.149333,16.828 256.478333,16.7696667 256.763,16.653 C257.047667,16.5363333 257.299667,16.3683333 257.519,16.149 C257.738333,15.9296667 257.932,15.666 258.1,15.358 C258.268,15.05 258.422,14.7 258.562,14.308 L258.562,14.308 L261.054,7.126 L259.5,7.126 L258.464,10.5 C258.38,10.808 258.293667,11.1276667 258.205,11.459 C258.116333,11.7903333 258.03,12.1146667 257.946,12.432 L257.946,12.432 L257.89,12.432 C257.787333,12.1053333 257.687,11.7763333 257.589,11.445 C257.491,11.1136667 257.390667,10.7986667 257.288,10.5 L257.288,10.5 L256.098,7.126 L254.46,7.126 L257.162,13.916 L257.036,14.35 C256.924,14.6953333 256.758333,14.9776667 256.539,15.197 C256.319667,15.4163333 256.028,15.526 255.664,15.526 C255.58,15.526 255.493667,15.5143333 255.405,15.491 C255.316333,15.4676667 255.239333,15.4466667 255.174,15.428 L255.174,15.428 L254.88,16.688 C255.010667,16.7346667 255.146,16.7696667 255.286,16.793 C255.426,16.8163333 255.589333,16.828 255.776,16.828 Z M264.162,14.168 C264.591333,14.168 264.974,14.112 265.31,14 C265.646,13.888 265.926,13.7363333 266.15,13.545 C266.374,13.3536667 266.544333,13.1296667 266.661,12.873 C266.777667,12.6163333 266.836,12.3386667 266.836,12.04 C266.836,11.7226667 266.777667,11.4496667 266.661,11.221 C266.544333,10.9923333 266.390333,10.7986667 266.199,10.64 C266.007667,10.4813333 265.795333,10.3483333 265.562,10.241 C265.328667,10.1336667 265.095333,10.038 264.862,9.954 C264.675333,9.88866667 264.495667,9.82333333 264.323,9.758 C264.150333,9.69266667 263.998667,9.62266667 263.868,9.548 C263.737333,9.47333333 263.632333,9.387 263.553,9.289 C263.473667,9.191 263.434,9.072 263.434,8.932 C263.434,8.71733333 263.515667,8.53766667 263.679,8.393 C263.842333,8.24833333 264.096667,8.176 264.442,8.176 C264.712667,8.176 264.971667,8.22966667 265.219,8.337 C265.466333,8.44433333 265.711333,8.58666667 265.954,8.764 L265.954,8.764 L266.696,7.784 C266.416,7.56933333 266.084667,7.378 265.702,7.21 C265.319333,7.042 264.89,6.958 264.414,6.958 C263.639333,6.958 263.028,7.14933333 262.58,7.532 C262.132,7.91466667 261.908,8.40933333 261.908,9.016 C261.908,9.30533333 261.966333,9.555 262.083,9.765 C262.199667,9.975 262.349,10.1593333 262.531,10.318 C262.713,10.4766667 262.920667,10.612 263.154,10.724 C263.387333,10.836 263.616,10.934 263.84,11.018 C264.017333,11.0926667 264.194667,11.165 264.372,11.235 C264.549333,11.305 264.708,11.382 264.848,11.466 C264.988,11.55 265.1,11.6456667 265.184,11.753 C265.268,11.8603333 265.31,11.984 265.31,12.124 C265.31,12.3666667 265.221333,12.565 265.044,12.719 C264.866667,12.873 264.591333,12.95 264.218,12.95 C263.863333,12.95 263.534333,12.8823333 263.231,12.747 C262.927667,12.6116667 262.622,12.4226667 262.314,12.18 L262.314,12.18 L261.558,13.216 C261.894,13.4866667 262.293,13.713 262.755,13.895 C263.217,14.077 263.686,14.168 264.162,14.168 Z M224.948,33.54 L224.948,32.126 C225.62,32.0326667 226.149667,31.7713333 226.537,31.342 C226.924333,30.9126667 227.118,30.362 227.118,29.69 C227.118,29.186 227.022333,28.773 226.831,28.451 C226.639667,28.129 226.399333,27.8583333 226.11,27.639 C225.820667,27.4196667 225.505667,27.233 225.165,27.079 C224.824333,26.925 224.509333,26.7663333 224.22,26.603 C223.930667,26.4396667 223.690333,26.2506667 223.499,26.036 C223.307667,25.8213333 223.212,25.546 223.212,25.21 C223.212,24.7993333 223.338,24.4726667 223.59,24.23 C223.842,23.9873333 224.182667,23.866 224.612,23.866 C224.994667,23.866 225.309667,23.936 225.557,24.076 C225.804333,24.216 226.058667,24.412 226.32,24.664 L226.32,24.664 L226.936,23.978 C226.684,23.7073333 226.401667,23.474 226.089,23.278 C225.776333,23.082 225.396,22.9606667 224.948,22.914 L224.948,22.914 L224.948,21.528 L224.108,21.528 L224.108,22.942 C223.492,23.0353333 222.999667,23.2896667 222.631,23.705 C222.262333,24.1203333 222.078,24.6406667 222.078,25.266 C222.078,25.7233333 222.173667,26.099 222.365,26.393 C222.556333,26.687 222.796667,26.9366667 223.086,27.142 C223.375333,27.3473333 223.690333,27.5293333 224.031,27.688 C224.371667,27.8466667 224.686667,28.017 224.976,28.199 C225.265333,28.381 225.505667,28.5956667 225.697,28.843 C225.888333,29.0903333 225.984,29.4006667 225.984,29.774 C225.984,30.2126667 225.855667,30.5626667 225.599,30.824 C225.342333,31.0853333 224.952667,31.216 224.43,31.216 C224.000667,31.216 223.606333,31.125 223.247,30.943 C222.887667,30.761 222.558667,30.5393333 222.26,30.278 L222.26,30.278 L221.728,31.076 C222.026667,31.3466667 222.386,31.5823333 222.806,31.783 C223.226,31.9836667 223.66,32.1073333 224.108,32.154 L224.108,32.154 L224.108,33.54 L224.948,33.54 Z M234.286,32 L234.286,31.006 L231.696,31.006 C231.462667,31.006 231.215333,31.0153333 230.954,31.034 C230.692667,31.0526667 230.440667,31.0713333 230.198,31.09 C230.73,30.5393333 231.217667,30.019 231.661,29.529 C232.104333,29.039 232.487,28.5676667 232.809,28.115 C233.131,27.6623333 233.383,27.2236667 233.565,26.799 C233.747,26.3743333 233.838,25.952 233.838,25.532 C233.838,24.7386667 233.6,24.1016667 233.124,23.621 C232.648,23.1403333 231.994667,22.9 231.164,22.9 C230.576,22.9 230.072,23.0236667 229.652,23.271 C229.232,23.5183333 228.835333,23.8473333 228.462,24.258 L228.462,24.258 L229.12,24.916 C229.381333,24.6173333 229.670667,24.363 229.988,24.153 C230.305333,23.943 230.650667,23.838 231.024,23.838 C231.593333,23.838 232.018,24.0013333 232.298,24.328 C232.578,24.6546667 232.718,25.0746667 232.718,25.588 C232.718,25.952 232.624667,26.3276667 232.438,26.715 C232.251333,27.1023333 231.980667,27.527 231.626,27.989 C231.271333,28.451 230.832667,28.9526667 230.31,29.494 C229.787333,30.0353333 229.19,30.642 228.518,31.314 L228.518,31.314 L228.518,32 L234.286,32 Z M238.584,32 C238.621333,31.132 238.684333,30.341 238.773,29.627 C238.861667,28.913 239.004,28.2363333 239.2,27.597 C239.396,26.9576667 239.659667,26.33 239.991,25.714 C240.322333,25.098 240.754,24.454 241.286,23.782 L241.286,23.782 L241.286,23.068 L235.532,23.068 L235.532,24.062 L239.984,24.062 C239.545333,24.678 239.169667,25.28 238.857,25.868 C238.544333,26.456 238.287667,27.065 238.087,27.695 C237.886333,28.325 237.73,28.99 237.618,29.69 C237.506,30.39 237.431333,31.16 237.394,32 L237.394,32 L238.584,32 Z M248.02,32 L248.02,31.048 L246.172,31.048 L246.172,23.068 L245.29,23.068 C245.047333,23.2173333 244.774333,23.3456667 244.471,23.453 C244.167667,23.5603333 243.810667,23.6513333 243.4,23.726 L243.4,23.726 L243.4,24.468 L245.024,24.468 L245.024,31.048 L242.98,31.048 L242.98,32 L248.02,32 Z M253.018,32 C253.531333,32 254.002667,31.944 254.432,31.832 C254.861333,31.72 255.23,31.552 255.538,31.328 C255.846,31.104 256.084,30.824 256.252,30.488 C256.42,30.152 256.504,29.76 256.504,29.312 C256.504,28.6773333 256.331333,28.178 255.986,27.814 C255.640667,27.45 255.188,27.2166667 254.628,27.114 L254.628,27.114 L254.628,27.058 C255.066667,26.918 255.400333,26.6636667 255.629,26.295 C255.857667,25.9263333 255.972,25.5133333 255.972,25.056 C255.972,24.6546667 255.895,24.3116667 255.741,24.027 C255.587,23.7423333 255.372333,23.5113333 255.097,23.334 C254.821667,23.1566667 254.490333,23.026 254.103,22.942 C253.715667,22.858 253.288667,22.816 252.822,22.816 L252.822,22.816 L250.092,22.816 L250.092,32 L253.018,32 Z M252.612,26.722 L251.254,26.722 L251.254,23.74 L252.668,23.74 C253.386667,23.74 253.925667,23.852 254.285,24.076 C254.644333,24.3 254.824,24.678 254.824,25.21 C254.824,25.6766667 254.651333,26.0453333 254.306,26.316 C253.960667,26.5866667 253.396,26.722 252.612,26.722 L252.612,26.722 Z M252.85,31.076 L251.254,31.076 L251.254,27.618 L252.85,27.618 C253.662,27.618 254.282667,27.751 254.712,28.017 C255.141333,28.283 255.356,28.7006667 255.356,29.27 C255.356,29.886 255.136667,30.341 254.698,30.635 C254.259333,30.929 253.643333,31.076 252.85,31.076 L252.85,31.076 Z" id="Outlays$271B" fill="#666666" fill-rule="nonzero"></path>
                <path d="M297.718,14.168 C298.315333,14.168 298.861333,14.0583333 299.356,13.839 C299.850667,13.6196667 300.277667,13.3023333 300.637,12.887 C300.996333,12.4716667 301.274,11.97 301.47,11.382 C301.666,10.794 301.764,10.1266667 301.764,9.38 C301.764,8.64266667 301.666,7.98233333 301.47,7.399 C301.274,6.81566667 300.996333,6.32333333 300.637,5.922 C300.277667,5.52066667 299.850667,5.21266667 299.356,4.998 C298.861333,4.78333333 298.315333,4.676 297.718,4.676 C297.120667,4.676 296.574667,4.78333333 296.08,4.998 C295.585333,5.21266667 295.160667,5.52066667 294.806,5.922 C294.451333,6.32333333 294.176,6.81566667 293.98,7.399 C293.784,7.98233333 293.686,8.64266667 293.686,9.38 C293.686,10.1266667 293.784,10.794 293.98,11.382 C294.176,11.97 294.451333,12.4716667 294.806,12.887 C295.160667,13.3023333 295.585333,13.6196667 296.08,13.839 C296.574667,14.0583333 297.120667,14.168 297.718,14.168 Z M297.718,12.754 C297.354,12.754 297.027333,12.6746667 296.738,12.516 C296.448667,12.3573333 296.201333,12.131 295.996,11.837 C295.790667,11.543 295.632,11.1883333 295.52,10.773 C295.408,10.3576667 295.352,9.89333333 295.352,9.38 C295.352,8.35333333 295.564333,7.54833333 295.989,6.965 C296.413667,6.38166667 296.99,6.09 297.718,6.09 C298.446,6.09 299.022333,6.38166667 299.447,6.965 C299.871667,7.54833333 300.084,8.35333333 300.084,9.38 C300.084,9.89333333 300.028,10.3576667 299.916,10.773 C299.804,11.1883333 299.645333,11.543 299.44,11.837 C299.234667,12.131 298.987333,12.3573333 298.698,12.516 C298.408667,12.6746667 298.082,12.754 297.718,12.754 Z M306.79,14.168 C307.172667,14.168 307.541333,14.084 307.896,13.916 C308.250667,13.748 308.563333,13.5053333 308.834,13.188 C309.104667,12.8706667 309.321667,12.481 309.485,12.019 C309.648333,11.557 309.73,11.032 309.73,10.444 C309.73,9.912 309.669333,9.43133333 309.548,9.002 C309.426667,8.57266667 309.249333,8.20633333 309.016,7.903 C308.782667,7.59966667 308.498,7.36633333 308.162,7.203 C307.826,7.03966667 307.443333,6.958 307.014,6.958 C306.659333,6.958 306.311667,7.03733333 305.971,7.196 C305.630333,7.35466667 305.315333,7.56 305.026,7.812 L305.026,7.812 L305.068,6.664 L305.068,4.116 L303.458,4.116 L303.458,14 L304.732,14 L304.872,13.272 L304.914,13.272 C305.203333,13.5613333 305.509,13.783 305.831,13.937 C306.153,14.091 306.472667,14.168 306.79,14.168 Z M306.454,12.838 C306.248667,12.838 306.027,12.796 305.789,12.712 C305.551,12.628 305.310667,12.4786667 305.068,12.264 L305.068,12.264 L305.068,9.058 C305.590667,8.54466667 306.094667,8.288 306.58,8.288 C307.102667,8.288 307.480667,8.47933333 307.714,8.862 C307.947333,9.24466667 308.064,9.78133333 308.064,10.472 C308.064,11.256 307.91,11.8463333 307.602,12.243 C307.294,12.6396667 306.911333,12.838 306.454,12.838 Z M312.908,14.168 C313.262667,14.168 313.547333,14.1213333 313.762,14.028 L313.762,14.028 L313.552,12.824 C313.486667,12.8426667 313.437667,12.852 313.405,12.852 L313.405,12.852 L313.3,12.852 C313.216,12.852 313.136667,12.8123333 313.062,12.733 C312.987333,12.6536667 312.95,12.516 312.95,12.32 L312.95,12.32 L312.95,4.116 L311.34,4.116 L311.34,12.236 C311.34,12.8333333 311.456667,13.3046667 311.69,13.65 C311.923333,13.9953333 312.329333,14.168 312.908,14.168 Z M315.946,5.922 C316.235333,5.922 316.473333,5.838 316.66,5.67 C316.846667,5.502 316.94,5.28266667 316.94,5.012 C316.94,4.74133333 316.846667,4.51966667 316.66,4.347 C316.473333,4.17433333 316.235333,4.088 315.946,4.088 C315.656667,4.088 315.418667,4.17433333 315.232,4.347 C315.045333,4.51966667 314.952,4.74133333 314.952,5.012 C314.952,5.28266667 315.045333,5.502 315.232,5.67 C315.418667,5.838 315.656667,5.922 315.946,5.922 Z M316.744,14 L316.744,7.126 L315.134,7.126 L315.134,14 L316.744,14 Z M321.196,17.038 C321.756,17.038 322.262333,16.975 322.715,16.849 C323.167667,16.723 323.552667,16.5526667 323.87,16.338 C324.187333,16.1233333 324.432333,15.8666667 324.605,15.568 C324.777667,15.2693333 324.864,14.952 324.864,14.616 C324.864,14.0186667 324.651667,13.587 324.227,13.321 C323.802333,13.055 323.174667,12.922 322.344,12.922 L322.344,12.922 L321.126,12.922 C320.706,12.922 320.414333,12.866 320.251,12.754 C320.087667,12.642 320.006,12.488 320.006,12.292 C320.006,12.1333333 320.036333,12.0073333 320.097,11.914 C320.157667,11.8206667 320.239333,11.7273333 320.342,11.634 C320.500667,11.6993333 320.659333,11.746 320.818,11.774 C320.976667,11.802 321.130667,11.816 321.28,11.816 C321.644,11.816 321.984667,11.7646667 322.302,11.662 C322.619333,11.5593333 322.894667,11.41 323.128,11.214 C323.361333,11.018 323.545667,10.7753333 323.681,10.486 C323.816333,10.1966667 323.884,9.86066667 323.884,9.478 C323.884,9.23533333 323.846667,9.01366667 323.772,8.813 C323.697333,8.61233333 323.604,8.44666667 323.492,8.316 L323.492,8.316 L324.752,8.316 L324.752,7.126 L322.288,7.126 C322.148,7.07933333 321.991667,7.03966667 321.819,7.007 C321.646333,6.97433333 321.466667,6.958 321.28,6.958 C320.916,6.958 320.570667,7.01166667 320.244,7.119 C319.917333,7.22633333 319.630333,7.385 319.383,7.595 C319.135667,7.805 318.937333,8.064 318.788,8.372 C318.638667,8.68 318.564,9.03 318.564,9.422 C318.564,9.83266667 318.655,10.1943333 318.837,10.507 C319.019,10.8196667 319.226667,11.0646667 319.46,11.242 L319.46,11.242 L319.46,11.298 C319.264,11.438 319.089,11.6176667 318.935,11.837 C318.781,12.0563333 318.704,12.3013333 318.704,12.572 C318.704,12.852 318.762333,13.0853333 318.879,13.272 C318.995667,13.4586667 319.142667,13.608 319.32,13.72 L319.32,13.72 L319.32,13.776 C319.002667,13.972 318.76,14.1936667 318.592,14.441 C318.424,14.6883333 318.34,14.9566667 318.34,15.246 C318.34,15.5446667 318.412333,15.806 318.557,16.03 C318.701667,16.254 318.9,16.4406667 319.152,16.59 C319.404,16.7393333 319.705,16.8513333 320.055,16.926 C320.405,17.0006667 320.785333,17.038 321.196,17.038 Z M321.28,10.808 C320.944,10.808 320.659333,10.689 320.426,10.451 C320.192667,10.213 320.076,9.87 320.076,9.422 C320.076,8.98333333 320.192667,8.64733333 320.426,8.414 C320.659333,8.18066667 320.944,8.064 321.28,8.064 C321.616,8.064 321.898333,8.183 322.127,8.421 C322.355667,8.659 322.47,8.99266667 322.47,9.422 C322.47,9.87 322.353333,10.213 322.12,10.451 C321.886667,10.689 321.606667,10.808 321.28,10.808 Z M321.448,15.988 C320.897333,15.988 320.465667,15.9016667 320.153,15.729 C319.840333,15.5563333 319.684,15.316 319.684,15.008 C319.684,14.672 319.861333,14.3686667 320.216,14.098 C320.468,14.1633333 320.780667,14.196 321.154,14.196 L321.154,14.196 L322.092,14.196 C322.484,14.196 322.785,14.2426667 322.995,14.336 C323.205,14.4293333 323.31,14.6113333 323.31,14.882 C323.31,15.1806667 323.139667,15.4396667 322.799,15.659 C322.458333,15.8783333 322.008,15.988 321.448,15.988 Z M327.496,14.168 C327.906667,14.168 328.287,14.0793333 328.637,13.902 C328.987,13.7246667 329.316,13.5053333 329.624,13.244 L329.624,13.244 L329.68,13.244 L329.792,14 L331.122,14 L331.122,9.926 C331.122,8.96466667 330.909667,8.22966667 330.485,7.721 C330.060333,7.21233333 329.418667,6.958 328.56,6.958 C328.009333,6.958 327.496,7.04666667 327.02,7.224 C326.544,7.40133333 326.114667,7.61133333 325.732,7.854 L325.732,7.854 L326.32,8.932 C326.628,8.74533333 326.943,8.58666667 327.265,8.456 C327.587,8.32533333 327.916,8.26 328.252,8.26 C328.485333,8.26 328.681333,8.295 328.84,8.365 C328.998667,8.435 329.127,8.533 329.225,8.659 C329.323,8.785 329.393,8.92966667 329.435,9.093 C329.477,9.25633333 329.502667,9.42666667 329.512,9.604 C328.802667,9.67866667 328.193667,9.786 327.685,9.926 C327.176333,10.066 326.756333,10.2386667 326.425,10.444 C326.093667,10.6493333 325.851,10.8943333 325.697,11.179 C325.543,11.4636667 325.466,11.788 325.466,12.152 C325.466,12.7586667 325.652667,13.2463333 326.026,13.615 C326.399333,13.9836667 326.889333,14.168 327.496,14.168 Z M328.014,12.908 C327.724667,12.908 327.486667,12.838 327.3,12.698 C327.113333,12.558 327.02,12.334 327.02,12.026 C327.02,11.858 327.062,11.6993333 327.146,11.55 C327.23,11.4006667 327.37,11.2676667 327.566,11.151 C327.762,11.0343333 328.018667,10.9293333 328.336,10.836 C328.653333,10.7426667 329.045333,10.668 329.512,10.612 L329.512,10.612 L329.512,12.152 C329.250667,12.3946667 329.005667,12.5813333 328.777,12.712 C328.548333,12.8426667 328.294,12.908 328.014,12.908 Z M335.252,14.168 C335.522667,14.168 335.777,14.1423333 336.015,14.091 C336.253,14.0396667 336.465333,13.9813333 336.652,13.916 L336.652,13.916 L336.372,12.726 C336.269333,12.7726667 336.155,12.81 336.029,12.838 C335.903,12.866 335.779333,12.88 335.658,12.88 C335.014,12.88 334.692,12.4786667 334.692,11.676 L334.692,11.676 L334.692,8.4 L336.442,8.4 L336.442,7.126 L334.692,7.126 L334.692,5.25 L333.348,5.25 L333.152,7.126 L332.088,7.196 L332.088,8.4 L333.068,8.4 L333.068,11.676 C333.068,12.0493333 333.107667,12.3876667 333.187,12.691 C333.266333,12.9943333 333.392333,13.2556667 333.565,13.475 C333.737667,13.6943333 333.961667,13.8646667 334.237,13.986 C334.512333,14.1073333 334.850667,14.168 335.252,14.168 Z M338.696,5.922 C338.985333,5.922 339.223333,5.838 339.41,5.67 C339.596667,5.502 339.69,5.28266667 339.69,5.012 C339.69,4.74133333 339.596667,4.51966667 339.41,4.347 C339.223333,4.17433333 338.985333,4.088 338.696,4.088 C338.406667,4.088 338.168667,4.17433333 337.982,4.347 C337.795333,4.51966667 337.702,4.74133333 337.702,5.012 C337.702,5.28266667 337.795333,5.502 337.982,5.67 C338.168667,5.838 338.406667,5.922 338.696,5.922 Z M339.494,14 L339.494,7.126 L337.884,7.126 L337.884,14 L339.494,14 Z M344.366,14.168 C344.795333,14.168 345.208333,14.0886667 345.605,13.93 C346.001667,13.7713333 346.349333,13.538 346.648,13.23 C346.946667,12.922 347.187,12.544 347.369,12.096 C347.551,11.648 347.642,11.1393333 347.642,10.57 C347.642,10.0006667 347.551,9.492 347.369,9.044 C347.187,8.596 346.946667,8.218 346.648,7.91 C346.349333,7.602 346.001667,7.36633333 345.605,7.203 C345.208333,7.03966667 344.795333,6.958 344.366,6.958 C343.936667,6.958 343.526,7.03966667 343.134,7.203 C342.742,7.36633333 342.394333,7.602 342.091,7.91 C341.787667,8.218 341.547333,8.596 341.37,9.044 C341.192667,9.492 341.104,10.0006667 341.104,10.57 C341.104,11.1393333 341.192667,11.648 341.37,12.096 C341.547333,12.544 341.787667,12.922 342.091,13.23 C342.394333,13.538 342.742,13.7713333 343.134,13.93 C343.526,14.0886667 343.936667,14.168 344.366,14.168 Z M344.366,12.852 C343.862,12.852 343.467667,12.6443333 343.183,12.229 C342.898333,11.8136667 342.756,11.2606667 342.756,10.57 C342.756,9.87 342.898333,9.31233333 343.183,8.897 C343.467667,8.48166667 343.862,8.274 344.366,8.274 C344.87,8.274 345.266667,8.48166667 345.556,8.897 C345.845333,9.31233333 345.99,9.87 345.99,10.57 C345.99,11.2606667 345.845333,11.8136667 345.556,12.229 C345.266667,12.6443333 344.87,12.852 344.366,12.852 Z M350.848,14 L350.848,9.198 C351.137333,8.918 351.396333,8.70566667 351.625,8.561 C351.853667,8.41633333 352.117333,8.344 352.416,8.344 C352.798667,8.344 353.074,8.46066667 353.242,8.694 C353.41,8.92733333 353.494,9.32866667 353.494,9.898 L353.494,9.898 L353.494,14 L355.104,14 L355.104,9.688 C355.104,8.81066667 354.936,8.13633333 354.6,7.665 C354.264,7.19366667 353.727333,6.958 352.99,6.958 C352.514,6.958 352.096333,7.06533333 351.737,7.28 C351.377667,7.49466667 351.044,7.75133333 350.736,8.05 L350.736,8.05 L350.68,8.05 L350.568,7.126 L349.238,7.126 L349.238,14 L350.848,14 Z M358.996,14.168 C359.425333,14.168 359.808,14.112 360.144,14 C360.48,13.888 360.76,13.7363333 360.984,13.545 C361.208,13.3536667 361.378333,13.1296667 361.495,12.873 C361.611667,12.6163333 361.67,12.3386667 361.67,12.04 C361.67,11.7226667 361.611667,11.4496667 361.495,11.221 C361.378333,10.9923333 361.224333,10.7986667 361.033,10.64 C360.841667,10.4813333 360.629333,10.3483333 360.396,10.241 C360.162667,10.1336667 359.929333,10.038 359.696,9.954 C359.509333,9.88866667 359.329667,9.82333333 359.157,9.758 C358.984333,9.69266667 358.832667,9.62266667 358.702,9.548 C358.571333,9.47333333 358.466333,9.387 358.387,9.289 C358.307667,9.191 358.268,9.072 358.268,8.932 C358.268,8.71733333 358.349667,8.53766667 358.513,8.393 C358.676333,8.24833333 358.930667,8.176 359.276,8.176 C359.546667,8.176 359.805667,8.22966667 360.053,8.337 C360.300333,8.44433333 360.545333,8.58666667 360.788,8.764 L360.788,8.764 L361.53,7.784 C361.25,7.56933333 360.918667,7.378 360.536,7.21 C360.153333,7.042 359.724,6.958 359.248,6.958 C358.473333,6.958 357.862,7.14933333 357.414,7.532 C356.966,7.91466667 356.742,8.40933333 356.742,9.016 C356.742,9.30533333 356.800333,9.555 356.917,9.765 C357.033667,9.975 357.183,10.1593333 357.365,10.318 C357.547,10.4766667 357.754667,10.612 357.988,10.724 C358.221333,10.836 358.45,10.934 358.674,11.018 C358.851333,11.0926667 359.028667,11.165 359.206,11.235 C359.383333,11.305 359.542,11.382 359.682,11.466 C359.822,11.55 359.934,11.6456667 360.018,11.753 C360.102,11.8603333 360.144,11.984 360.144,12.124 C360.144,12.3666667 360.055333,12.565 359.878,12.719 C359.700667,12.873 359.425333,12.95 359.052,12.95 C358.697333,12.95 358.368333,12.8823333 358.065,12.747 C357.761667,12.6116667 357.456,12.4226667 357.148,12.18 L357.148,12.18 L356.392,13.216 C356.728,13.4866667 357.127,13.713 357.589,13.895 C358.051,14.077 358.52,14.168 358.996,14.168 Z M296.948,33.54 L296.948,32.126 C297.62,32.0326667 298.149667,31.7713333 298.537,31.342 C298.924333,30.9126667 299.118,30.362 299.118,29.69 C299.118,29.186 299.022333,28.773 298.831,28.451 C298.639667,28.129 298.399333,27.8583333 298.11,27.639 C297.820667,27.4196667 297.505667,27.233 297.165,27.079 C296.824333,26.925 296.509333,26.7663333 296.22,26.603 C295.930667,26.4396667 295.690333,26.2506667 295.499,26.036 C295.307667,25.8213333 295.212,25.546 295.212,25.21 C295.212,24.7993333 295.338,24.4726667 295.59,24.23 C295.842,23.9873333 296.182667,23.866 296.612,23.866 C296.994667,23.866 297.309667,23.936 297.557,24.076 C297.804333,24.216 298.058667,24.412 298.32,24.664 L298.32,24.664 L298.936,23.978 C298.684,23.7073333 298.401667,23.474 298.089,23.278 C297.776333,23.082 297.396,22.9606667 296.948,22.914 L296.948,22.914 L296.948,21.528 L296.108,21.528 L296.108,22.942 C295.492,23.0353333 294.999667,23.2896667 294.631,23.705 C294.262333,24.1203333 294.078,24.6406667 294.078,25.266 C294.078,25.7233333 294.173667,26.099 294.365,26.393 C294.556333,26.687 294.796667,26.9366667 295.086,27.142 C295.375333,27.3473333 295.690333,27.5293333 296.031,27.688 C296.371667,27.8466667 296.686667,28.017 296.976,28.199 C297.265333,28.381 297.505667,28.5956667 297.697,28.843 C297.888333,29.0903333 297.984,29.4006667 297.984,29.774 C297.984,30.2126667 297.855667,30.5626667 297.599,30.824 C297.342333,31.0853333 296.952667,31.216 296.43,31.216 C296.000667,31.216 295.606333,31.125 295.247,30.943 C294.887667,30.761 294.558667,30.5393333 294.26,30.278 L294.26,30.278 L293.728,31.076 C294.026667,31.3466667 294.386,31.5823333 294.806,31.783 C295.226,31.9836667 295.66,32.1073333 296.108,32.154 L296.108,32.154 L296.108,33.54 L296.948,33.54 Z M306.286,32 L306.286,31.006 L303.696,31.006 C303.462667,31.006 303.215333,31.0153333 302.954,31.034 C302.692667,31.0526667 302.440667,31.0713333 302.198,31.09 C302.73,30.5393333 303.217667,30.019 303.661,29.529 C304.104333,29.039 304.487,28.5676667 304.809,28.115 C305.131,27.6623333 305.383,27.2236667 305.565,26.799 C305.747,26.3743333 305.838,25.952 305.838,25.532 C305.838,24.7386667 305.6,24.1016667 305.124,23.621 C304.648,23.1403333 303.994667,22.9 303.164,22.9 C302.576,22.9 302.072,23.0236667 301.652,23.271 C301.232,23.5183333 300.835333,23.8473333 300.462,24.258 L300.462,24.258 L301.12,24.916 C301.381333,24.6173333 301.670667,24.363 301.988,24.153 C302.305333,23.943 302.650667,23.838 303.024,23.838 C303.593333,23.838 304.018,24.0013333 304.298,24.328 C304.578,24.6546667 304.718,25.0746667 304.718,25.588 C304.718,25.952 304.624667,26.3276667 304.438,26.715 C304.251333,27.1023333 303.980667,27.527 303.626,27.989 C303.271333,28.451 302.832667,28.9526667 302.31,29.494 C301.787333,30.0353333 301.19,30.642 300.518,31.314 L300.518,31.314 L300.518,32 L306.286,32 Z M310.584,32 C310.621333,31.132 310.684333,30.341 310.773,29.627 C310.861667,28.913 311.004,28.2363333 311.2,27.597 C311.396,26.9576667 311.659667,26.33 311.991,25.714 C312.322333,25.098 312.754,24.454 313.286,23.782 L313.286,23.782 L313.286,23.068 L307.532,23.068 L307.532,24.062 L311.984,24.062 C311.545333,24.678 311.169667,25.28 310.857,25.868 C310.544333,26.456 310.287667,27.065 310.087,27.695 C309.886333,28.325 309.73,28.99 309.618,29.69 C309.506,30.39 309.431333,31.16 309.394,32 L309.394,32 L310.584,32 Z M317.542,32 C317.579333,31.132 317.642333,30.341 317.731,29.627 C317.819667,28.913 317.962,28.2363333 318.158,27.597 C318.354,26.9576667 318.617667,26.33 318.949,25.714 C319.280333,25.098 319.712,24.454 320.244,23.782 L320.244,23.782 L320.244,23.068 L314.49,23.068 L314.49,24.062 L318.942,24.062 C318.503333,24.678 318.127667,25.28 317.815,25.868 C317.502333,26.456 317.245667,27.065 317.045,27.695 C316.844333,28.325 316.688,28.99 316.576,29.69 C316.464,30.39 316.389333,31.16 316.352,32 L316.352,32 L317.542,32 Z M325.018,32 C325.531333,32 326.002667,31.944 326.432,31.832 C326.861333,31.72 327.23,31.552 327.538,31.328 C327.846,31.104 328.084,30.824 328.252,30.488 C328.42,30.152 328.504,29.76 328.504,29.312 C328.504,28.6773333 328.331333,28.178 327.986,27.814 C327.640667,27.45 327.188,27.2166667 326.628,27.114 L326.628,27.114 L326.628,27.058 C327.066667,26.918 327.400333,26.6636667 327.629,26.295 C327.857667,25.9263333 327.972,25.5133333 327.972,25.056 C327.972,24.6546667 327.895,24.3116667 327.741,24.027 C327.587,23.7423333 327.372333,23.5113333 327.097,23.334 C326.821667,23.1566667 326.490333,23.026 326.103,22.942 C325.715667,22.858 325.288667,22.816 324.822,22.816 L324.822,22.816 L322.092,22.816 L322.092,32 L325.018,32 Z M324.612,26.722 L323.254,26.722 L323.254,23.74 L324.668,23.74 C325.386667,23.74 325.925667,23.852 326.285,24.076 C326.644333,24.3 326.824,24.678 326.824,25.21 C326.824,25.6766667 326.651333,26.0453333 326.306,26.316 C325.960667,26.5866667 325.396,26.722 324.612,26.722 L324.612,26.722 Z M324.85,31.076 L323.254,31.076 L323.254,27.618 L324.85,27.618 C325.662,27.618 326.282667,27.751 326.712,28.017 C327.141333,28.283 327.356,28.7006667 327.356,29.27 C327.356,29.886 327.136667,30.341 326.698,30.635 C326.259333,30.929 325.643333,31.076 324.85,31.076 L324.85,31.076 Z" id="Obligations$277B" fill="#666666" fill-rule="nonzero"></path>
                <path d="M392.592,14.168 C393.124,14.168 393.602333,14.091 394.027,13.937 C394.451667,13.783 394.815667,13.538 395.119,13.202 C395.422333,12.866 395.653333,12.4343333 395.812,11.907 C395.970667,11.3796667 396.05,10.738 396.05,9.982 L396.05,9.982 L396.05,4.844 L394.496,4.844 L394.496,10.108 C394.496,10.6026667 394.449333,11.0203333 394.356,11.361 C394.262667,11.7016667 394.132,11.9746667 393.964,12.18 C393.796,12.3853333 393.595333,12.5323333 393.362,12.621 C393.128667,12.7096667 392.872,12.754 392.592,12.754 C392.312,12.754 392.06,12.7096667 391.836,12.621 C391.612,12.5323333 391.418333,12.3853333 391.255,12.18 C391.091667,11.9746667 390.965667,11.7016667 390.877,11.361 C390.788333,11.0203333 390.744,10.6026667 390.744,10.108 L390.744,10.108 L390.744,4.844 L389.12,4.844 L389.12,9.982 C389.12,10.738 389.201667,11.3796667 389.365,11.907 C389.528333,12.4343333 389.761667,12.866 390.065,13.202 C390.368333,13.538 390.732333,13.783 391.157,13.937 C391.581667,14.091 392.06,14.168 392.592,14.168 Z M399.802,14 L399.802,9.198 C400.091333,8.918 400.350333,8.70566667 400.579,8.561 C400.807667,8.41633333 401.071333,8.344 401.37,8.344 C401.752667,8.344 402.028,8.46066667 402.196,8.694 C402.364,8.92733333 402.448,9.32866667 402.448,9.898 L402.448,9.898 L402.448,14 L404.058,14 L404.058,9.688 C404.058,8.81066667 403.89,8.13633333 403.554,7.665 C403.218,7.19366667 402.681333,6.958 401.944,6.958 C401.468,6.958 401.050333,7.06533333 400.691,7.28 C400.331667,7.49466667 399.998,7.75133333 399.69,8.05 L399.69,8.05 L399.634,8.05 L399.522,7.126 L398.192,7.126 L398.192,14 L399.802,14 Z M408.846,14.168 C409.275333,14.168 409.688333,14.0886667 410.085,13.93 C410.481667,13.7713333 410.829333,13.538 411.128,13.23 C411.426667,12.922 411.667,12.544 411.849,12.096 C412.031,11.648 412.122,11.1393333 412.122,10.57 C412.122,10.0006667 412.031,9.492 411.849,9.044 C411.667,8.596 411.426667,8.218 411.128,7.91 C410.829333,7.602 410.481667,7.36633333 410.085,7.203 C409.688333,7.03966667 409.275333,6.958 408.846,6.958 C408.416667,6.958 408.006,7.03966667 407.614,7.203 C407.222,7.36633333 406.874333,7.602 406.571,7.91 C406.267667,8.218 406.027333,8.596 405.85,9.044 C405.672667,9.492 405.584,10.0006667 405.584,10.57 C405.584,11.1393333 405.672667,11.648 405.85,12.096 C406.027333,12.544 406.267667,12.922 406.571,13.23 C406.874333,13.538 407.222,13.7713333 407.614,13.93 C408.006,14.0886667 408.416667,14.168 408.846,14.168 Z M408.846,12.852 C408.342,12.852 407.947667,12.6443333 407.663,12.229 C407.378333,11.8136667 407.236,11.2606667 407.236,10.57 C407.236,9.87 407.378333,9.31233333 407.663,8.897 C407.947667,8.48166667 408.342,8.274 408.846,8.274 C409.35,8.274 409.746667,8.48166667 410.036,8.897 C410.325333,9.31233333 410.47,9.87 410.47,10.57 C410.47,11.2606667 410.325333,11.8136667 410.036,12.229 C409.746667,12.6443333 409.35,12.852 408.846,12.852 Z M417.05,14.168 C417.432667,14.168 417.801333,14.084 418.156,13.916 C418.510667,13.748 418.823333,13.5053333 419.094,13.188 C419.364667,12.8706667 419.581667,12.481 419.745,12.019 C419.908333,11.557 419.99,11.032 419.99,10.444 C419.99,9.912 419.929333,9.43133333 419.808,9.002 C419.686667,8.57266667 419.509333,8.20633333 419.276,7.903 C419.042667,7.59966667 418.758,7.36633333 418.422,7.203 C418.086,7.03966667 417.703333,6.958 417.274,6.958 C416.919333,6.958 416.571667,7.03733333 416.231,7.196 C415.890333,7.35466667 415.575333,7.56 415.286,7.812 L415.286,7.812 L415.328,6.664 L415.328,4.116 L413.718,4.116 L413.718,14 L414.992,14 L415.132,13.272 L415.174,13.272 C415.463333,13.5613333 415.769,13.783 416.091,13.937 C416.413,14.091 416.732667,14.168 417.05,14.168 Z M416.714,12.838 C416.508667,12.838 416.287,12.796 416.049,12.712 C415.811,12.628 415.570667,12.4786667 415.328,12.264 L415.328,12.264 L415.328,9.058 C415.850667,8.54466667 416.354667,8.288 416.84,8.288 C417.362667,8.288 417.740667,8.47933333 417.974,8.862 C418.207333,9.24466667 418.324,9.78133333 418.324,10.472 C418.324,11.256 418.17,11.8463333 417.862,12.243 C417.554,12.6396667 417.171333,12.838 416.714,12.838 Z M423.168,14.168 C423.522667,14.168 423.807333,14.1213333 424.022,14.028 L424.022,14.028 L423.812,12.824 C423.746667,12.8426667 423.697667,12.852 423.665,12.852 L423.665,12.852 L423.56,12.852 C423.476,12.852 423.396667,12.8123333 423.322,12.733 C423.247333,12.6536667 423.21,12.516 423.21,12.32 L423.21,12.32 L423.21,4.116 L421.6,4.116 L421.6,12.236 C421.6,12.8333333 421.716667,13.3046667 421.95,13.65 C422.183333,13.9953333 422.589333,14.168 423.168,14.168 Z M426.206,5.922 C426.495333,5.922 426.733333,5.838 426.92,5.67 C427.106667,5.502 427.2,5.28266667 427.2,5.012 C427.2,4.74133333 427.106667,4.51966667 426.92,4.347 C426.733333,4.17433333 426.495333,4.088 426.206,4.088 C425.916667,4.088 425.678667,4.17433333 425.492,4.347 C425.305333,4.51966667 425.212,4.74133333 425.212,5.012 C425.212,5.28266667 425.305333,5.502 425.492,5.67 C425.678667,5.838 425.916667,5.922 426.206,5.922 Z M427.004,14 L427.004,7.126 L425.394,7.126 L425.394,14 L427.004,14 Z M431.456,17.038 C432.016,17.038 432.522333,16.975 432.975,16.849 C433.427667,16.723 433.812667,16.5526667 434.13,16.338 C434.447333,16.1233333 434.692333,15.8666667 434.865,15.568 C435.037667,15.2693333 435.124,14.952 435.124,14.616 C435.124,14.0186667 434.911667,13.587 434.487,13.321 C434.062333,13.055 433.434667,12.922 432.604,12.922 L432.604,12.922 L431.386,12.922 C430.966,12.922 430.674333,12.866 430.511,12.754 C430.347667,12.642 430.266,12.488 430.266,12.292 C430.266,12.1333333 430.296333,12.0073333 430.357,11.914 C430.417667,11.8206667 430.499333,11.7273333 430.602,11.634 C430.760667,11.6993333 430.919333,11.746 431.078,11.774 C431.236667,11.802 431.390667,11.816 431.54,11.816 C431.904,11.816 432.244667,11.7646667 432.562,11.662 C432.879333,11.5593333 433.154667,11.41 433.388,11.214 C433.621333,11.018 433.805667,10.7753333 433.941,10.486 C434.076333,10.1966667 434.144,9.86066667 434.144,9.478 C434.144,9.23533333 434.106667,9.01366667 434.032,8.813 C433.957333,8.61233333 433.864,8.44666667 433.752,8.316 L433.752,8.316 L435.012,8.316 L435.012,7.126 L432.548,7.126 C432.408,7.07933333 432.251667,7.03966667 432.079,7.007 C431.906333,6.97433333 431.726667,6.958 431.54,6.958 C431.176,6.958 430.830667,7.01166667 430.504,7.119 C430.177333,7.22633333 429.890333,7.385 429.643,7.595 C429.395667,7.805 429.197333,8.064 429.048,8.372 C428.898667,8.68 428.824,9.03 428.824,9.422 C428.824,9.83266667 428.915,10.1943333 429.097,10.507 C429.279,10.8196667 429.486667,11.0646667 429.72,11.242 L429.72,11.242 L429.72,11.298 C429.524,11.438 429.349,11.6176667 429.195,11.837 C429.041,12.0563333 428.964,12.3013333 428.964,12.572 C428.964,12.852 429.022333,13.0853333 429.139,13.272 C429.255667,13.4586667 429.402667,13.608 429.58,13.72 L429.58,13.72 L429.58,13.776 C429.262667,13.972 429.02,14.1936667 428.852,14.441 C428.684,14.6883333 428.6,14.9566667 428.6,15.246 C428.6,15.5446667 428.672333,15.806 428.817,16.03 C428.961667,16.254 429.16,16.4406667 429.412,16.59 C429.664,16.7393333 429.965,16.8513333 430.315,16.926 C430.665,17.0006667 431.045333,17.038 431.456,17.038 Z M431.54,10.808 C431.204,10.808 430.919333,10.689 430.686,10.451 C430.452667,10.213 430.336,9.87 430.336,9.422 C430.336,8.98333333 430.452667,8.64733333 430.686,8.414 C430.919333,8.18066667 431.204,8.064 431.54,8.064 C431.876,8.064 432.158333,8.183 432.387,8.421 C432.615667,8.659 432.73,8.99266667 432.73,9.422 C432.73,9.87 432.613333,10.213 432.38,10.451 C432.146667,10.689 431.866667,10.808 431.54,10.808 Z M431.708,15.988 C431.157333,15.988 430.725667,15.9016667 430.413,15.729 C430.100333,15.5563333 429.944,15.316 429.944,15.008 C429.944,14.672 430.121333,14.3686667 430.476,14.098 C430.728,14.1633333 431.040667,14.196 431.414,14.196 L431.414,14.196 L432.352,14.196 C432.744,14.196 433.045,14.2426667 433.255,14.336 C433.465,14.4293333 433.57,14.6113333 433.57,14.882 C433.57,15.1806667 433.399667,15.4396667 433.059,15.659 C432.718333,15.8783333 432.268,15.988 431.708,15.988 Z M437.756,14.168 C438.166667,14.168 438.547,14.0793333 438.897,13.902 C439.247,13.7246667 439.576,13.5053333 439.884,13.244 L439.884,13.244 L439.94,13.244 L440.052,14 L441.382,14 L441.382,9.926 C441.382,8.96466667 441.169667,8.22966667 440.745,7.721 C440.320333,7.21233333 439.678667,6.958 438.82,6.958 C438.269333,6.958 437.756,7.04666667 437.28,7.224 C436.804,7.40133333 436.374667,7.61133333 435.992,7.854 L435.992,7.854 L436.58,8.932 C436.888,8.74533333 437.203,8.58666667 437.525,8.456 C437.847,8.32533333 438.176,8.26 438.512,8.26 C438.745333,8.26 438.941333,8.295 439.1,8.365 C439.258667,8.435 439.387,8.533 439.485,8.659 C439.583,8.785 439.653,8.92966667 439.695,9.093 C439.737,9.25633333 439.762667,9.42666667 439.772,9.604 C439.062667,9.67866667 438.453667,9.786 437.945,9.926 C437.436333,10.066 437.016333,10.2386667 436.685,10.444 C436.353667,10.6493333 436.111,10.8943333 435.957,11.179 C435.803,11.4636667 435.726,11.788 435.726,12.152 C435.726,12.7586667 435.912667,13.2463333 436.286,13.615 C436.659333,13.9836667 437.149333,14.168 437.756,14.168 Z M438.274,12.908 C437.984667,12.908 437.746667,12.838 437.56,12.698 C437.373333,12.558 437.28,12.334 437.28,12.026 C437.28,11.858 437.322,11.6993333 437.406,11.55 C437.49,11.4006667 437.63,11.2676667 437.826,11.151 C438.022,11.0343333 438.278667,10.9293333 438.596,10.836 C438.913333,10.7426667 439.305333,10.668 439.772,10.612 L439.772,10.612 L439.772,12.152 C439.510667,12.3946667 439.265667,12.5813333 439.037,12.712 C438.808333,12.8426667 438.554,12.908 438.274,12.908 Z M445.512,14.168 C445.782667,14.168 446.037,14.1423333 446.275,14.091 C446.513,14.0396667 446.725333,13.9813333 446.912,13.916 L446.912,13.916 L446.632,12.726 C446.529333,12.7726667 446.415,12.81 446.289,12.838 C446.163,12.866 446.039333,12.88 445.918,12.88 C445.274,12.88 444.952,12.4786667 444.952,11.676 L444.952,11.676 L444.952,8.4 L446.702,8.4 L446.702,7.126 L444.952,7.126 L444.952,5.25 L443.608,5.25 L443.412,7.126 L442.348,7.196 L442.348,8.4 L443.328,8.4 L443.328,11.676 C443.328,12.0493333 443.367667,12.3876667 443.447,12.691 C443.526333,12.9943333 443.652333,13.2556667 443.825,13.475 C443.997667,13.6943333 444.221667,13.8646667 444.497,13.986 C444.772333,14.1073333 445.110667,14.168 445.512,14.168 Z M450.86,14.168 C451.298667,14.168 451.718667,14.098 452.12,13.958 C452.521333,13.818 452.885333,13.6406667 453.212,13.426 L453.212,13.426 L452.666,12.418 C452.414,12.5766667 452.159667,12.7003333 451.903,12.789 C451.646333,12.8776667 451.368667,12.922 451.07,12.922 C450.51,12.922 450.050333,12.7563333 449.691,12.425 C449.331667,12.0936667 449.114667,11.62 449.04,11.004 L449.04,11.004 L453.408,11.004 C453.426667,10.92 453.443,10.808 453.457,10.668 C453.471,10.528 453.478,10.3786667 453.478,10.22 C453.478,9.744 453.417333,9.30533333 453.296,8.904 C453.174667,8.50266667 452.995,8.15733333 452.757,7.868 C452.519,7.57866667 452.222667,7.35466667 451.868,7.196 C451.513333,7.03733333 451.102667,6.958 450.636,6.958 C450.234667,6.958 449.842667,7.042 449.46,7.21 C449.077333,7.378 448.739,7.616 448.445,7.924 C448.151,8.232 447.915333,8.61 447.738,9.058 C447.560667,9.506 447.472,10.01 447.472,10.57 C447.472,11.1393333 447.558333,11.6456667 447.731,12.089 C447.903667,12.5323333 448.144,12.908 448.452,13.216 C448.76,13.524 449.119333,13.7596667 449.53,13.923 C449.940667,14.0863333 450.384,14.168 450.86,14.168 Z M452.078,9.912 L449.026,9.912 C449.100667,9.352 449.292,8.92733333 449.6,8.638 C449.908,8.34866667 450.267333,8.204 450.678,8.204 C451.154,8.204 451.506333,8.35566667 451.735,8.659 C451.963667,8.96233333 452.078,9.38 452.078,9.912 L452.078,9.912 Z M457.426,14.168 C457.799333,14.168 458.154,14.0793333 458.49,13.902 C458.826,13.7246667 459.12,13.51 459.372,13.258 L459.372,13.258 L459.428,13.258 L459.54,14 L460.87,14 L460.87,4.116 L459.26,4.116 L459.26,6.608 L459.316,7.714 C459.045333,7.48066667 458.774667,7.29633333 458.504,7.161 C458.233333,7.02566667 457.902,6.958 457.51,6.958 C457.136667,6.958 456.775,7.042 456.425,7.21 C456.075,7.378 455.764667,7.616 455.494,7.924 C455.223333,8.232 455.006333,8.61 454.843,9.058 C454.679667,9.506 454.598,10.01 454.598,10.57 C454.598,11.7086667 454.852333,12.593 455.361,13.223 C455.869667,13.853 456.558,14.168 457.426,14.168 Z M457.818,12.838 C457.314,12.838 456.929,12.6443333 456.663,12.257 C456.397,11.8696667 456.264,11.3026667 456.264,10.556 C456.264,9.828 456.418,9.268 456.726,8.876 C457.034,8.484 457.412,8.288 457.86,8.288 C458.093333,8.288 458.324333,8.33 458.553,8.414 C458.781667,8.498 459.017333,8.64733333 459.26,8.862 L459.26,8.862 L459.26,12.068 C458.812,12.5813333 458.331333,12.838 457.818,12.838 Z M391.948,33.54 L391.948,32.126 C392.62,32.0326667 393.149667,31.7713333 393.537,31.342 C393.924333,30.9126667 394.118,30.362 394.118,29.69 C394.118,29.186 394.022333,28.773 393.831,28.451 C393.639667,28.129 393.399333,27.8583333 393.11,27.639 C392.820667,27.4196667 392.505667,27.233 392.165,27.079 C391.824333,26.925 391.509333,26.7663333 391.22,26.603 C390.930667,26.4396667 390.690333,26.2506667 390.499,26.036 C390.307667,25.8213333 390.212,25.546 390.212,25.21 C390.212,24.7993333 390.338,24.4726667 390.59,24.23 C390.842,23.9873333 391.182667,23.866 391.612,23.866 C391.994667,23.866 392.309667,23.936 392.557,24.076 C392.804333,24.216 393.058667,24.412 393.32,24.664 L393.32,24.664 L393.936,23.978 C393.684,23.7073333 393.401667,23.474 393.089,23.278 C392.776333,23.082 392.396,22.9606667 391.948,22.914 L391.948,22.914 L391.948,21.528 L391.108,21.528 L391.108,22.942 C390.492,23.0353333 389.999667,23.2896667 389.631,23.705 C389.262333,24.1203333 389.078,24.6406667 389.078,25.266 C389.078,25.7233333 389.173667,26.099 389.365,26.393 C389.556333,26.687 389.796667,26.9366667 390.086,27.142 C390.375333,27.3473333 390.690333,27.5293333 391.031,27.688 C391.371667,27.8466667 391.686667,28.017 391.976,28.199 C392.265333,28.381 392.505667,28.5956667 392.697,28.843 C392.888333,29.0903333 392.984,29.4006667 392.984,29.774 C392.984,30.2126667 392.855667,30.5626667 392.599,30.824 C392.342333,31.0853333 391.952667,31.216 391.43,31.216 C391.000667,31.216 390.606333,31.125 390.247,30.943 C389.887667,30.761 389.558667,30.5393333 389.26,30.278 L389.26,30.278 L388.728,31.076 C389.026667,31.3466667 389.386,31.5823333 389.806,31.783 C390.226,31.9836667 390.66,32.1073333 391.108,32.154 L391.108,32.154 L391.108,33.54 L391.948,33.54 Z M397.828,32.168 C398.276,32.168 398.703,32.077 399.109,31.895 C399.515,31.713 399.876667,31.4236667 400.194,31.027 C400.511333,30.6303333 400.763333,30.117 400.95,29.487 C401.136667,28.857 401.23,28.094 401.23,27.198 C401.23,26.4793333 401.153,25.8516667 400.999,25.315 C400.845,24.7783333 400.630333,24.3303333 400.355,23.971 C400.079667,23.6116667 399.753,23.3433333 399.375,23.166 C398.997,22.9886667 398.588667,22.9 398.15,22.9 C397.795333,22.9 397.457,22.97 397.135,23.11 C396.813,23.25 396.533,23.446 396.295,23.698 C396.057,23.95 395.868,24.251 395.728,24.601 C395.588,24.951 395.518,25.3406667 395.518,25.77 C395.518,26.694 395.746667,27.3846667 396.204,27.842 C396.661333,28.2993333 397.277333,28.528 398.052,28.528 C398.425333,28.528 398.798667,28.4253333 399.172,28.22 C399.545333,28.0146667 399.872,27.7346667 400.152,27.38 C400.142667,28.0986667 400.072667,28.7006667 399.942,29.186 C399.811333,29.6713333 399.638667,30.0656667 399.424,30.369 C399.209333,30.6723333 398.962,30.8893333 398.682,31.02 C398.402,31.1506667 398.103333,31.216 397.786,31.216 C397.506,31.216 397.237667,31.1506667 396.981,31.02 C396.724333,30.8893333 396.502667,30.7166667 396.316,30.502 L396.316,30.502 L395.672,31.23 C395.914667,31.5006667 396.215667,31.7246667 396.575,31.902 C396.934333,32.0793333 397.352,32.168 397.828,32.168 Z M398.248,27.66 C397.688,27.66 397.272667,27.492 397.002,27.156 C396.731333,26.82 396.596,26.358 396.596,25.77 C396.596,25.4806667 396.635667,25.2146667 396.715,24.972 C396.794333,24.7293333 396.904,24.5216667 397.044,24.349 C397.184,24.1763333 397.349667,24.0433333 397.541,23.95 C397.732333,23.8566667 397.935333,23.81 398.15,23.81 C398.719333,23.81 399.172,24.034 399.508,24.482 C399.844,24.93 400.049333,25.5926667 400.124,26.47 C399.834667,26.89 399.524333,27.1933333 399.193,27.38 C398.861667,27.5666667 398.546667,27.66 398.248,27.66 Z M407.264,32 L407.264,29.536 L408.482,29.536 L408.482,28.612 L407.264,28.612 L407.264,23.068 L405.976,23.068 L402.154,28.78 L402.154,29.536 L406.172,29.536 L406.172,32 L407.264,32 Z M406.172,28.612 L403.372,28.612 L405.458,25.56 C405.588667,25.3453333 405.714667,25.1353333 405.836,24.93 C405.957333,24.7246667 406.074,24.5146667 406.186,24.3 L406.186,24.3 L406.242,24.3 C406.223333,24.5426667 406.207,24.8296667 406.193,25.161 C406.179,25.4923333 406.172,25.7793333 406.172,26.022 L406.172,26.022 L406.172,28.612 Z M413.06,32 C413.573333,32 414.044667,31.944 414.474,31.832 C414.903333,31.72 415.272,31.552 415.58,31.328 C415.888,31.104 416.126,30.824 416.294,30.488 C416.462,30.152 416.546,29.76 416.546,29.312 C416.546,28.6773333 416.373333,28.178 416.028,27.814 C415.682667,27.45 415.23,27.2166667 414.67,27.114 L414.67,27.114 L414.67,27.058 C415.108667,26.918 415.442333,26.6636667 415.671,26.295 C415.899667,25.9263333 416.014,25.5133333 416.014,25.056 C416.014,24.6546667 415.937,24.3116667 415.783,24.027 C415.629,23.7423333 415.414333,23.5113333 415.139,23.334 C414.863667,23.1566667 414.532333,23.026 414.145,22.942 C413.757667,22.858 413.330667,22.816 412.864,22.816 L412.864,22.816 L410.134,22.816 L410.134,32 L413.06,32 Z M412.654,26.722 L411.296,26.722 L411.296,23.74 L412.71,23.74 C413.428667,23.74 413.967667,23.852 414.327,24.076 C414.686333,24.3 414.866,24.678 414.866,25.21 C414.866,25.6766667 414.693333,26.0453333 414.348,26.316 C414.002667,26.5866667 413.438,26.722 412.654,26.722 L412.654,26.722 Z M412.892,31.076 L411.296,31.076 L411.296,27.618 L412.892,27.618 C413.704,27.618 414.324667,27.751 414.754,28.017 C415.183333,28.283 415.398,28.7006667 415.398,29.27 C415.398,29.886 415.178667,30.341 414.74,30.635 C414.301333,30.929 413.685333,31.076 412.892,31.076 L412.892,31.076 Z" id="Unobligated$94B" fill="#666666" fill-rule="nonzero"></path>
                <path d="M196,8 L190,8 C188.895431,8 188,8.8954305 188,10 L188,26 C188,27.1045695 188.895431,28 190,28 L196,28 L196,28" id="Line-2" stroke="#C6C6C6" stroke-linecap="round"></path>
                <line x1="187.5" y1="18.5" x2="147.5" y2="18.5" id="Line-4" stroke="#C6C6C6" stroke-linecap="round"></line>
                <rect id="unobligated" fill="#F3E9FF" x="65" y="3" width="22" height="30"></rect>
                <rect id="obligated" fill="#6F41A7" x="63" y="3" width="2" height="30"></rect>
                <rect id="outlays" fill="#331E4D" x="-1.13686838e-13" y="3" width="63" height="30"></rect>
                <path d="M100.368,24.54 L100.368,23.084 C101.096,22.9253333 101.642,22.6056667 102.006,22.125 C102.37,21.6443333 102.552,21.068 102.552,20.396 C102.552,19.948 102.461,19.5723333 102.279,19.269 C102.097,18.9656667 101.868333,18.7066667 101.593,18.492 C101.317667,18.2773333 101.021333,18.0953333 100.704,17.946 C100.386667,17.7966667 100.090333,17.652 99.815,17.512 C99.5396667,17.372 99.311,17.225 99.129,17.071 C98.947,16.917 98.856,16.728 98.856,16.504 C98.856,16.1866667 98.9446667,15.958 99.122,15.818 C99.2993333,15.678 99.556,15.608 99.892,15.608 C100.190667,15.608 100.456667,15.6663333 100.69,15.783 C100.923333,15.8996667 101.166,16.0746667 101.418,16.308 L101.418,16.308 L102.454,15.132 C102.183333,14.8426667 101.88,14.5953333 101.544,14.39 C101.208,14.1846667 100.816,14.0493333 100.368,13.984 L100.368,13.984 L100.368,12.57 L99.01,12.57 L99.01,14.012 C98.3473333,14.1426667 97.827,14.4343333 97.449,14.887 C97.071,15.3396667 96.882,15.9113333 96.882,16.602 C96.882,17.022 96.973,17.3766667 97.155,17.666 C97.337,17.9553333 97.5656667,18.2073333 97.841,18.422 C98.1163333,18.6366667 98.4126667,18.821 98.73,18.975 C99.0473333,19.129 99.3436667,19.283 99.619,19.437 C99.8943333,19.591 100.123,19.752 100.305,19.92 C100.487,20.088 100.578,20.2933333 100.578,20.536 C100.578,20.8626667 100.487,21.1053333 100.305,21.264 C100.123,21.4226667 99.836,21.502 99.444,21.502 C99.108,21.502 98.779,21.4343333 98.457,21.299 C98.135,21.1636667 97.7966667,20.9606667 97.442,20.69 L97.442,20.69 L96.546,22.076 C96.8726667,22.3746667 97.2623333,22.615 97.715,22.797 C98.1676667,22.979 98.5993333,23.0933333 99.01,23.14 L99.01,23.14 L99.01,24.54 L100.368,24.54 Z M106.794,23.168 C107.242,23.168 107.666667,23.1096667 108.068,22.993 C108.469333,22.8763333 108.819333,22.7083333 109.118,22.489 C109.416667,22.2696667 109.654667,21.999 109.832,21.677 C110.009333,21.355 110.098,20.9886667 110.098,20.578 C110.098,19.9993333 109.932333,19.5303333 109.601,19.171 C109.269667,18.8116667 108.847333,18.5573333 108.334,18.408 L108.334,18.408 L108.334,18.352 C108.81,18.1466667 109.176333,17.883 109.433,17.561 C109.689667,17.239 109.818,16.8446667 109.818,16.378 C109.818,15.986 109.743333,15.6406667 109.594,15.342 C109.444667,15.0433333 109.237,14.789 108.971,14.579 C108.705,14.369 108.383,14.2103333 108.005,14.103 C107.627,13.9956667 107.209333,13.942 106.752,13.942 C106.201333,13.942 105.699667,14.0423333 105.247,14.243 C104.794333,14.4436667 104.362667,14.7213333 103.952,15.076 L103.952,15.076 L104.988,16.336 C105.268,16.0933333 105.536333,15.902 105.793,15.762 C106.049667,15.622 106.336667,15.552 106.654,15.552 C107.008667,15.552 107.279333,15.6383333 107.466,15.811 C107.652667,15.9836667 107.746,16.224 107.746,16.532 C107.746,16.7093333 107.711,16.8703333 107.641,17.015 C107.571,17.1596667 107.454333,17.2856667 107.291,17.393 C107.127667,17.5003333 106.913,17.582 106.647,17.638 C106.381,17.694 106.047333,17.722 105.646,17.722 L105.646,17.722 L105.646,19.178 C106.131333,19.178 106.528,19.2083333 106.836,19.269 C107.144,19.3296667 107.386667,19.4136667 107.564,19.521 C107.741333,19.6283333 107.865,19.7613333 107.935,19.92 C108.005,20.0786667 108.04,20.256 108.04,20.452 C108.04,20.788 107.909333,21.047 107.648,21.229 C107.386667,21.411 107.036667,21.502 106.598,21.502 C106.215333,21.502 105.863,21.418 105.541,21.25 C105.219,21.082 104.922667,20.8673333 104.652,20.606 L104.652,20.606 L103.7,21.908 C104.026667,22.2906667 104.442,22.5963333 104.946,22.825 C105.45,23.0536667 106.066,23.168 106.794,23.168 Z M115.082,23 C115.119333,22.132 115.175333,21.3643333 115.25,20.697 C115.324667,20.0296667 115.448333,19.4043333 115.621,18.821 C115.793667,18.2376667 116.036333,17.673 116.349,17.127 C116.661667,16.581 117.074667,15.9953333 117.588,15.37 L117.588,15.37 L117.588,14.11 L111.4,14.11 L111.4,15.846 L115.39,15.846 C114.97,16.4246667 114.617667,16.9846667 114.333,17.526 C114.048333,18.0673333 113.815,18.6203333 113.633,19.185 C113.451,19.7496667 113.311,20.3423333 113.213,20.963 C113.115,21.5836667 113.047333,22.2626667 113.01,23 L113.01,23 L115.082,23 Z M124.812,23 L124.812,21.334 L123.146,21.334 L123.146,14.11 L121.634,14.11 C121.316667,14.2966667 120.99,14.4553333 120.654,14.586 C120.318,14.7166667 119.907333,14.8286667 119.422,14.922 L119.422,14.922 L119.422,16.196 L121.088,16.196 L121.088,21.334 L119.156,21.334 L119.156,23 L124.812,23 Z M130.034,23 C130.528667,23 130.990667,22.9463333 131.42,22.839 C131.849333,22.7316667 132.225,22.5683333 132.547,22.349 C132.869,22.1296667 133.121,21.852 133.303,21.516 C133.485,21.18 133.576,20.7786667 133.576,20.312 C133.576,20.004 133.534,19.731 133.45,19.493 C133.366,19.255 133.249333,19.0473333 133.1,18.87 C132.950667,18.6926667 132.778,18.5456667 132.582,18.429 C132.386,18.3123333 132.171333,18.226 131.938,18.17 L131.938,18.17 L131.938,18.114 C132.124667,18.0486667 132.290333,17.946 132.435,17.806 C132.579667,17.666 132.703333,17.5073333 132.806,17.33 C132.908667,17.1526667 132.988,16.9613333 133.044,16.756 C133.1,16.5506667 133.128,16.3453333 133.128,16.14 C133.128,15.7013333 133.041667,15.3373333 132.869,15.048 C132.696333,14.7586667 132.458333,14.5253333 132.155,14.348 C131.851667,14.1706667 131.497,14.047 131.091,13.977 C130.685,13.907 130.244,13.872 129.768,13.872 L129.768,13.872 L126.646,13.872 L126.646,23 L130.034,23 Z M129.67,17.526 L128.704,17.526 L128.704,15.468 L129.684,15.468 C130.169333,15.468 130.528667,15.5426667 130.762,15.692 C130.995333,15.8413333 131.112,16.0933333 131.112,16.448 C131.112,16.7746667 130.997667,17.036 130.769,17.232 C130.540333,17.428 130.174,17.526 129.67,17.526 L129.67,17.526 Z M129.866,21.404 L128.704,21.404 L128.704,19.052 L129.866,19.052 C130.435333,19.052 130.86,19.1383333 131.14,19.311 C131.42,19.4836667 131.56,19.7706667 131.56,20.172 C131.56,20.9933333 130.995333,21.404 129.866,21.404 L129.866,21.404 Z" id="$371B" fill="#555555" fill-rule="nonzero"></path>
            </g>
        </g>
    </g>
</svg>