<?xml version="1.0" encoding="UTF-8"?>
<svg width="315px" height="85px" viewBox="0 0 315 85" version="1.1" xmlns="http://www.w3.org/2000/svg" xmlns:xlink="http://www.w3.org/1999/xlink">
    <title>05. phase 3 general</title>
    <g id="Viz-3-(v2)" stroke="none" stroke-width="1" fill="none" fill-rule="evenodd">
        <g id="Viz-3---SVG-Export-Tablet-Outline" transform="translate(-70.000000, -1077.000000)">
            <g id="05.-phase-3-general" transform="translate(70.000000, 1077.000000)">
                <path d="M4.718,63.168 C5.31533333,63.168 5.86133333,63.0583333 6.356,62.839 C6.85066667,62.6196667 7.27766667,62.3023333 7.637,61.887 C7.99633333,61.4716667 8.274,60.97 8.47,60.382 C8.666,59.794 8.764,59.1266667 8.764,58.38 C8.764,57.6426667 8.666,56.9823333 8.47,56.399 C8.274,55.8156667 7.99633333,55.3233333 7.637,54.922 C7.27766667,54.5206667 6.85066667,54.2126667 6.356,53.998 C5.86133333,53.7833333 5.31533333,53.676 4.718,53.676 C4.12066667,53.676 3.57466667,53.7833333 3.08,53.998 C2.58533333,54.2126667 2.16066667,54.5206667 1.806,54.922 C1.45133333,55.3233333 1.176,55.8156667 0.98,56.399 C0.784,56.9823333 0.686,57.6426667 0.686,58.38 C0.686,59.1266667 0.784,59.794 0.98,60.382 C1.176,60.97 1.45133333,61.4716667 1.806,61.887 C2.16066667,62.3023333 2.58533333,62.6196667 3.08,62.839 C3.57466667,63.0583333 4.12066667,63.168 4.718,63.168 Z M4.718,61.754 C4.354,61.754 4.02733333,61.6746667 3.738,61.516 C3.44866667,61.3573333 3.20133333,61.131 2.996,60.837 C2.79066667,60.543 2.632,60.1883333 2.52,59.773 C2.408,59.3576667 2.352,58.8933333 2.352,58.38 C2.352,57.3533333 2.56433333,56.5483333 2.989,55.965 C3.41366667,55.3816667 3.99,55.09 4.718,55.09 C5.446,55.09 6.02233333,55.3816667 6.447,55.965 C6.87166667,56.5483333 7.084,57.3533333 7.084,58.38 C7.084,58.8933333 7.028,59.3576667 6.916,59.773 C6.804,60.1883333 6.64533333,60.543 6.44,60.837 C6.23466667,61.131 5.98733333,61.3573333 5.698,61.516 C5.40866667,61.6746667 5.082,61.754 4.718,61.754 Z M12.502,63.168 C12.978,63.168 13.391,63.0606667 13.741,62.846 C14.091,62.6313333 14.4153333,62.3466667 14.714,61.992 L14.714,61.992 L14.756,61.992 L14.882,63 L16.198,63 L16.198,56.126 L14.588,56.126 L14.588,60.83 C14.3266667,61.166 14.0816667,61.4086667 13.853,61.558 C13.6243333,61.7073333 13.3606667,61.782 13.062,61.782 C12.6886667,61.782 12.418,61.6653333 12.25,61.432 C12.082,61.1986667 11.998,60.7973333 11.998,60.228 L11.998,60.228 L11.998,56.126 L10.388,56.126 L10.388,60.438 C10.388,61.3153333 10.556,61.9896667 10.892,62.461 C11.228,62.9323333 11.7646667,63.168 12.502,63.168 Z M20.664,63.168 C20.9346667,63.168 21.189,63.1423333 21.427,63.091 C21.665,63.0396667 21.8773333,62.9813333 22.064,62.916 L22.064,62.916 L21.784,61.726 C21.6813333,61.7726667 21.567,61.81 21.441,61.838 C21.315,61.866 21.1913333,61.88 21.07,61.88 C20.426,61.88 20.104,61.4786667 20.104,60.676 L20.104,60.676 L20.104,57.4 L21.854,57.4 L21.854,56.126 L20.104,56.126 L20.104,54.25 L18.76,54.25 L18.564,56.126 L17.5,56.196 L17.5,57.4 L18.48,57.4 L18.48,60.676 C18.48,61.0493333 18.5196667,61.3876667 18.599,61.691 C18.6783333,61.9943333 18.8043333,62.2556667 18.977,62.475 C19.1496667,62.6943333 19.3736667,62.8646667 19.649,62.986 C19.9243333,63.1073333 20.2626667,63.168 20.664,63.168 Z M24.864,63.168 C25.2186667,63.168 25.5033333,63.1213333 25.718,63.028 L25.718,63.028 L25.508,61.824 C25.4426667,61.8426667 25.3936667,61.852 25.361,61.852 L25.361,61.852 L25.256,61.852 C25.172,61.852 25.0926667,61.8123333 25.018,61.733 C24.9433333,61.6536667 24.906,61.516 24.906,61.32 L24.906,61.32 L24.906,53.116 L23.296,53.116 L23.296,61.236 C23.296,61.8333333 23.4126667,62.3046667 23.646,62.65 C23.8793333,62.9953333 24.2853333,63.168 24.864,63.168 Z M28.756,63.168 C29.1666667,63.168 29.547,63.0793333 29.897,62.902 C30.247,62.7246667 30.576,62.5053333 30.884,62.244 L30.884,62.244 L30.94,62.244 L31.052,63 L32.382,63 L32.382,58.926 C32.382,57.9646667 32.1696667,57.2296667 31.745,56.721 C31.3203333,56.2123333 30.6786667,55.958 29.82,55.958 C29.2693333,55.958 28.756,56.0466667 28.28,56.224 C27.804,56.4013333 27.3746667,56.6113333 26.992,56.854 L26.992,56.854 L27.58,57.932 C27.888,57.7453333 28.203,57.5866667 28.525,57.456 C28.847,57.3253333 29.176,57.26 29.512,57.26 C29.7453333,57.26 29.9413333,57.295 30.1,57.365 C30.2586667,57.435 30.387,57.533 30.485,57.659 C30.583,57.785 30.653,57.9296667 30.695,58.093 C30.737,58.2563333 30.7626667,58.4266667 30.772,58.604 C30.0626667,58.6786667 29.4536667,58.786 28.945,58.926 C28.4363333,59.066 28.0163333,59.2386667 27.685,59.444 C27.3536667,59.6493333 27.111,59.8943333 26.957,60.179 C26.803,60.4636667 26.726,60.788 26.726,61.152 C26.726,61.7586667 26.9126667,62.2463333 27.286,62.615 C27.6593333,62.9836667 28.1493333,63.168 28.756,63.168 Z M29.274,61.908 C28.9846667,61.908 28.7466667,61.838 28.56,61.698 C28.3733333,61.558 28.28,61.334 28.28,61.026 C28.28,60.858 28.322,60.6993333 28.406,60.55 C28.49,60.4006667 28.63,60.2676667 28.826,60.151 C29.022,60.0343333 29.2786667,59.9293333 29.596,59.836 C29.9133333,59.7426667 30.3053333,59.668 30.772,59.612 L30.772,59.612 L30.772,61.152 C30.5106667,61.3946667 30.2656667,61.5813333 30.037,61.712 C29.8083333,61.8426667 29.554,61.908 29.274,61.908 Z M34.776,65.828 C35.1493333,65.828 35.4783333,65.7696667 35.763,65.653 C36.0476667,65.5363333 36.2996667,65.3683333 36.519,65.149 C36.7383333,64.9296667 36.932,64.666 37.1,64.358 C37.268,64.05 37.422,63.7 37.562,63.308 L37.562,63.308 L40.054,56.126 L38.5,56.126 L37.464,59.5 C37.38,59.808 37.2936667,60.1276667 37.205,60.459 C37.1163333,60.7903333 37.03,61.1146667 36.946,61.432 L36.946,61.432 L36.89,61.432 C36.7873333,61.1053333 36.687,60.7763333 36.589,60.445 C36.491,60.1136667 36.3906667,59.7986667 36.288,59.5 L36.288,59.5 L35.098,56.126 L33.46,56.126 L36.162,62.916 L36.036,63.35 C35.924,63.6953333 35.7583333,63.9776667 35.539,64.197 C35.3196667,64.4163333 35.028,64.526 34.664,64.526 C34.58,64.526 34.4936667,64.5143333 34.405,64.491 C34.3163333,64.4676667 34.2393333,64.4466667 34.174,64.428 L34.174,64.428 L33.88,65.688 C34.0106667,65.7346667 34.146,65.7696667 34.286,65.793 C34.426,65.8163333 34.5893333,65.828 34.776,65.828 Z M43.162,63.168 C43.5913333,63.168 43.974,63.112 44.31,63 C44.646,62.888 44.926,62.7363333 45.15,62.545 C45.374,62.3536667 45.5443333,62.1296667 45.661,61.873 C45.7776667,61.6163333 45.836,61.3386667 45.836,61.04 C45.836,60.7226667 45.7776667,60.4496667 45.661,60.221 C45.5443333,59.9923333 45.3903333,59.7986667 45.199,59.64 C45.0076667,59.4813333 44.7953333,59.3483333 44.562,59.241 C44.3286667,59.1336667 44.0953333,59.038 43.862,58.954 C43.6753333,58.8886667 43.4956667,58.8233333 43.323,58.758 C43.1503333,58.6926667 42.9986667,58.6226667 42.868,58.548 C42.7373333,58.4733333 42.6323333,58.387 42.553,58.289 C42.4736667,58.191 42.434,58.072 42.434,57.932 C42.434,57.7173333 42.5156667,57.5376667 42.679,57.393 C42.8423333,57.2483333 43.0966667,57.176 43.442,57.176 C43.7126667,57.176 43.9716667,57.2296667 44.219,57.337 C44.4663333,57.4443333 44.7113333,57.5866667 44.954,57.764 L44.954,57.764 L45.696,56.784 C45.416,56.5693333 45.0846667,56.378 44.702,56.21 C44.3193333,56.042 43.89,55.958 43.414,55.958 C42.6393333,55.958 42.028,56.1493333 41.58,56.532 C41.132,56.9146667 40.908,57.4093333 40.908,58.016 C40.908,58.3053333 40.9663333,58.555 41.083,58.765 C41.1996667,58.975 41.349,59.1593333 41.531,59.318 C41.713,59.4766667 41.9206667,59.612 42.154,59.724 C42.3873333,59.836 42.616,59.934 42.84,60.018 C43.0173333,60.0926667 43.1946667,60.165 43.372,60.235 C43.5493333,60.305 43.708,60.382 43.848,60.466 C43.988,60.55 44.1,60.6456667 44.184,60.753 C44.268,60.8603333 44.31,60.984 44.31,61.124 C44.31,61.3666667 44.2213333,61.565 44.044,61.719 C43.8666667,61.873 43.5913333,61.95 43.218,61.95 C42.8633333,61.95 42.5343333,61.8823333 42.231,61.747 C41.9276667,61.6116667 41.622,61.4226667 41.314,61.18 L41.314,61.18 L40.558,62.216 C40.894,62.4866667 41.293,62.713 41.755,62.895 C42.217,63.077 42.686,63.168 43.162,63.168 Z M3.948,82.54 L3.948,81.126 C4.62,81.0326667 5.14966667,80.7713333 5.537,80.342 C5.92433333,79.9126667 6.118,79.362 6.118,78.69 C6.118,78.186 6.02233333,77.773 5.831,77.451 C5.63966667,77.129 5.39933333,76.8583333 5.11,76.639 C4.82066667,76.4196667 4.50566667,76.233 4.165,76.079 C3.82433333,75.925 3.50933333,75.7663333 3.22,75.603 C2.93066667,75.4396667 2.69033333,75.2506667 2.499,75.036 C2.30766667,74.8213333 2.212,74.546 2.212,74.21 C2.212,73.7993333 2.338,73.4726667 2.59,73.23 C2.842,72.9873333 3.18266667,72.866 3.612,72.866 C3.99466667,72.866 4.30966667,72.936 4.557,73.076 C4.80433333,73.216 5.05866667,73.412 5.32,73.664 L5.32,73.664 L5.936,72.978 C5.684,72.7073333 5.40166667,72.474 5.089,72.278 C4.77633333,72.082 4.396,71.9606667 3.948,71.914 L3.948,71.914 L3.948,70.528 L3.108,70.528 L3.108,71.942 C2.492,72.0353333 1.99966667,72.2896667 1.631,72.705 C1.26233333,73.1203333 1.078,73.6406667 1.078,74.266 C1.078,74.7233333 1.17366667,75.099 1.365,75.393 C1.55633333,75.687 1.79666667,75.9366667 2.086,76.142 C2.37533333,76.3473333 2.69033333,76.5293333 3.031,76.688 C3.37166667,76.8466667 3.68666667,77.017 3.976,77.199 C4.26533333,77.381 4.50566667,77.5956667 4.697,77.843 C4.88833333,78.0903333 4.984,78.4006667 4.984,78.774 C4.984,79.2126667 4.85566667,79.5626667 4.599,79.824 C4.34233333,80.0853333 3.95266667,80.216 3.43,80.216 C3.00066667,80.216 2.60633333,80.125 2.247,79.943 C1.88766667,79.761 1.55866667,79.5393333 1.26,79.278 L1.26,79.278 L0.728,80.076 C1.02666667,80.3466667 1.386,80.5823333 1.806,80.783 C2.226,80.9836667 2.66,81.1073333 3.108,81.154 L3.108,81.154 L3.108,82.54 L3.948,82.54 Z M10.626,81 C10.6633333,80.132 10.7263333,79.341 10.815,78.627 C10.9036667,77.913 11.046,77.2363333 11.242,76.597 C11.438,75.9576667 11.7016667,75.33 12.033,74.714 C12.3643333,74.098 12.796,73.454 13.328,72.782 L13.328,72.782 L13.328,72.068 L7.574,72.068 L7.574,73.062 L12.026,73.062 C11.5873333,73.678 11.2116667,74.28 10.899,74.868 C10.5863333,75.456 10.3296667,76.065 10.129,76.695 C9.92833333,77.325 9.772,77.99 9.66,78.69 C9.548,79.39 9.47333333,80.16 9.436,81 L9.436,81 L10.626,81 Z M16.786,81.168 C17.234,81.168 17.661,81.077 18.067,80.895 C18.473,80.713 18.8346667,80.4236667 19.152,80.027 C19.4693333,79.6303333 19.7213333,79.117 19.908,78.487 C20.0946667,77.857 20.188,77.094 20.188,76.198 C20.188,75.4793333 20.111,74.8516667 19.957,74.315 C19.803,73.7783333 19.5883333,73.3303333 19.313,72.971 C19.0376667,72.6116667 18.711,72.3433333 18.333,72.166 C17.955,71.9886667 17.5466667,71.9 17.108,71.9 C16.7533333,71.9 16.415,71.97 16.093,72.11 C15.771,72.25 15.491,72.446 15.253,72.698 C15.015,72.95 14.826,73.251 14.686,73.601 C14.546,73.951 14.476,74.3406667 14.476,74.77 C14.476,75.694 14.7046667,76.3846667 15.162,76.842 C15.6193333,77.2993333 16.2353333,77.528 17.01,77.528 C17.3833333,77.528 17.7566667,77.4253333 18.13,77.22 C18.5033333,77.0146667 18.83,76.7346667 19.11,76.38 C19.1006667,77.0986667 19.0306667,77.7006667 18.9,78.186 C18.7693333,78.6713333 18.5966667,79.0656667 18.382,79.369 C18.1673333,79.6723333 17.92,79.8893333 17.64,80.02 C17.36,80.1506667 17.0613333,80.216 16.744,80.216 C16.464,80.216 16.1956667,80.1506667 15.939,80.02 C15.6823333,79.8893333 15.4606667,79.7166667 15.274,79.502 L15.274,79.502 L14.63,80.23 C14.8726667,80.5006667 15.1736667,80.7246667 15.533,80.902 C15.8923333,81.0793333 16.31,81.168 16.786,81.168 Z M17.206,76.66 C16.646,76.66 16.2306667,76.492 15.96,76.156 C15.6893333,75.82 15.554,75.358 15.554,74.77 C15.554,74.4806667 15.5936667,74.2146667 15.673,73.972 C15.7523333,73.7293333 15.862,73.5216667 16.002,73.349 C16.142,73.1763333 16.3076667,73.0433333 16.499,72.95 C16.6903333,72.8566667 16.8933333,72.81 17.108,72.81 C17.6773333,72.81 18.13,73.034 18.466,73.482 C18.802,73.93 19.0073333,74.5926667 19.082,75.47 C18.7926667,75.89 18.4823333,76.1933333 18.151,76.38 C17.8196667,76.5666667 17.5046667,76.66 17.206,76.66 Z M24.36,81.168 C25.256,81.168 25.956,80.7666667 26.46,79.964 C26.964,79.1613333 27.216,78.0086667 27.216,76.506 C27.216,75.0033333 26.964,73.86 26.46,73.076 C25.956,72.292 25.256,71.9 24.36,71.9 C23.4546667,71.9 22.75,72.292 22.246,73.076 C21.742,73.86 21.49,75.0033333 21.49,76.506 C21.49,78.0086667 21.742,79.1613333 22.246,79.964 C22.75,80.7666667 23.4546667,81.168 24.36,81.168 Z M24.36,80.244 C23.8373333,80.244 23.415,79.9476667 23.093,79.355 C22.771,78.7623333 22.61,77.8126667 22.61,76.506 C22.61,75.8526667 22.652,75.2926667 22.736,74.826 C22.82,74.3593333 22.939,73.979 23.093,73.685 C23.247,73.391 23.4313333,73.174 23.646,73.034 C23.8606667,72.894 24.0986667,72.824 24.36,72.824 C24.6213333,72.824 24.857,72.894 25.067,73.034 C25.277,73.174 25.459,73.391 25.613,73.685 C25.767,73.979 25.886,74.3593333 25.97,74.826 C26.054,75.2926667 26.096,75.8526667 26.096,76.506 C26.096,77.1593333 26.054,77.7216667 25.97,78.193 C25.886,78.6643333 25.767,79.0516667 25.613,79.355 C25.459,79.6583333 25.277,79.8823333 25.067,80.027 C24.857,80.1716667 24.6213333,80.244 24.36,80.244 Z M32.018,81 C32.5313333,81 33.0026667,80.944 33.432,80.832 C33.8613333,80.72 34.23,80.552 34.538,80.328 C34.846,80.104 35.084,79.824 35.252,79.488 C35.42,79.152 35.504,78.76 35.504,78.312 C35.504,77.6773333 35.3313333,77.178 34.986,76.814 C34.6406667,76.45 34.188,76.2166667 33.628,76.114 L33.628,76.114 L33.628,76.058 C34.0666667,75.918 34.4003333,75.6636667 34.629,75.295 C34.8576667,74.9263333 34.972,74.5133333 34.972,74.056 C34.972,73.6546667 34.895,73.3116667 34.741,73.027 C34.587,72.7423333 34.3723333,72.5113333 34.097,72.334 C33.8216667,72.1566667 33.4903333,72.026 33.103,71.942 C32.7156667,71.858 32.2886667,71.816 31.822,71.816 L31.822,71.816 L29.092,71.816 L29.092,81 L32.018,81 Z M31.612,75.722 L30.254,75.722 L30.254,72.74 L31.668,72.74 C32.3866667,72.74 32.9256667,72.852 33.285,73.076 C33.6443333,73.3 33.824,73.678 33.824,74.21 C33.824,74.6766667 33.6513333,75.0453333 33.306,75.316 C32.9606667,75.5866667 32.396,75.722 31.612,75.722 L31.612,75.722 Z M31.85,80.076 L30.254,80.076 L30.254,76.618 L31.85,76.618 C32.662,76.618 33.2826667,76.751 33.712,77.017 C34.1413333,77.283 34.356,77.7006667 34.356,78.27 C34.356,78.886 34.1366667,79.341 33.698,79.635 C33.2593333,79.929 32.6433333,80.076 31.85,80.076 L31.85,80.076 Z" id="Outlays$790B" fill="#666666" fill-rule="nonzero"></path>
                <path d="M113.718,63.168 C114.315333,63.168 114.861333,63.0583333 115.356,62.839 C115.850667,62.6196667 116.277667,62.3023333 116.637,61.887 C116.996333,61.4716667 117.274,60.97 117.47,60.382 C117.666,59.794 117.764,59.1266667 117.764,58.38 C117.764,57.6426667 117.666,56.9823333 117.47,56.399 C117.274,55.8156667 116.996333,55.3233333 116.637,54.922 C116.277667,54.5206667 115.850667,54.2126667 115.356,53.998 C114.861333,53.7833333 114.315333,53.676 113.718,53.676 C113.120667,53.676 112.574667,53.7833333 112.08,53.998 C111.585333,54.2126667 111.160667,54.5206667 110.806,54.922 C110.451333,55.3233333 110.176,55.8156667 109.98,56.399 C109.784,56.9823333 109.686,57.6426667 109.686,58.38 C109.686,59.1266667 109.784,59.794 109.98,60.382 C110.176,60.97 110.451333,61.4716667 110.806,61.887 C111.160667,62.3023333 111.585333,62.6196667 112.08,62.839 C112.574667,63.0583333 113.120667,63.168 113.718,63.168 Z M113.718,61.754 C113.354,61.754 113.027333,61.6746667 112.738,61.516 C112.448667,61.3573333 112.201333,61.131 111.996,60.837 C111.790667,60.543 111.632,60.1883333 111.52,59.773 C111.408,59.3576667 111.352,58.8933333 111.352,58.38 C111.352,57.3533333 111.564333,56.5483333 111.989,55.965 C112.413667,55.3816667 112.99,55.09 113.718,55.09 C114.446,55.09 115.022333,55.3816667 115.447,55.965 C115.871667,56.5483333 116.084,57.3533333 116.084,58.38 C116.084,58.8933333 116.028,59.3576667 115.916,59.773 C115.804,60.1883333 115.645333,60.543 115.44,60.837 C115.234667,61.131 114.987333,61.3573333 114.698,61.516 C114.408667,61.6746667 114.082,61.754 113.718,61.754 Z M122.79,63.168 C123.172667,63.168 123.541333,63.084 123.896,62.916 C124.250667,62.748 124.563333,62.5053333 124.834,62.188 C125.104667,61.8706667 125.321667,61.481 125.485,61.019 C125.648333,60.557 125.73,60.032 125.73,59.444 C125.73,58.912 125.669333,58.4313333 125.548,58.002 C125.426667,57.5726667 125.249333,57.2063333 125.016,56.903 C124.782667,56.5996667 124.498,56.3663333 124.162,56.203 C123.826,56.0396667 123.443333,55.958 123.014,55.958 C122.659333,55.958 122.311667,56.0373333 121.971,56.196 C121.630333,56.3546667 121.315333,56.56 121.026,56.812 L121.026,56.812 L121.068,55.664 L121.068,53.116 L119.458,53.116 L119.458,63 L120.732,63 L120.872,62.272 L120.914,62.272 C121.203333,62.5613333 121.509,62.783 121.831,62.937 C122.153,63.091 122.472667,63.168 122.79,63.168 Z M122.454,61.838 C122.248667,61.838 122.027,61.796 121.789,61.712 C121.551,61.628 121.310667,61.4786667 121.068,61.264 L121.068,61.264 L121.068,58.058 C121.590667,57.5446667 122.094667,57.288 122.58,57.288 C123.102667,57.288 123.480667,57.4793333 123.714,57.862 C123.947333,58.2446667 124.064,58.7813333 124.064,59.472 C124.064,60.256 123.91,60.8463333 123.602,61.243 C123.294,61.6396667 122.911333,61.838 122.454,61.838 Z M128.908,63.168 C129.262667,63.168 129.547333,63.1213333 129.762,63.028 L129.762,63.028 L129.552,61.824 C129.486667,61.8426667 129.437667,61.852 129.405,61.852 L129.405,61.852 L129.3,61.852 C129.216,61.852 129.136667,61.8123333 129.062,61.733 C128.987333,61.6536667 128.95,61.516 128.95,61.32 L128.95,61.32 L128.95,53.116 L127.34,53.116 L127.34,61.236 C127.34,61.8333333 127.456667,62.3046667 127.69,62.65 C127.923333,62.9953333 128.329333,63.168 128.908,63.168 Z M131.946,54.922 C132.235333,54.922 132.473333,54.838 132.66,54.67 C132.846667,54.502 132.94,54.2826667 132.94,54.012 C132.94,53.7413333 132.846667,53.5196667 132.66,53.347 C132.473333,53.1743333 132.235333,53.088 131.946,53.088 C131.656667,53.088 131.418667,53.1743333 131.232,53.347 C131.045333,53.5196667 130.952,53.7413333 130.952,54.012 C130.952,54.2826667 131.045333,54.502 131.232,54.67 C131.418667,54.838 131.656667,54.922 131.946,54.922 Z M132.744,63 L132.744,56.126 L131.134,56.126 L131.134,63 L132.744,63 Z M137.196,66.038 C137.756,66.038 138.262333,65.975 138.715,65.849 C139.167667,65.723 139.552667,65.5526667 139.87,65.338 C140.187333,65.1233333 140.432333,64.8666667 140.605,64.568 C140.777667,64.2693333 140.864,63.952 140.864,63.616 C140.864,63.0186667 140.651667,62.587 140.227,62.321 C139.802333,62.055 139.174667,61.922 138.344,61.922 L138.344,61.922 L137.126,61.922 C136.706,61.922 136.414333,61.866 136.251,61.754 C136.087667,61.642 136.006,61.488 136.006,61.292 C136.006,61.1333333 136.036333,61.0073333 136.097,60.914 C136.157667,60.8206667 136.239333,60.7273333 136.342,60.634 C136.500667,60.6993333 136.659333,60.746 136.818,60.774 C136.976667,60.802 137.130667,60.816 137.28,60.816 C137.644,60.816 137.984667,60.7646667 138.302,60.662 C138.619333,60.5593333 138.894667,60.41 139.128,60.214 C139.361333,60.018 139.545667,59.7753333 139.681,59.486 C139.816333,59.1966667 139.884,58.8606667 139.884,58.478 C139.884,58.2353333 139.846667,58.0136667 139.772,57.813 C139.697333,57.6123333 139.604,57.4466667 139.492,57.316 L139.492,57.316 L140.752,57.316 L140.752,56.126 L138.288,56.126 C138.148,56.0793333 137.991667,56.0396667 137.819,56.007 C137.646333,55.9743333 137.466667,55.958 137.28,55.958 C136.916,55.958 136.570667,56.0116667 136.244,56.119 C135.917333,56.2263333 135.630333,56.385 135.383,56.595 C135.135667,56.805 134.937333,57.064 134.788,57.372 C134.638667,57.68 134.564,58.03 134.564,58.422 C134.564,58.8326667 134.655,59.1943333 134.837,59.507 C135.019,59.8196667 135.226667,60.0646667 135.46,60.242 L135.46,60.242 L135.46,60.298 C135.264,60.438 135.089,60.6176667 134.935,60.837 C134.781,61.0563333 134.704,61.3013333 134.704,61.572 C134.704,61.852 134.762333,62.0853333 134.879,62.272 C134.995667,62.4586667 135.142667,62.608 135.32,62.72 L135.32,62.72 L135.32,62.776 C135.002667,62.972 134.76,63.1936667 134.592,63.441 C134.424,63.6883333 134.34,63.9566667 134.34,64.246 C134.34,64.5446667 134.412333,64.806 134.557,65.03 C134.701667,65.254 134.9,65.4406667 135.152,65.59 C135.404,65.7393333 135.705,65.8513333 136.055,65.926 C136.405,66.0006667 136.785333,66.038 137.196,66.038 Z M137.28,59.808 C136.944,59.808 136.659333,59.689 136.426,59.451 C136.192667,59.213 136.076,58.87 136.076,58.422 C136.076,57.9833333 136.192667,57.6473333 136.426,57.414 C136.659333,57.1806667 136.944,57.064 137.28,57.064 C137.616,57.064 137.898333,57.183 138.127,57.421 C138.355667,57.659 138.47,57.9926667 138.47,58.422 C138.47,58.87 138.353333,59.213 138.12,59.451 C137.886667,59.689 137.606667,59.808 137.28,59.808 Z M137.448,64.988 C136.897333,64.988 136.465667,64.9016667 136.153,64.729 C135.840333,64.5563333 135.684,64.316 135.684,64.008 C135.684,63.672 135.861333,63.3686667 136.216,63.098 C136.468,63.1633333 136.780667,63.196 137.154,63.196 L137.154,63.196 L138.092,63.196 C138.484,63.196 138.785,63.2426667 138.995,63.336 C139.205,63.4293333 139.31,63.6113333 139.31,63.882 C139.31,64.1806667 139.139667,64.4396667 138.799,64.659 C138.458333,64.8783333 138.008,64.988 137.448,64.988 Z M143.496,63.168 C143.906667,63.168 144.287,63.0793333 144.637,62.902 C144.987,62.7246667 145.316,62.5053333 145.624,62.244 L145.624,62.244 L145.68,62.244 L145.792,63 L147.122,63 L147.122,58.926 C147.122,57.9646667 146.909667,57.2296667 146.485,56.721 C146.060333,56.2123333 145.418667,55.958 144.56,55.958 C144.009333,55.958 143.496,56.0466667 143.02,56.224 C142.544,56.4013333 142.114667,56.6113333 141.732,56.854 L141.732,56.854 L142.32,57.932 C142.628,57.7453333 142.943,57.5866667 143.265,57.456 C143.587,57.3253333 143.916,57.26 144.252,57.26 C144.485333,57.26 144.681333,57.295 144.84,57.365 C144.998667,57.435 145.127,57.533 145.225,57.659 C145.323,57.785 145.393,57.9296667 145.435,58.093 C145.477,58.2563333 145.502667,58.4266667 145.512,58.604 C144.802667,58.6786667 144.193667,58.786 143.685,58.926 C143.176333,59.066 142.756333,59.2386667 142.425,59.444 C142.093667,59.6493333 141.851,59.8943333 141.697,60.179 C141.543,60.4636667 141.466,60.788 141.466,61.152 C141.466,61.7586667 141.652667,62.2463333 142.026,62.615 C142.399333,62.9836667 142.889333,63.168 143.496,63.168 Z M144.014,61.908 C143.724667,61.908 143.486667,61.838 143.3,61.698 C143.113333,61.558 143.02,61.334 143.02,61.026 C143.02,60.858 143.062,60.6993333 143.146,60.55 C143.23,60.4006667 143.37,60.2676667 143.566,60.151 C143.762,60.0343333 144.018667,59.9293333 144.336,59.836 C144.653333,59.7426667 145.045333,59.668 145.512,59.612 L145.512,59.612 L145.512,61.152 C145.250667,61.3946667 145.005667,61.5813333 144.777,61.712 C144.548333,61.8426667 144.294,61.908 144.014,61.908 Z M151.252,63.168 C151.522667,63.168 151.777,63.1423333 152.015,63.091 C152.253,63.0396667 152.465333,62.9813333 152.652,62.916 L152.652,62.916 L152.372,61.726 C152.269333,61.7726667 152.155,61.81 152.029,61.838 C151.903,61.866 151.779333,61.88 151.658,61.88 C151.014,61.88 150.692,61.4786667 150.692,60.676 L150.692,60.676 L150.692,57.4 L152.442,57.4 L152.442,56.126 L150.692,56.126 L150.692,54.25 L149.348,54.25 L149.152,56.126 L148.088,56.196 L148.088,57.4 L149.068,57.4 L149.068,60.676 C149.068,61.0493333 149.107667,61.3876667 149.187,61.691 C149.266333,61.9943333 149.392333,62.2556667 149.565,62.475 C149.737667,62.6943333 149.961667,62.8646667 150.237,62.986 C150.512333,63.1073333 150.850667,63.168 151.252,63.168 Z M154.696,54.922 C154.985333,54.922 155.223333,54.838 155.41,54.67 C155.596667,54.502 155.69,54.2826667 155.69,54.012 C155.69,53.7413333 155.596667,53.5196667 155.41,53.347 C155.223333,53.1743333 154.985333,53.088 154.696,53.088 C154.406667,53.088 154.168667,53.1743333 153.982,53.347 C153.795333,53.5196667 153.702,53.7413333 153.702,54.012 C153.702,54.2826667 153.795333,54.502 153.982,54.67 C154.168667,54.838 154.406667,54.922 154.696,54.922 Z M155.494,63 L155.494,56.126 L153.884,56.126 L153.884,63 L155.494,63 Z M160.366,63.168 C160.795333,63.168 161.208333,63.0886667 161.605,62.93 C162.001667,62.7713333 162.349333,62.538 162.648,62.23 C162.946667,61.922 163.187,61.544 163.369,61.096 C163.551,60.648 163.642,60.1393333 163.642,59.57 C163.642,59.0006667 163.551,58.492 163.369,58.044 C163.187,57.596 162.946667,57.218 162.648,56.91 C162.349333,56.602 162.001667,56.3663333 161.605,56.203 C161.208333,56.0396667 160.795333,55.958 160.366,55.958 C159.936667,55.958 159.526,56.0396667 159.134,56.203 C158.742,56.3663333 158.394333,56.602 158.091,56.91 C157.787667,57.218 157.547333,57.596 157.37,58.044 C157.192667,58.492 157.104,59.0006667 157.104,59.57 C157.104,60.1393333 157.192667,60.648 157.37,61.096 C157.547333,61.544 157.787667,61.922 158.091,62.23 C158.394333,62.538 158.742,62.7713333 159.134,62.93 C159.526,63.0886667 159.936667,63.168 160.366,63.168 Z M160.366,61.852 C159.862,61.852 159.467667,61.6443333 159.183,61.229 C158.898333,60.8136667 158.756,60.2606667 158.756,59.57 C158.756,58.87 158.898333,58.3123333 159.183,57.897 C159.467667,57.4816667 159.862,57.274 160.366,57.274 C160.87,57.274 161.266667,57.4816667 161.556,57.897 C161.845333,58.3123333 161.99,58.87 161.99,59.57 C161.99,60.2606667 161.845333,60.8136667 161.556,61.229 C161.266667,61.6443333 160.87,61.852 160.366,61.852 Z M166.848,63 L166.848,58.198 C167.137333,57.918 167.396333,57.7056667 167.625,57.561 C167.853667,57.4163333 168.117333,57.344 168.416,57.344 C168.798667,57.344 169.074,57.4606667 169.242,57.694 C169.41,57.9273333 169.494,58.3286667 169.494,58.898 L169.494,58.898 L169.494,63 L171.104,63 L171.104,58.688 C171.104,57.8106667 170.936,57.1363333 170.6,56.665 C170.264,56.1936667 169.727333,55.958 168.99,55.958 C168.514,55.958 168.096333,56.0653333 167.737,56.28 C167.377667,56.4946667 167.044,56.7513333 166.736,57.05 L166.736,57.05 L166.68,57.05 L166.568,56.126 L165.238,56.126 L165.238,63 L166.848,63 Z M174.996,63.168 C175.425333,63.168 175.808,63.112 176.144,63 C176.48,62.888 176.76,62.7363333 176.984,62.545 C177.208,62.3536667 177.378333,62.1296667 177.495,61.873 C177.611667,61.6163333 177.67,61.3386667 177.67,61.04 C177.67,60.7226667 177.611667,60.4496667 177.495,60.221 C177.378333,59.9923333 177.224333,59.7986667 177.033,59.64 C176.841667,59.4813333 176.629333,59.3483333 176.396,59.241 C176.162667,59.1336667 175.929333,59.038 175.696,58.954 C175.509333,58.8886667 175.329667,58.8233333 175.157,58.758 C174.984333,58.6926667 174.832667,58.6226667 174.702,58.548 C174.571333,58.4733333 174.466333,58.387 174.387,58.289 C174.307667,58.191 174.268,58.072 174.268,57.932 C174.268,57.7173333 174.349667,57.5376667 174.513,57.393 C174.676333,57.2483333 174.930667,57.176 175.276,57.176 C175.546667,57.176 175.805667,57.2296667 176.053,57.337 C176.300333,57.4443333 176.545333,57.5866667 176.788,57.764 L176.788,57.764 L177.53,56.784 C177.25,56.5693333 176.918667,56.378 176.536,56.21 C176.153333,56.042 175.724,55.958 175.248,55.958 C174.473333,55.958 173.862,56.1493333 173.414,56.532 C172.966,56.9146667 172.742,57.4093333 172.742,58.016 C172.742,58.3053333 172.800333,58.555 172.917,58.765 C173.033667,58.975 173.183,59.1593333 173.365,59.318 C173.547,59.4766667 173.754667,59.612 173.988,59.724 C174.221333,59.836 174.45,59.934 174.674,60.018 C174.851333,60.0926667 175.028667,60.165 175.206,60.235 C175.383333,60.305 175.542,60.382 175.682,60.466 C175.822,60.55 175.934,60.6456667 176.018,60.753 C176.102,60.8603333 176.144,60.984 176.144,61.124 C176.144,61.3666667 176.055333,61.565 175.878,61.719 C175.700667,61.873 175.425333,61.95 175.052,61.95 C174.697333,61.95 174.368333,61.8823333 174.065,61.747 C173.761667,61.6116667 173.456,61.4226667 173.148,61.18 L173.148,61.18 L172.392,62.216 C172.728,62.4866667 173.127,62.713 173.589,62.895 C174.051,63.077 174.52,63.168 174.996,63.168 Z M112.948,82.54 L112.948,81.126 C113.62,81.0326667 114.149667,80.7713333 114.537,80.342 C114.924333,79.9126667 115.118,79.362 115.118,78.69 C115.118,78.186 115.022333,77.773 114.831,77.451 C114.639667,77.129 114.399333,76.8583333 114.11,76.639 C113.820667,76.4196667 113.505667,76.233 113.165,76.079 C112.824333,75.925 112.509333,75.7663333 112.22,75.603 C111.930667,75.4396667 111.690333,75.2506667 111.499,75.036 C111.307667,74.8213333 111.212,74.546 111.212,74.21 C111.212,73.7993333 111.338,73.4726667 111.59,73.23 C111.842,72.9873333 112.182667,72.866 112.612,72.866 C112.994667,72.866 113.309667,72.936 113.557,73.076 C113.804333,73.216 114.058667,73.412 114.32,73.664 L114.32,73.664 L114.936,72.978 C114.684,72.7073333 114.401667,72.474 114.089,72.278 C113.776333,72.082 113.396,71.9606667 112.948,71.914 L112.948,71.914 L112.948,70.528 L112.108,70.528 L112.108,71.942 C111.492,72.0353333 110.999667,72.2896667 110.631,72.705 C110.262333,73.1203333 110.078,73.6406667 110.078,74.266 C110.078,74.7233333 110.173667,75.099 110.365,75.393 C110.556333,75.687 110.796667,75.9366667 111.086,76.142 C111.375333,76.3473333 111.690333,76.5293333 112.031,76.688 C112.371667,76.8466667 112.686667,77.017 112.976,77.199 C113.265333,77.381 113.505667,77.5956667 113.697,77.843 C113.888333,78.0903333 113.984,78.4006667 113.984,78.774 C113.984,79.2126667 113.855667,79.5626667 113.599,79.824 C113.342333,80.0853333 112.952667,80.216 112.43,80.216 C112.000667,80.216 111.606333,80.125 111.247,79.943 C110.887667,79.761 110.558667,79.5393333 110.26,79.278 L110.26,79.278 L109.728,80.076 C110.026667,80.3466667 110.386,80.5823333 110.806,80.783 C111.226,80.9836667 111.66,81.1073333 112.108,81.154 L112.108,81.154 L112.108,82.54 L112.948,82.54 Z M119.458,81.168 C119.887333,81.168 120.279333,81.1073333 120.634,80.986 C120.988667,80.8646667 121.292,80.6966667 121.544,80.482 C121.796,80.2673333 121.992,80.0153333 122.132,79.726 C122.272,79.4366667 122.342,79.124 122.342,78.788 C122.342,78.4893333 122.297667,78.2233333 122.209,77.99 C122.120333,77.7566667 122.003667,77.549 121.859,77.367 C121.714333,77.185 121.548667,77.0216667 121.362,76.877 C121.175333,76.7323333 120.984,76.604 120.788,76.492 L120.788,76.492 L120.788,76.436 C120.928,76.3333333 121.070333,76.2073333 121.215,76.058 C121.359667,75.9086667 121.490333,75.7406667 121.607,75.554 C121.723667,75.3673333 121.821667,75.1666667 121.901,74.952 C121.980333,74.7373333 122.02,74.5133333 122.02,74.28 C122.02,73.9346667 121.961667,73.615 121.845,73.321 C121.728333,73.027 121.560333,72.775 121.341,72.565 C121.121667,72.355 120.858,72.1916667 120.55,72.075 C120.242,71.9583333 119.892,71.9 119.5,71.9 C119.136,71.9 118.8,71.956 118.492,72.068 C118.184,72.18 117.918,72.3363333 117.694,72.537 C117.47,72.7376667 117.292667,72.978 117.162,73.258 C117.031333,73.538 116.966,73.8506667 116.966,74.196 C116.966,74.672 117.092,75.0756667 117.344,75.407 C117.596,75.7383333 117.885333,76.0206667 118.212,76.254 L118.212,76.254 L118.212,76.31 C117.997333,76.422 117.789667,76.555 117.589,76.709 C117.388333,76.863 117.211,77.0403333 117.057,77.241 C116.903,77.4416667 116.777,77.6656667 116.679,77.913 C116.581,78.1603333 116.532,78.4286667 116.532,78.718 C116.532,79.0726667 116.606667,79.3993333 116.756,79.698 C116.905333,79.9966667 117.108333,80.2556667 117.365,80.475 C117.621667,80.6943333 117.929667,80.8646667 118.289,80.986 C118.648333,81.1073333 119.038,81.168 119.458,81.168 Z M120.088,76.128 C119.817333,76.0253333 119.558333,75.9156667 119.311,75.799 C119.063667,75.6823333 118.844333,75.5493333 118.653,75.4 C118.461667,75.2506667 118.31,75.0803333 118.198,74.889 C118.086,74.6976667 118.03,74.4666667 118.03,74.196 C118.03,73.7573333 118.165333,73.4073333 118.436,73.146 C118.706667,72.8846667 119.052,72.754 119.472,72.754 C119.966667,72.754 120.349333,72.9056667 120.62,73.209 C120.890667,73.5123333 121.026,73.888 121.026,74.336 C121.026,74.6626667 120.944333,74.9753333 120.781,75.274 C120.617667,75.5726667 120.386667,75.8573333 120.088,76.128 Z M119.486,80.314 C119.215333,80.314 118.963333,80.272 118.73,80.188 C118.496667,80.104 118.293667,79.985 118.121,79.831 C117.948333,79.677 117.813,79.4973333 117.715,79.292 C117.617,79.0866667 117.568,78.858 117.568,78.606 C117.568,78.1953333 117.687,77.829 117.925,77.507 C118.163,77.185 118.459333,76.9026667 118.814,76.66 C119.131333,76.7906667 119.437,76.919 119.731,77.045 C120.025,77.171 120.284,77.311 120.508,77.465 C120.732,77.619 120.909333,77.7986667 121.04,78.004 C121.170667,78.2093333 121.236,78.4566667 121.236,78.746 C121.236,79.2126667 121.075,79.5906667 120.753,79.88 C120.431,80.1693333 120.008667,80.314 119.486,80.314 Z M125.786,81.168 C126.234,81.168 126.661,81.077 127.067,80.895 C127.473,80.713 127.834667,80.4236667 128.152,80.027 C128.469333,79.6303333 128.721333,79.117 128.908,78.487 C129.094667,77.857 129.188,77.094 129.188,76.198 C129.188,75.4793333 129.111,74.8516667 128.957,74.315 C128.803,73.7783333 128.588333,73.3303333 128.313,72.971 C128.037667,72.6116667 127.711,72.3433333 127.333,72.166 C126.955,71.9886667 126.546667,71.9 126.108,71.9 C125.753333,71.9 125.415,71.97 125.093,72.11 C124.771,72.25 124.491,72.446 124.253,72.698 C124.015,72.95 123.826,73.251 123.686,73.601 C123.546,73.951 123.476,74.3406667 123.476,74.77 C123.476,75.694 123.704667,76.3846667 124.162,76.842 C124.619333,77.2993333 125.235333,77.528 126.01,77.528 C126.383333,77.528 126.756667,77.4253333 127.13,77.22 C127.503333,77.0146667 127.83,76.7346667 128.11,76.38 C128.100667,77.0986667 128.030667,77.7006667 127.9,78.186 C127.769333,78.6713333 127.596667,79.0656667 127.382,79.369 C127.167333,79.6723333 126.92,79.8893333 126.64,80.02 C126.36,80.1506667 126.061333,80.216 125.744,80.216 C125.464,80.216 125.195667,80.1506667 124.939,80.02 C124.682333,79.8893333 124.460667,79.7166667 124.274,79.502 L124.274,79.502 L123.63,80.23 C123.872667,80.5006667 124.173667,80.7246667 124.533,80.902 C124.892333,81.0793333 125.31,81.168 125.786,81.168 Z M126.206,76.66 C125.646,76.66 125.230667,76.492 124.96,76.156 C124.689333,75.82 124.554,75.358 124.554,74.77 C124.554,74.4806667 124.593667,74.2146667 124.673,73.972 C124.752333,73.7293333 124.862,73.5216667 125.002,73.349 C125.142,73.1763333 125.307667,73.0433333 125.499,72.95 C125.690333,72.8566667 125.893333,72.81 126.108,72.81 C126.677333,72.81 127.13,73.034 127.466,73.482 C127.802,73.93 128.007333,74.5926667 128.082,75.47 C127.792667,75.89 127.482333,76.1933333 127.151,76.38 C126.819667,76.5666667 126.504667,76.66 126.206,76.66 Z M133.15,81.168 C133.542,81.168 133.917667,81.1003333 134.277,80.965 C134.636333,80.8296667 134.956,80.6336667 135.236,80.377 C135.516,80.1203333 135.74,79.8053333 135.908,79.432 C136.076,79.0586667 136.16,78.6293333 136.16,78.144 C136.16,77.6586667 136.087667,77.241 135.943,76.891 C135.798333,76.541 135.6,76.2516667 135.348,76.023 C135.096,75.7943333 134.802,75.624 134.466,75.512 C134.13,75.4 133.770667,75.344 133.388,75.344 C133.117333,75.344 132.874667,75.3766667 132.66,75.442 C132.445333,75.5073333 132.230667,75.596 132.016,75.708 L132.016,75.708 L132.254,73.062 L135.712,73.062 L135.712,72.068 L131.246,72.068 L130.952,76.366 L131.568,76.758 C131.838667,76.5806667 132.083667,76.4453333 132.303,76.352 C132.522333,76.2586667 132.786,76.212 133.094,76.212 C133.672667,76.212 134.134667,76.3846667 134.48,76.73 C134.825333,77.0753333 134.998,77.556 134.998,78.172 C134.998,78.48 134.946667,78.76 134.844,79.012 C134.741333,79.264 134.601333,79.4786667 134.424,79.656 C134.246667,79.8333333 134.039,79.971 133.801,80.069 C133.563,80.167 133.308667,80.216 133.038,80.216 C132.515333,80.216 132.074333,80.1133333 131.715,79.908 C131.355667,79.7026667 131.045333,79.4646667 130.784,79.194 L130.784,79.194 L130.224,79.95 C130.373333,80.1086667 130.543667,80.2603333 130.735,80.405 C130.926333,80.5496667 131.141,80.678 131.379,80.79 C131.617,80.902 131.883,80.993 132.177,81.063 C132.471,81.133 132.795333,81.168 133.15,81.168 Z M141.018,81 C141.531333,81 142.002667,80.944 142.432,80.832 C142.861333,80.72 143.23,80.552 143.538,80.328 C143.846,80.104 144.084,79.824 144.252,79.488 C144.42,79.152 144.504,78.76 144.504,78.312 C144.504,77.6773333 144.331333,77.178 143.986,76.814 C143.640667,76.45 143.188,76.2166667 142.628,76.114 L142.628,76.114 L142.628,76.058 C143.066667,75.918 143.400333,75.6636667 143.629,75.295 C143.857667,74.9263333 143.972,74.5133333 143.972,74.056 C143.972,73.6546667 143.895,73.3116667 143.741,73.027 C143.587,72.7423333 143.372333,72.5113333 143.097,72.334 C142.821667,72.1566667 142.490333,72.026 142.103,71.942 C141.715667,71.858 141.288667,71.816 140.822,71.816 L140.822,71.816 L138.092,71.816 L138.092,81 L141.018,81 Z M140.612,75.722 L139.254,75.722 L139.254,72.74 L140.668,72.74 C141.386667,72.74 141.925667,72.852 142.285,73.076 C142.644333,73.3 142.824,73.678 142.824,74.21 C142.824,74.6766667 142.651333,75.0453333 142.306,75.316 C141.960667,75.5866667 141.396,75.722 140.612,75.722 L140.612,75.722 Z M140.85,80.076 L139.254,80.076 L139.254,76.618 L140.85,76.618 C141.662,76.618 142.282667,76.751 142.712,77.017 C143.141333,77.283 143.356,77.7006667 143.356,78.27 C143.356,78.886 143.136667,79.341 142.698,79.635 C142.259333,79.929 141.643333,80.076 140.85,80.076 L140.85,80.076 Z" id="Obligations$895B" fill="#666666" fill-rule="nonzero"></path>
                <path d="M245.592,63.168 C246.124,63.168 246.602333,63.091 247.027,62.937 C247.451667,62.783 247.815667,62.538 248.119,62.202 C248.422333,61.866 248.653333,61.4343333 248.812,60.907 C248.970667,60.3796667 249.05,59.738 249.05,58.982 L249.05,58.982 L249.05,53.844 L247.496,53.844 L247.496,59.108 C247.496,59.6026667 247.449333,60.0203333 247.356,60.361 C247.262667,60.7016667 247.132,60.9746667 246.964,61.18 C246.796,61.3853333 246.595333,61.5323333 246.362,61.621 C246.128667,61.7096667 245.872,61.754 245.592,61.754 C245.312,61.754 245.06,61.7096667 244.836,61.621 C244.612,61.5323333 244.418333,61.3853333 244.255,61.18 C244.091667,60.9746667 243.965667,60.7016667 243.877,60.361 C243.788333,60.0203333 243.744,59.6026667 243.744,59.108 L243.744,59.108 L243.744,53.844 L242.12,53.844 L242.12,58.982 C242.12,59.738 242.201667,60.3796667 242.365,60.907 C242.528333,61.4343333 242.761667,61.866 243.065,62.202 C243.368333,62.538 243.732333,62.783 244.157,62.937 C244.581667,63.091 245.06,63.168 245.592,63.168 Z M252.802,63 L252.802,58.198 C253.091333,57.918 253.350333,57.7056667 253.579,57.561 C253.807667,57.4163333 254.071333,57.344 254.37,57.344 C254.752667,57.344 255.028,57.4606667 255.196,57.694 C255.364,57.9273333 255.448,58.3286667 255.448,58.898 L255.448,58.898 L255.448,63 L257.058,63 L257.058,58.688 C257.058,57.8106667 256.89,57.1363333 256.554,56.665 C256.218,56.1936667 255.681333,55.958 254.944,55.958 C254.468,55.958 254.050333,56.0653333 253.691,56.28 C253.331667,56.4946667 252.998,56.7513333 252.69,57.05 L252.69,57.05 L252.634,57.05 L252.522,56.126 L251.192,56.126 L251.192,63 L252.802,63 Z M261.846,63.168 C262.275333,63.168 262.688333,63.0886667 263.085,62.93 C263.481667,62.7713333 263.829333,62.538 264.128,62.23 C264.426667,61.922 264.667,61.544 264.849,61.096 C265.031,60.648 265.122,60.1393333 265.122,59.57 C265.122,59.0006667 265.031,58.492 264.849,58.044 C264.667,57.596 264.426667,57.218 264.128,56.91 C263.829333,56.602 263.481667,56.3663333 263.085,56.203 C262.688333,56.0396667 262.275333,55.958 261.846,55.958 C261.416667,55.958 261.006,56.0396667 260.614,56.203 C260.222,56.3663333 259.874333,56.602 259.571,56.91 C259.267667,57.218 259.027333,57.596 258.85,58.044 C258.672667,58.492 258.584,59.0006667 258.584,59.57 C258.584,60.1393333 258.672667,60.648 258.85,61.096 C259.027333,61.544 259.267667,61.922 259.571,62.23 C259.874333,62.538 260.222,62.7713333 260.614,62.93 C261.006,63.0886667 261.416667,63.168 261.846,63.168 Z M261.846,61.852 C261.342,61.852 260.947667,61.6443333 260.663,61.229 C260.378333,60.8136667 260.236,60.2606667 260.236,59.57 C260.236,58.87 260.378333,58.3123333 260.663,57.897 C260.947667,57.4816667 261.342,57.274 261.846,57.274 C262.35,57.274 262.746667,57.4816667 263.036,57.897 C263.325333,58.3123333 263.47,58.87 263.47,59.57 C263.47,60.2606667 263.325333,60.8136667 263.036,61.229 C262.746667,61.6443333 262.35,61.852 261.846,61.852 Z M270.05,63.168 C270.432667,63.168 270.801333,63.084 271.156,62.916 C271.510667,62.748 271.823333,62.5053333 272.094,62.188 C272.364667,61.8706667 272.581667,61.481 272.745,61.019 C272.908333,60.557 272.99,60.032 272.99,59.444 C272.99,58.912 272.929333,58.4313333 272.808,58.002 C272.686667,57.5726667 272.509333,57.2063333 272.276,56.903 C272.042667,56.5996667 271.758,56.3663333 271.422,56.203 C271.086,56.0396667 270.703333,55.958 270.274,55.958 C269.919333,55.958 269.571667,56.0373333 269.231,56.196 C268.890333,56.3546667 268.575333,56.56 268.286,56.812 L268.286,56.812 L268.328,55.664 L268.328,53.116 L266.718,53.116 L266.718,63 L267.992,63 L268.132,62.272 L268.174,62.272 C268.463333,62.5613333 268.769,62.783 269.091,62.937 C269.413,63.091 269.732667,63.168 270.05,63.168 Z M269.714,61.838 C269.508667,61.838 269.287,61.796 269.049,61.712 C268.811,61.628 268.570667,61.4786667 268.328,61.264 L268.328,61.264 L268.328,58.058 C268.850667,57.5446667 269.354667,57.288 269.84,57.288 C270.362667,57.288 270.740667,57.4793333 270.974,57.862 C271.207333,58.2446667 271.324,58.7813333 271.324,59.472 C271.324,60.256 271.17,60.8463333 270.862,61.243 C270.554,61.6396667 270.171333,61.838 269.714,61.838 Z M276.168,63.168 C276.522667,63.168 276.807333,63.1213333 277.022,63.028 L277.022,63.028 L276.812,61.824 C276.746667,61.8426667 276.697667,61.852 276.665,61.852 L276.665,61.852 L276.56,61.852 C276.476,61.852 276.396667,61.8123333 276.322,61.733 C276.247333,61.6536667 276.21,61.516 276.21,61.32 L276.21,61.32 L276.21,53.116 L274.6,53.116 L274.6,61.236 C274.6,61.8333333 274.716667,62.3046667 274.95,62.65 C275.183333,62.9953333 275.589333,63.168 276.168,63.168 Z M279.206,54.922 C279.495333,54.922 279.733333,54.838 279.92,54.67 C280.106667,54.502 280.2,54.2826667 280.2,54.012 C280.2,53.7413333 280.106667,53.5196667 279.92,53.347 C279.733333,53.1743333 279.495333,53.088 279.206,53.088 C278.916667,53.088 278.678667,53.1743333 278.492,53.347 C278.305333,53.5196667 278.212,53.7413333 278.212,54.012 C278.212,54.2826667 278.305333,54.502 278.492,54.67 C278.678667,54.838 278.916667,54.922 279.206,54.922 Z M280.004,63 L280.004,56.126 L278.394,56.126 L278.394,63 L280.004,63 Z M284.456,66.038 C285.016,66.038 285.522333,65.975 285.975,65.849 C286.427667,65.723 286.812667,65.5526667 287.13,65.338 C287.447333,65.1233333 287.692333,64.8666667 287.865,64.568 C288.037667,64.2693333 288.124,63.952 288.124,63.616 C288.124,63.0186667 287.911667,62.587 287.487,62.321 C287.062333,62.055 286.434667,61.922 285.604,61.922 L285.604,61.922 L284.386,61.922 C283.966,61.922 283.674333,61.866 283.511,61.754 C283.347667,61.642 283.266,61.488 283.266,61.292 C283.266,61.1333333 283.296333,61.0073333 283.357,60.914 C283.417667,60.8206667 283.499333,60.7273333 283.602,60.634 C283.760667,60.6993333 283.919333,60.746 284.078,60.774 C284.236667,60.802 284.390667,60.816 284.54,60.816 C284.904,60.816 285.244667,60.7646667 285.562,60.662 C285.879333,60.5593333 286.154667,60.41 286.388,60.214 C286.621333,60.018 286.805667,59.7753333 286.941,59.486 C287.076333,59.1966667 287.144,58.8606667 287.144,58.478 C287.144,58.2353333 287.106667,58.0136667 287.032,57.813 C286.957333,57.6123333 286.864,57.4466667 286.752,57.316 L286.752,57.316 L288.012,57.316 L288.012,56.126 L285.548,56.126 C285.408,56.0793333 285.251667,56.0396667 285.079,56.007 C284.906333,55.9743333 284.726667,55.958 284.54,55.958 C284.176,55.958 283.830667,56.0116667 283.504,56.119 C283.177333,56.2263333 282.890333,56.385 282.643,56.595 C282.395667,56.805 282.197333,57.064 282.048,57.372 C281.898667,57.68 281.824,58.03 281.824,58.422 C281.824,58.8326667 281.915,59.1943333 282.097,59.507 C282.279,59.8196667 282.486667,60.0646667 282.72,60.242 L282.72,60.242 L282.72,60.298 C282.524,60.438 282.349,60.6176667 282.195,60.837 C282.041,61.0563333 281.964,61.3013333 281.964,61.572 C281.964,61.852 282.022333,62.0853333 282.139,62.272 C282.255667,62.4586667 282.402667,62.608 282.58,62.72 L282.58,62.72 L282.58,62.776 C282.262667,62.972 282.02,63.1936667 281.852,63.441 C281.684,63.6883333 281.6,63.9566667 281.6,64.246 C281.6,64.5446667 281.672333,64.806 281.817,65.03 C281.961667,65.254 282.16,65.4406667 282.412,65.59 C282.664,65.7393333 282.965,65.8513333 283.315,65.926 C283.665,66.0006667 284.045333,66.038 284.456,66.038 Z M284.54,59.808 C284.204,59.808 283.919333,59.689 283.686,59.451 C283.452667,59.213 283.336,58.87 283.336,58.422 C283.336,57.9833333 283.452667,57.6473333 283.686,57.414 C283.919333,57.1806667 284.204,57.064 284.54,57.064 C284.876,57.064 285.158333,57.183 285.387,57.421 C285.615667,57.659 285.73,57.9926667 285.73,58.422 C285.73,58.87 285.613333,59.213 285.38,59.451 C285.146667,59.689 284.866667,59.808 284.54,59.808 Z M284.708,64.988 C284.157333,64.988 283.725667,64.9016667 283.413,64.729 C283.100333,64.5563333 282.944,64.316 282.944,64.008 C282.944,63.672 283.121333,63.3686667 283.476,63.098 C283.728,63.1633333 284.040667,63.196 284.414,63.196 L284.414,63.196 L285.352,63.196 C285.744,63.196 286.045,63.2426667 286.255,63.336 C286.465,63.4293333 286.57,63.6113333 286.57,63.882 C286.57,64.1806667 286.399667,64.4396667 286.059,64.659 C285.718333,64.8783333 285.268,64.988 284.708,64.988 Z M290.756,63.168 C291.166667,63.168 291.547,63.0793333 291.897,62.902 C292.247,62.7246667 292.576,62.5053333 292.884,62.244 L292.884,62.244 L292.94,62.244 L293.052,63 L294.382,63 L294.382,58.926 C294.382,57.9646667 294.169667,57.2296667 293.745,56.721 C293.320333,56.2123333 292.678667,55.958 291.82,55.958 C291.269333,55.958 290.756,56.0466667 290.28,56.224 C289.804,56.4013333 289.374667,56.6113333 288.992,56.854 L288.992,56.854 L289.58,57.932 C289.888,57.7453333 290.203,57.5866667 290.525,57.456 C290.847,57.3253333 291.176,57.26 291.512,57.26 C291.745333,57.26 291.941333,57.295 292.1,57.365 C292.258667,57.435 292.387,57.533 292.485,57.659 C292.583,57.785 292.653,57.9296667 292.695,58.093 C292.737,58.2563333 292.762667,58.4266667 292.772,58.604 C292.062667,58.6786667 291.453667,58.786 290.945,58.926 C290.436333,59.066 290.016333,59.2386667 289.685,59.444 C289.353667,59.6493333 289.111,59.8943333 288.957,60.179 C288.803,60.4636667 288.726,60.788 288.726,61.152 C288.726,61.7586667 288.912667,62.2463333 289.286,62.615 C289.659333,62.9836667 290.149333,63.168 290.756,63.168 Z M291.274,61.908 C290.984667,61.908 290.746667,61.838 290.56,61.698 C290.373333,61.558 290.28,61.334 290.28,61.026 C290.28,60.858 290.322,60.6993333 290.406,60.55 C290.49,60.4006667 290.63,60.2676667 290.826,60.151 C291.022,60.0343333 291.278667,59.9293333 291.596,59.836 C291.913333,59.7426667 292.305333,59.668 292.772,59.612 L292.772,59.612 L292.772,61.152 C292.510667,61.3946667 292.265667,61.5813333 292.037,61.712 C291.808333,61.8426667 291.554,61.908 291.274,61.908 Z M298.512,63.168 C298.782667,63.168 299.037,63.1423333 299.275,63.091 C299.513,63.0396667 299.725333,62.9813333 299.912,62.916 L299.912,62.916 L299.632,61.726 C299.529333,61.7726667 299.415,61.81 299.289,61.838 C299.163,61.866 299.039333,61.88 298.918,61.88 C298.274,61.88 297.952,61.4786667 297.952,60.676 L297.952,60.676 L297.952,57.4 L299.702,57.4 L299.702,56.126 L297.952,56.126 L297.952,54.25 L296.608,54.25 L296.412,56.126 L295.348,56.196 L295.348,57.4 L296.328,57.4 L296.328,60.676 C296.328,61.0493333 296.367667,61.3876667 296.447,61.691 C296.526333,61.9943333 296.652333,62.2556667 296.825,62.475 C296.997667,62.6943333 297.221667,62.8646667 297.497,62.986 C297.772333,63.1073333 298.110667,63.168 298.512,63.168 Z M303.86,63.168 C304.298667,63.168 304.718667,63.098 305.12,62.958 C305.521333,62.818 305.885333,62.6406667 306.212,62.426 L306.212,62.426 L305.666,61.418 C305.414,61.5766667 305.159667,61.7003333 304.903,61.789 C304.646333,61.8776667 304.368667,61.922 304.07,61.922 C303.51,61.922 303.050333,61.7563333 302.691,61.425 C302.331667,61.0936667 302.114667,60.62 302.04,60.004 L302.04,60.004 L306.408,60.004 C306.426667,59.92 306.443,59.808 306.457,59.668 C306.471,59.528 306.478,59.3786667 306.478,59.22 C306.478,58.744 306.417333,58.3053333 306.296,57.904 C306.174667,57.5026667 305.995,57.1573333 305.757,56.868 C305.519,56.5786667 305.222667,56.3546667 304.868,56.196 C304.513333,56.0373333 304.102667,55.958 303.636,55.958 C303.234667,55.958 302.842667,56.042 302.46,56.21 C302.077333,56.378 301.739,56.616 301.445,56.924 C301.151,57.232 300.915333,57.61 300.738,58.058 C300.560667,58.506 300.472,59.01 300.472,59.57 C300.472,60.1393333 300.558333,60.6456667 300.731,61.089 C300.903667,61.5323333 301.144,61.908 301.452,62.216 C301.76,62.524 302.119333,62.7596667 302.53,62.923 C302.940667,63.0863333 303.384,63.168 303.86,63.168 Z M305.078,58.912 L302.026,58.912 C302.100667,58.352 302.292,57.9273333 302.6,57.638 C302.908,57.3486667 303.267333,57.204 303.678,57.204 C304.154,57.204 304.506333,57.3556667 304.735,57.659 C304.963667,57.9623333 305.078,58.38 305.078,58.912 L305.078,58.912 Z M310.426,63.168 C310.799333,63.168 311.154,63.0793333 311.49,62.902 C311.826,62.7246667 312.12,62.51 312.372,62.258 L312.372,62.258 L312.428,62.258 L312.54,63 L313.87,63 L313.87,53.116 L312.26,53.116 L312.26,55.608 L312.316,56.714 C312.045333,56.4806667 311.774667,56.2963333 311.504,56.161 C311.233333,56.0256667 310.902,55.958 310.51,55.958 C310.136667,55.958 309.775,56.042 309.425,56.21 C309.075,56.378 308.764667,56.616 308.494,56.924 C308.223333,57.232 308.006333,57.61 307.843,58.058 C307.679667,58.506 307.598,59.01 307.598,59.57 C307.598,60.7086667 307.852333,61.593 308.361,62.223 C308.869667,62.853 309.558,63.168 310.426,63.168 Z M310.818,61.838 C310.314,61.838 309.929,61.6443333 309.663,61.257 C309.397,60.8696667 309.264,60.3026667 309.264,59.556 C309.264,58.828 309.418,58.268 309.726,57.876 C310.034,57.484 310.412,57.288 310.86,57.288 C311.093333,57.288 311.324333,57.33 311.553,57.414 C311.781667,57.498 312.017333,57.6473333 312.26,57.862 L312.26,57.862 L312.26,61.068 C311.812,61.5813333 311.331333,61.838 310.818,61.838 Z M244.948,82.54 L244.948,81.126 C245.62,81.0326667 246.149667,80.7713333 246.537,80.342 C246.924333,79.9126667 247.118,79.362 247.118,78.69 C247.118,78.186 247.022333,77.773 246.831,77.451 C246.639667,77.129 246.399333,76.8583333 246.11,76.639 C245.820667,76.4196667 245.505667,76.233 245.165,76.079 C244.824333,75.925 244.509333,75.7663333 244.22,75.603 C243.930667,75.4396667 243.690333,75.2506667 243.499,75.036 C243.307667,74.8213333 243.212,74.546 243.212,74.21 C243.212,73.7993333 243.338,73.4726667 243.59,73.23 C243.842,72.9873333 244.182667,72.866 244.612,72.866 C244.994667,72.866 245.309667,72.936 245.557,73.076 C245.804333,73.216 246.058667,73.412 246.32,73.664 L246.32,73.664 L246.936,72.978 C246.684,72.7073333 246.401667,72.474 246.089,72.278 C245.776333,72.082 245.396,71.9606667 244.948,71.914 L244.948,71.914 L244.948,70.528 L244.108,70.528 L244.108,71.942 C243.492,72.0353333 242.999667,72.2896667 242.631,72.705 C242.262333,73.1203333 242.078,73.6406667 242.078,74.266 C242.078,74.7233333 242.173667,75.099 242.365,75.393 C242.556333,75.687 242.796667,75.9366667 243.086,76.142 C243.375333,76.3473333 243.690333,76.5293333 244.031,76.688 C244.371667,76.8466667 244.686667,77.017 244.976,77.199 C245.265333,77.381 245.505667,77.5956667 245.697,77.843 C245.888333,78.0903333 245.984,78.4006667 245.984,78.774 C245.984,79.2126667 245.855667,79.5626667 245.599,79.824 C245.342333,80.0853333 244.952667,80.216 244.43,80.216 C244.000667,80.216 243.606333,80.125 243.247,79.943 C242.887667,79.761 242.558667,79.5393333 242.26,79.278 L242.26,79.278 L241.728,80.076 C242.026667,80.3466667 242.386,80.5823333 242.806,80.783 C243.226,80.9836667 243.66,81.1073333 244.108,81.154 L244.108,81.154 L244.108,82.54 L244.948,82.54 Z M254.286,81 L254.286,80.006 L251.696,80.006 C251.462667,80.006 251.215333,80.0153333 250.954,80.034 C250.692667,80.0526667 250.440667,80.0713333 250.198,80.09 C250.73,79.5393333 251.217667,79.019 251.661,78.529 C252.104333,78.039 252.487,77.5676667 252.809,77.115 C253.131,76.6623333 253.383,76.2236667 253.565,75.799 C253.747,75.3743333 253.838,74.952 253.838,74.532 C253.838,73.7386667 253.6,73.1016667 253.124,72.621 C252.648,72.1403333 251.994667,71.9 251.164,71.9 C250.576,71.9 250.072,72.0236667 249.652,72.271 C249.232,72.5183333 248.835333,72.8473333 248.462,73.258 L248.462,73.258 L249.12,73.916 C249.381333,73.6173333 249.670667,73.363 249.988,73.153 C250.305333,72.943 250.650667,72.838 251.024,72.838 C251.593333,72.838 252.018,73.0013333 252.298,73.328 C252.578,73.6546667 252.718,74.0746667 252.718,74.588 C252.718,74.952 252.624667,75.3276667 252.438,75.715 C252.251333,76.1023333 251.980667,76.527 251.626,76.989 C251.271333,77.451 250.832667,77.9526667 250.31,78.494 C249.787333,79.0353333 249.19,79.642 248.518,80.314 L248.518,80.314 L248.518,81 L254.286,81 Z M258.416,81.168 C258.845333,81.168 259.237333,81.1073333 259.592,80.986 C259.946667,80.8646667 260.25,80.6966667 260.502,80.482 C260.754,80.2673333 260.95,80.0153333 261.09,79.726 C261.23,79.4366667 261.3,79.124 261.3,78.788 C261.3,78.4893333 261.255667,78.2233333 261.167,77.99 C261.078333,77.7566667 260.961667,77.549 260.817,77.367 C260.672333,77.185 260.506667,77.0216667 260.32,76.877 C260.133333,76.7323333 259.942,76.604 259.746,76.492 L259.746,76.492 L259.746,76.436 C259.886,76.3333333 260.028333,76.2073333 260.173,76.058 C260.317667,75.9086667 260.448333,75.7406667 260.565,75.554 C260.681667,75.3673333 260.779667,75.1666667 260.859,74.952 C260.938333,74.7373333 260.978,74.5133333 260.978,74.28 C260.978,73.9346667 260.919667,73.615 260.803,73.321 C260.686333,73.027 260.518333,72.775 260.299,72.565 C260.079667,72.355 259.816,72.1916667 259.508,72.075 C259.2,71.9583333 258.85,71.9 258.458,71.9 C258.094,71.9 257.758,71.956 257.45,72.068 C257.142,72.18 256.876,72.3363333 256.652,72.537 C256.428,72.7376667 256.250667,72.978 256.12,73.258 C255.989333,73.538 255.924,73.8506667 255.924,74.196 C255.924,74.672 256.05,75.0756667 256.302,75.407 C256.554,75.7383333 256.843333,76.0206667 257.17,76.254 L257.17,76.254 L257.17,76.31 C256.955333,76.422 256.747667,76.555 256.547,76.709 C256.346333,76.863 256.169,77.0403333 256.015,77.241 C255.861,77.4416667 255.735,77.6656667 255.637,77.913 C255.539,78.1603333 255.49,78.4286667 255.49,78.718 C255.49,79.0726667 255.564667,79.3993333 255.714,79.698 C255.863333,79.9966667 256.066333,80.2556667 256.323,80.475 C256.579667,80.6943333 256.887667,80.8646667 257.247,80.986 C257.606333,81.1073333 257.996,81.168 258.416,81.168 Z M259.046,76.128 C258.775333,76.0253333 258.516333,75.9156667 258.269,75.799 C258.021667,75.6823333 257.802333,75.5493333 257.611,75.4 C257.419667,75.2506667 257.268,75.0803333 257.156,74.889 C257.044,74.6976667 256.988,74.4666667 256.988,74.196 C256.988,73.7573333 257.123333,73.4073333 257.394,73.146 C257.664667,72.8846667 258.01,72.754 258.43,72.754 C258.924667,72.754 259.307333,72.9056667 259.578,73.209 C259.848667,73.5123333 259.984,73.888 259.984,74.336 C259.984,74.6626667 259.902333,74.9753333 259.739,75.274 C259.575667,75.5726667 259.344667,75.8573333 259.046,76.128 Z M258.444,80.314 C258.173333,80.314 257.921333,80.272 257.688,80.188 C257.454667,80.104 257.251667,79.985 257.079,79.831 C256.906333,79.677 256.771,79.4973333 256.673,79.292 C256.575,79.0866667 256.526,78.858 256.526,78.606 C256.526,78.1953333 256.645,77.829 256.883,77.507 C257.121,77.185 257.417333,76.9026667 257.772,76.66 C258.089333,76.7906667 258.395,76.919 258.689,77.045 C258.983,77.171 259.242,77.311 259.466,77.465 C259.69,77.619 259.867333,77.7986667 259.998,78.004 C260.128667,78.2093333 260.194,78.4566667 260.194,78.746 C260.194,79.2126667 260.033,79.5906667 259.711,79.88 C259.389,80.1693333 258.966667,80.314 258.444,80.314 Z M268.02,81 L268.02,80.048 L266.172,80.048 L266.172,72.068 L265.29,72.068 C265.047333,72.2173333 264.774333,72.3456667 264.471,72.453 C264.167667,72.5603333 263.810667,72.6513333 263.4,72.726 L263.4,72.726 L263.4,73.468 L265.024,73.468 L265.024,80.048 L262.98,80.048 L262.98,81 L268.02,81 Z M273.018,81 C273.531333,81 274.002667,80.944 274.432,80.832 C274.861333,80.72 275.23,80.552 275.538,80.328 C275.846,80.104 276.084,79.824 276.252,79.488 C276.42,79.152 276.504,78.76 276.504,78.312 C276.504,77.6773333 276.331333,77.178 275.986,76.814 C275.640667,76.45 275.188,76.2166667 274.628,76.114 L274.628,76.114 L274.628,76.058 C275.066667,75.918 275.400333,75.6636667 275.629,75.295 C275.857667,74.9263333 275.972,74.5133333 275.972,74.056 C275.972,73.6546667 275.895,73.3116667 275.741,73.027 C275.587,72.7423333 275.372333,72.5113333 275.097,72.334 C274.821667,72.1566667 274.490333,72.026 274.103,71.942 C273.715667,71.858 273.288667,71.816 272.822,71.816 L272.822,71.816 L270.092,71.816 L270.092,81 L273.018,81 Z M272.612,75.722 L271.254,75.722 L271.254,72.74 L272.668,72.74 C273.386667,72.74 273.925667,72.852 274.285,73.076 C274.644333,73.3 274.824,73.678 274.824,74.21 C274.824,74.6766667 274.651333,75.0453333 274.306,75.316 C273.960667,75.5866667 273.396,75.722 272.612,75.722 L272.612,75.722 Z M272.85,80.076 L271.254,80.076 L271.254,76.618 L272.85,76.618 C273.662,76.618 274.282667,76.751 274.712,77.017 C275.141333,77.283 275.356,77.7006667 275.356,78.27 C275.356,78.886 275.136667,79.341 274.698,79.635 C274.259333,79.929 273.643333,80.076 272.85,80.076 L272.85,80.076 Z" id="Unobligated$281B" fill="#666666" fill-rule="nonzero"></path>
                <line x1="10.5" y1="30" x2="10.5" y2="45" id="Line" stroke="#C6C6C6"></line>
                <path d="M266,30 L266,34.6176471 C266,35.7222166 265.104569,36.6176471 264,36.6176471 L198,36.6176471 C196.895431,36.6176471 196,37.5130776 196,38.6176471 L196,45 L196,45" id="Line-Copy-7" stroke="#C6C6C6" stroke-linecap="round" transform="translate(231.000000, 37.500000) scale(-1, 1) translate(-231.000000, -37.500000) "></path>
                <path d="M167,30 L167,34.6176471 C167,35.7222166 166.104569,36.6176471 165,36.6176471 L138,36.6176471 C136.895431,36.6176471 136,37.5130776 136,38.6176471 L136,45 L136,45" id="Line-Copy-7" stroke="#C6C6C6" stroke-linecap="round"></path>
                <rect id="unobligated" fill="#F3E9FF" x="177" y="0" width="55" height="30"></rect>
                <rect id="obligated" fill="#6F41A7" x="156" y="0" width="21" height="30"></rect>
                <rect id="outlays" fill="#331E4D" x="0" y="0" width="156" height="30"></rect>
                <path d="M246.368,21.54 L246.368,20.084 C247.096,19.9253333 247.642,19.6056667 248.006,19.125 C248.37,18.6443333 248.552,18.068 248.552,17.396 C248.552,16.948 248.461,16.5723333 248.279,16.269 C248.097,15.9656667 247.868333,15.7066667 247.593,15.492 C247.317667,15.2773333 247.021333,15.0953333 246.704,14.946 C246.386667,14.7966667 246.090333,14.652 245.815,14.512 C245.539667,14.372 245.311,14.225 245.129,14.071 C244.947,13.917 244.856,13.728 244.856,13.504 C244.856,13.1866667 244.944667,12.958 245.122,12.818 C245.299333,12.678 245.556,12.608 245.892,12.608 C246.190667,12.608 246.456667,12.6663333 246.69,12.783 C246.923333,12.8996667 247.166,13.0746667 247.418,13.308 L247.418,13.308 L248.454,12.132 C248.183333,11.8426667 247.88,11.5953333 247.544,11.39 C247.208,11.1846667 246.816,11.0493333 246.368,10.984 L246.368,10.984 L246.368,9.57 L245.01,9.57 L245.01,11.012 C244.347333,11.1426667 243.827,11.4343333 243.449,11.887 C243.071,12.3396667 242.882,12.9113333 242.882,13.602 C242.882,14.022 242.973,14.3766667 243.155,14.666 C243.337,14.9553333 243.565667,15.2073333 243.841,15.422 C244.116333,15.6366667 244.412667,15.821 244.73,15.975 C245.047333,16.129 245.343667,16.283 245.619,16.437 C245.894333,16.591 246.123,16.752 246.305,16.92 C246.487,17.088 246.578,17.2933333 246.578,17.536 C246.578,17.8626667 246.487,18.1053333 246.305,18.264 C246.123,18.4226667 245.836,18.502 245.444,18.502 C245.108,18.502 244.779,18.4343333 244.457,18.299 C244.135,18.1636667 243.796667,17.9606667 243.442,17.69 L243.442,17.69 L242.546,19.076 C242.872667,19.3746667 243.262333,19.615 243.715,19.797 C244.167667,19.979 244.599333,20.0933333 245.01,20.14 L245.01,20.14 L245.01,21.54 L246.368,21.54 Z M256.028,20 L256.028,18.334 L254.362,18.334 L254.362,11.11 L252.85,11.11 C252.532667,11.2966667 252.206,11.4553333 251.87,11.586 C251.534,11.7166667 251.123333,11.8286667 250.638,11.922 L250.638,11.922 L250.638,13.196 L252.304,13.196 L252.304,18.334 L250.372,18.334 L250.372,20 L256.028,20 Z M258.884,20.168 C259.238667,20.168 259.535,20.0443333 259.773,19.797 C260.011,19.5496667 260.13,19.244 260.13,18.88 C260.13,18.5066667 260.011,18.1963333 259.773,17.949 C259.535,17.7016667 259.238667,17.578 258.884,17.578 C258.529333,17.578 258.233,17.7016667 257.995,17.949 C257.757,18.1963333 257.638,18.5066667 257.638,18.88 C257.638,19.244 257.757,19.5496667 257.995,19.797 C258.233,20.0443333 258.529333,20.168 258.884,20.168 Z M267.62,20 L267.62,18.334 L265.954,18.334 L265.954,11.11 L264.442,11.11 C264.124667,11.2966667 263.798,11.4553333 263.462,11.586 C263.126,11.7166667 262.715333,11.8286667 262.23,11.922 L262.23,11.922 L262.23,13.196 L263.896,13.196 L263.896,18.334 L261.964,18.334 L261.964,20 L267.62,20 Z M272.058,20.168 C272.534,20.168 272.965667,20.105 273.353,19.979 C273.740333,19.853 274.071667,19.6803333 274.347,19.461 C274.622333,19.2416667 274.834667,18.9826667 274.984,18.684 C275.133333,18.3853333 275.208,18.0586667 275.208,17.704 C275.208,17.116 275.058667,16.64 274.76,16.276 C274.461333,15.912 274.097333,15.6133333 273.668,15.38 L273.668,15.38 L273.668,15.324 C273.976,15.1186667 274.246667,14.8503333 274.48,14.519 C274.713333,14.1876667 274.83,13.8073333 274.83,13.378 C274.83,13.014 274.764667,12.6803333 274.634,12.377 C274.503333,12.0736667 274.321333,11.817 274.088,11.607 C273.854667,11.397 273.57,11.2336667 273.234,11.117 C272.898,11.0003333 272.529333,10.942 272.128,10.942 C271.717333,10.942 271.337,10.998 270.987,11.11 C270.637,11.222 270.336,11.3853333 270.084,11.6 C269.832,11.8146667 269.636,12.0736667 269.496,12.377 C269.356,12.6803333 269.286,13.0186667 269.286,13.392 C269.286,13.868 269.398,14.2716667 269.622,14.603 C269.846,14.9343333 270.130667,15.2306667 270.476,15.492 L270.476,15.492 L270.476,15.548 C270.056,15.772 269.699,16.0566667 269.405,16.402 C269.111,16.7473333 268.964,17.1906667 268.964,17.732 C268.964,18.096 269.041,18.4273333 269.195,18.726 C269.349,19.0246667 269.563667,19.2813333 269.839,19.496 C270.114333,19.7106667 270.441,19.8763333 270.819,19.993 C271.197,20.1096667 271.61,20.168 272.058,20.168 Z M272.618,14.82 C272.160667,14.6426667 271.792,14.4513333 271.512,14.246 C271.232,14.0406667 271.092,13.756 271.092,13.392 C271.092,13.0466667 271.19,12.79 271.386,12.622 C271.582,12.454 271.815333,12.37 272.086,12.37 C272.422,12.37 272.685667,12.475 272.877,12.685 C273.068333,12.895 273.164,13.1726667 273.164,13.518 C273.164,13.966 272.982,14.4 272.618,14.82 Z M272.1,18.74 C271.726667,18.74 271.404667,18.6303333 271.134,18.411 C270.863333,18.1916667 270.728,17.886 270.728,17.494 C270.728,17.2233333 270.793333,16.9666667 270.924,16.724 C271.054667,16.4813333 271.218,16.2666667 271.414,16.08 C271.694,16.2013333 271.948333,16.3133333 272.177,16.416 C272.405667,16.5186667 272.604,16.6283333 272.772,16.745 C272.94,16.8616667 273.068333,16.99 273.157,17.13 C273.245667,17.27 273.29,17.438 273.29,17.634 C273.29,18.0073333 273.178,18.285 272.954,18.467 C272.73,18.649 272.445333,18.74 272.1,18.74 Z M280.696,20 L280.696,12.608 L283.202,12.608 L283.202,10.872 L276.118,10.872 L276.118,12.608 L278.624,12.608 L278.624,20 L280.696,20 Z" id="$1.18T" fill="#555555" fill-rule="nonzero"></path>
            </g>
        </g>
    </g>
</svg>