<?xml version="1.0" encoding="UTF-8"?>
<svg width="351px" height="85px" viewBox="0 0 351 85" version="1.1" xmlns="http://www.w3.org/2000/svg" xmlns:xlink="http://www.w3.org/1999/xlink">
    <title>06. tablet - phase 3 loan</title>
    <g id="SVG" stroke="none" stroke-width="1" fill="none" fill-rule="evenodd">
        <g id="Viz-3---Tablet-Outline" transform="translate(-70.000000, -1177.000000)">
            <g id="06.-tablet---phase-3-loan" transform="translate(70.000000, 1177.000000)">
                <path d="M4.718,63.168 C5.31533333,63.168 5.86133333,63.0583333 6.356,62.839 C6.85066667,62.6196667 7.27766667,62.3023333 7.637,61.887 C7.99633333,61.4716667 8.274,60.97 8.47,60.382 C8.666,59.794 8.764,59.1266667 8.764,58.38 C8.764,57.6426667 8.666,56.9823333 8.47,56.399 C8.274,55.8156667 7.99633333,55.3233333 7.637,54.922 C7.27766667,54.5206667 6.85066667,54.2126667 6.356,53.998 C5.86133333,53.7833333 5.31533333,53.676 4.718,53.676 C4.12066667,53.676 3.57466667,53.7833333 3.08,53.998 C2.58533333,54.2126667 2.16066667,54.5206667 1.806,54.922 C1.45133333,55.3233333 1.176,55.8156667 0.98,56.399 C0.784,56.9823333 0.686,57.6426667 0.686,58.38 C0.686,59.1266667 0.784,59.794 0.98,60.382 C1.176,60.97 1.45133333,61.4716667 1.806,61.887 C2.16066667,62.3023333 2.58533333,62.6196667 3.08,62.839 C3.57466667,63.0583333 4.12066667,63.168 4.718,63.168 Z M4.718,61.754 C4.354,61.754 4.02733333,61.6746667 3.738,61.516 C3.44866667,61.3573333 3.20133333,61.131 2.996,60.837 C2.79066667,60.543 2.632,60.1883333 2.52,59.773 C2.408,59.3576667 2.352,58.8933333 2.352,58.38 C2.352,57.3533333 2.56433333,56.5483333 2.989,55.965 C3.41366667,55.3816667 3.99,55.09 4.718,55.09 C5.446,55.09 6.02233333,55.3816667 6.447,55.965 C6.87166667,56.5483333 7.084,57.3533333 7.084,58.38 C7.084,58.8933333 7.028,59.3576667 6.916,59.773 C6.804,60.1883333 6.64533333,60.543 6.44,60.837 C6.23466667,61.131 5.98733333,61.3573333 5.698,61.516 C5.40866667,61.6746667 5.082,61.754 4.718,61.754 Z M12.502,63.168 C12.978,63.168 13.391,63.0606667 13.741,62.846 C14.091,62.6313333 14.4153333,62.3466667 14.714,61.992 L14.714,61.992 L14.756,61.992 L14.882,63 L16.198,63 L16.198,56.126 L14.588,56.126 L14.588,60.83 C14.3266667,61.166 14.0816667,61.4086667 13.853,61.558 C13.6243333,61.7073333 13.3606667,61.782 13.062,61.782 C12.6886667,61.782 12.418,61.6653333 12.25,61.432 C12.082,61.1986667 11.998,60.7973333 11.998,60.228 L11.998,60.228 L11.998,56.126 L10.388,56.126 L10.388,60.438 C10.388,61.3153333 10.556,61.9896667 10.892,62.461 C11.228,62.9323333 11.7646667,63.168 12.502,63.168 Z M20.664,63.168 C20.9346667,63.168 21.189,63.1423333 21.427,63.091 C21.665,63.0396667 21.8773333,62.9813333 22.064,62.916 L22.064,62.916 L21.784,61.726 C21.6813333,61.7726667 21.567,61.81 21.441,61.838 C21.315,61.866 21.1913333,61.88 21.07,61.88 C20.426,61.88 20.104,61.4786667 20.104,60.676 L20.104,60.676 L20.104,57.4 L21.854,57.4 L21.854,56.126 L20.104,56.126 L20.104,54.25 L18.76,54.25 L18.564,56.126 L17.5,56.196 L17.5,57.4 L18.48,57.4 L18.48,60.676 C18.48,61.0493333 18.5196667,61.3876667 18.599,61.691 C18.6783333,61.9943333 18.8043333,62.2556667 18.977,62.475 C19.1496667,62.6943333 19.3736667,62.8646667 19.649,62.986 C19.9243333,63.1073333 20.2626667,63.168 20.664,63.168 Z M24.864,63.168 C25.2186667,63.168 25.5033333,63.1213333 25.718,63.028 L25.718,63.028 L25.508,61.824 C25.4426667,61.8426667 25.3936667,61.852 25.361,61.852 L25.361,61.852 L25.256,61.852 C25.172,61.852 25.0926667,61.8123333 25.018,61.733 C24.9433333,61.6536667 24.906,61.516 24.906,61.32 L24.906,61.32 L24.906,53.116 L23.296,53.116 L23.296,61.236 C23.296,61.8333333 23.4126667,62.3046667 23.646,62.65 C23.8793333,62.9953333 24.2853333,63.168 24.864,63.168 Z M28.756,63.168 C29.1666667,63.168 29.547,63.0793333 29.897,62.902 C30.247,62.7246667 30.576,62.5053333 30.884,62.244 L30.884,62.244 L30.94,62.244 L31.052,63 L32.382,63 L32.382,58.926 C32.382,57.9646667 32.1696667,57.2296667 31.745,56.721 C31.3203333,56.2123333 30.6786667,55.958 29.82,55.958 C29.2693333,55.958 28.756,56.0466667 28.28,56.224 C27.804,56.4013333 27.3746667,56.6113333 26.992,56.854 L26.992,56.854 L27.58,57.932 C27.888,57.7453333 28.203,57.5866667 28.525,57.456 C28.847,57.3253333 29.176,57.26 29.512,57.26 C29.7453333,57.26 29.9413333,57.295 30.1,57.365 C30.2586667,57.435 30.387,57.533 30.485,57.659 C30.583,57.785 30.653,57.9296667 30.695,58.093 C30.737,58.2563333 30.7626667,58.4266667 30.772,58.604 C30.0626667,58.6786667 29.4536667,58.786 28.945,58.926 C28.4363333,59.066 28.0163333,59.2386667 27.685,59.444 C27.3536667,59.6493333 27.111,59.8943333 26.957,60.179 C26.803,60.4636667 26.726,60.788 26.726,61.152 C26.726,61.7586667 26.9126667,62.2463333 27.286,62.615 C27.6593333,62.9836667 28.1493333,63.168 28.756,63.168 Z M29.274,61.908 C28.9846667,61.908 28.7466667,61.838 28.56,61.698 C28.3733333,61.558 28.28,61.334 28.28,61.026 C28.28,60.858 28.322,60.6993333 28.406,60.55 C28.49,60.4006667 28.63,60.2676667 28.826,60.151 C29.022,60.0343333 29.2786667,59.9293333 29.596,59.836 C29.9133333,59.7426667 30.3053333,59.668 30.772,59.612 L30.772,59.612 L30.772,61.152 C30.5106667,61.3946667 30.2656667,61.5813333 30.037,61.712 C29.8083333,61.8426667 29.554,61.908 29.274,61.908 Z M34.776,65.828 C35.1493333,65.828 35.4783333,65.7696667 35.763,65.653 C36.0476667,65.5363333 36.2996667,65.3683333 36.519,65.149 C36.7383333,64.9296667 36.932,64.666 37.1,64.358 C37.268,64.05 37.422,63.7 37.562,63.308 L37.562,63.308 L40.054,56.126 L38.5,56.126 L37.464,59.5 C37.38,59.808 37.2936667,60.1276667 37.205,60.459 C37.1163333,60.7903333 37.03,61.1146667 36.946,61.432 L36.946,61.432 L36.89,61.432 C36.7873333,61.1053333 36.687,60.7763333 36.589,60.445 C36.491,60.1136667 36.3906667,59.7986667 36.288,59.5 L36.288,59.5 L35.098,56.126 L33.46,56.126 L36.162,62.916 L36.036,63.35 C35.924,63.6953333 35.7583333,63.9776667 35.539,64.197 C35.3196667,64.4163333 35.028,64.526 34.664,64.526 C34.58,64.526 34.4936667,64.5143333 34.405,64.491 C34.3163333,64.4676667 34.2393333,64.4466667 34.174,64.428 L34.174,64.428 L33.88,65.688 C34.0106667,65.7346667 34.146,65.7696667 34.286,65.793 C34.426,65.8163333 34.5893333,65.828 34.776,65.828 Z M43.162,63.168 C43.5913333,63.168 43.974,63.112 44.31,63 C44.646,62.888 44.926,62.7363333 45.15,62.545 C45.374,62.3536667 45.5443333,62.1296667 45.661,61.873 C45.7776667,61.6163333 45.836,61.3386667 45.836,61.04 C45.836,60.7226667 45.7776667,60.4496667 45.661,60.221 C45.5443333,59.9923333 45.3903333,59.7986667 45.199,59.64 C45.0076667,59.4813333 44.7953333,59.3483333 44.562,59.241 C44.3286667,59.1336667 44.0953333,59.038 43.862,58.954 C43.6753333,58.8886667 43.4956667,58.8233333 43.323,58.758 C43.1503333,58.6926667 42.9986667,58.6226667 42.868,58.548 C42.7373333,58.4733333 42.6323333,58.387 42.553,58.289 C42.4736667,58.191 42.434,58.072 42.434,57.932 C42.434,57.7173333 42.5156667,57.5376667 42.679,57.393 C42.8423333,57.2483333 43.0966667,57.176 43.442,57.176 C43.7126667,57.176 43.9716667,57.2296667 44.219,57.337 C44.4663333,57.4443333 44.7113333,57.5866667 44.954,57.764 L44.954,57.764 L45.696,56.784 C45.416,56.5693333 45.0846667,56.378 44.702,56.21 C44.3193333,56.042 43.89,55.958 43.414,55.958 C42.6393333,55.958 42.028,56.1493333 41.58,56.532 C41.132,56.9146667 40.908,57.4093333 40.908,58.016 C40.908,58.3053333 40.9663333,58.555 41.083,58.765 C41.1996667,58.975 41.349,59.1593333 41.531,59.318 C41.713,59.4766667 41.9206667,59.612 42.154,59.724 C42.3873333,59.836 42.616,59.934 42.84,60.018 C43.0173333,60.0926667 43.1946667,60.165 43.372,60.235 C43.5493333,60.305 43.708,60.382 43.848,60.466 C43.988,60.55 44.1,60.6456667 44.184,60.753 C44.268,60.8603333 44.31,60.984 44.31,61.124 C44.31,61.3666667 44.2213333,61.565 44.044,61.719 C43.8666667,61.873 43.5913333,61.95 43.218,61.95 C42.8633333,61.95 42.5343333,61.8823333 42.231,61.747 C41.9276667,61.6116667 41.622,61.4226667 41.314,61.18 L41.314,61.18 L40.558,62.216 C40.894,62.4866667 41.293,62.713 41.755,62.895 C42.217,63.077 42.686,63.168 43.162,63.168 Z M3.948,82.54 L3.948,81.126 C4.62,81.0326667 5.14966667,80.7713333 5.537,80.342 C5.92433333,79.9126667 6.118,79.362 6.118,78.69 C6.118,78.186 6.02233333,77.773 5.831,77.451 C5.63966667,77.129 5.39933333,76.8583333 5.11,76.639 C4.82066667,76.4196667 4.50566667,76.233 4.165,76.079 C3.82433333,75.925 3.50933333,75.7663333 3.22,75.603 C2.93066667,75.4396667 2.69033333,75.2506667 2.499,75.036 C2.30766667,74.8213333 2.212,74.546 2.212,74.21 C2.212,73.7993333 2.338,73.4726667 2.59,73.23 C2.842,72.9873333 3.18266667,72.866 3.612,72.866 C3.99466667,72.866 4.30966667,72.936 4.557,73.076 C4.80433333,73.216 5.05866667,73.412 5.32,73.664 L5.32,73.664 L5.936,72.978 C5.684,72.7073333 5.40166667,72.474 5.089,72.278 C4.77633333,72.082 4.396,71.9606667 3.948,71.914 L3.948,71.914 L3.948,70.528 L3.108,70.528 L3.108,71.942 C2.492,72.0353333 1.99966667,72.2896667 1.631,72.705 C1.26233333,73.1203333 1.078,73.6406667 1.078,74.266 C1.078,74.7233333 1.17366667,75.099 1.365,75.393 C1.55633333,75.687 1.79666667,75.9366667 2.086,76.142 C2.37533333,76.3473333 2.69033333,76.5293333 3.031,76.688 C3.37166667,76.8466667 3.68666667,77.017 3.976,77.199 C4.26533333,77.381 4.50566667,77.5956667 4.697,77.843 C4.88833333,78.0903333 4.984,78.4006667 4.984,78.774 C4.984,79.2126667 4.85566667,79.5626667 4.599,79.824 C4.34233333,80.0853333 3.95266667,80.216 3.43,80.216 C3.00066667,80.216 2.60633333,80.125 2.247,79.943 C1.88766667,79.761 1.55866667,79.5393333 1.26,79.278 L1.26,79.278 L0.728,80.076 C1.02666667,80.3466667 1.386,80.5823333 1.806,80.783 C2.226,80.9836667 2.66,81.1073333 3.108,81.154 L3.108,81.154 L3.108,82.54 L3.948,82.54 Z M10.262,81.168 C10.6726667,81.168 11.0553333,81.1096667 11.41,80.993 C11.7646667,80.8763333 12.075,80.7083333 12.341,80.489 C12.607,80.2696667 12.817,80.0013333 12.971,79.684 C13.125,79.3666667 13.202,79.012 13.202,78.62 C13.202,78.312 13.153,78.032 13.055,77.78 C12.957,77.528 12.8193333,77.3063333 12.642,77.115 C12.4646667,76.9236667 12.2593333,76.765 12.026,76.639 C11.7926667,76.513 11.5406667,76.4173333 11.27,76.352 L11.27,76.352 L11.27,76.296 C11.7553333,76.1093333 12.1473333,75.8433333 12.446,75.498 C12.7446667,75.1526667 12.894,74.7093333 12.894,74.168 C12.894,73.804 12.8286667,73.482 12.698,73.202 C12.5673333,72.922 12.383,72.6863333 12.145,72.495 C11.907,72.3036667 11.6246667,72.1566667 11.298,72.054 C10.9713333,71.9513333 10.612,71.9 10.22,71.9 C9.688,71.9 9.21433333,72.005 8.799,72.215 C8.38366667,72.425 8.00333333,72.6933333 7.658,73.02 L7.658,73.02 L8.274,73.748 C8.54466667,73.4773333 8.83633333,73.258 9.149,73.09 C9.46166667,72.922 9.80466667,72.838 10.178,72.838 C10.654,72.838 11.0296667,72.964 11.305,73.216 C11.5803333,73.468 11.718,73.8133333 11.718,74.252 C11.718,74.4853333 11.676,74.7046667 11.592,74.91 C11.508,75.1153333 11.3656667,75.2926667 11.165,75.442 C10.9643333,75.5913333 10.703,75.708 10.381,75.792 C10.059,75.876 9.66,75.918 9.184,75.918 L9.184,75.918 L9.184,76.8 C9.716,76.8 10.164,76.842 10.528,76.926 C10.892,77.01 11.186,77.1313333 11.41,77.29 C11.634,77.4486667 11.795,77.6376667 11.893,77.857 C11.991,78.0763333 12.04,78.3166667 12.04,78.578 C12.04,79.082 11.8673333,79.481 11.522,79.775 C11.1766667,80.069 10.7333333,80.216 10.192,80.216 C9.66,80.216 9.21433333,80.1086667 8.855,79.894 C8.49566667,79.6793333 8.18066667,79.432 7.91,79.152 L7.91,79.152 L7.322,79.908 C7.47133333,80.076 7.64166667,80.2346667 7.833,80.384 C8.02433333,80.5333333 8.24133333,80.6663333 8.484,80.783 C8.72666667,80.8996667 8.995,80.993 9.289,81.063 C9.583,81.133 9.90733333,81.168 10.262,81.168 Z M20.244,81 L20.244,80.006 L17.654,80.006 C17.4206667,80.006 17.1733333,80.0153333 16.912,80.034 C16.6506667,80.0526667 16.3986667,80.0713333 16.156,80.09 C16.688,79.5393333 17.1756667,79.019 17.619,78.529 C18.0623333,78.039 18.445,77.5676667 18.767,77.115 C19.089,76.6623333 19.341,76.2236667 19.523,75.799 C19.705,75.3743333 19.796,74.952 19.796,74.532 C19.796,73.7386667 19.558,73.1016667 19.082,72.621 C18.606,72.1403333 17.9526667,71.9 17.122,71.9 C16.534,71.9 16.03,72.0236667 15.61,72.271 C15.19,72.5183333 14.7933333,72.8473333 14.42,73.258 L14.42,73.258 L15.078,73.916 C15.3393333,73.6173333 15.6286667,73.363 15.946,73.153 C16.2633333,72.943 16.6086667,72.838 16.982,72.838 C17.5513333,72.838 17.976,73.0013333 18.256,73.328 C18.536,73.6546667 18.676,74.0746667 18.676,74.588 C18.676,74.952 18.5826667,75.3276667 18.396,75.715 C18.2093333,76.1023333 17.9386667,76.527 17.584,76.989 C17.2293333,77.451 16.7906667,77.9526667 16.268,78.494 C15.7453333,79.0353333 15.148,79.642 14.476,80.314 L14.476,80.314 L14.476,81 L20.244,81 Z M23.744,81.168 C24.192,81.168 24.619,81.077 25.025,80.895 C25.431,80.713 25.7926667,80.4236667 26.11,80.027 C26.4273333,79.6303333 26.6793333,79.117 26.866,78.487 C27.0526667,77.857 27.146,77.094 27.146,76.198 C27.146,75.4793333 27.069,74.8516667 26.915,74.315 C26.761,73.7783333 26.5463333,73.3303333 26.271,72.971 C25.9956667,72.6116667 25.669,72.3433333 25.291,72.166 C24.913,71.9886667 24.5046667,71.9 24.066,71.9 C23.7113333,71.9 23.373,71.97 23.051,72.11 C22.729,72.25 22.449,72.446 22.211,72.698 C21.973,72.95 21.784,73.251 21.644,73.601 C21.504,73.951 21.434,74.3406667 21.434,74.77 C21.434,75.694 21.6626667,76.3846667 22.12,76.842 C22.5773333,77.2993333 23.1933333,77.528 23.968,77.528 C24.3413333,77.528 24.7146667,77.4253333 25.088,77.22 C25.4613333,77.0146667 25.788,76.7346667 26.068,76.38 C26.0586667,77.0986667 25.9886667,77.7006667 25.858,78.186 C25.7273333,78.6713333 25.5546667,79.0656667 25.34,79.369 C25.1253333,79.6723333 24.878,79.8893333 24.598,80.02 C24.318,80.1506667 24.0193333,80.216 23.702,80.216 C23.422,80.216 23.1536667,80.1506667 22.897,80.02 C22.6403333,79.8893333 22.4186667,79.7166667 22.232,79.502 L22.232,79.502 L21.588,80.23 C21.8306667,80.5006667 22.1316667,80.7246667 22.491,80.902 C22.8503333,81.0793333 23.268,81.168 23.744,81.168 Z M24.164,76.66 C23.604,76.66 23.1886667,76.492 22.918,76.156 C22.6473333,75.82 22.512,75.358 22.512,74.77 C22.512,74.4806667 22.5516667,74.2146667 22.631,73.972 C22.7103333,73.7293333 22.82,73.5216667 22.96,73.349 C23.1,73.1763333 23.2656667,73.0433333 23.457,72.95 C23.6483333,72.8566667 23.8513333,72.81 24.066,72.81 C24.6353333,72.81 25.088,73.034 25.424,73.482 C25.76,73.93 25.9653333,74.5926667 26.04,75.47 C25.7506667,75.89 25.4403333,76.1933333 25.109,76.38 C24.7776667,76.5666667 24.4626667,76.66 24.164,76.66 Z M32.018,81 C32.5313333,81 33.0026667,80.944 33.432,80.832 C33.8613333,80.72 34.23,80.552 34.538,80.328 C34.846,80.104 35.084,79.824 35.252,79.488 C35.42,79.152 35.504,78.76 35.504,78.312 C35.504,77.6773333 35.3313333,77.178 34.986,76.814 C34.6406667,76.45 34.188,76.2166667 33.628,76.114 L33.628,76.114 L33.628,76.058 C34.0666667,75.918 34.4003333,75.6636667 34.629,75.295 C34.8576667,74.9263333 34.972,74.5133333 34.972,74.056 C34.972,73.6546667 34.895,73.3116667 34.741,73.027 C34.587,72.7423333 34.3723333,72.5113333 34.097,72.334 C33.8216667,72.1566667 33.4903333,72.026 33.103,71.942 C32.7156667,71.858 32.2886667,71.816 31.822,71.816 L31.822,71.816 L29.092,71.816 L29.092,81 L32.018,81 Z M31.612,75.722 L30.254,75.722 L30.254,72.74 L31.668,72.74 C32.3866667,72.74 32.9256667,72.852 33.285,73.076 C33.6443333,73.3 33.824,73.678 33.824,74.21 C33.824,74.6766667 33.6513333,75.0453333 33.306,75.316 C32.9606667,75.5866667 32.396,75.722 31.612,75.722 L31.612,75.722 Z M31.85,80.076 L30.254,80.076 L30.254,76.618 L31.85,76.618 C32.662,76.618 33.2826667,76.751 33.712,77.017 C34.1413333,77.283 34.356,77.7006667 34.356,78.27 C34.356,78.886 34.1366667,79.341 33.698,79.635 C33.2593333,79.929 32.6433333,80.076 31.85,80.076 L31.85,80.076 Z" id="Outlays$329B" fill="#666666" fill-rule="nonzero"></path>
                <path d="M131.718,63.168 C132.315333,63.168 132.861333,63.0583333 133.356,62.839 C133.850667,62.6196667 134.277667,62.3023333 134.637,61.887 C134.996333,61.4716667 135.274,60.97 135.47,60.382 C135.666,59.794 135.764,59.1266667 135.764,58.38 C135.764,57.6426667 135.666,56.9823333 135.47,56.399 C135.274,55.8156667 134.996333,55.3233333 134.637,54.922 C134.277667,54.5206667 133.850667,54.2126667 133.356,53.998 C132.861333,53.7833333 132.315333,53.676 131.718,53.676 C131.120667,53.676 130.574667,53.7833333 130.08,53.998 C129.585333,54.2126667 129.160667,54.5206667 128.806,54.922 C128.451333,55.3233333 128.176,55.8156667 127.98,56.399 C127.784,56.9823333 127.686,57.6426667 127.686,58.38 C127.686,59.1266667 127.784,59.794 127.98,60.382 C128.176,60.97 128.451333,61.4716667 128.806,61.887 C129.160667,62.3023333 129.585333,62.6196667 130.08,62.839 C130.574667,63.0583333 131.120667,63.168 131.718,63.168 Z M131.718,61.754 C131.354,61.754 131.027333,61.6746667 130.738,61.516 C130.448667,61.3573333 130.201333,61.131 129.996,60.837 C129.790667,60.543 129.632,60.1883333 129.52,59.773 C129.408,59.3576667 129.352,58.8933333 129.352,58.38 C129.352,57.3533333 129.564333,56.5483333 129.989,55.965 C130.413667,55.3816667 130.99,55.09 131.718,55.09 C132.446,55.09 133.022333,55.3816667 133.447,55.965 C133.871667,56.5483333 134.084,57.3533333 134.084,58.38 C134.084,58.8933333 134.028,59.3576667 133.916,59.773 C133.804,60.1883333 133.645333,60.543 133.44,60.837 C133.234667,61.131 132.987333,61.3573333 132.698,61.516 C132.408667,61.6746667 132.082,61.754 131.718,61.754 Z M140.79,63.168 C141.172667,63.168 141.541333,63.084 141.896,62.916 C142.250667,62.748 142.563333,62.5053333 142.834,62.188 C143.104667,61.8706667 143.321667,61.481 143.485,61.019 C143.648333,60.557 143.73,60.032 143.73,59.444 C143.73,58.912 143.669333,58.4313333 143.548,58.002 C143.426667,57.5726667 143.249333,57.2063333 143.016,56.903 C142.782667,56.5996667 142.498,56.3663333 142.162,56.203 C141.826,56.0396667 141.443333,55.958 141.014,55.958 C140.659333,55.958 140.311667,56.0373333 139.971,56.196 C139.630333,56.3546667 139.315333,56.56 139.026,56.812 L139.026,56.812 L139.068,55.664 L139.068,53.116 L137.458,53.116 L137.458,63 L138.732,63 L138.872,62.272 L138.914,62.272 C139.203333,62.5613333 139.509,62.783 139.831,62.937 C140.153,63.091 140.472667,63.168 140.79,63.168 Z M140.454,61.838 C140.248667,61.838 140.027,61.796 139.789,61.712 C139.551,61.628 139.310667,61.4786667 139.068,61.264 L139.068,61.264 L139.068,58.058 C139.590667,57.5446667 140.094667,57.288 140.58,57.288 C141.102667,57.288 141.480667,57.4793333 141.714,57.862 C141.947333,58.2446667 142.064,58.7813333 142.064,59.472 C142.064,60.256 141.91,60.8463333 141.602,61.243 C141.294,61.6396667 140.911333,61.838 140.454,61.838 Z M146.908,63.168 C147.262667,63.168 147.547333,63.1213333 147.762,63.028 L147.762,63.028 L147.552,61.824 C147.486667,61.8426667 147.437667,61.852 147.405,61.852 L147.405,61.852 L147.3,61.852 C147.216,61.852 147.136667,61.8123333 147.062,61.733 C146.987333,61.6536667 146.95,61.516 146.95,61.32 L146.95,61.32 L146.95,53.116 L145.34,53.116 L145.34,61.236 C145.34,61.8333333 145.456667,62.3046667 145.69,62.65 C145.923333,62.9953333 146.329333,63.168 146.908,63.168 Z M149.946,54.922 C150.235333,54.922 150.473333,54.838 150.66,54.67 C150.846667,54.502 150.94,54.2826667 150.94,54.012 C150.94,53.7413333 150.846667,53.5196667 150.66,53.347 C150.473333,53.1743333 150.235333,53.088 149.946,53.088 C149.656667,53.088 149.418667,53.1743333 149.232,53.347 C149.045333,53.5196667 148.952,53.7413333 148.952,54.012 C148.952,54.2826667 149.045333,54.502 149.232,54.67 C149.418667,54.838 149.656667,54.922 149.946,54.922 Z M150.744,63 L150.744,56.126 L149.134,56.126 L149.134,63 L150.744,63 Z M155.196,66.038 C155.756,66.038 156.262333,65.975 156.715,65.849 C157.167667,65.723 157.552667,65.5526667 157.87,65.338 C158.187333,65.1233333 158.432333,64.8666667 158.605,64.568 C158.777667,64.2693333 158.864,63.952 158.864,63.616 C158.864,63.0186667 158.651667,62.587 158.227,62.321 C157.802333,62.055 157.174667,61.922 156.344,61.922 L156.344,61.922 L155.126,61.922 C154.706,61.922 154.414333,61.866 154.251,61.754 C154.087667,61.642 154.006,61.488 154.006,61.292 C154.006,61.1333333 154.036333,61.0073333 154.097,60.914 C154.157667,60.8206667 154.239333,60.7273333 154.342,60.634 C154.500667,60.6993333 154.659333,60.746 154.818,60.774 C154.976667,60.802 155.130667,60.816 155.28,60.816 C155.644,60.816 155.984667,60.7646667 156.302,60.662 C156.619333,60.5593333 156.894667,60.41 157.128,60.214 C157.361333,60.018 157.545667,59.7753333 157.681,59.486 C157.816333,59.1966667 157.884,58.8606667 157.884,58.478 C157.884,58.2353333 157.846667,58.0136667 157.772,57.813 C157.697333,57.6123333 157.604,57.4466667 157.492,57.316 L157.492,57.316 L158.752,57.316 L158.752,56.126 L156.288,56.126 C156.148,56.0793333 155.991667,56.0396667 155.819,56.007 C155.646333,55.9743333 155.466667,55.958 155.28,55.958 C154.916,55.958 154.570667,56.0116667 154.244,56.119 C153.917333,56.2263333 153.630333,56.385 153.383,56.595 C153.135667,56.805 152.937333,57.064 152.788,57.372 C152.638667,57.68 152.564,58.03 152.564,58.422 C152.564,58.8326667 152.655,59.1943333 152.837,59.507 C153.019,59.8196667 153.226667,60.0646667 153.46,60.242 L153.46,60.242 L153.46,60.298 C153.264,60.438 153.089,60.6176667 152.935,60.837 C152.781,61.0563333 152.704,61.3013333 152.704,61.572 C152.704,61.852 152.762333,62.0853333 152.879,62.272 C152.995667,62.4586667 153.142667,62.608 153.32,62.72 L153.32,62.72 L153.32,62.776 C153.002667,62.972 152.76,63.1936667 152.592,63.441 C152.424,63.6883333 152.34,63.9566667 152.34,64.246 C152.34,64.5446667 152.412333,64.806 152.557,65.03 C152.701667,65.254 152.9,65.4406667 153.152,65.59 C153.404,65.7393333 153.705,65.8513333 154.055,65.926 C154.405,66.0006667 154.785333,66.038 155.196,66.038 Z M155.28,59.808 C154.944,59.808 154.659333,59.689 154.426,59.451 C154.192667,59.213 154.076,58.87 154.076,58.422 C154.076,57.9833333 154.192667,57.6473333 154.426,57.414 C154.659333,57.1806667 154.944,57.064 155.28,57.064 C155.616,57.064 155.898333,57.183 156.127,57.421 C156.355667,57.659 156.47,57.9926667 156.47,58.422 C156.47,58.87 156.353333,59.213 156.12,59.451 C155.886667,59.689 155.606667,59.808 155.28,59.808 Z M155.448,64.988 C154.897333,64.988 154.465667,64.9016667 154.153,64.729 C153.840333,64.5563333 153.684,64.316 153.684,64.008 C153.684,63.672 153.861333,63.3686667 154.216,63.098 C154.468,63.1633333 154.780667,63.196 155.154,63.196 L155.154,63.196 L156.092,63.196 C156.484,63.196 156.785,63.2426667 156.995,63.336 C157.205,63.4293333 157.31,63.6113333 157.31,63.882 C157.31,64.1806667 157.139667,64.4396667 156.799,64.659 C156.458333,64.8783333 156.008,64.988 155.448,64.988 Z M161.496,63.168 C161.906667,63.168 162.287,63.0793333 162.637,62.902 C162.987,62.7246667 163.316,62.5053333 163.624,62.244 L163.624,62.244 L163.68,62.244 L163.792,63 L165.122,63 L165.122,58.926 C165.122,57.9646667 164.909667,57.2296667 164.485,56.721 C164.060333,56.2123333 163.418667,55.958 162.56,55.958 C162.009333,55.958 161.496,56.0466667 161.02,56.224 C160.544,56.4013333 160.114667,56.6113333 159.732,56.854 L159.732,56.854 L160.32,57.932 C160.628,57.7453333 160.943,57.5866667 161.265,57.456 C161.587,57.3253333 161.916,57.26 162.252,57.26 C162.485333,57.26 162.681333,57.295 162.84,57.365 C162.998667,57.435 163.127,57.533 163.225,57.659 C163.323,57.785 163.393,57.9296667 163.435,58.093 C163.477,58.2563333 163.502667,58.4266667 163.512,58.604 C162.802667,58.6786667 162.193667,58.786 161.685,58.926 C161.176333,59.066 160.756333,59.2386667 160.425,59.444 C160.093667,59.6493333 159.851,59.8943333 159.697,60.179 C159.543,60.4636667 159.466,60.788 159.466,61.152 C159.466,61.7586667 159.652667,62.2463333 160.026,62.615 C160.399333,62.9836667 160.889333,63.168 161.496,63.168 Z M162.014,61.908 C161.724667,61.908 161.486667,61.838 161.3,61.698 C161.113333,61.558 161.02,61.334 161.02,61.026 C161.02,60.858 161.062,60.6993333 161.146,60.55 C161.23,60.4006667 161.37,60.2676667 161.566,60.151 C161.762,60.0343333 162.018667,59.9293333 162.336,59.836 C162.653333,59.7426667 163.045333,59.668 163.512,59.612 L163.512,59.612 L163.512,61.152 C163.250667,61.3946667 163.005667,61.5813333 162.777,61.712 C162.548333,61.8426667 162.294,61.908 162.014,61.908 Z M169.252,63.168 C169.522667,63.168 169.777,63.1423333 170.015,63.091 C170.253,63.0396667 170.465333,62.9813333 170.652,62.916 L170.652,62.916 L170.372,61.726 C170.269333,61.7726667 170.155,61.81 170.029,61.838 C169.903,61.866 169.779333,61.88 169.658,61.88 C169.014,61.88 168.692,61.4786667 168.692,60.676 L168.692,60.676 L168.692,57.4 L170.442,57.4 L170.442,56.126 L168.692,56.126 L168.692,54.25 L167.348,54.25 L167.152,56.126 L166.088,56.196 L166.088,57.4 L167.068,57.4 L167.068,60.676 C167.068,61.0493333 167.107667,61.3876667 167.187,61.691 C167.266333,61.9943333 167.392333,62.2556667 167.565,62.475 C167.737667,62.6943333 167.961667,62.8646667 168.237,62.986 C168.512333,63.1073333 168.850667,63.168 169.252,63.168 Z M172.696,54.922 C172.985333,54.922 173.223333,54.838 173.41,54.67 C173.596667,54.502 173.69,54.2826667 173.69,54.012 C173.69,53.7413333 173.596667,53.5196667 173.41,53.347 C173.223333,53.1743333 172.985333,53.088 172.696,53.088 C172.406667,53.088 172.168667,53.1743333 171.982,53.347 C171.795333,53.5196667 171.702,53.7413333 171.702,54.012 C171.702,54.2826667 171.795333,54.502 171.982,54.67 C172.168667,54.838 172.406667,54.922 172.696,54.922 Z M173.494,63 L173.494,56.126 L171.884,56.126 L171.884,63 L173.494,63 Z M178.366,63.168 C178.795333,63.168 179.208333,63.0886667 179.605,62.93 C180.001667,62.7713333 180.349333,62.538 180.648,62.23 C180.946667,61.922 181.187,61.544 181.369,61.096 C181.551,60.648 181.642,60.1393333 181.642,59.57 C181.642,59.0006667 181.551,58.492 181.369,58.044 C181.187,57.596 180.946667,57.218 180.648,56.91 C180.349333,56.602 180.001667,56.3663333 179.605,56.203 C179.208333,56.0396667 178.795333,55.958 178.366,55.958 C177.936667,55.958 177.526,56.0396667 177.134,56.203 C176.742,56.3663333 176.394333,56.602 176.091,56.91 C175.787667,57.218 175.547333,57.596 175.37,58.044 C175.192667,58.492 175.104,59.0006667 175.104,59.57 C175.104,60.1393333 175.192667,60.648 175.37,61.096 C175.547333,61.544 175.787667,61.922 176.091,62.23 C176.394333,62.538 176.742,62.7713333 177.134,62.93 C177.526,63.0886667 177.936667,63.168 178.366,63.168 Z M178.366,61.852 C177.862,61.852 177.467667,61.6443333 177.183,61.229 C176.898333,60.8136667 176.756,60.2606667 176.756,59.57 C176.756,58.87 176.898333,58.3123333 177.183,57.897 C177.467667,57.4816667 177.862,57.274 178.366,57.274 C178.87,57.274 179.266667,57.4816667 179.556,57.897 C179.845333,58.3123333 179.99,58.87 179.99,59.57 C179.99,60.2606667 179.845333,60.8136667 179.556,61.229 C179.266667,61.6443333 178.87,61.852 178.366,61.852 Z M184.848,63 L184.848,58.198 C185.137333,57.918 185.396333,57.7056667 185.625,57.561 C185.853667,57.4163333 186.117333,57.344 186.416,57.344 C186.798667,57.344 187.074,57.4606667 187.242,57.694 C187.41,57.9273333 187.494,58.3286667 187.494,58.898 L187.494,58.898 L187.494,63 L189.104,63 L189.104,58.688 C189.104,57.8106667 188.936,57.1363333 188.6,56.665 C188.264,56.1936667 187.727333,55.958 186.99,55.958 C186.514,55.958 186.096333,56.0653333 185.737,56.28 C185.377667,56.4946667 185.044,56.7513333 184.736,57.05 L184.736,57.05 L184.68,57.05 L184.568,56.126 L183.238,56.126 L183.238,63 L184.848,63 Z M192.996,63.168 C193.425333,63.168 193.808,63.112 194.144,63 C194.48,62.888 194.76,62.7363333 194.984,62.545 C195.208,62.3536667 195.378333,62.1296667 195.495,61.873 C195.611667,61.6163333 195.67,61.3386667 195.67,61.04 C195.67,60.7226667 195.611667,60.4496667 195.495,60.221 C195.378333,59.9923333 195.224333,59.7986667 195.033,59.64 C194.841667,59.4813333 194.629333,59.3483333 194.396,59.241 C194.162667,59.1336667 193.929333,59.038 193.696,58.954 C193.509333,58.8886667 193.329667,58.8233333 193.157,58.758 C192.984333,58.6926667 192.832667,58.6226667 192.702,58.548 C192.571333,58.4733333 192.466333,58.387 192.387,58.289 C192.307667,58.191 192.268,58.072 192.268,57.932 C192.268,57.7173333 192.349667,57.5376667 192.513,57.393 C192.676333,57.2483333 192.930667,57.176 193.276,57.176 C193.546667,57.176 193.805667,57.2296667 194.053,57.337 C194.300333,57.4443333 194.545333,57.5866667 194.788,57.764 L194.788,57.764 L195.53,56.784 C195.25,56.5693333 194.918667,56.378 194.536,56.21 C194.153333,56.042 193.724,55.958 193.248,55.958 C192.473333,55.958 191.862,56.1493333 191.414,56.532 C190.966,56.9146667 190.742,57.4093333 190.742,58.016 C190.742,58.3053333 190.800333,58.555 190.917,58.765 C191.033667,58.975 191.183,59.1593333 191.365,59.318 C191.547,59.4766667 191.754667,59.612 191.988,59.724 C192.221333,59.836 192.45,59.934 192.674,60.018 C192.851333,60.0926667 193.028667,60.165 193.206,60.235 C193.383333,60.305 193.542,60.382 193.682,60.466 C193.822,60.55 193.934,60.6456667 194.018,60.753 C194.102,60.8603333 194.144,60.984 194.144,61.124 C194.144,61.3666667 194.055333,61.565 193.878,61.719 C193.700667,61.873 193.425333,61.95 193.052,61.95 C192.697333,61.95 192.368333,61.8823333 192.065,61.747 C191.761667,61.6116667 191.456,61.4226667 191.148,61.18 L191.148,61.18 L190.392,62.216 C190.728,62.4866667 191.127,62.713 191.589,62.895 C192.051,63.077 192.52,63.168 192.996,63.168 Z M130.948,82.54 L130.948,81.126 C131.62,81.0326667 132.149667,80.7713333 132.537,80.342 C132.924333,79.9126667 133.118,79.362 133.118,78.69 C133.118,78.186 133.022333,77.773 132.831,77.451 C132.639667,77.129 132.399333,76.8583333 132.11,76.639 C131.820667,76.4196667 131.505667,76.233 131.165,76.079 C130.824333,75.925 130.509333,75.7663333 130.22,75.603 C129.930667,75.4396667 129.690333,75.2506667 129.499,75.036 C129.307667,74.8213333 129.212,74.546 129.212,74.21 C129.212,73.7993333 129.338,73.4726667 129.59,73.23 C129.842,72.9873333 130.182667,72.866 130.612,72.866 C130.994667,72.866 131.309667,72.936 131.557,73.076 C131.804333,73.216 132.058667,73.412 132.32,73.664 L132.32,73.664 L132.936,72.978 C132.684,72.7073333 132.401667,72.474 132.089,72.278 C131.776333,72.082 131.396,71.9606667 130.948,71.914 L130.948,71.914 L130.948,70.528 L130.108,70.528 L130.108,71.942 C129.492,72.0353333 128.999667,72.2896667 128.631,72.705 C128.262333,73.1203333 128.078,73.6406667 128.078,74.266 C128.078,74.7233333 128.173667,75.099 128.365,75.393 C128.556333,75.687 128.796667,75.9366667 129.086,76.142 C129.375333,76.3473333 129.690333,76.5293333 130.031,76.688 C130.371667,76.8466667 130.686667,77.017 130.976,77.199 C131.265333,77.381 131.505667,77.5956667 131.697,77.843 C131.888333,78.0903333 131.984,78.4006667 131.984,78.774 C131.984,79.2126667 131.855667,79.5626667 131.599,79.824 C131.342333,80.0853333 130.952667,80.216 130.43,80.216 C130.000667,80.216 129.606333,80.125 129.247,79.943 C128.887667,79.761 128.558667,79.5393333 128.26,79.278 L128.26,79.278 L127.728,80.076 C128.026667,80.3466667 128.386,80.5823333 128.806,80.783 C129.226,80.9836667 129.66,81.1073333 130.108,81.154 L130.108,81.154 L130.108,82.54 L130.948,82.54 Z M137.262,81.168 C137.672667,81.168 138.055333,81.1096667 138.41,80.993 C138.764667,80.8763333 139.075,80.7083333 139.341,80.489 C139.607,80.2696667 139.817,80.0013333 139.971,79.684 C140.125,79.3666667 140.202,79.012 140.202,78.62 C140.202,78.312 140.153,78.032 140.055,77.78 C139.957,77.528 139.819333,77.3063333 139.642,77.115 C139.464667,76.9236667 139.259333,76.765 139.026,76.639 C138.792667,76.513 138.540667,76.4173333 138.27,76.352 L138.27,76.352 L138.27,76.296 C138.755333,76.1093333 139.147333,75.8433333 139.446,75.498 C139.744667,75.1526667 139.894,74.7093333 139.894,74.168 C139.894,73.804 139.828667,73.482 139.698,73.202 C139.567333,72.922 139.383,72.6863333 139.145,72.495 C138.907,72.3036667 138.624667,72.1566667 138.298,72.054 C137.971333,71.9513333 137.612,71.9 137.22,71.9 C136.688,71.9 136.214333,72.005 135.799,72.215 C135.383667,72.425 135.003333,72.6933333 134.658,73.02 L134.658,73.02 L135.274,73.748 C135.544667,73.4773333 135.836333,73.258 136.149,73.09 C136.461667,72.922 136.804667,72.838 137.178,72.838 C137.654,72.838 138.029667,72.964 138.305,73.216 C138.580333,73.468 138.718,73.8133333 138.718,74.252 C138.718,74.4853333 138.676,74.7046667 138.592,74.91 C138.508,75.1153333 138.365667,75.2926667 138.165,75.442 C137.964333,75.5913333 137.703,75.708 137.381,75.792 C137.059,75.876 136.66,75.918 136.184,75.918 L136.184,75.918 L136.184,76.8 C136.716,76.8 137.164,76.842 137.528,76.926 C137.892,77.01 138.186,77.1313333 138.41,77.29 C138.634,77.4486667 138.795,77.6376667 138.893,77.857 C138.991,78.0763333 139.04,78.3166667 139.04,78.578 C139.04,79.082 138.867333,79.481 138.522,79.775 C138.176667,80.069 137.733333,80.216 137.192,80.216 C136.66,80.216 136.214333,80.1086667 135.855,79.894 C135.495667,79.6793333 135.180667,79.432 134.91,79.152 L134.91,79.152 L134.322,79.908 C134.471333,80.076 134.641667,80.2346667 134.833,80.384 C135.024333,80.5333333 135.241333,80.6663333 135.484,80.783 C135.726667,80.8996667 135.995,80.993 136.289,81.063 C136.583,81.133 136.907333,81.168 137.262,81.168 Z M146.264,81 L146.264,78.536 L147.482,78.536 L147.482,77.612 L146.264,77.612 L146.264,72.068 L144.976,72.068 L141.154,77.78 L141.154,78.536 L145.172,78.536 L145.172,81 L146.264,81 Z M145.172,77.612 L142.372,77.612 L144.458,74.56 C144.588667,74.3453333 144.714667,74.1353333 144.836,73.93 C144.957333,73.7246667 145.074,73.5146667 145.186,73.3 L145.186,73.3 L145.242,73.3 C145.223333,73.5426667 145.207,73.8296667 145.193,74.161 C145.179,74.4923333 145.172,74.7793333 145.172,75.022 L145.172,75.022 L145.172,77.612 Z M151.15,81.168 C151.542,81.168 151.917667,81.1003333 152.277,80.965 C152.636333,80.8296667 152.956,80.6336667 153.236,80.377 C153.516,80.1203333 153.74,79.8053333 153.908,79.432 C154.076,79.0586667 154.16,78.6293333 154.16,78.144 C154.16,77.6586667 154.087667,77.241 153.943,76.891 C153.798333,76.541 153.6,76.2516667 153.348,76.023 C153.096,75.7943333 152.802,75.624 152.466,75.512 C152.13,75.4 151.770667,75.344 151.388,75.344 C151.117333,75.344 150.874667,75.3766667 150.66,75.442 C150.445333,75.5073333 150.230667,75.596 150.016,75.708 L150.016,75.708 L150.254,73.062 L153.712,73.062 L153.712,72.068 L149.246,72.068 L148.952,76.366 L149.568,76.758 C149.838667,76.5806667 150.083667,76.4453333 150.303,76.352 C150.522333,76.2586667 150.786,76.212 151.094,76.212 C151.672667,76.212 152.134667,76.3846667 152.48,76.73 C152.825333,77.0753333 152.998,77.556 152.998,78.172 C152.998,78.48 152.946667,78.76 152.844,79.012 C152.741333,79.264 152.601333,79.4786667 152.424,79.656 C152.246667,79.8333333 152.039,79.971 151.801,80.069 C151.563,80.167 151.308667,80.216 151.038,80.216 C150.515333,80.216 150.074333,80.1133333 149.715,79.908 C149.355667,79.7026667 149.045333,79.4646667 148.784,79.194 L148.784,79.194 L148.224,79.95 C148.373333,80.1086667 148.543667,80.2603333 148.735,80.405 C148.926333,80.5496667 149.141,80.678 149.379,80.79 C149.617,80.902 149.883,80.993 150.177,81.063 C150.471,81.133 150.795333,81.168 151.15,81.168 Z M159.018,81 C159.531333,81 160.002667,80.944 160.432,80.832 C160.861333,80.72 161.23,80.552 161.538,80.328 C161.846,80.104 162.084,79.824 162.252,79.488 C162.42,79.152 162.504,78.76 162.504,78.312 C162.504,77.6773333 162.331333,77.178 161.986,76.814 C161.640667,76.45 161.188,76.2166667 160.628,76.114 L160.628,76.114 L160.628,76.058 C161.066667,75.918 161.400333,75.6636667 161.629,75.295 C161.857667,74.9263333 161.972,74.5133333 161.972,74.056 C161.972,73.6546667 161.895,73.3116667 161.741,73.027 C161.587,72.7423333 161.372333,72.5113333 161.097,72.334 C160.821667,72.1566667 160.490333,72.026 160.103,71.942 C159.715667,71.858 159.288667,71.816 158.822,71.816 L158.822,71.816 L156.092,71.816 L156.092,81 L159.018,81 Z M158.612,75.722 L157.254,75.722 L157.254,72.74 L158.668,72.74 C159.386667,72.74 159.925667,72.852 160.285,73.076 C160.644333,73.3 160.824,73.678 160.824,74.21 C160.824,74.6766667 160.651333,75.0453333 160.306,75.316 C159.960667,75.5866667 159.396,75.722 158.612,75.722 L158.612,75.722 Z M158.85,80.076 L157.254,80.076 L157.254,76.618 L158.85,76.618 C159.662,76.618 160.282667,76.751 160.712,77.017 C161.141333,77.283 161.356,77.7006667 161.356,78.27 C161.356,78.886 161.136667,79.341 160.698,79.635 C160.259333,79.929 159.643333,80.076 158.85,80.076 L158.85,80.076 Z" id="Obligations$345B" fill="#666666" fill-rule="nonzero"></path>
                <path d="M281.592,63.168 C282.124,63.168 282.602333,63.091 283.027,62.937 C283.451667,62.783 283.815667,62.538 284.119,62.202 C284.422333,61.866 284.653333,61.4343333 284.812,60.907 C284.970667,60.3796667 285.05,59.738 285.05,58.982 L285.05,58.982 L285.05,53.844 L283.496,53.844 L283.496,59.108 C283.496,59.6026667 283.449333,60.0203333 283.356,60.361 C283.262667,60.7016667 283.132,60.9746667 282.964,61.18 C282.796,61.3853333 282.595333,61.5323333 282.362,61.621 C282.128667,61.7096667 281.872,61.754 281.592,61.754 C281.312,61.754 281.06,61.7096667 280.836,61.621 C280.612,61.5323333 280.418333,61.3853333 280.255,61.18 C280.091667,60.9746667 279.965667,60.7016667 279.877,60.361 C279.788333,60.0203333 279.744,59.6026667 279.744,59.108 L279.744,59.108 L279.744,53.844 L278.12,53.844 L278.12,58.982 C278.12,59.738 278.201667,60.3796667 278.365,60.907 C278.528333,61.4343333 278.761667,61.866 279.065,62.202 C279.368333,62.538 279.732333,62.783 280.157,62.937 C280.581667,63.091 281.06,63.168 281.592,63.168 Z M288.802,63 L288.802,58.198 C289.091333,57.918 289.350333,57.7056667 289.579,57.561 C289.807667,57.4163333 290.071333,57.344 290.37,57.344 C290.752667,57.344 291.028,57.4606667 291.196,57.694 C291.364,57.9273333 291.448,58.3286667 291.448,58.898 L291.448,58.898 L291.448,63 L293.058,63 L293.058,58.688 C293.058,57.8106667 292.89,57.1363333 292.554,56.665 C292.218,56.1936667 291.681333,55.958 290.944,55.958 C290.468,55.958 290.050333,56.0653333 289.691,56.28 C289.331667,56.4946667 288.998,56.7513333 288.69,57.05 L288.69,57.05 L288.634,57.05 L288.522,56.126 L287.192,56.126 L287.192,63 L288.802,63 Z M297.846,63.168 C298.275333,63.168 298.688333,63.0886667 299.085,62.93 C299.481667,62.7713333 299.829333,62.538 300.128,62.23 C300.426667,61.922 300.667,61.544 300.849,61.096 C301.031,60.648 301.122,60.1393333 301.122,59.57 C301.122,59.0006667 301.031,58.492 300.849,58.044 C300.667,57.596 300.426667,57.218 300.128,56.91 C299.829333,56.602 299.481667,56.3663333 299.085,56.203 C298.688333,56.0396667 298.275333,55.958 297.846,55.958 C297.416667,55.958 297.006,56.0396667 296.614,56.203 C296.222,56.3663333 295.874333,56.602 295.571,56.91 C295.267667,57.218 295.027333,57.596 294.85,58.044 C294.672667,58.492 294.584,59.0006667 294.584,59.57 C294.584,60.1393333 294.672667,60.648 294.85,61.096 C295.027333,61.544 295.267667,61.922 295.571,62.23 C295.874333,62.538 296.222,62.7713333 296.614,62.93 C297.006,63.0886667 297.416667,63.168 297.846,63.168 Z M297.846,61.852 C297.342,61.852 296.947667,61.6443333 296.663,61.229 C296.378333,60.8136667 296.236,60.2606667 296.236,59.57 C296.236,58.87 296.378333,58.3123333 296.663,57.897 C296.947667,57.4816667 297.342,57.274 297.846,57.274 C298.35,57.274 298.746667,57.4816667 299.036,57.897 C299.325333,58.3123333 299.47,58.87 299.47,59.57 C299.47,60.2606667 299.325333,60.8136667 299.036,61.229 C298.746667,61.6443333 298.35,61.852 297.846,61.852 Z M306.05,63.168 C306.432667,63.168 306.801333,63.084 307.156,62.916 C307.510667,62.748 307.823333,62.5053333 308.094,62.188 C308.364667,61.8706667 308.581667,61.481 308.745,61.019 C308.908333,60.557 308.99,60.032 308.99,59.444 C308.99,58.912 308.929333,58.4313333 308.808,58.002 C308.686667,57.5726667 308.509333,57.2063333 308.276,56.903 C308.042667,56.5996667 307.758,56.3663333 307.422,56.203 C307.086,56.0396667 306.703333,55.958 306.274,55.958 C305.919333,55.958 305.571667,56.0373333 305.231,56.196 C304.890333,56.3546667 304.575333,56.56 304.286,56.812 L304.286,56.812 L304.328,55.664 L304.328,53.116 L302.718,53.116 L302.718,63 L303.992,63 L304.132,62.272 L304.174,62.272 C304.463333,62.5613333 304.769,62.783 305.091,62.937 C305.413,63.091 305.732667,63.168 306.05,63.168 Z M305.714,61.838 C305.508667,61.838 305.287,61.796 305.049,61.712 C304.811,61.628 304.570667,61.4786667 304.328,61.264 L304.328,61.264 L304.328,58.058 C304.850667,57.5446667 305.354667,57.288 305.84,57.288 C306.362667,57.288 306.740667,57.4793333 306.974,57.862 C307.207333,58.2446667 307.324,58.7813333 307.324,59.472 C307.324,60.256 307.17,60.8463333 306.862,61.243 C306.554,61.6396667 306.171333,61.838 305.714,61.838 Z M312.168,63.168 C312.522667,63.168 312.807333,63.1213333 313.022,63.028 L313.022,63.028 L312.812,61.824 C312.746667,61.8426667 312.697667,61.852 312.665,61.852 L312.665,61.852 L312.56,61.852 C312.476,61.852 312.396667,61.8123333 312.322,61.733 C312.247333,61.6536667 312.21,61.516 312.21,61.32 L312.21,61.32 L312.21,53.116 L310.6,53.116 L310.6,61.236 C310.6,61.8333333 310.716667,62.3046667 310.95,62.65 C311.183333,62.9953333 311.589333,63.168 312.168,63.168 Z M315.206,54.922 C315.495333,54.922 315.733333,54.838 315.92,54.67 C316.106667,54.502 316.2,54.2826667 316.2,54.012 C316.2,53.7413333 316.106667,53.5196667 315.92,53.347 C315.733333,53.1743333 315.495333,53.088 315.206,53.088 C314.916667,53.088 314.678667,53.1743333 314.492,53.347 C314.305333,53.5196667 314.212,53.7413333 314.212,54.012 C314.212,54.2826667 314.305333,54.502 314.492,54.67 C314.678667,54.838 314.916667,54.922 315.206,54.922 Z M316.004,63 L316.004,56.126 L314.394,56.126 L314.394,63 L316.004,63 Z M320.456,66.038 C321.016,66.038 321.522333,65.975 321.975,65.849 C322.427667,65.723 322.812667,65.5526667 323.13,65.338 C323.447333,65.1233333 323.692333,64.8666667 323.865,64.568 C324.037667,64.2693333 324.124,63.952 324.124,63.616 C324.124,63.0186667 323.911667,62.587 323.487,62.321 C323.062333,62.055 322.434667,61.922 321.604,61.922 L321.604,61.922 L320.386,61.922 C319.966,61.922 319.674333,61.866 319.511,61.754 C319.347667,61.642 319.266,61.488 319.266,61.292 C319.266,61.1333333 319.296333,61.0073333 319.357,60.914 C319.417667,60.8206667 319.499333,60.7273333 319.602,60.634 C319.760667,60.6993333 319.919333,60.746 320.078,60.774 C320.236667,60.802 320.390667,60.816 320.54,60.816 C320.904,60.816 321.244667,60.7646667 321.562,60.662 C321.879333,60.5593333 322.154667,60.41 322.388,60.214 C322.621333,60.018 322.805667,59.7753333 322.941,59.486 C323.076333,59.1966667 323.144,58.8606667 323.144,58.478 C323.144,58.2353333 323.106667,58.0136667 323.032,57.813 C322.957333,57.6123333 322.864,57.4466667 322.752,57.316 L322.752,57.316 L324.012,57.316 L324.012,56.126 L321.548,56.126 C321.408,56.0793333 321.251667,56.0396667 321.079,56.007 C320.906333,55.9743333 320.726667,55.958 320.54,55.958 C320.176,55.958 319.830667,56.0116667 319.504,56.119 C319.177333,56.2263333 318.890333,56.385 318.643,56.595 C318.395667,56.805 318.197333,57.064 318.048,57.372 C317.898667,57.68 317.824,58.03 317.824,58.422 C317.824,58.8326667 317.915,59.1943333 318.097,59.507 C318.279,59.8196667 318.486667,60.0646667 318.72,60.242 L318.72,60.242 L318.72,60.298 C318.524,60.438 318.349,60.6176667 318.195,60.837 C318.041,61.0563333 317.964,61.3013333 317.964,61.572 C317.964,61.852 318.022333,62.0853333 318.139,62.272 C318.255667,62.4586667 318.402667,62.608 318.58,62.72 L318.58,62.72 L318.58,62.776 C318.262667,62.972 318.02,63.1936667 317.852,63.441 C317.684,63.6883333 317.6,63.9566667 317.6,64.246 C317.6,64.5446667 317.672333,64.806 317.817,65.03 C317.961667,65.254 318.16,65.4406667 318.412,65.59 C318.664,65.7393333 318.965,65.8513333 319.315,65.926 C319.665,66.0006667 320.045333,66.038 320.456,66.038 Z M320.54,59.808 C320.204,59.808 319.919333,59.689 319.686,59.451 C319.452667,59.213 319.336,58.87 319.336,58.422 C319.336,57.9833333 319.452667,57.6473333 319.686,57.414 C319.919333,57.1806667 320.204,57.064 320.54,57.064 C320.876,57.064 321.158333,57.183 321.387,57.421 C321.615667,57.659 321.73,57.9926667 321.73,58.422 C321.73,58.87 321.613333,59.213 321.38,59.451 C321.146667,59.689 320.866667,59.808 320.54,59.808 Z M320.708,64.988 C320.157333,64.988 319.725667,64.9016667 319.413,64.729 C319.100333,64.5563333 318.944,64.316 318.944,64.008 C318.944,63.672 319.121333,63.3686667 319.476,63.098 C319.728,63.1633333 320.040667,63.196 320.414,63.196 L320.414,63.196 L321.352,63.196 C321.744,63.196 322.045,63.2426667 322.255,63.336 C322.465,63.4293333 322.57,63.6113333 322.57,63.882 C322.57,64.1806667 322.399667,64.4396667 322.059,64.659 C321.718333,64.8783333 321.268,64.988 320.708,64.988 Z M326.756,63.168 C327.166667,63.168 327.547,63.0793333 327.897,62.902 C328.247,62.7246667 328.576,62.5053333 328.884,62.244 L328.884,62.244 L328.94,62.244 L329.052,63 L330.382,63 L330.382,58.926 C330.382,57.9646667 330.169667,57.2296667 329.745,56.721 C329.320333,56.2123333 328.678667,55.958 327.82,55.958 C327.269333,55.958 326.756,56.0466667 326.28,56.224 C325.804,56.4013333 325.374667,56.6113333 324.992,56.854 L324.992,56.854 L325.58,57.932 C325.888,57.7453333 326.203,57.5866667 326.525,57.456 C326.847,57.3253333 327.176,57.26 327.512,57.26 C327.745333,57.26 327.941333,57.295 328.1,57.365 C328.258667,57.435 328.387,57.533 328.485,57.659 C328.583,57.785 328.653,57.9296667 328.695,58.093 C328.737,58.2563333 328.762667,58.4266667 328.772,58.604 C328.062667,58.6786667 327.453667,58.786 326.945,58.926 C326.436333,59.066 326.016333,59.2386667 325.685,59.444 C325.353667,59.6493333 325.111,59.8943333 324.957,60.179 C324.803,60.4636667 324.726,60.788 324.726,61.152 C324.726,61.7586667 324.912667,62.2463333 325.286,62.615 C325.659333,62.9836667 326.149333,63.168 326.756,63.168 Z M327.274,61.908 C326.984667,61.908 326.746667,61.838 326.56,61.698 C326.373333,61.558 326.28,61.334 326.28,61.026 C326.28,60.858 326.322,60.6993333 326.406,60.55 C326.49,60.4006667 326.63,60.2676667 326.826,60.151 C327.022,60.0343333 327.278667,59.9293333 327.596,59.836 C327.913333,59.7426667 328.305333,59.668 328.772,59.612 L328.772,59.612 L328.772,61.152 C328.510667,61.3946667 328.265667,61.5813333 328.037,61.712 C327.808333,61.8426667 327.554,61.908 327.274,61.908 Z M334.512,63.168 C334.782667,63.168 335.037,63.1423333 335.275,63.091 C335.513,63.0396667 335.725333,62.9813333 335.912,62.916 L335.912,62.916 L335.632,61.726 C335.529333,61.7726667 335.415,61.81 335.289,61.838 C335.163,61.866 335.039333,61.88 334.918,61.88 C334.274,61.88 333.952,61.4786667 333.952,60.676 L333.952,60.676 L333.952,57.4 L335.702,57.4 L335.702,56.126 L333.952,56.126 L333.952,54.25 L332.608,54.25 L332.412,56.126 L331.348,56.196 L331.348,57.4 L332.328,57.4 L332.328,60.676 C332.328,61.0493333 332.367667,61.3876667 332.447,61.691 C332.526333,61.9943333 332.652333,62.2556667 332.825,62.475 C332.997667,62.6943333 333.221667,62.8646667 333.497,62.986 C333.772333,63.1073333 334.110667,63.168 334.512,63.168 Z M339.86,63.168 C340.298667,63.168 340.718667,63.098 341.12,62.958 C341.521333,62.818 341.885333,62.6406667 342.212,62.426 L342.212,62.426 L341.666,61.418 C341.414,61.5766667 341.159667,61.7003333 340.903,61.789 C340.646333,61.8776667 340.368667,61.922 340.07,61.922 C339.51,61.922 339.050333,61.7563333 338.691,61.425 C338.331667,61.0936667 338.114667,60.62 338.04,60.004 L338.04,60.004 L342.408,60.004 C342.426667,59.92 342.443,59.808 342.457,59.668 C342.471,59.528 342.478,59.3786667 342.478,59.22 C342.478,58.744 342.417333,58.3053333 342.296,57.904 C342.174667,57.5026667 341.995,57.1573333 341.757,56.868 C341.519,56.5786667 341.222667,56.3546667 340.868,56.196 C340.513333,56.0373333 340.102667,55.958 339.636,55.958 C339.234667,55.958 338.842667,56.042 338.46,56.21 C338.077333,56.378 337.739,56.616 337.445,56.924 C337.151,57.232 336.915333,57.61 336.738,58.058 C336.560667,58.506 336.472,59.01 336.472,59.57 C336.472,60.1393333 336.558333,60.6456667 336.731,61.089 C336.903667,61.5323333 337.144,61.908 337.452,62.216 C337.76,62.524 338.119333,62.7596667 338.53,62.923 C338.940667,63.0863333 339.384,63.168 339.86,63.168 Z M341.078,58.912 L338.026,58.912 C338.100667,58.352 338.292,57.9273333 338.6,57.638 C338.908,57.3486667 339.267333,57.204 339.678,57.204 C340.154,57.204 340.506333,57.3556667 340.735,57.659 C340.963667,57.9623333 341.078,58.38 341.078,58.912 L341.078,58.912 Z M346.426,63.168 C346.799333,63.168 347.154,63.0793333 347.49,62.902 C347.826,62.7246667 348.12,62.51 348.372,62.258 L348.372,62.258 L348.428,62.258 L348.54,63 L349.87,63 L349.87,53.116 L348.26,53.116 L348.26,55.608 L348.316,56.714 C348.045333,56.4806667 347.774667,56.2963333 347.504,56.161 C347.233333,56.0256667 346.902,55.958 346.51,55.958 C346.136667,55.958 345.775,56.042 345.425,56.21 C345.075,56.378 344.764667,56.616 344.494,56.924 C344.223333,57.232 344.006333,57.61 343.843,58.058 C343.679667,58.506 343.598,59.01 343.598,59.57 C343.598,60.7086667 343.852333,61.593 344.361,62.223 C344.869667,62.853 345.558,63.168 346.426,63.168 Z M346.818,61.838 C346.314,61.838 345.929,61.6443333 345.663,61.257 C345.397,60.8696667 345.264,60.3026667 345.264,59.556 C345.264,58.828 345.418,58.268 345.726,57.876 C346.034,57.484 346.412,57.288 346.86,57.288 C347.093333,57.288 347.324333,57.33 347.553,57.414 C347.781667,57.498 348.017333,57.6473333 348.26,57.862 L348.26,57.862 L348.26,61.068 C347.812,61.5813333 347.331333,61.838 346.818,61.838 Z M280.948,82.54 L280.948,81.126 C281.62,81.0326667 282.149667,80.7713333 282.537,80.342 C282.924333,79.9126667 283.118,79.362 283.118,78.69 C283.118,78.186 283.022333,77.773 282.831,77.451 C282.639667,77.129 282.399333,76.8583333 282.11,76.639 C281.820667,76.4196667 281.505667,76.233 281.165,76.079 C280.824333,75.925 280.509333,75.7663333 280.22,75.603 C279.930667,75.4396667 279.690333,75.2506667 279.499,75.036 C279.307667,74.8213333 279.212,74.546 279.212,74.21 C279.212,73.7993333 279.338,73.4726667 279.59,73.23 C279.842,72.9873333 280.182667,72.866 280.612,72.866 C280.994667,72.866 281.309667,72.936 281.557,73.076 C281.804333,73.216 282.058667,73.412 282.32,73.664 L282.32,73.664 L282.936,72.978 C282.684,72.7073333 282.401667,72.474 282.089,72.278 C281.776333,72.082 281.396,71.9606667 280.948,71.914 L280.948,71.914 L280.948,70.528 L280.108,70.528 L280.108,71.942 C279.492,72.0353333 278.999667,72.2896667 278.631,72.705 C278.262333,73.1203333 278.078,73.6406667 278.078,74.266 C278.078,74.7233333 278.173667,75.099 278.365,75.393 C278.556333,75.687 278.796667,75.9366667 279.086,76.142 C279.375333,76.3473333 279.690333,76.5293333 280.031,76.688 C280.371667,76.8466667 280.686667,77.017 280.976,77.199 C281.265333,77.381 281.505667,77.5956667 281.697,77.843 C281.888333,78.0903333 281.984,78.4006667 281.984,78.774 C281.984,79.2126667 281.855667,79.5626667 281.599,79.824 C281.342333,80.0853333 280.952667,80.216 280.43,80.216 C280.000667,80.216 279.606333,80.125 279.247,79.943 C278.887667,79.761 278.558667,79.5393333 278.26,79.278 L278.26,79.278 L277.728,80.076 C278.026667,80.3466667 278.386,80.5823333 278.806,80.783 C279.226,80.9836667 279.66,81.1073333 280.108,81.154 L280.108,81.154 L280.108,82.54 L280.948,82.54 Z M287.234,81.168 C287.626,81.168 288.001667,81.1003333 288.361,80.965 C288.720333,80.8296667 289.04,80.6336667 289.32,80.377 C289.6,80.1203333 289.824,79.8053333 289.992,79.432 C290.16,79.0586667 290.244,78.6293333 290.244,78.144 C290.244,77.6586667 290.171667,77.241 290.027,76.891 C289.882333,76.541 289.684,76.2516667 289.432,76.023 C289.18,75.7943333 288.886,75.624 288.55,75.512 C288.214,75.4 287.854667,75.344 287.472,75.344 C287.201333,75.344 286.958667,75.3766667 286.744,75.442 C286.529333,75.5073333 286.314667,75.596 286.1,75.708 L286.1,75.708 L286.338,73.062 L289.796,73.062 L289.796,72.068 L285.33,72.068 L285.036,76.366 L285.652,76.758 C285.922667,76.5806667 286.167667,76.4453333 286.387,76.352 C286.606333,76.2586667 286.87,76.212 287.178,76.212 C287.756667,76.212 288.218667,76.3846667 288.564,76.73 C288.909333,77.0753333 289.082,77.556 289.082,78.172 C289.082,78.48 289.030667,78.76 288.928,79.012 C288.825333,79.264 288.685333,79.4786667 288.508,79.656 C288.330667,79.8333333 288.123,79.971 287.885,80.069 C287.647,80.167 287.392667,80.216 287.122,80.216 C286.599333,80.216 286.158333,80.1133333 285.799,79.908 C285.439667,79.7026667 285.129333,79.4646667 284.868,79.194 L284.868,79.194 L284.308,79.95 C284.457333,80.1086667 284.627667,80.2603333 284.819,80.405 C285.010333,80.5496667 285.225,80.678 285.463,80.79 C285.701,80.902 285.967,80.993 286.261,81.063 C286.555,81.133 286.879333,81.168 287.234,81.168 Z M294.192,81.168 C294.584,81.168 294.959667,81.1003333 295.319,80.965 C295.678333,80.8296667 295.998,80.6336667 296.278,80.377 C296.558,80.1203333 296.782,79.8053333 296.95,79.432 C297.118,79.0586667 297.202,78.6293333 297.202,78.144 C297.202,77.6586667 297.129667,77.241 296.985,76.891 C296.840333,76.541 296.642,76.2516667 296.39,76.023 C296.138,75.7943333 295.844,75.624 295.508,75.512 C295.172,75.4 294.812667,75.344 294.43,75.344 C294.159333,75.344 293.916667,75.3766667 293.702,75.442 C293.487333,75.5073333 293.272667,75.596 293.058,75.708 L293.058,75.708 L293.296,73.062 L296.754,73.062 L296.754,72.068 L292.288,72.068 L291.994,76.366 L292.61,76.758 C292.880667,76.5806667 293.125667,76.4453333 293.345,76.352 C293.564333,76.2586667 293.828,76.212 294.136,76.212 C294.714667,76.212 295.176667,76.3846667 295.522,76.73 C295.867333,77.0753333 296.04,77.556 296.04,78.172 C296.04,78.48 295.988667,78.76 295.886,79.012 C295.783333,79.264 295.643333,79.4786667 295.466,79.656 C295.288667,79.8333333 295.081,79.971 294.843,80.069 C294.605,80.167 294.350667,80.216 294.08,80.216 C293.557333,80.216 293.116333,80.1133333 292.757,79.908 C292.397667,79.7026667 292.087333,79.4646667 291.826,79.194 L291.826,79.194 L291.266,79.95 C291.415333,80.1086667 291.585667,80.2603333 291.777,80.405 C291.968333,80.5496667 292.183,80.678 292.421,80.79 C292.659,80.902 292.925,80.993 293.219,81.063 C293.513,81.133 293.837333,81.168 294.192,81.168 Z M301.178,81.168 C301.588667,81.168 301.971333,81.1096667 302.326,80.993 C302.680667,80.8763333 302.991,80.7083333 303.257,80.489 C303.523,80.2696667 303.733,80.0013333 303.887,79.684 C304.041,79.3666667 304.118,79.012 304.118,78.62 C304.118,78.312 304.069,78.032 303.971,77.78 C303.873,77.528 303.735333,77.3063333 303.558,77.115 C303.380667,76.9236667 303.175333,76.765 302.942,76.639 C302.708667,76.513 302.456667,76.4173333 302.186,76.352 L302.186,76.352 L302.186,76.296 C302.671333,76.1093333 303.063333,75.8433333 303.362,75.498 C303.660667,75.1526667 303.81,74.7093333 303.81,74.168 C303.81,73.804 303.744667,73.482 303.614,73.202 C303.483333,72.922 303.299,72.6863333 303.061,72.495 C302.823,72.3036667 302.540667,72.1566667 302.214,72.054 C301.887333,71.9513333 301.528,71.9 301.136,71.9 C300.604,71.9 300.130333,72.005 299.715,72.215 C299.299667,72.425 298.919333,72.6933333 298.574,73.02 L298.574,73.02 L299.19,73.748 C299.460667,73.4773333 299.752333,73.258 300.065,73.09 C300.377667,72.922 300.720667,72.838 301.094,72.838 C301.57,72.838 301.945667,72.964 302.221,73.216 C302.496333,73.468 302.634,73.8133333 302.634,74.252 C302.634,74.4853333 302.592,74.7046667 302.508,74.91 C302.424,75.1153333 302.281667,75.2926667 302.081,75.442 C301.880333,75.5913333 301.619,75.708 301.297,75.792 C300.975,75.876 300.576,75.918 300.1,75.918 L300.1,75.918 L300.1,76.8 C300.632,76.8 301.08,76.842 301.444,76.926 C301.808,77.01 302.102,77.1313333 302.326,77.29 C302.55,77.4486667 302.711,77.6376667 302.809,77.857 C302.907,78.0763333 302.956,78.3166667 302.956,78.578 C302.956,79.082 302.783333,79.481 302.438,79.775 C302.092667,80.069 301.649333,80.216 301.108,80.216 C300.576,80.216 300.130333,80.1086667 299.771,79.894 C299.411667,79.6793333 299.096667,79.432 298.826,79.152 L298.826,79.152 L298.238,79.908 C298.387333,80.076 298.557667,80.2346667 298.749,80.384 C298.940333,80.5333333 299.157333,80.6663333 299.4,80.783 C299.642667,80.8996667 299.911,80.993 300.205,81.063 C300.499,81.133 300.823333,81.168 301.178,81.168 Z M309.018,81 C309.531333,81 310.002667,80.944 310.432,80.832 C310.861333,80.72 311.23,80.552 311.538,80.328 C311.846,80.104 312.084,79.824 312.252,79.488 C312.42,79.152 312.504,78.76 312.504,78.312 C312.504,77.6773333 312.331333,77.178 311.986,76.814 C311.640667,76.45 311.188,76.2166667 310.628,76.114 L310.628,76.114 L310.628,76.058 C311.066667,75.918 311.400333,75.6636667 311.629,75.295 C311.857667,74.9263333 311.972,74.5133333 311.972,74.056 C311.972,73.6546667 311.895,73.3116667 311.741,73.027 C311.587,72.7423333 311.372333,72.5113333 311.097,72.334 C310.821667,72.1566667 310.490333,72.026 310.103,71.942 C309.715667,71.858 309.288667,71.816 308.822,71.816 L308.822,71.816 L306.092,71.816 L306.092,81 L309.018,81 Z M308.612,75.722 L307.254,75.722 L307.254,72.74 L308.668,72.74 C309.386667,72.74 309.925667,72.852 310.285,73.076 C310.644333,73.3 310.824,73.678 310.824,74.21 C310.824,74.6766667 310.651333,75.0453333 310.306,75.316 C309.960667,75.5866667 309.396,75.722 308.612,75.722 L308.612,75.722 Z M308.85,80.076 L307.254,80.076 L307.254,76.618 L308.85,76.618 C309.662,76.618 310.282667,76.751 310.712,77.017 C311.141333,77.283 311.356,77.7006667 311.356,78.27 C311.356,78.886 311.136667,79.341 310.698,79.635 C310.259333,79.929 309.643333,80.076 308.85,80.076 L308.85,80.076 Z" id="Unobligated$553B" fill="#666666" fill-rule="nonzero"></path>
                <path d="M147,30 L147,34.6176471 C147,35.7222166 146.104569,36.6176471 145,36.6176471 L79,36.6176471 C77.8954305,36.6176471 77,37.5130776 77,38.6176471 L77,45 L77,45" id="Line-Copy-7" stroke="#C6C6C6" stroke-linecap="round" transform="translate(112.000000, 37.500000) scale(-1, 1) translate(-112.000000, -37.500000) "></path>
                <path d="M301,30 L301,34.6176471 C301,35.7222166 300.104569,36.6176471 299,36.6176471 L170,36.6176471 C168.895431,36.6176471 168,37.5130776 168,38.6176471 L168,45 L168,45" id="Line-Copy-8" stroke="#C6C6C6" stroke-linecap="round" transform="translate(234.500000, 37.500000) scale(-1, 1) translate(-234.500000, -37.500000) "></path>
                <line x1="4" y1="30" x2="4" y2="45" id="Line" stroke="#C6C6C6"></line>
                <rect id="unobligated" fill="#F3E9FF" x="79" y="0" width="127" height="30"></rect>
                <rect id="obligated" fill="#6F41A7" x="75" y="0" width="4" height="30"></rect>
                <rect id="outlays" fill="#331E4D" x="-1.13686838e-13" y="0" width="75" height="30"></rect>
                <path d="M220.368,21.54 L220.368,20.084 C221.096,19.9253333 221.642,19.6056667 222.006,19.125 C222.37,18.6443333 222.552,18.068 222.552,17.396 C222.552,16.948 222.461,16.5723333 222.279,16.269 C222.097,15.9656667 221.868333,15.7066667 221.593,15.492 C221.317667,15.2773333 221.021333,15.0953333 220.704,14.946 C220.386667,14.7966667 220.090333,14.652 219.815,14.512 C219.539667,14.372 219.311,14.225 219.129,14.071 C218.947,13.917 218.856,13.728 218.856,13.504 C218.856,13.1866667 218.944667,12.958 219.122,12.818 C219.299333,12.678 219.556,12.608 219.892,12.608 C220.190667,12.608 220.456667,12.6663333 220.69,12.783 C220.923333,12.8996667 221.166,13.0746667 221.418,13.308 L221.418,13.308 L222.454,12.132 C222.183333,11.8426667 221.88,11.5953333 221.544,11.39 C221.208,11.1846667 220.816,11.0493333 220.368,10.984 L220.368,10.984 L220.368,9.57 L219.01,9.57 L219.01,11.012 C218.347333,11.1426667 217.827,11.4343333 217.449,11.887 C217.071,12.3396667 216.882,12.9113333 216.882,13.602 C216.882,14.022 216.973,14.3766667 217.155,14.666 C217.337,14.9553333 217.565667,15.2073333 217.841,15.422 C218.116333,15.6366667 218.412667,15.821 218.73,15.975 C219.047333,16.129 219.343667,16.283 219.619,16.437 C219.894333,16.591 220.123,16.752 220.305,16.92 C220.487,17.088 220.578,17.2933333 220.578,17.536 C220.578,17.8626667 220.487,18.1053333 220.305,18.264 C220.123,18.4226667 219.836,18.502 219.444,18.502 C219.108,18.502 218.779,18.4343333 218.457,18.299 C218.135,18.1636667 217.796667,17.9606667 217.442,17.69 L217.442,17.69 L216.546,19.076 C216.872667,19.3746667 217.262333,19.615 217.715,19.797 C218.167667,19.979 218.599333,20.0933333 219.01,20.14 L219.01,20.14 L219.01,21.54 L220.368,21.54 Z M227.074,20.168 C227.55,20.168 227.981667,20.105 228.369,19.979 C228.756333,19.853 229.087667,19.6803333 229.363,19.461 C229.638333,19.2416667 229.850667,18.9826667 230,18.684 C230.149333,18.3853333 230.224,18.0586667 230.224,17.704 C230.224,17.116 230.074667,16.64 229.776,16.276 C229.477333,15.912 229.113333,15.6133333 228.684,15.38 L228.684,15.38 L228.684,15.324 C228.992,15.1186667 229.262667,14.8503333 229.496,14.519 C229.729333,14.1876667 229.846,13.8073333 229.846,13.378 C229.846,13.014 229.780667,12.6803333 229.65,12.377 C229.519333,12.0736667 229.337333,11.817 229.104,11.607 C228.870667,11.397 228.586,11.2336667 228.25,11.117 C227.914,11.0003333 227.545333,10.942 227.144,10.942 C226.733333,10.942 226.353,10.998 226.003,11.11 C225.653,11.222 225.352,11.3853333 225.1,11.6 C224.848,11.8146667 224.652,12.0736667 224.512,12.377 C224.372,12.6803333 224.302,13.0186667 224.302,13.392 C224.302,13.868 224.414,14.2716667 224.638,14.603 C224.862,14.9343333 225.146667,15.2306667 225.492,15.492 L225.492,15.492 L225.492,15.548 C225.072,15.772 224.715,16.0566667 224.421,16.402 C224.127,16.7473333 223.98,17.1906667 223.98,17.732 C223.98,18.096 224.057,18.4273333 224.211,18.726 C224.365,19.0246667 224.579667,19.2813333 224.855,19.496 C225.130333,19.7106667 225.457,19.8763333 225.835,19.993 C226.213,20.1096667 226.626,20.168 227.074,20.168 Z M227.634,14.82 C227.176667,14.6426667 226.808,14.4513333 226.528,14.246 C226.248,14.0406667 226.108,13.756 226.108,13.392 C226.108,13.0466667 226.206,12.79 226.402,12.622 C226.598,12.454 226.831333,12.37 227.102,12.37 C227.438,12.37 227.701667,12.475 227.893,12.685 C228.084333,12.895 228.18,13.1726667 228.18,13.518 C228.18,13.966 227.998,14.4 227.634,14.82 Z M227.116,18.74 C226.742667,18.74 226.420667,18.6303333 226.15,18.411 C225.879333,18.1916667 225.744,17.886 225.744,17.494 C225.744,17.2233333 225.809333,16.9666667 225.94,16.724 C226.070667,16.4813333 226.234,16.2666667 226.43,16.08 C226.71,16.2013333 226.964333,16.3133333 227.193,16.416 C227.421667,16.5186667 227.62,16.6283333 227.788,16.745 C227.956,16.8616667 228.084333,16.99 228.173,17.13 C228.261667,17.27 228.306,17.438 228.306,17.634 C228.306,18.0073333 228.194,18.285 227.97,18.467 C227.746,18.649 227.461333,18.74 227.116,18.74 Z M233.99,20.168 C234.456667,20.168 234.907,20.0723333 235.341,19.881 C235.775,19.6896667 236.157667,19.398 236.489,19.006 C236.820333,18.614 237.086333,18.1146667 237.287,17.508 C237.487667,16.9013333 237.588,16.1826667 237.588,15.352 C237.588,14.568 237.492333,13.8983333 237.301,13.343 C237.109667,12.7876667 236.857667,12.3326667 236.545,11.978 C236.232333,11.6233333 235.873,11.362 235.467,11.194 C235.061,11.026 234.643333,10.942 234.214,10.942 C233.812667,10.942 233.432333,11.0096667 233.073,11.145 C232.713667,11.2803333 232.401,11.4786667 232.135,11.74 C231.869,12.0013333 231.656667,12.3163333 231.498,12.685 C231.339333,13.0536667 231.26,13.4666667 231.26,13.924 C231.26,14.3906667 231.327667,14.7966667 231.463,15.142 C231.598333,15.4873333 231.782667,15.772 232.016,15.996 C232.249333,16.22 232.527,16.388 232.849,16.5 C233.171,16.612 233.523333,16.668 233.906,16.668 C234.046,16.668 234.195333,16.647 234.354,16.605 C234.512667,16.563 234.671333,16.5023333 234.83,16.423 C234.988667,16.3436667 235.142667,16.2456667 235.292,16.129 C235.441333,16.0123333 235.572,15.8793333 235.684,15.73 C235.665333,16.2526667 235.607,16.689 235.509,17.039 C235.411,17.389 235.280333,17.6736667 235.117,17.893 C234.953667,18.1123333 234.764667,18.2686667 234.55,18.362 C234.335333,18.4553333 234.102,18.502 233.85,18.502 C233.588667,18.502 233.332,18.439 233.08,18.313 C232.828,18.187 232.627333,18.04 232.478,17.872 L232.478,17.872 L231.386,19.104 C231.666,19.384 232.023,19.6313333 232.457,19.846 C232.891,20.0606667 233.402,20.168 233.99,20.168 Z M234.312,15.212 C233.976,15.212 233.696,15.1163333 233.472,14.925 C233.248,14.7336667 233.136,14.4 233.136,13.924 C233.136,13.42 233.248,13.0536667 233.472,12.825 C233.696,12.5963333 233.957333,12.482 234.256,12.482 C234.573333,12.482 234.860333,12.615 235.117,12.881 C235.373667,13.147 235.548667,13.63 235.642,14.33 C235.464667,14.6473333 235.257,14.8736667 235.019,15.009 C234.781,15.1443333 234.545333,15.212 234.312,15.212 Z M241.858,20.168 C242.334,20.168 242.765667,20.105 243.153,19.979 C243.540333,19.853 243.871667,19.6803333 244.147,19.461 C244.422333,19.2416667 244.634667,18.9826667 244.784,18.684 C244.933333,18.3853333 245.008,18.0586667 245.008,17.704 C245.008,17.116 244.858667,16.64 244.56,16.276 C244.261333,15.912 243.897333,15.6133333 243.468,15.38 L243.468,15.38 L243.468,15.324 C243.776,15.1186667 244.046667,14.8503333 244.28,14.519 C244.513333,14.1876667 244.63,13.8073333 244.63,13.378 C244.63,13.014 244.564667,12.6803333 244.434,12.377 C244.303333,12.0736667 244.121333,11.817 243.888,11.607 C243.654667,11.397 243.37,11.2336667 243.034,11.117 C242.698,11.0003333 242.329333,10.942 241.928,10.942 C241.517333,10.942 241.137,10.998 240.787,11.11 C240.437,11.222 240.136,11.3853333 239.884,11.6 C239.632,11.8146667 239.436,12.0736667 239.296,12.377 C239.156,12.6803333 239.086,13.0186667 239.086,13.392 C239.086,13.868 239.198,14.2716667 239.422,14.603 C239.646,14.9343333 239.930667,15.2306667 240.276,15.492 L240.276,15.492 L240.276,15.548 C239.856,15.772 239.499,16.0566667 239.205,16.402 C238.911,16.7473333 238.764,17.1906667 238.764,17.732 C238.764,18.096 238.841,18.4273333 238.995,18.726 C239.149,19.0246667 239.363667,19.2813333 239.639,19.496 C239.914333,19.7106667 240.241,19.8763333 240.619,19.993 C240.997,20.1096667 241.41,20.168 241.858,20.168 Z M242.418,14.82 C241.960667,14.6426667 241.592,14.4513333 241.312,14.246 C241.032,14.0406667 240.892,13.756 240.892,13.392 C240.892,13.0466667 240.99,12.79 241.186,12.622 C241.382,12.454 241.615333,12.37 241.886,12.37 C242.222,12.37 242.485667,12.475 242.677,12.685 C242.868333,12.895 242.964,13.1726667 242.964,13.518 C242.964,13.966 242.782,14.4 242.418,14.82 Z M241.9,18.74 C241.526667,18.74 241.204667,18.6303333 240.934,18.411 C240.663333,18.1916667 240.528,17.886 240.528,17.494 C240.528,17.2233333 240.593333,16.9666667 240.724,16.724 C240.854667,16.4813333 241.018,16.2666667 241.214,16.08 C241.494,16.2013333 241.748333,16.3133333 241.977,16.416 C242.205667,16.5186667 242.404,16.6283333 242.572,16.745 C242.74,16.8616667 242.868333,16.99 242.957,17.13 C243.045667,17.27 243.09,17.438 243.09,17.634 C243.09,18.0073333 242.978,18.285 242.754,18.467 C242.53,18.649 242.245333,18.74 241.9,18.74 Z M250.034,20 C250.528667,20 250.990667,19.9463333 251.42,19.839 C251.849333,19.7316667 252.225,19.5683333 252.547,19.349 C252.869,19.1296667 253.121,18.852 253.303,18.516 C253.485,18.18 253.576,17.7786667 253.576,17.312 C253.576,17.004 253.534,16.731 253.45,16.493 C253.366,16.255 253.249333,16.0473333 253.1,15.87 C252.950667,15.6926667 252.778,15.5456667 252.582,15.429 C252.386,15.3123333 252.171333,15.226 251.938,15.17 L251.938,15.17 L251.938,15.114 C252.124667,15.0486667 252.290333,14.946 252.435,14.806 C252.579667,14.666 252.703333,14.5073333 252.806,14.33 C252.908667,14.1526667 252.988,13.9613333 253.044,13.756 C253.1,13.5506667 253.128,13.3453333 253.128,13.14 C253.128,12.7013333 253.041667,12.3373333 252.869,12.048 C252.696333,11.7586667 252.458333,11.5253333 252.155,11.348 C251.851667,11.1706667 251.497,11.047 251.091,10.977 C250.685,10.907 250.244,10.872 249.768,10.872 L249.768,10.872 L246.646,10.872 L246.646,20 L250.034,20 Z M249.67,14.526 L248.704,14.526 L248.704,12.468 L249.684,12.468 C250.169333,12.468 250.528667,12.5426667 250.762,12.692 C250.995333,12.8413333 251.112,13.0933333 251.112,13.448 C251.112,13.7746667 250.997667,14.036 250.769,14.232 C250.540333,14.428 250.174,14.526 249.67,14.526 L249.67,14.526 Z M249.866,18.404 L248.704,18.404 L248.704,16.052 L249.866,16.052 C250.435333,16.052 250.86,16.1383333 251.14,16.311 C251.42,16.4836667 251.56,16.7706667 251.56,17.172 C251.56,17.9933333 250.995333,18.404 249.866,18.404 L249.866,18.404 Z" id="$898B" fill="#555555" fill-rule="nonzero"></path>
            </g>
        </g>
    </g>
</svg>