<?xml version="1.0" encoding="UTF-8"?>
<svg width="151px" height="23px" viewBox="0 0 151 23" version="1.1" xmlns="http://www.w3.org/2000/svg" xmlns:xlink="http://www.w3.org/1999/xlink">
    <desc>Fiscal Data Home</desc>
    <g id="Powered-By-Fiscal-Data" stroke="none" stroke-width="1" fill="none" fill-rule="evenodd">
        <g id="FD-Desktop" transform="translate(-246.000000, -1194.000000)">
            <g id="Group-7" transform="translate(246.000000, 1194.000000)">
                <g id="Group-2">
                    <g id="Group-2-Copy" transform="translate(69.000000, 0.000000)">
                        <polygon id="Fill-1" fill="#122B4E" points="28.8514685 11.8671992 25.6848702 11.8671992 25.6848702 15.1384591 24.0352161 15.1384591 24.0352161 7.13327366 29.2475206 7.13327366 29.2475206 8.46946231 25.6848702 8.46946231 25.6848702 10.5367241 28.8514685 10.5367241"></polygon>
                        <path d="M30.7448569,15.1384072 L32.3394533,15.1384072 L32.3394533,9.18983551 L30.7448569,9.18983551 L30.7448569,15.1384072 Z M30.6516224,7.65029686 C30.6516224,7.41188652 30.7310925,7.21606801 30.8905521,7.0618025 C31.0500118,6.9080564 31.2671262,6.83092364 31.5421551,6.83092364 C31.8132884,6.83092364 32.0296238,6.9080564 32.1909013,7.0618025 C32.3519192,7.21606801 32.4326879,7.41188652 32.4326879,7.65029686 C32.4326879,7.89208338 32.3511401,8.09023925 32.1880446,8.24398535 C32.024949,8.39799115 31.8096526,8.4748642 31.5421551,8.4748642 C31.2746577,8.4748642 31.0591015,8.39799115 30.8962657,8.24398535 C30.7329104,8.09023925 30.6516224,7.89208338 30.6516224,7.65029686 L30.6516224,7.65029686 Z" id="Fill-2" fill="#122B4E"></path>
                        <path d="M37.4325526,13.4946744 C37.4325526,13.3004141 37.3364613,13.1474471 37.1440189,13.0355137 C36.9513169,12.9235803 36.6425262,12.8238531 36.217387,12.7360724 C34.8025074,12.4392282 34.0950676,11.8380082 34.0950676,10.9326722 C34.0950676,10.4046894 34.3142596,9.9639679 34.7521244,9.61024799 C35.1902488,9.25652807 35.7629011,9.07966812 36.4700812,9.07966812 C37.225307,9.07966812 37.829124,9.25782661 38.2820517,9.61310476 C38.7347197,9.96864261 38.9609239,10.4304003 38.9609239,10.9986376 L37.372041,10.9986376 C37.372041,10.7711349 37.2985442,10.583627 37.1520698,10.435075 C37.0053358,10.2862634 36.7765346,10.2122471 36.4648871,10.2122471 C36.1971299,10.2122471 35.9901441,10.2727586 35.8436697,10.3937817 C35.6969357,10.5148049 35.6236985,10.668551 35.6236985,10.8555395 C35.6236985,11.0316203 35.7070643,11.1736796 35.8737957,11.2817174 C36.0407868,11.3900149 36.3217889,11.4835092 36.7181007,11.5622002 C37.1136333,11.6408912 37.4470961,11.7297107 37.7187489,11.8289185 C38.5578598,12.1366704 38.9772854,12.6698473 38.9772854,13.428709 C38.9772854,13.9709756 38.7445886,14.4098792 38.279195,14.7454197 C37.8135416,15.0809601 37.2125814,15.248211 36.4760545,15.248211 C35.9771588,15.248211 35.5346193,15.1596511 35.1479167,14.9820121 C34.7612141,14.8041133 34.4581369,14.5605088 34.2381657,14.2506793 C34.0181945,13.9408497 33.9083388,13.6063481 33.9083388,13.247434 L35.414635,13.247434 C35.4294383,13.529475 35.5338402,13.7458103 35.7281005,13.8959205 C35.9223607,14.0462904 36.1825864,14.1213455 36.5087774,14.1213455 C36.8128935,14.1213455 37.0429932,14.0636908 37.198817,13.9481215 C37.3546407,13.8328119 37.4325526,13.6814032 37.4325526,13.4946744" id="Fill-4" fill="#122B4E"></path>
                        <path d="M43.0372732,13.9674436 C43.3307412,13.9674436 43.5688919,13.8869347 43.7519848,13.7253974 C43.9355971,13.5643795 44.0306496,13.3498622 44.038181,13.0823647 L45.5281158,13.0823647 C45.5244799,13.4856885 45.4141048,13.8544714 45.1982889,14.1900119 C44.9819536,14.5255524 44.6861481,14.785778 44.3100935,14.9709486 C43.9345583,15.1561191 43.519288,15.2483149 43.064802,15.2483149 C42.2145238,15.2483149 41.5437025,14.9784801 41.052598,14.4375119 C40.5614935,13.8968035 40.3158114,13.1501481 40.3158114,12.1972858 L40.3158114,12.0926242 C40.3158114,11.1763806 40.5596755,10.4450478 41.0471442,9.89888551 C41.5348725,9.35272327 42.2036161,9.079772 43.0538944,9.079772 C43.7979528,9.079772 44.3947577,9.29143259 44.8435301,9.71475378 C45.2925622,10.138075 45.520844,10.7013778 45.5281158,11.4054415 L44.038181,11.4054415 C44.0306496,11.0958716 43.9355971,10.844476 43.7519848,10.6507351 C43.5688919,10.4575137 43.3268456,10.3606432 43.0266252,10.3606432 C42.6560244,10.3606432 42.3768402,10.4956905 42.187774,10.7655253 C41.9992273,11.0351004 41.9049539,11.4732248 41.9049539,12.0786001 L41.9049539,12.244033 C41.9049539,12.8569397 41.9984482,13.2974015 42.185177,13.5656781 C42.3721655,13.8334352 42.6560244,13.9674436 43.0372732,13.9674436" id="Fill-5" fill="#122B4E"></path>
                        <path d="M49.1312543,14.0334869 C49.3657691,14.0334869 49.5821044,13.981286 49.7802603,13.8766243 C49.9781564,13.7722224 50.1246308,13.6319811 50.2199429,13.4561599 L50.2199429,12.4334367 L49.6262545,12.4334367 C48.8307742,12.4334367 48.407453,12.7084656 48.3562909,13.2582638 L48.3505774,13.351758 C48.3505774,13.5496542 48.4201786,13.7127497 48.5596409,13.8410446 C48.6985837,13.9690798 48.8892081,14.0334869 49.1312543,14.0334869 L49.1312543,14.0334869 Z M50.445368,15.138537 C50.3718711,14.9956986 50.318891,14.8177998 50.2859083,14.6051004 C49.9012834,15.0341351 49.4005697,15.2483928 48.7848062,15.2483928 C48.2020254,15.2483928 47.7192315,15.0801031 47.3364245,14.7427447 C46.953098,14.4053863 46.7616945,13.9802471 46.7616945,13.4673273 C46.7616945,12.8367605 46.9951704,12.3529278 47.4626417,12.0155694 C47.9298532,11.6784706 48.6056089,11.5081033 49.4888699,11.5042078 L50.2199429,11.5042078 L50.2199429,11.1634732 C50.2199429,10.8884442 50.1493028,10.668473 50.0082824,10.5035596 C49.8670022,10.3389058 49.6444339,10.2563192 49.3403179,10.2563192 C49.0725607,10.2563192 48.8627181,10.3204667 48.7107899,10.4487616 C48.5586021,10.5770564 48.4827678,10.7531373 48.4827678,10.9764847 L46.893885,10.9764847 C46.893885,10.6321142 46.9998452,10.3131949 47.2125446,10.0199865 C47.4249843,9.72677818 47.7257241,9.49667844 48.1142447,9.32968732 C48.5025055,9.16321562 48.938812,9.07959021 49.4226448,9.07959021 C50.1555358,9.07959021 50.7377972,9.26398164 51.1686499,9.63224511 C51.5989831,10.0007683 51.8142796,10.5183628 51.8142796,11.1852885 L51.8142796,13.7641715 C51.8179155,14.3285132 51.8966065,14.75573 52.050872,15.0450428 L52.050872,15.138537 L50.445368,15.138537 Z" id="Fill-6" fill="#122B4E"></path>
                        <polygon id="Fill-7" fill="#122B4E" points="53.6800353 15.1384072 55.2748914 15.1384072 55.2748914 6.69327933 53.6800353 6.69327933"></polygon>
                        <path d="M58.9001569,8.46946231 L58.9001569,13.8136975 L59.6969357,13.8136975 C60.3425654,13.8136975 60.8352281,13.6028161 61.1762225,13.1813128 C61.5169571,12.7598096 61.6912199,12.1567717 61.698232,11.3724588 L61.698232,10.9491376 C61.698232,10.1352182 61.5296827,9.51867556 61.1928437,9.09899026 C60.8554852,8.67930496 60.3625628,8.46946231 59.7138166,8.46946231 L58.9001569,8.46946231 Z M57.2505028,15.1384591 L57.2505028,7.13327366 L59.7138166,7.13327366 C60.4176205,7.13327366 61.0471484,7.29195418 61.6021407,7.60905551 C62.1576524,7.92615684 62.5911021,8.37674718 62.9027496,8.96160566 C63.2138777,9.54620443 63.3699611,10.210533 63.3699611,10.9545914 L63.3699611,11.3228549 C63.3699611,12.0669133 63.2167345,12.7283851 62.9108005,13.30753 C62.6048665,13.8869347 62.1734945,14.3357071 61.6161648,14.6546264 C61.0590949,14.9735456 60.4303461,15.1350829 59.7301781,15.1384591 L57.2505028,15.1384591 Z" id="Fill-8" fill="#122B4E"></path>
                        <path d="M67.160296,14.0334869 C67.3948107,14.0334869 67.611146,13.981286 67.8090422,13.8766243 C68.007198,13.7722224 68.1536724,13.6319811 68.2489846,13.4561599 L68.2489846,12.4334367 L67.6552961,12.4334367 C66.8598158,12.4334367 66.4364946,12.7084656 66.3853325,13.2582638 L66.3793593,13.351758 C66.3793593,13.5496542 66.4492202,13.7127497 66.5886825,13.8410446 C66.7276253,13.9690798 66.9182497,14.0334869 67.160296,14.0334869 L67.160296,14.0334869 Z M68.4744096,15.138537 C68.4009127,14.9956986 68.3479326,14.8177998 68.3149499,14.6051004 C67.9300653,15.0341351 67.4296113,15.2483928 66.8138478,15.2483928 C66.231067,15.2483928 65.7482731,15.0801031 65.3652064,14.7427447 C64.9821396,14.4053863 64.7904764,13.9802471 64.7904764,13.4673273 C64.7904764,12.8367605 65.0242121,12.3529278 65.4916833,12.0155694 C65.9588948,11.6784706 66.6346505,11.5081033 67.5176518,11.5042078 L68.2489846,11.5042078 L68.2489846,11.1634732 C68.2489846,10.8884442 68.1783445,10.668473 68.037324,10.5035596 C67.8960438,10.3389058 67.6734755,10.2563192 67.3693595,10.2563192 C67.1016023,10.2563192 66.8917597,10.3204667 66.7398315,10.4487616 C66.5876437,10.5770564 66.5115497,10.7531373 66.5115497,10.9764847 L64.9226669,10.9764847 C64.9226669,10.6321142 65.0288868,10.3131949 65.2415862,10.0199865 C65.4540259,9.72677818 65.7547657,9.49667844 66.1432863,9.32968732 C66.5315471,9.16321562 66.9678536,9.07959021 67.4516864,9.07959021 C68.1845774,9.07959021 68.7668388,9.26398164 69.1974318,9.63224511 C69.6280247,10.0007683 69.8433212,10.5183628 69.8433212,11.1852885 L69.8433212,13.7641715 C69.8469571,14.3285132 69.9256481,14.75573 70.0799136,15.0450428 L70.0799136,15.138537 L68.4744096,15.138537 Z" id="Fill-9" fill="#122B4E"></path>
                        <path d="M73.5291762,7.72724782 L73.5291762,9.18991342 L74.5461859,9.18991342 L74.5461859,10.3552154 L73.5291762,10.3552154 L73.5291762,13.3241772 C73.5291762,13.5441484 73.5709889,13.7015304 73.6556532,13.7971023 C73.739798,13.8924145 73.9013353,13.9399407 74.1394859,13.9399407 C74.315307,13.9399407 74.4711308,13.9274748 74.6066974,13.9012445 L74.6066974,15.1057621 C74.2950499,15.2005549 73.9745724,15.2483408 73.6447455,15.2483408 C72.530346,15.2483408 71.9623684,14.6860768 71.9402934,13.5605099 L71.9402934,10.3552154 L71.0713163,10.3552154 L71.0713163,9.18991342 L71.9402934,9.18991342 L71.9402934,7.72724782 L73.5291762,7.72724782 Z" id="Fill-10" fill="#122B4E"></path>
                        <path d="M78.127561,14.0334869 C78.3623355,14.0334869 78.5786708,13.981286 78.776567,13.8766243 C78.9744631,13.7722224 79.1209374,13.6319811 79.2162496,13.4561599 L79.2162496,12.4334367 L78.6225612,12.4334367 C77.8273406,12.4334367 77.4040194,12.7084656 77.3528573,13.2582638 L77.3468841,13.351758 C77.3468841,13.5496542 77.416745,13.7127497 77.5559476,13.8410446 C77.6951501,13.9690798 77.8855148,14.0334869 78.127561,14.0334869 L78.127561,14.0334869 Z M79.4419344,15.138537 C79.3684375,14.9956986 79.3151977,14.8177998 79.2824747,14.6051004 C78.8975901,15.0341351 78.3971361,15.2483928 77.7813726,15.2483928 C77.1985918,15.2483928 76.7155382,15.0801031 76.3327311,14.7427447 C75.9494047,14.4053863 75.7580012,13.9802471 75.7580012,13.4673273 C75.7580012,12.8367605 75.9917368,12.3529278 76.4589484,12.0155694 C76.9264196,11.6784706 77.6019156,11.5081033 78.4851765,11.5042078 L79.2162496,11.5042078 L79.2162496,11.1634732 C79.2162496,10.8884442 79.1458692,10.668473 79.004589,10.5035596 C78.8635686,10.3389058 78.6410003,10.2563192 78.3368843,10.2563192 C78.0691271,10.2563192 77.8592845,10.3204667 77.7070966,10.4487616 C77.5551685,10.5770564 77.4790745,10.7531373 77.4790745,10.9764847 L75.8901917,10.9764847 C75.8901917,10.6321142 75.9964116,10.3131949 76.2088513,10.0199865 C76.4215507,9.72677818 76.7222905,9.49667844 77.1108111,9.32968732 C77.4990719,9.16321562 77.9351187,9.07959021 78.4189515,9.07959021 C79.1521022,9.07959021 79.7341039,9.26398164 80.1649566,9.63224511 C80.5952898,10.0007683 80.810846,10.5183628 80.810846,11.1852885 L80.810846,13.7641715 C80.8144819,14.3285132 80.8929132,14.75573 81.0471787,15.0450428 L81.0471787,15.138537 L79.4419344,15.138537 Z" id="Fill-11" fill="#122B4E"></path>
                        <polygon id="Fill-12" fill="#EF3E32" points="4.70753937 16.2435352 6.15384348 15.4722076 6.01022592 15.389621 0.0001038825 11.9334502 0.0001038825 13.5368766 4.55535151 16.1565336"></polygon>
                        <path d="M2.23474631,12.0288923 C2.47809107,12.0288923 2.71494317,11.9005974 2.84193952,11.6725753 C3.02918773,11.3372945 2.90920344,10.9139734 2.57418238,10.7267252 L0.000233735625,9.28613459 L0.000233735625,10.8783936 L1.89634907,11.9405922 C2.00360775,12.0005843 2.11995615,12.0288923 2.23474631,12.0288923" id="Fill-13" fill="#EF3E32"></path>
                        <path d="M8.55290593,13.0253592 C8.66198256,13.0882081 8.78118772,13.1180743 8.89883466,13.1180743 C9.13932264,13.1180743 9.37357768,12.9928959 9.50187257,12.7692888 C9.61042978,12.5804824 9.61770156,12.3631083 9.54524351,12.1745615 C9.48992608,12.0306843 9.38993917,11.9031685 9.24580221,11.8203222 L8.61913102,11.4707576 L6.01012204,9.95589104 L-5.24025268e-14,6.49997997 L-5.24025268e-14,8.10314665 L4.55524762,10.7228036 L8.55290593,13.0253592 Z" id="Fill-14" fill="#EF3E32"></path>
                        <path d="M2.23474631,17.3683489 C2.47809107,17.3683489 2.71494317,17.2397943 2.84193952,17.0120319 C3.02918773,16.6767512 2.90920344,16.25343 2.57418238,16.0661818 L0.000233735625,14.6255912 L0.000233735625,16.2178502 L1.89634907,17.2800488 C2.00360775,17.3400409 2.11995615,17.3683489 2.23474631,17.3683489" id="Fill-15" fill="#EF3E32"></path>
                        <polygon id="Fill-16" fill="#EF3E32" points="0.0146734031 18.749285 0.00818074688 18.7529208 0.321126778 18.9282226"></polygon>
                        <polygon id="Fill-17" fill="#EF3E32" points="0.0140501081 18.7489214 0.0119724581 18.7478825 1.46424981 17.9731788 2.59706251e-05 17.1538056 2.59706251e-05 18.7460646 0.00963510188 18.7512587"></polygon>
                        <path d="M9.24008867,17.2527017 L8.61341749,16.9031371 L6.15036341,15.4721557 L4.70405931,16.2434832 L8.54719239,18.4577387 C8.65626902,18.5205876 8.77547419,18.5504538 8.89312112,18.5504538 C9.13360911,18.5504538 9.36760444,18.4252754 9.49615903,18.2016684 C9.60471624,18.0128619 9.61172831,17.7954878 9.53952998,17.606941 C9.48421254,17.4630638 9.38422564,17.335548 9.24008867,17.2527017" id="Fill-18" fill="#F2655B"></path>
                        <polygon id="Fill-19" fill="#F2655B" points="6.15176583 15.4706234 6.14968818 15.4693249 4.70338407 16.2406524 4.70546172 16.241951"></polygon>
                        <polygon id="Fill-20" fill="#F2655B" points="0.0098688375 18.7460127 1.46214619 17.9715686 1.46006854 17.9702701 0.0077911875 18.7447141"></polygon>
                        <path d="M1.89058359,19.8068867 C1.99784227,19.8666192 2.11419067,19.8951868 2.22898083,19.8951868 C2.47258529,19.8951868 2.70917769,19.7666322 2.83643375,19.5386102 C3.02342225,19.2035891 2.90343796,18.7800082 2.5684169,18.5930197 L1.46076974,17.9731009 L0.0105700444,18.7465061 L0.317802538,18.9257034 L1.89058359,19.8068867 Z" id="Fill-21" fill="#F2655B"></path>
                        <path d="M16.8836851,17.5527144 C16.8821269,17.6799704 16.9148499,17.799695 16.9732838,17.9030581 C17.0909307,18.1113425 17.313499,18.2534018 17.5700887,18.2562586 C17.9539346,18.2614527 18.2689582,17.9539605 18.2738927,17.5701147 L18.2757106,17.2278219 L16.8834254,16.3733883 L16.8836851,17.5527144 Z" id="Fill-22" fill="#0092D3"></path>
                        <path d="M10.5307508,13.2608349 L10.5294523,13.2605752 L10.5302314,19.8615289 C10.5286732,19.988785 10.5613962,20.1085096 10.6195704,20.2118726 C10.737477,20.4201571 10.9600453,20.5622164 11.216635,20.565138 C11.6004809,20.5702673 11.9155045,20.2627751 11.9201793,19.8789292 L11.9261525,14.1181252 L11.9266719,14.1183849 L11.927451,13.3322541 L10.5317896,12.4760026 L10.5291926,12.4773011 L10.5294523,13.2600557 L10.5307508,13.2608349 Z" id="Fill-23" fill="#0092D3"></path>
                        <path d="M14.7658326,19.8341559 C14.7642743,19.9614119 14.7969973,20.0811365 14.8554312,20.1842399 C14.9730782,20.392784 15.1956464,20.5345836 15.4522362,20.5377001 C15.836082,20.5426345 16.1511057,20.235402 16.1560401,19.8515562 L16.1588969,16.7187197 L16.1591566,16.7187197 L16.1599357,15.9292127 L14.7653132,15.0737403 L14.7655729,15.8624682 L14.7681699,15.8642861 L14.7655729,15.8629876 L14.7658326,19.8341559 Z" id="Fill-24" fill="#0092D3"></path>
                        <path d="M12.6481099,21.7573586 C12.6465517,21.8846146 12.6792747,22.0043392 12.7374489,22.1077023 C12.8553555,22.3159867 13.077664,22.458046 13.3345135,22.4609676 C13.7183594,22.4660969 14.0331233,22.1586047 14.0380578,21.7747589 L14.0427325,15.4184484 L14.0432519,15.4187081 L14.0437713,14.6310191 L12.6473308,13.7739884 L12.6473308,14.5614178 L12.6486293,14.5619372 L12.6473308,14.5619372 L12.6481099,21.7573586 Z" id="Fill-25" fill="#0092D3"></path>
                        <polygon id="Fill-26" fill="#0071BC" points="18.2756587 17.2279517 18.2826707 8.10680851 16.882854 8.89761404 16.8833735 16.3735181"></polygon>
                        <path d="M19.0910584,14.1887134 C19.2087053,14.3972575 19.4312736,14.5390571 19.6878633,14.5422322 C20.0717092,14.547108 20.3867329,14.2398755 20.3916673,13.8560296 L20.4004973,6.91330246 L19.0006806,7.7043677 L19.0014597,13.8386293 C18.9999015,13.9658854 19.0326245,14.08561 19.0910584,14.1887134" id="Fill-27" fill="#0071BC"></path>
                        <polygon id="Fill-28" fill="#0071BC" points="16.1598318 15.9295503 16.165026 9.30002887 14.7649496 10.0910941 14.7652093 15.0740779"></polygon>
                        <polygon id="Fill-29" fill="#0071BC" points="14.0437713 14.6312788 14.0471475 10.4933791 12.6470711 11.2841846 12.6473308 13.7742481"></polygon>
                        <polygon id="Fill-30" fill="#0071BC" points="11.927451 13.3326177 11.929269 11.6868592 10.5317896 12.4763662"></polygon>
                        <path d="M14.3160214,6.52434041 L13.2382404,7.09101945 L13.4441875,5.89091687 L12.5720939,5.04089831 L13.7771309,4.8658563 L14.3160214,3.77379152 L14.8549118,4.8658563 L16.0599488,5.04089831 L15.1878552,5.89091687 L15.3938023,7.09101945 L14.3160214,6.52434041 Z M10.4012093,-4.70734562e-14 L10.4012093,0.00025970625 L10.4012093,1.54239542 L10.4082214,1.52837128 L10.9471119,2.62043606 L12.1518892,2.79547807 L11.2800553,3.64549663 L11.4860023,4.84559921 L10.4082214,4.27892017 L10.4012093,4.28255606 L10.4012093,6.18828052 L10.4082214,6.17425639 L10.9471119,7.26606146 L12.1518892,7.44136318 L11.2800553,8.29112203 L11.4860023,9.49122461 L10.4082214,8.92480528 L10.4012093,8.92844117 L10.4012093,11.7446957 L10.401469,11.7449554 L20.3819802,6.13192427 L10.4012093,-4.70734562e-14 Z" id="Fill-31" fill="#0092D3"></path>
                        <path d="M7.57799464,7.10309579 L6.5002137,6.53641675 L5.42243276,7.10309579 L5.62812011,5.90299321 L4.75628623,5.05297465 L5.96132323,4.87793264 L6.5002137,3.78612757 L7.03910417,4.87793264 L8.24414117,5.05297465 L7.37230729,5.90299321 L7.57799464,7.10309579 Z M9.33049241,9.49135447 L9.53617976,8.29125188 L8.66434588,7.44123333 L9.86912318,7.26619132 L10.4012613,6.18841038 L10.4012613,4.28242621 L9.33049241,4.84546936 L9.53617976,3.64536678 L8.66434588,2.79534822 L9.86912318,2.62030621 L10.4012613,1.54226557 L10.4012613,0.000129853125 L10.3823027,0.00999869062 L0.0119724581,5.54070299 L10.4012613,11.7448256 L10.4012613,8.92831132 L9.33049241,9.49135447 Z" id="Fill-32" fill="#0071BC"></path>
                    </g>
                    <text id="Powered-by-Copy-3" font-family="SourceSansPro-SemiBold, Source Sans Pro" font-size="12" font-weight="600" line-spacing="12" fill="#666666">
                        <tspan x="0" y="17" fill="#666666">Powered by</tspan>
                    </text>
                </g>
            </g>
        </g>
    </g>
</svg>